<svg xmlns="http://www.w3.org/2000/svg" viewBox="0 0 97.32764 44.3011">
  <defs>
    <style>
      .cls-1, .cls-3, .cls-4 {
        fill: none;
        stroke: #8ff4dd;
      }

      .cls-1, .cls-4 {
        stroke-width: 2px;
      }

      .cls-2 {
        fill: #8ff4dd;
      }

      .cls-3 {
        stroke-width: 1.5px;
      }

      .cls-4 {
        stroke-linecap: square;
        stroke-miterlimit: 10;
      }
    </style>
  </defs>
  <title>1to2Decoder</title>
  <g id="Layer_1" data-name="Layer 1">
    <g>
      <path class="cls-1" d="M91.194,25H100M64,25H50" transform="translate(-15.25244 -12.54607)"/>
      <path class="cls-2" d="M63.29824,12.54607V37.45393l1.1985-.59056L87.30289,25.74689V24.25311L64.49674,13.13663Zm1.66747,2.6749L85.04486,25,64.96571,34.779Z" transform="translate(-15.25244 -12.54607)"/>
      <path class="cls-3" d="M91.10681,25a2.2233,2.2233,0,1,1-2.22329-2.2233A2.2233,2.2233,0,0,1,91.10681,25Z" transform="translate(-15.25244 -12.54607)"/>
    </g>
  </g>
  <g id="Layer_2" data-name="Layer 2">
    <polyline class="cls-4" points="34.748 12.454 34.748 37.454 9.748 37.454"/>
    <line class="cls-4" x1="34.74756" y1="37.45393" x2="83.74756" y2="37.45393"/>
    <path class="cls-2" d="M20.78955,53.53223c-.37988,0-1.07959,0-1.43945.02978V53.252c.27,0,.82959,0,.82959-.2998a.72064.72064,0,0,0-.02979-.13965l-.52978-1.5293H17.15137l-.46,1.30957a.68834.68834,0,0,0-.01953.14991c0,.25976.24951.50927.74951.50927V53.562L16.272,53.53223l-1.01953.02978V53.252a1.03889,1.03889,0,0,0,1.11963-.66943L18.44092,46.606c.0498-.14014.07959-.2002.23974-.2002.15967,0,.17969.07031.23.2002l2.1587,6.24658c.10986.32959.25.39941.84961.39941h.17968V53.562ZM18.38086,47.7251l-1.11963,3.24853h2.249Z" transform="translate(-15.25244 -12.54607)"/>
    <g>
      <path class="cls-2" d="M106.2666,28.51709h-3.6582V28.207h.24023c.76953,0,.78907-.10986.78907-.46973V22.47021c0-.35937-.01954-.46972-.78907-.46972h-.24023v-.30957h3.6582a3.27976,3.27976,0,0,1,3.0586,3.46826A3.21023,3.21023,0,0,1,106.2666,28.51709Zm1.53906-5.58691a2.1559,2.1559,0,0,0-1.81933-.92969h-.999c-.46972,0-.48925.07031-.48925.3999v5.40723c0,.32959.01953.39941.48925.39941h1.00977a2.19,2.19,0,0,0,1.77832-.84912,3.42534,3.42534,0,0,0,.54981-2.19873A3.86641,3.86641,0,0,0,107.80566,22.93018Z" transform="translate(-15.25244 -12.54607)"/>
      <path class="cls-2" d="M112.36426,31.29932a1.09011,1.09011,0,0,1-1.97656.0874,2.96069,2.96069,0,0,1-.26172-1.40479,3.11776,3.11776,0,0,1,.21582-1.32324,1.06725,1.06725,0,0,1,1.01367-.69336,1.08128,1.08128,0,0,1,.99121.65283,3.12,3.12,0,0,1,.2334,1.36377A3.10615,3.10615,0,0,1,112.36426,31.29932Zm-.32617-2.52393c-.11133-.57715-.4961-.68213-.68848-.68213-.14551,0-.583.05274-.69336.7461a7.78334,7.78334,0,0,0-.04687,1.07275,7.90916,7.90916,0,0,0,.06445,1.23c.10449.55957.44824.70508.67578.70508.26269,0,.59473-.17481.68262-.72852a7.29276,7.29276,0,0,0,.06347-1.20654A7.25038,7.25038,0,0,0,112.03809,28.77539Z" transform="translate(-15.25244 -12.54607)"/>
    </g>
    <g>
      <path class="cls-2" d="M106.2666,53.51709h-3.6582V53.207h.24023c.76953,0,.78907-.10986.78907-.46973V47.47021c0-.35937-.01954-.46972-.78907-.46972h-.24023v-.30957h3.6582a3.27976,3.27976,0,0,1,3.0586,3.46826A3.21023,3.21023,0,0,1,106.2666,53.51709Zm1.53906-5.58691a2.1559,2.1559,0,0,0-1.81933-.92969h-.999c-.46972,0-.48925.07031-.48925.3999v5.40723c0,.32959.01953.39941.48925.39941h1.00977a2.19,2.19,0,0,0,1.77832-.84912,3.42534,3.42534,0,0,0,.54981-2.19873A3.86641,3.86641,0,0,0,107.80566,47.93018Z" transform="translate(-15.25244 -12.54607)"/>
      <path class="cls-2" d="M111.39648,56.82959c-.23339,0-.74023,0-.94433.01758V56.6665h.18652c.52442,0,.542-.06982.542-.27978V53.36719a1.74082,1.74082,0,0,1-.76367.15185v-.18066a1.44264,1.44264,0,0,0,1.06153-.373c.13378,0,.13378.01123.13378.15137v3.27c0,.21582.01758.27978.542.27978h.18652v.18067C112.13672,56.82959,111.62988,56.82959,111.39648,56.82959Z" transform="translate(-15.25244 -12.54607)"/>
    </g>
    <circle class="cls-2" cx="34.74756" cy="37.45393" r="2.5"/>
  </g>
</svg>
