<svg xmlns="http://www.w3.org/2000/svg" viewBox="0 0 365.1792 156.7373">
  <defs>
    <style>
      .cls-1, .cls-4 {
        fill: #8ff4dd;
      }

      .cls-1 {
        fill-rule: evenodd;
      }

      .cls-2, .cls-3, .cls-5 {
        fill: none;
        stroke: #8ff4dd;
        stroke-width: 2px;
      }

      .cls-3, .cls-5 {
        stroke-miterlimit: 10;
      }

      .cls-5 {
        stroke-linecap: square;
      }
    </style>
  </defs>
  <title>2sComplementAdderSubtractor</title>
  <g id="Layer_1" data-name="Layer 1">
    <g>
      <g>
        <path class="cls-1" d="M156.55555,60.69445c-1.46911-.88743-1.66666-1.25-1.66666-1.25V57.4132l1.35416,1.11111a16.71869,16.71869,0,0,0,19.51389,0l1.35417-1.11111v2.03125a11.23122,11.23122,0,0,1-1.66667,1.23264A18.25864,18.25864,0,0,1,166,63.33333,18.46321,18.46321,0,0,1,156.55555,60.69445Z" transform="translate(-127.50293 -10.51367)"/>
        <path class="cls-1" d="M177.11111,60.60764l-1.35417,1.11111a16.71871,16.71871,0,0,1-19.51389,0l-1.35416-1.11111v9.53125a19.22706,19.22706,0,0,0,1.33681,7.56945c1.35042,3.29738,4.07959,6.96474,9.375,9.82638L166,86.80556l.3993.72916c10.592-5.72395,10.7118-14.7533,10.7118-17.39583Zm-1.66667,3.26388v6.26737c0,2.60231.07233,10.15936-9.44444,15.53819-4.68282-2.64821-7.04662-5.84515-8.22917-8.73263a16.959,16.959,0,0,1-1.21528-6.80556v-6.25a18.16895,18.16895,0,0,0,18.88889-.01737Z" transform="translate(-127.50293 -10.51367)"/>
      </g>
      <line class="cls-2" x1="38.49707" y1="75.48633" x2="38.49708" y2="89.48633"/>
      <line class="cls-2" x1="44.49707" y1="54.48633" x2="44.49706" y2="39.48633"/>
      <line class="cls-2" x1="32.49707" y1="54.48633" x2="32.49706" y2="39.48633"/>
    </g>
    <g>
      <rect class="cls-3" x="20.49707" y="89.48633" width="54" height="30"/>
      <g>
        <g>
          <path class="cls-4" d="M171.90161,107.49243c-.19189-1.65527-.4917-2.32666-2.29053-2.32666h-1.43945c-.56348,0-.5874.084-.5874.47949v3.03467h1.03125c1.15137,0,1.27148-.396,1.27148-1.40332h.29981v3.17822H169.887c0-1.01953-.12011-1.40332-1.27148-1.40332h-1.03125v2.95069c0,.41943,0,.57568,1.13916.57568h.396v.37158c-.43212-.03613-1.52343-.03613-2.01513-.03613-.46778,0-1.40332,0-1.82276.03613v-.37158h.2876c.92334,0,.94776-.13232.94776-.564v-6.28467c0-.43164-.02442-.56348-.94776-.56348h-.2876v-.37158h6.584l.33594,2.69824Z" transform="translate(-127.50293 -10.51367)"/>
          <path class="cls-4" d="M176.41528,113.0813v-1.0791a1.63628,1.63628,0,0,1-1.54736,1.0791c-1.82275,0-1.82275-1.09131-1.82275-2.02686v-1.79882c0-1.06739,0-1.10352-.93555-1.10352v-.37158l1.76318-.13233v3.98194c0,.62353.04785,1.1875,1.05518,1.1875.87549,0,1.45117-.81543,1.45117-1.85889v-2.13525c0-.58741-.0957-.67139-.93555-.67139v-.37158l1.76319-.13233V111.906c0,.58789.09619.67187.93554.67187v.37158Z" transform="translate(-127.50293 -10.51367)"/>
          <path class="cls-4" d="M180.12476,112.91333l-1.33106.03613v-.37158c.80322,0,.93506,0,.93506-.54v-6.23633c0-.58789-.0957-.67187-.93506-.67187v-.37158l1.727-.13184v7.41162c0,.54.13184.54.93506.54v.37158Z" transform="translate(-127.50293 -10.51367)"/>
          <path class="cls-4" d="M183.46069,112.91333l-1.33105.03613v-.37158c.80322,0,.93506,0,.93506-.54v-6.23633c0-.58789-.09571-.67187-.93506-.67187v-.37158l1.727-.13184v7.41162c0,.54.13184.54.93506.54v.37158Z" transform="translate(-127.50293 -10.51367)"/>
        </g>
        <g>
          <path class="cls-4" d="M165.09888,125.31372a1.0035,1.0035,0,0,1-.93555-.9834,1.65908,1.65908,0,0,1-1.57129,1.04346c-.75537,0-1.91894-.29981-1.91894-1.271a1.74816,1.74816,0,0,1,1.19921-1.55957,5.8496,5.8496,0,0,1,2.207-.43164v-.44385a1.35824,1.35824,0,0,0-1.27149-1.53515,1.68655,1.68655,0,0,0-1.29541.55176c.55176.0122.61182.40771.61182.55175a.55182.55182,0,1,1-1.10352-.01171c0-.792.82764-1.35547,1.811-1.35547a2.29,2.29,0,0,1,1.64306.65966,1.77312,1.77312,0,0,1,.43213,1.415v2.39893c0,.06006.04785.59961.44336.59961.13233,0,.43213-.07178.43213-.76758v-.67187h.29981v.67187A1.01845,1.01845,0,0,1,165.09888,125.31372Zm-1.01953-2.95019c-1.979.07177-2.48291,1.06738-2.48291,1.72705a1.03279,1.03279,0,0,0,1.07959,1.01953,1.44077,1.44077,0,0,0,1.40332-1.54737Z" transform="translate(-127.50293 -10.51367)"/>
          <path class="cls-4" d="M170.84692,125.37378v-.7915a2.02646,2.02646,0,0,1-1.60742.7915,2.63768,2.63768,0,0,1-2.54248-2.71045,2.71092,2.71092,0,0,1,2.67481-2.72266,1.91415,1.91415,0,0,1,1.51074.74366V118.094c0-.58789-.0957-.67187-.93506-.67187v-.37158l1.72705-.13184v7.27979c0,.58789.0957.67187.93506.67187v.37158Zm0-4.00586a.57433.57433,0,0,0-.13183-.44385,1.55578,1.55578,0,0,0-1.29541-.71924,1.64775,1.64775,0,0,0-1.35547.76758,4.12878,4.12878,0,0,0-.02393,3.37012,1.49185,1.49185,0,0,0,1.25928.76758,1.67209,1.67209,0,0,0,1.41553-.83985.57271.57271,0,0,0,.13183-.44336Z" transform="translate(-127.50293 -10.51367)"/>
          <path class="cls-4" d="M177.5188,125.37378v-.7915a2.02648,2.02648,0,0,1-1.60742.7915,2.63768,2.63768,0,0,1-2.54248-2.71045,2.71091,2.71091,0,0,1,2.6748-2.72266,1.91414,1.91414,0,0,1,1.51074.74366V118.094c0-.58789-.0957-.67187-.93506-.67187v-.37158l1.72706-.13184v7.27979c0,.58789.0957.67187.935.67187v.37158Zm0-4.00586a.5743.5743,0,0,0-.13184-.44385,1.55577,1.55577,0,0,0-1.29541-.71924,1.64777,1.64777,0,0,0-1.35547.76758,4.12872,4.12872,0,0,0-.02392,3.37012,1.49183,1.49183,0,0,0,1.25928.76758,1.67208,1.67208,0,0,0,1.41552-.83985.57268.57268,0,0,0,.13184-.44336Z" transform="translate(-127.50293 -10.51367)"/>
          <path class="cls-4" d="M182.60767,125.37378a2.70764,2.70764,0,0,1-2.63868-2.77051,2.621,2.621,0,0,1,2.49463-2.73437,2.12725,2.12725,0,0,1,2.14649,2.35058c0,.252-.03565.252-.29981.252h-3.34619a3.49151,3.49151,0,0,0,.35986,1.79882,1.61528,1.61528,0,0,0,1.35547.80371,1.69052,1.69052,0,0,0,1.61914-1.23535c.02393-.0957.04786-.168.15577-.168a.13919.13919,0,0,1,.15576.14405A2.04937,2.04937,0,0,1,182.60767,125.37378Zm-.14405-5.24121c-.40771,0-1.41552.2998-1.4873,2.08691h2.84228C183.8186,121.75171,183.699,120.13257,182.46362,120.13257Z" transform="translate(-127.50293 -10.51367)"/>
          <path class="cls-4" d="M188.81128,121.2a.49687.49687,0,0,1-.51611-.51562.52106.52106,0,0,1,.27587-.46778.30945.30945,0,0,0-.13183-.01172c-.91162,0-1.415,1.06739-1.415,2.2544v1.84717c0,.43164.02393.564.91162.564h.25147v.37158c-.4795-.03613-1.04346-.03613-1.523-.03613l-1.36719.03613v-.37158c.80322,0,.93555,0,.93555-.54v-3.21386c0-.5879-.0962-.67188-.93555-.67188V120.073l1.667-.13233V121.26a1.67967,1.67967,0,0,1,1.4751-1.31934.81893.81893,0,0,1,.88769.73194A.50363.50363,0,0,1,188.81128,121.2Z" transform="translate(-127.50293 -10.51367)"/>
        </g>
      </g>
    </g>
    <g>
      <g>
        <path class="cls-1" d="M235.55555,60.69445c-1.46911-.88743-1.66666-1.25-1.66666-1.25V57.4132l1.35416,1.11111a16.71869,16.71869,0,0,0,19.51389,0l1.35417-1.11111v2.03125a11.23122,11.23122,0,0,1-1.66667,1.23264A18.25864,18.25864,0,0,1,245,63.33333,18.46321,18.46321,0,0,1,235.55555,60.69445Z" transform="translate(-127.50293 -10.51367)"/>
        <path class="cls-1" d="M256.11111,60.60764l-1.35417,1.11111a16.71871,16.71871,0,0,1-19.51389,0l-1.35416-1.11111v9.53125a19.22706,19.22706,0,0,0,1.33681,7.56945c1.35042,3.29738,4.07959,6.96474,9.375,9.82638L245,86.80556l.3993.72916c10.592-5.72395,10.7118-14.7533,10.7118-17.39583Zm-1.66667,3.26388v6.26737c0,2.60231.07233,10.15936-9.44444,15.53819-4.68282-2.64821-7.04662-5.84515-8.22917-8.73263a16.959,16.959,0,0,1-1.21528-6.80556v-6.25a18.16895,18.16895,0,0,0,18.88889-.01737Z" transform="translate(-127.50293 -10.51367)"/>
      </g>
      <line class="cls-2" x1="117.49707" y1="75.48633" x2="117.49708" y2="89.48633"/>
      <line class="cls-2" x1="123.49707" y1="54.48633" x2="123.49706" y2="39.48633"/>
      <line class="cls-2" x1="111.49707" y1="54.48633" x2="111.49706" y2="39.48633"/>
    </g>
    <g>
      <rect class="cls-3" x="99.49707" y="89.48633" width="54" height="30"/>
      <g>
        <g>
          <path class="cls-4" d="M250.90161,107.49243c-.19189-1.65527-.4917-2.32666-2.29053-2.32666h-1.43945c-.56348,0-.5874.084-.5874.47949v3.03467h1.03125c1.15137,0,1.27148-.396,1.27148-1.40332h.29981v3.17822H248.887c0-1.01953-.12011-1.40332-1.27148-1.40332h-1.03125v2.95069c0,.41943,0,.57568,1.13916.57568h.396v.37158c-.43212-.03613-1.52343-.03613-2.01513-.03613-.46778,0-1.40332,0-1.82276.03613v-.37158h.2876c.92334,0,.94776-.13232.94776-.564v-6.28467c0-.43164-.02442-.56348-.94776-.56348h-.2876v-.37158h6.584l.33594,2.69824Z" transform="translate(-127.50293 -10.51367)"/>
          <path class="cls-4" d="M255.41528,113.0813v-1.0791a1.63628,1.63628,0,0,1-1.54736,1.0791c-1.82275,0-1.82275-1.09131-1.82275-2.02686v-1.79882c0-1.06739,0-1.10352-.93555-1.10352v-.37158l1.76318-.13233v3.98194c0,.62353.04785,1.1875,1.05518,1.1875.87549,0,1.45117-.81543,1.45117-1.85889v-2.13525c0-.58741-.0957-.67139-.93555-.67139v-.37158l1.76319-.13233V111.906c0,.58789.09619.67187.93554.67187v.37158Z" transform="translate(-127.50293 -10.51367)"/>
          <path class="cls-4" d="M259.12476,112.91333l-1.33106.03613v-.37158c.80322,0,.93506,0,.93506-.54v-6.23633c0-.58789-.0957-.67187-.93506-.67187v-.37158l1.72705-.13184v7.41162c0,.54.13184.54.93506.54v.37158Z" transform="translate(-127.50293 -10.51367)"/>
          <path class="cls-4" d="M262.46069,112.91333l-1.33105.03613v-.37158c.80322,0,.93506,0,.93506-.54v-6.23633c0-.58789-.09571-.67187-.93506-.67187v-.37158l1.72705-.13184v7.41162c0,.54.13184.54.93506.54v.37158Z" transform="translate(-127.50293 -10.51367)"/>
        </g>
        <g>
          <path class="cls-4" d="M244.09888,125.31372a1.0035,1.0035,0,0,1-.93555-.9834,1.65908,1.65908,0,0,1-1.57129,1.04346c-.75537,0-1.91894-.29981-1.91894-1.271a1.74816,1.74816,0,0,1,1.19921-1.55957,5.8496,5.8496,0,0,1,2.207-.43164v-.44385a1.35824,1.35824,0,0,0-1.27149-1.53515,1.68655,1.68655,0,0,0-1.29541.55176c.55176.0122.61182.40771.61182.55175a.55182.55182,0,1,1-1.10352-.01171c0-.792.82764-1.35547,1.811-1.35547a2.29,2.29,0,0,1,1.64306.65966,1.77312,1.77312,0,0,1,.43213,1.415v2.39893c0,.06006.04785.59961.44336.59961.13233,0,.43213-.07178.43213-.76758v-.67187h.29981v.67187A1.01845,1.01845,0,0,1,244.09888,125.31372Zm-1.01953-2.95019c-1.979.07177-2.48291,1.06738-2.48291,1.72705a1.03279,1.03279,0,0,0,1.07959,1.01953,1.44077,1.44077,0,0,0,1.40332-1.54737Z" transform="translate(-127.50293 -10.51367)"/>
          <path class="cls-4" d="M249.84692,125.37378v-.7915a2.02646,2.02646,0,0,1-1.60742.7915,2.63768,2.63768,0,0,1-2.54248-2.71045,2.71092,2.71092,0,0,1,2.67481-2.72266,1.91415,1.91415,0,0,1,1.51074.74366V118.094c0-.58789-.0957-.67187-.93506-.67187v-.37158l1.72705-.13184v7.27979c0,.58789.0957.67187.93506.67187v.37158Zm0-4.00586a.57433.57433,0,0,0-.13183-.44385,1.55578,1.55578,0,0,0-1.29541-.71924,1.64775,1.64775,0,0,0-1.35547.76758,4.12878,4.12878,0,0,0-.02393,3.37012,1.49185,1.49185,0,0,0,1.25928.76758,1.67209,1.67209,0,0,0,1.41553-.83985.57271.57271,0,0,0,.13183-.44336Z" transform="translate(-127.50293 -10.51367)"/>
          <path class="cls-4" d="M256.5188,125.37378v-.7915a2.02648,2.02648,0,0,1-1.60742.7915,2.63768,2.63768,0,0,1-2.54248-2.71045,2.71091,2.71091,0,0,1,2.6748-2.72266,1.91414,1.91414,0,0,1,1.51074.74366V118.094c0-.58789-.0957-.67187-.93506-.67187v-.37158l1.72706-.13184v7.27979c0,.58789.0957.67187.93505.67187v.37158Zm0-4.00586a.5743.5743,0,0,0-.13184-.44385,1.55577,1.55577,0,0,0-1.29541-.71924,1.64777,1.64777,0,0,0-1.35547.76758,4.12872,4.12872,0,0,0-.02392,3.37012,1.49183,1.49183,0,0,0,1.25928.76758,1.67208,1.67208,0,0,0,1.41552-.83985.57268.57268,0,0,0,.13184-.44336Z" transform="translate(-127.50293 -10.51367)"/>
          <path class="cls-4" d="M261.60767,125.37378a2.70764,2.70764,0,0,1-2.63868-2.77051,2.621,2.621,0,0,1,2.49463-2.73437,2.12725,2.12725,0,0,1,2.14649,2.35058c0,.252-.03565.252-.29981.252h-3.34619a3.49151,3.49151,0,0,0,.35986,1.79882,1.61528,1.61528,0,0,0,1.35547.80371,1.69052,1.69052,0,0,0,1.61914-1.23535c.02393-.0957.04786-.168.15577-.168a.13919.13919,0,0,1,.15576.14405A2.04937,2.04937,0,0,1,261.60767,125.37378Zm-.144-5.24121c-.40771,0-1.41552.2998-1.4873,2.08691h2.84228C262.8186,121.75171,262.699,120.13257,261.46362,120.13257Z" transform="translate(-127.50293 -10.51367)"/>
          <path class="cls-4" d="M267.81128,121.2a.49687.49687,0,0,1-.51611-.51562.52106.52106,0,0,1,.27587-.46778.30945.30945,0,0,0-.13183-.01172c-.91162,0-1.415,1.06739-1.415,2.2544v1.84717c0,.43164.02393.564.91162.564h.25147v.37158c-.4795-.03613-1.04346-.03613-1.52295-.03613l-1.36719.03613v-.37158c.80322,0,.93555,0,.93555-.54v-3.21386c0-.5879-.0962-.67188-.93555-.67188V120.073l1.667-.13233V121.26a1.67967,1.67967,0,0,1,1.4751-1.31934.81893.81893,0,0,1,.88769.73194A.50363.50363,0,0,1,267.81128,121.2Z" transform="translate(-127.50293 -10.51367)"/>
        </g>
      </g>
    </g>
    <g>
      <g>
        <path class="cls-1" d="M314.55555,60.69445c-1.46911-.88743-1.66666-1.25-1.66666-1.25V57.4132l1.35416,1.11111a16.71869,16.71869,0,0,0,19.51389,0l1.35417-1.11111v2.03125a11.23122,11.23122,0,0,1-1.66667,1.23264A18.25864,18.25864,0,0,1,324,63.33333,18.46321,18.46321,0,0,1,314.55555,60.69445Z" transform="translate(-127.50293 -10.51367)"/>
        <path class="cls-1" d="M335.11111,60.60764l-1.35417,1.11111a16.71871,16.71871,0,0,1-19.51389,0l-1.35416-1.11111v9.53125a19.22706,19.22706,0,0,0,1.33681,7.56945c1.35042,3.29738,4.07959,6.96474,9.375,9.82638L324,86.80556l.3993.72916c10.592-5.72395,10.7118-14.7533,10.7118-17.39583Zm-1.66667,3.26388v6.26737c0,2.60231.07233,10.15936-9.44444,15.53819-4.68282-2.64821-7.04662-5.84515-8.22917-8.73263a16.959,16.959,0,0,1-1.21528-6.80556v-6.25a18.16895,18.16895,0,0,0,18.88889-.01737Z" transform="translate(-127.50293 -10.51367)"/>
      </g>
      <line class="cls-2" x1="196.49707" y1="75.48633" x2="196.49708" y2="89.48633"/>
      <line class="cls-2" x1="202.49707" y1="54.48633" x2="202.49706" y2="39.48633"/>
      <line class="cls-2" x1="190.49707" y1="54.48633" x2="190.49706" y2="39.48633"/>
    </g>
    <g>
      <rect class="cls-3" x="178.49707" y="89.48633" width="54" height="30"/>
      <g>
        <g>
          <path class="cls-4" d="M329.90161,107.49243c-.19189-1.65527-.4917-2.32666-2.29053-2.32666h-1.43945c-.56348,0-.5874.084-.5874.47949v3.03467h1.03125c1.15137,0,1.27148-.396,1.27148-1.40332h.29981v3.17822H327.887c0-1.01953-.12011-1.40332-1.27148-1.40332h-1.03125v2.95069c0,.41943,0,.57568,1.13916.57568h.396v.37158c-.43212-.03613-1.52343-.03613-2.01513-.03613-.46778,0-1.40332,0-1.82276.03613v-.37158h.2876c.92334,0,.94776-.13232.94776-.564v-6.28467c0-.43164-.02442-.56348-.94776-.56348h-.2876v-.37158h6.584l.33594,2.69824Z" transform="translate(-127.50293 -10.51367)"/>
          <path class="cls-4" d="M334.41528,113.0813v-1.0791a1.63628,1.63628,0,0,1-1.54736,1.0791c-1.82275,0-1.82275-1.09131-1.82275-2.02686v-1.79882c0-1.06739,0-1.10352-.93555-1.10352v-.37158l1.76318-.13233v3.98194c0,.62353.04785,1.1875,1.05518,1.1875.87549,0,1.45117-.81543,1.45117-1.85889v-2.13525c0-.58741-.0957-.67139-.93555-.67139v-.37158l1.76319-.13233V111.906c0,.58789.09619.67187.93554.67187v.37158Z" transform="translate(-127.50293 -10.51367)"/>
          <path class="cls-4" d="M338.12476,112.91333l-1.33106.03613v-.37158c.80322,0,.93506,0,.93506-.54v-6.23633c0-.58789-.0957-.67187-.93506-.67187v-.37158l1.72705-.13184v7.41162c0,.54.13184.54.93506.54v.37158Z" transform="translate(-127.50293 -10.51367)"/>
          <path class="cls-4" d="M341.46069,112.91333l-1.33105.03613v-.37158c.80322,0,.93506,0,.93506-.54v-6.23633c0-.58789-.09571-.67187-.93506-.67187v-.37158l1.72705-.13184v7.41162c0,.54.13184.54.93506.54v.37158Z" transform="translate(-127.50293 -10.51367)"/>
        </g>
        <g>
          <path class="cls-4" d="M323.09888,125.31372a1.0035,1.0035,0,0,1-.93555-.9834,1.65908,1.65908,0,0,1-1.57129,1.04346c-.75537,0-1.91894-.29981-1.91894-1.271a1.74816,1.74816,0,0,1,1.19921-1.55957,5.8496,5.8496,0,0,1,2.207-.43164v-.44385a1.35824,1.35824,0,0,0-1.27149-1.53515,1.68655,1.68655,0,0,0-1.29541.55176c.55176.0122.61182.40771.61182.55175a.55182.55182,0,1,1-1.10352-.01171c0-.792.82764-1.35547,1.811-1.35547a2.29,2.29,0,0,1,1.64306.65966,1.77312,1.77312,0,0,1,.43213,1.415v2.39893c0,.06006.04785.59961.44336.59961.13233,0,.43213-.07178.43213-.76758v-.67187h.29981v.67187A1.01845,1.01845,0,0,1,323.09888,125.31372Zm-1.01953-2.95019c-1.979.07177-2.48291,1.06738-2.48291,1.72705a1.03279,1.03279,0,0,0,1.07959,1.01953,1.44077,1.44077,0,0,0,1.40332-1.54737Z" transform="translate(-127.50293 -10.51367)"/>
          <path class="cls-4" d="M328.84692,125.37378v-.7915a2.02646,2.02646,0,0,1-1.60742.7915,2.63768,2.63768,0,0,1-2.54248-2.71045,2.71092,2.71092,0,0,1,2.67481-2.72266,1.91415,1.91415,0,0,1,1.51074.74366V118.094c0-.58789-.0957-.67187-.93506-.67187v-.37158l1.727-.13184v7.27979c0,.58789.0957.67187.93506.67187v.37158Zm0-4.00586a.57433.57433,0,0,0-.13183-.44385,1.55578,1.55578,0,0,0-1.29541-.71924,1.64775,1.64775,0,0,0-1.35547.76758,4.12878,4.12878,0,0,0-.02393,3.37012,1.49185,1.49185,0,0,0,1.25928.76758,1.67209,1.67209,0,0,0,1.41553-.83985.57271.57271,0,0,0,.13183-.44336Z" transform="translate(-127.50293 -10.51367)"/>
          <path class="cls-4" d="M335.5188,125.37378v-.7915a2.02648,2.02648,0,0,1-1.60742.7915,2.63768,2.63768,0,0,1-2.54248-2.71045,2.71091,2.71091,0,0,1,2.6748-2.72266,1.91414,1.91414,0,0,1,1.51074.74366V118.094c0-.58789-.0957-.67187-.93506-.67187v-.37158l1.72706-.13184v7.27979c0,.58789.0957.67187.93505.67187v.37158Zm0-4.00586a.5743.5743,0,0,0-.13184-.44385,1.55577,1.55577,0,0,0-1.29541-.71924,1.64777,1.64777,0,0,0-1.35547.76758,4.12872,4.12872,0,0,0-.02392,3.37012,1.49183,1.49183,0,0,0,1.25928.76758,1.67208,1.67208,0,0,0,1.41552-.83985.57268.57268,0,0,0,.13184-.44336Z" transform="translate(-127.50293 -10.51367)"/>
          <path class="cls-4" d="M340.60767,125.37378a2.70764,2.70764,0,0,1-2.63868-2.77051,2.621,2.621,0,0,1,2.49463-2.73437,2.12725,2.12725,0,0,1,2.14649,2.35058c0,.252-.03565.252-.29981.252h-3.34619a3.49151,3.49151,0,0,0,.35986,1.79882,1.61528,1.61528,0,0,0,1.35547.80371,1.69052,1.69052,0,0,0,1.61914-1.23535c.02393-.0957.04786-.168.15577-.168a.13919.13919,0,0,1,.15576.14405A2.04937,2.04937,0,0,1,340.60767,125.37378Zm-.144-5.24121c-.40771,0-1.41552.2998-1.4873,2.08691h2.84228C341.8186,121.75171,341.699,120.13257,340.46362,120.13257Z" transform="translate(-127.50293 -10.51367)"/>
          <path class="cls-4" d="M346.81128,121.2a.49687.49687,0,0,1-.51611-.51562.52106.52106,0,0,1,.27587-.46778.30945.30945,0,0,0-.13183-.01172c-.91162,0-1.415,1.06739-1.415,2.2544v1.84717c0,.43164.02393.564.91162.564h.25147v.37158c-.4795-.03613-1.04346-.03613-1.52295-.03613l-1.36719.03613v-.37158c.80322,0,.93555,0,.93555-.54v-3.21386c0-.5879-.0962-.67188-.93555-.67188V120.073l1.667-.13233V121.26a1.67967,1.67967,0,0,1,1.4751-1.31934.81893.81893,0,0,1,.88769.73194A.50363.50363,0,0,1,346.81128,121.2Z" transform="translate(-127.50293 -10.51367)"/>
        </g>
      </g>
    </g>
    <g>
      <g>
        <path class="cls-1" d="M393.55555,60.69445c-1.46911-.88743-1.66666-1.25-1.66666-1.25V57.4132l1.35416,1.11111a16.71869,16.71869,0,0,0,19.51389,0l1.35417-1.11111v2.03125a11.23122,11.23122,0,0,1-1.66667,1.23264A18.25864,18.25864,0,0,1,403,63.33333,18.46321,18.46321,0,0,1,393.55555,60.69445Z" transform="translate(-127.50293 -10.51367)"/>
        <path class="cls-1" d="M414.11111,60.60764l-1.35417,1.11111a16.71871,16.71871,0,0,1-19.51389,0l-1.35416-1.11111v9.53125a19.22706,19.22706,0,0,0,1.33681,7.56945c1.35042,3.29738,4.07959,6.96474,9.375,9.82638L403,86.80556l.3993.72916c10.592-5.72395,10.7118-14.7533,10.7118-17.39583Zm-1.66667,3.26388v6.26737c0,2.60231.07233,10.15936-9.44444,15.53819-4.68282-2.64821-7.04662-5.84515-8.22917-8.73263a16.959,16.959,0,0,1-1.21528-6.80556v-6.25a18.16895,18.16895,0,0,0,18.88889-.01737Z" transform="translate(-127.50293 -10.51367)"/>
      </g>
      <line class="cls-2" x1="275.49707" y1="75.48633" x2="275.49708" y2="89.48633"/>
      <line class="cls-2" x1="281.49707" y1="54.48633" x2="281.49706" y2="39.48633"/>
      <line class="cls-2" x1="269.49707" y1="54.48633" x2="269.49706" y2="39.48633"/>
    </g>
    <g>
      <rect class="cls-3" x="257.49707" y="89.48633" width="54" height="30"/>
      <g>
        <g>
          <path class="cls-4" d="M408.90161,107.49243c-.19189-1.65527-.4917-2.32666-2.29053-2.32666h-1.43945c-.56348,0-.5874.084-.5874.47949v3.03467h1.03125c1.15137,0,1.27148-.396,1.27148-1.40332h.29981v3.17822H406.887c0-1.01953-.12011-1.40332-1.27148-1.40332h-1.03125v2.95069c0,.41943,0,.57568,1.13916.57568h.396v.37158c-.43212-.03613-1.52343-.03613-2.01513-.03613-.46778,0-1.40332,0-1.82276.03613v-.37158h.2876c.92334,0,.94776-.13232.94776-.564v-6.28467c0-.43164-.02442-.56348-.94776-.56348h-.2876v-.37158h6.584l.33594,2.69824Z" transform="translate(-127.50293 -10.51367)"/>
          <path class="cls-4" d="M413.41528,113.0813v-1.0791a1.63628,1.63628,0,0,1-1.54736,1.0791c-1.82275,0-1.82275-1.09131-1.82275-2.02686v-1.79882c0-1.06739,0-1.10352-.93555-1.10352v-.37158l1.76318-.13233v3.98194c0,.62353.04785,1.1875,1.05518,1.1875.87549,0,1.45117-.81543,1.45117-1.85889v-2.13525c0-.58741-.0957-.67139-.93555-.67139v-.37158l1.76319-.13233V111.906c0,.58789.09619.67187.93554.67187v.37158Z" transform="translate(-127.50293 -10.51367)"/>
          <path class="cls-4" d="M417.12476,112.91333l-1.33106.03613v-.37158c.80322,0,.93506,0,.93506-.54v-6.23633c0-.58789-.0957-.67187-.93506-.67187v-.37158l1.72705-.13184v7.41162c0,.54.13184.54.93506.54v.37158Z" transform="translate(-127.50293 -10.51367)"/>
          <path class="cls-4" d="M420.46069,112.91333l-1.33105.03613v-.37158c.80322,0,.93506,0,.93506-.54v-6.23633c0-.58789-.09571-.67187-.93506-.67187v-.37158l1.72705-.13184v7.41162c0,.54.13184.54.93506.54v.37158Z" transform="translate(-127.50293 -10.51367)"/>
        </g>
        <g>
          <path class="cls-4" d="M402.09888,125.31372a1.0035,1.0035,0,0,1-.93555-.9834,1.65908,1.65908,0,0,1-1.57129,1.04346c-.75537,0-1.91894-.29981-1.91894-1.271a1.74816,1.74816,0,0,1,1.19921-1.55957,5.8496,5.8496,0,0,1,2.207-.43164v-.44385a1.35824,1.35824,0,0,0-1.27149-1.53515,1.68655,1.68655,0,0,0-1.29541.55176c.55176.0122.61182.40771.61182.55175a.55182.55182,0,1,1-1.10352-.01171c0-.792.82764-1.35547,1.811-1.35547a2.29,2.29,0,0,1,1.64306.65966,1.77312,1.77312,0,0,1,.43213,1.415v2.39893c0,.06006.04785.59961.44336.59961.13233,0,.43213-.07178.43213-.76758v-.67187h.29981v.67187A1.01845,1.01845,0,0,1,402.09888,125.31372Zm-1.01953-2.95019c-1.979.07177-2.48291,1.06738-2.48291,1.72705a1.03279,1.03279,0,0,0,1.07959,1.01953,1.44077,1.44077,0,0,0,1.40332-1.54737Z" transform="translate(-127.50293 -10.51367)"/>
          <path class="cls-4" d="M407.84692,125.37378v-.7915a2.02646,2.02646,0,0,1-1.60742.7915,2.63768,2.63768,0,0,1-2.54248-2.71045,2.71092,2.71092,0,0,1,2.67481-2.72266,1.91415,1.91415,0,0,1,1.51074.74366V118.094c0-.58789-.0957-.67187-.93506-.67187v-.37158l1.727-.13184v7.27979c0,.58789.0957.67187.93506.67187v.37158Zm0-4.00586a.57433.57433,0,0,0-.13183-.44385,1.55578,1.55578,0,0,0-1.29541-.71924,1.64775,1.64775,0,0,0-1.35547.76758,4.12878,4.12878,0,0,0-.02393,3.37012,1.49185,1.49185,0,0,0,1.25928.76758,1.67209,1.67209,0,0,0,1.41553-.83985.57271.57271,0,0,0,.13183-.44336Z" transform="translate(-127.50293 -10.51367)"/>
          <path class="cls-4" d="M414.5188,125.37378v-.7915a2.02648,2.02648,0,0,1-1.60742.7915,2.63768,2.63768,0,0,1-2.54248-2.71045,2.71091,2.71091,0,0,1,2.6748-2.72266,1.91414,1.91414,0,0,1,1.51074.74366V118.094c0-.58789-.0957-.67187-.93506-.67187v-.37158l1.72706-.13184v7.27979c0,.58789.0957.67187.93505.67187v.37158Zm0-4.00586a.5743.5743,0,0,0-.13184-.44385,1.55577,1.55577,0,0,0-1.29541-.71924,1.64777,1.64777,0,0,0-1.35547.76758,4.12872,4.12872,0,0,0-.02392,3.37012,1.49183,1.49183,0,0,0,1.25928.76758,1.67208,1.67208,0,0,0,1.41552-.83985.57268.57268,0,0,0,.13184-.44336Z" transform="translate(-127.50293 -10.51367)"/>
          <path class="cls-4" d="M419.60767,125.37378a2.70764,2.70764,0,0,1-2.63868-2.77051,2.621,2.621,0,0,1,2.49463-2.73437,2.12725,2.12725,0,0,1,2.14649,2.35058c0,.252-.03565.252-.29981.252h-3.34619a3.49151,3.49151,0,0,0,.35986,1.79882,1.61528,1.61528,0,0,0,1.35547.80371,1.69052,1.69052,0,0,0,1.61914-1.23535c.02393-.0957.04786-.168.15577-.168a.13919.13919,0,0,1,.15576.14405A2.04937,2.04937,0,0,1,419.60767,125.37378Zm-.144-5.24121c-.40771,0-1.41552.2998-1.4873,2.08691h2.84228C420.8186,121.75171,420.699,120.13257,419.46362,120.13257Z" transform="translate(-127.50293 -10.51367)"/>
          <path class="cls-4" d="M425.81128,121.2a.49687.49687,0,0,1-.51611-.51562.52106.52106,0,0,1,.27587-.46778.30945.30945,0,0,0-.13183-.01172c-.91162,0-1.415,1.06739-1.415,2.2544v1.84717c0,.43164.02393.564.91162.564h.25147v.37158c-.4795-.03613-1.04346-.03613-1.52295-.03613l-1.36719.03613v-.37158c.80322,0,.93555,0,.93555-.54v-3.21386c0-.5879-.0962-.67188-.93555-.67188V120.073l1.667-.13233V121.26a1.67967,1.67967,0,0,1,1.4751-1.31934.81893.81893,0,0,1,.88769.73194A.50363.50363,0,0,1,425.81128,121.2Z" transform="translate(-127.50293 -10.51367)"/>
        </g>
      </g>
    </g>
  </g>
  <g id="Layer_2" data-name="Layer 2">
    <line class="cls-5" x1="99.49707" y1="104.48633" x2="74.49707" y2="104.48633"/>
    <line class="cls-5" x1="178.49707" y1="104.48633" x2="153.49707" y2="104.48633"/>
    <line class="cls-5" x1="257.49707" y1="104.48633" x2="232.49707" y2="104.48633"/>
    <line class="cls-5" x1="56.49707" y1="89.48633" x2="56.49707" y2="14.48633"/>
    <line class="cls-5" x1="135.49707" y1="89.48633" x2="135.49707" y2="14.48633"/>
    <line class="cls-5" x1="214.49707" y1="89.48633" x2="214.49707" y2="14.48633"/>
    <line class="cls-5" x1="293.49707" y1="89.48633" x2="293.49707" y2="14.48633"/>
    <line class="cls-5" x1="32.49706" y1="39.48633" x2="32.49706" y2="14.48633"/>
    <line class="cls-5" x1="111.49706" y1="39.48633" x2="111.49706" y2="14.48633"/>
    <line class="cls-5" x1="190.49706" y1="39.48633" x2="190.49706" y2="14.48633"/>
    <line class="cls-5" x1="269.49706" y1="39.48633" x2="269.49706" y2="14.48633"/>
    <line class="cls-5" x1="47.49707" y1="119.48633" x2="47.49707" y2="139.48633"/>
    <line class="cls-5" x1="126.49707" y1="119.48633" x2="126.49707" y2="139.48633"/>
    <polyline class="cls-5" points="20.497 104.486 5.497 104.486 5.497 139.486"/>
    <line class="cls-5" x1="205.49707" y1="119.48633" x2="205.49707" y2="139.48633"/>
    <line class="cls-5" x1="284.49707" y1="119.48633" x2="284.49707" y2="139.48633"/>
    <polyline class="cls-5" points="311.497 104.486 326.497 104.486 326.497 27.486 341.497 27.486"/>
    <polyline class="cls-5" points="326.497 27.486 44.497 27.486 44.497 39.486"/>
    <line class="cls-5" x1="123.49706" y1="39.48633" x2="123.49706" y2="27.48633"/>
    <line class="cls-5" x1="202.49706" y1="39.48633" x2="202.49706" y2="27.48633"/>
    <line class="cls-5" x1="281.49706" y1="39.48633" x2="281.49706" y2="27.48633"/>
    <g>
      <path class="cls-4" d="M131.67676,163.36475a4.36375,4.36375,0,0,1,0-8.71924,2.94221,2.94221,0,0,1,2.207,1.03174l.59961-.8877c.0957-.144.144-.144.19189-.144.13184,0,.13184.084.13184.28808v2.84229c0,.25195,0,.28808-.1919.28808-.168,0-.168-.03613-.19189-.2041-.23975-1.751-1.30713-2.84228-2.61475-2.84228-.73144,0-3.07031.40771-3.07031,3.99365,0,3.57422,2.35108,3.98193,3.08252,3.98193a2.71623,2.71623,0,0,0,2.68652-2.69873c.01221-.11963.01221-.19189.144-.19189.15576,0,.15576.084.15576.2041A3.13588,3.13588,0,0,1,131.67676,163.36475Z" transform="translate(-127.50293 -10.51367)"/>
      <path class="cls-4" d="M138.08789,165.94385v.6084c0,.25146.01416.32812.53125.32812h.14649v.2168c-.28663-.021-.65674-.021-.9502-.021s-.65723,0-.94336.021v-.2168h.14648c.51709,0,.53125-.07666.53125-.32812v-.6084h-1.85888v-.21631l2.14551-3.27783c.05566-.084.07666-.084.13964-.084.11182,0,.11182.042.11182.18213v3.17969h.69873v.21631Zm-.49609-2.82324-1.70508,2.60693h1.70508Z" transform="translate(-127.50293 -10.51367)"/>
    </g>
    <g>
      <path class="cls-4" d="M213.67676,108.36475a4.36375,4.36375,0,0,1,0-8.71924,2.94221,2.94221,0,0,1,2.207,1.03174l.59961-.8877c.0957-.144.144-.144.19189-.144.13184,0,.13184.084.13184.28808v2.84229c0,.25195,0,.28808-.1919.28808-.168,0-.168-.03613-.19189-.2041-.23975-1.751-1.30713-2.84228-2.61475-2.84228-.73144,0-3.07031.40771-3.07031,3.99365,0,3.57422,2.35108,3.98193,3.08252,3.98193a2.71623,2.71623,0,0,0,2.68652-2.69873c.01221-.11963.01221-.19189.144-.19189.15576,0,.15576.084.15576.2041A3.13588,3.13588,0,0,1,213.67676,108.36475Z" transform="translate(-127.50293 -10.51367)"/>
      <path class="cls-4" d="M219.2002,112.251a1.27472,1.27472,0,0,1-1.41163-1.09717.39148.39148,0,1,1,.78272-.01416.38253.38253,0,0,1-.46094.38428,1.27039,1.27039,0,0,0,1.06885.53125c.30762,0,.79-.20264.79-1.15284,0-.685-.25879-1.16015-.832-1.16015h-.30713c-.11914,0-.168,0-.168-.07715,0-.06983.04883-.07666.105-.084.04883,0,.2168-.01367.27246-.0205a.67819.67819,0,0,0,.62207-.36377,1.74509,1.74509,0,0,0,.1958-.79639c0-.62891-.38476-.78271-.6709-.78271a1.13291,1.13291,0,0,0-.92968.4331c.105,0,.4331,0,.4331.34961a.35624.35624,0,1,1-.7124-.00732c0-.53077.53076-.9502,1.23682-.9502.67089,0,1.28564.39111,1.28564.96436a1.34533,1.34533,0,0,1-.978,1.23,1.34841,1.34841,0,0,1,1.167,1.26513A1.42588,1.42588,0,0,1,219.2002,112.251Z" transform="translate(-127.50293 -10.51367)"/>
    </g>
    <g>
      <path class="cls-4" d="M293.67676,108.36475a4.36375,4.36375,0,0,1,0-8.71924,2.94221,2.94221,0,0,1,2.207,1.03174l.59961-.8877c.0957-.144.144-.144.19189-.144.13184,0,.13184.084.13184.28808v2.84229c0,.25195,0,.28808-.1919.28808-.168,0-.168-.03613-.19189-.2041-.23975-1.751-1.30713-2.84228-2.61475-2.84228-.73144,0-3.07031.40771-3.07031,3.99365,0,3.57422,2.35108,3.98193,3.08252,3.98193a2.71623,2.71623,0,0,0,2.68652-2.69873c.01221-.11963.01221-.19189.144-.19189.15576,0,.15576.084.15576.2041A3.13588,3.13588,0,0,1,293.67676,108.36475Z" transform="translate(-127.50293 -10.51367)"/>
      <path class="cls-4" d="M300.4375,112.09717h-2.59277c0-.16748,0-.18164.07666-.25879l1.34179-1.49512a2.506,2.506,0,0,0,.73389-1.54443c0-.57324-.30078-1.13916-.93652-1.13916a1.00746,1.00746,0,0,0-.94336.7124.27068.27068,0,0,1,.09082-.00684.35336.35336,0,0,1,.37012.36329.36712.36712,0,1,1-.7334-.021,1.29119,1.29119,0,0,1,1.30664-1.26465,1.3728,1.3728,0,0,1,1.48144,1.356c0,.69873-.41894,1.07617-1.50927,2.04053l-.74073.71972h1.25782a2.27011,2.27011,0,0,0,.66406-.05615,2.28889,2.28889,0,0,0,.15332-.62158h.1748Z" transform="translate(-127.50293 -10.51367)"/>
    </g>
    <g>
      <path class="cls-4" d="M371.67676,108.36475a4.36375,4.36375,0,0,1,0-8.71924,2.94221,2.94221,0,0,1,2.207,1.03174l.59961-.8877c.0957-.144.144-.144.19189-.144.13184,0,.13184.084.13184.28808v2.84229c0,.25195,0,.28808-.1919.28808-.168,0-.168-.03613-.19189-.2041-.23975-1.751-1.30713-2.84228-2.61475-2.84228-.73144,0-3.07031.40771-3.07031,3.99365,0,3.57422,2.35108,3.98193,3.08252,3.98193a2.71623,2.71623,0,0,0,2.68652-2.69873c.01221-.11963.01221-.19189.144-.19189.15576,0,.15576.084.15576.2041A3.13588,3.13588,0,0,1,371.67676,108.36475Z" transform="translate(-127.50293 -10.51367)"/>
      <path class="cls-4" d="M377.291,112.07617c-.2793,0-.88721,0-1.13184.021v-.2168h.22363c.62891,0,.6499-.08349.6499-.33545V107.9248a2.0899,2.0899,0,0,1-.91552.18213v-.21679a1.72718,1.72718,0,0,0,1.272-.44727c.16064,0,.16064.01416.16064.18164v3.92041c0,.25879.021.33545.64991.33545h.22363v.2168C378.17871,112.07617,377.5708,112.07617,377.291,112.07617Z" transform="translate(-127.50293 -10.51367)"/>
    </g>
    <g>
      <path class="cls-4" d="M464.67676,108.36475a4.36375,4.36375,0,0,1,0-8.71924,2.94221,2.94221,0,0,1,2.207,1.03174l.59961-.8877c.0957-.144.144-.144.19189-.144.13184,0,.13184.084.13184.28808v2.84229c0,.25195,0,.28808-.1919.28808-.168,0-.168-.03613-.19189-.2041-.23975-1.751-1.30713-2.84228-2.61475-2.84228-.73144,0-3.07031.40771-3.07031,3.99365,0,3.57422,2.35108,3.98193,3.08252,3.98193a2.71623,2.71623,0,0,0,2.68652-2.69873c.01221-.11963.01221-.19189.144-.19189.15576,0,.15576.084.15576.2041A3.13588,3.13588,0,0,1,464.67676,108.36475Z" transform="translate(-127.50293 -10.51367)"/>
      <path class="cls-4" d="M471.45117,111.44043a1.30655,1.30655,0,0,1-2.36914.10449,3.53817,3.53817,0,0,1-.31445-1.68408,3.73779,3.73779,0,0,1,.25879-1.58643,1.28085,1.28085,0,0,1,1.21582-.83154,1.29568,1.29568,0,0,1,1.188.78272,4.93407,4.93407,0,0,1,.021,3.21484Zm-.39111-3.02637c-.13281-.69189-.59424-.81738-.82471-.81738-.1748,0-.69873.063-.83154.89453a9.33028,9.33028,0,0,0-.05615,1.28565,9.49275,9.49275,0,0,0,.07714,1.4746c.12549.6709.53809.84571.81055.84571.31445,0,.71289-.20947.81738-.87354a13.47219,13.47219,0,0,0,.00733-2.80957Z" transform="translate(-127.50293 -10.51367)"/>
    </g>
    <g>
      <path class="cls-4" d="M174.45361,163.36475a3.00587,3.00587,0,0,1-2.207-.83936c-.39551.63574-.43164.68359-.43164.68359-.084.13184-.0957.15577-.17969.15577-.13232,0-.13232-.084-.13232-.2876v-2.39893c0-.21582,0-.2998.15625-.2998a.12513.12513,0,0,1,.144.12012,2.427,2.427,0,0,0,.74317,1.84716,2.8942,2.8942,0,0,0,1.895.64746,1.64444,1.64444,0,0,0,1.60742-1.71484,1.751,1.751,0,0,0-.37207-1.10352,1.59247,1.59247,0,0,0-1.01953-.61181c-.83936-.20361-1.45118-.34766-1.583-.396a2.3233,2.3233,0,0,1,.76758-4.52148,2.46855,2.46855,0,0,1,1.91894.83984l.41992-.68359c.084-.144.09571-.15625.17969-.15625.13184,0,.13184.084.13184.28808v2.41065c0,.228,0,.2876-.15576.2876-.13184,0-.13184-.07178-.144-.14356-.07177-.54-.33545-2.50683-2.33838-2.50683a1.56766,1.56766,0,0,0-.37207,3.09423l1.53516.37207a2.45343,2.45343,0,0,1,1.79932,2.42237A2.4043,2.4043,0,0,1,174.45361,163.36475Z" transform="translate(-127.50293 -10.51367)"/>
      <path class="cls-4" d="M179.2085,167.251a1.27471,1.27471,0,0,1-1.41162-1.09717.39148.39148,0,1,1,.78271-.01416.38273.38273,0,0,1-.46143.38428,1.27178,1.27178,0,0,0,1.06934.53125c.30762,0,.79-.20264.79-1.15284,0-.68505-.25879-1.16015-.832-1.16015h-.30713c-.11914,0-.168,0-.168-.07715,0-.06983.04883-.07666.105-.084.04883,0,.2168-.01367.27246-.0205a.67862.67862,0,0,0,.62207-.36377,1.74509,1.74509,0,0,0,.1958-.79639c0-.62891-.38476-.78271-.6709-.78271a1.13291,1.13291,0,0,0-.92968.4331c.105,0,.4331,0,.4331.34961a.35624.35624,0,1,1-.7124-.00732c0-.53077.53076-.9502,1.23682-.9502.67089,0,1.28564.39111,1.28564.96436a1.34533,1.34533,0,0,1-.978,1.23,1.34842,1.34842,0,0,1,1.167,1.26513A1.42588,1.42588,0,0,1,179.2085,167.251Z" transform="translate(-127.50293 -10.51367)"/>
    </g>
    <g>
      <path class="cls-4" d="M254.45361,163.36475a3.00587,3.00587,0,0,1-2.207-.83936c-.39551.63574-.43164.68359-.43164.68359-.084.13184-.0957.15577-.17969.15577-.13232,0-.13232-.084-.13232-.2876v-2.39893c0-.21582,0-.2998.15625-.2998a.12513.12513,0,0,1,.144.12012,2.427,2.427,0,0,0,.74317,1.84716,2.8942,2.8942,0,0,0,1.895.64746,1.64444,1.64444,0,0,0,1.60742-1.71484,1.751,1.751,0,0,0-.37207-1.10352,1.59247,1.59247,0,0,0-1.01953-.61181c-.83936-.20361-1.45118-.34766-1.583-.396a2.3233,2.3233,0,0,1,.76758-4.52148,2.46855,2.46855,0,0,1,1.91894.83984l.41992-.68359c.084-.144.09571-.15625.17969-.15625.13184,0,.13184.084.13184.28808v2.41065c0,.228,0,.2876-.15576.2876-.13184,0-.13184-.07178-.144-.14356-.07177-.54-.33545-2.50683-2.33838-2.50683a1.56766,1.56766,0,0,0-.37207,3.09423l1.53516.37207a2.45343,2.45343,0,0,1,1.79932,2.42237A2.4043,2.4043,0,0,1,254.45361,163.36475Z" transform="translate(-127.50293 -10.51367)"/>
      <path class="cls-4" d="M260.4458,167.09717H257.853c0-.16748,0-.18164.07666-.25879l1.34179-1.49512a2.506,2.506,0,0,0,.73389-1.54443c0-.57324-.30078-1.13916-.93652-1.13916a1.00746,1.00746,0,0,0-.94336.7124.27068.27068,0,0,1,.09082-.00684.35336.35336,0,0,1,.37012.36329.36712.36712,0,1,1-.7334-.021,1.29119,1.29119,0,0,1,1.30664-1.26465,1.3728,1.3728,0,0,1,1.48144,1.356c0,.69873-.41894,1.07617-1.50927,2.04053l-.74073.71972h1.25782a2.27011,2.27011,0,0,0,.66406-.05615,2.30533,2.30533,0,0,0,.15381-.62158h.17431Z" transform="translate(-127.50293 -10.51367)"/>
    </g>
    <g>
      <path class="cls-4" d="M333.45361,163.36475a3.00587,3.00587,0,0,1-2.207-.83936c-.39551.63574-.43164.68359-.43164.68359-.084.13184-.0957.15577-.17969.15577-.13232,0-.13232-.084-.13232-.2876v-2.39893c0-.21582,0-.2998.15625-.2998a.12513.12513,0,0,1,.144.12012,2.427,2.427,0,0,0,.74317,1.84716,2.8942,2.8942,0,0,0,1.895.64746,1.64444,1.64444,0,0,0,1.60742-1.71484,1.751,1.751,0,0,0-.37207-1.10352,1.59247,1.59247,0,0,0-1.01953-.61181c-.83936-.20361-1.45118-.34766-1.583-.396a2.3233,2.3233,0,0,1,.76758-4.52148,2.46855,2.46855,0,0,1,1.91894.83984l.41992-.68359c.084-.144.09571-.15625.17969-.15625.13184,0,.13184.084.13184.28808v2.41065c0,.228,0,.2876-.15576.2876-.13184,0-.13184-.07178-.144-.14356-.07177-.54-.33545-2.50683-2.33838-2.50683a1.56766,1.56766,0,0,0-.37207,3.09423l1.53516.37207a2.45343,2.45343,0,0,1,1.79932,2.42237A2.4043,2.4043,0,0,1,333.45361,163.36475Z" transform="translate(-127.50293 -10.51367)"/>
      <path class="cls-4" d="M338.29932,167.07617c-.2793,0-.88721,0-1.13184.021v-.2168h.22363c.62891,0,.64991-.08349.64991-.33545V162.9248a2.08887,2.08887,0,0,1-.91553.18213v-.21679a1.72718,1.72718,0,0,0,1.272-.44727c.16065,0,.16065.01416.16065.18164v3.92041c0,.25879.021.33545.6499.33545h.22363v.2168C339.187,167.07617,338.5791,167.07617,338.29932,167.07617Z" transform="translate(-127.50293 -10.51367)"/>
    </g>
    <g>
      <path class="cls-4" d="M412.45361,163.36475a3.00587,3.00587,0,0,1-2.207-.83936c-.39551.63574-.43164.68359-.43164.68359-.084.13184-.0957.15577-.17969.15577-.13232,0-.13232-.084-.13232-.2876v-2.39893c0-.21582,0-.2998.15625-.2998a.12513.12513,0,0,1,.144.12012,2.427,2.427,0,0,0,.74317,1.84716,2.8942,2.8942,0,0,0,1.895.64746,1.64444,1.64444,0,0,0,1.60742-1.71484,1.751,1.751,0,0,0-.37207-1.10352,1.59247,1.59247,0,0,0-1.01953-.61181c-.83936-.20361-1.45118-.34766-1.583-.396a2.3233,2.3233,0,0,1,.76758-4.52148,2.46855,2.46855,0,0,1,1.91894.83984l.41992-.68359c.084-.144.09571-.15625.17969-.15625.13184,0,.13184.084.13184.28808v2.41065c0,.228,0,.2876-.15576.2876-.13184,0-.13184-.07178-.144-.14356-.07177-.54-.33545-2.50683-2.33838-2.50683a1.56766,1.56766,0,0,0-.37207,3.09423l1.53516.37207a2.45343,2.45343,0,0,1,1.79932,2.42237A2.4043,2.4043,0,0,1,412.45361,163.36475Z" transform="translate(-127.50293 -10.51367)"/>
      <path class="cls-4" d="M418.45947,166.44043a1.30655,1.30655,0,0,1-2.36914.10449,3.53817,3.53817,0,0,1-.31445-1.68408,3.73794,3.73794,0,0,1,.25879-1.58643,1.28085,1.28085,0,0,1,1.21582-.83154,1.29567,1.29567,0,0,1,1.188.78272,4.93407,4.93407,0,0,1,.021,3.21484Zm-.39111-3.02637c-.13281-.69189-.59424-.81738-.82471-.81738-.1748,0-.69873.063-.83154.89453a9.33028,9.33028,0,0,0-.05615,1.28565,9.49154,9.49154,0,0,0,.07715,1.4746c.12548.6709.53808.84571.81054.84571.31446,0,.71289-.20947.81739-.87354a13.47307,13.47307,0,0,0,.00732-2.80957Z" transform="translate(-127.50293 -10.51367)"/>
    </g>
    <g>
      <path class="cls-4" d="M159.96484,19.10107h-4.70166v-.37158h.28809c.92334,0,.94727-.13232.94727-.564V11.84521c0-.43212-.02393-.564-.94727-.564h-.28809v-.37158h4.38965c1.55908,0,2.6626.9834,2.6626,2.02685,0,.8877-.82764,1.65528-1.99072,1.88282a2.355,2.355,0,0,1,2.31445,2.08691A2.45239,2.45239,0,0,1,159.96484,19.10107Zm-.396-7.81982h-1.48731c-.56347,0-.5874.084-.5874.48v2.9502h1.73877a1.80855,1.80855,0,0,0,1.91895-1.77491A1.59367,1.59367,0,0,0,159.56885,11.28125Zm.18017,3.69434h-2.25488v3.27392c0,.396.02393.48.5874.48h1.49951a1.88184,1.88184,0,0,0,.168-3.7539Z" transform="translate(-127.50293 -10.51367)"/>
      <path class="cls-4" d="M165.03271,23.251a1.27471,1.27471,0,0,1-1.41162-1.09717.39148.39148,0,1,1,.78272-.01416.38273.38273,0,0,1-.46143.38428,1.27178,1.27178,0,0,0,1.06934.53125c.30762,0,.79-.20264.79-1.15284,0-.68505-.25879-1.16015-.832-1.16015h-.30713c-.11914,0-.168,0-.168-.07715,0-.06983.04883-.07666.105-.084.04883,0,.2168-.01367.27246-.0205a.67862.67862,0,0,0,.62207-.36377,1.74509,1.74509,0,0,0,.1958-.79639c0-.62891-.38476-.78271-.6709-.78271a1.13291,1.13291,0,0,0-.92968.4331c.105,0,.4331,0,.4331.34961a.35624.35624,0,1,1-.7124-.00732c0-.53077.53076-.9502,1.23682-.9502.67089,0,1.28564.39111,1.28564.96436a1.34533,1.34533,0,0,1-.978,1.23,1.34842,1.34842,0,0,1,1.167,1.26513A1.42588,1.42588,0,0,1,165.03271,23.251Z" transform="translate(-127.50293 -10.51367)"/>
    </g>
    <g>
      <path class="cls-4" d="M186.85986,19.06494c-.45605,0-1.29541,0-1.727.03613v-.37158c.32373,0,.99512,0,.99512-.35986a.85253.85253,0,0,0-.03564-.168l-.63575-1.835h-2.9624l-.55176,1.5708a.80868.80868,0,0,0-.02392.18018c0,.312.2998.61181.89941.61181v.37158l-1.37939-.03613-1.22315.03613v-.37158a1.24674,1.24674,0,0,0,1.34326-.80371l2.48243-7.17187c.06-.168.09619-.24024.28808-.24024s.21582.084.27588.24024l2.59033,7.4956c.13233.396.29981.48,1.01953.48h.21582v.37158Zm-2.89062-6.96826-1.34326,3.898h2.69873Z" transform="translate(-127.50293 -10.51367)"/>
      <path class="cls-4" d="M190.53662,23.251a1.27471,1.27471,0,0,1-1.41162-1.09717.39148.39148,0,1,1,.78271-.01416.38272.38272,0,0,1-.46142.38428,1.27177,1.27177,0,0,0,1.06934.53125c.30761,0,.79-.20264.79-1.15284,0-.68505-.25878-1.16015-.832-1.16015h-.30713c-.11914,0-.168,0-.168-.07715,0-.06983.04882-.07666.105-.084.04882,0,.21679-.01367.27246-.0205a.67863.67863,0,0,0,.62207-.36377,1.74509,1.74509,0,0,0,.1958-.79639c0-.62891-.38477-.78271-.6709-.78271a1.13294,1.13294,0,0,0-.92969.4331c.105,0,.43311,0,.43311.34961a.35624.35624,0,1,1-.71241-.00732c0-.53077.53077-.9502,1.23682-.9502.6709,0,1.28565.39111,1.28565.96436a1.34535,1.34535,0,0,1-.978,1.23,1.34842,1.34842,0,0,1,1.167,1.26513A1.42588,1.42588,0,0,1,190.53662,23.251Z" transform="translate(-127.50293 -10.51367)"/>
    </g>
    <g>
      <path class="cls-4" d="M240.96484,19.10107h-4.70166v-.37158h.28809c.92334,0,.94727-.13232.94727-.564V11.84521c0-.43212-.02393-.564-.94727-.564h-.28809v-.37158h4.38965c1.55908,0,2.6626.9834,2.6626,2.02685,0,.8877-.82764,1.65528-1.99072,1.88282a2.355,2.355,0,0,1,2.31445,2.08691A2.45239,2.45239,0,0,1,240.96484,19.10107Zm-.396-7.81982h-1.48731c-.56347,0-.5874.084-.5874.48v2.9502h1.73877a1.80855,1.80855,0,0,0,1.91895-1.77491A1.59367,1.59367,0,0,0,240.56885,11.28125Zm.18017,3.69434h-2.25488v3.27392c0,.396.02393.48.5874.48h1.49951a1.88184,1.88184,0,0,0,.168-3.7539Z" transform="translate(-127.50293 -10.51367)"/>
      <path class="cls-4" d="M247.27,23.09717h-2.59277c0-.16748,0-.18164.07666-.25879l1.34179-1.49512a2.506,2.506,0,0,0,.73389-1.54443c0-.57324-.30078-1.13916-.93652-1.13916a1.00746,1.00746,0,0,0-.94336.7124.27068.27068,0,0,1,.09082-.00684.35335.35335,0,0,1,.37011.36329.36711.36711,0,1,1-.73339-.021,1.29119,1.29119,0,0,1,1.30664-1.26465,1.3728,1.3728,0,0,1,1.48144,1.356c0,.69873-.41894,1.07617-1.50928,2.04053l-.74072.71972h1.25781a2.27015,2.27015,0,0,0,.66407-.05615,2.30533,2.30533,0,0,0,.15381-.62158h.17431Z" transform="translate(-127.50293 -10.51367)"/>
    </g>
    <g>
      <path class="cls-4" d="M264.85986,19.06494c-.45605,0-1.29541,0-1.72705.03613v-.37158c.32373,0,.99512,0,.99512-.35986a.85253.85253,0,0,0-.03564-.168l-.63575-1.835h-2.9624l-.55176,1.5708a.80868.80868,0,0,0-.02392.18018c0,.312.2998.61181.89941.61181v.37158l-1.37939-.03613-1.22315.03613v-.37158a1.24674,1.24674,0,0,0,1.34326-.80371l2.48243-7.17187c.06-.168.09619-.24024.28808-.24024s.21582.084.27588.24024l2.59033,7.4956c.13233.396.29981.48,1.01953.48h.21582v.37158Zm-2.89062-6.96826-1.34326,3.898h2.69873Z" transform="translate(-127.50293 -10.51367)"/>
      <path class="cls-4" d="M269.77393,23.09717h-2.59278c0-.16748,0-.18164.07666-.25879l1.3418-1.49512a2.506,2.506,0,0,0,.73389-1.54443c0-.57324-.30079-1.13916-.93653-1.13916a1.00748,1.00748,0,0,0-.94336.7124.27071.27071,0,0,1,.09082-.00684.35336.35336,0,0,1,.37012.36329.36712.36712,0,1,1-.7334-.021,1.29119,1.29119,0,0,1,1.30664-1.26465,1.37281,1.37281,0,0,1,1.48145,1.356c0,.69873-.41895,1.07617-1.50928,2.04053l-.74072.71972h1.25781a2.27,2.27,0,0,0,.66406-.05615,2.30458,2.30458,0,0,0,.15381-.62158h.17432Z" transform="translate(-127.50293 -10.51367)"/>
    </g>
    <g>
      <path class="cls-4" d="M318.96484,19.10107h-4.70166v-.37158h.28809c.92334,0,.94727-.13232.94727-.564V11.84521c0-.43212-.02393-.564-.94727-.564h-.28809v-.37158h4.38965c1.55908,0,2.6626.9834,2.6626,2.02685,0,.8877-.82764,1.65528-1.99072,1.88282a2.355,2.355,0,0,1,2.31445,2.08691A2.45239,2.45239,0,0,1,318.96484,19.10107Zm-.396-7.81982h-1.48731c-.56347,0-.5874.084-.5874.48v2.9502h1.73877a1.80855,1.80855,0,0,0,1.91895-1.77491A1.59367,1.59367,0,0,0,318.56885,11.28125Zm.18017,3.69434h-2.25488v3.27392c0,.396.02393.48.5874.48h1.49951a1.88184,1.88184,0,0,0,.168-3.7539Z" transform="translate(-127.50293 -10.51367)"/>
      <path class="cls-4" d="M324.12354,23.07617c-.2793,0-.88721,0-1.13184.021v-.2168h.22363c.62891,0,.6499-.08349.6499-.33545V18.9248a2.08881,2.08881,0,0,1-.91552.18213v-.21679a1.72718,1.72718,0,0,0,1.272-.44727c.16064,0,.16064.01416.16064.18164v3.92041c0,.25879.021.33545.64991.33545h.22363v.2168C325.01123,23.07617,324.40332,23.07617,324.12354,23.07617Z" transform="translate(-127.50293 -10.51367)"/>
    </g>
    <g>
      <path class="cls-4" d="M345.85986,19.06494c-.45605,0-1.29541,0-1.72705.03613v-.37158c.32373,0,.99512,0,.99512-.35986a.85253.85253,0,0,0-.03564-.168l-.63575-1.835h-2.9624l-.55176,1.5708a.80868.80868,0,0,0-.02392.18018c0,.312.2998.61181.89941.61181v.37158l-1.37939-.03613-1.22315.03613v-.37158a1.24674,1.24674,0,0,0,1.34326-.80371l2.48243-7.17187c.06-.168.09619-.24024.28808-.24024s.21582.084.27588.24024l2.59033,7.4956c.13233.396.29981.48,1.01953.48h.21582v.37158Zm-2.89062-6.96826-1.34326,3.898h2.69873Z" transform="translate(-127.50293 -10.51367)"/>
      <path class="cls-4" d="M349.62744,23.07617c-.2793,0-.88721,0-1.13183.021v-.2168h.22363c.6289,0,.6499-.08349.6499-.33545V18.9248a2.08885,2.08885,0,0,1-.91553.18213v-.21679a1.7272,1.7272,0,0,0,1.272-.44727c.16064,0,.16064.01416.16064.18164v3.92041c0,.25879.021.33545.6499.33545h.22364v.2168C350.51514,23.07617,349.90723,23.07617,349.62744,23.07617Z" transform="translate(-127.50293 -10.51367)"/>
    </g>
    <g>
      <path class="cls-4" d="M396.96484,19.10107h-4.70166v-.37158h.28809c.92334,0,.94727-.13232.94727-.564V11.84521c0-.43212-.02393-.564-.94727-.564h-.28809v-.37158h4.38965c1.55908,0,2.6626.9834,2.6626,2.02685,0,.8877-.82764,1.65528-1.99072,1.88282a2.355,2.355,0,0,1,2.31445,2.08691A2.45239,2.45239,0,0,1,396.96484,19.10107Zm-.396-7.81982h-1.48731c-.56347,0-.5874.084-.5874.48v2.9502h1.73877a1.80855,1.80855,0,0,0,1.91895-1.77491A1.59367,1.59367,0,0,0,396.56885,11.28125Zm.18017,3.69434h-2.25488v3.27392c0,.396.02393.48.5874.48h1.49951a1.88184,1.88184,0,0,0,.168-3.7539Z" transform="translate(-127.50293 -10.51367)"/>
      <path class="cls-4" d="M403.28369,22.44043a1.30655,1.30655,0,0,1-2.36914.10449,3.53817,3.53817,0,0,1-.31445-1.68408,3.73779,3.73779,0,0,1,.25879-1.58643,1.28085,1.28085,0,0,1,1.21582-.83154,1.29568,1.29568,0,0,1,1.188.78272,3.74294,3.74294,0,0,1,.27978,1.63525A3.72415,3.72415,0,0,1,403.28369,22.44043Zm-.39111-3.02637c-.13281-.69189-.59424-.81738-.82471-.81738-.1748,0-.69873.063-.83154.89453a9.33028,9.33028,0,0,0-.05615,1.28565,9.49275,9.49275,0,0,0,.07714,1.4746c.12549.6709.53809.84571.81055.84571.31445,0,.71289-.20947.81738-.87354a8.62538,8.62538,0,0,0,.07715-1.44677A8.605,8.605,0,0,0,402.89258,19.41406Z" transform="translate(-127.50293 -10.51367)"/>
    </g>
    <g>
      <path class="cls-4" d="M423.85986,19.06494c-.45605,0-1.29541,0-1.72705.03613v-.37158c.32373,0,.99512,0,.99512-.35986a.85253.85253,0,0,0-.03564-.168l-.63575-1.835h-2.9624l-.55176,1.5708a.80868.80868,0,0,0-.02392.18018c0,.312.2998.61181.89941.61181v.37158l-1.37939-.03613-1.22315.03613v-.37158a1.24674,1.24674,0,0,0,1.34326-.80371l2.48243-7.17187c.06-.168.09619-.24024.28808-.24024s.21582.084.27588.24024l2.59033,7.4956c.13233.396.29981.48,1.01953.48h.21582v.37158Zm-2.89062-6.96826-1.34326,3.898h2.69873Z" transform="translate(-127.50293 -10.51367)"/>
      <path class="cls-4" d="M428.7876,22.44043a1.30655,1.30655,0,0,1-2.36914.10449,3.53818,3.53818,0,0,1-.31446-1.68408,3.73794,3.73794,0,0,1,.25879-1.58643,1.28086,1.28086,0,0,1,1.21582-.83154,1.29567,1.29567,0,0,1,1.188.78272,3.74281,3.74281,0,0,1,.27979,1.63525A3.72415,3.72415,0,0,1,428.7876,22.44043Zm-.39112-3.02637c-.13281-.69189-.59423-.81738-.8247-.81738-.17481,0-.69873.063-.83155.89453a9.33028,9.33028,0,0,0-.05615,1.28565,9.49154,9.49154,0,0,0,.07715,1.4746c.12549.6709.53809.84571.81055.84571.31445,0,.71289-.20947.81738-.87354a8.62538,8.62538,0,0,0,.07715-1.44677A8.6038,8.6038,0,0,0,428.39648,19.41406Z" transform="translate(-127.50293 -10.51367)"/>
    </g>
    <g>
      <path class="cls-4" d="M476.71191,41.47705a3.00591,3.00591,0,0,1-2.207-.83935c-.3955.63574-.43164.68359-.43164.68359-.084.13184-.0957.15576-.17969.15576-.13183,0-.13183-.084-.13183-.2876V38.79053c0-.21582,0-.29981.15576-.29981a.12532.12532,0,0,1,.144.12012,2.42706,2.42706,0,0,0,.74317,1.84717,2.89426,2.89426,0,0,0,1.895.64746,1.64444,1.64444,0,0,0,1.60742-1.71484,1.751,1.751,0,0,0-.37207-1.10352,1.59135,1.59135,0,0,0-1.01953-.61182c-.83936-.20361-1.45117-.34765-1.583-.396a2.3234,2.3234,0,0,1,.76758-4.52149,2.46851,2.46851,0,0,1,1.91894.83985l.41992-.6836c.084-.144.09571-.15625.17969-.15625.13233,0,.13233.084.13233.28809v2.41064c0,.228,0,.2876-.15625.2876-.13184,0-.13184-.07178-.14405-.14355-.07177-.54-.33545-2.50684-2.33838-2.50684a1.56773,1.56773,0,0,0-.37207,3.09424l1.53516.37207a2.45341,2.45341,0,0,1,1.79932,2.42236A2.40429,2.40429,0,0,1,476.71191,41.47705Z" transform="translate(-127.50293 -10.51367)"/>
      <path class="cls-4" d="M484.45117,41.34521v-1.0791a1.63626,1.63626,0,0,1-1.54736,1.0791c-1.82276,0-1.82276-1.0913-1.82276-2.02685V37.51953c0-1.06738,0-1.10351-.93554-1.10351v-.37159l1.76318-.13232V39.894c0,.62354.04785,1.1875,1.05518,1.1875.87549,0,1.45117-.81543,1.45117-1.85888V37.08789c0-.58789-.0957-.67187-.93555-.67187v-.37159l1.76319-.13232v4.25781c0,.58789.09619.67188.93554.67188v.37158Z" transform="translate(-127.50293 -10.51367)"/>
      <path class="cls-4" d="M490.00781,41.34521a1.88516,1.88516,0,0,1-1.57129-.87548l-.43164.74365h-.2998v-7.148c0-.58789-.09619-.67188-.93555-.67188V33.022l1.72705-.13183v3.80175a2.13084,2.13084,0,0,1,1.64307-.77978,2.63813,2.63813,0,0,1,2.54248,2.71094A2.70253,2.70253,0,0,1,490.00781,41.34521Zm1.33106-4.40136a1.49018,1.49018,0,0,0-1.25928-.76758,1.73048,1.73048,0,0,0-1.415.76758.52123.52123,0,0,0-.13232.43164v2.4707a.65311.65311,0,0,0,.168.50342,1.48194,1.48194,0,0,0,1.25927.73193,1.6489,1.6489,0,0,0,1.35547-.76758,3.21652,3.21652,0,0,0,.37158-1.70312A3.21941,3.21941,0,0,0,491.33887,36.94385Z" transform="translate(-127.50293 -10.51367)"/>
    </g>
    <circle class="cls-4" cx="123.49707" cy="27.48633" r="2.5"/>
    <circle class="cls-4" cx="202.49707" cy="27.48633" r="2.5"/>
    <circle class="cls-4" cx="281.49707" cy="27.48633" r="2.5"/>
    <circle class="cls-4" cx="326.49707" cy="27.48633" r="2.5"/>
  </g>
</svg>
