<svg xmlns="http://www.w3.org/2000/svg" viewBox="0 0 165.00195 113.56504">
  <defs>
    <style>
      .cls-1, .cls-3, .cls-4 {
        fill: none;
        stroke: #8ff4dd;
      }

      .cls-1, .cls-4 {
        stroke-width: 2px;
      }

      .cls-2 {
        fill: #8ff4dd;
      }

      .cls-3 {
        stroke-width: 1.5px;
      }

      .cls-4 {
        stroke-linecap: square;
        stroke-miterlimit: 10;
      }
    </style>
  </defs>
  <title>2to4Decoder</title>
  <g id="Layer_1" data-name="Layer 1">
    <g>
      <path class="cls-1" d="M141.194,50H150m-36,0H100" transform="translate(-72.57813 -37.54607)"/>
      <path class="cls-2" d="M113.29824,37.54607V62.45393l1.1985-.59056,22.80615-11.11648V49.25311L114.49674,38.13663Zm1.66747,2.6749L135.04486,50l-20.07915,9.779Z" transform="translate(-72.57813 -37.54607)"/>
      <path class="cls-3" d="M141.10681,50a2.2233,2.2233,0,1,1-2.22329-2.2233A2.2233,2.2233,0,0,1,141.10681,50Z" transform="translate(-72.57813 -37.54607)"/>
    </g>
    <g>
      <path class="cls-2" d="M188.88889,44.88889V67.11111h11.37566a11.11111,11.11111,0,0,0,0-22.22222Zm1.5873,1.5873h9.78836A9.19008,9.19008,0,0,1,209.52381,56,9.40935,9.40935,0,0,1,200,65.52381h-9.52381Z" transform="translate(-72.57813 -37.54607)"/>
      <line class="cls-1" x1="138.42188" y1="18.45393" x2="152.42188" y2="18.45393"/>
      <line class="cls-1" x1="117.42188" y1="12.45393" x2="102.42188" y2="12.45393"/>
      <line class="cls-1" x1="117.42188" y1="24.45393" x2="102.42188" y2="24.45393"/>
    </g>
    <path class="cls-2" d="M188.88889,72.88889V95.11111h11.37566a11.11111,11.11111,0,0,0,0-22.22222Zm1.5873,1.5873h9.78836A9.19008,9.19008,0,0,1,209.52381,84,9.40935,9.40935,0,0,1,200,93.52381h-9.52381Z" transform="translate(-72.57813 -37.54607)"/>
    <line class="cls-1" x1="138.42188" y1="46.45393" x2="152.42188" y2="46.45393"/>
    <line class="cls-1" x1="117.42188" y1="40.45393" x2="102.42188" y2="40.45393"/>
    <line class="cls-1" x1="117.42188" y1="52.45393" x2="102.42188" y2="52.45393"/>
    <g>
      <path class="cls-1" d="M153.194,70H162m-36,0H112" transform="translate(-72.57813 -37.54607)"/>
      <path class="cls-2" d="M125.29824,57.54607V82.45393l1.1985-.59056,22.80615-11.11648V69.25311L126.49674,58.13663Zm1.66747,2.6749L147.04486,70l-20.07915,9.779Z" transform="translate(-72.57813 -37.54607)"/>
      <path class="cls-3" d="M153.10681,70a2.2233,2.2233,0,1,1-2.22329-2.2233A2.2233,2.2233,0,0,1,153.10681,70Z" transform="translate(-72.57813 -37.54607)"/>
    </g>
    <path class="cls-2" d="M188.88889,100.88889v22.22222h11.37566a11.11111,11.11111,0,0,0,0-22.22222Zm1.5873,1.5873h9.78836A9.19008,9.19008,0,0,1,209.52381,112,9.40935,9.40935,0,0,1,200,121.52381h-9.52381Z" transform="translate(-72.57813 -37.54607)"/>
    <line class="cls-1" x1="138.42188" y1="74.45393" x2="152.42188" y2="74.45393"/>
    <line class="cls-1" x1="117.42188" y1="68.45393" x2="102.42188" y2="68.45393"/>
    <line class="cls-1" x1="117.42188" y1="80.45393" x2="102.42188" y2="80.45393"/>
    <path class="cls-2" d="M188.88889,128.88889v22.22222h11.37566a11.11111,11.11111,0,0,0,0-22.22222Zm1.5873,1.5873h9.78836A9.19008,9.19008,0,0,1,209.52381,140,9.40935,9.40935,0,0,1,200,149.52381h-9.52381Z" transform="translate(-72.57813 -37.54607)"/>
    <line class="cls-1" x1="138.42188" y1="102.45393" x2="152.42188" y2="102.45393"/>
    <line class="cls-1" x1="117.42188" y1="96.45393" x2="102.42188" y2="96.45393"/>
    <line class="cls-1" x1="117.42188" y1="108.45393" x2="102.42188" y2="108.45393"/>
  </g>
  <g id="Layer_2" data-name="Layer 2">
    <polyline class="cls-4" points="77.422 12.454 102.422 12.454 102.422 68.454"/>
    <polyline class="cls-4" points="102.422 24.454 89.422 24.454 89.422 40.454 102.422 40.454"/>
    <polyline class="cls-4" points="12.422 12.454 27.422 12.454 27.422 52.454 102.422 52.454"/>
    <polyline class="cls-4" points="12.422 32.454 39.422 32.454 39.422 80.454 102.422 80.454"/>
    <polyline class="cls-4" points="102.422 96.454 39.422 96.454 39.422 80.454"/>
    <polyline class="cls-4" points="102.422 108.454 27.422 108.454 27.422 52.454"/>
    <circle class="cls-2" cx="27.42188" cy="12.45393" r="2.5"/>
    <circle class="cls-2" cx="27.42188" cy="52.45393" r="2.5"/>
    <circle class="cls-2" cx="39.42188" cy="32.45393" r="2.5"/>
    <circle class="cls-2" cx="102.42188" cy="12.45393" r="2.5"/>
    <circle class="cls-2" cx="89.42188" cy="32.45393" r="2.5"/>
    <circle class="cls-2" cx="39.42188" cy="80.45393" r="2.5"/>
    <g>
      <path class="cls-2" d="M78.11523,52.4873c-.37988,0-1.0791,0-1.43847.02979V52.207c.26953,0,.8291,0,.8291-.2998a.65672.65672,0,0,0-.03027-.13965l-.5293-1.5293H74.47754l-.46,1.30957a.68833.68833,0,0,0-.01953.1499c0,.25977.25.50928.749.50928v.31006l-1.14941-.02979-1.01953.02979V52.207a1.03882,1.03882,0,0,0,1.12011-.66943L75.7666,45.561c.04981-.14014.08008-.2002.24024-.2002s.17968.07031.22949.2002l2.15918,6.24658c.10937.32959.25.39941.84961.39941h.17968v.31006ZM75.707,46.68018l-1.11914,3.24853h2.248Z" transform="translate(-72.57813 -37.54607)"/>
      <path class="cls-2" d="M82.22461,55.29932a1.09011,1.09011,0,0,1-1.97656.0874,2.96081,2.96081,0,0,1-.26172-1.40479,3.11791,3.11791,0,0,1,.21582-1.32324,1.06725,1.06725,0,0,1,1.01367-.69336,1.08128,1.08128,0,0,1,.99121.65283,4.11453,4.11453,0,0,1,.01758,2.68116Zm-.32617-2.52393c-.11133-.57715-.4961-.68213-.68848-.68213-.14551,0-.583.05274-.69336.7461a7.78334,7.78334,0,0,0-.04687,1.07275,7.90916,7.90916,0,0,0,.06445,1.23c.10449.55957.44824.70508.67578.70508.2627,0,.59473-.17481.68262-.72852a11.37386,11.37386,0,0,0,.00586-2.34326Z" transform="translate(-72.57813 -37.54607)"/>
    </g>
    <g>
      <path class="cls-2" d="M78.11523,72.4873c-.37988,0-1.0791,0-1.43847.02979V72.207c.26953,0,.8291,0,.8291-.2998a.65672.65672,0,0,0-.03027-.13965l-.5293-1.5293H74.47754l-.46,1.30957a.68833.68833,0,0,0-.01953.1499c0,.25977.25.50928.749.50928v.31006l-1.14941-.02979-1.01953.02979V72.207a1.03882,1.03882,0,0,0,1.12011-.66943L75.7666,65.561c.04981-.14014.08008-.2002.24024-.2002s.17968.07031.22949.2002l2.15918,6.24658c.10937.32959.25.39941.84961.39941h.17968v.31006ZM75.707,66.68018l-1.11914,3.24853h2.248Z" transform="translate(-72.57813 -37.54607)"/>
      <path class="cls-2" d="M81.25684,75.82959c-.2334,0-.74024,0-.94434.01758V75.6665H80.499c.52442,0,.542-.06982.542-.27978V72.36719a1.74088,1.74088,0,0,1-.76368.15185v-.18066a1.44264,1.44264,0,0,0,1.06153-.37305c.13379,0,.13379.01123.13379.15137v3.27c0,.21582.01757.27978.542.27978h.18652v.18067C81.99707,75.82959,81.49023,75.82959,81.25684,75.82959Z" transform="translate(-72.57813 -37.54607)"/>
    </g>
    <g>
      <path class="cls-2" d="M231.2666,59.51709h-3.6582V59.207h.24023c.76953,0,.78907-.10986.78907-.46973V53.47021c0-.35937-.01954-.46972-.78907-.46972h-.24023v-.30957h3.6582a3.27976,3.27976,0,0,1,3.0586,3.46826A3.21023,3.21023,0,0,1,231.2666,59.51709Zm1.53906-5.58691a2.1559,2.1559,0,0,0-1.81933-.92969h-.999c-.46972,0-.48925.07031-.48925.3999v5.40723c0,.32959.01953.39941.48925.39941h1.00977a2.19,2.19,0,0,0,1.77832-.84912,3.42534,3.42534,0,0,0,.54981-2.19873A3.86641,3.86641,0,0,0,232.80566,53.93018Z" transform="translate(-72.57813 -37.54607)"/>
      <path class="cls-2" d="M237.36426,62.29932a1.09011,1.09011,0,0,1-1.97656.0874,2.96069,2.96069,0,0,1-.26172-1.40479,3.11776,3.11776,0,0,1,.21582-1.32324,1.06725,1.06725,0,0,1,1.01367-.69336,1.08128,1.08128,0,0,1,.99121.65283,4.11453,4.11453,0,0,1,.01758,2.68116Zm-.32617-2.52393c-.11133-.57715-.4961-.68213-.68848-.68213-.14551,0-.583.05274-.69336.7461a7.78334,7.78334,0,0,0-.04687,1.07275,7.90916,7.90916,0,0,0,.06445,1.23c.10449.55957.44824.70508.67578.70508.26269,0,.59473-.17481.68262-.72852a11.37386,11.37386,0,0,0,.00586-2.34326Z" transform="translate(-72.57813 -37.54607)"/>
    </g>
    <g>
      <path class="cls-2" d="M231.2666,87.51709h-3.6582V87.207h.24023c.76953,0,.78907-.10986.78907-.46973V81.47021c0-.35937-.01954-.46972-.78907-.46972h-.24023v-.30957h3.6582a3.27976,3.27976,0,0,1,3.0586,3.46826A3.21023,3.21023,0,0,1,231.2666,87.51709Zm1.53906-5.58691a2.1559,2.1559,0,0,0-1.81933-.92969h-.999c-.46972,0-.48925.07031-.48925.3999v5.40723c0,.32959.01953.39941.48925.39941h1.00977a2.19,2.19,0,0,0,1.77832-.84912,3.42534,3.42534,0,0,0,.54981-2.19873A3.86641,3.86641,0,0,0,232.80566,81.93018Z" transform="translate(-72.57813 -37.54607)"/>
      <path class="cls-2" d="M236.39648,90.82959c-.23339,0-.74023,0-.94433.01758V90.6665h.18652c.52442,0,.542-.06982.542-.27978V87.36719a1.74082,1.74082,0,0,1-.76367.15185v-.18066a1.44264,1.44264,0,0,0,1.06153-.37305c.13378,0,.13378.01123.13378.15137v3.27c0,.21582.01758.27978.542.27978h.18652v.18067C237.13672,90.82959,236.62988,90.82959,236.39648,90.82959Z" transform="translate(-72.57813 -37.54607)"/>
    </g>
    <g>
      <path class="cls-2" d="M231.2666,115.51709h-3.6582V115.207h.24023c.76953,0,.78907-.10986.78907-.46973v-5.26709c0-.35937-.01954-.46972-.78907-.46972h-.24023v-.30957h3.6582a3.27976,3.27976,0,0,1,3.0586,3.46826A3.21023,3.21023,0,0,1,231.2666,115.51709Zm1.53906-5.58691a2.1559,2.1559,0,0,0-1.81933-.92969h-.999c-.46972,0-.48925.07031-.48925.3999v5.40723c0,.32959.01953.39941.48925.39941h1.00977a2.19,2.19,0,0,0,1.77832-.84912,3.42534,3.42534,0,0,0,.54981-2.19873A3.86641,3.86641,0,0,0,232.80566,109.93018Z" transform="translate(-72.57813 -37.54607)"/>
      <path class="cls-2" d="M237.35254,118.84717h-2.16309c0-.14014,0-.15137.06446-.21582l1.11914-1.24707a2.08959,2.08959,0,0,0,.6123-1.28858c0-.47754-.251-.9497-.78125-.9497a.84042.84042,0,0,0-.78711.59423.22347.22347,0,0,1,.07617-.00585.29482.29482,0,0,1,.3086.30322.30649.30649,0,1,1-.61231-.01758,1.07724,1.07724,0,0,1,1.09082-1.05469,1.14476,1.14476,0,0,1,1.23536,1.13037c0,.583-.34961.898-1.25879,1.70215l-.61817.60059h1.04883a1.88441,1.88441,0,0,0,.55371-.04688,1.90885,1.90885,0,0,0,.12891-.51855h.14551Z" transform="translate(-72.57813 -37.54607)"/>
    </g>
    <g>
      <path class="cls-2" d="M231.2666,143.51709h-3.6582V143.207h.24023c.76953,0,.78907-.10986.78907-.46973v-5.26709c0-.35937-.01954-.46972-.78907-.46972h-.24023v-.30957h3.6582a3.27976,3.27976,0,0,1,3.0586,3.46826A3.21023,3.21023,0,0,1,231.2666,143.51709Zm1.53906-5.58691a2.1559,2.1559,0,0,0-1.81933-.92969h-.999c-.46972,0-.48925.07031-.48925.3999v5.40723c0,.32959.01953.39941.48925.39941h1.00977a2.19,2.19,0,0,0,1.77832-.84912,3.42534,3.42534,0,0,0,.54981-2.19873A3.86641,3.86641,0,0,0,232.80566,137.93018Z" transform="translate(-72.57813 -37.54607)"/>
      <path class="cls-2" d="M236.32031,146.97559a1.06284,1.06284,0,0,1-1.17676-.91553.32628.32628,0,1,1,.65235-.01123.31917.31917,0,0,1-.38477.32031,1.06158,1.06158,0,0,0,.8916.44287c.25684,0,.65918-.16894.65918-.96142,0-.57129-.21582-.96778-.69336-.96778h-.25683c-.09863,0-.13965,0-.13965-.064,0-.0586.041-.06446.08691-.06983.041,0,.18067-.01172.22754-.01757a.56488.56488,0,0,0,.51856-.30323,1.444,1.444,0,0,0,.16308-.66455c0-.52441-.32031-.65283-.55957-.65283a.944.944,0,0,0-.77441.36133c.08691,0,.36133,0,.36133.2915a.29739.29739,0,1,1-.59473-.00586c0-.44287.44238-.79248,1.03125-.79248.55957,0,1.07324.32617,1.07324.8042a1.12317,1.12317,0,0,1-.8164,1.02588,1.12457,1.12457,0,0,1,.97363,1.05518A1.18925,1.18925,0,0,1,236.32031,146.97559Z" transform="translate(-72.57813 -37.54607)"/>
    </g>
  </g>
</svg>
