<svg id="Layer_1" data-name="Layer 1" xmlns="http://www.w3.org/2000/svg" viewBox="0 0 87.28809 43.55438">
  <defs>
    <style>
      .cls-1, .cls-2, .cls-4 {
        fill: none;
        stroke: #8ff4dd;
      }

      .cls-1 {
        stroke-width: 2px;
      }

      .cls-2, .cls-4 {
        stroke-width: 2px;
      }

      .cls-3 {
        fill: #8ff4dd;
      }

      .cls-4 {
        stroke-linecap: square;
        stroke-miterlimit: 10;
      }
    </style>
  </defs>
  <title>3StateBuffer</title>
  <g>
    <path id="path3059" class="cls-1" d="M136,150h14" transform="translate(-86.43701 -137.55792)"/>
    <path id="path3061" class="cls-2" d="M114,150H100" transform="translate(-86.43701 -137.55792)"/>
    <path id="path2638" class="cls-3" d="M113.28558,137.55792v24.88416l1.19736-.59,22.78445-11.1059L138.84651,150l-1.57912-.74618-22.78445-11.1059Zm1.66589,2.67236L135.0115,150l-20.06,9.76972Z" transform="translate(-86.43701 -137.55792)"/>
  </g>
  <line class="cls-4" x1="39.56299" y1="18.44208" x2="39.56299" y2="32.44208"/>
  <g>
    <path class="cls-3" d="M87.95605,153.08252c-.37939,0-1.16894,0-1.519.02978v-.31005h.25977c.78955,0,.81982-.10987.81982-.46973v-5.26709c0-.35938-.03027-.46973-.81982-.46973H86.437v-.30957c.3501.02979,1.13965.02979,1.5293.02979.37988,0,1.16943,0,1.519-.02979v.30957h-.25976c-.78955,0-.81983.11035-.81983.46973v5.26709c0,.35986.03028.46973.81983.46973h.25976v.31005C89.13574,153.08252,88.34619,153.08252,87.95605,153.08252Z" transform="translate(-86.43701 -137.55792)"/>
    <path class="cls-3" d="M95.89355,147.33545v5.51709c0,.18994,0,.25976-.13964.25976-.07032,0-.08008-.00976-.16993-.12988l-4.07763-5.99658a.58224.58224,0,0,0-.1001-.12012V152.063c0,.26953,0,.73926,1.0293.73926v.31005l-1.16944-.02978-1.16943.02978v-.31005c1.02978,0,1.02978-.46973,1.02978-.73926V146.8457c0-.18994-.01025-.1997-.23974-.23-.15039-.00976-.3501-.02-.5-.02h-.29v-.30957H91.7959c.18994,0,.20019.00977.29.12989l3.52783,5.187v-4.26758c0-.27,0-.73975-1.0293-.73975v-.30957l1.16944.02979,1.16943-.02979v.30957C95.89355,146.5957,95.89355,147.06543,95.89355,147.33545Z" transform="translate(-86.43701 -137.55792)"/>
  </g>
  <g>
    <path class="cls-3" d="M155.81445,146.33984a3.00229,3.00229,0,0,1,2.23389.979,3.38007,3.38007,0,0,1,.94482,2.44385,3.48069,3.48069,0,0,1-.95214,2.50488,3.1828,3.1828,0,0,1-4.60206.02441,3.48627,3.48627,0,0,1-.93017-2.51465,3.34956,3.34956,0,0,1,1.07422-2.57324A3.169,3.169,0,0,1,155.81445,146.33984Zm-.09277.35645a1.747,1.747,0,0,0-1.42578.65918,3.72781,3.72781,0,0,0-.66895,2.40234,3.93152,3.93152,0,0,0,.69336,2.49512,1.71325,1.71325,0,0,0,1.40625.66406,1.92221,1.92221,0,0,0,1.54053-.72754,3.5476,3.5476,0,0,0,.60791-2.29492,4.0091,4.0091,0,0,0-.66895-2.53418A1.80368,1.80368,0,0,0,155.72168,146.69629Z" transform="translate(-86.43701 -137.55792)"/>
    <path class="cls-3" d="M165.50537,147.37549v3.19824a3.94985,3.94985,0,0,1-.02978.68945,2.32426,2.32426,0,0,1-2.21875,2.06885,2.50989,2.50989,0,0,1-2.51856-2.49853v-3.76807c0-.35938-.02-.46973-.78955-.46973h-.24023v-.30957c.35009.02979,1.09961.02979,1.47949.02979s1.11914,0,1.46924-.02979v.30957H162.417c-.76953,0-.78955.11035-.78955.46973v3.80811c0,1.89892,1.17969,2.14892,1.64942,2.14892a2.03491,2.03491,0,0,0,1.91894-2.21875v-3.46826c0-.27,0-.73975-1.0293-.73975v-.30957l1.189.02979,1.17969-.02979v.30957C165.50537,146.5957,165.50537,147.04541,165.50537,147.37549Z" transform="translate(-86.43701 -137.55792)"/>
    <path class="cls-3" d="M173.4751,148.59473c-.13965-1.60889-.28955-1.939-1.79883-1.939a4.70148,4.70148,0,0,0-.56982.02c-.17969.04-.17969.18018-.17969.37988v5.26709c0,.33985,0,.4795,1.04931.4795h.39991v.31005c-.40967-.02978-1.43946-.02978-1.89893-.02978-.46,0-1.47949,0-1.88916.02978v-.31005h.3999c1.04932,0,1.04932-.13965,1.04932-.4795v-5.26709c0-.23,0-.33984-.21-.37988a4.18247,4.18247,0,0,0-.53955-.02c-1.50928,0-1.65918.33008-1.79883,1.939h-.25l.18994-2.24854h6.10645l.18994,2.24854Z" transform="translate(-86.43701 -137.55792)"/>
  </g>
  <g>
    <path class="cls-3" d="M125.25391,181.1123h-5.76709v-.31005h.24023c.76953,0,.78955-.10987.78955-.46973V175.0957c0-.35986-.02-.46972-.78955-.46972h-.24023v-.31006h5.627l.27978,2.249H125.144c-.16015-1.38916-.42968-1.939-1.959-1.939h-1.28955c-.46973,0-.48975.06982-.48975.3999v2.39844h.8999c.96924,0,1.07911-.31006,1.07911-1.16944h.25v2.64844h-.25c0-.84912-.10987-1.16894-1.07911-1.16894h-.8999v2.66845c0,.32959.02.39942.48975.39942h1.32959c1.71875,0,1.94873-.7295,2.19873-2.26856h.25Z" transform="translate(-86.43701 -137.55792)"/>
    <path class="cls-3" d="M132.09375,175.33545v5.51709c0,.18994,0,.25976-.13965.25976-.07031,0-.08008-.00976-.16992-.12988l-4.07764-5.99658a.5822.5822,0,0,0-.10009-.12012V180.063c0,.26953,0,.73926,1.02929.73926v.31005l-1.16943-.02978-1.16943.02978v-.31005c1.02978,0,1.02978-.46973,1.02978-.73926V174.8457c0-.18994-.01025-.1997-.23975-.23-.15039-.00976-.35009-.02-.5-.02h-.29v-.30957h1.69921c.18995,0,.2002.00977.29.12989l3.52783,5.187v-4.26758c0-.27,0-.73975-1.02929-.73975v-.30957l1.16943.02979,1.16944-.02979v.30957C132.09375,174.5957,132.09375,175.06543,132.09375,175.33545Z" transform="translate(-86.43701 -137.55792)"/>
  </g>
</svg>
