<svg id="Layer_1" data-name="Layer 1" xmlns="http://www.w3.org/2000/svg" viewBox="0 0 86.2588 43.55438">
  <defs>
    <style>
      .cls-1, .cls-3 {
        fill: none;
        stroke: #8ff4dd;
        stroke-width: 2px;
      }

      .cls-2 {
        fill: #8ff4dd;
      }

      .cls-3 {
        stroke-linecap: square;
        stroke-miterlimit: 10;
      }
    </style>
  </defs>
  <title>3StateBuffer</title>
  <g>
    <path id="path3059" class="cls-1" d="M49.563,12.44208h14" transform="translate(0.00002)"/>
    <path id="path3061" class="cls-1" d="M27.563,12.44208h-14" transform="translate(0.00002)"/>
    <path id="path2638" class="cls-2" d="M26.84857,0V24.88416l1.19736-.59,22.78445-11.1059,1.57912-.74618-1.57912-.74619L28.04593.59Zm1.6659,2.67236,20.06,9.76972-20.06,9.76971Z" transform="translate(0.00002)"/>
  </g>
  <line class="cls-3" x1="39.563" y1="18.44208" x2="39.563" y2="32.44208"/>
  <g>
    <path class="cls-2" d="M1.519,15.5246c-.37939,0-1.16894,0-1.519.02978v-.31H.25981c.78955,0,.81982-.10986.81982-.46973V9.50752c0-.35937-.03028-.46972-.81982-.46972H0V8.72823c.3501.02978,1.13965.02978,1.5293.02978.37988,0,1.16944,0,1.519-.02978V9.0378H2.78852c-.78955,0-.81983.11035-.81983.46972v5.26709c0,.35987.03028.46973.81983.46973h.25976v.31C2.69873,15.5246,1.90918,15.5246,1.519,15.5246Z" transform="translate(0.00002)"/>
    <path class="cls-2" d="M9.45654,9.77753v5.51709c0,.18994,0,.25976-.13965.25976-.07032,0-.08007-.00976-.16992-.12988L5.06934,9.42792a.58238.58238,0,0,0-.1001-.12012v5.19728c0,.26953,0,.73926,1.0293.73926v.31L4.82909,15.5246l-1.16943.02978v-.31c1.02978,0,1.02978-.46973,1.02978-.73926V9.28778c0-.18994-.01025-.19971-.23974-.23-.15039-.00977-.3501-.02-.5-.02h-.29V8.72821H5.35889c.18994,0,.20018.00977.29.12988l3.52783,5.187V9.77751c0-.27,0-.73974-1.0293-.73974V8.7282L9.31686,8.758,10.4863,8.7282v.30957C9.45654,9.03778,9.45654,9.50751,9.45654,9.77753Z" transform="translate(0.00002)"/>
  </g>
  <g>
    <path class="cls-2" d="M38.81689,43.55438H33.0498v-.31H33.29c.76953,0,.78955-.10986.78955-.46973V37.53778c0-.35986-.02-.46973-.78955-.46973H33.0498v-.31h5.627l.27978,2.249H38.707c-.16015-1.38916-.42968-1.939-1.959-1.939H35.45844c-.46973,0-.48976.06983-.48976.39991v2.39843h.8999c.96924,0,1.07911-.31006,1.07911-1.16943h.25v2.64844h-.25c0-.84912-.10987-1.169-1.07911-1.169h-.8999v2.66846c0,.32959.02.39941.48976.39941H36.788c1.71875,0,1.94874-.7295,2.19874-2.26855h.25Z" transform="translate(0.00002)"/>
    <path class="cls-2" d="M45.65674,37.77753v5.51709c0,.18994,0,.25976-.13965.25976-.07031,0-.08008-.00976-.16992-.12988l-4.07764-5.99658a.582.582,0,0,0-.10009-.12012v5.19728c0,.26953,0,.73926,1.02929.73926v.31L41.0293,43.5246l-1.16944.02978v-.31c1.02978,0,1.02978-.46973,1.02978-.73926v-5.2173c0-.18994-.01025-.19971-.23975-.23-.15039-.00977-.35009-.02-.5-.02h-.29v-.30957H41.5591c.18995,0,.20019.00977.29.12988l3.52783,5.187V37.77751c0-.27,0-.73974-1.02929-.73974V36.7282l1.16943.02978,1.16943-.02978v.30957C45.65674,37.03778,45.65674,37.50751,45.65674,37.77753Z" transform="translate(0.00002)"/>
  </g>
  <g>
    <path class="cls-2" d="M68.59961,15.76172a3.41051,3.41051,0,0,1-3.22266-3.55957,3.24813,3.24813,0,1,1,6.45606,0A3.40442,3.40442,0,0,1,68.59961,15.76172Zm0-6.95068c-.92871,0-2.30371.82031-2.30371,3.24316,0,2.53125,1.30566,3.48047,2.31445,3.48047.959,0,2.30371-.91016,2.30371-3.48047C70.91406,9.66113,69.5791,8.811,68.59961,8.811Z" transform="translate(0.00002)"/>
    <path class="cls-2" d="M78.27539,9.69092v3.7373a2.31351,2.31351,0,0,1-2.15625,2.3335A2.43914,2.43914,0,0,1,73.7168,13.29V9.55225c0-.36573-.0293-.46485-.74121-.46485h-.19825V8.80078c.23731.02,1.04786.02,1.34473.02.28711,0,1.09766,0,1.335-.02V9.0874h-.19726c-.71289,0-.74219.09912-.74219.46485v3.79687c0,1.73047,1.02832,2.126,1.62207,2.126a2.01016,2.01016,0,0,0,1.86816-2.19531V9.81934c0-.26709,0-.73194-.93945-.73194V8.80078c.25781.02.791.02,1.07812.02.27735,0,.81055,0,1.06836-.02V9.0874C79.03613,9.0874,78.27539,9.0874,78.27539,9.69092Z" transform="translate(0.00002)"/>
    <path class="cls-2" d="M86.041,11.05518c-.13868-1.562-.22754-1.918-1.78907-1.918a4.31238,4.31238,0,0,0-.55468.01953c-.15821.03955-.17774.1289-.17774.376V14.793c0,.33594,0,.47461.96875.47461h.35645v.28662c-.31641-.01953-1.34473-.01953-1.73047-.01953s-1.4043,0-1.72071.01953v-.28662H81.75c.96875,0,.96875-.13867.96875-.47461V9.53271c0-.22753-.00977-.34619-.207-.376a4.05408,4.05408,0,0,0-.53418-.01953c-1.5625,0-1.65137.356-1.79,1.918h-.21777l.17871-2.20508h5.93261l.17774,2.20508Z" transform="translate(0.00002)"/>
  </g>
</svg>
