<?xml version="1.0" encoding="utf-8"?>
<!-- Generator: Adobe Illustrator 23.0.3, SVG Export Plug-In . SVG Version: 6.00 Build 0)  -->
<svg version="1.1" id="Layer_1" xmlns="http://www.w3.org/2000/svg" xmlns:xlink="http://www.w3.org/1999/xlink" x="0px" y="0px"
	 viewBox="0 0 86.2588 43.55438" style="enable-background:new 0 0 86.2588 43.55438;" xml:space="preserve">
<style type="text/css">
	.st0{fill:none;stroke:#8FF4DD;stroke-width:2;}
	.st1{fill:#8FF4DD;}
	.st2{fill:none;stroke:#8FF4DD;stroke-width:2;stroke-linecap:square;stroke-miterlimit:10;}
</style>
<title>3StateBuffer</title>
<g>
	<path id="path3059" class="st0" d="M49.56302,12.44208h14"/>
	<path id="path3061" class="st0" d="M27.56302,12.44208h-14"/>
	<path id="path2638" class="st1" d="M26.84859,0v24.88416l1.19736-0.59l22.78445-11.1059l1.57912-0.74618l-1.57912-0.74619
		L28.04595,0.59L26.84859,0z M28.51449,2.67236l20.06,9.76972l-20.06,9.76971L28.51449,2.67236z"/>
</g>
<line class="st2" x1="39.563" y1="18.44208" x2="39.563" y2="32.44208"/>
<g>
	<path class="st1" d="M1.51902,15.5246c-0.37939,0-1.16894,0-1.519,0.02978v-0.31h0.25981
		c0.78955,0,0.81982-0.10986,0.81982-0.46973V9.50752c0-0.35937-0.03028-0.46972-0.81982-0.46972H0.00002V8.72823
		c0.3501,0.02978,1.13965,0.02978,1.5293,0.02978c0.37988,0,1.16944,0,1.519-0.02978V9.0378H2.78854
		c-0.78955,0-0.81983,0.11035-0.81983,0.46972v5.26709c0,0.35987,0.03028,0.46973,0.81983,0.46973H3.0483v0.31
		C2.69875,15.5246,1.9092,15.5246,1.51902,15.5246z"/>
	<path class="st1" d="M9.45656,9.77753v5.51709c0,0.18994,0,0.25976-0.13965,0.25976c-0.07032,0-0.08007-0.00976-0.16992-0.12988
		L5.06936,9.42792C5.04154,9.38356,5.00787,9.34316,4.96926,9.3078v5.19728c0,0.26953,0,0.73926,1.0293,0.73926v0.31
		L4.82911,15.5246l-1.16943,0.02978v-0.31c1.02978,0,1.02978-0.46973,1.02978-0.73926V9.28778
		c0-0.18994-0.01025-0.19971-0.23974-0.23c-0.15039-0.00977-0.3501-0.02-0.5-0.02h-0.29V8.72821h1.69919
		c0.18994,0,0.20018,0.00977,0.29,0.12988l3.52783,5.187V9.77751c0-0.27,0-0.73974-1.0293-0.73974V8.7282L9.31688,8.758
		l1.16944-0.0298v0.30957C9.45656,9.03778,9.45656,9.50751,9.45656,9.77753z"/>
</g>
<g>
	<path class="st1" d="M38.81691,43.55438h-5.76709v-0.31h0.2402c0.76953,0,0.78955-0.10986,0.78955-0.46973v-5.23687
		c0-0.35986-0.02-0.46973-0.78955-0.46973h-0.2402v-0.31h5.627l0.27978,2.249h-0.24958c-0.16015-1.38916-0.42968-1.939-1.959-1.939
		h-1.28956c-0.46973,0-0.48976,0.06983-0.48976,0.39991v2.39843h0.8999c0.96924,0,1.07911-0.31006,1.07911-1.16943h0.25v2.64844
		h-0.25c0-0.84912-0.10987-1.169-1.07911-1.169h-0.8999v2.66846c0,0.32959,0.02,0.39941,0.48976,0.39941h1.32956
		c1.71875,0,1.94874-0.7295,2.19874-2.26855h0.25L38.81691,43.55438z"/>
	<path class="st1" d="M45.65676,37.77753v5.51709c0,0.18994,0,0.25976-0.13965,0.25976c-0.07031,0-0.08008-0.00976-0.16992-0.12988
		l-4.07764-5.99658c-0.02781-0.04436-0.06147-0.08477-0.10009-0.12012v5.19728c0,0.26953,0,0.73926,1.02929,0.73926v0.31
		l-1.16943-0.02975l-1.16944,0.02978v-0.31c1.02978,0,1.02978-0.46973,1.02978-0.73926v-5.2173
		c0-0.18994-0.01025-0.19971-0.23975-0.23c-0.15039-0.00977-0.35009-0.02-0.5-0.02h-0.29v-0.30957h1.69921
		c0.18995,0,0.20019,0.00977,0.29,0.12988l3.52783,5.187v-4.26762c0-0.27,0-0.73974-1.02929-0.73974V36.7282l1.16943,0.02978
		l1.16943-0.02978v0.30957C45.65676,37.03778,45.65676,37.50751,45.65676,37.77753z"/>
</g>
<g>
	<path class="st1" d="M69.42648,15.85515c-1.6479,0-3.06963-1.47885-3.06963-3.38969c0-1.93001,1.40295-3.43646,3.07882-3.43646
		c1.63831,0,3.06963,1.48766,3.06963,3.43646C72.5053,14.35791,71.11155,15.85515,69.42648,15.85515z M69.42648,9.236
		c-0.88509,0-2.19374,0.78159-2.19374,3.0884c0,2.40993,1.24272,3.3138,2.20293,3.3138c0.91345,0,2.19374-0.8663,2.19374-3.3138
		C71.62942,10.04595,70.35833,9.236,69.42648,9.236z"/>
	<path class="st1" d="M78.64799,10.07393v3.55874c0,0.94143-0.74403,2.22248-2.05268,2.22248
		c-1.19557,0-2.28764-0.98896-2.28764-2.35435V9.94245c0-0.34844-0.02837-0.44273-0.70646-0.44273H73.413V9.2268
		c0.22616,0.01878,0.99816,0.01878,1.28067,0.01878c0.27292,0,1.04493,0,1.2707-0.01878v0.27292h-0.18821
		c-0.6777,0-0.70607,0.0943-0.70607,0.44273v3.61508c0,1.64751,0.97938,2.02393,1.54401,2.02393
		c0.88509,0,1.77975-0.77201,1.77975-2.08986V10.1966c0-0.25414,0-0.69687-0.89467-0.69687V9.2268
		c0.24494,0.01878,0.75322,0.01878,1.02653,0.01878c0.26334,0,0.77201,0,1.01656-0.01878v0.27292
		C79.37285,9.49972,78.64799,9.49972,78.64799,10.07393z"/>
	<path class="st1" d="M86.0518,11.37339c-0.13186-1.48766-0.21658-1.82652-1.70424-1.82652c-0.17863,0-0.45193,0-0.52706,0.01878
		c-0.15064,0.03757-0.16943,0.12228-0.16943,0.35764v5.00883c0,0.32046,0,0.45232,0.92265,0.45232h0.33886v0.27292
		c-0.30129-0.01917-1.28029-0.01917-1.64751-0.01917c-0.36723,0-1.33702,0-1.63831,0.01917v-0.27292h0.33885
		c0.92265,0,0.92265-0.13186,0.92265-0.45232V9.92329c0-0.21619-0.00958-0.32927-0.19779-0.35764
		c-0.07513-0.01878-0.33885-0.01878-0.50828-0.01878c-1.48766,0-1.57238,0.33885-1.70424,1.82652h-0.20699l0.16943-2.09944h5.64898
		l0.16943,2.09944H86.0518z"/>
</g>
</svg>
