<svg xmlns="http://www.w3.org/2000/svg" viewBox="0 0 237.07886 234.27319">
  <defs>
    <style>
      .cls-1, .cls-3, .cls-4, .cls-5, .cls-6 {
        fill: none;
        stroke: #8ff4dd;
      }

      .cls-1, .cls-4, .cls-5 {
        stroke-width: 2px;
      }

      .cls-2 {
        fill: #8ff4dd;
      }

      .cls-3 {
        stroke-width: 1.5px;
      }

      .cls-4, .cls-5 {
        stroke-linecap: square;
      }

      .cls-4, .cls-6 {
        stroke-miterlimit: 10;
      }
    </style>
  </defs>
  <title>3to8Decoder</title>
  <g id="Layer_1" data-name="Layer 1">
    <g>
      <path class="cls-1" d="M141.194,50H150m-36,0H100" transform="translate(-73 -29.45239)"/>
      <path class="cls-2" d="M113.29824,37.54607V62.45393l1.1985-.59056,22.80615-11.11648V49.25311L114.49674,38.13663Zm1.66747,2.6749L135.04486,50l-20.07915,9.779Z" transform="translate(-73 -29.45239)"/>
      <path class="cls-3" d="M141.10681,50a2.2233,2.2233,0,1,1-2.22329-2.2233A2.2233,2.2233,0,0,1,141.10681,50Z" transform="translate(-73 -29.45239)"/>
    </g>
    <g>
      <path class="cls-2" d="M188.88889,44.88889V67.11111h11.37566a11.11111,11.11111,0,0,0,0-22.22222Zm1.5873,1.5873h9.78836A9.19008,9.19008,0,0,1,209.52381,56,9.40935,9.40935,0,0,1,200,65.52381h-9.52381Z" transform="translate(-73 -29.45239)"/>
      <line class="cls-1" x1="138" y1="26.54761" x2="152" y2="26.54761"/>
      <line class="cls-1" x1="117" y1="20.54761" x2="102" y2="20.54761"/>
      <line class="cls-1" x1="117" y1="32.54761" x2="102" y2="32.54761"/>
    </g>
    <g>
      <path class="cls-2" d="M188.88889,69.88889V92.11111h11.37566a11.11111,11.11111,0,0,0,0-22.22222Zm1.5873,1.5873h9.78836A9.19008,9.19008,0,0,1,209.52381,81,9.40935,9.40935,0,0,1,200,90.52381h-9.52381Z" transform="translate(-73 -29.45239)"/>
      <line class="cls-1" x1="138" y1="51.54761" x2="152" y2="51.54761"/>
      <line class="cls-1" x1="117" y1="45.54761" x2="102" y2="45.54761"/>
      <line class="cls-1" x1="117" y1="57.54761" x2="102" y2="57.54761"/>
    </g>
    <g>
      <path class="cls-2" d="M188.88889,94.88889v22.22222h11.37566a11.11111,11.11111,0,0,0,0-22.22222Zm1.5873,1.5873h9.78836A9.19008,9.19008,0,0,1,209.52381,106,9.40935,9.40935,0,0,1,200,115.52381h-9.52381Z" transform="translate(-73 -29.45239)"/>
      <line class="cls-1" x1="138" y1="76.54761" x2="152" y2="76.54761"/>
      <line class="cls-1" x1="117" y1="70.54761" x2="102" y2="70.54761"/>
      <line class="cls-1" x1="117" y1="82.54761" x2="102" y2="82.54761"/>
    </g>
    <g>
      <path class="cls-2" d="M188.88889,119.88889v22.22222h11.37566a11.11111,11.11111,0,0,0,0-22.22222Zm1.5873,1.5873h9.78836A9.19008,9.19008,0,0,1,209.52381,131,9.40935,9.40935,0,0,1,200,140.52381h-9.52381Z" transform="translate(-73 -29.45239)"/>
      <line class="cls-1" x1="138" y1="101.54761" x2="152" y2="101.54761"/>
      <line class="cls-1" x1="117" y1="95.54761" x2="102" y2="95.54761"/>
      <line class="cls-1" x1="117" y1="107.54761" x2="102" y2="107.54761"/>
    </g>
    <g>
      <path class="cls-2" d="M263.88889,50.88889V73.11111h11.37566a11.11111,11.11111,0,0,0,0-22.22222Zm1.5873,1.5873h9.78836A9.19008,9.19008,0,0,1,284.52381,62,9.40935,9.40935,0,0,1,275,71.52381h-9.52381Z" transform="translate(-73 -29.45239)"/>
      <line class="cls-1" x1="213" y1="32.54761" x2="227" y2="32.54761"/>
      <line class="cls-1" x1="192" y1="26.54761" x2="177" y2="26.54761"/>
      <line class="cls-1" x1="192" y1="38.54761" x2="177" y2="38.54761"/>
    </g>
    <g>
      <path class="cls-2" d="M263.88889,75.88889V98.11111h11.37566a11.11111,11.11111,0,0,0,0-22.22222Zm1.5873,1.5873h9.78836A9.19008,9.19008,0,0,1,284.52381,87,9.40935,9.40935,0,0,1,275,96.52381h-9.52381Z" transform="translate(-73 -29.45239)"/>
      <line class="cls-1" x1="213" y1="57.54761" x2="227" y2="57.54761"/>
      <line class="cls-1" x1="192" y1="51.54761" x2="177" y2="51.54761"/>
      <line class="cls-1" x1="192" y1="63.54761" x2="177" y2="63.54761"/>
    </g>
    <g>
      <path class="cls-2" d="M263.88889,100.88889v22.22222h11.37566a11.11111,11.11111,0,0,0,0-22.22222Zm1.5873,1.5873h9.78836A9.19008,9.19008,0,0,1,284.52381,112,9.40935,9.40935,0,0,1,275,121.52381h-9.52381Z" transform="translate(-73 -29.45239)"/>
      <line class="cls-1" x1="213" y1="82.54761" x2="227" y2="82.54761"/>
      <line class="cls-1" x1="192" y1="76.54761" x2="177" y2="76.54761"/>
      <line class="cls-1" x1="192" y1="88.54761" x2="177" y2="88.54761"/>
    </g>
    <g>
      <path class="cls-2" d="M263.88889,125.88889v22.22222h11.37566a11.11111,11.11111,0,0,0,0-22.22222Zm1.5873,1.5873h9.78836A9.19008,9.19008,0,0,1,284.52381,137,9.40935,9.40935,0,0,1,275,146.52381h-9.52381Z" transform="translate(-73 -29.45239)"/>
      <line class="cls-1" x1="213" y1="107.54761" x2="227" y2="107.54761"/>
      <line class="cls-1" x1="192" y1="101.54761" x2="177" y2="101.54761"/>
      <line class="cls-1" x1="192" y1="113.54761" x2="177" y2="113.54761"/>
    </g>
    <g>
      <path class="cls-2" d="M263.88889,150.88889v22.22222h11.37566a11.11111,11.11111,0,0,0,0-22.22222Zm1.5873,1.5873h9.78836A9.19008,9.19008,0,0,1,284.52381,162,9.40935,9.40935,0,0,1,275,171.52381h-9.52381Z" transform="translate(-73 -29.45239)"/>
      <line class="cls-1" x1="213" y1="132.54761" x2="227" y2="132.54761"/>
      <line class="cls-1" x1="192" y1="126.54761" x2="177" y2="126.54761"/>
      <line class="cls-1" x1="192" y1="138.54761" x2="177" y2="138.54761"/>
    </g>
    <g>
      <path class="cls-2" d="M263.88889,175.88889v22.22222h11.37566a11.11111,11.11111,0,0,0,0-22.22222Zm1.5873,1.5873h9.78836A9.19008,9.19008,0,0,1,284.52381,187,9.40935,9.40935,0,0,1,275,196.52381h-9.52381Z" transform="translate(-73 -29.45239)"/>
      <line class="cls-1" x1="213" y1="157.54761" x2="227" y2="157.54761"/>
      <line class="cls-1" x1="192" y1="151.54761" x2="177" y2="151.54761"/>
      <line class="cls-1" x1="192" y1="163.54761" x2="177" y2="163.54761"/>
    </g>
    <g>
      <path class="cls-2" d="M263.88889,200.88889v22.22222h11.37566a11.11111,11.11111,0,0,0,0-22.22222Zm1.5873,1.5873h9.78836A9.19008,9.19008,0,0,1,284.52381,212,9.40935,9.40935,0,0,1,275,221.52381h-9.52381Z" transform="translate(-73 -29.45239)"/>
      <line class="cls-1" x1="213" y1="182.54761" x2="227" y2="182.54761"/>
      <line class="cls-1" x1="192" y1="176.54761" x2="177" y2="176.54761"/>
      <line class="cls-1" x1="192" y1="188.54761" x2="177" y2="188.54761"/>
    </g>
    <g>
      <path class="cls-2" d="M263.88889,225.88889v22.22222h11.37566a11.11111,11.11111,0,0,0,0-22.22222Zm1.5873,1.5873h9.78836A9.19008,9.19008,0,0,1,284.52381,237,9.40935,9.40935,0,0,1,275,246.52381h-9.52381Z" transform="translate(-73 -29.45239)"/>
      <line class="cls-1" x1="213" y1="207.54761" x2="227" y2="207.54761"/>
      <line class="cls-1" x1="192" y1="201.54761" x2="177" y2="201.54761"/>
      <line class="cls-1" x1="192" y1="213.54761" x2="177" y2="213.54761"/>
    </g>
  </g>
  <g id="Layer_2" data-name="Layer 2">
    <polyline class="cls-4" points="27 20.548 27 45.548 76 45.548"/>
    <line class="cls-4" x1="27" y1="45.54761" x2="2" y2="45.54761"/>
    <g>
      <path class="cls-1" d="M141.194,112H157V87h19m-62,25H100" transform="translate(-73 -29.45239)"/>
      <path class="cls-2" d="M113.29824,99.54607v24.90786l1.1985-.59056,22.80615-11.11648v-1.49378l-22.80615-11.11648Zm1.66747,2.6749L135.04486,112l-20.07915,9.779Z" transform="translate(-73 -29.45239)"/>
      <path class="cls-3" d="M141.10681,112a2.2233,2.2233,0,1,1-2.22329-2.2233A2.2233,2.2233,0,0,1,141.10681,112Z" transform="translate(-73 -29.45239)"/>
    </g>
    <polyline class="cls-4" points="27 82.548 27 107.548 77 107.548"/>
    <line class="cls-4" x1="27" y1="107.54761" x2="2" y2="107.54761"/>
    <line class="cls-4" x1="77" y1="20.54761" x2="102" y2="20.54761"/>
    <polyline class="cls-4" points="102 70.548 90 70.548 90 20.548"/>
    <circle class="cls-2" cx="90" cy="20.54761" r="2.5"/>
    <circle class="cls-2" cx="84" cy="57.54761" r="2.5"/>
    <polyline class="cls-4" points="84 57.548 84 32.548 102 32.548"/>
    <polyline class="cls-5" points="102 95.548 77 95.548 77 45.548 102 45.548"/>
    <circle class="cls-2" cx="77" cy="45.54761" r="2.5"/>
    <polyline class="cls-4" points="102 82.548 90 82.548 90 107.548 77 107.548"/>
    <line class="cls-4" x1="102" y1="107.54761" x2="90" y2="107.54761"/>
    <circle class="cls-2" cx="90" cy="107.54761" r="2.5"/>
    <g>
      <path class="cls-1" d="M140.194,175H220V68h31M113,175H99" transform="translate(-73 -29.45239)"/>
      <path class="cls-2" d="M112.29824,162.54607v24.90786l1.1985-.59056,22.80615-11.11648v-1.49378l-22.80615-11.11648Zm1.66747,2.6749L134.04486,175l-20.07915,9.779Z" transform="translate(-73 -29.45239)"/>
      <path class="cls-3" d="M140.10681,175a2.2233,2.2233,0,1,1-2.22329-2.2233A2.2233,2.2233,0,0,1,140.10681,175Z" transform="translate(-73 -29.45239)"/>
    </g>
    <line class="cls-4" x1="26" y1="170.54761" x2="1" y2="170.54761"/>
    <line class="cls-4" x1="152" y1="26.54761" x2="177" y2="26.54761"/>
    <polyline class="cls-4" points="177 126.548 171 126.548 171 26.548"/>
    <line class="cls-4" x1="177" y1="51.54761" x2="152" y2="51.54761"/>
    <polyline class="cls-4" points="177 151.548 165 151.548 165 51.548"/>
    <line class="cls-4" x1="152" y1="76.54761" x2="177" y2="76.54761"/>
    <polyline class="cls-4" points="177 176.548 159 176.548 159 76.548"/>
    <line class="cls-4" x1="152" y1="101.54761" x2="177" y2="101.54761"/>
    <polyline class="cls-4" points="177 201.548 153 201.548 153 101.548"/>
    <line class="cls-4" x1="177" y1="63.54761" x2="147" y2="63.54761"/>
    <line class="cls-4" x1="177" y1="88.54761" x2="147" y2="88.54761"/>
    <line class="cls-4" x1="177" y1="113.54761" x2="147" y2="113.54761"/>
    <polyline class="cls-4" points="177 138.548 177 163.548 177 170.548 76 170.548 26 170.548 26 145.548"/>
    <polyline class="cls-4" points="177 213.548 177 188.548 177 170.548"/>
    <circle class="cls-2" cx="147" cy="38.54761" r="2.5"/>
    <circle class="cls-2" cx="147" cy="63.54761" r="2.5"/>
    <circle class="cls-2" cx="147" cy="88.54761" r="2.5"/>
    <circle class="cls-2" cx="147" cy="113.54761" r="2.5"/>
    <circle class="cls-2" cx="177" cy="139.04761" r="2.5"/>
    <circle class="cls-2" cx="177" cy="164.04761" r="2.5"/>
    <circle class="cls-2" cx="177" cy="189.04761" r="2.5"/>
    <circle class="cls-2" cx="177" cy="214.04761" r="2.5"/>
    <circle class="cls-2" cx="177" cy="170.54761" r="2.5"/>
    <circle class="cls-2" cx="171" cy="26.54761" r="2.5"/>
    <circle class="cls-2" cx="165" cy="51.54761" r="2.5"/>
    <circle class="cls-2" cx="159" cy="76.54761" r="2.5"/>
    <circle class="cls-2" cx="153" cy="101.54761" r="2.5"/>
    <circle class="cls-2" cx="27" cy="45.54761" r="2.5"/>
    <circle class="cls-2" cx="27" cy="107.54761" r="2.5"/>
    <circle class="cls-2" cx="27" cy="170.54761" r="2.5"/>
  </g>
  <g id="Layer_3" data-name="Layer 3">
    <rect class="cls-6" x="16.5" y="5.54761" width="56" height="45"/>
    <rect class="cls-6" x="16.5" y="68.04761" width="56" height="45"/>
    <rect class="cls-6" x="16.5" y="131.04761" width="56" height="45"/>
    <rect class="cls-6" x="112.5" y="11.54761" width="30" height="105"/>
    <rect class="cls-6" x="187.5" y="18.04761" width="30" height="204"/>
    <g>
      <path class="cls-2" d="M91.78174,217.75684c-.39942,0-1.269,0-1.61865.02978v-.31006h.31982c.89941,0,.9292-.11963.9292-.47949v-5.17725a2.99349,2.99349,0,0,1-1.30908.25977V211.77a2.46909,2.46909,0,0,0,1.81885-.63965c.23,0,.23.02.23.25977v5.60693c0,.36963.02978.47949.92919.47949h.31983v.31006C93.05127,217.75684,92.18164,217.75684,91.78174,217.75684Z" transform="translate(-73 -29.45239)"/>
      <path class="cls-2" d="M94.32324,215.91748v-.57959h2.64844v.57959Z" transform="translate(-73 -29.45239)"/>
      <path class="cls-2" d="M99.87207,217.89648a1.20884,1.20884,0,0,1-1.28906-1.34912v-2.7583H97.7334v-.22021c.97949-.04,1.2793-1.10938,1.28906-1.92871h.25V213.479h1.4292v.31006h-1.4292v2.77832c0,.16992,0,1.0791.66992,1.0791.36963,0,.66944-.37939.66944-1.11914v-.5498h.25v.56982C100.86182,217.187,100.582,217.89648,99.87207,217.89648Z" transform="translate(-73 -29.45239)"/>
      <path class="cls-2" d="M103.92188,217.89648a2.231,2.231,0,0,1-2.209-2.24853,2.21721,2.21721,0,1,1,4.42774,0A2.22691,2.22691,0,0,1,103.92188,217.89648Zm1.12939-3.71777a1.3109,1.3109,0,0,0-1.12939-.6499,1.34145,1.34145,0,0,0-1.13965.66992,2.86611,2.86611,0,0,0-.23975,1.36914,2.97258,2.97258,0,0,0,.25,1.40918,1.30473,1.30473,0,0,0,1.13916.66943,1.28971,1.28971,0,0,0,1.15967-.73925,3.03849,3.03849,0,0,0,.21973-1.33936A2.7435,2.7435,0,0,0,105.05127,214.17871Z" transform="translate(-73 -29.45239)"/>
      <path class="cls-2" d="M106.543,215.91748v-.57959h2.64844v.57959Z" transform="translate(-73 -29.45239)"/>
      <path class="cls-2" d="M113.9707,217.78662h-3.708c0-.23974,0-.25976.11035-.36963l1.91894-2.13916a3.58207,3.58207,0,0,0,1.04932-2.20849c0-.81983-.42969-1.6294-1.33936-1.6294a1.44175,1.44175,0,0,0-1.34912,1.01953.38793.38793,0,0,1,.12988-.00976.50587.50587,0,0,1,.52979.51953.52546.52546,0,1,1-1.0498-.02979,1.84676,1.84676,0,0,1,1.86914-1.80908,1.96312,1.96312,0,0,1,2.11865,1.939c0,.99951-.59961,1.53906-2.15869,2.91845l-1.05909,1.0293h1.79883a3.25008,3.25008,0,0,0,.94922-.08008,3.29066,3.29066,0,0,0,.22022-.88965h.24951Z" transform="translate(-73 -29.45239)"/>
      <path class="cls-2" d="M114.87305,215.91748v-.57959h2.64843v.57959Z" transform="translate(-73 -29.45239)"/>
      <path class="cls-2" d="M119.53223,217.75684l-1.10938.02978v-.31006c.66992,0,.77979,0,.77979-.4497v-5.19678c0-.48975-.08008-.56006-.77979-.56006v-.30957l1.43945-.10986v6.17627c0,.4497.10987.4497.77979.4497v.31006Z" transform="translate(-73 -29.45239)"/>
      <path class="cls-2" d="M122.30225,217.75684l-1.09961.02978v-.31006c.66992,0,.77978,0,.77978-.4497v-2.68848c0-.48975-.08984-.54932-.73974-.54932V213.479l1.39941-.10986v3.668c0,.38965.04.43945.69971.43945v.31006C123.002,217.77686,122.65186,217.75684,122.30225,217.75684Zm-.04981-5.47705a.53979.53979,0,0,1-.52978-.52979.53428.53428,0,0,1,.53955-.52979.53979.53979,0,0,1,.52978.52979A.53428.53428,0,0,1,122.25244,212.27979Z" transform="translate(-73 -29.45239)"/>
      <path class="cls-2" d="M127.88086,217.75684l-1.1294.02978v-.31006c.66993,0,.77979,0,.77979-.4497v-2.32862c0-.56982-.10986-1.10937-.73975-1.10937a1.45948,1.45948,0,0,0-1.34912,1.59912v1.83887c0,.4497.10987.4497.7793.4497v.31006l-1.11914-.02978-1.1294.02978v-.31006c.66944,0,.77979,0,.77979-.4497v-2.67823c0-.48974-.08008-.55957-.77979-.55957V213.479l1.40918-.10986v1.04932a1.57537,1.57537,0,0,1,1.479-1.04932,1.33322,1.33322,0,0,1,1.0498.36963c.30957.35986.30957.66992.30957,1.5293v1.90869c.01026.2998.25977.2998.77979.2998v.31006Z" transform="translate(-73 -29.45239)"/>
      <path class="cls-2" d="M131.69141,217.89648a2.25623,2.25623,0,0,1-2.19873-2.30859,2.184,2.184,0,0,1,2.0791-2.27881,1.7729,1.7729,0,0,1,1.78906,1.959c0,.21-.03027.21-.25.21h-2.78857a2.90957,2.90957,0,0,0,.2998,1.499,1.34635,1.34635,0,0,0,1.12939.66943,1.40812,1.40812,0,0,0,1.34913-1.02929c.02-.08008.04-.13965.12988-.13965a.11626.11626,0,0,1,.13037.11963A1.70886,1.70886,0,0,1,131.69141,217.89648Zm-.11963-4.36767c-.33985,0-1.17969.25-1.23975,1.73926h2.36914C132.70117,214.87842,132.60107,213.52881,131.57178,213.52881Z" transform="translate(-73 -29.45239)"/>
    </g>
    <g>
      <path class="cls-2" d="M93.01123,227.89648v-.65966a1.68868,1.68868,0,0,1-1.33935.65966,2.19818,2.19818,0,0,1-2.11866-2.25878,2.25866,2.25866,0,0,1,2.22852-2.26856,1.596,1.596,0,0,1,1.25976.61963v-2.15869c0-.48975-.08007-.56006-.77978-.56006v-.30957l1.439-.10986v6.0664c0,.48975.08008.55957.77979.55957v.31006Zm0-3.33789a.4786.4786,0,0,0-.10986-.37011,1.296,1.296,0,0,0-1.07959-.59961,1.3746,1.3746,0,0,0-1.1294.63965,3.44227,3.44227,0,0,0-.02,2.80859,1.24346,1.24346,0,0,0,1.04981.63965,1.392,1.392,0,0,0,1.1792-.69971.47806.47806,0,0,0,.10986-.36963Z" transform="translate(-73 -29.45239)"/>
      <path class="cls-2" d="M97.25195,227.89648a2.25623,2.25623,0,0,1-2.19873-2.30859,2.184,2.184,0,0,1,2.0791-2.27881,1.77291,1.77291,0,0,1,1.78907,1.959c0,.21-.03028.21-.25.21H95.88281a2.90949,2.90949,0,0,0,.29981,1.499,1.34635,1.34635,0,0,0,1.12939.66943,1.40811,1.40811,0,0,0,1.34912-1.02929c.02-.08008.04-.13965.12989-.13965a.11626.11626,0,0,1,.13037.11963A1.70886,1.70886,0,0,1,97.25195,227.89648Zm-.11963-4.36767c-.33984,0-1.17968.25-1.23974,1.73926h2.36914C98.26172,224.87842,98.16162,223.52881,97.13232,223.52881Z" transform="translate(-73 -29.45239)"/>
      <path class="cls-2" d="M101.70215,227.89648a2.21192,2.21192,0,0,1-2.14893-2.26855,2.24,2.24,0,0,1,2.169-2.31885c.76953,0,1.52881.38965,1.52881,1.06934a.45977.45977,0,1,1-.91944.01025.45126.45126,0,0,1,.46973-.46,1.62843,1.62843,0,0,0-1.06934-.36963c-.52978,0-1.34912.41944-1.34912,2.04883,0,1.60889.8794,2.03857,1.40918,2.03857a1.30475,1.30475,0,0,0,1.30908-1.04931c.02-.06006.04-.09961.12989-.09961.03027,0,.13037,0,.13037.09961A1.64452,1.64452,0,0,1,101.70215,227.89648Z" transform="translate(-73 -29.45239)"/>
      <path class="cls-2" d="M106.14209,227.89648a2.231,2.231,0,0,1-2.209-2.24853,2.21721,2.21721,0,1,1,4.42773,0A2.22691,2.22691,0,0,1,106.14209,227.89648Zm1.12939-3.71777a1.31032,1.31032,0,0,0-1.12939-.6499,1.34146,1.34146,0,0,0-1.13965.66992,2.86621,2.86621,0,0,0-.23974,1.36914,2.97258,2.97258,0,0,0,.25,1.40918,1.30473,1.30473,0,0,0,1.13916.66943,1.28968,1.28968,0,0,0,1.15966-.73925,3.03849,3.03849,0,0,0,.21973-1.33936A2.7435,2.7435,0,0,0,107.27148,224.17871Z" transform="translate(-73 -29.45239)"/>
      <path class="cls-2" d="M112.731,227.89648v-.65966a1.68868,1.68868,0,0,1-1.33936.65966,2.19818,2.19818,0,0,1-2.11865-2.25878,2.25866,2.25866,0,0,1,2.22851-2.26856,1.596,1.596,0,0,1,1.25977.61963v-2.15869c0-.48975-.08008-.56006-.77978-.56006v-.30957l1.439-.10986v6.0664c0,.48975.08008.55957.77979.55957v.31006Zm0-3.33789a.47857.47857,0,0,0-.10987-.37011,1.296,1.296,0,0,0-1.07959-.59961,1.37458,1.37458,0,0,0-1.12939.63965,3.44227,3.44227,0,0,0-.02,2.80859,1.24344,1.24344,0,0,0,1.0498.63965,1.392,1.392,0,0,0,1.1792-.69971.478.478,0,0,0,.10987-.36963Z" transform="translate(-73 -29.45239)"/>
      <path class="cls-2" d="M116.97168,227.89648a2.25623,2.25623,0,0,1-2.19873-2.30859,2.184,2.184,0,0,1,2.0791-2.27881,1.7729,1.7729,0,0,1,1.78906,1.959c0,.21-.03027.21-.25.21h-2.78857a2.90957,2.90957,0,0,0,.2998,1.499,1.34637,1.34637,0,0,0,1.1294.66943,1.40811,1.40811,0,0,0,1.34912-1.02929c.02-.08008.04-.13965.12988-.13965a.11626.11626,0,0,1,.13037.11963A1.70884,1.70884,0,0,1,116.97168,227.89648Zm-.11963-4.36767c-.33984,0-1.17969.25-1.23975,1.73926h2.36915C117.98145,224.87842,117.88135,223.52881,116.85205,223.52881Z" transform="translate(-73 -29.45239)"/>
      <path class="cls-2" d="M122.14111,224.41846a.41406.41406,0,0,1-.42968-.42969.43282.43282,0,0,1,.23-.38965c-.02-.01025-.04-.01025-.10987-.01025-.75976,0-1.1792.88965-1.1792,1.8789v1.53907c0,.35986.02.46972.75928.46972h.21v.31006c-.3999-.02978-.86963-.02978-1.269-.02978l-1.13965.02978v-.31006c.66992,0,.77979,0,.77979-.4497v-2.67823c0-.48974-.08008-.55957-.77979-.55957V223.479l1.38916-.10986v1.09912a1.4,1.4,0,0,1,1.22949-1.09912.682.682,0,0,1,.73975.60938A.42033.42033,0,0,1,122.14111,224.41846Z" transform="translate(-73 -29.45239)"/>
      <path class="cls-2" d="M124.8418,227.89648a1.49156,1.49156,0,0,1-1.09912-.42968,2.25409,2.25409,0,0,0-.2002.23c-.18994.18994-.19971.1997-.24951.1997-.11035,0-.11035-.06982-.11035-.23974V226.3374c0-.17969,0-.25.13037-.25.09961,0,.10986.04.13965.16992.18994.84961.5498,1.41944,1.38916,1.41944.77978,0,1.12939-.3999,1.12939-.90967,0-.71973-.81933-.87939-1.03955-.91943a2.61207,2.61207,0,0,1-1.31885-.46,1.06434,1.06434,0,0,1-.43017-.84913c0-.56.37988-1.22949,1.59912-1.22949a1.54142,1.54142,0,0,1,.93994.27979,1.34818,1.34818,0,0,0,.16992-.15967c.12988-.12012.1499-.12012.19971-.12012.10986,0,.10986.06983.10986.23975v1.00976c0,.18946,0,.23975-.12988.23975,0,0-.10986,0-.12012-.08984a1.10262,1.10262,0,0,0-1.16943-1.20948c-.85938,0-1.11914.40967-1.11914.75977,0,.57959.66943.70947,1.22949.81934a2.03823,2.03823,0,0,1,1.13916.47949,1.28959,1.28959,0,0,1,.41992.9497C126.45117,227.22705,125.99121,227.89648,124.8418,227.89648Z" transform="translate(-73 -29.45239)"/>
    </g>
    <g>
      <path class="cls-2" d="M169.2793,34.95972v.86914c0,.35986.02.46972.75976.46972h.20948v.31006c-.40967-.02978-.93946-.02978-1.35889-.02978-.41992,0-.93945,0-1.34961.02978v-.31006h.21c.73975,0,.75977-.10986.75977-.46972v-.86914h-2.6587v-.31006l3.06836-4.6875c.08008-.11963.10987-.11963.19971-.11963.16016,0,.16016.05957.16016.25976v4.54737h.99951v.31006Zm-.70948-4.03809-2.439,3.728h2.439Z" transform="translate(-73 -29.45239)"/>
      <path class="cls-2" d="M178.10889,36.60864h-3.708c0-.23974,0-.25976.11035-.36963l1.91895-2.13916a3.5821,3.5821,0,0,0,1.04931-2.20849c0-.81983-.42969-1.6294-1.33935-1.6294a1.44175,1.44175,0,0,0-1.34912,1.01953.38786.38786,0,0,1,.12988-.00976.50586.50586,0,0,1,.52978.51953.52546.52546,0,1,1-1.0498-.02979A1.84677,1.84677,0,0,1,176.27,29.95239a1.96311,1.96311,0,0,1,2.11865,1.939c0,.99951-.59961,1.53906-2.15869,2.91845l-1.05908,1.0293h1.79883a3.25015,3.25015,0,0,0,.94922-.08008,3.2907,3.2907,0,0,0,.22021-.88965h.24951Z" transform="translate(-73 -29.45239)"/>
      <path class="cls-2" d="M179.01123,34.7395v-.57959h2.64844v.57959Z" transform="translate(-73 -29.45239)"/>
      <path class="cls-2" d="M183.66016,36.57886l-1.09961.02978v-.31006c.66992,0,.77978,0,.77978-.4497V33.1604c0-.48975-.08984-.54932-.73974-.54932V32.301L184,32.19116v3.668c0,.38965.04.43945.69971.43945v.31006C184.35986,36.59888,184.00977,36.57886,183.66016,36.57886Zm-.04981-5.477a.53979.53979,0,0,1-.52978-.52979.53427.53427,0,0,1,.53955-.52978.53978.53978,0,0,1,.52978.52978A.53428.53428,0,0,1,183.61035,31.10181Z" transform="translate(-73 -29.45239)"/>
      <path class="cls-2" d="M189.23877,36.57886l-1.12939.02978v-.31006c.66992,0,.77978,0,.77978-.4497V33.52026c0-.56982-.10986-1.10937-.73975-1.10937A1.45948,1.45948,0,0,0,186.80029,34.01v1.83887c0,.4497.10987.4497.7793.4497v.31006l-1.11914-.02978-1.1294.02978v-.31006c.66944,0,.77979,0,.77979-.4497V33.17065c0-.48974-.08008-.55957-.77979-.55957V32.301l1.40918-.10987v1.04932a1.57537,1.57537,0,0,1,1.479-1.04932,1.33322,1.33322,0,0,1,1.0498.36963c.30957.35986.30957.66992.30957,1.5293v1.90869c.01026.2998.25977.2998.77979.2998v.31006Z" transform="translate(-73 -29.45239)"/>
      <path class="cls-2" d="M193.5498,36.71851a1.35683,1.35683,0,0,1-1.22949-.69971v1.769c0,.44971.10987.44971.77979.44971v.31006l-1.1294-.02979-1.11963.02979v-.31006c.66993,0,.77979,0,.77979-.44971V33.1106c0-.43995-.07031-.49952-.77979-.49952V32.301l1.43946-.10987v.65967a1.7995,1.7995,0,0,1,1.39892-.65967A2.18706,2.18706,0,0,1,195.77832,34.45,2.25238,2.25238,0,0,1,193.5498,36.71851Zm.06006-4.27735a1.49847,1.49847,0,0,0-1.28955.79932v2.229a.52321.52321,0,0,0,.14014.41944,1.24519,1.24519,0,0,0,1.04932.60986c.73974,0,1.439-.83984,1.439-2.04883C194.94873,33.32056,194.33936,32.44116,193.60986,32.44116Z" transform="translate(-73 -29.45239)"/>
      <path class="cls-2" d="M200.03906,36.71851v-.89942a1.36292,1.36292,0,0,1-1.28906.89942c-1.519,0-1.519-.90918-1.519-1.689v-1.499c0-.88965,0-.91944-.77979-.91944V32.301l1.46924-.10987V35.509c0,.52.04.98975.87939.98975.7295,0,1.20948-.67969,1.20948-1.54932V33.17065c0-.48974-.08008-.55957-.77979-.55957V32.301l1.46924-.10987V35.739c0,.48975.08008.55957.77979.55957v.31006Z" transform="translate(-73 -29.45239)"/>
      <path class="cls-2" d="M204.01953,36.71851a1.20885,1.20885,0,0,1-1.28906-1.34913v-2.7583h-.84961v-.22021c.97949-.04,1.2793-1.10938,1.28906-1.92871h.25V32.301h1.4292v.31005h-1.4292V35.3894c0,.16993,0,1.07911.66944,1.07911.37011,0,.66992-.3794.66992-1.11914v-.54981h.25v.56982C205.00928,36.009,204.729,36.71851,204.01953,36.71851Z" transform="translate(-73 -29.45239)"/>
      <path class="cls-2" d="M214.76807,36.57886c-.37989,0-1.07959,0-1.43946.02978v-.31006c.27,0,.82959,0,.82959-.2998a.72135.72135,0,0,0-.02978-.13965l-.52979-1.5293h-2.46875l-.45947,1.30957a.65913.65913,0,0,0-.02.14991c0,.25976.24951.50927.74951.50927v.31006l-1.14941-.02978-1.01953.02978v-.31006a1.03794,1.03794,0,0,0,1.11914-.66943l2.06933-5.97656c.04981-.14014.07959-.2002.23975-.2002.15967,0,.17969.07032.23.2002l2.15869,6.24658c.10986.32959.25.39941.84961.39941h.17969v.31006Zm-2.40869-5.80713-1.11963,3.24853h2.249Z" transform="translate(-73 -29.45239)"/>
      <path class="cls-2" d="M222.5376,30.83179v5.51709c0,.18994,0,.25976-.13965.25976-.07031,0-.08008-.00976-.16992-.12988l-4.07764-5.99658a.58193.58193,0,0,0-.1001-.12012v5.19727c0,.26953,0,.73925,1.0293.73925v.31006l-1.16943-.02978-1.16944.02978v-.31006c1.02979,0,1.02979-.46972,1.02979-.73925V30.342c0-.18994-.01026-.19971-.23975-.23-.15039-.00977-.3501-.02-.5-.02h-.29v-.30957h1.69922c.18994,0,.2002.00977.29.12988l3.52783,5.187V30.83179c0-.27,0-.73975-1.02929-.73975v-.30957l1.16943.02979,1.16943-.02979V30.092C222.5376,30.092,222.5376,30.56177,222.5376,30.83179Z" transform="translate(-73 -29.45239)"/>
      <path class="cls-2" d="M227.919,36.60864h-3.65821v-.31006h.24024c.76953,0,.78955-.10986.78955-.46972V30.56177c0-.35938-.02-.46973-.78955-.46973h-.24024v-.30957H227.919a3.27938,3.27938,0,0,1,3.0581,3.46826A3.20953,3.20953,0,0,1,227.919,36.60864Zm1.53906-5.58691a2.15572,2.15572,0,0,0-1.81885-.92969h-.99951c-.46973,0-.48975.07031-.48975.3999v5.40723c0,.32959.02.39941.48975.39941h1.00928a2.19233,2.19233,0,0,0,1.77929-.84912,3.42827,3.42827,0,0,0,.54981-2.19873A3.86665,3.86665,0,0,0,229.458,31.02173Z" transform="translate(-73 -29.45239)"/>
      <path class="cls-2" d="M233.53955,36.71851a1.49158,1.49158,0,0,1-1.09912-.42969,2.25409,2.25409,0,0,0-.2002.23c-.18994.18994-.1997.19971-.24951.19971-.11035,0-.11035-.06983-.11035-.23975V35.15942c0-.17968,0-.25.13037-.25.09961,0,.10987.04.13965.16993.18994.84961.54981,1.41943,1.38916,1.41943.77979,0,1.1294-.3999,1.1294-.90967,0-.71973-.81934-.87939-1.03956-.91943a2.612,2.612,0,0,1-1.31884-.46,1.06433,1.06433,0,0,1-.43018-.84912c0-.56006.37988-1.2295,1.59912-1.2295a1.54142,1.54142,0,0,1,.93994.27979,1.349,1.349,0,0,0,.16993-.15967c.12988-.12012.1499-.12012.1997-.12012.10987,0,.10987.06983.10987.23975v1.00977c0,.18945,0,.23974-.12989.23974,0,0-.10986,0-.12011-.08984a1.10263,1.10263,0,0,0-1.16944-1.20948c-.85937,0-1.11914.40967-1.11914.75977,0,.57959.66944.70947,1.22949.81934a2.0382,2.0382,0,0,1,1.13916.47949,1.28961,1.28961,0,0,1,.41993.94971C235.14893,36.04907,234.689,36.71851,233.53955,36.71851Z" transform="translate(-73 -29.45239)"/>
    </g>
    <g>
      <path class="cls-2" d="M242.99,262.00586a1.90732,1.90732,0,0,1-2.06885-1.72852,2.20693,2.20693,0,0,1,1.439-1.83886,6.29928,6.29928,0,0,1-.72949-.54,1.59505,1.59505,0,0,1-.43995-1.09961,1.738,1.738,0,0,1,1.80909-1.668,1.65209,1.65209,0,0,1,1.7998,1.48828,1.85546,1.85546,0,0,1-1.21,1.54883,4.17719,4.17719,0,0,1,.98926.71094,1.805,1.805,0,0,1,.49023,1.22851A1.9928,1.9928,0,0,1,242.99,262.00586Zm.8291-2.6377-1.22851-.78027a1.96035,1.96035,0,0,0-1.16993,1.68945,1.507,1.507,0,0,0,1.57911,1.44922,1.43891,1.43891,0,0,0,1.56933-1.25976A1.33509,1.33509,0,0,0,243.81909,259.36816Zm-.8291-3.9873c-.71,0-1.35937.41894-1.35937,1.0293a.93047.93047,0,0,0,.499.80859l1.24023.7998a1.6951,1.6951,0,0,0,.98926-1.39941A1.30233,1.30233,0,0,0,242.99,255.38086Z" transform="translate(-73 -29.45239)"/>
      <path class="cls-2" d="M253.03882,261.78711h-3.708c0-.24023,0-.25977.11035-.37012l1.91895-2.13965a3.58035,3.58035,0,0,0,1.04883-2.208c0-.81934-.42969-1.62989-1.33887-1.62989a1.44245,1.44245,0,0,0-1.34863,1.01953.37915.37915,0,0,1,.1289-.00976.50629.50629,0,0,1,.53028.51953.52547.52547,0,1,1-1.04981-.0293A1.84669,1.84669,0,0,1,251.2,255.13086a1.96344,1.96344,0,0,1,2.11914,1.93848c0,.999-.59961,1.53906-2.15918,2.91894l-1.05957,1.0293h1.79883a3.245,3.245,0,0,0,.94922-.08008,3.29711,3.29711,0,0,0,.2207-.89062h.25Z" transform="translate(-73 -29.45239)"/>
      <path class="cls-2" d="M253.94116,259.918v-.58008h2.64844v.58008Z" transform="translate(-73 -29.45239)"/>
      <path class="cls-2" d="M258.59058,261.75684l-1.09961.03027v-.31055c.66992,0,.77929,0,.77929-.44922v-2.68945c0-.48926-.08984-.54883-.74023-.54883v-.31054l1.40039-.10938v3.668c0,.38965.03906.43945.69922.43945v.31055C259.28979,261.77734,258.94019,261.75684,258.59058,261.75684Zm-.05079-5.47754a.53994.53994,0,0,1-.52929-.5293.53344.53344,0,0,1,.53906-.5293.52935.52935,0,1,1-.00977,1.0586Z" transform="translate(-73 -29.45239)"/>
      <path class="cls-2" d="M264.1687,261.75684l-1.12891.03027v-.31055c.66993,0,.7793,0,.7793-.44922v-2.3291c0-.56933-.10937-1.10937-.74023-1.10937a1.45957,1.45957,0,0,0-1.34864,1.59863v1.83984c0,.44922.11036.44922.7793.44922v.31055l-1.11914-.03027-1.12988.03027v-.31055c.66992,0,.78027,0,.78027-.44922v-2.67871c0-.48925-.08008-.55957-.78027-.55957v-.31054l1.41015-.10938V258.418a1.57449,1.57449,0,0,1,1.47852-1.04883,1.33254,1.33254,0,0,1,1.0498.36914c.30957.36035.30957.66992.30957,1.5293v1.90918c.00977.2998.25977.2998.7793.2998v.31055Z" transform="translate(-73 -29.45239)"/>
      <path class="cls-2" d="M268.47925,261.89648a1.3533,1.3533,0,0,1-1.22852-.69921v1.76855c0,.4502.10938.4502.7793.4502v.30957l-1.12891-.03028-1.12011.03028V263.416c.66992,0,.78027,0,.78027-.4502v-4.67676c0-.44043-.07031-.5-.78027-.5v-.31054l1.43945-.10938v.66016a1.80012,1.80012,0,0,1,1.39941-.66016,2.1866,2.1866,0,0,1,2.08789,2.25879A2.25206,2.25206,0,0,1,268.47925,261.89648Zm.06054-4.27734a1.496,1.496,0,0,0-1.28906.79883v2.22949a.5219.5219,0,0,0,.13965.41895,1.2448,1.2448,0,0,0,1.04981.61035c.73925,0,1.43847-.83985,1.43847-2.04883C269.87866,258.49805,269.26929,257.61914,268.53979,257.61914Z" transform="translate(-73 -29.45239)"/>
      <path class="cls-2" d="M274.96948,261.89648v-.89941a1.36355,1.36355,0,0,1-1.28906.89941c-1.51953,0-1.51953-.90918-1.51953-1.68945v-1.498c0-.89062,0-.91992-.7793-.91992v-.31054l1.46875-.10938v3.31836c0,.51953.04.98926.87891.98926.73047,0,1.21-.67969,1.21-1.54981v-1.77832c0-.48925-.08008-.55957-.78027-.55957v-.31054l1.46972-.10938V260.917c0,.48926.08008.55957.78028.55957v.31055Z" transform="translate(-73 -29.45239)"/>
      <path class="cls-2" d="M278.95,261.89648a1.20853,1.20853,0,0,1-1.28906-1.3496v-2.75782h-.84961v-.2207c.97851-.03906,1.2793-1.10938,1.28906-1.92773h.25v1.83789h1.42871v.31054h-1.42871v2.77832c0,.16992,0,1.0791.66895,1.0791.37011,0,.66992-.3789.66992-1.11914v-.5498h.25v.56934C279.93921,261.1875,279.65894,261.89648,278.95,261.89648Z" transform="translate(-73 -29.45239)"/>
      <path class="cls-2" d="M289.698,261.75684c-.37988,0-1.08008,0-1.43946.03027v-.31055c.26954,0,.83008,0,.83008-.2998a.71452.71452,0,0,0-.03027-.13965l-.53027-1.5293h-2.46875l-.459,1.30957a.69248.69248,0,0,0-.01953.14942c0,.25976.249.50976.749.50976v.31055l-1.14941-.03027-1.01953.03027v-.31055a1.03862,1.03862,0,0,0,1.11914-.66992l2.06934-5.97656c.0498-.13965.0791-.19922.23925-.19922s.17969.07031.23047.19922l2.1582,6.24707c.11036.3291.25.39941.84961.39941h.17969v.31055Zm-2.40821-5.80762-1.12011,3.249h2.249Z" transform="translate(-73 -29.45239)"/>
      <path class="cls-2" d="M297.46753,256.00977v5.51757c0,.18946,0,.25977-.13965.25977-.07031,0-.08008-.00977-.16992-.13086l-4.07715-5.99609a.60231.60231,0,0,0-.10059-.12012v5.19726c0,.26954,0,.73926,1.0293.73926v.31055l-1.16894-.03027-1.16993.03027v-.31055c1.0293,0,1.0293-.46972,1.0293-.73926v-5.21777c0-.18945-.00976-.19922-.23926-.22949-.15039-.00977-.35058-.02051-.5-.02051h-.29v-.30859h1.69922c.18946,0,.2002.00976.29.1289l3.52832,5.1875v-4.26757c0-.26954,0-.74024-1.02929-.74024v-.30859l1.16894.02929,1.16895-.02929v.30859C297.46753,255.26953,297.46753,255.74023,297.46753,256.00977Z" transform="translate(-73 -29.45239)"/>
      <path class="cls-2" d="M302.84839,261.78711h-3.6582v-.31055h.24023c.76953,0,.79-.10937.79-.46972v-5.26661c0-.35937-.02051-.4707-.79-.4707h-.24023v-.30859h3.6582a3.2793,3.2793,0,0,1,3.05859,3.46777A3.21,3.21,0,0,1,302.84839,261.78711Zm1.53906-5.58789a2.15668,2.15668,0,0,0-1.81836-.92969h-1c-.46875,0-.48926.07031-.48926.40039v5.40723c0,.3291.02051.39941.48926.39941h1.00977a2.19239,2.19239,0,0,0,1.77929-.84961,3.42876,3.42876,0,0,0,.54981-2.19824A3.86757,3.86757,0,0,0,304.38745,256.19922Z" transform="translate(-73 -29.45239)"/>
      <path class="cls-2" d="M308.46948,261.89648a1.4925,1.4925,0,0,1-1.09961-.42968,1.95258,1.95258,0,0,0-.19922.23047c-.19043.18945-.20019.19921-.25.19921-.11035,0-.11035-.07031-.11035-.24023v-1.31836c0-.17969,0-.25.12989-.25.0996,0,.11035.03906.14062.16992.18945.84961.54883,1.41895,1.38867,1.41895.7793,0,1.12891-.39942,1.12891-.90918,0-.7207-.81836-.87988-1.03906-.91992a2.60525,2.60525,0,0,1-1.31836-.46,1.06252,1.06252,0,0,1-.43067-.84864c0-.56054.37989-1.23047,1.59864-1.23047a1.53988,1.53988,0,0,1,.94043.28028,1.38466,1.38466,0,0,0,.16992-.15918c.12988-.1211.14941-.1211.20019-.1211.10938,0,.10938.07032.10938.24024v1.00976c0,.18946,0,.24024-.12989.24024,0,0-.11035,0-.12011-.08985a1.10291,1.10291,0,0,0-1.16992-1.21c-.85938,0-1.11915.40918-1.11915.75977,0,.5791.66993.71,1.23047.81934a2.04311,2.04311,0,0,1,1.13868.47949,1.29,1.29,0,0,1,.41992.95019C310.07886,261.22656,309.6189,261.89648,308.46948,261.89648Z" transform="translate(-73 -29.45239)"/>
    </g>
  </g>
</svg>
