<?xml version="1.0" encoding="utf-8"?>
<!-- Generator: Adobe Illustrator 23.0.3, SVG Export Plug-In . SVG Version: 6.00 Build 0)  -->
<svg version="1.1" xmlns="http://www.w3.org/2000/svg" xmlns:xlink="http://www.w3.org/1999/xlink" x="0px" y="0px"
	 viewBox="0 0 320.27655 162.02657" style="enable-background:new 0 0 320.27655 162.02657;" xml:space="preserve">
<style type="text/css">
	.st0{fill:none;stroke:#8FF4DD;stroke-width:2;stroke-miterlimit:10;}
	.st1{fill:#8FF4DD;}
</style>
<g id="Layer_1">
	<g>
		<g>
			<rect x="241" y="31.87656" class="st0" width="45" height="25"/>
			<g>
				<g>
					<path class="st1" d="M260.49121,37.99058c-0.16748-1.69092-0.51563-2.32666-2.24268-2.32666h-1.49902
						c-0.52783,0-0.55176,0.08398-0.55176,0.47998v3.08203h1.05566c1.12695,0,1.24707-0.39551,1.24707-1.40283h0.26367v3.15381
						h-0.26367c0-1.00732-0.12012-1.40283-1.24707-1.40283h-1.05566v2.98633c0,0.43164,0.02393,0.57568,1.06738,0.57568h0.35986
						v0.34766c-0.34766-0.02393-1.40332-0.02393-1.82275-0.02393c-0.35986,0-1.42725,0-1.71533,0.02393V43.1361h0.23975
						c0.86377,0,0.89941-0.12012,0.89941-0.56396V36.2279c0-0.44385-0.03564-0.56396-0.89941-0.56396h-0.23975v-0.34766h6.35645
						l0.31201,2.67432h-0.26416V37.99058z"/>
					<path class="st1" d="M264.86084,43.60386v-1.07959c0,0-0.19189,0.45557-0.53955,0.73145
						c-0.4082,0.34814-0.79199,0.34814-0.99561,0.34814c-0.61182,0-1.10352-0.14404-1.39111-0.45605
						c-0.35986-0.39551-0.35986-0.82764-0.35986-1.5708v-1.79932c0-1.06738,0-1.10352-0.91162-1.10352v-0.34766l1.69092-0.13184
						v3.96973c0,0.63574,0.06006,1.19922,1.04346,1.19922c0.89941,0,1.43945-0.85156,1.43945-1.87061v-2.14697
						c0-0.58789-0.09619-0.67188-0.91162-0.67188V38.3265l1.69092-0.13184v4.26953c0,0.58789,0.09619,0.67188,0.91162,0.67188
						v0.34766L264.86084,43.60386z"/>
					<path class="st1" d="M268.48633,43.45982c-0.35986,0-0.94775,0-1.2832,0.02393v-0.34766c0.7793,0,0.91113,0,0.91113-0.54004
						v-6.28418c0-0.58789-0.0957-0.67188-0.91113-0.67188v-0.34766l1.66699-0.13184v7.43555
						c0,0.54004,0.14404,0.54004,0.91162,0.54004v0.34766C269.4458,43.45982,268.84619,43.45982,268.48633,43.45982z"/>
					<path class="st1" d="M271.75,43.45982c-0.35986,0-0.94775,0-1.2832,0.02393v-0.34766c0.7793,0,0.91113,0,0.91113-0.54004
						v-6.28418c0-0.58789-0.0957-0.67188-0.91113-0.67188v-0.34766l1.66699-0.13184v7.43555
						c0,0.54004,0.14404,0.54004,0.91162,0.54004v0.34766C272.70947,43.45982,272.10986,43.45982,271.75,43.45982z"/>
				</g>
				<g>
					<path class="st1" d="M253.83838,53.53257c-0.51563,0-0.88672-0.43164-0.93555-0.99561
						c-0.22754,0.57568-0.76758,1.05566-1.55859,1.05566c-0.73145,0-1.83496-0.2998-1.83496-1.24756
						c0-0.92334,0.91113-1.93066,3.32227-1.9668v-0.47998c0-1.0791-0.70801-1.53516-1.25977-1.53516
						c-0.47949,0-1.05566,0.21582-1.33105,0.71973c0.17969,0,0.61133,0,0.61133,0.4917c0,0.28809-0.20313,0.4917-0.49121,0.4917
						c-0.27637,0-0.50391-0.16797-0.50391-0.51563c0-0.7793,0.75586-1.42725,1.73926-1.42725
						c0.52734,0,1.06738,0.16797,1.4873,0.55176c0.52734,0.46777,0.52734,0.94727,0.52734,1.59521V52.369
						c0,0.18018,0,0.81543,0.45605,0.81543c0.16797,0,0.45508-0.0957,0.45508-0.7793v-0.67188h0.26465v0.67188
						C254.78662,53.3646,254.09033,53.53257,253.83838,53.53257z M252.83154,50.59409
						c-0.43164,0.02393-2.4707,0.16797-2.4707,1.75098c0,0.57568,0.49121,1.00732,1.0791,1.00732
						c0.51563,0,1.3916-0.39551,1.3916-1.5708V50.59409z"/>
					<path class="st1" d="M259.46631,53.59263v-0.82764c-0.16699,0.22803-0.69531,0.82764-1.60645,0.82764
						c-1.31934,0-2.45898-1.17578-2.45898-2.69873c0-1.53516,1.19922-2.71045,2.59082-2.71045
						c0.73145,0,1.24707,0.41992,1.49902,0.76758v-2.65039c0-0.58789-0.0957-0.67188-0.91113-0.67188V45.2811l1.66699-0.13184
						v7.30371c0,0.58789,0.0957,0.67188,0.91113,0.67188v0.34766L259.46631,53.59263z M259.46631,49.59849
						c0-0.21582,0-0.23975-0.14355-0.44336c-0.12012-0.19238-0.54004-0.73193-1.2832-0.73193
						c-0.59961,0-1.0791,0.37207-1.31934,0.74365c-0.26367,0.396-0.4082,0.87549-0.4082,1.73926
						c0,2.32666,1.2959,2.44629,1.60742,2.44629c0.59961,0,1.0918-0.34766,1.37988-0.76758
						c0.16699-0.26367,0.16699-0.2998,0.16699-0.51563V49.59849z"/>
					<path class="st1" d="M265.99463,53.59263v-0.82764c-0.16797,0.22803-0.69531,0.82764-1.60742,0.82764
						c-1.31934,0-2.45801-1.17578-2.45801-2.69873c0-1.53516,1.19922-2.71045,2.58984-2.71045
						c0.73242,0,1.24805,0.41992,1.5,0.76758v-2.65039c0-0.58789-0.09668-0.67188-0.91211-0.67188V45.2811l1.66699-0.13184v7.30371
						c0,0.58789,0.0957,0.67188,0.91211,0.67188v0.34766L265.99463,53.59263z M265.99463,49.59849
						c0-0.21582,0-0.23975-0.14355-0.44336c-0.12012-0.19238-0.54004-0.73193-1.28418-0.73193
						c-0.59961,0-1.0791,0.37207-1.31836,0.74365c-0.26465,0.396-0.4082,0.87549-0.4082,1.73926
						c0,2.32666,1.29492,2.44629,1.60742,2.44629c0.59961,0,1.09082-0.34766,1.37891-0.76758
						c0.16797-0.26367,0.16797-0.2998,0.16797-0.51563V49.59849z"/>
					<path class="st1" d="M270.95166,53.59263c-1.33203,0-2.55469-1.16357-2.55469-2.74658
						c0-1.4873,1.05469-2.72266,2.42285-2.72266c1.45117,0,2.09863,1.12744,2.09863,2.33887
						c0,0.22803-0.02441,0.22803-0.28809,0.22803h-3.32227v0.22754c0,2.0752,1.21094,2.41064,1.71484,2.41064
						s1.30762-0.27588,1.61914-1.2832c0.02441-0.06006,0.04785-0.12012,0.14453-0.12012c0.07129,0,0.13184,0.04834,0.13184,0.12012
						C272.91846,52.29722,272.37842,53.59263,270.95166,53.59263z M270.80713,48.36314c-0.33594,0-1.39063,0.21582-1.4873,2.09912
						h2.85449C272.1626,50.05454,272.09033,48.36314,270.80713,48.36314z"/>
					<path class="st1" d="M277.01123,49.35874c-0.19238,0-0.46777-0.13184-0.46777-0.47949c0-0.32422,0.19141-0.396,0.28809-0.44385
						c-0.04883-0.01221-0.07227-0.01221-0.16797-0.01221c-0.92383,0-1.40332,1.09131-1.40332,2.25488v1.88281
						c0,0.43213,0.02344,0.56396,0.89941,0.56396h0.23926v0.34766c-0.27539-0.02393-1.12695-0.02393-1.45117-0.02393
						c-0.35938,0-1.01855,0-1.35449,0.02393v-0.34766c0.7793,0,0.91113,0,0.91113-0.54004v-3.25
						c0-0.58789-0.0957-0.67188-0.91113-0.67188v-0.34766l1.60645-0.13184v1.33105h0.0127
						c0.07129-0.22754,0.41895-1.33105,1.43848-1.33105c0.51563,0,0.83984,0.33594,0.83984,0.6958
						C277.49072,49.20298,277.25049,49.35874,277.01123,49.35874z"/>
				</g>
			</g>
		</g>
		<line class="st0" x1="255" y1="31.37656" x2="255" y2="11.37656"/>
		<line class="st0" x1="272" y1="31.37656" x2="272" y2="11.37656"/>
		<g>
			<path class="st1" d="M269.28201,4.50937l1.95627-3.27812l0.31876,3.27812H269.28201z M268.08984,5.97031
				c-0.39688,0.66563-0.78436,0.80469-1.22186,0.83438c-0.11877,0.00937-0.20782,0.00937-0.20782,0.19843
				c0,0.05938,0.04843,0.10938,0.12811,0.10938c0.26877,0,0.57657-0.02969,0.85471-0.02969
				c0.32813,0,0.67499,0.02969,0.99374,0.02969c0.05939,0,0.1875,0,0.1875-0.18906c0-0.10938-0.08905-0.11875-0.15781-0.11875
				c-0.22815-0.02032-0.46719-0.1-0.46719-0.34844c0-0.11875,0.05939-0.22813,0.13907-0.36719l0.75467-1.27187h2.49377
				c0.02029,0.20937,0.15936,1.56093,0.15936,1.65937c0,0.29844-0.51718,0.32813-0.71564,0.32813
				c-0.13904,0-0.23904,0-0.23904,0.19843c0,0.10938,0.1203,0.10938,0.13907,0.10938c0.40781,0,0.83435-0.02969,1.24219-0.02969
				c0.24841,0,0.87341,0.02969,1.12186,0.02969c0.06094,0,0.17969,0,0.17969-0.19844c0-0.10937-0.10001-0.10937-0.22812-0.10937
				c-0.61719,0-0.61719-0.07032-0.64688-0.35782l-0.60468-6.20781C271.97421,0.03906,271.97421,0,271.80548,0
				c-0.15939,0-0.19846,0.06875-0.2594,0.16875L268.08984,5.97031z"/>
			<path class="st1" d="M275.70859,8.55625c-0.32343,0-0.75311-0.18906-0.89374-0.76563
				c-0.09845-0.41563-0.09845-0.99219-0.09845-1.5125c0-0.5125,0-1.04687,0.10626-1.43437
				c0.14685-0.55469,0.59686-0.70156,0.88593-0.70156c0.3797,0,0.74533,0.23125,0.87192,0.63906
				c0.11252,0.37969,0.11871,0.88594,0.11871,1.49687c0,0.52032,0,1.04063-0.09061,1.48438
				C276.46796,8.40156,275.98984,8.55625,275.70859,8.55625 M277.33981,6.37031c0-0.77344-0.09219-1.32969-0.41559-1.82187
				c-0.21719-0.32344-0.65314-0.60313-1.21564-0.60313c-1.63126,0-1.63126,1.91875-1.63126,2.425s0,2.38281,1.63126,2.38281
				C277.33981,8.75312,277.33981,6.87656,277.33981,6.37031z"/>
		</g>
		<g>
			<path class="st1" d="M251.86954,6.64063c-0.1391,0-0.15939,0-0.21881-0.00938c-0.09839-0.01094-0.12808-0.02031-0.12808-0.1
				c0-0.02969,0-0.05,0.04849-0.22812l0.68591-2.77188h1.87808c0.95309,0,1.14221,0.73438,1.14221,1.1625
				c0,0.98281-0.8844,1.94688-2.05621,1.94688L251.86954,6.64063 M252.31644,3.3125l0.6156-2.46406
				c0.09061-0.34688,0.10941-0.37656,0.53751-0.37656h1.28119c0.8735,0,1.08292,0.58593,1.08292,1.02343
				c0,0.87344-0.85471,1.81719-2.0672,1.81719H252.31644z M250.81644,6.17344c-0.09851,0.3875-0.1188,0.46719-0.9032,0.46719
				c-0.1687,0-0.26871,0-0.26871,0.19843c0,0.10938,0.08911,0.10938,0.26871,0.10938h3.54541
				c1.57028,0,2.7421-1.17188,2.7421-2.14531c0-0.71563-0.57651-1.29219-1.539-1.40157
				c1.03281-0.1875,2.07498-0.92343,2.07498-1.86718c0-0.73438-0.65469-1.37032-1.84689-1.37032h-3.33749
				c-0.18909,0-0.28909,0-0.28909,0.19844c0,0.10938,0.0907,0.10938,0.2782,0.10938c0.02029,0,0.20929,0,0.37808,0.02031
				c0.1781,0.01875,0.26871,0.02969,0.26871,0.15781c0,0.04063-0.01089,0.07031-0.04059,0.18906L250.81644,6.17344z"/>
			<path class="st1" d="M258.72424,8.39219c-0.32352,0-0.75311-0.18906-0.8938-0.76563
				c-0.09842-0.41563-0.09842-0.99219-0.09842-1.5125c0-0.5125,0-1.04687,0.1062-1.43437
				c0.14691-0.55469,0.59692-0.70156,0.88602-0.70156c0.3797,0,0.7453,0.23125,0.87189,0.63906
				c0.11252,0.37969,0.11871,0.88594,0.11871,1.49687c0,0.52032,0,1.04063-0.09061,1.48438
				C259.48364,8.2375,259.00543,8.39219,258.72424,8.39219 M260.35544,6.20625c0-0.77344-0.09219-1.32969-0.41559-1.82187
				c-0.21722-0.32344-0.65311-0.60313-1.21561-0.60313c-1.63132,0-1.63132,1.91875-1.63132,2.425s0,2.38281,1.63132,2.38281
				C260.35544,8.58906,260.35544,6.7125,260.35544,6.20625z"/>
		</g>
	</g>
	<g>
		<g>
			<rect x="172" y="31.87656" class="st0" width="45" height="25"/>
			<g>
				<g>
					<path class="st1" d="M191.49121,37.99058c-0.16748-1.69092-0.51563-2.32666-2.24268-2.32666h-1.49902
						c-0.52783,0-0.55176,0.08398-0.55176,0.47998v3.08203h1.05566c1.12695,0,1.24707-0.39551,1.24707-1.40283h0.26367v3.15381
						h-0.26367c0-1.00732-0.12012-1.40283-1.24707-1.40283h-1.05566v2.98633c0,0.43164,0.02393,0.57568,1.06738,0.57568h0.35986
						v0.34766c-0.34766-0.02393-1.40332-0.02393-1.82275-0.02393c-0.35986,0-1.42725,0-1.71533,0.02393V43.1361h0.23975
						c0.86377,0,0.89941-0.12012,0.89941-0.56396V36.2279c0-0.44385-0.03564-0.56396-0.89941-0.56396h-0.23975v-0.34766h6.35645
						l0.31201,2.67432h-0.26416V37.99058z"/>
					<path class="st1" d="M195.86084,43.60386v-1.07959c0,0-0.19189,0.45557-0.53955,0.73145
						c-0.4082,0.34814-0.79199,0.34814-0.99561,0.34814c-0.61182,0-1.10352-0.14404-1.39111-0.45605
						c-0.35986-0.39551-0.35986-0.82764-0.35986-1.5708v-1.79932c0-1.06738,0-1.10352-0.91162-1.10352v-0.34766l1.69092-0.13184
						v3.96973c0,0.63574,0.06006,1.19922,1.04346,1.19922c0.89941,0,1.43945-0.85156,1.43945-1.87061v-2.14697
						c0-0.58789-0.09619-0.67188-0.91162-0.67188V38.3265l1.69092-0.13184v4.26953c0,0.58789,0.09619,0.67188,0.91162,0.67188
						v0.34766L195.86084,43.60386z"/>
					<path class="st1" d="M199.48633,43.45982c-0.35986,0-0.94775,0-1.2832,0.02393v-0.34766c0.7793,0,0.91113,0,0.91113-0.54004
						v-6.28418c0-0.58789-0.0957-0.67188-0.91113-0.67188v-0.34766l1.66699-0.13184v7.43555
						c0,0.54004,0.14404,0.54004,0.91162,0.54004v0.34766C200.4458,43.45982,199.84619,43.45982,199.48633,43.45982z"/>
					<path class="st1" d="M202.75,43.45982c-0.35986,0-0.94775,0-1.2832,0.02393v-0.34766c0.7793,0,0.91113,0,0.91113-0.54004
						v-6.28418c0-0.58789-0.0957-0.67188-0.91113-0.67188v-0.34766l1.66699-0.13184v7.43555
						c0,0.54004,0.14404,0.54004,0.91162,0.54004v0.34766C203.70947,43.45982,203.10986,43.45982,202.75,43.45982z"/>
				</g>
				<g>
					<path class="st1" d="M184.83838,53.53257c-0.51563,0-0.88672-0.43164-0.93555-0.99561
						c-0.22754,0.57568-0.76758,1.05566-1.55859,1.05566c-0.73145,0-1.83496-0.2998-1.83496-1.24756
						c0-0.92334,0.91113-1.93066,3.32227-1.9668v-0.47998c0-1.0791-0.70801-1.53516-1.25977-1.53516
						c-0.47949,0-1.05566,0.21582-1.33105,0.71973c0.17969,0,0.61133,0,0.61133,0.4917c0,0.28809-0.20313,0.4917-0.49121,0.4917
						c-0.27637,0-0.50391-0.16797-0.50391-0.51563c0-0.7793,0.75586-1.42725,1.73926-1.42725
						c0.52734,0,1.06738,0.16797,1.4873,0.55176c0.52734,0.46777,0.52734,0.94727,0.52734,1.59521V52.369
						c0,0.18018,0,0.81543,0.45605,0.81543c0.16797,0,0.45508-0.0957,0.45508-0.7793v-0.67188h0.26465v0.67188
						C185.78662,53.3646,185.09033,53.53257,184.83838,53.53257z M183.83154,50.59409
						c-0.43164,0.02393-2.4707,0.16797-2.4707,1.75098c0,0.57568,0.49121,1.00732,1.0791,1.00732
						c0.51563,0,1.3916-0.39551,1.3916-1.5708V50.59409z"/>
					<path class="st1" d="M190.46631,53.59263v-0.82764c-0.16699,0.22803-0.69531,0.82764-1.60645,0.82764
						c-1.31934,0-2.45898-1.17578-2.45898-2.69873c0-1.53516,1.19922-2.71045,2.59082-2.71045
						c0.73145,0,1.24707,0.41992,1.49902,0.76758v-2.65039c0-0.58789-0.0957-0.67188-0.91113-0.67188V45.2811l1.66699-0.13184
						v7.30371c0,0.58789,0.0957,0.67188,0.91113,0.67188v0.34766L190.46631,53.59263z M190.46631,49.59849
						c0-0.21582,0-0.23975-0.14355-0.44336c-0.12012-0.19238-0.54004-0.73193-1.2832-0.73193
						c-0.59961,0-1.0791,0.37207-1.31934,0.74365c-0.26367,0.396-0.4082,0.87549-0.4082,1.73926
						c0,2.32666,1.2959,2.44629,1.60742,2.44629c0.59961,0,1.0918-0.34766,1.37988-0.76758
						c0.16699-0.26367,0.16699-0.2998,0.16699-0.51563V49.59849z"/>
					<path class="st1" d="M196.99463,53.59263v-0.82764c-0.16797,0.22803-0.69531,0.82764-1.60742,0.82764
						c-1.31934,0-2.45801-1.17578-2.45801-2.69873c0-1.53516,1.19922-2.71045,2.58984-2.71045
						c0.73242,0,1.24805,0.41992,1.5,0.76758v-2.65039c0-0.58789-0.09668-0.67188-0.91211-0.67188V45.2811l1.66699-0.13184v7.30371
						c0,0.58789,0.0957,0.67188,0.91211,0.67188v0.34766L196.99463,53.59263z M196.99463,49.59849
						c0-0.21582,0-0.23975-0.14355-0.44336c-0.12012-0.19238-0.54004-0.73193-1.28418-0.73193
						c-0.59961,0-1.0791,0.37207-1.31836,0.74365c-0.26465,0.396-0.4082,0.87549-0.4082,1.73926
						c0,2.32666,1.29492,2.44629,1.60742,2.44629c0.59961,0,1.09082-0.34766,1.37891-0.76758
						c0.16797-0.26367,0.16797-0.2998,0.16797-0.51563V49.59849z"/>
					<path class="st1" d="M201.95166,53.59263c-1.33203,0-2.55469-1.16357-2.55469-2.74658
						c0-1.4873,1.05469-2.72266,2.42285-2.72266c1.45117,0,2.09863,1.12744,2.09863,2.33887
						c0,0.22803-0.02441,0.22803-0.28809,0.22803h-3.32227v0.22754c0,2.0752,1.21094,2.41064,1.71484,2.41064
						s1.30762-0.27588,1.61914-1.2832c0.02441-0.06006,0.04785-0.12012,0.14453-0.12012c0.07129,0,0.13184,0.04834,0.13184,0.12012
						C203.91846,52.29722,203.37842,53.59263,201.95166,53.59263z M201.80713,48.36314c-0.33594,0-1.39063,0.21582-1.4873,2.09912
						h2.85449C203.1626,50.05454,203.09033,48.36314,201.80713,48.36314z"/>
					<path class="st1" d="M208.01123,49.35874c-0.19238,0-0.46777-0.13184-0.46777-0.47949c0-0.32422,0.19141-0.396,0.28809-0.44385
						c-0.04883-0.01221-0.07227-0.01221-0.16797-0.01221c-0.92383,0-1.40332,1.09131-1.40332,2.25488v1.88281
						c0,0.43213,0.02344,0.56396,0.89941,0.56396h0.23926v0.34766c-0.27539-0.02393-1.12695-0.02393-1.45117-0.02393
						c-0.35938,0-1.01855,0-1.35449,0.02393v-0.34766c0.7793,0,0.91113,0,0.91113-0.54004v-3.25
						c0-0.58789-0.0957-0.67188-0.91113-0.67188v-0.34766l1.60645-0.13184v1.33105h0.0127
						c0.07129-0.22754,0.41895-1.33105,1.43848-1.33105c0.51563,0,0.83984,0.33594,0.83984,0.6958
						C208.49072,49.20298,208.25049,49.35874,208.01123,49.35874z"/>
				</g>
			</g>
		</g>
		<line class="st0" x1="186" y1="31.37656" x2="186" y2="11.37656"/>
		<line class="st0" x1="203" y1="31.37656" x2="203" y2="11.37656"/>
		<g>
			<path class="st1" d="M200.43359,4.57968l1.95631-3.27812l0.3187,3.27812H200.43359z M199.24139,6.04062
				c-0.39679,0.66563-0.78429,0.80469-1.22179,0.83438c-0.1188,0.00937-0.2079,0.00937-0.2079,0.19843
				c0,0.05938,0.04849,0.10938,0.12819,0.10938c0.26871,0,0.57651-0.02969,0.85471-0.02969c0.32809,0,0.675,0.02969,0.9937,0.02969
				c0.0594,0,0.1875,0,0.1875-0.18906c0-0.10938-0.0891-0.11875-0.15781-0.11875c-0.22809-0.02032-0.46719-0.1-0.46719-0.34844
				c0-0.11875,0.0594-0.22813,0.1391-0.36719l0.7547-1.27187h2.4937c0.02031,0.20937,0.15941,1.56093,0.15941,1.65937
				c0,0.29844-0.51721,0.32813-0.71561,0.32813c-0.1391,0-0.23911,0-0.23911,0.19843c0,0.10938,0.1203,0.10938,0.13911,0.10938
				c0.40779,0,0.83429-0.02969,1.2421-0.02969c0.24849,0,0.87349,0.02969,1.1219,0.02969c0.06099,0,0.17969,0,0.17969-0.19844
				c0-0.10937-0.09999-0.10937-0.22809-0.10937c-0.6172,0-0.6172-0.07032-0.64691-0.35782l-0.60469-6.20781
				c-0.02031-0.2-0.02031-0.23906-0.189-0.23906c-0.15941,0-0.1985,0.06875-0.25941,0.16875L199.24139,6.04062z"/>
			<path class="st1" d="M207.218,4.2125c0-0.19063-0.0141-0.19688-0.21091-0.19688c-0.45,0.44219-1.0891,0.44844-1.37819,0.44844
				v0.25312c0.16879,0,0.6328,0,1.02029-0.19687v3.58594c0,0.23281,0,0.32344-0.70309,0.32344h-0.26721v0.25312
				c0.1266-0.00625,0.99071-0.02812,1.2516-0.02812c0.21721,0,1.1031,0.02188,1.2578,0.02812V8.42969h-0.2672
				c-0.70309,0-0.70309-0.09063-0.70309-0.32344V4.2125"/>
		</g>
		<g>
			<path class="st1" d="M183.0211,6.71094c-0.1391,0-0.15941,0-0.2188-0.00938c-0.0984-0.01094-0.12811-0.02031-0.12811-0.1
				c0-0.02969,0-0.05,0.04851-0.22812l0.6859-2.77188h1.8781c0.95311,0,1.1422,0.73438,1.1422,1.1625
				c0,0.98281-0.8844,1.94688-2.0562,1.94688L183.0211,6.71094 M183.468,3.38281l0.6156-2.46406
				c0.09059-0.34688,0.10939-0.37656,0.53749-0.37656h1.2812c0.8735,0,1.0829,0.58593,1.0829,1.02343
				c0,0.87344-0.85471,1.81719-2.0672,1.81719H183.468z M181.968,6.24375c-0.0985,0.3875-0.1188,0.46719-0.9032,0.46719
				c-0.1687,0-0.26871,0-0.26871,0.19843c0,0.10938,0.0891,0.10938,0.26871,0.10938h3.54539c1.5703,0,2.7421-1.17188,2.7421-2.14531
				c0-0.71563-0.57649-1.29219-1.539-1.40157c1.03281-0.1875,2.07501-0.92343,2.07501-1.86718
				c0-0.73438-0.65471-1.37032-1.84691-1.37032h-3.33749c-0.1891,0-0.28911,0-0.28911,0.19844
				c0,0.10938,0.0907,0.10938,0.2782,0.10938c0.02031,0,0.2093,0,0.37811,0.02031c0.1781,0.01875,0.26869,0.02969,0.26869,0.15781
				c0,0.04063-0.01089,0.07031-0.0406,0.18906L181.968,6.24375z"/>
			<path class="st1" d="M190.2336,4.04844c0-0.19063-0.0141-0.19688-0.21089-0.19688C189.57269,4.29375,188.93359,4.3,188.6445,4.3
				v0.25312c0.16879,0,0.6328,0,1.02029-0.19687v3.58594c0,0.23281,0,0.32344-0.70309,0.32344h-0.2672v0.25312
				c0.1266-0.00625,0.99069-0.02812,1.2516-0.02812c0.21719,0,1.10309,0.02188,1.2578,0.02812V8.26563h-0.2672
				c-0.70311,0-0.70311-0.09063-0.70311-0.32344V4.04844"/>
		</g>
	</g>
	<g>
		<g>
			<rect x="103" y="31.87656" class="st0" width="45.00001" height="25"/>
			<g>
				<g>
					<path class="st1" d="M122.4912,37.99058c-0.16748-1.69092-0.51563-2.32666-2.24268-2.32666h-1.49902
						c-0.52783,0-0.55176,0.08398-0.55176,0.47998v3.08203h1.05566c1.12695,0,1.24707-0.39551,1.24707-1.40283h0.26367v3.15381
						h-0.26367c0-1.00732-0.12012-1.40283-1.24707-1.40283h-1.05566v2.98633c0,0.43164,0.02393,0.57568,1.06738,0.57568h0.35986
						v0.34766c-0.34766-0.02393-1.40332-0.02393-1.82275-0.02393c-0.35986,0-1.42725,0-1.71533,0.02393V43.1361h0.23975
						c0.86377,0,0.89941-0.12012,0.89941-0.56396V36.2279c0-0.44385-0.03564-0.56396-0.89941-0.56396h-0.23975v-0.34766h6.35645
						l0.31201,2.67432h-0.26417V37.99058z"/>
					<path class="st1" d="M126.86083,43.60386v-1.07959c0,0-0.19189,0.45557-0.53955,0.73145
						c-0.4082,0.34814-0.79199,0.34814-0.99561,0.34814c-0.61182,0-1.10352-0.14404-1.39111-0.45605
						c-0.35986-0.39551-0.35986-0.82764-0.35986-1.5708v-1.79932c0-1.06738,0-1.10352-0.91162-1.10352v-0.34766l1.69092-0.13184
						v3.96973c0,0.63574,0.06006,1.19922,1.04346,1.19922c0.89941,0,1.43945-0.85156,1.43945-1.87061v-2.14697
						c0-0.58789-0.09619-0.67188-0.91162-0.67188V38.3265l1.69092-0.13184v4.26953c0,0.58789,0.09619,0.67188,0.91163,0.67188
						v0.34766L126.86083,43.60386z"/>
					<path class="st1" d="M130.48633,43.45982c-0.35986,0-0.94775,0-1.2832,0.02393v-0.34766c0.7793,0,0.91113,0,0.91113-0.54004
						v-6.28418c0-0.58789-0.0957-0.67188-0.91113-0.67188v-0.34766l1.66699-0.13184v7.43555
						c0,0.54004,0.14404,0.54004,0.91162,0.54004v0.34766C131.4458,43.45982,130.84619,43.45982,130.48633,43.45982z"/>
					<path class="st1" d="M133.75,43.45982c-0.35986,0-0.94775,0-1.2832,0.02393v-0.34766c0.7793,0,0.91113,0,0.91113-0.54004
						v-6.28418c0-0.58789-0.0957-0.67188-0.91113-0.67188v-0.34766l1.66699-0.13184v7.43555
						c0,0.54004,0.14404,0.54004,0.91162,0.54004v0.34766C134.70947,43.45982,134.10986,43.45982,133.75,43.45982z"/>
				</g>
				<g>
					<path class="st1" d="M115.83836,53.53257c-0.51563,0-0.88672-0.43164-0.93555-0.99561
						c-0.22754,0.57568-0.76758,1.05566-1.55859,1.05566c-0.73145,0-1.83496-0.2998-1.83496-1.24756
						c0-0.92334,0.91113-1.93066,3.32227-1.9668v-0.47998c0-1.0791-0.70801-1.53516-1.25977-1.53516
						c-0.47949,0-1.05566,0.21582-1.33105,0.71973c0.17969,0,0.61133,0,0.61133,0.4917c0,0.28809-0.20313,0.4917-0.49121,0.4917
						c-0.27637,0-0.50391-0.16797-0.50391-0.51563c0-0.7793,0.75586-1.42725,1.73926-1.42725
						c0.52734,0,1.06738,0.16797,1.4873,0.55176c0.52734,0.46777,0.52734,0.94727,0.52734,1.59521V52.369
						c0,0.18018,0,0.81543,0.45605,0.81543c0.16797,0,0.45508-0.0957,0.45508-0.7793v-0.67188h0.26465v0.67188
						C116.78661,53.3646,116.09032,53.53257,115.83836,53.53257z M114.83154,50.59409
						c-0.43164,0.02393-2.4707,0.16797-2.4707,1.75098c0,0.57568,0.49121,1.00732,1.0791,1.00732
						c0.51563,0,1.3916-0.39551,1.3916-1.5708V50.59409z"/>
					<path class="st1" d="M121.46629,53.59263v-0.82764c-0.16699,0.22803-0.69531,0.82764-1.60645,0.82764
						c-1.31934,0-2.45898-1.17578-2.45898-2.69873c0-1.53516,1.19922-2.71045,2.59082-2.71045
						c0.73145,0,1.24707,0.41992,1.49902,0.76758v-2.65039c0-0.58789-0.0957-0.67188-0.91113-0.67188V45.2811l1.66699-0.13184
						v7.30371c0,0.58789,0.0957,0.67188,0.91113,0.67188v0.34766L121.46629,53.59263z M121.46629,49.59849
						c0-0.21582,0-0.23975-0.14355-0.44336c-0.12012-0.19238-0.54004-0.73193-1.2832-0.73193
						c-0.59961,0-1.0791,0.37207-1.31934,0.74365c-0.26367,0.396-0.4082,0.87549-0.4082,1.73926
						c0,2.32666,1.2959,2.44629,1.60742,2.44629c0.59961,0,1.0918-0.34766,1.37988-0.76758
						c0.16699-0.26367,0.16699-0.2998,0.16699-0.51563V49.59849z"/>
					<path class="st1" d="M127.99462,53.59263v-0.82764c-0.16797,0.22803-0.69531,0.82764-1.60742,0.82764
						c-1.31934,0-2.45801-1.17578-2.45801-2.69873c0-1.53516,1.19922-2.71045,2.58984-2.71045
						c0.73242,0,1.24805,0.41992,1.50001,0.76758v-2.65039c0-0.58789-0.09669-0.67188-0.91212-0.67188V45.2811l1.667-0.13184
						v7.30371c0,0.58789,0.0957,0.67188,0.91211,0.67188v0.34766L127.99462,53.59263z M127.99462,49.59849
						c0-0.21582,0-0.23975-0.14355-0.44336c-0.12012-0.19238-0.54004-0.73193-1.28418-0.73193
						c-0.59961,0-1.0791,0.37207-1.31836,0.74365c-0.26465,0.396-0.4082,0.87549-0.4082,1.73926
						c0,2.32666,1.29492,2.44629,1.60742,2.44629c0.59961,0,1.09082-0.34766,1.37891-0.76758
						c0.16797-0.26367,0.16797-0.2998,0.16797-0.51563V49.59849z"/>
					<path class="st1" d="M132.95166,53.59263c-1.33203,0-2.55469-1.16357-2.55469-2.74658
						c0-1.4873,1.05469-2.72266,2.42285-2.72266c1.45117,0,2.09863,1.12744,2.09863,2.33887
						c0,0.22803-0.02441,0.22803-0.28809,0.22803h-3.32227v0.22754c0,2.0752,1.21094,2.41064,1.71484,2.41064
						s1.30762-0.27588,1.61914-1.2832c0.02441-0.06006,0.04785-0.12012,0.14453-0.12012c0.07129,0,0.13184,0.04834,0.13184,0.12012
						C134.91846,52.29722,134.37842,53.59263,132.95166,53.59263z M132.80713,48.36314c-0.33594,0-1.39063,0.21582-1.4873,2.09912
						h2.85449C134.1626,50.05454,134.09033,48.36314,132.80713,48.36314z"/>
					<path class="st1" d="M139.01123,49.35874c-0.19238,0-0.46777-0.13184-0.46777-0.47949c0-0.32422,0.19141-0.396,0.28809-0.44385
						c-0.04883-0.01221-0.07227-0.01221-0.16797-0.01221c-0.92383,0-1.40332,1.09131-1.40332,2.25488v1.88281
						c0,0.43213,0.02344,0.56396,0.89941,0.56396h0.23926v0.34766c-0.27539-0.02393-1.12695-0.02393-1.45117-0.02393
						c-0.35938,0-1.01855,0-1.35449,0.02393v-0.34766c0.7793,0,0.91113,0,0.91113-0.54004v-3.25
						c0-0.58789-0.0957-0.67188-0.91113-0.67188v-0.34766l1.60645-0.13184v1.33105h0.0127
						c0.07129-0.22754,0.41895-1.33105,1.43848-1.33105c0.51563,0,0.83984,0.33594,0.83984,0.6958
						C139.49072,49.20298,139.25049,49.35874,139.01123,49.35874z"/>
				</g>
			</g>
		</g>
		<line class="st0" x1="117" y1="31.37656" x2="117" y2="11.37656"/>
		<line class="st0" x1="134" y1="31.37656" x2="134" y2="11.37656"/>
		<g>
			<path class="st1" d="M131.32111,4.57968l1.9563-3.27812l0.3187,3.27812H131.32111z M130.12891,6.04062
				c-0.39682,0.66563-0.7843,0.80469-1.2218,0.83438c-0.1188,0.00937-0.20792,0.00937-0.20792,0.19843
				c0,0.05938,0.04849,0.10938,0.1282,0.10938c0.26871,0,0.57651-0.02969,0.85471-0.02969
				c0.32809,0,0.67499,0.02969,0.99368,0.02969c0.05942,0,0.1875,0,0.1875-0.18906c0-0.10938-0.08908-0.11875-0.15778-0.11875
				c-0.22812-0.02032-0.46722-0.1-0.46722-0.34844c0-0.11875,0.05942-0.22813,0.1391-0.36719l0.7547-1.27187h2.49371
				c0.02029,0.20937,0.15939,1.56093,0.15939,1.65937c0,0.29844-0.51718,0.32813-0.71561,0.32813
				c-0.1391,0-0.23907,0-0.23907,0.19843c0,0.10938,0.1203,0.10938,0.1391,0.10938c0.40778,0,0.83429-0.02969,1.2421-0.02969
				c0.2485,0,0.8735,0.02969,1.12189,0.02969c0.061,0,0.17972,0,0.17972-0.19844c0-0.10937-0.10001-0.10937-0.22812-0.10937
				c-0.61719,0-0.61719-0.07032-0.64688-0.35782l-0.60471-6.20781c-0.02029-0.2-0.02029-0.23906-0.189-0.23906
				c-0.15942,0-0.19852,0.06875-0.2594,0.16875L130.12891,6.04062z"/>
			<path class="st1" d="M139.30078,7.40312h-0.23907c-0.02032,0.15469-0.09061,0.57031-0.1828,0.64063
				c-0.05621,0.04219-0.5968,0.04219-0.69531,0.04219h-1.2937c0.73749-0.65469,0.98431-0.85157,1.40619-1.18126
				c0.52032-0.41562,1.0047-0.85156,1.0047-1.51875c0-0.85156-0.7453-1.37031-1.64529-1.37031
				c-0.87189,0-1.46249,0.61094-1.46249,1.25781c0,0.35782,0.3031,0.39375,0.37341,0.39375
				c0.16879,0,0.37189-0.12031,0.37189-0.37343c0-0.12657-0.0484-0.37188-0.41409-0.37188
				c0.21719-0.5,0.6954-0.65469,1.02658-0.65469c0.70313,0,1.06882,0.54844,1.06882,1.11875c0,0.61094-0.436,1.09688-0.66101,1.35
				l-1.69528,1.67344c-0.07031,0.0625-0.07031,0.07656-0.07031,0.27344h2.89691L139.30078,7.40312"/>
		</g>
		<g>
			<path class="st1" d="M113.9086,6.71094c-0.1391,0-0.1594,0-0.2188-0.00938c-0.0984-0.01094-0.12811-0.02031-0.12811-0.1
				c0-0.02969,0-0.05,0.0485-0.22812l0.68591-2.77188h1.8781c0.9531,0,1.1422,0.73438,1.1422,1.1625
				c0,0.98281-0.8844,1.94688-2.0562,1.94688L113.9086,6.71094 M114.35548,3.38281l0.6156-2.46406
				c0.0906-0.34688,0.1094-0.37656,0.5375-0.37656h1.2812c0.8735,0,1.0829,0.58593,1.0829,1.02343
				c0,0.87344-0.85471,1.81719-2.0672,1.81719H114.35548z M112.85548,6.24375c-0.0985,0.3875-0.1188,0.46719-0.9032,0.46719
				c-0.1687,0-0.2687,0-0.2687,0.19843c0,0.10938,0.0891,0.10938,0.2687,0.10938h3.5454c1.5703,0,2.7421-1.17188,2.7421-2.14531
				c0-0.71563-0.5765-1.29219-1.539-1.40157c1.03281-0.1875,2.075-0.92343,2.075-1.86718c0-0.73438-0.6547-1.37032-1.8469-1.37032
				h-3.3375c-0.18909,0-0.2891,0-0.2891,0.19844c0,0.10938,0.0907,0.10938,0.2782,0.10938c0.0203,0,0.2093,0,0.37811,0.02031
				c0.1781,0.01875,0.2687,0.02969,0.2687,0.15781c0,0.04063-0.0109,0.07031-0.0406,0.18906L112.85548,6.24375z"/>
			<path class="st1" d="M122.31638,7.23906h-0.2391c-0.0203,0.15469-0.0906,0.57031-0.1828,0.64063
				c-0.0562,0.04219-0.5968,0.04219-0.6953,0.04219h-1.2937c0.7375-0.65469,0.9843-0.85156,1.4062-1.18125
				c0.5203-0.41562,1.0047-0.85156,1.0047-1.51875c0-0.85156-0.7453-1.37031-1.64529-1.37031
				c-0.8719,0-1.4625,0.61094-1.4625,1.25781c0,0.35782,0.3031,0.39375,0.3734,0.39375c0.1688,0,0.3719-0.12031,0.3719-0.37343
				c0-0.12657-0.0484-0.37188-0.4141-0.37188c0.2172-0.5,0.6954-0.65469,1.0266-0.65469c0.7031,0,1.0688,0.54844,1.0688,1.11875
				c0,0.61094-0.436,1.09688-0.661,1.35l-1.6953,1.67344c-0.0703,0.0625-0.0703,0.07656-0.0703,0.27344h2.8969L122.31638,7.23906"/>
		</g>
	</g>
	<g>
		<g>
			<rect x="34" y="31.87656" class="st0" width="45" height="25"/>
			<g>
				<g>
					<path class="st1" d="M53.49121,37.99058c-0.16748-1.69092-0.51563-2.32666-2.24268-2.32666h-1.49902
						c-0.52783,0-0.55176,0.08398-0.55176,0.47998v3.08203h1.05566c1.12695,0,1.24707-0.39551,1.24707-1.40283h0.26367v3.15381
						h-0.26367c0-1.00732-0.12012-1.40283-1.24707-1.40283h-1.05566v2.98633c0,0.43164,0.02393,0.57568,1.06738,0.57568H50.625
						v0.34766c-0.34766-0.02393-1.40332-0.02393-1.82275-0.02393c-0.35986,0-1.42725,0-1.71533,0.02393V43.1361h0.23975
						c0.86377,0,0.89941-0.12012,0.89941-0.56396V36.2279c0-0.44385-0.03564-0.56396-0.89941-0.56396h-0.23975v-0.34766h6.35645
						l0.31201,2.67432h-0.26417V37.99058z"/>
					<path class="st1" d="M57.86084,43.60386v-1.07959c0,0-0.19189,0.45557-0.53955,0.73145
						c-0.4082,0.34814-0.79199,0.34814-0.99561,0.34814c-0.61182,0-1.10352-0.14404-1.39111-0.45605
						c-0.35986-0.39551-0.35986-0.82764-0.35986-1.5708v-1.79932c0-1.06738,0-1.10352-0.91162-1.10352v-0.34766l1.69092-0.13184
						v3.96973c0,0.63574,0.06006,1.19922,1.04346,1.19922c0.89941,0,1.43945-0.85156,1.43945-1.87061v-2.14697
						c0-0.58789-0.09619-0.67188-0.91162-0.67188V38.3265l1.69092-0.13184v4.26953c0,0.58789,0.09619,0.67188,0.91162,0.67188
						v0.34766L57.86084,43.60386z"/>
					<path class="st1" d="M61.48632,43.45982c-0.35986,0-0.94775,0-1.2832,0.02393v-0.34766c0.7793,0,0.91113,0,0.91113-0.54004
						v-6.28418c0-0.58789-0.0957-0.67188-0.91113-0.67188v-0.34766l1.66699-0.13184v7.43555
						c0,0.54004,0.14404,0.54004,0.91162,0.54004v0.34766C62.4458,43.45982,61.8462,43.45982,61.48632,43.45982z"/>
					<path class="st1" d="M64.75,43.45982c-0.35986,0-0.94775,0-1.2832,0.02393v-0.34766c0.7793,0,0.91113,0,0.91113-0.54004
						v-6.28418c0-0.58789-0.0957-0.67188-0.91113-0.67188v-0.34766l1.66698-0.13184v7.43555
						c0,0.54004,0.14404,0.54004,0.91162,0.54004v0.34766C65.70947,43.45982,65.10986,43.45982,64.75,43.45982z"/>
				</g>
				<g>
					<path class="st1" d="M46.83838,53.53257c-0.51563,0-0.88672-0.43164-0.93555-0.99561
						c-0.22754,0.57568-0.76758,1.05566-1.55859,1.05566c-0.73145,0-1.83496-0.2998-1.83496-1.24756
						c0-0.92334,0.91113-1.93066,3.32227-1.9668v-0.47998c0-1.0791-0.70801-1.53516-1.25977-1.53516
						c-0.47949,0-1.05566,0.21582-1.33105,0.71973c0.17969,0,0.61133,0,0.61133,0.4917c0,0.28809-0.20313,0.4917-0.49121,0.4917
						c-0.27637,0-0.50391-0.16797-0.50391-0.51563c0-0.7793,0.75586-1.42725,1.73926-1.42725
						c0.52734,0,1.06738,0.16797,1.4873,0.55176c0.52734,0.46777,0.52734,0.94727,0.52734,1.59521V52.369
						c0,0.18018,0,0.81543,0.45605,0.81543c0.16797,0,0.45508-0.0957,0.45508-0.7793v-0.67188h0.26465v0.67188
						C47.78662,53.3646,47.09034,53.53257,46.83838,53.53257z M45.83154,50.59409c-0.43164,0.02393-2.4707,0.16797-2.4707,1.75098
						c0,0.57568,0.49121,1.00732,1.0791,1.00732c0.51563,0,1.3916-0.39551,1.3916-1.5708
						C45.83154,51.78159,45.83154,50.59409,45.83154,50.59409z"/>
					<path class="st1" d="M52.4663,53.59263v-0.82764c-0.16699,0.22803-0.69531,0.82764-1.60645,0.82764
						c-1.31934,0-2.45898-1.17578-2.45898-2.69873c0-1.53516,1.19922-2.71045,2.59082-2.71045
						c0.73145,0,1.24707,0.41992,1.49902,0.76758v-2.65039c0-0.58789-0.0957-0.67188-0.91113-0.67188V45.2811l1.66699-0.13184
						v7.30371c0,0.58789,0.0957,0.67188,0.91113,0.67188v0.34766L52.4663,53.59263z M52.4663,49.59849
						c0-0.21582,0-0.23975-0.14355-0.44336c-0.12012-0.19238-0.54004-0.73193-1.2832-0.73193
						c-0.59961,0-1.0791,0.37207-1.31934,0.74365c-0.26367,0.396-0.4082,0.87549-0.4082,1.73926
						c0,2.32666,1.2959,2.44629,1.60742,2.44629c0.59961,0,1.0918-0.34766,1.37988-0.76758
						c0.16699-0.26367,0.16699-0.2998,0.16699-0.51563C52.4663,52.06919,52.4663,49.59849,52.4663,49.59849z"/>
					<path class="st1" d="M58.99463,53.59263v-0.82764c-0.16797,0.22803-0.69531,0.82764-1.60742,0.82764
						c-1.31934,0-2.45801-1.17578-2.45801-2.69873c0-1.53516,1.19922-2.71045,2.58984-2.71045
						c0.73242,0,1.24805,0.41992,1.5,0.76758v-2.65039c0-0.58789-0.09668-0.67188-0.91211-0.67188V45.2811l1.66699-0.13184v7.30371
						c0,0.58789,0.0957,0.67188,0.91211,0.67188v0.34766L58.99463,53.59263z M58.99463,49.59849
						c0-0.21582,0-0.23975-0.14355-0.44336c-0.12012-0.19238-0.54004-0.73193-1.28418-0.73193
						c-0.59961,0-1.0791,0.37207-1.31836,0.74365c-0.26465,0.396-0.4082,0.87549-0.4082,1.73926
						c0,2.32666,1.29492,2.44629,1.60742,2.44629c0.59961,0,1.09082-0.34766,1.37891-0.76758
						c0.16797-0.26367,0.16797-0.2998,0.16797-0.51563C58.99463,52.06919,58.99463,49.59849,58.99463,49.59849z"/>
					<path class="st1" d="M63.95166,53.59263c-1.33203,0-2.55469-1.16357-2.55469-2.74658c0-1.4873,1.05469-2.72266,2.42285-2.72266
						c1.45117,0,2.09863,1.12744,2.09863,2.33887c0,0.22803-0.02441,0.22803-0.28809,0.22803h-3.32226v0.22754
						c0,2.0752,1.21094,2.41064,1.71484,2.41064c0.50389,0,1.30762-0.27588,1.61913-1.2832
						c0.02441-0.06006,0.04785-0.12012,0.14453-0.12012c0.07129,0,0.13184,0.04834,0.13184,0.12012
						C65.91846,52.29722,65.37842,53.59263,63.95166,53.59263z M63.80713,48.36314c-0.33594,0-1.39063,0.21582-1.4873,2.09912
						h2.85449C65.1626,50.05454,65.09033,48.36314,63.80713,48.36314z"/>
					<path class="st1" d="M70.01124,49.35874c-0.19238,0-0.46777-0.13184-0.46777-0.47949c0-0.32422,0.19141-0.396,0.28809-0.44385
						c-0.04883-0.01221-0.07227-0.01221-0.16797-0.01221c-0.92383,0-1.40332,1.09131-1.40332,2.25488v1.88281
						c0,0.43213,0.02344,0.56396,0.89941,0.56396h0.23926v0.34766c-0.27539-0.02393-1.12695-0.02393-1.45117-0.02393
						c-0.35938,0-1.01855,0-1.35449,0.02393v-0.34766c0.7793,0,0.91113,0,0.91113-0.54004v-3.25
						c0-0.58789-0.0957-0.67188-0.91113-0.67188v-0.34766l1.60645-0.13184v1.33105h0.0127
						c0.07129-0.22754,0.41895-1.33105,1.43848-1.33105c0.51563,0,0.83984,0.33594,0.83984,0.6958
						C70.49072,49.20298,70.25049,49.35874,70.01124,49.35874z"/>
				</g>
			</g>
		</g>
		<line class="st0" x1="48" y1="31.37656" x2="48" y2="11.37656"/>
		<line class="st0" x1="65" y1="31.37656" x2="65" y2="11.37656"/>
		<g>
			<path class="st1" d="M62.28904,4.50937l1.9563-3.27812l0.3187,3.27812H62.28904z M61.09684,5.97031
				c-0.3968,0.66563-0.7843,0.80469-1.2218,0.83438c-0.1188,0.00937-0.20789,0.00937-0.20789,0.19843
				c0,0.05938,0.0485,0.10938,0.1282,0.10938c0.2687,0,0.5765-0.02969,0.8547-0.02969c0.3281,0,0.675,0.02969,0.99371,0.02969
				c0.05939,0,0.1875,0,0.1875-0.18906c0-0.10938-0.0891-0.11875-0.15781-0.11875c-0.2281-0.02032-0.46719-0.1-0.46719-0.34844
				c0-0.11875,0.05939-0.22813,0.1391-0.36719l0.7547-1.27187h2.4937c0.0203,0.20937,0.1594,1.56093,0.1594,1.65937
				c0,0.29844-0.5172,0.32813-0.7156,0.32813c-0.1391,0-0.23911,0-0.23911,0.19843c0,0.10938,0.1203,0.10938,0.1391,0.10938
				c0.40781,0,0.8343-0.02969,1.2421-0.02969c0.2485,0,0.8735,0.02969,1.1219,0.02969c0.061,0,0.1797,0,0.1797-0.19844
				c0-0.10937-0.1-0.10937-0.2281-0.10937c-0.6172,0-0.6172-0.07032-0.6469-0.35782l-0.6047-6.20781
				C64.98125,0.03906,64.98125,0,64.81255,0c-0.15939,0-0.19849,0.06875-0.2594,0.16875L61.09684,5.97031z"/>
			<path class="st1" d="M68.63756,6.26406c0.5484,0,0.9421,0.37969,0.9421,1.13281c0,0.87188-0.5062,1.13126-0.914,1.13126
				c-0.2813,0-0.9-0.07656-1.1953-0.49219c0.3312-0.01406,0.4078-0.24531,0.4078-0.39375c0-0.225-0.1688-0.38594-0.386-0.38594
				c-0.1968,0-0.3937,0.11875-0.3937,0.40781c0,0.66094,0.7312,1.08906,1.5812,1.08906c0.9782,0,1.6532-0.65312,1.6532-1.35625
				c0-0.54843-0.45-1.09687-1.2235-1.25937c0.7375-0.26719,1.0047-0.79375,1.0047-1.22344c0-0.55469-0.639-0.96875-1.4203-0.96875
				c-0.7797,0-1.3781,0.37813-1.3781,0.94063c0,0.23906,0.1547,0.37343,0.3656,0.37343c0.2188,0,0.3594-0.1625,0.3594-0.35937
				c0-0.20313-0.1406-0.35156-0.3594-0.36563c0.24689-0.30937,0.7313-0.38593,0.9922-0.38593
				c0.31561,0,0.7594,0.15468,0.7594,0.76562c0,0.29531-0.0985,0.61875-0.2813,0.8375
				c-0.2328,0.26719-0.4297,0.28125-0.7812,0.30156c-0.175,0.01407-0.18909,0.01407-0.225,0.02188
				c-0.0141,0-0.0703,0.01406-0.0703,0.09062c0,0.09844,0.064,0.09844,0.1828,0.09844L68.63756,6.26406"/>
		</g>
		<g>
			<path class="st1" d="M44.87654,6.64063c-0.1391,0-0.1594,0-0.2188-0.00938c-0.0984-0.01094-0.12811-0.02031-0.12811-0.1
				c0-0.02969,0-0.05,0.0485-0.22812l0.68591-2.77188h1.8781c0.9531,0,1.1422,0.73438,1.1422,1.1625
				c0,0.98281-0.8844,1.94688-2.0562,1.94688L44.87654,6.64063 M45.32344,3.3125l0.6156-2.46406
				c0.0906-0.34688,0.1094-0.37656,0.5375-0.37656h1.2812c0.8735,0,1.0829,0.58593,1.0829,1.02343
				c0,0.87344-0.85471,1.81719-2.0672,1.81719H45.32344z M43.82344,6.17344c-0.0985,0.3875-0.1188,0.46719-0.9032,0.46719
				c-0.1687,0-0.2687,0-0.2687,0.19843c0,0.10938,0.0891,0.10938,0.2687,0.10938h3.5454c1.5703,0,2.7421-1.17188,2.7421-2.14531
				c0-0.71563-0.5765-1.29219-1.539-1.40157c1.03281-0.1875,2.075-0.92343,2.075-1.86718c0-0.73438-0.6547-1.37032-1.8469-1.37032
				h-3.3375c-0.18909,0-0.2891,0-0.2891,0.19844c0,0.10938,0.0907,0.10938,0.2782,0.10938c0.0203,0,0.2093,0,0.37811,0.02031
				c0.1781,0.01875,0.2687,0.02969,0.2687,0.15781c0,0.04063-0.0109,0.07031-0.0406,0.18906L43.82344,6.17344z"/>
			<path class="st1" d="M51.65316,6.1c0.5484,0,0.9421,0.37969,0.9421,1.13281c0,0.87188-0.5062,1.13126-0.914,1.13126
				c-0.2813,0-0.9-0.07656-1.1953-0.49219c0.33121-0.01406,0.40781-0.24531,0.40781-0.39375c0-0.225-0.1688-0.38594-0.386-0.38594
				c-0.1968,0-0.3937,0.11875-0.3937,0.40781c0,0.66094,0.7312,1.08906,1.5812,1.08906c0.9782,0,1.6532-0.65312,1.6532-1.35625
				c0-0.54843-0.45-1.09687-1.2235-1.25937c0.7375-0.26719,1.0047-0.79375,1.0047-1.22344c0-0.55469-0.63901-0.96875-1.4203-0.96875
				c-0.7797,0-1.3781,0.37813-1.3781,0.94063c0,0.23906,0.15469,0.37343,0.3656,0.37343c0.2188,0,0.3594-0.1625,0.3594-0.35937
				c0-0.20313-0.1406-0.35156-0.3594-0.36563c0.24689-0.30937,0.73129-0.38593,0.9922-0.38593
				c0.31561,0,0.7594,0.15468,0.7594,0.76562c0,0.29531-0.0985,0.61875-0.2813,0.8375
				c-0.2328,0.26719-0.4297,0.28125-0.7812,0.30156c-0.175,0.01407-0.18909,0.01407-0.225,0.02188
				c-0.0141,0-0.0703,0.01406-0.0703,0.09062c0,0.09844,0.064,0.09844,0.1828,0.09844L51.65316,6.1"/>
		</g>
	</g>
	<g>
		<rect x="34" y="101.87656" class="st0" width="252" height="29"/>
		<g>
			<path class="st1" d="M41.48682,124.55917v1.09131c0,0.44385,0.03613,0.56396,0.89941,0.56396h0.23975v0.34766
				c-0.27539-0.02393-1.23486-0.02393-1.5708-0.02393s-1.2832,0-1.55908,0.02393v-0.34766h0.23975
				c0.87549,0,0.89941-0.12012,0.89941-0.56396v-1.09131h-3.1543v-0.34766l3.60986-5.60107
				c0.09619-0.14404,0.13232-0.14404,0.22803-0.14404c0.16797,0,0.16797,0.06006,0.16797,0.28809v5.45703h1.21143v0.34766H41.48682z
				 M40.69531,119.69003l-2.91455,4.52148h2.91455V119.69003z"/>
			<path class="st1" d="M43.16895,124.2955v-0.64795h3.11816v0.64795H43.16895z"/>
			<path class="st1" d="M50.45117,126.68222c-0.76758,0-1.2832-0.45605-1.55908-0.8999l-0.43164,0.77979h-0.26416v-7.17188
				c0-0.58789-0.0957-0.67188-0.91113-0.67188v-0.34766l1.66699-0.13184v3.83789c0.40771-0.50391,0.97168-0.80371,1.63086-0.80371
				c1.33154,0,2.45898,1.17529,2.45898,2.69824C53.04199,125.51865,51.83057,126.68222,50.45117,126.68222z M50.51123,121.51279
				c-0.5874,0-1.11523,0.34814-1.40332,0.77979c-0.13184,0.19189-0.13184,0.21582-0.13184,0.43164v2.4707
				c0,0.20361,0,0.25195,0.15576,0.50391c0.2041,0.32373,0.62402,0.74316,1.27148,0.74316
				c0.59961,0,1.07959-0.37158,1.31934-0.74316c0.2876-0.43213,0.40771-0.93555,0.40771-1.73926
				C52.13037,121.65683,50.87109,121.51279,50.51123,121.51279z"/>
			<path class="st1" d="M55.13232,126.53818c-0.34814,0-0.92383,0-1.25928,0.02393v-0.34766c0.7793,0,0.91113,0,0.91113-0.54004
				v-3.26221c0-0.5874-0.10791-0.65967-0.87549-0.65967v-0.34766l1.63135-0.13184v4.41357
				c0,0.46777,0.04785,0.52783,0.82764,0.52783v0.34766C55.95947,126.53818,55.26416,126.53818,55.13232,126.53818z
				 M55.1084,119.89365c-0.31201,0-0.57617-0.26367-0.57617-0.57568c0-0.32373,0.25195-0.5874,0.58789-0.5874
				c0.28809,0,0.57568,0.22754,0.57568,0.5874C55.6958,119.60605,55.46777,119.89365,55.1084,119.89365z"/>
			<path class="st1" d="M59.49902,126.68222c-0.63525,0-1.52295-0.27588-1.52295-1.60742v-3.33398h-1.01953v-0.23975
				c1.09131-0.03613,1.52344-1.1875,1.53516-2.31494h0.26416v2.20703h1.69092v0.34766h-1.69092v3.35791
				c0,0.2041,0,1.31934,0.81543,1.31934c0.46777,0,0.81543-0.50342,0.81543-1.36719v-0.65967h0.26367v0.68359
				C60.65039,125.93857,60.25488,126.68222,59.49902,126.68222z"/>
			<path class="st1" d="M68.15088,126.68222c-1.35498,0-2.50635-1.17578-2.50635-2.71094c0-1.51074,1.11523-2.7583,2.51855-2.7583
				c0.97119,0,1.81104,0.57568,1.81104,1.37939c0,0.34766-0.22803,0.51563-0.50391,0.51563c-0.2876,0-0.4917-0.2041-0.4917-0.4917
				c0-0.4917,0.44385-0.4917,0.58789-0.4917c-0.27588-0.46777-0.93555-0.64746-1.3916-0.64746
				c-0.59961,0-1.61914,0.4917-1.61914,2.48242c0,1.82275,0.97168,2.4585,1.70313,2.4585c0.64795,0,1.29541-0.35986,1.55908-1.21143
				c0.03613-0.14355,0.04834-0.17969,0.15625-0.17969c0.03564,0,0.11963,0,0.11963,0.10791S69.73438,126.68222,68.15088,126.68222z"
				/>
			<path class="st1" d="M75.18164,126.62216c-0.51563,0-0.88721-0.43164-0.93555-0.99561
				c-0.22754,0.57568-0.76758,1.05566-1.55908,1.05566c-0.73145,0-1.83496-0.2998-1.83496-1.24756
				c0-0.92334,0.91162-1.93066,3.32227-1.9668v-0.47998c0-1.0791-0.70752-1.53516-1.25928-1.53516
				c-0.47998,0-1.05566,0.21582-1.33154,0.71973c0.18018,0,0.61182,0,0.61182,0.4917c0,0.28809-0.20361,0.4917-0.4917,0.4917
				c-0.27588,0-0.50391-0.16797-0.50391-0.51563c0-0.7793,0.75586-1.42725,1.73926-1.42725
				c0.52783,0,1.06738,0.16797,1.4873,0.55176c0.52783,0.46777,0.52783,0.94727,0.52783,1.59521v2.09863
				c0,0.18018,0,0.81543,0.45557,0.81543c0.16797,0,0.45557-0.0957,0.45557-0.7793v-0.67188h0.26416v0.67188
				C76.12939,126.45419,75.43359,126.62216,75.18164,126.62216z M74.17432,123.68369
				c-0.43164,0.02393-2.4707,0.16797-2.4707,1.75098c0,0.57568,0.4917,1.00732,1.07959,1.00732
				c0.51563,0,1.39111-0.39551,1.39111-1.5708V123.68369z"/>
			<path class="st1" d="M80.07813,122.44833c-0.19189,0-0.46777-0.13184-0.46777-0.47949c0-0.32422,0.19189-0.396,0.28809-0.44385
				c-0.04834-0.01221-0.07227-0.01221-0.16797-0.01221c-0.92383,0-1.40332,1.09131-1.40332,2.25488v1.88281
				c0,0.43213,0.02393,0.56396,0.89941,0.56396h0.23975v0.34766c-0.27588-0.02393-1.12744-0.02393-1.45117-0.02393
				c-0.35986,0-1.01904,0-1.35498,0.02393v-0.34766c0.7793,0,0.91113,0,0.91113-0.54004v-3.25
				c0-0.58789-0.0957-0.67188-0.91113-0.67188v-0.34766l1.60693-0.13184v1.33105h0.01221
				c0.07178-0.22754,0.41943-1.33105,1.43896-1.33105c0.51563,0,0.83984,0.33594,0.83984,0.6958
				C80.55811,122.29257,80.31787,122.44833,80.07813,122.44833z"/>
			<path class="st1" d="M84.65039,122.44833c-0.19189,0-0.46777-0.13184-0.46777-0.47949c0-0.32422,0.19189-0.396,0.28809-0.44385
				c-0.04834-0.01221-0.07227-0.01221-0.16797-0.01221c-0.92383,0-1.40332,1.09131-1.40332,2.25488v1.88281
				c0,0.43213,0.02393,0.56396,0.89941,0.56396h0.23975v0.34766c-0.27588-0.02393-1.12744-0.02393-1.45117-0.02393
				c-0.35986,0-1.01904,0-1.35498,0.02393v-0.34766c0.7793,0,0.91113,0,0.91113-0.54004v-3.25
				c0-0.58789-0.0957-0.67188-0.91113-0.67188v-0.34766l1.60693-0.13184v1.33105h0.01221
				c0.07178-0.22754,0.41943-1.33105,1.43896-1.33105c0.51563,0,0.83984,0.33594,0.83984,0.6958
				C85.13037,122.29257,84.89014,122.44833,84.65039,122.44833z"/>
			<path class="st1" d="M90.32568,122.55624l-2.07471,5.10938c-0.31201,0.75537-0.80371,1.34326-1.47559,1.34326
				c-0.63574,0-1.0791-0.44385-1.0791-0.89941c0-0.34814,0.25195-0.46777,0.45557-0.46777
				c0.21582,0,0.44385,0.15576,0.44385,0.44336c0,0.41992-0.41992,0.46777-0.41992,0.46777s0.22803,0.21631,0.59961,0.21631
				c0.54004,0,0.86377-0.45605,1.06738-0.81592c0.04834-0.0957,0.04834-0.11963,0.57568-1.39111l-1.78662-4.38965
				c-0.15625-0.37158-0.25195-0.43164-0.94775-0.43164v-0.34766l1.16357,0.02393c0.33545,0,0.92334,0,1.23535-0.02393v0.34766
				c-0.24023,0-0.65967,0-0.65967,0.31152c0,0,0,0.08398,0.07178,0.25195l1.33105,3.26221l1.22363-3.02197
				c0.04785-0.12012,0.07178-0.18018,0.07178-0.28809c0-0.21582-0.10791-0.4917-0.55176-0.51563v-0.34766l0.97168,0.02393
				c0.38379,0,0.55176,0,0.89941-0.02393v0.34766C91.21289,121.74081,90.64941,121.75253,90.32568,122.55624z"/>
			<path class="st1" d="M91.8042,124.2955v-0.64795h3.11816v0.64795H91.8042z"/>
			<path class="st1" d="M97.26318,126.53818c-0.35986,0-0.94775,0-1.2832,0.02393v-0.34766c0.7793,0,0.91113,0,0.91113-0.54004
				v-6.28418c0-0.58789-0.0957-0.67188-0.91113-0.67188v-0.34766l1.66699-0.13184v7.43555
				c0,0.54004,0.14404,0.54004,0.91162,0.54004v0.34766C98.22266,126.53818,97.62305,126.53818,97.26318,126.53818z"/>
			<path class="st1" d="M101.77441,126.68222c-1.36719,0-2.56641-1.15137-2.56641-2.68652
				c0-1.51123,1.13916-2.78271,2.57861-2.78271c1.39111,0,2.56641,1.23535,2.56641,2.78271
				C104.35303,125.50644,103.18994,126.68222,101.77441,126.68222z M103.06982,122.13632
				c-0.32373-0.46777-0.82764-0.68359-1.29541-0.68359c-0.41943,0-0.94727,0.19189-1.2832,0.70801
				c-0.37158,0.53955-0.37158,1.271-0.37158,1.72705c0,0.50342,0.01172,1.21094,0.33545,1.75098
				c0.34814,0.5874,0.8877,0.7793,1.33154,0.7793c0.45557,0,1.00732-0.22754,1.34326-0.80322
				c0.31152-0.56396,0.31152-1.30762,0.31152-1.72705C103.44141,123.44394,103.44141,122.68808,103.06982,122.13632z"/>
			<path class="st1" d="M107.97803,126.68222c-1.36719,0-2.56641-1.15137-2.56641-2.68652
				c0-1.51123,1.13916-2.78271,2.57861-2.78271c1.39111,0,2.56641,1.23535,2.56641,2.78271
				C110.55664,125.50644,109.39355,126.68222,107.97803,126.68222z M109.27344,122.13632
				c-0.32373-0.46777-0.82764-0.68359-1.29541-0.68359c-0.41943,0-0.94727,0.19189-1.2832,0.70801
				c-0.37158,0.53955-0.37158,1.271-0.37158,1.72705c0,0.50342,0.01172,1.21094,0.33545,1.75098
				c0.34814,0.5874,0.8877,0.7793,1.33154,0.7793c0.45557,0,1.00732-0.22754,1.34326-0.80322
				c0.31152-0.56396,0.31152-1.30762,0.31152-1.72705C109.64502,123.44394,109.64502,122.68808,109.27344,122.13632z"/>
			<path class="st1" d="M115.87305,126.53818c-0.32373,0-0.91162,0-1.21143,0.02393v-0.34766
				c0.25195,0,0.41992-0.06006,0.41992-0.27588c0-0.16797-0.08398-0.2998-0.26416-0.55176l-1.15137-1.65527l-0.76758,0.67188v1.271
				c0,0.54004,0.14404,0.54004,0.91162,0.54004v0.34766c-0.33594-0.02393-0.91162-0.02393-1.27148-0.02393s-0.93506,0-1.271,0.02393
				v-0.34766c0.7793,0,0.91113,0,0.91113-0.54004v-6.28418c0-0.58789-0.0957-0.67188-0.91113-0.67188v-0.34766l1.66699-0.13184
				v5.78076l1.71484-1.51123c0,0,0.25195-0.21582,0.25195-0.45605c0-0.19141-0.14404-0.2998-0.34766-0.31152v-0.34766
				c0.27588,0.02393,0.8877,0.02393,1.19922,0.02393c0.35986,0,0.67188,0,0.91162-0.02393v0.34766
				c-0.25195,0.01172-0.77979,0.02393-1.60693,0.74365c-0.09619,0.0957-0.85156,0.74365-0.85156,0.7793l0.08398,0.12012
				l1.60693,2.33887c0.33594,0.4917,0.70752,0.4917,1.03125,0.4917v0.34766
				C116.4126,126.53818,116.38867,126.53818,115.87305,126.53818z"/>
			<path class="st1" d="M121.87305,126.62216c-0.51563,0-0.88721-0.43164-0.93555-0.99561
				c-0.22754,0.57568-0.76758,1.05566-1.55908,1.05566c-0.73145,0-1.83496-0.2998-1.83496-1.24756
				c0-0.92334,0.91162-1.93066,3.32227-1.9668v-0.47998c0-1.0791-0.70752-1.53516-1.25928-1.53516
				c-0.47998,0-1.05566,0.21582-1.33154,0.71973c0.18018,0,0.61182,0,0.61182,0.4917c0,0.28809-0.20361,0.4917-0.4917,0.4917
				c-0.27588,0-0.50391-0.16797-0.50391-0.51563c0-0.7793,0.75586-1.42725,1.73926-1.42725
				c0.52783,0,1.06738,0.16797,1.4873,0.55176c0.52783,0.46777,0.52783,0.94727,0.52783,1.59521v2.09863
				c0,0.18018,0,0.81543,0.45557,0.81543c0.16797,0,0.45557-0.0957,0.45557-0.7793v-0.67188h0.26416v0.67188
				C122.8208,126.45419,122.125,126.62216,121.87305,126.62216z M120.86572,123.68369
				c-0.43164,0.02393-2.4707,0.16797-2.4707,1.75098c0,0.57568,0.4917,1.00732,1.07959,1.00732
				c0.51563,0,1.39111-0.39551,1.39111-1.5708V123.68369z"/>
			<path class="st1" d="M127.95703,126.53818c-0.33594,0-0.9834,0-1.29541,0.02393v-0.34766c0.77979,0,0.91162,0,0.91162-0.54004
				v-2.81836c0-0.73145-0.16797-1.34326-0.91162-1.34326s-1.57129,0.67188-1.57129,1.93115v2.23047
				c0,0.54004,0.14404,0.54004,0.91162,0.54004v0.34766c-0.31201-0.02393-0.95947-0.02393-1.30713-0.02393
				c-0.33594,0-0.9834,0-1.29541,0.02393v-0.34766c0.77979,0,0.91162,0,0.91162-0.54004v-6.28418
				c0-0.58789-0.09619-0.67188-0.91162-0.67188v-0.34766l1.66699-0.13184v4.18555h0.01221
				c0.16797-0.37207,0.64746-1.15137,1.6792-1.15137c0.40771,0,0.97119,0.07178,1.31885,0.53955
				c0.27588,0.38379,0.27588,0.71973,0.27588,1.83496v2.20703c0.01221,0.35986,0.31201,0.35986,0.91162,0.35986v0.34766
				C128.95215,126.53818,128.30469,126.53818,127.95703,126.53818z"/>
			<path class="st1" d="M132.45801,126.68222c-1.33154,0-2.55469-1.16357-2.55469-2.74658c0-1.4873,1.05518-2.72266,2.42285-2.72266
				c1.45117,0,2.09863,1.12744,2.09863,2.33887c0,0.22803-0.02393,0.22803-0.28809,0.22803h-3.32178v0.22754
				c0,2.0752,1.21094,2.41064,1.71484,2.41064s1.30713-0.27588,1.61914-1.2832c0.02393-0.06006,0.04785-0.12012,0.14404-0.12012
				c0.07178,0,0.13184,0.04834,0.13184,0.12012C134.4248,125.38681,133.88525,126.68222,132.45801,126.68222z M132.31396,121.45273
				c-0.33594,0-1.39111,0.21582-1.4873,2.09912h2.85449C133.66895,123.14413,133.59717,121.45273,132.31396,121.45273z"/>
			<path class="st1" d="M139.50098,126.62216c-0.51563,0-0.88721-0.43164-0.93555-0.99561
				c-0.22754,0.57568-0.76758,1.05566-1.55908,1.05566c-0.73145,0-1.83496-0.2998-1.83496-1.24756
				c0-0.92334,0.91162-1.93066,3.32227-1.9668v-0.47998c0-1.0791-0.70752-1.53516-1.25928-1.53516
				c-0.47998,0-1.05566,0.21582-1.33154,0.71973c0.18018,0,0.61182,0,0.61182,0.4917c0,0.28809-0.20361,0.4917-0.4917,0.4917
				c-0.27588,0-0.50391-0.16797-0.50391-0.51563c0-0.7793,0.75586-1.42725,1.73926-1.42725
				c0.52783,0,1.06738,0.16797,1.4873,0.55176c0.52783,0.46777,0.52783,0.94727,0.52783,1.59521v2.09863
				c0,0.18018,0,0.81543,0.45557,0.81543c0.16797,0,0.45557-0.0957,0.45557-0.7793v-0.67188h0.26416v0.67188
				C140.44873,126.45419,139.75293,126.62216,139.50098,126.62216z M138.49365,123.68369
				c-0.43164,0.02393-2.4707,0.16797-2.4707,1.75098c0,0.57568,0.4917,1.00732,1.07959,1.00732
				c0.51563,0,1.39111-0.39551,1.39111-1.5708V123.68369z"/>
			<path class="st1" d="M145.12891,126.68222v-0.82764c-0.16797,0.22803-0.69531,0.82764-1.60693,0.82764
				c-1.31934,0-2.4585-1.17578-2.4585-2.69873c0-1.53516,1.19922-2.71045,2.59033-2.71045
				c0.73193,0,1.24756,0.41992,1.49951,0.76758v-2.65039c0-0.58789-0.09619-0.67188-0.91162-0.67188v-0.34766l1.66699-0.13184
				v7.30371c0,0.58789,0.0957,0.67188,0.91162,0.67188v0.34766L145.12891,126.68222z M145.12891,122.68808
				c0-0.21582,0-0.23975-0.14355-0.44336c-0.12012-0.19238-0.54004-0.73193-1.28369-0.73193
				c-0.59961,0-1.0791,0.37207-1.31885,0.74365c-0.26416,0.396-0.4082,0.87549-0.4082,1.73926
				c0,2.32666,1.29541,2.44629,1.60742,2.44629c0.59961,0,1.09131-0.34766,1.37891-0.76758
				c0.16797-0.26367,0.16797-0.2998,0.16797-0.51563V122.68808z"/>
		</g>
	</g>
	<g>
		<path class="st1" d="M317.09854,41.02969c0-0.02969-0.01999-0.09844-0.10901-0.09844c-0.03,0-0.04099,0.00938-0.14999,0.11875
			l-0.69598,0.76563c-0.08902-0.13906-0.54501-0.88438-1.64801-0.88438c-2.2157,0-4.4501,2.19532-4.4501,4.5
			c0,1.63907,1.17191,2.72188,2.6922,2.72188c0.86401,0,1.6189-0.39688,2.1449-0.85469
			c0.92401-0.81406,1.09302-1.71875,1.09302-1.74844c0-0.09843-0.099-0.09843-0.11902-0.09843c-0.06,0-0.10999,0.01875-0.13,0.09843
			c-0.08899,0.28907-0.31699,0.99375-1.00299,1.57032c-0.68399,0.55625-1.31091,0.725-1.8266,0.725
			c-0.89529,0-1.94839-0.51719-1.94839-2.06719c0-0.56563,0.20938-2.175,1.20309-3.3375
			c0.60471-0.70469,1.53909-1.20156,2.42389-1.20156c1.01202,0,1.60001,0.76562,1.60001,1.91718
			c0,0.39688-0.03198,0.40782-0.03198,0.50625c0,0.1,0.10999,0.1,0.14999,0.1c0.12799,0,0.12799-0.02031,0.17798-0.19843
			L317.09854,41.02969"/>
		<path class="st1" d="M318.64554,49.37812c-0.32401,0-0.75299-0.18906-0.89398-0.76563
			c-0.09802-0.41562-0.09802-0.99218-0.09802-1.5125c0-0.5125,0-1.04687,0.10602-1.43437
			c0.14697-0.55469,0.59698-0.70156,0.88599-0.70156c0.38,0,0.745,0.23125,0.87201,0.63906
			c0.112,0.37969,0.11899,0.88594,0.11899,1.49687c0,0.52032,0,1.04063-0.091,1.48438
			C319.40454,49.22344,318.92654,49.37812,318.64554,49.37812 M320.27655,47.19218c0-0.77344-0.09201-1.32969-0.41501-1.82187
			c-0.21802-0.32344-0.65399-0.60313-1.216-0.60313c-1.63098,0-1.63098,1.91875-1.63098,2.425s0,2.38282,1.63098,2.38282
			C320.27655,49.575,320.27655,47.69844,320.27655,47.19218z"/>
	</g>
	<g>
		<path class="st1" d="M231.75,105.1c0-0.02969-0.02-0.09844-0.10901-0.09844c-0.03,0-0.041,0.00938-0.14999,0.11876
			l-0.69601,0.76563c-0.08899-0.13906-0.54498-0.88438-1.64799-0.88438c-2.21599,0-4.45,2.19533-4.45,4.5
			c0,1.63907,1.172,2.72188,2.692,2.72188c0.864,0,1.619-0.39688,2.145-0.85469c0.924-0.81406,1.093-1.71875,1.093-1.74844
			c0-0.09843-0.099-0.09843-0.119-0.09843c-0.06,0-0.11,0.01875-0.13,0.09843c-0.08899,0.28907-0.317,0.99375-1.00299,1.57032
			c-0.68401,0.55625-1.311,0.725-1.82701,0.725c-0.89499,0-1.948-0.51719-1.948-2.06719c0-0.56563,0.209-2.175,1.203-3.33749
			c0.605-0.7047,1.539-1.20157,2.424-1.20157c1.01201,0,1.60001,0.76563,1.60001,1.91718c0,0.39688-0.03201,0.40782-0.03201,0.50625
			c0,0.1,0.11002,0.1,0.15001,0.1c0.12801,0,0.12801-0.02031,0.17799-0.19843L231.75,105.1"/>
		<path class="st1" d="M233.655,109.03438c0-0.19063-0.01401-0.19688-0.21101-0.19688
			c-0.45,0.44219-1.08899,0.44844-1.37799,0.44844v0.25312c0.168,0,0.632,0,1.02-0.19687v3.58593c0,0.23281,0,0.32344-0.703,0.32344
			h-0.267v0.25312c0.12601-0.00624,0.99001-0.02812,1.25101-0.02812c0.21698,0,1.10298,0.02187,1.258,0.02812v-0.25313h-0.26701
			c-0.70299,0-0.70299-0.09062-0.70299-0.32344V109.03438"/>
	</g>
	<g>
		<path class="st1" d="M161.6375,105.1c0-0.02969-0.02-0.09844-0.10899-0.09844c-0.03,0-0.04102,0.00938-0.14999,0.11876
			l-0.69601,0.76563c-0.08899-0.13906-0.545-0.88438-1.64801-0.88438c-2.21597,0-4.44998,2.19533-4.44998,4.5
			c0,1.63907,1.172,2.72188,2.69199,2.72188c0.86401,0,1.619-0.39688,2.145-0.85469c0.924-0.81406,1.093-1.71875,1.093-1.74844
			c0-0.09843-0.099-0.09843-0.119-0.09843c-0.06,0-0.11,0.01875-0.12999,0.09843c-0.089,0.28907-0.31702,0.99375-1.00301,1.57032
			c-0.68401,0.55625-1.31099,0.725-1.82701,0.725c-0.89499,0-1.948-0.51719-1.948-2.06719c0-0.56563,0.20901-2.175,1.203-3.33749
			c0.60501-0.7047,1.539-1.20157,2.42401-1.20157c1.01199,0,1.60001,0.76563,1.60001,1.91718
			c0,0.39688-0.03201,0.40782-0.03201,0.50625c0,0.1,0.11002,0.1,0.14999,0.1c0.12801,0,0.12801-0.02031,0.17801-0.19843
			L161.6375,105.1"/>
		<path class="st1" d="M164.73749,112.225h-0.23898c-0.02002,0.15469-0.091,0.5703-0.18301,0.64063
			c-0.056,0.04219-0.59698,0.04219-0.69501,0.04219h-1.29398c0.73799-0.65469,0.98398-0.85158,1.40598-1.18126
			c0.52103-0.41562,1.005-0.85156,1.005-1.51875c0-0.85156-0.745-1.37032-1.64499-1.37032c-0.87201,0-1.463,0.61095-1.463,1.25781
			c0,0.35782,0.30299,0.39375,0.37401,0.39375c0.16798,0,0.37198-0.12032,0.37198-0.37343
			c0-0.12657-0.04898-0.37189-0.41499-0.37189c0.218-0.5,0.696-0.65469,1.02699-0.65469c0.703,0,1.069,0.54844,1.069,1.11875
			c0,0.61094-0.436,1.09688-0.66101,1.35l-1.69498,1.67344c-0.071,0.0625-0.071,0.07656-0.071,0.27344h2.89699L164.73749,112.225"/>
	</g>
	<g>
		<path class="st1" d="M93.63101,105.02969c0-0.02969-0.02-0.09843-0.10899-0.09843c-0.03001,0-0.04102,0.00938-0.15001,0.11875
			l-0.696,0.76563c-0.08899-0.13906-0.545-0.88438-1.64801-0.88438c-2.21599,0-4.45,2.19532-4.45,4.5
			c0,1.63907,1.172,2.72188,2.692,2.72188c0.86401,0,1.619-0.39688,2.145-0.85469c0.924-0.81406,1.093-1.71875,1.093-1.74844
			c0-0.09843-0.099-0.09843-0.119-0.09843c-0.06,0-0.11,0.01875-0.12999,0.09843c-0.089,0.28907-0.31702,0.99375-1.00301,1.57032
			c-0.68401,0.55625-1.311,0.725-1.82701,0.725c-0.89499,0-1.948-0.51719-1.948-2.06719c0-0.56563,0.209-2.175,1.203-3.3375
			c0.605-0.70469,1.539-1.20156,2.42401-1.20156c1.01199,0,1.59999,0.76563,1.59999,1.91718c0,0.39688-0.032,0.40782-0.032,0.50625
			c0,0.1,0.11,0.1,0.14999,0.1c0.12801,0,0.12801-0.02031,0.17801-0.19843L93.63101,105.02969"/>
		<path class="st1" d="M95,111.08594c0.54802,0,0.942,0.37968,0.942,1.1328c0,0.87188-0.50598,1.13125-0.914,1.13125
			c-0.28099,0-0.89999-0.07656-1.19499-0.49219c0.33099-0.01406,0.407-0.24532,0.407-0.39375c0-0.225-0.168-0.38594-0.386-0.38594
			c-0.196,0-0.39299,0.11875-0.39299,0.40781c0,0.66093,0.73099,1.08907,1.58099,1.08907c0.978,0,1.653-0.65313,1.653-1.35625
			c0-0.54843-0.45-1.09687-1.22299-1.25937c0.737-0.26719,1.00398-0.79375,1.00398-1.22344
			c0-0.55469-0.63898-0.96875-1.41998-0.96875c-0.78001,0-1.37801,0.37814-1.37801,0.94064c0,0.23906,0.155,0.37343,0.366,0.37343
			c0.218,0,0.35899-0.1625,0.35899-0.35938c0-0.20313-0.14099-0.35155-0.35899-0.36563c0.246-0.30936,0.731-0.38593,0.992-0.38593
			c0.31499,0,0.759,0.15468,0.759,0.76562c0,0.29531-0.09801,0.61875-0.28101,0.8375
			c-0.233,0.26719-0.42999,0.28125-0.78099,0.30156c-0.175,0.01407-0.18901,0.01407-0.22501,0.02188
			c-0.01401,0-0.071,0.01406-0.071,0.09062c0,0.09843,0.064,0.09843,0.183,0.09843L95,111.08594"/>
	</g>
	<g>
		<path class="st1" d="M7.05299,112.1c0-0.02969-0.01999-0.09844-0.10899-0.09844c-0.03,0-0.041,0.00938-0.14999,0.11876
			L6.098,112.88594c-0.089-0.13906-0.54501-0.88438-1.648-0.88438c-2.21599,0-4.45,2.19533-4.45,4.5
			c0,1.63907,1.172,2.72188,2.692,2.72188c0.864,0,1.61899-0.39688,2.14499-0.85469
			c0.92401-0.81406,1.09302-1.71875,1.09302-1.74844c0-0.09843-0.099-0.09843-0.11902-0.09843
			c-0.06,0-0.10999,0.01875-0.12999,0.09843c-0.089,0.28907-0.317,0.99375-1.00301,1.57032
			c-0.68399,0.55625-1.31099,0.725-1.827,0.725c-0.89499,0-1.948-0.51719-1.948-2.06719c0-0.56563,0.209-2.175,1.203-3.33749
			c0.605-0.7047,1.539-1.20157,2.424-1.20157c1.01201,0,1.60001,0.76563,1.60001,1.91718c0,0.39688-0.03201,0.40782-0.03201,0.50625
			c0,0.1,0.11002,0.1,0.15001,0.1c0.12799,0,0.12799-0.02031,0.17799-0.19843L7.05299,112.1"/>
		<path class="st1" d="M8.994,116.525v2.57344H7.13699L8.994,116.525z M10.32199,119.35156v-0.25313H9.54201v-3.13437
			c0-0.14844,0-0.19687-0.15501-0.19687c-0.084,0-0.112,0-0.18199,0.09843L6.876,119.09844v0.25312h2.068v0.57655
			c0,0.23906,0,0.32344-0.569,0.32344H8.18401v0.25313c0.35199-0.01407,0.80198-0.02812,1.05499-0.02812
			c0.261,0,0.711,0.01405,1.062,0.02812v-0.25313h-0.19c-0.56898,0-0.56898-0.08438-0.56898-0.32344v-0.57655H10.32199z"/>
	</g>
	<g>
		<path class="st1" d="M251.44647,82.02968c0-0.02969-0.01996-0.09842-0.10999-0.09842c-0.04999,0-0.05899,0.00937-0.17902,0.14844
			l-0.47699,0.56718c-0.258-0.46719-0.77496-0.71562-1.41998-0.71562c-1.26099,0-2.453,1.14218-2.453,2.34375
			c0,0.80469,0.526,1.2625,1.03302,1.41092l1.06198,0.27814c0.367,0.08907,0.914,0.23906,0.914,1.05313
			c0,0.89375-0.814,1.82813-1.78702,1.82813c-0.63599,0-1.73898-0.21875-1.73898-1.45c0-0.23906,0.05002-0.47812,0.05899-0.53749
			c0.01099-0.03908,0.02002-0.05,0.02002-0.06876c0-0.09999-0.07001-0.10938-0.11801-0.10938
			c-0.05002,0-0.07101,0.00937-0.10001,0.03906c-0.03998,0.04062-0.59601,2.30469-0.59601,2.33438
			c0,0.05936,0.04901,0.09999,0.11002,0.09999c0.048,0,0.05899-0.00937,0.17801-0.14844l0.48599-0.56718
			c0.42801,0.57657,1.103,0.71562,1.67899,0.71562c1.35199,0,2.52399-1.32187,2.52399-2.55313
			c0-0.68593-0.33795-1.02342-0.48798-1.16249c-0.228-0.22812-0.37598-0.26875-1.26099-0.49687
			c-0.21802-0.05939-0.57602-0.15781-0.66501-0.17813c-0.26901-0.08907-0.60703-0.37813-0.60703-0.90468
			c0-0.80469,0.79602-1.64844,1.74002-1.64844c0.823,0,1.42899,0.42656,1.42899,1.53905c0,0.31876-0.039,0.49689-0.039,0.55624
			c0,0.01094,0,0.10001,0.11902,0.10001c0.09998,0,0.10901-0.02969,0.14801-0.19844L251.44647,82.02968"/>
		<path class="st1" d="M253.1355,90.37811c-0.32401,0-0.75299-0.18906-0.89398-0.76563
			c-0.09802-0.41563-0.09802-0.99219-0.09802-1.5125c0-0.5125,0-1.04688,0.10602-1.43437
			c0.14697-0.55469,0.59698-0.70155,0.88599-0.70155c0.38,0,0.745,0.23125,0.87201,0.63905
			c0.112,0.37968,0.11899,0.88594,0.11899,1.49687c0,0.52031,0,1.04062-0.091,1.48438
			C253.8945,90.22343,253.4165,90.37811,253.1355,90.37811 M254.76648,88.19218c0-0.77345-0.09198-1.3297-0.41498-1.82187
			c-0.21802-0.32344-0.65399-0.60312-1.216-0.60312c-1.63098,0-1.63098,1.91875-1.63098,2.425c0,0.50624,0,2.38281,1.63098,2.38281
			S254.76648,88.69844,254.76648,88.19218z"/>
	</g>
	<g>
		<path class="st1" d="M182.59799,82.10001c0-0.02969-0.01999-0.09845-0.11002-0.09845c-0.04999,0-0.05899,0.00938-0.17899,0.14844
			l-0.47699,0.5672c-0.25803-0.46719-0.77499-0.71564-1.42001-0.71564c-1.26099,0-2.453,1.1422-2.453,2.34375
			c0,0.80469,0.526,1.2625,1.03302,1.41093l1.06198,0.27814c0.367,0.08905,0.914,0.23906,0.914,1.05312
			c0,0.89375-0.814,1.82814-1.78699,1.82814c-0.63602,0-1.73901-0.21875-1.73901-1.45c0-0.23907,0.05002-0.47813,0.05899-0.53751
			c0.01102-0.03906,0.02002-0.05,0.02002-0.06874c0-0.10001-0.07001-0.10939-0.11801-0.10939
			c-0.04999,0-0.07098,0.00938-0.10001,0.03906c-0.03998,0.04063-0.59598,2.30469-0.59598,2.33438
			c0,0.05936,0.04898,0.10001,0.10999,0.10001c0.048,0,0.05899-0.00938,0.17801-0.14844l0.48599-0.5672
			c0.42801,0.57657,1.103,0.71564,1.67899,0.71564c1.35202,0,2.52402-1.32188,2.52402-2.55313
			c0-0.68593-0.33798-1.02344-0.48801-1.16251c-0.228-0.22812-0.37598-0.26875-1.26099-0.49687
			c-0.21802-0.05937-0.57602-0.15781-0.66501-0.17813c-0.26901-0.08905-0.60699-0.37811-0.60699-0.90468
			c0-0.80469,0.79599-1.64844,1.73999-1.64844c0.823,0,1.42902,0.42656,1.42902,1.53905c0,0.31877-0.039,0.49689-0.039,0.55626
			c0,0.01094,0,0.09999,0.11899,0.09999c0.10001,0,0.10901-0.02969,0.14801-0.19843L182.59799,82.10001"/>
		<path class="st1" d="M184.64499,86.03438c0-0.19064-0.01401-0.19687-0.211-0.19687
			c-0.45001,0.44218-1.08899,0.44844-1.37799,0.44844v0.25311c0.168,0,0.63199,0,1.01999-0.19687v3.58594
			c0,0.23282,0,0.32344-0.703,0.32344h-0.267v0.25313c0.12601-0.00626,0.99002-0.02812,1.25101-0.02812
			c0.21698,0,1.103,0.02187,1.258,0.02812v-0.25314h-0.267c-0.703,0-0.703-0.09062-0.703-0.32343V86.03438"/>
	</g>
	<g>
		<path class="st1" d="M113.48549,82.10001c0-0.02969-0.02-0.09845-0.11-0.09845c-0.05,0-0.05899,0.00938-0.179,0.14844
			l-0.47699,0.5672c-0.25801-0.46719-0.77501-0.71564-1.42001-0.71564c-1.261,0-2.453,1.1422-2.453,2.34375
			c0,0.80469,0.526,1.2625,1.033,1.41093l1.062,0.27814c0.367,0.08905,0.914,0.23906,0.914,1.05312
			c0,0.89375-0.81401,1.82814-1.787,1.82814c-0.636,0-1.739-0.21875-1.739-1.45c0-0.23907,0.04999-0.47813,0.05899-0.53751
			c0.011-0.03906,0.02-0.05,0.02-0.06874c0-0.10001-0.07001-0.10939-0.118-0.10939c-0.05,0-0.071,0.00938-0.10001,0.03906
			c-0.04001,0.04063-0.59599,2.30469-0.59599,2.33438c0,0.05936,0.049,0.10001,0.11,0.10001
			c0.04799,0,0.05899-0.00938,0.17799-0.14844l0.48601-0.5672c0.42798,0.57657,1.10298,0.71564,1.67899,0.71564
			c1.35201,0,2.524-1.32188,2.524-2.55313c0-0.68593-0.338-1.02344-0.48799-1.16251c-0.228-0.22812-0.37601-0.26875-1.26102-0.49687
			c-0.21799-0.05937-0.57599-0.15781-0.66498-0.17813c-0.26901-0.08905-0.60701-0.37811-0.60701-0.90468
			c0-0.80469,0.79599-1.64844,1.74001-1.64844c0.823,0,1.429,0.42656,1.429,1.53905c0,0.31877-0.039,0.49689-0.039,0.55626
			c0,0.01094,0,0.09999,0.11899,0.09999c0.10001,0,0.10901-0.02969,0.14799-0.19843L113.48549,82.10001"/>
		<path class="st1" d="M116.72749,89.22499h-0.239c-0.02,0.15469-0.091,0.57031-0.183,0.64063
			c-0.05602,0.04219-0.597,0.04219-0.69501,0.04219h-1.29399c0.73799-0.65469,0.98399-0.85156,1.40599-1.18126
			c0.52101-0.41562,1.005-0.85156,1.005-1.51875c0-0.85155-0.745-1.3703-1.645-1.3703c-0.87201,0-1.463,0.61093-1.463,1.25781
			c0,0.35782,0.30299,0.39375,0.37401,0.39375c0.16798,0,0.37199-0.12032,0.37199-0.37343c0-0.12657-0.049-0.37189-0.41501-0.37189
			c0.218-0.5,0.696-0.65469,1.02701-0.65469c0.703,0,1.06898,0.54845,1.06898,1.11874c0,0.61093-0.43599,1.09689-0.661,1.35001
			l-1.69499,1.67345c-0.071,0.0625-0.071,0.07655-0.071,0.27344h2.897L116.72749,89.22499"/>
	</g>
	<g>
		<path class="st1" d="M44.38901,82.03011c0-0.02969-0.02-0.09843-0.11-0.09843c-0.05,0-0.05899,0.00938-0.179,0.14844
			l-0.47699,0.56719c-0.25801-0.46719-0.77501-0.71563-1.42001-0.71563c-1.261,0-2.453,1.14219-2.453,2.34375
			c0,0.80469,0.526,1.2625,1.033,1.41093l1.06201,0.27814c0.367,0.08906,0.914,0.23906,0.914,1.05312
			c0,0.89375-0.81401,1.82813-1.787,1.82813c-0.636,0-1.739-0.21875-1.739-1.45c0-0.23907,0.04999-0.47813,0.05899-0.5375
			c0.011-0.03907,0.02-0.05,0.02-0.06875c0-0.1-0.07001-0.10938-0.118-0.10938c-0.05,0-0.071,0.00938-0.10001,0.03906
			c-0.04001,0.04063-0.59599,2.30469-0.59599,2.33438c0,0.05936,0.049,0.1,0.11,0.1c0.04799,0,0.05899-0.00938,0.17799-0.14844
			l0.48601-0.56719C39.7,89.0145,40.375,89.15356,40.95101,89.15356c1.35201,0,2.524-1.32188,2.524-2.55313
			c0-0.68593-0.338-1.02343-0.48799-1.1625c-0.228-0.22812-0.37601-0.26875-1.26102-0.49687
			c-0.21799-0.05938-0.57599-0.15781-0.66498-0.17813c-0.26901-0.08906-0.60701-0.37812-0.60701-0.90468
			c0-0.80469,0.79599-1.64844,1.74001-1.64844c0.823,0,1.429,0.42656,1.429,1.53905c0,0.31876-0.039,0.49689-0.039,0.55625
			c0,0.01094,0,0.1,0.11899,0.1c0.10001,0,0.10901-0.02969,0.14799-0.19844L44.38901,82.03011"/>
		<path class="st1" d="M46,88.08636c0.54802,0,0.942,0.37969,0.942,1.13281c0,0.87188-0.50598,1.13126-0.914,1.13126
			c-0.28099,0-0.89999-0.07657-1.19499-0.49219c0.33099-0.01406,0.407-0.24532,0.407-0.39375c0-0.225-0.168-0.38593-0.386-0.38593
			c-0.196,0-0.39299,0.11874-0.39299,0.40781c0,0.66094,0.73099,1.08907,1.58099,1.08907c0.978,0,1.653-0.65312,1.653-1.35625
			c0-0.54843-0.45-1.09687-1.22299-1.25937c0.737-0.26719,1.00398-0.79375,1.00398-1.22344
			c0-0.55469-0.63898-0.96875-1.41998-0.96875c-0.78001,0-1.37801,0.37813-1.37801,0.94063c0,0.23906,0.155,0.37343,0.366,0.37343
			c0.218,0,0.35899-0.1625,0.35899-0.35937c0-0.20313-0.14099-0.35155-0.35899-0.36563c0.246-0.30936,0.731-0.38593,0.992-0.38593
			c0.31499,0,0.759,0.15468,0.759,0.76562c0,0.29531-0.09801,0.61875-0.28101,0.8375
			c-0.233,0.26719-0.42999,0.28125-0.78099,0.30156c-0.175,0.01407-0.18901,0.01407-0.22501,0.02188
			c-0.01401,0-0.071,0.01406-0.071,0.09061c0,0.09844,0.064,0.09844,0.183,0.09844L46,88.08636"/>
	</g>
</g>
<g id="Layer_2">
	<g>
		<g>
			<polyline class="st0" points="85.20156,44.87656 91,44.87656 91,101.87656 			"/>
			<g>
				<polygon class="st1" points="86.58858,46.91025 79,44.87656 86.58858,42.84287 				"/>
			</g>
		</g>
	</g>
	<g>
		<g>
			<polyline class="st0" points="154.20157,44.87656 160,44.87656 160,101.87656 			"/>
			<g>
				<polygon class="st1" points="155.58858,46.91025 148,44.87656 155.58858,42.84287 				"/>
			</g>
		</g>
	</g>
	<g>
		<g>
			<polyline class="st0" points="223.20155,44.87656 229,44.87656 229,101.87656 			"/>
			<g>
				<polygon class="st1" points="224.58858,46.91025 217,44.87656 224.58858,42.84287 				"/>
			</g>
		</g>
	</g>
	<g>
		<g>
			<line class="st0" x1="292.20157" y1="44.87656" x2="306" y2="44.87656"/>
			<g>
				<polygon class="st1" points="293.58856,46.91025 286,44.87656 293.58856,42.84287 				"/>
			</g>
		</g>
	</g>
	<g>
		<g>
			<polyline class="st0" points="292.20157,115.87656 298,115.87656 298,45.14927 			"/>
			<g>
				<polygon class="st1" points="293.58856,117.91025 286,115.87656 293.58856,113.84286 				"/>
			</g>
		</g>
	</g>
	<g>
		<g>
			<line class="st0" x1="20.20156" y1="115.87656" x2="34" y2="115.87656"/>
			<g>
				<polygon class="st1" points="21.58857,117.91025 14,115.87656 21.58857,113.84286 				"/>
			</g>
		</g>
	</g>
	<g>
		<g>
			<line class="st0" x1="70" y1="56.87656" x2="70" y2="95.675"/>
			<g>
				<polygon class="st1" points="67.96631,94.28798 70,101.87656 72.03369,94.28798 				"/>
			</g>
		</g>
	</g>
	<g>
		<g>
			<line class="st0" x1="56.5" y1="56.87656" x2="56.5" y2="95.675"/>
			<g>
				<polygon class="st1" points="54.46631,94.28798 56.5,101.87656 58.53369,94.28798 				"/>
			</g>
		</g>
	</g>
	<g>
		<g>
			<line class="st0" x1="43" y1="56.87656" x2="43" y2="73.175"/>
			<g>
				<polygon class="st1" points="40.96631,71.78798 43,79.37656 45.03369,71.78798 				"/>
			</g>
		</g>
	</g>
	<g>
		<g>
			<line class="st0" x1="139" y1="56.87656" x2="139" y2="95.675"/>
			<g>
				<polygon class="st1" points="136.96631,94.28798 139,101.87656 141.03369,94.28798 				"/>
			</g>
		</g>
	</g>
	<g>
		<g>
			<line class="st0" x1="125.5" y1="56.87656" x2="125.5" y2="95.675"/>
			<g>
				<polygon class="st1" points="123.46631,94.28798 125.5,101.87656 127.53369,94.28798 				"/>
			</g>
		</g>
	</g>
	<g>
		<g>
			<line class="st0" x1="112" y1="56.87656" x2="112" y2="73.175"/>
			<g>
				<polygon class="st1" points="109.96631,71.78798 112,79.37656 114.03369,71.78798 				"/>
			</g>
		</g>
	</g>
	<g>
		<g>
			<line class="st0" x1="208" y1="56.87656" x2="208" y2="95.675"/>
			<g>
				<polygon class="st1" points="205.96631,94.28798 208,101.87656 210.03369,94.28798 				"/>
			</g>
		</g>
	</g>
	<g>
		<g>
			<line class="st0" x1="194.5" y1="56.87656" x2="194.5" y2="95.675"/>
			<g>
				<polygon class="st1" points="192.46631,94.28798 194.5,101.87656 196.53369,94.28798 				"/>
			</g>
		</g>
	</g>
	<g>
		<g>
			<line class="st0" x1="181" y1="56.87656" x2="181" y2="73.175"/>
			<g>
				<polygon class="st1" points="178.96631,71.78798 181,79.37656 183.03369,71.78798 				"/>
			</g>
		</g>
	</g>
	<g>
		<g>
			<line class="st0" x1="277" y1="56.87656" x2="277" y2="95.675"/>
			<g>
				<polygon class="st1" points="274.96631,94.28798 277,101.87656 279.03369,94.28798 				"/>
			</g>
		</g>
	</g>
	<g>
		<g>
			<line class="st0" x1="263.5" y1="56.87656" x2="263.5" y2="95.675"/>
			<g>
				<polygon class="st1" points="261.46631,94.28798 263.5,101.87656 265.53369,94.28798 				"/>
			</g>
		</g>
	</g>
	<g>
		<g>
			<line class="st0" x1="250" y1="56.87656" x2="250" y2="73.175"/>
			<g>
				<polygon class="st1" points="247.96631,71.78798 250,79.37656 252.03369,71.78798 				"/>
			</g>
		</g>
	</g>
	<g>
		<g>
			<line class="st0" x1="277" y1="130.87656" x2="277" y2="144.675"/>
			<g>
				<polygon class="st1" points="274.96631,143.28798 277,150.87656 279.03369,143.28798 				"/>
			</g>
		</g>
	</g>
	<g>
		<g>
			<line class="st0" x1="260.5" y1="130.87656" x2="260.5" y2="144.675"/>
			<g>
				<polygon class="st1" points="258.46631,143.28798 260.5,150.87656 262.53369,143.28798 				"/>
			</g>
		</g>
	</g>
	<g>
		<path class="st1" d="M258.32501,154.17656c0.08905-0.34688,0.10938-0.37656,0.53592-0.37656h0.95471
			c0.82343,0,1.34998,0.26875,1.34998,0.95311c0,0.38751-0.19843,1.2422-0.58594,1.60001
			c-0.49686,0.44688-1.09219,0.52657-1.52969,0.52657h-1.39999L258.32501,154.17656 M257.60938,157.1375h1.68906
			c1.41095,0,2.79221-1.03282,2.79221-2.14531c0-0.76563-0.65625-1.5-1.95782-1.5h-3.21875c-0.1875,0-0.29688,0-0.29688,0.18906
			c0,0.11876,0.08905,0.11876,0.28751,0.11876c0.1297,0,0.3078,0.00937,0.42654,0.02031
			c0.15939,0.01875,0.21875,0.04843,0.21875,0.15781c0,0.04063-0.00937,0.07031-0.03906,0.18906l-1.33124,5.33438
			c-0.10001,0.3875-0.11874,0.46719-0.90469,0.46719c-0.16875,0-0.27812,0-0.27812,0.18906
			c0,0.11876,0.12032,0.11876,0.15001,0.11876c0.27812,0,0.98282-0.02969,1.26093-0.02969
			c0.20938,0,0.42657,0.00938,0.63596,0.00938c0.21875,0,0.4375,0.02031,0.64529,0.02031c0.07031,0,0.19846,0,0.19846-0.19844
			c0-0.10938-0.08908-0.10938-0.27814-0.10938c-0.36719,0-0.64532,0-0.64532-0.17969c0-0.05939,0.02032-0.10782,0.02969-0.16875
			L257.60938,157.1375z"/>
		<path class="st1" d="M266.92661,156.92656c0-0.03593-0.02191-0.09219-0.09219-0.09219c-0.04852,0-0.0625,0.01407-0.12662,0.08438
			l-0.51248,0.54062c-0.06403-0.08437-0.45782-0.625-1.32187-0.625c-1.70782,0-3.38126,1.51094-3.38126,3.10001
			c0,1.09062,0.82968,1.98282,2.17969,1.98282c0.61874,0,1.27188-0.16095,1.63751-0.55469
			c0.07031,0.15468,0.2594,0.40781,0.34372,0.40781c0.06409,0,0.07819-0.02812,0.11249-0.17656l0.1344-0.54063
			c0.03439-0.12656,0.13281-0.54843,0.15469-0.63281c0.08441-0.31718,0.09061-0.32344,0.50623-0.33124
			c0.04849,0,0.15469,0,0.15469-0.14688c0-0.07031-0.05002-0.10625-0.1062-0.10625c-0.23129,0-0.52661,0.02812-0.7735,0.02812
			c-0.17502,0-0.40622,0-0.58279-0.00626c-0.17502-0.0078-0.37967-0.02187-0.55469-0.02187c-0.04999,0-0.15466,0-0.15466,0.15468
			c0,0.09845,0.07654,0.09845,0.25311,0.09845c0.13281,0,0.27344,0,0.40784,0.01405c0.22498,0.02188,0.2312,0.05,0.2312,0.13438
			c0,0.02812,0,0.04218-0.0484,0.22499c-0.05002,0.19687-0.12662,0.5125-0.15472,0.58281
			c-0.20468,0.42969-0.85779,0.61876-1.40622,0.61876c-0.70313,0-1.625-0.33751-1.625-1.52501
			c0-0.75313,0.35156-1.6953,0.87186-2.22188c0.72501-0.71718,1.47656-0.82968,1.87033-0.82968
			c0.81564,0,1.29373,0.59062,1.29373,1.37813c0,0.19688-0.02188,0.24532-0.02188,0.28749
			c0,0.09219,0.09219,0.09219,0.12659,0.09219c0.11252,0,0.11252-0.02188,0.14841-0.15469L266.92661,156.92656"/>
	</g>
	<g>
		<path class="st1" d="M262.42499,105.68594c0.08911-0.34689,0.10941-0.37656,0.53592-0.37656h0.95468
			c0.82352,0,1.35001,0.26875,1.35001,0.95312c0,0.3875-0.19839,1.2422-0.58591,1.60001
			c-0.49689,0.44688-1.09219,0.52656-1.52969,0.52656H261.75L262.42499,105.68594 M261.70941,108.64688h1.689
			c1.41098,0,2.79221-1.03282,2.79221-2.14532c0-0.76562-0.65622-1.5-1.95782-1.5h-3.21869c-0.1875,0-0.29691,0-0.29691,0.18907
			c0,0.11875,0.08911,0.11875,0.28751,0.11875c0.1297,0,0.3078,0.00937,0.42661,0.02031
			c0.1593,0.01875,0.21869,0.04844,0.21869,0.15781c0,0.04063-0.0094,0.0703-0.03909,0.18906l-1.33121,5.33438
			c-0.10001,0.3875-0.1188,0.46719-0.90469,0.46719c-0.1687,0-0.27811,0-0.27811,0.18906c0,0.11875,0.1203,0.11875,0.14999,0.11875
			c0.27811,0,0.98282-0.02969,1.26093-0.02969c0.20938,0,0.42657,0.00938,0.63599,0.00938c0.21869,0,0.4375,0.02031,0.64529,0.02031
			c0.07031,0,0.19839,0,0.19839-0.19844c0-0.10937-0.08908-0.10937-0.27808-0.10937c-0.36722,0-0.64532,0-0.64532-0.1797
			c0-0.05938,0.02032-0.10781,0.02972-0.16875L261.70941,108.64688z"/>
		<path class="st1" d="M267.09689,113.22969c-0.32349,0-0.75308-0.18906-0.8938-0.76563
			c-0.09839-0.41563-0.09839-0.99219-0.09839-1.5125c0-0.5125,0-1.04687,0.1062-1.43437
			c0.14688-0.55469,0.59689-0.70156,0.88599-0.70156c0.3797,0,0.7453,0.23125,0.87192,0.63906
			c0.11249,0.37969,0.11868,0.88594,0.11868,1.49687c0,0.52032,0,1.04063-0.09061,1.48438
			C267.85629,113.075,267.37811,113.22969,267.09689,113.22969 M268.72809,111.04375c0-0.77344-0.09219-1.32969-0.41559-1.82187
			c-0.21719-0.32344-0.65311-0.60313-1.21561-0.60313c-1.63129,0-1.63129,1.91875-1.63129,2.425
			c0,0.50626,0,2.38282,1.63129,2.38282C268.72809,113.42657,268.72809,111.55,268.72809,111.04375z"/>
	</g>
	<g>
		<path class="st1" d="M193.22501,105.68594c0.0891-0.34689,0.10939-0.37656,0.53589-0.37656h0.95471
			c0.82349,0,1.34999,0.26875,1.34999,0.95312c0,0.3875-0.19839,1.2422-0.58589,1.60001
			c-0.4969,0.44688-1.09221,0.52656-1.52971,0.52656H192.55L193.22501,105.68594 M192.5094,108.64688h1.689
			c1.41101,0,2.79221-1.03282,2.79221-2.14532c0-0.76562-0.6562-1.5-1.95779-1.5h-3.2187c-0.1875,0-0.29691,0-0.29691,0.18907
			c0,0.11875,0.0891,0.11875,0.28751,0.11875c0.1297,0,0.3078,0.00937,0.42659,0.02031
			c0.1593,0.01875,0.2187,0.04844,0.2187,0.15781c0,0.04063-0.0094,0.0703-0.03909,0.18906l-1.33121,5.33438
			c-0.09999,0.3875-0.11879,0.46719-0.90469,0.46719c-0.1687,0-0.27811,0-0.27811,0.18906c0,0.11875,0.1203,0.11875,0.15001,0.11875
			c0.27809,0,0.98279-0.02969,1.26089-0.02969c0.2094,0,0.42661,0.00938,0.636,0.00938c0.2187,0,0.4375,0.02031,0.64529,0.02031
			c0.0703,0,0.19841,0,0.19841-0.19844c0-0.10937-0.08911-0.10937-0.27811-0.10937c-0.3672,0-0.64529,0-0.64529-0.1797
			c0-0.05938,0.02029-0.10781,0.02969-0.16875L192.5094,108.64688z"/>
		<path class="st1" d="M198.2547,108.81563c0-0.19063-0.0141-0.19688-0.21091-0.19688c-0.45,0.44219-1.0891,0.44844-1.37819,0.44844
			v0.25312c0.16879,0,0.6328,0,1.02029-0.19687v3.58594c0,0.23281,0,0.32343-0.70309,0.32343h-0.2672v0.25313
			c0.12659-0.00625,0.99069-0.02813,1.25159-0.02813c0.21721,0,1.1031,0.02188,1.25781,0.02813v-0.25313h-0.26721
			c-0.70309,0-0.70309-0.09062-0.70309-0.32343V108.81563"/>
	</g>
	<g>
		<path class="st1" d="M124.125,105.79531c0.0891-0.34688,0.1094-0.37656,0.5359-0.37656h0.9547c0.8235,0,1.35,0.26875,1.35,0.95312
			c0,0.3875-0.1984,1.2422-0.5859,1.60001c-0.4969,0.44688-1.0922,0.52656-1.5297,0.52656h-1.4L124.125,105.79531
			 M123.40939,108.75626h1.68901c1.411,0,2.79219-1.03282,2.79219-2.14532c0-0.76562-0.6562-1.5-1.95779-1.5h-3.2187
			c-0.1875,0-0.2969,0-0.2969,0.18907c0,0.11875,0.0891,0.11875,0.2875,0.11875c0.1297,0,0.3078,0.00937,0.42661,0.02031
			c0.1593,0.01875,0.2187,0.04844,0.2187,0.15781c0,0.04063-0.0094,0.0703-0.0391,0.18906l-1.3312,5.33438
			c-0.1,0.3875-0.1188,0.46719-0.9047,0.46719c-0.1687,0-0.2781,0-0.2781,0.18906c0,0.11875,0.1203,0.11875,0.15,0.11875
			c0.2781,0,0.9828-0.02969,1.26089-0.02969c0.2094,0,0.42661,0.00938,0.636,0.00938c0.2187,0,0.4375,0.02031,0.6453,0.02031
			c0.0703,0,0.1984,0,0.1984-0.19844c0-0.10938-0.0891-0.10938-0.27811-0.10938c-0.3672,0-0.64529,0-0.64529-0.17969
			c0-0.05938,0.02029-0.10781,0.02969-0.16875L123.40939,108.75626z"/>
		<path class="st1" d="M130.35001,112.11562h-0.23911c-0.02029,0.15469-0.09061,0.57031-0.1828,0.64063
			c-0.0562,0.04219-0.5968,0.04219-0.6953,0.04219h-1.2937c0.7375-0.65469,0.9843-0.85156,1.4062-1.18125
			c0.52029-0.41563,1.0047-0.85156,1.0047-1.51875c0-0.85156-0.7453-1.37031-1.64531-1.37031
			c-0.8719,0-1.46249,0.61094-1.46249,1.2578c0,0.35783,0.3031,0.39375,0.3734,0.39375c0.16879,0,0.3719-0.12031,0.3719-0.37343
			c0-0.12657-0.0484-0.37188-0.41411-0.37188c0.21721-0.5,0.6954-0.65469,1.02661-0.65469
			c0.70309,0,1.06879,0.54844,1.06879,1.11875c0,0.61094-0.43599,1.09688-0.661,1.35l-1.6953,1.67345
			c-0.0703,0.0625-0.0703,0.07656-0.0703,0.27344h2.8969L130.35001,112.11562"/>
	</g>
	<g>
		<path class="st1" d="M54.925,105.725c0.0891-0.34688,0.1094-0.37656,0.5359-0.37656h0.9547c0.8235,0,1.35,0.26875,1.35,0.95312
			c0,0.3875-0.1984,1.2422-0.5859,1.60001c-0.4969,0.44688-1.0922,0.52656-1.5297,0.52656h-1.4L54.925,105.725 M54.2094,108.68594
			h1.689c1.411,0,2.7922-1.03282,2.7922-2.14532c0-0.76562-0.6562-1.5-1.9578-1.5h-3.2187c-0.1875,0-0.2969,0-0.2969,0.18907
			c0,0.11875,0.0891,0.11875,0.2875,0.11875c0.1297,0,0.3078,0.00937,0.4266,0.02031c0.1593,0.01875,0.2187,0.04844,0.2187,0.15781
			c0,0.04063-0.0094,0.0703-0.0391,0.18906L52.7797,111.05c-0.1,0.3875-0.1188,0.46719-0.9047,0.46719
			c-0.1687,0-0.2781,0-0.2781,0.18906c0,0.11875,0.1203,0.11875,0.15,0.11875c0.2781,0,0.9828-0.02969,1.2609-0.02969
			c0.2094,0,0.4266,0.00938,0.636,0.00938c0.2187,0,0.4375,0.02031,0.6453,0.02031c0.0703,0,0.1984,0,0.1984-0.19844
			c0-0.10938-0.0891-0.10938-0.2781-0.10938c-0.3672,0-0.6453,0-0.6453-0.17969c0-0.05938,0.0203-0.10781,0.0297-0.16875
			L54.2094,108.68594z"/>
		<path class="st1" d="M59.5188,110.97656c0.5484,0,0.9421,0.37969,0.9421,1.13281c0,0.87188-0.5062,1.13125-0.914,1.13125
			c-0.2813,0-0.9-0.07656-1.1953-0.49219c0.3312-0.01406,0.4078-0.24531,0.4078-0.39375c0-0.225-0.1688-0.38594-0.386-0.38594
			c-0.1968,0-0.3937,0.11875-0.3937,0.40781c0,0.66093,0.7312,1.08907,1.5812,1.08907c0.9782,0,1.6532-0.65313,1.6532-1.35625
			c0-0.54843-0.45-1.09687-1.2235-1.25938c0.7375-0.26719,1.0047-0.79375,1.0047-1.22343c0-0.5547-0.639-0.96875-1.4203-0.96875
			c-0.7797,0-1.3781,0.37813-1.3781,0.94063c0,0.23906,0.1547,0.37343,0.3656,0.37343c0.2188,0,0.3594-0.1625,0.3594-0.35937
			c0-0.20313-0.1406-0.35156-0.3594-0.36563c0.2469-0.30937,0.7313-0.38593,0.9922-0.38593c0.3156,0,0.7594,0.15469,0.7594,0.76563
			c0,0.29531-0.0985,0.61875-0.2813,0.8375c-0.2328,0.26719-0.4297,0.28125-0.7812,0.30156
			c-0.175,0.01407-0.1891,0.01407-0.225,0.02187c-0.0141,0-0.0703,0.01406-0.0703,0.09062c0,0.09844,0.064,0.09844,0.1828,0.09844
			H59.5188"/>
	</g>
	<g>
		<path class="st1" d="M279.64999,153.48125c0-0.02969-0.02029-0.09843-0.10941-0.09843c-0.02969,0-0.04059,0.00937-0.14999,0.11874
			l-0.69528,0.76563c-0.08902-0.13905-0.54532-0.88437-1.64841-0.88437c-2.21561,0-4.45001,2.19531-4.45001,4.5
			c0,1.57968,1.10312,2.72188,2.71091,2.72188c0.4375,0,0.8844-0.08907,1.24219-0.23906
			c0.49692-0.19844,0.68591-0.40625,0.86411-0.60626c0.09061,0.24844,0.34842,0.61719,0.44681,0.61719
			c0.04999,0,0.0704-0.02968,0.0704-0.04062c0.02029-0.02031,0.11868-0.39688,0.1687-0.60625l0.18909-0.76407
			c0.039-0.16875,0.08902-0.33749,0.12811-0.50624c0.10941-0.44688,0.1203-0.46719,0.68588-0.47813
			c0.05002,0,0.15942-0.00937,0.15942-0.19844c0-0.06876-0.05002-0.10938-0.1297-0.10938
			c-0.22812,0-0.81403,0.02969-1.04221,0.02969c-0.3078,0-1.08279-0.02969-1.39059-0.02969c-0.09061,0-0.20941,0-0.20941,0.2
			c0,0.10782,0.07971,0.10782,0.29849,0.10782c0.00931,0,0.2984,0,0.52652,0.02031c0.25778,0.02969,0.3078,0.05937,0.3078,0.18907
			c0,0.08905-0.10931,0.53593-0.20932,0.90468c-0.2782,1.09219-1.56879,1.20157-1.91721,1.20157
			c-0.95309,0-1.99689-0.56718-1.99689-2.08594c0-0.30782,0.10001-1.94688,1.1438-3.23906
			c0.53589-0.675,1.5-1.28125,2.48279-1.28125c1.01251,0,1.60001,0.76561,1.60001,1.91718
			c0,0.39688-0.03128,0.40782-0.03128,0.50626c0,0.09999,0.10938,0.09999,0.14999,0.09999c0.12808,0,0.12808-0.02031,0.1781-0.19843
			L279.64999,153.48125"/>
		<path class="st1" d="M285.8266,157.03593c0-0.03593-0.02191-0.09219-0.09219-0.09219c-0.04849,0-0.0625,0.01407-0.12662,0.08438
			l-0.51248,0.54062c-0.064-0.08437-0.45779-0.625-1.3219-0.625c-1.70779,0-3.3812,1.51094-3.3812,3.10001
			c0,1.09062,0.82968,1.98282,2.17969,1.98282c0.61871,0,1.27191-0.16095,1.63751-0.55469
			c0.07028,0.15468,0.2594,0.40781,0.34369,0.40781c0.06409,0,0.07819-0.02812,0.11249-0.17656l0.1344-0.54063
			c0.03442-0.12656,0.13281-0.54843,0.15472-0.63281c0.08438-0.31718,0.09058-0.32344,0.5062-0.33124
			c0.04849,0,0.15469,0,0.15469-0.14688c0-0.07031-0.04999-0.10625-0.1062-0.10625c-0.23129,0-0.52661,0.02812-0.7735,0.02812
			c-0.17499,0-0.40619,0-0.58279-0.00626c-0.17502-0.0078-0.3797-0.02187-0.55472-0.02187c-0.04999,0-0.1546,0-0.1546,0.15468
			c0,0.09845,0.07651,0.09845,0.25311,0.09845c0.13281,0,0.27341,0,0.40781,0.01405c0.22501,0.02188,0.2312,0.05,0.2312,0.13438
			c0,0.02812,0,0.04218-0.0484,0.22499c-0.05002,0.19687-0.12662,0.5125-0.15469,0.58281
			c-0.20471,0.42969-0.85782,0.61876-1.40622,0.61876c-0.70319,0-1.625-0.33751-1.625-1.52501
			c0-0.75313,0.3515-1.6953,0.8718-2.22188c0.72501-0.71718,1.47662-0.82968,1.87042-0.82968
			c0.81558,0,1.2937,0.59062,1.2937,1.37813c0,0.19688-0.02191,0.24532-0.02191,0.28749c0,0.09219,0.09219,0.09219,0.12659,0.09219
			c0.11252,0,0.11252-0.02188,0.14841-0.15469L285.8266,157.03593"/>
	</g>
	<g>
		<path class="st1" d="M279.25,105.1c0-0.02969-0.02029-0.09844-0.10941-0.09844c-0.02969,0-0.04059,0.00938-0.14999,0.11875
			l-0.69531,0.76563c-0.08899-0.13906-0.54529-0.88438-1.64838-0.88438c-2.21561,0-4.45001,2.19533-4.45001,4.50001
			c0,1.57969,1.10309,2.72188,2.71091,2.72188c0.4375,0,0.8844-0.08906,1.24219-0.23906
			c0.49692-0.19844,0.68591-0.40625,0.86411-0.60625c0.09061,0.24844,0.34839,0.61718,0.44681,0.61718
			c0.04999,0,0.0704-0.02968,0.0704-0.04062c0.02029-0.02031,0.11868-0.39688,0.1687-0.60625l0.18909-0.76406
			c0.039-0.16875,0.08899-0.3375,0.12811-0.50625c0.10938-0.44688,0.1203-0.46719,0.68588-0.47813
			c0.05002,0,0.15939-0.00937,0.15939-0.19844c0-0.06875-0.04999-0.10937-0.1297-0.10937c-0.22809,0-0.814,0.02969-1.04218,0.02969
			c-0.3078,0-1.08282-0.02969-1.39063-0.02969c-0.09058,0-0.20938,0-0.20938,0.2c0,0.10781,0.07968,0.10781,0.29849,0.10781
			c0.00931,0,0.2984,0,0.52649,0.02031c0.25781,0.02969,0.3078,0.05938,0.3078,0.18907c0,0.08906-0.10928,0.53593-0.20929,0.90468
			c-0.2782,1.09219-1.56879,1.20158-1.91721,1.20158c-0.95309,0-1.99689-0.56719-1.99689-2.08595
			c0-0.30781,0.10001-1.94688,1.1438-3.23906c0.53589-0.675,1.5-1.28125,2.48279-1.28125c1.01251,0,1.60001,0.76562,1.60001,1.91718
			c0,0.39688-0.03131,0.40782-0.03131,0.50625c0,0.1,0.10941,0.1,0.15002,0.1c0.12808,0,0.12808-0.02031,0.1781-0.19843
			L279.25,105.1"/>
		<path class="st1" d="M281.49689,113.44844c-0.32349,0-0.75308-0.18906-0.8938-0.76563
			c-0.09839-0.41563-0.09839-0.99219-0.09839-1.5125c0-0.5125,0-1.04687,0.1062-1.43437
			c0.14691-0.55469,0.59689-0.70156,0.88599-0.70156c0.3797,0,0.7453,0.23125,0.87192,0.63906
			c0.11249,0.37969,0.11868,0.88594,0.11868,1.49687c0,0.52032,0,1.04063-0.09058,1.48438
			C282.25629,113.29375,281.77811,113.44844,281.49689,113.44844 M283.12811,111.2625c0-0.77344-0.09222-1.32969-0.41562-1.82187
			c-0.21719-0.32344-0.65311-0.60313-1.21561-0.60313c-1.63129,0-1.63129,1.91875-1.63129,2.425
			c0,0.50626,0,2.38282,1.63129,2.38282C283.12811,113.64532,283.12811,111.76875,283.12811,111.2625z"/>
	</g>
	<g>
		<path class="st1" d="M210.54999,105.1c0-0.02969-0.02029-0.09844-0.10939-0.09844c-0.02971,0-0.0406,0.00938-0.15001,0.11875
			l-0.69528,0.76563c-0.08902-0.13906-0.54532-0.88438-1.64841-0.88438c-2.21561,0-4.45001,2.19533-4.45001,4.50001
			c0,1.57969,1.10312,2.72188,2.71091,2.72188c0.4375,0,0.8844-0.08906,1.2422-0.23906
			c0.4969-0.19844,0.6859-0.40625,0.86409-0.60625c0.09061,0.24844,0.34842,0.61718,0.44681,0.61718
			c0.05,0,0.0704-0.02968,0.0704-0.04062c0.02029-0.02031,0.1187-0.39688,0.1687-0.60625l0.18909-0.76406
			c0.039-0.16875,0.08902-0.3375,0.12811-0.50625c0.10941-0.44688,0.1203-0.46719,0.6859-0.47813
			c0.05,0,0.15941-0.00937,0.15941-0.19844c0-0.06875-0.05002-0.10937-0.1297-0.10937c-0.22812,0-0.81401,0.02969-1.04221,0.02969
			c-0.3078,0-1.08279-0.02969-1.39059-0.02969c-0.09061,0-0.20941,0-0.20941,0.2c0,0.10781,0.07971,0.10781,0.29849,0.10781
			c0.00931,0,0.2984,0,0.52652,0.02031c0.25778,0.02969,0.3078,0.05938,0.3078,0.18907c0,0.08906-0.10931,0.53593-0.20932,0.90468
			c-0.2782,1.09219-1.56879,1.20158-1.91719,1.20158c-0.95311,0-1.9969-0.56719-1.9969-2.08595
			c0-0.30781,0.10001-1.94688,1.1438-3.23906c0.5359-0.675,1.5-1.28125,2.4828-1.28125c1.0125,0,1.59999,0.76562,1.59999,1.91718
			c0,0.39688-0.03128,0.40782-0.03128,0.50625c0,0.1,0.10939,0.1,0.14999,0.1c0.1281,0,0.1281-0.02031,0.1781-0.19843
			L210.54999,105.1"/>
		<path class="st1" d="M213.15469,109.03438c0-0.19063-0.0141-0.19688-0.21091-0.19688
			c-0.44998,0.44219-1.08908,0.44844-1.37819,0.44844v0.25312c0.16881,0,0.6328,0,1.02031-0.19687v3.58594
			c0,0.23281,0,0.32343-0.70311,0.32343h-0.2672v0.25313c0.12659-0.00625,0.99069-0.02813,1.25159-0.02813
			c0.21721,0,1.10312,0.02188,1.25781,0.02813v-0.25313h-0.26721c-0.70309,0-0.70309-0.09062-0.70309-0.32343V109.03438"/>
	</g>
	<g>
		<path class="st1" d="M141.85001,105.1c0-0.02969-0.02-0.09844-0.10901-0.09844c-0.03,0-0.041,0.00938-0.14999,0.11875
			l-0.69601,0.76563c-0.08899-0.13906-0.54498-0.88438-1.64799-0.88438c-2.2157,0-4.45009,2.19532-4.45009,4.5
			c0,1.5797,1.10309,2.72189,2.71089,2.72189c0.4375,0,0.8844-0.08907,1.2422-0.23906c0.49699-0.19844,0.686-0.40625,0.864-0.60625
			c0.09099,0.24843,0.349,0.61718,0.44701,0.61718c0.04999,0,0.06999-0.02968,0.06999-0.04062
			c0.02101-0.02031,0.119-0.39688,0.16899-0.60625l0.18901-0.76406c0.039-0.16875,0.089-0.3375,0.12801-0.50625
			c0.10999-0.44688,0.121-0.46719,0.686-0.47813c0.04999,0,0.15999-0.00937,0.15999-0.19844c0-0.06875-0.05-0.10937-0.12999-0.10937
			c-0.22801,0-0.81401,0.02969-1.04202,0.02969c-0.30798,0-1.08298-0.02969-1.39099-0.02969c-0.09061,0-0.2094,0-0.2094,0.2
			c0,0.10781,0.0797,0.10781,0.29851,0.10781c0.00929,0,0.29889,0,0.52689,0.02031c0.257,0.02969,0.30701,0.05938,0.30701,0.18907
			c0,0.08906-0.10901,0.53593-0.209,0.90468c-0.278,1.09219-1.56871,1.20157-1.9171,1.20157
			c-0.95309,0-1.9969-0.56718-1.9969-2.08594c0-0.30781,0.09999-1.94688,1.1438-3.23906c0.5359-0.675,1.5-1.28125,2.4832-1.28125
			c1.01199,0,1.60001,0.76562,1.60001,1.91718c0,0.39687-0.03201,0.40781-0.03201,0.50625c0,0.1,0.11002,0.1,0.15001,0.1
			c0.12801,0,0.12801-0.02031,0.17799-0.19843L141.85001,105.1"/>
		<path class="st1" d="M145.64999,112.225h-0.239c-0.02,0.15469-0.091,0.57031-0.183,0.64063
			c-0.056,0.04219-0.59698,0.04219-0.69501,0.04219H143.239c0.73799-0.65469,0.98399-0.85156,1.40599-1.18125
			c0.52101-0.41563,1.005-0.85156,1.005-1.51875c0-0.85156-0.745-1.37031-1.64499-1.37031
			c-0.87201,0-1.46301,0.61094-1.46301,1.2578c0,0.35783,0.30301,0.39375,0.37401,0.39375
			c0.16798,0,0.37199-0.12031,0.37199-0.37343c0-0.12657-0.049-0.37188-0.41501-0.37188
			c0.21802-0.5,0.69601-0.65469,1.02701-0.65469c0.703,0,1.069,0.54844,1.069,1.11875c0,0.61094-0.436,1.09688-0.66101,1.35
			l-1.69498,1.67345c-0.07101,0.0625-0.07101,0.07656-0.07101,0.27344h2.897L145.64999,112.225"/>
	</g>
	<g>
		<path class="st1" d="M71.83101,105.02969c0-0.02969-0.02-0.09844-0.109-0.09844c-0.03001,0-0.041,0.00938-0.15,0.11875
			l-0.69601,0.76563c-0.08899-0.13906-0.54499-0.88438-1.64799-0.88438c-2.216,0-4.45,2.19532-4.45,4.5
			c0,1.5797,1.103,2.72189,2.711,2.72189c0.437,0,0.88401-0.08907,1.242-0.23906c0.497-0.19844,0.686-0.40625,0.86401-0.60625
			c0.091,0.24843,0.349,0.61718,0.447,0.61718c0.05,0,0.07001-0.02968,0.07001-0.04062
			c0.021-0.02031,0.11899-0.39688,0.16899-0.60625l0.189-0.76406c0.039-0.16875,0.089-0.3375,0.128-0.50625
			c0.11-0.44688,0.121-0.46719,0.686-0.47813c0.05,0,0.16-0.00937,0.16-0.19844c0-0.06875-0.05-0.10937-0.13-0.10937
			c-0.22799,0-0.814,0.02969-1.04199,0.02969c-0.30801,0-1.08301-0.02969-1.39101-0.02969c-0.091,0-0.20899,0-0.20899,0.2
			c0,0.10781,0.07899,0.10781,0.298,0.10781c0.009,0,0.299,0,0.527,0.02031c0.257,0.02969,0.30699,0.05938,0.30699,0.18907
			c0,0.08906-0.10899,0.53593-0.20899,0.90468c-0.27801,1.09219-1.56901,1.20157-1.91701,1.20157
			c-0.953,0-1.99699-0.56718-1.99699-2.08594c0-0.30781,0.1-1.94688,1.14399-3.23906c0.53601-0.675,1.5-1.28125,2.48301-1.28125
			c1.012,0,1.6,0.76562,1.6,1.91718c0,0.39687-0.03201,0.40781-0.03201,0.50625c0,0.1,0.11001,0.1,0.15,0.1
			c0.12801,0,0.12801-0.02031,0.178-0.19843L71.83101,105.02969"/>
		<path class="st1" d="M74,111.08594c0.54801,0,0.942,0.37969,0.942,1.13281c0,0.87188-0.50599,1.13125-0.914,1.13125
			c-0.28099,0-0.89999-0.07656-1.19499-0.49219c0.33099-0.01406,0.407-0.24531,0.407-0.39375c0-0.225-0.168-0.38594-0.386-0.38594
			c-0.196,0-0.39299,0.11875-0.39299,0.40781c0,0.66093,0.73099,1.08907,1.58099,1.08907c0.978,0,1.653-0.65313,1.653-1.35625
			c0-0.54843-0.45-1.09687-1.223-1.25938c0.737-0.26719,1.00399-0.79375,1.00399-1.22343c0-0.5547-0.63898-0.96875-1.41999-0.96875
			c-0.78001,0-1.37801,0.37813-1.37801,0.94063c0,0.23906,0.15501,0.37343,0.366,0.37343c0.218,0,0.35899-0.1625,0.35899-0.35937
			c0-0.20313-0.14099-0.35156-0.35899-0.36563c0.24599-0.30937,0.731-0.38593,0.992-0.38593c0.31499,0,0.759,0.15469,0.759,0.76563
			c0,0.29531-0.098,0.61875-0.28101,0.8375c-0.23299,0.26719-0.42999,0.28125-0.78099,0.30156
			c-0.175,0.01407-0.189,0.01407-0.225,0.02187c-0.01401,0-0.071,0.01406-0.071,0.09062c0,0.09844,0.06399,0.09844,0.183,0.09844H74
			"/>
	</g>
	<g>
	</g>
	<g>
	</g>
	<g>
	</g>
	<g>
	</g>
	<g>
	</g>
	<g>
	</g>
	<g>
	</g>
	<g>
	</g>
	<g>
	</g>
	<g>
	</g>
	<g>
	</g>
	<g>
	</g>
</g>
</svg>
