<svg xmlns="http://www.w3.org/2000/svg" viewBox="0 0 87.66553 126.8328">
  <defs>
    <style>
      .cls-1, .cls-2 {
        fill: none;
        stroke: #8ff4dd;
        stroke-miterlimit: 10;
        stroke-width: 2px;
      }

      .cls-2 {
        stroke-linecap: square;
      }

      .cls-3 {
        fill: #8ff4dd;
      }
    </style>
  </defs>
  <title>4to2Multiplexer</title>
  <g id="Layer_1" data-name="Layer 1">
    <polygon class="cls-1" points="60.057 49.698 60.057 99.698 30.057 124.698 30.057 24.698 60.057 49.698"/>
    <line class="cls-1" x1="60.05713" y1="74.69775" x2="80.05713" y2="74.69775"/>
    <line class="cls-2" x1="10.05713" y1="45.69775" x2="30.05713" y2="45.69775"/>
    <line class="cls-2" x1="10.05713" y1="64.69775" x2="30.05713" y2="64.69775"/>
    <line class="cls-2" x1="10.05713" y1="84.69775" x2="30.05713" y2="84.69775"/>
    <line class="cls-2" x1="10.05713" y1="104.69775" x2="30.05713" y2="104.69775"/>
    <line class="cls-1" x1="54.05713" y1="44.69775" x2="54.05713" y2="12.69775"/>
    <line class="cls-1" x1="40.05713" y1="32.69775" x2="40.05713" y2="12.69775"/>
  </g>
  <g id="Layer_2" data-name="Layer 2">
    <g>
      <path class="cls-3" d="M71.46191,73.31836c-.37939,0-1.16894,0-1.519.02978v-.31005h.25977c.78955,0,.81982-.10987.81982-.46973V67.30127c0-.35938-.03027-.46973-.81982-.46973h-.25977V66.522c.3501.02979,1.13965.02979,1.5293.02979.37988,0,1.16943,0,1.519-.02979v.30957h-.25976c-.78956,0-.81983.11035-.81983.46973v5.26709c0,.35986.03027.46973.81983.46973h.25976v.31005C72.6416,73.31836,71.85205,73.31836,71.46191,73.31836Z" transform="translate(-69.94287 -25.30225)"/>
      <path class="cls-3" d="M75.73877,76.13037a1.08973,1.08973,0,0,1-1.97607.0874,2.94952,2.94952,0,0,1-.26221-1.40478,3.11768,3.11768,0,0,1,.21533-1.32324A1.06865,1.06865,0,0,1,74.73,72.79639a1.08084,1.08084,0,0,1,.99121.65283,4.123,4.123,0,0,1,.01758,2.68115Zm-.32666-2.52392c-.11084-.57715-.49561-.68213-.688-.68213-.14551,0-.58252.05273-.69336.74609a7.78341,7.78341,0,0,0-.04687,1.07275,7.9091,7.9091,0,0,0,.06445,1.23c.105.55957.44873.70508.67578.70508.2627,0,.59473-.1748.68213-.72851a11.2829,11.2829,0,0,0,.00586-2.34326Z" transform="translate(-69.94287 -25.30225)"/>
    </g>
    <g>
      <path class="cls-3" d="M71.46191,92.31836c-.37939,0-1.16894,0-1.519.02978v-.31005h.25977c.78955,0,.81982-.10987.81982-.46973V86.30127c0-.35938-.03027-.46973-.81982-.46973h-.25977V85.522c.3501.02979,1.13965.02979,1.5293.02979.37988,0,1.16943,0,1.519-.02979v.30957h-.25976c-.78956,0-.81983.11035-.81983.46973v5.26709c0,.35986.03027.46973.81983.46973h.25976v.31005C72.6416,92.31836,71.85205,92.31836,71.46191,92.31836Z" transform="translate(-69.94287 -25.30225)"/>
      <path class="cls-3" d="M74.771,95.66064c-.2334,0-.74024,0-.94434.01758v-.18066h.18652c.52442,0,.542-.06983.542-.27979V92.19824a1.743,1.743,0,0,1-.76368.15186v-.18067a1.44051,1.44051,0,0,0,1.061-.373c.13428,0,.13428.01123.13428.15136v3.27c0,.21582.01709.27979.542.27979h.18652v.18066C75.51123,95.66064,75.00391,95.66064,74.771,95.66064Z" transform="translate(-69.94287 -25.30225)"/>
    </g>
    <g>
      <path class="cls-3" d="M71.46191,112.31836c-.37939,0-1.16894,0-1.519.02978v-.31005h.25977c.78955,0,.81982-.10987.81982-.46973v-5.26709c0-.35938-.03027-.46973-.81982-.46973h-.25977V105.522c.3501.02979,1.13965.02979,1.5293.02979.37988,0,1.16943,0,1.519-.02979v.30957h-.25976c-.78956,0-.81983.11035-.81983.46973v5.26709c0,.35986.03027.46973.81983.46973h.25976v.31005C72.6416,112.31836,71.85205,112.31836,71.46191,112.31836Z" transform="translate(-69.94287 -25.30225)"/>
      <path class="cls-3" d="M75.72705,115.67822h-2.1626c0-.14013,0-.15136.064-.21582l1.11914-1.24707a2.087,2.087,0,0,0,.6123-1.28857c0-.47754-.251-.94971-.78125-.94971a.84087.84087,0,0,0-.78711.59424.22314.22314,0,0,1,.07618-.00586.29511.29511,0,0,1,.30859.30322.30626.30626,0,1,1-.61182-.01758,1.07669,1.07669,0,0,1,1.08985-1.05468,1.1449,1.1449,0,0,1,1.23584,1.13037c0,.583-.34961.89795-1.25928,1.70215l-.61768.60058H75.0625a1.89159,1.89159,0,0,0,.55371-.04687,1.91211,1.91211,0,0,0,.12793-.51856h.146Z" transform="translate(-69.94287 -25.30225)"/>
    </g>
    <g>
      <path class="cls-3" d="M71.46191,133.31836c-.37939,0-1.16894,0-1.519.02978v-.31h.25977c.78955,0,.81982-.10987.81982-.46973v-5.26709c0-.35938-.03027-.46973-.81982-.46973h-.25977V126.522c.3501.02979,1.13965.02979,1.5293.02979.37988,0,1.16943,0,1.519-.02979v.30957h-.25976c-.78956,0-.81983.11035-.81983.46973v5.26709c0,.35986.03027.46973.81983.46973h.25976v.31C72.6416,133.31836,71.85205,133.31836,71.46191,133.31836Z" transform="translate(-69.94287 -25.30225)"/>
      <path class="cls-3" d="M74.69531,136.80664a1.06351,1.06351,0,0,1-1.17773-.91553.32651.32651,0,1,1,.65283-.01123.319.319,0,0,1-.38428.32032,1.06045,1.06045,0,0,0,.8916.44287c.25635,0,.6587-.16895.6587-.96143,0-.57129-.21582-.96777-.69385-.96777h-.25635c-.09912,0-.13965,0-.13965-.064,0-.05859.04053-.06445.0874-.06982.04053,0,.18067-.01172.22706-.01758a.56509.56509,0,0,0,.519-.30322,1.45712,1.45712,0,0,0,.16308-.66455c0-.52442-.3208-.65284-.55957-.65284a.94458.94458,0,0,0-.77539.36133c.08741,0,.36133,0,.36133.29151a.29715.29715,0,1,1-.59424-.00586c0-.44287.44287-.79248,1.03174-.79248.55957,0,1.07227.32617,1.07227.8042a1.122,1.122,0,0,1-.81592,1.02587,1.12453,1.12453,0,0,1,.97314,1.05518A1.189,1.189,0,0,1,74.69531,136.80664Z" transform="translate(-69.94287 -25.30225)"/>
    </g>
    <path class="cls-3" d="M107.85693,73.2627a1.86873,1.86873,0,0,1-3.38818.1499,5.06487,5.06487,0,0,1-.44971-2.40869,5.34273,5.34273,0,0,1,.37012-2.26856,1.83168,1.83168,0,0,1,1.73877-1.18945,1.85314,1.85314,0,0,1,1.69922,1.11914,7.05817,7.05817,0,0,1,.02978,4.59766Zm-.55957-4.32764c-.18994-.98926-.84961-1.16943-1.1792-1.16943-.25,0-.99951.08984-1.18945,1.27929a13.38178,13.38178,0,0,0-.08008,1.83887,13.63106,13.63106,0,0,0,.10987,2.10889c.18017.95947.76953,1.20947,1.15966,1.20947.44971,0,1.01954-.29981,1.16944-1.24951a12.38527,12.38527,0,0,0,.10986-2.06885A12.26861,12.26861,0,0,0,107.29736,68.93506Z" transform="translate(-69.94287 -25.30225)"/>
    <path class="cls-3" d="M106.19775,93.17236c-.39941,0-1.269,0-1.61865.02979v-.31006h.31983c.89941,0,.9292-.11963.9292-.47949V87.23535a2.99353,2.99353,0,0,1-1.30909.25977v-.30957a2.46908,2.46908,0,0,0,1.81885-.63965c.23,0,.23.02.23.25976V92.4126c0,.36963.02979.47949.9292.47949h.31982v.31006C107.46729,93.17236,106.59766,93.17236,106.19775,93.17236Z" transform="translate(-69.94287 -25.30225)"/>
    <path class="cls-3" d="M107.83691,112.20215h-3.708c0-.23975,0-.25977.11035-.36963l1.91894-2.13916a3.58207,3.58207,0,0,0,1.04932-2.2085c0-.81982-.42969-1.62939-1.33936-1.62939A1.44175,1.44175,0,0,0,104.519,106.875a.38758.38758,0,0,1,.12989-.00977.50587.50587,0,0,1,.52978.51954.52546.52546,0,1,1-1.0498-.02979,1.84676,1.84676,0,0,1,1.86914-1.80908,1.9631,1.9631,0,0,1,2.11865,1.939c0,.99952-.59961,1.53907-2.15869,2.91846l-1.05908,1.0293h1.79882a3.25008,3.25008,0,0,0,.94922-.08008,3.29549,3.29549,0,0,0,.22022-.88965h.24951Z" transform="translate(-69.94287 -25.30225)"/>
    <path class="cls-3" d="M106.3374,132.75928a1.82259,1.82259,0,0,1-2.01855-1.56885.55975.55975,0,1,1,1.11914-.02.54744.54744,0,0,1-.65967.5498,1.8201,1.8201,0,0,0,1.5293.75928c.43994,0,1.12939-.28955,1.12939-1.64892,0-.9795-.36963-1.65918-1.18945-1.65918h-.43945c-.16993,0-.24024,0-.24024-.10987,0-.10009.07031-.10986.1499-.12011.07032,0,.31006-.02.39014-.02979a.96868.96868,0,0,0,.88916-.52,2.494,2.494,0,0,0,.27979-1.13916c0-.89941-.54932-1.11914-.95948-1.11914a1.62013,1.62013,0,0,0-1.3291.61963c.1499,0,.61963,0,.61963.49951a.50981.50981,0,1,1-1.01953-.00976c0-.75977.75976-1.35938,1.769-1.35938.95947,0,1.83936.55957,1.83936,1.3794a1.92482,1.92482,0,0,1-1.39942,1.75878,1.92757,1.92757,0,0,1,1.66895,1.80909A2.0382,2.0382,0,0,1,106.3374,132.75928Z" transform="translate(-69.94287 -25.30225)"/>
    <g>
      <path class="cls-3" d="M109.68164,32.56787a2.50468,2.50468,0,0,1-1.83935-.69971c-.32959.52979-.35987.56983-.35987.56983-.06982.10986-.07959.12988-.1499.12988-.10986,0-.10986-.06982-.10986-.23974v-1.999c0-.17969,0-.24951.12988-.24951a.104.104,0,0,1,.12012.09961,2.02127,2.02127,0,0,0,.61963,1.53906,2.41158,2.41158,0,0,0,1.5791.54,1.37054,1.37054,0,0,0,1.33935-1.4292,1.45885,1.45885,0,0,0-.31006-.91943,1.32538,1.32538,0,0,0-.84912-.50977c-.6997-.16992-1.20947-.29-1.31933-.33008a1.93586,1.93586,0,0,1,.63965-3.76757,2.058,2.058,0,0,1,1.59912.69921l.34961-.56933c.06982-.12012.08007-.12988.1499-.12988.10986,0,.10986.06982.10986.23974v2.00879c0,.18994,0,.23975-.12988.23975-.10986,0-.10986-.06006-.11963-.11963-.06006-.44971-.28027-2.08887-1.94922-2.08887a1.3064,1.3064,0,0,0-.30957,2.57861l1.2793.30957a2.045,2.045,0,0,1,1.499,2.01905A2.00366,2.00366,0,0,1,109.68164,32.56787Z" transform="translate(-69.94287 -25.30225)"/>
      <path class="cls-3" d="M114.689,35.13037a1.08973,1.08973,0,0,1-1.97607.0874,2.94952,2.94952,0,0,1-.26221-1.40478,3.11753,3.11753,0,0,1,.21534-1.32324,1.06865,1.06865,0,0,1,1.01416-.69336,1.08085,1.08085,0,0,1,.99121.65283,3.11956,3.11956,0,0,1,.23291,1.36377A3.10572,3.10572,0,0,1,114.689,35.13037Zm-.32666-2.52392c-.11084-.57715-.4956-.68213-.688-.68213-.14551,0-.58252.05273-.69336.74609a7.78177,7.78177,0,0,0-.04688,1.07275,7.90789,7.90789,0,0,0,.06446,1.23c.105.55957.44873.70508.67578.70508.26269,0,.59472-.1748.68213-.72851a7.23768,7.23768,0,0,0,.064-1.20655A7.18862,7.18862,0,0,0,114.3623,32.60645Z" transform="translate(-69.94287 -25.30225)"/>
    </g>
    <g>
      <path class="cls-3" d="M123.68164,32.56787a2.50468,2.50468,0,0,1-1.83935-.69971c-.32959.52979-.35987.56983-.35987.56983-.06982.10986-.07959.12988-.1499.12988-.10986,0-.10986-.06982-.10986-.23974v-1.999c0-.17969,0-.24951.12988-.24951a.104.104,0,0,1,.12012.09961,2.02127,2.02127,0,0,0,.61963,1.53906,2.41158,2.41158,0,0,0,1.5791.54,1.37054,1.37054,0,0,0,1.33935-1.4292,1.45885,1.45885,0,0,0-.31006-.91943,1.32538,1.32538,0,0,0-.84912-.50977c-.6997-.16992-1.20947-.29-1.31933-.33008a1.93586,1.93586,0,0,1,.63965-3.76757,2.058,2.058,0,0,1,1.59912.69921l.34961-.56933c.06982-.12012.08007-.12988.1499-.12988.10986,0,.10986.06982.10986.23974v2.00879c0,.18994,0,.23975-.12988.23975-.10986,0-.10986-.06006-.11963-.11963-.06006-.44971-.28027-2.08887-1.94922-2.08887a1.3064,1.3064,0,0,0-.30957,2.57861l1.2793.30957a2.045,2.045,0,0,1,1.499,2.01905A2.00366,2.00366,0,0,1,123.68164,32.56787Z" transform="translate(-69.94287 -25.30225)"/>
      <path class="cls-3" d="M127.72119,35.66064c-.2334,0-.74023,0-.94433.01758v-.18066h.18652c.52441,0,.542-.06983.542-.27979V32.19824a1.74294,1.74294,0,0,1-.76367.15186v-.18067a1.44049,1.44049,0,0,0,1.061-.373c.13428,0,.13428.01123.13428.15136v3.27c0,.21582.01709.27979.542.27979h.18653v.18066C128.46143,35.66064,127.9541,35.66064,127.72119,35.66064Z" transform="translate(-69.94287 -25.30225)"/>
    </g>
    <path class="cls-3" d="M157.43848,103.15723h-4.60791c-.20948,0-.25977,0-.25977-.16993,0-.08007,0-.08984.07031-.1997l3.8877-6.147h-1.56934c-1.63916,0-1.939.80957-2.00879,1.939h-.25l.10987-2.24854h4.47754c.20019,0,.26025,0,.26025.15967,0,.07032,0,.08008-.07031.18994l-3.87744,6.13672h1.63867c1.84912,0,2.03906-.93945,2.11914-2.32861h.25Z" transform="translate(-69.94287 -25.30225)"/>
  </g>
</svg>
