<svg xmlns="http://www.w3.org/2000/svg" viewBox="0 0 303.38574 108.80664">
  <defs>
    <style>
      .cls-1, .cls-3, .cls-4 {
        fill: none;
        stroke: #8ff4dd;
        stroke-width: 2px;
      }

      .cls-1, .cls-3 {
        stroke-miterlimit: 10;
      }

      .cls-2, .cls-5 {
        fill: #8ff4dd;
      }

      .cls-3 {
        stroke-linecap: square;
      }

      .cls-5 {
        fill-rule: evenodd;
      }
    </style>
  </defs>
  <title>4to1MultiplexerImplementation</title>
  <g id="Layer_1" data-name="Layer 1">
    <rect class="cls-1" x="29.77734" y="1" width="60" height="100"/>
    <g>
      <path class="cls-2" d="M107.83691,78.20215h-3.708c0-.23975,0-.25977.11035-.36963l1.91894-2.13916a3.58207,3.58207,0,0,0,1.04932-2.2085c0-.81982-.42969-1.62939-1.33936-1.62939A1.44175,1.44175,0,0,0,104.519,72.875a.38758.38758,0,0,1,.12989-.00977.50587.50587,0,0,1,.52978.51954.52546.52546,0,1,1-1.0498-.02979,1.84676,1.84676,0,0,1,1.86914-1.80908,1.9631,1.9631,0,0,1,2.11865,1.939c0,.99952-.59961,1.53907-2.15869,2.91846l-1.05908,1.0293h1.79882a3.25008,3.25008,0,0,0,.94922-.08008,3.29549,3.29549,0,0,0,.22022-.88965h.24951Z" transform="translate(-70.22266 -49)"/>
      <path class="cls-2" d="M111.09521,74.32422a1.08973,1.08973,0,0,1-1.97607.0874,2.94952,2.94952,0,0,1-.26221-1.40478,3.1176,3.1176,0,0,1,.21534-1.32325,1.06866,1.06866,0,0,1,1.01416-.69336,1.08087,1.08087,0,0,1,.99121.65284,4.12292,4.12292,0,0,1,.01757,2.68115Zm-.32666-2.52393c-.11084-.57715-.4956-.68213-.688-.68213-.14551,0-.58252.05274-.69336.7461a7.78169,7.78169,0,0,0-.04688,1.07275,7.908,7.908,0,0,0,.06446,1.23c.105.55957.44873.70508.67578.70508.26269,0,.59472-.1748.68213-.72852a11.282,11.282,0,0,0,.00585-2.34326Z" transform="translate(-70.22266 -49)"/>
    </g>
    <line class="cls-3" x1="9.77734" y1="26" x2="29.77734" y2="26"/>
    <line class="cls-3" x1="9.77734" y1="76" x2="29.77734" y2="76"/>
    <g>
      <path class="cls-2" d="M107.83691,128.20215h-3.708c0-.23975,0-.25977.11035-.36963l1.91894-2.13916a3.58207,3.58207,0,0,0,1.04932-2.2085c0-.81982-.42969-1.62939-1.33936-1.62939A1.44175,1.44175,0,0,0,104.519,122.875a.38758.38758,0,0,1,.12989-.00977.50587.50587,0,0,1,.52978.51954.52546.52546,0,1,1-1.0498-.02979,1.84676,1.84676,0,0,1,1.86914-1.80908,1.9631,1.9631,0,0,1,2.11865,1.939c0,.99952-.59961,1.53907-2.15869,2.91846l-1.05908,1.0293h1.79882a3.25008,3.25008,0,0,0,.94922-.08008,3.29549,3.29549,0,0,0,.22022-.88965h.24951Z" transform="translate(-70.22266 -49)"/>
      <path class="cls-2" d="M110.12744,124.85449c-.2334,0-.74023,0-.94433.01758v-.18066h.18652c.52441,0,.542-.06983.542-.27979v-3.01953a1.74294,1.74294,0,0,1-.76367.15186v-.18067a1.44046,1.44046,0,0,0,1.061-.37305c.13428,0,.13428.01172.13428.15137v3.27c0,.21582.01709.27979.542.27979h.18653v.18066C110.86768,124.85449,110.36035,124.85449,110.12744,124.85449Z" transform="translate(-70.22266 -49)"/>
    </g>
    <g>
      <g>
        <path class="cls-2" d="M119.76758,94.75781h-3.708c0-.23974,0-.25976.11035-.36963l1.91895-2.13916a3.58017,3.58017,0,0,0,1.0498-2.20849c0-.81983-.42969-1.6294-1.33984-1.6294a1.44117,1.44117,0,0,0-1.34863,1.01953.38616.38616,0,0,1,.12988-.00976.50545.50545,0,0,1,.5293.51953.52547.52547,0,1,1-1.04981-.02979,1.84709,1.84709,0,0,1,1.86914-1.80908,1.96326,1.96326,0,0,1,2.11914,1.939c0,.99951-.59961,1.53906-2.15918,2.91845l-1.05859,1.0293h1.79883a3.25186,3.25186,0,0,0,.94922-.08008,3.29251,3.29251,0,0,0,.21972-.88965h.25Z" transform="translate(-70.22266 -49)"/>
        <path class="cls-2" d="M120.66992,92.88867v-.57959h2.64844v.57959Z" transform="translate(-70.22266 -49)"/>
        <path class="cls-2" d="M126.21875,94.86768a1.209,1.209,0,0,1-1.28906-1.34913v-2.7583h-.84961V90.54c.97949-.04,1.2793-1.10938,1.28906-1.92871h.25V90.4502h1.42969v.31005h-1.42969v2.77832c0,.16993,0,1.07911.66992,1.07911.37012,0,.66992-.3794.66992-1.11914v-.54981h.25v.56982C127.209,94.1582,126.92871,94.86768,126.21875,94.86768Z" transform="translate(-70.22266 -49)"/>
        <path class="cls-2" d="M130.26855,94.86768a2.23071,2.23071,0,0,1-2.209-2.24854,2.21721,2.21721,0,1,1,4.42773,0A2.22691,2.22691,0,0,1,130.26855,94.86768Zm1.12891-3.71778a1.30955,1.30955,0,0,0-1.12891-.6499,1.34027,1.34027,0,0,0-1.13964.66992,2.87133,2.87133,0,0,0-.23926,1.36914,2.98292,2.98292,0,0,0,.249,1.40918,1.3066,1.3066,0,0,0,1.13965.66944,1.28844,1.28844,0,0,0,1.15918-.73926,3.03847,3.03847,0,0,0,.21973-1.33936A2.7435,2.7435,0,0,0,131.39746,91.1499Z" transform="translate(-70.22266 -49)"/>
        <path class="cls-2" d="M132.89063,92.88867v-.57959h2.64843v.57959Z" transform="translate(-70.22266 -49)"/>
        <path class="cls-2" d="M139.81738,93.10889V93.978c0,.35986.01953.46972.75977.46972h.21v.31006c-.41016-.02978-.93945-.02978-1.35938-.02978s-.93945,0-1.3496.02978v-.31006h.21c.73925,0,.75976-.10986.75976-.46972v-.86914h-2.6582v-.31006l3.06836-4.6875c.0791-.11963.10937-.11963.19922-.11963.16015,0,.16015.05957.16015.25976v4.54737h.999v.31006Zm-.71-4.03809-2.43847,3.728h2.43847Z" transform="translate(-70.22266 -49)"/>
        <path class="cls-2" d="M141.21973,92.88867v-.57959h2.64843v.57959Z" transform="translate(-70.22266 -49)"/>
      </g>
      <g>
        <path class="cls-2" d="M123.65967,104.72754l-1.10938.02978v-.31005c.66895,0,.7793,0,.7793-.44971V98.80078c0-.48974-.08008-.56006-.7793-.56006v-.30957l1.43848-.10986v6.17627c0,.44971.11035.44971.78027.44971v.31005Z" transform="translate(-70.22266 -49)"/>
        <path class="cls-2" d="M126.43018,104.72754l-1.09961.02978v-.31005c.66894,0,.77929,0,.77929-.44971v-2.68848c0-.48974-.08984-.5498-.73925-.5498v-.30957l1.39843-.10987v3.668c0,.38965.04.43946.7002.43946v.31005C127.12939,104.74756,126.77979,104.72754,126.43018,104.72754Zm-.05079-5.47705a.52983.52983,0,1,1,.54-.52979A.53936.53936,0,0,1,126.37939,99.25049Z" transform="translate(-70.22266 -49)"/>
        <path class="cls-2" d="M132.00732,104.72754l-1.1289.02978v-.31005c.66894,0,.77929,0,.77929-.44971V101.669c0-.56983-.11035-1.10938-.73925-1.10938a1.45981,1.45981,0,0,0-1.34961,1.59912v1.83887c0,.44971.11035.44971.77929.44971v.31005l-1.11914-.02978-1.12988.02978v-.31005c.66992,0,.78027,0,.78027-.44971v-2.67822c0-.48975-.08007-.56006-.78027-.56006v-.30957l1.41016-.10987v1.04932a1.57424,1.57424,0,0,1,1.47851-1.04932,1.33244,1.33244,0,0,1,1.04981.36963c.30957.35987.30957.66992.30957,1.5293v1.90869c.00976.29981.25976.29981.77929.29981v.31005Z" transform="translate(-70.22266 -49)"/>
        <path class="cls-2" d="M135.81885,104.86719a2.25584,2.25584,0,0,1-2.19824-2.3086,2.18358,2.18358,0,0,1,2.07812-2.2788,1.77235,1.77235,0,0,1,1.78906,1.959c0,.21-.02929.21-.25.21h-2.78808a2.90957,2.90957,0,0,0,.2998,1.499,1.34587,1.34587,0,0,0,1.12988.66944,1.408,1.408,0,0,0,1.34864-1.0293c.02051-.08008.04-.13965.12988-.13965a.1161.1161,0,0,1,.12988.11963A1.70758,1.70758,0,0,1,135.81885,104.86719Zm-.12012-4.36768c-.33984,0-1.17871.25-1.23926,1.73926h2.36914C136.82861,101.84912,136.728,100.49951,135.69873,100.49951Z" transform="translate(-70.22266 -49)"/>
      </g>
      <g>
        <path class="cls-2" d="M116.978,114.86768V114.208a1.68765,1.68765,0,0,1-1.33887.65967,2.19826,2.19826,0,0,1-2.11914-2.25879,2.259,2.259,0,0,1,2.22852-2.26856,1.596,1.596,0,0,1,1.25976.61963v-2.15869c0-.48975-.08008-.56006-.78027-.56006v-.30957l1.43945-.10986v6.0664c0,.48975.08008.55957.78027.55957v.31006Zm0-3.33789a.47714.47714,0,0,0-.11035-.37012,1.29527,1.29527,0,0,0-1.07911-.59961,1.37439,1.37439,0,0,0-1.1289.63965,3.43462,3.43462,0,0,0-.02051,2.80859,1.24281,1.24281,0,0,0,1.0498.63965,1.39123,1.39123,0,0,0,1.17872-.69971.47658.47658,0,0,0,.11035-.36963Z" transform="translate(-70.22266 -49)"/>
        <path class="cls-2" d="M121.21826,114.86768a2.25585,2.25585,0,0,1-2.19824-2.3086,2.18358,2.18358,0,0,1,2.07812-2.27881,1.77237,1.77237,0,0,1,1.78907,1.959c0,.21-.0293.21-.25.21h-2.78809a2.90949,2.90949,0,0,0,.29981,1.499,1.34587,1.34587,0,0,0,1.12988.66944,1.408,1.408,0,0,0,1.34863-1.0293c.02051-.08008.04-.13965.12988-.13965a.11611.11611,0,0,1,.12989.11963A1.70758,1.70758,0,0,1,121.21826,114.86768ZM121.09814,110.5c-.33984,0-1.17871.25-1.23925,1.73926H122.228C122.228,111.84961,122.12744,110.5,121.09814,110.5Z" transform="translate(-70.22266 -49)"/>
        <path class="cls-2" d="M125.66846,114.86768a2.21185,2.21185,0,0,1-2.14844-2.26856,2.24029,2.24029,0,0,1,2.16894-2.31885c.76954,0,1.5293.38965,1.5293,1.06934a.46.46,0,1,1-.91992.01025.45161.45161,0,0,1,.46973-.46,1.62844,1.62844,0,0,0-1.06934-.36963c-.5293,0-1.34961.41944-1.34961,2.04883,0,1.60889.87988,2.03858,1.40918,2.03858a1.30521,1.30521,0,0,0,1.30957-1.04932c.02051-.06006.04-.09961.12988-.09961.03028,0,.12989,0,.12989.09961A1.644,1.644,0,0,1,125.66846,114.86768Z" transform="translate(-70.22266 -49)"/>
        <path class="cls-2" d="M130.10791,114.86768a2.23052,2.23052,0,0,1-2.208-2.24854,2.21675,2.21675,0,1,1,4.42676,0A2.2263,2.2263,0,0,1,130.10791,114.86768Zm1.12988-3.71778a1.30993,1.30993,0,0,0-1.12988-.6499,1.34,1.34,0,0,0-1.13867.66992,2.861,2.861,0,0,0-.24024,1.36914,2.97256,2.97256,0,0,0,.25,1.40918,1.30549,1.30549,0,0,0,1.13965.66944,1.2895,1.2895,0,0,0,1.15918-.73926,3.03847,3.03847,0,0,0,.21973-1.33936A2.7435,2.7435,0,0,0,131.23779,111.1499Z" transform="translate(-70.22266 -49)"/>
        <path class="cls-2" d="M136.69775,114.86768V114.208a1.68763,1.68763,0,0,1-1.33886.65967,2.19826,2.19826,0,0,1-2.11914-2.25879,2.259,2.259,0,0,1,2.22851-2.26856,1.596,1.596,0,0,1,1.25977.61963v-2.15869c0-.48975-.08008-.56006-.78028-.56006v-.30957l1.43946-.10986v6.0664c0,.48975.08008.55957.78027.55957v.31006Zm0-3.33789a.47714.47714,0,0,0-.11035-.37012,1.29525,1.29525,0,0,0-1.0791-.59961,1.37442,1.37442,0,0,0-1.12891.63965,3.43467,3.43467,0,0,0-.0205,2.80859,1.24281,1.24281,0,0,0,1.0498.63965,1.39121,1.39121,0,0,0,1.17871-.69971.47658.47658,0,0,0,.11035-.36963Z" transform="translate(-70.22266 -49)"/>
        <path class="cls-2" d="M140.938,114.86768a2.25584,2.25584,0,0,1-2.19824-2.3086,2.18358,2.18358,0,0,1,2.07812-2.27881,1.77236,1.77236,0,0,1,1.78906,1.959c0,.21-.02929.21-.25.21h-2.78808a2.90957,2.90957,0,0,0,.2998,1.499,1.34589,1.34589,0,0,0,1.12989.66944,1.408,1.408,0,0,0,1.34863-1.0293c.02051-.08008.04-.13965.12988-.13965a.1161.1161,0,0,1,.12988.11963A1.70758,1.70758,0,0,1,140.938,114.86768ZM140.81787,110.5c-.33984,0-1.17871.25-1.23926,1.73926h2.36914C141.94775,111.84961,141.84717,110.5,140.81787,110.5Z" transform="translate(-70.22266 -49)"/>
        <path class="cls-2" d="M146.10791,111.38965a.41406.41406,0,0,1-.42969-.42969.43206.43206,0,0,1,.23047-.38965.2499.2499,0,0,0-.11035-.01025c-.75977,0-1.17969.88965-1.17969,1.8789V113.978c0,.35986.02051.46972.75977.46972h.21v.31006c-.39942-.02978-.86914-.02978-1.26953-.02978l-1.13867.02978v-.31006c.66894,0,.77929,0,.77929-.4497v-2.67823c0-.48974-.08008-.56005-.77929-.56005v-.30957l1.38867-.10987v1.09912a1.39945,1.39945,0,0,1,1.22949-1.09912.68154.68154,0,0,1,.73926.60938A.42022.42022,0,0,1,146.10791,111.38965Z" transform="translate(-70.22266 -49)"/>
      </g>
    </g>
    <g>
      <g>
        <path class="cls-2" d="M213.88889,54.88889V77.11111h11.37566a11.11111,11.11111,0,0,0,0-22.22222Zm1.5873,1.5873h9.78836A9.19008,9.19008,0,0,1,234.52381,66,9.40935,9.40935,0,0,1,225,75.52381h-9.52381Z" transform="translate(-70.22266 -49)"/>
        <line class="cls-4" x1="165.77734" y1="17" x2="179.77734" y2="17"/>
        <line class="cls-4" x1="144.77734" y1="11" x2="129.77734" y2="11"/>
        <line class="cls-4" x1="144.77734" y1="23" x2="129.77734" y2="23"/>
      </g>
      <g>
        <path class="cls-2" d="M263.88889,81.88889v22.22222h11.37566a11.11111,11.11111,0,0,0,0-22.22222Zm1.5873,1.5873h9.78836A9.19008,9.19008,0,0,1,284.52381,93,9.40935,9.40935,0,0,1,275,102.52381h-9.52381Z" transform="translate(-70.22266 -49)"/>
        <line class="cls-4" x1="215.77734" y1="44" x2="229.77734" y2="44"/>
        <line class="cls-4" x1="194.77734" y1="38" x2="179.77734" y2="38"/>
        <line class="cls-4" x1="194.77734" y1="50" x2="179.77734" y2="50"/>
      </g>
      <g>
        <path class="cls-2" d="M213.88889,107.88889v22.22222h11.37566a11.11111,11.11111,0,0,0,0-22.22222Zm1.5873,1.5873h9.78836A9.19008,9.19008,0,0,1,234.52381,119,9.40935,9.40935,0,0,1,225,128.52381h-9.52381Z" transform="translate(-70.22266 -49)"/>
        <line class="cls-4" x1="165.77734" y1="70" x2="179.77734" y2="70"/>
        <line class="cls-4" x1="144.77734" y1="64" x2="129.77734" y2="64"/>
        <line class="cls-4" x1="144.77734" y1="76" x2="129.77734" y2="76"/>
      </g>
      <g>
        <path class="cls-2" d="M263.88889,134.88889v22.22222h11.37566a11.11111,11.11111,0,0,0,0-22.22222Zm1.5873,1.5873h9.78836A9.19008,9.19008,0,0,1,284.52381,146,9.40935,9.40935,0,0,1,275,155.52381h-9.52381Z" transform="translate(-70.22266 -49)"/>
        <line class="cls-4" x1="215.77734" y1="97" x2="229.77734" y2="97"/>
        <line class="cls-4" x1="194.77734" y1="91" x2="179.77734" y2="91"/>
        <line class="cls-4" x1="194.77734" y1="103" x2="179.77734" y2="103"/>
      </g>
    </g>
    <g>
      <path class="cls-5" d="M326.60764,94.88889l1.11111,1.35416a16.71871,16.71871,0,0,1,0,19.51389l-1.11111,1.35417h9.53125a19.22686,19.22686,0,0,0,7.56944-1.33681c3.29739-1.35042,6.96475-4.07959,9.82639-9.375L352.80556,106l.72916-.39931c-5.724-10.592-14.75329-10.7118-17.39583-10.7118Zm3.26389,1.66666h6.26736c2.60232,0,10.15936-.07233,15.53819,9.44445-2.64821,4.68282-5.84515,7.04661-8.73264,8.22916a16.95891,16.95891,0,0,1-6.80555,1.21528h-6.25a18.169,18.169,0,0,0-.01736-18.88889Z" transform="translate(-70.22266 -49)"/>
      <line class="cls-4" x1="295.77734" y1="57" x2="281.77734" y2="57"/>
      <line class="cls-4" x1="260.77734" y1="51" x2="245.77734" y2="51"/>
      <line class="cls-4" x1="260.77734" y1="63" x2="245.77734" y2="63"/>
      <line class="cls-4" x1="260.77734" y1="55" x2="245.77734" y2="55"/>
      <line class="cls-4" x1="260.77734" y1="59" x2="245.77734" y2="59"/>
    </g>
  </g>
  <g id="Layer_2" data-name="Layer 2">
    <path class="cls-2" d="M373.43848,109.15723h-4.6084c-.209,0-.25977,0-.25977-.16993,0-.08007,0-.08984.07032-.1997l3.88867-6.147H370.959c-1.63867,0-1.93847.80957-2.00781,1.939h-.25l.10938-2.24854h4.47754c.20019,0,.26074,0,.26074.15967,0,.07032,0,.08008-.07031.18994l-3.87793,6.13672h1.63867c1.84863,0,2.03906-.93945,2.11914-2.32861h.25Z" transform="translate(-70.22266 -49)"/>
    <path class="cls-2" d="M156.73389,62.27881a1.86874,1.86874,0,0,1-3.38819.1499A5.065,5.065,0,0,1,152.896,60.02a5.34275,5.34275,0,0,1,.37011-2.26856,1.83169,1.83169,0,0,1,1.73877-1.18945,1.85314,1.85314,0,0,1,1.69922,1.11914,7.05826,7.05826,0,0,1,.02979,4.59766Zm-.55957-4.32764c-.18994-.98926-.84961-1.16943-1.1792-1.16943-.25,0-.99951.08984-1.18946,1.2793a13.38329,13.38329,0,0,0-.08007,1.83886,13.63223,13.63223,0,0,0,.10986,2.10889c.18018.95947.76953,1.20947,1.15967,1.20947.4497,0,1.01953-.2998,1.16943-1.24951a12.38527,12.38527,0,0,0,.10986-2.06885A12.26989,12.26989,0,0,0,156.17432,57.95117Z" transform="translate(-70.22266 -49)"/>
    <path class="cls-2" d="M155.02979,90.29834c-.39942,0-1.269,0-1.61866.02979v-.31006h.31983c.89941,0,.9292-.11963.9292-.4795V84.36133a2.99361,2.99361,0,0,1-1.30909.25976v-.30957a2.4691,2.4691,0,0,0,1.81885-.63964c.23,0,.23.02.23.25976v5.60693c0,.36963.02979.4795.9292.4795h.31983v.31006C156.29932,90.29834,155.42969,90.29834,155.02979,90.29834Z" transform="translate(-70.22266 -49)"/>
    <path class="cls-2" d="M156.71411,116.32813h-3.708c0-.23975,0-.25977.11036-.36963l1.91894-2.13916a3.58207,3.58207,0,0,0,1.04932-2.2085c0-.81982-.42969-1.62939-1.33936-1.62939a1.44174,1.44174,0,0,0-1.34912,1.01953.38751.38751,0,0,1,.12988-.00977.50588.50588,0,0,1,.52979.51953.52547.52547,0,1,1-1.04981-.02978,1.84677,1.84677,0,0,1,1.86914-1.80908,1.96311,1.96311,0,0,1,2.11866,1.939c0,.99951-.59961,1.53906-2.15869,2.91846l-1.05909,1.02929H155.575a3.25047,3.25047,0,0,0,.94922-.08007,3.29535,3.29535,0,0,0,.22021-.88965h.24952Z" transform="translate(-70.22266 -49)"/>
    <path class="cls-2" d="M154.94482,143.438a1.82259,1.82259,0,0,1-2.01855-1.56885.55975.55975,0,1,1,1.11914-.02.54745.54745,0,0,1-.65967.54981,1.82011,1.82011,0,0,0,1.5293.75927c.43994,0,1.12939-.28955,1.12939-1.64892,0-.97949-.36963-1.65918-1.18945-1.65918h-.43945c-.16992,0-.24024,0-.24024-.10987,0-.10009.07032-.10986.14991-.12011.07031,0,.31005-.02.39013-.02979a.96868.96868,0,0,0,.88916-.52,2.494,2.494,0,0,0,.27979-1.13916c0-.89941-.54932-1.11914-.95948-1.11914a1.62013,1.62013,0,0,0-1.3291.61963c.14991,0,.61963,0,.61963.49951a.50981.50981,0,1,1-1.01953-.00976c0-.75977.75977-1.35938,1.769-1.35938.95948,0,1.83936.55957,1.83936,1.3794a1.92484,1.92484,0,0,1-1.39941,1.75879,1.92754,1.92754,0,0,1,1.66894,1.80908A2.0382,2.0382,0,0,1,154.94482,143.438Z" transform="translate(-70.22266 -49)"/>
    <line class="cls-3" x1="89.77734" y1="11" x2="129.77734" y2="11"/>
    <line class="cls-3" x1="179.77734" y1="38" x2="89.77734" y2="38"/>
    <line class="cls-3" x1="129.77734" y1="64" x2="89.77734" y2="64"/>
    <line class="cls-3" x1="179.77734" y1="91" x2="89.77734" y2="91"/>
    <polyline class="cls-3" points="179.777 17 229.777 17 245.777 17 245.777 51"/>
    <polyline class="cls-3" points="179.777 70 229.777 70 229.777 59 245.777 59"/>
    <polyline class="cls-3" points="229.777 44 229.777 55 245.777 55"/>
    <polyline class="cls-3" points="229.777 97 245.777 97 245.777 63"/>
    <g>
      <path class="cls-2" d="M193.46191,75.31836c-.37939,0-1.16894,0-1.519.02978v-.31005h.25977c.78955,0,.81982-.10987.81982-.46973V69.30127c0-.35938-.03027-.46973-.81982-.46973h-.25977V68.522c.3501.02979,1.13965.02979,1.5293.02979.37988,0,1.16943,0,1.519-.02979v.30957h-.25976c-.78956,0-.81983.11035-.81983.46973v5.26709c0,.35986.03027.46973.81983.46973h.25976v.31005C194.6416,75.31836,193.85205,75.31836,193.46191,75.31836Z" transform="translate(-70.22266 -49)"/>
      <path class="cls-2" d="M197.73877,78.13037a1.08973,1.08973,0,0,1-1.97607.0874,2.94952,2.94952,0,0,1-.26221-1.40478,3.11768,3.11768,0,0,1,.21533-1.32324,1.06865,1.06865,0,0,1,1.01416-.69336,1.08084,1.08084,0,0,1,.99121.65283,4.123,4.123,0,0,1,.01758,2.68115Zm-.32666-2.52392c-.11084-.57715-.49561-.68213-.688-.68213-.14551,0-.58252.05273-.69336.74609a7.78341,7.78341,0,0,0-.04687,1.07275,7.9091,7.9091,0,0,0,.06445,1.23c.105.55957.44873.70508.67578.70508.2627,0,.59473-.1748.68213-.72851a11.2829,11.2829,0,0,0,.00586-2.34326Z" transform="translate(-70.22266 -49)"/>
    </g>
    <g>
      <path class="cls-2" d="M243.46191,102.31836c-.37939,0-1.16894,0-1.519.02978v-.31005h.25977c.78955,0,.81982-.10987.81982-.46973V96.30127c0-.35938-.03027-.46973-.81982-.46973h-.25977V95.522c.3501.02979,1.13965.02979,1.5293.02979.37988,0,1.16943,0,1.519-.02979v.30957h-.25976c-.78956,0-.81983.11035-.81983.46973v5.26709c0,.35986.03027.46973.81983.46973h.25976v.31005C244.6416,102.31836,243.85205,102.31836,243.46191,102.31836Z" transform="translate(-70.22266 -49)"/>
      <path class="cls-2" d="M246.771,105.66064c-.2334,0-.74024,0-.94434.01758v-.18066h.18652c.52442,0,.542-.06983.542-.27979v-3.01953a1.743,1.743,0,0,1-.76368.15186v-.18067a1.44051,1.44051,0,0,0,1.061-.373c.13428,0,.13428.01123.13428.15136v3.27c0,.21582.01709.27979.542.27979h.18652v.18066C247.51123,105.66064,247.00391,105.66064,246.771,105.66064Z" transform="translate(-70.22266 -49)"/>
    </g>
    <g>
      <path class="cls-2" d="M193.46191,128.31836c-.37939,0-1.16894,0-1.519.02978v-.31h.25977c.78955,0,.81982-.10987.81982-.46973v-5.26709c0-.35938-.03027-.46973-.81982-.46973h-.25977V121.522c.3501.02979,1.13965.02979,1.5293.02979.37988,0,1.16943,0,1.519-.02979v.30957h-.25976c-.78956,0-.81983.11035-.81983.46973v5.26709c0,.35986.03027.46973.81983.46973h.25976v.31C194.6416,128.31836,193.85205,128.31836,193.46191,128.31836Z" transform="translate(-70.22266 -49)"/>
      <path class="cls-2" d="M197.72705,131.67822h-2.1626c0-.14013,0-.15136.064-.21582l1.11914-1.24707a2.087,2.087,0,0,0,.6123-1.28857c0-.47754-.251-.94971-.78125-.94971a.84087.84087,0,0,0-.78711.59424.22314.22314,0,0,1,.07618-.00586.29511.29511,0,0,1,.30859.30322.30626.30626,0,1,1-.61182-.01758,1.07669,1.07669,0,0,1,1.08985-1.05468,1.1449,1.1449,0,0,1,1.23584,1.13037c0,.583-.34961.898-1.25928,1.70215l-.61768.60058h1.04932a1.89159,1.89159,0,0,0,.55371-.04687,1.91211,1.91211,0,0,0,.12793-.51856h.146Z" transform="translate(-70.22266 -49)"/>
    </g>
    <g>
      <path class="cls-2" d="M243.46191,154.31836c-.37939,0-1.16894,0-1.519.02978v-.31h.25977c.78955,0,.81982-.10987.81982-.46973v-5.26709c0-.35938-.03027-.46973-.81982-.46973h-.25977V147.522c.3501.02979,1.13965.02979,1.5293.02979.37988,0,1.16943,0,1.519-.02979v.30957h-.25976c-.78956,0-.81983.11035-.81983.46973v5.26709c0,.35986.03027.46973.81983.46973h.25976v.31C244.6416,154.31836,243.85205,154.31836,243.46191,154.31836Z" transform="translate(-70.22266 -49)"/>
      <path class="cls-2" d="M246.69531,157.80664a1.06351,1.06351,0,0,1-1.17773-.91553.32651.32651,0,1,1,.65283-.01123.319.319,0,0,1-.38428.32032,1.06045,1.06045,0,0,0,.8916.44287c.25635,0,.6587-.16895.6587-.96143,0-.57129-.21582-.96777-.69385-.96777h-.25635c-.09912,0-.13965,0-.13965-.064,0-.05859.04053-.06445.0874-.06982.04053,0,.18067-.01172.22706-.01758a.56509.56509,0,0,0,.519-.30322,1.45712,1.45712,0,0,0,.16308-.66455c0-.52442-.3208-.65284-.55957-.65284a.94458.94458,0,0,0-.77539.36133c.08741,0,.36133,0,.36133.29151a.29715.29715,0,1,1-.59424-.00586c0-.44287.44287-.79248,1.03174-.79248.55957,0,1.07227.32617,1.07227.8042a1.122,1.122,0,0,1-.81592,1.02587,1.12453,1.12453,0,0,1,.97314,1.05518A1.189,1.189,0,0,1,246.69531,157.80664Z" transform="translate(-70.22266 -49)"/>
    </g>
    <g>
      <path class="cls-2" d="M72.68164,78.56787a2.50468,2.50468,0,0,1-1.83935-.69971c-.32959.52979-.35987.56983-.35987.56983-.06982.10986-.07959.12988-.1499.12988-.10986,0-.10986-.06982-.10986-.23974v-1.999c0-.17969,0-.24951.12988-.24951a.104.104,0,0,1,.12012.09961,2.02127,2.02127,0,0,0,.61963,1.53906,2.41158,2.41158,0,0,0,1.5791.54,1.37054,1.37054,0,0,0,1.33935-1.4292,1.45885,1.45885,0,0,0-.31006-.91943,1.32538,1.32538,0,0,0-.84912-.50977c-.6997-.16992-1.20947-.29-1.31933-.33008a1.93586,1.93586,0,0,1,.63965-3.76757,2.058,2.058,0,0,1,1.59912.69921l.34961-.56933c.06982-.12012.08007-.12988.1499-.12988.10986,0,.10986.06982.10986.23974v2.00879c0,.18994,0,.23975-.12988.23975-.10986,0-.10986-.06006-.11963-.11963-.06006-.44971-.28027-2.08887-1.94922-2.08887a1.3064,1.3064,0,0,0-.30957,2.57861l1.2793.30957a2.045,2.045,0,0,1,1.499,2.01905A2.00366,2.00366,0,0,1,72.68164,78.56787Z" transform="translate(-70.22266 -49)"/>
      <path class="cls-2" d="M77.689,81.13037a1.08973,1.08973,0,0,1-1.97607.0874,2.94952,2.94952,0,0,1-.26221-1.40478,3.11753,3.11753,0,0,1,.21534-1.32324,1.06865,1.06865,0,0,1,1.01416-.69336,1.08085,1.08085,0,0,1,.99121.65283,4.12292,4.12292,0,0,1,.01757,2.68115Zm-.32666-2.52392c-.11084-.57715-.4956-.68213-.688-.68213-.14551,0-.58252.05273-.69336.74609a7.78177,7.78177,0,0,0-.04688,1.07275,7.90789,7.90789,0,0,0,.06446,1.23c.105.55957.44873.70508.67578.70508.26269,0,.59472-.1748.68213-.72851a11.282,11.282,0,0,0,.00585-2.34326Z" transform="translate(-70.22266 -49)"/>
    </g>
    <g>
      <path class="cls-2" d="M72.68164,128.56787a2.50468,2.50468,0,0,1-1.83935-.69971c-.32959.52979-.35987.56983-.35987.56983-.06982.10986-.07959.12988-.1499.12988-.10986,0-.10986-.06982-.10986-.23974v-1.999c0-.17969,0-.24951.12988-.24951a.104.104,0,0,1,.12012.09961,2.02127,2.02127,0,0,0,.61963,1.53906,2.41158,2.41158,0,0,0,1.5791.54,1.37054,1.37054,0,0,0,1.33935-1.4292,1.45885,1.45885,0,0,0-.31006-.91943,1.32538,1.32538,0,0,0-.84912-.50977c-.6997-.16992-1.20947-.29-1.31933-.33008a1.93586,1.93586,0,0,1,.63965-3.76757,2.058,2.058,0,0,1,1.59912.69921l.34961-.56933c.06982-.12012.08007-.12988.1499-.12988.10986,0,.10986.06982.10986.23974v2.00879c0,.18994,0,.23975-.12988.23975-.10986,0-.10986-.06006-.11963-.11963-.06006-.44971-.28027-2.08887-1.94922-2.08887a1.3064,1.3064,0,0,0-.30957,2.57861l1.2793.30957a2.045,2.045,0,0,1,1.499,2.01905A2.00366,2.00366,0,0,1,72.68164,128.56787Z" transform="translate(-70.22266 -49)"/>
      <path class="cls-2" d="M76.72119,131.66064c-.2334,0-.74023,0-.94433.01758v-.18066h.18652c.52441,0,.542-.06983.542-.27979v-3.01953a1.74294,1.74294,0,0,1-.76367.15186v-.18067a1.44049,1.44049,0,0,0,1.061-.373c.13428,0,.13428.01123.13428.15136v3.27c0,.21582.01709.27979.542.27979h.18653v.18066C77.46143,131.66064,76.9541,131.66064,76.72119,131.66064Z" transform="translate(-70.22266 -49)"/>
    </g>
  </g>
</svg>
