<svg xmlns="http://www.w3.org/2000/svg" viewBox="0 0 99.83154 72.22223">
  <defs>
    <style>
      .cls-1, .cls-4 {
        fill: #8ff4dd;
      }

      .cls-1 {
        fill-rule: evenodd;
      }

      .cls-2, .cls-3 {
        fill: none;
        stroke: #8ff4dd;
        stroke-width: 2px;
      }

      .cls-3 {
        stroke-linecap: square;
        stroke-miterlimit: 10;
      }
    </style>
  </defs>
  <title>4to2Encoder</title>
  <g id="Layer_1" data-name="Layer 1">
    <g>
      <path class="cls-1" d="M160.60764,113.88889l1.11111,1.35416a16.71871,16.71871,0,0,1,0,19.51389l-1.11111,1.35417h9.53125a19.22686,19.22686,0,0,0,7.56944-1.33681c3.29739-1.35042,6.96475-4.07959,9.82639-9.375L186.80556,125l.72916-.39931c-5.724-10.592-14.75329-10.7118-17.39583-10.7118Zm3.26389,1.66666h6.26736c2.60232,0,10.15936-.07233,15.53819,9.44445-2.64821,4.68282-5.84515,7.04661-8.73264,8.22916a16.95891,16.95891,0,0,1-6.80555,1.21528h-6.25a18.169,18.169,0,0,0-.01736-18.88889Z" transform="translate(-112.06885 -113.88889)"/>
      <line class="cls-2" x1="87.93115" y1="11.11111" x2="73.93115" y2="11.11111"/>
      <line class="cls-2" x1="52.93115" y1="5.11111" x2="37.93115" y2="5.11111"/>
      <line class="cls-2" x1="52.93115" y1="17.11111" x2="37.93115" y2="17.11111"/>
    </g>
    <g>
      <path class="cls-1" d="M160.60764,163.88889l1.11111,1.35416a16.71871,16.71871,0,0,1,0,19.51389l-1.11111,1.35417h9.53125a19.22686,19.22686,0,0,0,7.56944-1.33681c3.29739-1.35042,6.96475-4.07959,9.82639-9.375L186.80556,175l.72916-.39931c-5.724-10.592-14.75329-10.7118-17.39583-10.7118Zm3.26389,1.66666h6.26736c2.60232,0,10.15936-.07233,15.53819,9.44445-2.64821,4.68282-5.84515,7.04661-8.73264,8.22916a16.95891,16.95891,0,0,1-6.80555,1.21528h-6.25a18.169,18.169,0,0,0-.01736-18.88889Z" transform="translate(-112.06885 -113.88889)"/>
      <line class="cls-2" x1="87.93115" y1="61.11111" x2="73.93115" y2="61.11111"/>
      <line class="cls-2" x1="52.93115" y1="55.11111" x2="37.93115" y2="55.11111"/>
      <line class="cls-2" x1="52.93115" y1="67.11111" x2="37.93115" y2="67.11111"/>
    </g>
  </g>
  <g id="Layer_2" data-name="Layer 2">
    <line class="cls-3" x1="12.93115" y1="5.11111" x2="37.93115" y2="5.11111"/>
    <line class="cls-3" x1="37.93115" y1="17.11111" x2="12.93115" y2="17.11111"/>
    <polyline class="cls-3" points="37.931 55.111 37.931 29.111 12.931 29.111"/>
    <polyline class="cls-3" points="37.931 67.111 24.931 67.111 24.931 17.111"/>
    <circle class="cls-4" cx="24.93115" cy="17.11111" r="2.5"/>
    <g>
      <path class="cls-4" d="M115.72705,122.05615h-3.6582v-.31006h.24023c.76953,0,.78955-.10986.78955-.46972v-5.26709c0-.35938-.02-.46973-.78955-.46973h-.24023V115.23h3.6582a3.27938,3.27938,0,0,1,3.05811,3.46826A3.20953,3.20953,0,0,1,115.72705,122.05615Zm1.53906-5.58691a2.1557,2.1557,0,0,0-1.81884-.92969h-.99952c-.46972,0-.48974.07031-.48974.3999v5.40723c0,.32959.02.39941.48974.39941H115.457a2.19235,2.19235,0,0,0,1.7793-.84912,3.42834,3.42834,0,0,0,.5498-2.19873A3.86665,3.86665,0,0,0,117.26611,116.46924Z" transform="translate(-112.06885 -113.88889)"/>
      <path class="cls-4" d="M120.85742,125.36865c-.2334,0-.74023,0-.94433.01758v-.18066h.18652c.52441,0,.542-.06983.542-.27979v-3.01953a1.74183,1.74183,0,0,1-.76367.15186v-.18067a1.44046,1.44046,0,0,0,1.061-.37305c.13428,0,.13428.01124.13428.15137v3.27c0,.21582.01709.27979.542.27979h.18653v.18066C121.59766,125.36865,121.09033,125.36865,120.85742,125.36865Z" transform="translate(-112.06885 -113.88889)"/>
    </g>
    <g>
      <path class="cls-4" d="M115.72705,134.05615h-3.6582v-.31006h.24023c.76953,0,.78955-.10986.78955-.46972v-5.26709c0-.35938-.02-.46973-.78955-.46973h-.24023V127.23h3.6582a3.27938,3.27938,0,0,1,3.05811,3.46826A3.20953,3.20953,0,0,1,115.72705,134.05615Zm1.53906-5.58691a2.1557,2.1557,0,0,0-1.81884-.92969h-.99952c-.46972,0-.48974.07031-.48974.3999v5.40723c0,.32959.02.39941.48974.39941H115.457a2.19235,2.19235,0,0,0,1.7793-.84912,3.42834,3.42834,0,0,0,.5498-2.19873A3.86665,3.86665,0,0,0,117.26611,128.46924Z" transform="translate(-112.06885 -113.88889)"/>
      <path class="cls-4" d="M121.81348,137.38623h-2.1626c0-.14014,0-.15137.064-.21582l1.11914-1.24707a2.08694,2.08694,0,0,0,.61231-1.28857c0-.47754-.251-.94971-.78125-.94971a.84087.84087,0,0,0-.78711.59424.2231.2231,0,0,1,.07617-.00586.29512.29512,0,0,1,.3086.30322.30626.30626,0,1,1-.61182-.01758,1.07669,1.07669,0,0,1,1.08984-1.05469,1.1449,1.1449,0,0,1,1.23584,1.13038c0,.583-.34961.89794-1.25927,1.70214l-.61768.60059h1.04932a1.89162,1.89162,0,0,0,.55371-.04687,1.92867,1.92867,0,0,0,.12841-.51856h.14551Z" transform="translate(-112.06885 -113.88889)"/>
    </g>
    <g>
      <path class="cls-4" d="M115.72705,147.05615h-3.6582v-.31006h.24023c.76953,0,.78955-.10986.78955-.46972v-5.26709c0-.35938-.02-.46973-.78955-.46973h-.24023V140.23h3.6582a3.27938,3.27938,0,0,1,3.05811,3.46826A3.20953,3.20953,0,0,1,115.72705,147.05615Zm1.53906-5.58691a2.1557,2.1557,0,0,0-1.81884-.92969h-.99952c-.46972,0-.48974.07031-.48974.3999v5.40723c0,.32959.02.39941.48974.39941H115.457a2.19235,2.19235,0,0,0,1.7793-.84912,3.42834,3.42834,0,0,0,.5498-2.19873A3.86665,3.86665,0,0,0,117.26611,141.46924Z" transform="translate(-112.06885 -113.88889)"/>
      <path class="cls-4" d="M120.78174,150.51465a1.06352,1.06352,0,0,1-1.17774-.91553.32652.32652,0,1,1,.65284-.01123.31917.31917,0,0,1-.38477.32031,1.06183,1.06183,0,0,0,.89209.44287c.25635,0,.65869-.16894.65869-.96142,0-.57129-.21582-.96777-.69385-.96777h-.25634c-.09912,0-.13965,0-.13965-.064,0-.05859.04053-.06445.0874-.06982.04053,0,.18066-.01172.227-.01758a.5655.5655,0,0,0,.519-.30322,1.45718,1.45718,0,0,0,.16309-.66456c0-.52441-.3208-.65283-.55957-.65283a.94457.94457,0,0,0-.77539.36133c.0874,0,.36133,0,.36133.2915a.29715.29715,0,1,1-.59424-.00585c0-.44288.44287-.79249,1.03174-.79249.55957,0,1.07226.32618,1.07226.8042a1.122,1.122,0,0,1-.81592,1.02588,1.12454,1.12454,0,0,1,.97315,1.05518A1.189,1.189,0,0,1,120.78174,150.51465Z" transform="translate(-112.06885 -113.88889)"/>
    </g>
    <g>
      <path class="cls-4" d="M207.57617,128.02637c-.37988,0-1.07959,0-1.43945.02978v-.31006c.27,0,.82959,0,.82959-.2998a.72064.72064,0,0,0-.02979-.13965l-.52978-1.5293H203.938l-.45947,1.30957a.65857.65857,0,0,0-.02.14991c0,.25976.24951.50927.74951.50927v.31006l-1.14942-.02978-1.01953.02978v-.31006a1.03793,1.03793,0,0,0,1.11914-.66943l2.06934-5.97656c.0498-.14014.07959-.2002.23975-.2002.15966,0,.17968.07031.23.2002l2.15869,6.24658c.10986.32959.25.39941.84961.39941h.17968v.31006Zm-2.40869-5.80713-1.11963,3.24853h2.249Z" transform="translate(-112.06885 -113.88889)"/>
      <path class="cls-4" d="M211.68506,130.83838a1.08974,1.08974,0,0,1-1.97608.0874,2.94963,2.94963,0,0,1-.2622-1.40478,3.11775,3.11775,0,0,1,.21533-1.32325,1.06867,1.06867,0,0,1,1.01416-.69336,1.08086,1.08086,0,0,1,.99121.65284,4.123,4.123,0,0,1,.01758,2.68115Zm-.32666-2.52393c-.11084-.57715-.49561-.68213-.688-.68213-.14551,0-.58252.05274-.69336.7461a7.78341,7.78341,0,0,0-.04687,1.07275,7.90916,7.90916,0,0,0,.06445,1.23c.105.55957.44873.70508.67578.70508.2627,0,.59473-.1748.68213-.72852a11.2829,11.2829,0,0,0,.00586-2.34326Z" transform="translate(-112.06885 -113.88889)"/>
    </g>
    <g>
      <path class="cls-4" d="M207.57617,178.02637c-.37988,0-1.07959,0-1.43945.02978v-.31006c.27,0,.82959,0,.82959-.2998a.72064.72064,0,0,0-.02979-.13965l-.52978-1.5293H203.938l-.45947,1.30957a.65857.65857,0,0,0-.02.14991c0,.25976.24951.50927.74951.50927v.31006l-1.14942-.02978-1.01953.02978v-.31006a1.03793,1.03793,0,0,0,1.11914-.66943l2.06934-5.97656c.0498-.14014.07959-.2002.23975-.2002.15966,0,.17968.07031.23.2002l2.15869,6.24658c.10986.32959.25.39941.84961.39941h.17968v.31006Zm-2.40869-5.80713-1.11963,3.24853h2.249Z" transform="translate(-112.06885 -113.88889)"/>
      <path class="cls-4" d="M210.71729,181.36865c-.2334,0-.74024,0-.94434.01758v-.18066h.18652c.52442,0,.542-.06983.542-.27979v-3.01953a1.74294,1.74294,0,0,1-.76367.15186v-.18067a1.44048,1.44048,0,0,0,1.061-.37305c.13428,0,.13428.01124.13428.15137v3.27c0,.21582.01709.27979.542.27979h.18652v.18066C211.45752,181.36865,210.9502,181.36865,210.71729,181.36865Z" transform="translate(-112.06885 -113.88889)"/>
    </g>
  </g>
</svg>
