<svg xmlns="http://www.w3.org/2000/svg" viewBox="0 0 199.83154 103.28467">
  <defs>
    <style>
      .cls-1, .cls-3 {
        fill: #8ff4dd;
      }

      .cls-1 {
        fill-rule: evenodd;
      }

      .cls-2, .cls-4, .cls-5 {
        fill: none;
        stroke: #8ff4dd;
      }

      .cls-2, .cls-5 {
        stroke-width: 2px;
      }

      .cls-4 {
        stroke-width: 1.5px;
      }

      .cls-5 {
        stroke-linecap: square;
      }
    </style>
  </defs>
  <title>4to2PriorityEncoder</title>
  <g id="Layer_1" data-name="Layer 1">
    <g>
      <path class="cls-1" d="M160.60764,63.88889l1.11111,1.35416a16.71871,16.71871,0,0,1,0,19.51389l-1.11111,1.35417h9.53125a19.22686,19.22686,0,0,0,7.56944-1.33681c3.29739-1.35042,6.96475-4.07959,9.82639-9.375L186.80556,75l.72916-.39931c-5.724-10.592-14.75329-10.7118-17.39583-10.7118Zm3.26389,1.66666h6.26736c2.60232,0,10.15936-.07233,15.53819,9.44445-2.64821,4.68282-5.84515,7.04661-8.73264,8.22916a16.95891,16.95891,0,0,1-6.80555,1.21528h-6.25a18.169,18.169,0,0,0-.01736-18.88889Z" transform="translate(-12.06885 -46.22998)"/>
      <line class="cls-2" x1="187.93115" y1="28.77002" x2="173.93115" y2="28.77002"/>
      <line class="cls-2" x1="152.93115" y1="22.77002" x2="137.93115" y2="22.77002"/>
      <line class="cls-2" x1="152.93115" y1="34.77002" x2="137.93115" y2="34.77002"/>
    </g>
    <g>
      <path class="cls-1" d="M160.60764,94.88889l1.11111,1.35416a16.71871,16.71871,0,0,1,0,19.51389l-1.11111,1.35417h9.53125a19.22686,19.22686,0,0,0,7.56944-1.33681c3.29739-1.35042,6.96475-4.07959,9.82639-9.375L186.80556,106l.72916-.39931c-5.724-10.592-14.75329-10.7118-17.39583-10.7118Zm3.26389,1.66666h6.26736c2.60232,0,10.15936-.07233,15.53819,9.44445-2.64821,4.68282-5.84515,7.04661-8.73264,8.22916a16.95891,16.95891,0,0,1-6.80555,1.21528h-6.25a18.169,18.169,0,0,0-.01736-18.88889Z" transform="translate(-12.06885 -46.22998)"/>
      <line class="cls-2" x1="187.93115" y1="59.77002" x2="173.93115" y2="59.77002"/>
      <line class="cls-2" x1="152.93115" y1="53.77002" x2="137.93115" y2="53.77002"/>
      <line class="cls-2" x1="152.93115" y1="65.77002" x2="137.93115" y2="65.77002"/>
    </g>
    <g>
      <path class="cls-3" d="M113.88889,69.88889V92.11111h11.37566a11.11111,11.11111,0,1,0,0-22.22222Zm1.5873,1.5873h9.78836A9.19008,9.19008,0,0,1,134.52381,81,9.40935,9.40935,0,0,1,125,90.52381h-9.52381Z" transform="translate(-12.06885 -46.22998)"/>
      <line class="cls-2" x1="123.93115" y1="34.77002" x2="137.93115" y2="34.77002"/>
      <line class="cls-2" x1="102.93115" y1="28.77002" x2="87.93115" y2="28.77002"/>
      <line class="cls-2" x1="102.93115" y1="40.77002" x2="87.93115" y2="40.77002"/>
    </g>
    <g>
      <path class="cls-2" d="M91.194,67H100M64,67H50" transform="translate(-12.06885 -46.22998)"/>
      <path class="cls-3" d="M63.29824,54.54607V79.45393l1.1985-.59056L87.30289,67.74689V66.25311L64.49674,55.13663Zm1.66747,2.6749L85.04486,67,64.96571,76.779Z" transform="translate(-12.06885 -46.22998)"/>
      <path class="cls-4" d="M91.10681,67a2.2233,2.2233,0,1,1-2.22329-2.2233A2.2233,2.2233,0,0,1,91.10681,67Z" transform="translate(-12.06885 -46.22998)"/>
    </g>
    <g>
      <path class="cls-1" d="M160.60764,125.88889l1.11111,1.35416a16.71871,16.71871,0,0,1,0,19.51389l-1.11111,1.35417h9.53125a19.22686,19.22686,0,0,0,7.56944-1.33681c3.29739-1.35042,6.96475-4.07959,9.82639-9.375L186.80556,137l.72916-.39931c-5.724-10.592-14.75329-10.7118-17.39583-10.7118Zm3.26389,1.66666h6.26736c2.60232,0,10.15936-.07233,15.53819,9.44445-2.64821,4.68282-5.84515,7.04661-8.73264,8.22916a16.95891,16.95891,0,0,1-6.80555,1.21528h-6.25a18.169,18.169,0,0,0-.01736-18.88889Z" transform="translate(-12.06885 -46.22998)"/>
      <line class="cls-2" x1="187.93115" y1="90.77002" x2="173.93115" y2="90.77002"/>
      <line class="cls-2" x1="152.93115" y1="84.77002" x2="137.93115" y2="84.77002"/>
      <line class="cls-2" x1="152.93115" y1="96.77002" x2="137.93115" y2="96.77002"/>
      <line class="cls-2" x1="152.93115" y1="88.77002" x2="137.93115" y2="88.77002"/>
      <line class="cls-2" x1="152.93115" y1="92.77002" x2="137.93115" y2="92.77002"/>
    </g>
  </g>
  <g id="Layer_2" data-name="Layer 2">
    <g>
      <path class="cls-3" d="M15.72705,90.05615h-3.6582v-.31006h.24023c.76953,0,.78955-.10986.78955-.46972V84.00928c0-.35938-.02-.46973-.78955-.46973h-.24023V83.23h3.6582a3.27938,3.27938,0,0,1,3.05811,3.46826A3.20953,3.20953,0,0,1,15.72705,90.05615Zm1.53906-5.58691a2.1557,2.1557,0,0,0-1.81884-.92969h-.99952c-.46972,0-.48974.07031-.48974.3999v5.40723c0,.32959.02.39941.48974.39941H15.457a2.19235,2.19235,0,0,0,1.7793-.84912,3.42834,3.42834,0,0,0,.5498-2.19873A3.86665,3.86665,0,0,0,17.26611,84.46924Z" transform="translate(-12.06885 -46.22998)"/>
      <path class="cls-3" d="M20.85742,93.36865c-.2334,0-.74023,0-.94433.01758v-.18066h.18652c.52441,0,.542-.06983.542-.27979V89.90625a1.74183,1.74183,0,0,1-.76367.15186v-.18067a1.44046,1.44046,0,0,0,1.061-.37305c.13428,0,.13428.01124.13428.15137v3.27c0,.21582.01709.27979.542.27979h.18653v.18066C21.59766,93.36865,21.09033,93.36865,20.85742,93.36865Z" transform="translate(-12.06885 -46.22998)"/>
    </g>
    <g>
      <path class="cls-3" d="M15.72705,70.05615h-3.6582v-.31006h.24023c.76953,0,.78955-.10986.78955-.46972V64.00928c0-.35938-.02-.46973-.78955-.46973h-.24023V63.23h3.6582a3.27938,3.27938,0,0,1,3.05811,3.46826A3.20953,3.20953,0,0,1,15.72705,70.05615Zm1.53906-5.58691a2.1557,2.1557,0,0,0-1.81884-.92969h-.99952c-.46972,0-.48974.07031-.48974.3999v5.40723c0,.32959.02.39941.48974.39941H15.457a2.19235,2.19235,0,0,0,1.7793-.84912,3.42834,3.42834,0,0,0,.5498-2.19873A3.86665,3.86665,0,0,0,17.26611,64.46924Z" transform="translate(-12.06885 -46.22998)"/>
      <path class="cls-3" d="M21.81348,73.38623h-2.1626c0-.14014,0-.15137.064-.21582L20.834,71.92334a2.08694,2.08694,0,0,0,.61231-1.28857c0-.47754-.251-.94971-.78125-.94971a.84087.84087,0,0,0-.78711.59424.2231.2231,0,0,1,.07617-.00586.29512.29512,0,0,1,.3086.30322.30626.30626,0,1,1-.61182-.01758,1.07669,1.07669,0,0,1,1.08984-1.05469,1.1449,1.1449,0,0,1,1.23584,1.13038c0,.583-.34961.89794-1.25927,1.70214l-.61768.60059h1.04932a1.89162,1.89162,0,0,0,.55371-.04687,1.92867,1.92867,0,0,0,.12841-.51856h.14551Z" transform="translate(-12.06885 -46.22998)"/>
    </g>
    <g>
      <path class="cls-3" d="M15.72705,53.05615h-3.6582v-.31006h.24023c.76953,0,.78955-.10986.78955-.46972V47.00928c0-.35938-.02-.46973-.78955-.46973h-.24023V46.23h3.6582a3.27938,3.27938,0,0,1,3.05811,3.46826A3.20953,3.20953,0,0,1,15.72705,53.05615Zm1.53906-5.58691a2.1557,2.1557,0,0,0-1.81884-.92969h-.99952c-.46972,0-.48974.07031-.48974.3999v5.40723c0,.32959.02.39941.48974.39941H15.457a2.19235,2.19235,0,0,0,1.7793-.84912,3.42834,3.42834,0,0,0,.5498-2.19873A3.86665,3.86665,0,0,0,17.26611,47.46924Z" transform="translate(-12.06885 -46.22998)"/>
      <path class="cls-3" d="M20.78174,56.51465a1.06352,1.06352,0,0,1-1.17774-.91553.32652.32652,0,1,1,.65284-.01123.31917.31917,0,0,1-.38477.32031,1.06183,1.06183,0,0,0,.89209.44287c.25635,0,.65869-.16894.65869-.96142,0-.57129-.21582-.96777-.69385-.96777h-.25634c-.09912,0-.13965,0-.13965-.064,0-.05859.04053-.06445.0874-.06982.04053,0,.18066-.01172.227-.01758a.5655.5655,0,0,0,.519-.30322,1.45718,1.45718,0,0,0,.16309-.66456c0-.52441-.3208-.65283-.55957-.65283a.94457.94457,0,0,0-.77539.36133c.0874,0,.36133,0,.36133.2915a.29715.29715,0,1,1-.59424-.00585c0-.44288.44287-.79249,1.03174-.79249.55957,0,1.07226.32618,1.07226.8042a1.122,1.122,0,0,1-.81592,1.02588,1.12454,1.12454,0,0,1,.97315,1.05518A1.189,1.189,0,0,1,20.78174,56.51465Z" transform="translate(-12.06885 -46.22998)"/>
    </g>
    <g>
      <path class="cls-3" d="M207.57617,78.02637c-.37988,0-1.07959,0-1.43945.02978v-.31006c.27,0,.82959,0,.82959-.2998a.72064.72064,0,0,0-.02979-.13965l-.52978-1.5293H203.938l-.45947,1.30957a.65857.65857,0,0,0-.02.14991c0,.25976.24951.50927.74951.50927v.31006l-1.14942-.02978-1.01953.02978v-.31006a1.03793,1.03793,0,0,0,1.11914-.66943l2.06934-5.97656c.0498-.14014.07959-.2002.23975-.2002.15966,0,.17968.07031.23.2002l2.15869,6.24658c.10986.32959.25.39941.84961.39941h.17968v.31006Zm-2.40869-5.80713-1.11963,3.24853h2.249Z" transform="translate(-12.06885 -46.22998)"/>
      <path class="cls-3" d="M211.68506,80.83838a1.08974,1.08974,0,0,1-1.97608.0874,2.94963,2.94963,0,0,1-.2622-1.40478,3.11775,3.11775,0,0,1,.21533-1.32325,1.06867,1.06867,0,0,1,1.01416-.69336,1.08086,1.08086,0,0,1,.99121.65284,4.123,4.123,0,0,1,.01758,2.68115Zm-.32666-2.52393c-.11084-.57715-.49561-.68213-.688-.68213-.14551,0-.58252.05274-.69336.7461a7.78341,7.78341,0,0,0-.04687,1.07275,7.90916,7.90916,0,0,0,.06445,1.23c.105.55957.44873.70508.67578.70508.2627,0,.59473-.1748.68213-.72852a11.2829,11.2829,0,0,0,.00586-2.34326Z" transform="translate(-12.06885 -46.22998)"/>
    </g>
    <g>
      <path class="cls-3" d="M207.57617,109.02637c-.37988,0-1.07959,0-1.43945.02978v-.31006c.27,0,.82959,0,.82959-.2998a.72064.72064,0,0,0-.02979-.13965l-.52978-1.5293H203.938l-.45947,1.30957a.65857.65857,0,0,0-.02.14991c0,.25976.24951.50927.74951.50927v.31006l-1.14942-.02978-1.01953.02978v-.31006a1.03793,1.03793,0,0,0,1.11914-.66943l2.06934-5.97656c.0498-.14014.07959-.2002.23975-.2002.15966,0,.17968.07031.23.2002l2.15869,6.24658c.10986.32959.25.39941.84961.39941h.17968v.31006Zm-2.40869-5.80713-1.11963,3.24853h2.249Z" transform="translate(-12.06885 -46.22998)"/>
      <path class="cls-3" d="M210.71729,112.36865c-.2334,0-.74024,0-.94434.01758v-.18066h.18652c.52442,0,.542-.06983.542-.27979v-3.01953a1.74294,1.74294,0,0,1-.76367.15186v-.18067a1.44048,1.44048,0,0,0,1.061-.37305c.13428,0,.13428.01124.13428.15137v3.27c0,.21582.01709.27979.542.27979h.18652v.18066C211.45752,112.36865,210.9502,112.36865,210.71729,112.36865Z" transform="translate(-12.06885 -46.22998)"/>
    </g>
    <line class="cls-5" x1="87.93115" y1="20.77002" x2="87.93115" y2="28.77002"/>
    <line class="cls-5" x1="87.93115" y1="40.77002" x2="12.93115" y2="40.77002"/>
    <line class="cls-5" x1="37.93115" y1="20.77002" x2="12.93115" y2="20.77002"/>
    <polyline class="cls-5" points="137.931 22.77 137.931 3.77 12.931 3.77"/>
    <polyline class="cls-5" points="137.931 84.77 42.931 84.77 42.931 53.77 137.931 53.77"/>
    <polyline class="cls-5" points="137.931 88.77 36.931 88.77 36.931 65.77 137.931 65.77"/>
    <polyline class="cls-5" points="137.931 92.77 30.931 92.77 30.931 40.77"/>
    <line class="cls-5" x1="137.93115" y1="96.77002" x2="12.93115" y2="96.77002"/>
    <line class="cls-5" x1="42.93115" y1="53.77002" x2="42.93115" y2="3.77002"/>
    <line class="cls-5" x1="36.93115" y1="65.77002" x2="36.93115" y2="20.77002"/>
    <circle class="cls-3" cx="42.93115" cy="3.77002" r="2.5"/>
    <circle class="cls-3" cx="42.93115" cy="53.77002" r="2.5"/>
    <circle class="cls-3" cx="36.93115" cy="20.77002" r="2.5"/>
    <circle class="cls-3" cx="36.93115" cy="65.77002" r="2.5"/>
    <circle class="cls-3" cx="30.93115" cy="40.77002" r="2.5"/>
    <path class="cls-3" d="M207.92578,134.20947l-2.22851,5.87647c-.0503.14013-.07032.18994-.24024.18994-.12988,0-.17969-.02979-.24951-.21973l-2.31885-6.13672c-.14013-.37988-.33008-.37988-.97949-.37988V133.23l1.269.02979c.37989,0,1.06983,0,1.4292-.02979v.30957c-.24951,0-.81933,0-.81933.29a.60879.60879,0,0,0,.06.17969l1.9087,5.04736,1.8291-4.81738a.5848.5848,0,0,0,.0498-.19971c0-.23-.20947-.48975-.72949-.5V133.23l1.13965.02979c.25976,0,.65967-.00977.96924-.02979v.30957A1.01748,1.01748,0,0,0,207.92578,134.20947Z" transform="translate(-12.06885 -46.22998)"/>
    <g>
      <path class="cls-3" d="M15.72705,146.05615h-3.6582v-.31006h.24023c.76953,0,.78955-.10986.78955-.46972v-5.26709c0-.35938-.02-.46973-.78955-.46973h-.24023V139.23h3.6582a3.27938,3.27938,0,0,1,3.05811,3.46826A3.20953,3.20953,0,0,1,15.72705,146.05615Zm1.53906-5.58691a2.1557,2.1557,0,0,0-1.81884-.92969h-.99952c-.46972,0-.48974.07031-.48974.3999v5.40723c0,.32959.02.39941.48974.39941H15.457a2.19235,2.19235,0,0,0,1.7793-.84912,3.42834,3.42834,0,0,0,.5498-2.19873A3.86665,3.86665,0,0,0,17.26611,140.46924Z" transform="translate(-12.06885 -46.22998)"/>
      <path class="cls-3" d="M21.8252,148.83838a1.08974,1.08974,0,0,1-1.97608.0874,2.94952,2.94952,0,0,1-.26221-1.40478,3.1176,3.1176,0,0,1,.21534-1.32325,1.06866,1.06866,0,0,1,1.01416-.69336,1.08087,1.08087,0,0,1,.99121.65284,4.123,4.123,0,0,1,.01758,2.68115Zm-.32666-2.52393c-.11084-.57715-.49561-.68213-.688-.68213-.14551,0-.58252.05274-.69336.7461a7.78177,7.78177,0,0,0-.04688,1.07275,7.908,7.908,0,0,0,.06446,1.23c.105.55957.44873.70508.67578.70508.26269,0,.59472-.1748.68213-.72852a11.2829,11.2829,0,0,0,.00586-2.34326Z" transform="translate(-12.06885 -46.22998)"/>
    </g>
  </g>
</svg>
