<svg xmlns="http://www.w3.org/2000/svg" viewBox="0 0 230.21094 227.88135">
  <defs>
    <style>
      .cls-1 {
        fill: none;
        stroke: #8ff4dd;
        stroke-miterlimit: 10;
        stroke-width: 2px;
      }

      .cls-2 {
        fill: #8ff4dd;
      }
    </style>
  </defs>
  <title>4x4KMapAdjacency</title>
  <g id="Layer_1" data-name="Layer 1">
    <g>
      <rect class="cls-1" x="29.21094" y="26.88135" width="200" height="200"/>
      <line class="cls-1" x1="229.21094" y1="76.88135" x2="29.21094" y2="76.88135"/>
      <line class="cls-1" x1="229.21094" y1="126.88135" x2="29.21094" y2="126.88135"/>
      <line class="cls-1" x1="229.21094" y1="176.88135" x2="29.21094" y2="176.88135"/>
      <line class="cls-1" x1="79.21094" y1="226.88135" x2="79.21094" y2="26.88135"/>
      <line class="cls-1" x1="129.21094" y1="226.88135" x2="129.21094" y2="26.88135"/>
      <line class="cls-1" x1="179.21094" y1="226.88135" x2="179.21094" y2="26.88135"/>
    </g>
  </g>
  <g id="Layer_2" data-name="Layer 2">
    <g>
      <path class="cls-2" d="M128.4707,129.561a3.74026,3.74026,0,0,1-6.78174.2998,10.1358,10.1358,0,0,1-.8999-4.8208,10.69823,10.69823,0,0,1,.74024-4.541,3.66658,3.66658,0,0,1,3.48047-2.38037,3.70919,3.70919,0,0,1,3.40087,2.24024,14.13249,14.13249,0,0,1,.06006,9.20215Zm-1.12011-8.66211c-.38038-1.98-1.70069-2.34034-2.36084-2.34034-.5,0-2.00049.18018-2.38037,2.56055a26.80714,26.80714,0,0,0-.16016,3.68066,27.24831,27.24831,0,0,0,.22021,4.2212c.35987,1.92041,1.54,2.42041,2.32032,2.42041.90039,0,2.04052-.6001,2.34082-2.50049a24.8153,24.8153,0,0,0,.21972-4.14112A24.64163,24.64163,0,0,0,127.35059,120.89893Z" transform="translate(-120.78906 -73.11865)"/>
      <path class="cls-2" d="M138.4707,129.561a3.74026,3.74026,0,0,1-6.78174.2998,10.1358,10.1358,0,0,1-.8999-4.8208,10.69823,10.69823,0,0,1,.74024-4.541,3.66658,3.66658,0,0,1,3.48047-2.38037,3.70919,3.70919,0,0,1,3.40087,2.24024,14.13249,14.13249,0,0,1,.06006,9.20215Zm-1.12011-8.66211c-.38038-1.98-1.70069-2.34034-2.36084-2.34034-.5,0-2.00049.18018-2.38037,2.56055a26.80714,26.80714,0,0,0-.16016,3.68066,27.24831,27.24831,0,0,0,.22021,4.2212c.35987,1.92041,1.54,2.42041,2.32032,2.42041.90039,0,2.04052-.6001,2.34082-2.50049a24.8153,24.8153,0,0,0,.21972-4.14112A24.64163,24.64163,0,0,0,137.35059,120.89893Z" transform="translate(-120.78906 -73.11865)"/>
    </g>
    <g>
      <path class="cls-2" d="M128.88086,179.561a3.74026,3.74026,0,0,1-6.78174.2998,10.1358,10.1358,0,0,1-.8999-4.8208,10.69838,10.69838,0,0,1,.74023-4.541,3.6666,3.6666,0,0,1,3.48047-2.38037,3.7092,3.7092,0,0,1,3.40088,2.24024,14.13266,14.13266,0,0,1,.06006,9.20215Zm-1.12012-8.66211c-.38037-1.98-1.70068-2.34034-2.36084-2.34034-.5,0-2.00049.18018-2.38037,2.56055a26.8088,26.8088,0,0,0-.16015,3.68066,27.24831,27.24831,0,0,0,.22021,4.2212c.35986,1.92041,1.54,2.42041,2.32031,2.42041.90039,0,2.04053-.6001,2.34082-2.50049a38.67314,38.67314,0,0,0,.02-8.042Z" transform="translate(-120.78906 -73.11865)"/>
      <path class="cls-2" d="M135.56006,181.38135c-.80029,0-2.54053,0-3.24072.06006v-.62012h.64013c1.8003,0,1.86035-.24024,1.86035-.96045V169.499a5.99121,5.99121,0,0,1-2.6206.52v-.62011a4.94382,4.94382,0,0,0,3.64111-1.28028c.46,0,.46.04.46.52v11.22217c0,.74023.06006.96045,1.86035.96045h.64014v.62012C138.10059,181.38135,136.36035,181.38135,135.56006,181.38135Z" transform="translate(-120.78906 -73.11865)"/>
    </g>
    <g>
      <path class="cls-2" d="M125.06006,231.60132c-.80029,0-2.54053,0-3.24072.06006v-.62012h.64013c1.8003,0,1.86035-.24023,1.86035-.96045V219.719a5.99121,5.99121,0,0,1-2.6206.52v-.62011a4.94382,4.94382,0,0,0,3.64111-1.28028c.46,0,.46.04.46.52v11.22217c0,.74023.06006.96045,1.86035.96045h.64014v.62012C127.60059,231.60132,125.86035,231.60132,125.06006,231.60132Z" transform="translate(-120.78906 -73.11865)"/>
      <path class="cls-2" d="M135.06006,231.60132c-.80029,0-2.54053,0-3.24072.06006v-.62012h.64013c1.8003,0,1.86035-.24023,1.86035-.96045V219.719a5.99121,5.99121,0,0,1-2.6206.52v-.62011a4.94382,4.94382,0,0,0,3.64111-1.28028c.46,0,.46.04.46.52v11.22217c0,.74023.06006.96045,1.86035.96045h.64014v.62012C137.60059,231.60132,135.86035,231.60132,135.06006,231.60132Z" transform="translate(-120.78906 -73.11865)"/>
    </g>
    <g>
      <path class="cls-2" d="M124.6499,281.38135c-.80029,0-2.54052,0-3.24072.06006v-.62012h.64014c1.80029,0,1.86035-.24024,1.86035-.96045V269.499a5.99127,5.99127,0,0,1-2.62061.52v-.62011a4.94385,4.94385,0,0,0,3.64112-1.28028c.46,0,.46.04.46.52v11.22217c0,.74023.06006.96045,1.86035.96045h.64014v.62012C127.19043,281.38135,125.4502,281.38135,124.6499,281.38135Z" transform="translate(-120.78906 -73.11865)"/>
      <path class="cls-2" d="M137.9707,279.561a3.74026,3.74026,0,0,1-6.78174.2998,10.1358,10.1358,0,0,1-.8999-4.8208,10.69823,10.69823,0,0,1,.74024-4.541,3.66658,3.66658,0,0,1,3.48047-2.38037,3.70919,3.70919,0,0,1,3.40087,2.24024,14.13249,14.13249,0,0,1,.06006,9.20215Zm-1.12011-8.66211c-.38038-1.98-1.70069-2.34034-2.36084-2.34034-.5,0-2.00049.18018-2.38037,2.56055a26.80714,26.80714,0,0,0-.16016,3.68066,27.24831,27.24831,0,0,0,.22021,4.2212c.35987,1.92041,1.54,2.42041,2.32032,2.42041.90039,0,2.04052-.6001,2.34082-2.50049a38.675,38.675,0,0,0,.02-8.042Z" transform="translate(-120.78906 -73.11865)"/>
    </g>
    <g>
      <path class="cls-2" d="M173.4707,84.561a3.74026,3.74026,0,0,1-6.78174.2998,10.1358,10.1358,0,0,1-.8999-4.8208,10.69823,10.69823,0,0,1,.74024-4.541,3.66658,3.66658,0,0,1,3.48047-2.38037,3.70919,3.70919,0,0,1,3.40087,2.24024,10.7166,10.7166,0,0,1,.8003,4.68115A10.65672,10.65672,0,0,1,173.4707,84.561Zm-1.12011-8.66211c-.38038-1.98-1.70069-2.34034-2.36084-2.34034-.5,0-2.00049.18018-2.38037,2.56055a26.80714,26.80714,0,0,0-.16016,3.68066,27.24831,27.24831,0,0,0,.22021,4.2212c.35987,1.92041,1.54,2.42041,2.32032,2.42041.90039,0,2.04052-.6001,2.34082-2.50049a24.8153,24.8153,0,0,0,.21972-4.14112A24.64163,24.64163,0,0,0,172.35059,75.89893Z" transform="translate(-120.78906 -73.11865)"/>
      <path class="cls-2" d="M183.4707,84.561a3.74026,3.74026,0,0,1-6.78174.2998,10.1358,10.1358,0,0,1-.8999-4.8208,10.69823,10.69823,0,0,1,.74024-4.541,3.66658,3.66658,0,0,1,3.48047-2.38037,3.70919,3.70919,0,0,1,3.40087,2.24024,10.7166,10.7166,0,0,1,.8003,4.68115A10.65672,10.65672,0,0,1,183.4707,84.561Zm-1.12011-8.66211c-.38038-1.98-1.70069-2.34034-2.36084-2.34034-.5,0-2.00049.18018-2.38037,2.56055a26.80714,26.80714,0,0,0-.16016,3.68066,27.24831,27.24831,0,0,0,.22021,4.2212c.35987,1.92041,1.54,2.42041,2.32032,2.42041.90039,0,2.04052-.6001,2.34082-2.50049a24.8153,24.8153,0,0,0,.21972-4.14112A24.64163,24.64163,0,0,0,182.35059,75.89893Z" transform="translate(-120.78906 -73.11865)"/>
    </g>
    <g>
      <path class="cls-2" d="M223.88086,84.561a3.74026,3.74026,0,0,1-6.78174.2998,10.1358,10.1358,0,0,1-.8999-4.8208,10.69838,10.69838,0,0,1,.74023-4.541,3.6666,3.6666,0,0,1,3.48047-2.38037,3.7092,3.7092,0,0,1,3.40088,2.24024,10.71659,10.71659,0,0,1,.80029,4.68115A10.65671,10.65671,0,0,1,223.88086,84.561Zm-1.12012-8.66211c-.38037-1.98-1.70068-2.34034-2.36084-2.34034-.5,0-2.00049.18018-2.38037,2.56055a26.8088,26.8088,0,0,0-.16015,3.68066,27.24831,27.24831,0,0,0,.22021,4.2212c.35986,1.92041,1.54,2.42041,2.32031,2.42041.90039,0,2.04053-.6001,2.34082-2.50049a24.81418,24.81418,0,0,0,.21973-4.14112A24.6404,24.6404,0,0,0,222.76074,75.89893Z" transform="translate(-120.78906 -73.11865)"/>
      <path class="cls-2" d="M230.56006,86.38135c-.80029,0-2.54053,0-3.24072.06006v-.62012h.64013c1.8003,0,1.86035-.24024,1.86035-.96045V74.499a5.99121,5.99121,0,0,1-2.6206.52v-.62011a4.94382,4.94382,0,0,0,3.64111-1.28028c.46,0,.46.04.46.52V84.86084c0,.74023.06006.96045,1.86035.96045h.64014v.62012C233.10059,86.38135,231.36035,86.38135,230.56006,86.38135Z" transform="translate(-120.78906 -73.11865)"/>
    </g>
    <g>
      <path class="cls-2" d="M270.06006,86.60132c-.80029,0-2.54053,0-3.24072.06006v-.62012h.64013c1.8003,0,1.86035-.24023,1.86035-.96045V74.719a5.99121,5.99121,0,0,1-2.6206.52V74.6189a4.94382,4.94382,0,0,0,3.64111-1.28028c.46,0,.46.04.46.52V85.08081c0,.74023.06006.96045,1.86035.96045h.64014v.62012C272.60059,86.60132,270.86035,86.60132,270.06006,86.60132Z" transform="translate(-120.78906 -73.11865)"/>
      <path class="cls-2" d="M280.06006,86.60132c-.80029,0-2.54053,0-3.24072.06006v-.62012h.64013c1.8003,0,1.86035-.24023,1.86035-.96045V74.719a5.99121,5.99121,0,0,1-2.6206.52V74.6189a4.94382,4.94382,0,0,0,3.64111-1.28028c.46,0,.46.04.46.52V85.08081c0,.74023.06006.96045,1.86035.96045h.64014v.62012C282.60059,86.60132,280.86035,86.60132,280.06006,86.60132Z" transform="translate(-120.78906 -73.11865)"/>
    </g>
    <g>
      <path class="cls-2" d="M319.6499,86.38135c-.80029,0-2.54052,0-3.24072.06006v-.62012h.64014c1.80029,0,1.86035-.24024,1.86035-.96045V74.499a5.99127,5.99127,0,0,1-2.62061.52v-.62011a4.94385,4.94385,0,0,0,3.64112-1.28028c.46,0,.46.04.46.52V84.86084c0,.74023.06006.96045,1.86035.96045h.64014v.62012C322.19043,86.38135,320.4502,86.38135,319.6499,86.38135Z" transform="translate(-120.78906 -73.11865)"/>
      <path class="cls-2" d="M332.9707,84.561a3.74026,3.74026,0,0,1-6.78174.2998,10.1358,10.1358,0,0,1-.8999-4.8208,10.69823,10.69823,0,0,1,.74024-4.541,3.66658,3.66658,0,0,1,3.48047-2.38037,3.70919,3.70919,0,0,1,3.40087,2.24024,10.7166,10.7166,0,0,1,.8003,4.68115A10.65672,10.65672,0,0,1,332.9707,84.561Zm-1.12011-8.66211c-.38038-1.98-1.70069-2.34034-2.36084-2.34034-.5,0-2.00049.18018-2.38037,2.56055a26.80714,26.80714,0,0,0-.16016,3.68066,27.24831,27.24831,0,0,0,.22021,4.2212c.35987,1.92041,1.54,2.42041,2.32032,2.42041.90039,0,2.04052-.6001,2.34082-2.50049a24.8153,24.8153,0,0,0,.21972-4.14112A24.64163,24.64163,0,0,0,331.85059,75.89893Z" transform="translate(-120.78906 -73.11865)"/>
    </g>
  </g>
  <g id="Layer_3" data-name="Layer 3">
    <circle class="cls-2" cx="39.21094" cy="36.88135" r="4"/>
    <circle class="cls-2" cx="39.21094" cy="216.88135" r="4"/>
    <circle class="cls-2" cx="219.21094" cy="36.88135" r="4"/>
    <circle class="cls-2" cx="219.21094" cy="216.88135" r="4"/>
  </g>
</svg>
