<?xml version="1.0" encoding="utf-8"?>
<!-- Generator: Adobe Illustrator 23.0.3, SVG Export Plug-In . SVG Version: 6.00 Build 0)  -->
<svg version="1.1" id="Layer_1" xmlns="http://www.w3.org/2000/svg" xmlns:xlink="http://www.w3.org/1999/xlink" x="0px" y="0px"
	 viewBox="0 0 294.55182 251.78369" style="enable-background:new 0 0 294.55182 251.78369;" xml:space="preserve">
<style type="text/css">
	.st0{fill:none;stroke:#8FF4DD;stroke-width:2;stroke-miterlimit:10;}
	.st1{fill:#8FF4DD;}
	.st2{fill:none;stroke:#FF0000;stroke-width:2;stroke-miterlimit:10;}
	.st3{fill:none;stroke:#0000FF;stroke-width:2;stroke-miterlimit:10;}
	.st4{fill:#FF0000;}
	.st5{fill:#0000FF;}
</style>
<title>4x4KMapExample</title>
<g>
	<g>
		<g>
			<rect x="50.70711" y="50.78369" class="st0" width="200" height="200"/>
			<line class="st0" x1="250.70711" y1="100.78369" x2="50.70711" y2="100.78369"/>
			<line class="st0" x1="250.70711" y1="150.78369" x2="50.70711" y2="150.78369"/>
			<line class="st0" x1="250.70711" y1="200.78369" x2="50.70711" y2="200.78369"/>
			<line class="st0" x1="100.70711" y1="250.78369" x2="100.70711" y2="50.78369"/>
			<line class="st0" x1="150.70711" y1="250.78369" x2="150.70711" y2="50.78369"/>
			<line class="st0" x1="200.70711" y1="250.78369" x2="200.70711" y2="50.78369"/>
		</g>
		<line class="st0" x1="50.70711" y1="50.78369" x2="0.70711" y2="0.78369"/>
	</g>
</g>
<g>
	<g>
		<path class="st1" d="M34.08162,14.26318c-0.76025,0-2.16064,0-2.88086,0.06006v-0.62012c0.53999,0,1.66064,0,1.66064-0.60009
			c-0.01039-0.09523-0.03052-0.18915-0.06006-0.28028L31.7408,9.76221h-4.94092l-0.91992,2.6206
			c-0.02446,0.0983-0.03787,0.19902-0.04,0.30029c0,0.52,0.5,1.02,1.5,1.02v0.62012l-2.30029-0.06006l-2.04053,0.06006V13.7031
			c0.96914,0.1362,1.90205-0.42196,2.24024-1.34033l4.14111-11.9624c0.1001-0.28027,0.16016-0.40039,0.48-0.40039
			c0.32031,0,0.36035,0.14014,0.46045,0.40039l4.3208,12.50244c0.21973,0.66016,0.5,0.80029,1.7002,0.80029h0.36035v0.62012
			L34.08162,14.26318z M29.26033,2.64062l-2.24022,6.50147h4.50101L29.26033,2.64062z"/>
		<path class="st1" d="M45.92097,14.32324h-7.8418v-0.62012h0.48c1.54053,0,1.58057-0.22021,1.58057-0.94043v-10.542
			c0-0.72021-0.03999-0.94043-1.58057-0.94043h-0.48V0.66014h7.32129c2.60059,0,4.44141,1.64063,4.44141,3.38086
			c0,1.48047-1.38039,2.76075-3.32082,3.14063c2.22021,0.24023,3.86084,1.74023,3.86084,3.481
			C50.38191,12.54297,48.5811,14.32324,45.92097,14.32324z M45.26082,1.28024h-2.48047c-0.94043,0-0.98047,0.14014-0.98047,0.8003
			v4.92089h2.90088c1.66313,0.10168,3.09381-1.16413,3.1955-2.82726c0.0027-0.04435,0.00444-0.08876,0.00519-0.13319
			c0.05638-1.46726-1.08736-2.70242-2.55461-2.7588c-0.02866-0.0011-0.05734-0.00174-0.08601-0.00191V1.28024z M45.56062,7.44186
			h-3.76076v5.46094c0,0.66016,0.03999,0.80029,0.98047,0.80029h2.50049c1.73337-0.02055,3.12187-1.44239,3.10132-3.17575
			c-0.01894-1.59639-1.23318-2.92424-2.82153-3.08548H45.56062z"/>
	</g>
	<g>
		<path class="st1" d="M8.44051,50.76318c-4.01594-0.17487-7.12974-3.57219-6.95487-7.58813
			c0.1642-3.77097,3.18391-6.79067,6.95487-6.95487c1.418,0.01444,2.76038,0.64175,3.68115,1.72022l1-1.48
			c0.16016-0.24024,0.24024-0.24024,0.32031-0.24024c0.21973,0,0.21973,0.14014,0.21973,0.48v4.74121c0,0.41993,0,0.48-0.31982,0.48
			c-0.28028,0-0.28028-0.06006-0.32032-0.33985c-0.3999-2.9209-2.18017-4.74121-4.36084-4.74121
			c-1.22021,0-5.12109,0.68018-5.12109,6.66162c0,5.96094,3.9209,6.64112,5.14111,6.64112
			c2.47146-0.02663,4.46538-2.02944,4.481-4.501c0.02-0.19971,0.02-0.31983,0.24023-0.31983
			c0.25977,0,0.25977,0.14014,0.25977,0.33985C13.59162,48.49656,11.27585,50.75905,8.44051,50.76318z"/>
		<path class="st1" d="M22.82039,50.32324h-7.32128v-0.62012h0.48c1.54053,0,1.58057-0.22021,1.58057-0.94043V38.22069
			c0-0.72021-0.04-0.94043-1.58057-0.94043h-0.48v-0.62012h7.32129c3.4209,0,6.12157,3.14063,6.12157,6.9419
			c0.16748,3.54435-2.57002,6.55338-6.11438,6.72086C22.8252,50.32302,22.82279,50.32313,22.82039,50.32324z M25.90145,39.14063
			c-0.8243-1.1922-2.19202-1.89101-3.64112-1.86035h-2.00049c-0.93994,0-0.98,0.14014-0.98,0.8003v10.82226
			c0,0.66016,0.04,0.80029,0.98,0.80029h2.02051c1.3893,0.02934,2.71033-0.60138,3.561-1.70019
			c0.85488-1.29988,1.24277-2.85164,1.1001-4.40088C27.05285,42.04404,26.6903,40.48878,25.90145,39.14063z"/>
	</g>
	<g>
		<path class="st1" d="M29.17781,80.3447c-0.78419,1.91106-2.96911,2.82455-4.88016,2.04037
			c-0.82009-0.33652-1.49401-0.95337-1.90158-1.74057c-0.69006-1.50905-0.99906-3.16443-0.8999-4.8208
			c-0.08551-1.54944,0.16708-3.09894,0.74024-4.541c0.54224-1.44791,1.93448-2.40009,3.48047-2.38037
			c1.47885,0.00201,2.8152,0.8823,3.40087,2.24024c1.04608,2.97478,1.06723,6.21397,0.06006,9.20216V80.3447z M28.0577,71.68259
			c-0.38038-1.98-1.70069-2.34034-2.36084-2.34034c-0.5,0-2.00049,0.18018-2.38037,2.56055
			c-0.13773,1.22176-0.19124,2.45155-0.16016,3.68066c-0.03601,1.41064,0.03761,2.82196,0.22021,4.22121
			c0.35987,1.92041,1.54,2.42041,2.32032,2.42041c0.90039,0,2.04052-0.6001,2.34082-2.50049
			c0.18865-1.37183,0.26215-2.75703,0.21972-4.14112c0.03675-1.30351-0.03002-2.60789-0.1997-3.90083V71.68259z"/>
		<path class="st1" d="M39.17781,80.3447c-0.78418,1.91106-2.96912,2.82455-4.88016,2.04037
			c-0.8201-0.33652-1.494-0.95337-1.90158-1.74057c-0.69005-1.50905-0.99907-3.16443-0.8999-4.8208
			c-0.08551-1.54944,0.16707-3.09893,0.74023-4.541c0.54224-1.44791,1.93448-2.40009,3.48047-2.38037
			c1.47885,0.00201,2.8152,0.8823,3.40086,2.24024c1.04608,2.97478,1.06723,6.21397,0.06006,9.20216L39.17781,80.3447z
			 M38.05769,71.68259c-0.38039-1.98-1.70068-2.34034-2.36084-2.34034c-0.5,0-2.00049,0.18018-2.38037,2.56055
			c-0.13773,1.22176-0.19124,2.45155-0.16016,3.68066c-0.03601,1.41065,0.03761,2.82196,0.22021,4.22121
			c0.35986,1.92041,1.53999,2.42041,2.32031,2.42041c0.90039,0,2.04053-0.6001,2.34082-2.50049
			c0.18866-1.37183,0.26215-2.75703,0.21973-4.14112c0.03676-1.30351-0.03003-2.60789-0.19971-3.90083V71.68259z"/>
	</g>
	<g>
		<path class="st1" d="M29.58797,130.3447c-0.78418,1.91106-2.96911,2.82455-4.88016,2.04037
			c-0.82009-0.33652-1.49401-0.95337-1.90158-1.74057c-0.69006-1.50905-0.99906-3.16443-0.8999-4.8208
			c-0.08551-1.54944,0.16707-3.09894,0.74023-4.541c0.54224-1.44791,1.93448-2.40009,3.48047-2.38037
			c1.47885,0.00201,2.81521,0.88229,3.40089,2.24023c1.04607,2.97478,1.06721,6.21396,0.06006,9.20215V130.3447z
			 M28.46785,121.68259c-0.38037-1.98-1.70068-2.34035-2.36084-2.34035c-0.5,0-2.00049,0.18018-2.38037,2.56055
			c-0.13772,1.22177-0.19123,2.45155-0.16015,3.68066c-0.03601,1.41064,0.03761,2.82196,0.22021,4.22121
			c0.35986,1.92041,1.54,2.42041,2.32031,2.42041c0.90039,0,2.04053-0.6001,2.34082-2.50049
			c0.28612-2.67268,0.29283-5.36792,0.02-8.04199H28.46785z"/>
		<path class="st1" d="M36.26717,132.16504c-0.80029,0-2.54053,0-3.24072,0.06006v-0.62012h0.64014
			c1.80029,0,1.86035-0.24023,1.86035-0.96045v-10.36185c-0.82326,0.36838-1.71907,0.54613-2.62061,0.52v-0.62012
			c1.33704,0.08421,2.651-0.37781,3.64111-1.28027c0.46001,0,0.46001,0.03999,0.46001,0.52v11.22217
			c0,0.74023,0.06006,0.96045,1.86035,0.96045h0.64014v0.62012C38.80769,132.16504,37.06746,132.16504,36.26717,132.16504z"/>
	</g>
	<g>
		<path class="st1" d="M25.76717,182.38501c-0.80029,0-2.54053,0-3.24072,0.06006v-0.62012h0.64013
			c1.8003,0,1.86035-0.24023,1.86035-0.96045v-10.36182c-0.82326,0.36838-1.71906,0.54613-2.6206,0.52v-0.62012
			c1.33704,0.08421,2.65101-0.37781,3.64111-1.28027c0.46,0,0.46,0.03999,0.46,0.52v11.22217
			c0,0.74023,0.06006,0.96045,1.86035,0.96045h0.64014v0.62012C28.3077,182.38501,26.56746,182.38501,25.76717,182.38501z"/>
		<path class="st1" d="M35.76717,182.38501c-0.80029,0-2.54053,0-3.24072,0.06006v-0.62012h0.64014
			c1.80029,0,1.86035-0.24023,1.86035-0.96045v-10.36182c-0.82326,0.36838-1.71907,0.54613-2.62061,0.52v-0.62012
			c1.33704,0.08421,2.651-0.37781,3.64111-1.28027c0.46001,0,0.46001,0.03999,0.46001,0.52v11.22217
			c0,0.74023,0.06006,0.96045,1.86035,0.96045h0.64014v0.62012C38.30769,182.38501,36.56746,182.38501,35.76717,182.38501z"/>
	</g>
	<g>
		<path class="st1" d="M25.35701,232.16504c-0.80029,0-2.54052,0-3.24072,0.06006v-0.62012h0.64014
			c1.80029,0,1.86035-0.24023,1.86035-0.96045v-10.36185c-0.82327,0.36838-1.71907,0.54611-2.62061,0.51999v-0.62012
			c1.33704,0.0842,2.65101-0.37781,3.64112-1.28027c0.46,0,0.46,0.04001,0.46,0.51999v11.22217
			c0,0.74023,0.06006,0.96045,1.86035,0.96045h0.64014v0.62012C27.89754,232.16504,26.15731,232.16504,25.35701,232.16504z"/>
		<path class="st1" d="M38.67781,230.3447c-0.78418,1.91104-2.96912,2.82455-4.88016,2.04037
			c-0.8201-0.33652-1.494-0.95337-1.90158-1.74057c-0.69005-1.50903-0.99907-3.16443-0.8999-4.8208
			c-0.08551-1.54944,0.16707-3.09894,0.74023-4.54099c0.54224-1.44791,1.93448-2.40009,3.48047-2.38037
			c1.47885,0.00201,2.8152,0.88229,3.40086,2.24023c1.04608,2.97479,1.06723,6.21396,0.06006,9.20215L38.67781,230.3447z
			 M37.55769,221.68259c-0.38039-1.98001-1.70068-2.34033-2.36084-2.34033c-0.5,0-2.00049,0.18018-2.38037,2.56055
			c-0.13773,1.22177-0.19124,2.45157-0.16016,3.68066c-0.03601,1.41064,0.03761,2.82196,0.22021,4.22119
			c0.35986,1.92041,1.53999,2.42041,2.32031,2.42041c0.90039,0,2.04053-0.6001,2.34082-2.50049
			c0.28612-2.6727,0.29282-5.36792,0.02-8.04199H37.55769z"/>
	</g>
	<g>
		<path class="st1" d="M74.17781,35.34469c-0.78419,1.91105-2.96912,2.82455-4.88016,2.04037
			c-0.8201-0.33652-1.494-0.95338-1.90158-1.74057c-0.69005-1.50905-0.99907-3.16443-0.8999-4.8208
			c-0.08551-1.54944,0.16707-3.09893,0.74023-4.541c0.54224-1.44791,1.93448-2.40009,3.48047-2.38037
			c1.47885,0.00201,2.8152,0.8823,3.40086,2.24024c0.61349,1.4809,0.88698,3.08055,0.80029,4.68115
			C75.00195,32.36655,74.74937,33.90918,74.17781,35.34469z M73.05769,26.68258c-0.38039-1.98-1.70068-2.34034-2.36084-2.34034
			c-0.5,0-2.00049,0.18018-2.38037,2.56055c-0.13773,1.22176-0.19124,2.45155-0.16016,3.68066
			c-0.03601,1.41064,0.03761,2.82196,0.22021,4.2212c0.35986,1.92041,1.53999,2.42041,2.32031,2.42041
			c0.90039,0,2.04053-0.6001,2.34082-2.50049c0.18866-1.37183,0.26215-2.75703,0.21973-4.14112
			c0.03676-1.3035-0.03003-2.60788-0.19971-3.90082V26.68258z"/>
		<path class="st1" d="M84.17781,35.34469c-0.78419,1.91105-2.96912,2.82455-4.88016,2.04037
			c-0.8201-0.33652-1.494-0.95338-1.90158-1.74057c-0.69005-1.50905-0.99907-3.16443-0.8999-4.8208
			c-0.08551-1.54944,0.16707-3.09893,0.74023-4.541c0.54224-1.44791,1.93448-2.40009,3.48047-2.38037
			c1.47885,0.00201,2.8152,0.8823,3.40086,2.24024c0.61349,1.4809,0.88698,3.08055,0.80029,4.68115
			C85.00195,32.36655,84.74937,33.90918,84.17781,35.34469z M83.05769,26.68258c-0.38039-1.98-1.70068-2.34034-2.36084-2.34034
			c-0.5,0-2.00049,0.18018-2.38037,2.56055c-0.13773,1.22176-0.19124,2.45155-0.16016,3.68066
			c-0.03601,1.41064,0.03761,2.82196,0.22021,4.2212c0.35986,1.92041,1.53999,2.42041,2.32031,2.42041
			c0.90039,0,2.04053-0.6001,2.34082-2.50049c0.18866-1.37183,0.26215-2.75703,0.21973-4.14112
			c0.03676-1.3035-0.03003-2.60788-0.19971-3.90082V26.68258z"/>
	</g>
	<g>
		<path class="st1" d="M124.58797,35.34469c-0.78419,1.91105-2.96912,2.82455-4.88016,2.04037
			c-0.8201-0.33652-1.494-0.95338-1.90158-1.74057c-0.69005-1.50905-0.99907-3.16443-0.8999-4.8208
			c-0.08551-1.54944,0.16707-3.09893,0.74023-4.541c0.54225-1.44791,1.93448-2.40009,3.48047-2.38037
			c1.47885,0.00201,2.8152,0.8823,3.40088,2.24024c0.61349,1.4809,0.88698,3.08055,0.80029,4.68115
			C125.41212,32.36655,125.15955,33.90918,124.58797,35.34469z M123.46785,26.68258c-0.38037-1.98-1.70068-2.34034-2.36084-2.34034
			c-0.5,0-2.00049,0.18018-2.38037,2.56055c-0.13773,1.22176-0.19124,2.45155-0.16016,3.68066
			c-0.03601,1.41064,0.03761,2.82196,0.22021,4.2212c0.35986,1.92041,1.53999,2.42041,2.32031,2.42041
			c0.90039,0,2.04053-0.6001,2.34082-2.50049c0.18866-1.37183,0.26216-2.75703,0.21973-4.14112
			c0.03676-1.3035-0.03003-2.60788-0.19971-3.90082V26.68258z"/>
		<path class="st1" d="M131.26717,37.16504c-0.80029,0-2.54053,0-3.24072,0.06006v-0.62012h0.64014
			c1.80029,0,1.86035-0.24024,1.86035-0.96045V25.28269c-0.82326,0.36838-1.71907,0.54613-2.62061,0.52v-0.62011
			c1.33704,0.08421,2.651-0.37781,3.64111-1.28028c0.46001,0,0.46001,0.04,0.46001,0.52v11.22224
			c0,0.74023,0.06006,0.96045,1.86035,0.96045h0.64014v0.62012C133.80769,37.16504,132.06746,37.16504,131.26717,37.16504z"/>
	</g>
	<g>
		<path class="st1" d="M170.76717,37.38501c-0.80029,0-2.54053,0-3.24072,0.06006v-0.62012h0.64014
			c1.80029,0,1.86035-0.24023,1.86035-0.96045V25.50269c-0.82327,0.36838-1.71906,0.54613-2.62061,0.52v-0.6201
			c1.33704,0.08421,2.651-0.37781,3.64111-1.28028c0.45999,0,0.45999,0.04,0.45999,0.52v11.2222
			c0,0.74023,0.06006,0.96045,1.86035,0.96045h0.64014v0.62012C173.30769,37.38501,171.56746,37.38501,170.76717,37.38501z"/>
		<path class="st1" d="M180.76717,37.38501c-0.80029,0-2.54053,0-3.24072,0.06006v-0.62012h0.64014
			c1.80029,0,1.86035-0.24023,1.86035-0.96045V25.50269c-0.82327,0.36838-1.71906,0.54613-2.62061,0.52v-0.6201
			c1.33704,0.08421,2.651-0.37781,3.64111-1.28028c0.45999,0,0.45999,0.04,0.45999,0.52v11.2222
			c0,0.74023,0.06006,0.96045,1.86035,0.96045h0.64014v0.62012C183.30769,37.38501,181.56746,37.38501,180.76717,37.38501z"/>
	</g>
	<g>
		<path class="st1" d="M220.35701,37.16504c-0.80029,0-2.54053,0-3.24072,0.06006v-0.62012h0.64014
			c1.80029,0,1.86035-0.24024,1.86035-0.96045V25.28269c-0.82327,0.36838-1.71906,0.54613-2.62061,0.52v-0.62011
			c1.33704,0.08421,2.651-0.37782,3.64111-1.28028c0.45999,0,0.45999,0.04,0.45999,0.52v11.22224
			c0,0.74023,0.06006,0.96045,1.86035,0.96045h0.64014v0.62012C222.89754,37.16504,221.1573,37.16504,220.35701,37.16504z"/>
		<path class="st1" d="M233.67781,35.34469c-0.78418,1.91105-2.96912,2.82455-4.88016,2.04037
			c-0.8201-0.33652-1.49402-0.95338-1.90158-1.74057c-0.69006-1.50905-0.99905-3.16443-0.8999-4.8208
			c-0.08551-1.54944,0.16708-3.09893,0.74023-4.541c0.54224-1.44791,1.93448-2.40009,3.48047-2.38037
			c1.47885,0.00201,2.81522,0.8823,3.40088,2.24024c0.61349,1.4809,0.88699,3.08055,0.80029,4.68115
			C234.50197,32.36655,234.24937,33.90918,233.67781,35.34469z M232.55769,26.68258c-0.38037-1.98-1.70068-2.34034-2.36084-2.34034
			c-0.5,0-2.00049,0.18018-2.38037,2.56055c-0.13773,1.22176-0.19125,2.45155-0.16016,3.68066
			c-0.03601,1.41064,0.03763,2.82196,0.22021,4.2212c0.35986,1.92041,1.54001,2.42041,2.32031,2.42041
			c0.90039,0,2.04053-0.6001,2.34082-2.50049c0.18866-1.37183,0.26215-2.75703,0.21973-4.14112
			c0.03674-1.3035-0.03003-2.60788-0.19971-3.90082V26.68258z"/>
	</g>
	<g>
		<line class="st0" x1="66.86827" y1="84.62253" x2="84.54594" y2="66.94486"/>
		<line class="st0" x1="66.86827" y1="66.94486" x2="84.54595" y2="84.62252"/>
	</g>
	<path class="st1" d="M129.17781,80.3447c-0.78418,1.91106-2.96912,2.82455-4.88016,2.04037
		c-0.8201-0.33652-1.494-0.95337-1.90158-1.74057c-0.69005-1.50905-0.99907-3.16443-0.8999-4.8208
		c-0.08551-1.54944,0.16707-3.09893,0.74023-4.541c0.54224-1.44791,1.93448-2.40009,3.48047-2.38037
		c1.47885,0.00201,2.8152,0.8823,3.40086,2.24024c1.04608,2.97478,1.06723,6.21397,0.06006,9.20216L129.17781,80.3447z
		 M128.05769,71.68259c-0.38039-1.98-1.70068-2.34034-2.36084-2.34034c-0.5,0-2.00049,0.18018-2.38037,2.56055
		c-0.13773,1.22176-0.19124,2.45155-0.16016,3.68066c-0.03601,1.41065,0.03761,2.82196,0.22021,4.22121
		c0.35986,1.92041,1.53999,2.42041,2.32031,2.42041c0.90039,0,2.04053-0.6001,2.34082-2.50049
		c0.18866-1.37183,0.26215-2.75703,0.21973-4.14112c0.03676-1.30351-0.03003-2.60789-0.19971-3.90083V71.68259z"/>
	<path class="st1" d="M75.76717,132.38501c-0.80029,0-2.54053,0-3.24072,0.06006v-0.62012h0.64014
		c1.80029,0,1.86035-0.24023,1.86035-0.96045v-10.36182c-0.82326,0.36838-1.71907,0.54613-2.62061,0.52v-0.62012
		c1.33704,0.08421,2.651-0.37781,3.64111-1.28027c0.46001,0,0.46001,0.03999,0.46001,0.52v11.22217
		c0,0.74023,0.06006,0.96045,1.86035,0.96045h0.64014v0.62012C78.30769,132.38501,76.56746,132.38501,75.76717,132.38501z"/>
	<g>
		<line class="st0" x1="66.86827" y1="234.62253" x2="84.54594" y2="216.94485"/>
		<line class="st0" x1="66.86827" y1="216.94485" x2="84.54595" y2="234.62251"/>
	</g>
	<g>
		<line class="st0" x1="116.86827" y1="134.62253" x2="134.54594" y2="116.94486"/>
		<line class="st0" x1="116.86827" y1="116.94486" x2="134.54594" y2="134.62251"/>
	</g>
	<path class="st1" d="M75.76717,182.38501c-0.80029,0-2.54053,0-3.24072,0.06006v-0.62012h0.64014
		c1.80029,0,1.86035-0.24023,1.86035-0.96045v-10.36182c-0.82326,0.36838-1.71907,0.54613-2.62061,0.52v-0.62012
		c1.33704,0.08421,2.651-0.37781,3.64111-1.28027c0.46001,0,0.46001,0.03999,0.46001,0.52v11.22217
		c0,0.74023,0.06006,0.96045,1.86035,0.96045h0.64014v0.62012C78.30769,182.38501,76.56746,182.38501,75.76717,182.38501z"/>
	<path class="st1" d="M125.76717,182.38501c-0.80029,0-2.54053,0-3.24072,0.06006v-0.62012h0.64014
		c1.80029,0,1.86035-0.24023,1.86035-0.96045v-10.36182c-0.82326,0.36838-1.71907,0.54613-2.62061,0.52v-0.62012
		c1.33704,0.08421,2.651-0.37781,3.64111-1.28027c0.46001,0,0.46001,0.03999,0.46001,0.52v11.22217
		c0,0.74023,0.06006,0.96045,1.86035,0.96045h0.64014v0.62012C128.30769,182.38501,126.56746,182.38501,125.76717,182.38501z"/>
	<path class="st1" d="M175.76717,182.38501c-0.80029,0-2.54053,0-3.24072,0.06006v-0.62012h0.64014
		c1.80029,0,1.86035-0.24023,1.86035-0.96045v-10.36182c-0.82327,0.36838-1.71906,0.54613-2.62061,0.52v-0.62012
		c1.33704,0.08421,2.651-0.37781,3.64111-1.28027c0.45999,0,0.45999,0.03999,0.45999,0.52v11.22217
		c0,0.74023,0.06006,0.96045,1.86035,0.96045h0.64014v0.62012C178.30769,182.38501,176.56746,182.38501,175.76717,182.38501z"/>
	<path class="st1" d="M225.76717,182.38501c-0.80029,0-2.54053,0-3.24072,0.06006v-0.62012h0.64014
		c1.80029,0,1.86035-0.24023,1.86035-0.96045v-10.36182c-0.82327,0.36838-1.71906,0.54613-2.62061,0.52v-0.62012
		c1.33704,0.08421,2.651-0.37781,3.64111-1.28027c0.45999,0,0.45999,0.03999,0.45999,0.52v11.22217
		c0,0.74023,0.06006,0.96045,1.86035,0.96045h0.64014v0.62012C228.30769,182.38501,226.56746,182.38501,225.76717,182.38501z"/>
	<path class="st1" d="M179.17781,80.3447c-0.78418,1.91106-2.96912,2.82455-4.88016,2.04037
		c-0.8201-0.33652-1.49402-0.95337-1.90158-1.74057c-0.69006-1.50905-0.99905-3.16443-0.8999-4.8208
		c-0.08551-1.54944,0.16708-3.09893,0.74023-4.541c0.54224-1.44791,1.93448-2.40009,3.48047-2.38037
		c1.47885,0.00201,2.81522,0.8823,3.40088,2.24024c1.04608,2.97478,1.06723,6.21397,0.06006,9.20216V80.3447z M178.05769,71.68259
		c-0.38037-1.98-1.70068-2.34034-2.36084-2.34034c-0.5,0-2.00049,0.18018-2.38037,2.56055
		c-0.13773,1.22176-0.19125,2.45155-0.16016,3.68066c-0.03601,1.41065,0.03763,2.82196,0.22021,4.22121
		c0.35986,1.92041,1.54001,2.42041,2.32031,2.42041c0.90039,0,2.04053-0.6001,2.34082-2.50049
		c0.18866-1.37183,0.26215-2.75703,0.21973-4.14112c0.03674-1.30351-0.03003-2.60789-0.19971-3.90083V71.68259z"/>
	<path class="st1" d="M179.17781,130.3447c-0.78418,1.91106-2.96912,2.82455-4.88016,2.04037
		c-0.8201-0.33652-1.49402-0.95337-1.90158-1.74057c-0.69006-1.50905-0.99905-3.16443-0.8999-4.8208
		c-0.08551-1.54944,0.16708-3.09894,0.74023-4.541c0.54224-1.44792,1.93448-2.4001,3.48047-2.38037
		c1.47885,0.00201,2.81522,0.88229,3.40088,2.24023c1.04608,2.97478,1.06723,6.21396,0.06006,9.20215V130.3447z
		 M178.05769,121.68259c-0.38037-1.98-1.70068-2.34035-2.36084-2.34035c-0.5,0-2.00049,0.18018-2.38037,2.56055
		c-0.13773,1.22176-0.19125,2.45155-0.16016,3.68066c-0.03601,1.41064,0.03763,2.82196,0.22021,4.22121
		c0.35986,1.92041,1.54001,2.42041,2.32031,2.42041c0.90039,0,2.04053-0.6001,2.34082-2.50049
		c0.2861-2.67268,0.29282-5.36792,0.01999-8.04199H178.05769z"/>
	<path class="st1" d="M129.17781,230.3447c-0.78418,1.91104-2.96912,2.82455-4.88016,2.04037
		c-0.8201-0.33652-1.494-0.95337-1.90158-1.74057c-0.69005-1.50903-0.99907-3.16443-0.8999-4.8208
		c-0.08551-1.54944,0.16707-3.09894,0.74023-4.54099c0.54224-1.44791,1.93448-2.40009,3.48047-2.38037
		c1.47885,0.00201,2.8152,0.88229,3.40086,2.24023c1.04608,2.97479,1.06723,6.21396,0.06006,9.20215L129.17781,230.3447z
		 M128.05769,221.68259c-0.38039-1.98001-1.70068-2.34033-2.36084-2.34033c-0.5,0-2.00049,0.18018-2.38037,2.56055
		c-0.13773,1.22177-0.19124,2.45157-0.16016,3.68066c-0.03601,1.41064,0.03761,2.82196,0.22021,4.22119
		c0.35986,1.92041,1.53999,2.42041,2.32031,2.42041c0.90039,0,2.04053-0.6001,2.34082-2.50049
		c0.28612-2.6727,0.29282-5.36792,0.02-8.04199H128.05769z"/>
	<path class="st1" d="M179.17781,230.3447c-0.78418,1.91104-2.96912,2.82455-4.88016,2.04037
		c-0.8201-0.33652-1.49402-0.95337-1.90158-1.74057c-0.69006-1.50903-0.99905-3.16443-0.8999-4.8208
		c-0.08551-1.54944,0.16708-3.09894,0.74023-4.54099c0.54224-1.44791,1.93448-2.40009,3.48047-2.38037
		c1.47885,0.00201,2.81522,0.88229,3.40088,2.24023c1.04608,2.97479,1.06723,6.21396,0.06006,9.20215V230.3447z
		 M178.05769,221.68259c-0.38037-1.98001-1.70068-2.34033-2.36084-2.34033c-0.5,0-2.00049,0.18018-2.38037,2.56055
		c-0.13773,1.22177-0.19125,2.45157-0.16016,3.68066c-0.03601,1.41064,0.03763,2.82196,0.22021,4.22119
		c0.35986,1.92041,1.54001,2.42041,2.32031,2.42041c0.90039,0,2.04053-0.6001,2.34082-2.50049
		c0.2861-2.6727,0.29282-5.36792,0.01999-8.04199H178.05769z"/>
	<path class="st1" d="M229.17781,80.3447c-0.78418,1.91106-2.96912,2.82455-4.88016,2.04037
		c-0.8201-0.33652-1.49402-0.95337-1.90158-1.74057c-0.69006-1.50905-0.99905-3.16443-0.8999-4.8208
		c-0.08551-1.54944,0.16708-3.09893,0.74023-4.541c0.54224-1.44791,1.93448-2.40009,3.48047-2.38037
		c1.47885,0.00201,2.81522,0.8823,3.40088,2.24024c1.04608,2.97478,1.06723,6.21397,0.06006,9.20216V80.3447z M228.05769,71.68259
		c-0.38037-1.98-1.70068-2.34034-2.36084-2.34034c-0.5,0-2.00049,0.18018-2.38037,2.56055
		c-0.13773,1.22176-0.19125,2.45155-0.16016,3.68066c-0.03601,1.41065,0.03763,2.82196,0.22021,4.22121
		c0.35986,1.92041,1.54001,2.42041,2.32031,2.42041c0.90039,0,2.04053-0.6001,2.34082-2.50049
		c0.18866-1.37183,0.26215-2.75703,0.21973-4.14112c0.03674-1.30351-0.03003-2.60789-0.19971-3.90083V71.68259z"/>
	<path class="st1" d="M229.17781,130.3447c-0.78418,1.91106-2.96912,2.82455-4.88016,2.04037
		c-0.8201-0.33652-1.49402-0.95337-1.90158-1.74057c-0.69006-1.50905-0.99905-3.16443-0.8999-4.8208
		c-0.08551-1.54944,0.16708-3.09894,0.74023-4.541c0.54224-1.44792,1.93448-2.4001,3.48047-2.38037
		c1.47885,0.00201,2.81522,0.88229,3.40088,2.24023c1.04608,2.97478,1.06723,6.21396,0.06006,9.20215V130.3447z
		 M228.05769,121.68259c-0.38037-1.98-1.70068-2.34035-2.36084-2.34035c-0.5,0-2.00049,0.18018-2.38037,2.56055
		c-0.13773,1.22176-0.19125,2.45155-0.16016,3.68066c-0.03601,1.41064,0.03763,2.82196,0.22021,4.22121
		c0.35986,1.92041,1.54001,2.42041,2.32031,2.42041c0.90039,0,2.04053-0.6001,2.34082-2.50049
		c0.2861-2.67268,0.29282-5.36792,0.01999-8.04199H228.05769z"/>
	<path class="st1" d="M229.17781,230.3447c-0.78418,1.91104-2.96912,2.82455-4.88016,2.04037
		c-0.8201-0.33652-1.49402-0.95337-1.90158-1.74057c-0.69006-1.50903-0.99905-3.16443-0.8999-4.8208
		c-0.08551-1.54944,0.16708-3.09894,0.74023-4.54099c0.54224-1.44791,1.93448-2.40009,3.48047-2.38037
		c1.47885,0.00201,2.81522,0.88229,3.40088,2.24023c1.04608,2.97479,1.06723,6.21396,0.06006,9.20215V230.3447z
		 M228.05769,221.68259c-0.38037-1.98001-1.70068-2.34033-2.36084-2.34033c-0.5,0-2.00049,0.18018-2.38037,2.56055
		c-0.13773,1.22177-0.19125,2.45157-0.16016,3.68066c-0.03601,1.41064,0.03763,2.82196,0.22021,4.22119
		c0.35986,1.92041,1.54001,2.42041,2.32031,2.42041c0.90039,0,2.04053-0.6001,2.34082-2.50049
		c0.2861-2.6727,0.29282-5.36792,0.01999-8.04199H228.05769z"/>
	<rect x="65.70711" y="154.53369" class="st2" width="170" height="42.5"/>
	<rect x="58.20711" y="108.28369" class="st3" width="85" height="85"/>
	<g>
		<path class="st4" d="M270.78864,183.05518c-4.01593-0.17474-7.12982-3.57196-6.95508-7.58791
			c0.16406-3.77113,3.18396-6.791,6.95508-6.95509c1.41803,0.01445,2.76038,0.64175,3.68115,1.72021l1-1.48
			c0.16016-0.24023,0.24023-0.24023,0.32031-0.24023c0.21973,0,0.21973,0.14014,0.21973,0.48v4.74121c0,0.41992,0,0.48-0.31982,0.48
			c-0.28027,0-0.28027-0.06006-0.32031-0.33984c-0.3999-2.92088-2.18018-4.74121-4.36084-4.74121
			c-1.22021,0-5.12109,0.68018-5.12109,6.66162c0,5.96094,3.9209,6.64111,5.14111,6.64111
			c2.4715-0.02664,4.46539-2.02945,4.48102-4.50101c0.01996-0.19971,0.01996-0.31982,0.24023-0.31982
			c0.25977,0,0.25977,0.14014,0.25977,0.33984C275.93976,180.78854,273.62402,183.05103,270.78864,183.05518z"/>
		<path class="st4" d="M285.16803,182.61523h-7.32129v-0.62012h0.48004c1.54053,0,1.58057-0.22021,1.58057-0.94043V170.5127
			c0-0.72021-0.04004-0.94043-1.58057-0.94043h-0.48004v-0.62012h7.32129c3.4209,0,6.12158,3.14063,6.12158,6.94141
			c0.16766,3.54442-2.5697,6.55367-6.11414,6.72133C285.17297,182.61501,285.17053,182.61513,285.16803,182.61523z
			 M288.24908,171.43262c-0.82428-1.19221-2.19202-1.89102-3.64111-1.86037h-2.00049c-0.93994,0-0.97998,0.14014-0.97998,0.80029
			v10.82227c0,0.66016,0.03998,0.80029,0.97998,0.80029h2.02051c1.38934,0.02934,2.71033-0.60138,3.56104-1.7002
			c0.85492-1.30003,1.24286-2.85196,1.1001-4.40137C289.40045,174.33569,289.0379,172.78061,288.24908,171.43262z"/>
	</g>
	<g>
		<path class="st5" d="M274.68811,132.95508c-0.76025,0-2.16064,0-2.88086,0.06006v-0.62012c0.53998,0,1.66064,0,1.66064-0.6001
			c-0.01044-0.09523-0.03052-0.18915-0.06006-0.28027l-1.06055-3.06055h-4.94092l-0.91992,2.62061
			c-0.02448,0.0983-0.0379,0.19902-0.04004,0.30029c0,0.52,0.5,1.02,1.5,1.02v0.62012l-2.30029-0.06006l-2.04053,0.06006V132.395
			c0.96918,0.13618,1.90204-0.42197,2.24023-1.34033l4.14111-11.96242c0.1001-0.28027,0.16016-0.40039,0.48004-0.40039
			c0.32031,0,0.36035,0.14014,0.46045,0.40039l4.32068,12.50244c0.21973,0.66016,0.5,0.80029,1.7002,0.80029h0.36035v0.62012
			L274.68811,132.95508z M269.86682,121.33252l-2.24023,6.50146h4.50098L269.86682,121.33252z"/>
		<path class="st5" d="M277.17633,120.59326v-2.041h1.88477v1.61133c0.04126,0.64299-0.06219,1.28703-0.30273,1.88477
			c-0.28778,0.53456-0.74945,0.95486-1.30859,1.19141l-0.42969-0.69334c0.33337-0.12737,0.61151-0.36752,0.78613-0.67873
			c0.19354-0.39673,0.29211-0.83302,0.28809-1.27441L277.17633,120.59326z"/>
		<path class="st5" d="M288.43024,133.01514h-7.32129v-0.62012h0.48004c1.54053,0,1.58057-0.22021,1.58057-0.94043V120.9126
			c0-0.72021-0.04004-0.94043-1.58057-0.94043h-0.48004v-0.62012h7.32129c3.4209,0,6.12158,3.14063,6.12158,6.94141
			c0.16766,3.54442-2.5697,6.55367-6.11414,6.72133C288.43518,133.01491,288.43274,133.01503,288.43024,133.01514z
			 M291.51129,121.83252c-0.82428-1.1922-2.19202-1.89101-3.64111-1.86035h-2.00049c-0.93994,0-0.97998,0.14014-0.97998,0.80029
			v10.82224c0,0.66016,0.03998,0.80029,0.97998,0.80029h2.02051c1.38934,0.02934,2.71033-0.60138,3.56104-1.7002
			c0.85492-1.30003,1.24286-2.85196,1.1001-4.40137C292.66266,124.73558,292.30011,123.18051,291.51129,121.83252z"/>
	</g>
</g>
</svg>
