<?xml version="1.0" encoding="utf-8"?>
<!-- Generator: Adobe Illustrator 23.0.3, SVG Export Plug-In . SVG Version: 6.00 Build 0)  -->
<svg version="1.1" id="Layer_1" xmlns="http://www.w3.org/2000/svg" xmlns:xlink="http://www.w3.org/1999/xlink" x="0px" y="0px"
	 viewBox="0 0 294.6 251.8" style="enable-background:new 0 0 294.6 251.8;" xml:space="preserve">
<style type="text/css">
	.st0{fill:none;stroke:#8FF4DD;stroke-width:2;stroke-miterlimit:10;}
	.st1{fill:#8FF4DD;}
	.st2{fill:none;stroke:#FD1D53;stroke-width:2;stroke-miterlimit:10;}
	.st3{fill:none;stroke:#2DE2E6;stroke-width:2;stroke-miterlimit:10;}
	.st4{fill:#FD1D53;}
	.st5{fill:#2DE2E6;}
</style>
<title>4x4KMapExample</title>
<g>
	<g>
		<g>
			<rect x="50.7" y="50.8" class="st0" width="200" height="200"/>
			<line class="st0" x1="250.7" y1="100.8" x2="50.7" y2="100.8"/>
			<line class="st0" x1="250.7" y1="150.8" x2="50.7" y2="150.8"/>
			<line class="st0" x1="250.7" y1="200.8" x2="50.7" y2="200.8"/>
			<line class="st0" x1="100.7" y1="250.8" x2="100.7" y2="50.8"/>
			<line class="st0" x1="150.7" y1="250.8" x2="150.7" y2="50.8"/>
			<line class="st0" x1="200.7" y1="250.8" x2="200.7" y2="50.8"/>
		</g>
		<line class="st0" x1="50.7" y1="50.8" x2="0.7" y2="0.8"/>
	</g>
</g>
<g>
	<g>
		<path class="st1" d="M34.1,14.3c-0.8,0-2.2,0-2.9,0.1v-0.6c0.5,0,1.7,0,1.7-0.6c0-0.1,0-0.2-0.1-0.3l-1.1-3.1h-4.9l-0.9,2.6
			c0,0.1,0,0.2,0,0.3c0,0.5,0.5,1,1.5,1v0.6L25,14.3l-2,0.1v-0.6c1,0.1,1.9-0.4,2.2-1.3l4.1-12C29.5,0.1,29.5,0,29.9,0
			c0.3,0,0.4,0.1,0.5,0.4l4.3,12.5c0.2,0.7,0.5,0.8,1.7,0.8h0.4v0.6L34.1,14.3z M29.3,2.6L27,9.1h4.5L29.3,2.6z"/>
		<path class="st1" d="M45.9,14.3h-7.8v-0.6h0.5c1.5,0,1.6-0.2,1.6-0.9V2.2c0-0.7,0-0.9-1.6-0.9h-0.5V0.7h7.3c2.6,0,4.4,1.6,4.4,3.4
			c0,1.5-1.4,2.8-3.3,3.1c2.2,0.2,3.9,1.7,3.9,3.5C50.4,12.5,48.6,14.3,45.9,14.3z M45.3,1.3h-2.5c-0.9,0-1,0.1-1,0.8V7h2.9
			c1.7,0.1,3.1-1.2,3.2-2.8c0,0,0-0.1,0-0.1C48,2.6,46.8,1.3,45.3,1.3C45.3,1.3,45.3,1.3,45.3,1.3L45.3,1.3L45.3,1.3z M45.6,7.4
			h-3.8v5.5c0,0.7,0,0.8,1,0.8h2.5c1.7,0,3.1-1.4,3.1-3.2C48.4,8.9,47.1,7.6,45.6,7.4L45.6,7.4z"/>
	</g>
	<g>
		<path class="st1" d="M8.4,50.8c-4-0.2-7.1-3.6-7-7.6c0.2-3.8,3.2-6.8,7-7c1.4,0,2.8,0.6,3.7,1.7l1-1.5c0.2-0.2,0.2-0.2,0.3-0.2
			c0.2,0,0.2,0.1,0.2,0.5v4.7c0,0.4,0,0.5-0.3,0.5c-0.3,0-0.3-0.1-0.3-0.3c-0.4-2.9-2.2-4.7-4.4-4.7c-1.2,0-5.1,0.7-5.1,6.7
			c0,6,3.9,6.6,5.1,6.6c2.5,0,4.5-2,4.5-4.5c0-0.2,0-0.3,0.2-0.3c0.3,0,0.3,0.1,0.3,0.3C13.6,48.5,11.3,50.8,8.4,50.8z"/>
		<path class="st1" d="M22.8,50.3h-7.3v-0.6H16c1.5,0,1.6-0.2,1.6-0.9V38.2c0-0.7,0-0.9-1.6-0.9h-0.5v-0.6h7.3
			c3.4,0,6.1,3.1,6.1,6.9C29.1,47.1,26.4,50.2,22.8,50.3C22.8,50.3,22.8,50.3,22.8,50.3z M25.9,39.1c-0.8-1.2-2.2-1.9-3.6-1.9h-2
			c-0.9,0-1,0.1-1,0.8v10.8c0,0.7,0,0.8,1,0.8h2c1.4,0,2.7-0.6,3.6-1.7c0.9-1.3,1.2-2.9,1.1-4.4C27.1,42,26.7,40.5,25.9,39.1z"/>
	</g>
	<g>
		<path class="st1" d="M29.2,80.3c-0.8,1.9-3,2.8-4.9,2c-0.8-0.3-1.5-1-1.9-1.7c-0.7-1.5-1-3.2-0.9-4.8c-0.1-1.5,0.2-3.1,0.7-4.5
			c0.5-1.4,1.9-2.4,3.5-2.4c1.5,0,2.8,0.9,3.4,2.2C30.2,74.1,30.2,77.4,29.2,80.3L29.2,80.3z M28.1,71.7c-0.4-2-1.7-2.3-2.4-2.3
			c-0.5,0-2,0.2-2.4,2.6c-0.1,1.2-0.2,2.5-0.2,3.7c0,1.4,0,2.8,0.2,4.2c0.4,1.9,1.5,2.4,2.3,2.4c0.9,0,2-0.6,2.3-2.5
			c0.2-1.4,0.3-2.8,0.2-4.1C28.3,74.3,28.2,73,28.1,71.7C28.1,71.7,28.1,71.7,28.1,71.7z"/>
		<path class="st1" d="M39.2,80.3c-0.8,1.9-3,2.8-4.9,2c-0.8-0.3-1.5-1-1.9-1.7c-0.7-1.5-1-3.2-0.9-4.8c-0.1-1.5,0.2-3.1,0.7-4.5
			c0.5-1.4,1.9-2.4,3.5-2.4c1.5,0,2.8,0.9,3.4,2.2C40.2,74.1,40.2,77.4,39.2,80.3L39.2,80.3z M38.1,71.7c-0.4-2-1.7-2.3-2.4-2.3
			c-0.5,0-2,0.2-2.4,2.6c-0.1,1.2-0.2,2.5-0.2,3.7c0,1.4,0,2.8,0.2,4.2c0.4,1.9,1.5,2.4,2.3,2.4c0.9,0,2-0.6,2.3-2.5
			c0.2-1.4,0.3-2.8,0.2-4.1C38.3,74.3,38.2,73,38.1,71.7L38.1,71.7L38.1,71.7z"/>
	</g>
	<g>
		<path class="st1" d="M29.6,130.3c-0.8,1.9-3,2.8-4.9,2c-0.8-0.3-1.5-1-1.9-1.7c-0.7-1.5-1-3.2-0.9-4.8c-0.1-1.5,0.2-3.1,0.7-4.5
			c0.5-1.4,1.9-2.4,3.5-2.4c1.5,0,2.8,0.9,3.4,2.2C30.6,124.1,30.6,127.4,29.6,130.3L29.6,130.3L29.6,130.3z M28.5,121.7
			c-0.4-2-1.7-2.3-2.4-2.3c-0.5,0-2,0.2-2.4,2.6c-0.1,1.2-0.2,2.5-0.2,3.7c0,1.4,0,2.8,0.2,4.2c0.4,1.9,1.5,2.4,2.3,2.4
			c0.9,0,2-0.6,2.3-2.5C28.7,127.1,28.7,124.4,28.5,121.7L28.5,121.7z"/>
		<path class="st1" d="M36.3,132.2c-0.8,0-2.5,0-3.2,0.1v-0.6h0.6c1.8,0,1.9-0.2,1.9-1v-10.4c-0.8,0.4-1.7,0.5-2.6,0.5v-0.6
			c1.3,0.1,2.7-0.4,3.6-1.3c0.5,0,0.5,0,0.5,0.5v11.2c0,0.7,0.1,1,1.9,1h0.6v0.6C38.8,132.2,37.1,132.2,36.3,132.2z"/>
	</g>
	<g>
		<path class="st1" d="M25.8,182.4c-0.8,0-2.5,0-3.2,0.1v-0.6h0.6c1.8,0,1.9-0.2,1.9-1v-10.4c-0.8,0.4-1.7,0.5-2.6,0.5v-0.6
			c1.3,0.1,2.7-0.4,3.6-1.3c0.5,0,0.5,0,0.5,0.5v11.2c0,0.7,0.1,1,1.9,1H29v0.6C28.3,182.4,26.6,182.4,25.8,182.4z"/>
		<path class="st1" d="M35.8,182.4c-0.8,0-2.5,0-3.2,0.1v-0.6h0.6c1.8,0,1.9-0.2,1.9-1v-10.4c-0.8,0.4-1.7,0.5-2.6,0.5v-0.6
			c1.3,0.1,2.7-0.4,3.6-1.3c0.5,0,0.5,0,0.5,0.5v11.2c0,0.7,0.1,1,1.9,1H39v0.6C38.3,182.4,36.6,182.4,35.8,182.4z"/>
	</g>
	<g>
		<path class="st1" d="M25.4,232.2c-0.8,0-2.5,0-3.2,0.1v-0.6h0.6c1.8,0,1.9-0.2,1.9-1v-10.4c-0.8,0.4-1.7,0.5-2.6,0.5v-0.6
			c1.3,0.1,2.7-0.4,3.6-1.3c0.5,0,0.5,0,0.5,0.5v11.2c0,0.7,0.1,1,1.9,1h0.6v0.6C27.9,232.2,26.2,232.2,25.4,232.2z"/>
		<path class="st1" d="M38.7,230.3c-0.8,1.9-3,2.8-4.9,2c-0.8-0.3-1.5-1-1.9-1.7c-0.7-1.5-1-3.2-0.9-4.8c-0.1-1.5,0.2-3.1,0.7-4.5
			c0.5-1.4,1.9-2.4,3.5-2.4c1.5,0,2.8,0.9,3.4,2.2C39.7,224.1,39.7,227.4,38.7,230.3L38.7,230.3z M37.6,221.7
			c-0.4-2-1.7-2.3-2.4-2.3c-0.5,0-2,0.2-2.4,2.6c-0.1,1.2-0.2,2.5-0.2,3.7c0,1.4,0,2.8,0.2,4.2c0.4,1.9,1.5,2.4,2.3,2.4
			c0.9,0,2-0.6,2.3-2.5C37.8,227.1,37.8,224.4,37.6,221.7L37.6,221.7z"/>
	</g>
	<g>
		<path class="st1" d="M74.2,35.3c-0.8,1.9-3,2.8-4.9,2c-0.8-0.3-1.5-1-1.9-1.7c-0.7-1.5-1-3.2-0.9-4.8c-0.1-1.5,0.2-3.1,0.7-4.5
			c0.5-1.4,1.9-2.4,3.5-2.4c1.5,0,2.8,0.9,3.4,2.2c0.6,1.5,0.9,3.1,0.8,4.7C75,32.4,74.7,33.9,74.2,35.3z M73.1,26.7
			c-0.4-2-1.7-2.3-2.4-2.3c-0.5,0-2,0.2-2.4,2.6c-0.1,1.2-0.2,2.5-0.2,3.7c0,1.4,0,2.8,0.2,4.2c0.4,1.9,1.5,2.4,2.3,2.4
			c0.9,0,2-0.6,2.3-2.5c0.2-1.4,0.3-2.8,0.2-4.1C73.3,29.3,73.2,28,73.1,26.7C73.1,26.7,73.1,26.7,73.1,26.7z"/>
		<path class="st1" d="M84.2,35.3c-0.8,1.9-3,2.8-4.9,2c-0.8-0.3-1.5-1-1.9-1.7c-0.7-1.5-1-3.2-0.9-4.8c-0.1-1.5,0.2-3.1,0.7-4.5
			c0.5-1.4,1.9-2.4,3.5-2.4c1.5,0,2.8,0.9,3.4,2.2c0.6,1.5,0.9,3.1,0.8,4.7C85,32.4,84.7,33.9,84.2,35.3z M83.1,26.7
			c-0.4-2-1.7-2.3-2.4-2.3c-0.5,0-2,0.2-2.4,2.6c-0.1,1.2-0.2,2.5-0.2,3.7c0,1.4,0,2.8,0.2,4.2c0.4,1.9,1.5,2.4,2.3,2.4
			c0.9,0,2-0.6,2.3-2.5c0.2-1.4,0.3-2.8,0.2-4.1C83.3,29.3,83.2,28,83.1,26.7C83.1,26.7,83.1,26.7,83.1,26.7z"/>
	</g>
	<g>
		<path class="st1" d="M124.6,35.3c-0.8,1.9-3,2.8-4.9,2c-0.8-0.3-1.5-1-1.9-1.7c-0.7-1.5-1-3.2-0.9-4.8c-0.1-1.5,0.2-3.1,0.7-4.5
			c0.5-1.4,1.9-2.4,3.5-2.4c1.5,0,2.8,0.9,3.4,2.2c0.6,1.5,0.9,3.1,0.8,4.7C125.4,32.4,125.2,33.9,124.6,35.3z M123.5,26.7
			c-0.4-2-1.7-2.3-2.4-2.3c-0.5,0-2,0.2-2.4,2.6c-0.1,1.2-0.2,2.5-0.2,3.7c0,1.4,0,2.8,0.2,4.2c0.4,1.9,1.5,2.4,2.3,2.4
			c0.9,0,2-0.6,2.3-2.5c0.2-1.4,0.3-2.8,0.2-4.1C123.7,29.3,123.6,28,123.5,26.7C123.5,26.7,123.5,26.7,123.5,26.7z"/>
		<path class="st1" d="M131.3,37.2c-0.8,0-2.5,0-3.2,0.1v-0.6h0.6c1.8,0,1.9-0.2,1.9-1V25.3c-0.8,0.4-1.7,0.5-2.6,0.5v-0.6
			c1.3,0.1,2.7-0.4,3.6-1.3c0.5,0,0.5,0,0.5,0.5v11.2c0,0.7,0.1,1,1.9,1h0.6v0.6C133.8,37.2,132.1,37.2,131.3,37.2z"/>
	</g>
	<g>
		<path class="st1" d="M170.8,37.4c-0.8,0-2.5,0-3.2,0.1v-0.6h0.6c1.8,0,1.9-0.2,1.9-1V25.5c-0.8,0.4-1.7,0.5-2.6,0.5v-0.6
			c1.3,0.1,2.7-0.4,3.6-1.3c0.5,0,0.5,0,0.5,0.5v11.2c0,0.7,0.1,1,1.9,1h0.6v0.6C173.3,37.4,171.6,37.4,170.8,37.4z"/>
		<path class="st1" d="M180.8,37.4c-0.8,0-2.5,0-3.2,0.1v-0.6h0.6c1.8,0,1.9-0.2,1.9-1V25.5c-0.8,0.4-1.7,0.5-2.6,0.5v-0.6
			c1.3,0.1,2.7-0.4,3.6-1.3c0.5,0,0.5,0,0.5,0.5v11.2c0,0.7,0.1,1,1.9,1h0.6v0.6C183.3,37.4,181.6,37.4,180.8,37.4z"/>
	</g>
	<g>
		<path class="st1" d="M220.4,37.2c-0.8,0-2.5,0-3.2,0.1v-0.6h0.6c1.8,0,1.9-0.2,1.9-1V25.3c-0.8,0.4-1.7,0.5-2.6,0.5v-0.6
			c1.3,0.1,2.7-0.4,3.6-1.3c0.5,0,0.5,0,0.5,0.5v11.2c0,0.7,0.1,1,1.9,1h0.6v0.6C222.9,37.2,221.2,37.2,220.4,37.2z"/>
		<path class="st1" d="M233.7,35.3c-0.8,1.9-3,2.8-4.9,2c-0.8-0.3-1.5-1-1.9-1.7c-0.7-1.5-1-3.2-0.9-4.8c-0.1-1.5,0.2-3.1,0.7-4.5
			c0.5-1.4,1.9-2.4,3.5-2.4c1.5,0,2.8,0.9,3.4,2.2c0.6,1.5,0.9,3.1,0.8,4.7C234.5,32.4,234.2,33.9,233.7,35.3z M232.6,26.7
			c-0.4-2-1.7-2.3-2.4-2.3c-0.5,0-2,0.2-2.4,2.6c-0.1,1.2-0.2,2.5-0.2,3.7c0,1.4,0,2.8,0.2,4.2c0.4,1.9,1.5,2.4,2.3,2.4
			c0.9,0,2-0.6,2.3-2.5c0.2-1.4,0.3-2.8,0.2-4.1C232.8,29.3,232.7,28,232.6,26.7L232.6,26.7z"/>
	</g>
	<g>
		<line class="st0" x1="66.9" y1="84.6" x2="84.5" y2="66.9"/>
		<line class="st0" x1="66.9" y1="66.9" x2="84.5" y2="84.6"/>
	</g>
	<path class="st1" d="M129.2,80.3c-0.8,1.9-3,2.8-4.9,2c-0.8-0.3-1.5-1-1.9-1.7c-0.7-1.5-1-3.2-0.9-4.8c-0.1-1.5,0.2-3.1,0.7-4.5
		c0.5-1.4,1.9-2.4,3.5-2.4c1.5,0,2.8,0.9,3.4,2.2C130.2,74.1,130.2,77.4,129.2,80.3L129.2,80.3z M128.1,71.7c-0.4-2-1.7-2.3-2.4-2.3
		c-0.5,0-2,0.2-2.4,2.6c-0.1,1.2-0.2,2.5-0.2,3.7c0,1.4,0,2.8,0.2,4.2c0.4,1.9,1.5,2.4,2.3,2.4c0.9,0,2-0.6,2.3-2.5
		c0.2-1.4,0.3-2.8,0.2-4.1C128.3,74.3,128.2,73,128.1,71.7L128.1,71.7L128.1,71.7z"/>
	<path class="st1" d="M75.8,132.4c-0.8,0-2.5,0-3.2,0.1v-0.6h0.6c1.8,0,1.9-0.2,1.9-1v-10.4c-0.8,0.4-1.7,0.5-2.6,0.5v-0.6
		c1.3,0.1,2.7-0.4,3.6-1.3c0.5,0,0.5,0,0.5,0.5v11.2c0,0.7,0.1,1,1.9,1H79v0.6C78.3,132.4,76.6,132.4,75.8,132.4z"/>
	<g>
		<line class="st0" x1="66.9" y1="234.6" x2="84.5" y2="216.9"/>
		<line class="st0" x1="66.9" y1="216.9" x2="84.5" y2="234.6"/>
	</g>
	<g>
		<line class="st0" x1="116.9" y1="134.6" x2="134.5" y2="116.9"/>
		<line class="st0" x1="116.9" y1="116.9" x2="134.5" y2="134.6"/>
	</g>
	<path class="st1" d="M75.8,182.4c-0.8,0-2.5,0-3.2,0.1v-0.6h0.6c1.8,0,1.9-0.2,1.9-1v-10.4c-0.8,0.4-1.7,0.5-2.6,0.5v-0.6
		c1.3,0.1,2.7-0.4,3.6-1.3c0.5,0,0.5,0,0.5,0.5v11.2c0,0.7,0.1,1,1.9,1H79v0.6C78.3,182.4,76.6,182.4,75.8,182.4z"/>
	<path class="st1" d="M125.8,182.4c-0.8,0-2.5,0-3.2,0.1v-0.6h0.6c1.8,0,1.9-0.2,1.9-1v-10.4c-0.8,0.4-1.7,0.5-2.6,0.5v-0.6
		c1.3,0.1,2.7-0.4,3.6-1.3c0.5,0,0.5,0,0.5,0.5v11.2c0,0.7,0.1,1,1.9,1h0.6v0.6C128.3,182.4,126.6,182.4,125.8,182.4z"/>
	<path class="st1" d="M175.8,182.4c-0.8,0-2.5,0-3.2,0.1v-0.6h0.6c1.8,0,1.9-0.2,1.9-1v-10.4c-0.8,0.4-1.7,0.5-2.6,0.5v-0.6
		c1.3,0.1,2.7-0.4,3.6-1.3c0.5,0,0.5,0,0.5,0.5v11.2c0,0.7,0.1,1,1.9,1h0.6v0.6C178.3,182.4,176.6,182.4,175.8,182.4z"/>
	<path class="st1" d="M225.8,182.4c-0.8,0-2.5,0-3.2,0.1v-0.6h0.6c1.8,0,1.9-0.2,1.9-1v-10.4c-0.8,0.4-1.7,0.5-2.6,0.5v-0.6
		c1.3,0.1,2.7-0.4,3.6-1.3c0.5,0,0.5,0,0.5,0.5v11.2c0,0.7,0.1,1,1.9,1h0.6v0.6C228.3,182.4,226.6,182.4,225.8,182.4z"/>
	<path class="st1" d="M179.2,80.3c-0.8,1.9-3,2.8-4.9,2c-0.8-0.3-1.5-1-1.9-1.7c-0.7-1.5-1-3.2-0.9-4.8c-0.1-1.5,0.2-3.1,0.7-4.5
		c0.5-1.4,1.9-2.4,3.5-2.4c1.5,0,2.8,0.9,3.4,2.2C180.2,74.1,180.2,77.4,179.2,80.3L179.2,80.3z M178.1,71.7c-0.4-2-1.7-2.3-2.4-2.3
		c-0.5,0-2,0.2-2.4,2.6c-0.1,1.2-0.2,2.5-0.2,3.7c0,1.4,0,2.8,0.2,4.2c0.4,1.9,1.5,2.4,2.3,2.4c0.9,0,2-0.6,2.3-2.5
		c0.2-1.4,0.3-2.8,0.2-4.1C178.3,74.3,178.2,73,178.1,71.7L178.1,71.7z"/>
	<path class="st1" d="M179.2,130.3c-0.8,1.9-3,2.8-4.9,2c-0.8-0.3-1.5-1-1.9-1.7c-0.7-1.5-1-3.2-0.9-4.8c-0.1-1.5,0.2-3.1,0.7-4.5
		c0.5-1.4,1.9-2.4,3.5-2.4c1.5,0,2.8,0.9,3.4,2.2C180.2,124.1,180.2,127.4,179.2,130.3L179.2,130.3z M178.1,121.7
		c-0.4-2-1.7-2.3-2.4-2.3c-0.5,0-2,0.2-2.4,2.6c-0.1,1.2-0.2,2.5-0.2,3.7c0,1.4,0,2.8,0.2,4.2c0.4,1.9,1.5,2.4,2.3,2.4
		c0.9,0,2-0.6,2.3-2.5C178.3,127.1,178.3,124.4,178.1,121.7L178.1,121.7z"/>
	<path class="st1" d="M129.2,230.3c-0.8,1.9-3,2.8-4.9,2c-0.8-0.3-1.5-1-1.9-1.7c-0.7-1.5-1-3.2-0.9-4.8c-0.1-1.5,0.2-3.1,0.7-4.5
		c0.5-1.4,1.9-2.4,3.5-2.4c1.5,0,2.8,0.9,3.4,2.2C130.2,224.1,130.2,227.4,129.2,230.3L129.2,230.3z M128.1,221.7
		c-0.4-2-1.7-2.3-2.4-2.3c-0.5,0-2,0.2-2.4,2.6c-0.1,1.2-0.2,2.5-0.2,3.7c0,1.4,0,2.8,0.2,4.2c0.4,1.9,1.5,2.4,2.3,2.4
		c0.9,0,2-0.6,2.3-2.5C128.3,227.1,128.3,224.4,128.1,221.7L128.1,221.7z"/>
	<path class="st1" d="M179.2,230.3c-0.8,1.9-3,2.8-4.9,2c-0.8-0.3-1.5-1-1.9-1.7c-0.7-1.5-1-3.2-0.9-4.8c-0.1-1.5,0.2-3.1,0.7-4.5
		c0.5-1.4,1.9-2.4,3.5-2.4c1.5,0,2.8,0.9,3.4,2.2C180.2,224.1,180.2,227.4,179.2,230.3L179.2,230.3z M178.1,221.7
		c-0.4-2-1.7-2.3-2.4-2.3c-0.5,0-2,0.2-2.4,2.6c-0.1,1.2-0.2,2.5-0.2,3.7c0,1.4,0,2.8,0.2,4.2c0.4,1.9,1.5,2.4,2.3,2.4
		c0.9,0,2-0.6,2.3-2.5C178.3,227.1,178.3,224.4,178.1,221.7L178.1,221.7z"/>
	<path class="st1" d="M229.2,80.3c-0.8,1.9-3,2.8-4.9,2c-0.8-0.3-1.5-1-1.9-1.7c-0.7-1.5-1-3.2-0.9-4.8c-0.1-1.5,0.2-3.1,0.7-4.5
		c0.5-1.4,1.9-2.4,3.5-2.4c1.5,0,2.8,0.9,3.4,2.2C230.2,74.1,230.2,77.4,229.2,80.3L229.2,80.3z M228.1,71.7c-0.4-2-1.7-2.3-2.4-2.3
		c-0.5,0-2,0.2-2.4,2.6c-0.1,1.2-0.2,2.5-0.2,3.7c0,1.4,0,2.8,0.2,4.2c0.4,1.9,1.5,2.4,2.3,2.4c0.9,0,2-0.6,2.3-2.5
		c0.2-1.4,0.3-2.8,0.2-4.1C228.3,74.3,228.2,73,228.1,71.7L228.1,71.7z"/>
	<path class="st1" d="M229.2,130.3c-0.8,1.9-3,2.8-4.9,2c-0.8-0.3-1.5-1-1.9-1.7c-0.7-1.5-1-3.2-0.9-4.8c-0.1-1.5,0.2-3.1,0.7-4.5
		c0.5-1.4,1.9-2.4,3.5-2.4c1.5,0,2.8,0.9,3.4,2.2C230.2,124.1,230.2,127.4,229.2,130.3L229.2,130.3z M228.1,121.7
		c-0.4-2-1.7-2.3-2.4-2.3c-0.5,0-2,0.2-2.4,2.6c-0.1,1.2-0.2,2.5-0.2,3.7c0,1.4,0,2.8,0.2,4.2c0.4,1.9,1.5,2.4,2.3,2.4
		c0.9,0,2-0.6,2.3-2.5C228.3,127.1,228.3,124.4,228.1,121.7L228.1,121.7z"/>
	<path class="st1" d="M229.2,230.3c-0.8,1.9-3,2.8-4.9,2c-0.8-0.3-1.5-1-1.9-1.7c-0.7-1.5-1-3.2-0.9-4.8c-0.1-1.5,0.2-3.1,0.7-4.5
		c0.5-1.4,1.9-2.4,3.5-2.4c1.5,0,2.8,0.9,3.4,2.2C230.2,224.1,230.2,227.4,229.2,230.3L229.2,230.3z M228.1,221.7
		c-0.4-2-1.7-2.3-2.4-2.3c-0.5,0-2,0.2-2.4,2.6c-0.1,1.2-0.2,2.5-0.2,3.7c0,1.4,0,2.8,0.2,4.2c0.4,1.9,1.5,2.4,2.3,2.4
		c0.9,0,2-0.6,2.3-2.5C228.3,227.1,228.3,224.4,228.1,221.7L228.1,221.7z"/>
	<rect x="65.7" y="154.5" class="st2" width="170" height="42.5"/>
	<rect x="58.2" y="108.3" class="st3" width="85" height="85"/>
	<g>
		<path class="st4" d="M270.8,183.1c-4-0.2-7.1-3.6-7-7.6c0.2-3.8,3.2-6.8,7-7c1.4,0,2.8,0.6,3.7,1.7l1-1.5c0.2-0.2,0.2-0.2,0.3-0.2
			c0.2,0,0.2,0.1,0.2,0.5v4.7c0,0.4,0,0.5-0.3,0.5c-0.3,0-0.3-0.1-0.3-0.3c-0.4-2.9-2.2-4.7-4.4-4.7c-1.2,0-5.1,0.7-5.1,6.7
			c0,6,3.9,6.6,5.1,6.6c2.5,0,4.5-2,4.5-4.5c0-0.2,0-0.3,0.2-0.3c0.3,0,0.3,0.1,0.3,0.3C275.9,180.8,273.6,183.1,270.8,183.1z"/>
		<path class="st4" d="M285.2,182.6h-7.3V182h0.5c1.5,0,1.6-0.2,1.6-0.9v-10.5c0-0.7,0-0.9-1.6-0.9h-0.5V169h7.3
			c3.4,0,6.1,3.1,6.1,6.9C291.5,179.4,288.7,182.4,285.2,182.6C285.2,182.6,285.2,182.6,285.2,182.6z M288.2,171.4
			c-0.8-1.2-2.2-1.9-3.6-1.9h-2c-0.9,0-1,0.1-1,0.8v10.8c0,0.7,0,0.8,1,0.8h2c1.4,0,2.7-0.6,3.6-1.7c0.9-1.3,1.2-2.9,1.1-4.4
			C289.4,174.3,289,172.8,288.2,171.4z"/>
	</g>
	<g>
		<path class="st5" d="M274.7,133c-0.8,0-2.2,0-2.9,0.1v-0.6c0.5,0,1.7,0,1.7-0.6c0-0.1,0-0.2-0.1-0.3l-1.1-3.1h-4.9l-0.9,2.6
			c0,0.1,0,0.2,0,0.3c0,0.5,0.5,1,1.5,1v0.6l-2.3-0.1l-2,0.1v-0.6c1,0.1,1.9-0.4,2.2-1.3l4.1-12c0.1-0.3,0.2-0.4,0.5-0.4
			c0.3,0,0.4,0.1,0.5,0.4l4.3,12.5c0.2,0.7,0.5,0.8,1.7,0.8h0.4v0.6L274.7,133z M269.9,121.3l-2.2,6.5h4.5L269.9,121.3z"/>
		<path class="st5" d="M277.2,120.6v-2h1.9v1.6c0,0.6-0.1,1.3-0.3,1.9c-0.3,0.5-0.7,1-1.3,1.2l-0.4-0.7c0.3-0.1,0.6-0.4,0.8-0.7
			c0.2-0.4,0.3-0.8,0.3-1.3L277.2,120.6z"/>
		<path class="st5" d="M288.4,133h-7.3v-0.6h0.5c1.5,0,1.6-0.2,1.6-0.9v-10.5c0-0.7,0-0.9-1.6-0.9h-0.5v-0.6h7.3
			c3.4,0,6.1,3.1,6.1,6.9C294.7,129.8,292,132.8,288.4,133C288.4,133,288.4,133,288.4,133z M291.5,121.8c-0.8-1.2-2.2-1.9-3.6-1.9
			h-2c-0.9,0-1,0.1-1,0.8v10.8c0,0.7,0,0.8,1,0.8h2c1.4,0,2.7-0.6,3.6-1.7c0.9-1.3,1.2-2.9,1.1-4.4
			C292.7,124.7,292.3,123.2,291.5,121.8z"/>
	</g>
</g>
</svg>
