<svg xmlns="http://www.w3.org/2000/svg" viewBox="0 0 307.02295 309.32324">
  <defs>
    <style>
      .cls-1 {
        fill: none;
        stroke: #8ff4dd;
        stroke-miterlimit: 10;
        stroke-width: 2px;
      }

      .cls-2 {
        fill: #8ff4dd;
      }
    </style>
  </defs>
  <title>4x4KMap</title>
  <g id="Layer_1" data-name="Layer 1">
    <g>
      <g>
        <rect class="cls-1" x="66.22803" y="67.78369" width="200" height="200"/>
        <line class="cls-1" x1="266.22803" y1="117.78369" x2="66.22803" y2="117.78369"/>
        <line class="cls-1" x1="266.22803" y1="167.78369" x2="66.22803" y2="167.78369"/>
        <line class="cls-1" x1="266.22803" y1="217.78369" x2="66.22803" y2="217.78369"/>
        <line class="cls-1" x1="116.22803" y1="267.78369" x2="116.22803" y2="67.78369"/>
        <line class="cls-1" x1="166.22803" y1="267.78369" x2="166.22803" y2="67.78369"/>
        <line class="cls-1" x1="216.22803" y1="267.78369" x2="216.22803" y2="67.78369"/>
      </g>
      <line class="cls-1" x1="66.22803" y1="67.78369" x2="16.22803" y2="17.78369"/>
    </g>
  </g>
  <g id="Layer_2" data-name="Layer 2">
    <g>
      <path class="cls-2" d="M133.37451,63.47949c-.76025,0-2.16064,0-2.88086.06006v-.62012c.54,0,1.66065,0,1.66065-.60009a1.40259,1.40259,0,0,0-.06006-.28028l-1.06055-3.06054h-4.94092l-.91992,2.6206a1.36209,1.36209,0,0,0-.04.30029c0,.52.5,1.02,1.5,1.02v.62012l-2.30029-.06006-2.04053.06006v-.62012a2.079,2.079,0,0,0,2.24024-1.34033l4.14111-11.9624c.1001-.28027.16016-.40039.48-.40039.32031,0,.36035.14014.46045.40039l4.3208,12.50244c.21973.66016.5.80029,1.7002.80029h.36035v.62012Zm-4.82129-11.62256L126.313,58.3584h4.501Z" transform="translate(-83.77197 -32.21631)"/>
      <path class="cls-2" d="M145.21387,63.53955h-7.8418v-.62012h.48c1.54053,0,1.58057-.22021,1.58057-.94043V51.437c0-.72021-.04-.94043-1.58057-.94043h-.48v-.62012h7.32129c2.60059,0,4.44141,1.64063,4.44141,3.38086,0,1.48047-1.38038,2.76075-3.32081,3.14063,2.22022.24023,3.86084,1.74023,3.86084,3.481C149.6748,61.75928,147.874,63.53955,145.21387,63.53955Zm-.66016-13.043h-2.48047c-.94043,0-.98047.14014-.98047.8003v4.92089h2.90088a3.017,3.017,0,0,0,3.20069-2.96045A2.65867,2.65867,0,0,0,144.55371,50.49658Zm.29981,6.16162h-3.76075v5.46094c0,.66016.04.80029.98047.80029h2.50049a3.13875,3.13875,0,0,0,.27979-6.26123Z" transform="translate(-83.77197 -32.21631)"/>
    </g>
    <g>
      <path class="cls-2" d="M107.7334,99.97949a7.27839,7.27839,0,0,1,0-14.543,4.906,4.906,0,0,1,3.68115,1.72022l1-1.48c.16016-.24024.24024-.24024.32031-.24024.21973,0,.21973.14014.21973.48v4.74121c0,.41993,0,.48-.31982.48-.28028,0-.28028-.06006-.32032-.33985-.3999-2.9209-2.18017-4.74121-4.36084-4.74121-1.22021,0-5.12109.68018-5.12109,6.66162,0,5.96094,3.9209,6.64112,5.14111,6.64112a4.5299,4.5299,0,0,0,4.481-4.501c.02-.19971.02-.31983.24023-.31983.25977,0,.25977.14014.25977.33985A5.23047,5.23047,0,0,1,107.7334,99.97949Z" transform="translate(-83.77197 -32.21631)"/>
      <path class="cls-2" d="M122.11328,99.53955H114.792v-.62012h.48c1.54053,0,1.58057-.22021,1.58057-.94043V87.437c0-.72021-.04-.94043-1.58057-.94043h-.48v-.62012h7.32129c3.4209,0,6.12158,3.14063,6.12158,6.9419A6.42478,6.42478,0,0,1,122.11328,99.53955Zm3.08106-11.18262a4.31572,4.31572,0,0,0-3.64112-1.86035h-2.00049c-.93994,0-.98.14014-.98.8003V98.11914c0,.66016.04.80029.98.80029h2.02051a4.38631,4.38631,0,0,0,3.561-1.70019,6.86362,6.86362,0,0,0,1.1001-4.40088A7.74084,7.74084,0,0,0,125.19434,88.35693Z" transform="translate(-83.77197 -32.21631)"/>
    </g>
    <g>
      <path class="cls-2" d="M128.4707,129.561a3.74026,3.74026,0,0,1-6.78174.2998,10.1358,10.1358,0,0,1-.8999-4.8208,10.69823,10.69823,0,0,1,.74024-4.541,3.66658,3.66658,0,0,1,3.48047-2.38037,3.70919,3.70919,0,0,1,3.40087,2.24024,14.13249,14.13249,0,0,1,.06006,9.20215Zm-1.12011-8.66211c-.38038-1.98-1.70069-2.34034-2.36084-2.34034-.5,0-2.00049.18018-2.38037,2.56055a26.80714,26.80714,0,0,0-.16016,3.68066,27.24831,27.24831,0,0,0,.22021,4.2212c.35987,1.92041,1.54,2.42041,2.32032,2.42041.90039,0,2.04052-.6001,2.34082-2.50049a24.8153,24.8153,0,0,0,.21972-4.14112A24.64163,24.64163,0,0,0,127.35059,120.89893Z" transform="translate(-83.77197 -32.21631)"/>
      <path class="cls-2" d="M138.4707,129.561a3.74026,3.74026,0,0,1-6.78174.2998,10.1358,10.1358,0,0,1-.8999-4.8208,10.69823,10.69823,0,0,1,.74024-4.541,3.66658,3.66658,0,0,1,3.48047-2.38037,3.70919,3.70919,0,0,1,3.40087,2.24024,14.13249,14.13249,0,0,1,.06006,9.20215Zm-1.12011-8.66211c-.38038-1.98-1.70069-2.34034-2.36084-2.34034-.5,0-2.00049.18018-2.38037,2.56055a26.80714,26.80714,0,0,0-.16016,3.68066,27.24831,27.24831,0,0,0,.22021,4.2212c.35987,1.92041,1.54,2.42041,2.32032,2.42041.90039,0,2.04052-.6001,2.34082-2.50049a24.8153,24.8153,0,0,0,.21972-4.14112A24.64163,24.64163,0,0,0,137.35059,120.89893Z" transform="translate(-83.77197 -32.21631)"/>
    </g>
    <g>
      <path class="cls-2" d="M128.88086,179.561a3.74026,3.74026,0,0,1-6.78174.2998,10.1358,10.1358,0,0,1-.8999-4.8208,10.69838,10.69838,0,0,1,.74023-4.541,3.6666,3.6666,0,0,1,3.48047-2.38037,3.7092,3.7092,0,0,1,3.40088,2.24024,14.13266,14.13266,0,0,1,.06006,9.20215Zm-1.12012-8.66211c-.38037-1.98-1.70068-2.34034-2.36084-2.34034-.5,0-2.00049.18018-2.38037,2.56055a26.8088,26.8088,0,0,0-.16015,3.68066,27.24831,27.24831,0,0,0,.22021,4.2212c.35986,1.92041,1.54,2.42041,2.32031,2.42041.90039,0,2.04053-.6001,2.34082-2.50049a38.67314,38.67314,0,0,0,.02-8.042Z" transform="translate(-83.77197 -32.21631)"/>
      <path class="cls-2" d="M135.56006,181.38135c-.80029,0-2.54053,0-3.24072.06006v-.62012h.64013c1.8003,0,1.86035-.24024,1.86035-.96045V169.499a5.99121,5.99121,0,0,1-2.6206.52v-.62011a4.94382,4.94382,0,0,0,3.64111-1.28028c.46,0,.46.04.46.52v11.22217c0,.74023.06006.96045,1.86035.96045h.64014v.62012C138.10059,181.38135,136.36035,181.38135,135.56006,181.38135Z" transform="translate(-83.77197 -32.21631)"/>
    </g>
    <g>
      <path class="cls-2" d="M125.06006,231.60132c-.80029,0-2.54053,0-3.24072.06006v-.62012h.64013c1.8003,0,1.86035-.24023,1.86035-.96045V219.719a5.99121,5.99121,0,0,1-2.6206.52v-.62011a4.94382,4.94382,0,0,0,3.64111-1.28028c.46,0,.46.04.46.52v11.22217c0,.74023.06006.96045,1.86035.96045h.64014v.62012C127.60059,231.60132,125.86035,231.60132,125.06006,231.60132Z" transform="translate(-83.77197 -32.21631)"/>
      <path class="cls-2" d="M135.06006,231.60132c-.80029,0-2.54053,0-3.24072.06006v-.62012h.64013c1.8003,0,1.86035-.24023,1.86035-.96045V219.719a5.99121,5.99121,0,0,1-2.6206.52v-.62011a4.94382,4.94382,0,0,0,3.64111-1.28028c.46,0,.46.04.46.52v11.22217c0,.74023.06006.96045,1.86035.96045h.64014v.62012C137.60059,231.60132,135.86035,231.60132,135.06006,231.60132Z" transform="translate(-83.77197 -32.21631)"/>
    </g>
    <g>
      <path class="cls-2" d="M124.6499,281.38135c-.80029,0-2.54052,0-3.24072.06006v-.62012h.64014c1.80029,0,1.86035-.24024,1.86035-.96045V269.499a5.99127,5.99127,0,0,1-2.62061.52v-.62011a4.94385,4.94385,0,0,0,3.64112-1.28028c.46,0,.46.04.46.52v11.22217c0,.74023.06006.96045,1.86035.96045h.64014v.62012C127.19043,281.38135,125.4502,281.38135,124.6499,281.38135Z" transform="translate(-83.77197 -32.21631)"/>
      <path class="cls-2" d="M137.9707,279.561a3.74026,3.74026,0,0,1-6.78174.2998,10.1358,10.1358,0,0,1-.8999-4.8208,10.69823,10.69823,0,0,1,.74024-4.541,3.66658,3.66658,0,0,1,3.48047-2.38037,3.70919,3.70919,0,0,1,3.40087,2.24024,14.13249,14.13249,0,0,1,.06006,9.20215Zm-1.12011-8.66211c-.38038-1.98-1.70069-2.34034-2.36084-2.34034-.5,0-2.00049.18018-2.38037,2.56055a26.80714,26.80714,0,0,0-.16016,3.68066,27.24831,27.24831,0,0,0,.22021,4.2212c.35987,1.92041,1.54,2.42041,2.32032,2.42041.90039,0,2.04052-.6001,2.34082-2.50049a38.675,38.675,0,0,0,.02-8.042Z" transform="translate(-83.77197 -32.21631)"/>
    </g>
    <g>
      <path class="cls-2" d="M173.4707,84.561a3.74026,3.74026,0,0,1-6.78174.2998,10.1358,10.1358,0,0,1-.8999-4.8208,10.69823,10.69823,0,0,1,.74024-4.541,3.66658,3.66658,0,0,1,3.48047-2.38037,3.70919,3.70919,0,0,1,3.40087,2.24024,10.7166,10.7166,0,0,1,.8003,4.68115A10.65672,10.65672,0,0,1,173.4707,84.561Zm-1.12011-8.66211c-.38038-1.98-1.70069-2.34034-2.36084-2.34034-.5,0-2.00049.18018-2.38037,2.56055a26.80714,26.80714,0,0,0-.16016,3.68066,27.24831,27.24831,0,0,0,.22021,4.2212c.35987,1.92041,1.54,2.42041,2.32032,2.42041.90039,0,2.04052-.6001,2.34082-2.50049a24.8153,24.8153,0,0,0,.21972-4.14112A24.64163,24.64163,0,0,0,172.35059,75.89893Z" transform="translate(-83.77197 -32.21631)"/>
      <path class="cls-2" d="M183.4707,84.561a3.74026,3.74026,0,0,1-6.78174.2998,10.1358,10.1358,0,0,1-.8999-4.8208,10.69823,10.69823,0,0,1,.74024-4.541,3.66658,3.66658,0,0,1,3.48047-2.38037,3.70919,3.70919,0,0,1,3.40087,2.24024,10.7166,10.7166,0,0,1,.8003,4.68115A10.65672,10.65672,0,0,1,183.4707,84.561Zm-1.12011-8.66211c-.38038-1.98-1.70069-2.34034-2.36084-2.34034-.5,0-2.00049.18018-2.38037,2.56055a26.80714,26.80714,0,0,0-.16016,3.68066,27.24831,27.24831,0,0,0,.22021,4.2212c.35987,1.92041,1.54,2.42041,2.32032,2.42041.90039,0,2.04052-.6001,2.34082-2.50049a24.8153,24.8153,0,0,0,.21972-4.14112A24.64163,24.64163,0,0,0,182.35059,75.89893Z" transform="translate(-83.77197 -32.21631)"/>
    </g>
    <g>
      <path class="cls-2" d="M223.88086,84.561a3.74026,3.74026,0,0,1-6.78174.2998,10.1358,10.1358,0,0,1-.8999-4.8208,10.69838,10.69838,0,0,1,.74023-4.541,3.6666,3.6666,0,0,1,3.48047-2.38037,3.7092,3.7092,0,0,1,3.40088,2.24024,10.71659,10.71659,0,0,1,.80029,4.68115A10.65671,10.65671,0,0,1,223.88086,84.561Zm-1.12012-8.66211c-.38037-1.98-1.70068-2.34034-2.36084-2.34034-.5,0-2.00049.18018-2.38037,2.56055a26.8088,26.8088,0,0,0-.16015,3.68066,27.24831,27.24831,0,0,0,.22021,4.2212c.35986,1.92041,1.54,2.42041,2.32031,2.42041.90039,0,2.04053-.6001,2.34082-2.50049a24.81418,24.81418,0,0,0,.21973-4.14112A24.6404,24.6404,0,0,0,222.76074,75.89893Z" transform="translate(-83.77197 -32.21631)"/>
      <path class="cls-2" d="M230.56006,86.38135c-.80029,0-2.54053,0-3.24072.06006v-.62012h.64013c1.8003,0,1.86035-.24024,1.86035-.96045V74.499a5.99121,5.99121,0,0,1-2.6206.52v-.62011a4.94382,4.94382,0,0,0,3.64111-1.28028c.46,0,.46.04.46.52V84.86084c0,.74023.06006.96045,1.86035.96045h.64014v.62012C233.10059,86.38135,231.36035,86.38135,230.56006,86.38135Z" transform="translate(-83.77197 -32.21631)"/>
    </g>
    <g>
      <path class="cls-2" d="M270.06006,86.60132c-.80029,0-2.54053,0-3.24072.06006v-.62012h.64013c1.8003,0,1.86035-.24023,1.86035-.96045V74.719a5.99121,5.99121,0,0,1-2.6206.52V74.6189a4.94382,4.94382,0,0,0,3.64111-1.28028c.46,0,.46.04.46.52V85.08081c0,.74023.06006.96045,1.86035.96045h.64014v.62012C272.60059,86.60132,270.86035,86.60132,270.06006,86.60132Z" transform="translate(-83.77197 -32.21631)"/>
      <path class="cls-2" d="M280.06006,86.60132c-.80029,0-2.54053,0-3.24072.06006v-.62012h.64013c1.8003,0,1.86035-.24023,1.86035-.96045V74.719a5.99121,5.99121,0,0,1-2.6206.52V74.6189a4.94382,4.94382,0,0,0,3.64111-1.28028c.46,0,.46.04.46.52V85.08081c0,.74023.06006.96045,1.86035.96045h.64014v.62012C282.60059,86.60132,280.86035,86.60132,280.06006,86.60132Z" transform="translate(-83.77197 -32.21631)"/>
    </g>
    <g>
      <path class="cls-2" d="M319.6499,86.38135c-.80029,0-2.54052,0-3.24072.06006v-.62012h.64014c1.80029,0,1.86035-.24024,1.86035-.96045V74.499a5.99127,5.99127,0,0,1-2.62061.52v-.62011a4.94385,4.94385,0,0,0,3.64112-1.28028c.46,0,.46.04.46.52V84.86084c0,.74023.06006.96045,1.86035.96045h.64014v.62012C322.19043,86.38135,320.4502,86.38135,319.6499,86.38135Z" transform="translate(-83.77197 -32.21631)"/>
      <path class="cls-2" d="M332.9707,84.561a3.74026,3.74026,0,0,1-6.78174.2998,10.1358,10.1358,0,0,1-.8999-4.8208,10.69823,10.69823,0,0,1,.74024-4.541,3.66658,3.66658,0,0,1,3.48047-2.38037,3.70919,3.70919,0,0,1,3.40087,2.24024,10.7166,10.7166,0,0,1,.8003,4.68115A10.65672,10.65672,0,0,1,332.9707,84.561Zm-1.12011-8.66211c-.38038-1.98-1.70069-2.34034-2.36084-2.34034-.5,0-2.00049.18018-2.38037,2.56055a26.80714,26.80714,0,0,0-.16016,3.68066,27.24831,27.24831,0,0,0,.22021,4.2212c.35987,1.92041,1.54,2.42041,2.32032,2.42041.90039,0,2.04052-.6001,2.34082-2.50049a24.8153,24.8153,0,0,0,.21972-4.14112A24.64163,24.64163,0,0,0,331.85059,75.89893Z" transform="translate(-83.77197 -32.21631)"/>
    </g>
  </g>
  <g id="Layer_3" data-name="Layer 3">
    <path class="cls-2" d="M249.8479,66.66038a7.38513,7.38513,0,0,1,3.814-5.87711c3.71195-2.19832,7.12171-2.19832,12.93668-2.19832H286.461c10.02919,0,12.1363-3.59444,12.4344-5.41232.10209-.42348.10209-.67826,1.10664-.67826,1.00047,0,1.10256.2961,1.10256.59219.40019,2.66484,3.10758,3.80618,4.51232,4.39837,2.80948,1.1,4.41432,1.1,13.84323,1.1H337.8157c7.21972.08435,12.3364,3.84749,12.3364,8.07543,0,.50784,0,.84525-1.10256.84525-.60436,0-1.00455-.16871-1.10664-.38045-.40019-2.95921-2.8054-3.93184-4.61032-4.69274-2.5073-1.01567-4.7165-1.01567-11.93622-1.01567H313.33891c-2.8054,0-9.9271,0-13.33687-4.98883-1.10664,1.64917-3.71194,4.35533-10.33138,4.90448-1.00455.08435-6.12124.08435-9.13081.08435H265.49606a34.83711,34.83711,0,0,0-4.81451.12739c-3.60985.38045-8.12218,1.94527-8.62445,5.28493-.10209.42348-.10209.67654-1.10256.67654C249.8479,67.50563,249.8479,67.16822,249.8479,66.66038Z" transform="translate(-83.77197 -32.21631)"/>
    <path class="cls-2" d="M116.66039,300.1521a7.38513,7.38513,0,0,1-5.87711-3.814c-2.19833-3.712-2.19833-7.12171-2.19833-12.93668V263.539c0-10.0292-3.59444-12.13631-5.41231-12.43441-.42349-.10209-.67827-.10209-.67827-1.10664,0-1.00047.2961-1.10256.59219-1.10256,2.66484-.40018,3.80618-3.10758,4.39837-4.51232,1.1-2.80948,1.1-4.41431,1.1-13.84323V212.1843c.08435-7.21971,3.84749-12.3364,8.07543-12.3364.50784,0,.84525,0,.84525,1.10256,0,.60436-.16871,1.00455-.38045,1.10664-2.95921.40019-3.93185,2.8054-4.69274,4.61033-1.01567,2.50729-1.01567,4.71649-1.01566,11.93621v18.05745c0,2.8054,0,9.92711-4.98883,13.33687,1.64918,1.10664,4.35533,3.712,4.90449,10.33138.08435,1.00455.08435,6.12124.08435,9.13081v15.04379a34.83711,34.83711,0,0,0,.12739,4.81451c.38044,3.60986,1.94527,8.12218,5.28493,8.62445.42348.10209.67654.10209.67654,1.10256C117.50564,300.1521,117.16823,300.1521,116.66039,300.1521Z" transform="translate(-83.77197 -32.21631)"/>
    <path class="cls-2" d="M199.8479,308.33962a7.38513,7.38513,0,0,0,3.814,5.87711c3.712,2.19832,7.12171,2.19832,12.93668,2.19832H236.461c10.02919,0,12.1363,3.59444,12.4344,5.41232.10209.42348.10209.67826,1.10664.67826,1.00047,0,1.10256-.2961,1.10256-.59219.40019-2.66484,3.10758-3.80618,4.51232-4.39837,2.80948-1.1,4.41432-1.1,13.84323-1.1H287.8157c7.21972-.08435,12.3364-3.84749,12.3364-8.07543,0-.50784,0-.84525-1.10256-.84525-.60436,0-1.00455.16871-1.10664.38045-.40019,2.95921-2.8054,3.93184-4.61032,4.69274-2.5073,1.01567-4.7165,1.01567-11.93622,1.01567H263.33891c-2.8054,0-9.9271,0-13.33687,4.98883-1.10664-1.64917-3.71194-4.35533-10.33138-4.90448-1.00455-.08435-6.12124-.08435-9.13081-.08435H215.49606a34.83711,34.83711,0,0,1-4.81451-.12739c-3.60985-.38045-8.12218-1.94527-8.62445-5.28493-.10209-.42348-.10209-.67654-1.10256-.67654C199.8479,307.49437,199.8479,307.83178,199.8479,308.33962Z" transform="translate(-83.77197 -32.21631)"/>
    <path class="cls-2" d="M358.33961,149.8479a7.38513,7.38513,0,0,1,5.87711,3.814c2.19833,3.712,2.19833,7.12171,2.19833,12.93668V186.461c0,10.0292,3.59444,12.13631,5.41231,12.43441.42349.10209.67827.10209.67827,1.10664,0,1.00047-.2961,1.10256-.59219,1.10256-2.66484.40018-3.80618,3.10758-4.39837,4.51232-1.1,2.80948-1.1,4.41431-1.1,13.84323V237.8157c-.08435,7.21971-3.84749,12.3364-8.07543,12.3364-.50784,0-.84525,0-.84525-1.10256,0-.60436.16871-1.00455.38045-1.10664,2.95921-.40019,3.93185-2.8054,4.69274-4.61033,1.01567-2.50729,1.01567-4.71649,1.01566-11.93621V213.33891c0-2.8054,0-9.92711,4.98883-13.33687-1.64918-1.10664-4.35533-3.712-4.90449-10.33138-.08435-1.00455-.08435-6.12124-.08435-9.13081V165.49606a34.83711,34.83711,0,0,0-.12739-4.81451c-.38044-3.60986-1.94527-8.12218-5.28493-8.62445-.42348-.10209-.67654-.10209-.67654-1.10256C357.49436,149.8479,357.83177,149.8479,358.33961,149.8479Z" transform="translate(-83.77197 -32.21631)"/>
    <path class="cls-2" d="M304.37451,46.47949c-.76025,0-2.16064,0-2.88086.06006v-.62012c.54,0,1.66065,0,1.66065-.60009a1.40259,1.40259,0,0,0-.06006-.28028l-1.06055-3.06054h-4.94092l-.91992,2.6206a1.36209,1.36209,0,0,0-.04.30029c0,.52.5,1.02,1.5,1.02v.62012l-2.30029-.06006-2.04053.06006v-.62012a2.079,2.079,0,0,0,2.24024-1.34033l4.14111-11.9624c.1001-.28027.16016-.40039.48-.40039.32031,0,.36035.14014.46045.40039l4.3208,12.50244c.21973.66016.5.80029,1.7002.80029h.36035v.62012Zm-4.82129-11.62256L297.313,41.3584h4.501Z" transform="translate(-83.77197 -32.21631)"/>
    <path class="cls-2" d="M252.21387,341.53955h-7.8418v-.62012h.48c1.54053,0,1.58057-.22021,1.58057-.94043V329.437c0-.72021-.04-.94043-1.58057-.94043h-.48v-.62012h7.32129c2.60059,0,4.44141,1.64063,4.44141,3.38086,0,1.48047-1.38038,2.76075-3.32081,3.14063,2.22022.24023,3.86084,1.74023,3.86084,3.481C256.6748,339.75928,254.874,341.53955,252.21387,341.53955Zm-.66016-13.043h-2.48047c-.94043,0-.98047.14014-.98047.8003v4.92089h2.90088a3.017,3.017,0,0,0,3.20069-2.96045A2.65867,2.65867,0,0,0,251.55371,328.49658Zm.29981,6.16162h-3.76075v5.46094c0,.66016.04.80029.98047.80029h2.50049a3.13875,3.13875,0,0,0,.27979-6.26123Z" transform="translate(-83.77197 -32.21631)"/>
    <path class="cls-2" d="M90.7334,257.97949a7.27839,7.27839,0,0,1,0-14.543,4.906,4.906,0,0,1,3.68115,1.72022l1-1.48c.16016-.24024.24024-.24024.32031-.24024.21973,0,.21973.14014.21973.48v4.74121c0,.41993,0,.48-.31982.48-.28028,0-.28028-.06006-.32032-.33985-.3999-2.9209-2.18017-4.74121-4.36084-4.74121-1.22021,0-5.12109.68018-5.12109,6.66162,0,5.96094,3.9209,6.64112,5.14111,6.64112a4.5299,4.5299,0,0,0,4.481-4.501c.02-.19971.02-.31983.24023-.31983.25977,0,.25977.14014.25977.33985A5.23047,5.23047,0,0,1,90.7334,257.97949Z" transform="translate(-83.77197 -32.21631)"/>
    <path class="cls-2" d="M384.67334,206.53955h-7.32129v-.62012h.48c1.54053,0,1.58057-.22021,1.58057-.94043V194.437c0-.72021-.04-.94043-1.58057-.94043h-.48v-.62012h7.32129c3.4209,0,6.12158,3.14063,6.12158,6.9419A6.42478,6.42478,0,0,1,384.67334,206.53955Zm3.08105-11.18262a4.31569,4.31569,0,0,0-3.64111-1.86035h-2.00049c-.93994,0-.98.14014-.98.8003v10.82226c0,.66016.04.80029.98.80029h2.02051a4.38631,4.38631,0,0,0,3.561-1.70019,6.86363,6.86363,0,0,0,1.10009-4.40088A7.74076,7.74076,0,0,0,387.75439,195.35693Z" transform="translate(-83.77197 -32.21631)"/>
  </g>
</svg>
