<svg xmlns="http://www.w3.org/2000/svg" viewBox="0 0 195.66553 168.2522">
  <defs>
    <style>
      .cls-1 {
        fill: #8ff4dd;
      }

      .cls-2 {
        fill: none;
        stroke: #8ff4dd;
        stroke-miterlimit: 10;
        stroke-width: 2px;
      }
    </style>
  </defs>
  <title>8to1CascadingMultiplexers</title>
  <g id="Layer_1" data-name="Layer 1">
    <g>
      <g>
        <path class="cls-1" d="M170.40039,45.11719v.86914c0,.36035.01953.46972.75977.46972h.209v.31055c-.40918-.03027-.93945-.03027-1.3584-.03027-.41992,0-.93945,0-1.34961.03027v-.31055h.21c.73926,0,.75977-.10937.75977-.46972v-.86914h-2.65918v-.30957l3.06836-4.6875C170.12012,40,170.15039,40,170.24023,40c.16016,0,.16016.05957.16016.25977v4.54785h.999v.30957Zm-.71-4.03809L167.252,44.80762h2.43848Z" transform="translate(-126.94287 -34)"/>
        <path class="cls-1" d="M171.80176,44.89746v-.58008h2.64844v.58008Z" transform="translate(-126.94287 -34)"/>
        <path class="cls-1" d="M177.35059,46.876a1.20861,1.20861,0,0,1-1.28907-1.34864V42.76855h-.84961v-.21972c.9795-.04,1.2793-1.10938,1.28907-1.92871h.25V42.459h1.42968v.30957H176.751v2.77833c0,.16992,0,1.0791.66992,1.0791.37012,0,.66992-.37891.66992-1.11914V44.957h.25v.57031C178.34082,46.167,178.06055,46.876,177.35059,46.876Z" transform="translate(-126.94287 -34)"/>
        <path class="cls-1" d="M181.40039,46.876a2.23028,2.23028,0,0,1-2.209-2.248,2.21721,2.21721,0,1,1,4.42773,0A2.2268,2.2268,0,0,1,181.40039,46.876Zm1.12891-3.71778a1.30909,1.30909,0,0,0-1.12891-.64941,1.34028,1.34028,0,0,0-1.13965.66992,2.87131,2.87131,0,0,0-.23926,1.36914,2.98477,2.98477,0,0,0,.249,1.40918,1.30608,1.30608,0,0,0,1.13965.66895,1.28761,1.28761,0,0,0,1.15918-.73926,3.03654,3.03654,0,0,0,.21972-1.33887A2.74537,2.74537,0,0,0,182.5293,43.1582Z" transform="translate(-126.94287 -34)"/>
        <path class="cls-1" d="M184.02246,44.89746v-.58008h2.64844v.58008Z" transform="translate(-126.94287 -34)"/>
        <path class="cls-1" d="M189.80957,46.73633c-.39941,0-1.26953,0-1.61914.03027v-.31055h.32031c.89942,0,.92969-.11914.92969-.47949V40.7998a2.99644,2.99644,0,0,1-1.30957.25977V40.75a2.47123,2.47123,0,0,0,1.81934-.63965c.22949,0,.22949.01953.22949.25977v5.60644c0,.37012.03027.47949.92969.47949h.31933v.31055C191.0791,46.73633,190.21,46.73633,189.80957,46.73633Z" transform="translate(-126.94287 -34)"/>
        <path class="cls-1" d="M192.35156,44.89746v-.58008H195v.58008Z" transform="translate(-126.94287 -34)"/>
      </g>
      <g>
        <path class="cls-1" d="M174.7915,56.73633l-1.10937.03027v-.31055c.66894,0,.7793,0,.7793-.44921V50.80957c0-.48926-.08008-.55957-.7793-.55957v-.30957l1.43848-.11035v6.17676c0,.44921.11035.44921.78027.44921v.31055Z" transform="translate(-126.94287 -34)"/>
        <path class="cls-1" d="M177.562,56.73633l-1.09961.03027v-.31055c.66895,0,.7793,0,.7793-.44921V53.31836c0-.49023-.08984-.54981-.73926-.54981V52.459l1.39844-.11035v3.668c0,.38965.04.43945.70019.43945v.31055C178.26123,56.75684,177.91162,56.73633,177.562,56.73633Zm-.05078-5.47656a.52983.52983,0,1,1,.54-.53028A.53946.53946,0,0,1,177.51123,51.25977Z" transform="translate(-126.94287 -34)"/>
        <path class="cls-1" d="M183.13916,56.73633l-1.12891.03027v-.31055c.66895,0,.7793,0,.7793-.44921V53.67773c0-.56933-.11035-1.10937-.73926-1.10937a1.46,1.46,0,0,0-1.34961,1.59961v1.83887c0,.44921.11036.44921.7793.44921v.31055l-1.11914-.03027-1.12988.03027v-.31055c.66992,0,.78027,0,.78027-.44921V53.32813c0-.48926-.08008-.55958-.78027-.55958V52.459l1.41015-.11035v1.04981a1.574,1.574,0,0,1,1.47852-1.04981,1.33225,1.33225,0,0,1,1.0498.37012c.30957.35938.30957.66992.30957,1.5293v1.9082c.00977.2998.25977.2998.7793.2998v.31055Z" transform="translate(-126.94287 -34)"/>
        <path class="cls-1" d="M186.95068,56.876a2.25553,2.25553,0,0,1-2.19824-2.3086,2.18345,2.18345,0,0,1,2.07813-2.27832,1.77212,1.77212,0,0,1,1.78906,1.959c0,.21-.0293.21-.25.21h-2.78809a2.91037,2.91037,0,0,0,.29981,1.499,1.34651,1.34651,0,0,0,1.12988.66895,1.408,1.408,0,0,0,1.34863-1.0293c.02051-.08008.04-.13965.12989-.13965a.1165.1165,0,0,1,.12988.12012A1.70778,1.70778,0,0,1,186.95068,56.876Zm-.12011-4.36719c-.33985,0-1.17871.25-1.23926,1.73926h2.36914C187.96045,53.8584,187.85986,52.50879,186.83057,52.50879Z" transform="translate(-126.94287 -34)"/>
      </g>
      <g>
        <path class="cls-1" d="M176.40234,66.73682c-.38964,0-1.06933,0-1.43847.02978v-.31006h.23926c.76953,0,.79-.10986.79-.46972V60.25h-.00976l-2.459,6.32666c-.04.10986-.07031.18994-.17968.18994-.10059,0-.15039-.08984-.2002-.21972l-2.4082-6.2168h-.01074v5.38721c0,.26953,0,.73925,1.03027.73925v.31006l-1.16992-.02978-1.16944.02978v-.31006c1.02979,0,1.02979-.46972,1.02979-.73925V60.71973c0-.35938-.02051-.46973-.79-.46973h-.23975v-.30957h1.689c.23047,0,.25976,0,.34961.21973l2.16894,5.59716,2.18946-5.627c.06933-.18017.06933-.18994.3291-.18994H177.832V60.25h-.24023c-.76953,0-.78907.11035-.78907.46973v5.26709c0,.35986.01954.46972.78907.46972h.24023v.31006C177.46191,66.73682,176.793,66.73682,176.40234,66.73682Z" transform="translate(-126.94287 -34)"/>
        <path class="cls-1" d="M184.34375,61.02979V64.228a3.8867,3.8867,0,0,1-.03027.68945,2.32426,2.32426,0,0,1-2.21875,2.06885,2.5099,2.5099,0,0,1-2.51856-2.49854V60.71973c0-.35938-.02051-.46973-.79-.46973h-.23925v-.30957c.3496.02978,1.0996.02978,1.47851.02978.37988,0,1.12012,0,1.46973-.02978V60.25h-.24024c-.76953,0-.78906.11035-.78906.46973v3.8081c0,1.89893,1.17871,2.14893,1.64844,2.14893A2.03433,2.03433,0,0,0,184.0332,64.458V60.98975c0-.27,0-.73975-1.02929-.73975v-.30957l1.18945.02978,1.17969-.02978V60.25C184.34375,60.25,184.34375,60.69971,184.34375,61.02979Z" transform="translate(-126.94287 -34)"/>
        <path class="cls-1" d="M191.67383,66.73682c-.37988,0-1.10938,0-1.46.02978v-.31006c.43066-.00976.65039-.17968.65039-.2998a.35613.35613,0,0,0-.04981-.10986l-1.58007-2.38868-1.41895,2.09912c-.06934.10987-.09961.14991-.09961.23975,0,.17969.16992.44971.62988.45947v.31006c-.36035-.02978-.91015-.02978-1.27929-.02978l-1.10938.02978v-.31006a1.51257,1.51257,0,0,0,1.44922-.65918l1.63867-2.41894-1.83887-2.77832c-.19042-.27979-.37988-.3501-.92968-.3501h-.18946v-.30957l1.29883.02978c.37989,0,1.10938,0,1.459-.02978V60.25c-.42969.01025-.64942.18018-.64942.2998a.403.403,0,0,0,.07032.14991l1.28906,1.9292,1.13965-1.689c.06933-.10986.08984-.12988.08984-.23,0-.23-.21973-.44971-.62012-.46v-.30957c.40039.02978.87989.02978,1.2793.02978l1.10937-.02978V60.25a1.5467,1.5467,0,0,0-1.44921.6499l-1.36914,2.00879,2.10937,3.18848c.21.30957.41992.35937.93945.35937h.18946v.31006Z" transform="translate(-126.94287 -34)"/>
      </g>
    </g>
    <rect class="cls-2" x="23.05713" y="1" width="50" height="65"/>
    <g>
      <g>
        <path class="cls-1" d="M170.40039,125.11719v.86914c0,.36035.01953.46972.75977.46972h.209v.31055c-.40918-.03027-.93945-.03027-1.3584-.03027-.41992,0-.93945,0-1.34961.03027v-.31055h.21c.73926,0,.75977-.10937.75977-.46972v-.86914h-2.65918v-.30957l3.06836-4.6875c.08008-.12012.11035-.12012.20019-.12012.16016,0,.16016.05957.16016.25977v4.54785h.999v.30957Zm-.71-4.03809-2.43848,3.72852h2.43848Z" transform="translate(-126.94287 -34)"/>
        <path class="cls-1" d="M171.80176,124.89746v-.58008h2.64844v.58008Z" transform="translate(-126.94287 -34)"/>
        <path class="cls-1" d="M177.35059,126.876a1.20861,1.20861,0,0,1-1.28907-1.34864v-2.75879h-.84961v-.21972c.9795-.04,1.2793-1.10938,1.28907-1.92871h.25V122.459h1.42968v.30957H176.751v2.77833c0,.16992,0,1.0791.66992,1.0791.37012,0,.66992-.37891.66992-1.11914V124.957h.25v.57031C178.34082,126.167,178.06055,126.876,177.35059,126.876Z" transform="translate(-126.94287 -34)"/>
        <path class="cls-1" d="M181.40039,126.876a2.23028,2.23028,0,0,1-2.209-2.248,2.21721,2.21721,0,1,1,4.42773,0A2.2268,2.2268,0,0,1,181.40039,126.876Zm1.12891-3.71778a1.30909,1.30909,0,0,0-1.12891-.64941,1.34028,1.34028,0,0,0-1.13965.66992,2.87131,2.87131,0,0,0-.23926,1.36914,2.98477,2.98477,0,0,0,.249,1.40918,1.30608,1.30608,0,0,0,1.13965.66895,1.28761,1.28761,0,0,0,1.15918-.73926,3.03654,3.03654,0,0,0,.21972-1.33887A2.74537,2.74537,0,0,0,182.5293,123.1582Z" transform="translate(-126.94287 -34)"/>
        <path class="cls-1" d="M184.02246,124.89746v-.58008h2.64844v.58008Z" transform="translate(-126.94287 -34)"/>
        <path class="cls-1" d="M189.80957,126.73633c-.39941,0-1.26953,0-1.61914.03027v-.31055h.32031c.89942,0,.92969-.11914.92969-.47949V120.7998a2.99644,2.99644,0,0,1-1.30957.25977V120.75a2.47123,2.47123,0,0,0,1.81934-.63965c.22949,0,.22949.01953.22949.25977v5.60644c0,.37012.03027.47949.92969.47949h.31933v.31055C191.0791,126.73633,190.21,126.73633,189.80957,126.73633Z" transform="translate(-126.94287 -34)"/>
        <path class="cls-1" d="M192.35156,124.89746v-.58008H195v.58008Z" transform="translate(-126.94287 -34)"/>
      </g>
      <g>
        <path class="cls-1" d="M174.7915,136.73633l-1.10937.03027v-.31055c.66894,0,.7793,0,.7793-.44921v-5.19727c0-.48926-.08008-.55957-.7793-.55957v-.30957l1.43848-.11035v6.17676c0,.44921.11035.44921.78027.44921v.31055Z" transform="translate(-126.94287 -34)"/>
        <path class="cls-1" d="M177.562,136.73633l-1.09961.03027v-.31055c.66895,0,.7793,0,.7793-.44921v-2.68848c0-.49023-.08984-.54981-.73926-.54981V132.459l1.39844-.11035v3.668c0,.38965.04.43945.70019.43945v.31055C178.26123,136.75684,177.91162,136.73633,177.562,136.73633Zm-.05078-5.47656a.52983.52983,0,1,1,.54-.53028A.53946.53946,0,0,1,177.51123,131.25977Z" transform="translate(-126.94287 -34)"/>
        <path class="cls-1" d="M183.13916,136.73633l-1.12891.03027v-.31055c.66895,0,.7793,0,.7793-.44921v-2.32911c0-.56933-.11035-1.10937-.73926-1.10937a1.46,1.46,0,0,0-1.34961,1.59961v1.83887c0,.44921.11036.44921.7793.44921v.31055l-1.11914-.03027-1.12988.03027v-.31055c.66992,0,.78027,0,.78027-.44921v-2.67871c0-.48926-.08008-.55958-.78027-.55958V132.459l1.41015-.11035v1.04981a1.574,1.574,0,0,1,1.47852-1.04981,1.33225,1.33225,0,0,1,1.0498.37012c.30957.35938.30957.66992.30957,1.5293v1.9082c.00977.2998.25977.2998.7793.2998v.31055Z" transform="translate(-126.94287 -34)"/>
        <path class="cls-1" d="M186.95068,136.876a2.25553,2.25553,0,0,1-2.19824-2.3086,2.18345,2.18345,0,0,1,2.07813-2.27832,1.77212,1.77212,0,0,1,1.78906,1.959c0,.21-.0293.21-.25.21h-2.78809a2.91037,2.91037,0,0,0,.29981,1.499,1.34651,1.34651,0,0,0,1.12988.66895,1.408,1.408,0,0,0,1.34863-1.0293c.02051-.08008.04-.13965.12989-.13965a.1165.1165,0,0,1,.12988.12012A1.70778,1.70778,0,0,1,186.95068,136.876Zm-.12011-4.36719c-.33985,0-1.17871.25-1.23926,1.73926h2.36914C187.96045,133.8584,187.85986,132.50879,186.83057,132.50879Z" transform="translate(-126.94287 -34)"/>
      </g>
      <g>
        <path class="cls-1" d="M176.40234,146.73682c-.38964,0-1.06933,0-1.43847.02978v-.31006h.23926c.76953,0,.79-.10986.79-.46972V140.25h-.00976l-2.459,6.32666c-.04.10986-.07031.18994-.17968.18994-.10059,0-.15039-.08984-.2002-.21972l-2.4082-6.2168h-.01074v5.38721c0,.26953,0,.73925,1.03027.73925v.31006l-1.16992-.02978-1.16944.02978v-.31006c1.02979,0,1.02979-.46972,1.02979-.73925v-4.99756c0-.35938-.02051-.46973-.79-.46973h-.23975v-.30957h1.689c.23047,0,.25976,0,.34961.21973l2.16894,5.59716,2.18946-5.62695c.06933-.18017.06933-.18994.3291-.18994H177.832V140.25h-.24023c-.76953,0-.78907.11035-.78907.46973v5.26709c0,.35986.01954.46972.78907.46972h.24023v.31006C177.46191,146.73682,176.793,146.73682,176.40234,146.73682Z" transform="translate(-126.94287 -34)"/>
        <path class="cls-1" d="M184.34375,141.02979V144.228a3.8867,3.8867,0,0,1-.03027.68945,2.32426,2.32426,0,0,1-2.21875,2.06885,2.5099,2.5099,0,0,1-2.51856-2.49854v-3.76806c0-.35938-.02051-.46973-.79-.46973h-.23925v-.30957c.3496.02978,1.0996.02978,1.47851.02978.37988,0,1.12012,0,1.46973-.02978V140.25h-.24024c-.76953,0-.78906.11035-.78906.46973v3.8081c0,1.89893,1.17871,2.14893,1.64844,2.14893a2.03433,2.03433,0,0,0,1.91894-2.21875v-3.46826c0-.27,0-.73975-1.02929-.73975v-.30957l1.18945.02978,1.17969-.02978V140.25C184.34375,140.25,184.34375,140.69971,184.34375,141.02979Z" transform="translate(-126.94287 -34)"/>
        <path class="cls-1" d="M191.67383,146.73682c-.37988,0-1.10938,0-1.46.02978v-.31006c.43066-.00976.65039-.17968.65039-.2998a.35613.35613,0,0,0-.04981-.10986l-1.58007-2.38868-1.41895,2.09912c-.06934.10987-.09961.14991-.09961.23975,0,.17969.16992.44971.62988.45947v.31006c-.36035-.02978-.91015-.02978-1.27929-.02978l-1.10938.02978v-.31006a1.51257,1.51257,0,0,0,1.44922-.65918l1.63867-2.41894-1.83887-2.77832c-.19042-.27979-.37988-.3501-.92968-.3501h-.18946v-.30957l1.29883.02978c.37989,0,1.10938,0,1.459-.02978V140.25c-.42969.01025-.64942.18018-.64942.2998a.403.403,0,0,0,.07032.14991l1.28906,1.9292,1.13965-1.689c.06933-.10986.08984-.12988.08984-.23,0-.23-.21973-.44971-.62012-.46v-.30957c.40039.02978.87989.02978,1.2793.02978l1.10937-.02978V140.25a1.5467,1.5467,0,0,0-1.44921.6499l-1.36914,2.00879,2.10937,3.18848c.21.30957.41992.35937.93945.35937h.18946v.31006Z" transform="translate(-126.94287 -34)"/>
      </g>
    </g>
    <rect class="cls-2" x="23.05713" y="81" width="50" height="65"/>
    <g>
      <g>
        <path class="cls-1" d="M270.89941,94.15625h-3.708c0-.23975,0-.25977.11035-.36963l1.91894-2.13916a3.58013,3.58013,0,0,0,1.04981-2.2085c0-.81982-.42969-1.62939-1.33985-1.62939A1.44117,1.44117,0,0,0,267.582,88.8291a.38623.38623,0,0,1,.12988-.00976.50545.50545,0,0,1,.5293.51953.52546.52546,0,1,1-1.0498-.02979A1.84709,1.84709,0,0,1,269.06055,87.5a1.96326,1.96326,0,0,1,2.11914,1.939c0,.99952-.59961,1.53907-2.15918,2.91846l-1.0586,1.0293h1.79883a3.25179,3.25179,0,0,0,.94922-.08008,3.29247,3.29247,0,0,0,.21973-.88965h.25Z" transform="translate(-126.94287 -34)"/>
        <path class="cls-1" d="M271.80176,92.28711v-.57959h2.64844v.57959Z" transform="translate(-126.94287 -34)"/>
        <path class="cls-1" d="M277.35059,94.26611a1.209,1.209,0,0,1-1.28907-1.34912v-2.7583h-.84961v-.22021c.9795-.04,1.2793-1.10938,1.28907-1.92871h.25v1.83886h1.42968v.31006H276.751V92.937c0,.16992,0,1.0791.66992,1.0791.37012,0,.66992-.37939.66992-1.11914v-.5498h.25V92.917C278.34082,93.55664,278.06055,94.26611,277.35059,94.26611Z" transform="translate(-126.94287 -34)"/>
        <path class="cls-1" d="M281.40039,94.26611a2.2307,2.2307,0,0,1-2.209-2.24853,2.21721,2.21721,0,1,1,4.42773,0A2.2269,2.2269,0,0,1,281.40039,94.26611Zm1.12891-3.71777a1.30957,1.30957,0,0,0-1.12891-.6499,1.34028,1.34028,0,0,0-1.13965.66992,2.87131,2.87131,0,0,0-.23926,1.36914,2.98284,2.98284,0,0,0,.249,1.40918,1.30659,1.30659,0,0,0,1.13965.66943,1.28845,1.28845,0,0,0,1.15918-.73925,3.03863,3.03863,0,0,0,.21972-1.33936A2.74359,2.74359,0,0,0,282.5293,90.54834Z" transform="translate(-126.94287 -34)"/>
        <path class="cls-1" d="M284.02246,92.28711v-.57959h2.64844v.57959Z" transform="translate(-126.94287 -34)"/>
        <path class="cls-1" d="M289.80957,94.12646c-.39941,0-1.26953,0-1.61914.02979v-.31006h.32031c.89942,0,.92969-.11963.92969-.47949V88.18945a2.99644,2.99644,0,0,1-1.30957.25977v-.30957A2.47123,2.47123,0,0,0,289.9502,87.5c.22949,0,.22949.02.22949.25977V93.3667c0,.36963.03027.47949.92969.47949h.31933v.31006C291.0791,94.12646,290.21,94.12646,289.80957,94.12646Z" transform="translate(-126.94287 -34)"/>
        <path class="cls-1" d="M292.35156,92.28711v-.57959H295v.57959Z" transform="translate(-126.94287 -34)"/>
      </g>
      <g>
        <path class="cls-1" d="M274.792,104.12646l-1.10937.02979v-.31006c.668,0,.77929,0,.77929-.44971V98.19971c0-.48975-.08007-.56006-.77929-.56006v-.30957l1.4375-.10987v6.17627c0,.44971.11133.44971.78125.44971v.31006Z" transform="translate(-126.94287 -34)"/>
        <path class="cls-1" d="M277.56152,104.12646l-1.09961.02979v-.31006c.66993,0,.7793,0,.7793-.44971V100.708c0-.48975-.08984-.54981-.73828-.54981v-.30957l1.39844-.10986v3.668c0,.38965.03906.43945.69922.43945v.31006C278.26074,104.14648,277.91113,104.12646,277.56152,104.12646Zm-.05078-5.477a.52984.52984,0,1,1,.541-.52978A.54.54,0,0,1,277.51074,98.64941Z" transform="translate(-126.94287 -34)"/>
        <path class="cls-1" d="M283.13965,104.12646l-1.12891.02979v-.31006c.668,0,.7793,0,.7793-.44971v-2.32861c0-.56982-.11133-1.10937-.74024-1.10937a1.4604,1.4604,0,0,0-1.3496,1.59912v1.83886c0,.44971.11132.44971.77929.44971v.31006l-1.11914-.02979-1.1289.02979v-.31006c.66992,0,.77929,0,.77929-.44971v-2.67822c0-.48974-.08008-.56006-.77929-.56006v-.30957l1.41015-.10986v1.04932a1.57331,1.57331,0,0,1,1.47852-1.04932,1.32821,1.32821,0,0,1,1.04883.36963c.31054.35986.31054.66992.31054,1.5293v1.90869c.00977.2998.25977.2998.7793.2998v.31006Z" transform="translate(-126.94287 -34)"/>
        <path class="cls-1" d="M286.9502,104.26611a2.25567,2.25567,0,0,1-2.19727-2.30859,2.183,2.183,0,0,1,2.07812-2.27881,1.77237,1.77237,0,0,1,1.78907,1.959c0,.21-.0293.21-.25.21h-2.78907a2.90134,2.90134,0,0,0,.30079,1.499,1.3429,1.3429,0,0,0,1.1289.66943,1.4089,1.4089,0,0,0,1.34961-1.02929c.01953-.08008.03906-.13965.12891-.13965a.11643.11643,0,0,1,.13086.11963A1.708,1.708,0,0,1,286.9502,104.26611Zm-.11915-4.36767c-.33984,0-1.17968.25-1.24023,1.73926H287.96C287.96,101.24805,287.86035,99.89844,286.83105,99.89844Z" transform="translate(-126.94287 -34)"/>
      </g>
      <g>
        <path class="cls-1" d="M276.40234,114.12646c-.38964,0-1.06933,0-1.43847.02979v-.31006h.23926c.76953,0,.79-.10986.79-.46973v-5.73681h-.00976l-2.459,6.32666c-.04.10986-.07031.18994-.17968.18994-.10059,0-.15039-.08984-.2002-.21973l-2.4082-6.21679h-.01074v5.3872c0,.26953,0,.73926,1.03027.73926v.31006l-1.16992-.02979-1.16895.02979v-.31006c1.0293,0,1.0293-.46973,1.0293-.73926v-4.99755c0-.35938-.02051-.46973-.79-.46973H269.417v-.30957h1.68848c.23047,0,.25976,0,.34961.21972L273.624,113.147l2.18946-5.62695c.06933-.18018.06933-.18994.3291-.18994H277.832v.30957h-.24023c-.76953,0-.78907.11035-.78907.46973v5.26708c0,.35987.01954.46973.78907.46973h.24023v.31006C277.46191,114.12646,276.793,114.12646,276.40234,114.12646Z" transform="translate(-126.94287 -34)"/>
        <path class="cls-1" d="M284.34375,108.41943v3.19825a3.8867,3.8867,0,0,1-.03027.68945,2.32426,2.32426,0,0,1-2.21875,2.06885,2.5099,2.5099,0,0,1-2.51856-2.49854v-3.76806c0-.35938-.02051-.46973-.79-.46973h-.23925v-.30957c.3496.02978,1.0996.02978,1.47851.02978.37988,0,1.12012,0,1.46973-.02978v.30957h-.24024c-.76953,0-.78906.11035-.78906.46973v3.8081c0,1.89893,1.17871,2.14893,1.64844,2.14893a2.03433,2.03433,0,0,0,1.91894-2.21875v-3.46827c0-.27,0-.73974-1.02929-.73974v-.30957l1.18945.02978,1.17969-.02978v.30957C284.34375,107.63965,284.34375,108.08936,284.34375,108.41943Z" transform="translate(-126.94287 -34)"/>
        <path class="cls-1" d="M291.67383,114.12646c-.37988,0-1.10938,0-1.46.02979v-.31006c.43066-.00976.65039-.17969.65039-.2998a.35627.35627,0,0,0-.04981-.10987l-1.58007-2.38867-1.41895,2.09912c-.06934.10987-.09961.14991-.09961.23975,0,.17969.16992.44971.62988.45947v.31006c-.36035-.02979-.91015-.02979-1.27929-.02979l-1.10938.02979v-.31006a1.51257,1.51257,0,0,0,1.44922-.65918l1.63867-2.41894-1.83887-2.77832c-.19042-.27979-.37988-.3501-.92968-.3501h-.18946v-.30957l1.29883.02978c.37989,0,1.10938,0,1.459-.02978v.30957c-.42969.01025-.64942.18017-.64942.2998a.403.403,0,0,0,.07032.14991l1.28906,1.92919,1.13965-1.689c.06933-.10986.08984-.12988.08984-.23,0-.23-.21973-.44971-.62012-.46v-.30957c.40039.02978.87989.02978,1.2793.02978l1.10937-.02978v.30957a1.5467,1.5467,0,0,0-1.44921.6499l-1.36914,2.00879,2.10937,3.18848c.21.30957.41992.35937.93945.35937h.18946v.31006Z" transform="translate(-126.94287 -34)"/>
      </g>
    </g>
    <rect class="cls-2" x="123.05713" y="48.5" width="50" height="50"/>
    <line class="cls-2" x1="173.05713" y1="73.5" x2="188.05713" y2="73.5"/>
  </g>
  <g id="Layer_2" data-name="Layer 2">
    <path class="cls-1" d="M322.43848,111.15723h-4.6084c-.209,0-.25977,0-.25977-.16993,0-.08007,0-.08984.07032-.1997l3.88867-6.147H319.959c-1.63867,0-1.93847.80957-2.00781,1.939h-.25l.10938-2.24854h4.47754c.20019,0,.26074,0,.26074.15967,0,.07032,0,.08008-.07031.18994l-3.87793,6.13672h1.63867c1.84863,0,2.03906-.93945,2.11914-2.32861h.25Z" transform="translate(-126.94287 -34)"/>
    <path class="cls-1" d="M157.73389,47.27881a1.86874,1.86874,0,0,1-3.38819.1499A5.065,5.065,0,0,1,153.896,45.02a5.34275,5.34275,0,0,1,.37011-2.26856,1.83169,1.83169,0,0,1,1.73877-1.18945,1.85314,1.85314,0,0,1,1.69922,1.11914A5.35712,5.35712,0,0,1,158.104,45.02,5.32436,5.32436,0,0,1,157.73389,47.27881Zm-.55957-4.32764c-.18994-.98926-.84961-1.16943-1.1792-1.16943-.25,0-.99951.08984-1.18946,1.2793a13.38329,13.38329,0,0,0-.08007,1.83886,13.63223,13.63223,0,0,0,.10986,2.10889c.18018.95947.76953,1.20947,1.15967,1.20947.4497,0,1.01953-.2998,1.16943-1.24951a12.38527,12.38527,0,0,0,.10986-2.06885A12.26989,12.26989,0,0,0,157.17432,42.95117Z" transform="translate(-126.94287 -34)"/>
    <path class="cls-1" d="M156.02979,63.29834c-.39942,0-1.269,0-1.61866.02979v-.31006h.31983c.89941,0,.9292-.11963.9292-.4795V57.36133a2.99361,2.99361,0,0,1-1.30909.25976v-.30957a2.4691,2.4691,0,0,0,1.81885-.63964c.23,0,.23.02.23.25976v5.60693c0,.36963.02979.4795.9292.4795h.31983v.31006C157.29932,63.29834,156.42969,63.29834,156.02979,63.29834Z" transform="translate(-126.94287 -34)"/>
    <path class="cls-1" d="M157.71411,78.32813h-3.708c0-.23975,0-.25977.11036-.36963l1.91894-2.13916a3.58207,3.58207,0,0,0,1.04932-2.2085c0-.81982-.42969-1.62939-1.33936-1.62939a1.44174,1.44174,0,0,0-1.34912,1.01953.38751.38751,0,0,1,.12988-.00977.50588.50588,0,0,1,.52979.51953.52547.52547,0,1,1-1.04981-.02978,1.84677,1.84677,0,0,1,1.86914-1.80908,1.96311,1.96311,0,0,1,2.11866,1.939c0,.99951-.59961,1.53906-2.15869,2.91846l-1.05909,1.02929H156.575a3.25047,3.25047,0,0,0,.94922-.08007,3.29535,3.29535,0,0,0,.22021-.88965h.24952Z" transform="translate(-126.94287 -34)"/>
    <path class="cls-1" d="M155.94482,93.438a1.82259,1.82259,0,0,1-2.01855-1.56885.55975.55975,0,1,1,1.11914-.02.54745.54745,0,0,1-.65967.54981,1.82011,1.82011,0,0,0,1.5293.75927c.43994,0,1.12939-.28955,1.12939-1.64892,0-.97949-.36963-1.65918-1.18945-1.65918h-.43945c-.16992,0-.24024,0-.24024-.10987,0-.10009.07032-.10986.14991-.12011.07031,0,.31005-.02.39013-.02979a.96868.96868,0,0,0,.88916-.52,2.494,2.494,0,0,0,.27979-1.13916c0-.89941-.54932-1.11914-.95948-1.11914a1.62013,1.62013,0,0,0-1.3291.61963c.14991,0,.61963,0,.61963.49951a.50981.50981,0,1,1-1.01953-.00976c0-.75977.75977-1.35938,1.769-1.35938.95948,0,1.83936.55957,1.83936,1.3794a1.92484,1.92484,0,0,1-1.39941,1.75879,1.92754,1.92754,0,0,1,1.66894,1.80908A2.0382,2.0382,0,0,1,155.94482,93.438Z" transform="translate(-126.94287 -34)"/>
    <g>
      <path class="cls-1" d="M128.46191,48.31836c-.37939,0-1.16894,0-1.519.02978v-.31005h.25977c.78955,0,.81982-.10987.81982-.46973V42.30127c0-.35938-.03027-.46973-.81982-.46973h-.25977V41.522c.3501.02979,1.13965.02979,1.5293.02979.37988,0,1.16943,0,1.519-.02979v.30957h-.25976c-.78956,0-.81983.11035-.81983.46973v5.26709c0,.35986.03027.46973.81983.46973h.25976v.31005C129.6416,48.31836,128.85205,48.31836,128.46191,48.31836Z" transform="translate(-126.94287 -34)"/>
      <path class="cls-1" d="M132.73877,51.13037a1.08973,1.08973,0,0,1-1.97607.0874,2.94952,2.94952,0,0,1-.26221-1.40478,3.11768,3.11768,0,0,1,.21533-1.32324,1.06865,1.06865,0,0,1,1.01416-.69336,1.08084,1.08084,0,0,1,.99121.65283,4.123,4.123,0,0,1,.01758,2.68115Zm-.32666-2.52392c-.11084-.57715-.49561-.68213-.688-.68213-.14551,0-.58252.05273-.69336.74609a7.78341,7.78341,0,0,0-.04687,1.07275,7.9091,7.9091,0,0,0,.06445,1.23c.105.55957.44873.70508.67578.70508.2627,0,.59473-.1748.68213-.72851a11.2829,11.2829,0,0,0,.00586-2.34326Z" transform="translate(-126.94287 -34)"/>
    </g>
    <g>
      <path class="cls-1" d="M128.46191,62.31836c-.37939,0-1.16894,0-1.519.02978v-.31005h.25977c.78955,0,.81982-.10987.81982-.46973V56.30127c0-.35938-.03027-.46973-.81982-.46973h-.25977V55.522c.3501.02979,1.13965.02979,1.5293.02979.37988,0,1.16943,0,1.519-.02979v.30957h-.25976c-.78956,0-.81983.11035-.81983.46973v5.26709c0,.35986.03027.46973.81983.46973h.25976v.31005C129.6416,62.31836,128.85205,62.31836,128.46191,62.31836Z" transform="translate(-126.94287 -34)"/>
      <path class="cls-1" d="M131.771,65.66064c-.2334,0-.74024,0-.94434.01758v-.18066h.18652c.52442,0,.542-.06983.542-.27979V62.19824a1.743,1.743,0,0,1-.76368.15186v-.18067a1.44051,1.44051,0,0,0,1.061-.373c.13428,0,.13428.01123.13428.15136v3.27c0,.21582.01709.27979.542.27979h.18652v.18066C132.51123,65.66064,132.00391,65.66064,131.771,65.66064Z" transform="translate(-126.94287 -34)"/>
    </g>
    <g>
      <path class="cls-1" d="M128.46191,78.31836c-.37939,0-1.16894,0-1.519.02978v-.31005h.25977c.78955,0,.81982-.10987.81982-.46973V72.30127c0-.35938-.03027-.46973-.81982-.46973h-.25977V71.522c.3501.02979,1.13965.02979,1.5293.02979.37988,0,1.16943,0,1.519-.02979v.30957h-.25976c-.78956,0-.81983.11035-.81983.46973v5.26709c0,.35986.03027.46973.81983.46973h.25976v.31005C129.6416,78.31836,128.85205,78.31836,128.46191,78.31836Z" transform="translate(-126.94287 -34)"/>
      <path class="cls-1" d="M132.72705,81.67822h-2.1626c0-.14013,0-.15136.064-.21582l1.11914-1.24707a2.087,2.087,0,0,0,.6123-1.28857c0-.47754-.251-.94971-.78125-.94971a.84087.84087,0,0,0-.78711.59424.22314.22314,0,0,1,.07618-.00586.29511.29511,0,0,1,.30859.30322.30626.30626,0,1,1-.61182-.01758,1.07669,1.07669,0,0,1,1.08985-1.05468,1.1449,1.1449,0,0,1,1.23584,1.13037c0,.583-.34961.89795-1.25928,1.70215l-.61768.60058h1.04932a1.89159,1.89159,0,0,0,.55371-.04687,1.91211,1.91211,0,0,0,.12793-.51856h.146Z" transform="translate(-126.94287 -34)"/>
    </g>
    <g>
      <path class="cls-1" d="M128.46191,92.31836c-.37939,0-1.16894,0-1.519.02978v-.31005h.25977c.78955,0,.81982-.10987.81982-.46973V86.30127c0-.35938-.03027-.46973-.81982-.46973h-.25977V85.522c.3501.02979,1.13965.02979,1.5293.02979.37988,0,1.16943,0,1.519-.02979v.30957h-.25976c-.78956,0-.81983.11035-.81983.46973v5.26709c0,.35986.03027.46973.81983.46973h.25976v.31005C129.6416,92.31836,128.85205,92.31836,128.46191,92.31836Z" transform="translate(-126.94287 -34)"/>
      <path class="cls-1" d="M131.69531,95.80664a1.06351,1.06351,0,0,1-1.17773-.91553.32651.32651,0,1,1,.65283-.01123.319.319,0,0,1-.38428.32032,1.06045,1.06045,0,0,0,.8916.44287c.25635,0,.6587-.16895.6587-.96143,0-.57129-.21582-.96777-.69385-.96777h-.25635c-.09912,0-.13965,0-.13965-.064,0-.05859.04053-.06445.0874-.06982.04053,0,.18067-.01172.22706-.01758a.56509.56509,0,0,0,.519-.30322,1.45712,1.45712,0,0,0,.16308-.66455c0-.52442-.3208-.65284-.55957-.65284a.94458.94458,0,0,0-.77539.36133c.08741,0,.36133,0,.36133.29151a.29715.29715,0,1,1-.59424-.00586c0-.44287.44287-.79248,1.03174-.79248.55957,0,1.07227.32617,1.07227.8042a1.122,1.122,0,0,1-.81592,1.02587,1.12453,1.12453,0,0,1,.97314,1.05518A1.189,1.189,0,0,1,131.69531,95.80664Z" transform="translate(-126.94287 -34)"/>
    </g>
    <g>
      <g>
        <path class="cls-1" d="M182.05847,199.01343a2.50472,2.50472,0,0,1-1.83935-.69971c-.32959.52979-.35987.56982-.35987.56982-.06982.10987-.07959.12989-.1499.12989-.10986,0-.10986-.06983-.10986-.23975v-1.999c0-.17969,0-.24951.12988-.24951a.104.104,0,0,1,.12012.09961,2.02127,2.02127,0,0,0,.61963,1.53906,2.41164,2.41164,0,0,0,1.5791.54,1.37054,1.37054,0,0,0,1.33935-1.4292,1.45884,1.45884,0,0,0-.31006-.91944,1.32536,1.32536,0,0,0-.84912-.50976c-.6997-.16992-1.20947-.29-1.31933-.33008a1.93587,1.93587,0,0,1,.63965-3.76758,2.058,2.058,0,0,1,1.59912.69922l.34961-.56933c.06982-.12012.08007-.12989.1499-.12989.10986,0,.10986.06983.10986.23975v2.00879c0,.18994,0,.23974-.12988.23974-.10986,0-.10986-.06-.11963-.11962-.06006-.44971-.28027-2.08887-1.94922-2.08887a1.3064,1.3064,0,0,0-.30957,2.57861l1.2793.30957a2.045,2.045,0,0,1,1.499,2.019A2.00366,2.00366,0,0,1,182.05847,199.01343Z" transform="translate(-126.94287 -34)"/>
        <path class="cls-1" d="M187.0658,201.57593a1.08974,1.08974,0,0,1-1.97608.0874,2.94954,2.94954,0,0,1-.26221-1.40479,3.11758,3.11758,0,0,1,.21534-1.32324,1.06866,1.06866,0,0,1,1.01416-.69336,1.08087,1.08087,0,0,1,.99121.65284,4.123,4.123,0,0,1,.01758,2.68115Zm-.32666-2.52393c-.11084-.57715-.49561-.68213-.688-.68213-.14551,0-.58252.05274-.69336.7461a7.78169,7.78169,0,0,0-.04688,1.07275,7.908,7.908,0,0,0,.06446,1.23c.105.55957.44873.70508.67578.70508.26269,0,.59472-.17481.68213-.72852a11.2829,11.2829,0,0,0,.00586-2.34326Z" transform="translate(-126.94287 -34)"/>
      </g>
      <g>
        <path class="cls-1" d="M165.17786,199.01343a2.50476,2.50476,0,0,1-1.83936-.69971c-.32959.52979-.35986.56982-.35986.56982-.06983.10987-.07959.12989-.1499.12989-.10987,0-.10987-.06983-.10987-.23975v-1.999c0-.17969,0-.24951.12988-.24951a.104.104,0,0,1,.12012.09961,2.0213,2.0213,0,0,0,.61963,1.53906,2.41165,2.41165,0,0,0,1.5791.54,1.37055,1.37055,0,0,0,1.33936-1.4292,1.4589,1.4589,0,0,0-.31006-.91944,1.32538,1.32538,0,0,0-.84912-.50976c-.69971-.16992-1.20947-.29-1.31934-.33008a1.93587,1.93587,0,0,1,.63965-3.76758,2.058,2.058,0,0,1,1.59912.69922l.34961-.56933c.06983-.12012.08008-.12989.1499-.12989.10987,0,.10987.06983.10987.23975v2.00879c0,.18994,0,.23974-.12989.23974-.10986,0-.10986-.06-.11962-.11962-.06006-.44971-.28028-2.08887-1.94922-2.08887a1.3064,1.3064,0,0,0-.30957,2.57861l1.27929.30957a2.045,2.045,0,0,1,1.499,2.019A2.00367,2.00367,0,0,1,165.17786,199.01343Z" transform="translate(-126.94287 -34)"/>
        <path class="cls-1" d="M169.21741,202.1062c-.2334,0-.74024,0-.94434.01758v-.18066h.18652c.52442,0,.542-.06983.542-.27979V198.6438a1.74308,1.74308,0,0,1-.76367.15185V198.615a1.44048,1.44048,0,0,0,1.061-.37305c.13428,0,.13428.01123.13428.15137v3.27c0,.21582.01709.27979.542.27979h.18652v.18066C169.95764,202.1062,169.45032,202.1062,169.21741,202.1062Z" transform="translate(-126.94287 -34)"/>
      </g>
    </g>
    <path class="cls-1" d="M157.73389,127.27881a1.86874,1.86874,0,0,1-3.38819.1499,5.065,5.065,0,0,1-.4497-2.40869,5.34275,5.34275,0,0,1,.37011-2.26856,1.83169,1.83169,0,0,1,1.73877-1.18945,1.85314,1.85314,0,0,1,1.69922,1.11914,7.05826,7.05826,0,0,1,.02979,4.59766Zm-.55957-4.32764c-.18994-.98926-.84961-1.16943-1.1792-1.16943-.25,0-.99951.08984-1.18946,1.2793a13.38329,13.38329,0,0,0-.08007,1.83886,13.63223,13.63223,0,0,0,.10986,2.10889c.18018.95947.76953,1.20947,1.15967,1.20947.4497,0,1.01953-.2998,1.16943-1.24951a19.2821,19.2821,0,0,0,.00977-4.01758Z" transform="translate(-126.94287 -34)"/>
    <path class="cls-1" d="M156.02979,143.29834c-.39942,0-1.269,0-1.61866.02979v-.31006h.31983c.89941,0,.9292-.11963.9292-.4795v-5.17724a2.99361,2.99361,0,0,1-1.30909.25976v-.30957a2.4691,2.4691,0,0,0,1.81885-.63964c.23,0,.23.02.23.25976v5.60693c0,.36963.02979.4795.9292.4795h.31983v.31006C157.29932,143.29834,156.42969,143.29834,156.02979,143.29834Z" transform="translate(-126.94287 -34)"/>
    <path class="cls-1" d="M157.71411,158.32813h-3.708c0-.23975,0-.25977.11036-.36963l1.91894-2.13916a3.58207,3.58207,0,0,0,1.04932-2.2085c0-.81982-.42969-1.62939-1.33936-1.62939a1.44174,1.44174,0,0,0-1.34912,1.01953.38751.38751,0,0,1,.12988-.00977.50588.50588,0,0,1,.52979.51953.52547.52547,0,1,1-1.04981-.02978,1.84677,1.84677,0,0,1,1.86914-1.80908,1.96311,1.96311,0,0,1,2.11866,1.939c0,.99951-.59961,1.53906-2.15869,2.91846l-1.05909,1.02929H156.575a3.25047,3.25047,0,0,0,.94922-.08007,3.29535,3.29535,0,0,0,.22021-.88965h.24952Z" transform="translate(-126.94287 -34)"/>
    <path class="cls-1" d="M155.94482,173.438a1.82259,1.82259,0,0,1-2.01855-1.56885.55975.55975,0,1,1,1.11914-.02.54745.54745,0,0,1-.65967.54981,1.82011,1.82011,0,0,0,1.5293.75927c.43994,0,1.12939-.28955,1.12939-1.64892,0-.97949-.36963-1.65918-1.18945-1.65918h-.43945c-.16992,0-.24024,0-.24024-.10987,0-.10009.07032-.10986.14991-.12011.07031,0,.31005-.02.39013-.02979a.96868.96868,0,0,0,.88916-.52,2.494,2.494,0,0,0,.27979-1.13916c0-.89941-.54932-1.11914-.95948-1.11914a1.62013,1.62013,0,0,0-1.3291.61963c.14991,0,.61963,0,.61963.49951a.50981.50981,0,1,1-1.01953-.00976c0-.75977.75977-1.35938,1.769-1.35938.95948,0,1.83936.55957,1.83936,1.3794a1.92484,1.92484,0,0,1-1.39941,1.75879,1.92754,1.92754,0,0,1,1.66894,1.80908A2.0382,2.0382,0,0,1,155.94482,173.438Z" transform="translate(-126.94287 -34)"/>
    <line class="cls-2" x1="37.98987" y1="146" x2="37.98987" y2="156"/>
    <line class="cls-2" x1="54.87048" y1="146" x2="54.87048" y2="156"/>
    <line class="cls-2" x1="37.98987" y1="81" x2="37.98987" y2="66"/>
    <line class="cls-2" x1="54.87048" y1="81" x2="54.87048" y2="66"/>
    <line class="cls-2" x1="23.05713" y1="11" x2="8.05713" y2="11"/>
    <line class="cls-2" x1="23.05713" y1="26" x2="8.05713" y2="26"/>
    <line class="cls-2" x1="23.05713" y1="41" x2="8.05713" y2="41"/>
    <line class="cls-2" x1="23.05713" y1="56" x2="8.05713" y2="56"/>
    <line class="cls-2" x1="23.05713" y1="91" x2="8.05713" y2="91"/>
    <line class="cls-2" x1="23.05713" y1="106" x2="8.05713" y2="106"/>
    <line class="cls-2" x1="23.05713" y1="121" x2="8.05713" y2="121"/>
    <line class="cls-2" x1="23.05713" y1="136" x2="8.05713" y2="136"/>
    <path class="cls-1" d="M258.73389,99.77881a1.86874,1.86874,0,0,1-3.38819.1499A5.065,5.065,0,0,1,254.896,97.52a5.34275,5.34275,0,0,1,.37011-2.26856,1.83169,1.83169,0,0,1,1.73877-1.18945,1.85314,1.85314,0,0,1,1.69922,1.11914,7.05826,7.05826,0,0,1,.02979,4.59766Zm-.55957-4.32764c-.18994-.98926-.84961-1.16943-1.1792-1.16943-.25,0-.99951.08984-1.18946,1.2793a13.38329,13.38329,0,0,0-.08007,1.83886,13.63223,13.63223,0,0,0,.10986,2.10889c.18018.95947.76953,1.20947,1.15967,1.20947.4497,0,1.01953-.2998,1.16943-1.24951a19.2821,19.2821,0,0,0,.00977-4.01758Z" transform="translate(-126.94287 -34)"/>
    <path class="cls-1" d="M257.02979,120.79834c-.39942,0-1.269,0-1.61866.02979v-.31006h.31983c.89941,0,.9292-.11963.9292-.4795v-5.17724a2.99361,2.99361,0,0,1-1.30909.25976v-.30957a2.4691,2.4691,0,0,0,1.81885-.63964c.23,0,.23.02.23.25976v5.60693c0,.36963.02979.4795.9292.4795h.31983v.31006C258.29932,120.79834,257.42969,120.79834,257.02979,120.79834Z" transform="translate(-126.94287 -34)"/>
    <g>
      <path class="cls-1" d="M275.68164,199.07764a2.50472,2.50472,0,0,1-1.83935-.69971c-.32959.52978-.35987.56982-.35987.56982-.06982.10987-.07959.12989-.1499.12989-.10986,0-.10986-.06983-.10986-.23975v-1.999c0-.17969,0-.24951.12988-.24951a.104.104,0,0,1,.12012.0996,2.02232,2.02232,0,0,0,.61914,1.53907,2.4139,2.4139,0,0,0,1.58008.54,1.37046,1.37046,0,0,0,1.33886-1.4292,1.46418,1.46418,0,0,0-.30957-.91944,1.3274,1.3274,0,0,0-.84961-.50976c-.69922-.16992-1.209-.29-1.31933-.33008a1.93587,1.93587,0,0,1,.63965-3.76758,2.0617,2.0617,0,0,1,1.5996.69922l.34961-.56934c.06934-.12011.08008-.12988.14942-.12988.11035,0,.11035.06983.11035.23975v2.00879c0,.18994,0,.23974-.13086.23974-.10937,0-.10937-.06006-.11914-.11963-.06055-.4497-.28027-2.08886-1.94922-2.08886a1.3064,1.3064,0,0,0-.30957,2.57861l1.2793.30957a2.04554,2.04554,0,0,1,1.499,2.019A2.00367,2.00367,0,0,1,275.68164,199.07764Z" transform="translate(-126.94287 -34)"/>
      <path class="cls-1" d="M280.67773,202.188h-2.16308c0-.14014,0-.15137.06348-.21582l1.11914-1.24707a2.08578,2.08578,0,0,0,.61328-1.28858c0-.47754-.252-.9497-.78125-.9497a.84042.84042,0,0,0-.78711.59423.22343.22343,0,0,1,.07617-.00585.2954.2954,0,0,1,.30859.30322.30649.30649,0,1,1-.6123-.01758,1.07636,1.07636,0,0,1,1.08984-1.05469,1.1442,1.1442,0,0,1,1.23535,1.13037c0,.583-.34961.898-1.25879,1.70215l-.61816.60059h1.04981a.46749.46749,0,0,0,.68164-.56543h.1455Z" transform="translate(-126.94287 -34)"/>
    </g>
    <g>
      <path class="cls-1" d="M128.46191,127.31836c-.37939,0-1.16894,0-1.519.02978v-.31005h.25977c.78955,0,.81982-.10987.81982-.46973v-5.26709c0-.35938-.03027-.46973-.81982-.46973h-.25977V120.522c.3501.02979,1.13965.02979,1.5293.02979.37988,0,1.16943,0,1.519-.02979v.30957h-.25976c-.78956,0-.81983.11035-.81983.46973v5.26709c0,.35986.03027.46973.81983.46973h.25976v.31005C129.6416,127.31836,128.85205,127.31836,128.46191,127.31836Z" transform="translate(-126.94287 -34)"/>
      <path class="cls-1" d="M132.43555,129.71631v.50732c0,.21.01172.27393.44287.27393h.12256v.18066c-.23926-.01758-.54785-.01758-.793-.01758-.24463,0-.54785,0-.78662.01758v-.18066h.12207c.43164,0,.44336-.064.44336-.27393v-.50732H130.436v-.18067l1.78955-2.73339c.04687-.07032.064-.07032.1167-.07032.09326,0,.09326.03516.09326.15186v2.65185h.583v.18067Zm-.41407-2.35449-1.42187,2.17382h1.42187Z" transform="translate(-126.94287 -34)"/>
    </g>
    <g>
      <path class="cls-1" d="M128.46191,141.31836c-.37939,0-1.16894,0-1.519.02978v-.31h.25977c.78955,0,.81982-.10987.81982-.46973v-5.26709c0-.35938-.03027-.46973-.81982-.46973h-.25977V134.522c.3501.02979,1.13965.02979,1.5293.02979.37988,0,1.16943,0,1.519-.02979v.30957h-.25976c-.78956,0-.81983.11035-.81983.46973v5.26709c0,.35986.03027.46973.81983.46973h.25976v.31C129.6416,141.31836,128.85205,141.31836,128.46191,141.31836Z" transform="translate(-126.94287 -34)"/>
      <path class="cls-1" d="M131.61963,144.80664a1.07034,1.07034,0,0,1-1.05518-1.06689.28922.28922,0,1,1,.28565.2622.26309.26309,0,0,1-.09912-.01172.90757.90757,0,0,0,.85693.65284.72847.72847,0,0,0,.62354-.37891,1.69566,1.69566,0,0,0,.13964-.79834,1.79331,1.79331,0,0,0-.10449-.73437.57011.57011,0,0,0-.4956-.37305.87373.87373,0,0,0-.752.4082c-.02343.03467-.03515.05225-.07568.05225-.08154,0-.08154-.04688-.08154-.15137v-1.72559c0-.09326,0-.13964.0581-.13964a.22976.22976,0,0,1,.06983.01709,1.89215,1.89215,0,0,0,.77539.16357,1.91841,1.91841,0,0,0,.79248-.16943.105.105,0,0,1,.04687-.01709.05622.05622,0,0,1,.05811.064,1.27053,1.27053,0,0,1-1.125.606,1.83794,1.83794,0,0,1-.49512-.07568v1.13671a1.0242,1.0242,0,0,1,.74023-.29736,1.19644,1.19644,0,0,1,1.10743,1.27686A1.28767,1.28767,0,0,1,131.61963,144.80664Z" transform="translate(-126.94287 -34)"/>
    </g>
    <g>
      <path class="cls-1" d="M128.46191,157.31836c-.37939,0-1.16894,0-1.519.02978v-.31h.25977c.78955,0,.81982-.10987.81982-.46973v-5.26709c0-.35938-.03027-.46973-.81982-.46973h-.25977V150.522c.3501.02979,1.13965.02979,1.5293.02979.37988,0,1.16943,0,1.519-.02979v.30957h-.25976c-.78956,0-.81983.11035-.81983.46973v5.26709c0,.35986.03027.46973.81983.46973h.25976v.31C129.6416,157.31836,128.85205,157.31836,128.46191,157.31836Z" transform="translate(-126.94287 -34)"/>
      <path class="cls-1" d="M131.73584,160.80664c-.542,0-1.21826-.41406-1.21826-1.97021,0-1.28809.78711-2.04,1.5332-2.04.48389,0,.74024.27978.74024.62939a.2682.2682,0,1,1-.53614.01172c0-.26221.23291-.26221.32032-.26221a.60108.60108,0,0,0-.5127-.2334c-.29736,0-1.02.21-1.02,1.68457v.14014a.80487.80487,0,0,1,.72852-.57715,1.22217,1.22217,0,0,1,1.16552,1.29981A1.24725,1.24725,0,0,1,131.73584,160.80664Zm.57129-2.12207a.56212.56212,0,0,0-.542-.36133c-.52442,0-.71094.583-.71094,1.0376a2.84388,2.84388,0,0,0,.105.84521.66937.66937,0,0,0,.57666.437.60878.60878,0,0,0,.57715-.37891,3.10788,3.10788,0,0,0-.00586-1.57959Z" transform="translate(-126.94287 -34)"/>
    </g>
    <g>
      <path class="cls-1" d="M128.46191,171.31836c-.37939,0-1.16894,0-1.519.02978v-.31h.25977c.78955,0,.81982-.10987.81982-.46973v-5.26709c0-.35938-.03027-.46973-.81982-.46973h-.25977V164.522c.3501.02979,1.13965.02979,1.5293.02979.37988,0,1.16943,0,1.519-.02979v.30957h-.25976c-.78956,0-.81983.11035-.81983.46973v5.26709c0,.35986.03027.46973.81983.46973h.25976v.31C129.6416,171.31836,128.85205,171.31836,128.46191,171.31836Z" transform="translate(-126.94287 -34)"/>
      <path class="cls-1" d="M133.04736,171.12842l-.78662,1.10742a2.54749,2.54749,0,0,0-.36133.99658,6.50353,6.50353,0,0,0-.06445.95606v.29736c0,.05811,0,.3208-.26807.3208s-.26806-.26269-.26806-.3208a4.0719,4.0719,0,0,1,.7168-2.19141l.65283-.92138h-1.20655a2.93614,2.93614,0,0,0-.57128.03515,1.63086,1.63086,0,0,0-.14551.53028h-.14551l.19189-1.20069h.146c.02344.11084.03516.18653.74609.18653h1.41651C133.1001,171.04688,133.1001,171.05859,133.04736,171.12842Z" transform="translate(-126.94287 -34)"/>
    </g>
    <polyline class="cls-2" points="73.057 113.5 98.057 113.5 98.057 84 123.057 84"/>
    <polyline class="cls-2" points="73.057 34 98.057 34 98.057 63.5 123.057 63.5"/>
    <line class="cls-2" x1="148.49365" y1="98.50879" x2="148.49365" y2="156"/>
  </g>
</svg>
