<?xml version="1.0" encoding="utf-8"?>
<!-- Generator: Adobe Illustrator 23.0.3, SVG Export Plug-In . SVG Version: 6.00 Build 0)  -->
<svg version="1.1" id="Layer_1" xmlns="http://www.w3.org/2000/svg" xmlns:xlink="http://www.w3.org/1999/xlink" x="0px" y="0px"
	 viewBox="0 0 190.55556 81.81253" style="enable-background:new 0 0 190.55556 81.81253;" xml:space="preserve">
<style type="text/css">
	.st0{fill:none;stroke:#8FF4DD;stroke-width:2;stroke-linecap:round;stroke-linejoin:round;}
	.st1{fill:none;stroke:#8FF4DD;stroke-width:2;stroke-linecap:round;stroke-linejoin:round;stroke-dasharray:5,5;}
	.st2{fill:#8FF4DD;}
	.st3{fill:none;stroke:#8FF4DD;stroke-width:2;stroke-linecap:round;stroke-linejoin:round;stroke-dasharray:5;}
	.st4{fill:none;stroke:#FD1D53;stroke-miterlimit:10;}
	.st5{fill:#FD1D53;}
	.st6{fill:none;stroke:#8FF4DD;stroke-width:2;stroke-linecap:round;}
	.st7{fill:none;stroke:#8FF4DD;stroke-width:2;stroke-linecap:square;stroke-linejoin:round;}
</style>
<title>AdmittanceParallel</title>
<g>
	<line class="st0" x1="184" y1="1" x2="174" y2="1.00003"/>
	<line class="st0" x1="144" y1="1.00003" x2="1" y2="1.00003"/>
	<g>
		<line class="st0" x1="174" y1="1.00003" x2="171.5" y2="1.00003"/>
		<line class="st1" x1="166.5" y1="1.00003" x2="149" y2="1.00003"/>
		<line class="st0" x1="146.5" y1="1.00003" x2="144" y2="1.00003"/>
	</g>
	<g>
		<path class="st2" d="M172.76758,21.6265c-0.20851-0.00006-0.41685,0.01184-0.62399,0.03564
			c-0.26367,0.03613-0.35938,0.03613-0.46729,0.2041l-2.81885,4.1377v2.72265h1.30762v0.56348
			c-0.45605-0.03613-1.60744-0.03613-2.12305-0.03613c-0.50391,0-1.6792,0-2.11084,0.03613v-0.56348h1.29541v-2.72265
			l-2.98633-4.37744h-1.17529v-0.564c0.41943,0.03613,1.49899,0.03613,1.979,0.03613c0.53955,0,1.70264,0,2.19434-0.03613v0.564
			h-1.019l2.43459,3.562l2.24268-3.29834c0.03632-0.04264,0.06476-0.0914,0.084-0.144
			c-0.29382-0.09609-0.60297-0.13666-0.91164-0.11962v-0.564c0.44385,0.03613,1.11572,0.03613,1.58299,0.03613l1.36768-0.03613
			v0.564L172.76758,21.6265z"/>
	</g>
	<g>
		<path class="st2" d="M11.3125,68.79691c-0.20851-0.00005-0.41685,0.01184-0.624,0.03564
			c-0.26367,0.03613-0.35937,0.03613-0.46679,0.2041l-2.81934,4.1377V75.897h1.30762v0.56348
			c-0.45606-0.03613-1.60742-0.03613-2.123-0.03613c-0.50391,0-1.67871,0-2.11035,0.03613V75.897h1.29492v-2.72266l-2.98633-4.37744
			h-1.1748v-0.564c0.41894,0.03613,1.499,0.03613,1.97851,0.03613c0.54,0,1.70313,0,2.19434-0.03613v0.564H4.76465l2.43457,3.562
			l2.24218-3.29834c0.03668-0.0424,0.06516-0.09125,0.084-0.14405c-0.29366-0.09609-0.60263-0.13666-0.91114-0.11962v-0.564
			c0.44336,0.03613,1.11524,0.03613,1.583,0.03613l1.36719-0.03613v0.564L11.3125,68.79691z"/>
		<path class="st2" d="M11.74316,80.53323c-0.86992-0.02198-1.55771-0.74429-1.53711-1.61423
			c-0.03757-0.84084,0.6124-1.55348,1.45313-1.59327c0.68435-0.01029,1.24746,0.53614,1.25775,1.22049
			c0.00075,0.0498-0.00151,0.09961-0.00675,0.14914c0,0.147-0.0205,0.147-0.1748,0.147h-1.94925
			c-0.0247,0.36181,0.04744,0.72366,0.209,1.04834c0.16433,0.2825,0.46329,0.45971,0.79,0.46826
			c0.44004-0.00236,0.82513-0.29635,0.94336-0.72022c0.01367-0.05566,0.02832-0.09765,0.09082-0.09765
			c0.04453-0.00535,0.08496,0.02642,0.09031,0.07095c0.00052,0.00433,0.00069,0.00869,0.00051,0.01305
			C12.77788,80.16119,12.29533,80.53672,11.74316,80.53323z M11.65916,77.47952c-0.23731,0-0.82422,0.17481-0.86621,1.21582h1.65625
			c0.00002-0.27246-0.0703-1.21582-0.79002-1.21582H11.65916z"/>
		<path class="st2" d="M16.00877,81.79153l-0.78223,0.021v-0.2168c0.46777,0,0.54492,0,0.54492-0.31445v-1.251
			c-0.2094,0.30916-0.55634,0.49684-0.92969,0.50293c-0.84511-0.02934-1.50899-0.73373-1.48828-1.5791
			c-0.00805-0.86333,0.68168-1.57159,1.54492-1.58642c0.40878,0.01319,0.77339,0.2607,0.93653,0.63574l0.26465-0.63574h0.15429
			v3.91357c0,0.31445,0.07715,0.31445,0.54492,0.31445v0.2168L16.00877,81.79153z M15.79295,78.52052
			c0-0.37012-0.294-0.978-0.85254-0.978c-0.51758,0-1.00684,0.58008-1.00684,1.41162c0,0.80371,0.42676,1.42578,0.93652,1.42578
			c0.48054-0.0251,0.87168-0.39553,0.92286-0.874V78.52052z"/>
	</g>
	<g>
		<path class="st2" d="M98.76758,21.6265c-0.20851-0.00006-0.41685,0.01184-0.62399,0.03564
			c-0.26367,0.03613-0.35938,0.03613-0.46729,0.2041l-2.81885,4.1377v2.72265h1.30762v0.56348
			c-0.45605-0.03613-1.60744-0.03613-2.12305-0.03613c-0.50391,0-1.6792,0-2.11084,0.03613v-0.56348h1.29541v-2.72265
			l-2.98633-4.37744h-1.17529v-0.564c0.41943,0.03613,1.49899,0.03613,1.979,0.03613c0.53955,0,1.70264,0,2.19434-0.03613v0.564
			h-1.019l2.43459,3.562l2.24268-3.29834c0.03632-0.04264,0.06476-0.0914,0.084-0.144
			c-0.29382-0.09609-0.60297-0.13666-0.91164-0.11962v-0.564c0.44385,0.03613,1.11572,0.03613,1.58299,0.03613l1.36768-0.03613
			v0.564L98.76758,21.6265z"/>
		<path class="st2" d="M100.40723,33.28616h-2.59277c0-0.16748,0-0.18164,0.07666-0.25879l1.3418-1.49511
			c0.41812-0.41286,0.67789-0.95951,0.73389-1.54444c0-0.57324-0.30078-1.13916-0.93652-1.13916
			c-0.43536,0.00865-0.8159,0.29602-0.94336,0.71241c0.02966-0.00739,0.06038-0.0097,0.09082-0.00684
			c0.19493-0.00934,0.36052,0.1411,0.36986,0.33603c0.00044,0.00908,0.00052,0.01817,0.00026,0.02725
			c0.00198,0.20275-0.16077,0.36871-0.36353,0.37069c-0.20274,0.00198-0.3687-0.16077-0.37068-0.36352
			c-0.00009-0.0094,0.00018-0.01879,0.00081-0.02817c0.01451-0.70877,0.59778-1.27328,1.30664-1.26464
			c0.7558-0.06003,1.41716,0.50401,1.47719,1.25981c0.00255,0.03201,0.00397,0.06409,0.00426,0.09619
			c0,0.69873-0.41895,1.07618-1.50928,2.04053l-0.74072,0.71973h1.25781c0.22292,0.01405,0.44667-0.00486,0.66406-0.05615
			c0.07997-0.19899,0.13159-0.40823,0.15332-0.62159h0.1748L100.40723,33.28616z"/>
	</g>
	<g>
		<path class="st2" d="M48.76757,21.6265c-0.20851-0.00006-0.41685,0.01184-0.624,0.03564
			c-0.26367,0.03613-0.35937,0.03613-0.46728,0.2041l-2.81885,4.1377v2.72265h1.30762v0.56348
			c-0.45606-0.03613-1.60743-0.03613-2.12305-0.03613c-0.50391,0-1.6792,0-2.11084,0.03613v-0.56348h1.29541v-2.72265
			l-2.98635-4.37744h-1.17529v-0.564c0.41943,0.03613,1.499,0.03613,1.979,0.03613c0.53955,0,1.70264,0,2.19434-0.03613v0.564
			h-1.01905l2.43458,3.562l2.24267-3.29834c0.03631-0.04264,0.06475-0.0914,0.084-0.144
			c-0.29382-0.09609-0.60297-0.13666-0.91163-0.11962v-0.564c0.44385,0.03613,1.11573,0.03613,1.583,0.03613l1.36768-0.03613v0.564
			L48.76757,21.6265z"/>
		<path class="st2" d="M49.26077,33.26517c-0.2793,0-0.88721,0-1.13184,0.021v-0.21679h0.22364
			c0.6289,0,0.6499-0.0835,0.6499-0.33545V29.1138c-0.28754,0.12896-0.60052,0.19122-0.91553,0.18213v-0.2168
			c0.46709,0.02941,0.92611-0.132,1.272-0.44726c0.16065,0,0.16065,0.01416,0.16065,0.18164v3.92041
			c0,0.25879,0.021,0.33545,0.6499,0.33545h0.22363v0.21679C50.14843,33.26517,49.54052,33.26517,49.26077,33.26517z"/>
	</g>
	<line class="st0" x1="184" y1="51" x2="1" y2="51.00003"/>
	<path class="st3" d="M1,1"/>
	<g>
		<polyline class="st4" points="9,64 9,26 19.915,26 		"/>
		<polygon class="st5" points="16.602,30.09 15.92,29.357 19.532,26.001 15.92,22.644 16.602,21.911 21,26.001 		"/>
	</g>
</g>
<g>
	<path id="path5036_2_" class="st6" d="M108.99995,51V39.88889"/>
	<path id="path5038_2_" class="st6" d="M108.99995,12.11111V1"/>
	<rect id="rect5044_2_" x="103.44444" y="12.11111" class="st7" width="11.11111" height="27.77778"/>
</g>
<g>
	<path id="path5036_1_" class="st6" d="M58.99995,51V39.88889"/>
	<path id="path5038_1_" class="st6" d="M58.99995,12.11111V1"/>
	<rect id="rect5044_1_" x="53.44444" y="12.11111" class="st7" width="11.11111" height="27.77778"/>
</g>
<g>
	<path id="path5036_3_" class="st6" d="M183.99995,51V39.88889"/>
	<path id="path5038_3_" class="st6" d="M183.99995,12.11111V1"/>
	<rect id="rect5044_3_" x="178.44444" y="12.11111" class="st7" width="11.11111" height="27.77778"/>
</g>
<g>
	<g>
		<path class="st2" d="M174.41797,33.35645c-0.28613,0-0.50293-0.20996-0.50293-0.5459c0-0.14648,0.02734-0.20898,0.09082-0.38379
			c0.11816-0.34277,0.42578-1.18164,0.42578-1.61426c0-0.11914,0-0.46875-0.32129-0.46875
			c-0.6709,0-1.04785,0.89453-1.08984,1.04883l-0.42676,1.71875c-0.02734,0.11914-0.09766,0.24512-0.25879,0.24512
			c-0.125,0-0.18164-0.08398-0.18164-0.16797c0-0.02832,0-0.03516,0.02832-0.13281l0.50977-2.04102
			c0.02832-0.09766,0.05664-0.25098,0.05664-0.38379c0-0.08398,0-0.28711-0.18164-0.28711
			c-0.23828,0-0.37109,0.41211-0.47559,0.8252c-0.04199,0.16016-0.04883,0.16699-0.12598,0.16699
			c-0.0625,0-0.09766-0.01367-0.09766-0.06934c0,0,0.09082-0.43359,0.22363-0.69238c0.14648-0.2998,0.32813-0.37012,0.48926-0.37012
			c0.32129,0,0.53809,0.25195,0.55859,0.56641c0.23145-0.31445,0.55957-0.56641,0.99316-0.56641
			c0.53809,0,0.69824,0.34277,0.69824,0.71289c0,0.40527-0.2373,1.05566-0.41895,1.56543
			c-0.05566,0.13965-0.13281,0.35645-0.13281,0.52441c0,0.16016,0.05566,0.20898,0.16016,0.20898
			c0.3916,0,0.58008-0.62891,0.64355-0.86621c0.02734-0.10449,0.03516-0.12598,0.11914-0.12598c0.02734,0,0.09082,0,0.09082,0.06348
			C175.29199,32.31445,175.06836,33.35645,174.41797,33.35645z"/>
	</g>
</g>
</svg>
