<svg xmlns="http://www.w3.org/2000/svg" viewBox="0 0 207.00277 101.75">
  <defs>
    <style>
      .cls-1, .cls-2, .cls-3, .cls-4, .cls-5 {
        fill: none;
      }

      .cls-1, .cls-2, .cls-3, .cls-4 {
        stroke: #000;
        stroke-linecap: round;
        stroke-width: 2px;
      }

      .cls-1 {
        stroke-linejoin: bevel;
      }

      .cls-2, .cls-3 {
        stroke-linejoin: round;
      }

      .cls-3 {
        stroke-dasharray: 5 5;
      }

      .cls-5 {
        stroke: #c1272d;
        stroke-miterlimit: 10;
      }

      .cls-6 {
        fill: #c1272d;
      }
    </style>
  </defs>
  <title>AdmittanceSeries</title>
  <g id="Layer_1" data-name="Layer 1">
    <path id="path3970" class="cls-1" d="M125,50h-8.33333l-2.77778-5.55556-5.55556,11.11111-5.55555-11.11111L97.22222,55.55553,91.66667,44.44441,86.11111,55.55553,83.33333,50H75" transform="translate(-49 -29.0625)"/>
    <path id="path3970-2" data-name="path3970" class="cls-1" d="M200,50h-8.33333l-2.77778-5.55556-5.55556,11.11111-5.55555-11.11111-5.55556,11.11112-5.55555-11.11112-5.55556,11.11112L158.33333,50H150" transform="translate(-49 -29.0625)"/>
    <path id="path3970-3" data-name="path3970" class="cls-1" d="M250,50v8.33333l-5.55556,2.77778,11.11111,5.55556-11.11111,5.55555,11.11112,5.55556-11.11111,5.55555,11.11111,5.55556L250,91.66667V100" transform="translate(-49 -29.0625)"/>
  </g>
  <g id="Layer_2" data-name="Layer 2">
    <line class="cls-2" x1="76" y1="20.93747" x2="101" y2="20.93747"/>
    <line class="cls-2" x1="151" y1="20.93747" x2="161" y2="20.9375"/>
    <line class="cls-2" x1="201" y1="20.93747" x2="191" y2="20.9375"/>
    <g>
      <line class="cls-2" x1="161" y1="20.9375" x2="163.5" y2="20.9375"/>
      <line class="cls-3" x1="168.5" y1="20.9375" x2="186" y2="20.9375"/>
      <line class="cls-2" x1="188.5" y1="20.9375" x2="191" y2="20.9375"/>
    </g>
    <line class="cls-4" x1="1" y1="20.9375" x2="26" y2="20.93747"/>
    <g>
      <path d="M238.76758,68.62646a5.45551,5.45551,0,0,0-.624.03565c-.26367.03613-.35937.03613-.46728.2041l-2.81885,4.1377v2.72265H236.165V76.29c-.45606-.03613-1.60742-.03613-2.12305-.03613-.5039,0-1.6792,0-2.11084.03613v-.56348h1.29541V73.00391l-2.98633-4.37745h-1.17529v-.564c.41944.03613,1.499.03613,1.979.03613.53955,0,1.70263,0,2.19433-.03613v.564h-1.019l2.43457,3.562,2.24267-3.29834a.47268.47268,0,0,0,.084-.14405,2.49081,2.49081,0,0,0-.91162-.11963v-.564c.44385.03613,1.11572.03613,1.583.03613l1.36767-.03613v.564Z" transform="translate(-49 -29.0625)"/>
      <path d="M240.4209,80.26514l-.78955.021v-.21679c.46826,0,.54492,0,.54492-.31446V78.12646c0-.39794-.07666-.77539-.51709-.77539a1.02042,1.02042,0,0,0-.94336,1.11817v1.28564c0,.31446.07666.31446.54492.31446v.21679l-.78271-.021-.78955.021v-.21679c.46826,0,.54492,0,.54492-.31446V77.88232c0-.34277-.05567-.3916-.54492-.3916v-.21679l.98535-.07666v.73388a1.10173,1.10173,0,0,1,1.03418-.73388.93238.93238,0,0,1,.73388.2583c.2168.252.2168.46826.2168,1.06933v1.335c.00684.20948.18164.20948.54492.20948v.21679Z" transform="translate(-49 -29.0625)"/>
    </g>
    <g>
      <polyline class="cls-5" points="11 83.938 11 45.938 21.915 45.938"/>
      <polygon class="cls-6" points="18.602 50.027 17.92 49.295 21.532 45.938 17.92 42.581 18.602 41.849 23 45.938 18.602 50.027"/>
    </g>
    <g>
      <path d="M63.3125,117.79688a5.45519,5.45519,0,0,0-.624.03564c-.26368.03613-.35938.03613-.4668.2041l-2.81934,4.1377V124.897H60.71v.56348c-.45605-.03613-1.60742-.03613-2.123-.03613-.5039,0-1.67871,0-2.11035.03613V124.897h1.29492v-2.72265l-2.98632-4.37744H53.61035v-.564c.419.03613,1.499.03613,1.97852.03613.54,0,1.70312,0,2.19433-.03613v.564H56.76465l2.43457,3.562,2.24219-3.29834a.45278.45278,0,0,0,.084-.14405,2.48847,2.48847,0,0,0-.91113-.11962v-.564c.44336.03613,1.11523.03613,1.583.03613l1.36718-.03613v.564Z" transform="translate(-49 -29.0625)"/>
      <path d="M63.74316,129.5332a1.57739,1.57739,0,0,1-1.53711-1.61425,1.52682,1.52682,0,0,1,1.45313-1.59327,1.23927,1.23927,0,0,1,1.251,1.36963c0,.147-.02051.147-.17481.147H62.78613a2.04106,2.04106,0,0,0,.209,1.04834.94246.94246,0,0,0,.79.46826.98484.98484,0,0,0,.94336-.72022c.01367-.05566.02832-.09765.09082-.09765a.08122.08122,0,0,1,.09082.084A1.19421,1.19421,0,0,1,63.74316,129.5332Zm-.084-3.05371c-.2373,0-.82422.17481-.86621,1.21582h1.65625C64.44922,127.42285,64.37891,126.47949,63.65918,126.47949Z" transform="translate(-49 -29.0625)"/>
      <path d="M68.00879,130.7915l-.78223.021v-.2168c.46778,0,.54492,0,.54492-.31445v-1.251a1.14544,1.14544,0,0,1-.92968.50293,1.54226,1.54226,0,0,1-1.48828-1.5791,1.572,1.572,0,0,1,1.54492-1.58642,1.05853,1.05853,0,0,1,.93652.63574l.26465-.63574h.1543v3.91357c0,.31445.07714.31445.54492.31445v.2168Zm-.21582-3.271c0-.37012-.29395-.978-.85254-.978-.51758,0-1.00684.58008-1.00684,1.41162,0,.80371.42676,1.42578.93653,1.42578a.97949.97949,0,0,0,.92285-.874Z" transform="translate(-49 -29.0625)"/>
    </g>
    <line class="cls-4" x1="1" y1="70.9375" x2="201" y2="70.9375"/>
    <g>
      <path d="M103.86816,29.62646a5.45521,5.45521,0,0,0-.624.03565c-.26367.03613-.35937.03613-.46777.2041L99.958,34.00391v2.72265h1.30762V37.29c-.45606-.03613-1.60743-.03613-2.12305-.03613-.50391,0-1.67969,0-2.11133.03613v-.56348h1.2959V34.00391l-2.98633-4.37745H94.165v-.564c.41992.03613,1.499.03613,1.97949.03613.53906,0,1.70215,0,2.19434-.03613v.564H97.31934l2.43457,3.562,2.24316-3.29834a.49425.49425,0,0,0,.084-.144,2.49333,2.49333,0,0,0-.9121-.11963v-.564c.44433.03613,1.11621.03613,1.583.03613l1.36817-.03613v.564Z" transform="translate(-49 -29.0625)"/>
      <path d="M104.36133,41.26514c-.2793,0-.8877,0-1.13184.021v-.21679h.22364c.6289,0,.64941-.0835.64941-.33545V37.11377a2.087,2.087,0,0,1-.915.18213v-.2168a1.7262,1.7262,0,0,0,1.27148-.44726c.16114,0,.16114.01416.16114.18164v3.92041c0,.25879.02051.33545.64941.33545h.22363v.21679C105.249,41.26514,104.64063,41.26514,104.36133,41.26514Z" transform="translate(-49 -29.0625)"/>
    </g>
    <g>
      <path d="M178.86816,29.62646a5.45521,5.45521,0,0,0-.624.03565c-.26367.03613-.35937.03613-.46777.2041l-2.81836,4.1377v2.72265h1.30762V37.29c-.45606-.03613-1.60743-.03613-2.123-.03613-.50391,0-1.67969,0-2.11133.03613v-.56348h1.2959V34.00391l-2.98633-4.37745H169.165v-.564c.41992.03613,1.499.03613,1.97949.03613.53906,0,1.70215,0,2.19434-.03613v.564h-1.01953l2.43457,3.562,2.24316-3.29834a.49425.49425,0,0,0,.084-.144,2.49333,2.49333,0,0,0-.9121-.11963v-.564c.44433.03613,1.11621.03613,1.583.03613l1.36817-.03613v.564Z" transform="translate(-49 -29.0625)"/>
      <path d="M180.50781,41.28613H177.915c0-.16748,0-.18164.07617-.25879l1.3418-1.49511a2.50415,2.50415,0,0,0,.73437-1.54444c0-.57324-.30078-1.13916-.93652-1.13916a1.007,1.007,0,0,0-.94336.71241.26733.26733,0,0,1,.09082-.00684.35364.35364,0,0,1,.37012.36328.36712.36712,0,1,1-.7334-.021,1.29085,1.29085,0,0,1,1.30664-1.26464,1.37281,1.37281,0,0,1,1.48145,1.356c0,.69873-.41895,1.07617-1.50977,2.04053l-.74023.71973h1.25781a2.27307,2.27307,0,0,0,.66406-.05616,2.32524,2.32524,0,0,0,.15332-.62158h.17481Z" transform="translate(-49 -29.0625)"/>
    </g>
  </g>
</svg>
