<svg xmlns="http://www.w3.org/2000/svg" viewBox="0 0 190.00277 81.81253">
  <defs>
    <style>
      .cls-1, .cls-2, .cls-3, .cls-4, .cls-6 {
        fill: none;
      }

      .cls-1, .cls-2, .cls-3, .cls-6 {
        stroke: #000;
        stroke-linecap: round;
        stroke-width: 2px;
      }

      .cls-1 {
        stroke-linejoin: bevel;
      }

      .cls-2, .cls-3, .cls-6 {
        stroke-linejoin: round;
      }

      .cls-3 {
        stroke-dasharray: 5 5;
      }

      .cls-4 {
        stroke: #c1272d;
        stroke-miterlimit: 10;
      }

      .cls-5 {
        fill: #c1272d;
      }

      .cls-6 {
        stroke-dasharray: 5;
      }
    </style>
  </defs>
  <title>AdmittanceParallel</title>
  <g id="Layer_1" data-name="Layer 1">
    <path id="path3970" class="cls-1" d="M98.15722,1V9.33333l-5.55555,2.77778,11.11111,5.55556L92.60167,23.22222l11.11111,5.55556L92.60167,34.33333l11.11111,5.55556-5.55555,2.77778V51" transform="translate(-39.15723)"/>
    <path id="path3970-2" data-name="path3970" class="cls-1" d="M148.15722,1V9.33333l-5.55555,2.77778,11.11111,5.55556-11.11111,5.55555,11.11111,5.55556-11.11111,5.55555,11.11111,5.55556-5.55555,2.77778V51" transform="translate(-39.15723)"/>
    <path id="path3970-3" data-name="path3970" class="cls-1" d="M223.15722,1V9.33333l-5.55555,2.77778,11.11111,5.55556-11.11111,5.55555,11.11111,5.55556-11.11111,5.55555,11.11111,5.55556-5.55555,2.77778V51" transform="translate(-39.15723)"/>
  </g>
  <g id="Layer_2" data-name="Layer 2">
    <line class="cls-2" x1="184" y1="1" x2="174" y2="1.00003"/>
    <line class="cls-2" x1="144" y1="1.00003" x2="1" y2="1.00003"/>
    <g>
      <line class="cls-2" x1="174" y1="1.00003" x2="171.5" y2="1.00003"/>
      <line class="cls-3" x1="166.5" y1="1.00003" x2="149" y2="1.00003"/>
      <line class="cls-2" x1="146.5" y1="1.00003" x2="144" y2="1.00003"/>
    </g>
    <g>
      <path d="M211.9248,22.6265a5.45519,5.45519,0,0,0-.624.03564c-.26367.03613-.35937.03613-.46728.2041l-2.81885,4.1377v2.72265h1.30762v.56348c-.45606-.03613-1.60743-.03613-2.12305-.03613-.50391,0-1.6792,0-2.11084.03613v-.56348h1.29541V27.00394l-2.98633-4.37744h-1.17529v-.564c.41943.03613,1.499.03613,1.979.03613.53955,0,1.70264,0,2.19434-.03613v.564h-1.019l2.43458,3.562,2.24267-3.29834a.47268.47268,0,0,0,.084-.144,2.49109,2.49109,0,0,0-.91163-.11962v-.564c.44385.03613,1.11573.03613,1.583.03613l1.36768-.03613v.564Z" transform="translate(-39.15723)"/>
      <path d="M213.57813,34.26517l-.78956.021v-.21679c.46827,0,.54493,0,.54493-.31446V32.1265c0-.398-.07666-.7754-.51709-.7754a1.02042,1.02042,0,0,0-.94336,1.11817v1.28564c0,.31446.07666.31446.54492.31446v.21679l-.78272-.021-.78955.021v-.21679c.46826,0,.54493,0,.54493-.31446V31.88235c0-.34277-.05567-.3916-.54493-.3916V31.274l.98535-.07666v.73388a1.10175,1.10175,0,0,1,1.03418-.73388.9324.9324,0,0,1,.73389.2583c.2168.252.2168.46826.2168,1.06933v1.335c.00683.20948.18164.20948.54492.20948v.21679Z" transform="translate(-39.15723)"/>
    </g>
    <g>
      <polyline class="cls-4" points="9 64 9 26 19.915 26"/>
      <polygon class="cls-5" points="16.602 30.09 15.92 29.357 19.532 26.001 15.92 22.644 16.602 21.911 21 26.001 16.602 30.09"/>
    </g>
    <g>
      <path d="M50.46973,68.79691a5.45537,5.45537,0,0,0-.624.03564c-.26367.03613-.35937.03613-.46679.2041l-2.81934,4.1377V75.897h1.30762v.56348c-.45606-.03613-1.60742-.03613-2.123-.03613-.50391,0-1.67871,0-2.11035.03613V75.897h1.29492V73.17435l-2.98633-4.37744h-1.1748v-.564c.41894.03613,1.499.03613,1.97851.03613.54,0,1.70313,0,2.19434-.03613v.564H43.92188l2.43457,3.562,2.24218-3.29834a.45265.45265,0,0,0,.084-.14405,2.48852,2.48852,0,0,0-.91114-.11962v-.564c.44336.03613,1.11524.03613,1.583.03613l1.36719-.03613v.564Z" transform="translate(-39.15723)"/>
      <path d="M50.90039,80.53323A1.57739,1.57739,0,0,1,49.36328,78.919a1.52682,1.52682,0,0,1,1.45313-1.59327,1.23926,1.23926,0,0,1,1.251,1.36963c0,.147-.0205.147-.1748.147H49.94336a2.04114,2.04114,0,0,0,.209,1.04834.94248.94248,0,0,0,.79.46826.98484.98484,0,0,0,.94336-.72022c.01367-.05566.02832-.09765.09082-.09765a.08121.08121,0,0,1,.09082.084A1.19419,1.19419,0,0,1,50.90039,80.53323Zm-.084-3.05371c-.23731,0-.82422.17481-.86621,1.21582h1.65625C51.60645,78.42288,51.53613,77.47952,50.81641,77.47952Z" transform="translate(-39.15723)"/>
      <path d="M55.166,81.79153l-.78223.021v-.2168c.46777,0,.54492,0,.54492-.31445v-1.251a1.14544,1.14544,0,0,1-.92969.50293,1.54226,1.54226,0,0,1-1.48828-1.5791,1.572,1.572,0,0,1,1.54492-1.58642,1.05853,1.05853,0,0,1,.93653.63574l.26465-.63574h.15429v3.91357c0,.31445.07715.31445.54492.31445v.2168Zm-.21582-3.271c0-.37012-.294-.978-.85254-.978-.51758,0-1.00684.58008-1.00684,1.41162,0,.80371.42676,1.42578.93652,1.42578a.97951.97951,0,0,0,.92286-.874Z" transform="translate(-39.15723)"/>
    </g>
    <g>
      <path d="M137.9248,22.6265a5.45519,5.45519,0,0,0-.624.03564c-.26367.03613-.35937.03613-.46728.2041l-2.81885,4.1377v2.72265h1.30762v.56348c-.45606-.03613-1.60743-.03613-2.12305-.03613-.50391,0-1.6792,0-2.11084.03613v-.56348h1.29541V27.00394l-2.98633-4.37744h-1.17529v-.564c.41943.03613,1.499.03613,1.979.03613.53955,0,1.70264,0,2.19434-.03613v.564h-1.019l2.43458,3.562,2.24267-3.29834a.47268.47268,0,0,0,.084-.144,2.49109,2.49109,0,0,0-.91163-.11962v-.564c.44385.03613,1.11573.03613,1.583.03613l1.36768-.03613v.564Z" transform="translate(-39.15723)"/>
      <path d="M139.56445,34.28616h-2.59277c0-.16748,0-.18164.07666-.25879l1.3418-1.49511a2.50609,2.50609,0,0,0,.73388-1.54444c0-.57324-.30078-1.13916-.93652-1.13916a1.00748,1.00748,0,0,0-.94336.71241.27071.27071,0,0,1,.09082-.00684.35335.35335,0,0,1,.37012.36328.36712.36712,0,1,1-.7334-.021,1.29118,1.29118,0,0,1,1.30664-1.26464,1.37281,1.37281,0,0,1,1.48145,1.356c0,.69873-.41895,1.07618-1.50928,2.04053l-.74072.71973h1.25781a2.27007,2.27007,0,0,0,.66406-.05615,2.289,2.289,0,0,0,.15332-.62159h.17481Z" transform="translate(-39.15723)"/>
    </g>
    <g>
      <path d="M87.9248,22.6265a5.45519,5.45519,0,0,0-.624.03564c-.26367.03613-.35937.03613-.46728.2041l-2.81885,4.1377v2.72265h1.30762v.56348c-.45606-.03613-1.60743-.03613-2.12305-.03613-.50391,0-1.6792,0-2.11084.03613v-.56348h1.29541V27.00394L79.39746,22.6265H78.22217v-.564c.41943.03613,1.499.03613,1.979.03613.53955,0,1.70264,0,2.19434-.03613v.564H81.37646l2.43458,3.562,2.24267-3.29834a.47268.47268,0,0,0,.084-.144,2.49109,2.49109,0,0,0-.91163-.11962v-.564c.44385.03613,1.11573.03613,1.583.03613l1.36768-.03613v.564Z" transform="translate(-39.15723)"/>
      <path d="M88.418,34.26517c-.2793,0-.88721,0-1.13184.021v-.21679h.22364c.6289,0,.6499-.0835.6499-.33545V30.1138a2.09,2.09,0,0,1-.91553.18213v-.2168a1.7272,1.7272,0,0,0,1.272-.44726c.16065,0,.16065.01416.16065.18164v3.92041c0,.25879.021.33545.6499.33545h.22363v.21679C89.30566,34.26517,88.69775,34.26517,88.418,34.26517Z" transform="translate(-39.15723)"/>
    </g>
    <line class="cls-2" x1="184" y1="51" x2="1" y2="51.00003"/>
    <path class="cls-6" d="M40.15723,1" transform="translate(-39.15723)"/>
  </g>
</svg>
