<?xml version="1.0" encoding="utf-8"?>
<!-- Generator: Adobe Illustrator 23.0.3, SVG Export Plug-In . SVG Version: 6.00 Build 0)  -->
<svg version="1.1" id="Layer_1" xmlns="http://www.w3.org/2000/svg" xmlns:xlink="http://www.w3.org/1999/xlink" x="0px" y="0px"
	 viewBox="0 0 207.55556 105.82275" style="enable-background:new 0 0 207.55556 105.82275;" xml:space="preserve">
<style type="text/css">
	.st0{fill:none;stroke:#8FF4DD;stroke-width:2;stroke-linecap:round;}
	.st1{fill:none;stroke:#8FF4DD;stroke-width:2;stroke-linecap:square;stroke-linejoin:round;}
	.st2{fill:none;stroke:#8FF4DD;stroke-width:2;stroke-linecap:round;stroke-linejoin:round;}
	.st3{fill:none;stroke:#8FF4DD;stroke-width:2;stroke-linecap:round;stroke-linejoin:round;stroke-dasharray:5,5;}
	.st4{fill:#8FF4DD;}
	.st5{fill:none;stroke:#FD1D53;stroke-miterlimit:10;}
	.st6{fill:#FD1D53;}
</style>
<g>
	<g>
		<path id="path5036" class="st0" d="M26,22.82613h11.11111"/>
		<path id="path5038" class="st0" d="M64.88889,22.82612H76"/>
		<rect id="rect5044" x="37.11111" y="17.27062" class="st1" width="27.77778" height="11.11111"/>
	</g>
	<g>
		<path id="path5036_1_" class="st0" d="M100,22.82613h11.11111"/>
		<path id="path5038_1_" class="st0" d="M138.88889,22.82612H150"/>
		<rect id="rect5044_1_" x="111.11111" y="17.27062" class="st1" width="27.77778" height="11.11111"/>
	</g>
	<g>
		<path id="path5036_2_" class="st0" d="M200.99995,73V61.88889"/>
		<path id="path5038_2_" class="st0" d="M200.99995,34.11111V23"/>
		<rect id="rect5044_2_" x="195.44444" y="34.11111" class="st1" width="11.11111" height="27.77778"/>
	</g>
</g>
<g>
	<line class="st2" x1="76" y1="22.82614" x2="101" y2="22.82614"/>
	<line class="st2" x1="151" y1="22.82614" x2="161" y2="22.82617"/>
	<line class="st2" x1="201" y1="22.82614" x2="191" y2="22.82617"/>
	<g>
		<g>
			<line class="st2" x1="161" y1="22.82617" x2="163.5" y2="22.82617"/>
			<line class="st3" x1="168.5" y1="22.82617" x2="186" y2="22.82617"/>
			<line class="st2" x1="188.5" y1="22.82617" x2="191" y2="22.82617"/>
		</g>
	</g>
	<line class="st0" x1="1" y1="22.82617" x2="26" y2="22.82614"/>
	<g>
		<path class="st4" d="M189.76758,41.45264c-0.2041,0-0.41992,0.01172-0.62402,0.03564
			c-0.26367,0.03613-0.35938,0.03613-0.46729,0.2041l-2.81885,4.1377v2.72266h1.30762v0.56348
			c-0.45605-0.03613-1.60742-0.03613-2.12305-0.03613c-0.50391,0-1.6792,0-2.11084,0.03613v-0.56348h1.29541v-2.72266
			l-2.98633-4.37744h-1.17529v-0.56396c0.41943,0.03613,1.49902,0.03613,1.979,0.03613c0.53955,0,1.70264,0,2.19434-0.03613v0.56396
			h-1.01904l2.43457,3.56201l2.24268-3.29834c0.06006-0.07178,0.06006-0.09619,0.08398-0.14404
			c-0.31201-0.11963-0.63574-0.11963-0.91162-0.11963v-0.56396c0.44385,0.03613,1.11572,0.03613,1.58301,0.03613l1.36768-0.03613
			v0.56396C190.01953,41.45264,189.76758,41.45264,189.76758,41.45264z"/>
	</g>
	<g>
		<path class="st4" d="M14.3125,90.62305c-0.2041,0-0.41992,0.01172-0.62402,0.03564
			c-0.26367,0.03613-0.35938,0.03613-0.4668,0.2041l-2.81934,4.1377v2.72266h1.30762v0.56348
			c-0.45605-0.03613-1.60742-0.03613-2.12305-0.03613c-0.50391,0-1.67871,0-2.11035,0.03613v-0.56348h1.29492v-2.72266
			l-2.98633-4.37744h-1.1748v-0.56396c0.41895,0.03613,1.49902,0.03613,1.97852,0.03613c0.54004,0,1.70313,0,2.19434-0.03613
			v0.56396H7.76465l2.43457,3.56201l2.24219-3.29834c0.06055-0.07178,0.06055-0.09619,0.08398-0.14404
			c-0.31152-0.11963-0.63574-0.11963-0.91113-0.11963v-0.56396c0.44336,0.03613,1.11523,0.03613,1.58301,0.03613l1.36719-0.03613
			v0.56396H14.3125z"/>
		<path class="st4" d="M14.74316,102.35938c-0.80371,0-1.53711-0.67773-1.53711-1.61426c0-0.87354,0.64258-1.59326,1.45313-1.59326
			c0.87402,0,1.25098,0.67773,1.25098,1.36963c0,0.14697-0.02051,0.14697-0.1748,0.14697h-1.94922
			c0,0.25146,0,0.71289,0.20898,1.04834c0.16113,0.2583,0.44043,0.46826,0.79004,0.46826c0.06934,0,0.69922,0,0.94336-0.72021
			c0.01367-0.05566,0.02832-0.09766,0.09082-0.09766c0.03516,0,0.09082,0.01416,0.09082,0.08398
			C15.91016,101.58398,15.5957,102.35938,14.74316,102.35938z M14.65918,99.30566c-0.2373,0-0.82422,0.1748-0.86621,1.21582h1.65625
			C15.44922,100.24902,15.37891,99.30566,14.65918,99.30566z"/>
		<path class="st4" d="M19.00879,103.61768l-0.78223,0.021v-0.2168c0.46777,0,0.54492,0,0.54492-0.31445v-1.25098
			c-0.15332,0.20264-0.44043,0.50293-0.92969,0.50293c-0.81055,0-1.48828-0.70557-1.48828-1.5791
			c0-0.90869,0.7334-1.58643,1.54492-1.58643c0.55859,0,0.84473,0.44043,0.93652,0.63574l0.26465-0.63574h0.1543v3.91357
			c0,0.31445,0.07715,0.31445,0.54492,0.31445v0.2168L19.00879,103.61768z M18.79297,100.34668
			c0-0.37012-0.29395-0.97803-0.85254-0.97803c-0.51758,0-1.00684,0.58008-1.00684,1.41162
			c0,0.80371,0.42676,1.42578,0.93652,1.42578c0.32813,0,0.55176-0.18896,0.64258-0.28662
			c0.1543-0.16797,0.28027-0.36377,0.28027-0.5874v-0.98535H18.79297z"/>
	</g>
	<line class="st0" x1="1" y1="72.82617" x2="201" y2="72.82617"/>
	<g>
		<path class="st4" d="M54.86816,2.45264c-0.2041,0-0.41992,0.01172-0.62402,0.03564
			c-0.26367,0.03613-0.35938,0.03613-0.46777,0.2041l-2.81836,4.1377v2.72266h1.30762v0.56348
			c-0.45605-0.03613-1.60742-0.03613-2.12305-0.03613c-0.50391,0-1.67969,0-2.11133,0.03613V9.55273h1.2959V6.83008
			l-2.98633-4.37744h-1.17578V1.88867c0.41992,0.03613,1.49902,0.03613,1.97949,0.03613c0.53906,0,1.70215,0,2.19434-0.03613
			v0.56396h-1.01953l2.43457,3.56201l2.24316-3.29834c0.05957-0.07178,0.05957-0.09619,0.08398-0.14404
			c-0.3125-0.11963-0.63574-0.11963-0.91211-0.11963V1.88867c0.44434,0.03613,1.11621,0.03613,1.58301,0.03613l1.36816-0.03613
			v0.56396h-0.25195V2.45264z"/>
		<path class="st4" d="M55.36133,14.09131c-0.2793,0-0.8877,0-1.13184,0.021v-0.2168h0.22363
			c0.62891,0,0.64941-0.0835,0.64941-0.33545V9.93994c-0.36328,0.18213-0.77539,0.18213-0.91504,0.18213v-0.2168
			c0.22363,0,0.83789,0,1.27148-0.44727c0.16113,0,0.16113,0.01416,0.16113,0.18164v3.92041
			c0,0.25879,0.02051,0.33545,0.64941,0.33545h0.22363v0.2168C56.24902,14.09131,55.64063,14.09131,55.36133,14.09131z"/>
	</g>
	<g>
		<path class="st4" d="M129.86816,2.45264c-0.2041,0-0.41992,0.01172-0.62402,0.03564
			c-0.26367,0.03613-0.35938,0.03613-0.46777,0.2041l-2.81836,4.1377v2.72266h1.30762v0.56348
			c-0.45605-0.03613-1.60742-0.03613-2.12305-0.03613c-0.50391,0-1.67969,0-2.11133,0.03613V9.55273h1.2959V6.83008
			l-2.98633-4.37744h-1.17578V1.88867c0.41992,0.03613,1.49902,0.03613,1.97949,0.03613c0.53906,0,1.70215,0,2.19434-0.03613
			v0.56396h-1.01953l2.43457,3.56201l2.24316-3.29834c0.05957-0.07178,0.05957-0.09619,0.08398-0.14404
			c-0.3125-0.11963-0.63574-0.11963-0.91211-0.11963V1.88867c0.44434,0.03613,1.11621,0.03613,1.58301,0.03613l1.36816-0.03613
			v0.56396h-0.25195V2.45264z"/>
		<path class="st4" d="M131.50781,14.1123h-2.59277c0-0.16748,0-0.18164,0.07617-0.25879l1.3418-1.49512
			c0.38477-0.43359,0.73438-0.98584,0.73438-1.54443c0-0.57324-0.30078-1.13916-0.93652-1.13916
			c-0.40527,0-0.7832,0.2583-0.94336,0.7124c0.02051-0.00684,0.03418-0.00684,0.09082-0.00684
			c0.24414,0,0.37012,0.18164,0.37012,0.36328c0,0.28662-0.24414,0.37061-0.36328,0.37061c-0.02148,0-0.37012,0-0.37012-0.3916
			c0-0.62158,0.5166-1.26465,1.30664-1.26465c0.85254,0,1.48145,0.55908,1.48145,1.35596c0,0.69873-0.41895,1.07617-1.50977,2.04053
			l-0.74023,0.71973h1.25781c0.15332,0,0.61426,0,0.66406-0.05615c0.06934-0.10449,0.11816-0.41211,0.15332-0.62158h0.1748
			L131.50781,14.1123z"/>
	</g>
	<g>
		<g>
			<polyline class="st5" points="11,85.82617 11,47.82617 21.9155,47.82617 			"/>
			<g>
				<polygon class="st6" points="18.60201,51.91602 17.91988,51.18359 21.5317,47.82715 17.91988,44.46972 18.60201,43.7373 
					23,47.82715 				"/>
			</g>
		</g>
	</g>
</g>
<g>
	<g>
		<path class="st4" d="M191.00293,53.18262c-0.28613,0-0.50293-0.20996-0.50293-0.5459c0-0.14648,0.02734-0.20898,0.09082-0.38379
			c0.11816-0.34277,0.42578-1.18164,0.42578-1.61426c0-0.11914,0-0.46875-0.32129-0.46875
			c-0.6709,0-1.04785,0.89453-1.08984,1.04883l-0.42676,1.71875c-0.02734,0.11914-0.09766,0.24512-0.25879,0.24512
			c-0.125,0-0.18164-0.08398-0.18164-0.16797c0-0.02832,0-0.03516,0.02832-0.13281l0.50977-2.04102
			c0.02832-0.09766,0.05664-0.25098,0.05664-0.38379c0-0.08398,0-0.28711-0.18164-0.28711
			c-0.23828,0-0.37109,0.41211-0.47559,0.8252c-0.04199,0.16016-0.04883,0.16699-0.12598,0.16699
			c-0.0625,0-0.09766-0.01367-0.09766-0.06934c0,0,0.09082-0.43359,0.22363-0.69238c0.14648-0.2998,0.32813-0.37012,0.48926-0.37012
			c0.32129,0,0.53809,0.25195,0.55859,0.56641c0.23145-0.31445,0.55957-0.56641,0.99316-0.56641
			c0.53809,0,0.69824,0.34277,0.69824,0.71289c0,0.40527-0.2373,1.05566-0.41895,1.56543
			c-0.05566,0.13965-0.13281,0.35645-0.13281,0.52441c0,0.16016,0.05566,0.20898,0.16016,0.20898
			c0.3916,0,0.58008-0.62891,0.64355-0.86621c0.02734-0.10449,0.03516-0.12598,0.11914-0.12598c0.02734,0,0.09082,0,0.09082,0.06348
			C191.87695,52.14063,191.65332,53.18262,191.00293,53.18262z"/>
	</g>
</g>
</svg>
