<?xml version="1.0" encoding="utf-8"?>
<!-- Generator: Adobe Illustrator 23.0.3, SVG Export Plug-In . SVG Version: 6.00 Build 0)  -->
<svg version="1.1" xmlns="http://www.w3.org/2000/svg" xmlns:xlink="http://www.w3.org/1999/xlink" x="0px" y="0px"
	 viewBox="0 0 172.69067 118.37" style="enable-background:new 0 0 172.69067 118.37;" xml:space="preserve">
<style type="text/css">
	.st0{fill:none;stroke:#8FF4DD;stroke-width:2;stroke-linecap:round;stroke-linejoin:round;}
	.st1{fill:none;stroke:#8FF4DD;stroke-width:2;stroke-linecap:round;}
	.st2{fill:#8FF4DD;}
</style>
<g id="Layer_1">
	<g>
		<path class="st0" d="M64.29248,71.53667c2.46227,0,4.45834,1.99606,4.45834,4.45834s-1.99606,4.45833-4.45834,4.45833"/>
		<path class="st1" d="M64.29248,80.45333c2.46227,0,4.45834,1.99606,4.45834,4.45834S66.75475,89.37,64.29248,89.37"/>
		<path class="st1" d="M64.29248,89.37c2.46227,0,4.45834,1.99606,4.45834,4.45833s-1.99606,4.45834-4.45834,4.45834"/>
		<path class="st0" d="M64.29248,98.28667c2.46227,0,4.45834,1.99606,4.45834,4.45834c0,2.46227-1.99606,4.45833-4.45834,4.45833
			V114.37"/>
	</g>
	<g>
		<path class="st0" d="M64.29248,35.53667c2.46227,0,4.45834,1.99606,4.45834,4.45833c0,2.46227-1.99606,4.45834-4.45834,4.45834"/>
		<path class="st1" d="M64.29248,44.45333c2.46227,0,4.45834,1.99606,4.45834,4.45833S66.75475,53.37,64.29248,53.37"/>
		<path class="st1" d="M64.29248,53.37c2.46227,0,4.45834,1.99606,4.45834,4.45834c0,2.46227-1.99606,4.45833-4.45834,4.45833"/>
		<path class="st0" d="M64.29248,62.28667c2.46227,0,4.45834,1.99606,4.45834,4.45834c0,2.46227-1.99606,4.45833-4.45834,4.45833"/>
	</g>
	<g>
		<path class="st0" d="M64.29248,35.20333c2.46227,0,4.45834-1.99606,4.45834-4.45833s-1.99606-4.45833-4.45834-4.45833"/>
		<path class="st1" d="M64.29248,26.28667c2.46227,0,4.45834-1.99606,4.45834-4.45833S66.75475,17.37,64.29248,17.37"/>
		<path class="st1" d="M64.29248,17.37c2.46227,0,4.45834-1.99606,4.45834-4.45833s-1.99606-4.45833-4.45834-4.45833"/>
		<path class="st0" d="M64.29248,8.45333c2.46227,0,4.45834-1.99606,4.45834-4.45833L71.69417,4"/>
	</g>
	<g>
		<path id="path1132_1_" class="st0" d="M69.29248,21.83h14"/>
		<circle class="st0" cx="86.29248" cy="21.83" r="3"/>
	</g>
	<g>
		<path id="path1132_2_" class="st0" d="M69.29248,40h14"/>
		<circle class="st0" cx="86.29248" cy="40" r="3"/>
	</g>
	<g>
		<path id="path1132_3_" class="st0" d="M69.29248,57.83h14"/>
		<circle class="st0" cx="86.29248" cy="57.83" r="3"/>
	</g>
	<g>
		<path id="path1132_4_" class="st0" d="M69.29248,4h14"/>
		<circle class="st0" cx="86.29248" cy="4" r="3"/>
	</g>
	<line class="st0" x1="39.29248" y1="114.37" x2="129.29248" y2="114.37"/>
	<g>
		<path id="path1132_5_" class="st0" d="M38.29248,114.37h-14"/>
		<circle class="st0" cx="21.29248" cy="114.37" r="3"/>
	</g>
	<g>
		<path id="path1132_6_" class="st0" d="M38.29248,17.37h-14"/>
		<circle class="st0" cx="21.29248" cy="17.37" r="3"/>
	</g>
	<g>
		<path id="path1132_8_" class="st0" d="M129.29248,114.37h14"/>
		<circle class="st0" cx="146.29248" cy="114.37" r="3"/>
	</g>
	<g>
		<path id="path1132_9_" class="st0" d="M129.29248,49.37h14"/>
		<circle class="st0" cx="146.29248" cy="49.37" r="3"/>
	</g>
</g>
<g id="Layer_2">
	<line class="st0" x1="38.29248" y1="17.37" x2="64.29248" y2="17.37"/>
	<g>
		<path class="st2" d="M4.32959,64.94642H2.30273v2.85449c0,0.43164,0.02393,0.56396,0.94727,0.56396h0.28809v0.37158
			c-0.41992-0.03613-1.31934-0.03613-1.77539-0.03613c-0.45557,0-1.34326,0-1.7627,0.03613v-0.37158h0.2876
			c0.92334,0,0.94775-0.13232,0.94775-0.56396v-6.32032c0-0.43213-0.02441-0.56396-0.94775-0.56396H0v-0.37158h4.2334
			c1.64307,0,2.83057,1.05518,2.83057,2.23047C7.06396,63.97522,5.76855,64.94642,4.32959,64.94642z M3.92188,60.91663H2.85449
			c-0.56396,0-0.58789,0.08398-0.58789,0.47998v3.23829h1.65527c1.90674,0,1.90674-1.29541,1.90674-1.85938
			C5.82861,62.18811,5.82861,60.91663,3.92188,60.91663z"/>
		<path class="st2" d="M11.60205,64.69447c-0.26416,0-0.51611-0.17969-0.51611-0.51563c0-0.31153,0.24023-0.45557,0.27588-0.46778
			c-0.02393-0.01172-0.04785-0.01172-0.13184-0.01172c-0.91162,0-1.41504,1.06739-1.41504,2.25489v1.84668
			c0,0.43164,0.02393,0.56396,0.91162,0.56396h0.25146v0.37158c-0.47949-0.03613-1.04346-0.03613-1.52295-0.03613l-1.36719,0.03613
			v-0.37158c0.80322,0,0.93555,0,0.93555-0.54004v-3.21436c0-0.5874-0.09619-0.67139-0.93555-0.67139v-0.37158l1.66699-0.13232
			v1.31934c0.16797-0.51563,0.59961-1.31934,1.4751-1.31934c0.51563,0,0.8877,0.34814,0.8877,0.73194
			C12.11768,64.55091,11.81787,64.69447,11.60205,64.69447z"/>
		<path class="st2" d="M14.1709,68.70033l-1.31885,0.03613v-0.37158c0.80322,0,0.93506,0,0.93506-0.54004v-3.22607
			c0-0.58789-0.10791-0.65967-0.88721-0.65967v-0.37158l1.6792-0.13232v4.40186c0,0.46777,0.04785,0.52783,0.83936,0.52783v0.37158
			C15.01074,68.72425,14.59082,68.70033,14.1709,68.70033z M14.11133,62.12806c-0.35986,0-0.63574-0.31201-0.63574-0.63574
			c0-0.2998,0.23975-0.63574,0.64746-0.63574c0.35986,0,0.63574,0.31201,0.63574,0.63574
			C14.75879,61.79212,14.51904,62.12806,14.11133,62.12806z"/>
		<path class="st2" d="M24.19922,68.70033l-1.35498,0.03613v-0.37158c0.80322,0,0.93555,0,0.93555-0.54004V65.0304
			c0-0.68359-0.13232-1.33106-0.8877-1.33106c-0.76758,0-1.61914,0.67139-1.61914,1.91895v2.20654
			c0,0.54004,0.13184,0.54004,0.93555,0.54004v0.37158l-1.34326-0.03613l-1.35547,0.03613v-0.37158
			c0.80371,0,0.93555,0,0.93555-0.54004V65.0304c0-0.68359-0.13184-1.33106-0.88721-1.33106
			c-0.76758,0-1.61914,0.67139-1.61914,1.91895v2.20654c0,0.54004,0.13184,0.54004,0.93555,0.54004v0.37158l-1.34326-0.03613
			l-1.35547,0.03613v-0.37158c0.80371,0,0.93555,0,0.93555-0.54004v-3.21436c0-0.5874-0.09619-0.67139-0.93555-0.67139v-0.37158
			l1.69092-0.13232v1.25928c0.33594-0.74317,0.8999-1.25928,1.77539-1.25928c0.53955,0,1.42725,0.13232,1.59473,1.1753
			c0.2041-0.45557,0.73193-1.1753,1.73926-1.1753c0.6958,0,1.09131,0.24023,1.25928,0.44385
			c0.37158,0.43164,0.37158,0.80371,0.37158,1.83496v2.29102c0.01221,0.35986,0.31201,0.35986,0.93555,0.35986v0.37158
			L24.19922,68.70033z"/>
		<path class="st2" d="M30.59766,68.80824c-0.56396,0-0.8877-0.50342-0.93555-0.9834
			c-0.22803,0.56396-0.77979,1.04346-1.57129,1.04346c-0.75537,0-1.91895-0.2998-1.91895-1.271
			c0-0.52783,0.2998-1.15137,1.19922-1.55957c0.75586-0.35938,1.59521-0.39551,2.20703-0.43164v-0.44385
			c0-1.06738-0.68359-1.53516-1.27148-1.53516c-0.38379,0-0.97119,0.13232-1.29541,0.55176
			c0.55176,0.01221,0.61182,0.40771,0.61182,0.55176c0,0.31201-0.21582,0.55176-0.55176,0.55176
			c-0.31152,0-0.55176-0.2041-0.55176-0.56348c0-0.792,0.82764-1.35547,1.81104-1.35547c0.57568,0,1.17529,0.19189,1.64307,0.65967
			c0.43213,0.44385,0.43213,0.91162,0.43213,1.41504v2.39893c0,0.06006,0.04785,0.59961,0.44336,0.59961
			c0.13232,0,0.43213-0.07178,0.43213-0.76758V66.9972h0.2998v0.67188C31.58105,68.64075,30.84912,68.80824,30.59766,68.80824z
			 M29.57813,65.85804c-1.979,0.07178-2.48291,1.06738-2.48291,1.72705c0,0.59961,0.4917,1.01953,1.07959,1.01953
			c0.53955,0,1.40332-0.40771,1.40332-1.54736V65.85804z"/>
		<path class="st2" d="M35.63818,64.69447c-0.26416,0-0.51611-0.17969-0.51611-0.51563c0-0.31153,0.24023-0.45557,0.27588-0.46778
			c-0.02393-0.01172-0.04785-0.01172-0.13184-0.01172c-0.91162,0-1.41504,1.06739-1.41504,2.25489v1.84668
			c0,0.43164,0.02393,0.56396,0.91162,0.56396h0.25146v0.37158c-0.47949-0.03613-1.04346-0.03613-1.52295-0.03613l-1.36719,0.03613
			v-0.37158c0.80322,0,0.93555,0,0.93555-0.54004v-3.21436c0-0.5874-0.09619-0.67139-0.93555-0.67139v-0.37158l1.66699-0.13232
			v1.31934c0.16797-0.51563,0.59961-1.31934,1.4751-1.31934c0.51563,0,0.8877,0.34814,0.8877,0.73194
			C36.15381,64.55091,35.854,64.69447,35.63818,64.69447z"/>
		<path class="st2" d="M41.46924,64.70667l-2.11084,5.12109c-0.2876,0.68359-0.7793,1.36719-1.53516,1.36719
			c-0.59961,0-1.10303-0.43164-1.10303-0.97119c0-0.35986,0.26367-0.51563,0.50342-0.51563
			c0.27588,0,0.50391,0.19189,0.50391,0.50342c0,0.19189-0.09619,0.45605-0.46777,0.50391
			c0.22803,0.21582,0.50391,0.21582,0.56348,0.21582c0.76758,0,1.10352-0.82764,1.36768-1.4873l0.2998-0.70752l-1.79932-4.37744
			c-0.16797-0.41993-0.39551-0.41993-0.97119-0.41993v-0.37158c0.35986,0.02393,0.83936,0.03564,1.16309,0.03564l1.30762-0.03564
			v0.37158c-0.22803,0-0.67188,0-0.67188,0.31202c0,0.04785,0.02393,0.0957,0.07178,0.21582l1.33154,3.22607l1.21143-2.9502
			c0.05957-0.14404,0.07178-0.16797,0.07178-0.28809c0-0.2998-0.19189-0.50342-0.56348-0.51563v-0.37158l1.04346,0.03564
			c0.27539,0,0.62354-0.01172,0.89941-0.03564v0.37158C42.39307,63.93909,41.78125,63.9513,41.46924,64.70667z"/>
	</g>
	<g>
		<g>
			<polyline class="st0" points="129.29248,49.37 119.29248,49.37 109.79248,39.87 90.81078,39.87 			"/>
			<g>
				<polygon class="st2" points="95.44966,34.14423 96.40465,35.16961 91.3481,39.86863 96.40465,44.56903 95.44966,45.59441 
					89.29248,39.86863 				"/>
			</g>
		</g>
	</g>
	<g>
		<path class="st2" d="M122.84448,83.63172c-1.06738,0-1.83496-0.43164-2.20703-0.83984
			c-0.39551,0.63574-0.43164,0.68457-0.43164,0.68457c-0.08398,0.13184-0.0957,0.15527-0.17969,0.15527
			c-0.13184,0-0.13184-0.08398-0.13184-0.28809V80.9452c0-0.21582,0-0.2998,0.15576-0.2998c0.03564,0,0.13184,0,0.14404,0.12012
			c0.01172,0.43164,0.04785,1.19922,0.74316,1.84668c0.63574,0.58789,1.54736,0.64746,1.89502,0.64746
			c1.00781,0,1.60742-0.86328,1.60742-1.71484c0-0.39551-0.12012-0.79102-0.37207-1.10352
			c-0.33545-0.44336-0.69531-0.52734-1.01953-0.61133c-0.83936-0.2041-1.45117-0.34766-1.58301-0.39551
			c-0.93555-0.32422-1.5708-1.19922-1.5708-2.19531c0-1.27148,1.00732-2.32617,2.33838-2.32617
			c1.06738,0,1.55908,0.49121,1.91895,0.83887l0.41992-0.68359c0.08398-0.14355,0.0957-0.15527,0.17969-0.15527
			c0.13232,0,0.13232,0.08398,0.13232,0.28711v2.41113c0,0.22754,0,0.28809-0.15625,0.28809
			c-0.13184,0-0.13184-0.07227-0.14404-0.14453c-0.07178-0.53906-0.33545-2.50586-2.33838-2.50586
			c-0.93555,0-1.58301,0.73145-1.58301,1.57031c0,0.69629,0.46729,1.34375,1.21094,1.52344l1.53516,0.37207
			c1.00781,0.23926,1.79932,1.22363,1.79932,2.42285C125.20728,82.45692,124.2478,83.63172,122.84448,83.63172z"/>
		<path class="st2" d="M128.8689,83.49989c-1.37939,0-2.63867-1.16309-2.63867-2.77051c0-1.49902,1.10352-2.73438,2.49463-2.73438
			c1.49902,0,2.14648,1.16309,2.14648,2.35059c0,0.25195-0.03564,0.25195-0.2998,0.25195h-3.34619
			c0,0.43164,0,1.22363,0.35986,1.79883c0.27588,0.44434,0.75586,0.80371,1.35547,0.80371c0.11963,0,1.19922,0,1.61914-1.23535
			c0.02393-0.0957,0.04785-0.16797,0.15576-0.16797c0.06006,0,0.15576,0.02441,0.15576,0.14453
			C130.87134,82.16883,130.33179,83.49989,128.8689,83.49989z M128.72485,78.25867c-0.40771,0-1.41553,0.2998-1.4873,2.08691
			h2.84229C130.07983,79.87782,129.96021,78.25867,128.72485,78.25867z"/>
		<path class="st2" d="M134.20874,83.49989c-1.39111,0-2.57861-1.1875-2.57861-2.72266c0-1.4873,1.10352-2.78223,2.60254-2.78223
			c0.92334,0,1.83496,0.46777,1.83496,1.2832c0,0.36035-0.23975,0.56348-0.55176,0.56348
			c-0.33545,0-0.55127-0.23926-0.55127-0.55176c0-0.15527,0.07178-0.51563,0.56348-0.55176
			c-0.41992-0.43164-1.17529-0.44336-1.2832-0.44336c-0.63574,0-1.61914,0.50391-1.61914,2.45898
			c0,1.93066,1.05518,2.44629,1.69092,2.44629c0.44385,0,1.22314-0.14355,1.57129-1.25879
			c0.02393-0.07227,0.04785-0.12012,0.15576-0.12012c0.03613,0,0.15576,0,0.15576,0.12012
			C136.19946,82.06043,135.81567,83.49989,134.20874,83.49989z"/>
		<path class="st2" d="M139.53638,83.49989c-1.40332,0-2.65039-1.15137-2.65039-2.69824c0-1.49902,1.16309-2.80664,2.6626-2.80664
			c1.45117,0,2.65039,1.27148,2.65039,2.80664C142.19897,82.32508,140.98755,83.49989,139.53638,83.49989z M140.89185,79.03797
			c-0.31201-0.51563-0.82764-0.7793-1.35547-0.7793c-0.47949,0-1.04346,0.25195-1.36719,0.80371
			c-0.28809,0.52734-0.28809,1.17578-0.28809,1.64355c0,0.43164,0,1.16309,0.30029,1.69043
			c0.32373,0.55176,0.85107,0.80371,1.36719,0.80371c0.59961,0,1.12695-0.34766,1.39111-0.8877
			c0.26367-0.52734,0.26367-1.1748,0.26367-1.60645C141.20337,80.24989,141.20337,79.55457,140.89185,79.03797z"/>
		<path class="st2" d="M147.62329,83.33192l-1.35547,0.03613v-0.37207c0.80371,0,0.93555,0,0.93555-0.53906v-2.79492
			c0-0.68359-0.13184-1.33105-0.88721-1.33105c-0.76758,0-1.61914,0.67188-1.61914,1.91895v2.20703
			c0,0.53906,0.13184,0.53906,0.93555,0.53906v0.37207l-1.34326-0.03613l-1.35547,0.03613v-0.37207
			c0.80371,0,0.93555,0,0.93555-0.53906v-3.21484c0-0.58789-0.09619-0.6709-0.93555-0.6709V78.1991l1.69092-0.13184v1.25879
			c0.33594-0.74316,0.89941-1.25879,1.77539-1.25879c0.69531,0,1.09131,0.23926,1.25928,0.44336
			c0.37158,0.43164,0.37158,0.80371,0.37158,1.83496v2.29102c0.01221,0.35938,0.31201,0.35938,0.93555,0.35938v0.37207
			L147.62329,83.33192z"/>
		<path class="st2" d="M153.77954,83.49989v-0.79102c-0.2998,0.38379-0.83984,0.79102-1.60742,0.79102
			c-1.36719,0-2.54248-1.1875-2.54248-2.70996c0-1.54785,1.25928-2.72266,2.6748-2.72266c0.64746,0,1.16309,0.31152,1.51074,0.74316
			v-2.59082c0-0.58691-0.0957-0.6709-0.93506-0.6709v-0.37207l1.72705-0.13184v7.28027c0,0.58691,0.0957,0.6709,0.93506,0.6709
			v0.37207L153.77954,83.49989z M153.77954,79.49403c0-0.21582,0-0.23926-0.13184-0.44336
			c-0.37207-0.54004-0.87549-0.71973-1.29541-0.71973c-0.64795,0-1.10352,0.39551-1.35547,0.76758
			c-0.34766,0.54004-0.37158,1.25879-0.37158,1.70313c0,0.49121,0.03564,1.1748,0.34766,1.66699
			c0.28809,0.45605,0.71973,0.76758,1.25928,0.76758c0.51563,0,1.05566-0.26367,1.41553-0.83984
			c0.13184-0.2041,0.13184-0.22754,0.13184-0.44336V79.49403z"/>
		<path class="st2" d="M160.70386,83.44032c-0.56396,0-0.8877-0.50391-0.93555-0.9834
			c-0.22803,0.56348-0.77979,1.04297-1.57129,1.04297c-0.75537,0-1.91895-0.2998-1.91895-1.27148
			c0-0.52734,0.2998-1.15137,1.19922-1.55859c0.75586-0.36035,1.59521-0.39648,2.20703-0.43164v-0.44434
			c0-1.06738-0.68359-1.53516-1.27148-1.53516c-0.38379,0-0.97119,0.13184-1.29541,0.55176
			c0.55176,0.01172,0.61182,0.4082,0.61182,0.55176c0,0.31152-0.21582,0.55176-0.55176,0.55176
			c-0.31152,0-0.55176-0.2041-0.55176-0.56348c0-0.79199,0.82764-1.35547,1.81104-1.35547
			c0.57568,0,1.17529,0.19141,1.64307,0.65918c0.43213,0.44434,0.43213,0.91211,0.43213,1.41602v2.39844
			c0,0.05957,0.04785,0.59961,0.44336,0.59961c0.13232,0,0.43213-0.07227,0.43213-0.76758v-0.67188h0.2998v0.67188
			C161.68726,83.27235,160.95532,83.44032,160.70386,83.44032z M159.68433,80.48914c-1.979,0.07227-2.48291,1.06836-2.48291,1.72754
			c0,0.59961,0.4917,1.01953,1.07959,1.01953c0.53955,0,1.40332-0.4082,1.40332-1.54688V80.48914z"/>
		<path class="st2" d="M165.74438,79.32606c-0.26416,0-0.51611-0.17969-0.51611-0.51563c0-0.31152,0.24023-0.45605,0.27588-0.46777
			c-0.02393-0.01172-0.04785-0.01172-0.13184-0.01172c-0.91162,0-1.41504,1.06738-1.41504,2.25488v1.84668
			c0,0.43164,0.02393,0.56348,0.91162,0.56348h0.25146v0.37207c-0.47949-0.03613-1.04346-0.03613-1.52295-0.03613l-1.36719,0.03613
			v-0.37207c0.80322,0,0.93555,0,0.93555-0.53906v-3.21484c0-0.58789-0.09619-0.6709-0.93555-0.6709V78.1991l1.66699-0.13184
			v1.31934c0.16797-0.51563,0.59961-1.31934,1.4751-1.31934c0.51563,0,0.8877,0.34766,0.8877,0.73145
			S165.96021,79.32606,165.74438,79.32606z"/>
		<path class="st2" d="M171.57495,79.33875l-2.11084,5.12109c-0.2876,0.68359-0.7793,1.36719-1.53516,1.36719
			c-0.59961,0-1.10303-0.43164-1.10303-0.97168c0-0.36035,0.26367-0.51563,0.50342-0.51563
			c0.27588,0,0.50391,0.19141,0.50391,0.50391c0,0.19141-0.09619,0.45508-0.46777,0.50293
			c0.22803,0.21582,0.50391,0.21582,0.56348,0.21582c0.76758,0,1.10352-0.82715,1.36768-1.48633l0.2998-0.70801l-1.79932-4.37793
			c-0.16797-0.41895-0.39551-0.41895-0.97119-0.41895V78.1991c0.35986,0.02344,0.83936,0.03613,1.16309,0.03613l1.30762-0.03613
			v0.37207c-0.22803,0-0.67188,0-0.67188,0.31152c0,0.04785,0.02393,0.0957,0.07178,0.21582l1.33154,3.22656l1.21143-2.95117
			c0.06006-0.14355,0.07178-0.16797,0.07178-0.28711c0-0.2998-0.19189-0.50391-0.56348-0.51563V78.1991l1.04346,0.03613
			c0.27588,0,0.62354-0.0127,0.89941-0.03613v0.37207C172.49878,78.57117,171.88696,78.58289,171.57495,79.33875z"/>
	</g>
	<g>
	</g>
	<g>
	</g>
	<g>
	</g>
	<g>
	</g>
	<g>
	</g>
	<g>
	</g>
	<g>
	</g>
	<g>
	</g>
	<g>
	</g>
	<g>
	</g>
	<g>
	</g>
	<g>
	</g>
</g>
</svg>
