<?xml version="1.0" encoding="utf-8"?>
<!-- Generator: Adobe Illustrator 23.0.3, SVG Export Plug-In . SVG Version: 6.00 Build 0)  -->
<svg version="1.1" id="Layer_1" xmlns="http://www.w3.org/2000/svg" xmlns:xlink="http://www.w3.org/1999/xlink" x="0px" y="0px"
	 viewBox="0 0 205.8 196" style="enable-background:new 0 0 205.8 196;" xml:space="preserve">
<style type="text/css">
	.st0{fill-rule:evenodd;clip-rule:evenodd;fill:#8FF4DD;}
	.st1{fill:none;stroke:#8FF4DD;stroke-width:2;}
	.st2{fill:#8FF4DD;}
	.st3{fill:none;stroke:#8FF4DD;stroke-width:2;stroke-linecap:square;stroke-miterlimit:10;}
	.st4{fill:none;stroke:#8FF4DD;stroke-width:2;stroke-miterlimit:10;}
	.st5{fill:none;stroke:#8FF4DD;stroke-width:4;}
	.st6{fill:none;stroke:#8FF4DD;}
</style>
<g>
	<g>
		<path class="st0" d="M48,58.9l-1.1,1.4c0,0-3.1,3.9-3.1,9.8s3.1,9.8,3.1,9.8l1.1,1.4h-9.5c-1.3,0-4.3,0-7.6-1.3s-7-4.1-9.8-9.4
			l0.7-0.4l-0.7-0.4C26.8,59,35.8,58.9,38.5,58.9H48z M44.7,60.6h-6.3c-2.6,0-10.2-0.1-15.5,9.4c2.6,4.7,5.8,7,8.7,8.2
			c3,1.2,5.5,1.2,6.8,1.2h6.3c-1-1.7-2.6-5-2.6-9.4C42.1,65.6,43.7,62.3,44.7,60.6z"/>
		<line class="st1" x1="8.6" y1="70" x2="22.6" y2="70"/>
		<line class="st1" x1="43.6" y1="64" x2="58.6" y2="64"/>
		<line class="st1" x1="43.6" y1="76" x2="58.6" y2="76"/>
	</g>
	<g>
		<path class="st2" d="M94.7,81.1V58.9H83.3c-6.3,0-11.1,5-11.1,11.1s4.9,11.1,11.1,11.1H94.7z M93.1,79.5h-9.8
			c-5.4,0-9.3-4.2-9.3-9.5s4.1-9.5,9.5-9.5h9.5v19H93.1z"/>
		<line class="st1" x1="72.6" y1="70" x2="58.6" y2="70"/>
		<line class="st1" x1="93.6" y1="76" x2="109.6" y2="76"/>
		<line class="st1" x1="93.6" y1="64" x2="109.6" y2="64"/>
	</g>
	<g>
		<path class="st2" d="M94.7,83.9v22.2H83.3c-6.3,0-11.1-5-11.1-11.1s4.9-11.1,11.1-11.1C83.3,83.9,94.7,83.9,94.7,83.9z M93.1,85.5
			h-9.8c-5.4,0-9.3,4.2-9.3,9.5s4.1,9.5,9.5,9.5h9.5v-19H93.1z"/>
		<line class="st1" x1="72.6" y1="95" x2="58.6" y2="95"/>
		<line class="st1" x1="93.6" y1="89" x2="109.6" y2="89"/>
		<line class="st1" x1="93.6" y1="101" x2="109.6" y2="101"/>
	</g>
	<rect x="93.6" y="30" class="st3" width="80.00001" height="15"/>
	<rect x="112.1" y="124" class="st3" width="35.00001" height="20"/>
	<g>
		<g>
			<path class="st0" d="M94,144.7c1.5-0.89999,1.7-1.3,1.7-1.3v-2L94.3,142.5c0,0-3.9,3.10001-9.8,3.10001s-9.8-3.10001-9.8-3.10001
				l-1.4-1.10001v2c0.5,0.39999,0.9,0.8,1.7,1.2c1.7,1,5,2.7,9.4,2.7C89,147.39999,92.3,145.7,94,144.7z"/>
			<path class="st0" d="M73.5,144.60001l1.4,1.10001c0,0,3.9,3.10001,9.8,3.10001s9.8-3.10001,9.8-3.10001l1.4-1.10001v9.5
				c0,1.3,0,4.3-1.3,7.60001c-1.4,3.3-4.1,7-9.4,9.8l-0.4-0.7l-0.4,0.7c-10.6-5.7-10.7-14.8-10.7-17.39999
				C73.5,154.2,73.5,144.60001,73.5,144.60001z M75.2,147.89999v6.3c0,2.60001-0.1,10.2,9.4,15.5c4.7-2.60001,7-5.8,8.2-8.7
				c1.2-3,1.2-5.5,1.2-6.8v-6.3c-1.7,1-5,2.60001-9.4,2.60001C80.2,150.60001,76.9,148.89999,75.2,147.89999z"/>
		</g>
		<line class="st1" x1="84.6" y1="170" x2="84.6" y2="184"/>
		<line class="st1" x1="78.6" y1="149" x2="78.6" y2="134"/>
		<line class="st1" x1="90.6" y1="149" x2="90.6" y2="134"/>
	</g>
</g>
<g>
	<line class="st3" x1="58.6" y1="70" x2="43.6" y2="70"/>
	<polyline class="st3" points="93.6,38 58.6,38 58.6,64 	"/>
	<line class="st3" x1="58.6" y1="95" x2="58.6" y2="76"/>
	<g>
		<g>
			<polyline class="st3" points="8.6,70 8.6,111 115.6,111 133.60001,111 133.60001,117.8 			"/>
			<g>
				<polygon class="st2" points="131.60001,116.4 133.60001,124 135.60001,116.4 				"/>
			</g>
		</g>
	</g>
	<line class="st1" x1="109.6" y1="76" x2="125.6" y2="76"/>
	<line class="st1" x1="109.6" y1="101" x2="141.60001" y2="101"/>
	<g>
		<g>
			<line class="st4" x1="141.60001" y1="45" x2="141.60001" y2="117.8"/>
			<g>
				<polygon class="st2" points="139.60001,116.4 141.60001,124 143.60001,116.4 				"/>
			</g>
		</g>
	</g>
	<g>
		<g>
			<line class="st4" x1="125.6" y1="45" x2="125.6" y2="117.8"/>
			<g>
				<polygon class="st2" points="123.6,116.4 125.6,124 127.6,116.4 				"/>
			</g>
		</g>
	</g>
	<g>
		<g>
			<line class="st3" x1="117.6" y1="111" x2="117.6" y2="117.8"/>
			<g>
				<polygon class="st2" points="115.6,116.4 117.6,124 119.6,116.4 				"/>
			</g>
		</g>
	</g>
	<line class="st4" x1="157.60001" y1="184" x2="157.60001" y2="45"/>
	<line class="st4" x1="141.60001" y1="144" x2="141.60001" y2="184"/>
	<line class="st4" x1="125.6" y1="144" x2="125.6" y2="184"/>
	<line class="st3" x1="111.6" y1="134" x2="90.6" y2="134"/>
	<polyline class="st3" points="109.6,45 109.6,120 78.6,120 78.6,134 	"/>
	<circle class="st2" cx="109.6" cy="64" r="2.5"/>
	<circle class="st2" cx="125.6" cy="76" r="2.5"/>
	<circle class="st2" cx="109.6" cy="89" r="2.5"/>
	<circle class="st2" cx="141.60001" cy="101" r="2.5"/>
	<circle class="st2" cx="117.6" cy="111" r="2.5"/>
	<line class="st4" x1="8.6" y1="111" x2="8.6" y2="184"/>
	<circle class="st2" cx="8.6" cy="111" r="2.5"/>
	<line class="st5" x1="120.3" y1="0" x2="120.3" y2="29.9"/>
	<line class="st6" x1="126.8" y1="17.9" x2="113.8" y2="10.4"/>
	<line class="st5" x1="146.89999" y1="0" x2="146.89999" y2="29.9"/>
	<line class="st6" x1="153.39999" y1="17.9" x2="140.39999" y2="10.4"/>
	<line class="st1" x1="174.10001" y1="37.5" x2="189.10001" y2="37.5"/>
</g>
<g id="Layer_3">
	<g>
		<path class="st2" d="M108.2,36.4c-0.1-1.4-0.4-1.9-1.9-1.9h-1.2c-0.4,0-0.5,0.1-0.5,0.4v2.6h0.9c0.9,0,1-0.3,1-1.2h0.2v2.6h-0.2
			c0-0.8-0.1-1.2-1-1.2h-0.9v2.5c0,0.4,0,0.5,0.9,0.5h0.3V41c-0.3,0-1.2,0-1.5,0s-1.2,0-1.4,0v-0.3h0.2c0.7,0,0.7-0.1,0.7-0.5v-5.3
			c0-0.4,0-0.5-0.7-0.5h-0.2v-0.3h5.3l0.3,2.2C108.4,36.4,108.2,36.4,108.2,36.4z"/>
		<path class="st2" d="M110.5,41c-1.1,0-2.1-1-2.1-2.2c0-1.3,0.9-2.3,2.1-2.3s2.1,1,2.1,2.3S111.7,41,110.5,41z M111.6,37.3
			c-0.3-0.4-0.7-0.6-1.1-0.6c-0.3,0-0.8,0.2-1.1,0.6c-0.3,0.4-0.3,1.1-0.3,1.4c0,0.4,0,1,0.3,1.5s0.7,0.6,1.1,0.6s0.8-0.2,1.1-0.7
			c0.3-0.5,0.3-1.1,0.3-1.4C111.9,38.3,111.9,37.7,111.6,37.3z"/>
		<path class="st2" d="M116.8,41v-0.9c0,0-0.2,0.4-0.4,0.6c-0.3,0.3-0.7,0.3-0.8,0.3c-0.5,0-0.9-0.1-1.2-0.4
			c-0.3-0.3-0.3-0.7-0.3-1.3v-1.5c0-0.9,0-0.9-0.8-0.9v-0.3l1.4-0.1v3.3c0,0.5,0,1,0.9,1c0.7,0,1.2-0.7,1.2-1.6v-1.8
			c0-0.5-0.1-0.6-0.8-0.6v-0.3l1.4-0.1V40c0,0.5,0.1,0.6,0.8,0.6v0.3L116.8,41z"/>
		<path class="st2" d="M121.5,37.5c-0.2,0-0.4-0.1-0.4-0.4c0-0.3,0.2-0.3,0.2-0.4h-0.1c-0.8,0-1.2,0.9-1.2,1.9v1.6
			c0,0.4,0,0.5,0.7,0.5h0.2V41c-0.2,0-0.9,0-1.2,0c-0.3,0-0.8,0-1.1,0v-0.3c0.6,0,0.8,0,0.8-0.4v-2.7c0-0.5-0.1-0.6-0.8-0.6v-0.3
			l1.3-0.1v1.1l0,0c0.1-0.2,0.4-1.1,1.2-1.1c0.4,0,0.7,0.3,0.7,0.6C121.9,37.4,121.7,37.5,121.5,37.5z"/>
		<path class="st2" d="M122.3,39.1v-0.5h2.6v0.5H122.3z"/>
		<path class="st2" d="M128.39999,41c-0.6,0-1.1-0.4-1.3-0.7l-0.4,0.6h-0.2v-6c0-0.5-0.1-0.6-0.8-0.6V34l1.4-0.1v3.2
			c0.3-0.4,0.8-0.7,1.39999-0.7c1.10001,0,2,1,2,2.2C130.5,40.1,129.5,41,128.39999,41z M128.39999,36.7c-0.5,0-0.9,0.3-1.2,0.6
			c-0.1,0.2-0.1,0.2-0.1,0.4v2.1c0,0.2,0,0.2,0.1,0.4c0.2,0.3,0.5,0.6,1.10001,0.6c0.5,0,0.89999-0.3,1.10001-0.6
			c0.2-0.4,0.3-0.8,0.3-1.4C129.8,36.9,128.7,36.7,128.39999,36.7z"/>
		<path class="st2" d="M132.3,40.9c-0.3,0-0.8,0-1,0v-0.3c0.60001,0,0.8,0,0.8-0.4v-2.7c0-0.5-0.10001-0.5-0.7-0.5v-0.3L132.8,36.6
			v3.7c0,0.4,0,0.4,0.7,0.4V41C133,40.9,132.39999,40.9,132.3,40.9z M132.2,35.4c-0.3,0-0.5-0.2-0.5-0.5s0.2-0.5,0.5-0.5
			c0.2,0,0.5,0.2,0.5,0.5C132.7,35.1,132.5,35.4,132.2,35.4z"/>
		<path class="st2" d="M135.89999,41c-0.5,0-1.3-0.2-1.3-1.3v-2.8h-0.8v-0.2c0.89999,0,1.3-1,1.3-1.9h0.2v1.8h1.39999v0.3h-1.39999
			v2.8c0,0.2,0,1.1,0.7,1.1c0.39999,0,0.7-0.4,0.7-1.1v-0.5h0.2v0.6C136.89999,40.4,136.5,41,135.89999,41z"/>
		<path class="st2" d="M144.60001,41c-0.39999,0-0.7-0.4-0.8-0.8c-0.2,0.5-0.60001,0.9-1.3,0.9c-0.60001,0-1.5-0.3-1.5-1
			c0-0.8,0.8-1.6,2.8-1.6V38c0-0.9-0.60001-1.3-1-1.3s-0.89999,0.2-1.10001,0.6c0.10001,0,0.5,0,0.5,0.4c0,0.2-0.2,0.4-0.39999,0.4
			s-0.39999-0.1-0.39999-0.4c0-0.6,0.60001-1.2,1.39999-1.2C143.2,36.5,143.7,36.6,144,37c0.39999,0.4,0.39999,0.8,0.39999,1.3V40
			c0,0.1,0,0.7,0.39999,0.7c0.10001,0,0.39999-0.1,0.39999-0.6v-0.6h0.2v0.6C145.39999,40.9,144.8,41,144.60001,41z M143.8,38.5
			c-0.39999,0-2.10001,0.1-2.10001,1.5c0,0.5,0.39999,0.8,0.89999,0.8c0.39999,0,1.2-0.3,1.2-1.3v-1H143.8z"/>
		<path class="st2" d="M149.3,41v-0.7C149.2,40.5,148.7,41,148,41c-1.10001,0-2-1-2-2.2c0-1.3,1-2.3,2.2-2.3
			c0.60001,0,1,0.4,1.2,0.6V35c0-0.5-0.10001-0.6-0.8-0.6v-0.3L150,34v6.1c0,0.5,0.10001,0.6,0.8,0.6V41L149.3,41z M149.3,37.7
			c0-0.2,0-0.2-0.10001-0.4s-0.5-0.6-1.10001-0.6c-0.5,0-0.89999,0.3-1.10001,0.6c-0.2,0.3-0.3,0.7-0.3,1.4c0,1.9,1.10001,2,1.3,2
			c0.5,0,0.89999-0.3,1.10001-0.6C149.2,39.9,149.2,39.9,149.2,39.7v-2H149.3z"/>
		<path class="st2" d="M154.8,41v-0.7C154.7,40.5,154.2,41,153.5,41c-1.10001,0-2-1-2-2.2c0-1.3,1-2.3,2.2-2.3
			c0.60001,0,1,0.4,1.2,0.6V35c0-0.5-0.10001-0.6-0.8-0.6v-0.3l1.39999-0.1v6.1c0,0.5,0.10001,0.6,0.8,0.6V41H154.8z M154.8,37.7
			c0-0.2,0-0.2-0.10001-0.4s-0.5-0.6-1.10001-0.6c-0.5,0-0.89999,0.3-1.10001,0.6c-0.2,0.3-0.3,0.7-0.3,1.4c0,1.9,1.10001,2,1.3,2
			c0.5,0,0.89999-0.3,1.10001-0.6C154.7,39.9,154.7,39.9,154.7,39.7v-2H154.8z"/>
		<path class="st2" d="M158.89999,41c-1.10001,0-2.10001-1-2.10001-2.3c0-1.2,0.89999-2.3,2-2.3c1.2,0,1.7,0.9,1.7,1.9
			c0,0.2,0,0.2-0.2,0.2h-2.8v0.2c0,1.7,1,2,1.39999,2s1.10001-0.2,1.3-1.1c0,0,0-0.1,0.10001-0.1s0.10001,0,0.10001,0.1
			C160.5,40,160.10001,41,158.89999,41z M158.8,36.7c-0.3,0-1.2,0.2-1.2,1.7H160C159.89999,38.1,159.8,36.7,158.8,36.7z"/>
		<path class="st2" d="M163.89999,37.5c-0.2,0-0.39999-0.1-0.39999-0.4c0-0.3,0.2-0.3,0.2-0.4h-0.10001c-0.8,0-1.2,0.9-1.2,1.9v1.6
			c0,0.4,0,0.5,0.8,0.5h0.2V41c-0.2,0-0.89999,0-1.2,0s-0.8,0-1.10001,0v-0.3c0.60001,0,0.8,0,0.8-0.4v-2.7
			c0-0.5-0.10001-0.6-0.8-0.6v-0.3l1.3-0.1v1.1l0,0c0.10001-0.2,0.3-1.1,1.2-1.1c0.39999,0,0.7,0.3,0.7,0.6
			C164.3,37.4,164.10001,37.5,163.89999,37.5z"/>
	</g>
	<g>
		<path class="st2" d="M123.9,132.89999h-3.6v-0.2l2-2.3c0.6-0.60001,1.1-1.39999,1.1-2.2c0-0.9-0.5-1.6-1.4-1.6
			c-0.6,0-1.2,0.5-1.4,1.1h0.1c0.3,0,0.5,0.2,0.5,0.5s-0.3,0.5-0.5,0.5c0,0-0.5,0-0.5-0.5c0-0.9,0.7-1.8,1.8-1.8
			c1.2,0,2.1,0.8,2.1,1.89999c0,1-0.6,1.5-2.1,2.89999c-0.3,0.2-0.9,0.89999-1.1,1.10001h1.8c0.3,0,0.9,0,0.9-0.10001
			c0.1-0.2,0.2-0.7,0.2-0.89999h0.2L123.9,132.89999z"/>
		<path class="st2" d="M124.8,131.10001v-0.5h2.6v0.5H124.8z"/>
		<path class="st2" d="M130.8,133c-0.60001,0-1.10001-0.39999-1.3-0.7l-0.39999,0.60001H129v-6c0-0.5-0.10001-0.6-0.8-0.6v-0.3
			l1.39999-0.1v3.2c0.3-0.39999,0.8-0.7,1.39999-0.7c1.10001,0,2,1,2,2.2C133,132.10001,132,133,130.8,133z M130.89999,128.7
			c-0.5,0-0.89999,0.3-1.2,0.60001c-0.10001,0.2-0.10001,0.2-0.10001,0.39999V131.8c0,0.2,0,0.2,0.10001,0.39999
			c0.2,0.3,0.5,0.60001,1.10001,0.60001c0.5,0,0.89999-0.3,1.10001-0.60001c0.2-0.39999,0.3-0.8,0.3-1.39999
			C132.2,128.89999,131.2,128.7,130.89999,128.7z"/>
		<path class="st2" d="M134.7,132.89999c-0.3,0-0.8,0-1,0v-0.3c0.60001,0,0.8,0,0.8-0.39999v-2.7c0-0.5-0.10001-0.5-0.7-0.5v-0.3
			l1.39999-0.10001v3.7c0,0.39999,0,0.39999,0.7,0.39999v0.3C135.39999,132.89999,134.8,132.89999,134.7,132.89999z M134.7,127.4
			c-0.3,0-0.5-0.2-0.5-0.5s0.2-0.5,0.5-0.5c0.2,0,0.5,0.2,0.5,0.5C135.2,127.1,135,127.4,134.7,127.4z"/>
		<path class="st2" d="M138.39999,133c-0.5,0-1.3-0.2-1.3-1.3v-2.8h-0.8v-0.2c0.89999,0,1.3-1,1.3-1.9h0.2v1.8h1.39999v0.3h-1.39999
			v2.8c0,0.2,0,1.10001,0.7,1.10001c0.39999,0,0.7-0.39999,0.7-1.10001v-0.5h0.2V131.8C139.3,132.39999,139,133,138.39999,133z"/>
	</g>
	<g>
		<path class="st2" d="M121.7,142c-0.4,0-0.7-0.39999-0.8-0.8c-0.2,0.5-0.6,0.89999-1.3,0.89999c-0.6,0-1.5-0.3-1.5-1
			c0-0.8,0.8-1.60001,2.8-1.60001V139c0-0.89999-0.6-1.3-1-1.3s-0.9,0.2-1.1,0.60001c0.1,0,0.5,0,0.5,0.39999
			c0,0.2-0.2,0.39999-0.4,0.39999c-0.2,0-0.4-0.10001-0.4-0.39999c0-0.60001,0.6-1.2,1.4-1.2c0.4,0,0.9,0.10001,1.2,0.5
			c0.4,0.39999,0.4,0.8,0.4,1.3v1.7c0,0.10001,0,0.7,0.4,0.7c0.1,0,0.4-0.10001,0.4-0.60001v-0.60001h0.2v0.60001
			C122.5,141.89999,121.9,142,121.7,142z M120.9,139.5c-0.4,0-2.1,0.10001-2.1,1.5c0,0.5,0.4,0.8,0.9,0.8c0.4,0,1.2-0.3,1.2-1.3
			V139.5z"/>
		<path class="st2" d="M126.4,142v-0.7c-0.1,0.2-0.6,0.7-1.3,0.7c-1.1,0-2-1-2-2.2c0-1.3,1-2.3,2.2-2.3c0.6,0,1,0.39999,1.2,0.60001
			V136c0-0.5-0.1-0.60001-0.8-0.60001v-0.3l1.4-0.10001v6.10001c0,0.5,0.1,0.60001,0.8,0.60001v0.3H126.4z M126.4,138.7
			c0-0.2,0-0.2-0.1-0.39999S125.9,137.7,125.2,137.7c-0.5,0-0.9,0.3-1.1,0.60001s-0.3,0.7-0.3,1.39999c0,1.89999,1.1,2,1.3,2
			c0.5,0,0.9-0.3,1.1-0.60001c0.1-0.2,0.1-0.2,0.1-0.39999C126.4,140.8,126.4,138.7,126.4,138.7z"/>
		<path class="st2" d="M131.89999,142v-0.7c-0.10001,0.2-0.60001,0.7-1.3,0.7c-1.10001,0-2-1-2-2.2c0-1.3,1-2.3,2.2-2.3
			c0.60001,0,1,0.39999,1.2,0.60001V136c0-0.5-0.10001-0.60001-0.8-0.60001v-0.3l1.39999-0.10001v6.10001
			c0,0.5,0.10001,0.60001,0.8,0.60001v0.3H131.89999z M131.89999,138.7c0-0.2,0-0.2-0.10001-0.39999
			S131.39999,137.7,130.69998,137.7c-0.5,0-0.89999,0.3-1.10001,0.60001c-0.2,0.3-0.3,0.7-0.3,1.39999c0,1.89999,1.10001,2,1.3,2
			c0.5,0,0.89999-0.3,1.10001-0.60001c0.10001-0.2,0.10001-0.2,0.10001-0.39999v-2H131.89999z"/>
		<path class="st2" d="M136,142c-1.10001,0-2.10001-1-2.10001-2.3c0-1.2,0.89999-2.3,2-2.3c1.2,0,1.7,0.89999,1.7,1.89999
			c0,0.2,0,0.2-0.2,0.2h-2.8v0.2c0,1.7,1,2,1.39999,2s1.10001-0.2,1.3-1.10001c0,0,0-0.10001,0.10001-0.10001
			s0.10001,0,0.10001,0.10001C137.60001,141,137.2,142,136,142z M135.89999,137.7c-0.3,0-1.2,0.2-1.2,1.7h2.39999
			C137,139.10001,136.89999,137.7,135.89999,137.7z"/>
		<path class="st2" d="M141,138.5c-0.2,0-0.39999-0.10001-0.39999-0.39999c0-0.3,0.2-0.3,0.2-0.39999H140.7
			c-0.8,0-1.2,0.89999-1.2,1.89999v1.60001c0,0.39999,0,0.5,0.8,0.5h0.2v0.3c-0.2,0-0.89999,0-1.2,0s-0.8,0-1.10001,0v-0.3
			c0.60001,0,0.8,0,0.8-0.39999v-2.7c0-0.5-0.10001-0.60001-0.8-0.60001v-0.3l1.3-0.10001v1.10001l0,0
			c0.10001-0.2,0.39999-1.10001,1.2-1.10001c0.39999,0,0.7,0.3,0.7,0.60001C141.39999,138.39999,141.2,138.5,141,138.5z"/>
	</g>
</g>
<g id="Layer_4">
	<g>
		<path class="st2" d="M129.39999,21.1v0.5c0,0.2,0,0.3,0.39999,0.3h0.10001v0.2c-0.10001,0-0.60001,0-0.8,0s-0.60001,0-0.8,0v-0.2
			h0.10001c0.39999,0,0.5-0.1,0.5-0.3v-0.5h-1.6v-0.2l1.8-2.8c0-0.1,0.10001-0.1,0.10001-0.1C129.3,18,129.3,18,129.3,18.1v2.7
			h0.60001V21C130,21.1,129.39999,21.1,129.39999,21.1z M129,18.6l-1.5,2.3h1.5V18.6z"/>
	</g>
	<g>
		<path class="st2" d="M156.39999,21.1v0.5c0,0.2,0,0.3,0.39999,0.3h0.10001v0.2c-0.10001,0-0.60001,0-0.8,0s-0.60001,0-0.8,0v-0.2
			h0.10001c0.39999,0,0.5-0.1,0.5-0.3v-0.5h-1.60001v-0.2l1.8-2.8c0-0.1,0.10001-0.1,0.10001-0.1C156.3,18,156.3,18,156.3,18.1v2.7
			h0.60001V21h-0.50002V21.1z M156,18.6l-1.5,2.3h1.5V18.6z"/>
	</g>
	<path class="st2" d="M199.8,33.5c0,0,0-0.1-0.10001-0.1c0,0,0,0-0.2,0.1l-0.7,0.8c-0.10001-0.1-0.5-0.9-1.60001-0.9
		c-2.2,0-4.39999,2.2-4.39999,4.5c0,1.6,1.2,2.7,2.7,2.7c0.89999,0,1.60001-0.4,2.10001-0.9c0.89999-0.8,1.10001-1.7,1.10001-1.7
		c0-0.1-0.10001-0.1-0.10001-0.1C198.5,37.9,198.5,37.9,198.5,38c-0.10001,0.3-0.3,1-1,1.6s-1.3,0.7-1.8,0.7
		C194.8,40.3,193.8,39.8,193.8,38.2c0-0.6,0.2-2.2,1.2-3.3c0.60001-0.7,1.5-1.2,2.39999-1.2c1,0,1.60001,0.8,1.60001,1.9
		c0,0.4,0,0.4,0,0.5s0.10001,0.1,0.10001,0.1c0.10001,0,0.10001,0,0.2-0.2L199.8,33.5"/>
	<path class="st2" d="M199.7,38.9v0.3c0.39999,0,0.5,0,0.5,0.4v1.8c0,0.3-0.10001,0.3-0.5,0.3V42c0,0,0.5,0,0.8,0c0.2,0,0.5,0,0.7,0
		v-0.3c-0.39999,0-0.5,0-0.5-0.3v-2.6L199.7,38.9 M200.8,37.6c0-0.2-0.2-0.4-0.39999-0.4s-0.39999,0.2-0.39999,0.4
		c0,0.3,0.2,0.4,0.39999,0.4S200.8,37.8,200.8,37.6z"/>
	<path class="st2" d="M205.2,39.8c0-0.6-0.3-1-1.10001-1c-0.60001,0-0.89999,0.3-1.10001,0.7l0,0v-0.7l-1,0.1v0.3
		c0.5,0,0.5,0,0.5,0.4v1.8c0,0.3-0.10001,0.3-0.5,0.3V42c0,0,0.5,0,0.8,0s0.7,0,0.8,0v-0.3c-0.5,0-0.5,0-0.5-0.3v-1.3
		c0-0.7,0.60001-1.1,1-1.1c0.5,0,0.60001,0.4,0.60001,0.7v1.6c0,0.3-0.10001,0.3-0.5,0.3v0.3c0,0,0.5,0,0.8,0s0.7,0,0.8,0v-0.3
		c-0.5,0-0.5,0-0.5-0.3v-1.5"/>
	<path class="st2" d="M7.1,187.5c0,0,0-0.10001-0.1-0.10001c0,0,0,0-0.2,0.10001l-0.7,0.8C6,188.2,5.6,187.40001,4.5,187.40001
		c-2.2,0-4.4,2.2-4.4,4.5c0,1.60001,1.2,2.7,2.7,2.7c0.9,0,1.6-0.39999,2.1-0.89999c0.9-0.8,1.1-1.7,1.1-1.7
		c0-0.10001-0.1-0.10001-0.1-0.10001c-0.1,0-0.1,0-0.1,0.10001c-0.1,0.3-0.3,1-1,1.60001s-1.3,0.7-1.8,0.7
		c-0.9,0-1.9-0.5-1.9-2.10001c0-0.60001,0.2-2.2,1.2-3.3c0.6-0.7,1.5-1.2,2.4-1.2c1,0,1.6,0.8,1.6,1.89999
		c0,0.39999,0,0.39999,0,0.5s0.1,0.10001,0.2,0.10001s0.1,0,0.2-0.2L7.1,187.5"/>
	<path class="st2" d="M8.6,195.8c-0.3,0-0.6-0.10001-0.9-0.39999c-0.2-0.3-0.2-0.7-0.2-1s0-0.7,0.3-1
		c0.2-0.2,0.5-0.39999,0.8-0.39999c0.4,0,0.7,0.2,0.9,0.39999c0.2,0.3,0.2,0.60001,0.2,1c0,0.3,0,0.7-0.2,1
		C9.3,195.60001,8.9,195.8,8.6,195.8 M10.3,194.39999c0-0.89999-0.8-1.60001-1.7-1.60001s-1.7,0.8-1.7,1.60001
		C6.9,195.29999,7.7,196,8.6,196S10.3,195.3,10.3,194.39999z"/>
	<path class="st2" d="M13,192.89999v0.3c0.5,0,0.5,0.10001,0.5,0.39999v1.2c0,0.60001-0.4,1-0.9,1c-0.6,0-0.7-0.3-0.7-0.7v-2.3
		l-1.1,0.10001v0.3c0.5,0,0.5,0,0.5,0.60001v1.10001c0,0.5,0,1.10001,1.2,1.10001c0.2,0,0.7,0,1-0.60001l0,0v0.60001l1.1-0.10001
		v-0.3c-0.5,0-0.5,0-0.5-0.39999v-2.5L13,192.89999"/>
	<path class="st2" d="M16.4,193.10001h1.1v-0.3h-1.1v-1.3h-0.2c0,0.60001-0.3,1.3-1,1.39999v0.2h0.7v1.89999
		c0,0.8,0.6,0.89999,1,0.89999c0.5,0,0.8-0.39999,0.8-1v-0.39999h-0.2v0.39999c0,0.5-0.2,0.7-0.5,0.7c-0.5,0-0.5-0.60001-0.5-0.7
		L16.4,193.10001"/>
	<path class="st2" d="M112.4,19.3l-0.8-2c0-0.1,0-0.1,0-0.1c0-0.1,0.2-0.2,0.6-0.3c0.1,0,0.2,0,0.2-0.2c0-0.1-0.1-0.1-0.2-0.1
		c-0.4,0-0.8,0-1.3,0c-0.2,0-0.9,0-1.1,0c-0.1,0-0.2,0-0.2,0.2c0,0.1,0.1,0.1,0.2,0.1c0.6,0,0.7,0.1,0.7,0.3l1.2,2.8l-2.1,2.3
		l-0.1,0.1c-0.5,0.5-1,0.7-1.5,0.7c-0.1,0-0.2,0-0.2,0.2c0,0,0,0.1,0.1,0.1c0.3,0,0.6,0,0.9,0c0.4,0,0.8,0,1.1,0
		c0.1,0,0.2,0,0.2-0.2c0-0.1-0.1-0.1-0.1-0.1c-0.1,0-0.4,0-0.4-0.3c0-0.2,0.1-0.3,0.3-0.4l1-1.1l0.9-1l1,2.4c0,0.1,0.1,0.1,0.1,0.1
		c0,0.1-0.2,0.2-0.6,0.3c-0.1,0-0.2,0-0.2,0.2c0,0.1,0.1,0.1,0.1,0.1c0.3,0,1,0,1.3,0c0.2,0,0.9,0,1.1,0c0.1,0,0.2,0,0.2-0.2
		c0-0.1-0.1-0.1-0.2-0.1c-0.7,0-0.7,0-0.9-0.4c-0.4-0.9-1.1-2.5-1.3-3.1c0.7-0.7,1.7-1.9,2-2.2c0.3-0.2,0.7-0.5,1.3-0.5
		c0.1,0,0.2,0,0.2-0.2c0,0,0-0.1-0.1-0.1c-0.3,0-0.6,0-0.9,0c-0.4,0-0.7,0-1.1,0c-0.1,0-0.2,0-0.2,0.2c0,0.1,0,0.1,0.1,0.1
		s0.4,0,0.4,0.3c0,0.1-0.1,0.3-0.2,0.4L112.4,19.3"/>
	<path class="st2" d="M141.60001,17.8l0.10001-0.1c0.3-0.3,0.60001-0.6,1.3-0.7c0.10001,0,0.2,0,0.2-0.2c0-0.1,0-0.1-0.10001-0.1
		c-0.3,0-0.5,0-0.8,0s-0.7,0-1,0c-0.10001,0-0.2,0-0.2,0.2c0,0.1,0.10001,0.1,0.10001,0.1c0.10001,0,0.39999,0,0.39999,0.2
		s-0.2,0.4-0.3,0.5l-2.3,2.7l-1.10001-3c-0.10001-0.1-0.10001-0.2-0.10001-0.2c0-0.2,0.5-0.2,0.60001-0.2s0.2,0,0.2-0.2
		c0-0.1-0.10001-0.1-0.10001-0.1c-0.3,0-1,0-1.3,0c-0.2,0-0.89999,0-1.10001,0c-0.10001,0-0.2,0-0.2,0.2c0,0.1,0.10001,0.1,0.2,0.1
		c0.60001,0,0.60001,0.1,0.7,0.3l1.2,3.3c0,0,0,0.1,0,0.2c0,0-0.39999,1.6-0.39999,1.8c-0.10001,0.5-0.10001,0.6-0.89999,0.6
		c-0.2,0-0.3,0-0.3,0.2c0,0.1,0.10001,0.1,0.10001,0.1c0.3,0,1,0,1.3,0s1,0,1.3,0c0.10001,0,0.2,0,0.2-0.2
		c0-0.1-0.10001-0.1-0.3-0.1c0,0-0.2,0-0.39999,0s-0.3,0-0.3-0.2c0-0.1,0.10001-0.4,0.10001-0.6l0.3-1.4
		C138.8,20.8,138.8,20.8,138.8,20.7L141.60001,17.8"/>
	<path class="st2" d="M86.2,25.5c0,0,0-0.1-0.1-0.1c0,0,0,0-0.2,0.1l-0.7,0.8c-0.1-0.1-0.5-0.9-1.6-0.9c-2.2,0-4.4,2.2-4.4,4.5
		c0,1.6,1.2,2.7,2.7,2.7c0.9,0,1.6-0.4,2.1-0.9c0.9-0.7,1-1.6,1-1.7s-0.1-0.1-0.1-0.1c-0.1,0-0.1,0-0.1,0.1c-0.1,0.3-0.3,1-1,1.6
		s-1.3,0.7-1.8,0.7c-0.9,0-1.9-0.5-1.9-2.1c0-0.6,0.2-2.2,1.2-3.3c0.6-0.7,1.5-1.2,2.4-1.2c1,0,1.6,0.8,1.6,1.9c0,0.4,0,0.4,0,0.5
		s0.1,0.1,0.2,0.1s0.1,0,0.2-0.2L86.2,25.5"/>
	<path class="st2" d="M88.1,29.5c0-0.2,0-0.2-0.2-0.2c-0.4,0.4-1.1,0.4-1.4,0.4V30c0.2,0,0.6,0,1-0.2v3.6c0,0.2,0,0.3-0.7,0.3h-0.3
		V34c0.1,0,1,0,1.3,0c0.2,0,1.1,0,1.3,0v-0.3h-0.3c-0.7,0-0.7-0.1-0.7-0.3L88.1,29.5"/>
	<path class="st2" d="M106.9,136.5c0,0,0-0.10001-0.1-0.10001c0,0,0,0-0.1,0.10001l-0.7,0.8c-0.1-0.10001-0.5-0.89999-1.6-0.89999
		c-2.2,0-4.4,2.2-4.4,4.5c0,1.60001,1.2,2.7,2.7,2.7c0.9,0,1.6-0.39999,2.1-0.89999c0.9-0.8,1.1-1.7,1.1-1.7
		c0-0.10001-0.1-0.10001-0.1-0.10001c-0.1,0-0.1,0-0.1,0.10001c-0.1,0.3-0.3,1-1,1.60001s-1.3,0.7-1.8,0.7
		c-0.9,0-1.9-0.5-1.9-2.10001c0-0.60001,0.2-2.2,1.2-3.3c0.6-0.7,1.5-1.2,2.4-1.2c1,0,1.6,0.8,1.6,1.89999
		c0,0.39999,0,0.39999,0,0.5s0.1,0.10001,0.2,0.10001s0.1,0,0.2-0.2L106.9,136.5"/>
	<path class="st2" d="M109.9,143.60001h-0.2c0,0.2-0.1,0.60001-0.2,0.60001s-0.6,0-0.7,0h-1.3c0.7-0.7,1-0.89999,1.4-1.2
		c0.5-0.39999,1-0.89999,1-1.5c0-0.89999-0.7-1.39999-1.6-1.39999s-1.5,0.60001-1.5,1.3c0,0.39999,0.3,0.39999,0.4,0.39999
		c0.2,0,0.4-0.10001,0.4-0.39999c0-0.10001,0-0.39999-0.4-0.39999c0.2-0.5,0.7-0.7,1-0.7c0.7,0,1.1,0.5,1.1,1.10001
		s-0.4,1.10001-0.7,1.39999l-1.7,1.7c-0.1,0.10001-0.1,0.10001-0.1,0.3h2.9L109.9,143.60001"/>
	<g>
		<path class="st2" d="M164.2,47v-0.1c0-0.1,0-0.1-0.2-0.1h-3.2c-0.2,0-0.2,0-0.2,0.2l-0.39999,1.4v0.1c0,0,0,0.1,0.10001,0.1
			s0.10001-0.1,0.10001-0.1c0.3-0.9,0.7-1.4,1.89999-1.4h1.2l-4.2,4.7v0.1c0,0.1,0.10001,0.1,0.2,0.1h3.3c0.2,0,0.2,0,0.2-0.2
			l0.5-1.7V50c0,0,0-0.1-0.10001-0.1S163.3,49.9,163.3,50.1c-0.3,1-0.7,1.6-2,1.6H160L164.2,47"/>
		<path class="st2" d="M165.39999,53.1c-0.2,0-0.60001-0.1-0.7-0.6c-0.10001-0.3-0.10001-0.8-0.10001-1.1c0-0.4,0-0.8,0.10001-1.1
			c0.10001-0.4,0.5-0.5,0.7-0.5c0.3,0,0.60001,0.2,0.7,0.5C166.2,50.6,166.2,51,166.2,51.4c0,0.4,0,0.8-0.10001,1.1
			C166,52.9,165.60001,53.1,165.39999,53.1 M166.60001,51.4c0-0.6-0.10001-1-0.3-1.4c-0.2-0.2-0.5-0.5-0.89999-0.5
			c-1.2,0-1.2,1.5-1.2,1.8s0,1.8,1.2,1.8C166.60001,53.2,166.60001,51.8,166.60001,51.4z"/>
	</g>
	<g>
		<path class="st2" d="M148.39999,47.1V47c0-0.1,0-0.1-0.2-0.1H145c-0.2,0-0.2,0-0.2,0.2l-0.39999,1.4v0.1c0,0,0,0.1,0.10001,0.1
			s0.10001-0.1,0.10001-0.1c0.3-0.9,0.7-1.4,1.89999-1.4h1.2l-4.2,4.7V52c0,0.1,0.10001,0.1,0.2,0.1h3.3c0.2,0,0.2,0,0.2-0.2
			l0.5-1.7v-0.1c0,0,0-0.1-0.10001-0.1S147.5,50,147.5,50.2c-0.3,1-0.7,1.6-2,1.6h-1.3L148.39999,47.1"/>
		<path class="st2" d="M149.89999,49.8c0-0.1,0-0.1-0.2-0.1c-0.3,0.3-0.8,0.3-1,0.3v0.2c0.10001,0,0.5,0,0.8-0.1v2.7
			c0,0.2,0,0.2-0.5,0.2h-0.2v0.2c0.10001,0,0.8,0,0.89999,0c0.2,0,0.8,0,1,0V53h-0.2c-0.5,0-0.5-0.1-0.5-0.2v-3"/>
	</g>
	<g>
		<path class="st2" d="M132.3,47.1V47c0-0.1,0-0.1-0.2-0.1H129c-0.2,0-0.2,0-0.2,0.2l-0.39999,1.4v0.1c0,0,0,0.1,0.10001,0.1
			s0.10001-0.1,0.10001-0.1c0.3-0.9,0.7-1.4,1.89999-1.4h1.2l-4.2,4.7V52c0,0.1,0.1,0.1,0.2,0.1h3.3c0.2,0,0.2,0,0.2-0.2l0.5-1.7
			v-0.1c0,0,0-0.1-0.10001-0.1S131.5,50,131.5,50.2c-0.3,1-0.7,1.6-2,1.6h-1.3L132.3,47.1"/>
		<path class="st2" d="M134.8,52.2h-0.2c0,0.1-0.10001,0.4-0.10001,0.5H134h-1c0.60001-0.5,0.7-0.6,1.10001-0.9
			c0.39999-0.3,0.8-0.6,0.8-1.2c0-0.6-0.60001-1-1.2-1c-0.7,0-1.10001,0.5-1.10001,1c0,0.3,0.2,0.3,0.3,0.3s0.3-0.1,0.3-0.3
			c0-0.1,0-0.3-0.3-0.3c0.2-0.4,0.5-0.5,0.8-0.5c0.5,0,0.8,0.4,0.8,0.8c0,0.5-0.3,0.8-0.5,1l-1.3,1.3
			c-0.10001,0-0.10001,0.1-0.10001,0.2h2.2V52.2"/>
	</g>
	<g>
		<path class="st2" d="M116.2,47v-0.1c0-0.1,0-0.1-0.2-0.1h-3.2c-0.2,0-0.2,0-0.2,0.2l-0.4,1.4v0.1c0,0,0,0.1,0.1,0.1
			s0.1-0.1,0.1-0.1c0.3-0.9,0.7-1.4,1.9-1.4h1.2l-4.2,4.7v0.1c0,0.1,0.1,0.1,0.2,0.1h3.3c0.2,0,0.2,0,0.2-0.2l0.5-1.7V50
			c0,0,0-0.1-0.1-0.1s-0.1,0-0.1,0.2c-0.3,1-0.7,1.6-2,1.6H112L116.2,47"/>
		<path class="st2" d="M117.5,51.3c0.4,0,0.7,0.3,0.7,0.9c0,0.7-0.4,0.9-0.7,0.9c-0.2,0-0.7-0.1-0.9-0.4c0.3,0,0.3-0.2,0.3-0.3
			c0-0.2-0.1-0.3-0.3-0.3c-0.1,0-0.3,0.1-0.3,0.3c0,0.5,0.6,0.8,1.2,0.8c0.7,0,1.3-0.5,1.3-1c0-0.4-0.3-0.8-0.9-1
			c0.6-0.2,0.8-0.6,0.8-0.9c0-0.4-0.5-0.7-1.1-0.7s-1,0.3-1,0.7c0,0.2,0.1,0.3,0.3,0.3c0.2,0,0.3-0.1,0.3-0.3s-0.1-0.3-0.3-0.3
			c0.2-0.2,0.6-0.3,0.8-0.3c0.2,0,0.6,0.1,0.6,0.6c0,0.2-0.1,0.5-0.2,0.6c-0.2,0.2-0.3,0.2-0.6,0.2c-0.1,0-0.1,0-0.2,0
			c0,0-0.1,0-0.1,0.1s0,0.1,0.1,0.1L117.5,51.3"/>
	</g>
	<path class="st2" d="M159.3,186.5c0,0,0-0.10001-0.10001-0.10001s-0.10001,0-0.2,0.10001l-0.5,0.60001
		c-0.3-0.5-0.8-0.7-1.39999-0.7c-1.3,0-2.5,1.10001-2.5,2.3c0,0.8,0.5,1.3,1,1.39999l1.10001,0.3
		c0.39999,0.10001,0.89999,0.2,0.89999,1.10001c0,0.89999-0.8,1.8-1.8,1.8c-0.60001,0-1.7-0.2-1.7-1.5
		c0-0.2,0.10001-0.5,0.10001-0.5v-0.10001c0-0.10001-0.10001-0.10001-0.10001-0.10001c-0.10001,0-0.10001,0-0.10001,0l-0.60001,2.3
		c0,0.10001,0,0.10001,0.10001,0.10001c0,0,0.10001,0,0.2-0.10001l0.5-0.60001c0.39999,0.60001,1.10001,0.7,1.7,0.7
		c1.39999,0,2.5-1.3,2.5-2.60001c0-0.7-0.3-1-0.5-1.2s-0.39999-0.3-1.3-0.5c-0.2-0.10001-0.60001-0.2-0.7-0.2
		c-0.3-0.10001-0.60001-0.39999-0.60001-0.89999c0-0.8,0.8-1.60001,1.7-1.60001c0.8,0,1.39999,0.39999,1.39999,1.5
		c0,0.3,0,0.5,0,0.60001c0,0,0,0.10001,0.10001,0.10001s0.10001,0,0.10001-0.2L159.3,186.5"/>
	<path class="st2" d="M161,194.89999c-0.3,0-0.8-0.2-0.89999-0.8C160,193.7,160,193.09999,160,192.59999s0-1,0.10001-1.39999
		c0.10001-0.60001,0.60001-0.7,0.89999-0.7c0.39999,0,0.7,0.2,0.89999,0.60001C162,191.5,162,192,162,192.60001
		c0,0.5,0,1-0.10001,1.5C161.7,194.7,161.3,194.89999,161,194.89999 M162.60001,192.7c0-0.8-0.10001-1.3-0.39999-1.8
		c-0.2-0.3-0.7-0.60001-1.2-0.60001c-1.60001,0-1.60001,1.89999-1.60001,2.39999s0,2.39999,1.60001,2.39999
		S162.60001,193.2,162.60001,192.7z"/>
	<path class="st2" d="M143.39999,186.5c0,0,0-0.10001-0.10001-0.10001s-0.10001,0-0.2,0.10001l-0.5,0.60001
		c-0.3-0.5-0.8-0.7-1.39999-0.7c-1.3,0-2.5,1.10001-2.5,2.3c0,0.8,0.5,1.3,1,1.39999l1.10001,0.3
		c0.39999,0.10001,0.89999,0.2,0.89999,1.10001c0,0.89999-0.8,1.8-1.8,1.8c-0.60001,0-1.7-0.2-1.7-1.5
		c0-0.2,0.10001-0.5,0.10001-0.5v-0.10001c0-0.10001-0.10001-0.10001-0.10001-0.10001c-0.10001,0-0.10001,0-0.10001,0l-0.60001,2.3
		c0,0.10001,0,0.10001,0.10001,0.10001c0,0,0.10001,0,0.2-0.10001l0.5-0.60001c0.39999,0.60001,1.10001,0.7,1.7,0.7
		c1.39999,0,2.5-1.3,2.5-2.60001c0-0.7-0.3-1-0.5-1.2s-0.39999-0.3-1.3-0.5c-0.2-0.10001-0.60001-0.2-0.7-0.2
		c-0.3-0.10001-0.60001-0.39999-0.60001-0.89999c0-0.8,0.8-1.60001,1.7-1.60001c0.8,0,1.39999,0.39999,1.39999,1.5
		c0,0.3,0,0.5,0,0.60001c0,0,0,0.10001,0.10001,0.10001s0.10001,0,0.10001-0.2L143.39999,186.5"/>
	<path class="st2" d="M145.5,190.5c0-0.2,0-0.2-0.2-0.2C144.90001,190.7,144.2,190.7,143.90001,190.7v0.3c0.2,0,0.60001,0,1-0.2
		v3.60001c0,0.2,0,0.3-0.7,0.3h-0.3v0.3c0.10001,0,1,0,1.3,0c0.2,0,1.10001,0,1.3,0v-0.3h-0.3c-0.7,0-0.7-0.10001-0.7-0.3V190.5"/>
	<path class="st2" d="M127.3,186.5c0,0,0-0.10001-0.1-0.10001s-0.1,0-0.2,0.10001l-0.5,0.60001c-0.3-0.5-0.8-0.7-1.4-0.7
		c-1.3,0-2.5,1.10001-2.5,2.3c0,0.8,0.5,1.3,1,1.39999l1.1,0.3c0.4,0.10001,0.9,0.2,0.9,1.10001c0,0.89999-0.8,1.8-1.8,1.8
		c-0.6,0-1.7-0.2-1.7-1.5c0-0.2,0.1-0.5,0.1-0.5v-0.10001c0-0.10001-0.1-0.10001-0.1-0.10001c-0.1,0-0.1,0-0.1,0l-0.6,2.3
		c0,0.10001,0,0.10001,0.1,0.10001c0,0,0.1,0,0.2-0.10001l0.5-0.60001c0.4,0.60001,1.1,0.7,1.7,0.7c1.4,0,2.5-1.3,2.5-2.60001
		c0-0.7-0.3-1-0.5-1.2s-0.4-0.3-1.3-0.5c-0.2-0.10001-0.6-0.2-0.7-0.2c-0.3-0.10001-0.6-0.39999-0.6-0.89999
		c0-0.8,0.8-1.60001,1.7-1.60001c0.8,0,1.4,0.39999,1.4,1.5c0,0.3,0,0.5,0,0.60001c0,0,0,0.10001,0.1,0.10001s0.1,0,0.1-0.2
		L127.3,186.5"/>
	<path class="st2" d="M130.60001,193.60001h-0.2c0,0.2-0.10001,0.60001-0.2,0.60001c-0.10001,0-0.60001,0-0.7,0h-1.3
		c0.7-0.7,1-0.89999,1.39999-1.2c0.5-0.39999,1-0.89999,1-1.5c0-0.89999-0.7-1.39999-1.60001-1.39999
		c-0.89999,0-1.5,0.60001-1.5,1.3c0,0.39999,0.3,0.39999,0.4,0.39999c0.2,0,0.4-0.10001,0.4-0.39999
		c0-0.10001,0-0.39999-0.4-0.39999c0.2-0.5,0.7-0.7,0.99999-0.7c0.7,0,1.10001,0.5,1.10001,1.10001s-0.39999,1.10001-0.7,1.39999
		l-1.7,1.7c-0.1,0.10001-0.1,0.10001-0.1,0.3h2.9L130.60001,193.60001"/>
	<path class="st2" d="M86.3,186c0,0,0-0.10001-0.1-0.10001s-0.1,0-0.2,0.10001l-0.5,0.60001c-0.3-0.5-0.8-0.7-1.4-0.7
		c-1.3,0-2.5,1.10001-2.5,2.3c0,0.8,0.5,1.3,1,1.39999l1.1,0.3c0.4,0.10001,0.9,0.2,0.9,1.10001c0,0.89999-0.8,1.8-1.8,1.8
		c-0.6,0-1.7-0.2-1.7-1.5c0-0.2,0.1-0.5,0.1-0.5v-0.10001c0-0.10001-0.1-0.10001-0.1-0.10001c-0.1,0-0.1,0-0.1,0l-0.6,2.3
		c0,0.10001,0,0.10001,0.1,0.10001c0,0,0.1,0,0.2-0.10001L81.2,192.3c0.4,0.60001,1.1,0.7,1.7,0.7c1.4,0,2.5-1.3,2.5-2.60001
		c0-0.7-0.3-1-0.5-1.2s-0.4-0.3-1.3-0.5c-0.2-0.10001-0.6-0.2-0.7-0.2c-0.3-0.10001-0.6-0.39999-0.6-0.89999
		c0-0.8,0.8-1.60001,1.7-1.60001c0.8,0,1.4,0.39999,1.4,1.5c0,0.3,0,0.5,0,0.60001c0,0,0,0.10001,0.1,0.10001s0.1,0,0.1-0.2
		L86.3,186"/>
	<path class="st2" d="M87.9,192c0.5,0,0.9,0.39999,0.9,1.10001c0,0.89999-0.5,1.10001-0.9,1.10001c-0.3,0-0.9-0.10001-1.2-0.5
		c0.3,0,0.4-0.2,0.4-0.39999s-0.2-0.39999-0.4-0.39999c-0.2,0-0.4,0.10001-0.4,0.39999c0,0.7,0.7,1.10001,1.6,1.10001
		c1,0,1.7-0.7,1.7-1.39999c0-0.5-0.4-1.10001-1.2-1.3c0.7-0.3,1-0.8,1-1.2c0-0.60001-0.6-1-1.4-1s-1.4,0.39999-1.4,0.89999
		c0,0.2,0.2,0.39999,0.4,0.39999c0.2,0,0.4-0.2,0.4-0.39999s-0.1-0.39999-0.4-0.39999c0.2-0.3,0.7-0.39999,1-0.39999
		s0.8,0.2,0.8,0.8c0,0.3-0.1,0.60001-0.3,0.8c-0.2,0.3-0.4,0.3-0.8,0.3c-0.2,0-0.2,0-0.2,0s-0.1,0-0.1,0.10001
		s0.1,0.10001,0.2,0.10001h0.3"/>
</g>
</svg>
