<?xml version="1.0" encoding="utf-8"?>
<!-- Generator: Adobe Illustrator 23.0.3, SVG Export Plug-In . SVG Version: 6.00 Build 0)  -->
<svg version="1.1" id="Layer_1" xmlns="http://www.w3.org/2000/svg" xmlns:xlink="http://www.w3.org/1999/xlink" x="0px" y="0px"
	 viewBox="0 0 196.16797 190.86523" style="enable-background:new 0 0 196.16797 190.86523;" xml:space="preserve">
<style type="text/css">
	.st0{fill:none;stroke:#8FF4DD;stroke-width:2;stroke-miterlimit:10;}
	.st1{fill:#8FF4DD;}
	.st2{fill:none;stroke:#8FF4DD;stroke-width:2;}
	.st3{fill:none;stroke:#2DE2E6;stroke-width:2;}
	.st4{fill:#2DE2E6;}
	.st5{fill:none;stroke:#2DE2E6;stroke-width:2;stroke-miterlimit:10;}
</style>
<g>
	<g>
		<line class="st0" x1="24.44863" y1="68.06152" x2="178.24707" y2="68.06152"/>
		<g>
			<polygon class="st1" points="25.83565,70.09521 18.24707,68.06152 25.83565,66.02783 			"/>
		</g>
	</g>
</g>
<g>
	<g>
		<polyline class="st2" points="178.24707,13.06152 140.74707,50.56152 55.74707,50.56152 55.74707,135.56152 22.63223,168.67636 		
			"/>
		<g>
			<polygon class="st1" points="22.17496,166.25755 18.24707,173.06152 25.05104,169.13362 			"/>
		</g>
	</g>
</g>
<g>
	<g>
		<line class="st3" x1="98.24707" y1="13.06152" x2="98.24707" y2="104.35996"/>
		<g>
			<polygon class="st4" points="96.21338,102.97295 98.24707,110.56152 100.28076,102.97295 			"/>
		</g>
	</g>
</g>
<g>
	<g>
		<line class="st5" x1="109.36206" y1="125.56152" x2="109.36206" y2="166.85997"/>
		<g>
			<polygon class="st4" points="107.32837,165.47295 109.36206,173.06152 111.39575,165.47295 			"/>
		</g>
	</g>
</g>
<rect x="38.24707" y="33.06152" class="st0" width="120" height="120"/>
<g>
	<g>
		<line class="st0" x1="144.44862" y1="118.06152" x2="178.24707" y2="118.06152"/>
		<g>
			<polygon class="st1" points="145.83565,120.09521 138.24707,118.06152 145.83565,116.02783 			"/>
		</g>
	</g>
</g>
<g>
	<g>
		<path class="st1" d="M88.87671,116.66992c-0.16748-1.69092-0.51563-2.32666-2.24268-2.32666H85.135
			c-0.52783,0-0.55176,0.08398-0.55176,0.47998v3.08203h1.05566c1.12695,0,1.24707-0.39551,1.24707-1.40283h0.26367v3.15381
			h-0.26367c0-1.00732-0.12012-1.40283-1.24707-1.40283h-1.05566v2.98633c0,0.43164,0.02393,0.57568,1.06738,0.57568h0.35986
			v0.34766c-0.34766-0.02393-1.40332-0.02393-1.82275-0.02393c-0.35986,0-1.42725,0-1.71533,0.02393v-0.34766h0.23975
			c0.86377,0,0.89941-0.12012,0.89941-0.56396v-6.34424c0-0.44385-0.03564-0.56396-0.89941-0.56396h-0.23975v-0.34766h6.35645
			l0.31201,2.67432h-0.26417V116.66992z"/>
		<path class="st1" d="M93.24634,122.2832v-1.07959c0,0-0.19189,0.45557-0.53955,0.73145
			c-0.4082,0.34814-0.79199,0.34814-0.99561,0.34814c-0.61182,0-1.10352-0.14404-1.39111-0.45605
			c-0.35986-0.39551-0.35986-0.82764-0.35986-1.5708v-1.79932c0-1.06738,0-1.10352-0.91162-1.10352v-0.34766l1.69092-0.13184
			v3.96973c0,0.63574,0.06006,1.19922,1.04346,1.19922c0.89941,0,1.43945-0.85156,1.43945-1.87061v-2.14697
			c0-0.58789-0.09619-0.67188-0.91162-0.67188v-0.34766l1.69092-0.13184v4.26953c0,0.58789,0.09619,0.67188,0.91162,0.67188v0.34766
			L93.24634,122.2832z"/>
		<path class="st1" d="M96.87183,122.13916c-0.35986,0-0.94775,0-1.2832,0.02393v-0.34766c0.7793,0,0.91113,0,0.91113-0.54004
			v-6.28418c0-0.58789-0.0957-0.67188-0.91113-0.67188v-0.34766l1.66699-0.13184v7.43555c0,0.54004,0.14404,0.54004,0.91162,0.54004
			v0.34766C97.8313,122.13916,97.23169,122.13916,96.87183,122.13916z"/>
		<path class="st1" d="M100.1355,122.13916c-0.35986,0-0.94775,0-1.2832,0.02393v-0.34766c0.7793,0,0.91113,0,0.91113-0.54004
			v-6.28418c0-0.58789-0.0957-0.67188-0.91113-0.67188v-0.34766l1.66699-0.13184v7.43555c0,0.54004,0.14404,0.54004,0.91162,0.54004
			v0.34766C101.09497,122.13916,100.49536,122.13916,100.1355,122.13916z"/>
		<path class="st1" d="M110.36938,122.22314c-0.51563,0-0.88721-0.43164-0.93555-0.99561
			c-0.22754,0.57568-0.76758,1.05566-1.55908,1.05566c-0.73145,0-1.83496-0.2998-1.83496-1.24756
			c0-0.92334,0.91162-1.93066,3.32227-1.9668v-0.47998c0-1.0791-0.70752-1.53516-1.25928-1.53516
			c-0.47998,0-1.05566,0.21631-1.33154,0.71973c0.18018,0,0.61182,0,0.61182,0.4917c0,0.28809-0.20361,0.4917-0.4917,0.4917
			c-0.27588,0-0.50391-0.16797-0.50391-0.51563c0-0.77979,0.75586-1.42725,1.73926-1.42725
			c0.52783,0,1.06738,0.16797,1.4873,0.55176c0.52783,0.46777,0.52783,0.94727,0.52783,1.59521v2.09863
			c0,0.18018,0,0.81592,0.45557,0.81592c0.16797,0,0.45557-0.09619,0.45557-0.77979v-0.67188h0.26416v0.67188
			C111.31714,122.05518,110.62134,122.22314,110.36938,122.22314z M109.36206,119.28467
			c-0.43164,0.02393-2.4707,0.16797-2.4707,1.75098c0,0.57568,0.4917,1.00732,1.07959,1.00732
			c0.51563,0,1.39111-0.39551,1.39111-1.5708V119.28467z"/>
		<path class="st1" d="M115.99731,122.2832v-0.82764c-0.16797,0.22754-0.69531,0.82764-1.60693,0.82764
			c-1.31934,0-2.4585-1.17529-2.4585-2.69873c0-1.53516,1.19922-2.71045,2.59033-2.71045c0.73193,0,1.24756,0.41992,1.49951,0.76758
			v-2.65039c0-0.58789-0.09619-0.67188-0.91162-0.67188v-0.34766l1.66699-0.13184v7.30371c0,0.58789,0.0957,0.67188,0.91162,0.67188
			v0.34766L115.99731,122.2832z M115.99731,118.28906c0-0.21582,0-0.23975-0.14355-0.44385
			c-0.12012-0.19141-0.54004-0.73145-1.28369-0.73145c-0.59961,0-1.0791,0.37207-1.31885,0.74365
			c-0.26416,0.396-0.4082,0.87549-0.4082,1.73926c0,2.32666,1.29541,2.44629,1.60742,2.44629
			c0.59961,0,1.09131-0.34766,1.37891-0.76758c0.16797-0.26367,0.16797-0.2998,0.16797-0.51563
			C115.99731,120.75975,115.99731,118.28906,115.99731,118.28906z"/>
		<path class="st1" d="M122.52563,122.2832v-0.82764c-0.16797,0.22754-0.69531,0.82764-1.60693,0.82764
			c-1.31934,0-2.4585-1.17529-2.4585-2.69873c0-1.53516,1.19922-2.71045,2.59033-2.71045c0.73193,0,1.24756,0.41992,1.49951,0.76758
			v-2.65039c0-0.58789-0.09619-0.67188-0.91162-0.67188v-0.34766l1.66699-0.13184v7.30371c0,0.58789,0.0957,0.67188,0.91162,0.67188
			v0.34766L122.52563,122.2832z M122.52563,118.28906c0-0.21582,0-0.23975-0.14355-0.44385
			c-0.12012-0.19141-0.54004-0.73145-1.28369-0.73145c-0.59961,0-1.0791,0.37207-1.31885,0.74365
			c-0.26416,0.396-0.4082,0.87549-0.4082,1.73926c0,2.32666,1.29541,2.44629,1.60742,2.44629
			c0.59961,0,1.09131-0.34766,1.37891-0.76758c0.16797-0.26367,0.16797-0.2998,0.16797-0.51563
			C122.52563,120.75975,122.52563,118.28906,122.52563,118.28906z"/>
		<path class="st1" d="M127.48267,122.2832c-1.33154,0-2.55469-1.16357-2.55469-2.74658c0-1.4873,1.05518-2.72266,2.42285-2.72266
			c1.45116,0,2.09863,1.12744,2.09863,2.33887c0,0.22754-0.02393,0.22754-0.28809,0.22754h-3.32178v0.22803
			c0,2.07471,1.21094,2.41064,1.71484,2.41064s1.30713-0.27588,1.61914-1.2832c0.02393-0.06006,0.04785-0.12012,0.14404-0.12012
			c0.07178,0,0.13184,0.04834,0.13184,0.12012C129.44946,120.98779,128.90991,122.2832,127.48267,122.2832z M127.33862,117.05371
			c-0.33594,0-1.39111,0.21631-1.4873,2.09912h2.85448C128.6936,118.74512,128.62183,117.05371,127.33862,117.05371z"/>
		<path class="st1" d="M133.54175,118.04932c-0.19189,0-0.46777-0.13184-0.46777-0.47949c0-0.32422,0.19189-0.396,0.28809-0.44385
			c-0.04834-0.01221-0.07227-0.01221-0.16797-0.01221c-0.92383,0-1.40332,1.09131-1.40332,2.25488v1.88281
			c0,0.43164,0.02393,0.56396,0.89941,0.56396h0.23975v0.34766c-0.27588-0.02393-1.12695-0.02393-1.45117-0.02393
			c-0.35986,0-1.01953,0-1.35498,0.02393v-0.34766c0.7793,0,0.91162,0,0.91162-0.54004v-3.25
			c0-0.58789-0.09619-0.67188-0.91162-0.67188v-0.34766l1.60693-0.13184v1.33105h0.01221
			c0.07178-0.22754,0.41943-1.33105,1.43896-1.33105c0.51563,0,0.83984,0.33594,0.83984,0.6958
			C134.02173,117.89355,133.78149,118.04932,133.54175,118.04932z"/>
	</g>
	<rect x="78.24707" y="110.56152" class="st0" width="60" height="15"/>
</g>
<g>
	<path class="st1" d="M129.35818,78.06814h-22.22223V89.4438c0,6.25994,5.00003,11.11111,11.11111,11.11111
		s11.11111-4.85116,11.11111-11.11111V78.06814H129.35818z M127.77088,79.65544v9.78836c0,5.42258-4.24442,9.25925-9.52381,9.25925
		s-9.52381-4.10122-9.52381-9.52381v-9.5238H127.77088z"/>
	<line class="st2" x1="124.24707" y1="79.06152" x2="124.24707" y2="68.06152"/>
	<line class="st2" x1="112.24707" y1="79.06152" x2="112.24707" y2="50.56152"/>
</g>
<path class="st2" d="M55.74707,135.56152"/>
<g>
	<g>
		<line class="st2" x1="78.24707" y1="118.06152" x2="24.44863" y2="118.06152"/>
		<g>
			<polygon class="st1" points="25.83565,116.02783 18.24707,118.06152 25.83565,120.09521 			"/>
		</g>
	</g>
</g>
<circle class="st1" cx="112.24707" cy="50.56152" r="2.5"/>
<circle class="st1" cx="124.24707" cy="68.06152" r="2.5"/>
<g>
	<path class="st1" d="M191.23145,10.22998c-0.38379,0-0.79102-0.02393-1.1875-0.02393c-0.40723,0-0.83887,0.02393-1.23438,0.02393
		c-0.04883,0-0.16797,0-0.16797-0.12012c0-0.22754,0.10742-0.22754,0.27539-0.22754
		c0.74414-0.01221,0.71973-0.33594,0.70801-0.52783l-0.13184-1.93115h-2.7832l-0.875,1.54736
		c-0.1084,0.19189-0.2041,0.34766-0.2041,0.51563c0,0.22803,0.16797,0.37207,0.45605,0.396
		c0.07129,0,0.16797,0.01172,0.16797,0.11963c0,0.22803-0.13184,0.22803-0.21582,0.22803c-0.3125,0-0.66016-0.02393-0.9834-0.02393
		c-0.30078,0-0.62402,0.02393-0.91211,0.02393c0,0-0.14355,0-0.14355-0.12012c0-0.20361,0.0957-0.21582,0.22754-0.22754
		c0.59961-0.06006,0.93555-0.33594,1.30762-0.99561l3.99316-7.00391c0.08398-0.14404,0.12012-0.21631,0.28809-0.21631
		s0.17969,0.03613,0.19238,0.28809l0.52734,7.53174c0.02441,0.31201,0.08398,0.396,0.67188,0.396
		c0.15527,0,0.23926,0,0.23926,0.13184C191.44727,10.22998,191.30371,10.22998,191.23145,10.22998z M189.19336,3.08203
		l-2.2793,3.99365h2.55469L189.19336,3.08203z"/>
	<path class="st1" d="M193.44238,14.2959c-0.23047,0-0.50293-0.14648-0.50293-0.55225c0-0.0625,0-0.15332,0.05566-0.30713
		l0.55957-1.5166c0.04883-0.12598,0.09082-0.24463,0.09082-0.42627c0-0.07715,0-0.20996-0.1543-0.20996
		c-0.40527,0-0.58691,0.6499-0.64258,0.87354c-0.02832,0.09814-0.03516,0.11914-0.11914,0.11914
		c-0.03516,0-0.09766,0-0.09766-0.06299c0-0.03516,0.23047-1.06934,0.87305-1.06934c0.27344,0,0.50391,0.18896,0.50391,0.54541
		c0,0.12549-0.01465,0.18164-0.07715,0.35645l-0.41211,1.13184c-0.12598,0.34229-0.22363,0.59424-0.22363,0.77588
		c0,0.16748,0.08398,0.20264,0.16016,0.20264c0.39844,0,0.58008-0.62891,0.64355-0.8667
		c0.02734-0.10498,0.03516-0.12549,0.11816-0.12549c0.02832,0,0.09082,0,0.09082,0.0625
		C194.30859,13.25488,194.08496,14.2959,193.44238,14.2959z M194.08496,10.36133c-0.13281,0-0.2793-0.09082-0.2793-0.2793
		c0-0.20264,0.20313-0.39844,0.41211-0.39844c0.14063,0,0.28027,0.08398,0.28027,0.2793
		C194.49805,10.17285,194.29492,10.36133,194.08496,10.36133z"/>
</g>
<g>
	<path class="st1" d="M188.08984,71.22998h-3.80176c-0.19141,0-0.28809,0-0.28809-0.12012c0-0.22754,0.1084-0.22754,0.32422-0.22754
		c0.73145,0,0.80371-0.09619,0.91113-0.51611l1.64355-6.60791c0.02344-0.07227,0.02344-0.10791,0.02344-0.18018
		c0-0.19189-0.33496-0.19189-0.63477-0.19189c-0.22852,0-0.3125,0-0.3125-0.11963c0-0.22803,0.1084-0.22803,0.32422-0.22803h3.56152
		c1.30762,0,1.96777,0.7793,1.96777,1.61914c0,1.05518-1.05566,2.03857-2.33887,2.29053
		c0.93555,0.12012,1.64258,0.70752,1.64258,1.64307C191.1123,69.86279,189.7334,71.22998,188.08984,71.22998z M188.92969,67.09229
		h-2.05078l-0.83984,3.40625c-0.04785,0.16797-0.04785,0.19189-0.04785,0.23975c0,0.13184,0.01172,0.14404,0.36035,0.14404h1.47461
		c1.27148,0,2.30273-1.17529,2.30273-2.43506C190.12891,67.83594,189.86523,67.09229,188.92969,67.09229z M189.68555,63.38623
		h-1.40332c-0.39551,0-0.47949,0-0.58789,0.45557l-0.74316,3.01074h1.57031c1.36719,0,2.31543-1.21143,2.31543-2.25488
		C190.83691,64.09375,190.63281,63.38623,189.68555,63.38623z"/>
	<path class="st1" d="M191.77148,76.65186c-0.24512,0-0.59473-0.09082-0.59473-0.38428c0-0.20313,0.16113-0.33545,0.31445-0.33545
		c0.16113,0,0.22363,0.11182,0.22363,0.20264c0,0.021,0,0.22363-0.2373,0.30029c0.12598,0.07666,0.2793,0.07666,0.30078,0.07666
		c0.48242,0,0.69141-0.71973,0.72656-0.87354l0.67773-2.71826c0.04199-0.16064,0.04883-0.26563,0.04883-0.34961
		c0-0.15381-0.02051-0.28662-0.19531-0.28662c-0.34961,0-0.62891,0.4126-0.79688,0.85986
		c-0.04883,0.12598-0.05566,0.13281-0.13281,0.13281c-0.04199,0-0.09766-0.00684-0.09766-0.06299
		c0-0.04199,0.35645-1.06934,1.04102-1.06934c0.37793,0,0.57324,0.29346,0.57324,0.61523c0,0.10449-0.03516,0.24463-0.03516,0.24463
		l-0.65625,2.62744C192.80566,76.12061,192.35156,76.65186,191.77148,76.65186z M193.46191,71.36133
		c-0.13184,0-0.2793-0.09082-0.2793-0.2793c0-0.20264,0.20313-0.39844,0.41211-0.39844c0.14063,0,0.28027,0.08398,0.28027,0.2793
		C193.875,71.17285,193.67188,71.36133,193.46191,71.36133z"/>
</g>
<g>
	<path class="st1" d="M190.83594,116.60791c-0.05957,0-0.15625,0-0.15625-0.10791v-0.10791
		c0.03613-0.17969,0.06055-0.45557,0.06055-0.63574c0-0.52783-0.14453-2.19482-1.69141-2.19482
		c-1.10352,0-2.19434,0.77979-2.80664,1.60742c-1.16309,1.60693-1.29492,3.65771-1.29492,3.99365
		c0,1.63135,0.9834,2.39893,2.0752,2.39893c1.11523,0,2.51855-0.93555,3.05762-2.77051
		c0.03613-0.1084,0.08398-0.12012,0.17969-0.12012c0.07227,0,0.16797,0,0.16797,0.10791c0,0-0.19141,1.07959-1.23535,2.11084
		c-0.0957,0.08398-1.04297,1.01953-2.35059,1.01953c-1.52246,0-2.8418-1.12744-2.8418-3.1665
		c0-2.84229,2.54199-5.52881,4.96484-5.52881c0.7793,0,1.3916,0.35986,1.77539,1.06738l0.7793-0.95947
		c0.08398-0.10791,0.15625-0.10791,0.15625-0.10791s0.10742,0,0.10742,0.10791c0,0-0.01172,0.12012-0.02344,0.15576
		l-0.73242,2.92676C190.97949,116.59619,190.95605,116.60791,190.83594,116.60791z"/>
	<path class="st1" d="M191.58984,125.63916c-0.20313,0-0.53809,0-0.73438,0.01416v-0.20264c0.4541,0,0.53125,0,0.53125-0.31445
		v-1.90088c0-0.34229-0.0625-0.38428-0.50977-0.38428v-0.20264l0.9502-0.07715v2.57178c0,0.27246,0.02734,0.30762,0.48242,0.30762
		v0.20264C192.07129,125.63916,191.66602,125.63916,191.58984,125.63916z M191.5752,121.76758
		c-0.18164,0-0.33496-0.15381-0.33496-0.33545c0-0.18848,0.14648-0.34229,0.3418-0.34229c0.16797,0,0.33594,0.13281,0.33594,0.34229
		C191.91797,121.6001,191.78516,121.76758,191.5752,121.76758z"/>
	<path class="st1" d="M195.40625,125.63916c-0.19531,0-0.57227,0-0.75488,0.01416v-0.20264c0.45508,0,0.53125,0,0.53125-0.31445
		v-1.64258c0-0.42627-0.09766-0.78271-0.53125-0.78271c-0.43262,0-0.91504,0.3916-0.91504,1.12549v1.2998
		c0,0.31445,0.08398,0.31445,0.53125,0.31445v0.20264c-0.18164-0.01416-0.55957-0.01416-0.76172-0.01416
		c-0.19629,0-0.57324,0-0.75488,0.01416v-0.20264c0.4541,0,0.53125,0,0.53125-0.31445v-1.89404
		c0-0.34229-0.05566-0.39111-0.53125-0.39111v-0.20264l0.9502-0.07715v0.71973h0.00684c0.05664-0.13965,0.32227-0.71973,1-0.71973
		c0.2373,0,0.56543,0.04199,0.76855,0.31445c0.16113,0.22363,0.16113,0.41943,0.16113,1.06934v1.28613
		c0.00684,0.20947,0.18164,0.20947,0.53027,0.20947v0.20264C195.98633,125.63916,195.60938,125.63916,195.40625,125.63916z"/>
</g>
<g>
	<path class="st1" d="M6.83594,116.60791c-0.05957,0-0.15625,0-0.15625-0.10791v-0.10791
		c0.03613-0.17969,0.06055-0.45557,0.06055-0.63574c0-0.52783-0.14453-2.19482-1.69141-2.19482
		c-1.10352,0-2.19434,0.77979-2.80664,1.60742c-1.16309,1.60693-1.29492,3.65771-1.29492,3.99365
		c0,1.63135,0.9834,2.39893,2.0752,2.39893c1.11523,0,2.51855-0.93555,3.05762-2.77051
		c0.03613-0.1084,0.08398-0.12012,0.17969-0.12012c0.07227,0,0.16797,0,0.16797,0.10791c0,0-0.19141,1.07959-1.23535,2.11084
		c-0.0957,0.08398-1.04297,1.01953-2.35059,1.01953c-1.52246,0-2.8418-1.12744-2.8418-3.1665
		c0-2.84229,2.54199-5.52881,4.96484-5.52881c0.7793,0,1.3916,0.35986,1.77539,1.06738l0.7793-0.95947
		c0.08398-0.10791,0.15625-0.10791,0.15625-0.10791s0.10742,0,0.10742,0.10791c0,0-0.01172,0.12012-0.02344,0.15576
		l-0.73242,2.92676C6.97949,116.59619,6.95605,116.60791,6.83594,116.60791z"/>
	<path class="st1" d="M8.33008,125.72314c-0.79688,0-1.49512-0.6709-1.49512-1.56543c0-0.88037,0.66406-1.62109,1.50195-1.62109
		c0.81055,0,1.49609,0.71973,1.49609,1.62109C9.83301,125.03809,9.15527,125.72314,8.33008,125.72314z M9.08496,123.07471
		c-0.18848-0.27295-0.48242-0.39844-0.75488-0.39844c-0.24414,0-0.55176,0.11182-0.74805,0.41211
		c-0.21582,0.31445-0.21582,0.74072-0.21582,1.00635c0,0.29346,0.00684,0.70605,0.19531,1.02051
		c0.20215,0.34229,0.51758,0.4541,0.77539,0.4541c0.26563,0,0.58691-0.13281,0.7832-0.46826
		c0.18164-0.32813,0.18164-0.76172,0.18164-1.00635C9.30176,123.83643,9.30176,123.396,9.08496,123.07471z"/>
	<path class="st1" d="M12.72266,125.72314v-0.62891c0,0-0.1123,0.26563-0.31445,0.42627
		c-0.23828,0.20264-0.46191,0.20264-0.58008,0.20264c-0.35645,0-0.64355-0.08398-0.81055-0.26563
		c-0.20996-0.23047-0.20996-0.48193-0.20996-0.91553v-1.04834c0-0.62158,0-0.64258-0.53125-0.64258v-0.20264l0.98535-0.07715
		v2.31348c0,0.37012,0.03516,0.69873,0.6084,0.69873c0.52344,0,0.83789-0.49609,0.83789-1.09033v-1.25098
		c0-0.34229-0.05566-0.39111-0.53125-0.39111v-0.20264l0.98633-0.07715v2.48779c0,0.34277,0.05566,0.3916,0.53027,0.3916v0.20264
		L12.72266,125.72314z"/>
	<path class="st1" d="M15.46582,125.72314c-0.37012,0-0.8877-0.16064-0.8877-0.93652v-1.94287h-0.59375v-0.13965
		c0.63574-0.021,0.8877-0.69189,0.89453-1.34863h0.15332v1.28564h0.98535v0.20264h-0.98535v1.95703
		c0,0.11865,0,0.76855,0.47559,0.76855c0.27246,0,0.47559-0.29346,0.47559-0.79639v-0.38477h0.15332v0.39844
		C16.13672,125.29004,15.90625,125.72314,15.46582,125.72314z"/>
</g>
<g>
	<path class="st4" d="M90.68457,5.29248h-1.83496L88.07031,8.375L88.0459,8.55469c0,0.10791,0,0.2041,0.67188,0.2041
		c0.17969,0,0.27588,0,0.27588,0.11963c0,0.22803-0.13184,0.22803-0.22803,0.22803c-0.41992,0-0.88721-0.02393-1.31934-0.02393
		c-0.43164,0-0.87549,0.02393-1.29492,0.02393c-0.04834,0-0.16797,0-0.16797-0.12012c0-0.22754,0.10791-0.22754,0.32373-0.22754
		c0.73145,0,0.80371-0.09619,0.91162-0.51563l1.64307-6.6084c0.02393-0.07227,0.02393-0.1084,0.02393-0.18018
		c0-0.19189-0.33594-0.19189-0.63574-0.19189c-0.22803,0-0.31201,0-0.31201-0.12012c0-0.22754,0.10791-0.22754,0.32422-0.22754
		h3.42969c1.28369,0,2.0752,0.75537,2.0752,1.75098C93.76709,4.08105,92.18359,5.29248,90.68457,5.29248z M91.34424,1.2627h-1.04346
		c-0.39551,0-0.47949,0-0.5874,0.45605l-0.81592,3.28613h1.51123c1.09131,0,1.61914-0.57568,1.66699-0.61182
		c0.61182-0.67188,0.71973-1.79883,0.71973-2.01514C92.79541,1.65869,92.32764,1.2627,91.34424,1.2627z"/>
	<path class="st4" d="M98.64063,5.29248h-1.83496L96.02637,8.375l-0.02441,0.17969c0,0.10791,0,0.2041,0.67188,0.2041
		c0.17969,0,0.27588,0,0.27588,0.11963c0,0.22803-0.13184,0.22803-0.22803,0.22803c-0.41992,0-0.88721-0.02393-1.31934-0.02393
		c-0.43164,0-0.87549,0.02393-1.29492,0.02393c-0.04834,0-0.16797,0-0.16797-0.12012c0-0.22754,0.10791-0.22754,0.32373-0.22754
		c0.73145,0,0.80371-0.09619,0.91162-0.51563l1.64307-6.6084c0.02393-0.07227,0.02393-0.1084,0.02393-0.18018
		c0-0.19189-0.33594-0.19189-0.63574-0.19189c-0.22803,0-0.31201,0-0.31201-0.12012c0-0.22754,0.10791-0.22754,0.32422-0.22754
		h3.42969c1.28369,0,2.0752,0.75537,2.0752,1.75098C101.72314,4.08105,100.13965,5.29248,98.64063,5.29248z M99.30029,1.2627
		h-1.04346c-0.39551,0-0.47949,0-0.5874,0.45605l-0.81592,3.28613h1.51123c1.09131,0,1.61914-0.57568,1.66699-0.61182
		c0.61182-0.67188,0.71973-1.79883,0.71973-2.01514C100.75146,1.65869,100.28369,1.2627,99.30029,1.2627z"/>
	<path class="st4" d="M104.60596,9.3584c-0.94775,0-1.4873-0.38379-1.81104-0.87549l-0.53955,0.71924
		c-0.12012,0.14404-0.13232,0.15625-0.18018,0.15625c0,0-0.12012,0-0.12012-0.10791c0-0.03613,0.02441-0.13184,0.03613-0.16797
		l0.62354-2.49463c0.04834-0.19189,0.07227-0.2041,0.2041-0.2041c0.06006,0,0.15576,0,0.15576,0.10791l-0.01172,0.09619
		c-0.07227,0.2876-0.09619,0.61182-0.09619,0.73145c0,1.22363,0.85156,1.69141,1.7749,1.69141
		c1.0918,0,2.02734-1.23535,2.02734-2.32715c0-0.53955-0.21631-1.00732-0.71973-1.17529l-0.73145-0.21582
		c-0.82764-0.23975-1.04346-0.2998-1.29541-0.57568c-0.43213-0.46777-0.45605-0.95947-0.45605-1.22314
		c0-1.43945,1.31934-2.83057,2.72266-2.83057c0.21582,0,1.10352,0,1.54736,0.85156l0.53955-0.71973
		c0.0957-0.13184,0.13184-0.13184,0.16797-0.13184c0,0,0.11963,0,0.11963,0.10791c0,0.03613-0.02393,0.13184-0.03564,0.16797
		l-0.62354,2.49463c-0.04834,0.19189-0.07227,0.2041-0.2041,0.2041c-0.08398,0-0.16797,0-0.16797-0.12012
		c0,0,0-0.03613,0.02393-0.10791c0.04785-0.34814,0.04785-0.55176,0.04785-0.70752c0-0.37207,0-1.71533-1.43896-1.71533
		c-1.00732,0-1.95508,1.04346-1.95508,2.07471c0,0.8999,0.56396,1.06787,0.94775,1.17578l1.16309,0.34766
		c0.59961,0.19189,1.07959,0.73145,1.07959,1.6792C107.40039,7.82324,106.05713,9.3584,104.60596,9.3584z"/>
	<path class="st4" d="M108.03369,14.52832c-0.24463,0-0.59375-0.09082-0.59375-0.38428c0-0.20264,0.16064-0.33545,0.31445-0.33545
		c0.16064,0,0.22363,0.11182,0.22363,0.20264c0,0.021,0,0.22363-0.23779,0.30029c0.12598,0.07715,0.27979,0.07715,0.30078,0.07715
		c0.48193,0,0.69189-0.72021,0.72656-0.87402l0.67773-2.71826c0.04199-0.16064,0.04932-0.26563,0.04932-0.34961
		c0-0.15381-0.021-0.28662-0.1958-0.28662c-0.34961,0-0.62891,0.4126-0.79688,0.85986
		c-0.04883,0.12549-0.05566,0.13281-0.13281,0.13281c-0.04199,0-0.09766-0.00732-0.09766-0.06299
		c0-0.04199,0.35645-1.06934,1.04102-1.06934c0.37744,0,0.57324,0.29346,0.57324,0.61523c0,0.10449-0.03467,0.24463-0.03467,0.24463
		l-0.65723,2.62744C109.06836,13.99707,108.61377,14.52832,108.03369,14.52832z M109.7251,9.23779
		c-0.13281,0-0.27979-0.09082-0.27979-0.2793c0-0.20264,0.20313-0.39844,0.4126-0.39844c0.13965,0,0.2793,0.08398,0.2793,0.2793
		C110.13721,9.04932,109.93457,9.23779,109.7251,9.23779z"/>
</g>
<g>
	<path class="st4" d="M100.68457,181.29248h-1.83496l-0.7793,3.08252l-0.02441,0.17969c0,0.10791,0,0.2041,0.67188,0.2041
		c0.17969,0,0.27588,0,0.27588,0.11963c0,0.22803-0.13184,0.22803-0.22803,0.22803c-0.41992,0-0.88721-0.02393-1.31934-0.02393
		c-0.43164,0-0.87549,0.02393-1.29492,0.02393c-0.04834,0-0.16797,0-0.16797-0.12012c0-0.22754,0.10791-0.22754,0.32373-0.22754
		c0.73145,0,0.80371-0.09619,0.91162-0.51563l1.64307-6.6084c0.02393-0.07227,0.02393-0.1084,0.02393-0.18018
		c0-0.19189-0.33594-0.19189-0.63574-0.19189c-0.22803,0-0.31201,0-0.31201-0.12012c0-0.22754,0.10791-0.22754,0.32422-0.22754
		h3.42969c1.28369,0,2.0752,0.75537,2.0752,1.75098C103.76709,180.08105,102.18359,181.29248,100.68457,181.29248z
		 M101.34424,177.2627h-1.04346c-0.39551,0-0.47949,0-0.5874,0.45605l-0.81592,3.28613h1.51123
		c1.09131,0,1.61914-0.57568,1.66699-0.61182c0.61182-0.67188,0.71973-1.79883,0.71973-2.01514
		C102.79541,177.65869,102.32764,177.2627,101.34424,177.2627z"/>
	<path class="st4" d="M108.64063,181.29248h-1.83496l-0.7793,3.08252l-0.02441,0.17969c0,0.10791,0,0.2041,0.67188,0.2041
		c0.17969,0,0.27588,0,0.27588,0.11963c0,0.22803-0.13184,0.22803-0.22803,0.22803c-0.41992,0-0.88721-0.02393-1.31934-0.02393
		c-0.43164,0-0.87549,0.02393-1.29492,0.02393c-0.04834,0-0.16797,0-0.16797-0.12012c0-0.22754,0.10791-0.22754,0.32373-0.22754
		c0.73145,0,0.80371-0.09619,0.91162-0.51563l1.64307-6.6084c0.02393-0.07227,0.02393-0.1084,0.02393-0.18018
		c0-0.19189-0.33594-0.19189-0.63574-0.19189c-0.22803,0-0.31201,0-0.31201-0.12012c0-0.22754,0.10791-0.22754,0.32422-0.22754
		h3.42969c1.28369,0,2.0752,0.75537,2.0752,1.75098C111.72314,180.08105,110.13965,181.29248,108.64063,181.29248z
		 M109.30029,177.2627h-1.04346c-0.39551,0-0.47949,0-0.5874,0.45605l-0.81592,3.28613h1.51123
		c1.09131,0,1.61914-0.57568,1.66699-0.61182c0.61182-0.67188,0.71973-1.79883,0.71973-2.01514
		C110.75146,177.65869,110.28369,177.2627,109.30029,177.2627z"/>
	<path class="st4" d="M114.60596,185.3584c-0.94775,0-1.4873-0.38379-1.81104-0.87549l-0.53955,0.71924
		c-0.12012,0.14404-0.13232,0.15625-0.18018,0.15625c0,0-0.12012,0-0.12012-0.10791c0-0.03613,0.02441-0.13184,0.03613-0.16797
		l0.62354-2.49463c0.04834-0.19189,0.07227-0.2041,0.2041-0.2041c0.06006,0,0.15576,0,0.15576,0.10791l-0.01172,0.09619
		c-0.07227,0.2876-0.09619,0.61182-0.09619,0.73145c0,1.22363,0.85156,1.69141,1.7749,1.69141
		c1.0918,0,2.02734-1.23535,2.02734-2.32715c0-0.53955-0.21631-1.00732-0.71973-1.17529l-0.73145-0.21582
		c-0.82764-0.23975-1.04346-0.2998-1.29541-0.57568c-0.43213-0.46777-0.45605-0.95947-0.45605-1.22314
		c0-1.43945,1.31934-2.83057,2.72266-2.83057c0.21582,0,1.10352,0,1.54736,0.85156l0.53955-0.71973
		c0.0957-0.13184,0.13184-0.13184,0.16797-0.13184c0,0,0.11963,0,0.11963,0.10791c0,0.03613-0.02393,0.13184-0.03564,0.16797
		l-0.62354,2.49463c-0.04834,0.19189-0.07227,0.2041-0.2041,0.2041c-0.08398,0-0.16797,0-0.16797-0.12012
		c0,0,0-0.03613,0.02393-0.10791c0.04785-0.34814,0.04785-0.55176,0.04785-0.70752c0-0.37207,0-1.71533-1.43896-1.71533
		c-1.00732,0-1.95508,1.04346-1.95508,2.07471c0,0.8999,0.56396,1.06787,0.94775,1.17578l1.16309,0.34766
		c0.59961,0.19189,1.07959,0.73145,1.07959,1.6792C117.40039,183.82324,116.05713,185.3584,114.60596,185.3584z"/>
	<path class="st4" d="M118.03369,190.52832c-0.24463,0-0.59375-0.09082-0.59375-0.38428c0-0.20264,0.16064-0.33545,0.31445-0.33545
		c0.16064,0,0.22363,0.11182,0.22363,0.20264c0,0.021,0,0.22363-0.23779,0.30029c0.12598,0.07715,0.27979,0.07715,0.30078,0.07715
		c0.48193,0,0.69189-0.72021,0.72656-0.87402l0.67773-2.71826c0.04199-0.16064,0.04932-0.26563,0.04932-0.34961
		c0-0.15381-0.021-0.28662-0.1958-0.28662c-0.34961,0-0.62891,0.4126-0.79688,0.85986
		c-0.04883,0.12549-0.05566,0.13281-0.13281,0.13281c-0.04199,0-0.09766-0.00732-0.09766-0.06299
		c0-0.04199,0.35645-1.06934,1.04102-1.06934c0.37744,0,0.57324,0.29346,0.57324,0.61523c0,0.10449-0.03467,0.24463-0.03467,0.24463
		l-0.65723,2.62744C119.06836,189.99707,118.61377,190.52832,118.03369,190.52832z M119.7251,185.23779
		c-0.13281,0-0.27979-0.09082-0.27979-0.2793c0-0.20264,0.20313-0.39844,0.4126-0.39844c0.13965,0,0.2793,0.08398,0.2793,0.2793
		C120.13721,185.04932,119.93457,185.23779,119.7251,185.23779z"/>
	<path class="st4" d="M125.20703,187.48828h-1.92871v1.92871c0,0.10498,0,0.22363-0.13281,0.22363
		c-0.12598,0-0.12598-0.12598-0.12598-0.22363v-1.92871h-1.92871c-0.10498,0-0.22363,0-0.22363-0.13281
		c0-0.12598,0.12598-0.12598,0.22363-0.12598h1.92871v-1.92871c0-0.10498,0-0.22363,0.13281-0.22363
		c0.12598,0,0.12598,0.12598,0.12598,0.22363v1.92871h1.92871c0.10498,0,0.22363,0,0.22363,0.13281
		C125.43066,187.48828,125.30469,187.48828,125.20703,187.48828z"/>
	<path class="st4" d="M127.5957,189.08838c-0.23047,0-0.9082,0-1.09717,0.01416v-0.20264h0.2168
		c0.61475,0,0.63574-0.08398,0.63574-0.33545v-3.64111c-0.38428,0.18164-0.7334,0.18164-0.89453,0.18164v-0.20264
		c0.72021,0,1.06934-0.2583,1.2373-0.44727c0.13965,0,0.13965,0.00684,0.13965,0.16797v3.94141
		c0,0.25146,0.021,0.33545,0.63573,0.33545h0.2168v0.20264C128.49756,189.08838,127.82666,189.08838,127.5957,189.08838z"/>
</g>
<line class="st0" x1="118.24707" y1="99.66292" x2="118.24707" y2="110.56152"/>
</svg>
