<?xml version="1.0" encoding="utf-8"?>
<!-- Generator: Adobe Illustrator 23.0.3, SVG Export Plug-In . SVG Version: 6.00 Build 0)  -->
<svg version="1.1" xmlns="http://www.w3.org/2000/svg" xmlns:xlink="http://www.w3.org/1999/xlink" x="0px" y="0px"
	 viewBox="0 0 303.63135 428.48926" style="enable-background:new 0 0 303.63135 428.48926;" xml:space="preserve">
<style type="text/css">
	.st0{fill:#8FF4DD;}
	.st1{fill:none;stroke:#8FF4DD;stroke-width:2;}
	.st2{fill:none;stroke:#8FF4DD;stroke-width:2;stroke-miterlimit:10;}
	.st3{fill:none;stroke:#8FF4DD;stroke-width:2;stroke-linecap:square;}
	.st4{fill:none;stroke:#8FF4DD;stroke-width:2;stroke-linecap:square;stroke-miterlimit:10;}
</style>
<g id="Layer_1">
	<g>
		<g>
			<path class="st0" d="M32.67551,308.25412h22.22222v11.37567c0,6.25995-5.00003,11.11111-11.11111,11.11111
				s-11.11111-4.85117-11.11111-11.11111C32.67551,319.62979,32.67551,308.25412,32.67551,308.25412z M34.26281,309.84143v9.78836
				c0,5.42258,4.24442,9.25925,9.52381,9.25925s9.52381-4.10123,9.52381-9.5238v-9.5238H34.26281z"/>
			<g>
				<g>
					<line class="st1" x1="43.78662" y1="330.36523" x2="43.78662" y2="338.16367"/>
					<g>
						<polygon class="st0" points="41.75293,336.77667 43.78662,344.36523 45.82031,336.77667 						"/>
					</g>
				</g>
			</g>
			<line class="st1" x1="37.78662" y1="309.36523" x2="37.78662" y2="294.36523"/>
			<line class="st1" x1="49.78662" y1="309.36523" x2="49.78662" y2="294.36523"/>
		</g>
		<g>
			<path class="st0" d="M62.67551,308.25412h22.22223v11.37567c0,6.25995-5.00003,11.11111-11.11111,11.11111
				s-11.11111-4.85117-11.11111-11.11111v-11.37567H62.67551z M64.26281,309.84143v9.78836
				c0,5.42258,4.24442,9.25925,9.52381,9.25925s9.52381-4.10123,9.52381-9.5238v-9.5238H64.26281z"/>
			<g>
				<g>
					<line class="st1" x1="73.78662" y1="330.36523" x2="73.78662" y2="338.16367"/>
					<g>
						<polygon class="st0" points="71.75293,336.77667 73.78662,344.36523 75.82031,336.77667 						"/>
					</g>
				</g>
			</g>
			<line class="st1" x1="67.78662" y1="309.36523" x2="67.78662" y2="294.36523"/>
			<line class="st1" x1="79.78662" y1="309.36523" x2="79.78662" y2="294.36523"/>
		</g>
		<g>
			<path class="st0" d="M92.67551,308.25412h22.22223v11.37567c0,6.25995-5.00003,11.11111-11.11111,11.11111
				s-11.11111-4.85117-11.11111-11.11111v-11.37567H92.67551z M94.26281,309.84143v9.78836
				c0,5.42258,4.24442,9.25925,9.52381,9.25925s9.52381-4.10123,9.52381-9.5238v-9.5238H94.26281z"/>
			<g>
				<g>
					<line class="st1" x1="103.78662" y1="330.36523" x2="103.78662" y2="338.16367"/>
					<g>
						<polygon class="st0" points="101.75293,336.77667 103.78662,344.36523 105.82031,336.77667 						"/>
					</g>
				</g>
			</g>
			<line class="st1" x1="97.78662" y1="309.36523" x2="97.78662" y2="294.36523"/>
			<line class="st1" x1="109.78662" y1="309.36523" x2="109.78662" y2="294.36523"/>
		</g>
		<g>
			<path class="st0" d="M122.67551,308.25412h22.22223v11.37567c0,6.25995-5.00003,11.11111-11.11111,11.11111
				s-11.11111-4.85117-11.11111-11.11111C122.67551,319.62979,122.67551,308.25412,122.67551,308.25412z M124.26281,309.84143
				v9.78836c0,5.42258,4.24442,9.25925,9.52381,9.25925s9.5238-4.10123,9.5238-9.5238v-9.5238H124.26281z"/>
			<g>
				<g>
					<line class="st1" x1="133.78662" y1="330.36523" x2="133.78662" y2="338.16367"/>
					<g>
						<polygon class="st0" points="131.75293,336.77667 133.78662,344.36523 135.82031,336.77667 						"/>
					</g>
				</g>
			</g>
			<line class="st1" x1="127.78662" y1="309.36523" x2="127.78662" y2="294.36523"/>
			<line class="st1" x1="139.78662" y1="309.36523" x2="139.78662" y2="294.36523"/>
		</g>
		<rect x="33.78662" y="344.36523" class="st2" width="180" height="33"/>
		<rect x="63.78662" y="221.36523" class="st2" width="180" height="33"/>
		<g>
			<path class="st0" d="M62.67551,185.25412h22.22223v11.37567c0,6.25993-5.00003,11.1111-11.11111,11.1111
				s-11.11111-4.85115-11.11111-11.1111v-11.37567H62.67551z M64.26281,186.84143v9.78836
				c0,5.42258,4.24442,9.25925,9.52381,9.25925s9.52381-4.10121,9.52381-9.5238v-9.5238H64.26281z"/>
			<g>
				<g>
					<line class="st1" x1="73.78662" y1="207.36523" x2="73.78662" y2="215.16367"/>
					<g>
						<polygon class="st0" points="71.75293,213.77667 73.78662,221.36523 75.82031,213.77667 						"/>
					</g>
				</g>
			</g>
			<line class="st1" x1="67.78662" y1="186.36523" x2="67.78662" y2="171.36523"/>
			<line class="st1" x1="79.78662" y1="186.36523" x2="79.78662" y2="171.36523"/>
		</g>
		<g>
			<path class="st0" d="M92.67551,185.25412h22.22223v11.37567c0,6.25993-5.00003,11.1111-11.11111,11.1111
				s-11.11111-4.85115-11.11111-11.1111v-11.37567H92.67551z M94.26281,186.84143v9.78836
				c0,5.42258,4.24442,9.25925,9.52381,9.25925s9.52381-4.10121,9.52381-9.5238v-9.5238H94.26281z"/>
			<g>
				<g>
					<line class="st1" x1="103.78662" y1="207.36523" x2="103.78662" y2="215.16367"/>
					<g>
						<polygon class="st0" points="101.75293,213.77667 103.78662,221.36523 105.82031,213.77667 						"/>
					</g>
				</g>
			</g>
			<line class="st1" x1="97.78662" y1="186.36523" x2="97.78662" y2="171.36523"/>
			<line class="st1" x1="109.78662" y1="186.36523" x2="109.78662" y2="171.36523"/>
		</g>
		<g>
			<path class="st0" d="M122.67551,185.25412h22.22223v11.37567c0,6.25993-5.00003,11.1111-11.11111,11.1111
				s-11.11111-4.85115-11.11111-11.1111C122.67551,196.62979,122.67551,185.25412,122.67551,185.25412z M124.26281,186.84143
				v9.78836c0,5.42258,4.24442,9.25925,9.52381,9.25925s9.5238-4.10121,9.5238-9.5238v-9.5238H124.26281z"/>
			<g>
				<g>
					<line class="st1" x1="133.78662" y1="207.36523" x2="133.78662" y2="215.16367"/>
					<g>
						<polygon class="st0" points="131.75293,213.77667 133.78662,221.36523 135.82031,213.77667 						"/>
					</g>
				</g>
			</g>
			<line class="st1" x1="127.78662" y1="186.36523" x2="127.78662" y2="171.36523"/>
			<line class="st1" x1="139.78662" y1="186.36523" x2="139.78662" y2="171.36523"/>
		</g>
		<g>
			<path class="st0" d="M152.67551,185.25412h22.22223v11.37567c0,6.25993-5.00003,11.1111-11.11111,11.1111
				s-11.11111-4.85115-11.11111-11.1111V185.25412z M154.26282,186.84143v9.78836c0,5.42258,4.24442,9.25925,9.5238,9.25925
				s9.5238-4.10121,9.5238-9.5238v-9.5238H154.26282z"/>
			<g>
				<g>
					<line class="st1" x1="163.78662" y1="207.36523" x2="163.78662" y2="215.16367"/>
					<g>
						<polygon class="st0" points="161.75293,213.77667 163.78662,221.36523 165.82031,213.77667 						"/>
					</g>
				</g>
			</g>
			<line class="st1" x1="157.78662" y1="186.36523" x2="157.78662" y2="171.36523"/>
			<line class="st1" x1="169.78662" y1="186.36523" x2="169.78662" y2="171.36523"/>
		</g>
		<rect x="93.78662" y="98.36523" class="st2" width="180" height="33.00001"/>
		<g>
			<path class="st0" d="M92.67551,62.25412h22.22223v11.37566c0,6.25995-5.00003,11.11111-11.11111,11.11111
				s-11.11111-4.85117-11.11111-11.11111V62.25412H92.67551z M94.26281,63.84143v9.78836c0,5.42259,4.24442,9.25925,9.52381,9.25925
				s9.52381-4.10122,9.52381-9.5238v-9.52381C113.31043,63.84142,94.26281,63.84142,94.26281,63.84143z"/>
			<g>
				<g>
					<line class="st1" x1="103.78662" y1="84.36523" x2="103.78662" y2="92.16368"/>
					<g>
						<polygon class="st0" points="101.75293,90.77666 103.78662,98.36523 105.82031,90.77666 						"/>
					</g>
				</g>
			</g>
			<line class="st1" x1="97.78662" y1="63.36523" x2="97.78662" y2="48.36523"/>
			<line class="st1" x1="109.78662" y1="63.36523" x2="109.78662" y2="48.36523"/>
		</g>
		<g>
			<path class="st0" d="M116.67551,62.25412h22.22223v11.37566c0,6.25995-5.00003,11.11111-11.11111,11.11111
				s-11.11111-4.85117-11.11111-11.11111V62.25412H116.67551z M118.26281,63.84143v9.78836
				c0,5.42259,4.24442,9.25925,9.52381,9.25925s9.5238-4.10122,9.5238-9.5238v-9.52381
				C137.31042,63.84142,118.26281,63.84142,118.26281,63.84143z"/>
			<g>
				<g>
					<line class="st1" x1="127.78662" y1="84.36523" x2="127.78662" y2="92.16368"/>
					<g>
						<polygon class="st0" points="125.75293,90.77666 127.78662,98.36523 129.82031,90.77666 						"/>
					</g>
				</g>
			</g>
			<line class="st1" x1="121.78662" y1="63.36523" x2="121.78662" y2="48.36523"/>
			<line class="st1" x1="133.78662" y1="63.36523" x2="133.78662" y2="48.36523"/>
		</g>
		<g>
			<path class="st0" d="M140.67551,62.25412h22.22223v11.37566c0,6.25995-5.00003,11.11111-11.11111,11.11111
				s-11.11111-4.85117-11.11111-11.11111V62.25412z M142.26282,63.84143v9.78836c0,5.42259,4.24442,9.25925,9.5238,9.25925
				s9.5238-4.10122,9.5238-9.5238v-9.52381C161.31042,63.84142,142.26282,63.84142,142.26282,63.84143z"/>
			<g>
				<g>
					<line class="st1" x1="151.78662" y1="84.36523" x2="151.78662" y2="92.16368"/>
					<g>
						<polygon class="st0" points="149.75293,90.77666 151.78662,98.36523 153.82031,90.77666 						"/>
					</g>
				</g>
			</g>
			<line class="st1" x1="145.78662" y1="63.36523" x2="145.78662" y2="48.36523"/>
			<line class="st1" x1="157.78662" y1="63.36523" x2="157.78662" y2="48.36523"/>
		</g>
		<g>
			<path class="st0" d="M164.67551,62.25412h22.22223v11.37566c0,6.25995-5.00003,11.11111-11.11111,11.11111
				s-11.11111-4.85117-11.11111-11.11111V62.25412z M166.26282,63.84143v9.78836c0,5.42259,4.24442,9.25925,9.5238,9.25925
				s9.5238-4.10122,9.5238-9.5238v-9.52381C185.31042,63.84142,166.26282,63.84142,166.26282,63.84143z"/>
			<g>
				<g>
					<line class="st1" x1="175.78662" y1="84.36523" x2="175.78662" y2="92.16368"/>
					<g>
						<polygon class="st0" points="173.75293,90.77666 175.78662,98.36523 177.82031,90.77666 						"/>
					</g>
				</g>
			</g>
			<line class="st1" x1="169.78662" y1="63.36523" x2="169.78662" y2="48.36523"/>
			<line class="st1" x1="181.78662" y1="63.36523" x2="181.78662" y2="48.36523"/>
		</g>
		<g>
			<path class="st0" d="M205.67551,42.25412h22.22223v11.37566c0,6.25995-5.00003,11.11111-11.11111,11.11111
				s-11.11111-4.85117-11.11111-11.11111V42.25412z M207.26282,43.84143v9.78836c0,5.42259,4.24442,9.25926,9.5238,9.25926
				s9.5238-4.10122,9.5238-9.52381v-9.5238h-19.04761V43.84143z"/>
			<g>
				<g>
					<line class="st1" x1="216.78662" y1="64.36523" x2="216.78662" y2="92.16368"/>
					<g>
						<polygon class="st0" points="214.75293,90.77666 216.78662,98.36523 218.82031,90.77666 						"/>
					</g>
				</g>
			</g>
			<line class="st1" x1="210.78662" y1="43.36523" x2="210.78662" y2="28.36523"/>
			<line class="st1" x1="222.78662" y1="43.36523" x2="222.78662" y2="28.36523"/>
		</g>
		<g>
			<path class="st0" d="M229.67551,42.25412h22.22223v11.37566c0,6.25995-5.00003,11.11111-11.11111,11.11111
				s-11.11111-4.85117-11.11111-11.11111V42.25412z M231.26282,43.84143v9.78836c0,5.42259,4.24442,9.25926,9.5238,9.25926
				s9.5238-4.10122,9.5238-9.52381v-9.5238h-19.04761V43.84143z"/>
			<g>
				<g>
					<line class="st1" x1="240.78662" y1="64.36523" x2="240.78662" y2="92.16368"/>
					<g>
						<polygon class="st0" points="238.75293,90.77666 240.78662,98.36523 242.82031,90.77666 						"/>
					</g>
				</g>
			</g>
			<line class="st1" x1="234.78662" y1="43.36523" x2="234.78662" y2="28.36523"/>
			<line class="st1" x1="246.78662" y1="43.36523" x2="246.78662" y2="28.36523"/>
		</g>
		<g>
			<path class="st0" d="M253.67551,42.25412h22.22223v11.37566c0,6.25995-5.00003,11.11111-11.11111,11.11111
				s-11.11111-4.85117-11.11111-11.11111V42.25412z M255.26282,43.84143v9.78836c0,5.42259,4.24442,9.25926,9.5238,9.25926
				s9.5238-4.10122,9.5238-9.52381v-9.5238h-19.04761V43.84143z"/>
			<g>
				<g>
					<line class="st1" x1="264.78662" y1="64.36523" x2="264.78662" y2="92.16368"/>
					<g>
						<polygon class="st0" points="262.75293,90.77666 264.78662,98.36523 266.82031,90.77666 						"/>
					</g>
				</g>
			</g>
			<line class="st1" x1="258.78662" y1="43.36523" x2="258.78662" y2="28.36523"/>
			<line class="st1" x1="270.78662" y1="43.36523" x2="270.78662" y2="28.36523"/>
		</g>
		<g>
			<path class="st0" d="M277.67551,42.25412h22.22223v11.37566c0,6.25995-5.00003,11.11111-11.11111,11.11111
				s-11.11111-4.85117-11.11111-11.11111V42.25412z M279.26282,43.84143v9.78836c0,5.42259,4.24442,9.25926,9.5238,9.25926
				s9.5238-4.10122,9.5238-9.52381v-9.5238h-19.04761V43.84143z"/>
			<line class="st3" x1="288.78662" y1="64.36523" x2="288.78662" y2="78.36523"/>
			<line class="st1" x1="282.78662" y1="43.36523" x2="282.78662" y2="28.36523"/>
			<line class="st1" x1="294.78662" y1="43.36523" x2="294.78662" y2="28.36523"/>
		</g>
	</g>
	<g>
		<polyline class="st4" points="37.78662,294.36523 37.78662,274.36523 17.78662,274.36523 		"/>
		<polyline class="st4" points="67.78662,294.36523 67.78662,274.36523 37.78662,274.36523 		"/>
		<polyline class="st4" points="97.78662,294.36523 97.78662,274.36523 67.78662,274.36523 		"/>
		<polyline class="st4" points="127.78662,294.36523 127.78662,274.36523 97.78662,274.36523 		"/>
		<g>
			<g>
				<line class="st2" x1="164.78662" y1="338.16367" x2="164.78662" y2="254.36523"/>
				<g>
					<polygon class="st0" points="166.82031,336.77667 164.78662,344.36523 162.75293,336.77667 					"/>
				</g>
			</g>
		</g>
		<g>
			<g>
				<line class="st2" x1="177.78662" y1="338.16367" x2="177.78662" y2="254.36523"/>
				<g>
					<polygon class="st0" points="179.82031,336.77667 177.78662,344.36523 175.75293,336.77667 					"/>
				</g>
			</g>
		</g>
		<g>
			<g>
				<line class="st2" x1="190.78662" y1="338.16367" x2="190.78662" y2="254.36523"/>
				<g>
					<polygon class="st0" points="192.82031,336.77667 190.78662,344.36523 188.75293,336.77667 					"/>
				</g>
			</g>
		</g>
		<g>
			<g>
				<line class="st2" x1="203.78662" y1="338.16367" x2="203.78662" y2="254.36523"/>
				<g>
					<polygon class="st0" points="205.82031,336.77667 203.78662,344.36523 201.75293,336.77667 					"/>
				</g>
			</g>
		</g>
		<g>
			<g>
				<line class="st2" x1="183.78662" y1="377.36523" x2="183.78662" y2="401.16367"/>
				<g>
					<polygon class="st0" points="181.75293,399.77667 183.78662,407.36523 185.82031,399.77667 					"/>
				</g>
			</g>
		</g>
		<g>
			<g>
				<line class="st2" x1="63.78662" y1="377.36523" x2="63.78662" y2="401.16367"/>
				<g>
					<polygon class="st0" points="61.75293,399.77667 63.78662,407.36523 65.82031,399.77667 					"/>
				</g>
			</g>
		</g>
		<g>
			<g>
				<line class="st2" x1="93.78662" y1="377.36523" x2="93.78662" y2="401.16367"/>
				<g>
					<polygon class="st0" points="91.75293,399.77667 93.78662,407.36523 95.82031,399.77667 					"/>
				</g>
			</g>
		</g>
		<g>
			<g>
				<line class="st2" x1="123.78662" y1="377.36523" x2="123.78662" y2="401.16367"/>
				<g>
					<polygon class="st0" points="121.75293,399.77667 123.78662,407.36523 125.82031,399.77667 					"/>
				</g>
			</g>
		</g>
		<g>
			<g>
				<line class="st2" x1="153.78662" y1="377.36523" x2="153.78662" y2="401.16367"/>
				<g>
					<polygon class="st0" points="151.75293,399.77667 153.78662,407.36523 155.82031,399.77667 					"/>
				</g>
			</g>
		</g>
		<g>
			<g>
				<line class="st2" x1="228.78662" y1="254.36523" x2="228.78662" y2="401.16367"/>
				<g>
					<polygon class="st0" points="226.75293,399.77667 228.78662,407.36523 230.82031,399.77667 					"/>
				</g>
			</g>
		</g>
		<g>
			<g>
				<line class="st2" x1="194.78662" y1="215.16367" x2="194.78662" y2="131.36523"/>
				<g>
					<polygon class="st0" points="196.82031,213.77667 194.78662,221.36523 192.75293,213.77667 					"/>
				</g>
			</g>
		</g>
		<g>
			<g>
				<line class="st2" x1="207.78662" y1="215.16367" x2="207.78662" y2="131.36523"/>
				<g>
					<polygon class="st0" points="209.82031,213.77667 207.78662,221.36523 205.75293,213.77667 					"/>
				</g>
			</g>
		</g>
		<g>
			<g>
				<line class="st2" x1="220.78662" y1="215.16367" x2="220.78662" y2="131.36523"/>
				<g>
					<polygon class="st0" points="222.82031,213.77667 220.78662,221.36523 218.75293,213.77667 					"/>
				</g>
			</g>
		</g>
		<g>
			<g>
				<line class="st2" x1="233.78662" y1="215.16367" x2="233.78662" y2="131.36523"/>
				<g>
					<polygon class="st0" points="235.82031,213.77667 233.78662,221.36523 231.75293,213.77667 					"/>
				</g>
			</g>
		</g>
		<g>
			<g>
				<line class="st2" x1="258.78662" y1="131.36523" x2="258.78662" y2="401.16367"/>
				<g>
					<polygon class="st0" points="256.75293,399.77667 258.78662,407.36523 260.82031,399.77667 					"/>
				</g>
			</g>
		</g>
		<polyline class="st3" points="157.78662,171.36523 157.78662,151.36523 17.78662,151.36523 		"/>
		<line class="st3" x1="67.78662" y1="171.36523" x2="67.78662" y2="151.36523"/>
		<line class="st3" x1="97.78662" y1="171.36523" x2="97.74651" y2="151.36523"/>
		<line class="st3" x1="127.78662" y1="171.36523" x2="127.74651" y2="151.36523"/>
		<polyline class="st3" points="169.78662,48.36523 169.78662,28.36523 17.78662,28.36523 		"/>
		<line class="st3" x1="97.78662" y1="48.36523" x2="97.78662" y2="28.36523"/>
		<line class="st3" x1="121.78662" y1="48.36523" x2="121.78662" y2="28.36523"/>
		<line class="st3" x1="145.78662" y1="48.36523" x2="145.78662" y2="28.36523"/>
		<polyline class="st3" points="17.78662,8.36523 282.78662,8.36523 282.78662,28.36523 		"/>
		<g>
			<g>
				<line class="st2" x1="288.78662" y1="401.16367" x2="288.78662" y2="77.36523"/>
				<g>
					<polygon class="st0" points="290.82031,399.77667 288.78662,407.36523 286.75293,399.77667 					"/>
				</g>
			</g>
		</g>
		<line class="st3" x1="210.78662" y1="28.36523" x2="210.89774" y2="8.36523"/>
		<line class="st3" x1="234.78662" y1="28.36523" x2="234.78662" y2="8.36523"/>
		<line class="st3" x1="258.78662" y1="28.36523" x2="258.78662" y2="8.36523"/>
		<g>
			<g>
				<line class="st1" x1="198.28662" y1="92.16368" x2="198.28662" y2="78.36523"/>
				<g>
					<polygon class="st0" points="200.32031,90.77666 198.28662,98.36523 196.25293,90.77666 					"/>
				</g>
			</g>
		</g>
		<circle class="st0" cx="97.78662" cy="28.36523" r="2.5"/>
		<circle class="st0" cx="121.78662" cy="28.36523" r="2.5"/>
		<circle class="st0" cx="145.78662" cy="28.36523" r="2.5"/>
		<circle class="st0" cx="210.78662" cy="8.36523" r="2.5"/>
		<circle class="st0" cx="234.78662" cy="8.36523" r="2.5"/>
		<circle class="st0" cx="258.78662" cy="8.36523" r="2.5"/>
		<circle class="st0" cx="67.78662" cy="151.36523" r="2.5"/>
		<circle class="st0" cx="97.78662" cy="151.36523" r="2.5"/>
		<circle class="st0" cx="127.78662" cy="151.36523" r="2.5"/>
		<circle class="st0" cx="37.78662" cy="274.36523" r="2.5"/>
		<circle class="st0" cx="67.78662" cy="274.36523" r="2.5"/>
		<circle class="st0" cx="97.78662" cy="274.36523" r="2.5"/>
	</g>
	<g id="Layer_3">
		<g>
			<path class="st0" d="M49.74316,288.78125h-4.44043c-0.22412,0-0.33643,0-0.33643-0.13965c0-0.2666,0.12646-0.2666,0.37842-0.2666
				c0.85449,0,0.93848-0.1123,1.06445-0.60254l1.91895-7.71777c0.02832-0.08398,0.02832-0.12598,0.02832-0.20996
				c0-0.22461-0.39209-0.22461-0.74268-0.22461c-0.26611,0-0.36426,0-0.36426-0.13965c0-0.2666,0.12646-0.2666,0.37842-0.2666
				h4.16016c1.52686,0,2.29736,0.91113,2.29736,1.8916c0,1.23242-1.23242,2.38086-2.73145,2.6748
				c1.09277,0.14063,1.91895,0.82715,1.91895,1.91895C53.27295,287.18457,51.66211,288.78125,49.74316,288.78125z
				 M50.72363,283.94824h-2.39551l-0.98047,3.97852c-0.05566,0.19629-0.05566,0.22461-0.05566,0.28027
				c0,0.1543,0.01367,0.16797,0.41992,0.16797h1.72314c1.48486,0,2.68945-1.37305,2.68945-2.84375
				C52.12451,284.81738,51.81641,283.94824,50.72363,283.94824z M51.60596,279.62012h-1.63867c-0.4624,0-0.56055,0-0.68652,0.53223
				l-0.86816,3.5166h1.83496c1.59668,0,2.70313-1.41504,2.70313-2.63379C52.95068,280.44629,52.71289,279.62012,51.60596,279.62012z
				"/>
			<path class="st0" d="M55.59912,293.61523c-0.90625,0-1.63281-0.59668-1.63281-1.32324c0-0.30957,0.2124-0.42383,0.4082-0.42383
				c0.229,0,0.40039,0.16309,0.40039,0.39941c0,0.29395-0.23682,0.44141-0.49805,0.40039
				c0.23682,0.53906,0.90625,0.72656,1.29785,0.72656c0.3999,0,0.95508-0.28613,0.95508-1.35547
				c0-0.7832-0.31006-1.35449-1.00391-1.35449h-0.37549c-0.14697,0-0.18799,0-0.18799-0.08203
				c0-0.07324,0.03271-0.08203,0.17139-0.08984l0.24512-0.02441c0.22021-0.00781,0.49805-0.0332,0.74268-0.3916
				c0.23682-0.35156,0.26123-0.80859,0.26123-0.96387c0-0.7998-0.53076-0.92188-0.7998-0.92188
				c-0.04102,0-0.80811,0-1.11865,0.55469c0.02441-0.00781,0.04102-0.00781,0.08984-0.00781
				c0.17969,0,0.37549,0.11426,0.37549,0.375c0,0.24512-0.1958,0.36719-0.36719,0.36719c-0.12256,0-0.37549-0.06445-0.37549-0.3916
				c0-0.5957,0.604-1.09375,1.42041-1.09375c0.79199,0,1.46143,0.47363,1.46143,1.11816c0,0.63672-0.45752,1.2334-1.16748,1.4375
				c0.78369,0.13867,1.3877,0.72559,1.3877,1.47754C57.28906,292.87207,56.5708,293.61523,55.59912,293.61523z"/>
		</g>
		<g>
			<path class="st0" d="M139.74316,288.78125h-4.44043c-0.22412,0-0.33643,0-0.33643-0.13965
				c0-0.2666,0.12646-0.2666,0.37842-0.2666c0.85449,0,0.93848-0.1123,1.06445-0.60254l1.91895-7.71777
				c0.02832-0.08398,0.02832-0.12598,0.02832-0.20996c0-0.22461-0.39209-0.22461-0.74268-0.22461
				c-0.26611,0-0.36426,0-0.36426-0.13965c0-0.2666,0.12646-0.2666,0.37842-0.2666h4.16016
				c1.52686,0,2.29736,0.91113,2.29736,1.8916c0,1.23242-1.23242,2.38086-2.73145,2.6748
				c1.09277,0.14063,1.91895,0.82715,1.91895,1.91895C143.27295,287.18457,141.66211,288.78125,139.74316,288.78125z
				 M140.72363,283.94824h-2.39551l-0.98047,3.97852c-0.05566,0.19629-0.05566,0.22461-0.05566,0.28027
				c0,0.1543,0.01367,0.16797,0.41992,0.16797h1.72314c1.48486,0,2.68945-1.37305,2.68945-2.84375
				C142.12451,284.81738,141.81641,283.94824,140.72363,283.94824z M141.60596,279.62012h-1.63867
				c-0.4624,0-0.56055,0-0.68652,0.53223l-0.86816,3.5166h1.83496c1.59668,0,2.70313-1.41504,2.70313-2.63379
				C142.95068,280.44629,142.71289,279.62012,141.60596,279.62012z"/>
			<path class="st0" d="M146.979,292.7168c-0.23682,0.47363-0.64502,0.89844-1.35547,0.89844
				c-0.42432,0-0.98779-0.19629-1.30615-0.81641c-0.29346-0.58008-0.35107-1.17578-0.35107-1.96777
				c0-0.88184,0.08203-1.3877,0.31055-1.90234c0.30176-0.67773,0.88135-0.91406,1.35498-0.91406
				c0.3999,0,0.98779,0.17969,1.32275,0.85742c0.29346,0.62012,0.33447,1.28125,0.33447,1.95898
				C147.28906,291.30469,147.27295,292.10449,146.979,292.7168z M146.5625,289.06738
				c-0.15527-0.70215-0.62842-0.88965-0.93896-0.88965c-0.35107,0-0.76709,0.25293-0.90576,0.7998
				c-0.13086,0.48242-0.13086,1.08594-0.13086,1.75586c0,0.57129,0,1.19141,0.08984,1.68164
				c0.15527,0.88965,0.68555,1.03613,0.94678,1.03613c0.28613,0,0.80029-0.1543,0.95508-1.05273
				c0.08984-0.49805,0.08984-1.11816,0.08984-1.66504C146.66846,290.17773,146.66846,289.5332,146.5625,289.06738z"/>
		</g>
		<g>
			<path class="st0" d="M107.50108,117.86053v1.5567c0,0.63342,0.05129,0.80399,1.28353,0.80399h0.34235v0.49624
				c-0.39365-0.03459-1.76247-0.03459-2.242-0.03459c-0.47894,0-1.83046,0-2.22411,0.03459v-0.49624h0.34235
				c1.24893,0,1.28293-0.17058,1.28293-0.80399v-1.5567h-4.49951v-0.49623l5.15023-7.99106
				c0.13658-0.20517,0.18787-0.20517,0.32506-0.20517c0.23917,0,0.23917,0.08588,0.23917,0.41035v7.78588h1.72848v0.49623H107.50108
				z M106.37202,110.91325l-4.15776,6.45106h4.15776V110.91325z"/>
			<path class="st0" d="M109.89219,117.48359v-0.92448h4.44823v0.92448H109.89219z"/>
			<path class="st0" d="M120.27496,120.88805c-1.09506,0-1.83106-0.65012-2.22471-1.28233l-0.61552,1.11176h-0.37635v-10.23246
				c0-0.8374-0.13718-0.95788-1.30083-0.95788v-0.49624l2.37859-0.18847v5.47528c0.58153-0.71811,1.38552-1.14635,2.3267-1.14635
				c1.89965,0,3.50764,1.67718,3.50764,3.85059C123.97047,119.22876,122.2426,120.88805,120.27496,120.88805z M120.36024,113.51371
				c-0.83859,0-1.59129,0.49623-2.00164,1.11295c-0.18848,0.27316-0.18848,0.30775-0.18848,0.61552v3.52494
				c0,0.29106,0,0.35905,0.22247,0.71811c0.29106,0.46284,0.88988,1.06166,1.81376,1.06166c0.85529,0,1.54-0.53083,1.88235-1.06166
				c0.41035-0.61552,0.58153-1.33482,0.58153-2.48118C122.67024,113.71889,120.87377,113.51371,120.36024,113.51371z"/>
			<path class="st0" d="M126.94251,120.68288c-0.49623,0-1.31753,0-1.79646,0.03459v-0.49624c1.11176,0,1.30023,0,1.30023-0.7694
				v-4.65459c0-0.83859-0.15388-0.94118-1.24894-0.94118v-0.49623l2.3267-0.18848v6.29717c0,0.66682,0.06859,0.7527,1.18095,0.7527
				v0.49624C128.12286,120.68288,127.13039,120.68288,126.94251,120.68288z M126.90792,111.20431
				c-0.44434,0-0.82069-0.37695-0.82069-0.82189c0-0.46164,0.35905-0.83739,0.83799-0.83739
				c0.41095,0,0.8213,0.32446,0.8213,0.83739C127.74651,110.79396,127.42146,111.20431,126.90792,111.20431z"/>
			<path class="st0" d="M133.16812,120.88805c-0.90659,0-2.17282-0.39246-2.17282-2.2927v-4.75598h-1.45471v-0.34235
				c1.5573-0.05129,2.17342-1.69388,2.19011-3.30187h0.37695v3.14799h2.41199v0.49623h-2.41199v4.79058
				c0,0.29105,0,1.88235,1.16306,1.88235c0.6674,0,1.16365-0.7193,1.16365-1.95035v-0.94117h0.37634v0.97457
				C134.8107,119.82758,134.24588,120.88805,133.16812,120.88805z"/>
			<path class="st0" d="M148.08141,120.80335c-0.73599,0-1.26624-0.61671-1.33482-1.42071
				c-0.32506,0.82188-1.09505,1.5054-2.22411,1.5054c-1.04376,0-2.61836-0.42705-2.61836-1.77857
				c0-1.31812,1.30083-2.75553,4.73988-2.80683v-0.68351c0-1.54-1.00977-2.19012-1.79646-2.19012
				c-0.68471,0-1.506,0.30776-1.89966,1.02587c0.25706,0,0.87259,0,0.87259,0.70141c0,0.41154-0.29047,0.70141-0.7014,0.70141
				c-0.39365,0-0.7187-0.23857-0.7187-0.73481c0-1.11295,1.07835-2.03623,2.48117-2.03623c0.7527,0,1.52271,0.23857,2.12152,0.78729
				c0.7527,0.66682,0.7527,1.35152,0.7527,2.27481v2.99411c0,0.25766,0,1.16425,0.65071,1.16425
				c0.23918,0,0.65012-0.13718,0.65012-1.11295v-0.95788h0.37636v0.95788
				C149.43294,120.56358,148.44046,120.80335,148.08141,120.80335z M146.644,116.6104
				c-0.61612,0.03459-3.52493,0.23977-3.52493,2.49907c0,0.82069,0.7014,1.43742,1.53999,1.43742
				c0.73601,0,1.98494-0.56542,1.98494-2.24141V116.6104z"/>
			<path class="st0" d="M156.10109,120.88805v-1.17975c-0.23976,0.32446-0.99246,1.17975-2.29269,1.17975
				c-1.88235,0-3.50764-1.67599-3.50764-3.8494c0-2.19012,1.71118-3.86729,3.69612-3.86729
				c1.04376,0,1.77916,0.59882,2.13881,1.09505v-3.7814c0-0.8374-0.13718-0.95788-1.30083-0.95788v-0.49624l2.37859-0.18847
				v10.42094c0,0.83858,0.1366,0.95787,1.30023,0.95787v0.49624L156.10109,120.88805z M156.10109,115.19089
				c0-0.30776,0-0.34235-0.20517-0.63342c-0.17117-0.27317-0.77-1.04376-1.83105-1.04376c-0.8553,0-1.54001,0.53083-1.88176,1.06165
				c-0.37636,0.56423-0.58212,1.24894-0.58212,2.47999c0,3.31976,1.84836,3.49154,2.29269,3.49154
				c0.8559,0,1.5573-0.49624,1.96765-1.09506c0.23976-0.37695,0.23976-0.42824,0.23976-0.736V115.19089z"/>
			<path class="st0" d="M165.4037,120.88805v-1.17975c-0.23917,0.32446-0.99246,1.17975-2.29269,1.17975
				c-1.88235,0-3.50764-1.67599-3.50764-3.8494c0-2.19012,1.71118-3.86729,3.69612-3.86729
				c1.04317,0,1.77916,0.59882,2.13821,1.09505v-3.7814c0-0.8374-0.13658-0.95788-1.30022-0.95788v-0.49624l2.37859-0.18847
				v10.42094c0,0.83858,0.13658,0.95787,1.30023,0.95787v0.49624L165.4037,120.88805z M165.4037,115.19089
				c0-0.30776,0-0.34235-0.20517-0.63342c-0.17117-0.27317-0.76999-1.04376-1.83105-1.04376
				c-0.85529,0-1.53999,0.53083-1.88176,1.06165c-0.37634,0.56423-0.58212,1.24894-0.58212,2.47999
				c0,3.31976,1.84836,3.49154,2.29271,3.49154c0.85588,0,1.55728-0.49624,1.96823-1.09506
				c0.23917-0.37695,0.23917-0.42824,0.23917-0.736V115.19089z"/>
			<path class="st0" d="M172.46552,120.88805c-1.89905,0-3.64423-1.65929-3.64423-3.91739c0-2.12212,1.5054-3.884,3.45634-3.884
				c2.07024,0,2.99411,1.60799,2.99411,3.33646c0,0.32446-0.03459,0.32446-0.41093,0.32446h-4.73929v0.32565
				c0,2.95952,1.72787,3.43905,2.44658,3.43905s1.86505-0.39365,2.31-1.83105c0.034-0.08589,0.06859-0.17059,0.20517-0.17059
				c0.1026,0,0.18848,0.06799,0.18848,0.17059C175.27174,119.04029,174.50175,120.88805,172.46552,120.88805z M172.26035,113.42902
				c-0.47894,0-1.98494,0.30776-2.12154,2.99411h4.07188C174.19339,115.841,174.09081,113.42902,172.26035,113.42902z"/>
			<path class="st0" d="M181.10191,114.84853c-0.27376,0-0.66742-0.18848-0.66742-0.68471
				c0-0.46164,0.27377-0.56423,0.41095-0.63223c-0.06859-0.01789-0.10258-0.01789-0.23976-0.01789
				c-1.31754,0-2.00165,1.55789-2.00165,3.21718v2.68635c0,0.61552,0.034,0.80399,1.28294,0.80399h0.34235v0.49624
				c-0.39365-0.03459-1.60799-0.03459-2.07024-0.03459c-0.51352,0-1.4547,0-1.93364,0.03459v-0.49624
				c1.11235,0,1.30083,0,1.30083-0.7694v-4.63789c0-0.83739-0.13718-0.95788-1.30083-0.95788v-0.49623l2.29269-0.18848v1.90025
				h0.0173c0.10258-0.32565,0.59882-1.90025,2.05353-1.90025c0.73541,0,1.19765,0.47953,1.19765,0.99247
				C181.78662,114.62666,181.44426,114.84853,181.10191,114.84853z"/>
		</g>
		<g>
			<path class="st0" d="M196.22949,252.10059c-1.03125,0-1.78711-0.4082-2.21875-0.8877l-0.39551,0.71973
				c-0.08398,0.14355-0.0957,0.16797-0.16797,0.16797c-0.12012,0-0.12012-0.05957-0.12012-0.27637v-2.42188
				c0-0.21582,0-0.27637,0.13184-0.27637c0,0,0.12012,0,0.13184,0.0957c0.0127,0.39648,0.06055,1.25977,0.75586,1.88379
				c0.58789,0.51563,1.33105,0.64746,1.87109,0.64746c0.99512,0,1.63086-0.85156,1.63086-1.75098
				c0-0.67188-0.37207-1.31934-0.93555-1.5957c-0.16797-0.07129-0.82715-0.23926-1.24707-0.33594
				c-0.85156-0.21582-1.27148-0.32324-1.69141-0.79102c-0.44336-0.47949-0.64746-1.00781-0.64746-1.58301
				c0-1.22363,0.97168-2.29102,2.30273-2.29102c0.52832,0,1.31934,0.14355,1.89551,0.8877l0.39551-0.73145
				c0.08398-0.15625,0.13184-0.15625,0.16797-0.15625c0.12012,0,0.12012,0.05957,0.12012,0.27539v2.42285
				c0,0.21582,0,0.27637-0.13184,0.27637c-0.12012,0-0.12012-0.04785-0.14453-0.19238
				c-0.07129-0.51563-0.33594-2.45801-2.30273-2.45801c-0.93555,0-1.60645,0.75488-1.60645,1.59473
				c0,0.76758,0.53906,1.36719,1.15039,1.52344l1.31934,0.33594c0.46777,0.11914,1.00781,0.25195,1.45117,0.79102
				c0.32422,0.39551,0.60059,0.93555,0.60059,1.66699C198.54492,250.96094,197.57324,252.10059,196.22949,252.10059z"/>
			<path class="st0" d="M203.78906,251.96875v-1.08008c0,0-0.19141,0.45605-0.53906,0.73242
				c-0.4082,0.34766-0.79199,0.34766-0.99609,0.34766c-0.61133,0-1.10254-0.14453-1.39063-0.45605
				c-0.36035-0.39551-0.36035-0.82715-0.36035-1.57129v-1.79883c0-1.06738,0-1.10352-0.91113-1.10352v-0.34766l1.69141-0.13184
				v3.96973c0,0.63574,0.05957,1.19922,1.04297,1.19922c0.89941,0,1.43945-0.85156,1.43945-1.87109v-2.14648
				c0-0.58789-0.0957-0.67188-0.91211-0.67188v-0.34766l1.69141-0.13184v4.26953c0,0.58789,0.0957,0.67188,0.91211,0.67188v0.34766
				L203.78906,251.96875z"/>
			<path class="st0" d="M213.93848,251.82422c-0.33496,0-0.9834,0-1.29492,0.02441v-0.34766c0.7793,0,0.91113,0,0.91113-0.54004
				v-2.81836c0-0.73145-0.16797-1.34277-0.91113-1.34277s-1.57129,0.6709-1.57129,1.93066v2.23047
				c0,0.54004,0.14453,0.54004,0.91211,0.54004v0.34766c-0.3125-0.02441-0.95996-0.02441-1.30762-0.02441
				c-0.33594,0-0.9834,0-1.2959,0.02441v-0.34766c0.78027,0,0.91211,0,0.91211-0.54004v-2.81836
				c0-0.73145-0.16797-1.34277-0.91211-1.34277c-0.74316,0-1.57031,0.6709-1.57031,1.93066v2.23047
				c0,0.54004,0.14355,0.54004,0.91113,0.54004v0.34766c-0.31152-0.02441-0.95898-0.02441-1.30762-0.02441
				c-0.33594,0-0.9834,0-1.29492,0.02441v-0.34766c0.7793,0,0.91113,0,0.91113-0.54004v-3.25
				c0-0.58789-0.0957-0.67188-0.91113-0.67188v-0.34766l1.63086-0.13184v1.23535h0.0127
				c0.0957-0.24023,0.55078-1.23535,1.71484-1.23535c0.75488,0,1.40332,0.26367,1.57129,1.1875
				c0.19141-0.46777,0.69531-1.1875,1.69043-1.1875c0.4082,0,0.97168,0.07227,1.31934,0.54004
				c0.27637,0.38379,0.27637,0.71875,0.27637,1.83496v2.20605c0.01172,0.36035,0.31152,0.36035,0.91113,0.36035v0.34766
				C214.93457,251.82422,214.28711,251.82422,213.93848,251.82422z"/>
		</g>
		<g>
			<path class="st0" d="M77.50108,240.86053v1.5567c0,0.63341,0.05129,0.804,1.28353,0.804h0.34235v0.49623
				c-0.39365-0.03459-1.76247-0.03459-2.242-0.03459c-0.47894,0-1.83046,0-2.22411,0.03459v-0.49623h0.34235
				c1.24893,0,1.28293-0.17059,1.28293-0.804v-1.5567h-4.49951v-0.49623l5.15023-7.99106
				c0.13658-0.20517,0.18787-0.20517,0.32506-0.20517c0.23917,0,0.23917,0.08589,0.23917,0.41035v7.78587h1.72848v0.49623H77.50108z
				 M76.37202,233.91325l-4.15776,6.45105h4.15776V233.91325z"/>
			<path class="st0" d="M79.89219,240.4836v-0.92448h4.44823v0.92448H79.89219z"/>
			<path class="st0" d="M90.27496,243.88805c-1.09506,0-1.83106-0.65012-2.22471-1.28233l-0.61552,1.11176h-0.37635V233.485
				c0-0.83739-0.13718-0.95787-1.30083-0.95787v-0.49623l2.37859-0.18848v5.47528c0.58153-0.71811,1.38552-1.14635,2.3267-1.14635
				c1.89965,0,3.50764,1.67719,3.50764,3.85059C93.97047,242.22876,92.2426,243.88805,90.27496,243.88805z M90.36024,236.5137
				c-0.83859,0-1.59129,0.49625-2.00164,1.11296c-0.18848,0.27316-0.18848,0.30775-0.18848,0.61552v3.52493
				c0,0.29106,0,0.35905,0.22247,0.71811c0.29106,0.46283,0.88988,1.06166,1.81376,1.06166c0.85529,0,1.54-0.53084,1.88235-1.06166
				c0.41035-0.61552,0.58153-1.33482,0.58153-2.48117C92.67024,236.71889,90.87377,236.5137,90.36024,236.5137z"/>
			<path class="st0" d="M96.94251,243.68288c-0.49623,0-1.31753,0-1.79646,0.03459v-0.49623c1.11176,0,1.30023,0,1.30023-0.76941
				v-4.65459c0-0.83859-0.15388-0.94118-1.24894-0.94118v-0.49623l2.3267-0.18848v6.29718c0,0.66681,0.06859,0.7527,1.18095,0.7527
				v0.49623C98.12286,243.68288,97.13039,243.68288,96.94251,243.68288z M96.90792,234.20432
				c-0.44434,0-0.82069-0.37695-0.82069-0.8219c0-0.46164,0.35905-0.83739,0.83799-0.83739c0.41095,0,0.8213,0.32446,0.8213,0.83739
				C97.74651,233.79396,97.42146,234.20432,96.90792,234.20432z"/>
			<path class="st0" d="M103.16811,243.88805c-0.90658,0-2.17281-0.39246-2.17281-2.29269v-4.75598h-1.45471v-0.34236
				c1.5573-0.0513,2.17342-1.69388,2.19012-3.30186h0.37695v3.14798h2.41199v0.49625h-2.41199v4.79057
				c0,0.29106,0,1.88235,1.16306,1.88235c0.66741,0,1.16364-0.71931,1.16364-1.95035v-0.94118h0.37635v0.97458
				C104.8107,242.82759,104.24588,243.88805,103.16811,243.88805z"/>
			<path class="st0" d="M118.08141,243.80336c-0.73601,0-1.26624-0.61671-1.33483-1.42072
				c-0.32506,0.82188-1.09505,1.5054-2.22411,1.5054c-1.04376,0-2.61835-0.42705-2.61835-1.77856
				c0-1.31813,1.30083-2.75554,4.73988-2.80684v-0.68352c0-1.53999-1.00977-2.19011-1.79646-2.19011
				c-0.68471,0-1.506,0.30775-1.89965,1.02586c0.25706,0,0.87258,0,0.87258,0.70142c0,0.41154-0.29046,0.70142-0.70141,0.70142
				c-0.39365,0-0.7187-0.23859-0.7187-0.73482c0-1.11295,1.07836-2.03624,2.48118-2.03624c0.7527,0,1.5227,0.23859,2.12152,0.78731
				c0.7527,0.66681,0.7527,1.35152,0.7527,2.2748v2.99411c0,0.25768,0,1.16425,0.65072,1.16425
				c0.23917,0,0.65011-0.13718,0.65011-1.11295v-0.95787h0.37636v0.95787
				C119.43294,243.56358,118.44047,243.80336,118.08141,243.80336z M116.644,239.61041
				c-0.61612,0.03459-3.52494,0.23976-3.52494,2.49907c0,0.82069,0.70141,1.43741,1.54,1.43741
				c0.736,0,1.98494-0.56543,1.98494-2.24141V239.61041z"/>
			<path class="st0" d="M126.10109,243.88805v-1.17975c-0.23976,0.32446-0.99247,1.17975-2.2927,1.17975
				c-1.88235,0-3.50764-1.67598-3.50764-3.8494c0-2.19011,1.71117-3.86729,3.69611-3.86729
				c1.04376,0,1.77917,0.59882,2.13882,1.09506V233.485c0-0.83739-0.13718-0.95787-1.30083-0.95787v-0.49623l2.37859-0.18848
				v10.42093c0,0.83859,0.13658,0.95789,1.30022,0.95789v0.49623L126.10109,243.88805z M126.10109,238.19089
				c0-0.30775,0-0.34235-0.20517-0.63341c-0.17118-0.27318-0.77-1.04378-1.83106-1.04378c-0.85529,0-1.54,0.53084-1.88175,1.06166
				c-0.37636,0.56424-0.58212,1.24895-0.58212,2.47998c0,3.31976,1.84835,3.49155,2.2927,3.49155
				c0.85588,0,1.55729-0.49625,1.96764-1.09506c0.23976-0.37695,0.23976-0.42824,0.23976-0.73601V238.19089z"/>
			<path class="st0" d="M135.4037,243.88805v-1.17975c-0.23917,0.32446-0.99246,1.17975-2.29269,1.17975
				c-1.88235,0-3.50764-1.67598-3.50764-3.8494c0-2.19011,1.71118-3.86729,3.69612-3.86729
				c1.04317,0,1.77916,0.59882,2.13821,1.09506V233.485c0-0.83739-0.13658-0.95787-1.30022-0.95787v-0.49623l2.37859-0.18848
				v10.42093c0,0.83859,0.13658,0.95789,1.30023,0.95789v0.49623L135.4037,243.88805z M135.4037,238.19089
				c0-0.30775,0-0.34235-0.20517-0.63341c-0.17117-0.27318-0.76999-1.04378-1.83105-1.04378
				c-0.85529,0-1.53999,0.53084-1.88176,1.06166c-0.37634,0.56424-0.58212,1.24895-0.58212,2.47998
				c0,3.31976,1.84836,3.49155,2.29271,3.49155c0.85588,0,1.55728-0.49625,1.96823-1.09506
				c0.23917-0.37695,0.23917-0.42824,0.23917-0.73601V238.19089z"/>
			<path class="st0" d="M142.46552,243.88805c-1.89905,0-3.64423-1.65929-3.64423-3.91739c0-2.12212,1.5054-3.884,3.45634-3.884
				c2.07024,0,2.99411,1.608,2.99411,3.33647c0,0.32446-0.03459,0.32446-0.41093,0.32446h-4.73929v0.32565
				c0,2.95952,1.72787,3.43906,2.44658,3.43906s1.86505-0.39365,2.31-1.83107c0.034-0.08588,0.06859-0.17058,0.20517-0.17058
				c0.1026,0,0.18848,0.06799,0.18848,0.17058C145.27174,242.04028,144.50175,243.88805,142.46552,243.88805z M142.26035,236.42902
				c-0.47894,0-1.98494,0.30775-2.12154,2.99411h4.07188C144.19339,238.841,144.09081,236.42902,142.26035,236.42902z"/>
			<path class="st0" d="M151.10191,237.84854c-0.27376,0-0.66742-0.18848-0.66742-0.68472
				c0-0.46164,0.27377-0.56422,0.41095-0.63222c-0.06859-0.0179-0.10258-0.0179-0.23976-0.0179
				c-1.31754,0-2.00165,1.55789-2.00165,3.21718v2.68636c0,0.61552,0.034,0.804,1.28294,0.804h0.34235v0.49623
				c-0.39365-0.03459-1.60799-0.03459-2.07024-0.03459c-0.51352,0-1.4547,0-1.93364,0.03459v-0.49623
				c1.11235,0,1.30083,0,1.30083-0.76941v-4.63789c0-0.83739-0.13718-0.95787-1.30083-0.95787v-0.49623l2.29269-0.18848v1.90024
				h0.0173c0.10258-0.32565,0.59882-1.90024,2.05353-1.90024c0.73541,0,1.19765,0.47954,1.19765,0.99246
				C151.78662,237.62666,151.44426,237.84854,151.10191,237.84854z"/>
		</g>
		<g>
			<path class="st0" d="M196.61133,119.73242c-0.06006,0-0.15576,0-0.15576-0.1084v-0.10742
				c0.03564-0.18066,0.05957-0.45605,0.05957-0.63574c0-0.52832-0.14355-2.19531-1.69092-2.19531
				c-1.10352,0-2.19482,0.7793-2.80664,1.60742c-1.16309,1.60742-1.29492,3.6582-1.29492,3.99414
				c0,1.63086,0.9834,2.39844,2.07471,2.39844c1.11523,0,2.51855-0.93555,3.05811-2.77051
				c0.03613-0.1084,0.08398-0.12012,0.18018-0.12012c0.07178,0,0.16797,0,0.16797,0.10742c0,0-0.19189,1.08008-1.23535,2.11133
				c-0.09619,0.08398-1.04346,1.01953-2.35059,1.01953c-1.52344,0-2.84277-1.12793-2.84277-3.16602
				c0-2.84277,2.54297-5.5293,4.96533-5.5293c0.77979,0,1.39111,0.35938,1.7749,1.06738l0.77979-0.95898
				c0.08398-0.1084,0.15576-0.1084,0.15576-0.1084s0.10791,0,0.10791,0.1084c0,0-0.01172,0.11914-0.02393,0.15527l-0.73145,2.92676
				C196.75537,119.71973,196.73096,119.73242,196.61133,119.73242z"/>
			<path class="st0" d="M199.26514,128.15527c-0.20264,0.40527-0.55225,0.76855-1.16016,0.76855
				c-0.36328,0-0.8457-0.16699-1.11816-0.69824c-0.25146-0.49609-0.30029-1.00684-0.30029-1.68457
				c0-0.75488,0.06982-1.18848,0.26563-1.62793c0.2583-0.58008,0.75439-0.7832,1.16016-0.7832
				c0.34229,0,0.84521,0.1543,1.13184,0.7334c0.25146,0.53125,0.28662,1.09766,0.28662,1.67773
				C199.53076,126.94629,199.5166,127.63086,199.26514,128.15527z M198.90869,125.03125
				c-0.13281-0.60059-0.53809-0.76172-0.80371-0.76172c-0.30029,0-0.65674,0.2168-0.77539,0.68555
				c-0.11182,0.41211-0.11182,0.92871-0.11182,1.50195c0,0.48926,0,1.02051,0.07666,1.43945
				c0.13281,0.76172,0.58691,0.8877,0.81055,0.8877c0.24463,0,0.68506-0.13281,0.81787-0.90137
				c0.07666-0.42676,0.07666-0.95703,0.07666-1.42578C198.99951,125.98242,198.99951,125.42969,198.90869,125.03125z"/>
		</g>
		<g>
			<path class="st0" d="M47.50108,363.86053v1.5567c0,0.63342,0.0513,0.80399,1.28353,0.80399h0.34235v0.49625
				c-0.39365-0.03461-1.76247-0.03461-2.242-0.03461c-0.47894,0-1.83046,0-2.22411,0.03461v-0.49625h0.34235
				c1.24894,0,1.28294-0.17056,1.28294-0.80399v-1.5567h-4.49952v-0.49625l5.15023-7.99103
				c0.13659-0.2052,0.18788-0.2052,0.32506-0.2052c0.23917,0,0.23917,0.08591,0.23917,0.41037v7.78586h1.72847v0.49625H47.50108z
				 M46.37202,356.91324l-4.15776,6.45105h4.15776V356.91324z"/>
			<path class="st0" d="M49.89219,363.48358v-0.92447h4.44822v0.92447H49.89219z"/>
			<path class="st0" d="M60.27495,366.88806c-1.09505,0-1.83106-0.65012-2.2247-1.28235l-0.61552,1.11176h-0.37635v-10.23245
				c0-0.8374-0.13718-0.95789-1.30083-0.95789v-0.49625l2.37859-0.18848v5.47531c0.58153-0.71811,1.38552-1.14636,2.3267-1.14636
				c1.89965,0,3.50764,1.67719,3.50764,3.85059C63.97047,365.22876,62.2426,366.88806,60.27495,366.88806z M60.36024,359.5137
				c-0.83859,0-1.59129,0.49625-2.00164,1.11295c-0.18848,0.27319-0.18848,0.30777-0.18848,0.61554v3.52493
				c0,0.29105,0,0.35907,0.22247,0.71811c0.29106,0.46283,0.88988,1.06165,1.81376,1.06165c0.85529,0,1.54-0.53082,1.88235-1.06165
				c0.41035-0.61551,0.58153-1.33484,0.58153-2.48117C62.67024,359.71887,60.87378,359.5137,60.36024,359.5137z"/>
			<path class="st0" d="M66.94251,366.68286c-0.49623,0-1.31753,0-1.79646,0.03461v-0.49625c1.11176,0,1.30023,0,1.30023-0.76938
				v-4.6546c0-0.83859-0.15388-0.94116-1.24894-0.94116v-0.49625l2.3267-0.18848v6.29718c0,0.66681,0.06859,0.75269,1.18095,0.75269
				v0.49625C68.12286,366.68286,67.13039,366.68286,66.94251,366.68286z M66.90792,357.20432
				c-0.44434,0-0.82069-0.37695-0.82069-0.8219c0-0.46164,0.35905-0.8374,0.83799-0.8374c0.41095,0,0.8213,0.32446,0.8213,0.8374
				C67.74651,356.79395,67.42146,357.20432,66.90792,357.20432z"/>
			<path class="st0" d="M73.16811,366.88806c-0.90658,0-2.17281-0.39246-2.17281-2.29272v-4.75598h-1.45471v-0.34235
				c1.5573-0.0513,2.17342-1.69388,2.19012-3.30188h0.37695v3.14801h2.41199v0.49622h-2.41199v4.79059
				c0,0.29105,0,1.88235,1.16306,1.88235c0.66741,0,1.16364-0.7193,1.16364-1.95035v-0.94119h0.37635v0.97458
				C74.8107,365.82758,74.24588,366.88806,73.16811,366.88806z"/>
			<path class="st0" d="M88.08141,366.80334c-0.73601,0-1.26624-0.6167-1.33483-1.42072
				c-0.32506,0.8219-1.09505,1.50543-2.22411,1.50543c-1.04376,0-2.61835-0.42706-2.61835-1.77859
				c0-1.31812,1.30083-2.75552,4.73988-2.80682v-0.6835c0-1.54001-1.00977-2.19012-1.79646-2.19012
				c-0.68471,0-1.506,0.30777-1.89965,1.02588c0.25706,0,0.87258,0,0.87258,0.70139c0,0.41156-0.29046,0.70142-0.70141,0.70142
				c-0.39365,0-0.7187-0.23856-0.7187-0.7348c0-1.11295,1.07836-2.03622,2.48118-2.03622c0.7527,0,1.5227,0.23856,2.12152,0.78729
				c0.7527,0.66681,0.7527,1.35153,0.7527,2.27481v2.99411c0,0.25766,0,1.16425,0.65072,1.16425
				c0.23917,0,0.65011-0.13718,0.65011-1.11295v-0.95789h0.37636v0.95789C89.43294,366.5636,88.44047,366.80334,88.08141,366.80334z
				 M86.644,362.61041c-0.61612,0.03458-3.52494,0.23978-3.52494,2.49905c0,0.82071,0.70141,1.43741,1.54,1.43741
				c0.736,0,1.98494-0.5654,1.98494-2.24139V362.61041z"/>
			<path class="st0" d="M96.10109,366.88806v-1.17978c-0.23976,0.32446-0.99247,1.17978-2.2927,1.17978
				c-1.88235,0-3.50764-1.67599-3.50764-3.84943c0-2.19009,1.71117-3.86728,3.69611-3.86728
				c1.04376,0,1.77917,0.59882,2.13882,1.09506v-3.7814c0-0.8374-0.13718-0.95789-1.30083-0.95789v-0.49625l2.37859-0.18848
				v10.42096c0,0.83859,0.13658,0.95786,1.30023,0.95786v0.49625L96.10109,366.88806z M96.10109,361.19089
				c0-0.30777,0-0.34235-0.20517-0.63342c-0.17118-0.27316-0.77-1.04376-1.83106-1.04376c-0.85529,0-1.54,0.53082-1.88175,1.06168
				c-0.37636,0.56421-0.58212,1.24893-0.58212,2.47998c0,3.31976,1.84835,3.49152,2.2927,3.49152
				c0.85588,0,1.55729-0.49622,1.96764-1.09503c0.23976-0.37695,0.23976-0.42825,0.23976-0.73602V361.19089z"/>
			<path class="st0" d="M105.40371,366.88806v-1.17978c-0.23917,0.32446-0.99247,1.17978-2.2927,1.17978
				c-1.88235,0-3.50764-1.67599-3.50764-3.84943c0-2.19009,1.71118-3.86728,3.69612-3.86728
				c1.04317,0,1.77917,0.59882,2.13822,1.09506v-3.7814c0-0.8374-0.13658-0.95789-1.30023-0.95789v-0.49625l2.37859-0.18848
				v10.42096c0,0.83859,0.13659,0.95786,1.30023,0.95786v0.49625L105.40371,366.88806z M105.40371,361.19089
				c0-0.30777,0-0.34235-0.20518-0.63342c-0.17117-0.27316-0.77-1.04376-1.83105-1.04376c-0.85529,0-1.54,0.53082-1.88176,1.06168
				c-0.37635,0.56421-0.58212,1.24893-0.58212,2.47998c0,3.31976,1.84836,3.49152,2.2927,3.49152
				c0.85589,0,1.5573-0.49622,1.96824-1.09503c0.23917-0.37695,0.23917-0.42825,0.23917-0.73602V361.19089z"/>
			<path class="st0" d="M112.46552,366.88806c-1.89906,0-3.64423-1.6593-3.64423-3.91742c0-2.1221,1.5054-3.88397,3.45634-3.88397
				c2.07024,0,2.99411,1.60797,2.99411,3.33646c0,0.32446-0.03459,0.32446-0.41094,0.32446h-4.73928v0.32565
				c0,2.9595,1.72787,3.43906,2.44658,3.43906s1.86506-0.39365,2.31-1.83105c0.034-0.08591,0.0686-0.17059,0.20518-0.17059
				c0.10258,0,0.18847,0.06799,0.18847,0.17059C115.27174,365.04028,114.50175,366.88806,112.46552,366.88806z M112.26034,359.42902
				c-0.47894,0-1.98494,0.30777-2.12152,2.99411h4.07187C114.19339,361.841,114.09081,359.42902,112.26034,359.42902z"/>
			<path class="st0" d="M121.10191,360.84854c-0.27377,0-0.66741-0.18848-0.66741-0.68472c0-0.46164,0.27377-0.56421,0.41094-0.6322
				c-0.06859-0.01791-0.10258-0.01791-0.23977-0.01791c-1.31753,0-2.00164,1.55789-2.00164,3.21719v2.68634
				c0,0.61551,0.034,0.80399,1.28294,0.80399h0.34235v0.49625c-0.39365-0.03461-1.60799-0.03461-2.07023-0.03461
				c-0.51353,0-1.45471,0-1.93365,0.03461v-0.49625c1.11235,0,1.30083,0,1.30083-0.76938v-4.63791
				c0-0.8374-0.13718-0.95786-1.30083-0.95786v-0.49625l2.2927-0.18848v1.90024h0.0173
				c0.10258-0.32565,0.59882-1.90024,2.05353-1.90024c0.73541,0,1.19765,0.47952,1.19765,0.99246
				C121.78662,360.62665,121.44427,360.84854,121.10191,360.84854z"/>
		</g>
		<g>
			<path class="st0" d="M166.61133,242.73242c-0.06006,0-0.15576,0-0.15576-0.1084v-0.10742
				c0.03564-0.18066,0.05957-0.45605,0.05957-0.63574c0-0.52832-0.14355-2.19531-1.69092-2.19531
				c-1.10352,0-2.19482,0.7793-2.80664,1.60742c-1.16309,1.60742-1.29492,3.6582-1.29492,3.99414
				c0,1.63086,0.9834,2.39844,2.07471,2.39844c1.11523,0,2.51855-0.93555,3.05811-2.77051
				c0.03613-0.1084,0.08398-0.12012,0.18018-0.12012c0.07178,0,0.16797,0,0.16797,0.10742c0,0-0.19189,1.08008-1.23535,2.11133
				c-0.09619,0.08398-1.04346,1.01953-2.35059,1.01953c-1.52344,0-2.84277-1.12793-2.84277-3.16602
				c0-2.84277,2.54297-5.5293,4.96533-5.5293c0.77979,0,1.39111,0.35938,1.7749,1.06738l0.77979-0.95898
				c0.08398-0.1084,0.15576-0.1084,0.15576-0.1084s0.10791,0,0.10791,0.1084c0,0-0.01172,0.11914-0.02393,0.15527l-0.73145,2.92676
				C166.75537,242.71973,166.73096,242.73242,166.61133,242.73242z"/>
			<path class="st0" d="M168.1748,251.76367c-0.23047,0-0.9082,0-1.09717,0.01367v-0.20313h0.2168
				c0.61523,0,0.63574-0.08301,0.63574-0.33496v-3.64063c-0.38428,0.18164-0.7334,0.18164-0.89453,0.18164v-0.20313
				c0.72021,0,1.06934-0.25879,1.2373-0.44727c0.13965,0,0.13965,0.00684,0.13965,0.16797v3.94141
				c0,0.25195,0.021,0.33496,0.63574,0.33496h0.2168v0.20313C169.07666,251.76367,168.40576,251.76367,168.1748,251.76367z"/>
		</g>
		<g>
			<path class="st0" d="M57.61133,383.73242c-0.06006,0-0.15576,0-0.15576-0.1084v-0.10742
				c0.03564-0.18066,0.05957-0.45605,0.05957-0.63574c0-0.52832-0.14355-2.19531-1.69092-2.19531
				c-1.10352,0-2.19482,0.7793-2.80664,1.60742c-1.16309,1.60742-1.29492,3.6582-1.29492,3.99414
				c0,1.63086,0.9834,2.39844,2.07471,2.39844c1.11523,0,2.51855-0.93555,3.05811-2.77051
				c0.03613-0.1084,0.08398-0.12012,0.18018-0.12012c0.07178,0,0.16797,0,0.16797,0.10742c0,0-0.19189,1.08008-1.23535,2.11133
				c-0.09619,0.08398-1.04346,1.01953-2.35059,1.01953c-1.52344,0-2.84277-1.12793-2.84277-3.16602
				c0-2.84277,2.54297-5.5293,4.96533-5.5293c0.77979,0,1.39111,0.35938,1.7749,1.06738l0.77979-0.95898
				c0.08398-0.1084,0.15576-0.1084,0.15576-0.1084s0.10791,0,0.10791,0.1084c0,0-0.01172,0.11914-0.02393,0.15527l-0.73145,2.92676
				C57.75537,383.71973,57.73096,383.73242,57.61133,383.73242z"/>
			<path class="st0" d="M60.29297,392.77734h-2.55078v-0.16797l1.41162-1.5791c0.39844-0.44727,0.74121-0.96484,0.74121-1.55859
				c0-0.64258-0.36377-1.13867-0.95752-1.13867c-0.45459,0-0.83154,0.32129-0.96436,0.7959
				c0.021-0.00684,0.03467-0.00684,0.09766-0.00684c0.1958,0,0.32861,0.13281,0.32861,0.3291
				c0,0.22363-0.18164,0.32813-0.32861,0.32813c-0.021,0-0.32861,0-0.32861-0.35645c0-0.60059,0.47559-1.29297,1.28613-1.29297
				s1.44678,0.53809,1.44678,1.3418c0,0.69238-0.3916,1.05566-1.4541,2.03418c-0.18164,0.16699-0.60791,0.61426-0.79639,0.77539
				h1.29297c0.20947,0,0.60791,0,0.65674-0.0625c0.06982-0.1123,0.12598-0.49707,0.14697-0.61523h0.15381L60.29297,392.77734z"/>
		</g>
		<g>
			<path class="st0" d="M225.22949,129.10059c-1.03125,0-1.78711-0.4082-2.21875-0.8877l-0.39551,0.71973
				c-0.08398,0.14355-0.0957,0.16797-0.16797,0.16797c-0.12012,0-0.12012-0.05957-0.12012-0.27637v-2.42188
				c0-0.21582,0-0.27637,0.13184-0.27637c0,0,0.12012,0,0.13184,0.0957c0.0127,0.39648,0.06055,1.25977,0.75586,1.8838
				c0.58789,0.51563,1.33105,0.64746,1.87109,0.64746c0.99512,0,1.63086-0.85156,1.63086-1.75098
				c0-0.67188-0.37207-1.31934-0.93555-1.5957c-0.16797-0.07129-0.82715-0.23926-1.24707-0.33594
				c-0.85156-0.21582-1.27148-0.32324-1.69141-0.79102c-0.44336-0.47949-0.64746-1.00781-0.64746-1.58301
				c0-1.22363,0.97168-2.29102,2.30273-2.29102c0.52832,0,1.31934,0.14355,1.89551,0.8877l0.39551-0.73145
				c0.08398-0.15625,0.13184-0.15625,0.16797-0.15625c0.12012,0,0.12012,0.05957,0.12012,0.27539v2.42285
				c0,0.21582,0,0.27637-0.13184,0.27637c-0.12012,0-0.12012-0.04785-0.14453-0.19238
				c-0.07129-0.51563-0.33594-2.45801-2.30273-2.45801c-0.93555,0-1.60645,0.75488-1.60645,1.59473
				c0,0.76758,0.53906,1.36719,1.15039,1.52344l1.31934,0.33594c0.46777,0.11914,1.00781,0.25195,1.45117,0.79102
				c0.32422,0.39551,0.60059,0.93555,0.60059,1.66699C227.54492,127.96094,226.57324,129.10059,225.22949,129.10059z"/>
			<path class="st0" d="M232.78906,128.96875v-1.08008c0,0-0.19141,0.45605-0.53906,0.73242
				c-0.4082,0.34766-0.79199,0.34766-0.99609,0.34766c-0.61133,0-1.10254-0.14453-1.39063-0.45605
				c-0.36035-0.39551-0.36035-0.82715-0.36035-1.57129v-1.79883c0-1.06738,0-1.10352-0.91113-1.10352v-0.34766l1.69141-0.13184
				v3.96973c0,0.63574,0.05957,1.19922,1.04297,1.19922c0.89941,0,1.43945-0.85156,1.43945-1.87109v-2.14648
				c0-0.58789-0.0957-0.67188-0.91211-0.67188v-0.34766l1.69141-0.13184v4.26953c0,0.58788,0.0957,0.67188,0.91211,0.67188v0.34766
				L232.78906,128.96875z"/>
			<path class="st0" d="M242.93848,128.82422c-0.33496,0-0.9834,0-1.29492,0.02441v-0.34766c0.7793,0,0.91113,0,0.91113-0.54004
				v-2.81836c0-0.73145-0.16797-1.34277-0.91113-1.34277s-1.57129,0.6709-1.57129,1.93066v2.23047
				c0,0.54005,0.14453,0.54005,0.91211,0.54005v0.34766c-0.3125-0.02441-0.95996-0.02441-1.30762-0.02441
				c-0.33594,0-0.9834,0-1.2959,0.02441v-0.34766c0.78027,0,0.91211,0,0.91211-0.54004v-2.81836
				c0-0.73145-0.16797-1.34277-0.91211-1.34277c-0.74316,0-1.57031,0.6709-1.57031,1.93066v2.23047
				c0,0.54005,0.14355,0.54005,0.91113,0.54005v0.34766c-0.31152-0.02441-0.95898-0.02441-1.30762-0.02441
				c-0.33594,0-0.9834,0-1.29492,0.02441v-0.34766c0.7793,0,0.91113,0,0.91113-0.54004v-3.25
				c0-0.58789-0.0957-0.67188-0.91113-0.67188v-0.34766l1.63086-0.13184v1.23535h0.0127
				c0.0957-0.24023,0.55078-1.23535,1.71484-1.23535c0.75488,0,1.40332,0.26367,1.57129,1.1875
				c0.19141-0.46777,0.69531-1.1875,1.69043-1.1875c0.4082,0,0.97168,0.07227,1.31934,0.54004
				c0.27637,0.38379,0.27637,0.71875,0.27637,1.83496v2.20605c0.01172,0.36035,0.31152,0.36035,0.91113,0.36035v0.34766
				C243.93457,128.82422,243.28711,128.82422,242.93848,128.82422z"/>
		</g>
		<g>
			<path class="st0" d="M109.74316,288.78125h-4.44043c-0.22412,0-0.33643,0-0.33643-0.13965
				c0-0.2666,0.12646-0.2666,0.37842-0.2666c0.85449,0,0.93848-0.1123,1.06445-0.60254l1.91895-7.71777
				c0.02832-0.08398,0.02832-0.12598,0.02832-0.20996c0-0.22461-0.39209-0.22461-0.74268-0.22461
				c-0.26611,0-0.36426,0-0.36426-0.13965c0-0.2666,0.12646-0.2666,0.37842-0.2666h4.16016
				c1.52686,0,2.29736,0.91113,2.29736,1.8916c0,1.23242-1.23242,2.38086-2.73145,2.6748
				c1.09277,0.14063,1.91895,0.82715,1.91895,1.91895C113.27295,287.18457,111.66211,288.78125,109.74316,288.78125z
				 M110.72363,283.94824h-2.39551l-0.98047,3.97852c-0.05566,0.19629-0.05566,0.22461-0.05566,0.28027
				c0,0.1543,0.01367,0.16797,0.41992,0.16797h1.72314c1.48486,0,2.68945-1.37305,2.68945-2.84375
				C112.12451,284.81738,111.81641,283.94824,110.72363,283.94824z M111.60596,279.62012h-1.63867
				c-0.4624,0-0.56055,0-0.68652,0.53223l-0.86816,3.5166h1.83496c1.59668,0,2.70313-1.41504,2.70313-2.63379
				C112.95068,280.44629,112.71289,279.62012,111.60596,279.62012z"/>
			<path class="st0" d="M115.70557,293.42676c-0.26953,0-1.06152,0-1.28174,0.0166v-0.23633h0.25293
				c0.71826,0,0.74268-0.09863,0.74268-0.39258v-4.25293c-0.44873,0.21191-0.85693,0.21191-1.04492,0.21191v-0.23633
				c0.84082,0,1.24902-0.30176,1.44531-0.52246c0.16309,0,0.16309,0.00781,0.16309,0.19629v4.60352
				c0,0.29395,0.02441,0.39258,0.74268,0.39258h0.25342v0.23633C116.7583,293.42676,115.97461,293.42676,115.70557,293.42676z"/>
		</g>
		<g>
			<path class="st0" d="M200.57471,74.39941c-0.40625,0.8125-1.10645,1.54053-2.3252,1.54053
				c-0.72852,0-1.69531-0.33594-2.24121-1.40039c-0.50488-0.99463-0.60254-2.01709-0.60254-3.37598
				c0-1.5127,0.14063-2.38135,0.53223-3.26367c0.51855-1.1626,1.5127-1.56885,2.3252-1.56885
				c0.68652,0,1.69531,0.30811,2.26953,1.4707c0.50391,1.06445,0.57422,2.19922,0.57422,3.36182
				C201.10693,71.97607,201.07861,73.34863,200.57471,74.39941z M199.85986,68.1377
				c-0.26563-1.20459-1.07813-1.52637-1.61035-1.52637c-0.60254,0-1.31641,0.43408-1.55469,1.37256
				c-0.22461,0.82666-0.22461,1.86279-0.22461,3.01172c0,0.98047,0,2.04492,0.1543,2.88525
				c0.2666,1.52686,1.17676,1.7793,1.625,1.7793c0.49023,0,1.37305-0.26611,1.63867-1.80713
				c0.1543-0.85449,0.1543-1.91895,0.1543-2.85742C200.04248,70.04297,200.04248,68.93652,199.85986,68.1377z"/>
		</g>
		<g>
			<path class="st0" d="M79.74316,288.78125h-4.44043c-0.22412,0-0.33643,0-0.33643-0.13965c0-0.2666,0.12646-0.2666,0.37842-0.2666
				c0.85449,0,0.93848-0.1123,1.06445-0.60254l1.91895-7.71777c0.02832-0.08398,0.02832-0.12598,0.02832-0.20996
				c0-0.22461-0.39209-0.22461-0.74268-0.22461c-0.26611,0-0.36426,0-0.36426-0.13965c0-0.2666,0.12646-0.2666,0.37842-0.2666
				h4.16016c1.52686,0,2.29736,0.91113,2.29736,1.8916c0,1.23242-1.23242,2.38086-2.73145,2.6748
				c1.09277,0.14063,1.91895,0.82715,1.91895,1.91895C83.27295,287.18457,81.66211,288.78125,79.74316,288.78125z
				 M80.72363,283.94824h-2.39551l-0.98047,3.97852c-0.05566,0.19629-0.05566,0.22461-0.05566,0.28027
				c0,0.1543,0.01367,0.16797,0.41992,0.16797h1.72314c1.48486,0,2.68945-1.37305,2.68945-2.84375
				C82.12451,284.81738,81.81641,283.94824,80.72363,283.94824z M81.60596,279.62012h-1.63867c-0.4624,0-0.56055,0-0.68652,0.53223
				l-0.86816,3.5166h1.83496c1.59668,0,2.70313-1.41504,2.70313-2.63379C82.95068,280.44629,82.71289,279.62012,81.60596,279.62012z
				"/>
			<path class="st0" d="M87.01172,293.44336h-2.97998v-0.19629l1.64893-1.84473c0.46533-0.52246,0.86572-1.12598,0.86572-1.82031
				c0-0.75098-0.4248-1.33105-1.11865-1.33105c-0.53076,0-0.97119,0.37598-1.12646,0.93066
				c0.02441-0.00781,0.04102-0.00781,0.11426-0.00781c0.22852,0,0.38379,0.15527,0.38379,0.38379
				c0,0.26074-0.2124,0.38379-0.38379,0.38379c-0.02441,0-0.38379,0-0.38379-0.41602c0-0.70215,0.55518-1.51074,1.50195-1.51074
				c0.94727,0,1.68994,0.62891,1.68994,1.56738c0,0.80859-0.45703,1.23242-1.69775,2.37598
				c-0.2124,0.19531-0.71045,0.71777-0.93066,0.90527h1.51025c0.24463,0,0.70996,0,0.76709-0.07324
				c0.08203-0.12988,0.14697-0.5791,0.17139-0.71777h0.17969L87.01172,293.44336z"/>
		</g>
		<g>
			<path class="st0" d="M79.74316,165.78125h-4.44043c-0.22412,0-0.33643,0-0.33643-0.13965c0-0.2666,0.12646-0.2666,0.37842-0.2666
				c0.85449,0,0.93848-0.1123,1.06445-0.60254l1.91895-7.71777c0.02832-0.08398,0.02832-0.12598,0.02832-0.20996
				c0-0.22461-0.39209-0.22461-0.74268-0.22461c-0.26611,0-0.36426,0-0.36426-0.13965c0-0.2666,0.12646-0.2666,0.37842-0.2666
				h4.16016c1.52686,0,2.29736,0.91113,2.29736,1.8916c0,1.23242-1.23242,2.38086-2.73145,2.6748
				c1.09277,0.14063,1.91895,0.82715,1.91895,1.91895C83.27295,164.18457,81.66211,165.78125,79.74316,165.78125z
				 M80.72363,160.94824h-2.39551l-0.98047,3.97852c-0.05566,0.19629-0.05566,0.22461-0.05566,0.28027
				c0,0.1543,0.01367,0.16797,0.41992,0.16797h1.72314c1.48486,0,2.68945-1.37305,2.68945-2.84375
				C82.12451,161.81738,81.81641,160.94824,80.72363,160.94824z M81.60596,156.62012h-1.63867c-0.4624,0-0.56055,0-0.68652,0.53223
				l-0.86816,3.5166h1.83496c1.59668,0,2.70313-1.41504,2.70313-2.63379C82.95068,157.44629,82.71289,156.62012,81.60596,156.62012z
				"/>
			<path class="st0" d="M85.59912,170.61523c-0.90625,0-1.63281-0.59668-1.63281-1.32324c0-0.30957,0.2124-0.42383,0.4082-0.42383
				c0.229,0,0.40039,0.16309,0.40039,0.39941c0,0.29395-0.23682,0.44141-0.49805,0.40039
				c0.23682,0.53906,0.90625,0.72656,1.29785,0.72656c0.3999,0,0.95508-0.28613,0.95508-1.35547
				c0-0.7832-0.31006-1.35449-1.00391-1.35449h-0.37549c-0.14697,0-0.18799,0-0.18799-0.08203
				c0-0.07324,0.03271-0.08203,0.17139-0.08984l0.24512-0.02441c0.22021-0.00781,0.49805-0.0332,0.74268-0.3916
				c0.23682-0.35156,0.26123-0.80859,0.26123-0.96387c0-0.7998-0.53076-0.92188-0.7998-0.92188
				c-0.04102,0-0.80811,0-1.11865,0.55469c0.02441-0.00781,0.04102-0.00781,0.08984-0.00781
				c0.17969,0,0.37549,0.11426,0.37549,0.375c0,0.24512-0.1958,0.36719-0.36719,0.36719c-0.12256,0-0.37549-0.06445-0.37549-0.3916
				c0-0.5957,0.604-1.09375,1.42041-1.09375c0.79199,0,1.46143,0.47363,1.46143,1.11816c0,0.63672-0.45752,1.2334-1.16748,1.4375
				c0.78369,0.13867,1.3877,0.72559,1.3877,1.47754C87.28906,169.87207,86.5708,170.61523,85.59912,170.61523z"/>
		</g>
		<g>
			<path class="st0" d="M169.74316,165.78125h-4.44043c-0.22412,0-0.33643,0-0.33643-0.13965
				c0-0.2666,0.12646-0.2666,0.37842-0.2666c0.85449,0,0.93848-0.1123,1.06445-0.60254l1.91895-7.71777
				c0.02832-0.08398,0.02832-0.12598,0.02832-0.20996c0-0.22461-0.39209-0.22461-0.74268-0.22461
				c-0.26611,0-0.36426,0-0.36426-0.13965c0-0.2666,0.12646-0.2666,0.37842-0.2666h4.16016
				c1.52686,0,2.29736,0.91113,2.29736,1.8916c0,1.23242-1.23242,2.38086-2.73145,2.6748
				c1.09277,0.14063,1.91895,0.82715,1.91895,1.91895C173.27295,164.18457,171.66211,165.78125,169.74316,165.78125z
				 M170.72363,160.94824h-2.39551l-0.98047,3.97852c-0.05566,0.19629-0.05566,0.22461-0.05566,0.28027
				c0,0.1543,0.01367,0.16797,0.41992,0.16797h1.72314c1.48486,0,2.68945-1.37305,2.68945-2.84375
				C172.12451,161.81738,171.81641,160.94824,170.72363,160.94824z M171.60596,156.62012h-1.63867
				c-0.4624,0-0.56055,0-0.68652,0.53223l-0.86816,3.5166h1.83496c1.59668,0,2.70313-1.41504,2.70313-2.63379
				C172.95068,157.44629,172.71289,156.62012,171.60596,156.62012z"/>
			<path class="st0" d="M176.979,169.7168c-0.23682,0.47363-0.64502,0.89844-1.35547,0.89844
				c-0.42432,0-0.98779-0.19629-1.30615-0.81641c-0.29346-0.58008-0.35107-1.17578-0.35107-1.96777
				c0-0.88184,0.08203-1.3877,0.31055-1.90234c0.30176-0.67773,0.88135-0.91406,1.35498-0.91406
				c0.3999,0,0.98779,0.17969,1.32275,0.85742c0.29346,0.62012,0.33447,1.28125,0.33447,1.95898
				C177.28906,168.30469,177.27295,169.10449,176.979,169.7168z M176.5625,166.06738
				c-0.15527-0.70215-0.62842-0.88965-0.93896-0.88965c-0.35107,0-0.76709,0.25293-0.90576,0.7998
				c-0.13086,0.48242-0.13086,1.08594-0.13086,1.75586c0,0.57129,0,1.19141,0.08984,1.68164
				c0.15527,0.88965,0.68555,1.03613,0.94678,1.03613c0.28613,0,0.80029-0.1543,0.95508-1.05273
				c0.08984-0.49805,0.08984-1.11816,0.08984-1.66504C176.66846,167.17773,176.66846,166.5332,176.5625,166.06738z"/>
		</g>
		<g>
			<path class="st0" d="M139.74316,165.78125h-4.44043c-0.22412,0-0.33643,0-0.33643-0.13965
				c0-0.2666,0.12646-0.2666,0.37842-0.2666c0.85449,0,0.93848-0.1123,1.06445-0.60254l1.91895-7.71777
				c0.02832-0.08398,0.02832-0.12598,0.02832-0.20996c0-0.22461-0.39209-0.22461-0.74268-0.22461
				c-0.26611,0-0.36426,0-0.36426-0.13965c0-0.2666,0.12646-0.2666,0.37842-0.2666h4.16016
				c1.52686,0,2.29736,0.91113,2.29736,1.8916c0,1.23242-1.23242,2.38086-2.73145,2.6748
				c1.09277,0.14063,1.91895,0.82715,1.91895,1.91895C143.27295,164.18457,141.66211,165.78125,139.74316,165.78125z
				 M140.72363,160.94824h-2.39551l-0.98047,3.97852c-0.05566,0.19629-0.05566,0.22461-0.05566,0.28027
				c0,0.1543,0.01367,0.16797,0.41992,0.16797h1.72314c1.48486,0,2.68945-1.37305,2.68945-2.84375
				C142.12451,161.81738,141.81641,160.94824,140.72363,160.94824z M141.60596,156.62012h-1.63867
				c-0.4624,0-0.56055,0-0.68652,0.53223l-0.86816,3.5166h1.83496c1.59668,0,2.70313-1.41504,2.70313-2.63379
				C142.95068,157.44629,142.71289,156.62012,141.60596,156.62012z"/>
			<path class="st0" d="M145.70557,170.42676c-0.26953,0-1.06152,0-1.28174,0.0166v-0.23633h0.25293
				c0.71826,0,0.74268-0.09863,0.74268-0.39258v-4.25293c-0.44873,0.21191-0.85693,0.21191-1.04492,0.21191v-0.23633
				c0.84082,0,1.24902-0.30176,1.44531-0.52246c0.16309,0,0.16309,0.00781,0.16309,0.19629v4.60352
				c0,0.29395,0.02441,0.39258,0.74268,0.39258h0.25342v0.23633C146.7583,170.42676,145.97461,170.42676,145.70557,170.42676z"/>
		</g>
		<g>
			<path class="st0" d="M109.74316,165.78125h-4.44043c-0.22412,0-0.33643,0-0.33643-0.13965
				c0-0.2666,0.12646-0.2666,0.37842-0.2666c0.85449,0,0.93848-0.1123,1.06445-0.60254l1.91895-7.71777
				c0.02832-0.08398,0.02832-0.12598,0.02832-0.20996c0-0.22461-0.39209-0.22461-0.74268-0.22461
				c-0.26611,0-0.36426,0-0.36426-0.13965c0-0.2666,0.12646-0.2666,0.37842-0.2666h4.16016
				c1.52686,0,2.29736,0.91113,2.29736,1.8916c0,1.23242-1.23242,2.38086-2.73145,2.6748
				c1.09277,0.14063,1.91895,0.82715,1.91895,1.91895C113.27295,164.18457,111.66211,165.78125,109.74316,165.78125z
				 M110.72363,160.94824h-2.39551l-0.98047,3.97852c-0.05566,0.19629-0.05566,0.22461-0.05566,0.28027
				c0,0.1543,0.01367,0.16797,0.41992,0.16797h1.72314c1.48486,0,2.68945-1.37305,2.68945-2.84375
				C112.12451,161.81738,111.81641,160.94824,110.72363,160.94824z M111.60596,156.62012h-1.63867
				c-0.4624,0-0.56055,0-0.68652,0.53223l-0.86816,3.5166h1.83496c1.59668,0,2.70313-1.41504,2.70313-2.63379
				C112.95068,157.44629,112.71289,156.62012,111.60596,156.62012z"/>
			<path class="st0" d="M117.01172,170.44336h-2.97998v-0.19629l1.64893-1.84473c0.46533-0.52246,0.86572-1.12598,0.86572-1.82031
				c0-0.75098-0.4248-1.33105-1.11865-1.33105c-0.53076,0-0.97119,0.37598-1.12646,0.93066
				c0.02441-0.00781,0.04102-0.00781,0.11426-0.00781c0.22852,0,0.38379,0.15527,0.38379,0.38379
				c0,0.26074-0.2124,0.38379-0.38379,0.38379c-0.02441,0-0.38379,0-0.38379-0.41602c0-0.70215,0.55518-1.51074,1.50195-1.51074
				c0.94727,0,1.68994,0.62891,1.68994,1.56738c0,0.80859-0.45703,1.23242-1.69775,2.37598
				c-0.2124,0.19531-0.71045,0.71777-0.93066,0.90527h1.51025c0.24463,0,0.70996,0,0.76709-0.07324
				c0.08203-0.12988,0.14697-0.5791,0.17139-0.71777h0.17969L117.01172,170.44336z"/>
		</g>
		<g>
			<path class="st0" d="M108.74316,42.78125h-4.44043c-0.22412,0-0.33643,0-0.33643-0.13965c0-0.2666,0.12646-0.2666,0.37842-0.2666
				c0.85449,0,0.93848-0.1123,1.06445-0.60254l1.91895-7.71777c0.02832-0.08398,0.02832-0.12598,0.02832-0.20996
				c0-0.22461-0.39209-0.22461-0.74268-0.22461c-0.26611,0-0.36426,0-0.36426-0.13965c0-0.2666,0.12646-0.2666,0.37842-0.2666
				h4.16016c1.52686,0,2.29736,0.91113,2.29736,1.8916c0,1.23242-1.23242,2.38086-2.73145,2.6748
				c1.09277,0.14063,1.91895,0.82715,1.91895,1.91895C112.27295,41.18457,110.66211,42.78125,108.74316,42.78125z
				 M109.72363,37.94824h-2.39551l-0.98047,3.97852c-0.05566,0.19629-0.05566,0.22461-0.05566,0.28027
				c0,0.1543,0.01367,0.16797,0.41992,0.16797h1.72314c1.48486,0,2.68945-1.37305,2.68945-2.84375
				C111.12451,38.81738,110.81641,37.94824,109.72363,37.94824z M110.60596,33.62012h-1.63867c-0.4624,0-0.56055,0-0.68652,0.53223
				l-0.86816,3.5166h1.83496c1.59668,0,2.70313-1.41504,2.70313-2.63379C111.95068,34.44629,111.71289,33.62012,110.60596,33.62012z
				"/>
			<path class="st0" d="M114.59912,47.61523c-0.90625,0-1.63281-0.59668-1.63281-1.32324c0-0.30957,0.2124-0.42383,0.4082-0.42383
				c0.229,0,0.40039,0.16309,0.40039,0.39941c0,0.29395-0.23682,0.44141-0.49805,0.40039
				c0.23682,0.53906,0.90625,0.72656,1.29785,0.72656c0.3999,0,0.95508-0.28613,0.95508-1.35547
				c0-0.7832-0.31006-1.35449-1.00391-1.35449h-0.37549c-0.14697,0-0.18799,0-0.18799-0.08203
				c0-0.07324,0.03271-0.08203,0.17139-0.08984l0.24512-0.02441c0.22021-0.00781,0.49805-0.0332,0.74268-0.3916
				c0.23682-0.35156,0.26123-0.80859,0.26123-0.96387c0-0.7998-0.53076-0.92188-0.7998-0.92188
				c-0.04102,0-0.80811,0-1.11865,0.55469c0.02441-0.00781,0.04102-0.00781,0.08984-0.00781
				c0.17969,0,0.37549,0.11426,0.37549,0.375c0,0.24512-0.1958,0.36719-0.36719,0.36719c-0.12256,0-0.37549-0.06445-0.37549-0.3916
				c0-0.5957,0.604-1.09375,1.42041-1.09375c0.79199,0,1.46143,0.47363,1.46143,1.11816c0,0.63672-0.45752,1.2334-1.16748,1.4375
				c0.78369,0.13867,1.3877,0.72559,1.3877,1.47754C116.28906,46.87207,115.5708,47.61523,114.59912,47.61523z"/>
		</g>
		<g>
			<path class="st0" d="M181.74316,42.78125h-4.44043c-0.22412,0-0.33643,0-0.33643-0.13965c0-0.2666,0.12646-0.2666,0.37842-0.2666
				c0.85449,0,0.93848-0.1123,1.06445-0.60254l1.91895-7.71777c0.02832-0.08398,0.02832-0.12598,0.02832-0.20996
				c0-0.22461-0.39209-0.22461-0.74268-0.22461c-0.26611,0-0.36426,0-0.36426-0.13965c0-0.2666,0.12646-0.2666,0.37842-0.2666
				h4.16016c1.52686,0,2.29736,0.91113,2.29736,1.8916c0,1.23242-1.23242,2.38086-2.73145,2.6748
				c1.09277,0.14063,1.91895,0.82715,1.91895,1.91895C185.27295,41.18457,183.66211,42.78125,181.74316,42.78125z
				 M182.72363,37.94824h-2.39551l-0.98047,3.97852c-0.05566,0.19629-0.05566,0.22461-0.05566,0.28027
				c0,0.1543,0.01367,0.16797,0.41992,0.16797h1.72314c1.48486,0,2.68945-1.37305,2.68945-2.84375
				C184.12451,38.81738,183.81641,37.94824,182.72363,37.94824z M183.60596,33.62012h-1.63867c-0.4624,0-0.56055,0-0.68652,0.53223
				l-0.86816,3.5166h1.83496c1.59668,0,2.70313-1.41504,2.70313-2.63379C184.95068,34.44629,184.71289,33.62012,183.60596,33.62012z
				"/>
			<path class="st0" d="M188.979,46.7168c-0.23682,0.47363-0.64502,0.89844-1.35547,0.89844
				c-0.42432,0-0.98779-0.19629-1.30615-0.81641c-0.29346-0.58008-0.35107-1.17578-0.35107-1.96777
				c0-0.88184,0.08203-1.3877,0.31055-1.90234c0.30176-0.67773,0.88135-0.91406,1.35498-0.91406
				c0.3999,0,0.98779,0.17969,1.32275,0.85742c0.29346,0.62012,0.33447,1.28125,0.33447,1.95898
				C189.28906,45.30469,189.27295,46.10449,188.979,46.7168z M188.5625,43.06738c-0.15527-0.70215-0.62842-0.88965-0.93896-0.88965
				c-0.35107,0-0.76709,0.25293-0.90576,0.7998c-0.13086,0.48242-0.13086,1.08594-0.13086,1.75586
				c0,0.57129,0,1.19141,0.08984,1.68164c0.15527,0.88965,0.68555,1.03613,0.94678,1.03613
				c0.28613,0,0.80029-0.1543,0.95508-1.05273c0.08984-0.49805,0.08984-1.11816,0.08984-1.66504
				C188.66846,44.17773,188.66846,43.5332,188.5625,43.06738z"/>
		</g>
		<g>
			<path class="st0" d="M156.74316,42.78125h-4.44043c-0.22412,0-0.33643,0-0.33643-0.13965c0-0.2666,0.12646-0.2666,0.37842-0.2666
				c0.85449,0,0.93848-0.1123,1.06445-0.60254l1.91895-7.71777c0.02832-0.08398,0.02832-0.12598,0.02832-0.20996
				c0-0.22461-0.39209-0.22461-0.74268-0.22461c-0.26611,0-0.36426,0-0.36426-0.13965c0-0.2666,0.12646-0.2666,0.37842-0.2666
				h4.16016c1.52686,0,2.29736,0.91113,2.29736,1.8916c0,1.23242-1.23242,2.38086-2.73145,2.6748
				c1.09277,0.14063,1.91895,0.82715,1.91895,1.91895C160.27295,41.18457,158.66211,42.78125,156.74316,42.78125z
				 M157.72363,37.94824h-2.39551l-0.98047,3.97852c-0.05566,0.19629-0.05566,0.22461-0.05566,0.28027
				c0,0.1543,0.01367,0.16797,0.41992,0.16797h1.72314c1.48486,0,2.68945-1.37305,2.68945-2.84375
				C159.12451,38.81738,158.81641,37.94824,157.72363,37.94824z M158.60596,33.62012h-1.63867c-0.4624,0-0.56055,0-0.68652,0.53223
				l-0.86816,3.5166h1.83496c1.59668,0,2.70313-1.41504,2.70313-2.63379C159.95068,34.44629,159.71289,33.62012,158.60596,33.62012z
				"/>
			<path class="st0" d="M162.70557,47.42676c-0.26953,0-1.06152,0-1.28174,0.0166v-0.23633h0.25293
				c0.71826,0,0.74268-0.09863,0.74268-0.39258v-4.25293c-0.44873,0.21191-0.85693,0.21191-1.04492,0.21191v-0.23633
				c0.84082,0,1.24902-0.30176,1.44531-0.52246c0.16309,0,0.16309,0.00781,0.16309,0.19629v4.60352
				c0,0.29395,0.02441,0.39258,0.74268,0.39258h0.25342v0.23633C163.7583,47.42676,162.97461,47.42676,162.70557,47.42676z"/>
		</g>
		<g>
			<path class="st0" d="M132.74316,42.78125h-4.44043c-0.22412,0-0.33643,0-0.33643-0.13965c0-0.2666,0.12646-0.2666,0.37843-0.2666
				c0.85449,0,0.93848-0.1123,1.06445-0.60254l1.91895-7.71777c0.02832-0.08398,0.02832-0.12598,0.02832-0.20996
				c0-0.22461-0.39209-0.22461-0.74268-0.22461c-0.26611,0-0.36426,0-0.36426-0.13965c0-0.2666,0.12646-0.2666,0.37842-0.2666
				h4.16016c1.52686,0,2.29736,0.91113,2.29736,1.8916c0,1.23242-1.23242,2.38086-2.73145,2.6748
				c1.09277,0.14063,1.91895,0.82715,1.91895,1.91895C136.27295,41.18457,134.66211,42.78125,132.74316,42.78125z
				 M133.72363,37.94824h-2.39551l-0.98047,3.97852c-0.05566,0.19629-0.05566,0.22461-0.05566,0.28027
				c0,0.1543,0.01367,0.16797,0.41992,0.16797h1.72314c1.48486,0,2.68945-1.37305,2.68945-2.84375
				C135.12451,38.81738,134.81641,37.94824,133.72363,37.94824z M134.60596,33.62012h-1.63867c-0.4624,0-0.56055,0-0.68652,0.53223
				l-0.86816,3.5166h1.83496c1.59668,0,2.70313-1.41504,2.70313-2.63379C135.95068,34.44629,135.71289,33.62012,134.60596,33.62012z
				"/>
			<path class="st0" d="M140.01172,47.44336h-2.97998v-0.19629l1.64893-1.84473c0.46533-0.52246,0.86572-1.12598,0.86572-1.82031
				c0-0.75098-0.4248-1.33105-1.11865-1.33105c-0.53076,0-0.97119,0.37598-1.12646,0.93066
				c0.02441-0.00781,0.04102-0.00781,0.11426-0.00781c0.22852,0,0.38379,0.15527,0.38379,0.38379
				c0,0.26074-0.2124,0.38379-0.38379,0.38379c-0.02441,0-0.38379,0-0.38379-0.41602c0-0.70215,0.55518-1.51074,1.50195-1.51074
				c0.94727,0,1.68994,0.62891,1.68994,1.56738c0,0.80859-0.45703,1.23242-1.69775,2.37598
				c-0.2124,0.19531-0.71045,0.71777-0.93066,0.90527h1.51025c0.24463,0,0.70996,0,0.76709-0.07324
				c0.08203-0.12988,0.14697-0.5791,0.17139-0.71777h0.17969L140.01172,47.44336z"/>
		</g>
		<g>
			<path class="st0" d="M222.74316,22.78125h-4.44043c-0.22412,0-0.33643,0-0.33643-0.13965c0-0.2666,0.12646-0.2666,0.37842-0.2666
				c0.85449,0,0.93848-0.1123,1.06445-0.60254l1.91895-7.71777c0.02832-0.08398,0.02832-0.12598,0.02832-0.20996
				c0-0.22461-0.39209-0.22461-0.74268-0.22461c-0.26611,0-0.36426,0-0.36426-0.13965c0-0.2666,0.12646-0.2666,0.37842-0.2666
				h4.16016c1.52686,0,2.29736,0.91113,2.29736,1.8916c0,1.23242-1.23242,2.38086-2.73145,2.6748
				c1.09277,0.14063,1.91895,0.82715,1.91895,1.91895C226.27295,21.18457,224.66211,22.78125,222.74316,22.78125z
				 M223.72363,17.94824h-2.39551l-0.98047,3.97852c-0.05566,0.19629-0.05566,0.22461-0.05566,0.28027
				c0,0.1543,0.01367,0.16797,0.41992,0.16797h1.72314c1.48486,0,2.68945-1.37305,2.68945-2.84375
				C225.12451,18.81738,224.81641,17.94824,223.72363,17.94824z M224.60596,13.62012h-1.63867c-0.4624,0-0.56055,0-0.68652,0.53223
				l-0.86816,3.5166h1.83496c1.59668,0,2.70313-1.41504,2.70313-2.63379C225.95068,14.44629,225.71289,13.62012,224.60596,13.62012z
				"/>
			<path class="st0" d="M228.59912,27.61523c-0.90625,0-1.63281-0.59668-1.63281-1.32324c0-0.30957,0.2124-0.42383,0.4082-0.42383
				c0.229,0,0.40039,0.16309,0.40039,0.39941c0,0.29395-0.23682,0.44141-0.49805,0.40039
				c0.23682,0.53906,0.90625,0.72656,1.29785,0.72656c0.3999,0,0.95508-0.28613,0.95508-1.35547
				c0-0.7832-0.31006-1.35449-1.00391-1.35449h-0.37549c-0.14697,0-0.18799,0-0.18799-0.08203
				c0-0.07324,0.03271-0.08203,0.17139-0.08984l0.24512-0.02441c0.22021-0.00781,0.49805-0.0332,0.74268-0.3916
				c0.23682-0.35156,0.26123-0.80859,0.26123-0.96387c0-0.7998-0.53076-0.92188-0.7998-0.92188
				c-0.04102,0-0.80811,0-1.11865,0.55469c0.02441-0.00781,0.04102-0.00781,0.08984-0.00781
				c0.17969,0,0.37549,0.11426,0.37549,0.375c0,0.24512-0.1958,0.36719-0.36719,0.36719c-0.12256,0-0.37549-0.06445-0.37549-0.3916
				c0-0.5957,0.604-1.09375,1.42041-1.09375c0.79199,0,1.46143,0.47363,1.46143,1.11816c0,0.63672-0.45752,1.2334-1.16748,1.4375
				c0.78369,0.13867,1.3877,0.72559,1.3877,1.47754C230.28906,26.87207,229.5708,27.61523,228.59912,27.61523z"/>
		</g>
		<g>
			<path class="st0" d="M295.74365,22.78125h-4.44141c-0.22363,0-0.33594,0-0.33594-0.13965c0-0.2666,0.12695-0.2666,0.37891-0.2666
				c0.85352,0,0.9375-0.1123,1.06445-0.60254l1.91797-7.71777c0.0293-0.08398,0.0293-0.12598,0.0293-0.20996
				c0-0.22461-0.39258-0.22461-0.74316-0.22461c-0.2666,0-0.36426,0-0.36426-0.13965c0-0.2666,0.12695-0.2666,0.37891-0.2666
				h4.16016c1.52637,0,2.29688,0.91113,2.29688,1.8916c0,1.23242-1.23242,2.38086-2.73145,2.6748
				c1.09277,0.14063,1.91895,0.82715,1.91895,1.91895C299.27295,21.18457,297.66162,22.78125,295.74365,22.78125z
				 M296.72412,17.94824h-2.39648l-0.98047,3.97852c-0.05469,0.19629-0.05469,0.22461-0.05469,0.28027
				c0,0.1543,0.01367,0.16797,0.41992,0.16797h1.72266c1.48438,0,2.68945-1.37305,2.68945-2.84375
				C298.12451,18.81738,297.81592,17.94824,296.72412,17.94824z M297.60596,13.62012h-1.63867c-0.46191,0-0.56055,0-0.68652,0.53223
				l-0.86816,3.5166h1.83496c1.59668,0,2.70313-1.41504,2.70313-2.63379C298.95068,14.44629,298.7124,13.62012,297.60596,13.62012z"
				/>
			<path class="st0" d="M302.979,26.7168c-0.2373,0.47363-0.64551,0.89844-1.35547,0.89844
				c-0.4248,0-0.9873-0.19629-1.30566-0.81641c-0.29395-0.58008-0.35156-1.17578-0.35156-1.96777
				c0-0.88184,0.08203-1.3877,0.31055-1.90234c0.30176-0.67773,0.88086-0.91406,1.35547-0.91406
				c0.39941,0,0.9873,0.17969,1.32227,0.85742c0.29297,0.62012,0.33398,1.28125,0.33398,1.95898
				C303.28857,25.30469,303.27295,26.10449,302.979,26.7168z M302.56201,23.06738c-0.1543-0.70215-0.62793-0.88965-0.93848-0.88965
				c-0.35059,0-0.7666,0.25293-0.90527,0.7998c-0.13086,0.48242-0.13086,1.08594-0.13086,1.75586
				c0,0.57129,0,1.19141,0.08984,1.68164c0.1543,0.88965,0.68555,1.03613,0.94629,1.03613c0.28613,0,0.7998-0.1543,0.95508-1.05273
				c0.08984-0.49805,0.08984-1.11816,0.08984-1.66504C302.66846,24.17773,302.66846,23.5332,302.56201,23.06738z"/>
		</g>
		<g>
			<path class="st0" d="M270.74365,22.78125h-4.44141c-0.22363,0-0.33594,0-0.33594-0.13965c0-0.2666,0.12695-0.2666,0.37891-0.2666
				c0.85352,0,0.9375-0.1123,1.06445-0.60254l1.91797-7.71777c0.0293-0.08398,0.0293-0.12598,0.0293-0.20996
				c0-0.22461-0.39258-0.22461-0.74316-0.22461c-0.2666,0-0.36426,0-0.36426-0.13965c0-0.2666,0.12695-0.2666,0.37891-0.2666
				h4.16016c1.52637,0,2.29688,0.91113,2.29688,1.8916c0,1.23242-1.23242,2.38086-2.73145,2.6748
				c1.09277,0.14063,1.91895,0.82715,1.91895,1.91895C274.27295,21.18457,272.66162,22.78125,270.74365,22.78125z
				 M271.72412,17.94824h-2.39648l-0.98047,3.97852c-0.05469,0.19629-0.05469,0.22461-0.05469,0.28027
				c0,0.1543,0.01367,0.16797,0.41992,0.16797h1.72266c1.48438,0,2.68945-1.37305,2.68945-2.84375
				C273.12451,18.81738,272.81592,17.94824,271.72412,17.94824z M272.60596,13.62012h-1.63867c-0.46191,0-0.56055,0-0.68652,0.53223
				l-0.86816,3.5166h1.83496c1.59668,0,2.70313-1.41504,2.70313-2.63379C273.95068,14.44629,273.7124,13.62012,272.60596,13.62012z"
				/>
			<path class="st0" d="M276.70557,27.42676c-0.26953,0-1.06152,0-1.28223,0.0166v-0.23633h0.25391
				c0.71777,0,0.74219-0.09863,0.74219-0.39258v-4.25293c-0.44922,0.21191-0.85742,0.21191-1.04492,0.21191V22.5371
				c0.84082,0,1.24902-0.30176,1.44531-0.52246c0.16309,0,0.16309,0.00781,0.16309,0.19629v4.60352
				c0,0.29395,0.02441,0.39258,0.74316,0.39258h0.25293v0.23633C277.7583,27.42676,276.97412,27.42676,276.70557,27.42676z"/>
		</g>
		<g>
			<path class="st0" d="M246.74365,22.78125h-4.44141c-0.22363,0-0.33594,0-0.33594-0.13965c0-0.2666,0.12695-0.2666,0.37891-0.2666
				c0.85352,0,0.9375-0.1123,1.06445-0.60254l1.91797-7.71777c0.0293-0.08398,0.0293-0.12598,0.0293-0.20996
				c0-0.22461-0.39258-0.22461-0.74316-0.22461c-0.2666,0-0.36426,0-0.36426-0.13965c0-0.2666,0.12695-0.2666,0.37891-0.2666
				h4.16016c1.52637,0,2.29688,0.91113,2.29688,1.8916c0,1.23242-1.23242,2.38086-2.73145,2.6748
				c1.09277,0.14063,1.91895,0.82715,1.91895,1.91895C250.27295,21.18457,248.66162,22.78125,246.74365,22.78125z
				 M247.72412,17.94824h-2.39648l-0.98047,3.97852c-0.05469,0.19629-0.05469,0.22461-0.05469,0.28027
				c0,0.1543,0.01367,0.16797,0.41992,0.16797h1.72266c1.48438,0,2.68945-1.37305,2.68945-2.84375
				C249.12451,18.81738,248.81592,17.94824,247.72412,17.94824z M248.60596,13.62012h-1.63867c-0.46191,0-0.56055,0-0.68652,0.53223
				l-0.86816,3.5166h1.83496c1.59668,0,2.70313-1.41504,2.70313-2.63379C249.95068,14.44629,249.7124,13.62012,248.60596,13.62012z"
				/>
			<path class="st0" d="M254.01123,27.44336h-2.97949v-0.19629l1.64941-1.84473c0.46484-0.52246,0.86523-1.12598,0.86523-1.82031
				c0-0.75098-0.4248-1.33105-1.11914-1.33105c-0.53027,0-0.9707,0.37598-1.12598,0.93066
				c0.02441-0.00781,0.04102-0.00781,0.11426-0.00781c0.22852,0,0.38379,0.15527,0.38379,0.38379
				c0,0.26074-0.21191,0.38379-0.38379,0.38379c-0.02441,0-0.38379,0-0.38379-0.41602c0-0.70215,0.55566-1.51074,1.50195-1.51074
				c0.94727,0,1.69043,0.62891,1.69043,1.56738c0,0.80859-0.45703,1.23242-1.69824,2.37598
				c-0.21191,0.19531-0.70996,0.71777-0.93066,0.90527h1.50977c0.24512,0,0.71094,0,0.76758-0.07324
				c0.08203-0.12988,0.14648-0.5791,0.17188-0.71777h0.17969L254.01123,27.44336z"/>
		</g>
		<g>
			<path class="st0" d="M9.23096,277.78125c-0.44824,0-0.92432-0.02832-1.38672-0.02832c-0.47607,0-0.98047,0.02832-1.44287,0.02832
				c-0.05615,0-0.1958,0-0.1958-0.13965c0-0.2666,0.12598-0.2666,0.32178-0.2666c0.86865-0.01367,0.84082-0.39258,0.82666-0.61621
				l-0.1543-2.25488H3.9502l-1.02246,1.80664c-0.12646,0.22363-0.23828,0.40625-0.23828,0.60254
				c0,0.26563,0.19629,0.43359,0.53223,0.46191c0.08398,0,0.19629,0.01367,0.19629,0.13965c0,0.2666-0.1543,0.2666-0.25244,0.2666
				c-0.36426,0-0.77002-0.02832-1.14844-0.02832c-0.3501,0-0.72852,0.02832-1.06445,0.02832c0,0-0.16797,0-0.16797-0.13965
				c0-0.23828,0.11182-0.25293,0.26611-0.2666c0.7002-0.07031,1.09229-0.39258,1.52686-1.16211l4.66406-8.18066
				c0.09814-0.16797,0.14014-0.25195,0.33643-0.25195s0.20996,0.04199,0.22412,0.33594l0.61621,8.79688
				c0.02832,0.36426,0.09814,0.46191,0.78467,0.46191c0.18213,0,0.27979,0,0.27979,0.1543
				C9.48291,277.78125,9.31494,277.78125,9.23096,277.78125z M6.84961,269.43262l-2.66113,4.66504h2.9834L6.84961,269.43262z"/>
			<path class="st0" d="M12.14502,282.61523c-0.90625,0-1.63281-0.59668-1.63281-1.32324c0-0.30957,0.2124-0.42383,0.4082-0.42383
				c0.229,0,0.40039,0.16309,0.40039,0.39941c0,0.29395-0.23682,0.44141-0.49805,0.40039
				c0.23682,0.53906,0.90625,0.72656,1.29785,0.72656c0.3999,0,0.95508-0.28613,0.95508-1.35547
				c0-0.7832-0.31006-1.35449-1.00391-1.35449h-0.37549c-0.14697,0-0.18799,0-0.18799-0.08203
				c0-0.07324,0.03271-0.08203,0.17139-0.08984l0.24512-0.02441c0.22021-0.00781,0.49805-0.0332,0.74268-0.3916
				c0.23682-0.35156,0.26123-0.80859,0.26123-0.96387c0-0.7998-0.53076-0.92188-0.7998-0.92188
				c-0.04102,0-0.80811,0-1.11865,0.55469c0.02441-0.00781,0.04102-0.00781,0.08984-0.00781
				c0.17969,0,0.37549,0.11426,0.37549,0.375c0,0.24512-0.1958,0.36719-0.36719,0.36719c-0.12256,0-0.37549-0.06445-0.37549-0.3916
				c0-0.5957,0.604-1.09375,1.42041-1.09375c0.79199,0,1.46143,0.47363,1.46143,1.11816c0,0.63672-0.45752,1.2334-1.16748,1.4375
				c0.78369,0.13867,1.3877,0.72559,1.3877,1.47754C13.83496,281.87207,13.1167,282.61523,12.14502,282.61523z"/>
		</g>
		<g>
			<path class="st0" d="M9.23096,11.78125c-0.44824,0-0.92432-0.02832-1.38672-0.02832c-0.47607,0-0.98047,0.02832-1.44287,0.02832
				c-0.05615,0-0.1958,0-0.1958-0.13965c0-0.2666,0.12598-0.2666,0.32178-0.2666C7.396,11.36133,7.36816,10.98242,7.354,10.75879
				L7.1997,8.50391H3.9502l-1.02246,1.80664c-0.12646,0.22363-0.23828,0.40625-0.23828,0.60254
				c0,0.26563,0.19629,0.43359,0.53223,0.46191c0.08398,0,0.19629,0.01367,0.19629,0.13965c0,0.2666-0.1543,0.2666-0.25244,0.2666
				c-0.36426,0-0.77002-0.02832-1.14844-0.02832c-0.3501,0-0.72852,0.02832-1.06445,0.02832c0,0-0.16797,0-0.16797-0.13965
				c0-0.23828,0.11182-0.25293,0.26611-0.2666c0.7002-0.07031,1.09229-0.39258,1.52686-1.16211L7.2417,2.03223
				c0.09814-0.16797,0.14014-0.25195,0.33643-0.25195s0.20996,0.04199,0.22412,0.33594l0.61621,8.79688
				c0.02832,0.36424,0.09814,0.4619,0.78467,0.4619c0.18213,0,0.27979,0,0.27979,0.1543
				C9.48291,11.78125,9.31494,11.78125,9.23096,11.78125z M6.84961,3.43262L4.18848,8.09766h2.9834L6.84961,3.43262z"/>
			<path class="st0" d="M13.5249,15.7168c-0.23682,0.47363-0.64502,0.89844-1.35547,0.89844
				c-0.42432,0-0.98779-0.19629-1.30615-0.81641c-0.29346-0.58008-0.35107-1.17578-0.35107-1.96777
				c0-0.88184,0.08203-1.3877,0.31055-1.90234c0.30176-0.67773,0.88135-0.91406,1.35498-0.91406
				c0.3999,0,0.98779,0.17969,1.32275,0.85742c0.29346,0.62012,0.33447,1.28125,0.33447,1.95898
				C13.83496,14.30469,13.81885,15.10449,13.5249,15.7168z M13.1084,12.06738c-0.15527-0.70215-0.62842-0.88965-0.93896-0.88965
				c-0.35107,0-0.76709,0.25293-0.90576,0.7998c-0.13086,0.48242-0.13086,1.08594-0.13086,1.75586
				c0,0.57129,0,1.19141,0.08984,1.68164c0.15527,0.88965,0.68555,1.03613,0.94678,1.03613
				c0.28613,0,0.80029-0.1543,0.95508-1.05273c0.08984-0.49805,0.08984-1.11816,0.08984-1.66504
				C13.21436,13.17773,13.21436,12.5332,13.1084,12.06738z"/>
		</g>
		<g>
			<path class="st0" d="M9.23096,31.78125c-0.44824,0-0.92432-0.02832-1.38672-0.02832c-0.47607,0-0.98047,0.02832-1.44287,0.02832
				c-0.05615,0-0.1958,0-0.1958-0.13965c0-0.2666,0.12598-0.2666,0.32178-0.2666C7.396,31.36133,7.36816,30.98242,7.354,30.75879
				l-0.1543-2.25488H3.9502l-1.02246,1.80664c-0.12646,0.22363-0.23828,0.40625-0.23828,0.60254
				c0,0.26563,0.19629,0.43359,0.53223,0.46191c0.08398,0,0.19629,0.01367,0.19629,0.13965c0,0.2666-0.1543,0.2666-0.25244,0.2666
				c-0.36426,0-0.77002-0.02832-1.14844-0.02832c-0.3501,0-0.72852,0.02832-1.06445,0.02832c0,0-0.16797,0-0.16797-0.13965
				c0-0.23828,0.11182-0.25293,0.26611-0.2666c0.7002-0.07031,1.09229-0.39258,1.52686-1.16211l4.66406-8.18066
				c0.09814-0.16797,0.14014-0.25195,0.33643-0.25195s0.20996,0.04199,0.22412,0.33594l0.61621,8.79688
				c0.02831,0.36424,0.09813,0.4619,0.78466,0.4619c0.18213,0,0.27979,0,0.27979,0.1543
				C9.48291,31.78125,9.31494,31.78125,9.23096,31.78125z M6.84961,23.43262l-2.66113,4.66504h2.9834L6.84961,23.43262z"/>
			<path class="st0" d="M12.25146,36.42676c-0.26953,0-1.06152,0-1.28174,0.0166v-0.23633h0.25293
				c0.71826,0,0.74268-0.09863,0.74268-0.39258v-4.25293c-0.44873,0.21191-0.85693,0.21191-1.04492,0.21191v-0.23633
				c0.84082,0,1.24902-0.30176,1.44531-0.52246c0.16309,0,0.16309,0.00781,0.16309,0.19629v4.60352
				c0,0.29395,0.02441,0.39258,0.74268,0.39258h0.25342v0.23633C13.3042,36.42676,12.52051,36.42676,12.25146,36.42676z"/>
		</g>
		<g>
			<path class="st0" d="M9.23096,154.78125c-0.44824,0-0.92432-0.02832-1.38672-0.02832c-0.47607,0-0.98047,0.02832-1.44287,0.02832
				c-0.05615,0-0.1958,0-0.1958-0.13965c0-0.2666,0.12598-0.2666,0.32178-0.2666c0.86865-0.01367,0.84082-0.39258,0.82666-0.61621
				l-0.1543-2.25488H3.9502l-1.02246,1.80664c-0.12646,0.22363-0.23828,0.40625-0.23828,0.60254
				c0,0.26563,0.19629,0.43359,0.53223,0.46191c0.08398,0,0.19629,0.01367,0.19629,0.13965c0,0.2666-0.1543,0.2666-0.25244,0.2666
				c-0.36426,0-0.77002-0.02832-1.14844-0.02832c-0.3501,0-0.72852,0.02832-1.06445,0.02832c0,0-0.16797,0-0.16797-0.13965
				c0-0.23828,0.11182-0.25293,0.26611-0.2666c0.7002-0.07031,1.09229-0.39258,1.52686-1.16211l4.66406-8.18066
				c0.09814-0.16797,0.14014-0.25195,0.33643-0.25195s0.20996,0.04199,0.22412,0.33594l0.61621,8.79688
				c0.02832,0.36426,0.09814,0.46191,0.78467,0.46191c0.18213,0,0.27979,0,0.27979,0.1543
				C9.48291,154.78125,9.31494,154.78125,9.23096,154.78125z M6.84961,146.43262l-2.66113,4.66504h2.9834L6.84961,146.43262z"/>
			<path class="st0" d="M13.55762,159.44336h-2.97998v-0.19629l1.64893-1.84473c0.46533-0.52246,0.86572-1.12598,0.86572-1.82031
				c0-0.75098-0.4248-1.33105-1.11865-1.33105c-0.53076,0-0.97119,0.37598-1.12646,0.93066
				c0.02441-0.00781,0.04102-0.00781,0.11426-0.00781c0.22852,0,0.38379,0.15527,0.38379,0.38379
				c0,0.26074-0.2124,0.38379-0.38379,0.38379c-0.02441,0-0.38379,0-0.38379-0.41602c0-0.70215,0.55518-1.51074,1.50195-1.51074
				c0.94727,0,1.68994,0.62891,1.68994,1.56738c0,0.80859-0.45703,1.23242-1.69775,2.37598
				c-0.2124,0.19531-0.71045,0.71777-0.93066,0.90527h1.51025c0.24463,0,0.70996,0,0.76709-0.07324
				c0.08203-0.12988,0.14697-0.5791,0.17139-0.71777h0.17969L13.55762,159.44336z"/>
		</g>
	</g>
</g>
<g id="Layer_2">
	<g>
		<path class="st0" d="M61.54234,411.22723c0.12578-0.4899,0.15448-0.53183,0.75692-0.53183h1.34834
			c1.16296,0,1.90665,0.37958,1.90665,1.34613c0,0.54727-0.28027,1.75439-0.82755,2.25974
			c-0.70176,0.63113-1.54253,0.74368-2.16043,0.74368h-1.97727L61.54234,411.22723 M60.53164,415.40906h2.38552
			c1.99272,0,3.94351-1.45868,3.94351-3.02991c0-1.0813-0.92685-2.1185-2.7651-2.1185h-4.54595
			c-0.26481,0-0.41928,0-0.41928,0.26703c0,0.16772,0.12579,0.16772,0.40605,0.16772c0.18317,0,0.43473,0.01324,0.60244,0.02869
			c0.2251,0.02649,0.30895,0.06842,0.30895,0.22287c0,0.0574-0.01323,0.0993-0.05516,0.26703l-1.88017,7.53394
			c-0.14124,0.54727-0.16772,0.65982-1.27773,0.65982c-0.23833,0-0.39281,0-0.39281,0.26703
			c0,0.16769,0.16992,0.16769,0.21185,0.16769c0.39281,0,1.38807-0.04193,1.78086-0.04193
			c0.29571,0,0.60246,0.01324,0.89816,0.01324c0.30895,0,0.6179,0.02869,0.91139,0.02869c0.09932,0,0.28027,0,0.28027-0.28024
			c0-0.15448-0.12578-0.15448-0.3928-0.15448c-0.5186,0-0.91141,0-0.91141-0.25378c0-0.08386,0.0287-0.15225,0.04193-0.23834
			L60.53164,415.40906z"/>
		<path class="st0" d="M70.63203,415.96295c0.0993-0.11914,0.0993-0.13901,0.0993-0.39499h-2.60178
			c-0.39722,0-0.50535-0.01105-0.86284-0.03973c-0.51639-0.0397-0.53625-0.11032-0.56715-0.27805h-0.33763l-0.34646,2.12289h0.33763
			c0.01986-0.14786,0.11918-0.80325,0.27806-0.90256c0.07944-0.05957,0.88271-0.05957,1.03277-0.05957h2.16484
			c-0.31777,0.41705-0.82534,1.03275-1.03277,1.31082c-1.302,1.70804-1.42116,3.28589-1.42116,3.87289
			c0,0.10812,0,0.56491,0.46783,0.56491c0.47666,0,0.47666-0.44577,0.47666-0.57596v-0.39722
			c0-1.92651,0.39722-2.80923,0.82312-3.34546L70.63203,415.96295"/>
	</g>
	<g>
		<path class="st0" d="M91.79635,411.22723c0.12584-0.4899,0.1545-0.53183,0.75687-0.53183h1.34836
			c1.16306,0,1.90665,0.37958,1.90665,1.34613c0,0.54727-0.2802,1.75439-0.82748,2.25974
			c-0.70179,0.63113-1.54255,0.74368-2.16045,0.74368h-1.97727L91.79635,411.22723 M90.78568,415.40906h2.38544
			c1.99281,0,3.94352-1.45868,3.94352-3.02991c0-1.0813-0.92677-2.1185-2.76507-2.1185h-4.54588
			c-0.26481,0-0.41932,0-0.41932,0.26703c0,0.16772,0.12584,0.16772,0.40604,0.16772c0.18318,0,0.43472,0.01324,0.6025,0.02869
			c0.22499,0.02649,0.30888,0.06842,0.30888,0.22287c0,0.0574-0.01328,0.0993-0.05522,0.26703l-1.8801,7.53394
			c-0.14124,0.54727-0.16779,0.65982-1.27774,0.65982c-0.23826,0-0.39277,0-0.39277,0.26703
			c0,0.16769,0.16991,0.16769,0.21185,0.16769c0.39277,0,1.38804-0.04193,1.78081-0.04193c0.29575,0,0.6025,0.01324,0.89825,0.01324
			c0.30888,0,0.6179,0.02869,0.91138,0.02869c0.09928,0,0.2802,0,0.2802-0.28024c0-0.15448-0.12584-0.15448-0.39278-0.15448
			c-0.51861,0-0.91138,0-0.91138-0.25378c0-0.08386,0.02867-0.15225,0.04195-0.23834L90.78568,415.40906z"/>
		<path class="st0" d="M98.4144,421.8418c-0.49643,0-0.88483-0.28687-1.09229-0.72382
			c-0.14999-0.29791-0.22951-0.79443-0.22951-1.39026c0-0.96436,0.57595-1.70804,1.37039-1.70804
			c0.45689,0,0.76576,0.17874,1.01292,0.54507c0.2384,0.37735,0.24942,0.79443,0.24942,1.37039c0,0.56714,0,0.98422-0.26933,1.37042
			C99.21774,421.65424,98.89996,421.8418,98.4144,421.8418 M97.06393,418.71481c0-0.8143,0.06836-1.54916,0.44573-2.15601
			c0.33769-0.53625,0.87395-0.90259,1.50951-0.90259c0.29786,0,0.69515,0.07947,0.89372,0.34647
			c-0.24715,0.01987-0.45689,0.18979-0.45689,0.47665c0,0.24939,0.17004,0.46783,0.4679,0.46783s0.47666-0.19861,0.47666-0.48767
			c0-0.57599-0.41706-1.09015-1.40131-1.09015c-1.42999,0-2.88865,1.30859-2.88865,3.44476
			c0,2.57089,1.2115,3.34546,2.30379,3.34546c1.21165,0,2.26426-0.92242,2.26426-2.22443c0-1.26004-1.00417-2.19351-2.16483-2.19351
			C97.71939,417.74164,97.28242,418.26685,97.06393,418.71481z"/>
	</g>
	<g>
		<path class="st0" d="M121.74368,411.22723c0.12583-0.4899,0.1545-0.53183,0.75687-0.53183h1.34836
			c1.16306,0,1.90665,0.37958,1.90665,1.34613c0,0.54727-0.28021,1.75439-0.82749,2.25974
			c-0.70179,0.63113-1.54255,0.74368-2.16045,0.74368h-1.97727L121.74368,411.22723 M120.733,415.40906h2.38544
			c1.99281,0,3.94352-1.45868,3.94352-3.02991c0-1.0813-0.92677-2.1185-2.76507-2.1185h-4.54588
			c-0.26481,0-0.41932,0-0.41932,0.26703c0,0.16772,0.12584,0.16772,0.40604,0.16772c0.18318,0,0.43472,0.01324,0.6025,0.02869
			c0.22498,0.02649,0.30888,0.06842,0.30888,0.22287c0,0.0574-0.01328,0.0993-0.05523,0.26703l-1.8801,7.53394
			c-0.14124,0.54727-0.16779,0.65982-1.27774,0.65982c-0.23826,0-0.39277,0-0.39277,0.26703
			c0,0.16769,0.16991,0.16769,0.21185,0.16769c0.39278,0,1.38805-0.04193,1.78082-0.04193c0.29575,0,0.6025,0.01324,0.89825,0.01324
			c0.30888,0,0.6179,0.02869,0.91138,0.02869c0.09929,0,0.28021,0,0.28021-0.28024c0-0.15448-0.12585-0.15448-0.39278-0.15448
			c-0.51861,0-0.91138,0-0.91138-0.25378c0-0.08386,0.02867-0.15225,0.04195-0.23834L120.733,415.40906z"/>
		<path class="st0" d="M127.05984,416.41977c0.50745,0.13019,0.80546,0.13019,0.96435,0.13019
			c1.31079,0,2.08531-0.89374,2.08531-1.0416c0-0.11032-0.07062-0.13901-0.11906-0.13901c-0.01991,0-0.03983,0-0.07951,0.02869
			c-0.23827,0.09048-0.76576,0.28906-1.50061,0.28906c-0.27808,0-0.80319-0.01984-1.44976-0.2692
			c-0.09942-0.04855-0.11919-0.04855-0.1281-0.04855c-0.13021,0-0.13021,0.10812-0.13021,0.267v2.92841
			c0,0.16992,0,0.28909,0.15889,0.28909c0.09052,0,0.09942-0.01987,0.19871-0.13904c0.42808-0.54727,1.03271-0.62674,1.3814-0.62674
			c0.59587,0,0.86281,0.47668,0.91365,0.55612c0.17865,0.3288,0.23825,0.70618,0.23825,1.28214c0,0.29791,0,0.88272-0.29785,1.31964
			c-0.24942,0.35751-0.67525,0.59583-1.16306,0.59583c-0.64432,0-1.31079-0.35748-1.55795-1.01291
			c0.37737,0.03091,0.56493-0.21844,0.56493-0.48547c0-0.42813-0.36636-0.50757-0.49644-0.50757
			c-0.01991,0-0.49657,0-0.49657,0.53625c0,0.89374,0.81435,1.78748,2.00594,1.78748c1.27109,0,2.38332-0.94229,2.38332-2.19351
			c0-1.12326-0.85405-2.15604-2.08546-2.15604c-0.43683,0-0.95332,0.11035-1.39016,0.4877V416.41977"/>
	</g>
	<g>
		<path class="st0" d="M151.60046,411.22723c0.12584-0.4899,0.15451-0.53183,0.75688-0.53183h1.34834
			c1.16306,0,1.90666,0.37958,1.90666,1.34613c0,0.54727-0.28021,1.75439-0.8275,2.25974
			c-0.70178,0.63113-1.54254,0.74368-2.16045,0.74368h-1.97726L151.60046,411.22723 M150.5898,415.40906h2.38544
			c1.9928,0,3.94351-1.45868,3.94351-3.02991c0-1.0813-0.92677-2.1185-2.76506-2.1185h-4.54588
			c-0.26482,0-0.41933,0-0.41933,0.26703c0,0.16772,0.12584,0.16772,0.40605,0.16772c0.18318,0,0.43471,0.01324,0.60251,0.02869
			c0.22498,0.02649,0.30887,0.06842,0.30887,0.22287c0,0.0574-0.01328,0.0993-0.05522,0.26703l-1.8801,7.53394
			c-0.14124,0.54727-0.16779,0.65982-1.27774,0.65982c-0.23827,0-0.39278,0-0.39278,0.26703
			c0,0.16769,0.16991,0.16769,0.21185,0.16769c0.39278,0,1.38805-0.04193,1.78082-0.04193
			c0.29573,0,0.60249,0.01324,0.89824,0.01324c0.30887,0,0.61789,0.02869,0.91138,0.02869c0.09929,0,0.28021,0,0.28021-0.28024
			c0-0.15448-0.12584-0.15448-0.39278-0.15448c-0.5186,0-0.91138,0-0.91138-0.25378c0-0.08386,0.02867-0.15225,0.04195-0.23834
			L150.5898,415.40906z"/>
		<path class="st0" d="M158.75479,416.34033v3.63455h-2.62158L158.75479,416.34033z M160.63065,420.33237v-0.35748h-1.1012v-4.42679
			c0-0.20966,0-0.27805-0.21849-0.27805c-0.1192,0-0.15889,0-0.25818,0.13901l-3.28819,4.56583v0.35748h2.91959v0.8143
			c0,0.33765,0,0.45682-0.80321,0.45682h-0.26918v0.35748c0.49644-0.01987,1.13199-0.0397,1.48944-0.0397
			c0.36862,0,1.00418,0.01984,1.50061,0.0397v-0.35748h-0.2692c-0.80319,0-0.80319-0.11917-0.80319-0.45682v-0.8143H160.63065z"/>
	</g>
	<g>
		<path class="st0" d="M181.69566,411.22723c0.12584-0.4899,0.15451-0.53183,0.75687-0.53183h1.34836
			c1.16306,0,1.90665,0.37958,1.90665,1.34613c0,0.54727-0.2802,1.75439-0.82748,2.25974
			c-0.70178,0.63113-1.54256,0.74368-2.16045,0.74368h-1.97726L181.69566,411.22723 M180.685,415.40906h2.38544
			c1.9928,0,3.94351-1.45868,3.94351-3.02991c0-1.0813-0.92677-2.1185-2.76506-2.1185H179.703c-0.26482,0-0.41933,0-0.41933,0.26703
			c0,0.16772,0.12584,0.16772,0.40605,0.16772c0.18318,0,0.43471,0.01324,0.60249,0.02869
			c0.22499,0.02649,0.30888,0.06842,0.30888,0.22287c0,0.0574-0.01328,0.0993-0.05522,0.26703l-1.88011,7.53394
			c-0.14122,0.54727-0.16777,0.65982-1.27773,0.65982c-0.23827,0-0.39278,0-0.39278,0.26703
			c0,0.16769,0.16991,0.16769,0.21185,0.16769c0.39276,0,1.38805-0.04193,1.78081-0.04193
			c0.29575,0,0.60251,0.01324,0.89825,0.01324c0.30887,0,0.61789,0.02869,0.91136,0.02869c0.09929,0,0.28021,0,0.28021-0.28024
			c0-0.15448-0.12584-0.15448-0.39276-0.15448c-0.51862,0-0.91138,0-0.91138-0.25378c0-0.08386,0.02867-0.15225,0.04195-0.23834
			L180.685,415.40906z"/>
		<path class="st0" d="M188.18364,418.6442c0.77454,0,1.33057,0.53625,1.33057,1.59991c0,1.23138-0.71492,1.59769-1.29088,1.59769
			c-0.39729,0-1.2711-0.10812-1.68817-0.69513c0.46777-0.01984,0.57596-0.34647,0.57596-0.55609
			c0-0.31778-0.2384-0.54507-0.54515-0.54507c-0.27795,0-0.55605,0.16772-0.55605,0.57596c0,0.93347,1.0327,1.53812,2.23318,1.53812
			c1.38155,0,2.33487-0.92242,2.33487-1.91547c0-0.77457-0.63554-1.54916-1.72798-1.77866
			c1.0416-0.37738,1.41896-1.12103,1.41896-1.72791c0-0.78342-0.90248-1.36819-2.00594-1.36819
			c-1.1012,0-1.94633,0.53403-1.94633,1.32846c0,0.33765,0.21848,0.5274,0.51634,0.5274c0.30902,0,0.5076-0.22949,0.5076-0.50754
			c0-0.2869-0.19858-0.49652-0.5076-0.51639c0.34871-0.43692,1.03284-0.54507,1.40132-0.54507
			c0.44574,0,1.07253,0.21848,1.07253,1.08133c0,0.41708-0.13911,0.87387-0.39729,1.18283
			c-0.32878,0.37735-0.60687,0.39722-1.10332,0.4259c-0.24715,0.01987-0.26706,0.01987-0.31776,0.03088
			c-0.01991,0-0.09929,0.01987-0.09929,0.12799c0,0.13904,0.09039,0.13904,0.25818,0.13904H188.18364"/>
	</g>
	<g>
		<path class="st0" d="M226.74092,411.22723c0.12584-0.4899,0.15451-0.53183,0.75688-0.53183h1.34834
			c1.16307,0,1.90666,0.37958,1.90666,1.34613c0,0.54727-0.28021,1.75439-0.8275,2.25974
			c-0.70178,0.63113-1.54254,0.74368-2.16045,0.74368h-1.97726L226.74092,411.22723 M225.73026,415.40906h2.38544
			c1.9928,0,3.94353-1.45868,3.94353-3.02991c0-1.0813-0.92679-2.1185-2.76508-2.1185h-4.54588
			c-0.26482,0-0.41933,0-0.41933,0.26703c0,0.16772,0.12584,0.16772,0.40605,0.16772c0.18318,0,0.43472,0.01324,0.60251,0.02869
			c0.22498,0.02649,0.30887,0.06842,0.30887,0.22287c0,0.0574-0.01328,0.0993-0.05522,0.26703l-1.8801,7.53394
			c-0.14124,0.54727-0.16779,0.65982-1.27774,0.65982c-0.23827,0-0.39278,0-0.39278,0.26703
			c0,0.16769,0.16991,0.16769,0.21185,0.16769c0.39278,0,1.38805-0.04193,1.78082-0.04193
			c0.29573,0,0.60249,0.01324,0.89824,0.01324c0.30887,0,0.61789,0.02869,0.91138,0.02869c0.09929,0,0.28021,0,0.28021-0.28024
			c0-0.15448-0.12584-0.15448-0.39278-0.15448c-0.5186,0-0.91138,0-0.91138-0.25378c0-0.08386,0.02867-0.15225,0.04195-0.23834
			L225.73026,415.40906z"/>
		<path class="st0" d="M235.53271,420.15363h-0.33769c-0.02867,0.21848-0.12796,0.80548-0.25818,0.90479
			c-0.07938,0.05957-0.84288,0.05957-0.98199,0.05957h-1.82713c1.0416-0.92462,1.39015-1.2027,1.98602-1.6683
			c0.73483-0.58701,1.41898-1.2027,1.41898-2.14499c0-1.2027-1.05263-1.93533-2.32373-1.93533
			c-1.2314,0-2.06554,0.86285-2.06554,1.77643c0,0.50537,0.42809,0.55612,0.52737,0.55612c0.2384,0,0.52525-0.16992,0.52525-0.5274
			c0-0.17877-0.06836-0.52524-0.58485-0.52524c0.30676-0.70615,0.98213-0.92462,1.44991-0.92462
			c0.99301,0,1.50949,0.77457,1.50949,1.58005c0,0.86285-0.61577,1.54916-0.93355,1.90665l-2.39433,2.36346
			c-0.09929,0.08826-0.09929,0.10812-0.09929,0.38617h4.0914L235.53271,420.15363"/>
	</g>
	<g>
		<path class="st0" d="M256.97043,411.22723c0.12585-0.4899,0.15451-0.53183,0.75687-0.53183h1.34836
			c1.16306,0,1.90665,0.37958,1.90665,1.34613c0,0.54727-0.28021,1.75439-0.82748,2.25974
			c-0.70178,0.63113-1.54254,0.74368-2.16043,0.74368h-1.97726L256.97043,411.22723 M255.95976,415.40906h2.38542
			c1.9928,0,3.94354-1.45868,3.94354-3.02991c0-1.0813-0.92679-2.1185-2.76508-2.1185h-4.54588
			c-0.26482,0-0.41933,0-0.41933,0.26703c0,0.16772,0.12584,0.16772,0.40605,0.16772c0.18318,0,0.43472,0.01324,0.60249,0.02869
			c0.22499,0.02649,0.30888,0.06842,0.30888,0.22287c0,0.0574-0.01328,0.0993-0.05522,0.26703l-1.8801,7.53394
			c-0.14124,0.54727-0.16779,0.65982-1.27774,0.65982c-0.23827,0-0.39278,0-0.39278,0.26703
			c0,0.16769,0.16991,0.16769,0.21185,0.16769c0.39278,0,1.38805-0.04193,1.78081-0.04193
			c0.29575,0,0.60251,0.01324,0.89825,0.01324c0.30887,0,0.61789,0.02869,0.91138,0.02869c0.09927,0,0.28021,0,0.28021-0.28024
			c0-0.15448-0.12585-0.15448-0.39278-0.15448c-0.5186,0-0.91139,0-0.91139-0.25378c0-0.08386,0.02869-0.15225,0.04196-0.23834
			L255.95976,415.40906z"/>
		<path class="st0" d="M263.9328,415.6474c0-0.26923-0.0199-0.27805-0.29785-0.27805
			c-0.63556,0.62451-1.53818,0.63333-1.94647,0.63333v0.35748c0.2384,0,0.89374,0,1.44101-0.27805v5.06454
			c0,0.32883,0,0.45682-0.99301,0.45682h-0.37738v0.35748c0.1788-0.00882,1.3992-0.0397,1.76767-0.0397
			c0.30676,0,1.55795,0.03088,1.77643,0.0397v-0.35748h-0.37735c-0.99304,0-0.99304-0.12799-0.99304-0.45682V415.6474"/>
	</g>
	<g>
		<path class="st0" d="M286.75638,411.22723c0.12585-0.4899,0.15451-0.53183,0.7569-0.53183h1.34833
			c1.16309,0,1.90668,0.37958,1.90668,1.34613c0,0.54727-0.28021,1.75439-0.82751,2.25974
			c-0.70175,0.63113-1.54254,0.74368-2.16043,0.74368h-1.97726L286.75638,411.22723 M285.74573,415.40906h2.38544
			c1.9928,0,3.94351-1.45868,3.94351-3.02991c0-1.0813-0.92679-2.1185-2.76508-2.1185h-4.54587c-0.2648,0-0.41934,0-0.41934,0.26703
			c0,0.16772,0.12585,0.16772,0.40607,0.16772c0.18317,0,0.43472,0.01324,0.60251,0.02869
			c0.22498,0.02649,0.30887,0.06842,0.30887,0.22287c0,0.0574-0.01328,0.0993-0.05521,0.26703l-1.88013,7.53394
			c-0.14124,0.54727-0.16779,0.65982-1.27771,0.65982c-0.23828,0-0.39279,0-0.39279,0.26703
			c0,0.16769,0.16989,0.16769,0.21185,0.16769c0.39276,0,1.38803-0.04193,1.78082-0.04193
			c0.29572,0,0.60248,0.01324,0.89822,0.01324c0.3089,0,0.61792,0.02869,0.91138,0.02869c0.0993,0,0.28021,0,0.28021-0.28024
			c0-0.15448-0.12582-0.15448-0.39276-0.15448c-0.51862,0-0.91138,0-0.91138-0.25378c0-0.08386,0.02866-0.15225,0.04193-0.23834
			L285.74573,415.40906z"/>
		<path class="st0" d="M293.21344,421.88153c-0.45688,0-1.06363-0.26703-1.26233-1.08133
			c-0.13898-0.58698-0.13898-1.40128-0.13898-2.13614c0-0.72385,0-1.47855,0.14999-2.02582
			c0.20746-0.78342,0.84302-0.99084,1.25131-0.99084c0.53625,0,1.05261,0.3266,1.23141,0.90256
			c0.15887,0.53625,0.16763,1.25125,0.16763,2.11411c0,0.73486,0,1.4697-0.12793,2.09644
			C294.28598,421.66306,293.6106,421.88153,293.21344,421.88153 M295.51724,418.79425c0-1.09235-0.13022-1.87796-0.58698-2.57309
			c-0.30673-0.45679-0.92239-0.85181-1.71683-0.85181c-2.30392,0-2.30392,2.7099-2.30392,3.4249s0,3.36533,2.30392,3.36533
			C295.51724,422.15958,295.51724,419.50925,295.51724,418.79425z"/>
	</g>
</g>
</svg>
