<?xml version="1.0" encoding="utf-8"?>
<!-- Generator: Adobe Illustrator 23.0.3, SVG Export Plug-In . SVG Version: 6.00 Build 0)  -->
<svg version="1.1" id="Layer_1" xmlns="http://www.w3.org/2000/svg" xmlns:xlink="http://www.w3.org/1999/xlink" x="0px" y="0px"
	 viewBox="0 0 146.79965 87.10767" style="enable-background:new 0 0 146.79965 87.10767;" xml:space="preserve">
<style type="text/css">
	.st0{fill:#8FF4DD;}
	.st1{fill:none;stroke:#8FF4DD;stroke-miterlimit:10;}
	.st2{fill:#FD1D53;}
	.st3{fill:#2DE2E6;}
	.st4{fill:none;stroke:#8FF4DD;stroke-width:0.5;stroke-miterlimit:10;}
</style>
<path class="st0" d="M25.2986,19.11377c-0.07178,0-0.14404-0.03613-0.26367-0.15576L22.636,16.55908l-2.39844,2.39893
	c-0.13184,0.13184-0.15625,0.15576-0.25195,0.15576c-0.12012,0-0.23975-0.10791-0.23975-0.23975
	c0-0.07227,0.03564-0.14404,0.15576-0.26416l2.38672-2.38672l-2.38672-2.39844c-0.10791-0.10791-0.15576-0.15576-0.15576-0.25195
	c0-0.13184,0.11963-0.23975,0.23975-0.23975c0.0957,0,0.12012,0.02393,0.25195,0.15576l2.41064,2.39893l2.39844-2.39893
	c0.10791-0.10791,0.15625-0.15576,0.25195-0.15576c0.13184,0,0.23975,0.10791,0.23975,0.23975
	c0,0.09619-0.02393,0.12012-0.15576,0.25195l-2.38672,2.39844l2.38672,2.39893c0.13184,0.13184,0.15576,0.15576,0.15576,0.25195
	C25.53835,19.00586,25.44264,19.11377,25.2986,19.11377z"/>
<path class="st0" d="M37.58683,18.95166c-0.396,0-1.55908,0-1.88281,0.02393v-0.34766h0.37158
	c1.05566,0,1.09131-0.14404,1.09131-0.57568v-6.24854c-0.65967,0.31152-1.25928,0.31152-1.53516,0.31152v-0.34766
	c1.23535,0,1.83496-0.44385,2.12305-0.76758c0.23975,0,0.23975,0.01172,0.23975,0.2876v6.76465
	c0,0.43164,0.03613,0.57568,1.09131,0.57568h0.37207v0.34766C39.13371,18.95166,37.98234,18.95166,37.58683,18.95166z"/>
<path class="st0" d="M43.46672,18.95166c-0.396,0-1.55908,0-1.88281,0.02393v-0.34766h0.37158
	c1.05566,0,1.09131-0.14404,1.09131-0.57568v-6.24854c-0.65967,0.31152-1.25928,0.31152-1.53516,0.31152v-0.34766
	c1.23535,0,1.83496-0.44385,2.12305-0.76758c0.23975,0,0.23975,0.01172,0.23975,0.2876v6.76465
	c0,0.43164,0.03613,0.57568,1.09131,0.57568h0.37207v0.34766C45.01359,18.95166,43.86222,18.95166,43.46672,18.95166z"/>
<path class="st0" d="M49.3466,18.95166c-0.396,0-1.55908,0-1.88281,0.02393v-0.34766h0.37158
	c1.05566,0,1.09131-0.14404,1.09131-0.57568v-6.24854c-0.65967,0.31152-1.25928,0.31152-1.53516,0.31152v-0.34766
	c1.23535,0,1.83496-0.44385,2.12305-0.76758c0.23975,0,0.23975,0.01172,0.23975,0.2876v6.76465
	c0,0.43164,0.03613,0.57568,1.09131,0.57568h0.37207v0.34766C50.89347,18.95166,49.74211,18.95166,49.3466,18.95166z"/>
<path class="st0" d="M29.75187,17.9082c0.34814,0.6958,0.94775,1.31934,1.99121,1.31934c0.62354,0,1.45117-0.28809,1.91895-1.19922
	c0.43164-0.85156,0.51563-1.72705,0.51563-2.89063c0-1.29541-0.12012-2.03906-0.45557-2.79443
	C33.27824,11.34766,32.42668,11,31.73088,11c-0.5874,0-1.45117,0.26367-1.94287,1.25928
	c-0.43164,0.91162-0.4917,1.88281-0.4917,2.87842C29.29631,15.8335,29.32023,17.00879,29.75187,17.9082z M30.36369,12.54688
	c0.22803-1.03125,0.92334-1.30713,1.37939-1.30713c0.51563,0,1.12744,0.37207,1.33105,1.17529
	c0.19189,0.70801,0.19189,1.59521,0.19189,2.57861c0,0.83984,0,1.75098-0.13184,2.4707
	c-0.22803,1.30713-1.00732,1.52344-1.39111,1.52344c-0.41992,0-1.17529-0.22803-1.40332-1.54736
	c-0.13184-0.73145-0.13184-1.64307-0.13184-2.44678C30.20793,14.17822,30.20793,13.23096,30.36369,12.54688z"/>
<path class="st0" d="M7.5798,60.35986H4.23361v3.35791c0,0.16797,0,0.396-0.23975,0.396s-0.23975-0.22803-0.23975-0.396v-3.35791
	h-3.3584c-0.16797,0-0.39551,0-0.39551-0.24023c0-0.23975,0.22754-0.23975,0.39551-0.23975h3.3584v-3.35791
	c0-0.16797,0-0.396,0.23975-0.396s0.23975,0.22803,0.23975,0.396v3.35791H7.5798c0.16797,0,0.396,0,0.396,0.23975
	C7.97579,60.35986,7.74777,60.35986,7.5798,60.35986z"/>
<line class="st1" x1="19.657" y1="21.11377" x2="51.657" y2="21.11377"/>
<line class="st1" x1="0" y1="66.11377" x2="51.657" y2="66.11377"/>
<path class="st0" d="M31.47878,7.97754c-0.396,0-1.55908,0-1.88281,0.02393V7.65381h0.37158
	c1.05518,0,1.09131-0.14404,1.09131-0.57568V0.82959c-0.65967,0.31152-1.25928,0.31152-1.53516,0.31152V0.79346
	c1.23535,0,1.83496-0.44385,2.12305-0.76758c0.23975,0,0.23975,0.01172,0.23975,0.2876v6.76465
	c0,0.43164,0.03613,0.57568,1.09131,0.57568h0.37207v0.34766C33.02565,7.97754,31.87428,7.97754,31.47878,7.97754z"/>
<path class="st0" d="M39.22976,6.93408c-0.34814,0.6958-0.94775,1.31934-1.99121,1.31934
	c-0.62354,0-1.45117-0.28809-1.91895-1.19922c-0.43164-0.85156-0.51563-1.72705-0.51563-2.89063
	c0-1.29541,0.12012-2.03906,0.45557-2.79443c0.44385-0.99561,1.29541-1.34326,1.99121-1.34326
	c0.5874,0,1.45117,0.26367,1.94287,1.25928c0.43164,0.91162,0.4917,1.88281,0.4917,2.87842
	C39.68532,4.85938,39.6614,6.03467,39.22976,6.93408z M38.61794,1.57275c-0.22803-1.03125-0.92334-1.30713-1.37939-1.30713
	c-0.51563,0-1.12744,0.37207-1.33105,1.17529c-0.1919,0.70802-0.1919,1.59522-0.1919,2.57862c0,0.83984,0,1.75098,0.13184,2.4707
	c0.22803,1.30713,1.00732,1.52344,1.39111,1.52344c0.41992,0,1.17529-0.22803,1.40332-1.54736
	c0.13184-0.73145,0.13184-1.64307,0.13184-2.44678C38.7737,3.2041,38.7737,2.25684,38.61794,1.57275z"/>
<path class="st0" d="M43.23854,7.97754c-0.396,0-1.55908,0-1.88281,0.02393V7.65381h0.37158
	c1.05518,0,1.09131-0.14404,1.09131-0.57568V0.82959c-0.65967,0.31152-1.25928,0.31152-1.53516,0.31152V0.79346
	c1.23535,0,1.83496-0.44385,2.12305-0.76758c0.23975,0,0.23975,0.01172,0.23975,0.2876v6.76465
	c0,0.43164,0.03613,0.57568,1.09131,0.57568h0.37207v0.34766C44.78542,7.97754,43.63405,7.97754,43.23854,7.97754z"/>
<path class="st0" d="M50.98952,6.93408c-0.34814,0.6958-0.94775,1.31934-1.99121,1.31934
	c-0.62354,0-1.45117-0.28809-1.91895-1.19922c-0.43164-0.85156-0.51563-1.72705-0.51563-2.89063
	c0-1.29541,0.12012-2.03906,0.45557-2.79443c0.44385-0.99561,1.29541-1.34326,1.99121-1.34326
	c0.5874,0,1.45117,0.26367,1.94287,1.25928c0.43164,0.91162,0.4917,1.88281,0.4917,2.87842
	C51.44509,4.85938,51.42116,6.03467,50.98952,6.93408z M50.3777,1.57275c-0.22803-1.03125-0.92334-1.30713-1.37939-1.30713
	c-0.51563,0-1.12744,0.37207-1.33105,1.17529c-0.19189,0.70801-0.19189,1.59521-0.19189,2.57861c0,0.83984,0,1.75098,0.13184,2.4707
	c0.22803,1.30713,1.00732,1.52344,1.39111,1.52344c0.41992,0,1.17529-0.22803,1.40332-1.54736
	c0.13184-0.73145,0.13184-1.64307,0.13184-2.44678C50.53347,3.2041,50.53347,2.25684,50.3777,1.57275z"/>
<path class="st0" d="M31.53493,30.95166c-0.396,0-1.55908,0-1.88281,0.02393v-0.34766h0.37158
	c1.05518,0,1.09131-0.14404,1.09131-0.57568v-6.24854c-0.65967,0.31152-1.25928,0.31152-1.53516,0.31152v-0.34766
	c1.23535,0,1.83496-0.44385,2.12305-0.76758c0.23975,0,0.23975,0.01172,0.23975,0.2876v6.76465
	c0,0.43164,0.03613,0.57568,1.09131,0.57568h0.37207v0.34766C33.08181,30.95166,31.93044,30.95166,31.53493,30.95166z"/>
<path class="st0" d="M39.28591,29.9082c-0.34814,0.6958-0.94775,1.31934-1.99121,1.31934
	c-0.62354,0-1.45117-0.28809-1.91895-1.19922c-0.43164-0.85156-0.51563-1.72705-0.51563-2.89063
	c0-1.29541,0.12012-2.03906,0.45557-2.79443C35.75954,23.34766,36.6111,23,37.3069,23c0.5874,0,1.45117,0.26367,1.94287,1.25928
	c0.43164,0.91162,0.4917,1.88281,0.4917,2.87842C39.74147,27.8335,39.71755,29.00879,39.28591,29.9082z M38.67409,24.54688
	c-0.22803-1.03125-0.92334-1.30713-1.37939-1.30713c-0.51563,0-1.12744,0.37207-1.33105,1.17529
	c-0.19189,0.70801-0.19189,1.59521-0.19189,2.57861c0,0.83984,0,1.75098,0.13184,2.4707
	c0.22803,1.30713,1.00732,1.52344,1.39111,1.52344c0.41992,0,1.17529-0.22803,1.40332-1.54736
	c0.13184-0.73145,0.13184-1.64307,0.13184-2.44678C38.82985,26.17822,38.82985,25.23096,38.67409,24.54688z"/>
<path class="st0" d="M43.2947,30.95166c-0.396,0-1.55908,0-1.88281,0.02393v-0.34766h0.37158
	c1.05518,0,1.09131-0.14404,1.09131-0.57568v-6.24854c-0.65967,0.31152-1.25928,0.31152-1.53516,0.31152v-0.34766
	c1.23535,0,1.83496-0.44385,2.12305-0.76758c0.23975,0,0.23975,0.01172,0.23975,0.2876v6.76465
	c0,0.43164,0.03613,0.57568,1.09131,0.57568h0.37207v0.34766C44.84157,30.95166,43.6902,30.95166,43.2947,30.95166z"/>
<path class="st0" d="M51.04567,29.9082c-0.34814,0.6958-0.94775,1.31934-1.99121,1.31934
	c-0.62354,0-1.45117-0.28809-1.91895-1.19922c-0.43164-0.85156-0.51563-1.72705-0.51563-2.89063
	c0-1.29541,0.12012-2.03906,0.45557-2.79443C47.51931,23.34766,48.37087,23,49.06667,23c0.5874,0,1.45117,0.26367,1.94287,1.25928
	c0.43164,0.91162,0.4917,1.88281,0.4917,2.87842C51.50124,27.8335,51.47731,29.00879,51.04567,29.9082z M50.43386,24.54688
	c-0.22803-1.03125-0.92334-1.30713-1.37939-1.30713c-0.51563,0-1.12744,0.37207-1.33105,1.17529
	c-0.19189,0.70801-0.19189,1.59521-0.19189,2.57861c0,0.83984,0,1.75098,0.13184,2.4707
	c0.22803,1.30713,1.00732,1.52344,1.39111,1.52344c0.41992,0,1.17529-0.22803,1.40332-1.54736
	c0.13184-0.73145,0.13184-1.64307,0.13184-2.44678C50.58962,26.17822,50.58962,25.23096,50.43386,24.54688z"/>
<path class="st0" d="M25.58317,41.95166c-0.396,0-1.55908,0-1.88281,0.02393v-0.34766h0.37158
	c1.05518,0,1.09131-0.14404,1.09131-0.57568v-6.24854c-0.65967,0.31152-1.25928,0.31152-1.53516,0.31152v-0.34766
	c1.23535,0,1.83496-0.44385,2.12305-0.76758c0.23975,0,0.23975,0.01172,0.23975,0.2876v6.76465
	c0,0.43164,0.03613,0.57568,1.09131,0.57568h0.37207v0.34766C27.13004,41.95166,25.97868,41.95166,25.58317,41.95166z"/>
<path class="st0" d="M33.33414,40.9082c-0.34814,0.6958-0.94775,1.31934-1.99121,1.31934
	c-0.62354,0-1.45117-0.28809-1.91895-1.19922c-0.43164-0.85156-0.51563-1.72705-0.51563-2.89063
	c0-1.29541,0.12012-2.03906,0.45557-2.79443C29.80778,34.34766,30.65934,34,31.35514,34c0.5874,0,1.45117,0.26367,1.94287,1.25928
	c0.43164,0.91162,0.4917,1.88281,0.4917,2.87842C33.78971,38.8335,33.76579,40.00879,33.33414,40.9082z M32.72233,35.54688
	c-0.22803-1.03125-0.92334-1.30713-1.37939-1.30713c-0.51563,0-1.12744,0.37207-1.33105,1.17529
	C29.82,36.12305,29.82,37.01025,29.82,37.99365c0,0.83984,0,1.75098,0.13184,2.4707
	c0.22803,1.30713,1.00732,1.52344,1.39111,1.52344c0.41992,0,1.17529-0.22803,1.40332-1.54736
	c0.13184-0.73145,0.13184-1.64307,0.13184-2.44678C32.87809,37.17822,32.87809,36.23096,32.72233,35.54688z"/>
<path class="st0" d="M37.34293,41.95166c-0.396,0-1.55908,0-1.88281,0.02393v-0.34766h0.37158
	c1.05518,0,1.09131-0.14404,1.09131-0.57568v-6.24854c-0.65967,0.31152-1.25928,0.31152-1.53516,0.31152v-0.34766
	c1.23535,0,1.83496-0.44385,2.12305-0.76758c0.23975,0,0.23975,0.01172,0.23975,0.2876v6.76465
	c0,0.43164,0.03613,0.57568,1.09131,0.57568h0.37207v0.34766C38.88981,41.95166,37.73844,41.95166,37.34293,41.95166z"/>
<path class="st0" d="M45.09391,40.9082c-0.34814,0.6958-0.94775,1.31934-1.99121,1.31934
	c-0.62354,0-1.45117-0.28809-1.91895-1.19922c-0.43164-0.85156-0.51563-1.72705-0.51563-2.89063
	c0-1.29541,0.12012-2.03906,0.45557-2.79443C41.56754,34.34766,42.41911,34,43.11491,34c0.5874,0,1.45117,0.26367,1.94287,1.25928
	c0.43164,0.91162,0.4917,1.88281,0.4917,2.87842C45.54948,38.8335,45.52555,40.00879,45.09391,40.9082z M44.48209,35.54688
	c-0.22803-1.03125-0.92334-1.30713-1.37939-1.30713c-0.51563,0-1.12744,0.37207-1.33105,1.17529
	c-0.19189,0.70801-0.19189,1.59521-0.19189,2.57861c0,0.83984,0,1.75098,0.13184,2.4707
	c0.22803,1.30713,1.00732,1.52344,1.39111,1.52344c0.41992,0,1.17529-0.22803,1.40332-1.54736
	c0.13184-0.73145,0.13184-1.64307,0.13184-2.44678C44.63786,37.17822,44.63786,36.23096,44.48209,35.54688z"/>
<path class="st0" d="M19.70417,52.95166c-0.396,0-1.55908,0-1.88281,0.02393v-0.34766h0.37158
	c1.05518,0,1.09131-0.14404,1.09131-0.57568v-6.24854c-0.65967,0.31152-1.25928,0.31152-1.53516,0.31152v-0.34766
	c1.23535,0,1.83496-0.44385,2.12305-0.76758c0.23975,0,0.23975,0.01172,0.23975,0.2876v6.76465
	c0,0.43164,0.03613,0.57568,1.09131,0.57568h0.37207v0.34766C21.25104,52.95166,20.09968,52.95166,19.70417,52.95166z"/>
<path class="st0" d="M27.45514,51.9082c-0.34814,0.6958-0.94775,1.31934-1.99121,1.31934
	c-0.62354,0-1.45117-0.28809-1.91895-1.19922c-0.43164-0.85156-0.51563-1.72705-0.51563-2.89063
	c0-1.29541,0.12012-2.03906,0.45557-2.79443C23.92878,45.34766,24.78034,45,25.47614,45c0.5874,0,1.45117,0.26367,1.94287,1.25928
	c0.43164,0.91162,0.4917,1.88281,0.4917,2.87842C27.91071,49.8335,27.88679,51.00879,27.45514,51.9082z M26.84333,46.54688
	c-0.22803-1.03125-0.92334-1.30713-1.37939-1.30713c-0.51563,0-1.12744,0.37207-1.33105,1.17529
	C23.941,47.12305,23.941,48.01025,23.941,48.99365c0,0.83984,0,1.75098,0.13184,2.4707
	c0.22803,1.30713,1.00732,1.52344,1.39111,1.52344c0.41992,0,1.17529-0.22803,1.40332-1.54736
	c0.13184-0.73145,0.13184-1.64307,0.13184-2.44678C26.99909,48.17822,26.99909,47.23096,26.84333,46.54688z"/>
<path class="st0" d="M31.46393,52.95166c-0.396,0-1.55908,0-1.88281,0.02393v-0.34766h0.37158
	c1.05518,0,1.09131-0.14404,1.09131-0.57568v-6.24854c-0.65967,0.31152-1.25928,0.31152-1.53516,0.31152v-0.34766
	c1.23535,0,1.83496-0.44385,2.12305-0.76758c0.23975,0,0.23975,0.01172,0.23975,0.2876v6.76465
	c0,0.43164,0.03613,0.57568,1.09131,0.57568h0.37207v0.34766C33.01081,52.95166,31.85944,52.95166,31.46393,52.95166z"/>
<path class="st0" d="M39.21491,51.9082c-0.34814,0.6958-0.94775,1.31934-1.99121,1.31934
	c-0.62354,0-1.45117-0.28809-1.91895-1.19922c-0.43164-0.85156-0.51563-1.72705-0.51563-2.89063
	c0-1.29541,0.12012-2.03906,0.45557-2.79443C35.68854,45.34766,36.5401,45,37.2359,45c0.5874,0,1.45117,0.26367,1.94287,1.25928
	c0.43164,0.91162,0.4917,1.88281,0.4917,2.87842C39.67048,49.8335,39.64655,51.00879,39.21491,51.9082z M38.60309,46.54688
	c-0.22803-1.03125-0.92334-1.30713-1.37939-1.30713c-0.51563,0-1.12744,0.37207-1.33105,1.17529
	c-0.19189,0.70801-0.19189,1.59521-0.19189,2.57861c0,0.83984,0,1.75098,0.13184,2.4707
	c0.22803,1.30713,1.00732,1.52344,1.39111,1.52344c0.41992,0,1.17529-0.22803,1.40332-1.54736
	c0.13184-0.73145,0.13184-1.64307,0.13184-2.44678C38.75885,48.17822,38.75885,47.23096,38.60309,46.54688z"/>
<path class="st0" d="M15.71855,62.91431c-0.34814,0.6958-0.94775,1.31934-1.99121,1.31934
	c-0.62354,0-1.45117-0.28809-1.91895-1.19922c-0.43164-0.85156-0.51563-1.72705-0.51563-2.89063
	c0-1.29541,0.12012-2.03906,0.45557-2.79443c0.44385-0.99561,1.29541-1.34326,1.99121-1.34326
	c0.5874,0,1.45117,0.26367,1.94287,1.25928c0.43164,0.91162,0.4917,1.88281,0.4917,2.87842
	C16.17412,60.8396,16.15019,62.01489,15.71855,62.91431z M15.10673,57.55298c-0.22803-1.03125-0.92334-1.30713-1.37939-1.30713
	c-0.51563,0-1.12744,0.37207-1.33105,1.17529c-0.19189,0.70801-0.19189,1.59521-0.19189,2.57861c0,0.83984,0,1.75098,0.13184,2.4707
	c0.22803,1.30713,1.00732,1.52344,1.39111,1.52344c0.41992,0,1.17529-0.22803,1.40332-1.54736
	c0.13184-0.73145,0.13184-1.64307,0.13184-2.44678C15.26249,59.18433,15.26249,58.23706,15.10673,57.55298z"/>
<path class="st0" d="M21.59843,62.91431c-0.34814,0.6958-0.94775,1.31934-1.99121,1.31934
	c-0.62354,0-1.45117-0.28809-1.91895-1.19922c-0.43164-0.85156-0.51563-1.72705-0.51563-2.89063
	c0-1.29541,0.12012-2.03906,0.45557-2.79443c0.44385-0.99561,1.29541-1.34326,1.99121-1.34326
	c0.5874,0,1.45117,0.26367,1.94287,1.25928c0.43164,0.91162,0.4917,1.88281,0.4917,2.87842
	C22.054,60.8396,22.03007,62.01489,21.59843,62.91431z M20.98662,57.55298c-0.22803-1.03125-0.92334-1.30713-1.37939-1.30713
	c-0.51563,0-1.12744,0.37207-1.33105,1.17529c-0.19189,0.70801-0.19189,1.59521-0.19189,2.57861c0,0.83984,0,1.75098,0.13184,2.4707
	c0.22803,1.30713,1.00732,1.52344,1.39111,1.52344c0.41992,0,1.17529-0.22803,1.40332-1.54736
	c0.13184-0.73145,0.13184-1.64307,0.13184-2.44678C21.14238,59.18433,21.14238,58.23706,20.98662,57.55298z"/>
<path class="st0" d="M27.47832,62.91431c-0.34814,0.6958-0.94775,1.31934-1.99121,1.31934
	c-0.62354,0-1.45117-0.28809-1.91895-1.19922c-0.43164-0.85156-0.51563-1.72705-0.51563-2.89063
	c0-1.29541,0.12012-2.03906,0.45557-2.79443c0.44385-0.99561,1.29541-1.34326,1.99121-1.34326
	c0.5874,0,1.45117,0.26367,1.94287,1.25928c0.43164,0.91162,0.4917,1.88281,0.4917,2.87842
	C27.93388,60.8396,27.90996,62.01489,27.47832,62.91431z M26.8665,57.55298c-0.22803-1.03125-0.92334-1.30713-1.37939-1.30713
	c-0.51563,0-1.12744,0.37207-1.33105,1.17529c-0.19189,0.70801-0.19189,1.59521-0.19189,2.57861c0,0.83984,0,1.75098,0.13184,2.4707
	c0.22803,1.30713,1.00732,1.52344,1.39111,1.52344c0.41992,0,1.17529-0.22803,1.40332-1.54736
	c0.13184-0.73145,0.13184-1.64307,0.13184-2.44678C27.02226,59.18433,27.02226,58.23706,26.8665,57.55298z"/>
<path class="st0" d="M33.3582,62.91431c-0.34814,0.6958-0.94775,1.31934-1.99121,1.31934
	c-0.62354,0-1.45117-0.28809-1.91895-1.19922c-0.43164-0.85156-0.51563-1.72705-0.51563-2.89063
	c0-1.29541,0.12012-2.03906,0.45557-2.79443c0.44385-0.99561,1.29541-1.34326,1.99121-1.34326
	c0.5874,0,1.45117,0.26367,1.94287,1.25928c0.43164,0.91162,0.4917,1.88281,0.4917,2.87842
	C33.81376,60.8396,33.78984,62.01489,33.3582,62.91431z M32.74638,57.55298c-0.22803-1.03125-0.92334-1.30713-1.37939-1.30713
	c-0.51563,0-1.12744,0.37207-1.33105,1.17529c-0.19189,0.70801-0.19189,1.59521-0.19189,2.57861c0,0.83984,0,1.75098,0.13184,2.4707
	c0.22803,1.30713,1.00732,1.52344,1.39111,1.52344c0.41992,0,1.17529-0.22803,1.40332-1.54736
	c0.13184-0.73145,0.13184-1.64307,0.13184-2.44678C32.90214,59.18433,32.90214,58.23706,32.74638,57.55298z"/>
<path class="st0" d="M8.00856,75.95166c-0.396,0-1.55908,0-1.88281,0.02393v-0.34766h0.37158
	c1.05566,0,1.09131-0.14404,1.09131-0.57568v-6.24854c-0.65967,0.31152-1.25928,0.31152-1.53516,0.31152v-0.34766
	c1.23535,0,1.83496-0.44385,2.12305-0.76758c0.23975,0,0.23975,0.01221,0.23975,0.2876v6.76465
	c0,0.43164,0.03613,0.57568,1.09131,0.57568h0.37207v0.34766C9.55544,75.95166,8.40407,75.95166,8.00856,75.95166z"/>
<path class="st0" d="M15.75954,74.9082c-0.34814,0.6958-0.94775,1.31934-1.99121,1.31934
	c-0.62354,0-1.45117-0.28809-1.91895-1.19922c-0.43164-0.85156-0.51563-1.72705-0.51563-2.89063
	c0-1.29541,0.12012-2.03906,0.45557-2.79443C12.23317,68.34766,13.08473,68,13.78053,68c0.5874,0,1.45117,0.26367,1.94287,1.25928
	c0.43164,0.91162,0.4917,1.88281,0.4917,2.87842C16.21511,72.8335,16.19118,74.00879,15.75954,74.9082z M15.14772,69.54736
	c-0.22803-1.03174-0.92334-1.30762-1.37939-1.30762c-0.51563,0-1.12744,0.37207-1.33105,1.17529
	c-0.19189,0.70752-0.19189,1.59521-0.19189,2.57861c0,0.83984,0,1.75098,0.13184,2.4707
	c0.22803,1.30713,1.00732,1.52344,1.39111,1.52344c0.41992,0,1.17529-0.22803,1.40332-1.54736
	c0.13184-0.73145,0.13184-1.64307,0.13184-2.44678C15.30348,71.17822,15.30348,70.23096,15.14772,69.54736z"/>
<path class="st0" d="M21.63942,74.9082c-0.34814,0.6958-0.94775,1.31934-1.99121,1.31934
	c-0.62354,0-1.45117-0.28809-1.91895-1.19922c-0.43164-0.85156-0.51563-1.72705-0.51563-2.89063
	c0-1.29541,0.12012-2.03906,0.45557-2.79443C18.11305,68.34766,18.96462,68,19.66042,68c0.5874,0,1.45117,0.26367,1.94287,1.25928
	c0.43164,0.91162,0.4917,1.88281,0.4917,2.87842C22.09499,72.8335,22.07106,74.00879,21.63942,74.9082z M21.02761,69.54736
	c-0.22803-1.03174-0.92334-1.30762-1.37939-1.30762c-0.51563,0-1.12744,0.37207-1.33105,1.17529
	c-0.19189,0.70752-0.19189,1.59521-0.19189,2.57861c0,0.83984,0,1.75098,0.13184,2.4707
	c0.22803,1.30713,1.00732,1.52344,1.39111,1.52344c0.41992,0,1.17529-0.22803,1.40332-1.54736
	c0.13184-0.73145,0.13184-1.64307,0.13184-2.44678C21.18337,71.17822,21.18337,70.23096,21.02761,69.54736z"/>
<path class="st0" d="M27.5193,74.9082c-0.34814,0.6958-0.94775,1.31934-1.99121,1.31934c-0.62354,0-1.45117-0.28809-1.91895-1.19922
	c-0.43164-0.85156-0.51563-1.72705-0.51563-2.89063c0-1.29541,0.12012-2.03906,0.45557-2.79443
	C23.99294,68.34766,24.8445,68,25.5403,68c0.5874,0,1.45117,0.26367,1.94287,1.25928c0.43164,0.91162,0.4917,1.88281,0.4917,2.87842
	C27.97487,72.8335,27.95094,74.00879,27.5193,74.9082z M26.90749,69.54736c-0.22803-1.03174-0.92334-1.30762-1.37939-1.30762
	c-0.51563,0-1.12744,0.37207-1.33105,1.17529c-0.19189,0.70752-0.19189,1.59521-0.19189,2.57861c0,0.83984,0,1.75098,0.13184,2.4707
	c0.22803,1.30713,1.00732,1.52344,1.39111,1.52344c0.41992,0,1.17529-0.22803,1.40332-1.54736
	c0.13184-0.73145,0.13184-1.64307,0.13184-2.44678C27.06325,71.17822,27.06325,70.23096,26.90749,69.54736z"/>
<path class="st0" d="M33.39919,74.9082c-0.34814,0.6958-0.94775,1.31934-1.99121,1.31934
	c-0.62354,0-1.45117-0.28809-1.91895-1.19922c-0.43164-0.85156-0.51563-1.72705-0.51563-2.89063
	c0-1.29541,0.12012-2.03906,0.45557-2.79443C29.87282,68.34766,30.72438,68,31.42018,68c0.5874,0,1.45117,0.26367,1.94287,1.25928
	c0.43164,0.91162,0.4917,1.88281,0.4917,2.87842C33.85476,72.8335,33.83083,74.00879,33.39919,74.9082z M32.78737,69.54736
	c-0.22803-1.03174-0.92334-1.30762-1.3794-1.30762c-0.51563,0-1.12744,0.37207-1.33105,1.17529
	c-0.19189,0.70752-0.19189,1.59521-0.19189,2.57861c0,0.83984,0,1.75098,0.13184,2.4707
	c0.22803,1.30713,1.00732,1.52344,1.39111,1.52344c0.41992,0,1.17529-0.22803,1.40332-1.54736
	c0.13184-0.73145,0.13184-1.64307,0.13184-2.44678C32.94313,71.17822,32.94313,70.23096,32.78737,69.54736z"/>
<path class="st0" d="M37.40798,75.95166c-0.396,0-1.55908,0-1.88281,0.02393v-0.34766h0.37158
	c1.05566,0,1.09131-0.14404,1.09131-0.57568v-6.24854c-0.65967,0.31152-1.25928,0.31152-1.53516,0.31152v-0.34766
	c1.23535,0,1.83496-0.44385,2.12305-0.76758c0.23975,0,0.23975,0.01221,0.23975,0.2876v6.76465
	c0,0.43164,0.03613,0.57568,1.09131,0.57568h0.37207v0.34766C38.95485,75.95166,37.80349,75.95166,37.40798,75.95166z"/>
<path class="st0" d="M43.28786,75.95166c-0.396,0-1.55908,0-1.88281,0.02393v-0.34766h0.37158
	c1.05566,0,1.09131-0.14404,1.09131-0.57568v-6.24854c-0.65967,0.31152-1.25928,0.31152-1.53516,0.31152v-0.34766
	c1.23535,0,1.83496-0.44385,2.12305-0.76758c0.23975,0,0.23975,0.01221,0.23975,0.2876v6.76465
	c0,0.43164,0.03613,0.57568,1.09131,0.57568h0.37207v0.34766C44.83474,75.95166,43.68337,75.95166,43.28786,75.95166z"/>
<path class="st0" d="M51.03884,74.9082c-0.34814,0.6958-0.94775,1.31934-1.99121,1.31934
	c-0.62354,0-1.45117-0.28809-1.91895-1.19922c-0.43164-0.85156-0.51563-1.72705-0.51563-2.89063
	c0-1.29541,0.12012-2.03906,0.45557-2.79443C47.51247,68.34766,48.36403,68,49.05983,68c0.5874,0,1.45117,0.26367,1.94287,1.25928
	c0.43164,0.91162,0.4917,1.88281,0.4917,2.87842C51.4944,72.8335,51.47048,74.00879,51.03884,74.9082z M50.42702,69.54736
	c-0.22803-1.03174-0.92334-1.30762-1.37939-1.30762c-0.51563,0-1.12744,0.37207-1.33105,1.17529
	c-0.19189,0.70752-0.19189,1.59521-0.19189,2.57861c0,0.83984,0,1.75098,0.13184,2.4707
	c0.22803,1.30713,1.00732,1.52344,1.39111,1.52344c0.41992,0,1.17529-0.22803,1.40332-1.54736
	c0.13184-0.73145,0.13184-1.64307,0.13184-2.44678C50.58278,71.17822,50.58278,70.23096,50.42702,69.54736z"/>
<path class="st0" d="M27.23917,85.27023c0.15974,0,0.37704,0,0.37704-0.22803c0-0.22804-0.2173-0.22804-0.38784-0.22804h-6.81588
	c-0.17065,0-0.38784,0-0.38784,0.22804c0,0.22803,0.21719,0.22803,0.37704,0.22803H27.23917 M27.22837,83.05631
	c0.17054,0,0.38784,0,0.38784-0.22804c0-0.22802-0.2173-0.22802-0.37704-0.22802h-6.83748c-0.15985,0-0.37704,0-0.37704,0.22802
	c0,0.22804,0.21719,0.22804,0.38784,0.22804H27.22837z"/>
<path class="st2" d="M38.97493,84.16417c0.19386,0,0.39864,0,0.39864-0.22803c0-0.22984-0.20478-0.22984-0.39864-0.22984h-6.17672
	c-0.19398,0-0.39864,0-0.39864,0.22984c0,0.22803,0.20467,0.22803,0.39864,0.22803H38.97493"/>
<path class="st2" d="M45.54121,84.49455c0-1.35744-0.93726-2.49942-2.16903-2.49942c-0.54941,0-1.03953,0.18316-1.45081,0.58176
	V80.3504c0.22811,0.06824,0.60514,0.14904,0.9715,0.14904c1.40404,0,2.20304-1.03963,2.20304-1.18687
	c0-0.06824-0.03402-0.12569-0.11491-0.12569c-0.01068,0-0.03402,0-0.09147,0.03412
	c-0.22811,0.10235-0.78832,0.33038-1.55136,0.33038c-0.45794,0-0.98218-0.079-1.51907-0.3196
	c-0.09158-0.03412-0.11491-0.03412-0.13652-0.03412c-0.11491,0-0.11491,0.09158-0.11491,0.27472v3.37924
	c0,0.20469,0,0.29626,0.15985,0.29626c0.08078,0,0.10239-0.03412,0.14904-0.10234c0.12572-0.18316,0.54758-0.79903,1.4723-0.79903
	c0.59262,0,0.87807,0.5243,0.96966,0.7308c0.18317,0.42196,0.2065,0.86726,0.2065,1.43823c0,0.39862,0,1.08452-0.27477,1.56393
	c-0.27292,0.4453-0.69662,0.74157-1.22098,0.74157c-0.83314,0-1.48494-0.6051-1.6788-1.27844
	c0.03413,0.01078,0.06815,0.02335,0.19386,0.02335c0.37704,0,0.57101-0.2855,0.57101-0.56022
	c0-0.27473-0.19397-0.56021-0.57101-0.56021c-0.15973,0-0.55837,0.0808-0.55837,0.6051c0,0.98216,0.78821,2.09003,2.06664,2.09003
	C44.37597,87.04066,45.54121,85.94537,45.54121,84.49455"/>
<path class="st2" d="M48.54705,83.13711l1.40404,0.8888c0.31969,0.21726,0.85658,0.56022,0.85658,1.25689
	c0,0.84392-0.85658,1.43825-1.79383,1.43825c-0.98034,0-1.80268-0.70745-1.80268-1.6555
	C47.21115,84.40298,47.57567,83.67219,48.54705,83.13711 M49.68724,82.65771c0.82233-0.42375,1.38255-1.0163,1.38255-1.77042
	c0-1.0504-1.01631-1.7004-2.05595-1.7004c-1.14019,0-2.06491,0.84392-2.06491,1.90689c0,0.20469,0.0216,0.71822,0.50103,1.2551
	c0.12572,0.13646,0.54942,0.42194,0.83487,0.61587c-0.66249,0.33218-1.64467,0.97141-1.64467,2.10081
	c0,1.21021,1.16352,1.97511,2.36289,1.97511c1.28924,0,2.37381-0.94806,2.37381-2.16904c0-0.41118-0.12572-0.92471-0.55848-1.40413
	C50.60117,83.22689,50.418,83.11377,49.68724,82.65771z M48.02097,81.57319c-0.52436-0.34296-0.57102-0.7308-0.57102-0.92471
	c0-0.69668,0.74339-1.17609,1.55309-1.17609c0.83314,0,1.564,0.59254,1.564,1.4149c0,0.65179-0.44529,1.19942-1.12939,1.59805
	L48.02097,81.57319z"/>
<g>
	<path class="st0" d="M97.13364,19.08789c-0.07178,0-0.14404-0.03613-0.26367-0.15576l-2.39893-2.39893l-2.39844,2.39893
		c-0.13184,0.13184-0.15625,0.15576-0.25195,0.15576c-0.12012,0-0.23975-0.10791-0.23975-0.23975
		c0-0.07227,0.03564-0.14404,0.15576-0.26416l2.38672-2.38672l-2.38672-2.39844c-0.10791-0.10791-0.15576-0.15576-0.15576-0.25195
		c0-0.13184,0.11963-0.23975,0.23975-0.23975c0.0957,0,0.12012,0.02393,0.25195,0.15576l2.41064,2.39893l2.39844-2.39893
		c0.10791-0.10791,0.15625-0.15576,0.25195-0.15576c0.13184,0,0.23975,0.10791,0.23975,0.23975
		c0,0.09619-0.02393,0.12012-0.15576,0.25195l-2.38672,2.39844l2.38672,2.39893c0.13184,0.13184,0.15576,0.15576,0.15576,0.25195
		C97.37338,18.97998,97.27768,19.08789,97.13364,19.08789z"/>
</g>
<line class="st1" x1="91.49203" y1="21.08789" x2="146.79965" y2="21.08789"/>
<path class="st3" d="M103.31381,7.95166c-0.396,0-1.55908,0-1.88281,0.02393V7.62793h0.37158
	c1.05518,0,1.09131-0.14404,1.09131-0.57568V0.80371c-0.65967,0.31152-1.25928,0.31152-1.53516,0.31152V0.76758
	c1.23535,0,1.83496-0.44385,2.12305-0.76758c0.23975,0,0.23975,0.01221,0.23975,0.2876v6.76465
	c0,0.43164,0.03613,0.57568,1.09131,0.57568h0.37207v0.34766C104.86069,7.95166,103.70932,7.95166,103.31381,7.95166z"/>
<path class="st3" d="M109.1937,7.95166c-0.396,0-1.55908,0-1.88281,0.02393V7.62793h0.37158
	c1.05518,0,1.09131-0.14404,1.09131-0.57568V0.80371c-0.65967,0.31152-1.25928,0.31152-1.53516,0.31152V0.76758
	c1.23535,0,1.83496-0.44385,2.12305-0.76758c0.23975,0,0.23975,0.01221,0.23975,0.2876v6.76465
	c0,0.43164,0.03613,0.57568,1.09131,0.57568h0.37207v0.34766C110.74057,7.95166,109.5892,7.95166,109.1937,7.95166z"/>
<path class="st3" d="M115.07358,7.95166c-0.396,0-1.55908,0-1.88281,0.02393V7.62793h0.37158
	c1.05518,0,1.09131-0.14404,1.09131-0.57568V0.80371c-0.65967,0.31152-1.25928,0.31152-1.53516,0.31152V0.76758
	c1.23535,0,1.83496-0.44385,2.12305-0.76758c0.23975,0,0.23975,0.01221,0.23975,0.2876v6.76465
	c0,0.43164,0.03613,0.57568,1.09131,0.57568h0.37207v0.34766C116.62045,7.95166,115.46909,7.95166,115.07358,7.95166z"/>
<path class="st3" d="M120.95346,7.95166c-0.396,0-1.55908,0-1.88281,0.02393V7.62793h0.37158
	c1.05518,0,1.09131-0.14404,1.09131-0.57568V0.80371c-0.65967,0.31152-1.25928,0.31152-1.53516,0.31152V0.76758
	c1.23535,0,1.83496-0.44385,2.12305-0.76758c0.23975,0,0.23975,0.01221,0.23975,0.2876v6.76465
	c0,0.43164,0.03613,0.57568,1.09131,0.57568h0.37207v0.34766C122.50034,7.95166,121.34897,7.95166,120.95346,7.95166z"/>
<path class="st0" d="M126.83334,7.95166c-0.396,0-1.55908,0-1.88281,0.02393V7.62793h0.37158
	c1.05518,0,1.09131-0.14404,1.09131-0.57568V0.80371c-0.65967,0.31152-1.25928,0.31152-1.53516,0.31152V0.76758
	c1.23535,0,1.83496-0.44385,2.12305-0.76758c0.23975,0,0.23975,0.01221,0.23975,0.2876v6.76465
	c0,0.43164,0.03613,0.57568,1.09132,0.57568h0.37207v0.34766C128.38022,7.95166,127.22885,7.95166,126.83334,7.95166z"/>
<path class="st0" d="M134.58432,6.9082c-0.34814,0.6958-0.94775,1.31934-1.99121,1.31934
	c-0.62354,0-1.45117-0.28809-1.91895-1.19922c-0.43164-0.85156-0.51563-1.72705-0.51563-2.89063
	c0-1.29541,0.12012-2.03906,0.45557-2.79443C131.05795,0.34766,131.90952,0,132.60532,0c0.5874,0,1.45117,0.26367,1.94287,1.25928
	c0.43164,0.91162,0.4917,1.88281,0.4917,2.87842C135.03989,4.8335,135.01596,6.00879,134.58432,6.9082z M133.9725,1.54736
	c-0.22803-1.03174-0.92334-1.30762-1.37939-1.30762c-0.51563,0-1.12744,0.37207-1.33105,1.17529
	c-0.19189,0.70752-0.19189,1.59521-0.19189,2.57861c0,0.83984,0,1.75098,0.13184,2.4707
	c0.22803,1.30713,1.00732,1.52344,1.39111,1.52344c0.41992,0,1.17529-0.22803,1.40332-1.54736
	c0.13184-0.73145,0.13184-1.64307,0.13184-2.44678C134.12827,3.17822,134.12827,2.23096,133.9725,1.54736z"/>
<path class="st0" d="M138.59311,7.95166c-0.396,0-1.55908,0-1.88281,0.02393V7.62793h0.37158
	c1.05518,0,1.09131-0.14404,1.09131-0.57568V0.80371c-0.65967,0.31152-1.25928,0.31152-1.53516,0.31152V0.76758
	c1.23535,0,1.83496-0.44385,2.12305-0.76758c0.23975,0,0.23975,0.01221,0.23975,0.2876v6.76465
	c0,0.43164,0.03613,0.57568,1.09131,0.57568h0.37207v0.34766C140.13998,7.95166,138.98862,7.95166,138.59311,7.95166z"/>
<path class="st0" d="M146.34409,6.9082c-0.34814,0.6958-0.94775,1.31934-1.99121,1.31934
	c-0.62354,0-1.45117-0.28809-1.91895-1.19922c-0.43164-0.85156-0.51563-1.72705-0.51563-2.89063
	c0-1.29541,0.12012-2.03906,0.45557-2.79443C142.81772,0.34766,143.66928,0,144.36508,0c0.5874,0,1.45117,0.26367,1.94287,1.25928
	c0.43164,0.91162,0.4917,1.88281,0.4917,2.87842C146.79965,4.8335,146.77573,6.00879,146.34409,6.9082z M145.73227,1.54736
	c-0.22803-1.03174-0.92334-1.30762-1.37939-1.30762c-0.51563,0-1.12744,0.37207-1.33105,1.17529
	c-0.19189,0.70752-0.19189,1.59521-0.19189,2.57861c0,0.83984,0,1.75098,0.13184,2.4707
	c0.22803,1.30713,1.00732,1.52344,1.39111,1.52344c0.41992,0,1.17529-0.22803,1.40332-1.54736
	c0.13184-0.73145,0.13184-1.64307,0.13184-2.44678C145.88803,3.17822,145.88803,2.23096,145.73227,1.54736z"/>
<path class="st3" d="M105.56879,17.9082c-0.34814,0.6958-0.94775,1.31934-1.99121,1.31934
	c-0.62354,0-1.45117-0.28809-1.91895-1.19922c-0.43164-0.85156-0.51563-1.72705-0.51563-2.89063
	c0-1.29541,0.12012-2.03906,0.45557-2.79443C102.04243,11.34766,102.89399,11,103.58979,11
	c0.5874,0,1.45117,0.26367,1.94287,1.25928c0.43164,0.91162,0.4917,1.88281,0.4917,2.87842
	C106.02436,15.8335,106.00043,17.00879,105.56879,17.9082z M104.95698,12.54736c-0.22803-1.03174-0.92334-1.30762-1.37939-1.30762
	c-0.51563,0-1.12744,0.37207-1.33105,1.17529c-0.19189,0.70752-0.19189,1.59521-0.19189,2.57861c0,0.83984,0,1.75098,0.13184,2.4707
	c0.22803,1.30713,1.00732,1.52344,1.39111,1.52344c0.41992,0,1.17529-0.22803,1.40332-1.54736
	c0.13184-0.73145,0.13184-1.64307,0.13184-2.44678C105.11274,14.17822,105.11274,13.23096,104.95698,12.54736z"/>
<path class="st3" d="M111.44868,17.9082c-0.34814,0.6958-0.94775,1.31934-1.99121,1.31934
	c-0.62354,0-1.45117-0.28809-1.91895-1.19922c-0.43164-0.85156-0.51563-1.72705-0.51563-2.89063
	c0-1.29541,0.12012-2.03906,0.45557-2.79443C107.92231,11.34766,108.77387,11,109.46967,11
	c0.5874,0,1.45117,0.26367,1.94287,1.25928c0.43164,0.91162,0.4917,1.88281,0.4917,2.87842
	C111.90424,15.8335,111.88032,17.00879,111.44868,17.9082z M110.83686,12.54736c-0.22803-1.03174-0.92334-1.30762-1.37939-1.30762
	c-0.51563,0-1.12744,0.37207-1.33105,1.17529c-0.19189,0.70752-0.19189,1.59521-0.19189,2.57861c0,0.83984,0,1.75098,0.13184,2.4707
	c0.22803,1.30713,1.00732,1.52344,1.39111,1.52344c0.41992,0,1.17529-0.22803,1.40332-1.54736
	c0.13184-0.73145,0.13184-1.64307,0.13184-2.44678C110.99262,14.17822,110.99262,13.23096,110.83686,12.54736z"/>
<path class="st3" d="M117.32856,17.9082c-0.34814,0.6958-0.94775,1.31934-1.99121,1.31934
	c-0.62354,0-1.45117-0.28809-1.91895-1.19922c-0.43164-0.85156-0.51563-1.72705-0.51563-2.89063
	c0-1.29541,0.12012-2.03906,0.45557-2.79443C113.80219,11.34766,114.65376,11,115.34956,11
	c0.5874,0,1.45117,0.26367,1.94287,1.25928c0.43164,0.91162,0.4917,1.88281,0.4917,2.87842
	C117.78413,15.8335,117.7602,17.00879,117.32856,17.9082z M116.71674,12.54736c-0.22803-1.03174-0.92334-1.30762-1.37939-1.30762
	c-0.51563,0-1.12744,0.37207-1.33105,1.17529c-0.19189,0.70752-0.19189,1.59521-0.19189,2.57861c0,0.83984,0,1.75098,0.13184,2.4707
	c0.22803,1.30713,1.00732,1.52344,1.39111,1.52344c0.41992,0,1.17529-0.22803,1.40332-1.54736
	c0.13184-0.73145,0.13184-1.64307,0.13184-2.44678C116.87251,14.17822,116.87251,13.23096,116.71674,12.54736z"/>
<path class="st3" d="M123.20844,17.9082c-0.34814,0.6958-0.94775,1.31934-1.99121,1.31934
	c-0.62354,0-1.45117-0.28809-1.91895-1.19922c-0.43164-0.85156-0.51563-1.72705-0.51563-2.89063
	c0-1.29541,0.12012-2.03906,0.45557-2.79443C119.68208,11.34766,120.53364,11,121.22944,11
	c0.5874,0,1.45117,0.26367,1.94287,1.25928c0.43164,0.91162,0.4917,1.88281,0.4917,2.87842
	C123.66401,15.8335,123.64008,17.00879,123.20844,17.9082z M122.59663,12.54736c-0.22803-1.03174-0.92334-1.30762-1.37939-1.30762
	c-0.51563,0-1.12744,0.37207-1.33105,1.17529c-0.19189,0.70752-0.19189,1.59521-0.19189,2.57861c0,0.83984,0,1.75098,0.13184,2.4707
	c0.22803,1.30713,1.00732,1.52344,1.39111,1.52344c0.41992,0,1.17529-0.22803,1.40332-1.54736
	c0.13184-0.73145,0.13184-1.64307,0.13184-2.44678C122.75239,14.17822,122.75239,13.23096,122.59663,12.54736z"/>
<path class="st0" d="M129.08833,17.9082c-0.34814,0.6958-0.94775,1.31934-1.99122,1.31934
	c-0.62354,0-1.45117-0.28809-1.91895-1.19922c-0.43164-0.85156-0.51563-1.72705-0.51563-2.89063
	c0-1.29541,0.12012-2.03906,0.45557-2.79443C125.56196,11.34766,126.41352,11,127.10932,11
	c0.5874,0,1.45118,0.26367,1.94288,1.25928c0.43164,0.91162,0.4917,1.88281,0.4917,2.87842
	C129.5439,15.8335,129.51997,17.00879,129.08833,17.9082z M128.47652,12.54736c-0.22803-1.03174-0.92335-1.30762-1.3794-1.30762
	c-0.51563,0-1.12744,0.37207-1.33105,1.17529c-0.19189,0.70752-0.19189,1.59521-0.19189,2.57861c0,0.83984,0,1.75098,0.13184,2.4707
	c0.22803,1.30713,1.00732,1.52344,1.39111,1.52344c0.41992,0,1.17529-0.22803,1.40334-1.54736
	c0.13184-0.73145,0.13184-1.64307,0.13184-2.44678C128.63228,14.17822,128.63228,13.23096,128.47652,12.54736z"/>
<path class="st0" d="M133.09712,18.95166c-0.396,0-1.55908,0-1.88281,0.02393v-0.34766h0.37158
	c1.05518,0,1.09131-0.14404,1.09131-0.57568v-6.24854c-0.65967,0.31152-1.25928,0.31152-1.53516,0.31152v-0.34766
	c1.23535,0,1.83496-0.44385,2.12305-0.76758c0.23975,0,0.23975,0.01221,0.23975,0.2876v6.76465
	c0,0.43164,0.03613,0.57568,1.09131,0.57568h0.37207v0.34766C134.644,18.95166,133.49263,18.95166,133.09712,18.95166z"/>
<path class="st0" d="M138.97701,18.95166c-0.396,0-1.55908,0-1.88281,0.02393v-0.34766h0.37158
	c1.05518,0,1.09131-0.14404,1.09131-0.57568v-6.24854c-0.65967,0.31152-1.25928,0.31152-1.53516,0.31152v-0.34766
	c1.23535,0,1.83496-0.44385,2.12305-0.76758c0.23975,0,0.23975,0.01221,0.23975,0.2876v6.76465
	c0,0.43164,0.03613,0.57568,1.09131,0.57568h0.37207v0.34766C140.52388,18.95166,139.37251,18.95166,138.97701,18.95166z"/>
<path class="st0" d="M144.85689,18.95166c-0.39551,0-1.55859,0-1.88281,0.02393v-0.34766h0.37207
	c1.05566,0,1.0918-0.14404,1.0918-0.57568v-6.24854c-0.66016,0.31152-1.25977,0.31152-1.53516,0.31152v-0.34766
	c1.23535,0,1.83496-0.44385,2.12207-0.76758c0.24023,0,0.24023,0.01221,0.24023,0.2876v6.76465
	c0,0.43164,0.03613,0.57568,1.0918,0.57568h0.37109v0.34766C146.40474,18.95166,145.25337,18.95166,144.85689,18.95166z"/>
<g>
	<path class="st0" d="M103.3143,30.95166c-0.396,0-1.55908,0-1.88281,0.02393v-0.34766h0.37158
		c1.05518,0,1.09131-0.14404,1.09131-0.57568v-6.24854c-0.65967,0.31152-1.25928,0.31152-1.53516,0.31152v-0.34766
		c1.23535,0,1.83496-0.44385,2.12305-0.76758c0.23975,0,0.23975,0.01172,0.23975,0.2876v6.76465
		c0,0.43164,0.03613,0.57568,1.09131,0.57568h0.37207v0.34766C104.86118,30.95166,103.70981,30.95166,103.3143,30.95166z"/>
	<path class="st0" d="M109.19418,30.95166c-0.396,0-1.55908,0-1.88281,0.02393v-0.34766h0.37158
		c1.05518,0,1.09131-0.14404,1.09131-0.57568v-6.24854c-0.65967,0.31152-1.25928,0.31152-1.53516,0.31152v-0.34766
		c1.23535,0,1.83496-0.44385,2.12305-0.76758c0.23975,0,0.23975,0.01172,0.23975,0.2876v6.76465
		c0,0.43164,0.03613,0.57568,1.09131,0.57568h0.37207v0.34766C110.74106,30.95166,109.58969,30.95166,109.19418,30.95166z"/>
	<path class="st0" d="M115.07407,30.95166c-0.396,0-1.55908,0-1.88281,0.02393v-0.34766h0.37158
		c1.05518,0,1.09131-0.14404,1.09131-0.57568v-6.24854c-0.65967,0.31152-1.25928,0.31152-1.53516,0.31152v-0.34766
		c1.23535,0,1.83496-0.44385,2.12305-0.76758c0.23975,0,0.23975,0.01172,0.23975,0.2876v6.76465
		c0,0.43164,0.03613,0.57568,1.09131,0.57568h0.37207v0.34766C116.62094,30.95166,115.46957,30.95166,115.07407,30.95166z"/>
	<path class="st0" d="M120.95395,30.95166c-0.396,0-1.55908,0-1.88281,0.02393v-0.34766h0.37158
		c1.05518,0,1.09131-0.14404,1.09131-0.57568v-6.24854c-0.65967,0.31152-1.25928,0.31152-1.53516,0.31152v-0.34766
		c1.23535,0,1.83496-0.44385,2.12305-0.76758c0.23975,0,0.23975,0.01172,0.23975,0.2876v6.76465
		c0,0.43164,0.03613,0.57568,1.09131,0.57568h0.37207v0.34766C122.50082,30.95166,121.34946,30.95166,120.95395,30.95166z"/>
	<path class="st0" d="M126.83383,30.95166c-0.396,0-1.55908,0-1.88281,0.02393v-0.34766h0.37158
		c1.05518,0,1.09131-0.14404,1.09131-0.57568v-6.24854c-0.65967,0.31152-1.25928,0.31152-1.53516,0.31152v-0.34766
		c1.23535,0,1.83496-0.44385,2.12305-0.76758c0.23975,0,0.23975,0.01172,0.23975,0.2876v6.76465
		c0,0.43164,0.03613,0.57568,1.09132,0.57568h0.37207v0.34766C128.38071,30.95166,127.22934,30.95166,126.83383,30.95166z"/>
	<path class="st0" d="M134.58383,29.9082c-0.34766,0.6958-0.94727,1.31934-1.99023,1.31934
		c-0.62402,0-1.45117-0.28809-1.91895-1.19922c-0.43164-0.85156-0.51563-1.72705-0.51563-2.89063
		c0-1.29541,0.11914-2.03906,0.45508-2.79443C131.05844,23.34766,131.91,23,132.60532,23c0.58789,0,1.45117,0.26367,1.94238,1.25928
		c0.43262,0.91162,0.49219,1.88281,0.49219,2.87842C135.03989,27.8335,135.01547,29.00879,134.58383,29.9082z M133.9725,24.54688
		c-0.22754-1.03125-0.92383-1.30713-1.37891-1.30713c-0.51563,0-1.12793,0.37207-1.33203,1.17529
		c-0.19141,0.70801-0.19141,1.59521-0.19141,2.57861c0,0.83984,0,1.75098,0.13184,2.4707
		c0.22754,1.30713,1.00781,1.52344,1.3916,1.52344c0.41895,0,1.1748-0.22803,1.40332-1.54736
		c0.13184-0.73145,0.13184-1.64307,0.13184-2.44678C134.12875,26.17822,134.12875,25.23096,133.9725,24.54688z"/>
	<path class="st0" d="M138.5936,30.95166c-0.39551,0-1.55859,0-1.88281,0.02393v-0.34766h0.37207
		c1.05566,0,1.0918-0.14404,1.0918-0.57568v-6.24854c-0.66016,0.31152-1.25977,0.31152-1.53516,0.31152v-0.34766
		c1.23535,0,1.83496-0.44385,2.12207-0.76758c0.24023,0,0.24023,0.01172,0.24023,0.2876v6.76465
		c0,0.43164,0.03613,0.57568,1.0918,0.57568h0.37109v0.34766C140.14145,30.95166,138.99008,30.95166,138.5936,30.95166z"/>
	<path class="st0" d="M146.3436,29.9082c-0.34766,0.6958-0.94727,1.31934-1.99023,1.31934
		c-0.62402,0-1.45117-0.28809-1.91895-1.19922c-0.43164-0.85156-0.51563-1.72705-0.51563-2.89063
		c0-1.29541,0.11914-2.03906,0.45508-2.79443C142.81821,23.34766,143.66977,23,144.36508,23
		c0.58789,0,1.45117,0.26367,1.94238,1.25928c0.43262,0.91162,0.49219,1.88281,0.49219,2.87842
		C146.79965,27.8335,146.77524,29.00879,146.3436,29.9082z M145.73227,24.54688c-0.22754-1.03125-0.92383-1.30713-1.37891-1.30713
		c-0.51563,0-1.12793,0.37207-1.33203,1.17529c-0.19141,0.70801-0.19141,1.59521-0.19141,2.57861
		c0,0.83984,0,1.75098,0.13184,2.4707c0.22754,1.30713,1.00781,1.52344,1.3916,1.52344c0.41895,0,1.1748-0.22803,1.40332-1.54736
		c0.13184-0.73145,0.13184-1.64307,0.13184-2.44678C145.88852,26.17822,145.88852,25.23096,145.73227,24.54688z"/>
</g>
<g>
	<path class="st0" d="M97.50721,41.95166c-0.396,0-1.55908,0-1.88281,0.02393v-0.34766h0.37158
		c1.05518,0,1.09131-0.14404,1.09131-0.57568v-6.24854c-0.65967,0.31152-1.25928,0.31152-1.53516,0.31152v-0.34766
		c1.23535,0,1.83496-0.44385,2.12305-0.76758c0.23975,0,0.23975,0.01172,0.23975,0.2876v6.76465
		c0,0.43164,0.03613,0.57568,1.09131,0.57568h0.37207v0.34766C99.05408,41.95166,97.90272,41.95166,97.50721,41.95166z"/>
	<path class="st0" d="M103.38709,41.95166c-0.396,0-1.55908,0-1.88281,0.02393v-0.34766h0.37158
		c1.05518,0,1.09131-0.14404,1.09131-0.57568v-6.24854c-0.65967,0.31152-1.25928,0.31152-1.53516,0.31152v-0.34766
		c1.23535,0,1.83496-0.44385,2.12305-0.76758c0.23975,0,0.23975,0.01172,0.23975,0.2876v6.76465
		c0,0.43164,0.03613,0.57568,1.09131,0.57568h0.37207v0.34766C104.93397,41.95166,103.7826,41.95166,103.38709,41.95166z"/>
	<path class="st0" d="M109.26698,41.95166c-0.396,0-1.55908,0-1.88281,0.02393v-0.34766h0.37158
		c1.05518,0,1.09131-0.14404,1.09131-0.57568v-6.24854c-0.65967,0.31152-1.25928,0.31152-1.53516,0.31152v-0.34766
		c1.23535,0,1.83496-0.44385,2.12305-0.76758c0.23975,0,0.23975,0.01172,0.23975,0.2876v6.76465
		c0,0.43164,0.03613,0.57568,1.09131,0.57568h0.37207v0.34766C110.81385,41.95166,109.66248,41.95166,109.26698,41.95166z"/>
	<path class="st0" d="M115.14686,41.95166c-0.396,0-1.55908,0-1.88281,0.02393v-0.34766h0.37158
		c1.05518,0,1.09131-0.14404,1.09131-0.57568v-6.24854c-0.65967,0.31152-1.25928,0.31152-1.53516,0.31152v-0.34766
		c1.23535,0,1.83496-0.44385,2.12305-0.76758c0.23975,0,0.23975,0.01172,0.23975,0.2876v6.76465
		c0,0.43164,0.03613,0.57568,1.09131,0.57568h0.37207v0.34766C116.69373,41.95166,115.54237,41.95166,115.14686,41.95166z"/>
	<path class="st0" d="M121.02674,41.95166c-0.396,0-1.55908,0-1.88281,0.02393v-0.34766h0.37158
		c1.05518,0,1.09131-0.14404,1.09131-0.57568v-6.24854c-0.65967,0.31152-1.25928,0.31152-1.53516,0.31152v-0.34766
		c1.23535,0,1.83496-0.44385,2.12305-0.76758c0.23975,0,0.23975,0.01172,0.23975,0.2876v6.76465
		c0,0.43164,0.03613,0.57568,1.09131,0.57568h0.37207v0.34766C122.57362,41.95166,121.42225,41.95166,121.02674,41.95166z"/>
	<path class="st0" d="M128.77673,40.9082c-0.34766,0.6958-0.94726,1.31934-1.99023,1.31934
		c-0.62402,0-1.45117-0.28809-1.91895-1.19922c-0.43164-0.85156-0.51563-1.72705-0.51563-2.89063
		c0-1.29541,0.11914-2.03906,0.45508-2.79443C125.25135,34.34766,126.10291,34,126.79823,34
		c0.58789,0,1.45116,0.26367,1.94238,1.25928c0.43262,0.91162,0.49219,1.88281,0.49219,2.87842
		C129.23279,38.8335,129.20837,40.00879,128.77673,40.9082z M128.16541,35.54688c-0.22753-1.03125-0.92382-1.30713-1.3789-1.30713
		c-0.51563,0-1.12793,0.37207-1.33203,1.17529c-0.19141,0.70801-0.19141,1.59521-0.19141,2.57861
		c0,0.83984,0,1.75098,0.13184,2.4707c0.22754,1.30713,1.00781,1.52344,1.3916,1.52344c0.41895,0,1.1748-0.22803,1.40331-1.54736
		c0.13184-0.73145,0.13184-1.64307,0.13184-2.44678C128.32166,37.17822,128.32166,36.23096,128.16541,35.54688z"/>
	<path class="st0" d="M132.7865,41.95166c-0.39551,0-1.55859,0-1.88281,0.02393v-0.34766h0.37207
		c1.05566,0,1.0918-0.14404,1.0918-0.57568v-6.24854c-0.66016,0.31152-1.25977,0.31152-1.53516,0.31152v-0.34766
		c1.23535,0,1.83496-0.44385,2.12207-0.76758c0.24023,0,0.24023,0.01172,0.24023,0.2876v6.76465
		c0,0.43164,0.03613,0.57568,1.0918,0.57568h0.37109v0.34766C134.33435,41.95166,133.18298,41.95166,132.7865,41.95166z"/>
	<path class="st0" d="M140.5365,40.9082c-0.34766,0.6958-0.94727,1.31934-1.99023,1.31934
		c-0.62402,0-1.45117-0.28809-1.91895-1.19922c-0.43164-0.85156-0.51563-1.72705-0.51563-2.89063
		c0-1.29541,0.11914-2.03906,0.45508-2.79443C137.01111,34.34766,137.86267,34,138.55798,34
		c0.58789,0,1.45117,0.26367,1.94238,1.25928c0.43262,0.91162,0.49219,1.88281,0.49219,2.87842
		C140.99255,38.8335,140.96814,40.00879,140.5365,40.9082z M139.92517,35.54688c-0.22754-1.03125-0.92383-1.30713-1.37891-1.30713
		c-0.51563,0-1.12793,0.37207-1.33203,1.17529c-0.19141,0.70801-0.19141,1.59521-0.19141,2.57861
		c0,0.83984,0,1.75098,0.13184,2.4707c0.22754,1.30713,1.00781,1.52344,1.3916,1.52344c0.41895,0,1.1748-0.22803,1.40332-1.54736
		c0.13184-0.73145,0.13184-1.64307,0.13184-2.44678C140.08142,37.17822,140.08142,36.23096,139.92517,35.54688z"/>
</g>
<g>
	<path class="st0" d="M91.70021,52.95166c-0.396,0-1.55908,0-1.88281,0.02393v-0.34766h0.37158
		c1.05518,0,1.09131-0.14404,1.09131-0.57568v-6.24854c-0.65967,0.31152-1.25928,0.31152-1.53516,0.31152v-0.34766
		c1.23535,0,1.83496-0.44385,2.12305-0.76758c0.23975,0,0.23975,0.01172,0.23975,0.2876v6.76465
		c0,0.43164,0.03613,0.57568,1.09131,0.57568h0.37207v0.34766C93.24709,52.95166,92.09572,52.95166,91.70021,52.95166z"/>
	<path class="st0" d="M97.58009,52.95166c-0.396,0-1.55908,0-1.88281,0.02393v-0.34766h0.37158
		c1.05518,0,1.09131-0.14404,1.09131-0.57568v-6.24854c-0.65967,0.31152-1.25928,0.31152-1.53516,0.31152v-0.34766
		c1.23535,0,1.83496-0.44385,2.12305-0.76758c0.23975,0,0.23975,0.01172,0.23975,0.2876v6.76465
		c0,0.43164,0.03613,0.57568,1.09131,0.57568h0.37207v0.34766C99.12697,52.95166,97.9756,52.95166,97.58009,52.95166z"/>
	<path class="st0" d="M103.45998,52.95166c-0.396,0-1.55908,0-1.88281,0.02393v-0.34766h0.37158
		c1.05518,0,1.09131-0.14404,1.09131-0.57568v-6.24854c-0.65967,0.31152-1.25928,0.31152-1.53516,0.31152v-0.34766
		c1.23535,0,1.83496-0.44385,2.12305-0.76758c0.23975,0,0.23975,0.01172,0.23975,0.2876v6.76465
		c0,0.43164,0.03613,0.57568,1.09131,0.57568h0.37207v0.34766C105.00685,52.95166,103.85548,52.95166,103.45998,52.95166z"/>
	<path class="st0" d="M109.33986,52.95166c-0.396,0-1.55908,0-1.88281,0.02393v-0.34766h0.37158
		c1.05518,0,1.09131-0.14404,1.09131-0.57568v-6.24854c-0.65967,0.31152-1.25928,0.31152-1.53516,0.31152v-0.34766
		c1.23535,0,1.83496-0.44385,2.12305-0.76758c0.23975,0,0.23975,0.01172,0.23975,0.2876v6.76465
		c0,0.43164,0.03613,0.57568,1.09131,0.57568h0.37207v0.34766C110.88673,52.95166,109.73537,52.95166,109.33986,52.95166z"/>
	<path class="st0" d="M115.21974,52.95166c-0.396,0-1.55908,0-1.88281,0.02393v-0.34766h0.37158
		c1.05518,0,1.09131-0.14404,1.09131-0.57568v-6.24854c-0.65967,0.31152-1.25928,0.31152-1.53516,0.31152v-0.34766
		c1.23535,0,1.83496-0.44385,2.12305-0.76758c0.23975,0,0.23975,0.01172,0.23975,0.2876v6.76465
		c0,0.43164,0.03613,0.57568,1.09131,0.57568h0.37207v0.34766C116.76662,52.95166,115.61525,52.95166,115.21974,52.95166z"/>
	<path class="st0" d="M122.96974,51.9082c-0.34766,0.6958-0.94727,1.31934-1.99023,1.31934
		c-0.62402,0-1.45117-0.28809-1.91895-1.19922c-0.43164-0.85156-0.51563-1.72705-0.51563-2.89063
		c0-1.29541,0.11914-2.03906,0.45508-2.79443C119.44435,45.34766,120.29591,45,120.99123,45
		c0.58789,0,1.45117,0.26367,1.94238,1.25928c0.43262,0.91162,0.49219,1.88281,0.49219,2.87842
		C123.4258,49.8335,123.40138,51.00879,122.96974,51.9082z M122.35841,46.54688c-0.22754-1.03125-0.92383-1.30713-1.37891-1.30713
		c-0.51563,0-1.12793,0.37207-1.33203,1.17529c-0.19141,0.70801-0.19141,1.59521-0.19141,2.57861
		c0,0.83984,0,1.75098,0.13184,2.4707c0.22754,1.30713,1.00781,1.52344,1.3916,1.52344c0.41895,0,1.1748-0.22803,1.40332-1.54736
		c0.13184-0.73145,0.13184-1.64307,0.13184-2.44678C122.51466,48.17822,122.51466,47.23096,122.35841,46.54688z"/>
	<path class="st0" d="M126.97951,52.95166c-0.39551,0-1.55859,0-1.88281,0.02393v-0.34766h0.37207
		c1.05566,0,1.0918-0.14404,1.0918-0.57568v-6.24854c-0.66016,0.31152-1.25977,0.31152-1.53516,0.31152v-0.34766
		c1.23535,0,1.83496-0.44385,2.12207-0.76758c0.24023,0,0.24023,0.01172,0.24023,0.2876v6.76465
		c0,0.43164,0.03613,0.57568,1.0918,0.57568h0.37109v0.34766C128.52736,52.95166,127.37599,52.95166,126.97951,52.95166z"/>
	<path class="st0" d="M134.72951,51.9082c-0.34766,0.6958-0.94727,1.31934-1.99023,1.31934
		c-0.62402,0-1.45117-0.28809-1.91895-1.19922c-0.43164-0.85156-0.51563-1.72705-0.51563-2.89063
		c0-1.29541,0.11914-2.03906,0.45508-2.79443C131.20412,45.34766,132.05568,45,132.75099,45
		c0.58789,0,1.45117,0.26367,1.94238,1.25928c0.43262,0.91162,0.49219,1.88281,0.49219,2.87842
		C135.18556,49.8335,135.16115,51.00879,134.72951,51.9082z M134.11818,46.54688c-0.22754-1.03125-0.92383-1.30713-1.37891-1.30713
		c-0.51563,0-1.12793,0.37207-1.33203,1.17529c-0.19141,0.70801-0.19141,1.59521-0.19141,2.57861
		c0,0.83984,0,1.75098,0.13184,2.4707c0.22754,1.30713,1.00781,1.52344,1.3916,1.52344c0.41895,0,1.1748-0.22803,1.40332-1.54736
		c0.13184-0.73145,0.13184-1.64307,0.13184-2.44678C134.27443,48.17822,134.27443,47.23096,134.11818,46.54688z"/>
</g>
<g>
	<path class="st0" d="M87.76486,62.9082c-0.34814,0.6958-0.94775,1.31934-1.99121,1.31934
		c-0.62354,0-1.45117-0.28809-1.91895-1.19922c-0.43164-0.85156-0.51563-1.72705-0.51563-2.89063
		c0-1.29541,0.12012-2.03906,0.45557-2.79443C84.23849,56.34766,85.09006,56,85.78586,56c0.5874,0,1.45117,0.26367,1.94287,1.25928
		c0.43164,0.91162,0.4917,1.88281,0.4917,2.87842C88.22043,60.8335,88.1965,62.00879,87.76486,62.9082z M87.15305,57.54736
		c-0.22803-1.03174-0.92334-1.30762-1.37939-1.30762c-0.51563,0-1.12744,0.37207-1.33105,1.17529
		c-0.19189,0.70752-0.19189,1.59521-0.19189,2.57861c0,0.83984,0,1.75098,0.13184,2.4707
		c0.22803,1.30713,1.00732,1.52344,1.39111,1.52344c0.41992,0,1.17529-0.22803,1.40332-1.54736
		c0.13184-0.73145,0.13184-1.64307,0.13184-2.44678C87.30881,59.17822,87.30881,58.23096,87.15305,57.54736z"/>
	<path class="st0" d="M93.64474,62.9082c-0.34814,0.6958-0.94775,1.31934-1.99121,1.31934
		c-0.62354,0-1.45117-0.28809-1.91895-1.19922c-0.43164-0.85156-0.51563-1.72705-0.51563-2.89063
		c0-1.29541,0.12012-2.03906,0.45557-2.79443C90.11838,56.34766,90.96994,56,91.66574,56c0.5874,0,1.45117,0.26367,1.94287,1.25928
		c0.43164,0.91162,0.4917,1.88281,0.4917,2.87842C94.10031,60.8335,94.07639,62.00879,93.64474,62.9082z M93.03293,57.54736
		c-0.22803-1.03174-0.92334-1.30762-1.37939-1.30762c-0.51563,0-1.12744,0.37207-1.33105,1.17529
		c-0.19189,0.70752-0.19189,1.59521-0.19189,2.57861c0,0.83984,0,1.75098,0.13184,2.4707
		c0.22803,1.30713,1.00732,1.52344,1.39111,1.52344c0.41992,0,1.17529-0.22803,1.40332-1.54736
		c0.13184-0.73145,0.13184-1.64307,0.13184-2.44678C93.18869,59.17822,93.18869,58.23096,93.03293,57.54736z"/>
	<path class="st0" d="M99.52463,62.9082c-0.34814,0.6958-0.94775,1.31934-1.99121,1.31934
		c-0.62354,0-1.45117-0.28809-1.91895-1.19922c-0.43164-0.85156-0.51563-1.72705-0.51563-2.89063
		c0-1.29541,0.12012-2.03906,0.45557-2.79443C95.99826,56.34766,96.84982,56,97.54562,56c0.5874,0,1.45117,0.26367,1.94287,1.25928
		c0.43164,0.91162,0.4917,1.88281,0.4917,2.87842C99.98019,60.8335,99.95627,62.00879,99.52463,62.9082z M98.91281,57.54736
		c-0.22803-1.03174-0.92334-1.30762-1.37939-1.30762c-0.51563,0-1.12744,0.37207-1.33105,1.17529
		c-0.19189,0.70752-0.19189,1.59521-0.19189,2.57861c0,0.83984,0,1.75098,0.13184,2.4707
		c0.22803,1.30713,1.00732,1.52344,1.39111,1.52344c0.41992,0,1.17529-0.22803,1.40332-1.54736
		c0.13184-0.73145,0.13184-1.64307,0.13184-2.44678C99.06857,59.17822,99.06857,58.23096,98.91281,57.54736z"/>
	<path class="st0" d="M105.40451,62.9082c-0.34814,0.6958-0.94775,1.31934-1.99121,1.31934
		c-0.62354,0-1.45117-0.28809-1.91895-1.19922c-0.43164-0.85156-0.51563-1.72705-0.51563-2.89063
		c0-1.29541,0.12012-2.03906,0.45557-2.79443C101.87814,56.34766,102.72971,56,103.42551,56
		c0.5874,0,1.45117,0.26367,1.94287,1.25928c0.43164,0.91162,0.4917,1.88281,0.4917,2.87842
		C105.86008,60.8335,105.83615,62.00879,105.40451,62.9082z M104.79269,57.54736c-0.22803-1.03174-0.92334-1.30762-1.37939-1.30762
		c-0.51563,0-1.12744,0.37207-1.33105,1.17529c-0.19189,0.70752-0.19189,1.59521-0.19189,2.57861
		c0,0.83984,0,1.75098,0.13184,2.4707c0.22803,1.30713,1.00732,1.52344,1.39111,1.52344c0.41992,0,1.17529-0.22803,1.40332-1.54736
		c0.13184-0.73145,0.13184-1.64307,0.13184-2.44678C104.94846,59.17822,104.94846,58.23096,104.79269,57.54736z"/>
	<path class="st0" d="M111.28439,62.9082c-0.34814,0.6958-0.94775,1.31934-1.99121,1.31934
		c-0.62354,0-1.45117-0.28809-1.91895-1.19922c-0.43164-0.85156-0.51563-1.72705-0.51563-2.89063
		c0-1.29541,0.12012-2.03906,0.45557-2.79443C107.75803,56.34766,108.60959,56,109.30539,56
		c0.5874,0,1.45117,0.26367,1.94287,1.25928c0.43164,0.91162,0.4917,1.88281,0.4917,2.87842
		C111.73996,60.8335,111.71603,62.00879,111.28439,62.9082z M110.67258,57.54736c-0.22803-1.03174-0.92334-1.30762-1.37939-1.30762
		c-0.51563,0-1.12744,0.37207-1.33105,1.17529c-0.19189,0.70752-0.19189,1.59521-0.19189,2.57861
		c0,0.83984,0,1.75098,0.13184,2.4707c0.22803,1.30713,1.00732,1.52344,1.39111,1.52344c0.41992,0,1.17529-0.22803,1.40332-1.54736
		c0.13184-0.73145,0.13184-1.64307,0.13184-2.44678C110.82834,59.17822,110.82834,58.23096,110.67258,57.54736z"/>
	<path class="st0" d="M117.16428,62.9082c-0.34814,0.6958-0.94775,1.31934-1.99121,1.31934
		c-0.62354,0-1.45117-0.28809-1.91895-1.19922c-0.43164-0.85156-0.51563-1.72705-0.51563-2.89063
		c0-1.29541,0.12012-2.03906,0.45557-2.79443C113.63791,56.34766,114.48947,56,115.18527,56
		c0.5874,0,1.45117,0.26367,1.94287,1.25928c0.43164,0.91162,0.4917,1.88281,0.4917,2.87842
		C117.61984,60.8335,117.59592,62.00879,117.16428,62.9082z M116.55246,57.54736c-0.22803-1.03174-0.92334-1.30762-1.37939-1.30762
		c-0.51563,0-1.12744,0.37207-1.33105,1.17529c-0.19189,0.70752-0.19189,1.59521-0.19189,2.57861
		c0,0.83984,0,1.75098,0.13184,2.4707c0.22803,1.30713,1.00732,1.52344,1.39111,1.52344c0.41992,0,1.17529-0.22803,1.40332-1.54736
		c0.13184-0.73145,0.13184-1.64307,0.13184-2.44678C116.70822,59.17822,116.70822,58.23096,116.55246,57.54736z"/>
	<path class="st0" d="M123.04416,62.9082c-0.34814,0.6958-0.94775,1.31934-1.99121,1.31934
		c-0.62354,0-1.45117-0.28809-1.91895-1.19922c-0.43164-0.85156-0.51563-1.72705-0.51563-2.89063
		c0-1.29541,0.12012-2.03906,0.45557-2.79443C119.51779,56.34766,120.36935,56,121.06516,56
		c0.5874,0,1.45117,0.26367,1.94287,1.25928c0.43164,0.91162,0.4917,1.88281,0.4917,2.87842
		C123.49973,60.8335,123.4758,62.00879,123.04416,62.9082z M122.43234,57.54736c-0.22803-1.03174-0.92334-1.30762-1.37939-1.30762
		c-0.51563,0-1.12744,0.37207-1.33105,1.17529C119.53,58.12256,119.53,59.01025,119.53,59.99365c0,0.83984,0,1.75098,0.13184,2.4707
		c0.22803,1.30713,1.00732,1.52344,1.39111,1.52344c0.41992,0,1.17529-0.22803,1.40332-1.54736
		c0.13184-0.73145,0.13184-1.64307,0.13184-2.44678C122.5881,59.17822,122.5881,58.23096,122.43234,57.54736z"/>
	<path class="st0" d="M128.92404,62.9082c-0.34814,0.6958-0.94775,1.31934-1.99121,1.31934
		c-0.62354,0-1.45117-0.28809-1.91895-1.19922c-0.43164-0.85156-0.51563-1.72705-0.51563-2.89063
		c0-1.29541,0.12012-2.03906,0.45557-2.79443C125.39767,56.34766,126.24924,56,126.94504,56
		c0.5874,0,1.45117,0.26367,1.94287,1.25928c0.43164,0.91162,0.4917,1.88281,0.4917,2.87842
		C129.37961,60.8335,129.35568,62.00879,128.92404,62.9082z M128.31223,57.54736c-0.22803-1.03174-0.92334-1.30762-1.37939-1.30762
		c-0.51563,0-1.12744,0.37207-1.33105,1.17529c-0.19189,0.70752-0.19189,1.59521-0.19189,2.57861
		c0,0.83984,0,1.75098,0.13184,2.4707c0.22803,1.30713,1.00732,1.52344,1.39111,1.52344c0.41992,0,1.17529-0.22803,1.40332-1.54736
		c0.13184-0.73145,0.13184-1.64307,0.13184-2.44678C128.46799,59.17822,128.46799,58.23096,128.31223,57.54736z"/>
</g>
<g>
	<path class="st0" d="M103.31351,75.95166c-0.396,0-1.55908,0-1.88281,0.02393v-0.34766h0.37158
		c1.05566,0,1.09131-0.14404,1.09131-0.57568v-6.24854c-0.65967,0.31152-1.25928,0.31152-1.53516,0.31152v-0.34766
		c1.23535,0,1.83496-0.44385,2.12305-0.76758c0.23975,0,0.23975,0.01172,0.23975,0.2876v6.76465
		c0,0.43164,0.03613,0.57568,1.09131,0.57568h0.37207v0.34766C104.86038,75.95166,103.70901,75.95166,103.31351,75.95166z"/>
	<path class="st0" d="M109.19339,75.95166c-0.396,0-1.55908,0-1.88281,0.02393v-0.34766h0.37158
		c1.05566,0,1.09131-0.14404,1.09131-0.57568v-6.24854c-0.65967,0.31152-1.25928,0.31152-1.53516,0.31152v-0.34766
		c1.23535,0,1.83496-0.44385,2.12305-0.76758c0.23975,0,0.23975,0.01172,0.23975,0.2876v6.76465
		c0,0.43164,0.03613,0.57568,1.09131,0.57568h0.37207v0.34766C110.74026,75.95166,109.5889,75.95166,109.19339,75.95166z"/>
	<path class="st0" d="M116.94437,74.9082c-0.34814,0.6958-0.94775,1.31934-1.99121,1.31934
		c-0.62354,0-1.45117-0.28809-1.91895-1.19922c-0.43164-0.85156-0.51563-1.72705-0.51563-2.89063
		c0-1.29541,0.12012-2.03906,0.45557-2.79443C113.418,68.34766,114.26956,68,114.96536,68c0.5874,0,1.45117,0.26367,1.94287,1.25928
		c0.43164,0.91162,0.4917,1.88281,0.4917,2.87842C117.39993,72.8335,117.37601,74.00879,116.94437,74.9082z M116.33255,69.54688
		c-0.22803-1.03125-0.92334-1.30713-1.37939-1.30713c-0.51563,0-1.12744,0.37207-1.33105,1.17529
		c-0.19189,0.70801-0.19189,1.59521-0.19189,2.57861c0,0.83984,0,1.75098,0.13184,2.4707
		c0.22803,1.30713,1.00732,1.52344,1.39111,1.52344c0.41992,0,1.17529-0.22803,1.40332-1.54736
		c0.13184-0.73145,0.13184-1.64307,0.13184-2.44678C116.48831,71.17822,116.48831,70.23096,116.33255,69.54688z"/>
	<path class="st0" d="M120.95316,75.95166c-0.396,0-1.55908,0-1.88281,0.02393v-0.34766h0.37158
		c1.05566,0,1.09131-0.14404,1.09131-0.57568v-6.24854c-0.65967,0.31152-1.25928,0.31152-1.53516,0.31152v-0.34766
		c1.23535,0,1.83496-0.44385,2.12305-0.76758c0.23975,0,0.23975,0.01172,0.23975,0.2876v6.76465
		c0,0.43164,0.03613,0.57568,1.09131,0.57568h0.37207v0.34766C122.50003,75.95166,121.34866,75.95166,120.95316,75.95166z"/>
	<path class="st0" d="M128.70413,74.9082c-0.34814,0.6958-0.94775,1.31934-1.99121,1.31934
		c-0.62354,0-1.45117-0.28809-1.91895-1.19922c-0.43164-0.85156-0.51563-1.72705-0.51563-2.89063
		c0-1.29541,0.12012-2.03906,0.45557-2.79443C125.17776,68.34766,126.02933,68,126.72513,68
		c0.5874,0,1.45117,0.26367,1.94287,1.25928c0.43164,0.91162,0.4917,1.88281,0.4917,2.87842
		C129.1597,72.8335,129.13577,74.00879,128.70413,74.9082z M128.09232,69.54688c-0.22803-1.03125-0.92334-1.30713-1.37939-1.30713
		c-0.51563,0-1.12744,0.37207-1.33105,1.17529c-0.19189,0.70801-0.19189,1.59521-0.19189,2.57861
		c0,0.83984,0,1.75098,0.13184,2.4707c0.22803,1.30713,1.00732,1.52344,1.39111,1.52344c0.41992,0,1.17529-0.22803,1.40332-1.54736
		c0.13184-0.73145,0.13184-1.64307,0.13184-2.44678C128.24808,71.17822,128.24808,70.23096,128.09232,69.54688z"/>
	<path class="st0" d="M132.71292,75.95166c-0.396,0-1.55908,0-1.88281,0.02393v-0.34766h0.37158
		c1.05566,0,1.09131-0.14404,1.09131-0.57568v-6.24854c-0.65967,0.31152-1.25928,0.31152-1.53516,0.31152v-0.34766
		c1.23535,0,1.83496-0.44385,2.12305-0.76758c0.23975,0,0.23975,0.01172,0.23975,0.2876v6.76465
		c0,0.43164,0.03613,0.57568,1.09131,0.57568h0.37207v0.34766C134.2598,75.95166,133.10843,75.95166,132.71292,75.95166z"/>
	<path class="st0" d="M138.5928,75.95166c-0.396,0-1.55908,0-1.88281,0.02393v-0.34766h0.37158
		c1.05566,0,1.09131-0.14404,1.09131-0.57568v-6.24854c-0.65967,0.31152-1.25928,0.31152-1.53516,0.31152v-0.34766
		c1.23535,0,1.83496-0.44385,2.12305-0.76758c0.23975,0,0.23975,0.01172,0.23975,0.2876v6.76465
		c0,0.43164,0.03613,0.57568,1.09131,0.57568h0.37207v0.34766C140.13968,75.95166,138.98831,75.95166,138.5928,75.95166z"/>
	<path class="st0" d="M146.34378,74.9082c-0.34814,0.6958-0.94775,1.31934-1.99121,1.31934
		c-0.62354,0-1.45117-0.28809-1.91895-1.19922c-0.43164-0.85156-0.51563-1.72705-0.51563-2.89063
		c0-1.29541,0.12012-2.03906,0.45557-2.79443C142.81741,68.34766,143.66898,68,144.36478,68
		c0.5874,0,1.45117,0.26367,1.94287,1.25928c0.43164,0.91162,0.4917,1.88281,0.4917,2.87842
		C146.79935,72.8335,146.77542,74.00879,146.34378,74.9082z M145.73196,69.54688c-0.22803-1.03125-0.92334-1.30713-1.37939-1.30713
		c-0.51563,0-1.12744,0.37207-1.33105,1.17529c-0.19189,0.70801-0.19189,1.59521-0.19189,2.57861
		c0,0.83984,0,1.75098,0.13184,2.4707c0.22803,1.30713,1.00732,1.52344,1.39111,1.52344c0.41992,0,1.17529-0.22803,1.40332-1.54736
		c0.13184-0.73145,0.13184-1.64307,0.13184-2.44678C145.88773,71.17822,145.88773,70.23096,145.73196,69.54688z"/>
</g>
<line class="st1" x1="72.51434" y1="66.11377" x2="146.79935" y2="66.11377"/>
<g>
	<path class="st0" d="M80.09393,60.35986h-3.34619v3.35791c0,0.16797,0,0.396-0.23975,0.396s-0.23975-0.22803-0.23975-0.396
		v-3.35791h-3.3584c-0.16797,0-0.39551,0-0.39551-0.24023c0-0.23975,0.22754-0.23975,0.39551-0.23975h3.3584v-3.35791
		c0-0.16797,0-0.396,0.23975-0.396s0.23975,0.22803,0.23975,0.396v3.35791h3.34619c0.16797,0,0.396,0,0.396,0.23975
		C80.48993,60.35986,80.2619,60.35986,80.09393,60.35986z"/>
</g>
<g>
	<path class="st0" d="M121.82455,85.53757c0.16518,0,0.38973,0,0.38973-0.23569c0-0.2357-0.22456-0.2357-0.40087-0.2357h-7.045
		c-0.17631,0-0.40087,0-0.40087,0.2357c0,0.23569,0.22456,0.23569,0.38974,0.23569H121.82455 M121.81341,83.24924
		c0.17632,0,0.40087,0,0.40087-0.2357c0-0.23569-0.22456-0.23569-0.38973-0.23569h-7.06727c-0.16518,0-0.38974,0-0.38974,0.23569
		c0,0.2357,0.22456,0.2357,0.40087,0.2357H121.81341z"/>
	<path class="st3" d="M133.95473,84.39433c0.20038,0,0.41205,0,0.41205-0.23569c0-0.23756-0.21167-0.23756-0.41205-0.23756h-6.38428
		c-0.2005,0-0.41204,0-0.41204,0.23756c0,0.23569,0.21154,0.23569,0.41204,0.23569H133.95473"/>
	<path class="st3" d="M138.98235,84.79521h-2.87845l2.87845-4.40033V84.79521z M138.9118,85.16083v1.02631
		c0,0.425-0.02412,0.55491-0.89642,0.55491h-0.2486v0.36562c0.48438-0.03526,1.09869-0.03526,1.59412-0.03526
		c0.49554,0,1.12102,0,1.60349,0.03526v-0.36562h-0.24681c-0.87408,0-0.89641-0.12991-0.89641-0.55491v-1.02631h1.1785V84.7952
		h-1.1785v-5.36912c0-0.2357,0-0.30622-0.18922-0.30622c-0.10582,0-0.1411,0-0.23576,0.14105l-3.62273,5.53429v0.36562H138.9118z"/>
	<path class="st3" d="M142.99846,86.19827l1.25096-1.21375c1.84106-1.62949,2.54993-2.26605,2.54993-3.4464
		c0-1.34554-1.06342-2.28834-2.50169-2.28834c-1.33435,0-2.20665,1.08571-2.20665,2.13615c0,0.6607,0.59019,0.6607,0.62537,0.6607
		c0.20049,0,0.61253-0.1429,0.61253-0.62543c0-0.30808-0.21167-0.6143-0.62549-0.6143c-0.09276,0-0.11687,0-0.15215,0.01114
		c0.27092-0.76649,0.90746-1.20262,1.59233-1.20262c1.07457,0,1.58128,0.95578,1.58128,1.92271
		c0,0.94465-0.59021,1.8763-1.23981,2.60754l-2.26413,2.52588c-0.12994,0.12991-0.12994,0.15218-0.12994,0.43613h4.37802
		l0.33032-2.05263h-0.29504c-0.05939,0.35448-0.1429,0.87228-0.25977,1.05044c-0.08362,0.0928-0.86115,0.0928-1.12103,0.0928
		L142.99846,86.19827"/>
</g>
<line class="st4" x1="95.6879" y1="70.26215" x2="99.39114" y2="73.96539"/>
<line class="st4" x1="95.6879" y1="73.96539" x2="99.39114" y2="70.26215"/>
<line class="st4" x1="89.80838" y1="70.26215" x2="93.51162" y2="73.96539"/>
<line class="st4" x1="89.80838" y1="73.96539" x2="93.51162" y2="70.26215"/>
<line class="st4" x1="83.92814" y1="70.26215" x2="87.63137" y2="73.96539"/>
<line class="st4" x1="83.92814" y1="73.96539" x2="87.63137" y2="70.26215"/>
</svg>
