<?xml version="1.0" encoding="utf-8"?>
<!-- Generator: Adobe Illustrator 23.0.3, SVG Export Plug-In . SVG Version: 6.00 Build 0)  -->
<svg version="1.1" xmlns="http://www.w3.org/2000/svg" xmlns:xlink="http://www.w3.org/1999/xlink" x="0px" y="0px"
	 viewBox="0 0 414.69742 285.5676" style="enable-background:new 0 0 414.69742 285.5676;" xml:space="preserve">
<style type="text/css">
	.st0{fill:none;stroke:#8FF4DD;stroke-width:2;stroke-miterlimit:10;}
	.st1{fill:none;stroke:#2DE2E6;stroke-width:2;stroke-miterlimit:10;}
	.st2{fill:#2DE2E6;}
	.st3{fill:#8FF4DD;}
</style>
<g id="Layer_2">
	<line class="st0" x1="324.2832" y1="100.81738" x2="304.2832" y2="120.81738"/>
	<line class="st0" x1="274.2832" y1="150.81738" x2="254.2832" y2="170.81738"/>
	<line class="st0" x1="224.2832" y1="200.81738" x2="204.2832" y2="220.81738"/>
	<line class="st0" x1="274.2832" y1="100.81738" x2="254.2832" y2="120.81738"/>
	<line class="st0" x1="224.2832" y1="150.81738" x2="204.2832" y2="170.81738"/>
	<line class="st0" x1="174.2832" y1="200.81738" x2="154.2832" y2="220.81738"/>
	<line class="st0" x1="224.2832" y1="100.81738" x2="204.2832" y2="120.81738"/>
	<line class="st0" x1="174.2832" y1="150.81738" x2="154.2832" y2="170.81738"/>
	<g>
		<g>
			<line class="st1" x1="39.2832" y1="250.81738" x2="39.2832" y2="264.61584"/>
			<g>
				<polygon class="st2" points="37.24951,263.22882 39.2832,270.81738 41.31689,263.22882 				"/>
			</g>
		</g>
	</g>
	<g>
		<g>
			<line class="st1" x1="89.2832" y1="250.81738" x2="89.2832" y2="264.61584"/>
			<g>
				<polygon class="st2" points="87.24951,263.22882 89.2832,270.81738 91.31689,263.22882 				"/>
			</g>
		</g>
	</g>
	<g>
		<g>
			<line class="st1" x1="139.2832" y1="250.81738" x2="139.2832" y2="264.61584"/>
			<g>
				<polygon class="st2" points="137.24951,263.22882 139.2832,270.81738 141.31689,263.22882 				"/>
			</g>
		</g>
	</g>
	<g>
		<g>
			<line class="st1" x1="189.2832" y1="250.81738" x2="189.2832" y2="264.61584"/>
			<g>
				<polygon class="st2" points="187.24951,263.22882 189.2832,270.81738 191.31689,263.22882 				"/>
			</g>
		</g>
	</g>
	<line class="st0" x1="124.2832" y1="200.81738" x2="104.2832" y2="220.81738"/>
	<line class="st0" x1="174.2832" y1="100.81738" x2="154.2832" y2="120.81738"/>
	<line class="st0" x1="124.2832" y1="150.81738" x2="104.2832" y2="170.81738"/>
	<line class="st0" x1="74.2832" y1="200.81738" x2="54.2832" y2="220.81738"/>
	<g>
		<g>
			<line class="st0" x1="374.2832" y1="50.81738" x2="358.66837" y2="66.43222"/>
			<g>
				<polygon class="st3" points="358.21109,64.01341 354.2832,70.81738 361.08716,66.88948 				"/>
			</g>
		</g>
	</g>
	<g>
		<g>
			<line class="st0" x1="324.2832" y1="50.81738" x2="308.66837" y2="66.43222"/>
			<g>
				<polygon class="st3" points="308.21109,64.01341 304.2832,70.81738 311.08716,66.88948 				"/>
			</g>
		</g>
	</g>
	<g>
		<g>
			<line class="st0" x1="274.2832" y1="50.81738" x2="258.66837" y2="66.43222"/>
			<g>
				<polygon class="st3" points="258.21109,64.01341 254.2832,70.81738 261.08716,66.88948 				"/>
			</g>
		</g>
	</g>
	<g>
		<g>
			<line class="st0" x1="224.2832" y1="50.81738" x2="208.66837" y2="66.43222"/>
			<g>
				<polygon class="st3" points="208.21109,64.01341 204.2832,70.81738 211.08716,66.88948 				"/>
			</g>
		</g>
	</g>
	<line class="st1" x1="89.2832" y1="200.81738" x2="89.2832" y2="220.81738"/>
	<line class="st1" x1="139.2832" y1="200.81738" x2="139.2832" y2="220.81738"/>
	<line class="st1" x1="189.2832" y1="200.81738" x2="189.2832" y2="220.81738"/>
	<line class="st1" x1="139.2832" y1="150.81738" x2="139.2832" y2="170.81738"/>
	<line class="st1" x1="189.2832" y1="150.81738" x2="189.2832" y2="170.81738"/>
	<line class="st1" x1="239.2832" y1="150.81738" x2="239.2832" y2="170.81738"/>
	<line class="st1" x1="189.2832" y1="100.81738" x2="189.2832" y2="120.81738"/>
	<line class="st1" x1="239.2832" y1="100.81738" x2="239.2832" y2="120.81738"/>
	<line class="st1" x1="289.2832" y1="100.81738" x2="289.2832" y2="120.81738"/>
	<line class="st1" x1="189.2832" y1="50.81738" x2="189.2832" y2="70.81738"/>
	<line class="st1" x1="239.2832" y1="50.81738" x2="239.2832" y2="70.81738"/>
	<line class="st1" x1="289.2832" y1="50.81738" x2="289.2832" y2="70.81738"/>
	<line class="st1" x1="339.2832" y1="50.81738" x2="339.2832" y2="70.81738"/>
	<line class="st0" x1="354.2832" y1="80.81738" x2="374.2832" y2="80.81738"/>
	<line class="st0" x1="354.2832" y1="90.81738" x2="364.2832" y2="90.81738"/>
	<line class="st0" x1="304.2832" y1="130.81738" x2="324.2832" y2="130.81738"/>
	<line class="st0" x1="304.2832" y1="140.81738" x2="314.2832" y2="140.81738"/>
	<g>
		<g>
			<line class="st1" x1="339.2832" y1="100.81738" x2="339.2832" y2="264.61584"/>
			<g>
				<polygon class="st2" points="337.24951,263.22882 339.2832,270.81738 341.31689,263.22882 				"/>
			</g>
		</g>
	</g>
	<g>
		<g>
			<line class="st1" x1="289.2832" y1="150.81738" x2="289.2832" y2="264.61584"/>
			<g>
				<polygon class="st2" points="287.24951,263.22882 289.2832,270.81738 291.31689,263.22882 				"/>
			</g>
		</g>
	</g>
	<g>
		<g>
			<line class="st1" x1="239.2832" y1="200.81738" x2="239.2832" y2="264.61584"/>
			<g>
				<polygon class="st2" points="237.24951,263.22882 239.2832,270.81738 241.31689,263.22882 				"/>
			</g>
		</g>
	</g>
	<line class="st0" x1="254.2832" y1="180.81738" x2="274.2832" y2="180.81738"/>
	<line class="st0" x1="254.2832" y1="190.81738" x2="264.2832" y2="190.81738"/>
	<line class="st0" x1="204.2832" y1="230.81738" x2="224.2832" y2="230.81738"/>
	<line class="st0" x1="204.2832" y1="240.81738" x2="214.2832" y2="240.81738"/>
	<g>
		<polyline class="st0" points="337.2832,130.81738 362.2832,130.81738 412.2832,80.81738 387.2832,80.81738 		"/>
		<polyline class="st0" points="362.2832,130.81738 312.2832,180.81738 287.2832,180.81738 		"/>
		<polyline class="st0" points="312.2832,180.81738 262.2832,230.81738 237.2832,230.81738 		"/>
	</g>
	<line class="st0" x1="324.2832" y1="80.81738" x2="304.2832" y2="80.81738"/>
	<line class="st0" x1="324.2832" y1="90.81738" x2="304.2832" y2="90.81738"/>
	<line class="st0" x1="274.2832" y1="80.81738" x2="254.2832" y2="80.81738"/>
	<line class="st0" x1="274.2832" y1="90.81738" x2="254.2832" y2="90.81738"/>
	<line class="st0" x1="224.2832" y1="80.81738" x2="204.2832" y2="80.81738"/>
	<line class="st0" x1="224.2832" y1="90.81738" x2="204.2832" y2="90.81738"/>
	<line class="st0" x1="274.2832" y1="130.81738" x2="254.2832" y2="130.81738"/>
	<line class="st0" x1="274.2832" y1="140.81738" x2="254.2832" y2="140.81738"/>
	<line class="st0" x1="224.2832" y1="130.81738" x2="204.2832" y2="130.81738"/>
	<line class="st0" x1="224.2832" y1="140.81738" x2="204.2832" y2="140.81738"/>
	<line class="st0" x1="174.2832" y1="130.81738" x2="154.2832" y2="130.81738"/>
	<line class="st0" x1="174.2832" y1="140.81738" x2="154.2832" y2="140.81738"/>
	<line class="st0" x1="224.2832" y1="180.81738" x2="204.2832" y2="180.81738"/>
	<line class="st0" x1="224.2832" y1="190.81738" x2="204.2832" y2="190.81738"/>
	<line class="st0" x1="174.2832" y1="180.81738" x2="154.2832" y2="180.81738"/>
	<line class="st0" x1="174.2832" y1="190.81738" x2="154.2832" y2="190.81738"/>
	<line class="st0" x1="124.2832" y1="180.81738" x2="104.2832" y2="180.81738"/>
	<line class="st0" x1="124.2832" y1="190.81738" x2="104.2832" y2="190.81738"/>
	<line class="st0" x1="174.2832" y1="230.81738" x2="154.2832" y2="230.81738"/>
	<line class="st0" x1="174.2832" y1="240.81738" x2="154.2832" y2="240.81738"/>
	<line class="st0" x1="124.2832" y1="230.81738" x2="104.2832" y2="230.81738"/>
	<line class="st0" x1="124.2832" y1="240.81738" x2="104.2832" y2="240.81738"/>
	<line class="st0" x1="74.2832" y1="230.81738" x2="54.2832" y2="230.81738"/>
	<line class="st0" x1="74.2832" y1="240.81738" x2="54.2832" y2="240.81738"/>
	<g>
		<g>
			<polyline class="st1" points="174.2832,90.81738 139.2832,90.81738 139.2832,114.61582 			"/>
			<g>
				<polygon class="st2" points="137.24951,113.22881 139.2832,120.81738 141.31689,113.22881 				"/>
			</g>
		</g>
	</g>
	<g>
		<g>
			<polyline class="st1" points="124.2832,140.81738 89.2832,140.81738 89.2832,164.61583 			"/>
			<g>
				<polygon class="st2" points="87.24951,163.22881 89.2832,170.81738 91.31689,163.22881 				"/>
			</g>
		</g>
	</g>
	<g>
		<g>
			<polyline class="st1" points="74.2832,190.81738 39.2832,190.81738 39.2832,214.61583 			"/>
			<g>
				<polygon class="st2" points="37.24951,213.22881 39.2832,220.81738 41.31689,213.22881 				"/>
			</g>
		</g>
	</g>
	<g>
		<g>
			<polyline class="st1" points="24.2832,240.81738 4.2832,240.81738 4.2832,264.61584 			"/>
			<g>
				<polygon class="st2" points="2.24951,263.22882 4.2832,270.81738 6.31689,263.22882 				"/>
			</g>
		</g>
	</g>
	<g>
		<polyline class="st0" points="224.2832,33.81738 224.2832,13.81738 274.2832,13.81738 274.2832,33.81738 		"/>
		<polyline class="st0" points="274.2832,13.81738 324.2832,13.81738 324.2832,33.81738 		"/>
		<polyline class="st0" points="324.2832,13.81738 374.2832,13.81738 374.2832,33.81738 		"/>
	</g>
	<g>
		<g>
			<line class="st0" x1="174.2832" y1="80.81738" x2="160.48476" y2="80.81738"/>
			<g>
				<polygon class="st3" points="161.87178,78.78369 154.2832,80.81738 161.87178,82.85107 				"/>
			</g>
		</g>
	</g>
	<g>
		<g>
			<line class="st0" x1="124.2832" y1="130.81738" x2="110.48476" y2="130.81738"/>
			<g>
				<polygon class="st3" points="111.87178,128.78369 104.2832,130.81738 111.87178,132.85107 				"/>
			</g>
		</g>
	</g>
	<g>
		<g>
			<line class="st0" x1="74.2832" y1="180.81738" x2="60.48476" y2="180.81738"/>
			<g>
				<polygon class="st3" points="61.87178,178.78369 54.2832,180.81738 61.87178,182.85107 				"/>
			</g>
		</g>
	</g>
	<g>
		<g>
			<line class="st0" x1="24.2832" y1="230.81738" x2="10.48476" y2="230.81738"/>
			<g>
				<polygon class="st3" points="11.87178,228.78369 4.2832,230.81738 11.87178,232.85107 				"/>
			</g>
		</g>
	</g>
</g>
<g id="Layer_1">
	<rect x="174.2832" y="70.81738" class="st0" width="30" height="30"/>
	<rect x="224.2832" y="70.81738" class="st0" width="30" height="30"/>
	<rect x="274.2832" y="70.81738" class="st0" width="30" height="30"/>
	<rect x="324.2832" y="70.81738" class="st0" width="30" height="30"/>
	<rect x="124.2832" y="120.81738" class="st0" width="30" height="30"/>
	<rect x="174.2832" y="120.81738" class="st0" width="30" height="30"/>
	<rect x="224.2832" y="120.81738" class="st0" width="30" height="30"/>
	<rect x="274.2832" y="120.81738" class="st0" width="30" height="30"/>
	<rect x="74.2832" y="170.81738" class="st0" width="30" height="30"/>
	<rect x="124.2832" y="170.81738" class="st0" width="30" height="30"/>
	<rect x="174.2832" y="170.81738" class="st0" width="30" height="30"/>
	<rect x="224.2832" y="170.81738" class="st0" width="30" height="30"/>
	<rect x="24.2832" y="220.81738" class="st0" width="30" height="30"/>
	<rect x="74.2832" y="220.81738" class="st0" width="30" height="30"/>
	<rect x="124.2832" y="220.81738" class="st0" width="30" height="30"/>
	<rect x="174.2832" y="220.81738" class="st0" width="30" height="30"/>
</g>
<g id="Layer_3">
	<g>
		<path class="st2" d="M337.65039,281.67648c-0.94727,0-1.48633-0.38379-1.81055-0.87549l-0.54004,0.71973
			c-0.12012,0.14355-0.13184,0.15576-0.17969,0.15576c0,0-0.12012,0-0.12012-0.10791c0-0.03613,0.02441-0.13184,0.03613-0.16797
			l0.62402-2.49463c0.04785-0.19189,0.07129-0.2041,0.20313-0.2041c0.06055,0,0.15625,0,0.15625,0.10791l-0.01172,0.09619
			c-0.07227,0.2876-0.0957,0.61182-0.0957,0.73145c0,1.22363,0.85156,1.69092,1.77441,1.69092
			c1.0918,0,2.02734-1.23486,2.02734-2.32666c0-0.53955-0.21582-1.00732-0.71973-1.17529l-0.73145-0.21582
			c-0.82813-0.23975-1.04395-0.2998-1.2959-0.57568c-0.43164-0.46777-0.45508-0.95947-0.45508-1.22314
			c0-1.43945,1.31934-2.83057,2.72266-2.83057c0.21582,0,1.10254,0,1.54688,0.85156l0.53906-0.71973
			c0.09668-0.13184,0.13281-0.13184,0.16797-0.13184c0,0,0.12012,0,0.12012,0.10791c0,0.03613-0.02344,0.13184-0.03613,0.16797
			l-0.62305,2.49463c-0.04785,0.19189-0.07227,0.20361-0.2041,0.20361c-0.08398,0-0.16797,0-0.16797-0.11963
			c0,0,0-0.03613,0.02441-0.10791c0.04785-0.34766,0.04785-0.55176,0.04785-0.70752c0-0.37207,0-1.71533-1.43945-1.71533
			c-1.00781,0-1.95508,1.04346-1.95508,2.0752c0,0.89941,0.56348,1.06738,0.94727,1.17529l1.16406,0.34766
			c0.59961,0.19189,1.0791,0.73145,1.0791,1.6792C340.44531,280.14133,339.10156,281.67648,337.65039,281.67648z"/>
		<path class="st2" d="M343.60156,284.79855c-0.20215,0.40527-0.55176,0.76904-1.16016,0.76904
			c-0.36328,0-0.8457-0.16797-1.11816-0.69922c-0.25098-0.49609-0.30078-1.00635-0.30078-1.68408
			c0-0.75488,0.07031-1.18799,0.26563-1.62842c0.25879-0.58008,0.75488-0.78271,1.16016-0.78271
			c0.34277,0,0.8457,0.15381,1.13281,0.73389c0.25098,0.53125,0.28613,1.09717,0.28613,1.67725
			C343.86719,283.58957,343.85352,284.27463,343.60156,284.79855z M343.24512,281.67502
			c-0.13281-0.60107-0.53809-0.76221-0.80371-0.76221c-0.30078,0-0.65723,0.2168-0.77539,0.68506
			c-0.1123,0.41211-0.1123,0.92969-0.1123,1.50244c0,0.48926,0,1.02051,0.07715,1.43994
			c0.13281,0.76172,0.58691,0.88721,0.81055,0.88721c0.24512,0,0.68457-0.13281,0.81738-0.90137
			c0.07715-0.42627,0.07715-0.95752,0.07715-1.42578C343.33594,282.62521,343.33594,282.07297,343.24512,281.67502z"/>
	</g>
	<g>
		<path class="st3" d="M380.05371,84.90723h-3.80176c-0.19141,0-0.28809,0-0.28809-0.12012
			c0-0.22754,0.1084-0.22754,0.32422-0.22754c0.73145,0,0.80371-0.09619,0.91113-0.51563l1.64355-6.6084
			c0.02344-0.07227,0.02344-0.1084,0.02344-0.18018c0-0.19189-0.33496-0.19189-0.63477-0.19189c-0.22852,0-0.3125,0-0.3125-0.12012
			c0-0.22754,0.1084-0.22754,0.32422-0.22754h3.56152c1.30762,0,1.9668,0.7793,1.9668,1.61914
			c0,1.05518-1.05469,2.03857-2.33789,2.29053c0.93555,0.12012,1.64258,0.70752,1.64258,1.64307
			C383.07617,83.54004,381.69727,84.90723,380.05371,84.90723z M380.89355,80.76953h-2.05078l-0.83984,3.40625
			c-0.04785,0.16797-0.04785,0.19189-0.04785,0.23975c0,0.13184,0.01172,0.14404,0.36035,0.14404h1.47461
			c1.27148,0,2.30273-1.17529,2.30273-2.43457C382.09277,81.51318,381.8291,80.76953,380.89355,80.76953z M381.64941,77.06348
			h-1.40332c-0.39551,0-0.47949,0-0.58789,0.45605l-0.74316,3.01025h1.57031c1.36816,0,2.31543-1.21143,2.31543-2.25488
			C382.80078,77.771,382.59668,77.06348,381.64941,77.06348z"/>
		<path class="st3" d="M386.25781,88.28125c-0.20215,0.40527-0.55176,0.76904-1.16016,0.76904
			c-0.36328,0-0.8457-0.16797-1.11816-0.69922c-0.25098-0.49609-0.30078-1.00635-0.30078-1.68408
			c0-0.75488,0.07031-1.18799,0.26563-1.62842c0.25879-0.58008,0.75488-0.78271,1.16016-0.78271
			c0.34277,0,0.8457,0.15381,1.13281,0.73389c0.25098,0.53125,0.28613,1.09717,0.28613,1.67725
			C386.52344,87.07227,386.50977,87.75732,386.25781,88.28125z M385.90137,85.15723
			c-0.13281-0.60059-0.53809-0.76172-0.80371-0.76172c-0.30078,0-0.65723,0.2168-0.77539,0.68506
			c-0.1123,0.4126-0.1123,0.92969-0.1123,1.50244c0,0.48926,0,1.02051,0.07715,1.43994
			c0.13281,0.76172,0.58691,0.88721,0.81055,0.88721c0.24512,0,0.68457-0.13281,0.81738-0.90137
			c0.07715-0.42627,0.07715-0.95752,0.07715-1.42578C385.99219,86.10791,385.99219,85.55566,385.90137,85.15723z"/>
	</g>
	<g>
		<path class="st3" d="M371.26758,93.61182c-0.34766,0.6958-0.94727,1.31934-1.99023,1.31934
			c-0.62402,0-1.45117-0.28809-1.91895-1.19922c-0.43262-0.85156-0.51563-1.72705-0.51563-2.89063
			c0-1.29541,0.11914-2.03906,0.45508-2.79443c0.44434-0.99561,1.2959-1.34326,1.99121-1.34326
			c0.58789,0,1.45117,0.26367,1.94238,1.25928c0.43262,0.91162,0.49219,1.88281,0.49219,2.87842
			C371.72363,91.53711,371.69922,92.7124,371.26758,93.61182z M370.65625,88.25098
			c-0.22754-1.03174-0.92383-1.30762-1.37891-1.30762c-0.51563,0-1.12793,0.37207-1.33203,1.17529
			c-0.19141,0.70752-0.19141,1.59521-0.19141,2.57861c0,0.83984,0,1.75098,0.13184,2.4707
			c0.22754,1.30713,1.00781,1.52344,1.3916,1.52344c0.41895,0,1.1748-0.22803,1.40332-1.54736
			c0.13184-0.73145,0.13184-1.64307,0.13184-2.44678C370.8125,89.88184,370.8125,88.93457,370.65625,88.25098z"/>
	</g>
	<g>
		<path class="st2" d="M287.65039,281.74997c-0.94727,0-1.48633-0.38379-1.81055-0.87549l-0.54004,0.71973
			c-0.12012,0.14355-0.13184,0.15576-0.17969,0.15576c0,0-0.12012,0-0.12012-0.10791c0-0.03613,0.02441-0.13184,0.03613-0.16797
			l0.62402-2.49463c0.04785-0.19189,0.07129-0.2041,0.20313-0.2041c0.06055,0,0.15625,0,0.15625,0.10791l-0.01172,0.09619
			c-0.07227,0.2876-0.0957,0.61182-0.0957,0.73145c0,1.22363,0.85156,1.69092,1.77441,1.69092
			c1.0918,0,2.02734-1.23486,2.02734-2.32666c0-0.53955-0.21582-1.00732-0.71973-1.17529l-0.73145-0.21582
			c-0.82813-0.23975-1.04395-0.2998-1.2959-0.57568c-0.43164-0.46777-0.45508-0.95947-0.45508-1.22314
			c0-1.43945,1.31934-2.83057,2.72266-2.83057c0.21582,0,1.10254,0,1.54688,0.85156l0.53906-0.71973
			c0.09668-0.13184,0.13281-0.13184,0.16797-0.13184c0,0,0.12012,0,0.12012,0.10791c0,0.03613-0.02344,0.13184-0.03613,0.16797
			l-0.62305,2.49463c-0.04785,0.19189-0.07227,0.20361-0.2041,0.20361c-0.08398,0-0.16797,0-0.16797-0.11963
			c0,0,0-0.03613,0.02441-0.10791c0.04785-0.34766,0.04785-0.55176,0.04785-0.70752c0-0.37207,0-1.71533-1.43945-1.71533
			c-1.00781,0-1.95508,1.04346-1.95508,2.0752c0,0.89941,0.56348,1.06738,0.94727,1.17529l1.16406,0.34766
			c0.59961,0.19189,1.0791,0.73145,1.0791,1.6792C290.44531,280.21481,289.10156,281.74997,287.65039,281.74997z"/>
		<path class="st2" d="M292.51172,285.47995c-0.23047,0-0.90918,0-1.09766,0.01416v-0.20264h0.2168
			c0.61523,0,0.63574-0.08398,0.63574-0.33545v-3.64111c-0.38379,0.18164-0.7334,0.18164-0.89453,0.18164v-0.20264
			c0.71973,0,1.06934-0.2583,1.2373-0.44727c0.13965,0,0.13965,0.00732,0.13965,0.16797v3.94141
			c0,0.25146,0.02051,0.33545,0.63574,0.33545h0.2168v0.20264C293.41309,285.47995,292.74219,285.47995,292.51172,285.47995z"/>
	</g>
	<g>
		<path class="st3" d="M330.05371,134.90723h-3.80176c-0.19141,0-0.28809,0-0.28809-0.12012
			c0-0.22754,0.1084-0.22754,0.32422-0.22754c0.73145,0,0.80371-0.09619,0.91113-0.51563l1.64355-6.6084
			c0.02344-0.07227,0.02344-0.1084,0.02344-0.18018c0-0.19189-0.33496-0.19189-0.63477-0.19189c-0.22852,0-0.3125,0-0.3125-0.12012
			c0-0.22754,0.1084-0.22754,0.32422-0.22754h3.56152c1.30762,0,1.9668,0.7793,1.9668,1.61914
			c0,1.05518-1.05469,2.03857-2.33789,2.29053c0.93555,0.12012,1.64258,0.70752,1.64258,1.64307
			C333.07617,133.54004,331.69727,134.90723,330.05371,134.90723z M330.89355,130.76953h-2.05078l-0.83984,3.40625
			c-0.04785,0.16797-0.04785,0.19189-0.04785,0.23975c0,0.13184,0.01172,0.14404,0.36035,0.14404h1.47461
			c1.27148,0,2.30273-1.17529,2.30273-2.43457C332.09277,131.51318,331.8291,130.76953,330.89355,130.76953z M331.64941,127.06348
			h-1.40332c-0.39551,0-0.47949,0-0.58789,0.45605l-0.74316,3.01025h1.57031c1.36816,0,2.31543-1.21143,2.31543-2.25488
			C332.80078,127.771,332.59668,127.06348,331.64941,127.06348z"/>
		<path class="st3" d="M335.16797,138.88916c-0.23047,0-0.90918,0-1.09766,0.01416v-0.20264h0.2168
			c0.61523,0,0.63574-0.08398,0.63574-0.33545v-3.64111c-0.38379,0.18164-0.7334,0.18164-0.89453,0.18164v-0.20264
			c0.71973,0,1.06934-0.2583,1.2373-0.44727c0.13965,0,0.13965,0.00684,0.13965,0.16797v3.94141
			c0,0.25146,0.02051,0.33545,0.63574,0.33545h0.2168v0.20264C336.06934,138.88916,335.39844,138.88916,335.16797,138.88916z"/>
	</g>
	<g>
		<path class="st3" d="M321.26758,143.61182c-0.34766,0.6958-0.94727,1.31934-1.99023,1.31934
			c-0.62402,0-1.45117-0.28809-1.91895-1.19922c-0.43262-0.85156-0.51563-1.72705-0.51563-2.89063
			c0-1.29541,0.11914-2.03906,0.45508-2.79443c0.44434-0.99561,1.2959-1.34326,1.99121-1.34326
			c0.58789,0,1.45117,0.26367,1.94238,1.25928c0.43262,0.91162,0.49219,1.88281,0.49219,2.87842
			C321.72363,141.53711,321.69922,142.7124,321.26758,143.61182z M320.65625,138.25098
			c-0.22754-1.03174-0.92383-1.30762-1.37891-1.30762c-0.51563,0-1.12793,0.37207-1.33203,1.17529
			c-0.19141,0.70752-0.19141,1.59521-0.19141,2.57861c0,0.83984,0,1.75098,0.13184,2.4707
			c0.22754,1.30713,1.00781,1.52344,1.3916,1.52344c0.41895,0,1.1748-0.22803,1.40332-1.54736
			c0.13184-0.73145,0.13184-1.64307,0.13184-2.44678C320.8125,139.88184,320.8125,138.93457,320.65625,138.25098z"/>
	</g>
	<g>
		<path class="st2" d="M237.65039,281.74997c-0.94727,0-1.48633-0.38379-1.81055-0.87549l-0.54004,0.71973
			c-0.12012,0.14355-0.13184,0.15576-0.17969,0.15576c0,0-0.12012,0-0.12012-0.10791c0-0.03613,0.02441-0.13184,0.03613-0.16797
			l0.62402-2.49463c0.04785-0.19189,0.07129-0.2041,0.20313-0.2041c0.06055,0,0.15625,0,0.15625,0.10791l-0.01172,0.09619
			c-0.07227,0.2876-0.0957,0.61182-0.0957,0.73145c0,1.22363,0.85156,1.69092,1.77441,1.69092
			c1.0918,0,2.02734-1.23486,2.02734-2.32666c0-0.53955-0.21582-1.00732-0.71973-1.17529l-0.73145-0.21582
			c-0.82813-0.23975-1.04395-0.2998-1.2959-0.57568c-0.43164-0.46777-0.45508-0.95947-0.45508-1.22314
			c0-1.43945,1.31934-2.83057,2.72266-2.83057c0.21582,0,1.10254,0,1.54688,0.85156l0.53906-0.71973
			c0.09668-0.13184,0.13281-0.13184,0.16797-0.13184c0,0,0.12012,0,0.12012,0.10791c0,0.03613-0.02344,0.13184-0.03613,0.16797
			l-0.62305,2.49463c-0.04785,0.19189-0.07227,0.20361-0.2041,0.20361c-0.08398,0-0.16797,0-0.16797-0.11963
			c0,0,0-0.03613,0.02441-0.10791c0.04785-0.34766,0.04785-0.55176,0.04785-0.70752c0-0.37207,0-1.71533-1.43945-1.71533
			c-1.00781,0-1.95508,1.04346-1.95508,2.0752c0,0.89941,0.56348,1.06738,0.94727,1.17529l1.16406,0.34766
			c0.59961,0.19189,1.0791,0.73145,1.0791,1.6792C240.44531,280.21481,239.10156,281.74997,237.65039,281.74997z"/>
		<path class="st2" d="M243.62988,285.49411h-2.55078v-0.16748l1.41113-1.57959c0.39844-0.44727,0.74121-0.96436,0.74121-1.55859
			c0-0.64307-0.36328-1.13916-0.95801-1.13916c-0.4541,0-0.83105,0.32178-0.96387,0.79688
			c0.02051-0.00684,0.03516-0.00684,0.09766-0.00684c0.19531,0,0.32813,0.13281,0.32813,0.32813
			c0,0.22363-0.18164,0.32861-0.32813,0.32861c-0.02051,0-0.32813,0-0.32813-0.35645c0-0.60107,0.47461-1.29297,1.28516-1.29297
			c0.81152,0,1.44727,0.53809,1.44727,1.3418c0,0.69189-0.3916,1.05518-1.4541,2.03369
			c-0.18164,0.16797-0.60742,0.61523-0.79688,0.77588h1.29297c0.20996,0,0.6084,0,0.65723-0.06299
			c0.07031-0.11182,0.12598-0.49609,0.14648-0.61523h0.1543L243.62988,285.49411z"/>
	</g>
	<g>
		<path class="st3" d="M280.05371,184.90723h-3.80176c-0.19141,0-0.28809,0-0.28809-0.12012
			c0-0.22754,0.1084-0.22754,0.32422-0.22754c0.73145,0,0.80371-0.09619,0.91113-0.51563l1.64355-6.6084
			c0.02344-0.07227,0.02344-0.1084,0.02344-0.18018c0-0.19189-0.33496-0.19189-0.63477-0.19189c-0.22852,0-0.3125,0-0.3125-0.12012
			c0-0.22754,0.1084-0.22754,0.32422-0.22754h3.56152c1.30762,0,1.9668,0.7793,1.9668,1.61914
			c0,1.05518-1.05469,2.03857-2.33789,2.29053c0.93555,0.12012,1.64258,0.70752,1.64258,1.64307
			C283.07617,183.54004,281.69727,184.90723,280.05371,184.90723z M280.89355,180.76953h-2.05078l-0.83984,3.40625
			c-0.04785,0.16797-0.04785,0.19189-0.04785,0.23975c0,0.13184,0.01172,0.14404,0.36035,0.14404h1.47461
			c1.27148,0,2.30273-1.17529,2.30273-2.43457C282.09277,181.51318,281.8291,180.76953,280.89355,180.76953z M281.64941,177.06348
			h-1.40332c-0.39551,0-0.47949,0-0.58789,0.45605l-0.74316,3.01025h1.57031c1.36816,0,2.31543-1.21143,2.31543-2.25488
			C282.80078,177.771,282.59668,177.06348,281.64941,177.06348z"/>
		<path class="st3" d="M286.28613,188.90332h-2.55078v-0.16797l1.41113-1.5791c0.39844-0.44727,0.74121-0.96436,0.74121-1.55859
			c0-0.64307-0.36328-1.13916-0.95801-1.13916c-0.4541,0-0.83105,0.32178-0.96387,0.79688
			c0.02051-0.00684,0.03516-0.00684,0.09766-0.00684c0.19531,0,0.32813,0.13232,0.32813,0.32813
			c0,0.22363-0.18164,0.32861-0.32813,0.32861c-0.02051,0-0.32813,0-0.32813-0.35645c0-0.60107,0.47461-1.29297,1.28516-1.29297
			c0.81152,0,1.44727,0.53809,1.44727,1.3418c0,0.69189-0.3916,1.05518-1.4541,2.03369
			c-0.18164,0.16797-0.60742,0.61523-0.79688,0.77588h1.29297c0.20996,0,0.6084,0,0.65723-0.06299
			c0.07031-0.11182,0.12598-0.49609,0.14648-0.61475h0.1543L286.28613,188.90332z"/>
	</g>
	<g>
		<path class="st3" d="M271.26758,193.61182c-0.34766,0.6958-0.94727,1.31934-1.99023,1.31934
			c-0.62402,0-1.45117-0.28809-1.91895-1.19922c-0.43262-0.85156-0.51563-1.72705-0.51563-2.89063
			c0-1.29541,0.11914-2.03906,0.45508-2.79443c0.44434-0.99561,1.2959-1.34326,1.99121-1.34326
			c0.58789,0,1.45117,0.26367,1.94238,1.25928c0.43262,0.91162,0.49219,1.88281,0.49219,2.87842
			C271.72363,191.53711,271.69922,192.7124,271.26758,193.61182z M270.65625,188.25098
			c-0.22754-1.03174-0.92383-1.30762-1.37891-1.30762c-0.51563,0-1.12793,0.37207-1.33203,1.17529
			c-0.19141,0.70752-0.19141,1.59521-0.19141,2.57861c0,0.83984,0,1.75098,0.13184,2.4707
			c0.22754,1.30713,1.00781,1.52344,1.3916,1.52344c0.41895,0,1.1748-0.22803,1.40332-1.54736
			c0.13184-0.73145,0.13184-1.64307,0.13184-2.44678C270.8125,189.88184,270.8125,188.93457,270.65625,188.25098z"/>
	</g>
	<g>
		<path class="st2" d="M187.65039,281.67676c-0.94727,0-1.48633-0.38477-1.81055-0.87598l-0.54004,0.71973
			c-0.12012,0.14355-0.13184,0.15625-0.17969,0.15625c0,0-0.12012,0-0.12012-0.1084c0-0.03613,0.02441-0.13184,0.03613-0.16797
			l0.62402-2.49512c0.04785-0.19141,0.07129-0.20313,0.20313-0.20313c0.06055,0,0.15625,0,0.15625,0.10742l-0.01172,0.0957
			c-0.07227,0.28809-0.0957,0.6123-0.0957,0.73242c0,1.22266,0.85156,1.69043,1.77441,1.69043
			c1.0918,0,2.02734-1.23535,2.02734-2.32715c0-0.53906-0.21582-1.00684-0.71973-1.1748l-0.73145-0.21582
			c-0.82813-0.24023-1.04395-0.2998-1.2959-0.57617c-0.43164-0.4668-0.45508-0.95898-0.45508-1.22266
			c0-1.43945,1.31934-2.83008,2.72266-2.83008c0.21582,0,1.10254,0,1.54688,0.85156l0.53906-0.7207
			c0.09668-0.13086,0.13281-0.13086,0.16797-0.13086c0,0,0.12012,0,0.12012,0.10742c0,0.03613-0.02344,0.13184-0.03613,0.16797
			l-0.62305,2.49414c-0.04785,0.19238-0.07227,0.2041-0.2041,0.2041c-0.08398,0-0.16797,0-0.16797-0.12012
			c0,0,0-0.03516,0.02441-0.10742c0.04785-0.34766,0.04785-0.55176,0.04785-0.70703c0-0.37305,0-1.71582-1.43945-1.71582
			c-1.00781,0-1.95508,1.04395-1.95508,2.0752c0,0.89941,0.56348,1.06738,0.94727,1.17578l1.16406,0.34766
			c0.59961,0.19141,1.0791,0.73047,1.0791,1.67871C190.44531,280.1416,189.10156,281.67676,187.65039,281.67676z"/>
		<path class="st2" d="M192.4209,285.56738c-0.77637,0-1.39844-0.50977-1.39844-1.13281c0-0.26563,0.18164-0.36328,0.34961-0.36328
			c0.19629,0,0.34277,0.14063,0.34277,0.34277c0,0.25098-0.20313,0.37793-0.42676,0.34277
			c0.20313,0.46094,0.77637,0.62109,1.11133,0.62109c0.34277,0,0.81738-0.24414,0.81738-1.16016
			c0-0.66992-0.26465-1.16016-0.85938-1.16016h-0.32129c-0.12598,0-0.16113,0-0.16113-0.06934
			c0-0.06348,0.02832-0.06934,0.14746-0.07715l0.20898-0.02051c0.18945-0.00684,0.42676-0.02832,0.63672-0.33496
			c0.20215-0.30078,0.22363-0.69238,0.22363-0.8252c0-0.68457-0.45508-0.79004-0.68555-0.79004
			c-0.03418,0-0.69141,0-0.95703,0.47559c0.02051-0.00684,0.03516-0.00684,0.07715-0.00684
			c0.15332,0,0.32129,0.09766,0.32129,0.32129c0,0.20996-0.16797,0.31445-0.31445,0.31445
			c-0.10547,0-0.32129-0.05566-0.32129-0.33496c0-0.51074,0.5166-0.9375,1.21582-0.9375c0.67773,0,1.25098,0.40625,1.25098,0.95801
			c0,0.54492-0.3916,1.05566-1,1.22949c0.6709,0.11914,1.18848,0.62305,1.18848,1.26563
			C193.86719,284.93066,193.25195,285.56738,192.4209,285.56738z"/>
	</g>
	<g>
		<path class="st3" d="M230.05371,234.90723h-3.80176c-0.19141,0-0.28809,0-0.28809-0.12012
			c0-0.22754,0.1084-0.22754,0.32422-0.22754c0.73145,0,0.80371-0.09619,0.91113-0.51563l1.64355-6.6084
			c0.02344-0.07227,0.02344-0.1084,0.02344-0.18018c0-0.19189-0.33496-0.19189-0.63477-0.19189c-0.22852,0-0.3125,0-0.3125-0.12012
			c0-0.22754,0.1084-0.22754,0.32422-0.22754h3.56152c1.30762,0,1.9668,0.7793,1.9668,1.61914
			c0,1.05518-1.05469,2.03857-2.33789,2.29053c0.93555,0.12012,1.64258,0.70752,1.64258,1.64307
			C233.07617,233.54004,231.69727,234.90723,230.05371,234.90723z M230.89355,230.76953h-2.05078l-0.83984,3.40625
			c-0.04785,0.16797-0.04785,0.19189-0.04785,0.23975c0,0.13184,0.01172,0.14404,0.36035,0.14404h1.47461
			c1.27148,0,2.30273-1.17529,2.30273-2.43457C232.09277,231.51318,231.8291,230.76953,230.89355,230.76953z M231.64941,227.06348
			h-1.40332c-0.39551,0-0.47949,0-0.58789,0.45605l-0.74316,3.01025h1.57031c1.36816,0,2.31543-1.21143,2.31543-2.25488
			C232.80078,227.771,232.59668,227.06348,231.64941,227.06348z"/>
		<path class="st3" d="M235.07715,239.05029c-0.77637,0-1.39844-0.51025-1.39844-1.13232c0-0.26563,0.18164-0.36328,0.34961-0.36328
			c0.19629,0,0.34277,0.13965,0.34277,0.34229c0,0.25146-0.20313,0.37744-0.42676,0.34229
			c0.20313,0.46143,0.77637,0.62207,1.11133,0.62207c0.34277,0,0.81738-0.24463,0.81738-1.16016
			c0-0.6709-0.26465-1.16016-0.85938-1.16016h-0.32129c-0.12598,0-0.16113,0-0.16113-0.06982
			c0-0.06299,0.02832-0.06982,0.14746-0.07666l0.20898-0.021c0.18945-0.00684,0.42676-0.02783,0.63672-0.33545
			c0.20215-0.30078,0.22363-0.69189,0.22363-0.82471c0-0.68506-0.45508-0.78955-0.68555-0.78955
			c-0.03418,0-0.69141,0-0.95703,0.4751c0.02051-0.00684,0.03516-0.00684,0.07715-0.00684
			c0.15332,0,0.32129,0.09766,0.32129,0.32129c0,0.20947-0.16797,0.31445-0.31445,0.31445
			c-0.10547,0-0.32129-0.05566-0.32129-0.33545c0-0.51025,0.5166-0.93652,1.21582-0.93652
			c0.67773,0,1.25098,0.40527,1.25098,0.95752c0,0.54492-0.3916,1.05518-1,1.22998c0.6709,0.11865,1.18848,0.62207,1.18848,1.26514
			C236.52344,238.41406,235.9082,239.05029,235.07715,239.05029z"/>
	</g>
	<g>
		<path class="st3" d="M221.26758,243.61182c-0.34766,0.6958-0.94727,1.31934-1.99023,1.31934
			c-0.62402,0-1.45117-0.28809-1.91895-1.19922c-0.43262-0.85156-0.51563-1.72705-0.51563-2.89063
			c0-1.29541,0.11914-2.03906,0.45508-2.79443c0.44434-0.99561,1.2959-1.34326,1.99121-1.34326
			c0.58789,0,1.45117,0.26367,1.94238,1.25928c0.43262,0.91162,0.49219,1.88281,0.49219,2.87842
			C221.72363,241.53711,221.69922,242.7124,221.26758,243.61182z M220.65625,238.25098
			c-0.22754-1.03174-0.92383-1.30762-1.37891-1.30762c-0.51563,0-1.12793,0.37207-1.33203,1.17529
			c-0.19141,0.70752-0.19141,1.59521-0.19141,2.57861c0,0.83984,0,1.75098,0.13184,2.4707
			c0.22754,1.30713,1.00781,1.52344,1.3916,1.52344c0.41895,0,1.1748-0.22803,1.40332-1.54736
			c0.13184-0.73145,0.13184-1.64307,0.13184-2.44678C220.8125,239.88184,220.8125,238.93457,220.65625,238.25098z"/>
	</g>
	<g>
		<path class="st2" d="M341.26758,45.61182c-0.34766,0.6958-0.94727,1.31934-1.99023,1.31934
			c-0.62402,0-1.45117-0.28809-1.91895-1.19922c-0.43164-0.85156-0.51563-1.72705-0.51563-2.89063
			c0-1.29541,0.11914-2.03906,0.45508-2.79443c0.44434-0.99561,1.2959-1.34326,1.99121-1.34326
			c0.58789,0,1.45117,0.26367,1.94238,1.25928c0.43262,0.91162,0.49219,1.88281,0.49219,2.87842
			C341.72363,43.53711,341.69922,44.7124,341.26758,45.61182z M340.65625,40.25049
			c-0.22754-1.03125-0.92383-1.30713-1.37891-1.30713c-0.51563,0-1.12793,0.37207-1.33203,1.17529
			c-0.19141,0.70801-0.19141,1.59521-0.19141,2.57861c0,0.83984,0,1.75098,0.13184,2.4707
			c0.22754,1.30713,1.00781,1.52344,1.3916,1.52344c0.41895,0,1.1748-0.22803,1.40332-1.54736
			c0.13184-0.73145,0.13184-1.64307,0.13184-2.44678C340.8125,41.88184,340.8125,40.93457,340.65625,40.25049z"/>
	</g>
	<g>
		<path class="st2" d="M137.65039,281.67676c-0.94727,0-1.48633-0.38477-1.81055-0.87598l-0.54004,0.71973
			c-0.12012,0.14355-0.13184,0.15625-0.17969,0.15625c0,0-0.12012,0-0.12012-0.1084c0-0.03613,0.02441-0.13184,0.03613-0.16797
			l0.62402-2.49512c0.04785-0.19141,0.07129-0.20313,0.20313-0.20313c0.06055,0,0.15625,0,0.15625,0.10742l-0.01172,0.0957
			c-0.07227,0.28809-0.0957,0.6123-0.0957,0.73242c0,1.22266,0.85156,1.69043,1.77441,1.69043
			c1.0918,0,2.02734-1.23535,2.02734-2.32715c0-0.53906-0.21582-1.00684-0.71973-1.1748l-0.73145-0.21582
			c-0.82813-0.24023-1.04395-0.2998-1.2959-0.57617c-0.43164-0.4668-0.45508-0.95898-0.45508-1.22266
			c0-1.43945,1.31934-2.83008,2.72266-2.83008c0.21582,0,1.10254,0,1.54688,0.85156l0.53906-0.7207
			c0.09668-0.13086,0.13281-0.13086,0.16797-0.13086c0,0,0.12012,0,0.12012,0.10742c0,0.03613-0.02344,0.13184-0.03613,0.16797
			l-0.62305,2.49414c-0.04785,0.19238-0.07227,0.2041-0.2041,0.2041c-0.08398,0-0.16797,0-0.16797-0.12012
			c0,0,0-0.03516,0.02441-0.10742c0.04785-0.34766,0.04785-0.55176,0.04785-0.70703c0-0.37305,0-1.71582-1.43945-1.71582
			c-1.00781,0-1.95508,1.04395-1.95508,2.0752c0,0.89941,0.56348,1.06738,0.94727,1.17578l1.16406,0.34766
			c0.59961,0.19141,1.0791,0.73047,1.0791,1.67871C140.44531,280.1416,139.10156,281.67676,137.65039,281.67676z"/>
		<path class="st2" d="M143.25879,284.25293v0.63672c0,0.25781,0.02148,0.32813,0.52441,0.32813h0.13965v0.20313
			c-0.16016-0.01465-0.71973-0.01465-0.91504-0.01465c-0.19629,0-0.74805,0-0.90918,0.01465v-0.20313h0.14063
			c0.50977,0,0.52344-0.07031,0.52344-0.32813v-0.63672h-1.83789v-0.20215l2.10352-3.26367
			c0.05566-0.08398,0.07715-0.08398,0.13281-0.08398c0.09766,0,0.09766,0.03516,0.09766,0.16797v3.17969h0.70605v0.20215H143.25879z
			 M142.79785,281.41602l-1.69824,2.63477h1.69824V281.41602z"/>
	</g>
	<g>
		<path class="st2" d="M87.65039,281.67676c-0.94727,0-1.48633-0.38477-1.81055-0.87598l-0.54004,0.71973
			c-0.12012,0.14355-0.13184,0.15625-0.17969,0.15625c0,0-0.12012,0-0.12012-0.1084c0-0.03613,0.02441-0.13184,0.03613-0.16797
			l0.62402-2.49512c0.04785-0.19141,0.07129-0.20313,0.20313-0.20313c0.06055,0,0.15625,0,0.15625,0.10742l-0.01172,0.0957
			c-0.07227,0.28809-0.0957,0.6123-0.0957,0.73242c0,1.22266,0.85156,1.69043,1.77441,1.69043
			c1.0918,0,2.02734-1.23535,2.02734-2.32715c0-0.53906-0.21582-1.00684-0.71973-1.1748l-0.73145-0.21582
			c-0.82813-0.24023-1.04395-0.2998-1.2959-0.57617c-0.43164-0.4668-0.45508-0.95898-0.45508-1.22266
			c0-1.43945,1.31934-2.83008,2.72266-2.83008c0.21582,0,1.10254,0,1.54688,0.85156l0.53906-0.7207
			c0.09668-0.13086,0.13281-0.13086,0.16797-0.13086c0,0,0.12012,0,0.12012,0.10742c0,0.03613-0.02344,0.13184-0.03613,0.16797
			l-0.62305,2.49414c-0.04785,0.19238-0.07227,0.2041-0.2041,0.2041c-0.08398,0-0.16797,0-0.16797-0.12012
			c0,0,0-0.03516,0.02441-0.10742c0.04785-0.34766,0.04785-0.55176,0.04785-0.70703c0-0.37305,0-1.71582-1.43945-1.71582
			c-1.00781,0-1.95508,1.04395-1.95508,2.0752c0,0.89941,0.56348,1.06738,0.94727,1.17578l1.16406,0.34766
			c0.59961,0.19141,1.0791,0.73047,1.0791,1.67871C90.44531,280.1416,89.10156,281.67676,87.65039,281.67676z"/>
		<path class="st2" d="M92.33008,285.56738c-0.77637,0-1.25098-0.67773-1.25098-1.27148c0-0.27344,0.18164-0.33594,0.30762-0.33594
			c0.17383,0,0.30664,0.11133,0.30664,0.30664c0,0.23828-0.18848,0.30859-0.30664,0.30859
			c-0.03516,0-0.07715-0.00781-0.1123-0.02148c0.12598,0.50977,0.58008,0.82422,1.04102,0.82422
			c0.30762,0,0.58008-0.17383,0.73438-0.42578c0.19531-0.31445,0.19531-0.71289,0.19531-0.97852s-0.00684-0.60742-0.12598-0.88086
			c-0.05566-0.11816-0.2373-0.46094-0.60742-0.46094c-0.34961,0-0.67773,0.16797-0.87402,0.45508
			c-0.06934,0.08301-0.07715,0.08984-0.11133,0.08984c-0.08398,0-0.08398-0.04102-0.08398-0.16797v-2.0752
			c0-0.1123,0-0.15332,0.05566-0.15332c0,0,0.02148,0,0.07031,0.02051c0.13281,0.05566,0.46094,0.19629,0.92188,0.19629
			c0.18164,0,0.51758-0.02148,0.90918-0.18945c0.0625-0.02734,0.09082-0.02734,0.09082-0.02734
			c0.04102,0,0.05566,0.03516,0.05566,0.0625c0,0.09766-0.50293,0.67773-1.29297,0.67773
			c-0.07715,0-0.32129-0.00684-0.62207-0.10449v1.44629c0.18164-0.19531,0.48926-0.37012,0.8877-0.37012
			c0.7334,0,1.29297,0.69238,1.29297,1.52344C93.81152,284.90332,93.11914,285.56738,92.33008,285.56738z"/>
	</g>
	<g>
		<path class="st2" d="M37.33789,281.67676c-0.94727,0-1.48633-0.38477-1.81055-0.87598l-0.54004,0.71973
			c-0.12012,0.14355-0.13184,0.15625-0.17969,0.15625c0,0-0.12012,0-0.12012-0.1084c0-0.03613,0.02441-0.13184,0.03613-0.16797
			l0.62402-2.49512c0.04785-0.19141,0.07129-0.20313,0.20313-0.20313c0.06055,0,0.15625,0,0.15625,0.10742l-0.01172,0.0957
			c-0.07227,0.28809-0.0957,0.6123-0.0957,0.73242c0,1.22266,0.85156,1.69043,1.77441,1.69043
			c1.0918,0,2.02734-1.23535,2.02734-2.32715c0-0.53906-0.21582-1.00684-0.71973-1.1748l-0.73145-0.21582
			c-0.82813-0.24023-1.04395-0.2998-1.2959-0.57617c-0.43164-0.4668-0.45508-0.95898-0.45508-1.22266
			c0-1.43945,1.31934-2.83008,2.72266-2.83008c0.21582,0,1.10254,0,1.54688,0.85156l0.53906-0.7207
			c0.09668-0.13086,0.13281-0.13086,0.16797-0.13086c0,0,0.12012,0,0.12012,0.10742c0,0.03613-0.02344,0.13184-0.03613,0.16797
			l-0.62305,2.49414c-0.04785,0.19238-0.07227,0.2041-0.2041,0.2041c-0.08398,0-0.16797,0-0.16797-0.12012
			c0,0,0-0.03516,0.02441-0.10742c0.04785-0.34766,0.04785-0.55176,0.04785-0.70703c0-0.37305,0-1.71582-1.43945-1.71582
			c-1.00781,0-1.95508,1.04395-1.95508,2.0752c0,0.89941,0.56348,1.06738,0.94727,1.17578l1.16406,0.34766
			c0.59961,0.19141,1.0791,0.73047,1.0791,1.67871C40.13281,280.1416,38.78906,281.67676,37.33789,281.67676z"/>
		<path class="st2" d="M42.14258,285.56738c-0.59375,0-1.43262-0.43359-1.43262-2.35547c0-1.53711,0.92285-2.43945,1.80371-2.43945
			c0.60742,0,0.87305,0.35742,0.87305,0.7207c0,0.20215-0.11816,0.30664-0.29297,0.30664
			c-0.18164,0-0.28711-0.13281-0.28711-0.28613c0-0.28613,0.26563-0.28613,0.34961-0.28613
			c-0.13281-0.20996-0.38477-0.28711-0.63574-0.28711c-0.37793,0-1.2373,0.2793-1.2373,2.04785v0.18848
			c0.07031-0.19531,0.30078-0.7334,0.92285-0.7334c0.69824,0,1.34863,0.62207,1.34863,1.55176
			C43.55469,284.90332,42.9043,285.56738,42.14258,285.56738z M42.87012,283.0791c-0.10547-0.2373-0.30762-0.49609-0.69238-0.49609
			c-0.62891,0-0.87988,0.69141-0.87988,1.24414c0,0.48926,0.06934,0.83203,0.13184,1.01367
			c0.06348,0.14648,0.27344,0.53711,0.71289,0.53711c0.28027,0,0.53125-0.11816,0.70605-0.45313
			c0.13281-0.26563,0.13281-0.58008,0.13281-0.9375C42.98145,283.6875,42.98145,283.33789,42.87012,283.0791z"/>
	</g>
	<g>
		<path class="st2" d="M2.65039,281.67676c-0.94727,0-1.48633-0.38477-1.81055-0.87598l-0.54004,0.71973
			c-0.12012,0.14355-0.13184,0.15625-0.17969,0.15625c0,0-0.12012,0-0.12012-0.1084c0-0.03613,0.02441-0.13184,0.03613-0.16797
			l0.62402-2.49512c0.04785-0.19141,0.07129-0.20313,0.20313-0.20313c0.06055,0,0.15625,0,0.15625,0.10742l-0.01172,0.0957
			c-0.07227,0.28809-0.0957,0.6123-0.0957,0.73242c0,1.22266,0.85156,1.69043,1.77441,1.69043
			c1.0918,0,2.02734-1.23535,2.02734-2.32715c0-0.53906-0.21582-1.00684-0.71973-1.1748l-0.73145-0.21582
			c-0.82813-0.24023-1.04395-0.2998-1.2959-0.57617c-0.43164-0.4668-0.45508-0.95898-0.45508-1.22266
			c0-1.43945,1.31934-2.83008,2.72266-2.83008c0.21582,0,1.10254,0,1.54688,0.85156l0.53906-0.7207
			c0.09668-0.13086,0.13281-0.13086,0.16797-0.13086c0,0,0.12012,0,0.12012,0.10742c0,0.03613-0.02344,0.13184-0.03613,0.16797
			l-0.62305,2.49414c-0.04785,0.19238-0.07227,0.2041-0.2041,0.2041c-0.08398,0-0.16797,0-0.16797-0.12012
			c0,0,0-0.03516,0.02441-0.10742c0.04785-0.34766,0.04785-0.55176,0.04785-0.70703c0-0.37305,0-1.71582-1.43945-1.71582
			c-1.00781,0-1.95508,1.04395-1.95508,2.0752c0,0.89941,0.56348,1.06738,0.94727,1.17578l1.16406,0.34766
			c0.59961,0.19141,1.0791,0.73047,1.0791,1.67871C5.44531,280.1416,4.10156,281.67676,2.65039,281.67676z"/>
		<path class="st2" d="M8.04297,282.53418c-0.3291,0.46875-0.49707,1.2793-0.49707,2.32031v0.34961
			c0,0.08984,0,0.36328-0.29297,0.36328c-0.28613,0-0.28613-0.2793-0.28613-0.35645c0-1.31348,0.70508-2.45996,0.89453-2.7334
			l0.74023-1.06152H7.12012c-0.09766,0-0.62207,0-0.67773,0.04199c-0.09082,0.07617-0.1543,0.50977-0.1748,0.63574h-0.1543
			l0.2168-1.39746h0.1543c0.02734,0.13281,0.04199,0.22363,0.8877,0.22363h1.68359v0.16113L8.04297,282.53418z"/>
	</g>
	<g>
		<path class="st3" d="M376.04004,46.42432c-0.38379,0-0.79102-0.02393-1.18652-0.02393c-0.4082,0-0.83984,0.02393-1.23535,0.02393
			c-0.04883,0-0.16797,0-0.16797-0.12012c0-0.22754,0.10742-0.22754,0.27539-0.22754
			c0.74316-0.01221,0.71973-0.33594,0.70801-0.52783l-0.13184-1.93115h-2.7832l-0.875,1.54736
			c-0.1084,0.19189-0.2041,0.34766-0.2041,0.51563c0,0.22803,0.16797,0.37207,0.45605,0.396
			c0.07129,0,0.16797,0.01172,0.16797,0.11963c0,0.22803-0.13184,0.22803-0.21582,0.22803
			c-0.3125,0-0.66016-0.02393-0.98438-0.02393c-0.2998,0-0.62305,0.02393-0.91113,0.02393c0,0-0.14355,0-0.14355-0.12012
			c0-0.20361,0.0957-0.21582,0.22754-0.22754c0.59961-0.06006,0.93555-0.33594,1.30762-0.99561l3.99316-7.00391
			c0.08398-0.14404,0.12012-0.21631,0.28809-0.21631s0.17969,0.03613,0.19238,0.28809l0.52734,7.53174
			c0.02441,0.31201,0.08398,0.396,0.67188,0.396c0.15527,0,0.23926,0,0.23926,0.13184
			C376.25586,46.42432,376.1123,46.42432,376.04004,46.42432z M374.00195,39.27637l-2.2793,3.99365h2.55469L374.00195,39.27637z"/>
		<path class="st3" d="M379.72559,49.79834c-0.20215,0.40527-0.55176,0.76904-1.16016,0.76904
			c-0.36328,0-0.8457-0.16797-1.11816-0.69922c-0.25195-0.49609-0.30078-1.00635-0.30078-1.68408
			c0-0.75488,0.07031-1.18799,0.26563-1.62842c0.25879-0.58008,0.75488-0.78271,1.16016-0.78271
			c0.34277,0,0.8457,0.15381,1.13281,0.73389c0.25098,0.53125,0.28613,1.09717,0.28613,1.67725
			C379.99121,48.58936,379.97754,49.27441,379.72559,49.79834z M379.36914,46.6748
			c-0.13281-0.60107-0.53809-0.76221-0.80371-0.76221c-0.30078,0-0.65723,0.2168-0.77539,0.68506
			c-0.1123,0.41211-0.1123,0.92969-0.1123,1.50244c0,0.48926,0,1.02051,0.07715,1.43994
			c0.13281,0.76172,0.58691,0.88721,0.81055,0.88721c0.24512,0,0.68457-0.13281,0.81738-0.90137
			c0.07715-0.42627,0.07715-0.95752,0.07715-1.42578C379.45996,47.625,379.45996,47.07275,379.36914,46.6748z"/>
	</g>
	<g>
		<path class="st3" d="M326.04004,46.42432c-0.38379,0-0.79102-0.02393-1.18652-0.02393c-0.4082,0-0.83984,0.02393-1.23535,0.02393
			c-0.04883,0-0.16797,0-0.16797-0.12012c0-0.22754,0.10742-0.22754,0.27539-0.22754
			c0.74316-0.01221,0.71973-0.33594,0.70801-0.52783l-0.13184-1.93115h-2.7832l-0.875,1.54736
			c-0.1084,0.19189-0.2041,0.34766-0.2041,0.51563c0,0.22803,0.16797,0.37207,0.45605,0.396
			c0.07129,0,0.16797,0.01172,0.16797,0.11963c0,0.22803-0.13184,0.22803-0.21582,0.22803
			c-0.3125,0-0.66016-0.02393-0.98438-0.02393c-0.2998,0-0.62305,0.02393-0.91113,0.02393c0,0-0.14355,0-0.14355-0.12012
			c0-0.20361,0.0957-0.21582,0.22754-0.22754c0.59961-0.06006,0.93555-0.33594,1.30762-0.99561l3.99316-7.00391
			c0.08398-0.14404,0.12012-0.21631,0.28809-0.21631s0.17969,0.03613,0.19238,0.28809l0.52734,7.53174
			c0.02441,0.31201,0.08398,0.396,0.67188,0.396c0.15527,0,0.23926,0,0.23926,0.13184
			C326.25586,46.42432,326.1123,46.42432,326.04004,46.42432z M324.00195,39.27637l-2.2793,3.99365h2.55469L324.00195,39.27637z"/>
		<path class="st3" d="M328.63574,50.40625c-0.23047,0-0.90918,0-1.09766,0.01416v-0.20264h0.2168
			c0.61523,0,0.63574-0.08398,0.63574-0.33545v-3.64111c-0.38379,0.18164-0.7334,0.18164-0.89453,0.18164v-0.20264
			c0.71973,0,1.06934-0.2583,1.2373-0.44727c0.13965,0,0.13965,0.00732,0.13965,0.16797v3.94141
			c0,0.25146,0.02051,0.33545,0.63574,0.33545h0.2168v0.20264C329.53711,50.40625,328.86621,50.40625,328.63574,50.40625z"/>
	</g>
	<g>
		<path class="st3" d="M276.04004,46.42432c-0.38379,0-0.79102-0.02393-1.18652-0.02393c-0.4082,0-0.83984,0.02393-1.23535,0.02393
			c-0.04883,0-0.16797,0-0.16797-0.12012c0-0.22754,0.10742-0.22754,0.27539-0.22754
			c0.74316-0.01221,0.71973-0.33594,0.70801-0.52783l-0.13184-1.93115h-2.7832l-0.875,1.54736
			c-0.1084,0.19189-0.2041,0.34766-0.2041,0.51563c0,0.22803,0.16797,0.37207,0.45605,0.396
			c0.07129,0,0.16797,0.01172,0.16797,0.11963c0,0.22803-0.13184,0.22803-0.21582,0.22803
			c-0.3125,0-0.66016-0.02393-0.98438-0.02393c-0.2998,0-0.62305,0.02393-0.91113,0.02393c0,0-0.14355,0-0.14355-0.12012
			c0-0.20361,0.0957-0.21582,0.22754-0.22754c0.59961-0.06006,0.93555-0.33594,1.30762-0.99561l3.99316-7.00391
			c0.08398-0.14404,0.12012-0.21631,0.28809-0.21631s0.17969,0.03613,0.19238,0.28809l0.52734,7.53174
			c0.02441,0.31201,0.08398,0.396,0.67188,0.396c0.15527,0,0.23926,0,0.23926,0.13184
			C276.25586,46.42432,276.1123,46.42432,276.04004,46.42432z M274.00195,39.27637l-2.2793,3.99365h2.55469L274.00195,39.27637z"/>
		<path class="st3" d="M279.75391,50.42041h-2.55078v-0.16748l1.41113-1.57959c0.39844-0.44727,0.74121-0.96436,0.74121-1.55859
			c0-0.64307-0.36328-1.13916-0.95801-1.13916c-0.4541,0-0.83105,0.32178-0.96387,0.79688
			c0.02051-0.00684,0.03516-0.00684,0.09766-0.00684c0.19531,0,0.32813,0.13281,0.32813,0.32813
			c0,0.22363-0.18164,0.32861-0.32813,0.32861c-0.02051,0-0.32813,0-0.32813-0.35645c0-0.60107,0.47461-1.29297,1.28516-1.29297
			c0.81152,0,1.44727,0.53809,1.44727,1.3418c0,0.69189-0.3916,1.05518-1.4541,2.03369
			c-0.18164,0.16797-0.60742,0.61523-0.79688,0.77588h1.29297c0.20996,0,0.6084,0,0.65723-0.06299
			c0.07031-0.11182,0.12598-0.49609,0.14648-0.61523h0.1543L279.75391,50.42041z"/>
	</g>
	<g>
		<path class="st3" d="M226.04004,46.42432c-0.38379,0-0.79102-0.02393-1.18652-0.02393c-0.4082,0-0.83984,0.02393-1.23535,0.02393
			c-0.04883,0-0.16797,0-0.16797-0.12012c0-0.22754,0.10742-0.22754,0.27539-0.22754
			c0.74316-0.01221,0.71973-0.33594,0.70801-0.52783l-0.13184-1.93115h-2.7832l-0.875,1.54736
			c-0.1084,0.19189-0.2041,0.34766-0.2041,0.51563c0,0.22803,0.16797,0.37207,0.45605,0.396
			c0.07129,0,0.16797,0.01172,0.16797,0.11963c0,0.22803-0.13184,0.22803-0.21582,0.22803
			c-0.3125,0-0.66016-0.02393-0.98438-0.02393c-0.2998,0-0.62305,0.02393-0.91113,0.02393c0,0-0.14355,0-0.14355-0.12012
			c0-0.20361,0.0957-0.21582,0.22754-0.22754c0.59961-0.06006,0.93555-0.33594,1.30762-0.99561l3.99316-7.00391
			c0.08398-0.14404,0.12012-0.21631,0.28809-0.21631s0.17969,0.03613,0.19238,0.28809l0.52734,7.53174
			c0.02441,0.31201,0.08398,0.396,0.67188,0.396c0.15527,0,0.23926,0,0.23926,0.13184
			C226.25586,46.42432,226.1123,46.42432,226.04004,46.42432z M224.00195,39.27637l-2.2793,3.99365h2.55469L224.00195,39.27637z"/>
		<path class="st3" d="M228.54492,50.56738c-0.77637,0-1.39844-0.51025-1.39844-1.13232c0-0.26563,0.18164-0.36328,0.34961-0.36328
			c0.19629,0,0.34277,0.13965,0.34277,0.34229c0,0.25146-0.20313,0.37744-0.42676,0.34229
			c0.20313,0.46143,0.77637,0.62207,1.11133,0.62207c0.34277,0,0.81738-0.24463,0.81738-1.16016
			c0-0.6709-0.26465-1.16016-0.85938-1.16016h-0.32129c-0.12598,0-0.16113,0-0.16113-0.06982
			c0-0.06299,0.02832-0.06982,0.14746-0.07666l0.20898-0.021c0.18945-0.00684,0.42676-0.02783,0.63672-0.33545
			c0.20215-0.30078,0.22363-0.69189,0.22363-0.82471c0-0.68506-0.4541-0.78955-0.68555-0.78955c-0.03418,0-0.69141,0-0.95703,0.4751
			c0.02051-0.00684,0.03516-0.00684,0.07715-0.00684c0.15332,0,0.32129,0.09766,0.32129,0.32129
			c0,0.20947-0.16797,0.31445-0.31445,0.31445c-0.10547,0-0.32129-0.05566-0.32129-0.33545
			c0-0.51025,0.5166-0.93652,1.21582-0.93652c0.67773,0,1.25098,0.40527,1.25098,0.95752c0,0.54492-0.3916,1.05518-1,1.22998
			c0.6709,0.11865,1.18848,0.62207,1.18848,1.26514C229.99121,49.93115,229.37598,50.56738,228.54492,50.56738z"/>
	</g>
	<g>
		<path class="st2" d="M291.26758,45.61182c-0.34766,0.6958-0.94727,1.31934-1.99023,1.31934
			c-0.62402,0-1.45117-0.28809-1.91895-1.19922c-0.43164-0.85156-0.51563-1.72705-0.51563-2.89063
			c0-1.29541,0.11914-2.03906,0.45508-2.79443c0.44434-0.99561,1.2959-1.34326,1.99121-1.34326
			c0.58789,0,1.45117,0.26367,1.94238,1.25928c0.43262,0.91162,0.49219,1.88281,0.49219,2.87842
			C291.72363,43.53711,291.69922,44.7124,291.26758,45.61182z M290.65625,40.25049
			c-0.22754-1.03125-0.92383-1.30713-1.37891-1.30713c-0.51563,0-1.12793,0.37207-1.33203,1.17529
			c-0.19141,0.70801-0.19141,1.59521-0.19141,2.57861c0,0.83984,0,1.75098,0.13184,2.4707
			c0.22754,1.30713,1.00781,1.52344,1.3916,1.52344c0.41895,0,1.1748-0.22803,1.40332-1.54736
			c0.13184-0.73145,0.13184-1.64307,0.13184-2.44678C290.8125,41.88184,290.8125,40.93457,290.65625,40.25049z"/>
	</g>
	<g>
		<path class="st2" d="M241.26758,45.61182c-0.34766,0.6958-0.94727,1.31934-1.99023,1.31934
			c-0.62402,0-1.45117-0.28809-1.91895-1.19922c-0.43164-0.85156-0.51563-1.72705-0.51563-2.89063
			c0-1.29541,0.11914-2.03906,0.45508-2.79443c0.44434-0.99561,1.2959-1.34326,1.99121-1.34326
			c0.58789,0,1.45117,0.26367,1.94238,1.25928c0.43262,0.91162,0.49219,1.88281,0.49219,2.87842
			C241.72363,43.53711,241.69922,44.7124,241.26758,45.61182z M240.65625,40.25049
			c-0.22754-1.03125-0.92383-1.30713-1.37891-1.30713c-0.51563,0-1.12793,0.37207-1.33203,1.17529
			c-0.19141,0.70801-0.19141,1.59521-0.19141,2.57861c0,0.83984,0,1.75098,0.13184,2.4707
			c0.22754,1.30713,1.00781,1.52344,1.3916,1.52344c0.41895,0,1.1748-0.22803,1.40332-1.54736
			c0.13184-0.73145,0.13184-1.64307,0.13184-2.44678C240.8125,41.88184,240.8125,40.93457,240.65625,40.25049z"/>
	</g>
	<g>
		<path class="st2" d="M191.26758,45.61182c-0.34766,0.6958-0.94727,1.31934-1.99023,1.31934
			c-0.62402,0-1.45117-0.28809-1.91895-1.19922c-0.43164-0.85156-0.51563-1.72705-0.51563-2.89063
			c0-1.29541,0.11914-2.03906,0.45508-2.79443c0.44434-0.99561,1.2959-1.34326,1.99121-1.34326
			c0.58789,0,1.45117,0.26367,1.94238,1.25928c0.43262,0.91162,0.49219,1.88281,0.49219,2.87842
			C191.72363,43.53711,191.69922,44.7124,191.26758,45.61182z M190.65625,40.25049
			c-0.22754-1.03125-0.92383-1.30713-1.37891-1.30713c-0.51563,0-1.12793,0.37207-1.33203,1.17529
			c-0.19141,0.70801-0.19141,1.59521-0.19141,2.57861c0,0.83984,0,1.75098,0.13184,2.4707
			c0.22754,1.30713,1.00781,1.52344,1.3916,1.52344c0.41895,0,1.1748-0.22803,1.40332-1.54736
			c0.13184-0.73145,0.13184-1.64307,0.13184-2.44678C190.8125,41.88184,190.8125,40.93457,190.65625,40.25049z"/>
	</g>
	<g>
		<path class="st3" d="M357.2041,163.79175c-0.34766,0-1.30664,0-1.58301,0.02393v-0.34766h0.24023
			c0.86328,0,0.89941-0.12012,0.89941-0.56396v-6.93213h-0.01172l-2.91504,7.604c-0.07129,0.17969-0.0957,0.23975-0.20313,0.23975
			c-0.12012,0-0.15625-0.0957-0.2041-0.22803l-2.89063-7.55566h-0.01172v6.54834c0,0.32373,0,0.8877,1.13965,0.8877v0.34766
			c-0.3125-0.02393-0.94824-0.02393-1.28418-0.02393c-0.33496,0-0.9707,0-1.2832,0.02393v-0.34766
			c1.13965,0,1.13965-0.56396,1.13965-0.8877v-6.04443c0-0.44385-0.03613-0.56396-0.89941-0.56396h-0.24023v-0.34766h1.85938
			c0.27539,0,0.28809,0,0.37207,0.22754l2.61426,6.83643l2.61426-6.82422c0.09668-0.22803,0.1084-0.23975,0.37207-0.23975h1.85938
			v0.34766h-0.24023c-0.86328,0-0.89941,0.12012-0.89941,0.56396v6.36816c0,0.44385,0.03613,0.56396,0.89941,0.56396h0.24023
			v0.34766C358.51172,163.79175,357.55273,163.79175,357.2041,163.79175z"/>
		<path class="st3" d="M363.91406,163.93579v-1.07959c0,0-0.19141,0.45557-0.53906,0.73145
			c-0.4082,0.34814-0.79199,0.34814-0.99609,0.34814c-0.61133,0-1.10254-0.14404-1.39063-0.45605
			c-0.36035-0.39551-0.36035-0.82764-0.36035-1.5708v-1.79932c0-1.06738,0-1.10352-0.91113-1.10352v-0.34766l1.69141-0.13184
			v3.96973c0,0.63574,0.05957,1.19922,1.04297,1.19922c0.89941,0,1.43945-0.85156,1.43945-1.87061v-2.14697
			c0-0.58789-0.0957-0.67188-0.91113-0.67188v-0.34766l1.69043-0.13184v4.26953c0,0.58789,0.0957,0.67188,0.91211,0.67188v0.34766
			L363.91406,163.93579z"/>
		<path class="st3" d="M367.54004,163.79175c-0.35938,0-0.94727,0-1.2832,0.02393v-0.34766c0.78027,0,0.91211,0,0.91211-0.54004
			v-6.28418c0-0.58789-0.09668-0.67188-0.91211-0.67188v-0.34766l1.66699-0.13184v7.43555
			c0,0.54004,0.14453,0.54004,0.91211,0.54004v0.34766C368.5,163.79175,367.90039,163.79175,367.54004,163.79175z"/>
		<path class="st3" d="M371.88379,163.93579c-0.63574,0-1.52344-0.27588-1.52344-1.60742v-3.33398h-1.01953v-0.23975
			c1.0918-0.03613,1.52344-1.1875,1.53516-2.31494h0.26367v2.20703h1.69141v0.34766h-1.69141v3.35791
			c0,0.2041,0,1.31934,0.81543,1.31934c0.46777,0,0.81543-0.50342,0.81543-1.36719v-0.65967h0.26465v0.68359
			C373.03516,163.19214,372.63867,163.93579,371.88379,163.93579z"/>
		<path class="st3" d="M375.35254,163.79175c-0.34766,0-0.92383,0-1.25977,0.02393v-0.34766c0.78027,0,0.91211,0,0.91211-0.54004
			v-3.26221c0-0.5874-0.1084-0.65967-0.87598-0.65967v-0.34766l1.63086-0.13184v4.41357c0,0.46777,0.04785,0.52783,0.82813,0.52783
			v0.34766C376.17969,163.79175,375.48438,163.79175,375.35254,163.79175z M375.32813,157.14722
			c-0.31152,0-0.5752-0.26367-0.5752-0.57568c0-0.32373,0.25195-0.5874,0.58789-0.5874c0.28711,0,0.5752,0.22754,0.5752,0.5874
			C375.91602,156.85962,375.68848,157.14722,375.32813,157.14722z"/>
		<path class="st3" d="M380.46289,163.93579c-0.76758,0-1.25879-0.46777-1.47461-0.76758v2.08691
			c0,0.53955,0.14355,0.53955,0.91113,0.53955v0.34766c-0.31152-0.02393-0.95996-0.02393-1.30762-0.02393
			c-0.33594,0-0.9834,0-1.29492,0.02393v-0.34766c0.7793,0,0.91113,0,0.91113-0.53955v-5.63721
			c0-0.52783-0.07129-0.61182-0.91113-0.61182v-0.34766l1.66699-0.13184v0.80371c0.03613-0.04834,0.59961-0.80371,1.65527-0.80371
			c1.30664,0,2.43457,1.17529,2.43457,2.69824C383.05371,162.77222,381.8418,163.93579,380.46289,163.93579z M380.52344,158.79028
			c-0.45605,0-1.04395,0.22803-1.40332,0.76758c-0.13184,0.19189-0.13184,0.2041-0.13184,0.43213v2.47021
			c0,0.33594,0.17969,0.57568,0.45508,0.85156c0.24023,0.22803,0.58789,0.38379,0.95996,0.38379
			c0.92285,0,1.73828-1.04346,1.73828-2.4707C382.1416,159.88208,381.42285,158.79028,380.52344,158.79028z"/>
		<path class="st3" d="M385.16699,163.79175c-0.35938,0-0.94727,0-1.2832,0.02393v-0.34766c0.78027,0,0.91211,0,0.91211-0.54004
			v-6.28418c0-0.58789-0.09668-0.67188-0.91211-0.67188v-0.34766l1.66699-0.13184v7.43555
			c0,0.54004,0.14453,0.54004,0.91211,0.54004v0.34766C386.12695,163.79175,385.52734,163.79175,385.16699,163.79175z"/>
		<path class="st3" d="M388.4082,163.79175c-0.34766,0-0.92383,0-1.25977,0.02393v-0.34766c0.78027,0,0.91211,0,0.91211-0.54004
			v-3.26221c0-0.5874-0.1084-0.65967-0.87598-0.65967v-0.34766l1.63086-0.13184v4.41357c0,0.46777,0.04883,0.52783,0.82813,0.52783
			v0.34766C389.23535,163.79175,388.54004,163.79175,388.4082,163.79175z M388.38379,157.14722
			c-0.31152,0-0.5752-0.26367-0.5752-0.57568c0-0.32373,0.25195-0.5874,0.58789-0.5874c0.28711,0,0.5752,0.22754,0.5752,0.5874
			C388.97168,156.85962,388.74414,157.14722,388.38379,157.14722z"/>
		<path class="st3" d="M392.93066,163.93579c-1.33105,0-2.55469-1.16357-2.55469-2.74658c0-1.4873,1.05566-2.72266,2.42285-2.72266
			c1.45117,0,2.09863,1.12744,2.09863,2.33887c0,0.22803-0.02344,0.22803-0.28711,0.22803h-3.32227v0.22754
			c0,2.0752,1.21094,2.41064,1.71484,2.41064s1.30762-0.27588,1.61914-1.2832c0.02441-0.06006,0.04785-0.12012,0.14355-0.12012
			c0.07227,0,0.13184,0.04834,0.13184,0.12012C394.89746,162.64038,394.3584,163.93579,392.93066,163.93579z M392.78711,158.7063
			c-0.33594,0-1.3916,0.21582-1.4873,2.09912h2.85449C394.14258,160.39771,394.07031,158.7063,392.78711,158.7063z"/>
		<path class="st3" d="M398.99023,159.7019c-0.19141,0-0.46777-0.13184-0.46777-0.47949c0-0.32422,0.19238-0.396,0.28809-0.44385
			c-0.04785-0.01221-0.07227-0.01221-0.16797-0.01221c-0.92383,0-1.40332,1.09131-1.40332,2.25488v1.88281
			c0,0.43213,0.02441,0.56396,0.89941,0.56396h0.24023v0.34766c-0.27637-0.02393-1.12793-0.02393-1.45117-0.02393
			c-0.36035,0-1.01953,0-1.35547,0.02393v-0.34766c0.7793,0,0.91113,0,0.91113-0.54004v-3.25
			c0-0.58789-0.0957-0.67188-0.91113-0.67188v-0.34766l1.60742-0.13184v1.33105h0.01172
			c0.07227-0.22754,0.41992-1.33105,1.43945-1.33105c0.51563,0,0.83887,0.33594,0.83887,0.6958
			C399.46973,159.54614,399.23047,159.7019,398.99023,159.7019z"/>
	</g>
	<g>
		<path class="st3" d="M275.02832,8.29932c-0.34766,0-1.30664,0-1.58301,0.02393V7.97559h0.24023
			c0.86328,0,0.89941-0.12012,0.89941-0.56396V0.47949h-0.01172l-2.91504,7.604c-0.07129,0.17969-0.0957,0.23975-0.20313,0.23975
			c-0.12012,0-0.15625-0.0957-0.2041-0.22803l-2.89063-7.55566h-0.01172v6.54834c0,0.32373,0,0.8877,1.13965,0.8877v0.34766
			c-0.3125-0.02393-0.94824-0.02393-1.28418-0.02393c-0.33496,0-0.9707,0-1.2832,0.02393V7.97559
			c1.13965,0,1.13965-0.56396,1.13965-0.8877V1.04346c0-0.44385-0.03613-0.56396-0.89941-0.56396h-0.24023V0.13184h1.85938
			c0.27539,0,0.28809,0,0.37207,0.22754l2.61426,6.83643l2.61426-6.82422c0.09668-0.22803,0.1084-0.23975,0.37207-0.23975h1.85938
			v0.34766h-0.24023c-0.86328,0-0.89941,0.12012-0.89941,0.56396v6.36816c0,0.44385,0.03613,0.56396,0.89941,0.56396h0.24023
			v0.34766C276.33594,8.29932,275.37695,8.29932,275.02832,8.29932z"/>
		<path class="st3" d="M281.73828,8.44336V7.36377c0,0-0.19141,0.45557-0.53906,0.73145
			c-0.4082,0.34814-0.79199,0.34814-0.99609,0.34814c-0.61133,0-1.10254-0.14404-1.39063-0.45605
			c-0.36035-0.39551-0.36035-0.82764-0.36035-1.5708V4.61719c0-1.06738,0-1.10352-0.91113-1.10352V3.16602l1.69141-0.13184v3.96973
			c0,0.63574,0.05957,1.19922,1.04297,1.19922c0.89941,0,1.43945-0.85156,1.43945-1.87061V4.18555
			c0-0.58789-0.0957-0.67188-0.91113-0.67188V3.16602l1.69043-0.13184v4.26953c0,0.58789,0.0957,0.67188,0.91211,0.67188v0.34766
			L281.73828,8.44336z"/>
		<path class="st3" d="M285.36426,8.29932c-0.35938,0-0.94727,0-1.2832,0.02393V7.97559c0.78027,0,0.91211,0,0.91211-0.54004
			V1.15137c0-0.58789-0.09668-0.67188-0.91211-0.67188V0.13184L285.74805,0v7.43555c0,0.54004,0.14453,0.54004,0.91211,0.54004
			v0.34766C286.32422,8.29932,285.72461,8.29932,285.36426,8.29932z"/>
		<path class="st3" d="M289.70801,8.44336c-0.63574,0-1.52344-0.27588-1.52344-1.60742V3.50195h-1.01953V3.26221
			c1.0918-0.03613,1.52344-1.1875,1.53516-2.31494h0.26367V3.1543h1.69141v0.34766h-1.69141v3.35791
			c0,0.2041,0,1.31934,0.81543,1.31934c0.46777,0,0.81543-0.50342,0.81543-1.36719V6.15234h0.26465v0.68359
			C290.85938,7.69971,290.46289,8.44336,289.70801,8.44336z"/>
		<path class="st3" d="M293.17676,8.29932c-0.34766,0-0.92383,0-1.25977,0.02393V7.97559c0.78027,0,0.91211,0,0.91211-0.54004
			V4.17334c0-0.5874-0.1084-0.65967-0.87598-0.65967V3.16602l1.63086-0.13184v4.41357c0,0.46777,0.04785,0.52783,0.82813,0.52783
			v0.34766C294.00391,8.29932,293.30859,8.29932,293.17676,8.29932z M293.15234,1.65479c-0.31152,0-0.5752-0.26367-0.5752-0.57568
			c0-0.32373,0.25195-0.5874,0.58789-0.5874c0.28711,0,0.5752,0.22754,0.5752,0.5874
			C293.74023,1.36719,293.5127,1.65479,293.15234,1.65479z"/>
		<path class="st3" d="M298.28711,8.44336c-0.76758,0-1.25879-0.46777-1.47461-0.76758V9.7627
			c0,0.53955,0.14355,0.53955,0.91113,0.53955v0.34766c-0.31152-0.02393-0.95996-0.02393-1.30762-0.02393
			c-0.33594,0-0.9834,0-1.29492,0.02393v-0.34766c0.7793,0,0.91113,0,0.91113-0.53955V4.12549
			c0-0.52783-0.07129-0.61182-0.91113-0.61182V3.16602l1.66699-0.13184v0.80371c0.03613-0.04834,0.59961-0.80371,1.65527-0.80371
			c1.30664,0,2.43457,1.17529,2.43457,2.69824C300.87793,7.27979,299.66602,8.44336,298.28711,8.44336z M298.34766,3.29785
			c-0.45605,0-1.04395,0.22803-1.40332,0.76758c-0.13184,0.19189-0.13184,0.2041-0.13184,0.43213v2.47021
			c0,0.33594,0.17969,0.57568,0.45508,0.85156c0.24023,0.22803,0.58789,0.38379,0.95996,0.38379
			c0.92285,0,1.73828-1.04346,1.73828-2.4707C299.96582,4.38965,299.24707,3.29785,298.34766,3.29785z"/>
		<path class="st3" d="M302.99121,8.29932c-0.35938,0-0.94727,0-1.2832,0.02393V7.97559c0.78027,0,0.91211,0,0.91211-0.54004
			V1.15137c0-0.58789-0.09668-0.67188-0.91211-0.67188V0.13184L303.375,0v7.43555c0,0.54004,0.14453,0.54004,0.91211,0.54004
			v0.34766C303.95117,8.29932,303.35156,8.29932,302.99121,8.29932z"/>
		<path class="st3" d="M306.23242,8.29932c-0.34766,0-0.92383,0-1.25977,0.02393V7.97559c0.78027,0,0.91211,0,0.91211-0.54004
			V4.17334c0-0.5874-0.1084-0.65967-0.87598-0.65967V3.16602l1.63086-0.13184v4.41357c0,0.46777,0.04883,0.52783,0.82813,0.52783
			v0.34766C307.05957,8.29932,306.36426,8.29932,306.23242,8.29932z M306.20801,1.65479c-0.31152,0-0.5752-0.26367-0.5752-0.57568
			c0-0.32373,0.25195-0.5874,0.58789-0.5874c0.28711,0,0.5752,0.22754,0.5752,0.5874
			C306.7959,1.36719,306.56836,1.65479,306.20801,1.65479z"/>
		<path class="st3" d="M310.76758,8.44336c-1.35547,0-2.50684-1.17578-2.50684-2.71094c0-1.51074,1.11523-2.7583,2.51855-2.7583
			c0.97168,0,1.81055,0.57568,1.81055,1.37939c0,0.34766-0.22754,0.51563-0.50293,0.51563c-0.28809,0-0.49219-0.2041-0.49219-0.4917
			c0-0.4917,0.44336-0.4917,0.58789-0.4917c-0.27637-0.46777-0.93555-0.64746-1.3916-0.64746
			c-0.59961,0-1.61914,0.4917-1.61914,2.48242c0,1.82275,0.97168,2.4585,1.70313,2.4585c0.64746,0,1.2959-0.35986,1.55957-1.21143
			c0.03613-0.14355,0.04785-0.17969,0.15527-0.17969c0.03613,0,0.12012,0,0.12012,0.10791S312.35059,8.44336,310.76758,8.44336z"/>
		<path class="st3" d="M317.79785,8.3833c-0.51563,0-0.8877-0.43164-0.93555-0.99561
			c-0.22754,0.57568-0.76758,1.05566-1.55859,1.05566c-0.73242,0-1.83496-0.2998-1.83496-1.24756
			c0-0.92334,0.91113-1.93066,3.32129-1.9668V4.74902c0-1.0791-0.70703-1.53516-1.25879-1.53516
			c-0.47949,0-1.05566,0.21582-1.33105,0.71973c0.17969,0,0.61133,0,0.61133,0.4917c0,0.28809-0.2041,0.4917-0.49121,0.4917
			c-0.27637,0-0.50391-0.16797-0.50391-0.51563c0-0.7793,0.75488-1.42725,1.73926-1.42725
			c0.52734,0,1.06738,0.16797,1.48633,0.55176c0.52832,0.46777,0.52832,0.94727,0.52832,1.59521v2.09863
			c0,0.18018,0,0.81543,0.45508,0.81543c0.16797,0,0.45605-0.0957,0.45605-0.7793V6.58398h0.26367v0.67188
			C318.74512,8.21533,318.0498,8.3833,317.79785,8.3833z M316.79004,5.44482c-0.43164,0.02393-2.46973,0.16797-2.46973,1.75098
			c0,0.57568,0.49121,1.00732,1.0791,1.00732c0.51563,0,1.39063-0.39551,1.39063-1.5708V5.44482z"/>
		<path class="st3" d="M323.88184,8.29932c-0.33594,0-0.9834,0-1.29492,0.02393V7.97559c0.7793,0,0.91113,0,0.91113-0.54004V4.61719
			c0-0.73145-0.16797-1.34326-0.91113-1.34326c-0.74414,0-1.57129,0.67188-1.57129,1.93115v2.23047
			c0,0.54004,0.14355,0.54004,0.91113,0.54004v0.34766c-0.31152-0.02393-0.95898-0.02393-1.30762-0.02393
			c-0.33496,0-0.9834,0-1.29492,0.02393V7.97559c0.7793,0,0.91113,0,0.91113-0.54004v-3.25
			c0-0.58789-0.0957-0.67188-0.91113-0.67188V3.16602l1.63086-0.13184v1.23535h0.0127
			c0.0957-0.23975,0.55078-1.23535,1.71484-1.23535c0.40723,0,0.97168,0.07178,1.31934,0.53955
			c0.27539,0.38379,0.27539,0.71973,0.27539,1.83496v2.20703c0.01172,0.35986,0.31152,0.35986,0.91211,0.35986v0.34766
			C324.87695,8.29932,324.22949,8.29932,323.88184,8.29932z"/>
		<path class="st3" d="M329.9541,8.44336V7.61572c-0.16797,0.22803-0.69531,0.82764-1.60742,0.82764
			c-1.31836,0-2.45801-1.17578-2.45801-2.69873c0-1.53516,1.19922-2.71045,2.59082-2.71045
			c0.73145,0,1.24707,0.41992,1.49902,0.76758V1.15137c0-0.58789-0.09668-0.67188-0.91211-0.67188V0.13184L330.7334,0v7.30371
			c0,0.58789,0.09668,0.67188,0.91211,0.67188v0.34766L329.9541,8.44336z M329.9541,4.44922c0-0.21582,0-0.23975-0.14355-0.44336
			c-0.12012-0.19238-0.54004-0.73193-1.2832-0.73193c-0.59961,0-1.08008,0.37207-1.31934,0.74365
			c-0.26367,0.396-0.4082,0.87549-0.4082,1.73926c0,2.32666,1.2959,2.44629,1.60742,2.44629
			c0.59961,0,1.0918-0.34766,1.37891-0.76758c0.16797-0.26367,0.16797-0.2998,0.16797-0.51563V4.44922z"/>
	</g>
	<g>
		<path class="st2" d="M114.19238,91.00342h-1.83496l-0.7793,3.08252l-0.02441,0.17969c0,0.10791,0,0.2041,0.67188,0.2041
			c0.17969,0,0.27588,0,0.27588,0.11963c0,0.22803-0.13184,0.22803-0.22803,0.22803c-0.41992,0-0.88721-0.02393-1.31934-0.02393
			c-0.43164,0-0.87549,0.02393-1.29492,0.02393c-0.04834,0-0.16797,0-0.16797-0.12012c0-0.22754,0.10791-0.22754,0.32373-0.22754
			c0.73145,0,0.80371-0.09619,0.91162-0.51563l1.64307-6.6084c0.02393-0.07227,0.02393-0.1084,0.02393-0.18018
			c0-0.19189-0.33594-0.19189-0.63574-0.19189c-0.22803,0-0.31201,0-0.31201-0.12012c0-0.22754,0.10791-0.22754,0.32422-0.22754
			h3.42969c1.28369,0,2.0752,0.75537,2.0752,1.75098C117.2749,89.79199,115.69141,91.00342,114.19238,91.00342z M114.85205,86.97363
			h-1.04346c-0.39551,0-0.47949,0-0.5874,0.45605l-0.81592,3.28613h1.51123c1.09131,0,1.61914-0.57568,1.66699-0.61182
			c0.61182-0.67188,0.71973-1.79883,0.71973-2.01514C116.30322,87.36963,115.83545,86.97363,114.85205,86.97363z"/>
		<path class="st2" d="M122.14844,91.00342h-1.83496l-0.7793,3.08252l-0.02441,0.17969c0,0.10791,0,0.2041,0.67188,0.2041
			c0.17969,0,0.27588,0,0.27588,0.11963c0,0.22803-0.13184,0.22803-0.22803,0.22803c-0.41992,0-0.88721-0.02393-1.31934-0.02393
			c-0.43164,0-0.87549,0.02393-1.29492,0.02393c-0.04834,0-0.16797,0-0.16797-0.12012c0-0.22754,0.10791-0.22754,0.32373-0.22754
			c0.73145,0,0.80371-0.09619,0.91162-0.51563l1.64307-6.6084c0.02393-0.07227,0.02393-0.1084,0.02393-0.18018
			c0-0.19189-0.33594-0.19189-0.63574-0.19189c-0.22803,0-0.31201,0-0.31201-0.12012c0-0.22754,0.10791-0.22754,0.32422-0.22754
			h3.42969c1.28369,0,2.0752,0.75537,2.0752,1.75098C125.23096,89.79199,123.64746,91.00342,122.14844,91.00342z
			 M122.80811,86.97363h-1.04346c-0.39551,0-0.47949,0-0.5874,0.45605l-0.81592,3.28613h1.51123
			c1.09131,0,1.61914-0.57568,1.66699-0.61182c0.61182-0.67188,0.71973-1.79883,0.71973-2.01514
			C124.25928,87.36963,123.7915,86.97363,122.80811,86.97363z"/>
		<path class="st2" d="M128.11377,95.06934c-0.94775,0-1.4873-0.38379-1.81104-0.87549l-0.53955,0.71924
			c-0.12012,0.14404-0.13232,0.15625-0.18018,0.15625c0,0-0.12012,0-0.12012-0.10791c0-0.03613,0.02441-0.13184,0.03613-0.16797
			l0.62354-2.49463c0.04834-0.19189,0.07227-0.2041,0.2041-0.2041c0.06006,0,0.15576,0,0.15576,0.10791l-0.01172,0.09619
			c-0.07227,0.2876-0.09619,0.61182-0.09619,0.73145c0,1.22363,0.85156,1.69141,1.7749,1.69141
			c1.0918,0,2.02734-1.23535,2.02734-2.32715c0-0.53955-0.21631-1.00732-0.71973-1.17529l-0.73145-0.21582
			c-0.82764-0.23975-1.04346-0.2998-1.29541-0.57568c-0.43213-0.46777-0.45605-0.95947-0.45605-1.22314
			c0-1.43945,1.31934-2.83057,2.72266-2.83057c0.21582,0,1.10352,0,1.54736,0.85156l0.53955-0.71973
			c0.0957-0.13184,0.13184-0.13184,0.16797-0.13184c0,0,0.11963,0,0.11963,0.10791c0,0.03613-0.02393,0.13184-0.03564,0.16797
			l-0.62354,2.49463c-0.04834,0.19189-0.07227,0.2041-0.2041,0.2041c-0.08398,0-0.16797,0-0.16797-0.12012
			c0,0,0-0.03613,0.02393-0.10791c0.04785-0.34814,0.04785-0.55176,0.04785-0.70752c0-0.37207,0-1.71533-1.43896-1.71533
			c-1.00732,0-1.95508,1.04346-1.95508,2.07471c0,0.8999,0.56396,1.06787,0.94775,1.17578l1.16309,0.34766
			c0.59961,0.19189,1.07959,0.73145,1.07959,1.6792C130.9082,93.53418,129.56494,95.06934,128.11377,95.06934z"/>
		<path class="st2" d="M134.06445,98.19141c-0.20264,0.40527-0.55225,0.76904-1.16016,0.76904
			c-0.36328,0-0.8457-0.16797-1.11816-0.69922c-0.25146-0.49609-0.30029-1.00635-0.30029-1.68408
			c0-0.75488,0.06982-1.18799,0.26563-1.62842c0.2583-0.58008,0.75439-0.78271,1.16016-0.78271
			c0.34229,0,0.84521,0.15381,1.13184,0.73389c0.25146,0.53125,0.28662,1.09717,0.28662,1.67725
			C134.33008,96.98242,134.31592,97.66748,134.06445,98.19141z M133.70801,95.06738
			c-0.13281-0.60059-0.53809-0.76172-0.80371-0.76172c-0.30029,0-0.65674,0.2168-0.77539,0.68506
			c-0.11182,0.4126-0.11182,0.92969-0.11182,1.50244c0,0.48926,0,1.02051,0.07666,1.43994
			c0.13281,0.76172,0.58691,0.88721,0.81055,0.88721c0.24463,0,0.68506-0.13281,0.81787-0.90137
			c0.07666-0.42627,0.07666-0.95752,0.07666-1.42578C133.79883,96.01807,133.79883,95.46582,133.70801,95.06738z"/>
	</g>
	<g>
		<path class="st2" d="M64.19238,141.00342h-1.83496l-0.7793,3.08252l-0.02441,0.17969c0,0.10791,0,0.2041,0.67188,0.2041
			c0.17969,0,0.27588,0,0.27588,0.11963c0,0.22803-0.13184,0.22803-0.22803,0.22803c-0.41992,0-0.88721-0.02393-1.31934-0.02393
			c-0.43164,0-0.87549,0.02393-1.29492,0.02393c-0.04834,0-0.16797,0-0.16797-0.12012c0-0.22754,0.10791-0.22754,0.32373-0.22754
			c0.73145,0,0.80371-0.09619,0.91162-0.51563l1.64307-6.6084c0.02393-0.07227,0.02393-0.1084,0.02393-0.18018
			c0-0.19189-0.33594-0.19189-0.63574-0.19189c-0.22803,0-0.31201,0-0.31201-0.12012c0-0.22754,0.10791-0.22754,0.32422-0.22754
			h3.42969c1.28369,0,2.0752,0.75537,2.0752,1.75098C67.2749,139.79199,65.69141,141.00342,64.19238,141.00342z M64.85205,136.97363
			h-1.04346c-0.39551,0-0.47949,0-0.5874,0.45605l-0.81592,3.28613h1.51123c1.09131,0,1.61914-0.57568,1.66699-0.61182
			c0.61182-0.67188,0.71973-1.79883,0.71973-2.01514C66.30322,137.36963,65.83545,136.97363,64.85205,136.97363z"/>
		<path class="st2" d="M72.14844,141.00342h-1.83496l-0.7793,3.08252l-0.02441,0.17969c0,0.10791,0,0.2041,0.67188,0.2041
			c0.17969,0,0.27588,0,0.27588,0.11963c0,0.22803-0.13184,0.22803-0.22803,0.22803c-0.41992,0-0.88721-0.02393-1.31934-0.02393
			c-0.43164,0-0.87549,0.02393-1.29492,0.02393c-0.04834,0-0.16797,0-0.16797-0.12012c0-0.22754,0.10791-0.22754,0.32373-0.22754
			c0.73145,0,0.80371-0.09619,0.91162-0.51563l1.64307-6.6084c0.02393-0.07227,0.02393-0.1084,0.02393-0.18018
			c0-0.19189-0.33594-0.19189-0.63574-0.19189c-0.22803,0-0.31201,0-0.31201-0.12012c0-0.22754,0.10791-0.22754,0.32422-0.22754
			h3.42969c1.28369,0,2.0752,0.75537,2.0752,1.75098C75.23096,139.79199,73.64746,141.00342,72.14844,141.00342z
			 M72.80811,136.97363h-1.04346c-0.39551,0-0.47949,0-0.5874,0.45605l-0.81592,3.28613h1.51123
			c1.09131,0,1.61914-0.57568,1.66699-0.61182c0.61182-0.67188,0.71973-1.79883,0.71973-2.01514
			C74.25928,137.36963,73.7915,136.97363,72.80811,136.97363z"/>
		<path class="st2" d="M78.11377,145.06934c-0.94775,0-1.4873-0.38379-1.81104-0.87549l-0.53955,0.71924
			c-0.12012,0.14404-0.13232,0.15625-0.18018,0.15625c0,0-0.12012,0-0.12012-0.10791c0-0.03613,0.02441-0.13184,0.03613-0.16797
			l0.62354-2.49463c0.04834-0.19189,0.07227-0.2041,0.2041-0.2041c0.06006,0,0.15576,0,0.15576,0.10791l-0.01172,0.09619
			c-0.07227,0.2876-0.09619,0.61182-0.09619,0.73145c0,1.22363,0.85156,1.69141,1.7749,1.69141
			c1.0918,0,2.02734-1.23535,2.02734-2.32715c0-0.53955-0.21631-1.00732-0.71973-1.17529l-0.73145-0.21582
			c-0.82764-0.23975-1.04346-0.2998-1.29541-0.57568c-0.43213-0.46777-0.45605-0.95947-0.45605-1.22314
			c0-1.43945,1.31934-2.83057,2.72266-2.83057c0.21582,0,1.10352,0,1.54736,0.85156l0.53955-0.71973
			c0.0957-0.13184,0.13184-0.13184,0.16797-0.13184c0,0,0.11963,0,0.11963,0.10791c0,0.03613-0.02393,0.13184-0.03564,0.16797
			l-0.62354,2.49463c-0.04834,0.19189-0.07227,0.2041-0.2041,0.2041c-0.08398,0-0.16797,0-0.16797-0.12012
			c0,0,0-0.03613,0.02393-0.10791c0.04785-0.34814,0.04785-0.55176,0.04785-0.70752c0-0.37207,0-1.71533-1.43896-1.71533
			c-1.00732,0-1.95508,1.04346-1.95508,2.07471c0,0.8999,0.56396,1.06787,0.94775,1.17578l1.16309,0.34766
			c0.59961,0.19189,1.07959,0.73145,1.07959,1.6792C80.9082,143.53418,79.56494,145.06934,78.11377,145.06934z"/>
		<path class="st2" d="M82.97412,148.79932c-0.23047,0-0.9082,0-1.09717,0.01416v-0.20264h0.2168
			c0.61523,0,0.63574-0.08398,0.63574-0.33545v-3.64111c-0.38428,0.18164-0.7334,0.18164-0.89453,0.18164v-0.20264
			c0.72021,0,1.06934-0.2583,1.2373-0.44727c0.13965,0,0.13965,0.00684,0.13965,0.16797v3.94141
			c0,0.25146,0.021,0.33545,0.63574,0.33545h0.2168v0.20264C83.87598,148.79932,83.20508,148.79932,82.97412,148.79932z"/>
	</g>
	<g>
		<path class="st2" d="M14.19238,191.00342h-1.83496l-0.7793,3.08252l-0.02441,0.17969c0,0.10791,0,0.2041,0.67188,0.2041
			c0.17969,0,0.27588,0,0.27588,0.11963c0,0.22803-0.13184,0.22803-0.22803,0.22803c-0.41992,0-0.88721-0.02393-1.31934-0.02393
			c-0.43164,0-0.87549,0.02393-1.29492,0.02393c-0.04834,0-0.16797,0-0.16797-0.12012c0-0.22754,0.10791-0.22754,0.32373-0.22754
			c0.73145,0,0.80371-0.09619,0.91162-0.51563l1.64307-6.6084c0.02393-0.07227,0.02393-0.1084,0.02393-0.18018
			c0-0.19189-0.33594-0.19189-0.63574-0.19189c-0.22803,0-0.31201,0-0.31201-0.12012c0-0.22754,0.10791-0.22754,0.32422-0.22754
			h3.42969c1.28369,0,2.0752,0.75537,2.0752,1.75098C17.2749,189.79199,15.69141,191.00342,14.19238,191.00342z M14.85205,186.97363
			h-1.04346c-0.39551,0-0.47949,0-0.5874,0.45605l-0.81592,3.28613h1.51123c1.09131,0,1.61914-0.57568,1.66699-0.61182
			c0.61182-0.67188,0.71973-1.79883,0.71973-2.01514C16.30322,187.36963,15.83545,186.97363,14.85205,186.97363z"/>
		<path class="st2" d="M22.14844,191.00342h-1.83496l-0.7793,3.08252l-0.02441,0.17969c0,0.10791,0,0.2041,0.67188,0.2041
			c0.17969,0,0.27588,0,0.27588,0.11963c0,0.22803-0.13184,0.22803-0.22803,0.22803c-0.41992,0-0.88721-0.02393-1.31934-0.02393
			c-0.43164,0-0.87549,0.02393-1.29492,0.02393c-0.04834,0-0.16797,0-0.16797-0.12012c0-0.22754,0.10791-0.22754,0.32373-0.22754
			c0.73145,0,0.80371-0.09619,0.91162-0.51563l1.64307-6.6084c0.02393-0.07227,0.02393-0.1084,0.02393-0.18018
			c0-0.19189-0.33594-0.19189-0.63574-0.19189c-0.22803,0-0.31201,0-0.31201-0.12012c0-0.22754,0.10791-0.22754,0.32422-0.22754
			h3.42969c1.28369,0,2.0752,0.75537,2.0752,1.75098C25.23096,189.79199,23.64746,191.00342,22.14844,191.00342z
			 M22.80811,186.97363h-1.04346c-0.39551,0-0.47949,0-0.5874,0.45605l-0.81592,3.28613h1.51123
			c1.09131,0,1.61914-0.57568,1.66699-0.61182c0.61182-0.67188,0.71973-1.79883,0.71973-2.01514
			C24.25928,187.36963,23.7915,186.97363,22.80811,186.97363z"/>
		<path class="st2" d="M28.11377,195.06934c-0.94775,0-1.4873-0.38379-1.81104-0.87549l-0.53955,0.71924
			c-0.12012,0.14404-0.13232,0.15625-0.18018,0.15625c0,0-0.12012,0-0.12012-0.10791c0-0.03613,0.02441-0.13184,0.03613-0.16797
			l0.62354-2.49463c0.04834-0.19189,0.07227-0.2041,0.2041-0.2041c0.06006,0,0.15576,0,0.15576,0.10791l-0.01172,0.09619
			c-0.07227,0.2876-0.09619,0.61182-0.09619,0.73145c0,1.22363,0.85156,1.69141,1.7749,1.69141
			c1.0918,0,2.02734-1.23535,2.02734-2.32715c0-0.53955-0.21631-1.00732-0.71973-1.17529l-0.73145-0.21582
			c-0.82764-0.23975-1.04346-0.2998-1.29541-0.57568c-0.43213-0.46777-0.45605-0.95947-0.45605-1.22314
			c0-1.43945,1.31934-2.83057,2.72266-2.83057c0.21582,0,1.10352,0,1.54736,0.85156l0.53955-0.71973
			c0.0957-0.13184,0.13184-0.13184,0.16797-0.13184c0,0,0.11963,0,0.11963,0.10791c0,0.03613-0.02393,0.13184-0.03564,0.16797
			l-0.62354,2.49463c-0.04834,0.19189-0.07227,0.2041-0.2041,0.2041c-0.08398,0-0.16797,0-0.16797-0.12012
			c0,0,0-0.03613,0.02393-0.10791c0.04785-0.34814,0.04785-0.55176,0.04785-0.70752c0-0.37207,0-1.71533-1.43896-1.71533
			c-1.00732,0-1.95508,1.04346-1.95508,2.07471c0,0.8999,0.56396,1.06787,0.94775,1.17578l1.16309,0.34766
			c0.59961,0.19189,1.07959,0.73145,1.07959,1.6792C30.9082,193.53418,29.56494,195.06934,28.11377,195.06934z"/>
		<path class="st2" d="M34.09229,198.81348H31.5415v-0.16797l1.41162-1.5791c0.39844-0.44727,0.74121-0.96436,0.74121-1.55859
			c0-0.64307-0.36377-1.13916-0.95752-1.13916c-0.45459,0-0.83154,0.32178-0.96436,0.79688
			c0.021-0.00684,0.03467-0.00684,0.09766-0.00684c0.1958,0,0.32861,0.13232,0.32861,0.32813
			c0,0.22363-0.18164,0.32861-0.32861,0.32861c-0.021,0-0.32861,0-0.32861-0.35645c0-0.60107,0.47559-1.29297,1.28613-1.29297
			s1.44678,0.53809,1.44678,1.3418c0,0.69189-0.3916,1.05518-1.4541,2.03369c-0.18164,0.16797-0.60791,0.61523-0.79639,0.77588
			h1.29297c0.20947,0,0.60791,0,0.65674-0.06299c0.06982-0.11182,0.12598-0.49609,0.14697-0.61475h0.15381L34.09229,198.81348z"/>
	</g>
	<g>
	</g>
	<g>
	</g>
	<g>
	</g>
	<g>
	</g>
	<g>
	</g>
	<g>
	</g>
	<g>
	</g>
	<g>
	</g>
	<g>
	</g>
	<g>
	</g>
	<g>
	</g>
	<g>
	</g>
</g>
</svg>
