<?xml version="1.0" encoding="utf-8"?>
<!-- Generator: Adobe Illustrator 23.0.3, SVG Export Plug-In . SVG Version: 6.00 Build 0)  -->
<svg version="1.1" xmlns="http://www.w3.org/2000/svg" xmlns:xlink="http://www.w3.org/1999/xlink" x="0px" y="0px"
	 viewBox="0 0 417.90512 283.10788" style="enable-background:new 0 0 417.90512 283.10788;" xml:space="preserve">
<style type="text/css">
	.st0{fill:none;stroke:#8FF4DD;stroke-width:2;stroke-miterlimit:10;}
	.st1{fill:none;stroke:#2DE2E6;stroke-width:2;stroke-miterlimit:10;}
	.st2{fill:#2DE2E6;}
	.st3{fill:#8FF4DD;}
</style>
<g id="Layer_1">
	<g>
		<line class="st0" x1="327.49091" y1="100.8" x2="307.49091" y2="120.8"/>
		<line class="st0" x1="277.49091" y1="150.8" x2="257.49091" y2="170.8"/>
		<line class="st0" x1="227.49092" y1="200.8" x2="207.49092" y2="220.8"/>
		<line class="st0" x1="277.49091" y1="100.8" x2="257.49091" y2="120.8"/>
		<line class="st0" x1="227.49092" y1="150.8" x2="207.49092" y2="170.8"/>
		<line class="st0" x1="177.49092" y1="200.8" x2="157.49092" y2="220.8"/>
		<line class="st0" x1="227.49092" y1="100.8" x2="207.49092" y2="120.8"/>
		<line class="st0" x1="177.49092" y1="150.8" x2="157.49092" y2="170.8"/>
		<g>
			<g>
				<line class="st1" x1="42.49092" y1="250.8" x2="42.49092" y2="264.60001"/>
				<g>
					<polygon class="st2" points="40.39092,263.20001 42.49092,270.79999 44.49092,263.20001 					"/>
				</g>
			</g>
		</g>
		<g>
			<g>
				<line class="st1" x1="92.49092" y1="250.8" x2="92.49092" y2="264.60001"/>
				<g>
					<polygon class="st2" points="90.39091,263.20001 92.49092,270.79999 94.49092,263.20001 					"/>
				</g>
			</g>
		</g>
		<g>
			<g>
				<line class="st1" x1="142.49092" y1="250.8" x2="142.49092" y2="264.60001"/>
				<g>
					<polygon class="st2" points="140.39091,263.20001 142.49092,270.79999 144.49092,263.20001 					"/>
				</g>
			</g>
		</g>
		<g>
			<g>
				<line class="st1" x1="192.49092" y1="250.8" x2="192.49092" y2="264.60001"/>
				<g>
					<polygon class="st2" points="190.39091,263.20001 192.49092,270.79999 194.49092,263.20001 					"/>
				</g>
			</g>
		</g>
		<line class="st0" x1="127.49092" y1="200.8" x2="107.49092" y2="220.8"/>
		<line class="st0" x1="177.49092" y1="100.8" x2="157.49092" y2="120.8"/>
		<line class="st0" x1="127.49092" y1="150.8" x2="107.49092" y2="170.8"/>
		<line class="st0" x1="77.49092" y1="200.8" x2="57.49092" y2="220.8"/>
		<g>
			<g>
				<line class="st0" x1="377.49091" y1="50.8" x2="361.89093" y2="66.4"/>
				<g>
					<polygon class="st3" points="361.39093,64 357.49091,70.8 364.29092,66.9 					"/>
				</g>
			</g>
		</g>
		<g>
			<g>
				<line class="st0" x1="327.49091" y1="50.8" x2="311.89093" y2="66.4"/>
				<g>
					<polygon class="st3" points="311.39093,64 307.49091,70.8 314.29092,66.9 					"/>
				</g>
			</g>
		</g>
		<g>
			<g>
				<line class="st0" x1="277.49091" y1="50.8" x2="261.89093" y2="66.4"/>
				<g>
					<polygon class="st3" points="261.39093,64 257.49091,70.8 264.29092,66.9 					"/>
				</g>
			</g>
		</g>
		<g>
			<g>
				<line class="st0" x1="227.49092" y1="50.8" x2="211.89091" y2="66.4"/>
				<g>
					<polygon class="st3" points="211.39091,64 207.49092,70.8 214.29092,66.9 					"/>
				</g>
			</g>
		</g>
		<line class="st1" x1="92.49092" y1="200.8" x2="92.49092" y2="220.8"/>
		<line class="st1" x1="142.49092" y1="200.8" x2="142.49092" y2="220.8"/>
		<line class="st1" x1="192.49092" y1="200.8" x2="192.49092" y2="220.8"/>
		<line class="st1" x1="142.49092" y1="150.8" x2="142.49092" y2="170.8"/>
		<line class="st1" x1="192.49092" y1="150.8" x2="192.49092" y2="170.8"/>
		<line class="st1" x1="242.49092" y1="150.8" x2="242.49092" y2="170.8"/>
		<line class="st1" x1="192.49092" y1="100.8" x2="192.49092" y2="120.8"/>
		<line class="st1" x1="242.49092" y1="100.8" x2="242.49092" y2="120.8"/>
		<line class="st1" x1="292.49091" y1="100.8" x2="292.49091" y2="120.8"/>
		<line class="st1" x1="192.49092" y1="50.8" x2="192.49092" y2="70.8"/>
		<line class="st1" x1="242.49092" y1="50.8" x2="242.49092" y2="70.8"/>
		<line class="st1" x1="292.49091" y1="50.8" x2="292.49091" y2="70.8"/>
		<line class="st1" x1="342.49091" y1="50.8" x2="342.49091" y2="70.8"/>
		<line class="st0" x1="357.49091" y1="80.8" x2="377.49091" y2="80.8"/>
		<line class="st0" x1="357.49091" y1="90.8" x2="367.49091" y2="90.8"/>
		<line class="st0" x1="307.49091" y1="130.8" x2="327.49091" y2="130.8"/>
		<line class="st0" x1="307.49091" y1="140.8" x2="317.49091" y2="140.8"/>
		<g>
			<g>
				<line class="st1" x1="342.49091" y1="100.8" x2="342.49091" y2="264.60001"/>
				<g>
					<polygon class="st2" points="340.39093,263.20001 342.49091,270.79999 344.49091,263.20001 					"/>
				</g>
			</g>
		</g>
		<g>
			<g>
				<line class="st1" x1="292.49091" y1="150.8" x2="292.49091" y2="264.60001"/>
				<g>
					<polygon class="st2" points="290.39093,263.20001 292.49091,270.79999 294.49091,263.20001 					"/>
				</g>
			</g>
		</g>
		<g>
			<g>
				<line class="st1" x1="242.49092" y1="200.8" x2="242.49092" y2="264.60001"/>
				<g>
					<polygon class="st2" points="240.39091,263.20001 242.49092,270.79999 244.49092,263.20001 					"/>
				</g>
			</g>
		</g>
		<line class="st0" x1="257.49091" y1="180.8" x2="277.49091" y2="180.8"/>
		<line class="st0" x1="257.49091" y1="190.8" x2="267.49091" y2="190.8"/>
		<line class="st0" x1="207.49092" y1="230.8" x2="227.49092" y2="230.8"/>
		<line class="st0" x1="207.49092" y1="240.8" x2="217.49092" y2="240.8"/>
		<g>
			<polyline class="st0" points="340.49091,130.8 365.49091,130.8 415.49091,80.8 390.49091,80.8 			"/>
			<polyline class="st0" points="365.49091,130.8 315.49091,180.8 290.49091,180.8 			"/>
			<polyline class="st0" points="315.49091,180.8 265.49091,230.8 240.49092,230.8 			"/>
		</g>
		<line class="st0" x1="327.49091" y1="80.8" x2="307.49091" y2="80.8"/>
		<line class="st0" x1="327.49091" y1="90.8" x2="307.49091" y2="90.8"/>
		<line class="st0" x1="277.49091" y1="80.8" x2="257.49091" y2="80.8"/>
		<line class="st0" x1="277.49091" y1="90.8" x2="257.49091" y2="90.8"/>
		<line class="st0" x1="227.49092" y1="80.8" x2="207.49092" y2="80.8"/>
		<line class="st0" x1="227.49092" y1="90.8" x2="207.49092" y2="90.8"/>
		<line class="st0" x1="277.49091" y1="130.8" x2="257.49091" y2="130.8"/>
		<line class="st0" x1="277.49091" y1="140.8" x2="257.49091" y2="140.8"/>
		<line class="st0" x1="227.49092" y1="130.8" x2="207.49092" y2="130.8"/>
		<line class="st0" x1="227.49092" y1="140.8" x2="207.49092" y2="140.8"/>
		<line class="st0" x1="177.49092" y1="130.8" x2="157.49092" y2="130.8"/>
		<line class="st0" x1="177.49092" y1="140.8" x2="157.49092" y2="140.8"/>
		<line class="st0" x1="227.49092" y1="180.8" x2="207.49092" y2="180.8"/>
		<line class="st0" x1="227.49092" y1="190.8" x2="207.49092" y2="190.8"/>
		<line class="st0" x1="177.49092" y1="180.8" x2="157.49092" y2="180.8"/>
		<line class="st0" x1="177.49092" y1="190.8" x2="157.49092" y2="190.8"/>
		<line class="st0" x1="127.49092" y1="180.8" x2="107.49092" y2="180.8"/>
		<line class="st0" x1="127.49092" y1="190.8" x2="107.49092" y2="190.8"/>
		<line class="st0" x1="177.49092" y1="230.8" x2="157.49092" y2="230.8"/>
		<line class="st0" x1="177.49092" y1="240.8" x2="157.49092" y2="240.8"/>
		<line class="st0" x1="127.49092" y1="230.8" x2="107.49092" y2="230.8"/>
		<line class="st0" x1="127.49092" y1="240.8" x2="107.49092" y2="240.8"/>
		<line class="st0" x1="77.49092" y1="230.8" x2="57.49092" y2="230.8"/>
		<line class="st0" x1="77.49092" y1="240.8" x2="57.49092" y2="240.8"/>
		<g>
			<g>
				<polyline class="st1" points="177.49092,90.8 142.49092,90.8 142.49092,114.6 				"/>
				<g>
					<polygon class="st2" points="140.39091,113.2 142.49092,120.8 144.49092,113.2 					"/>
				</g>
			</g>
		</g>
		<g>
			<g>
				<polyline class="st1" points="127.49092,140.8 92.49092,140.8 92.49092,164.60001 				"/>
				<g>
					<polygon class="st2" points="90.39091,163.2 92.49092,170.8 94.49092,163.2 					"/>
				</g>
			</g>
		</g>
		<g>
			<g>
				<polyline class="st1" points="77.49092,190.8 42.49092,190.8 42.49092,214.60001 				"/>
				<g>
					<polygon class="st2" points="40.39092,213.2 42.49092,220.8 44.49092,213.2 					"/>
				</g>
			</g>
		</g>
		<g>
			<g>
				<polyline class="st1" points="27.49092,240.8 7.49092,240.8 7.49092,264.60001 				"/>
				<g>
					<polygon class="st2" points="5.39092,263.20001 7.49092,270.79999 9.49092,263.20001 					"/>
				</g>
			</g>
		</g>
		<g>
			<polyline class="st0" points="227.49092,33.8 227.49092,13.8 277.49091,13.8 277.49091,33.8 			"/>
			<polyline class="st0" points="277.49091,13.8 327.49091,13.8 327.49091,33.8 			"/>
			<polyline class="st0" points="327.49091,13.8 377.49091,13.8 377.49091,33.8 			"/>
		</g>
		<g>
			<g>
				<line class="st0" x1="177.49092" y1="80.8" x2="163.69092" y2="80.8"/>
				<g>
					<polygon class="st3" points="165.09091,78.8 157.49092,80.8 165.09091,82.9 					"/>
				</g>
			</g>
		</g>
		<g>
			<g>
				<line class="st0" x1="127.49092" y1="130.8" x2="113.69092" y2="130.8"/>
				<g>
					<polygon class="st3" points="115.09092,128.8 107.49092,130.8 115.09092,132.89999 					"/>
				</g>
			</g>
		</g>
		<g>
			<g>
				<line class="st0" x1="77.49092" y1="180.8" x2="63.69092" y2="180.8"/>
				<g>
					<polygon class="st3" points="65.09092,178.8 57.49092,180.8 65.09092,182.89999 					"/>
				</g>
			</g>
		</g>
		<g>
			<g>
				<line class="st0" x1="27.49092" y1="230.8" x2="13.69092" y2="230.8"/>
				<g>
					<polygon class="st3" points="15.09092,228.8 7.49092,230.8 15.09092,232.89999 					"/>
				</g>
			</g>
		</g>
	</g>
	<g>
		<rect x="177.49092" y="70.8" class="st0" width="30" height="30"/>
		<rect x="227.49092" y="70.8" class="st0" width="30" height="30"/>
		<rect x="277.49091" y="70.8" class="st0" width="30" height="30"/>
		<rect x="327.49091" y="70.8" class="st0" width="30" height="30"/>
		<rect x="127.49092" y="120.8" class="st0" width="30" height="30"/>
		<rect x="177.49092" y="120.8" class="st0" width="30" height="30"/>
		<rect x="227.49092" y="120.8" class="st0" width="30" height="30"/>
		<rect x="277.49091" y="120.8" class="st0" width="30" height="30"/>
		<rect x="77.49092" y="170.8" class="st0" width="30" height="30"/>
		<rect x="127.49092" y="170.8" class="st0" width="30" height="30"/>
		<rect x="177.49092" y="170.8" class="st0" width="30" height="30"/>
		<rect x="227.49092" y="170.8" class="st0" width="30" height="30"/>
		<rect x="27.49092" y="220.8" class="st0" width="30" height="30"/>
		<rect x="77.49092" y="220.8" class="st0" width="30" height="30"/>
		<rect x="127.49092" y="220.8" class="st0" width="30" height="30"/>
		<rect x="177.49092" y="220.8" class="st0" width="30" height="30"/>
	</g>
	<g id="Layer_3">
		<g>
			<path class="st3" d="M383.29092,84.9h-3.79999c-0.20001,0-0.29999,0-0.29999-0.1c0-0.2,0.10001-0.2,0.29999-0.2
				c0.70001,0,0.79999-0.1,0.89999-0.5l1.60001-6.6c0-0.1,0-0.1,0-0.2c0-0.2-0.29999-0.2-0.60001-0.2
				c-0.20001,0-0.29999,0-0.29999-0.1c0-0.2,0.10001-0.2,0.29999-0.2h3.60001c1.29999,0,2,0.8,2,1.6c0,1.1-1.10001,2-2.29999,2.3
				c0.89999,0.1,1.60001,0.7,1.60001,1.6C386.29092,83.5,384.89093,84.9,383.29092,84.9z M384.09091,80.8h-2.10001l-0.79999,3.4
				c0,0.2,0,0.2,0,0.2c0,0.1,0,0.1,0.39999,0.1h1.5c1.29999,0,2.29999-1.2,2.29999-2.4
				C385.29092,81.5,384.99091,80.8,384.09091,80.8z M384.79092,77.1h-1.39999c-0.39999,0-0.5,0-0.60001,0.5l-0.70001,3h1.60001
				c1.39999,0,2.29999-1.2,2.29999-2.3C385.99091,77.8,385.79092,77.1,384.79092,77.1z"/>
			<path class="st3" d="M389.49091,88.3c-0.20001,0.4-0.60001,0.8-1.20001,0.8c-0.39999,0-0.79999-0.2-1.10001-0.7
				c-0.29999-0.5-0.29999-1-0.29999-1.7c0-0.8,0.10001-1.2,0.29999-1.6c0.29999-0.6,0.79999-0.8,1.20001-0.8
				c0.29999,0,0.79999,0.2,1.10001,0.7c0.29999,0.5,0.29999,1.1,0.29999,1.7C389.69092,87.1,389.69092,87.8,389.49091,88.3z
				 M389.09091,85.2c-0.10001-0.6-0.5-0.8-0.79999-0.8s-0.70001,0.2-0.79999,0.7c-0.10001,0.4-0.10001,0.9-0.10001,1.5
				c0,0.5,0,1,0.10001,1.4c0.10001,0.8,0.60001,0.9,0.79999,0.9c0.20001,0,0.70001-0.1,0.79999-0.9
				c0.10001-0.4,0.10001-1,0.10001-1.4C389.19092,86.1,389.19092,85.6,389.09091,85.2z"/>
		</g>
		<g>
			<path class="st3" d="M374.49091,93.6c-0.29999,0.7-0.89999,1.3-2,1.3c-0.60001,0-1.5-0.3-1.89999-1.2
				c-0.39999-0.9-0.5-1.7-0.5-2.9c0-1.3,0.10001-2,0.5-2.8c0.39999-1,1.29999-1.3,2-1.3c0.60001,0,1.5,0.3,1.89999,1.3
				c0.39999,0.9,0.5,1.9,0.5,2.9C374.89093,91.5,374.89093,92.7,374.49091,93.6z M373.89093,88.3
				c-0.20001-1-0.89999-1.3-1.39999-1.3s-1.10001,0.4-1.29999,1.2c-0.20001,0.7-0.20001,1.6-0.20001,2.6c0,0.8,0,1.8,0.10001,2.5
				c0.20001,1.3,1,1.5,1.39999,1.5s1.20001-0.2,1.39999-1.5c0.10001-0.7,0.10001-1.6,0.10001-2.4
				C373.99091,89.9,373.99091,88.9,373.89093,88.3z"/>
		</g>
		<g>
			<path class="st3" d="M333.29092,134.89999h-3.79999c-0.20001,0-0.29999,0-0.29999-0.10001c0-0.2,0.10001-0.2,0.29999-0.2
				c0.70001,0,0.79999-0.10001,0.89999-0.5l1.60001-6.6c0-0.1,0-0.1,0-0.2c0-0.2-0.29999-0.2-0.60001-0.2
				c-0.20001,0-0.29999,0-0.29999-0.1c0-0.2,0.10001-0.2,0.29999-0.2h3.60001c1.29999,0,2,0.8,2,1.60001
				c0,1.10001-1.10001,2-2.29999,2.3c0.89999,0.10001,1.60001,0.7,1.60001,1.60001
				C336.29092,133.5,334.89093,134.89999,333.29092,134.89999z M334.09091,130.8h-2.10001L331.19092,134.2c0,0.2,0,0.2,0,0.2
				c0,0.10001,0,0.10001,0.39999,0.10001h1.5c1.29999,0,2.29999-1.2,2.29999-2.39999
				C335.29092,131.5,334.99091,130.8,334.09091,130.8z M334.79092,127.1h-1.39999c-0.39999,0-0.5,0-0.60001,0.5l-0.70001,3.00001
				h1.60001c1.39999,0,2.29999-1.2,2.29999-2.3C335.99091,127.8,335.79092,127.1,334.79092,127.1z"/>
			<path class="st3" d="M338.39093,138.89999c-0.20001,0-0.89999,0-1.10001,0v-0.2h0.20001c0.60001,0,0.60001-0.10001,0.60001-0.3
				v-3.60001c-0.39999,0.2-0.70001,0.2-0.89999,0.2v-0.2c0.70001,0,1.10001-0.3,1.20001-0.39999c0.10001,0,0.10001,0,0.10001,0.2
				v3.89999c0,0.3,0,0.3,0.60001,0.3h0.20001v0.2C339.29092,138.89999,338.59091,138.89999,338.39093,138.89999z"/>
		</g>
		<g>
			<path class="st3" d="M324.49091,143.60001c-0.29999,0.7-0.89999,1.3-2,1.3c-0.60001,0-1.5-0.3-1.89999-1.2s-0.5-1.7-0.5-2.89999
				c0-1.3,0.10001-2,0.5-2.8c0.39999-1,1.29999-1.3,2-1.3c0.60001,0,1.5,0.3,1.89999,1.3c0.39999,0.89999,0.5,1.89999,0.5,2.89999
				C324.89093,141.5,324.89093,142.7,324.49091,143.60001z M323.89093,138.3c-0.20001-1-0.89999-1.3-1.39999-1.3
				s-1.10001,0.39999-1.29999,1.2c-0.20001,0.7-0.20001,1.60001-0.20001,2.60001c0,0.8,0,1.8,0.10001,2.5
				c0.20001,1.3,1,1.5,1.39999,1.5s1.20001-0.2,1.39999-1.5c0.10001-0.7,0.10001-1.60001,0.10001-2.39999
				C323.99091,139.89999,323.99091,138.89999,323.89093,138.3z"/>
		</g>
		<g>
			<path class="st3" d="M274.49091,193.60001c-0.29999,0.7-0.89999,1.3-2,1.3c-0.60001,0-1.5-0.3-1.89999-1.2s-0.5-1.7-0.5-2.89999
				c0-1.3,0.10001-2,0.5-2.8c0.39999-1,1.29999-1.3,2-1.3c0.60001,0,1.5,0.3,1.89999,1.3c0.39999,0.89999,0.5,1.89999,0.5,2.89999
				C274.89093,191.5,274.89093,192.7,274.49091,193.60001z M273.89093,188.3c-0.20001-1-0.89999-1.3-1.39999-1.3
				s-1.10001,0.39999-1.29999,1.2c-0.20001,0.7-0.20001,1.60001-0.20001,2.60001c0,0.8,0,1.8,0.10001,2.5
				c0.20001,1.3,1,1.5,1.39999,1.5s1.20001-0.2,1.39999-1.5c0.10001-0.7,0.10001-1.60001,0.10001-2.39999
				C273.99091,189.89999,273.99091,188.89999,273.89093,188.3z"/>
		</g>
		<g>
			<path class="st3" d="M224.49092,243.60001c-0.3,0.7-0.89999,1.3-2,1.3c-0.60001,0-1.5-0.3-1.89999-1.2s-0.5-1.7-0.5-2.89999
				c0-1.3,0.10001-2,0.5-2.8c0.39999-1,1.3-1.3,2-1.3c0.60001,0,1.5,0.3,1.89999,1.3c0.39999,0.89999,0.5,1.89999,0.5,2.89999
				C224.89091,241.5,224.89091,242.7,224.49092,243.60001z M223.89091,238.3c-0.2-1-0.89999-1.3-1.39999-1.3
				s-1.10001,0.39999-1.3,1.2c-0.2,0.7-0.2,1.60001-0.2,2.60001c0,0.8,0,1.8,0.10001,2.5c0.2,1.3,1,1.5,1.39999,1.5
				s1.2-0.2,1.39999-1.5c0.10001-0.7,0.10001-1.60001,0.10001-2.39999C223.99092,239.89999,223.99092,238.89999,223.89091,238.3z"/>
		</g>
		<g>
			<path class="st2" d="M344.49091,45.6c-0.29999,0.7-0.89999,1.3-2,1.3c-0.60001,0-1.5-0.3-1.89999-1.2s-0.5-1.7-0.5-2.9
				c0-1.3,0.10001-2,0.5-2.8c0.39999-1,1.29999-1.3,2-1.3c0.60001,0,1.5,0.3,1.89999,1.3c0.39999,0.9,0.5,1.9,0.5,2.9
				C344.89093,43.5,344.89093,44.7,344.49091,45.6z M343.89093,40.3c-0.20001-1-0.89999-1.3-1.39999-1.3s-1.10001,0.4-1.29999,1.2
				c-0.20001,0.7-0.20001,1.6-0.20001,2.6c0,0.8,0,1.8,0.10001,2.5c0.20001,1.3,1,1.5,1.39999,1.5s1.20001-0.2,1.39999-1.5
				c0.10001-0.7,0.10001-1.6,0.10001-2.4C343.99091,41.9,343.99091,40.9,343.89093,40.3z"/>
		</g>
		<g>
			<path class="st3" d="M379.19092,46.4c-0.39999,0-0.79999,0-1.20001,0c-0.39999,0-0.79999,0-1.20001,0c0,0-0.20001,0-0.20001-0.1
				c0-0.2,0.10001-0.2,0.29999-0.2c0.70001,0,0.70001-0.3,0.70001-0.5l-0.10001-1.9h-2.79999l-0.89999,1.5
				c-0.10001,0.2-0.20001,0.3-0.20001,0.5s0.20001,0.4,0.5,0.4c0.10001,0,0.20001,0,0.20001,0.1c0,0.2-0.10001,0.2-0.20001,0.2
				c-0.29999,0-0.70001,0-1,0s-0.60001,0-0.89999,0c0,0-0.10001,0-0.10001-0.1c0-0.2,0.10001-0.2,0.20001-0.2
				c0.60001-0.1,0.89999-0.3,1.29999-1l4-7c0.10001-0.1,0.10001-0.2,0.29999-0.2s0.20001,0,0.20001,0.3l0.5,7.5
				c0,0.3,0.10001,0.4,0.70001,0.4c0.20001,0,0.20001,0,0.20001,0.1C379.49091,46.4,379.29092,46.4,379.19092,46.4z M377.19092,39.3
				l-2.29999,4h2.60001L377.19092,39.3z"/>
			<path class="st3" d="M382.89093,49.8c-0.20001,0.4-0.60001,0.8-1.20001,0.8c-0.39999,0-0.79999-0.2-1.10001-0.7
				c-0.29999-0.5-0.29999-1-0.29999-1.7c0-0.8,0.10001-1.2,0.29999-1.6c0.29999-0.6,0.79999-0.8,1.20001-0.8
				c0.29999,0,0.79999,0.2,1.10001,0.7c0.29999,0.5,0.29999,1.1,0.29999,1.7C383.19092,48.6,383.19092,49.3,382.89093,49.8z
				 M382.59091,46.7c-0.10001-0.6-0.5-0.8-0.79999-0.8s-0.70001,0.2-0.79999,0.7c-0.10001,0.4-0.10001,0.9-0.10001,1.5
				c0,0.5,0,1,0.10001,1.4c0.10001,0.8,0.60001,0.9,0.79999,0.9c0.20001,0,0.70001-0.1,0.79999-0.9
				c0.10001-0.4,0.10001-1,0.10001-1.4C382.69092,47.6,382.69092,47.1,382.59091,46.7z"/>
		</g>
		<g>
			<path class="st3" d="M329.19092,46.4c-0.39999,0-0.79999,0-1.20001,0c-0.39999,0-0.79999,0-1.20001,0c0,0-0.20001,0-0.20001-0.1
				c0-0.2,0.10001-0.2,0.29999-0.2c0.70001,0,0.70001-0.3,0.70001-0.5l-0.10001-1.9h-2.79999l-0.89999,1.5
				c-0.10001,0.2-0.20001,0.3-0.20001,0.5s0.20001,0.4,0.5,0.4c0.10001,0,0.20001,0,0.20001,0.1c0,0.2-0.10001,0.2-0.20001,0.2
				c-0.29999,0-0.70001,0-1,0s-0.60001,0-0.89999,0c0,0-0.10001,0-0.10001-0.1c0-0.2,0.10001-0.2,0.20001-0.2
				c0.60001-0.1,0.89999-0.3,1.29999-1l4-7c0.10001-0.1,0.10001-0.2,0.29999-0.2s0.20001,0,0.20001,0.3l0.5,7.5
				c0,0.3,0.10001,0.4,0.70001,0.4c0.20001,0,0.20001,0,0.20001,0.1C329.49091,46.4,329.29092,46.4,329.19092,46.4z M327.19092,39.3
				l-2.29999,4h2.60001L327.19092,39.3z"/>
			<path class="st3" d="M331.79092,50.4c-0.20001,0-0.89999,0-1.10001,0v-0.2h0.20001c0.60001,0,0.60001-0.1,0.60001-0.3v-3.6
				c-0.39999,0.2-0.70001,0.2-0.89999,0.2v-0.2c0.70001,0,1.10001-0.3,1.20001-0.4c0.10001,0,0.10001,0,0.10001,0.2V50
				c0,0.3,0,0.3,0.60001,0.3h0.20001v0.2C332.69092,50.4,332.09091,50.4,331.79092,50.4z"/>
		</g>
		<g>
			<path class="st2" d="M294.49091,45.6c-0.29999,0.7-0.89999,1.3-2,1.3c-0.60001,0-1.5-0.3-1.89999-1.2s-0.5-1.7-0.5-2.9
				c0-1.3,0.10001-2,0.5-2.8c0.39999-1,1.29999-1.3,2-1.3c0.60001,0,1.5,0.3,1.89999,1.3c0.39999,0.9,0.5,1.9,0.5,2.9
				C294.89093,43.5,294.89093,44.7,294.49091,45.6z M293.89093,40.3c-0.20001-1-0.89999-1.3-1.39999-1.3s-1.10001,0.4-1.29999,1.2
				c-0.20001,0.7-0.20001,1.6-0.20001,2.6c0,0.8,0,1.8,0.10001,2.5c0.20001,1.3,1,1.5,1.39999,1.5s1.20001-0.2,1.39999-1.5
				c0.10001-0.7,0.10001-1.6,0.10001-2.4C293.99091,41.9,293.99091,40.9,293.89093,40.3z"/>
		</g>
		<g>
			<path class="st2" d="M244.49092,45.6c-0.3,0.7-0.89999,1.3-2,1.3c-0.60001,0-1.5-0.3-1.89999-1.2s-0.5-1.7-0.5-2.9
				c0-1.3,0.10001-2,0.5-2.8c0.39999-1,1.3-1.3,2-1.3c0.60001,0,1.5,0.3,1.89999,1.3c0.39999,0.9,0.5,1.9,0.5,2.9
				C244.89091,43.5,244.89091,44.7,244.49092,45.6z M243.89091,40.3c-0.2-1-0.89999-1.3-1.39999-1.3s-1.10001,0.4-1.3,1.2
				c-0.2,0.7-0.2,1.6-0.2,2.6c0,0.8,0,1.8,0.10001,2.5c0.2,1.3,1,1.5,1.39999,1.5s1.2-0.2,1.39999-1.5
				c0.10001-0.7,0.10001-1.6,0.10001-2.4C243.99092,41.9,243.99092,40.9,243.89091,40.3z"/>
		</g>
		<g>
			<path class="st2" d="M194.49092,45.6c-0.3,0.7-0.89999,1.3-2,1.3c-0.60001,0-1.5-0.3-1.89999-1.2s-0.5-1.7-0.5-2.9
				c0-1.3,0.10001-2,0.5-2.8c0.39999-1,1.3-1.3,2-1.3c0.60001,0,1.5,0.3,1.89999,1.3c0.39999,0.9,0.5,1.9,0.5,2.9
				C194.89091,43.5,194.89091,44.7,194.49092,45.6z M193.89091,40.3c-0.2-1-0.89999-1.3-1.39999-1.3s-1.10001,0.4-1.3,1.2
				c-0.2,0.7-0.2,1.6-0.2,2.6c0,0.8,0,1.8,0.10001,2.5c0.2,1.3,1,1.5,1.39999,1.5s1.2-0.2,1.39999-1.5
				c0.10001-0.7,0.10001-1.6,0.10001-2.4C193.99092,41.9,193.99092,40.9,193.89091,40.3z"/>
		</g>
		<g>
			<path class="st3" d="M360.39093,163.8c-0.29999,0-1.29999,0-1.60001,0v-0.3h0.20001c0.89999,0,0.89999-0.10001,0.89999-0.60001
				V156l0,0l-2.89999,7.60001c-0.10001,0.2-0.10001,0.2-0.20001,0.2s-0.20001-0.10001-0.20001-0.2L353.69092,156l0,0v6.5
				c0,0.3,0,0.89999,1.10001,0.89999v0.3c-0.29999,0-0.89999,0-1.29999,0c-0.29999,0-1,0-1.29999,0v-0.3
				c1.10001,0,1.10001-0.60001,1.10001-0.89999v-6c0-0.39999,0-0.60001-0.89999-0.60001h-0.20001v-0.3h1.89999
				c0.29999,0,0.29999,0,0.39999,0.2l2.60001,6.8l2.60001-6.8c0.10001-0.2,0.10001-0.2,0.39999-0.2h1.89999v0.3h-0.20001
				c-0.89999,0-0.89999,0.10001-0.89999,0.60001v6.39999c0,0.39999,0,0.60001,0.89999,0.60001h0.20001v0.3
				C361.69092,163.8,360.79092,163.8,360.39093,163.8z"/>
			<path class="st3" d="M367.09091,163.89999v-1.10001c0,0-0.20001,0.5-0.5,0.7c-0.39999,0.3-0.79999,0.3-1,0.3
				c-0.60001,0-1.10001-0.10001-1.39999-0.5c-0.39999-0.39999-0.39999-0.8-0.39999-1.60001v-1.8
				c0-1.10001,0-1.10001-0.89999-1.10001v-0.3l1.70001-0.10001v4c0,0.60001,0.10001,1.2,1,1.2s1.39999-0.89999,1.39999-1.89999
				v-2.10001c0-0.60001-0.10001-0.7-0.89999-0.7v-0.3l1.70001-0.10001v4.3c0,0.60001,0.10001,0.7,0.89999,0.7v0.3
				L367.09091,163.89999z"/>
			<path class="st3" d="M370.69092,163.8c-0.39999,0-0.89999,0-1.29999,0v-0.3c0.79999,0,0.89999,0,0.89999-0.5v-6.3
				c0-0.60001-0.10001-0.7-0.89999-0.7v-0.3l1.70001-0.10001v7.39999c0,0.5,0.10001,0.5,0.89999,0.5v0.3
				C371.69092,163.8,371.09091,163.8,370.69092,163.8z"/>
			<path class="st3" d="M375.09091,163.89999c-0.60001,0-1.5-0.3-1.5-1.60001V159h-1v-0.2c1.10001,0,1.5-1.2,1.5-2.3h0.29999v2.2
				h1.70001v0.3h-1.70001v3.39999c0,0.2,0,1.3,0.79999,1.3c0.5,0,0.79999-0.5,0.79999-1.39999v-0.7h0.29999v0.7
				C376.19092,163.2,375.79092,163.89999,375.09091,163.89999z"/>
			<path class="st3" d="M378.59091,163.8c-0.29999,0-0.89999,0-1.29999,0v-0.3c0.79999,0,0.89999,0,0.89999-0.5v-3.3
				c0-0.60001-0.10001-0.7-0.89999-0.7v-0.3l1.60001-0.10001v4.39999c0,0.5,0,0.5,0.79999,0.5v0.3
				C379.39093,163.8,378.69092,163.8,378.59091,163.8z M378.49091,157.10001c-0.29999,0-0.60001-0.3-0.60001-0.60001
				s0.29999-0.60001,0.60001-0.60001c0.29999,0,0.60001,0.2,0.60001,0.60001
				C379.09091,156.89999,378.89093,157.10001,378.49091,157.10001z"/>
			<path class="st3" d="M383.69092,163.89999c-0.79999,0-1.29999-0.5-1.5-0.8V165.2c0,0.5,0.10001,0.5,0.89999,0.5v0.3
				c-0.29999,0-1,0-1.29999,0s-1,0-1.29999,0v-0.3c0.79999,0,0.89999,0,0.89999-0.5v-5.60001c0-0.5-0.10001-0.60001-0.89999-0.60001
				v-0.3l1.70001-0.10001v0.8c0,0,0.60001-0.8,1.70001-0.8c1.29999,0,2.39999,1.2,2.39999,2.7
				C386.29092,162.8,384.99091,163.89999,383.69092,163.89999z M383.69092,158.8c-0.5,0-1,0.2-1.39999,0.8
				c-0.10001,0.2-0.10001,0.2-0.10001,0.39999v2.5c0,0.3,0.20001,0.60001,0.5,0.89999c0.20001,0.2,0.60001,0.39999,1,0.39999
				c0.89999,0,1.70001-1,1.70001-2.5C385.29092,159.89999,384.59091,158.8,383.69092,158.8z"/>
			<path class="st3" d="M388.39093,163.8c-0.39999,0-0.89999,0-1.29999,0v-0.3c0.79999,0,0.89999,0,0.89999-0.5v-6.3
				c0-0.60001-0.10001-0.7-0.89999-0.7v-0.3l1.70001-0.10001v7.39999c0,0.5,0.10001,0.5,0.89999,0.5v0.3
				C389.29092,163.8,388.69092,163.8,388.39093,163.8z"/>
			<path class="st3" d="M391.59091,163.8c-0.29999,0-0.89999,0-1.29999,0v-0.3c0.79999,0,0.89999,0,0.89999-0.5v-3.3
				c0-0.60001-0.10001-0.7-0.89999-0.7v-0.3l1.60001-0.10001v4.39999c0,0.5,0,0.5,0.79999,0.5v0.3
				C392.39093,163.8,391.69092,163.8,391.59091,163.8z M391.59091,157.10001c-0.29999,0-0.60001-0.3-0.60001-0.60001
				s0.29999-0.60001,0.60001-0.60001c0.29999,0,0.60001,0.2,0.60001,0.60001
				C392.19092,156.89999,391.89093,157.10001,391.59091,157.10001z"/>
			<path class="st3" d="M396.09091,163.89999c-1.29999,0-2.60001-1.2-2.60001-2.7s1.10001-2.7,2.39999-2.7
				c1.5,0,2.10001,1.10001,2.10001,2.3c0,0.2,0,0.2-0.29999,0.2h-3.29999v0.2c0,2.10001,1.20001,2.39999,1.70001,2.39999
				s1.29999-0.3,1.60001-1.3c0-0.10001,0-0.10001,0.10001-0.10001s0.10001,0,0.10001,0.10001
				C398.09091,162.60001,397.59091,163.89999,396.09091,163.89999z M395.99091,158.7c-0.29999,0-1.39999,0.2-1.5,2.10001h2.89999
				C397.29092,160.39999,397.29092,158.7,395.99091,158.7z"/>
			<path class="st3" d="M402.19092,159.7c-0.20001,0-0.5-0.10001-0.5-0.5c0-0.3,0.20001-0.39999,0.29999-0.39999
				c0,0-0.10001,0-0.20001,0c-0.89999,0-1.39999,1.10001-1.39999,2.3V163c0,0.39999,0,0.60001,0.89999,0.60001h0.20001v0.3
				c-0.29999,0-1.10001,0-1.5,0s-1,0-1.39999,0v-0.3c0.79999,0,0.89999,0,0.89999-0.5v-3.3c0-0.60001-0.10001-0.7-0.89999-0.7v-0.3
				l1.60001-0.10001v1.3l0,0c0.10001-0.2,0.39999-1.3,1.39999-1.3c0.5,0,0.79999,0.3,0.79999,0.7
				C402.69092,159.5,402.39093,159.7,402.19092,159.7z"/>
		</g>
		<g>
			<path class="st3" d="M278.19092,8.3c-0.29999,0-1.29999,0-1.60001,0V8h0.20001c0.89999,0,0.89999-0.1,0.89999-0.6V0.5l0,0
				l-2.89999,7.6c-0.10001,0.2-0.10001,0.2-0.20001,0.2s-0.20001-0.1-0.20001-0.2l-2.89999-7.6l0,0V7c0,0.3,0,0.9,1.10001,0.9v0.3
				c-0.29999,0-0.89999,0-1.29999,0c-0.29999,0-1,0-1.29999,0V8c1.10001,0,1.10001-0.6,1.10001-0.9V1c0-0.4,0-0.6-0.89999-0.6
				h-0.20001V0.1h1.89999c0.29999,0,0.29999,0,0.39999,0.2l2.60001,6.8l2.60001-6.8c0.10001-0.2,0.10001-0.2,0.39999-0.2h1.89999
				v0.3h-0.20001c-0.89999,0-0.89999,0.1-0.89999,0.6v6.4c0,0.4,0,0.6,0.89999,0.6h0.20001v0.3
				C279.49091,8.3,278.59091,8.3,278.19092,8.3z"/>
			<path class="st3" d="M284.89093,8.4v-1c0,0-0.20001,0.5-0.5,0.7c-0.39999,0.3-0.79999,0.3-1,0.3
				c-0.60001,0-1.10001-0.1-1.39999-0.5c-0.39999-0.4-0.39999-0.8-0.39999-1.6V4.6c0-1.1,0-1.1-0.89999-1.1V3.2l1.70001-0.1v4
				c0,0.6,0.10001,1.2,1,1.2s1.39999-0.9,1.39999-1.9V4.2c0-0.6-0.10001-0.7-0.89999-0.7V3.2l1.70001-0.1v4.3
				c0,0.6,0.10001,0.7,0.89999,0.7v0.3L284.89093,8.4z"/>
			<path class="st3" d="M288.59091,8.3c-0.39999,0-0.89999,0-1.29999,0V8c0.79999,0,0.89999,0,0.89999-0.5V1.2
				c0-0.6-0.10001-0.7-0.89999-0.7V0.1l1.70001-0.1v7.4c0,0.5,0.10001,0.5,0.89999,0.5v0.3
				C289.49091,8.3,288.89093,8.3,288.59091,8.3z"/>
			<path class="st3" d="M292.89093,8.4c-0.60001,0-1.5-0.3-1.5-1.6V3.5h-1V3.3c1.10001,0,1.5-1.2,1.5-2.3h0.29999v2.2h1.70001v0.3
				h-1.70001v3.4c0,0.2,0,1.3,0.79999,1.3c0.5,0,0.79999-0.5,0.79999-1.4V6.2h0.29999v0.7
				C294.09091,7.7,293.69092,8.4,292.89093,8.4z"/>
			<path class="st3" d="M296.39093,8.3c-0.29999,0-0.89999,0-1.29999,0V8c0.79999,0,0.89999,0,0.89999-0.5V4.2
				c0-0.6-0.10001-0.7-0.89999-0.7V3.2l1.60001-0.1v4.4c0,0.5,0,0.5,0.79999,0.5v0.3C297.19092,8.3,296.49091,8.3,296.39093,8.3z
				 M296.39093,1.7c-0.29999,0-0.60001-0.3-0.60001-0.6s0.29999-0.6,0.60001-0.6c0.29999,0,0.60001,0.2,0.60001,0.6
				C296.89093,1.4,296.69092,1.7,296.39093,1.7z"/>
			<path class="st3" d="M301.49091,8.4c-0.79999,0-1.29999-0.5-1.5-0.8v2.1c0,0.5,0.10001,0.5,0.89999,0.5v0.3
				c-0.29999,0-1,0-1.29999,0s-1,0-1.29999,0v-0.3c0.79999,0,0.89999,0,0.89999-0.5V4.1c0-0.5-0.10001-0.6-0.89999-0.6V3.2
				l1.70001-0.1v0.8c0,0,0.60001-0.8,1.70001-0.8c1.29999,0,2.39999,1.2,2.39999,2.7C304.09091,7.3,302.89093,8.4,301.49091,8.4z
				 M301.49091,3.3c-0.5,0-1,0.2-1.39999,0.8c-0.10001,0.2-0.10001,0.2-0.10001,0.4V7c0,0.3,0.20001,0.6,0.5,0.9
				c0.20001,0.2,0.60001,0.4,1,0.4c0.89999,0,1.70001-1,1.70001-2.5C303.19092,4.4,302.39093,3.3,301.49091,3.3z"/>
			<path class="st3" d="M306.19092,8.3c-0.39999,0-0.89999,0-1.29999,0V8c0.79999,0,0.89999,0,0.89999-0.5V1.2
				c0-0.6-0.10001-0.7-0.89999-0.7V0.1l1.70001-0.1v7.4c0,0.5,0.10001,0.5,0.89999,0.5v0.3
				C307.19092,8.3,306.59091,8.3,306.19092,8.3z"/>
			<path class="st3" d="M309.39093,8.3c-0.29999,0-0.89999,0-1.29999,0V8c0.79999,0,0.89999,0,0.89999-0.5V4.2
				c0-0.6-0.10001-0.7-0.89999-0.7V3.2l1.60001-0.1v4.4c0,0.5,0,0.5,0.79999,0.5v0.3C310.29092,8.3,309.59091,8.3,309.39093,8.3z
				 M309.39093,1.7c-0.29999,0-0.60001-0.3-0.60001-0.6s0.29999-0.6,0.60001-0.6c0.29999,0,0.60001,0.2,0.60001,0.6
				C309.99091,1.4,309.79092,1.7,309.39093,1.7z"/>
			<path class="st3" d="M313.99091,8.4c-1.39999,0-2.5-1.2-2.5-2.7s1.10001-2.8,2.5-2.8c1,0,1.79999,0.6,1.79999,1.4
				c0,0.3-0.20001,0.5-0.5,0.5s-0.5-0.2-0.5-0.5c0-0.5,0.39999-0.5,0.60001-0.5c-0.29999-0.5-0.89999-0.6-1.39999-0.6
				c-0.60001,0-1.60001,0.5-1.60001,2.5c0,1.8,1,2.5,1.70001,2.5c0.60001,0,1.29999-0.4,1.60001-1.2c0-0.1,0-0.2,0.20001-0.2
				c0,0,0.10001,0,0.10001,0.1S315.59091,8.4,313.99091,8.4z"/>
			<path class="st3" d="M320.99091,8.4c-0.5,0-0.89999-0.4-0.89999-1c-0.20001,0.6-0.79999,1.1-1.60001,1.1
				c-0.70001,0-1.79999-0.3-1.79999-1.2s0.89999-1.9,3.29999-2V4.7c0-1.1-0.70001-1.5-1.29999-1.5c-0.5,0-1.10001,0.2-1.29999,0.7
				c0.20001,0,0.60001,0,0.60001,0.5c0,0.3-0.20001,0.5-0.5,0.5s-0.5-0.2-0.5-0.5c0-0.8,0.79999-1.4,1.70001-1.4
				c0.5,0,1.10001,0.2,1.5,0.6c0.5,0.5,0.5,0.9,0.5,1.6v2.1c0,0.2,0,0.8,0.5,0.8c0.20001,0,0.5-0.1,0.5-0.8V6.6h0.29999v0.7
				C321.89093,8.2,321.19092,8.4,320.99091,8.4z M319.99091,5.4c-0.39999,0-2.5,0.2-2.5,1.8c0,0.6,0.5,1,1.10001,1
				c0.5,0,1.39999-0.4,1.39999-1.6V5.4z"/>
			<path class="st3" d="M327.09091,8.3c-0.29999,0-1,0-1.29999,0V8c0.79999,0,0.89999,0,0.89999-0.5V4.6
				c0-0.7-0.20001-1.3-0.89999-1.3c-0.70001,0-1.60001,0.7-1.60001,1.9v2.2c0,0.5,0.10001,0.5,0.89999,0.5v0.3
				c-0.29999,0-1,0-1.29999,0s-1,0-1.29999,0V8c0.79999,0,0.89999,0,0.89999-0.5V4.2c0-0.6-0.10001-0.7-0.89999-0.7V3.2l1.69998-0.2
				v1.2l0,0c0.10001-0.2,0.60001-1.2,1.70001-1.2c0.39999,0,1,0.1,1.29999,0.5s0.29999,0.7,0.29999,1.8v2.2
				c0,0.4,0.29999,0.4,0.89999,0.4v0.3C328.09091,8.3,327.39093,8.3,327.09091,8.3z"/>
			<path class="st3" d="M333.19092,8.4V7.6c-0.20001,0.2-0.70001,0.8-1.60001,0.8c-1.29999,0-2.5-1.2-2.5-2.7
				s1.20001-2.7,2.60001-2.7c0.70001,0,1.20001,0.4,1.5,0.8V1.2c0-0.6-0.10001-0.7-0.89999-0.7V0.1l1.70001-0.1v7.3
				c0,0.6,0.10001,0.7,0.89999,0.7v0.3L333.19092,8.4z M333.19092,4.4c0-0.2,0-0.2-0.10001-0.4c-0.10001-0.2-0.5-0.7-1.29999-0.7
				c-0.60001,0-1.10001,0.4-1.29999,0.7c-0.29999,0.4-0.39999,0.9-0.39999,1.7c0,2.3,1.29999,2.4,1.60001,2.4
				c0.60001,0,1.10001-0.3,1.39999-0.8c0.20001-0.3,0.20001-0.3,0.20001-0.5V4.4H333.19092z"/>
		</g>
		<g>
			<path class="st2" d="M117.39091,91h-1.8l-0.8,3.1v0.2c0,0.1,0,0.2,0.7,0.2c0.2,0,0.3,0,0.3,0.1c0,0.2-0.1,0.2-0.2,0.2
				c-0.4,0-0.9,0-1.3,0s-0.9,0-1.3,0c0,0-0.2,0-0.2-0.1c0-0.2,0.1-0.2,0.3-0.2c0.7,0,0.8-0.1,0.9-0.5l1.6-6.6c0-0.1,0-0.1,0-0.2
				c0-0.2-0.3-0.2-0.6-0.2c-0.2,0-0.3,0-0.3-0.1c0-0.2,0.1-0.2,0.3-0.2h3.4c1.3,0,2.1,0.8,2.1,1.8
				C120.49092,89.8,118.89091,91,117.39091,91z M118.09092,87h-1c-0.4,0-0.5,0-0.6,0.5l-0.8,3.3h1.5c1.1,0,1.6-0.6,1.7-0.6
				c0.6-0.7,0.7-1.8,0.7-2C119.49092,87.4,118.99092,87,118.09092,87z"/>
			<path class="st2" d="M125.29092,91h-1.8l-0.8,3.1v0.2c0,0.1,0,0.2,0.7,0.2c0.2,0,0.3,0,0.3,0.1c0,0.2-0.1,0.2-0.2,0.2
				c-0.4,0-0.9,0-1.3,0s-0.9,0-1.3,0c0,0-0.2,0-0.2-0.1c0-0.2,0.1-0.2,0.3-0.2c0.7,0,0.8-0.1,0.9-0.5l1.6-6.6c0-0.1,0-0.1,0-0.2
				c0-0.2-0.3-0.2-0.6-0.2c-0.2,0-0.3,0-0.3-0.1c0-0.2,0.1-0.2,0.3-0.2h3.4c1.3,0,2.1,0.8,2.1,1.8
				C128.39091,89.8,126.79092,91,125.29092,91z M125.99092,87h-1c-0.4,0-0.5,0-0.6,0.5l-0.8,3.3h1.5c1.1,0,1.6-0.6,1.7-0.6
				c0.6-0.7,0.7-1.8,0.7-2C127.49092,87.4,126.99092,87,125.99092,87z"/>
			<path class="st2" d="M131.29092,95.1c-0.89999,0-1.5-0.4-1.8-0.9l-0.5,0.7c-0.09999,0.1-0.09999,0.2-0.2,0.2
				c0,0-0.10001,0-0.10001-0.1c0,0,0-0.1,0-0.2l0.60001-2.5c0-0.2,0.10001-0.2,0.2-0.2s0.2,0,0.2,0.1v0.1
				c-0.10001,0.3-0.10001,0.6-0.10001,0.7c0,1.2,0.90001,1.7,1.8,1.7c1.10001,0,2-1.2,2-2.3c0-0.5-0.2-1-0.7-1.2l-0.7-0.2
				c-0.8-0.2-1-0.3-1.3-0.6c-0.39999-0.5-0.5-1-0.5-1.2c0-1.4,1.3-2.8,2.7-2.8c0.2,0,1.10001,0,1.5,0.9l0.5-0.7
				c0.10001-0.1,0.10001-0.1,0.2-0.1c0,0,0.10001,0,0.10001,0.1c0,0,0,0.1,0,0.2l-0.60001,2.5c0,0.2-0.10001,0.2-0.2,0.2
				c-0.10001,0-0.2,0-0.2-0.1c0,0,0,0,0-0.1c0-0.3,0-0.6,0-0.7c0-0.4,0-1.7-1.39999-1.7c-1,0-2,1-2,2.1
				c0,0.9,0.60001,1.1,0.89999,1.2l1.2,0.3c0.60001,0.2,1.10001,0.7,1.10001,1.7C134.09091,93.5,132.79092,95.1,131.29092,95.1z"/>
			<path class="st2" d="M137.29092,98.2c-0.2,0.4-0.60001,0.8-1.2,0.8c-0.39999,0-0.8-0.2-1.10001-0.7s-0.3-1-0.3-1.7
				c0-0.8,0.10001-1.2,0.3-1.6c0.3-0.6,0.8-0.8,1.2-0.8c0.3,0,0.8,0.2,1.10001,0.7s0.3,1.1,0.3,1.7
				C137.49092,97,137.49092,97.7,137.29092,98.2z M136.89091,95.1c-0.10001-0.6-0.5-0.8-0.8-0.8s-0.7,0.2-0.8,0.7
				c-0.10001,0.4-0.10001,0.9-0.10001,1.5c0,0.5,0,1,0.10001,1.4c0.10001,0.8,0.60001,0.9,0.8,0.9s0.7-0.1,0.8-0.9
				c0.10001-0.4,0.10001-1,0.10001-1.4C136.99092,96,136.99092,95.5,136.89091,95.1z"/>
		</g>
		<g>
			<path class="st2" d="M67.39091,141h-1.8l-0.8,3.10001v0.2c0,0.10001,0,0.2,0.7,0.2c0.2,0,0.3,0,0.3,0.10001
				c0,0.2-0.1,0.2-0.2,0.2c-0.39999,0-0.89999,0-1.3,0s-0.9,0-1.3,0c0,0-0.2,0-0.2-0.10001c0-0.2,0.1-0.2,0.3-0.2
				c0.7,0,0.8-0.10001,0.9-0.5l1.59999-6.60001c0-0.10001,0-0.10001,0-0.2c0-0.2-0.3-0.2-0.59999-0.2c-0.2,0-0.3,0-0.3-0.10001
				c0-0.2,0.1-0.2,0.3-0.2h3.39999c1.3,0,2.1,0.8,2.1,1.8C70.49092,139.8,68.89091,141,67.39091,141z M68.09092,137h-1
				c-0.4,0-0.5,0-0.6,0.5l-0.8,3.3h1.5c1.1,0,1.6-0.60001,1.7-0.60001c0.6-0.7,0.7-1.8,0.7-2
				C69.49092,137.39999,68.99092,137,68.09092,137z"/>
			<path class="st2" d="M75.29092,141h-1.8l-0.8,3.10001v0.2c0,0.10001,0,0.2,0.7,0.2c0.2,0,0.3,0,0.3,0.10001
				c0,0.2-0.1,0.2-0.2,0.2c-0.4,0-0.9,0-1.3,0s-0.9,0-1.3,0c0,0-0.2,0-0.2-0.10001c0-0.2,0.1-0.2,0.3-0.2c0.7,0,0.8-0.10001,0.9-0.5
				l1.6-6.60001c0-0.10001,0-0.10001,0-0.2c0-0.2-0.3-0.2-0.6-0.2c-0.2,0-0.3,0-0.3-0.10001c0-0.2,0.1-0.2,0.3-0.2h3.4
				c1.3,0,2.1,0.8,2.1,1.8C78.39091,139.8,76.79092,141,75.29092,141z M75.99092,137h-1c-0.4,0-0.5,0-0.6,0.5l-0.8,3.3h1.5
				c1.1,0,1.6-0.60001,1.7-0.60001c0.6-0.7,0.7-1.8,0.7-2C77.49092,137.39999,76.99092,137,75.99092,137z"/>
			<path class="st2" d="M81.29092,145.10001c-0.9,0-1.5-0.39999-1.8-0.89999l-0.5,0.7c-0.1,0.10001-0.1,0.2-0.2,0.2
				c0,0-0.1,0-0.1-0.10001c0,0,0-0.10001,0-0.2l0.6-2.5c0-0.2,0.1-0.2,0.2-0.2s0.2,0,0.2,0.10001v0.10001
				c-0.1,0.3-0.1,0.60001-0.1,0.7c0,1.2,0.9,1.7,1.8,1.7c1.1,0,2-1.2,2-2.3c0-0.5-0.2-1-0.7-1.2l-0.7-0.2
				c-0.8-0.2-1-0.3-1.3-0.60001c-0.4-0.5-0.5-1-0.5-1.2c0-1.39999,1.3-2.8,2.7-2.8c0.2,0,1.1,0,1.5,0.89999l0.5-0.7
				c0.1-0.10001,0.1-0.10001,0.2-0.10001c0,0,0.1,0,0.1,0.10001c0,0,0,0.10001,0,0.2l-0.6,2.5c0,0.2-0.1,0.2-0.2,0.2
				s-0.2,0-0.2-0.10001c0,0,0,0,0-0.10001c0-0.3,0-0.60001,0-0.7c0-0.39999,0-1.7-1.4-1.7c-1,0-2,1-2,2.10001
				c0,0.89999,0.6,1.10001,0.9,1.2l1.2,0.3c0.6,0.2,1.1,0.7,1.1,1.7C84.09092,143.5,82.79092,145.10001,81.29092,145.10001z"/>
			<path class="st2" d="M86.19092,148.8c-0.2,0-0.9,0-1.1,0v-0.2h0.2c0.6,0,0.6-0.10001,0.6-0.3V144.7c-0.4,0.2-0.7,0.2-0.9,0.2
				v-0.2c0.7,0,1.1-0.3,1.2-0.39999c0.1,0,0.1,0,0.1,0.2v3.89999c0,0.3,0,0.3,0.6,0.3h0.2v0.2
				C87.09092,148.8,86.39091,148.8,86.19092,148.8z"/>
		</g>
		<g>
			<path class="st3" d="M282.90771,184.90039h-3.80176c-0.19141,0-0.28809,0-0.28809-0.12012
				c0-0.22754,0.1084-0.22754,0.32422-0.22754c0.73145,0,0.80371-0.0957,0.91113-0.51563l1.64355-6.6084
				c0.02344-0.07227,0.02344-0.1084,0.02344-0.17969c0-0.19238-0.33496-0.19238-0.63477-0.19238c-0.22852,0-0.3125,0-0.3125-0.12012
				c0-0.22754,0.1084-0.22754,0.32422-0.22754h3.56152c1.30762,0,1.96777,0.7793,1.96777,1.61914
				c0,1.05566-1.05566,2.03906-2.33887,2.29102c0.93555,0.11914,1.64258,0.70703,1.64258,1.64258
				C285.93018,183.5332,284.55127,184.90039,282.90771,184.90039z M283.74756,180.7627h-2.05078l-0.83984,3.40625
				c-0.04785,0.16797-0.04785,0.19141-0.04785,0.23926c0,0.13281,0.01172,0.14453,0.36035,0.14453h1.47461
				c1.27148,0,2.30273-1.17578,2.30273-2.43457C284.94678,181.50586,284.68311,180.7627,283.74756,180.7627z M284.50342,177.05664
				h-1.40332c-0.39551,0-0.47949,0-0.58789,0.45605l-0.74316,3.00977h1.57031c1.36719,0,2.31543-1.21094,2.31543-2.25488
				C285.65479,177.76465,285.45068,177.05664,284.50342,177.05664z"/>
			<path class="st3" d="M289.14014,188.89648h-2.55078v-0.16797l1.41113-1.5791c0.39844-0.44727,0.74121-0.96484,0.74121-1.55859
				c0-0.64258-0.36328-1.13867-0.95801-1.13867c-0.4541,0-0.83105,0.32129-0.96387,0.7959
				c0.02051-0.00684,0.03516-0.00684,0.09766-0.00684c0.19531,0,0.32813,0.13281,0.32813,0.3291
				c0,0.22363-0.18164,0.32813-0.32813,0.32813c-0.02051,0-0.32813,0-0.32813-0.35645c0-0.60059,0.47461-1.29297,1.28516-1.29297
				c0.81152,0,1.44727,0.53809,1.44727,1.3418c0,0.69238-0.3916,1.05566-1.4541,2.03418
				c-0.18164,0.16699-0.60742,0.61426-0.79688,0.77539h1.29297c0.20996,0,0.6084,0,0.65723-0.0625
				c0.07031-0.1123,0.12598-0.49707,0.14648-0.61523h0.1543L289.14014,188.89648z"/>
		</g>
		<g>
		</g>
		<g>
			<path class="st2" d="M17.42627,190.98633h-1.83496l-0.7793,3.08203l-0.02441,0.17969c0,0.1084,0,0.2041,0.67188,0.2041
				c0.17969,0,0.27588,0,0.27588,0.12012c0,0.22754-0.13184,0.22754-0.22803,0.22754c-0.41943,0-0.88721-0.02441-1.31934-0.02441
				c-0.43164,0-0.87549,0.02441-1.29492,0.02441c-0.04834,0-0.16797,0-0.16797-0.12012c0-0.22754,0.10791-0.22754,0.32373-0.22754
				c0.73145,0,0.80371-0.0957,0.91162-0.51563l1.64307-6.6084c0.02393-0.07227,0.02393-0.1084,0.02393-0.17969
				c0-0.19238-0.33594-0.19238-0.63574-0.19238c-0.22803,0-0.31201,0-0.31201-0.12012c0-0.22754,0.10791-0.22754,0.32422-0.22754
				h3.42969c1.28369,0,2.0752,0.75586,2.0752,1.75098C20.50879,189.77441,18.92578,190.98633,17.42627,190.98633z
				 M18.08594,186.95605h-1.04346c-0.39551,0-0.47949,0-0.5874,0.45605l-0.81592,3.28613h1.51123
				c1.09131,0,1.61914-0.57617,1.66699-0.6123c0.61182-0.6709,0.71973-1.79883,0.71973-2.01465
				C19.53711,187.35156,19.06934,186.95605,18.08594,186.95605z"/>
			<path class="st2" d="M25.38232,190.98633h-1.83496l-0.7793,3.08203l-0.02441,0.17969c0,0.1084,0,0.2041,0.67188,0.2041
				c0.17969,0,0.27588,0,0.27588,0.12012c0,0.22754-0.13184,0.22754-0.22803,0.22754c-0.41943,0-0.88721-0.02441-1.31934-0.02441
				c-0.43164,0-0.87549,0.02441-1.29492,0.02441c-0.04834,0-0.16797,0-0.16797-0.12012c0-0.22754,0.10791-0.22754,0.32373-0.22754
				c0.73145,0,0.80371-0.0957,0.91162-0.51563l1.64307-6.6084c0.02393-0.07227,0.02393-0.1084,0.02393-0.17969
				c0-0.19238-0.33594-0.19238-0.63574-0.19238c-0.22803,0-0.31201,0-0.31201-0.12012c0-0.22754,0.10791-0.22754,0.32422-0.22754
				h3.42969c1.28369,0,2.0752,0.75586,2.0752,1.75098C28.46484,189.77441,26.88184,190.98633,25.38232,190.98633z
				 M26.04199,186.95605h-1.04346c-0.39551,0-0.47949,0-0.5874,0.45605l-0.81592,3.28613h1.51123
				c1.09131,0,1.61914-0.57617,1.66699-0.6123c0.61182-0.6709,0.71973-1.79883,0.71973-2.01465
				C27.49316,187.35156,27.02539,186.95605,26.04199,186.95605z"/>
			<path class="st2" d="M31.34717,195.05176c-0.94775,0-1.4873-0.38379-1.81104-0.87598l-0.53955,0.71973
				c-0.12012,0.14453-0.13232,0.15625-0.18018,0.15625c0,0-0.12012,0-0.12012-0.1084c0-0.03516,0.02441-0.13184,0.03613-0.16797
				l0.62354-2.49414c0.04834-0.19238,0.07227-0.2041,0.2041-0.2041c0.06006,0,0.15576,0,0.15576,0.1084l-0.01172,0.0957
				c-0.07227,0.28809-0.09619,0.61133-0.09619,0.73145c0,1.22363,0.85156,1.69141,1.7749,1.69141
				c1.0918,0,2.02734-1.23535,2.02734-2.32715c0-0.53906-0.21631-1.00684-0.71973-1.1748l-0.73145-0.21582
				c-0.82764-0.24023-1.04346-0.2998-1.29541-0.57617c-0.43213-0.46777-0.45605-0.95898-0.45605-1.22363
				c0-1.43848,1.31934-2.83008,2.72266-2.83008c0.21582,0,1.10352,0,1.54736,0.85156l0.53955-0.71973
				c0.0957-0.13184,0.13184-0.13184,0.16797-0.13184c0,0,0.11963,0,0.11963,0.1084c0,0.03516-0.02393,0.13184-0.03564,0.16699
				l-0.62354,2.49512c-0.04834,0.19141-0.07227,0.2041-0.2041,0.2041c-0.08398,0-0.16797,0-0.16797-0.12012
				c0,0,0-0.03613,0.02393-0.1084c0.04785-0.34766,0.04785-0.55176,0.04785-0.70703c0-0.37207,0-1.71484-1.43896-1.71484
				c-1.00732,0-1.95508,1.04297-1.95508,2.07422c0,0.89941,0.56396,1.06738,0.94775,1.17578l1.16309,0.34766
				c0.59961,0.19141,1.07959,0.73145,1.07959,1.67871C34.1416,193.5166,32.79834,195.05176,31.34717,195.05176z"/>
			<path class="st2" d="M37.32617,198.7959h-2.55078v-0.16797l1.41162-1.5791c0.39844-0.44727,0.74121-0.96484,0.74121-1.55859
				c0-0.64258-0.36377-1.13867-0.95752-1.13867c-0.45459,0-0.83154,0.32129-0.96436,0.7959
				c0.021-0.00684,0.03467-0.00684,0.09766-0.00684c0.1958,0,0.32861,0.13281,0.32861,0.3291
				c0,0.22363-0.18164,0.32813-0.32861,0.32813c-0.021,0-0.32861,0-0.32861-0.35645c0-0.60059,0.47559-1.29297,1.28613-1.29297
				s1.44629,0.53809,1.44629,1.3418c0,0.69238-0.39111,1.05566-1.45313,2.03418c-0.18213,0.16699-0.6084,0.61426-0.79688,0.77539
				h1.29297c0.20947,0,0.60791,0,0.65674-0.06348c0.06982-0.11133,0.12598-0.49609,0.14697-0.61426h0.15332L37.32617,198.7959z"/>
		</g>
	</g>
	<g>
		<path class="st3" d="M279.36572,46.3999c-0.38379,0-0.79102-0.02441-1.1875-0.02441c-0.40723,0-0.83887,0.02441-1.23438,0.02441
			c-0.04883,0-0.16797,0-0.16797-0.12012c0-0.22754,0.10742-0.22754,0.27539-0.22754
			c0.74414-0.01172,0.71973-0.33594,0.70801-0.52832l-0.13184-1.93066h-2.7832l-0.875,1.54688
			c-0.1084,0.19238-0.2041,0.34863-0.2041,0.5166c0,0.22754,0.16797,0.37109,0.45605,0.39551
			c0.07129,0,0.16797,0.01172,0.16797,0.12012c0,0.22754-0.13184,0.22754-0.21582,0.22754c-0.3125,0-0.66016-0.02441-0.9834-0.02441
			c-0.30078,0-0.62402,0.02441-0.91211,0.02441c0,0-0.14355,0-0.14355-0.12012c0-0.2041,0.0957-0.21582,0.22754-0.22754
			c0.59961-0.06055,0.93555-0.33594,1.30762-0.99609l3.99316-7.00391c0.08398-0.14355,0.12012-0.21582,0.28809-0.21582
			s0.17969,0.03613,0.19238,0.28809l0.52734,7.53223c0.02441,0.31152,0.08398,0.39551,0.67188,0.39551
			c0.15527,0,0.23926,0,0.23926,0.13184C279.58154,46.3999,279.43799,46.3999,279.36572,46.3999z M277.32764,39.25146
			l-2.2793,3.99414h2.55469L277.32764,39.25146z"/>
		<path class="st3" d="M283.07959,50.396h-2.55078v-0.16797l1.41113-1.5791c0.39844-0.44727,0.74121-0.96484,0.74121-1.55859
			c0-0.64258-0.36328-1.13867-0.95801-1.13867c-0.4541,0-0.83105,0.32129-0.96387,0.7959
			c0.02051-0.00684,0.03516-0.00684,0.09766-0.00684c0.19531,0,0.32813,0.13281,0.32813,0.3291
			c0,0.22363-0.18164,0.32813-0.32813,0.32813c-0.02051,0-0.32813,0-0.32813-0.35645c0-0.60059,0.47461-1.29297,1.28516-1.29297
			c0.81152,0,1.44727,0.53809,1.44727,1.3418c0,0.69238-0.3916,1.05566-1.4541,2.03418
			c-0.18164,0.16699-0.60742,0.61426-0.79688,0.77539h1.29297c0.20996,0,0.6084,0,0.65723-0.0625
			c0.07031-0.1123,0.12598-0.49707,0.14648-0.61523h0.1543L283.07959,50.396z"/>
	</g>
	<g>
		<path class="st3" d="M229.22021,46.40039c-0.38379,0-0.79102-0.02441-1.1875-0.02441c-0.40723,0-0.83887,0.02441-1.23438,0.02441
			c-0.04883,0-0.16797,0-0.16797-0.12012c0-0.22754,0.10742-0.22754,0.27539-0.22754
			c0.74414-0.01172,0.71973-0.33594,0.70801-0.52832l-0.13184-1.93066h-2.7832l-0.875,1.54688
			c-0.1084,0.19238-0.2041,0.34863-0.2041,0.5166c0,0.22754,0.16797,0.37109,0.45605,0.39551
			c0.07129,0,0.16797,0.01172,0.16797,0.12012c0,0.22754-0.13184,0.22754-0.21582,0.22754c-0.3125,0-0.66016-0.02441-0.9834-0.02441
			c-0.30078,0-0.62402,0.02441-0.91211,0.02441c0,0-0.14355,0-0.14355-0.12012c0-0.2041,0.0957-0.21582,0.22754-0.22754
			c0.59961-0.06055,0.93555-0.33594,1.30762-0.99609l3.99316-7.00391c0.08398-0.14355,0.12012-0.21582,0.28809-0.21582
			s0.17969,0.03613,0.19238,0.28809l0.52734,7.53223c0.02441,0.31152,0.08398,0.39551,0.67188,0.39551
			c0.15527,0,0.23926,0,0.23926,0.13184C229.43604,46.40039,229.29248,46.40039,229.22021,46.40039z M227.18213,39.25195
			l-2.2793,3.99414h2.55469L227.18213,39.25195z"/>
		<path class="st3" d="M231.7251,50.54297c-0.77637,0-1.39844-0.50977-1.39844-1.13184c0-0.26563,0.18164-0.36328,0.34961-0.36328
			c0.19629,0,0.34277,0.13965,0.34277,0.34277c0,0.25098-0.20313,0.37695-0.42676,0.3418
			c0.20313,0.46094,0.77637,0.62207,1.11133,0.62207c0.34277,0,0.81738-0.24414,0.81738-1.16016
			c0-0.6709-0.26465-1.16016-0.85938-1.16016h-0.32129c-0.12598,0-0.16113,0-0.16113-0.06934
			c0-0.06348,0.02832-0.07031,0.14746-0.07715l0.20898-0.02148c0.18945-0.00684,0.42676-0.02734,0.63672-0.33496
			c0.20215-0.30078,0.22363-0.69238,0.22363-0.82422c0-0.68555-0.45508-0.79004-0.68555-0.79004
			c-0.03418,0-0.69141,0-0.95703,0.47461c0.02051-0.00684,0.03516-0.00684,0.07715-0.00684
			c0.15332,0,0.32129,0.09766,0.32129,0.32227c0,0.20898-0.16797,0.31445-0.31445,0.31445
			c-0.10547,0-0.32129-0.05664-0.32129-0.33594c0-0.50977,0.5166-0.93652,1.21582-0.93652
			c0.67773,0,1.25098,0.40527,1.25098,0.95801c0,0.54492-0.3916,1.05469-1,1.22949c0.6709,0.11914,1.18848,0.62207,1.18848,1.26465
			C233.17139,49.90723,232.55615,50.54297,231.7251,50.54297z"/>
	</g>
	<g>
		<path class="st3" d="M233.22705,234.92969h-3.80176c-0.19141,0-0.28809,0-0.28809-0.12012
			c0-0.22754,0.1084-0.22754,0.32422-0.22754c0.73145,0,0.80371-0.0957,0.91113-0.51563l1.64355-6.6084
			c0.02344-0.07227,0.02344-0.1084,0.02344-0.17969c0-0.19238-0.33496-0.19238-0.63477-0.19238c-0.22852,0-0.3125,0-0.3125-0.12012
			c0-0.22754,0.1084-0.22754,0.32422-0.22754h3.56152c1.30762,0,1.96777,0.7793,1.96777,1.61914
			c0,1.05566-1.05566,2.03906-2.33887,2.29102c0.93555,0.11914,1.64258,0.70703,1.64258,1.64258
			C236.24951,233.5625,234.87061,234.92969,233.22705,234.92969z M234.06689,230.79199h-2.05078l-0.83984,3.40625
			c-0.04785,0.16797-0.04785,0.19141-0.04785,0.23926c0,0.13281,0.01172,0.14453,0.36035,0.14453h1.47461
			c1.27148,0,2.30273-1.17578,2.30273-2.43457C235.26611,231.53516,235.00244,230.79199,234.06689,230.79199z M234.82275,227.08594
			h-1.40332c-0.39551,0-0.47949,0-0.58789,0.45605l-0.74316,3.00977h1.57031c1.36719,0,2.31543-1.21094,2.31543-2.25488
			C235.97412,227.79395,235.77002,227.08594,234.82275,227.08594z"/>
		<path class="st3" d="M238.25049,239.07227c-0.77637,0-1.39844-0.50977-1.39844-1.13184c0-0.26563,0.18164-0.36328,0.34961-0.36328
			c0.19629,0,0.34277,0.13965,0.34277,0.34277c0,0.25098-0.20313,0.37695-0.42676,0.3418
			c0.20313,0.46094,0.77637,0.62207,1.11133,0.62207c0.34277,0,0.81738-0.24414,0.81738-1.16016
			c0-0.6709-0.26465-1.16016-0.85938-1.16016h-0.32129c-0.12598,0-0.16113,0-0.16113-0.06934
			c0-0.06348,0.02832-0.07031,0.14746-0.07715l0.20898-0.02148c0.18945-0.00684,0.42676-0.02734,0.63672-0.33496
			c0.20215-0.30078,0.22363-0.69238,0.22363-0.82422c0-0.68555-0.4541-0.79004-0.68555-0.79004
			c-0.03418,0-0.69141,0-0.95703,0.47461c0.02051-0.00684,0.03516-0.00684,0.07715-0.00684
			c0.15332,0,0.32129,0.09766,0.32129,0.32227c0,0.20898-0.16797,0.31445-0.31445,0.31445
			c-0.10547,0-0.32129-0.05664-0.32129-0.33594c0-0.50977,0.5166-0.93652,1.21582-0.93652
			c0.67773,0,1.25098,0.40527,1.25098,0.95801c0,0.54492-0.3916,1.05469-1,1.22949c0.6709,0.11914,1.18848,0.62207,1.18848,1.26465
			C239.69678,238.43652,239.08154,239.07227,238.25049,239.07227z"/>
	</g>
</g>
<g id="Layer_2">
	<g>
		<path class="st2" d="M6.25967,274.25363c0.10187-0.39679,0.12512-0.43073,0.61304-0.43073h1.09204
			c0.94189,0,1.54422,0.3074,1.54422,1.09024c0,0.44324-0.22699,1.4209-0.67024,1.83017
			c-0.56837,0.51117-1.24932,0.60233-1.74976,0.60233H5.48756L6.25967,274.25363 M5.4411,277.64056h1.93206
			c1.61393,0,3.19389-1.18143,3.19389-2.45398c0-0.87576-0.75066-1.71579-2.23949-1.71579H4.64575
			c-0.21448,0-0.33958,0-0.33958,0.21628c0,0.13583,0.10187,0.13583,0.32886,0.13583c0.14835,0,0.35209,0.01071,0.48793,0.02322
			c0.18231,0.02145,0.25022,0.05542,0.25022,0.18051c0,0.04648-0.01072,0.08041-0.04468,0.21625l-1.52277,6.10184
			c-0.11439,0.44324-0.13583,0.53439-1.03484,0.53439c-0.19303,0-0.31814,0-0.31814,0.21625
			c0,0.13583,0.13762,0.13583,0.17158,0.13583c0.31814,0,1.12421-0.03394,1.44234-0.03394c0.2395,0,0.48794,0.01071,0.72743,0.01071
			c0.25022,0,0.50044,0.02322,0.73815,0.02322c0.08044,0,0.22699,0,0.22699-0.22699c0-0.12509-0.10187-0.12509-0.31813-0.12509
			c-0.42002,0-0.73816,0-0.73816-0.20554c0-0.06793,0.02324-0.12332,0.03396-0.19302L5.4411,277.64056z"/>
		<path class="st2" d="M13.62153,278.08914c0.08043-0.0965,0.08043-0.11258,0.08043-0.31992h-2.10722
			c-0.32171,0-0.40929-0.00894-0.69882-0.03217c-0.41823-0.03217-0.43432-0.08936-0.45934-0.22519h-0.27345l-0.2806,1.71936h0.27345
			c0.01608-0.11975,0.09652-0.65057,0.22521-0.73099c0.06434-0.04828,0.71492-0.04828,0.83645-0.04828h1.75333
			c-0.25737,0.3378-0.66845,0.83646-0.83645,1.06168c-1.05451,1.38336-1.15102,2.66125-1.15102,3.13669
			c0,0.08759,0,0.45755,0.37891,0.45755c0.38605,0,0.38605-0.36105,0.38605-0.46649v-0.32172
			c0-1.5603,0.32171-2.27521,0.66666-2.70953L13.62153,278.08914"/>
	</g>
	<g>
		<path class="st2" d="M40.79742,274.25363c0.10192-0.39679,0.12514-0.43073,0.613-0.43073h1.09205
			c0.94197,0,1.54422,0.3074,1.54422,1.09024c0,0.44324-0.22694,1.4209-0.67019,1.83017
			c-0.56839,0.51117-1.24933,0.60233-1.74977,0.60233h-1.60141L40.79742,274.25363 M39.97887,277.64056h1.93199
			c1.61399,0,3.1939-1.18143,3.1939-2.45398c0-0.87576-0.75061-1.71579-2.23946-1.71579h-3.68176
			c-0.21447,0-0.33961,0-0.33961,0.21628c0,0.13583,0.10192,0.13583,0.32886,0.13583c0.14836,0,0.35209,0.01071,0.48798,0.02322
			c0.18222,0.02145,0.25016,0.05542,0.25016,0.18051c0,0.04648-0.01075,0.08041-0.04473,0.21625l-1.52272,6.10184
			c-0.11438,0.44324-0.13589,0.53439-1.03485,0.53439c-0.19297,0-0.31811,0-0.31811,0.21625
			c0,0.13583,0.13761,0.13583,0.17158,0.13583c0.31811,0,1.12419-0.03394,1.4423-0.03394c0.23952,0,0.48797,0.01071,0.7275,0.01071
			c0.25016,0,0.50044,0.02322,0.73814,0.02322c0.08041,0,0.22694,0,0.22694-0.22699c0-0.12509-0.10192-0.12509-0.31811-0.12509
			c-0.42003,0-0.73814,0-0.73814-0.20554c0-0.06793,0.02322-0.12332,0.03397-0.19302L39.97887,277.64056z"/>
		<path class="st2" d="M46.15746,282.85049c-0.40207,0-0.71663-0.23233-0.88466-0.58621
			c-0.12148-0.2413-0.18588-0.64343-0.18588-1.12601c0-0.78104,0.46647-1.38336,1.10989-1.38336
			c0.37004,0,0.6202,0.14478,0.82038,0.44147c0.19308,0.30563,0.20201,0.6434,0.20201,1.10989c0,0.45935,0,0.79715-0.21814,1.10992
			C46.8081,282.69858,46.55073,282.85049,46.15746,282.85049 M45.0637,280.3179c0-0.65952,0.05537-1.25467,0.36101-1.74619
			c0.2735-0.4343,0.70782-0.73099,1.22256-0.73099c0.24124,0,0.56301,0.06433,0.72384,0.28061
			c-0.20018,0.01608-0.37004,0.15369-0.37004,0.38605c0,0.20197,0.13772,0.37891,0.37896,0.37891s0.38605-0.16086,0.38605-0.39499
			c0-0.46649-0.33779-0.88293-1.13494-0.88293c-1.15816,0-2.33955,1.05988-2.33955,2.78998
			c0,2.08218,0.98121,2.70953,1.86587,2.70953c0.98133,0,1.83385-0.7471,1.83385-1.80161c0-1.02054-0.81329-1.77655-1.75332-1.77655
			C45.59457,279.52972,45.24066,279.95508,45.0637,280.3179z"/>
	</g>
	<g>
		<path class="st2" d="M90.91959,274.25363c0.10191-0.39679,0.12514-0.43073,0.61299-0.43073h1.09206
			c0.94197,0,1.54422,0.3074,1.54422,1.09024c0,0.44324-0.22694,1.4209-0.6702,1.83017
			c-0.56838,0.51117-1.24933,0.60233-1.74977,0.60233h-1.60142L90.91959,274.25363 M90.10104,277.64056h1.93199
			c1.614,0,3.19391-1.18143,3.19391-2.45398c0-0.87576-0.75061-1.71579-2.23946-1.71579h-3.68176
			c-0.21448,0-0.33961,0-0.33961,0.21628c0,0.13583,0.10192,0.13583,0.32886,0.13583c0.14836,0,0.35208,0.01071,0.48798,0.02322
			c0.18222,0.02145,0.25017,0.05542,0.25017,0.18051c0,0.04648-0.01076,0.08041-0.04473,0.21625l-1.52271,6.10184
			c-0.11439,0.44324-0.13589,0.53439-1.03486,0.53439c-0.19297,0-0.31811,0-0.31811,0.21625
			c0,0.13583,0.13761,0.13583,0.17158,0.13583c0.31812,0,1.1242-0.03394,1.44231-0.03394c0.23952,0,0.48797,0.01071,0.7275,0.01071
			c0.25016,0,0.50043,0.02322,0.73814,0.02322c0.08041,0,0.22694,0,0.22694-0.22699c0-0.12509-0.10192-0.12509-0.31812-0.12509
			c-0.42002,0-0.73814,0-0.73814-0.20554c0-0.06793,0.02322-0.12332,0.03397-0.19302L90.10104,277.64056z"/>
		<path class="st2" d="M95.22522,278.45914c0.411,0.10544,0.65234,0.10544,0.78103,0.10544
			c1.06162,0,1.68892-0.72385,1.68892-0.8436c0-0.08939-0.05719-0.11261-0.09643-0.11261c-0.01613,0-0.03226,0-0.0644,0.02322
			c-0.19297,0.0733-0.6202,0.23416-1.21535,0.23416c-0.22523,0-0.65052-0.01608-1.17418-0.21805
			c-0.08053-0.03934-0.09654-0.03934-0.10375-0.03934c-0.10546,0-0.10546,0.08759-0.10546,0.21628v2.37173
			c0,0.1376,0,0.23413,0.12868,0.23413c0.07332,0,0.08053-0.01608,0.16094-0.11261c0.3467-0.44324,0.8364-0.5076,1.11881-0.5076
			c0.4826,0,0.69879,0.38608,0.73997,0.45041c0.1447,0.2663,0.19297,0.57193,0.19297,1.03842c0,0.24127,0,0.7149-0.24124,1.06879
			c-0.202,0.28955-0.54688,0.48257-0.94197,0.48257c-0.52184,0-1.06162-0.28952-1.2618-0.82037
			c0.30564,0.02502,0.45755-0.17694,0.45755-0.39319c0-0.34674-0.29671-0.41107-0.40207-0.41107
			c-0.01613,0-0.40218,0-0.40218,0.4343c0,0.72385,0.65955,1.44772,1.62463,1.44772c1.02948,0,1.93027-0.76318,1.93027-1.77658
			c0-0.90973-0.6917-1.74619-1.68903-1.74619c-0.3538,0-0.77211,0.08936-1.12591,0.39499V278.45914"/>
	</g>
	<g>
		<path class="st2" d="M140.96843,274.25363c0.10193-0.39679,0.12515-0.43073,0.61301-0.43073h1.09204
			c0.94199,0,1.54422,0.3074,1.54422,1.09024c0,0.44324-0.22694,1.4209-0.67018,1.83017
			c-0.56839,0.51117-1.24933,0.60233-1.74977,0.60233h-1.60143L140.96843,274.25363 M140.14989,277.64056h1.93199
			c1.61398,0,3.19391-1.18143,3.19391-2.45398c0-0.87576-0.75061-1.71579-2.23947-1.71579h-3.68176
			c-0.21448,0-0.33961,0-0.33961,0.21628c0,0.13583,0.10191,0.13583,0.32886,0.13583c0.14836,0,0.35208,0.01071,0.48798,0.02322
			c0.18222,0.02145,0.25017,0.05542,0.25017,0.18051c0,0.04648-0.01076,0.08041-0.04472,0.21625l-1.52272,6.10184
			c-0.11438,0.44324-0.13589,0.53439-1.03485,0.53439c-0.19298,0-0.31812,0-0.31812,0.21625
			c0,0.13583,0.1376,0.13583,0.17159,0.13583c0.31812,0,1.12419-0.03394,1.44231-0.03394c0.23952,0,0.48796,0.01071,0.72749,0.01071
			c0.25017,0,0.50044,0.02322,0.73813,0.02322c0.08043,0,0.22694,0,0.22694-0.22699c0-0.12509-0.10191-0.12509-0.3181-0.12509
			c-0.42003,0-0.73814,0-0.73814-0.20554c0-0.06793,0.02322-0.12332,0.03398-0.19302L140.14989,277.64056z"/>
		<path class="st2" d="M146.7628,278.39478v2.94366h-2.12325L146.7628,278.39478z M148.28209,281.62799v-0.28955h-0.89188v-3.5853
			c0-0.1698,0-0.22519-0.17696-0.22519c-0.09654,0-0.12868,0-0.20909,0.11261l-2.66315,3.69788v0.28955h2.36459v0.65952
			c0,0.27347,0,0.36996-0.65051,0.36996h-0.21802v0.28955c0.40207-0.01608,0.91679-0.03217,1.20631-0.03217
			c0.29855,0,0.81329,0.01608,1.21536,0.03217v-0.28955h-0.21803c-0.65051,0-0.65051-0.0965-0.65051-0.36996v-0.65952H148.28209z"/>
	</g>
	<g>
		<path class="st2" d="M191.21036,274.25363c0.10193-0.39679,0.12514-0.43073,0.61301-0.43073h1.09204
			c0.94199,0,1.54422,0.3074,1.54422,1.09024c0,0.44324-0.22693,1.4209-0.67018,1.83017
			c-0.56839,0.51117-1.24934,0.60233-1.74977,0.60233h-1.60141L191.21036,274.25363 M190.39182,277.64056h1.93199
			c1.614,0,3.19391-1.18143,3.19391-2.45398c0-0.87576-0.75061-1.71579-2.23947-1.71579h-3.68176
			c-0.21448,0-0.33961,0-0.33961,0.21628c0,0.13583,0.10191,0.13583,0.32886,0.13583c0.14836,0,0.3521,0.01071,0.48798,0.02322
			c0.18222,0.02145,0.25017,0.05542,0.25017,0.18051c0,0.04648-0.01076,0.08041-0.04472,0.21625l-1.52272,6.10184
			c-0.11438,0.44324-0.13588,0.53439-1.03485,0.53439c-0.19298,0-0.31812,0-0.31812,0.21625
			c0,0.13583,0.1376,0.13583,0.17159,0.13583c0.3181,0,1.12419-0.03394,1.44231-0.03394c0.23952,0,0.48796,0.01071,0.72749,0.01071
			c0.25017,0,0.50044,0.02322,0.73813,0.02322c0.08041,0,0.22694,0,0.22694-0.22699c0-0.12509-0.10191-0.12509-0.3181-0.12509
			c-0.42003,0-0.73814,0-0.73814-0.20554c0-0.06793,0.02322-0.12332,0.03398-0.19302L190.39182,277.64056z"/>
		<path class="st2" d="M196.46506,280.26071c0.6273,0,1.07764,0.43433,1.07764,1.29578c0,0.99731-0.57903,1.29401-1.0455,1.29401
			c-0.32176,0-1.02946-0.08759-1.36726-0.56299c0.37886-0.01608,0.46648-0.28061,0.46648-0.45041
			c0-0.25735-0.19308-0.44144-0.44153-0.44144c-0.22511,0-0.45035,0.13583-0.45035,0.46646
			c0,0.75604,0.8364,1.24576,1.80869,1.24576c1.11893,0,1.89104-0.7471,1.89104-1.55139c0-0.62732-0.51474-1.25467-1.39952-1.44055
			c0.84361-0.30563,1.14925-0.90793,1.14925-1.39944c0-0.63449-0.73093-1.10812-1.62463-1.10812
			c-0.89188,0-1.57635,0.43253-1.57635,1.07596c0,0.27347,0.17694,0.42715,0.4182,0.42715c0.25027,0,0.4111-0.18588,0.4111-0.41107
			c0-0.23236-0.16083-0.40213-0.4111-0.41824c0.28241-0.35385,0.8365-0.44144,1.13493-0.44144
			c0.36101,0,0.86865,0.17694,0.86865,0.87576c0,0.3378-0.11267,0.70776-0.32176,0.95798
			c-0.2663,0.30563-0.49152,0.32172-0.89359,0.34497c-0.20018,0.01608-0.21631,0.01608-0.25737,0.02502
			c-0.01613,0-0.08041,0.01608-0.08041,0.10364c0,0.11261,0.0732,0.11261,0.20909,0.11261H196.46506"/>
	</g>
	<g>
		<path class="st2" d="M241.33253,274.25363c0.10191-0.39679,0.12514-0.43073,0.61299-0.43073h1.09206
			c0.94197,0,1.54422,0.3074,1.54422,1.09024c0,0.44324-0.22694,1.4209-0.6702,1.83017
			c-0.56839,0.51117-1.24933,0.60233-1.74977,0.60233h-1.60141L241.33253,274.25363 M240.51398,277.64056h1.93199
			c1.614,0,3.19391-1.18143,3.19391-2.45398c0-0.87576-0.75061-1.71579-2.23947-1.71579h-3.68176
			c-0.21446,0-0.3396,0-0.3396,0.21628c0,0.13583,0.10191,0.13583,0.32886,0.13583c0.14836,0,0.35208,0.01071,0.48798,0.02322
			c0.18222,0.02145,0.25015,0.05542,0.25015,0.18051c0,0.04648-0.01074,0.08041-0.04472,0.21625l-1.52271,6.10184
			c-0.1144,0.44324-0.13589,0.53439-1.03487,0.53439c-0.19296,0-0.3181,0-0.3181,0.21625c0,0.13583,0.1376,0.13583,0.17157,0.13583
			c0.31812,0,1.12419-0.03394,1.44231-0.03394c0.23953,0,0.48798,0.01071,0.72749,0.01071
			c0.25017,0,0.50044,0.02322,0.73814,0.02322c0.08041,0,0.22694,0,0.22694-0.22699c0-0.12509-0.10191-0.12509-0.31812-0.12509
			c-0.42003,0-0.73813,0-0.73813-0.20554c0-0.06793,0.02321-0.12332,0.03397-0.19302L240.51398,277.64056z"/>
		<path class="st2" d="M248.45309,281.48322h-0.2735c-0.02321,0.17694-0.10362,0.65237-0.20909,0.73279
			c-0.06429,0.04828-0.68266,0.04828-0.79533,0.04828h-1.47981c0.8436-0.74887,1.1259-0.97409,1.60851-1.3512
			c0.59515-0.47543,1.14923-0.97409,1.14923-1.73727c0-0.97406-0.85252-1.56744-1.882-1.56744
			c-0.99733,0-1.6729,0.69885-1.6729,1.43878c0,0.4093,0.34671,0.45038,0.42712,0.45038c0.19308,0,0.4254-0.1376,0.4254-0.42715
			c0-0.14478-0.05536-0.42538-0.47368-0.42538c0.24846-0.57193,0.79544-0.74887,1.1743-0.74887
			c0.80424,0,1.22256,0.62735,1.22256,1.27969c0,0.69885-0.49873,1.2547-0.7561,1.54422l-1.93919,1.91422
			c-0.08041,0.07147-0.08041,0.08755-0.08041,0.31277h3.31366L248.45309,281.48322"/>
	</g>
	<g>
		<path class="st2" d="M291.38138,274.25363c0.10193-0.39679,0.12515-0.43073,0.61301-0.43073h1.09204
			c0.94196,0,1.54422,0.3074,1.54422,1.09024c0,0.44324-0.22696,1.4209-0.6702,1.83017
			c-0.56839,0.51117-1.24933,0.60233-1.74976,0.60233h-1.60144L291.38138,274.25363 M290.56284,277.64056h1.93198
			c1.61398,0,3.19391-1.18143,3.19391-2.45398c0-0.87576-0.75061-1.71579-2.23947-1.71579h-3.68176
			c-0.21448,0-0.3396,0-0.3396,0.21628c0,0.13583,0.1019,0.13583,0.32886,0.13583c0.14835,0,0.35208,0.01071,0.48798,0.02322
			c0.18222,0.02145,0.25015,0.05542,0.25015,0.18051c0,0.04648-0.01074,0.08041-0.04471,0.21625l-1.52274,6.10184
			c-0.11438,0.44324-0.13589,0.53439-1.03485,0.53439c-0.19296,0-0.31812,0-0.31812,0.21625
			c0,0.13583,0.13763,0.13583,0.1716,0.13583c0.31812,0,1.12418-0.03394,1.44229-0.03394c0.23953,0,0.48798,0.01071,0.72751,0.01071
			c0.25015,0,0.50043,0.02322,0.73813,0.02322c0.08041,0,0.22693,0,0.22693-0.22699c0-0.12509-0.1019-0.12509-0.31808-0.12509
			c-0.42004,0-0.73816,0-0.73816-0.20554c0-0.06793,0.02322-0.12332,0.03397-0.19302L290.56284,277.64056z"/>
		<path class="st2" d="M297.02029,277.83359c0-0.21808-0.01611-0.22522-0.24124-0.22522
			c-0.51474,0.5058-1.24579,0.51297-1.57648,0.51297v0.28952c0.19308,0,0.72385,0,1.16708-0.22519v4.10184
			c0,0.2663,0,0.36996-0.80426,0.36996h-0.30563v0.28955c0.14481-0.00714,1.13324-0.03217,1.43167-0.03217
			c0.24844,0,1.26178,0.02502,1.43875,0.03217v-0.28955h-0.30563c-0.80426,0-0.80426-0.10367-0.80426-0.36996V277.83359"/>
	</g>
	<g>
		<path class="st2" d="M341.05847,274.25363c0.10193-0.39679,0.12512-0.43073,0.61301-0.43073h1.09204
			c0.94196,0,1.54422,0.3074,1.54422,1.09024c0,0.44324-0.22696,1.4209-0.6702,1.83017
			c-0.56839,0.51117-1.24933,0.60233-1.74979,0.60233h-1.60141L341.05847,274.25363 M340.2399,277.64056h1.93201
			c1.61398,0,3.19391-1.18143,3.19391-2.45398c0-0.87576-0.75061-1.71579-2.23947-1.71579h-3.68176
			c-0.21448,0-0.3396,0-0.3396,0.21628c0,0.13583,0.1019,0.13583,0.32886,0.13583c0.14835,0,0.35208,0.01071,0.48798,0.02322
			c0.18222,0.02145,0.25015,0.05542,0.25015,0.18051c0,0.04648-0.01074,0.08041-0.04471,0.21625l-1.52274,6.10184
			c-0.11438,0.44324-0.13589,0.53439-1.03485,0.53439c-0.19296,0-0.31812,0-0.31812,0.21625
			c0,0.13583,0.1376,0.13583,0.17157,0.13583c0.31812,0,1.12421-0.03394,1.44232-0.03394c0.23953,0,0.48798,0.01071,0.72751,0.01071
			c0.25015,0,0.50043,0.02322,0.73813,0.02322c0.08041,0,0.22693,0,0.22693-0.22699c0-0.12509-0.1019-0.12509-0.31812-0.12509
			c-0.42001,0-0.73813,0-0.73813-0.20554c0-0.06793,0.02322-0.12332,0.03397-0.19302L340.2399,277.64056z"/>
		<path class="st2" d="M346.28812,282.88266c-0.37006,0-0.86145-0.21625-1.0224-0.87576
			c-0.11255-0.4754-0.11255-1.13492-0.11255-1.7301c0-0.58624,0-1.19748,0.12149-1.64072
			c0.16803-0.63449,0.68277-0.80249,1.01346-0.80249c0.43433,0,0.85251,0.2645,0.99734,0.73099
			c0.12866,0.43433,0.13577,1.0134,0.13577,1.71222c0,0.59518,0,1.19034-0.10364,1.69794
			C347.15677,282.70572,346.60977,282.88266,346.28812,282.88266 M348.15399,280.38226c0-0.88474-0.10547-1.521-0.4754-2.08398
			c-0.24844-0.36996-0.74707-0.68991-1.39047-0.68991c-1.866,0-1.866,2.19479-1.866,2.7739c0,0.57907,0,2.72562,1.866,2.72562
			C348.15399,283.10788,348.15399,280.96133,348.15399,280.38226z"/>
	</g>
</g>
</svg>
