<?xml version="1.0" encoding="utf-8"?>
<!-- Generator: Adobe Illustrator 23.0.3, SVG Export Plug-In . SVG Version: 6.00 Build 0)  -->
<svg version="1.1" id="Layer_1" xmlns="http://www.w3.org/2000/svg" xmlns:xlink="http://www.w3.org/1999/xlink" x="0px" y="0px"
	 viewBox="0 0 51.657 76.22754" style="enable-background:new 0 0 51.657 76.22754;" xml:space="preserve">
<style type="text/css">
	.st0{fill:#8FF4DD;}
	.st1{fill:none;stroke:#8FF4DD;stroke-miterlimit:10;}
</style>
<g>
	<path class="st0" d="M25.2986,19.11377c-0.07178,0-0.14404-0.03613-0.26367-0.15576L22.636,16.55908l-2.39844,2.39893
		c-0.13184,0.13184-0.15625,0.15576-0.25195,0.15576c-0.12012,0-0.23975-0.10791-0.23975-0.23975
		c0-0.07227,0.03564-0.14404,0.15576-0.26416l2.38672-2.38672l-2.38672-2.39844c-0.10791-0.10791-0.15576-0.15576-0.15576-0.25195
		c0-0.13184,0.11963-0.23975,0.23975-0.23975c0.0957,0,0.12012,0.02393,0.25195,0.15576l2.41064,2.39893l2.39844-2.39893
		c0.10791-0.10791,0.15625-0.15576,0.25195-0.15576c0.13184,0,0.23975,0.10791,0.23975,0.23975
		c0,0.09619-0.02393,0.12012-0.15576,0.25195l-2.38672,2.39844l2.38672,2.39893c0.13184,0.13184,0.15576,0.15576,0.15576,0.25195
		C25.53835,19.00586,25.44264,19.11377,25.2986,19.11377z"/>
</g>
<g>
	<path class="st0" d="M31.47878,7.95166c-0.396,0-1.55908,0-1.88281,0.02393V7.62793h0.37158
		c1.05566,0,1.09131-0.14404,1.09131-0.57568V0.80371c-0.65967,0.31152-1.25928,0.31152-1.53516,0.31152V0.76758
		c1.23535,0,1.83496-0.44385,2.12305-0.76758c0.23975,0,0.23975,0.01221,0.23975,0.2876v6.76465
		c0,0.43164,0.03613,0.57568,1.09131,0.57568h0.37207v0.34766C33.02565,7.95166,31.87428,7.95166,31.47878,7.95166z"/>
	<path class="st0" d="M39.22976,6.9082C38.88161,7.604,38.282,8.22754,37.23854,8.22754c-0.62354,0-1.45117-0.28809-1.91895-1.19922
		c-0.43164-0.85156-0.51563-1.72705-0.51563-2.89063c0-1.29541,0.12012-2.03906,0.45557-2.79443
		C35.70339,0.34766,36.55495,0,37.25075,0c0.5874,0,1.45117,0.26367,1.94287,1.25928c0.43164,0.91162,0.4917,1.88281,0.4917,2.87842
		C39.68532,4.8335,39.6614,6.00879,39.22976,6.9082z M38.61794,1.54736c-0.22803-1.03174-0.92334-1.30762-1.37939-1.30762
		c-0.51563,0-1.12744,0.37207-1.33105,1.17529C35.7156,2.12256,35.7156,3.01025,35.7156,3.99365c0,0.83984,0,1.75098,0.13184,2.4707
		c0.22803,1.30713,1.00732,1.52344,1.39111,1.52344c0.41992,0,1.17529-0.22803,1.40332-1.54736
		c0.13184-0.73145,0.13184-1.64307,0.13184-2.44678C38.7737,3.17822,38.7737,2.23096,38.61794,1.54736z"/>
	<path class="st0" d="M43.23854,7.95166c-0.396,0-1.55908,0-1.88281,0.02393V7.62793h0.37158
		c1.05566,0,1.09131-0.14404,1.09131-0.57568V0.80371c-0.65967,0.31152-1.25928,0.31152-1.53516,0.31152V0.76758
		c1.23535,0,1.83496-0.44385,2.12305-0.76758c0.23975,0,0.23975,0.01221,0.23975,0.2876v6.76465
		c0,0.43164,0.03613,0.57568,1.09131,0.57568h0.37207v0.34766C44.78542,7.95166,43.63405,7.95166,43.23854,7.95166z"/>
	<path class="st0" d="M49.11843,7.95166c-0.396,0-1.55908,0-1.88281,0.02393V7.62793h0.37158
		c1.05566,0,1.09131-0.14404,1.09131-0.57568V0.80371c-0.65967,0.31152-1.25928,0.31152-1.53516,0.31152V0.76758
		c1.23535,0,1.83496-0.44385,2.12305-0.76758c0.23975,0,0.23975,0.01221,0.23975,0.2876v6.76465
		c0,0.43164,0.03613,0.57568,1.09131,0.57568h0.37207v0.34766C50.6653,7.95166,49.51394,7.95166,49.11843,7.95166z"/>
</g>
<g>
	<path class="st0" d="M31.25138,18.95166c-0.396,0-1.55908,0-1.88281,0.02393v-0.34766h0.37158
		c1.05566,0,1.09131-0.14404,1.09131-0.57568v-6.24854c-0.65967,0.31152-1.25928,0.31152-1.53516,0.31152v-0.34766
		c1.23535,0,1.83496-0.44385,2.12305-0.76758c0.23975,0,0.23975,0.01172,0.23975,0.2876v6.76465
		c0,0.43164,0.03613,0.57568,1.09131,0.57568h0.37207v0.34766C32.79826,18.95166,31.64689,18.95166,31.25138,18.95166z"/>
	<path class="st0" d="M37.13127,18.95166c-0.396,0-1.55908,0-1.88281,0.02393v-0.34766h0.37158
		c1.05566,0,1.09131-0.14404,1.09131-0.57568v-6.24854c-0.65967,0.31152-1.25928,0.31152-1.53516,0.31152v-0.34766
		c1.23535,0,1.83496-0.44385,2.12305-0.76758c0.23975,0,0.23975,0.01172,0.23975,0.2876v6.76465
		c0,0.43164,0.03613,0.57568,1.09131,0.57568h0.37207v0.34766C38.67814,18.95166,37.52678,18.95166,37.13127,18.95166z"/>
	<path class="st0" d="M43.01115,18.95166c-0.396,0-1.55908,0-1.88281,0.02393v-0.34766h0.37158
		c1.05566,0,1.09131-0.14404,1.09131-0.57568v-6.24854c-0.65967,0.31152-1.25928,0.31152-1.53516,0.31152v-0.34766
		c1.23535,0,1.83496-0.44385,2.12305-0.76758c0.23975,0,0.23975,0.01172,0.23975,0.2876v6.76465
		c0,0.43164,0.03613,0.57568,1.09131,0.57568h0.37207v0.34766C44.55803,18.95166,43.40666,18.95166,43.01115,18.95166z"/>
	<path class="st0" d="M50.76213,17.9082c-0.34814,0.6958-0.94775,1.31934-1.99121,1.31934
		c-0.62354,0-1.45117-0.28809-1.91895-1.19922c-0.43164-0.85156-0.51563-1.72705-0.51563-2.89063
		c0-1.29541,0.12012-2.03906,0.45557-2.79443C47.23576,11.34766,48.08732,11,48.78312,11c0.5874,0,1.45117,0.26367,1.94287,1.25928
		c0.43164,0.91162,0.4917,1.88281,0.4917,2.87842C51.21769,15.8335,51.19377,17.00879,50.76213,17.9082z M50.15031,12.54688
		c-0.22803-1.03125-0.92334-1.30713-1.37939-1.30713c-0.51563,0-1.12744,0.37207-1.33105,1.17529
		c-0.19189,0.70801-0.19189,1.59521-0.19189,2.57861c0,0.83984,0,1.75098,0.13184,2.4707
		c0.22803,1.30713,1.00732,1.52344,1.39111,1.52344c0.41992,0,1.17529-0.22803,1.40332-1.54736
		c0.13184-0.73145,0.13184-1.64307,0.13184-2.44678C50.30607,14.17822,50.30607,13.23096,50.15031,12.54688z"/>
</g>
<g>
	<path class="st0" d="M33.40602,29.9082c-0.34814,0.6958-0.94775,1.31934-1.99121,1.31934
		c-0.62354,0-1.45117-0.28809-1.91895-1.19922c-0.43164-0.85156-0.51563-1.72705-0.51563-2.89063
		c0-1.29541,0.12012-2.03906,0.45557-2.79443C29.87966,23.34766,30.73122,23,31.42702,23c0.5874,0,1.45117,0.26367,1.94287,1.25928
		c0.43164,0.91162,0.4917,1.88281,0.4917,2.87842C33.86159,27.8335,33.83767,29.00879,33.40602,29.9082z M32.79421,24.54736
		c-0.22803-1.03174-0.92334-1.30762-1.3794-1.30762c-0.51563,0-1.12744,0.37207-1.33105,1.17529
		c-0.19189,0.70752-0.19189,1.59521-0.19189,2.57861c0,0.83984,0,1.75098,0.13184,2.4707
		c0.22803,1.30713,1.00732,1.52344,1.39111,1.52344c0.41992,0,1.17529-0.22803,1.40332-1.54736
		c0.13184-0.73145,0.13184-1.64307,0.13184-2.44678C32.94997,26.17822,32.94997,25.23096,32.79421,24.54736z"/>
	<path class="st0" d="M39.28591,29.9082c-0.34814,0.6958-0.94775,1.31934-1.99121,1.31934
		c-0.62354,0-1.45117-0.28809-1.91895-1.19922c-0.43164-0.85156-0.51563-1.72705-0.51563-2.89063
		c0-1.29541,0.12012-2.03906,0.45557-2.79443C35.75954,23.34766,36.6111,23,37.3069,23c0.5874,0,1.45117,0.26367,1.94287,1.25928
		c0.43164,0.91162,0.4917,1.88281,0.4917,2.87842C39.74147,27.8335,39.71755,29.00879,39.28591,29.9082z M38.67409,24.54736
		c-0.22803-1.03174-0.92334-1.30762-1.37939-1.30762c-0.51563,0-1.12744,0.37207-1.33105,1.17529
		c-0.19189,0.70752-0.19189,1.59521-0.19189,2.57861c0,0.83984,0,1.75098,0.13184,2.4707
		c0.22803,1.30713,1.00732,1.52344,1.39111,1.52344c0.41992,0,1.17529-0.22803,1.40332-1.54736
		c0.13184-0.73145,0.13184-1.64307,0.13184-2.44678C38.82985,26.17822,38.82985,25.23096,38.67409,24.54736z"/>
	<path class="st0" d="M45.16579,29.9082c-0.34814,0.6958-0.94775,1.31934-1.99121,1.31934
		c-0.62354,0-1.45117-0.28809-1.91895-1.19922c-0.43164-0.85156-0.51563-1.72705-0.51563-2.89063
		c0-1.29541,0.12012-2.03906,0.45557-2.79443C41.63942,23.34766,42.49099,23,43.18679,23c0.5874,0,1.45117,0.26367,1.94287,1.25928
		c0.43164,0.91162,0.4917,1.88281,0.4917,2.87842C45.62136,27.8335,45.59743,29.00879,45.16579,29.9082z M44.55397,24.54736
		c-0.22803-1.03174-0.92334-1.30762-1.37939-1.30762c-0.51563,0-1.12744,0.37207-1.33105,1.17529
		c-0.19189,0.70752-0.19189,1.59521-0.19189,2.57861c0,0.83984,0,1.75098,0.13184,2.4707
		c0.22803,1.30713,1.00732,1.52344,1.39111,1.52344c0.41992,0,1.17529-0.22803,1.40332-1.54736
		c0.13184-0.73145,0.13184-1.64307,0.13184-2.44678C44.70974,26.17822,44.70974,25.23096,44.55397,24.54736z"/>
	<path class="st0" d="M51.04567,29.9082c-0.34814,0.6958-0.94775,1.31934-1.99121,1.31934
		c-0.62354,0-1.45117-0.28809-1.91895-1.19922c-0.43164-0.85156-0.51563-1.72705-0.51563-2.89063
		c0-1.29541,0.12012-2.03906,0.45557-2.79443C47.51931,23.34766,48.37087,23,49.06667,23c0.5874,0,1.45117,0.26367,1.94287,1.25928
		c0.43164,0.91162,0.4917,1.88281,0.4917,2.87842C51.50124,27.8335,51.47731,29.00879,51.04567,29.9082z M50.43386,24.54736
		c-0.22803-1.03174-0.92334-1.30762-1.37939-1.30762c-0.51563,0-1.12744,0.37207-1.33105,1.17529
		c-0.19189,0.70752-0.19189,1.59521-0.19189,2.57861c0,0.83984,0,1.75098,0.13184,2.4707
		c0.22803,1.30713,1.00732,1.52344,1.39111,1.52344c0.41992,0,1.17529-0.22803,1.40332-1.54736
		c0.13184-0.73145,0.13184-1.64307,0.13184-2.44678C50.58962,26.17822,50.58962,25.23096,50.43386,24.54736z"/>
</g>
<g>
	<path class="st0" d="M25.58317,41.95166c-0.396,0-1.55908,0-1.88281,0.02393v-0.34766h0.37158
		c1.05566,0,1.09131-0.14404,1.09131-0.57568v-6.24854c-0.65967,0.31152-1.25928,0.31152-1.53516,0.31152v-0.34766
		c1.23535,0,1.83496-0.44385,2.12305-0.76758c0.23975,0,0.23975,0.01221,0.23975,0.2876v6.76465
		c0,0.43164,0.03613,0.57568,1.09131,0.57568h0.37207v0.34766C27.13004,41.95166,25.97868,41.95166,25.58317,41.95166z"/>
	<path class="st0" d="M33.33414,40.9082c-0.34814,0.6958-0.94775,1.31934-1.99121,1.31934
		c-0.62354,0-1.45117-0.28809-1.91895-1.19922c-0.43164-0.85156-0.51563-1.72705-0.51563-2.89063
		c0-1.29541,0.12012-2.03906,0.45557-2.79443C29.80778,34.34766,30.65934,34,31.35514,34c0.5874,0,1.45117,0.26367,1.94287,1.25928
		c0.43164,0.91162,0.4917,1.88281,0.4917,2.87842C33.78971,38.8335,33.76579,40.00879,33.33414,40.9082z M32.72233,35.54736
		c-0.22803-1.03174-0.92334-1.30762-1.37939-1.30762c-0.51563,0-1.12744,0.37207-1.33105,1.17529
		c-0.19189,0.70752-0.19189,1.59521-0.19189,2.57861c0,0.83984,0,1.75098,0.13184,2.4707
		c0.22803,1.30713,1.00732,1.52344,1.39111,1.52344c0.41992,0,1.17529-0.22803,1.40332-1.54736
		c0.13184-0.73145,0.13184-1.64307,0.13184-2.44678C32.87809,37.17822,32.87809,36.23096,32.72233,35.54736z"/>
	<path class="st0" d="M37.34293,41.95166c-0.396,0-1.55908,0-1.88281,0.02393v-0.34766h0.37158
		c1.05566,0,1.09131-0.14404,1.09131-0.57568v-6.24854c-0.65967,0.31152-1.25928,0.31152-1.53516,0.31152v-0.34766
		c1.23535,0,1.83496-0.44385,2.12305-0.76758c0.23975,0,0.23975,0.01221,0.23975,0.2876v6.76465
		c0,0.43164,0.03613,0.57568,1.09131,0.57568h0.37207v0.34766C38.88981,41.95166,37.73844,41.95166,37.34293,41.95166z"/>
	<path class="st0" d="M43.22282,41.95166c-0.396,0-1.55908,0-1.88281,0.02393v-0.34766h0.37158
		c1.05566,0,1.09131-0.14404,1.09131-0.57568v-6.24854c-0.65967,0.31152-1.25928,0.31152-1.53516,0.31152v-0.34766
		c1.23535,0,1.83496-0.44385,2.12305-0.76758c0.23975,0,0.23975,0.01221,0.23975,0.2876v6.76465
		c0,0.43164,0.03613,0.57568,1.09131,0.57568h0.37207v0.34766C44.76969,41.95166,43.61832,41.95166,43.22282,41.95166z"/>
</g>
<g>
	<path class="st0" d="M19.70417,52.95166c-0.396,0-1.55908,0-1.88281,0.02393v-0.34766h0.37158
		c1.05566,0,1.09131-0.14404,1.09131-0.57568v-6.24854c-0.65967,0.31152-1.25928,0.31152-1.53516,0.31152v-0.34766
		c1.23535,0,1.83496-0.44385,2.12305-0.76758c0.23975,0,0.23975,0.01221,0.23975,0.2876v6.76465
		c0,0.43164,0.03613,0.57568,1.09131,0.57568h0.37207v0.34766C21.25104,52.95166,20.09968,52.95166,19.70417,52.95166z"/>
	<path class="st0" d="M27.45514,51.9082c-0.34814,0.6958-0.94775,1.31934-1.99121,1.31934
		c-0.62354,0-1.45117-0.28809-1.91895-1.19922c-0.43164-0.85156-0.51563-1.72705-0.51563-2.89063
		c0-1.29541,0.12012-2.03906,0.45557-2.79443C23.92878,45.34766,24.78034,45,25.47614,45c0.5874,0,1.45117,0.26367,1.94287,1.25928
		c0.43164,0.91162,0.4917,1.88281,0.4917,2.87842C27.91071,49.8335,27.88679,51.00879,27.45514,51.9082z M26.84333,46.54736
		c-0.22803-1.03174-0.92334-1.30762-1.37939-1.30762c-0.51563,0-1.12744,0.37207-1.33105,1.17529
		c-0.19189,0.70752-0.19189,1.59521-0.19189,2.57861c0,0.83984,0,1.75098,0.13184,2.4707
		c0.22803,1.30713,1.00732,1.52344,1.39111,1.52344c0.41992,0,1.17529-0.22803,1.40332-1.54736
		c0.13184-0.73145,0.13184-1.64307,0.13184-2.44678C26.99909,48.17822,26.99909,47.23096,26.84333,46.54736z"/>
	<path class="st0" d="M31.46393,52.95166c-0.396,0-1.55908,0-1.88281,0.02393v-0.34766h0.37158
		c1.05566,0,1.09131-0.14404,1.09131-0.57568v-6.24854c-0.65967,0.31152-1.25928,0.31152-1.53516,0.31152v-0.34766
		c1.23535,0,1.83496-0.44385,2.12305-0.76758c0.23975,0,0.23975,0.01221,0.23975,0.2876v6.76465
		c0,0.43164,0.03613,0.57568,1.09131,0.57568h0.37207v0.34766C33.01081,52.95166,31.85944,52.95166,31.46393,52.95166z"/>
	<path class="st0" d="M37.34381,52.95166c-0.396,0-1.55908,0-1.88281,0.02393v-0.34766h0.37158
		c1.05566,0,1.09131-0.14404,1.09131-0.57568v-6.24854c-0.65967,0.31152-1.25928,0.31152-1.53516,0.31152v-0.34766
		c1.23535,0,1.83496-0.44385,2.12305-0.76758c0.23975,0,0.23975,0.01221,0.23975,0.2876v6.76465
		c0,0.43164,0.03613,0.57568,1.09131,0.57568h0.37207v0.34766C38.89069,52.95166,37.73932,52.95166,37.34381,52.95166z"/>
</g>
<g>
	<path class="st0" d="M13.82517,63.95166c-0.396,0-1.55908,0-1.88281,0.02393v-0.34766h0.37158
		c1.05566,0,1.09131-0.14404,1.09131-0.57568v-6.24854c-0.65967,0.31152-1.25928,0.31152-1.53516,0.31152v-0.34766
		c1.23535,0,1.83496-0.44385,2.12305-0.76758c0.23975,0,0.23975,0.01221,0.23975,0.2876v6.76465
		c0,0.43164,0.03613,0.57568,1.09131,0.57568h0.37207v0.34766C15.37204,63.95166,14.22068,63.95166,13.82517,63.95166z"/>
	<path class="st0" d="M21.57615,62.9082c-0.34814,0.6958-0.94775,1.31934-1.99121,1.31934
		c-0.62354,0-1.45117-0.28809-1.91895-1.19922c-0.43164-0.85156-0.51563-1.72705-0.51563-2.89063
		c0-1.29541,0.12012-2.03906,0.45557-2.79443C18.04978,56.34766,18.90134,56,19.59714,56c0.5874,0,1.45117,0.26367,1.94287,1.25928
		c0.43164,0.91162,0.4917,1.88281,0.4917,2.87842C22.03171,60.8335,22.00779,62.00879,21.57615,62.9082z M20.96433,57.54736
		c-0.22803-1.03174-0.92334-1.30762-1.37939-1.30762c-0.51563,0-1.12744,0.37207-1.33105,1.17529
		c-0.19189,0.70752-0.19189,1.59521-0.19189,2.57861c0,0.83984,0,1.75098,0.13184,2.4707
		c0.22803,1.30713,1.00732,1.52344,1.39111,1.52344c0.41992,0,1.17529-0.22803,1.40332-1.54736
		c0.13184-0.73145,0.13184-1.64307,0.13184-2.44678C21.12009,59.17822,21.12009,58.23096,20.96433,57.54736z"/>
	<path class="st0" d="M25.58493,63.95166c-0.396,0-1.55908,0-1.88281,0.02393v-0.34766h0.37158
		c1.05566,0,1.09131-0.14404,1.09131-0.57568v-6.24854c-0.65967,0.31152-1.25928,0.31152-1.53516,0.31152v-0.34766
		c1.23535,0,1.83496-0.44385,2.12305-0.76758c0.23975,0,0.23975,0.01221,0.23975,0.2876v6.76465
		c0,0.43164,0.03613,0.57568,1.09131,0.57568h0.37207v0.34766C27.13181,63.95166,25.98044,63.95166,25.58493,63.95166z"/>
	<path class="st0" d="M31.46482,63.95166c-0.396,0-1.55908,0-1.88281,0.02393v-0.34766h0.37158
		c1.05566,0,1.09131-0.14404,1.09131-0.57568v-6.24854c-0.65967,0.31152-1.25928,0.31152-1.53516,0.31152v-0.34766
		c1.23535,0,1.83496-0.44385,2.12305-0.76758c0.23975,0,0.23975,0.01221,0.23975,0.2876v6.76465
		c0,0.43164,0.03613,0.57568,1.09131,0.57568h0.37207v0.34766C33.01169,63.95166,31.86032,63.95166,31.46482,63.95166z"/>
</g>
<g>
	<path class="st0" d="M7.5798,60.35986H4.23361v3.35791c0,0.16797,0,0.396-0.23975,0.396s-0.23975-0.22803-0.23975-0.396v-3.35791
		h-3.3584c-0.16797,0-0.39551,0-0.39551-0.24023c0-0.23975,0.22754-0.23975,0.39551-0.23975h3.3584v-3.35791
		c0-0.16797,0-0.396,0.23975-0.396s0.23975,0.22803,0.23975,0.396v3.35791H7.5798c0.16797,0,0.396,0,0.396,0.23975
		C7.97579,60.35986,7.74777,60.35986,7.5798,60.35986z"/>
</g>
<g>
	<path class="st0" d="M8.01516,75.95166c-0.396,0-1.55908,0-1.88281,0.02393v-0.34766h0.37158
		c1.05566,0,1.09131-0.14404,1.09131-0.57568v-6.24854c-0.65967,0.31152-1.25928,0.31152-1.53516,0.31152v-0.34766
		c1.23535,0,1.83496-0.44385,2.12305-0.76758c0.23975,0,0.23975,0.01221,0.23975,0.2876v6.76465
		c0,0.43164,0.03613,0.57568,1.09131,0.57568h0.37207v0.34766C9.56204,75.95166,8.41067,75.95166,8.01516,75.95166z"/>
	<path class="st0" d="M15.76614,74.9082c-0.34814,0.6958-0.94775,1.31934-1.99121,1.31934
		c-0.62354,0-1.45117-0.28809-1.91895-1.19922c-0.43164-0.85156-0.51563-1.72705-0.51563-2.89063
		c0-1.29541,0.12012-2.03906,0.45557-2.79443C12.23977,68.34766,13.09133,68,13.78713,68c0.5874,0,1.45117,0.26367,1.94287,1.25928
		c0.43164,0.91162,0.4917,1.88281,0.4917,2.87842C16.2217,72.8335,16.19778,74.00879,15.76614,74.9082z M15.15432,69.54736
		c-0.22803-1.03174-0.92334-1.30762-1.37939-1.30762c-0.51563,0-1.12744,0.37207-1.33105,1.17529
		c-0.19189,0.70752-0.19189,1.59521-0.19189,2.57861c0,0.83984,0,1.75098,0.13184,2.4707
		c0.22803,1.30713,1.00732,1.52344,1.39111,1.52344c0.41992,0,1.17529-0.22803,1.40332-1.54736
		c0.13184-0.73145,0.13184-1.64307,0.13184-2.44678C15.31008,71.17822,15.31008,70.23096,15.15432,69.54736z"/>
	<path class="st0" d="M21.64602,74.9082c-0.34814,0.6958-0.94775,1.31934-1.99121,1.31934
		c-0.62354,0-1.45117-0.28809-1.91895-1.19922c-0.43164-0.85156-0.51563-1.72705-0.51563-2.89063
		c0-1.29541,0.12012-2.03906,0.45557-2.79443C18.11965,68.34766,18.97121,68,19.66702,68c0.5874,0,1.45117,0.26367,1.94287,1.25928
		c0.43164,0.91162,0.4917,1.88281,0.4917,2.87842C22.10159,72.8335,22.07766,74.00879,21.64602,74.9082z M21.0342,69.54736
		c-0.22803-1.03174-0.92334-1.30762-1.37939-1.30762c-0.51563,0-1.12744,0.37207-1.33105,1.17529
		c-0.19189,0.70752-0.19189,1.59521-0.19189,2.57861c0,0.83984,0,1.75098,0.13184,2.4707
		c0.22803,1.30713,1.00732,1.52344,1.39111,1.52344c0.41992,0,1.17529-0.22803,1.40332-1.54736
		c0.13184-0.73145,0.13184-1.64307,0.13184-2.44678C21.18996,71.17822,21.18996,70.23096,21.0342,69.54736z"/>
	<path class="st0" d="M25.65481,75.95166c-0.396,0-1.55908,0-1.88281,0.02393v-0.34766h0.37158
		c1.05566,0,1.09131-0.14404,1.09131-0.57568v-6.24854c-0.65967,0.31152-1.25928,0.31152-1.53516,0.31152v-0.34766
		c1.23535,0,1.83496-0.44385,2.12305-0.76758c0.23975,0,0.23975,0.01221,0.23975,0.2876v6.76465
		c0,0.43164,0.03613,0.57568,1.09131,0.57568h0.37207v0.34766C27.20168,75.95166,26.05032,75.95166,25.65481,75.95166z"/>
	<path class="st0" d="M31.53469,75.95166c-0.396,0-1.55908,0-1.88281,0.02393v-0.34766h0.37158
		c1.05566,0,1.09131-0.14404,1.09131-0.57568v-6.24854c-0.65967,0.31152-1.25928,0.31152-1.53516,0.31152v-0.34766
		c1.23535,0,1.83496-0.44385,2.12305-0.76758c0.23975,0,0.23975,0.01221,0.23975,0.2876v6.76465
		c0,0.43164,0.03613,0.57568,1.09131,0.57568h0.37207v0.34766C33.08157,75.95166,31.9302,75.95166,31.53469,75.95166z"/>
	<path class="st0" d="M39.28567,74.9082c-0.34814,0.6958-0.94775,1.31934-1.99121,1.31934
		c-0.62354,0-1.45117-0.28809-1.91895-1.19922c-0.43164-0.85156-0.51563-1.72705-0.51563-2.89063
		c0-1.29541,0.12012-2.03906,0.45557-2.79443C35.7593,68.34766,36.61086,68,37.30666,68c0.5874,0,1.45117,0.26367,1.94287,1.25928
		c0.43164,0.91162,0.4917,1.88281,0.4917,2.87842C39.74123,72.8335,39.71731,74.00879,39.28567,74.9082z M38.67385,69.54736
		c-0.22803-1.03174-0.92334-1.30762-1.37939-1.30762c-0.51563,0-1.12744,0.37207-1.33105,1.17529
		c-0.19189,0.70752-0.19189,1.59521-0.19189,2.57861c0,0.83984,0,1.75098,0.13184,2.4707
		c0.22803,1.30713,1.00732,1.52344,1.39111,1.52344c0.41992,0,1.17529-0.22803,1.40332-1.54736
		c0.13184-0.73145,0.13184-1.64307,0.13184-2.44678C38.82961,71.17822,38.82961,70.23096,38.67385,69.54736z"/>
	<path class="st0" d="M43.29446,75.95166c-0.396,0-1.55908,0-1.88281,0.02393v-0.34766h0.37158
		c1.05566,0,1.09131-0.14404,1.09131-0.57568v-6.24854c-0.65967,0.31152-1.25928,0.31152-1.53516,0.31152v-0.34766
		c1.23535,0,1.83496-0.44385,2.12305-0.76758c0.23975,0,0.23975,0.01221,0.23975,0.2876v6.76465
		c0,0.43164,0.03613,0.57568,1.09131,0.57568h0.37207v0.34766C44.84133,75.95166,43.68996,75.95166,43.29446,75.95166z"/>
	<path class="st0" d="M51.04543,74.9082c-0.34814,0.6958-0.94775,1.31934-1.99121,1.31934
		c-0.62354,0-1.45117-0.28809-1.91895-1.19922c-0.43164-0.85156-0.51563-1.72705-0.51563-2.89063
		c0-1.29541,0.12012-2.03906,0.45557-2.79443C47.51907,68.34766,48.37063,68,49.06643,68c0.5874,0,1.45117,0.26367,1.94287,1.25928
		c0.43164,0.91162,0.4917,1.88281,0.4917,2.87842C51.501,72.8335,51.47707,74.00879,51.04543,74.9082z M50.43362,69.54736
		c-0.22803-1.03174-0.92334-1.30762-1.37939-1.30762c-0.51563,0-1.12744,0.37207-1.33105,1.17529
		c-0.19189,0.70752-0.19189,1.59521-0.19189,2.57861c0,0.83984,0,1.75098,0.13184,2.4707
		c0.22803,1.30713,1.00732,1.52344,1.39111,1.52344c0.41992,0,1.17529-0.22803,1.40332-1.54736
		c0.13184-0.73145,0.13184-1.64307,0.13184-2.44678C50.58938,71.17822,50.58938,70.23096,50.43362,69.54736z"/>
</g>
<line class="st1" x1="19.657" y1="21.11377" x2="51.657" y2="21.11377"/>
<line class="st1" x1="0" y1="66.11377" x2="51.657" y2="66.11377"/>
<g>
</g>
<g>
</g>
<g>
</g>
<g>
</g>
<g>
</g>
<g>
</g>
<g>
</g>
<g>
</g>
<g>
</g>
<g>
</g>
<g>
</g>
</svg>
