<?xml version="1.0" encoding="utf-8"?>
<!-- Generator: Adobe Illustrator 23.0.3, SVG Export Plug-In . SVG Version: 6.00 Build 0)  -->
<svg version="1.1" id="Layer_1" xmlns="http://www.w3.org/2000/svg" xmlns:xlink="http://www.w3.org/1999/xlink" x="0px" y="0px"
	 viewBox="0 0 277.34756 144.80449" style="enable-background:new 0 0 277.34756 144.80449;" xml:space="preserve">
<style type="text/css">
	.st0{fill:none;stroke:#8FF4DD;stroke-width:2;stroke-miterlimit:10;}
	.st1{fill:#8FF4DD;}
	.st2{fill:none;stroke:#FD1D53;stroke-width:2;stroke-linecap:round;stroke-miterlimit:10;}
</style>
<g>
	<g>
		<polyline class="st0" points="52.34756,3.95598 52.34756,125 273.39157,125 		"/>
		<g>
			<polygon class="st1" points="47.89463,12.2316 49.21124,12.71011 52.34756,4.09276 55.48388,12.71011 56.79913,12.2316 
				52.34756,0 			"/>
		</g>
		<g>
			<polygon class="st1" points="265.11597,129.45293 264.63745,128.13632 273.25479,125 264.63745,121.86368 265.11597,120.54843 
				277.34756,125 			"/>
		</g>
	</g>
</g>
<polyline class="st2" points="52.34756,125 152.34755,25 275.34756,25 "/>
<path class="st1" d="M11.57953,28.61599l1.48066-1.43673c2.17932-1.92883,3.0184-2.68233,3.0184-4.07952
	c0-1.59272-1.25877-2.70871-2.96128-2.70871c-1.57953,0-2.61203,1.28516-2.61203,2.52856c0,0.78207,0.69859,0.78207,0.74033,0.78207
	c0.23726,0,0.72495-0.16915,0.72495-0.74033c0-0.36468-0.25043-0.72716-0.74033-0.72716c-0.10983,0-0.1384,0-0.18013,0.01319
	c0.32073-0.9073,1.07425-1.42355,1.88488-1.42355c1.27199,0,1.87178,1.13136,1.87178,2.27592
	c0,1.11819-0.69863,2.22099-1.46756,3.08655l-2.68014,2.98989c-0.15377,0.15378-0.15377,0.18014-0.15377,0.51626h5.18231
	l0.391-2.42971h-0.34924c-0.0703,0.4196-0.16914,1.03252-0.30749,1.24342c-0.09898,0.10984-1.01933,0.10984-1.32696,0.10984
	L11.57953,28.61599"/>
<path class="st1" d="M20.31409,29.69244c-0.54482,0-1.36858-0.3493-1.61898-1.68936
	c-0.15381-0.8392-0.15381-2.12434-0.15381-2.94816c0-0.89412,0-1.81458,0.10981-2.57029
	c0.26587-1.66081,1.31374-1.78604,1.66299-1.78604c0.46144,0,1.38193,0.25045,1.64766,1.63445
	c0.1406,0.78207,0.1406,1.84315,0.1406,2.72188c0,1.04789,0,1.99692-0.15382,2.89104
	C21.73989,29.27285,20.94243,29.69244,20.31409,29.69244 M23.26018,25.22407c0-1.11819-0.06819-2.23637-0.55803-3.26889
	c-0.64154-1.34006-1.78826-1.56415-2.37483-1.56415c-0.83698,0-1.85631,0.36249-2.42967,1.66081
	c-0.44597,0.96441-0.51627,2.05405-0.51627,3.17223c0,1.04569,0.05497,2.30449,0.62833,3.36556
	C18.60935,29.721,19.63093,30,20.31409,30c0.7536,0,1.8168-0.29438,2.42981-1.62127
	C23.19199,27.41652,23.26018,26.32689,23.26018,25.22407z"/>
<path class="st1" d="M32.82952,25.18234v2.86247c0,0.25045,0,0.279-0.15381,0.51626
	c-0.41954,0.67004-1.04787,0.97759-1.64752,0.97759c-0.62833,0-1.13139-0.36248-1.46756-0.89411
	c-0.36246-0.57117-0.40422-1.36863-0.40422-1.942c0-0.51626,0.02854-1.35325,0.43276-1.98155
	c0.29216-0.43277,0.8239-0.89412,1.57737-0.89412c0.48984,0,1.07642,0.2087,1.50917,0.837
	C32.82952,24.90115,32.82952,24.9297,32.82952,25.18234 M32.82952,28.92355v0.92267l2.05188-0.15378v-0.43278
	c-0.97757,0-1.08752-0.09886-1.08752-0.78207V20l-2.01223,0.15377v0.43279c0.97757,0,1.08963,0.09666,1.08963,0.78207v3.01625
	c-0.40422-0.50307-1.00611-0.86556-1.75972-0.86556c-1.64752,0-3.11508,1.36863-3.11508,3.17004
	c0,1.77504,1.36857,3.15686,2.96141,3.15686C31.85195,29.84622,32.48028,29.3717,32.82952,28.92355z"/>
<path class="st1" d="M40.7865,29.25966H39.04c-0.65688,0-0.68542-0.09886-0.68542-0.55799v-3.81371h2.62735
	c1.38193,0,1.96836,1.29833,1.96836,2.23418C42.9503,28.11511,42.22327,29.25966,40.7865,29.25966 M41.65202,24.70562
	c1.35325-0.26362,2.31761-1.15772,2.31761-2.19244c0-1.21485-1.28506-2.35941-3.09962-2.35941h-5.11212v0.43279h0.33392
	c1.07642,0,1.10509,0.15377,1.10509,0.65684v7.35941c0,0.50307-0.02868,0.65685-1.10509,0.65685h-0.33392v0.43278h5.47458
	c1.85842,0,3.11508-1.24342,3.11508-2.55492C44.34756,25.92048,43.20084,24.87478,41.65202,24.70562z M38.35458,24.5804v-3.43585
	c0-0.46133,0.02854-0.55799,0.68542-0.55799h1.73104c1.3555,0,1.84323,1.18629,1.84323,1.92662
	c0,0.89412-0.6833,2.06722-2.23423,2.06722C40.38004,24.5804,38.35458,24.5804,38.35458,24.5804z"/>
<path class="st1" d="M19.8923,79.69244c-0.54481,0-1.36858-0.3493-1.61898-1.68936c-0.15381-0.8392-0.15381-2.12434-0.15381-2.94817
	c0-0.89411,0-1.81458,0.10981-2.57029c0.26587-1.66081,1.31375-1.78604,1.66299-1.78604c0.46144,0,1.38193,0.25045,1.64767,1.63445
	c0.1406,0.78207,0.1406,1.84315,0.1406,2.72189c0,1.04789,0,1.99693-0.15381,2.89104
	C21.3181,79.27285,20.52063,79.69244,19.8923,79.69244 M22.83838,75.22407c0-1.11819-0.06819-2.23637-0.55803-3.26889
	c-0.64154-1.34007-1.78826-1.56415-2.37484-1.56415c-0.83698,0-1.85631,0.36249-2.42967,1.66081
	c-0.44597,0.96441-0.51627,2.05404-0.51627,3.17223c0,1.0457,0.05497,2.3045,0.62833,3.36556
	C18.18756,79.721,19.20913,80,19.8923,80c0.7536,0,1.8168-0.29437,2.42981-1.62127
	C22.77019,77.41652,22.83838,76.32689,22.83838,75.22407z"/>
<path class="st1" d="M32.68892,75.18234v2.86246c0,0.25045,0,0.279-0.15381,0.51626c-0.41954,0.67004-1.04787,0.9776-1.64753,0.9776
	c-0.62833,0-1.13139-0.36248-1.46756-0.89411c-0.36246-0.57117-0.40421-1.36863-0.40421-1.942
	c0-0.51626,0.02854-1.35325,0.43276-1.98155c0.29216-0.43278,0.8239-0.89412,1.57736-0.89412
	c0.48984,0,1.07642,0.2087,1.50918,0.83701C32.68892,74.90115,32.68892,74.9297,32.68892,75.18234 M32.68892,78.92355v0.92267
	l2.05188-0.15378v-0.43278c-0.97758,0-1.08752-0.09886-1.08752-0.78207V70l-2.01224,0.15377v0.43279
	c0.97758,0,1.08963,0.09666,1.08963,0.78207v3.01626c-0.40422-0.50307-1.00612-0.86556-1.75972-0.86556
	c-1.64752,0-3.11508,1.36863-3.11508,3.17004c0,1.77505,1.36858,3.15686,2.96141,3.15686
	C31.71135,79.84622,32.33968,79.3717,32.68892,78.92355z"/>
<path class="st1" d="M40.7865,79.25967H39.04c-0.65687,0-0.68541-0.09886-0.68541-0.558v-3.81371h2.62735
	c1.38193,0,1.96836,1.29834,1.96836,2.23418C42.9503,78.1151,42.22327,79.25967,40.7865,79.25967 M41.65202,74.70562
	c1.35325-0.26363,2.31761-1.15772,2.31761-2.19244c0-1.21485-1.28506-2.35941-3.09962-2.35941h-5.11212v0.43279h0.33392
	c1.07642,0,1.1051,0.15378,1.1051,0.65685v7.35941c0,0.50307-0.02868,0.65685-1.1051,0.65685h-0.33392v0.43278h5.47459
	c1.85842,0,3.11508-1.24342,3.11508-2.55492C44.34756,75.92048,43.20084,74.87479,41.65202,74.70562z M38.35458,74.5804v-3.43585
	c0-0.46133,0.02854-0.55799,0.68541-0.55799h1.73104c1.3555,0,1.84323,1.18629,1.84323,1.92663
	c0,0.89411-0.6833,2.06721-2.23423,2.06721C40.38003,74.58039,38.35458,74.58039,38.35458,74.5804z"/>
<g>
	<path class="st1" d="M43.62826,144.49693c-0.54481,0-1.36858-0.3493-1.61898-1.68936
		c-0.15381-0.8392-0.15381-2.12434-0.15381-2.94817c0-0.89412,0-1.81458,0.10981-2.5703
		c0.26587-1.66081,1.31375-1.78604,1.66299-1.78604c0.46144,0,1.38193,0.25046,1.64767,1.63445
		c0.14059,0.78207,0.14059,1.84315,0.14059,2.72189c0,1.04788,0,1.99692-0.15381,2.89104
		C45.05406,144.07733,44.25659,144.49693,43.62826,144.49693 M46.57434,140.02855c0-1.11818-0.06818-2.23636-0.55803-3.26889
		c-0.64154-1.34006-1.78826-1.56415-2.37484-1.56415c-0.83698,0-1.8563,0.36249-2.42966,1.66081
		c-0.44598,0.96442-0.51627,2.05405-0.51627,3.17223c0,1.0457,0.05498,2.3045,0.62833,3.36557
		c0.59965,1.13136,1.62123,1.41037,2.30439,1.41037c0.7536,0,1.8168-0.29437,2.42981-1.62128
		C46.50615,142.22101,46.57434,141.13138,46.57434,140.02855z"/>
	<path class="st1" d="M49.86292,143.75659c0-0.40421-0.33603-0.74034-0.74025-0.74034c-0.40646,0-0.74038,0.33614-0.74038,0.74034
		c0,0.40422,0.33392,0.74034,0.74038,0.74034C49.52689,144.49693,49.86292,144.16081,49.86292,143.75659"/>
	<path class="st1" d="M54.59486,144.49693c-0.54481,0-1.36858-0.3493-1.61898-1.68936
		c-0.15381-0.8392-0.15381-2.12434-0.15381-2.94817c0-0.89412,0-1.81458,0.10981-2.5703
		c0.26587-1.66081,1.31375-1.78604,1.66299-1.78604c0.46144,0,1.38193,0.25046,1.64766,1.63445
		c0.1406,0.78207,0.1406,1.84315,0.1406,2.72189c0,1.04788,0,1.99692-0.15381,2.89104
		C56.02066,144.07733,55.22319,144.49693,54.59486,144.49693 M57.54094,140.02855c0-1.11818-0.06819-2.23636-0.55803-3.26889
		c-0.64154-1.34006-1.78827-1.56415-2.37484-1.56415c-0.83698,0-1.85631,0.36249-2.42967,1.66081
		c-0.44598,0.96442-0.51627,2.05405-0.51627,3.17223c0,1.0457,0.05497,2.3045,0.62833,3.36557
		c0.59965,1.13136,1.62123,1.41037,2.30439,1.41037c0.7536,0,1.8168-0.29437,2.4298-1.62128
		C57.47275,142.22101,57.54094,141.13138,57.54094,140.02855z"/>
	<path class="st1" d="M62.25307,135.558c0-0.33391,0-0.36249-0.32071-0.36249c-0.86552,0.89412-2.09575,0.89412-2.54173,0.89412
		v0.43277c0.27895,0,1.10285,0,1.82989-0.36247v7.23419c0,0.50307-0.04162,0.67003-1.30053,0.67003h-0.44584v0.43279
		c0.48759-0.04175,1.70475-0.04175,2.26263-0.04175c0.55804,0,1.77294,0,2.26278,0.04175v-0.43279h-0.44809
		c-1.25666,0-1.29842-0.15378-1.29842-0.67003V135.558"/>
</g>
<g>
	<path class="st1" d="M97.1432,144.49693c-0.54482,0-1.36858-0.3493-1.61898-1.68936
		c-0.15381-0.8392-0.15381-2.12434-0.15381-2.94817c0-0.89412,0-1.81458,0.1098-2.5703
		c0.26587-1.66081,1.31374-1.78604,1.66299-1.78604c0.46144,0,1.38194,0.25046,1.64767,1.63445
		c0.14059,0.78207,0.14059,1.84315,0.14059,2.72189c0,1.04788,0,1.99692-0.15381,2.89104
		C98.56899,144.07733,97.77152,144.49693,97.1432,144.49693 M100.08927,140.02855c0-1.11818-0.06818-2.23636-0.55803-3.26889
		c-0.64154-1.34006-1.78825-1.56415-2.37483-1.56415c-0.83698,0-1.85631,0.36249-2.42966,1.66081
		c-0.44597,0.96442-0.51627,2.05405-0.51627,3.17223c0,1.0457,0.05497,2.3045,0.62833,3.36557
		c0.59966,1.13136,1.62123,1.41037,2.3044,1.41037c0.75361,0,1.81681-0.29437,2.42981-1.62128
		C100.0211,142.22101,100.08927,141.13138,100.08927,140.02855z"/>
	<path class="st1" d="M103.51845,143.75659c0-0.40421-0.33602-0.74034-0.74024-0.74034c-0.40646,0-0.74039,0.33614-0.74039,0.74034
		c0,0.40422,0.33392,0.74034,0.74039,0.74034C103.18243,144.49693,103.51845,144.16081,103.51845,143.75659"/>
	<path class="st1" d="M108.73814,135.558c0-0.33391,0-0.36249-0.32071-0.36249c-0.86552,0.89412-2.09575,0.89412-2.54173,0.89412
		v0.43277c0.27895,0,1.10285,0,1.82989-0.36247v7.23419c0,0.50307-0.04162,0.67003-1.30053,0.67003h-0.44584v0.43279
		c0.48759-0.04175,1.70475-0.04175,2.26263-0.04175c0.55804,0,1.77294,0,2.26279,0.04175v-0.43279h-0.44809
		c-1.25666,0-1.29842-0.15378-1.29842-0.67003V135.558"/>
</g>
<g>
	<path class="st1" d="M152.90552,135.71178c0-0.33391,0-0.36249-0.32069-0.36249c-0.86552,0.89412-2.09575,0.89412-2.54173,0.89412
		v0.43277c0.27895,0,1.10284,0,1.82988-0.36247v7.23419c0,0.50307-0.04163,0.67003-1.30052,0.67003h-0.44585v0.43279
		c0.48759-0.04175,1.70474-0.04175,2.26265-0.04175c0.55801,0,1.77292,0,2.26277,0.04175v-0.43279h-0.44809
		c-1.25667,0-1.29842-0.15378-1.29842-0.67003V135.71178"/>
</g>
<g>
	<path class="st1" d="M199.10468,135.558c0-0.33391,0-0.36249-0.32056-0.36249c-0.86469,0.89412-2.09491,0.89412-2.54201,0.89412
		v0.43277c0.27979,0,1.10368,0,1.83058-0.36247v7.23419c0,0.50307-0.04218,0.67003-1.30054,0.67003h-0.44569v0.43279
		c0.48788-0.04175,1.70406-0.04175,2.26224-0.04175c0.55815,0,1.77292,0,2.26361,0.04175v-0.43279h-0.44853
		c-1.25693,0-1.2991-0.15378-1.2991-0.67003V135.558"/>
	<path class="st1" d="M205.50607,144.49693c-0.54411,0-1.36801-0.3493-1.61827-1.68936
		c-0.15324-0.8392-0.15324-2.12434-0.15324-2.94817c0-0.89412,0-1.81458,0.10966-2.5703
		c0.26573-1.66081,1.31319-1.78604,1.66185-1.78604c0.46257,0,1.3821,0.25046,1.6478,1.63445
		c0.14061,0.78207,0.14061,1.84315,0.14061,2.72189c0,1.04788,0,1.99692-0.15324,2.89104
		C206.93315,144.07733,206.13455,144.49693,205.50607,144.49693 M208.453,140.02855c0-1.11818-0.06889-2.23636-0.55818-3.26889
		c-0.64111-1.34006-1.78839-1.56415-2.37468-1.56415c-0.83656,0-1.85588,0.36249-2.42952,1.66081
		c-0.44569,0.96442-0.51601,2.05405-0.51601,3.17223c0,1.0457,0.05484,2.3045,0.62708,3.36557
		c0.60034,1.13136,1.6225,1.41037,2.30438,1.41037c0.75362,0,1.81795-0.29437,2.43094-1.62128
		C208.38411,142.22101,208.453,141.13138,208.453,140.02855z"/>
</g>
<g>
	<path class="st1" d="M245.51944,135.558c0-0.33391,0-0.36249-0.32056-0.36249c-0.86467,0.89412-2.09489,0.89412-2.54201,0.89412
		v0.43277c0.27979,0,1.10368,0,1.83058-0.36247v7.23419c0,0.50307-0.04216,0.67003-1.30054,0.67003h-0.44569v0.43279
		c0.48788-0.04175,1.70407-0.04175,2.26222-0.04175c0.55817,0,1.77295,0,2.26363,0.04175v-0.43279h-0.44852
		c-1.25694,0-1.29912-0.15378-1.29912-0.67003V135.558"/>
	<path class="st1" d="M251.92085,144.49693c-0.54411,0-1.36801-0.3493-1.61829-1.68936
		c-0.15324-0.8392-0.15324-2.12434-0.15324-2.94817c0-0.89412,0-1.81458,0.10966-2.5703
		c0.26573-1.66081,1.31319-1.78604,1.66187-1.78604c0.46257,0,1.38208,0.25046,1.6478,1.63445
		c0.14059,0.78207,0.14059,1.84315,0.14059,2.72189c0,1.04788,0,1.99692-0.15324,2.89104
		C253.34792,144.07733,252.54932,144.49693,251.92085,144.49693 M254.86777,140.02855c0-1.11818-0.06889-2.23636-0.55817-3.26889
		c-0.64111-1.34006-1.78839-1.56415-2.37469-1.56415c-0.83655,0-1.85588,0.36249-2.4295,1.66081
		c-0.44571,0.96442-0.51601,2.05405-0.51601,3.17223c0,1.0457,0.05484,2.3045,0.62706,3.36557
		c0.60034,1.13136,1.6225,1.41037,2.3044,1.41037c0.7536,0,1.81793-0.29437,2.43094-1.62128
		C254.79887,142.22101,254.86777,141.13138,254.86777,140.02855z"/>
	<path class="st1" d="M259.09134,144.49693c-0.54413,0-1.36804-0.3493-1.61829-1.68936
		c-0.15326-0.8392-0.15326-2.12434-0.15326-2.94817c0-0.89412,0-1.81458,0.10968-2.5703
		c0.26572-1.66081,1.31317-1.78604,1.66187-1.78604c0.46255,0,1.38205,0.25046,1.6478,1.63445
		c0.14056,0.78207,0.14056,1.84315,0.14056,2.72189c0,1.04788,0,1.99692-0.15323,2.89104
		C260.5184,144.07733,259.71979,144.49693,259.09134,144.49693 M262.03824,140.02855c0-1.11818-0.06888-2.23636-0.55817-3.26889
		c-0.64111-1.34006-1.78839-1.56415-2.37469-1.56415c-0.83655,0-1.85587,0.36249-2.4295,1.66081
		c-0.44571,0.96442-0.51599,2.05405-0.51599,3.17223c0,1.0457,0.05481,2.3045,0.62704,3.36557
		c0.60037,1.13136,1.6225,1.41037,2.30441,1.41037c0.75357,0,1.8179-0.29437,2.43091-1.62128
		C261.96936,142.22101,262.03824,141.13138,262.03824,140.02855z"/>
</g>
<path class="st1" d="M8.04482,126.48066c0.23726,0,0.48769,0,0.48769-0.27898c0-0.2812-0.25043-0.2812-0.48769-0.2812H0.4877
	c-0.23726,0-0.4877,0-0.4877,0.2812c0,0.27898,0.25044,0.27898,0.4877,0.27898H8.04482"/>
<path class="st1" d="M11.57953,128.616l1.48066-1.43674c2.17932-1.92883,3.0184-2.68233,3.0184-4.07952
	c0-1.59271-1.25877-2.70871-2.96128-2.70871c-1.57953,0-2.61203,1.28516-2.61203,2.52856c0,0.78207,0.69859,0.78207,0.74033,0.78207
	c0.23726,0,0.72495-0.16915,0.72495-0.74033c0-0.36468-0.25043-0.72716-0.74033-0.72716c-0.10983,0-0.1384,0-0.18013,0.01319
	c0.32073-0.9073,1.07425-1.42355,1.88488-1.42355c1.27199,0,1.87178,1.13136,1.87178,2.27592
	c0,1.11819-0.69863,2.22099-1.46756,3.08656l-2.68014,2.9899c-0.15377,0.15378-0.15377,0.18013-0.15377,0.51625h5.18231
	l0.391-2.42971h-0.34924c-0.0703,0.4196-0.16914,1.03252-0.30749,1.24342c-0.09898,0.10985-1.01933,0.10985-1.32696,0.10985
	h-2.51538"/>
<path class="st1" d="M20.31409,129.69244c-0.54482,0-1.36858-0.3493-1.61898-1.68936
	c-0.15381-0.8392-0.15381-2.12434-0.15381-2.94817c0-0.89411,0-1.81458,0.10981-2.57029
	c0.26587-1.66081,1.31374-1.78604,1.66299-1.78604c0.46144,0,1.38193,0.25045,1.64766,1.63445
	c0.1406,0.78207,0.1406,1.84315,0.1406,2.72189c0,1.04789,0,1.99693-0.15382,2.89104
	C21.73989,129.27284,20.94243,129.69244,20.31409,129.69244 M23.26018,125.22407c0-1.11819-0.06819-2.23637-0.55803-3.26889
	c-0.64154-1.34007-1.78826-1.56415-2.37483-1.56415c-0.83698,0-1.85631,0.36249-2.42967,1.66081
	c-0.44597,0.96441-0.51627,2.05404-0.51627,3.17223c0,1.0457,0.05497,2.3045,0.62833,3.36555
	C18.60935,129.72101,19.63093,130,20.31409,130c0.7536,0,1.8168-0.29437,2.42981-1.62128
	C23.19199,127.41652,23.26018,126.32689,23.26018,125.22407z"/>
<path class="st1" d="M32.82952,125.18234v2.86247c0,0.25044,0,0.27899-0.15381,0.51625
	c-0.41954,0.67004-1.04787,0.9776-1.64752,0.9776c-0.62833,0-1.13139-0.36247-1.46756-0.89412
	c-0.36246-0.57117-0.40422-1.36862-0.40422-1.94199c0-0.51626,0.02854-1.35325,0.43276-1.98155
	c0.29216-0.43278,0.8239-0.89412,1.57737-0.89412c0.48984,0,1.07642,0.2087,1.50917,0.83701
	C32.82952,124.90115,32.82952,124.9297,32.82952,125.18234 M32.82952,128.92355v0.92267l2.05188-0.15378v-0.43279
	c-0.97757,0-1.08752-0.09885-1.08752-0.78206V120l-2.01223,0.15377v0.43279c0.97757,0,1.08963,0.09666,1.08963,0.78207v3.01626
	c-0.40422-0.50307-1.00611-0.86556-1.75972-0.86556c-1.64752,0-3.11508,1.36863-3.11508,3.17004
	c0,1.77504,1.36857,3.15686,2.96141,3.15686C31.85195,129.84622,32.48028,129.3717,32.82952,128.92355z"/>
<path class="st1" d="M40.7865,129.25966H39.04c-0.65688,0-0.68542-0.09885-0.68542-0.55798v-3.81372h2.62735
	c1.38193,0,1.96836,1.29834,1.96836,2.23418C42.9503,128.11511,42.22327,129.25966,40.7865,129.25966 M41.65202,124.70562
	c1.35325-0.26363,2.31761-1.15772,2.31761-2.19244c0-1.21485-1.28506-2.35941-3.09962-2.35941h-5.11212v0.43279h0.33392
	c1.07642,0,1.10509,0.15378,1.10509,0.65685v7.35941c0,0.50307-0.02868,0.65685-1.10509,0.65685h-0.33392v0.43279h5.47458
	c1.85842,0,3.11508-1.24342,3.11508-2.55492C44.34756,125.92048,43.20084,124.87479,41.65202,124.70562z M38.35458,124.5804
	v-3.43585c0-0.46133,0.02854-0.55799,0.68542-0.55799h1.73104c1.3555,0,1.84323,1.18629,1.84323,1.92663
	c0,0.89411-0.6833,2.06721-2.23423,2.06721C40.38004,124.58039,38.35458,124.58039,38.35458,124.5804z"/>
</svg>
