<?xml version="1.0" encoding="utf-8"?>
<!-- Generator: Adobe Illustrator 23.0.3, SVG Export Plug-In . SVG Version: 6.00 Build 0)  -->
<svg version="1.1" id="Layer_1" xmlns="http://www.w3.org/2000/svg" xmlns:xlink="http://www.w3.org/1999/xlink" x="0px" y="0px"
	 viewBox="0 0 317.14523 192.01875" style="enable-background:new 0 0 317.14523 192.01875;" xml:space="preserve">
<style type="text/css">
	.st0{fill:none;stroke:#8FF4DD;stroke-width:2;stroke-miterlimit:10;}
	.st1{fill:#8FF4DD;}
	.st2{fill:none;stroke:#2DE2E6;stroke-width:2;stroke-linecap:round;stroke-miterlimit:10;}
</style>
<g>
	<g>
		<polyline class="st0" points="42.14524,3.95598 42.14524,175 313.18924,175 		"/>
		<g>
			<polygon class="st1" points="37.69231,12.23161 39.00891,12.71011 42.14524,4.09276 45.28156,12.71011 46.59681,12.23161 
				42.14524,0 			"/>
		</g>
		<g>
			<polygon class="st1" points="304.91364,179.45293 304.43512,178.13632 313.05246,175 304.43512,171.86368 304.91364,170.54843 
				317.14523,175 			"/>
		</g>
	</g>
</g>
<path class="st1" d="M1.15775,128.616l1.48066-1.43674c2.17926-1.92883,3.01846-2.68233,3.01846-4.07952
	c0-1.59271-1.25878-2.70871-2.96134-2.70871c-1.57953,0-2.61204,1.28516-2.61204,2.52856c0,0.78207,0.69859,0.78207,0.74033,0.78207
	c0.23726,0,0.72495-0.16915,0.72495-0.74033c0-0.36468-0.25044-0.72716-0.74033-0.72716c-0.10984,0-0.1384,0-0.18014,0.01319
	c0.32074-0.9073,1.07426-1.42355,1.88489-1.42355c1.27197,0,1.8717,1.13136,1.8717,2.27592
	c0,1.11819-0.69859,2.22099-1.46749,3.08656l-2.68014,2.9899c-0.15378,0.15378-0.15378,0.18013-0.15378,0.51625h5.18233
	l0.39104-2.42971h-0.3493c-0.0703,0.4196-0.16915,1.03252-0.30756,1.24342C4.90117,128.616,3.98069,128.616,3.67313,128.616H1.15775
	"/>
<path class="st1" d="M10.03298,129.69244c-0.54482,0-1.36863-0.3493-1.61907-1.68936
	c-0.15378-0.8392-0.15378-2.12434-0.15378-2.94817c0-0.89411,0-1.81458,0.10985-2.57029
	c0.26581-1.66081,1.3137-1.78604,1.663-1.78604c0.46133,0,1.38181,0.25045,1.64762,1.63445
	c0.1406,0.78207,0.1406,1.84315,0.1406,2.72189c0,1.04789,0,1.99693-0.15377,2.89104
	C11.45872,129.27284,10.66126,129.69244,10.03298,129.69244 M12.97893,125.22407c0-1.11819-0.06811-2.23637-0.55799-3.26889
	c-0.64148-1.34007-1.78823-1.56415-2.37479-1.56415c-0.83699,0-1.85632,0.36249-2.42969,1.66081
	c-0.44596,0.96441-0.51626,2.05404-0.51626,3.17223c0,1.0457,0.05492,2.3045,0.6283,3.36556
	C8.32823,129.72101,9.34976,130,10.03298,130c0.75352,0,1.81679-0.29437,2.42969-1.62128
	C12.91082,127.41652,12.97893,126.32689,12.97893,125.22407z"/>
<path class="st1" d="M22.54835,125.18234v2.86247c0,0.25044,0,0.27899-0.15381,0.51625
	c-0.41954,0.67004-1.04787,0.9776-1.64752,0.9776c-0.62833,0-1.13139-0.36247-1.46756-0.89412
	c-0.36246-0.57117-0.40422-1.36862-0.40422-1.94199c0-0.51626,0.02854-1.35325,0.43276-1.98155
	c0.29216-0.43278,0.8239-0.89412,1.57736-0.89412c0.48984,0,1.07642,0.2087,1.50918,0.83701
	C22.54835,124.90115,22.54835,124.9297,22.54835,125.18234 M22.54835,128.92355v0.92267l2.05188-0.15378v-0.43279
	c-0.97757,0-1.08752-0.09885-1.08752-0.78206V120l-2.01223,0.15377v0.43279c0.97758,0,1.08963,0.09666,1.08963,0.78207v3.01626
	c-0.40422-0.50307-1.00611-0.86556-1.75972-0.86556c-1.64752,0-3.11508,1.36863-3.11508,3.17004
	c0,1.77504,1.36858,3.15686,2.96141,3.15686C21.57077,129.84622,22.19911,129.3717,22.54835,128.92355z"/>
<path class="st1" d="M30.64592,129.25966h-1.7465c-0.65687,0-0.68541-0.09885-0.68541-0.55798v-3.81372h2.62734
	c1.38194,0,1.96837,1.29834,1.96837,2.23418C32.80972,128.11511,32.08269,129.25966,30.64592,129.25966 M31.51144,124.70562
	c1.35325-0.26363,2.31761-1.15772,2.31761-2.19244c0-1.21485-1.28506-2.35941-3.09961-2.35941h-5.11213v0.43279h0.33392
	c1.07641,0,1.1051,0.15378,1.1051,0.65685v7.35941c0,0.50307-0.02868,0.65685-1.1051,0.65685h-0.33392v0.43279h5.47459
	c1.85841,0,3.11508-1.24342,3.11508-2.55492C34.20698,125.92048,33.06026,124.87479,31.51144,124.70562z M28.21401,124.5804
	v-3.43585c0-0.46133,0.02854-0.55799,0.68541-0.55799h1.73104c1.3555,0,1.84323,1.18629,1.84323,1.92663
	c0,0.89411-0.6833,2.06721-2.23423,2.06721H28.21401z"/>
<path class="st1" d="M3.79838,76.95518H0.39114l3.40724-5.20869V76.95518z M3.71487,77.38796v1.21485
	c0,0.50307-0.02854,0.65685-1.06109,0.65685H2.35951v0.43278c0.57335-0.04174,1.30053-0.04174,1.88696-0.04174
	c0.58657,0,1.32696,0,1.89806,0.04174v-0.43278H5.85237c-1.03466,0-1.06109-0.15378-1.06109-0.65685v-1.21485h1.39501v-0.43279
	H4.79128v-6.35545c0-0.279,0-0.36247-0.22397-0.36247c-0.12527,0-0.16703,0-0.27908,0.16696L0,76.95518v0.43279H3.71487z"/>
<path class="st1" d="M10.11641,79.69244c-0.54482,0-1.36858-0.3493-1.61898-1.68936
	c-0.15381-0.8392-0.15381-2.12434-0.15381-2.94817c0-0.89411,0-1.81458,0.1098-2.57029
	c0.26587-1.66081,1.31374-1.78604,1.66299-1.78604c0.46144,0,1.38193,0.25045,1.64767,1.63445
	c0.1406,0.78207,0.1406,1.84315,0.1406,2.72189c0,1.04789,0,1.99693-0.15381,2.89104
	C11.54221,79.27285,10.74474,79.69244,10.11641,79.69244 M13.06249,75.22407c0-1.11819-0.06818-2.23637-0.55803-3.26889
	c-0.64154-1.34007-1.78825-1.56415-2.37483-1.56415c-0.83698,0-1.85631,0.36249-2.42967,1.66081
	c-0.44597,0.96441-0.51627,2.05404-0.51627,3.17223c0,1.0457,0.05497,2.3045,0.62833,3.36556C8.41167,79.721,9.43325,80,10.11641,80
	c0.7536,0,1.8168-0.29437,2.42981-1.62127C12.99431,77.41652,13.06249,76.32689,13.06249,75.22407z"/>
<path class="st1" d="M22.77244,75.18234v2.86246c0,0.25045,0,0.279-0.15381,0.51626c-0.41954,0.67004-1.04787,0.9776-1.64753,0.9776
	c-0.62833,0-1.13139-0.36248-1.46755-0.89411c-0.36246-0.57117-0.40422-1.36863-0.40422-1.942
	c0-0.51626,0.02855-1.35325,0.43276-1.98155c0.29216-0.43278,0.8239-0.89412,1.57736-0.89412
	c0.48985,0,1.07642,0.2087,1.50918,0.83701C22.77244,74.90115,22.77244,74.9297,22.77244,75.18234 M22.77244,78.92355v0.92267
	l2.05188-0.15378v-0.43278c-0.97758,0-1.08752-0.09886-1.08752-0.78207V70l-2.01224,0.15377v0.43279
	c0.97758,0,1.08963,0.09666,1.08963,0.78207v3.01626c-0.40422-0.50307-1.00611-0.86556-1.75972-0.86556
	c-1.64753,0-3.11508,1.36863-3.11508,3.17004c0,1.77505,1.36858,3.15686,2.9614,3.15686
	C21.79487,79.84622,22.4232,79.3717,22.77244,78.92355z"/>
<path class="st1" d="M30.72942,79.25967h-1.7465c-0.65687,0-0.68541-0.09886-0.68541-0.558v-3.81371h2.62734
	c1.38193,0,1.96837,1.29834,1.96837,2.23418C32.89322,78.1151,32.16618,79.25967,30.72942,79.25967 M31.59494,74.70562
	c1.35325-0.26363,2.31762-1.15772,2.31762-2.19244c0-1.21485-1.28507-2.35941-3.09962-2.35941h-5.11212v0.43279h0.33392
	c1.07642,0,1.1051,0.15378,1.1051,0.65685v7.35941c0,0.50307-0.02868,0.65685-1.1051,0.65685h-0.33392v0.43278h5.47458
	c1.85843,0,3.11509-1.24342,3.11509-2.55492C34.29048,75.92048,33.14376,74.87479,31.59494,74.70562z M28.2975,74.5804v-3.43585
	c0-0.46133,0.02854-0.55799,0.68541-0.55799h1.73104c1.3555,0,1.84323,1.18629,1.84323,1.92663
	c0,0.89411-0.6833,2.06721-2.23424,2.06721H28.2975z"/>
<path class="st1" d="M3.01744,29.60896c-0.88098,0-1.30053-0.83919-1.38404-1.04789
	c-0.25041-0.65686-0.25041-1.77285-0.25041-2.02548c0-1.08963,0.44584-2.48463,1.70474-2.48463c0.22187,0,0.86552,0,1.29828,0.86555
	c0.2504,0.51626,0.2504,1.22803,0.2504,1.91345c0,0.67003,0,1.36863-0.23719,1.87171
	C3.97955,29.53866,3.33814,29.60896,3.01744,29.60896 M1.35431,25.11204v-0.33613c0-3.53251,1.73343-4.03558,2.44513-4.03558
	c0.33392,0,0.92049,0.08348,1.22798,0.558c-0.20865,0-0.76668,0-0.76668,0.62829c0,0.43277,0.33392,0.64367,0.64154,0.64367
	c0.22411,0,0.64141-0.12741,0.64141-0.67222c0-0.83699-0.61287-1.50704-1.7728-1.50704c-1.78826,0-3.67311,1.80141-3.67311,4.88797
	c0,3.72803,1.61912,4.721,2.91965,4.721c1.54868,0,2.87564-1.31371,2.87564-3.15685c0-1.77285-1.2412-3.11512-2.79226-3.11512
	C2.15178,23.72803,1.6334,24.442,1.35431,25.11204z"/>
<path class="st1" d="M10.01864,29.69244c-0.54482,0-1.36858-0.3493-1.61898-1.68936
	c-0.15382-0.8392-0.15382-2.12434-0.15382-2.94816c0-0.89412,0-1.81458,0.10981-2.57029
	c0.26587-1.66081,1.31374-1.78604,1.66299-1.78604c0.46144,0,1.38193,0.25045,1.64766,1.63445
	c0.1406,0.78207,0.1406,1.84315,0.1406,2.72188c0,1.04789,0,1.99692-0.15381,2.89104
	C11.44443,29.27285,10.64697,29.69244,10.01864,29.69244 M12.96471,25.22407c0-1.11819-0.06819-2.23637-0.55804-3.26889
	c-0.64155-1.34006-1.78826-1.56415-2.37483-1.56415c-0.83698,0-1.85631,0.36249-2.42967,1.66081
	c-0.44597,0.96441-0.51628,2.05405-0.51628,3.17223c0,1.04569,0.05497,2.30449,0.62833,3.36556
	C8.31389,29.721,9.33547,30,10.01864,30c0.7536,0,1.8168-0.29438,2.4298-1.62127
	C12.89652,27.41652,12.96471,26.32689,12.96471,25.22407z"/>
<path class="st1" d="M22.67466,25.18234v2.86247c0,0.25045,0,0.279-0.15381,0.51626
	c-0.41954,0.67004-1.04787,0.97759-1.64752,0.97759c-0.62833,0-1.13139-0.36248-1.46756-0.89411
	c-0.36247-0.57117-0.40422-1.36863-0.40422-1.942c0-0.51626,0.02853-1.35325,0.43276-1.98155
	c0.29215-0.43277,0.8239-0.89412,1.57736-0.89412c0.48985,0,1.07642,0.2087,1.50918,0.837
	C22.67466,24.90115,22.67466,24.9297,22.67466,25.18234 M22.67466,28.92355v0.92267l2.05189-0.15378v-0.43278
	c-0.97758,0-1.08752-0.09886-1.08752-0.78207V20l-2.01224,0.15377v0.43279c0.97758,0,1.08963,0.09666,1.08963,0.78207v3.01625
	c-0.40422-0.50307-1.00611-0.86556-1.75972-0.86556c-1.64752,0-3.11508,1.36863-3.11508,3.17004
	c0,1.77504,1.36858,3.15686,2.96141,3.15686C21.69708,29.84622,22.32541,29.3717,22.67466,28.92355z"/>
<path class="st1" d="M30.63163,29.25966h-1.74651c-0.65686,0-0.68541-0.09886-0.68541-0.55799v-3.81371h2.62734
	c1.38194,0,1.96837,1.29833,1.96837,2.23418C32.79543,28.11511,32.06839,29.25966,30.63163,29.25966 M31.49715,24.70562
	c1.35325-0.26362,2.31761-1.15772,2.31761-2.19244c0-1.21485-1.28506-2.35941-3.09961-2.35941h-5.11213v0.43279h0.33392
	c1.07641,0,1.10509,0.15377,1.10509,0.65684v7.35941c0,0.50307-0.02868,0.65685-1.10509,0.65685h-0.33392v0.43278h5.47459
	c1.85842,0,3.11508-1.24342,3.11508-2.55492C34.19269,25.92048,33.04598,24.87478,31.49715,24.70562z M28.19972,24.5804v-3.43585
	c0-0.46133,0.02855-0.55799,0.68541-0.55799h1.73104c1.3555,0,1.84324,1.18629,1.84324,1.92662
	c0,0.89412-0.68331,2.06722-2.23424,2.06722H28.19972z"/>
<path class="st1" d="M80.67216,181.73114c0-0.37151,0-0.40329-0.35682-0.40329c-0.96297,0.99478-2.33172,0.99478-2.82791,0.99478
	v0.48151c0.31036,0,1.22703,0,2.03593-0.40329v8.04874c0,0.55971-0.04631,0.74547-1.44697,0.74547h-0.49603v0.48151
	c0.5425-0.04643,1.89669-0.04643,2.5174-0.04643c0.62087,0,1.97256,0,2.51756,0.04643v-0.48151h-0.49853
	c-1.39816,0-1.44462-0.1711-1.44462-0.74547V181.73114"/>
<path class="st1" d="M87.7945,191.67656c-0.60616,0-1.52267-0.38863-1.80128-1.87958
	c-0.17113-0.93369-0.17113-2.36354-0.17113-3.28011c0-0.9948,0-2.01891,0.12217-2.85971
	c0.2958-1.84781,1.46166-1.98714,1.85023-1.98714c0.51339,0,1.53753,0.27866,1.83318,1.81848
	c0.15643,0.87013,0.15643,2.05069,0.15643,3.02837c0,1.16586,0,2.22176-0.17113,3.21655
	C89.38084,191.20972,88.49358,191.67656,87.7945,191.67656 M91.0723,186.70506c0-1.24408-0.07587-2.48817-0.62086-3.63695
	c-0.71378-1.49095-1.98961-1.74026-2.64223-1.74026c-0.93121,0-2.06533,0.40329-2.70324,1.84781
	c-0.49619,1.073-0.57439,2.28532-0.57439,3.5294c0,1.16344,0.06115,2.56398,0.69907,3.74452
	c0.66717,1.25876,1.80377,1.56917,2.56386,1.56917c0.83845,0,2.02136-0.32753,2.70339-1.80382
	C90.99643,189.14438,91.0723,187.93207,91.0723,186.70506z"/>
<path class="st1" d="M99.92754,182.62083c0.17599,0,0.43988,0,0.43988-0.26398c0-0.27374-0.25169-0.27374-0.43988-0.27374h-6.55293
	c-0.17598,0-0.43988,0-0.43988,0.26398c0,0.27374,0.2517,0.27374,0.43988,0.27374H99.92754"/>
<path class="st1" d="M105.2857,178.11374c0-0.29819-0.0219-0.30797-0.33008-0.30797
	c-0.70392,0.69171-1.7035,0.70148-2.15558,0.70148v0.39595c0.2628,0,0.98862,0,1.59557-0.30795v5.60942
	c0,0.36418,0,0.50594-1.09969,0.50594h-0.41767v0.39597c0.1971-0.00977,1.54865-0.04399,1.95692-0.04399
	c0.33947,0,1.72541,0.03423,1.96787,0.04399v-0.39597h-0.41766c-1.09968,0-1.09968-0.14175-1.09968-0.50594V178.11374"/>
<path class="st1" d="M142.72539,181.53728c0-0.3475,0-0.37724-0.33359-0.37724c-0.89987,0.93051-2.18016,0.93051-2.64546,0.93051
	v0.45038c0.29118,0,1.14861,0,1.90508-0.37723v7.52858c0,0.52354-0.04388,0.6973-1.35345,0.6973h-0.46384v0.45039
	c0.50775-0.04344,1.77341-0.04344,2.35428-0.04344c0.5809,0,1.84509,0,2.35574,0.04344v-0.45039h-0.46677
	c-1.30807,0-1.35199-0.16003-1.35199-0.6973V181.53728"/>
<path class="st1" d="M188.80331,181.97881c0-0.34752,0-0.37724-0.33359-0.37724c-0.89986,0.9305-2.18015,0.9305-2.64545,0.9305
	v0.45039c0.29117,0,1.14859,0,1.90508-0.37723v7.52858c0,0.52354-0.04388,0.6973-1.35345,0.6973h-0.46384v0.45039
	c0.50774-0.04344,1.77341-0.04344,2.35428-0.04344c0.58089,0,1.84509,0,2.35574,0.04344v-0.45039h-0.46677
	c-1.30809,0-1.35201-0.16003-1.35201-0.6973V181.97881"/>
<path class="st1" d="M195.46524,191.28149c-0.56625,0-1.42369-0.36353-1.68413-1.75812
	c-0.1595-0.87335-0.1595-2.2108-0.1595-3.06813c0-0.93051,0-1.88843,0.11414-2.6749
	c0.27655-1.72839,1.36662-1.85872,1.72949-1.85872c0.4814,0,1.43832,0.26064,1.71486,1.70096
	c0.14632,0.8139,0.14632,1.91815,0.14632,2.83266c0,1.09053,0,2.07819-0.1595,3.00868
	C196.95038,190.84482,196.11928,191.28149,195.46524,191.28149 M198.53207,186.63127c0-1.16368-0.07169-2.32738-0.58087-3.40192
	c-0.66721-1.39459-1.86118-1.62779-2.47134-1.62779c-0.87059,0-1.9314,0.37724-2.52837,1.72839
	c-0.46385,1.00366-0.537,2.13763-0.537,3.30132c0,1.08826,0.05707,2.39828,0.65257,3.50253
	c0.62479,1.1774,1.68854,1.46776,2.39818,1.46776c0.78427,0,1.89191-0.30635,2.52986-1.68726
	C198.46039,188.91295,198.53207,187.77898,198.53207,186.63127z"/>
<path class="st1" d="M235.72298,181.86604c0-0.35088,0-0.38091-0.33684-0.38091c-0.90862,0.93954-2.20134,0.93954-2.67117,0.93954
	v0.45476c0.29401,0,1.15976,0,1.92358-0.38089v7.60172c0,0.52863-0.0443,0.70407-1.36658,0.70407h-0.46837v0.45476
	c0.51268-0.04385,1.79065-0.04385,2.37715-0.04385c0.58653,0,1.86302,0,2.37863,0.04385v-0.45476h-0.4713
	c-1.3208,0-1.36511-0.16159-1.36511-0.70407V181.86604"/>
<path class="st1" d="M242.44958,191.25909c-0.57175,0-1.4375-0.36703-1.7005-1.77519
	c-0.16103-0.88182-0.16103-2.23225-0.16103-3.09793c0-0.93954,0-1.90677,0.11525-2.70087
	c0.27922-1.74519,1.37988-1.87679,1.74628-1.87679c0.48608,0,1.45232,0.26317,1.73151,1.71748
	c0.14775,0.82181,0.14775,1.9368,0.14775,2.86017c0,1.10112,0,2.09837-0.16103,3.03792
	C243.94914,190.81819,243.11,191.25909,242.44958,191.25909 M245.54622,186.56372c0-1.175-0.07239-2.34999-0.58652-3.43497
	c-0.67369-1.40814-1.87926-1.64362-2.49535-1.64362c-0.87904,0-1.95016,0.38091-2.55293,1.74519
	c-0.46834,1.0134-0.54221,2.15839-0.54221,3.33339c0,1.09882,0.05762,2.42157,0.65892,3.53654
	c0.63084,1.18884,1.70491,1.48201,2.42145,1.48201c0.79189,0,1.91031-0.30933,2.55444-1.70363
	C245.47383,188.86755,245.54622,187.72256,245.54622,186.56372z"/>
<path class="st1" d="M251.57552,183.16339h-0.3531c-0.02953,0.22853-0.13445,0.84258-0.27036,0.94646
	c-0.08273,0.06232-0.88202,0.06232-1.02681,0.06232h-1.91174c1.09033-0.96722,1.45375-1.25809,2.07721-1.74518
	c0.76974-0.61404,1.4848-1.2581,1.4848-2.2438c0-1.2581-1.10066-2.02451-2.43031-2.02451c-1.28831,0-2.16144,0.9026-2.16144,1.85829
	c0,0.52866,0.44762,0.58173,0.55254,0.58173c0.2482,0,0.54958-0.17773,0.54958-0.5517c0-0.187-0.07237-0.54942-0.6131-0.54942
	c0.32207-0.73869,1.02824-0.96724,1.51727-0.96724c1.03862,0,1.57935,0.81027,1.57935,1.65285
	c0,0.9026-0.64415,1.62053-0.97656,1.99449l-2.5042,2.47235c-0.10487,0.09233-0.10487,0.11311-0.10487,0.40398h4.28001
	L251.57552,183.16339"/>
<path class="st1" d="M285.62238,181.786c0-0.35378,0-0.38405-0.3396-0.38405c-0.91608,0.94728-2.21948,0.94728-2.69318,0.94728
	v0.45851c0.29645,0,1.16934,0,1.93945-0.38403v7.66434c0,0.53299-0.04471,0.70988-1.37787,0.70988h-0.4722v0.45851
	c0.51691-0.04422,1.80536-0.04422,2.39673-0.04422s1.87836,0,2.39822,0.04422v-0.45851h-0.47519
	c-1.33167,0-1.37637-0.16292-1.37637-0.70988V181.786"/>
<path class="st1" d="M292.55338,191.25644c-0.57645,0-1.44934-0.37007-1.71451-1.78983
	c-0.16235-0.88908-0.16235-2.25066-0.16235-3.12346c0-0.94728,0-1.92247,0.11618-2.72311
	c0.28156-1.75957,1.3913-1.89224,1.76068-1.89224c0.49008,0,1.46426,0.26534,1.74579,1.73163
	c0.14896,0.82858,0.14896,1.95274,0.14896,2.88373c0,1.1102,0,2.11566-0.16235,3.06294
	C294.06531,190.81189,293.21924,191.25644,292.55338,191.25644 M295.67554,186.52237c0-1.18468-0.073-2.36935-0.59137-3.46326
	c-0.67923-1.41975-1.89474-1.65717-2.51587-1.65717c-0.88632,0-1.96628,0.38405-2.57401,1.75957
	c-0.4722,1.02176-0.54666,2.17618-0.54666,3.36086c0,1.10788,0.05807,2.44151,0.66434,3.56567
	c0.63605,1.19865,1.71899,1.49423,2.44141,1.49423c0.79843,0,1.92606-0.31187,2.57547-1.71767
	C295.60254,188.84518,295.67554,187.69077,295.67554,186.52237z"/>
<path class="st1" d="M299.17603,181.50204c0.81631,0,1.40317,0.56557,1.40317,1.68739c0,1.29874-0.75369,1.68509-1.36145,1.68509
	c-0.41858,0-1.34061-0.11404-1.78003-0.73314c0.49304-0.02097,0.60623-0.36542,0.60623-0.58652
	c0-0.33516-0.25024-0.57489-0.57498-0.57489c-0.29193,0-0.58539,0.17688-0.58539,0.60747c0,0.98451,1.08887,1.62224,2.35501,1.62224
	c1.45682,0,2.46228-0.97287,2.46228-2.02025c0-0.81693-0.67032-1.63387-1.82175-1.87592
	c1.09784-0.39801,1.49551-1.18236,1.49551-1.8224c0-0.82626-0.95181-1.44304-2.11517-1.44304
	c-1.1619,0-2.05264,0.56326-2.05264,1.40114c0,0.35611,0.2309,0.55626,0.5452,0.55626c0.32471,0,0.53473-0.24207,0.53473-0.53531
	c0-0.30258-0.21002-0.52368-0.53473-0.54463c0.36642-0.46083,1.08887-0.57487,1.47766-0.57487
	c0.46918,0,1.13058,0.23041,1.13058,1.14046c0,0.43988-0.146,0.92166-0.41858,1.24751
	c-0.34708,0.39799-0.6405,0.41895-1.16336,0.44919c-0.26068,0.02097-0.28152,0.02097-0.33514,0.03259
	c-0.02087,0-0.10577,0.02095-0.10577,0.13499c0,0.14664,0.09534,0.14664,0.27261,0.14664H299.17603"/>
<polyline class="st2" points="42.14524,25.19551 142.14523,25.19551 242.04749,125.09776 315.14523,125.09776 "/>
<g>
</g>
<g>
</g>
<g>
</g>
<g>
</g>
<g>
</g>
<g>
</g>
<g>
</g>
<g>
</g>
<g>
</g>
<g>
</g>
<g>
</g>
<g>
</g>
</svg>
