<?xml version="1.0" encoding="utf-8"?>
<!-- Generator: Adobe Illustrator 23.0.3, SVG Export Plug-In . SVG Version: 6.00 Build 0)  -->
<svg version="1.1" id="Layer_1" xmlns="http://www.w3.org/2000/svg" xmlns:xlink="http://www.w3.org/1999/xlink" x="0px" y="0px"
	 viewBox="0 0 361.32874 167.01875" style="enable-background:new 0 0 361.32874 167.01875;" xml:space="preserve">
<style type="text/css">
	.st0{fill:none;stroke:#8FF4DD;stroke-width:2;stroke-miterlimit:10;}
	.st1{fill:#8FF4DD;}
	.st2{fill:none;stroke:#FD1D53;stroke-width:2;stroke-linecap:round;stroke-miterlimit:10;}
</style>
<g>
	<g>
		<polyline class="st0" points="36.32874,3.95598 36.32874,150 357.37274,150 		"/>
		<g>
			<polygon class="st1" points="31.87582,12.23161 33.19242,12.71011 36.32874,4.09276 39.46507,12.71011 40.78031,12.23161 
				36.32874,0 			"/>
		</g>
		<g>
			<polygon class="st1" points="349.09714,154.45293 348.61862,153.13632 357.23596,150 348.61862,146.86368 349.09714,145.54843 
				361.32874,150 			"/>
		</g>
	</g>
</g>
<path class="st1" d="M76.85567,156.73114c0-0.37151,0-0.40329-0.35682-0.40329c-0.96297,0.99478-2.33173,0.99478-2.82791,0.99478
	v0.48151c0.31036,0,1.22702,0,2.03592-0.40329v8.04874c0,0.55971-0.0463,0.74547-1.44697,0.74547h-0.49603v0.48151
	c0.5425-0.04643,1.8967-0.04643,2.5174-0.04643c0.62086,0,1.97256,0,2.51755,0.04643v-0.48151h-0.49853
	c-1.39816,0-1.44461-0.1711-1.44461-0.74547V156.73114"/>
<path class="st1" d="M83.97801,166.67656c-0.60617,0-1.52268-0.38863-1.80128-1.87958
	c-0.17113-0.93369-0.17113-2.36354-0.17113-3.28011c0-0.9948,0-2.01891,0.12218-2.85971
	c0.29579-1.84781,1.46165-1.98714,1.85023-1.98714c0.51338,0,1.53752,0.27866,1.83318,1.81848
	c0.15643,0.87013,0.15643,2.05069,0.15643,3.02837c0,1.16586,0,2.22176-0.17113,3.21655
	C85.56435,166.20972,84.67709,166.67656,83.97801,166.67656 M87.25581,161.70506c0-1.24408-0.07587-2.48817-0.62087-3.63695
	c-0.71378-1.49095-1.9896-1.74026-2.64222-1.74026c-0.93121,0-2.06533,0.40329-2.70325,1.84781
	c-0.49619,1.073-0.57439,2.28532-0.57439,3.5294c0,1.16344,0.06115,2.56398,0.69907,3.74452
	c0.66717,1.25876,1.80378,1.56917,2.56387,1.56917c0.83845,0,2.02136-0.32753,2.70338-1.80382
	C87.17994,164.14438,87.25581,162.93207,87.25581,161.70506z"/>
<path class="st1" d="M96.11105,157.62083c0.17598,0,0.43988,0,0.43988-0.26398c0-0.27374-0.2517-0.27374-0.43988-0.27374h-6.55293
	c-0.17599,0-0.43988,0-0.43988,0.26398c0,0.27374,0.25169,0.27374,0.43988,0.27374H96.11105"/>
<path class="st1" d="M101.4692,153.11374c0-0.29819-0.0219-0.30797-0.33007-0.30797
	c-0.70393,0.69171-1.7035,0.70148-2.15558,0.70148v0.39595c0.26279,0,0.98862,0,1.59556-0.30795v5.60942
	c0,0.36418,0,0.50594-1.09968,0.50594h-0.41768v0.39597c0.19711-0.00977,1.54865-0.04399,1.95692-0.04399
	c0.33946,0,1.72541,0.03423,1.96787,0.04399v-0.39597h-0.41766c-1.09969,0-1.09969-0.14175-1.09969-0.50594v-6.09093"/>
<path class="st1" d="M136.90891,156.53728c0-0.3475,0-0.37724-0.3336-0.37724c-0.89987,0.93051-2.18016,0.93051-2.64546,0.93051
	v0.45038c0.29118,0,1.14861,0,1.90508-0.37723v7.52858c0,0.52354-0.04388,0.6973-1.35344,0.6973h-0.46385v0.45039
	c0.50775-0.04344,1.77341-0.04344,2.35429-0.04344s1.84508,0,2.35573,0.04344v-0.45039h-0.46677
	c-1.30807,0-1.35197-0.16003-1.35197-0.6973V156.53728"/>
<path class="st1" d="M182.98683,156.97881c0-0.34752,0-0.37724-0.3336-0.37724c-0.89986,0.9305-2.18015,0.9305-2.64545,0.9305
	v0.45039c0.29117,0,1.14859,0,1.90508-0.37723v7.52858c0,0.52354-0.04388,0.6973-1.35345,0.6973h-0.46384v0.45039
	c0.50774-0.04344,1.77341-0.04344,2.35429-0.04344c0.58087,0,1.84508,0,2.35573,0.04344v-0.45039h-0.46677
	c-1.30809,0-1.35199-0.16003-1.35199-0.6973V156.97881"/>
<path class="st1" d="M189.64874,166.28149c-0.56625,0-1.42368-0.36353-1.68413-1.75812
	c-0.15948-0.87335-0.15948-2.2108-0.15948-3.06813c0-0.93051,0-1.88843,0.11412-2.6749
	c0.27655-1.72839,1.36662-1.85872,1.72949-1.85872c0.4814,0,1.43832,0.26064,1.71486,1.70096
	c0.14632,0.8139,0.14632,1.91815,0.14632,2.83266c0,1.09053,0,2.07819-0.15948,3.00868
	C191.13388,165.84482,190.30278,166.28149,189.64874,166.28149 M192.71558,161.63127c0-1.16368-0.07169-2.32738-0.58087-3.40192
	c-0.66721-1.39459-1.86118-1.62779-2.47133-1.62779c-0.87059,0-1.93141,0.37724-2.52838,1.72839
	c-0.46385,1.00366-0.537,2.13763-0.537,3.30132c0,1.08826,0.05707,2.39828,0.65257,3.50253
	c0.62479,1.1774,1.68854,1.46776,2.39818,1.46776c0.78427,0,1.89191-0.30635,2.52986-1.68726
	C192.64389,163.91295,192.71558,162.77898,192.71558,161.63127z"/>
<path class="st1" d="M229.90648,156.86604c0-0.35088,0-0.38091-0.33684-0.38091c-0.90862,0.93954-2.20134,0.93954-2.67117,0.93954
	v0.45476c0.29401,0,1.15977,0,1.92358-0.38089v7.60172c0,0.52863-0.0443,0.70407-1.36658,0.70407h-0.46837v0.45476
	c0.51268-0.04385,1.79065-0.04385,2.37717-0.04385c0.58653,0,1.86301,0,2.37862,0.04385v-0.45476h-0.4713
	c-1.32079,0-1.36511-0.16159-1.36511-0.70407V156.86604"/>
<path class="st1" d="M236.63309,166.25909c-0.57175,0-1.4375-0.36703-1.70049-1.77519
	c-0.16103-0.88182-0.16103-2.23225-0.16103-3.09793c0-0.93954,0-1.90677,0.11523-2.70087
	c0.27922-1.74519,1.37988-1.87679,1.74628-1.87679c0.48608,0,1.45232,0.26317,1.73152,1.71748
	c0.14775,0.82181,0.14775,1.9368,0.14775,2.86017c0,1.10112,0,2.09837-0.16104,3.03792
	C238.13266,165.81819,237.2935,166.25909,236.63309,166.25909 M239.72972,161.56372c0-1.175-0.07239-2.34999-0.58652-3.43497
	c-0.67369-1.40814-1.87926-1.64362-2.49535-1.64362c-0.87903,0-1.95016,0.38091-2.55293,1.74519
	c-0.46834,1.0134-0.54221,2.15839-0.54221,3.33339c0,1.09882,0.05762,2.42157,0.65892,3.53654
	c0.63086,1.18884,1.70491,1.48201,2.42145,1.48201c0.79189,0,1.91031-0.30933,2.55444-1.70363
	C239.65733,163.86755,239.72972,162.72256,239.72972,161.56372z"/>
<path class="st1" d="M245.75902,158.16339h-0.3531c-0.02953,0.22853-0.13445,0.84258-0.27036,0.94646
	c-0.08273,0.06232-0.88202,0.06232-1.02681,0.06232h-1.91174c1.09033-0.96722,1.45375-1.25809,2.07721-1.74518
	c0.76974-0.61404,1.4848-1.2581,1.4848-2.2438c0-1.2581-1.10066-2.02451-2.43031-2.02451c-1.28831,0-2.16144,0.9026-2.16144,1.85829
	c0,0.52866,0.44762,0.58173,0.55254,0.58173c0.2482,0,0.54959-0.17773,0.54959-0.5517c0-0.187-0.07239-0.54942-0.61311-0.54942
	c0.32207-0.73869,1.02824-0.96724,1.51727-0.96724c1.03862,0,1.57935,0.81027,1.57935,1.65285
	c0,0.9026-0.64415,1.62053-0.97655,1.99449l-2.50421,2.47235c-0.10487,0.09233-0.10487,0.11311-0.10487,0.40398h4.28001
	L245.75902,158.16339"/>
<path class="st1" d="M279.80588,156.786c0-0.35378,0-0.38405-0.3396-0.38405c-0.91608,0.94728-2.21945,0.94728-2.69318,0.94728
	v0.45851c0.29645,0,1.16934,0,1.93945-0.38403v7.66434c0,0.53299-0.04471,0.70988-1.37787,0.70988h-0.4722v0.45851
	c0.51691-0.04422,1.80536-0.04422,2.39673-0.04422s1.87836,0,2.39822,0.04422v-0.45851h-0.47519
	c-1.33167,0-1.37637-0.16292-1.37637-0.70988V156.786"/>
<path class="st1" d="M286.73688,166.25644c-0.57645,0-1.44934-0.37007-1.71451-1.78983
	c-0.16235-0.88908-0.16235-2.25066-0.16235-3.12346c0-0.94728,0-1.92247,0.11621-2.72311
	c0.28152-1.75957,1.39127-1.89224,1.76065-1.89224c0.49008,0,1.46429,0.26534,1.74579,1.73163
	c0.14896,0.82858,0.14896,1.95274,0.14896,2.88373c0,1.1102,0,2.11566-0.16235,3.06294
	C288.24881,165.81189,287.40274,166.25644,286.73688,166.25644 M289.85904,161.52237c0-1.18468-0.073-2.36935-0.59137-3.46326
	c-0.67923-1.41975-1.89474-1.65717-2.51587-1.65717c-0.88632,0-1.96625,0.38405-2.57401,1.75957
	c-0.4722,1.02176-0.54666,2.17618-0.54666,3.36086c0,1.10788,0.05807,2.44151,0.66434,3.56567
	c0.63605,1.19865,1.71899,1.49423,2.44141,1.49423c0.79843,0,1.92606-0.31187,2.57547-1.71767
	C289.78604,163.84518,289.85904,162.69077,289.85904,161.52237z"/>
<path class="st1" d="M293.35953,156.50204c0.81631,0,1.4032,0.56557,1.4032,1.68739c0,1.29874-0.75372,1.68509-1.36148,1.68509
	c-0.41855,0-1.34061-0.11404-1.78003-0.73314c0.49304-0.02097,0.60623-0.36542,0.60623-0.58652
	c0-0.33516-0.25024-0.57489-0.57495-0.57489c-0.29196,0-0.58539,0.17688-0.58539,0.60747c0,0.98451,1.08884,1.62224,2.35501,1.62224
	c1.45679,0,2.46225-0.97287,2.46225-2.02025c0-0.81693-0.67029-1.63387-1.82175-1.87592
	c1.09784-0.39801,1.49551-1.18236,1.49551-1.8224c0-0.82626-0.95181-1.44304-2.11517-1.44304
	c-1.1619,0-2.05264,0.56326-2.05264,1.40114c0,0.35611,0.2309,0.55626,0.5452,0.55626c0.32471,0,0.53473-0.24207,0.53473-0.53531
	c0-0.30258-0.21002-0.52368-0.53473-0.54463c0.36642-0.46083,1.08887-0.57487,1.47766-0.57487
	c0.46918,0,1.13058,0.23041,1.13058,1.14046c0,0.43988-0.146,0.92166-0.41858,1.24751
	c-0.34708,0.39799-0.6405,0.41895-1.16333,0.44919c-0.26068,0.02097-0.28156,0.02097-0.33517,0.03259
	c-0.02087,0-0.10577,0.02095-0.10577,0.13499c0,0.14664,0.09534,0.14664,0.27261,0.14664H293.35953"/>
<path class="st1" d="M23.46361,30.18699c-0.55447,0-1.39289-0.35549-1.64776-1.71931
	c-0.15651-0.85407-0.15651-2.16199-0.15651-3.00041c0-0.90996,0-1.84674,0.11179-2.61584
	c0.27053-1.69024,1.33699-1.8177,1.69248-1.8177c0.46951,0,1.4063,0.25489,1.67682,1.66342
	c0.14309,0.79593,0.14309,1.87582,0.14309,2.77012c0,1.06646,0,2.03231-0.1565,2.94228
	C24.91462,29.75996,24.10303,30.18699,23.46361,30.18699 M26.46177,25.63942c0-1.138-0.06931-2.27601-0.56788-3.32683
	c-0.65285-1.36382-1.81993-1.59187-2.41688-1.59187c-0.85183,0-1.88923,0.36891-2.47276,1.69024
	c-0.45386,0.98151-0.52541,2.09045-0.52541,3.22845c0,1.06423,0.05589,2.34534,0.63943,3.42521
	c0.61036,1.15142,1.65,1.43537,2.34533,1.43537c0.76687,0,1.84899-0.29959,2.47276-1.65001
	C26.39246,27.87073,26.46177,26.76179,26.46177,25.63942z"/>
<path class="st1" d="M30.01666,23.32316c-0.94574,0-1.67013-0.76463-1.67013-1.66117c0-0.93456,0.74451-1.67012,1.67013-1.67012
	c0.94572,0,1.67011,0.76463,1.67011,1.66118C31.68677,22.5876,30.94226,23.32316,30.01666,23.32316 M32.17864,21.66199
	c0-1.21626-0.97479-2.16199-2.16198-2.16199c-1.20732,0-2.16423,0.9748-2.16423,2.15305c0,1.21626,0.97703,2.16198,2.16423,2.16198
	C31.22398,23.81503,32.17864,22.84024,32.17864,21.66199z"/>
<path class="st1" d="M8.18743,126.91829c0.24139,0,0.49638,0,0.49638-0.28394c0-0.28618-0.25498-0.28618-0.49638-0.28618H0.49638
	c-0.24153,0-0.49638,0-0.49638,0.28618c0,0.28394,0.25484,0.28394,0.49638,0.28394H8.18743"/>
<path class="st1" d="M16.58278,126.76179c-0.22808,0-0.881,0-1.32143-0.89654c-0.25713-0.52541-0.25713-1.2364-0.25713-1.93171
	c0-0.7691,0-1.43537,0.29963-1.96301c0.38233-0.71097,0.92336-0.89431,1.41973-0.89431c0.65506,0,1.12454,0.48293,1.36608,1.12236
	c0.16985,0.45386,0.22808,1.35041,0.22808,2.00326C18.31774,125.38232,17.83252,126.76179,16.58278,126.76179 M18.3445,125.66625
	v0.4561c0,3.32459-1.47783,3.97968-2.30288,3.97968c-0.24139,0-1.00821-0.02907-1.39283-0.51199
	c0.62602,0,0.74006-0.41138,0.74006-0.65285c0-0.44267-0.34213-0.65508-0.65506-0.65508c-0.22579,0-0.65292,0.12743-0.65292,0.6819
	c0,0.95244,0.76696,1.53598,1.97649,1.53598c1.83327,0,3.56608-1.93394,3.56608-4.99024c0-3.82318-1.63437-4.78903-2.89985-4.78903
	c-0.78027,0-1.47783,0.25488-2.08825,0.89431c-0.58352,0.63943-0.90991,1.23639-0.90991,2.30285
	c0,1.77744,1.24975,3.17032,2.8439,3.17032C17.43459,127.0882,18.01811,126.49126,18.3445,125.66625z"/>
<path class="st1" d="M23.8221,130.187c-0.55447,0-1.39284-0.3555-1.64768-1.71931c-0.15654-0.85406-0.15654-2.16199-0.15654-3.00041
	c0-0.90996,0-1.84674,0.11175-2.61584c0.27058-1.69025,1.33703-1.8177,1.69246-1.8177c0.46962,0,1.40642,0.25489,1.67686,1.66342
	c0.14309,0.79593,0.14309,1.87582,0.14309,2.77012c0,1.06646,0,2.03232-0.15654,2.94228
	C25.27317,129.75996,24.46157,130.187,23.8221,130.187 M26.8204,125.63943c0-1.13801-0.0694-2.27602-0.56792-3.32684
	c-0.65292-1.36381-1.81995-1.59187-2.41692-1.59187c-0.85181,0-1.88921,0.36891-2.47273,1.69024
	c-0.45388,0.98151-0.52542,2.09045-0.52542,3.22846c0,1.06422,0.05595,2.34533,0.63947,3.42521
	c0.61028,1.15141,1.64997,1.43536,2.34524,1.43536c0.76695,0,1.849-0.29959,2.47286-1.65001
	C26.751,127.87074,26.8204,126.76179,26.8204,125.63943z"/>
<path class="st1" d="M30.37517,123.32317c-0.94568,0-1.67014-0.76463-1.67014-1.66117c0-0.93456,0.74463-1.67013,1.67014-1.67013
	c0.94582,0,1.67014,0.76463,1.67014,1.66119C32.04531,122.5876,31.30081,123.32317,30.37517,123.32317 M32.53725,121.66199
	c0-1.21626-0.97487-2.16199-2.16208-2.16199c-1.20725,0-2.16422,0.9748-2.16422,2.15305c0,1.21626,0.97702,2.16198,2.16422,2.16198
	C31.58255,123.81503,32.53725,122.84024,32.53725,121.66199z"/>
<path class="st1" d="M330.06265,156.66791c0-0.33768,0-0.36658-0.32434-0.36658c-0.87534,0.90421-2.11945,0.90421-2.57043,0.90421
	v0.43767c0.28217,0,1.11526,0,1.85062-0.36658v7.31584c0,0.50874-0.04221,0.6776-1.31519,0.6776h-0.45102v0.43765
	c0.49323-0.04221,1.724-0.04221,2.2883-0.04221s1.79285,0,2.28827,0.04221v-0.43765h-0.45322
	c-1.27075,0-1.31299-0.15552-1.31299-0.6776V156.66791"/>
<path class="st1" d="M336.67868,165.70772c-0.55096,0-1.38406-0.35324-1.63733-1.70842
	c-0.15552-0.84868-0.15552-2.14833-0.15552-2.98145c0-0.90421,0-1.83505,0.11108-2.59929
	c0.2688-1.67957,1.32852-1.8062,1.68176-1.8062c0.46652,0,1.3974,0.25327,1.66623,1.65289
	c0.14218,0.79089,0.14218,1.86395,0.14218,2.75259c0,1.05972,0,2.01947-0.15552,2.92368
	C338.12051,165.28339,337.31406,165.70772,336.67868,165.70772 M339.65787,161.18892c0-1.1308-0.06885-2.26161-0.56427-3.30579
	c-0.64871-1.35518-1.80841-1.5818-2.40158-1.5818c-0.84644,0-1.87729,0.36658-2.45712,1.67955
	c-0.45099,0.97531-0.52209,2.07724-0.52209,3.20804c0,1.0575,0.05554,2.33051,0.63541,3.40355
	c0.60648,1.14413,1.63956,1.42628,2.33047,1.42628c0.76202,0,1.83728-0.2977,2.45712-1.63957
	C339.58902,163.40611,339.65787,162.30418,339.65787,161.18892z"/>
<path class="st1" d="M343.6701,154.07748v3.65903h-2.63925L343.6701,154.07748z M345.55859,158.09641v-0.35989h-1.10861v-4.45659
	c0-0.21104,0-0.27992-0.21994-0.27992c-0.12003,0-0.15997,0-0.25992,0.13997l-3.31027,4.59654v0.35989h2.93918v0.81979
	c0,0.3399,0,0.45987-0.80862,0.45987h-0.271v0.35991c0.49979-0.01999,1.13962-0.03999,1.49948-0.03999
	c0.37109,0,1.01093,0.02,1.51071,0.03999v-0.35991h-0.271c-0.80862,0-0.80862-0.11996-0.80862-0.45987v-0.81979H345.55859z"/>
<polyline class="st2" points="36.32874,25 86.32874,25 186.32875,125 286.32874,25 359.32874,25 "/>
</svg>
