<?xml version="1.0" encoding="utf-8"?>
<!-- Generator: Adobe Illustrator 23.0.3, SVG Export Plug-In . SVG Version: 6.00 Build 0)  -->
<svg version="1.1" id="Layer_1" xmlns="http://www.w3.org/2000/svg" xmlns:xlink="http://www.w3.org/1999/xlink" x="0px" y="0px"
	 viewBox="0 0 429.45294 132.5" style="enable-background:new 0 0 429.45294 132.5;" xml:space="preserve">
<style type="text/css">
	.st0{fill:none;stroke:#8FF4DD;stroke-width:2;stroke-miterlimit:10;}
	.st1{fill:#8FF4DD;}
	.st2{fill:none;stroke:#FD1D53;stroke-width:2;stroke-linecap:round;stroke-miterlimit:10;}
	.st3{fill:none;stroke:#FF6C11;stroke-width:2;stroke-linecap:round;stroke-miterlimit:10;}
	.st4{fill:none;stroke:#F9C80E;stroke-width:2;stroke-linecap:round;stroke-miterlimit:10;}
</style>
<g>
	<g>
		<polyline class="st0" points="4.45293,21.45598 4.45293,117.5 125.49695,117.5 		"/>
		<g>
			<polygon class="st1" points="0,29.73161 1.3166,30.21011 4.45293,21.59276 7.58925,30.21011 8.9045,29.73161 4.45293,17.5 			"/>
		</g>
		<g>
			<polygon class="st1" points="117.22133,121.95293 116.74281,120.63632 125.36017,117.5 116.74281,114.36367 117.22133,113.04843 
				129.45293,117.5 			"/>
		</g>
	</g>
</g>
<g>
	<g>
		<polyline class="st0" points="304.45294,21.45598 304.45294,117.5 425.49695,117.5 		"/>
		<g>
			<polygon class="st1" points="300,29.73161 301.31659,30.21011 304.45294,21.59276 307.58923,30.21011 308.90448,29.73161 
				304.45294,17.5 			"/>
		</g>
		<g>
			<polygon class="st1" points="417.22131,121.95293 416.74286,120.63632 425.36017,117.5 416.74286,114.36367 417.22131,113.04843 
				429.45294,117.5 			"/>
		</g>
	</g>
</g>
<g>
	<g>
		<polyline class="st0" points="154.45293,21.45598 154.45293,117.5 275.49695,117.5 		"/>
		<g>
			<polygon class="st1" points="150,29.73161 151.3166,30.21011 154.45293,21.59276 157.58925,30.21011 158.9045,29.73161 
				154.45293,17.5 			"/>
		</g>
		<g>
			<polygon class="st1" points="267.22131,121.95293 266.7428,120.63632 275.36017,117.5 266.7428,114.36367 267.22131,113.04843 
				279.45294,117.5 			"/>
		</g>
	</g>
</g>
<line class="st2" x1="127.64045" y1="67.5" x2="4.45225" y2="67.5"/>
<polyline class="st3" points="404.42484,117.47192 329.45294,42.5 304.45294,42.5 "/>
<polyline class="st4" points="154.45293,67.5 229.45293,67.5 276.45294,20.5 "/>
<path class="st1" d="M34.54318,59.49952v2.90718c0,0.25436,0,0.28336-0.15622,0.52432
	c-0.42609,0.6805-1.06424,0.99286-1.67326,0.99286c-0.63815,0-1.14906-0.36814-1.49047-0.90807
	c-0.36812-0.5801-0.41053-1.39001-0.41053-1.97234c0-0.52432,0.02899-1.37439,0.43952-2.0125
	c0.29673-0.43953,0.83677-0.90808,1.602-0.90808c0.4975,0,1.09323,0.21196,1.53275,0.85008
	C34.54318,59.21394,34.54318,59.24294,34.54318,59.49952 M34.54318,63.29916v0.93708l2.08393-0.15617v-0.43953
	c-0.99284,0-1.1045-0.10041-1.1045-0.79429v-8.61001l-2.04367,0.15617v0.43955c0.99285,0,1.10666,0.09817,1.10666,0.79429v3.06336
	c-0.41053-0.51093-1.02183-0.87908-1.7872-0.87908c-1.67326,0-3.16374,1.39001-3.16374,3.21955
	c0,1.80276,1.38996,3.20615,3.00766,3.20615C33.55034,64.23624,34.18848,63.75432,34.54318,63.29916z"/>
<path class="st1" d="M42.62444,63.64054h-1.77378c-0.66713,0-0.69612-0.10041-0.69612-0.56672v-3.87328h2.66838
	c1.40351,0,1.99911,1.31861,1.99911,2.26908C44.82203,62.4781,44.08364,63.64054,42.62444,63.64054 M43.50348,59.01535
	c1.37439-0.26774,2.35381-1.1758,2.35381-2.22668c0-1.23382-1.30514-2.39626-3.14803-2.39626h-5.19197v0.43955h0.33913
	c1.09323,0,1.12236,0.15617,1.12236,0.6671v7.47435c0,0.51093-0.02913,0.66712-1.12236,0.66712h-0.33913v0.43953h5.56009
	c1.88745,0,3.16373-1.26284,3.16373-2.59483C46.24111,60.24919,45.07649,59.18717,43.50348,59.01535z M40.15454,58.88818v-3.48952
	c0-0.46853,0.02898-0.5667,0.69612-0.5667h1.75808c1.37667,0,1.87202,1.20482,1.87202,1.95671
	c0,0.90808-0.69397,2.09951-2.26913,2.09951H40.15454z"/>
<g>
	<path class="st1" d="M12.59093,62.69898l1.50379-1.45916c2.2133-1.95895,3.06561-2.72423,3.06561-4.14324
		c0-1.61759-1.27844-2.75101-3.00759-2.75101c-1.6042,0-2.65284,1.30523-2.65284,2.56805c0,0.79429,0.70951,0.79429,0.7519,0.79429
		c0.24096,0,0.73627-0.17179,0.73627-0.75189c0-0.37038-0.25435-0.73851-0.75189-0.73851c-0.11156,0-0.14056,0-0.18295,0.01339
		c0.32575-0.92148,1.09103-1.44579,1.91432-1.44579c1.29184,0,1.90094,1.14903,1.90094,2.31147
		c0,1.13565-0.7095,2.25568-1.49041,3.13476l-2.722,3.03659c-0.15618,0.15619-0.15618,0.18296-0.15618,0.52433h5.26328
		l0.39715-2.46766h-0.35476c-0.0714,0.42616-0.17179,1.04865-0.31236,1.26284c-0.1004,0.11155-1.03525,0.11155-1.34761,0.11155
		L12.59093,62.69898"/>
	<path class="st1" d="M21.60477,63.79226c-0.55332,0-1.39001-0.35476-1.64435-1.71575
		c-0.15619-0.85231-0.15619-2.15752-0.15619-2.99421c0-0.90808,0-1.84292,0.11156-2.61044
		c0.26996-1.68675,1.33422-1.81393,1.68897-1.81393c0.46854,0,1.40339,0.25436,1.67336,1.65997
		c0.14279,0.79429,0.14279,1.87194,0.14279,2.7644c0,1.06425,0,2.02811-0.15617,2.93619
		C23.05279,63.3661,22.24288,63.79226,21.60477,63.79226 M24.59674,59.25409c0-1.13565-0.06917-2.2713-0.56671-3.31995
		c-0.65149-1.36099-1.81616-1.58858-2.41188-1.58858c-0.85006,0-1.88532,0.36815-2.46764,1.68674
		c-0.45293,0.97948-0.52432,2.08613-0.52432,3.22178c0,1.06203,0.05577,2.34049,0.63811,3.41812
		c0.6091,1.14904,1.64658,1.4324,2.34047,1.4324c0.76529,0,1.84517-0.29898,2.46764-1.6466
		C24.52757,61.48079,24.59674,60.37413,24.59674,59.25409z"/>
</g>
<path class="st1" d="M327.56247,33.76328v2.90717c0,0.25436,0,0.28336-0.15622,0.52433
	c-0.42609,0.6805-1.06424,0.99286-1.67325,0.99286c-0.63815,0-1.14908-0.36813-1.49048-0.90807
	c-0.36813-0.5801-0.41055-1.39001-0.41055-1.97234c0-0.52432,0.02899-1.37439,0.43951-2.0125
	c0.29675-0.43953,0.83679-0.90808,1.60202-0.90808c0.4975,0,1.09323,0.21196,1.53275,0.85008
	C327.56247,33.4777,327.56247,33.5067,327.56247,33.76328 M327.56247,37.56292V38.5l2.08392-0.15617V37.9043
	c-0.99286,0-1.10452-0.10041-1.10452-0.79429V28.5l-2.04364,0.15617v0.43955c0.99283,0,1.10663,0.09817,1.10663,0.79429v3.06336
	c-0.41052-0.51093-1.02182-0.87908-1.7872-0.87908c-1.67325,0-3.16373,1.39001-3.16373,3.21955
	c0,1.80277,1.38995,3.20616,3.00766,3.20616C326.56961,38.5,327.20776,38.01807,327.56247,37.56292z"/>
<path class="st1" d="M335.64371,37.90429h-1.77377c-0.66714,0-0.69611-0.10041-0.69611-0.56672V33.4643h2.66837
	c1.40353,0,1.99911,1.31861,1.99911,2.26907C337.84131,36.74186,337.10294,37.90429,335.64371,37.90429 M336.52277,33.27911
	c1.37439-0.26774,2.35379-1.17581,2.35379-2.22668c0-1.23382-1.30515-2.39626-3.14801-2.39626h-5.19199v0.43955h0.33914
	c1.09323,0,1.12234,0.15617,1.12234,0.6671v7.47435c0,0.51093-0.02911,0.66712-1.12234,0.66712h-0.33914v0.43953h5.56009
	c1.88745,0,3.16373-1.26284,3.16373-2.59483C339.26038,34.51295,338.09576,33.45092,336.52277,33.27911z M333.17383,33.15194
	v-3.48952c0-0.46853,0.02896-0.56671,0.69611-0.56671h1.75809c1.37665,0,1.87201,1.20482,1.87201,1.95671
	c0,0.90808-0.69397,2.09951-2.26913,2.09951h-2.05707V33.15194z"/>
<g>
	<path class="st1" d="M314.62405,38.05601c-0.55331,0-1.39001-0.35476-1.64435-1.71575
		c-0.15619-0.85231-0.15619-2.15753-0.15619-2.99421c0-0.90808,0-1.84292,0.11157-2.61044
		c0.26996-1.68675,1.3342-1.81393,1.68896-1.81393c0.46854,0,1.40338,0.25436,1.67334,1.65997
		c0.14282,0.79429,0.14282,1.87194,0.14282,2.7644c0,1.06425,0,2.02811-0.15619,2.93619
		C316.07205,37.62986,315.26215,38.05601,314.62405,38.05601 M317.61603,33.51785c0-1.13565-0.06918-2.2713-0.56671-3.31995
		c-0.65149-1.36099-1.81616-1.58858-2.4119-1.58858c-0.85007,0-1.88531,0.36815-2.46762,1.68675
		c-0.45294,0.97948-0.52432,2.08613-0.52432,3.22178c0,1.06203,0.05576,2.34048,0.63809,3.41812
		c0.6091,1.14904,1.64661,1.4324,2.34048,1.4324c0.76529,0,1.84515-0.29898,2.46765-1.64659
		C317.54684,35.74454,317.61603,34.63789,317.61603,33.51785z"/>
</g>
<path class="st1" d="M164.10524,60.70566H160.698l3.40724-5.20869V60.70566z M164.02173,61.13845v1.21485
	c0,0.50307-0.02855,0.65686-1.0611,0.65686h-0.29427v0.43277c0.57336-0.04174,1.30052-0.04174,1.88696-0.04174
	c0.58656,0,1.32695,0,1.89806,0.04174v-0.43277h-0.29216c-1.03465,0-1.06108-0.15379-1.06108-0.65686v-1.21485h1.395v-0.43279
	h-1.395v-6.35544c0-0.279,0-0.36248-0.22397-0.36248c-0.12527,0-0.16704,0-0.2791,0.16696l-4.28822,6.55096v0.43279
	C160.30685,61.13845,164.02173,61.13845,164.02173,61.13845z"/>
<path class="st1" d="M170.42328,63.44293c-0.54482,0-1.36858-0.3493-1.61899-1.68937
	c-0.15381-0.8392-0.15381-2.12434-0.15381-2.94816c0-0.89412,0-1.81458,0.1098-2.57029
	c0.26587-1.66081,1.31375-1.78604,1.66299-1.78604c0.46144,0,1.38193,0.25045,1.64766,1.63445
	c0.14059,0.78207,0.14059,1.84315,0.14059,2.72188c0,1.04789,0,1.99692-0.15381,2.89104
	C171.84908,63.02333,171.05161,63.44293,170.42328,63.44293 M173.36935,58.97456c0-1.11819-0.06819-2.23637-0.55803-3.26889
	c-0.64156-1.34006-1.78827-1.56415-2.37483-1.56415c-0.83698,0-1.85631,0.36249-2.42967,1.66081
	c-0.44597,0.96442-0.51627,2.05405-0.51627,3.17223c0,1.04569,0.05496,2.30449,0.62833,3.36555
	c0.59966,1.13137,1.62123,1.41038,2.3044,1.41038c0.7536,0,1.8168-0.29438,2.42979-1.62127
	C173.30116,61.167,173.36935,60.07737,173.36935,58.97456z"/>
<path class="st1" d="M183.0793,58.93283v2.86246c0,0.25045,0,0.279-0.15381,0.51626
	c-0.41956,0.67003-1.04788,0.97759-1.64752,0.97759c-0.62834,0-1.13139-0.36248-1.46756-0.8941
	c-0.36246-0.57117-0.40422-1.36863-0.40422-1.942c0-0.51626,0.02855-1.35325,0.43275-1.98156
	c0.29218-0.43277,0.8239-0.89412,1.57736-0.89412c0.48985,0,1.07642,0.20871,1.50919,0.83701
	C183.0793,58.65163,183.0793,58.68019,183.0793,58.93283 M183.0793,62.67403v0.92267l2.05188-0.15377v-0.43277
	c-0.97757,0-1.08752-0.09887-1.08752-0.78207v-8.4776l-2.01224,0.15377v0.43279c0.97758,0,1.08965,0.09666,1.08965,0.78207v3.01625
	c-0.40422-0.50307-1.00612-0.86556-1.75972-0.86556c-1.64752,0-3.11508,1.36863-3.11508,3.17004
	c0,1.77504,1.36858,3.15685,2.9614,3.15685C182.10173,63.5967,182.73006,63.12218,183.0793,62.67403z"/>
<path class="st1" d="M191.03627,63.01016h-1.74649c-0.65688,0-0.68541-0.09887-0.68541-0.558v-3.81371h2.62733
	c1.38193,0,1.96837,1.29833,1.96837,2.23418C193.20007,61.86559,192.47304,63.01016,191.03627,63.01016 M191.90179,58.4561
	c1.35326-0.26362,2.31761-1.15772,2.31761-2.19244c0-1.21484-1.28506-2.35941-3.09961-2.35941h-5.11214v0.43279h0.33392
	c1.07642,0,1.1051,0.15377,1.1051,0.65685v7.35941c0,0.50307-0.02869,0.65686-1.1051,0.65686h-0.33392v0.43277h5.47459
	c1.85841,0,3.11508-1.24342,3.11508-2.55492C194.59734,59.67096,193.45062,58.62527,191.90179,58.4561z M188.60437,58.33089
	v-3.43585c0-0.46133,0.02853-0.55799,0.68541-0.55799h1.73103c1.3555,0,1.84323,1.18629,1.84323,1.92662
	c0,0.89412-0.6833,2.06722-2.23424,2.06722H188.60437z"/>
<path class="st1" d="M330.0528,122.88971c0-0.359,0-0.38972-0.34479-0.38972c-0.93054,0.96127-2.25314,0.96127-2.73264,0.96127
	v0.46528c0.2999,0,1.1857,0,1.96732-0.3897v7.7775c0,0.54086-0.04474,0.72037-1.39819,0.72037h-0.47934V132.5
	c0.52423-0.04488,1.83279-0.04488,2.43259-0.04488c0.59995,0,1.9061,0,2.43274,0.04488v-0.46527h-0.48175
	c-1.35104,0-1.39594-0.16534-1.39594-0.72037V122.88971"/>
<path class="st1" d="M222.34723,122.87724c0-0.34751,0-0.37724-0.33374-0.37724c-0.90074,0.9305-2.18105,0.9305-2.64516,0.9305
	v0.45039c0.2903,0,1.14772,0,1.90434-0.37723v7.52856c0,0.52356-0.04332,0.69731-1.35345,0.69731h-0.46399v0.45039
	c0.50745-0.04344,1.77412-0.04344,2.35472-0.04344c0.58075,0,1.84508,0,2.35486,0.04344v-0.45039h-0.46632
	c-1.30779,0-1.35126-0.16003-1.35126-0.69731V122.87724"/>
<path class="st1" d="M229.15561,132.17993c-0.56699,0-1.42427-0.36351-1.68486-1.75812
	c-0.16008-0.87334-0.16008-2.21078-0.16008-3.06813c0-0.9305,0-1.88842,0.11429-2.67489
	c0.27669-1.72839,1.3672-1.85872,1.73065-1.85872c0.48022,0,1.43816,0.26064,1.71471,1.70096
	c0.14632,0.8139,0.14632,1.91815,0.14632,2.83265c0,1.09053,0,2.07819-0.16006,3.00868
	C230.63943,131.74326,229.80951,132.17993,229.15561,132.17993 M232.22157,127.52972c0-1.1637-0.07097-2.32738-0.58073-3.40192
	c-0.66765-1.39459-1.86104-1.6278-2.47147-1.6278c-0.87105,0-1.93185,0.37724-2.52855,1.72839
	c-0.46413,1.00366-0.53728,2.13763-0.53728,3.30133c0,1.08823,0.05721,2.39828,0.65388,3.50249
	c0.62405,1.17741,1.68721,1.46777,2.39818,1.46777c0.78427,0,1.89073-0.30637,2.52867-1.68724
	C232.1506,129.81139,232.22157,128.67741,232.22157,127.52972z"/>
<path class="st1" d="M236.47156,132.17993c-0.56699,0-1.42427-0.36351-1.68488-1.75812
	c-0.16006-0.87334-0.16006-2.21078-0.16006-3.06813c0-0.9305,0-1.88842,0.11427-2.67489
	c0.2767-1.72839,1.36722-1.85872,1.73067-1.85872c0.48022,0,1.43817,0.26064,1.71471,1.70096
	c0.14632,0.8139,0.14632,1.91815,0.14632,2.83265c0,1.09053,0,2.07819-0.16006,3.00868
	C237.95538,131.74326,237.12546,132.17993,236.47156,132.17993 M239.53752,127.52972c0-1.1637-0.07095-2.32738-0.58073-3.40192
	c-0.66765-1.39459-1.86104-1.6278-2.47148-1.6278c-0.87103,0-1.93184,0.37724-2.52853,1.72839
	c-0.46413,1.00366-0.53728,2.13763-0.53728,3.30133c0,1.08823,0.05721,2.39828,0.6539,3.50249
	c0.62404,1.17741,1.68719,1.46777,2.39816,1.46777c0.78427,0,1.89073-0.30637,2.52869-1.68724
	C239.46657,129.81139,239.53752,128.67741,239.53752,127.52972z"/>
<g>
	<path class="st1" d="M32.38427,9.74328l1.67451-1.6247c2.4644-2.18119,3.41327-3.03328,3.41327-4.61328
		c0-1.80111-1.42347-3.06311-3.34872-3.06311c-1.78614,0-2.95378,1.45331-2.95378,2.85939c0,0.8844,0.79004,0.8844,0.8371,0.8844
		c0.26836,0,0.81992-0.19128,0.81992-0.83719c0-0.4124-0.28332-0.82229-0.83725-0.82229c-0.12418,0-0.15646,0-0.20368,0.01491
		c0.36266-1.02601,1.21472-1.6098,2.13147-1.6098c1.4384,0,2.11666,1.27939,2.11666,2.5737
		c0,1.26449-0.79004,2.51158-1.65957,3.49039l-3.03073,3.38108c-0.17393,0.17391-0.17393,0.20372-0.17393,0.5838h5.86032
		l0.44218-2.74761h-0.39495c-0.07949,0.4745-0.19127,1.16762-0.34771,1.4061c-0.11194,0.12421-1.15271,0.12421-1.50058,0.12421
		h-2.84455"/>
	<path class="st1" d="M42.4207,10.96058c-0.61609,0-1.54763-0.395-1.8308-1.9104c-0.17394-0.949-0.17394-2.40229-0.17394-3.3339
		c0-1.0111,0-2.052,0.12418-2.90659c0.30066-1.8781,1.48564-2.01972,1.88056-2.01972c0.52182,0,1.56276,0.28322,1.86324,1.84829
		c0.159,0.8844,0.159,2.08431,0.159,3.07801c0,1.18499,0,2.25819-0.17395,3.26929
		C44.03305,10.48609,43.13124,10.96058,42.4207,10.96058 M45.75224,5.90758c0-1.26449-0.07712-2.52898-0.63103-3.69659
		C44.39572,0.6956,43.09897,0.4422,42.43565,0.4422c-0.94648,0-2.09918,0.40991-2.74755,1.8781
		c-0.50433,1.0906-0.58382,2.32279-0.58382,3.58728c0,1.18252,0.06217,2.606,0.71054,3.80589
		c0.6781,1.2794,1.83335,1.5949,2.60589,1.5949c0.85221,0,2.05451-0.3329,2.74773-1.83339
		C45.67512,8.38688,45.75224,7.15469,45.75224,5.90758z"/>
	<path class="st1" d="M51.93549,0l-2.27312,0.17389V0.6633c1.10548,0,1.2322,0.10931,1.2322,0.8844v8.21297
		c0,0.71051-0.17379,0.71051-1.2322,0.71051v0.48939c0.5218-0.01491,1.35891-0.0472,1.75146-0.0472
		c0.39494,0,1.17004,0.03229,1.75385,0.0472v-0.48938c-1.05825,0-1.23219,0-1.23219-0.71051L51.93549,0"/>
	<path class="st1" d="M57.53999,10.73948c-0.6781,0-1.3737-0.3329-1.79853-1.05831c-0.39509-0.6956-0.39509-1.65949-0.39509-2.2259
		c0-0.6161,0-1.47068,0.37762-2.16379c0.42736-0.72788,1.17019-1.05829,1.80107-1.05829c0.69575,0,1.37465,0.3478,1.78328,1.026
		c0.41337,0.6782,0.41337,1.5949,0.41337,2.19609c0,0.56641,0,1.421-0.3482,2.11659
		C59.0253,10.28238,58.3305,10.73948,57.53999,10.73948 M61.03021,7.5795c0-2.01972-1.57722-3.69411-3.49023-3.69411
		c-1.97247,0-3.50531,1.7216-3.50531,3.69411c0,2.03958,1.64207,3.55498,3.49037,3.55498
		C59.43551,11.13448,61.03021,9.58679,61.03021,7.5795z"/>
	<path class="st1" d="M65.48995,13.84978c-1.59468,0-2.6838-0.8049-2.6838-1.64211c0-0.72541,0.59942-1.3092,1.2942-1.35888h0.9317
		c1.3594,0,3.12899,0,3.12899,1.35888C68.16105,13.06227,67.03697,13.84978,65.48995,13.84978 M63.21637,8.85889
		c0-0.06211,0-0.4248,0.26868-0.74031c0.6153,0.44219,1.26402,0.48939,1.56291,0.48939c1.47069,0,2.5582-1.0906,2.5582-2.3054
		c0-0.58629-0.25121-1.17009-0.64552-1.53279c0.56919-0.5366,1.13519-0.6161,1.42141-0.6161c0.03178,0,0.1081,0,0.15581,0.0149
		c-0.17331,0.0646-0.25121,0.23849-0.25121,0.4273c0,0.2683,0.2035,0.45711,0.4579,0.45711c0.159,0,0.4563-0.10931,0.4563-0.47201
		c0-0.27078-0.1892-0.77509-0.80451-0.77509c-0.3148,0-1.0112,0.09439-1.67419,0.7428
		c-0.66299-0.52171-1.3276-0.56891-1.67419-0.56891c-1.46909,0-2.5598,1.0906-2.5598,2.3054
		c0,0.6956,0.34821,1.29432,0.74409,1.6272c-0.2051,0.23602-0.48968,0.7577-0.48968,1.31169
		c0,0.48939,0.20508,1.08812,0.69479,1.40361c-0.9492,0.27079-1.4532,0.949-1.4532,1.57999
		c0,1.13781,1.56289,2.00729,3.48991,2.00729c1.86339,0,3.5058-0.80739,3.5058-2.03711c0-0.55398-0.22101-1.35888-1.02551-1.80109
		c-0.83787-0.44219-1.75368-0.44219-2.71561-0.44219c-0.39428,0-1.07639,0-1.18449-0.0174
		C63.54706,9.85509,63.21637,9.36567,63.21637,8.85889z M65.04797,8.24279c-1.3737,0-1.3737-1.5775-1.3737-1.94021
		c0-0.4273,0.01748-0.93409,0.2528-1.32909c0.1272-0.18881,0.48969-0.631,1.1209-0.631c1.3737,0,1.3737,1.57999,1.3737,1.94269
		c0,0.4273-0.0159,0.9316-0.25121,1.3266C66.04327,7.80059,65.68077,8.24279,65.04797,8.24279z"/>
	<path class="st1" d="M73.07712,7.66893c0-0.30309-0.02225-0.31303-0.33549-0.31303
		c-0.71545,0.70305-1.73141,0.71299-2.1909,0.71299v0.40245c0.2671,0,1.00483,0,1.62173-0.31301v5.70139
		c0,0.37015,0,0.51424-1.11772,0.51424h-0.42449v0.40245c0.20033-0.00994,1.57404-0.04472,1.98901-0.04472
		c0.34499,0,1.75367,0.03478,2.00012,0.04472v-0.40245h-0.42451c-1.11771,0-1.11771-0.14409-1.11771-0.51424V7.66893"/>
	<path class="st1" d="M78.86764,14.68698c-0.51514,0-1.19724-0.30059-1.4214-1.21729c-0.1558-0.66081-0.1558-1.5775-0.1558-2.40477
		c0-0.81483,0-1.66445,0.16852-2.28055c0.23373-0.88192,0.94919-1.11543,1.40868-1.11543c0.60417,0,1.18451,0.36767,1.38641,1.01606
		c0.1781,0.60368,0.18922,1.40858,0.18922,2.37992c0,0.82727,0,1.65453-0.14469,2.36006
		C80.07441,14.44104,79.31441,14.68698,78.86764,14.68698 M81.46082,11.21149c0-1.22972-0.14628-2.11412-0.65982-2.89665
		c-0.34661-0.51424-1.03983-0.95894-1.93335-0.95894c-2.59317,0-2.59317,3.05067-2.59317,3.85558
		c0,0.80491,0,3.78851,2.59317,3.78851S81.46082,12.01639,81.46082,11.21149z"/>
	<path class="st1" d="M90.1927,0.85211c0-0.37761,0-0.40991-0.3625-0.40991c-0.9778,1.0111-2.369,1.0111-2.87462,1.0111v0.48939
		c0.31639,0,1.24809,0,2.0701-0.4099v8.18069c0,0.56891-0.04769,0.75771-1.47069,0.75771h-0.50402v0.48939
		c0.55172-0.0472,1.92702-0.0472,2.55822-0.0472c0.6312,0,2.00491,0,2.55978,0.0472v-0.48939h-0.5072
		c-1.4214,0-1.4691-0.17391-1.4691-0.75771V0.85211"/>
	<path class="st1" d="M97.59066,10.96058c-0.6153,0-1.547-0.395-1.83002-1.9104c-0.17329-0.949-0.17329-2.40229-0.17329-3.3339
		c0-1.0111,0-2.052,0.12402-2.90659c0.30048-1.8781,1.48499-2.01972,1.8793-2.01972c0.52309,0,1.56291,0.28322,1.86339,1.84829
		c0.15899,0.8844,0.15899,2.08431,0.15899,3.07801c0,1.18499,0,2.25819-0.17329,3.26929
		C99.20444,10.48609,98.30136,10.96058,97.59066,10.96058 M100.92314,5.90758c0-1.26449-0.07791-2.52898-0.6312-3.69659
		C99.56695,0.6956,98.26955,0.4422,97.60655,0.4422c-0.946,0-2.0987,0.40991-2.74738,1.8781
		c-0.50401,1.0906-0.58351,2.32279-0.58351,3.58728c0,1.18252,0.06201,2.606,0.70911,3.80589
		c0.67889,1.2794,1.83478,1.5949,2.60589,1.5949c0.85219,0,2.05579-0.3329,2.74899-1.83339
		C100.84524,8.38688,100.92314,7.15469,100.92314,5.90758z"/>
</g>
<g>
	<path class="st1" d="M163.03629,10.03596l1.58099-1.53424c2.32718-2.05975,3.22351-2.8644,3.22351-4.35643
		c0-1.70082-1.34375-2.89257-3.16194-2.89257c-1.68758,0-2.78963,1.37239-2.78963,2.70019
		c0,0.83515,0.74619,0.83515,0.78973,0.83515c0.25375,0,0.77472-0.18064,0.77472-0.79058c0-0.38944-0.26724-0.77651-0.78975-0.77651
		c-0.11859,0-0.14864,0-0.19368,0.01408c0.34384-0.96889,1.14709-1.52017,2.0134-1.52017c1.35878,0,1.9984,1.20815,1.9984,2.4304
		c0,1.19409-0.74622,2.37175-1.56599,3.29606l-2.86316,3.19283c-0.16367,0.16423-0.16367,0.19238-0.16367,0.55131h5.53416
		l0.4174-2.59463h-0.37234c-0.07506,0.44808-0.18167,1.1026-0.32881,1.32781c-0.10658,0.11729-1.08853,0.11729-1.41733,0.11729
		H163.03629"/>
	<path class="st1" d="M172.51315,11.18549c-0.58102,0-1.46085-0.37301-1.7281-1.80403
		c-0.16365-0.89616-0.16365-2.26854-0.16365-3.14828c0-0.95481,0-1.93774,0.11713-2.74475
		c0.28378-1.77354,1.40231-1.90727,1.77463-1.90727c0.494,0,1.47592,0.26745,1.75966,1.74538
		c0.15015,0.83515,0.15015,1.96826,0.15015,2.90663c0,1.11901,0,2.13246-0.16364,3.08727
		C174.03712,10.7374,173.18431,11.18549,172.51315,11.18549 M175.66013,6.41382c0-1.19409-0.07358-2.38817-0.59605-3.49077
		c-0.68463-1.43102-1.90981-1.67032-2.53589-1.67032c-0.89333,0-1.98186,0.38709-2.59442,1.77354
		c-0.47594,1.02987-0.55103,2.19347-0.55103,3.38755c0,1.11667,0.05858,2.46092,0.66963,3.594
		c0.64111,1.20817,1.73264,1.50611,2.46078,1.50611c0.80478,0,1.94135-0.31436,2.59595-1.73131
		C175.58655,8.75509,175.66013,7.59149,175.66013,6.41382z"/>
	<path class="st1" d="M181.4991,0.83515l-2.147,0.16421v0.46217c1.04346,0,1.16359,0.10322,1.16359,0.83516v7.75571
		c0,0.67095-0.16367,0.67095-1.16359,0.67095v0.46215c0.49246-0.01408,1.28369-0.04457,1.65456-0.04457
		c0.37234,0,1.10503,0.03049,1.65605,0.04457v-0.46214c-0.99994,0-1.1636,0-1.1636-0.67095V0.83515"/>
	<path class="st1" d="M186.79156,10.9767c-0.6411,0-1.29724-0.31436-1.69809-0.99938
		c-0.37386-0.65687-0.37386-1.5671-0.37386-2.10197c0-0.5818,0-1.3888,0.35735-2.04332
		c0.40237-0.68736,1.10501-0.99937,1.69958-0.99937c0.65761,0,1.29871,0.32843,1.68459,0.96888
		c0.39038,0.64044,0.39038,1.50611,0.39038,2.07382c0,0.53487,0,1.34188-0.32883,1.99875
		C188.19389,10.54505,187.53778,10.9767,186.79156,10.9767 M190.08717,7.99265c0-1.90727-1.48941-3.48843-3.29561-3.48843
		c-1.86324,0-3.31061,1.62574-3.31061,3.48843c0,1.92602,1.55096,3.35705,3.29559,3.35705
		C188.58125,11.34969,190.08717,9.88818,190.08717,7.99265z"/>
	<path class="st1" d="M194.29861,13.91382c-1.50591,0-2.53439-0.76009-2.53439-1.55068c0-0.68502,0.56604-1.2363,1.22215-1.28323
		h0.87981c1.28374,0,2.95477,0,2.95477,1.28323C196.82095,13.17016,195.75949,13.91382,194.29861,13.91382 M192.1516,9.20081
		c0-0.05865,0-0.40115,0.25374-0.69909c0.58104,0.41757,1.19362,0.46215,1.47588,0.46215c1.38881,0,2.41576-1.02987,2.41576-2.17704
		c0-0.55365-0.2372-1.10494-0.60957-1.44744c0.53754-0.50672,1.07201-0.5818,1.34227-0.5818c0.03001,0,0.1021,0,0.14714,0.01407
		c-0.16365,0.06101-0.23721,0.22521-0.23721,0.4035c0,0.25337,0.19217,0.43165,0.43239,0.43165
		c0.15016,0,0.43092-0.10322,0.43092-0.44572c0-0.25571-0.1787-0.73193-0.75972-0.73193c-0.29727,0-0.95491,0.08914-1.58099,0.70144
		c-0.62608-0.49266-1.25366-0.53723-1.58098-0.53723c-1.38728,0-2.41727,1.02987-2.41727,2.17704
		c0,0.65687,0.32881,1.22225,0.70267,1.5366c-0.1937,0.22287-0.46243,0.71551-0.46243,1.23866
		c0,0.46215,0.19368,1.02753,0.65611,1.32546c-0.89635,0.25572-1.37228,0.89616-1.37228,1.49202
		c0,1.07445,1.47588,1.89553,3.29558,1.89553c1.75964,0,3.31062-0.76244,3.31062-1.92368c0-0.52313-0.20871-1.28323-0.96843-1.70081
		c-0.79121-0.41757-1.65604-0.41757-2.56441-0.41757c-0.37233,0-1.01645,0-1.11855-0.01642
		C192.46388,10.14155,192.1516,9.67938,192.1516,9.20081z M193.88121,8.61901c-1.29721,0-1.29721-1.48967-1.29721-1.83218
		c0-0.4035,0.01651-0.88208,0.23872-1.25509c0.1201-0.1783,0.46243-0.59587,1.05849-0.59587
		c1.29721,0,1.29721,1.49202,1.29721,1.83452c0,0.4035-0.01501,0.87974-0.23721,1.25275
		C194.82111,8.20144,194.47876,8.61901,193.88121,8.61901z"/>
	<path class="st1" d="M201.46333,8.07711c0-0.28621-0.02103-0.2956-0.31682-0.2956
		c-0.67563,0.66391-1.63501,0.67329-2.06894,0.67329v0.38004c0.25226,0,0.94891,0,1.53145-0.29558v5.38395
		c0,0.34954,0,0.48561-1.0555,0.48561h-0.40086v0.38005c0.18919-0.00938,1.4864-0.04222,1.87827-0.04222
		c0.32579,0,1.65604,0.03284,1.88878,0.04222v-0.38005h-0.40091c-1.05547,0-1.05547-0.13606-1.05547-0.48561V8.07711"/>
	<path class="st1" d="M206.93146,14.70441c-0.48647,0-1.13057-0.28386-1.34225-1.14953
		c-0.14716-0.62401-0.14716-1.48967-0.14716-2.27088c0-0.76948,0-1.57178,0.15916-2.15357
		c0.22067-0.83281,0.89635-1.05332,1.33025-1.05332c0.57054,0,1.11855,0.34721,1.30922,0.95949
		c0.16818,0.57007,0.17867,1.33015,0.17867,2.24741c0,0.78121,0,1.56241-0.13663,2.22866
		C208.07103,14.47216,207.35336,14.70441,206.93146,14.70441 M209.38025,11.42242c0-1.16125-0.13812-1.99641-0.62309-2.73537
		c-0.32732-0.48562-0.98192-0.90554-1.8257-0.90554c-2.44881,0-2.44881,2.88083-2.44881,3.64091s0,3.57758,2.44881,3.57758
		C209.38025,15,209.38025,12.18251,209.38025,11.42242z"/>
	<path class="st1" d="M215.46394,0.53722c0-0.26979,0-0.53722-0.29875-0.53722c-0.29732,0-0.29732,0.26743-0.29732,0.53722v13.84111
		c0,0.26744,0,0.53487,0.29732,0.53487c0.29875,0,0.29875-0.26744,0.29875-0.53487V0.53722"/>
	<path class="st1" d="M223.12712,5.60681c-0.41737,0.01642-0.71466,0.34252-0.71466,0.67095
		c0,0.20878,0.13362,0.43399,0.46245,0.43399c0.32727,0,0.68463-0.25337,0.68463-0.83515c0-0.67094-0.6411-1.28324-1.77316-1.28324
		c-1.97134,0-2.52237,1.52017-2.52237,2.17704c0,1.16359,1.10504,1.38646,1.53595,1.47796
		c0.77773,0.14779,1.55096,0.31201,1.55096,1.13309c0,0.38708-0.34233,1.6398-2.13202,1.6398c-0.20869,0-1.35577,0-1.7011-0.79058
		c0.56755,0.07507,0.94138-0.37301,0.94138-0.79058c0-0.34251-0.2402-0.52081-0.55251-0.52081
		c-0.38887,0-0.83478,0.31202-0.83478,0.98296c0,0.85159,0.84979,1.44744,2.1335,1.44744c2.41577,0,2.99678-1.80403,2.99678-2.47497
		c0-0.53723-0.28374-0.91023-0.46089-1.09088c-0.40392-0.41757-0.83781-0.4903-1.49242-0.62636
		c-0.53751-0.1173-1.13354-0.22287-1.13354-0.89382c0-0.43165,0.35733-1.34188,1.67105-1.34188
		C222.15872,4.92179,222.90193,5.02501,223.12712,5.60681"/>
	<path class="st1" d="M233.60545,7.75571h4.1604c0.20869,0,0.49397,0,0.49397-0.29793c0-0.30028-0.28528-0.30028-0.49397-0.30028
		h-4.1604V2.98171c0-0.2088,0-0.49031-0.29877-0.49031c-0.29727,0-0.29727,0.28152-0.29727,0.49031V7.1575h-4.17694
		c-0.20869,0-0.49243,0-0.49243,0.30028c0,0.29793,0.28374,0.29793,0.49243,0.29793h4.17694v4.17579
		c0,0.2088,0,0.49266,0.29727,0.49266c0.29877,0,0.29877-0.28386,0.29877-0.49266V7.75571"/>
	<path class="st1" d="M246.90341,1.63982c0-0.35659,0-0.38709-0.3423-0.38709c-0.92337,0.95481-2.23709,0.95481-2.71457,0.95481
		v0.46215c0.2988,0,1.17862,0,1.95483-0.38708v7.72521c0,0.53724-0.045,0.71552-1.38879,0.71552h-0.47595v0.46215
		c0.52101-0.04457,1.81975-0.04457,2.41577-0.04457c0.59607,0,1.89328,0,2.41727,0.04457v-0.46215h-0.47894
		c-1.34225,0-1.38731-0.16423-1.38731-0.71552V1.63982"/>
	<path class="st1" d="M253.73933,11.18549c-0.58104,0-1.46085-0.37301-1.72812-1.80403
		c-0.16365-0.89616-0.16365-2.26854-0.16365-3.14828c0-0.95481,0-1.93774,0.11711-2.74475
		c0.28377-1.77354,1.40231-1.90727,1.77466-1.90727c0.49397,0,1.47589,0.26745,1.75966,1.74538
		c0.15013,0.83515,0.15013,1.96826,0.15013,2.90663c0,1.11901,0,2.13246-0.16367,3.08727
		C255.26326,10.7374,254.41045,11.18549,253.73933,11.18549 M256.88626,6.41382c0-1.19409-0.07355-2.38817-0.59604-3.49077
		c-0.68462-1.43102-1.90979-1.67032-2.53587-1.67032c-0.89333,0-1.98186,0.38709-2.59442,1.77354
		c-0.47597,1.02987-0.55103,2.19347-0.55103,3.38755c0,1.11667,0.05856,2.46092,0.6696,3.594
		c0.64111,1.20817,1.73264,1.50611,2.46083,1.50611c0.80475,0,1.94133-0.31436,2.59593-1.73131
		C256.81271,8.75509,256.88626,7.59149,256.88626,6.41382z"/>
	<path class="st1" d="M261.24637,11.18549c-0.58102,0-1.46085-0.37301-1.72812-1.80403
		c-0.16364-0.89616-0.16364-2.26854-0.16364-3.14828c0-0.95481,0-1.93774,0.11713-2.74475
		c0.28375-1.77354,1.40228-1.90727,1.77463-1.90727c0.49396,0,1.47589,0.26745,1.75964,1.74538
		c0.15015,0.83515,0.15015,1.96826,0.15015,2.90663c0,1.11901,0,2.13246-0.16367,3.08727
		C262.77029,10.7374,261.91751,11.18549,261.24637,11.18549 M264.39331,6.41382c0-1.19409-0.07358-2.38817-0.59604-3.49077
		c-0.68463-1.43102-1.90979-1.67032-2.53589-1.67032c-0.89331,0-1.98184,0.38709-2.59442,1.77354
		c-0.47595,1.02987-0.55103,2.19347-0.55103,3.38755c0,1.11667,0.05856,2.46092,0.66962,3.594
		c0.64108,1.20817,1.73264,1.50611,2.46082,1.50611c0.80475,0,1.94131-0.31436,2.59595-1.73131
		C264.31973,8.75509,264.39331,7.59149,264.39331,6.41382z"/>
	<path class="st1" d="M267.56277,0.53722c0-0.26979,0-0.53722-0.29874-0.53722c-0.2973,0-0.2973,0.26743-0.2973,0.53722v13.84111
		c0,0.26744,0,0.53487,0.2973,0.53487c0.29874,0,0.29874-0.26744,0.29874-0.53487V0.53722"/>
</g>
<g>
	<path class="st1" d="M320.7265,7.75571c0.25375,0,0.521,0,0.521-0.29793c0-0.30028-0.26724-0.30028-0.521-0.30028h-8.07007
		c-0.25372,0-0.52097,0-0.52097,0.30028c0,0.29793,0.26724,0.29793,0.52097,0.29793H320.7265"/>
	<path class="st1" d="M327.80417,10.03596l1.58093-1.53424c2.32721-2.05975,3.22357-2.8644,3.22357-4.35643
		c0-1.70082-1.34381-2.89257-3.16199-2.89257c-1.68759,0-2.78964,1.37239-2.78964,2.70019
		c0,0.83515,0.74622,0.83515,0.78976,0.83515c0.25372,0,0.77472-0.18064,0.77472-0.79058c0-0.38944-0.26721-0.77651-0.78976-0.77651
		c-0.11856,0-0.14862,0-0.19363,0.01408c0.34378-0.96889,1.14706-1.52017,2.01337-1.52017c1.35876,0,1.99841,1.20815,1.99841,2.4304
		c0,1.19409-0.74622,2.37175-1.56601,3.29606l-2.86319,3.19283c-0.16367,0.16423-0.16367,0.19238-0.16367,0.55131h5.53421
		l0.41742-2.59463h-0.37241c-0.07504,0.44808-0.18167,1.1026-0.3288,1.32781c-0.1066,0.11729-1.08853,0.11729-1.41733,0.11729
		H327.80417"/>
	<path class="st1" d="M337.13089,11.18549c-0.58105,0-1.46088-0.37301-1.72812-1.80403
		c-0.16367-0.89616-0.16367-2.26854-0.16367-3.14828c0-0.95481,0-1.93774,0.1171-2.74475
		c0.28378-1.77354,1.40234-1.90727,1.77469-1.90727c0.49396,0,1.47589,0.26745,1.75961,1.74538
		c0.15015,0.83515,0.15015,1.96826,0.15015,2.90663c0,1.11901,0,2.13246-0.16364,3.08727
		C338.65482,10.7374,337.802,11.18549,337.13089,11.18549 M340.2778,6.41382c0-1.19409-0.07355-2.38817-0.59604-3.49077
		c-0.68463-1.43102-1.90976-1.67032-2.53583-1.67032c-0.89337,0-1.98193,0.38709-2.59448,1.77354
		c-0.47595,1.02987-0.55103,2.19347-0.55103,3.38755c0,1.11667,0.05856,2.46092,0.66965,3.594
		c0.64111,1.20817,1.7326,1.50611,2.46082,1.50611c0.80478,0,1.94128-0.31436,2.59595-1.73131
		C340.20425,8.75509,340.2778,7.59149,340.2778,6.41382z"/>
	<path class="st1" d="M346.26697,0.83515l-2.14703,0.16421v0.46217c1.04349,0,1.1636,0.10322,1.1636,0.83516v7.75571
		c0,0.67095-0.16367,0.67095-1.1636,0.67095v0.46215c0.49246-0.01408,1.28372-0.04457,1.65457-0.04457
		c0.37234,0,1.10501,0.03049,1.65604,0.04457v-0.46214c-0.99997,0-1.16357,0-1.16357-0.67095V0.83515"/>
	<path class="st1" d="M351.4093,10.9767c-0.64111,0-1.29724-0.31436-1.69815-0.99938
		c-0.37381-0.65687-0.37381-1.5671-0.37381-2.10197c0-0.5818,0-1.3888,0.35733-2.04332
		c0.40237-0.68736,1.10504-0.99937,1.69958-0.99937c0.65762,0,1.29868,0.32843,1.68457,0.96888
		c0.39038,0.64044,0.39038,1.50611,0.39038,2.07382c0,0.53487,0,1.34188-0.32877,1.99875
		C352.81155,10.54505,352.15549,10.9767,351.4093,10.9767 M354.70486,7.99265c0-1.90727-1.48938-3.48843-3.29556-3.48843
		c-1.86328,0-3.31064,1.62574-3.31064,3.48843c0,1.92602,1.55096,3.35705,3.29559,3.35705
		C353.19894,11.34969,354.70486,9.88818,354.70486,7.99265z"/>
	<path class="st1" d="M359.06647,13.91382c-1.50592,0-2.53439-0.76009-2.53439-1.55068c0-0.68502,0.56604-1.2363,1.22217-1.28323
		h0.87979c1.28372,0,2.95477,0,2.95477,1.28323C361.58881,13.17016,360.52734,13.91382,359.06647,13.91382 M356.91943,9.20081
		c0-0.05865,0-0.40115,0.25375-0.69909c0.58105,0.41757,1.1936,0.46215,1.47589,0.46215c1.38879,0,2.41574-1.02987,2.41574-2.17704
		c0-0.55365-0.23721-1.10494-0.60956-1.44744c0.53748-0.50672,1.07199-0.5818,1.34225-0.5818c0.03,0,0.10208,0,0.14709,0.01407
		c-0.1636,0.06101-0.23721,0.22521-0.23721,0.4035c0,0.25337,0.1922,0.43165,0.43243,0.43165
		c0.15018,0,0.43088-0.10322,0.43088-0.44572c0-0.25571-0.17865-0.73193-0.7597-0.73193c-0.29727,0-0.95486,0.08914-1.58093,0.70144
		c-0.62613-0.49266-1.25369-0.53723-1.58099-0.53723c-1.3873,0-2.41727,1.02987-2.41727,2.17704
		c0,0.65687,0.3288,1.22225,0.70264,1.5366c-0.19366,0.22287-0.46243,0.71551-0.46243,1.23866
		c0,0.46215,0.1937,1.02753,0.65607,1.32546c-0.89627,0.25572-1.37225,0.89616-1.37225,1.49202
		c0,1.07445,1.47592,1.89553,3.29559,1.89553c1.75964,0,3.31061-0.76244,3.31061-1.92368c0-0.52313-0.20871-1.28323-0.96838-1.70081
		c-0.79123-0.41757-1.65607-0.41757-2.56442-0.41757c-0.37234,0-1.01645,0-1.11853-0.01642
		C357.23175,10.14155,356.91943,9.67938,356.91943,9.20081z M358.64908,8.61901c-1.29727,0-1.29727-1.48967-1.29727-1.83218
		c0-0.4035,0.01654-0.88208,0.23877-1.25509c0.12012-0.1783,0.46243-0.59587,1.0585-0.59587
		c1.29721,0,1.29721,1.49202,1.29721,1.83452c0,0.4035-0.01501,0.87974-0.23721,1.25275
		C359.58896,8.20144,359.24661,8.61901,358.64908,8.61901z"/>
	<path class="st1" d="M366.38132,8.07711c0-0.28621-0.02106-0.2956-0.31683-0.2956c-0.6756,0.66391-1.63498,0.67329-2.06891,0.67329
		v0.38004c0.25226,0,0.94888,0,1.53146-0.29558v5.38395c0,0.34954,0,0.48561-1.05551,0.48561h-0.40091v0.38005
		c0.18921-0.00938,1.48642-0.04222,1.87827-0.04222c0.32584,0,1.65607,0.03284,1.88879,0.04222v-0.38005h-0.40085
		c-1.05551,0-1.05551-0.13606-1.05551-0.48561V8.07711"/>
	<path class="st1" d="M371.84943,14.70441c-0.48645,0-1.13055-0.28386-1.34225-1.14953
		c-0.14709-0.62401-0.14709-1.48967-0.14709-2.27088c0-0.76948,0-1.57178,0.15912-2.15357
		c0.2207-0.83281,0.89636-1.05332,1.33023-1.05332c0.57053,0,1.11856,0.34721,1.3092,0.95949
		c0.16818,0.57007,0.17868,1.33015,0.17868,2.24741c0,0.78121,0,1.56241-0.13663,2.22866
		C372.98901,14.47216,372.27133,14.70441,371.84943,14.70441 M374.29822,11.42242c0-1.16125-0.13809-1.99641-0.62308-2.73537
		c-0.3273-0.48562-0.9819-0.90554-1.82571-0.90554c-2.44879,0-2.44879,2.88083-2.44879,3.64091s0,3.57758,2.44879,3.57758
		S374.29822,12.18251,374.29822,11.42242z"/>
	<path class="st1" d="M380.38196,0.53722c0-0.26979,0-0.53722-0.2988-0.53722c-0.29727,0-0.29727,0.26743-0.29727,0.53722v13.84111
		c0,0.26744,0,0.53487,0.29727,0.53487c0.2988,0,0.2988-0.26744,0.2988-0.53487V0.53722"/>
	<path class="st1" d="M387.89499,5.60681c-0.41739,0.01642-0.71466,0.34252-0.71466,0.67095
		c0,0.20878,0.13361,0.43399,0.46237,0.43399c0.32733,0,0.68469-0.25337,0.68469-0.83515c0-0.67094-0.64111-1.28324-1.77322-1.28324
		c-1.97131,0-2.52231,1.52017-2.52231,2.17704c0,1.16359,1.10501,1.38646,1.53592,1.47796
		c0.77774,0.14779,1.55093,0.31201,1.55093,1.13309c0,0.38708-0.34232,1.6398-2.13196,1.6398c-0.20871,0-1.35577,0-1.70111-0.79058
		c0.5675,0.07507,0.94138-0.37301,0.94138-0.79058c0-0.34251-0.24017-0.52081-0.55249-0.52081
		c-0.38889,0-0.83481,0.31202-0.83481,0.98296c0,0.85159,0.84985,1.44744,2.13348,1.44744c2.4158,0,2.99683-1.80403,2.99683-2.47497
		c0-0.53723-0.28375-0.91023-0.46094-1.09088c-0.40384-0.41757-0.83783-0.4903-1.49237-0.62636
		c-0.53751-0.1173-1.13358-0.22287-1.13358-0.89382c0-0.43165,0.3573-1.34188,1.67102-1.34188
		C386.92657,4.92179,387.66977,5.02501,387.89499,5.60681"/>
	<path class="st1" d="M398.52344,7.75571h4.1604c0.20871,0,0.49396,0,0.49396-0.29793c0-0.30028-0.28525-0.30028-0.49396-0.30028
		h-4.1604V2.98171c0-0.2088,0-0.49031-0.2988-0.49031c-0.2973,0-0.2973,0.28152-0.2973,0.49031V7.1575h-4.17688
		c-0.20871,0-0.49243,0-0.49243,0.30028c0,0.29793,0.28372,0.29793,0.49243,0.29793h4.17688v4.17579
		c0,0.2088,0,0.49266,0.2973,0.49266c0.2988,0,0.2988-0.28386,0.2988-0.49266V7.75571"/>
	<path class="st1" d="M411.67123,1.63982c0-0.35659,0-0.38709-0.34232-0.38709c-0.92334,0.95481-2.23709,0.95481-2.71454,0.95481
		v0.46215c0.29883,0,1.17865,0,1.95486-0.38708v7.72521c0,0.53724-0.04507,0.71552-1.38879,0.71552h-0.47598v0.46215
		c0.52097-0.04457,1.8197-0.04457,2.4158-0.04457c0.59604,0,1.89325,0,2.41724,0.04457v-0.46215h-0.47894
		c-1.34225,0-1.38733-0.16423-1.38733-0.71552V1.63982"/>
	<path class="st1" d="M417.31653,0.53722c0-0.26979,0-0.53722-0.29874-0.53722c-0.29727,0-0.29727,0.26743-0.29727,0.53722v13.84111
		c0,0.26744,0,0.53487,0.29727,0.53487c0.29874,0,0.29874-0.26744,0.29874-0.53487V0.53722"/>
</g>
</svg>
