<?xml version="1.0" encoding="utf-8"?>
<!-- Generator: Adobe Illustrator 23.0.3, SVG Export Plug-In . SVG Version: 6.00 Build 0)  -->
<svg version="1.1" id="Layer_1" xmlns="http://www.w3.org/2000/svg" xmlns:xlink="http://www.w3.org/1999/xlink" x="0px" y="0px"
	 viewBox="0 0 277.81183 144.80449" style="enable-background:new 0 0 277.81183 144.80449;" xml:space="preserve">
<style type="text/css">
	.st0{fill:#8FF4DD;}
	.st1{fill:none;stroke:#8FF4DD;stroke-width:2;stroke-miterlimit:10;}
	.st2{fill:none;stroke:#2DE2E6;stroke-width:2;stroke-linecap:round;stroke-miterlimit:10;}
</style>
<g>
	<path class="st0" d="M44.09253,144.49693c-0.54481,0-1.36858-0.3493-1.61898-1.68936
		c-0.15381-0.8392-0.15381-2.12434-0.15381-2.94817c0-0.89412,0-1.81458,0.10981-2.5703
		c0.26587-1.66081,1.31375-1.78604,1.66299-1.78604c0.46144,0,1.38193,0.25046,1.64767,1.63445
		c0.14059,0.78207,0.14059,1.84315,0.14059,2.72189c0,1.04788,0,1.99692-0.15381,2.89104
		C45.51833,144.07733,44.72086,144.49693,44.09253,144.49693 M47.03861,140.02855c0-1.11818-0.06818-2.23636-0.55803-3.26889
		c-0.64154-1.34006-1.78826-1.56415-2.37484-1.56415c-0.83698,0-1.8563,0.36249-2.42966,1.66081
		c-0.44598,0.96442-0.51627,2.05405-0.51627,3.17223c0,1.0457,0.05498,2.3045,0.62833,3.36557
		c0.59965,1.13136,1.62123,1.41037,2.30439,1.41037c0.7536,0,1.8168-0.29437,2.42981-1.62128
		C46.97042,142.22101,47.03861,141.13138,47.03861,140.02855z"/>
	<path class="st0" d="M50.32719,143.75659c0-0.40421-0.33603-0.74034-0.74025-0.74034c-0.40646,0-0.74038,0.33614-0.74038,0.74034
		c0,0.40422,0.33392,0.74034,0.74038,0.74034C49.99116,144.49693,50.32719,144.16081,50.32719,143.75659"/>
	<path class="st0" d="M55.05913,144.49693c-0.54481,0-1.36858-0.3493-1.61898-1.68936
		c-0.15381-0.8392-0.15381-2.12434-0.15381-2.94817c0-0.89412,0-1.81458,0.10981-2.5703
		c0.26587-1.66081,1.31375-1.78604,1.66299-1.78604c0.46144,0,1.38193,0.25046,1.64766,1.63445
		c0.1406,0.78207,0.1406,1.84315,0.1406,2.72189c0,1.04788,0,1.99692-0.15381,2.89104
		C56.48493,144.07733,55.68746,144.49693,55.05913,144.49693 M58.00521,140.02855c0-1.11818-0.06819-2.23636-0.55803-3.26889
		c-0.64154-1.34006-1.78827-1.56415-2.37484-1.56415c-0.83698,0-1.85631,0.36249-2.42967,1.66081
		c-0.44598,0.96442-0.51627,2.05405-0.51627,3.17223c0,1.0457,0.05497,2.3045,0.62833,3.36557
		c0.59965,1.13136,1.62123,1.41037,2.30439,1.41037c0.7536,0,1.8168-0.29437,2.4298-1.62128
		C57.93702,142.22101,58.00521,141.13138,58.00521,140.02855z"/>
	<path class="st0" d="M62.71734,135.558c0-0.33391,0-0.36249-0.32071-0.36249c-0.86552,0.89412-2.09575,0.89412-2.54173,0.89412
		v0.43277c0.27895,0,1.10285,0,1.82989-0.36247v7.23419c0,0.50307-0.04162,0.67003-1.30053,0.67003h-0.44584v0.43279
		c0.48759-0.04175,1.70475-0.04175,2.26263-0.04175c0.55804,0,1.77294,0,2.26278,0.04175v-0.43279h-0.44809
		c-1.25666,0-1.29842-0.15378-1.29842-0.67003V135.558"/>
</g>
<g>
	<path class="st0" d="M97.60747,144.49693c-0.54482,0-1.36858-0.3493-1.61898-1.68936
		c-0.15381-0.8392-0.15381-2.12434-0.15381-2.94817c0-0.89412,0-1.81458,0.1098-2.5703
		c0.26587-1.66081,1.31374-1.78604,1.66299-1.78604c0.46144,0,1.38194,0.25046,1.64767,1.63445
		c0.14059,0.78207,0.14059,1.84315,0.14059,2.72189c0,1.04788,0,1.99692-0.15381,2.89104
		C99.03326,144.07733,98.23579,144.49693,97.60747,144.49693 M100.55354,140.02855c0-1.11818-0.06818-2.23636-0.55803-3.26889
		c-0.64154-1.34006-1.78825-1.56415-2.37483-1.56415c-0.83698,0-1.85631,0.36249-2.42966,1.66081
		c-0.44597,0.96442-0.51627,2.05405-0.51627,3.17223c0,1.0457,0.05497,2.3045,0.62833,3.36557
		c0.59966,1.13136,1.62123,1.41037,2.3044,1.41037c0.75361,0,1.81681-0.29437,2.42981-1.62128
		C100.48537,142.22101,100.55354,141.13138,100.55354,140.02855z"/>
	<path class="st0" d="M103.98271,143.75659c0-0.40421-0.33602-0.74034-0.74024-0.74034c-0.40646,0-0.74039,0.33614-0.74039,0.74034
		c0,0.40422,0.33392,0.74034,0.74039,0.74034C103.64669,144.49693,103.98271,144.16081,103.98271,143.75659"/>
	<path class="st0" d="M109.2024,135.558c0-0.33391,0-0.36249-0.32071-0.36249c-0.86552,0.89412-2.09575,0.89412-2.54173,0.89412
		v0.43277c0.27895,0,1.10285,0,1.82989-0.36247v7.23419c0,0.50307-0.04162,0.67003-1.30053,0.67003h-0.44584v0.43279
		c0.48759-0.04175,1.70475-0.04175,2.26263-0.04175c0.55804,0,1.77294,0,2.26279,0.04175v-0.43279h-0.44809
		c-1.25666,0-1.29842-0.15378-1.29842-0.67003V135.558"/>
</g>
<g>
	<path class="st0" d="M153.36978,135.71178c0-0.33391,0-0.36249-0.32069-0.36249c-0.86552,0.89412-2.09575,0.89412-2.54173,0.89412
		v0.43277c0.27895,0,1.10284,0,1.82988-0.36247v7.23419c0,0.50307-0.04163,0.67003-1.30052,0.67003h-0.44585v0.43279
		c0.48759-0.04175,1.70474-0.04175,2.26265-0.04175c0.55801,0,1.77292,0,2.26277,0.04175v-0.43279h-0.44809
		c-1.25667,0-1.29842-0.15378-1.29842-0.67003V135.71178"/>
</g>
<g>
	<path class="st0" d="M199.56894,135.558c0-0.33391,0-0.36249-0.32056-0.36249c-0.86469,0.89412-2.09491,0.89412-2.54201,0.89412
		v0.43277c0.27979,0,1.10368,0,1.83058-0.36247v7.23419c0,0.50307-0.04218,0.67003-1.30054,0.67003h-0.44569v0.43279
		c0.48788-0.04175,1.70406-0.04175,2.26224-0.04175c0.55815,0,1.77292,0,2.26361,0.04175v-0.43279h-0.44853
		c-1.25693,0-1.2991-0.15378-1.2991-0.67003V135.558"/>
	<path class="st0" d="M205.97034,144.49693c-0.54411,0-1.36801-0.3493-1.61827-1.68936
		c-0.15324-0.8392-0.15324-2.12434-0.15324-2.94817c0-0.89412,0-1.81458,0.10966-2.5703
		c0.26573-1.66081,1.31319-1.78604,1.66185-1.78604c0.46257,0,1.3821,0.25046,1.6478,1.63445
		c0.14061,0.78207,0.14061,1.84315,0.14061,2.72189c0,1.04788,0,1.99692-0.15324,2.89104
		C207.39742,144.07733,206.59882,144.49693,205.97034,144.49693 M208.91727,140.02855c0-1.11818-0.06889-2.23636-0.55818-3.26889
		c-0.64111-1.34006-1.78839-1.56415-2.37468-1.56415c-0.83656,0-1.85588,0.36249-2.42952,1.66081
		c-0.44569,0.96442-0.51601,2.05405-0.51601,3.17223c0,1.0457,0.05484,2.3045,0.62708,3.36557
		c0.60034,1.13136,1.6225,1.41037,2.30438,1.41037c0.75362,0,1.81795-0.29437,2.43094-1.62128
		C208.84837,142.22101,208.91727,141.13138,208.91727,140.02855z"/>
</g>
<g>
	<path class="st0" d="M245.9837,135.558c0-0.33391,0-0.36249-0.32056-0.36249c-0.86467,0.89412-2.09489,0.89412-2.54201,0.89412
		v0.43277c0.27979,0,1.10368,0,1.83058-0.36247v7.23419c0,0.50307-0.04216,0.67003-1.30054,0.67003h-0.44569v0.43279
		c0.48788-0.04175,1.70407-0.04175,2.26222-0.04175c0.55817,0,1.77295,0,2.26363,0.04175v-0.43279h-0.44852
		c-1.25694,0-1.29912-0.15378-1.29912-0.67003V135.558"/>
	<path class="st0" d="M252.38512,144.49693c-0.54411,0-1.36801-0.3493-1.61829-1.68936
		c-0.15324-0.8392-0.15324-2.12434-0.15324-2.94817c0-0.89412,0-1.81458,0.10966-2.5703
		c0.26573-1.66081,1.31319-1.78604,1.66187-1.78604c0.46257,0,1.38208,0.25046,1.6478,1.63445
		c0.14059,0.78207,0.14059,1.84315,0.14059,2.72189c0,1.04788,0,1.99692-0.15324,2.89104
		C253.81218,144.07733,253.01358,144.49693,252.38512,144.49693 M255.33203,140.02855c0-1.11818-0.06889-2.23636-0.55817-3.26889
		c-0.64111-1.34006-1.78839-1.56415-2.37469-1.56415c-0.83655,0-1.85588,0.36249-2.4295,1.66081
		c-0.44571,0.96442-0.51601,2.05405-0.51601,3.17223c0,1.0457,0.05484,2.3045,0.62706,3.36557
		c0.60034,1.13136,1.6225,1.41037,2.3044,1.41037c0.7536,0,1.81793-0.29437,2.43094-1.62128
		C255.26314,142.22101,255.33203,141.13138,255.33203,140.02855z"/>
	<path class="st0" d="M259.5556,144.49693c-0.54413,0-1.36804-0.3493-1.61829-1.68936
		c-0.15326-0.8392-0.15326-2.12434-0.15326-2.94817c0-0.89412,0-1.81458,0.10968-2.5703
		c0.26572-1.66081,1.31317-1.78604,1.66187-1.78604c0.46255,0,1.38205,0.25046,1.6478,1.63445
		c0.14056,0.78207,0.14056,1.84315,0.14056,2.72189c0,1.04788,0,1.99692-0.15323,2.89104
		C260.98267,144.07733,260.18405,144.49693,259.5556,144.49693 M262.5025,140.02855c0-1.11818-0.06888-2.23636-0.55817-3.26889
		c-0.64111-1.34006-1.78839-1.56415-2.37469-1.56415c-0.83655,0-1.85587,0.36249-2.4295,1.66081
		c-0.44571,0.96442-0.51599,2.05405-0.51599,3.17223c0,1.0457,0.05481,2.3045,0.62704,3.36557
		c0.60037,1.13136,1.6225,1.41037,2.30441,1.41037c0.75357,0,1.8179-0.29437,2.43091-1.62128
		C262.43362,142.22101,262.5025,141.13138,262.5025,140.02855z"/>
</g>
<g>
	<g>
		<polyline class="st1" points="52.81182,3.95598 52.81182,125 273.85583,125 		"/>
		<g>
			<polygon class="st0" points="48.35889,12.23161 49.6755,12.71011 52.81182,4.09276 55.94814,12.71011 57.26339,12.23161 
				52.81182,0 			"/>
		</g>
		<g>
			<polygon class="st0" points="265.58023,129.45293 265.10172,128.13632 273.71906,125 265.10172,121.86368 265.58023,120.54843 
				277.81183,125 			"/>
		</g>
	</g>
</g>
<path class="st0" d="M37.09679,130.187c-0.55447,0-1.39289-0.3555-1.64776-1.71931
	c-0.15651-0.85407-0.15651-2.16199-0.15651-3.00041c0-0.90996,0-1.84674,0.11179-2.61584
	c0.27053-1.69024,1.33699-1.8177,1.69248-1.8177c0.46951,0,1.4063,0.25489,1.67682,1.66342
	c0.14309,0.79593,0.14309,1.87582,0.14309,2.77012c0,1.06646,0,2.03231-0.1565,2.94228
	C38.5478,129.75996,37.73621,130.187,37.09679,130.187 M40.09495,125.63942c0-1.138-0.06931-2.27601-0.56788-3.32683
	c-0.65285-1.36382-1.81993-1.59187-2.41688-1.59187c-0.85183,0-1.88923,0.36891-2.47276,1.69025
	c-0.45386,0.98151-0.52541,2.09045-0.52541,3.22845c0,1.06423,0.05589,2.34534,0.63943,3.42521
	c0.61036,1.15141,1.65,1.43536,2.34533,1.43536c0.76687,0,1.84899-0.29958,2.47276-1.65001
	C40.02564,127.87073,40.09495,126.76179,40.09495,125.63942z"/>
<path class="st0" d="M43.64984,123.32316c-0.94574,0-1.67013-0.76463-1.67013-1.66117c0-0.93456,0.74451-1.67012,1.67013-1.67012
	c0.94572,0,1.67011,0.76463,1.67011,1.66119C45.31995,122.5876,44.57544,123.32316,43.64984,123.32316 M45.81182,121.66199
	c0-1.21626-0.97479-2.16199-2.16198-2.16199c-1.20732,0-2.16423,0.9748-2.16423,2.15305c0,1.21626,0.97703,2.16199,2.16423,2.16199
	C44.85716,123.81503,45.81182,122.84024,45.81182,121.66199z"/>
<path class="st0" d="M26.85735,26.76179c-0.22808,0-0.881,0-1.32143-0.89654c-0.25713-0.52541-0.25713-1.2364-0.25713-1.93171
	c0-0.7691,0-1.43537,0.29963-1.96301c0.38233-0.71097,0.92336-0.89431,1.41973-0.89431c0.65506,0,1.12454,0.48293,1.36608,1.12236
	c0.16985,0.45386,0.22808,1.35041,0.22808,2.00326C28.59231,25.38232,28.10709,26.76179,26.85735,26.76179 M28.61907,25.66625
	v0.4561c0,3.32459-1.47783,3.97968-2.30288,3.97968c-0.24139,0-1.00821-0.02907-1.39283-0.51199
	c0.62602,0,0.74006-0.41138,0.74006-0.65285c0-0.44267-0.34213-0.65508-0.65506-0.65508c-0.22579,0-0.65292,0.12743-0.65292,0.6819
	c0,0.95244,0.76696,1.53598,1.97649,1.53598c1.83327,0,3.56608-1.93394,3.56608-4.99024c0-3.82318-1.63437-4.78903-2.89985-4.78903
	c-0.78027,0-1.47783,0.25488-2.08825,0.89431C24.32639,22.25446,24,22.85143,24,23.91788c0,1.77744,1.24975,3.17032,2.8439,3.17032
	C27.70916,27.0882,28.29268,26.49126,28.61907,25.66625z"/>
<path class="st0" d="M34.09667,30.187c-0.55447,0-1.39284-0.3555-1.64768-1.71931c-0.15654-0.85406-0.15654-2.16199-0.15654-3.00041
	c0-0.90996,0-1.84674,0.11175-2.61584c0.27058-1.69025,1.33703-1.8177,1.69246-1.8177c0.46962,0,1.40642,0.25489,1.67686,1.66342
	c0.14309,0.79593,0.14309,1.87582,0.14309,2.77012c0,1.06646,0,2.03232-0.15654,2.94228
	C35.54774,29.75996,34.73614,30.187,34.09667,30.187 M37.09497,25.63943c0-1.13801-0.0694-2.27602-0.56792-3.32684
	c-0.65292-1.36381-1.81995-1.59187-2.41692-1.59187c-0.85181,0-1.88921,0.36891-2.47273,1.69024
	c-0.45388,0.98151-0.52542,2.09045-0.52542,3.22846c0,1.06422,0.05595,2.34533,0.63947,3.42521
	c0.61028,1.15141,1.64997,1.43536,2.34524,1.43536c0.76695,0,1.849-0.29959,2.47286-1.65001
	C37.02557,27.87074,37.09497,26.76179,37.09497,25.63943z"/>
<path class="st0" d="M40.64974,23.32317c-0.94568,0-1.67014-0.76463-1.67014-1.66117c0-0.93456,0.74463-1.67013,1.67014-1.67013
	c0.94582,0,1.67014,0.76463,1.67014,1.66119C42.31988,22.5876,41.57538,23.32317,40.64974,23.32317 M42.81182,21.66199
	c0-1.21626-0.97487-2.16199-2.16208-2.16199c-1.20725,0-2.16422,0.9748-2.16422,2.15305c0,1.21626,0.97702,2.16198,2.16422,2.16198
	C41.85712,23.81503,42.81182,22.84024,42.81182,21.66199z"/>
<polyline class="st2" points="52.81182,25 102.81182,25 202.81181,125 264.81183,125 "/>
<g>
</g>
<g>
</g>
<g>
</g>
<g>
</g>
<g>
</g>
<g>
</g>
<g>
</g>
<g>
</g>
<g>
</g>
<g>
</g>
<g>
</g>
<g>
</g>
</svg>
