<svg xmlns="http://www.w3.org/2000/svg" viewBox="0 0 141.72461 60.61475">
  <defs>
    <style>
      .cls-1, .cls-2 {
        fill: none;
        stroke: #8ff4dd;
      }

      .cls-1 {
        stroke-width: 4px;
      }

      .cls-3 {
        fill: #8ff4dd;
      }
    </style>
  </defs>
  <title>BusSignal</title>
  <g id="Layer_1" data-name="Layer 1">
    <line class="cls-1" x1="111.61035" y1="29.08887" x2="60.88001" y2="29.08887"/>
  </g>
  <g id="Layer_2" data-name="Layer 2">
    <polyline class="cls-2" points="11.61 20.089 46.61 20.089 61.61 29.089 46.61 4.089 11.61 4.089"/>
    <polyline class="cls-2" points="11.61 54.089 46.61 54.089 61.61 29.089"/>
    <polyline class="cls-2" points="11.61 38.089 46.61 38.089 61.61 29.089"/>
    <line class="cls-2" x1="90.36035" y1="35.58406" x2="82.86036" y2="22.59367"/>
    <g>
      <path class="cls-3" d="M43.93555,53.0376c-.37989,0-1.07959,0-1.43946.02978v-.31006c.27,0,.82959,0,.82959-.2998a.72135.72135,0,0,0-.02978-.13965l-.52979-1.5293H40.29736l-.45947,1.30957a.65913.65913,0,0,0-.02.14991c0,.25976.24951.50927.74951.50927v.31006L39.418,53.0376l-1.01953.02978v-.31006a1.03794,1.03794,0,0,0,1.11914-.66943l2.06933-5.97656c.04981-.14014.07959-.2002.23975-.2002.15967,0,.17969.07032.23.2002l2.15869,6.24658c.10987.32959.25.39941.84961.39941h.17969v.31006Zm-2.40869-5.80713L40.40723,50.479h2.249Z" transform="translate(-38.38965 -45.91113)"/>
      <path class="cls-3" d="M47.001,56.52588a1.06352,1.06352,0,0,1-1.17774-.91553.32651.32651,0,1,1,.65283-.01123.319.319,0,0,1-.38427.32031,1.06043,1.06043,0,0,0,.8916.44287c.25635,0,.65869-.16894.65869-.96142,0-.57129-.21582-.96777-.69385-.96777h-.25635c-.09912,0-.13964,0-.13964-.064,0-.05859.04052-.06445.0874-.07031.04053,0,.18066-.01123.227-.01709a.56507.56507,0,0,0,.519-.30322,1.45718,1.45718,0,0,0,.16309-.66456c0-.52441-.3208-.65283-.55957-.65283a.94457.94457,0,0,0-.77539.36133c.0874,0,.36133,0,.36133.2915a.29715.29715,0,1,1-.59424-.00585c0-.44288.44287-.79248,1.03174-.79248.55957,0,1.07226.32617,1.07226.80419A1.122,1.122,0,0,1,47.269,54.3457a1.12454,1.12454,0,0,1,.97315,1.05518A1.189,1.189,0,0,1,47.001,56.52588Z" transform="translate(-38.38965 -45.91113)"/>
    </g>
    <g>
      <path class="cls-3" d="M43.95874,69.0376c-.37988,0-1.07959,0-1.43945.02978v-.31006c.27,0,.82959,0,.82959-.2998a.72064.72064,0,0,0-.02979-.13965l-.52978-1.5293H40.32056l-.45948,1.30957a.65913.65913,0,0,0-.02.14991c0,.25976.24952.50927.74952.50927v.31006l-1.14942-.02978-1.01953.02978v-.31006a1.03794,1.03794,0,0,0,1.11914-.66943l2.06934-5.97656c.0498-.14014.07959-.2002.23974-.2002.15967,0,.17969.07032.23.2002l2.1587,6.24658c.10986.32959.25.39941.8496.39941h.17969v.31006Zm-2.40869-5.80713L40.43042,66.479h2.249Z" transform="translate(-38.38965 -45.91113)"/>
      <path class="cls-3" d="M48.05591,72.39746h-2.1626c0-.13965,0-.15137.064-.21582l1.11914-1.24707a2.08819,2.08819,0,0,0,.6123-1.28809c0-.478-.251-.95019-.78125-.95019a.84087.84087,0,0,0-.78711.59424.2231.2231,0,0,1,.07617-.00586.29511.29511,0,0,1,.3086.30322.30626.30626,0,1,1-.61182-.01758,1.07668,1.07668,0,0,1,1.08984-1.05468A1.145,1.145,0,0,1,48.219,69.64648c0,.58252-.34961.89747-1.25927,1.70166l-.61768.60059h1.04932a1.89162,1.89162,0,0,0,.55371-.04687,1.91248,1.91248,0,0,0,.12793-.51856h.146Z" transform="translate(-38.38965 -45.91113)"/>
    </g>
    <g>
      <path class="cls-3" d="M44.04614,87.0376c-.37988,0-1.07959,0-1.43945.02978v-.31006c.27,0,.82959,0,.82959-.2998a.72064.72064,0,0,0-.02979-.13965l-.52978-1.5293H40.408l-.45947,1.30957a.65857.65857,0,0,0-.02.14991c0,.25976.24951.50927.74951.50927v.31006l-1.14942-.02978-1.01953.02978v-.31006a1.03793,1.03793,0,0,0,1.11914-.66943l2.06934-5.97656c.0498-.14014.07959-.2002.23975-.2002.15966,0,.17968.07032.23.2002l2.15869,6.24658c.10986.32959.25.39941.84961.39941h.17968v.31006Zm-2.40869-5.80713L40.51782,84.479h2.249Z" transform="translate(-38.38965 -45.91113)"/>
      <path class="cls-3" d="M47.18726,90.37988c-.2334,0-.74024,0-.94434.01758V90.2168h.18652c.52442,0,.542-.06983.542-.27979V86.91748a1.743,1.743,0,0,1-.76368.15186v-.18067a1.44051,1.44051,0,0,0,1.061-.373c.13428,0,.13428.01171.13428.15136v3.27c0,.21582.01709.27979.542.27979h.18652v.18066C47.92749,90.37988,47.42017,90.37988,47.18726,90.37988Z" transform="translate(-38.38965 -45.91113)"/>
    </g>
    <g>
      <path class="cls-3" d="M43.92676,103.0376c-.37988,0-1.07959,0-1.43946.02978v-.31006c.27,0,.82959,0,.82959-.2998a.72061.72061,0,0,0-.02978-.13965l-.52979-1.5293H40.28857l-.45947,1.30957a.65913.65913,0,0,0-.02.14991c0,.25976.24951.50927.74951.50927v.31006l-1.14941-.02978-1.01953.02978v-.31006a1.03794,1.03794,0,0,0,1.11914-.66943l2.06934-5.97656c.0498-.14014.07958-.2002.23974-.2002.15967,0,.17969.07032.23.2002l2.15869,6.24658c.10987.32959.25.39941.84961.39941h.17969v.31006Zm-2.40869-5.80713L40.39844,100.479h2.249Z" transform="translate(-38.38965 -45.91113)"/>
      <path class="cls-3" d="M48.03564,105.84961a1.08973,1.08973,0,0,1-1.97607.0874,2.94952,2.94952,0,0,1-.26221-1.40478,3.1176,3.1176,0,0,1,.21534-1.32325,1.06865,1.06865,0,0,1,1.01416-.69335,1.08085,1.08085,0,0,1,.99121.65283,4.12292,4.12292,0,0,1,.01757,2.68115Zm-.32666-2.52393c-.11084-.57714-.4956-.68213-.688-.68213-.14551,0-.58252.05274-.69336.7461a7.78177,7.78177,0,0,0-.04688,1.07275,7.9091,7.9091,0,0,0,.06445,1.23c.105.55957.44874.70508.67579.70508.26269,0,.59472-.1748.68213-.72851a11.282,11.282,0,0,0,.00585-2.34327Z" transform="translate(-38.38965 -45.91113)"/>
    </g>
    <g>
      <path class="cls-3" d="M158.91309,77.94775c-.37989,0-1.07959,0-1.43946.02979v-.31006c.27,0,.82959,0,.82959-.2998a.72135.72135,0,0,0-.02978-.13965l-.52979-1.5293H155.2749l-.45947,1.30957a.659.659,0,0,0-.02.1499c0,.25977.24951.50928.74951.50928v.31006l-1.14941-.02979-1.01953.02979v-.31006a1.038,1.038,0,0,0,1.11914-.66943l2.06933-5.97657c.04981-.14013.07959-.20019.23975-.20019.15967,0,.17969.07031.23.20019l2.15869,6.24659c.10986.32959.25.39941.84961.39941h.17969v.31006Zm-2.4087-5.80712-1.11962,3.24853h2.249Z" transform="translate(-38.38965 -45.91113)"/>
      <path class="cls-3" d="M163.76416,80.47607a4.31456,4.31456,0,0,1-1.55908-1.8789,7.69538,7.69538,0,0,1-.02979-6.16651,4.35647,4.35647,0,0,1,1.58887-1.94921.08989.08989,0,0,1,.1001.10009c0,.03028,0,.04981-.12988.16992a6.53654,6.53654,0,0,0-1.60889,4.72754,6.623,6.623,0,0,0,1.56885,4.67725c.16992.16992.16992.18994.16992.21973A.08967.08967,0,0,1,163.76416,80.47607Z" transform="translate(-38.38965 -45.91113)"/>
      <path class="cls-3" d="M166.88477,78.19727a1.82259,1.82259,0,0,1-2.01856-1.56885.55975.55975,0,1,1,1.11914-.02.54744.54744,0,0,1-.65967.5498,1.8201,1.8201,0,0,0,1.5293.75928c.43994,0,1.1294-.28955,1.1294-1.64893,0-.97949-.36963-1.65917-1.18946-1.65917h-.43945c-.16992,0-.24024,0-.24024-.10987,0-.1001.07032-.10986.14991-.12012.07031,0,.31006-.02.39013-.02978a.96867.96867,0,0,0,.88916-.52,2.48736,2.48736,0,0,0,.27979-1.13916c0-.89941-.54932-1.11914-.95947-1.11914a1.62014,1.62014,0,0,0-1.32911.61963c.14991,0,.61963,0,.61963.49951a.50981.50981,0,1,1-1.01953-.00977c0-.75976.75977-1.35937,1.769-1.35937.95947,0,1.83935.55957,1.83935,1.37891a1.92493,1.92493,0,0,1-1.39941,1.75927,1.92755,1.92755,0,0,1,1.66894,1.80908A2.0382,2.0382,0,0,1,166.88477,78.19727Z" transform="translate(-38.38965 -45.91113)"/>
      <path class="cls-3" d="M170.83545,74.72949a.52979.52979,0,1,1,.52978-.52978A.53373.53373,0,0,1,170.83545,74.72949Zm0,3.24805a.52979.52979,0,1,1,.52978-.52979A.53342.53342,0,0,1,170.83545,77.97754Z" transform="translate(-38.38965 -45.91113)"/>
      <path class="cls-3" d="M176.45361,77.03809a1.86873,1.86873,0,0,1-3.38818.1499,5.06487,5.06487,0,0,1-.44971-2.40869,5.34276,5.34276,0,0,1,.37012-2.26856,1.83168,1.83168,0,0,1,1.73877-1.18945,1.85314,1.85314,0,0,1,1.69922,1.11914,7.05817,7.05817,0,0,1,.02978,4.59766Zm-.55957-4.32764c-.18994-.98926-.84961-1.16943-1.1792-1.16943-.25,0-.99951.08984-1.18945,1.27929a13.38178,13.38178,0,0,0-.08008,1.83887,13.63106,13.63106,0,0,0,.10987,2.10889c.18017.95947.76953,1.20947,1.15966,1.20947.44971,0,1.01954-.29981,1.16944-1.24951a19.28116,19.28116,0,0,0,.00976-4.01758Z" transform="translate(-38.38965 -45.91113)"/>
      <path class="cls-3" d="M179.48486,78.52734a4.35285,4.35285,0,0,1-1.58935,1.94873.09444.09444,0,0,1-.09961-.10009c0-.02979,0-.04981.12988-.16944a6.55451,6.55451,0,0,0,1.60889-4.72754,6.48361,6.48361,0,0,0-1.54883-4.66748c-.18994-.18017-.18994-.1997-.18994-.23a.09444.09444,0,0,1,.09961-.10009,4.317,4.317,0,0,1,1.55957,1.87939,7.70066,7.70066,0,0,1,.02978,6.1665Z" transform="translate(-38.38965 -45.91113)"/>
    </g>
    <path class="cls-3" d="M131.438,85.34766v.52148c0,.21582.01221.28174.456.28174h.126v.186c-.24609-.01806-.564-.01806-.81592-.01806-.25146,0-.56347,0-.80957.01806v-.186h.126c.44385,0,.45605-.06592.45605-.28174v-.52148h-1.59521v-.186l1.84082-2.8125c.04785-.07178.06592-.07178.12012-.07178.0957,0,.0957.03565.0957.15577v2.72851h.59961v.186Zm-.42578-2.42286-1.46289,2.23682h1.46289Z" transform="translate(-38.38965 -45.91113)"/>
  </g>
</svg>
