<?xml version="1.0" encoding="utf-8"?>
<!-- Generator: Adobe Illustrator 23.0.3, SVG Export Plug-In . SVG Version: 6.00 Build 0)  -->
<svg version="1.1" xmlns="http://www.w3.org/2000/svg" xmlns:xlink="http://www.w3.org/1999/xlink" x="0px" y="0px"
	 viewBox="0 0 369.64584 121.71554" style="enable-background:new 0 0 369.64584 121.71554;" xml:space="preserve">
<style type="text/css">
	.st0{fill:none;stroke:#8FF4DD;stroke-width:2;stroke-miterlimit:10;}
	.st1{fill:#8FF4DD;}
	.st2{fill:none;stroke:#FF6C11;stroke-width:2;stroke-linecap:round;stroke-miterlimit:10;}
	.st3{fill:#FF6C11;}
	.st4{fill:none;stroke:#F9C80E;stroke-width:2;stroke-linecap:round;stroke-miterlimit:10;}
	.st5{fill:#F9C80E;}
	.st6{fill:none;stroke:#FD1D53;stroke-width:2;stroke-linecap:round;stroke-miterlimit:10;}
	.st7{fill:#FD1D53;}
</style>
<g id="Layer_1">
	<g>
		<g>
			<line class="st0" x1="5.72442" y1="106.41573" x2="5.72442" y2="1.5183"/>
			<g>
				<polygon class="st1" points="11.45019,6.15719 10.42481,7.11217 5.72579,2.05563 1.02539,7.11217 0,6.15719 5.72579,0 				"/>
			</g>
		</g>
	</g>
</g>
<g id="Layer_2">
	<g>
		<g>
			<path class="st1" d="M14.73931,8.15531c-0.45557,0-1.40332,0-1.82275,0.03613V7.81986h0.31152
				c0.94775,0,0.98389-0.13232,0.98389-0.564V0.93558c0-0.43212-0.03613-0.564-0.98389-0.564h-0.31152V0
				c0.41943,0.03564,1.36719,0.03564,1.83501,0.03564c0.45557,0,1.40332,0,1.82275-0.03564v0.37158H16.2628
				c-0.94775,0-0.9834,0.13184-0.9834,0.564V7.2559c0,0.43164,0.03564,0.564,0.9834,0.564h0.31152v0.37158
				C16.15483,8.15531,15.20708,8.15531,14.73931,8.15531z"/>
			<path class="st1" d="M25.31986,8.15531l-1.355,0.03613V7.81986c0.80322,0,0.93555,0,0.93555-0.54V4.48537
				c0-0.68359-0.13232-1.33106-0.8877-1.33106c-0.96487,0.0684-1.6916,0.90603-1.62321,1.8709
				c0.00114,0.01604,0.0025,0.03205,0.00407,0.04805V7.2798c0,0.54,0.13184,0.54,0.93555,0.54v0.37158l-1.34326-0.03613
				L20.6304,8.19138V7.8198c0.80371,0,0.93555,0,0.93555-0.54V4.48537c0-0.68359-0.13184-1.33106-0.88721-1.33106
				c-0.96487,0.0684-1.6916,0.90603-1.62321,1.8709c0.00114,0.01604,0.0025,0.03205,0.00407,0.04805V7.2798
				c0,0.54,0.13184,0.54,0.93555,0.54v0.37158l-1.34326-0.03613l-1.35547,0.03613V7.8198c0.80371,0,0.93555,0,0.93555-0.54V4.06596
				c0-0.58789-0.09621-0.67188-0.93555-0.67188V3.0225l1.69092-0.13233v1.25928c0.26678-0.75234,0.97716-1.25621,1.77539-1.25928
				c0.76239-0.10504,1.46965,0.41644,1.59473,1.17579c0.29059-0.70601,0.97581-1.16925,1.73926-1.17579
				c0.46439-0.04267,0.92427,0.11942,1.25928,0.44385c0.37158,0.43164,0.37158,0.80371,0.37158,1.835v2.291
				c0.01221,0.35986,0.312,0.35986,0.93555,0.35986v0.37158L25.31986,8.15531z"/>
		</g>
		<g>
			<path class="st1" d="M149.14873,95.60714c-0.54718,0.0145-1.08206-0.16368-1.51125-0.50342
				c-0.49168-0.45604-0.49168-0.93555-0.49168-1.71533c0-0.80322,0-1.17529-0.45557-1.60693
				c-0.30161-0.28064-0.70374-0.42766-1.11523-0.40771h-1.37939v3.03418c0,0.43164,0.02393,0.564,0.94727,0.564h0.28809v0.37158
				c-0.43164-0.03613-1.2832-0.03613-1.75101-0.03613s-1.31934,0-1.75101,0.03613v-0.37158h0.2876
				c0.92334,0,0.94775-0.13232,0.94775-0.564v-6.32031c0-0.43213-0.02441-0.564-0.94775-0.564h-0.2876v-0.37158h3.76563
				c1.76318,0,3.13037,1.00732,3.13037,2.15869c0,0.93555-0.93555,1.66699-2.09863,1.95508
				c0.69519,0.17987,1.24831,0.70584,1.46289,1.39111l0.15625,0.95947c0.16748,1.11523,0.26367,1.72705,0.85156,1.72705
				c0.2998,0,0.71922-0.21582,0.7915-1.06738c0.01172-0.084,0.01172-0.19189,0.14355-0.19189
				c0.15625,0,0.15625,0.13184,0.15625,0.20361C150.28838,94.62371,150.08427,95.60714,149.14873,95.60714z M145.16728,87.52364
				c-0.23627-0.00623-0.47269,0.00175-0.70799,0.02394c-0.26367,0.03613-0.26367,0.18018-0.26367,0.45604v3.106h1.33105
				c1.77539,0,2.063-0.97119,2.063-1.79883C147.58965,87.57198,146.24638,87.52364,145.16728,87.52364z"/>
			<path class="st1" d="M153.31572,95.4753c-1.49316-0.03761-2.67383-1.27727-2.63867-2.77049
				c-0.0641-1.44319,1.05162-2.66615,2.49461-2.73439c1.17473-0.01712,2.14091,0.9213,2.15804,2.09601
				c0.00125,0.08502-0.00261,0.17003-0.01155,0.25459c0,0.25195-0.03564,0.25195-0.2998,0.25195h-3.34619
				c-0.04253,0.62096,0.08171,1.242,0.35986,1.79883c0.28163,0.48506,0.79474,0.78931,1.35545,0.80371
				c0.75504-0.004,1.41586-0.50819,1.61916-1.23535c0.02393-0.09572,0.04785-0.168,0.15576-0.168
				c0.07631-0.00923,0.14565,0.04515,0.15488,0.12146c0.0009,0.00748,0.00121,0.01501,0.00089,0.02254
				C155.09148,94.83636,154.26341,95.48112,153.31572,95.4753z M153.17172,90.23409c-0.40771,0-1.41553,0.29982-1.4873,2.08693
				h2.84229c-0.00005-0.46779-0.11967-2.08693-1.35503-2.08693H153.17172z"/>
		</g>
		<g>
			<g>
				<line class="st0" x1="4.72442" y1="106.41573" x2="153.20612" y2="106.41573"/>
				<g>
					<polygon class="st1" points="148.56723,112.1415 147.61224,111.11613 152.66879,106.41711 147.61224,101.7167 
						148.56723,100.69132 154.72441,106.41711 					"/>
				</g>
			</g>
		</g>
		<g>
			<g>
				<line class="st2" x1="136.45482" y1="11.16182" x2="136.45482" y2="106.41573"/>
				<g>
					<polygon class="st3" points="132.00189,19.43745 133.3185,19.91595 136.45482,11.2986 139.59114,19.91595 140.90639,19.43745 
						136.45482,7.20584 					"/>
				</g>
			</g>
		</g>
		<g>
			<g>
				<line class="st4" x1="5.72442" y1="106.41573" x2="134.93652" y2="106.41573"/>
				<g>
					<polygon class="st5" points="130.29764,112.14151 129.34265,111.11612 134.3992,106.4171 129.34265,101.71671 
						130.29764,100.69131 136.45482,106.4171 					"/>
				</g>
			</g>
		</g>
		<g>
			<path class="st1" d="M70.8665,43.16183c-0.94775,0-1.4873-0.38379-1.81104-0.875l-0.53955,0.71973
				c-0.12012,0.14355-0.13232,0.15527-0.18018,0.15527c0,0-0.12012,0-0.12012-0.10742c0-0.03613,0.02441-0.13184,0.03613-0.16797
				l0.62354-2.49512c0.04834-0.19141,0.07227-0.2041,0.2041-0.2041c0.06006,0,0.15576,0,0.15576,0.1084l-0.01172,0.0957
				c-0.07227,0.28809-0.09619,0.6123-0.09619,0.73145c0,1.22363,0.85156,1.69141,1.7749,1.69141
				c1.0918,0,2.02734-1.23535,2.02734-2.32715c0-0.53906-0.21631-1.00684-0.71973-1.1748l-0.73145-0.21582
				c-0.82764-0.23975-1.04346-0.2998-1.29541-0.57568c-0.43213-0.46777-0.45605-0.95947-0.45605-1.22314
				c0-1.43945,1.31934-2.83057,2.72266-2.83057c0.21582,0,1.10352,0,1.54736,0.85156l0.53955-0.71973
				c0.0957-0.13184,0.13184-0.13184,0.16797-0.13184c0,0,0.11963,0,0.11963,0.10791c0,0.03613-0.02393,0.13184-0.03564,0.16797
				l-0.62354,2.49463c-0.04834,0.19189-0.07227,0.20361-0.2041,0.20361c-0.08398,0-0.16797,0-0.16797-0.11963
				c0,0,0-0.03613,0.02393-0.10791c0.04785-0.34766,0.04785-0.55176,0.04785-0.70752c0-0.37207,0-1.71533-1.43896-1.71533
				c-1.00732,0-1.95508,1.04346-1.95508,2.0752c0,0.89941,0.56396,1.06738,0.94775,1.17529l1.16309,0.34766
				c0.59961,0.19189,1.07959,0.73145,1.07959,1.6792C73.66093,41.62667,72.31767,43.16183,70.8665,43.16183z"/>
			<path class="st1" d="M76.05009,47.54757c-0.32666,0-1.03711,0-1.32275,0.02441v-0.25293h0.26123
				c0.73486,0,0.75928-0.09766,0.75928-0.3916v-4.22852c-0.42432,0.21191-0.90625,0.21191-1.06934,0.21191v-0.25293
				c0.26123,0,0.97949,0,1.48584-0.52246c0.1875,0,0.1875,0.0166,0.1875,0.21191v4.58008c0,0.30176,0.02441,0.3916,0.75928,0.3916
				h0.26123v0.25293C77.08672,47.54757,76.37627,47.54757,76.05009,47.54757z"/>
		</g>
		<g>
			<path class="st1" d="M146.95244,61.63644c-0.25195,0.38379-0.64844,0.81543-1.25977,0.81543
				c-0.89941,0-0.89941-0.79102-0.89941-1.06738c0-0.31152,0.02441-0.43164,0.13184-1.1875
				c-0.34766,0.12012-0.70703,0.18066-1.0791,0.18066c-1.65527,0-2.68652-1.34375-2.68652-3.07031
				c0-2.77051,2.43457-5.625,4.84473-5.625c1.65527,0,2.6748,1.35547,2.6748,3.09375c0,1.73926-1.0791,4.22168-3.41797,5.27734
				c0,1.03125,0.17969,1.36719,0.71973,1.36719c0.56348,0,1.10352-0.54004,1.31934-1.22363
				c0.03613-0.13184,0.05957-0.17969,0.13184-0.17969s0.12012,0.03613,0.12012,0.12012
				C147.55205,60.19698,147.32353,61.04855,146.95244,61.63644z M145.94463,51.94601c-0.9834,0-1.95508,0.79102-2.54297,1.64258
				c-1.10254,1.60742-1.30664,3.55078-1.30664,4.11426c0,0.94727,0.31152,1.91895,1.16309,2.27832
				c-0.04785-0.10742-0.07227-0.16797-0.07227-0.37109c0-0.55176,0.49219-1.24805,1.13965-1.24805
				c0.7793,0,0.89941,0.70801,0.92383,1.2959c1.94238-1.22363,2.49414-4.18555,2.49414-5.28906
				C147.74345,52.92941,147.03642,51.94601,145.94463,51.94601z M144.99736,59.4421c0-0.44434-0.0957-0.83984-0.67188-0.83984
				c-0.50391,0-0.89941,0.56348-0.89941,1.00781c0,0.50293,0.37207,0.50293,0.47949,0.50293
				c0.47949,0,0.91211-0.20313,1.06738-0.28711C144.98564,59.70577,144.99736,59.56222,144.99736,59.4421z"/>
			<path class="st1" d="M150.50615,64.76339c-0.32617,0-1.03711,0-1.32227,0.02441v-0.25293h0.26074
				c0.73535,0,0.75977-0.09863,0.75977-0.39258v-4.22852c-0.4248,0.21289-0.90625,0.21289-1.06934,0.21289v-0.25391
				c0.26074,0,0.97949,0,1.48535-0.52246c0.1875,0,0.1875,0.0166,0.1875,0.21289v4.5791c0,0.30273,0.02441,0.39258,0.75977,0.39258
				h0.26074v0.25293C151.54326,64.76339,150.83232,64.76339,150.50615,64.76339z"/>
		</g>
		<g>
			<g>
				<line class="st6" x1="5.72442" y1="106.41573" x2="133.30353" y2="9.59732"/>
				<g>
					<polygon class="st7" points="129.40315,18.14726 128.22607,17.38774 133.19458,9.68 124.43411,12.39103 124.0202,11.05405 
						136.45482,7.20584 					"/>
				</g>
			</g>
		</g>
		<g>
			<path class="st1" d="M72.85722,114.43331h-1.83496l-0.7793,3.08301l-0.02441,0.17969c0,0.10742,0,0.2041,0.67188,0.2041
				c0.17969,0,0.27588,0,0.27588,0.11914c0,0.22852-0.13184,0.22852-0.22803,0.22852c-0.41992,0-0.88721-0.02441-1.31934-0.02441
				c-0.43164,0-0.87549,0.02441-1.29492,0.02441c-0.04834,0-0.16797,0-0.16797-0.12012c0-0.22754,0.10791-0.22754,0.32373-0.22754
				c0.73145,0,0.80371-0.09668,0.91162-0.5166l1.64307-6.60742c0.02393-0.07227,0.02393-0.1084,0.02393-0.18066
				c0-0.19141-0.33594-0.19141-0.63574-0.19141c-0.22803,0-0.31201,0-0.31201-0.12012c0-0.22754,0.10791-0.22754,0.32422-0.22754
				h3.42969c1.28369,0,2.0752,0.75488,2.0752,1.75098C75.93974,113.22237,74.35625,114.43331,72.85722,114.43331z
				 M73.51689,110.40401h-1.04346c-0.39551,0-0.47949,0-0.5874,0.45508l-0.81592,3.28711h1.51123
				c1.09131,0,1.61914-0.57617,1.66699-0.6123c0.61182-0.67188,0.71973-1.79883,0.71973-2.01465
				C74.96806,110.79952,74.50029,110.40401,73.51689,110.40401z"/>
		</g>
		<g>
			<path class="st1" d="M31.40899,99.03097c-1.09131,0-1.43896-1.33105-1.43896-2.45898c0-2.74609,1.84668-6.12793,3.51367-6.12793
				c1.22363,0,1.43945,1.66699,1.43945,2.45801C34.92315,95.58858,33.0999,99.03097,31.40899,99.03097z M31.14531,94.92941
				c-0.31201,1.1748-0.38379,1.87109-0.38379,2.375c0,1.11523,0.25195,1.46289,0.64746,1.46289
				c0.51563,0,0.97168-0.58789,1.39111-1.40332c0.45605-0.86328,0.70801-1.88281,0.83984-2.43457H31.14531z M33.47197,90.70773
				c-0.53955,0-0.9834,0.67188-1.30713,1.25879c-0.47998,0.85156-0.71973,1.81152-0.92383,2.5791h2.50684
				c0.2876-1.1875,0.38379-1.79883,0.38379-2.38672C34.13164,91.4753,34.05938,90.70773,33.47197,90.70773z"/>
			<path class="st1" d="M37.19219,103.53683c-0.32666,0-1.03711,0-1.32275,0.02441v-0.25293h0.26123
				c0.73486,0,0.75928-0.09766,0.75928-0.3916v-4.22949c-0.42432,0.21289-0.90625,0.21289-1.06934,0.21289v-0.25293
				c0.26123,0,0.97949,0,1.48584-0.52246c0.1875,0,0.1875,0.01563,0.1875,0.21191v4.58008c0,0.30176,0.02441,0.3916,0.75928,0.3916
				h0.26123v0.25293C38.22881,103.53683,37.51836,103.53683,37.19219,103.53683z"/>
		</g>
	</g>
	<g>
		<g>
			<path class="st1" d="M229.32358,8.15513c-0.45557,0-1.40332,0-1.82275,0.03613V7.81968h0.31152
				c0.94775,0,0.98389-0.13232,0.98389-0.564V0.9354c0-0.43212-0.03613-0.564-0.98389-0.564h-0.31152v-0.37158
				c0.41943,0.03564,1.36719,0.03564,1.83501,0.03564c0.45558,0,1.40332,0,1.82275-0.03564V0.3714h-0.31152
				c-0.94774,0-0.9834,0.13184-0.9834,0.564v6.32032c0,0.43164,0.03564,0.564,0.9834,0.564h0.31152V8.1913
				C230.73909,8.15513,229.79135,8.15513,229.32358,8.15513z"/>
			<path class="st1" d="M239.90413,8.15513l-1.355,0.03613V7.81968c0.80322,0,0.93555,0,0.93555-0.54V4.48519
				c0-0.68359-0.13231-1.33106-0.8877-1.33106c-0.96487,0.0684-1.6916,0.90603-1.62321,1.8709
				c0.00114,0.01604,0.0025,0.03205,0.00407,0.04805v2.20654c0,0.54,0.13184,0.54,0.93555,0.54V8.1912l-1.34326-0.03613
				l-1.35547,0.03613V7.81962c0.80371,0,0.93556,0,0.93556-0.54V4.48519c0-0.68359-0.13185-1.33106-0.88722-1.33106
				c-0.96486,0.0684-1.69159,0.90603-1.6232,1.8709c0.00113,0.01604,0.00249,0.03205,0.00406,0.04805v2.20654
				c0,0.54,0.13185,0.54,0.93556,0.54V8.1912l-1.34326-0.03613l-1.35547,0.03613V7.81962c0.80371,0,0.93555,0,0.93555-0.54V4.06578
				c0-0.58789-0.09621-0.67188-0.93555-0.67188V3.02232l1.69092-0.13233v1.25928c0.26677-0.75234,0.97716-1.25621,1.77539-1.25928
				c0.76239-0.10504,1.46965,0.41644,1.59473,1.17579c0.29059-0.70601,0.97581-1.16925,1.73926-1.17579
				c0.46439-0.04267,0.92427,0.11942,1.25928,0.44385c0.37158,0.43164,0.37158,0.80371,0.37158,1.835v2.291
				c0.01221,0.35986,0.312,0.35986,0.93555,0.35986v0.37158L239.90413,8.15513z"/>
		</g>
		<g>
			<path class="st1" d="M363.733,96.60696c-0.54718,0.0145-1.08206-0.16368-1.51126-0.50342
				c-0.49167-0.45604-0.49167-0.93555-0.49167-1.71533c0-0.80322,0-1.17529-0.45557-1.60693
				c-0.30161-0.28064-0.70374-0.42766-1.11523-0.40771h-1.37939v3.03418c0,0.43164,0.02393,0.564,0.94727,0.564h0.28809v0.37158
				c-0.43164-0.03613-1.2832-0.03613-1.75101-0.03613s-1.31934,0-1.75101,0.03613v-0.37158h0.2876
				c0.92334,0,0.94775-0.13232,0.94775-0.564v-6.32031c0-0.43213-0.02441-0.564-0.94775-0.564h-0.2876v-0.37158h3.76563
				c1.76318,0,3.13037,1.00732,3.13037,2.15869c0,0.93555-0.93555,1.66699-2.09863,1.95508
				c0.69519,0.17987,1.24829,0.70584,1.46289,1.39111l0.15625,0.95947c0.16748,1.11523,0.26367,1.72705,0.85156,1.72705
				c0.2998,0,0.71921-0.21582,0.7915-1.06738c0.01172-0.084,0.01172-0.19189,0.14355-0.19189
				c0.15625,0,0.15625,0.13184,0.15625,0.20361C364.87265,95.62353,364.66855,96.60696,363.733,96.60696z M359.75156,88.52346
				c-0.23627-0.00623-0.47269,0.00175-0.70801,0.02394c-0.26367,0.03613-0.26367,0.18018-0.26367,0.45604v3.106h1.33105
				c1.77539,0,2.06302-0.97119,2.06302-1.79883C362.17392,88.5718,360.83066,88.52346,359.75156,88.52346z"/>
			<path class="st1" d="M367.89999,96.47512c-1.49316-0.03761-2.67383-1.27727-2.63867-2.77049
				c-0.06412-1.44319,1.05161-2.66615,2.4946-2.73439c1.17474-0.01712,2.14093,0.9213,2.15805,2.09601
				c0.00125,0.08502-0.00262,0.17003-0.01157,0.25459c0,0.25195-0.03564,0.25195-0.2998,0.25195h-3.34619
				c-0.04251,0.62096,0.08173,1.242,0.35986,1.79883c0.28165,0.48506,0.79474,0.78931,1.35547,0.80371
				c0.75504-0.004,1.41586-0.50819,1.61914-1.23535c0.02393-0.09572,0.04785-0.168,0.15576-0.168
				c0.07632-0.00923,0.14566,0.04515,0.15488,0.12146c0.00092,0.00748,0.00122,0.01501,0.00089,0.02254
				C369.67575,95.83617,368.84769,96.48093,367.89999,96.47512z M367.75598,91.23391c-0.40771,0-1.41553,0.29982-1.4873,2.08693
				h2.84229c-0.00003-0.46779-0.11966-2.08693-1.35501-2.08693H367.75598z"/>
		</g>
		<g>
			<g>
				<line class="st0" x1="219.30869" y1="106.41555" x2="367.79037" y2="106.41555"/>
				<g>
					<polygon class="st1" points="363.15149,112.14132 362.1965,111.11594 367.25305,106.41692 362.1965,101.71651 
						363.15149,100.69114 369.30869,106.41692 					"/>
				</g>
			</g>
		</g>
		<g>
			<g>
				<line class="st0" x1="220.30869" y1="106.41555" x2="220.30869" y2="1.51812"/>
				<g>
					<polygon class="st1" points="226.03445,6.15701 225.00908,7.11198 220.31006,2.05544 215.60965,7.11198 214.58426,6.15701 
						220.31006,-0.00018 					"/>
				</g>
			</g>
		</g>
		<g>
			<g>
				<line class="st2" x1="351.03909" y1="106.41555" x2="351.03909" y2="48.85486"/>
				<g>
					<polygon class="st3" points="355.49203,57.13048 354.17542,57.60899 351.03909,48.99164 347.90277,57.60899 
						346.58752,57.13048 351.03909,44.89888 					"/>
				</g>
			</g>
		</g>
		<g>
			<g>
				<line class="st4" x1="220.30869" y1="106.41555" x2="349.52081" y2="106.41555"/>
				<g>
					<polygon class="st5" points="344.88193,112.14133 343.92694,111.11594 348.98349,106.41692 343.92694,101.71652 
						344.88193,100.69113 351.03909,106.41692 					"/>
				</g>
			</g>
		</g>
		<g>
			<path class="st1" d="M285.4505,64.16183c-0.94727,0-1.4873-0.38379-1.81055-0.875l-0.54004,0.71973
				c-0.12012,0.14355-0.13184,0.15527-0.17969,0.15527c0,0-0.12012,0-0.12012-0.10742c0-0.03613,0.02441-0.13184,0.03613-0.16797
				l0.62305-2.49512c0.04883-0.19141,0.07227-0.2041,0.2041-0.2041c0.06055,0,0.15625,0,0.15625,0.1084l-0.01172,0.0957
				c-0.07227,0.28809-0.09668,0.6123-0.09668,0.73145c0,1.22363,0.85156,1.69141,1.77539,1.69141
				c1.0918,0,2.02734-1.23535,2.02734-2.32715c0-0.53906-0.2168-1.00684-0.71973-1.1748l-0.73145-0.21582
				c-0.82813-0.24023-1.04395-0.2998-1.2959-0.57617c-0.43164-0.46777-0.45605-0.95898-0.45605-1.22266
				c0-1.43945,1.31934-2.83105,2.72266-2.83105c0.21582,0,1.10352,0,1.54785,0.85156l0.53906-0.71973
				c0.0957-0.13184,0.13184-0.13184,0.16797-0.13184c0,0,0.12012,0,0.12012,0.1084c0,0.03613-0.02441,0.13184-0.03613,0.16797
				l-0.62305,2.49414c-0.04883,0.19238-0.07227,0.2041-0.2041,0.2041c-0.08398,0-0.16797,0-0.16797-0.12012
				c0,0,0-0.03613,0.02344-0.10742c0.04785-0.34766,0.04785-0.55176,0.04785-0.70801c0-0.37207,0-1.71484-1.43848-1.71484
				c-1.00781,0-1.95508,1.04297-1.95508,2.0752c0,0.89941,0.56348,1.06738,0.94727,1.1748l1.16309,0.34766
				c0.59961,0.19238,1.08008,0.73145,1.08008,1.67969C288.24542,62.62667,286.90167,64.16183,285.4505,64.16183z"/>
			<path class="st1" d="M291.97296,68.57198h-3.02832c0-0.19531,0-0.21191,0.08984-0.30176l1.56738-1.74707
				c0.44824-0.50586,0.85645-1.15137,0.85645-1.80371c0-0.66992-0.35059-1.33105-1.09375-1.33105
				c-0.47363,0-0.91406,0.30176-1.10156,0.83301c0.02441-0.00879,0.04102-0.00879,0.10547-0.00879
				c0.28613,0,0.43262,0.21289,0.43262,0.4248c0,0.33496-0.28516,0.43262-0.42383,0.43262c-0.02441,0-0.43262,0-0.43262-0.45703
				c0-0.72656,0.60352-1.47754,1.52637-1.47754c0.99609,0,1.73047,0.65332,1.73047,1.58398
				c0,0.81641-0.48926,1.25684-1.76367,2.38379l-0.86523,0.84082h1.46973c0.17969,0,0.71875,0,0.77539-0.06543
				c0.08203-0.12305,0.13867-0.48145,0.17969-0.72656h0.2041L291.97296,68.57198z"/>
		</g>
		<g>
			<path class="st1" d="M361.53644,79.05538c-0.25195,0.38379-0.64746,0.81543-1.25879,0.81543
				c-0.90039,0-0.90039-0.79102-0.90039-1.06738c0-0.31152,0.02441-0.43164,0.13281-1.1875
				c-0.34863,0.12012-0.70801,0.18066-1.08008,0.18066c-1.65527,0-2.68652-1.34375-2.68652-3.07031
				c0-2.77051,2.43457-5.625,4.84473-5.625c1.65625,0,2.67578,1.35547,2.67578,3.09375c0,1.73926-1.08008,4.22168-3.41895,5.27734
				c0,1.03125,0.18066,1.36719,0.71973,1.36719c0.56445,0,1.10352-0.54004,1.31934-1.22363
				c0.03613-0.13184,0.05957-0.17969,0.13184-0.17969s0.12012,0.03613,0.12012,0.12012
				C362.13605,77.61593,361.90851,78.46749,361.53644,79.05538z M360.5296,69.36495c-0.98438,0-1.95508,0.79102-2.54297,1.64258
				c-1.10352,1.60742-1.30762,3.55078-1.30762,4.11426c0,0.94727,0.31152,1.91895,1.16309,2.27832
				c-0.04785-0.10742-0.07227-0.16797-0.07227-0.37109c0-0.55176,0.49219-1.24805,1.14063-1.24805
				c0.7793,0,0.89844,0.70801,0.92285,1.2959c1.94238-1.22363,2.49512-4.18555,2.49512-5.28906
				C362.32843,70.34835,361.62042,69.36495,360.5296,69.36495z M359.58136,76.86105c0-0.44434-0.0957-0.83984-0.6709-0.83984
				c-0.50391,0-0.90039,0.56348-0.90039,1.00781c0,0.50293,0.37207,0.50293,0.48047,0.50293
				c0.47852,0,0.91113-0.20313,1.06641-0.28711C359.56964,77.12472,359.58136,76.98116,359.58136,76.86105z"/>
			<path class="st1" d="M366.42999,82.20675h-3.0293c0-0.19629,0-0.21289,0.08984-0.30273l1.56738-1.74609
				c0.44824-0.50684,0.85645-1.15137,0.85645-1.80469c0-0.66895-0.35059-1.33008-1.09375-1.33008
				c-0.47266,0-0.91406,0.30176-1.10156,0.83203c0.02441-0.00781,0.04102-0.00781,0.10547-0.00781
				c0.28613,0,0.43359,0.21191,0.43359,0.4248c0,0.33398-0.28613,0.43262-0.4248,0.43262c-0.02441,0-0.43262,0-0.43262-0.45801
				c0-0.72656,0.60352-1.47754,1.52637-1.47754c0.99609,0,1.73145,0.65332,1.73145,1.58398
				c0,0.81641-0.49023,1.25684-1.76367,2.38379l-0.86523,0.84082h1.46875c0.17969,0,0.71875,0,0.77539-0.06543
				c0.08203-0.12207,0.13867-0.48145,0.17969-0.72656h0.20508L366.42999,82.20675z"/>
		</g>
		<g>
			<path class="st1" d="M287.44171,114.43331h-1.83496l-0.7793,3.08203l-0.02441,0.17969c0,0.1084,0,0.2041,0.67188,0.2041
				c0.17969,0,0.27539,0,0.27539,0.12012c0,0.22754-0.13184,0.22754-0.22754,0.22754c-0.41992,0-0.8877-0.02344-1.31934-0.02344
				s-0.87598,0.02344-1.29492,0.02344c-0.04883,0-0.16797,0-0.16797-0.12012c0-0.22754,0.10742-0.22754,0.32324-0.22754
				c0.73145,0,0.80371-0.0957,0.91211-0.51563l1.64258-6.6084c0.02441-0.07227,0.02441-0.10742,0.02441-0.17969
				c0-0.19238-0.33594-0.19238-0.63574-0.19238c-0.22852,0-0.3125,0-0.3125-0.11914c0-0.22852,0.1084-0.22852,0.32422-0.22852
				h3.42969c1.28418,0,2.0752,0.75586,2.0752,1.75098C290.52374,113.2214,288.94073,114.43331,287.44171,114.43331z
				 M288.10089,110.40304h-1.04297c-0.39551,0-0.47949,0-0.58789,0.45605l-0.81543,3.28613h1.51074
				c1.0918,0,1.61914-0.5752,1.66699-0.61133c0.6123-0.67188,0.71973-1.79883,0.71973-2.01563
				C289.55206,110.79952,289.08429,110.40304,288.10089,110.40304z"/>
		</g>
		<g>
			<path class="st1" d="M261.99347,99.03097c-1.0918,0-1.43945-1.33105-1.43945-2.45898c0-2.74609,1.84668-6.12793,3.51367-6.12793
				c1.22363,0,1.43945,1.66699,1.43945,2.45801C265.50714,95.58858,263.6839,99.03097,261.99347,99.03097z M261.7298,94.92941
				c-0.3125,1.1748-0.38379,1.87109-0.38379,2.375c0,1.11523,0.25195,1.46289,0.64746,1.46289
				c0.51563,0,0.97168-0.58789,1.39063-1.40332c0.45605-0.86328,0.70801-1.88281,0.83984-2.43457H261.7298z M264.05597,90.70773
				c-0.53906,0-0.9834,0.67188-1.30664,1.25879c-0.48047,0.85156-0.71973,1.81152-0.92383,2.5791h2.50684
				c0.28711-1.1875,0.38379-1.79883,0.38379-2.38672C264.71613,91.4753,264.64386,90.70773,264.05597,90.70773z"/>
			<path class="st1" d="M269.11554,103.56124h-3.0293c0-0.19629,0-0.21191,0.08984-0.30176l1.56738-1.74707
				c0.44922-0.50586,0.85742-1.15137,0.85742-1.80469c0-0.66895-0.35156-1.33008-1.09375-1.33008
				c-0.47363,0-0.91504,0.30176-1.10254,0.83203c0.02441-0.00781,0.04102-0.00781,0.10645-0.00781
				c0.28516,0,0.43262,0.21191,0.43262,0.4248c0,0.33496-0.28613,0.43262-0.4248,0.43262c-0.02441,0-0.43262,0-0.43262-0.45703
				c0-0.72656,0.60449-1.47754,1.52637-1.47754c0.99609,0,1.73145,0.65234,1.73145,1.58301
				c0,0.81641-0.49023,1.25781-1.76367,2.38379l-0.86523,0.84082h1.46973c0.17871,0,0.71777,0,0.77539-0.06543
				c0.08105-0.12207,0.13867-0.48145,0.17969-0.72656h0.2041L269.11554,103.56124z"/>
		</g>
	</g>
	<g>
		<g>
			<line class="st0" x1="147.61224" y1="7.20584" x2="147.61224" y2="43.38058"/>
			<g>
				<polygon class="st1" points="141.88647,38.74169 142.91185,37.78671 147.61087,42.84326 152.31128,37.78671 153.33665,38.74169 
					147.61087,44.89888 				"/>
			</g>
		</g>
	</g>
	<g>
		<path class="st1" d="M159.22783,27.56368c-0.25195,0.38379-0.64746,0.81543-1.25879,0.81543
			c-0.89941,0-0.89941-0.7915-0.89941-1.06738c0-0.31201,0.02344-0.43164,0.13184-1.1875
			c-0.34863,0.12012-0.70801,0.18018-1.08008,0.18018c-1.65527,0-2.68652-1.34326-2.68652-3.07031
			c0-2.77051,2.43457-5.625,4.8457-5.625c1.65527,0,2.6748,1.35547,2.6748,3.09424c0,1.73926-1.08008,4.22168-3.41895,5.27734
			c0,1.03125,0.18066,1.36719,0.71973,1.36719c0.56445,0,1.10352-0.54004,1.31934-1.22363
			c0.03613-0.13184,0.06055-0.17969,0.13184-0.17969c0.07227,0,0.12012,0.03613,0.12012,0.12012
			C159.82744,26.12423,159.5999,26.97579,159.22783,27.56368z M158.22099,17.87276c-0.98438,0-1.95508,0.7915-2.54297,1.64307
			c-1.10352,1.60742-1.30762,3.55029-1.30762,4.11377c0,0.94775,0.3125,1.91895,1.16406,2.27881
			c-0.04883-0.10791-0.07227-0.16797-0.07227-0.37158c0-0.55176,0.49121-1.24756,1.13965-1.24756
			c0.7793,0,0.89941,0.70801,0.92285,1.29541c1.94336-1.22314,2.49512-4.18555,2.49512-5.28906
			C160.01982,18.85665,159.31181,17.87276,158.22099,17.87276z M157.27275,25.36886c0-0.44385-0.0957-0.83936-0.6709-0.83936
			c-0.50391,0-0.90039,0.56348-0.90039,1.00732c0,0.50342,0.37207,0.50342,0.48047,0.50342
			c0.47949,0,0.91113-0.20361,1.06738-0.2876C157.26103,25.63253,157.27275,25.48898,157.27275,25.36886z"/>
		<path class="st1" d="M165.9456,27.27755c-0.04102,0-0.10645,0-0.10645-0.07324v-0.07373
			c0.02441-0.12207,0.04102-0.31006,0.04102-0.43262c0-0.35889-0.09766-1.49365-1.15137-1.49365
			c-0.75098,0-1.49414,0.53076-1.91016,1.09375c-0.79199,1.09375-0.88184,2.48975-0.88184,2.71875
			c0,1.10986,0.66992,1.63232,1.41211,1.63232c0.75977,0,1.71484-0.63672,2.08203-1.88574
			c0.02441-0.07324,0.05762-0.08154,0.12305-0.08154c0.04883,0,0.11426,0,0.11426,0.07324c0,0-0.13086,0.73486-0.84082,1.43701
			c-0.06543,0.05713-0.71094,0.69385-1.60059,0.69385c-1.03711,0-1.93457-0.76709-1.93457-2.15527
			c0-1.93457,1.73047-3.76318,3.37988-3.76318c0.53027,0,0.94629,0.24512,1.20801,0.72656l0.53027-0.65332
			c0.05762-0.07324,0.10645-0.07324,0.10645-0.07324s0.07324,0,0.07324,0.07324c0,0-0.00781,0.08203-0.0166,0.10645l-0.49707,1.9917
			C166.04326,27.26974,166.02666,27.27755,165.9456,27.27755z"/>
	</g>
	<g>
		<g>
			<line class="st0" x1="165.93797" y1="56.81079" x2="204.41966" y2="56.81079"/>
			<g>
				<polygon class="st1" points="199.78078,62.53656 198.82579,61.51117 203.88234,56.81215 198.82579,52.11176 199.78078,51.08636 
					205.93797,56.81215 				"/>
			</g>
		</g>
	</g>
</g>
<g id="Layer_3">
	<g>
		<g>
			<line class="st6" x1="220.30869" y1="106.41555" x2="347.45963" y2="46.58324"/>
			<g>
				<polygon class="st7" points="341.86755,54.13595 340.87402,53.14838 347.33585,46.64148 338.20328,47.47272 338.07623,46.07891 
					351.03909,44.89888 				"/>
			</g>
		</g>
	</g>
	<g>
	</g>
	<g>
	</g>
</g>
</svg>
