<?xml version="1.0" encoding="utf-8"?>
<!-- Generator: Adobe Illustrator 23.0.3, SVG Export Plug-In . SVG Version: 6.00 Build 0)  -->
<svg version="1.1" id="Layer_1" xmlns="http://www.w3.org/2000/svg" xmlns:xlink="http://www.w3.org/1999/xlink" x="0px" y="0px"
	 viewBox="0 0 202.24512 101.75488" style="enable-background:new 0 0 202.24512 101.75488;" xml:space="preserve">
<style type="text/css">
	.st0{fill:none;stroke:#8FF4DD;stroke-width:2;stroke-linecap:round;}
	.st1{fill:none;stroke:#8FF4DD;stroke-width:2;stroke-linecap:square;}
	.st2{fill:none;stroke:#8FF4DD;stroke-width:2;}
	.st3{fill:#8FF4DD;}
	.st4{fill:none;stroke:#8FF4DD;stroke-width:2;stroke-linecap:round;stroke-linejoin:round;}
</style>
<g>
	<path id="path2791" class="st0" d="M1,43.77734h21.875"/>
	<path id="path2793" class="st0" d="M29.125,43.77734H51"/>
	<path id="path2795" class="st1" d="M22.875,31.27734v25"/>
	<path id="path2797" class="st1" d="M29.125,31.27734v25"/>
</g>
<g>
	<g>
		<line class="st2" x1="63.5" y1="43.77734" x2="86.98169" y2="43.77734"/>
		<g>
			<polygon class="st3" points="82.3428,49.50312 81.38782,48.47773 86.44437,43.77871 81.38782,39.07832 82.3428,38.05293 
				88.5,43.77871 			"/>
		</g>
	</g>
</g>
<g>
	<path class="st3" d="M30.11035,17.8335c-0.04785,0.20361-0.08398,0.21582-0.21582,0.21582c-0.05957,0-0.17969,0-0.17969-0.12012
		c0-0.03613,0.06055-0.41992,0.06055-0.73145c0-1.04346-0.43262-2.19482-1.70313-2.19482
		c-0.92383,0-2.02734,0.55176-2.84277,1.65527c-0.95996,1.31885-1.25977,3.20215-1.25977,3.9458
		c0,1.70264,1.05566,2.37451,2.06348,2.37451c0.99512,0,2.49414-0.76758,3.10645-2.79443
		c0.03516-0.09619,0.11914-0.09619,0.19141-0.09619c0.06055,0,0.17969,0,0.17969,0.12012c0,0.57568-1.30664,3.14209-3.64551,3.14209
		c-1.65527,0-2.93848-1.23535-2.93848-3.20215c0-2.81836,2.57813-5.51709,5.04883-5.51709c0.59961,0,1.2959,0.19189,1.81152,1.01953
		l0.75586-0.88721c0.10742-0.13232,0.19141-0.13232,0.19141-0.13232c0.12012,0,0.13184,0.12012,0.13184,0.12012
		c0,0.04785-0.01172,0.12012-0.02344,0.16797L30.11035,17.8335z"/>
</g>
<g>
	<path id="path1132_6_" class="st4" d="M116,18.77734h14"/>
	<circle class="st4" cx="133" cy="18.77734" r="3"/>
	<path id="path1132_5_" class="st4" d="M186,18.77734h-14"/>
	<circle class="st4" cx="169" cy="18.77734" r="3"/>
</g>
<g>
	<path id="path1132_8_" class="st4" d="M116,68.77734h14"/>
	<circle class="st4" cx="133" cy="68.77734" r="3"/>
	<path id="path1132_7_" class="st4" d="M186,68.77734h-14"/>
	<circle class="st4" cx="169" cy="68.77734" r="3"/>
	<line class="st4" x1="136" y1="68.77734" x2="166" y2="68.77734"/>
</g>
<g>
	<path class="st3" d="M112.56934,84.13867c-1.06836,0-1.83594-0.43164-2.20703-0.83936
		c-0.39648,0.63574-0.43164,0.68359-0.43164,0.68359c-0.08398,0.13184-0.0957,0.15576-0.17969,0.15576
		c-0.13281,0-0.13281-0.08398-0.13281-0.2876v-2.39893c0-0.21582,0-0.2998,0.15625-0.2998c0.03613,0,0.13184,0,0.14453,0.12012
		c0.01172,0.43164,0.04688,1.19922,0.74219,1.84717c0.63672,0.5874,1.54785,0.64746,1.89551,0.64746
		c1.00781,0,1.60742-0.86377,1.60742-1.71533c0-0.39551-0.12012-0.7915-0.37207-1.10303
		c-0.33594-0.44385-0.69531-0.52783-1.01953-0.61182c-0.83984-0.2041-1.45117-0.34766-1.58301-0.39551
		c-0.93555-0.32422-1.57129-1.19971-1.57129-2.19482c0-1.27148,1.00781-2.32715,2.33887-2.32715
		c1.06738,0,1.55957,0.4917,1.91895,0.83984l0.41992-0.68359c0.08398-0.14404,0.0957-0.15625,0.17969-0.15625
		c0.13184,0,0.13184,0.08398,0.13184,0.28809v2.41064c0,0.22803,0,0.28809-0.15527,0.28809
		c-0.13281,0-0.13281-0.07227-0.14453-0.14404c-0.07227-0.54004-0.33594-2.50684-2.33789-2.50684
		c-0.93555,0-1.58398,0.73193-1.58398,1.57129c0,0.6958,0.46777,1.34326,1.21094,1.52295l1.53516,0.37207
		c1.00781,0.23975,1.7998,1.22314,1.7998,2.42236C114.93164,82.96338,113.97168,84.13867,112.56934,84.13867z"/>
	<path class="st3" d="M120.69238,83.83887l-1.35547,0.03613v-0.37158c0.80273,0,0.93555,0,0.93555-0.54004v-2.79443
		c0-0.68359-0.13281-1.33105-0.8877-1.33105c-0.76758,0-1.61914,0.67139-1.61914,1.91895v2.20654
		c0,0.54004,0.13184,0.54004,0.93555,0.54004V83.875l-1.34277-0.03613l-1.35547,0.03613v-0.37158
		c0.80273,0,0.93555,0,0.93555-0.54004v-6.23633c0-0.58789-0.09668-0.67188-0.93555-0.67188v-0.37158l1.72656-0.13184v4.17334
		h0.01172c0.19238-0.43164,0.71973-1.15137,1.72754-1.15137c0.69531,0,1.09082,0.24023,1.25879,0.44385
		c0.37207,0.43164,0.37207,0.80371,0.37207,1.83496v2.29102c0.0127,0.35986,0.31152,0.35986,0.93555,0.35986V83.875
		L120.69238,83.83887z"/>
	<path class="st3" d="M125.27734,84.00684c-1.40332,0-2.65039-1.15137-2.65039-2.69824c0-1.49951,1.16309-2.80664,2.66309-2.80664
		c1.45117,0,2.65039,1.27148,2.65039,2.80664C127.94043,82.83154,126.72852,84.00684,125.27734,84.00684z M126.63281,79.54541
		c-0.31152-0.51563-0.82715-0.77979-1.35547-0.77979c-0.47949,0-1.04395,0.25195-1.36719,0.80371
		c-0.28809,0.52783-0.28809,1.17529-0.28809,1.64307c0,0.43164,0,1.16357,0.2998,1.69092
		c0.32422,0.55176,0.85156,0.80371,1.36816,0.80371c0.59961,0,1.12695-0.34766,1.39063-0.8877
		c0.26367-0.52734,0.26367-1.17529,0.26367-1.60693C126.94434,80.75684,126.94434,80.06104,126.63281,79.54541z"/>
	<path class="st3" d="M132.1416,79.83301c-0.26465,0-0.5166-0.17969-0.5166-0.51563c0-0.31152,0.24023-0.45557,0.27637-0.46777
		c-0.02441-0.01172-0.04883-0.01172-0.13281-0.01172c-0.91113,0-1.41406,1.06738-1.41406,2.25488v1.84668
		c0,0.43164,0.02344,0.56396,0.91113,0.56396h0.25098V83.875c-0.47852-0.03613-1.04297-0.03613-1.52246-0.03613l-1.36719,0.03613
		v-0.37158c0.80371,0,0.93555,0,0.93555-0.54004v-3.21436c0-0.5874-0.09668-0.67139-0.93555-0.67139v-0.37158l1.66699-0.13232
		v1.31934c0.16797-0.51563,0.59961-1.31934,1.47461-1.31934c0.51563,0,0.88867,0.34814,0.88867,0.73193
		S132.35645,79.83301,132.1416,79.83301z"/>
	<path class="st3" d="M135.78906,84.00684c-0.43164,0-1.54688-0.14404-1.54688-1.61914v-3.31006h-1.01953v-0.26367
		c1.1748-0.04834,1.53516-1.33154,1.54688-2.31494h0.2998v2.20703h1.71484v0.37158h-1.71484v3.33398
		c0,0.2041,0,1.29541,0.80371,1.29541c0.44434,0,0.80371-0.45557,0.80371-1.34326V81.7041h0.2998v0.68359
		C136.97656,83.15527,136.64063,84.00684,135.78906,84.00684z"/>
	<path class="st3" d="M144.64551,84.00684c-1.3916,0-2.5791-1.1875-2.5791-2.72266c0-1.48682,1.10352-2.78223,2.60254-2.78223
		c0.92383,0,1.83496,0.46777,1.83496,1.2832c0,0.35986-0.23926,0.56396-0.55176,0.56396c-0.33594,0-0.55176-0.24023-0.55176-0.55176
		c0-0.15625,0.07227-0.51563,0.56348-0.55176c-0.41992-0.43164-1.1748-0.44385-1.2832-0.44385
		c-0.63477,0-1.61914,0.50391-1.61914,2.4585c0,1.93115,1.05566,2.44678,1.69141,2.44678c0.44336,0,1.22363-0.14404,1.57129-1.25928
		c0.02441-0.07178,0.04785-0.12012,0.15527-0.12012c0.03711,0,0.15625,0,0.15625,0.12012S146.25195,84.00684,144.64551,84.00684z"/>
	<path class="st3" d="M148.70117,83.83887l-1.31934,0.03613v-0.37158c0.80371,0,0.93555,0,0.93555-0.54004V79.7373
		c0-0.58789-0.10742-0.65967-0.88672-0.65967v-0.37158l1.67871-0.13232v4.40186c0,0.46777,0.04785,0.52783,0.83887,0.52783V83.875
		C149.54102,83.86279,149.12109,83.83887,148.70117,83.83887z M148.6416,77.2666c-0.35938,0-0.63574-0.31201-0.63574-0.63574
		c0-0.2998,0.23926-0.63574,0.64746-0.63574c0.35938,0,0.63574,0.31201,0.63574,0.63574
		C149.28906,76.93066,149.0498,77.2666,148.6416,77.2666z"/>
	<path class="st3" d="M154.17285,79.83301c-0.26465,0-0.5166-0.17969-0.5166-0.51563c0-0.31152,0.24023-0.45557,0.27637-0.46777
		c-0.02441-0.01172-0.04883-0.01172-0.13281-0.01172c-0.91113,0-1.41406,1.06738-1.41406,2.25488v1.84668
		c0,0.43164,0.02344,0.56396,0.91113,0.56396h0.25098V83.875c-0.47852-0.03613-1.04297-0.03613-1.52246-0.03613L150.6582,83.875
		v-0.37158c0.80371,0,0.93555,0,0.93555-0.54004v-3.21436c0-0.5874-0.09668-0.67139-0.93555-0.67139v-0.37158l1.66699-0.13232
		v1.31934c0.16797-0.51563,0.59961-1.31934,1.47461-1.31934c0.51563,0,0.88867,0.34814,0.88867,0.73193
		S154.3877,79.83301,154.17285,79.83301z"/>
	<path class="st3" d="M158.0127,84.00684c-1.39063,0-2.57813-1.1875-2.57813-2.72266c0-1.48682,1.10352-2.78223,2.60156-2.78223
		c0.92383,0,1.83594,0.46777,1.83594,1.2832c0,0.35986-0.24023,0.56396-0.55273,0.56396c-0.33496,0-0.55078-0.24023-0.55078-0.55176
		c0-0.15625,0.07227-0.51563,0.56348-0.55176c-0.41992-0.43164-1.1748-0.44385-1.2832-0.44385
		c-0.63574,0-1.61914,0.50391-1.61914,2.4585c0,1.93115,1.05566,2.44678,1.69043,2.44678c0.44434,0,1.22363-0.14404,1.57227-1.25928
		c0.02344-0.07178,0.04688-0.12012,0.15527-0.12012c0.03613,0,0.15527,0,0.15527,0.12012S159.62012,84.00684,158.0127,84.00684z"/>
	<path class="st3" d="M165.04395,84.00684v-1.0791c-0.34766,0.74316-0.87598,1.0791-1.54785,1.0791
		c-1.82324,0-1.82324-1.09131-1.82324-2.02686v-1.79883c0-1.06738,0-1.10352-0.93555-1.10352v-0.37158l1.76367-0.13232v3.98193
		c0,0.62354,0.04785,1.1875,1.05469,1.1875c0.87598,0,1.45117-0.81543,1.45117-1.85889v-2.13525
		c0-0.5874-0.0957-0.67139-0.93555-0.67139v-0.37158l1.76367-0.13232v4.25781c0,0.58789,0.0957,0.67188,0.93555,0.67188V83.875
		L165.04395,84.00684z"/>
	<path class="st3" d="M168.74121,83.83887l-1.31836,0.03613v-0.37158c0.80273,0,0.93457,0,0.93457-0.54004V79.7373
		c0-0.58789-0.1084-0.65967-0.8877-0.65967v-0.37158l1.67969-0.13232v4.40186c0,0.46777,0.04785,0.52783,0.83984,0.52783V83.875
		C169.58105,83.86279,169.16113,83.83887,168.74121,83.83887z M168.68164,77.2666c-0.36035,0-0.63574-0.31201-0.63574-0.63574
		c0-0.2998,0.24023-0.63574,0.64746-0.63574c0.36035,0,0.63574,0.31201,0.63574,0.63574
		C169.3291,76.93066,169.08887,77.2666,168.68164,77.2666z"/>
	<path class="st3" d="M173.15723,84.00684c-0.43164,0-1.54785-0.14404-1.54785-1.61914v-3.31006h-1.01855v-0.26367
		c1.1748-0.04834,1.53516-1.33154,1.54688-2.31494h0.29883v2.20703h1.71582v0.37158h-1.71582v3.33398
		c0,0.2041,0,1.29541,0.80469,1.29541c0.44336,0,0.80273-0.45557,0.80273-1.34326V81.7041h0.30078v0.68359
		C174.34473,83.15527,174.00879,84.00684,173.15723,84.00684z"/>
	<path class="st3" d="M183.83594,83.94678c-0.56348,0-0.8877-0.50342-0.93555-0.9834
		c-0.22754,0.56396-0.7793,1.04346-1.57129,1.04346c-0.75586,0-1.91895-0.2998-1.91895-1.271
		c0-0.52783,0.2998-1.15137,1.19922-1.55957c0.75586-0.35938,1.5957-0.39551,2.20703-0.43164v-0.44385
		c0-1.06738-0.68359-1.53516-1.27148-1.53516c-0.38379,0-0.97168,0.13232-1.29492,0.55176
		c0.55176,0.01221,0.61133,0.40771,0.61133,0.55176c0,0.31201-0.21582,0.55176-0.55176,0.55176
		c-0.31152,0-0.55176-0.2041-0.55176-0.56348c0-0.79199,0.82813-1.35547,1.81152-1.35547c0.5752,0,1.1748,0.19189,1.64258,0.65967
		c0.43164,0.44385,0.43164,0.91162,0.43164,1.41504v2.39893c0,0.06006,0.04785,0.59961,0.44434,0.59961
		c0.13184,0,0.43164-0.07178,0.43164-0.76758v-0.67188h0.2998v0.67188C184.81934,83.7793,184.08789,83.94678,183.83594,83.94678z
		 M182.81641,80.99658c-1.97949,0.07178-2.48242,1.06738-2.48242,1.72705c0,0.59961,0.49121,1.01953,1.0791,1.01953
		c0.54004,0,1.40332-0.40771,1.40332-1.54736V80.99658z"/>
	<path class="st3" d="M187.82129,84.00684c-0.43262,0-1.54785-0.14404-1.54785-1.61914v-3.31006h-1.01953v-0.26367
		c1.17578-0.04834,1.53516-1.33154,1.54785-2.31494h0.2998v2.20703h1.71484v0.37158h-1.71484v3.33398
		c0,0.2041,0,1.29541,0.80371,1.29541c0.44336,0,0.80273-0.45557,0.80273-1.34326V81.7041h0.2998v0.68359
		C189.00781,83.15527,188.67285,84.00684,187.82129,84.00684z"/>
	<path class="st3" d="M114.02051,98.23877l-1.35547,0.03613v-0.37158c0.80273,0,0.93555,0,0.93555-0.54004v-2.79443
		c0-0.68359-0.13281-1.33105-0.8877-1.33105c-0.76758,0-1.61914,0.67139-1.61914,1.91895v2.20654
		c0,0.54004,0.13184,0.54004,0.93555,0.54004v0.37158l-1.34277-0.03613l-1.35547,0.03613v-0.37158
		c0.80273,0,0.93555,0,0.93555-0.54004v-6.23633c0-0.58789-0.09668-0.67188-0.93555-0.67188V90.0835l1.72656-0.13184V94.125h0.01172
		c0.19238-0.43164,0.71973-1.15137,1.72754-1.15137c0.69531,0,1.09082,0.24023,1.25879,0.44385
		c0.37207,0.43164,0.37207,0.80371,0.37207,1.83496v2.29102c0.0127,0.35986,0.31152,0.35986,0.93555,0.35986v0.37158
		L114.02051,98.23877z"/>
	<path class="st3" d="M117.33301,98.23877l-1.31836,0.03613v-0.37158c0.80273,0,0.93555,0,0.93555-0.54004v-3.22607
		c0-0.58789-0.1084-0.65967-0.8877-0.65967v-0.37158l1.67871-0.13232v4.40186c0,0.46777,0.04883,0.52783,0.83984,0.52783v0.37158
		C118.17285,98.2627,117.75293,98.23877,117.33301,98.23877z M117.27441,91.6665c-0.36035,0-0.63672-0.31201-0.63672-0.63574
		c0-0.2998,0.24023-0.63574,0.64844-0.63574c0.35938,0,0.63477,0.31201,0.63477,0.63574
		C117.9209,91.33057,117.68164,91.6665,117.27441,91.6665z"/>
	<path class="st3" d="M124.42383,93.78955c-0.19238,0-0.34863-0.14404-0.34863-0.34814c0-0.14355,0.06055-0.27588,0.19238-0.32373
		c-0.03613-0.01172-0.12012-0.01172-0.12012-0.01172c-0.21582,0-0.64746,0.05957-1.0791,0.46729
		c0.2998,0.27588,0.49121,0.71973,0.49121,1.16357c0,0.92334-0.82715,1.75098-1.94238,1.75098
		c-0.22754,0-0.71973-0.03564-1.1875-0.37158c-0.2041,0.23975-0.2041,0.51563-0.2041,0.56348
		c0,0.38379,0.25195,0.75586,0.63574,0.80371c0.08398,0.01172,0.60059,0.01172,0.89941,0.01172c0.73242,0,1.42773,0,2.0625,0.33594
		c0.6123,0.33594,0.78027,0.94775,0.78027,1.36719c0,0.93555-1.24707,1.54736-2.66309,1.54736
		c-1.46289,0-2.65039-0.65967-2.65039-1.52344c0-0.47949,0.38477-0.99512,1.10352-1.19922
		c-0.37109-0.23975-0.52734-0.69531-0.52734-1.06738c0-0.41992,0.21582-0.81543,0.37109-0.99561
		c-0.29883-0.25146-0.5625-0.70752-0.5625-1.23535c0-0.92334,0.82715-1.75098,1.94238-1.75098
		c0.26367,0,0.76758,0.03613,1.27148,0.43213c0.50293-0.4917,1.03125-0.56396,1.27051-0.56396
		c0.46875,0,0.6123,0.38379,0.6123,0.58789C124.77148,93.70557,124.54395,93.78955,124.42383,93.78955z M121.60449,98.19092
		h-0.70703c-0.52734,0.03613-0.9834,0.47998-0.9834,1.03125c0,0.63574,0.82715,1.24756,2.03906,1.24756
		c1.1748,0,2.02637-0.59961,2.02637-1.24756C123.97949,98.19092,122.63672,98.19092,121.60449,98.19092z M121.61719,93.24951
		c-0.47949,0-0.75586,0.33594-0.85156,0.47998c-0.17969,0.2998-0.19238,0.68359-0.19238,1.00732c0,0.27588,0,1.4751,1.04395,1.4751
		c0.47949,0,0.75488-0.33594,0.85156-0.47949c0.17969-0.2998,0.19238-0.68359,0.19238-1.00781
		C122.66113,94.44922,122.66113,93.24951,121.61719,93.24951z"/>
	<path class="st3" d="M130.02832,98.23877l-1.35547,0.03613v-0.37158c0.80273,0,0.93555,0,0.93555-0.54004v-2.79443
		c0-0.68359-0.13281-1.33105-0.8877-1.33105c-0.76758,0-1.61914,0.67139-1.61914,1.91895v2.20654
		c0,0.54004,0.13184,0.54004,0.93555,0.54004v0.37158l-1.34277-0.03613l-1.35547,0.03613v-0.37158
		c0.80273,0,0.93555,0,0.93555-0.54004v-6.23633c0-0.58789-0.09668-0.67188-0.93555-0.67188V90.0835l1.72656-0.13184V94.125h0.01172
		c0.19238-0.43164,0.71973-1.15137,1.72754-1.15137c0.69531,0,1.09082,0.24023,1.25879,0.44385
		c0.37207,0.43164,0.37207,0.80371,0.37207,1.83496v2.29102c0.0127,0.35986,0.31152,0.35986,0.93555,0.35986v0.37158
		L130.02832,98.23877z"/>
	<path class="st3" d="M139.37598,91.18701c-0.32324,0-0.51563-0.24023-0.51563-0.51611c0-0.2998,0.2168-0.45557,0.36035-0.50342
		c-0.18066-0.08398-0.36035-0.08398-0.39551-0.08398c-0.52832,0-1.10352,0.57568-1.10352,1.63086v1.3916h1.40234v0.37158h-1.36719
		v3.86182c0,0.43164,0.02441,0.56396,0.91211,0.56396h0.25195v0.37158c-0.48047-0.03613-1.04297-0.03613-1.52344-0.03613
		l-1.36719,0.03613v-0.37158c0.80371,0,0.93555,0,0.93555-0.54004v-3.88574h-0.94727v-0.37158h0.94727v-1.37939
		c0-1.27148,1.01953-1.90723,1.85938-1.90723c0.63477,0,1.0791,0.396,1.0791,0.83984
		C139.9043,90.94678,139.72363,91.18701,139.37598,91.18701z"/>
	<path class="st3" d="M143.14551,94.23291c-0.26465,0-0.5166-0.17969-0.5166-0.51563c0-0.31152,0.24023-0.45557,0.27637-0.46777
		c-0.02441-0.01172-0.04883-0.01172-0.13281-0.01172c-0.91113,0-1.41406,1.06738-1.41406,2.25439v1.84717
		c0,0.43164,0.02344,0.56396,0.91113,0.56396h0.25098v0.37158c-0.47852-0.03613-1.04297-0.03613-1.52246-0.03613l-1.36719,0.03613
		v-0.37158c0.80371,0,0.93555,0,0.93555-0.54004v-3.21387c0-0.58789-0.09668-0.67188-0.93555-0.67188v-0.37158l1.66699-0.13232
		v1.31934c0.16797-0.51563,0.59961-1.31934,1.47461-1.31934c0.51563,0,0.88867,0.34814,0.88867,0.73193
		S143.36035,94.23291,143.14551,94.23291z"/>
	<path class="st3" d="M146.97266,98.40674c-1.37891,0-2.6377-1.16309-2.6377-2.77051c0-1.49902,1.10254-2.73438,2.49414-2.73438
		c1.49902,0,2.14648,1.16357,2.14648,2.35059c0,0.25195-0.03516,0.25195-0.2998,0.25195h-3.34668
		c0,0.43164,0,1.22314,0.36035,1.79883c0.27637,0.44385,0.75586,0.80371,1.35547,0.80371c0.12012,0,1.19922,0,1.61914-1.23535
		c0.02441-0.0957,0.04785-0.16797,0.15527-0.16797c0.06055,0,0.15625,0.02393,0.15625,0.14404
		C148.97559,97.07568,148.43652,98.40674,146.97266,98.40674z M146.8291,93.16553c-0.4082,0-1.41602,0.2998-1.4873,2.08691h2.84277
		C148.18457,94.78467,148.06445,93.16553,146.8291,93.16553z"/>
	<path class="st3" d="M154.29199,100.56543l-1.34375,0.03613v-0.37158c0.80469,0,0.93555,0,0.93555-0.54004v-2.14648
		c-0.26367,0.34766-0.75586,0.86328-1.59473,0.86328c-1.3916,0-2.55469-1.21143-2.55469-2.71045
		c0-1.55908,1.25879-2.72266,2.65039-2.72266c0.95996,0,1.45117,0.75586,1.60742,1.0918l0.45605-1.0918h0.26367v6.71631
		c0,0.54004,0.13184,0.54004,0.93555,0.54004v0.37158L154.29199,100.56543z M153.91992,94.95264
		c0-0.63574-0.50293-1.6792-1.46289-1.6792c-0.8877,0-1.72754,0.99561-1.72754,2.42285c0,1.37939,0.73242,2.44678,1.60742,2.44678
		c0.56445,0,0.94727-0.32373,1.10352-0.4917c0.26367-0.28809,0.47949-0.62402,0.47949-1.00781V94.95264z"/>
	<path class="st3" d="M160.35254,98.40674v-1.0791c-0.34766,0.74316-0.87598,1.0791-1.54785,1.0791
		c-1.82324,0-1.82324-1.09131-1.82324-2.02686v-1.79883c0-1.06738,0-1.10352-0.93555-1.10352v-0.37158l1.76367-0.13232v3.98193
		c0,0.62354,0.04785,1.1875,1.05469,1.1875c0.87598,0,1.45117-0.81543,1.45117-1.85889v-2.13477
		c0-0.58789-0.0957-0.67188-0.93555-0.67188v-0.37158l1.76367-0.13232v4.25781c0,0.58789,0.0957,0.67188,0.93555,0.67188v0.37158
		L160.35254,98.40674z"/>
	<path class="st3" d="M165.30859,98.40674c-1.37891,0-2.6377-1.16309-2.6377-2.77051c0-1.49902,1.10254-2.73438,2.49414-2.73438
		c1.49902,0,2.14648,1.16357,2.14648,2.35059c0,0.25195-0.03516,0.25195-0.2998,0.25195h-3.34668
		c0,0.43164,0,1.22314,0.36035,1.79883c0.27637,0.44385,0.75586,0.80371,1.35547,0.80371c0.12012,0,1.19922,0,1.61914-1.23535
		c0.02441-0.0957,0.04785-0.16797,0.15527-0.16797c0.06055,0,0.15625,0.02393,0.15625,0.14404
		C167.31152,97.07568,166.77246,98.40674,165.30859,98.40674z M165.16504,93.16553c-0.4082,0-1.41602,0.2998-1.4873,2.08691h2.84277
		C166.52051,94.78467,166.40039,93.16553,165.16504,93.16553z"/>
	<path class="st3" d="M172.73535,98.23877l-1.35547,0.03613v-0.37158c0.80371,0,0.93555,0,0.93555-0.54004v-2.79443
		c0-0.68359-0.13184-1.33105-0.88672-1.33105c-0.76758,0-1.61914,0.67139-1.61914,1.91895v2.20654
		c0,0.54004,0.13086,0.54004,0.93555,0.54004v0.37158l-1.34375-0.03613l-1.35547,0.03613v-0.37158
		c0.80371,0,0.93555,0,0.93555-0.54004v-3.21387c0-0.58789-0.0957-0.67188-0.93555-0.67188v-0.37158l1.69141-0.13232v1.25928
		c0.33594-0.74316,0.89941-1.25928,1.77539-1.25928c0.69531,0,1.09082,0.24023,1.25879,0.44385
		c0.37207,0.43164,0.37207,0.80371,0.37207,1.83496v2.29102c0.01172,0.35986,0.31152,0.35986,0.93555,0.35986v0.37158
		L172.73535,98.23877z"/>
	<path class="st3" d="M177.32129,98.40674c-1.3916,0-2.5791-1.18701-2.5791-2.72217c0-1.4873,1.10352-2.78271,2.60254-2.78271
		c0.92383,0,1.83496,0.46777,1.83496,1.2832c0,0.35986-0.23926,0.56396-0.55176,0.56396c-0.33594,0-0.55176-0.24023-0.55176-0.55176
		c0-0.15625,0.07227-0.51563,0.56348-0.55176c-0.41895-0.43164-1.1748-0.44385-1.2832-0.44385
		c-0.63574,0-1.61914,0.50391-1.61914,2.4585c0,1.93115,1.05566,2.44678,1.69141,2.44678c0.44336,0,1.22363-0.14404,1.57129-1.25928
		c0.02344-0.07178,0.04785-0.12012,0.15625-0.12012c0.03516,0,0.15527,0,0.15527,0.12012S178.92773,98.40674,177.32129,98.40674z"/>
	<path class="st3" d="M181.37695,98.23877l-1.31934,0.03613v-0.37158c0.80371,0,0.93555,0,0.93555-0.54004v-3.22607
		c0-0.58789-0.10742-0.65967-0.8877-0.65967v-0.37158l1.67969-0.13232v4.40186c0,0.46777,0.04785,0.52783,0.83887,0.52783v0.37158
		C182.2168,98.2627,181.79688,98.23877,181.37695,98.23877z M181.31738,91.6665c-0.36035,0-0.63574-0.31201-0.63574-0.63574
		c0-0.2998,0.24023-0.63574,0.64746-0.63574c0.36035,0,0.63574,0.31201,0.63574,0.63574
		C181.96484,91.33057,181.72461,91.6665,181.31738,91.6665z"/>
	<path class="st3" d="M185.97266,98.40674c-1.37988,0-2.63867-1.16309-2.63867-2.77051c0-1.49902,1.10352-2.73438,2.49414-2.73438
		c1.5,0,2.14746,1.16357,2.14746,2.35059c0,0.25195-0.03613,0.25195-0.2998,0.25195h-3.34668c0,0.43164,0,1.22314,0.36035,1.79883
		c0.27539,0.44385,0.75488,0.80371,1.35449,0.80371c0.12012,0,1.2002,0,1.61914-1.23535
		c0.02441-0.0957,0.04883-0.16797,0.15625-0.16797c0.05957,0,0.15625,0.02393,0.15625,0.14404
		C187.97559,97.07568,187.43555,98.40674,185.97266,98.40674z M185.82813,93.16553c-0.40723,0-1.41504,0.2998-1.4873,2.08691
		h2.84277C187.18359,94.78467,187.06348,93.16553,185.82813,93.16553z"/>
	<path class="st3" d="M190.71289,98.40674c-0.25195,0-0.79199-0.01172-1.31934-0.51563
		c-0.21582,0.22803-0.21582,0.25195-0.24023,0.27588c-0.22754,0.22803-0.23926,0.23975-0.2998,0.23975
		c-0.13184,0-0.13184-0.08398-0.13184-0.2876v-1.5835c0-0.21582,0-0.2998,0.15625-0.2998c0.12012,0,0.13184,0.04834,0.16797,0.2041
		c0.22754,1.01953,0.65918,1.70313,1.66699,1.70313c0.93555,0,1.35547-0.47998,1.35547-1.09131
		c0-0.86377-0.9834-1.05566-1.24707-1.10352c-0.86426-0.16797-1.2002-0.23975-1.58398-0.55176
		c-0.32324-0.26367-0.51563-0.59961-0.51563-1.01953c0-0.67139,0.45605-1.4751,1.91895-1.4751c0.18066,0,0.67188,0,1.12793,0.33594
		c0.04785-0.03613,0.16797-0.14404,0.20313-0.19189c0.15625-0.14404,0.18066-0.14404,0.24023-0.14404
		c0.13184,0,0.13184,0.08398,0.13184,0.2876v1.21143c0,0.22803,0,0.28809-0.15527,0.28809c0,0-0.13281,0-0.14453-0.10791
		c-0.02344-0.37207-0.08398-1.45117-1.40332-1.45117c-1.03125,0-1.34277,0.4917-1.34277,0.91113
		c0,0.6958,0.80371,0.85156,1.47461,0.98389c0.50391,0.0957,0.97168,0.19189,1.36719,0.57568
		c0.14453,0.14355,0.50391,0.50342,0.50391,1.13916C192.64355,97.60352,192.0918,98.40674,190.71289,98.40674z"/>
</g>
<g>
	<path class="st3" d="M104.79102,10.34961c-2.09863,0-3.91016-1.88281-3.91016-4.31787c0-2.4585,1.78711-4.37744,3.92188-4.37744
		c2.08691,0,3.91016,1.89502,3.91016,4.37744C108.71289,8.44238,106.9375,10.34961,104.79102,10.34961z M104.79102,1.91797
		c-1.12695,0-2.79395,0.99561-2.79395,3.93408c0,3.07031,1.58301,4.22168,2.80566,4.22168
		c1.16406,0,2.79492-1.10352,2.79492-4.22168C107.59766,2.94971,105.97852,1.91797,104.79102,1.91797z"/>
	<path class="st3" d="M112.95215,10.22949c-0.91211,0-1.41602-0.64746-1.47559-0.83936v0.10791v2.01465
		c0,0.54004,0.13184,0.54004,0.93555,0.54004v0.37158l-1.35547-0.03613l-1.34277,0.03613v-0.37158
		c0.80273,0,0.93555,0,0.93555-0.54004V5.8999c0-0.52783-0.08398-0.59961-0.93555-0.59961V4.92871l1.72656-0.13232v0.7915
		c0.24023-0.26367,0.74414-0.7915,1.67969-0.7915c1.34277,0,2.50586,1.1875,2.50586,2.71045
		C115.62598,9.0542,114.37891,10.22949,112.95215,10.22949z M113.02344,5.09619c-0.61133,0-1.19922,0.34814-1.54688,0.95947v2.6748
		c0,0.23975,0,0.25195,0.16797,0.50391c0.32422,0.4917,0.7793,0.73145,1.25879,0.73145c0.8877,0,1.72754-1.00732,1.72754-2.45898
		C114.63086,6.15186,113.89941,5.09619,113.02344,5.09619z"/>
	<path class="st3" d="M119.36035,10.22949c-1.37988,0-2.63867-1.16309-2.63867-2.77051c0-1.49902,1.10352-2.73438,2.49414-2.73438
		c1.49902,0,2.14648,1.16357,2.14648,2.35059c0,0.25195-0.03516,0.25195-0.2998,0.25195h-3.3457
		c0,0.43164,0,1.22314,0.35938,1.79883c0.27637,0.44385,0.75586,0.80371,1.35547,0.80371c0.12012,0,1.19922,0,1.61914-1.23535
		c0.02441-0.0957,0.04785-0.16797,0.15625-0.16797c0.05957,0,0.15527,0.02393,0.15527,0.14404
		C121.3623,8.89844,120.82324,10.22949,119.36035,10.22949z M119.21582,4.98828c-0.40723,0-1.41504,0.2998-1.4873,2.08691h2.84277
		C120.57129,6.60742,120.45117,4.98828,119.21582,4.98828z"/>
	<path class="st3" d="M126.78711,10.06152l-1.35547,0.03613V9.72607c0.80371,0,0.93555,0,0.93555-0.54004V6.3916
		c0-0.68359-0.13184-1.33105-0.8877-1.33105c-0.76758,0-1.61914,0.67139-1.61914,1.91895v2.20654
		c0,0.54004,0.13184,0.54004,0.93555,0.54004v0.37158l-1.34277-0.03613l-1.35547,0.03613V9.72607
		c0.80371,0,0.93555,0,0.93555-0.54004V5.97168c0-0.5874-0.09668-0.67139-0.93555-0.67139V4.92871l1.69043-0.13232v1.25928
		c0.33594-0.74316,0.90039-1.25928,1.77539-1.25928c0.69531,0,1.0918,0.24023,1.25977,0.44385
		c0.37109,0.43164,0.37109,0.80371,0.37109,1.83496v2.29102c0.0127,0.35986,0.3125,0.35986,0.93555,0.35986v0.37158
		L126.78711,10.06152z"/>
	<path class="st3" d="M135.36719,10.22949c-1.39063,0-2.57813-1.1875-2.57813-2.72266c0-1.48682,1.10352-2.78223,2.60254-2.78223
		c0.92383,0,1.83496,0.46777,1.83496,1.2832c0,0.35986-0.24023,0.56396-0.55176,0.56396c-0.33594,0-0.55176-0.24023-0.55176-0.55176
		c0-0.15625,0.07227-0.51563,0.56348-0.55176c-0.41992-0.43164-1.1748-0.44385-1.2832-0.44385
		c-0.63574,0-1.61914,0.50391-1.61914,2.4585c0,1.93115,1.05566,2.44678,1.69141,2.44678c0.44336,0,1.22363-0.14404,1.57129-1.25928
		c0.02344-0.07178,0.04785-0.12012,0.15527-0.12012c0.03613,0,0.15625,0,0.15625,0.12012S136.97461,10.22949,135.36719,10.22949z"/>
	<path class="st3" d="M139.42383,10.06152l-1.31836,0.03613V9.72607c0.80273,0,0.93457,0,0.93457-0.54004V5.95996
		c0-0.58789-0.10742-0.65967-0.88672-0.65967V4.92871l1.67871-0.13232v4.40186c0,0.46777,0.04785,0.52783,0.83984,0.52783v0.37158
		C140.26367,10.08545,139.84375,10.06152,139.42383,10.06152z M139.36426,3.48926c-0.35938,0-0.63574-0.31201-0.63574-0.63574
		c0-0.2998,0.24023-0.63574,0.64746-0.63574c0.36035,0,0.63574,0.31201,0.63574,0.63574
		C140.01172,3.15332,139.77246,3.48926,139.36426,3.48926z"/>
	<path class="st3" d="M144.89551,6.05566c-0.26465,0-0.5166-0.17969-0.5166-0.51563c0-0.31152,0.24023-0.45557,0.27637-0.46777
		c-0.02441-0.01172-0.04785-0.01172-0.13184-0.01172c-0.91211,0-1.41504,1.06738-1.41504,2.25488v1.84668
		c0,0.43164,0.02344,0.56396,0.91113,0.56396h0.25195v0.37158c-0.47949-0.03613-1.04395-0.03613-1.52344-0.03613l-1.36719,0.03613
		V9.72607c0.80371,0,0.93555,0,0.93555-0.54004V5.97168c0-0.5874-0.0957-0.67139-0.93555-0.67139V4.92871l1.66699-0.13232v1.31934
		c0.16797-0.51563,0.59961-1.31934,1.47559-1.31934c0.51563,0,0.8877,0.34814,0.8877,0.73193S145.11133,6.05566,144.89551,6.05566z"
		/>
	<path class="st3" d="M148.73535,10.22949c-1.39063,0-2.57813-1.1875-2.57813-2.72266c0-1.48682,1.10352-2.78223,2.60254-2.78223
		c0.92383,0,1.83496,0.46777,1.83496,1.2832c0,0.35986-0.24023,0.56396-0.55176,0.56396c-0.33594,0-0.55176-0.24023-0.55176-0.55176
		c0-0.15625,0.07227-0.51563,0.56348-0.55176c-0.41992-0.43164-1.1748-0.44385-1.2832-0.44385
		c-0.63574,0-1.61914,0.50391-1.61914,2.4585c0,1.93115,1.05566,2.44678,1.69141,2.44678c0.44336,0,1.22363-0.14404,1.57129-1.25928
		c0.02344-0.07178,0.04785-0.12012,0.15527-0.12012c0.03613,0,0.15625,0,0.15625,0.12012S150.34277,10.22949,148.73535,10.22949z"/>
	<path class="st3" d="M155.7666,10.22949v-1.0791c-0.34766,0.74316-0.87598,1.0791-1.54785,1.0791
		c-1.82227,0-1.82227-1.09131-1.82227-2.02686V6.40381c0-1.06738,0-1.10352-0.93555-1.10352V4.92871l1.7627-0.13232v3.98193
		c0,0.62354,0.04785,1.1875,1.05566,1.1875c0.875,0,1.45117-0.81543,1.45117-1.85889V5.97168
		c0-0.5874-0.0957-0.67139-0.93555-0.67139V4.92871l1.7627-0.13232V9.0542c0,0.58789,0.09668,0.67188,0.93555,0.67188v0.37158
		L155.7666,10.22949z"/>
	<path class="st3" d="M159.46387,10.06152l-1.31934,0.03613V9.72607c0.80371,0,0.93555,0,0.93555-0.54004V5.95996
		c0-0.58789-0.1084-0.65967-0.8877-0.65967V4.92871l1.67969-0.13232v4.40186c0,0.46777,0.04785,0.52783,0.83887,0.52783v0.37158
		C160.30371,10.08545,159.88379,10.06152,159.46387,10.06152z M159.4043,3.48926c-0.36035,0-0.63574-0.31201-0.63574-0.63574
		c0-0.2998,0.23926-0.63574,0.64746-0.63574c0.35938,0,0.63574,0.31201,0.63574,0.63574
		C160.05176,3.15332,159.81152,3.48926,159.4043,3.48926z"/>
	<path class="st3" d="M163.87891,10.22949c-0.43164,0-1.54688-0.14404-1.54688-1.61914V5.30029h-1.01953V5.03662
		c1.17578-0.04834,1.53516-1.33154,1.54688-2.31494h0.2998v2.20703h1.71582v0.37158h-1.71582v3.33398
		c0,0.2041,0,1.29541,0.80371,1.29541c0.44434,0,0.80371-0.45557,0.80371-1.34326V7.92676h0.2998v0.68359
		C165.06641,9.37793,164.73047,10.22949,163.87891,10.22949z"/>
	<path class="st3" d="M174.55859,10.16943c-0.56348,0-0.8877-0.50342-0.93555-0.9834
		c-0.22754,0.56396-0.7793,1.04346-1.57129,1.04346c-0.75586,0-1.91895-0.2998-1.91895-1.271
		c0-0.52783,0.2998-1.15137,1.19922-1.55957c0.75586-0.35938,1.5957-0.39551,2.20703-0.43164V6.52344
		c0-1.06738-0.68359-1.53516-1.27148-1.53516c-0.38379,0-0.97168,0.13232-1.29492,0.55176
		c0.55176,0.01221,0.61133,0.40771,0.61133,0.55176c0,0.31201-0.21582,0.55176-0.55176,0.55176
		c-0.31152,0-0.55176-0.2041-0.55176-0.56348c0-0.79199,0.82813-1.35547,1.81152-1.35547c0.5752,0,1.1748,0.19189,1.64258,0.65967
		c0.43164,0.44385,0.43164,0.91162,0.43164,1.41504v2.39893c0,0.06006,0.04785,0.59961,0.44434,0.59961
		c0.13184,0,0.43164-0.07178,0.43164-0.76758V8.3584h0.2998v0.67188C175.54199,10.00195,174.81055,10.16943,174.55859,10.16943z
		 M173.53906,7.21924c-1.97949,0.07178-2.48242,1.06738-2.48242,1.72705c0,0.59961,0.49121,1.01953,1.0791,1.01953
		c0.54004,0,1.40332-0.40771,1.40332-1.54736V7.21924z"/>
	<path class="st3" d="M178.54395,10.22949c-0.43262,0-1.54785-0.14404-1.54785-1.61914V5.30029h-1.01953V5.03662
		c1.17578-0.04834,1.53516-1.33154,1.54785-2.31494h0.2998v2.20703h1.71484v0.37158h-1.71484v3.33398
		c0,0.2041,0,1.29541,0.80371,1.29541c0.44336,0,0.80273-0.45557,0.80273-1.34326V7.92676h0.2998v0.68359
		C179.73047,9.37793,179.39551,10.22949,178.54395,10.22949z"/>
	<path class="st3" d="M189.22266,10.09766h-4.38965V9.72607h0.28809c0.92285,0,0.94727-0.13232,0.94727-0.56396V2.8418
		c0-0.43213-0.02441-0.56396-0.94727-0.56396h-0.28809V1.90625h4.38965c2.05078,0,3.66992,1.88281,3.66992,4.16162
		C192.89258,8.32275,191.2373,10.09766,189.22266,10.09766z M191.06934,3.39355c-0.61133-0.85156-1.43945-1.11572-2.18262-1.11572
		h-1.19922c-0.56348,0-0.58789,0.08398-0.58789,0.47998v6.48828c0,0.396,0.02441,0.47998,0.58789,0.47998h1.21094
		c1.21191,0,1.89551-0.6958,2.13477-1.01953c0.43164-0.58789,0.66016-1.30762,0.66016-2.63867
		C191.69336,5.13232,191.58496,4.10107,191.06934,3.39355z"/>
	<path class="st3" d="M198.42676,10.36133c-2.23145,0-4.17383-1.88281-4.17383-4.36523c0-2.44678,1.93066-4.354,4.17383-4.354
		c1.15137,0,1.7627,0.6001,2.20605,1.03174l0.59961-0.8877c0.09668-0.14404,0.14453-0.14404,0.19238-0.14404
		c0.13184,0,0.13184,0.08398,0.13184,0.28809v2.84229c0,0.25195,0,0.28809-0.19141,0.28809
		c-0.16797,0-0.16797-0.03613-0.19238-0.2041c-0.24023-1.75098-1.30762-2.84229-2.61426-2.84229
		c-0.73145,0-3.07031,0.40771-3.07031,3.99365c0,3.57422,2.35059,3.98193,3.08203,3.98193c1.30762,0,2.59082-0.9834,2.68652-2.69873
		c0.01172-0.11963,0.01172-0.19189,0.14355-0.19189c0.15625,0,0.15625,0.08398,0.15625,0.2041
		C201.55664,8.69434,200.38086,10.36133,198.42676,10.36133z"/>
</g>
<g>
</g>
<g>
</g>
<g>
</g>
<g>
</g>
<g>
</g>
<g>
</g>
<g>
</g>
<g>
</g>
<g>
</g>
<g>
</g>
<g>
</g>
<g>
</g>
</svg>
