<?xml version="1.0" encoding="utf-8"?>
<!-- Generator: Adobe Illustrator 23.0.3, SVG Export Plug-In . SVG Version: 6.00 Build 0)  -->
<svg version="1.1" id="Layer_1" xmlns="http://www.w3.org/2000/svg" xmlns:xlink="http://www.w3.org/1999/xlink" x="0px" y="0px"
	 viewBox="0 0 197.5 82.52637" style="enable-background:new 0 0 197.5 82.52637;" xml:space="preserve">
<style type="text/css">
	.st0{fill:none;stroke:#8FF4DD;stroke-width:2;stroke-linecap:round;stroke-linejoin:round;}
	.st1{fill:none;stroke:#8FF4DD;stroke-width:2;stroke-linecap:round;stroke-linejoin:round;stroke-dasharray:5,5;}
	.st2{fill:none;stroke:#8FF4DD;stroke-width:2;stroke-linecap:round;stroke-linejoin:round;stroke-dasharray:5;}
	.st3{fill:none;stroke:#FD1D53;stroke-miterlimit:10;}
	.st4{fill:#FD1D53;}
	.st5{fill:#8FF4DD;}
	.st6{fill:none;stroke:#8FF4DD;stroke-width:2;stroke-linecap:round;}
	.st7{fill:none;stroke:#8FF4DD;stroke-width:2;stroke-linecap:square;}
</style>
<title>AdmittanceParallel</title>
<g>
	<line class="st0" x1="184" y1="1" x2="174" y2="1.00003"/>
	<line class="st0" x1="144" y1="1.00003" x2="1" y2="1.00003"/>
	<g>
		<line class="st0" x1="174" y1="1.00003" x2="171.5" y2="1.00003"/>
		<line class="st1" x1="166.5" y1="1.00003" x2="149" y2="1.00003"/>
		<line class="st0" x1="146.5" y1="1.00003" x2="144" y2="1.00003"/>
	</g>
	<line class="st0" x1="184" y1="51" x2="1" y2="51.00003"/>
	<path class="st2" d="M1,1"/>
	<g>
		<polyline class="st3" points="9,64 9,26 19.915,26 		"/>
		<polygon class="st4" points="16.602,30.09 15.92,29.357 19.532,26.001 15.92,22.644 16.602,21.911 21,26.001 		"/>
	</g>
	<g>
		<path class="st5" d="M10.02734,70.0127c-0.06006,0-0.15576,0-0.15576-0.1084v-0.10742
			c0.03564-0.17969,0.05957-0.45605,0.05957-0.63574c0-0.52734-0.14355-2.19531-1.69092-2.19531
			c-1.10352,0-2.19482,0.78027-2.80664,1.60742c-1.16309,1.60742-1.29492,3.6582-1.29492,3.99414
			c0,1.63086,0.9834,2.39844,2.07471,2.39844c1.11523,0,2.51855-0.93555,3.05811-2.77051
			c0.03613-0.10742,0.08398-0.12012,0.18018-0.12012c0.07178,0,0.16797,0,0.16797,0.1084c0,0-0.19189,1.0791-1.23535,2.11035
			c-0.09619,0.08398-1.04346,1.01953-2.35059,1.01953c-1.52344,0-2.84277-1.12695-2.84277-3.16602
			c0-2.84277,2.54248-5.5293,4.96533-5.5293c0.77979,0,1.39111,0.36035,1.7749,1.06738l0.77979-0.95898
			c0.08398-0.1084,0.15576-0.1084,0.15576-0.1084s0.10791,0,0.10791,0.1084c0,0-0.01172,0.12012-0.02393,0.15527l-0.73145,2.92676
			C10.17139,70.00098,10.14746,70.0127,10.02734,70.0127z"/>
		<path class="st5" d="M11.54883,79.13477c-0.80322,0-1.53711-0.67773-1.53711-1.61426c0-0.87402,0.64258-1.59375,1.45361-1.59375
			c0.87354,0,1.25098,0.67773,1.25098,1.37012c0,0.14648-0.021,0.14648-0.1748,0.14648H10.5918c0,0.25195,0,0.71289,0.20947,1.04883
			c0.16064,0.25781,0.44043,0.46777,0.78955,0.46777c0.07031,0,0.69922,0,0.94385-0.71973
			c0.01367-0.05566,0.02783-0.09766,0.09082-0.09766c0.03467,0,0.09082,0.01367,0.09082,0.08398
			C12.71631,78.35938,12.40186,79.13477,11.54883,79.13477z M11.46533,76.08105c-0.23779,0-0.82471,0.1748-0.8667,1.21582h1.65625
			C12.25488,77.02441,12.18506,76.08105,11.46533,76.08105z"/>
		<path class="st5" d="M15.81494,80.39258l-0.78271,0.02148v-0.2168c0.46826,0,0.54541,0,0.54541-0.31445v-1.25098
			c-0.15381,0.20215-0.44043,0.50293-0.92969,0.50293c-0.81055,0-1.48828-0.70605-1.48828-1.5791
			c0-0.90918,0.7334-1.58691,1.54443-1.58691c0.55908,0,0.8457,0.44043,0.93652,0.63574l0.26514-0.63574h0.15381v3.91406
			c0,0.31445,0.07715,0.31445,0.54541,0.31445v0.2168L15.81494,80.39258z M15.59863,77.12207
			c0-0.37012-0.29346-0.97852-0.85254-0.97852c-0.51758,0-1.00635,0.58008-1.00635,1.41211
			c0,0.80371,0.42627,1.42578,0.93604,1.42578c0.32861,0,0.55225-0.18945,0.64307-0.28711
			c0.15381-0.16797,0.27979-0.36328,0.27979-0.58691v-0.98535H15.59863z"/>
	</g>
</g>
<g>
	<path class="st5" d="M40.18896,24.13428c-0.06006,0-0.15576,0-0.15576-0.10791v-0.10791
		c0.03564-0.17969,0.05957-0.45557,0.05957-0.63574c0-0.52734-0.14355-2.19482-1.69092-2.19482
		c-1.10352,0-2.19482,0.77979-2.80664,1.60742c-1.16309,1.60693-1.29492,3.65771-1.29492,3.99365
		c0,1.63086,0.9834,2.39844,2.07471,2.39844c1.11523,0,2.51855-0.93506,3.05811-2.77002
		c0.03613-0.10791,0.08398-0.12012,0.18018-0.12012c0.07178,0,0.16797,0,0.16797,0.10791c0,0-0.19189,1.07959-1.23535,2.11084
		c-0.09619,0.08398-1.04346,1.01953-2.35059,1.01953c-1.52344,0-2.84277-1.12744-2.84277-3.1665
		c0-2.84229,2.54248-5.52881,4.96533-5.52881c0.77979,0,1.39111,0.35986,1.7749,1.06738l0.77979-0.95947
		c0.08398-0.10791,0.15576-0.10791,0.15576-0.10791s0.10791,0,0.10791,0.10791c0,0-0.01172,0.12012-0.02393,0.15576
		l-0.73145,2.92676C40.33301,24.12256,40.30908,24.13428,40.18896,24.13428z"/>
	<path class="st5" d="M41.77344,33.15869c-0.2793,0-0.88721,0-1.13184,0.021v-0.2168h0.22363
		c0.62891,0,0.6499-0.0835,0.6499-0.33545v-3.62012c-0.36328,0.18213-0.77588,0.18213-0.91553,0.18213v-0.2168
		c0.22363,0,0.83838,0,1.27197-0.44727c0.16064,0,0.16064,0.01416,0.16064,0.18164v3.92041c0,0.25879,0.021,0.33545,0.6499,0.33545
		h0.22363v0.2168C42.66113,33.15869,42.05322,33.15869,41.77344,33.15869z"/>
</g>
<g>
	<path class="st5" d="M89.91943,24.13428c-0.06006,0-0.15576,0-0.15576-0.10791v-0.10791
		c0.03564-0.17969,0.05957-0.45557,0.05957-0.63574c0-0.52734-0.14355-2.19482-1.69092-2.19482
		c-1.10352,0-2.19482,0.77979-2.80664,1.60742c-1.16309,1.60693-1.29492,3.65771-1.29492,3.99365
		c0,1.63086,0.9834,2.39844,2.07471,2.39844c1.11523,0,2.51855-0.93506,3.05811-2.77002
		c0.03613-0.10791,0.08398-0.12012,0.18018-0.12012c0.07178,0,0.16797,0,0.16797,0.10791c0,0-0.19189,1.07959-1.23535,2.11084
		c-0.09619,0.08398-1.04346,1.01953-2.35059,1.01953c-1.52344,0-2.84277-1.12744-2.84277-3.1665
		c0-2.84229,2.54248-5.52881,4.96533-5.52881c0.77979,0,1.39111,0.35986,1.7749,1.06738l0.77979-0.95947
		c0.08398-0.10791,0.15576-0.10791,0.15576-0.10791s0.10791,0,0.10791,0.10791c0,0-0.01172,0.12012-0.02393,0.15576
		l-0.73145,2.92676C90.06348,24.12256,90.03955,24.13428,89.91943,24.13428z"/>
	<path class="st5" d="M92.65039,33.17969h-2.59277c0-0.16748,0-0.18164,0.07666-0.25879l1.3418-1.49512
		c0.38428-0.43359,0.73389-0.98584,0.73389-1.54443c0-0.57324-0.30078-1.13916-0.93652-1.13916
		c-0.40527,0-0.78271,0.2583-0.94336,0.7124c0.021-0.00684,0.03467-0.00684,0.09082-0.00684
		c0.24463,0,0.37012,0.18164,0.37012,0.36328c0,0.28662-0.24463,0.37061-0.36328,0.37061c-0.021,0-0.37012,0-0.37012-0.3916
		c0-0.62158,0.51709-1.26465,1.30664-1.26465c0.85254,0,1.48145,0.55908,1.48145,1.35596c0,0.69873-0.41895,1.07617-1.50928,2.04053
		L90.5957,32.6416h1.25781c0.15381,0,0.61475,0,0.66406-0.05615c0.06982-0.10449,0.11865-0.41211,0.15381-0.62158h0.17432
		L92.65039,33.17969z"/>
</g>
<g>
	<path class="st5" d="M165.05566,24.13428c-0.06055,0-0.15625,0-0.15625-0.10791v-0.10791
		c0.03613-0.17969,0.05957-0.45557,0.05957-0.63574c0-0.52734-0.14355-2.19482-1.69043-2.19482
		c-1.10352,0-2.19531,0.77979-2.80664,1.60742c-1.16309,1.60693-1.29492,3.65771-1.29492,3.99365
		c0,1.63086,0.9834,2.39844,2.07422,2.39844c1.11523,0,2.51855-0.93506,3.05859-2.77002
		c0.03613-0.10791,0.08398-0.12012,0.17969-0.12012c0.07227,0,0.16797,0,0.16797,0.10791c0,0-0.19141,1.07959-1.23535,2.11084
		c-0.0957,0.08398-1.04297,1.01953-2.35059,1.01953c-1.52344,0-2.84277-1.12744-2.84277-3.1665
		c0-2.84229,2.54297-5.52881,4.96582-5.52881c0.7793,0,1.39063,0.35986,1.77441,1.06738l0.78027-0.95947
		c0.08398-0.10791,0.15527-0.10791,0.15527-0.10791s0.1084,0,0.1084,0.10791c0,0-0.01172,0.12012-0.02441,0.15576l-0.73145,2.92676
		C165.19922,24.12256,165.17578,24.13428,165.05566,24.13428z"/>
	<g>
		<path class="st5" d="M167.60254,33.50195c-0.28613,0-0.50293-0.20996-0.50293-0.5459c0-0.14648,0.02734-0.20898,0.09082-0.38379
			c0.11816-0.34277,0.42578-1.18164,0.42578-1.61426c0-0.11914,0-0.46875-0.32129-0.46875
			c-0.6709,0-1.04785,0.89453-1.08984,1.04883l-0.42676,1.71875c-0.02734,0.11914-0.09766,0.24512-0.25879,0.24512
			c-0.125,0-0.18164-0.08398-0.18164-0.16797c0-0.02832,0-0.03516,0.02832-0.13281l0.50977-2.04102
			c0.02832-0.09766,0.05664-0.25098,0.05664-0.38379c0-0.08398,0-0.28711-0.18164-0.28711
			c-0.23828,0-0.37109,0.41211-0.47559,0.8252c-0.04199,0.16016-0.04883,0.16699-0.12598,0.16699
			c-0.0625,0-0.09766-0.01367-0.09766-0.06934c0,0,0.09082-0.43359,0.22363-0.69238c0.14648-0.2998,0.32813-0.37012,0.48926-0.37012
			c0.32129,0,0.53809,0.25195,0.55859,0.56641c0.23145-0.31445,0.55957-0.56641,0.99316-0.56641
			c0.53809,0,0.69824,0.34277,0.69824,0.71289c0,0.40527-0.2373,1.05566-0.41895,1.56543
			c-0.05566,0.13965-0.13281,0.35645-0.13281,0.52441c0,0.16016,0.05566,0.20898,0.16016,0.20898
			c0.3916,0,0.58008-0.62891,0.64355-0.86621c0.02734-0.10449,0.03516-0.12598,0.11914-0.12598c0.02734,0,0.09082,0,0.09082,0.06348
			C168.47656,32.45996,168.25293,33.50195,167.60254,33.50195z"/>
	</g>
</g>
<g>
	<path id="path2791" class="st6" d="M59,1v21.875"/>
	<path id="path2793" class="st6" d="M59,29.125V51"/>
	<path id="path2795" class="st7" d="M71.5,22.875h-25"/>
	<path id="path2797" class="st7" d="M71.5,29.125h-25"/>
</g>
<g>
	<path id="path2791_1_" class="st6" d="M109,1v21.875"/>
	<path id="path2793_1_" class="st6" d="M109,29.125V51"/>
	<path id="path2795_1_" class="st7" d="M121.5,22.875h-25"/>
	<path id="path2797_1_" class="st7" d="M121.5,29.125h-25"/>
</g>
<g>
	<path id="path2791_2_" class="st6" d="M184,1v21.875"/>
	<path id="path2793_2_" class="st6" d="M184,29.125V51"/>
	<path id="path2795_2_" class="st7" d="M196.5,22.875h-25"/>
	<path id="path2797_2_" class="st7" d="M196.5,29.125h-25"/>
</g>
</svg>
