<?xml version="1.0" encoding="utf-8"?>
<!-- Generator: Adobe Illustrator 23.0.3, SVG Export Plug-In . SVG Version: 6.00 Build 0)  -->
<svg version="1.1" xmlns="http://www.w3.org/2000/svg" xmlns:xlink="http://www.w3.org/1999/xlink" x="0px" y="0px"
	 viewBox="0 0 333.82422 126.76074" style="enable-background:new 0 0 333.82422 126.76074;" xml:space="preserve">
<style type="text/css">
	.st0{fill:none;stroke:#8FF4DD;stroke-width:2;stroke-linecap:round;stroke-linejoin:round;}
	.st1{fill:none;stroke:#8FF4DD;stroke-width:2;stroke-linecap:round;}
	.st2{fill:none;stroke:#8FF4DD;stroke-width:1.5;stroke-linecap:square;}
	.st3{fill:none;stroke:#8FF4DD;stroke-width:2;stroke-linecap:square;stroke-linejoin:round;}
	.st4{fill:none;stroke:#8FF4DD;stroke-width:2;stroke-linecap:square;}
	.st5{fill:none;stroke:#8FF4DD;stroke-width:2;stroke-linejoin:round;}
	.st6{fill:#8FF4DD;}
	.st7{fill:none;stroke:#8FF4DD;stroke-width:0.5;}
</style>
<g id="Layer_1">
	<g>
		<path id="path1132_1_" class="st0" d="M124.92188,22.76074h-14"/>
		<circle class="st0" cx="107.92188" cy="22.76074" r="3"/>
	</g>
	<g>
		<path id="path1132_2_" class="st0" d="M124.92188,122.76074h-14"/>
		<circle class="st0" cx="107.92188" cy="122.76074" r="3"/>
	</g>
	<g>
		<circle class="st1" cx="139.92188" cy="97.76074" r="12.5"/>
		<line class="st1" x1="139.92188" y1="84.76074" x2="139.92188" y2="72.76074"/>
		<line class="st1" x1="139.92188" y1="110.76074" x2="139.92188" y2="122.76074"/>
		<line class="st2" x1="137.42188" y1="90.76074" x2="142.42188" y2="90.76074"/>
		<line class="st2" x1="139.92188" y1="93.26074" x2="139.92188" y2="88.26074"/>
		<line class="st2" x1="137.42188" y1="105.26074" x2="142.42188" y2="105.26074"/>
	</g>
	<g>
		<path id="path1132_3_" class="st0" d="M24.92188,22.76074h-14"/>
		<circle class="st0" cx="7.92188" cy="22.76074" r="3"/>
	</g>
	<g>
		<path id="path1132_4_" class="st0" d="M24.92188,122.76074h-14"/>
		<circle class="st0" cx="7.92188" cy="122.76074" r="3"/>
	</g>
	<circle class="st0" cx="289.92188" cy="72.76074" r="12.5"/>
	<line class="st1" x1="289.92188" y1="85.76074" x2="289.92188" y2="97.76074"/>
	<line class="st1" x1="289.92188" y1="59.76074" x2="289.92188" y2="47.76074"/>
	<g>
		<polyline class="st3" points="289.92188,79.76074 289.92188,65.76074 292.92188,68.76074 		"/>
		<line class="st3" x1="289.92188" y1="65.76074" x2="286.92188" y2="68.76074"/>
	</g>
	<g>
		<path id="path2791" class="st1" d="M39.92188,47.76074v21.875"/>
		<path id="path2793" class="st1" d="M39.92188,75.88574v21.875"/>
		<path id="path2795" class="st4" d="M52.42188,69.63574h-25"/>
		<path id="path2797" class="st4" d="M52.42188,75.88574h-25"/>
	</g>
	<g>
		<path id="path2791_1_" class="st1" d="M139.92188,22.76074v21.875"/>
		<path id="path2793_1_" class="st1" d="M139.92188,50.88574v21.875"/>
		<path id="path2795_1_" class="st4" d="M152.42188,44.63574h-25"/>
		<path id="path2797_1_" class="st4" d="M152.42188,50.88574h-25"/>
	</g>
	<line class="st2" x1="149.92188" y1="57.76074" x2="154.92188" y2="57.76074"/>
	<line class="st2" x1="149.92188" y1="37.76074" x2="154.92188" y2="37.76074"/>
	<line class="st2" x1="152.42188" y1="40.26074" x2="152.42188" y2="35.26074"/>
</g>
<g id="Layer_2">
	<line class="st0" x1="124.92188" y1="22.76074" x2="139.92188" y2="22.76074"/>
	<line class="st0" x1="139.92188" y1="122.76074" x2="124.92188" y2="122.76074"/>
	<polyline class="st3" points="24.92188,22.76074 39.92188,22.76074 39.92188,47.76074 	"/>
	<polyline class="st3" points="39.92188,98.76074 39.92188,122.76074 24.92188,122.76074 	"/>
	<g>
		<path id="path1132_6_" class="st0" d="M224.92188,22.76074h-14"/>
		<circle class="st0" cx="207.92188" cy="22.76074" r="3"/>
	</g>
	<g>
		<path id="path1132_5_" class="st0" d="M224.92188,122.76074h-14"/>
		<circle class="st0" cx="207.92188" cy="122.76074" r="3"/>
	</g>
	<polyline class="st3" points="224.92188,22.76074 239.92188,22.76074 239.92188,47.76074 	"/>
	<polyline class="st3" points="239.92188,98.76074 239.92188,122.76074 224.92188,122.76074 	"/>
	<polyline class="st0" points="239.92188,22.76074 289.92188,22.76074 289.92188,47.76074 	"/>
	<polyline class="st0" points="289.92188,97.76074 289.92188,122.76074 239.92188,122.76074 	"/>
	<g>
		<g>
			<line class="st5" x1="58.92188" y1="72.76074" x2="87.40358" y2="72.76074"/>
			<g>
				<polygon class="st6" points="82.76469,78.48652 81.80971,77.46113 86.86626,72.76211 81.80971,68.06171 82.76469,67.03632 
					88.92188,72.76211 				"/>
			</g>
		</g>
	</g>
	<polyline class="st4" points="17.92188,18.76074 31.92188,18.76074 28.92188,15.76074 	"/>
	<polyline class="st4" points="117.92188,18.76074 131.92188,18.76074 128.92188,15.76074 	"/>
	<polyline class="st4" points="217.92188,18.76074 231.92188,18.76074 228.92188,15.76074 	"/>
	<line class="st2" x1="5.42188" y1="35.76074" x2="10.42188" y2="35.76074"/>
	<line class="st2" x1="7.92188" y1="38.26074" x2="7.92188" y2="33.26074"/>
	<line class="st2" x1="5.42188" y1="109.76074" x2="10.42188" y2="109.76074"/>
	<line class="st2" x1="105.42188" y1="35.76074" x2="110.42188" y2="35.76074"/>
	<line class="st2" x1="107.92188" y1="38.26074" x2="107.92188" y2="33.26074"/>
	<line class="st2" x1="105.42188" y1="109.76074" x2="110.42188" y2="109.76074"/>
	<line class="st2" x1="205.42188" y1="35.76074" x2="210.42188" y2="35.76074"/>
	<line class="st2" x1="207.92188" y1="38.26074" x2="207.92188" y2="33.26074"/>
	<line class="st2" x1="205.42188" y1="109.76074" x2="210.42188" y2="109.76074"/>
	<g>
		<path class="st6" d="M18.38672,10.21777c-0.396,0-0.86377-0.25195-0.86377-0.94775c0-0.10791,0-0.26367,0.09619-0.52783
			l0.95947-2.60254c0.08398-0.21582,0.15576-0.41943,0.15576-0.73145c0-0.13184,0-0.35986-0.26367-0.35986
			c-0.6958,0-1.00732,1.11572-1.10352,1.49951c-0.04785,0.16748-0.06006,0.20361-0.20361,0.20361
			c-0.06006,0-0.16797,0-0.16797-0.10791c0-0.06006,0.39551-1.83496,1.49902-1.83496c0.46777,0,0.86377,0.32373,0.86377,0.93555
			c0,0.21582-0.02441,0.31152-0.13232,0.61133l-0.70752,1.94336c-0.21582,0.5874-0.38379,1.01904-0.38379,1.33105
			c0,0.28809,0.14404,0.34766,0.27588,0.34766c0.68359,0,0.99561-1.0791,1.10352-1.48682
			c0.04785-0.18018,0.06006-0.21631,0.20361-0.21631c0.04834,0,0.15625,0,0.15625,0.1084
			C19.87402,8.43066,19.49023,10.21777,18.38672,10.21777z M19.49023,3.46533c-0.22803,0-0.47998-0.15576-0.47998-0.47998
			c0-0.34766,0.34814-0.68359,0.70752-0.68359c0.24023,0,0.47998,0.14404,0.47998,0.47998
			C20.19775,3.1416,19.8501,3.46533,19.49023,3.46533z"/>
		<path class="st6" d="M23.38965,13.10791c-0.13184,0-1.11572-0.7793-1.82324-2.21875
			c-0.62354-1.2832-0.7915-2.71045-0.7915-3.77783c0-1.4751,0.27588-2.7583,0.8877-3.96973
			c0.5874-1.17529,1.5708-2.03906,1.72705-2.03906c0.04785,0,0.10791,0.02393,0.10791,0.09619c0,0.03564,0,0.05957-0.12012,0.16748
			c-1.39111,1.41553-1.95459,3.41846-1.95459,5.74512c0,2.44678,0.67139,4.42578,1.87061,5.63672
			c0.2041,0.2041,0.2041,0.22803,0.2041,0.26416C23.49756,13.08398,23.4375,13.10791,23.38965,13.10791z"/>
		<path class="st6" d="M26.57031,10.21777c-0.65918,0-0.9834-0.50391-0.9834-1.05566c0-0.04785,0-0.19189,0.06006-0.43164
			l0.86377-3.4541h-0.97168c-0.19189,0-0.2876,0-0.2876-0.12012c0-0.22754,0.10791-0.22754,0.32373-0.22754h1.01953l0.46777-1.8833
			c0.04785-0.17969,0.15576-0.44385,0.45557-0.44385c0.22803,0,0.31201,0.18018,0.31201,0.28809
			c0,0-0.01221,0.13184-0.02441,0.15576l-0.47949,1.8833h0.94727c0.2041,0,0.28809,0,0.28809,0.13184
			c0,0.21582-0.12012,0.21582-0.32373,0.21582h-0.99561L26.34277,8.8623c-0.04785,0.17969-0.09619,0.45557-0.09619,0.63574
			c0,0.39551,0.16797,0.47949,0.34814,0.47949c0.7793,0,1.24707-1.17529,1.39111-1.54688
			c0.06006-0.13184,0.07178-0.15625,0.20361-0.15625c0.04834,0,0.15625,0,0.15625,0.1084
			C28.3457,8.44238,27.74609,10.21777,26.57031,10.21777z"/>
		<path class="st6" d="M31.7666,11.06934c-0.58789,1.17529-1.57129,2.03857-1.72705,2.03857
			c-0.04785,0-0.10791-0.02393-0.10791-0.0957c0-0.03613,0-0.06006,0.12012-0.16797
			c1.39111-1.41553,1.95459-3.41846,1.95459-5.74512c0-2.44629-0.67139-4.42529-1.87061-5.63672
			c-0.2041-0.2041-0.2041-0.22803-0.2041-0.26367c0-0.07227,0.06006-0.09619,0.10791-0.09619
			c0.13184,0,1.11523,0.77979,1.82275,2.21875c0.67188,1.39111,0.79199,2.87842,0.79199,3.79004
			C32.6543,8.55029,32.37842,9.8457,31.7666,11.06934z"/>
	</g>
	<g>
		<path class="st6" d="M119.32178,10.09766c-0.44336,0-0.92334-0.02393-1.37891-0.02393c-0.44385,0-0.91162,0.02393-1.34326,0.02393
			c-0.04834,0-0.16797,0-0.16797-0.12012c0-0.22754,0.11963-0.22754,0.2876-0.22754c0.81592,0,0.8877-0.08398,0.99561-0.51563
			l1.61914-6.47656c0.04785-0.19189,0.04785-0.28809,0.04785-0.28809c0-0.13184,0-0.21582-0.70752-0.21582
			c-0.2041,0-0.2876,0-0.2876-0.13184c0-0.21582,0.13184-0.21582,0.22754-0.21582c0.44385,0,0.91162,0.02393,1.36719,0.02393
			c0.44385,0,0.91162-0.02393,1.35547-0.02393c0.04785,0,0.16797,0,0.16797,0.11963c0,0.22803-0.09619,0.22803-0.34814,0.22803
			c-0.71924,0-0.83936,0.08398-0.93506,0.4917l-1.64307,6.59668c-0.02441,0.10791-0.02441,0.13184-0.02441,0.20361
			c0,0.2041,0.34814,0.2041,0.68359,0.2041c0.22803,0,0.31201,0,0.31201,0.11963
			C119.5498,10.09766,119.41797,10.09766,119.32178,10.09766z"/>
		<path class="st6" d="M124.00195,13.10791c-0.13184,0-1.11572-0.7793-1.82324-2.21875
			c-0.62354-1.2832-0.7915-2.71045-0.7915-3.77783c0-1.4751,0.27588-2.7583,0.8877-3.96973
			c0.5874-1.17529,1.5708-2.03906,1.72705-2.03906c0.04785,0,0.10791,0.02393,0.10791,0.09619c0,0.03564,0,0.05957-0.12012,0.16748
			c-1.39111,1.41553-1.95508,3.41846-1.95508,5.74512c0,2.44678,0.67188,4.42578,1.87109,5.63672
			c0.2041,0.2041,0.2041,0.22803,0.2041,0.26416C124.10986,13.08398,124.0498,13.10791,124.00195,13.10791z"/>
		<path class="st6" d="M125.98291,10.21777c-0.82764,0-1.51123-0.41992-1.51123-1.15137c0-0.65967,0.46777-0.70801,0.56348-0.70801
			c0.15576,0,0.37158,0.09619,0.37158,0.34814c0,0,0,0.51563-0.5752,0.53955c0.13184,0.56348,0.73145,0.73145,1.16309,0.73145
			c1.31934,0,1.60693-1.05518,1.60693-1.37891c0-0.65967-0.61133-0.80371-0.91113-0.86377
			c-0.51611-0.11963-0.74365-0.17969-0.94775-0.37158c-0.10791-0.12012-0.33594-0.37207-0.33594-0.81543
			c0-0.51611,0.41992-1.73926,1.85938-1.73926c0.76758,0,1.24707,0.45557,1.24707,1.00732
			c0,0.40771-0.20361,0.62354-0.47949,0.62354c-0.24023,0-0.32422-0.16748-0.32422-0.2998
			c0-0.04785,0.02441-0.40771,0.45605-0.45557c-0.08398-0.38379-0.43164-0.63574-0.92334-0.63574
			c-0.97168,0-1.23535,0.81543-1.23535,1.12744c0,0.53955,0.43164,0.63574,0.75537,0.70752
			c0.57568,0.13184,1.42725,0.32373,1.42725,1.35547C128.18945,8.88623,127.66162,10.21777,125.98291,10.21777z"/>
		<path class="st6" d="M130.87842,11.06934c-0.58789,1.17529-1.57129,2.03857-1.72705,2.03857
			c-0.04785,0-0.10791-0.02393-0.10791-0.0957c0-0.03613,0-0.06006,0.12012-0.16797
			c1.39111-1.41553,1.95459-3.41846,1.95459-5.74512c0-2.44629-0.67139-4.42529-1.87061-5.63672
			c-0.2041-0.2041-0.2041-0.22803-0.2041-0.26367c0-0.07227,0.06006-0.09619,0.10791-0.09619
			c0.13184,0,1.11523,0.77979,1.82275,2.21875c0.67188,1.39111,0.79199,2.87842,0.79199,3.79004
			C131.76611,8.55029,131.49023,9.8457,130.87842,11.06934z"/>
	</g>
	<g>
		<path class="st6" d="M219.92188,10.09766c-0.44336,0-0.92285-0.02393-1.37891-0.02393c-0.44336,0-0.91113,0.02393-1.34277,0.02393
			c-0.04785,0-0.16797,0-0.16797-0.12012c0-0.22754,0.12012-0.22754,0.28809-0.22754c0.81543,0,0.88672-0.08398,0.99512-0.51563
			l1.61914-6.47656c0.04785-0.19189,0.04785-0.28809,0.04785-0.28809c0-0.13184,0-0.21582-0.70703-0.21582
			c-0.20508,0-0.28809,0-0.28809-0.13184c0-0.21582,0.13184-0.21582,0.22754-0.21582c0.44336,0,0.91211,0.02393,1.36719,0.02393
			c0.44336,0,0.91211-0.02393,1.35547-0.02393c0.04785,0,0.16797,0,0.16797,0.11963c0,0.22803-0.0957,0.22803-0.34766,0.22803
			c-0.71973,0-0.83984,0.08398-0.93555,0.4917l-1.64258,6.59668c-0.02539,0.10791-0.02539,0.13184-0.02539,0.20361
			c0,0.2041,0.34863,0.2041,0.68359,0.2041c0.22852,0,0.3125,0,0.3125,0.11963
			C220.15039,10.09766,220.01855,10.09766,219.92188,10.09766z"/>
		<path class="st6" d="M224.60254,13.10791c-0.13184,0-1.11621-0.7793-1.82324-2.21875
			c-0.62305-1.2832-0.79102-2.71045-0.79102-3.77783c0-1.4751,0.27539-2.7583,0.88672-3.96973
			c0.58789-1.17529,1.57129-2.03906,1.72754-2.03906c0.04785,0,0.1084,0.02393,0.1084,0.09619c0,0.03564,0,0.05957-0.12109,0.16748
			c-1.39063,1.41553-1.95508,3.41846-1.95508,5.74512c0,2.44678,0.67188,4.42578,1.87109,5.63672
			c0.20508,0.2041,0.20508,0.22803,0.20508,0.26416C224.71094,13.08398,224.65039,13.10791,224.60254,13.10791z"/>
		<path class="st6" d="M226.58398,10.21777c-0.82813,0-1.51172-0.41992-1.51172-1.15137c0-0.65967,0.46777-0.70801,0.56348-0.70801
			c0.15527,0,0.37207,0.09619,0.37207,0.34814c0,0,0,0.51563-0.57617,0.53955c0.13281,0.56348,0.73242,0.73145,1.16406,0.73145
			c1.31836,0,1.60645-1.05518,1.60645-1.37891c0-0.65967-0.61133-0.80371-0.91113-0.86377
			c-0.51563-0.11963-0.74414-0.17969-0.94727-0.37158c-0.1084-0.12012-0.33594-0.37207-0.33594-0.81543
			c0-0.51611,0.41992-1.73926,1.85938-1.73926c0.76758,0,1.24609,0.45557,1.24609,1.00732
			c0,0.40771-0.20313,0.62354-0.47852,0.62354c-0.24023,0-0.32422-0.16748-0.32422-0.2998
			c0-0.04785,0.02344-0.40771,0.45508-0.45557c-0.08398-0.38379-0.43164-0.63574-0.92285-0.63574
			c-0.97168,0-1.23535,0.81543-1.23535,1.12744c0,0.53955,0.43164,0.63574,0.75586,0.70752
			c0.5752,0.13184,1.42676,0.32373,1.42676,1.35547C228.79004,8.88623,228.26172,10.21777,226.58398,10.21777z"/>
		<path class="st6" d="M231.47852,11.06934c-0.58789,1.17529-1.57031,2.03857-1.72656,2.03857
			c-0.04785,0-0.10742-0.02393-0.10742-0.0957c0-0.03613,0-0.06006,0.11914-0.16797c1.3916-1.41553,1.95508-3.41846,1.95508-5.74512
			c0-2.44629-0.67188-4.42529-1.87109-5.63672c-0.20313-0.2041-0.20313-0.22803-0.20313-0.26367
			c0-0.07227,0.05957-0.09619,0.10742-0.09619c0.13184,0,1.11523,0.77979,1.82227,2.21875
			c0.67188,1.39111,0.79297,2.87842,0.79297,3.79004C232.36719,8.55029,232.09082,9.8457,231.47852,11.06934z"/>
	</g>
	<g>
		<path class="st6" d="M3.26221,75.21777c-0.50391,0-1.41504-0.19189-1.41504-1.41553c0-0.33545,0.04785-0.76758,0.52734-2.09863
			c0.25195-0.6958,0.37207-1.00732,0.37207-1.30713c0-0.28809-0.13184-0.34814-0.27588-0.34814
			c-0.6958,0-1.00732,1.13965-1.10352,1.49951c-0.04785,0.16748-0.06006,0.20361-0.20361,0.20361
			c-0.06006,0-0.16797,0-0.16797-0.10791c0-0.07178,0.40771-1.83496,1.49902-1.83496c0.58789,0,0.87549,0.45557,0.87549,0.93555
			c0,0.23975-0.06006,0.39551-0.15576,0.68359c-0.27588,0.73145-0.68359,1.84668-0.68359,2.54248
			c0,0.47998,0.16797,1.00732,0.7793,1.00732c1.40332,0,1.95508-3.10596,1.95508-3.41797c0-0.19189-0.03613-0.63574-0.31201-0.95947
			c-0.10791-0.12012-0.13184-0.17969-0.13184-0.2876c0-0.27588,0.2998-0.50391,0.52783-0.50391
			c0.21582,0,0.45557,0.15576,0.45557,0.76758C5.80469,70.88818,5.25293,75.21777,3.26221,75.21777z"/>
		<path class="st6" d="M9.18994,78.10791c-0.13184,0-1.11572-0.7793-1.82324-2.21875c-0.62354-1.2832-0.7915-2.71045-0.7915-3.77783
			c0-1.4751,0.27588-2.7583,0.8877-3.96973c0.5874-1.17529,1.5708-2.03906,1.72705-2.03906
			c0.04785,0,0.10791,0.02393,0.10791,0.09619c0,0.03564,0,0.05957-0.12012,0.16748
			c-1.39111,1.41553-1.95508,3.41846-1.95508,5.74512c0,2.44678,0.67188,4.42578,1.87109,5.63672
			c0.2041,0.2041,0.2041,0.22803,0.2041,0.26416C9.29785,78.08398,9.23779,78.10791,9.18994,78.10791z"/>
		<path class="st6" d="M12.37012,75.21777c-0.65918,0-0.9834-0.50391-0.9834-1.05566c0-0.04785,0-0.19189,0.06006-0.43164
			l0.86377-3.4541h-0.97168c-0.19189,0-0.2876,0-0.2876-0.12012c0-0.22754,0.10791-0.22754,0.32373-0.22754h1.01953l0.46777-1.8833
			c0.04785-0.17969,0.15576-0.44385,0.45557-0.44385c0.22803,0,0.31201,0.18018,0.31201,0.28809
			c0,0-0.01221,0.13184-0.02441,0.15576l-0.47949,1.8833h0.94727c0.2041,0,0.28809,0,0.28809,0.13184
			c0,0.21582-0.12012,0.21582-0.32373,0.21582h-0.99561l-0.89941,3.58594c-0.04785,0.17969-0.09619,0.45557-0.09619,0.63574
			c0,0.39551,0.16797,0.47949,0.34814,0.47949c0.7793,0,1.24707-1.17529,1.39111-1.54688
			c0.06006-0.13184,0.07178-0.15625,0.20361-0.15625c0.04834,0,0.15625,0,0.15625,0.1084
			C14.14551,73.44238,13.5459,75.21777,12.37012,75.21777z"/>
		<path class="st6" d="M17.56641,76.06934c-0.58789,1.17529-1.57129,2.03857-1.72705,2.03857
			c-0.04785,0-0.10791-0.02393-0.10791-0.0957c0-0.03613,0-0.06006,0.12012-0.16797
			c1.39111-1.41553,1.95459-3.41846,1.95459-5.74512c0-2.44629-0.67139-4.42529-1.87061-5.63672
			c-0.2041-0.2041-0.2041-0.22803-0.2041-0.26367c0-0.07227,0.06006-0.09619,0.10791-0.09619
			c0.13184,0,1.11523,0.77979,1.82275,2.21875c0.67188,1.39111,0.79199,2.87842,0.79199,3.79004
			C18.4541,73.55029,18.17822,74.8457,17.56641,76.06934z"/>
	</g>
	<g>
		<path class="st6" d="M107.01465,67.25391c-0.65967,0.07227-0.94775,0.41992-1.29541,0.99561l-4.1499,6.9082
			c-0.0957,0.15576-0.11963,0.19189-0.27588,0.19189c-0.15576,0-0.17969-0.04785-0.20361-0.26416l-0.71973-7.3999
			c-0.03613-0.34766-0.07178-0.43164-0.64746-0.43164c-0.12012,0-0.22803,0-0.22803-0.12012
			c0-0.22754,0.13184-0.22754,0.2041-0.22754c0.37158,0,0.7793,0.02393,1.16309,0.02393c0.40771,0,0.82764-0.02393,1.22314-0.02393
			c0.06006,0,0.16797,0,0.16797,0.13184c0,0.21582-0.10791,0.21582-0.2876,0.21582
			c-0.73145,0.01221-0.70752,0.33594-0.68359,0.55176l0.62354,6.23633l3.59814-6.03223
			c0.03564-0.06006,0.13184-0.22803,0.13184-0.37207c0-0.34766-0.37158-0.37158-0.44385-0.38379
			c-0.06006,0-0.15576-0.01172-0.15576-0.12012c0-0.22754,0.13184-0.22754,0.20361-0.22754
			c0.31201,0,0.65967,0.02393,0.98389,0.02393c0.27588,0,0.59961-0.02393,0.86328-0.02393c0,0,0.14404,0,0.14404,0.11963
			C107.23047,67.22998,107.13428,67.24219,107.01465,67.25391z"/>
		<path class="st6" d="M109.51367,78.10791c-0.13184,0-1.11572-0.7793-1.82324-2.21875
			c-0.62354-1.2832-0.7915-2.71045-0.7915-3.77783c0-1.4751,0.27588-2.7583,0.8877-3.96973
			c0.5874-1.17529,1.5708-2.03906,1.72705-2.03906c0.04785,0,0.10791,0.02393,0.10791,0.09619c0,0.03564,0,0.05957-0.12012,0.16748
			c-1.39111,1.41553-1.95459,3.41846-1.95459,5.74512c0,2.44678,0.67139,4.42578,1.87061,5.63672
			c0.2041,0.2041,0.2041,0.22803,0.2041,0.26416C109.62158,78.08398,109.56152,78.10791,109.51367,78.10791z"/>
		<path class="st6" d="M111.49414,75.21777c-0.82715,0-1.51074-0.41992-1.51074-1.15137c0-0.65967,0.46777-0.70801,0.56348-0.70801
			c0.15576,0,0.37207,0.09619,0.37207,0.34814c0,0,0,0.51563-0.57617,0.53955c0.13232,0.56348,0.73193,0.73145,1.16357,0.73145
			c1.31934,0,1.60693-1.05518,1.60693-1.37891c0-0.65967-0.61133-0.80371-0.91113-0.86377
			c-0.51563-0.11963-0.74365-0.17969-0.94775-0.37158c-0.10791-0.12012-0.33545-0.37207-0.33545-0.81543
			c0-0.51611,0.41943-1.73926,1.85889-1.73926c0.76758,0,1.24707,0.45557,1.24707,1.00732
			c0,0.40771-0.20361,0.62354-0.47949,0.62354c-0.24023,0-0.32373-0.16748-0.32373-0.2998
			c0-0.04785,0.02393-0.40771,0.45557-0.45557c-0.08398-0.38379-0.43164-0.63574-0.92334-0.63574
			c-0.97168,0-1.23535,0.81543-1.23535,1.12744c0,0.53955,0.43164,0.63574,0.75537,0.70752
			c0.57568,0.13184,1.42725,0.32373,1.42725,1.35547C113.70117,73.88623,113.17334,75.21777,111.49414,75.21777z"/>
		<path class="st6" d="M116.39063,76.06934c-0.58789,1.17529-1.57129,2.03857-1.72705,2.03857
			c-0.04785,0-0.10791-0.02393-0.10791-0.0957c0-0.03613,0-0.06006,0.12012-0.16797
			c1.39111-1.41553,1.95459-3.41846,1.95459-5.74512c0-2.44629-0.67139-4.42529-1.87061-5.63672
			c-0.2041-0.2041-0.2041-0.22803-0.2041-0.26367c0-0.07227,0.06006-0.09619,0.10791-0.09619
			c0.13184,0,1.11523,0.77979,1.82275,2.21875c0.67188,1.39111,0.79199,2.87842,0.79199,3.79004
			C117.27832,73.55029,117.00244,74.8457,116.39063,76.06934z"/>
	</g>
	<g>
		<path class="st6" d="M208.01465,67.25391c-0.65918,0.07227-0.94824,0.41992-1.2959,0.99561l-4.14941,6.9082
			c-0.0957,0.15576-0.12012,0.19189-0.27637,0.19189c-0.15527,0-0.17969-0.04785-0.20313-0.26416l-0.71973-7.3999
			c-0.03613-0.34766-0.07129-0.43164-0.64746-0.43164c-0.12012,0-0.22852,0-0.22852-0.12012
			c0-0.22754,0.13281-0.22754,0.20508-0.22754c0.37109,0,0.7793,0.02393,1.16211,0.02393c0.4082,0,0.82813-0.02393,1.22363-0.02393
			c0.05957,0,0.16797,0,0.16797,0.13184c0,0.21582-0.1084,0.21582-0.28809,0.21582
			c-0.73047,0.01221-0.70703,0.33594-0.68359,0.55176l0.62402,6.23633l3.59863-6.03223
			c0.03516-0.06006,0.13086-0.22803,0.13086-0.37207c0-0.34766-0.37109-0.37158-0.44336-0.38379
			c-0.06055,0-0.15625-0.01172-0.15625-0.12012c0-0.22754,0.13281-0.22754,0.2041-0.22754c0.31152,0,0.65918,0.02393,0.9834,0.02393
			c0.27637,0,0.59961-0.02393,0.86328-0.02393c0,0,0.14453,0,0.14453,0.11963
			C208.23047,67.22998,208.13477,67.24219,208.01465,67.25391z"/>
		<path class="st6" d="M210.51367,78.10791c-0.13184,0-1.11523-0.7793-1.82324-2.21875
			c-0.62402-1.2832-0.79199-2.71045-0.79199-3.77783c0-1.4751,0.27637-2.7583,0.88867-3.96973
			c0.58691-1.17529,1.57031-2.03906,1.72656-2.03906c0.04785,0,0.10742,0.02393,0.10742,0.09619
			c0,0.03564,0,0.05957-0.11914,0.16748c-1.3916,1.41553-1.95508,3.41846-1.95508,5.74512
			c0,2.44678,0.67188,4.42578,1.87109,5.63672c0.20313,0.2041,0.20313,0.22803,0.20313,0.26416
			C210.62109,78.08398,210.56152,78.10791,210.51367,78.10791z"/>
		<path class="st6" d="M212.49414,75.21777c-0.82715,0-1.51074-0.41992-1.51074-1.15137c0-0.65967,0.46777-0.70801,0.56348-0.70801
			c0.15625,0,0.37207,0.09619,0.37207,0.34814c0,0,0,0.51563-0.57617,0.53955c0.13184,0.56348,0.73145,0.73145,1.16309,0.73145
			c1.32031,0,1.60742-1.05518,1.60742-1.37891c0-0.65967-0.61133-0.80371-0.91113-0.86377
			c-0.51563-0.11963-0.74316-0.17969-0.94824-0.37158c-0.10742-0.12012-0.33496-0.37207-0.33496-0.81543
			c0-0.51611,0.41895-1.73926,1.8584-1.73926c0.76758,0,1.24805,0.45557,1.24805,1.00732c0,0.40771-0.2041,0.62354-0.48047,0.62354
			c-0.24023,0-0.32324-0.16748-0.32324-0.2998c0-0.04785,0.02441-0.40771,0.45605-0.45557
			c-0.08398-0.38379-0.43164-0.63574-0.92383-0.63574c-0.97168,0-1.23535,0.81543-1.23535,1.12744
			c0,0.53955,0.43164,0.63574,0.75488,0.70752c0.57617,0.13184,1.42773,0.32373,1.42773,1.35547
			C214.70117,73.88623,214.17383,75.21777,212.49414,75.21777z"/>
		<path class="st6" d="M217.39063,76.06934c-0.58789,1.17529-1.57129,2.03857-1.72656,2.03857
			c-0.04883,0-0.1084-0.02393-0.1084-0.0957c0-0.03613,0-0.06006,0.12012-0.16797c1.39063-1.41553,1.95508-3.41846,1.95508-5.74512
			c0-2.44629-0.67188-4.42529-1.87109-5.63672c-0.2041-0.2041-0.2041-0.22803-0.2041-0.26367
			c0-0.07227,0.05957-0.09619,0.1084-0.09619c0.13086,0,1.11523,0.77979,1.82227,2.21875
			c0.67188,1.39111,0.79199,2.87842,0.79199,3.79004C218.27832,73.55029,218.00195,74.8457,217.39063,76.06934z"/>
	</g>
	<g>
		<path class="st6" d="M45.26221,54.21777c-0.50391,0-1.41504-0.19189-1.41504-1.41553c0-0.33545,0.04785-0.76758,0.52734-2.09863
			c0.25195-0.6958,0.37207-1.00732,0.37207-1.30713c0-0.28809-0.13184-0.34814-0.27588-0.34814
			c-0.6958,0-1.00732,1.13965-1.10352,1.49951c-0.04785,0.16748-0.06006,0.20361-0.20361,0.20361
			c-0.06006,0-0.16797,0-0.16797-0.10791c0-0.07178,0.40771-1.83496,1.49902-1.83496c0.58789,0,0.87549,0.45557,0.87549,0.93555
			c0,0.23975-0.06006,0.39551-0.15576,0.68359c-0.27588,0.73145-0.68359,1.84668-0.68359,2.54248
			c0,0.47998,0.16797,1.00732,0.7793,1.00732c1.40332,0,1.95508-3.10596,1.95508-3.41797c0-0.19189-0.03613-0.63574-0.31201-0.95947
			c-0.10791-0.12012-0.13184-0.17969-0.13184-0.2876c0-0.27588,0.2998-0.50391,0.52783-0.50391
			c0.21582,0,0.45557,0.15576,0.45557,0.76758C47.80469,49.88818,47.25293,54.21777,45.26221,54.21777z"/>
		<path class="st6" d="M51.18994,57.10791c-0.13184,0-1.11572-0.7793-1.82324-2.21875
			c-0.62354-1.2832-0.7915-2.71045-0.7915-3.77783c0-1.4751,0.27588-2.7583,0.8877-3.96973
			c0.5874-1.17529,1.5708-2.03906,1.72705-2.03906c0.04785,0,0.10791,0.02393,0.10791,0.09619c0,0.03564,0,0.05957-0.12012,0.16748
			c-1.39111,1.41553-1.95508,3.41846-1.95508,5.74512c0,2.44678,0.67188,4.42578,1.87109,5.63672
			c0.2041,0.2041,0.2041,0.22803,0.2041,0.26416C51.29785,57.08398,51.23779,57.10791,51.18994,57.10791z"/>
		<path class="st6" d="M56.88916,53.03027c-0.34814,0.6958-0.94775,1.31934-1.99121,1.31934
			c-0.62354,0-1.45117-0.28809-1.91895-1.19922c-0.43164-0.85156-0.51563-1.72705-0.51563-2.89063
			c0-1.29541,0.12012-2.03906,0.45557-2.79443c0.44385-0.99561,1.29541-1.34326,1.99121-1.34326
			c0.5874,0,1.45117,0.26367,1.94287,1.25928c0.43164,0.91162,0.4917,1.88281,0.4917,2.87842
			C57.34473,50.95557,57.3208,52.13086,56.88916,53.03027z M56.27734,47.66895c-0.22803-1.03125-0.92334-1.30713-1.37939-1.30713
			c-0.51563,0-1.12744,0.37207-1.33105,1.17529C53.375,48.24512,53.375,49.13232,53.375,50.11572
			c0,0.83984,0,1.75098,0.13184,2.4707c0.22803,1.30713,1.00732,1.52344,1.39111,1.52344c0.41992,0,1.17529-0.22803,1.40332-1.54736
			c0.13184-0.73145,0.13184-1.64307,0.13184-2.44678C56.43311,49.30029,56.43311,48.35303,56.27734,47.66895z"/>
		<path class="st6" d="M60.34619,55.06934c-0.58789,1.17529-1.57129,2.03857-1.72705,2.03857
			c-0.04785,0-0.10791-0.02393-0.10791-0.0957c0-0.03613,0-0.06006,0.12012-0.16797
			c1.39111-1.41553,1.95459-3.41846,1.95459-5.74512c0-2.44629-0.67139-4.42529-1.87109-5.63672
			c-0.20361-0.2041-0.20361-0.22803-0.20361-0.26367c0-0.07227,0.06006-0.09619,0.10791-0.09619
			c0.13184,0,1.11523,0.77979,1.82324,2.21875c0.67139,1.39111,0.7915,2.87842,0.7915,3.79004
			C61.23389,52.55029,60.95801,53.8457,60.34619,55.06934z"/>
	</g>
	<g>
		<path class="st6" d="M34.22998,83.02588c-0.06006,0-0.15576,0-0.15576-0.10791v-0.10791
			c0.03564-0.17969,0.05957-0.45557,0.05957-0.63574c0-0.52783-0.14355-2.19482-1.69092-2.19482
			c-1.10352,0-2.19482,0.77979-2.80664,1.60742c-1.16309,1.60693-1.29492,3.65771-1.29492,3.99365
			c0,1.63135,0.9834,2.39893,2.07471,2.39893c1.11523,0,2.51855-0.93555,3.05811-2.77051
			c0.03613-0.1084,0.08398-0.12012,0.18018-0.12012c0.07178,0,0.16797,0,0.16797,0.10791c0,0-0.19189,1.07959-1.23535,2.11084
			c-0.09619,0.08398-1.04346,1.01953-2.35059,1.01953c-1.52344,0-2.84277-1.12744-2.84277-3.1665
			c0-2.84229,2.54297-5.52881,4.96533-5.52881c0.77979,0,1.39111,0.35986,1.7749,1.06738l0.77979-0.95947
			c0.08398-0.10791,0.15576-0.10791,0.15576-0.10791s0.10791,0,0.10791,0.10791c0,0-0.01172,0.12012-0.02393,0.15576
			l-0.73145,2.92676C34.37402,83.01416,34.34961,83.02588,34.22998,83.02588z"/>
	</g>
	<line class="st2" x1="49.92188" y1="82.76074" x2="54.92188" y2="82.76074"/>
	<line class="st2" x1="49.92188" y1="62.76074" x2="54.92188" y2="62.76074"/>
	<line class="st2" x1="52.42188" y1="65.26074" x2="52.42188" y2="60.26074"/>
	<g>
		<path id="path2791_2_" class="st1" d="M239.92188,47.76074v21.875"/>
		<path id="path2793_2_" class="st1" d="M239.92188,75.88574v21.875"/>
		<path id="path2795_2_" class="st4" d="M252.42188,69.63574h-25"/>
		<path id="path2797_2_" class="st4" d="M252.42188,75.88574h-25"/>
	</g>
	<line class="st2" x1="249.92188" y1="82.76074" x2="254.92188" y2="82.76074"/>
	<line class="st2" x1="249.92188" y1="62.76074" x2="254.92188" y2="62.76074"/>
	<line class="st2" x1="252.42188" y1="65.26074" x2="252.42188" y2="60.26074"/>
	<g>
		<g>
			<line class="st7" x1="157.92188" y1="100.26074" x2="171.92188" y2="100.26074"/>
		</g>
		<g>
			<path class="st6" d="M157.97217,96.06494c-0.50391,0-1.41504-0.19189-1.41504-1.41553c0-0.33545,0.04785-0.76758,0.52734-2.09863
				c0.25195-0.6958,0.37207-1.00732,0.37207-1.30713c0-0.28809-0.13184-0.34814-0.27588-0.34814
				c-0.6958,0-1.00732,1.13965-1.10352,1.49951c-0.04785,0.16748-0.06006,0.20361-0.20361,0.20361
				c-0.06006,0-0.16797,0-0.16797-0.10791c0-0.07178,0.40771-1.83496,1.49902-1.83496c0.58789,0,0.87549,0.45557,0.87549,0.93555
				c0,0.23975-0.06006,0.39551-0.15576,0.68359c-0.27588,0.73145-0.68359,1.84668-0.68359,2.54248
				c0,0.47998,0.16797,1.00732,0.7793,1.00732c1.40332,0,1.95508-3.10596,1.95508-3.41797
				c0-0.19189-0.03613-0.63574-0.31201-0.95947c-0.10791-0.12012-0.13184-0.17969-0.13184-0.2876
				c0-0.27588,0.2998-0.50391,0.52783-0.50391c0.21582,0,0.45557,0.15576,0.45557,0.76758
				C160.51465,91.73535,159.96289,96.06494,157.97217,96.06494z"/>
			<path class="st6" d="M163.8999,98.95508c-0.13184,0-1.11572-0.7793-1.82324-2.21875
				c-0.62354-1.2832-0.7915-2.71045-0.7915-3.77783c0-1.4751,0.27588-2.7583,0.8877-3.96973
				c0.5874-1.17529,1.5708-2.03906,1.72705-2.03906c0.04785,0,0.10791,0.02393,0.10791,0.09619c0,0.03564,0,0.05957-0.12012,0.16748
				c-1.39111,1.41553-1.95508,3.41846-1.95508,5.74512c0,2.44678,0.67188,4.42578,1.87109,5.63672
				c0.2041,0.2041,0.2041,0.22803,0.2041,0.26416C164.00781,98.93115,163.94775,98.95508,163.8999,98.95508z"/>
			<path class="st6" d="M169.59912,94.87744c-0.34814,0.6958-0.94775,1.31934-1.99121,1.31934
				c-0.62354,0-1.45117-0.28809-1.91895-1.19922c-0.43164-0.85156-0.51563-1.72705-0.51563-2.89063
				c0-1.29541,0.12012-2.03906,0.45557-2.79443c0.44385-0.99561,1.29541-1.34326,1.99121-1.34326
				c0.5874,0,1.45117,0.26367,1.94287,1.25928c0.43164,0.91162,0.4917,1.88281,0.4917,2.87842
				C170.05469,92.80273,170.03076,93.97803,169.59912,94.87744z M168.9873,89.51611
				c-0.22803-1.03125-0.92334-1.30713-1.37939-1.30713c-0.51563,0-1.12744,0.37207-1.33105,1.17529
				c-0.19189,0.70801-0.19189,1.59521-0.19189,2.57861c0,0.83984,0,1.75098,0.13184,2.4707
				c0.22803,1.30713,1.00732,1.52344,1.39111,1.52344c0.41992,0,1.17529-0.22803,1.40332-1.54736
				c0.13184-0.73145,0.13184-1.64307,0.13184-2.44678C169.14307,91.14746,169.14307,90.2002,168.9873,89.51611z"/>
			<path class="st6" d="M173.05615,96.9165c-0.58789,1.17529-1.57129,2.03857-1.72705,2.03857
				c-0.04785,0-0.10791-0.02393-0.10791-0.0957c0-0.03613,0-0.06006,0.12012-0.16797
				c1.39111-1.41553,1.95459-3.41846,1.95459-5.74512c0-2.44629-0.67139-4.42529-1.87109-5.63672
				c-0.20361-0.2041-0.20361-0.22803-0.20361-0.26367c0-0.07227,0.06006-0.09619,0.10791-0.09619
				c0.13184,0,1.11523,0.77979,1.82324,2.21875c0.67139,1.39111,0.7915,2.87842,0.7915,3.79004
				C173.94385,94.39746,173.66797,95.69287,173.05615,96.9165z"/>
		</g>
		<g>
			<path class="st6" d="M164.85449,108.90771c-0.82715,0-1.51074-0.41992-1.51074-1.15137
				c0-0.65967,0.46777-0.70801,0.56348-0.70801c0.15625,0,0.37207,0.09619,0.37207,0.34814c0,0,0,0.51563-0.57617,0.53955
				c0.13184,0.56348,0.73145,0.73145,1.16406,0.73145c1.31836,0,1.60645-1.05518,1.60645-1.37891
				c0-0.65967-0.61133-0.80371-0.91113-0.86377c-0.51563-0.11963-0.74414-0.17969-0.94727-0.37158
				c-0.1084-0.12012-0.33594-0.37207-0.33594-0.81543c0-0.51611,0.41992-1.73926,1.8584-1.73926
				c0.76758,0,1.24805,0.45557,1.24805,1.00732c0,0.40771-0.2041,0.62354-0.48047,0.62354
				c-0.23926,0-0.32324-0.16748-0.32324-0.2998c0-0.04785,0.02344-0.40771,0.45508-0.45557
				c-0.08398-0.38379-0.43164-0.63574-0.92285-0.63574c-0.97168,0-1.23535,0.81543-1.23535,1.12744
				c0,0.53955,0.43164,0.63574,0.75586,0.70752c0.5752,0.13184,1.42676,0.32373,1.42676,1.35547
				C167.06152,107.57617,166.53418,108.90771,164.85449,108.90771z"/>
		</g>
	</g>
	<g>
		<path class="st6" d="M313.61133,71.04834c-0.06055,0-0.15625,0-0.15625-0.10791v-0.10791
			c0.03613-0.17969,0.06055-0.45557,0.06055-0.63574c0-0.52783-0.14453-2.19482-1.69141-2.19482
			c-1.10352,0-2.19531,0.77979-2.80664,1.60742c-1.16309,1.60693-1.29492,3.65771-1.29492,3.99365
			c0,1.63135,0.9834,2.39893,2.07422,2.39893c1.11523,0,2.51953-0.93555,3.05859-2.77051
			c0.03613-0.1084,0.08398-0.12012,0.17969-0.12012c0.07227,0,0.16797,0,0.16797,0.10791c0,0-0.19141,1.07959-1.23438,2.11084
			c-0.09668,0.08398-1.04395,1.01953-2.35156,1.01953c-1.52344,0-2.8418-1.12744-2.8418-3.1665
			c0-2.84229,2.54199-5.52881,4.96484-5.52881c0.7793,0,1.39063,0.35986,1.77539,1.06738l0.7793-0.95947
			c0.08398-0.10791,0.15625-0.10791,0.15625-0.10791s0.10742,0,0.10742,0.10791c0,0-0.01172,0.12012-0.02344,0.15576
			l-0.73242,2.92676C313.75586,71.03662,313.73145,71.04834,313.61133,71.04834z"/>
		<path class="st6" d="M316.66211,76.21777c-0.50391,0-1.41504-0.19189-1.41504-1.41553c0-0.33545,0.04785-0.76758,0.52734-2.09863
			c0.25195-0.6958,0.37207-1.00732,0.37207-1.30713c0-0.28809-0.13184-0.34814-0.27539-0.34814
			c-0.69629,0-1.00781,1.13965-1.10352,1.49951c-0.04883,0.16748-0.06055,0.20361-0.2041,0.20361
			c-0.05957,0-0.16797,0-0.16797-0.10791c0-0.07178,0.40723-1.83496,1.49902-1.83496c0.58789,0,0.875,0.45557,0.875,0.93555
			c0,0.23975-0.05957,0.39551-0.15527,0.68359c-0.27637,0.73145-0.68359,1.84668-0.68359,2.54248
			c0,0.47998,0.16797,1.00732,0.7793,1.00732c1.40332,0,1.95508-3.10596,1.95508-3.41797c0-0.19189-0.03613-0.63574-0.31152-0.95947
			c-0.1084-0.12012-0.13281-0.17969-0.13281-0.2876c0-0.27588,0.30078-0.50391,0.52832-0.50391
			c0.21582,0,0.45605,0.15576,0.45605,0.76758C319.20508,71.88818,318.65234,76.21777,316.66211,76.21777z"/>
		<path class="st6" d="M322.58984,79.10791c-0.13184,0-1.11523-0.7793-1.82324-2.21875
			c-0.62402-1.2832-0.79199-2.71045-0.79199-3.77783c0-1.4751,0.27637-2.7583,0.88867-3.96973
			c0.58691-1.17529,1.57031-2.03906,1.72656-2.03906c0.04785,0,0.10742,0.02393,0.10742,0.09619
			c0,0.03564,0,0.05957-0.11914,0.16748c-1.3916,1.41553-1.95508,3.41846-1.95508,5.74512
			c0,2.44678,0.67188,4.42578,1.87109,5.63672c0.20313,0.2041,0.20313,0.22803,0.20313,0.26416
			C322.69727,79.08398,322.6377,79.10791,322.58984,79.10791z"/>
		<path class="st6" d="M328.28906,75.03027c-0.34766,0.6958-0.94727,1.31934-1.99023,1.31934
			c-0.62402,0-1.45117-0.28809-1.91992-1.19922c-0.43164-0.85156-0.51563-1.72705-0.51563-2.89063
			c0-1.29541,0.12109-2.03906,0.45605-2.79443c0.44434-0.99561,1.2959-1.34326,1.99121-1.34326
			c0.58789,0,1.45117,0.26367,1.94336,1.25928c0.43164,0.91162,0.49121,1.88281,0.49121,2.87842
			C328.74512,72.95557,328.7207,74.13086,328.28906,75.03027z M327.67773,69.66895
			c-0.22852-1.03125-0.92383-1.30713-1.37891-1.30713c-0.51563,0-1.12793,0.37207-1.33203,1.17529
			c-0.19141,0.70801-0.19141,1.59521-0.19141,2.57861c0,0.83984,0,1.75098,0.13184,2.4707
			c0.22754,1.30713,1.00684,1.52344,1.3916,1.52344c0.41992,0,1.1748-0.22803,1.40234-1.54736
			c0.13281-0.73145,0.13281-1.64307,0.13281-2.44678C327.83398,71.30029,327.83398,70.35303,327.67773,69.66895z"/>
		<path class="st6" d="M331.74609,77.06934c-0.58789,1.17529-1.57031,2.03857-1.72656,2.03857
			c-0.04785,0-0.10742-0.02393-0.10742-0.0957c0-0.03613,0-0.06006,0.11914-0.16797c1.3916-1.41553,1.95508-3.41846,1.95508-5.74512
			c0-2.44629-0.67188-4.42529-1.87109-5.63672c-0.20313-0.2041-0.20313-0.22803-0.20313-0.26367
			c0-0.07227,0.05957-0.09619,0.10742-0.09619c0.13184,0,1.11523,0.77979,1.82324,2.21875
			c0.6709,1.39111,0.79199,2.87842,0.79199,3.79004C332.63477,74.55029,332.3584,75.8457,331.74609,77.06934z"/>
	</g>
	<g>
		<g>
			<line class="st7" x1="158.92188" y1="47.26074" x2="172.92188" y2="47.26074"/>
		</g>
		<g>
			<path class="st6" d="M166.02832,44.9209c-0.396,0-1.55908,0-1.88281,0.02393v-0.34766h0.37158
				c1.05566,0,1.09131-0.14404,1.09131-0.57568v-6.24854c-0.65967,0.31152-1.25928,0.31152-1.53516,0.31152v-0.34766
				c1.23535,0,1.83496-0.44385,2.12305-0.76758c0.23975,0,0.23975,0.01172,0.23975,0.2876v6.76465
				c0,0.43164,0.03613,0.57568,1.09131,0.57568h0.37207v0.34766C167.5752,44.9209,166.42383,44.9209,166.02832,44.9209z"/>
		</g>
		<g>
			<path class="st6" d="M161.13818,56.90771c-0.82715,0-1.51074-0.41992-1.51074-1.15137c0-0.65967,0.46777-0.70801,0.56348-0.70801
				c0.15625,0,0.37207,0.09619,0.37207,0.34814c0,0,0,0.51563-0.57617,0.53955c0.13184,0.56348,0.73145,0.73145,1.16406,0.73145
				c1.31836,0,1.60645-1.05518,1.60645-1.37891c0-0.65967-0.61133-0.80371-0.91113-0.86377
				c-0.51563-0.11963-0.74414-0.17969-0.94727-0.37158c-0.1084-0.12012-0.33594-0.37207-0.33594-0.81543
				c0-0.51611,0.41992-1.73926,1.8584-1.73926c0.76758,0,1.24805,0.45557,1.24805,1.00732c0,0.40771-0.2041,0.62354-0.48047,0.62354
				c-0.23926,0-0.32324-0.16748-0.32324-0.2998c0-0.04785,0.02344-0.40771,0.45508-0.45557
				c-0.08398-0.38379-0.43164-0.63574-0.92285-0.63574c-0.97168,0-1.23535,0.81543-1.23535,1.12744
				c0,0.53955,0.43164,0.63574,0.75586,0.70752c0.5752,0.13184,1.42676,0.32373,1.42676,1.35547
				C163.34521,55.57617,162.81787,56.90771,161.13818,56.90771z"/>
			<path class="st6" d="M172.15088,51.73828c-0.05957,0-0.15625,0-0.15625-0.10791v-0.10791
				c0.03613-0.17969,0.06055-0.45557,0.06055-0.63574c0-0.52783-0.14453-2.19482-1.69141-2.19482
				c-1.10352,0-2.19434,0.77979-2.80664,1.60742c-1.16309,1.60693-1.29492,3.65771-1.29492,3.99365
				c0,1.63135,0.9834,2.39893,2.07422,2.39893c1.11621,0,2.51953-0.93555,3.05859-2.77051
				c0.03613-0.1084,0.08398-0.12012,0.17969-0.12012c0.07227,0,0.16797,0,0.16797,0.10791c0,0-0.19141,1.07959-1.23535,2.11084
				c-0.0957,0.08398-1.04297,1.01953-2.35059,1.01953c-1.52246,0-2.8418-1.12744-2.8418-3.1665
				c0-2.84229,2.54199-5.52881,4.96484-5.52881c0.7793,0,1.3916,0.35986,1.77539,1.06738l0.7793-0.95947
				c0.08398-0.10791,0.15625-0.10791,0.15625-0.10791s0.10742,0,0.10742,0.10791c0,0-0.01172,0.12012-0.02344,0.15576
				l-0.73242,2.92676C172.29443,51.72656,172.271,51.73828,172.15088,51.73828z"/>
		</g>
	</g>
	<g>
		<g>
			<line class="st7" x1="245.92188" y1="46.26074" x2="259.92188" y2="46.26074"/>
		</g>
		<g>
			<path class="st6" d="M253.02832,43.9209c-0.39551,0-1.55957,0-1.88281,0.02393v-0.34766h0.37207
				c1.05469,0,1.09082-0.14404,1.09082-0.57568v-6.24854c-0.65918,0.31152-1.25879,0.31152-1.53516,0.31152v-0.34766
				c1.23535,0,1.83496-0.44385,2.12305-0.76758c0.23926,0,0.23926,0.01172,0.23926,0.2876v6.76465
				c0,0.43164,0.03711,0.57568,1.0918,0.57568h0.37207v0.34766C254.5752,43.9209,253.42383,43.9209,253.02832,43.9209z"/>
		</g>
		<g>
			<path class="st6" d="M248.13867,55.90771c-0.82813,0-1.51172-0.41992-1.51172-1.15137c0-0.65967,0.46875-0.70801,0.56445-0.70801
				c0.15625,0,0.37109,0.09619,0.37109,0.34814c0,0,0,0.51563-0.57617,0.53955c0.13281,0.56348,0.73242,0.73145,1.16406,0.73145
				c1.31836,0,1.60742-1.05518,1.60742-1.37891c0-0.65967-0.61133-0.80371-0.91211-0.86377
				c-0.51563-0.11963-0.74414-0.17969-0.94727-0.37158c-0.10742-0.12012-0.33594-0.37207-0.33594-0.81543
				c0-0.51611,0.41992-1.73926,1.85938-1.73926c0.76758,0,1.24805,0.45557,1.24805,1.00732
				c0,0.40771-0.20508,0.62354-0.48047,0.62354c-0.24023,0-0.32422-0.16748-0.32422-0.2998
				c0-0.04785,0.02344-0.40771,0.45508-0.45557c-0.08398-0.38379-0.43164-0.63574-0.92188-0.63574
				c-0.97266,0-1.23633,0.81543-1.23633,1.12744c0,0.53955,0.43164,0.63574,0.75586,0.70752
				c0.57617,0.13184,1.42773,0.32373,1.42773,1.35547C250.3457,54.57617,249.81836,55.90771,248.13867,55.90771z"/>
			<path class="st6" d="M259.15039,50.73828c-0.05859,0-0.15625,0-0.15625-0.10791v-0.10791
				c0.03711-0.17969,0.06055-0.45557,0.06055-0.63574c0-0.52783-0.14453-2.19482-1.69141-2.19482
				c-1.10352,0-2.19336,0.77979-2.80664,1.60742c-1.16211,1.60693-1.29492,3.65771-1.29492,3.99365
				c0,1.63135,0.98438,2.39893,2.07422,2.39893c1.11719,0,2.51953-0.93555,3.05859-2.77051
				c0.03711-0.1084,0.08398-0.12012,0.17969-0.12012c0.07227,0,0.16797,0,0.16797,0.10791c0,0-0.19141,1.07959-1.23438,2.11084
				c-0.0957,0.08398-1.04297,1.01953-2.35156,1.01953c-1.52148,0-2.8418-1.12744-2.8418-3.1665
				c0-2.84229,2.54297-5.52881,4.96484-5.52881c0.7793,0,1.39258,0.35986,1.77539,1.06738l0.7793-0.95947
				c0.08398-0.10791,0.15625-0.10791,0.15625-0.10791s0.10742,0,0.10742,0.10791c0,0-0.01172,0.12012-0.02344,0.15576
				l-0.73242,2.92676C259.29492,50.72656,259.27148,50.73828,259.15039,50.73828z"/>
		</g>
	</g>
	<g>
	</g>
	<g>
	</g>
	<g>
	</g>
	<g>
	</g>
	<g>
	</g>
	<g>
	</g>
	<g>
	</g>
	<g>
	</g>
	<g>
	</g>
	<g>
	</g>
	<g>
	</g>
	<g>
	</g>
</g>
</svg>
