<?xml version="1.0" encoding="utf-8"?>
<!-- Generator: Adobe Illustrator 23.0.3, SVG Export Plug-In . SVG Version: 6.00 Build 0)  -->
<svg version="1.1" id="Layer_1" xmlns="http://www.w3.org/2000/svg" xmlns:xlink="http://www.w3.org/1999/xlink" x="0px" y="0px"
	 viewBox="0 0 214.5 96.4248" style="enable-background:new 0 0 214.5 96.4248;" xml:space="preserve">
<style type="text/css">
	.st0{fill:none;stroke:#8FF4DD;stroke-width:2;stroke-linecap:round;}
	.st1{fill:none;stroke:#8FF4DD;stroke-width:2;stroke-linecap:square;}
	.st2{fill:none;stroke:#8FF4DD;stroke-width:2;stroke-linecap:round;stroke-linejoin:round;}
	.st3{fill:none;stroke:#8FF4DD;stroke-width:2;stroke-linecap:round;stroke-linejoin:round;stroke-dasharray:5,5;}
	.st4{fill:#8FF4DD;}
	.st5{fill:none;stroke:#FD1D53;stroke-miterlimit:10;}
	.st6{fill:#FD1D53;}
</style>
<g>
	<g>
		<path id="path2791" class="st0" d="M201,13.67383v21.875"/>
		<path id="path2793" class="st0" d="M201,41.79883v21.875"/>
		<path id="path2795" class="st1" d="M213.5,35.54883h-25"/>
		<path id="path2797" class="st1" d="M213.5,41.79883h-25"/>
	</g>
	<g>
		<path id="path2791_1_" class="st0" d="M26,13.5h21.875"/>
		<path id="path2793_1_" class="st0" d="M54.125,13.5H76"/>
		<path id="path2795_1_" class="st1" d="M47.875,1v25"/>
		<path id="path2797_1_" class="st1" d="M54.125,1v25"/>
	</g>
	<g>
		<path id="path2791_2_" class="st0" d="M101,13.5h21.875"/>
		<path id="path2793_2_" class="st0" d="M129.125,13.5H151"/>
		<path id="path2795_2_" class="st1" d="M122.875,1v25"/>
		<path id="path2797_2_" class="st1" d="M129.125,1v25"/>
	</g>
</g>
<g>
	<line class="st2" x1="76" y1="13.49997" x2="101" y2="13.49997"/>
	<line class="st2" x1="151" y1="13.49997" x2="161" y2="13.5"/>
	<line class="st2" x1="201" y1="13.49997" x2="191" y2="13.5"/>
	<g>
		<g>
			<line class="st2" x1="161" y1="13.5" x2="163.5" y2="13.5"/>
			<line class="st3" x1="168.5" y1="13.5" x2="186" y2="13.5"/>
			<line class="st2" x1="188.5" y1="13.5" x2="191" y2="13.5"/>
		</g>
	</g>
	<line class="st0" x1="1" y1="13.5" x2="26" y2="13.49997"/>
	<g>
		<path class="st4" d="M181.44824,34.74072c-0.06006,0-0.15576,0-0.15576-0.10791V34.5249
			c0.03564-0.17969,0.05957-0.45557,0.05957-0.63574c0-0.52734-0.14355-2.19482-1.69092-2.19482
			c-1.10352,0-2.19482,0.77979-2.80664,1.60742c-1.16309,1.60693-1.29492,3.65771-1.29492,3.99365
			c0,1.63086,0.9834,2.39844,2.07471,2.39844c1.11523,0,2.51855-0.93506,3.05811-2.77002
			c0.03613-0.10791,0.08398-0.12012,0.18018-0.12012c0.07178,0,0.16797,0,0.16797,0.10791c0,0-0.19189,1.07959-1.23535,2.11084
			c-0.09619,0.08398-1.04346,1.01953-2.35059,1.01953c-1.52344,0-2.84277-1.12744-2.84277-3.1665
			c0-2.84229,2.54248-5.52881,4.96533-5.52881c0.77979,0,1.39111,0.35986,1.7749,1.06738l0.77979-0.95947
			c0.08398-0.10791,0.15576-0.10791,0.15576-0.10791s0.10791,0,0.10791,0.10791c0,0-0.01172,0.12012-0.02393,0.15576
			l-0.73145,2.92676C181.59229,34.729,181.56836,34.74072,181.44824,34.74072z"/>
		<g>
			<path class="st4" d="M183.7041,44.1084c-0.28613,0-0.50293-0.20996-0.50293-0.5459c0-0.14648,0.02734-0.20898,0.09082-0.38379
				c0.11816-0.34277,0.42578-1.18164,0.42578-1.61426c0-0.11914,0-0.46875-0.32129-0.46875
				c-0.6709,0-1.04785,0.89453-1.08984,1.04883l-0.42676,1.71875c-0.02734,0.11914-0.09766,0.24512-0.25879,0.24512
				c-0.125,0-0.18164-0.08398-0.18164-0.16797c0-0.02832,0-0.03516,0.02832-0.13281l0.50977-2.04102
				c0.02832-0.09766,0.05664-0.25098,0.05664-0.38379c0-0.08398,0-0.28711-0.18164-0.28711
				c-0.23828,0-0.37109,0.41211-0.47559,0.8252c-0.04199,0.16016-0.04883,0.16699-0.12598,0.16699
				c-0.0625,0-0.09766-0.01367-0.09766-0.06934c0,0,0.09082-0.43359,0.22363-0.69238
				c0.14648-0.2998,0.32813-0.37012,0.48926-0.37012c0.32129,0,0.53809,0.25195,0.55859,0.56641
				c0.23145-0.31445,0.55957-0.56641,0.99316-0.56641c0.53809,0,0.69824,0.34277,0.69824,0.71289
				c0,0.40527-0.2373,1.05566-0.41895,1.56543c-0.05566,0.13965-0.13281,0.35645-0.13281,0.52441
				c0,0.16016,0.05566,0.20898,0.16016,0.20898c0.3916,0,0.58008-0.62891,0.64355-0.86621
				c0.02734-0.10449,0.03516-0.12598,0.11914-0.12598c0.02734,0,0.09082,0,0.09082,0.06348
				C184.57813,43.06641,184.35449,44.1084,183.7041,44.1084z"/>
		</g>
	</g>
	<g>
		<path class="st4" d="M11.99316,83.91113c-0.05957,0-0.15527,0-0.15527-0.10791v-0.10791
			c0.03516-0.17969,0.05957-0.45557,0.05957-0.63574c0-0.52734-0.14355-2.19482-1.69141-2.19482
			c-1.10352,0-2.19434,0.77979-2.80664,1.60742c-1.16309,1.60693-1.29492,3.65771-1.29492,3.99365
			c0,1.63086,0.9834,2.39844,2.0752,2.39844c1.11523,0,2.51855-0.93506,3.05762-2.77002
			c0.03613-0.10791,0.08398-0.12012,0.18066-0.12012c0.07129,0,0.16797,0,0.16797,0.10791c0,0-0.19238,1.07959-1.23535,2.11084
			C10.25391,88.27686,9.30664,89.2124,8,89.2124c-1.52344,0-2.84277-1.12744-2.84277-3.1665
			c0-2.84229,2.54199-5.52881,4.96484-5.52881c0.78027,0,1.3916,0.35986,1.77539,1.06738l0.7793-0.95947
			c0.08398-0.10791,0.15625-0.10791,0.15625-0.10791s0.10742,0,0.10742,0.10791c0,0-0.01172,0.12012-0.02344,0.15576
			l-0.73145,2.92676C12.1377,83.89941,12.11328,83.91113,11.99316,83.91113z"/>
		<path class="st4" d="M13.51465,93.0332c-0.80273,0-1.53711-0.67773-1.53711-1.61426c0-0.87354,0.64258-1.59326,1.4541-1.59326
			c0.87305,0,1.25098,0.67773,1.25098,1.36963c0,0.14697-0.02148,0.14697-0.1748,0.14697h-1.9502
			c0,0.25146,0,0.71289,0.20996,1.04834c0.16016,0.2583,0.44043,0.46826,0.78906,0.46826c0.07031,0,0.69922,0,0.94434-0.72021
			c0.01367-0.05566,0.02734-0.09766,0.09082-0.09766c0.03418,0,0.09082,0.01416,0.09082,0.08398
			C14.68262,92.25781,14.36816,93.0332,13.51465,93.0332z M13.43164,89.97949c-0.23828,0-0.8252,0.1748-0.86719,1.21582h1.65625
			C14.2207,90.92285,14.15137,89.97949,13.43164,89.97949z"/>
		<path class="st4" d="M17.78125,94.2915l-0.7832,0.021v-0.2168c0.46875,0,0.5459,0,0.5459-0.31445v-1.25098
			c-0.1543,0.20264-0.44043,0.50293-0.92969,0.50293c-0.81055,0-1.48828-0.70557-1.48828-1.5791
			c0-0.90869,0.7334-1.58643,1.54395-1.58643c0.55957,0,0.8457,0.44043,0.93652,0.63574l0.26563-0.63574h0.15332v3.91357
			c0,0.31445,0.07715,0.31445,0.5459,0.31445v0.2168L17.78125,94.2915z M17.56445,91.02051
			c0-0.37012-0.29297-0.97803-0.85254-0.97803c-0.51758,0-1.00586,0.58008-1.00586,1.41162
			c0,0.80371,0.42578,1.42578,0.93555,1.42578c0.3291,0,0.55273-0.18896,0.64355-0.28662
			c0.15332-0.16797,0.2793-0.36377,0.2793-0.5874C17.56445,92.00586,17.56445,91.02051,17.56445,91.02051z"/>
	</g>
	<line class="st0" x1="1" y1="63.5" x2="201" y2="63.5"/>
	<g>
		<path class="st4" d="M53.54883,32.74072c-0.06055,0-0.15625,0-0.15625-0.10791V32.5249
			c0.03613-0.17969,0.05957-0.45557,0.05957-0.63574c0-0.52734-0.14355-2.19482-1.69043-2.19482
			c-1.10352,0-2.19531,0.77979-2.80664,1.60742c-1.16309,1.60693-1.29492,3.65771-1.29492,3.99365
			c0,1.63086,0.9834,2.39844,2.07422,2.39844c1.11523,0,2.51855-0.93506,3.05859-2.77002
			c0.03613-0.10791,0.08398-0.12012,0.17969-0.12012c0.07227,0,0.16797,0,0.16797,0.10791c0,0-0.19141,1.07959-1.23535,2.11084
			c-0.0957,0.08398-1.04297,1.01953-2.35059,1.01953c-1.52344,0-2.84277-1.12744-2.84277-3.1665
			c0-2.84229,2.54297-5.52881,4.96582-5.52881c0.7793,0,1.39063,0.35986,1.77441,1.06738l0.78027-0.95947
			c0.08398-0.10791,0.15527-0.10791,0.15527-0.10791s0.1084,0,0.1084,0.10791c0,0-0.01172,0.12012-0.02441,0.15576l-0.73145,2.92676
			C53.69238,32.729,53.66895,32.74072,53.54883,32.74072z"/>
		<path class="st4" d="M55.13281,41.76514c-0.2793,0-0.88672,0-1.13184,0.021v-0.2168h0.22363
			c0.62891,0,0.65039-0.0835,0.65039-0.33545v-3.62012c-0.36328,0.18213-0.77637,0.18213-0.91602,0.18213v-0.2168
			c0.22363,0,0.83887,0,1.27246-0.44727c0.16016,0,0.16016,0.01416,0.16016,0.18164v3.92041
			c0,0.25879,0.02148,0.33545,0.65039,0.33545h0.22363v0.2168C56.02051,41.76514,55.41309,41.76514,55.13281,41.76514z"/>
	</g>
	<g>
		<path class="st4" d="M128.54883,32.74072c-0.06055,0-0.15625,0-0.15625-0.10791V32.5249
			c0.03613-0.17969,0.05957-0.45557,0.05957-0.63574c0-0.52734-0.14355-2.19482-1.69043-2.19482
			c-1.10352,0-2.19531,0.77979-2.80664,1.60742c-1.16309,1.60693-1.29492,3.65771-1.29492,3.99365
			c0,1.63086,0.9834,2.39844,2.07422,2.39844c1.11523,0,2.51855-0.93506,3.05859-2.77002
			c0.03613-0.10791,0.08398-0.12012,0.17969-0.12012c0.07227,0,0.16797,0,0.16797,0.10791c0,0-0.19141,1.07959-1.23535,2.11084
			c-0.0957,0.08398-1.04297,1.01953-2.35059,1.01953c-1.52344,0-2.84277-1.12744-2.84277-3.1665
			c0-2.84229,2.54297-5.52881,4.96582-5.52881c0.7793,0,1.39063,0.35986,1.77441,1.06738l0.78027-0.95947
			c0.08398-0.10791,0.15527-0.10791,0.15527-0.10791s0.1084,0,0.1084,0.10791c0,0-0.01172,0.12012-0.02441,0.15576l-0.73145,2.92676
			C128.69238,32.729,128.66895,32.74072,128.54883,32.74072z"/>
		<path class="st4" d="M131.2793,41.78613h-2.59277c0-0.16748,0-0.18164,0.07715-0.25879l1.3418-1.49512
			c0.38379-0.43359,0.7334-0.98584,0.7334-1.54443c0-0.57324-0.30078-1.13916-0.93652-1.13916
			c-0.40527,0-0.78223,0.2583-0.94336,0.7124c0.02148-0.00684,0.03516-0.00684,0.09082-0.00684
			c0.24512,0,0.37012,0.18164,0.37012,0.36328c0,0.28662-0.24414,0.37061-0.36328,0.37061c-0.02051,0-0.37012,0-0.37012-0.3916
			c0-0.62158,0.51758-1.26465,1.30664-1.26465c0.85254,0,1.48145,0.55908,1.48145,1.35596
			c0,0.69873-0.41895,1.07617-1.50879,2.04053l-0.74121,0.71973h1.25781c0.1543,0,0.61523,0,0.66406-0.05615
			c0.07031-0.10449,0.11914-0.41211,0.1543-0.62158h0.17383L131.2793,41.78613z"/>
	</g>
	<g>
		<g>
			<polyline class="st5" points="11,76.5 11,38.5 21.9155,38.5 			"/>
			<g>
				<polygon class="st6" points="18.60201,42.58984 17.91988,41.85742 21.5317,38.50098 17.91988,35.14355 18.60201,34.41113 
					23,38.50098 				"/>
			</g>
		</g>
	</g>
</g>
</svg>
