<?xml version="1.0" encoding="utf-8"?>
<!-- Generator: Adobe Illustrator 23.0.3, SVG Export Plug-In . SVG Version: 6.00 Build 0)  -->
<svg version="1.1" id="Layer_1" xmlns="http://www.w3.org/2000/svg" xmlns:xlink="http://www.w3.org/1999/xlink" x="0px" y="0px"
	 viewBox="0 0 326.96725 148.69287" style="enable-background:new 0 0 326.96725 148.69287;" xml:space="preserve">
<style type="text/css">
	.st0{fill:none;stroke:#8FF4DD;stroke-width:2;stroke-miterlimit:10;}
	.st1{fill:#8FF4DD;}
	.st2{fill:none;stroke:#FD1D53;stroke-width:2;stroke-linecap:round;stroke-miterlimit:10;}
</style>
<g>
	<g>
		<polyline class="st0" points="33.50879,10.12298 33.50879,131.16699 104.55281,131.16699 		"/>
		<g>
			<polygon class="st1" points="29.05586,18.3986 30.37247,18.87711 33.50879,10.25976 36.64511,18.87711 37.96036,18.3986 
				33.50879,6.167 			"/>
		</g>
		<g>
			<polygon class="st1" points="96.27719,135.61992 95.79868,134.30331 104.41603,131.16699 95.79868,128.03067 96.27719,126.71543 
				108.50879,131.16699 			"/>
		</g>
	</g>
</g>
<polyline class="st2" points="33.50879,131.16699 33.50811,31.167 83.50879,31.167 83.50879,131.16699 "/>
<g>
	<path class="st1" d="M115.08739,136.68408c-0.99023,0-1.47656-0.75635-1.47656-1.58447c0-0.07227,0-0.28809,0.09033-0.64844
		l1.29639-5.18555h-1.4585c-0.28809,0-0.43213,0-0.43213-0.17969c0-0.34229,0.16211-0.34229,0.48584-0.34229h1.53076
		l0.70215-2.82665c0.07178-0.27051,0.23389-0.6665,0.68408-0.6665c0.34229,0,0.46826,0.27002,0.46826,0.43213
		c0,0-0.01807,0.19824-0.03613,0.23438l-0.72021,2.82665h1.42236c0.30615,0,0.43213,0,0.43213,0.19775
		c0,0.32422-0.17969,0.32422-0.48584,0.32422h-1.49463l-1.35059,5.38379c-0.07178,0.27002-0.14404,0.68408-0.14404,0.9541
		c0,0.59424,0.25244,0.72021,0.52246,0.72021c1.17041,0,1.87256-1.76416,2.08838-2.32275
		c0.09033-0.19775,0.1084-0.23389,0.30615-0.23389c0.07227,0,0.23389,0,0.23389,0.16211
		C117.75195,134.01904,116.85205,136.68408,115.08739,136.68408z"/>
</g>
<g>
	<path class="st1" d="M7.68848,2.8628c-0.30615,0-0.55811-0.18018-0.55811-0.52197c0-0.19824,0.10791-0.68457,0.72021-0.81055
		c-0.27002-0.3418-0.72021-0.3418-0.77441-0.3418c-0.66602,0-0.86426,0.8999-1.02637,1.69238l-0.57617,2.8628h1.36866
		c0.30615,0,0.43213,0,0.43213,0.19775c0,0.32422-0.18018,0.32422-0.48633,0.32422h-1.4043l-1.11621,5.74365
		c-0.55811,2.89893-1.4043,5.16748-2.86279,5.16748C0.66651,17.17676,0,16.7627,0,16.06055
		c0-0.59424,0.41406-0.91797,0.82861-0.91797c0.30615,0,0.55811,0.17969,0.55811,0.52197c0,0.14404-0.07227,0.68408-0.73828,0.81006
		c0.23389,0.32422,0.68408,0.34229,0.75635,0.34229c0.64795,0,0.86426-0.84619,1.06201-1.60254
		c0.28809-1.09814,0.32422-1.26025,0.54004-2.34082l1.27881-6.60791h-1.0625c-0.28809,0-0.43213,0-0.43213-0.17969
		c0-0.34229,0.16211-0.34229,0.46826-0.34229h1.13428l0.37793-1.96239c0.12598-0.6123,0.57617-2.95313,2.30469-2.95313
		c0.73828,0,1.44043,0.41406,1.44043,1.11621C8.5166,2.53858,8.10254,2.8628,7.68848,2.8628z"/>
	<path class="st1" d="M12.47559,18.02344c-0.19775,0-1.67432-1.17041-2.73633-3.33105
		c-0.93652-1.92676-1.18848-4.06934-1.18848-5.67188c0-2.21484,0.41406-4.14111,1.33203-5.95996
		C10.76513,1.29639,12.2417,0,12.47558,0c0.07227,0,0.16211,0.03613,0.16211,0.14404c0,0.05371,0,0.08984-0.17969,0.25195
		C10.36913,2.5205,9.52294,5.52734,9.52294,9.0205c0,3.67334,1.0083,6.64404,2.80908,8.4624
		c0.30566,0.30615,0.30566,0.34229,0.30566,0.39648C12.6377,17.98731,12.54785,18.02344,12.47559,18.02344z"/>
	<path class="st1" d="M17.24512,13.68409c-0.99023,0-1.47656-0.75635-1.47656-1.58447c0-0.07227,0-0.28809,0.09033-0.64844
		l1.29639-5.18555h-1.4585c-0.28809,0-0.43213,0-0.43213-0.17969c0-0.34229,0.16211-0.34229,0.48584-0.34229h1.53076
		l0.70215-2.82666c0.07178-0.27051,0.23389-0.6665,0.68408-0.6665c0.34229,0,0.46826,0.27002,0.46826,0.43213
		c0,0-0.01807,0.19824-0.03613,0.23438L18.3794,5.74366h1.42236c0.30615,0,0.43213,0,0.43213,0.19775
		c0,0.32422-0.18018,0.32422-0.48584,0.32422h-1.49463l-1.35059,5.38379c-0.07178,0.27002-0.14404,0.68408-0.14404,0.9541
		c0,0.59424,0.25244,0.72021,0.52246,0.72021c1.17041,0,1.87256-1.76416,2.08838-2.32275
		c0.09033-0.19775,0.10791-0.23389,0.30615-0.23389c0.07227,0,0.23438,0,0.23438,0.16211
		C19.91016,11.01905,19.00977,13.68409,17.24512,13.68409z"/>
	<path class="st1" d="M25.03906,14.96241c-0.88232,1.76465-2.35889,3.06104-2.59277,3.06104
		c-0.07227,0-0.16211-0.03613-0.16211-0.14404c0-0.0542,0-0.09033,0.18018-0.25244c2.08838-2.12451,2.93506-5.13135,2.93506-8.62451
		c0-3.67285-1.00879-6.64404-2.80908-8.4624c-0.30615-0.30615-0.30615-0.34229-0.30615-0.396
		c0-0.10791,0.08984-0.14404,0.16211-0.14404c0.19824,0,1.67432,1.17041,2.73682,3.33105
		c1.0083,2.08838,1.18848,4.32129,1.18848,5.68945C26.37158,11.18116,25.95752,13.12598,25.03906,14.96241z"/>
</g>
<g>
	<path class="st1" d="M25.94043,37.50391h-6.57178v-0.43213l3.63721-4.06934c1.02637-1.15234,1.9082-2.48486,1.9082-4.01514
		c0-1.65625-0.93604-2.93457-2.4668-2.93457c-1.16992,0-2.14258,0.82813-2.48438,2.05225
		c0.05371-0.01807,0.08984-0.01807,0.25195-0.01807c0.50391,0,0.84619,0.34229,0.84619,0.84668
		c0,0.57617-0.46826,0.84619-0.84619,0.84619c-0.0542,0-0.84619,0-0.84619-0.91846c0-1.54834,1.22412-3.33105,3.31299-3.33105
		c2.08838,0,3.72705,1.38672,3.72705,3.45703c0,1.78271-1.0083,2.71875-3.74512,5.23975
		c-0.46826,0.43213-1.56641,1.58447-2.05273,1.99854h3.33105c0.54004,0,1.56641,0,1.69238-0.16211
		c0.18018-0.28809,0.32422-1.27832,0.37842-1.58447h0.396L25.94043,37.50391z"/>
</g>
<g>
	<path class="st1" d="M84.05957,148.46777c-0.59424,0-2.34082,0-2.82666,0.03613v-0.52197h0.55811
		c1.58447,0,1.63867-0.21631,1.63867-0.86426v-9.38086c-0.99023,0.46826-1.89063,0.46826-2.30469,0.46826v-0.52246
		c1.85449,0,2.75488-0.66602,3.18652-1.15234c0.36035,0,0.36035,0.01807,0.36035,0.43213v10.15527
		c0,0.64795,0.0542,0.86426,1.63867,0.86426h0.55811v0.52197C86.38233,148.46777,84.65381,148.46777,84.05957,148.46777z"/>
</g>
<g>
	<g>
		<polyline class="st0" points="157.8134,10.12298 157.8134,131.16699 313.84763,131.16699 		"/>
		<g>
			<polygon class="st1" points="153.05588,18.3986 154.46252,18.87711 157.8134,10.25976 161.16426,18.87711 162.56947,18.3986 
				157.8134,6.167 			"/>
		</g>
		<g>
			<polygon class="st1" points="305.00592,135.61992 304.49466,134.30331 313.70148,131.16699 304.49466,128.03067 
				305.00592,126.71543 318.07422,131.16699 			"/>
		</g>
	</g>
</g>
<g>
	<path class="st1" d="M323.97849,136.68408c-0.99023,0-1.47656-0.75635-1.47656-1.58447c0-0.07227,0-0.28809,0.09033-0.64844
		l1.29639-5.18555h-1.4585c-0.28809,0-0.43213,0-0.43213-0.17969c0-0.34229,0.16211-0.34229,0.48584-0.34229h1.53076
		l0.70215-2.82665c0.07178-0.27051,0.23389-0.6665,0.68408-0.6665c0.34229,0,0.46826,0.27002,0.46826,0.43213
		c0,0-0.01807,0.19824-0.03613,0.23438l-0.72021,2.82665h1.42236c0.30615,0,0.43213,0,0.43213,0.19775
		c0,0.32422-0.17969,0.32422-0.48584,0.32422h-1.49463l-1.35059,5.38379c-0.07178,0.27002-0.14404,0.68408-0.14404,0.9541
		c0,0.59424,0.25244,0.72021,0.52246,0.72021c1.17041,0,1.87256-1.76416,2.08838-2.32275
		c0.09033-0.19775,0.1084-0.23389,0.30615-0.23389c0.07227,0,0.23389,0,0.23389,0.16211
		C326.64304,134.01904,325.74313,136.68408,323.97849,136.68408z"/>
</g>
<g>
	<path class="st1" d="M207.57323,148.46777c-0.59424,0-2.34082,0-2.82666,0.03613v-0.52197h0.55811
		c1.58447,0,1.63867-0.21631,1.63867-0.86426v-9.38086c-0.99023,0.46826-1.89063,0.46826-2.30469,0.46826v-0.52246
		c1.85449,0,2.75488-0.66602,3.18652-1.15234c0.36035,0,0.36035,0.01807,0.36035,0.43213v10.15527
		c0,0.64795,0.0542,0.86426,1.63867,0.86426h0.55811v0.52197C209.89598,148.46777,208.16747,148.46777,207.57323,148.46777z"/>
</g>
<g>
	<path class="st1" d="M147.05957,87.46778c-0.59424,0-2.34082,0-2.82666,0.03613v-0.52197h0.55811
		c1.58447,0,1.63867-0.21631,1.63867-0.86426v-9.38086c-0.99023,0.46826-1.89063,0.46826-2.30469,0.46826v-0.52246
		c1.85449,0,2.75488-0.66602,3.18652-1.15234c0.36035,0,0.36035,0.01807,0.36035,0.43213v10.15527
		c0,0.64795,0.0542,0.86426,1.63867,0.86426h0.55811v0.52197C149.38232,87.46778,147.65381,87.46778,147.05957,87.46778z"/>
</g>
<g>
	<path class="st1" d="M292.22546,148.69287c-1.99854,0-3.60107-1.31445-3.60107-2.9165c0-0.68457,0.46826-0.93652,0.90039-0.93652
		c0.50391,0,0.88184,0.36035,0.88184,0.88232c0,0.64844-0.52197,0.97217-1.09814,0.88232
		c0.52197,1.18848,1.99854,1.60254,2.86279,1.60254c0.88232,0,2.10693-0.63037,2.10693-2.98877
		c0-1.72852-0.68457-2.98926-2.21484-2.98926h-0.82813c-0.32422,0-0.41406,0-0.41406-0.17969
		c0-0.16211,0.07178-0.18018,0.37793-0.19824l0.54004-0.0542c0.48633-0.01807,1.09863-0.07178,1.63867-0.86426
		c0.52197-0.77393,0.57617-1.78223,0.57617-2.12451c0-1.76465-1.17041-2.03467-1.76465-2.03467c-0.08984,0-1.78271,0-2.4668,1.22461
		c0.0542-0.01807,0.09033-0.01807,0.19824-0.01807c0.396,0,0.82813,0.25195,0.82813,0.82813
		c0,0.54004-0.43213,0.81006-0.81006,0.81006c-0.27002,0-0.82813-0.14404-0.82813-0.86426c0-1.31396,1.33203-2.4126,3.13281-2.4126
		c1.74658,0,3.22266,1.04443,3.22266,2.4668c0,1.4043-1.0083,2.71875-2.57471,3.16895
		c1.72852,0.30615,3.06104,1.60254,3.06104,3.25879C295.95251,147.05469,294.36804,148.69287,292.22546,148.69287z"/>
</g>
<g>
	<path class="st1" d="M125.51123,17.17676c-1.38623,0-2.08838-0.28809-2.08838-0.97217c0-0.57617,0.44971-0.88232,0.81006-0.88232
		c0.41406,0,0.57617,0.28809,0.57617,0.52246c0,0.25195-0.16211,0.6123-0.55811,0.77393
		c0.46777,0.19824,1.08008,0.21631,1.27832,0.21631c1.4585,0,2.14258-1.38672,2.34082-1.94482l0.57616-2.34033
		c-0.12598,0.12598-0.93652,0.9541-1.89063,0.9541c-1.18848,0-2.08887-1.04443-2.08887-2.70068
		c0-2.62891,2.08887-5.23975,3.99706-5.23975c0.82861,0,1.27881,0.6123,1.4585,1.02637h0.01807
		c0.03613-0.30615,0.27002-0.68408,0.68457-0.68408c0.32373,0,0.46777,0.23389,0.46777,0.43213c0,0,0,0.08984-0.05371,0.28809
		l-1.98096,7.95801C128.69824,16.00684,127.34766,17.17676,125.51123,17.17676z M129.68848,7.58008
		c0-0.10791-0.14404-1.67432-1.22461-1.67432c-0.79199,0-1.60205,0.93604-2.05225,2.05225
		c-0.28809,0.68457-0.82861,2.71924-0.82861,3.5835c0,0.21582,0.03613,1.62012,1.00879,1.62012
		c0.97217,0,2.07031-1.4043,2.21436-1.99854l0.82813-3.29492C129.67041,7.70606,129.68848,7.58008,129.68848,7.58008z"/>
	<path class="st1" d="M136.27637,18.02344c-0.19824,0-1.6748-1.17041-2.7373-3.33105
		c-0.93604-1.92676-1.18799-4.06934-1.18799-5.67188c0-2.21484,0.41406-4.14111,1.33252-5.95996
		C134.56543,1.29639,136.04199,0,136.27637,0c0.07178,0,0.16162,0.03613,0.16162,0.14404c0,0.05371,0,0.08984-0.17969,0.25195
		c-2.08887,2.12451-2.93506,5.13135-2.93506,8.62451c0,3.67334,1.0083,6.64404,2.80859,8.4624
		c0.30615,0.30615,0.30615,0.34229,0.30615,0.39648C136.43799,17.98731,136.34814,18.02344,136.27637,18.02344z"/>
	<path class="st1" d="M141.04541,13.68409c-0.99023,0-1.47656-0.75635-1.47656-1.58447c0-0.07227,0-0.28809,0.09033-0.64844
		l1.29639-5.18555h-1.4585c-0.28809,0-0.43213,0-0.43213-0.17969c0-0.34229,0.16211-0.34229,0.48584-0.34229h1.53076
		l0.70215-2.82666c0.07178-0.27051,0.23389-0.6665,0.68408-0.6665c0.34229,0,0.46826,0.27002,0.46826,0.43213
		c0,0-0.01807,0.19824-0.03613,0.23438l-0.72021,2.82666h1.42236c0.30615,0,0.43213,0,0.43213,0.19775
		c0,0.32422-0.17969,0.32422-0.48584,0.32422h-1.49463l-1.35059,5.38379c-0.07178,0.27002-0.14404,0.68408-0.14404,0.9541
		c0,0.59424,0.25244,0.72021,0.52246,0.72021c1.17041,0,1.87256-1.76416,2.08838-2.32275
		c0.09033-0.19775,0.1084-0.23389,0.30615-0.23389c0.07227,0,0.23389,0,0.23389,0.16211
		C143.70996,11.01905,142.81006,13.68409,141.04541,13.68409z"/>
	<path class="st1" d="M148.83936,14.96241c-0.88232,1.76465-2.35889,3.06104-2.59277,3.06104
		c-0.07178,0-0.16211-0.03613-0.16211-0.14404c0-0.0542,0-0.09033,0.18018-0.25244c2.08838-2.12451,2.93457-5.13135,2.93457-8.62451
		c0-3.67285-1.00781-6.64404-2.80859-8.4624c-0.30615-0.30615-0.30615-0.34229-0.30615-0.396
		c0-0.10791,0.09033-0.14404,0.16211-0.14404c0.19824,0,1.67432,1.17041,2.73682,3.33105
		c1.0083,2.08838,1.18848,4.32129,1.18848,5.68945C150.17188,11.18116,149.75781,13.12598,148.83936,14.96241z"/>
</g>
<polyline class="st2" points="207.67242,131.16699 207.51048,81.167 292.28845,81.167 292.28845,131.16699 "/>
</svg>
