<?xml version="1.0" encoding="utf-8"?>
<!-- Generator: Adobe Illustrator 23.0.3, SVG Export Plug-In . SVG Version: 6.00 Build 0)  -->
<svg version="1.1" id="Layer_1" xmlns="http://www.w3.org/2000/svg" xmlns:xlink="http://www.w3.org/1999/xlink" x="0px" y="0px"
	 viewBox="0 0 230.7838 137.07787" style="enable-background:new 0 0 230.7838 137.07787;" xml:space="preserve">
<style type="text/css">
	.st0{fill:none;stroke:#8FF4DD;stroke-width:2;stroke-miterlimit:10;}
	.st1{fill:#8FF4DD;}
	.st2{fill:none;stroke:#F6019D;stroke-width:2;stroke-linecap:round;stroke-miterlimit:10;}
	.st3{fill:none;stroke:#2DE2E6;stroke-width:2;stroke-linecap:round;stroke-linejoin:round;stroke-miterlimit:10;}
</style>
<g>
	<g>
		<g>
			<line class="st0" x1="120.00068" y1="3.95598" x2="120.00068" y2="120"/>
			<g>
				<polygon class="st1" points="115.54775,12.23161 116.86436,12.71011 120.00068,4.09276 123.137,12.71011 124.45225,12.23161 
					120.00068,0 				"/>
			</g>
		</g>
	</g>
	<g>
		<g>
			<line class="st0" x1="0" y1="120" x2="216.04401" y2="120"/>
			<g>
				<polygon class="st1" points="207.7684,124.45293 207.28989,123.13632 215.90723,120 207.28989,116.86368 207.7684,115.54843 
					220,120 				"/>
			</g>
		</g>
	</g>
</g>
<g>
	<path class="st1" d="M108.46568,130.52998h1.40866c0.29961,0,0.45063,0,0.45063-0.29967c0-0.16516-0.15102-0.16516-0.41998-0.16516
		h-1.31895c0.53791-2.13074,0.61342-2.43039,0.61342-2.52007c0-0.25484-0.17926-0.40585-0.43417-0.40585
		c-0.04485,0-0.46482,0.01651-0.59937,0.54033l-0.58518,2.38557h-1.41093c-0.29976,0-0.45077,0-0.45077,0.28551
		c0,0.17932,0.12035,0.17932,0.42012,0.17932h1.32137c-1.0808,4.26146-1.1397,4.5163-1.1397,4.78528
		c0,0.80936,0.56857,1.38037,1.37801,1.38037c1.53129,0,2.38557-2.18971,2.38557-2.31004c0-0.15102-0.12035-0.15102-0.17941-0.15102
		c-0.13454,0-0.15101,0.04482-0.22411,0.21001c-0.64664,1.55969-1.44173,1.9207-1.95141,1.9207
		c-0.31381,0-0.46482-0.19583-0.46482-0.689c0-0.36102,0.03065-0.46484,0.08955-0.72203L108.46568,130.52998"/>
</g>
<path class="st1" d="M170.60066,127.31148c0-0.35866,0-0.38934-0.34447-0.38934c-0.92966,0.96037-2.25104,0.96037-2.73004,0.96037
	v0.46484c0.29962,0,1.18456,0,1.96544-0.38934v7.77019c0,0.54036-0.04469,0.71968-1.39687,0.71968h-0.47887v0.46484
	c0.52371-0.04485,1.83104-0.04485,2.43028-0.04485c0.59937,0,1.9043,0,2.43042,0.04485v-0.46484h-0.48129
	c-1.34976,0-1.39462-0.16518-1.39462-0.71968L170.60066,127.31148"/>
<path class="st1" d="M39.53279,72.75012h1.29071c0.29967,0,0.45068,0,0.45068-0.29967c0-0.16515-0.15102-0.16515-0.40585-0.16515
	h-1.24586l0.31618-1.71072c0.059-0.31384,0.269-1.38038,0.35866-1.55971c0.13686-0.28551,0.3917-0.50967,0.70553-0.50967
	c0.06136,0,0.45068,0,0.73619,0.269c-0.66068,0.06134-0.8117,0.58518-0.8117,0.8117c0,0.34449,0.27135,0.52382,0.55686,0.52382
	c0.38934,0,0.8235-0.33034,0.8235-0.89899c0-0.69136-0.689-1.03587-1.30486-1.03587c-0.50967,0-1.45351,0.269-1.90421,1.75555
	c-0.08966,0.31384-0.13449,0.46485-0.49551,2.3549h-1.03587c-0.28315,0-0.44832,0-0.44832,0.28551
	c0,0.17933,0.1345,0.17933,0.42001,0.17933h0.98868l-1.12553,5.92497c-0.269,1.45587-0.52384,2.81973-1.30487,2.81973
	c-0.05899,0-0.43417,0-0.71968-0.269c0.69137-0.04483,0.82586-0.58518,0.82586-0.80935c0-0.34685-0.27135-0.52618-0.5545-0.52618
	c-0.39169,0-0.82586,0.33035-0.82586,0.90136c0,0.67485,0.66069,1.03352,1.27419,1.03352c0.82587,0,1.42519-0.88485,1.69656-1.45351
	c0.479-0.94621,0.82349-2.76074,0.84002-2.86692L39.53279,72.75012"/>
<path class="st1" d="M48.05333,82.35135c0-0.04483,0-0.07551-0.25484-0.33034c-1.87351-1.89005-2.35487-4.72628-2.35487-7.01982
	c0-2.61209,0.57101-5.22182,2.41624-7.09769c0.19347-0.17933,0.19347-0.21001,0.19347-0.25484
	c0-0.10382-0.05898-0.14866-0.14866-0.14866c-0.15101,0-1.5007,1.01935-2.38554,2.92591
	c-0.76451,1.64937-0.94621,3.31524-0.94621,4.57528c0,1.16799,0.16518,2.98489,0.99104,4.67908
	C46.46298,81.52549,47.75367,82.5,47.90468,82.5C47.99434,82.50001,48.05333,82.45518,48.05333,82.35135"/>
<path class="st1" d="M51.9184,72.75012h1.40866c0.29961,0,0.45063,0,0.45063-0.29967c0-0.16515-0.15102-0.16515-0.41998-0.16515
	h-1.31896c0.53792-2.13072,0.61343-2.4304,0.61343-2.52007c0-0.25484-0.17926-0.40585-0.43417-0.40585
	c-0.04485,0-0.46482,0.01652-0.59937,0.54034l-0.58518,2.38557h-1.41099c-0.29966,0-0.45068,0-0.45068,0.28551
	c0,0.17933,0.12033,0.17933,0.42001,0.17933h1.32145c-1.08076,4.26145-1.13977,4.51629-1.13977,4.78528
	c0,0.80935,0.56863,1.38037,1.37807,1.38037c1.53129,0,2.38557-2.1897,2.38557-2.31004c0-0.15102-0.12035-0.15102-0.17941-0.15102
	c-0.13455,0-0.15102,0.04482-0.22411,0.21001c-0.64664,1.55968-1.44173,1.92071-1.95141,1.92071
	c-0.31381,0-0.46482-0.19584-0.46482-0.689c0-0.36102,0.03065-0.46484,0.08955-0.72203L51.9184,72.75012"/>
<path class="st1" d="M67.62392,75.30085c0.25476,0,0.52385,0,0.52385-0.29966c0-0.30203-0.26909-0.30203-0.52385-0.30203h-8.11705
	c-0.25491,0-0.52386,0-0.52386,0.30203c0,0.29966,0.26896,0.29966,0.52386,0.29966H67.62392"/>
<path class="st1" d="M77.09767,73.15598h2.52013c0.19586,0,0.73619,0,0.73619-0.51203c0-0.35866-0.31622-0.35866-0.60179-0.35866
	h-4.20003c-0.29976,0-0.88493,0-1.54562,0.70553c-0.49306,0.54035-0.91304,1.26002-0.91304,1.34969
	c0,0.01415,0,0.14864,0.17926,0.14864c0.12036,0,0.15102-0.05899,0.24072-0.17933c0.73378-1.15384,1.59033-1.15384,1.90414-1.15384
	h1.24586l-1.46999,4.81359c-0.06131,0.18169-0.151,0.49551-0.151,0.55687c0,0.16518,0.10616,0.4035,0.43643,0.4035
	c0.49321,0,0.56871-0.42002,0.61357-0.64417L77.09767,73.15598"/>
<path class="st1" d="M85.17696,75.00119c0-1.17036-0.16521-2.98727-0.98869-4.68145
	c-0.90126-1.84522-2.18971-2.81973-2.34073-2.81973c-0.08954,0-0.151,0.05899-0.151,0.14867c0,0.04482,0,0.07551,0.28557,0.34685
	c1.46997,1.4842,2.32652,3.86975,2.32652,7.00567c0,2.56488-0.55679,5.20528-2.41623,7.09532
	c-0.19586,0.17933-0.19586,0.21-0.19586,0.25484c0,0.08966,0.06145,0.14865,0.151,0.14865
	c0.15102,0,1.50079-1.01935,2.38559-2.92356C84.9977,77.92473,85.17696,76.26121,85.17696,75.00119"/>
<path class="st1" d="M177.36807,12.36309c-0.08971,0.3917-0.43417,0.76451-0.76443,1.05003
	c-0.31622,0.27134-0.78105,0.54034-1.21521,0.54034c-0.7504,0-0.97691-0.77868-0.97691-1.38036
	c0-0.71969,0.43658-2.48938,0.84235-3.25389c0.40352-0.7362,1.05002-1.33554,1.68004-1.33554
	c0.98869,0,1.19876,1.2152,1.19876,1.29071c0,0.07315-0.03081,0.16518-0.04486,0.22417L177.36807,12.36309 M179.31706,8.62785
	c0.01662-0.08967,0.04486-0.16518,0.04486-0.269c0-0.25484-0.17926-0.40585-0.43417-0.40585
	c-0.14859,0-0.55452,0.10618-0.61583,0.64417c-0.26897-0.55449-0.79283-0.94384-1.39447-0.94384
	c-1.71069,0-3.57014,2.10006-3.57014,4.26145c0,1.48419,0.9156,2.36904,1.99626,2.36904c0.8848,0,1.59033-0.70552,1.73894-0.87069
	l0.01419,0.01651c-0.3138,1.33319-0.49306,1.94904-0.49306,1.97971c-0.06146,0.13449-0.57114,1.61869-2.16147,1.61869
	c-0.28557,0-0.77864-0.01416-1.19861-0.14865c0.44821-0.1345,0.61342-0.5262,0.61342-0.78103
	c0-0.23832-0.16521-0.52383-0.56871-0.52383c-0.33028,0-0.81171,0.26899-0.81171,0.86834c0,0.61585,0.55695,0.91552,1.99626,0.91552
	c1.8759,0,2.95428-1.17036,3.18082-2.06938L179.31706,8.62785z"/>
<path class="st1" d="M184.91881,17.88457c0-0.04483,0-0.07551-0.25476-0.33035c-1.87364-1.89005-2.35493-4.72628-2.35493-7.01982
	c0-2.61209,0.571-5.22181,2.41624-7.09769c0.19345-0.17933,0.19345-0.21002,0.19345-0.25484
	c0-0.10382-0.05905-0.14866-0.14861-0.14866c-0.15102,0-1.50078,1.01935-2.38557,2.92591
	c-0.76459,1.64936-0.94626,3.31524-0.94626,4.57528c0,1.16799,0.16521,2.98489,0.9911,4.67908
	c0.899,1.84522,2.18971,2.81974,2.34073,2.81974C184.85976,18.03323,184.91881,17.9884,184.91881,17.88457"/>
<path class="st1" d="M190.25385,8.68919h2.52014c0.19586,0,0.73619,0,0.73619-0.51203c0-0.35866-0.31622-0.35866-0.60179-0.35866
	h-4.20003c-0.29976,0-0.88493,0-1.54562,0.70552c-0.49307,0.54035-0.91304,1.26002-0.91304,1.34969
	c0,0.01415,0,0.14864,0.17926,0.14864c0.12035,0,0.15102-0.05899,0.24071-0.17933c0.73378-1.15384,1.59033-1.15384,1.90414-1.15384
	h1.24588l-1.46999,4.81359c-0.06131,0.18169-0.15102,0.49553-0.15102,0.55687c0,0.16518,0.10617,0.4035,0.43643,0.4035
	c0.49323,0,0.56873-0.42001,0.61359-0.64417L190.25385,8.68919"/>
<path class="st1" d="M198.33313,10.53441c0-1.17036-0.16521-2.98727-0.98869-4.68145
	c-0.90126-1.84522-2.18971-2.81973-2.34073-2.81973c-0.08955,0-0.15102,0.05899-0.15102,0.14866
	c0,0.04482,0,0.07551,0.28558,0.34685c1.46997,1.4842,2.32652,3.86975,2.32652,7.00568c0,2.56488-0.55679,5.20528-2.41623,7.09533
	c-0.19588,0.17933-0.19588,0.21-0.19588,0.25484c0,0.08966,0.06146,0.14865,0.15102,0.14865
	c0.15102,0,1.50079-1.01935,2.38559-2.92356C198.15388,13.45795,198.33313,11.79443,198.33313,10.53441"/>
<path class="st1" d="M227.52748,117.54905h2.52013c0.19586,0,0.73619,0,0.73619-0.51203c0-0.35866-0.31622-0.35866-0.60179-0.35866
	h-4.20001c-0.29977,0-0.88495,0-1.54564,0.70552c-0.49307,0.54034-0.91304,1.26003-0.91304,1.34969
	c0,0.01415,0,0.14864,0.17926,0.14864c0.12036,0,0.15102-0.05898,0.24071-0.17933c0.7338-1.15384,1.59035-1.15384,1.90416-1.15384
	h1.24586l-1.46999,4.81359c-0.06131,0.18169-0.151,0.49552-0.151,0.55686c0,0.16518,0.10616,0.4035,0.43643,0.4035
	c0.49321,0,0.56871-0.42001,0.61357-0.64417L227.52748,117.54905"/>
<polyline class="st2" points="120.00136,120 120.00068,20.00001 170.00136,20.00001 170.00136,120 "/>
<path class="st3" d="M108.022,120.00069v-50l-1.43413,1.41674l-1.43413,1.37663l-1.43413,1.33766l-1.43412,1.2998l-1.43413,1.26302
	l-1.43413,1.22725l-1.43413,1.19252l-1.43413,1.15876l-1.43413,1.12595l-1.43413,1.09409l-1.43413,1.06313l-1.43412,1.03302
	l-1.43413,1.00378l-1.43413,0.97536l-1.43413,0.94776l-1.43413,0.92093l-1.43413,0.89486l-1.43413,0.86953l-1.43413,0.84492
	l-1.43412,0.82099l-1.43413,0.79776l-1.43413,0.77518l-1.43413,0.75323l-1.43413,0.73192l-1.43413,0.7112l-1.43413,0.69106
	l-1.43413,0.6715l-1.43412,0.6525l-1.43413,0.63403l-1.43413,0.61607l-1.43413,0.59864l-1.43413,0.5817l-1.43412,0.56522
	l-1.43413,0.54923l-1.43413,0.53368l-1.43413,0.51856l-1.43412,0.5039l-1.43413,0.48963l-1.43413,0.47577l-1.43413,0.4623
	l-1.43412,0.44923l-1.43413,0.4365l-1.43413,0.42414l-1.43413,0.41214l-1.43412,0.40047l-1.43413,0.38913l-1.43413,0.37813
	l-1.43413,0.36742l-1.43412,0.35703l-1.43413,0.3469l-1.43413,0.3371l-1.43413,0.32755l-1.43412,0.31828l-1.43413,0.30927
	l-1.43413,0.30052l-1.43413,0.29201l-1.43413,0.28374l-1.43413,0.27571l-1.43413,0.26791l-1.43413,0.26032l-1.43413,0.25295
	l-1.43413,0.2458l-1.43413,0.23883l-1.43413,0.23208l-1.43413,0.2255l-1.43413,0.21912l-1.43413,0.21292l-1.43413,0.20689
	l-1.43413,0.20103l-1.43413,0.19535L6.199,113.53426l-1.43413,0.18445l-1.43413,0.17922l-1.43413,0.17414"/>
</svg>
