<?xml version="1.0" encoding="utf-8"?>
<!-- Generator: Adobe Illustrator 23.0.3, SVG Export Plug-In . SVG Version: 6.00 Build 0)  -->
<svg version="1.1" id="Layer_1" xmlns="http://www.w3.org/2000/svg" xmlns:xlink="http://www.w3.org/1999/xlink" x="0px" y="0px"
	 viewBox="0 0 193.16577 137.07785" style="enable-background:new 0 0 193.16577 137.07785;" xml:space="preserve">
<style type="text/css">
	.st0{fill:#FD1D53;}
	.st1{fill:none;stroke:#8FF4DD;stroke-width:2;stroke-miterlimit:10;}
	.st2{fill:#8FF4DD;}
	.st3{fill:none;stroke:#8FF4DD;stroke-width:2;stroke-linecap:square;stroke-miterlimit:10;}
	.st4{fill:none;stroke:#2DE2E6;stroke-width:2;stroke-linecap:round;stroke-miterlimit:10;}
	.st5{fill:none;stroke:#F6019D;stroke-width:2;stroke-linecap:round;stroke-miterlimit:10;}
</style>
<g>
	<rect x="104.41579" y="70" class="st0" width="25.03716" height="50"/>
</g>
<g>
	<g>
		<g>
			<g>
				<line class="st1" x1="4.45293" y1="3.95598" x2="4.45293" y2="120"/>
				<g>
					<polygon class="st2" points="0,12.23161 1.31661,12.71011 4.45293,4.09276 7.58925,12.71011 8.9045,12.23161 4.45293,0 					
						"/>
				</g>
			</g>
		</g>
		<g>
			<g>
				<line class="st3" x1="4.45293" y1="120" x2="175.49693" y2="120"/>
				<g>
					<polygon class="st2" points="167.22133,124.45293 166.74281,123.13632 175.36015,120 166.74281,116.86368 167.22133,115.54843 
						179.45293,120 					"/>
				</g>
			</g>
		</g>
	</g>
	<g>
		<polyline class="st4" points="154.45293,120 154.45293,20 104.45293,20 104.45293,120 		"/>
		<polyline class="st5" points="29.45293,120 29.45293,70 129.45293,70 129.45293,120 		"/>
		<path class="st2" d="M92.29867,130.74707h1.40867c0.29961,0,0.45063,0,0.45063-0.29968c0-0.16516-0.15102-0.16516-0.41998-0.16516
			h-1.31896c0.53793-2.13072,0.61343-2.4304,0.61343-2.52005c0-0.25484-0.17926-0.40585-0.43417-0.40585
			c-0.04485,0-0.46482,0.01653-0.59937,0.54034l-0.58518,2.38557h-1.41094c-0.29976,0-0.45077,0-0.45077,0.28551
			c0,0.17934,0.12035,0.17934,0.42012,0.17934h1.32138c-1.08081,4.26144-1.13971,4.51628-1.13971,4.78528
			c0,0.80934,0.56857,1.38036,1.37801,1.38036c1.53129,0,2.38558-2.18971,2.38558-2.31004
			c0-0.15102-0.12036-0.15102-0.17941-0.15102c-0.13455,0-0.15101,0.04483-0.2241,0.21001
			c-0.64664,1.55969-1.44174,1.92072-1.95141,1.92072c-0.31381,0-0.46482-0.19585-0.46482-0.68901
			c0-0.36101,0.03065-0.46484,0.08955-0.72203L92.29867,130.74707"/>
		<path class="st2" d="M107.85316,133.29779c0.25476,0,0.52387,0,0.52387-0.29965c0-0.30203-0.26911-0.30203-0.52387-0.30203
			h-8.11704c-0.25491,0-0.52386,0-0.52386,0.30203c0,0.29965,0.26896,0.29965,0.52387,0.29965H107.85316"/>
		<path class="st2" d="M117.47794,127.14632c0-0.35866,0-0.38934-0.34447-0.38934c-0.92965,0.96037-2.25103,0.96037-2.73004,0.96037
			v0.46484c0.29962,0,1.18456,0,1.96545-0.38934v7.77019c0,0.54036-0.0447,0.71968-1.39688,0.71968h-0.47887v0.46484
			c0.52372-0.04485,1.83104-0.04485,2.43028-0.04485c0.59937,0,1.9043,0,2.43043,0.04485v-0.46484h-0.48129
			c-1.34977,0-1.39462-0.16518-1.39462-0.71968v-8.41672"/>
		<path class="st2" d="M154.89661,130.74707h1.40866c0.29961,0,0.45064,0,0.45064-0.29967
			c0-0.16516-0.15102-0.16516-0.41998-0.16516h-1.31895c0.53792-2.13074,0.61342-2.43039,0.61342-2.52007
			c0-0.25484-0.17926-0.40585-0.43417-0.40585c-0.04485,0-0.46481,0.01651-0.59937,0.54033l-0.58519,2.38557h-1.41093
			c-0.29976,0-0.45076,0-0.45076,0.28551c0,0.17932,0.12035,0.17932,0.42012,0.17932h1.32137
			c-1.0808,4.26146-1.13969,4.5163-1.13969,4.78528c0,0.80936,0.56857,1.38037,1.37801,1.38037
			c1.5313,0,2.38557-2.18971,2.38557-2.31004c0-0.15102-0.12036-0.15102-0.17941-0.15102
			c-0.13454,0-0.15102,0.04482-0.22412,0.21001c-0.64664,1.55969-1.44173,1.9207-1.9514,1.9207
			c-0.31381,0-0.46483-0.19583-0.46483-0.689c0-0.36102,0.03065-0.46484,0.08955-0.72203L154.89661,130.74707"/>
		<path class="st2" d="M30.05223,127.14632c0-0.35866,0-0.38934-0.34447-0.38934c-0.92965,0.96037-2.25103,0.96037-2.73004,0.96037
			v0.46484c0.29962,0,1.18456,0,1.96545-0.38934v7.77019c0,0.54036-0.0447,0.71968-1.39688,0.71968h-0.47887v0.46484
			c0.52372-0.04485,1.83104-0.04485,2.43028-0.04485c0.59937,0,1.9043,0,2.43043,0.04485v-0.46484h-0.48129
			c-1.34977,0-1.39461-0.16518-1.39461-0.71968L30.05223,127.14632"/>
	</g>
</g>
<path class="st2" d="M187.4632,117.54905h2.52014c0.19586,0,0.73619,0,0.73619-0.51203c0-0.35866-0.31622-0.35866-0.60179-0.35866
	h-4.20003c-0.29976,0-0.88493,0-1.54562,0.70552c-0.49307,0.54034-0.91304,1.26003-0.91304,1.34969
	c0,0.01415,0,0.14864,0.17926,0.14864c0.12035,0,0.151-0.05898,0.24071-0.17933c0.73378-1.15384,1.59033-1.15384,1.90414-1.15384
	h1.24588l-1.46999,4.81359c-0.06131,0.18169-0.15102,0.49552-0.15102,0.55686c0,0.16518,0.10617,0.4035,0.43643,0.4035
	c0.49323,0,0.56873-0.42001,0.61357-0.64417L187.4632,117.54905"/>
<path class="st2" d="M108.98575,5.25011h1.2907c0.29967,0,0.45069,0,0.45069-0.29967c0-0.16516-0.15102-0.16516-0.40585-0.16516
	h-1.24587l0.31618-1.71071c0.05901-0.31384,0.269-1.38038,0.35867-1.55971c0.13686-0.28551,0.3917-0.50967,0.70552-0.50967
	c0.06136,0,0.45069,0,0.7362,0.269c-0.66069,0.06134-0.81171,0.58518-0.81171,0.8117c0,0.34449,0.27136,0.52382,0.55687,0.52382
	c0.38933,0,0.82349-0.33034,0.82349-0.899c0-0.69136-0.689-1.03587-1.30486-1.03587c-0.50967,0-1.45351,0.269-1.90421,1.75555
	c-0.08965,0.31384-0.13449,0.46485-0.49551,2.35489h-1.03587c-0.28316,0-0.44832,0-0.44832,0.28551
	c0,0.17933,0.13449,0.17933,0.42,0.17933h0.98868l-1.12553,5.92497c-0.269,1.45587-0.52384,2.81973-1.30487,2.81973
	c-0.05899,0-0.43417,0-0.71967-0.269c0.69136-0.04483,0.82586-0.58518,0.82586-0.80935c0-0.34685-0.27135-0.52618-0.5545-0.52618
	c-0.39169,0-0.82587,0.33034-0.82587,0.90136c0,0.67485,0.66069,1.03351,1.27419,1.03351c0.82587,0,1.4252-0.88485,1.69656-1.45351
	c0.479-0.94621,0.8235-2.76074,0.84002-2.86692L108.98575,5.25011"/>
<path class="st2" d="M117.50628,14.85135c0-0.04483,0-0.07551-0.25484-0.33034c-1.87352-1.89005-2.35488-4.72628-2.35488-7.01982
	c0-2.61209,0.57102-5.22181,2.41624-7.09769c0.19348-0.17933,0.19348-0.21002,0.19348-0.25484
	c0-0.10382-0.05899-0.14866-0.14866-0.14866c-0.15102,0-1.50071,1.01935-2.38555,2.92591
	c-0.76451,1.64937-0.94621,3.31524-0.94621,4.57528c0,1.16799,0.16518,2.98489,0.99104,4.67908
	C115.91592,14.02548,117.2066,15,117.35762,15C117.44729,15,117.50628,14.95517,117.50628,14.85135"/>
<path class="st2" d="M121.37135,5.25011h1.40866c0.29961,0,0.45063,0,0.45063-0.29967c0-0.16516-0.15102-0.16516-0.41997-0.16516
	h-1.31896c0.53791-2.13072,0.61342-2.4304,0.61342-2.52006c0-0.25484-0.17925-0.40585-0.43417-0.40585
	c-0.04485,0-0.46482,0.01652-0.59938,0.54035l-0.58518,2.38556h-1.41099c-0.29966,0-0.45067,0-0.45067,0.28551
	c0,0.17933,0.12032,0.17933,0.42,0.17933h1.32146c-1.08077,4.26145-1.13977,4.51629-1.13977,4.78528
	c0,0.80935,0.56863,1.38037,1.37807,1.38037c1.53129,0,2.38558-2.18971,2.38558-2.31004c0-0.15101-0.12036-0.15101-0.17941-0.15101
	c-0.13456,0-0.15102,0.04482-0.22411,0.21c-0.64664,1.55969-1.44174,1.92071-1.95142,1.92071
	c-0.3138,0-0.46482-0.19584-0.46482-0.689c0-0.36102,0.03065-0.46484,0.08955-0.72203L121.37135,5.25011"/>
<path class="st2" d="M137.07687,7.80084c0.25476,0,0.52386,0,0.52386-0.29966c0-0.30203-0.2691-0.30203-0.52386-0.30203h-8.11705
	c-0.2549,0-0.52386,0-0.52386,0.30203c0,0.29966,0.26897,0.29966,0.52386,0.29966H137.07687"/>
<path class="st2" d="M146.55061,5.65597h2.52014c0.19586,0,0.73619,0,0.73619-0.51203c0-0.35866-0.31622-0.35866-0.60179-0.35866
	h-4.20003c-0.29976,0-0.88493,0-1.54562,0.70553c-0.49307,0.54035-0.91304,1.26002-0.91304,1.34969
	c0,0.01415,0,0.14864,0.17926,0.14864c0.12036,0,0.15102-0.05899,0.24071-0.17933c0.73378-1.15384,1.59035-1.15384,1.90416-1.15384
	h1.24586l-1.46999,4.81359c-0.06131,0.18169-0.151,0.49552-0.151,0.55687c0,0.16518,0.10616,0.4035,0.43643,0.4035
	c0.49321,0,0.56871-0.42002,0.61357-0.64417L146.55061,5.65597"/>
<path class="st2" d="M154.6299,7.50118c0-1.17036-0.16521-2.98727-0.98869-4.68145C152.73994,0.97451,151.45149,0,151.30048,0
	c-0.08955,0-0.151,0.05899-0.151,0.14866c0,0.04482,0,0.07551,0.28557,0.34685c1.46997,1.4842,2.32652,3.86975,2.32652,7.00567
	c0,2.56488-0.55679,5.20528-2.41623,7.09532c-0.19586,0.17933-0.19586,0.21-0.19586,0.25484
	c0,0.08966,0.06145,0.14865,0.151,0.14865c0.15102,0,1.50079-1.01935,2.38559-2.92356
	C154.45065,10.42472,154.6299,8.7612,154.6299,7.50118"/>
<path class="st2" d="M71.41615,58.85585c-0.08971,0.3917-0.43417,0.76451-0.76443,1.05004
	c-0.31622,0.27134-0.78105,0.54034-1.21522,0.54034c-0.75039,0-0.97691-0.77868-0.97691-1.38036
	c0-0.71969,0.43658-2.48939,0.84236-3.2539c0.40351-0.73619,1.05001-1.33554,1.68004-1.33554
	c0.98869,0,1.19875,1.2152,1.19875,1.29071c0,0.07315-0.0308,0.16518-0.04485,0.22417L71.41615,58.85585 M73.36515,55.12061
	c0.01661-0.08967,0.04485-0.16518,0.04485-0.269c0-0.25484-0.17925-0.40585-0.43417-0.40585
	c-0.1486,0-0.55452,0.10618-0.61583,0.64417c-0.26896-0.5545-0.79283-0.94384-1.39447-0.94384
	c-1.7107,0-3.57014,2.10005-3.57014,4.26145c0,1.48418,0.9156,2.36904,1.99626,2.36904c0.8848,0,1.59034-0.70552,1.73894-0.87069
	l0.01419,0.01651c-0.3138,1.33319-0.49306,1.94904-0.49306,1.97971c-0.06146,0.13449-0.57114,1.61869-2.16147,1.61869
	c-0.28558,0-0.77863-0.01416-1.19861-0.14865c0.44821-0.1345,0.61343-0.5262,0.61343-0.78103
	c0-0.23832-0.16521-0.52382-0.56872-0.52382c-0.33028,0-0.81171,0.26899-0.81171,0.86833c0,0.61586,0.55694,0.91552,1.99626,0.91552
	c1.8759,0,2.95429-1.17036,3.18082-2.06938L73.36515,55.12061z"/>
<path class="st2" d="M78.96689,64.37733c0-0.04483,0-0.07551-0.25476-0.33035c-1.87364-1.89005-2.35493-4.72628-2.35493-7.01981
	c0-2.61209,0.57098-5.22182,2.41624-7.09769c0.19345-0.17933,0.19345-0.21001,0.19345-0.25484
	c0-0.10382-0.05905-0.14866-0.14861-0.14866c-0.15101,0-1.50078,1.01935-2.38557,2.92591
	c-0.76459,1.64936-0.94626,3.31524-0.94626,4.57528c0,1.16799,0.16521,2.98489,0.99111,4.67908
	c0.89899,1.84522,2.18971,2.81974,2.34072,2.81974C78.90784,64.52599,78.96689,64.48116,78.96689,64.37733"/>
<path class="st2" d="M84.30193,55.18196h2.52013c0.19586,0,0.73619,0,0.73619-0.51203c0-0.35866-0.31622-0.35866-0.60179-0.35866
	h-4.20002c-0.29977,0-0.88494,0-1.54563,0.70552c-0.49306,0.54034-0.91304,1.26002-0.91304,1.34969
	c0,0.01415,0,0.14864,0.17926,0.14864c0.12035,0,0.15101-0.05899,0.24072-0.17933c0.73378-1.15384,1.59033-1.15384,1.90414-1.15384
	h1.24587l-1.46999,4.81359c-0.06131,0.18169-0.15101,0.49553-0.15101,0.55687c0,0.16518,0.10616,0.4035,0.43643,0.4035
	c0.49322,0,0.56872-0.42002,0.61357-0.64417L84.30193,55.18196"/>
<path class="st2" d="M92.38122,57.02718c0-1.17036-0.16521-2.98727-0.98869-4.68145
	c-0.90126-1.84522-2.18971-2.81973-2.34073-2.81973c-0.08955,0-0.15102,0.05899-0.15102,0.14866
	c0,0.04482,0,0.07551,0.28557,0.34685c1.46998,1.4842,2.32654,3.86975,2.32654,7.00568c0,2.56488-0.5568,5.20528-2.41624,7.09532
	c-0.19586,0.17933-0.19586,0.21001-0.19586,0.25484c0,0.08967,0.06146,0.14866,0.15102,0.14866
	c0.15102,0,1.50078-1.01935,2.38558-2.92356C92.20196,59.95071,92.38122,58.28719,92.38122,57.02718"/>
</svg>
