<?xml version="1.0" encoding="utf-8"?>
<!-- Generator: Adobe Illustrator 23.0.3, SVG Export Plug-In . SVG Version: 6.00 Build 0)  -->
<svg version="1.1" id="Layer_1" xmlns="http://www.w3.org/2000/svg" xmlns:xlink="http://www.w3.org/1999/xlink" x="0px" y="0px"
	 viewBox="0 0 130.39999 44.8" style="enable-background:new 0 0 130.39999 44.8;" xml:space="preserve">
<style type="text/css">
	.st0{fill:#F9C80E;}
	.st1{fill:#FD1D53;}
	.st2{fill:#FF6C11;}
	.st3{fill:#8FF4DD;}
	.st4{fill:none;stroke:#F6019D;stroke-miterlimit:10;}
	.st5{fill:none;stroke:#2DE2E6;stroke-miterlimit:10;}
	.st6{fill:none;stroke:#8FF4DD;stroke-miterlimit:10;}
	.st7{fill:none;stroke:#F6019D;stroke-width:0.5;stroke-miterlimit:10;}
	.st8{fill:none;stroke:#2DE2E6;stroke-width:0.5;stroke-miterlimit:10;}
	.st9{fill:none;}
	.st10{fill:none;stroke:#F31D53;stroke-width:0.5;stroke-linejoin:round;}
	.st11{fill:#F31D53;}
	.st12{fill:none;stroke:#FF6C11;stroke-width:0.5;stroke-linejoin:round;}
	.st13{fill:none;stroke:#F9C80E;stroke-width:0.5;stroke-linejoin:round;}
	.st14{fill:none;stroke:#8FF4DD;stroke-width:0.5;stroke-miterlimit:10;}
</style>
<title>Convolution</title>
<polygon class="st0" points="107.8,35.2 111.2,31.7 111.2,35.2 "/>
<g>
	<polyline class="st1" points="80.5,35.2 80.5,32 83.6,28.9 83.6,35.2 	"/>
	<polyline class="st2" points="92.9,44.5 99.2,38.3 99.2,44.5 	"/>
	<path class="st3" d="M7.8,3.9c-0.2,0-0.3-0.1-0.3-0.3l0,0c0-0.2,0.2-0.4,0.4-0.4C7.8,3,7.6,3,7.4,3C7.1,3,7,3.5,6.9,3.9L6.6,5.5
		h0.8c0.2,0,0.2,0,0.2,0.1c0,0.2-0.1,0.2-0.3,0.2H6.5L5.9,9c-0.3,1.6-0.8,2.9-1.6,2.9c-0.4,0-0.8-0.2-0.8-0.6c0-0.3,0.2-0.5,0.4-0.5
		l0,0l0,0c0.2,0,0.3,0.1,0.3,0.3l0,0c0,0.2-0.2,0.4-0.4,0.4c0.1,0.1,0.3,0.2,0.4,0.2c0.4,0,0.5-0.5,0.6-0.9C5,10.2,5,10.1,5.1,9.5
		l0.7-3.7H5.3c-0.2,0-0.2,0-0.2-0.1c0-0.2,0.1-0.2,0.3-0.2H6l0.2-1.1c0.1-0.3,0.3-1.6,1.3-1.6c0.4,0,0.8,0.2,0.8,0.6
		C8.3,3.6,8.1,3.9,7.8,3.9L7.8,3.9L7.8,3.9z"/>
	<g>
		<path class="st3" d="M66.8,1.1c-0.2,0-0.3-0.1-0.3-0.3l0,0c0-0.2,0.2-0.4,0.4-0.4c-0.1-0.1-0.3-0.2-0.4-0.2
			c-0.4,0-0.5,0.5-0.6,0.9l-0.3,1.6h0.8c0.2,0,0.2,0,0.2,0.1C66.5,3,66.4,3,66.3,3h-0.8l-0.6,3.2c-0.3,1.6-0.8,2.9-1.6,2.9
			c-0.4,0-0.8-0.2-0.8-0.6c0-0.3,0.2-0.5,0.4-0.5l0,0l0,0c0.2,0,0.3,0.1,0.3,0.3l0,0c0,0.2-0.2,0.4-0.4,0.4c0.1,0.1,0.3,0.2,0.4,0.2
			c0.4,0,0.5-0.5,0.6-0.9C64,7.4,64,7.3,64.2,6.7L64.9,3h-0.6C64.1,3,64,3,64,2.9c0-0.2,0.1-0.2,0.3-0.2h0.6l0.2-1.1
			C65.2,1.3,65.5,0,66.4,0c0.4,0,0.8,0.2,0.8,0.6C67.2,0.9,67,1.1,66.8,1.1L66.8,1.1z"/>
		<path class="st3" d="M73.9,5.8c-0.1,0-0.1,0-0.4-0.2l-1.2-0.8l0.2,1.6c0,0.2-0.1,0.3-0.3,0.3c-0.2,0-0.3-0.1-0.3-0.3l0,0L72,4.8
			l-1.4,0.9c-0.1,0.1-0.1,0.1-0.2,0.1c-0.2,0-0.3-0.1-0.3-0.3c0-0.2,0.1-0.2,0.3-0.3l1.5-0.6L70.4,4c-0.1-0.1-0.3-0.1-0.3-0.3
			s0.1-0.3,0.3-0.3c0.1,0,0.2,0,0.2,0.1L72,4.3l-0.2-1.6c0-0.2,0.1-0.3,0.3-0.3l0,0l0,0c0.2,0,0.3,0.1,0.3,0.3v0.1l-0.1,1.5l1.4-0.9
			c0.1-0.1,0.1-0.1,0.2-0.1c0.2,0,0.3,0.1,0.3,0.3s-0.1,0.2-0.3,0.3l-1.5,0.6L74,5.2c0.1,0,0.2,0.2,0.2,0.3
			C74.2,5.6,74.1,5.8,73.9,5.8z"/>
		<path class="st3" d="M78.8,9.1c-0.8,0-1.2-0.2-1.2-0.5s0.2-0.5,0.4-0.5l0,0l0,0c0.2,0,0.3,0.1,0.3,0.3l0,0l0,0
			c0,0.2-0.1,0.4-0.3,0.4c0.2,0.1,0.5,0.1,0.7,0.1c0.6-0.1,1.1-0.5,1.3-1.1l0.3-1.3c-0.3,0.3-0.6,0.5-1,0.5c-0.7,0-1.2-0.6-1.2-1.5
			c0-1.5,1.2-2.9,2.2-2.9c0.4,0,0.7,0.2,0.8,0.6l0,0c0-0.2,0.2-0.4,0.4-0.4c0.1,0,0.2,0.1,0.3,0.2l0,0l0,0c0,0.1,0,0.1,0,0.2
			l-1.1,4.4C80.5,8.5,79.7,9.1,78.8,9.1z M81.1,3.7c0-0.1-0.1-0.9-0.7-0.9c-0.4,0-0.9,0.5-1.1,1.1s-0.4,1.3-0.5,2
			c0,0.1,0,0.9,0.6,0.9s1.1-0.8,1.2-1.1l0.5-1.8C81.1,3.8,81.1,3.7,81.1,3.7z"/>
	</g>
	<g id="graph_big_f">
		<path class="st4" d="M0,17.8h21v-14h14v14h21"/>
	</g>
	<g id="graph_big_g">
		<path class="st5" d="M0,39h21V25l14,14h21"/>
	</g>
	<g id="graph_big_fg">
		<g id="graph_fg">
			<path id="graph_gf" class="st6" d="M130.39999,13.1h-21.8c-4.2,0-8.3-4.2-12.5-12.5c-4.2,0-8.3,4.2-12.5,12.5H61.9"/>
		</g>
	</g>
	<path class="st7" d="M63.9,25.8h10.25024v-6.3h6.26956v6.3H84.5"/>
	<g id="graph_g_rev">
		<path class="st8" d="M84.62921,25.8H74.14999v-6.3l-6.2,6.3H63.85"/>
	</g>
	<g>
		<path class="st8" d="M73.3,35.2h7.2v-6.3h6.3v6.3h4.1"/>
		<path class="st7" d="M73.3,35.2h7.2v-6.3h6.3v6.3h4.1"/>
		<path class="st8" d="M90.9,35.2h-7.2v-6.3l-6.3,6.3h-4.1"/>
	</g>
	<path class="st7" d="M88.9,44.5H93v-6.3h6.3v6.3h4.1"/>
	<g>
		<line class="st9" x1="89.8" y1="4.1" x2="89.8" y2="33.6"/>
		<g>
			<line class="st10" x1="89.8" y1="4.5" x2="89.8" y2="33.6"/>
			<polygon class="st11" points="88.4,5.7 88.6,5.9 89.8,4.6 91,5.9 91.2,5.7 89.8,4.1 			"/>
		</g>
	</g>
	<g>
		<line class="st9" x1="96" y1="1.1" x2="96" y2="36.7"/>
		<g>
			<line class="st12" x1="96" y1="1.5" x2="96" y2="36.7"/>
			<polygon class="st2" points="94.6,2.7 94.9,2.9 96,1.6 97.2,2.9 97.5,2.7 96,1.1 			"/>
		</g>
	</g>
	<g>
		<line class="st9" x1="102.3" y1="10.1" x2="102.3" y2="33.6"/>
		<g>
			<line class="st13" x1="102.3" y1="10.5" x2="102.3" y2="33.6"/>
			<polygon class="st0" points="100.9,11.7 101.1,11.9 102.3,10.6 103.5,11.9 103.7,11.7 102.3,10.1 			"/>
		</g>
	</g>
	<path class="st7" d="M101.3,35.2h3.7v-6.3h6.3v6.3h4.1"/>
	<path class="st8" d="M118.4,35.2H114v-6.3l-6.3,6.3h-6.5"/>
	<path class="st7" d="M107.5,25.8h4.1v-6.3h6.3v6.3h10.3"/>
	<path class="st8" d="M128.2,25.8h-4.1v-6.3l-6.3,6.3h-10.3"/>
	<path class="st8" d="M103.4,44.5h-4.1v-6.3L93,44.5h-4.1"/>
	<g>
		<g>
			<line class="st14" x1="83.6" y1="24.2" x2="83.6" y2="14.87958"/>
			<g>
				<polygon class="st3" points="85.03144,16.0393 84.77509,16.27804 83.60034,15.0139 82.42524,16.27804 82.16889,16.0393 
					83.60034,14.5 				"/>
			</g>
		</g>
	</g>
	<g>
		<g>
			<line class="st14" x1="108.35001" y1="24.2" x2="108.35001" y2="14.87958"/>
			<g>
				<polygon class="st3" points="109.78145,16.0393 109.5251,16.27804 108.35034,15.0139 107.17525,16.27804 106.9189,16.0393 
					108.35034,14.5 				"/>
			</g>
		</g>
	</g>
</g>
<path class="st3" d="M4.99999,30.26517c-0.8,0-1.2-0.2-1.2-0.5s0.2-0.5,0.4-0.5l0,0l0,0c0.2,0,0.3,0.1,0.3,0.3l0,0l0,0
	c0,0.2-0.1,0.4-0.3,0.4c0.2,0.1,0.5,0.1,0.7,0.1c0.6-0.1,1.1-0.5,1.3-1.1l0.3-1.3c-0.3,0.3-0.6,0.5-1,0.5c-0.7,0-1.2-0.6-1.2-1.5
	c0-1.5,1.2-2.9,2.2-2.9c0.4,0,0.7,0.2,0.8,0.6l0,0c0-0.2,0.2-0.4,0.4-0.4c0.1,0,0.2,0.1,0.3,0.2l0,0l0,0c0,0.1,0,0.1,0,0.2l-1.1,4.4
	C6.69999,29.66517,5.89998,30.26517,4.99999,30.26517z M7.29999,24.86517c0-0.1-0.1-0.9-0.7-0.9c-0.4,0-0.9,0.5-1.1,1.1
	s-0.4,1.3-0.5,2c0,0.1,0,0.9,0.6,0.9s1.1-0.8,1.2-1.1l0.5-1.8C7.29999,24.96517,7.29999,24.86517,7.29999,24.86517z"/>
<g>
</g>
</svg>
