<?xml version="1.0" encoding="utf-8"?>
<!-- Generator: Adobe Illustrator 23.0.3, SVG Export Plug-In . SVG Version: 6.00 Build 0)  -->
<svg version="1.1" id="Layer_1" xmlns="http://www.w3.org/2000/svg" xmlns:xlink="http://www.w3.org/1999/xlink" x="0px" y="0px"
	 viewBox="0 0 326.96725 148.69287" style="enable-background:new 0 0 326.96725 148.69287;" xml:space="preserve">
<style type="text/css">
	.st0{fill:none;stroke:#8FF4DD;stroke-width:2;stroke-miterlimit:10;}
	.st1{fill:#8FF4DD;}
	.st2{fill:none;stroke:#FD1D53;stroke-width:2;stroke-linecap:round;stroke-linejoin:round;stroke-miterlimit:10;}
	.st3{fill:none;stroke:#FD1D53;stroke-width:2;stroke-linecap:round;stroke-miterlimit:10;}
</style>
<g>
	<g>
		<polyline class="st0" points="242.39989,10.21745 242.39989,131.26146 313.44391,131.26146 		"/>
		<g>
			<polygon class="st1" points="237.94696,18.49307 239.26357,18.97158 242.39989,10.35423 245.53621,18.97158 246.85146,18.49307 
				242.39989,6.26147 			"/>
		</g>
		<g>
			<polygon class="st1" points="305.16827,135.71439 304.68979,134.39778 313.30713,131.26146 304.68979,128.12514 
				305.16827,126.80991 317.3999,131.26146 			"/>
		</g>
	</g>
</g>
<g>
	<path class="st1" d="M323.97849,136.77855c-0.99023,0-1.47656-0.75635-1.47656-1.58447c0-0.07227,0-0.28809,0.09033-0.64844
		l1.29639-5.18555h-1.4585c-0.28812,0-0.43213,0-0.43213-0.17969c0-0.34229,0.16211-0.34229,0.48584-0.34229h1.53076
		l0.70215-2.82664c0.07178-0.27051,0.23389-0.6665,0.68408-0.6665c0.34229,0,0.46826,0.27002,0.46826,0.43213
		c0,0-0.01807,0.19824-0.03613,0.23438l-0.72021,2.82664h1.42236c0.30615,0,0.43213,0,0.43213,0.19775
		c0,0.32422-0.17969,0.32422-0.48584,0.32422h-1.49463l-1.35059,5.38379c-0.07178,0.27002-0.14404,0.68408-0.14404,0.9541
		c0,0.59424,0.25244,0.72021,0.52246,0.72021c1.17041,0,1.87256-1.76416,2.08838-2.32275
		c0.09033-0.19775,0.1084-0.23389,0.30615-0.23389c0.07227,0,0.23389,0,0.23389,0.16211
		C326.64307,134.11351,325.74316,136.77855,323.97849,136.77855z"/>
</g>
<g>
	<path class="st1" d="M11.15695,2.95276c-0.30615,0-0.55811-0.18018-0.55811-0.52197c0-0.19824,0.10791-0.68457,0.72021-0.81055
		c-0.27002-0.3418-0.72021-0.3418-0.77441-0.3418c-0.66602,0-0.86426,0.8999-1.02637,1.69238L8.9421,5.83362h1.36866
		c0.30615,0,0.43213,0,0.43213,0.19775c0,0.32422-0.18018,0.32422-0.48633,0.32422h-1.4043l-1.11621,5.74365
		c-0.55811,2.89893-1.4043,5.16748-2.86279,5.16748c-0.73828,0-1.40479-0.41406-1.40479-1.11621
		c0-0.59424,0.41406-0.91797,0.82861-0.91797c0.30615,0,0.55811,0.17969,0.55811,0.52197c0,0.14404-0.07227,0.68408-0.73828,0.81006
		c0.23389,0.32422,0.68408,0.34229,0.75635,0.34229c0.64795,0,0.86426-0.84619,1.06201-1.60254
		c0.28809-1.09814,0.32422-1.26025,0.54004-2.34082L7.75412,6.3556h-1.0625c-0.28809,0-0.43213,0-0.43213-0.17969
		c0-0.34229,0.16211-0.34229,0.46826-0.34229h1.13428l0.37793-1.96239c0.12598-0.6123,0.57617-2.95313,2.30469-2.95313
		c0.73828,0,1.44043,0.41406,1.44043,1.11621C11.98507,2.62854,11.57101,2.95276,11.15695,2.95276z"/>
	<path class="st1" d="M15.94406,18.1134c-0.19775,0-1.67432-1.17041-2.73633-3.33105
		c-0.93652-1.92676-1.18848-4.06934-1.18848-5.67188c0-2.21484,0.41406-4.14111,1.33203-5.95996
		c0.88232-1.76416,2.35889-3.06055,2.59277-3.06055c0.07227,0,0.16211,0.03613,0.16211,0.14404c0,0.05371,0,0.08984-0.17969,0.25195
		c-2.08887,2.12451-2.93506,5.13135-2.93506,8.62451c0,3.67334,1.0083,6.64404,2.80908,8.4624
		c0.30566,0.30615,0.30566,0.34229,0.30566,0.39648C16.10617,18.07727,16.01632,18.1134,15.94406,18.1134z"/>
	<path class="st1" d="M20.71359,13.77405c-0.99023,0-1.47656-0.75635-1.47656-1.58447c0-0.07227,0-0.28809,0.09033-0.64844
		l1.29639-5.18555h-1.4585c-0.28809,0-0.43213,0-0.43213-0.17969c0-0.34229,0.16211-0.34229,0.48584-0.34229h1.53076
		l0.70215-2.82666c0.07178-0.27051,0.23389-0.6665,0.68408-0.6665c0.34229,0,0.46826,0.27002,0.46826,0.43213
		c0,0-0.01807,0.19824-0.03613,0.23438l-0.72021,2.82666h1.42236c0.30615,0,0.43213,0,0.43213,0.19775
		c0,0.32422-0.18018,0.32422-0.48584,0.32422h-1.49463l-1.35059,5.38379c-0.07178,0.27002-0.14404,0.68408-0.14404,0.9541
		c0,0.59424,0.25244,0.72021,0.52246,0.72021c1.17041,0,1.87256-1.76416,2.08838-2.32275
		c0.09033-0.19775,0.10791-0.23389,0.30615-0.23389c0.07227,0,0.23438,0,0.23438,0.16211
		C23.37863,11.10901,22.47824,13.77405,20.71359,13.77405z"/>
	<path class="st1" d="M28.50753,15.05237c-0.88232,1.76465-2.35889,3.06104-2.59277,3.06104
		c-0.07227,0-0.16211-0.03613-0.16211-0.14404c0-0.0542,0-0.09033,0.18018-0.25244c2.08838-2.12451,2.93506-5.13135,2.93506-8.62451
		c0-3.67285-1.00879-6.64404-2.80908-8.4624c-0.30615-0.30615-0.30615-0.34229-0.30615-0.396
		c0-0.10791,0.08984-0.14404,0.16211-0.14404c0.19824,0,1.67432,1.17041,2.73682,3.33105
		c1.0083,2.08838,1.18848,4.32129,1.18848,5.68945C29.84005,11.27112,29.42599,13.21594,28.50753,15.05237z"/>
</g>
<g>
	<path class="st1" d="M234.83153,37.59838h-6.57178v-0.43213l3.63721-4.06934c1.02637-1.15234,1.9082-2.48486,1.9082-4.01514
		c0-1.65625-0.93605-2.93457-2.46681-2.93457c-1.16991,0-2.14258,0.82813-2.48438,2.05225
		c0.05371-0.01807,0.08984-0.01807,0.25195-0.01807c0.50391,0,0.84619,0.34229,0.84619,0.84668
		c0,0.57617-0.46826,0.84619-0.84619,0.84619c-0.0542,0-0.84619,0-0.84619-0.91846c0-1.54834,1.22412-3.33105,3.31299-3.33105
		c2.08838,0,3.72705,1.38672,3.72705,3.45703c0,1.78271-1.0083,2.71875-3.74512,5.23975
		c-0.46826,0.43213-1.56641,1.58447-2.05273,1.99854h3.33105c0.54004,0,1.56641,0,1.69238-0.16211
		c0.18018-0.28809,0.32422-1.27832,0.37842-1.58447h0.396L234.83153,37.59838z"/>
</g>
<g>
	<path class="st1" d="M292.95068,148.56224c-0.59424,0-2.34082,0-2.82666,0.03613v-0.52197h0.55811
		c1.58447,0,1.63867-0.21631,1.63867-0.86426v-9.38086c-0.99023,0.46826-1.89063,0.46826-2.30469,0.46826v-0.52246
		c1.85449,0,2.75488-0.66602,3.18652-1.15234c0.36035,0,0.36035,0.01807,0.36035,0.43213v10.15527
		c0,0.64795,0.0542,0.86426,1.63867,0.86426h0.55811v0.52197C295.27344,148.56224,293.54492,148.56224,292.95068,148.56224z"/>
</g>
<g>
	<g>
		<polyline class="st0" points="37.78482,10.21293 37.78482,131.25694 193.81905,131.25694 		"/>
		<g>
			<polygon class="st1" points="33.0273,18.48855 34.43394,18.96706 37.78482,10.34971 41.13568,18.96706 42.54089,18.48855 
				37.78482,6.25695 			"/>
		</g>
		<g>
			<polygon class="st1" points="184.97734,135.70987 184.46608,134.39326 193.6729,131.25694 184.46608,128.12062 
				184.97734,126.80538 198.04564,131.25694 			"/>
		</g>
	</g>
</g>
<g>
	<path class="st1" d="M203.94991,136.77403c-0.99023,0-1.47656-0.75635-1.47656-1.58447c0-0.07227,0-0.28809,0.09033-0.64844
		l1.29639-5.18555h-1.4585c-0.28809,0-0.43213,0-0.43213-0.17969c0-0.34229,0.16211-0.34229,0.48584-0.34229h1.53076
		l0.70215-2.82665c0.07178-0.27051,0.23389-0.6665,0.68408-0.6665c0.34229,0,0.46826,0.27002,0.46826,0.43213
		c0,0-0.01807,0.19824-0.03613,0.23438l-0.72021,2.82665h1.42236c0.30615,0,0.43213,0,0.43213,0.19775
		c0,0.32422-0.17969,0.32422-0.48584,0.32422h-1.49463l-1.35059,5.38379c-0.07178,0.27002-0.14404,0.68408-0.14404,0.9541
		c0,0.59424,0.25244,0.72021,0.52246,0.72021c1.17041,0,1.87256-1.76416,2.08838-2.32275
		c0.09033-0.19775,0.1084-0.23389,0.30615-0.23389c0.07227,0,0.23389,0,0.23389,0.16211
		C206.61446,134.10899,205.71455,136.77403,203.94991,136.77403z"/>
</g>
<g>
	<path class="st1" d="M27.03099,87.55773c-0.59424,0-2.34082,0-2.82666,0.03613v-0.52197h0.55811
		c1.58447,0,1.63867-0.21631,1.63867-0.86426v-9.38086c-0.99023,0.46826-1.89063,0.46826-2.30469,0.46826v-0.52246
		c1.85449,0,2.75488-0.66602,3.18652-1.15234c0.36035,0,0.36035,0.01807,0.36035,0.43213v10.15527
		c0,0.64795,0.0542,0.86426,1.63867,0.86426h0.55811v0.52197C29.35374,87.55773,27.62523,87.55773,27.03099,87.55773z"/>
</g>
<g>
	<path class="st1" d="M210.97948,17.36122c-1.38623,0-2.08838-0.28809-2.08838-0.97217c0-0.57617,0.44971-0.88232,0.81006-0.88232
		c0.41406,0,0.57617,0.28809,0.57617,0.52246c0,0.25195-0.16211,0.6123-0.55812,0.77393
		c0.46777,0.19824,1.08008,0.21631,1.27832,0.21631c1.45851,0,2.14258-1.38672,2.34082-1.94482l0.57617-2.34033
		c-0.12598,0.12598-0.93652,0.9541-1.89063,0.9541c-1.18848,0-2.08887-1.04443-2.08887-2.70068
		c0-2.62891,2.08887-5.23975,3.99706-5.23975c0.82861,0,1.27881,0.6123,1.4585,1.02637h0.01807
		c0.03613-0.30615,0.27002-0.68408,0.68457-0.68408c0.32373,0,0.46777,0.23389,0.46777,0.43213c0,0,0,0.08984-0.05371,0.28809
		l-1.98096,7.95801C214.16649,16.1913,212.8159,17.36122,210.97948,17.36122z M215.15672,7.76454
		c0-0.10791-0.14404-1.67432-1.22461-1.67432c-0.79199,0-1.60205,0.93604-2.05225,2.05225
		c-0.2881,0.68457-0.82861,2.71924-0.82861,3.5835c0,0.21582,0.03613,1.62012,1.00879,1.62012
		c0.97217,0,2.07031-1.4043,2.21436-1.99854l0.82813-3.29492C215.13866,7.89052,215.15672,7.76454,215.15672,7.76454z"/>
	<path class="st1" d="M221.74461,18.2079c-0.19824,0-1.6748-1.17041-2.7373-3.33105
		c-0.93604-1.92676-1.18799-4.06934-1.18799-5.67188c0-2.21484,0.41406-4.14111,1.33252-5.95996
		c0.88184-1.76416,2.3584-3.06055,2.59277-3.06055c0.07178,0,0.16162,0.03613,0.16162,0.14404c0,0.05371,0,0.08984-0.17969,0.25195
		c-2.08887,2.12451-2.93506,5.13135-2.93506,8.62451c0,3.67334,1.0083,6.64404,2.80859,8.4624
		c0.30615,0.30615,0.30615,0.34229,0.30615,0.39648C221.90623,18.17177,221.81639,18.2079,221.74461,18.2079z"/>
	<path class="st1" d="M226.51366,13.86855c-0.99023,0-1.47656-0.75635-1.47656-1.58447c0-0.07227,0-0.28809,0.09033-0.64844
		l1.29639-5.18555h-1.4585c-0.28809,0-0.43213,0-0.43213-0.17969c0-0.34229,0.16211-0.34229,0.48584-0.34229h1.53076
		l0.70215-2.82666c0.07178-0.27051,0.23389-0.6665,0.68408-0.6665c0.34229,0,0.46826,0.27002,0.46826,0.43213
		c0,0-0.01807,0.19824-0.03613,0.23438l-0.72021,2.82666h1.42236c0.30615,0,0.43213,0,0.43213,0.19775
		c0,0.32422-0.17969,0.32422-0.48584,0.32422h-1.49463l-1.35059,5.38379c-0.07178,0.27002-0.14404,0.68408-0.14404,0.9541
		c0,0.59424,0.25244,0.72021,0.52246,0.72021c1.17041,0,1.87256-1.76416,2.08838-2.32275
		c0.09033-0.19775,0.1084-0.23389,0.30615-0.23389c0.07227,0,0.23389,0,0.23389,0.16211
		C229.17821,11.20351,228.27831,13.86855,226.51366,13.86855z"/>
	<path class="st1" d="M234.3076,15.14687c-0.88232,1.76465-2.35889,3.06104-2.59277,3.06104
		c-0.07178,0-0.16211-0.03613-0.16211-0.14404c0-0.0542,0-0.09033,0.18018-0.25244c2.08838-2.12451,2.93457-5.13135,2.93457-8.62451
		c0-3.67285-1.00781-6.64404-2.80859-8.4624c-0.30615-0.30615-0.30615-0.34229-0.30615-0.396
		c0-0.10791,0.09033-0.14404,0.16211-0.14404c0.19824,0,1.67432,1.17041,2.73682,3.33105
		c1.0083,2.08838,1.18848,4.32129,1.18848,5.68945C235.64012,11.36562,235.22606,13.31044,234.3076,15.14687z"/>
</g>
<path class="st2" d="M37.78482,131.25694V81.25695l1.43413,1.41673l1.43412,1.37664l1.43413,1.33766l1.43413,1.2998l1.43413,1.26302
	l1.43412,1.22725l1.43413,1.19252l1.43413,1.15876l1.43413,1.12595l1.43412,1.09409l1.43413,1.06313l1.43413,1.03302
	l1.43413,1.00378l1.43412,0.97536l1.43413,0.94776l1.43413,0.92093l1.43413,0.89486l1.43412,0.86953l1.43413,0.84492
	l1.43412,0.82099l1.43413,0.79776l1.43413,0.77518l1.43413,0.75323l1.43413,0.73192l1.43413,0.7112l1.43413,0.69106l1.43413,0.6715
	l1.43412,0.6525l1.43413,0.63403l1.43413,0.61607l1.43413,0.59864l1.43413,0.5817l1.43413,0.56522l1.43413,0.54923l1.43412,0.53368
	l1.43413,0.51856l1.43413,0.5039l1.43413,0.48963l1.43413,0.47577l1.43413,0.4623l1.43413,0.44922l1.43413,0.43651l1.43412,0.42414
	l1.43413,0.41214l1.43413,0.40047l1.43413,0.38913l1.43413,0.37813l1.43413,0.36742l1.43413,0.35703l1.43413,0.3469l1.43412,0.3371
	l1.43413,0.32755l1.43413,0.31828l1.43413,0.30927l1.43413,0.30051l1.43413,0.29202l1.43413,0.28374l1.43412,0.27571
	l1.43413,0.26791l1.43413,0.26032l1.43413,0.25295l1.43413,0.2458l1.43413,0.23883l1.43413,0.23208l1.43413,0.2255l1.43413,0.21912
	l1.43413,0.21292l1.43413,0.20689l1.43413,0.20103l1.43411,0.19535l1.43413,0.18981l1.43413,0.18445l1.43413,0.17922
	l1.43413,0.17414l1.43413,0.16922l1.43413,0.16443l1.43413,0.15977l1.43413,0.15526l1.43413,0.15086l1.43413,0.14658
	l1.43413,0.14244l1.43413,0.1384l1.43413,0.13449l1.43413,0.13068l1.43413,0.12698l1.43411,0.12338l1.43413,0.1199l1.43413,0.1165
	l1.43413,0.1132l1.43413,0.11l1.43413,0.10689l1.43413,0.10386l1.43413,0.10091l1.43413,0.09807l1.43413,0.09529l1.43413,0.09259
	l1.43413,0.08997l1.43413,0.08742l1.43413,0.08495l1.43413,0.08255l1.43411,0.0802"/>
<path class="st1" d="M55.06923,76.17366c0.75129-2.92941,2.73552-3.2172,3.23538-3.2172c0.90577,0,1.42682,0.5574,1.42682,1.21175
	c0,2.00546-3.08389,2.00546-3.87153,2.00546H55.06923 M55.97501,76.59475c0.55741,0,1.98425-0.03635,2.94759-0.4423
	c1.34807-0.57861,1.44198-1.71461,1.44198-1.98425c0-0.84518-0.73009-1.63586-2.05997-1.63586
	c-2.13875,0-5.04695,1.86913-5.04695,5.2378c0,1.96606,1.13905,3.4868,3.02635,3.4868c2.7537,0,4.37139-2.0418,4.37139-2.27203
	c0-0.11512-0.11513-0.25144-0.23328-0.25144c-0.09389,0-0.13329,0.03938-0.2484,0.19389
	c-1.52076,1.90548-3.62011,1.90548-3.85336,1.90548c-1.50257,0-1.67525-1.61769-1.67525-2.23266
	c0-0.23325,0.02121-0.83003,0.30899-2.00543H55.97501z"/>
<path class="st1" d="M71.62476,69.82108c0.21811,0,0.54529,0,0.54529-0.32718c0-0.33929-0.31203-0.33929-0.54529-0.33929h-8.12175
	c-0.21812,0-0.54529,0-0.54529,0.32717c0,0.33929,0.31201,0.33929,0.54529,0.33929H71.62476"/>
<path class="st1" d="M77.05341,67.51875h1.39051c0.25747,0,0.43623,0,0.43623-0.29991c0-0.19085-0.17876-0.19085-0.40909-0.19085
	h-1.29647l0.50583-2.01756c0.01222-0.06968,0.03936-0.13634,0.03936-0.19086c0-0.24538-0.19077-0.43623-0.46337-0.43623
	c-0.33929,0-0.54539,0.23022-0.63922,0.58466c-0.09694,0.34231,0.08182-0.31203-0.51804,2.05997h-1.39051
	c-0.26057,0-0.43623,0-0.43623,0.29991c0,0.19085,0.16363,0.19085,0.40909,0.19085h1.29337l-0.80266,3.21719
	c-0.08182,0.33929-0.2061,0.83006-0.2061,1.00878c0,0.8028,0.68169,1.29354,1.4603,1.29354
	c1.51149,0,2.37193-1.90849,2.37193-2.08421c0-0.17874-0.17876-0.17874-0.21811-0.17874c-0.16364,0-0.17876,0.02728-0.28772,0.26054
	c-0.38175,0.85732-1.07545,1.62072-1.82674,1.62072c-0.28481,0-0.47559-0.17571-0.47559-0.66646
	c0-0.13634,0.05448-0.42411,0.08162-0.56045L77.05341,67.51875"/>
<polyline class="st3" points="242.39989,131.25694 242.39922,31.25695 292.3999,31.25695 292.3999,131.25694 "/>
</svg>
