<?xml version="1.0" encoding="utf-8"?>
<!-- Generator: Adobe Illustrator 23.0.3, SVG Export Plug-In . SVG Version: 6.00 Build 0)  -->
<svg version="1.1" id="Layer_1" xmlns="http://www.w3.org/2000/svg" xmlns:xlink="http://www.w3.org/1999/xlink" x="0px" y="0px"
	 viewBox="0 0 230.7838 137.07787" style="enable-background:new 0 0 230.7838 137.07787;" xml:space="preserve">
<style type="text/css">
	.st0{fill:none;stroke:#8FF4DD;stroke-width:2;stroke-miterlimit:10;}
	.st1{fill:#8FF4DD;}
	.st2{fill:none;stroke:#2DE2E6;stroke-width:2;stroke-linecap:round;stroke-miterlimit:10;}
	.st3{fill:none;stroke:#F6019D;stroke-width:2;stroke-linecap:round;stroke-miterlimit:10;}
</style>
<g>
	<g>
		<g>
			<line class="st0" x1="45" y1="3.95598" x2="45" y2="120"/>
			<g>
				<polygon class="st1" points="40.54707,12.23161 41.86368,12.71011 45,4.09276 48.13632,12.71011 49.45157,12.23161 45,0 				"/>
			</g>
		</g>
	</g>
	<g>
		<g>
			<line class="st0" x1="0" y1="120" x2="216.04401" y2="120"/>
			<g>
				<polygon class="st1" points="207.7684,124.45293 207.28989,123.13632 215.90723,120 207.28989,116.86368 207.7684,115.54843 
					220,120 				"/>
			</g>
		</g>
	</g>
</g>
<g>
	<polyline class="st2" points="70,120 70,20 20,20 20,120 	"/>
	<polyline class="st3" points="95,120 95,70 195,70 195,120 	"/>
	<path class="st1" d="M7.84574,130.91223h1.40867c0.29961,0,0.45063,0,0.45063-0.29968c0-0.16516-0.15102-0.16516-0.41998-0.16516
		H7.9661c0.53792-2.13072,0.61342-2.4304,0.61342-2.52006c0-0.25484-0.17926-0.40585-0.43417-0.40585
		c-0.04485,0-0.46482,0.01653-0.59937,0.54035l-0.58518,2.38556H5.54986c-0.29976,0-0.45077,0-0.45077,0.28551
		c0,0.17934,0.12035,0.17934,0.42012,0.17934h1.32138c-1.08081,4.26144-1.13971,4.51628-1.13971,4.78528
		c0,0.80934,0.56857,1.38036,1.37801,1.38036c1.53129,0,2.38558-2.18971,2.38558-2.31004c0-0.15102-0.12036-0.15102-0.17941-0.15102
		c-0.13455,0-0.15101,0.04483-0.2241,0.21001c-0.64664,1.55969-1.44174,1.92072-1.95141,1.92072
		c-0.31381,0-0.46482-0.19585-0.46482-0.68901c0-0.36101,0.03065-0.46484,0.08955-0.72203L7.84574,130.91223"/>
	<path class="st1" d="M23.40024,133.46295c0.25476,0,0.52387,0,0.52387-0.29965c0-0.30203-0.26911-0.30203-0.52387-0.30203H15.2832
		c-0.25491,0-0.52387,0-0.52387,0.30203c0,0.29965,0.26896,0.29965,0.52387,0.29965H23.40024"/>
	<path class="st1" d="M33.02502,127.31148c0-0.35866,0-0.38934-0.34447-0.38934c-0.92965,0.96037-2.25103,0.96037-2.73004,0.96037
		v0.46484c0.29962,0,1.18456,0,1.96545-0.38934v7.77019c0,0.54036-0.0447,0.71968-1.39688,0.71968h-0.47887v0.46484
		c0.52372-0.04485,1.83104-0.04485,2.43028-0.04485c0.59937,0,1.9043,0,2.43043,0.04485v-0.46484h-0.48129
		c-1.34977,0-1.39461-0.16518-1.39461-0.71968V127.31148"/>
	<path class="st1" d="M70.44368,130.61255h1.40866c0.29961,0,0.45063,0,0.45063-0.29967c0-0.16516-0.15102-0.16516-0.41998-0.16516
		h-1.31895c0.53791-2.13074,0.61342-2.4304,0.61342-2.52007c0-0.25484-0.17926-0.40585-0.43417-0.40585
		c-0.04485,0-0.46482,0.01652-0.59937,0.54034l-0.58518,2.38557H68.1478c-0.29976,0-0.45077,0-0.45077,0.28551
		c0,0.17932,0.12035,0.17932,0.42012,0.17932h1.32137c-1.0808,4.26146-1.1397,4.5163-1.1397,4.78528
		c0,0.80936,0.56857,1.38037,1.37801,1.38037c1.53129,0,2.38557-2.18971,2.38557-2.31004c0-0.15102-0.12035-0.15102-0.17941-0.15102
		c-0.13454,0-0.15101,0.04482-0.22411,0.21001c-0.64664,1.55969-1.44173,1.9207-1.95141,1.9207
		c-0.31381,0-0.46482-0.19583-0.46482-0.689c0-0.36102,0.03065-0.46484,0.08955-0.72203L70.44368,130.61255"/>
</g>
<path class="st1" d="M95.5993,127.39404c0-0.35866,0-0.38934-0.34447-0.38934c-0.92965,0.96037-2.25103,0.96037-2.73004,0.96037
	v0.46484c0.29962,0,1.18456,0,1.96545-0.38934v7.77019c0,0.54036-0.0447,0.71968-1.39687,0.71968h-0.47887v0.46484
	c0.52372-0.04485,1.83104-0.04485,2.43028-0.04485c0.59937,0,1.9043,0,2.43043,0.04485v-0.46484h-0.48129
	c-1.34977,0-1.39462-0.16518-1.39462-0.71968L95.5993,127.39404"/>
<g>
	<path class="st1" d="M194.94901,136.99548c-1.61635,0-2.91251-1.06372-2.91251-2.35989c0-0.55261,0.3783-0.75658,0.72812-0.75658
		c0.40677,0,0.71272,0.29053,0.71272,0.71271c0,0.52534-0.42218,0.78741-0.88823,0.7139
		c0.42218,0.96175,1.61635,1.29616,2.31602,1.29616c0.7139,0,1.7041-0.50992,1.7041-2.41681c0-1.39815-0.5538-2.418-1.79185-2.418
		h-0.67003c-0.26207,0-0.33441,0-0.33441-0.14587c0-0.13043,0.05811-0.14586,0.30595-0.16008l0.4364-0.04388
		c0.39371-0.01424,0.88821-0.05811,1.32581-0.69849c0.42218-0.62613,0.46605-1.44202,0.46605-1.71951
		c0-1.42661-0.94632-1.64481-1.4278-1.64481c-0.07234,0-1.44202,0-1.99464,0.9902c0.04388-0.01424,0.07234-0.01424,0.1601-0.01424
		c0.32019,0,0.67003,0.20398,0.67003,0.66884c0,0.43759-0.34984,0.65579-0.65579,0.65579c-0.2182,0-0.67003-0.11621-0.67003-0.69849
		c0-1.06373,1.07797-1.95195,2.53423-1.95195c1.41237,0,2.60655,0.84435,2.60655,1.99464c0,1.13606-0.8147,2.1998-2.0824,2.56386
		c1.39815,0.24785,2.4761,1.29617,2.4761,2.6362C197.9635,135.66968,196.68156,136.99548,194.94901,136.99548z"/>
</g>
<path class="st1" d="M74.5328,5.76651h1.29071c0.29967,0,0.45068,0,0.45068-0.29967c0-0.16516-0.15102-0.16516-0.40585-0.16516
	h-1.24586l0.31618-1.71071c0.059-0.31384,0.269-1.38038,0.35866-1.55971c0.13686-0.28551,0.3917-0.50967,0.70553-0.50967
	c0.06136,0,0.45068,0,0.73619,0.269c-0.66068,0.06134-0.8117,0.58518-0.8117,0.8117c0,0.34449,0.27135,0.52382,0.55686,0.52382
	c0.38934,0,0.8235-0.33034,0.8235-0.899c0-0.69136-0.689-1.03587-1.30486-1.03587c-0.50967,0-1.45351,0.269-1.90421,1.75555
	c-0.08966,0.31384-0.13449,0.46485-0.49551,2.35489h-1.03587c-0.28315,0-0.44832,0-0.44832,0.28551
	c0,0.17933,0.1345,0.17933,0.42001,0.17933h0.98868l-1.12553,5.92497c-0.269,1.45587-0.52384,2.81973-1.30487,2.81973
	c-0.05899,0-0.43417,0-0.71968-0.269c0.69137-0.04483,0.82586-0.58518,0.82586-0.80935c0-0.34685-0.27135-0.52618-0.5545-0.52618
	c-0.39169,0-0.82586,0.33034-0.82586,0.90136c0,0.67485,0.66069,1.03351,1.27419,1.03351c0.82587,0,1.42519-0.88485,1.69656-1.45351
	c0.479-0.94621,0.82349-2.76074,0.84002-2.86692L74.5328,5.76651"/>
<path class="st1" d="M83.05333,15.36774c0-0.04483,0-0.07551-0.25484-0.33034c-1.87351-1.89005-2.35487-4.72628-2.35487-7.01982
	c0-2.61209,0.57101-5.22182,2.41624-7.09769c0.19347-0.17933,0.19347-0.21002,0.19347-0.25484
	c0-0.10382-0.05898-0.14866-0.14866-0.14866c-0.15101,0-1.5007,1.01935-2.38554,2.92591
	c-0.76451,1.64937-0.94621,3.31524-0.94621,4.57528c0,1.16799,0.16518,2.98489,0.99104,4.67908
	c0.89902,1.84522,2.18971,2.81973,2.34072,2.81973C82.99435,15.5164,83.05333,15.47157,83.05333,15.36774"/>
<path class="st1" d="M86.9184,5.76651h1.40866c0.29961,0,0.45063,0,0.45063-0.29967c0-0.16516-0.15102-0.16516-0.41998-0.16516
	h-1.31896c0.53792-2.13072,0.61343-2.4304,0.61343-2.52006c0-0.25484-0.17926-0.40585-0.43417-0.40585
	c-0.04485,0-0.46482,0.01652-0.59937,0.54035l-0.58518,2.38556h-1.41099c-0.29966,0-0.45068,0-0.45068,0.28551
	c0,0.17933,0.12033,0.17933,0.42001,0.17933h1.32145c-1.08076,4.26145-1.13977,4.51629-1.13977,4.78528
	c0,0.80935,0.56863,1.38037,1.37807,1.38037c1.53129,0,2.38557-2.18971,2.38557-2.31004c0-0.15101-0.12035-0.15101-0.17941-0.15101
	c-0.13455,0-0.15102,0.04482-0.22411,0.21c-0.64664,1.55969-1.44173,1.92071-1.95141,1.92071
	c-0.31381,0-0.46482-0.19584-0.46482-0.689c0-0.36102,0.03065-0.46484,0.08955-0.72203L86.9184,5.76651"/>
<path class="st1" d="M102.62392,8.31724c0.25476,0,0.52386,0,0.52386-0.29966c0-0.30203-0.2691-0.30203-0.52386-0.30203h-8.11704
	c-0.25491,0-0.52386,0-0.52386,0.30203c0,0.29966,0.26896,0.29966,0.52386,0.29966H102.62392"/>
<path class="st1" d="M112.09767,6.17237h2.52013c0.19586,0,0.7362,0,0.7362-0.51203c0-0.35866-0.31622-0.35866-0.60179-0.35866
	h-4.20003c-0.29976,0-0.88494,0-1.54563,0.70553c-0.49306,0.54035-0.91303,1.26002-0.91303,1.34969
	c0,0.01415,0,0.14864,0.17925,0.14864c0.12036,0,0.15102-0.05899,0.24072-0.17933c0.73378-1.15384,1.59034-1.15384,1.90415-1.15384
	h1.24586l-1.46998,4.81359c-0.06131,0.18169-0.15101,0.49552-0.15101,0.55687c0,0.16518,0.10616,0.4035,0.43643,0.4035
	c0.49321,0,0.56872-0.42002,0.61357-0.64417L112.09767,6.17237"/>
<path class="st1" d="M120.17696,8.01758c0-1.17036-0.16521-2.98727-0.98869-4.68145
	c-0.90126-1.84522-2.18971-2.81973-2.34073-2.81973c-0.08955,0-0.15101,0.05899-0.15101,0.14866
	c0,0.04482,0,0.07551,0.28557,0.34685c1.46997,1.4842,2.32653,3.86975,2.32653,7.00567c0,2.56488-0.55679,5.20528-2.41624,7.09532
	c-0.19586,0.17933-0.19586,0.21-0.19586,0.25484c0,0.08966,0.06145,0.14865,0.15101,0.14865
	c0.15102,0,1.50079-1.01935,2.38558-2.92356C119.9977,10.94112,120.17696,9.2776,120.17696,8.01758"/>
<path class="st1" d="M136.96323,58.38323c-0.08971,0.3917-0.43417,0.76451-0.76443,1.05003
	c-0.31622,0.27134-0.78105,0.54034-1.21521,0.54034c-0.7504,0-0.97691-0.77868-0.97691-1.38036
	c0-0.71969,0.43658-2.48938,0.84235-3.25389c0.40352-0.7362,1.05002-1.33554,1.68004-1.33554
	c0.98869,0,1.19876,1.2152,1.19876,1.29071c0,0.07315-0.03081,0.16518-0.04486,0.22417L136.96323,58.38323 M138.91222,54.64799
	c0.01662-0.08967,0.04486-0.16518,0.04486-0.269c0-0.25484-0.17926-0.40585-0.43417-0.40585
	c-0.14859,0-0.55452,0.10618-0.61583,0.64417c-0.26897-0.55449-0.79283-0.94384-1.39447-0.94384
	c-1.71069,0-3.57014,2.10006-3.57014,4.26145c0,1.48419,0.9156,2.36904,1.99626,2.36904c0.8848,0,1.59033-0.70552,1.73894-0.87069
	l0.01419,0.01651c-0.3138,1.33319-0.49306,1.94904-0.49306,1.97971c-0.06146,0.13449-0.57114,1.61869-2.16147,1.61869
	c-0.28557,0-0.77864-0.01416-1.19861-0.14865c0.44821-0.1345,0.61342-0.5262,0.61342-0.78103
	c0-0.23832-0.16521-0.52383-0.56871-0.52383c-0.33028,0-0.81171,0.26899-0.81171,0.86834c0,0.61585,0.55695,0.91552,1.99626,0.91552
	c1.8759,0,2.95428-1.17036,3.18082-2.06938L138.91222,54.64799z"/>
<path class="st1" d="M144.51396,63.90471c0-0.04483,0-0.07551-0.25476-0.33035c-1.87364-1.89005-2.35493-4.72628-2.35493-7.01982
	c0-2.61209,0.571-5.22181,2.41624-7.09769c0.19345-0.17933,0.19345-0.21002,0.19345-0.25484
	c0-0.10382-0.05905-0.14866-0.14861-0.14866c-0.15102,0-1.50078,1.01935-2.38557,2.92591
	c-0.76459,1.64936-0.94626,3.31524-0.94626,4.57528c0,1.16799,0.16521,2.98489,0.9911,4.67908
	c0.899,1.84522,2.18971,2.81974,2.34073,2.81974C144.45491,64.05337,144.51396,64.00854,144.51396,63.90471"/>
<path class="st1" d="M149.849,54.70933h2.52014c0.19586,0,0.73619,0,0.73619-0.51203c0-0.35866-0.31622-0.35866-0.60179-0.35866
	h-4.20003c-0.29976,0-0.88493,0-1.54562,0.70552c-0.49307,0.54035-0.91304,1.26002-0.91304,1.34969
	c0,0.01415,0,0.14864,0.17926,0.14864c0.12035,0,0.15102-0.05899,0.24071-0.17933c0.73378-1.15384,1.59033-1.15384,1.90414-1.15384
	h1.24588l-1.46999,4.81359c-0.06131,0.18169-0.15102,0.49553-0.15102,0.55687c0,0.16518,0.10617,0.4035,0.43643,0.4035
	c0.49323,0,0.56873-0.42001,0.61359-0.64417L149.849,54.70933"/>
<path class="st1" d="M157.92828,56.55455c0-1.17036-0.16521-2.98727-0.98869-4.68145
	c-0.90126-1.84522-2.18971-2.81973-2.34073-2.81973c-0.08955,0-0.15102,0.05899-0.15102,0.14866
	c0,0.04482,0,0.07551,0.28558,0.34685c1.46997,1.4842,2.32652,3.86975,2.32652,7.00568c0,2.56488-0.55679,5.20528-2.41623,7.09533
	c-0.19588,0.17933-0.19588,0.21-0.19588,0.25484c0,0.08966,0.06146,0.14865,0.15102,0.14865
	c0.15102,0,1.50079-1.01935,2.38559-2.92356C157.74904,59.47809,157.92828,57.81457,157.92828,56.55455"/>
<path class="st1" d="M227.52748,117.54905h2.52013c0.19586,0,0.73619,0,0.73619-0.51203c0-0.35866-0.31622-0.35866-0.60179-0.35866
	h-4.20001c-0.29977,0-0.88495,0-1.54564,0.70552c-0.49307,0.54034-0.91304,1.26003-0.91304,1.34969
	c0,0.01415,0,0.14864,0.17926,0.14864c0.12036,0,0.15102-0.05898,0.24071-0.17933c0.7338-1.15384,1.59035-1.15384,1.90416-1.15384
	h1.24586l-1.46999,4.81359c-0.06131,0.18169-0.151,0.49552-0.151,0.55686c0,0.16518,0.10616,0.4035,0.43643,0.4035
	c0.49321,0,0.56871-0.42001,0.61357-0.64417L227.52748,117.54905"/>
</svg>
