<?xml version="1.0" encoding="utf-8"?>
<!-- Generator: Adobe Illustrator 23.0.3, SVG Export Plug-In . SVG Version: 6.00 Build 0)  -->
<svg version="1.1" id="Layer_1" xmlns="http://www.w3.org/2000/svg" xmlns:xlink="http://www.w3.org/1999/xlink" x="0px" y="0px"
	 viewBox="0 0 253.5 84.9" style="enable-background:new 0 0 253.5 84.9;" xml:space="preserve">
<style type="text/css">
	.st0{fill:none;stroke:#8FF4DD;stroke-width:2;stroke-linecap:round;}
	.st1{fill:none;stroke:#8FF4DD;stroke-width:2;stroke-linecap:square;stroke-linejoin:round;}
	.st2{fill:none;stroke:#8FF4DD;stroke-width:2;stroke-linecap:round;stroke-linejoin:round;}
	.st3{fill:none;stroke:#8FF4DD;stroke-width:2;stroke-linecap:round;stroke-linejoin:round;stroke-dasharray:5,5;}
	.st4{fill:none;stroke:#8FF4DD;stroke-width:2;stroke-linecap:round;stroke-linejoin:bevel;}
	.st5{fill:none;stroke:#FD1D53;stroke-miterlimit:10;}
	.st6{fill:#FD1D53;}
	.st7{fill:none;stroke:#8FF4DD;stroke-width:2;stroke-linecap:square;}
	.st8{fill:#8FF4DD;}
</style>
<title>CurrentDivision</title>
<g>
	<circle class="st0" cx="25.4" cy="26" r="12.5"/>
	<line class="st0" x1="25.4" y1="13" x2="25.4" y2="1"/>
	<line class="st0" x1="25.4" y1="51" x2="25.4" y2="39"/>
	<path id="path1901" class="st0" d="M18.4,26c0-1.9,1.6-3.5,3.5-3.5s3.5,1.6,3.5,3.5s1.6,3.5,3.5,3.5s3.5-1.6,3.5-3.5"/>
	<g>
		<path id="path5036" class="st0" d="M100.4,51V39.9"/>
		<path id="path5038" class="st0" d="M100.4,12.1V1"/>
		<rect id="rect5044" x="94.9" y="12.1" class="st1" width="11.1" height="27.8"/>
	</g>
	<g>
		<path id="path5036_1_" class="st0" d="M150.4,51V39.9"/>
		<path id="path5038_1_" class="st0" d="M150.4,12.1V1"/>
		<rect id="rect5044_1_" x="144.9" y="12.1" class="st1" width="11.1" height="27.8"/>
	</g>
	<g>
		<path id="path5036_2_" class="st0" d="M225.4,51V39.9"/>
		<path id="path5038_2_" class="st0" d="M225.4,12.1V1"/>
		<rect id="rect5044_2_" x="219.9" y="12.1" class="st1" width="11.1" height="27.8"/>
	</g>
</g>
<g>
	<line class="st2" x1="225.4" y1="1" x2="215.4" y2="1"/>
	<g>
		<line class="st2" x1="185.4" y1="1" x2="187.9" y2="1"/>
		<line class="st3" x1="192.9" y1="1" x2="210.4" y2="1"/>
		<line class="st2" x1="212.9" y1="1" x2="215.4" y2="1"/>
	</g>
	<polyline class="st2" points="25.4,1 100.4,1 150.4,1 175.4,1 185.4,1 	"/>
	<polyline class="st4" points="225.4,51 150.4,51 100.4,51 25.4,51 	"/>
	<g>
		<polyline class="st5" points="50.4,64 50.4,26 61.3,26 		"/>
		<polygon class="st6" points="58,30.1 57.3,29.4 60.9,26 57.3,22.6 58,21.9 62.4,26 		"/>
	</g>
	<polyline class="st7" points="235.4,19 235.4,33 238.4,30 	"/>
	<g>
		<path class="st8" d="M53.4,76.1H46c-0.3,0-0.4,0-0.4-0.4c0-0.2,0-0.2,0.1-0.4l5.6-8.2h-1.8c-2,0-2.9,0.9-3,2.7h-0.7l0.2-3.4h7.2
			c0.3,0,0.4,0,0.4,0.4c0,0.2,0,0.2-0.1,0.3l-5.6,8.2h2c2.9,0,3.1-1.7,3.2-3.3h0.7L53.4,76.1z"/>
		<path class="st8" d="M56.5,80.9c-0.9,0-1.7-0.8-1.7-1.9c0-1,0.7-1.9,1.6-1.9c1,0,1.4,0.8,1.4,1.6c0,0.2,0,0.2-0.2,0.2h-2.3v0.2
			c0,1.4,0.8,1.6,1.2,1.6s0.9-0.2,1.1-0.9c0,0,0-0.1,0.1-0.1c0,0,0.1,0,0.1,0.1C57.8,80,57.4,80.9,56.5,80.9z M56.4,77.3
			c-0.2,0-0.9,0.1-1,1.4h1.9C57.3,78.5,57.3,77.3,56.4,77.3z"/>
		<path class="st8" d="M61.4,82.4c-0.2,0-0.7,0-0.9,0v-0.2c0.5,0,0.6,0,0.6-0.4v-1.5c-0.3,0.4-0.7,0.6-1.1,0.6
			c-0.9,0-1.7-0.8-1.7-1.8c0-1.1,0.8-1.8,1.7-1.8c0.6,0,0.9,0.4,1.1,0.8l0.3-0.8h0.2v4.6c0,0.4,0.1,0.4,0.6,0.4v0.2
			C62,82.4,61.6,82.4,61.4,82.4z M61.1,78.5c0-0.4-0.3-1.1-1-1.1c-0.6,0-1.2,0.7-1.2,1.7c0,0.9,0.5,1.7,1.1,1.7c0.1,0,0.4,0,0.7-0.3
			c0.2-0.2,0.3-0.4,0.3-0.7V78.5z"/>
	</g>
	<g>
		<path class="st8" d="M211.6,30.1h-7.4c-0.3,0-0.4,0-0.4-0.4c0-0.2,0-0.2,0.1-0.4l5.6-8.2h-1.8c-2,0-2.9,0.9-3,2.7h-0.7l0.2-3.4
			h7.2c0.3,0,0.4,0,0.4,0.4c0,0.2,0,0.2-0.1,0.3l-5.6,8.2h2c2.9,0,3.1-1.7,3.2-3.3h0.7L211.6,30.1z"/>
	</g>
	<g>
		<path class="st8" d="M245.8,30c-0.6,0-2,0-2.6,0v-0.7h1.6v-8.3h-1.6v-0.7c0.6,0,1.9,0,2.6,0c0.6,0,2,0,2.6,0v0.7h-1.6v8.3h1.6v0.7
			C247.8,30,246.5,30,245.8,30z"/>
	</g>
	<g>
		<path class="st8" d="M3.1,30c-0.6,0-2,0-2.6,0v-0.7h1.6v-8.3H0.5v-0.7c0.6,0,1.9,0,2.6,0c0.6,0,2,0,2.6,0v0.7H4v8.3h1.6v0.7
			C5.1,30,3.7,30,3.1,30z"/>
	</g>
</g>
<path class="st8" d="M215.7,35.9c-0.4,0-0.8-0.3-0.8-0.8c0-0.2,0-0.3,0.1-0.6c0.2-0.5,0.6-1.8,0.6-2.4c0-0.2,0-0.7-0.5-0.7
	c-1,0-1.6,1.3-1.6,1.6l-0.6,2.6c0,0.2-0.1,0.4-0.4,0.4c-0.2,0-0.3-0.1-0.3-0.3c0,0,0-0.1,0-0.2l0.8-3.1c0-0.1,0.1-0.4,0.1-0.6
	c0-0.1,0-0.4-0.3-0.4c-0.4,0-0.6,0.6-0.7,1.2c-0.1,0.2-0.1,0.3-0.2,0.3c-0.1,0-0.1,0-0.1-0.1c0,0,0.1-0.6,0.3-1
	c0.2-0.5,0.5-0.6,0.7-0.6c0.5,0,0.8,0.4,0.8,0.8c0.3-0.5,0.8-0.8,1.5-0.8c0.8,0,1,0.5,1,1.1c0,0.6-0.4,1.6-0.6,2.3
	c-0.1,0.2-0.2,0.5-0.2,0.8c0,0.2,0.1,0.3,0.2,0.3c0.6,0,0.9-0.9,1-1.3c0-0.2,0.1-0.2,0.2-0.2c0,0,0.1,0,0.1,0.1
	C217,34.3,216.6,35.9,215.7,35.9z"/>
<path class="st8" d="M252.2,35.4c-0.4,0-0.8-0.3-0.8-0.8c0-0.2,0-0.3,0.1-0.6c0.2-0.5,0.6-1.8,0.6-2.4c0-0.2,0-0.7-0.5-0.7
	c-1,0-1.6,1.3-1.6,1.6l-0.6,2.6c0,0.2-0.1,0.4-0.4,0.4c-0.2,0-0.3-0.1-0.3-0.3c0,0,0-0.1,0-0.2l0.8-3.1c0-0.1,0.1-0.4,0.1-0.6
	c0-0.1,0-0.4-0.3-0.4c-0.4,0-0.6,0.6-0.7,1.2c-0.1,0.2-0.1,0.3-0.2,0.3c-0.1,0-0.1,0-0.1-0.1c0,0,0.1-0.6,0.3-1
	c0.2-0.5,0.5-0.6,0.7-0.6c0.5,0,0.8,0.4,0.8,0.8c0.3-0.5,0.8-0.8,1.5-0.8c0.8,0,1,0.5,1,1.1c0,0.6-0.4,1.6-0.6,2.3
	c-0.1,0.2-0.2,0.5-0.2,0.8c0,0.2,0.1,0.3,0.2,0.3c0.6,0,0.9-0.9,1-1.3c0-0.2,0.1-0.2,0.2-0.2c0,0,0.1,0,0.1,0.1
	C253.5,33.8,253.2,35.4,252.2,35.4z"/>
</svg>
