<?xml version="1.0" encoding="utf-8"?>
<!-- Generator: Adobe Illustrator 23.0.3, SVG Export Plug-In . SVG Version: 6.00 Build 0)  -->
<svg version="1.1" id="Layer_1" xmlns="http://www.w3.org/2000/svg" xmlns:xlink="http://www.w3.org/1999/xlink" x="0px" y="0px"
	 viewBox="0 0 249.17139 81.81253" style="enable-background:new 0 0 249.17139 81.81253;" xml:space="preserve">
<style type="text/css">
	.st0{fill:none;stroke:#8FF4DD;stroke-width:2;stroke-linecap:round;}
	.st1{fill:none;stroke:#8FF4DD;stroke-width:2;stroke-linecap:square;stroke-linejoin:round;}
	.st2{fill:none;stroke:#8FF4DD;stroke-width:2;stroke-linecap:round;stroke-linejoin:round;}
	.st3{fill:none;stroke:#8FF4DD;stroke-width:2;stroke-linecap:round;stroke-linejoin:round;stroke-dasharray:5,5;}
	.st4{fill:#8FF4DD;}
	.st5{fill:none;stroke:#8FF4DD;stroke-width:2;stroke-linecap:round;stroke-linejoin:bevel;}
	.st6{fill:none;stroke:#FD1D53;stroke-miterlimit:10;}
	.st7{fill:#FD1D53;}
	.st8{fill:none;stroke:#8FF4DD;stroke-width:2;stroke-linecap:square;}
</style>
<title>CurrentDivision</title>
<g>
	<circle class="st0" cx="22.76123" cy="26.00003" r="12.5"/>
	<line class="st0" x1="22.76123" y1="13.00003" x2="22.76123" y2="1.00003"/>
	<line class="st0" x1="22.76123" y1="51.00003" x2="22.76123" y2="39.00003"/>
	<path id="path1901" class="st0" d="M15.76123,26c0-1.933,1.567-3.5,3.5-3.5s3.5,1.567,3.5,3.5s1.567,3.5,3.5,3.5s3.5-1.567,3.5-3.5
		"/>
	<g>
		<path id="path5036" class="st0" d="M97.76118,51V39.88889"/>
		<path id="path5038" class="st0" d="M97.76118,12.11111V1"/>
		<rect id="rect5044" x="92.20567" y="12.11111" class="st1" width="11.11111" height="27.77778"/>
	</g>
	<g>
		<path id="path5036_1_" class="st0" d="M147.76118,51V39.88889"/>
		<path id="path5038_1_" class="st0" d="M147.76118,12.11111V1"/>
		<rect id="rect5044_1_" x="142.20567" y="12.11111" class="st1" width="11.11111" height="27.77778"/>
	</g>
	<g>
		<path id="path5036_2_" class="st0" d="M222.76118,51V39.88889"/>
		<path id="path5038_2_" class="st0" d="M222.76118,12.11111V1"/>
		<rect id="rect5044_2_" x="217.20567" y="12.11111" class="st1" width="11.11111" height="27.77778"/>
	</g>
</g>
<g>
	<line class="st2" x1="222.76123" y1="1" x2="212.76123" y2="1.00003"/>
	<g>
		<line class="st2" x1="182.76123" y1="1.00003" x2="185.26123" y2="1.00003"/>
		<line class="st3" x1="190.26123" y1="1.00003" x2="207.76123" y2="1.00003"/>
		<line class="st2" x1="210.26123" y1="1.00003" x2="212.76123" y2="1.00003"/>
	</g>
	<path class="st4" d="M2.21875,29.90775c-0.55176,0-1.727,0-2.21875,0.03613V29.3804h1.36718v-7.1001H0v-0.564
		c0.4917,0.03613,1.667,0.03613,2.21875,0.03613c0.55127,0,1.72705,0,2.21875-0.03613v0.564H3.07031v7.1001H4.4375v0.56348
		C3.9458,29.90775,2.77,29.90775,2.21875,29.90775z"/>
	<g>
		<path class="st4" d="M47.66357,76.46048h-6.36914c-0.26367,0-0.38379,0-0.38379-0.312
			c-0.01184-0.11254,0.02272-0.22504,0.0957-0.31153l4.79786-7.04h-1.55957c-1.67872,0-2.48243,0.73144-2.57813,2.32666H41.103
			l0.14356-2.89063h6.165c0.252,0,0.38379,0,0.38379,0.29981c0.01136,0.10554-0.02396,0.21076-0.09668,0.28808l-4.78516,7.02783
			h1.67969c2.458,0,2.626-1.46289,2.72168-2.79443h0.56445L47.66357,76.46048z"/>
		<path class="st4" d="M50.312,80.53323c-0.86977-0.02232-1.55737-0.74442-1.5371-1.61423
			c-0.03746-0.84116,0.61303-1.55391,1.4541-1.59327c0.68465-0.00995,1.24775,0.537,1.2577,1.22166
			c0.00072,0.04942-0.00152,0.09882-0.0067,0.14797c0,0.147-0.02149,0.147-0.17481,0.147H49.355
			c-0.02479,0.36192,0.04772,0.72389,0.21,1.04834c0.16392,0.28246,0.46259,0.45971,0.78906,0.46826
			c0.44031-0.00222,0.82574-0.29618,0.94434-0.72022c0.01367-0.05566,0.02734-0.09765,0.09082-0.09765
			c0.04479-0.0051,0.08524,0.02707,0.09035,0.07186c0.00046,0.00403,0.00062,0.00809,0.00047,0.01214
			C51.34756,80.16151,50.86451,80.53707,50.312,80.53323z M50.229,77.47952c-0.23828,0-0.8252,0.17481-0.86719,1.21582h1.65625
			C51.01806,78.42288,50.94873,77.47952,50.229,77.47952z"/>
		<path class="st4" d="M54.57861,81.79153l-0.7832,0.021v-0.2168c0.46875,0,0.54589,0,0.54589-0.31445v-1.251
			c-0.20958,0.30895-0.5564,0.49657-0.92968,0.50293c-0.84511-0.02934-1.50899-0.73373-1.48828-1.5791
			c-0.00817-0.86301,0.68103-1.57117,1.54394-1.58642c0.40899,0.01255,0.7739,0.26027,0.93652,0.63574l0.26563-0.63574h0.15332
			v3.91357c0,0.31445,0.07715,0.31445,0.5459,0.31445v0.2168L54.57861,81.79153z M54.36181,78.52052
			c0-0.37012-0.293-0.978-0.85254-0.978c-0.51757,0-1.00586,0.58008-1.00586,1.41162c0,0.80371,0.42579,1.42578,0.93555,1.42578
			c0.48093-0.02419,0.87257-0.3951,0.92285-0.874L54.36181,78.52052z"/>
	</g>
	<polyline class="st2" points="22.761,1 97.761,1 147.761,1 172.761,1 182.761,1 	"/>
	<polyline class="st5" points="222.761,51 147.761,51 97.761,51 22.761,51 	"/>
	<g>
		<polyline class="st6" points="47.761,64 47.761,26 58.677,26 		"/>
		<polygon class="st7" points="55.363,30.09 54.681,29.357 58.293,26.001 54.681,22.644 55.363,21.911 59.761,26.001 		"/>
	</g>
	<polyline class="st8" points="232.761,19 232.761,33 235.761,30 	"/>
	<g>
		<path class="st4" d="M242.81494,30.25394c-0.55176,0-1.72754,0-2.21875,0.03613v-0.56348h1.36719V22.6265h-1.36719v-0.564
			c0.49121,0.03613,1.66701,0.03613,2.21875,0.03613s1.72754,0,2.21875-0.03613v0.564h-1.36719v7.10009h1.36719v0.56348
			C244.54248,30.25394,243.3667,30.25394,242.81494,30.25394z"/>
		<g>
			<path class="st4" d="M248.16406,34.35596c-0.28613,0-0.50293-0.20947-0.50293-0.54492c0-0.14697,0.02734-0.20996,0.09082-0.38428
				c0.11816-0.34277,0.42578-1.18115,0.42578-1.61475c0-0.11865,0-0.46826-0.32129-0.46826
				c-0.6709,0-1.04785,0.89453-1.08984,1.04834l-0.42676,1.71924c-0.02734,0.11865-0.09766,0.24463-0.25879,0.24463
				c-0.125,0-0.18164-0.08398-0.18164-0.16748c0-0.02832,0-0.03516,0.02832-0.13281l0.50977-2.04102
				c0.02832-0.09766,0.05664-0.25146,0.05664-0.38428c0-0.08398,0-0.28662-0.18164-0.28662
				c-0.23828,0-0.37109,0.4126-0.47559,0.82471c-0.04199,0.16113-0.04883,0.16797-0.12598,0.16797
				c-0.0625,0-0.09766-0.01416-0.09766-0.06982c0,0,0.09082-0.43359,0.22363-0.69189
				c0.14648-0.30078,0.32813-0.37061,0.48926-0.37061c0.32129,0,0.53809,0.25146,0.55859,0.56592
				c0.23145-0.31445,0.55957-0.56592,0.99316-0.56592c0.53809,0,0.69824,0.34229,0.69824,0.71289
				c0,0.40527-0.2373,1.05518-0.41895,1.56543c-0.05566,0.13965-0.13281,0.35645-0.13281,0.52393
				c0,0.16113,0.05566,0.20996,0.16016,0.20996c0.3916,0,0.58008-0.62891,0.64355-0.8667
				c0.02734-0.10498,0.03516-0.12549,0.11816-0.12549c0.02832,0,0.0918,0,0.0918,0.0625
				C249.03809,33.31494,248.81445,34.35596,248.16406,34.35596z"/>
		</g>
	</g>
	<path class="st4" d="M208.8217,29.84562h-6.36914c-0.26367,0-0.38379,0-0.38379-0.312
		c-0.01184-0.11254,0.02272-0.22505,0.0957-0.31153l4.79785-7.04h-1.55957c-1.67871,0-2.48244,0.73145-2.57813,2.32667h-0.56348
		l0.14355-2.89063h6.16499c0.25195,0,0.38379,0,0.38379,0.2998c0.01137,0.10554-0.02396,0.21078-0.09668,0.28809l-4.78516,7.02783
		h1.67969c2.45799,0,2.62601-1.46289,2.72168-2.79443h0.56445L208.8217,29.84562z"/>
	<g>
		<path class="st4" d="M212.58691,33.91162c-0.28613,0-0.50293-0.20947-0.50293-0.54492c0-0.14697,0.02734-0.20996,0.09082-0.38428
			c0.11816-0.34277,0.42578-1.18115,0.42578-1.61475c0-0.11865,0-0.46826-0.32129-0.46826
			c-0.6709,0-1.04785,0.89453-1.08984,1.04834l-0.42676,1.71924c-0.02734,0.11865-0.09766,0.24463-0.25879,0.24463
			c-0.125,0-0.18164-0.08398-0.18164-0.16748c0-0.02832,0-0.03516,0.02832-0.13281l0.50977-2.04102
			c0.02832-0.09766,0.05664-0.25146,0.05664-0.38428c0-0.08398,0-0.28662-0.18164-0.28662
			c-0.23828,0-0.37109,0.4126-0.47559,0.82471c-0.04199,0.16113-0.04883,0.16797-0.12598,0.16797
			c-0.0625,0-0.09766-0.01416-0.09766-0.06982c0,0,0.09082-0.43359,0.22363-0.69189
			c0.14648-0.30078,0.32813-0.37061,0.48926-0.37061c0.32129,0,0.53809,0.25146,0.55859,0.56592
			c0.23145-0.31445,0.55957-0.56592,0.99316-0.56592c0.53809,0,0.69824,0.34229,0.69824,0.71289
			c0,0.40527-0.2373,1.05518-0.41895,1.56543c-0.05566,0.13965-0.13281,0.35645-0.13281,0.52393
			c0,0.16113,0.05566,0.20996,0.16016,0.20996c0.3916,0,0.58008-0.62891,0.64355-0.8667
			c0.02734-0.10498,0.03516-0.12549,0.11816-0.12549c0.02832,0,0.0918,0,0.0918,0.0625
			C213.46094,32.87061,213.2373,33.91162,212.58691,33.91162z"/>
	</g>
</g>
</svg>
