<svg xmlns="http://www.w3.org/2000/svg" viewBox="0 0 249.17139 81.81253">
  <defs>
    <style>
      .cls-1, .cls-2, .cls-3, .cls-4, .cls-5, .cls-7 {
        fill: none;
      }

      .cls-1, .cls-2, .cls-3, .cls-4, .cls-7 {
        stroke: #000;
        stroke-width: 2px;
      }

      .cls-1, .cls-2, .cls-3, .cls-4 {
        stroke-linecap: round;
      }

      .cls-2 {
        stroke-linejoin: bevel;
      }

      .cls-3, .cls-4 {
        stroke-linejoin: round;
      }

      .cls-4 {
        stroke-dasharray: 5 5;
      }

      .cls-5 {
        stroke: #c1272d;
        stroke-miterlimit: 10;
      }

      .cls-6 {
        fill: #c1272d;
      }

      .cls-7 {
        stroke-linecap: square;
      }
    </style>
  </defs>
  <title>CurrentDivision</title>
  <g id="Layer_1" data-name="Layer 1">
    <circle class="cls-1" cx="22.76123" cy="26.00003" r="12.5"/>
    <line class="cls-1" x1="22.76123" y1="13.00003" x2="22.76123" y2="1.00003"/>
    <line class="cls-1" x1="22.76123" y1="51.00003" x2="22.76123" y2="39.00003"/>
    <path id="path1901" class="cls-1" d="M16.15723,26a3.5,3.5,0,1,1,7,0,3.5,3.5,0,0,0,7,0" transform="translate(-0.396)"/>
    <path id="path3970" class="cls-2" d="M98.15722,1V9.33333l-5.55555,2.77778,11.11111,5.55556L92.60167,23.22222l11.11111,5.55556L92.60167,34.33333l11.11111,5.55556-5.55555,2.77778V51" transform="translate(-0.396)"/>
    <path id="path3970-2" data-name="path3970" class="cls-2" d="M148.15722,1V9.33333l-5.55555,2.77778,11.11111,5.55556-11.11111,5.55555,11.11111,5.55556-11.11111,5.55555,11.11111,5.55556-5.55555,2.77778V51" transform="translate(-0.396)"/>
    <path id="path3970-3" data-name="path3970" class="cls-2" d="M223.15722,1V9.33333l-5.55555,2.77778,11.11111,5.55556-11.11111,5.55555,11.11111,5.55556-11.11111,5.55555,11.11111,5.55556-5.55555,2.77778V51" transform="translate(-0.396)"/>
  </g>
  <g id="Layer_2" data-name="Layer 2">
    <line class="cls-3" x1="222.76123" y1="1" x2="212.76123" y2="1.00003"/>
    <g>
      <line class="cls-3" x1="182.76123" y1="1.00003" x2="185.26123" y2="1.00003"/>
      <line class="cls-4" x1="190.26123" y1="1.00003" x2="207.76123" y2="1.00003"/>
      <line class="cls-3" x1="210.26123" y1="1.00003" x2="212.76123" y2="1.00003"/>
    </g>
    <path d="M2.61475,29.90775c-.55176,0-1.727,0-2.21875.03613V29.3804H1.76318V22.2803H.396v-.564c.4917.03613,1.667.03613,2.21875.03613.55127,0,1.72705,0,2.21875-.03613v.564H3.46631v7.1001H4.8335v.56348C4.3418,29.90775,3.166,29.90775,2.61475,29.90775Z" transform="translate(-0.396)"/>
    <g>
      <path d="M209.51416,30.29007h-6.36865c-.26367,0-.38379,0-.38379-.312a.41561.41561,0,0,1,.0957-.31153l4.79785-7.04H206.0957c-1.67871,0-2.48242.73144-2.57861,2.32666h-.56348l.144-2.89063h6.16455c.25195,0,.38379,0,.38379.29981a.36482.36482,0,0,1-.0962.28808l-4.78515,7.02783h1.6792c2.45849,0,2.62646-1.46289,2.72217-2.79443h.564Z" transform="translate(-0.396)"/>
      <path d="M213.38623,34.26517l-.78955.021v-.21679c.46826,0,.54492,0,.54492-.31446V32.1265c0-.398-.07666-.7754-.51709-.7754a1.02043,1.02043,0,0,0-.94336,1.11817v1.28564c0,.31446.07666.31446.54492.31446v.21679l-.78271-.021-.78955.021v-.21679c.46826,0,.54492,0,.54492-.31446V31.88235c0-.34277-.05566-.3916-.54492-.3916V31.274l.98535-.07666v.73388a1.10126,1.10126,0,0,1,1.03418-.73388.93242.93242,0,0,1,.73389.2583c.21679.252.21679.46826.21679,1.06933v1.335c.00684.20948.18164.20948.54493.20948v.21679Z" transform="translate(-0.396)"/>
    </g>
    <g>
      <path d="M48.05957,76.46048H41.69043c-.26367,0-.38379,0-.38379-.312a.41561.41561,0,0,1,.0957-.31153l4.79786-7.04H44.64063c-1.67872,0-2.48243.73144-2.57813,2.32666H41.499l.14356-2.89063h6.165c.252,0,.38379,0,.38379.29981a.36365.36365,0,0,1-.09668.28808l-4.78516,7.02783h1.67969c2.458,0,2.626-1.46289,2.72168-2.79443h.56445Z" transform="translate(-0.396)"/>
      <path d="M50.708,80.53323A1.578,1.578,0,0,1,49.1709,78.919a1.527,1.527,0,0,1,1.4541-1.59327,1.23981,1.23981,0,0,1,1.251,1.36963c0,.147-.02149.147-.17481.147H49.751a2.03294,2.03294,0,0,0,.21,1.04834.9408.9408,0,0,0,.78906.46826.98574.98574,0,0,0,.94434-.72022c.01367-.05566.02734-.09765.09082-.09765a.08163.08163,0,0,1,.09082.084A1.19458,1.19458,0,0,1,50.708,80.53323Zm-.083-3.05371c-.23828,0-.8252.17481-.86719,1.21582h1.65625C51.41406,78.42288,51.34473,77.47952,50.625,77.47952Z" transform="translate(-0.396)"/>
      <path d="M54.97461,81.79153l-.7832.021v-.2168c.46875,0,.54589,0,.54589-.31445v-1.251a1.147,1.147,0,0,1-.92968.50293,1.54226,1.54226,0,0,1-1.48828-1.5791,1.57178,1.57178,0,0,1,1.54394-1.58642,1.05589,1.05589,0,0,1,.93652.63574l.26563-.63574h.15332v3.91357c0,.31445.07715.31445.5459.31445v.2168Zm-.2168-3.271c0-.37012-.293-.978-.85254-.978-.51757,0-1.00586.58008-1.00586,1.41162,0,.80371.42579,1.42578.93555,1.42578a.97729.97729,0,0,0,.92285-.874Z" transform="translate(-0.396)"/>
    </g>
    <polyline class="cls-3" points="22.761 1 97.761 1 147.761 1 172.761 1 182.761 1"/>
    <polyline class="cls-2" points="222.761 51 147.761 51 97.761 51 22.761 51"/>
    <g>
      <polyline class="cls-5" points="47.761 64 47.761 26 58.677 26"/>
      <polygon class="cls-6" points="55.363 30.09 54.681 29.357 58.293 26.001 54.681 22.644 55.363 21.911 59.761 26.001 55.363 30.09"/>
    </g>
    <polyline class="cls-7" points="232.761 19 232.761 33 235.761 30"/>
    <g>
      <path d="M243.21094,30.25394c-.55176,0-1.72754,0-2.21875.03613v-.56348h1.36719V22.6265h-1.36719v-.564c.49121.03613,1.667.03613,2.21875.03613s1.72754,0,2.21875-.03613v.564H244.0625v7.10009h1.36719v.56348C244.93848,30.25394,243.7627,30.25394,243.21094,30.25394Z" transform="translate(-0.396)"/>
      <path d="M248.78418,34.26517l-.78906.021v-.21679c.46777,0,.54492,0,.54492-.31446V32.1265c0-.398-.07715-.7754-.51758-.7754a1.02043,1.02043,0,0,0-.94336,1.11817v1.28564c0,.31446.07617.31446.54492.31446v.21679l-.7832-.021-.78906.021v-.21679c.46875,0,.54492,0,.54492-.31446V31.88235c0-.34277-.05566-.3916-.54492-.3916V31.274l.98535-.07666v.73388a1.10221,1.10221,0,0,1,1.03418-.73388.93368.93368,0,0,1,.73437.2583c.2168.252.2168.46826.2168,1.06933v1.335c.00586.20948.18164.20948.54492.20948v.21679Z" transform="translate(-0.396)"/>
    </g>
  </g>
</svg>
