<svg xmlns="http://www.w3.org/2000/svg" viewBox="0 0 199.73145 198.25808">
  <defs>
    <style>
      .cls-1, .cls-3, .cls-4 {
        fill: none;
        stroke: #8ff4dd;
        stroke-width: 2px;
      }

      .cls-1, .cls-4 {
        stroke-miterlimit: 10;
      }

      .cls-2 {
        fill: #8ff4dd;
      }

      .cls-4 {
        stroke-linecap: square;
      }
    </style>
  </defs>
  <title>DemultiplexerConstruction</title>
  <g id="Layer_1" data-name="Layer 1">
    <rect class="cls-1" x="25.12597" y="27.14697" width="100" height="60"/>
    <g>
      <g>
        <path class="cls-2" d="M139.739,93.32773h-3.708c0-.23974,0-.25976.11035-.36963l1.91895-2.13916a3.58023,3.58023,0,0,0,1.0498-2.20849c0-.81983-.42969-1.6294-1.33985-1.6294a1.44116,1.44116,0,0,0-1.34863,1.01953.38611.38611,0,0,1,.12988-.00976.50545.50545,0,0,1,.52894.48082q.00091.01934.00036.03871a.52547.52547,0,1,1-1.0509.00868q-.00016-.01924.00109-.03847a1.84708,1.84708,0,0,1,1.86914-1.80908,1.96326,1.96326,0,0,1,2.113,1.80109q.00548.06883.00612.13791c0,.99951-.59961,1.53906-2.15918,2.91845l-1.05859,1.0293h1.79882a3.25186,3.25186,0,0,0,.94922-.08008,3.29255,3.29255,0,0,0,.21972-.88965h.25Z" transform="translate(-74.87402 -42.85303)"/>
        <path class="cls-2" d="M140.64131,91.45859V90.879h2.64844v.57959Z" transform="translate(-74.87402 -42.85303)"/>
        <path class="cls-2" d="M146.19014,93.4376a1.20906,1.20906,0,0,1-1.28907-1.34913v-2.7583h-.8496v-.22025c.97949-.04,1.27929-1.10939,1.28906-1.92871h.25v1.83891h1.42969v.31h-1.42969v2.77832c0,.16993,0,1.07911.66992,1.07911.37012,0,.66992-.3794.66992-1.11914v-.54981h.25v.56981C147.18039,92.72812,146.9001,93.4376,146.19014,93.4376Z" transform="translate(-74.87402 -42.85303)"/>
        <path class="cls-2" d="M150.23994,93.4376a2.22681,2.22681,0,1,1,.01358-.00009Zm1.12891-3.71778a1.30951,1.30951,0,0,0-1.12891-.6499,1.34026,1.34026,0,0,0-1.13963.66992,2.8713,2.8713,0,0,0-.23926,1.36914,2.983,2.983,0,0,0,.249,1.40918,1.30663,1.30663,0,0,0,1.13965.66944,1.28844,1.28844,0,0,0,1.15918-.73926,3.03832,3.03832,0,0,0,.21973-1.33936A2.74361,2.74361,0,0,0,151.36885,89.71982Z" transform="translate(-74.87402 -42.85303)"/>
        <path class="cls-2" d="M152.862,91.45859V90.879h2.64844v.57959Z" transform="translate(-74.87402 -42.85303)"/>
        <path class="cls-2" d="M159.78877,91.6788v.86911c0,.35987.01953.46972.75977.46972h.21v.31006c-.41015-.02978-.93945-.02978-1.35937-.02978s-.93946,0-1.3496.02978v-.31006h.21c.73924,0,.75977-.10986.75977-.46972v-.86914h-2.65821v-.31006l3.06836-4.6875c.0791-.11963.10938-.11963.19922-.11963.16016,0,.16016.05957.16016.25976v4.54737h.999v.31006Zm-.71-4.03809-2.43847,3.728h2.43847Z" transform="translate(-74.87402 -42.85303)"/>
        <path class="cls-2" d="M161.19111,91.45859V90.879h2.64844v.57959Z" transform="translate(-74.87402 -42.85303)"/>
      </g>
      <g>
        <path class="cls-2" d="M143.63106,103.29745l-1.10939.02978v-.31005c.669,0,.7793,0,.7793-.44971V97.3707c0-.48974-.08008-.56006-.7793-.56006v-.30957l1.43848-.10987v6.17627c0,.44971.11035.44971.78027.44971v.31005Z" transform="translate(-74.87402 -42.85303)"/>
        <path class="cls-2" d="M146.40157,103.29745l-1.09961.02978v-.31005c.66894,0,.77929,0,.77929-.44971V99.879c0-.48974-.08984-.5498-.73925-.5498v-.30957l1.39843-.10987v3.668c0,.38965.04.43946.7002.43946v.31005C147.10077,103.31747,146.75118,103.29745,146.40157,103.29745Zm-.05079-5.477a.52983.52983,0,1,1,.54-.52979A.53935.53935,0,0,1,146.35078,97.8204Z" transform="translate(-74.87402 -42.85303)"/>
        <path class="cls-2" d="M151.97871,103.29745l-1.1289.02978v-.31005c.66894,0,.77929,0,.77929-.44971v-2.32856c0-.56983-.11035-1.10938-.73924-1.10938a1.45982,1.45982,0,0,0-1.353,1.55934l.00337.03978v1.83887c0,.44971.11035.44971.7793.44971v.31005l-1.11914-.02978-1.12989.02978v-.31005c.66993,0,.78028,0,.78028-.44971V99.8893c0-.48976-.08007-.56006-.78028-.56006v-.30957l1.41016-.10987v1.04931a1.57425,1.57425,0,0,1,1.47852-1.04931,1.3324,1.3324,0,0,1,1.0498.36963c.30957.35987.30957.66992.30957,1.52929v1.90869c.00977.29982.25977.29982.7793.29982v.31005Z" transform="translate(-74.87402 -42.85303)"/>
        <path class="cls-2" d="M155.79023,103.4371a2.25583,2.25583,0,0,1-2.19824-2.3086,2.18358,2.18358,0,0,1,2.07813-2.2788,1.77241,1.77241,0,0,1,1.78906,1.959c0,.21-.0293.21-.25.21h-2.78809a2.90964,2.90964,0,0,0,.29981,1.499,1.34583,1.34583,0,0,0,1.12988.66944,1.408,1.408,0,0,0,1.34863-1.0293c.02051-.08007.04-.13964.12989-.13964a.1161.1161,0,0,1,.12988.11962A1.70759,1.70759,0,0,1,155.79023,103.4371Zm-.12011-4.36768c-.33985,0-1.17871.25-1.23926,1.73926H156.8C156.8,100.419,156.69938,99.06943,155.67012,99.06942Z" transform="translate(-74.87402 -42.85303)"/>
      </g>
      <g>
        <path class="cls-2" d="M136.94938,113.4376v-.65968a1.68763,1.68763,0,0,1-1.33886.65966,2.19825,2.19825,0,0,1-2.11914-2.25879,2.259,2.259,0,0,1,2.22852-2.26856,1.596,1.596,0,0,1,1.25976.61963v-2.15869c0-.48975-.08008-.56006-.78028-.56006v-.30957l1.43946-.10986v6.0664c0,.48975.08008.55957.78027.55957v.31Zm0-3.33789a.47709.47709,0,0,0-.11035-.37012,1.29528,1.29528,0,0,0-1.07911-.59961,1.37444,1.37444,0,0,0-1.1289.63965,3.43464,3.43464,0,0,0-.0205,2.80859,1.24282,1.24282,0,0,0,1.04979.63964,1.39122,1.39122,0,0,0,1.17872-.6997.47652.47652,0,0,0,.11035-.36963Z" transform="translate(-74.87402 -42.85303)"/>
        <path class="cls-2" d="M141.18965,113.4376a2.25585,2.25585,0,0,1-2.19824-2.3086,2.18358,2.18358,0,0,1,2.07811-2.27881,1.77233,1.77233,0,0,1,1.78907,1.959c0,.21-.02929.21-.25.21H139.8205a2.90956,2.90956,0,0,0,.29981,1.499,1.34587,1.34587,0,0,0,1.12989.66944,1.408,1.408,0,0,0,1.34863-1.0293c.02051-.08008.04-.13965.12988-.13965a.11612.11612,0,0,1,.12989.11963A1.70758,1.70758,0,0,1,141.18965,113.4376Zm-.12013-4.36768c-.33984,0-1.17871.25-1.23925,1.73925h2.36911C142.19938,110.41952,142.09883,109.06992,141.06952,109.06992Z" transform="translate(-74.87402 -42.85303)"/>
        <path class="cls-2" d="M145.63984,113.4376a2.21185,2.21185,0,0,1-2.14843-2.26856,2.24028,2.24028,0,0,1,2.15922-2.31852l.00971-.00033c.76954,0,1.5293.38965,1.5293,1.06934a.46.46,0,1,1-.91985.01647l-.00007-.00622a.4516.4516,0,0,1,.44277-.46028q.01349-.00027.027.00028a1.62845,1.62845,0,0,0-1.06935-.36963c-.52929,0-1.34961.41944-1.34961,2.04883,0,1.60889.87989,2.03858,1.40918,2.03858a1.3052,1.3052,0,0,0,1.30957-1.04932c.02051-.06.04-.09961.12989-.09961.03028,0,.12989,0,.12989.09961A1.644,1.644,0,0,1,145.63984,113.4376Z" transform="translate(-74.87402 -42.85303)"/>
        <path class="cls-2" d="M150.0793,113.4376a2.22647,2.22647,0,1,1,.01483-.0001Zm1.12988-3.71778a1.30993,1.30993,0,0,0-1.12988-.6499,1.34,1.34,0,0,0-1.13867.66992,2.86086,2.86086,0,0,0-.24024,1.36914,2.97269,2.97269,0,0,0,.25,1.40918,1.3055,1.3055,0,0,0,1.13965.66944,1.2895,1.2895,0,0,0,1.15918-.73926,3.03861,3.03861,0,0,0,.21973-1.33936A2.74352,2.74352,0,0,0,151.20918,109.71982Z" transform="translate(-74.87402 -42.85303)"/>
        <path class="cls-2" d="M156.66914,113.4376v-.65968a1.68764,1.68764,0,0,1-1.33887.65966,2.19827,2.19827,0,0,1-2.11914-2.25879,2.259,2.259,0,0,1,2.22852-2.26856,1.596,1.596,0,0,1,1.25976.61963v-2.15869c0-.48975-.08007-.56006-.78027-.56006v-.30957l1.43945-.10986v6.0664c0,.48975.08008.55957.78028.55957v.31Zm0-3.33789a.47712.47712,0,0,0-.11035-.37012,1.29528,1.29528,0,0,0-1.0791-.59961,1.37444,1.37444,0,0,0-1.12891.63965,3.43468,3.43468,0,0,0-.02049,2.80859,1.24281,1.24281,0,0,0,1.0498.63964,1.39119,1.39119,0,0,0,1.17871-.6997.47657.47657,0,0,0,.11036-.36963Z" transform="translate(-74.87402 -42.85303)"/>
        <path class="cls-2" d="M160.90939,113.4376a2.25584,2.25584,0,0,1-2.19824-2.3086,2.18357,2.18357,0,0,1,2.07812-2.27881,1.77241,1.77241,0,0,1,1.78907,1.959c0,.21-.0293.21-.25.21h-2.78809a2.90965,2.90965,0,0,0,.2998,1.499,1.34591,1.34591,0,0,0,1.12989.66944,1.408,1.408,0,0,0,1.34863-1.0293c.02051-.08008.04-.13965.12988-.13965a.11611.11611,0,0,1,.12989.11963A1.70758,1.70758,0,0,1,160.90939,113.4376Zm-.12013-4.36768c-.33985,0-1.17871.25-1.23926,1.73925h2.36914C161.91914,110.41952,161.81856,109.06992,160.78926,109.06992Z" transform="translate(-74.87402 -42.85303)"/>
        <path class="cls-2" d="M166.0793,109.95956a.41406.41406,0,0,1-.42969-.39782q-.00061-.01593,0-.03186a.432.432,0,0,1,.23047-.38965.24972.24972,0,0,0-.11035-.01025c-.75977,0-1.17969.88965-1.17969,1.8789v1.539c0,.35987.02051.46972.75977.46972h.21v.31006c-.39941-.02978-.86914-.02978-1.26953-.02978l-1.13867.02978v-.31006c.66894,0,.7793,0,.7793-.4497V109.8897c0-.48974-.08008-.56005-.7793-.56005v-.30957l1.38867-.10987v1.09912a1.39944,1.39944,0,0,1,1.22949-1.09912.68153.68153,0,0,1,.73926.60938.42022.42022,0,0,1-.39987.43962Q166.09424,109.95993,166.0793,109.95956Z" transform="translate(-74.87402 -42.85303)"/>
      </g>
    </g>
    <g>
      <path class="cls-2" d="M213.88889,143.88889v22.22222h11.37566a11.11111,11.11111,0,0,0,0-22.22222Zm1.5873,1.5873h9.78836A9.19008,9.19008,0,0,1,234.52381,155,9.40935,9.40935,0,0,1,225,164.52381h-9.52381Z" transform="translate(-74.87402 -42.85303)"/>
      <line class="cls-3" x1="161.12598" y1="112.14697" x2="175.12598" y2="112.14697"/>
      <line class="cls-3" x1="140.12598" y1="106.14697" x2="125.12598" y2="106.14697"/>
      <line class="cls-3" x1="140.12598" y1="118.14697" x2="125.12598" y2="118.14697"/>
    </g>
    <g>
      <path class="cls-2" d="M213.88889,168.88889v22.22222h11.37566a11.11111,11.11111,0,0,0,0-22.22222Zm1.5873,1.5873h9.78836A9.19008,9.19008,0,0,1,234.52381,180,9.40935,9.40935,0,0,1,225,189.52381h-9.52381Z" transform="translate(-74.87402 -42.85303)"/>
      <line class="cls-3" x1="161.12598" y1="137.14697" x2="175.12598" y2="137.14697"/>
      <line class="cls-3" x1="140.12598" y1="131.14697" x2="125.12598" y2="131.14697"/>
      <line class="cls-3" x1="140.12598" y1="143.14697" x2="125.12598" y2="143.14697"/>
    </g>
    <g>
      <path class="cls-2" d="M213.88889,193.88889v22.22222h11.37566a11.11111,11.11111,0,0,0,0-22.22222Zm1.5873,1.5873h9.78836A9.19008,9.19008,0,0,1,234.52381,205,9.40935,9.40935,0,0,1,225,214.52381h-9.52381Z" transform="translate(-74.87402 -42.85303)"/>
      <line class="cls-3" x1="161.12598" y1="162.14697" x2="175.12598" y2="162.14697"/>
      <line class="cls-3" x1="140.12598" y1="156.14697" x2="125.12598" y2="156.14697"/>
      <line class="cls-3" x1="140.12598" y1="168.14697" x2="125.12598" y2="168.14697"/>
    </g>
    <g>
      <path class="cls-2" d="M213.88889,218.88889v22.22222h11.37566a11.11111,11.11111,0,0,0,0-22.22222Zm1.5873,1.5873h9.78836A9.19008,9.19008,0,0,1,234.52381,230,9.40935,9.40935,0,0,1,225,239.52381h-9.52381Z" transform="translate(-74.87402 -42.85303)"/>
      <line class="cls-3" x1="161.12598" y1="187.14697" x2="175.12598" y2="187.14697"/>
      <line class="cls-3" x1="140.12598" y1="181.14697" x2="125.12598" y2="181.14697"/>
      <line class="cls-3" x1="140.12598" y1="193.14697" x2="125.12598" y2="193.14697"/>
    </g>
  </g>
  <g id="Layer_2" data-name="Layer 2">
    <line class="cls-4" x1="175.12598" y1="112.14697" x2="190.12598" y2="112.14697"/>
    <line class="cls-4" x1="175.12598" y1="137.14697" x2="190.12598" y2="137.14697"/>
    <line class="cls-4" x1="175.12598" y1="162.14697" x2="190.12598" y2="162.14697"/>
    <line class="cls-4" x1="175.12598" y1="187.14697" x2="190.12598" y2="187.14697"/>
    <polyline class="cls-4" points="105.126 87.147 105.126 118.147 125.126 118.147"/>
    <polyline class="cls-4" points="85.126 87.147 85.126 143.147 125.126 143.147"/>
    <polyline class="cls-4" points="65.126 87.147 65.126 168.147 125.126 168.147"/>
    <polyline class="cls-4" points="45.126 87.147 45.126 193.147 125.126 193.147"/>
    <line class="cls-4" x1="125.12598" y1="106.14697" x2="10.12598" y2="106.14697"/>
    <polyline class="cls-4" points="125.126 181.147 25.126 181.147 25.126 156.147 125.126 156.147"/>
    <polyline class="cls-4" points="25.126 156.147 25.126 131.147 125.126 131.147"/>
    <line class="cls-4" x1="25.12597" y1="131.14697" x2="25.12597" y2="106.14697"/>
    <line class="cls-4" x1="55.12598" y1="27.14697" x2="55.12598" y2="12.14697"/>
    <line class="cls-4" x1="95.12598" y1="27.14697" x2="95.12598" y2="12.14697"/>
    <circle class="cls-2" cx="25.12598" cy="106.14697" r="2.5"/>
    <circle class="cls-2" cx="25.12598" cy="131.14697" r="2.5"/>
    <circle class="cls-2" cx="25.12598" cy="156.14697" r="2.5"/>
    <path class="cls-2" d="M79.7417,152.89893H75.13379c-.20947,0-.25977,0-.25977-.16993,0-.08007,0-.08984.07032-.1997l3.88769-6.147H77.2627c-1.63916,0-1.939.80957-2.00879,1.939h-.25l.11035-2.24854H79.5918c.1997,0,.25976,0,.25976.15967,0,.07031,0,.08008-.07031.18994l-3.87744,6.13672h1.63867c1.84912,0,2.03906-.93945,2.11914-2.32861h.24951Z" transform="translate(-74.87402 -42.85303)"/>
    <g>
      <path class="cls-2" d="M169.333,50.11865a2.50476,2.50476,0,0,1-1.83936-.6997c-.32959.52978-.35986.56982-.35986.56982-.06983.10986-.07959.12988-.1499.12988-.10987,0-.10987-.06982-.10987-.23974v-1.999c0-.17968,0-.24951.12989-.24951a.104.104,0,0,1,.12011.09961,2.0213,2.0213,0,0,0,.61963,1.53906,2.41159,2.41159,0,0,0,1.5791.54,1.37054,1.37054,0,0,0,1.33936-1.4292,1.45885,1.45885,0,0,0-.31006-.91943,1.32538,1.32538,0,0,0-.84912-.50977c-.69971-.16992-1.20947-.29-1.31934-.33007a1.93587,1.93587,0,0,1,.63965-3.76758,2.058,2.058,0,0,1,1.59912.69922l.34961-.56934c.06983-.12012.08008-.12988.14991-.12988.10986,0,.10986.06982.10986.23974v2.00879c0,.18994,0,.23975-.12988.23975-.10987,0-.10987-.06006-.11963-.11963-.06006-.44971-.28028-2.08887-1.94922-2.08887a1.3064,1.3064,0,0,0-.30957,2.57862l1.27929.30957a2.045,2.045,0,0,1,1.499,2.019A2.00367,2.00367,0,0,1,169.333,50.11865Z" transform="translate(-74.87402 -42.85303)"/>
      <path class="cls-2" d="M174.34033,52.68115a1.08973,1.08973,0,0,1-1.97607.0874,2.94952,2.94952,0,0,1-.26221-1.40478,3.11768,3.11768,0,0,1,.21533-1.32324,1.06867,1.06867,0,0,1,1.01416-.69336A1.08084,1.08084,0,0,1,174.32275,50a4.123,4.123,0,0,1,.01758,2.68115Zm-.32666-2.52392c-.11084-.57715-.4956-.68213-.688-.68213-.1455,0-.58252.05273-.69336.74609a7.78349,7.78349,0,0,0-.04687,1.07276,7.90916,7.90916,0,0,0,.06445,1.23c.105.55957.44873.70507.67578.70507.2627,0,.59473-.1748.68213-.72851a11.28106,11.28106,0,0,0,.00586-2.34326Z" transform="translate(-74.87402 -42.85303)"/>
    </g>
    <g>
      <path class="cls-2" d="M129.333,50.11865a2.50476,2.50476,0,0,1-1.83936-.6997c-.32959.52978-.35986.56982-.35986.56982-.06983.10986-.07959.12988-.1499.12988-.10987,0-.10987-.06982-.10987-.23974v-1.999c0-.17968,0-.24951.12989-.24951a.104.104,0,0,1,.12011.09961,2.0213,2.0213,0,0,0,.61963,1.53906,2.41159,2.41159,0,0,0,1.5791.54,1.37054,1.37054,0,0,0,1.33936-1.4292,1.45885,1.45885,0,0,0-.31006-.91943,1.32538,1.32538,0,0,0-.84912-.50977c-.69971-.16992-1.20947-.29-1.31934-.33007a1.93587,1.93587,0,0,1,.63965-3.76758,2.058,2.058,0,0,1,1.59912.69922l.34961-.56934c.06983-.12012.08008-.12988.14991-.12988.10986,0,.10986.06982.10986.23974v2.00879c0,.18994,0,.23975-.12988.23975-.10987,0-.10987-.06006-.11963-.11963-.06006-.44971-.28028-2.08887-1.94922-2.08887a1.3064,1.3064,0,0,0-.30957,2.57862l1.27929.30957a2.045,2.045,0,0,1,1.499,2.019A2.00367,2.00367,0,0,1,129.333,50.11865Z" transform="translate(-74.87402 -42.85303)"/>
      <path class="cls-2" d="M133.37256,53.21143c-.2334,0-.74024,0-.94434.01757v-.18066h.18653c.52441,0,.542-.06982.542-.27979V49.749a1.74294,1.74294,0,0,1-.76367.15186v-.18067a1.4405,1.4405,0,0,0,1.061-.373c.13428,0,.13428.01123.13428.15137v3.27c0,.21583.01709.27979.542.27979h.18652V53.229C134.11279,53.21143,133.60547,53.21143,133.37256,53.21143Z" transform="translate(-74.87402 -42.85303)"/>
    </g>
    <g>
      <path class="cls-2" d="M270.11328,182.86914c-.3789,0-1.16894,0-1.51953.02979v-.31006h.25977c.79,0,.82031-.10987.82031-.46973v-5.26709c0-.35937-.03028-.46973-.82031-.46973h-.25977v-.30957c.35059.02979,1.14063.02979,1.5293.02979.38086,0,1.16992,0,1.51953-.02979v.30957h-.25977c-.78906,0-.82031.11036-.82031.46973v5.26709c0,.35986.03125.46973.82031.46973h.25977v.31006C271.293,182.86914,270.50391,182.86914,270.11328,182.86914Z" transform="translate(-74.87402 -42.85303)"/>
      <path class="cls-2" d="M273.42188,186.21143c-.23243,0-.74024,0-.94336.01757v-.18066h.18554c.52539,0,.543-.06982.543-.27979V182.749a1.74516,1.74516,0,0,1-.76367.15186v-.18067a1.44066,1.44066,0,0,0,1.06055-.373c.13476,0,.13476.01123.13476.15137v3.27c0,.21583.0166.27979.541.27979h.1875v.18066C274.16211,186.21143,273.65527,186.21143,273.42188,186.21143Z" transform="translate(-74.87402 -42.85303)"/>
    </g>
    <g>
      <path class="cls-2" d="M270.11328,157.86914c-.3789,0-1.16894,0-1.51953.02979v-.31006h.25977c.79,0,.82031-.10987.82031-.46973v-5.26709c0-.35937-.03028-.46973-.82031-.46973h-.25977v-.30957c.35059.02979,1.14063.02979,1.5293.02979.38086,0,1.16992,0,1.51953-.02979v.30957h-.25977c-.78906,0-.82031.11036-.82031.46973v5.26709c0,.35986.03125.46973.82031.46973h.25977v.31006C271.293,157.86914,270.50391,157.86914,270.11328,157.86914Z" transform="translate(-74.87402 -42.85303)"/>
      <path class="cls-2" d="M274.39063,160.68115a1.07831,1.07831,0,0,1-1.01563.67627,1.06688,1.06688,0,0,1-.96094-.58887,2.949,2.949,0,0,1-.26172-1.40478,3.11735,3.11735,0,0,1,.21485-1.32324,1.06809,1.06809,0,0,1,1.01367-.69336,1.08158,1.08158,0,0,1,.99219.65283,4.13156,4.13156,0,0,1,.01758,2.68115Zm-.32715-2.52392c-.11035-.57715-.49512-.68213-.68848-.68213-.14453,0-.582.05273-.69336.74609a7.78349,7.78349,0,0,0-.04687,1.07276,7.90916,7.90916,0,0,0,.06445,1.23c.10547.55957.44922.70507.67578.70507.26367,0,.5957-.1748.68262-.72851a11.37386,11.37386,0,0,0,.00586-2.34326Z" transform="translate(-74.87402 -42.85303)"/>
    </g>
    <g>
      <path class="cls-2" d="M270.11328,207.86914c-.3789,0-1.16894,0-1.51953.02979v-.31006h.25977c.79,0,.82031-.10987.82031-.46973v-5.26709c0-.35937-.03028-.46973-.82031-.46973h-.25977v-.30957c.35059.02979,1.14063.02979,1.5293.02979.38086,0,1.16992,0,1.51953-.02979v.30957h-.25977c-.78906,0-.82031.11036-.82031.46973v5.26709c0,.35986.03125.46973.82031.46973h.25977v.31006C271.293,207.86914,270.50391,207.86914,270.11328,207.86914Z" transform="translate(-74.87402 -42.85303)"/>
      <path class="cls-2" d="M274.37891,211.229h-2.16309c0-.14013,0-.15136.06348-.21582l1.11914-1.24707a2.08568,2.08568,0,0,0,.61328-1.28857c0-.47754-.252-.94971-.78125-.94971a.84042.84042,0,0,0-.78711.59424.2231.2231,0,0,1,.07617-.00586.29541.29541,0,0,1,.3086.30322.30649.30649,0,1,1-.61231-.01757,1.07635,1.07635,0,0,1,1.08984-1.05469,1.14421,1.14421,0,0,1,1.23536,1.13037c0,.583-.34961.898-1.25879,1.70215l-.61817.60058h1.04981a.46749.46749,0,0,0,.68164-.56543h.14551Z" transform="translate(-74.87402 -42.85303)"/>
    </g>
    <g>
      <path class="cls-2" d="M270.11328,232.86914c-.3789,0-1.16894,0-1.51953.02979v-.31006h.25977c.79,0,.82031-.10987.82031-.46973v-5.26709c0-.35937-.03028-.46973-.82031-.46973h-.25977v-.30957c.35059.02979,1.14063.02979,1.5293.02979.38086,0,1.16992,0,1.51953-.02979v.30957h-.25977c-.78906,0-.82031.11036-.82031.46973v5.26709c0,.35986.03125.46973.82031.46973h.25977v.31006C271.293,232.86914,270.50391,232.86914,270.11328,232.86914Z" transform="translate(-74.87402 -42.85303)"/>
      <path class="cls-2" d="M273.34668,236.35742a1.06321,1.06321,0,0,1-1.17773-.91553.32675.32675,0,1,1,.65332-.01123.31955.31955,0,0,1-.38477.32032,1.05931,1.05931,0,0,0,.8916.44287c.25684,0,.65918-.16895.65918-.96143,0-.57129-.2168-.96777-.69433-.96777h-.25684c-.09863,0-.13867,0-.13867-.064,0-.05859.04-.06445.08691-.06982.04,0,.18067-.01172.22754-.01758a.56489.56489,0,0,0,.51856-.30322,1.45725,1.45725,0,0,0,.16308-.66455c0-.52442-.32031-.65283-.55957-.65283a.94456.94456,0,0,0-.77539.36132c.08691,0,.36133,0,.36133.29151a.29739.29739,0,1,1-.59473-.00586c0-.44287.44336-.79248,1.03223-.79248.55957,0,1.07226.32617,1.07226.8042a1.05606,1.05606,0,0,0,.15723,2.08105A1.189,1.189,0,0,1,273.34668,236.35742Z" transform="translate(-74.87402 -42.85303)"/>
    </g>
  </g>
</svg>
