<svg id="Layer_1" data-name="Layer 1" xmlns="http://www.w3.org/2000/svg" viewBox="0 0 227.7662 189.25175">
  <defs>
    <style>
      .cls-1, .cls-3, .cls-4, .cls-5, .cls-6 {
        fill: none;
        stroke: #8ff4dd;
      }

      .cls-1, .cls-5, .cls-6 {
        stroke-miterlimit: 10;
      }

      .cls-1, .cls-3, .cls-5 {
        stroke-width: 2px;
      }

      .cls-2 {
        fill: #8ff4dd;
      }

      .cls-4 {
        stroke-width: 1.5px;
      }

      .cls-5 {
        stroke-linecap: square;
      }

      .cls-6 {
        stroke-width: 0.5px;
      }
    </style>
  </defs>
  <title>DFlipFlopConstruction</title>
  <g>
    <rect class="cls-1" x="87.7662" y="10.73214" width="30" height="30"/>
    <line class="cls-1" x1="87.7662" y1="15.73214" x2="77.7662" y2="15.73214"/>
    <line class="cls-1" x1="87.7662" y1="35.73214" x2="77.7662" y2="35.73214"/>
    <line class="cls-1" x1="127.7662" y1="15.73214" x2="117.7662" y2="15.73214"/>
    <line class="cls-1" x1="127.7662" y1="35.73214" x2="117.7662" y2="35.73214"/>
    <path class="cls-2" d="M93.00586,18.46181H90.07959v-.248h.19189c.61572,0,.63184-.08789.63184-.376V13.6249c0-.28809-.01612-.376-.63184-.376h-.19189v-.248h2.92627a2.62353,2.62353,0,0,1,2.44677,2.77441A2.56821,2.56821,0,0,1,93.0083,18.4617Zm1.23144-4.46972a1.72439,1.72439,0,0,0-1.45508-.74317h-.79979c-.37549,0-.39161.05567-.39161.31934v4.32619c0,.26367.01612.31934.39161.31934H92.79a1.75265,1.75265,0,0,0,1.42334-.67968,2.74307,2.74307,0,0,0,.43994-1.75879A3.09258,3.09258,0,0,0,94.2373,13.99209Z" transform="translate(0.00009 0.00069)"/>
    <g>
      <path class="cls-2" d="M94.71191,38.30945h-4.6138v-.248H90.29c.61573,0,.63183-.08789.63183-.376V33.496c0-.2881-.01611-.376-.63183-.376h-.1919v-.248h4.5015l.22412,1.79981H94.624c-.12793-1.11133-.34375-1.55176-1.56739-1.55176H92.02539c-.376,0-.39209.05664-.39209.32031v1.919H92.353c.77588,0,.86377-.248.86377-.93555h.19971v2.11908h-.19971c0-.67969-.08789-.93555-.86377-.93555H91.6333v2.13478c0,.26367.01612.31934.39209.31934h1.06347c1.375,0,1.55909-.584,1.75879-1.81446h.20021Z" transform="translate(0.00009 0.00069)"/>
      <path class="cls-2" d="M98.66455,38.28506l-.90381.02441v-.248c.53564,0,.624,0,.624-.35938v-1.8633c0-.45606-.08838-.8877-.59179-.8877a1.16817,1.16817,0,0,0-1.08223,1.24817l.00264.03113v1.47168c0,.35938.08789.35938.62353.35938v.248l-.89551-.02441-.90327.02443v-.248c.53565,0,.62355,0,.62355-.35938V35.55945c0-.39258-.064-.44824-.62355-.44824v-.248l1.12744-.08789v.83985a1.2599,1.2599,0,0,1,1.18312-.83985,1.06784,1.06784,0,0,1,.83984.2959c.24756.28809.24756.53613.24756,1.22363V37.8222c.0083.23926.208.23926.624.23926v.248Z" transform="translate(0.00009 0.00069)"/>
    </g>
    <rect class="cls-1" x="187.7662" y="10.73214" width="30" height="30"/>
    <line class="cls-1" x1="187.7662" y1="15.73214" x2="177.7662" y2="15.73214"/>
    <line class="cls-1" x1="187.7662" y1="35.73214" x2="177.7662" y2="35.73214"/>
    <line class="cls-1" x1="227.7662" y1="15.73214" x2="217.7662" y2="15.73214"/>
    <line class="cls-1" x1="227.7662" y1="35.73214" x2="217.7662" y2="35.73214"/>
    <path class="cls-2" d="M193.00586,18.46181h-2.92627v-.248h.19189c.61572,0,.63184-.08789.63184-.376V13.6249c0-.28809-.01612-.376-.63184-.376h-.19189v-.248h2.92627a2.62354,2.62354,0,0,1,2.44677,2.77441,2.56821,2.56821,0,0,1-2.44433,2.68639Zm1.23144-4.46972a1.72439,1.72439,0,0,0-1.45508-.74317h-.7998c-.37549,0-.3916.05567-.3916.31934v4.32619c0,.26367.01611.31934.3916.31934H192.79a1.75267,1.75267,0,0,0,1.42334-.67968,2.74307,2.74307,0,0,0,.43994-1.75879A3.09258,3.09258,0,0,0,194.2373,13.99209Z" transform="translate(0.00009 0.00069)"/>
    <g>
      <path class="cls-2" d="M194.71191,38.30945h-4.6138v-.248H190.29c.61573,0,.63184-.08789.63184-.376V33.496c0-.2881-.01611-.376-.63184-.376h-.19189v-.248h4.5015l.22412,1.79981H194.624c-.12793-1.11133-.34375-1.55176-1.56738-1.55176h-1.03125c-.376,0-.39209.05664-.39209.32031v1.919h.71972c.77588,0,.86377-.248.86377-.93555h.19971v2.11908h-.19971c0-.67969-.08789-.93555-.86377-.93555h-.71972v2.13478c0,.26367.01611.31934.39209.31934h1.06347c1.375,0,1.5591-.584,1.75879-1.81446h.2002Z" transform="translate(0.00009 0.00069)"/>
      <path class="cls-2" d="M198.66455,38.28506l-.90381.02441v-.248c.53564,0,.624,0,.624-.35938v-1.8633c0-.45606-.08838-.8877-.5918-.8877a1.16816,1.16816,0,0,0-1.08223,1.24817l.00264.03113v1.47168c0,.35938.0879.35938.62354.35938v.248l-.89551-.02441-.90327.02443v-.248c.53564,0,.62353,0,.62353-.35938V35.55945c0-.39258-.064-.44824-.62353-.44824v-.248l1.12744-.08789v.83985a1.25987,1.25987,0,0,1,1.1831-.83985,1.06785,1.06785,0,0,1,.83985.2959c.24756.28809.24756.53613.24756,1.22363V37.8222c.0083.23926.208.23926.624.23926v.248Z" transform="translate(0.00009 0.00069)"/>
    </g>
    <g>
      <path class="cls-3" d="M143.96011,60.73145h8.806m-36,0h-14" transform="translate(0.00009 0.00069)"/>
      <path class="cls-2" d="M116.06434,48.27752V73.18538l1.1985-.59057L140.069,61.47834V59.98455L117.26284,48.86808Zm1.66747,2.67489,20.07916,9.779-20.07915,9.779Z" transform="translate(0.00009 0.00069)"/>
      <path class="cls-4" d="M143.87292,60.73145a2.2233,2.2233,0,1,1-2.2233-2.2233h0A2.22331,2.22331,0,0,1,143.87292,60.73145Z" transform="translate(0.00009 0.00069)"/>
    </g>
    <g>
      <path class="cls-3" d="M68.96011,35.73145h8.806m-36,0h-14" transform="translate(0.00009 0.00069)"/>
      <path class="cls-2" d="M41.06435,23.27752V48.18538l1.1985-.59056L65.069,36.47834V34.98456L42.26285,23.86808Zm1.66747,2.67489,20.07915,9.779-20.07915,9.779Z" transform="translate(0.00009 0.00069)"/>
      <path class="cls-4" d="M68.87292,35.73145a2.2233,2.2233,0,1,1-2.2233-2.2233h0A2.2233,2.2233,0,0,1,68.87292,35.73145Z" transform="translate(0.00009 0.00069)"/>
    </g>
  </g>
  <g>
    <polyline class="cls-5" points="102.766 60.732 77.766 60.732 77.766 35.732"/>
    <polyline class="cls-5" points="152.766 60.732 152.766 35.732 177.766 35.732"/>
    <line class="cls-5" x1="177.7662" y1="15.73214" x2="127.7662" y2="15.73214"/>
    <line class="cls-5" x1="78.7662" y1="15.73214" x2="28.7662" y2="15.73214"/>
    <path class="cls-2" d="M127.68312,7.08936l-1.9292,3.13818v1.92871c0,.39014.03027.48975.7998.48975h.23v.31006c-.35987-.02979-1.06934-.02979-1.45947-.02979-.38965,0-1.09914,0-1.459.02979V12.646h.23974c.76953,0,.78955-.10986.78955-.46973V10.22754l-2.09863-3.418c-.16016-.25977-.24023-.37012-.91943-.37012h-.18018V6.12985l1.29932.02978c.38965,0,1.11963,0,1.479-.02978v.3096c-.44971,0-.69922.04-.69922.25,0,.0498,0,.06982.06983.16992l1.80908,2.94824,1.64892-2.67822a.62553.62553,0,0,0,.1001-.29981c0-.20019-.16015-.39013-.56982-.39013V6.12988l1.14941.02978c.27,0,.66944-.00976.97949-.02978v.30957A1.38286,1.38286,0,0,0,127.68312,7.08936Z" transform="translate(0.00009 0.00069)"/>
    <g>
      <path class="cls-2" d="M94.94189,7.01612c-.38965,0-1.06933,0-1.43848.02978V6.73584h.23926c.76953,0,.79-.10986.79-.46972V.5293h-.01074L92.06393,6.856c-.04.10987-.07031.18994-.17969.18994-.10058,0-.15039-.08984-.20018-.21972L89.27488.60938h-.00977V5.99659c0,.26953,0,.73925,1.0293.73925V7.0459l-1.16894-.02978-1.16993.02978V6.73584c1.03028,0,1.03028-.46972,1.03028-.73925V.999c0-.35938-.02051-.46973-.79-.46973h-.24024V.21973H89.645c.22949,0,.25976,0,.34961.21973l2.16894,5.59716,2.18847-5.627c.07031-.18017.07031-.18995.33008-.18995h1.68945V.52925h-.24024c-.76953,0-.78906.11036-.78906.46974V6.26608c0,.35985.01953.46971.78906.46971h.24024v.31006C96.00146,7.01612,95.33154,7.01612,94.94189,7.01612Z" transform="translate(0.00009 0.00069)"/>
      <path class="cls-2" d="M100.76416,7.106a.83749.83749,0,0,1-.78028-.81982,1.38169,1.38169,0,0,1-1.3086.86963c-.62988,0-1.59961-.25-1.59961-1.05957a1.45557,1.45557,0,0,1,1-1.29883,4.84828,4.84828,0,0,1,1.83887-.35987V4.06739a1.13242,1.13242,0,0,0-.974-1.27126q-.04263-.00565-.08559-.008a1.40122,1.40122,0,0,0-1.0791.46.45341.45341,0,0,1,.50976.45946.46.46,0,0,1-.92-.0028l.00007-.007c0-.65967.68946-1.1294,1.50879-1.1294a1.91133,1.91133,0,0,1,1.37012.54981,1.479,1.479,0,0,1,.35937,1.1792v1.999c0,.04981.04.49951.37011.49951.10937,0,.35937-.06005.35937-.63964V5.59669h.25v.55958a.84865.84865,0,0,1-.74123.94393Q100.80335,7.10488,100.76416,7.106Zm-.84961-2.45849c-1.64942.05957-2.06935.88916-2.06935,1.439a.861.861,0,0,0,.87147.85041l.028-.0008a1.20074,1.20074,0,0,0,1.17292-1.22793q-.00072-.03084-.003-.06162Z" transform="translate(0.00009 0.00069)"/>
      <path class="cls-2" d="M103.74463,7.15577a1.49068,1.49068,0,0,1-1.09864-.42969,2.082,2.082,0,0,0-.20019.23c-.19043.18994-.2002.19971-.25.19971-.11035,0-.11035-.06983-.11035-.23975V5.59668c0-.17968,0-.25.13086-.25.0996,0,.10937.04.13964.16993.18946.84961.54982,1.41943,1.38868,1.41943.78028,0,1.12989-.3999,1.12989-.90967,0-.71972-.81935-.87939-1.03907-.91943a2.62027,2.62027,0,0,1-1.31934-.45949,1.065,1.065,0,0,1-.43066-.84961c0-.56006.37989-1.2295,1.59961-1.2295a1.5394,1.5394,0,0,1,.93946.27979,1.28349,1.28349,0,0,0,.16992-.15967c.12988-.12012.15039-.12012.2002-.12012.10937,0,.10937.06983.10937.23975V3.81786c0,.18994,0,.23973-.12989.23973,0,0-.10938,0-.12011-.08984a1.10184,1.10184,0,0,0-1.16894-1.20946c-.85938,0-1.11915.40966-1.11915.75976,0,.57959.66895.70947,1.2295.81934a2.0368,2.0368,0,0,1,1.13867.47949,1.2896,1.2896,0,0,1,.41993.94971C105.354,6.48633,104.894,7.15577,103.74463,7.15577Z" transform="translate(0.00009 0.00069)"/>
      <path class="cls-2" d="M108.0249,7.15577a1.20864,1.20864,0,0,1-1.28906-1.34912V3.04786h-.84961V2.82813c.97949-.04,1.27929-1.10938,1.28906-1.92871h.25V2.73829H108.854v.30957h-1.42871v2.7788c0,.16993,0,1.07911.66992,1.07911.36914,0,.669-.3794.669-1.11914V5.23682h.25v.56983C109.01416,6.44629,108.73486,7.15577,108.0249,7.15577Z" transform="translate(0.00009 0.00069)"/>
      <path class="cls-2" d="M112.06494,7.15577a2.25662,2.25662,0,0,1-2.19922-2.3086,2.18436,2.18436,0,0,1,2.0791-2.27881,1.77285,1.77285,0,0,1,1.78906,1.959c0,.21-.03027.21-.25.21H110.6958a2.90965,2.90965,0,0,0,.2998,1.499,1.34555,1.34555,0,0,0,1.12891.66944,1.40822,1.40822,0,0,0,1.34959-1.02935c.01953-.08008.04-.13965.12988-.13965a.11611.11611,0,0,1,.12989.11963A1.70867,1.70867,0,0,1,112.06494,7.15577Zm-.12012-4.36768c-.33984,0-1.17969.25-1.23926,1.73926h2.36914C113.0747,4.1377,112.9741,2.78809,111.94482,2.78809Z" transform="translate(0.00009 0.00069)"/>
      <path class="cls-2" d="M117.23388,3.67774a.41405.41405,0,0,1-.42968-.39782q-.00063-.01593,0-.03187a.43363.43363,0,0,1,.22949-.38965c-.01953-.01025-.04-.01025-.10938-.01025-.75976,0-1.17968.88965-1.17968,1.87891V6.26612c0,.35986.02049.46972.75976.46972h.21v.31005c-.40039-.02978-.87012-.02978-1.26953-.02978l-1.13965.02978V6.73584c.66992,0,.78027,0,.78027-.4497V3.60791c0-.48974-.08008-.56-.78027-.56V2.73829l1.38965-.10987V3.72754a1.39944,1.39944,0,0,1,1.22944-1.09909.68153.68153,0,0,1,.73926.60938.42022.42022,0,0,1-.4.43956Q117.24877,3.6781,117.23388,3.67774Z" transform="translate(0.00009 0.00069)"/>
    </g>
    <g>
      <path class="cls-2" d="M194.53466,7.26563a2.5088,2.5088,0,0,1-1.83984-.69922c-.3291.5293-.35937.56934-.35937.56934-.07032.10986-.08008.12988-.1504.12988-.10937,0-.10937-.06982-.10937-.23975v-1.999c0-.17969,0-.24951.12988-.24951a.104.104,0,0,1,.1189.08657l.00122.013a2.02234,2.02234,0,0,0,.61914,1.53905,2.41314,2.41314,0,0,0,1.5791.54,1.37063,1.37063,0,0,0,1.34079-1.39984l-.00094-.02936a1.45928,1.45928,0,0,0-.31055-.91943,1.32331,1.32331,0,0,0-.84863-.50977c-.7002-.16992-1.21-.29-1.31934-.33008A1.93587,1.93587,0,0,1,194.0249,0a2.05761,2.05761,0,0,1,1.59863.69922l.34961-.56933C196.04345.00975,196.05322,0,196.12353,0c.10938,0,.10938.06983.10938.23975V2.24852c0,.18994,0,.23975-.12989.23975-.10937,0-.10937-.06006-.11914-.11963-.06054-.44971-.28027-2.08887-1.94922-2.08887a1.3064,1.3064,0,0,0-.30955,2.57868l1.2793.30957a2.046,2.046,0,0,1,1.499,2.01905,2.00366,2.00366,0,0,1-1.92706,2.07743Z" transform="translate(0.00009 0.00069)"/>
      <path class="cls-2" d="M198.5151,7.01612l-1.10937.02978V6.73584c.66992,0,.77929,0,.77929-.4497V1.08936c0-.48975-.08007-.56006-.77929-.56006V.21973l1.43945-.10986V6.28614c0,.4497.10938.4497.7793.4497V7.0459Z" transform="translate(0.00009 0.00069)"/>
      <path class="cls-2" d="M203.86377,7.106a.83752.83752,0,0,1-.78028-.81982,1.38167,1.38167,0,0,1-1.30859.86963c-.62988,0-1.59961-.25-1.59961-1.05957a1.45557,1.45557,0,0,1,1-1.29883,4.84821,4.84821,0,0,1,1.83887-.35987V4.06739a1.13243,1.13243,0,0,0-.974-1.27127q-.04261-.00564-.08557-.008a1.40126,1.40126,0,0,0-1.07911.46.45334.45334,0,0,1,.50977.45946.46.46,0,0,1-.92-.0028l.00008-.007c0-.65967.68945-1.1294,1.50879-1.1294a1.91129,1.91129,0,0,1,1.37011.54981,1.479,1.479,0,0,1,.35938,1.1792v1.999c0,.04981.04.49951.37012.49951.10937,0,.35937-.06005.35937-.63964V5.59669h.25v.55958a.84865.84865,0,0,1-.74122.94393Q203.903,7.10488,203.86377,7.106Zm-.84961-2.45849c-1.64942.05957-2.06934.88916-2.06934,1.439a.861.861,0,0,0,.87146.85041l.028-.0008a1.20074,1.20074,0,0,0,1.17292-1.22793q-.00069-.03084-.003-.06162Z" transform="translate(0.00009 0.00069)"/>
      <path class="cls-2" d="M208.73388,3.71778l-1.30957,3.248c-.04.10009-.08006.18994-.21.18994s-.14942-.04981-.21-.18994l-1.43945-3.54786c-.12989-.31006-.16993-.37011-.79883-.37011V2.73824c.2998.02.69922.02978.96875.02978l1.08984-.02978v.30957c-.17969,0-.56933,0-.56933.26025a.53418.53418,0,0,0,.05957.16992L207.434,6.26607l1.01953-2.54834a.60249.60249,0,0,0,.06054-.23975c0-.18994-.11035-.41992-.48046-.43017V2.73824l.87011.02978c.2295,0,.51953-.00976.749-.02978v.30957A.90517.90517,0,0,0,208.73388,3.71778Z" transform="translate(0.00009 0.00069)"/>
      <path class="cls-2" d="M212.0542,7.15577a2.25585,2.25585,0,0,1-2.19826-2.3086,2.18372,2.18372,0,0,1,2.07911-2.27881,1.77285,1.77285,0,0,1,1.78907,1.959c0,.21-.03028.21-.25.21h-2.789a2.90955,2.90955,0,0,0,.2998,1.499,1.34721,1.34721,0,0,0,1.12988.66944,1.408,1.408,0,0,0,1.34864-1.0293c.02049-.08008.04-.13965.12988-.13965a.11646.11646,0,0,1,.13086.11963A1.70906,1.70906,0,0,1,212.0542,7.15577Zm-.11915-4.36768c-.33984,0-1.17968.25-1.23925,1.73926H213.064c0-.38965-.09961-1.73926-1.12884-1.73926Z" transform="translate(0.00009 0.00069)"/>
    </g>
    <path class="cls-2" d="M19.99853,18.48438h-3.6582v-.31006h.24023c.76953,0,.78955-.10986.78955-.46973V12.4375c0-.35937-.02-.46972-.78955-.46972h-.24023v-.30957h3.6582A3.27922,3.27922,0,0,1,23.05664,15.126a3.20966,3.20966,0,0,1-3.05392,3.3582Zm1.53906-5.58693a2.15565,2.15565,0,0,0-1.81884-.92969h-.99951c-.46973,0-.48975.07031-.48975.3999v5.40722c0,.32959.02.39941.48975.39941h1.00927a2.19233,2.19233,0,0,0,1.7793-.84912,3.429,3.429,0,0,0,.5498-2.19922A3.866,3.866,0,0,0,21.53759,12.89745Z" transform="translate(0.00009 0.00069)"/>
    <g>
      <path class="cls-2" d="M3.478,38.42286a3.63626,3.63626,0,0,1,0-7.26564,2.452,2.452,0,0,1,1.83936.85939l.49951-.73976c.08008-.11963.12012-.11963.16016-.11963.10986,0,.10986.06983.10986.23976v2.36865c0,.21,0,.23975-.16016.23975-.13964,0-.13964-.02979-.15966-.16993-.2002-1.459-1.08936-2.36865-2.17871-2.36865-.60987,0-2.5586.33985-2.5586,3.32813,0,2.97851,1.9585,3.31836,2.56836,3.31836a2.26367,2.26367,0,0,0,2.23877-2.249c.00977-.09961.00977-.15967.12012-.15967.12988,0,.12988.06984.12988.16993A2.61333,2.61333,0,0,1,3.478,38.42286Z" transform="translate(0.00009 0.00069)"/>
      <path class="cls-2" d="M8.09911,38.17334l-1.10938.02979v-.31006c.66992,0,.77979,0,.77979-.44971V32.24659c0-.48976-.08008-.56006-.77979-.56006V31.377l1.43946-.10987v6.17627c0,.4497.10986.4497.77978.4497v.31006Z" transform="translate(0.00009 0.00069)"/>
      <path class="cls-2" d="M11.9292,38.313a2.22685,2.22685,0,1,1,.01356-.00009Zm1.12939-3.71777a1.3109,1.3109,0,0,0-1.12939-.6499,1.34146,1.34146,0,0,0-1.13965.66992,2.86613,2.86613,0,0,0-.23975,1.36914,2.97259,2.97259,0,0,0,.25,1.40918A1.30475,1.30475,0,0,0,11.939,38.063a1.28971,1.28971,0,0,0,1.15967-.73925,3.03832,3.03832,0,0,0,.21973-1.33936A2.74344,2.74344,0,0,0,13.05859,34.59522Z" transform="translate(0.00009 0.00069)"/>
      <path class="cls-2" d="M17.209,38.313a2.21191,2.21191,0,0,1-2.14887-2.26854,2.24,2.24,0,0,1,2.15864-2.3185l.0103-.00034c.76953,0,1.52881.38964,1.52881,1.06934a.45977.45977,0,1,1-.91932.02013l-.00011-.00989a.45125.45125,0,0,1,.442-.46028q.01384-.00028.02769.00029a1.6284,1.6284,0,0,0-1.06933-.36963c-.52979,0-1.34912.41943-1.34912,2.04882,0,1.60889.87939,2.03857,1.40917,2.03857A1.30478,1.30478,0,0,0,18.608,37.01365c.02-.06006.04-.09961.12987-.09961.03027,0,.13038,0,.13038.09961A1.64452,1.64452,0,0,1,17.209,38.313Z" transform="translate(0.00009 0.00069)"/>
      <path class="cls-2" d="M23.11816,38.17334l-1.07959.02979v-.31006c.18994,0,.35986-.03955.35986-.22949A8.31716,8.31716,0,0,0,21.209,35.86426l-.63965.54981v1.02929c0,.44971.10987.44971.77979.44971v.31006l-1.09961-.02979-1.08936.02979v-.31006c.66992,0,.77979,0,.77979-.44971V32.24659c0-.48976-.08008-.56006-.77979-.56006V31.377l1.43946-.10987v4.79736l1.40918-1.21973a.518.518,0,0,0,.21972-.38965c0-.12988-.1001-.23973-.29-.25V33.8955c.14014.00978.75977.0298,1.11963.0298a5.57853,5.57853,0,0,0,.69971-.0298v.30957a1.981,1.981,0,0,0-1.25928.54,10.64442,10.64442,0,0,0-.80957.71972c0,.02978.04981.08985.06006.10987l1.269,1.78906c.37989.52929.59961.52929.96973.52929v.31006Q23.55273,38.1731,23.11816,38.17334Z" transform="translate(0.00009 0.00069)"/>
    </g>
    <g>
      <path class="cls-2" d="M82.02,84.0337H80.33055v2.3784c0,.35986.01954.46972.78908.46972h.24022v.31006c-.34961-.02978-1.09961-.02978-1.47949-.02978s-1.11914,0-1.46875.02978v-.31006h.24023c.76953,0,.78906-.10986.78906-.46972V81.145c0-.35938-.01953-.46973-.78906-.46973h-.24023v-.30957h3.52832a1.885,1.885,0,1,1,.08008,3.668Zm-.33986-3.3584h-.88964c-.46972,0-.49023.07031-.49023.3999v2.69873h1.37988c1.58887,0,1.58887-1.07959,1.58887-1.54932C83.269,81.73487,83.269,80.6753,81.68016,80.6753Z" transform="translate(0.00009 0.00069)"/>
      <path class="cls-2" d="M87.08056,87.30176a2.2268,2.2268,0,1,1,.01358-.00009ZM88.20947,83.584a1.30954,1.30954,0,0,0-1.12891-.6499,1.34033,1.34033,0,0,0-1.13965.66992,2.861,2.861,0,0,0-.24022,1.36914,2.97244,2.97244,0,0,0,.25,1.40918,1.30542,1.30542,0,0,0,1.13965.66943,1.28847,1.28847,0,0,0,1.15918-.73926,3.03844,3.03844,0,0,0,.21972-1.33935A2.7435,2.7435,0,0,0,88.20947,83.584Z" transform="translate(0.00009 0.00069)"/>
      <path class="cls-2" d="M91.58056,87.30176a1.49249,1.49249,0,0,1-1.09961-.42969,2.45863,2.45863,0,0,0-.20018.23c-.18946.18994-.19922.19971-.249.19971-.11035,0-.11035-.06983-.11035-.23975V85.74269c0-.17968,0-.25.12989-.25.09961,0,.11035.04.13964.16993.19043.84961.54981,1.41943,1.38965,1.41943.77929,0,1.1289-.39992,1.1289-.90967,0-.71972-.81934-.87939-1.03906-.91943a2.61405,2.61405,0,0,1-1.31934-.46,1.06522,1.06522,0,0,1-.42969-.84912c0-.56006.37989-1.22949,1.59864-1.22949a1.54188,1.54188,0,0,1,.94043.27978,1.30894,1.30894,0,0,0,.16894-.15966c.13086-.12012.15039-.12012.2002-.12012.11035,0,.11035.06982.11035.23974v1.00977c0,.18945,0,.23975-.12988.23975,0,0-.11036,0-.12012-.08985A1.1034,1.1034,0,0,0,91.52,82.90427c-.85938,0-1.11914.40967-1.11914.75977,0,.57959.66992.70947,1.22949.81933a2.0398,2.0398,0,0,1,1.13965.47951,1.28965,1.28965,0,0,1,.41992.94971C93.18994,86.63233,92.73,87.30176,91.58056,87.30176Z" transform="translate(0.00009 0.00069)"/>
      <path class="cls-2" d="M94.96142,87.16211l-1.09961.02979v-.31006c.66993,0,.7793,0,.7793-.44971V83.74366c0-.48975-.08984-.54932-.73926-.54932v-.31006l1.39942-.10986v3.668c0,.38965.04.43945.69922.43945v.31006C95.66064,87.18213,95.311,87.16211,94.96142,87.16211Zm-.0498-5.477a.54024.54024,0,0,1-.53028-.52979.53469.53469,0,1,1,.53955.52979Z" transform="translate(0.00009 0.00069)"/>
      <path class="cls-2" d="M98.64011,87.30176a1.209,1.209,0,0,1-1.28906-1.34912v-2.7583h-.84961v-.22022c.97949-.04,1.2793-1.10937,1.28906-1.92872h.25v1.83887h1.42969v.31005H98.0405v2.77832c0,.16993,0,1.07911.66993,1.07911.37011,0,.66992-.3794.66992-1.11914V85.3828h.25v.56983C99.63037,86.59229,99.35011,87.30176,98.64011,87.30176Z" transform="translate(0.00009 0.00069)"/>
      <path class="cls-2" d="M101.63134,87.16211l-1.09961.02979v-.31006c.66993,0,.77929,0,.77929-.44971V83.74366c0-.48975-.08984-.54932-.73925-.54932v-.31006l1.39942-.10986v3.668c0,.38965.04.43945.69922.43945v.31006C102.33056,87.18213,101.981,87.16211,101.63134,87.16211Zm-.0498-5.477a.54022.54022,0,0,1-.53027-.52979.53469.53469,0,1,1,.53955.52979Z" transform="translate(0.00009 0.00069)"/>
      <path class="cls-2" d="M107.13916,83.86377l-1.3086,3.248c-.04.1001-.08007.18994-.21.18994s-.15039-.0498-.21-.18994L103.97111,83.564c-.12988-.31006-.16992-.36963-.79981-.36963v-.31006c.29981.02.7002.02979.96973.02979l1.08886-.02979v.31006c-.17968,0-.56934,0-.56934.25977a.52814.52814,0,0,0,.06055.16992l1.11914,2.78808,1.01953-2.54834a.59977.59977,0,0,0,.05957-.23974c0-.18994-.10938-.41992-.47949-.42969v-.31006l.86914.02979c.23047,0,.51953-.00977.75-.02979v.31006A.90475.90475,0,0,0,107.13916,83.86377Z" transform="translate(0.00009 0.00069)"/>
      <path class="cls-2" d="M110.46045,87.30176a2.25662,2.25662,0,0,1-2.19922-2.30859,2.18434,2.18434,0,0,1,2.0791-2.27881,1.77285,1.77285,0,0,1,1.78906,1.959c0,.21-.03027.21-.25.21H109.0913a2.90962,2.90962,0,0,0,.29981,1.499,1.3455,1.3455,0,0,0,1.12891.66943,1.40822,1.40822,0,0,0,1.34961-1.02929c.01953-.08008.04-.13965.12988-.13965a.1161.1161,0,0,1,.12913.10141.11431.11431,0,0,1,.00075.01822A1.70866,1.70866,0,0,1,110.46045,87.30176Zm-.12012-4.36767c-.33985,0-1.17969.25-1.23926,1.73924h2.36914C111.47021,84.2837,111.36963,82.93409,110.34033,82.93409Z" transform="translate(0.00009 0.00069)"/>
      <path class="cls-2" d="M118.23,87.30176a2.25663,2.25663,0,0,1-2.19922-2.30859,2.18434,2.18434,0,0,1,2.0791-2.27881,1.77285,1.77285,0,0,1,1.78906,1.959c0,.21-.03027.21-.25.21h-2.78808a2.90951,2.90951,0,0,0,.2998,1.499,1.3455,1.3455,0,0,0,1.12891.66943,1.40822,1.40822,0,0,0,1.34961-1.02929c.01953-.08008.04-.13965.12988-.13965a.1161.1161,0,0,1,.12913.10141.11431.11431,0,0,1,.00075.01822A1.70866,1.70866,0,0,1,118.23,87.30176Zm-.12012-4.36767c-.33984,0-1.17969.25-1.23926,1.73924h2.36914C119.23974,84.2837,119.13916,82.93409,118.10986,82.93409Z" transform="translate(0.00009 0.00069)"/>
      <path class="cls-2" d="M123.98877,87.30176v-.65967a1.68763,1.68763,0,0,1-1.33887.65967,2.19825,2.19825,0,0,1-2.11914-2.25879,2.259,2.259,0,0,1,2.22851-2.26855,1.596,1.596,0,0,1,1.25977.61963V81.23536c0-.48975-.08008-.56006-.7793-.56006v-.30957l1.43848-.10987v6.06641c0,.48975.08008.55957.78027.55957v.31006Zm0-3.33789a.48013.48013,0,0,0-.10938-.37012,1.29679,1.29679,0,0,0-1.08008-.59959,1.3744,1.3744,0,0,0-1.1289.63963,3.44492,3.44492,0,0,0-.02051,2.8086,1.244,1.244,0,0,0,1.0498.63965,1.3927,1.3927,0,0,0,1.17969-.69971.47955.47955,0,0,0,.10938-.36963Z" transform="translate(0.00009 0.00069)"/>
      <path class="cls-2" d="M130.30911,83.45411a.284.284,0,0,1-.29-.27788c-.0001-.00405-.0001-.00807,0-.01212a.26727.26727,0,0,1,.16015-.27.47581.47581,0,0,0-.10058-.00977,1.3135,1.3135,0,0,0-.89942.38965,1.35011,1.35011,0,0,1,.41016.96973,1.54657,1.54657,0,0,1-1.61914,1.459,1.70019,1.70019,0,0,1-.98926-.30957.73555.73555,0,0,0-.16992.46972.65188.65188,0,0,0,.52929.66944c.07032.01025.5.01025.75.01025a3.55278,3.55278,0,0,1,1.71875.27979,1.27757,1.27757,0,0,1,.64942,1.13916c0,.77978-1.03906,1.28955-2.21875,1.28955-1.21875,0-2.209-.54981-2.209-1.26953a1.12824,1.12824,0,0,1,.91992-.99952,1.06587,1.06587,0,0,1-.43945-.88964,1.38039,1.38039,0,0,1,.30957-.82911,1.37718,1.37718,0,0,1-.46973-1.02978,1.54656,1.54656,0,0,1,1.61914-1.459,1.66614,1.66614,0,0,1,1.05957.35986,1.53574,1.53574,0,0,1,1.0586-.46972.48844.48844,0,0,1,.5093.46666q.00051.01153.00046.02308a.28835.28835,0,0,1-.27675.29952C130.31733,83.454,130.31323,83.45412,130.30911,83.45411Zm-2.34863,3.668h-.58985a.87966.87966,0,0,0-.82031.85938c0,.52978.69043,1.03955,1.69922,1.03955.97949,0,1.68945-.5,1.68945-1.03955,0-.85941-1.11917-.85941-1.97854-.85941Zm.00976-4.11767a.86456.86456,0,0,0-.71.39941,1.6471,1.6471,0,0,0-.16015.83985c0,.23,0,1.229.87012,1.229a.86247.86247,0,0,0,.709-.39941,1.63694,1.63694,0,0,0,.16015-.83985c0-.23,0-1.229-.86914-1.229Z" transform="translate(0.00009 0.00069)"/>
      <path class="cls-2" d="M133.23,87.30176a2.25663,2.25663,0,0,1-2.19922-2.30859,2.18434,2.18434,0,0,1,2.0791-2.27881,1.77285,1.77285,0,0,1,1.78906,1.959c0,.21-.03027.21-.25.21h-2.78808a2.90951,2.90951,0,0,0,.2998,1.499,1.3455,1.3455,0,0,0,1.12891.66943,1.40822,1.40822,0,0,0,1.34961-1.02929c.01953-.08008.04-.13965.12988-.13965a.1161.1161,0,0,1,.12913.10141.11431.11431,0,0,1,.00075.01822A1.70866,1.70866,0,0,1,133.23,87.30176Zm-.12012-4.36767c-.33984,0-1.17969.25-1.23926,1.73924h2.36914C134.23974,84.2837,134.13916,82.93409,133.10986,82.93409Z" transform="translate(0.00009 0.00069)"/>
      <path class="cls-2" d="M140.85011,87.30176a1.20864,1.20864,0,0,1-1.28906-1.34912v-2.7583h-.84961v-.22022c.97949-.04,1.27929-1.10937,1.28906-1.92872h.25v1.83887h1.42871v.31005H140.2505v2.77832c0,.16993,0,1.07911.669,1.07911.37011,0,.66992-.3794.66992-1.11914V85.3828h.25v.56983C141.83935,86.59229,141.55911,87.30176,140.85011,87.30176Z" transform="translate(0.00009 0.00069)"/>
      <path class="cls-2" d="M145.61865,83.82373a.41407.41407,0,0,1-.42969-.39784c-.00041-.0106-.00041-.02124,0-.03184a.432.432,0,0,1,.23047-.38965.25.25,0,0,0-.11035-.01026c-.75977,0-1.17871.88964-1.17871,1.87891v1.53906c0,.35987.01953.46973.75879.46973h.21v.31006c-.39941-.02979-.86914-.02979-1.26855-.02979l-1.13965.02979v-.31006c.66994,0,.7793,0,.7793-.44971V83.75391c0-.48975-.08008-.55957-.7793-.55957v-.31006l1.38869-.10986v1.09912a1.40049,1.40049,0,0,1,1.22946-1.09909.68251.68251,0,0,1,.74023.60937.42043.42043,0,0,1-.40037.43959Q145.63382,83.82413,145.61865,83.82373Z" transform="translate(0.00009 0.00069)"/>
      <path class="cls-2" d="M147.76025,87.16211l-1.09961.02979v-.31006c.66992,0,.7793,0,.7793-.44971V83.74366c0-.48975-.08985-.54932-.73926-.54932v-.31006l1.39941-.10986v3.668c0,.38965.04.43945.69922.43945v.31006C148.45947,87.18213,148.10986,87.16211,147.76025,87.16211Zm-.0498-5.477a.54023.54023,0,0,1-.53028-.52979.53469.53469,0,1,1,.53955.52979Z" transform="translate(0.00009 0.00069)"/>
      <path class="cls-2" d="M153.66845,83.45411a.284.284,0,0,1-.29-.27788c-.00009-.00405-.00009-.00807,0-.01212a.26727.26727,0,0,1,.16016-.27.46743.46743,0,0,0-.09961-.00977,1.3119,1.3119,0,0,0-.89942.38965,1.35325,1.35325,0,0,1,.40918.96973,1.54658,1.54658,0,0,1-1.61914,1.459,1.70206,1.70206,0,0,1-.98926-.30957.73561.73561,0,0,0-.16992.46972.6518.6518,0,0,0,.53028.66944c.06933.01025.499.01025.749.01025a3.55074,3.55074,0,0,1,1.71875.27979,1.27866,1.27866,0,0,1,.65039,1.13916c0,.77978-1.04,1.28955-2.21875,1.28955-1.21973,0-2.209-.54981-2.209-1.26953a1.12709,1.12709,0,0,1,.91894-.99952,1.06592,1.06592,0,0,1-.43945-.88964,1.38041,1.38041,0,0,1,.30957-.82911,1.3771,1.3771,0,0,1-.46972-1.02978,1.54655,1.54655,0,0,1,1.61914-1.459,1.66618,1.66618,0,0,1,1.05957.35986,1.5375,1.5375,0,0,1,1.05957-.46972.48907.48907,0,0,1,.50932.468q.00048.01089.00044.02177a.28908.28908,0,0,1-.27821.29955Q153.67437,83.45414,153.66845,83.45411Zm-2.34863,3.668H150.73a.87955.87955,0,0,0-.81934.85938c0,.52978.68945,1.03955,1.69922,1.03955.97949,0,1.68848-.5,1.68848-1.03955,0-.85941-1.11914-.85941-1.97852-.85941Zm.00977-4.11767a.864.864,0,0,0-.709.39941,1.63685,1.63685,0,0,0-.16016.83985c0,.23,0,1.229.86914,1.229a.86455.86455,0,0,0,.71-.39941,1.647,1.647,0,0,0,.16015-.83985c0-.23,0-1.229-.87014-1.229Z" transform="translate(0.00009 0.00069)"/>
      <path class="cls-2" d="M158.66845,83.45411a.284.284,0,0,1-.29-.27788c-.00009-.00405-.00009-.00807,0-.01212a.26727.26727,0,0,1,.16016-.27.46743.46743,0,0,0-.09961-.00977,1.3119,1.3119,0,0,0-.89942.38965,1.35325,1.35325,0,0,1,.40918.96973,1.54658,1.54658,0,0,1-1.61914,1.459,1.70206,1.70206,0,0,1-.98926-.30957.73561.73561,0,0,0-.16992.46972.6518.6518,0,0,0,.53028.66944c.06933.01025.499.01025.749.01025a3.55074,3.55074,0,0,1,1.71875.27979,1.27866,1.27866,0,0,1,.65039,1.13916c0,.77978-1.04,1.28955-2.21875,1.28955-1.21973,0-2.209-.54981-2.209-1.26953a1.12709,1.12709,0,0,1,.91894-.99952,1.06592,1.06592,0,0,1-.43945-.88964,1.38041,1.38041,0,0,1,.30957-.82911,1.3771,1.3771,0,0,1-.46972-1.02978,1.54655,1.54655,0,0,1,1.61914-1.459,1.66618,1.66618,0,0,1,1.05957.35986,1.5375,1.5375,0,0,1,1.05957-.46972.48907.48907,0,0,1,.50932.468q.00048.01089.00044.02177a.28908.28908,0,0,1-.27821.29955Q158.67437,83.45414,158.66845,83.45411Zm-2.34863,3.668H155.73a.87955.87955,0,0,0-.81934.85938c0,.52978.68945,1.03955,1.69922,1.03955.97949,0,1.68848-.5,1.68848-1.03955,0-.85941-1.11914-.85941-1.97852-.85941Zm.00977-4.11767a.864.864,0,0,0-.709.39941,1.63685,1.63685,0,0,0-.16016.83985c0,.23,0,1.229.86914,1.229a.86455.86455,0,0,0,.71-.39941,1.647,1.647,0,0,0,.16015-.83985c0-.23,0-1.229-.87014-1.229Z" transform="translate(0.00009 0.00069)"/>
      <path class="cls-2" d="M161.58935,87.30176a2.25584,2.25584,0,0,1-2.19824-2.30859,2.18372,2.18372,0,0,1,2.0791-2.27881,1.77285,1.77285,0,0,1,1.78906,1.959c0,.21-.03027.21-.25.21h-2.78906a2.90942,2.90942,0,0,0,.29981,1.499,1.34718,1.34718,0,0,0,1.12988.66943,1.408,1.408,0,0,0,1.34863-1.02929c.02051-.08008.04-.13965.12988-.13965a.11644.11644,0,0,1,.13086.11963A1.709,1.709,0,0,1,161.58935,87.30176Zm-.11914-4.36767c-.33984,0-1.17969.25-1.24023,1.73924h2.36912C162.5991,84.2837,162.49951,82.93409,161.47021,82.93409Z" transform="translate(0.00009 0.00069)"/>
      <path class="cls-2" d="M166.75927,83.82373a.414.414,0,0,1-.42968-.39781q-.00063-.01593,0-.03187a.43358.43358,0,0,1,.22949-.38965c-.01953-.01026-.04-.01026-.10938-.01026-.75976,0-1.17968.88964-1.17968,1.87891v1.53906c0,.35987.02049.46973.75976.46973h.21v.31006c-.40039-.02979-.87012-.02979-1.26953-.02979l-1.13965.02979v-.31006c.66994,0,.78027,0,.78027-.44971V83.75391c0-.48975-.08008-.55957-.78027-.55957v-.31006l1.38965-.10986v1.09912a1.39944,1.39944,0,0,1,1.22949-1.09912.68153.68153,0,0,1,.73926.60937.42023.42023,0,0,1-.39994.43959Q166.77421,83.8241,166.75927,83.82373Z" transform="translate(0.00009 0.00069)"/>
      <path class="cls-2" d="M169.9497,87.30176a2.25663,2.25663,0,0,1-2.1992-2.30859,2.18435,2.18435,0,0,1,2.0791-2.27881,1.77285,1.77285,0,0,1,1.78906,1.959c0,.21-.03027.21-.25.21h-2.78808a2.90951,2.90951,0,0,0,.2998,1.499,1.34552,1.34552,0,0,0,1.12891.66943,1.4082,1.4082,0,0,0,1.34961-1.02929c.01953-.08008.04-.13965.12988-.13965a.11605.11605,0,0,1,.12988.11963A1.70867,1.70867,0,0,1,169.9497,87.30176Zm-.12011-4.36767c-.33985,0-1.17969.25-1.23926,1.73924h2.36914C170.95947,84.2837,170.85888,82.93409,169.82959,82.93409Z" transform="translate(0.00009 0.00069)"/>
      <path class="cls-2" d="M175.70849,87.30176v-.65967a1.68761,1.68761,0,0,1-1.33886.65967,2.19826,2.19826,0,0,1-2.11915-2.25879,2.259,2.259,0,0,1,2.22852-2.26855,1.596,1.596,0,0,1,1.25977.61963V81.23536c0-.48975-.08008-.56006-.7793-.56006v-.30957l1.43848-.10987v6.06641c0,.48975.08006.55957.78027.55957v.31006Zm0-3.33789a.48012.48012,0,0,0-.10937-.37012,1.29679,1.29679,0,0,0-1.08008-.59959,1.37442,1.37442,0,0,0-1.12891.63963,3.44488,3.44488,0,0,0-.02049,2.8086,1.24405,1.24405,0,0,0,1.04981.63965,1.39274,1.39274,0,0,0,1.17968-.69971.47959.47959,0,0,0,.10938-.36963Z" transform="translate(0.00009 0.00069)"/>
    </g>
    <rect class="cls-1" x="87.7662" y="110.73214" width="30" height="29.99999"/>
    <line class="cls-1" x1="87.7662" y1="115.73214" x2="77.7662" y2="115.73214"/>
    <line class="cls-1" x1="87.7662" y1="135.73214" x2="77.7662" y2="135.73214"/>
    <line class="cls-1" x1="127.7662" y1="115.73214" x2="117.7662" y2="115.73214"/>
    <line class="cls-1" x1="127.7662" y1="135.73214" x2="117.7662" y2="135.73214"/>
    <path class="cls-2" d="M93.00586,118.46181H90.07959v-.248h.19189c.61572,0,.63184-.08789.63184-.376v-4.2129c0-.28809-.01612-.376-.63184-.376h-.19189v-.248h2.92627a2.62354,2.62354,0,0,1,2.44677,2.77441,2.56822,2.56822,0,0,1-2.44433,2.68639Zm1.23144-4.46973a1.7244,1.7244,0,0,0-1.45508-.74316h-.79979c-.37549,0-.39161.05566-.39161.31934v4.32618c0,.26368.01612.31934.39161.31934H92.79a1.75263,1.75263,0,0,0,1.42334-.67969,2.743,2.743,0,0,0,.43994-1.75879A3.09264,3.09264,0,0,0,94.2373,113.99208Z" transform="translate(0.00009 0.00069)"/>
    <g>
      <path class="cls-2" d="M94.71191,138.30945h-4.6138v-.248H90.29c.61573,0,.63183-.08789.63183-.376V133.496c0-.28809-.01611-.376-.63183-.376h-.1919v-.248h4.5015l.22412,1.7998H94.624c-.12793-1.11133-.34375-1.55176-1.56739-1.55176H92.02539c-.376,0-.39209.05664-.39209.32032v1.919H92.353c.77588,0,.86377-.248.86377-.93554h.19971v2.11914h-.19971c0-.67969-.08789-.93555-.86377-.93555H91.6333v2.13477c0,.26367.01612.31933.39209.31933h1.06347c1.375,0,1.55909-.584,1.75879-1.81445h.20021Z" transform="translate(0.00009 0.00069)"/>
      <path class="cls-2" d="M98.66455,138.28505l-.90381.02442v-.248c.53564,0,.624,0,.624-.35938v-1.8633c0-.456-.08838-.88769-.59179-.88769a1.16815,1.16815,0,0,0-1.08223,1.24817l.00264.03113v1.47168c0,.35937.08789.35937.62353.35937v.248l-.89551-.02441-.90327.02443v-.248c.53565,0,.62355,0,.62355-.35938v-2.14264c0-.39258-.064-.44824-.62355-.44824v-.248l1.12744-.08789v.83984a1.2599,1.2599,0,0,1,1.18312-.83984,1.0678,1.0678,0,0,1,.83984.2959c.24756.28808.24756.53613.24756,1.22363v1.52734c.0083.23926.208.23926.624.23926v.248Z" transform="translate(0.00009 0.00069)"/>
    </g>
    <rect class="cls-1" x="187.7662" y="110.73214" width="30" height="29.99999"/>
    <line class="cls-1" x1="187.7662" y1="115.73214" x2="177.7662" y2="115.73214"/>
    <line class="cls-1" x1="187.7662" y1="135.73214" x2="177.7662" y2="135.73214"/>
    <line class="cls-1" x1="227.7662" y1="115.73214" x2="217.7662" y2="115.73214"/>
    <line class="cls-1" x1="227.7662" y1="135.73214" x2="217.7662" y2="135.73214"/>
    <path class="cls-2" d="M193.00586,118.46181h-2.92627v-.248h.19189c.61572,0,.63184-.08789.63184-.376v-4.2129c0-.28809-.01612-.376-.63184-.376h-.19189v-.248h2.92627a2.62354,2.62354,0,0,1,2.44677,2.77441,2.56822,2.56822,0,0,1-2.44433,2.68639Zm1.23144-4.46973a1.7244,1.7244,0,0,0-1.45508-.74316h-.7998c-.37549,0-.3916.05566-.3916.31934v4.32618c0,.26368.01611.31934.3916.31934H192.79a1.75265,1.75265,0,0,0,1.42334-.67969,2.743,2.743,0,0,0,.43994-1.75879A3.09272,3.09272,0,0,0,194.2373,113.99208Z" transform="translate(0.00009 0.00069)"/>
    <g>
      <path class="cls-2" d="M194.71191,138.30945h-4.6138v-.248H190.29c.61573,0,.63184-.08789.63184-.376V133.496c0-.28809-.01611-.376-.63184-.376h-.19189v-.248h4.5015l.22412,1.7998H194.624c-.12793-1.11133-.34375-1.55176-1.56738-1.55176h-1.03125c-.376,0-.39209.05664-.39209.32032v1.919h.71972c.77588,0,.86377-.248.86377-.93554h.19971v2.11914h-.19971c0-.67969-.08789-.93555-.86377-.93555h-.71972v2.13477c0,.26367.01611.31933.39209.31933h1.06347c1.375,0,1.5591-.584,1.75879-1.81445h.2002Z" transform="translate(0.00009 0.00069)"/>
      <path class="cls-2" d="M198.66455,138.28505l-.90381.02442v-.248c.53564,0,.624,0,.624-.35938v-1.8633c0-.456-.08838-.88769-.5918-.88769a1.16815,1.16815,0,0,0-1.08223,1.24817l.00264.03113v1.47168c0,.35937.0879.35937.62354.35937v.248l-.89551-.02441-.90327.02443v-.248c.53564,0,.62353,0,.62353-.35938v-2.14264c0-.39258-.064-.44824-.62353-.44824v-.248l1.12744-.08789v.83984a1.25986,1.25986,0,0,1,1.1831-.83984,1.06781,1.06781,0,0,1,.83985.2959c.24756.28808.24756.53613.24756,1.22363v1.52734c.0083.23926.208.23926.624.23926v.248Z" transform="translate(0.00009 0.00069)"/>
    </g>
    <g>
      <path class="cls-3" d="M143.96011,160.73145h8.806m-36,0h-14" transform="translate(0.00009 0.00069)"/>
      <path class="cls-2" d="M116.06434,148.27752v24.90785l1.1985-.59056L140.069,161.47832v-1.49377l-22.80616-11.11649Zm1.66747,2.67489,20.07916,9.779-20.07915,9.779Z" transform="translate(0.00009 0.00069)"/>
      <path class="cls-4" d="M143.87292,160.73145a2.2233,2.2233,0,1,1-2.2233-2.2233h0A2.22331,2.22331,0,0,1,143.87292,160.73145Z" transform="translate(0.00009 0.00069)"/>
    </g>
    <polyline class="cls-5" points="102.766 160.732 77.766 160.732 77.766 135.732 28.766 135.732"/>
    <polyline class="cls-5" points="152.766 160.732 152.766 135.732 177.766 135.732"/>
    <line class="cls-5" x1="177.7662" y1="115.73214" x2="127.7662" y2="115.73214"/>
    <line class="cls-5" x1="78.7662" y1="115.73214" x2="28.7662" y2="115.73214"/>
    <path class="cls-2" d="M127.68312,107.08936l-1.9292,3.13818v1.92871c0,.39014.03027.48975.7998.48975h.23v.31006c-.35987-.02979-1.06934-.02979-1.45947-.02979-.38965,0-1.09914,0-1.459.02979V112.646h.23974c.76953,0,.78955-.10986.78955-.46973v-1.94873l-2.09863-3.418c-.16016-.25976-.24023-.37011-.91943-.37011h-.18018v-.30957l1.29932.02978c.38965,0,1.11963,0,1.479-.02978v.30957c-.44971,0-.69922.04-.69922.25,0,.0498,0,.06982.06983.16992l1.80908,2.94824,1.64892-2.67822a.62553.62553,0,0,0,.1001-.29981c0-.20019-.16015-.39013-.56982-.39013v-.30957l1.14941.02978c.27,0,.66944-.00976.97949-.02978v.30957A1.38287,1.38287,0,0,0,127.68312,107.08936Z" transform="translate(0.00009 0.00069)"/>
    <g>
      <path class="cls-2" d="M94.94189,107.01612c-.38965,0-1.06933,0-1.43848.02978v-.31006h.23926c.76953,0,.79-.10986.79-.46972V100.5293h-.01074l-2.458,6.32666c-.04.10986-.07031.18994-.17969.18994-.10058,0-.15039-.08984-.20018-.21972l-2.40918-6.2168h-.00977v5.38721c0,.26953,0,.73924,1.0293.73924v.31006l-1.16894-.02979-1.16993.02979v-.31006c1.03028,0,1.03028-.46973,1.03028-.73924V100.999c0-.35938-.02051-.46973-.79-.46973h-.24024v-.30957H89.645c.22949,0,.25976,0,.34961.21973l2.16894,5.59716,2.18847-5.627c.07031-.18018.07031-.19.33008-.19h1.68945v.30957h-.24024c-.76953,0-.78906.11036-.78906.46973v5.26709c0,.35986.01953.46973.78906.46973h.24024v.31006C96.00146,107.01612,95.33154,107.01612,94.94189,107.01612Z" transform="translate(0.00009 0.00069)"/>
      <path class="cls-2" d="M100.76416,107.106a.83749.83749,0,0,1-.78028-.81982,1.38171,1.38171,0,0,1-1.3086.86963c-.62988,0-1.59961-.25-1.59961-1.05957a1.45557,1.45557,0,0,1,1-1.29883,4.84828,4.84828,0,0,1,1.83887-.35987v-.37011a1.13243,1.13243,0,0,0-.974-1.27126q-.04262-.00566-.08558-.008a1.4013,1.4013,0,0,0-1.0791.46.45341.45341,0,0,1,.50976.45947.46.46,0,0,1-.92-.00281l.00007-.007c0-.65966.68946-1.12939,1.50879-1.12939a1.91132,1.91132,0,0,1,1.37012.5498,1.479,1.479,0,0,1,.35937,1.1792v1.999c0,.0498.04.49951.37011.49951.10937,0,.35937-.06006.35937-.63965v-.55957h.25v.55957a.84865.84865,0,0,1-.74123.94394Q100.80334,107.10488,100.76416,107.106Zm-.84961-2.4585c-1.64942.05958-2.06935.88916-2.06935,1.439a.861.861,0,0,0,.87147.8504l.028-.00079a1.20076,1.20076,0,0,0,1.17292-1.22794q-.00072-.03083-.003-.06161Z" transform="translate(0.00009 0.00069)"/>
      <path class="cls-2" d="M103.74463,107.15577a1.49068,1.49068,0,0,1-1.09864-.42969,2.0828,2.0828,0,0,0-.20019.23c-.19043.18995-.2002.19971-.25.19971-.11035,0-.11035-.06982-.11035-.23975V105.5967c0-.17969,0-.25.13086-.25.0996,0,.10937.04.13964.16994.18946.84961.54982,1.41943,1.38868,1.41943.78028,0,1.12989-.3999,1.12989-.90967,0-.71973-.81935-.87939-1.03907-.91943a2.6204,2.6204,0,0,1-1.31934-.45952,1.065,1.065,0,0,1-.43066-.84961c0-.56006.37989-1.22951,1.59961-1.22951a1.53947,1.53947,0,0,1,.93946.27979,1.28349,1.28349,0,0,0,.16992-.15967c.12988-.12012.15039-.12012.2002-.12012.10937,0,.10937.06983.10937.23975v1.00976c0,.18995,0,.23975-.12989.23975,0,0-.10938,0-.12011-.08984a1.102,1.102,0,0,0-1.16894-1.20948c-.85938,0-1.11915.40966-1.11915.75977,0,.57959.66895.70947,1.2295.81934a2.0368,2.0368,0,0,1,1.13867.47949,1.28965,1.28965,0,0,1,.41993.9497C105.354,106.48633,104.894,107.15577,103.74463,107.15577Z" transform="translate(0.00009 0.00069)"/>
      <path class="cls-2" d="M108.0249,107.15577a1.20865,1.20865,0,0,1-1.28906-1.34913v-2.75878h-.84961v-.21973c.97949-.04,1.27929-1.10938,1.28906-1.92871h.25v1.83887H108.854v.30957h-1.42871v2.77879c0,.16994,0,1.07912.66992,1.07912.36914,0,.669-.3794.669-1.11915v-.5498h.25v.56982C109.01416,106.44629,108.73486,107.15577,108.0249,107.15577Z" transform="translate(0.00009 0.00069)"/>
      <path class="cls-2" d="M112.06494,107.15577a2.25664,2.25664,0,0,1-2.19922-2.3086,2.18436,2.18436,0,0,1,2.0791-2.27881,1.77286,1.77286,0,0,1,1.78906,1.959c0,.21-.03027.21-.25.21H110.6958a2.90957,2.90957,0,0,0,.2998,1.499,1.34555,1.34555,0,0,0,1.12891.66944,1.40823,1.40823,0,0,0,1.34961-1.0293c.01953-.08008.04-.13965.12988-.13965a.11605.11605,0,0,1,.12988.11963A1.70867,1.70867,0,0,1,112.06494,107.15577Zm-.12012-4.36768c-.33984,0-1.17969.25-1.23926,1.73926h2.36914C113.0747,104.1377,112.9741,102.78809,111.94482,102.78809Z" transform="translate(0.00009 0.00069)"/>
      <path class="cls-2" d="M117.23388,103.67774a.41405.41405,0,0,1-.42968-.39781q-.00063-.01593,0-.03188a.43364.43364,0,0,1,.22949-.38965c-.01953-.01025-.04-.01025-.10938-.01025-.75976,0-1.17968.88965-1.17968,1.8789v1.53907c0,.35986.02049.46972.75976.46972h.21v.31006c-.40039-.02978-.87012-.02978-1.26953-.02978l-1.13965.02978v-.31006c.66992,0,.78027,0,.78027-.4497v-2.67823c0-.48974-.08008-.56-.78027-.56v-.30957l1.38965-.10986v1.09912a1.39944,1.39944,0,0,1,1.22949-1.09912.68153.68153,0,0,1,.73926.60937.42022.42022,0,0,1-.39994.43958Q117.24882,103.67809,117.23388,103.67774Z" transform="translate(0.00009 0.00069)"/>
    </g>
    <g>
      <path class="cls-2" d="M194.53466,107.26563a2.5088,2.5088,0,0,1-1.83984-.69922c-.3291.5293-.35937.56934-.35937.56934-.07032.10986-.08008.12988-.1504.12988-.10937,0-.10937-.06983-.10937-.23975v-1.999c0-.17969,0-.24951.12988-.24951a.104.104,0,0,1,.1189.08658l.00122.013a2.02238,2.02238,0,0,0,.61914,1.53906,2.41307,2.41307,0,0,0,1.5791.54,1.37061,1.37061,0,0,0,1.34079-1.39982l-.00094-.02938a1.4593,1.4593,0,0,0-.31055-.91943,1.32335,1.32335,0,0,0-.84863-.50977c-.7002-.16992-1.21-.29-1.31934-.33007A1.93587,1.93587,0,0,1,194.0249,100a2.05755,2.05755,0,0,1,1.59863.69922l.34961-.56934c.07031-.12012.08008-.12988.15039-.12988.10938,0,.10938.06982.10938.23974v2.00879c0,.18995,0,.23975-.12989.23975-.10937,0-.10937-.06006-.11914-.11963-.06054-.44971-.28027-2.08887-1.94922-2.08887a1.3064,1.3064,0,0,0-.30957,2.57862l1.2793.30957a2.046,2.046,0,0,1,1.499,2.019,2.00367,2.00367,0,0,1-1.927,2.07755Z" transform="translate(0.00009 0.00069)"/>
      <path class="cls-2" d="M198.5151,107.01612l-1.10937.02978v-.31006c.66992,0,.77929,0,.77929-.4497v-5.19678c0-.48975-.08007-.56006-.77929-.56006v-.30957l1.43945-.10986v6.17627c0,.4497.10938.4497.7793.4497v.31006Z" transform="translate(0.00009 0.00069)"/>
      <path class="cls-2" d="M203.86377,107.106a.8375.8375,0,0,1-.78028-.81982,1.3817,1.3817,0,0,1-1.30859.86963c-.62988,0-1.59961-.25-1.59961-1.05957a1.45557,1.45557,0,0,1,1-1.29883,4.84821,4.84821,0,0,1,1.83887-.35987v-.37011a1.13245,1.13245,0,0,0-.974-1.27126q-.04259-.00566-.08555-.008a1.4013,1.4013,0,0,0-1.07911.46.45334.45334,0,0,1,.50977.45947.46.46,0,0,1-.92-.00281l.00008-.007c0-.65966.68945-1.12939,1.50879-1.12939a1.9113,1.9113,0,0,1,1.37011.5498,1.479,1.479,0,0,1,.35938,1.1792v1.999c0,.0498.04.49951.37012.49951.10937,0,.35937-.06006.35937-.63965v-.55957h.25v.55957a.84866.84866,0,0,1-.74124.94394Q203.903,107.10488,203.86377,107.106Zm-.84961-2.4585c-1.64942.05958-2.06934.88916-2.06934,1.439a.861.861,0,0,0,.87146.8504l.028-.00079a1.20075,1.20075,0,0,0,1.17292-1.22794q-.00069-.03083-.003-.06161Z" transform="translate(0.00009 0.00069)"/>
      <path class="cls-2" d="M208.73388,103.71778l-1.30957,3.248c-.04.10008-.08006.18994-.21.18994s-.14942-.0498-.21-.18994l-1.43945-3.54787c-.12989-.31006-.16993-.37012-.79883-.37012v-.30957c.2998.02.69922.02979.96875.02979l1.08984-.02979v.30957c-.17969,0-.56933,0-.56933.26026a.53427.53427,0,0,0,.05957.16992l1.11914,2.78809,1.01953-2.54834a.60258.60258,0,0,0,.06054-.23975c0-.18994-.11035-.41992-.48046-.43018v-.30957l.87011.02979c.2295,0,.51953-.00977.749-.02979v.30957A.90518.90518,0,0,0,208.73388,103.71778Z" transform="translate(0.00009 0.00069)"/>
      <path class="cls-2" d="M212.0542,107.15577a2.25585,2.25585,0,0,1-2.19826-2.3086,2.18373,2.18373,0,0,1,2.07911-2.27881,1.77286,1.77286,0,0,1,1.78907,1.959c0,.21-.03028.21-.25.21h-2.789a2.90947,2.90947,0,0,0,.2998,1.499,1.34722,1.34722,0,0,0,1.12988.66944,1.408,1.408,0,0,0,1.34864-1.0293c.02049-.08008.04-.13965.12988-.13965a.11647.11647,0,0,1,.13086.11963A1.70907,1.70907,0,0,1,212.0542,107.15577Zm-.11915-4.36768c-.33984,0-1.17968.25-1.23925,1.73926H213.064c0-.38965-.09961-1.73926-1.12884-1.73926Z" transform="translate(0.00009 0.00069)"/>
    </g>
    <path class="cls-2" d="M19.99853,118.48438h-3.6582v-.31006h.24023c.76953,0,.78955-.10986.78955-.46973V112.4375c0-.35937-.02-.46972-.78955-.46972h-.24023v-.30957h3.6582a3.27922,3.27922,0,0,1,3.05811,3.46777,3.20965,3.20965,0,0,1-3.05392,3.3582Zm1.53906-5.58692a2.15567,2.15567,0,0,0-1.81884-.92968h-.99951c-.46973,0-.48975.07031-.48975.3999v5.40723c0,.32959.02.39941.48975.39941h1.00927a2.19233,2.19233,0,0,0,1.7793-.84912,3.429,3.429,0,0,0,.5498-2.19922,3.866,3.866,0,0,0-.52-2.22853Z" transform="translate(0.00009 0.00069)"/>
    <g>
      <path class="cls-2" d="M3.478,138.42286a3.63626,3.63626,0,0,1,0-7.26563,2.452,2.452,0,0,1,1.83936.85938l.49951-.73975c.08008-.11963.12012-.11963.16016-.11963.10986,0,.10986.06982.10986.23975v2.36865c0,.21,0,.23974-.16016.23974-.13964,0-.13964-.02978-.15966-.16993-.2002-1.459-1.08936-2.36865-2.17871-2.36865-.60987,0-2.5586.33984-2.5586,3.32812,0,2.97852,1.9585,3.31836,2.56836,3.31836a2.26369,2.26369,0,0,0,2.23877-2.249c.00977-.09961.00977-.15967.12012-.15967.12988,0,.12988.06982.12988.16994A2.61334,2.61334,0,0,1,3.478,138.42286Z" transform="translate(0.00009 0.00069)"/>
      <path class="cls-2" d="M8.09911,138.17334l-1.10938.02979v-.31006c.66992,0,.77979,0,.77979-.44971v-5.19677c0-.48975-.08008-.56006-.77979-.56006V131.377l1.43946-.10987v6.17627c0,.44971.10986.44971.77978.44971v.31006Z" transform="translate(0.00009 0.00069)"/>
      <path class="cls-2" d="M11.9292,138.313a2.22683,2.22683,0,1,1,.01357-.00009Zm1.12939-3.71777a1.3109,1.3109,0,0,0-1.12939-.6499,1.34143,1.34143,0,0,0-1.13965.66992,2.86615,2.86615,0,0,0-.23975,1.36914,2.97257,2.97257,0,0,0,.25,1.40918,1.30475,1.30475,0,0,0,1.13916.66943,1.2897,1.2897,0,0,0,1.15967-.73924,3.03847,3.03847,0,0,0,.21973-1.33936A2.74347,2.74347,0,0,0,13.05859,134.59522Z" transform="translate(0.00009 0.00069)"/>
      <path class="cls-2" d="M17.209,138.313a2.21191,2.21191,0,0,1-2.14887-2.26854,2.24,2.24,0,0,1,2.15864-2.31849l.0103-.00035c.76953,0,1.52881.38964,1.52881,1.06933a.45977.45977,0,1,1-.91932.02013l-.00011-.00988a.45125.45125,0,0,1,.442-.46029q.01385-.00027.0277.00029a1.6284,1.6284,0,0,0-1.06933-.36963c-.52979,0-1.34912.41943-1.34912,2.04883,0,1.60888.87939,2.03857,1.40917,2.03857a1.30477,1.30477,0,0,0,1.30909-1.04931c.02-.06006.04-.09961.12987-.09961.03027,0,.13038,0,.13038.09961A1.64451,1.64451,0,0,1,17.209,138.313Z" transform="translate(0.00009 0.00069)"/>
      <path class="cls-2" d="M23.11816,138.17334l-1.07959.02979v-.31006c.18994,0,.35986-.03955.35986-.22949a8.31668,8.31668,0,0,0-1.18945-1.79932l-.63965.54981v1.02929c0,.44971.10987.44971.77979.44971v.31006l-1.09961-.02979-1.08936.02979v-.31006c.66992,0,.77979,0,.77979-.44971v-5.19677c0-.48975-.08008-.56006-.77979-.56006V131.377l1.43946-.10987v4.79735l1.40918-1.21972a.51811.51811,0,0,0,.21972-.38965c0-.12989-.1001-.23975-.29-.25v-.30957c.14014.00976.75977.02978,1.11963.02978a5.58231,5.58231,0,0,0,.69971-.02978v.30957a1.98106,1.98106,0,0,0-1.25928.54,10.64239,10.64239,0,0,0-.80957.71973c0,.02978.04981.08984.06006.10986l1.269,1.78906c.37989.5293.59961.5293.96973.5293v.31006Q23.55273,138.1731,23.11816,138.17334Z" transform="translate(0.00009 0.00069)"/>
    </g>
    <g>
      <path class="cls-2" d="M82.34326,181.415v5.51709c0,.19,0,.25977-.13965.25977-.07031,0-.08008-.00977-.16992-.12988l-4.07814-5.9966a.58012.58012,0,0,0-.0996-.12012v5.19727c0,.26953,0,.73925,1.02929.73925v.31006l-1.16992-.02978-1.169.02978v-.31006c1.02929,0,1.02929-.46972,1.02929-.73925v-5.21729c0-.18994-.00977-.19971-.23925-.23-.15039-.00977-.35058-.02-.5-.02h-.29v-.30957h1.69921c.18947,0,.20021.00977.29.12988l3.52735,5.187V181.415c0-.27,0-.73974-1.0293-.73974v-.30957l1.16992.02978,1.169-.02978v.30957C82.34326,180.6753,82.34326,181.145,82.34326,181.415Z" transform="translate(0.00009 0.00069)"/>
      <path class="cls-2" d="M86.19482,187.30176a2.25584,2.25584,0,0,1-2.19824-2.30859,2.18372,2.18372,0,0,1,2.0791-2.27881,1.77293,1.77293,0,0,1,1.78906,1.959c0,.21-.03027.21-.25.21H84.82568a2.90952,2.90952,0,0,0,.29981,1.499,1.34717,1.34717,0,0,0,1.12988.66943A1.408,1.408,0,0,0,87.604,186.0225c.02051-.08008.04-.13965.12988-.13965a.11641.11641,0,0,1,.13086.11963A1.709,1.709,0,0,1,86.19482,187.30176Zm-.11914-4.36767c-.33984,0-1.17969.25-1.23926,1.73924h2.36817C87.20459,184.2837,87.105,182.93409,86.07568,182.93409Z" transform="translate(0.00009 0.00069)"/>
      <path class="cls-2" d="M92.71435,183.45411a.284.284,0,0,1-.29-.27787q-.00012-.00606,0-.01213a.26727.26727,0,0,1,.16016-.27.476.476,0,0,0-.1006-.00977,1.31345,1.31345,0,0,0-.8994.38965,1.35006,1.35006,0,0,1,.41015.96973,1.54658,1.54658,0,0,1-1.61914,1.459,1.70023,1.70023,0,0,1-.98926-.30957.73561.73561,0,0,0-.16992.46972.6519.6519,0,0,0,.52929.66944c.07031.01025.5.01025.75.01025a3.55276,3.55276,0,0,1,1.71875.27979,1.27751,1.27751,0,0,1,.64942,1.13916c0,.77978-1.03907,1.28955-2.21875,1.28955-1.21875,0-2.209-.54981-2.209-1.26953a1.12825,1.12825,0,0,1,.91993-.99952,1.06588,1.06588,0,0,1-.43946-.88964,1.31943,1.31943,0,0,0-.16015-1.85889,1.54656,1.54656,0,0,1,1.61914-1.459,1.66617,1.66617,0,0,1,1.05958.35986,1.5357,1.5357,0,0,1,1.05859-.46972.48844.48844,0,0,1,.50929.46667q.00051.01154.00047.02307a.28836.28836,0,0,1-.27675.29952Q92.72052,183.45412,92.71435,183.45411Zm-2.34863,3.668h-.58984a.8788.8788,0,0,0-.81935.85938c0,.52978.68945,1.03955,1.69824,1.03955.9795,0,1.68946-.5,1.68946-1.03955,0-.85941-1.11912-.85941-1.97851-.85941Zm.00977-4.11767a.86454.86454,0,0,0-.71.39941,1.6471,1.6471,0,0,0-.16015.83985c0,.23,0,1.229.87012,1.229a.86244.86244,0,0,0,.709-.39941,1.637,1.637,0,0,0,.16016-.83985c0-.23,0-1.229-.86913-1.229Z" transform="translate(0.00009 0.00069)"/>
      <path class="cls-2" d="M97.16455,187.252a.8375.8375,0,0,1-.78028-.81983,1.38165,1.38165,0,0,1-1.3086.86963c-.62988,0-1.59961-.25-1.59961-1.05957a1.45562,1.45562,0,0,1,1-1.29883,4.84847,4.84847,0,0,1,1.83887-.35986v-.37012a1.13241,1.13241,0,0,0-.974-1.27125q-.04263-.00566-.0856-.008a1.40132,1.40132,0,0,0-1.0791.46.4534.4534,0,0,1,.50976.45948.46.46,0,1,1-.92-.00112l.00009-.0087c0-.65965.68945-1.12939,1.50879-1.12939a1.90926,1.90926,0,0,1,1.37012.5498,1.479,1.479,0,0,1,.35936,1.1792v1.999c0,.0498.04.49951.37012.49951.10937,0,.35937-.06006.35937-.63965v-.55957h.25v.55957a.84865.84865,0,0,1-.74119.944Q97.20377,187.25089,97.16455,187.252Zm-.84961-2.459c-1.64942.06006-2.06935.88965-2.06935,1.43945a.861.861,0,0,0,.87147.8504l.028-.00079a1.20077,1.20077,0,0,0,1.17292-1.22795q-.00072-.03083-.003-.0616Z" transform="translate(0.00009 0.00069)"/>
      <path class="cls-2" d="M100.48486,187.30176a1.209,1.209,0,0,1-1.28906-1.34912v-2.7583h-.84961v-.22022c.97949-.04,1.27929-1.10937,1.28906-1.92872h.25v1.83887h1.42969v.31005H99.88525v2.77832c0,.16993,0,1.07911.66992,1.07911.37012,0,.66992-.3794.66992-1.11914v-.54981h.25v.56983C101.47511,186.59229,101.19482,187.30176,100.48486,187.30176Z" transform="translate(0.00009 0.00069)"/>
      <path class="cls-2" d="M103.47511,187.16211l-1.0996.02979v-.31006c.66992,0,.78027,0,.78027-.44971v-2.68847c0-.48975-.08985-.54932-.74024-.54932v-.31006l1.39942-.10986v3.668c0,.38965.04.43945.70019.43945v.31006C104.17529,187.18213,103.8247,187.16211,103.47511,187.16211Zm-.0498-5.477a.53935.53935,0,0,1-.52929-.52979.53383.53383,0,0,1,.53785-.5298l.00122,0a.54021.54021,0,0,1,.53027.52978.53471.53471,0,0,1-.53965.52974h-.00042Z" transform="translate(0.00009 0.00069)"/>
      <path class="cls-2" d="M108.98388,183.86377l-1.30859,3.24805c-.04.1001-.08008.18994-.21.18994s-.15039-.0498-.21-.18994l-1.43946-3.54785c-.12988-.31006-.16992-.36963-.79979-.36963v-.31006c.29979.02.7002.02979.96973.02979l1.08887-.02979v.31006c-.17969,0-.56934,0-.56934.25977a.52862.52862,0,0,0,.06055.16992l1.11915,2.78808,1.01953-2.54834a.59962.59962,0,0,0,.05958-.23974c0-.18994-.10938-.41992-.47951-.42969v-.31006l.86915.02979c.23046,0,.51953-.00977.75-.02979v.31006A.90481.90481,0,0,0,108.98388,183.86377Z" transform="translate(0.00009 0.00069)"/>
      <path class="cls-2" d="M112.30517,187.30176a2.25664,2.25664,0,0,1-2.19922-2.30859,2.18437,2.18437,0,0,1,2.07912-2.27881,1.77285,1.77285,0,0,1,1.78906,1.959c0,.21-.03027.21-.25.21h-2.78808a2.90951,2.90951,0,0,0,.2998,1.499,1.3455,1.3455,0,0,0,1.12891.66943,1.4082,1.4082,0,0,0,1.34961-1.02929c.01953-.08008.04-.13965.12988-.13965a.1161.1161,0,0,1,.12913.10141.11431.11431,0,0,1,.00075.01822A1.70867,1.70867,0,0,1,112.30517,187.30176Zm-.12012-4.36767c-.33984,0-1.17968.25-1.23925,1.73924h2.36914c0-.38963-.10059-1.73924-1.12982-1.73924Z" transform="translate(0.00009 0.00069)"/>
      <path class="cls-2" d="M120.0747,187.30176a2.25663,2.25663,0,0,1-2.1992-2.30859,2.18435,2.18435,0,0,1,2.0791-2.27881,1.77285,1.77285,0,0,1,1.78906,1.959c0,.21-.03027.21-.25.21h-2.78808a2.90951,2.90951,0,0,0,.2998,1.499,1.34552,1.34552,0,0,0,1.12891.66943,1.4082,1.4082,0,0,0,1.34961-1.02929c.01953-.08008.04-.13965.12988-.13965a.11605.11605,0,0,1,.12988.11963A1.70867,1.70867,0,0,1,120.0747,187.30176Zm-.12011-4.36767c-.33985,0-1.17969.25-1.23926,1.73924h2.36914C121.08447,184.2837,120.98388,182.93409,119.95459,182.93409Z" transform="translate(0.00009 0.00069)"/>
      <path class="cls-2" d="M125.83349,187.30176v-.65967a1.68761,1.68761,0,0,1-1.33886.65967,2.19826,2.19826,0,0,1-2.11915-2.25879,2.259,2.259,0,0,1,2.22852-2.26855,1.596,1.596,0,0,1,1.25977.61963v-2.15869c0-.48975-.08008-.56006-.7793-.56006v-.30957l1.43848-.10987v6.06641c0,.48975.08006.55957.78027.55957v.31006Zm0-3.33789a.48012.48012,0,0,0-.10937-.37012,1.29679,1.29679,0,0,0-1.08008-.59959,1.37442,1.37442,0,0,0-1.12891.63963,3.44488,3.44488,0,0,0-.02049,2.8086,1.24405,1.24405,0,0,0,1.04981.63965,1.39274,1.39274,0,0,0,1.17968-.69971.47959.47959,0,0,0,.10938-.36963Z" transform="translate(0.00009 0.00069)"/>
      <path class="cls-2" d="M132.1538,183.45411a.284.284,0,0,1-.29-.27788c-.00009-.00405-.00009-.00807,0-.01212a.26728.26728,0,0,1,.16016-.27.4759.4759,0,0,0-.10059-.00977,1.31347,1.31347,0,0,0-.89941.38965,1.3501,1.3501,0,0,1,.41015.96973,1.54656,1.54656,0,0,1-1.61914,1.459,1.70018,1.70018,0,0,1-.98925-.30957.73562.73562,0,0,0-.16993.46972.65189.65189,0,0,0,.5293.66944c.07031.01025.5.01025.75.01025a3.55278,3.55278,0,0,1,1.71875.27979,1.27754,1.27754,0,0,1,.64941,1.13916c0,.77978-1.03906,1.28955-2.21875,1.28955-1.21875,0-2.209-.54981-2.209-1.26953a1.12826,1.12826,0,0,1,.91993-.99952,1.0659,1.0659,0,0,1-.43946-.88964,1.31945,1.31945,0,0,0-.16015-1.85889,1.54656,1.54656,0,0,1,1.61914-1.459,1.66618,1.66618,0,0,1,1.05957.35986,1.5357,1.5357,0,0,1,1.05859-.46972.48845.48845,0,0,1,.50931.46666q.00051.01153.00046.02308a.28836.28836,0,0,1-.27677.29952C132.162,183.454,132.15791,183.45412,132.1538,183.45411Zm-2.34863,3.668h-.58984a.8788.8788,0,0,0-.81934.85938c0,.52978.68946,1.03955,1.69826,1.03955.97949,0,1.68945-.5,1.68945-1.03955,0-.85941-1.11915-.85941-1.97853-.85941Zm.00977-4.11767a.86455.86455,0,0,0-.71.39941,1.6469,1.6469,0,0,0-.16016.83985c0,.23,0,1.229.87012,1.229a.86243.86243,0,0,0,.709-.39941,1.63685,1.63685,0,0,0,.16016-.83985c.00006-.23.00006-1.229-.86911-1.229Z" transform="translate(0.00009 0.00069)"/>
      <path class="cls-2" d="M135.0747,187.30176a2.25663,2.25663,0,0,1-2.1992-2.30859,2.18435,2.18435,0,0,1,2.0791-2.27881,1.77285,1.77285,0,0,1,1.78906,1.959c0,.21-.03027.21-.25.21h-2.78808a2.90951,2.90951,0,0,0,.2998,1.499,1.34552,1.34552,0,0,0,1.12891.66943,1.4082,1.4082,0,0,0,1.34961-1.02929c.01953-.08008.04-.13965.12988-.13965a.11605.11605,0,0,1,.12988.11963A1.70867,1.70867,0,0,1,135.0747,187.30176Zm-.12011-4.36767c-.33985,0-1.17969.25-1.23926,1.73924h2.36914C136.08447,184.2837,135.98388,182.93409,134.95459,182.93409Z" transform="translate(0.00009 0.00069)"/>
      <path class="cls-2" d="M142.69384,187.30176a1.209,1.209,0,0,1-1.28906-1.34912v-2.7583h-.84961v-.22022c.97949-.04,1.2793-1.10937,1.28906-1.92872h.25v1.83887h1.42969v.31005h-1.42969v2.77832c0,.16993,0,1.07911.66993,1.07911.37011,0,.66992-.3794.66992-1.11914v-.54981h.25v.56983C143.68411,186.59229,143.4038,187.30176,142.69384,187.30176Z" transform="translate(0.00009 0.00069)"/>
      <path class="cls-2" d="M147.46338,183.82373a.41407.41407,0,0,1-.42969-.39784c-.00041-.0106-.00041-.02124,0-.03184a.432.432,0,0,1,.23047-.38965.25006.25006,0,0,0-.11036-.01026c-.75976,0-1.17872.88964-1.17872,1.87891v1.53906c0,.35987.01955.46973.75879.46973h.21v.31006c-.39941-.02979-.86914-.02979-1.26855-.02979l-1.13965.02979v-.31006c.66992,0,.7793,0,.7793-.44971v-2.67822c0-.48975-.08008-.55957-.7793-.55957v-.31006l1.38867-.10986v1.09912a1.40053,1.40053,0,0,1,1.22951-1.09912.68251.68251,0,0,1,.74023.60937.42044.42044,0,0,1-.40034.43962Q147.47856,183.82413,147.46338,183.82373Z" transform="translate(0.00009 0.00069)"/>
      <path class="cls-2" d="M149.605,187.16211l-1.09961.02979v-.31006c.66992,0,.77929,0,.77929-.44971v-2.68847c0-.48975-.08984-.54932-.73924-.54932v-.31006l1.39942-.10986v3.668c0,.38965.04.43945.69921.43945v.31006C150.3042,187.18213,149.95459,187.16211,149.605,187.16211Zm-.04981-5.477a.54023.54023,0,0,1-.53027-.52979.53469.53469,0,1,1,.53955.52979Z" transform="translate(0.00009 0.00069)"/>
      <path class="cls-2" d="M155.51318,183.45411a.284.284,0,0,1-.29-.27788c-.0001-.00405-.0001-.00807,0-.01212a.2686.2686,0,0,1,.16015-.27.46737.46737,0,0,0-.09961-.00977,1.312,1.312,0,0,0-.89941.38965,1.34931,1.34931,0,0,1,.40918.96973,1.54657,1.54657,0,0,1-1.61914,1.459,1.7021,1.7021,0,0,1-.98924-.30957.73557.73557,0,0,0-.16994.46972.65179.65179,0,0,0,.53027.66944c.06934.01025.499.01025.749.01025a3.55074,3.55074,0,0,1,1.71875.27979,1.27867,1.27867,0,0,1,.65039,1.13916c0,.77978-1.04,1.28955-2.21875,1.28955-1.21973,0-2.209-.54981-2.209-1.26953a1.12708,1.12708,0,0,1,.91894-.99952,1.06587,1.06587,0,0,1-.43945-.88964,1.31943,1.31943,0,0,0-.16016-1.85889,1.54657,1.54657,0,0,1,1.61914-1.459,1.66614,1.66614,0,0,1,1.05957.35986,1.53761,1.53761,0,0,1,1.05957-.46972.4891.4891,0,0,1,.50933.468c.00032.00723.00045.01449.00044.02174a.28908.28908,0,0,1-.27821.29955Q155.5191,183.45414,155.51318,183.45411Zm-2.34863,3.668h-.58985a.87955.87955,0,0,0-.81933.85938c0,.52978.68945,1.03955,1.69922,1.03955.97949,0,1.68847-.5,1.68847-1.03955.00005-.85941-1.11914-.85941-1.97851-.85941Zm.00976-4.11767a.86406.86406,0,0,0-.709.39941,1.63694,1.63694,0,0,0-.16015.83985c0,.23,0,1.229.86914,1.229a.86453.86453,0,0,0,.71-.39941,1.6469,1.6469,0,0,0,.16016-.83985c0-.23,0-1.229-.87015-1.229Z" transform="translate(0.00009 0.00069)"/>
      <path class="cls-2" d="M160.51318,183.45411a.284.284,0,0,1-.29-.27788c-.0001-.00405-.0001-.00807,0-.01212a.2686.2686,0,0,1,.16015-.27.46737.46737,0,0,0-.09961-.00977,1.312,1.312,0,0,0-.89941.38965,1.34931,1.34931,0,0,1,.40918.96973,1.54657,1.54657,0,0,1-1.61914,1.459,1.7021,1.7021,0,0,1-.98924-.30957.73557.73557,0,0,0-.16994.46972.65179.65179,0,0,0,.53027.66944c.06934.01025.499.01025.749.01025a3.55074,3.55074,0,0,1,1.71875.27979,1.27867,1.27867,0,0,1,.65039,1.13916c0,.77978-1.04,1.28955-2.21875,1.28955-1.21973,0-2.209-.54981-2.209-1.26953a1.12708,1.12708,0,0,1,.91894-.99952,1.06587,1.06587,0,0,1-.43945-.88964,1.31943,1.31943,0,0,0-.16016-1.85889,1.54657,1.54657,0,0,1,1.61914-1.459,1.66614,1.66614,0,0,1,1.05957.35986,1.53761,1.53761,0,0,1,1.05957-.46972.4891.4891,0,0,1,.50933.468c.00032.00723.00045.01449.00044.02174a.28908.28908,0,0,1-.27821.29955Q160.5191,183.45414,160.51318,183.45411Zm-2.34863,3.668h-.58985a.87955.87955,0,0,0-.81933.85938c0,.52978.68945,1.03955,1.69922,1.03955.97949,0,1.68847-.5,1.68847-1.03955.00005-.85941-1.11914-.85941-1.97851-.85941Zm.00976-4.11767a.86406.86406,0,0,0-.709.39941,1.63694,1.63694,0,0,0-.16015.83985c0,.23,0,1.229.86914,1.229a.86453.86453,0,0,0,.71-.39941,1.6469,1.6469,0,0,0,.16016-.83985c0-.23,0-1.229-.87015-1.229Z" transform="translate(0.00009 0.00069)"/>
      <path class="cls-2" d="M163.43411,187.30176a2.25584,2.25584,0,0,1-2.19824-2.30859,2.18372,2.18372,0,0,1,2.0791-2.27881,1.77285,1.77285,0,0,1,1.78906,1.959c0,.21-.03027.21-.25.21H162.065a2.90961,2.90961,0,0,0,.2998,1.499,1.34719,1.34719,0,0,0,1.12989.66943,1.408,1.408,0,0,0,1.34863-1.02929c.02051-.08008.04-.13965.12988-.13965a.11647.11647,0,0,1,.13086.11963A1.709,1.709,0,0,1,163.43411,187.30176Zm-.11914-4.36767c-.33985,0-1.17969.25-1.23926,1.73924h2.36816c0-.38963-.09964-1.73924-1.12893-1.73924Z" transform="translate(0.00009 0.00069)"/>
      <path class="cls-2" d="M168.603,183.82373a.414.414,0,0,1-.42968-.39781q-.00063-.01593,0-.03187a.432.432,0,0,1,.23046-.38965.24991.24991,0,0,0-.11036-.01026c-.75977,0-1.17871.88964-1.17871,1.87891v1.53906c0,.35987.01953.46973.75879.46973h.21v.31006c-.39941-.02979-.86914-.02979-1.26855-.02979l-1.13965.02979v-.31006c.66992,0,.7793,0,.7793-.44971v-2.67822c0-.48975-.08008-.55957-.7793-.55957v-.31006l1.38867-.10986v1.09912a1.40053,1.40053,0,0,1,1.22949-1.09912.68254.68254,0,0,1,.74024.60937.42045.42045,0,0,1-.40035.43962Q168.61822,183.82413,168.603,183.82373Z" transform="translate(0.00009 0.00069)"/>
      <path class="cls-2" d="M171.79443,187.30176a2.25664,2.25664,0,0,1-2.19922-2.30859,2.18436,2.18436,0,0,1,2.0791-2.27881,1.77293,1.77293,0,0,1,1.78907,1.959c0,.21-.03028.21-.25.21h-2.78809a2.90961,2.90961,0,0,0,.2998,1.499,1.34556,1.34556,0,0,0,1.12891.66943,1.4082,1.4082,0,0,0,1.34961-1.02929c.01953-.08008.04-.13965.12988-.13965a.11612.11612,0,0,1,.12989.11963A1.70869,1.70869,0,0,1,171.79443,187.30176Zm-.12012-4.36767c-.33984,0-1.17968.25-1.23924,1.73924h2.36914C172.8042,184.2837,172.70361,182.93409,171.67431,182.93409Z" transform="translate(0.00009 0.00069)"/>
      <path class="cls-2" d="M177.55322,187.30176v-.65967a1.68973,1.68973,0,0,1-1.33984.65967,2.19811,2.19811,0,0,1-2.11817-2.25879,2.25833,2.25833,0,0,1,2.22852-2.26855,1.59589,1.59589,0,0,1,1.25976.61963v-2.15869c0-.48975-.08008-.56006-.78027-.56006v-.30957l1.43945-.10987v6.06641c0,.48975.08008.55957.7793.55957v.31006Zm0-3.33789a.47725.47725,0,0,0-.11035-.37012,1.29528,1.29528,0,0,0-1.0791-.59959,1.37481,1.37481,0,0,0-1.12989.63963,3.43971,3.43971,0,0,0-.01953,2.8086,1.24284,1.24284,0,0,0,1.04981.63965,1.39124,1.39124,0,0,0,1.17871-.69971.47661.47661,0,0,0,.11035-.36963Z" transform="translate(0.00009 0.00069)"/>
    </g>
    <g>
      <line class="cls-6" x1="210.67976" y1="129.98214" x2="215.67976" y2="129.98214"/>
      <path class="cls-2" d="M214.87513,119.82137c-.71972,0-.82373-.6875-.95166-1.50293a2.458,2.458,0,0,1-.75146.12012,2.75383,2.75383,0,0,1-2.61476-2.87887,2.62678,2.62678,0,1,1,5.22119,0,2.8884,2.8884,0,0,1-1.623,2.66309c.19189.55957.376.85547.78369.85547a.75593.75593,0,0,0,.72754-.76758c.00781-.05566.00781-.1123.07177-.1123.08008,0,.08008.07226.08008.15234C215.81848,118.42294,215.81067,119.82137,214.87513,119.82137Zm-1.71094-7.0039c-.7998,0-1.87939.74365-1.87939,2.73437,0,1.72754.7998,2.415,1.3916,2.62305a.77485.77485,0,0,1-.12793-.4082.64635.64635,0,0,1,.62013-.67154l.01122-.00034c.52,0,.74365.47168.87988.87207a2.78392,2.78392,0,0,0,.99121-2.415C215.0509,113.58505,214.00354,112.81747,213.16419,112.81747Zm.01563,4.4375a.48871.48871,0,0,0-.47168.5039.477.477,0,0,0,.44926.5033l.01461.00061a1.53374,1.53374,0,0,0,.71142-.18457C213.79553,117.63094,213.63586,117.255,213.17982,117.255Z" transform="translate(0.00009 0.00069)"/>
      <path class="cls-2" d="M214.87513,138.82137c-.71972,0-.82373-.6875-.95166-1.50293a2.458,2.458,0,0,1-.75146.12012,2.75383,2.75383,0,0,1-2.61476-2.87887,2.62678,2.62678,0,1,1,5.22119,0,2.8884,2.8884,0,0,1-1.623,2.66309c.19189.55957.376.85547.78369.85547a.75593.75593,0,0,0,.72754-.76758c.00781-.05566.00781-.1123.07177-.1123.08008,0,.08008.07226.08008.15234C215.81848,137.42294,215.81067,138.82137,214.87513,138.82137Zm-1.71094-7.0039c-.7998,0-1.87939.74365-1.87939,2.73437,0,1.72754.7998,2.415,1.3916,2.62305a.77485.77485,0,0,1-.12793-.4082.64635.64635,0,0,1,.62013-.67154l.01122-.00034c.52,0,.74365.47168.87988.87207a2.78392,2.78392,0,0,0,.99121-2.415C215.0509,132.58505,214.00354,131.81747,213.16419,131.81747Zm.01563,4.4375a.48871.48871,0,0,0-.47168.5039.477.477,0,0,0,.44926.5033l.01461.00061a1.53374,1.53374,0,0,0,.71142-.18457C213.79553,136.63094,213.63586,136.255,213.17982,136.255Z" transform="translate(0.00009 0.00069)"/>
    </g>
  </g>
  <g>
    <line class="cls-6" x1="210.56405" y1="30.2031" x2="215.56405" y2="30.2031"/>
    <path class="cls-2" d="M214.75941,20.04233c-.71971,0-.82373-.6875-.95166-1.50293a2.458,2.458,0,0,1-.75146.12012,2.75383,2.75383,0,0,1-2.61475-2.87887,2.62678,2.62678,0,1,1,5.22119,0,2.88842,2.88842,0,0,1-1.623,2.66309c.19189.55957.376.85547.78369.85547a.75594.75594,0,0,0,.72754-.76758c.0078-.05566.0078-.1123.07177-.1123.08007,0,.08007.07226.08007.15234C215.70277,18.6439,215.695,20.04233,214.75941,20.04233Zm-1.71094-7.0039c-.7998,0-1.87939.74365-1.87939,2.73437,0,1.72754.7998,2.415,1.3916,2.623a.77494.77494,0,0,1-.12793-.4082.64634.64634,0,0,1,.62013-.67153l.01123-.00035c.52,0,.74364.47168.87987.87207a2.78393,2.78393,0,0,0,.99122-2.415C214.93518,13.806,213.88782,13.03843,213.04847,13.03843Zm.01563,4.4375a.48873.48873,0,0,0-.47168.5039.477.477,0,0,0,.44926.5033l.01461.00061a1.53355,1.53355,0,0,0,.71142-.18457C213.67981,17.8519,213.52014,17.47593,213.0641,17.47593Z" transform="translate(0.00009 0.00069)"/>
    <path class="cls-2" d="M214.75941,39.04233c-.71971,0-.82373-.6875-.95166-1.50293a2.458,2.458,0,0,1-.75146.12012,2.75383,2.75383,0,0,1-2.61475-2.87887,2.62678,2.62678,0,1,1,5.22119,0,2.88842,2.88842,0,0,1-1.623,2.66309c.19189.55957.376.85547.78369.85547a.75594.75594,0,0,0,.72754-.76758c.0078-.05566.0078-.1123.07177-.1123.08007,0,.08007.07226.08007.15234C215.70277,37.6439,215.695,39.04233,214.75941,39.04233Zm-1.71094-7.0039c-.7998,0-1.87939.74365-1.87939,2.73437,0,1.72754.7998,2.415,1.3916,2.62305a.77494.77494,0,0,1-.12793-.4082.64634.64634,0,0,1,.62013-.67153l.01123-.00035c.52,0,.74364.47168.87987.87207a2.78393,2.78393,0,0,0,.99122-2.415C214.93518,32.806,213.88782,32.03843,213.04847,32.03843Zm.01563,4.4375a.48873.48873,0,0,0-.47168.5039.477.477,0,0,0,.44926.5033l.01461.00061a1.53355,1.53355,0,0,0,.71142-.18457C213.67981,36.8519,213.52014,36.47593,213.0641,36.47593Z" transform="translate(0.00009 0.00069)"/>
  </g>
</svg>
