<svg id="Layer_1" data-name="Layer 1" xmlns="http://www.w3.org/2000/svg" viewBox="0 0 50 32">
  <defs>
    <style>
      .cls-1, .cls-3 {
        fill: none;
        stroke: #8ff4dd;
        stroke-miterlimit: 10;
      }

      .cls-1 {
        stroke-width: 2px;
      }

      .cls-2 {
        fill: #8ff4dd;
      }

      .cls-3 {
        stroke-width: 0.5px;
      }
    </style>
  </defs>
  <title>DFlipFlop</title>
  <g>
    <rect class="cls-1" x="10" y="1" width="30" height="30"/>
    <line class="cls-1" x1="10" y1="6" y2="6"/>
    <line class="cls-1" x1="10" y1="26" y2="26"/>
    <line class="cls-1" x1="50" y1="6" x2="40" y2="6"/>
    <line class="cls-1" x1="50" y1="26" x2="40" y2="26"/>
    <path class="cls-2" d="M59.23926,82.73047H56.31348v-.248h.1914c.61621,0,.63184-.08789.63184-.37549V77.89307c0-.2876-.01563-.37549-.63184-.37549h-.1914v-.248h2.92578A2.62422,2.62422,0,0,1,61.68652,80.044,2.56828,2.56828,0,0,1,59.23926,82.73047Zm1.23144-4.46973a1.72438,1.72438,0,0,0-1.45507-.74316h-.79981c-.376,0-.3916.05566-.3916.31933V82.1626c0,.26416.01562.31982.3916.31982h.80762a1.75328,1.75328,0,0,0,1.42383-.67969,2.74634,2.74634,0,0,0,.43945-1.75878A3.09355,3.09355,0,0,0,60.4707,78.26074Z" transform="translate(-44 -74)"/>
    <line class="cls-3" x1="32.5" y1="20.5" x2="37.5" y2="20.5"/>
    <polyline class="cls-3" points="10.67 23.5 15 26 10.67 28.5"/>
    <path class="cls-2" d="M80.69545,84.33992c-.71972,0-.82373-.6875-.95166-1.50293a2.458,2.458,0,0,1-.75146.12012,2.75384,2.75384,0,0,1-2.61476-2.87887,2.62678,2.62678,0,1,1,5.2212,0,2.88843,2.88843,0,0,1-1.623,2.66309c.1919.55957.376.85547.7837.85547a.75594.75594,0,0,0,.72754-.76758c.0078-.05566.0078-.1123.07176-.1123.08008,0,.08008.07226.08008.15234C81.6388,82.94149,81.631,84.33992,80.69545,84.33992ZM78.98451,77.336c-.7998,0-1.87939.74365-1.87939,2.73437,0,1.72754.7998,2.415,1.3916,2.623a.77494.77494,0,0,1-.12793-.4082.64634.64634,0,0,1,.62013-.67153l.01122-.00035c.52,0,.74365.47168.87988.87207a2.7839,2.7839,0,0,0,.99121-2.415C80.87122,78.1036,79.82386,77.336,78.98451,77.336Zm.01563,4.4375a.48872.48872,0,0,0-.47168.5039.477.477,0,0,0,.44926.5033l.01461.00061a1.53355,1.53355,0,0,0,.71142-.18457C79.61585,82.14949,79.45618,81.77352,79.00014,81.77352Z" transform="translate(-44 -74)"/>
    <path class="cls-2" d="M80.69545,103.33992c-.71972,0-.82373-.6875-.95166-1.50293a2.458,2.458,0,0,1-.75146.12012,2.75384,2.75384,0,0,1-2.61476-2.87887,2.62678,2.62678,0,1,1,5.2212,0,2.88843,2.88843,0,0,1-1.623,2.66309c.1919.55957.376.85547.7837.85547a.75594.75594,0,0,0,.72754-.76758c.0078-.05566.0078-.1123.07176-.1123.08008,0,.08008.07226.08008.15234C81.6388,101.94149,81.631,103.33992,80.69545,103.33992ZM78.98451,96.336c-.7998,0-1.87939.74365-1.87939,2.73437,0,1.72754.7998,2.415,1.3916,2.623a.77494.77494,0,0,1-.12793-.4082.64634.64634,0,0,1,.62013-.67153l.01122-.00035c.52,0,.74365.47168.87988.87207a2.7839,2.7839,0,0,0,.99121-2.415C80.87122,97.1036,79.82386,96.336,78.98451,96.336Zm.01563,4.4375a.48872.48872,0,0,0-.47168.5039.477.477,0,0,0,.44926.5033l.01461.00061a1.53355,1.53355,0,0,0,.71142-.18457C79.61585,101.14949,79.45618,100.77352,79.00014,100.77352Z" transform="translate(-44 -74)"/>
  </g>
</svg>
