<svg xmlns="http://www.w3.org/2000/svg" viewBox="0 0 227.76611 189.25098">
  <defs>
    <style>
      .cls-1, .cls-3, .cls-4, .cls-5, .cls-6 {
        fill: none;
        stroke: #8ff4dd;
      }

      .cls-1, .cls-3, .cls-6 {
        stroke-miterlimit: 10;
      }

      .cls-1, .cls-4, .cls-6 {
        stroke-width: 2px;
      }

      .cls-2 {
        fill: #8ff4dd;
      }

      .cls-3 {
        stroke-width: 0.5px;
      }

      .cls-5 {
        stroke-width: 1.5px;
      }

      .cls-6 {
        stroke-linecap: square;
      }
    </style>
  </defs>
  <title>DFlipFlopConstruction</title>
  <g id="Layer_1" data-name="Layer 1">
    <rect class="cls-1" x="87.76611" y="10.73145" width="30" height="30"/>
    <line class="cls-1" x1="87.76611" y1="15.73145" x2="77.76611" y2="15.73145"/>
    <line class="cls-1" x1="87.76611" y1="35.73145" x2="77.76611" y2="35.73145"/>
    <line class="cls-1" x1="127.76611" y1="15.73145" x2="117.76611" y2="15.73145"/>
    <line class="cls-1" x1="127.76611" y1="35.73145" x2="117.76611" y2="35.73145"/>
    <path class="cls-2" d="M115.23975,67.73036h-2.92627v-.248h.19189c.61572,0,.63184-.08789.63184-.376V62.89345c0-.28809-.01612-.376-.63184-.376h-.19189v-.248h2.92627a2.62354,2.62354,0,0,1,2.44677,2.77441,2.56822,2.56822,0,0,1-2.44433,2.68639Zm1.23144-4.46972a1.72439,1.72439,0,0,0-1.45508-.74317h-.7998c-.37549,0-.3916.05567-.3916.31934V67.163c0,.26367.01611.31934.3916.31934h.80762a1.75266,1.75266,0,0,0,1.42334-.67969,2.74307,2.74307,0,0,0,.43994-1.75879A3.09262,3.09262,0,0,0,116.47119,63.26064Z" transform="translate(-22.23389 -49.26855)"/>
    <g>
      <path class="cls-2" d="M116.9458,87.578H112.332V87.33h.1919c.61572,0,.63183-.08789.63183-.376V82.76455c0-.28809-.01611-.376-.63183-.376h-.1919v-.248h4.5015l.22412,1.79981h-.19971c-.12793-1.11133-.34375-1.55176-1.56738-1.55176h-1.03125c-.376,0-.39209.05664-.39209.32031v1.91895h.71972c.77588,0,.86377-.248.86377-.93555h.19971V85.8114h-.19971c0-.67969-.08789-.93555-.86377-.93555h-.71972v2.13477c0,.26367.01611.31934.39209.31934h1.06347c1.375,0,1.55909-.584,1.75879-1.81446h.2002Z" transform="translate(-22.23389 -49.26855)"/>
      <path class="cls-2" d="M120.89844,87.55361l-.90381.02441V87.33c.53564,0,.624,0,.624-.35938v-1.8633c0-.45606-.08838-.8877-.59179-.8877a1.16816,1.16816,0,0,0-1.08223,1.24817l.00264.03113V86.9706c0,.35938.08789.35938.62353.35938v.248l-.89551-.02441-.90327.02443V87.33c.53565,0,.62354,0,.62354-.35938V84.828c0-.39258-.064-.44824-.62354-.44824v-.248l1.12744-.08789v.83985a1.25988,1.25988,0,0,1,1.18311-.83985,1.06786,1.06786,0,0,1,.83984.2959c.24756.28809.24756.53613.24756,1.22363v1.52735c.0083.23926.208.23926.624.23926v.248Z" transform="translate(-22.23389 -49.26855)"/>
    </g>
    <rect class="cls-1" x="187.76611" y="10.73145" width="30" height="30"/>
    <line class="cls-1" x1="187.76611" y1="15.73145" x2="177.76611" y2="15.73145"/>
    <line class="cls-1" x1="187.76611" y1="35.73145" x2="177.76611" y2="35.73145"/>
    <line class="cls-1" x1="227.76611" y1="15.73145" x2="217.76611" y2="15.73145"/>
    <line class="cls-1" x1="227.76611" y1="35.73145" x2="217.76611" y2="35.73145"/>
    <line class="cls-3" x1="210.26611" y1="30.23145" x2="215.26611" y2="30.23145"/>
    <path class="cls-2" d="M236.43555,67.81055a4.31309,4.31309,0,0,1,.13768.4375,2.09564,2.09564,0,0,0,.26271.67578.36039.36039,0,0,0,.28515.15625.30577.30577,0,0,0,.25586-.167,1.11555,1.11555,0,0,0,.11524-.55567h.23436a1.65787,1.65787,0,0,1-.27342,1.03809.86.86,0,0,1-.70314.333.79208.79208,0,0,1-.65429-.32227,2.50969,2.50969,0,0,1-.334-1.23633,3.76656,3.76656,0,0,1-.42189.082,2.8541,2.8541,0,0,1-.38671.02735,2.51884,2.51884,0,0,1-1.34179-.377,2.65294,2.65294,0,0,1-.97657-1.082,3.43561,3.43561,0,0,1-.36133-1.59179,3.06877,3.06877,0,0,1,.8164-2.14846,2.40145,2.40145,0,0,1,1.84375-.8086,2.53256,2.53256,0,0,1,1.34766.373,2.69012,2.69012,0,0,1,.97656,1.07031,3.23728,3.23728,0,0,1-.82226,4.09571Zm-.19336-.53907a3.2822,3.2822,0,0,0,.30859-.8623,5.769,5.769,0,0,0,.09766-1.16309,4.54208,4.54208,0,0,0-.21485-1.55566,1.7384,1.7384,0,0,0-.60546-.84473,1.50451,1.50451,0,0,0-.88283-.27343,1.46508,1.46508,0,0,0-.86914.27343,1.76317,1.76317,0,0,0-.60156.85253,4.626,4.626,0,0,0-.2168,1.57521,4.918,4.918,0,0,0,.12891,1.206,3.53,3.53,0,0,0,.40234.95607c-.00488-.11963-.00781-.21534-.00781-.2881a1.079,1.079,0,0,1,.31055-.79492,1.1,1.1,0,0,1,.81445-.31152,1.16443,1.16443,0,0,1,.85156.33886A2.45222,2.45222,0,0,1,236.24219,67.27148Zm-.48047.4961a2.25521,2.25521,0,0,0-.18359-1.01953.72958.72958,0,0,0-.68361-.40625.80292.80292,0,0,0-.8361.76831h0q-.0015.03575.00017.07152a1.0404,1.0404,0,0,0,.28907.69531,1.44055,1.44055,0,0,0,.582.1211,1.61186,1.61186,0,0,0,.4414-.0586A1.53251,1.53251,0,0,0,235.76172,67.76758Z" transform="translate(-22.23389 -49.26855)"/>
    <path class="cls-2" d="M236.43555,86.31055a4.31309,4.31309,0,0,1,.13768.4375,2.09556,2.09556,0,0,0,.26271.67578.36039.36039,0,0,0,.28515.15625.30577.30577,0,0,0,.25586-.167,1.11555,1.11555,0,0,0,.11524-.55567h.23436a1.65787,1.65787,0,0,1-.27342,1.03809.86.86,0,0,1-.70314.333.79208.79208,0,0,1-.65429-.32227,2.50969,2.50969,0,0,1-.334-1.23633,3.76656,3.76656,0,0,1-.42189.082,2.8541,2.8541,0,0,1-.38671.02735,2.51884,2.51884,0,0,1-1.34179-.377,2.65294,2.65294,0,0,1-.97657-1.082,3.43561,3.43561,0,0,1-.36133-1.59179,3.06878,3.06878,0,0,1,.8164-2.14844,2.40154,2.40154,0,0,1,1.84375-.8086,2.53262,2.53262,0,0,1,1.34766.373,2.69012,2.69012,0,0,1,.97656,1.07031,3.23727,3.23727,0,0,1-.82226,4.09571Zm-.19336-.53907a3.2822,3.2822,0,0,0,.30859-.8623,5.769,5.769,0,0,0,.09766-1.16309,4.54208,4.54208,0,0,0-.21485-1.55566,1.73846,1.73846,0,0,0-.60546-.84473,1.50451,1.50451,0,0,0-.88283-.27343,1.46524,1.46524,0,0,0-.86914.27343,1.76324,1.76324,0,0,0-.60156.85254,4.626,4.626,0,0,0-.2168,1.57521,4.918,4.918,0,0,0,.12891,1.206,3.52989,3.52989,0,0,0,.40234.95606c-.00488-.11962-.00781-.21534-.00781-.28809a1.079,1.079,0,0,1,.31055-.79492,1.1,1.1,0,0,1,.81445-.31152,1.16443,1.16443,0,0,1,.85156.33886A2.45218,2.45218,0,0,1,236.24219,85.77148Zm-.48047.4961a2.25521,2.25521,0,0,0-.18359-1.01953.72958.72958,0,0,0-.68361-.40625.80292.80292,0,0,0-.8361.76831h0q-.0015.03576.00017.07152a1.04038,1.04038,0,0,0,.28907.69531,1.44055,1.44055,0,0,0,.582.1211,1.61186,1.61186,0,0,0,.4414-.0586A1.53216,1.53216,0,0,0,235.76172,86.26758Z" transform="translate(-22.23389 -49.26855)"/>
    <path class="cls-2" d="M215.23975,67.73036h-2.92627v-.248h.19189c.61572,0,.63184-.08789.63184-.376V62.89345c0-.28809-.01612-.376-.63184-.376h-.19189v-.248h2.92627a2.62354,2.62354,0,0,1,2.44677,2.77441,2.56822,2.56822,0,0,1-2.44433,2.68639Zm1.23144-4.46972a1.72439,1.72439,0,0,0-1.45508-.74317h-.7998c-.37549,0-.3916.05567-.3916.31934V67.163c0,.26367.01611.31934.3916.31934h.80762a1.75266,1.75266,0,0,0,1.42334-.67969,2.74307,2.74307,0,0,0,.43994-1.75879A3.09262,3.09262,0,0,0,216.47119,63.26064Z" transform="translate(-22.23389 -49.26855)"/>
    <g>
      <path class="cls-2" d="M216.9458,87.578H212.332V87.33h.1919c.61572,0,.63183-.08789.63183-.376V82.76455c0-.28809-.01611-.376-.63183-.376h-.1919v-.248h4.5015l.22412,1.79981h-.19971c-.12793-1.11133-.34375-1.55176-1.56738-1.55176h-1.03125c-.376,0-.39209.05664-.39209.32031v1.91895h.71972c.77588,0,.86377-.248.86377-.93555h.19971V85.8114h-.19971c0-.67969-.08789-.93555-.86377-.93555h-.71972v2.13477c0,.26367.01611.31934.39209.31934h1.06347c1.375,0,1.55909-.584,1.75879-1.81446h.2002Z" transform="translate(-22.23389 -49.26855)"/>
      <path class="cls-2" d="M220.89844,87.55361l-.90381.02441V87.33c.53564,0,.624,0,.624-.35938v-1.8633c0-.45606-.08838-.8877-.59179-.8877a1.16816,1.16816,0,0,0-1.08223,1.24817l.00264.03113V86.9706c0,.35938.08789.35938.62353.35938v.248l-.89551-.02441-.90327.02443V87.33c.53565,0,.62354,0,.62354-.35938V84.828c0-.39258-.064-.44824-.62354-.44824v-.248l1.12744-.08789v.83985a1.25988,1.25988,0,0,1,1.18311-.83985,1.06786,1.06786,0,0,1,.83984.2959c.24756.28809.24756.53613.24756,1.22363v1.52735c.0083.23926.208.23926.624.23926v.248Z" transform="translate(-22.23389 -49.26855)"/>
    </g>
    <g>
      <path class="cls-4" d="M166.194,110H175m-36,0H125" transform="translate(-22.23389 -49.26855)"/>
      <path class="cls-2" d="M138.29824,97.54607v24.90786l1.1985-.59056,22.80615-11.11648v-1.49378L139.49674,98.13663Zm1.66747,2.6749L160.04486,110l-20.07915,9.779Z" transform="translate(-22.23389 -49.26855)"/>
      <path class="cls-5" d="M166.10681,110a2.2233,2.2233,0,1,1-2.22329-2.2233A2.2233,2.2233,0,0,1,166.10681,110Z" transform="translate(-22.23389 -49.26855)"/>
    </g>
    <g>
      <path class="cls-4" d="M91.194,85H100M64,85H50" transform="translate(-22.23389 -49.26855)"/>
      <path class="cls-2" d="M63.29824,72.54607V97.45393l1.1985-.59056L87.30289,85.74689V84.25311L64.49674,73.13663Zm1.66747,2.6749L85.04486,85,64.96571,94.779Z" transform="translate(-22.23389 -49.26855)"/>
      <path class="cls-5" d="M91.10681,85a2.2233,2.2233,0,1,1-2.22329-2.2233A2.2233,2.2233,0,0,1,91.10681,85Z" transform="translate(-22.23389 -49.26855)"/>
    </g>
  </g>
  <g id="Layer_2" data-name="Layer 2">
    <polyline class="cls-6" points="102.766 60.731 77.766 60.731 77.766 35.731"/>
    <polyline class="cls-6" points="152.766 60.731 152.766 35.731 177.766 35.731"/>
    <line class="cls-6" x1="177.76611" y1="15.73145" x2="127.76611" y2="15.73145"/>
    <line class="cls-6" x1="78.76611" y1="15.73145" x2="28.76611" y2="15.73145"/>
    <path class="cls-2" d="M149.917,56.35791l-1.9292,3.13818V61.4248c0,.39014.03028.48975.79981.48975h.23v.31006c-.35987-.02979-1.06934-.02979-1.45947-.02979-.38965,0-1.09913,0-1.459.02979v-.31006h.23975c.76953,0,.78955-.10986.78955-.46973V59.49609l-2.09863-3.418c-.16016-.25977-.24024-.37012-.91944-.37012h-.18017v-.30957l1.29931.02978c.38965,0,1.11963,0,1.479-.02978V55.708c-.44971,0-.69922.04-.69922.25,0,.0498,0,.06982.06982.16992l1.80908,2.94824,1.64893-2.67822a.62558.62558,0,0,0,.1001-.29981c0-.20019-.16016-.39013-.56983-.39013v-.30957l1.14942.02978c.27,0,.66943-.00976.97949-.02978V55.708A1.38288,1.38288,0,0,0,149.917,56.35791Z" transform="translate(-22.23389 -49.26855)"/>
    <g>
      <path class="cls-2" d="M117.17578,56.28467c-.38965,0-1.06933,0-1.43848.02978v-.31006h.23926c.76953,0,.79-.10986.79-.46972V49.79785h-.01074l-2.458,6.32666c-.04.10987-.07031.18994-.17969.18994-.10058,0-.15039-.08984-.20019-.21972l-2.40918-6.2168H111.499v5.38721c0,.26953,0,.73925,1.0293.73925v.31006l-1.16894-.02978-1.16993.02978v-.31006c1.03028,0,1.03028-.46972,1.03028-.73925V50.26758c0-.35938-.02051-.46973-.79-.46973h-.24024v-.30957h1.68946c.22949,0,.25976,0,.34961.21973l2.16894,5.59717,2.18848-5.627c.07031-.18017.07031-.18994.33008-.18994h1.68945v.30957h-.24024c-.76953,0-.78906.11035-.78906.46973v5.26709c0,.35986.01953.46972.78906.46972h.24024v.31006C118.23535,56.28467,117.56543,56.28467,117.17578,56.28467Z" transform="translate(-22.23389 -49.26855)"/>
      <path class="cls-2" d="M122.99805,56.37451a.8375.8375,0,0,1-.78028-.81982,1.38167,1.38167,0,0,1-1.30859.86963c-.62988,0-1.59961-.25-1.59961-1.05957a1.45557,1.45557,0,0,1,1-1.29883,4.84826,4.84826,0,0,1,1.83887-.35987v-.37011a1.13242,1.13242,0,0,0-1.05957-1.2793,1.40127,1.40127,0,0,0-1.0791.46.45336.45336,0,0,1,.50976.45947.46.46,0,1,1-.91992-.00976c0-.65967.68945-1.1294,1.50879-1.1294a1.9113,1.9113,0,0,1,1.37012.54981,1.479,1.479,0,0,1,.35937,1.1792v1.999c0,.04981.04.49951.37012.49951.10937,0,.35937-.06006.35937-.63965v-.55957h.25v.55957A.84866.84866,0,0,1,122.99805,56.37451Zm-.84961-2.45849c-1.64942.05957-2.06934.88916-2.06934,1.439a.861.861,0,0,0,.89942.84961,1.20074,1.20074,0,0,0,1.16992-1.28955Z" transform="translate(-22.23389 -49.26855)"/>
      <path class="cls-2" d="M125.97852,56.42432a1.49066,1.49066,0,0,1-1.09864-.42969,2.08221,2.08221,0,0,0-.20019.23c-.19043.18994-.2002.19971-.25.19971-.11035,0-.11035-.06983-.11035-.23975V54.86523c0-.17968,0-.25.13086-.25.0996,0,.10937.04.13964.16993.18946.84961.54981,1.41943,1.38868,1.41943.78027,0,1.12988-.3999,1.12988-.90967,0-.71972-.81934-.87939-1.03906-.91943A2.62029,2.62029,0,0,1,124.75,53.916a1.065,1.065,0,0,1-.43066-.84961c0-.56006.37988-1.2295,1.59961-1.2295a1.53944,1.53944,0,0,1,.93945.27979,1.28249,1.28249,0,0,0,.16992-.15967c.12988-.12012.15039-.12012.2002-.12012.10937,0,.10937.06983.10937.23975v1.00977c0,.18994,0,.23974-.12988.23974,0,0-.10938,0-.12012-.08984a1.1019,1.1019,0,0,0-1.16894-1.20947c-.85938,0-1.11915.40966-1.11915.75976,0,.57959.66895.70947,1.2295.81934a2.03693,2.03693,0,0,1,1.13867.47949,1.28961,1.28961,0,0,1,.41992.94971C127.58789,55.75488,127.12793,56.42432,125.97852,56.42432Z" transform="translate(-22.23389 -49.26855)"/>
      <path class="cls-2" d="M130.25879,56.42432a1.20865,1.20865,0,0,1-1.28906-1.34912V52.31641h-.84961v-.21973c.97949-.04,1.27929-1.10938,1.28906-1.92871h.25v1.83887h1.42871v.30957h-1.42871v2.7788c0,.16993,0,1.07911.66992,1.07911.36914,0,.66895-.3794.66895-1.11914v-.54981h.25v.56983C131.24805,55.71484,130.96875,56.42432,130.25879,56.42432Z" transform="translate(-22.23389 -49.26855)"/>
      <path class="cls-2" d="M134.29883,56.42432a2.25663,2.25663,0,0,1-2.19922-2.3086,2.18436,2.18436,0,0,1,2.0791-2.27881,1.7729,1.7729,0,0,1,1.78906,1.959c0,.21-.03027.21-.25.21h-2.78808a2.90957,2.90957,0,0,0,.2998,1.499,1.34555,1.34555,0,0,0,1.12891.66944A1.40822,1.40822,0,0,0,135.708,55.145c.01953-.08008.04-.13965.12988-.13965a.1161.1161,0,0,1,.12988.11963A1.70866,1.70866,0,0,1,134.29883,56.42432Zm-.12012-4.36768c-.33984,0-1.17969.25-1.23926,1.73926h2.36914C135.30859,53.40625,135.208,52.05664,134.17871,52.05664Z" transform="translate(-22.23389 -49.26855)"/>
      <path class="cls-2" d="M139.46777,52.94629a.41406.41406,0,0,1-.42968-.42969.43364.43364,0,0,1,.22949-.38965c-.01953-.01025-.04-.01025-.10938-.01025-.75976,0-1.17968.88965-1.17968,1.87891v1.53906c0,.35986.0205.46972.75976.46972h.21v.31006c-.40039-.02978-.87011-.02978-1.26953-.02978l-1.13965.02978v-.31006c.66992,0,.78028,0,.78028-.4497V52.87646c0-.48974-.08008-.56005-.78028-.56005v-.30957l1.38965-.10987v1.09912A1.39945,1.39945,0,0,1,139.1582,51.897a.68154.68154,0,0,1,.73926.60938A.42022.42022,0,0,1,139.46777,52.94629Z" transform="translate(-22.23389 -49.26855)"/>
    </g>
    <g>
      <path class="cls-2" d="M216.76855,56.53418a2.50883,2.50883,0,0,1-1.83984-.69922c-.3291.5293-.35937.56934-.35937.56934-.07032.10986-.08008.12988-.15039.12988-.10938,0-.10938-.06982-.10938-.23975v-1.999c0-.17969,0-.24951.12988-.24951a.104.104,0,0,1,.12012.09961,2.02235,2.02235,0,0,0,.61914,1.53906,2.41311,2.41311,0,0,0,1.5791.54,1.37063,1.37063,0,0,0,1.33985-1.4292,1.45931,1.45931,0,0,0-.31055-.91943,1.32336,1.32336,0,0,0-.84863-.50977c-.7002-.16992-1.21-.29-1.31934-.33008a1.93587,1.93587,0,0,1,.63965-3.76758,2.05761,2.05761,0,0,1,1.59863.69922l.34961-.56933c.07031-.12012.08008-.12989.15039-.12989.10938,0,.10938.06983.10938.23975v2.00879c0,.18994,0,.23975-.12989.23975-.10937,0-.10937-.06006-.11914-.11963-.06054-.44971-.28027-2.08887-1.94922-2.08887A1.3064,1.3064,0,0,0,215.959,52.127l1.2793.30957a2.046,2.046,0,0,1,1.499,2.01905A2.00366,2.00366,0,0,1,216.76855,56.53418Z" transform="translate(-22.23389 -49.26855)"/>
      <path class="cls-2" d="M220.749,56.28467l-1.10937.02978v-.31006c.66992,0,.7793,0,.7793-.4497V50.35791c0-.48975-.08008-.56006-.7793-.56006v-.30957l1.43945-.10986v6.17627c0,.4497.10938.4497.7793.4497v.31006Z" transform="translate(-22.23389 -49.26855)"/>
      <path class="cls-2" d="M226.09766,56.37451a.8375.8375,0,0,1-.78028-.81982,1.38167,1.38167,0,0,1-1.30859.86963c-.62988,0-1.59961-.25-1.59961-1.05957a1.45557,1.45557,0,0,1,1-1.29883,4.84826,4.84826,0,0,1,1.83887-.35987v-.37011a1.13243,1.13243,0,0,0-1.05957-1.2793,1.40127,1.40127,0,0,0-1.0791.46.45336.45336,0,0,1,.50976.45947.46.46,0,1,1-.91992-.00976c0-.65967.68945-1.1294,1.50879-1.1294a1.9113,1.9113,0,0,1,1.37012.54981,1.479,1.479,0,0,1,.35937,1.1792v1.999c0,.04981.04.49951.37012.49951.10937,0,.35937-.06006.35937-.63965v-.55957h.25v.55957A.84866.84866,0,0,1,226.09766,56.37451Zm-.84961-2.45849c-1.64942.05957-2.06934.88916-2.06934,1.439a.861.861,0,0,0,.89942.84961,1.20074,1.20074,0,0,0,1.16992-1.28955Z" transform="translate(-22.23389 -49.26855)"/>
      <path class="cls-2" d="M230.96777,52.98633l-1.30957,3.248c-.04.10009-.08007.18994-.21.18994s-.14941-.04981-.21-.18994l-1.43945-3.54786c-.12988-.31006-.16992-.37011-.79883-.37011v-.30957c.2998.02.69922.02978.96875.02978l1.08984-.02978v.30957c-.17968,0-.56933,0-.56933.26025a.53448.53448,0,0,0,.05957.16992l1.11914,2.78809,1.01953-2.54834a.60265.60265,0,0,0,.06055-.23975c0-.18994-.11035-.41992-.48047-.43017v-.30957l.87012.02978c.22949,0,.51953-.00976.749-.02978v.30957A.90517.90517,0,0,0,230.96777,52.98633Z" transform="translate(-22.23389 -49.26855)"/>
      <path class="cls-2" d="M234.28809,56.42432a2.25585,2.25585,0,0,1-2.19825-2.3086,2.18373,2.18373,0,0,1,2.07911-2.27881,1.7729,1.7729,0,0,1,1.78906,1.959c0,.21-.03028.21-.25.21H232.919a2.90957,2.90957,0,0,0,.2998,1.499,1.34719,1.34719,0,0,0,1.12988.66944,1.408,1.408,0,0,0,1.34864-1.0293c.0205-.08008.04-.13965.12988-.13965a.11643.11643,0,0,1,.13086.11963A1.70905,1.70905,0,0,1,234.28809,56.42432Zm-.11914-4.36768c-.33985,0-1.17969.25-1.23926,1.73926h2.36816C235.29785,53.40625,235.19824,52.05664,234.169,52.05664Z" transform="translate(-22.23389 -49.26855)"/>
    </g>
    <path class="cls-2" d="M42.23242,67.75293h-3.6582v-.31006h.24023c.76953,0,.78955-.10986.78955-.46973V61.70605c0-.35937-.02-.46972-.78955-.46972h-.24023v-.30957h3.6582a3.27923,3.27923,0,0,1,3.05811,3.46777A3.20967,3.20967,0,0,1,42.23242,67.75293ZM43.77148,62.166a2.15566,2.15566,0,0,0-1.81884-.92969h-.99951c-.46973,0-.48975.07031-.48975.3999v5.40723c0,.32959.02.39941.48975.39941H41.9624a2.19235,2.19235,0,0,0,1.7793-.84912,3.429,3.429,0,0,0,.5498-2.19922A3.866,3.866,0,0,0,43.77148,62.166Z" transform="translate(-22.23389 -49.26855)"/>
    <g>
      <path class="cls-2" d="M25.71191,87.69141a3.63626,3.63626,0,0,1,0-7.26563,2.452,2.452,0,0,1,1.83936.85938l.49951-.73975c.08008-.11963.12012-.11963.16016-.11963.10986,0,.10986.06983.10986.23975v2.36865c0,.21,0,.23975-.16016.23975-.13964,0-.13964-.02979-.15966-.16993-.2002-1.459-1.08936-2.36865-2.17871-2.36865-.60987,0-2.5586.33985-2.5586,3.32813,0,2.97851,1.9585,3.31836,2.56836,3.31836a2.26368,2.26368,0,0,0,2.23877-2.249c.00977-.09961.00977-.15967.12012-.15967.12988,0,.12988.06983.12988.16993A2.61333,2.61333,0,0,1,25.71191,87.69141Z" transform="translate(-22.23389 -49.26855)"/>
      <path class="cls-2" d="M30.333,87.44189l-1.10938.02979v-.31006c.66992,0,.77979,0,.77979-.44971V81.51514c0-.48975-.08008-.56006-.77979-.56006v-.30957l1.43946-.10987v6.17627c0,.44971.10986.44971.77978.44971v.31006Z" transform="translate(-22.23389 -49.26855)"/>
      <path class="cls-2" d="M34.16309,87.58154a2.231,2.231,0,0,1-2.209-2.24853,2.21721,2.21721,0,1,1,4.42774,0A2.22691,2.22691,0,0,1,34.16309,87.58154Zm1.12939-3.71777a1.3109,1.3109,0,0,0-1.12939-.6499,1.34145,1.34145,0,0,0-1.13965.66992,2.86611,2.86611,0,0,0-.23975,1.36914,2.97258,2.97258,0,0,0,.25,1.40918,1.30473,1.30473,0,0,0,1.13916.66943,1.28971,1.28971,0,0,0,1.15967-.73925,3.03851,3.03851,0,0,0,.21973-1.33936A2.7435,2.7435,0,0,0,35.29248,83.86377Z" transform="translate(-22.23389 -49.26855)"/>
      <path class="cls-2" d="M39.44287,87.58154A2.21191,2.21191,0,0,1,37.294,85.313a2.24,2.24,0,0,1,2.16894-2.31885c.76953,0,1.52881.38965,1.52881,1.06934a.45977.45977,0,1,1-.91943.01025.45125.45125,0,0,1,.46972-.46,1.62842,1.62842,0,0,0-1.06933-.36963c-.52979,0-1.34912.41943-1.34912,2.04883,0,1.60889.87939,2.03857,1.40917,2.03857a1.30477,1.30477,0,0,0,1.30909-1.04931c.02-.06006.04-.09961.12988-.09961.03027,0,.13037,0,.13037.09961A1.64452,1.64452,0,0,1,39.44287,87.58154Z" transform="translate(-22.23389 -49.26855)"/>
      <path class="cls-2" d="M45.35205,87.44189l-1.07959.02979v-.31006c.18994,0,.35986-.03955.35986-.22949a8.317,8.317,0,0,0-1.18945-1.79932l-.63965.54981v1.02929c0,.44971.10987.44971.77979.44971v.31006l-1.09961-.02979-1.08936.02979v-.31006c.66992,0,.77979,0,.77979-.44971V81.51514c0-.48975-.08008-.56006-.77979-.56006v-.30957l1.43946-.10987V85.333l1.40918-1.21973a.51809.51809,0,0,0,.21972-.38965c0-.12988-.1001-.23974-.29-.25v-.30957c.14014.00977.75977.02979,1.11963.02979a5.5795,5.5795,0,0,0,.69971-.02979v.30957a1.98109,1.98109,0,0,0-1.25928.54,10.64561,10.64561,0,0,0-.80957.71973c0,.02978.04981.08984.06006.10986l1.269,1.78906c.37989.5293.59961.5293.96973.5293v.31006Q45.78662,87.44165,45.35205,87.44189Z" transform="translate(-22.23389 -49.26855)"/>
    </g>
    <g>
      <path class="cls-2" d="M104.25391,133.30225h-1.68946v2.37841c0,.35987.01953.46973.78907.46973h.24023v.31006c-.34961-.02979-1.09961-.02979-1.47949-.02979s-1.11914,0-1.46875.02979v-.31006h.24023c.76953,0,.78906-.10986.78906-.46973v-5.26709c0-.35937-.01953-.46972-.78906-.46972h-.24023v-.30957h3.52832a1.885,1.885,0,1,1,.08008,3.668Zm-.33985-3.3584h-.88965c-.46972,0-.49023.07031-.49023.3999v2.69873h1.37988c1.58887,0,1.58887-1.07959,1.58887-1.54932C105.50293,131.00342,105.50293,129.94385,103.91406,129.94385Z" transform="translate(-22.23389 -49.26855)"/>
      <path class="cls-2" d="M109.31445,136.57031a2.2307,2.2307,0,0,1-2.209-2.24853,2.21721,2.21721,0,1,1,4.42773,0A2.2269,2.2269,0,0,1,109.31445,136.57031Zm1.12891-3.71777a1.30956,1.30956,0,0,0-1.12891-.6499,1.3403,1.3403,0,0,0-1.13965.66992,2.861,2.861,0,0,0-.24023,1.36914,2.97258,2.97258,0,0,0,.25,1.40918,1.30547,1.30547,0,0,0,1.13965.66943,1.28844,1.28844,0,0,0,1.15918-.73926,3.03845,3.03845,0,0,0,.21973-1.33935A2.7435,2.7435,0,0,0,110.44336,132.85254Z" transform="translate(-22.23389 -49.26855)"/>
      <path class="cls-2" d="M113.81445,136.57031a1.4925,1.4925,0,0,1-1.09961-.42968,2.45668,2.45668,0,0,0-.20019.23c-.18945.18994-.19922.1997-.249.1997-.11036,0-.11036-.06982-.11036-.23974v-1.31934c0-.17969,0-.25.12989-.25.09961,0,.11035.04.13964.16992.19043.84961.54981,1.41944,1.38965,1.41944.7793,0,1.12891-.39991,1.12891-.90967,0-.71973-.81934-.8794-1.03906-.91944a2.614,2.614,0,0,1-1.31934-.46,1.06523,1.06523,0,0,1-.42969-.84912c0-.56006.37989-1.22949,1.59864-1.22949a1.5419,1.5419,0,0,1,.94043.27979,1.308,1.308,0,0,0,.16894-.15967c.13086-.12012.15039-.12012.2002-.12012.11035,0,.11035.06982.11035.23975v1.00976c0,.18946,0,.23975-.12988.23975,0,0-.11036,0-.12012-.08985a1.10334,1.10334,0,0,0-1.16992-1.20947c-.85938,0-1.11914.40967-1.11914.75977,0,.57959.66992.70947,1.22949.81933a2.03976,2.03976,0,0,1,1.13965.4795,1.28962,1.28962,0,0,1,.41992.9497C115.42383,135.90088,114.96387,136.57031,113.81445,136.57031Z" transform="translate(-22.23389 -49.26855)"/>
      <path class="cls-2" d="M117.19531,136.43066l-1.09961.02979v-.31006c.66993,0,.7793,0,.7793-.44971v-2.68847c0-.48975-.08984-.54932-.73926-.54932v-.31006l1.39942-.10986v3.668c0,.38965.04.43945.69922.43945v.31006C117.89453,136.45068,117.54492,136.43066,117.19531,136.43066Zm-.0498-5.477a.54022.54022,0,0,1-.53028-.52978.53469.53469,0,1,1,.53028.52978Z" transform="translate(-22.23389 -49.26855)"/>
      <path class="cls-2" d="M120.874,136.57031a1.209,1.209,0,0,1-1.28906-1.34912v-2.7583h-.84961v-.22021c.97949-.04,1.2793-1.10938,1.28906-1.92872h.25v1.83887h1.42969v.31006h-1.42969v2.77832c0,.16992,0,1.0791.66993,1.0791.37011,0,.66992-.37939.66992-1.11914v-.5498h.25v.56982C121.86426,135.86084,121.584,136.57031,120.874,136.57031Z" transform="translate(-22.23389 -49.26855)"/>
      <path class="cls-2" d="M123.86523,136.43066l-1.0996.02979v-.31006c.66992,0,.77929,0,.77929-.44971v-2.68847c0-.48975-.08984-.54932-.73926-.54932v-.31006l1.39942-.10986v3.668c0,.38965.04.43945.69922.43945v.31006C124.56445,136.45068,124.21484,136.43066,123.86523,136.43066Zm-.0498-5.477a.54022.54022,0,0,1-.53027-.52978.53469.53469,0,1,1,.53027.52978Z" transform="translate(-22.23389 -49.26855)"/>
      <path class="cls-2" d="M129.37305,133.13232l-1.3086,3.24805c-.04.1001-.08007.18994-.21.18994s-.15039-.0498-.21-.18994l-1.43945-3.54785c-.12988-.31006-.16992-.36963-.79981-.36963v-.31006c.29981.02.7002.02979.96973.02979l1.08887-.02979v.31006c-.17969,0-.56934,0-.56934.25977a.52829.52829,0,0,0,.06055.16992l1.11914,2.78808,1.01953-2.54834a.59955.59955,0,0,0,.05957-.23974c0-.18994-.10937-.41992-.47949-.42969v-.31006l.86914.02979c.23047,0,.51953-.00977.75-.02979v.31006A.90478.90478,0,0,0,129.37305,133.13232Z" transform="translate(-22.23389 -49.26855)"/>
      <path class="cls-2" d="M132.69434,136.57031a2.25663,2.25663,0,0,1-2.19922-2.30859,2.18436,2.18436,0,0,1,2.0791-2.27881,1.7729,1.7729,0,0,1,1.78906,1.959c0,.21-.03027.21-.25.21H131.3252a2.90957,2.90957,0,0,0,.2998,1.499,1.34553,1.34553,0,0,0,1.12891.66943,1.40822,1.40822,0,0,0,1.34961-1.02929c.01953-.08008.04-.13965.12988-.13965a.1161.1161,0,0,1,.12988.11963A1.70866,1.70866,0,0,1,132.69434,136.57031Zm-.12012-4.36767c-.33984,0-1.17969.25-1.23926,1.73925h2.36914C133.7041,133.55225,133.60352,132.20264,132.57422,132.20264Z" transform="translate(-22.23389 -49.26855)"/>
      <path class="cls-2" d="M140.46387,136.57031a2.25663,2.25663,0,0,1-2.19922-2.30859,2.18436,2.18436,0,0,1,2.0791-2.27881,1.7729,1.7729,0,0,1,1.78906,1.959c0,.21-.03027.21-.25.21h-2.78808a2.90957,2.90957,0,0,0,.2998,1.499,1.34553,1.34553,0,0,0,1.12891.66943,1.40822,1.40822,0,0,0,1.34961-1.02929c.01953-.08008.04-.13965.12988-.13965a.1161.1161,0,0,1,.12988.11963A1.70866,1.70866,0,0,1,140.46387,136.57031Zm-.12012-4.36767c-.33984,0-1.17969.25-1.23926,1.73925h2.36914C141.47363,133.55225,141.37305,132.20264,140.34375,132.20264Z" transform="translate(-22.23389 -49.26855)"/>
      <path class="cls-2" d="M146.22266,136.57031v-.65967a1.68762,1.68762,0,0,1-1.33887.65967,2.19826,2.19826,0,0,1-2.11914-2.25879,2.259,2.259,0,0,1,2.22851-2.26855,1.59594,1.59594,0,0,1,1.25977.61963v-2.15869c0-.48975-.08008-.56006-.7793-.56006v-.30957l1.43848-.10987v6.06641c0,.48975.08008.55957.78027.55957v.31006Zm0-3.33789a.48009.48009,0,0,0-.10938-.37012,1.2968,1.2968,0,0,0-1.08008-.5996,1.37438,1.37438,0,0,0-1.1289.63964,3.44491,3.44491,0,0,0-.02051,2.8086,1.24407,1.24407,0,0,0,1.0498.63965,1.39271,1.39271,0,0,0,1.17969-.69971.47951.47951,0,0,0,.10938-.36963Z" transform="translate(-22.23389 -49.26855)"/>
      <path class="cls-2" d="M152.543,132.72266a.284.284,0,0,1-.29-.29.26726.26726,0,0,1,.16016-.27.47566.47566,0,0,0-.10059-.00977,1.31345,1.31345,0,0,0-.89941.38965,1.35012,1.35012,0,0,1,.41015.96973,1.54656,1.54656,0,0,1-1.61914,1.459,1.70019,1.70019,0,0,1-.98926-.30957.73562.73562,0,0,0-.16992.46973.65188.65188,0,0,0,.5293.66943c.07031.01026.5.01026.75.01026a3.55279,3.55279,0,0,1,1.71875.27978,1.27756,1.27756,0,0,1,.64941,1.13916c0,.77979-1.03906,1.28955-2.21875,1.28955-1.21875,0-2.209-.5498-2.209-1.26953a1.12823,1.12823,0,0,1,.91992-.99951,1.06589,1.06589,0,0,1-.43945-.88965,1.38034,1.38034,0,0,1,.30957-.8291,1.37717,1.37717,0,0,1-.46973-1.02979,1.54656,1.54656,0,0,1,1.61914-1.459,1.66607,1.66607,0,0,1,1.05957.35986,1.53575,1.53575,0,0,1,1.0586-.46972.48845.48845,0,0,1,.50976.48974A.28836.28836,0,0,1,152.543,132.72266Zm-2.34863,3.668h-.58985a.87965.87965,0,0,0-.82031.85937c0,.52979.69043,1.03955,1.69922,1.03955.97949,0,1.68945-.5,1.68945-1.03955C152.17285,136.39063,151.05371,136.39063,150.19434,136.39063Zm.00976-4.11768a.86452.86452,0,0,0-.71.39941,1.647,1.647,0,0,0-.16016.83985c0,.23,0,1.229.87012,1.229a.86244.86244,0,0,0,.709-.39941,1.6369,1.6369,0,0,0,.16015-.83985C151.07324,133.272,151.07324,132.273,150.2041,132.273Z" transform="translate(-22.23389 -49.26855)"/>
      <path class="cls-2" d="M155.46387,136.57031a2.25663,2.25663,0,0,1-2.19922-2.30859,2.18436,2.18436,0,0,1,2.0791-2.27881,1.7729,1.7729,0,0,1,1.78906,1.959c0,.21-.03027.21-.25.21h-2.78808a2.90957,2.90957,0,0,0,.2998,1.499,1.34553,1.34553,0,0,0,1.12891.66943,1.40822,1.40822,0,0,0,1.34961-1.02929c.01953-.08008.04-.13965.12988-.13965a.1161.1161,0,0,1,.12988.11963A1.70866,1.70866,0,0,1,155.46387,136.57031Zm-.12012-4.36767c-.33984,0-1.17969.25-1.23926,1.73925h2.36914C156.47363,133.55225,156.37305,132.20264,155.34375,132.20264Z" transform="translate(-22.23389 -49.26855)"/>
      <path class="cls-2" d="M163.084,136.57031a1.20865,1.20865,0,0,1-1.28906-1.34912v-2.7583h-.84961v-.22021c.97949-.04,1.2793-1.10938,1.28907-1.92872h.25v1.83887h1.42871v.31006h-1.42871v2.77832c0,.16992,0,1.0791.66894,1.0791.37012,0,.66992-.37939.66992-1.11914v-.5498h.25v.56982C164.07324,135.86084,163.793,136.57031,163.084,136.57031Z" transform="translate(-22.23389 -49.26855)"/>
      <path class="cls-2" d="M167.85254,133.09229a.41407.41407,0,0,1-.42969-.42969.432.432,0,0,1,.23047-.38965.2499.2499,0,0,0-.11035-.01025c-.75977,0-1.17871.88964-1.17871,1.8789v1.53906c0,.35987.01953.46973.75879.46973h.21v.31006c-.39942-.02979-.86914-.02979-1.26856-.02979l-1.13965.02979v-.31006c.66993,0,.7793,0,.7793-.44971v-2.67822c0-.48975-.08008-.55957-.7793-.55957v-.31006l1.38868-.10986v1.09912A1.40051,1.40051,0,0,1,167.543,132.043a.68252.68252,0,0,1,.74023.60937A.42044.42044,0,0,1,167.85254,133.09229Z" transform="translate(-22.23389 -49.26855)"/>
      <path class="cls-2" d="M169.99414,136.43066l-1.09961.02979v-.31006c.66992,0,.7793,0,.7793-.44971v-2.68847c0-.48975-.08985-.54932-.73926-.54932v-.31006l1.39941-.10986v3.668c0,.38965.04.43945.69922.43945v.31006C170.69336,136.45068,170.34375,136.43066,169.99414,136.43066Zm-.0498-5.477a.54022.54022,0,0,1-.53028-.52978.53469.53469,0,1,1,.53028.52978Z" transform="translate(-22.23389 -49.26855)"/>
      <path class="cls-2" d="M175.90234,132.72266a.284.284,0,0,1-.29-.29.26727.26727,0,0,1,.16016-.27.468.468,0,0,0-.09961-.00977,1.31187,1.31187,0,0,0-.89941.38965,1.35324,1.35324,0,0,1,.40918.96973,1.54657,1.54657,0,0,1-1.61914,1.459,1.702,1.702,0,0,1-.98926-.30957.73562.73562,0,0,0-.16992.46973.65179.65179,0,0,0,.53027.66943c.06934.01026.499.01026.749.01026a3.55085,3.55085,0,0,1,1.71875.27978,1.27867,1.27867,0,0,1,.65039,1.13916c0,.77979-1.04,1.28955-2.21875,1.28955-1.21972,0-2.209-.5498-2.209-1.26953a1.12708,1.12708,0,0,1,.91895-.99951,1.0659,1.0659,0,0,1-.43946-.88965,1.3804,1.3804,0,0,1,.30957-.8291,1.37716,1.37716,0,0,1-.46972-1.02979,1.54656,1.54656,0,0,1,1.61914-1.459,1.66609,1.66609,0,0,1,1.05957.35986,1.53755,1.53755,0,0,1,1.05957-.46972.48909.48909,0,0,1,.50976.48974A.28908.28908,0,0,1,175.90234,132.72266Zm-2.34863,3.668h-.58984a.87953.87953,0,0,0-.81934.85937c0,.52979.68945,1.03955,1.69922,1.03955.97949,0,1.68848-.5,1.68848-1.03955C175.53223,136.39063,174.41309,136.39063,173.55371,136.39063Zm.00977-4.11768a.86406.86406,0,0,0-.709.39941,1.6369,1.6369,0,0,0-.16015.83985c0,.23,0,1.229.86914,1.229a.86452.86452,0,0,0,.71-.39941,1.647,1.647,0,0,0,.16015-.83985C174.43359,133.272,174.43359,132.273,173.56348,132.273Z" transform="translate(-22.23389 -49.26855)"/>
      <path class="cls-2" d="M180.90234,132.72266a.284.284,0,0,1-.29-.29.26727.26727,0,0,1,.16016-.27.468.468,0,0,0-.09961-.00977,1.31187,1.31187,0,0,0-.89941.38965,1.35324,1.35324,0,0,1,.40918.96973,1.54657,1.54657,0,0,1-1.61914,1.459,1.702,1.702,0,0,1-.98926-.30957.73562.73562,0,0,0-.16992.46973.65179.65179,0,0,0,.53027.66943c.06934.01026.499.01026.749.01026a3.55085,3.55085,0,0,1,1.71875.27978,1.27867,1.27867,0,0,1,.65039,1.13916c0,.77979-1.04,1.28955-2.21875,1.28955-1.21972,0-2.209-.5498-2.209-1.26953a1.12708,1.12708,0,0,1,.91895-.99951,1.0659,1.0659,0,0,1-.43946-.88965,1.3804,1.3804,0,0,1,.30957-.8291,1.37716,1.37716,0,0,1-.46972-1.02979,1.54656,1.54656,0,0,1,1.61914-1.459,1.66609,1.66609,0,0,1,1.05957.35986,1.53755,1.53755,0,0,1,1.05957-.46972.48909.48909,0,0,1,.50976.48974A.28908.28908,0,0,1,180.90234,132.72266Zm-2.34863,3.668h-.58984a.87953.87953,0,0,0-.81934.85937c0,.52979.68945,1.03955,1.69922,1.03955.97949,0,1.68848-.5,1.68848-1.03955C180.53223,136.39063,179.41309,136.39063,178.55371,136.39063Zm.00977-4.11768a.86406.86406,0,0,0-.709.39941,1.6369,1.6369,0,0,0-.16015.83985c0,.23,0,1.229.86914,1.229a.86452.86452,0,0,0,.71-.39941,1.647,1.647,0,0,0,.16015-.83985C179.43359,133.272,179.43359,132.273,178.56348,132.273Z" transform="translate(-22.23389 -49.26855)"/>
      <path class="cls-2" d="M183.82324,136.57031a2.25584,2.25584,0,0,1-2.19824-2.30859,2.18373,2.18373,0,0,1,2.0791-2.27881,1.7729,1.7729,0,0,1,1.78906,1.959c0,.21-.03027.21-.25.21H182.4541a2.90949,2.90949,0,0,0,.29981,1.499,1.34718,1.34718,0,0,0,1.12988.66943,1.408,1.408,0,0,0,1.34863-1.02929c.02051-.08008.04-.13965.12988-.13965a.11642.11642,0,0,1,.13086.11963A1.709,1.709,0,0,1,183.82324,136.57031Zm-.11914-4.36767c-.33984,0-1.17969.25-1.24023,1.73925H184.833C184.833,133.55225,184.7334,132.20264,183.7041,132.20264Z" transform="translate(-22.23389 -49.26855)"/>
      <path class="cls-2" d="M188.99316,133.09229a.41406.41406,0,0,1-.42968-.42969.4336.4336,0,0,1,.22949-.38965c-.01953-.01025-.04-.01025-.10938-.01025-.75976,0-1.17968.88964-1.17968,1.8789v1.53906c0,.35987.0205.46973.75976.46973h.21v.31006c-.40039-.02979-.87011-.02979-1.26953-.02979l-1.13965.02979v-.31006c.66993,0,.78028,0,.78028-.44971v-2.67822c0-.48975-.08008-.55957-.78028-.55957v-.31006l1.38965-.10986v1.09912a1.39944,1.39944,0,0,1,1.22949-1.09912.68154.68154,0,0,1,.73926.60937A.42023.42023,0,0,1,188.99316,133.09229Z" transform="translate(-22.23389 -49.26855)"/>
      <path class="cls-2" d="M192.18359,136.57031a2.25663,2.25663,0,0,1-2.19921-2.30859,2.18436,2.18436,0,0,1,2.0791-2.27881,1.7729,1.7729,0,0,1,1.78906,1.959c0,.21-.03027.21-.25.21h-2.78809a2.90949,2.90949,0,0,0,.29981,1.499,1.34552,1.34552,0,0,0,1.1289.66943,1.40821,1.40821,0,0,0,1.34961-1.02929c.01953-.08008.04-.13965.12989-.13965a.1161.1161,0,0,1,.12988.11963A1.70867,1.70867,0,0,1,192.18359,136.57031Zm-.12011-4.36767c-.33985,0-1.17969.25-1.23926,1.73925h2.36914C193.19336,133.55225,193.09277,132.20264,192.06348,132.20264Z" transform="translate(-22.23389 -49.26855)"/>
      <path class="cls-2" d="M197.94238,136.57031v-.65967a1.68761,1.68761,0,0,1-1.33886.65967,2.19826,2.19826,0,0,1-2.11914-2.25879,2.259,2.259,0,0,1,2.22851-2.26855,1.59594,1.59594,0,0,1,1.25977.61963v-2.15869c0-.48975-.08008-.56006-.7793-.56006v-.30957l1.43848-.10987v6.06641c0,.48975.08007.55957.78027.55957v.31006Zm0-3.33789a.48012.48012,0,0,0-.10937-.37012,1.2968,1.2968,0,0,0-1.08008-.5996,1.3744,1.3744,0,0,0-1.12891.63964,3.44485,3.44485,0,0,0-.0205,2.8086,1.24406,1.24406,0,0,0,1.0498.63965,1.39272,1.39272,0,0,0,1.17969-.69971.47954.47954,0,0,0,.10937-.36963Z" transform="translate(-22.23389 -49.26855)"/>
    </g>
    <rect class="cls-1" x="87.76611" y="110.73145" width="30" height="30"/>
    <line class="cls-1" x1="87.76611" y1="115.73145" x2="77.76611" y2="115.73145"/>
    <line class="cls-1" x1="87.76611" y1="135.73145" x2="77.76611" y2="135.73145"/>
    <line class="cls-1" x1="127.76611" y1="115.73145" x2="117.76611" y2="115.73145"/>
    <line class="cls-1" x1="127.76611" y1="135.73145" x2="117.76611" y2="135.73145"/>
    <path class="cls-2" d="M115.23975,167.73036h-2.92627v-.248h.19189c.61572,0,.63184-.08789.63184-.376v-4.21291c0-.28809-.01612-.376-.63184-.376h-.19189v-.248h2.92627a2.62354,2.62354,0,0,1,2.44677,2.77441,2.56822,2.56822,0,0,1-2.44433,2.68639Zm1.23144-4.46972a1.72439,1.72439,0,0,0-1.45508-.74317h-.7998c-.37549,0-.3916.05567-.3916.31934V167.163c0,.26367.01611.31934.3916.31934h.80762a1.75266,1.75266,0,0,0,1.42334-.67969,2.74307,2.74307,0,0,0,.43994-1.75879A3.09262,3.09262,0,0,0,116.47119,163.26064Z" transform="translate(-22.23389 -49.26855)"/>
    <g>
      <path class="cls-2" d="M116.9458,187.578H112.332v-.248h.1919c.61572,0,.63183-.08789.63183-.376v-4.18945c0-.28809-.01611-.376-.63183-.376h-.1919v-.24805h4.5015l.22412,1.79981h-.19971c-.12793-1.11133-.34375-1.55176-1.56738-1.55176h-1.03125c-.376,0-.39209.05664-.39209.32031v1.919h.71972c.77588,0,.86377-.248.86377-.93555h.19971v2.11914h-.19971c0-.67969-.08789-.93555-.86377-.93555h-.71972v2.13477c0,.26367.01611.31934.39209.31934h1.06347c1.375,0,1.55909-.584,1.75879-1.81446h.2002Z" transform="translate(-22.23389 -49.26855)"/>
      <path class="cls-2" d="M120.89844,187.55361l-.90381.02441v-.248c.53564,0,.624,0,.624-.35938v-1.8633c0-.45606-.08838-.8877-.59179-.8877a1.16816,1.16816,0,0,0-1.08223,1.24817l.00264.03113v1.47168c0,.35938.08789.35938.62353.35938v.248l-.89551-.02441-.90327.02443v-.248c.53565,0,.62354,0,.62354-.35938V184.828c0-.39258-.064-.44824-.62354-.44824v-.248l1.12744-.08789v.83985a1.25988,1.25988,0,0,1,1.18311-.83985,1.06786,1.06786,0,0,1,.83984.2959c.24756.28809.24756.53613.24756,1.22363v1.52735c.0083.23926.208.23926.624.23926v.248Z" transform="translate(-22.23389 -49.26855)"/>
    </g>
    <rect class="cls-1" x="187.76611" y="110.73145" width="30" height="30"/>
    <line class="cls-1" x1="187.76611" y1="115.73145" x2="177.76611" y2="115.73145"/>
    <line class="cls-1" x1="187.76611" y1="135.73145" x2="177.76611" y2="135.73145"/>
    <line class="cls-1" x1="227.76611" y1="115.73145" x2="217.76611" y2="115.73145"/>
    <line class="cls-1" x1="227.76611" y1="135.73145" x2="217.76611" y2="135.73145"/>
    <line class="cls-3" x1="210.26611" y1="130.23145" x2="215.26611" y2="130.23145"/>
    <path class="cls-2" d="M236.43555,167.81055a4.31309,4.31309,0,0,1,.13768.4375,2.09564,2.09564,0,0,0,.26271.67578.36039.36039,0,0,0,.28515.15625.30577.30577,0,0,0,.25586-.167,1.11555,1.11555,0,0,0,.11524-.55567h.23436a1.65787,1.65787,0,0,1-.27342,1.03809.86.86,0,0,1-.70314.333.79208.79208,0,0,1-.65429-.32227,2.50969,2.50969,0,0,1-.334-1.23633,3.76656,3.76656,0,0,1-.42189.082,2.8541,2.8541,0,0,1-.38671.02735,2.51884,2.51884,0,0,1-1.34179-.377,2.65294,2.65294,0,0,1-.97657-1.082,3.43561,3.43561,0,0,1-.36133-1.59179,3.06877,3.06877,0,0,1,.8164-2.14846,2.40145,2.40145,0,0,1,1.84375-.8086,2.53256,2.53256,0,0,1,1.34766.37305,2.69012,2.69012,0,0,1,.97656,1.07031,3.23728,3.23728,0,0,1-.82226,4.09571Zm-.19336-.53907a3.2822,3.2822,0,0,0,.30859-.8623,5.769,5.769,0,0,0,.09766-1.16309,4.54208,4.54208,0,0,0-.21485-1.55566,1.7384,1.7384,0,0,0-.60546-.84473,1.50451,1.50451,0,0,0-.88283-.27343,1.46508,1.46508,0,0,0-.86914.27343,1.76317,1.76317,0,0,0-.60156.85253,4.626,4.626,0,0,0-.2168,1.57521,4.918,4.918,0,0,0,.12891,1.206,3.53,3.53,0,0,0,.40234.95607c-.00488-.11963-.00781-.21534-.00781-.2881a1.079,1.079,0,0,1,.31055-.79492,1.1,1.1,0,0,1,.81445-.31152,1.16443,1.16443,0,0,1,.85156.33886A2.45222,2.45222,0,0,1,236.24219,167.27148Zm-.48047.4961a2.25521,2.25521,0,0,0-.18359-1.01953.72958.72958,0,0,0-.68361-.40625.80292.80292,0,0,0-.8361.76831h0q-.0015.03575.00017.07152a1.0404,1.0404,0,0,0,.28907.69531,1.44055,1.44055,0,0,0,.582.1211,1.61186,1.61186,0,0,0,.4414-.0586A1.53251,1.53251,0,0,0,235.76172,167.76758Z" transform="translate(-22.23389 -49.26855)"/>
    <path class="cls-2" d="M236.43555,186.31055a4.31309,4.31309,0,0,1,.13768.4375,2.09556,2.09556,0,0,0,.26271.67578.36039.36039,0,0,0,.28515.15625.30577.30577,0,0,0,.25586-.167,1.11555,1.11555,0,0,0,.11524-.55567h.23436a1.65787,1.65787,0,0,1-.27342,1.03809.86.86,0,0,1-.70314.333.79208.79208,0,0,1-.65429-.32227,2.50969,2.50969,0,0,1-.334-1.23633,3.76656,3.76656,0,0,1-.42189.082,2.8541,2.8541,0,0,1-.38671.02735,2.51884,2.51884,0,0,1-1.34179-.377,2.65294,2.65294,0,0,1-.97657-1.082,3.43561,3.43561,0,0,1-.36133-1.59179,3.06878,3.06878,0,0,1,.8164-2.14844,2.40154,2.40154,0,0,1,1.84375-.8086,2.53262,2.53262,0,0,1,1.34766.373,2.69012,2.69012,0,0,1,.97656,1.07031,3.23727,3.23727,0,0,1-.82226,4.09571Zm-.19336-.53907a3.2822,3.2822,0,0,0,.30859-.8623,5.769,5.769,0,0,0,.09766-1.16309,4.54208,4.54208,0,0,0-.21485-1.55566,1.73846,1.73846,0,0,0-.60546-.84473,1.50451,1.50451,0,0,0-.88283-.27343,1.46524,1.46524,0,0,0-.86914.27343,1.76324,1.76324,0,0,0-.60156.85254,4.626,4.626,0,0,0-.2168,1.57521,4.918,4.918,0,0,0,.12891,1.206,3.52989,3.52989,0,0,0,.40234.95606c-.00488-.11962-.00781-.21534-.00781-.28809a1.079,1.079,0,0,1,.31055-.79492,1.1,1.1,0,0,1,.81445-.31152,1.16443,1.16443,0,0,1,.85156.33886A2.45218,2.45218,0,0,1,236.24219,185.77148Zm-.48047.4961a2.25521,2.25521,0,0,0-.18359-1.01953.72958.72958,0,0,0-.68361-.40625.80292.80292,0,0,0-.8361.76831h0q-.0015.03576.00017.07152a1.04038,1.04038,0,0,0,.28907.69531,1.44055,1.44055,0,0,0,.582.1211,1.61186,1.61186,0,0,0,.4414-.0586A1.53216,1.53216,0,0,0,235.76172,186.26758Z" transform="translate(-22.23389 -49.26855)"/>
    <path class="cls-2" d="M215.23975,167.73036h-2.92627v-.248h.19189c.61572,0,.63184-.08789.63184-.376v-4.21291c0-.28809-.01612-.376-.63184-.376h-.19189v-.248h2.92627a2.62354,2.62354,0,0,1,2.44677,2.77441,2.56822,2.56822,0,0,1-2.44433,2.68639Zm1.23144-4.46972a1.72439,1.72439,0,0,0-1.45508-.74317h-.7998c-.37549,0-.3916.05567-.3916.31934V167.163c0,.26367.01611.31934.3916.31934h.80762a1.75266,1.75266,0,0,0,1.42334-.67969,2.74307,2.74307,0,0,0,.43994-1.75879A3.09262,3.09262,0,0,0,216.47119,163.26064Z" transform="translate(-22.23389 -49.26855)"/>
    <g>
      <path class="cls-2" d="M216.9458,187.578H212.332v-.248h.1919c.61572,0,.63183-.08789.63183-.376v-4.18945c0-.28809-.01611-.376-.63183-.376h-.1919v-.24805h4.5015l.22412,1.79981h-.19971c-.12793-1.11133-.34375-1.55176-1.56738-1.55176h-1.03125c-.376,0-.39209.05664-.39209.32031v1.919h.71972c.77588,0,.86377-.248.86377-.93555h.19971v2.11914h-.19971c0-.67969-.08789-.93555-.86377-.93555h-.71972v2.13477c0,.26367.01611.31934.39209.31934h1.06347c1.375,0,1.55909-.584,1.75879-1.81446h.2002Z" transform="translate(-22.23389 -49.26855)"/>
      <path class="cls-2" d="M220.89844,187.55361l-.90381.02441v-.248c.53564,0,.624,0,.624-.35938v-1.8633c0-.45606-.08838-.8877-.59179-.8877a1.16816,1.16816,0,0,0-1.08223,1.24817l.00264.03113v1.47168c0,.35938.08789.35938.62353.35938v.248l-.89551-.02441-.90327.02443v-.248c.53565,0,.62354,0,.62354-.35938V184.828c0-.39258-.064-.44824-.62354-.44824v-.248l1.12744-.08789v.83985a1.25988,1.25988,0,0,1,1.18311-.83985,1.06786,1.06786,0,0,1,.83984.2959c.24756.28809.24756.53613.24756,1.22363v1.52735c.0083.23926.208.23926.624.23926v.248Z" transform="translate(-22.23389 -49.26855)"/>
    </g>
    <g>
      <path class="cls-4" d="M166.194,210H175m-36,0H125" transform="translate(-22.23389 -49.26855)"/>
      <path class="cls-2" d="M138.29824,197.54607v24.90786l1.1985-.59056,22.80615-11.11648v-1.49378l-22.80615-11.11648Zm1.66747,2.6749L160.04486,210l-20.07915,9.779Z" transform="translate(-22.23389 -49.26855)"/>
      <path class="cls-5" d="M166.10681,210a2.2233,2.2233,0,1,1-2.22329-2.2233A2.2233,2.2233,0,0,1,166.10681,210Z" transform="translate(-22.23389 -49.26855)"/>
    </g>
    <polyline class="cls-6" points="102.766 160.731 77.766 160.731 77.766 135.731 28.766 135.731"/>
    <polyline class="cls-6" points="152.766 160.731 152.766 135.731 177.766 135.731"/>
    <line class="cls-6" x1="177.76611" y1="115.73145" x2="127.76611" y2="115.73145"/>
    <line class="cls-6" x1="78.76611" y1="115.73145" x2="28.76611" y2="115.73145"/>
    <path class="cls-2" d="M149.917,156.35791l-1.9292,3.13818v1.92871c0,.39014.03028.48975.79981.48975h.23v.31006c-.35987-.02979-1.06934-.02979-1.45947-.02979-.38965,0-1.09913,0-1.459.02979v-.31006h.23975c.76953,0,.78955-.10986.78955-.46973v-1.94873l-2.09863-3.418c-.16016-.25977-.24024-.37012-.91944-.37012h-.18017v-.30957l1.29931.02978c.38965,0,1.11963,0,1.479-.02978v.30957c-.44971,0-.69922.04-.69922.25,0,.0498,0,.06982.06982.16992l1.80908,2.94824,1.64893-2.67822a.62558.62558,0,0,0,.1001-.29981c0-.20019-.16016-.39013-.56983-.39013v-.30957l1.14942.02978c.27,0,.66943-.00976.97949-.02978v.30957A1.38288,1.38288,0,0,0,149.917,156.35791Z" transform="translate(-22.23389 -49.26855)"/>
    <g>
      <path class="cls-2" d="M117.17578,156.28467c-.38965,0-1.06933,0-1.43848.02978v-.31006h.23926c.76953,0,.79-.10986.79-.46972v-5.73682h-.01074l-2.458,6.32666c-.04.10987-.07031.18994-.17969.18994-.10058,0-.15039-.08984-.20019-.21972l-2.40918-6.2168H111.499v5.38721c0,.26953,0,.73925,1.0293.73925v.31006l-1.16894-.02978-1.16993.02978v-.31006c1.03028,0,1.03028-.46972,1.03028-.73925v-4.99756c0-.35938-.02051-.46973-.79-.46973h-.24024v-.30957h1.68946c.22949,0,.25976,0,.34961.21973l2.16894,5.59717,2.18848-5.627c.07031-.18017.07031-.18994.33008-.18994h1.68945v.30957h-.24024c-.76953,0-.78906.11035-.78906.46973v5.26709c0,.35986.01953.46972.78906.46972h.24024v.31006C118.23535,156.28467,117.56543,156.28467,117.17578,156.28467Z" transform="translate(-22.23389 -49.26855)"/>
      <path class="cls-2" d="M122.99805,156.37451a.8375.8375,0,0,1-.78028-.81982,1.38167,1.38167,0,0,1-1.30859.86963c-.62988,0-1.59961-.25-1.59961-1.05957a1.45557,1.45557,0,0,1,1-1.29883,4.84826,4.84826,0,0,1,1.83887-.35987v-.37011a1.13242,1.13242,0,0,0-1.05957-1.2793,1.40127,1.40127,0,0,0-1.0791.46.45336.45336,0,0,1,.50976.45947.46.46,0,1,1-.91992-.00976c0-.65967.68945-1.1294,1.50879-1.1294a1.9113,1.9113,0,0,1,1.37012.54981,1.479,1.479,0,0,1,.35937,1.1792v1.999c0,.04981.04.49951.37012.49951.10937,0,.35937-.06006.35937-.63965v-.55957h.25v.55957A.84866.84866,0,0,1,122.99805,156.37451Zm-.84961-2.45849c-1.64942.05957-2.06934.88916-2.06934,1.439a.861.861,0,0,0,.89942.84961,1.20074,1.20074,0,0,0,1.16992-1.28955Z" transform="translate(-22.23389 -49.26855)"/>
      <path class="cls-2" d="M125.97852,156.42432a1.49066,1.49066,0,0,1-1.09864-.42969,2.08221,2.08221,0,0,0-.20019.23c-.19043.18994-.2002.19971-.25.19971-.11035,0-.11035-.06983-.11035-.23975v-1.31934c0-.17968,0-.25.13086-.25.0996,0,.10937.04.13964.16993.18946.84961.54981,1.41943,1.38868,1.41943.78027,0,1.12988-.3999,1.12988-.90967,0-.71972-.81934-.87939-1.03906-.91943A2.62029,2.62029,0,0,1,124.75,153.916a1.065,1.065,0,0,1-.43066-.84961c0-.56006.37988-1.2295,1.59961-1.2295a1.53944,1.53944,0,0,1,.93945.27979,1.28249,1.28249,0,0,0,.16992-.15967c.12988-.12012.15039-.12012.2002-.12012.10937,0,.10937.06983.10937.23975v1.00977c0,.18994,0,.23974-.12988.23974,0,0-.10938,0-.12012-.08984a1.1019,1.1019,0,0,0-1.16894-1.20947c-.85938,0-1.11915.40966-1.11915.75976,0,.57959.66895.70947,1.2295.81934a2.03693,2.03693,0,0,1,1.13867.47949,1.28961,1.28961,0,0,1,.41992.94971C127.58789,155.75488,127.12793,156.42432,125.97852,156.42432Z" transform="translate(-22.23389 -49.26855)"/>
      <path class="cls-2" d="M130.25879,156.42432a1.20865,1.20865,0,0,1-1.28906-1.34912v-2.75879h-.84961v-.21973c.97949-.04,1.27929-1.10938,1.28906-1.92871h.25v1.83887h1.42871v.30957h-1.42871v2.7788c0,.16993,0,1.07911.66992,1.07911.36914,0,.66895-.3794.66895-1.11914v-.54981h.25v.56983C131.24805,155.71484,130.96875,156.42432,130.25879,156.42432Z" transform="translate(-22.23389 -49.26855)"/>
      <path class="cls-2" d="M134.29883,156.42432a2.25663,2.25663,0,0,1-2.19922-2.3086,2.18436,2.18436,0,0,1,2.0791-2.27881,1.7729,1.7729,0,0,1,1.78906,1.959c0,.21-.03027.21-.25.21h-2.78808a2.90957,2.90957,0,0,0,.2998,1.499,1.34555,1.34555,0,0,0,1.12891.66944,1.40822,1.40822,0,0,0,1.34961-1.0293c.01953-.08008.04-.13965.12988-.13965a.1161.1161,0,0,1,.12988.11963A1.70866,1.70866,0,0,1,134.29883,156.42432Zm-.12012-4.36768c-.33984,0-1.17969.25-1.23926,1.73926h2.36914C135.30859,153.40625,135.208,152.05664,134.17871,152.05664Z" transform="translate(-22.23389 -49.26855)"/>
      <path class="cls-2" d="M139.46777,152.94629a.41406.41406,0,0,1-.42968-.42969.43364.43364,0,0,1,.22949-.38965c-.01953-.01025-.04-.01025-.10938-.01025-.75976,0-1.17968.88965-1.17968,1.87891v1.53906c0,.35986.0205.46972.75976.46972h.21v.31006c-.40039-.02978-.87011-.02978-1.26953-.02978l-1.13965.02978v-.31006c.66992,0,.78028,0,.78028-.4497v-2.67823c0-.48974-.08008-.56005-.78028-.56005v-.30957l1.38965-.10987v1.09912a1.39945,1.39945,0,0,1,1.22949-1.09912.68154.68154,0,0,1,.73926.60938A.42022.42022,0,0,1,139.46777,152.94629Z" transform="translate(-22.23389 -49.26855)"/>
    </g>
    <g>
      <path class="cls-2" d="M216.76855,156.53418a2.50883,2.50883,0,0,1-1.83984-.69922c-.3291.5293-.35937.56934-.35937.56934-.07032.10986-.08008.12988-.15039.12988-.10938,0-.10938-.06982-.10938-.23975v-1.999c0-.17969,0-.24951.12988-.24951a.104.104,0,0,1,.12012.09961,2.02235,2.02235,0,0,0,.61914,1.53906,2.41311,2.41311,0,0,0,1.5791.54,1.37063,1.37063,0,0,0,1.33985-1.4292,1.45931,1.45931,0,0,0-.31055-.91943,1.32336,1.32336,0,0,0-.84863-.50977c-.7002-.16992-1.21-.29-1.31934-.33008a1.93587,1.93587,0,0,1,.63965-3.76758,2.05761,2.05761,0,0,1,1.59863.69922l.34961-.56933c.07031-.12012.08008-.12989.15039-.12989.10938,0,.10938.06983.10938.23975v2.00879c0,.18994,0,.23975-.12989.23975-.10937,0-.10937-.06006-.11914-.11963-.06054-.44971-.28027-2.08887-1.94922-2.08887a1.3064,1.3064,0,0,0-.30957,2.57861l1.2793.30957a2.046,2.046,0,0,1,1.499,2.019A2.00366,2.00366,0,0,1,216.76855,156.53418Z" transform="translate(-22.23389 -49.26855)"/>
      <path class="cls-2" d="M220.749,156.28467l-1.10937.02978v-.31006c.66992,0,.7793,0,.7793-.4497v-5.19678c0-.48975-.08008-.56006-.7793-.56006v-.30957l1.43945-.10986v6.17627c0,.4497.10938.4497.7793.4497v.31006Z" transform="translate(-22.23389 -49.26855)"/>
      <path class="cls-2" d="M226.09766,156.37451a.8375.8375,0,0,1-.78028-.81982,1.38167,1.38167,0,0,1-1.30859.86963c-.62988,0-1.59961-.25-1.59961-1.05957a1.45557,1.45557,0,0,1,1-1.29883,4.84826,4.84826,0,0,1,1.83887-.35987v-.37011a1.13243,1.13243,0,0,0-1.05957-1.2793,1.40127,1.40127,0,0,0-1.0791.46.45336.45336,0,0,1,.50976.45947.46.46,0,1,1-.91992-.00976c0-.65967.68945-1.1294,1.50879-1.1294a1.9113,1.9113,0,0,1,1.37012.54981,1.479,1.479,0,0,1,.35937,1.1792v1.999c0,.04981.04.49951.37012.49951.10937,0,.35937-.06006.35937-.63965v-.55957h.25v.55957A.84866.84866,0,0,1,226.09766,156.37451Zm-.84961-2.45849c-1.64942.05957-2.06934.88916-2.06934,1.439a.861.861,0,0,0,.89942.84961,1.20074,1.20074,0,0,0,1.16992-1.28955Z" transform="translate(-22.23389 -49.26855)"/>
      <path class="cls-2" d="M230.96777,152.98633l-1.30957,3.248c-.04.10009-.08007.18994-.21.18994s-.14941-.04981-.21-.18994l-1.43945-3.54786c-.12988-.31006-.16992-.37011-.79883-.37011v-.30957c.2998.02.69922.02978.96875.02978l1.08984-.02978v.30957c-.17968,0-.56933,0-.56933.26025a.53448.53448,0,0,0,.05957.16992l1.11914,2.78809,1.01953-2.54834a.60265.60265,0,0,0,.06055-.23975c0-.18994-.11035-.41992-.48047-.43017v-.30957l.87012.02978c.22949,0,.51953-.00976.749-.02978v.30957A.90517.90517,0,0,0,230.96777,152.98633Z" transform="translate(-22.23389 -49.26855)"/>
      <path class="cls-2" d="M234.28809,156.42432a2.25585,2.25585,0,0,1-2.19825-2.3086,2.18373,2.18373,0,0,1,2.07911-2.27881,1.7729,1.7729,0,0,1,1.78906,1.959c0,.21-.03028.21-.25.21H232.919a2.90957,2.90957,0,0,0,.2998,1.499,1.34719,1.34719,0,0,0,1.12988.66944,1.408,1.408,0,0,0,1.34864-1.0293c.0205-.08008.04-.13965.12988-.13965a.11643.11643,0,0,1,.13086.11963A1.70905,1.70905,0,0,1,234.28809,156.42432Zm-.11914-4.36768c-.33985,0-1.17969.25-1.23926,1.73926h2.36816C235.29785,153.40625,235.19824,152.05664,234.169,152.05664Z" transform="translate(-22.23389 -49.26855)"/>
    </g>
    <path class="cls-2" d="M42.23242,167.75293h-3.6582v-.31006h.24023c.76953,0,.78955-.10986.78955-.46973v-5.26709c0-.35937-.02-.46972-.78955-.46972h-.24023v-.30957h3.6582a3.27923,3.27923,0,0,1,3.05811,3.46777A3.20967,3.20967,0,0,1,42.23242,167.75293Zm1.53906-5.58691a2.15566,2.15566,0,0,0-1.81884-.92969h-.99951c-.46973,0-.48975.07031-.48975.3999v5.40723c0,.32959.02.39941.48975.39941H41.9624a2.19235,2.19235,0,0,0,1.7793-.84912,3.429,3.429,0,0,0,.5498-2.19922A3.866,3.866,0,0,0,43.77148,162.166Z" transform="translate(-22.23389 -49.26855)"/>
    <g>
      <path class="cls-2" d="M25.71191,187.69141a3.63626,3.63626,0,0,1,0-7.26563,2.452,2.452,0,0,1,1.83936.85938l.49951-.73975c.08008-.11963.12012-.11963.16016-.11963.10986,0,.10986.06983.10986.23975v2.36865c0,.21,0,.23975-.16016.23975-.13964,0-.13964-.02979-.15966-.16993-.2002-1.459-1.08936-2.36865-2.17871-2.36865-.60987,0-2.5586.33985-2.5586,3.32813,0,2.97851,1.9585,3.31836,2.56836,3.31836a2.26368,2.26368,0,0,0,2.23877-2.249c.00977-.09961.00977-.15967.12012-.15967.12988,0,.12988.06983.12988.16993A2.61333,2.61333,0,0,1,25.71191,187.69141Z" transform="translate(-22.23389 -49.26855)"/>
      <path class="cls-2" d="M30.333,187.44189l-1.10938.02979v-.31006c.66992,0,.77979,0,.77979-.44971v-5.19677c0-.48975-.08008-.56006-.77979-.56006v-.30957l1.43946-.10987v6.17627c0,.44971.10986.44971.77978.44971v.31006Z" transform="translate(-22.23389 -49.26855)"/>
      <path class="cls-2" d="M34.16309,187.58154a2.231,2.231,0,0,1-2.209-2.24853,2.21721,2.21721,0,1,1,4.42774,0A2.22691,2.22691,0,0,1,34.16309,187.58154Zm1.12939-3.71777a1.3109,1.3109,0,0,0-1.12939-.6499,1.34145,1.34145,0,0,0-1.13965.66992,2.86611,2.86611,0,0,0-.23975,1.36914,2.97258,2.97258,0,0,0,.25,1.40918,1.30473,1.30473,0,0,0,1.13916.66943,1.28971,1.28971,0,0,0,1.15967-.73925,3.03851,3.03851,0,0,0,.21973-1.33936A2.7435,2.7435,0,0,0,35.29248,183.86377Z" transform="translate(-22.23389 -49.26855)"/>
      <path class="cls-2" d="M39.44287,187.58154A2.21191,2.21191,0,0,1,37.294,185.313a2.24,2.24,0,0,1,2.16894-2.31885c.76953,0,1.52881.38965,1.52881,1.06934a.45977.45977,0,1,1-.91943.01025.45125.45125,0,0,1,.46972-.46,1.62842,1.62842,0,0,0-1.06933-.36963c-.52979,0-1.34912.41943-1.34912,2.04883,0,1.60889.87939,2.03857,1.40917,2.03857a1.30477,1.30477,0,0,0,1.30909-1.04931c.02-.06006.04-.09961.12988-.09961.03027,0,.13037,0,.13037.09961A1.64452,1.64452,0,0,1,39.44287,187.58154Z" transform="translate(-22.23389 -49.26855)"/>
      <path class="cls-2" d="M45.35205,187.44189l-1.07959.02979v-.31006c.18994,0,.35986-.03955.35986-.22949a8.317,8.317,0,0,0-1.18945-1.79932l-.63965.54981v1.02929c0,.44971.10987.44971.77979.44971v.31006l-1.09961-.02979-1.08936.02979v-.31006c.66992,0,.77979,0,.77979-.44971v-5.19677c0-.48975-.08008-.56006-.77979-.56006v-.30957l1.43946-.10987V185.333l1.40918-1.21973a.51809.51809,0,0,0,.21972-.38965c0-.12988-.1001-.23974-.29-.25v-.30957c.14014.00977.75977.02979,1.11963.02979a5.5795,5.5795,0,0,0,.69971-.02979v.30957a1.98109,1.98109,0,0,0-1.25928.54,10.64561,10.64561,0,0,0-.80957.71973c0,.02978.04981.08984.06006.10986l1.269,1.78906c.37989.5293.59961.5293.96973.5293v.31006Q45.78662,187.44165,45.35205,187.44189Z" transform="translate(-22.23389 -49.26855)"/>
    </g>
    <g>
      <path class="cls-2" d="M104.57715,230.68359v5.51709c0,.18995,0,.25977-.13965.25977-.07031,0-.08008-.00977-.16992-.12988l-4.07813-5.99659a.57971.57971,0,0,0-.09961-.12011v5.19726c0,.26953,0,.73926,1.0293.73926v.31006l-1.16992-.02979-1.16895.02979v-.31006c1.0293,0,1.0293-.46973,1.0293-.73926v-5.21728c0-.18994-.00977-.19971-.23926-.23-.15039-.00977-.35058-.02-.5-.02h-.29v-.30957h1.69922c.18946,0,.2002.00976.29.12988l3.52735,5.187v-4.26758c0-.27,0-.73974-1.0293-.73974v-.30957l1.16992.02978,1.16895-.02978v.30957C104.57715,229.94385,104.57715,230.41357,104.57715,230.68359Z" transform="translate(-22.23389 -49.26855)"/>
      <path class="cls-2" d="M108.42871,236.57031a2.25584,2.25584,0,0,1-2.19824-2.30859,2.18372,2.18372,0,0,1,2.0791-2.27881,1.7729,1.7729,0,0,1,1.78906,1.959c0,.21-.03027.21-.25.21h-2.78906a2.90949,2.90949,0,0,0,.29981,1.499,1.34717,1.34717,0,0,0,1.12988.66943,1.408,1.408,0,0,0,1.34863-1.02929c.02051-.08008.04-.13965.12988-.13965a.11643.11643,0,0,1,.13086.11963A1.709,1.709,0,0,1,108.42871,236.57031Zm-.11914-4.36767c-.33984,0-1.17969.25-1.23926,1.73925h2.36817C109.43848,233.55225,109.33887,232.20264,108.30957,232.20264Z" transform="translate(-22.23389 -49.26855)"/>
      <path class="cls-2" d="M114.94824,232.72266a.284.284,0,0,1-.29-.29.26727.26727,0,0,1,.16016-.27.47561.47561,0,0,0-.10059-.00977,1.31346,1.31346,0,0,0-.89941.38965,1.35013,1.35013,0,0,1,.41016.96973,1.54657,1.54657,0,0,1-1.61914,1.459,1.70019,1.70019,0,0,1-.98926-.30957.73562.73562,0,0,0-.16992.46973.65188.65188,0,0,0,.52929.66943c.07031.01026.5.01026.75.01026a3.55277,3.55277,0,0,1,1.71875.27978,1.27755,1.27755,0,0,1,.64942,1.13916c0,.77979-1.03907,1.28955-2.21875,1.28955-1.21875,0-2.209-.5498-2.209-1.26953a1.12823,1.12823,0,0,1,.91992-.99951,1.06589,1.06589,0,0,1-.43945-.88965,1.31943,1.31943,0,0,0-.16016-1.85889,1.54657,1.54657,0,0,1,1.61915-1.459,1.6661,1.6661,0,0,1,1.05957.35986,1.53572,1.53572,0,0,1,1.05859-.46972.48845.48845,0,0,1,.50976.48974A.28836.28836,0,0,1,114.94824,232.72266Zm-2.34863,3.668h-.58984a.87879.87879,0,0,0-.81934.85937c0,.52979.68945,1.03955,1.69824,1.03955.97949,0,1.68946-.5,1.68946-1.03955C114.57813,236.39063,113.459,236.39063,112.59961,236.39063Zm.00977-4.11768a.86453.86453,0,0,0-.71.39941,1.647,1.647,0,0,0-.16015.83985c0,.23,0,1.229.87012,1.229a.86242.86242,0,0,0,.709-.39941,1.63691,1.63691,0,0,0,.16016-.83985C113.47852,233.272,113.47852,232.273,112.60938,232.273Z" transform="translate(-22.23389 -49.26855)"/>
      <path class="cls-2" d="M119.39844,236.52051a.8375.8375,0,0,1-.78028-.81983,1.38165,1.38165,0,0,1-1.30859.86963c-.62988,0-1.59961-.25-1.59961-1.05957a1.45559,1.45559,0,0,1,1-1.29883,4.84824,4.84824,0,0,1,1.83887-.35986v-.37012a1.13241,1.13241,0,0,0-1.05957-1.27929,1.40128,1.40128,0,0,0-1.0791.46.45335.45335,0,0,1,.50976.45947A.46.46,0,1,1,116,233.1123c0-.65966.68945-1.12939,1.50879-1.12939a1.90929,1.90929,0,0,1,1.37012.5498,1.479,1.479,0,0,1,.35937,1.1792v1.999c0,.0498.04.49951.37012.49951.10937,0,.35937-.06006.35937-.63965v-.55957h.25v.55957A.84866.84866,0,0,1,119.39844,236.52051Zm-.84961-2.459c-1.64942.06006-2.06934.88965-2.06934,1.43946a.861.861,0,0,0,.89942.84961,1.20075,1.20075,0,0,0,1.16992-1.28955Z" transform="translate(-22.23389 -49.26855)"/>
      <path class="cls-2" d="M122.71875,236.57031a1.209,1.209,0,0,1-1.28906-1.34912v-2.7583h-.84961v-.22021c.97949-.04,1.2793-1.10938,1.28906-1.92872h.25v1.83887h1.42969v.31006h-1.42969v2.77832c0,.16992,0,1.0791.66992,1.0791.37012,0,.66992-.37939.66992-1.11914v-.5498h.25v.56982C123.709,235.86084,123.42871,236.57031,122.71875,236.57031Z" transform="translate(-22.23389 -49.26855)"/>
      <path class="cls-2" d="M125.709,236.43066l-1.0996.02979v-.31006c.66992,0,.78027,0,.78027-.44971v-2.68847c0-.48975-.08985-.54932-.74024-.54932v-.31006l1.39942-.10986v3.668c0,.38965.04.43945.70019.43945v.31006C126.40918,236.45068,126.05859,236.43066,125.709,236.43066Zm-.0498-5.477a.53936.53936,0,0,1-.5293-.52978.53384.53384,0,0,1,.53907-.52979.54023.54023,0,0,1,.53027.52979A.53472.53472,0,0,1,125.65918,230.95361Z" transform="translate(-22.23389 -49.26855)"/>
      <path class="cls-2" d="M131.21777,233.13232l-1.30859,3.24805c-.04.1001-.08008.18994-.21.18994s-.15039-.0498-.21-.18994l-1.43946-3.54785c-.12988-.31006-.16992-.36963-.7998-.36963v-.31006c.2998.02.7002.02979.96973.02979l1.08886-.02979v.31006c-.17968,0-.56933,0-.56933.25977a.52835.52835,0,0,0,.06054.16992l1.11915,2.78808,1.01953-2.54834a.59955.59955,0,0,0,.05957-.23974c0-.18994-.10938-.41992-.4795-.42969v-.31006l.86915.02979c.23046,0,.51953-.00977.75-.02979v.31006A.9048.9048,0,0,0,131.21777,233.13232Z" transform="translate(-22.23389 -49.26855)"/>
      <path class="cls-2" d="M134.53906,236.57031a2.25664,2.25664,0,0,1-2.19922-2.30859,2.18437,2.18437,0,0,1,2.07911-2.27881,1.7729,1.7729,0,0,1,1.78906,1.959c0,.21-.03028.21-.25.21h-2.78809a2.90949,2.90949,0,0,0,.29981,1.499,1.34552,1.34552,0,0,0,1.1289.66943,1.40821,1.40821,0,0,0,1.34961-1.02929c.01953-.08008.04-.13965.12989-.13965a.1161.1161,0,0,1,.12988.11963A1.70867,1.70867,0,0,1,134.53906,236.57031Zm-.12011-4.36767c-.33985,0-1.17969.25-1.23926,1.73925h2.36914C135.54883,233.55225,135.44824,232.20264,134.419,232.20264Z" transform="translate(-22.23389 -49.26855)"/>
      <path class="cls-2" d="M142.30859,236.57031a2.25663,2.25663,0,0,1-2.19921-2.30859,2.18436,2.18436,0,0,1,2.0791-2.27881,1.7729,1.7729,0,0,1,1.78906,1.959c0,.21-.03027.21-.25.21h-2.78809a2.90949,2.90949,0,0,0,.29981,1.499,1.34552,1.34552,0,0,0,1.1289.66943,1.40821,1.40821,0,0,0,1.34961-1.02929c.01953-.08008.04-.13965.12989-.13965a.1161.1161,0,0,1,.12988.11963A1.70867,1.70867,0,0,1,142.30859,236.57031Zm-.12011-4.36767c-.33985,0-1.17969.25-1.23926,1.73925h2.36914C143.31836,233.55225,143.21777,232.20264,142.18848,232.20264Z" transform="translate(-22.23389 -49.26855)"/>
      <path class="cls-2" d="M148.06738,236.57031v-.65967a1.68761,1.68761,0,0,1-1.33886.65967,2.19826,2.19826,0,0,1-2.11914-2.25879,2.259,2.259,0,0,1,2.22851-2.26855,1.59594,1.59594,0,0,1,1.25977.61963v-2.15869c0-.48975-.08008-.56006-.7793-.56006v-.30957l1.43848-.10987v6.06641c0,.48975.08007.55957.78027.55957v.31006Zm0-3.33789a.48012.48012,0,0,0-.10937-.37012,1.2968,1.2968,0,0,0-1.08008-.5996,1.3744,1.3744,0,0,0-1.12891.63964,3.44485,3.44485,0,0,0-.0205,2.8086,1.24406,1.24406,0,0,0,1.0498.63965,1.39272,1.39272,0,0,0,1.17969-.69971.47954.47954,0,0,0,.10937-.36963Z" transform="translate(-22.23389 -49.26855)"/>
      <path class="cls-2" d="M154.3877,232.72266a.284.284,0,0,1-.29-.29.26727.26727,0,0,1,.16015-.27.47553.47553,0,0,0-.10058-.00977,1.31346,1.31346,0,0,0-.89942.38965,1.35013,1.35013,0,0,1,.41016.96973,1.54656,1.54656,0,0,1-1.61914,1.459,1.70019,1.70019,0,0,1-.98926-.30957.73562.73562,0,0,0-.16992.46973.65188.65188,0,0,0,.5293.66943c.07031.01026.5.01026.75.01026a3.55281,3.55281,0,0,1,1.71875.27978,1.27756,1.27756,0,0,1,.64941,1.13916c0,.77979-1.03906,1.28955-2.21875,1.28955-1.21875,0-2.209-.5498-2.209-1.26953a1.12823,1.12823,0,0,1,.91992-.99951,1.0659,1.0659,0,0,1-.43946-.88965,1.31944,1.31944,0,0,0-.16015-1.85889,1.54656,1.54656,0,0,1,1.61914-1.459,1.66609,1.66609,0,0,1,1.05957.35986,1.53572,1.53572,0,0,1,1.05859-.46972.48845.48845,0,0,1,.50977.48974A.28837.28837,0,0,1,154.3877,232.72266Zm-2.34864,3.668h-.58984a.87879.87879,0,0,0-.81934.85937c0,.52979.68946,1.03955,1.69825,1.03955.97949,0,1.68945-.5,1.68945-1.03955C154.01758,236.39063,152.89844,236.39063,152.03906,236.39063Zm.00977-4.11768a.86452.86452,0,0,0-.71.39941,1.64691,1.64691,0,0,0-.16016.83985c0,.23,0,1.229.87012,1.229a.86242.86242,0,0,0,.709-.39941,1.63691,1.63691,0,0,0,.16016-.83985C152.918,233.272,152.918,232.273,152.04883,232.273Z" transform="translate(-22.23389 -49.26855)"/>
      <path class="cls-2" d="M157.30859,236.57031a2.25663,2.25663,0,0,1-2.19921-2.30859,2.18436,2.18436,0,0,1,2.0791-2.27881,1.7729,1.7729,0,0,1,1.78906,1.959c0,.21-.03027.21-.25.21h-2.78809a2.90949,2.90949,0,0,0,.29981,1.499,1.34552,1.34552,0,0,0,1.1289.66943,1.40821,1.40821,0,0,0,1.34961-1.02929c.01953-.08008.04-.13965.12989-.13965a.1161.1161,0,0,1,.12988.11963A1.70867,1.70867,0,0,1,157.30859,236.57031Zm-.12011-4.36767c-.33985,0-1.17969.25-1.23926,1.73925h2.36914C158.31836,233.55225,158.21777,232.20264,157.18848,232.20264Z" transform="translate(-22.23389 -49.26855)"/>
      <path class="cls-2" d="M164.92773,236.57031a1.209,1.209,0,0,1-1.28906-1.34912v-2.7583h-.84961v-.22021c.97949-.04,1.2793-1.10938,1.28907-1.92872h.25v1.83887h1.42968v.31006h-1.42968v2.77832c0,.16992,0,1.0791.66992,1.0791.37011,0,.66992-.37939.66992-1.11914v-.5498h.25v.56982C165.918,235.86084,165.6377,236.57031,164.92773,236.57031Z" transform="translate(-22.23389 -49.26855)"/>
      <path class="cls-2" d="M169.69727,233.09229a.41407.41407,0,0,1-.42969-.42969.432.432,0,0,1,.23047-.38965.2499.2499,0,0,0-.11035-.01025c-.75977,0-1.17872.88964-1.17872,1.8789v1.53906c0,.35987.01954.46973.75879.46973h.21v.31006c-.39941-.02979-.86914-.02979-1.26855-.02979l-1.13965.02979v-.31006c.66992,0,.7793,0,.7793-.44971v-2.67822c0-.48975-.08008-.55957-.7793-.55957v-.31006l1.38867-.10986v1.09912a1.40053,1.40053,0,0,1,1.2295-1.09912.68252.68252,0,0,1,.74023.60937A.42044.42044,0,0,1,169.69727,233.09229Z" transform="translate(-22.23389 -49.26855)"/>
      <path class="cls-2" d="M171.83887,236.43066l-1.09961.02979v-.31006c.66992,0,.77929,0,.77929-.44971v-2.68847c0-.48975-.08984-.54932-.73925-.54932v-.31006l1.39941-.10986v3.668c0,.38965.04.43945.69922.43945v.31006C172.53809,236.45068,172.18848,236.43066,171.83887,236.43066Zm-.04981-5.477a.54022.54022,0,0,1-.53027-.52978.53469.53469,0,1,1,.53027.52978Z" transform="translate(-22.23389 -49.26855)"/>
      <path class="cls-2" d="M177.74707,232.72266a.284.284,0,0,1-.29-.29.2686.2686,0,0,1,.16016-.27.468.468,0,0,0-.09961-.00977,1.3119,1.3119,0,0,0-.89942.38965,1.3493,1.3493,0,0,1,.40918.96973,1.54656,1.54656,0,0,1-1.61914,1.459,1.702,1.702,0,0,1-.98925-.30957.7356.7356,0,0,0-.16993.46973.65179.65179,0,0,0,.53028.66943c.06933.01026.499.01026.749.01026a3.55087,3.55087,0,0,1,1.71875.27978,1.27867,1.27867,0,0,1,.65039,1.13916c0,.77979-1.04,1.28955-2.21875,1.28955-1.21973,0-2.209-.5498-2.209-1.26953a1.12707,1.12707,0,0,1,.91894-.99951,1.06589,1.06589,0,0,1-.43945-.88965,1.31943,1.31943,0,0,0-.16016-1.85889,1.54657,1.54657,0,0,1,1.61914-1.459,1.66607,1.66607,0,0,1,1.05957.35986,1.53758,1.53758,0,0,1,1.05957-.46972.4891.4891,0,0,1,.50977.48974A.28908.28908,0,0,1,177.74707,232.72266Zm-2.34863,3.668h-.58985a.87953.87953,0,0,0-.81933.85937c0,.52979.68945,1.03955,1.69922,1.03955.97949,0,1.68847-.5,1.68847-1.03955C177.377,236.39063,176.25781,236.39063,175.39844,236.39063Zm.00976-4.11768a.86405.86405,0,0,0-.709.39941,1.63691,1.63691,0,0,0-.16016.83985c0,.23,0,1.229.86914,1.229a.8645.8645,0,0,0,.71-.39941,1.64691,1.64691,0,0,0,.16016-.83985C176.27832,233.272,176.27832,232.273,175.4082,232.273Z" transform="translate(-22.23389 -49.26855)"/>
      <path class="cls-2" d="M182.74707,232.72266a.284.284,0,0,1-.29-.29.2686.2686,0,0,1,.16016-.27.468.468,0,0,0-.09961-.00977,1.3119,1.3119,0,0,0-.89942.38965,1.3493,1.3493,0,0,1,.40918.96973,1.54656,1.54656,0,0,1-1.61914,1.459,1.702,1.702,0,0,1-.98925-.30957.7356.7356,0,0,0-.16993.46973.65179.65179,0,0,0,.53028.66943c.06933.01026.499.01026.749.01026a3.55087,3.55087,0,0,1,1.71875.27978,1.27867,1.27867,0,0,1,.65039,1.13916c0,.77979-1.04,1.28955-2.21875,1.28955-1.21973,0-2.209-.5498-2.209-1.26953a1.12707,1.12707,0,0,1,.91894-.99951,1.06589,1.06589,0,0,1-.43945-.88965,1.31943,1.31943,0,0,0-.16016-1.85889,1.54657,1.54657,0,0,1,1.61914-1.459,1.66607,1.66607,0,0,1,1.05957.35986,1.53758,1.53758,0,0,1,1.05957-.46972.4891.4891,0,0,1,.50977.48974A.28908.28908,0,0,1,182.74707,232.72266Zm-2.34863,3.668h-.58985a.87953.87953,0,0,0-.81933.85937c0,.52979.68945,1.03955,1.69922,1.03955.97949,0,1.68847-.5,1.68847-1.03955C182.377,236.39063,181.25781,236.39063,180.39844,236.39063Zm.00976-4.11768a.86405.86405,0,0,0-.709.39941,1.63691,1.63691,0,0,0-.16016.83985c0,.23,0,1.229.86914,1.229a.8645.8645,0,0,0,.71-.39941,1.64691,1.64691,0,0,0,.16016-.83985C181.27832,233.272,181.27832,232.273,180.4082,232.273Z" transform="translate(-22.23389 -49.26855)"/>
      <path class="cls-2" d="M185.668,236.57031a2.25584,2.25584,0,0,1-2.19824-2.30859,2.18372,2.18372,0,0,1,2.0791-2.27881,1.7729,1.7729,0,0,1,1.78906,1.959c0,.21-.03027.21-.25.21h-2.78906a2.90957,2.90957,0,0,0,.2998,1.499,1.3472,1.3472,0,0,0,1.12989.66943,1.408,1.408,0,0,0,1.34863-1.02929c.02051-.08008.04-.13965.12988-.13965a.11643.11643,0,0,1,.13086.11963A1.709,1.709,0,0,1,185.668,236.57031Zm-.11914-4.36767c-.33985,0-1.17969.25-1.23926,1.73925h2.36816C186.67773,233.55225,186.57813,232.20264,185.54883,232.20264Z" transform="translate(-22.23389 -49.26855)"/>
      <path class="cls-2" d="M190.83691,233.09229a.41406.41406,0,0,1-.42968-.42969.432.432,0,0,1,.23047-.38965.24993.24993,0,0,0-.11036-.01025c-.75976,0-1.17871.88964-1.17871,1.8789v1.53906c0,.35987.01953.46973.75879.46973h.21v.31006c-.39941-.02979-.86914-.02979-1.26855-.02979l-1.13965.02979v-.31006c.66992,0,.7793,0,.7793-.44971v-2.67822c0-.48975-.08008-.55957-.7793-.55957v-.31006l1.38867-.10986v1.09912a1.40053,1.40053,0,0,1,1.22949-1.09912.68253.68253,0,0,1,.74024.60937A.42044.42044,0,0,1,190.83691,233.09229Z" transform="translate(-22.23389 -49.26855)"/>
      <path class="cls-2" d="M194.02832,236.57031a2.25664,2.25664,0,0,1-2.19922-2.30859,2.18436,2.18436,0,0,1,2.0791-2.27881,1.7729,1.7729,0,0,1,1.78907,1.959c0,.21-.03028.21-.25.21h-2.78809a2.90957,2.90957,0,0,0,.2998,1.499,1.34555,1.34555,0,0,0,1.12891.66943,1.40821,1.40821,0,0,0,1.34961-1.02929c.01953-.08008.04-.13965.12988-.13965a.11611.11611,0,0,1,.12989.11963A1.70867,1.70867,0,0,1,194.02832,236.57031Zm-.12012-4.36767c-.33984,0-1.17968.25-1.23925,1.73925h2.36914C195.03809,233.55225,194.9375,232.20264,193.9082,232.20264Z" transform="translate(-22.23389 -49.26855)"/>
      <path class="cls-2" d="M199.78711,236.57031v-.65967a1.6897,1.6897,0,0,1-1.33984.65967,2.19811,2.19811,0,0,1-2.11817-2.25879,2.25834,2.25834,0,0,1,2.22852-2.26855,1.59592,1.59592,0,0,1,1.25976.61963v-2.15869c0-.48975-.08008-.56006-.78027-.56006v-.30957l1.43945-.10987v6.06641c0,.48975.08008.55957.7793.55957v.31006Zm0-3.33789a.47716.47716,0,0,0-.11035-.37012,1.29526,1.29526,0,0,0-1.0791-.5996,1.37479,1.37479,0,0,0-1.12989.63964,3.43969,3.43969,0,0,0-.01953,2.8086,1.24283,1.24283,0,0,0,1.04981.63965,1.39123,1.39123,0,0,0,1.17871-.69971.47658.47658,0,0,0,.11035-.36963Z" transform="translate(-22.23389 -49.26855)"/>
    </g>
  </g>
</svg>
