<svg xmlns="http://www.w3.org/2000/svg" viewBox="0 0 231.85352 182.88135">
  <defs>
    <style>
      .cls-1, .cls-3 {
        fill: #8ff4dd;
      }

      .cls-2, .cls-4, .cls-5, .cls-6, .cls-7, .cls-8 {
        fill: none;
        stroke: #8ff4dd;
      }

      .cls-2, .cls-4, .cls-7 {
        stroke-width: 2px;
      }

      .cls-3 {
        fill-rule: evenodd;
      }

      .cls-4, .cls-5, .cls-7, .cls-8 {
        stroke-miterlimit: 10;
      }

      .cls-5 {
        stroke-width: 0.5px;
      }

      .cls-6 {
        stroke-width: 1.5px;
      }

      .cls-7 {
        stroke-linecap: square;
      }
    </style>
  </defs>
  <title>StateEquationExample</title>
  <g id="Layer_1" data-name="Layer 1">
    <g>
      <path class="cls-1" d="M113.88889,62.88889V85.11111h11.37566a11.11111,11.11111,0,1,0,0-22.22222Zm1.5873,1.5873h9.78836A9.19008,9.19008,0,0,1,134.52381,74,9.40935,9.40935,0,0,1,125,83.52381h-9.52381Z" transform="translate(-47.11133 -52)"/>
      <line class="cls-2" x1="88.88867" y1="22" x2="102.88867" y2="22"/>
      <line class="cls-2" x1="67.88867" y1="16" x2="52.88867" y2="16"/>
      <line class="cls-2" x1="67.88867" y1="28" x2="52.88867" y2="28"/>
    </g>
    <g>
      <path class="cls-1" d="M113.88889,88.88889v22.22222h11.37566a11.11111,11.11111,0,1,0,0-22.22222Zm1.5873,1.5873h9.78836A9.19008,9.19008,0,0,1,134.52381,100,9.40935,9.40935,0,0,1,125,109.52381h-9.52381Z" transform="translate(-47.11133 -52)"/>
      <line class="cls-2" x1="88.88867" y1="48" x2="102.88867" y2="48"/>
      <line class="cls-2" x1="67.88867" y1="42" x2="52.88867" y2="42"/>
      <line class="cls-2" x1="67.88867" y1="54" x2="52.88867" y2="54"/>
    </g>
    <g>
      <path class="cls-1" d="M113.88889,138.88889v22.22222h11.37566a11.11111,11.11111,0,1,0,0-22.22222Zm1.5873,1.5873h9.78836A9.19008,9.19008,0,0,1,134.52381,150,9.40935,9.40935,0,0,1,125,159.52381h-9.52381Z" transform="translate(-47.11133 -52)"/>
      <line class="cls-2" x1="88.88867" y1="98" x2="102.88867" y2="98"/>
      <line class="cls-2" x1="67.88867" y1="92" x2="52.88867" y2="92"/>
      <line class="cls-2" x1="67.88867" y1="104" x2="52.88867" y2="104"/>
    </g>
    <g>
      <path class="cls-3" d="M160.60764,75.88889l1.11111,1.35416a16.71871,16.71871,0,0,1,0,19.51389l-1.11111,1.35417h9.53125a19.22686,19.22686,0,0,0,7.56944-1.33681c3.29739-1.35042,6.96475-4.07959,9.82639-9.375L186.80556,87l.72916-.39931c-5.724-10.592-14.75329-10.7118-17.39583-10.7118Zm3.26389,1.66666h6.26736c2.60232,0,10.15936-.07233,15.53819,9.44445-2.64821,4.68282-5.84515,7.04661-8.73264,8.22916a16.95891,16.95891,0,0,1-6.80555,1.21528h-6.25a18.169,18.169,0,0,0-.01736-18.88889Z" transform="translate(-47.11133 -52)"/>
      <line class="cls-2" x1="152.88867" y1="35" x2="138.88867" y2="35"/>
      <line class="cls-2" x1="117.88867" y1="29" x2="102.88867" y2="29"/>
      <line class="cls-2" x1="117.88867" y1="41" x2="102.88867" y2="41"/>
    </g>
    <g>
      <rect class="cls-4" x="162.88867" y="30" width="30" height="30"/>
      <line class="cls-4" x1="162.88867" y1="35" x2="151.88867" y2="35"/>
      <line class="cls-4" x1="162.88867" y1="55" x2="152.88867" y2="55"/>
      <line class="cls-4" x1="202.88867" y1="35" x2="192.88867" y2="35"/>
      <line class="cls-4" x1="202.88867" y1="55" x2="192.88867" y2="55"/>
      <path class="cls-1" d="M215.23926,89.73047h-2.92578v-.248h.1914c.61621,0,.63184-.08789.63184-.37549V84.89307c0-.2876-.01563-.37549-.63184-.37549h-.1914v-.248h2.92578a2.62422,2.62422,0,0,1,2.44726,2.77442A2.56828,2.56828,0,0,1,215.23926,89.73047Zm1.23144-4.46973a1.72438,1.72438,0,0,0-1.45507-.74316h-.79981c-.376,0-.3916.05566-.3916.31933V89.1626c0,.26416.01562.31982.3916.31982h.80762a1.75328,1.75328,0,0,0,1.42383-.67969,2.74634,2.74634,0,0,0,.43945-1.75878A3.09355,3.09355,0,0,0,216.4707,85.26074Z" transform="translate(-47.11133 -52)"/>
      <polyline class="cls-5" points="163.559 52.5 167.889 55 163.559 57.5"/>
    </g>
    <g>
      <rect class="cls-4" x="162.88867" y="93" width="30" height="30"/>
      <line class="cls-4" x1="162.88867" y1="98" x2="152.88867" y2="98"/>
      <line class="cls-4" x1="162.88867" y1="118" x2="152.88867" y2="118"/>
      <line class="cls-4" x1="202.88867" y1="98" x2="192.88867" y2="98"/>
      <line class="cls-4" x1="202.88867" y1="118" x2="192.88867" y2="118"/>
      <path class="cls-1" d="M215.23926,152.73047h-2.92578v-.24805h.1914c.61621,0,.63184-.08789.63184-.37549v-4.21386c0-.2876-.01563-.37549-.63184-.37549h-.1914v-.24805h2.92578a2.62422,2.62422,0,0,1,2.44726,2.77442A2.56828,2.56828,0,0,1,215.23926,152.73047Zm1.23144-4.46973a1.72438,1.72438,0,0,0-1.45507-.74316h-.79981c-.376,0-.3916.05566-.3916.31933v4.32569c0,.26416.01562.31982.3916.31982h.80762a1.75328,1.75328,0,0,0,1.42383-.67969,2.74634,2.74634,0,0,0,.43945-1.75878A3.09355,3.09355,0,0,0,216.4707,148.26074Z" transform="translate(-47.11133 -52)"/>
      <polyline class="cls-5" points="163.559 115.5 167.889 118 163.559 120.5"/>
    </g>
    <g>
      <path class="cls-1" d="M213.88889,188.88889v22.22222h11.37566a11.11111,11.11111,0,0,0,0-22.22222Zm1.5873,1.5873h9.78836A9.19008,9.19008,0,0,1,234.52381,200,9.40935,9.40935,0,0,1,225,209.52381h-9.52381Z" transform="translate(-47.11133 -52)"/>
      <line class="cls-2" x1="188.88867" y1="148" x2="202.88867" y2="148"/>
      <line class="cls-2" x1="167.88867" y1="142" x2="152.88867" y2="142"/>
      <line class="cls-2" x1="167.88867" y1="154" x2="152.88867" y2="154"/>
    </g>
    <g>
      <path class="cls-3" d="M110.60764,169.88889l1.11111,1.35416a16.71871,16.71871,0,0,1,0,19.51389l-1.11111,1.35417h9.53125a19.22686,19.22686,0,0,0,7.56944-1.33681c3.29739-1.35042,6.96475-4.07959,9.82639-9.375L136.80556,181l.72916-.39931c-5.724-10.592-14.75329-10.7118-17.39583-10.7118Zm3.26389,1.66666h6.26736c2.60232,0,10.15936-.07233,15.53819,9.44445-2.64821,4.68282-5.84515,7.04661-8.73264,8.22916a16.95891,16.95891,0,0,1-6.80555,1.21528h-6.25a18.169,18.169,0,0,0-.01736-18.88889Z" transform="translate(-47.11133 -52)"/>
      <line class="cls-2" x1="102.88867" y1="129" x2="88.88867" y2="129"/>
      <line class="cls-2" x1="67.88867" y1="123" x2="52.88867" y2="123"/>
      <line class="cls-2" x1="67.88867" y1="135" x2="52.88867" y2="135"/>
    </g>
    <g>
      <path class="cls-2" d="M141.194,206H150m-36,0H100" transform="translate(-47.11133 -52)"/>
      <path class="cls-1" d="M113.29824,193.54607v24.90786l1.1985-.59056,22.80615-11.11648v-1.49378l-22.80615-11.11648Zm1.66747,2.6749L135.04486,206l-20.07915,9.779Z" transform="translate(-47.11133 -52)"/>
      <path class="cls-6" d="M141.10681,206a2.2233,2.2233,0,1,1-2.22329-2.2233A2.2233,2.2233,0,0,1,141.10681,206Z" transform="translate(-47.11133 -52)"/>
    </g>
  </g>
  <g id="Layer_2" data-name="Layer 2">
    <line class="cls-7" x1="102.88867" y1="22" x2="102.88867" y2="29"/>
    <line class="cls-7" x1="102.88867" y1="41" x2="102.88867" y2="48"/>
    <polyline class="cls-7" points="202.889 55 202.889 70 52.889 70 52.889 92"/>
    <line class="cls-7" x1="102.88867" y1="98" x2="152.88867" y2="98"/>
    <line class="cls-7" x1="102.88867" y1="154" x2="152.88867" y2="154"/>
    <polyline class="cls-7" points="102.889 129 102.889 142 152.889 142"/>
    <polyline class="cls-4" points="52.889 54 42.889 54 42.889 80 202.889 80 202.889 98 217.889 98"/>
    <polyline class="cls-7" points="153.889 55 142.889 55 142.889 118 153.889 118 142.889 118 142.889 168"/>
    <line class="cls-7" x1="202.88867" y1="148" x2="217.88867" y2="148"/>
    <polyline class="cls-7" points="42.889 80 42.889 123 52.889 123"/>
    <polyline class="cls-7" points="52.889 16 32.889 16 32.889 1 202.889 1 202.889 35 217.889 35"/>
    <polyline class="cls-7" points="52.889 28 22.889 28 12.889 28"/>
    <polyline class="cls-7" points="22.889 28 22.889 154 52.889 154"/>
    <line class="cls-7" x1="52.88867" y1="104" x2="22.88867" y2="104"/>
    <line class="cls-7" x1="52.88867" y1="42" x2="22.88867" y2="42"/>
    <polyline class="cls-7" points="32.889 16 32.889 135 52.889 135"/>
    <path class="cls-1" d="M55.124,84.53125c-.53222,0-1.55517,0-2.04541.042v-.43408c.60254-.01416.91065-.25244.91065-.42041a.48784.48784,0,0,0-.06983-.1543L51.70605,80.2168,49.7168,83.15869c-.09766.15381-.13965.21-.13965.33594,0,.25195.23779.63037.88232.64453v.43408c-.50439-.042-1.2749-.042-1.793-.042l-1.55517.042v-.43408a2.11612,2.11612,0,0,0,2.03125-.9248l2.29736-3.38965-2.57764-3.894c-.26611-.39209-.53222-.49023-1.30273-.49023h-.26611v-.43457l1.82129.042c.53222,0,1.55468,0,2.04492-.042v.43457c-.602.01367-.91065.25195-.91065.41992a.58181.58181,0,0,0,.09815.21045l1.80713,2.70313L53.751,76.40674c.09814-.15381.12646-.18213.12646-.32227,0-.32177-.30859-.63037-.86865-.644v-.43457c.56006.042,1.23242.042,1.793.042l1.55469-.042v.43457a2.166,2.166,0,0,0-2.03077.91016L52.40625,79.1665l2.95557,4.46827c.29443.43408.58838.50439,1.31689.50439h.26611v.43408Z" transform="translate(-47.11133 -52)"/>
    <g>
      <path class="cls-1" d="M178.43457,234.88135a5.09662,5.09662,0,0,1,0-10.1836,3.43508,3.43508,0,0,1,2.57715,1.20459l.70068-1.03613c.11182-.16846.168-.16846.22412-.16846.15381,0,.15381.09815.15381.33643V228.354c0,.29395,0,.33594-.22412.33594-.1958,0-.1958-.042-.22412-.23779-.28027-2.04541-1.52686-3.31983-3.05371-3.31983-.85449,0-3.58594.47608-3.58594,4.66456,0,4.17382,2.74561,4.65039,3.6001,4.65039a3.17248,3.17248,0,0,0,3.13769-3.15186c.01416-.14014.01416-.22412.168-.22412.18213,0,.18213.09814.18213.23828A3.66227,3.66227,0,0,1,178.43457,234.88135Z" transform="translate(-47.11133 -52)"/>
      <path class="cls-1" d="M184.90039,234.53125l-1.55469.042v-.43408c.93848,0,1.09229,0,1.09229-.63037v-7.28418c0-.686-.11182-.78418-1.09229-.78418v-.43457l2.01709-.15381v8.65674c0,.63037.15381.63037,1.09229.63037v.43408Z" transform="translate(-47.11133 -52)"/>
      <path class="cls-1" d="M190.26318,234.72754a3.12694,3.12694,0,0,1-3.0957-3.15186,3.10746,3.10746,0,1,1,6.20557,0A3.12129,3.12129,0,0,1,190.26318,234.72754Zm1.583-5.21094a1.83564,1.83564,0,0,0-1.583-.91064,1.88,1.88,0,0,0-1.59668.93847,4.01391,4.01391,0,0,0-.33642,1.91895,4.16361,4.16361,0,0,0,.35058,1.9751,1.82913,1.82913,0,0,0,1.59668.93847,1.80839,1.80839,0,0,0,1.625-1.03613,4.258,4.258,0,0,0,.30811-1.87744A3.84281,3.84281,0,0,0,191.84619,229.5166Z" transform="translate(-47.11133 -52)"/>
      <path class="cls-1" d="M197.65479,234.72754a3.10045,3.10045,0,0,1-3.01172-3.17969,3.13949,3.13949,0,0,1,3.04-3.25c1.07861,0,2.14306.54639,2.14306,1.499a.6446.6446,0,1,1-1.28906.01367.63242.63242,0,0,1,.65869-.644,2.2844,2.2844,0,0,0-1.499-.51855c-.74219,0-1.89112.58838-1.89112,2.87158,0,2.25537,1.23291,2.85742,1.9751,2.85742a1.82886,1.82886,0,0,0,1.835-1.4707c.02832-.084.05616-.14014.18213-.14014.042,0,.18213,0,.18213.14014A2.305,2.305,0,0,1,197.65479,234.72754Z" transform="translate(-47.11133 -52)"/>
      <path class="cls-1" d="M205.93066,234.53125l-1.51318.042v-.43408c.26611,0,.5044-.05615.5044-.32227a11.65111,11.65111,0,0,0-1.667-2.52148l-.89648.77051v1.44287c0,.63037.1543.63037,1.09277.63037v.43408l-1.541-.042-1.52686.042v-.43408c.93848,0,1.09277,0,1.09277-.63037v-7.28418c0-.686-.1123-.78418-1.09277-.78418v-.43457l2.01709-.15381v6.72363l1.9751-1.709a.72576.72576,0,0,0,.3081-.54639c0-.18213-.14013-.33593-.40625-.3501v-.43408c.19629.01367,1.06495.042,1.56885.042a7.77308,7.77308,0,0,0,.981-.042v.43408a2.77444,2.77444,0,0,0-1.76514.75635,14.96472,14.96472,0,0,0-1.13476,1.00879c0,.042.07031.126.084.15381l1.7793,2.50732c.53222.74268.84033.74268,1.3584.74268v.43408Q206.53956,234.5315,205.93066,234.53125Z" transform="translate(-47.11133 -52)"/>
    </g>
    <path class="cls-1" d="M276.44336,195.05811l-2.70313,4.39843v2.70362c0,.54638.042.68652,1.12061.68652h.32178v.43408c-.50391-.042-1.49854-.042-2.04492-.042s-1.541,0-2.04493.042v-.43408h.33594c1.07861,0,1.10693-.1543,1.10693-.65869v-2.73145l-2.94189-4.79052c-.22412-.36426-.33594-.51807-1.28857-.51807h-.252v-.43457l1.8208.04248c.54639,0,1.56885,0,2.07325-.04248v.43457c-.63038,0-.98047.05615-.98047.3501,0,.06982,0,.09814.09765.23828l2.53565,4.13183,2.311-3.7539a.87518.87518,0,0,0,.14014-.41992c0-.28028-.22412-.54639-.79834-.54639v-.43457l1.61084.04248c.37842,0,.93848-.01416,1.37256-.04248v.43457A1.93926,1.93926,0,0,0,276.44336,195.05811Z" transform="translate(-47.11133 -52)"/>
    <path class="cls-1" d="M277.12988,90.63232c-.53222,0-1.51269,0-2.01709.042v-.43409c.37793,0,1.1626,0,1.1626-.42041a.97236.97236,0,0,0-.042-.19628l-.74268-2.14307h-3.45947l-.64453,1.835a.95027.95027,0,0,0-.02783.21045c0,.36377.35009.71435,1.05029.71435v.43409l-1.61084-.042-1.42871.042v-.43409a1.45593,1.45593,0,0,0,1.56885-.93847l2.89941-8.377c.07031-.1958.11231-.27978.33643-.27978s.25195.09814.32226.27978l3.02539,8.75489c.1543.4624.3501.56054,1.19092.56054h.25195v.43409Zm-3.376-8.13818-1.56885,4.55225h3.15185Z" transform="translate(-47.11133 -52)"/>
    <path class="cls-1" d="M274.36572,153.60693H268.875v-.43408h.33594c1.07861,0,1.10693-.1543,1.10693-.65869v-7.38184c0-.50439-.02832-.6582-1.10693-.6582H268.875v-.43457h5.12646c1.82129,0,3.10987,1.14893,3.10987,2.36768,0,1.03613-.96631,1.93261-2.3252,2.19922a2.75035,2.75035,0,0,1,2.70362,2.437A2.8647,2.8647,0,0,1,274.36572,153.60693Zm-.46191-9.13281H272.1665c-.6582,0-.686.09815-.686.56006V148.48h2.03076a2.11209,2.11209,0,0,0,2.24121-2.07275A1.86129,1.86129,0,0,0,273.90381,144.47412Zm.21,4.314h-2.6333v3.82421c0,.46241.02783.56055.686.56055h1.751a2.19809,2.19809,0,0,0,.19629-4.38476Z" transform="translate(-47.11133 -52)"/>
    <path class="cls-1" d="M262.12988,111.63232c-.53222,0-1.51269,0-2.01709.042v-.43409c.37793,0,1.1626,0,1.1626-.42041a.97236.97236,0,0,0-.042-.19628l-.74268-2.14307h-3.45947l-.64453,1.835a.95027.95027,0,0,0-.02783.21045c0,.36377.35009.71435,1.05029.71435v.43409l-1.61084-.042-1.42871.042v-.43409a1.45593,1.45593,0,0,0,1.56885-.93847l2.89941-8.377c.07031-.1958.11231-.27978.33643-.27978s.25195.09814.32226.27978l3.02539,8.75489c.1543.4624.3501.56054,1.19092.56054h.25195v.43409Zm-3.376-8.13818-1.56885,4.55225h3.15185Z" transform="translate(-47.11133 -52)"/>
    <line class="cls-8" x1="208.05591" y1="48.5" x2="216.05591" y2="48.5"/>
    <circle class="cls-1" cx="22.88867" cy="28" r="2.5"/>
    <circle class="cls-1" cx="22.88867" cy="42" r="2.5"/>
    <circle class="cls-1" cx="22.88867" cy="104" r="2.5"/>
    <circle class="cls-1" cx="32.88867" cy="16" r="2.5"/>
    <circle class="cls-1" cx="42.88867" cy="80" r="2.5"/>
    <circle class="cls-1" cx="142.88867" cy="118" r="2.5"/>
    <circle class="cls-1" cx="202.88867" cy="35" r="2.5"/>
    <circle class="cls-1" cx="202.88867" cy="98" r="2.5"/>
  </g>
</svg>
