<svg id="Layer_1" data-name="Layer 1" xmlns="http://www.w3.org/2000/svg" viewBox="0 0 50 32">
  <defs>
    <style>
      .cls-1, .cls-3 {
        fill: none;
        stroke: #8ff4dd;
        stroke-miterlimit: 10;
      }

      .cls-1 {
        stroke-width: 2px;
      }

      .cls-2 {
        fill: #8ff4dd;
      }

      .cls-3 {
        stroke-width: 0.5px;
      }
    </style>
  </defs>
  <title>DLatch</title>
  <rect class="cls-1" x="10" y="1" width="30" height="30"/>
  <line class="cls-1" x1="10" y1="6" y2="6"/>
  <line class="cls-1" x1="10" y1="26" y2="26"/>
  <line class="cls-1" x1="50" y1="6" x2="40" y2="6"/>
  <line class="cls-1" x1="50" y1="26" x2="40" y2="26"/>
  <path class="cls-2" d="M15.23975,8.73036H12.31348v-.248h.19189c.61572,0,.63184-.08789.63184-.376V3.89345c0-.28809-.01612-.376-.63184-.376h-.19189v-.248h2.92627a2.62354,2.62354,0,0,1,2.44677,2.77441,2.56822,2.56822,0,0,1-2.44433,2.68639Zm1.23144-4.46972a1.72439,1.72439,0,0,0-1.45508-.74317h-.7998c-.37549,0-.3916.05567-.3916.31934V8.163c0,.26367.01611.31934.3916.31934h.80762a1.75266,1.75266,0,0,0,1.42334-.67969,2.74307,2.74307,0,0,0,.43994-1.75879A3.09262,3.09262,0,0,0,16.47119,4.26064Z"/>
  <g>
    <path class="cls-2" d="M16.9458,28.578H12.332V28.33h.1919c.61572,0,.63183-.08789.63183-.376V23.76455c0-.28809-.01611-.376-.63183-.376H12.332v-.248h4.5015l.22412,1.79981h-.19971c-.12793-1.11133-.34375-1.55176-1.56738-1.55176H14.25928c-.376,0-.39209.05664-.39209.32031v1.91895h.71972c.77588,0,.86377-.248.86377-.93555h.19971V26.8114h-.19971c0-.67969-.08789-.93555-.86377-.93555h-.71972v2.13477c0,.26367.01611.31934.39209.31934h1.06347c1.375,0,1.55909-.584,1.75879-1.81446h.2002Z"/>
    <path class="cls-2" d="M20.89844,28.55361l-.90381.02441V28.33c.53564,0,.624,0,.624-.35938v-1.8633c0-.45606-.08838-.8877-.59179-.8877a1.16816,1.16816,0,0,0-1.08223,1.24817l.00264.03113V27.9706c0,.35938.08789.35938.62353.35938v.248l-.89551-.02441L17.772,28.578V28.33c.53565,0,.62354,0,.62354-.35938V25.828c0-.39258-.064-.44824-.62354-.44824v-.248l1.12744-.08789v.83985a1.25988,1.25988,0,0,1,1.18311-.83985,1.06786,1.06786,0,0,1,.83984.2959c.24756.28809.24756.53613.24756,1.22363v1.52735c.0083.23926.208.23926.624.23926v.248Z"/>
  </g>
  <g>
    <line class="cls-3" x1="32.59165" y1="20.60937" x2="37.59165" y2="20.60937"/>
    <path class="cls-2" d="M36.7871,10.44928c-.71971,0-.82373-.6875-.95166-1.50293a2.45769,2.45769,0,0,1-.75146.12012A2.75382,2.75382,0,0,1,32.46923,6.1876a2.62678,2.62678,0,1,1,5.22119,0,2.88841,2.88841,0,0,1-1.623,2.66309c.19189.55958.376.85547.78369.85547a.75593.75593,0,0,0,.72754-.76758c.0078-.05566.0078-.1123.07177-.1123.08007,0,.08007.07226.08007.15234C37.73046,9.05085,37.72264,10.44928,36.7871,10.44928Zm-1.71094-7.0039c-.7998,0-1.87939.74365-1.87939,2.73437,0,1.72754.7998,2.415,1.3916,2.623a.77489.77489,0,0,1-.12793-.4082.64635.64635,0,0,1,.62013-.67153l.01123-.00035c.52,0,.74364.47168.87987.87207a2.78392,2.78392,0,0,0,.99122-2.415C36.96287,4.213,35.91551,3.44538,35.07616,3.44538Zm.01563,4.4375a.48873.48873,0,0,0-.47168.5039.47705.47705,0,0,0,.44926.50331l.01461.0006a1.53355,1.53355,0,0,0,.71142-.18457C35.7075,8.25885,35.54783,7.88289,35.09179,7.88288Z"/>
    <path class="cls-2" d="M36.7871,29.44928c-.71971,0-.82373-.6875-.95166-1.50293a2.45769,2.45769,0,0,1-.75146.12012,2.75382,2.75382,0,0,1-2.61475-2.87887,2.62678,2.62678,0,1,1,5.22119,0,2.88841,2.88841,0,0,1-1.623,2.66309c.19189.55958.376.85547.78369.85547a.75593.75593,0,0,0,.72754-.76758c.0078-.05566.0078-.1123.07177-.1123.08007,0,.08007.07226.08007.15234C37.73046,28.05085,37.72264,29.44928,36.7871,29.44928Zm-1.71094-7.0039c-.7998,0-1.87939.74365-1.87939,2.73437,0,1.72754.7998,2.415,1.3916,2.62305a.77489.77489,0,0,1-.12793-.4082.64635.64635,0,0,1,.62013-.67153l.01123-.00035c.52,0,.74364.47168.87987.87207a2.78392,2.78392,0,0,0,.99122-2.415C36.96287,23.213,35.91551,22.44538,35.07616,22.44538Zm.01563,4.4375a.48873.48873,0,0,0-.47168.5039.47705.47705,0,0,0,.44926.50331l.01461.0006a1.53355,1.53355,0,0,0,.71142-.18457C35.7075,27.25885,35.54783,26.88289,35.09179,26.88288Z"/>
  </g>
</svg>
