<svg xmlns="http://www.w3.org/2000/svg" viewBox="0 0 248.04714 91.56505">
  <defs>
    <style>
      .cls-1 {
        fill: #8ff4dd;
      }

      .cls-2, .cls-3, .cls-4, .cls-5 {
        fill: none;
        stroke: #8ff4dd;
      }

      .cls-2 {
        stroke-width: 1.5px;
      }

      .cls-3, .cls-4 {
        stroke-width: 2px;
      }

      .cls-4 {
        stroke-linecap: square;
      }

      .cls-4, .cls-5 {
        stroke-miterlimit: 10;
      }

      .cls-5 {
        stroke-width: 0.5px;
      }
    </style>
  </defs>
  <title>DLatchLogicDiagram</title>
  <g id="Layer_1" data-name="Layer 1">
    <g>
      <g>
        <path class="cls-1" d="M194.88889,63.88889V86.1111h11.37565a11.11111,11.11111,0,1,0,0-22.22222Zm1.58729,1.5873h9.78836a9.19008,9.19008,0,0,1,9.265,9.11451q.00168.20469-.00577.4093a9.40936,9.40936,0,0,1-9.29347,9.52381q-.11517.00141-.23033,0h-9.5238Z" transform="translate(-11.32471 -57.88889)"/>
        <path class="cls-2" d="M222.11111,75a2.22222,2.22222,0,1,1-2.22221-2.22222h0A2.22221,2.22221,0,0,1,222.11111,75Z" transform="translate(-11.32471 -57.88889)"/>
        <line class="cls-3" x1="210.67529" y1="17.11111" x2="219.67529" y2="17.11111"/>
        <line class="cls-3" x1="184.67529" y1="11.11111" x2="169.67529" y2="11.11111"/>
        <line class="cls-3" x1="184.67529" y1="23.11111" x2="169.67529" y2="23.11111"/>
      </g>
      <g>
        <path class="cls-1" d="M194.88889,113.88889v22.22222h11.37565a11.11111,11.11111,0,1,0,0-22.22222Zm1.58729,1.5873h9.78836a9.19009,9.19009,0,0,1,9.265,9.11452q.00168.20467-.00577.40929a9.40936,9.40936,0,0,1-9.29347,9.52381q-.11517.00141-.23033,0h-9.5238Z" transform="translate(-11.32471 -57.88889)"/>
        <path class="cls-2" d="M222.11111,125a2.22222,2.22222,0,1,1-2.22221-2.22222h0A2.22221,2.22221,0,0,1,222.11111,125Z" transform="translate(-11.32471 -57.88889)"/>
        <line class="cls-3" x1="210.67529" y1="67.11111" x2="219.67529" y2="67.11111"/>
        <line class="cls-3" x1="184.67529" y1="61.11111" x2="169.67529" y2="61.11111"/>
        <line class="cls-3" x1="184.67529" y1="73.11111" x2="169.67529" y2="73.11111"/>
      </g>
      <g>
        <path class="cls-1" d="M128.88889,57.88889V80.11111h11.37565a11.11111,11.11111,0,0,0,0-22.22222Zm1.58729,1.5873h9.78836a9.19008,9.19008,0,0,1,9.265,9.11451q.00168.20469-.00577.4093a9.40935,9.40935,0,0,1-9.29347,9.52381q-.11517.00141-.23033,0h-9.5238Z" transform="translate(-11.32471 -57.88889)"/>
        <path class="cls-2" d="M156.11111,69a2.22222,2.22222,0,1,1-2.22221-2.22222h0A2.22221,2.22221,0,0,1,156.11111,69Z" transform="translate(-11.32471 -57.88889)"/>
        <line class="cls-3" x1="144.67529" y1="11.11111" x2="153.67529" y2="11.11111"/>
        <line class="cls-3" x1="118.67529" y1="5.11111" x2="103.67529" y2="5.11111"/>
        <line class="cls-3" x1="118.67529" y1="17.11111" x2="103.67529" y2="17.11111"/>
      </g>
      <g>
        <path class="cls-1" d="M128.88889,119.88889v22.22222h11.37565a11.11111,11.11111,0,1,0,0-22.22222Zm1.58729,1.5873h9.78836a9.19009,9.19009,0,0,1,9.265,9.11452q.00168.20468-.00577.40929a9.40936,9.40936,0,0,1-9.29347,9.52381q-.11517.00141-.23033,0h-9.5238Z" transform="translate(-11.32471 -57.88889)"/>
        <path class="cls-2" d="M156.11111,131a2.22222,2.22222,0,1,1-2.22221-2.22222h0A2.22221,2.22221,0,0,1,156.11111,131Z" transform="translate(-11.32471 -57.88889)"/>
        <line class="cls-3" x1="144.67529" y1="73.11111" x2="153.67529" y2="73.11111"/>
        <line class="cls-3" x1="118.67529" y1="67.11111" x2="103.67529" y2="67.11111"/>
        <line class="cls-3" x1="118.67529" y1="79.11111" x2="103.67529" y2="79.11111"/>
      </g>
    </g>
    <g>
      <polyline class="cls-4" points="169.675 23.111 169.675 33.111 219.675 51.111 219.675 67.111 234.675 67.111"/>
      <polyline class="cls-4" points="234.675 17.111 219.675 17.111 219.675 33.111 169.675 51.111 169.675 61.111"/>
      <line class="cls-4" x1="169.67529" y1="11.11111" x2="153.67529" y2="11.11111"/>
      <line class="cls-4" x1="169.67529" y1="73.11111" x2="153.67529" y2="73.11111"/>
      <circle class="cls-1" cx="219.67529" cy="17.11111" r="2.5"/>
      <circle class="cls-1" cx="219.67529" cy="67.11111" r="2.5"/>
      <path class="cls-1" d="M257.42969,78.06787a6.75733,6.75733,0,0,1,.20605.65625,3.13477,3.13477,0,0,0,.39356,1.01367.54191.54191,0,0,0,.42773.23438.4587.4587,0,0,0,.38379-.25049,1.67182,1.67182,0,0,0,.17285-.8335h.35156a2.48069,2.48069,0,0,1-.41015,1.55713,1.29255,1.29255,0,0,1-1.05469.49951,1.18873,1.18873,0,0,1-.98144-.48339,3.76453,3.76453,0,0,1-.501-1.8545,5.80646,5.80646,0,0,1-.63281.123,4.35469,4.35469,0,0,1-.58008.041,3.78063,3.78063,0,0,1-2.0127-.56543,3.97615,3.97615,0,0,1-1.46484-1.623,5.15931,5.15931,0,0,1-.542-2.3877,4.60044,4.60044,0,0,1,1.22461-3.22265,3.60138,3.60138,0,0,1,2.76562-1.21289,3.79658,3.79658,0,0,1,2.02149.55957,4.03343,4.03343,0,0,1,1.46484,1.60547,4.861,4.861,0,0,1-1.23242,6.14355Zm-.291-.80859a4.90157,4.90157,0,0,0,.46289-1.294,8.67836,8.67836,0,0,0,.14649-1.74463,6.82134,6.82134,0,0,0-.32227-2.333,2.60794,2.60794,0,0,0-.9082-1.26758,2.25709,2.25709,0,0,0-1.32422-.40967,2.199,2.199,0,0,0-1.30371.40967,2.64915,2.64915,0,0,0-.90234,1.27929,6.93472,6.93472,0,0,0-.3252,2.36231,7.37372,7.37372,0,0,0,.19336,1.80908,5.303,5.303,0,0,0,.60351,1.43457q-.01172-.2688-.01171-.43262a1.618,1.618,0,0,1,.46582-1.19189,1.64917,1.64917,0,0,1,1.22168-.46729,1.74772,1.74772,0,0,1,1.27734.50831,3.66449,3.66449,0,0,1,.72653,1.3374Zm-.7207.74414a3.38965,3.38965,0,0,0-.27539-1.5293,1.09527,1.09527,0,0,0-1.02539-.60937,1.20437,1.20437,0,0,0-1.25415,1.15248q-.0023.05361.00024.10728a1.55782,1.55782,0,0,0,.4336,1.043,2.15861,2.15861,0,0,0,.873.18164,2.42144,2.42144,0,0,0,.66211-.08789A2.30713,2.30713,0,0,0,256.418,78.00342Z" transform="translate(-11.32471 -57.88889)"/>
      <path class="cls-1" d="M257.42969,129.06836a6.75733,6.75733,0,0,1,.20605.65625,3.13485,3.13485,0,0,0,.39356,1.01367.54191.54191,0,0,0,.42773.23438.45924.45924,0,0,0,.38379-.251,1.66957,1.66957,0,0,0,.17285-.833h.35156a2.479,2.479,0,0,1-.41015,1.55664,1.293,1.293,0,0,1-1.05469.5,1.18967,1.18967,0,0,1-.98144-.48436,3.76012,3.76012,0,0,1-.501-1.85353,5.80646,5.80646,0,0,1-.63281.123,4.353,4.353,0,0,1-.58008.041,3.78161,3.78161,0,0,1-2.0127-.56639,3.97624,3.97624,0,0,1-1.46484-1.623,5.15521,5.15521,0,0,1-.542-2.38671,4.60042,4.60042,0,0,1,1.22461-3.22265,3.60134,3.60134,0,0,1,2.76562-1.21289,3.79574,3.79574,0,0,1,2.02149.55859,4.03336,4.03336,0,0,1,1.46484,1.60547,4.86181,4.86181,0,0,1-1.23242,6.14453Zm-.291-.8086a4.90838,4.90838,0,0,0,.46289-1.29493,8.667,8.667,0,0,0,.14649-1.74414,6.81984,6.81984,0,0,0-.32227-2.333,2.61029,2.61029,0,0,0-.9082-1.26757,2.25993,2.25993,0,0,0-1.32422-.40918,2.20182,2.20182,0,0,0-1.30371.40918,2.65175,2.65175,0,0,0-.90234,1.27928,6.93257,6.93257,0,0,0-.3252,2.36232,7.364,7.364,0,0,0,.19336,1.80859,5.31538,5.31538,0,0,0,.60351,1.43555q-.01172-.26954-.01171-.4336a1.61842,1.61842,0,0,1,.46582-1.1914,1.64885,1.64885,0,0,1,1.22168-.4668,1.7474,1.7474,0,0,1,1.27734.50782,3.66747,3.66747,0,0,1,.72653,1.33789Zm-.7207.74414a3.38964,3.38964,0,0,0-.27539-1.52929,1.0953,1.0953,0,0,0-1.02539-.60939,1.2044,1.2044,0,0,0-1.25415,1.15252q-.0023.05361.00024.10726a1.55784,1.55784,0,0,0,.4336,1.043,2.15877,2.15877,0,0,0,.873.18164,2.42182,2.42182,0,0,0,.66211-.08789A2.30716,2.30716,0,0,0,256.418,129.0039Z" transform="translate(-11.32471 -57.88889)"/>
      <line class="cls-5" x1="240.84912" y1="61.61111" x2="246.84912" y2="61.61111"/>
      <line class="cls-4" x1="103.67529" y1="17.11111" x2="103.67529" y2="67.11111"/>
      <line class="cls-4" x1="103.67529" y1="42.11111" x2="88.67529" y2="42.11111"/>
      <line class="cls-4" x1="103.67529" y1="5.11111" x2="88.67529" y2="5.11111"/>
      <line class="cls-4" x1="103.67529" y1="79.11111" x2="88.67529" y2="79.11111"/>
    </g>
    <g>
      <path class="cls-3" d="M91.194,137H100m-36,0H50" transform="translate(-11.32471 -57.88889)"/>
      <path class="cls-1" d="M63.29824,124.54607v24.90786l1.1985-.59056,22.80615-11.11648v-1.49378L64.49674,125.13663Zm1.66747,2.6749L85.04486,137l-20.07915,9.779Z" transform="translate(-11.32471 -57.88889)"/>
      <path class="cls-2" d="M91.10681,137a2.2233,2.2233,0,1,1-2.22329-2.2233A2.2233,2.2233,0,0,1,91.10681,137Z" transform="translate(-11.32471 -57.88889)"/>
    </g>
  </g>
  <g id="Layer_2" data-name="Layer 2">
    <line class="cls-4" x1="88.67529" y1="42.11111" x2="18.67529" y2="42.11111"/>
    <line class="cls-4" x1="88.67529" y1="5.11111" x2="18.67529" y2="5.11111"/>
    <line class="cls-4" x1="38.67529" y1="79.11111" x2="38.67529" y2="5.11111"/>
    <circle class="cls-1" cx="38.67529" cy="5.11111" r="2.5"/>
    <path class="cls-1" d="M22.34912,67.08984H17.95947v-.37158h.2876c.92383,0,.94775-.13232.94775-.564V59.834c0-.43212-.02392-.564-.94775-.564h-.2876v-.37158h4.38965A3.93543,3.93543,0,0,1,26.019,63.06006,3.852,3.852,0,0,1,22.34912,67.08984Zm1.84668-6.7041A2.58646,2.58646,0,0,0,22.01318,59.27H20.814c-.564,0-.58789.084-.58789.48v6.48828c0,.396.02393.48.58789.48H22.0249a2.63081,2.63081,0,0,0,2.13526-1.01953,4.117,4.117,0,0,0,.65918-2.63867A4.638,4.638,0,0,0,24.1958,60.38574Z" transform="translate(-11.32471 -57.88889)"/>
    <g>
      <path class="cls-1" d="M11.32471,94.42383h6.86718l.16407,2.92383h-.39258a3.856,3.856,0,0,0-.74024-1.9336,1.70871,1.70871,0,0,0-1.31933-.55078H14.207a.406.406,0,0,0-.31006.11133.47871.47871,0,0,0-.10547.33984v3.08789h.74219a1.21908,1.21908,0,0,0,.9668-.42773,2.07282,2.07282,0,0,0,.40039-1.3125h.4043v4.01367h-.4043a2.26075,2.26075,0,0,0-.40625-1.42676,1.29179,1.29179,0,0,0-1.02539-.43066H13.7915v3.44531a.34439.34439,0,0,0,.126.28711.68065.68065,0,0,0,.418.09961h1.34033q2.18262,0,2.51611-2.78906h.42188l-.14648,3.22851H11.32471v-.43945h.59179a.75687.75687,0,0,0,.48633-.12012.43315.43315,0,0,0,.14063-.34863V95.31445a.43584.43584,0,0,0-.123-.33984.56455.56455,0,0,0-.38672-.11133h-.709Z" transform="translate(-11.32471 -57.88889)"/>
      <path class="cls-1" d="M19.59814,97.59961l1.82227-.11133a9.04415,9.04415,0,0,1,.16406,1.207,2.60984,2.60984,0,0,1,.87012-.89648A2.17035,2.17035,0,0,1,23.58838,97.5a1.79835,1.79835,0,0,1,.91406.21387,1.50444,1.50444,0,0,1,.5918.67676,2.36186,2.36186,0,0,1,.22265,1.0371v2.67188a.56232.56232,0,0,0,.13477.4248.65224.65224,0,0,0,.45117.126h.38672v.43945H23.395v-.43945h.27539a.88164.88164,0,0,0,.53906-.12305.44626.44626,0,0,0,.15235-.36914V99.80859a2.16565,2.16565,0,0,0-.23438-1.13671,1.09375,1.09375,0,0,0-.99609-.52735,1.37816,1.37816,0,0,0-1.10449.5332,2.10319,2.10319,0,0,0-.44239,1.38868v2.0332a.55482.55482,0,0,0,.1377.4248.66421.66421,0,0,0,.4541.126h.38086v.43945H19.65088v-.43945h.38086a.69628.69628,0,0,0,.43652-.11719.35836.35836,0,0,0,.14942-.293V98.69531a.70288.70288,0,0,0-.19043-.5332.76329.76329,0,0,0-.54786-.18164h-.28125Z" transform="translate(-11.32471 -57.88889)"/>
    </g>
  </g>
</svg>
