<svg id="Layer_1" data-name="Layer 1" xmlns="http://www.w3.org/2000/svg" viewBox="0 0 246.25038 91.56503">
  <defs>
    <style>
      .cls-1 {
        fill: #8ff4dd;
      }

      .cls-2, .cls-3, .cls-4, .cls-5 {
        fill: none;
        stroke: #8ff4dd;
      }

      .cls-2 {
        stroke-width: 1.5px;
      }

      .cls-3, .cls-4 {
        stroke-width: 2px;
      }

      .cls-4 {
        stroke-linecap: square;
      }

      .cls-4, .cls-5 {
        stroke-miterlimit: 10;
      }

      .cls-5 {
        stroke-width: 0.5px;
      }
    </style>
  </defs>
  <title>DLatchLogicDiagram</title>
  <g>
    <g>
      <g>
        <path class="cls-1" d="M183.56418,6V28.22221h11.37565a11.11111,11.11111,0,1,0,0-22.22222Zm1.58729,1.5873h9.78836a9.19007,9.19007,0,0,1,9.265,9.11451q.00168.20469-.00577.4093a9.40936,9.40936,0,0,1-9.29347,9.52381q-.11517.00141-.23033,0h-9.5238Z" transform="translate(0 0)"/>
        <path class="cls-2" d="M210.7864,17.11111a2.22222,2.22222,0,1,1-2.22221-2.22222h0a2.2222,2.2222,0,0,1,2.22221,2.22221Z" transform="translate(0 0)"/>
        <line class="cls-3" x1="210.67529" y1="17.11111" x2="219.67529" y2="17.11111"/>
        <line class="cls-3" x1="184.67529" y1="11.11111" x2="169.67529" y2="11.11111"/>
        <line class="cls-3" x1="184.67529" y1="23.11111" x2="169.67529" y2="23.11111"/>
      </g>
      <g>
        <path class="cls-1" d="M183.56418,56V78.22223h11.37565a11.11112,11.11112,0,1,0,0-22.22223Zm1.58729,1.58731h9.78836a9.19008,9.19008,0,0,1,9.265,9.11451q.00168.20469-.00577.40929a9.40935,9.40935,0,0,1-9.29347,9.5238q-.11517.00141-.23033,0h-9.5238Z" transform="translate(0 0)"/>
        <path class="cls-2" d="M210.7864,67.11111a2.22222,2.22222,0,1,1-2.22221-2.22222h0a2.2222,2.2222,0,0,1,2.22221,2.22221Z" transform="translate(0 0)"/>
        <line class="cls-3" x1="210.67529" y1="67.11111" x2="219.67529" y2="67.11111"/>
        <line class="cls-3" x1="184.67529" y1="61.11111" x2="169.67529" y2="61.11111"/>
        <line class="cls-3" x1="184.67529" y1="73.11111" x2="169.67529" y2="73.11111"/>
      </g>
      <g>
        <path class="cls-1" d="M117.56418,0V22.22222h11.37565a11.11111,11.11111,0,1,0,0-22.22222Zm1.58729,1.5873h9.78836a9.19007,9.19007,0,0,1,9.265,9.11451q.00168.20469-.00577.4093a9.40935,9.40935,0,0,1-9.29347,9.52381q-.11517.00141-.23033,0h-9.5238Z" transform="translate(0 0)"/>
        <path class="cls-2" d="M144.7864,11.11111a2.22222,2.22222,0,1,1-2.22221-2.22222h0a2.2222,2.2222,0,0,1,2.22221,2.22221Z" transform="translate(0 0)"/>
        <line class="cls-3" x1="144.67529" y1="11.11111" x2="153.67529" y2="11.11111"/>
        <line class="cls-3" x1="118.67529" y1="5.11111" x2="103.67529" y2="5.11111"/>
        <line class="cls-3" x1="118.67529" y1="17.11111" x2="103.67529" y2="17.11111"/>
      </g>
      <g>
        <path class="cls-1" d="M117.56418,62V84.22223h11.37565a11.11112,11.11112,0,1,0,0-22.22223Zm1.58729,1.58731h9.78836a9.19008,9.19008,0,0,1,9.265,9.11451q.00168.20469-.00577.40929a9.40935,9.40935,0,0,1-9.29347,9.5238q-.11517.00141-.23033,0h-9.5238Z" transform="translate(0 0)"/>
        <path class="cls-2" d="M144.7864,73.11111a2.22222,2.22222,0,1,1-2.22222-2.22221h0a2.22221,2.22221,0,0,1,2.22221,2.22221Z" transform="translate(0 0)"/>
        <line class="cls-3" x1="144.67529" y1="73.11111" x2="153.67529" y2="73.11111"/>
        <line class="cls-3" x1="118.67529" y1="67.11111" x2="103.67529" y2="67.11111"/>
        <line class="cls-3" x1="118.67529" y1="79.11111" x2="103.67529" y2="79.11111"/>
      </g>
    </g>
    <g>
      <polyline class="cls-4" points="169.675 23.111 169.675 33.111 219.675 51.111 219.675 67.111 234.675 67.111"/>
      <polyline class="cls-4" points="234.675 17.111 219.675 17.111 219.675 33.111 169.675 51.111 169.675 61.111"/>
      <line class="cls-4" x1="169.67529" y1="11.11111" x2="153.67529" y2="11.11111"/>
      <line class="cls-4" x1="169.67529" y1="73.11111" x2="153.67529" y2="73.11111"/>
      <circle class="cls-1" cx="219.67529" cy="17.11111" r="2.5"/>
      <circle class="cls-1" cx="219.67529" cy="67.11111" r="2.5"/>
      <line class="cls-4" x1="103.67529" y1="17.11111" x2="103.67529" y2="67.11111"/>
      <line class="cls-4" x1="103.67529" y1="42.11111" x2="88.67529" y2="42.11111"/>
      <line class="cls-4" x1="103.67529" y1="5.11111" x2="88.67529" y2="5.11111"/>
      <line class="cls-4" x1="103.67529" y1="79.11111" x2="88.67529" y2="79.11111"/>
    </g>
    <g>
      <path class="cls-3" d="M79.86929,79.11111h8.806m-36,0h-14" transform="translate(0 0)"/>
      <path class="cls-1" d="M51.97353,66.65718V91.565l1.1985-.59056L75.97818,79.858V78.36421L53.172,67.24774ZM53.641,69.33207l20.07915,9.779L53.641,88.89012Z" transform="translate(0 0)"/>
      <path class="cls-2" d="M79.7821,79.11111a2.2233,2.2233,0,1,1-2.2233-2.2233h0A2.2233,2.2233,0,0,1,79.7821,79.11111Z" transform="translate(0 0)"/>
    </g>
  </g>
  <g>
    <line class="cls-4" x1="88.67529" y1="42.11111" x2="18.67529" y2="42.11111"/>
    <line class="cls-4" x1="88.67529" y1="5.11111" x2="18.67529" y2="5.11111"/>
    <line class="cls-4" x1="38.67529" y1="79.11111" x2="38.67529" y2="5.11111"/>
    <circle class="cls-1" cx="38.67529" cy="5.11111" r="2.5"/>
    <path class="cls-1" d="M11.02441,9.201H6.63476V8.82937h.2876c.92383,0,.94775-.13231.94775-.564V1.94511c0-.43212-.02392-.564-.94775-.564h-.2876V1.00953h4.38965a3.93543,3.93543,0,0,1,3.66988,4.16164,3.852,3.852,0,0,1-3.66581,4.02959Zm1.84668-6.7041a2.58649,2.58649,0,0,0-2.18262-1.11574H9.48929c-.564,0-.58789.084-.58789.48V8.34939c0,.396.02393.48.58789.48h1.2109a2.63081,2.63081,0,0,0,2.13526-1.01954,4.117,4.117,0,0,0,.65918-2.63867A4.638,4.638,0,0,0,12.87109,2.49685Z" transform="translate(0 0)"/>
    <g>
      <path class="cls-1" d="M0,36.53494H6.86718l.16407,2.92383H6.63867a3.85594,3.85594,0,0,0-.74024-1.9336,1.7087,1.7087,0,0,0-1.31933-.55079H2.88229a.40605.40605,0,0,0-.31006.11133.47872.47872,0,0,0-.10547.33985v3.08789H3.209a1.219,1.219,0,0,0,.9668-.42773,2.07281,2.07281,0,0,0,.40039-1.3125h.4043v4.01367h-.4043a2.26074,2.26074,0,0,0-.40625-1.42676,1.29175,1.29175,0,0,0-1.02539-.43065H2.46679v3.44531a.34436.34436,0,0,0,.126.28711.68066.68066,0,0,0,.418.09961H4.35112q2.18262,0,2.51611-2.78906h.42188L7.14263,45.201H0V44.7615H.59179a.75684.75684,0,0,0,.48633-.12012.43316.43316,0,0,0,.14063-.34863V37.42556a.43585.43585,0,0,0-.123-.33984A.56454.56454,0,0,0,.709,36.97439H0Z" transform="translate(0 0)"/>
      <path class="cls-1" d="M8.27343,39.71072l1.82227-.11133a9.04412,9.04412,0,0,1,.16406,1.207,2.60985,2.60985,0,0,1,.87012-.89647,2.17033,2.17033,0,0,1,1.13379-.29881,1.79838,1.79838,0,0,1,.91406.21387,1.50441,1.50441,0,0,1,.5918.67676,2.36177,2.36177,0,0,1,.22265,1.0371v2.67188a.56236.56236,0,0,0,.13477.4248.65222.65222,0,0,0,.45117.126h.38672V45.201H12.07029v-.43945h.27539a.88162.88162,0,0,0,.53906-.123.44624.44624,0,0,0,.15235-.36914V41.9197a2.16572,2.16572,0,0,0-.23438-1.13671,1.09376,1.09376,0,0,0-.99609-.52735,1.37817,1.37817,0,0,0-1.10449.53321,2.10318,2.10318,0,0,0-.44239,1.38867v2.03321a.5548.5548,0,0,0,.1377.42479.66413.66413,0,0,0,.4541.126h.38086V45.201H8.32617v-.43946H8.707a.69628.69628,0,0,0,.43652-.11718.35838.35838,0,0,0,.14942-.293V40.80642a.70288.70288,0,0,0-.19043-.5332.76329.76329,0,0,0-.54786-.18164H8.27343Z" transform="translate(0 0)"/>
    </g>
  </g>
  <line class="cls-5" x1="238.51583" y1="60.4653" x2="246.034" y2="60.4653"/>
  <path class="cls-1" d="M244.83186,23.41149c-1.08219,0-1.23859-1.03375-1.43094-2.25986a3.69591,3.69591,0,0,1-1.12993.18061,4.14075,4.14075,0,0,1-3.93164-4.32876,3.94972,3.94972,0,1,1,7.85077,0,4.3431,4.3431,0,0,1-2.4404,4.00431c.28853.84139.56536,1.28631,1.17838,1.28631a1.13663,1.13663,0,0,0,1.094-1.15416c.01175-.08369.01175-.16885.10792-.16885.12041,0,.12041.10865.12041.22906C246.25032,21.30876,246.23857,23.41149,244.83186,23.41149Zm-2.57263-10.53131c-1.2026,0-2.82591,1.11818-2.82591,4.11149,0,2.59759,1.2026,3.63128,2.09246,3.94411a1.165,1.165,0,0,1-.19236-.61378.97186.97186,0,0,1,.93244-1.00974l.01688-.00053c.78189,0,1.11818.70924,1.323,1.31128a4.186,4.186,0,0,0,1.49042-3.63128C245.09616,14.03434,243.52131,12.88018,242.25923,12.88018Zm.0235,6.67238a.73485.73485,0,0,0-.70923.75768.71731.71731,0,0,0,.67552.75679l.022.0009a2.30589,2.30589,0,0,0,1.06972-.27752C243.20854,20.11788,242.96846,19.55256,242.28273,19.55256Z" transform="translate(0 0)"/>
  <path class="cls-1" d="M244.82426,73.75731c-1.0822,0-1.23859-1.03375-1.43095-2.25986a3.69617,3.69617,0,0,1-1.12993.18062,4.14077,4.14077,0,0,1-3.93164-4.32877,3.94972,3.94972,0,1,1,7.85077,0,4.3431,4.3431,0,0,1-2.4404,4.00431c.28853.84139.56536,1.28631,1.17838,1.28631a1.13665,1.13665,0,0,0,1.094-1.15416c.01174-.08369.01174-.16885.10791-.16885.12041,0,.12041.10865.12041.22906C246.24271,71.65458,246.231,73.75731,244.82426,73.75731ZM242.25162,63.226c-1.2026,0-2.82591,1.11818-2.82591,4.11149,0,2.59759,1.20261,3.63128,2.09246,3.94411a1.16508,1.16508,0,0,1-.19236-.61378.97186.97186,0,0,1,.93245-1.00974l.01687-.00053c.78189,0,1.11818.70924,1.323,1.31128a4.186,4.186,0,0,0,1.49042-3.63128C245.08855,64.38016,243.5137,63.226,242.25162,63.226Zm.0235,6.67238a.73486.73486,0,0,0-.70923.75768.71731.71731,0,0,0,.67552.75679l.022.0009a2.30589,2.30589,0,0,0,1.06972-.27752C243.20093,70.4637,242.96085,69.89838,242.27512,69.89838Z" transform="translate(0 0)"/>
</svg>
