<svg id="Layer_1" data-name="Layer 1" xmlns="http://www.w3.org/2000/svg" viewBox="0 0 50 32">
  <defs>
    <style>
      .cls-1, .cls-2 {
        fill: none;
        stroke: #8ff4dd;
        stroke-miterlimit: 10;
      }

      .cls-1 {
        stroke-width: 2px;
      }

      .cls-2 {
        stroke-width: 0.5px;
      }

      .cls-3 {
        fill: #8ff4dd;
      }
    </style>
  </defs>
  <title>DLatch</title>
  <rect class="cls-1" x="10" y="1" width="30" height="30"/>
  <line class="cls-1" x1="10" y1="6" y2="6"/>
  <line class="cls-1" x1="10" y1="26" y2="26"/>
  <line class="cls-1" x1="50" y1="6" x2="40" y2="6"/>
  <line class="cls-1" x1="50" y1="26" x2="40" y2="26"/>
  <line class="cls-2" x1="32.5" y1="20.5" x2="37.5" y2="20.5"/>
  <path class="cls-3" d="M36.43555,8.81055a4.3123,4.3123,0,0,1,.13768.4375,2.09564,2.09564,0,0,0,.26271.67578.36037.36037,0,0,0,.28515.15625.30578.30578,0,0,0,.25586-.167,1.11558,1.11558,0,0,0,.11524-.55567h.23436a1.65788,1.65788,0,0,1-.27342,1.03809.85994.85994,0,0,1-.70314.333.79208.79208,0,0,1-.65429-.32227,2.50972,2.50972,0,0,1-.334-1.23633,3.76656,3.76656,0,0,1-.42189.082,2.854,2.854,0,0,1-.38671.02735,2.51884,2.51884,0,0,1-1.34179-.377,2.653,2.653,0,0,1-.97657-1.082,3.43561,3.43561,0,0,1-.36133-1.59179A3.06878,3.06878,0,0,1,33.08981,4.08a2.40147,2.40147,0,0,1,1.84375-.8086,2.53253,2.53253,0,0,1,1.34766.37305,2.69012,2.69012,0,0,1,.97656,1.07031,3.23727,3.23727,0,0,1-.82226,4.09571Zm-.19336-.53907a3.28207,3.28207,0,0,0,.30859-.8623,5.769,5.769,0,0,0,.09766-1.16309,4.542,4.542,0,0,0-.21485-1.55566,1.73837,1.73837,0,0,0-.60546-.84473,1.50451,1.50451,0,0,0-.88283-.27343,1.46513,1.46513,0,0,0-.86914.27343,1.76323,1.76323,0,0,0-.60156.85253,4.626,4.626,0,0,0-.2168,1.57521,4.91833,4.91833,0,0,0,.12891,1.206,3.52982,3.52982,0,0,0,.40234.95607c-.00488-.11963-.00781-.21534-.00781-.2881a1.079,1.079,0,0,1,.31055-.79492,1.1,1.1,0,0,1,.81445-.31152,1.16447,1.16447,0,0,1,.85156.33886A2.45229,2.45229,0,0,1,36.24219,8.27148Zm-.48047.4961a2.25521,2.25521,0,0,0-.18359-1.01953.72959.72959,0,0,0-.68361-.40625.80292.80292,0,0,0-.8361.76832q-.00151.03575.00017.07152a1.04033,1.04033,0,0,0,.28907.69531,1.44051,1.44051,0,0,0,.582.1211,1.612,1.612,0,0,0,.4414-.0586A1.53232,1.53232,0,0,0,35.76172,8.76758Z"/>
  <path class="cls-3" d="M36.43555,27.31055a4.3123,4.3123,0,0,1,.13768.4375,2.09564,2.09564,0,0,0,.26271.67578.36037.36037,0,0,0,.28515.15625.30578.30578,0,0,0,.25586-.167,1.11558,1.11558,0,0,0,.11524-.55567h.23436a1.65788,1.65788,0,0,1-.27342,1.03809.85994.85994,0,0,1-.70314.333.79208.79208,0,0,1-.65429-.32227,2.50972,2.50972,0,0,1-.334-1.23633,3.76656,3.76656,0,0,1-.42189.082,2.854,2.854,0,0,1-.38671.02735,2.51884,2.51884,0,0,1-1.34179-.377,2.653,2.653,0,0,1-.97657-1.082,3.43561,3.43561,0,0,1-.36133-1.59179,3.06878,3.06878,0,0,1,.8164-2.14844,2.40154,2.40154,0,0,1,1.84375-.8086,2.53253,2.53253,0,0,1,1.34766.373,2.69012,2.69012,0,0,1,.97656,1.07031,3.23726,3.23726,0,0,1-.82226,4.09571Zm-.19336-.53907a3.28207,3.28207,0,0,0,.30859-.8623,5.769,5.769,0,0,0,.09766-1.16309,4.542,4.542,0,0,0-.21485-1.55566,1.73846,1.73846,0,0,0-.60546-.84473,1.50451,1.50451,0,0,0-.88283-.27343,1.46526,1.46526,0,0,0-.86914.27343,1.76326,1.76326,0,0,0-.60156.85254,4.626,4.626,0,0,0-.2168,1.57521,4.91833,4.91833,0,0,0,.12891,1.206,3.52976,3.52976,0,0,0,.40234.95606c-.00488-.11962-.00781-.21534-.00781-.28809a1.079,1.079,0,0,1,.31055-.79492,1.1,1.1,0,0,1,.81445-.31152,1.16443,1.16443,0,0,1,.85156.33886A2.45224,2.45224,0,0,1,36.24219,26.77148Zm-.48047.4961a2.25521,2.25521,0,0,0-.18359-1.01953.72959.72959,0,0,0-.68361-.40625.80292.80292,0,0,0-.8361.76832q-.00151.03575.00017.07152a1.04033,1.04033,0,0,0,.28907.69531,1.44051,1.44051,0,0,0,.582.1211,1.612,1.612,0,0,0,.4414-.0586A1.53232,1.53232,0,0,0,35.76172,27.26758Z"/>
  <path class="cls-3" d="M15.23975,8.73036H12.31348v-.248h.19189c.61572,0,.63184-.08789.63184-.376V3.89345c0-.28809-.01612-.376-.63184-.376h-.19189v-.248h2.92627a2.62354,2.62354,0,0,1,2.44677,2.77441A2.56821,2.56821,0,0,1,15.23975,8.73036Zm1.23144-4.46972a1.72439,1.72439,0,0,0-1.45508-.74317h-.7998c-.37549,0-.3916.05567-.3916.31934V8.163c0,.26367.01611.31934.3916.31934h.80762a1.75265,1.75265,0,0,0,1.42334-.67969,2.74307,2.74307,0,0,0,.43994-1.75879A3.09261,3.09261,0,0,0,16.47119,4.26064Z"/>
  <g>
    <path class="cls-3" d="M16.9458,28.578H12.332V28.33h.1919c.61572,0,.63183-.08789.63183-.376V23.76455c0-.28809-.01611-.376-.63183-.376H12.332v-.24805H16.8335l.22412,1.79981h-.19971c-.12793-1.11133-.34375-1.55176-1.56738-1.55176H14.25928c-.376,0-.39209.05664-.39209.32031v1.91895h.71972c.77588,0,.86377-.248.86377-.93555h.19971v2.11914h-.19971c0-.67969-.08789-.93555-.86377-.93555h-.71972v2.13477c0,.26367.01611.31934.39209.31934h1.06347c1.375,0,1.55909-.584,1.75879-1.81446h.2002Z"/>
    <path class="cls-3" d="M20.89844,28.55361l-.90381.02441V28.33c.53564,0,.624,0,.624-.35938V26.10732c0-.45606-.08838-.8877-.59179-.8877a1.16815,1.16815,0,0,0-1.07959,1.2793V27.9706c0,.35938.08789.35938.62353.35938v.248l-.89551-.02441L17.772,28.578V28.33c.53565,0,.62354,0,.62354-.35938V25.828c0-.39258-.064-.44824-.62354-.44824v-.248l1.12744-.08789v.83985a1.25989,1.25989,0,0,1,1.18311-.83985,1.06788,1.06788,0,0,1,.83984.2959c.24756.28809.24756.53613.24756,1.22363v1.52735c.0083.23926.208.23926.624.23926v.248Z"/>
  </g>
</svg>
