<?xml version="1.0" encoding="utf-8"?>
<!-- Generator: Adobe Illustrator 23.0.3, SVG Export Plug-In . SVG Version: 6.00 Build 0)  -->
<svg version="1.1" id="Layer_1" xmlns="http://www.w3.org/2000/svg" xmlns:xlink="http://www.w3.org/1999/xlink" x="0px" y="0px"
	 viewBox="0 0 167 63.38903" style="enable-background:new 0 0 167 63.38903;" xml:space="preserve">
<style type="text/css">
	.st0{fill:none;stroke:#8FF4DD;stroke-width:2;stroke-linecap:round;stroke-linejoin:round;}
	.st1{fill:none;stroke:#8FF4DD;stroke-width:2;stroke-linecap:round;}
	.st2{fill:#8FF4DD;stroke:#8FF4DD;stroke-width:2;}
	.st3{fill:none;stroke:#FD1D53;}
	.st4{fill:#FD1D53;}
	.st5{fill:#8FF4DD;}
	.st6{fill:none;stroke:#8FF4DD;stroke-width:2;stroke-linecap:square;}
</style>
<title>DotConventionSeries</title>
<circle class="st0" cx="163" cy="33.28107" r="3"/>
<g>
	<path id="path1132-3" class="st0" d="M21,33.28107H7"/>
	<circle class="st0" cx="4" cy="33.28107" r="3"/>
	<g>
		<path class="st0" d="M21,33.28107h7.16667c-0.00223-2.46227,1.99202-4.46014,4.45428-4.46237s4.46014,1.99202,4.46237,4.45429
			c0,0.00269,0,0.00539,0,0.00808"/>
		<path class="st1" d="M37.08333,33.28107c-0.0034-2.46227,1.9899-4.46109,4.45218-4.4645
			c2.46227-0.0034,4.46109,1.98991,4.46449,4.45218c0,0.0041,0,0.00821,0,0.01232"/>
		<path class="st1" d="M46,33.28107c0.0034-2.46227,2.00223-4.45558,4.46449-4.45218
			c2.45746,0.0034,4.44879,1.99471,4.45218,4.45218"/>
		<path class="st0" d="M54.91667,33.28107c0-2.46227,1.99606-4.45834,4.45833-4.45834c2.46228,0,4.45834,1.99606,4.45834,4.45834H96
			"/>
	</g>
	<g>
		<path class="st0" d="M96,33.28107h7.16666c-0.00223-2.46227,1.99203-4.46014,4.45428-4.46237
			c2.46228-0.00223,4.46014,1.99202,4.46237,4.45429c0,0.00269,0,0.00539,0,0.00808"/>
		<path class="st1" d="M112.08334,33.28107c0.00568-2.46227,2.00635-4.45372,4.46863-4.44804
			c2.45422,0.00567,4.44235,1.9938,4.44803,4.44804"/>
		<path class="st1" d="M121,33.28107c0.00568-2.46227,2.00635-4.45372,4.46863-4.44804
			c2.45422,0.00567,4.44235,1.9938,4.44803,4.44804"/>
		<path class="st0" d="M129.91666,33.28107c-0.00223-2.46227,1.99203-4.46014,4.45428-4.46237
			c2.46228-0.00223,4.46014,1.99202,4.46237,4.45429c0,0.00269,0,0.00539,0,0.00808H146"/>
	</g>
	<path id="path1132-4" class="st0" d="M146,33.28107h14"/>
	<circle class="st2" cx="146" cy="27.28107" r="1"/>
	<circle class="st2" cx="21" cy="27.28107" r="1"/>
	<g>
		<path class="st3" d="M46.06969,22.77808c1.19086-6.41481,17.49373-11.497,37.43031-11.497
			c19.93219,0,36.2323,5.07995,37.4295,11.49274"/>
		<polygon class="st4" points="49.63901,21.42583 49.28799,20.81882 46.302,22.54882 44.795,19.44283 44.16499,19.74982 
			46.00101,23.53082 		"/>
		<polygon class="st4" points="117.36099,21.42583 117.71201,20.81882 120.698,22.54882 122.20499,19.44283 122.83499,19.74982 
			120.99899,23.53082 		"/>
	</g>
	<path class="st5" d="M16.85547,52.25568c-0.49548,0.00884-0.90431-0.38566-0.91316-0.88113
		c-0.00046-0.02613,0.00021-0.05227,0.00203-0.07834c0.01634-0.28746,0.08971-0.56879,0.21582-0.82764l0.44336-1.187
		l0.36035-0.99561c0.11804-0.27423,0.19093-0.56577,0.21582-0.86328c0-0.27588-0.13184-0.33594-0.26367-0.33594
		c-0.69629,0-1.00781,1.11524-1.11623,1.51123c-0.04785,0.16749-0.05957,0.1919-0.21582,0.1919
		c-0.05957,0-0.17969,0-0.17969-0.12012c0-0.06006,0.4082-1.84717,1.53516-1.84717c0.48831-0.01009,0.89235,0.37759,0.90244,0.8659
		c0.00064,0.03123-0.00037,0.06246-0.00302,0.09357c-0.00102,0.23146-0.0499,0.46021-0.14355,0.67187l-0.76758,2.05078
		c-0.16032,0.36629-0.26564,0.75428-0.3125,1.15137c0,0.32373,0.168,0.33594,0.26465,0.33594
		c0.69531,0,1.01953-1.15137,1.11523-1.499c0.04785-0.18017,0.04785-0.2041,0.2041-0.2041c0.084,0,0.17969,0,0.17969,0.12012
		C18.37891,50.45686,17.9834,52.25568,16.85547,52.25568z M17.93457,45.55158c-0.28114,0.01614-0.52213-0.19868-0.53827-0.47982
		c-0.00069-0.01192-0.00095-0.02387-0.00079-0.03581c0.02892-0.40934,0.35785-0.73324,0.76758-0.75586
		c0.28087-0.01639,0.52185,0.19801,0.53824,0.47888c0.00072,0.01224,0.00099,0.02449,0.00082,0.03675
		C18.67323,45.20506,18.3443,45.52896,17.93457,45.55158z"/>
	<polyline class="st6" points="11,38.28082 25,38.28082 22,41.28082 	"/>
	<path class="st5" d="M82.85547,52.25568c-0.49548,0.00884-0.90433-0.38566-0.91315-0.88113
		c-0.00049-0.02613,0.00021-0.05227,0.00201-0.07834c0.01636-0.28746,0.08972-0.56879,0.21582-0.82764l0.44336-1.187
		l0.36035-0.99561c0.11804-0.27423,0.19092-0.56577,0.21582-0.86328c0-0.27588-0.13184-0.33594-0.26367-0.33594
		c-0.69629,0-1.00781,1.11524-1.11621,1.51123c-0.04785,0.16749-0.05957,0.1919-0.21582,0.1919
		c-0.05957,0-0.17969,0-0.17969-0.12012c0-0.06006,0.4082-1.84717,1.53516-1.84717c0.48831-0.01009,0.89236,0.37759,0.90244,0.8659
		c0.00064,0.03123-0.00037,0.06246-0.00302,0.09357c-0.00104,0.23146-0.0499,0.46021-0.14355,0.67187l-0.76758,2.05078
		c-0.16034,0.36629-0.26563,0.75428-0.3125,1.15137c0,0.32373,0.168,0.33594,0.26465,0.33594
		c0.69531,0,1.01953-1.15137,1.11523-1.499c0.04785-0.18017,0.04785-0.2041,0.2041-0.2041c0.08401,0,0.17969,0,0.17969,0.12012
		C84.37891,50.45686,83.9834,52.25568,82.85547,52.25568z M83.93457,45.55158c-0.28113,0.01614-0.52213-0.19868-0.53827-0.47982
		c-0.00067-0.01192-0.00095-0.02387-0.00079-0.03581c0.02893-0.40934,0.35785-0.73324,0.76758-0.75586
		c0.28088-0.01639,0.52185,0.19801,0.53824,0.47888c0.00073,0.01224,0.00101,0.02449,0.00082,0.03675
		C84.67322,45.20506,84.3443,45.52896,83.93457,45.55158z"/>
	<polyline class="st6" points="77,38.28082 91,38.28082 88,41.28082 	"/>
	<path class="st5" d="M87.32227,8.19123c-0.44336,0-0.93555-0.03614-1.39063-0.03614c-0.45605,0-0.92383,0.03614-1.36719,0.03614
		c-0.07822,0.01343-0.15253-0.0391-0.16595-0.11733c-0.0015-0.00881-0.0022-0.01773-0.00204-0.02667
		c0-0.22754,0.13184-0.22754,0.32324-0.22754c0.81543,0,0.8877-0.09619,0.9834-0.5039l1.69141-6.78809h-0.01172l-4.47363,7.44776
		c-0.07227,0.13183-0.13184,0.21582-0.28809,0.21582c-0.17969,0-0.17969-0.084-0.2041-0.28809l-0.73145-7.26758H81.6738
		l-1.59473,6.36817c-0.02975,0.09727-0.04617,0.19812-0.04883,0.2998c0,0.18018,0.02441,0.4917,0.70801,0.51611
		c0.14355,0,0.22754,0.01172,0.22754,0.15577c0,0.21582-0.14355,0.21582-0.21582,0.21582c-0.37109,0-0.79099-0.03614-1.1748-0.03614
		c-0.37207,0-0.78027,0.03614-1.13965,0.03614c-0.08401,0-0.15625-0.03614-0.15625-0.144c0-0.21582,0.13184-0.22754,0.22852-0.22754
		c0.54672,0.06361,1.05148-0.30087,1.16309-0.83984l1.53516-6.17627c0.02786-0.073,0.04404-0.14995,0.04785-0.228
		c0-0.2041-0.32422-0.2041-0.69531-0.2041c-0.22852,0-0.32422,0-0.32422-0.144C80.23434,0,80.36618,0,80.55856,0h1.59473
		c0.28809,0,0.31152,0,0.33594,0.26367l0.67188,6.72852l4.07715-6.77637C87.37106,0,87.40625,0,87.67087,0h1.53516
		c0.20313,0,0.2998,0,0.2998,0.15576c0,0.21582-0.1084,0.21582-0.36035,0.21582c-0.75586,0-0.85156,0.09619-0.94727,0.48
		l-1.61914,6.48828c-0.02664,0.08978-0.04269,0.18237-0.04785,0.27588c0,0.10791,0,0.2041,0.69531,0.2041
		c0.24023,0,0.32422,0,0.32422,0.15577C87.55078,8.19123,87.40625,8.19123,87.32227,8.19123z"/>
</g>
<g>
	<path class="st5" d="M55.58594,61.88708c-0.55757,0.02246-1.10007-0.18413-1.50146-0.57178
		c-0.26953,0.43311-0.29395,0.46533-0.29395,0.46533c-0.05713,0.08985-0.06543,0.10645-0.12256,0.10645
		c-0.08984,0-0.08984-0.05713-0.08984-0.1958v-1.63287c0-0.147,0-0.2041,0.10645-0.2041
		c0.04636-0.00706,0.08966,0.02479,0.09673,0.07114c0.00052,0.00344,0.00084,0.00692,0.00093,0.01041
		c-0.01878,0.47223,0.16553,0.9299,0.50635,1.25732c0.36369,0.29575,0.82094,0.45208,1.28957,0.44092
		c0.61804-0.01355,1.10808-0.52555,1.09453-1.14359c-0.00017-0.00797-0.00043-0.01593-0.00078-0.02389
		c0.0036-0.27182-0.08562-0.53674-0.25293-0.751c-0.16895-0.22333-0.41777-0.37259-0.69434-0.4165
		c-0.57031-0.13868-0.9873-0.23682-1.07715-0.26953c-0.82634-0.28282-1.26695-1.18198-0.98413-2.00833
		c0.22015-0.64322,0.82675-1.07376,1.50659-1.06931c0.49883-0.01277,0.97754,0.19671,1.30664,0.57178l0.28516-0.46534
		c0.05762-0.09814,0.06543-0.10644,0.12305-0.10644c0.08984,0,0.08984,0.05713,0.08984,0.19629v1.64062
		c0,0.15528,0,0.1958-0.10645,0.1958c-0.08984,0-0.08984-0.04882-0.09863-0.09765c-0.04883-0.36768-0.22852-1.70655-1.5918-1.70655
		c-0.58937-0.00548-1.07161,0.46786-1.07709,1.05724c-0.00464,0.49966,0.33803,0.93566,0.82465,1.04921l1.04541,0.25293
		c0.73785,0.20405,1.24252,0.88358,1.22461,1.64892c0.03358,0.90388-0.67194,1.66383-1.57582,1.69741
		C55.60832,61.88659,55.59714,61.88689,55.58594,61.88708z"/>
	<path class="st5" d="M59.68359,61.79719c-1.01617-0.02589-1.8196-0.86951-1.79588-1.88574
		c-0.04372-0.98248,0.71588-1.81503,1.69824-1.86133c0.79982-0.01137,1.45741,0.62781,1.4688,1.42764
		c0.00082,0.05759-0.0018,0.11518-0.00784,0.17246c0,0.17139-0.02441,0.17139-0.2041,0.17139h-2.27734
		c-0.02896,0.42276,0.05568,0.84557,0.24512,1.22461c0.19145,0.33003,0.54045,0.53707,0.92188,0.54687
		c0.51404-0.00259,0.96405-0.34576,1.10254-0.84082c0.0166-0.06543,0.03223-0.11426,0.10645-0.11426
		c0.05157-0.00634,0.09851,0.03033,0.10486,0.08191c0.00064,0.00523,0.00085,0.01049,0.00061,0.01575
		C60.89264,61.3622,60.32883,61.8012,59.68359,61.79719z M59.58594,58.2298c-0.27734,0-0.96289,0.2041-1.01172,1.42041h1.93359
		C60.50781,59.33186,60.42676,58.2298,59.58594,58.2298z"/>
	<path class="st5" d="M63.90332,58.95637c-0.18646,0.00716-0.34344-0.13821-0.35062-0.32468
		c-0.00034-0.0088-0.00031-0.0176,0.00003-0.02639c-0.00272-0.13303,0.06982-0.25623,0.1875-0.31836
		c-0.02896-0.00938-0.05966-0.01221-0.08984-0.0083c-0.62109,0-0.96289,0.72656-0.96289,1.53467v1.25732
		c0,0.29395,0.01563,0.38379,0.61914,0.38379h0.17188v0.25293c-0.32617-0.02441-0.70999-0.02441-1.03711-0.02441l-0.92969,0.02441
		v-0.25293c0.54688,0,0.63672,0,0.63672-0.36768v-2.1875c0-0.3999-0.06641-0.457-0.63672-0.457v-0.25342l1.13477-0.08984v0.89795
		c0.10373-0.4858,0.50958-0.84883,1.00391-0.89795c0.30356-0.02712,0.57254,0.19485,0.60352,0.49805
		c0.00931,0.189-0.13638,0.34975-0.32538,0.35904C63.92014,58.95647,63.91171,58.95657,63.90332,58.95637z"/>
	<path class="st5" d="M65.65039,61.68294l-0.89844,0.02441v-0.25293c0.54688,0,0.63672,0,0.63672-0.36768v-2.1958
		c0-0.3999-0.07422-0.44873-0.60352-0.44873v-0.25342l1.14258-0.08984v2.99614c0,0.31836,0.03223,0.35938,0.57129,0.35938v0.25293
		C66.2207,61.69907,65.93555,61.68294,65.65039,61.68294z M65.60941,57.2093c-0.2373-0.00427-0.42877-0.19533-0.43359-0.43261
		c-0.00241-0.24133,0.19125-0.43893,0.43259-0.44135c0.24136-0.00242,0.43896,0.19126,0.44138,0.4326
		c0.00241,0.24133-0.19128,0.43893-0.43262,0.44135C65.61459,57.20931,65.612,57.20932,65.60941,57.2093z"/>
	<path class="st5" d="M68.77539,61.79719c-1.01584-0.02632-1.81873-0.86984-1.79492-1.88574
		c-0.04419-0.98227,0.71509-1.81493,1.69727-1.86133c0.79953-0.0117,1.45712,0.62696,1.46884,1.42648
		c0.00082,0.05798-0.0018,0.11595-0.0079,0.17361c0,0.17139-0.02344,0.17139-0.20313,0.17139H67.6582
		c-0.02887,0.42265,0.05542,0.84534,0.24414,1.22461c0.19186,0.33009,0.54117,0.53709,0.92285,0.54687
		c0.51389-0.00304,0.96365-0.34604,1.10254-0.84082c0.01563-0.06543,0.03125-0.11426,0.10547-0.11426
		c0.05157-0.00634,0.09851,0.03033,0.10486,0.08191c0.00064,0.00523,0.00085,0.01049,0.00061,0.01575
		C69.98441,61.36219,69.42062,61.80119,68.77539,61.79719z M68.67773,58.2298c-0.27734,0-0.96289,0.2041-1.01172,1.42041h1.93457
		C69.60059,59.33186,69.51953,58.2298,68.67773,58.2298z"/>
	<path class="st5" d="M72,61.79719c-0.33496,0.01126-0.65985-0.11568-0.89844-0.35107
		c-0.05878,0.05841-0.11298,0.12126-0.16211,0.188c-0.15625,0.15478-0.16406,0.16308-0.20508,0.16308
		c-0.08984,0-0.08984-0.05713-0.08984-0.1958v-1.07764c0-0.147,0-0.20411,0.10645-0.20411
		c0.08099,0,0.08984,0.03272,0.11426,0.13868c0.15527,0.69384,0.44922,1.15918,1.13477,1.15918
		c0.63672,0,0.92188-0.32666,0.92188-0.74268c0-0.58789-0.66895-0.71875-0.84766-0.751
		c-0.38678-0.02542-0.75943-0.15537-1.07813-0.376c-0.22-0.16294-0.35028-0.42008-0.35156-0.69385
		c0-0.457,0.31055-1.00391,1.30664-1.00391c0.27393-0.00947,0.54343,0.07078,0.76758,0.22852
		c0.04968-0.0396,0.09607-0.08321,0.13867-0.13037c0.10547-0.09815,0.12207-0.09815,0.16309-0.09815
		c0.08984,0,0.08984,0.05713,0.08984,0.1958v0.82471c0,0.15479,0,0.1958-0.10645,0.1958c0,0-0.08984,0-0.09766-0.07324
		c0.04938-0.4948-0.31174-0.93593-0.80652-0.98529c-0.04938-0.00493-0.09906-0.00576-0.14856-0.0025
		c-0.70215,0-0.91406,0.33447-0.91406,0.62011c0,0.47364,0.54688,0.57959,1.00391,0.66944
		c0.34329,0.0313,0.66846,0.16829,0.93066,0.39209c0.2178,0.19905,0.34216,0.48033,0.34277,0.77539
		C73.31445,61.25031,72.93945,61.79719,72,61.79719z"/>
	<path class="st5" d="M73.68164,60.18098v-0.47363h2.16211v0.47363H73.68164z"/>
	<path class="st5" d="M78.3418,61.79719c-1.00516-0.00993-1.81253-0.83173-1.80469-1.83691
		c-0.05466-0.99886,0.71075-1.85291,1.70963-1.90757c0.99884-0.05466,1.85291,0.71075,1.90756,1.70962
		c0.0036,0.06593,0.0036,0.13202,0,0.19795c0.00998,1.00448-0.79623,1.82686-1.80072,1.83683
		C78.34964,61.79715,78.34573,61.79717,78.3418,61.79719z M79.26367,58.76057c-0.19092-0.32841-0.54202-0.53056-0.92188-0.53076
		c-0.38477,0.00612-0.73807,0.21373-0.93066,0.54688c-0.15637,0.35091-0.22379,0.73497-0.19629,1.11816
		c-0.02679,0.39478,0.04361,0.79012,0.20508,1.15137c0.18784,0.33734,0.54358,0.54659,0.92969,0.54687
		c0.4057-0.00223,0.77408-0.23712,0.94727-0.604c0.14169-0.34651,0.20313-0.7206,0.17969-1.09424
		C79.50623,59.50463,79.43283,59.11346,79.26367,58.76057z"/>
	<path class="st5" d="M82.82227,61.79719c-0.4151,0.01218-0.80237-0.20818-1.00391-0.57129v1.44483
		c0,0.36719,0.08984,0.36719,0.63672,0.36719v0.25293l-0.92188-0.02442l-0.91406,0.02442v-0.25293
		c0.54688,0,0.63672,0,0.63672-0.36719v-3.8208c0-0.35889-0.05762-0.40772-0.63672-0.40772v-0.25342l1.17578-0.08984v0.53906
		c0.28012-0.34275,0.69992-0.54082,1.14258-0.53906c0.97806,0.04375,1.73856,0.86676,1.70508,1.84522
		C84.65036,60.95802,83.83609,61.78691,82.82227,61.79719z M82.87109,58.30305c-0.44333,0.01102-0.84607,0.26094-1.05273,0.65332
		v1.82032c-0.01443,0.1257,0.0278,0.25131,0.11523,0.34277c0.17963,0.30347,0.50385,0.49201,0.85645,0.498
		c0.60449,0,1.17578-0.68555,1.17578-1.67334c0-0.92233-0.49805-1.64104-1.09473-1.64104V58.30305z"/>
	<path class="st5" d="M87.36133,61.79719c-0.41534,0.01318-0.80307-0.20747-1.00391-0.57129v1.44483
		c0,0.36719,0.08984,0.36719,0.63672,0.36719v0.25293l-0.92285-0.02442l-0.91501,0.02442v-0.25293
		c0.54688,0,0.63672,0,0.63672-0.36719v-3.8208c0-0.35889-0.05664-0.40772-0.63672-0.40772v-0.25342l1.17578-0.08984v0.53906
		c0.28043-0.34233,0.70004-0.5403,1.14258-0.53906c0.97858,0.04321,1.73996,0.86623,1.707,1.84522
		C89.18872,60.95775,88.37488,61.78623,87.36133,61.79719z M87.41016,58.30305c-0.44342,0.01077-0.84625,0.26077-1.05273,0.65332
		v1.82032c-0.01428,0.12534,0.02713,0.25063,0.11328,0.34277c0.18018,0.30338,0.50461,0.49181,0.85742,0.498
		c0.60352,0,1.17578-0.68555,1.17578-1.67334c0-0.92233-0.49805-1.64104-1.09375-1.64104V58.30305z"/>
	<path class="st5" d="M91.72754,61.79719c-1.00494-0.01006-1.81198-0.83194-1.80371-1.83691
		c-0.05484-0.99859,0.71021-1.85256,1.7088-1.9074s1.85257,0.71022,1.90741,1.70881c0.00363,0.06615,0.00363,0.13245,0,0.19859
		c0.00964,1.00482-0.79712,1.8272-1.80197,1.83684C91.73456,61.79715,91.73105,61.79717,91.72754,61.79719z M92.65039,58.76057
		c-0.19165-0.32813-0.54285-0.53011-0.92285-0.53076c-0.38477,0.00611-0.73807,0.21373-0.93066,0.54688
		c-0.15564,0.35112-0.22269,0.73507-0.19531,1.11816c-0.02658,0.39458,0.04315,0.7897,0.20313,1.15137
		c0.18866,0.3375,0.54498,0.54667,0.93164,0.54687c0.40543-0.00226,0.77353-0.23721,0.94629-0.604
		c0.14169-0.34651,0.20313-0.7206,0.17969-1.09424C92.89185,59.50474,92.81879,59.11369,92.65039,58.76057z"/>
	<path class="st5" d="M95.40039,61.79719c-0.33496,0.01126-0.65985-0.11568-0.89844-0.35107
		c-0.05838,0.05907-0.11285,0.12188-0.16309,0.188c-0.15527,0.15478-0.16309,0.16308-0.2041,0.16308
		c-0.08984,0-0.08984-0.05713-0.08984-0.1958v-1.07764c0-0.147,0-0.20411,0.10547-0.20411c0.082,0,0.08984,0.03272,0.11523,0.13868
		c0.1543,0.69384,0.44922,1.15918,1.13477,1.15918c0.63672,0,0.92188-0.32666,0.92188-0.74268
		c0-0.58789-0.66992-0.71875-0.84961-0.751c-0.3862-0.02534-0.75821-0.15532-1.07617-0.376
		c-0.22-0.16294-0.35028-0.42008-0.35156-0.69385c0-0.457,0.31055-1.00391,1.30664-1.00391
		c0.27359-0.00932,0.54276,0.07092,0.7666,0.22852c0.05002-0.0396,0.09671-0.0832,0.13965-0.13037
		c0.10547-0.09815,0.12109-0.09815,0.16211-0.09815c0.08984,0,0.08984,0.05713,0.08984,0.1958v0.82471
		c0,0.15479,0,0.1958-0.10547,0.1958c0,0-0.08984,0-0.09766-0.07324c0.04868-0.49552-0.3136-0.93668-0.80911-0.98534
		c-0.04852-0.00476-0.09732-0.00558-0.14597-0.00246c-0.70313,0-0.91501,0.33447-0.91501,0.62011
		c0,0.47364,0.54688,0.57959,1.00488,0.66944c0.34296,0.0315,0.66776,0.16847,0.92969,0.39209
		c0.21817,0.19887,0.3429,0.48018,0.34375,0.77539C96.71484,61.25031,96.33887,61.79719,95.40039,61.79719z"/>
	<path class="st5" d="M98.1582,61.68294l-0.89746,0.02441v-0.25293c0.54688,0,0.63672,0,0.63672-0.36768v-2.1958
		c0-0.3999-0.07324-0.44873-0.60449-0.44873v-0.25342l1.14258-0.08984v2.99614c0,0.31836,0.0332,0.35938,0.57227,0.35938v0.25293
		C98.73047,61.69907,98.44434,61.68294,98.1582,61.68294z M98.11722,57.2093c-0.23676-0.00476-0.4274-0.19584-0.43164-0.43261
		c0.00165-0.24059,0.19803-0.43428,0.4386-0.43263c0.00061,0,0.00122,0.00001,0.00183,0.00002
		c0.23895-0.00011,0.43274,0.19352,0.43286,0.43246c0.00009,0.23895-0.19351,0.43275-0.43246,0.43285
		C98.12332,57.20939,98.12027,57.20936,98.11722,57.2093z"/>
	<path class="st5" d="M102.71289,61.68294l-0.92188,0.02441v-0.25293c0.54688,0,0.63672,0,0.63672-0.36768v-1.90185
		c0-0.46533-0.08984-0.90625-0.60352-0.90625c-0.65665,0.04615-1.15152,0.61588-1.10538,1.27251
		c0.00079,0.01122,0.00174,0.02244,0.00284,0.03364v1.502c0,0.36768,0.08984,0.36768,0.63672,0.36768v0.25293l-0.91501-0.02441
		l-0.92188,0.02441v-0.25293c0.54688,0,0.63672,0,0.63672-0.36768v-2.1875c0-0.3999-0.06543-0.457-0.63672-0.457v-0.25342
		l1.15039-0.08984v0.85742c0.18173-0.51228,0.66547-0.85534,1.20901-0.85742c0.31616-0.02861,0.62912,0.08171,0.85742,0.30225
		c0.25201,0.29394,0.25201,0.54687,0.25201,1.249v1.55908c0.00879,0.24512,0.21289,0.24512,0.6377,0.24512v0.25293
		L102.71289,61.68294z"/>
	<path class="st5" d="M107.52148,58.65412c-0.12808,0.00296-0.23434-0.09849-0.2373-0.22659
		c-0.00006-0.00341-0.00006-0.00682,0-0.01023c-0.00882-0.09376,0.04355-0.18258,0.12988-0.22021
		c-0.02661-0.00584-0.0538-0.00862-0.08105-0.00831c-0.2767,0.00732-0.53986,0.12141-0.73438,0.31836
		c0.21417,0.20782,0.33505,0.49356,0.33499,0.792c-0.03891,0.69289-0.62909,1.22488-1.3223,1.19193
		c-0.28928,0.00193-0.57196-0.08649-0.80859-0.25293c-0.08945,0.10772-0.13849,0.24329-0.13867,0.3833
		c-0.01208,0.26435,0.17175,0.49748,0.43164,0.54737c0.05762,0.00781,0.4082,0.00781,0.61328,0.00781
		c0.4798-0.04145,0.96237,0.03708,1.4043,0.22851c0.33444,0.18912,0.53809,0.54654,0.53027,0.93067
		c0,0.63672-0.84863,1.05322-1.8125,1.05322c-0.99609,0-1.80371-0.44873-1.80371-1.03662
		c0.03967-0.40907,0.34576-0.74225,0.75-0.81641c-0.23148-0.16869-0.36542-0.44023-0.3584-0.72656
		c0.008-0.24747,0.09683-0.48552,0.25293-0.67773c-0.24255-0.2123-0.38229-0.51849-0.38379-0.84082
		c0.03873-0.69336,0.62961-1.22559,1.32324-1.1919c0.31363-0.00447,0.61923,0.09935,0.86523,0.29395
		c0.22729-0.23592,0.53781-0.37364,0.86523-0.38379c0.22025-0.0093,0.40634,0.16171,0.41562,0.38196
		c0.00027,0.00614,0.0004,0.01228,0.00037,0.01843c0.00497,0.13001-0.09641,0.23943-0.22641,0.24441
		C107.52808,58.65408,107.52478,58.65414,107.52148,58.65412z M105.60254,61.65022h-0.48145
		c-0.3714,0.02538-0.66202,0.32998-0.66992,0.70215c0,0.43262,0.56348,0.84912,1.38867,0.84912
		c0.79883,0,1.37891-0.4082,1.37891-0.84912C107.21875,61.65022,106.30469,61.65022,105.60254,61.65022z M105.61133,58.28693
		c-0.23587,0.00479-0.45367,0.12744-0.58008,0.32666c-0.1037,0.21285-0.14886,0.44947-0.13086,0.68555
		c0,0.188,0,1.0039,0.71094,1.0039c0.23535-0.00538,0.45251-0.1277,0.5791-0.32617c0.10297-0.21323,0.1478-0.44988,0.12988-0.686
		C106.32031,59.10335,106.32031,58.28693,105.61133,58.28693z"/>
</g>
</svg>
