<svg id="Layer_1" data-name="Layer 1" xmlns="http://www.w3.org/2000/svg" viewBox="0 0 359 63.38916">
  <defs>
    <style>
      .cls-1, .cls-2, .cls-4, .cls-6 {
        fill: none;
      }

      .cls-1, .cls-2, .cls-3, .cls-6 {
        stroke: #000;
        stroke-width: 2px;
      }

      .cls-1, .cls-2 {
        stroke-linecap: round;
      }

      .cls-1 {
        stroke-linejoin: round;
      }

      .cls-4 {
        stroke: #c1272d;
      }

      .cls-5 {
        fill: #c1272d;
      }

      .cls-6 {
        stroke-linecap: square;
      }
    </style>
  </defs>
  <title>DotConventionSeries</title>
  <g>
    <path id="path1132" class="cls-1" d="M25,50H11" transform="translate(-4 -16.71875)"/>
    <circle class="cls-1" cx="4" cy="33.28125" r="3"/>
    <g>
      <path class="cls-1" d="M25,50h7.16667a4.45833,4.45833,0,1,1,8.91666,0" transform="translate(-4 -16.71875)"/>
      <path class="cls-2" d="M41.08333,50A4.45834,4.45834,0,1,1,50,50" transform="translate(-4 -16.71875)"/>
      <path class="cls-2" d="M50,50a4.45834,4.45834,0,1,1,8.91667,0" transform="translate(-4 -16.71875)"/>
      <path class="cls-1" d="M58.91667,50a4.45833,4.45833,0,0,1,8.91666,0H100" transform="translate(-4 -16.71875)"/>
    </g>
    <g>
      <path class="cls-1" d="M100,50h7.16667a4.45833,4.45833,0,0,1,8.91666,0" transform="translate(-4 -16.71875)"/>
      <path class="cls-2" d="M116.08333,50A4.45834,4.45834,0,0,1,125,50" transform="translate(-4 -16.71875)"/>
      <path class="cls-2" d="M125,50a4.45834,4.45834,0,0,1,8.91667,0" transform="translate(-4 -16.71875)"/>
      <path class="cls-1" d="M133.91667,50a4.45833,4.45833,0,1,1,8.91666,0H150" transform="translate(-4 -16.71875)"/>
    </g>
    <path id="path1132-2" data-name="path1132" class="cls-1" d="M150,50h14" transform="translate(-4 -16.71875)"/>
    <circle class="cls-1" cx="163" cy="33.28125" r="3"/>
    <circle class="cls-3" cx="96" cy="27.28125" r="1"/>
    <circle class="cls-3" cx="21" cy="27.28125" r="1"/>
    <g>
      <path class="cls-4" d="M50.06969,39.497C51.26054,33.08219,67.56342,28,87.5,28c19.9322,0,36.23229,5.07995,37.42952,11.49274" transform="translate(-4 -16.71875)"/>
      <polygon class="cls-5" points="49.639 21.426 49.288 20.819 46.302 22.549 44.795 19.443 44.165 19.75 46.001 23.531 49.639 21.426"/>
      <polygon class="cls-5" points="117.361 21.426 117.712 20.819 120.698 22.549 122.205 19.443 122.835 19.75 120.999 23.531 117.361 21.426"/>
    </g>
    <path d="M20.85547,68.97461a.89729.89729,0,0,1-.91113-.95947,2.17111,2.17111,0,0,1,.21582-.82764l.44336-1.187.36035-.99561a2.76691,2.76691,0,0,0,.21582-.86328c0-.27588-.13184-.33594-.26367-.33594-.69629,0-1.00782,1.11524-1.11622,1.51123-.04785.16749-.05957.1919-.21582.1919-.05957,0-.17968,0-.17968-.12012,0-.06006.4082-1.84717,1.53515-1.84717a.88436.88436,0,0,1,.89942.95948,1.67875,1.67875,0,0,1-.14356.67187l-.76758,2.05078a4.05749,4.05749,0,0,0-.3125,1.15137c0,.32373.168.33594.26465.33594.69532,0,1.01953-1.15137,1.11524-1.499.04785-.18017.04785-.2041.2041-.2041.084,0,.17969,0,.17969.12012C22.37891,67.17578,21.9834,68.97461,20.85547,68.97461Zm1.0791-6.7041a.50988.50988,0,0,1-.53906-.51563.8145.8145,0,0,1,.76758-.75586.50943.50943,0,0,1,.53906.51563A.8145.8145,0,0,1,21.93457,62.27051Z" transform="translate(-4 -16.71875)"/>
    <polyline class="cls-6" points="11 38.281 25 38.281 22 41.281"/>
    <path d="M86.85547,68.97461a.89729.89729,0,0,1-.91113-.95947,2.17111,2.17111,0,0,1,.21582-.82764l.44336-1.187.36035-.99561a2.76691,2.76691,0,0,0,.21582-.86328c0-.27588-.13184-.33594-.26367-.33594-.69629,0-1.00782,1.11524-1.11622,1.51123-.04785.16749-.05957.1919-.21582.1919-.05957,0-.17968,0-.17968-.12012,0-.06006.4082-1.84717,1.53515-1.84717a.88436.88436,0,0,1,.89942.95948,1.67875,1.67875,0,0,1-.14356.67187l-.76758,2.05078a4.05749,4.05749,0,0,0-.3125,1.15137c0,.32373.168.33594.26465.33594.69532,0,1.01953-1.15137,1.11524-1.499.04785-.18017.04785-.2041.2041-.2041.084,0,.17969,0,.17969.12012C88.37891,67.17578,87.9834,68.97461,86.85547,68.97461Zm1.0791-6.7041a.50988.50988,0,0,1-.53906-.51563.8145.8145,0,0,1,.76758-.75586.50943.50943,0,0,1,.53906.51563A.8145.8145,0,0,1,87.93457,62.27051Z" transform="translate(-4 -16.71875)"/>
    <polyline class="cls-6" points="77 38.281 91 38.281 88 41.281"/>
    <path d="M91.32227,24.91016c-.44336,0-.93555-.03614-1.39063-.03614-.45605,0-.92383.03614-1.36719.03614a.14371.14371,0,0,1-.168-.144c0-.22754.13184-.22754.32325-.22754.81543,0,.88769-.09619.9834-.5039l1.6914-6.78809h-.01172l-4.47363,7.44776c-.07227.13183-.13184.21582-.28809.21582-.17968,0-.17968-.084-.2041-.28809l-.73144-7.26758h-.01172L84.0791,23.72266a1.12528,1.12528,0,0,0-.04883.2998c0,.18018.02442.4917.708.51611.14356,0,.22754.01172.22754.15577,0,.21582-.14355.21582-.21582.21582-.37109,0-.791-.03614-1.1748-.03614-.37207,0-.78028.03614-1.13965.03614-.084,0-.15625-.03614-.15625-.144,0-.21582.13183-.22754.22851-.22754a1.06238,1.06238,0,0,0,1.16309-.83984l1.53515-6.17627a.74085.74085,0,0,0,.04786-.228c0-.2041-.32422-.2041-.69532-.2041-.22851,0-.32421,0-.32421-.144,0-.22754.13183-.22754.32421-.22754h1.59473c.28809,0,.31152,0,.33594.26367l.67187,6.72852,4.07715-6.77637c.13281-.21582.168-.21582.43262-.21582h1.53515c.20313,0,.29981,0,.29981.15576,0,.21582-.1084.21582-.36035.21582-.75586,0-.85156.09619-.94727.48L90.5791,24.05859a1.20354,1.20354,0,0,0-.04785.27588c0,.10791,0,.2041.69531.2041.24024,0,.32422,0,.32422.15577C91.55078,24.91016,91.40625,24.91016,91.32227,24.91016Z" transform="translate(-4 -16.71875)"/>
  </g>
  <g>
    <path d="M67.4834,78.606a2.04335,2.04335,0,0,1-1.502-.57178c-.26954.43311-.29395.46533-.29395.46533-.05713.08985-.06543.10645-.12256.10645-.08984,0-.08984-.05713-.08984-.1958V76.77734c0-.147,0-.2041.10644-.2041a.0849.0849,0,0,1,.09766.08155,1.6524,1.6524,0,0,0,.50635,1.25732,1.96884,1.96884,0,0,0,1.28955.44092,1.11942,1.11942,0,0,0,1.09424-1.16748,1.192,1.192,0,0,0-.25342-.751,1.08274,1.08274,0,0,0-.69385-.4165c-.57129-.13868-.98779-.23682-1.07764-.26953a1.58144,1.58144,0,0,1,.52246-3.07764,1.67905,1.67905,0,0,1,1.30616.57178l.28613-.46534c.05713-.09814.06494-.10644.12207-.10644.08984,0,.08984.05713.08984.19629v1.64062c0,.15528,0,.1958-.10595.1958-.08985,0-.08985-.04882-.09815-.09765-.04883-.36768-.22851-1.70655-1.59179-1.70655a1.06721,1.06721,0,0,0-.25293,2.10645l1.04492.25293a1.67026,1.67026,0,0,1,1.22461,1.64892A1.63695,1.63695,0,0,1,67.4834,78.606Z" transform="translate(-4 -16.71875)"/>
    <path d="M71.58057,78.51611a1.84333,1.84333,0,0,1-1.7959-1.88574A1.784,1.784,0,0,1,71.48291,74.769a1.44809,1.44809,0,0,1,1.46094,1.6001c0,.17139-.02442.17139-.2041.17139H70.4624a2.38012,2.38012,0,0,0,.24463,1.22461,1.10067,1.10067,0,0,0,.92285.54687,1.15077,1.15077,0,0,0,1.10205-.84082c.01612-.06543.03223-.11426.106-.11426a.09445.09445,0,0,1,.106.09766A1.39509,1.39509,0,0,1,71.58057,78.51611Zm-.09766-3.56738c-.27783,0-.96338.2041-1.01221,1.42041h1.93457C72.40527,76.05078,72.32373,74.94873,71.48291,74.94873Z" transform="translate(-4 -16.71875)"/>
    <path d="M75.80029,75.67529a.33827.33827,0,0,1-.35107-.35107.35365.35365,0,0,1,.1875-.31836c-.01611-.0083-.03272-.0083-.08984-.0083-.62012,0-.9629.72656-.9629,1.53467v1.25732c0,.29395.01612.38379.62012.38379h.17139v.25293c-.32617-.02441-.71-.02441-1.03662-.02441l-.93067.02441v-.25293c.54688,0,.63672,0,.63672-.36768v-2.1875c0-.3999-.06543-.457-.63672-.457v-.25342l1.13477-.08984v.89795a1.14308,1.14308,0,0,1,1.00391-.89795.55751.55751,0,0,1,.60449.49805A.34323.34323,0,0,1,75.80029,75.67529Z" transform="translate(-4 -16.71875)"/>
    <path d="M77.54688,78.40186l-.898.02441v-.25293c.54687,0,.63671,0,.63671-.36768v-2.1958c0-.3999-.07373-.44873-.604-.44873v-.25342l1.14258-.08984V77.814c0,.31836.03271.35938.57178.35938v.25293C78.11816,78.418,77.83252,78.40186,77.54688,78.40186Zm-.041-4.47364a.4411.4411,0,0,1-.43262-.43261.43679.43679,0,1,1,.43262.43261Z" transform="translate(-4 -16.71875)"/>
    <path d="M80.67285,78.51611a1.84334,1.84334,0,0,1-1.7959-1.88574A1.784,1.784,0,0,1,80.5752,74.769a1.44808,1.44808,0,0,1,1.46093,1.6001c0,.17139-.02441.17139-.2041.17139H79.55469a2.38012,2.38012,0,0,0,.24463,1.22461,1.10065,1.10065,0,0,0,.92285.54687,1.15078,1.15078,0,0,0,1.102-.84082c.01611-.06543.03223-.11426.106-.11426a.09445.09445,0,0,1,.106.09766A1.39508,1.39508,0,0,1,80.67285,78.51611Zm-.09765-3.56738c-.27784,0-.96338.2041-1.0127,1.42041h1.93506C81.49756,76.05078,81.416,74.94873,80.5752,74.94873Z" transform="translate(-4 -16.71875)"/>
    <path d="M83.897,78.51611A1.22052,1.22052,0,0,1,82.999,78.165a1.73731,1.73731,0,0,0-.16308.188c-.15528.15478-.16358.16308-.2041.16308-.08985,0-.08985-.05713-.08985-.1958V77.24268c0-.147,0-.20411.106-.20411.08154,0,.08984.03272.11426.13868.15527.69384.44922,1.15918,1.13476,1.15918.63672,0,.92237-.32666.92237-.74268,0-.58789-.66944-.71875-.84864-.751a2.13675,2.13675,0,0,1-1.07763-.376A.868.868,0,0,1,82.542,75.773c0-.457.31006-1.00391,1.30615-1.00391a1.25691,1.25691,0,0,1,.76709.22852,1.06441,1.06441,0,0,0,.13868-.13037c.10644-.09815.12255-.09815.16357-.09815.08984,0,.08984.05713.08984.1958v.82471c0,.15479,0,.1958-.10644.1958,0,0-.08936,0-.09766-.07324a.90065.90065,0,0,0-.95508-.98779c-.70214,0-.91455.33447-.91455.62011,0,.47364.54688.57959,1.0044.66944a1.66665,1.66665,0,0,1,.93066.39209,1.05341,1.05341,0,0,1,.34278.77539C85.21143,77.96924,84.83594,78.51611,83.897,78.51611Z" transform="translate(-4 -16.71875)"/>
    <path d="M85.57813,76.8999v-.47363h2.16308v.47363Z" transform="translate(-4 -16.71875)"/>
    <path d="M91.47949,78.4751a.68326.68326,0,0,1-.63672-.66944,1.12953,1.12953,0,0,1-1.06933.71045c-.51416,0-1.30615-.2041-1.30615-.86523a1.18978,1.18978,0,0,1,.8164-1.06152,3.9847,3.9847,0,0,1,1.50195-.29395v-.30176a.92448.92448,0,0,0-.86523-1.04492,1.1476,1.1476,0,0,0-.88184.37549c.37549.0083.41651.27734.41651.37549a.37554.37554,0,1,1-.751-.0083c0-.53858.563-.92237,1.23242-.92237a1.55729,1.55729,0,0,1,1.11866.44922,1.20636,1.20636,0,0,1,.29394.96289V77.814c0,.041.03272.40821.30176.40821.08984,0,.29394-.04883.29394-.52246v-.457h.20411v.457A.69311.69311,0,0,1,91.47949,78.4751Zm-.69385-2.0083c-1.34668.04931-1.68994.72656-1.68994,1.17578a.703.703,0,0,0,.73487.69385.98053.98053,0,0,0,.95507-1.05323Z" transform="translate(-4 -16.71875)"/>
    <path d="M93.45459,78.40186l-.89795.02441v-.25293c.54688,0,.63672,0,.63672-.36768v-2.1958c0-.3999-.07373-.44873-.604-.44873v-.25342l1.14257-.08984V77.814c0,.31836.03272.35938.57178.35938v.25293C94.02588,78.418,93.74023,78.40186,93.45459,78.40186Zm-.041-4.47364a.4411.4411,0,0,1-.43261-.43261.43639.43639,0,0,1,.44092-.43262.44078.44078,0,0,1,.43261.43262A.43639.43639,0,0,1,93.41357,73.92822Z" transform="translate(-4 -16.71875)"/>
    <path d="M97.6582,78.51611v-.53906a1.3788,1.3788,0,0,1-1.09375.53906A1.79581,1.79581,0,0,1,94.8335,76.6709a1.84537,1.84537,0,0,1,1.8208-1.853,1.30258,1.30258,0,0,1,1.02832.50635V73.561c0-.4004-.06494-.45752-.63672-.45752v-.25293l1.17578-.08985v4.95508c0,.40039.06494.45752.63672.45752v.25293Zm0-2.72656a.39056.39056,0,0,0-.08984-.30225,1.05818,1.05818,0,0,0-.88135-.48974,1.12279,1.12279,0,0,0-.92285.52246,2.80932,2.80932,0,0,0-.01611,2.29394,1.01488,1.01488,0,0,0,.85693.52247,1.13758,1.13758,0,0,0,.96338-.57129.39056.39056,0,0,0,.08984-.30225Z" transform="translate(-4 -16.71875)"/>
    <path d="M100.26172,78.40186l-.89795.02441v-.25293c.54687,0,.63672,0,.63672-.36768v-2.1958c0-.3999-.07373-.44873-.604-.44873v-.25342l1.14258-.08984V77.814c0,.31836.03272.35938.57178.35938v.25293C100.833,78.418,100.54736,78.40186,100.26172,78.40186Zm-.041-4.47364a.4411.4411,0,0,1-.43261-.43261.43639.43639,0,0,1,.44091-.43262.44078.44078,0,0,1,.43262.43262A.43639.43639,0,0,1,100.2207,73.92822Z" transform="translate(-4 -16.71875)"/>
    <path d="M104.81641,78.40186l-.92237.02441v-.25293c.54688,0,.63672,0,.63672-.36768V75.90381c0-.46533-.08984-.90625-.604-.90625a1.19214,1.19214,0,0,0-1.10205,1.30615v1.502c0,.36768.08984.36768.63672.36768v.25293l-.91455-.02441-.92237.02441v-.25293c.54688,0,.63672,0,.63672-.36768v-2.1875c0-.3999-.06543-.457-.63672-.457v-.25342l1.15088-.08984v.85742a1.287,1.287,0,0,1,1.2085-.85742,1.08865,1.08865,0,0,1,.85693.30225c.25293.29394.25293.54687.25293,1.249v1.55908c.0083.24512.2124.24512.63721.24512v.25293Z" transform="translate(-4 -16.71875)"/>
    <path d="M109.62354,75.37305a.2316.2316,0,0,1-.23682-.23682.219.219,0,0,1,.13037-.22021.36737.36737,0,0,0-.08154-.00831,1.072,1.072,0,0,0-.73438.31836,1.10291,1.10291,0,0,1,.33447.792A1.26361,1.26361,0,0,1,107.71338,77.21a1.39114,1.39114,0,0,1-.80859-.25293.60111.60111,0,0,0-.13868.3833.533.533,0,0,0,.43262.54737c.05713.00781.4082.00781.61231.00781a2.90215,2.90215,0,0,1,1.40429.22851,1.0453,1.0453,0,0,1,.53076.93067c0,.63672-.84912,1.05322-1.8125,1.05322-.99609,0-1.8042-.44873-1.8042-1.03662a.921.921,0,0,1,.751-.81641.87054.87054,0,0,1-.35889-.72656,1.13016,1.13016,0,0,1,.25293-.67773,1.12436,1.12436,0,0,1-.38378-.84082,1.26376,1.26376,0,0,1,1.32275-1.1919,1.36093,1.36093,0,0,1,.86523.29395,1.25863,1.25863,0,0,1,.86524-.38379.39962.39962,0,0,1,.4165.40039A.23567.23567,0,0,1,109.62354,75.37305Zm-1.91846,2.99609h-.48194a.719.719,0,0,0-.66943.70215c0,.43262.56348.84912,1.38818.84912.79981,0,1.3794-.4082,1.3794-.84912C109.32129,78.36914,108.40723,78.36914,107.70508,78.36914Zm.0083-3.36328a.70449.70449,0,0,0-.57959.32666,1.33875,1.33875,0,0,0-.13086.68555c0,.188,0,1.0039.71045,1.0039a.70707.70707,0,0,0,.57959-.32617,1.34426,1.34426,0,0,0,.13037-.686C108.42334,75.82227,108.42334,75.00586,107.71338,75.00586Z" transform="translate(-4 -16.71875)"/>
  </g>
  <circle class="cls-1" cx="355" cy="33.28125" r="3"/>
  <g>
    <path id="path1132-3" data-name="path1132" class="cls-1" d="M217,50H203" transform="translate(-4 -16.71875)"/>
    <circle class="cls-1" cx="196" cy="33.28125" r="3"/>
    <g>
      <path class="cls-1" d="M217,50h7.16667a4.45833,4.45833,0,1,1,8.91666,0" transform="translate(-4 -16.71875)"/>
      <path class="cls-2" d="M233.08333,50A4.45834,4.45834,0,1,1,242,50" transform="translate(-4 -16.71875)"/>
      <path class="cls-2" d="M242,50a4.45834,4.45834,0,0,1,8.91667,0" transform="translate(-4 -16.71875)"/>
      <path class="cls-1" d="M250.91667,50a4.45833,4.45833,0,1,1,8.91666,0H292" transform="translate(-4 -16.71875)"/>
    </g>
    <g>
      <path class="cls-1" d="M292,50h7.16667a4.45833,4.45833,0,1,1,8.91666,0" transform="translate(-4 -16.71875)"/>
      <path class="cls-2" d="M308.08333,50A4.45834,4.45834,0,0,1,317,50" transform="translate(-4 -16.71875)"/>
      <path class="cls-2" d="M317,50a4.45834,4.45834,0,0,1,8.91667,0" transform="translate(-4 -16.71875)"/>
      <path class="cls-1" d="M325.91667,50a4.45833,4.45833,0,1,1,8.91666,0H342" transform="translate(-4 -16.71875)"/>
    </g>
    <path id="path1132-4" data-name="path1132" class="cls-1" d="M342,50h14" transform="translate(-4 -16.71875)"/>
    <circle class="cls-3" cx="338" cy="27.28125" r="1"/>
    <circle class="cls-3" cx="213" cy="27.28125" r="1"/>
    <g>
      <path class="cls-4" d="M242.06969,39.497C243.26054,33.08219,259.56342,28,279.5,28c19.9322,0,36.23229,5.07995,37.42952,11.49274" transform="translate(-4 -16.71875)"/>
      <polygon class="cls-5" points="241.639 21.426 241.288 20.819 238.302 22.549 236.795 19.443 236.165 19.75 238.001 23.531 241.639 21.426"/>
      <polygon class="cls-5" points="309.361 21.426 309.712 20.819 312.698 22.549 314.205 19.443 314.835 19.75 312.999 23.531 309.361 21.426"/>
    </g>
    <path d="M212.85547,68.97461a.89729.89729,0,0,1-.91113-.95947,2.17111,2.17111,0,0,1,.21582-.82764l.44336-1.187.36035-.99561a2.76691,2.76691,0,0,0,.21582-.86328c0-.27588-.13184-.33594-.26367-.33594-.69629,0-1.00782,1.11524-1.11622,1.51123-.04785.16749-.05957.1919-.21582.1919-.05957,0-.17968,0-.17968-.12012,0-.06006.4082-1.84717,1.53515-1.84717a.88436.88436,0,0,1,.89942.95948,1.67875,1.67875,0,0,1-.14356.67187l-.76758,2.05078a4.05749,4.05749,0,0,0-.3125,1.15137c0,.32373.168.33594.26465.33594.69532,0,1.01953-1.15137,1.11524-1.499.04785-.18017.04785-.2041.2041-.2041.084,0,.17969,0,.17969.12012C214.37891,67.17578,213.9834,68.97461,212.85547,68.97461Zm1.0791-6.7041a.50988.50988,0,0,1-.53906-.51563.8145.8145,0,0,1,.76758-.75586.50943.50943,0,0,1,.53906.51563A.8145.8145,0,0,1,213.93457,62.27051Z" transform="translate(-4 -16.71875)"/>
    <polyline class="cls-6" points="203 38.281 217 38.281 214 41.281"/>
    <path d="M278.85547,68.97461a.89729.89729,0,0,1-.91113-.95947,2.17111,2.17111,0,0,1,.21582-.82764l.44336-1.187.36035-.99561a2.76691,2.76691,0,0,0,.21582-.86328c0-.27588-.13184-.33594-.26367-.33594-.69629,0-1.00782,1.11524-1.11622,1.51123-.04785.16749-.05957.1919-.21582.1919-.05957,0-.17968,0-.17968-.12012,0-.06006.4082-1.84717,1.53515-1.84717a.88436.88436,0,0,1,.89942.95948,1.67875,1.67875,0,0,1-.14356.67187l-.76758,2.05078a4.05749,4.05749,0,0,0-.3125,1.15137c0,.32373.168.33594.26465.33594.69532,0,1.01953-1.15137,1.11524-1.499.04785-.18017.04785-.2041.2041-.2041.084,0,.17969,0,.17969.12012C280.37891,67.17578,279.9834,68.97461,278.85547,68.97461Zm1.0791-6.7041a.50988.50988,0,0,1-.53906-.51563.8145.8145,0,0,1,.76758-.75586.50943.50943,0,0,1,.53906.51563A.8145.8145,0,0,1,279.93457,62.27051Z" transform="translate(-4 -16.71875)"/>
    <polyline class="cls-6" points="269 38.281 283 38.281 280 41.281"/>
    <path d="M283.32227,24.91016c-.44336,0-.93555-.03614-1.39063-.03614-.45605,0-.92383.03614-1.36719.03614a.14371.14371,0,0,1-.168-.144c0-.22754.13184-.22754.32325-.22754.81543,0,.88769-.09619.9834-.5039l1.6914-6.78809h-.01172l-4.47363,7.44776c-.07227.13183-.13184.21582-.28809.21582-.17968,0-.17968-.084-.2041-.28809l-.73144-7.26758h-.01172l-1.59473,6.36817a1.12528,1.12528,0,0,0-.04883.2998c0,.18018.02442.4917.708.51611.14356,0,.22754.01172.22754.15577,0,.21582-.14355.21582-.21582.21582-.37109,0-.791-.03614-1.1748-.03614-.37207,0-.78028.03614-1.13965.03614-.084,0-.15625-.03614-.15625-.144,0-.21582.13183-.22754.22851-.22754a1.06238,1.06238,0,0,0,1.16309-.83984l1.53515-6.17627a.74085.74085,0,0,0,.04786-.228c0-.2041-.32422-.2041-.69532-.2041-.22851,0-.32421,0-.32421-.144,0-.22754.13183-.22754.32421-.22754h1.59473c.28809,0,.31152,0,.33594.26367l.67187,6.72852,4.07715-6.77637c.13281-.21582.168-.21582.43262-.21582h1.53515c.20313,0,.29981,0,.29981.15576,0,.21582-.1084.21582-.36035.21582-.75586,0-.85156.09619-.94727.48l-1.61914,6.48828a1.20354,1.20354,0,0,0-.04785.27588c0,.10791,0,.2041.69531.2041.24024,0,.32422,0,.32422.15577C283.55078,24.91016,283.40625,24.91016,283.32227,24.91016Z" transform="translate(-4 -16.71875)"/>
  </g>
  <g>
    <path d="M251.58594,78.606a2.043,2.043,0,0,1-1.50147-.57178c-.26953.43311-.29394.46533-.29394.46533-.05713.08985-.06543.10645-.12256.10645-.08984,0-.08984-.05713-.08984-.1958V76.77734c0-.147,0-.2041.10644-.2041a.0849.0849,0,0,1,.09766.08155,1.65242,1.65242,0,0,0,.50634,1.25732,1.96964,1.96964,0,0,0,1.28956.44092,1.11933,1.11933,0,0,0,1.09375-1.16748,1.19447,1.19447,0,0,0-.25293-.751,1.08365,1.08365,0,0,0-.69434-.4165c-.57031-.13868-.98731-.23682-1.07715-.26953a1.58144,1.58144,0,0,1,.52246-3.07764,1.68108,1.68108,0,0,1,1.30664.57178l.28516-.46534c.05762-.09814.06543-.10644.12305-.10644.08984,0,.08984.05713.08984.19629v1.64062c0,.15528,0,.1958-.10645.1958-.08984,0-.08984-.04882-.09863-.09765-.04883-.36768-.22851-1.70655-1.5918-1.70655a1.06721,1.06721,0,0,0-.25244,2.10645l1.04541.25293a1.67025,1.67025,0,0,1,1.22461,1.64892A1.63774,1.63774,0,0,1,251.58594,78.606Z" transform="translate(-4 -16.71875)"/>
    <path d="M255.68359,78.51611a1.84333,1.84333,0,0,1-1.79589-1.88574,1.784,1.784,0,0,1,1.69824-1.86133,1.44836,1.44836,0,0,1,1.46094,1.6001c0,.17139-.02442.17139-.20411.17139h-2.27734a2.376,2.376,0,0,0,.24512,1.22461,1.09836,1.09836,0,0,0,.92187.54687,1.15088,1.15088,0,0,0,1.10254-.84082c.0166-.06543.03223-.11426.10645-.11426a.09409.09409,0,0,1,.10547.09766A1.3951,1.3951,0,0,1,255.68359,78.51611Zm-.09765-3.56738c-.27735,0-.96289.2041-1.01172,1.42041h1.93359C256.50781,76.05078,256.42676,74.94873,255.58594,74.94873Z" transform="translate(-4 -16.71875)"/>
    <path d="M259.90332,75.67529a.33789.33789,0,0,1-.35059-.35107.35188.35188,0,0,1,.1875-.31836.20586.20586,0,0,0-.08984-.0083c-.62109,0-.96289.72656-.96289,1.53467v1.25732c0,.29395.01563.38379.61914.38379h.17188v.25293c-.32618-.02441-.71-.02441-1.03711-.02441l-.92969.02441v-.25293c.54687,0,.63672,0,.63672-.36768v-2.1875c0-.3999-.06641-.457-.63672-.457v-.25342l1.13476-.08984v.89795a1.142,1.142,0,0,1,1.00391-.89795.55685.55685,0,0,1,.60352.49805A.34262.34262,0,0,1,259.90332,75.67529Z" transform="translate(-4 -16.71875)"/>
    <path d="M261.65039,78.40186l-.89844.02441v-.25293c.54688,0,.63672,0,.63672-.36768v-2.1958c0-.3999-.07422-.44873-.60351-.44873v-.25342l1.14257-.08984V77.814c0,.31836.03223.35938.57129.35938v.25293C262.2207,78.418,261.93555,78.40186,261.65039,78.40186Zm-.041-4.47364a.44164.44164,0,0,1-.4336-.43261.437.437,0,1,1,.4336.43261Z" transform="translate(-4 -16.71875)"/>
    <path d="M264.77539,78.51611a1.84317,1.84317,0,0,1-1.79492-1.88574,1.7832,1.7832,0,0,1,1.69726-1.86133,1.44781,1.44781,0,0,1,1.46094,1.6001c0,.17139-.02344.17139-.20312.17139H263.6582a2.38423,2.38423,0,0,0,.24414,1.22461,1.1,1.1,0,0,0,.92286.54687,1.15225,1.15225,0,0,0,1.10253-.84082c.01563-.06543.03125-.11426.10547-.11426a.09409.09409,0,0,1,.10547.09766A1.39509,1.39509,0,0,1,264.77539,78.51611Zm-.09766-3.56738c-.27734,0-.96289.2041-1.01171,1.42041h1.93457C265.60059,76.05078,265.51953,74.94873,264.67773,74.94873Z" transform="translate(-4 -16.71875)"/>
    <path d="M268,78.51611a1.22085,1.22085,0,0,1-.89844-.35107,1.61275,1.61275,0,0,0-.16211.188c-.15625.15478-.16406.16308-.20507.16308-.08985,0-.08985-.05713-.08985-.1958V77.24268c0-.147,0-.20411.10645-.20411.081,0,.08984.03272.11425.13868.15528.69384.44922,1.15918,1.13477,1.15918.63672,0,.92188-.32666.92188-.74268,0-.58789-.66895-.71875-.84766-.751a2.14083,2.14083,0,0,1-1.07813-.376.86845.86845,0,0,1-.35156-.69385c0-.457.31055-1.00391,1.30664-1.00391a1.25814,1.25814,0,0,1,.76758.22852,1.1666,1.1666,0,0,0,.13867-.13037c.10547-.09815.12207-.09815.16309-.09815.08984,0,.08984.05713.08984.1958v.82471c0,.15479,0,.1958-.10644.1958,0,0-.08985,0-.09766-.07324a.90036.90036,0,0,0-.95508-.98779c-.70215,0-.91406.33447-.91406.62011,0,.47364.54687.57959,1.00391.66944a1.66665,1.66665,0,0,1,.93066.39209,1.05341,1.05341,0,0,1,.34277.77539C269.31445,77.96924,268.93945,78.51611,268,78.51611Z" transform="translate(-4 -16.71875)"/>
    <path d="M269.68164,76.8999v-.47363h2.16211v.47363Z" transform="translate(-4 -16.71875)"/>
    <path d="M274.3418,78.51611a1.82276,1.82276,0,0,1-1.80469-1.83691,1.8113,1.8113,0,1,1,3.61719,0A1.81886,1.81886,0,0,1,274.3418,78.51611Zm.92187-3.03662a1.067,1.067,0,0,0-.92187-.53076,1.09508,1.09508,0,0,0-.93067.54688,2.33621,2.33621,0,0,0-.19629,1.11816,2.42019,2.42019,0,0,0,.20508,1.15137,1.065,1.065,0,0,0,.92969.54687,1.05391,1.05391,0,0,0,.94727-.604,2.4804,2.4804,0,0,0,.17968-1.09424A2.2327,2.2327,0,0,0,275.26367,75.47949Z" transform="translate(-4 -16.71875)"/>
    <path d="M278.82227,78.51611a1.11091,1.11091,0,0,1-1.00391-.57129v1.44483c0,.36719.08984.36719.63672.36719v.25293l-.92188-.02442-.91406.02442v-.25293c.54688,0,.63672,0,.63672-.36719v-3.8208c0-.35889-.05762-.40772-.63672-.40772v-.25342l1.17578-.08984v.53906a1.4681,1.4681,0,0,1,1.14258-.53906,1.78592,1.78592,0,0,1,1.70508,1.84522A1.839,1.839,0,0,1,278.82227,78.51611Zm.04882-3.49414a1.22421,1.22421,0,0,0-1.05273.65332v1.82032a.42582.42582,0,0,0,.11523.34277,1.01525,1.01525,0,0,0,.85645.498c.60449,0,1.17578-.68555,1.17578-1.67334C279.96582,75.74072,279.46777,75.022,278.87109,75.022Z" transform="translate(-4 -16.71875)"/>
    <path d="M283.36133,78.51611a1.10661,1.10661,0,0,1-1.00391-.57129v1.44483c0,.36719.08985.36719.63672.36719v.25293l-.92285-.02442-.915.02442v-.25293c.54688,0,.63672,0,.63672-.36719v-3.8208c0-.35889-.05664-.40772-.63672-.40772v-.25342l1.17578-.08984v.53906a1.4717,1.4717,0,0,1,1.14258-.53906,1.78684,1.78684,0,0,1,1.707,1.84522A1.84025,1.84025,0,0,1,283.36133,78.51611Zm.04883-3.49414a1.22305,1.22305,0,0,0-1.05274.65332v1.82032a.43054.43054,0,0,0,.11328.34277,1.018,1.018,0,0,0,.85743.498c.60351,0,1.17578-.68555,1.17578-1.67334C284.50391,75.74072,284.00586,75.022,283.41016,75.022Z" transform="translate(-4 -16.71875)"/>
    <path d="M287.72754,78.51611a1.822,1.822,0,0,1-1.80371-1.83691,1.81083,1.81083,0,1,1,3.61621,0A1.81948,1.81948,0,0,1,287.72754,78.51611Zm.92285-3.03662a1.0709,1.0709,0,0,0-.92285-.53076,1.09505,1.09505,0,0,0-.93066.54688,2.34649,2.34649,0,0,0-.19532,1.11816,2.44076,2.44076,0,0,0,.20313,1.15137,1.06794,1.06794,0,0,0,.93164.54687,1.05248,1.05248,0,0,0,.94629-.604,2.4804,2.4804,0,0,0,.17968-1.09424A2.2417,2.2417,0,0,0,288.65039,75.47949Z" transform="translate(-4 -16.71875)"/>
    <path d="M291.40039,78.51611a1.22085,1.22085,0,0,1-.89844-.35107,1.92067,1.92067,0,0,0-.16308.188c-.15528.15478-.16309.16308-.2041.16308-.08985,0-.08985-.05713-.08985-.1958V77.24268c0-.147,0-.20411.10547-.20411.082,0,.08984.03272.11524.13868.15429.69384.44921,1.15918,1.13476,1.15918.63672,0,.92188-.32666.92188-.74268,0-.58789-.66993-.71875-.84961-.751a2.1323,2.1323,0,0,1-1.07618-.376.86845.86845,0,0,1-.35156-.69385c0-.457.31055-1.00391,1.30664-1.00391a1.25721,1.25721,0,0,1,.7666.22852,1.17523,1.17523,0,0,0,.13965-.13037c.10547-.09815.1211-.09815.16211-.09815.08985,0,.08985.05713.08985.1958v.82471c0,.15479,0,.1958-.10547.1958,0,0-.08985,0-.09766-.07324a.90154.90154,0,0,0-.95508-.98779c-.70312,0-.915.33447-.915.62011,0,.47364.54688.57959,1.00489.66944a1.66664,1.66664,0,0,1,.92968.39209,1.0533,1.0533,0,0,1,.34375.77539C292.71484,77.96924,292.33887,78.51611,291.40039,78.51611Z" transform="translate(-4 -16.71875)"/>
    <path d="M294.1582,78.40186l-.89746.02441v-.25293c.54688,0,.63672,0,.63672-.36768v-2.1958c0-.3999-.07324-.44873-.60449-.44873v-.25342l1.14258-.08984V77.814c0,.31836.0332.35938.57226.35938v.25293C294.73047,78.418,294.44434,78.40186,294.1582,78.40186Zm-.041-4.47364a.44057.44057,0,0,1-.43164-.43261.43563.43563,0,0,1,.44043-.43262.43266.43266,0,1,1-.00879.86523Z" transform="translate(-4 -16.71875)"/>
    <path d="M298.71289,78.40186l-.92187.02441v-.25293c.54687,0,.63671,0,.63671-.36768V75.90381c0-.46533-.08984-.90625-.60351-.90625a1.19188,1.19188,0,0,0-1.10254,1.30615v1.502c0,.36768.08984.36768.63672.36768v.25293l-.915-.02441-.92188.02441v-.25293c.54688,0,.63672,0,.63672-.36768v-2.1875c0-.3999-.06543-.457-.63672-.457v-.25342l1.1504-.08984v.85742a1.28808,1.28808,0,0,1,1.209-.85742,1.0924,1.0924,0,0,1,.85742.30225c.252.29394.252.54687.252,1.249v1.55908c.00879.24512.2129.24512.6377.24512v.25293Z" transform="translate(-4 -16.71875)"/>
    <path d="M303.52148,75.37305a.232.232,0,0,1-.2373-.23682.21793.21793,0,0,1,.12988-.22021.35911.35911,0,0,0-.08105-.00831,1.072,1.072,0,0,0-.73438.31836,1.10332,1.10332,0,0,1,.335.792A1.26424,1.26424,0,0,1,301.61133,77.21a1.38935,1.38935,0,0,1-.8086-.25293.60113.60113,0,0,0-.13867.3833.53261.53261,0,0,0,.43164.54737c.05762.00781.40821.00781.61328.00781a2.90407,2.90407,0,0,1,1.4043.22851,1.04474,1.04474,0,0,1,.53027.93067c0,.63672-.84863,1.05322-1.8125,1.05322-.99609,0-1.80371-.44873-1.80371-1.03662a.92038.92038,0,0,1,.75-.81641.87261.87261,0,0,1-.35839-.72656,1.1332,1.1332,0,0,1,.25293-.67773,1.12433,1.12433,0,0,1-.38379-.84082,1.2639,1.2639,0,0,1,1.32324-1.1919,1.36334,1.36334,0,0,1,.86523.29395,1.25548,1.25548,0,0,1,.86524-.38379.39915.39915,0,0,1,.416.40039A.23558.23558,0,0,1,303.52148,75.37305Zm-1.91894,2.99609h-.48145a.7191.7191,0,0,0-.66992.70215c0,.43262.56348.84912,1.38867.84912.79883,0,1.37891-.4082,1.37891-.84912C303.21875,78.36914,302.30469,78.36914,301.60254,78.36914Zm.00879-3.36328a.70391.70391,0,0,0-.58008.32666,1.33373,1.33373,0,0,0-.13086.68555c0,.188,0,1.0039.71094,1.0039a.706.706,0,0,0,.5791-.32617,1.34387,1.34387,0,0,0,.12988-.686C302.32031,75.82227,302.32031,75.00586,301.61133,75.00586Z" transform="translate(-4 -16.71875)"/>
  </g>
</svg>
