<?xml version="1.0" encoding="utf-8"?>
<!-- Generator: Adobe Illustrator 23.0.3, SVG Export Plug-In . SVG Version: 6.00 Build 0)  -->
<svg version="1.1" id="Layer_1" xmlns="http://www.w3.org/2000/svg" xmlns:xlink="http://www.w3.org/1999/xlink" x="0px" y="0px"
	 viewBox="0 0 302.10645 125.11994" style="enable-background:new 0 0 302.10645 125.11994;" xml:space="preserve">
<style type="text/css">
	.st0{fill:none;stroke:#8FF4DD;stroke-width:2;stroke-linecap:round;stroke-linejoin:round;}
	.st1{fill:none;stroke:#8FF4DD;stroke-width:1.5;stroke-linecap:square;}
	.st2{fill:#8FF4DD;}
	.st3{fill:none;stroke:#FD1D53;stroke-miterlimit:10;}
	.st4{fill:#FD1D53;}
	.st5{fill:none;stroke:#8FF4DD;stroke-width:2;stroke-linecap:round;}
	.st6{fill:none;stroke:#8FF4DD;stroke-width:2;stroke-linecap:square;}
	.st7{fill:none;stroke:#8FF4DD;stroke-width:0.5;}
	.st8{fill:#8FF4DD;stroke:#8FF4DD;stroke-width:2;}
</style>
<title>DotConvention</title>
<polyline class="st0" points="69,41.28082 69,31.28082 98.02,31.28082 109,31.28082 "/>
<line class="st1" x1="91.5" y1="42.28107" x2="96.5" y2="42.28107"/>
<line class="st1" x1="94" y1="44.78107" x2="94" y2="39.78107"/>
<line class="st1" x1="91.5" y1="92.28107" x2="96.5" y2="92.28107"/>
<g>
	<path class="st2" d="M18.85547,49.25568c-0.49548,0.00884-0.90431-0.38566-0.91315-0.88113
		c-0.00047-0.02613,0.00021-0.05227,0.00202-0.07834c0.01635-0.28746,0.08971-0.56879,0.21582-0.82764l0.44336-1.187
		l0.36035-0.99561c0.11804-0.27423,0.19093-0.56577,0.21582-0.86328c0-0.27588-0.13184-0.33594-0.26367-0.33594
		c-0.69629,0-1.00782,1.11524-1.11622,1.51123c-0.04785,0.16749-0.05957,0.1919-0.21582,0.1919
		c-0.05957,0-0.17968,0-0.17968-0.12012c0-0.06006,0.4082-1.84717,1.53515-1.84717c0.48832-0.01009,0.89236,0.37759,0.90244,0.8659
		c0.00064,0.03123-0.00037,0.06246-0.00302,0.09358c-0.00102,0.23146-0.0499,0.46021-0.14355,0.67187l-0.76758,2.05078
		c-0.16033,0.36629-0.26563,0.75428-0.3125,1.15137c0,0.32373,0.168,0.33594,0.26465,0.33594
		c0.69531,0,1.01953-1.15137,1.11523-1.499c0.04785-0.18017,0.04785-0.2041,0.2041-0.2041c0.084,0,0.17969,0,0.17969,0.12012
		C20.37891,47.45686,19.9834,49.25568,18.85547,49.25568z M19.93457,42.55158c-0.28114,0.01614-0.52213-0.19868-0.53827-0.47982
		c-0.00069-0.01192-0.00095-0.02386-0.00079-0.03581c0.02892-0.40934,0.35785-0.73324,0.76758-0.75586
		c0.28087-0.0164,0.52185,0.19801,0.53824,0.47888c0.00072,0.01224,0.00099,0.0245,0.00082,0.03675
		C20.67323,42.20506,20.3443,42.52896,19.93457,42.55158z"/>
	<path class="st2" d="M21.88867,53.09895c-0.2793,0-0.88672,0-1.13184,0.021v-0.2168h0.22363
		c0.62891,0,0.65039-0.0835,0.65039-0.33545v-3.62013c-0.28772,0.12893-0.60085,0.19119-0.916,0.18213v-0.21679
		c0.46722,0.02941,0.92639-0.13199,1.27246-0.44727c0.16016,0,0.16016,0.01367,0.16016,0.18164v3.92041
		c0,0.25879,0.02148,0.33545,0.65039,0.33545h0.22363v0.2168C22.77637,53.09895,22.16901,53.09895,21.88867,53.09895z"/>
</g>
<g>
	<path class="st2" d="M93.30127,68.32307c-0.73785,0.07518-1.39696-0.46203-1.47214-1.19989
		c-0.00809-0.07946-0.00908-0.15948-0.00296-0.23911c0.08199-0.79485,0.28828-1.57189,0.61133-2.30274
		c0.15265-0.34232,0.24989-0.70673,0.28809-1.07959c0-0.312-0.13184-0.34765-0.26369-0.34765
		c-0.6958,0-1.01953,1.13916-1.11572,1.51123c-0.04785,0.16748-0.06006,0.19189-0.21582,0.19189
		c-0.06006,0-0.17969,0-0.17969-0.12012c0-0.07177,0.41943-1.84716,1.53516-1.84716
		c0.49614-0.00864,0.90535,0.38657,0.91399,0.88271c0.00052,0.02969-0.00043,0.05938-0.00285,0.08897
		c-0.0112,0.20569-0.05573,0.4082-0.13184,0.59961c-0.36459,0.82727-0.60307,1.70454-0.70752,2.60253
		c0,0.396,0.13184,0.99561,0.77979,0.99561c1.37891,0,1.94287-3.01025,1.94287-3.34619
		c0.01711-0.34567-0.09872-0.68478-0.32373-0.94775c-0.09361-0.08243-0.14995-0.19917-0.15625-0.32374
		c0.03111-0.29996,0.27466-0.53339,0.57568-0.55175c0.34814,0,0.4917,0.37207,0.4917,0.7915
		C95.86768,63.99348,95.31592,68.32307,93.30127,68.32307z"/>
	<path class="st2" d="M98.41748,72.18732h-2.59277c0-0.168,0-0.18164,0.07666-0.25879l1.3418-1.49512
		c0.41832-0.41292,0.6781-0.95979,0.73389-1.54492c0-0.57275-0.30078-1.13867-0.93652-1.13867
		c-0.43536,0.00864-0.81592,0.29601-0.94336,0.7124c0.02968-0.00739,0.06038-0.00969,0.09082-0.00683
		c0.19493-0.00935,0.36052,0.1411,0.36986,0.33603c0.00044,0.00908,0.00052,0.01817,0.00026,0.02725
		c0.00198,0.20274-0.16078,0.36871-0.36353,0.37068s-0.3687-0.16077-0.37068-0.36352
		c-0.00009-0.0094,0.00018-0.01879,0.00081-0.02817c0.01453-0.70877,0.59778-1.27328,1.30664-1.26465
		c0.75575-0.06008,1.41711,0.50387,1.47719,1.25961c0.00253,0.0319,0.00395,0.06387,0.00426,0.09586
		c0,0.69922-0.41895,1.07666-1.50928,2.041l-0.74072,0.71972h1.25781c0.22292,0.01405,0.44667-0.00487,0.66406-0.05615
		c0.07994-0.19903,0.1317-0.40824,0.15381-0.62158h0.17432L98.41748,72.18732z"/>
	<path class="st2" d="M111.20799,64.26936h-7.15967c-0.18018,0-0.40771,0-0.40771-0.23974s0.22752-0.23975,0.39549-0.23975h7.18408
		c0.168,0,0.396,0,0.396,0.23975S111.38818,64.26936,111.20799,64.26936z M111.2202,66.59602h-7.18408
		c-0.168,0-0.39549,0-0.39549-0.23974s0.22752-0.23975,0.40771-0.23975h7.15965c0.18018,0,0.4082,0,0.4082,0.23975
		s-0.22801,0.23974-0.39598,0.23974H111.2202z"/>
	<path class="st2" d="M120.10352,60.24592l0.73242,6.39844l4.61133-6.39844h1.93945v0.2168
		c-0.24995,0.00578-0.49893,0.03321-0.74414,0.082c-0.14546,0.06464-0.26874,0.17059-0.35449,0.30469
		c-0.15811,0.27456-0.27556,0.57062-0.34863,0.87891l-1.4707,5.03906c-0.07372,0.22366-0.11707,0.4562-0.12891,0.6914
		c-0.00835,0.13443,0.05103,0.26414,0.1582,0.34571c0.21037,0.12989,0.45665,0.1894,0.70313,0.16992h0.14063l-0.05273,0.2168
		h-3.3457l0.05859-0.2168h0.1582c0.23367,0.01298,0.467-0.03127,0.67969-0.12891c0.14101-0.08349,0.25415-0.20683,0.3252-0.35449
		c0.16743-0.37324,0.30174-0.76047,0.40137-1.15723l1.3125-4.60546l-4.63477,6.46289h-0.23438l-0.74414-6.46289l-1.418,4.916
		c-0.09215,0.27351-0.15308,0.55656-0.18164,0.84375c-0.00697,0.13007,0.05261,0.25478,0.1582,0.33106
		c0.2412,0.10799,0.50337,0.16103,0.76758,0.15527l-0.06445,0.2168h-2.61911l0.06445-0.2168h0.1582
		c0.30864,0.02908,0.61462-0.07792,0.83789-0.293c0.18727-0.27724,0.32047-0.58736,0.39258-0.91406l1.72852-5.92383
		c-0.10312-0.11436-0.22881-0.20614-0.36914-0.26953c-0.21124-0.06433-0.42978-0.10174-0.65039-0.11133l0.05859-0.2168
		L120.10352,60.24592z"/>
</g>
<g>
	<path class="st3" d="M41.021,24.52198c0.41945-7.44426,6.79425-13.13898,14.23851-12.71953
		c6.85815,0.38643,12.33279,5.86084,12.7195,12.71898"/>
	<polygon class="st4" points="44.147,22.49382 43.683,21.96882 41.1,24.25782 39.006,21.51482 38.449,21.93983 41.001,25.28082 	"/>
	<polygon class="st4" points="64.853,22.49382 65.317,21.96882 67.9,24.25782 69.994,21.51482 70.551,21.93983 67.999,25.28082 	"/>
</g>
<path class="st2" d="M58.32227,8.19123c-0.44336,0-0.93555-0.03614-1.39063-0.03614c-0.45599,0-0.92383,0.03614-1.36719,0.03614
	c-0.07823,0.01342-0.15253-0.0391-0.16595-0.11733c-0.00151-0.00881-0.0022-0.01774-0.00204-0.02667
	c0-0.22754,0.13184-0.22754,0.32326-0.22754c0.81543,0,0.8877-0.09619,0.9834-0.5039l1.69141-6.78809H58.3828l-4.47363,7.44776
	c-0.07227,0.13183-0.13184,0.21582-0.28809,0.21582c-0.17969,0-0.17969-0.084-0.2041-0.28809l-0.73145-7.26758h-0.01172
	l-1.59473,6.36817c-0.02975,0.09727-0.04617,0.19812-0.04883,0.2998c0,0.18018,0.02441,0.4917,0.70799,0.51611
	c0.14355,0,0.22754,0.01172,0.22754,0.15577c0,0.21582-0.14355,0.21582-0.21582,0.21582c-0.37109,0-0.791-0.03614-1.1748-0.03614
	c-0.37207,0-0.78027,0.03614-1.13965,0.03614c-0.084,0-0.15625-0.03614-0.15625-0.144c0-0.21582,0.13184-0.22754,0.22852-0.22754
	c0.54671,0.06361,1.05148-0.30087,1.16309-0.83984l1.53516-6.17627c0.02788-0.073,0.04404-0.14995,0.04787-0.228
	c0-0.2041-0.32422-0.2041-0.69531-0.2041c-0.22852,0-0.3242,0-0.3242-0.144C51.23438,0,51.36621,0,51.55858,0h1.59473
	c0.28809,0,0.31152,0,0.33594,0.26367l0.67188,6.72852l4.07715-6.77637C58.37108,0,58.40627,0,58.67088,0h1.53516
	c0.20313,0,0.2998,0,0.2998,0.15576c0,0.21582-0.1084,0.21582-0.36035,0.21582c-0.75586,0-0.85156,0.09619-0.94727,0.48
	l-1.61914,6.48828c-0.02663,0.08979-0.04269,0.18237-0.04785,0.27588c0,0.10791,0,0.2041,0.69531,0.2041
	c0.24023,0,0.32422,0,0.32422,0.15577C58.55078,8.19123,58.40625,8.19123,58.32227,8.19123z"/>
<g>
	<path class="st0" d="M41,57.3644c2.46227-0.00223,4.45651-2.0001,4.45428-4.46236C45.45206,50.44292,43.45911,48.44997,41,48.44775
		V31.28107H1"/>
	<path class="st5" d="M41,57.3644c2.46227,0.0034,4.45558,2.00223,4.45218,4.46449c-0.0034,2.45747-1.99472,4.44878-4.45218,4.45218
		"/>
	<path class="st5" d="M41,66.28107c2.46227,0.0034,4.45558,2.00223,4.45218,4.46449
		c-0.0034,2.45747-1.99472,4.44878-4.45218,4.45218"/>
	<path class="st0" d="M41,75.19775c2.46227,0.00223,4.45651,2.0001,4.45428,4.46236C45.45206,82.11922,43.45911,84.11217,41,84.1144
		v17.16667H1"/>
</g>
<polyline class="st6" points="13,35.28082 27,35.28082 24,38.28082 "/>
<g>
	<path class="st0" d="M69,41.28107v7.16667c-2.46227-0.00223-4.46014,1.99202-4.46237,4.45429
		c-0.00223,2.46227,1.99202,4.46014,4.4543,4.46236c0.00269,0,0.00539,0,0.00807,0"/>
	<path class="st5" d="M69,57.3644c-2.46227,0.0034-4.45558,2.00223-4.45218,4.46449c0.0034,2.45747,1.99472,4.44878,4.45218,4.45218
		"/>
	<path class="st5" d="M69,66.28107c-2.46227,0.0034-4.45558,2.00223-4.45218,4.46449
		c0.0034,2.45747,1.99472,4.44878,4.45218,4.45218"/>
	<path class="st0" d="M69,75.19775c-2.46227-0.00223-4.46014,1.99202-4.46237,4.45429
		c-0.00223,2.46227,1.99202,4.46014,4.4543,4.46236c0.00269,0,0.00539,0,0.00807,0v7.16667"/>
</g>
<polyline class="st0" points="69,91.28082 69,101.28082 98.02,101.28082 109,101.28082 "/>
<polyline class="st6" points="84,26.28082 98,26.28082 95,23.28082 "/>
<g>
	<path class="st2" d="M89.85547,15.25568c-0.49548,0.00884-0.90431-0.38566-0.91316-0.88114
		c-0.00046-0.02613,0.00021-0.05226,0.00203-0.07833c0.01634-0.28746,0.08971-0.5688,0.21582-0.82764l0.44336-1.187l0.36035-0.99561
		c0.11804-0.27423,0.19093-0.56576,0.21582-0.86328c0-0.27588-0.13184-0.33594-0.26367-0.33594
		c-0.69629,0-1.00781,1.11524-1.11623,1.51123c-0.04785,0.16749-0.05957,0.1919-0.21582,0.1919
		c-0.05957,0-0.17969,0-0.17969-0.12012c0-0.06006,0.4082-1.84717,1.53516-1.84717c0.48831-0.01009,0.89235,0.37759,0.90244,0.86591
		c0.00064,0.03122-0.00037,0.06246-0.00302,0.09357c-0.00102,0.23146-0.0499,0.46021-0.14355,0.67187l-0.76758,2.05078
		c-0.16032,0.36629-0.26564,0.75428-0.3125,1.15137c0,0.32373,0.168,0.33594,0.26465,0.33594
		c0.69531,0,1.01953-1.15137,1.11523-1.499c0.04785-0.18017,0.04785-0.2041,0.2041-0.2041c0.084,0,0.17969,0,0.17969,0.12012
		C91.37891,13.45686,90.9834,15.25568,89.85547,15.25568z M90.93457,8.55158c-0.28114,0.01614-0.52213-0.19868-0.53827-0.47982
		c-0.00069-0.01192-0.00095-0.02387-0.00079-0.03581c0.02892-0.40934,0.35785-0.73324,0.76758-0.75586
		c0.28087-0.01639,0.52185,0.19801,0.53824,0.47888c0.00072,0.01224,0.00099,0.02449,0.00082,0.03675
		C91.67323,8.20506,91.3443,8.52896,90.93457,8.55158z"/>
	<path class="st2" d="M94.03516,19.11995h-2.59277c0-0.168,0-0.18164,0.07715-0.25879l1.3418-1.49512
		c0.418-0.41309,0.67758-0.9599,0.7334-1.54492c0-0.57275-0.30078-1.13867-0.93652-1.13867
		c-0.43532,0.00879-0.81578,0.2961-0.94336,0.7124c0.02968-0.00733,0.06038-0.00964,0.09082-0.00684
		c0.19476-0.00951,0.36035,0.14066,0.36986,0.33542c0.00046,0.00928,0.00053,0.01857,0.00026,0.02786
		c0.00198,0.20274-0.16077,0.36871-0.36353,0.37069c-0.20274,0.00198-0.3687-0.16077-0.37068-0.36352
		c-0.00009-0.0094,0.00018-0.01879,0.00081-0.02817c0.01469-0.70869,0.59784-1.27311,1.30664-1.26465
		c0.75575-0.06007,1.41711,0.50388,1.47719,1.25964c0.00253,0.03188,0.00395,0.06383,0.00426,0.09581
		c0,0.69922-0.41895,1.07666-1.50879,2.041l-0.74121,0.71973h1.25781c0.22292,0.01411,0.44669-0.00481,0.66406-0.05615
		c0.08043-0.19884,0.13206-0.40814,0.15332-0.62158h0.1748L94.03516,19.11995z"/>
</g>
<g>
	<g>
		<path class="st2" d="M135.30762,58.01108c-0.14676,0.44753-0.55315,0.7591-1.02344,0.78467
			c-0.5757,0.00272-1.06818-0.41301-1.16211-0.981c-0.38704,0.56004-1.00269,0.9194-1.68066,0.981
			c-1.05078,0-1.69531-0.981-1.69531-2.17139c0-2.04492,1.65332-4.17431,3.20799-4.17431
			c0.51953,0.01084,0.98253,0.33051,1.17676,0.8125l0.8125-3.27784c0,0,0.04201-0.19629,0.04201-0.23828
			c0-0.13965-0.02832-0.23779-0.70117-0.23779c-0.19531,0-0.33594,0-0.33594-0.1543c0-0.26611,0.1543-0.28027,0.32227-0.29394
			l1.38672-0.11231c0.07388-0.01599,0.14906-0.02531,0.22461-0.02783c0.11131,0,0.19531,0.042,0.19531,0.168
			c0,0-0.02734,0.14014-0.04201,0.18213l-2.00293,7.99853c-0.05621,0.21004-0.08446,0.42657-0.084,0.644
			c0,0.19629,0,0.57421,0.36426,0.57421c0.47656,0,0.74219-0.88232,0.93848-1.6665c0.084-0.30859,0.09863-0.32226,0.2666-0.32226
			c0.09766,0,0.21001,0,0.21001,0.14013C135.63281,57.10866,135.49216,57.56839,135.30762,58.01108z M133.87891,54.24301
			c0.02263-0.05839,0.03677-0.11972,0.04201-0.18212c-0.02257-0.31654-0.11853-0.62347-0.28027-0.89649
			c-0.13779-0.25034-0.40077-0.40596-0.68652-0.40625c-0.57422,0-1.21875,0.70068-1.56934,1.55518
			c-0.35971,0.94035-0.59064,1.92501-0.68652,2.92724c0,0.42041,0.1123,1.24658,0.77051,1.24658
			c0.77051,0,1.625-1.1206,1.7373-1.55468L133.87891,54.24301z"/>
		<path class="st2" d="M138.24512,58.79572c-0.57906,0.01011-1.05667-0.45111-1.06677-1.03016
			c-0.00053-0.03017,0.00024-0.06035,0.00232-0.09045c0.01892-0.33581,0.10458-0.66447,0.252-0.96679l0.51855-1.38672
			l0.41992-1.1626c0.13814-0.32021,0.22324-0.66076,0.252-1.0083c0-0.32227-0.15332-0.39258-0.30762-0.39258
			c-0.8125,0-1.17676,1.30274-1.30273,1.76514c-0.05666,0.1958-0.07031,0.22412-0.252,0.22412c-0.07031,0-0.21001,0-0.21001-0.14014
			c0-0.06982,0.47559-2.15722,1.793-2.15722c0.5701-0.01167,1.04172,0.44103,1.05338,1.01113
			c0.00075,0.03653-0.00044,0.07307-0.00357,0.10947c-0.00121,0.27035-0.05841,0.53752-0.168,0.78467l-0.89648,2.395
			c-0.18663,0.42798-0.30937,0.88106-0.36426,1.34472c0,0.37842,0.19629,0.39209,0.30859,0.39209
			c0.8125,0,1.19043-1.34472,1.30273-1.75048c0.05566-0.21045,0.05566-0.23828,0.23828-0.23828c0.09766,0,0.21001,0,0.21001,0.14013
			C140.02441,56.69417,139.56152,58.79572,138.24512,58.79572z M139.50586,50.96516
			c-0.32829,0.01906-0.60986-0.23162-0.62894-0.55991c-0.00081-0.01402-0.00113-0.02805-0.00095-0.04209
			c0.03377-0.47809,0.41794-0.85639,0.89648-0.88281c0.3282-0.01915,0.60977,0.23138,0.62894,0.55957
			c0.00082,0.01431,0.00114,0.02864,0.00095,0.04297C140.3685,50.56085,139.9843,50.93896,139.50586,50.96516z"/>
		<path class="st2" d="M141.7832,63.27912c-0.32617,0-1.03613,0-1.32227,0.02441V63.0506h0.26172
			c0.73438,0,0.75879-0.09814,0.75879-0.39209v-4.2285c-0.33591,0.15041-0.70145,0.22301-1.06934,0.2124v-0.25342
			c0.54546,0.03434,1.0815-0.15421,1.48535-0.52246c0.18848,0,0.18848,0.0166,0.18848,0.2124v4.57959
			c0,0.30225,0.02441,0.39209,0.75879,0.39209h0.26172v0.25293C142.82031,63.27912,142.11035,63.27912,141.7832,63.27912z"/>
	</g>
	<g>
		<path class="st2" d="M136.88623,77.01108c-0.14676,0.44753-0.55315,0.75911-1.02344,0.78467
			c-0.5757,0.00272-1.06818-0.41301-1.16211-0.981c-0.38704,0.56004-1.00269,0.9194-1.68066,0.981
			c-1.05078,0-1.69531-0.981-1.69531-2.17139c0-2.04492,1.65332-4.17431,3.20799-4.17431
			c0.51953,0.01083,0.98253,0.33051,1.17676,0.8125l0.8125-3.27784c0,0,0.04201-0.19629,0.04201-0.23828
			c0-0.13965-0.02832-0.23779-0.70117-0.23779c-0.19531,0-0.33594,0-0.33594-0.1543c0-0.26611,0.1543-0.28027,0.32227-0.29394
			l1.38672-0.11231c0.07388-0.01599,0.14906-0.02531,0.22461-0.02783c0.11133,0,0.19531,0.042,0.19531,0.168
			c0,0-0.02734,0.14014-0.04201,0.18213l-2.00293,7.99853c-0.05621,0.21004-0.08446,0.42657-0.084,0.644
			c0,0.19629,0,0.57421,0.36424,0.57421c0.47656,0,0.74219-0.88232,0.93848-1.6665c0.084-0.30859,0.09863-0.32226,0.2666-0.32226
			c0.09766,0,0.21001,0,0.21001,0.14013C137.21141,76.10866,137.07077,76.56839,136.88623,77.01108z M135.45752,73.24301
			c0.02263-0.05839,0.03677-0.11972,0.04201-0.18212c-0.02257-0.31654-0.11853-0.62347-0.28027-0.89649
			c-0.13779-0.25034-0.40077-0.40596-0.68652-0.40625c-0.5742,0-1.21875,0.70068-1.56934,1.55518
			c-0.35971,0.94035-0.59064,1.92501-0.68652,2.92724c0,0.42041,0.1123,1.24658,0.77049,1.24658
			c0.77051,0,1.625-1.1206,1.7373-1.55468L135.45752,73.24301z"/>
		<path class="st2" d="M139.82373,77.79572c-0.65239,0.00652-1.18654-0.51707-1.19305-1.16946
			c-0.00031-0.03045,0.00058-0.0609,0.00262-0.09129c0.00526-0.16101,0.02885-0.3209,0.07031-0.47657l1.00781-4.02h-1.12012
			c-0.22461,0-0.35059,0-0.35059-0.168c0-0.26612,0.1543-0.26612,0.39258-0.26612h1.19043l0.54688-2.22754
			c0.03767-0.27708,0.26668-0.48846,0.54588-0.5039c0.1931-0.01518,0.36195,0.12904,0.37714,0.32214
			c0.00108,0.01385,0.00136,0.02775,0.00079,0.04163c-0.0011,0.10065-0.01994,0.20033-0.05566,0.29443l-0.51855,2.07324h1.12109
			c0.22314,0,0.3501,0,0.3501,0.168c0,0.26611-0.1543,0.26611-0.39209,0.26611h-1.19141l-1.03613,4.16016
			c-0.06375,0.2328-0.09659,0.47299-0.09766,0.71436c0,0.22412,0,0.57421,0.37793,0.57421c0.79785,0,1.3584-1.05029,1.61035-1.72265
			c0.1123-0.25244,0.1123-0.26611,0.28027-0.26611c0.09863,0,0.21001,0,0.21001,0.14013
			C141.95264,75.70833,141.23877,77.79572,139.82373,77.79572z"/>
	</g>
	<line class="st7" x1="129" y1="64.65266" x2="143" y2="64.65266"/>
</g>
<circle class="st8" cx="34" cy="48.28107" r="1"/>
<circle class="st8" cx="76" cy="48.28107" r="1"/>
<polyline class="st0" points="224,41.28082 224,31.28082 253.01999,31.28082 264,31.28082 "/>
<line class="st1" x1="246.5" y1="42.28107" x2="251.5" y2="42.28107"/>
<line class="st1" x1="249" y1="44.78107" x2="249" y2="39.78107"/>
<line class="st1" x1="246.5" y1="92.28107" x2="251.5" y2="92.28107"/>
<g>
	<path class="st2" d="M173.85547,49.25568c-0.49548,0.00884-0.90433-0.38566-0.91315-0.88113
		c-0.00049-0.02613,0.00021-0.05227,0.00201-0.07834c0.01636-0.28746,0.08972-0.56879,0.21582-0.82764l0.44336-1.187
		l0.36035-0.99561c0.11804-0.27423,0.19092-0.56577,0.21582-0.86328c0-0.27588-0.13184-0.33594-0.26367-0.33594
		c-0.69629,0-1.00781,1.11524-1.11621,1.51123c-0.04785,0.16749-0.05957,0.1919-0.21582,0.1919
		c-0.05957,0-0.17969,0-0.17969-0.12012c0-0.06006,0.4082-1.84717,1.53516-1.84717c0.48831-0.01009,0.89236,0.37759,0.90244,0.86591
		c0.00064,0.03122-0.00037,0.06245-0.00302,0.09357c-0.00104,0.23146-0.0499,0.46021-0.14355,0.67187l-0.76758,2.05078
		c-0.16034,0.36629-0.26563,0.75428-0.3125,1.15137c0,0.32373,0.168,0.33594,0.26465,0.33594
		c0.69531,0,1.01953-1.15137,1.11523-1.499c0.04785-0.18017,0.04785-0.2041,0.2041-0.2041c0.08401,0,0.17969,0,0.17969,0.12012
		C175.37891,47.45686,174.9834,49.25568,173.85547,49.25568z M174.93457,42.55158c-0.28113,0.01614-0.52213-0.19868-0.53827-0.47982
		c-0.00067-0.01192-0.00095-0.02386-0.00079-0.03581c0.02893-0.40934,0.35785-0.73324,0.76758-0.75586
		c0.28088-0.0164,0.52185,0.19801,0.53824,0.47888c0.00073,0.01224,0.00101,0.0245,0.00082,0.03675
		C175.67322,42.20506,175.3443,42.52896,174.93457,42.55158z"/>
	<path class="st2" d="M176.88867,53.09895c-0.2793,0-0.88672,0-1.13184,0.021v-0.2168h0.22363
		c0.62891,0,0.65039-0.0835,0.65039-0.33545v-3.62013c-0.28772,0.12893-0.60083,0.19118-0.91599,0.18213v-0.21679
		c0.46722,0.02941,0.92639-0.13199,1.27246-0.44727c0.16016,0,0.16016,0.01367,0.16016,0.18164v3.92041
		c0,0.25879,0.02148,0.33545,0.65039,0.33545h0.22363v0.2168C177.77637,53.09895,177.16901,53.09895,176.88867,53.09895z"/>
</g>
<g>
	<path class="st2" d="M248.30078,68.32307c-0.73779,0.075-1.3967-0.46231-1.47168-1.2001
		c-0.00809-0.07938-0.00906-0.15934-0.00293-0.2389c0.08224-0.7948,0.28851-1.57181,0.61133-2.30274
		c0.15265-0.34232,0.24988-0.70673,0.28809-1.07959c0-0.312-0.13184-0.34765-0.26367-0.34765
		c-0.69629,0-1.01953,1.13916-1.11621,1.51123c-0.04688,0.16748-0.05957,0.19189-0.21484,0.19189
		c-0.06055,0-0.17969,0-0.17969-0.12012c0-0.07177,0.41895-1.84716,1.53516-1.84716
		c0.49573-0.00854,0.90454,0.38641,0.91309,0.88215c0.00052,0.02988-0.00046,0.05975-0.00293,0.08953
		c-0.01111,0.2056-0.0553,0.40807-0.13086,0.59961c-0.36496,0.82718-0.60361,1.70447-0.70801,2.60253
		c0,0.396,0.13184,0.99561,0.78027,0.99561c1.37891,0,1.94238-3.01025,1.94238-3.34619
		c0.01709-0.34558-0.09854-0.68462-0.32324-0.94775c-0.0936-0.08243-0.14996-0.19917-0.15625-0.32374
		c0.03073-0.29997,0.2742-0.53353,0.5752-0.55175c0.34863,0,0.49121,0.37207,0.49121,0.7915
		C250.86719,63.99348,250.31641,68.32307,248.30078,68.32307z"/>
	<path class="st2" d="M253.418,72.18732h-2.59375c0-0.168,0-0.18164,0.07715-0.25879l1.3418-1.49512
		c0.418-0.41309,0.67758-0.9599,0.7334-1.54492c0-0.57275-0.30078-1.13867-0.93555-1.13867
		c-0.43552,0.00822-0.81628,0.29576-0.94336,0.7124c0.02933-0.00741,0.05972-0.00972,0.08984-0.00683
		c0.19522-0.00957,0.36124,0.14091,0.37082,0.33613c0.00043,0.00904,0.00052,0.0181,0.00027,0.02715
		c0.00156,0.203-0.16171,0.36884-0.36472,0.37041c-0.203,0.00157-0.36887-0.16173-0.37042-0.36473
		c-0.00006-0.0089,0.00018-0.0178,0.00076-0.02668c0.01468-0.70869,0.59784-1.2731,1.30664-1.26465
		c0.75586-0.06047,1.41763,0.50327,1.47812,1.25914c0.00256,0.03205,0.004,0.06418,0.0043,0.09633
		c0,0.69922-0.41992,1.07666-1.50977,2.041l-0.74023,0.71972h1.25781c0.2229,0.014,0.44666-0.00492,0.66406-0.05615
		c0.07953-0.19913,0.1311-0.40831,0.15332-0.62158h0.1748L253.418,72.18732z"/>
	<path class="st2" d="M266.20801,64.26936h-7.15918c-0.18066,0-0.4082,0-0.4082-0.23974s0.22754-0.23975,0.39551-0.23975h7.18457
		c0.168,0,0.39551,0,0.39551,0.23975S266.38867,64.26936,266.20801,64.26936z M266.2207,66.59602h-7.18457
		c-0.168,0-0.39551,0-0.39551-0.23974s0.22754-0.23975,0.4082-0.23975h7.15918c0.18066,0,0.4082,0,0.4082,0.23975
		S266.38867,66.59602,266.2207,66.59602z"/>
	<path class="st2" d="M271.43262,65.94855v-0.6958h3.17871v0.6958H271.43262z"/>
	<path class="st2" d="M279.09961,60.24592l0.73242,6.39844l4.61133-6.39844h1.93945v0.2168
		c-0.24994,0.00578-0.49893,0.03321-0.74414,0.082c-0.14548,0.06464-0.26874,0.17059-0.35449,0.30469
		c-0.15811,0.27456-0.27554,0.57062-0.34863,0.87891l-1.4707,5.03906c-0.0737,0.22366-0.11707,0.4562-0.12891,0.6914
		c-0.00833,0.13443,0.05103,0.26414,0.1582,0.34571c0.21039,0.12988,0.45667,0.1894,0.70313,0.16992h0.14063l-0.05273,0.2168
		h-3.3457l0.05859-0.2168h0.1582c0.23367,0.01298,0.46698-0.03127,0.67969-0.12891c0.14099-0.0835,0.25415-0.20683,0.3252-0.35449
		c0.16745-0.37324,0.30176-0.76047,0.40137-1.15723l1.3125-4.60546l-4.63477,6.46289h-0.23438l-0.74414-6.46289l-1.418,4.916
		c-0.09213,0.27351-0.15308,0.55656-0.18164,0.84375c-0.00699,0.13007,0.05261,0.25478,0.1582,0.33106
		c0.24118,0.10799,0.50339,0.16103,0.76758,0.15527l-0.06445,0.2168h-2.61911l0.06445-0.2168h0.1582
		c0.30865,0.02908,0.61462-0.07792,0.83789-0.293c0.18729-0.27724,0.32047-0.58736,0.39258-0.91406l1.72852-5.92383
		c-0.10312-0.11436-0.22882-0.20613-0.36914-0.26953c-0.21124-0.06433-0.42978-0.10174-0.65039-0.11133l0.05859-0.2168
		L279.09961,60.24592z"/>
</g>
<g>
	<path class="st3" d="M196.021,24.52198c0.41946-7.44426,6.79425-13.13898,14.23849-12.71953
		c6.85815,0.38643,12.33279,5.86084,12.71951,12.71898"/>
	<polygon class="st4" points="199.147,22.49382 198.683,21.96882 196.10001,24.25782 194.006,21.51482 193.44901,21.93983 
		196.00101,25.28082 	"/>
	<polygon class="st4" points="219.853,22.49382 220.317,21.96882 222.89999,24.25782 224.994,21.51482 225.55099,21.93983 
		222.99899,25.28082 	"/>
</g>
<path class="st2" d="M213.32227,8.19123c-0.44336,0-0.93555-0.03614-1.39063-0.03614c-0.45605,0-0.92383,0.03614-1.36719,0.03614
	c-0.07822,0.01342-0.15253-0.0391-0.16595-0.11733c-0.0015-0.00881-0.0022-0.01774-0.00204-0.02667
	c0-0.22754,0.13184-0.22754,0.32324-0.22754c0.81543,0,0.8877-0.09619,0.9834-0.5039l1.69141-6.78809h-0.01172l-4.47363,7.44776
	c-0.07227,0.13183-0.13184,0.21582-0.28809,0.21582c-0.17969,0-0.17969-0.084-0.2041-0.28809l-0.73145-7.26758h-0.01172
	l-1.59473,6.36817c-0.02975,0.09727-0.04617,0.19812-0.04883,0.2998c0,0.18018,0.02441,0.4917,0.70801,0.51611
	c0.14355,0,0.22754,0.01172,0.22754,0.15577c0,0.21582-0.14355,0.21582-0.21582,0.21582c-0.37109,0-0.79099-0.03614-1.1748-0.03614
	c-0.37207,0-0.78027,0.03614-1.13965,0.03614c-0.08401,0-0.15625-0.03614-0.15625-0.144c0-0.21582,0.13184-0.22754,0.22852-0.22754
	c0.54672,0.06361,1.05148-0.30087,1.16309-0.83984l1.53516-6.17627c0.02786-0.073,0.04404-0.14995,0.04785-0.228
	c0-0.2041-0.32422-0.2041-0.69531-0.2041c-0.22852,0-0.32422,0-0.32422-0.144C206.23434,0,206.36618,0,206.55856,0h1.59473
	c0.28809,0,0.31152,0,0.33594,0.26367l0.67188,6.72852l4.07715-6.77637C213.37106,0,213.40625,0,213.67087,0h1.53516
	c0.20313,0,0.2998,0,0.2998,0.15576c0,0.21582-0.1084,0.21582-0.36035,0.21582c-0.75586,0-0.85156,0.09619-0.94727,0.48
	l-1.61914,6.48828c-0.02664,0.08979-0.04269,0.18237-0.04785,0.27588c0,0.10791,0,0.2041,0.69531,0.2041
	c0.24023,0,0.32422,0,0.32422,0.15577C213.55078,8.19123,213.40625,8.19123,213.32227,8.19123z"/>
<g>
	<path class="st0" d="M196,57.3644c2.46228-0.00223,4.45651-2.0001,4.45428-4.46236
		c-0.00223-2.45911-1.99518-4.45206-4.45428-4.45429V31.28107h-40"/>
	<path class="st5" d="M196,57.3644c2.46228,0.0034,4.45557,2.00223,4.45218,4.46449
		c-0.00339,2.45747-1.99472,4.44878-4.45218,4.45218"/>
	<path class="st5" d="M196,66.28107c2.46228,0.0034,4.45557,2.00223,4.45218,4.46449
		c-0.00339,2.45747-1.99472,4.44878-4.45218,4.45218"/>
	<path class="st0" d="M196,75.19775c2.46228,0.00223,4.45651,2.0001,4.45428,4.46236
		c-0.00223,2.45911-1.99518,4.45206-4.45428,4.45429v17.16667h-40"/>
</g>
<polyline class="st6" points="168,35.28082 182,35.28082 179,38.28082 "/>
<g>
	<path class="st0" d="M224,41.28107v7.16667c-2.46228-0.00223-4.46014,1.99202-4.46237,4.45429
		c-0.00223,2.46227,1.99203,4.46014,4.45428,4.46236c0.00272,0,0.0054,0,0.00809,0"/>
	<path class="st5" d="M224,57.3644c-2.46228,0.0034-4.45557,2.00223-4.45218,4.46449
		c0.00339,2.45747,1.99472,4.44878,4.45218,4.45218"/>
	<path class="st5" d="M224,66.28107c-2.46228,0.0034-4.45557,2.00223-4.45218,4.46449
		c0.00339,2.45747,1.99472,4.44878,4.45218,4.45218"/>
	<path class="st0" d="M224,75.19775c-2.46228-0.00223-4.46014,1.99202-4.46237,4.45429
		c-0.00223,2.46227,1.99203,4.46014,4.45428,4.46236c0.00272,0,0.0054,0,0.00809,0v7.16667"/>
</g>
<polyline class="st0" points="224,91.28082 224,101.28082 253.01999,101.28082 264,101.28082 "/>
<polyline class="st6" points="238,106.28082 252,106.28082 249,109.28082 "/>
<g>
	<path class="st2" d="M244.85547,121.25568c-0.49548,0.00883-0.90433-0.38565-0.91315-0.88113
		c-0.00049-0.02614,0.00021-0.05226,0.00201-0.07834c0.01636-0.28746,0.08972-0.5688,0.21582-0.82764l0.44336-1.187l0.36035-0.99561
		c0.11804-0.27423,0.19092-0.56577,0.21582-0.86328c0-0.27588-0.13184-0.33594-0.26367-0.33594
		c-0.69629,0-1.00781,1.11523-1.11621,1.51123c-0.04785,0.1675-0.05957,0.19189-0.21582,0.19189
		c-0.05957,0-0.17969,0-0.17969-0.12012c0-0.06006,0.4082-1.84717,1.53516-1.84717c0.48831-0.01009,0.89233,0.37759,0.90244,0.86591
		c0.00064,0.03122-0.00037,0.06245-0.00302,0.09357c-0.00101,0.23146-0.0499,0.46021-0.14355,0.67188l-0.76758,2.05078
		c-0.16034,0.3663-0.26563,0.75427-0.3125,1.15137c0,0.32373,0.168,0.33594,0.26465,0.33594
		c0.69531,0,1.01953-1.15137,1.11523-1.49899c0.04785-0.18018,0.04785-0.2041,0.2041-0.2041c0.08401,0,0.17969,0,0.17969,0.12012
		C246.37891,119.45686,245.9834,121.25568,244.85547,121.25568z M245.93457,114.55158
		c-0.28113,0.01614-0.52213-0.19868-0.53827-0.47981c-0.00067-0.01193-0.00095-0.02386-0.00079-0.03581
		c0.02893-0.40933,0.35785-0.73325,0.76758-0.75586c0.28088-0.01639,0.52185,0.19801,0.53824,0.47888
		c0.00073,0.01224,0.00101,0.02449,0.00082,0.03674C246.67322,114.20506,246.3443,114.52897,245.93457,114.55158z"/>
	<path class="st2" d="M249.03516,125.11994h-2.59277c0-0.168,0-0.18164,0.07715-0.25879l1.3418-1.49512
		c0.418-0.41309,0.67758-0.9599,0.7334-1.54492c0-0.57275-0.30078-1.13867-0.93652-1.13867
		c-0.43533,0.00879-0.8158,0.2961-0.94336,0.7124c0.02969-0.00732,0.06036-0.00964,0.09082-0.00684
		c0.19476-0.00951,0.36035,0.14067,0.36984,0.33542c0.00046,0.00928,0.00055,0.01857,0.00027,0.02786
		c0.00198,0.20274-0.16077,0.36871-0.36353,0.3707c-0.20273,0.00197-0.36868-0.16078-0.37067-0.36353
		c-0.00009-0.0094,0.00015-0.01878,0.00079-0.02817c0.01468-0.70869,0.59784-1.2731,1.30664-1.26465
		c0.75577-0.06007,1.41711,0.50388,1.4772,1.25964c0.00253,0.03188,0.00394,0.06384,0.00424,0.09583
		c0,0.69922-0.41901,1.07666-1.50879,2.041l-0.74121,0.71973h1.25781c0.26349,0.16241,0.60876,0.08047,0.77118-0.18303
		c0.09164-0.14868,0.10873-0.3316,0.0462-0.49471h0.1748L249.03516,125.11994z"/>
</g>
<g>
	<g>
		<path class="st2" d="M294.30762,58.01108c-0.14676,0.44753-0.55316,0.7591-1.02344,0.78467
			c-0.57571,0.00272-1.06818-0.41301-1.16211-0.981c-0.38702,0.56004-1.00269,0.9194-1.68066,0.981
			c-1.05078,0-1.69531-0.981-1.69531-2.17139c0-2.04492,1.65332-4.17431,3.20801-4.17431
			c0.51953,0.01084,0.98251,0.33051,1.17676,0.8125l0.8125-3.27784c0,0,0.04199-0.19629,0.04199-0.23828
			c0-0.13965-0.02832-0.23779-0.70117-0.23779c-0.19531,0-0.33594,0-0.33594-0.1543c0-0.26611,0.1543-0.28027,0.32227-0.29394
			l1.38672-0.11231c0.07388-0.01599,0.14905-0.02531,0.22461-0.02783c0.11133,0,0.19531,0.042,0.19531,0.168
			c0,0-0.02734,0.14014-0.04199,0.18213l-2.00293,7.99853c-0.05621,0.21004-0.08447,0.42657-0.08401,0.644
			c0,0.19629,0,0.57421,0.36426,0.57421c0.47656,0,0.74219-0.88232,0.93848-1.6665c0.08401-0.30859,0.09863-0.32226,0.2666-0.32226
			c0.09766,0,0.20999,0,0.20999,0.14013C294.63281,57.10866,294.49216,57.56839,294.30762,58.01108z M292.87891,54.24301
			c0.02261-0.0584,0.03677-0.11972,0.04199-0.18212c-0.02258-0.31654-0.11853-0.62347-0.28027-0.89649
			c-0.13779-0.25034-0.40079-0.40596-0.68652-0.40625c-0.57422,0-1.21875,0.70068-1.56934,1.55518
			c-0.35971,0.94035-0.59064,1.92501-0.68652,2.92724c0,0.42041,0.1123,1.24658,0.77051,1.24658
			c0.77051,0,1.625-1.1206,1.7373-1.55468L292.87891,54.24301z"/>
		<path class="st2" d="M297.24512,58.79572c-0.57904,0.01011-1.05667-0.45111-1.06677-1.03016
			c-0.00052-0.03017,0.00024-0.06035,0.00232-0.09045c0.01892-0.33581,0.10458-0.66447,0.25201-0.96679l0.51855-1.38672
			l0.41992-1.1626c0.13812-0.32021,0.22327-0.66076,0.25201-1.0083c0-0.32227-0.15332-0.39258-0.30762-0.39258
			c-0.8125,0-1.17676,1.30274-1.30273,1.76514c-0.05664,0.1958-0.07031,0.22412-0.25201,0.22412
			c-0.07031,0-0.20999,0-0.20999-0.14014c0-0.06982,0.47559-2.15722,1.793-2.15722c0.5701-0.01167,1.04172,0.44103,1.05338,1.01113
			c0.00073,0.03653-0.00046,0.07307-0.00357,0.10947c-0.00122,0.27035-0.05841,0.53752-0.168,0.78467l-0.89648,2.395
			c-0.18665,0.42798-0.30936,0.88106-0.36426,1.34472c0,0.37842,0.19629,0.39209,0.30859,0.39209
			c0.8125,0,1.19043-1.34472,1.30273-1.75048c0.05566-0.21045,0.05566-0.23828,0.23828-0.23828c0.09766,0,0.20999,0,0.20999,0.14013
			C299.02441,56.69417,298.56152,58.79572,297.24512,58.79572z M298.50586,50.96516
			c-0.32828,0.01906-0.60986-0.23162-0.62894-0.55991c-0.00079-0.01402-0.00113-0.02805-0.00095-0.04209
			c0.03378-0.47809,0.41794-0.85639,0.89648-0.88281c0.32819-0.01915,0.60977,0.23138,0.62894,0.55957
			c0.00082,0.01431,0.00116,0.02864,0.00095,0.04297C299.3685,50.56085,298.98431,50.93896,298.50586,50.96516z"/>
		<path class="st2" d="M300.7832,63.27912c-0.32617,0-1.03613,0-1.32227,0.02441V63.0506h0.26172
			c0.73438,0,0.75879-0.09814,0.75879-0.39209v-4.2285c-0.33591,0.15041-0.70145,0.22301-1.06934,0.2124v-0.25342
			c0.54547,0.03434,1.08151-0.15421,1.48535-0.52246c0.18848,0,0.18848,0.0166,0.18848,0.2124v4.57959
			c0,0.30225,0.02441,0.39209,0.75879,0.39209h0.26172v0.25293C301.82031,63.27912,301.11035,63.27912,300.7832,63.27912z"/>
	</g>
	<g>
		<path class="st2" d="M295.88672,77.01108c-0.147,0.44735-0.55325,0.75882-1.02344,0.78467
			c-0.57571,0.00272-1.06818-0.41301-1.16211-0.981c-0.38739,0.56013-1.00339,0.91947-1.68164,0.981
			c-1.05078,0-1.69531-0.981-1.69531-2.17139c0-2.04492,1.6543-4.17431,3.20901-4.17431
			c0.51938,0.01057,0.98221,0.33041,1.17578,0.8125l0.8125-3.27784c0,0,0.043-0.19629,0.043-0.23828
			c0-0.13965-0.0293-0.23779-0.70117-0.23779c-0.19531,0-0.33594,0-0.33594-0.1543c0-0.26611,0.1543-0.28027,0.32227-0.29394
			l1.38672-0.11231c0.07385-0.01611,0.14905-0.02543,0.22461-0.02783c0.11133,0,0.19531,0.042,0.19531,0.168
			c0,0-0.02734,0.14014-0.043,0.18213l-2.00195,7.99853c-0.05621,0.21004-0.08447,0.42657-0.08401,0.644
			c0,0.19629,0,0.57421,0.36328,0.57421c0.47656,0,0.74219-0.88232,0.93945-1.6665c0.08401-0.30859,0.09766-0.32226,0.26563-0.32226
			c0.09766,0,0.21094,0,0.21094,0.14013C296.21191,76.10866,296.07126,76.56839,295.88672,77.01108z M294.45703,73.24301
			c0.02283-0.05838,0.03729-0.1197,0.043-0.18212c-0.02246-0.3167-0.11877-0.62373-0.28125-0.89649
			c-0.13742-0.25022-0.40009-0.40587-0.68555-0.40625c-0.57422,0-1.21875,0.70068-1.57031,1.55518
			c-0.35938,0.94039-0.59,1.92506-0.68555,2.92724c0,0.42041,0.11133,1.24658,0.76953,1.24658
			c0.77148,0,1.625-1.1206,1.73828-1.55468L294.45703,73.24301z"/>
		<path class="st2" d="M298.82422,77.79572c-0.6528,0.0066-1.18738-0.51726-1.19397-1.17007
			c-0.00031-0.03025,0.00055-0.06049,0.00256-0.09068c0.00577-0.16096,0.02933-0.3208,0.07031-0.47657l1.00781-4.02h-1.11914
			c-0.22461,0-0.35156,0-0.35156-0.168c0-0.26612,0.1543-0.26612,0.39258-0.26612h1.19141l0.54688-2.22754
			c0.03723-0.27695,0.2659-0.48843,0.54492-0.5039c0.19324-0.01556,0.36249,0.12846,0.37805,0.32169
			c0.00113,0.014,0.0014,0.02805,0.00085,0.04208c-0.00113,0.10074-0.02032,0.20046-0.05664,0.29443l-0.51758,2.07324h1.12109
			c0.22266,0,0.34961,0,0.34961,0.168c0,0.26611-0.1543,0.26611-0.39258,0.26611h-1.19141l-1.03516,4.16016
			c-0.06375,0.2328-0.09659,0.47299-0.09766,0.71436c0,0.22412,0,0.57421,0.37701,0.57421
			c0.79883,0,1.35938-1.05029,1.61133-1.72265c0.11133-0.25244,0.11133-0.26611,0.2793-0.26611c0.09961,0,0.21094,0,0.21094,0.14013
			C300.95313,75.70833,300.23828,77.79572,298.82422,77.79572z"/>
	</g>
	<line class="st7" x1="288" y1="64.65266" x2="302" y2="64.65266"/>
</g>
<circle class="st8" cx="189" cy="48.28107" r="1"/>
<circle class="st8" cx="231" cy="84.28107" r="1"/>
</svg>
