<?xml version="1.0" encoding="utf-8"?>
<!-- Generator: Adobe Illustrator 23.0.3, SVG Export Plug-In . SVG Version: 6.00 Build 0)  -->
<svg version="1.1" id="Layer_1" xmlns="http://www.w3.org/2000/svg" xmlns:xlink="http://www.w3.org/1999/xlink" x="0px" y="0px"
	 viewBox="0 0 167 63.38908" style="enable-background:new 0 0 167 63.38908;" xml:space="preserve">
<style type="text/css">
	.st0{fill:none;stroke:#8FF4DD;stroke-width:2;stroke-linecap:round;stroke-linejoin:round;}
	.st1{fill:none;stroke:#8FF4DD;stroke-width:2;stroke-linecap:round;}
	.st2{fill:#8FF4DD;stroke:#8FF4DD;stroke-width:2;}
	.st3{fill:none;stroke:#FD1D53;}
	.st4{fill:#FD1D53;}
	.st5{fill:#8FF4DD;}
	.st6{fill:none;stroke:#8FF4DD;stroke-width:2;stroke-linecap:square;}
</style>
<title>DotConventionSeries</title>
<g>
	<path id="path1132" class="st0" d="M21,33.28113H7"/>
	<circle class="st0" cx="4" cy="33.28113" r="3"/>
	<g>
		<path class="st0" d="M21,33.28113h7.16667c0-2.46227,1.99606-4.45833,4.45833-4.45833c2.46227,0,4.45833,1.99606,4.45833,4.45833"
			/>
		<path class="st1" d="M37.08333,33.28113c-0.0034-2.46227,1.98991-4.46109,4.45218-4.4645
			c2.46227-0.0034,4.46109,1.98991,4.4645,4.45218c0,0.0041,0,0.00821,0,0.01232"/>
		<path class="st1" d="M46,33.28113c-0.0034-2.46227,1.98991-4.46109,4.45218-4.4645c2.46227-0.0034,4.46109,1.98991,4.4645,4.45218
			c0,0.0041,0,0.00821,0,0.01232"/>
		<path class="st0" d="M54.91667,33.28113c0.00223-2.46227,2.0001-4.45652,4.46237-4.45429
			c2.45911,0.00223,4.45206,1.99517,4.45429,4.45429H96"/>
	</g>
	<g>
		<path class="st0" d="M96,33.28113h7.16667c0.00223-2.46227,2.0001-4.45652,4.46236-4.45429
			c2.45911,0.00223,4.45206,1.99517,4.45429,4.45429"/>
		<path class="st1" d="M112.08333,33.28113c0.0034-2.46227,2.00223-4.45558,4.46449-4.45218
			c2.45747,0.0034,4.44878,1.99471,4.45218,4.45218"/>
		<path class="st1" d="M121,33.28113c0.0034-2.46227,2.00223-4.45558,4.46449-4.45218
			c2.45746,0.0034,4.44879,1.99471,4.45218,4.45218"/>
		<path class="st0" d="M129.91667,33.28113c-0.00223-2.46227,1.99202-4.46014,4.45428-4.46237s4.46014,1.99202,4.46237,4.45429
			c0,0.00269,0,0.00539,0,0.00808H146"/>
	</g>
	<path id="path1132-2" class="st0" d="M146,33.28113h14"/>
	<circle class="st0" cx="163" cy="33.28113" r="3"/>
	<circle class="st2" cx="96" cy="27.28113" r="1"/>
	<circle class="st2" cx="21" cy="27.28113" r="1"/>
	<g>
		<path class="st3" d="M46.06969,22.77813c1.19085-6.41481,17.49373-11.497,37.43031-11.497
			c19.9322,0,36.23228,5.07995,37.42952,11.49274"/>
		<polygon class="st4" points="49.639,21.42588 49.288,20.81888 46.302,22.54888 44.795,19.44288 44.165,19.74988 46.001,23.53088 
					"/>
		<polygon class="st4" points="117.361,21.42588 117.712,20.81888 120.698,22.54888 122.205,19.44288 122.835,19.74988 
			120.999,23.53088 		"/>
	</g>
	<path class="st5" d="M16.85547,52.25574c-0.49548,0.00884-0.90431-0.38566-0.91315-0.88114
		c-0.00047-0.02612,0.00021-0.05226,0.00202-0.07833c0.01635-0.28746,0.08971-0.56879,0.21582-0.82764l0.44336-1.187
		l0.36035-0.99561c0.11804-0.27423,0.19093-0.56577,0.21582-0.86328c0-0.27588-0.13184-0.33594-0.26367-0.33594
		c-0.69629,0-1.00782,1.11524-1.11622,1.51123c-0.04785,0.16749-0.05957,0.1919-0.21582,0.1919
		c-0.05957,0-0.17968,0-0.17968-0.12012c0-0.06006,0.4082-1.84717,1.53515-1.84717c0.48831-0.01009,0.89235,0.37759,0.90244,0.8659
		c0.00064,0.03122-0.00036,0.06245-0.00302,0.09357c-0.00102,0.23146-0.0499,0.46021-0.14356,0.67187l-0.76758,2.05078
		c-0.16033,0.36629-0.26563,0.75428-0.3125,1.15137c0,0.32373,0.168,0.33594,0.26465,0.33594
		c0.69532,0,1.01953-1.15137,1.11524-1.499c0.04785-0.18017,0.04785-0.2041,0.2041-0.2041c0.084,0,0.17969,0,0.17969,0.12012
		C18.37891,50.45691,17.9834,52.25574,16.85547,52.25574z M17.93457,45.55164c-0.28114,0.01614-0.52213-0.19868-0.53827-0.47982
		c-0.00068-0.01192-0.00095-0.02386-0.0008-0.03581c0.02892-0.40934,0.35784-0.73324,0.76758-0.75586
		c0.28087-0.01639,0.52185,0.19801,0.53824,0.47889c0.00071,0.01223,0.00099,0.02449,0.00082,0.03674
		C18.67323,45.20512,18.34431,45.52902,17.93457,45.55164z"/>
	<polyline class="st6" points="11,38.28088 25,38.28088 22,41.28088 	"/>
	<path class="st5" d="M82.85547,52.25574c-0.49548,0.00884-0.90431-0.38566-0.91315-0.88113
		c-0.00047-0.02613,0.00021-0.05227,0.00202-0.07834c0.01635-0.28746,0.08971-0.56879,0.21582-0.82764l0.44336-1.187
		l0.36035-0.99561c0.11804-0.27423,0.19093-0.56577,0.21582-0.86328c0-0.27588-0.13184-0.33594-0.26367-0.33594
		c-0.69629,0-1.00782,1.11524-1.11622,1.51123c-0.04785,0.16749-0.05957,0.1919-0.21582,0.1919
		c-0.05957,0-0.17968,0-0.17968-0.12012c0-0.06006,0.4082-1.84717,1.53515-1.84717c0.48831-0.01009,0.89235,0.37758,0.90244,0.86589
		c0.00065,0.03123-0.00036,0.06246-0.00302,0.09358c-0.00102,0.23146-0.0499,0.46021-0.14356,0.67187l-0.76758,2.05078
		c-0.16033,0.36629-0.26563,0.75428-0.3125,1.15137c0,0.32373,0.168,0.33594,0.26465,0.33594
		c0.69532,0,1.01953-1.15137,1.11524-1.499c0.04785-0.18017,0.04785-0.2041,0.2041-0.2041c0.084,0,0.17969,0,0.17969,0.12012
		C84.37891,50.45691,83.9834,52.25574,82.85547,52.25574z M83.93457,45.55164c-0.28114,0.01614-0.52213-0.19868-0.53827-0.47982
		c-0.00068-0.01192-0.00095-0.02387-0.00079-0.03581c0.02892-0.40934,0.35784-0.73324,0.76758-0.75586
		c0.28088-0.01639,0.52185,0.19801,0.53825,0.47888c0.00072,0.01224,0.00098,0.02449,0.00082,0.03675
		C84.67323,45.20512,84.34431,45.52902,83.93457,45.55164z"/>
	<polyline class="st6" points="77,38.28088 91,38.28088 88,41.28088 	"/>
	<path class="st5" d="M87.32227,8.19129c-0.44336,0-0.93555-0.03614-1.39063-0.03614c-0.45605,0-0.92383,0.03614-1.36719,0.03614
		c-0.07822,0.01343-0.15252-0.0391-0.16595-0.11733c-0.00151-0.00881-0.0022-0.01773-0.00205-0.02667
		c0-0.22754,0.13184-0.22754,0.32325-0.22754c0.81543,0,0.88769-0.09619,0.9834-0.5039l1.6914-6.78809h-0.01172l-4.47363,7.44776
		c-0.07227,0.13183-0.13184,0.21582-0.28809,0.21582c-0.17968,0-0.17968-0.084-0.2041-0.28809l-0.73144-7.26758H81.6738
		l-1.5947,6.36812c-0.02975,0.09727-0.04617,0.19812-0.04883,0.2998c0,0.18018,0.02442,0.4917,0.708,0.51611
		c0.14356,0,0.22754,0.01172,0.22754,0.15577c0,0.21582-0.14355,0.21582-0.21582,0.21582c-0.37109,0-0.791-0.03614-1.1748-0.03614
		c-0.37207,0-0.78028,0.03614-1.13965,0.03614c-0.084,0-0.15625-0.03614-0.15625-0.144c0-0.21582,0.13183-0.22754,0.22851-0.22754
		c0.54671,0.06361,1.05148-0.30087,1.16309-0.83984l1.53515-6.17627c0.02788-0.073,0.04403-0.14995,0.04786-0.228
		c0-0.2041-0.32422-0.2041-0.69532-0.2041c-0.22851,0-0.32421,0-0.32421-0.144C80.23438,0,80.3662,0,80.55859,0h1.59473
		c0.28809,0,0.31152,0,0.33594,0.26367l0.67187,6.72852l4.07715-6.77637C87.37108,0,87.40627,0,87.67088,0h1.53515
		c0.20313,0,0.29981,0,0.29981,0.15576c0,0.21582-0.1084,0.21582-0.36035,0.21582c-0.75586,0-0.85156,0.09619-0.94727,0.48
		L86.5791,7.33972c-0.02663,0.08978-0.04269,0.18237-0.04785,0.27588c0,0.10791,0,0.2041,0.69531,0.2041
		c0.24024,0,0.32422,0,0.32422,0.15577C87.55078,8.19129,87.40625,8.19129,87.32227,8.19129z"/>
</g>
<g>
	<path class="st5" d="M63.4834,61.88713c-0.55775,0.02257-1.10045-0.18403-1.502-0.57178
		c-0.26954,0.43311-0.29395,0.46533-0.29395,0.46533c-0.05713,0.08985-0.06543,0.10645-0.12256,0.10645
		c-0.08984,0-0.08984-0.05713-0.08984-0.1958v-1.63287c0-0.147,0-0.2041,0.10644-0.2041
		c0.04636-0.00706,0.08966,0.02479,0.09672,0.07114c0.00053,0.00344,0.00084,0.00692,0.00094,0.01041
		c-0.01878,0.47223,0.16553,0.92991,0.50635,1.25732c0.36366,0.2958,0.82092,0.45215,1.28955,0.44092
		c0.6181-0.01333,1.10835-0.5252,1.09502-1.1433c-0.00018-0.00806-0.00043-0.01613-0.00079-0.02419
		c0.00366-0.27191-0.08575-0.5369-0.25342-0.751c-0.16875-0.2233-0.41743-0.37257-0.69385-0.4165
		c-0.57129-0.13868-0.98779-0.23682-1.07764-0.26953c-0.82635-0.28282-1.26695-1.18198-0.98413-2.00833
		c0.22015-0.64322,0.82676-1.07376,1.50659-1.06931c0.49871-0.01292,0.97733,0.19661,1.30616,0.57178l0.28613-0.46534
		c0.05713-0.09814,0.06494-0.10644,0.12207-0.10644c0.08984,0,0.08984,0.05713,0.08984,0.19629v1.64062
		c0,0.15528,0,0.1958-0.10595,0.1958c-0.08985,0-0.08985-0.04882-0.09815-0.09765c-0.04883-0.36768-0.22851-1.70655-1.59179-1.70655
		c-0.58938-0.00576-1.07183,0.46735-1.07759,1.05672c-0.00488,0.49986,0.33785,0.93614,0.82466,1.04973l1.04492,0.25293
		c0.73785,0.20405,1.24252,0.88358,1.22461,1.64892c0.03402,0.90342-0.67078,1.66337-1.5742,1.69738
		C63.50617,61.88663,63.49479,61.88694,63.4834,61.88713z"/>
	<path class="st5" d="M67.58057,61.79724c-1.01618-0.02588-1.81962-0.86951-1.7959-1.88574
		c-0.04375-0.98249,0.71587-1.81507,1.69824-1.86137c0.79967-0.01152,1.45728,0.6274,1.4688,1.42708
		c0.00083,0.05778-0.00179,0.11555-0.00787,0.17302c0,0.17139-0.02442,0.17139-0.2041,0.17139H66.4624
		c-0.02891,0.4227,0.05554,0.84546,0.24463,1.22461c0.19196,0.33,0.54121,0.53696,0.92285,0.54687
		c0.51389-0.00277,0.96365-0.34592,1.10205-0.84082c0.01612-0.06543,0.03223-0.11426,0.106-0.11426
		c0.05177-0.00642,0.09894,0.03033,0.10536,0.0821c0.00064,0.00516,0.00085,0.01036,0.00064,0.01556
		C68.78969,61.36225,68.22585,61.80128,67.58057,61.79724z M67.48291,58.22986c-0.27783,0-0.96338,0.2041-1.01221,1.42041h1.93457
		C68.40527,59.33191,68.32373,58.22986,67.48291,58.22986z"/>
	<path class="st5" d="M71.80029,58.95642c-0.18668,0.00721-0.34386-0.13829-0.35107-0.32497
		c-0.00034-0.0087-0.00034-0.0174,0-0.0261c-0.00231-0.13293,0.07013-0.25592,0.1875-0.31836
		c-0.01611-0.0083-0.03272-0.0083-0.08984-0.0083c-0.62012,0-0.9629,0.72656-0.9629,1.53467v1.25732
		c0,0.29395,0.01612,0.38379,0.62012,0.38379h0.17139v0.25293c-0.32617-0.02441-0.71-0.02441-1.03662-0.02441L69.4082,61.7074
		v-0.25293c0.54688,0,0.63672,0,0.63672-0.36768v-2.1875c0-0.3999-0.06543-0.457-0.63672-0.457v-0.25342l1.13477-0.08984v0.89795
		c0.10403-0.48562,0.50974-0.8485,1.00391-0.89795c0.30382-0.02732,0.57318,0.19461,0.60449,0.49805
		c0.00896,0.18935-0.13728,0.35011-0.32662,0.35907C71.8166,58.95652,71.80844,58.95662,71.80029,58.95642z"/>
	<path class="st5" d="M73.54688,61.68299l-0.898,0.02441v-0.25293c0.54687,0,0.63671,0,0.63671-0.36768v-2.1958
		c0-0.3999-0.07373-0.44873-0.604-0.44873v-0.25342l1.14258-0.08984v2.99614c0,0.31836,0.03271,0.35938,0.57178,0.35938v0.25293
		C74.11816,61.69913,73.83252,61.68299,73.54688,61.68299z M73.50588,57.20935c-0.23703-0.00452-0.4281-0.19558-0.43262-0.43261
		c-0.0023-0.24122,0.19139-0.43864,0.43261-0.44093s0.43863,0.19139,0.44093,0.43261
		c0.0023,0.24123-0.19139,0.43864-0.43261,0.44093C73.51142,57.20937,73.50865,57.20937,73.50588,57.20935z"/>
	<path class="st5" d="M76.67285,61.79724c-1.01618-0.02589-1.81961-0.86951-1.7959-1.88574
		c-0.04375-0.98249,0.71587-1.81508,1.69825-1.86137c0.79967-0.01153,1.45728,0.6274,1.4688,1.42706
		c0.00083,0.05779-0.00179,0.11556-0.00787,0.17303c0,0.17139-0.02441,0.17139-0.2041,0.17139h-2.27734
		c-0.02891,0.4227,0.05554,0.84546,0.24463,1.22461c0.19196,0.33,0.54121,0.53696,0.92285,0.54687
		c0.51386-0.00279,0.96359-0.34594,1.102-0.84082c0.01611-0.06543,0.03223-0.11426,0.106-0.11426
		c0.05177-0.00642,0.09894,0.03033,0.10536,0.0821c0.00064,0.00516,0.00085,0.01036,0.00064,0.01556
		C77.88193,61.36223,77.31812,61.80125,76.67285,61.79724z M76.5752,58.22986c-0.27784,0-0.96338,0.2041-1.0127,1.42041h1.93506
		C77.49756,59.33191,77.416,58.22986,76.5752,58.22986z"/>
	<path class="st5" d="M79.897,61.79724c-0.33484,0.01117-0.65955-0.11579-0.898-0.35111
		c-0.05878,0.05869-0.11328,0.12152-0.16308,0.188c-0.15528,0.15478-0.16358,0.16308-0.2041,0.16308
		c-0.08985,0-0.08985-0.05713-0.08985-0.1958v-1.0776c0-0.147,0-0.20411,0.106-0.20411c0.08154,0,0.08984,0.03272,0.11426,0.13868
		c0.15527,0.69384,0.44922,1.15918,1.13476,1.15918c0.63672,0,0.92237-0.32666,0.92237-0.74268
		c0-0.58789-0.66944-0.71875-0.84864-0.751c-0.38666-0.02531-0.75916-0.15527-1.07763-0.376
		c-0.21985-0.16297-0.34997-0.42008-0.35109-0.69375c0-0.457,0.31006-1.00391,1.30615-1.00391
		c0.27377-0.00945,0.54313,0.07079,0.76709,0.22852c0.05003-0.03923,0.09644-0.08286,0.13868-0.13037
		c0.10644-0.09815,0.12255-0.09815,0.16357-0.09815c0.08984,0,0.08984,0.05713,0.08984,0.1958v0.82471
		c0,0.15479,0,0.1958-0.10644,0.1958c0,0-0.08936,0-0.09766-0.07324c0.04919-0.49498-0.31219-0.93611-0.80717-0.98531
		c-0.04916-0.00488-0.09863-0.00571-0.14791-0.00249c-0.70214,0-0.91455,0.33447-0.91455,0.62011
		c0,0.47364,0.54688,0.57959,1.0044,0.66944c0.3433,0.0313,0.66845,0.16829,0.93066,0.39209
		c0.21781,0.19905,0.34216,0.48032,0.34278,0.77539C81.21143,61.25037,80.83594,61.79724,79.897,61.79724z"/>
	<path class="st5" d="M81.57813,60.18103V59.7074h2.16308v0.47363H81.57813z"/>
	<path class="st5" d="M87.47949,61.75623c-0.35381-0.0241-0.63036-0.31487-0.63672-0.66944
		c-0.17413,0.43605-0.59987,0.71891-1.06933,0.71045c-0.51416,0-1.30615-0.2041-1.30615-0.86523
		c0.02827-0.48794,0.35207-0.90896,0.8164-1.06152c0.47695-0.19411,0.98701-0.29394,1.50195-0.29395v-0.30176
		c0.0673-0.50612-0.28843-0.97097-0.79456-1.03828c-0.02346-0.00312-0.04704-0.00533-0.07067-0.00665
		c-0.33465-0.00945-0.65674,0.12769-0.88184,0.37549c0.37549,0.0083,0.41651,0.27734,0.41651,0.37549
		c-0.0003,0.20741-0.16868,0.3753-0.37608,0.375c-0.20741-0.00031-0.3753-0.16868-0.37499-0.37608
		c0-0.00241,0.00002-0.00481,0.00008-0.00722c0-0.53858,0.563-0.92237,1.23242-0.92237
		c0.41808-0.00651,0.8212,0.15537,1.11866,0.44922c0.23363,0.26279,0.34097,0.61443,0.29394,0.96289v1.63287
		c0,0.041,0.03272,0.40821,0.30176,0.40821c0.08984,0,0.29394-0.04883,0.29394-0.52246v-0.457h0.20411v0.457
		c0.04556,0.38007-0.22562,0.72511-0.6057,0.77068C87.52206,61.75409,87.50079,61.75565,87.47949,61.75623z M86.78564,59.74792
		c-1.34668,0.04931-1.68994,0.72656-1.68994,1.17578c0.00465,0.38823,0.32315,0.69917,0.71138,0.69452
		c0.00783-0.00009,0.01566-0.00031,0.02349-0.00067c0.54139-0.01256,0.97009-0.46162,0.95753-1.00301
		c-0.00039-0.01676-0.00121-0.03351-0.00246-0.05022V59.74792z"/>
	<path class="st5" d="M89.45459,61.68299l-0.89795,0.02441v-0.25293c0.54688,0,0.63672,0,0.63672-0.36768v-2.1958
		c0-0.3999-0.07373-0.44873-0.604-0.44873v-0.25342l1.14257-0.08984v2.99614c0,0.31836,0.03272,0.35938,0.57178,0.35938v0.25293
		C90.02588,61.69913,89.74023,61.68299,89.45459,61.68299z M89.41359,57.20935c-0.23702-0.00452-0.42809-0.19559-0.43261-0.43261
		c0.00207-0.241,0.19912-0.43469,0.44012-0.43262c0.00027,0,0.00053,0.00001,0.00079,0.00001
		c0.2371,0.00436,0.42826,0.19552,0.43261,0.43262c-0.00208,0.241-0.19913,0.43469-0.44013,0.43262
		c-0.00027,0-0.00054-0.00001-0.00081-0.00001H89.41359z"/>
	<path class="st5" d="M93.6582,61.79724v-0.53906c-0.261,0.3399-0.66521,0.53912-1.09375,0.53906
		c-0.98586-0.03524-1.75872-0.85912-1.73095-1.84521c-0.00427-1.01262,0.80826-1.83952,1.8208-1.853
		c0.4026,0.00079,0.78222,0.18771,1.02832,0.50635v-1.76325c0-0.4004-0.06494-0.45752-0.63672-0.45752v-0.25293l1.17578-0.08985
		v4.95508c0,0.40039,0.06494,0.45752,0.63672,0.45752v0.25293L93.6582,61.79724z M93.6582,59.07068
		c0.01386-0.1089-0.01875-0.21861-0.08984-0.30225c-0.19213-0.30171-0.52367-0.48595-0.88135-0.48974
		c-0.37566,0.00876-0.72204,0.20486-0.92285,0.52246c-0.33154,0.72752-0.3374,1.56184-0.01611,2.29394
		c0.17352,0.3131,0.49914,0.51163,0.85693,0.52247c0.39912-0.0082,0.76474-0.22501,0.96338-0.57129
		c0.0711-0.08365,0.10371-0.19335,0.08984-0.30225V59.07068z"/>
	<path class="st5" d="M96.26172,61.68299l-0.89795,0.02441v-0.25293c0.54687,0,0.63672,0,0.63672-0.36768v-2.1958
		c0-0.3999-0.07373-0.44873-0.604-0.44873v-0.25342l1.14258-0.08984v2.99614c0,0.31836,0.03272,0.35938,0.57178,0.35938v0.25293
		C96.833,61.69913,96.54736,61.68299,96.26172,61.68299z M96.22072,57.20935c-0.23702-0.00452-0.42809-0.19559-0.43261-0.43261
		c0.00207-0.241,0.19912-0.43469,0.44012-0.43262c0.00026,0,0.00053,0.00001,0.00079,0.00001
		c0.2371,0.00435,0.42827,0.19552,0.43262,0.43262c-0.00208,0.241-0.19913,0.43469-0.44013,0.43262
		c-0.00027,0-0.00053-0.00001-0.0008-0.00001H96.22072z"/>
	<path class="st5" d="M100.81641,61.68299l-0.92237,0.02441v-0.25293c0.54688,0,0.63672,0,0.63672-0.36768v-1.90185
		c0-0.46533-0.08984-0.90625-0.604-0.90625c-0.65675,0.04658-1.1514,0.61674-1.10482,1.27349
		c0.00077,0.01089,0.00169,0.02179,0.00277,0.03266v1.502c0,0.36768,0.08984,0.36768,0.63672,0.36768v0.25293l-0.91455-0.02441
		l-0.92237,0.02441v-0.25293c0.54688,0,0.63672,0,0.63672-0.36768v-2.1875c0-0.3999-0.06543-0.457-0.63672-0.457v-0.25342
		l1.15088-0.08984v0.85742c0.1814-0.5123,0.66504-0.85544,1.2085-0.85742c0.31605-0.02898,0.62901,0.08141,0.85693,0.30225
		c0.25293,0.29394,0.25293,0.54687,0.25293,1.249v1.55908c0.0083,0.24512,0.2124,0.24512,0.63721,0.24512v0.25293
		L100.81641,61.68299z"/>
	<path class="st5" d="M105.62354,58.65417c-0.12788,0.00291-0.2339-0.09839-0.23682-0.22626
		c-0.00008-0.00352-0.00008-0.00703,0-0.01055c-0.00841-0.0938,0.04409-0.18247,0.13037-0.22021
		c-0.02679-0.00581-0.05414-0.00859-0.08154-0.00831c-0.27672,0.00732-0.53987,0.12141-0.73438,0.31836
		c0.21404,0.20789,0.3347,0.49362,0.33447,0.792c-0.03858,0.69304-0.62895,1.22522-1.32227,1.19193
		c-0.28928,0.00181-0.57191-0.0866-0.80859-0.25293c-0.08945,0.10772-0.1385,0.24328-0.13868,0.3833
		c-0.01183,0.2646,0.17244,0.49775,0.43262,0.54737c0.05713,0.00781,0.4082,0.00781,0.61231,0.00781
		c0.4798-0.04153,0.9624,0.037,1.40429,0.22851c0.33454,0.18908,0.53836,0.54647,0.53076,0.93067
		c0,0.63672-0.84912,1.05322-1.8125,1.05322c-0.99609,0-1.8042-0.44873-1.8042-1.03662
		c0.03999-0.40928,0.34647-0.74245,0.751-0.81641c-0.23193-0.16835-0.36614-0.44006-0.35889-0.72656
		c0.00778-0.24752,0.09664-0.48563,0.25293-0.67773c-0.24254-0.2123-0.38229-0.51849-0.38378-0.84082
		c0.03867-0.69319,0.62929-1.22539,1.32275-1.1919c0.31367-0.00466,0.61932,0.09917,0.86523,0.29395
		c0.22749-0.23563,0.53788-0.37331,0.86524-0.38379c0.2205-0.00932,0.40682,0.16188,0.41614,0.38239
		c0.00026,0.006,0.00037,0.012,0.00036,0.01801c0.00492,0.13007-0.09653,0.23949-0.22659,0.24441
		C105.63036,58.65414,105.62695,58.65419,105.62354,58.65417z M103.70509,61.65027h-0.48194
		c-0.37122,0.02557-0.66159,0.33014-0.66943,0.70215c0,0.43262,0.56348,0.84912,1.38818,0.84912
		c0.79981,0,1.3794-0.4082,1.3794-0.84912C105.32129,61.65027,104.40723,61.65027,103.70509,61.65027z M103.71339,58.28699
		c-0.23568,0.00506-0.45322,0.12766-0.57959,0.32666c-0.10346,0.21293-0.14862,0.44948-0.13086,0.68555
		c0,0.188,0,1.0039,0.71045,1.0039c0.23547-0.00541,0.45277-0.1277,0.57959-0.32617c0.10313-0.21319,0.1481-0.44984,0.13037-0.686
		C104.42334,59.1034,104.42334,58.28699,103.71339,58.28699z"/>
</g>
</svg>
