<svg id="Layer_1" data-name="Layer 1" xmlns="http://www.w3.org/2000/svg" viewBox="0 0 106.23047 83">
  <defs>
    <style>
      .cls-1, .cls-2, .cls-3, .cls-6 {
        fill: none;
      }

      .cls-1, .cls-2, .cls-5, .cls-6 {
        stroke: #000;
      }

      .cls-1, .cls-2 {
        stroke-linecap: round;
      }

      .cls-1 {
        stroke-linejoin: round;
      }

      .cls-1, .cls-2, .cls-5 {
        stroke-width: 2px;
      }

      .cls-3 {
        stroke: #c1272d;
        stroke-miterlimit: 10;
      }

      .cls-4 {
        fill: #c1272d;
      }

      .cls-6 {
        stroke-linecap: square;
      }
    </style>
  </defs>
  <title>DotConventionParallelSame</title>
  <circle class="cls-1" cx="4" cy="4" r="3"/>
  <circle class="cls-1" cx="4" cy="79" r="3"/>
  <g>
    <path class="cls-1" d="M75,62.5v7.16667a4.45833,4.45833,0,0,1,0,8.91666" transform="translate(-29 -46)"/>
    <path class="cls-1" d="M75,62.5" transform="translate(-29 -46)"/>
    <path class="cls-1" d="M36,50H75V63" transform="translate(-29 -46)"/>
    <path class="cls-2" d="M75,78.58333A4.45834,4.45834,0,0,1,75,87.5" transform="translate(-29 -46)"/>
    <path class="cls-2" d="M75,87.5a4.45834,4.45834,0,0,1,0,8.91667" transform="translate(-29 -46)"/>
    <path class="cls-1" d="M75,112.5v-7.16667a4.45833,4.45833,0,0,0,0-8.91666" transform="translate(-29 -46)"/>
    <path class="cls-1" d="M75,112.5" transform="translate(-29 -46)"/>
    <path class="cls-1" d="M36,125H75V113" transform="translate(-29 -46)"/>
  </g>
  <g>
    <path class="cls-1" d="M70,62.5" transform="translate(-29 -46)"/>
    <path class="cls-1" d="M121,62" transform="translate(-29 -46)"/>
    <path class="cls-1" d="M75,50h46V69.16667a4.45833,4.45833,0,0,1,0,8.91666" transform="translate(-29 -46)"/>
    <path class="cls-2" d="M121,78.08333A4.45834,4.45834,0,0,1,121,87" transform="translate(-29 -46)"/>
    <path class="cls-2" d="M121,87a4.45834,4.45834,0,0,1,0,8.91667" transform="translate(-29 -46)"/>
    <path class="cls-1" d="M70,112.5" transform="translate(-29 -46)"/>
    <path class="cls-1" d="M121,112" transform="translate(-29 -46)"/>
    <path class="cls-1" d="M75,125h46V104.83333a4.45833,4.45833,0,0,0,0-8.91666" transform="translate(-29 -46)"/>
  </g>
  <g>
    <path class="cls-3" d="M84.02474,85.2428C84.49021,78.1392,91.4646,72.5,100,72.5c8.53442,0,15.50818,5.6379,15.9751,12.74035" transform="translate(-29 -46)"/>
    <polygon class="cls-4" points="58.196 37.269 57.741 36.736 55.118 38.979 53.072 36.199 52.509 36.614 55.001 40 58.196 37.269"/>
    <polygon class="cls-4" points="83.804 37.269 84.259 36.736 86.882 38.979 88.928 36.199 89.491 36.614 86.999 40 83.804 37.269"/>
  </g>
  <path d="M103.82227,68.91016c-.44336,0-.93555-.03614-1.39063-.03614-.45605,0-.92383.03614-1.36719.03614a.14371.14371,0,0,1-.168-.14405c0-.22754.13184-.22754.32325-.22754.81543,0,.88769-.09619.9834-.5039l1.6914-6.78809h-.01172l-4.47363,7.44776c-.07227.13183-.13184.21582-.28809.21582-.17968,0-.17968-.084-.2041-.28809l-.73144-7.26758h-.01172L96.5791,67.72266a1.12528,1.12528,0,0,0-.04883.2998c0,.18018.02442.4917.708.51611.14356,0,.22754.01172.22754.15577,0,.21582-.14355.21582-.21582.21582-.37109,0-.791-.03614-1.1748-.03614-.37207,0-.78028.03614-1.13965.03614-.084,0-.15625-.03614-.15625-.14405,0-.21582.13183-.22754.22851-.22754a1.06238,1.06238,0,0,0,1.16309-.83984l1.53515-6.17627a.74085.74085,0,0,0,.04786-.228c0-.2041-.32422-.2041-.69532-.2041-.22851,0-.32421,0-.32421-.144,0-.22754.13183-.22754.32421-.22754h1.59473c.28809,0,.31152,0,.33594.26367l.67187,6.72852,4.07715-6.77637c.13281-.21582.168-.21582.43262-.21582h1.53515c.20313,0,.29981,0,.29981.15576,0,.21582-.1084.21582-.36035.21582-.75586,0-.85156.09619-.94727.48l-1.61914,6.48828a1.20354,1.20354,0,0,0-.04785.27588c0,.10791,0,.2041.69531.2041.24024,0,.32422,0,.32422.15577C104.05078,68.91016,103.90625,68.91016,103.82227,68.91016Z" transform="translate(-29 -46)"/>
  <circle class="cls-5" cx="39" cy="24.5" r="1"/>
  <circle class="cls-5" cx="85" cy="24.5" r="1"/>
  <g>
    <path d="M61.85547,60.97461a.89729.89729,0,0,1-.91113-.95947,2.17111,2.17111,0,0,1,.21582-.82764l.44336-1.187.36035-.99561a2.76691,2.76691,0,0,0,.21582-.86328c0-.27588-.13184-.33594-.26367-.33594-.69629,0-1.00782,1.11524-1.11622,1.51123-.04785.16749-.05957.1919-.21582.1919-.05957,0-.17968,0-.17968-.12012,0-.06006.4082-1.84717,1.53515-1.84717a.88436.88436,0,0,1,.89942.95948,1.67875,1.67875,0,0,1-.14356.67187l-.76758,2.05078a4.05749,4.05749,0,0,0-.3125,1.15137c0,.32373.168.33594.26465.33594.69532,0,1.01953-1.15137,1.11524-1.499.04785-.18017.04785-.2041.2041-.2041.084,0,.17969,0,.17969.12012C63.37891,59.17578,62.9834,60.97461,61.85547,60.97461Zm1.0791-6.7041a.50988.50988,0,0,1-.53906-.51563.8145.8145,0,0,1,.76758-.75586.50943.50943,0,0,1,.53906.51563A.8145.8145,0,0,1,62.93457,54.27051Z" transform="translate(-29 -46)"/>
    <path d="M64.88867,64.81787c-.27929,0-.88672,0-1.13183.021v-.2168h.22363c.62891,0,.65039-.0835.65039-.33545V60.6665a2.0929,2.0929,0,0,1-.916.18213v-.21679a1.72817,1.72817,0,0,0,1.27246-.44727c.16016,0,.16016.01367.16016.18164v3.92041c0,.25879.02149.33545.65039.33545h.22363v.2168C65.77637,64.81787,65.169,64.81787,64.88867,64.81787Z" transform="translate(-29 -46)"/>
  </g>
  <polyline class="cls-6" points="42.143 7 42.143 17 40 14.857"/>
  <polyline class="cls-6" points="95.357 7 95.357 17 97.5 14.857"/>
  <g>
    <path d="M130.85547,60.97461a.89729.89729,0,0,1-.91113-.95947,2.17111,2.17111,0,0,1,.21582-.82764l.44336-1.187.36035-.99561a2.76691,2.76691,0,0,0,.21582-.86328c0-.27588-.13184-.33594-.26367-.33594-.69629,0-1.00782,1.11524-1.11622,1.51123-.04785.16749-.05957.1919-.21582.1919-.05957,0-.17968,0-.17968-.12012,0-.06006.4082-1.84717,1.53515-1.84717a.88436.88436,0,0,1,.89942.95948,1.67875,1.67875,0,0,1-.14356.67187l-.76758,2.05078a4.05749,4.05749,0,0,0-.3125,1.15137c0,.32373.168.33594.26465.33594.69532,0,1.01953-1.15137,1.11524-1.499.04785-.18017.04785-.2041.2041-.2041.084,0,.17969,0,.17969.12012C132.37891,59.17578,131.9834,60.97461,130.85547,60.97461Zm1.0791-6.7041a.50988.50988,0,0,1-.53906-.51563.8145.8145,0,0,1,.76758-.75586.50943.50943,0,0,1,.53906.51563A.8145.8145,0,0,1,131.93457,54.27051Z" transform="translate(-29 -46)"/>
    <path d="M135.03516,64.83887h-2.59278c0-.168,0-.18164.07715-.25879l1.3418-1.49512a2.50676,2.50676,0,0,0,.7334-1.54492c0-.57275-.30078-1.13867-.93653-1.13867a1.00793,1.00793,0,0,0-.94336.7124.27411.27411,0,0,1,.09082-.00684.35306.35306,0,0,1,.37012.36328.36712.36712,0,1,1-.7334-.021,1.29151,1.29151,0,0,1,1.30664-1.26465A1.37273,1.37273,0,0,1,135.23047,61.54c0,.69922-.41895,1.07666-1.50879,2.041l-.74121.71973h1.25781a2.26662,2.26662,0,0,0,.66406-.05615,2.25286,2.25286,0,0,0,.15332-.62158h.17481Z" transform="translate(-29 -46)"/>
  </g>
</svg>
