<svg id="Layer_1" data-name="Layer 1" xmlns="http://www.w3.org/2000/svg" viewBox="0 0 106.23047 83">
  <defs>
    <style>
      .cls-1, .cls-2, .cls-3, .cls-6 {
        fill: none;
      }

      .cls-1, .cls-2, .cls-5, .cls-6 {
        stroke: #000;
      }

      .cls-1, .cls-2 {
        stroke-linecap: round;
      }

      .cls-1 {
        stroke-linejoin: round;
      }

      .cls-1, .cls-2, .cls-5 {
        stroke-width: 2px;
      }

      .cls-3 {
        stroke: #c1272d;
        stroke-miterlimit: 10;
      }

      .cls-4 {
        fill: #c1272d;
      }

      .cls-6 {
        stroke-linecap: square;
      }
    </style>
  </defs>
  <title>DotConventionParallelOpposite</title>
  <circle class="cls-1" cx="4" cy="4" r="3"/>
  <circle class="cls-1" cx="4" cy="79" r="3"/>
  <g>
    <path class="cls-1" d="M75,62.5v7.16667a4.45833,4.45833,0,0,1,0,8.91666" transform="translate(-29 -46)"/>
    <path class="cls-1" d="M75,62.5" transform="translate(-29 -46)"/>
    <path class="cls-1" d="M36,50H75V63" transform="translate(-29 -46)"/>
    <path class="cls-2" d="M75,78.58333A4.45834,4.45834,0,0,1,75,87.5" transform="translate(-29 -46)"/>
    <path class="cls-2" d="M75,87.5a4.45834,4.45834,0,0,1,0,8.91667" transform="translate(-29 -46)"/>
    <path class="cls-1" d="M75,112.5v-7.16667a4.45833,4.45833,0,0,0,0-8.91666" transform="translate(-29 -46)"/>
    <path class="cls-1" d="M75,112.5" transform="translate(-29 -46)"/>
    <path class="cls-1" d="M36,125H75V113" transform="translate(-29 -46)"/>
  </g>
  <g>
    <path class="cls-1" d="M70,62.5" transform="translate(-29 -46)"/>
    <path class="cls-1" d="M121,62" transform="translate(-29 -46)"/>
    <path class="cls-1" d="M75,50h46V69.16667a4.45833,4.45833,0,0,1,0,8.91666" transform="translate(-29 -46)"/>
    <path class="cls-2" d="M121,78.08333A4.45834,4.45834,0,0,1,121,87" transform="translate(-29 -46)"/>
    <path class="cls-2" d="M121,87a4.45834,4.45834,0,0,1,0,8.91667" transform="translate(-29 -46)"/>
    <path class="cls-1" d="M70,112.5" transform="translate(-29 -46)"/>
    <path class="cls-1" d="M121,112" transform="translate(-29 -46)"/>
    <path class="cls-1" d="M75,125h46V104.83333a4.45833,4.45833,0,0,0,0-8.91666" transform="translate(-29 -46)"/>
  </g>
  <g>
    <path class="cls-3" d="M84.02474,85.24255c.46547-7.1036,7.43986-12.7428,15.97526-12.7428,8.53442,0,15.50818,5.6379,15.9751,12.74035" transform="translate(-29 -46)"/>
    <polygon class="cls-4" points="58.196 37.269 57.741 36.736 55.118 38.979 53.072 36.198 52.509 36.614 55.001 40 58.196 37.269"/>
    <polygon class="cls-4" points="83.804 37.269 84.259 36.736 86.882 38.979 88.928 36.198 89.491 36.614 86.999 40 83.804 37.269"/>
  </g>
  <path d="M103.82275,68.90967c-.44384,0-.93554-.03613-1.39111-.03613s-.92334.03613-1.36719.03613a.14371.14371,0,0,1-.168-.144c0-.22754.13184-.22754.32373-.22754.81543,0,.8877-.0962.9834-.50391l1.69141-6.78809h-.01221l-4.47363,7.44776c-.07178.13183-.13184.21582-.2876.21582-.18017,0-.18017-.084-.2041-.28809L98.186,61.354h-.01221L96.5791,67.72217a1.13589,1.13589,0,0,0-.04834.2998c0,.18018.02393.4917.70752.51612.144,0,.228.01171.228.15576,0,.21582-.144.21582-.21582.21582-.37158,0-.79151-.03613-1.17529-.03613-.37207,0-.77979.03613-1.13965.03613-.084,0-.15576-.03613-.15576-.144,0-.21583.13183-.22754.228-.22754a1.06211,1.06211,0,0,0,1.16309-.83985L97.70605,61.522a.73434.73434,0,0,0,.04834-.228c0-.20411-.32421-.20411-.6958-.20411-.228,0-.32373,0-.32373-.144,0-.22754.13184-.22754.32373-.22754h1.59522c.2876,0,.31152,0,.33594.26367l.67138,6.72852,4.07764-6.77637c.13232-.21582.168-.21582.43213-.21582h1.53515c.20362,0,.29981,0,.29981.15576,0,.21582-.10791.21582-.35986.21582-.75586,0-.85157.0962-.94776.48l-1.61914,6.48829a1.20342,1.20342,0,0,0-.04785.27587c0,.10791,0,.20411.6958.20411.23975,0,.32373,0,.32373.15576C104.05078,68.90967,103.90674,68.90967,103.82275,68.90967Z" transform="translate(-29 -46)"/>
  <circle class="cls-5" cx="39" cy="24.5" r="1"/>
  <circle class="cls-5" cx="86" cy="58" r="1"/>
  <g>
    <path d="M61.85547,60.97461a.89768.89768,0,0,1-.91162-.95947,2.17111,2.17111,0,0,1,.21582-.82764l.44385-1.187.35986-.99561a2.76691,2.76691,0,0,0,.21582-.86328c0-.27588-.13184-.33594-.26367-.33594-.6958,0-1.00782,1.11524-1.11573,1.51123-.04785.16749-.06.1919-.21582.1919-.06,0-.17968,0-.17968-.12012,0-.06006.40771-1.84717,1.53515-1.84717a.88436.88436,0,0,1,.89942.95948,1.681,1.681,0,0,1-.144.67187l-.76757,2.05078a4.0705,4.0705,0,0,0-.312,1.15137c0,.32373.168.33594.26416.33594.69581,0,1.01954-1.15137,1.11524-1.499.04785-.18017.04785-.2041.2041-.2041.084,0,.17969,0,.17969.12012C63.37842,59.17578,62.98291,60.97461,61.85547,60.97461Zm1.0791-6.7041a.51031.51031,0,0,1-.53955-.51563.8145.8145,0,0,1,.76758-.75586.50957.50957,0,0,1,.53955.51563A.8145.8145,0,0,1,62.93457,54.27051Z" transform="translate(-29 -46)"/>
    <path d="M64.88867,64.81787c-.27929,0-.88721,0-1.13183.021v-.2168h.22363c.62891,0,.6499-.0835.6499-.33545V60.6665a2.09,2.09,0,0,1-.91553.18213v-.21679a1.7272,1.7272,0,0,0,1.272-.44727c.16064,0,.16064.01367.16064.18164v3.92041c0,.25879.021.33545.6499.33545H66.021v.2168C65.77637,64.81787,65.16846,64.81787,64.88867,64.81787Z" transform="translate(-29 -46)"/>
  </g>
  <polyline class="cls-6" points="42.143 7 42.143 17 40 14.857"/>
  <polyline class="cls-6" points="95.357 7 95.357 17 97.5 14.857"/>
  <g>
    <path d="M130.85547,60.97461a.89729.89729,0,0,1-.91113-.95947,2.17111,2.17111,0,0,1,.21582-.82764l.44336-1.187.36035-.99561a2.76691,2.76691,0,0,0,.21582-.86328c0-.27588-.13184-.33594-.26367-.33594-.69629,0-1.00782,1.11524-1.11622,1.51123-.04785.16749-.05957.1919-.21582.1919-.05957,0-.17968,0-.17968-.12012,0-.06006.4082-1.84717,1.53515-1.84717a.88436.88436,0,0,1,.89942.95948,1.67875,1.67875,0,0,1-.14356.67187l-.76758,2.05078a4.05749,4.05749,0,0,0-.3125,1.15137c0,.32373.168.33594.26465.33594.69532,0,1.01953-1.15137,1.11524-1.499.04785-.18017.04785-.2041.2041-.2041.084,0,.17969,0,.17969.12012C132.37891,59.17578,131.9834,60.97461,130.85547,60.97461Zm1.0791-6.7041a.50988.50988,0,0,1-.53906-.51563.8145.8145,0,0,1,.76758-.75586.50943.50943,0,0,1,.53906.51563A.8145.8145,0,0,1,131.93457,54.27051Z" transform="translate(-29 -46)"/>
    <path d="M135.03516,64.83887h-2.59278c0-.168,0-.18164.07715-.25879l1.3418-1.49512a2.50676,2.50676,0,0,0,.7334-1.54492c0-.57275-.30078-1.13867-.93653-1.13867a1.00793,1.00793,0,0,0-.94336.7124.27411.27411,0,0,1,.09082-.00684.35306.35306,0,0,1,.37012.36328.36712.36712,0,1,1-.7334-.021,1.29151,1.29151,0,0,1,1.30664-1.26465A1.37273,1.37273,0,0,1,135.23047,61.54c0,.69922-.41895,1.07666-1.50879,2.041l-.74121.71973h1.25781a2.26662,2.26662,0,0,0,.66406-.05615,2.25286,2.25286,0,0,0,.15332-.62158h.17481Z" transform="translate(-29 -46)"/>
  </g>
</svg>
