<?xml version="1.0" encoding="utf-8"?>
<!-- Generator: Adobe Illustrator 23.0.3, SVG Export Plug-In . SVG Version: 6.00 Build 0)  -->
<svg version="1.1" id="Layer_1" xmlns="http://www.w3.org/2000/svg" xmlns:xlink="http://www.w3.org/1999/xlink" x="0px" y="0px"
	 viewBox="0 0 106.23047 83" style="enable-background:new 0 0 106.23047 83;" xml:space="preserve">
<style type="text/css">
	.st0{fill:none;stroke:#8FF4DD;stroke-width:2;stroke-linecap:round;stroke-linejoin:round;}
	.st1{fill:none;stroke:#8FF4DD;stroke-width:2;stroke-linecap:round;}
	.st2{fill:none;stroke:#FD1D53;stroke-miterlimit:10;}
	.st3{fill:#FD1D53;}
	.st4{fill:#8FF4DD;}
	.st5{fill:#8FF4DD;stroke:#8FF4DD;stroke-width:2;}
	.st6{fill:none;stroke:#8FF4DD;stroke-linecap:square;}
</style>
<title>DotConventionParallelOpposite</title>
<circle class="st0" cx="4" cy="4" r="3"/>
<circle class="st0" cx="4" cy="79" r="3"/>
<g>
	<path class="st0" d="M46,16.5v7.16667c2.46227,0.00223,4.45652,2.0001,4.45429,4.46236
		C50.45206,30.58815,48.45911,32.5811,46,32.58333"/>
	<path class="st0" d="M46,16.5"/>
	<path class="st0" d="M7,4h39v13"/>
	<path class="st1" d="M46,32.58333c2.46227,0.0034,4.45558,2.00223,4.45218,4.46449C50.44878,39.50529,48.45746,41.4966,46,41.5"/>
	<path class="st1" d="M46,41.5c2.46227,0.0034,4.45558,2.00223,4.45218,4.46449c-0.0034,2.45747-1.99472,4.44878-4.45218,4.45218"/>
	<path class="st0" d="M46,66.5v-7.16667c2.46227-0.00223,4.45652-2.0001,4.45429-4.46236
		C50.45206,52.41185,48.45911,50.4189,46,50.41667"/>
	<path class="st0" d="M46,66.5"/>
	<path class="st0" d="M7,79h39V67"/>
</g>
<g>
	<path class="st0" d="M41,16.5"/>
	<path class="st0" d="M92,16"/>
	<path class="st0" d="M46,4h46v19.16667c2.46227,0.00223,4.45652,2.0001,4.45429,4.46236
		C96.45206,30.08815,94.45911,32.0811,92,32.08333"/>
	<path class="st1" d="M92,32.08333c2.46227,0.0034,4.45558,2.00223,4.45218,4.46449C96.44878,39.00529,94.45746,40.9966,92,41"/>
	<path class="st1" d="M92,41c2.46227,0.0034,4.45558,2.00223,4.45218,4.46449c-0.0034,2.45747-1.99472,4.44878-4.45218,4.45218"/>
	<path class="st0" d="M41,66.5"/>
	<path class="st0" d="M92,66"/>
	<path class="st0" d="M46,79h46V58.83333c2.46227-0.00223,4.45652-2.0001,4.45429-4.46236
		C96.45206,51.91185,94.45911,49.9189,92,49.91667"/>
</g>
<g>
	<path class="st2" d="M55.02474,39.24255C55.49021,32.13895,62.4646,26.49976,71,26.49976
		c8.53442,0,15.50818,5.6379,15.9751,12.74035"/>
	<polygon class="st3" points="58.196,37.269 57.741,36.736 55.118,38.979 53.072,36.198 52.509,36.614 55.001,40 	"/>
	<polygon class="st3" points="83.804,37.269 84.259,36.736 86.882,38.979 88.928,36.198 89.491,36.614 86.999,40 	"/>
</g>
<path class="st4" d="M74.82275,22.90967c-0.44384,0-0.93554-0.03613-1.39111-0.03613s-0.92334,0.03613-1.36719,0.03613
	c-0.07822,0.01343-0.15252-0.03911-0.16595-0.11733c-0.00151-0.0088-0.0022-0.01773-0.00205-0.02666
	c0-0.22754,0.13184-0.22754,0.32373-0.22754c0.81543,0,0.8877-0.0962,0.9834-0.50391l1.69141-6.78809h-0.01221l-4.47363,7.44776
	c-0.07178,0.13183-0.13184,0.21582-0.2876,0.21582c-0.18017,0-0.18017-0.084-0.2041-0.28809L69.186,15.354h-0.01221
	l-1.59469,6.36817c-0.02946,0.09732-0.04572,0.19815-0.04834,0.2998c0,0.18018,0.02393,0.4917,0.70752,0.51612
	c0.144,0,0.228,0.01171,0.228,0.15576c0,0.21582-0.144,0.21582-0.21582,0.21582c-0.37158,0-0.79151-0.03613-1.17529-0.03613
	c-0.37207,0-0.77979,0.03613-1.13965,0.03613c-0.084,0-0.15576-0.03613-0.15576-0.144c0-0.21583,0.13183-0.22754,0.228-0.22754
	c0.54675,0.06374,1.05161-0.3008,1.16309-0.83985l1.5352-6.17628c0.02814-0.07294,0.04446-0.14991,0.04834-0.228
	c0-0.20411-0.32421-0.20411-0.6958-0.20411c-0.228,0-0.32373,0-0.32373-0.144c0-0.22754,0.13184-0.22754,0.32373-0.22754h1.59522
	c0.2876,0,0.31152,0,0.33594,0.26367l0.67138,6.72852l4.07764-6.77637c0.13232-0.21582,0.168-0.21582,0.43213-0.21582h1.53515
	c0.20362,0,0.29981,0,0.29981,0.15576c0,0.21582-0.10791,0.21582-0.35986,0.21582c-0.75586,0-0.85157,0.0962-0.94776,0.48
	l-1.61914,6.48829c-0.02663,0.08978-0.04269,0.18237-0.04785,0.27587c0,0.10791,0,0.20411,0.6958,0.20411
	c0.23975,0,0.32373,0,0.32373,0.15576C75.05078,22.90967,74.90674,22.90967,74.82275,22.90967z"/>
<circle class="st5" cx="39" cy="24.5" r="1"/>
<circle class="st5" cx="86" cy="58" r="1"/>
<g>
	<path class="st4" d="M32.85547,14.97461c-0.4957,0.00888-0.90474-0.38576-0.91362-0.88145
		c-0.00047-0.02602,0.0002-0.05205,0.002-0.07801c0.01635-0.28746,0.08971-0.5688,0.21582-0.82764l0.44385-1.187l0.35986-0.99561
		c0.11805-0.27423,0.19093-0.56576,0.21582-0.86328c0-0.27588-0.13184-0.33594-0.26367-0.33594
		c-0.6958,0-1.00782,1.11524-1.11573,1.51123c-0.04785,0.16749-0.06,0.1919-0.21582,0.1919c-0.06,0-0.17968,0-0.17968-0.12012
		c0-0.06006,0.40771-1.84717,1.53515-1.84717c0.48832-0.01009,0.89235,0.37758,0.90245,0.8659
		c0.00064,0.03122-0.00037,0.06246-0.00303,0.09358c-0.00123,0.23148-0.05025,0.46022-0.144,0.67187l-0.76757,2.05078
		c-0.15998,0.36639-0.26511,0.75434-0.312,1.15137c0,0.32373,0.168,0.33594,0.26416,0.33594
		c0.69581,0,1.01954-1.15137,1.11524-1.499c0.04785-0.18017,0.04785-0.2041,0.2041-0.2041c0.084,0,0.17969,0,0.17969,0.12012
		C34.37842,13.17578,33.98291,14.97461,32.85547,14.97461z M33.93457,8.27051c-0.28137,0.01617-0.52258-0.19882-0.53875-0.48019
		c-0.00068-0.0118-0.00095-0.02362-0.0008-0.03544c0.02892-0.40934,0.35784-0.73324,0.76758-0.75586
		c0.28094-0.01658,0.52213,0.19772,0.53871,0.47866c0.00073,0.01231,0.00101,0.02464,0.00084,0.03697
		C34.67323,7.92399,34.34431,8.24789,33.93457,8.27051z"/>
	<path class="st4" d="M35.88867,18.81787c-0.27929,0-0.88721,0-1.13183,0.021v-0.2168h0.22363
		c0.62891,0,0.6499-0.0835,0.6499-0.33545V14.6665c-0.28754,0.12896-0.60052,0.19122-0.91553,0.18213v-0.21679
		c0.46708,0.0294,0.92611-0.132,1.272-0.44727c0.16064,0,0.16064,0.01367,0.16064,0.18164v3.92041
		c0,0.25879,0.021,0.33545,0.6499,0.33545H37.021v0.2168C36.77637,18.81787,36.16846,18.81787,35.88867,18.81787z"/>
</g>
<polyline class="st6" points="42.143,7 42.143,17 40,14.857 "/>
<polyline class="st6" points="95.357,7 95.357,17 97.5,14.857 "/>
<g>
	<path class="st4" d="M101.85547,14.97461c-0.49548,0.00884-0.90431-0.38566-0.91316-0.88114
		c-0.00046-0.02613,0.00021-0.05226,0.00203-0.07833c0.01634-0.28746,0.08971-0.5688,0.21582-0.82764l0.44336-1.187l0.36035-0.99561
		c0.11804-0.27423,0.19093-0.56576,0.21582-0.86328c0-0.27588-0.13184-0.33594-0.26367-0.33594
		c-0.69629,0-1.00781,1.11524-1.11623,1.51123c-0.04785,0.16749-0.05957,0.1919-0.21582,0.1919
		c-0.05957,0-0.17969,0-0.17969-0.12012c0-0.06006,0.4082-1.84717,1.53516-1.84717c0.48831-0.01009,0.89235,0.37759,0.90244,0.86591
		c0.00064,0.03122-0.00037,0.06246-0.00302,0.09357c-0.00102,0.23146-0.0499,0.46021-0.14355,0.67187l-0.76758,2.05078
		c-0.16032,0.36629-0.26564,0.75428-0.3125,1.15137c0,0.32373,0.168,0.33594,0.26465,0.33594
		c0.69531,0,1.01953-1.15137,1.11523-1.499c0.04785-0.18017,0.04785-0.2041,0.2041-0.2041c0.084,0,0.17969,0,0.17969,0.12012
		C103.37891,13.17578,102.9834,14.97461,101.85547,14.97461z M102.93457,8.27051c-0.28114,0.01614-0.52213-0.19868-0.53827-0.47982
		c-0.00069-0.01192-0.00095-0.02387-0.00079-0.03581c0.02892-0.40934,0.35785-0.73324,0.76758-0.75586
		c0.28087-0.01639,0.52185,0.19801,0.53824,0.47888c0.00072,0.01224,0.00099,0.02449,0.00082,0.03675
		C103.67323,7.92399,103.3443,8.24789,102.93457,8.27051z"/>
	<path class="st4" d="M106.03516,18.83887h-2.59277c0-0.168,0-0.18164,0.07715-0.25879l1.3418-1.49512
		c0.418-0.41309,0.67758-0.9599,0.7334-1.54492c0-0.57275-0.30078-1.13867-0.93652-1.13867
		c-0.43532,0.00879-0.81578,0.2961-0.94336,0.7124c0.02968-0.00733,0.06038-0.00964,0.09082-0.00684
		c0.19476-0.00951,0.36035,0.14066,0.36986,0.33542c0.00046,0.00928,0.00053,0.01857,0.00026,0.02786
		c0.00198,0.20274-0.16077,0.36871-0.36353,0.37069c-0.20274,0.00198-0.3687-0.16077-0.37068-0.36352
		c-0.00009-0.0094,0.00018-0.01879,0.00081-0.02817c0.01469-0.70869,0.59784-1.27311,1.30664-1.26465
		c0.75575-0.06007,1.41711,0.50388,1.47719,1.25964c0.00253,0.03188,0.00395,0.06383,0.00426,0.09581
		c0,0.69922-0.41895,1.07666-1.50879,2.041l-0.74121,0.71973h1.25781c0.22292,0.01411,0.44669-0.00482,0.66406-0.05615
		c0.08043-0.19884,0.13206-0.40814,0.15332-0.62158h0.1748L106.03516,18.83887z"/>
</g>
</svg>
