<svg id="Layer_1" data-name="Layer 1" xmlns="http://www.w3.org/2000/svg" viewBox="0 0 329.10645 125.12012">
  <defs>
    <style>
      .cls-1, .cls-2, .cls-3, .cls-5, .cls-6, .cls-7 {
        fill: none;
      }

      .cls-1, .cls-2, .cls-5, .cls-6, .cls-7, .cls-8 {
        stroke: #000;
      }

      .cls-1, .cls-5 {
        stroke-linecap: round;
      }

      .cls-1 {
        stroke-linejoin: round;
      }

      .cls-1, .cls-5, .cls-6, .cls-8 {
        stroke-width: 2px;
      }

      .cls-2, .cls-6 {
        stroke-linecap: square;
      }

      .cls-2 {
        stroke-width: 1.5px;
      }

      .cls-3 {
        stroke: #c1272d;
        stroke-miterlimit: 10;
      }

      .cls-4 {
        fill: #c1272d;
      }

      .cls-7 {
        stroke-width: 0.5px;
      }
    </style>
  </defs>
  <title>DotConvention</title>
  <polyline class="cls-1" points="69 41.281 69 31.281 98.02 31.281 109 31.281"/>
  <line class="cls-2" x1="91.5" y1="42.28125" x2="96.5" y2="42.28125"/>
  <line class="cls-2" x1="94" y1="44.78125" x2="94" y2="39.78125"/>
  <line class="cls-2" x1="91.5" y1="92.28125" x2="96.5" y2="92.28125"/>
  <g>
    <path d="M127.85547,82.97461a.89729.89729,0,0,1-.91113-.95947,2.17111,2.17111,0,0,1,.21582-.82764l.44336-1.187.36035-.99561a2.76691,2.76691,0,0,0,.21582-.86328c0-.27588-.13184-.33594-.26367-.33594-.69629,0-1.00782,1.11524-1.11622,1.51123-.04785.16749-.05957.1919-.21582.1919-.05957,0-.17968,0-.17968-.12012,0-.06006.4082-1.84717,1.53515-1.84717a.88436.88436,0,0,1,.89942.95948,1.67875,1.67875,0,0,1-.14356.67187l-.76758,2.05078a4.05749,4.05749,0,0,0-.3125,1.15137c0,.32373.168.33594.26465.33594.69532,0,1.01953-1.15137,1.11524-1.499.04785-.18017.04785-.2041.2041-.2041.084,0,.17969,0,.17969.12012C129.37891,81.17578,128.9834,82.97461,127.85547,82.97461Zm1.0791-6.7041a.50988.50988,0,0,1-.53906-.51563.8145.8145,0,0,1,.76758-.75586.50943.50943,0,0,1,.53906.51563A.8145.8145,0,0,1,128.93457,76.27051Z" transform="translate(-109 -33.71875)"/>
    <path d="M130.88867,86.81787c-.27929,0-.88672,0-1.13183.021v-.2168h.22363c.62891,0,.65039-.0835.65039-.33545V82.6665a2.0929,2.0929,0,0,1-.916.18213v-.21679a1.72817,1.72817,0,0,0,1.27246-.44727c.16016,0,.16016.01367.16016.18164v3.92041c0,.25879.02149.33545.65039.33545h.22363v.2168C131.77637,86.81787,131.169,86.81787,130.88867,86.81787Z" transform="translate(-109 -33.71875)"/>
  </g>
  <g>
    <path d="M202.30127,102.042a1.34293,1.34293,0,0,1-1.4751-1.439,7.63321,7.63321,0,0,1,.61133-2.30274,3.53538,3.53538,0,0,0,.28809-1.07959c0-.312-.13184-.34765-.26368-.34765-.6958,0-1.01953,1.13916-1.11572,1.51123-.04785.16748-.06006.19189-.21582.19189-.06006,0-.17969,0-.17969-.12012,0-.07177.41944-1.84716,1.53516-1.84716a.89849.89849,0,0,1,.91113.97168,1.90275,1.90275,0,0,1-.13183.59961,9.04407,9.04407,0,0,0-.70752,2.60253c0,.396.13183.99561.77978.99561,1.37891,0,1.94287-3.01025,1.94287-3.34619a1.35475,1.35475,0,0,0-.32373-.94775.46249.46249,0,0,1-.15625-.32374.61649.61649,0,0,1,.57569-.55175c.34814,0,.4917.37207.4917.7915C204.86768,97.7124,204.31592,102.042,202.30127,102.042Z" transform="translate(-109 -33.71875)"/>
    <path d="M207.41748,105.90625h-2.59277c0-.168,0-.18164.07666-.25879l1.34179-1.49512a2.50482,2.50482,0,0,0,.73389-1.54492c0-.57275-.30078-1.13867-.93652-1.13867a1.00746,1.00746,0,0,0-.94336.7124.27106.27106,0,0,1,.09082-.00683.35335.35335,0,0,1,.37012.36328.36712.36712,0,1,1-.7334-.021,1.29119,1.29119,0,0,1,1.30664-1.26465,1.37272,1.37272,0,0,1,1.48144,1.35547c0,.69922-.41894,1.07666-1.50927,2.041l-.74073.71972h1.25782a2.27011,2.27011,0,0,0,.66406-.05615,2.30533,2.30533,0,0,0,.15381-.62158h.17431Z" transform="translate(-109 -33.71875)"/>
    <path d="M220.208,97.98828h-7.15967c-.18018,0-.40771,0-.40771-.23974s.22753-.23975.3955-.23975h7.18408c.168,0,.396,0,.396.23975S220.38818,97.98828,220.208,97.98828Zm.0122,2.32666h-7.18408c-.168,0-.3955,0-.3955-.23974s.22753-.23975.40771-.23975H220.208c.18017,0,.4082,0,.4082.23975S220.38818,100.31494,220.22021,100.31494Z" transform="translate(-109 -33.71875)"/>
    <path d="M229.10352,93.96484l.73242,6.39844,4.61133-6.39844h1.93945v.2168a4.32568,4.32568,0,0,0-.74414.082.81228.81228,0,0,0-.35449.30469,3.27459,3.27459,0,0,0-.34864.87891l-1.4707,5.03906a2.63146,2.63146,0,0,0-.12891.6914.40306.40306,0,0,0,.15821.34571,1.16385,1.16385,0,0,0,.70312.16992h.14063l-.05274.2168h-3.3457l.05859-.2168h.15821a1.43808,1.43808,0,0,0,.67968-.12891.83041.83041,0,0,0,.3252-.35449,6.98143,6.98143,0,0,0,.40137-1.15723l1.3125-4.60546-4.63477,6.46289h-.23437l-.74414-6.46289-1.418,4.916a3.83,3.83,0,0,0-.18164.84375.38309.38309,0,0,0,.1582.33106,1.7833,1.7833,0,0,0,.76758.15527l-.06446.2168H224.9082l.06446-.2168h.1582a1.06387,1.06387,0,0,0,.83789-.293,2.65529,2.65529,0,0,0,.39258-.91406l1.72851-5.92383a1.11525,1.11525,0,0,0-.36914-.26953,2.62362,2.62362,0,0,0-.65039-.11133l.0586-.2168Z" transform="translate(-109 -33.71875)"/>
  </g>
  <g>
    <path class="cls-3" d="M150.021,58.24091a13.5004,13.5004,0,0,1,26.958-.00055" transform="translate(-109 -33.71875)"/>
    <polygon class="cls-4" points="44.147 22.494 43.683 21.969 41.1 24.258 39.006 21.515 38.449 21.94 41.001 25.281 44.147 22.494"/>
    <polygon class="cls-4" points="64.853 22.494 65.317 21.969 67.9 24.258 69.994 21.515 70.551 21.94 67.999 25.281 64.853 22.494"/>
  </g>
  <path d="M167.32227,41.91016c-.44336,0-.93555-.03614-1.39063-.03614-.456,0-.92383.03614-1.36719.03614a.14371.14371,0,0,1-.168-.144c0-.22754.13184-.22754.32325-.22754.81543,0,.88769-.09619.9834-.5039l1.6914-6.78809h-.01172l-4.47363,7.44776c-.07227.13183-.13184.21582-.28809.21582-.17968,0-.17968-.084-.2041-.28809l-.73144-7.26758h-.01172l-1.59473,6.36817a1.12528,1.12528,0,0,0-.04883.2998c0,.18018.02442.4917.708.51611.14356,0,.22754.01172.22754.15577,0,.21582-.14355.21582-.21582.21582-.37109,0-.791-.03614-1.1748-.03614-.37207,0-.78028.03614-1.13965.03614-.084,0-.15625-.03614-.15625-.144,0-.21582.13183-.22754.22851-.22754a1.06238,1.06238,0,0,0,1.16309-.83984l1.53515-6.17627a.74085.74085,0,0,0,.04786-.228c0-.2041-.32422-.2041-.69532-.2041-.22851,0-.32421,0-.32421-.144,0-.22754.13183-.22754.32421-.22754h1.59473c.28809,0,.31152,0,.33594.26367l.67187,6.72852,4.07715-6.77637c.13281-.21582.168-.21582.43262-.21582h1.53515c.20313,0,.29981,0,.29981.15576,0,.21582-.1084.21582-.36035.21582-.75586,0-.85156.09619-.94727.48l-1.61914,6.48828a1.20354,1.20354,0,0,0-.04785.27588c0,.10791,0,.2041.69531.2041.24024,0,.32422,0,.32422.15577C167.55078,41.91016,167.40625,41.91016,167.32227,41.91016Z" transform="translate(-109 -33.71875)"/>
  <g>
    <path class="cls-1" d="M150,91.08333a4.45833,4.45833,0,0,0,0-8.91666V65H110" transform="translate(-109 -33.71875)"/>
    <path class="cls-5" d="M150,91.08333A4.45834,4.45834,0,0,1,150,100" transform="translate(-109 -33.71875)"/>
    <path class="cls-5" d="M150,100a4.45834,4.45834,0,0,1,0,8.91667" transform="translate(-109 -33.71875)"/>
    <path class="cls-1" d="M150,108.91667a4.45833,4.45833,0,0,1,0,8.91666V135H110" transform="translate(-109 -33.71875)"/>
  </g>
  <polyline class="cls-6" points="13 35.281 27 35.281 24 38.281"/>
  <g>
    <path class="cls-1" d="M178,75v7.16667a4.45833,4.45833,0,1,0,0,8.91666" transform="translate(-109 -33.71875)"/>
    <path class="cls-5" d="M178,91.08333A4.45834,4.45834,0,0,0,178,100" transform="translate(-109 -33.71875)"/>
    <path class="cls-5" d="M178,100a4.45834,4.45834,0,0,0,0,8.91667" transform="translate(-109 -33.71875)"/>
    <path class="cls-1" d="M178,108.91667a4.45833,4.45833,0,1,0,0,8.91666V125" transform="translate(-109 -33.71875)"/>
  </g>
  <polyline class="cls-1" points="69 91.281 69 101.281 98.02 101.281 109 101.281"/>
  <polyline class="cls-6" points="84 26.281 98 26.281 95 23.281"/>
  <g>
    <path d="M198.85547,48.97461a.89729.89729,0,0,1-.91113-.95947,2.17111,2.17111,0,0,1,.21582-.82764l.44336-1.187.36035-.99561a2.76691,2.76691,0,0,0,.21582-.86328c0-.27588-.13184-.33594-.26367-.33594-.69629,0-1.00782,1.11524-1.11622,1.51123-.04785.16749-.05957.1919-.21582.1919-.05957,0-.17968,0-.17968-.12012,0-.06006.4082-1.84717,1.53515-1.84717a.88436.88436,0,0,1,.89942.95948,1.67875,1.67875,0,0,1-.14356.67187l-.76758,2.05078a4.05749,4.05749,0,0,0-.3125,1.15137c0,.32373.168.33594.26465.33594.69532,0,1.01953-1.15137,1.11524-1.499.04785-.18017.04785-.2041.2041-.2041.084,0,.17969,0,.17969.12012C200.37891,47.17578,199.9834,48.97461,198.85547,48.97461Zm1.0791-6.7041a.50988.50988,0,0,1-.53906-.51563.8145.8145,0,0,1,.76758-.75586.50943.50943,0,0,1,.53906.51563A.8145.8145,0,0,1,199.93457,42.27051Z" transform="translate(-109 -33.71875)"/>
    <path d="M203.03516,52.83887h-2.59278c0-.168,0-.18164.07715-.25879l1.3418-1.49512a2.50676,2.50676,0,0,0,.7334-1.54492c0-.57275-.30078-1.13867-.93653-1.13867a1.00793,1.00793,0,0,0-.94336.7124.27411.27411,0,0,1,.09082-.00684.35306.35306,0,0,1,.37012.36328.36712.36712,0,1,1-.7334-.021,1.29151,1.29151,0,0,1,1.30664-1.26465A1.37273,1.37273,0,0,1,203.23047,49.54c0,.69922-.41895,1.07666-1.50879,2.041l-.74121.71973h1.25781a2.26662,2.26662,0,0,0,.66406-.05615,2.25286,2.25286,0,0,0,.15332-.62158h.17481Z" transform="translate(-109 -33.71875)"/>
  </g>
  <g>
    <g>
      <path d="M244.30762,91.73a1.14232,1.14232,0,0,1-1.02344.78467,1.17229,1.17229,0,0,1-1.16211-.981,2.29547,2.29547,0,0,1-1.68066.981c-1.05078,0-1.69532-.981-1.69532-2.17139,0-2.04492,1.65332-4.17431,3.208-4.17431a1.2979,1.2979,0,0,1,1.17676.8125l.8125-3.27784s.042-.19629.042-.23828c0-.13965-.02832-.23779-.70117-.23779-.19531,0-.33594,0-.33594-.1543,0-.26611.1543-.28027.32227-.29394l1.38672-.11231a1.261,1.261,0,0,1,.22461-.02783c.11132,0,.19531.042.19531.168,0,0-.02735.14014-.042.18213l-2.00293,7.99853a2.4711,2.4711,0,0,0-.084.644c0,.19629,0,.57421.36426.57421.47656,0,.74219-.88232.93848-1.6665.084-.30859.09863-.32226.2666-.32226.09765,0,.21,0,.21.14013A7.3308,7.3308,0,0,1,244.30762,91.73Zm-1.42871-3.76807a.656.656,0,0,0,.042-.18212,2.04421,2.04421,0,0,0-.28027-.89649.78454.78454,0,0,0-.68653-.40625c-.57422,0-1.21875.70068-1.56933,1.55518a11.17056,11.17056,0,0,0-.68653,2.92724c0,.42041.11231,1.24658.77051,1.24658.77051,0,1.625-1.1206,1.7373-1.55468Z" transform="translate(-109 -33.71875)"/>
      <path d="M247.24512,92.51465a1.04863,1.04863,0,0,1-1.06446-1.12061,2.53066,2.53066,0,0,1,.252-.96679l.51855-1.38672.41992-1.1626a3.21482,3.21482,0,0,0,.252-1.0083c0-.32227-.15332-.39258-.30762-.39258-.8125,0-1.17676,1.30274-1.30273,1.76514-.05665.1958-.07032.22412-.252.22412-.07031,0-.21,0-.21-.14014,0-.06982.47559-2.15722,1.793-2.15722a1.03247,1.03247,0,0,1,1.0498,1.1206,1.95748,1.95748,0,0,1-.168.78467l-.89649,2.395a4.76553,4.76553,0,0,0-.36426,1.34472c0,.37842.19629.39209.3086.39209.8125,0,1.19043-1.34472,1.30273-1.75048.05567-.21045.05567-.23828.23828-.23828.09766,0,.21,0,.21.14013C249.02441,90.41309,248.56152,92.51465,247.24512,92.51465Zm1.26074-7.83057a.59542.59542,0,0,1-.62988-.602.95129.95129,0,0,1,.89648-.88281.59526.59526,0,0,1,.62988.60254A.95084.95084,0,0,1,248.50586,84.68408Z" transform="translate(-109 -33.71875)"/>
      <path d="M250.7832,96.99805c-.32617,0-1.03613,0-1.32226.02441v-.25293h.26172c.73437,0,.75879-.09814.75879-.39209V92.14893a2.44427,2.44427,0,0,1-1.06934.2124v-.25342a2.01645,2.01645,0,0,0,1.48535-.52246c.18848,0,.18848.0166.18848.2124v4.57959c0,.30225.02441.39209.75879.39209h.26172v.25293C251.82031,96.99805,251.11035,96.99805,250.7832,96.99805Z" transform="translate(-109 -33.71875)"/>
    </g>
    <g>
      <path d="M245.88623,110.73a1.14231,1.14231,0,0,1-1.02344.78467,1.17229,1.17229,0,0,1-1.16211-.981,2.29544,2.29544,0,0,1-1.68066.981c-1.05078,0-1.69531-.981-1.69531-2.17139,0-2.04492,1.65332-4.17431,3.208-4.17431a1.29789,1.29789,0,0,1,1.17676.8125l.8125-3.27784s.042-.19629.042-.23828c0-.13965-.02832-.23779-.70117-.23779-.19531,0-.33593,0-.33593-.1543,0-.26611.15429-.28027.32226-.29394l1.38672-.11231a1.26112,1.26112,0,0,1,.22461-.02783c.11133,0,.19531.042.19531.168,0,0-.02734.14014-.042.18213l-2.00293,7.99853a2.47138,2.47138,0,0,0-.084.644c0,.19629,0,.57421.36425.57421.47657,0,.74219-.88232.93848-1.6665.084-.30859.09863-.32226.2666-.32226.09766,0,.21,0,.21.14013A7.3308,7.3308,0,0,1,245.88623,110.73Zm-1.42871-3.76807a.656.656,0,0,0,.042-.18212,2.04408,2.04408,0,0,0-.28027-.89649.78454.78454,0,0,0-.68653-.40625c-.57421,0-1.21875.70068-1.56933,1.55518a11.171,11.171,0,0,0-.68652,2.92724c0,.42041.1123,1.24658.7705,1.24658.77051,0,1.625-1.1206,1.73731-1.55468Z" transform="translate(-109 -33.71875)"/>
      <path d="M248.82373,111.51465a1.18131,1.18131,0,0,1-1.19043-1.26074,2.12077,2.12077,0,0,1,.07031-.47657l1.00782-4.02h-1.12012c-.22461,0-.35059,0-.35059-.168,0-.26612.1543-.26612.39258-.26612h1.19043l.54688-2.22754a.5834.5834,0,0,1,.54589-.5039.35072.35072,0,0,1,.37793.36377.856.856,0,0,1-.05566.29443l-.51856,2.07324h1.1211c.22314,0,.3501,0,.3501.168,0,.26611-.1543.26611-.39209.26611h-1.19141l-1.03613,4.16016a2.75077,2.75077,0,0,0-.09766.71436c0,.22412,0,.57421.37793.57421.79785,0,1.3584-1.05029,1.61035-1.72265.11231-.25244.11231-.26611.28028-.26611.09863,0,.21,0,.21.14013C250.95264,109.42725,250.23877,111.51465,248.82373,111.51465Z" transform="translate(-109 -33.71875)"/>
    </g>
    <line class="cls-7" x1="129" y1="64.65283" x2="143" y2="64.65283"/>
  </g>
  <circle class="cls-8" cx="34" cy="48.28125" r="1"/>
  <circle class="cls-8" cx="76" cy="48.28125" r="1"/>
  <polyline class="cls-1" points="251 41.281 251 31.281 280.02 31.281 291 31.281"/>
  <line class="cls-2" x1="273.5" y1="42.28125" x2="278.5" y2="42.28125"/>
  <line class="cls-2" x1="276" y1="44.78125" x2="276" y2="39.78125"/>
  <line class="cls-2" x1="273.5" y1="92.28125" x2="278.5" y2="92.28125"/>
  <g>
    <path d="M309.85547,82.97461a.89729.89729,0,0,1-.91113-.95947,2.17111,2.17111,0,0,1,.21582-.82764l.44336-1.187.36035-.99561a2.76691,2.76691,0,0,0,.21582-.86328c0-.27588-.13184-.33594-.26367-.33594-.69629,0-1.00782,1.11524-1.11622,1.51123-.04785.16749-.05957.1919-.21582.1919-.05957,0-.17968,0-.17968-.12012,0-.06006.4082-1.84717,1.53515-1.84717a.88436.88436,0,0,1,.89942.95948,1.67875,1.67875,0,0,1-.14356.67187l-.76758,2.05078a4.05749,4.05749,0,0,0-.3125,1.15137c0,.32373.168.33594.26465.33594.69532,0,1.01953-1.15137,1.11524-1.499.04785-.18017.04785-.2041.2041-.2041.084,0,.17969,0,.17969.12012C311.37891,81.17578,310.9834,82.97461,309.85547,82.97461Zm1.0791-6.7041a.50988.50988,0,0,1-.53906-.51563.8145.8145,0,0,1,.76758-.75586.50943.50943,0,0,1,.53906.51563A.8145.8145,0,0,1,310.93457,76.27051Z" transform="translate(-109 -33.71875)"/>
    <path d="M312.88867,86.81787c-.27929,0-.88672,0-1.13183.021v-.2168h.22363c.62891,0,.65039-.0835.65039-.33545V82.6665a2.0929,2.0929,0,0,1-.916.18213v-.21679a1.72817,1.72817,0,0,0,1.27246-.44727c.16016,0,.16016.01367.16016.18164v3.92041c0,.25879.02149.33545.65039.33545h.22363v.2168C313.77637,86.81787,313.169,86.81787,312.88867,86.81787Z" transform="translate(-109 -33.71875)"/>
  </g>
  <g>
    <path d="M384.30078,102.042a1.34278,1.34278,0,0,1-1.47461-1.439,7.64807,7.64807,0,0,1,.61133-2.30274,3.53538,3.53538,0,0,0,.28809-1.07959c0-.312-.13184-.34765-.26368-.34765-.69628,0-1.01953,1.13916-1.11621,1.51123-.04687.16748-.05957.19189-.21484.19189-.06055,0-.17969,0-.17969-.12012,0-.07177.41895-1.84716,1.53516-1.84716a.89775.89775,0,0,1,.91015.97168,1.91606,1.91606,0,0,1-.13085.59961,9.03058,9.03058,0,0,0-.708,2.60253c0,.396.13183.99561.78027.99561,1.37891,0,1.94238-3.01025,1.94238-3.34619a1.35635,1.35635,0,0,0-.32324-.94775.46249.46249,0,0,1-.15625-.32374.61559.61559,0,0,1,.5752-.55175c.34863,0,.49121.37207.49121.7915C386.86719,97.7124,386.31641,102.042,384.30078,102.042Z" transform="translate(-109 -33.71875)"/>
    <path d="M389.418,105.90625h-2.59375c0-.168,0-.18164.07715-.25879l1.34179-1.49512a2.50676,2.50676,0,0,0,.7334-1.54492c0-.57275-.30078-1.13867-.93554-1.13867a1.00611,1.00611,0,0,0-.94336.7124.26406.26406,0,0,1,.08984-.00683.35389.35389,0,0,1,.37109.36328.36758.36758,0,1,1-.73437-.021,1.29151,1.29151,0,0,1,1.30664-1.26465,1.373,1.373,0,0,1,1.48242,1.35547c0,.69922-.41992,1.07666-1.50976,2.041l-.74024.71972h1.25781a2.27357,2.27357,0,0,0,.66407-.05615,2.32572,2.32572,0,0,0,.15332-.62158h.1748Z" transform="translate(-109 -33.71875)"/>
    <path d="M402.208,97.98828h-7.15918c-.18067,0-.4082,0-.4082-.23974s.22753-.23975.3955-.23975h7.18457c.168,0,.39551,0,.39551.23975S402.38867,97.98828,402.208,97.98828Zm.01269,2.32666h-7.18457c-.168,0-.3955,0-.3955-.23974s.22753-.23975.4082-.23975H402.208c.18066,0,.4082,0,.4082.23975S402.38867,100.31494,402.2207,100.31494Z" transform="translate(-109 -33.71875)"/>
    <path d="M407.43262,99.66748v-.6958h3.17871v.6958Z" transform="translate(-109 -33.71875)"/>
    <path d="M415.09961,93.96484l.73242,6.39844,4.61133-6.39844h1.93945v.2168a4.32584,4.32584,0,0,0-.74414.082.81233.81233,0,0,0-.35449.30469,3.275,3.275,0,0,0-.34863.87891l-1.47071,5.03906a2.63179,2.63179,0,0,0-.1289.6914.40305.40305,0,0,0,.1582.34571,1.16389,1.16389,0,0,0,.70313.16992h.14062l-.05273.2168h-3.34571l.0586-.2168h.1582a1.4381,1.4381,0,0,0,.67969-.12891.83046.83046,0,0,0,.32519-.35449,6.97948,6.97948,0,0,0,.40137-1.15723l1.3125-4.60546-4.63477,6.46289h-.23437l-.74414-6.46289-1.418,4.916a3.83057,3.83057,0,0,0-.18164.84375.38309.38309,0,0,0,.1582.33106,1.7833,1.7833,0,0,0,.76758.15527l-.06445.2168H410.9043l.06445-.2168h.1582a1.06387,1.06387,0,0,0,.83789-.293,2.65529,2.65529,0,0,0,.39258-.91406l1.72852-5.92383a1.11545,1.11545,0,0,0-.36914-.26953,2.62381,2.62381,0,0,0-.65039-.11133l.05859-.2168Z" transform="translate(-109 -33.71875)"/>
  </g>
  <g>
    <path class="cls-3" d="M332.021,58.24091a13.5004,13.5004,0,0,1,26.958-.00055" transform="translate(-109 -33.71875)"/>
    <polygon class="cls-4" points="226.147 22.494 225.683 21.969 223.1 24.258 221.006 21.515 220.449 21.94 223.001 25.281 226.147 22.494"/>
    <polygon class="cls-4" points="246.853 22.494 247.317 21.969 249.9 24.258 251.994 21.515 252.551 21.94 249.999 25.281 246.853 22.494"/>
  </g>
  <path d="M349.32227,41.91016c-.44336,0-.93555-.03614-1.39063-.03614-.45605,0-.92383.03614-1.36719.03614a.14371.14371,0,0,1-.168-.144c0-.22754.13184-.22754.32325-.22754.81543,0,.88769-.09619.9834-.5039l1.6914-6.78809h-.01172l-4.47363,7.44776c-.07227.13183-.13184.21582-.28809.21582-.17968,0-.17968-.084-.2041-.28809l-.73144-7.26758h-.01172l-1.59473,6.36817a1.12528,1.12528,0,0,0-.04883.2998c0,.18018.02442.4917.708.51611.14356,0,.22754.01172.22754.15577,0,.21582-.14355.21582-.21582.21582-.37109,0-.791-.03614-1.1748-.03614-.37207,0-.78028.03614-1.13965.03614-.084,0-.15625-.03614-.15625-.144,0-.21582.13183-.22754.22851-.22754a1.06238,1.06238,0,0,0,1.16309-.83984l1.53515-6.17627a.74085.74085,0,0,0,.04786-.228c0-.2041-.32422-.2041-.69532-.2041-.22851,0-.32421,0-.32421-.144,0-.22754.13183-.22754.32421-.22754h1.59473c.28809,0,.31152,0,.33594.26367l.67187,6.72852,4.07715-6.77637c.13281-.21582.168-.21582.43262-.21582h1.53515c.20313,0,.29981,0,.29981.15576,0,.21582-.1084.21582-.36035.21582-.75586,0-.85156.09619-.94727.48l-1.61914,6.48828a1.20354,1.20354,0,0,0-.04785.27588c0,.10791,0,.2041.69531.2041.24024,0,.32422,0,.32422.15577C349.55078,41.91016,349.40625,41.91016,349.32227,41.91016Z" transform="translate(-109 -33.71875)"/>
  <g>
    <path class="cls-1" d="M332,91.08333a4.45833,4.45833,0,0,0,0-8.91666V65H292" transform="translate(-109 -33.71875)"/>
    <path class="cls-5" d="M332,91.08333A4.45834,4.45834,0,0,1,332,100" transform="translate(-109 -33.71875)"/>
    <path class="cls-5" d="M332,100a4.45834,4.45834,0,0,1,0,8.91667" transform="translate(-109 -33.71875)"/>
    <path class="cls-1" d="M332,108.91667a4.45833,4.45833,0,0,1,0,8.91666V135H292" transform="translate(-109 -33.71875)"/>
  </g>
  <polyline class="cls-6" points="195 35.281 209 35.281 206 38.281"/>
  <g>
    <path class="cls-1" d="M360,75v7.16667a4.45833,4.45833,0,1,0,0,8.91666" transform="translate(-109 -33.71875)"/>
    <path class="cls-5" d="M360,91.08333A4.45834,4.45834,0,0,0,360,100" transform="translate(-109 -33.71875)"/>
    <path class="cls-5" d="M360,100a4.45834,4.45834,0,0,0,0,8.91667" transform="translate(-109 -33.71875)"/>
    <path class="cls-1" d="M360,108.91667a4.45833,4.45833,0,1,0,0,8.91666V125" transform="translate(-109 -33.71875)"/>
  </g>
  <polyline class="cls-1" points="251 91.281 251 101.281 280.02 101.281 291 101.281"/>
  <polyline class="cls-6" points="265 106.281 279 106.281 276 109.281"/>
  <g>
    <path d="M380.85547,154.97461a.89729.89729,0,0,1-.91113-.95947,2.17111,2.17111,0,0,1,.21582-.82764l.44336-1.187.36035-.99561a2.76691,2.76691,0,0,0,.21582-.86328c0-.27588-.13184-.33594-.26367-.33594-.69629,0-1.00782,1.11524-1.11622,1.51123-.04785.16749-.05957.1919-.21582.1919-.05957,0-.17968,0-.17968-.12012,0-.06006.4082-1.84717,1.53515-1.84717a.88436.88436,0,0,1,.89942.95948,1.67875,1.67875,0,0,1-.14356.67187l-.76758,2.05078a4.05749,4.05749,0,0,0-.3125,1.15137c0,.32373.168.33594.26465.33594.69532,0,1.01953-1.15137,1.11524-1.499.04785-.18017.04785-.2041.2041-.2041.084,0,.17969,0,.17969.12012C382.37891,153.17578,381.9834,154.97461,380.85547,154.97461Zm1.0791-6.7041a.50988.50988,0,0,1-.53906-.51563.8145.8145,0,0,1,.76758-.75586.50943.50943,0,0,1,.53906.51563A.8145.8145,0,0,1,381.93457,148.27051Z" transform="translate(-109 -33.71875)"/>
    <path d="M385.03516,158.83887h-2.59278c0-.168,0-.18164.07715-.25879l1.3418-1.49512a2.50676,2.50676,0,0,0,.7334-1.54492c0-.57275-.30078-1.13867-.93653-1.13867a1.00793,1.00793,0,0,0-.94336.7124.27411.27411,0,0,1,.09082-.00684.35306.35306,0,0,1,.37012.36328.36712.36712,0,1,1-.7334-.021,1.29151,1.29151,0,0,1,1.30664-1.26465,1.37273,1.37273,0,0,1,1.48145,1.35547c0,.69922-.419,1.07666-1.50879,2.041l-.74121.71973h1.25781a.56045.56045,0,0,0,.81738-.67773h.17481Z" transform="translate(-109 -33.71875)"/>
  </g>
  <g>
    <g>
      <path d="M430.30762,91.73a1.14232,1.14232,0,0,1-1.02344.78467,1.17229,1.17229,0,0,1-1.16211-.981,2.29547,2.29547,0,0,1-1.68066.981c-1.05078,0-1.69532-.981-1.69532-2.17139,0-2.04492,1.65332-4.17431,3.208-4.17431a1.2979,1.2979,0,0,1,1.17676.8125l.8125-3.27784s.042-.19629.042-.23828c0-.13965-.02832-.23779-.70117-.23779-.19531,0-.33594,0-.33594-.1543,0-.26611.1543-.28027.32227-.29394l1.38672-.11231a1.261,1.261,0,0,1,.22461-.02783c.11132,0,.19531.042.19531.168,0,0-.02735.14014-.042.18213l-2.00293,7.99853a2.4711,2.4711,0,0,0-.084.644c0,.19629,0,.57421.36426.57421.47656,0,.74219-.88232.93848-1.6665.084-.30859.09863-.32226.2666-.32226.09765,0,.21,0,.21.14013A7.3308,7.3308,0,0,1,430.30762,91.73Zm-1.42871-3.76807a.656.656,0,0,0,.042-.18212,2.04421,2.04421,0,0,0-.28027-.89649.78454.78454,0,0,0-.68653-.40625c-.57422,0-1.21875.70068-1.56933,1.55518a11.17056,11.17056,0,0,0-.68653,2.92724c0,.42041.11231,1.24658.77051,1.24658.77051,0,1.625-1.1206,1.7373-1.55468Z" transform="translate(-109 -33.71875)"/>
      <path d="M433.24512,92.51465a1.04863,1.04863,0,0,1-1.06446-1.12061,2.53066,2.53066,0,0,1,.252-.96679l.51855-1.38672.41992-1.1626a3.21482,3.21482,0,0,0,.252-1.0083c0-.32227-.15332-.39258-.30762-.39258-.8125,0-1.17676,1.30274-1.30273,1.76514-.05665.1958-.07032.22412-.252.22412-.07031,0-.21,0-.21-.14014,0-.06982.47559-2.15722,1.793-2.15722a1.03247,1.03247,0,0,1,1.0498,1.1206,1.95748,1.95748,0,0,1-.168.78467l-.89649,2.395a4.76553,4.76553,0,0,0-.36426,1.34472c0,.37842.19629.39209.3086.39209.8125,0,1.19043-1.34472,1.30273-1.75048.05567-.21045.05567-.23828.23828-.23828.09766,0,.21,0,.21.14013C435.02441,90.41309,434.56152,92.51465,433.24512,92.51465Zm1.26074-7.83057a.59542.59542,0,0,1-.62988-.602.95129.95129,0,0,1,.89648-.88281.59526.59526,0,0,1,.62988.60254A.95084.95084,0,0,1,434.50586,84.68408Z" transform="translate(-109 -33.71875)"/>
      <path d="M436.7832,96.99805c-.32617,0-1.03613,0-1.32226.02441v-.25293h.26172c.73437,0,.75879-.09814.75879-.39209V92.14893a2.44427,2.44427,0,0,1-1.06934.2124v-.25342a2.01645,2.01645,0,0,0,1.48535-.52246c.18848,0,.18848.0166.18848.2124v4.57959c0,.30225.02441.39209.75879.39209h.26172v.25293C437.82031,96.99805,437.11035,96.99805,436.7832,96.99805Z" transform="translate(-109 -33.71875)"/>
    </g>
    <g>
      <path d="M431.88672,110.73a1.14336,1.14336,0,0,1-1.02344.78467,1.17229,1.17229,0,0,1-1.16211-.981,2.297,2.297,0,0,1-1.68164.981c-1.05078,0-1.69531-.981-1.69531-2.17139,0-2.04492,1.6543-4.17431,3.209-4.17431a1.29543,1.29543,0,0,1,1.17578.8125l.8125-3.27784s.043-.19629.043-.23828c0-.13965-.02929-.23779-.70117-.23779-.19531,0-.33594,0-.33594-.1543,0-.26611.1543-.28027.32227-.29394l1.38672-.11231a1.23924,1.23924,0,0,1,.22461-.02783c.11133,0,.19531.042.19531.168,0,0-.02734.14014-.043.18213l-2.00195,7.99853a2.4711,2.4711,0,0,0-.084.644c0,.19629,0,.57421.36329.57421.47656,0,.74218-.88232.93945-1.6665.084-.30859.09765-.32226.26562-.32226.09766,0,.21094,0,.21094.14013A7.3308,7.3308,0,0,1,431.88672,110.73Zm-1.42969-3.76807a.66636.66636,0,0,0,.043-.18212,2.03267,2.03267,0,0,0-.28125-.89649.78332.78332,0,0,0-.68555-.40625c-.57422,0-1.21875.70068-1.57031,1.55518a11.17,11.17,0,0,0-.68555,2.92724c0,.42041.11133,1.24658.76954,1.24658.77148,0,1.625-1.1206,1.73828-1.55468Z" transform="translate(-109 -33.71875)"/>
      <path d="M434.82422,111.51465a1.18208,1.18208,0,0,1-1.19141-1.26074,2.17988,2.17988,0,0,1,.07032-.47657l1.00781-4.02H433.5918c-.22461,0-.35157,0-.35157-.168,0-.26612.1543-.26612.39258-.26612h1.19141l.54687-2.22754a.58236.58236,0,0,1,.54493-.5039.351.351,0,0,1,.3789.36377.8427.8427,0,0,1-.05664.29443l-.51758,2.07324h1.1211c.22265,0,.34961,0,.34961.168,0,.26611-.1543.26611-.39258.26611h-1.19141l-1.03515,4.16016a2.75077,2.75077,0,0,0-.09766.71436c0,.22412,0,.57421.377.57421.79883,0,1.35938-1.05029,1.61133-1.72265.11133-.25244.11133-.26611.2793-.26611.09961,0,.21094,0,.21094.14013C436.95313,109.42725,436.23828,111.51465,434.82422,111.51465Z" transform="translate(-109 -33.71875)"/>
    </g>
    <line class="cls-7" x1="315" y1="64.65283" x2="329" y2="64.65283"/>
  </g>
  <circle class="cls-8" cx="216" cy="48.28125" r="1"/>
  <circle class="cls-8" cx="258" cy="84.28125" r="1"/>
</svg>
