<?xml version="1.0" encoding="utf-8"?>
<!-- Generator: Adobe Illustrator 23.0.3, SVG Export Plug-In . SVG Version: 6.00 Build 0)  -->
<svg version="1.1" id="Layer_1" xmlns="http://www.w3.org/2000/svg" xmlns:xlink="http://www.w3.org/1999/xlink" x="0px" y="0px"
	 viewBox="0 0 324.36719 144.76953" style="enable-background:new 0 0 324.36719 144.76953;" xml:space="preserve">
<style type="text/css">
	.st0{fill:none;stroke:#8FF4DD;stroke-width:2;stroke-linecap:round;stroke-linejoin:round;}
	.st1{fill:none;stroke:#8FF4DD;stroke-width:1.5;stroke-linecap:square;}
	.st2{fill:#8FF4DD;}
	.st3{fill:none;stroke:#FD1D53;stroke-miterlimit:10;}
	.st4{fill:#FD1D53;}
	.st5{fill:none;stroke:#8FF4DD;stroke-width:2;stroke-linecap:round;}
	.st6{fill:none;stroke:#8FF4DD;stroke-width:2;stroke-linecap:square;}
	.st7{fill:#8FF4DD;stroke:#8FF4DD;stroke-width:2;}
	.st8{fill:none;stroke:#8FF4DD;stroke-width:0.5;}
</style>
<title>EnergyCoupledCircuit</title>
<polyline class="st0" points="92.287,41.281 92.287,31.281 121.307,31.281 132.287,31.281 "/>
<line class="st1" x1="129.78711" y1="42.28101" x2="134.78711" y2="42.28101"/>
<line class="st1" x1="132.28711" y1="44.78101" x2="132.28711" y2="39.78101"/>
<line class="st1" x1="129.78711" y1="92.28101" x2="134.78711" y2="92.28101"/>
<g>
	<path class="st2" d="M42.14258,15.25586c-0.4957,0.00888-0.90473-0.38576-0.91362-0.88145
		c-0.00047-0.02602,0.00021-0.05205,0.002-0.07802c0.01635-0.28746,0.08971-0.5688,0.21582-0.82764l0.44385-1.187l0.35986-0.99561
		c0.11804-0.27423,0.19093-0.56577,0.21582-0.86328c0-0.27588-0.13184-0.33594-0.26367-0.33594
		c-0.6958,0-1.00781,1.11523-1.11572,1.51123c-0.04786,0.16748-0.06006,0.19189-0.21582,0.19189
		c-0.06006,0-0.17969,0-0.17969-0.12012c0-0.06006,0.40771-1.84717,1.53515-1.84717
		c0.48831-0.01009,0.89235,0.37758,0.90244,0.86589c0.00065,0.03123-0.00036,0.06247-0.00302,0.09358
		c-0.00123,0.23149-0.05025,0.46022-0.144,0.67188L42.2144,13.5049c-0.15997,0.36639-0.2651,0.75433-0.312,1.15137
		c0,0.32373,0.168,0.33594,0.26416,0.33594c0.6958,0,1.01953-1.15137,1.11523-1.49899c0.04785-0.18018,0.04785-0.2041,0.2041-0.2041
		c0.084,0,0.17969,0,0.17969,0.12012C43.66553,13.45703,43.27002,15.25586,42.14258,15.25586z M43.22168,8.55176
		c-0.28138,0.01616-0.52258-0.19884-0.53875-0.48021c-0.00068-0.0118-0.00095-0.02361-0.0008-0.03542
		c0.02892-0.40933,0.35784-0.73325,0.76758-0.75586c0.28093-0.01659,0.52213,0.19771,0.53871,0.47864
		c0.00072,0.01231,0.00101,0.02466,0.00084,0.03699C43.96033,8.20523,43.63142,8.52914,43.22168,8.55176z"/>
	<path class="st2" d="M45.17578,19.09912c-0.27929,0-0.8872,0-1.13183,0.021v-0.2168h0.22363
		c0.62891,0,0.6499-0.0835,0.6499-0.33545v-3.62012c-0.28754,0.12895-0.60052,0.19122-0.91552,0.18213v-0.2168
		c0.46709,0.0294,0.92611-0.132,1.272-0.44727c0.16064,0,0.16064,0.01367,0.16064,0.18164v3.92041
		c0,0.25879,0.021,0.33545,0.6499,0.33545h0.22363v0.2168C46.06348,19.09912,45.45557,19.09912,45.17578,19.09912z"/>
</g>
<g>
	<path class="st2" d="M131.58838,68.32324c-0.73795,0.07512-1.39705-0.4622-1.47217-1.20013
		c-0.0081-0.07953-0.00908-0.15962-0.00293-0.23932c0.08211-0.79483,0.28839-1.57185,0.61133-2.30273
		c0.15263-0.34215,0.24988-0.70641,0.28809-1.0791c0-0.3125-0.13184-0.34766-0.26367-0.34766
		c-0.69582,0-1.01955,1.13867-1.11572,1.51074c-0.04785,0.168-0.06006,0.19238-0.21582,0.19238
		c-0.06006,0-0.17969,0-0.17969-0.12012c0-0.07227,0.41943-1.84766,1.53516-1.84766c0.49614-0.00864,0.90535,0.38655,0.914,0.88269
		c0.0005,0.02969-0.00044,0.05939-0.00287,0.08899c-0.01109,0.2057-0.05562,0.40822-0.13184,0.59961
		c-0.36447,0.82732-0.60297,1.70456-0.70752,2.60254c0,0.39648,0.13184,0.99609,0.77979,0.99609
		c1.37891,0,1.94289-3.01074,1.94289-3.34668c0.01717-0.34554-0.09869-0.68451-0.32375-0.94727
		c-0.09361-0.08261-0.14995-0.19951-0.15625-0.3242c0.03128-0.2999,0.27473-0.53323,0.57568-0.55176
		c0.34814,0,0.4917,0.37207,0.4917,0.79201C134.15479,63.99316,133.60303,68.32324,131.58838,68.32324z"/>
	<path class="st2" d="M136.70459,72.1875h-2.59277c0-0.168,0-0.18164,0.07666-0.25879l1.3418-1.49512
		c0.41832-0.41292,0.6781-0.95979,0.73389-1.54492c0-0.57324-0.30078-1.13867-0.93652-1.13867
		c-0.43529,0.00842-0.81586,0.29564-0.94336,0.71191c0.02968-0.00739,0.06038-0.00969,0.09082-0.00684
		c0.19493-0.00934,0.36052,0.1411,0.36986,0.33603c0.00044,0.00908,0.00052,0.01817,0.00026,0.02725
		c0.00221,0.20274-0.16034,0.3689-0.36308,0.37111s-0.3689-0.16034-0.37111-0.36308
		c-0.00011-0.00952,0.00015-0.01904,0.00079-0.02853c0.01434-0.70885,0.5977-1.27345,1.30664-1.26465
		c0.75558-0.06024,1.41693,0.50345,1.47716,1.25903c0.00256,0.03209,0.004,0.06425,0.00429,0.09644
		c0,0.69922-0.41895,1.07617-1.50928,2.041l-0.74072,0.71973h1.25781c0.22293,0.01418,0.44675-0.00491,0.66406-0.05664
		c0.07988-0.19888,0.13165-0.40793,0.15381-0.62109h0.17432L136.70459,72.1875z"/>
</g>
<g>
	<path class="st3" d="M64.30809,24.52191c0.41953-7.44426,6.79439-13.13892,14.23863-12.71939
		c6.85805,0.38649,12.33258,5.86081,12.71936,12.71884"/>
	<polygon class="st4" points="67.434,22.494 66.97,21.969 64.387,24.258 62.293,21.514 61.736,21.94 64.288,25.281 	"/>
	<polygon class="st4" points="88.14,22.494 88.604,21.969 91.187,24.258 93.282,21.514 93.838,21.94 91.286,25.281 	"/>
</g>
<path class="st2" d="M81.60938,8.19141c-0.44336,0-0.93555-0.03613-1.39063-0.03613c-0.45605,0-0.92383,0.03613-1.36719,0.03613
	c-0.07822,0.01343-0.15251-0.03909-0.16594-0.11731c-0.00153-0.0088-0.00221-0.01775-0.00206-0.02669
	c0-0.22754,0.13184-0.22754,0.32324-0.22754c0.81543,0,0.8877-0.09619,0.9834-0.50391l1.69141-6.78809h-0.01172l-4.47363,7.44777
	c-0.07227,0.13184-0.13184,0.21582-0.28809,0.21582c-0.17969,0-0.17969-0.084-0.20412-0.28809L75.97261,0.6358h-0.01172
	l-1.59473,6.36816c-0.02974,0.09727-0.04616,0.19812-0.04881,0.2998c0,0.18018,0.02441,0.4917,0.70799,0.51611
	c0.14355,0,0.22754,0.01172,0.22754,0.15578c0,0.21582-0.14355,0.21582-0.21582,0.21582c-0.37109,0-0.791-0.03613-1.1748-0.03613
	c-0.37207,0-0.78027,0.03613-1.13965,0.03613c-0.084,0-0.15625-0.03613-0.15625-0.144c0-0.21582,0.13184-0.22754,0.22852-0.22754
	c0.54671,0.0636,1.05148-0.30087,1.16309-0.83984l1.53516-6.17627c0.02788-0.073,0.04402-0.14995,0.04785-0.228
	c0-0.2041-0.32422-0.2041-0.69531-0.2041c-0.22852,0-0.32422,0-0.32422-0.144c0-0.22754,0.13184-0.22754,0.32422-0.22754h1.59473
	c0.28809,0,0.31152,0,0.33594,0.26367l0.67188,6.72852l4.07715-6.77637c0.13281-0.21582,0.168-0.21582,0.43262-0.21582h1.53516
	c0.20313,0,0.2998,0,0.2998,0.15576c0,0.21582-0.1084,0.21582-0.36035,0.21582c-0.75586,0-0.85156,0.09619-0.94727,0.48
	l-1.61905,6.48807c-0.02663,0.08978-0.04269,0.18237-0.04785,0.27588c0,0.10791,0,0.2041,0.69531,0.2041
	c0.24023,0,0.32422,0,0.32422,0.15578C81.83789,8.19141,81.69336,8.19141,81.60938,8.19141z"/>
<g>
	<path class="st0" d="M64.28711,57.36433c2.46227-0.0034,4.45558-2.00223,4.45218-4.46449
		c-0.0034-2.45746-1.99472-4.44879-4.45218-4.45218V31.28101h-40"/>
	<path class="st5" d="M64.28711,57.36433c2.46227,0.0034,4.45558,2.00223,4.45218,4.46449
		c-0.0034,2.45746-1.99472,4.44879-4.45218,4.45218"/>
	<path class="st5" d="M64.28711,66.28101c2.46227,0.00223,4.45651,2.00011,4.45428,4.46237
		c-0.00223,2.45911-1.99518,4.45206-4.45428,4.45428"/>
	<path class="st0" d="M64.28711,75.19765c2.46227,0.0034,4.45558,2.00223,4.45218,4.46449
		c-0.0034,2.45746-1.99472,4.44879-4.45218,4.45218v17.16666h-40"/>
</g>
<polyline class="st6" points="36.287,27.182 50.287,27.182 47.287,24.182 "/>
<g>
	<path class="st0" d="M92.28711,41.28101v7.16664c-2.46227,0.0034-4.45558,2.00223-4.45218,4.46449
		c0.0034,2.45746,1.99472,4.44879,4.45218,4.45218"/>
	<path class="st5" d="M92.28711,57.36433c-2.46227,0.0034-4.45558,2.00223-4.45218,4.46449
		c0.0034,2.45746,1.99472,4.44879,4.45218,4.45218"/>
	<path class="st5" d="M92.28711,66.28101c-2.46227,0.00223-4.45651,2.00011-4.45428,4.46237
		c0.00223,2.45911,1.99518,4.45206,4.45428,4.45428"/>
	<path class="st0" d="M92.28711,75.19765c-2.46227,0.0034-4.45558,2.00223-4.45218,4.46449
		c0.0034,2.45746,1.99472,4.44879,4.45218,4.45218v7.16666"/>
</g>
<polyline class="st0" points="92.287,91.281 92.287,101.281 121.307,101.281 132.287,101.281 "/>
<polyline class="st6" points="121.364,27.182 107.364,27.182 110.364,24.182 "/>
<g>
	<path class="st2" d="M113.14258,15.25586c-0.49548,0.00883-0.90431-0.38565-0.91316-0.88113
		c-0.00046-0.02614,0.00021-0.05226,0.00203-0.07834c0.01634-0.28746,0.08971-0.5688,0.21582-0.82764l0.44336-1.187l0.36035-0.99561
		c0.11804-0.27423,0.19092-0.56577,0.21582-0.86328c0-0.27588-0.13184-0.33594-0.26367-0.33594
		c-0.69629,0-1.00781,1.11523-1.11621,1.51123c-0.04787,0.16748-0.05957,0.19189-0.21582,0.19189
		c-0.05957,0-0.17969,0-0.17969-0.12012c0-0.06006,0.4082-1.84717,1.53516-1.84717c0.48831-0.01009,0.89235,0.37759,0.90244,0.86591
		c0.00064,0.03122-0.00037,0.06245-0.00302,0.09357c-0.00102,0.23146-0.0499,0.46021-0.14355,0.67188l-0.76756,2.05078
		c-0.16032,0.3663-0.26564,0.75427-0.3125,1.15137c0,0.32373,0.168,0.33594,0.26463,0.33594
		c0.69531,0,1.01955-1.15137,1.11523-1.49899c0.04785-0.18018,0.04785-0.2041,0.2041-0.2041c0.084,0,0.17969,0,0.17969,0.12012
		C114.66602,13.45703,114.27051,15.25586,113.14258,15.25586z M114.22168,8.55176c-0.28114,0.01613-0.52213-0.1987-0.53827-0.47984
		c-0.00069-0.01192-0.00095-0.02385-0.00079-0.03578c0.02892-0.40933,0.35785-0.73325,0.76758-0.75586
		c0.28087-0.0164,0.52185,0.198,0.53824,0.47887c0.00072,0.01224,0.00099,0.02451,0.00082,0.03676
		C114.96034,8.20523,114.63141,8.52914,114.22168,8.55176z"/>
	<path class="st2" d="M117.32225,19.12012h-2.59277c0-0.168,0-0.18164,0.07715-0.25879l1.3418-1.49512
		c0.418-0.41309,0.67758-0.9599,0.7334-1.54492c0-0.57275-0.30078-1.13867-0.93652-1.13867
		c-0.43532,0.00879-0.81578,0.29611-0.94334,0.7124c0.02968-0.00732,0.06038-0.00964,0.09082-0.00684
		c0.19476-0.00951,0.36035,0.14067,0.36986,0.33542c0.00046,0.00928,0.00053,0.01857,0.00026,0.02786
		c0.00198,0.20274-0.16077,0.36871-0.36351,0.3707c-0.20274,0.00197-0.36871-0.16078-0.3707-0.36353
		c-0.00009-0.0094,0.00018-0.01878,0.00081-0.02817c0.01469-0.70869,0.59785-1.27312,1.30666-1.26465
		c0.75575-0.06007,1.41711,0.50388,1.47719,1.25961c0.00253,0.03189,0.00395,0.06386,0.00426,0.09586
		c0,0.69922-0.41895,1.07666-1.50879,2.041l-0.74121,0.71973h1.25781c0.2635,0.1624,0.60878,0.08044,0.77118-0.18306
		c0.09163-0.1487,0.10872-0.33159,0.0462-0.49467h0.1748L117.32225,19.12012z"/>
</g>
<circle class="st7" cx="57.28711" cy="48.28101" r="1"/>
<circle class="st7" cx="99.28711" cy="48.28101" r="1"/>
<line class="st1" x1="22.323" y1="41.28101" x2="27.323" y2="41.28101"/>
<line class="st1" x1="24.823" y1="43.78101" x2="24.823" y2="38.78101"/>
<line class="st1" x1="22.323" y1="91.28101" x2="27.323" y2="91.28101"/>
<g>
	<path class="st2" d="M24.12403,67.32324c-0.73794,0.07512-1.39705-0.4622-1.47217-1.20013
		c-0.00809-0.07953-0.00908-0.15962-0.00293-0.23932c0.0821-0.79483,0.28838-1.57185,0.61133-2.30273
		c0.15263-0.34215,0.24987-0.70641,0.28808-1.0791c0-0.3125-0.13183-0.34766-0.26367-0.34766
		c-0.6958,0-1.01953,1.13867-1.11572,1.51074c-0.04785,0.168-0.06006,0.19238-0.21582,0.19238c-0.06006,0-0.17969,0-0.17969-0.12012
		c0-0.07227,0.41943-1.84766,1.53516-1.84766c0.49615-0.00864,0.90536,0.38657,0.91399,0.88272
		c0.00052,0.02968-0.00043,0.05937-0.00286,0.08896c-0.01109,0.2057-0.05563,0.40822-0.13184,0.59961
		c-0.36447,0.82732-0.60296,1.70456-0.70752,2.60254c0,0.39648,0.13184,0.99609,0.77979,0.99609
		c1.3789,0,1.94287-3.01074,1.94287-3.34668c0.01717-0.34554-0.09869-0.68451-0.32373-0.94727
		c-0.09362-0.08261-0.14996-0.19951-0.15625-0.3242c0.03127-0.2999,0.27473-0.53323,0.57568-0.55176
		c0.34815,0,0.4917,0.37207,0.4917,0.79201C26.69043,62.99316,26.13866,67.32324,24.12403,67.32324z"/>
	<path class="st2" d="M28.09375,71.16602c-0.27929,0-0.8872,0-1.13183,0.02148v-0.2168h0.22363
		c0.62891,0,0.6499-0.084,0.6499-0.33594v-3.62013c-0.28744,0.12932-0.60047,0.19176-0.91553,0.18262v-0.2168
		c0.46709,0.0294,0.92611-0.132,1.272-0.44727c0.16064,0,0.16064,0.01367,0.16064,0.18164v3.91994
		c0,0.25877,0.021,0.33594,0.6499,0.33594h0.22364v0.2168C28.98145,71.16602,28.37354,71.16602,28.09375,71.16602z"/>
</g>
<g>
	<path class="st2" d="M57.21387,65.39648l-0.91113,2.57912c-0.07227,0.20313-0.084,0.21582-0.34766,0.21582h-5.13382
		c-0.19141,0-0.2998,0-0.2998-0.14455c0-0.22752,0.13184-0.22752,0.32422-0.22752c0.81543,0,0.8877-0.0957,0.98338-0.50391
		l1.61914-6.51172c0.02795-0.07317,0.0441-0.15028,0.04787-0.22852c0-0.2041-0.32422-0.2041-0.69531-0.2041
		c-0.22852,0-0.32422,0-0.32422-0.14355c0-0.22754,0.15625-0.22754,0.22754-0.22754c0.48047,0,0.9834,0.03613,1.47559,0.03613
		c0.55176,0,1.11523-0.03613,1.65527-0.03613c0.04785,0,0.17969,0,0.17969,0.14355c0,0.22754-0.13184,0.22754-0.33594,0.22754
		h-0.12012c-0.9707,0-1.043,0.12012-1.15137,0.53999l-1.63086,6.52441c-0.02153,0.08679-0.03751,0.17485-0.04785,0.26367
		c0,0.084,0,0.12012,0.37207,0.12012h0.9707c1.87109,0,2.38672-1.39162,2.77051-2.459
		c0.084-0.22754,0.09668-0.26367,0.24023-0.26367c0.03613,0,0.17969,0,0.17969,0.14453L57.21387,65.39648z"/>
	<path class="st2" d="M59.09766,72.16602c-0.2793,0-0.88672,0-1.13184,0.02148v-0.2168h0.22363
		c0.62891,0,0.65039-0.084,0.65039-0.33594v-3.62013c-0.2876,0.12933-0.60078,0.19177-0.916,0.18262v-0.2168
		c0.46722,0.02942,0.92639-0.13199,1.27246-0.44727c0.16016,0,0.16016,0.01367,0.16016,0.18164v3.91994
		c0,0.25877,0.02148,0.33594,0.65039,0.33594h0.22363v0.2168C59.98535,72.16602,59.37793,72.16602,59.09766,72.16602z"/>
</g>
<g>
	<path class="st2" d="M104.67825,65.39648l-0.91162,2.57912c-0.07178,0.20313-0.084,0.21582-0.34766,0.21582h-5.1333
		c-0.19189,0-0.2998,0-0.2998-0.14455c0-0.22752,0.13184-0.22752,0.32373-0.22752c0.81543,0,0.8877-0.0957,0.9834-0.50391
		l1.61914-6.51172c0.02794-0.07317,0.0441-0.1503,0.04785-0.22852c0-0.2041-0.32373-0.2041-0.69531-0.2041
		c-0.228,0-0.32373,0-0.32373-0.14355c0-0.22754,0.15576-0.22754,0.22754-0.22754c0.48,0,0.9834,0.03613,1.4751,0.03613
		c0.55174,0,1.11572-0.03613,1.65527-0.03613c0.04785,0,0.17969,0,0.17969,0.14355c0,0.22754-0.13184,0.22754-0.33545,0.22754
		h-0.12012c-0.97119,0-1.04346,0.12012-1.15137,0.53999l-1.63086,6.52441c-0.02191,0.08673-0.03806,0.1748-0.04832,0.26367
		c0,0.084,0,0.12012,0.37207,0.12012h0.97119c1.87109,0,2.38672-1.39162,2.77049-2.459
		c0.084-0.22754,0.09621-0.26367,0.24023-0.26367c0.03564,0,0.17969,0,0.17969,0.14453L104.67825,65.39648z"/>
	<path class="st2" d="M107.7085,72.1875h-2.59277c0-0.168,0-0.18164,0.07668-0.25879l1.3418-1.49512
		c0.41832-0.41292,0.6781-0.95979,0.73389-1.54492c0-0.57324-0.30078-1.13867-0.93652-1.13867
		c-0.43529,0.00842-0.81586,0.29564-0.94336,0.71191c0.02968-0.00739,0.06038-0.0097,0.09082-0.00684
		c0.19492-0.00935,0.36052,0.14108,0.36986,0.336c0.00044,0.00909,0.00052,0.01819,0.00026,0.02728
		c0.00221,0.20274-0.16034,0.3689-0.36308,0.37111s-0.3689-0.16034-0.37111-0.36308
		c-0.00011-0.00952,0.00015-0.01904,0.00079-0.02853c0.01436-0.70885,0.59772-1.27345,1.30666-1.26465
		c0.75558-0.06024,1.41693,0.50345,1.47716,1.25903c0.00256,0.03209,0.004,0.06425,0.00429,0.09644
		c0,0.69922-0.41895,1.07617-1.50928,2.041l-0.74072,0.71973h1.25781c0.22293,0.01418,0.44675-0.00491,0.66406-0.05664
		c0.07988-0.19888,0.13164-0.40793,0.15379-0.62109h0.17432L107.7085,72.1875z"/>
</g>
<polyline class="st0" points="261.28699,41.281 261.28699,31.281 290.30701,31.281 301.28699,31.281 "/>
<line class="st1" x1="298.78711" y1="42.28101" x2="303.78711" y2="42.28101"/>
<line class="st1" x1="301.28711" y1="44.78101" x2="301.28711" y2="39.78101"/>
<line class="st1" x1="298.78711" y1="92.28101" x2="303.78711" y2="92.28101"/>
<g>
	<path class="st2" d="M211.14258,15.25586c-0.49548,0.00883-0.90433-0.38565-0.91315-0.88113
		c-0.00049-0.02614,0.00021-0.05226,0.00201-0.07834c0.01636-0.28746,0.08972-0.5688,0.21582-0.82764l0.44336-1.187l0.36035-0.99561
		c0.11804-0.27423,0.19092-0.56577,0.21582-0.86328c0-0.27588-0.13184-0.33594-0.26367-0.33594
		c-0.69629,0-1.00781,1.11523-1.11621,1.51123c-0.04785,0.16748-0.05957,0.19189-0.21582,0.19189
		c-0.05957,0-0.17969,0-0.17969-0.12012c0-0.06006,0.4082-1.84717,1.53516-1.84717c0.48831-0.01009,0.89233,0.37759,0.90244,0.86591
		c0.00064,0.03122-0.00037,0.06245-0.00302,0.09357c-0.00104,0.23146-0.0499,0.46021-0.14355,0.67188l-0.76758,2.05078
		c-0.16034,0.3663-0.26563,0.75427-0.3125,1.15137c0,0.32373,0.168,0.33594,0.26465,0.33594
		c0.69531,0,1.01953-1.15137,1.11523-1.49899c0.04785-0.18018,0.04785-0.2041,0.2041-0.2041c0.08401,0,0.17969,0,0.17969,0.12012
		C212.66602,13.45703,212.27051,15.25586,211.14258,15.25586z M212.22168,8.55176c-0.28113,0.01613-0.52213-0.1987-0.53827-0.47984
		c-0.00067-0.01192-0.00095-0.02385-0.00079-0.03578c0.02893-0.40933,0.35785-0.73325,0.76758-0.75586
		c0.28085-0.0164,0.52185,0.198,0.53824,0.47887c0.00073,0.01224,0.00101,0.02451,0.00082,0.03676
		C212.96033,8.20523,212.63141,8.52914,212.22168,8.55176z"/>
	<path class="st2" d="M214.17578,19.09912c-0.2793,0-0.88672,0-1.13184,0.021v-0.2168h0.22363
		c0.62891,0,0.65039-0.0835,0.65039-0.33545v-3.62012c-0.28772,0.12892-0.60083,0.19119-0.91599,0.18213v-0.2168
		c0.46722,0.02942,0.92639-0.13199,1.27246-0.44727c0.16016,0,0.16016,0.01367,0.16016,0.18164v3.92041
		c0,0.25879,0.02148,0.33545,0.65039,0.33545h0.22363v0.2168C215.06348,19.09912,214.45605,19.09912,214.17578,19.09912z"/>
</g>
<g>
	<path class="st2" d="M300.58887,68.32324c-0.73801,0.0753-1.39731-0.46193-1.47263-1.19992
		c-0.00812-0.07961-0.00909-0.15976-0.00296-0.23953c0.08188-0.79486,0.28815-1.57193,0.61133-2.30273
		c0.15265-0.34215,0.24988-0.70641,0.28809-1.0791c0-0.3125-0.13184-0.34766-0.26367-0.34766
		c-0.69531,0-1.01953,1.13867-1.11523,1.51074c-0.04883,0.168-0.06055,0.19238-0.2168,0.19238c-0.05957,0-0.17969,0-0.17969-0.12012
		c0-0.07227,0.41992-1.84766,1.53516-1.84766c0.49655-0.00874,0.90616,0.38669,0.91492,0.88324
		c0.00052,0.02951-0.00043,0.05902-0.00281,0.08844c-0.01117,0.2058-0.05603,0.40836-0.13281,0.59961
		c-0.36411,0.82741-0.60242,1.70464-0.707,2.60254c0,0.39648,0.13184,0.99609,0.7793,0.99609
		c1.37891,0,1.94336-3.01074,1.94336-3.34668c0.01718-0.34563-0.09885-0.68466-0.32422-0.94727
		c-0.09363-0.08261-0.14996-0.19951-0.15625-0.3242c0.03165-0.2999,0.27521-0.53311,0.57617-0.55176
		c0.34766,0,0.49219,0.37207,0.49219,0.79201C303.15524,63.99316,302.60254,68.32324,300.58887,68.32324z"/>
	<path class="st2" d="M305.7041,72.1875h-2.5918c0-0.168,0-0.18164,0.07617-0.25879l1.3418-1.49512
		c0.41864-0.41275,0.67862-0.95969,0.73438-1.54492c0-0.57324-0.30078-1.13867-0.9375-1.13867
		c-0.43515,0.00883-0.81549,0.29588-0.94336,0.71191c0.03-0.00735,0.06104-0.00967,0.0918-0.00684
		c0.19464-0.00912,0.3598,0.14127,0.36893,0.33591c0.00043,0.00912,0.00049,0.01825,0.00021,0.02737
		c0.00247,0.20248-0.1597,0.36862-0.36215,0.37108c-0.20248,0.00247-0.36862-0.15968-0.37109-0.36217
		c-0.00012-0.00981,0.00015-0.01962,0.00082-0.02942c0.01416-0.70892,0.59763-1.27364,1.30664-1.26465
		c0.75546-0.05986,1.41638,0.50404,1.47623,1.25949c0.00253,0.03194,0.00397,0.06395,0.00424,0.09598
		c0,0.69922-0.418,1.07617-1.50879,2.041l-0.74121,0.71973h1.25784c0.22293,0.01422,0.44675-0.00487,0.66406-0.05664
		c0.08029-0.19878,0.13223-0.40785,0.1543-0.62109h0.17383L305.7041,72.1875z"/>
</g>
<g>
	<path class="st3" d="M233.30811,24.52191c0.41925-7.44426,6.79391-13.13914,14.23816-12.71988
		c6.85843,0.38626,12.33331,5.86093,12.71985,12.71933"/>
	<polygon class="st4" points="236.43401,22.494 235.97,21.969 233.38699,24.258 231.293,21.514 230.73599,21.94 233.28799,25.281 	
		"/>
	<polygon class="st4" points="257.14001,22.494 257.604,21.969 260.18701,24.258 262.28201,21.514 262.83801,21.94 
		260.28601,25.281 	"/>
</g>
<path class="st2" d="M250.60938,8.19141c-0.44336,0-0.93555-0.03613-1.39063-0.03613c-0.45605,0-0.92383,0.03613-1.36719,0.03613
	c-0.07822,0.01343-0.15253-0.03909-0.16595-0.11731c-0.0015-0.0088-0.0022-0.01775-0.00204-0.02669
	c0-0.22754,0.13184-0.22754,0.32324-0.22754c0.81543,0,0.8877-0.09619,0.9834-0.50391l1.69141-6.78809h-0.01172l-4.47363,7.44777
	c-0.07227,0.13184-0.13184,0.21582-0.28809,0.21582c-0.17969,0-0.17969-0.084-0.2041-0.28809l-0.73145-7.26758h-0.01172
	l-1.59473,6.36816c-0.02975,0.09727-0.04617,0.19812-0.04883,0.2998c0,0.18018,0.02441,0.4917,0.70801,0.51611
	c0.14355,0,0.22754,0.01172,0.22754,0.15578c0,0.21582-0.14355,0.21582-0.21582,0.21582c-0.37109,0-0.79099-0.03613-1.1748-0.03613
	c-0.37207,0-0.78027,0.03613-1.13965,0.03613c-0.08401,0-0.15625-0.03613-0.15625-0.144c0-0.21582,0.13184-0.22754,0.22852-0.22754
	c0.54672,0.0636,1.05148-0.30087,1.16309-0.83984l1.53516-6.17627c0.02786-0.073,0.04404-0.14995,0.04785-0.228
	c0-0.2041-0.32422-0.2041-0.69531-0.2041c-0.22852,0-0.32422,0-0.32422-0.144c0-0.22754,0.13184-0.22754,0.32422-0.22754h1.59473
	c0.28809,0,0.31152,0,0.33594,0.26367l0.67188,6.72852l4.07715-6.77637c0.13281-0.21582,0.168-0.21582,0.43262-0.21582h1.53516
	c0.20313,0,0.2998,0,0.2998,0.15576c0,0.21582-0.1084,0.21582-0.36035,0.21582c-0.75586,0-0.85156,0.09619-0.94727,0.48
	l-1.61905,6.48807c-0.02664,0.08978-0.04269,0.18237-0.04785,0.27588c0,0.10791,0,0.2041,0.69531,0.2041
	c0.24023,0,0.32422,0,0.32422,0.15578C250.83789,8.19141,250.69336,8.19141,250.60938,8.19141z"/>
<g>
	<path class="st0" d="M233.28711,57.36433c2.46228-0.0034,4.45557-2.00223,4.45218-4.46449
		c-0.00339-2.45746-1.99472-4.44879-4.45218-4.45218V31.28101h-40"/>
	<path class="st5" d="M233.28711,57.36433c2.46228,0.0034,4.45557,2.00223,4.45218,4.46449
		c-0.00339,2.45746-1.99472,4.44879-4.45218,4.45218"/>
	<path class="st5" d="M233.28711,66.28101c2.46228,0.00223,4.45651,2.00011,4.45428,4.46237
		c-0.00223,2.45911-1.99518,4.45206-4.45428,4.45428"/>
	<path class="st0" d="M233.28711,75.19765c2.46228,0.0034,4.45557,2.00223,4.45218,4.46449
		c-0.00339,2.45746-1.99472,4.44879-4.45218,4.45218v17.16666h-40"/>
</g>
<polyline class="st6" points="205.287,27.182 219.287,27.182 216.287,24.182 "/>
<g>
	<path class="st0" d="M261.28711,41.28101v7.16664c-2.46228,0.0034-4.45557,2.00223-4.45218,4.46449
		c0.00339,2.45746,1.99472,4.44879,4.45218,4.45218"/>
	<path class="st5" d="M261.28711,57.36433c-2.46228,0.0034-4.45557,2.00223-4.45218,4.46449
		c0.00339,2.45746,1.99472,4.44879,4.45218,4.45218"/>
	<path class="st5" d="M261.28711,66.28101c-2.46228-0.00223-4.46014,1.99202-4.46237,4.45428s1.99203,4.46014,4.45428,4.46237
		c0.00272,0,0.0054,0,0.00809,0"/>
	<path class="st0" d="M261.28711,75.19765c-2.46228,0.0034-4.45557,2.00223-4.45218,4.46449
		c0.00339,2.45746,1.99472,4.44879,4.45218,4.45218v7.16666"/>
</g>
<polyline class="st0" points="261.28699,91.281 261.28699,101.281 290.30701,101.281 301.28699,101.281 "/>
<polyline class="st6" points="276.28699,27.182 290.28699,27.182 287.28699,24.182 "/>
<g>
	<path class="st2" d="M282.14258,15.25586c-0.49548,0.00883-0.90433-0.38565-0.91315-0.88113
		c-0.00049-0.02614,0.00021-0.05226,0.00201-0.07834c0.01636-0.28746,0.08972-0.5688,0.21582-0.82764l0.44336-1.187l0.36035-0.99561
		c0.11804-0.27423,0.19092-0.56577,0.21582-0.86328c0-0.27588-0.13184-0.33594-0.26367-0.33594
		c-0.69629,0-1.00781,1.11523-1.11621,1.51123c-0.04785,0.16748-0.05957,0.19189-0.21582,0.19189
		c-0.05957,0-0.17969,0-0.17969-0.12012c0-0.06006,0.4082-1.84717,1.53516-1.84717c0.48831-0.01009,0.89233,0.37759,0.90244,0.86591
		c0.00064,0.03122-0.00037,0.06245-0.00302,0.09357c-0.00104,0.23146-0.0499,0.46021-0.14355,0.67188l-0.76758,2.05078
		c-0.16034,0.3663-0.26563,0.75427-0.3125,1.15137c0,0.32373,0.168,0.33594,0.26465,0.33594
		c0.69531,0,1.01953-1.15137,1.11523-1.49899c0.04785-0.18018,0.04785-0.2041,0.2041-0.2041c0.08401,0,0.17969,0,0.17969,0.12012
		C283.66602,13.45703,283.27051,15.25586,282.14258,15.25586z M283.22168,8.55176c-0.28113,0.01613-0.52213-0.1987-0.53827-0.47984
		c-0.00067-0.01192-0.00095-0.02385-0.00079-0.03578c0.02893-0.40933,0.35785-0.73325,0.76758-0.75586
		c0.28085-0.0164,0.52185,0.198,0.53824,0.47887c0.00073,0.01224,0.00101,0.02451,0.00082,0.03676
		C283.96033,8.20523,283.63141,8.52914,283.22168,8.55176z"/>
	<path class="st2" d="M286.32227,19.12012h-2.59277c0-0.168,0-0.18164,0.07715-0.25879l1.3418-1.49512
		c0.418-0.41309,0.67758-0.9599,0.7334-1.54492c0-0.57275-0.30078-1.13867-0.93652-1.13867
		c-0.43533,0.00877-0.8158,0.2961-0.94336,0.7124c0.02969-0.00732,0.06036-0.00964,0.09082-0.00684
		c0.19476-0.00951,0.36035,0.14067,0.36984,0.33542c0.00046,0.00928,0.00055,0.01857,0.00027,0.02786
		c0.00198,0.20274-0.16077,0.36871-0.36353,0.3707c-0.20273,0.00197-0.36868-0.16078-0.37067-0.36353
		c-0.00009-0.0094,0.00015-0.01878,0.00079-0.02817c0.01468-0.70869,0.59784-1.2731,1.30664-1.26465
		c0.75574-0.06007,1.41711,0.50388,1.4772,1.25961c0.00253,0.03189,0.00394,0.06386,0.00424,0.09586
		c0,0.69922-0.41895,1.07666-1.50879,2.041l-0.74121,0.71973h1.25781c0.26352,0.1624,0.60876,0.08044,0.77118-0.18306
		c0.09164-0.1487,0.10873-0.33159,0.0462-0.49467h0.1748L286.32227,19.12012z"/>
</g>
<circle class="st7" cx="226.28711" cy="48.28101" r="1"/>
<circle class="st7" cx="268.28711" cy="48.28101" r="1"/>
<line class="st1" x1="191.323" y1="41.28101" x2="196.323" y2="41.28101"/>
<line class="st1" x1="193.823" y1="43.78101" x2="193.823" y2="38.78101"/>
<line class="st1" x1="191.323" y1="91.28101" x2="196.323" y2="91.28101"/>
<g>
	<path class="st2" d="M193.12402,67.32324c-0.73788,0.07494-1.39679-0.46248-1.47171-1.20035
		c-0.00809-0.07945-0.00906-0.15947-0.0029-0.23911c0.08188-0.79486,0.28815-1.57193,0.61133-2.30273
		c0.15265-0.34215,0.24988-0.70641,0.28809-1.0791c0-0.3125-0.13184-0.34766-0.26367-0.34766
		c-0.69629,0-1.01953,1.13867-1.11621,1.51074c-0.04785,0.168-0.05957,0.19238-0.21582,0.19238
		c-0.05957,0-0.17969,0-0.17969-0.12012c0-0.07227,0.41992-1.84766,1.53516-1.84766c0.49615-0.00864,0.90536,0.38657,0.914,0.88272
		c0.00052,0.02968-0.00046,0.05937-0.00287,0.08896c-0.01086,0.20573-0.05539,0.40829-0.13184,0.59961
		c-0.36411,0.82741-0.60242,1.70464-0.707,2.60254c0,0.39648,0.13184,0.99609,0.7793,0.99609
		c1.37891,0,1.94336-3.01074,1.94336-3.34668c0.01718-0.34563-0.09885-0.68466-0.32422-0.94727
		c-0.09363-0.08261-0.14996-0.19951-0.15625-0.3242c0.03134-0.30005,0.27505-0.53343,0.57617-0.55176
		c0.34766,0,0.49121,0.37207,0.49121,0.79201C195.69043,62.99316,195.13867,67.32324,193.12402,67.32324z"/>
	<path class="st2" d="M197.09375,71.16602c-0.2793,0-0.88672,0-1.13184,0.02148v-0.2168h0.22363
		c0.62891,0,0.65039-0.084,0.65039-0.33594v-3.62013c-0.2876,0.12933-0.60077,0.19177-0.91599,0.18262v-0.2168
		c0.46722,0.02942,0.92639-0.13199,1.27246-0.44727c0.16016,0,0.16016,0.01367,0.16016,0.18164v3.91994
		c0,0.25877,0.02148,0.33594,0.65039,0.33594h0.22363v0.2168C197.98145,71.16602,197.37402,71.16602,197.09375,71.16602z"/>
</g>
<g>
	<path class="st2" d="M226.21387,65.39648l-0.91113,2.57912c-0.07227,0.20313-0.08401,0.21582-0.34766,0.21582h-5.13382
		c-0.19141,0-0.2998,0-0.2998-0.14455c0-0.22752,0.13184-0.22752,0.32422-0.22752c0.81543,0,0.8877-0.0957,0.9834-0.50391
		l1.61914-6.51172c0.02795-0.07317,0.0441-0.1503,0.04785-0.22852c0-0.2041-0.32422-0.2041-0.69531-0.2041
		c-0.22852,0-0.32422,0-0.32422-0.14355c0-0.22754,0.15625-0.22754,0.22754-0.22754c0.48047,0,0.9834,0.03613,1.47559,0.03613
		c0.55176,0,1.11523-0.03613,1.65527-0.03613c0.04785,0,0.17969,0,0.17969,0.14355c0,0.22754-0.13184,0.22754-0.33594,0.22754
		h-0.12012c-0.9707,0-1.043,0.12012-1.15137,0.53999l-1.63086,6.52441c-0.02151,0.08679-0.03751,0.17485-0.04785,0.26367
		c0,0.084,0,0.12012,0.37207,0.12012h0.9707c1.87109,0,2.38672-1.39162,2.77051-2.459
		c0.08401-0.22754,0.09668-0.26367,0.24023-0.26367c0.03613,0,0.17969,0,0.17969,0.14453L226.21387,65.39648z"/>
	<path class="st2" d="M228.09766,72.16602c-0.2793,0-0.88672,0-1.13184,0.02148v-0.2168h0.22363
		c0.62891,0,0.65039-0.084,0.65039-0.33594v-3.62013c-0.2876,0.12933-0.60077,0.19177-0.91599,0.18262v-0.2168
		c0.46722,0.02942,0.92639-0.13199,1.27246-0.44727c0.16016,0,0.16016,0.01367,0.16016,0.18164v3.91994
		c0,0.25877,0.02148,0.33594,0.65039,0.33594h0.22363v0.2168C228.98535,72.16602,228.37793,72.16602,228.09766,72.16602z"/>
</g>
<g>
	<path class="st2" d="M273.67871,65.39648l-0.91211,2.57912c-0.07227,0.20313-0.08401,0.21582-0.34766,0.21582h-5.13281
		c-0.19238,0-0.30078,0-0.30078-0.14455c0-0.22752,0.13281-0.22752,0.32422-0.22752c0.81543,0,0.8877-0.0957,0.9834-0.50391
		l1.61914-6.51172c0.02795-0.07317,0.0441-0.1503,0.04785-0.22852c0-0.2041-0.32422-0.2041-0.69531-0.2041
		c-0.22852,0-0.32422,0-0.32422-0.14355c0-0.22754,0.15625-0.22754,0.22852-0.22754c0.47949,0,0.98242,0.03613,1.47461,0.03613
		c0.55176,0,1.11523-0.03613,1.65527-0.03613c0.04785,0,0.17969,0,0.17969,0.14355c0,0.22754-0.13184,0.22754-0.33499,0.22754
		h-0.12109c-0.9707,0-1.043,0.12012-1.15039,0.53999l-1.63086,6.52441c-0.02231,0.08667-0.0386,0.17476-0.04883,0.26367
		c0,0.084,0,0.12012,0.37207,0.12012h0.97168c1.87109,0,2.38672-1.39162,2.76953-2.459
		c0.08401-0.22754,0.09668-0.26367,0.24023-0.26367c0.03613,0,0.17969,0,0.17969,0.14453L273.67871,65.39648z"/>
	<path class="st2" d="M276.70801,72.1875h-2.59174c0-0.168,0-0.18164,0.07617-0.25879l1.3418-1.49512
		c0.41864-0.41275,0.67862-0.95969,0.73438-1.54492c0-0.57324-0.30078-1.13867-0.9375-1.13867
		c-0.43515,0.00883-0.81549,0.29588-0.94336,0.71191c0.03-0.00737,0.06104-0.00967,0.0918-0.00684
		c0.19464-0.00912,0.3598,0.14127,0.36893,0.33591c0.00043,0.00912,0.00049,0.01825,0.00021,0.02737
		c0.00247,0.20248-0.1597,0.36862-0.36215,0.37108c-0.20248,0.00247-0.36862-0.15968-0.37109-0.36217
		c-0.00012-0.00981,0.00015-0.01962,0.00082-0.02942c0.01416-0.70892,0.59763-1.27364,1.30664-1.26465
		c0.75543-0.05986,1.41638,0.50403,1.47623,1.25948c0.00253,0.03194,0.00397,0.06395,0.00424,0.09599
		c0,0.69922-0.418,1.07617-1.50879,2.041l-0.74121,0.71973h1.25781c0.22293,0.01422,0.44675-0.00487,0.66406-0.05664
		c0.08029-0.19878,0.13223-0.40785,0.1543-0.62109h0.17383L276.70801,72.1875z"/>
</g>
<g>
	<g>
		<path class="st2" d="M6.53614,134.26074c-0.35987,0.85156-0.86329,1.34277-1.583,1.34277
			c-0.5712,0.05426-1.1161-0.25168-1.36719-0.76758c-0.20692,0.45923-0.65997,0.75809-1.16357,0.76758
			c-0.40714,0.00854-0.80497-0.12241-1.12745-0.37109c-0.28618-0.29343-0.43437-0.69452-0.40771-1.10352
			c0.04889-0.7876,0.25265-1.55783,0.59961-2.2666c0.15266-0.3425,0.2499-0.70706,0.28808-1.08008
			c0-0.31152-0.13183-0.34766-0.26367-0.34766c-0.6958,0-1.01953,1.13965-1.11572,1.51172
			c-0.04785,0.168-0.06006,0.19141-0.21582,0.19141c-0.06006,0-0.17969,0-0.17969-0.12012
			c0-0.07129,0.41944-1.84668,1.53516-1.84668c0.49615-0.00864,0.90536,0.38657,0.91399,0.88272
			c0.00052,0.02966-0.00043,0.05936-0.00286,0.08896c-0.00756,0.21906-0.05625,0.43469-0.14355,0.63574
			c-0.35918,0.79825-0.5899,1.64825-0.6836,2.51855c0,0.15527,0,1.043,0.83936,1.043c0.63574,0,1.00732-0.99512,1.00732-1.12701
			c0.00017-0.255,0.03249-0.50894,0.09619-0.75586l0.6836-2.73438c0.02944-0.23218,0.22176-0.40945,0.45556-0.41992
			c0.17325-0.01187,0.32333,0.11893,0.33521,0.29218c0.00044,0.00644,0.00069,0.01291,0.00073,0.01935
			c0,0.04785-0.12012,0.52832-0.19189,0.79199l-0.50391,2.01465c-0.08468,0.30109-0.13287,0.61124-0.14355,0.92383
			c0,0.50391,0.19189,0.99512,0.7915,0.99512c0.55176,0,0.93555-0.49121,1.19922-1.11523
			c0.28908-0.71579,0.4866-1.46521,0.58789-2.23047c0.01707-0.34589-0.09894-0.68521-0.32422-0.94824
			c-0.09346-0.08228-0.14964-0.19888-0.15576-0.32324c0.03094-0.30005,0.27459-0.53357,0.57568-0.55176
			c0.34766,0,0.4917,0.37207,0.4917,0.79199C7.23761,132.09439,6.95921,133.2037,6.53614,134.26074z"/>
		<path class="st2" d="M19.50732,131.5498h-7.15967c-0.18018,0-0.4082,0-0.4082-0.23926c0-0.24023,0.228-0.24023,0.396-0.24023
			h7.18408c0.168,0,0.396,0,0.396,0.24023C19.91553,131.5498,19.6875,131.5498,19.50732,131.5498z M19.51952,133.87695h-7.18407
			c-0.168,0-0.396,0-0.396-0.24023c0-0.23926,0.228-0.23926,0.4082-0.23926h7.15967c0.18017,0,0.4082,0,0.4082,0.23926
			C19.91553,133.87695,19.6875,133.87695,19.51952,133.87695z"/>
	</g>
	<path class="st2" d="M29.58691,128.72754c-0.55957,0-1.77832,0-2.26856,0.04199v-0.43359h0.44824
		c1.26075,0,1.30274-0.16895,1.30274-0.67285v-7.25586c-0.57645,0.25803-1.20371,0.38254-1.835,0.36426v-0.43457
		c0.936,0.05902,1.85586-0.26453,2.54883-0.89648c0.32226,0,0.32226,0.02832,0.32226,0.36426v7.8584
		c0,0.51855,0.042,0.67285,1.30274,0.67285h0.44824v0.43359C31.36626,128.72754,30.14746,128.72754,29.58691,128.72754z"/>
	<path class="st2" d="M31.88477,144.76953h-5.19727c0-0.33594,0-0.36426,0.1543-0.51758l2.68945-2.99799
		c0.83853-0.82718,1.35919-1.92313,1.47071-3.0957c0-1.14844-0.60254-2.2832-1.877-2.2832
		c-0.8727,0.01773-1.63529,0.59402-1.89062,1.42871c0.05935-0.01471,0.12076-0.01935,0.18164-0.01367
		c0.391-0.01862,0.72306,0.28326,0.74168,0.67426c0.00086,0.01807,0.00103,0.03616,0.0005,0.05426
		c0.0033,0.40656-0.32359,0.7388-0.73014,0.7421c-0.40656,0.00333-0.73881-0.32358-0.74211-0.73013
		c-0.00014-0.01801,0.00037-0.03598,0.00154-0.05396c0.02881-1.42102,1.19792-2.5531,2.61914-2.53613
		c1.51517-0.12027,2.84096,1.01056,2.96122,2.52573c0.00507,0.0639,0.00791,0.12796,0.00851,0.19205
		c0,1.40039-0.83984,2.15723-3.02539,4.08984l-1.48438,1.44336h2.52149c0.44647,0.02814,0.89465-0.0097,1.33008-0.1123
		c0.16077-0.39917,0.26466-0.81897,0.30859-1.24707h0.34961L31.88477,144.76953z"/>
	<line class="st8" x1="23.48755" y1="132.78101" x2="35.48755" y2="132.78101"/>
	<g>
		<path class="st2" d="M44.31641,133.11621l-0.91113,2.57813c-0.07227,0.2041-0.084,0.21582-0.34766,0.21582h-5.13379
			c-0.19141,0-0.2998,0-0.2998-0.14355c0-0.22754,0.13183-0.22754,0.32421-0.22754c0.81543,0,0.8877-0.09668,0.9834-0.50391
			l1.61914-6.5127c0.02789-0.07285,0.04405-0.14963,0.04786-0.22754c0-0.2041-0.32422-0.2041-0.69532-0.2041
			c-0.22851,0-0.32422,0-0.32422-0.14355c0-0.22852,0.15625-0.22852,0.22754-0.22852c0.48047,0,0.9834,0.03613,1.47559,0.03613
			c0.55176,0,1.11523-0.03613,1.65527-0.03613c0.04785,0,0.17969,0,0.17969,0.14453c0,0.22754-0.13184,0.22754-0.33594,0.22754
			h-0.12011c-0.97071,0-1.043,0.12012-1.15137,0.54001l-1.63086,6.52441c-0.02169,0.08676-0.03767,0.17484-0.04785,0.26367
			c0,0.08401,0,0.12012,0.37207,0.12012h0.9707c1.87109,0,2.38672-1.3916,2.77051-2.45901
			c0.084-0.22754,0.09668-0.26367,0.24023-0.26367c0.03614,0,0.17969,0,0.17969,0.14355L44.31641,133.11621z"/>
		<path class="st2" d="M46.2002,139.88574c-0.2793,0-0.88672,0-1.13184,0.02051v-0.2168h0.22363
			c0.62891,0,0.6504-0.08301,0.6504-0.33499v-3.62012c-0.28781,0.1286-0.6009,0.19067-0.916,0.18164v-0.2168
			c0.46722,0.02942,0.92639-0.13199,1.27246-0.44727c0.16016,0,0.16016,0.01465,0.16016,0.18164v3.9209
			c0,0.25879,0.02148,0.33499,0.65039,0.33499h0.22363v0.2168C47.08789,139.88574,46.48047,139.88574,46.2002,139.88574z"/>
		<path class="st2" d="M50.34961,136.04199c-0.4957,0.00912-0.90494-0.38531-0.91406-0.88101
			c-0.00049-0.02603,0.00017-0.05203,0.00195-0.078c0.01628-0.28763,0.08965-0.56915,0.21582-0.82813l0.44434-1.18652
			l0.35938-0.99609c0.11816-0.2742,0.19106-0.56573,0.21582-0.86328c0-0.27539-0.13184-0.33594-0.26367-0.33594
			c-0.69531,0-1.00781,1.11523-1.11523,1.51172c-0.04785,0.168-0.06055,0.19141-0.21582,0.19141
			c-0.06055,0-0.17969,0-0.17969-0.12012c0-0.05957,0.40723-1.84668,1.53516-1.84668c0.48822-0.01016,0.89224,0.37738,0.9024,0.8656
			c0.00066,0.03116-0.00035,0.06235-0.00299,0.09341c-0.00142,0.23151-0.05061,0.46027-0.14453,0.67188l-0.76758,2.05078
			c-0.15952,0.36652-0.26447,0.75443-0.31152,1.15137c0,0.32422,0.168,0.33594,0.26367,0.33594
			c0.69531,0,1.01953-1.15137,1.11523-1.49899c0.04787-0.17969,0.04787-0.2041,0.20412-0.2041c0.084,0,0.17969,0,0.17969,0.12012
			C51.87207,134.24316,51.47656,136.04199,50.34961,136.04199z M51.42871,129.33789
			c-0.2816,0.01617-0.52301-0.19897-0.53918-0.48059c-0.00067-0.01166-0.00095-0.02335-0.00081-0.03503
			c0.02892-0.40933,0.35785-0.73325,0.76758-0.75586c0.28131-0.01645,0.52271,0.19824,0.53915,0.47955
			c0.0007,0.01202,0.00099,0.02405,0.00084,0.03607C52.16737,128.99136,51.83844,129.31528,51.42871,129.33789z"/>
		<path class="st2" d="M53.38281,139.88574c-0.2793,0-0.8877,0-1.13184,0.02051v-0.2168h0.22363
			c0.62891,0,0.64941-0.08301,0.64941-0.33499v-3.62012c-0.28745,0.12863-0.6002,0.19073-0.91499,0.18164v-0.2168
			c0.46693,0.02939,0.92578-0.13202,1.27148-0.44727c0.16113,0,0.16113,0.01465,0.16113,0.18164v3.9209
			c0,0.25879,0.02051,0.33499,0.64941,0.33499h0.22363v0.2168C54.27051,139.88574,53.66211,139.88574,53.38281,139.88574z"/>
		<path class="st2" d="M58.02734,131.91406h-2.59277c0-0.16699,0-0.18164,0.07617-0.25879l1.3418-1.49512
			c0.41843-0.41251,0.67839-0.95905,0.73438-1.54395c0-0.57324-0.30078-1.13965-0.93652-1.13965
			c-0.4355,0.00873-0.81607,0.29633-0.94336,0.71289c0.02966-0.00745,0.06038-0.00977,0.09082-0.00684
			c0.1951-0.00919,0.36069,0.14154,0.36987,0.33664c0.00041,0.00888,0.0005,0.01776,0.00024,0.02664
			c0.00174,0.20276-0.16119,0.36853-0.36395,0.37027c-0.20274,0.00174-0.36852-0.16119-0.37025-0.36395
			c-0.00009-0.00928,0.00018-0.01855,0.00081-0.0278c0.01451-0.70877,0.59776-1.27328,1.30664-1.26465
			c0.75603-0.05981,1.4174,0.50455,1.47722,1.26059c0.00253,0.03189,0.00394,0.06387,0.00423,0.09586
			c0,0.69824-0.41895,1.07617-1.50977,2.04001l-0.74023,0.71973h1.25781c0.22289,0.01389,0.44659-0.00485,0.66406-0.05566
			c0.07957-0.19928,0.13118-0.40863,0.15332-0.62207h0.1748L58.02734,131.91406z"/>
		<path class="st2" d="M70.83008,133.15234H67.4834v3.35742c0,0.168,0,0.39648-0.23926,0.39648
			c-0.24023,0-0.24023-0.22852-0.24023-0.39648v-3.35742h-3.3584c-0.168,0-0.39551,0-0.39551-0.24023
			s0.22754-0.24023,0.39551-0.24023h3.3584v-3.35742c0-0.168,0-0.39648,0.24023-0.39648c0.23926,0,0.23926,0.22852,0.23926,0.39648
			v3.35742h3.34668c0.168,0,0.39551,0,0.39551,0.24023S70.99805,133.15234,70.83008,133.15234z"/>
	</g>
	<path class="st2" d="M81.58691,128.72754c-0.55957,0-1.77832,0-2.26855,0.04199v-0.43359h0.44824
		c1.26076,0,1.30273-0.16895,1.30273-0.67285v-7.25586c-0.57645,0.25803-1.20372,0.38254-1.83501,0.36426v-0.43457
		c0.936,0.05902,1.85587-0.26453,2.54883-0.89648c0.32227,0,0.32227,0.02832,0.32227,0.36426v7.8584
		c0,0.51855,0.04201,0.67285,1.30273,0.67285h0.44824v0.43359C83.36626,128.72754,82.14746,128.72754,81.58691,128.72754z"/>
	<path class="st2" d="M83.88477,144.76953H78.6875c0-0.33594,0-0.36426,0.1543-0.51758l2.68945-2.99799
		c0.83853-0.82718,1.35918-1.92313,1.4707-3.0957c0-1.14844-0.60254-2.2832-1.877-2.2832
		c-0.8727,0.01773-1.6353,0.59399-1.89063,1.42871c0.05936-0.01471,0.12076-0.01935,0.18164-0.01367
		c0.39101-0.01862,0.72307,0.28326,0.74168,0.67426c0.00085,0.01807,0.00102,0.03616,0.0005,0.05426
		c0.00336,0.40656-0.32349,0.73886-0.73004,0.74222c-0.40654,0.00336-0.73885-0.32349-0.7422-0.73004
		c-0.00015-0.01807,0.00037-0.03613,0.00154-0.05417c0.02881-1.42102,1.19792-2.5531,2.61914-2.53613
		c1.51518-0.12027,2.84096,1.01056,2.96121,2.52573c0.00508,0.0639,0.00792,0.12796,0.00851,0.19205
		c0,1.40039-0.83984,2.15723-3.02539,4.08984l-1.48438,1.44336h2.52148c0.44647,0.02814,0.89465-0.0097,1.33008-0.1123
		c0.16078-0.39917,0.26465-0.81897,0.30859-1.24707h0.34961L83.88477,144.76953z"/>
	<line class="st8" x1="75.48755" y1="132.78101" x2="87.48755" y2="132.78101"/>
	<g>
		<path class="st2" d="M98.31641,133.11621l-0.91162,2.57813c-0.07178,0.2041-0.084,0.21582-0.34766,0.21582h-5.1333
			c-0.19189,0-0.2998,0-0.2998-0.14355c0-0.22754,0.13184-0.22754,0.32373-0.22754c0.81543,0,0.8877-0.09668,0.98338-0.50391
			l1.61916-6.5127c0.02789-0.07285,0.04404-0.14963,0.04785-0.22754c0-0.2041-0.32373-0.2041-0.69531-0.2041
			c-0.228,0-0.32373,0-0.32373-0.14355c0-0.22852,0.15578-0.22852,0.22754-0.22852c0.48,0,0.9834,0.03613,1.4751,0.03613
			c0.55176,0,1.11572-0.03613,1.65527-0.03613c0.04787,0,0.18018,0,0.18018,0.14453c0,0.22754-0.13232,0.22754-0.33594,0.22754
			h-0.12012c-0.97121,0-1.04346,0.12012-1.15137,0.54001l-1.63086,6.52441c-0.02209,0.0867-0.03824,0.17477-0.04834,0.26367
			c0,0.08401,0,0.12012,0.37207,0.12012h0.97119c1.87109,0,2.38672-1.3916,2.77051-2.45901
			c0.084-0.22754,0.09619-0.26367,0.24023-0.26367c0.03564,0,0.17969,0,0.17969,0.14355L98.31641,133.11621z"/>
		<path class="st2" d="M101.34668,139.90625h-2.59277c0-0.16699,0-0.18164,0.07666-0.25879l1.3418-1.49512
			c0.41811-0.41266,0.67787-0.95917,0.73389-1.54395c0-0.57324-0.30078-1.13965-0.93652-1.13965
			c-0.43544,0.00888-0.81593,0.29642-0.94336,0.71289c0.02966-0.00739,0.06038-0.0097,0.09082-0.00684
			c0.19493-0.00934,0.36052,0.14111,0.36986,0.33603c0.00044,0.00906,0.00052,0.01816,0.00026,0.02725
			c0.00174,0.20276-0.16119,0.36853-0.36395,0.37027c-0.20274,0.00174-0.36852-0.16119-0.37025-0.36395
			c-0.00009-0.00928,0.00018-0.01855,0.00081-0.0278c0.01469-0.70871,0.59784-1.2731,1.30664-1.26465
			c0.75603-0.05981,1.4174,0.50455,1.47722,1.26059c0.00253,0.03189,0.00394,0.06387,0.00423,0.09586
			c0,0.69824-0.41895,1.07617-1.50928,2.04001l-0.74072,0.71973h1.25781c0.26328,0.1626,0.60851,0.08099,0.7711-0.18228
			c0.09195-0.14886,0.10907-0.33212,0.04628-0.49545h0.1748L101.34668,139.90625z"/>
		<path class="st2" d="M104.34912,136.04199c-0.49564,0.00891-0.90466-0.38565-0.91359-0.88129
			c-0.00047-0.02591,0.00018-0.05185,0.00197-0.07773c0.01628-0.28763,0.08965-0.56915,0.21582-0.82813l0.44385-1.18652
			l0.35986-0.99609c0.11816-0.2742,0.19106-0.56573,0.21582-0.86328c0-0.27539-0.13184-0.33594-0.26367-0.33594
			c-0.6958,0-1.00781,1.11523-1.11572,1.51172c-0.04785,0.168-0.06006,0.19141-0.21582,0.19141
			c-0.06006,0-0.17969,0-0.17969-0.12012c0-0.05957,0.40771-1.84668,1.53516-1.84668
			c0.48811-0.01028,0.89214,0.37708,0.90242,0.86517c0.00066,0.03131-0.00034,0.06265-0.00301,0.09384
			c-0.00117,0.23148-0.0502,0.46024-0.144,0.67188l-0.76758,2.05078c-0.15974,0.36642-0.26471,0.75436-0.31152,1.15137
			c0,0.32422,0.16748,0.33594,0.26367,0.33594c0.69531,0,1.01953-1.15137,1.11523-1.49899
			c0.04787-0.17969,0.04787-0.2041,0.20412-0.2041c0.084,0,0.17969,0,0.17969,0.12012
			C105.87207,134.24316,105.47656,136.04199,104.34912,136.04199z M105.42822,129.33789
			c-0.28137,0.01617-0.52258-0.19882-0.53874-0.48019c-0.00069-0.01181-0.00095-0.02362-0.00081-0.03543
			c0.02892-0.40933,0.35785-0.73325,0.76758-0.75586c0.28123-0.0163,0.52245,0.19849,0.53874,0.47971
			c0.00069,0.01196,0.00096,0.02396,0.00081,0.03592c-0.02892,0.40933-0.35782,0.73322-0.76755,0.75586H105.42822z"/>
		<path class="st2" d="M108.52881,139.90625h-2.59277c0-0.16699,0-0.18164,0.07666-0.25879l1.3418-1.49512
			c0.41812-0.41266,0.67789-0.95917,0.73389-1.54395c0-0.57324-0.30078-1.13965-0.93652-1.13965
			c-0.43544,0.00888-0.81593,0.29642-0.94336,0.71289c0.02966-0.00739,0.06038-0.0097,0.09082-0.00684
			c0.19493-0.00934,0.36052,0.14111,0.36986,0.33603c0.00044,0.00906,0.00052,0.01816,0.00026,0.02725
			c0.00174,0.20276-0.16119,0.36853-0.36395,0.37027c-0.20274,0.00174-0.36852-0.16119-0.37025-0.36395
			c-0.00009-0.00928,0.00018-0.01855,0.00081-0.0278c0.01469-0.70871,0.59784-1.2731,1.30664-1.26465
			c0.75603-0.05981,1.4174,0.50455,1.47722,1.26059c0.00253,0.03189,0.00394,0.06387,0.00423,0.09586
			c0,0.69824-0.41895,1.07617-1.50928,2.04001l-0.74072,0.71973h1.25781c0.2635,0.16257,0.60892,0.08078,0.77148-0.18274
			c0.09178-0.14874,0.10893-0.33179,0.04639-0.495h0.17432L108.52881,139.90625z"/>
		<path class="st2" d="M112.02686,131.91406h-2.59277c0-0.16699,0-0.18164,0.07666-0.25879l1.3418-1.49512
			c0.41811-0.41266,0.67787-0.95917,0.73389-1.54395c0-0.57324-0.30078-1.13965-0.93652-1.13965
			c-0.43544,0.00885-0.81593,0.29642-0.94334,0.71289c0.02968-0.00739,0.06038-0.0097,0.09082-0.00684
			c0.19493-0.00934,0.36052,0.14111,0.36986,0.33603c0.00044,0.00906,0.00052,0.01816,0.00026,0.02725
			c0.00174,0.20276-0.16119,0.36853-0.36395,0.37027c-0.20274,0.00174-0.36852-0.16119-0.37025-0.36395
			c-0.00009-0.00928,0.00018-0.01855,0.00081-0.0278c0.01468-0.70871,0.59784-1.2731,1.30664-1.26465
			c0.75603-0.05981,1.4174,0.50455,1.47722,1.26059c0.00253,0.03189,0.00394,0.06387,0.00423,0.09586
			c0,0.69824-0.41895,1.07617-1.50928,2.04001l-0.74072,0.71973H111.23c0.2635,0.16257,0.60892,0.08078,0.77148-0.18274
			c0.09178-0.14874,0.10893-0.33179,0.04639-0.495h0.17432L112.02686,131.91406z"/>
		<path class="st2" d="M124.82959,133.15234h-3.34619v3.35742c0,0.168,0,0.39648-0.23975,0.39648s-0.23975-0.22852-0.23975-0.39648
			v-3.35742h-3.3584c-0.168,0-0.39551,0-0.39551-0.24023s0.22754-0.24023,0.39551-0.24023h3.3584v-3.35742
			c0-0.168,0-0.39648,0.23975-0.39648s0.23975,0.22852,0.23975,0.39648v3.35742h3.34619c0.168,0,0.396,0,0.396,0.24023
			S124.99756,133.15234,124.82959,133.15234z"/>
		<path class="st2" d="M139.74463,135.91016c-0.44385,0-0.93555-0.03613-1.39111-0.03613s-0.92334,0.03613-1.36719,0.03613
			c-0.07816,0.01349-0.15244-0.03894-0.16592-0.1171c-0.00151-0.00873-0.0022-0.01761-0.00208-0.02646
			c0-0.22754,0.13184-0.22754,0.32373-0.22754c0.81543,0,0.8877-0.09668,0.9834-0.50391l1.69141-6.78809h-0.01221l-4.47363,7.44727
			c-0.07178,0.13184-0.13184,0.21582-0.2876,0.21582c-0.18018,0-0.18018-0.08401-0.2041-0.28711l-0.73145-7.26855h-0.01221
			l-1.59473,6.36816c-0.0294,0.09732-0.04565,0.19815-0.04834,0.2998c0,0.18066,0.02393,0.49219,0.70752,0.5166
			c0.144,0,0.228,0.01172,0.228,0.15527c0,0.21582-0.144,0.21582-0.21582,0.21582c-0.3716,0-0.7915-0.03613-1.17529-0.03613
			c-0.37207,0-0.77979,0.03613-1.13965,0.03613c-0.084,0-0.15576-0.03613-0.15576-0.14355c0-0.21582,0.13184-0.22754,0.228-0.22754
			c0.54675,0.06375,1.05161-0.30081,1.16309-0.83984l1.53516-6.17676c0.02817-0.07278,0.04448-0.1496,0.04834-0.22754
			c0-0.2041-0.32422-0.2041-0.6958-0.2041c-0.228,0-0.32373,0-0.32373-0.14355c0-0.22852,0.13184-0.22852,0.32373-0.22852h1.59521
			c0.28758,0,0.31152,0,0.33594,0.26367l0.67139,6.72852l4.07764-6.77637c0.13232-0.21582,0.168-0.21582,0.43213-0.21582h1.53516
			c0.20361,0,0.2998,0,0.2998,0.15625c0,0.21582-0.10791,0.21582-0.35986,0.21582c-0.75586,0-0.85156,0.0957-0.94775,0.47949
			l-1.61914,6.48828c-0.02658,0.08997-0.04263,0.18271-0.04785,0.27637c0,0.10742,0,0.2041,0.6958,0.2041
			c0.23975,0,0.32373,0,0.32373,0.15527C139.97266,135.91016,139.82861,135.91016,139.74463,135.91016z"/>
		<path class="st2" d="M143.12061,136.04199c-0.49564,0.00894-0.90466-0.38562-0.91359-0.88126
			c-0.00047-0.02594,0.00018-0.05188,0.00197-0.07776c0.01628-0.28763,0.08965-0.56915,0.21582-0.82813l0.44383-1.18652
			l0.35986-0.99609c0.11816-0.2742,0.19104-0.56573,0.21582-0.86328c0-0.27539-0.13184-0.33594-0.26367-0.33594
			c-0.6958,0-1.00781,1.11523-1.11572,1.51172c-0.04785,0.168-0.06004,0.19141-0.21582,0.19141
			c-0.06006,0-0.17969,0-0.17969-0.12012c0-0.05957,0.40771-1.84668,1.53516-1.84668
			c0.48811-0.01028,0.89214,0.37708,0.90242,0.86517c0.00066,0.03131-0.00034,0.06265-0.00301,0.09384
			c-0.00117,0.23148-0.0502,0.46024-0.144,0.67188l-0.76756,2.05078c-0.15974,0.36642-0.26471,0.75436-0.31152,1.15137
			c0,0.32422,0.16748,0.33594,0.26367,0.33594c0.69531,0,1.01953-1.15137,1.11523-1.49899
			c0.04785-0.17969,0.04785-0.2041,0.2041-0.2041c0.084,0,0.17969,0,0.17969,0.12012
			C144.64355,134.24316,144.24805,136.04199,143.12061,136.04199z M144.19971,129.33789
			c-0.28137,0.01617-0.52257-0.19879-0.53874-0.48016c-0.00069-0.01181-0.00095-0.02365-0.00081-0.03546
			c0.02892-0.40933,0.35785-0.73325,0.76758-0.75586c0.28125-0.0163,0.52245,0.19849,0.53874,0.47974
			c0.00069,0.01196,0.00096,0.02393,0.00081,0.03589C144.93837,128.99136,144.60944,129.31528,144.19971,129.33789z"/>
		<path class="st2" d="M146.15381,139.88574c-0.2793,0-0.88721,0-1.13184,0.02051v-0.2168h0.22363
			c0.62891,0,0.6499-0.08301,0.6499-0.33499v-3.62012c-0.28761,0.12866-0.60057,0.19077-0.91553,0.18164v-0.2168
			c0.46709,0.02939,0.92612-0.13199,1.272-0.44727c0.16064,0,0.16064,0.01465,0.16064,0.18164v3.9209
			c0,0.25879,0.021,0.33499,0.6499,0.33499h0.22363v0.2168C147.0415,139.88574,146.43359,139.88574,146.15381,139.88574z"/>
		<path class="st2" d="M150.30273,136.04199c-0.49547,0.00909-0.90451-0.38519-0.9136-0.88065
			c-0.00049-0.02615,0.00018-0.05228,0.00198-0.07837c0.01628-0.28763,0.08965-0.56915,0.21582-0.82813l0.44383-1.18652
			l0.35986-0.99609c0.11816-0.2742,0.19104-0.56573,0.21582-0.86328c0-0.27539-0.13184-0.33594-0.26367-0.33594
			c-0.69582,0-1.00781,1.11523-1.11572,1.51172c-0.04785,0.168-0.06006,0.19141-0.21582,0.19141
			c-0.06006,0-0.17969,0-0.17969-0.12012c0-0.05957,0.40771-1.84668,1.53516-1.84668
			c0.48824-0.01016,0.89226,0.37741,0.9024,0.86563c0.00066,0.03116-0.00035,0.06232-0.00299,0.09338
			c-0.00117,0.23148-0.0502,0.46024-0.144,0.67188l-0.76758,2.05078c-0.15987,0.36642-0.26498,0.75436-0.312,1.15137
			c0,0.32422,0.168,0.33594,0.26416,0.33594c0.6958,0,1.01953-1.15137,1.11523-1.49899
			c0.04785-0.17969,0.04785-0.2041,0.2041-0.2041c0.084,0,0.17969,0,0.17969,0.12012
			C151.82568,134.24316,151.43018,136.04199,150.30273,136.04199z M151.38184,129.33789
			c-0.28137,0.01617-0.52257-0.19879-0.53874-0.48016c-0.00069-0.01181-0.00095-0.02365-0.00081-0.03546
			c0.02892-0.40933,0.35785-0.73325,0.76758-0.75586c0.28125-0.0163,0.52245,0.19849,0.53874,0.47974
			c0.00069,0.01196,0.00096,0.02393,0.00081,0.03589C152.1205,128.99136,151.79156,129.31528,151.38184,129.33789z"/>
		<path class="st2" d="M154.48193,139.90625h-2.59277c0-0.16699,0-0.18164,0.07666-0.25879l1.3418-1.49512
			c0.41812-0.41266,0.67789-0.95917,0.73389-1.54395c0-0.57324-0.3008-1.13965-0.93652-1.13965
			c-0.43544,0.00888-0.81593,0.29642-0.94336,0.71289c0.02966-0.00739,0.06038-0.0097,0.09082-0.00684
			c0.19493-0.00934,0.36052,0.14111,0.36986,0.33603c0.00044,0.00906,0.00052,0.01816,0.00026,0.02725
			c0.00174,0.20276-0.16119,0.36853-0.36395,0.37027c-0.20274,0.00174-0.36852-0.16119-0.37025-0.36395
			c-0.00009-0.00928,0.00018-0.01855,0.00081-0.0278c0.01469-0.70871,0.59784-1.2731,1.30664-1.26465
			c0.75603-0.05981,1.4174,0.50455,1.47722,1.26059c0.00253,0.03189,0.00394,0.06387,0.00423,0.09586
			c0,0.69824-0.41901,1.07617-1.50928,2.04001l-0.74072,0.71973h1.25781c0.2635,0.16257,0.60892,0.08078,0.77148-0.18274
			c0.09178-0.14874,0.10893-0.33179,0.04639-0.495h0.17432L154.48193,139.90625z"/>
	</g>
</g>
<g>
	<g>
		<path class="st2" d="M174.84668,133.26074c-0.36035,0.85156-0.86328,1.34277-1.58299,1.34277
			c-0.57123,0.05438-1.1162-0.25156-1.36719-0.76758c-0.20721,0.4592-0.66035,0.75803-1.16406,0.76758
			c-0.40698,0.00845-0.80461-0.1225-1.12695-0.37109c-0.28632-0.29337-0.43468-0.69446-0.4082-1.10352
			c0.04889-0.7876,0.25266-1.55783,0.59961-2.2666c0.15266-0.34247,0.24991-0.70706,0.28809-1.08008
			c0-0.31152-0.13184-0.34766-0.26367-0.34766c-0.69531,0-1.01953,1.13965-1.11523,1.51172
			c-0.04785,0.168-0.06055,0.19141-0.21582,0.19141c-0.06055,0-0.17969,0-0.17969-0.12012
			c0-0.07129,0.41895-1.84668,1.53516-1.84668c0.49614-0.00864,0.90535,0.38657,0.91399,0.88272
			c0.00052,0.02966-0.00043,0.05936-0.00285,0.08896c-0.00755,0.21906-0.05626,0.43469-0.14355,0.63574
			c-0.35919,0.79825-0.5899,1.64825-0.68359,2.51855c0,0.15527,0,1.043,0.83887,1.043c0.63574,0,1.00781-0.99512,1.00781-1.12701
			c-0.00005-0.25497,0.0321-0.50894,0.0957-0.75586l0.68359-2.73438c0.02991-0.23215,0.22224-0.40924,0.45605-0.41992
			c0.17343-0.01172,0.32352,0.11938,0.33524,0.29279c0.00041,0.00626,0.00066,0.01248,0.0007,0.01874
			c0,0.04785-0.12012,0.52832-0.19238,0.79199l-0.50391,2.01465c-0.08469,0.30109-0.13287,0.61124-0.14355,0.92383
			c0,0.50391,0.19238,0.99512,0.79201,0.99512c0.55176,0,0.93555-0.49121,1.19922-1.11523
			c0.28909-0.71579,0.4866-1.46521,0.58789-2.23047c0.01709-0.34589-0.09894-0.68521-0.32422-0.94824
			c-0.09378-0.08209-0.15018-0.19876-0.15625-0.32324c0.03101-0.3002,0.2749-0.53378,0.57617-0.55176
			c0.34766,0,0.49121,0.37207,0.49121,0.79199C175.54764,131.09433,175.26938,132.20361,174.84668,133.26074z"/>
		<path class="st2" d="M187.81738,130.5498h-7.15912c-0.18066,0-0.4082,0-0.4082-0.23926c0-0.24023,0.22754-0.24023,0.39551-0.24023
			h7.18457c0.168,0,0.39551,0,0.39551,0.24023C188.22559,130.5498,187.99805,130.5498,187.81738,130.5498z M187.83008,132.87695
			h-7.18457c-0.168,0-0.39551,0-0.39551-0.24023c0-0.23926,0.22754-0.23926,0.4082-0.23926h7.15918
			c0.18066,0,0.4082,0,0.4082,0.23926C188.22559,132.87695,187.99805,132.87695,187.83008,132.87695z"/>
	</g>
	<path class="st2" d="M197.89746,127.72754c-0.55957,0-1.7793,0-2.26953,0.04199v-0.43359h0.44824
		c1.26172,0,1.30371-0.16895,1.30371-0.67285v-7.25586c-0.57678,0.25803-1.20435,0.38254-1.83594,0.36426v-0.43457
		c0.93631,0.05905,1.85648-0.26447,2.5498-0.89648c0.32227,0,0.32227,0.02832,0.32227,0.36426v7.8584
		c0,0.51855,0.04199,0.67285,1.30273,0.67285h0.44824v0.43359C199.67676,127.72754,198.45801,127.72754,197.89746,127.72754z"/>
	<path class="st2" d="M200.19531,143.76953h-5.19727c0-0.33594,0-0.36426,0.1543-0.51758l2.68945-2.99799
		c0.83853-0.82718,1.35919-1.92313,1.4707-3.0957c0-1.14844-0.60254-2.2832-1.87701-2.2832
		c-0.87296,0.01767-1.63586,0.5939-1.8916,1.42871c0.05966-0.01474,0.1214-0.01938,0.18262-0.01367
		c0.39099-0.01862,0.72305,0.28323,0.74167,0.67422c0.00089,0.0181,0.00104,0.03619,0.00052,0.05429
		c0.00336,0.40656-0.32349,0.73886-0.73004,0.74222s-0.73886-0.32349-0.74222-0.73004
		c-0.00015-0.01807,0.00037-0.03613,0.00156-0.05417c0.02847-1.42117,1.19778-2.55344,2.61914-2.53613
		c1.51517-0.12027,2.84097,1.01056,2.96121,2.52573c0.00507,0.0639,0.0079,0.12796,0.00851,0.19205
		c0,1.40039-0.83984,2.15723-3.02539,4.08984l-1.48535,1.44336h2.52246c0.44647,0.02814,0.89465-0.0097,1.33008-0.1123
		c0.16077-0.39917,0.26465-0.81897,0.30859-1.24707h0.34961L200.19531,143.76953z"/>
	<line class="st8" x1="191.79761" y1="131.78101" x2="203.79761" y2="131.78101"/>
	<g>
		<path class="st2" d="M212.62695,132.11621l-0.91211,2.57813c-0.07129,0.2041-0.08401,0.21582-0.34766,0.21582h-5.13281
			c-0.19238,0-0.2998,0-0.2998-0.14355c0-0.22754,0.13184-0.22754,0.32324-0.22754c0.81543,0,0.8877-0.09668,0.9834-0.50391
			l1.61914-6.5127c0.02789-0.07285,0.04404-0.14963,0.04785-0.22754c0-0.2041-0.32324-0.2041-0.69531-0.2041
			c-0.22754,0-0.32324,0-0.32324-0.14355c0-0.22852,0.15527-0.22852,0.22754-0.22852c0.47949,0,0.9834,0.03613,1.47461,0.03613
			c0.55176,0,1.11621-0.03613,1.65527-0.03613c0.04785,0,0.18066,0,0.18066,0.14453c0,0.22754-0.13281,0.22754-0.33594,0.22754
			h-0.12012c-0.97168,0-1.04395,0.12012-1.15137,0.54001l-1.63086,6.52441c-0.02249,0.08664-0.03879,0.17474-0.04883,0.26367
			c0,0.08401,0,0.12012,0.37207,0.12012h0.97168c1.87109,0,2.38672-1.3916,2.77051-2.45901
			c0.08401-0.22754,0.0957-0.26367,0.24023-0.26367c0.03516,0,0.17969,0,0.17969,0.14355L212.62695,132.11621z"/>
		<path class="st2" d="M214.51074,138.88574c-0.2793,0-0.8877,0-1.13184,0.02051v-0.2168h0.22363
			c0.62891,0,0.64941-0.08301,0.64941-0.33499v-3.62012c-0.28745,0.12866-0.60022,0.19073-0.91501,0.18164v-0.2168
			c0.46692,0.02939,0.92578-0.13202,1.27148-0.44727c0.16113,0,0.16113,0.01465,0.16113,0.18164v3.9209
			c0,0.25879,0.02051,0.33499,0.64941,0.33499h0.22363v0.2168C215.39844,138.88574,214.79004,138.88574,214.51074,138.88574z"/>
		<path class="st2" d="M218.65918,135.04199c-0.49557,0.00873-0.90439-0.38596-0.91312-0.88156
			c-0.00046-0.02582,0.00021-0.05167,0.00198-0.07745c0.01627-0.28763,0.08966-0.56915,0.21582-0.82813l0.44336-1.18652
			l0.36035-0.99609c0.11816-0.2742,0.19104-0.56573,0.21582-0.86328c0-0.27539-0.13184-0.33594-0.26367-0.33594
			c-0.69629,0-1.00781,1.11523-1.11621,1.51172c-0.04785,0.168-0.05957,0.19141-0.21582,0.19141
			c-0.05957,0-0.17969,0-0.17969-0.12012c0-0.05957,0.4082-1.84668,1.53516-1.84668
			c0.48795-0.01047,0.89197,0.37662,0.90244,0.86456c0.00067,0.03149-0.00034,0.06305-0.00302,0.09445
			c-0.00098,0.23148-0.04987,0.46024-0.14355,0.67188l-0.76758,2.05078c-0.15997,0.36636-0.26495,0.75433-0.31152,1.15137
			c0,0.32422,0.16699,0.33594,0.26367,0.33594c0.69531,0,1.01953-1.15137,1.11523-1.49899
			c0.04785-0.17969,0.04785-0.2041,0.2041-0.2041c0.08401,0,0.17969,0,0.17969,0.12012
			C220.18262,133.24316,219.78711,135.04199,218.65918,135.04199z M219.73828,128.33789
			c-0.28113,0.01614-0.52213-0.19867-0.53827-0.47983c-0.00067-0.0119-0.00095-0.02386-0.00079-0.0358
			c0.02893-0.40933,0.35785-0.73325,0.76758-0.75586c0.28122-0.01608,0.52219,0.19885,0.53827,0.48007
			c0.00067,0.01184,0.00095,0.02368,0.00079,0.03555c-0.02893,0.40936-0.35785,0.73325-0.76761,0.75586H219.73828z"/>
		<path class="st2" d="M221.69238,138.88574c-0.2793,0-0.88672,0-1.13184,0.02051v-0.2168h0.22363
			c0.62891,0,0.65039-0.08301,0.65039-0.33499v-3.62012c-0.28778,0.12866-0.60089,0.19077-0.91599,0.18164v-0.2168
			c0.46722,0.02942,0.92639-0.13199,1.27246-0.44727c0.16016,0,0.16016,0.01465,0.16016,0.18164v3.9209
			c0,0.25879,0.02148,0.33499,0.65039,0.33499h0.22363v0.2168C222.58008,138.88574,221.97266,138.88574,221.69238,138.88574z"/>
		<path class="st2" d="M226.33691,130.91406h-2.59277c0-0.16699,0-0.18164,0.07715-0.25879l1.3418-1.49512
			c0.41779-0.41284,0.67737-0.95926,0.7334-1.54395c0-0.57324-0.30078-1.13965-0.93652-1.13965
			c-0.43539,0.009-0.81583,0.29648-0.94336,0.71289c0.02969-0.00732,0.06036-0.00964,0.09082-0.00684
			c0.19476-0.00952,0.36035,0.14066,0.36984,0.33542c0.00046,0.00928,0.00055,0.01859,0.00027,0.02786
			c0.00174,0.20276-0.16119,0.36853-0.36395,0.37027c-0.20273,0.00174-0.36853-0.16119-0.37027-0.36395
			c-0.00006-0.00928,0.00021-0.01855,0.00082-0.0278c0.01486-0.70862,0.5979-1.27295,1.30664-1.26465
			c0.75601-0.05981,1.41739,0.50455,1.47723,1.26059c0.0025,0.03189,0.00391,0.06387,0.00421,0.09586
			c0,0.69824-0.41901,1.07617-1.50879,2.04001l-0.74121,0.71973h1.25781c0.26379,0.16251,0.60938,0.08041,0.77188-0.18338
			c0.09155-0.14859,0.10873-0.3313,0.04648-0.49435h0.17383L226.33691,130.91406z"/>
		<path class="st2" d="M239.13965,132.15234h-3.3457v3.35742c0,0.168,0,0.39648-0.24023,0.39648
			c-0.23926,0-0.23926-0.22852-0.23926-0.39648v-3.35742h-3.3584c-0.168,0-0.39551,0-0.39551-0.24023
			s0.22754-0.24023,0.39551-0.24023h3.3584v-3.35742c0-0.168,0-0.39648,0.23926-0.39648c0.24023,0,0.24023,0.22852,0.24023,0.39648
			v3.35742h3.3457c0.168,0,0.39648,0,0.39648,0.24023S239.30762,132.15234,239.13965,132.15234z"/>
	</g>
	<path class="st2" d="M249.89746,127.72754c-0.55957,0-1.7793,0-2.26953,0.04199v-0.43359h0.44824
		c1.26172,0,1.30371-0.16895,1.30371-0.67285v-7.25586c-0.57678,0.25803-1.20435,0.38254-1.83594,0.36426v-0.43457
		c0.93631,0.05905,1.85648-0.26447,2.5498-0.89648c0.32227,0,0.32227,0.02832,0.32227,0.36426v7.8584
		c0,0.51855,0.04199,0.67285,1.30273,0.67285h0.44824v0.43359C251.67676,127.72754,250.45801,127.72754,249.89746,127.72754z"/>
	<path class="st2" d="M252.19531,143.76953h-5.19727c0-0.33594,0-0.36426,0.1543-0.51758l2.68945-2.99799
		c0.83853-0.82718,1.35919-1.92313,1.4707-3.0957c0-1.14844-0.60254-2.2832-1.87701-2.2832
		c-0.87296,0.01767-1.63586,0.5939-1.8916,1.42871c0.05966-0.01474,0.1214-0.01938,0.18262-0.01367
		c0.39099-0.01862,0.72305,0.28323,0.74167,0.67422c0.00089,0.0181,0.00104,0.03619,0.00052,0.05429
		c0.00336,0.40656-0.32349,0.73886-0.73004,0.74222s-0.73886-0.32349-0.74222-0.73004
		c-0.00015-0.01807,0.00037-0.03613,0.00156-0.05417c0.02847-1.42117,1.19778-2.55344,2.61914-2.53613
		c1.51517-0.12027,2.84097,1.01056,2.96121,2.52573c0.00507,0.0639,0.0079,0.12796,0.00851,0.19205
		c0,1.40039-0.83984,2.15723-3.02539,4.08984l-1.48535,1.44336h2.52246c0.52878,0.32526,1.2211,0.16028,1.54636-0.3685
		c0.18329-0.29794,0.21741-0.66422,0.09232-0.99088h0.34961L252.19531,143.76953z"/>
	<line class="st8" x1="243.79761" y1="131.78101" x2="255.79761" y2="131.78101"/>
	<g>
		<path class="st2" d="M266.62695,132.11621l-0.91211,2.57813c-0.07129,0.2041-0.08401,0.21582-0.34766,0.21582h-5.13281
			c-0.19238,0-0.2998,0-0.2998-0.14355c0-0.22754,0.13184-0.22754,0.32324-0.22754c0.81543,0,0.8877-0.09668,0.9834-0.50391
			l1.61914-6.5127c0.02789-0.07285,0.04404-0.14963,0.04785-0.22754c0-0.2041-0.32324-0.2041-0.69531-0.2041
			c-0.22754,0-0.32324,0-0.32324-0.14355c0-0.22852,0.15527-0.22852,0.22754-0.22852c0.47949,0,0.9834,0.03613,1.47461,0.03613
			c0.55176,0,1.11621-0.03613,1.65527-0.03613c0.04785,0,0.18066,0,0.18066,0.14453c0,0.22754-0.13281,0.22754-0.33594,0.22754
			h-0.12012c-0.97168,0-1.04395,0.12012-1.15137,0.54001l-1.63086,6.52441c-0.02249,0.08664-0.03879,0.17474-0.04883,0.26367
			c0,0.08401,0,0.12012,0.37207,0.12012h0.97168c1.87109,0,2.38672-1.3916,2.77051-2.45901
			c0.08401-0.22754,0.0957-0.26367,0.24023-0.26367c0.03516,0,0.17969,0,0.17969,0.14355L266.62695,132.11621z"/>
		<path class="st2" d="M269.65726,138.90625h-2.5928c0-0.16699,0-0.18164,0.07617-0.25879l1.3418-1.49512
			c0.41843-0.41251,0.67841-0.95905,0.73438-1.54395c0-0.57324-0.30078-1.13965-0.93652-1.13965
			c-0.43549,0.00873-0.81607,0.29633-0.94336,0.71289c0.02966-0.00745,0.06036-0.00977,0.09082-0.00684
			c0.1951-0.00919,0.36069,0.14151,0.36987,0.33661c0.00043,0.00888,0.00049,0.01779,0.00024,0.02667
			c0.00159,0.20273-0.16147,0.36841-0.3642,0.37c-0.20276,0.00159-0.36841-0.16147-0.37-0.3642
			c-0.00009-0.00912,0.00018-0.01822,0.00079-0.02728c0.0145-0.70877,0.59778-1.27328,1.30664-1.26465
			c0.75601-0.05981,1.41739,0.50455,1.47723,1.26059c0.0025,0.03189,0.00391,0.06387,0.00421,0.09586
			c0,0.69824-0.41895,1.07617-1.50977,2.04001l-0.74023,0.71973h1.25781c0.22287,0.01389,0.44659-0.00488,0.66406-0.05566
			c0.07956-0.19928,0.13116-0.40863,0.15332-0.62207h0.1748L269.65726,138.90625z"/>
		<path class="st2" d="M272.65918,135.04199c-0.49557,0.00873-0.90439-0.38596-0.91312-0.88156
			c-0.00046-0.02582,0.00021-0.05167,0.00198-0.07745c0.01627-0.28763,0.08966-0.56915,0.21582-0.82813l0.44336-1.18652
			l0.36035-0.99609c0.11816-0.2742,0.19104-0.56573,0.21582-0.86328c0-0.27539-0.13184-0.33594-0.26367-0.33594
			c-0.69629,0-1.00781,1.11523-1.11621,1.51172c-0.04785,0.168-0.05957,0.19141-0.21582,0.19141
			c-0.05957,0-0.17969,0-0.17969-0.12012c0-0.05957,0.4082-1.84668,1.53516-1.84668
			c0.48795-0.01047,0.89197,0.37662,0.90244,0.86456c0.00067,0.03149-0.00034,0.06305-0.00302,0.09445
			c-0.00098,0.23148-0.04987,0.46024-0.14355,0.67188l-0.76758,2.05078c-0.15997,0.36636-0.26495,0.75433-0.31152,1.15137
			c0,0.32422,0.16699,0.33594,0.26367,0.33594c0.69531,0,1.01953-1.15137,1.11523-1.49899
			c0.04785-0.17969,0.04785-0.2041,0.2041-0.2041c0.08401,0,0.17969,0,0.17969,0.12012
			C274.18262,133.24316,273.78711,135.04199,272.65918,135.04199z M273.73828,128.33789
			c-0.28113,0.01614-0.52213-0.19867-0.53827-0.47983c-0.00067-0.0119-0.00095-0.02386-0.00079-0.0358
			c0.02893-0.40933,0.35785-0.73325,0.76758-0.75586c0.28122-0.01608,0.52219,0.19885,0.53827,0.48007
			c0.00067,0.01184,0.00095,0.02368,0.00079,0.03555c-0.02893,0.40936-0.35785,0.73325-0.76761,0.75586H273.73828z"/>
		<path class="st2" d="M276.83887,138.90625h-2.59277c0-0.16699,0-0.18164,0.07715-0.25879l1.3418-1.49512
			c0.41779-0.41284,0.67737-0.95926,0.7334-1.54395c0-0.57324-0.30078-1.13965-0.93652-1.13965
			c-0.43539,0.009-0.81583,0.29648-0.94336,0.71289c0.02969-0.00732,0.06036-0.00964,0.09082-0.00684
			c0.19476-0.00952,0.36035,0.14066,0.36984,0.33542c0.00046,0.00928,0.00055,0.01859,0.00027,0.02786
			c0.00159,0.20273-0.16147,0.36841-0.3642,0.37c-0.20276,0.00159-0.36841-0.16147-0.37-0.3642
			c-0.00009-0.00912,0.00018-0.01822,0.00079-0.02728c0.01486-0.70862,0.5979-1.27295,1.30664-1.26465
			c0.75601-0.05981,1.41739,0.50455,1.47723,1.26059c0.0025,0.03189,0.00391,0.06387,0.00421,0.09586
			c0,0.69824-0.41895,1.07617-1.50879,2.04001l-0.74121,0.71973h1.25781c0.26379,0.16251,0.60938,0.08041,0.77188-0.18338
			c0.09155-0.14859,0.10873-0.3313,0.04648-0.49435h0.17383L276.83887,138.90625z"/>
		<path class="st2" d="M280.33691,130.91406h-2.59277c0-0.16699,0-0.18164,0.07715-0.25879l1.3418-1.49512
			c0.41779-0.41284,0.67737-0.95926,0.7334-1.54395c0-0.57324-0.30078-1.13965-0.93652-1.13965
			c-0.43539,0.009-0.81583,0.29648-0.94336,0.71289c0.02969-0.00732,0.06036-0.00964,0.09082-0.00684
			c0.19476-0.00952,0.36035,0.14066,0.36984,0.33542c0.00046,0.00928,0.00055,0.01859,0.00027,0.02786
			c0.00174,0.20276-0.16119,0.36853-0.36395,0.37027c-0.20273,0.00174-0.36853-0.16119-0.37027-0.36395
			c-0.00006-0.00928,0.00021-0.01855,0.00082-0.0278c0.01486-0.70862,0.5979-1.27295,1.30664-1.26465
			c0.75601-0.05981,1.41739,0.50455,1.47723,1.26059c0.0025,0.03189,0.00391,0.06387,0.00421,0.09586
			c0,0.69824-0.41901,1.07617-1.50879,2.04001l-0.74121,0.71973h1.25781c0.26379,0.16251,0.60938,0.08041,0.77188-0.18338
			c0.09155-0.14859,0.10873-0.3313,0.04648-0.49435h0.17383L280.33691,130.91406z"/>
		<path class="st2" d="M293.84766,132.2002h-7.21973c-0.15625,0-0.44434,0-0.44434-0.28809c0-0.2998,0.27637-0.2998,0.44434-0.2998
			h7.21973c0.168,0,0.44336,0,0.44336,0.2998C294.29102,132.2002,294.00391,132.2002,293.84766,132.2002z"/>
		<path class="st2" d="M309.43457,134.91016c-0.44336,0-0.93555-0.03613-1.39063-0.03613
			c-0.45605,0-0.92383,0.03613-1.36719,0.03613c-0.07816,0.01349-0.15244-0.03894-0.16592-0.1171
			c-0.0015-0.00873-0.0022-0.01761-0.00208-0.02646c0-0.22754,0.13184-0.22754,0.32324-0.22754
			c0.81543,0,0.8877-0.09668,0.9834-0.50391l1.69141-6.78809h-0.01172l-4.47363,7.44727
			c-0.07227,0.13184-0.13184,0.21582-0.28809,0.21582c-0.17969,0-0.17969-0.08401-0.2041-0.28711l-0.73145-7.26855h-0.01172
			l-1.59473,6.36816c-0.02969,0.09729-0.04611,0.19812-0.04883,0.2998c0,0.18066,0.02441,0.49219,0.70801,0.5166
			c0.14355,0,0.22754,0.01172,0.22754,0.15527c0,0.21582-0.14355,0.21582-0.21582,0.21582
			c-0.37109,0-0.79099-0.03613-1.1748-0.03613c-0.37207,0-0.78027,0.03613-1.13965,0.03613
			c-0.08401,0-0.15625-0.03613-0.15625-0.14355c0-0.21582,0.13184-0.22754,0.22852-0.22754
			c0.54672,0.0636,1.05148-0.30087,1.16309-0.83984l1.53516-6.17676c0.02789-0.07285,0.04404-0.14963,0.04785-0.22754
			c0-0.2041-0.32422-0.2041-0.69531-0.2041c-0.22852,0-0.32422,0-0.32422-0.14355c0-0.22852,0.13184-0.22852,0.32422-0.22852
			h1.59473c0.28809,0,0.31152,0,0.33594,0.26367l0.67188,6.72852l4.07715-6.77637c0.13281-0.21582,0.168-0.21582,0.43262-0.21582
			h1.53516c0.20313,0,0.2998,0,0.2998,0.15625c0,0.21582-0.1084,0.21582-0.36035,0.21582c-0.75586,0-0.85156,0.0957-0.94727,0.47949
			l-1.61914,6.48828c-0.02658,0.08997-0.04263,0.18271-0.04785,0.27637c0,0.10742,0,0.2041,0.69531,0.2041
			c0.24023,0,0.32422,0,0.32422,0.15527C309.66309,134.91016,309.51855,134.91016,309.43457,134.91016z"/>
		<path class="st2" d="M312.81055,135.04199c-0.49557,0.00873-0.90439-0.38596-0.91312-0.88153
			c-0.00046-0.02585,0.00021-0.0517,0.00198-0.07748c0.01627-0.28763,0.08966-0.56915,0.21582-0.82813l0.44336-1.18652
			l0.36035-0.99609c0.11816-0.2742,0.19104-0.56573,0.21582-0.86328c0-0.27539-0.13184-0.33594-0.26367-0.33594
			c-0.69629,0-1.00781,1.11523-1.11621,1.51172c-0.04785,0.168-0.05957,0.19141-0.21582,0.19141
			c-0.05957,0-0.17969,0-0.17969-0.12012c0-0.05957,0.4082-1.84668,1.53516-1.84668
			c0.48795-0.01047,0.89197,0.37662,0.90244,0.86456c0.00067,0.03149-0.00034,0.06305-0.00302,0.09445
			c-0.00098,0.23148-0.04987,0.46024-0.14355,0.67188l-0.76758,2.05078c-0.15997,0.36636-0.26495,0.75433-0.31152,1.15137
			c0,0.32422,0.16699,0.33594,0.26367,0.33594c0.69531,0,1.01953-1.15137,1.11523-1.49899
			c0.04785-0.17969,0.04785-0.2041,0.2041-0.2041c0.08401,0,0.17969,0,0.17969,0.12012
			C314.33398,133.24316,313.93848,135.04199,312.81055,135.04199z M313.88965,128.33789
			c-0.28113,0.01614-0.52213-0.19867-0.53827-0.47983c-0.00067-0.0119-0.00095-0.02386-0.00079-0.0358
			c0.02893-0.40933,0.35785-0.73325,0.76758-0.75586c0.28122-0.01608,0.52219,0.19885,0.53827,0.48007
			c0.00067,0.01184,0.00095,0.02368,0.00079,0.03555C314.6283,127.99136,314.29938,128.31528,313.88965,128.33789z"/>
		<path class="st2" d="M315.84375,138.88574c-0.2793,0-0.88672,0-1.13184,0.02051v-0.2168h0.22363
			c0.62891,0,0.65039-0.08301,0.65039-0.33499v-3.62012c-0.28778,0.12866-0.60089,0.19077-0.91599,0.18164v-0.2168
			c0.46722,0.02942,0.92639-0.13199,1.27246-0.44727c0.16016,0,0.16016,0.01465,0.16016,0.18164v3.9209
			c0,0.25879,0.02148,0.33499,0.65039,0.33499h0.22363v0.2168C316.73145,138.88574,316.12402,138.88574,315.84375,138.88574z"/>
		<path class="st2" d="M319.99316,135.04199c-0.4957,0.00912-0.90494-0.38528-0.91406-0.88098
			c-0.00049-0.02603,0.00018-0.05206,0.00195-0.07803c0.01627-0.28763,0.08966-0.56915,0.21582-0.82813l0.44434-1.18652
			l0.35938-0.99609c0.11816-0.2742,0.19104-0.56573,0.21582-0.86328c0-0.27539-0.13184-0.33594-0.26367-0.33594
			c-0.69531,0-1.00781,1.11523-1.11523,1.51172c-0.04785,0.168-0.06055,0.19141-0.21582,0.19141
			c-0.06055,0-0.17969,0-0.17969-0.12012c0-0.05957,0.40723-1.84668,1.53516-1.84668c0.48822-0.01016,0.89224,0.37738,0.9024,0.8656
			c0.00064,0.03116-0.00034,0.06235-0.00299,0.09341c-0.0014,0.23151-0.05063,0.46027-0.14453,0.67188l-0.76758,2.05078
			c-0.15952,0.36652-0.26447,0.75443-0.31152,1.15137c0,0.32422,0.168,0.33594,0.26367,0.33594
			c0.69629,0,1.01953-1.15137,1.11523-1.49899c0.04785-0.17969,0.04785-0.2041,0.2041-0.2041c0.08401,0,0.17969,0,0.17969,0.12012
			C321.51563,133.24316,321.12012,135.04199,319.99316,135.04199z M321.07227,128.33789
			c-0.28162,0.01617-0.52301-0.19897-0.53918-0.48059c-0.00067-0.01166-0.00095-0.02335-0.00082-0.03503
			c0.02893-0.40933,0.35785-0.73325,0.76758-0.75586c0.28131-0.01648,0.52271,0.19824,0.53918,0.47955
			c0.0007,0.01199,0.00098,0.02405,0.00082,0.03607C321.81091,127.99136,321.48199,128.31528,321.07227,128.33789z"/>
		<path class="st2" d="M324.17188,138.90625h-2.59277c0-0.16699,0-0.18164,0.07715-0.25879l1.3418-1.49512
			c0.41779-0.41284,0.67737-0.95926,0.7334-1.54395c0-0.57324-0.30078-1.13965-0.93652-1.13965
			c-0.43539,0.009-0.81583,0.29648-0.94336,0.71289c0.02969-0.00732,0.06036-0.00964,0.09082-0.00684
			c0.19476-0.00952,0.36035,0.14066,0.36984,0.33542c0.00046,0.00928,0.00055,0.01859,0.00027,0.02786
			c0.00174,0.20276-0.16119,0.36853-0.36395,0.37027c-0.20273,0.00174-0.36853-0.16119-0.37027-0.36395
			c-0.00006-0.00928,0.00021-0.01855,0.00082-0.0278c0.01486-0.70862,0.5979-1.27295,1.30664-1.26465
			c0.75601-0.05981,1.41739,0.50455,1.47723,1.26059c0.0025,0.03189,0.00391,0.06387,0.00421,0.09586
			c0,0.69824-0.41895,1.07617-1.50879,2.04001l-0.74121,0.71973h1.25781c0.26379,0.16251,0.60938,0.08041,0.77188-0.18338
			c0.09155-0.14859,0.10873-0.3313,0.04648-0.49435h0.17383L324.17188,138.90625z"/>
	</g>
</g>
</svg>
