<svg id="Layer_1" data-name="Layer 1" xmlns="http://www.w3.org/2000/svg" viewBox="0 0 324.36719 144.76953">
  <defs>
    <style>
      .cls-1, .cls-2, .cls-3, .cls-5, .cls-6, .cls-8 {
        fill: none;
      }

      .cls-1, .cls-2, .cls-5, .cls-6, .cls-7, .cls-8 {
        stroke: #000;
      }

      .cls-1, .cls-5 {
        stroke-linecap: round;
      }

      .cls-1 {
        stroke-linejoin: round;
      }

      .cls-1, .cls-5, .cls-6, .cls-7 {
        stroke-width: 2px;
      }

      .cls-2, .cls-6 {
        stroke-linecap: square;
      }

      .cls-2 {
        stroke-width: 1.5px;
      }

      .cls-3 {
        stroke: #c1272d;
        stroke-miterlimit: 10;
      }

      .cls-4 {
        fill: #c1272d;
      }

      .cls-8 {
        stroke-width: 0.5px;
      }
    </style>
  </defs>
  <title>EnergyCoupledCircuit</title>
  <polyline class="cls-1" points="92.287 41.281 92.287 31.281 121.307 31.281 132.287 31.281"/>
  <line class="cls-2" x1="129.78711" y1="42.28101" x2="134.78711" y2="42.28101"/>
  <line class="cls-2" x1="132.28711" y1="44.78101" x2="132.28711" y2="39.78101"/>
  <line class="cls-2" x1="129.78711" y1="92.28101" x2="134.78711" y2="92.28101"/>
  <g>
    <path d="M124.77832,185.07422a.89768.89768,0,0,1-.91162-.95947,2.17111,2.17111,0,0,1,.21582-.82764l.44385-1.187.35986-.99561a2.767,2.767,0,0,0,.21582-.86328c0-.27588-.13184-.33594-.26367-.33594-.6958,0-1.00781,1.11524-1.11572,1.51123-.04786.16748-.06006.1919-.21582.1919-.06006,0-.17969,0-.17969-.12012,0-.06006.40771-1.84717,1.53515-1.84717a.88436.88436,0,0,1,.89942.95948,1.68114,1.68114,0,0,1-.144.67187l-.76758,2.05078a4.07078,4.07078,0,0,0-.312,1.15137c0,.32373.168.33594.26416.33594.6958,0,1.01953-1.15137,1.11523-1.499.04785-.18017.04785-.2041.2041-.2041.084,0,.17969,0,.17969.12012C126.30127,183.27539,125.90576,185.07422,124.77832,185.07422Zm1.0791-6.7041a.51032.51032,0,0,1-.53955-.51563.8145.8145,0,0,1,.76758-.75586.50956.50956,0,0,1,.53955.51563A.8145.8145,0,0,1,125.85742,178.37012Z" transform="translate(-82.63574 -169.81836)"/>
    <path d="M127.81152,188.91748c-.27929,0-.8872,0-1.13183.021v-.2168h.22363c.62891,0,.6499-.0835.6499-.33545v-3.62012a2.08994,2.08994,0,0,1-.91552.18213v-.21679a1.72719,1.72719,0,0,0,1.272-.44727c.16064,0,.16064.01367.16064.18164v3.92041c0,.25879.021.33545.6499.33545h.22364v.2168C128.69922,188.91748,128.09131,188.91748,127.81152,188.91748Z" transform="translate(-82.63574 -169.81836)"/>
  </g>
  <g>
    <path d="M214.22412,238.1416a1.34306,1.34306,0,0,1-1.4751-1.43945,7.64026,7.64026,0,0,1,.61133-2.30274,3.53307,3.53307,0,0,0,.28809-1.0791c0-.3125-.13184-.34765-.26367-.34765-.69581,0-1.01954,1.13867-1.11573,1.51074-.04785.168-.06006.19238-.21582.19238-.06006,0-.17968,0-.17968-.12012,0-.07226.41943-1.84765,1.53515-1.84765a.89848.89848,0,0,1,.91113.97168,1.8967,1.8967,0,0,1-.13183.59961,9.05221,9.05221,0,0,0-.70752,2.60254c0,.39648.13183.99609.77978.99609,1.37891,0,1.94288-3.01074,1.94288-3.34668a1.353,1.353,0,0,0-.32374-.94727.4636.4636,0,0,1-.15625-.32421.61691.61691,0,0,1,.57569-.55176c.34814,0,.4917.37207.4917.792C216.79053,233.81152,216.23877,238.1416,214.22412,238.1416Z" transform="translate(-82.63574 -169.81836)"/>
    <path d="M219.34033,242.00586h-2.59277c0-.168,0-.18164.07666-.25879l1.3418-1.49512a2.50486,2.50486,0,0,0,.73388-1.54492c0-.57324-.30078-1.13867-.93652-1.13867a1.007,1.007,0,0,0-.94336.71191.27109.27109,0,0,1,.09082-.00683.35335.35335,0,0,1,.37012.36328.36712.36712,0,1,1-.7334-.02051,1.29087,1.29087,0,0,1,1.30664-1.26465,1.37244,1.37244,0,0,1,1.48144,1.35547c0,.69922-.41894,1.07617-1.50927,2.041l-.74073.71972h1.25782a2.25112,2.25112,0,0,0,.66406-.05664,2.30607,2.30607,0,0,0,.15381-.62109h.17431Z" transform="translate(-82.63574 -169.81836)"/>
  </g>
  <g>
    <path class="cls-3" d="M146.94383,194.34027a13.5004,13.5004,0,0,1,26.958-.00055" transform="translate(-82.63574 -169.81836)"/>
    <polygon class="cls-4" points="67.434 22.494 66.97 21.969 64.387 24.258 62.293 21.514 61.736 21.94 64.288 25.281 67.434 22.494"/>
    <polygon class="cls-4" points="88.14 22.494 88.604 21.969 91.187 24.258 93.282 21.514 93.838 21.94 91.286 25.281 88.14 22.494"/>
  </g>
  <path d="M164.24512,178.00977c-.44336,0-.93555-.03614-1.39063-.03614-.45605,0-.92383.03614-1.36719.03614a.1437.1437,0,0,1-.168-.144c0-.22754.13183-.22754.32324-.22754.81543,0,.88769-.09619.9834-.5039l1.6914-6.78809h-.01172L159.832,177.794c-.07226.13183-.13183.21582-.28808.21582-.17969,0-.17969-.084-.20411-.28809l-.73144-7.26758h-.01172l-1.59473,6.36817a1.12549,1.12549,0,0,0-.04882.2998c0,.18018.02441.4917.708.51611.14356,0,.22754.01172.22754.15577,0,.21582-.14355.21582-.21582.21582-.37109,0-.791-.03614-1.1748-.03614-.37207,0-.78028.03614-1.13965.03614-.084,0-.15625-.03614-.15625-.144,0-.21582.13183-.22754.22851-.22754a1.06239,1.06239,0,0,0,1.16309-.83984l1.53516-6.17627a.741.741,0,0,0,.04785-.228c0-.2041-.32422-.2041-.69531-.2041-.22852,0-.32422,0-.32422-.144,0-.22754.13183-.22754.32422-.22754h1.59472c.28809,0,.31153,0,.33594.26367l.67187,6.72852,4.07715-6.77637c.13282-.21582.168-.21582.43262-.21582h1.53516c.20312,0,.2998,0,.2998.15576,0,.21582-.1084.21582-.36035.21582-.75586,0-.85156.09619-.94727.48L163.502,177.1582a1.20354,1.20354,0,0,0-.04785.27588c0,.10791,0,.2041.69531.2041.24024,0,.32422,0,.32422.15577C164.47363,178.00977,164.3291,178.00977,164.24512,178.00977Z" transform="translate(-82.63574 -169.81836)"/>
  <g>
    <path class="cls-1" d="M146.92285,227.1827a4.45834,4.45834,0,0,0,0-8.91667V201.09937h-40" transform="translate(-82.63574 -169.81836)"/>
    <path class="cls-5" d="M146.92285,227.1827a4.45834,4.45834,0,0,1,0,8.91667" transform="translate(-82.63574 -169.81836)"/>
    <path class="cls-5" d="M146.92285,236.09937a4.45833,4.45833,0,0,1,0,8.91666" transform="translate(-82.63574 -169.81836)"/>
    <path class="cls-1" d="M146.92285,245.016a4.45834,4.45834,0,0,1,0,8.91667v17.16667h-40" transform="translate(-82.63574 -169.81836)"/>
  </g>
  <polyline class="cls-6" points="36.287 27.182 50.287 27.182 47.287 24.182"/>
  <g>
    <path class="cls-1" d="M174.92285,211.09937V218.266a4.45834,4.45834,0,0,0,0,8.91667" transform="translate(-82.63574 -169.81836)"/>
    <path class="cls-5" d="M174.92285,227.1827a4.45834,4.45834,0,0,0,0,8.91667" transform="translate(-82.63574 -169.81836)"/>
    <path class="cls-5" d="M174.92285,236.09937a4.45833,4.45833,0,0,0,0,8.91666" transform="translate(-82.63574 -169.81836)"/>
    <path class="cls-1" d="M174.92285,245.016a4.45834,4.45834,0,0,0,0,8.91667v7.16667" transform="translate(-82.63574 -169.81836)"/>
  </g>
  <polyline class="cls-1" points="92.287 91.281 92.287 101.281 121.307 101.281 132.287 101.281"/>
  <polyline class="cls-6" points="121.364 27.182 107.364 27.182 110.364 24.182"/>
  <g>
    <path d="M195.77832,185.07422a.89729.89729,0,0,1-.91113-.95947,2.17111,2.17111,0,0,1,.21582-.82764l.44336-1.187.36035-.99561a2.767,2.767,0,0,0,.21582-.86328c0-.27588-.13184-.33594-.26367-.33594-.69629,0-1.00782,1.11524-1.11621,1.51123-.04786.16748-.05957.1919-.21582.1919-.05957,0-.17969,0-.17969-.12012,0-.06006.4082-1.84717,1.53515-1.84717a.88436.88436,0,0,1,.89942.95948,1.67878,1.67878,0,0,1-.14356.67187l-.76757,2.05078a4.05749,4.05749,0,0,0-.3125,1.15137c0,.32373.168.33594.26464.33594.69532,0,1.01954-1.15137,1.11524-1.499.04785-.18017.04785-.2041.2041-.2041.084,0,.17969,0,.17969.12012C197.30176,183.27539,196.90625,185.07422,195.77832,185.07422Zm1.0791-6.7041a.50989.50989,0,0,1-.53906-.51563.8145.8145,0,0,1,.76758-.75586.50942.50942,0,0,1,.53906.51563A.8145.8145,0,0,1,196.85742,178.37012Z" transform="translate(-82.63574 -169.81836)"/>
    <path d="M199.958,188.93848h-2.59278c0-.168,0-.18164.07715-.25879l1.3418-1.49512a2.50676,2.50676,0,0,0,.7334-1.54492c0-.57276-.30078-1.13867-.93653-1.13867a1.00791,1.00791,0,0,0-.94335.7124.274.274,0,0,1,.09082-.00684.35306.35306,0,0,1,.37011.36328.36712.36712,0,1,1-.7334-.021,1.29151,1.29151,0,0,1,1.30665-1.26465,1.37272,1.37272,0,0,1,1.48144,1.35547c0,.69922-.41894,1.07666-1.50879,2.041l-.74121.71973h1.25781a.56046.56046,0,0,0,.81739-.67773h.1748Z" transform="translate(-82.63574 -169.81836)"/>
  </g>
  <circle class="cls-7" cx="57.28711" cy="48.28101" r="1"/>
  <circle class="cls-7" cx="99.28711" cy="48.28101" r="1"/>
  <line class="cls-2" x1="22.323" y1="41.28101" x2="27.323" y2="41.28101"/>
  <line class="cls-2" x1="24.823" y1="43.78101" x2="24.823" y2="38.78101"/>
  <line class="cls-2" x1="22.323" y1="91.28101" x2="27.323" y2="91.28101"/>
  <g>
    <path d="M106.75977,237.1416a1.34306,1.34306,0,0,1-1.4751-1.43945,7.64,7.64,0,0,1,.61133-2.30274,3.53329,3.53329,0,0,0,.28808-1.0791c0-.3125-.13183-.34765-.26367-.34765-.6958,0-1.01953,1.13867-1.11572,1.51074-.04785.168-.06006.19238-.21582.19238-.06006,0-.17969,0-.17969-.12012,0-.07226.41943-1.84765,1.53516-1.84765a.89849.89849,0,0,1,.91113.97168,1.8967,1.8967,0,0,1-.13184.59961,9.05221,9.05221,0,0,0-.70752,2.60254c0,.39648.13184.99609.77979.99609,1.3789,0,1.94287-3.01074,1.94287-3.34668a1.353,1.353,0,0,0-.32373-.94727.46356.46356,0,0,1-.15625-.32421.6169.6169,0,0,1,.57568-.55176c.34815,0,.4917.37207.4917.792C109.32617,232.81152,108.77441,237.1416,106.75977,237.1416Z" transform="translate(-82.63574 -169.81836)"/>
    <path d="M110.72949,240.98438c-.27929,0-.8872,0-1.13183.02148v-.2168h.22363c.62891,0,.6499-.084.6499-.33593V236.833a2.08392,2.08392,0,0,1-.91553.18262v-.2168a1.7272,1.7272,0,0,0,1.272-.44727c.16064,0,.16064.01367.16064.18164v3.91993c0,.25878.021.33593.6499.33593h.22364v.2168C111.61719,240.98438,111.00928,240.98438,110.72949,240.98438Z" transform="translate(-82.63574 -169.81836)"/>
  </g>
  <g>
    <path d="M139.84961,235.21484l-.91113,2.57911c-.07227.20312-.084.21582-.34766.21582H133.457c-.1914,0-.2998,0-.2998-.14454,0-.22753.13183-.22753.32422-.22753.81543,0,.88769-.09571.98339-.50391l1.61914-6.51172a.74.74,0,0,0,.04786-.22852c0-.2041-.32422-.2041-.69532-.2041-.22851,0-.32422,0-.32422-.14355,0-.22754.15625-.22754.22754-.22754.48047,0,.9834.03613,1.47559.03613.55176,0,1.11523-.03613,1.65527-.03613.04785,0,.17969,0,.17969.14355,0,.22754-.13184.22754-.33594.22754h-.12011c-.97071,0-1.043.12012-1.15137.54l-1.63086,6.52442a2.10941,2.10941,0,0,0-.04785.26367c0,.084,0,.12012.37207.12012h.9707c1.8711,0,2.38672-1.39161,2.77051-2.459.084-.22754.09668-.26367.24023-.26367.03614,0,.17969,0,.17969.14453Z" transform="translate(-82.63574 -169.81836)"/>
    <path d="M141.7334,241.98438c-.2793,0-.88672,0-1.13184.02148v-.2168h.22364c.6289,0,.65039-.084.65039-.33593V237.833a2.08577,2.08577,0,0,1-.916.18262v-.2168a1.72818,1.72818,0,0,0,1.27246-.44727c.16016,0,.16016.01367.16016.18164v3.91993c0,.25878.02148.33593.65039.33593h.22363v.2168C142.62109,241.98438,142.01367,241.98438,141.7334,241.98438Z" transform="translate(-82.63574 -169.81836)"/>
  </g>
  <g>
    <path d="M187.314,235.21484l-.91162,2.57911c-.07177.20312-.084.21582-.34765.21582h-5.1333c-.1919,0-.29981,0-.29981-.14454,0-.22753.13184-.22753.32373-.22753.81543,0,.8877-.09571.9834-.50391l1.61914-6.51172a.7401.7401,0,0,0,.04785-.22852c0-.2041-.32373-.2041-.69531-.2041-.228,0-.32373,0-.32373-.14355,0-.22754.15576-.22754.22754-.22754.48,0,.9834.03613,1.4751.03613.55175,0,1.11572-.03613,1.65527-.03613.04785,0,.17969,0,.17969.14355,0,.22754-.13184.22754-.33545.22754h-.12012c-.97119,0-1.04346.12012-1.15137.54l-1.63086,6.52442a2.02761,2.02761,0,0,0-.04833.26367c0,.084,0,.12012.37207.12012h.97119c1.87109,0,2.38672-1.39161,2.7705-2.459.084-.22754.0962-.26367.24024-.26367.03564,0,.17969,0,.17969.14453Z" transform="translate(-82.63574 -169.81836)"/>
    <path d="M190.34424,242.00586h-2.59278c0-.168,0-.18164.07667-.25879l1.34179-1.49512a2.50482,2.50482,0,0,0,.73389-1.54492c0-.57324-.30078-1.13867-.93652-1.13867a1.007,1.007,0,0,0-.94336.71191.271.271,0,0,1,.09082-.00683.35334.35334,0,0,1,.37011.36328.36712.36712,0,1,1-.7334-.02051,1.29088,1.29088,0,0,1,1.30665-1.26465,1.37244,1.37244,0,0,1,1.48144,1.35547c0,.69922-.41894,1.07617-1.50928,2.041l-.74072.71972h1.25781a2.2512,2.2512,0,0,0,.66407-.05664,2.30573,2.30573,0,0,0,.1538-.62109h.17432Z" transform="translate(-82.63574 -169.81836)"/>
  </g>
  <polyline class="cls-1" points="261.287 41.281 261.287 31.281 290.307 31.281 301.287 31.281"/>
  <line class="cls-2" x1="298.78711" y1="42.28101" x2="303.78711" y2="42.28101"/>
  <line class="cls-2" x1="301.28711" y1="44.78101" x2="301.28711" y2="39.78101"/>
  <line class="cls-2" x1="298.78711" y1="92.28101" x2="303.78711" y2="92.28101"/>
  <g>
    <path d="M293.77832,185.07422a.89729.89729,0,0,1-.91113-.95947,2.17111,2.17111,0,0,1,.21582-.82764l.44336-1.187.36035-.99561a2.767,2.767,0,0,0,.21582-.86328c0-.27588-.13184-.33594-.26367-.33594-.69629,0-1.00782,1.11524-1.11621,1.51123-.04786.16748-.05957.1919-.21582.1919-.05957,0-.17969,0-.17969-.12012,0-.06006.4082-1.84717,1.53515-1.84717a.88436.88436,0,0,1,.89942.95948,1.67878,1.67878,0,0,1-.14356.67187l-.76757,2.05078a4.05749,4.05749,0,0,0-.3125,1.15137c0,.32373.168.33594.26464.33594.69532,0,1.01954-1.15137,1.11524-1.499.04785-.18017.04785-.2041.2041-.2041.084,0,.17969,0,.17969.12012C295.30176,183.27539,294.90625,185.07422,293.77832,185.07422Zm1.0791-6.7041a.50989.50989,0,0,1-.53906-.51563.8145.8145,0,0,1,.76758-.75586.50942.50942,0,0,1,.53906.51563A.8145.8145,0,0,1,294.85742,178.37012Z" transform="translate(-82.63574 -169.81836)"/>
    <path d="M296.81152,188.91748c-.27929,0-.88672,0-1.13183.021v-.2168h.22363c.62891,0,.65039-.0835.65039-.33545v-3.62012a2.09288,2.09288,0,0,1-.916.18213v-.21679a1.72819,1.72819,0,0,0,1.27246-.44727c.16015,0,.16015.01367.16015.18164v3.92041c0,.25879.02149.33545.65039.33545h.22364v.2168C297.69922,188.91748,297.0918,188.91748,296.81152,188.91748Z" transform="translate(-82.63574 -169.81836)"/>
  </g>
  <g>
    <path d="M383.22461,238.1416a1.34321,1.34321,0,0,1-1.47559-1.43945,7.62543,7.62543,0,0,1,.61133-2.30274,3.53307,3.53307,0,0,0,.28809-1.0791c0-.3125-.13184-.34765-.26367-.34765-.69532,0-1.01954,1.13867-1.11524,1.51074-.04883.168-.06055.19238-.2168.19238-.05957,0-.17968,0-.17968-.12012,0-.07226.41992-1.84765,1.53515-1.84765a.89921.89921,0,0,1,.91211.97168,1.88367,1.88367,0,0,1-.13281.59961,9.06577,9.06577,0,0,0-.707,2.60254c0,.39648.13183.99609.7793.99609,1.3789,0,1.94336-3.01074,1.94336-3.34668a1.35143,1.35143,0,0,0-.32422-.94727.46356.46356,0,0,1-.15625-.32421.6178.6178,0,0,1,.57617-.55176c.34765,0,.49219.37207.49219.792C385.791,233.81152,385.23828,238.1416,383.22461,238.1416Z" transform="translate(-82.63574 -169.81836)"/>
    <path d="M388.33984,242.00586h-2.59179c0-.168,0-.18164.07617-.25879l1.3418-1.49512a2.50292,2.50292,0,0,0,.73437-1.54492c0-.57324-.30078-1.13867-.9375-1.13867a1.00833,1.00833,0,0,0-.94336.71191.27819.27819,0,0,1,.0918-.00683.3528.3528,0,0,1,.36914.36328.36665.36665,0,1,1-.73242-.02051,1.29055,1.29055,0,0,1,1.30664-1.26465,1.37215,1.37215,0,0,1,1.48047,1.35547c0,.69922-.418,1.07617-1.50879,2.041l-.74121.71972H387.543a2.24774,2.24774,0,0,0,.66406-.05664,2.286,2.286,0,0,0,.1543-.62109h.17383Z" transform="translate(-82.63574 -169.81836)"/>
  </g>
  <g>
    <path class="cls-3" d="M315.94385,194.34027a13.50038,13.50038,0,0,1,26.958-.00055" transform="translate(-82.63574 -169.81836)"/>
    <polygon class="cls-4" points="236.434 22.494 235.97 21.969 233.387 24.258 231.293 21.514 230.736 21.94 233.288 25.281 236.434 22.494"/>
    <polygon class="cls-4" points="257.14 22.494 257.604 21.969 260.187 24.258 262.282 21.514 262.838 21.94 260.286 25.281 257.14 22.494"/>
  </g>
  <path d="M333.24512,178.00977c-.44336,0-.93555-.03614-1.39063-.03614-.45605,0-.92383.03614-1.36719.03614a.1437.1437,0,0,1-.168-.144c0-.22754.13183-.22754.32324-.22754.81543,0,.88769-.09619.9834-.5039l1.6914-6.78809h-.01172L328.832,177.794c-.07226.13183-.13183.21582-.28808.21582-.17969,0-.17969-.084-.20411-.28809l-.73144-7.26758h-.01172l-1.59473,6.36817a1.12549,1.12549,0,0,0-.04882.2998c0,.18018.02441.4917.708.51611.14356,0,.22754.01172.22754.15577,0,.21582-.14355.21582-.21582.21582-.37109,0-.791-.03614-1.1748-.03614-.37207,0-.78028.03614-1.13965.03614-.084,0-.15625-.03614-.15625-.144,0-.21582.13183-.22754.22851-.22754a1.06239,1.06239,0,0,0,1.16309-.83984l1.53516-6.17627a.741.741,0,0,0,.04785-.228c0-.2041-.32422-.2041-.69531-.2041-.22852,0-.32422,0-.32422-.144,0-.22754.13183-.22754.32422-.22754h1.59472c.28809,0,.31153,0,.33594.26367l.67187,6.72852,4.07715-6.77637c.13282-.21582.168-.21582.43262-.21582h1.53516c.20312,0,.2998,0,.2998.15576,0,.21582-.1084.21582-.36035.21582-.75586,0-.85156.09619-.94727.48L332.502,177.1582a1.20354,1.20354,0,0,0-.04785.27588c0,.10791,0,.2041.69531.2041.24024,0,.32422,0,.32422.15577C333.47363,178.00977,333.3291,178.00977,333.24512,178.00977Z" transform="translate(-82.63574 -169.81836)"/>
  <g>
    <path class="cls-1" d="M315.92285,227.1827a4.45834,4.45834,0,0,0,0-8.91667V201.09937h-40" transform="translate(-82.63574 -169.81836)"/>
    <path class="cls-5" d="M315.92285,227.1827a4.45834,4.45834,0,0,1,0,8.91667" transform="translate(-82.63574 -169.81836)"/>
    <path class="cls-5" d="M315.92285,236.09937a4.45833,4.45833,0,0,1,0,8.91666" transform="translate(-82.63574 -169.81836)"/>
    <path class="cls-1" d="M315.92285,245.016a4.45834,4.45834,0,0,1,0,8.91667v17.16667h-40" transform="translate(-82.63574 -169.81836)"/>
  </g>
  <polyline class="cls-6" points="205.287 27.182 219.287 27.182 216.287 24.182"/>
  <g>
    <path class="cls-1" d="M343.92285,211.09937V218.266a4.45834,4.45834,0,0,0,0,8.91667" transform="translate(-82.63574 -169.81836)"/>
    <path class="cls-5" d="M343.92285,227.1827a4.45834,4.45834,0,0,0,0,8.91667" transform="translate(-82.63574 -169.81836)"/>
    <path class="cls-5" d="M343.92285,236.09937a4.45833,4.45833,0,1,0,0,8.91666" transform="translate(-82.63574 -169.81836)"/>
    <path class="cls-1" d="M343.92285,245.016a4.45834,4.45834,0,0,0,0,8.91667v7.16667" transform="translate(-82.63574 -169.81836)"/>
  </g>
  <polyline class="cls-1" points="261.287 91.281 261.287 101.281 290.307 101.281 301.287 101.281"/>
  <polyline class="cls-6" points="276.287 27.182 290.287 27.182 287.287 24.182"/>
  <g>
    <path d="M364.77832,185.07422a.89729.89729,0,0,1-.91113-.95947,2.17111,2.17111,0,0,1,.21582-.82764l.44336-1.187.36035-.99561a2.767,2.767,0,0,0,.21582-.86328c0-.27588-.13184-.33594-.26367-.33594-.69629,0-1.00782,1.11524-1.11621,1.51123-.04786.16748-.05957.1919-.21582.1919-.05957,0-.17969,0-.17969-.12012,0-.06006.4082-1.84717,1.53515-1.84717a.88436.88436,0,0,1,.89942.95948,1.67878,1.67878,0,0,1-.14356.67187l-.76757,2.05078a4.05749,4.05749,0,0,0-.3125,1.15137c0,.32373.168.33594.26464.33594.69532,0,1.01954-1.15137,1.11524-1.499.04785-.18017.04785-.2041.2041-.2041.084,0,.17969,0,.17969.12012C366.30176,183.27539,365.90625,185.07422,364.77832,185.07422Zm1.0791-6.7041a.50989.50989,0,0,1-.53906-.51563.8145.8145,0,0,1,.76758-.75586.50942.50942,0,0,1,.53906.51563A.8145.8145,0,0,1,365.85742,178.37012Z" transform="translate(-82.63574 -169.81836)"/>
    <path d="M368.958,188.93848h-2.59278c0-.168,0-.18164.07715-.25879l1.3418-1.49512a2.50676,2.50676,0,0,0,.7334-1.54492c0-.57276-.30078-1.13867-.93653-1.13867a1.00791,1.00791,0,0,0-.94335.7124.274.274,0,0,1,.09082-.00684.35306.35306,0,0,1,.37011.36328.36712.36712,0,1,1-.7334-.021,1.29151,1.29151,0,0,1,1.30665-1.26465,1.37272,1.37272,0,0,1,1.48144,1.35547c0,.69922-.41894,1.07666-1.50879,2.041l-.74121.71973h1.25781a.56046.56046,0,0,0,.81739-.67773h.1748Z" transform="translate(-82.63574 -169.81836)"/>
  </g>
  <circle class="cls-7" cx="226.28711" cy="48.28101" r="1"/>
  <circle class="cls-7" cx="268.28711" cy="48.28101" r="1"/>
  <line class="cls-2" x1="191.323" y1="41.28101" x2="196.323" y2="41.28101"/>
  <line class="cls-2" x1="193.823" y1="43.78101" x2="193.823" y2="38.78101"/>
  <line class="cls-2" x1="191.323" y1="91.28101" x2="196.323" y2="91.28101"/>
  <g>
    <path d="M275.75977,237.1416a1.34291,1.34291,0,0,1-1.47461-1.43945,7.62535,7.62535,0,0,1,.61132-2.30274,3.53307,3.53307,0,0,0,.28809-1.0791c0-.3125-.13184-.34765-.26367-.34765-.69629,0-1.01953,1.13867-1.11621,1.51074-.04785.168-.05957.19238-.21582.19238-.05957,0-.17969,0-.17969-.12012,0-.07226.41992-1.84765,1.53516-1.84765a.89849.89849,0,0,1,.91113.97168,1.88337,1.88337,0,0,1-.13184.59961,9.06577,9.06577,0,0,0-.707,2.60254c0,.39648.13184.99609.7793.99609,1.3789,0,1.94336-3.01074,1.94336-3.34668a1.35138,1.35138,0,0,0-.32422-.94727.46356.46356,0,0,1-.15625-.32421.617.617,0,0,1,.57617-.55176c.34766,0,.49121.37207.49121.792C278.32617,232.81152,277.77441,237.1416,275.75977,237.1416Z" transform="translate(-82.63574 -169.81836)"/>
    <path d="M279.72949,240.98438c-.27929,0-.88672,0-1.13183.02148v-.2168h.22363c.62891,0,.65039-.084.65039-.33593V236.833a2.08575,2.08575,0,0,1-.916.18262v-.2168a1.7282,1.7282,0,0,0,1.27247-.44727c.16015,0,.16015.01367.16015.18164v3.91993c0,.25878.02149.33593.65039.33593h.22363v.2168C280.61719,240.98438,280.00977,240.98438,279.72949,240.98438Z" transform="translate(-82.63574 -169.81836)"/>
  </g>
  <g>
    <path d="M308.84961,235.21484l-.91113,2.57911c-.07227.20312-.084.21582-.34766.21582H302.457c-.1914,0-.2998,0-.2998-.14454,0-.22753.13183-.22753.32422-.22753.81543,0,.88769-.09571.98339-.50391l1.61914-6.51172a.74.74,0,0,0,.04786-.22852c0-.2041-.32422-.2041-.69532-.2041-.22851,0-.32422,0-.32422-.14355,0-.22754.15625-.22754.22754-.22754.48047,0,.9834.03613,1.47559.03613.55176,0,1.11523-.03613,1.65527-.03613.04785,0,.17969,0,.17969.14355,0,.22754-.13184.22754-.33594.22754h-.12011c-.97071,0-1.043.12012-1.15137.54l-1.63086,6.52442a2.10941,2.10941,0,0,0-.04785.26367c0,.084,0,.12012.37207.12012h.9707c1.8711,0,2.38672-1.39161,2.77051-2.459.084-.22754.09668-.26367.24023-.26367.03614,0,.17969,0,.17969.14453Z" transform="translate(-82.63574 -169.81836)"/>
    <path d="M310.7334,241.98438c-.2793,0-.88672,0-1.13184.02148v-.2168h.22364c.6289,0,.65039-.084.65039-.33593V237.833a2.08577,2.08577,0,0,1-.916.18262v-.2168a1.72818,1.72818,0,0,0,1.27246-.44727c.16016,0,.16016.01367.16016.18164v3.91993c0,.25878.02148.33593.65039.33593h.22363v.2168C311.62109,241.98438,311.01367,241.98438,310.7334,241.98438Z" transform="translate(-82.63574 -169.81836)"/>
  </g>
  <g>
    <path d="M356.31445,235.21484l-.91211,2.57911c-.07226.20312-.084.21582-.34765.21582h-5.13281c-.19239,0-.30079,0-.30079-.14454,0-.22753.13282-.22753.32422-.22753.81543,0,.8877-.09571.9834-.50391l1.61914-6.51172a.7401.7401,0,0,0,.04785-.22852c0-.2041-.32422-.2041-.69531-.2041-.22851,0-.32422,0-.32422-.14355,0-.22754.15625-.22754.22852-.22754.47949,0,.98242.03613,1.47461.03613.55175,0,1.11523-.03613,1.65527-.03613.04785,0,.17969,0,.17969.14355,0,.22754-.13184.22754-.335.22754h-.1211c-.9707,0-1.043.12012-1.15039.54l-1.63086,6.52442a1.95059,1.95059,0,0,0-.04882.26367c0,.084,0,.12012.37207.12012h.97168c1.87109,0,2.38671-1.39161,2.76953-2.459.084-.22754.09668-.26367.24023-.26367.03613,0,.17969,0,.17969.14453Z" transform="translate(-82.63574 -169.81836)"/>
    <path d="M359.34375,242.00586H356.752c0-.168,0-.18164.07618-.25879l1.34179-1.49512a2.50288,2.50288,0,0,0,.73438-1.54492c0-.57324-.30078-1.13867-.9375-1.13867a1.00833,1.00833,0,0,0-.94336.71191.27808.27808,0,0,1,.09179-.00683.3528.3528,0,0,1,.36915.36328.36665.36665,0,1,1-.73243-.02051,1.29055,1.29055,0,0,1,1.30664-1.26465,1.37214,1.37214,0,0,1,1.48047,1.35547c0,.69922-.418,1.07617-1.50879,2.041l-.74121.71972h1.25782a2.24777,2.24777,0,0,0,.66406-.05664,2.28571,2.28571,0,0,0,.15429-.62109h.17383Z" transform="translate(-82.63574 -169.81836)"/>
  </g>
  <g>
    <g>
      <path d="M89.17188,304.0791c-.35987.85156-.86329,1.34278-1.583,1.34278a1.37583,1.37583,0,0,1-1.36719-.76758,1.30315,1.30315,0,0,1-1.16357.76758,1.785,1.785,0,0,1-1.12745-.3711,1.44578,1.44578,0,0,1-.40771-1.10351,6.00069,6.00069,0,0,1,.59961-2.26661,3.53765,3.53765,0,0,0,.28808-1.08007c0-.31153-.13183-.34766-.26367-.34766-.6958,0-1.01953,1.13965-1.11572,1.51172-.04785.168-.06006.1914-.21582.1914-.06006,0-.17969,0-.17969-.12011,0-.07129.41944-1.84668,1.53516-1.84668a.89849.89849,0,0,1,.91113.97168,1.74748,1.74748,0,0,1-.14355.63574,8.30378,8.30378,0,0,0-.6836,2.51855c0,.15528,0,1.043.83936,1.043.63574,0,1.00732-.99511,1.00732-1.127a3.03372,3.03372,0,0,1,.09619-.75586l.6836-2.73437a.4809.4809,0,0,1,.45556-.41993.31443.31443,0,0,1,.33594.31153c0,.04785-.12012.52832-.19189.792l-.50391,2.01465a3.904,3.904,0,0,0-.14355.92383c0,.5039.19189.99511.7915.99511.55176,0,.93555-.49121,1.19922-1.11523a9.16859,9.16859,0,0,0,.58789-2.23047,1.355,1.355,0,0,0-.32422-.94824.46083.46083,0,0,1-.15576-.32324.61606.61606,0,0,1,.57568-.55176c.34766,0,.4917.37207.4917.792A12.64732,12.64732,0,0,1,89.17188,304.0791Z" transform="translate(-82.63574 -169.81836)"/>
      <path d="M102.14307,301.36816H94.9834c-.18018,0-.4082,0-.4082-.23925,0-.24024.228-.24024.396-.24024h7.18408c.168,0,.396,0,.396.24024C102.55127,301.36816,102.32324,301.36816,102.14307,301.36816Zm.0122,2.32715H94.97119c-.168,0-.396,0-.396-.24023,0-.23926.228-.23926.4082-.23926h7.15967c.18017,0,.4082,0,.4082.23926C102.55127,303.69531,102.32324,303.69531,102.15527,303.69531Z" transform="translate(-82.63574 -169.81836)"/>
    </g>
    <path d="M112.22266,298.5459c-.55957,0-1.77832,0-2.26856.042v-.43359h.44824c1.26075,0,1.30274-.16895,1.30274-.67285v-7.25586a4.19461,4.19461,0,0,1-1.835.36425v-.43457a3.45951,3.45951,0,0,0,2.54883-.89648c.32226,0,.32226.02832.32226.36426v7.8584c0,.51855.042.67285,1.30274.67285h.44824v.43359C114.002,298.5459,112.7832,298.5459,112.22266,298.5459Z" transform="translate(-82.63574 -169.81836)"/>
    <path d="M114.52051,314.58789h-5.19727c0-.33594,0-.36426.1543-.51758l2.68945-2.998a5.01552,5.01552,0,0,0,1.47071-3.09571c0-1.14843-.60254-2.2832-1.877-2.2832a2.02,2.02,0,0,0-1.89062,1.42871.54514.54514,0,0,1,.18164-.01367.70877.70877,0,0,1,.74219.72851.73615.73615,0,1,1-1.47071-.042,2.58879,2.58879,0,0,1,2.61914-2.53613,2.7521,2.7521,0,0,1,2.96973,2.71777c0,1.40039-.83984,2.15723-3.02539,4.08985l-1.48438,1.44336h2.52149a4.55059,4.55059,0,0,0,1.33008-.11231,4.59327,4.59327,0,0,0,.30859-1.24707h.34961Z" transform="translate(-82.63574 -169.81836)"/>
    <line class="cls-8" x1="23.48755" y1="132.78101" x2="35.48755" y2="132.78101"/>
    <g>
      <path d="M126.95215,302.93457l-.91113,2.57813c-.07227.2041-.084.21582-.34766.21582h-5.13379c-.19141,0-.2998,0-.2998-.14356,0-.22754.13183-.22754.32421-.22754.81543,0,.8877-.09668.9834-.5039l1.61914-6.5127a.73686.73686,0,0,0,.04786-.22754c0-.2041-.32422-.2041-.69532-.2041-.22851,0-.32422,0-.32422-.14355,0-.22852.15625-.22852.22754-.22852.48047,0,.9834.03613,1.47559.03613.55176,0,1.11523-.03613,1.65527-.03613.04785,0,.17969,0,.17969.14453,0,.22754-.13184.22754-.33594.22754h-.12011c-.97071,0-1.043.12012-1.15137.54l-1.63086,6.52441a2.04724,2.04724,0,0,0-.04785.26367c0,.084,0,.12012.37207.12012h.9707c1.87109,0,2.38672-1.3916,2.77051-2.459.084-.22754.09668-.26367.24023-.26367.03614,0,.17969,0,.17969.14355Z" transform="translate(-82.63574 -169.81836)"/>
      <path d="M128.83594,309.7041c-.2793,0-.88672,0-1.13184.02051v-.2168h.22363c.62891,0,.6504-.083.6504-.335v-3.62012a2.09776,2.09776,0,0,1-.916.18165v-.2168a1.72818,1.72818,0,0,0,1.27246-.44727c.16016,0,.16016.01465.16016.18164v3.9209c0,.25879.02148.335.65039.335h.22363v.2168C129.72363,309.7041,129.11621,309.7041,128.83594,309.7041Z" transform="translate(-82.63574 -169.81836)"/>
      <path d="M132.98535,305.86035a.89769.89769,0,0,1-.91211-.959,2.17092,2.17092,0,0,1,.21582-.82813l.44434-1.18652.35937-.99609a2.75988,2.75988,0,0,0,.21582-.86329c0-.27539-.13183-.33593-.26367-.33593-.69531,0-1.00781,1.11523-1.11523,1.51172-.04785.168-.06055.1914-.21582.1914-.06055,0-.17969,0-.17969-.12012,0-.05957.40723-1.84668,1.53516-1.84668a.8842.8842,0,0,1,.89941.959,1.68161,1.68161,0,0,1-.14453.67187l-.76758,2.05079a4.09249,4.09249,0,0,0-.31152,1.15136c0,.32422.168.33594.26367.33594.69531,0,1.01953-1.15137,1.11523-1.499.04786-.17969.04786-.20411.20411-.20411.084,0,.17968,0,.17968.12012C134.50781,304.06152,134.1123,305.86035,132.98535,305.86035Zm1.0791-6.7041a.51073.51073,0,0,1-.54-.51562.8145.8145,0,0,1,.76758-.75586.51023.51023,0,0,1,.54.51562A.8145.8145,0,0,1,134.06445,299.15625Z" transform="translate(-82.63574 -169.81836)"/>
      <path d="M136.01855,309.7041c-.27929,0-.88769,0-1.13183.02051v-.2168h.22363c.62891,0,.64942-.083.64942-.335v-3.62012a2.09189,2.09189,0,0,1-.915.18165v-.2168a1.72618,1.72618,0,0,0,1.27148-.44727c.16113,0,.16113.01465.16113.18164v3.9209c0,.25879.02051.335.64942.335h.22363v.2168C136.90625,309.7041,136.29785,309.7041,136.01855,309.7041Z" transform="translate(-82.63574 -169.81836)"/>
      <path d="M140.66309,301.73242h-2.59278c0-.167,0-.18164.07617-.25879l1.3418-1.49511a2.50291,2.50291,0,0,0,.73438-1.54395c0-.57324-.30078-1.13965-.93653-1.13965a1.00752,1.00752,0,0,0-.94336.71289.26771.26771,0,0,1,.09082-.00683.35364.35364,0,0,1,.37012.36328.36712.36712,0,1,1-.7334-.02149,1.29116,1.29116,0,0,1,1.30664-1.26464,1.37318,1.37318,0,0,1,1.48145,1.35644c0,.69824-.41895,1.07617-1.50977,2.04l-.74023.71973h1.25781a2.29238,2.29238,0,0,0,.66406-.05567,2.3242,2.3242,0,0,0,.15332-.62207h.17481Z" transform="translate(-82.63574 -169.81836)"/>
      <path d="M153.46582,302.9707h-3.34668v3.35743c0,.168,0,.39648-.23926.39648-.24023,0-.24023-.22852-.24023-.39648V302.9707h-3.3584c-.168,0-.39551,0-.39551-.24023s.22754-.24024.39551-.24024h3.3584v-3.35742c0-.168,0-.39648.24023-.39648.23926,0,.23926.22851.23926.39648v3.35742h3.34668c.168,0,.39551,0,.39551.24024S153.63379,302.9707,153.46582,302.9707Z" transform="translate(-82.63574 -169.81836)"/>
    </g>
    <path d="M164.22266,298.5459c-.55957,0-1.77832,0-2.26856.042v-.43359h.44824c1.26075,0,1.30274-.16895,1.30274-.67285v-7.25586a4.19461,4.19461,0,0,1-1.835.36425v-.43457a3.45951,3.45951,0,0,0,2.54883-.89648c.32226,0,.32226.02832.32226.36426v7.8584c0,.51855.042.67285,1.30274.67285h.44824v.43359C166.002,298.5459,164.7832,298.5459,164.22266,298.5459Z" transform="translate(-82.63574 -169.81836)"/>
    <path d="M166.52051,314.58789h-5.19727c0-.33594,0-.36426.1543-.51758l2.68945-2.998a5.01552,5.01552,0,0,0,1.47071-3.09571c0-1.14843-.60254-2.2832-1.877-2.2832a2.02,2.02,0,0,0-1.89062,1.42871.54514.54514,0,0,1,.18164-.01367.70877.70877,0,0,1,.74219.72851.73615.73615,0,1,1-1.47071-.042,2.58879,2.58879,0,0,1,2.61914-2.53613,2.7521,2.7521,0,0,1,2.96973,2.71777c0,1.40039-.83984,2.15723-3.02539,4.08985l-1.48438,1.44336h2.52149a4.55059,4.55059,0,0,0,1.33008-.11231,4.59327,4.59327,0,0,0,.30859-1.24707h.34961Z" transform="translate(-82.63574 -169.81836)"/>
    <line class="cls-8" x1="75.48755" y1="132.78101" x2="87.48755" y2="132.78101"/>
    <g>
      <path d="M180.95215,302.93457l-.91162,2.57813c-.07178.2041-.084.21582-.34766.21582h-5.1333c-.19189,0-.2998,0-.2998-.14356,0-.22754.13183-.22754.32373-.22754.81543,0,.88769-.09668.98339-.5039l1.61915-6.5127a.737.737,0,0,0,.04785-.22754c0-.2041-.32373-.2041-.69532-.2041-.228,0-.32373,0-.32373-.14355,0-.22852.15577-.22852.22754-.22852.48,0,.9834.03613,1.4751.03613.55176,0,1.11572-.03613,1.65527-.03613.04786,0,.18018,0,.18018.14453,0,.22754-.13232.22754-.33594.22754h-.12011c-.9712,0-1.04346.12012-1.15137.54l-1.63086,6.52441a1.96807,1.96807,0,0,0-.04834.26367c0,.084,0,.12012.37207.12012h.97119c1.87109,0,2.38672-1.3916,2.77051-2.459.084-.22754.09619-.26367.24023-.26367.03565,0,.17969,0,.17969.14355Z" transform="translate(-82.63574 -169.81836)"/>
      <path d="M183.98242,309.72461h-2.59277c0-.167,0-.18164.07666-.25879l1.3418-1.49512a2.50484,2.50484,0,0,0,.73388-1.54394c0-.57324-.30078-1.13965-.93652-1.13965a1.008,1.008,0,0,0-.94336.71289.27071.27071,0,0,1,.09082-.00684.35335.35335,0,0,1,.37012.36329.36712.36712,0,1,1-.7334-.02149,1.2915,1.2915,0,0,1,1.30664-1.26465,1.37318,1.37318,0,0,1,1.48144,1.35645c0,.69824-.41894,1.07617-1.50927,2.04l-.74073.71972h1.25782a.56028.56028,0,0,0,.81738-.67773h.1748Z" transform="translate(-82.63574 -169.81836)"/>
      <path d="M186.98486,305.86035a.89758.89758,0,0,1-.91162-.959,2.17092,2.17092,0,0,1,.21582-.82813l.44385-1.18652.35986-.99609a2.75988,2.75988,0,0,0,.21582-.86329c0-.27539-.13183-.33593-.26367-.33593-.6958,0-1.00781,1.11523-1.11572,1.51172-.04785.168-.06006.1914-.21582.1914-.06006,0-.17969,0-.17969-.12012,0-.05957.40772-1.84668,1.53516-1.84668a.884.884,0,0,1,.89941.959,1.67938,1.67938,0,0,1-.144.67187l-.76758,2.05079a4.07586,4.07586,0,0,0-.31152,1.15136c0,.32422.16748.33594.26367.33594.69531,0,1.01953-1.15137,1.11523-1.499.04786-.17969.04786-.20411.20411-.20411.084,0,.17968,0,.17968.12012C188.50781,304.06152,188.1123,305.86035,186.98486,305.86035Zm1.0791-6.7041a.51031.51031,0,0,1-.53955-.51562.8145.8145,0,0,1,.76758-.75586.51008.51008,0,0,1,.53955.51562A.8145.8145,0,0,1,188.064,299.15625Z" transform="translate(-82.63574 -169.81836)"/>
      <path d="M191.16455,309.72461h-2.59277c0-.167,0-.18164.07666-.25879l1.34179-1.49512a2.5048,2.5048,0,0,0,.73389-1.54394c0-.57324-.30078-1.13965-.93652-1.13965a1.008,1.008,0,0,0-.94336.71289.27068.27068,0,0,1,.09082-.00684.35335.35335,0,0,1,.37012.36329.36712.36712,0,1,1-.7334-.02149,1.2915,1.2915,0,0,1,1.30664-1.26465,1.37318,1.37318,0,0,1,1.48144,1.35645c0,.69824-.41894,1.07617-1.50927,2.04l-.74073.71972h1.25782a.56062.56062,0,0,0,.81787-.67773h.17431Z" transform="translate(-82.63574 -169.81836)"/>
      <path d="M194.6626,301.73242h-2.59278c0-.167,0-.18164.07666-.25879l1.3418-1.49511a2.50485,2.50485,0,0,0,.73389-1.54395c0-.57324-.30078-1.13965-.93653-1.13965a1.00795,1.00795,0,0,0-.94335.71289.271.271,0,0,1,.09082-.00683.35335.35335,0,0,1,.37011.36328.36712.36712,0,1,1-.7334-.02149,1.29149,1.29149,0,0,1,1.30664-1.26464,1.37318,1.37318,0,0,1,1.48145,1.35644c0,.69824-.41895,1.07617-1.50928,2.04l-.74072.71973h1.25781a.56062.56062,0,0,0,.81787-.67774h.17432Z" transform="translate(-82.63574 -169.81836)"/>
      <path d="M207.46533,302.9707h-3.34619v3.35743c0,.168,0,.39648-.23975.39648s-.23974-.22852-.23974-.39648V302.9707h-3.3584c-.168,0-.39551,0-.39551-.24023s.22754-.24024.39551-.24024h3.3584v-3.35742c0-.168,0-.39648.23974-.39648s.23975.22851.23975.39648v3.35742h3.34619c.168,0,.396,0,.396.24024S207.6333,302.9707,207.46533,302.9707Z" transform="translate(-82.63574 -169.81836)"/>
      <path d="M222.38037,305.72852c-.44385,0-.93555-.03614-1.39111-.03614s-.92334.03614-1.36719.03614a.1436.1436,0,0,1-.168-.14356c0-.22754.13184-.22754.32373-.22754.81543,0,.8877-.09668.9834-.5039l1.69141-6.78809h-.01221l-4.47363,7.44727c-.07178.13183-.13184.21582-.2876.21582-.18018,0-.18018-.084-.2041-.28711l-.73145-7.26856h-.0122l-1.59473,6.36817a1.141,1.141,0,0,0-.04834.2998c0,.18066.02392.49219.70752.5166.144,0,.228.01172.228.15528,0,.21582-.144.21582-.21582.21582-.37159,0-.79151-.03614-1.1753-.03614-.37207,0-.77978.03614-1.13965.03614-.084,0-.15576-.03614-.15576-.14356,0-.21582.13184-.22754.228-.22754a1.0621,1.0621,0,0,0,1.16309-.83984l1.53515-6.17676a.73038.73038,0,0,0,.04834-.22754c0-.2041-.32422-.2041-.6958-.2041-.228,0-.32373,0-.32373-.14355,0-.22852.13184-.22852.32373-.22852h1.59522c.28759,0,.31152,0,.33593.26367l.67139,6.72852,4.07764-6.77637c.13232-.21582.168-.21582.43213-.21582h1.53515c.20362,0,.29981,0,.29981.15625,0,.21582-.10791.21582-.35987.21582-.75586,0-.85156.0957-.94775.47949l-1.61914,6.48828a1.21316,1.21316,0,0,0-.04785.27637c0,.10742,0,.2041.6958.2041.23974,0,.32373,0,.32373.15528C222.6084,305.72852,222.46436,305.72852,222.38037,305.72852Z" transform="translate(-82.63574 -169.81836)"/>
      <path d="M225.75635,305.86035a.89757.89757,0,0,1-.91162-.959,2.17092,2.17092,0,0,1,.21582-.82813l.44384-1.18652.35987-.99609a2.76015,2.76015,0,0,0,.21582-.86329c0-.27539-.13184-.33593-.26367-.33593-.6958,0-1.00782,1.11523-1.11573,1.51172-.04785.168-.06005.1914-.21582.1914-.06006,0-.17968,0-.17968-.12012,0-.05957.40771-1.84668,1.53515-1.84668a.884.884,0,0,1,.89942.959,1.67943,1.67943,0,0,1-.144.67187l-.76757,2.05079a4.07559,4.07559,0,0,0-.31153,1.15136c0,.32422.16748.33594.26367.33594.69532,0,1.01953-1.15137,1.11524-1.499.04785-.17969.04785-.20411.2041-.20411.084,0,.17969,0,.17969.12012C227.2793,304.06152,226.88379,305.86035,225.75635,305.86035Zm1.0791-6.7041a.5103.5103,0,0,1-.53955-.51562.8145.8145,0,0,1,.76758-.75586.51009.51009,0,0,1,.53955.51562A.8145.8145,0,0,1,226.83545,299.15625Z" transform="translate(-82.63574 -169.81836)"/>
      <path d="M228.78955,309.7041c-.2793,0-.88721,0-1.13184.02051v-.2168h.22364c.6289,0,.6499-.083.6499-.335v-3.62012a2.0937,2.0937,0,0,1-.91553.18165v-.2168a1.7272,1.7272,0,0,0,1.272-.44727c.16064,0,.16064.01465.16064.18164v3.9209c0,.25879.021.335.6499.335h.22364v.2168C229.67725,309.7041,229.06934,309.7041,228.78955,309.7041Z" transform="translate(-82.63574 -169.81836)"/>
      <path d="M232.93848,305.86035a.89728.89728,0,0,1-.91162-.959,2.17092,2.17092,0,0,1,.21582-.82813l.44384-1.18652.35987-.99609a2.76015,2.76015,0,0,0,.21582-.86329c0-.27539-.13184-.33593-.26367-.33593-.69581,0-1.00782,1.11523-1.11573,1.51172-.04785.168-.06006.1914-.21582.1914-.06006,0-.17969,0-.17969-.12012,0-.05957.40772-1.84668,1.53516-1.84668a.88421.88421,0,0,1,.89942.959,1.67943,1.67943,0,0,1-.144.67187l-.76758,2.05079a4.079,4.079,0,0,0-.312,1.15136c0,.32422.168.33594.26416.33594.6958,0,1.01953-1.15137,1.11524-1.499.04785-.17969.04785-.20411.2041-.20411.084,0,.17969,0,.17969.12012C234.46143,304.06152,234.06592,305.86035,232.93848,305.86035Zm1.0791-6.7041a.5103.5103,0,0,1-.53955-.51562.8145.8145,0,0,1,.76758-.75586.51009.51009,0,0,1,.53955.51562A.8145.8145,0,0,1,234.01758,299.15625Z" transform="translate(-82.63574 -169.81836)"/>
      <path d="M237.11768,309.72461H234.5249c0-.167,0-.18164.07666-.25879l1.3418-1.49512a2.5048,2.5048,0,0,0,.73389-1.54394c0-.57324-.30079-1.13965-.93653-1.13965a1.008,1.008,0,0,0-.94336.71289.27071.27071,0,0,1,.09082-.00684.35335.35335,0,0,1,.37012.36329.36712.36712,0,1,1-.7334-.02149,1.2915,1.2915,0,0,1,1.30664-1.26465,1.37318,1.37318,0,0,1,1.48145,1.35645c0,.69824-.419,1.07617-1.50928,2.04l-.74072.71972h1.25781a.56062.56062,0,0,0,.81787-.67773h.17432Z" transform="translate(-82.63574 -169.81836)"/>
    </g>
  </g>
  <g>
    <g>
      <path d="M257.48242,303.0791c-.36035.85156-.86328,1.34278-1.583,1.34278a1.37535,1.37535,0,0,1-1.36718-.76758,1.30426,1.30426,0,0,1-1.16407.76758,1.78467,1.78467,0,0,1-1.12695-.3711,1.44617,1.44617,0,0,1-.4082-1.10351,6.00069,6.00069,0,0,1,.59961-2.26661,3.53765,3.53765,0,0,0,.28808-1.08007c0-.31153-.13183-.34766-.26367-.34766-.69531,0-1.01953,1.13965-1.11523,1.51172-.04785.168-.06055.1914-.21582.1914-.06055,0-.17969,0-.17969-.12011,0-.07129.41894-1.84668,1.53516-1.84668a.89849.89849,0,0,1,.91113.97168,1.7473,1.7473,0,0,1-.14356.63574,8.30372,8.30372,0,0,0-.68359,2.51855c0,.15528,0,1.043.83887,1.043.63574,0,1.00781-.99511,1.00781-1.127a3.02779,3.02779,0,0,1,.0957-.75586l.6836-2.73437a.482.482,0,0,1,.45605-.41993.31473.31473,0,0,1,.33594.31153c0,.04785-.12012.52832-.19238.792l-.50391,2.01465a3.90423,3.90423,0,0,0-.14356.92383c0,.5039.19239.99511.792.99511.55175,0,.93554-.49121,1.19922-1.11523a9.16859,9.16859,0,0,0,.58789-2.23047,1.355,1.355,0,0,0-.32422-.94824.45927.45927,0,0,1-.15625-.32324.61613.61613,0,0,1,.57617-.55176c.34766,0,.49121.37207.49121.792A12.66417,12.66417,0,0,1,257.48242,303.0791Z" transform="translate(-82.63574 -169.81836)"/>
      <path d="M270.45313,300.36816H263.294c-.18067,0-.40821,0-.40821-.23925,0-.24024.22754-.24024.39551-.24024h7.18457c.168,0,.39551,0,.39551.24024C270.86133,300.36816,270.63379,300.36816,270.45313,300.36816Zm.01269,2.32715h-7.18457c-.168,0-.39551,0-.39551-.24023,0-.23926.22754-.23926.40821-.23926h7.15918c.18066,0,.4082,0,.4082.23926C270.86133,302.69531,270.63379,302.69531,270.46582,302.69531Z" transform="translate(-82.63574 -169.81836)"/>
    </g>
    <path d="M280.5332,297.5459c-.55957,0-1.77929,0-2.26953.042v-.43359h.44824c1.26172,0,1.30372-.16895,1.30372-.67285v-7.25586a4.19828,4.19828,0,0,1-1.83594.36425v-.43457a3.46148,3.46148,0,0,0,2.5498-.89648c.32227,0,.32227.02832.32227.36426v7.8584c0,.51855.042.67285,1.30273.67285h.44824v.43359C282.3125,297.5459,281.09375,297.5459,280.5332,297.5459Z" transform="translate(-82.63574 -169.81836)"/>
    <path d="M282.83105,313.58789h-5.19726c0-.33594,0-.36426.1543-.51758l2.68945-2.998a5.01551,5.01551,0,0,0,1.4707-3.09571c0-1.14843-.60254-2.2832-1.877-2.2832a2.02115,2.02115,0,0,0-1.8916,1.42871.54877.54877,0,0,1,.18261-.01367.70876.70876,0,0,1,.74219.72851.73615.73615,0,1,1-1.4707-.042,2.58814,2.58814,0,0,1,2.61914-2.53613,2.7521,2.7521,0,0,1,2.96973,2.71777c0,1.40039-.83985,2.15723-3.02539,4.08985l-1.48536,1.44336h2.52247a4.55052,4.55052,0,0,0,1.33007-.11231,4.59323,4.59323,0,0,0,.3086-1.24707h.34961Z" transform="translate(-82.63574 -169.81836)"/>
    <line class="cls-8" x1="191.79761" y1="131.78101" x2="203.79761" y2="131.78101"/>
    <g>
      <path d="M295.2627,301.93457l-.91211,2.57813c-.07129.2041-.084.21582-.34766.21582h-5.13281c-.19239,0-.29981,0-.29981-.14356,0-.22754.13184-.22754.32324-.22754.81543,0,.8877-.09668.9834-.5039l1.61914-6.5127a.73686.73686,0,0,0,.04786-.22754c0-.2041-.32325-.2041-.69532-.2041-.22754,0-.32324,0-.32324-.14355,0-.22852.15527-.22852.22754-.22852.47949,0,.9834.03613,1.47461.03613.55176,0,1.11621-.03613,1.65527-.03613.04785,0,.18067,0,.18067.14453,0,.22754-.13282.22754-.33594.22754h-.12012c-.97168,0-1.04394.12012-1.15137.54l-1.63085,6.52441a1.895,1.895,0,0,0-.04883.26367c0,.084,0,.12012.37207.12012h.97168c1.87109,0,2.38672-1.3916,2.77051-2.459.084-.22754.0957-.26367.24023-.26367.03516,0,.17969,0,.17969.14355Z" transform="translate(-82.63574 -169.81836)"/>
      <path d="M297.14648,308.7041c-.27929,0-.88769,0-1.13183.02051v-.2168h.22363c.62891,0,.64942-.083.64942-.335v-3.62012a2.09191,2.09191,0,0,1-.915.18165v-.2168a1.72618,1.72618,0,0,0,1.27148-.44727c.16113,0,.16113.01465.16113.18164v3.9209c0,.25879.02051.335.64942.335h.22363v.2168C298.03418,308.7041,297.42578,308.7041,297.14648,308.7041Z" transform="translate(-82.63574 -169.81836)"/>
      <path d="M301.29492,304.86035a.89747.89747,0,0,1-.91113-.959,2.17092,2.17092,0,0,1,.21582-.82813l.44336-1.18652.36035-.99609a2.76015,2.76015,0,0,0,.21582-.86329c0-.27539-.13184-.33593-.26367-.33593-.69629,0-1.00781,1.11523-1.11621,1.51172-.04785.168-.05957.1914-.21582.1914-.05957,0-.17969,0-.17969-.12012,0-.05957.4082-1.84668,1.53516-1.84668a.8837.8837,0,0,1,.89941.959,1.67733,1.67733,0,0,1-.14355.67187l-.76758,2.05079a4.05944,4.05944,0,0,0-.31153,1.15136c0,.32422.167.33594.26368.33594.69531,0,1.01953-1.15137,1.11523-1.499.04785-.17969.04785-.20411.2041-.20411.084,0,.17969,0,.17969.12012C302.81836,303.06152,302.42285,304.86035,301.29492,304.86035Zm1.0791-6.7041a.50988.50988,0,0,1-.53906-.51562.8145.8145,0,0,1,.76758-.75586.51.51,0,0,1,.53906.51562A.8145.8145,0,0,1,302.374,298.15625Z" transform="translate(-82.63574 -169.81836)"/>
      <path d="M304.32813,308.7041c-.2793,0-.88672,0-1.13184.02051v-.2168h.22363c.62891,0,.65039-.083.65039-.335v-3.62012a2.0955,2.0955,0,0,1-.916.18165v-.2168a1.72819,1.72819,0,0,0,1.27246-.44727c.16015,0,.16015.01465.16015.18164v3.9209c0,.25879.02149.335.65039.335h.22364v.2168C305.21582,308.7041,304.6084,308.7041,304.32813,308.7041Z" transform="translate(-82.63574 -169.81836)"/>
      <path d="M308.97266,300.73242h-2.59278c0-.167,0-.18164.07715-.25879l1.3418-1.49511a2.50679,2.50679,0,0,0,.7334-1.54395c0-.57324-.30078-1.13965-.93653-1.13965a1.00842,1.00842,0,0,0-.94336.71289.2745.2745,0,0,1,.09082-.00683.35306.35306,0,0,1,.37012.36328.36712.36712,0,1,1-.7334-.02149,1.29182,1.29182,0,0,1,1.30664-1.26464,1.37318,1.37318,0,0,1,1.48145,1.35644c0,.69824-.419,1.07617-1.50879,2.04l-.74121.71973h1.25781a.561.561,0,0,0,.81836-.67774h.17383Z" transform="translate(-82.63574 -169.81836)"/>
      <path d="M321.77539,301.9707h-3.3457v3.35743c0,.168,0,.39648-.24024.39648-.23925,0-.23925-.22852-.23925-.39648V301.9707h-3.3584c-.168,0-.39551,0-.39551-.24023s.22754-.24024.39551-.24024h3.3584v-3.35742c0-.168,0-.39648.23925-.39648.24024,0,.24024.22851.24024.39648v3.35742h3.3457c.168,0,.39649,0,.39649.24024S321.94336,301.9707,321.77539,301.9707Z" transform="translate(-82.63574 -169.81836)"/>
    </g>
    <path d="M332.5332,297.5459c-.55957,0-1.77929,0-2.26953.042v-.43359h.44824c1.26172,0,1.30372-.16895,1.30372-.67285v-7.25586a4.19828,4.19828,0,0,1-1.83594.36425v-.43457a3.46148,3.46148,0,0,0,2.5498-.89648c.32227,0,.32227.02832.32227.36426v7.8584c0,.51855.042.67285,1.30273.67285h.44824v.43359C334.3125,297.5459,333.09375,297.5459,332.5332,297.5459Z" transform="translate(-82.63574 -169.81836)"/>
    <path d="M334.83105,313.58789h-5.19726c0-.33594,0-.36426.1543-.51758l2.68945-2.998a5.01551,5.01551,0,0,0,1.4707-3.09571c0-1.14843-.60254-2.2832-1.877-2.2832a2.02115,2.02115,0,0,0-1.8916,1.42871.54877.54877,0,0,1,.18261-.01367.70876.70876,0,0,1,.74219.72851.73615.73615,0,1,1-1.4707-.042,2.58814,2.58814,0,0,1,2.61914-2.53613,2.7521,2.7521,0,0,1,2.96973,2.71777c0,1.40039-.83985,2.15723-3.02539,4.08985l-1.48536,1.44336h2.52247a1.12406,1.12406,0,0,0,1.63867-1.35938h.34961Z" transform="translate(-82.63574 -169.81836)"/>
    <line class="cls-8" x1="243.79761" y1="131.78101" x2="255.79761" y2="131.78101"/>
    <g>
      <path d="M349.2627,301.93457l-.91211,2.57813c-.07129.2041-.084.21582-.34766.21582h-5.13281c-.19239,0-.29981,0-.29981-.14356,0-.22754.13184-.22754.32324-.22754.81543,0,.8877-.09668.9834-.5039l1.61914-6.5127a.73686.73686,0,0,0,.04786-.22754c0-.2041-.32325-.2041-.69532-.2041-.22754,0-.32324,0-.32324-.14355,0-.22852.15527-.22852.22754-.22852.47949,0,.9834.03613,1.47461.03613.55176,0,1.11621-.03613,1.65527-.03613.04785,0,.18067,0,.18067.14453,0,.22754-.13282.22754-.33594.22754h-.12012c-.97168,0-1.04394.12012-1.15137.54l-1.63085,6.52441a1.895,1.895,0,0,0-.04883.26367c0,.084,0,.12012.37207.12012h.97168c1.87109,0,2.38672-1.3916,2.77051-2.459.084-.22754.0957-.26367.24023-.26367.03516,0,.17969,0,.17969.14355Z" transform="translate(-82.63574 -169.81836)"/>
      <path d="M352.293,308.72461H349.7002c0-.167,0-.18164.07617-.25879l1.34179-1.49512a2.50287,2.50287,0,0,0,.73438-1.54394c0-.57324-.30078-1.13965-.93652-1.13965a1.0075,1.0075,0,0,0-.94336.71289.26729.26729,0,0,1,.09082-.00684.35363.35363,0,0,1,.37011.36329.36711.36711,0,1,1-.73339-.02149,1.29117,1.29117,0,0,1,1.30664-1.26465,1.37318,1.37318,0,0,1,1.48144,1.35645c0,.69824-.41894,1.07617-1.50976,2.04l-.74024.71972h1.25781a2.29289,2.29289,0,0,0,.66407-.05566,2.325,2.325,0,0,0,.15332-.62207h.1748Z" transform="translate(-82.63574 -169.81836)"/>
      <path d="M355.29492,304.86035a.89747.89747,0,0,1-.91113-.959,2.17092,2.17092,0,0,1,.21582-.82813l.44336-1.18652.36035-.99609a2.76015,2.76015,0,0,0,.21582-.86329c0-.27539-.13184-.33593-.26367-.33593-.69629,0-1.00781,1.11523-1.11621,1.51172-.04785.168-.05957.1914-.21582.1914-.05957,0-.17969,0-.17969-.12012,0-.05957.4082-1.84668,1.53516-1.84668a.8837.8837,0,0,1,.89941.959,1.67733,1.67733,0,0,1-.14355.67187l-.76758,2.05079a4.05944,4.05944,0,0,0-.31153,1.15136c0,.32422.167.33594.26368.33594.69531,0,1.01953-1.15137,1.11523-1.499.04785-.17969.04785-.20411.2041-.20411.084,0,.17969,0,.17969.12012C356.81836,303.06152,356.42285,304.86035,355.29492,304.86035Zm1.0791-6.7041a.50988.50988,0,0,1-.53906-.51562.8145.8145,0,0,1,.76758-.75586.51.51,0,0,1,.53906.51562A.8145.8145,0,0,1,356.374,298.15625Z" transform="translate(-82.63574 -169.81836)"/>
      <path d="M359.47461,308.72461h-2.59277c0-.167,0-.18164.07714-.25879l1.3418-1.49512a2.50674,2.50674,0,0,0,.7334-1.54394c0-.57324-.30078-1.13965-.93652-1.13965A1.00841,1.00841,0,0,0,357.1543,305a.274.274,0,0,1,.09082-.00684.35306.35306,0,0,1,.37011.36329.36711.36711,0,1,1-.73339-.02149,1.29182,1.29182,0,0,1,1.30664-1.26465,1.37318,1.37318,0,0,1,1.48144,1.35645c0,.69824-.41894,1.07617-1.50879,2.04l-.74121.71972h1.25781a.561.561,0,0,0,.81836-.67773h.17383Z" transform="translate(-82.63574 -169.81836)"/>
      <path d="M362.97266,300.73242h-2.59278c0-.167,0-.18164.07715-.25879l1.3418-1.49511a2.50679,2.50679,0,0,0,.7334-1.54395c0-.57324-.30078-1.13965-.93653-1.13965a1.00842,1.00842,0,0,0-.94336.71289.2745.2745,0,0,1,.09082-.00683.35306.35306,0,0,1,.37012.36328.36712.36712,0,1,1-.7334-.02149,1.29182,1.29182,0,0,1,1.30664-1.26464,1.37318,1.37318,0,0,1,1.48145,1.35644c0,.69824-.419,1.07617-1.50879,2.04l-.74121.71973h1.25781a.561.561,0,0,0,.81836-.67774h.17383Z" transform="translate(-82.63574 -169.81836)"/>
      <path d="M376.4834,302.01855h-7.21973c-.15625,0-.44433,0-.44433-.28808,0-.29981.27636-.29981.44433-.29981h7.21973c.168,0,.44336,0,.44336.29981C376.92676,302.01855,376.63965,302.01855,376.4834,302.01855Z" transform="translate(-82.63574 -169.81836)"/>
      <path d="M392.07031,304.72852c-.44336,0-.93554-.03614-1.39062-.03614-.45606,0-.92383.03614-1.36719.03614a.1436.1436,0,0,1-.168-.14356c0-.22754.13184-.22754.32324-.22754.81543,0,.8877-.09668.9834-.5039l1.69141-6.78809h-.01172l-4.47363,7.44727c-.07227.13183-.13184.21582-.28809.21582-.17969,0-.17969-.084-.2041-.28711l-.73145-7.26856h-.01171l-1.59473,6.36817a1.13033,1.13033,0,0,0-.04883.2998c0,.18066.02441.49219.708.5166.14355,0,.22754.01172.22754.15528,0,.21582-.14356.21582-.21582.21582-.3711,0-.791-.03614-1.17481-.03614-.37207,0-.78027.03614-1.13965.03614-.084,0-.15625-.03614-.15625-.14356,0-.21582.13184-.22754.22852-.22754a1.06239,1.06239,0,0,0,1.16309-.83984l1.53515-6.17676a.737.737,0,0,0,.04785-.22754c0-.2041-.32422-.2041-.69531-.2041-.22851,0-.32422,0-.32422-.14355,0-.22852.13184-.22852.32422-.22852h1.59473c.28808,0,.31152,0,.33593.26367l.67188,6.72852,4.07715-6.77637c.13281-.21582.168-.21582.43262-.21582h1.53515c.20313,0,.29981,0,.29981.15625,0,.21582-.1084.21582-.36036.21582-.75585,0-.85156.0957-.94726.47949l-1.61914,6.48828a1.21316,1.21316,0,0,0-.04785.27637c0,.10742,0,.2041.69531.2041.24023,0,.32422,0,.32422.15528C392.29883,304.72852,392.1543,304.72852,392.07031,304.72852Z" transform="translate(-82.63574 -169.81836)"/>
      <path d="M395.44629,304.86035a.89746.89746,0,0,1-.91113-.959,2.17092,2.17092,0,0,1,.21582-.82813l.44336-1.18652.36035-.99609a2.76015,2.76015,0,0,0,.21582-.86329c0-.27539-.13184-.33593-.26367-.33593-.69629,0-1.00782,1.11523-1.11621,1.51172-.04786.168-.05958.1914-.21583.1914-.05957,0-.17968,0-.17968-.12012,0-.05957.4082-1.84668,1.53515-1.84668a.8837.8837,0,0,1,.89942.959,1.6772,1.6772,0,0,1-.14356.67187l-.76758,2.05079a4.05937,4.05937,0,0,0-.31152,1.15136c0,.32422.167.33594.26367.33594.69532,0,1.01953-1.15137,1.11524-1.499.04785-.17969.04785-.20411.2041-.20411.084,0,.17969,0,.17969.12012C396.96973,303.06152,396.57422,304.86035,395.44629,304.86035Zm1.0791-6.7041a.50988.50988,0,0,1-.53906-.51562.8145.8145,0,0,1,.76758-.75586.51.51,0,0,1,.53906.51562A.8145.8145,0,0,1,396.52539,298.15625Z" transform="translate(-82.63574 -169.81836)"/>
      <path d="M398.47949,308.7041c-.27929,0-.88672,0-1.13183.02051v-.2168h.22363c.62891,0,.65039-.083.65039-.335v-3.62012a2.09553,2.09553,0,0,1-.916.18165v-.2168a1.7282,1.7282,0,0,0,1.27247-.44727c.16015,0,.16015.01465.16015.18164v3.9209c0,.25879.02149.335.65039.335h.22363v.2168C399.36719,308.7041,398.75977,308.7041,398.47949,308.7041Z" transform="translate(-82.63574 -169.81836)"/>
      <path d="M402.62891,304.86035a.89768.89768,0,0,1-.91211-.959,2.17092,2.17092,0,0,1,.21582-.82813l.44433-1.18652.35938-.99609a2.76015,2.76015,0,0,0,.21582-.86329c0-.27539-.13184-.33593-.26367-.33593-.69532,0-1.00782,1.11523-1.11524,1.51172-.04785.168-.06054.1914-.21582.1914-.06054,0-.17969,0-.17969-.12012,0-.05957.40723-1.84668,1.53516-1.84668a.8842.8842,0,0,1,.89941.959,1.68161,1.68161,0,0,1-.14453.67187l-.76757,2.05079a4.09221,4.09221,0,0,0-.31153,1.15136c0,.32422.168.33594.26367.33594.69629,0,1.01954-1.15137,1.11524-1.499.04785-.17969.04785-.20411.2041-.20411.084,0,.17969,0,.17969.12012C404.15137,303.06152,403.75586,304.86035,402.62891,304.86035Zm1.0791-6.7041a.51073.51073,0,0,1-.54-.51562.8145.8145,0,0,1,.76758-.75586.51023.51023,0,0,1,.54.51562A.8145.8145,0,0,1,403.708,298.15625Z" transform="translate(-82.63574 -169.81836)"/>
      <path d="M406.80762,308.72461h-2.59278c0-.167,0-.18164.07715-.25879l1.3418-1.49512a2.50674,2.50674,0,0,0,.7334-1.54394c0-.57324-.30078-1.13965-.93653-1.13965A1.00842,1.00842,0,0,0,404.4873,305a.27415.27415,0,0,1,.09083-.00684.35306.35306,0,0,1,.37011.36329.36712.36712,0,1,1-.7334-.02149,1.29182,1.29182,0,0,1,1.30664-1.26465,1.37318,1.37318,0,0,1,1.48145,1.35645c0,.69824-.41895,1.07617-1.50879,2.04l-.74121.71972h1.25781a.561.561,0,0,0,.81836-.67773h.17383Z" transform="translate(-82.63574 -169.81836)"/>
    </g>
  </g>
</svg>
