<?xml version="1.0" encoding="utf-8"?>
<!-- Generator: Adobe Illustrator 23.0.3, SVG Export Plug-In . SVG Version: 6.00 Build 0)  -->
<svg version="1.1" id="Layer_1" xmlns="http://www.w3.org/2000/svg" xmlns:xlink="http://www.w3.org/1999/xlink" x="0px" y="0px"
	 viewBox="0 0 324.4 144.8" style="enable-background:new 0 0 324.4 144.8;" xml:space="preserve">
<style type="text/css">
	.st0{fill:none;stroke:#8FF4DD;stroke-width:2;stroke-linecap:round;stroke-linejoin:round;}
	.st1{fill:none;stroke:#8FF4DD;stroke-width:1.5;stroke-linecap:square;}
	.st2{fill:#8FF4DD;}
	.st3{fill:none;stroke:#FD1D53;stroke-miterlimit:10;}
	.st4{fill:#FD1D53;}
	.st5{fill:none;stroke:#8FF4DD;stroke-width:2;stroke-linecap:round;}
	.st6{fill:none;stroke:#8FF4DD;stroke-width:2;stroke-linecap:square;}
	.st7{fill:#8FF4DD;stroke:#8FF4DD;stroke-width:2;}
	.st8{fill:none;stroke:#8FF4DD;stroke-width:0.5;}
</style>
<title>EnergyCoupledCircuit</title>
<polyline class="st0" points="92.3,41.3 92.3,31.3 121.3,31.3 132.3,31.3 "/>
<line class="st1" x1="129.8" y1="42.3" x2="134.8" y2="42.3"/>
<line class="st1" x1="132.3" y1="44.8" x2="132.3" y2="39.8"/>
<line class="st1" x1="129.8" y1="92.3" x2="134.8" y2="92.3"/>
<g>
	<path class="st2" d="M42.1,15.3c-0.5,0-0.9-0.4-0.9-0.9c0,0,0-0.1,0-0.1c0-0.3,0.1-0.6,0.2-0.8l0.4-1.2l0.4-1
		c0.1-0.3,0.2-0.6,0.2-0.9c0-0.3-0.1-0.3-0.3-0.3c-0.7,0-1,1.1-1.1,1.5c0,0.2-0.1,0.2-0.2,0.2c-0.1,0-0.2,0-0.2-0.1
		c0-0.1,0.4-1.8,1.5-1.8c0.5,0,0.9,0.4,0.9,0.9c0,0,0,0.1,0,0.1c0,0.2-0.1,0.5-0.1,0.7l-0.8,2.1c-0.2,0.4-0.3,0.8-0.3,1.2
		c0,0.3,0.2,0.3,0.3,0.3c0.7,0,1-1.2,1.1-1.5c0-0.2,0-0.2,0.2-0.2c0.1,0,0.2,0,0.2,0.1C43.7,13.5,43.3,15.3,42.1,15.3z M43.2,8.6
		c-0.3,0-0.5-0.2-0.5-0.5c0,0,0,0,0,0c0-0.4,0.4-0.7,0.8-0.8c0.3,0,0.5,0.2,0.5,0.5c0,0,0,0,0,0C44,8.2,43.6,8.5,43.2,8.6z"/>
	<path class="st2" d="M45.2,19.1c-0.3,0-0.9,0-1.1,0v-0.2h0.2c0.6,0,0.6-0.1,0.6-0.3v-3.6c-0.3,0.1-0.6,0.2-0.9,0.2v-0.2
		c0.5,0,0.9-0.1,1.3-0.4c0.2,0,0.2,0,0.2,0.2v3.9c0,0.3,0,0.3,0.6,0.3h0.2v0.2C46.1,19.1,45.5,19.1,45.2,19.1z"/>
</g>
<g>
	<path class="st2" d="M131.6,68.3c-0.7,0.1-1.4-0.5-1.5-1.2c0-0.1,0-0.2,0-0.2c0.1-0.8,0.3-1.6,0.6-2.3c0.2-0.3,0.2-0.7,0.3-1.1
		c0-0.3-0.1-0.3-0.3-0.3c-0.7,0-1,1.1-1.1,1.5c0,0.2-0.1,0.2-0.2,0.2c-0.1,0-0.2,0-0.2-0.1c0-0.1,0.4-1.8,1.5-1.8
		c0.5,0,0.9,0.4,0.9,0.9c0,0,0,0.1,0,0.1c0,0.2-0.1,0.4-0.1,0.6c-0.4,0.8-0.6,1.7-0.7,2.6c0,0.4,0.1,1,0.8,1c1.4,0,1.9-3,1.9-3.3
		c0-0.3-0.1-0.7-0.3-0.9c-0.1-0.1-0.1-0.2-0.2-0.3c0-0.3,0.3-0.5,0.6-0.6c0.3,0,0.5,0.4,0.5,0.8C134.2,64,133.6,68.3,131.6,68.3z"/>
	<path class="st2" d="M136.7,72.2h-2.6c0-0.2,0-0.2,0.1-0.3l1.3-1.5c0.4-0.4,0.7-1,0.7-1.5c0-0.6-0.3-1.1-0.9-1.1
		c-0.4,0-0.8,0.3-0.9,0.7c0,0,0.1,0,0.1,0c0.2,0,0.4,0.1,0.4,0.3c0,0,0,0,0,0c0,0.2-0.2,0.4-0.4,0.4s-0.4-0.2-0.4-0.4c0,0,0,0,0,0
		c0-0.7,0.6-1.3,1.3-1.3c0.8-0.1,1.4,0.5,1.5,1.3c0,0,0,0.1,0,0.1c0,0.7-0.4,1.1-1.5,2l-0.7,0.7h1.3c0.2,0,0.4,0,0.7-0.1
		c0.1-0.2,0.1-0.4,0.2-0.6h0.2L136.7,72.2z"/>
</g>
<g>
	<path class="st3" d="M64.3,24.5c0.4-7.4,6.8-13.1,14.2-12.7c6.9,0.4,12.3,5.9,12.7,12.7"/>
	<polygon class="st4" points="67.4,22.5 67,22 64.4,24.3 62.3,21.5 61.7,21.9 64.3,25.3 	"/>
	<polygon class="st4" points="88.1,22.5 88.6,22 91.2,24.3 93.3,21.5 93.8,21.9 91.3,25.3 	"/>
</g>
<path class="st2" d="M81.6,8.2c-0.4,0-0.9,0-1.4,0c-0.5,0-0.9,0-1.4,0c-0.1,0-0.2,0-0.2-0.1c0,0,0,0,0,0c0-0.2,0.1-0.2,0.3-0.2
	c0.8,0,0.9-0.1,1-0.5l1.7-6.8h0L77.2,8c-0.1,0.1-0.1,0.2-0.3,0.2c-0.2,0-0.2-0.1-0.2-0.3L76,0.6h0L74.4,7c0,0.1,0,0.2,0,0.3
	c0,0.2,0,0.5,0.7,0.5c0.1,0,0.2,0,0.2,0.2c0,0.2-0.1,0.2-0.2,0.2c-0.4,0-0.8,0-1.2,0c-0.4,0-0.8,0-1.1,0c-0.1,0-0.2,0-0.2-0.1
	c0-0.2,0.1-0.2,0.2-0.2C73.3,7.9,73.8,7.5,74,7l1.5-6.2c0-0.1,0-0.1,0-0.2c0-0.2-0.3-0.2-0.7-0.2c-0.2,0-0.3,0-0.3-0.1
	C74.5,0,74.7,0,74.8,0h1.6c0.3,0,0.3,0,0.3,0.3L77.4,7l4.1-6.8C81.7,0,81.7,0,82,0h1.5c0.2,0,0.3,0,0.3,0.2c0,0.2-0.1,0.2-0.4,0.2
	c-0.8,0-0.9,0.1-0.9,0.5l-1.6,6.5c0,0.1,0,0.2,0,0.3c0,0.1,0,0.2,0.7,0.2c0.2,0,0.3,0,0.3,0.2C81.8,8.2,81.7,8.2,81.6,8.2z"/>
<g>
	<path class="st0" d="M64.3,57.4c2.5,0,4.5-2,4.5-4.5c0-2.5-2-4.4-4.5-4.5V31.3h-40"/>
	<path class="st5" d="M64.3,57.4c2.5,0,4.5,2,4.5,4.5c0,2.5-2,4.4-4.5,4.5"/>
	<path class="st5" d="M64.3,66.3c2.5,0,4.5,2,4.5,4.5c0,2.5-2,4.5-4.5,4.5"/>
	<path class="st0" d="M64.3,75.2c2.5,0,4.5,2,4.5,4.5c0,2.5-2,4.4-4.5,4.5v17.2h-40"/>
</g>
<polyline class="st6" points="36.3,27.2 50.3,27.2 47.3,24.2 "/>
<g>
	<path class="st0" d="M92.3,41.3v7.2c-2.5,0-4.5,2-4.5,4.5c0,2.5,2,4.4,4.5,4.5"/>
	<path class="st5" d="M92.3,57.4c-2.5,0-4.5,2-4.5,4.5c0,2.5,2,4.4,4.5,4.5"/>
	<path class="st5" d="M92.3,66.3c-2.5,0-4.5,2-4.5,4.5c0,2.5,2,4.5,4.5,4.5"/>
	<path class="st0" d="M92.3,75.2c-2.5,0-4.5,2-4.5,4.5c0,2.5,2,4.4,4.5,4.5v7.2"/>
</g>
<polyline class="st0" points="92.3,91.3 92.3,101.3 121.3,101.3 132.3,101.3 "/>
<polyline class="st6" points="121.4,27.2 107.4,27.2 110.4,24.2 "/>
<g>
	<path class="st2" d="M113.1,15.3c-0.5,0-0.9-0.4-0.9-0.9c0,0,0-0.1,0-0.1c0-0.3,0.1-0.6,0.2-0.8l0.4-1.2l0.4-1
		c0.1-0.3,0.2-0.6,0.2-0.9c0-0.3-0.1-0.3-0.3-0.3c-0.7,0-1,1.1-1.1,1.5c0,0.2-0.1,0.2-0.2,0.2c-0.1,0-0.2,0-0.2-0.1
		c0-0.1,0.4-1.8,1.5-1.8c0.5,0,0.9,0.4,0.9,0.9c0,0,0,0.1,0,0.1c0,0.2,0,0.5-0.1,0.7l-0.8,2.1c-0.2,0.4-0.3,0.8-0.3,1.2
		c0,0.3,0.2,0.3,0.3,0.3c0.7,0,1-1.2,1.1-1.5c0-0.2,0-0.2,0.2-0.2c0.1,0,0.2,0,0.2,0.1C114.7,13.5,114.3,15.3,113.1,15.3z
		 M114.2,8.6c-0.3,0-0.5-0.2-0.5-0.5c0,0,0,0,0,0c0-0.4,0.4-0.7,0.8-0.8c0.3,0,0.5,0.2,0.5,0.5c0,0,0,0,0,0
		C115,8.2,114.6,8.5,114.2,8.6z"/>
	<path class="st2" d="M117.3,19.1h-2.6c0-0.2,0-0.2,0.1-0.3l1.3-1.5c0.4-0.4,0.7-1,0.7-1.5c0-0.6-0.3-1.1-0.9-1.1
		c-0.4,0-0.8,0.3-0.9,0.7c0,0,0.1,0,0.1,0c0.2,0,0.4,0.1,0.4,0.3c0,0,0,0,0,0c0,0.2-0.2,0.4-0.4,0.4c-0.2,0-0.4-0.2-0.4-0.4
		c0,0,0,0,0,0c0-0.7,0.6-1.3,1.3-1.3c0.8-0.1,1.4,0.5,1.5,1.3c0,0,0,0.1,0,0.1c0,0.7-0.4,1.1-1.5,2l-0.7,0.7h1.3
		c0.3,0.2,0.6,0.1,0.8-0.2c0.1-0.1,0.1-0.3,0-0.5h0.2L117.3,19.1z"/>
</g>
<circle class="st7" cx="57.3" cy="48.3" r="1"/>
<circle class="st7" cx="99.3" cy="48.3" r="1"/>
<line class="st1" x1="22.3" y1="41.3" x2="27.3" y2="41.3"/>
<line class="st1" x1="24.8" y1="43.8" x2="24.8" y2="38.8"/>
<line class="st1" x1="22.3" y1="91.3" x2="27.3" y2="91.3"/>
<g>
	<path class="st2" d="M24.1,67.3c-0.7,0.1-1.4-0.5-1.5-1.2c0-0.1,0-0.2,0-0.2c0.1-0.8,0.3-1.6,0.6-2.3c0.2-0.3,0.2-0.7,0.3-1.1
		c0-0.3-0.1-0.3-0.3-0.3c-0.7,0-1,1.1-1.1,1.5c0,0.2-0.1,0.2-0.2,0.2c-0.1,0-0.2,0-0.2-0.1c0-0.1,0.4-1.8,1.5-1.8
		c0.5,0,0.9,0.4,0.9,0.9c0,0,0,0.1,0,0.1c0,0.2-0.1,0.4-0.1,0.6c-0.4,0.8-0.6,1.7-0.7,2.6c0,0.4,0.1,1,0.8,1c1.4,0,1.9-3,1.9-3.3
		c0-0.3-0.1-0.7-0.3-0.9c-0.1-0.1-0.1-0.2-0.2-0.3c0-0.3,0.3-0.5,0.6-0.6c0.3,0,0.5,0.4,0.5,0.8C26.7,63,26.1,67.3,24.1,67.3z"/>
	<path class="st2" d="M28.1,71.2c-0.3,0-0.9,0-1.1,0V71h0.2c0.6,0,0.6-0.1,0.6-0.3V67c-0.3,0.1-0.6,0.2-0.9,0.2V67
		c0.5,0,0.9-0.1,1.3-0.4c0.2,0,0.2,0,0.2,0.2v3.9c0,0.3,0,0.3,0.6,0.3h0.2v0.2C29,71.2,28.4,71.2,28.1,71.2z"/>
</g>
<g>
	<path class="st2" d="M57.2,67.4L56.3,70c-0.1,0.2-0.1,0.2-0.3,0.2h-5.1c-0.2,0-0.3,0-0.3-0.1c0-0.2,0.1-0.2,0.3-0.2
		c0.8,0,0.9-0.1,1-0.5l1.6-6.5c0-0.1,0-0.2,0-0.2c0-0.2-0.3-0.2-0.7-0.2c-0.2,0-0.3,0-0.3-0.1c0-0.2,0.2-0.2,0.2-0.2
		c0.5,0,1,0,1.5,0c0.6,0,1.1,0,1.7,0c0,0,0.2,0,0.2,0.1c0,0.2-0.1,0.2-0.3,0.2h-0.1c-1,0-1,0.1-1.2,0.5l-1.6,6.5c0,0.1,0,0.2,0,0.3
		c0,0.1,0,0.1,0.4,0.1h1c1.9,0,2.4-1.4,2.8-2.5c0.1-0.2,0.1-0.3,0.2-0.3c0,0,0.2,0,0.2,0.1L57.2,67.4z"/>
	<path class="st2" d="M59.1,74.2c-0.3,0-0.9,0-1.1,0V74h0.2c0.6,0,0.7-0.1,0.7-0.3V70c-0.3,0.1-0.6,0.2-0.9,0.2V70
		c0.5,0,0.9-0.1,1.3-0.4c0.2,0,0.2,0,0.2,0.2v3.9c0,0.3,0,0.3,0.7,0.3h0.2v0.2C60,74.2,59.4,74.2,59.1,74.2z"/>
</g>
<g>
	<path class="st2" d="M103.7,67.4l-0.9,2.6c-0.1,0.2-0.1,0.2-0.3,0.2h-5.1c-0.2,0-0.3,0-0.3-0.1c0-0.2,0.1-0.2,0.3-0.2
		c0.8,0,0.9-0.1,1-0.5l1.6-6.5c0-0.1,0-0.2,0-0.2c0-0.2-0.3-0.2-0.7-0.2c-0.2,0-0.3,0-0.3-0.1c0-0.2,0.2-0.2,0.2-0.2
		c0.5,0,1,0,1.5,0c0.6,0,1.1,0,1.7,0c0,0,0.2,0,0.2,0.1c0,0.2-0.1,0.2-0.3,0.2H102c-1,0-1,0.1-1.2,0.5l-1.6,6.5c0,0.1,0,0.2,0,0.3
		c0,0.1,0,0.1,0.4,0.1h1c1.9,0,2.4-1.4,2.8-2.5c0.1-0.2,0.1-0.3,0.2-0.3c0,0,0.2,0,0.2,0.1L103.7,67.4z"/>
	<path class="st2" d="M106.7,74.2h-2.6c0-0.2,0-0.2,0.1-0.3l1.3-1.5c0.4-0.4,0.7-1,0.7-1.5c0-0.6-0.3-1.1-0.9-1.1
		c-0.4,0-0.8,0.3-0.9,0.7c0,0,0.1,0,0.1,0c0.2,0,0.4,0.1,0.4,0.3c0,0,0,0,0,0c0,0.2-0.2,0.4-0.4,0.4s-0.4-0.2-0.4-0.4c0,0,0,0,0,0
		c0-0.7,0.6-1.3,1.3-1.3c0.8-0.1,1.4,0.5,1.5,1.3c0,0,0,0.1,0,0.1c0,0.7-0.4,1.1-1.5,2l-0.7,0.7h1.3c0.2,0,0.4,0,0.7-0.1
		c0.1-0.2,0.1-0.4,0.2-0.6h0.2L106.7,74.2z"/>
</g>
<polyline class="st0" points="261.3,41.3 261.3,31.3 290.3,31.3 301.3,31.3 "/>
<line class="st1" x1="298.8" y1="42.3" x2="303.8" y2="42.3"/>
<line class="st1" x1="301.3" y1="44.8" x2="301.3" y2="39.8"/>
<line class="st1" x1="298.8" y1="92.3" x2="303.8" y2="92.3"/>
<g>
	<path class="st2" d="M211.1,15.3c-0.5,0-0.9-0.4-0.9-0.9c0,0,0-0.1,0-0.1c0-0.3,0.1-0.6,0.2-0.8l0.4-1.2l0.4-1
		c0.1-0.3,0.2-0.6,0.2-0.9c0-0.3-0.1-0.3-0.3-0.3c-0.7,0-1,1.1-1.1,1.5c0,0.2-0.1,0.2-0.2,0.2c-0.1,0-0.2,0-0.2-0.1
		c0-0.1,0.4-1.8,1.5-1.8c0.5,0,0.9,0.4,0.9,0.9c0,0,0,0.1,0,0.1c0,0.2,0,0.5-0.1,0.7l-0.8,2.1c-0.2,0.4-0.3,0.8-0.3,1.2
		c0,0.3,0.2,0.3,0.3,0.3c0.7,0,1-1.2,1.1-1.5c0-0.2,0-0.2,0.2-0.2c0.1,0,0.2,0,0.2,0.1C212.7,13.5,212.3,15.3,211.1,15.3z
		 M212.2,8.6c-0.3,0-0.5-0.2-0.5-0.5c0,0,0,0,0,0c0-0.4,0.4-0.7,0.8-0.8c0.3,0,0.5,0.2,0.5,0.5c0,0,0,0,0,0
		C213,8.2,212.6,8.5,212.2,8.6z"/>
	<path class="st2" d="M214.2,19.1c-0.3,0-0.9,0-1.1,0v-0.2h0.2c0.6,0,0.7-0.1,0.7-0.3v-3.6c-0.3,0.1-0.6,0.2-0.9,0.2v-0.2
		c0.5,0,0.9-0.1,1.3-0.4c0.2,0,0.2,0,0.2,0.2v3.9c0,0.3,0,0.3,0.7,0.3h0.2v0.2C215.1,19.1,214.5,19.1,214.2,19.1z"/>
</g>
<g>
	<path class="st2" d="M300.6,68.3c-0.7,0.1-1.4-0.5-1.5-1.2c0-0.1,0-0.2,0-0.2c0.1-0.8,0.3-1.6,0.6-2.3c0.2-0.3,0.2-0.7,0.3-1.1
		c0-0.3-0.1-0.3-0.3-0.3c-0.7,0-1,1.1-1.1,1.5c0,0.2-0.1,0.2-0.2,0.2c-0.1,0-0.2,0-0.2-0.1c0-0.1,0.4-1.8,1.5-1.8
		c0.5,0,0.9,0.4,0.9,0.9c0,0,0,0.1,0,0.1c0,0.2-0.1,0.4-0.1,0.6c-0.4,0.8-0.6,1.7-0.7,2.6c0,0.4,0.1,1,0.8,1c1.4,0,1.9-3,1.9-3.3
		c0-0.3-0.1-0.7-0.3-0.9c-0.1-0.1-0.1-0.2-0.2-0.3c0-0.3,0.3-0.5,0.6-0.6c0.3,0,0.5,0.4,0.5,0.8C303.2,64,302.6,68.3,300.6,68.3z"/>
	<path class="st2" d="M305.7,72.2h-2.6c0-0.2,0-0.2,0.1-0.3l1.3-1.5c0.4-0.4,0.7-1,0.7-1.5c0-0.6-0.3-1.1-0.9-1.1
		c-0.4,0-0.8,0.3-0.9,0.7c0,0,0.1,0,0.1,0c0.2,0,0.4,0.1,0.4,0.3c0,0,0,0,0,0c0,0.2-0.2,0.4-0.4,0.4c-0.2,0-0.4-0.2-0.4-0.4
		c0,0,0,0,0,0c0-0.7,0.6-1.3,1.3-1.3c0.8-0.1,1.4,0.5,1.5,1.3c0,0,0,0.1,0,0.1c0,0.7-0.4,1.1-1.5,2l-0.7,0.7h1.3
		c0.2,0,0.4,0,0.7-0.1c0.1-0.2,0.1-0.4,0.2-0.6h0.2L305.7,72.2z"/>
</g>
<g>
	<path class="st3" d="M233.3,24.5c0.4-7.4,6.8-13.1,14.2-12.7c6.9,0.4,12.3,5.9,12.7,12.7"/>
	<polygon class="st4" points="236.4,22.5 236,22 233.4,24.3 231.3,21.5 230.7,21.9 233.3,25.3 	"/>
	<polygon class="st4" points="257.1,22.5 257.6,22 260.2,24.3 262.3,21.5 262.8,21.9 260.3,25.3 	"/>
</g>
<path class="st2" d="M250.6,8.2c-0.4,0-0.9,0-1.4,0c-0.5,0-0.9,0-1.4,0c-0.1,0-0.2,0-0.2-0.1c0,0,0,0,0,0c0-0.2,0.1-0.2,0.3-0.2
	c0.8,0,0.9-0.1,1-0.5l1.7-6.8h0L246.2,8c-0.1,0.1-0.1,0.2-0.3,0.2c-0.2,0-0.2-0.1-0.2-0.3L245,0.6h0L243.4,7c0,0.1,0,0.2,0,0.3
	c0,0.2,0,0.5,0.7,0.5c0.1,0,0.2,0,0.2,0.2c0,0.2-0.1,0.2-0.2,0.2c-0.4,0-0.8,0-1.2,0c-0.4,0-0.8,0-1.1,0c-0.1,0-0.2,0-0.2-0.1
	c0-0.2,0.1-0.2,0.2-0.2c0.5,0.1,1.1-0.3,1.2-0.8l1.5-6.2c0-0.1,0-0.1,0-0.2c0-0.2-0.3-0.2-0.7-0.2c-0.2,0-0.3,0-0.3-0.1
	c0-0.2,0.1-0.2,0.3-0.2h1.6c0.3,0,0.3,0,0.3,0.3l0.7,6.7l4.1-6.8C250.7,0,250.7,0,251,0h1.5c0.2,0,0.3,0,0.3,0.2
	c0,0.2-0.1,0.2-0.4,0.2c-0.8,0-0.9,0.1-0.9,0.5l-1.6,6.5c0,0.1,0,0.2,0,0.3c0,0.1,0,0.2,0.7,0.2c0.2,0,0.3,0,0.3,0.2
	C250.8,8.2,250.7,8.2,250.6,8.2z"/>
<g>
	<path class="st0" d="M233.3,57.4c2.5,0,4.5-2,4.5-4.5c0-2.5-2-4.4-4.5-4.5V31.3h-40"/>
	<path class="st5" d="M233.3,57.4c2.5,0,4.5,2,4.5,4.5c0,2.5-2,4.4-4.5,4.5"/>
	<path class="st5" d="M233.3,66.3c2.5,0,4.5,2,4.5,4.5c0,2.5-2,4.5-4.5,4.5"/>
	<path class="st0" d="M233.3,75.2c2.5,0,4.5,2,4.5,4.5c0,2.5-2,4.4-4.5,4.5v17.2h-40"/>
</g>
<polyline class="st6" points="205.3,27.2 219.3,27.2 216.3,24.2 "/>
<g>
	<path class="st0" d="M261.3,41.3v7.2c-2.5,0-4.5,2-4.5,4.5c0,2.5,2,4.4,4.5,4.5"/>
	<path class="st5" d="M261.3,57.4c-2.5,0-4.5,2-4.5,4.5c0,2.5,2,4.4,4.5,4.5"/>
	<path class="st5" d="M261.3,66.3c-2.5,0-4.5,2-4.5,4.5s2,4.5,4.5,4.5c0,0,0,0,0,0"/>
	<path class="st0" d="M261.3,75.2c-2.5,0-4.5,2-4.5,4.5c0,2.5,2,4.4,4.5,4.5v7.2"/>
</g>
<polyline class="st0" points="261.3,91.3 261.3,101.3 290.3,101.3 301.3,101.3 "/>
<polyline class="st6" points="276.3,27.2 290.3,27.2 287.3,24.2 "/>
<g>
	<path class="st2" d="M282.1,15.3c-0.5,0-0.9-0.4-0.9-0.9c0,0,0-0.1,0-0.1c0-0.3,0.1-0.6,0.2-0.8l0.4-1.2l0.4-1
		c0.1-0.3,0.2-0.6,0.2-0.9c0-0.3-0.1-0.3-0.3-0.3c-0.7,0-1,1.1-1.1,1.5c0,0.2-0.1,0.2-0.2,0.2c-0.1,0-0.2,0-0.2-0.1
		c0-0.1,0.4-1.8,1.5-1.8c0.5,0,0.9,0.4,0.9,0.9c0,0,0,0.1,0,0.1c0,0.2,0,0.5-0.1,0.7l-0.8,2.1c-0.2,0.4-0.3,0.8-0.3,1.2
		c0,0.3,0.2,0.3,0.3,0.3c0.7,0,1-1.2,1.1-1.5c0-0.2,0-0.2,0.2-0.2c0.1,0,0.2,0,0.2,0.1C283.7,13.5,283.3,15.3,282.1,15.3z
		 M283.2,8.6c-0.3,0-0.5-0.2-0.5-0.5c0,0,0,0,0,0c0-0.4,0.4-0.7,0.8-0.8c0.3,0,0.5,0.2,0.5,0.5c0,0,0,0,0,0
		C284,8.2,283.6,8.5,283.2,8.6z"/>
	<path class="st2" d="M286.3,19.1h-2.6c0-0.2,0-0.2,0.1-0.3l1.3-1.5c0.4-0.4,0.7-1,0.7-1.5c0-0.6-0.3-1.1-0.9-1.1
		c-0.4,0-0.8,0.3-0.9,0.7c0,0,0.1,0,0.1,0c0.2,0,0.4,0.1,0.4,0.3c0,0,0,0,0,0c0,0.2-0.2,0.4-0.4,0.4c-0.2,0-0.4-0.2-0.4-0.4
		c0,0,0,0,0,0c0-0.7,0.6-1.3,1.3-1.3c0.8-0.1,1.4,0.5,1.5,1.3c0,0,0,0.1,0,0.1c0,0.7-0.4,1.1-1.5,2l-0.7,0.7h1.3
		c0.3,0.2,0.6,0.1,0.8-0.2c0.1-0.1,0.1-0.3,0-0.5h0.2L286.3,19.1z"/>
</g>
<circle class="st7" cx="226.3" cy="48.3" r="1"/>
<circle class="st7" cx="268.3" cy="48.3" r="1"/>
<line class="st1" x1="191.3" y1="41.3" x2="196.3" y2="41.3"/>
<line class="st1" x1="193.8" y1="43.8" x2="193.8" y2="38.8"/>
<line class="st1" x1="191.3" y1="91.3" x2="196.3" y2="91.3"/>
<g>
	<path class="st2" d="M193.1,67.3c-0.7,0.1-1.4-0.5-1.5-1.2c0-0.1,0-0.2,0-0.2c0.1-0.8,0.3-1.6,0.6-2.3c0.2-0.3,0.2-0.7,0.3-1.1
		c0-0.3-0.1-0.3-0.3-0.3c-0.7,0-1,1.1-1.1,1.5c0,0.2-0.1,0.2-0.2,0.2c-0.1,0-0.2,0-0.2-0.1c0-0.1,0.4-1.8,1.5-1.8
		c0.5,0,0.9,0.4,0.9,0.9c0,0,0,0.1,0,0.1c0,0.2-0.1,0.4-0.1,0.6c-0.4,0.8-0.6,1.7-0.7,2.6c0,0.4,0.1,1,0.8,1c1.4,0,1.9-3,1.9-3.3
		c0-0.3-0.1-0.7-0.3-0.9c-0.1-0.1-0.1-0.2-0.2-0.3c0-0.3,0.3-0.5,0.6-0.6c0.3,0,0.5,0.4,0.5,0.8C195.7,63,195.1,67.3,193.1,67.3z"/>
	<path class="st2" d="M197.1,71.2c-0.3,0-0.9,0-1.1,0V71h0.2c0.6,0,0.7-0.1,0.7-0.3V67c-0.3,0.1-0.6,0.2-0.9,0.2V67
		c0.5,0,0.9-0.1,1.3-0.4c0.2,0,0.2,0,0.2,0.2v3.9c0,0.3,0,0.3,0.7,0.3h0.2v0.2C198,71.2,197.4,71.2,197.1,71.2z"/>
</g>
<g>
	<path class="st2" d="M226.2,67.4l-0.9,2.6c-0.1,0.2-0.1,0.2-0.3,0.2h-5.1c-0.2,0-0.3,0-0.3-0.1c0-0.2,0.1-0.2,0.3-0.2
		c0.8,0,0.9-0.1,1-0.5l1.6-6.5c0-0.1,0-0.2,0-0.2c0-0.2-0.3-0.2-0.7-0.2c-0.2,0-0.3,0-0.3-0.1c0-0.2,0.2-0.2,0.2-0.2
		c0.5,0,1,0,1.5,0c0.6,0,1.1,0,1.7,0c0,0,0.2,0,0.2,0.1c0,0.2-0.1,0.2-0.3,0.2h-0.1c-1,0-1,0.1-1.2,0.5l-1.6,6.5c0,0.1,0,0.2,0,0.3
		c0,0.1,0,0.1,0.4,0.1h1c1.9,0,2.4-1.4,2.8-2.5c0.1-0.2,0.1-0.3,0.2-0.3c0,0,0.2,0,0.2,0.1L226.2,67.4z"/>
	<path class="st2" d="M228.1,74.2c-0.3,0-0.9,0-1.1,0V74h0.2c0.6,0,0.7-0.1,0.7-0.3V70c-0.3,0.1-0.6,0.2-0.9,0.2V70
		c0.5,0,0.9-0.1,1.3-0.4c0.2,0,0.2,0,0.2,0.2v3.9c0,0.3,0,0.3,0.7,0.3h0.2v0.2C229,74.2,228.4,74.2,228.1,74.2z"/>
</g>
<g>
	<path class="st2" d="M272.7,67.4l-0.9,2.6c-0.1,0.2-0.1,0.2-0.3,0.2h-5.1c-0.2,0-0.3,0-0.3-0.1c0-0.2,0.1-0.2,0.3-0.2
		c0.8,0,0.9-0.1,1-0.5l1.6-6.5c0-0.1,0-0.2,0-0.2c0-0.2-0.3-0.2-0.7-0.2c-0.2,0-0.3,0-0.3-0.1c0-0.2,0.2-0.2,0.2-0.2
		c0.5,0,1,0,1.5,0c0.6,0,1.1,0,1.7,0c0,0,0.2,0,0.2,0.1c0,0.2-0.1,0.2-0.3,0.2H271c-1,0-1,0.1-1.2,0.5l-1.6,6.5c0,0.1,0,0.2,0,0.3
		c0,0.1,0,0.1,0.4,0.1h1c1.9,0,2.4-1.4,2.8-2.5c0.1-0.2,0.1-0.3,0.2-0.3c0,0,0.2,0,0.2,0.1L272.7,67.4z"/>
	<path class="st2" d="M275.7,74.2h-2.6c0-0.2,0-0.2,0.1-0.3l1.3-1.5c0.4-0.4,0.7-1,0.7-1.5c0-0.6-0.3-1.1-0.9-1.1
		c-0.4,0-0.8,0.3-0.9,0.7c0,0,0.1,0,0.1,0c0.2,0,0.4,0.1,0.4,0.3c0,0,0,0,0,0c0,0.2-0.2,0.4-0.4,0.4c-0.2,0-0.4-0.2-0.4-0.4
		c0,0,0,0,0,0c0-0.7,0.6-1.3,1.3-1.3c0.8-0.1,1.4,0.5,1.5,1.3c0,0,0,0.1,0,0.1c0,0.7-0.4,1.1-1.5,2l-0.7,0.7h1.3
		c0.2,0,0.4,0,0.7-0.1c0.1-0.2,0.1-0.4,0.2-0.6h0.2L275.7,74.2z"/>
</g>
<g>
	<g>
		<path class="st2" d="M6.5,134.3c-0.4,0.9-0.9,1.3-1.6,1.3c-0.6,0.1-1.1-0.3-1.4-0.8c-0.2,0.5-0.7,0.8-1.2,0.8
			c-0.4,0-0.8-0.1-1.1-0.4c-0.3-0.3-0.4-0.7-0.4-1.1c0-0.8,0.3-1.6,0.6-2.3c0.2-0.3,0.2-0.7,0.3-1.1c0-0.3-0.1-0.3-0.3-0.3
			c-0.7,0-1,1.1-1.1,1.5c0,0.2-0.1,0.2-0.2,0.2c-0.1,0-0.2,0-0.2-0.1c0-0.1,0.4-1.8,1.5-1.8c0.5,0,0.9,0.4,0.9,0.9c0,0,0,0.1,0,0.1
			c0,0.2-0.1,0.4-0.1,0.6c-0.4,0.8-0.6,1.6-0.7,2.5c0,0.2,0,1,0.8,1c0.6,0,1-1,1-1.1c0-0.3,0-0.5,0.1-0.8l0.7-2.7
			c0-0.2,0.2-0.4,0.5-0.4c0.2,0,0.3,0.1,0.3,0.3c0,0,0,0,0,0c0,0-0.1,0.5-0.2,0.8l-0.5,2c-0.1,0.3-0.1,0.6-0.1,0.9
			c0,0.5,0.2,1,0.8,1c0.6,0,0.9-0.5,1.2-1.1c0.3-0.7,0.5-1.5,0.6-2.2c0-0.3-0.1-0.7-0.3-0.9c-0.1-0.1-0.1-0.2-0.2-0.3
			c0-0.3,0.3-0.5,0.6-0.6c0.3,0,0.5,0.4,0.5,0.8C7.2,132.1,7,133.2,6.5,134.3z"/>
		<path class="st2" d="M19.5,131.5h-7.2c-0.2,0-0.4,0-0.4-0.2c0-0.2,0.2-0.2,0.4-0.2h7.2c0.2,0,0.4,0,0.4,0.2
			C19.9,131.5,19.7,131.5,19.5,131.5z M19.5,133.9h-7.2c-0.2,0-0.4,0-0.4-0.2c0-0.2,0.2-0.2,0.4-0.2h7.2c0.2,0,0.4,0,0.4,0.2
			C19.9,133.9,19.7,133.9,19.5,133.9z"/>
	</g>
	<path class="st2" d="M29.6,128.7c-0.6,0-1.8,0-2.3,0v-0.4h0.4c1.3,0,1.3-0.2,1.3-0.7v-7.3c-0.6,0.3-1.2,0.4-1.8,0.4v-0.4
		c0.9,0.1,1.9-0.3,2.5-0.9c0.3,0,0.3,0,0.3,0.4v7.9c0,0.5,0,0.7,1.3,0.7h0.4v0.4C31.4,128.7,30.1,128.7,29.6,128.7z"/>
	<path class="st2" d="M31.9,144.8h-5.2c0-0.3,0-0.4,0.2-0.5l2.7-3c0.8-0.8,1.4-1.9,1.5-3.1c0-1.1-0.6-2.3-1.9-2.3
		c-0.9,0-1.6,0.6-1.9,1.4c0.1,0,0.1,0,0.2,0c0.4,0,0.7,0.3,0.7,0.7c0,0,0,0,0,0.1c0,0.4-0.3,0.7-0.7,0.7c-0.4,0-0.7-0.3-0.7-0.7
		c0,0,0,0,0-0.1c0-1.4,1.2-2.6,2.6-2.5c1.5-0.1,2.8,1,3,2.5c0,0.1,0,0.1,0,0.2c0,1.4-0.8,2.2-3,4.1l-1.5,1.4h2.5
		c0.4,0,0.9,0,1.3-0.1c0.2-0.4,0.3-0.8,0.3-1.2h0.3L31.9,144.8z"/>
	<line class="st8" x1="23.5" y1="132.8" x2="35.5" y2="132.8"/>
	<g>
		<path class="st2" d="M44.3,133.1l-0.9,2.6c-0.1,0.2-0.1,0.2-0.3,0.2h-5.1c-0.2,0-0.3,0-0.3-0.1c0-0.2,0.1-0.2,0.3-0.2
			c0.8,0,0.9-0.1,1-0.5l1.6-6.5c0-0.1,0-0.1,0-0.2c0-0.2-0.3-0.2-0.7-0.2c-0.2,0-0.3,0-0.3-0.1c0-0.2,0.2-0.2,0.2-0.2
			c0.5,0,1,0,1.5,0c0.6,0,1.1,0,1.7,0c0,0,0.2,0,0.2,0.1c0,0.2-0.1,0.2-0.3,0.2h-0.1c-1,0-1,0.1-1.2,0.5l-1.6,6.5c0,0.1,0,0.2,0,0.3
			c0,0.1,0,0.1,0.4,0.1h1c1.9,0,2.4-1.4,2.8-2.5c0.1-0.2,0.1-0.3,0.2-0.3c0,0,0.2,0,0.2,0.1L44.3,133.1z"/>
		<path class="st2" d="M46.2,139.9c-0.3,0-0.9,0-1.1,0v-0.2h0.2c0.6,0,0.7-0.1,0.7-0.3v-3.6c-0.3,0.1-0.6,0.2-0.9,0.2v-0.2
			c0.5,0,0.9-0.1,1.3-0.4c0.2,0,0.2,0,0.2,0.2v3.9c0,0.3,0,0.3,0.7,0.3h0.2v0.2C47.1,139.9,46.5,139.9,46.2,139.9z"/>
		<path class="st2" d="M50.3,136c-0.5,0-0.9-0.4-0.9-0.9c0,0,0-0.1,0-0.1c0-0.3,0.1-0.6,0.2-0.8l0.4-1.2l0.4-1
			c0.1-0.3,0.2-0.6,0.2-0.9c0-0.3-0.1-0.3-0.3-0.3c-0.7,0-1,1.1-1.1,1.5c0,0.2-0.1,0.2-0.2,0.2c-0.1,0-0.2,0-0.2-0.1
			c0-0.1,0.4-1.8,1.5-1.8c0.5,0,0.9,0.4,0.9,0.9c0,0,0,0.1,0,0.1c0,0.2-0.1,0.5-0.1,0.7l-0.8,2.1c-0.2,0.4-0.3,0.8-0.3,1.2
			c0,0.3,0.2,0.3,0.3,0.3c0.7,0,1-1.2,1.1-1.5c0-0.2,0-0.2,0.2-0.2c0.1,0,0.2,0,0.2,0.1C51.9,134.2,51.5,136,50.3,136z M51.4,129.3
			c-0.3,0-0.5-0.2-0.5-0.5c0,0,0,0,0,0c0-0.4,0.4-0.7,0.8-0.8c0.3,0,0.5,0.2,0.5,0.5c0,0,0,0,0,0C52.2,129,51.8,129.3,51.4,129.3z"
			/>
		<path class="st2" d="M53.4,139.9c-0.3,0-0.9,0-1.1,0v-0.2h0.2c0.6,0,0.6-0.1,0.6-0.3v-3.6c-0.3,0.1-0.6,0.2-0.9,0.2v-0.2
			c0.5,0,0.9-0.1,1.3-0.4c0.2,0,0.2,0,0.2,0.2v3.9c0,0.3,0,0.3,0.6,0.3h0.2v0.2C54.3,139.9,53.7,139.9,53.4,139.9z"/>
		<path class="st2" d="M58,131.9h-2.6c0-0.2,0-0.2,0.1-0.3l1.3-1.5c0.4-0.4,0.7-1,0.7-1.5c0-0.6-0.3-1.1-0.9-1.1
			c-0.4,0-0.8,0.3-0.9,0.7c0,0,0.1,0,0.1,0c0.2,0,0.4,0.1,0.4,0.3c0,0,0,0,0,0c0,0.2-0.2,0.4-0.4,0.4c-0.2,0-0.4-0.2-0.4-0.4
			c0,0,0,0,0,0c0-0.7,0.6-1.3,1.3-1.3c0.8-0.1,1.4,0.5,1.5,1.3c0,0,0,0.1,0,0.1c0,0.7-0.4,1.1-1.5,2l-0.7,0.7h1.3
			c0.2,0,0.4,0,0.7-0.1c0.1-0.2,0.1-0.4,0.2-0.6h0.2L58,131.9z"/>
		<path class="st2" d="M70.8,133.2h-3.3v3.4c0,0.2,0,0.4-0.2,0.4c-0.2,0-0.2-0.2-0.2-0.4v-3.4h-3.4c-0.2,0-0.4,0-0.4-0.2
			s0.2-0.2,0.4-0.2H67v-3.4c0-0.2,0-0.4,0.2-0.4c0.2,0,0.2,0.2,0.2,0.4v3.4h3.3c0.2,0,0.4,0,0.4,0.2S71,133.2,70.8,133.2z"/>
	</g>
	<path class="st2" d="M81.6,128.7c-0.6,0-1.8,0-2.3,0v-0.4h0.4c1.3,0,1.3-0.2,1.3-0.7v-7.3c-0.6,0.3-1.2,0.4-1.8,0.4v-0.4
		c0.9,0.1,1.9-0.3,2.5-0.9c0.3,0,0.3,0,0.3,0.4v7.9c0,0.5,0,0.7,1.3,0.7h0.4v0.4C83.4,128.7,82.1,128.7,81.6,128.7z"/>
	<path class="st2" d="M83.9,144.8h-5.2c0-0.3,0-0.4,0.2-0.5l2.7-3c0.8-0.8,1.4-1.9,1.5-3.1c0-1.1-0.6-2.3-1.9-2.3
		c-0.9,0-1.6,0.6-1.9,1.4c0.1,0,0.1,0,0.2,0c0.4,0,0.7,0.3,0.7,0.7c0,0,0,0,0,0.1c0,0.4-0.3,0.7-0.7,0.7c-0.4,0-0.7-0.3-0.7-0.7
		c0,0,0,0,0-0.1c0-1.4,1.2-2.6,2.6-2.5c1.5-0.1,2.8,1,3,2.5c0,0.1,0,0.1,0,0.2c0,1.4-0.8,2.2-3,4.1l-1.5,1.4h2.5
		c0.4,0,0.9,0,1.3-0.1c0.2-0.4,0.3-0.8,0.3-1.2h0.3L83.9,144.8z"/>
	<line class="st8" x1="75.5" y1="132.8" x2="87.5" y2="132.8"/>
	<g>
		<path class="st2" d="M98.3,133.1l-0.9,2.6c-0.1,0.2-0.1,0.2-0.3,0.2h-5.1c-0.2,0-0.3,0-0.3-0.1c0-0.2,0.1-0.2,0.3-0.2
			c0.8,0,0.9-0.1,1-0.5l1.6-6.5c0-0.1,0-0.1,0-0.2c0-0.2-0.3-0.2-0.7-0.2c-0.2,0-0.3,0-0.3-0.1c0-0.2,0.2-0.2,0.2-0.2
			c0.5,0,1,0,1.5,0c0.6,0,1.1,0,1.7,0c0,0,0.2,0,0.2,0.1c0,0.2-0.1,0.2-0.3,0.2h-0.1c-1,0-1,0.1-1.2,0.5l-1.6,6.5c0,0.1,0,0.2,0,0.3
			c0,0.1,0,0.1,0.4,0.1h1c1.9,0,2.4-1.4,2.8-2.5c0.1-0.2,0.1-0.3,0.2-0.3c0,0,0.2,0,0.2,0.1L98.3,133.1z"/>
		<path class="st2" d="M101.3,139.9h-2.6c0-0.2,0-0.2,0.1-0.3l1.3-1.5c0.4-0.4,0.7-1,0.7-1.5c0-0.6-0.3-1.1-0.9-1.1
			c-0.4,0-0.8,0.3-0.9,0.7c0,0,0.1,0,0.1,0c0.2,0,0.4,0.1,0.4,0.3c0,0,0,0,0,0c0,0.2-0.2,0.4-0.4,0.4c-0.2,0-0.4-0.2-0.4-0.4
			c0,0,0,0,0,0c0-0.7,0.6-1.3,1.3-1.3c0.8-0.1,1.4,0.5,1.5,1.3c0,0,0,0.1,0,0.1c0,0.7-0.4,1.1-1.5,2l-0.7,0.7h1.3
			c0.3,0.2,0.6,0.1,0.8-0.2c0.1-0.1,0.1-0.3,0-0.5h0.2L101.3,139.9z"/>
		<path class="st2" d="M104.3,136c-0.5,0-0.9-0.4-0.9-0.9c0,0,0-0.1,0-0.1c0-0.3,0.1-0.6,0.2-0.8l0.4-1.2l0.4-1
			c0.1-0.3,0.2-0.6,0.2-0.9c0-0.3-0.1-0.3-0.3-0.3c-0.7,0-1,1.1-1.1,1.5c0,0.2-0.1,0.2-0.2,0.2c-0.1,0-0.2,0-0.2-0.1
			c0-0.1,0.4-1.8,1.5-1.8c0.5,0,0.9,0.4,0.9,0.9c0,0,0,0.1,0,0.1c0,0.2-0.1,0.5-0.1,0.7l-0.8,2.1c-0.2,0.4-0.3,0.8-0.3,1.2
			c0,0.3,0.2,0.3,0.3,0.3c0.7,0,1-1.2,1.1-1.5c0-0.2,0-0.2,0.2-0.2c0.1,0,0.2,0,0.2,0.1C105.9,134.2,105.5,136,104.3,136z
			 M105.4,129.3c-0.3,0-0.5-0.2-0.5-0.5c0,0,0,0,0,0c0-0.4,0.4-0.7,0.8-0.8c0.3,0,0.5,0.2,0.5,0.5c0,0,0,0,0,0
			C106.2,129,105.8,129.3,105.4,129.3L105.4,129.3z"/>
		<path class="st2" d="M108.5,139.9h-2.6c0-0.2,0-0.2,0.1-0.3l1.3-1.5c0.4-0.4,0.7-1,0.7-1.5c0-0.6-0.3-1.1-0.9-1.1
			c-0.4,0-0.8,0.3-0.9,0.7c0,0,0.1,0,0.1,0c0.2,0,0.4,0.1,0.4,0.3c0,0,0,0,0,0c0,0.2-0.2,0.4-0.4,0.4c-0.2,0-0.4-0.2-0.4-0.4
			c0,0,0,0,0,0c0-0.7,0.6-1.3,1.3-1.3c0.8-0.1,1.4,0.5,1.5,1.3c0,0,0,0.1,0,0.1c0,0.7-0.4,1.1-1.5,2l-0.7,0.7h1.3
			c0.3,0.2,0.6,0.1,0.8-0.2c0.1-0.1,0.1-0.3,0-0.5h0.2L108.5,139.9z"/>
		<path class="st2" d="M112,131.9h-2.6c0-0.2,0-0.2,0.1-0.3l1.3-1.5c0.4-0.4,0.7-1,0.7-1.5c0-0.6-0.3-1.1-0.9-1.1
			c-0.4,0-0.8,0.3-0.9,0.7c0,0,0.1,0,0.1,0c0.2,0,0.4,0.1,0.4,0.3c0,0,0,0,0,0c0,0.2-0.2,0.4-0.4,0.4c-0.2,0-0.4-0.2-0.4-0.4
			c0,0,0,0,0,0c0-0.7,0.6-1.3,1.3-1.3c0.8-0.1,1.4,0.5,1.5,1.3c0,0,0,0.1,0,0.1c0,0.7-0.4,1.1-1.5,2l-0.7,0.7h1.3
			c0.3,0.2,0.6,0.1,0.8-0.2c0.1-0.1,0.1-0.3,0-0.5h0.2L112,131.9z"/>
		<path class="st2" d="M124.8,133.2h-3.3v3.4c0,0.2,0,0.4-0.2,0.4s-0.2-0.2-0.2-0.4v-3.4h-3.4c-0.2,0-0.4,0-0.4-0.2s0.2-0.2,0.4-0.2
			h3.4v-3.4c0-0.2,0-0.4,0.2-0.4s0.2,0.2,0.2,0.4v3.4h3.3c0.2,0,0.4,0,0.4,0.2S125,133.2,124.8,133.2z"/>
		<path class="st2" d="M139.7,135.9c-0.4,0-0.9,0-1.4,0s-0.9,0-1.4,0c-0.1,0-0.2,0-0.2-0.1c0,0,0,0,0,0c0-0.2,0.1-0.2,0.3-0.2
			c0.8,0,0.9-0.1,1-0.5l1.7-6.8h0l-4.5,7.4c-0.1,0.1-0.1,0.2-0.3,0.2c-0.2,0-0.2-0.1-0.2-0.3l-0.7-7.3h0l-1.6,6.4c0,0.1,0,0.2,0,0.3
			c0,0.2,0,0.5,0.7,0.5c0.1,0,0.2,0,0.2,0.2c0,0.2-0.1,0.2-0.2,0.2c-0.4,0-0.8,0-1.2,0c-0.4,0-0.8,0-1.1,0c-0.1,0-0.2,0-0.2-0.1
			c0-0.2,0.1-0.2,0.2-0.2c0.5,0.1,1.1-0.3,1.2-0.8l1.5-6.2c0-0.1,0-0.1,0-0.2c0-0.2-0.3-0.2-0.7-0.2c-0.2,0-0.3,0-0.3-0.1
			c0-0.2,0.1-0.2,0.3-0.2h1.6c0.3,0,0.3,0,0.3,0.3l0.7,6.7l4.1-6.8c0.1-0.2,0.2-0.2,0.4-0.2h1.5c0.2,0,0.3,0,0.3,0.2
			c0,0.2-0.1,0.2-0.4,0.2c-0.8,0-0.9,0.1-0.9,0.5l-1.6,6.5c0,0.1,0,0.2,0,0.3c0,0.1,0,0.2,0.7,0.2c0.2,0,0.3,0,0.3,0.2
			C140,135.9,139.8,135.9,139.7,135.9z"/>
		<path class="st2" d="M143.1,136c-0.5,0-0.9-0.4-0.9-0.9c0,0,0-0.1,0-0.1c0-0.3,0.1-0.6,0.2-0.8l0.4-1.2l0.4-1
			c0.1-0.3,0.2-0.6,0.2-0.9c0-0.3-0.1-0.3-0.3-0.3c-0.7,0-1,1.1-1.1,1.5c0,0.2-0.1,0.2-0.2,0.2c-0.1,0-0.2,0-0.2-0.1
			c0-0.1,0.4-1.8,1.5-1.8c0.5,0,0.9,0.4,0.9,0.9c0,0,0,0.1,0,0.1c0,0.2-0.1,0.5-0.1,0.7l-0.8,2.1c-0.2,0.4-0.3,0.8-0.3,1.2
			c0,0.3,0.2,0.3,0.3,0.3c0.7,0,1-1.2,1.1-1.5c0-0.2,0-0.2,0.2-0.2c0.1,0,0.2,0,0.2,0.1C144.6,134.2,144.2,136,143.1,136z
			 M144.2,129.3c-0.3,0-0.5-0.2-0.5-0.5c0,0,0,0,0,0c0-0.4,0.4-0.7,0.8-0.8c0.3,0,0.5,0.2,0.5,0.5c0,0,0,0,0,0
			C144.9,129,144.6,129.3,144.2,129.3z"/>
		<path class="st2" d="M146.2,139.9c-0.3,0-0.9,0-1.1,0v-0.2h0.2c0.6,0,0.6-0.1,0.6-0.3v-3.6c-0.3,0.1-0.6,0.2-0.9,0.2v-0.2
			c0.5,0,0.9-0.1,1.3-0.4c0.2,0,0.2,0,0.2,0.2v3.9c0,0.3,0,0.3,0.6,0.3h0.2v0.2C147,139.9,146.4,139.9,146.2,139.9z"/>
		<path class="st2" d="M150.3,136c-0.5,0-0.9-0.4-0.9-0.9c0,0,0-0.1,0-0.1c0-0.3,0.1-0.6,0.2-0.8l0.4-1.2l0.4-1
			c0.1-0.3,0.2-0.6,0.2-0.9c0-0.3-0.1-0.3-0.3-0.3c-0.7,0-1,1.1-1.1,1.5c0,0.2-0.1,0.2-0.2,0.2c-0.1,0-0.2,0-0.2-0.1
			c0-0.1,0.4-1.8,1.5-1.8c0.5,0,0.9,0.4,0.9,0.9c0,0,0,0.1,0,0.1c0,0.2-0.1,0.5-0.1,0.7l-0.8,2.1c-0.2,0.4-0.3,0.8-0.3,1.2
			c0,0.3,0.2,0.3,0.3,0.3c0.7,0,1-1.2,1.1-1.5c0-0.2,0-0.2,0.2-0.2c0.1,0,0.2,0,0.2,0.1C151.8,134.2,151.4,136,150.3,136z
			 M151.4,129.3c-0.3,0-0.5-0.2-0.5-0.5c0,0,0,0,0,0c0-0.4,0.4-0.7,0.8-0.8c0.3,0,0.5,0.2,0.5,0.5c0,0,0,0,0,0
			C152.1,129,151.8,129.3,151.4,129.3z"/>
		<path class="st2" d="M154.5,139.9h-2.6c0-0.2,0-0.2,0.1-0.3l1.3-1.5c0.4-0.4,0.7-1,0.7-1.5c0-0.6-0.3-1.1-0.9-1.1
			c-0.4,0-0.8,0.3-0.9,0.7c0,0,0.1,0,0.1,0c0.2,0,0.4,0.1,0.4,0.3c0,0,0,0,0,0c0,0.2-0.2,0.4-0.4,0.4c-0.2,0-0.4-0.2-0.4-0.4
			c0,0,0,0,0,0c0-0.7,0.6-1.3,1.3-1.3c0.8-0.1,1.4,0.5,1.5,1.3c0,0,0,0.1,0,0.1c0,0.7-0.4,1.1-1.5,2l-0.7,0.7h1.3
			c0.3,0.2,0.6,0.1,0.8-0.2c0.1-0.1,0.1-0.3,0-0.5h0.2L154.5,139.9z"/>
	</g>
</g>
<g>
	<g>
		<path class="st2" d="M174.8,133.3c-0.4,0.9-0.9,1.3-1.6,1.3c-0.6,0.1-1.1-0.3-1.4-0.8c-0.2,0.5-0.7,0.8-1.2,0.8
			c-0.4,0-0.8-0.1-1.1-0.4c-0.3-0.3-0.4-0.7-0.4-1.1c0-0.8,0.3-1.6,0.6-2.3c0.2-0.3,0.2-0.7,0.3-1.1c0-0.3-0.1-0.3-0.3-0.3
			c-0.7,0-1,1.1-1.1,1.5c0,0.2-0.1,0.2-0.2,0.2c-0.1,0-0.2,0-0.2-0.1c0-0.1,0.4-1.8,1.5-1.8c0.5,0,0.9,0.4,0.9,0.9c0,0,0,0.1,0,0.1
			c0,0.2-0.1,0.4-0.1,0.6c-0.4,0.8-0.6,1.6-0.7,2.5c0,0.2,0,1,0.8,1c0.6,0,1-1,1-1.1c0-0.3,0-0.5,0.1-0.8l0.7-2.7
			c0-0.2,0.2-0.4,0.5-0.4c0.2,0,0.3,0.1,0.3,0.3c0,0,0,0,0,0c0,0-0.1,0.5-0.2,0.8l-0.5,2c-0.1,0.3-0.1,0.6-0.1,0.9
			c0,0.5,0.2,1,0.8,1c0.6,0,0.9-0.5,1.2-1.1c0.3-0.7,0.5-1.5,0.6-2.2c0-0.3-0.1-0.7-0.3-0.9c-0.1-0.1-0.2-0.2-0.2-0.3
			c0-0.3,0.3-0.5,0.6-0.6c0.3,0,0.5,0.4,0.5,0.8C175.5,131.1,175.3,132.2,174.8,133.3z"/>
		<path class="st2" d="M187.8,130.5h-7.2c-0.2,0-0.4,0-0.4-0.2c0-0.2,0.2-0.2,0.4-0.2h7.2c0.2,0,0.4,0,0.4,0.2
			C188.2,130.5,188,130.5,187.8,130.5z M187.8,132.9h-7.2c-0.2,0-0.4,0-0.4-0.2c0-0.2,0.2-0.2,0.4-0.2h7.2c0.2,0,0.4,0,0.4,0.2
			C188.2,132.9,188,132.9,187.8,132.9z"/>
	</g>
	<path class="st2" d="M197.9,127.7c-0.6,0-1.8,0-2.3,0v-0.4h0.4c1.3,0,1.3-0.2,1.3-0.7v-7.3c-0.6,0.3-1.2,0.4-1.8,0.4v-0.4
		c0.9,0.1,1.9-0.3,2.5-0.9c0.3,0,0.3,0,0.3,0.4v7.9c0,0.5,0,0.7,1.3,0.7h0.4v0.4C199.7,127.7,198.5,127.7,197.9,127.7z"/>
	<path class="st2" d="M200.2,143.8H195c0-0.3,0-0.4,0.2-0.5l2.7-3c0.8-0.8,1.4-1.9,1.5-3.1c0-1.1-0.6-2.3-1.9-2.3
		c-0.9,0-1.6,0.6-1.9,1.4c0.1,0,0.1,0,0.2,0c0.4,0,0.7,0.3,0.7,0.7c0,0,0,0,0,0.1c0,0.4-0.3,0.7-0.7,0.7s-0.7-0.3-0.7-0.7
		c0,0,0,0,0-0.1c0-1.4,1.2-2.6,2.6-2.5c1.5-0.1,2.8,1,3,2.5c0,0.1,0,0.1,0,0.2c0,1.4-0.8,2.2-3,4.1l-1.5,1.4h2.5
		c0.4,0,0.9,0,1.3-0.1c0.2-0.4,0.3-0.8,0.3-1.2h0.3L200.2,143.8z"/>
	<line class="st8" x1="191.8" y1="131.8" x2="203.8" y2="131.8"/>
	<g>
		<path class="st2" d="M212.6,132.1l-0.9,2.6c-0.1,0.2-0.1,0.2-0.3,0.2h-5.1c-0.2,0-0.3,0-0.3-0.1c0-0.2,0.1-0.2,0.3-0.2
			c0.8,0,0.9-0.1,1-0.5l1.6-6.5c0-0.1,0-0.1,0-0.2c0-0.2-0.3-0.2-0.7-0.2c-0.2,0-0.3,0-0.3-0.1c0-0.2,0.2-0.2,0.2-0.2
			c0.5,0,1,0,1.5,0c0.6,0,1.1,0,1.7,0c0,0,0.2,0,0.2,0.1c0,0.2-0.1,0.2-0.3,0.2H211c-1,0-1,0.1-1.2,0.5l-1.6,6.5c0,0.1,0,0.2,0,0.3
			c0,0.1,0,0.1,0.4,0.1h1c1.9,0,2.4-1.4,2.8-2.5c0.1-0.2,0.1-0.3,0.2-0.3c0,0,0.2,0,0.2,0.1L212.6,132.1z"/>
		<path class="st2" d="M214.5,138.9c-0.3,0-0.9,0-1.1,0v-0.2h0.2c0.6,0,0.6-0.1,0.6-0.3v-3.6c-0.3,0.1-0.6,0.2-0.9,0.2v-0.2
			c0.5,0,0.9-0.1,1.3-0.4c0.2,0,0.2,0,0.2,0.2v3.9c0,0.3,0,0.3,0.6,0.3h0.2v0.2C215.4,138.9,214.8,138.9,214.5,138.9z"/>
		<path class="st2" d="M218.7,135c-0.5,0-0.9-0.4-0.9-0.9c0,0,0-0.1,0-0.1c0-0.3,0.1-0.6,0.2-0.8l0.4-1.2l0.4-1
			c0.1-0.3,0.2-0.6,0.2-0.9c0-0.3-0.1-0.3-0.3-0.3c-0.7,0-1,1.1-1.1,1.5c0,0.2-0.1,0.2-0.2,0.2c-0.1,0-0.2,0-0.2-0.1
			c0-0.1,0.4-1.8,1.5-1.8c0.5,0,0.9,0.4,0.9,0.9c0,0,0,0.1,0,0.1c0,0.2,0,0.5-0.1,0.7l-0.8,2.1c-0.2,0.4-0.3,0.8-0.3,1.2
			c0,0.3,0.2,0.3,0.3,0.3c0.7,0,1-1.2,1.1-1.5c0-0.2,0-0.2,0.2-0.2c0.1,0,0.2,0,0.2,0.1C220.2,133.2,219.8,135,218.7,135z
			 M219.7,128.3c-0.3,0-0.5-0.2-0.5-0.5c0,0,0,0,0,0c0-0.4,0.4-0.7,0.8-0.8c0.3,0,0.5,0.2,0.5,0.5c0,0,0,0,0,0
			C220.5,128,220.1,128.3,219.7,128.3L219.7,128.3z"/>
		<path class="st2" d="M221.7,138.9c-0.3,0-0.9,0-1.1,0v-0.2h0.2c0.6,0,0.7-0.1,0.7-0.3v-3.6c-0.3,0.1-0.6,0.2-0.9,0.2v-0.2
			c0.5,0,0.9-0.1,1.3-0.4c0.2,0,0.2,0,0.2,0.2v3.9c0,0.3,0,0.3,0.7,0.3h0.2v0.2C222.6,138.9,222,138.9,221.7,138.9z"/>
		<path class="st2" d="M226.3,130.9h-2.6c0-0.2,0-0.2,0.1-0.3l1.3-1.5c0.4-0.4,0.7-1,0.7-1.5c0-0.6-0.3-1.1-0.9-1.1
			c-0.4,0-0.8,0.3-0.9,0.7c0,0,0.1,0,0.1,0c0.2,0,0.4,0.1,0.4,0.3c0,0,0,0,0,0c0,0.2-0.2,0.4-0.4,0.4c-0.2,0-0.4-0.2-0.4-0.4
			c0,0,0,0,0,0c0-0.7,0.6-1.3,1.3-1.3c0.8-0.1,1.4,0.5,1.5,1.3c0,0,0,0.1,0,0.1c0,0.7-0.4,1.1-1.5,2l-0.7,0.7h1.3
			c0.3,0.2,0.6,0.1,0.8-0.2c0.1-0.1,0.1-0.3,0-0.5h0.2L226.3,130.9z"/>
		<path class="st2" d="M239.1,132.2h-3.3v3.4c0,0.2,0,0.4-0.2,0.4c-0.2,0-0.2-0.2-0.2-0.4v-3.4H232c-0.2,0-0.4,0-0.4-0.2
			s0.2-0.2,0.4-0.2h3.4v-3.4c0-0.2,0-0.4,0.2-0.4c0.2,0,0.2,0.2,0.2,0.4v3.4h3.3c0.2,0,0.4,0,0.4,0.2S239.3,132.2,239.1,132.2z"/>
	</g>
	<path class="st2" d="M249.9,127.7c-0.6,0-1.8,0-2.3,0v-0.4h0.4c1.3,0,1.3-0.2,1.3-0.7v-7.3c-0.6,0.3-1.2,0.4-1.8,0.4v-0.4
		c0.9,0.1,1.9-0.3,2.5-0.9c0.3,0,0.3,0,0.3,0.4v7.9c0,0.5,0,0.7,1.3,0.7h0.4v0.4C251.7,127.7,250.5,127.7,249.9,127.7z"/>
	<path class="st2" d="M252.2,143.8H247c0-0.3,0-0.4,0.2-0.5l2.7-3c0.8-0.8,1.4-1.9,1.5-3.1c0-1.1-0.6-2.3-1.9-2.3
		c-0.9,0-1.6,0.6-1.9,1.4c0.1,0,0.1,0,0.2,0c0.4,0,0.7,0.3,0.7,0.7c0,0,0,0,0,0.1c0,0.4-0.3,0.7-0.7,0.7s-0.7-0.3-0.7-0.7
		c0,0,0,0,0-0.1c0-1.4,1.2-2.6,2.6-2.5c1.5-0.1,2.8,1,3,2.5c0,0.1,0,0.1,0,0.2c0,1.4-0.8,2.2-3,4.1l-1.5,1.4h2.5
		c0.5,0.3,1.2,0.2,1.5-0.4c0.2-0.3,0.2-0.7,0.1-1h0.3L252.2,143.8z"/>
	<line class="st8" x1="243.8" y1="131.8" x2="255.8" y2="131.8"/>
	<g>
		<path class="st2" d="M266.6,132.1l-0.9,2.6c-0.1,0.2-0.1,0.2-0.3,0.2h-5.1c-0.2,0-0.3,0-0.3-0.1c0-0.2,0.1-0.2,0.3-0.2
			c0.8,0,0.9-0.1,1-0.5l1.6-6.5c0-0.1,0-0.1,0-0.2c0-0.2-0.3-0.2-0.7-0.2c-0.2,0-0.3,0-0.3-0.1c0-0.2,0.2-0.2,0.2-0.2
			c0.5,0,1,0,1.5,0c0.6,0,1.1,0,1.7,0c0,0,0.2,0,0.2,0.1c0,0.2-0.1,0.2-0.3,0.2H265c-1,0-1,0.1-1.2,0.5l-1.6,6.5c0,0.1,0,0.2,0,0.3
			c0,0.1,0,0.1,0.4,0.1h1c1.9,0,2.4-1.4,2.8-2.5c0.1-0.2,0.1-0.3,0.2-0.3c0,0,0.2,0,0.2,0.1L266.6,132.1z"/>
		<path class="st2" d="M269.7,138.9h-2.6c0-0.2,0-0.2,0.1-0.3l1.3-1.5c0.4-0.4,0.7-1,0.7-1.5c0-0.6-0.3-1.1-0.9-1.1
			c-0.4,0-0.8,0.3-0.9,0.7c0,0,0.1,0,0.1,0c0.2,0,0.4,0.1,0.4,0.3c0,0,0,0,0,0c0,0.2-0.2,0.4-0.4,0.4c-0.2,0-0.4-0.2-0.4-0.4
			c0,0,0,0,0,0c0-0.7,0.6-1.3,1.3-1.3c0.8-0.1,1.4,0.5,1.5,1.3c0,0,0,0.1,0,0.1c0,0.7-0.4,1.1-1.5,2l-0.7,0.7h1.3
			c0.2,0,0.4,0,0.7-0.1c0.1-0.2,0.1-0.4,0.2-0.6h0.2L269.7,138.9z"/>
		<path class="st2" d="M272.7,135c-0.5,0-0.9-0.4-0.9-0.9c0,0,0-0.1,0-0.1c0-0.3,0.1-0.6,0.2-0.8l0.4-1.2l0.4-1
			c0.1-0.3,0.2-0.6,0.2-0.9c0-0.3-0.1-0.3-0.3-0.3c-0.7,0-1,1.1-1.1,1.5c0,0.2-0.1,0.2-0.2,0.2c-0.1,0-0.2,0-0.2-0.1
			c0-0.1,0.4-1.8,1.5-1.8c0.5,0,0.9,0.4,0.9,0.9c0,0,0,0.1,0,0.1c0,0.2,0,0.5-0.1,0.7l-0.8,2.1c-0.2,0.4-0.3,0.8-0.3,1.2
			c0,0.3,0.2,0.3,0.3,0.3c0.7,0,1-1.2,1.1-1.5c0-0.2,0-0.2,0.2-0.2c0.1,0,0.2,0,0.2,0.1C274.2,133.2,273.8,135,272.7,135z
			 M273.7,128.3c-0.3,0-0.5-0.2-0.5-0.5c0,0,0,0,0,0c0-0.4,0.4-0.7,0.8-0.8c0.3,0,0.5,0.2,0.5,0.5c0,0,0,0,0,0
			C274.5,128,274.1,128.3,273.7,128.3L273.7,128.3z"/>
		<path class="st2" d="M276.8,138.9h-2.6c0-0.2,0-0.2,0.1-0.3l1.3-1.5c0.4-0.4,0.7-1,0.7-1.5c0-0.6-0.3-1.1-0.9-1.1
			c-0.4,0-0.8,0.3-0.9,0.7c0,0,0.1,0,0.1,0c0.2,0,0.4,0.1,0.4,0.3c0,0,0,0,0,0c0,0.2-0.2,0.4-0.4,0.4c-0.2,0-0.4-0.2-0.4-0.4
			c0,0,0,0,0,0c0-0.7,0.6-1.3,1.3-1.3c0.8-0.1,1.4,0.5,1.5,1.3c0,0,0,0.1,0,0.1c0,0.7-0.4,1.1-1.5,2l-0.7,0.7h1.3
			c0.3,0.2,0.6,0.1,0.8-0.2c0.1-0.1,0.1-0.3,0-0.5h0.2L276.8,138.9z"/>
		<path class="st2" d="M280.3,130.9h-2.6c0-0.2,0-0.2,0.1-0.3l1.3-1.5c0.4-0.4,0.7-1,0.7-1.5c0-0.6-0.3-1.1-0.9-1.1
			c-0.4,0-0.8,0.3-0.9,0.7c0,0,0.1,0,0.1,0c0.2,0,0.4,0.1,0.4,0.3c0,0,0,0,0,0c0,0.2-0.2,0.4-0.4,0.4c-0.2,0-0.4-0.2-0.4-0.4
			c0,0,0,0,0,0c0-0.7,0.6-1.3,1.3-1.3c0.8-0.1,1.4,0.5,1.5,1.3c0,0,0,0.1,0,0.1c0,0.7-0.4,1.1-1.5,2l-0.7,0.7h1.3
			c0.3,0.2,0.6,0.1,0.8-0.2c0.1-0.1,0.1-0.3,0-0.5h0.2L280.3,130.9z"/>
		<path class="st2" d="M293.8,132.2h-7.2c-0.2,0-0.4,0-0.4-0.3c0-0.3,0.3-0.3,0.4-0.3h7.2c0.2,0,0.4,0,0.4,0.3
			C294.3,132.2,294,132.2,293.8,132.2z"/>
		<path class="st2" d="M309.4,134.9c-0.4,0-0.9,0-1.4,0c-0.5,0-0.9,0-1.4,0c-0.1,0-0.2,0-0.2-0.1c0,0,0,0,0,0c0-0.2,0.1-0.2,0.3-0.2
			c0.8,0,0.9-0.1,1-0.5l1.7-6.8h0l-4.5,7.4c-0.1,0.1-0.1,0.2-0.3,0.2c-0.2,0-0.2-0.1-0.2-0.3l-0.7-7.3h0l-1.6,6.4c0,0.1,0,0.2,0,0.3
			c0,0.2,0,0.5,0.7,0.5c0.1,0,0.2,0,0.2,0.2c0,0.2-0.1,0.2-0.2,0.2c-0.4,0-0.8,0-1.2,0c-0.4,0-0.8,0-1.1,0c-0.1,0-0.2,0-0.2-0.1
			c0-0.2,0.1-0.2,0.2-0.2c0.5,0.1,1.1-0.3,1.2-0.8l1.5-6.2c0-0.1,0-0.1,0-0.2c0-0.2-0.3-0.2-0.7-0.2c-0.2,0-0.3,0-0.3-0.1
			c0-0.2,0.1-0.2,0.3-0.2h1.6c0.3,0,0.3,0,0.3,0.3l0.7,6.7l4.1-6.8c0.1-0.2,0.2-0.2,0.4-0.2h1.5c0.2,0,0.3,0,0.3,0.2
			c0,0.2-0.1,0.2-0.4,0.2c-0.8,0-0.9,0.1-0.9,0.5l-1.6,6.5c0,0.1,0,0.2,0,0.3c0,0.1,0,0.2,0.7,0.2c0.2,0,0.3,0,0.3,0.2
			C309.7,134.9,309.5,134.9,309.4,134.9z"/>
		<path class="st2" d="M312.8,135c-0.5,0-0.9-0.4-0.9-0.9c0,0,0-0.1,0-0.1c0-0.3,0.1-0.6,0.2-0.8l0.4-1.2l0.4-1
			c0.1-0.3,0.2-0.6,0.2-0.9c0-0.3-0.1-0.3-0.3-0.3c-0.7,0-1,1.1-1.1,1.5c0,0.2-0.1,0.2-0.2,0.2c-0.1,0-0.2,0-0.2-0.1
			c0-0.1,0.4-1.8,1.5-1.8c0.5,0,0.9,0.4,0.9,0.9c0,0,0,0.1,0,0.1c0,0.2,0,0.5-0.1,0.7l-0.8,2.1c-0.2,0.4-0.3,0.8-0.3,1.2
			c0,0.3,0.2,0.3,0.3,0.3c0.7,0,1-1.2,1.1-1.5c0-0.2,0-0.2,0.2-0.2c0.1,0,0.2,0,0.2,0.1C314.3,133.2,313.9,135,312.8,135z
			 M313.9,128.3c-0.3,0-0.5-0.2-0.5-0.5c0,0,0,0,0,0c0-0.4,0.4-0.7,0.8-0.8c0.3,0,0.5,0.2,0.5,0.5c0,0,0,0,0,0
			C314.6,128,314.3,128.3,313.9,128.3z"/>
		<path class="st2" d="M315.8,138.9c-0.3,0-0.9,0-1.1,0v-0.2h0.2c0.6,0,0.7-0.1,0.7-0.3v-3.6c-0.3,0.1-0.6,0.2-0.9,0.2v-0.2
			c0.5,0,0.9-0.1,1.3-0.4c0.2,0,0.2,0,0.2,0.2v3.9c0,0.3,0,0.3,0.7,0.3h0.2v0.2C316.7,138.9,316.1,138.9,315.8,138.9z"/>
		<path class="st2" d="M320,135c-0.5,0-0.9-0.4-0.9-0.9c0,0,0-0.1,0-0.1c0-0.3,0.1-0.6,0.2-0.8l0.4-1.2l0.4-1
			c0.1-0.3,0.2-0.6,0.2-0.9c0-0.3-0.1-0.3-0.3-0.3c-0.7,0-1,1.1-1.1,1.5c0,0.2-0.1,0.2-0.2,0.2c-0.1,0-0.2,0-0.2-0.1
			c0-0.1,0.4-1.8,1.5-1.8c0.5,0,0.9,0.4,0.9,0.9c0,0,0,0.1,0,0.1c0,0.2-0.1,0.5-0.1,0.7l-0.8,2.1c-0.2,0.4-0.3,0.8-0.3,1.2
			c0,0.3,0.2,0.3,0.3,0.3c0.7,0,1-1.2,1.1-1.5c0-0.2,0-0.2,0.2-0.2c0.1,0,0.2,0,0.2,0.1C321.5,133.2,321.1,135,320,135z
			 M321.1,128.3c-0.3,0-0.5-0.2-0.5-0.5c0,0,0,0,0,0c0-0.4,0.4-0.7,0.8-0.8c0.3,0,0.5,0.2,0.5,0.5c0,0,0,0,0,0
			C321.8,128,321.5,128.3,321.1,128.3z"/>
		<path class="st2" d="M324.2,138.9h-2.6c0-0.2,0-0.2,0.1-0.3l1.3-1.5c0.4-0.4,0.7-1,0.7-1.5c0-0.6-0.3-1.1-0.9-1.1
			c-0.4,0-0.8,0.3-0.9,0.7c0,0,0.1,0,0.1,0c0.2,0,0.4,0.1,0.4,0.3c0,0,0,0,0,0c0,0.2-0.2,0.4-0.4,0.4c-0.2,0-0.4-0.2-0.4-0.4
			c0,0,0,0,0,0c0-0.7,0.6-1.3,1.3-1.3c0.8-0.1,1.4,0.5,1.5,1.3c0,0,0,0.1,0,0.1c0,0.7-0.4,1.1-1.5,2l-0.7,0.7h1.3
			c0.3,0.2,0.6,0.1,0.8-0.2c0.1-0.1,0.1-0.3,0-0.5h0.2L324.2,138.9z"/>
	</g>
</g>
</svg>
