<?xml version="1.0" encoding="utf-8"?>
<!-- Generator: Adobe Illustrator 23.0.3, SVG Export Plug-In . SVG Version: 6.00 Build 0)  -->
<svg version="1.1" id="Layer_1" xmlns="http://www.w3.org/2000/svg" xmlns:xlink="http://www.w3.org/1999/xlink" x="0px" y="0px"
	 viewBox="0 0 250 169.22168" style="enable-background:new 0 0 250 169.22168;" xml:space="preserve">
<style type="text/css">
	.st0{fill:none;stroke:#8FF4DD;stroke-width:2;stroke-miterlimit:10;}
	.st1{fill:#8FF4DD;}
	.st2{fill:none;stroke:#FD1D53;stroke-width:2;stroke-linecap:round;stroke-miterlimit:10;}
</style>
<title>EvenFunction</title>
<g>
	<g>
		<g>
			<line class="st0" x1="125" y1="3.95598" x2="125" y2="150"/>
			<polygon class="st1" points="120.547,12.232 121.864,12.71 125,4.093 128.136,12.71 129.452,12.232 125,0 			"/>
		</g>
		<g>
			<line class="st0" x1="0" y1="75" x2="246.04401" y2="75"/>
			<polygon class="st1" points="237.76801,79.453 237.28999,78.136 245.907,75 237.28999,71.864 237.76801,70.548 250,75 			"/>
		</g>
	</g>
</g>
<g>
	<path class="st2" d="M7.84838,46.74275C12.20767,34.068,17.46856,25,24.9963,25c24.99854,0,24.99854,100,49.99709,100
		c24.99969,0,24.99969-100,49.99939-100c24.99892,0,24.99892,100,49.99782,100c25.0024,0,25.0024-100,50.0047-100
		c7.49393,0,12.74173,8.98377,17.08984,21.56591"/>
</g>
<g id="Layer_3">
	<path class="st1" d="M243.49219,91.35645c-0.55841,0.00588-1.01587-0.44204-1.02176-1.00047
		c-0.00027-0.02623,0.00046-0.05247,0.00223-0.07864c0.00433-0.13789,0.02432-0.27483,0.05957-0.4082l0.86328-3.44189h-0.95999
		c-0.19141,0-0.29883,0-0.29883-0.14405c0-0.22754,0.13086-0.22754,0.33594-0.22754h1.01953l0.4668-1.90722
		c0.03311-0.23737,0.22946-0.41817,0.46875-0.43164c0.16544-0.01273,0.30984,0.11105,0.3226,0.27647
		c0.00089,0.01166,0.0011,0.02336,0.00064,0.03505c-0.00095,0.08617-0.01715,0.17149-0.04785,0.252l-0.44336,1.77539h0.95901
		c0.19141,0,0.2998,0,0.2998,0.14356c0,0.228-0.13184,0.228-0.33594,0.228h-1.01953l-0.8877,3.562
		c-0.05481,0.19935-0.08307,0.40506-0.08401,0.61181c0,0.1919,0,0.4917,0.32422,0.4917c0.68359,0,1.16309-0.89941,1.37891-1.47509
		c0.0957-0.21631,0.0957-0.228,0.24023-0.228c0.08401,0,0.17969,0,0.17969,0.12012
		C245.31445,89.56934,244.70313,91.35645,243.49219,91.35645z"/>
	<path class="st1" d="M147.78027,28.67432c-0.4082,0-0.83984-0.03614-1.25977-0.03614c-0.45605,0-0.93555,0.03614-1.37891,0.03614
		c-0.03613,0-0.18066,0-0.18066-0.144c0-0.22754,0.14453-0.22754,0.27637-0.22754c0.51563,0,0.80373-0.144,0.80373-0.38378
		l-0.13184-1.99122h-2.73439l-0.86424,1.51123c-0.08827,0.13793-0.14558,0.29335-0.168,0.45557
		c0,0.37207,0.43164,0.396,0.50391,0.4082c0.0957,0.01172,0.19238,0.01172,0.19238,0.14356c0,0.228-0.15625,0.228-0.21582,0.228
		c-0.36035,0-0.74414-0.03614-1.11621-0.03614c-0.31152,0-0.65918,0.03614-0.959,0.03614
		c-0.0735,0.00581-0.13779-0.04907-0.14359-0.12256c-0.00056-0.00714-0.00055-0.01431,0.00003-0.02144
		c0,0,0.01172-0.21582,0.14355-0.22754c0.64,0.0016,1.21574-0.38874,1.45117-0.98388l3.98145-7.01612
		c0.07227-0.13183,0.12012-0.21582,0.3125-0.21582c0.19141,0,0.20313,0.03614,0.21582,0.29981l0.51563,7.50781
		c0.02344,0.312,0.05957,0.4082,0.68359,0.4082c0.19141,0,0.28809,0,0.28809,0.15577
		C147.99609,28.67432,147.85156,28.67432,147.78027,28.67432z M145.60939,21.63432l-2.23145,3.92187h2.50684L145.60939,21.63432z"/>
	<g>
		<path class="st1" d="M108.62399,125.916h-6.53613c-0.168,0-0.39648,0-0.39648-0.24023c0-0.23975,0.22851-0.23975,0.39648-0.23975
			h6.53613c0.168,0,0.39551,0,0.39551,0.23975C109.01953,125.916,108.79201,125.916,108.62399,125.916z"/>
		<path class="st1" d="M118.11621,128.67432c-0.4082,0-0.83984-0.03613-1.25977-0.03613c-0.45605,0-0.93555,0.03613-1.37891,0.03613
			c-0.03613,0-0.18066,0-0.18066-0.144c0-0.22754,0.14453-0.22754,0.27637-0.22754c0.51563,0,0.80371-0.144,0.80371-0.38377
			l-0.13184-1.99123h-2.73438l-0.86426,1.51123c-0.08827,0.13792-0.14558,0.29335-0.168,0.45557
			c0,0.37207,0.43164,0.396,0.50391,0.4082c0.0957,0.01172,0.19238,0.01172,0.19238,0.14355c0,0.228-0.15625,0.228-0.21582,0.228
			c-0.36035,0-0.74414-0.03613-1.11621-0.03613c-0.31152,0-0.65918,0.03613-0.959,0.03613
			c-0.0735,0.0058-0.13779-0.04907-0.14359-0.12256c-0.00056-0.00714-0.00055-0.01431,0.00003-0.02144
			c0,0,0.01172-0.21582,0.14355-0.22754c0.64,0.0016,1.21574-0.38875,1.45117-0.98389l3.98145-7.01611
			c0.07227-0.13184,0.12012-0.21582,0.3125-0.21582c0.19141,0,0.20313,0.03613,0.21582,0.2998l0.51563,7.50781
			c0.02344,0.312,0.05957,0.4082,0.68359,0.4082c0.19141,0,0.28809,0,0.28809,0.15578
			C118.332,128.67432,118.1875,128.67432,118.11621,128.67432z M115.94531,121.63432l-2.23145,3.92188h2.50684L115.94531,121.63432z
			"/>
	</g>
	<path class="st1" d="M228.77539,82.25342c-0.06055,0-0.17969,0-0.17969-0.15625c0.00337-0.06039,0.01122-0.12045,0.02344-0.17969
		c0.07358-0.35534,0.11378-0.71677,0.12012-1.07959c0-0.74316-0.27539-0.91113-1.52344-0.91113
		c-0.20798-0.00627-0.41615,0.00172-0.62305,0.02392c-0.09668,0.01172-0.19238,0.03565-0.27637,0.39551l-1.6064,6.45264
		c-0.02846,0.07287-0.04495,0.14986-0.04883,0.228c0,0.16748,0.06055,0.21582,0.39648,0.25146
		c0.03613,0,0.40723,0.02441,0.59961,0.02441h0.17969c0.17969,0,0.2998,0,0.2998,0.13184c0,0.23975-0.14355,0.23975-0.25195,0.23975
		c-0.61133,0-1.25879-0.03614-1.88281-0.03614c-0.61131,0-1.24707,0.03614-1.85938,0.03614c-0.05957,0-0.20313,0-0.20313-0.144
		c0-0.22754,0.13184-0.22754,0.33501-0.22754h0.19238c1.05566,0,1.16309-0.12011,1.27148-0.54l1.60645-6.44043
		c0.02908-0.08503,0.04553-0.17387,0.04881-0.26368c0-0.084,0-0.13183-0.27637-0.13183h-0.40726
		c-1.54785,0-1.88379,0.25146-2.44727,1.94287c-0.12012,0.31152-0.13184,0.32373-0.15527,0.34766
		c-0.03734,0.02995-0.08545,0.04305-0.13281,0.03613c-0.03516,0-0.17969,0-0.17969-0.13184
		c0.01004-0.07064,0.03044-0.13941,0.06055-0.2041l0.707-2.147c0.07227-0.21582,0.1084-0.21582,0.34766-0.21582h6.15332
		c0.19141,0,0.2998,0,0.2998,0.144c0.00209,0.05225-0.00218,0.10455-0.0127,0.15576l-0.35938,2.147
		C228.95508,82.21729,228.93164,82.25342,228.77539,82.25342z"/>
	<g>
		<path class="st1" d="M22.624,84.916h-6.53611c-0.168,0-0.39648,0-0.39648-0.24024c0-0.23974,0.22851-0.23974,0.39648-0.23974
			H22.624c0.168,0,0.39551,0,0.39551,0.23974C23.01953,84.916,22.792,84.916,22.624,84.916z"/>
		<path class="st1" d="M33.11133,82.25342c-0.06055,0-0.17969,0-0.17969-0.15625c0.00338-0.06039,0.01122-0.12045,0.02344-0.17969
			c0.07357-0.35534,0.11379-0.71677,0.12012-1.07959c0-0.74316-0.2754-0.91113-1.52344-0.91113
			c-0.20797-0.00627-0.41612,0.00172-0.623,0.02392c-0.09668,0.01172-0.19238,0.03565-0.27637,0.39551l-1.60644,6.45264
			c-0.02847,0.07287-0.04495,0.14986-0.04883,0.228c0,0.16748,0.06055,0.21582,0.39648,0.25146
			c0.03614,0,0.40723,0.02441,0.59961,0.02441h0.17969c0.17969,0,0.29981,0,0.29981,0.13184
			c0,0.23975-0.14356,0.23975-0.252,0.23975c-0.61132,0-1.25879-0.03614-1.88281-0.03614
			c-0.61133,0-1.24707,0.03614-1.85937,0.03614c-0.05957,0-0.20313,0-0.20313-0.144c0-0.22754,0.13184-0.22754,0.335-0.22754
			h0.19238c1.05567,0,1.16309-0.12011,1.27149-0.54l1.60644-6.44043c0.02909-0.08503,0.04554-0.17387,0.04883-0.26368
			c0-0.084,0-0.13183-0.27636-0.13183H29.0459c-1.54785,0-1.88379,0.25146-2.44727,1.94287
			c-0.12011,0.31152-0.13183,0.32373-0.15527,0.34766c-0.03733,0.02995-0.08544,0.04305-0.13281,0.03613
			c-0.03516,0-0.17969,0-0.17969-0.13184c0.01004-0.07064,0.03045-0.13941,0.06055-0.2041l0.707-2.147
			c0.07226-0.21582,0.1084-0.21582,0.34765-0.21582h6.15332c0.19141,0,0.29981,0,0.29981,0.144
			c0.00209,0.05225-0.00217,0.10455-0.0127,0.15576l-0.35937,2.147C33.291,82.21729,33.26758,82.25342,33.11133,82.25342z"/>
	</g>
	<g>
		<path class="st1" d="M90.85156,169.06738h-8.082v-0.43408h0.33594c1.07861,0,1.10693-0.1543,1.10693-0.65869v-7.33984
			c0-0.50439-0.02832-0.6582-1.10693-0.6582h-0.33594v-0.43456h7.88623l0.39209,3.15186h-0.3501
			c-0.22412-1.94678-0.60254-2.71729-2.7456-2.71729H86.145c-0.6582,0-0.686,0.09814-0.686,0.56006v3.36182h1.26075
			c1.3584,0,1.51269-0.43408,1.51269-1.63867h0.3501v3.71191h-0.3501c0-1.19043-0.15429-1.63867-1.51269-1.63867H85.459v3.73975
			c0,0.46242,0.02784,0.56055,0.686,0.56055h1.86328c2.40918,0,2.73145-1.02295,3.08154-3.17969h0.3501L90.85156,169.06738z"/>
		<path class="st1" d="M97.66846,164.40283l-1.835,4.55225c-0.05616,0.14014-0.11231,0.2666-0.29395,0.2666
			c-0.18213,0-0.21045-0.07031-0.29443-0.2666l-2.01709-4.97266c-0.18213-0.43408-0.23828-0.51807-1.12061-0.51807v-0.4341
			c0.42041,0.02785,0.98047,0.04201,1.35889,0.04201l1.52685-0.04201v0.4341c-0.25244,0-0.79834,0-0.79834,0.36424
			c0.01426,0.08362,0.04266,0.1642,0.084,0.23828l1.56885,3.90771l1.42871-3.57178c0.05103-0.10493,0.07964-0.21935,0.084-0.33594
			c0-0.26611-0.1543-0.58836-0.67236-0.60252v-0.4341l1.21875,0.04201c0.32226,0,0.728-0.01416,1.05029-0.04201v0.4341
			C98.36005,163.4346,97.82328,163.82553,97.66846,164.40283z"/>
		<path class="st1" d="M102.31494,169.22168c-1.74378-0.04422-3.12251-1.49197-3.08154-3.23584
			c-0.07504-1.68567,1.22814-3.1142,2.9136-3.19383c1.37212-0.0201,2.50073,1.07593,2.52083,2.44804
			c0.00145,0.09937-0.00305,0.19873-0.0135,0.29756c0,0.29395-0.04201,0.29395-0.3501,0.29395H100.396
			c-0.04971,0.72531,0.09544,1.45073,0.42041,2.10107c0.3288,0.56659,0.92813,0.92191,1.583,0.93848
			c0.88164-0.00453,1.65334-0.59326,1.89063-1.44238c0.02832-0.1123,0.05615-0.19629,0.18213-0.19629
			c0.0891-0.01091,0.17015,0.05247,0.18106,0.14157c0.00107,0.00876,0.00143,0.01761,0.00107,0.02643
			C104.3893,168.47531,103.42198,169.22839,102.31494,169.22168z M102.14694,163.1001c-0.47607,0-1.65283,0.3501-1.73681,2.4375
			H103.73c0-0.54639-0.14015-2.4375-1.58299-2.4375H102.14694z"/>
		<path class="st1" d="M110.98242,169.02539l-1.58299,0.04201v-0.43408c0.93848,0,1.09277,0,1.09277-0.63037v-3.26367
			c0-0.79883-0.1543-1.55518-1.03662-1.55518c-1.12714,0.08011-1.97591,1.05878-1.8958,2.1859
			c0.00131,0.01846,0.00287,0.0369,0.00468,0.05531v2.57764c0,0.63037,0.1543,0.63037,1.09277,0.63037v0.43408l-1.56885-0.04201
			l-1.58299,0.04201v-0.43408c0.93848,0,1.09277,0,1.09277-0.63037v-3.75395c0-0.68652-0.1123-0.78465-1.09277-0.78465v-0.4341
			l1.9751-0.1543v1.4707c0.31136-0.87871,1.14101-1.46724,2.07324-1.4707c0.5424-0.04997,1.07959,0.13943,1.4707,0.51855
			c0.4341,0.50391,0.4341,0.93848,0.4341,2.14307v2.67529c0.01416,0.42041,0.36424,0.42041,1.09277,0.42041v0.43408
			L110.98242,169.02539z"/>
		<path class="st1" d="M121.88721,160.78906c-0.32059,0.01192-0.59015-0.2383-0.60207-0.55888
			c-0.00055-0.01456-0.00053-0.02911,0.00002-0.04366c-0.00247-0.26645,0.16713-0.5041,0.41992-0.58838
			c-0.14529-0.065-0.30273-0.09845-0.46191-0.09814c-0.6167,0-1.28906,0.67236-1.28906,1.90527v1.625h1.63916v0.4341h-1.59717
			v4.51025c0,0.50439,0.02832,0.65869,1.06496,0.65869h0.29395v0.43408c-0.56006-0.04201-1.21875-0.04201-1.77881-0.04201
			l-1.59717,0.04201v-0.43408c0.93848,0,1.09277,0,1.09277-0.63037v-4.53857h-1.10645v-0.4341h1.10645v-1.61084
			c-0.03166-1.19815,0.91397-2.19511,2.11212-2.22678c0.01974-0.00053,0.03951-0.00078,0.05927-0.00076
			c0.61798-0.07443,1.18045,0.36316,1.26025,0.98047c0.02077,0.31982-0.22168,0.59592-0.54149,0.61667
			C121.93706,160.79065,121.91209,160.79066,121.88721,160.78906z"/>
		<path class="st1" d="M127.26367,169.22168v-1.26074c-0.27515,0.76012-0.99875,1.26494-1.80713,1.26074
			c-2.12891,0-2.12891-1.2749-2.12891-2.36768v-2.10107c0-1.24658,0-1.28857-1.09277-1.28857v-0.4341l2.0591-0.1543v4.65039
			c0,0.72852,0.05615,1.38672,1.23291,1.38672c1.02246,0,1.69482-0.95215,1.69482-2.1709v-2.49318
			c0-0.68652-0.1123-0.78465-1.09277-0.78465v-0.4341l2.05908-0.1543v4.97266c0,0.68652,0.1123,0.78467,1.09277,0.78467v0.43408
			L127.26367,169.22168z"/>
		<path class="st1" d="M135.49609,169.02539l-1.58299,0.04201v-0.43408c0.93848,0,1.09277,0,1.09277-0.63037v-3.26367
			c0-0.79883-0.1543-1.55518-1.03662-1.55518c-1.12711,0.08008-1.97588,1.05869-1.89581,2.18578
			c0.00131,0.01851,0.00288,0.03699,0.0047,0.05544v2.57764c0,0.63037,0.1543,0.63037,1.09277,0.63037v0.43408l-1.56885-0.04201
			l-1.58299,0.04201v-0.43408c0.93848,0,1.09277,0,1.09277-0.63037v-3.75395c0-0.68652-0.1123-0.78465-1.09277-0.78465v-0.4341
			l1.9751-0.1543v1.4707c0.31136-0.87871,1.14101-1.46724,2.07324-1.4707c0.5424-0.04997,1.07959,0.13943,1.4707,0.51855
			c0.43408,0.50391,0.43408,0.93848,0.43408,2.14307v2.67529c0.01416,0.42041,0.36426,0.42041,1.09277,0.42041v0.43408
			L135.49609,169.02539z"/>
		<path class="st1" d="M140.84277,169.22168c-1.70883-0.04836-3.05609-1.47075-3.01172-3.17969
			c-0.06186-1.73279,1.29269-3.18765,3.02548-3.24951c0.00484-0.00018,0.00967-0.00034,0.01451-0.00049
			c1.07861,0,2.14307,0.54639,2.14307,1.49899c0.00735,0.35593-0.27522,0.65042-0.63115,0.65778
			c-0.35593,0.00734-0.65042-0.27524-0.65778-0.63116c-0.00009-0.00432-0.00014-0.00862-0.00014-0.01294
			c-0.0067-0.34921,0.27097-0.63774,0.62018-0.64442c0.01283-0.00026,0.02568-0.00011,0.03851,0.00043
			c-0.42169-0.34634-0.95343-0.53029-1.49899-0.51855c-0.74219,0-1.89111,0.58838-1.89111,2.87158
			c0,2.25537,1.23291,2.85742,1.9751,2.85742c0.88756,0.02013,1.66138-0.60007,1.83501-1.4707
			c0.02832-0.084,0.05615-0.14014,0.18213-0.14014c0.04201,0,0.18213,0,0.18213,0.14014
			C142.93478,168.48956,141.95609,169.25615,140.84277,169.22168z"/>
		<path class="st1" d="M146.83447,169.22168c-0.93349,0.06839-1.74567-0.6329-1.81406-1.56638
			c-0.00793-0.10823-0.00545-0.21698,0.00742-0.32474v-3.86621h-1.19092v-0.30811c1.37256-0.05615,1.793-1.55469,1.80713-2.70361
			h0.3501v2.57764h2.00293v0.4341h-2.00293v3.894c0,0.23828,0,1.5127,0.93848,1.5127c0.51807,0,0.93848-0.53223,0.93848-1.56885
			v-0.77h0.3501v0.79834C148.22119,168.22705,147.8291,169.22168,146.83447,169.22168z"/>
		<path class="st1" d="M151.01953,169.02539l-1.54053,0.04201v-0.43408c0.93848,0,1.09229,0,1.09229-0.63037v-3.76807
			c0-0.68652-0.12601-0.77049-1.03662-0.77049v-0.4341l1.96143-0.1543v5.14063c0,0.54639,0.05566,0.6167,0.98047,0.6167v0.43408
			C152,169.05322,151.50977,169.02539,151.01953,169.02539z M150.94971,161.34912c-0.40999-0.00766-0.73616-0.34622-0.7285-0.75623
			c0.00764-0.40999,0.34622-0.73615,0.75621-0.7285c0.40466,0.00755,0.72873,0.33781,0.72864,0.74254
			c-0.00374,0.41365-0.3421,0.74594-0.75575,0.74219C150.9501,161.34912,150.94991,161.34912,150.94971,161.34912z"/>
		<path class="st1" d="M156.39648,169.22168c-1.7245-0.01717-3.10953-1.42732-3.0957-3.15186
			c-0.09412-1.71362,1.21873-3.17909,2.93236-3.27321s3.17909,1.21873,3.27321,2.93236c0.00624,0.11353,0.00624,0.22733,0,0.34085
			c0.01689,1.72375-1.36679,3.13483-3.09056,3.15173C156.40936,169.22162,156.40292,169.22165,156.39648,169.22168z
			 M157.97948,164.01074c-0.32852-0.56311-0.93106-0.90974-1.58299-0.91064c-0.66008,0.01079-1.26614,0.367-1.59668,0.93848
			c-0.26802,0.60231-0.38358,1.26137-0.33643,1.91895c-0.04585,0.67709,0.07451,1.35515,0.35059,1.9751
			c0.32281,0.57907,0.9337,0.93813,1.59668,0.93848c0.69591-0.00394,1.32782-0.40685,1.625-1.03613
			c0.243-0.59456,0.34833-1.2364,0.30811-1.87744c0.05077-0.6696-0.07483-1.34082-0.36426-1.94678H157.97948z"/>
		<path class="st1" d="M165.834,169.02539l-1.58299,0.04201v-0.43408c0.93848,0,1.09277,0,1.09277-0.63037v-3.26367
			c0-0.79883-0.1543-1.55518-1.03662-1.55518c-1.12711,0.08008-1.97588,1.05869-1.89581,2.18578
			c0.00131,0.01851,0.00288,0.03699,0.0047,0.05544v2.57764c0,0.63037,0.1543,0.63037,1.09277,0.63037v0.43408l-1.56885-0.04201
			l-1.58299,0.04201v-0.43408c0.93848,0,1.09277,0,1.09277-0.63037v-3.75395c0-0.68652-0.1123-0.78465-1.09277-0.78465v-0.4341
			l1.9751-0.1543v1.4707c0.31136-0.87871,1.14101-1.46724,2.07324-1.4707c0.5424-0.04997,1.07959,0.13943,1.4707,0.51855
			c0.43408,0.50391,0.43408,0.93848,0.43408,2.14307v2.67529c0.01416,0.42041,0.36426,0.42041,1.09277,0.42041v0.43408
			L165.834,169.02539z"/>
	</g>
</g>
<g>
	<path class="st1" d="M103.78662,5.62207c-0.2041,0-0.37158-0.12012-0.37158-0.34814c0-0.13184,0.07178-0.45557,0.47949-0.53955
		c-0.17969-0.22803-0.47949-0.22803-0.51563-0.22803c-0.44385,0-0.57568,0.59961-0.68359,1.12744l-0.38379,1.90723h0.91162
		c0.20361,0,0.2876,0,0.2876,0.13184c0,0.21582-0.12012,0.21582-0.32373,0.21582h-0.93555l-0.74365,3.82568
		c-0.37158,1.93115-0.93555,3.44238-1.90674,3.44238c-0.4917,0-0.93555-0.27588-0.93555-0.74365
		c0-0.396,0.27588-0.61182,0.55176-0.61182c0.20361,0,0.37158,0.12012,0.37158,0.34814c0,0.0957-0.04785,0.45557-0.4917,0.53955
		c0.15576,0.21582,0.45557,0.22803,0.50391,0.22803c0.43164,0,0.57568-0.56396,0.70752-1.06787
		c0.19189-0.73145,0.21582-0.83936,0.35986-1.55908l0.85156-4.40137h-0.70801c-0.19141,0-0.2876,0-0.2876-0.12012
		c0-0.22754,0.10791-0.22754,0.31201-0.22754h0.75537l0.25195-1.30762c0.08398-0.40771,0.38379-1.9668,1.53516-1.9668
		c0.4917,0,0.95947,0.27588,0.95947,0.74365C104.33838,5.40576,104.0625,5.62207,103.78662,5.62207z"/>
	<path class="st1" d="M107.5791,15.72021c-0.13184,0-1.11572-0.7793-1.82324-2.21875c-0.62354-1.2832-0.7915-2.71045-0.7915-3.77783
		c0-1.4751,0.27588-2.7583,0.8877-3.96973c0.5874-1.17529,1.5708-2.03906,1.72705-2.03906
		c0.04785,0,0.10791,0.02393,0.10791,0.09619c0,0.03564,0,0.05957-0.12012,0.16748
		c-1.39111,1.41553-1.95508,3.41846-1.95508,5.74512c0,2.44678,0.67188,4.42578,1.87109,5.63672
		c0.2041,0.2041,0.2041,0.22803,0.2041,0.26416C107.68701,15.69629,107.62695,15.72021,107.5791,15.72021z"/>
	<path class="st1" d="M110.75928,12.83008c-0.65918,0-0.9834-0.50391-0.9834-1.05566c0-0.04785,0-0.19189,0.06006-0.43164
		l0.86377-3.4541h-0.97168c-0.19189,0-0.2876,0-0.2876-0.12012c0-0.22754,0.10791-0.22754,0.32373-0.22754h1.01953l0.46777-1.8833
		c0.04785-0.17969,0.15576-0.44385,0.45557-0.44385c0.22803,0,0.31201,0.18018,0.31201,0.28809c0,0-0.01221,0.13184-0.02441,0.15576
		l-0.47949,1.8833h0.94727c0.2041,0,0.28809,0,0.28809,0.13184c0,0.21582-0.12012,0.21582-0.32373,0.21582h-0.99561
		l-0.89941,3.58594c-0.04785,0.17969-0.09619,0.45557-0.09619,0.63574c0,0.39551,0.16797,0.47949,0.34814,0.47949
		c0.7793,0,1.24707-1.17529,1.39111-1.54688c0.06006-0.13184,0.07178-0.15625,0.20361-0.15625c0.04834,0,0.15625,0,0.15625,0.1084
		C112.53467,11.05469,111.93506,12.83008,110.75928,12.83008z"/>
	<path class="st1" d="M115.95557,13.68164c-0.58789,1.17529-1.57129,2.03857-1.72705,2.03857
		c-0.04785,0-0.10791-0.02393-0.10791-0.0957c0-0.03613,0-0.06006,0.12012-0.16797c1.39111-1.41553,1.95459-3.41846,1.95459-5.74512
		c0-2.44629-0.67139-4.42529-1.87061-5.63672c-0.2041-0.2041-0.2041-0.22803-0.2041-0.26367
		c0-0.07227,0.06006-0.09619,0.10791-0.09619c0.13184,0,1.11523,0.77979,1.82275,2.21875
		c0.67188,1.39111,0.79199,2.87842,0.79199,3.79004C116.84326,11.1626,116.56738,12.45801,115.95557,13.68164z"/>
</g>
</svg>
