<svg xmlns="http://www.w3.org/2000/svg" viewBox="0 0 217.7002 96.35037">
  <defs>
    <style>
      .cls-1, .cls-3 {
        fill: #8ff4dd;
      }

      .cls-2, .cls-4 {
        fill: none;
        stroke: #8ff4dd;
        stroke-width: 2px;
      }

      .cls-3 {
        fill-rule: evenodd;
      }

      .cls-4 {
        stroke-linecap: square;
        stroke-miterlimit: 10;
      }
    </style>
  </defs>
  <title>FullAdder</title>
  <g id="Layer_1" data-name="Layer 1">
    <g>
      <path class="cls-1" d="M163.88889,137.88889v22.22222h11.37566a11.11111,11.11111,0,0,0,0-22.22222Zm1.5873,1.5873h9.78836A9.19008,9.19008,0,0,1,184.52381,149,9.40935,9.40935,0,0,1,175,158.52381h-9.52381Z" transform="translate(-53.81299 -63.76074)"/>
      <line class="cls-2" x1="132.18701" y1="85.23926" x2="146.18701" y2="85.23926"/>
      <line class="cls-2" x1="111.18701" y1="79.23926" x2="96.18701" y2="79.23926"/>
      <line class="cls-2" x1="111.18701" y1="91.23926" x2="96.18701" y2="91.23926"/>
    </g>
    <g>
      <g>
        <path class="cls-3" d="M110.69444,84.44444c-.88742,1.46911-1.25,1.66667-1.25,1.66667h-2.03125l1.11112-1.35417a16.71871,16.71871,0,0,0,0-19.51389l-1.11112-1.35416h2.03125a11.2309,11.2309,0,0,1,1.23264,1.66666A18.25872,18.25872,0,0,1,113.33333,75,18.46305,18.46305,0,0,1,110.69444,84.44444Z" transform="translate(-53.81299 -63.76074)"/>
        <path class="cls-3" d="M110.60764,63.88889l1.11111,1.35416a16.71871,16.71871,0,0,1,0,19.51389l-1.11111,1.35417h9.53125a19.227,19.227,0,0,0,7.56944-1.33681c3.29739-1.35042,6.96475-4.07959,9.82639-9.375L136.80556,75l.72916-.39931c-5.724-10.592-14.75329-10.7118-17.39583-10.7118Zm3.26389,1.66666h6.26736c2.60232,0,10.15936-.07233,15.53819,9.44445-2.64821,4.68281-5.84515,7.04661-8.73264,8.22916a16.95891,16.95891,0,0,1-6.80555,1.21528h-6.25a18.169,18.169,0,0,0-.01736-18.88889Z" transform="translate(-53.81299 -63.76074)"/>
      </g>
      <line class="cls-2" x1="82.18701" y1="11.23926" x2="96.18701" y2="11.23926"/>
      <line class="cls-2" x1="61.18701" y1="5.23926" x2="46.18701" y2="5.23926"/>
      <line class="cls-2" x1="61.18701" y1="17.23926" x2="46.18701" y2="17.23926"/>
    </g>
    <g>
      <g>
        <path class="cls-3" d="M160.69444,96.44444c-.88742,1.46911-1.25,1.66667-1.25,1.66667h-2.03125l1.11112-1.35417a16.71871,16.71871,0,0,0,0-19.51389l-1.11112-1.35416h2.03125a11.2309,11.2309,0,0,1,1.23264,1.66666A18.25872,18.25872,0,0,1,163.33333,87,18.46305,18.46305,0,0,1,160.69444,96.44444Z" transform="translate(-53.81299 -63.76074)"/>
        <path class="cls-3" d="M160.60764,75.88889l1.11111,1.35416a16.71871,16.71871,0,0,1,0,19.51389l-1.11111,1.35417h9.53125a19.227,19.227,0,0,0,7.56944-1.33681c3.29739-1.35042,6.96475-4.07959,9.82639-9.375L186.80556,87l.72916-.39931c-5.724-10.592-14.75329-10.7118-17.39583-10.7118Zm3.26389,1.66666h6.26736c2.60232,0,10.15936-.07233,15.53819,9.44445-2.64821,4.68281-5.84515,7.04661-8.73264,8.22916a16.95891,16.95891,0,0,1-6.80555,1.21528h-6.25a18.169,18.169,0,0,0-.01736-18.88889Z" transform="translate(-53.81299 -63.76074)"/>
      </g>
      <line class="cls-2" x1="132.18701" y1="23.23926" x2="146.18701" y2="23.23926"/>
      <line class="cls-2" x1="111.18701" y1="17.23926" x2="96.18701" y2="17.23926"/>
      <line class="cls-2" x1="111.18701" y1="29.23926" x2="96.18701" y2="29.23926"/>
    </g>
    <g>
      <path class="cls-1" d="M163.88889,106.88889v22.22222h11.37566a11.11111,11.11111,0,0,0,0-22.22222Zm1.5873,1.5873h9.78836A9.19008,9.19008,0,0,1,184.52381,118,9.40935,9.40935,0,0,1,175,127.52381h-9.52381Z" transform="translate(-53.81299 -63.76074)"/>
      <line class="cls-2" x1="132.18701" y1="54.23926" x2="146.18701" y2="54.23926"/>
      <line class="cls-2" x1="111.18701" y1="48.23926" x2="96.18701" y2="48.23926"/>
      <line class="cls-2" x1="111.18701" y1="60.23926" x2="96.18701" y2="60.23926"/>
    </g>
    <g>
      <path class="cls-3" d="M210.60764,122.88889l1.11111,1.35416a16.71871,16.71871,0,0,1,0,19.51389l-1.11111,1.35417h9.53125a19.22686,19.22686,0,0,0,7.56944-1.33681c3.29739-1.35042,6.96475-4.07959,9.82639-9.375L236.80556,134l.72916-.39931c-5.724-10.592-14.75329-10.7118-17.39583-10.7118Zm3.26389,1.66666h6.26736c2.60232,0,10.15936-.07233,15.53819,9.44445-2.64821,4.68282-5.84515,7.04661-8.73264,8.22916a16.95891,16.95891,0,0,1-6.80555,1.21528h-6.25a18.169,18.169,0,0,0-.01736-18.88889Z" transform="translate(-53.81299 -63.76074)"/>
      <line class="cls-2" x1="196.18701" y1="70.23926" x2="182.18701" y2="70.23926"/>
      <line class="cls-2" x1="161.18701" y1="64.23926" x2="146.18701" y2="64.23926"/>
      <line class="cls-2" x1="161.18701" y1="76.23926" x2="146.18701" y2="76.23926"/>
    </g>
  </g>
  <g id="Layer_2" data-name="Layer 2">
    <line class="cls-4" x1="46.18701" y1="5.23926" x2="16.18701" y2="5.23926"/>
    <line class="cls-4" x1="46.18701" y1="17.23926" x2="16.18701" y2="17.23926"/>
    <circle class="cls-1" cx="36.18701" cy="5.23926" r="2.5"/>
    <circle class="cls-1" cx="26.18701" cy="17.23926" r="2.5"/>
    <path class="cls-1" d="M63.669,72.312c-.45606,0-1.29541,0-1.72706.03613v-.37158c.32374,0,.99512,0,.99512-.35986a.85181.85181,0,0,0-.03564-.168l-.63574-1.835H59.30322l-.55176,1.5708a.80868.80868,0,0,0-.02392.18018c0,.312.2998.61181.89941.61181v.37158L58.24756,72.312l-1.22315.03613v-.37158a1.24674,1.24674,0,0,0,1.34327-.80371L60.8501,64.001c.06006-.168.09619-.24024.28808-.24024s.21582.084.27588.24024l2.59033,7.4956c.13233.396.29981.48,1.01954.48h.21582v.37158Zm-2.89063-6.96826L59.43506,69.2417h2.69873Z" transform="translate(-53.81299 -63.76074)"/>
    <path class="cls-1" d="M61.77393,85.34814H57.07227v-.37158h.28808c.92334,0,.94727-.13232.94727-.564V78.09229c0-.43213-.02393-.564-.94727-.564h-.28808v-.37158h4.38964c1.55909,0,2.6626.9834,2.6626,2.02685,0,.8877-.82763,1.65528-1.99072,1.88282a2.355,2.355,0,0,1,2.31445,2.08691A2.45239,2.45239,0,0,1,61.77393,85.34814Zm-.396-7.81982h-1.4873c-.56348,0-.58741.084-.58741.48v2.9502H61.042a1.80854,1.80854,0,0,0,1.919-1.77491A1.59367,1.59367,0,0,0,61.37793,77.52832Zm.18018,3.69434H59.30322v3.27392c0,.396.02393.48.58741.48h1.49951a1.88184,1.88184,0,0,0,.168-3.7539Z" transform="translate(-53.81299 -63.76074)"/>
    <path class="cls-1" d="M257.2627,90.61182a3.00588,3.00588,0,0,1-2.207-.83936c-.3955.63574-.43164.68359-.43164.68359-.084.13184-.0957.15577-.17968.15577-.13184,0-.13184-.084-.13184-.2876V87.92529c0-.21582,0-.2998.15576-.2998a.12532.12532,0,0,1,.144.12012,2.427,2.427,0,0,0,.74317,1.84716,2.8942,2.8942,0,0,0,1.895.64746,1.64444,1.64444,0,0,0,1.60742-1.71484,1.751,1.751,0,0,0-.37207-1.10351,1.59131,1.59131,0,0,0-1.01953-.61182c-.83936-.20361-1.45117-.34766-1.583-.396a2.3234,2.3234,0,0,1,.76758-4.52148,2.46855,2.46855,0,0,1,1.91894.83984l.41993-.68359c.084-.144.0957-.15625.17968-.15625.13233,0,.13233.084.13233.28808v2.41065c0,.228,0,.2876-.15625.2876-.13184,0-.13184-.07178-.144-.14356-.07177-.54-.33544-2.50683-2.33837-2.50683a1.56772,1.56772,0,0,0-.37207,3.09423l1.53515.37207a2.45343,2.45343,0,0,1,1.79932,2.42237A2.40429,2.40429,0,0,1,257.2627,90.61182Z" transform="translate(-53.81299 -63.76074)"/>
    <g>
      <path class="cls-1" d="M57.98633,97.61182a4.36378,4.36378,0,0,1,0-8.71924,2.94221,2.94221,0,0,1,2.207,1.03174l.59961-.8877c.0957-.144.144-.144.19189-.144.13184,0,.13184.084.13184.28808V92.023c0,.252,0,.28809-.1919.28809-.168,0-.168-.03614-.19189-.20411-.23975-1.751-1.30713-2.84228-2.61475-2.84228-.73144,0-3.07031.40771-3.07031,3.99365,0,3.57422,2.35108,3.98193,3.08252,3.98193a2.71592,2.71592,0,0,0,2.68652-2.69873c.01221-.11962.01221-.19189.14405-.19189.15576,0,.15576.084.15576.2041A3.13588,3.13588,0,0,1,57.98633,97.61182Z" transform="translate(-53.81299 -63.76074)"/>
      <path class="cls-1" d="M62.80469,101.32324l-.769.021v-.2168c.46827,0,.54541,0,.54541-.31445V98.93311c0-.34229-.063-.38428-.51709-.38428V98.332l.978-.07666v2.56494c0,.27246.02832.30713.48926.30713v.2168C63.294,101.3374,63.04932,101.32324,62.80469,101.32324Zm-.03516-3.82959a.3773.3773,0,0,1-.37012-.3706.37325.37325,0,0,1,.377-.37012.37039.37039,0,1,1-.00684.74072Z" transform="translate(-53.81299 -63.76074)"/>
      <path class="cls-1" d="M66.70605,101.32324l-.78955.021v-.2168c.46827,0,.54493,0,.54493-.31445V99.18457c0-.39795-.07666-.77539-.51709-.77539a1.02041,1.02041,0,0,0-.94336,1.11816V100.813c0,.31445.07666.31445.54492.31445v.2168l-.78272-.021-.78955.021v-.2168c.46826,0,.54492,0,.54492-.31445V98.94043c0-.34277-.05566-.3916-.54492-.3916V98.332l.98535-.07666v.73389a1.10126,1.10126,0,0,1,1.03418-.73389.93244.93244,0,0,1,.73389.2583c.2168.252.2168.46826.2168,1.06934v1.335c.00683.20947.18164.20947.54492.20947v.2168Z" transform="translate(-53.81299 -63.76074)"/>
    </g>
    <polyline class="cls-4" points="96.187 11.239 96.187 17.239 96.187 48.239"/>
    <line class="cls-4" x1="96.18701" y1="29.23926" x2="16.18701" y2="29.23926"/>
    <polyline class="cls-4" points="96.187 60.239 84.187 60.239 84.187 29.239"/>
    <polyline class="cls-4" points="96.187 79.239 36.187 79.239 36.187 5.239"/>
    <polyline class="cls-4" points="96.187 91.239 26.187 91.239 26.187 17.239"/>
    <line class="cls-4" x1="146.18701" y1="54.23926" x2="146.18701" y2="64.23926"/>
    <line class="cls-4" x1="146.18701" y1="76.23926" x2="146.18701" y2="85.23926"/>
    <line class="cls-4" x1="146.18701" y1="23.23926" x2="195.18701" y2="23.23926"/>
    <g>
      <path class="cls-1" d="M257.98633,138.61182a4.36378,4.36378,0,0,1,0-8.71924,2.94221,2.94221,0,0,1,2.207,1.03174l.59961-.8877c.0957-.144.144-.144.19189-.144.13184,0,.13184.084.13184.28808V133.023c0,.25195,0,.28809-.1919.28809-.168,0-.168-.03614-.19189-.20411-.23975-1.751-1.30713-2.84228-2.61475-2.84228-.73144,0-3.07031.40771-3.07031,3.99365,0,3.57422,2.35108,3.98193,3.08252,3.98193a2.71592,2.71592,0,0,0,2.68652-2.69873c.01221-.11962.01221-.19189.144-.19189.15576,0,.15576.084.15576.2041A3.13588,3.13588,0,0,1,257.98633,138.61182Z" transform="translate(-53.81299 -63.76074)"/>
      <path class="cls-1" d="M263.54541,142.4209a1.55977,1.55977,0,0,1-1.54443-1.57227,1.55019,1.55019,0,1,1,3.0957,0A1.55659,1.55659,0,0,1,263.54541,142.4209Zm.78955-2.59961a.91559.91559,0,0,0-.78955-.4541.93742.93742,0,0,0-.79687.46826,2.006,2.006,0,0,0-.16749.95752,2.084,2.084,0,0,0,.17432.98535.91444.91444,0,0,0,.79688.46826.90073.90073,0,0,0,.81054-.51709,2.12284,2.12284,0,0,0,.15381-.93652A1.92015,1.92015,0,0,0,264.335,139.82129Z" transform="translate(-53.81299 -63.76074)"/>
      <path class="cls-1" d="M268.03516,142.4209V141.792a.95286.95286,0,0,1-.90137.62891c-1.0625,0-1.0625-.63574-1.0625-1.18067v-1.04834c0-.62207,0-.64306-.54492-.64306v-.2168l1.02734-.07666v2.32031c0,.36328.02783.6919.61475.6919.51025,0,.8457-.47559.8457-1.0835v-1.24365c0-.34277-.05566-.3916-.54492-.3916v-.2168l1.02734-.07666v2.481c0,.34228.05567.39111.54492.39111v.2168Z" transform="translate(-53.81299 -63.76074)"/>
      <path class="cls-1" d="M270.82129,142.4209a.84558.84558,0,0,1-.90186-.94336v-1.92871h-.59375V139.395c.68506-.02783.89453-.77588.90137-1.34863h.17481V139.332h.99951v.2168h-.99951v1.94287c0,.11865,0,.75488.46826.75488.25879,0,.46826-.26562.46826-.78271v-.38477h.1748v.39844C271.51318,141.9248,271.31738,142.4209,270.82129,142.4209Z" transform="translate(-53.81299 -63.76074)"/>
    </g>
    <circle class="cls-1" cx="96.18701" cy="17.23926" r="2.5"/>
    <circle class="cls-1" cx="84.18701" cy="29.23926" r="2.5"/>
  </g>
</svg>
