<?xml version="1.0" encoding="utf-8"?>
<!-- Generator: Adobe Illustrator 23.0.3, SVG Export Plug-In . SVG Version: 6.00 Build 0)  -->
<svg version="1.1" id="Layer_1" xmlns="http://www.w3.org/2000/svg" xmlns:xlink="http://www.w3.org/1999/xlink" x="0px" y="0px"
	 viewBox="0 0 168.9 82.3" style="enable-background:new 0 0 168.9 82.3;" xml:space="preserve">
<style type="text/css">
	.st0{fill-rule:evenodd;clip-rule:evenodd;fill:#8FF4DD;}
	.st1{fill:none;stroke:#8FF4DD;stroke-width:2;}
	.st2{fill:#8FF4DD;}
	.st3{fill:none;stroke:#8FF4DD;stroke-width:1.5;}
	.st4{fill:none;stroke:#8FF4DD;stroke-width:2;stroke-linecap:square;stroke-miterlimit:10;}
</style>
<title>GateInputCostCircuit</title>
<g>
	<path class="st0" d="M120.8,20.1l1.1,1.4c4.2,5.8,4.2,13.7,0,19.5l-1.1,1.4h9.5c2.6,0.1,5.2-0.4,7.6-1.3c3.3-1.4,7-4.1,9.8-9.4
		l-0.7-0.4l0.7-0.4c-5.7-10.6-14.8-10.7-17.4-10.7h-9.5V20.1z M124,21.7h6.3c2.6,0,10.2-0.1,15.5,9.4c-2.6,4.7-5.8,7-8.7,8.2
		c-2.2,0.9-4.5,1.3-6.8,1.2H124C127.6,34.8,127.6,27.5,124,21.7L124,21.7z"/>
	<line class="st1" x1="160.2" y1="31.2" x2="146.2" y2="31.2"/>
	<line class="st1" x1="125.2" y1="25.2" x2="110.2" y2="25.2"/>
	<line class="st1" x1="125.2" y1="37.2" x2="110.2" y2="37.2"/>
	<g>
		<path class="st2" d="M74,40.1v22.2h11.4c6.1,0,11.1-5,11.1-11.1s-5-11.1-11.1-11.1H74z M75.6,41.7h9.8c5.1,0,9.2,4,9.3,9.1
			c0,0.1,0,0.3,0,0.4c0.1,5.2-4.1,9.5-9.3,9.5c-0.1,0-0.2,0-0.2,0h-9.5L75.6,41.7z"/>
		<line class="st1" x1="96.2" y1="51.2" x2="110.2" y2="51.2"/>
		<line class="st1" x1="75.2" y1="45.2" x2="60.2" y2="45.2"/>
		<line class="st1" x1="75.2" y1="57.2" x2="60.2" y2="57.2"/>
	</g>
	<path class="st0" d="M20.8,60.1l1.1,1.4c4.2,5.8,4.2,13.7,0,19.5l-1.1,1.4h9.5c2.6,0.1,5.2-0.4,7.6-1.3c3.3-1.4,7-4.1,9.8-9.4
		L47,71.2l0.7-0.4C42,60.2,32.9,60.1,30.3,60.1H20.8z M24,61.7h6.3c2.6,0,10.2-0.1,15.5,9.4c-2.6,4.7-5.8,7-8.7,8.2
		c-2.2,0.9-4.5,1.3-6.8,1.2H24C27.6,74.8,27.6,67.5,24,61.7z"/>
	<line class="st1" x1="60.2" y1="71.2" x2="46.2" y2="71.2"/>
	<line class="st1" x1="25.2" y1="65.2" x2="10.2" y2="65.2"/>
	<line class="st1" x1="25.2" y1="77.2" x2="10.2" y2="77.2"/>
	<g>
		<path class="st1" d="M51.3,45.2h10.1 M24,45.2H10.2"/>
		<path class="st2" d="M23.5,32.7v24.9l1.2-0.6l22.8-11.1v-1.5L24.7,33.3L23.5,32.7z M25.1,35.4l20.1,9.8L25.1,55V35.4z"/>
		<path class="st3" d="M51.3,45.2c0,1.2-1,2.2-2.2,2.2s-2.2-1-2.2-2.2s1-2.2,2.2-2.2l0,0C50.3,43,51.3,44,51.3,45.2z"/>
	</g>
	<g>
		<path class="st2" d="M24,0.1v22.2h11.4c6.1,0,11.1-5,11.1-11.1s-5-11.1-11.1-11.1l0,0C35.4,0.1,24,0.1,24,0.1z M25.6,1.7h9.8
			c5.1,0,9.2,4,9.3,9.1c0,0.1,0,0.3,0,0.4c0.1,5.2-4.1,9.5-9.3,9.5c-0.1,0-0.2,0-0.2,0h-9.5L25.6,1.7z"/>
		<line class="st1" x1="46.2" y1="11.2" x2="60.2" y2="11.2"/>
		<line class="st1" x1="25.2" y1="5.2" x2="10.2" y2="5.2"/>
		<line class="st1" x1="25.2" y1="17.2" x2="10.2" y2="17.2"/>
	</g>
</g>
<g>
	<line class="st4" x1="110.2" y1="37.2" x2="110.2" y2="51.2"/>
	<polyline class="st4" points="59.2,11.2 110.2,11.2 110.2,25.2 	"/>
	<line class="st4" x1="60.2" y1="57.2" x2="60.2" y2="71.2"/>
	<path class="st2" d="M168.6,30.1c-0.2-1.7-0.5-2.3-2.3-2.3h-1.4c-0.6,0-0.6,0.1-0.6,0.5v3h1c1.2,0,1.3-0.4,1.3-1.4h0.3v3.2h-0.3
		c0-1-0.1-1.4-1.3-1.4h-1v3c0,0.4,0,0.6,1.1,0.6h0.4v0.4c-0.4,0-1.5,0-2,0s-1.4,0-1.8,0v-0.4h0.3c0.9,0,0.9-0.1,0.9-0.6v-6.3
		c0-0.4,0-0.6-0.9-0.6H162v-0.4h6.6l0.3,2.7L168.6,30.1z"/>
	<path class="st2" d="M6.6,8.6c-0.5,0-1.3,0-1.7,0V8.2c0.3,0,1,0,1-0.4c0-0.1,0-0.1,0-0.2L5.2,5.9h-3L1.7,7.4c0,0.1,0,0.1,0,0.2
		c0,0.3,0.3,0.6,0.9,0.6v0.4H1.2L0,8.6V8.2C0.6,8.3,1.1,8,1.3,7.4l2.5-7.2C3.9,0.1,3.9,0,4.1,0s0.2,0.1,0.3,0.2L7,7.7
		c0.1,0.4,0.3,0.5,1,0.5h0.2v0.4L6.6,8.6z M3.8,1.6L2.4,5.5h2.7L3.8,1.6z"/>
	<path class="st2" d="M4.7,20.6H0v-0.4h0.3c0.9,0,0.9-0.1,0.9-0.6v-6.3c0-0.4,0-0.6-0.9-0.6H0v-0.4h4.4c1.6,0,2.7,1,2.7,2
		c0,0.9-0.8,1.7-2,1.9c1.2,0,2.2,0.9,2.3,2.1C7.3,19.7,6.1,20.7,4.7,20.6z M4.4,12.8H2.9c-0.6,0-0.6,0.1-0.6,0.5v3H4
		c1,0.1,1.9-0.7,1.9-1.7v-0.1C6,13.5,5.3,12.8,4.4,12.8L4.4,12.8z M4.5,16.5H2.3v3.3c0,0.4,0,0.5,0.6,0.5h1.5c1,0,1.9-0.9,1.9-1.9
		C6.2,17.4,5.5,16.6,4.5,16.5L4.5,16.5z"/>
	<path class="st2" d="M4.5,48.9c-2.4-0.1-4.3-2.1-4.2-4.5c0.1-2.3,1.9-4.1,4.2-4.2c0.9,0,1.7,0.4,2.2,1l0.6-0.9
		c0.1-0.1,0.1-0.1,0.2-0.1s0.1,0.1,0.1,0.3v2.8c0,0.3,0,0.3-0.2,0.3s-0.2,0-0.2-0.2c-0.2-1.8-1.3-2.8-2.6-2.8c-0.7,0-3.1,0.4-3.1,4
		s2.4,4,3.1,4c1.5,0,2.7-1.2,2.7-2.7c0-0.1,0-0.2,0.1-0.2c0.2,0,0.2,0.1,0.2,0.2C7.5,47.5,6.2,48.8,4.5,48.9z"/>
	<path class="st2" d="M4.4,69.6H0v-0.4h0.3c0.9,0,0.9-0.1,0.9-0.6v-6.3c0-0.4,0-0.6-0.9-0.6H0v-0.4h4.4c2.2,0.1,3.8,2,3.7,4.2
		C8.2,67.7,6.6,69.5,4.4,69.6L4.4,69.6z M6.3,62.9c-0.5-0.7-1.3-1.1-2.2-1.1H2.9c-0.6,0-0.6,0.1-0.6,0.5v6.5c0,0.4,0,0.5,0.6,0.5
		h1.2c0.8,0,1.6-0.4,2.1-1c0.5-0.8,0.7-1.7,0.7-2.6C7,64.6,6.7,63.7,6.3,62.9L6.3,62.9z"/>
	<path class="st2" d="M6.9,81.6H0v-0.4h0.3c0.9,0,0.9-0.1,0.9-0.6v-6.3c0-0.4,0-0.6-0.9-0.6H0v-0.4h6.8L7.1,76H6.8
		c-0.2-1.7-0.5-2.3-2.4-2.3H2.9c-0.6,0-0.6,0.1-0.6,0.5v2.9h1.1c1.2,0,1.3-0.4,1.3-1.4H5v3.2H4.7c0-1-0.1-1.4-1.3-1.4H2.3v3.2
		c0,0.4,0,0.5,0.6,0.5h1.6c2.1,0,2.3-0.9,2.6-2.7h0.3L6.9,81.6z"/>
</g>
</svg>
