<svg xmlns="http://www.w3.org/2000/svg" viewBox="0 0 168.93213 82.30545">
  <defs>
    <style>
      .cls-1, .cls-3 {
        fill: #8ff4dd;
      }

      .cls-1 {
        fill-rule: evenodd;
      }

      .cls-2, .cls-4, .cls-5 {
        fill: none;
        stroke: #8ff4dd;
      }

      .cls-2, .cls-5 {
        stroke-width: 2px;
      }

      .cls-4 {
        stroke-width: 1.5px;
      }

      .cls-5 {
        stroke-linecap: square;
        stroke-miterlimit: 10;
      }
    </style>
  </defs>
  <title>GateInputCostCircuit</title>
  <g id="Layer_1" data-name="Layer 1">
    <path class="cls-1" d="M210.60764,213.88889l1.11111,1.35416a16.71871,16.71871,0,0,1,0,19.51389l-1.11111,1.35417h9.53125a19.22686,19.22686,0,0,0,7.56944-1.33681c3.29739-1.35042,6.96475-4.07959,9.82639-9.375L236.80556,225l.72916-.39931c-5.724-10.592-14.75329-10.7118-17.39583-10.7118Zm3.26389,1.66666h6.26736c2.60232,0,10.15936-.07233,15.53819,9.44445-2.64821,4.68282-5.84515,7.04661-8.73264,8.22916a16.95891,16.95891,0,0,1-6.80555,1.21528h-6.25a18.169,18.169,0,0,0-.01736-18.88889Z" transform="translate(-89.84424 -193.80566)"/>
    <line class="cls-2" x1="160.15576" y1="31.19434" x2="146.15576" y2="31.19434"/>
    <line class="cls-2" x1="125.15576" y1="25.19434" x2="110.15576" y2="25.19434"/>
    <line class="cls-2" x1="125.15576" y1="37.19434" x2="110.15576" y2="37.19434"/>
    <g>
      <path class="cls-3" d="M163.88889,233.88889v22.22222h11.37566a11.11111,11.11111,0,0,0,0-22.22222Zm1.5873,1.5873h9.78836A9.19008,9.19008,0,0,1,184.52381,245,9.40935,9.40935,0,0,1,175,254.52381h-9.52381Z" transform="translate(-89.84424 -193.80566)"/>
      <line class="cls-2" x1="96.15576" y1="51.19434" x2="110.15576" y2="51.19434"/>
      <line class="cls-2" x1="75.15576" y1="45.19434" x2="60.15576" y2="45.19434"/>
      <line class="cls-2" x1="75.15576" y1="57.19434" x2="60.15576" y2="57.19434"/>
    </g>
    <path class="cls-1" d="M110.60764,253.88889l1.11111,1.35416a16.71871,16.71871,0,0,1,0,19.51389l-1.11111,1.35417h9.53125a19.22686,19.22686,0,0,0,7.56944-1.33681c3.29739-1.35042,6.96475-4.07959,9.82639-9.375L136.80556,265l.72916-.39931c-5.724-10.592-14.75329-10.7118-17.39583-10.7118Zm3.26389,1.66666h6.26736c2.60232,0,10.15936-.07233,15.53819,9.44445-2.64821,4.68282-5.84515,7.04661-8.73264,8.22916a16.95891,16.95891,0,0,1-6.80555,1.21528h-6.25a18.169,18.169,0,0,0-.01736-18.88889Z" transform="translate(-89.84424 -193.80566)"/>
    <line class="cls-2" x1="60.15576" y1="71.19434" x2="46.15576" y2="71.19434"/>
    <line class="cls-2" x1="25.15576" y1="65.19434" x2="10.15576" y2="65.19434"/>
    <line class="cls-2" x1="25.15576" y1="77.19434" x2="10.15576" y2="77.19434"/>
    <g>
      <path class="cls-2" d="M141.194,239H150m-36.66022,0H100" transform="translate(-89.84424 -193.80566)"/>
      <path class="cls-3" d="M113.29824,226.54607v24.90786l1.1985-.59056,22.80615-11.11648v-1.49378l-22.80615-11.11648Zm1.66747,2.6749L135.04486,239l-20.07915,9.779Z" transform="translate(-89.84424 -193.80566)"/>
      <path class="cls-4" d="M141.10681,239a2.2233,2.2233,0,1,1-2.22329-2.2233A2.2233,2.2233,0,0,1,141.10681,239Z" transform="translate(-89.84424 -193.80566)"/>
    </g>
    <g>
      <path class="cls-3" d="M113.88889,193.88889v22.22222h11.37566a11.11111,11.11111,0,1,0,0-22.22222Zm1.5873,1.5873h9.78836A9.19008,9.19008,0,0,1,134.52381,205,9.40935,9.40935,0,0,1,125,214.52381h-9.52381Z" transform="translate(-89.84424 -193.80566)"/>
      <line class="cls-2" x1="46.15576" y1="11.19434" x2="60.15576" y2="11.19434"/>
      <line class="cls-2" x1="25.15576" y1="5.19434" x2="10.15576" y2="5.19434"/>
      <line class="cls-2" x1="25.15576" y1="17.19434" x2="10.15576" y2="17.19434"/>
    </g>
  </g>
  <g id="Layer_2" data-name="Layer 2">
    <line class="cls-5" x1="110.15576" y1="37.19434" x2="110.15576" y2="51.19434"/>
    <polyline class="cls-5" points="59.156 11.194 110.156 11.194 110.156 25.194"/>
    <line class="cls-5" x1="60.15576" y1="57.19434" x2="60.15576" y2="71.19434"/>
    <path class="cls-3" d="M258.47656,223.936c-.1914-1.65528-.49218-2.32666-2.291-2.32666h-1.43946c-.5625,0-.58691.084-.58691.47949v3.03467h1.03125c1.15137,0,1.27148-.396,1.27148-1.40333h.29981v3.17823h-.29981c0-1.01953-.12011-1.40332-1.27148-1.40332h-1.03125v2.95068c0,.41943,0,.57568,1.13965.57568h.39551v.37159c-.43262-.03614-1.52344-.03614-2.01465-.03614-.46875,0-1.4043,0-1.82324.03614v-.37159h.28808c.92285,0,.94727-.13232.94727-.564v-6.28467c0-.43164-.02442-.56347-.94727-.56347h-.28808v-.37208h6.584l.33594,2.69874Z" transform="translate(-89.84424 -193.80566)"/>
    <path class="cls-3" d="M96.48877,202.35693c-.45606,0-1.29541,0-1.72705.03614v-.37159c.32373,0,.99512,0,.99512-.35986a.85184.85184,0,0,0-.03565-.168l-.63574-1.835h-2.9624l-.55176,1.5708a.80824.80824,0,0,0-.02393.18018c0,.312.29981.61181.89942.61181v.37159l-1.3794-.03614-1.22314.03614v-.37159a1.24674,1.24674,0,0,0,1.34326-.80371l2.48242-7.17187c.06006-.168.09619-.24024.28809-.24024s.21582.084.27588.24024l2.59033,7.4956c.13232.396.2998.48,1.01953.48h.21582v.37159Zm-2.89063-6.96826-1.34326,3.898h2.69873Z" transform="translate(-89.84424 -193.80566)"/>
    <path class="cls-3" d="M94.59375,214.39307H89.89209v-.37159h.28809c.92334,0,.94726-.13232.94726-.564v-6.32031c0-.43213-.02392-.564-.94726-.564h-.28809v-.37158h4.38965c1.55908,0,2.6626.9834,2.6626,2.02686,0,.88769-.82764,1.65527-1.99073,1.88281a2.355,2.355,0,0,1,2.31446,2.08691A2.45241,2.45241,0,0,1,94.59375,214.39307Zm-.396-7.81983h-1.4873c-.56348,0-.5874.084-.5874.48v2.9502h1.73877a1.80854,1.80854,0,0,0,1.91894-1.7749A1.59367,1.59367,0,0,0,94.19775,206.57324Zm.18018,3.69434H92.12305v3.27392c0,.396.02392.48.5874.48H94.21a1.88184,1.88184,0,0,0,.168-3.7539Z" transform="translate(-89.84424 -193.80566)"/>
    <path class="cls-3" d="M94.30566,242.65674a4.36376,4.36376,0,0,1,0-8.71924,2.94223,2.94223,0,0,1,2.207,1.03174l.5996-.8877c.09571-.144.144-.144.1919-.144.13184,0,.13184.084.13184.28809v2.84228c0,.25195,0,.28809-.1919.28809-.168,0-.168-.03614-.19189-.2041-.23975-1.751-1.30713-2.84229-2.61475-2.84229-.73145,0-3.07031.40772-3.07031,3.99365,0,3.57422,2.35107,3.98194,3.08252,3.98194a2.71623,2.71623,0,0,0,2.68652-2.69873c.01221-.11963.01221-.1919.144-.1919.15577,0,.15577.084.15577.2041A3.13588,3.13588,0,0,1,94.30566,242.65674Z" transform="translate(-89.84424 -193.80566)"/>
    <path class="cls-3" d="M94.27,263.39258H89.88037v-.3711h.2876c.92383,0,.94775-.13281.94775-.56445v-6.32031c0-.43164-.02392-.56348-.94775-.56348h-.2876v-.37207H94.27a3.93559,3.93559,0,0,1,3.66992,4.16211A3.85154,3.85154,0,0,1,94.27,263.39258Zm1.84668-6.70313a2.587,2.587,0,0,0-2.18262-1.11621H92.73486c-.564,0-.58789.084-.58789.47949V262.541c0,.39648.02393.48046.58789.48046H93.9458a2.62939,2.62939,0,0,0,2.13525-1.01953,4.11688,4.11688,0,0,0,.65918-2.63867A4.63551,4.63551,0,0,0,96.1167,256.68945Z" transform="translate(-89.84424 -193.80566)"/>
    <path class="cls-3" d="M96.77637,275.39258H89.85645v-.3711H90.144c.92334,0,.94776-.13281.94776-.56445v-6.28418c0-.43164-.02442-.56347-.94776-.56347h-.28759v-.37208h6.752l.33594,2.69825h-.29981c-.19189-1.666-.51562-2.32617-2.35058-2.32617H92.74658c-.56347,0-.5874.084-.5874.47949v2.87793h1.0791c1.16358,0,1.29541-.3711,1.29541-1.40235h.29981v3.17774h-.29981c0-1.01953-.13183-1.40235-1.29541-1.40235h-1.0791V274.541c0,.39648.02393.48046.5874.48046H94.3418c2.063,0,2.33886-.876,2.63867-2.72265h.2998Z" transform="translate(-89.84424 -193.80566)"/>
  </g>
</svg>
