<svg xmlns="http://www.w3.org/2000/svg" viewBox="0 0 250 171.93896">
  <defs>
    <style>
      .cls-1, .cls-2 {
        fill: none;
        stroke-miterlimit: 10;
        stroke-width: 2px;
      }

      .cls-1 {
        stroke: #000;
      }

      .cls-2 {
        stroke: #c1272d;
        stroke-linecap: round;
      }
    </style>
  </defs>
  <title>HalfWaveSymmetricFunction</title>
  <g id="Layer_1" data-name="Layer 1">
    <g>
      <g>
        <line class="cls-1" x1="125" y1="3.95598" x2="125" y2="150"/>
        <polygon points="120.547 12.232 121.864 12.71 125 4.093 128.136 12.71 129.452 12.232 125 0 120.547 12.232"/>
      </g>
      <g>
        <line class="cls-1" y1="75" x2="246.04401" y2="75"/>
        <polygon points="237.768 79.453 237.29 78.136 245.907 75 237.29 71.864 237.768 70.548 250 75 237.768 79.453"/>
      </g>
    </g>
  </g>
  <g id="Layer_2" data-name="Layer 2">
    <g>
      <polyline class="cls-2" points="125 75 175 25 175 75 225 125 225 75"/>
      <polyline class="cls-2" points="25 75 75 25 75 75 125 125 125 75"/>
    </g>
  </g>
  <g id="Layer_3" data-name="Layer 3">
    <g>
      <path d="M128.86621,28.2207a.383.383,0,0,1-.40771-.38379.6047.6047,0,0,1,.52783-.58789.66524.66524,0,0,0-.50391-.21582c-.43164,0-.56347.63575-.65967,1.0791l-.38379,1.94336h.93555c.2041,0,.29981,0,.29981.15577,0,.21582-.11963.21582-.32373.21582h-.9834l-.83985,4.30566c-.084.43164-.57568,2.9502-1.82275,2.9502a.86879.86879,0,0,1-.95947-.79151.61677.61677,0,0,1,.59961-.65967.383.383,0,0,1,.40771.38379.60506.60506,0,0,1-.52783.58789.6032.6032,0,0,0,.48.21582c.43164,0,.5874-.62353.68359-1.03125.07178-.252.1919-.74365.33594-1.4873l.87549-4.47363H125.856c-.18018,0-.29981,0-.29981-.13184,0-.23975.13184-.23975.32373-.23975h.79151l.25195-1.31933c.084-.40772.38379-1.96729,1.55908-1.96729a.88067.88067,0,0,1,.9834.792A.61706.61706,0,0,1,128.86621,28.2207Z" transform="translate(-25 -25)"/>
      <path d="M130.85938,38.22314c-.168,0-.6836-.6958-.9834-1.49951a6.35737,6.35737,0,0,1-.32422-2.0625,11.73673,11.73673,0,0,1,1.6914-5.75683,7.68739,7.68739,0,0,1,2.55469-2.67481.10756.10756,0,0,1,.11963.12012c0,.03564-.01172.04785-.17969.21582-2.87841,2.44678-3.58593,6.896-3.58593,8.52734a4.95618,4.95618,0,0,0,.74365,2.84229.37422.37422,0,0,1,.08349.168A.1134.1134,0,0,1,130.85938,38.22314Z" transform="translate(-25 -25)"/>
      <path d="M135.0835,35.35645a1.01146,1.01146,0,0,1-1.01954-1.07911,1.84431,1.84431,0,0,1,.06006-.4082l.86328-3.44189h-.95947c-.19189,0-.2998,0-.2998-.144,0-.22754.13183-.22754.33593-.22754h1.01954l.46777-1.90722a.50068.50068,0,0,1,.46777-.43164.30055.30055,0,0,1,.32373.31152.72986.72986,0,0,1-.04785.252l-.44385,1.77539h.95948c.19189,0,.2998,0,.2998.14356,0,.228-.13183.228-.33594.228h-1.01953l-.8872,3.562a2.34758,2.34758,0,0,0-.084.61181c0,.1919,0,.4917.32373.4917.6836,0,1.16309-.89941,1.3794-1.47509.0957-.21631.0957-.228.23974-.228.084,0,.17969,0,.17969.12012C136.90625,33.56934,136.29492,35.35645,135.0835,35.35645Z" transform="translate(-25 -25)"/>
      <path d="M139.51123,35.54834a7.692,7.692,0,0,1-2.55469,2.6748.1077.1077,0,0,1-.12011-.12011c0-.03614.0122-.04785.18017-.21582,2.87842-2.44678,3.58594-6.89649,3.58594-8.52735a4.96,4.96,0,0,0-.74365-2.84228.37313.37313,0,0,1-.084-.168.11328.11328,0,0,1,.12012-.12012c.16748,0,.68359.6958.9834,1.499a6.36239,6.36239,0,0,1,.32373,2.063A11.74306,11.74306,0,0,1,139.51123,35.54834Z" transform="translate(-25 -25)"/>
    </g>
    <path d="M268.49219,116.35645a1.01117,1.01117,0,0,1-1.01953-1.07911,1.82174,1.82174,0,0,1,.05957-.4082l.86328-3.44189h-.96c-.19141,0-.29883,0-.29883-.14405,0-.22754.13086-.22754.33594-.22754h1.01953l.46679-1.90722a.50175.50175,0,0,1,.46875-.43164.30042.30042,0,0,1,.32325.31152.72986.72986,0,0,1-.04785.252l-.44336,1.77539h.959c.19141,0,.2998,0,.2998.14356,0,.228-.13183.228-.33593.228h-1.01953l-.8877,3.562a2.34784,2.34784,0,0,0-.084.61181c0,.1919,0,.4917.32422.4917.68359,0,1.16308-.89941,1.3789-1.47509.0957-.21631.0957-.228.24024-.228.084,0,.17968,0,.17968.12012C270.31445,114.56934,269.70313,116.35645,268.49219,116.35645Z" transform="translate(-25 -25)"/>
    <path d="M162.78027,53.67432c-.4082,0-.83984-.03614-1.25976-.03614-.45606,0-.93555.03614-1.37891.03614-.03613,0-.18066,0-.18066-.144,0-.22754.14453-.22754.27636-.22754.51563,0,.80372-.144.80372-.38378l-.13184-1.99122H158.1748l-.86425,1.51123a1.13266,1.13266,0,0,0-.168.45557c0,.37207.43164.396.5039.4082.09571.01172.19239.01172.19239.14356,0,.228-.15625.228-.21582.228-.36035,0-.74414-.03614-1.11621-.03614-.31153,0-.65918.03614-.959.03614a.13349.13349,0,0,1-.14355-.144s.01172-.21582.14355-.22754a1.5564,1.5564,0,0,0,1.45117-.98388l3.98145-7.01612c.07226-.13183.12012-.21582.3125-.21582.19141,0,.20312.03614.21582.29981l.51562,7.50781c.02344.312.05957.4082.6836.4082.1914,0,.28808,0,.28808.15577C162.99609,53.67432,162.85156,53.67432,162.78027,53.67432Zm-2.17089-7.04-2.23145,3.92187h2.50684Z" transform="translate(-25 -25)"/>
    <g>
      <path d="M133.624,150.916h-6.53613c-.168,0-.39648,0-.39648-.24024,0-.23974.22851-.23974.39648-.23974H133.624c.168,0,.39551,0,.39551.23974C134.01953,150.916,133.792,150.916,133.624,150.916Z" transform="translate(-25 -25)"/>
      <path d="M143.11621,153.67432c-.4082,0-.83984-.03614-1.25976-.03614-.45606,0-.93555.03614-1.37891.03614-.03613,0-.18066,0-.18066-.144,0-.22754.14453-.22754.27636-.22754.51563,0,.80371-.144.80371-.38378l-.13183-1.99122h-2.73438l-.86426,1.51123a1.13261,1.13261,0,0,0-.168.45557c0,.37207.43164.396.5039.4082.09571.01172.19238.01172.19238.14356,0,.228-.15625.228-.21582.228-.36035,0-.74414-.03614-1.11621-.03614-.31152,0-.65918.03614-.959.03614a.13349.13349,0,0,1-.14356-.144s.01172-.21582.14356-.22754a1.5564,1.5564,0,0,0,1.45117-.98388l3.98145-7.01612c.07226-.13183.12011-.21582.3125-.21582.1914,0,.20312.03614.21582.29981l.51562,7.50781c.02344.312.05957.4082.6836.4082.1914,0,.28808,0,.28808.15577C143.332,153.67432,143.1875,153.67432,143.11621,153.67432Zm-2.1709-7.04-2.23144,3.92187h2.50683Z" transform="translate(-25 -25)"/>
    </g>
    <path d="M253.77539,90.25342c-.06055,0-.17969,0-.17969-.15625a1.22864,1.22864,0,0,1,.02344-.17969,5.82634,5.82634,0,0,0,.12012-1.07959c0-.74316-.27539-.91113-1.52344-.91113a4.554,4.554,0,0,0-.62305.02392c-.09668.01172-.19238.03565-.27636.39551L249.71,94.79883a.72538.72538,0,0,0-.04883.228c0,.16748.06055.21582.39649.25146.03613,0,.40722.02441.59961.02441h.17968c.17969,0,.29981,0,.29981.13184,0,.23975-.14356.23975-.25195.23975-.61133,0-1.25879-.03614-1.88282-.03614-.61132,0-1.24707.03614-1.85937.03614-.05957,0-.20313,0-.20313-.144,0-.22754.13184-.22754.335-.22754h.19239c1.05566,0,1.16308-.12011,1.27148-.54l1.60645-6.44043a.91853.91853,0,0,0,.04882-.26368c0-.084,0-.13183-.27636-.13183H249.71c-1.54785,0-1.88379.25146-2.44726,1.94287-.12012.31152-.13184.32373-.15528.34766a.17245.17245,0,0,1-.13281.03613c-.03516,0-.17969,0-.17969-.13184a.72583.72583,0,0,1,.06055-.2041l.707-2.147c.07227-.21582.1084-.21582.34766-.21582h6.15332c.1914,0,.2998,0,.2998.144a.646.646,0,0,1-.01269.15576l-.35938,2.147C253.95508,90.21729,253.93164,90.25342,253.77539,90.25342Z" transform="translate(-25 -25)"/>
    <g>
      <path d="M47.624,109.916H41.08789c-.168,0-.39648,0-.39648-.24024,0-.23974.22851-.23974.39648-.23974H47.624c.168,0,.39551,0,.39551.23974C48.01953,109.916,47.792,109.916,47.624,109.916Z" transform="translate(-25 -25)"/>
      <path d="M58.11133,107.25342c-.06055,0-.17969,0-.17969-.15625a1.22864,1.22864,0,0,1,.02344-.17969,5.82634,5.82634,0,0,0,.12012-1.07959c0-.74316-.2754-.91113-1.52344-.91113a4.55384,4.55384,0,0,0-.623.02392c-.09668.01172-.19238.03565-.27637.39551l-1.60644,6.45264a.72538.72538,0,0,0-.04883.228c0,.16748.06055.21582.39648.25146.03614,0,.40723.02441.59961.02441h.17969c.17969,0,.29981,0,.29981.13184,0,.23975-.14356.23975-.252.23975-.61132,0-1.25879-.03614-1.88281-.03614-.61133,0-1.24707.03614-1.85937.03614-.05957,0-.20313,0-.20313-.144,0-.22754.13184-.22754.335-.22754h.19238c1.05567,0,1.16309-.12011,1.27149-.54l1.60644-6.44043a.9182.9182,0,0,0,.04883-.26368c0-.084,0-.13183-.27636-.13183H54.0459c-1.54785,0-1.88379.25146-2.44727,1.94287-.12011.31152-.13183.32373-.15527.34766a.17245.17245,0,0,1-.13281.03613c-.03516,0-.17969,0-.17969-.13184a.72583.72583,0,0,1,.06055-.2041l.707-2.147c.07226-.21582.1084-.21582.34765-.21582h6.15332c.19141,0,.29981,0,.29981.144a.64549.64549,0,0,1-.0127.15576l-.35937,2.147C58.291,107.21729,58.26758,107.25342,58.11133,107.25342Z" transform="translate(-25 -25)"/>
    </g>
    <g>
      <path d="M66.51563,194.02539c-.53223,0-1.56836,0-2.0586.042v-.43408H64.793c1.0791,0,1.10644-.1543,1.10644-.65869v-3.66992h-4.1875v3.66992c0,.50439.02735.65869,1.10645.65869h.33594v.43408c-.49024-.042-1.541-.042-2.07325-.042s-1.56835,0-2.05859.042v-.43408h.33594c1.07812,0,1.10644-.1543,1.10644-.65869v-7.38184c0-.50439-.02832-.6582-1.10644-.6582h-.33594V184.5c.49024.042,1.54.042,2.07227.042.5332,0,1.56933,0,2.05957-.042v.43457h-.33594c-1.0791,0-1.10645.15381-1.10645.6582v3.27784h4.1875v-3.27784c0-.50439-.02734-.6582-1.10644-.6582H64.457V184.5c.49024.042,1.541.042,2.07324.042s1.56836,0,2.0586-.042v.43457h-.33594c-1.07813,0-1.10645.15381-1.10645.6582v7.38184c0,.50439.02832.65869,1.10645.65869h.33594v.43408C68.09863,194.02539,67.04883,194.02539,66.51563,194.02539Z" transform="translate(-25 -25)"/>
      <path d="M74.67676,194.15137a1.17335,1.17335,0,0,1-1.09278-1.14844,1.937,1.937,0,0,1-1.835,1.21875c-.88183,0-2.24121-.35059-2.24121-1.48486a2.04159,2.04159,0,0,1,1.40137-1.82129,6.81632,6.81632,0,0,1,2.57715-.50391v-.51855a1.58664,1.58664,0,0,0-1.48535-1.793,1.96846,1.96846,0,0,0-1.5127.64453c.64453.01367.71485.47607.71485.644a.64461.64461,0,1,1-1.28907-.01367c0-.9248.9668-1.583,2.11524-1.583a2.67285,2.67285,0,0,1,1.91894.77051,2.06992,2.06992,0,0,1,.50489,1.65283v2.80127c0,.07031.05566.70069.51757.70069.1543,0,.50489-.084.50489-.89649v-.78467h.34961v.78467A1.18941,1.18941,0,0,1,74.67676,194.15137Zm-1.19043-3.4458c-2.31153.084-2.89942,1.24658-2.89942,2.01709a1.206,1.206,0,0,0,1.26075,1.19043,1.6824,1.6824,0,0,0,1.63867-1.80664Z" transform="translate(-25 -25)"/>
      <path d="M78.07715,194.02539l-1.55469.042v-.43408c.93848,0,1.0918,0,1.0918-.63037v-7.28418c0-.686-.11133-.78418-1.0918-.78418V184.5l2.0166-.15381v8.65674c0,.63037.1543.63037,1.09278.63037v.43408Z" transform="translate(-25 -25)"/>
      <path d="M84.33594,185.78906a.58047.58047,0,0,1-.60156-.60254.61419.61419,0,0,1,.41992-.58838,1.12566,1.12566,0,0,0-.46192-.09814c-.61718,0-1.28906.67236-1.28906,1.90527v1.625H84.042v.43409H82.44531v4.51025c0,.50439.02832.65869,1.06446.65869h.29394v.43408c-.55957-.042-1.21875-.042-1.77832-.042l-1.59766.042v-.43408c.93848,0,1.09278,0,1.09278-.63037v-4.53857H80.41406v-.43409h1.10645v-1.61084a2.17031,2.17031,0,0,1,2.17187-2.22754,1.13344,1.13344,0,0,1,1.25977.98047A.5803.5803,0,0,1,84.33594,185.78906Z" transform="translate(-25 -25)"/>
      <path d="M84.38965,191.44775v-.812h3.71191v.812Z" transform="translate(-25 -25)"/>
      <path d="M97.56836,189.36084l-1.63867,4.59424c-.05664.14013-.09864.2666-.28028.2666-.18261,0-.22461-.1123-.28027-.2666l-1.42871-3.978-1.415,3.96436c-.06934.1958-.09766.28027-.28027.28027-.18164,0-.22364-.1123-.29395-.30859l-1.76465-4.9585c-.168-.44824-.33593-.49023-1.03711-.49023v-.43409l1.30274.042,1.52734-.042v.43409c-.28027,0-.82617,0-.82617.37841a.54214.54214,0,0,0,.06934.252l1.331,3.74023,1.20508-3.39014a5.24427,5.24427,0,0,0-.32227-.7705c-.14062-.18213-.36425-.21-.88281-.21v-.43409c.41992.02784.82617.042,1.24707.042l1.45606-.042v.43409c-.28028,0-.82618,0-.82618.37841a.78439.78439,0,0,0,.07032.26612l1.38672,3.90771,1.27441-3.58594a.62587.62587,0,0,0,.07031-.29394c0-.40625-.30859-.6582-.8125-.67236v-.43409l1.30274.042c.30761,0,.71386-.01416,1.02246-.042v.43409A1.17559,1.17559,0,0,0,97.56836,189.36084Z" transform="translate(-25 -25)"/>
      <path d="M104.23047,194.15137a1.17334,1.17334,0,0,1-1.09277-1.14844,1.93705,1.93705,0,0,1-1.835,1.21875c-.88183,0-2.24121-.35059-2.24121-1.48486a2.04159,2.04159,0,0,1,1.40137-1.82129,6.81636,6.81636,0,0,1,2.57715-.50391v-.51855a1.58664,1.58664,0,0,0-1.48535-1.793,1.96847,1.96847,0,0,0-1.5127.64453c.64453.01367.71485.47607.71485.644a.64461.64461,0,1,1-1.28907-.01367c0-.9248.9668-1.583,2.11524-1.583a2.67285,2.67285,0,0,1,1.91894.77051,2.06992,2.06992,0,0,1,.50489,1.65283v2.80127c0,.07031.05566.70069.51757.70069.1543,0,.50489-.084.50489-.89649v-.78467h.34961v.78467A1.18941,1.18941,0,0,1,104.23047,194.15137Zm-1.19043-3.4458c-2.31152.084-2.89941,1.24658-2.89941,2.01709a1.206,1.206,0,0,0,1.26074,1.19043,1.6824,1.6824,0,0,0,1.63867-1.80664Z" transform="translate(-25 -25)"/>
      <path d="M111.04883,189.40283l-1.835,4.55225c-.05664.14013-.11231.2666-.29492.2666-.18165,0-.21-.07031-.29395-.2666l-2.0166-4.97266c-.18262-.43408-.23828-.51806-1.1211-.51806v-.43409c.4209.02784.98047.042,1.35938.042l1.52637-.042v.43409c-.252,0-.79883,0-.79883.36425a.7404.7404,0,0,0,.085.23828l1.56836,3.90772,1.42871-3.57178a.84842.84842,0,0,0,.084-.33594c0-.26611-.15429-.58837-.67187-.60253v-.43409l1.21875.042c.32129,0,.72754-.01416,1.0498-.042v.43409A1.26849,1.26849,0,0,0,111.04883,189.40283Z" transform="translate(-25 -25)"/>
      <path d="M115.69531,194.22168a3.16267,3.16267,0,0,1-3.082-3.23584,3.0615,3.0615,0,0,1,2.91406-3.19385,2.48433,2.48433,0,0,1,2.50684,2.74561c0,.29394-.042.29394-.34961.29394h-3.9082a4.08112,4.08112,0,0,0,.41992,2.10108,1.886,1.886,0,0,0,1.583.93847,1.97393,1.97393,0,0,0,1.89062-1.44238c.02832-.1123.05664-.19629.18262-.19629a.16216.16216,0,0,1,.18164.168A2.3937,2.3937,0,0,1,115.69531,194.22168Zm-.168-6.12158c-.47656,0-1.65332.3501-1.7373,2.4375h3.32031C117.11035,189.99121,116.96973,188.1001,115.52734,188.1001Z" transform="translate(-25 -25)"/>
      <path d="M125.88672,194.22168a2.09366,2.09366,0,0,1-1.541-.60254,3.22173,3.22173,0,0,0-.28027.32227c-.26563.26611-.2793.28027-.34961.28027-.1543,0-.1543-.09814-.1543-.33643v-1.84912c0-.252,0-.35009.18262-.35009.13965,0,.15332.05615.19531.23828.2666,1.19043.77051,1.98877,1.94727,1.98877,1.09277,0,1.583-.56006,1.583-1.27442,0-1.00879-1.14844-1.23291-1.457-1.28857a3.66924,3.66924,0,0,1-1.84864-.64453,1.49334,1.49334,0,0,1-.60254-1.19043c0-.78467.53223-1.72315,2.24121-1.72315a2.15808,2.15808,0,0,1,1.31641.39209,1.75645,1.75645,0,0,0,.23828-.22412c.18262-.168.21-.168.28028-.168.15429,0,.15429.09815.15429.33594v1.415c0,.26611,0,.33594-.18261.33594,0,0-.15333,0-.168-.126a1.54471,1.54471,0,0,0-1.63868-1.69482c-1.2041,0-1.56835.57421-1.56835,1.06445,0,.8125.93847.99463,1.72265,1.14892a2.85452,2.85452,0,0,1,1.59668.67237,1.80748,1.80748,0,0,1,.58789,1.33056C128.1416,193.2832,127.49805,194.22168,125.88672,194.22168Z" transform="translate(-25 -25)"/>
      <path d="M134.42773,189.36084l-2.46484,5.98145c-.33594.79834-.91016,1.59667-1.793,1.59667a1.22432,1.22432,0,0,1-1.28906-1.13476.58845.58845,0,1,1,.63086.57422.95178.95178,0,0,0,.6582.25244c.89649,0,1.28906-.9668,1.59668-1.73682l.35059-.82666-2.10156-5.11279c-.19629-.49023-.46192-.49023-1.13477-.49023v-.43409c.4209.02784.98047.042,1.35937.042l1.52637-.042v.43409c-.26562,0-.78418,0-.78418.36425a.83369.83369,0,0,0,.084.252l1.55468,3.76806,1.415-3.4458a.66719.66719,0,0,0,.084-.33594c0-.35058-.22461-.58837-.65821-.60253v-.43409l1.21875.042c.32129,0,.72754-.01416,1.04981-.042v.43409A1.31991,1.31991,0,0,0,134.42773,189.36084Z" transform="translate(-25 -25)"/>
      <path d="M145.82617,194.02539l-1.583.042v-.43408c.93848,0,1.09278,0,1.09278-.63037v-3.26367c0-.79883-.1543-1.55518-1.03614-1.55518a2.04629,2.04629,0,0,0-1.8916,2.24121v2.57764c0,.63037.1543.63037,1.09278.63037v.43408l-1.56836-.042-1.583.042v-.43408c.93848,0,1.09277,0,1.09277-.63037v-3.26367c0-.79883-.15429-1.55518-1.03711-1.55518a2.04561,2.04561,0,0,0-1.89062,2.24121v2.57764c0,.63037.1543.63037,1.09277.63037v.43408l-1.56933-.042-1.583.042v-.43408c.93847,0,1.09277,0,1.09277-.63037V189.249c0-.68652-.1123-.78466-1.09277-.78466v-.43409l1.97558-.15429v1.4707a2.2073,2.2073,0,0,1,2.07325-1.4707,1.658,1.658,0,0,1,1.8623,1.373,2.21638,2.21638,0,0,1,2.03125-1.373,1.86691,1.86691,0,0,1,1.4707.51855c.43457.50391.43457.93848.43457,2.14307v2.67529c.01368.42041.36426.42041,1.09278.42041v.43408Z" transform="translate(-25 -25)"/>
      <path d="M157.48828,194.02539l-1.583.042v-.43408c.93848,0,1.09278,0,1.09278-.63037v-3.26367c0-.79883-.1543-1.55518-1.03614-1.55518a2.04629,2.04629,0,0,0-1.8916,2.24121v2.57764c0,.63037.1543.63037,1.09278.63037v.43408l-1.56836-.042-1.583.042v-.43408c.93848,0,1.09277,0,1.09277-.63037v-3.26367c0-.79883-.15429-1.55518-1.03711-1.55518a2.04561,2.04561,0,0,0-1.89062,2.24121v2.57764c0,.63037.15429.63037,1.09277.63037v.43408l-1.56933-.042-1.583.042v-.43408c.93847,0,1.09277,0,1.09277-.63037V189.249c0-.68652-.1123-.78466-1.09277-.78466v-.43409l1.97558-.15429v1.4707a2.2073,2.2073,0,0,1,2.07325-1.4707,1.658,1.658,0,0,1,1.8623,1.373,2.21638,2.21638,0,0,1,2.03125-1.373,1.86693,1.86693,0,0,1,1.4707.51855c.43457.50391.43457.93848.43457,2.14307v2.67529c.01368.42041.36426.42041,1.09278.42041v.43408Z" transform="translate(-25 -25)"/>
      <path d="M162.80469,194.22168a3.16267,3.16267,0,0,1-3.082-3.23584,3.0615,3.0615,0,0,1,2.91406-3.19385,2.48432,2.48432,0,0,1,2.50683,2.74561c0,.29394-.042.29394-.3496.29394h-3.90821a4.08112,4.08112,0,0,0,.41992,2.10108,1.88608,1.88608,0,0,0,1.583.93847,1.974,1.974,0,0,0,1.89063-1.44238c.02832-.1123.05664-.19629.18261-.19629a.16215.16215,0,0,1,.18164.168A2.3937,2.3937,0,0,1,162.80469,194.22168Zm-.168-6.12158c-.47656,0-1.65332.3501-1.73731,2.4375h3.32032C164.21973,189.99121,164.0791,188.1001,162.63672,188.1001Z" transform="translate(-25 -25)"/>
      <path d="M168.81055,194.22168a1.69519,1.69519,0,0,1-1.80762-1.89111v-3.86621H165.8125v-.30811c1.37305-.05615,1.793-1.55469,1.80664-2.70361h.35059v2.57763h2.00293v.43409h-2.00293v3.894c0,.23828,0,1.51269.93847,1.51269.51856,0,.93848-.53222.93848-1.56884v-.77h.35059v.79834C170.19727,193.22705,169.80469,194.22168,168.81055,194.22168Z" transform="translate(-25 -25)"/>
      <path d="M175.48828,189.34668a.57986.57986,0,0,1-.60156-.602.607.607,0,0,1,.32129-.54639c-.02735-.01416-.05567-.01416-.15332-.01416-1.06446,0-1.65332,1.24658-1.65332,2.6333v2.15723c0,.50439.02832.65869,1.06445.65869h.29395v.43408c-.55957-.042-1.21778-.042-1.77832-.042l-1.59668.042v-.43408c.93847,0,1.09179,0,1.09179-.63037V189.249c0-.68652-.11133-.78466-1.09179-.78466v-.43409l1.94628-.15429v1.541a1.96267,1.96267,0,0,1,1.72364-1.541.956.956,0,0,1,1.03613.85449A.58828.58828,0,0,1,175.48828,189.34668Z" transform="translate(-25 -25)"/>
      <path d="M178.4834,194.02539l-1.541.042v-.43408c.93848,0,1.09278,0,1.09278-.63037v-3.76807c0-.68652-.126-.7705-1.03614-.7705v-.43409L178.96,187.876v5.14062c0,.54639.05567.6167.98047.6167v.43408C179.46387,194.05322,178.97363,194.02539,178.4834,194.02539Zm-.07031-7.67627a.7425.7425,0,1,1,.75683-.74219A.75649.75649,0,0,1,178.41309,186.34912Z" transform="translate(-25 -25)"/>
      <path d="M183.86035,194.22168a3.10045,3.10045,0,0,1-3.01172-3.17969,3.1387,3.1387,0,0,1,3.03907-3.25c1.0791,0,2.14355.54639,2.14355,1.499a.6446.6446,0,1,1-1.28906.01367.63193.63193,0,0,1,.6582-.644,2.28225,2.28225,0,0,0-1.498-.51855c-.74316,0-1.8916.58838-1.8916,2.87158,0,2.25537,1.23242,2.85742,1.97559,2.85742a1.8298,1.8298,0,0,0,1.835-1.4707c.02734-.084.05566-.14014.18164-.14014.042,0,.18262,0,.18262.14014A2.305,2.305,0,0,1,183.86035,194.22168Z" transform="translate(-25 -25)"/>
      <path d="M195.63477,185.78906a.58072.58072,0,0,1-.60254-.60254.61419.61419,0,0,1,.41992-.58838,1.12566,1.12566,0,0,0-.46192-.09814c-.61621,0-1.28906.67236-1.28906,1.90527v1.625h1.63867v.43409h-1.59668v4.51025c0,.50439.02832.65869,1.06446.65869h.29492v.43408c-.56055-.042-1.21875-.042-1.7793-.042l-1.59668.042v-.43408c.93848,0,1.09278,0,1.09278-.63037v-4.53857h-1.10743v-.43409h1.10743v-1.61084a2.17011,2.17011,0,0,1,2.17089-2.22754,1.13446,1.13446,0,0,1,1.26075.98047A.5803.5803,0,0,1,195.63477,185.78906Z" transform="translate(-25 -25)"/>
      <path d="M201.01074,194.22168v-1.26074a1.91117,1.91117,0,0,1-1.80664,1.26074c-2.1289,0-2.1289-1.2749-2.1289-2.36768v-2.10107c0-1.24658,0-1.28857-1.09278-1.28857v-.43409l2.05957-.15429v4.65039c0,.72851.05567,1.38672,1.23242,1.38672,1.02247,0,1.69434-.95215,1.69434-2.1709V189.249c0-.68652-.11133-.78466-1.0918-.78466v-.43409l2.0586-.15429v4.97265c0,.68653.1123.78467,1.09277.78467v.43408Z" transform="translate(-25 -25)"/>
      <path d="M209.24316,194.02539l-1.582.042v-.43408c.93848,0,1.0918,0,1.0918-.63037v-3.26367c0-.79883-.15332-1.55518-1.03613-1.55518a2.04561,2.04561,0,0,0-1.89063,2.24121v2.57764c0,.63037.15332.63037,1.0918.63037v.43408l-1.56836-.042-1.583.042v-.43408c.93848,0,1.09278,0,1.09278-.63037V189.249c0-.68652-.11231-.78466-1.09278-.78466v-.43409l1.97461-.15429v1.4707a2.20919,2.20919,0,0,1,2.07324-1.4707,1.86532,1.86532,0,0,1,1.47071.51855c.43457.50391.43457.93848.43457,2.14307v2.67529c.01367.42041.36425.42041,1.09277.42041v.43408Z" transform="translate(-25 -25)"/>
      <path d="M214.58984,194.22168a3.10044,3.10044,0,0,1-3.01171-3.17969,3.1387,3.1387,0,0,1,3.03906-3.25c1.0791,0,2.14355.54639,2.14355,1.499a.6446.6446,0,1,1-1.28906.01367.63193.63193,0,0,1,.6582-.644,2.28225,2.28225,0,0,0-1.498-.51855c-.74317,0-1.89161.58838-1.89161,2.87158,0,2.25537,1.23243,2.85742,1.97559,2.85742a1.8298,1.8298,0,0,0,1.835-1.4707c.02735-.084.05567-.14014.18164-.14014.042,0,.18262,0,.18262.14014A2.305,2.305,0,0,1,214.58984,194.22168Z" transform="translate(-25 -25)"/>
      <path d="M220.58105,194.22168a1.695,1.695,0,0,1-1.80664-1.89111v-3.86621H217.584v-.30811c1.37207-.05615,1.793-1.55469,1.80665-2.70361h.3496v2.57763h2.00391v.43409h-2.00391v3.894c0,.23828,0,1.51269.93848,1.51269.51856,0,.93945-.53222.93945-1.56884v-.77h.34961v.79834C221.96777,193.22705,221.5752,194.22168,220.58105,194.22168Z" transform="translate(-25 -25)"/>
      <path d="M224.7666,194.02539l-1.541.042v-.43408c.93847,0,1.09277,0,1.09277-.63037v-3.76807c0-.68652-.126-.7705-1.03613-.7705v-.43409l1.96093-.15429v5.14062c0,.54639.05567.6167.98047.6167v.43408C225.74707,194.05322,225.25684,194.02539,224.7666,194.02539Zm-.07031-7.67627a.7425.7425,0,1,1,.75684-.74219A.7565.7565,0,0,1,224.69629,186.34912Z" transform="translate(-25 -25)"/>
      <path d="M230.14355,194.22168a3.12633,3.12633,0,0,1-3.0957-3.15186,3.10723,3.10723,0,1,1,6.20508,0A3.12119,3.12119,0,0,1,230.14355,194.22168Zm1.582-5.21094a1.83294,1.83294,0,0,0-1.582-.91064,1.882,1.882,0,0,0-1.59765.93847,4.019,4.019,0,0,0-.33594,1.91895,4.16351,4.16351,0,0,0,.35059,1.9751,1.82913,1.82913,0,0,0,1.59668.93847,1.80842,1.80842,0,0,0,1.625-1.03613,4.26424,4.26424,0,0,0,.30761-1.87744A3.8429,3.8429,0,0,0,231.72559,189.01074Z" transform="translate(-25 -25)"/>
      <path d="M239.58008,194.02539l-1.582.042v-.43408c.93847,0,1.09179,0,1.09179-.63037v-3.26367c0-.79883-.15332-1.55518-1.03613-1.55518a2.04561,2.04561,0,0,0-1.89062,2.24121v2.57764c0,.63037.15332.63037,1.09179.63037v.43408l-1.56836-.042-1.583.042v-.43408c.93847,0,1.09277,0,1.09277-.63037V189.249c0-.68652-.11231-.78466-1.09277-.78466v-.43409l1.97461-.15429v1.4707a2.20918,2.20918,0,0,1,2.07324-1.4707,1.86528,1.86528,0,0,1,1.4707.51855c.43457.50391.43457.93848.43457,2.14307v2.67529c.01367.42041.36426.42041,1.09277.42041v.43408Z" transform="translate(-25 -25)"/>
    </g>
  </g>
</svg>
