<?xml version="1.0" encoding="utf-8"?>
<!-- Generator: Adobe Illustrator 23.0.3, SVG Export Plug-In . SVG Version: 6.00 Build 0)  -->
<svg version="1.1" id="Layer_1" xmlns="http://www.w3.org/2000/svg" xmlns:xlink="http://www.w3.org/1999/xlink" x="0px" y="0px"
	 viewBox="0 0 250 171.93896" style="enable-background:new 0 0 250 171.93896;" xml:space="preserve">
<style type="text/css">
	.st0{fill:none;stroke:#8FF4DD;stroke-width:2;stroke-miterlimit:10;}
	.st1{fill:#8FF4DD;}
	.st2{fill:none;stroke:#FD1D53;stroke-width:2;stroke-linecap:round;stroke-miterlimit:10;}
</style>
<title>HalfWaveSymmetricFunction</title>
<g>
	<g>
		<g>
			<line class="st0" x1="125" y1="3.95598" x2="125" y2="150"/>
			<polygon class="st1" points="120.547,12.232 121.864,12.71 125,4.093 128.136,12.71 129.452,12.232 125,0 			"/>
		</g>
		<g>
			<line class="st0" x1="0" y1="75" x2="246.04401" y2="75"/>
			<polygon class="st1" points="237.76801,79.453 237.28999,78.136 245.907,75 237.28999,71.864 237.76801,70.548 250,75 			"/>
		</g>
	</g>
</g>
<g>
	<g>
		<polyline class="st2" points="125,75 175,25 175,75 225,125 225,75 		"/>
		<polyline class="st2" points="25,75 75,25 75,75 125,125 125,75 		"/>
	</g>
</g>
<g id="Layer_3">
	<path class="st1" d="M243.49219,91.35645c-0.55841,0.00588-1.01587-0.44204-1.02176-1.00047
		c-0.00027-0.02623,0.00046-0.05247,0.00223-0.07864c0.00433-0.13789,0.02432-0.27483,0.05957-0.4082l0.86328-3.44189h-0.95999
		c-0.19141,0-0.29883,0-0.29883-0.14405c0-0.22754,0.13086-0.22754,0.33594-0.22754h1.01953l0.4668-1.90722
		c0.03311-0.23737,0.22946-0.41817,0.46875-0.43164c0.16544-0.01273,0.30984,0.11105,0.3226,0.27647
		c0.00089,0.01166,0.0011,0.02336,0.00064,0.03505c-0.00095,0.08617-0.01715,0.17149-0.04785,0.252l-0.44336,1.77539h0.95901
		c0.19141,0,0.2998,0,0.2998,0.14356c0,0.228-0.13184,0.228-0.33594,0.228h-1.01953l-0.8877,3.562
		c-0.05481,0.19935-0.08307,0.40506-0.08401,0.61181c0,0.1919,0,0.4917,0.32422,0.4917c0.68359,0,1.16309-0.89941,1.37891-1.47509
		c0.0957-0.21631,0.0957-0.228,0.24023-0.228c0.08401,0,0.17969,0,0.17969,0.12012
		C245.31445,89.56934,244.70313,91.35645,243.49219,91.35645z"/>
	<path class="st1" d="M137.78027,28.67432c-0.4082,0-0.83984-0.03614-1.25977-0.03614c-0.45605,0-0.93555,0.03614-1.37891,0.03614
		c-0.03613,0-0.18066,0-0.18066-0.144c0-0.22754,0.14453-0.22754,0.27637-0.22754c0.51563,0,0.80373-0.144,0.80373-0.38378
		l-0.13184-1.99122h-2.73439l-0.86424,1.51123c-0.08827,0.13793-0.14558,0.29335-0.168,0.45557
		c0,0.37207,0.43164,0.396,0.50391,0.4082c0.0957,0.01172,0.19238,0.01172,0.19238,0.14356c0,0.228-0.15625,0.228-0.21582,0.228
		c-0.36035,0-0.74414-0.03614-1.11621-0.03614c-0.31152,0-0.65918,0.03614-0.959,0.03614
		c-0.0735,0.00581-0.13779-0.04907-0.14359-0.12256c-0.00056-0.00714-0.00055-0.01431,0.00003-0.02144
		c0,0,0.01172-0.21582,0.14355-0.22754c0.64,0.0016,1.21574-0.38874,1.45117-0.98388l3.98145-7.01612
		c0.07227-0.13183,0.12012-0.21582,0.3125-0.21582c0.19141,0,0.20313,0.03614,0.21582,0.29981l0.51563,7.50781
		c0.02344,0.312,0.05957,0.4082,0.68359,0.4082c0.19141,0,0.28809,0,0.28809,0.15577
		C137.99609,28.67432,137.85156,28.67432,137.78027,28.67432z M135.60939,21.63432l-2.23145,3.92187h2.50684L135.60939,21.63432z"/>
	<g>
		<path class="st1" d="M108.62399,125.916h-6.53613c-0.168,0-0.39648,0-0.39648-0.24023c0-0.23975,0.22851-0.23975,0.39648-0.23975
			h6.53613c0.168,0,0.39551,0,0.39551,0.23975C109.01953,125.916,108.79201,125.916,108.62399,125.916z"/>
		<path class="st1" d="M118.11621,128.67432c-0.4082,0-0.83984-0.03613-1.25977-0.03613c-0.45605,0-0.93555,0.03613-1.37891,0.03613
			c-0.03613,0-0.18066,0-0.18066-0.144c0-0.22754,0.14453-0.22754,0.27637-0.22754c0.51563,0,0.80371-0.144,0.80371-0.38377
			l-0.13184-1.99123h-2.73438l-0.86426,1.51123c-0.08827,0.13792-0.14558,0.29335-0.168,0.45557
			c0,0.37207,0.43164,0.396,0.50391,0.4082c0.0957,0.01172,0.19238,0.01172,0.19238,0.14355c0,0.228-0.15625,0.228-0.21582,0.228
			c-0.36035,0-0.74414-0.03613-1.11621-0.03613c-0.31152,0-0.65918,0.03613-0.959,0.03613
			c-0.0735,0.0058-0.13779-0.04907-0.14359-0.12256c-0.00056-0.00714-0.00055-0.01431,0.00003-0.02144
			c0,0,0.01172-0.21582,0.14355-0.22754c0.64,0.0016,1.21574-0.38875,1.45117-0.98389l3.98145-7.01611
			c0.07227-0.13184,0.12012-0.21582,0.3125-0.21582c0.19141,0,0.20313,0.03613,0.21582,0.2998l0.51563,7.50781
			c0.02344,0.312,0.05957,0.4082,0.68359,0.4082c0.19141,0,0.28809,0,0.28809,0.15578
			C118.332,128.67432,118.1875,128.67432,118.11621,128.67432z M115.94531,121.63432l-2.23145,3.92188h2.50684L115.94531,121.63432z
			"/>
	</g>
	<path class="st1" d="M228.77539,65.25342c-0.06055,0-0.17969,0-0.17969-0.15625c0.00337-0.06039,0.01122-0.12045,0.02344-0.17969
		c0.07358-0.35534,0.11378-0.71677,0.12012-1.07959c0-0.74316-0.27539-0.91113-1.52344-0.91113
		c-0.20798-0.00627-0.41615,0.00172-0.62305,0.02392c-0.09668,0.01172-0.19238,0.03565-0.27637,0.39551l-1.6064,6.45264
		c-0.02846,0.07287-0.04495,0.14986-0.04883,0.228c0,0.16748,0.06055,0.21582,0.39648,0.25146
		c0.03613,0,0.40723,0.02441,0.59961,0.02441h0.17969c0.17969,0,0.2998,0,0.2998,0.13184c0,0.23975-0.14355,0.23975-0.25195,0.23975
		c-0.61133,0-1.25879-0.03614-1.88281-0.03614c-0.61131,0-1.24707,0.03614-1.85938,0.03614c-0.05957,0-0.20313,0-0.20313-0.144
		c0-0.22754,0.13184-0.22754,0.33501-0.22754h0.19238c1.05566,0,1.16309-0.12011,1.27148-0.54l1.60645-6.44043
		c0.02908-0.08503,0.04553-0.17387,0.04881-0.26368c0-0.084,0-0.13183-0.27637-0.13183h-0.40726
		c-1.54785,0-1.88379,0.25146-2.44727,1.94287c-0.12012,0.31152-0.13184,0.32373-0.15527,0.34766
		c-0.03734,0.02995-0.08545,0.04305-0.13281,0.03613c-0.03516,0-0.17969,0-0.17969-0.13184
		c0.01004-0.07064,0.03044-0.13941,0.06055-0.2041l0.707-2.147c0.07227-0.21582,0.1084-0.21582,0.34766-0.21582h6.15332
		c0.19141,0,0.2998,0,0.2998,0.144c0.00209,0.05225-0.00218,0.10455-0.0127,0.15576l-0.35938,2.147
		C228.95508,65.21729,228.93164,65.25342,228.77539,65.25342z"/>
	<g>
		<path class="st1" d="M22.624,84.916h-6.53611c-0.168,0-0.39648,0-0.39648-0.24024c0-0.23974,0.22851-0.23974,0.39648-0.23974
			H22.624c0.168,0,0.39551,0,0.39551,0.23974C23.01953,84.916,22.792,84.916,22.624,84.916z"/>
		<path class="st1" d="M33.11133,82.25342c-0.06055,0-0.17969,0-0.17969-0.15625c0.00338-0.06039,0.01122-0.12045,0.02344-0.17969
			c0.07357-0.35534,0.11379-0.71677,0.12012-1.07959c0-0.74316-0.2754-0.91113-1.52344-0.91113
			c-0.20797-0.00627-0.41612,0.00172-0.623,0.02392c-0.09668,0.01172-0.19238,0.03565-0.27637,0.39551l-1.60644,6.45264
			c-0.02847,0.07287-0.04495,0.14986-0.04883,0.228c0,0.16748,0.06055,0.21582,0.39648,0.25146
			c0.03614,0,0.40723,0.02441,0.59961,0.02441h0.17969c0.17969,0,0.29981,0,0.29981,0.13184
			c0,0.23975-0.14356,0.23975-0.252,0.23975c-0.61132,0-1.25879-0.03614-1.88281-0.03614
			c-0.61133,0-1.24707,0.03614-1.85937,0.03614c-0.05957,0-0.20313,0-0.20313-0.144c0-0.22754,0.13184-0.22754,0.335-0.22754
			h0.19238c1.05567,0,1.16309-0.12011,1.27149-0.54l1.60644-6.44043c0.02909-0.08503,0.04554-0.17387,0.04883-0.26368
			c0-0.084,0-0.13183-0.27636-0.13183H29.0459c-1.54785,0-1.88379,0.25146-2.44727,1.94287
			c-0.12011,0.31152-0.13183,0.32373-0.15527,0.34766c-0.03733,0.02995-0.08544,0.04305-0.13281,0.03613
			c-0.03516,0-0.17969,0-0.17969-0.13184c0.01004-0.07064,0.03045-0.13941,0.06055-0.2041l0.707-2.147
			c0.07226-0.21582,0.1084-0.21582,0.34765-0.21582h6.15332c0.19141,0,0.29981,0,0.29981,0.144
			c0.00209,0.05225-0.00217,0.10455-0.0127,0.15576l-0.35937,2.147C33.291,82.21729,33.26758,82.25342,33.11133,82.25342z"/>
	</g>
	<g>
		<path class="st1" d="M41.51563,169.02539c-0.53223,0-1.56836,0-2.0586,0.04201v-0.43408H39.793
			c1.0791,0,1.10644-0.1543,1.10644-0.65869v-3.66992h-4.1875v3.66992c0,0.50439,0.02735,0.65869,1.10645,0.65869h0.33594v0.43408
			c-0.49024-0.04201-1.541-0.04201-2.07325-0.04201s-1.56835,0-2.05859,0.04201v-0.43408h0.33594
			c1.07812,0,1.10644-0.1543,1.10644-0.65869v-7.38184c0-0.50439-0.02832-0.6582-1.10644-0.6582h-0.33594V159.5
			c0.49024,0.04201,1.54,0.04201,2.07227,0.04201c0.5332,0,1.56933,0,2.05957-0.04201v0.43457h-0.33594
			c-1.0791,0-1.10645,0.15381-1.10645,0.6582v3.27785h4.1875v-3.27785c0-0.50439-0.02734-0.6582-1.10644-0.6582h-0.336V159.5
			c0.49024,0.04201,1.541,0.04201,2.07324,0.04201s1.56836,0,2.0586-0.04201v0.43457h-0.33594
			c-1.07813,0-1.10645,0.15381-1.10645,0.6582v7.38184c0,0.50439,0.02832,0.65869,1.10645,0.65869h0.33594v0.43408
			C43.09863,169.02539,42.04883,169.02539,41.51563,169.02539z"/>
		<path class="st1" d="M49.67676,169.15137c-0.60689-0.04166-1.08129-0.54024-1.09278-1.14844
			c-0.29864,0.74837-1.02938,1.2337-1.835,1.21875c-0.88183,0-2.24121-0.35059-2.24121-1.48486
			c0.04866-0.83731,0.60448-1.55968,1.40137-1.82129c0.81827-0.33342,1.69356-0.50456,2.57715-0.50391v-0.51855
			c0.1153-0.86865-0.49541-1.66632-1.36407-1.78162c-0.04026-0.00534-0.08072-0.00914-0.12128-0.01138
			c-0.57412-0.01613-1.12664,0.2193-1.5127,0.64453c0.64453,0.01367,0.71485,0.47607,0.71485,0.644
			c0.00012,0.356-0.28838,0.64471-0.64439,0.64484s-0.64471-0.28838-0.64484-0.64439c0-0.0047,0.00005-0.00941,0.00015-0.01411
			c0-0.9248,0.9668-1.58299,2.11524-1.58299c0.71712-0.01102,1.40857,0.26662,1.91894,0.77051
			c0.40125,0.45097,0.58565,1.05463,0.50489,1.65283v2.80127c0,0.07031,0.05566,0.70068,0.51757,0.70068
			c0.1543,0,0.50489-0.084,0.50489-0.89648v-0.78467h0.34961v0.78467c0.07824,0.65222-0.38706,1.24437-1.03928,1.3226
			C49.74964,169.14769,49.71323,169.15038,49.67676,169.15137z M48.48633,165.70557c-2.31153,0.084-2.89942,1.24658-2.89942,2.01709
			c0.00791,0.66602,0.55423,1.19951,1.22024,1.19159c0.01351-0.00015,0.02702-0.00055,0.04051-0.00116
			c0.92891-0.02159,1.66444-0.79213,1.64285-1.72104c-0.00066-0.02856-0.00205-0.05711-0.00417-0.0856V165.70557z"/>
		<path class="st1" d="M53.07715,169.02539l-1.55469,0.04201v-0.43408c0.93848,0,1.0918,0,1.0918-0.63037v-7.28418
			c0-0.686-0.11133-0.78418-1.0918-0.78418V159.5l2.0166-0.15381v8.65674c0,0.63037,0.1543,0.63037,1.09278,0.63037v0.43408
			L53.07715,169.02539z"/>
		<path class="st1" d="M59.33594,160.78906c-0.32037,0.01189-0.58971-0.23817-0.6016-0.55855
			c-0.00054-0.01465-0.00053-0.02933,0.00004-0.04399c-0.00248-0.26645,0.16714-0.5041,0.41992-0.58838
			c-0.1453-0.065-0.30274-0.09846-0.46192-0.09814c-0.61718,0-1.28906,0.67236-1.28906,1.90527v1.625H59.042v0.4341h-1.59669
			v4.51025c0,0.50439,0.02832,0.65869,1.06446,0.65869h0.29394v0.43408c-0.55957-0.04201-1.21875-0.04201-1.77832-0.04201
			l-1.59766,0.04201v-0.43408c0.93848,0,1.09278,0,1.09278-0.63037v-4.53857h-1.10645v-0.4341h1.10645v-1.61084
			c-0.03161-1.19821,0.91412-2.19518,2.11233-2.22679c0.01984-0.00052,0.03969-0.00076,0.05954-0.00075
			c0.61789-0.07446,1.18025,0.3632,1.25977,0.98047c0.02076,0.31982-0.22167,0.59592-0.5415,0.61667
			C59.38578,160.79065,59.36082,160.79066,59.33594,160.78906z"/>
		<path class="st1" d="M59.38965,166.44775v-0.812h3.71191v0.812H59.38965z"/>
		<path class="st1" d="M72.56836,164.36084l-1.63867,4.59424c-0.05664,0.14014-0.09864,0.2666-0.28028,0.2666
			c-0.18261,0-0.22461-0.1123-0.28027-0.2666l-1.42871-3.978l-1.415,3.96436c-0.06934,0.1958-0.09766,0.28027-0.28027,0.28027
			c-0.18164,0-0.22364-0.1123-0.29395-0.30859l-1.76465-4.9585c-0.168-0.44824-0.33593-0.49023-1.03711-0.49023v-0.4341
			l1.30274,0.04201l1.52734-0.04201v0.4341c-0.28027,0-0.82617,0-0.82617,0.3784c0.00222,0.08839,0.02602,0.17491,0.06934,0.252
			l1.331,3.74023l1.20508-3.39014c-0.08677-0.26498-0.19453-0.52264-0.32227-0.77049
			c-0.14062-0.18213-0.36425-0.21001-0.88281-0.21001v-0.4341c0.41992,0.02785,0.82617,0.04201,1.24707,0.04201l1.45606-0.04201
			v0.4341c-0.28028,0-0.82618,0-0.82618,0.3784c0.00757,0.09216,0.03138,0.18225,0.07032,0.26611l1.38672,3.90771l1.27441-3.58594
			c0.0471-0.09076,0.07124-0.1917,0.07031-0.29395c0-0.40625-0.30859-0.6582-0.8125-0.67236v-0.4341l1.30274,0.04201
			c0.30761,0,0.71386-0.01416,1.02246-0.04201v0.4341C73.19044,163.44801,72.69987,163.82175,72.56836,164.36084z"/>
		<path class="st1" d="M79.23047,169.15137c-0.60689-0.04166-1.08129-0.54024-1.09277-1.14844
			c-0.29865,0.74837-1.02939,1.23369-1.835,1.21875c-0.88183,0-2.24121-0.35059-2.24121-1.48486
			c0.04866-0.83731,0.60448-1.55968,1.40137-1.82129c0.81827-0.33342,1.69356-0.50456,2.57715-0.50391v-0.51855
			c0.1153-0.86865-0.49541-1.66632-1.36407-1.78162c-0.04026-0.00534-0.08072-0.00914-0.12128-0.01138
			c-0.57412-0.01613-1.12664,0.2193-1.5127,0.64453c0.64453,0.01367,0.71485,0.47607,0.71485,0.644
			c0.00012,0.356-0.28838,0.64471-0.64439,0.64484s-0.64471-0.28838-0.64484-0.64439c0-0.0047,0.00005-0.00941,0.00015-0.01411
			c0-0.9248,0.9668-1.58299,2.11524-1.58299c0.71712-0.01102,1.40857,0.26662,1.91894,0.77051
			c0.40125,0.45097,0.58565,1.05463,0.50489,1.65283v2.80127c0,0.07031,0.05566,0.70068,0.51757,0.70068
			c0.1543,0,0.50489-0.084,0.50489-0.89648v-0.78467h0.34961v0.78467c0.07824,0.65222-0.38706,1.24437-1.03928,1.3226
			C79.30336,169.14769,79.26694,169.15038,79.23047,169.15137z M78.04004,165.70557c-2.31152,0.084-2.89941,1.24658-2.89941,2.01709
			c0.00791,0.66602,0.55423,1.19951,1.22024,1.19159c0.0135-0.00015,0.02701-0.00055,0.0405-0.00116
			c0.92891-0.02159,1.66444-0.79213,1.64285-1.72104c-0.00066-0.02856-0.00205-0.05711-0.00417-0.0856L78.04004,165.70557z"/>
		<path class="st1" d="M86.04883,164.40283l-1.835,4.55225c-0.05664,0.14014-0.11231,0.2666-0.29492,0.2666
			c-0.18165,0-0.21-0.07031-0.29395-0.2666l-2.0166-4.97266c-0.18262-0.43408-0.23828-0.51807-1.1211-0.51807v-0.4341
			c0.4209,0.02785,0.98047,0.04201,1.35938,0.04201l1.52637-0.04201v0.4341c-0.252,0-0.79883,0-0.79883,0.36424
			c0.01445,0.08371,0.04321,0.16432,0.085,0.23828l1.56836,3.90771l1.42871-3.57178c0.0508-0.10501,0.07939-0.21938,0.084-0.33594
			c0-0.26611-0.15429-0.58836-0.67187-0.60252v-0.4341l1.21875,0.04201c0.32129,0,0.72754-0.01416,1.0498-0.04201v0.4341
			C86.7401,163.43474,86.20355,163.82567,86.04883,164.40283z"/>
		<path class="st1" d="M90.69531,169.22168c-1.74394-0.04402-3.12292-1.49182-3.082-3.23584
			c-0.07483-1.68578,1.22851-3.11424,2.91406-3.19385c1.37191-0.02007,2.50033,1.07584,2.52039,2.44774
			c0.00145,0.09947-0.00307,0.19894-0.01354,0.29787c0,0.29395-0.042,0.29395-0.34961,0.29395h-3.9082
			c-0.04965,0.72527,0.09531,1.45062,0.41992,2.10107c0.32888,0.5665,0.92816,0.92178,1.583,0.93848
			c0.8816-0.00465,1.65323-0.59334,1.89062-1.44238c0.02832-0.1123,0.05664-0.19629,0.18262-0.19629
			c0.0889-0.01085,0.16975,0.05243,0.1806,0.14133c0.00108,0.00885,0.00143,0.01778,0.00104,0.02667
			C92.76949,168.4753,91.80228,169.22845,90.69531,169.22168z M90.52731,163.1001c-0.47656,0-1.65332,0.3501-1.7373,2.4375h3.32031
			c0.00002-0.54639-0.1406-2.4375-1.58298-2.4375H90.52731z"/>
		<path class="st1" d="M100.88672,169.22168c-0.57461,0.01926-1.13185-0.19862-1.541-0.60254
			c-0.10045,0.1011-0.19408,0.20876-0.28027,0.32227c-0.26563,0.26611-0.2793,0.28027-0.34961,0.28027
			c-0.1543,0-0.1543-0.09814-0.1543-0.33643v-1.84912c0-0.252,0-0.35008,0.18262-0.35008c0.13965,0,0.15332,0.05615,0.19531,0.23828
			c0.2666,1.19043,0.77051,1.98877,1.94727,1.98877c1.09277,0,1.583-0.56006,1.583-1.27441c0-1.00879-1.14844-1.23291-1.457-1.28857
			c-0.66322-0.04346-1.30218-0.26622-1.84864-0.64453c-0.3768-0.28004-0.59998-0.72096-0.60254-1.19043
			c0-0.78467,0.53223-1.72314,2.24121-1.72314c0.4698-0.01616,0.93201,0.12151,1.31641,0.39209
			c0.08623-0.06714,0.166-0.14217,0.23828-0.22412c0.18262-0.168,0.21-0.168,0.28028-0.168
			c0.15429,0,0.15429,0.09814,0.15429,0.33594v1.41499c0,0.26611,0,0.33594-0.18261,0.33594c0,0-0.15333,0-0.168-0.12601
			c0.08475-0.84889-0.53471-1.60577-1.38361-1.69052c-0.08476-0.00847-0.17007-0.0099-0.25507-0.0043
			c-1.2041,0-1.56835,0.5742-1.56835,1.06445c0,0.8125,0.93847,0.99463,1.72265,1.14893
			c0.58903,0.0533,1.14696,0.28824,1.59668,0.67236c0.37366,0.34161,0.58692,0.82428,0.58788,1.33057
			C103.1416,168.2832,102.49805,169.22168,100.88672,169.22168z"/>
		<path class="st1" d="M109.42773,164.36084l-2.46484,5.98145c-0.33594,0.79834-0.91016,1.59666-1.793,1.59666
			c-0.66742,0.03706-1.2412-0.46803-1.28906-1.13477c-0.007-0.32492,0.2507-0.59399,0.57562-0.601
			c0.32492-0.00702,0.59399,0.2507,0.601,0.57562c0.00676,0.31329-0.2332,0.57693-0.54576,0.59959
			c0.179,0.1653,0.41458,0.25565,0.6582,0.25244c0.89648,0,1.28906-0.9668,1.59668-1.73682l0.35059-0.82666l-2.10156-5.11279
			c-0.19629-0.49023-0.46191-0.49023-1.13477-0.49023v-0.4341c0.4209,0.02785,0.98047,0.04201,1.35938,0.04201l1.52637-0.04201
			v0.4341c-0.26563,0-0.78418,0-0.78418,0.36424c0.01436,0.08795,0.04271,0.17303,0.084,0.252l1.55469,3.76807l1.41499-3.4458
			c0.05708-0.10263,0.08606-0.21852,0.084-0.33594c0-0.35059-0.22461-0.58836-0.6582-0.60252v-0.4341l1.21875,0.04201
			c0.32129,0,0.72754-0.01416,1.0498-0.04201v0.4341C110.14543,163.44124,109.6151,163.80618,109.42773,164.36084z"/>
		<path class="st1" d="M120.82617,169.02539l-1.58299,0.04201v-0.43408c0.93848,0,1.09277,0,1.09277-0.63037v-3.26367
			c0-0.79883-0.1543-1.55518-1.03613-1.55518c-1.1273,0.08002-1.97629,1.05875-1.89627,2.18604
			c0.00131,0.01842,0.00287,0.0368,0.00467,0.05518v2.57764c0,0.63037,0.1543,0.63037,1.09277,0.63037v0.43408l-1.56836-0.04201
			l-1.58299,0.04201v-0.43408c0.93848,0,1.09277,0,1.09277-0.63037v-3.26367c0-0.79883-0.1543-1.55518-1.03711-1.55518
			c-1.12691,0.08014-1.97549,1.05865-1.89534,2.18556c0.00131,0.01857,0.00288,0.03712,0.00471,0.05565v2.57764
			c0,0.63037,0.1543,0.63037,1.09277,0.63037v0.43408l-1.56934-0.04201l-1.58299,0.04201v-0.43408
			c0.93848,0,1.09277,0,1.09277-0.63037v-3.75395c0-0.68652-0.1123-0.78465-1.09277-0.78465v-0.4341l1.97559-0.1543v1.4707
			c0.31113-0.87889,1.14091-1.46753,2.07326-1.4707c0.89029-0.1227,1.71623,0.48625,1.8623,1.373
			c0.33926-0.82458,1.13963-1.36559,2.03125-1.373c0.5424-0.04997,1.07959,0.13943,1.4707,0.51855
			c0.43457,0.50391,0.43457,0.93848,0.43457,2.14307v2.67529c0.01369,0.42041,0.36426,0.42041,1.09277,0.42041v0.43408
			L120.82617,169.02539z"/>
		<path class="st1" d="M132.48828,169.02539l-1.58299,0.04201v-0.43408c0.93848,0,1.09277,0,1.09277-0.63037v-3.26367
			c0-0.79883-0.1543-1.55518-1.03613-1.55518c-1.1273,0.08002-1.97629,1.05875-1.89627,2.18604
			c0.00131,0.01842,0.00287,0.0368,0.00467,0.05518v2.57764c0,0.63037,0.1543,0.63037,1.09277,0.63037v0.43408l-1.56836-0.04201
			l-1.58299,0.04201v-0.43408c0.93848,0,1.09277,0,1.09277-0.63037v-3.26367c0-0.79883-0.1543-1.55518-1.03711-1.55518
			c-1.12691,0.08014-1.97549,1.05865-1.89534,2.18556c0.00131,0.01857,0.00288,0.03712,0.00471,0.05565v2.57764
			c0,0.63037,0.1543,0.63037,1.09277,0.63037v0.43408l-1.56934-0.04201l-1.58299,0.04201v-0.43408
			c0.93848,0,1.09277,0,1.09277-0.63037v-3.75395c0-0.68652-0.1123-0.78465-1.09277-0.78465v-0.4341l1.97559-0.1543v1.4707
			c0.31113-0.87889,1.14091-1.46753,2.07326-1.4707c0.89029-0.1227,1.71623,0.48625,1.8623,1.373
			c0.33926-0.82458,1.13963-1.36559,2.03125-1.373c0.5424-0.04997,1.07959,0.13943,1.4707,0.51855
			c0.43457,0.50391,0.43457,0.93848,0.43457,2.14307v2.67529c0.01369,0.42041,0.36426,0.42041,1.09277,0.42041v0.43408
			L132.48828,169.02539z"/>
		<path class="st1" d="M137.80469,169.22168c-1.74394-0.04402-3.12291-1.49182-3.082-3.23584
			c-0.07483-1.68578,1.22852-3.11424,2.91406-3.19385c1.3719-0.02007,2.50032,1.07582,2.52037,2.44774
			c0.00146,0.09947-0.00307,0.19893-0.01353,0.29787c0,0.29395-0.04201,0.29395-0.34959,0.29395h-3.9082
			c-0.04965,0.72527,0.09532,1.45062,0.41992,2.10107c0.32889,0.5665,0.92816,0.92177,1.58299,0.93848
			c0.88159-0.00467,1.65321-0.59335,1.89063-1.44238c0.02832-0.1123,0.05664-0.19629,0.18262-0.19629
			c0.0889-0.01085,0.16975,0.05241,0.1806,0.14131c0.00108,0.00885,0.00142,0.01778,0.00104,0.02669
			C139.87888,168.4753,138.91165,169.22845,137.80469,169.22168z M137.63669,163.1001c-0.47656,0-1.65332,0.3501-1.7373,2.4375
			h3.32031c0.00003-0.54639-0.14059-2.4375-1.58298-2.4375H137.63669z"/>
		<path class="st1" d="M143.81055,169.22168c-0.9337,0.06866-1.74629-0.6326-1.81496-1.5663
			c-0.00795-0.10826-0.00549-0.21703,0.00734-0.32481v-3.86621h-1.19043v-0.30811c1.37305-0.05615,1.793-1.55469,1.80664-2.70361
			h0.35059v2.57764h2.00293v0.4341h-2.00293v3.894c0,0.23828,0,1.5127,0.93848,1.5127c0.51855,0,0.93848-0.53223,0.93848-1.56885
			v-0.77h0.35059v0.79834C145.19727,168.22705,144.80469,169.22168,143.81055,169.22168z"/>
		<path class="st1" d="M150.48828,164.34668c-0.32001,0.01222-0.58936-0.23727-0.60158-0.5573
			c-0.00056-0.01489-0.00056-0.02982,0.00002-0.04471c-0.00404-0.22803,0.12006-0.43907,0.32129-0.54639
			c-0.02734-0.01416-0.05566-0.01416-0.15332-0.01416c-1.06445,0-1.65332,1.24658-1.65332,2.6333v2.15723
			c0,0.50439,0.02832,0.65869,1.06445,0.65869h0.29395v0.43408c-0.55957-0.04201-1.21777-0.04201-1.77832-0.04201l-1.59668,0.04201
			v-0.43408c0.93848,0,1.0918,0,1.0918-0.63037v-3.75398c0-0.68652-0.11133-0.78465-1.0918-0.78465v-0.4341l1.94627-0.1543v1.541
			c0.17891-0.83348,0.8754-1.45616,1.72363-1.541c0.52098-0.04659,0.98267,0.33417,1.03613,0.85449
			c0.01555,0.32452-0.23492,0.6002-0.55945,0.61575C150.517,164.34688,150.50264,164.34705,150.48828,164.34668z"/>
		<path class="st1" d="M153.4834,169.02539l-1.541,0.04201v-0.43408c0.93848,0,1.09277,0,1.09277-0.63037v-3.76807
			c0-0.68652-0.12601-0.77049-1.03613-0.77049v-0.4341l1.96097-0.15428v5.14063c0,0.54639,0.05566,0.6167,0.98047,0.6167v0.43408
			C154.46387,169.05322,153.97363,169.02539,153.4834,169.02539z M153.41309,161.34912
			c-0.40999-0.00792-0.73595-0.34669-0.72803-0.7567c0.00792-0.40999,0.34671-0.73595,0.7567-0.72803
			c0.40448,0.00781,0.72826,0.33798,0.72816,0.74254C154.16212,161.01927,153.8255,161.34938,153.41309,161.34912z"/>
		<path class="st1" d="M158.86035,169.22168c-1.70883-0.04836-3.05609-1.47075-3.01172-3.17969
			c-0.0623-1.73233,1.29152-3.18718,3.02385-3.2495c0.00507-0.00018,0.01015-0.00035,0.01521-0.0005
			c1.0791,0,2.14355,0.54639,2.14355,1.49899c0.00735,0.35593-0.27522,0.65042-0.63115,0.65778
			c-0.35593,0.00734-0.65042-0.27524-0.65778-0.63116c-0.00009-0.00432-0.00014-0.00862-0.00014-0.01294
			c-0.00697-0.34894,0.27025-0.63745,0.61919-0.64442c0.013-0.00026,0.02602-0.00012,0.03902,0.00043
			c-0.42134-0.34628-0.95274-0.53024-1.498-0.51855c-0.74316,0-1.8916,0.58838-1.8916,2.87158
			c0,2.25537,1.23242,2.85742,1.97559,2.85742c0.88742,0.01974,1.66103-0.60028,1.83501-1.4707
			c0.02734-0.084,0.05566-0.14014,0.18164-0.14014c0.04201,0,0.18262,0,0.18262,0.14014
			C160.95242,168.48959,159.97369,169.25618,158.86035,169.22168z"/>
		<path class="st1" d="M170.63477,160.78906c-0.32048,0.01228-0.59026-0.23756-0.60254-0.55804
			c-0.00056-0.01483-0.00056-0.02966,0-0.04449c-0.00247-0.26645,0.16713-0.5041,0.41992-0.58838
			c-0.14529-0.065-0.30273-0.09845-0.46191-0.09814c-0.61621,0-1.28906,0.67236-1.28906,1.90527v1.625h1.63867v0.4341h-1.59668
			v4.51025c0,0.50439,0.02832,0.65869,1.06445,0.65869h0.29492v0.43408c-0.56055-0.04201-1.21875-0.04201-1.7793-0.04201
			l-1.59668,0.04201v-0.43408c0.93848,0,1.09277,0,1.09277-0.63037v-4.53857h-1.10744v-0.4341h1.10744v-1.61084
			c-0.03172-1.1981,0.91382-2.19507,2.11192-2.22678c0.01965-0.00052,0.03931-0.00078,0.05896-0.00076
			c0.61809-0.07448,1.18073,0.36307,1.26076,0.98047c0.02075,0.31982-0.22168,0.59592-0.54149,0.61667
			C170.6846,160.79065,170.65965,160.79066,170.63477,160.78906z"/>
		<path class="st1" d="M176.01074,169.22168v-1.26074c-0.27505,0.75998-0.99843,1.26479-1.80664,1.26074
			c-2.12891,0-2.12891-1.2749-2.12891-2.36768v-2.10107c0-1.24658,0-1.28857-1.09277-1.28857v-0.4341l2.05957-0.1543v4.65039
			c0,0.72852,0.05566,1.38672,1.23242,1.38672c1.02248,0,1.69434-0.95215,1.69434-2.1709v-2.49318
			c0-0.68652-0.11133-0.78465-1.0918-0.78465v-0.4341l2.05859-0.1543v4.97266c0,0.68652,0.1123,0.78467,1.09277,0.78467v0.43408
			L176.01074,169.22168z"/>
		<path class="st1" d="M184.24316,169.02539l-1.582,0.04201v-0.43408c0.93848,0,1.0918,0,1.0918-0.63037v-3.26367
			c0-0.79883-0.15332-1.55518-1.03613-1.55518c-1.12691,0.08014-1.97549,1.05865-1.89534,2.18556
			c0.00131,0.01857,0.00288,0.03712,0.00471,0.05565v2.57764c0,0.63037,0.15332,0.63037,1.0918,0.63037v0.43408l-1.56836-0.04201
			l-1.58299,0.04201v-0.43408c0.93848,0,1.09277,0,1.09277-0.63037v-3.75395c0-0.68652-0.1123-0.78465-1.09277-0.78465v-0.4341
			l1.97461-0.1543v1.4707c0.3116-0.87854,1.1411-1.46696,2.07324-1.4707c0.54243-0.0502,1.07971,0.13924,1.4707,0.51855
			c0.43457,0.50391,0.43457,0.93848,0.43457,2.14307v2.67529c0.01367,0.42041,0.36424,0.42041,1.09277,0.42041v0.43408
			L184.24316,169.02539z"/>
		<path class="st1" d="M189.58984,169.22168c-1.70883-0.04836-3.05608-1.47075-3.0117-3.17969
			c-0.0623-1.73233,1.29152-3.18718,3.02385-3.2495c0.00507-0.00018,0.01015-0.00035,0.01521-0.0005
			c1.0791,0,2.14355,0.54639,2.14355,1.49899c0.00735,0.35593-0.27522,0.65042-0.63115,0.65778
			c-0.35593,0.00734-0.65042-0.27524-0.65778-0.63116c-0.00009-0.00432-0.00014-0.00862-0.00014-0.01294
			c-0.00697-0.34894,0.27025-0.63745,0.61919-0.64442c0.013-0.00026,0.02602-0.00012,0.03902,0.00043
			c-0.42134-0.34628-0.95274-0.53024-1.498-0.51855c-0.74316,0-1.89162,0.58838-1.89162,2.87158
			c0,2.25537,1.23244,2.85742,1.97559,2.85742c0.88742,0.01974,1.66103-0.60028,1.83501-1.4707
			c0.02734-0.084,0.05566-0.14014,0.18164-0.14014c0.04201,0,0.18262,0,0.18262,0.14014
			C191.68192,168.48959,190.70319,169.25618,189.58984,169.22168z"/>
		<path class="st1" d="M195.58105,169.22168c-0.93364,0.06824-1.7458-0.6333-1.81404-1.56694
			c-0.0079-0.10805-0.00542-0.2166,0.0074-0.32417v-3.86621H192.584v-0.30811c1.37207-0.05615,1.793-1.55469,1.80666-2.70361
			h0.34959v2.57764h2.00391v0.4341h-2.00391v3.894c0,0.23828,0,1.5127,0.93848,1.5127c0.51855,0,0.93945-0.53223,0.93945-1.56885
			v-0.77h0.34961v0.79834C196.96777,168.22705,196.5752,169.22168,195.58105,169.22168z"/>
		<path class="st1" d="M199.7666,169.02539l-1.541,0.04201v-0.43408c0.93848,0,1.09277,0,1.09277-0.63037v-3.76807
			c0-0.68652-0.12601-0.77049-1.03613-0.77049v-0.4341l1.96094-0.1543v5.14063c0,0.54639,0.05566,0.6167,0.98047,0.6167v0.43408
			C200.74707,169.05322,200.25684,169.02539,199.7666,169.02539z M199.69629,161.34912
			c-0.40999-0.00792-0.73595-0.34669-0.72803-0.7567c0.00792-0.40999,0.34671-0.73595,0.7567-0.72803
			c0.40448,0.00781,0.72826,0.33798,0.72816,0.74254C200.44533,161.01927,200.1087,161.34938,199.69629,161.34912z"/>
		<path class="st1" d="M205.14355,169.22168c-1.72466-0.01683-3.10986-1.42719-3.0957-3.15186
			c-0.09425-1.71349,1.21838-3.17896,2.93187-3.27321c1.71349-0.09427,3.17896,1.21838,3.27321,2.93187
			c0.00626,0.11369,0.00626,0.22765,0,0.34134c0.01695,1.72371-1.36665,3.13478-3.09035,3.15173
			C205.15623,169.22162,205.1499,169.22165,205.14355,169.22168z M206.72556,164.01074
			c-0.32794-0.56322-0.93027-0.90994-1.582-0.91064c-0.66032,0.01083-1.26665,0.367-1.59766,0.93848
			c-0.26765,0.60242-0.38303,1.26143-0.33594,1.91895c-0.04585,0.67709,0.07449,1.35515,0.35059,1.9751
			c0.32281,0.57907,0.9337,0.93813,1.59668,0.93848c0.69591-0.00394,1.32782-0.40686,1.625-1.03613
			c0.24261-0.59467,0.34776-1.23645,0.30762-1.87744c0.05077-0.6696-0.07483-1.34082-0.36426-1.94678H206.72556z"/>
		<path class="st1" d="M214.58008,169.02539l-1.582,0.04201v-0.43408c0.93848,0,1.0918,0,1.0918-0.63037v-3.26367
			c0-0.79883-0.15332-1.55518-1.03613-1.55518c-1.12691,0.08014-1.97549,1.05865-1.89534,2.18556
			c0.00131,0.01857,0.00288,0.03712,0.00471,0.05565v2.57764c0,0.63037,0.15332,0.63037,1.0918,0.63037v0.43408l-1.56836-0.04201
			l-1.58299,0.04201v-0.43408c0.93848,0,1.09277,0,1.09277-0.63037v-3.75395c0-0.68652-0.1123-0.78465-1.09277-0.78465v-0.4341
			l1.97461-0.1543v1.4707c0.31158-0.87854,1.1411-1.46696,2.07324-1.4707c0.54243-0.0502,1.07971,0.13924,1.4707,0.51855
			c0.43457,0.50391,0.43457,0.93848,0.43457,2.14307v2.67529c0.01367,0.42041,0.36426,0.42041,1.09277,0.42041v0.43408
			L214.58008,169.02539z"/>
	</g>
</g>
<g>
	<path class="st1" d="M103.96631,5.07129c-0.2041,0-0.37158-0.12012-0.37158-0.34814c0-0.13184,0.07178-0.45557,0.47949-0.53955
		c-0.17969-0.22803-0.47949-0.22803-0.51563-0.22803c-0.44385,0-0.57568,0.59961-0.68359,1.12744l-0.38379,1.90723h0.91162
		c0.20361,0,0.2876,0,0.2876,0.13184c0,0.21582-0.12012,0.21582-0.32373,0.21582h-0.93555l-0.74365,3.82568
		c-0.37158,1.93115-0.93555,3.44238-1.90674,3.44238c-0.4917,0-0.93555-0.27588-0.93555-0.74365
		c0-0.396,0.27588-0.61182,0.55176-0.61182c0.20361,0,0.37158,0.12012,0.37158,0.34814c0,0.0957-0.04785,0.45557-0.4917,0.53955
		c0.15576,0.21582,0.45557,0.22803,0.50391,0.22803c0.43164,0,0.57568-0.56396,0.70752-1.06787
		c0.19189-0.73145,0.21582-0.83936,0.35986-1.55908l0.85156-4.40137h-0.70801c-0.19141,0-0.2876,0-0.2876-0.12012
		c0-0.22754,0.10791-0.22754,0.31201-0.22754h0.75537l0.25195-1.30762c0.08398-0.40771,0.38379-1.9668,1.53516-1.9668
		c0.4917,0,0.95947,0.27588,0.95947,0.74365C104.51807,4.85498,104.24219,5.07129,103.96631,5.07129z"/>
	<path class="st1" d="M107.75879,15.16943c-0.13184,0-1.11572-0.7793-1.82324-2.21875
		c-0.62354-1.2832-0.7915-2.71045-0.7915-3.77783c0-1.4751,0.27588-2.7583,0.8877-3.96973
		c0.5874-1.17529,1.5708-2.03906,1.72705-2.03906c0.04785,0,0.10791,0.02393,0.10791,0.09619c0,0.03564,0,0.05957-0.12012,0.16748
		c-1.39111,1.41553-1.95508,3.41846-1.95508,5.74512c0,2.44678,0.67188,4.42578,1.87109,5.63672
		c0.2041,0.2041,0.2041,0.22803,0.2041,0.26416C107.8667,15.14551,107.80664,15.16943,107.75879,15.16943z"/>
	<path class="st1" d="M110.93896,12.2793c-0.65918,0-0.9834-0.50391-0.9834-1.05566c0-0.04785,0-0.19189,0.06006-0.43164
		l0.86377-3.4541h-0.97168c-0.19189,0-0.2876,0-0.2876-0.12012c0-0.22754,0.10791-0.22754,0.32373-0.22754h1.01953l0.46777-1.8833
		c0.04785-0.17969,0.15576-0.44385,0.45557-0.44385c0.22803,0,0.31201,0.18018,0.31201,0.28809c0,0-0.01221,0.13184-0.02441,0.15576
		l-0.47949,1.8833h0.94727c0.2041,0,0.28809,0,0.28809,0.13184c0,0.21582-0.12012,0.21582-0.32373,0.21582h-0.99561
		l-0.89941,3.58594c-0.04785,0.17969-0.09619,0.45557-0.09619,0.63574c0,0.39551,0.16797,0.47949,0.34814,0.47949
		c0.7793,0,1.24707-1.17529,1.39111-1.54688c0.06006-0.13184,0.07178-0.15625,0.20361-0.15625c0.04834,0,0.15625,0,0.15625,0.1084
		C112.71436,10.50391,112.11475,12.2793,110.93896,12.2793z"/>
	<path class="st1" d="M116.13525,13.13086c-0.58789,1.17529-1.57129,2.03857-1.72705,2.03857
		c-0.04785,0-0.10791-0.02393-0.10791-0.0957c0-0.03613,0-0.06006,0.12012-0.16797c1.39111-1.41553,1.95459-3.41846,1.95459-5.74512
		c0-2.44629-0.67139-4.42529-1.87061-5.63672c-0.2041-0.2041-0.2041-0.22803-0.2041-0.26367
		c0-0.07227,0.06006-0.09619,0.10791-0.09619c0.13184,0,1.11523,0.77979,1.82275,2.21875
		c0.67188,1.39111,0.79199,2.87842,0.79199,3.79004C117.02295,10.61182,116.74707,11.90723,116.13525,13.13086z"/>
</g>
</svg>
