<?xml version="1.0" encoding="utf-8"?>
<!-- Generator: Adobe Illustrator 23.0.3, SVG Export Plug-In . SVG Version: 6.00 Build 0)  -->
<svg version="1.1" id="Layer_1" xmlns="http://www.w3.org/2000/svg" xmlns:xlink="http://www.w3.org/1999/xlink" x="0px" y="0px"
	 viewBox="0 0 110 94.00122" style="enable-background:new 0 0 110 94.00122;" xml:space="preserve">
<style type="text/css">
	.st0{fill:none;stroke:#8FF4DD;stroke-width:2;stroke-linecap:round;stroke-linejoin:round;}
	.st1{fill:#8FF4DD;}
	.st2{fill:none;stroke:#8FF4DD;stroke-width:2;stroke-linecap:round;}
	.st3{fill:none;stroke:#8FF4DD;stroke-width:2;stroke-linecap:square;}
	.st4{fill:#8FF4DD;stroke:#8FF4DD;stroke-width:2;}
	.st5{fill:none;stroke:#8FF4DD;stroke-width:1.5;stroke-linecap:square;}
	.st6{fill:none;stroke:#8FF4DD;stroke-width:2;stroke-miterlimit:10;}
</style>
<title>IdealTransformer</title>
<polyline class="st0" points="69,33.001 69,23.001 98.02,23.001 109,23.001 "/>
<g>
	<path class="st1" d="M18.85547,7.97559c-0.49548,0.00883-0.90431-0.38565-0.91315-0.88113
		c-0.00047-0.02614,0.00021-0.05226,0.00202-0.07834c0.01635-0.28746,0.08971-0.5688,0.21582-0.82764l0.44336-1.187l0.36035-0.99561
		c0.11804-0.27423,0.19093-0.56577,0.21582-0.86328c0-0.27588-0.13184-0.33594-0.26367-0.33594
		c-0.69629,0-1.00782,1.11523-1.11621,1.51123c-0.04786,0.16748-0.05957,0.19189-0.21582,0.19189
		c-0.05957,0-0.17969,0-0.17969-0.12012c0-0.06006,0.4082-1.84715,1.53515-1.84715c0.4883-0.0101,0.89234,0.37756,0.90244,0.86588
		c0.00064,0.03123-0.00037,0.06247-0.00302,0.0936c-0.00102,0.23146-0.0499,0.46021-0.14355,0.67188l-0.76757,2.05078
		c-0.16033,0.3663-0.26563,0.75427-0.3125,1.15137c0,0.32373,0.168,0.33594,0.26464,0.33594
		c0.69531,0,1.01955-1.15137,1.11523-1.49899c0.04785-0.18018,0.04785-0.20412,0.2041-0.20412c0.084,0,0.17969,0,0.17969,0.12012
		C20.37891,6.17676,19.9834,7.97559,18.85547,7.97559z M19.93457,1.27148c-0.28114,0.01614-0.52213-0.19868-0.53827-0.47981
		c-0.00069-0.01193-0.00095-0.02386-0.00079-0.03581C19.42442,0.34653,19.75336,0.02261,20.16309,0
		c0.28087-0.01639,0.52185,0.19801,0.53824,0.47888c0.00072,0.01224,0.00099,0.02449,0.00082,0.03674
		C20.67323,0.92496,20.3443,1.24887,19.93457,1.27148z"/>
	<path class="st1" d="M23.37115,9.63135h-1.084l-0.42578,1.7334c-0.01738,0.04459-0.02696,0.09181-0.02832,0.13965
		c0,0.063,0,0.11865,0.40527,0.11865c0.13965,0,0.18848,0,0.18848,0.09082c0,0.12601-0.08299,0.12601-0.13281,0.12601
		c-0.27246,0-0.55859-0.021-0.83789-0.021c-0.27246,0-0.55957,0.021-0.8252,0.021c-0.04562,0.00768-0.08884-0.0231-0.09651-0.06874
		c-0.00084-0.00504-0.00124-0.01015-0.00114-0.01526c0-0.13281,0.07715-0.13281,0.18848-0.13281
		c0.47559,0,0.51758-0.05566,0.57324-0.29346l0.94336-3.79443c0.01645-0.04248,0.026-0.08731,0.02832-0.13281
		c0-0.11914-0.18848-0.11914-0.40527-0.11914c-0.13281,0-0.18848,0-0.18848-0.084c0-0.13232,0.07619-0.13232,0.18848-0.13232
		h2.09668c0.59808-0.08,1.14778,0.34,1.22777,0.93808c0.00427,0.03189,0.00713,0.06395,0.00856,0.0961
		C25.05647,8.99625,24.27669,9.65074,23.37115,9.63135z M23.73444,7.2832h-0.60156c-0.23045,0-0.2793,0-0.3418,0.25195
		l-0.47559,1.91455h0.88086c0.38054,0.01921,0.75047-0.12883,1.0127-0.40527c0.21901-0.33925,0.34682-0.72925,0.37109-1.13232
		c-0.00006-0.44725-0.35651-0.62891-0.84576-0.62891H23.73444z"/>
</g>
<path class="st0" d="M41,49.08455c2.46227-0.0034,4.45558-2.00223,4.45218-4.46449C45.44878,42.1626,43.45746,40.17126,41,40.16788
	V23.00122H1"/>
<path class="st2" d="M41,58.00122c2.46227-0.0034,4.45558-2.00223,4.45218-4.46449c-0.0034-2.45746-1.99472-4.44879-4.45218-4.45218
	"/>
<path class="st2" d="M41,58.00122c2.46227,0.00223,4.45651,2.00011,4.45428,4.46237C45.45206,64.9227,43.45911,66.91565,41,66.91788
	"/>
<path class="st0" d="M41,66.91786c2.46227,0.0034,4.45558,2.00223,4.45218,4.46449c-0.0034,2.45746-1.99472,4.44879-4.45218,4.45218
	v17.16666H1"/>
<polyline class="st3" points="13,19.001 27,19.001 24,16.001 "/>
<g>
	<path class="st0" d="M69,33.00122v7.16664c-2.46227,0.0034-4.45558,2.00223-4.45218,4.46449
		c0.0034,2.45746,1.99472,4.44879,4.45218,4.45218"/>
	<path class="st2" d="M69,58.00122c-2.46227-0.0034-4.45558-2.00223-4.45218-4.46449
		c0.0034-2.45746,1.99472-4.44879,4.45218-4.45218"/>
	<path class="st2" d="M69,58.00122c-2.46227,0.00223-4.45651,2.00011-4.45428,4.46237
		C64.54794,64.9227,66.54089,66.91565,69,66.91788"/>
	<path class="st0" d="M69,66.91786c-2.46227,0.0034-4.45558,2.00223-4.45218,4.46449
		c0.0034,2.45746,1.99472,4.44879,4.45218,4.45218v7.16666"/>
</g>
<polyline class="st0" points="69,83.001 69,93.001 98.02,93.001 109,93.001 "/>
<polyline class="st3" points="84.077,18.902 98.077,18.902 95.077,15.902 "/>
<g>
	<path class="st1" d="M89.93262,7.97559c-0.49548,0.00883-0.90431-0.38565-0.91316-0.88113
		c-0.00046-0.02614,0.00021-0.05226,0.00203-0.07834c0.01636-0.28746,0.08971-0.5688,0.21582-0.82764l0.44336-1.187l0.36035-0.99561
		c0.11804-0.27423,0.19093-0.56577,0.21582-0.86328c0-0.27588-0.13184-0.33594-0.26367-0.33594
		c-0.69629,0-1.00781,1.11523-1.11623,1.51123c-0.04785,0.16748-0.05957,0.19189-0.21582,0.19189
		c-0.05957,0-0.17969,0-0.17969-0.12012c0-0.06006,0.4082-1.84715,1.53516-1.84715c0.48831-0.0101,0.89235,0.37758,0.90244,0.86589
		c0.00064,0.03122-0.00037,0.06245-0.00302,0.09358c-0.00102,0.23146-0.0499,0.46021-0.14355,0.67188l-0.76758,2.05078
		c-0.16032,0.3663-0.26564,0.75427-0.3125,1.15137c0,0.32373,0.168,0.33594,0.26465,0.33594
		c0.69531,0,1.01953-1.15137,1.11523-1.49899c0.04785-0.18018,0.04785-0.20412,0.2041-0.20412c0.084,0,0.17969,0,0.17969,0.12012
		C91.45605,6.17676,91.06055,7.97559,89.93262,7.97559z M91.01172,1.27148c-0.28114,0.01614-0.52213-0.19868-0.53827-0.47981
		c-0.00069-0.01193-0.00095-0.02386-0.00079-0.03581C90.50157,0.34653,90.83051,0.02261,91.24023,0
		c0.28087-0.01639,0.52185,0.19801,0.53824,0.47888c0.00072,0.01224,0.00099,0.02449,0.00082,0.03674
		C91.75038,0.92496,91.42145,1.24887,91.01172,1.27148z"/>
	<path class="st1" d="M93.27344,11.99365c-0.41425,0.0257-0.81445-0.15485-1.06934-0.48242
		c-0.06934,0.09082-0.25101,0.31445-0.32813,0.39844c-0.05566,0.06982-0.0625,0.084-0.11133,0.084
		c-0.03966,0.00285-0.07413-0.02698-0.077-0.06664c-0.00008-0.00107-0.00012-0.00212-0.00015-0.00319
		c0.00308-0.03101,0.00996-0.06151,0.02051-0.09082l0.36328-1.46094c0.02832-0.10449,0.04201-0.11865,0.12601-0.11865
		c0.04201,0,0.10547,0,0.10547,0.07666l-0.00781,0.04201c-0.03424,0.1396-0.05292,0.28256-0.05566,0.42627
		c-0.02721,0.51633,0.36929,0.95697,0.88564,0.98418c0.05446,0.00287,0.10905,0.00098,0.16319-0.00566
		c0.668-0.09036,1.16649-0.66039,1.16701-1.33447c0.00882-0.18066-0.04576-0.35873-0.1543-0.50342
		c-0.11816-0.12601-0.1748-0.147-0.53809-0.25146l-0.3418-0.09814c-0.10193-0.02446-0.20235-0.05479-0.30078-0.09082
		c-0.35643-0.16541-0.57751-0.52985-0.55957-0.92236c0.04126-0.88525,0.73813-1.59973,1.62207-1.66309
		c0.36678-0.01936,0.71494,0.16277,0.9082,0.4751l0.31445-0.3916c0.0625-0.07666,0.06934-0.0835,0.10449-0.0835
		c0.03992-0.00023,0.07339,0.03008,0.07715,0.06982c-0.00119,0.03293-0.00578,0.06566-0.01369,0.09766l-0.36328,1.44678
		c-0.02832,0.11865-0.0498,0.12601-0.12601,0.12601c-0.03516,0-0.10547,0-0.10547-0.07031l0.00781-0.09766
		c0.02618-0.12634,0.03764-0.25529,0.03418-0.38428c0-0.51709-0.19531-0.99268-0.85254-0.99268
		c-0.62357,0.05838-1.10753,0.56949-1.13184,1.19531c-0.02138,0.25928,0.1208,0.50449,0.35645,0.61475
		c0.03516,0.01416,0.252,0.07715,0.38477,0.11182c0.66309,0.1958,0.74707,0.2168,0.92188,0.43359
		c0.15427,0.20523,0.2354,0.45619,0.23047,0.71289C94.91695,11.11432,94.20575,11.89447,93.27344,11.99365z"/>
</g>
<circle class="st4" cx="34" cy="40.00122" r="1"/>
<circle class="st4" cx="76" cy="40.00122" r="1"/>
<g>
	<line class="st5" x1="23.03589" y1="44.31396" x2="28.03589" y2="44.31396"/>
	<line class="st5" x1="25.53589" y1="46.81396" x2="25.53589" y2="41.81396"/>
</g>
<line class="st5" x1="23.03589" y1="71.65283" x2="28.03589" y2="71.65283"/>
<g>
	<path class="st1" d="M24.83691,59.04346c-0.73787,0.07494-1.39679-0.46248-1.47173-1.20035
		c-0.00807-0.07945-0.00903-0.15947-0.00288-0.23911c0.08186-0.79486,0.28815-1.57193,0.61131-2.30273
		c0.15263-0.34215,0.24988-0.70641,0.28809-1.0791c0-0.3125-0.13184-0.34766-0.26367-0.34766
		c-0.69629,0-1.01953,1.13867-1.11621,1.51074c-0.04785,0.168-0.05957,0.19238-0.21582,0.19238
		c-0.05957,0-0.17969,0-0.17969-0.12012c0-0.07227,0.41992-1.84766,1.53516-1.84766
		c0.49614-0.00864,0.90535,0.38657,0.91399,0.88272c0.00052,0.02968-0.00043,0.05937-0.00285,0.08896
		c-0.01085,0.20573-0.05539,0.40829-0.13184,0.59961c-0.36411,0.82741-0.6024,1.70464-0.707,2.60254
		c0,0.39648,0.13184,0.99609,0.7793,0.99609c1.37891,0,1.94336-3.01074,1.94336-3.34668
		c0.0172-0.34563-0.09885-0.68466-0.32422-0.94727c-0.09361-0.08261-0.14995-0.19951-0.15625-0.3242
		c0.03134-0.30005,0.27505-0.53343,0.57617-0.55176c0.34766,0,0.49121,0.37207,0.49121,0.79201
		C27.40332,54.71338,26.85156,59.04346,24.83691,59.04346z"/>
	<path class="st1" d="M30.28906,60.69873h-1.084l-0.42578,1.73338c-0.01735,0.04459-0.02692,0.09183-0.02832,0.13965
		c0,0.06348,0,0.11914,0.40527,0.11914c0.13965,0,0.18848,0,0.18848,0.09082c0,0.12601-0.08299,0.12601-0.13281,0.12601
		c-0.27248,0-0.55859-0.02148-0.83789-0.02148c-0.27248,0-0.55959,0.02148-0.8252,0.02148
		c-0.04562,0.00768-0.08884-0.0231-0.09651-0.06874c-0.00084-0.00504-0.00124-0.01015-0.00114-0.01526
		c0-0.13281,0.07715-0.13281,0.18848-0.13281c0.47559,0,0.51758-0.05566,0.57324-0.29395l0.94336-3.79395
		c0.0164-0.0425,0.02596-0.08733,0.02832-0.13281c0-0.11914-0.18848-0.11914-0.40527-0.11914c-0.13281,0-0.18848,0-0.18848-0.084
		c0-0.13281,0.07617-0.13281,0.18848-0.13281h2.09668c0.59808-0.08,1.14778,0.34,1.22777,0.93808
		c0.00427,0.03189,0.00713,0.06395,0.00856,0.0961C31.97438,60.06363,31.1946,60.71812,30.28906,60.69873z M30.65236,58.35107
		H30.0508c-0.23047,0-0.2793,0-0.3418,0.25195l-0.47559,1.91406h0.88086c0.38054,0.01921,0.75047-0.12883,1.0127-0.40527
		c0.21893-0.33911,0.34674-0.72893,0.37109-1.13184c-0.00002-0.44727-0.35646-0.62891-0.84572-0.62891H30.65236z"/>
</g>
<g>
	<line class="st5" x1="81.03589" y1="44.31396" x2="86.03589" y2="44.31396"/>
	<line class="st5" x1="83.53589" y1="46.81396" x2="83.53589" y2="41.81396"/>
</g>
<line class="st5" x1="81.03589" y1="71.65283" x2="86.03589" y2="71.65283"/>
<g>
	<path class="st1" d="M82.83691,59.04346c-0.73787,0.07494-1.39679-0.46248-1.47173-1.20035
		c-0.00807-0.07945-0.00903-0.15947-0.00288-0.23911c0.08186-0.79486,0.28815-1.57193,0.61131-2.30273
		c0.15263-0.34215,0.24988-0.70641,0.28809-1.0791c0-0.3125-0.13184-0.34766-0.26367-0.34766
		c-0.69629,0-1.01953,1.13867-1.11621,1.51074c-0.04785,0.168-0.05957,0.19238-0.21582,0.19238
		c-0.05957,0-0.17969,0-0.17969-0.12012c0-0.07227,0.41992-1.84766,1.53516-1.84766
		c0.49614-0.00864,0.90535,0.38657,0.91399,0.88272c0.00052,0.02968-0.00043,0.05937-0.00285,0.08896
		c-0.01085,0.20573-0.05539,0.40829-0.13184,0.59961c-0.36411,0.82741-0.6024,1.70464-0.707,2.60254
		c0,0.39648,0.13184,0.99609,0.7793,0.99609c1.37891,0,1.94336-3.01074,1.94336-3.34668
		c0.0172-0.34563-0.09885-0.68466-0.32422-0.94727c-0.09361-0.08261-0.14995-0.19951-0.15625-0.3242
		c0.03134-0.30005,0.27505-0.53343,0.57617-0.55176c0.34766,0,0.49121,0.37207,0.49121,0.79201
		C85.40332,54.71338,84.85156,59.04346,82.83691,59.04346z"/>
	<path class="st1" d="M87.11426,63.06104c-0.41429,0.02592-0.81461-0.15466-1.06934-0.48242
		c-0.06934,0.09082-0.25101,0.31445-0.32813,0.39844c-0.05566,0.07031-0.0625,0.084-0.11133,0.084
		c-0.03941,0.0031-0.07387-0.02635-0.07697-0.06577c-0.00009-0.00119-0.00015-0.00238-0.00018-0.00357
		c0.00304-0.03101,0.00992-0.06152,0.02051-0.09082l0.36328-1.46094c0.02832-0.10451,0.04201-0.11914,0.12601-0.11914
		c0.04201,0,0.10547,0,0.10547,0.07713l-0.00781,0.04201c-0.03421,0.13943-0.05289,0.28224-0.05566,0.42578
		c-0.02734,0.51622,0.36897,0.95685,0.88519,0.98419c0.05461,0.00288,0.10936,0.00099,0.16364-0.00568
		c0.66812-0.08978,1.16684-0.65987,1.16701-1.334c0.0088-0.18082-0.04576-0.35902-0.1543-0.50391
		c-0.11816-0.12601-0.1748-0.14648-0.53809-0.25101l-0.3418-0.09863c-0.10205-0.024-0.2025-0.05434-0.30078-0.09082
		c-0.35638-0.16519-0.5775-0.52948-0.55957-0.92188c0.04126-0.88525,0.73813-1.59973,1.62207-1.66309
		c0.36665-0.01938,0.71475,0.16254,0.9082,0.47461l0.31445-0.3916c0.0625-0.07617,0.07031-0.08299,0.10449-0.08299
		c0.03981-0.00038,0.0733,0.02971,0.07715,0.06934c-0.00113,0.03294-0.00572,0.06567-0.01369,0.09766l-0.36328,1.44727
		c-0.02832,0.11816-0.0498,0.12601-0.12601,0.12601c-0.03516,0-0.10547,0-0.10547-0.07031l0.00781-0.09766
		c0.02615-0.12651,0.03763-0.25562,0.03418-0.38477c0-0.5166-0.19531-0.99219-0.85254-0.99219
		c-0.62357,0.05838-1.10753,0.56949-1.13184,1.19531c-0.02124,0.25912,0.12094,0.5041,0.35645,0.61424
		c0.03516,0.01465,0.25195,0.07715,0.38477,0.1123c0.66309,0.19531,0.74707,0.2168,0.92188,0.43359
		c0.15433,0.2052,0.23547,0.45618,0.23047,0.71289C88.75761,62.18198,88.04643,62.96191,87.11426,63.06104z"/>
</g>
<g>
	<path class="st1" d="M45.72656,5.13818c-0.55077-0.06834-1.06773,0.27948-1.21191,0.81543l-1.67871,6.76465
		c-0.06055,0.22754-0.1084,0.23975-0.24023,0.23975c-0.168,0-0.17969-0.02393-0.23924-0.2041l-2.5791-7.15967l-1.54688,6.17627
		c-0.02916,0.09737-0.04526,0.1982-0.04785,0.2998c0,0.18018,0.02344,0.4917,0.707,0.51611
		c0.14453,0,0.22852,0.01172,0.22852,0.15576c0,0.21582-0.14455,0.21582-0.21582,0.21582c-0.37207,0-0.79201-0.03613-1.1758-0.03613
		c-0.37207,0-0.7793,0.03613-1.13963,0.03613c-0.084,0-0.15527-0.03613-0.15527-0.144c0-0.21582,0.13184-0.22754,0.22754-0.22754
		c0.54633,0.0621,1.05017-0.30173,1.16309-0.83984l1.58299-6.35645c0.01799-0.05035,0.03011-0.10263,0.03613-0.15576
		c0-0.09619-0.64746-0.09619-0.73145-0.09619c-0.22754,0-0.32324,0-0.32324-0.14355c0-0.228,0.13184-0.228,0.32324-0.228h1.49899
		c0.25195,0,0.26367,0.0117,0.33594,0.20361l2.24316,6.23682l1.31934-5.26514c0.02829-0.09357,0.04437-0.1904,0.04787-0.28809
		c0-0.25146-0.0957-0.4917-0.71973-0.51563c-0.1084,0-0.21582-0.01172-0.21582-0.14355c0-0.228,0.15625-0.228,0.21582-0.228
		c0.37207,0,0.7793,0.03564,1.16309,0.03564s0.7793-0.03564,1.15137-0.03564c0.07635-0.0099,0.14629,0.04398,0.15619,0.12033
		c0.00153,0.01176,0.00156,0.02367,0.00006,0.03543C45.90625,5.12646,45.76172,5.13818,45.72656,5.13818z"/>
	<path class="st1" d="M47.88184,14.74561h-1.084l-0.42578,1.7334c-0.01738,0.04459-0.02696,0.09181-0.02832,0.13965
		c0,0.063,0,0.11865,0.40527,0.11865c0.13963,0,0.18848,0,0.18848,0.09082c0,0.12601-0.08299,0.12601-0.13281,0.12601
		c-0.27246,0-0.55859-0.021-0.83789-0.021c-0.27246,0-0.55957,0.021-0.8252,0.021c-0.04562,0.00768-0.08884-0.0231-0.09651-0.06874
		c-0.00084-0.00504-0.00124-0.01015-0.00114-0.01526c0-0.13281,0.07715-0.13281,0.18848-0.13281
		c0.47559,0,0.51758-0.05566,0.57326-0.29346l0.94336-3.79492c0.01649-0.0423,0.02606-0.08698,0.02832-0.13232
		c0-0.11914-0.18848-0.11914-0.40527-0.11914c-0.13281,0-0.18848,0-0.18848-0.0835c0-0.13281,0.07617-0.13281,0.18848-0.13281
		h2.09668c0.59808-0.08,1.14778,0.34,1.22777,0.93808c0.00427,0.03189,0.00713,0.06395,0.00856,0.0961
		C49.56715,14.11052,48.78737,14.76501,47.88184,14.74561z M48.24512,12.39746h-0.60156c-0.23047,0-0.2793,0-0.3418,0.25146
		l-0.47559,1.91499h0.88086c0.38054,0.01921,0.75047-0.12883,1.0127-0.40527c0.21901-0.33925,0.34682-0.72925,0.37109-1.13232
		c0-0.44722-0.35645-0.62886-0.84567-0.62886H48.24512z"/>
	<path class="st1" d="M55.30957,9.06006c-0.35098-0.00014-0.63539-0.28476-0.63525-0.63574s0.28476-0.63539,0.63574-0.63525
		c0.35078,0.00014,0.63512,0.28447,0.63525,0.63525C55.94305,8.77449,55.65974,9.0578,55.30957,9.06006z M55.30957,12.95805
		c-0.3511,0-0.63574-0.28464-0.63574-0.63574s0.28464-0.63574,0.63574-0.63574s0.63574,0.28464,0.63574,0.63574
		c-0.00229,0.35014-0.2856,0.63342-0.63574,0.6357V12.95805z"/>
	<path class="st1" d="M71.01367,5.13818c-0.55077-0.06834-1.06773,0.27948-1.21191,0.81543l-1.67871,6.76465
		c-0.06055,0.22754-0.1084,0.23975-0.24023,0.23975c-0.168,0-0.17969-0.02393-0.23924-0.2041l-2.57912-7.15967l-1.54688,6.17627
		c-0.02916,0.09737-0.04526,0.1982-0.04785,0.2998c0,0.18018,0.02344,0.4917,0.707,0.51611
		c0.14453,0,0.22852,0.01172,0.22852,0.15576c0,0.21582-0.14455,0.21582-0.21584,0.21582
		c-0.37207,0-0.79201-0.03613-1.17578-0.03613c-0.37207,0-0.7793,0.03613-1.13963,0.03613c-0.084,0-0.15527-0.03613-0.15527-0.144
		c0-0.21582,0.13184-0.22754,0.22754-0.22754c0.54633,0.0621,1.05017-0.30173,1.16309-0.83984l1.58299-6.35645
		c0.01799-0.05035,0.03011-0.10263,0.03613-0.15576c0-0.09619-0.64746-0.09619-0.73145-0.09619
		c-0.22754,0-0.32324,0-0.32324-0.14355c0-0.228,0.13184-0.228,0.32324-0.228h1.49899c0.25195,0,0.26367,0.0117,0.33594,0.20361
		l2.24316,6.23682l1.31934-5.26514c0.02827-0.09357,0.04436-0.1904,0.04785-0.28809c0-0.25146-0.0957-0.4917-0.71973-0.51563
		c-0.1084,0-0.21582-0.01172-0.21582-0.14355c0-0.228,0.15625-0.228,0.21582-0.228c0.37207,0,0.7793,0.03564,1.16309,0.03564
		s0.7793-0.03564,1.15137-0.03564c0.07635-0.0099,0.14629,0.04398,0.15619,0.12033c0.00153,0.01176,0.00156,0.02367,0.00006,0.03543
		C71.19336,5.12646,71.04883,5.13818,71.01367,5.13818z"/>
	<path class="st1" d="M71.99416,17.10791c-0.41425,0.0257-0.81447-0.15485-1.06934-0.48242
		c-0.06934,0.09082-0.25101,0.31445-0.32813,0.39844c-0.05566,0.06982-0.0625,0.084-0.11133,0.084
		c-0.03966,0.00285-0.07413-0.02698-0.077-0.06664c-0.00008-0.00107-0.00012-0.00212-0.00015-0.00319
		c0.00308-0.03101,0.00996-0.06151,0.02051-0.09082l0.36328-1.46094c0.02832-0.10449,0.04201-0.11865,0.12601-0.11865
		c0.04201,0,0.10547,0,0.10547,0.07715l-0.00781,0.0415c-0.03424,0.1396-0.05292,0.28256-0.05566,0.42627
		c-0.02721,0.51634,0.36931,0.95697,0.88565,0.98418c0.05446,0.00287,0.10905,0.00098,0.16318-0.00566
		c0.66818-0.09044,1.1667-0.66074,1.16701-1.33501c0.00874-0.1805-0.04582-0.35838-0.1543-0.50293
		c-0.11816-0.12601-0.1748-0.147-0.53809-0.25146l-0.3418-0.09814c-0.10193-0.02448-0.20235-0.05479-0.30078-0.09082
		c-0.35641-0.16541-0.57751-0.52985-0.55957-0.92236c0.04126-0.88525,0.73813-1.59973,1.62207-1.66309
		c0.36678-0.01936,0.71494,0.16277,0.9082,0.4751l0.31445-0.39162c0.0625-0.07666,0.06934-0.0835,0.10449-0.0835
		c0.03992-0.00023,0.07339,0.03008,0.07715,0.06982c-0.00119,0.03293-0.00578,0.06566-0.01367,0.09766l-0.36328,1.44678
		c-0.02832,0.11865-0.0498,0.12547-0.12601,0.12547c-0.03516,0-0.10547,0-0.10547-0.06982l0.00781-0.09766
		c0.02618-0.12634,0.03766-0.25529,0.03418-0.38428c0-0.51709-0.19531-0.99268-0.85254-0.99268
		c-0.62357,0.05838-1.10753,0.56949-1.13184,1.19531c-0.02138,0.25928,0.1208,0.50449,0.35645,0.61475
		c0.03516,0.01416,0.252,0.07715,0.38477,0.11182c0.66309,0.1958,0.74707,0.2168,0.92188,0.43359
		c0.15427,0.20523,0.2354,0.45619,0.23047,0.71289C73.63776,16.2285,72.92653,17.00873,71.99416,17.10791z"/>
</g>
<path class="st6" d="M51.81944,48.90186v18"/>
<line class="st6" x1="58.18056" y1="48.90186" x2="58.18056" y2="66.90186"/>
</svg>
