<svg id="Layer_1" data-name="Layer 1" xmlns="http://www.w3.org/2000/svg" viewBox="0 0 110 94.00122">
  <defs>
    <style>
      .cls-1, .cls-2, .cls-3, .cls-5, .cls-6 {
        fill: none;
      }

      .cls-1, .cls-2, .cls-3, .cls-4, .cls-5, .cls-6 {
        stroke: #000;
      }

      .cls-1, .cls-2 {
        stroke-linecap: round;
      }

      .cls-1 {
        stroke-linejoin: round;
      }

      .cls-1, .cls-2, .cls-3, .cls-4, .cls-6 {
        stroke-width: 2px;
      }

      .cls-3, .cls-5 {
        stroke-linecap: square;
      }

      .cls-5 {
        stroke-width: 1.5px;
      }

      .cls-6 {
        stroke-miterlimit: 10;
      }
    </style>
  </defs>
  <title>IdealTransformer</title>
  <polyline class="cls-1" points="69 33.001 69 23.001 98.02 23.001 109 23.001"/>
  <g>
    <path d="M127.77832,186.07373a.89729.89729,0,0,1-.91113-.95947,2.17115,2.17115,0,0,1,.21582-.82764l.44336-1.187.36035-.99561a2.76691,2.76691,0,0,0,.21582-.86328c0-.27588-.13184-.33593-.26367-.33593-.69629,0-1.00782,1.11523-1.11621,1.51123-.04786.16748-.05957.19189-.21582.19189-.05957,0-.17969,0-.17969-.12012,0-.06006.4082-1.84716,1.53515-1.84716a.88435.88435,0,0,1,.89942.95947,1.67872,1.67872,0,0,1-.14356.67187l-.76757,2.05078a4.05749,4.05749,0,0,0-.3125,1.15137c0,.32373.168.33594.26464.33594.69532,0,1.01954-1.15137,1.11524-1.499.04785-.18018.04785-.20411.2041-.20411.084,0,.17969,0,.17969.12012C129.30176,184.2749,128.90625,186.07373,127.77832,186.07373Zm1.0791-6.7041a.50988.50988,0,0,1-.53906-.51563.8145.8145,0,0,1,.76758-.75586.50943.50943,0,0,1,.53906.51563A.8145.8145,0,0,1,128.85742,179.36963Z" transform="translate(-108.92285 -178.09814)"/>
    <path d="M132.294,187.72949H131.21l-.42578,1.7334a.41714.41714,0,0,0-.02832.13965c0,.063,0,.11865.40527.11865.13965,0,.18848,0,.18848.09082,0,.126-.083.126-.13281.126-.27246,0-.5586-.021-.83789-.021-.27246,0-.55957.021-.8252.021a.08378.08378,0,0,1-.09766-.084c0-.13281.07715-.13281.18848-.13281.47559,0,.51758-.05566.57324-.29346l.94336-3.79443a.42831.42831,0,0,0,.02832-.13281c0-.11914-.18847-.11914-.40527-.11914-.13281,0-.18848,0-.18848-.084,0-.13232.07618-.13232.18848-.13232h2.09668a1.09257,1.09257,0,0,1,1.23633,1.03418A1.80562,1.80562,0,0,1,132.294,187.72949Zm.36328-2.34814h-.60157c-.23046,0-.27929,0-.34179.25195l-.47559,1.91455h.88086a1.30515,1.30515,0,0,0,1.0127-.40527,2.348,2.348,0,0,0,.37109-1.13233C133.50293,185.563,133.14648,185.38135,132.65723,185.38135Z" transform="translate(-108.92285 -178.09814)"/>
  </g>
  <path class="cls-1" d="M149.92285,227.1827a4.45834,4.45834,0,0,0,0-8.91667V201.09937h-40" transform="translate(-108.92285 -178.09814)"/>
  <path class="cls-2" d="M149.92285,236.09937a4.45834,4.45834,0,0,0,0-8.91667" transform="translate(-108.92285 -178.09814)"/>
  <path class="cls-2" d="M149.92285,236.09937a4.45833,4.45833,0,0,1,0,8.91666" transform="translate(-108.92285 -178.09814)"/>
  <path class="cls-1" d="M149.92285,245.016a4.45834,4.45834,0,0,1,0,8.91667v17.16667h-40" transform="translate(-108.92285 -178.09814)"/>
  <polyline class="cls-3" points="13 19.001 27 19.001 24 16.001"/>
  <g>
    <path class="cls-1" d="M177.92285,211.09937V218.266a4.45834,4.45834,0,0,0,0,8.91667" transform="translate(-108.92285 -178.09814)"/>
    <path class="cls-2" d="M177.92285,236.09937a4.45834,4.45834,0,0,1,0-8.91667" transform="translate(-108.92285 -178.09814)"/>
    <path class="cls-2" d="M177.92285,236.09937a4.45833,4.45833,0,0,0,0,8.91666" transform="translate(-108.92285 -178.09814)"/>
    <path class="cls-1" d="M177.92285,245.016a4.45834,4.45834,0,0,0,0,8.91667v7.16667" transform="translate(-108.92285 -178.09814)"/>
  </g>
  <polyline class="cls-1" points="69 83.001 69 93.001 98.02 93.001 109 93.001"/>
  <polyline class="cls-3" points="84.077 18.902 98.077 18.902 95.077 15.902"/>
  <g>
    <path d="M198.85547,186.07373a.89729.89729,0,0,1-.91113-.95947,2.17115,2.17115,0,0,1,.21582-.82764l.44336-1.187.36035-.99561a2.76691,2.76691,0,0,0,.21582-.86328c0-.27588-.13184-.33593-.26367-.33593-.69629,0-1.00782,1.11523-1.11622,1.51123-.04785.16748-.05957.19189-.21582.19189-.05957,0-.17968,0-.17968-.12012,0-.06006.4082-1.84716,1.53515-1.84716a.88435.88435,0,0,1,.89942.95947,1.67872,1.67872,0,0,1-.14356.67187l-.76758,2.05078a4.05749,4.05749,0,0,0-.3125,1.15137c0,.32373.168.33594.26465.33594.69532,0,1.01953-1.15137,1.11524-1.499.04785-.18018.04785-.20411.2041-.20411.084,0,.17969,0,.17969.12012C200.37891,184.2749,199.9834,186.07373,198.85547,186.07373Zm1.0791-6.7041a.50988.50988,0,0,1-.53906-.51563.8145.8145,0,0,1,.76758-.75586.50943.50943,0,0,1,.53906.51563A.8145.8145,0,0,1,199.93457,179.36963Z" transform="translate(-108.92285 -178.09814)"/>
    <path d="M202.19629,190.0918a1.25634,1.25634,0,0,1-1.06934-.48242c-.06933.09082-.251.31445-.32812.39843-.05567.06983-.0625.084-.11133.084a.072.072,0,0,1-.07715-.06983.37908.37908,0,0,1,.02051-.09082l.36328-1.46094c.02832-.10449.042-.11865.126-.11865.042,0,.10547,0,.10547.07666l-.00782.042a1.94578,1.94578,0,0,0-.05566.42627.9362.9362,0,0,0,1.04883.97852,1.34766,1.34766,0,0,0,1.167-1.33447.77585.77585,0,0,0-.1543-.50342c-.11816-.126-.1748-.147-.53808-.25147l-.3418-.09814a2.72583,2.72583,0,0,1-.30078-.09082.9681.9681,0,0,1-.55957-.92236,1.749,1.749,0,0,1,1.62207-1.66309,1.00568,1.00568,0,0,1,.9082.4751l.31446-.3916c.0625-.07666.06933-.0835.10449-.0835a.07706.07706,0,0,1,.07715.06982.47968.47968,0,0,1-.01368.09766l-.36328,1.44678c-.02832.11865-.0498.126-.126.126-.03516,0-.10547,0-.10547-.07031l.00781-.09765a1.67214,1.67214,0,0,0,.03418-.38428c0-.51709-.19531-.99268-.85254-.99268a1.24924,1.24924,0,0,0-1.13184,1.19532.62226.62226,0,0,0,.35645.61474c.03516.01416.252.07715.38477.11182.66308.1958.74707.21679.92187.43359a1.1497,1.1497,0,0,1,.23047.71289A1.85239,1.85239,0,0,1,202.19629,190.0918Z" transform="translate(-108.92285 -178.09814)"/>
  </g>
  <circle class="cls-4" cx="34" cy="40.00122" r="1"/>
  <circle class="cls-4" cx="76" cy="40.00122" r="1"/>
  <g>
    <line class="cls-5" x1="23.03589" y1="44.31396" x2="28.03589" y2="44.31396"/>
    <line class="cls-5" x1="25.53589" y1="46.81396" x2="25.53589" y2="41.81396"/>
  </g>
  <line class="cls-5" x1="23.03589" y1="71.65283" x2="28.03589" y2="71.65283"/>
  <g>
    <path d="M133.75977,237.1416a1.34291,1.34291,0,0,1-1.47461-1.43945,7.62535,7.62535,0,0,1,.61132-2.30274,3.53307,3.53307,0,0,0,.28809-1.0791c0-.3125-.13184-.34765-.26367-.34765-.69629,0-1.01953,1.13867-1.11621,1.51074-.04785.168-.05957.19238-.21582.19238-.05957,0-.17969,0-.17969-.12012,0-.07226.41992-1.84765,1.53516-1.84765a.89849.89849,0,0,1,.91113.97168,1.88337,1.88337,0,0,1-.13184.59961,9.06577,9.06577,0,0,0-.707,2.60254c0,.39648.13184.99609.7793.99609,1.3789,0,1.94336-3.01074,1.94336-3.34668a1.35138,1.35138,0,0,0-.32422-.94727.46356.46356,0,0,1-.15625-.32421.617.617,0,0,1,.57617-.55176c.34766,0,.49121.37207.49121.792C136.32617,232.81152,135.77441,237.1416,133.75977,237.1416Z" transform="translate(-108.92285 -178.09814)"/>
    <path d="M139.21191,238.79688h-1.084l-.42578,1.73339a.41908.41908,0,0,0-.02832.13965c0,.06348,0,.11914.40527.11914.13965,0,.18848,0,.18848.09082,0,.126-.083.126-.13281.126-.27247,0-.5586-.02148-.83789-.02148-.27247,0-.55958.02148-.8252.02148a.08378.08378,0,0,1-.09766-.084c0-.13282.07715-.13282.18848-.13282.47559,0,.51758-.05566.57324-.29394l.94336-3.79395a.43081.43081,0,0,0,.02832-.13281c0-.11914-.18847-.11914-.40527-.11914-.13281,0-.18848,0-.18848-.084,0-.13281.07617-.13281.18848-.13281h2.09668a1.09257,1.09257,0,0,1,1.23633,1.03418A1.80563,1.80563,0,0,1,139.21191,238.79688Zm.36329-2.34766h-.60157c-.23047,0-.27929,0-.34179.25195l-.47559,1.91406h.88086a1.30515,1.30515,0,0,0,1.01269-.40527,2.34794,2.34794,0,0,0,.3711-1.13183C140.4209,236.63086,140.06445,236.44922,139.5752,236.44922Z" transform="translate(-108.92285 -178.09814)"/>
  </g>
  <g>
    <line class="cls-5" x1="81.03589" y1="44.31396" x2="86.03589" y2="44.31396"/>
    <line class="cls-5" x1="83.53589" y1="46.81396" x2="83.53589" y2="41.81396"/>
  </g>
  <line class="cls-5" x1="81.03589" y1="71.65283" x2="86.03589" y2="71.65283"/>
  <g>
    <path d="M191.75977,237.1416a1.34291,1.34291,0,0,1-1.47461-1.43945,7.62535,7.62535,0,0,1,.61132-2.30274,3.53307,3.53307,0,0,0,.28809-1.0791c0-.3125-.13184-.34765-.26367-.34765-.69629,0-1.01953,1.13867-1.11621,1.51074-.04785.168-.05957.19238-.21582.19238-.05957,0-.17969,0-.17969-.12012,0-.07226.41992-1.84765,1.53516-1.84765a.89849.89849,0,0,1,.91113.97168,1.88337,1.88337,0,0,1-.13184.59961,9.06577,9.06577,0,0,0-.707,2.60254c0,.39648.13184.99609.7793.99609,1.3789,0,1.94336-3.01074,1.94336-3.34668a1.35138,1.35138,0,0,0-.32422-.94727.46356.46356,0,0,1-.15625-.32421.617.617,0,0,1,.57617-.55176c.34766,0,.49121.37207.49121.792C194.32617,232.81152,193.77441,237.1416,191.75977,237.1416Z" transform="translate(-108.92285 -178.09814)"/>
    <path d="M196.03711,241.15918a1.25505,1.25505,0,0,1-1.06934-.48242c-.06933.09082-.251.31445-.32812.39844-.05567.07031-.0625.084-.11133.084a.07158.07158,0,0,1-.07715-.06934.37426.37426,0,0,1,.02051-.09082l.36328-1.46093c.02832-.1045.042-.11914.126-.11914.042,0,.10547,0,.10547.07714l-.00782.042a1.94481,1.94481,0,0,0-.05566.42578.936.936,0,0,0,1.04883.97851,1.34632,1.34632,0,0,0,1.167-1.334.77744.77744,0,0,0-.1543-.50391c-.11816-.126-.1748-.14648-.53808-.251l-.3418-.09864a2.52612,2.52612,0,0,1-.30078-.09082.96742.96742,0,0,1-.55957-.92187,1.749,1.749,0,0,1,1.62207-1.66309,1.00608,1.00608,0,0,1,.9082.47461l.31446-.3916c.0625-.07617.07031-.083.10449-.083a.07676.07676,0,0,1,.07715.06934.47032.47032,0,0,1-.01368.09765l-.36328,1.44727c-.02832.11816-.0498.126-.126.126-.03516,0-.10547,0-.10547-.07032l.00781-.09765a1.67911,1.67911,0,0,0,.03418-.38477c0-.5166-.19531-.99219-.85254-.99219a1.24924,1.24924,0,0,0-1.13184,1.19532.622.622,0,0,0,.35645.61425c.03516.01465.25195.07715.38477.11231.66308.19531.74707.2168.92187.43359a1.14881,1.14881,0,0,1,.23047.71289A1.85228,1.85228,0,0,1,196.03711,241.15918Z" transform="translate(-108.92285 -178.09814)"/>
  </g>
  <g>
    <path d="M154.64941,183.23633a1.11305,1.11305,0,0,0-1.21191.81543l-1.67871,6.76465c-.06055.22754-.1084.23974-.24024.23974-.168,0-.17968-.02392-.23925-.2041l-2.5791-7.15967-1.54688,6.17627a1.14676,1.14676,0,0,0-.04785.29981c0,.18017.02344.4917.707.51611.14453,0,.22852.01172.22852.15576,0,.21582-.14454.21582-.21582.21582-.37207,0-.792-.03613-1.17579-.03613-.37207,0-.77929.03613-1.13964.03613-.084,0-.15528-.03613-.15528-.144,0-.21582.13184-.22754.22754-.22754a1.06546,1.06546,0,0,0,1.16309-.83984l1.583-6.35645a.6965.6965,0,0,0,.03613-.15576c0-.09619-.64746-.09619-.73145-.09619-.22754,0-.32324,0-.32324-.14356,0-.228.13184-.228.32324-.228h1.499c.25195,0,.26367.01171.33593.20361l2.24317,6.23682,1.31933-5.26514a1.13575,1.13575,0,0,0,.04786-.28809c0-.25146-.09571-.4917-.71973-.51562-.1084,0-.21582-.01172-.21582-.14356,0-.228.15625-.228.21582-.228.37207,0,.7793.03564,1.16308.03564s.7793-.03564,1.15137-.03564a.13942.13942,0,0,1,.15625.15576C154.8291,183.22461,154.68457,183.23633,154.64941,183.23633Z" transform="translate(-108.92285 -178.09814)"/>
    <path d="M156.80469,192.84375h-1.084l-.42578,1.7334a.41706.41706,0,0,0-.02832.13965c0,.063,0,.11865.40528.11865.13964,0,.18847,0,.18847.09082,0,.126-.083.126-.13281.126-.27246,0-.55859-.021-.83789-.021-.27246,0-.55957.021-.8252.021a.08378.08378,0,0,1-.09765-.084c0-.13281.07715-.13281.18847-.13281.47559,0,.51758-.05566.57325-.29346l.94336-3.79492a.422.422,0,0,0,.02832-.13232c0-.11914-.18848-.11914-.40528-.11914-.13281,0-.18847,0-.18847-.0835,0-.13281.07617-.13281.18847-.13281h2.09668a1.09257,1.09257,0,0,1,1.23633,1.03418A1.80562,1.80562,0,0,1,156.80469,192.84375Zm.36328-2.34814h-.60156c-.23047,0-.2793,0-.3418.25146l-.47559,1.915h.88086a1.30515,1.30515,0,0,0,1.0127-.40527,2.348,2.348,0,0,0,.37109-1.13233C158.01367,190.67725,157.65723,190.49561,157.168,190.49561Z" transform="translate(-108.92285 -178.09814)"/>
    <path d="M164.23242,187.1582a.6355.6355,0,1,1,.63574-.63574A.63989.63989,0,0,1,164.23242,187.1582Zm0,3.898a.63574.63574,0,1,1,.63574-.63574A.6399.6399,0,0,1,164.23242,191.05615Z" transform="translate(-108.92285 -178.09814)"/>
    <path d="M179.93652,183.23633a1.11305,1.11305,0,0,0-1.21191.81543l-1.67871,6.76465c-.06055.22754-.1084.23974-.24024.23974-.168,0-.17968-.02392-.23925-.2041l-2.57911-7.15967-1.54687,6.17627a1.14676,1.14676,0,0,0-.04785.29981c0,.18017.02344.4917.707.51611.14453,0,.22852.01172.22852.15576,0,.21582-.14454.21582-.21583.21582-.37207,0-.792-.03613-1.17578-.03613-.37207,0-.77929.03613-1.13964.03613-.084,0-.15528-.03613-.15528-.144,0-.21582.13184-.22754.22754-.22754a1.06546,1.06546,0,0,0,1.16309-.83984l1.583-6.35645a.69634.69634,0,0,0,.03614-.15576c0-.09619-.64746-.09619-.73145-.09619-.22754,0-.32324,0-.32324-.14356,0-.228.13184-.228.32324-.228h1.499c.25195,0,.26367.01171.33593.20361l2.24317,6.23682,1.31933-5.26514a1.13575,1.13575,0,0,0,.04785-.28809c0-.25146-.0957-.4917-.71972-.51562-.1084,0-.21582-.01172-.21582-.14356,0-.228.15625-.228.21582-.228.37207,0,.77929.03564,1.16308.03564s.7793-.03564,1.15137-.03564a.13942.13942,0,0,1,.15625.15576C180.11621,183.22461,179.97168,183.23633,179.93652,183.23633Z" transform="translate(-108.92285 -178.09814)"/>
    <path d="M180.917,195.20605a1.25632,1.25632,0,0,1-1.06933-.48242c-.06934.09082-.251.31446-.32813.39844-.05566.06982-.0625.084-.11133.084a.072.072,0,0,1-.07715-.06982.379.379,0,0,1,.02051-.09082l.36328-1.46094c.02832-.10449.042-.11865.126-.11865.042,0,.10547,0,.10547.07715l-.00781.0415a1.94506,1.94506,0,0,0-.05567.42627.93621.93621,0,0,0,1.04883.97852,1.34778,1.34778,0,0,0,1.167-1.335.77536.77536,0,0,0-.15429-.50293c-.11817-.126-.17481-.147-.53809-.25147l-.3418-.09814a2.728,2.728,0,0,1-.30078-.09082.96811.96811,0,0,1-.55957-.92237,1.749,1.749,0,0,1,1.62207-1.66308,1.00568,1.00568,0,0,1,.90821.4751l.31445-.39161c.0625-.07666.06933-.08349.10449-.08349a.07706.07706,0,0,1,.07715.06982.48046.48046,0,0,1-.01367.09766l-.36328,1.44678c-.02832.11865-.04981.12548-.126.12548-.03516,0-.10547,0-.10547-.06982l.00781-.09766a1.67144,1.67144,0,0,0,.03418-.38427c0-.51709-.19531-.99268-.85254-.99268a1.24923,1.24923,0,0,0-1.13183,1.19531.62227.62227,0,0,0,.35644.61475c.03516.01416.252.07715.38477.11182.66308.1958.74707.21679.92187.43359a1.14968,1.14968,0,0,1,.23047.71289A1.85238,1.85238,0,0,1,180.917,195.20605Z" transform="translate(-108.92285 -178.09814)"/>
  </g>
  <path class="cls-6" d="M160.7423,227v18" transform="translate(-108.92285 -178.09814)"/>
  <line class="cls-6" x1="58.18056" y1="48.90186" x2="58.18056" y2="66.90186"/>
</svg>
