<?xml version="1.0" encoding="utf-8"?>
<!-- Generator: Adobe Illustrator 23.0.3, SVG Export Plug-In . SVG Version: 6.00 Build 0)  -->
<svg version="1.1" id="Layer_1" xmlns="http://www.w3.org/2000/svg" xmlns:xlink="http://www.w3.org/1999/xlink" x="0px" y="0px"
	 viewBox="0 0 190.55556 82.59766" style="enable-background:new 0 0 190.55556 82.59766;" xml:space="preserve">
<style type="text/css">
	.st0{fill:none;stroke:#8FF4DD;stroke-width:2;stroke-linecap:round;}
	.st1{fill:none;stroke:#8FF4DD;stroke-width:2;stroke-linecap:square;stroke-linejoin:round;}
	.st2{fill:none;stroke:#8FF4DD;stroke-width:2;stroke-linecap:round;stroke-linejoin:round;}
	.st3{fill:none;stroke:#8FF4DD;stroke-width:2;stroke-linecap:round;stroke-linejoin:round;stroke-dasharray:5,5;}
	.st4{fill:none;stroke:#8FF4DD;stroke-width:2;stroke-linecap:round;stroke-linejoin:round;stroke-dasharray:5;}
	.st5{fill:none;stroke:#FD1D53;stroke-miterlimit:10;}
	.st6{fill:#FD1D53;}
	.st7{fill:#8FF4DD;}
</style>
<title>AdmittanceParallel</title>
<g>
	<g>
		<path id="path5036" class="st0" d="M58.99995,51V39.88889"/>
		<path id="path5038" class="st0" d="M58.99995,12.11111V1"/>
		<rect id="rect5044" x="53.44444" y="12.11111" class="st1" width="11.11111" height="27.77778"/>
	</g>
	<g>
		<path id="path5036_1_" class="st0" d="M108.99995,51V39.88889"/>
		<path id="path5038_1_" class="st0" d="M108.99995,12.11111V1"/>
		<rect id="rect5044_1_" x="103.44444" y="12.11111" class="st1" width="11.11111" height="27.77778"/>
	</g>
	<g>
		<path id="path5036_2_" class="st0" d="M183.99995,51V39.88889"/>
		<path id="path5038_2_" class="st0" d="M183.99995,12.11111V1"/>
		<rect id="rect5044_2_" x="178.44444" y="12.11111" class="st1" width="11.11111" height="27.77778"/>
	</g>
</g>
<g>
	<line class="st2" x1="184" y1="1" x2="174" y2="1.00003"/>
	<line class="st2" x1="144" y1="1.00003" x2="1" y2="1.00003"/>
	<g>
		<line class="st2" x1="174" y1="1.00003" x2="171.5" y2="1.00003"/>
		<line class="st3" x1="166.5" y1="1.00003" x2="149" y2="1.00003"/>
		<line class="st2" x1="146.5" y1="1.00003" x2="144" y2="1.00003"/>
	</g>
	<line class="st2" x1="184" y1="51" x2="1" y2="51.00003"/>
	<path class="st4" d="M1,1"/>
	<g>
		<polyline class="st5" points="9,64 9,26 19.915,26 		"/>
		<polygon class="st6" points="16.602,30.09 15.92,29.357 19.532,26.001 15.92,22.644 16.602,21.911 21,26.001 		"/>
	</g>
	<g>
		<path class="st7" d="M9.93604,75.06152H3.56738c-0.26367,0-0.38379,0-0.38379-0.31152c0-0.13184,0-0.16797,0.0957-0.31152
			l4.79785-7.04004H6.51758c-1.67871,0-2.48242,0.73145-2.57861,2.32617H3.37549l0.14404-2.89063h6.16455
			c0.25195,0,0.38379,0,0.38379,0.2998c0,0.13184,0,0.14453-0.09619,0.28809L5.18652,74.4502h1.6792
			c2.4585,0,2.62646-1.46289,2.72217-2.79492h0.56396L9.93604,75.06152z"/>
		<path class="st7" d="M12.58496,79.13477c-0.80322,0-1.53711-0.67773-1.53711-1.61426c0-0.87402,0.64258-1.59375,1.45361-1.59375
			c0.87354,0,1.25098,0.67773,1.25098,1.37012c0,0.14648-0.021,0.14648-0.1748,0.14648h-1.94971
			c0,0.25195,0,0.71289,0.20947,1.04883c0.16064,0.25781,0.44043,0.46777,0.78955,0.46777c0.07031,0,0.69922,0,0.94385-0.71973
			c0.01367-0.05566,0.02783-0.09766,0.09082-0.09766c0.03467,0,0.09082,0.01367,0.09082,0.08398
			C13.75244,78.35938,13.43799,79.13477,12.58496,79.13477z M12.50146,76.08105c-0.23779,0-0.82471,0.1748-0.8667,1.21582h1.65625
			C13.29102,77.02441,13.22119,76.08105,12.50146,76.08105z"/>
		<path class="st7" d="M16.85107,80.39258l-0.78271,0.02148v-0.2168c0.46826,0,0.54541,0,0.54541-0.31445v-1.25098
			c-0.15381,0.20215-0.44043,0.50293-0.92969,0.50293c-0.81055,0-1.48828-0.70605-1.48828-1.5791
			c0-0.90918,0.7334-1.58691,1.54443-1.58691c0.55908,0,0.8457,0.44043,0.93652,0.63574l0.26514-0.63574h0.15381v3.91406
			c0,0.31445,0.07715,0.31445,0.54541,0.31445v0.2168L16.85107,80.39258z M16.63477,77.12207
			c0-0.37012-0.29346-0.97852-0.85254-0.97852c-0.51758,0-1.00635,0.58008-1.00635,1.41211
			c0,0.80371,0.42627,1.42578,0.93604,1.42578c0.32861,0,0.55225-0.18945,0.64307-0.28711
			c0.15381-0.16797,0.27979-0.36328,0.27979-0.58691C16.63478,78.10742,16.63478,77.12207,16.63477,77.12207z"/>
	</g>
</g>
<g>
	<path class="st7" d="M46.09766,29.18359H39.729c-0.26367,0-0.38379,0-0.38379-0.31201c0-0.13184,0-0.16797,0.0957-0.31152
		l4.79785-7.04004H42.6792c-1.67871,0-2.48242,0.73145-2.57861,2.32666h-0.56348l0.14404-2.89063h6.16455
		c0.25195,0,0.38379,0,0.38379,0.2998c0,0.13184,0,0.14404-0.09619,0.28809l-4.78516,7.02783h1.6792
		c2.4585,0,2.62646-1.46289,2.72217-2.79443h0.56396L46.09766,29.18359z"/>
	<path class="st7" d="M48.80957,33.15869c-0.2793,0-0.88721,0-1.13184,0.021v-0.2168h0.22363
		c0.62891,0,0.6499-0.0835,0.6499-0.33545v-3.62012c-0.36328,0.18213-0.77588,0.18213-0.91553,0.18213v-0.2168
		c0.22363,0,0.83838,0,1.27197-0.44727c0.16064,0,0.16064,0.01416,0.16064,0.18164v3.92041c0,0.25879,0.021,0.33545,0.6499,0.33545
		h0.22363v0.2168C49.69727,33.15869,49.08936,33.15869,48.80957,33.15869z"/>
</g>
<g>
	<path class="st7" d="M95.82813,29.18359h-6.36865c-0.26367,0-0.38379,0-0.38379-0.31201c0-0.13184,0-0.16797,0.0957-0.31152
		l4.79785-7.04004h-1.55957c-1.67871,0-2.48242,0.73145-2.57861,2.32666h-0.56348l0.14404-2.89063h6.16455
		c0.25195,0,0.38379,0,0.38379,0.2998c0,0.13184,0,0.14404-0.09619,0.28809l-4.78516,7.02783h1.6792
		c2.4585,0,2.62646-1.46289,2.72217-2.79443h0.56396L95.82813,29.18359z"/>
	<path class="st7" d="M99.68652,33.17969h-2.59277c0-0.16748,0-0.18164,0.07617-0.25879l1.3418-1.49512
		c0.38477-0.43359,0.73438-0.98584,0.73438-1.54443c0-0.57324-0.30078-1.13916-0.93652-1.13916
		c-0.40527,0-0.7832,0.2583-0.94336,0.7124c0.02051-0.00684,0.03418-0.00684,0.09082-0.00684
		c0.24414,0,0.37012,0.18164,0.37012,0.36328c0,0.28662-0.24512,0.37061-0.36328,0.37061c-0.02148,0-0.37012,0-0.37012-0.3916
		c0-0.62158,0.5166-1.26465,1.30664-1.26465c0.85254,0,1.48145,0.55908,1.48145,1.35596c0,0.69873-0.41895,1.07617-1.50977,2.04053
		l-0.74023,0.71973h1.25781c0.15332,0,0.61426,0,0.66406-0.05615c0.06934-0.10449,0.11816-0.41211,0.15332-0.62158h0.1748
		L99.68652,33.17969z"/>
</g>
<g>
	<path class="st7" d="M170.96411,29.18359h-6.36865c-0.26367,0-0.38379,0-0.38379-0.31201c0-0.13184,0-0.16797,0.0957-0.31152
		l4.79785-7.04004h-1.55957c-1.67871,0-2.48242,0.73145-2.57861,2.32666h-0.56348l0.14404-2.89063h6.16455
		c0.25195,0,0.38379,0,0.38379,0.2998c0,0.13184,0,0.14404-0.09619,0.28809l-4.78516,7.02783h1.6792
		c2.4585,0,2.62646-1.46289,2.72217-2.79443h0.56396L170.96411,29.18359z"/>
</g>
<g>
	<path class="st7" d="M174.31055,33.25c-0.28613,0-0.50293-0.20996-0.50293-0.5459c0-0.14648,0.02734-0.20898,0.09082-0.38379
		c0.11816-0.34277,0.42578-1.18164,0.42578-1.61426c0-0.11914,0-0.46875-0.32129-0.46875c-0.6709,0-1.04785,0.89453-1.08984,1.04883
		l-0.42676,1.71875c-0.02734,0.11914-0.09766,0.24512-0.25879,0.24512c-0.125,0-0.18164-0.08398-0.18164-0.16797
		c0-0.02832,0-0.03516,0.02832-0.13281l0.50977-2.04102c0.02832-0.09766,0.05664-0.25098,0.05664-0.38379
		c0-0.08398,0-0.28711-0.18164-0.28711c-0.23828,0-0.37109,0.41211-0.47559,0.8252
		c-0.04199,0.16016-0.04883,0.16699-0.12598,0.16699c-0.0625,0-0.09766-0.01367-0.09766-0.06934
		c0,0,0.09082-0.43359,0.22363-0.69238c0.14648-0.2998,0.32813-0.37012,0.48926-0.37012c0.32129,0,0.53809,0.25195,0.55859,0.56641
		c0.23145-0.31445,0.55957-0.56641,0.99316-0.56641c0.53809,0,0.69824,0.34277,0.69824,0.71289
		c0,0.40527-0.2373,1.05566-0.41895,1.56543c-0.05566,0.13965-0.13281,0.35645-0.13281,0.52441
		c0,0.16016,0.05566,0.20898,0.16016,0.20898c0.3916,0,0.58008-0.62891,0.64355-0.86621
		c0.02734-0.10449,0.03516-0.12598,0.11914-0.12598c0.02734,0,0.09082,0,0.09082,0.06348
		C175.18457,32.20801,174.96094,33.25,174.31055,33.25z"/>
</g>
</svg>
