<svg id="Layer_1" data-name="Layer 1" xmlns="http://www.w3.org/2000/svg" viewBox="0 0 319.98809 171">
  <defs>
    <style>
      .cls-1, .cls-3 {
        fill: none;
        stroke: #8ff4dd;
        stroke-miterlimit: 10;
      }

      .cls-1 {
        stroke-linecap: square;
        stroke-width: 2px;
      }

      .cls-2 {
        fill: #8ff4dd;
      }
    </style>
  </defs>
  <title>ImplicationTableExample</title>
  <polyline class="cls-1" points="318.988 126 318.988 151 18.988 151 18.988 1 68.988 1"/>
  <line class="cls-1" x1="18.98809" y1="126" x2="318.98809" y2="126"/>
  <line class="cls-1" x1="18.98809" y1="101" x2="268.98809" y2="101"/>
  <line class="cls-1" x1="18.98809" y1="76" x2="218.98809" y2="76"/>
  <line class="cls-1" x1="18.98809" y1="51" x2="168.98809" y2="51"/>
  <line class="cls-1" x1="18.98809" y1="26" x2="118.98809" y2="26"/>
  <line class="cls-1" x1="268.98809" y1="101" x2="268.98809" y2="151"/>
  <line class="cls-1" x1="218.98809" y1="76" x2="218.98809" y2="151"/>
  <line class="cls-1" x1="168.98809" y1="51" x2="168.98809" y2="151"/>
  <line class="cls-1" x1="118.98809" y1="26" x2="118.98809" y2="151"/>
  <line class="cls-1" x1="68.98809" y1="1" x2="68.98809" y2="151"/>
  <path class="cls-2" d="M78.01294,219.895a1.75761,1.75761,0,0,1-1.6377-1.72168A2.90431,2.90431,0,0,1,73.62476,220c-1.32276,0-3.35938-.5249-3.35938-2.22559a3.05907,3.05907,0,0,1,2.09961-2.72949,10.21817,10.21817,0,0,1,3.86328-.75586v-.77685c0-1.86866-1.19678-2.6875-2.22558-2.6875a2.949,2.949,0,0,0-2.26758.96582c.96582.021,1.0708.71386,1.0708.96582a.96593.96593,0,1,1-1.93164-.021c0-1.38574,1.44873-2.37256,3.17041-2.37256a4.00925,4.00925,0,0,1,2.87646,1.15479,3.1058,3.1058,0,0,1,.75586,2.47754v4.19922c0,.105.084,1.0498.77686,1.0498.23095,0,.75586-.126.75586-1.34375v-1.17578h.5249v1.17578A1.78272,1.78272,0,0,1,78.01294,219.895Zm-1.78467-5.165c-3.46435.126-4.34619,1.86865-4.34619,3.02344a1.80781,1.80781,0,0,0,1.88965,1.78467,2.522,2.522,0,0,0,2.45654-2.7085Z" transform="translate(-31.01191 -49)"/>
  <path class="cls-2" d="M125.49341,220a3.30092,3.30092,0,0,1-2.75049-1.53271l-.75586,1.30175h-.5249V207.25537c0-1.02881-.168-1.17578-1.6377-1.17578v-.65088l3.02344-.231v6.65577a3.73029,3.73029,0,0,1,2.87647-1.36475,4.61814,4.61814,0,0,1,4.45117,4.74512A4.73171,4.73171,0,0,1,125.49341,220Zm2.33056-7.70557a2.61018,2.61018,0,0,0-2.20459-1.34375,3.03057,3.03057,0,0,0-2.47753,1.34375.915.915,0,0,0-.231.75586v4.3252a1.14536,1.14536,0,0,0,.29394.88183,2.59338,2.59338,0,0,0,2.20459,1.28077,2.88564,2.88564,0,0,0,2.37256-1.34375,7.22466,7.22466,0,0,0,.042-5.89991Z" transform="translate(-31.01191 -49)"/>
  <path class="cls-2" d="M175.5144,220a4.64734,4.64734,0,0,1-4.51416-4.76611,4.70539,4.70539,0,0,1,4.55616-4.8711c1.6167,0,3.2124.81885,3.2124,2.24659a.96593.96593,0,1,1-1.93164.021.94769.94769,0,0,1,.98681-.96582,3.42318,3.42318,0,0,0-2.24658-.77685c-1.11279,0-2.83447.88183-2.83447,4.30419,0,3.38038,1.84766,4.28321,2.96045,4.28321a2.74227,2.74227,0,0,0,2.75049-2.20459c.042-.126.084-.21.273-.21.063,0,.273,0,.273.21A3.45492,3.45492,0,0,1,175.5144,220Z" transform="translate(-31.01191 -49)"/>
  <path class="cls-2" d="M227.08911,220v-1.38574A3.54661,3.54661,0,0,1,224.27563,220a4.61814,4.61814,0,0,1-4.45117-4.74512,4.74521,4.74521,0,0,1,4.68213-4.76611,3.35167,3.35167,0,0,1,2.64551,1.30176v-4.53516c0-1.02881-.168-1.17578-1.6377-1.17578v-.65088l3.02344-.231v12.74463c0,1.02881.168,1.17578,1.6377,1.17578v.65088Zm0-7.0127a1.004,1.004,0,0,0-.231-.77685,2.72212,2.72212,0,0,0-2.26757-1.25977,2.88562,2.88562,0,0,0-2.37256,1.34375,7.22466,7.22466,0,0,0-.042,5.89991,2.61018,2.61018,0,0,0,2.20459,1.34375,2.92546,2.92546,0,0,0,2.47753-1.46973,1.004,1.004,0,0,0,.231-.77686Z" transform="translate(-31.01191 -49)"/>
  <path class="cls-2" d="M275.5564,220a4.74037,4.74037,0,0,1-4.61914-4.8501,4.58831,4.58831,0,0,1,4.36718-4.78711c2.62452,0,3.7583,2.03662,3.7583,4.11524,0,.44092-.063.44092-.5249.44092h-5.85791a6.114,6.114,0,0,0,.62988,3.14941,2.82706,2.82706,0,0,0,2.37256,1.40674,2.9589,2.9589,0,0,0,2.83448-2.1626c.042-.168.084-.29395.27294-.29395a.244.244,0,0,1,.273.252A3.58863,3.58863,0,0,1,275.5564,220Zm-.252-9.17529c-.71386,0-2.47754.5249-2.60351,3.65332H277.677C277.677,213.65918,277.467,210.82471,275.30444,210.82471Z" transform="translate(-31.01191 -49)"/>
  <path class="cls-2" d="M327.47754,207.59131a.8706.8706,0,0,1-.90283-.90283.92023.92023,0,0,1,.62988-.88184,1.69089,1.69089,0,0,0-.69287-.147c-.92383,0-1.93164,1.00781-1.93164,2.85547v2.43554h2.45654v.65088h-2.39355v6.76074c0,.75586.042.98682,1.5957.98682h.44092V220c-.83985-.063-1.82666-.063-2.66651-.063l-2.39355.063v-.65088c1.40674,0,1.63769,0,1.63769-.94482v-6.80274h-1.65869v-.65088h1.65869v-2.41455a3.25268,3.25268,0,0,1,3.2544-3.33838,1.7,1.7,0,0,1,1.88965,1.46973A.86976.86976,0,0,1,327.47754,207.59131Z" transform="translate(-31.01191 -49)"/>
  <path class="cls-2" d="M36.68086,69.90112a3.30092,3.30092,0,0,1-2.75049-1.53271l-.75586,1.30176h-.5249V57.15649c0-1.0288-.168-1.17578-1.6377-1.17578v-.65088l3.02344-.23095v6.65576a3.73029,3.73029,0,0,1,2.87647-1.36475A4.61815,4.61815,0,0,1,41.363,65.135,4.73171,4.73171,0,0,1,36.68086,69.90112Zm2.33057-7.70556a2.6102,2.6102,0,0,0-2.20459-1.34375,3.03057,3.03057,0,0,0-2.47754,1.34375.915.915,0,0,0-.231.75586v4.32519a1.14536,1.14536,0,0,0,.294.88184,2.59337,2.59337,0,0,0,2.20459,1.28076,2.8856,2.8856,0,0,0,2.37255-1.34375,5.62957,5.62957,0,0,0,.65088-2.98145A5.64012,5.64012,0,0,0,39.01143,62.19556Z" transform="translate(-31.01191 -49)"/>
  <path class="cls-2" d="M36.70186,92.3186a4.64733,4.64733,0,0,1-4.51416-4.76611,4.70537,4.70537,0,0,1,4.55615-4.87109c1.6167,0,3.2124.81884,3.2124,2.24658a.96593.96593,0,1,1-1.93164.021.94771.94771,0,0,1,.98682-.96582,3.42322,3.42322,0,0,0-2.24659-.77685c-1.11279,0-2.83447.88183-2.83447,4.3042,0,3.38037,1.84766,4.2832,2.96045,4.2832a2.74226,2.74226,0,0,0,2.75049-2.20459c.042-.126.084-.21.273-.21.063,0,.273,0,.273.21A3.45491,3.45491,0,0,1,36.70186,92.3186Z" transform="translate(-31.01191 -49)"/>
  <path class="cls-2" d="M38.27656,119.90112v-1.38574a3.54656,3.54656,0,0,1-2.81347,1.38574,4.61814,4.61814,0,0,1-4.45118-4.74511,4.74521,4.74521,0,0,1,4.68213-4.76612,3.35167,3.35167,0,0,1,2.64551,1.30176v-4.53516c0-1.0288-.168-1.17578-1.63769-1.17578v-.65088l3.02343-.231v12.74463c0,1.0288.168,1.17578,1.6377,1.17578v.65088Zm0-7.01269a1.00408,1.00408,0,0,0-.23095-.77686,2.72213,2.72213,0,0,0-2.26758-1.25976,2.88562,2.88562,0,0,0-2.37256,1.34375,7.22464,7.22464,0,0,0-.042,5.8999,2.61018,2.61018,0,0,0,2.20459,1.34375,2.92549,2.92549,0,0,0,2.47754-1.46973,1.004,1.004,0,0,0,.231-.77685Z" transform="translate(-31.01191 -49)"/>
  <path class="cls-2" d="M36.74385,142.3186a4.74037,4.74037,0,0,1-4.61914-4.85009,4.58831,4.58831,0,0,1,4.36718-4.78711c2.62452,0,3.75831,2.03662,3.75831,4.11523,0,.44092-.063.44092-.52491.44092H33.86738a6.11392,6.11392,0,0,0,.62989,3.14941,2.827,2.827,0,0,0,2.37255,1.40674,2.95889,2.95889,0,0,0,2.83448-2.1626c.042-.168.084-.29394.27295-.29394a.24394.24394,0,0,1,.273.25195A3.58863,3.58863,0,0,1,36.74385,142.3186Zm-.252-9.17529c-.71386,0-2.47753.5249-2.60351,3.65332h4.97607C38.86445,135.97778,38.65449,133.14331,36.49189,133.14331Z" transform="translate(-31.01191 -49)"/>
  <path class="cls-2" d="M38.665,157.49243a.87061.87061,0,0,1-.90283-.90283.92024.92024,0,0,1,.62988-.88184,1.69089,1.69089,0,0,0-.69287-.147c-.92383,0-1.93164,1.00781-1.93164,2.85547v2.43555h2.45654v.65088H35.83052v6.76074c0,.75586.042.98681,1.5957.98681h.44092v.65088c-.83985-.063-1.82666-.063-2.66651-.063l-2.39355.063v-.65088c1.40674,0,1.6377,0,1.6377-.94482v-6.80273h-1.6587v-.65088h1.6587v-2.41455a3.25267,3.25267,0,0,1,3.25439-3.33838,1.7,1.7,0,0,1,1.88965,1.46972A.86976.86976,0,0,1,38.665,157.49243Z" transform="translate(-31.01191 -49)"/>
  <path class="cls-2" d="M40.37617,182.24048a.59628.59628,0,0,1-.60888-.60889.562.562,0,0,1,.33593-.56689.964.964,0,0,0-.21-.021,2.758,2.758,0,0,0-1.88965.81885,2.83625,2.83625,0,0,1,.86084,2.03662,3.24945,3.24945,0,0,1-3.40136,3.06543,3.5761,3.5761,0,0,1-2.07862-.65088,1.54631,1.54631,0,0,0-.35693.98682,1.36958,1.36958,0,0,0,1.11279,1.40674c.147.021,1.04981.021,1.57471.021a7.46107,7.46107,0,0,1,3.61133.58789,2.68493,2.68493,0,0,1,1.36474,2.39356c0,1.63769-2.18359,2.70849-4.66113,2.70849-2.56152,0-4.64014-1.15478-4.64014-2.6665a2.369,2.369,0,0,1,1.93164-2.09961,2.239,2.239,0,0,1-.92382-1.86865,2.90133,2.90133,0,0,1,.65088-1.74268,2.8928,2.8928,0,0,1-.98682-2.1626,3.24946,3.24946,0,0,1,3.40137-3.06543,3.5013,3.5013,0,0,1,2.22558.75586,3.2338,3.2338,0,0,1,2.22559-.98681,1.0272,1.0272,0,0,1,1.0708,1.02881A.60611.60611,0,0,1,40.37617,182.24048ZM35.44209,189.946H34.20332a1.84855,1.84855,0,0,0-1.72168,1.80567c0,1.11279,1.44873,2.18359,3.56934,2.18359,2.05761,0,3.54834-1.0498,3.54834-2.18359C39.59932,189.946,37.24775,189.946,35.44209,189.946Zm.021-8.65039a1.81506,1.81506,0,0,0-1.49073.83985,3.44626,3.44626,0,0,0-.33593,1.76367c0,.48291,0,2.58252,1.82666,2.58252a1.81508,1.81508,0,0,0,1.49072-.83984,3.44631,3.44631,0,0,0,.33594-1.76368C37.28975,183.39526,37.28975,181.29565,35.46309,181.29565Z" transform="translate(-31.01191 -49)"/>
  <polyline class="cls-3" points="186.157 88.63 191.258 93.73 201.785 83.203"/>
  <g>
    <line class="cls-3" x1="88.72429" y1="68.76379" x2="99.25188" y2="58.23621"/>
    <line class="cls-3" x1="88.72429" y1="58.23621" x2="99.25188" y2="68.76379"/>
  </g>
  <g>
    <line class="cls-3" x1="38.72429" y1="43.76379" x2="49.25188" y2="33.23621"/>
    <line class="cls-3" x1="38.72429" y1="33.23621" x2="49.25188" y2="43.76379"/>
  </g>
  <g>
    <path class="cls-2" d="M70.95532,67.43774v-.9248a2.366,2.366,0,0,1-1.87695.9248,3.08127,3.08127,0,0,1-2.96973-3.166,3.16629,3.16629,0,0,1,3.124-3.17969,2.23539,2.23539,0,0,1,1.76464.86865V58.93481c0-.686-.11181-.78418-1.09228-.78418v-.43457l2.01709-.1538V66.0647c0,.68652.11182.78467,1.09228.78467v.43408Zm0-4.67871a.67164.67164,0,0,0-.15381-.51855,1.81748,1.81748,0,0,0-1.51318-.84033,1.92466,1.92466,0,0,0-1.58252.89648,4.81786,4.81786,0,0,0-.02832,3.936,1.7414,1.7414,0,0,0,1.47119.89648,1.95213,1.95213,0,0,0,1.65283-.98047.67.67,0,0,0,.15381-.51806Z" transform="translate(-31.01191 -49)"/>
    <path class="cls-2" d="M73.571,64.66382v-.812H77.283v.812Z" transform="translate(-31.01191 -49)"/>
    <path class="cls-2" d="M81.55249,67.43774a3.16266,3.16266,0,0,1-3.082-3.23584A3.06143,3.06143,0,0,1,81.384,61.00806a2.48469,2.48469,0,0,1,2.50733,2.7456c0,.294-.042.294-.3501.294h-3.9082a4.077,4.077,0,0,0,.42041,2.10107,1.88538,1.88538,0,0,0,1.583.93848,1.97394,1.97394,0,0,0,1.89063-1.44238c.02832-.11231.05615-.19629.18213-.19629a.16252.16252,0,0,1,.18213.168A2.39425,2.39425,0,0,1,81.55249,67.43774ZM81.384,61.31616c-.47607,0-1.65283.3501-1.73681,2.4375H82.967C82.967,63.20728,82.8269,61.31616,81.384,61.31616Z" transform="translate(-31.01191 -49)"/>
  </g>
  <g>
    <line class="cls-3" x1="38.72429" y1="68.76379" x2="49.25188" y2="58.23621"/>
    <line class="cls-3" x1="38.72429" y1="58.23621" x2="49.25188" y2="68.76379"/>
  </g>
  <g>
    <line class="cls-3" x1="38.72429" y1="93.76379" x2="49.25188" y2="83.23621"/>
    <line class="cls-3" x1="38.72429" y1="83.23621" x2="49.25188" y2="93.76379"/>
  </g>
  <g>
    <line class="cls-3" x1="37.72429" y1="143.76379" x2="48.25188" y2="133.23621"/>
    <line class="cls-3" x1="37.72429" y1="133.23621" x2="48.25188" y2="143.76379"/>
  </g>
  <g>
    <line class="cls-3" x1="88.72429" y1="43.76379" x2="99.25188" y2="33.23621"/>
    <line class="cls-3" x1="88.72429" y1="33.23621" x2="99.25188" y2="43.76379"/>
  </g>
  <g>
    <line class="cls-3" x1="138.72429" y1="68.76379" x2="149.25188" y2="58.23621"/>
    <line class="cls-3" x1="138.72429" y1="58.23621" x2="149.25188" y2="68.76379"/>
  </g>
  <g>
    <line class="cls-3" x1="88.72429" y1="93.76379" x2="99.25188" y2="83.23621"/>
    <line class="cls-3" x1="88.72429" y1="83.23621" x2="99.25188" y2="93.76379"/>
  </g>
  <g>
    <line class="cls-3" x1="138.72429" y1="93.76379" x2="149.25188" y2="83.23621"/>
    <line class="cls-3" x1="138.72429" y1="83.23621" x2="149.25188" y2="93.76379"/>
  </g>
  <g>
    <line class="cls-3" x1="138.72429" y1="118.76379" x2="149.25188" y2="108.23621"/>
    <line class="cls-3" x1="138.72429" y1="108.23621" x2="149.25188" y2="118.76379"/>
  </g>
  <g>
    <line class="cls-3" x1="138.72429" y1="143.76379" x2="149.25188" y2="133.23621"/>
    <line class="cls-3" x1="138.72429" y1="133.23621" x2="149.25188" y2="143.76379"/>
  </g>
  <g>
    <line class="cls-3" x1="88.72429" y1="143.76379" x2="99.25188" y2="133.23621"/>
    <line class="cls-3" x1="88.72429" y1="133.23621" x2="99.25188" y2="143.76379"/>
  </g>
  <g>
    <line class="cls-3" x1="188.72429" y1="118.76379" x2="199.25188" y2="108.23621"/>
    <line class="cls-3" x1="188.72429" y1="108.23621" x2="199.25188" y2="118.76379"/>
  </g>
  <g>
    <line class="cls-3" x1="238.72429" y1="118.76379" x2="249.25188" y2="108.23621"/>
    <line class="cls-3" x1="238.72429" y1="108.23621" x2="249.25188" y2="118.76379"/>
  </g>
  <g>
    <line class="cls-3" x1="288.72429" y1="143.76379" x2="299.25188" y2="133.23621"/>
    <line class="cls-3" x1="288.72429" y1="133.23621" x2="299.25188" y2="143.76379"/>
  </g>
  <g>
    <path class="cls-2" d="M69.9529,161.17578a2.65446,2.65446,0,0,1-2.56592-2.73437,2.68779,2.68779,0,0,1,2.61523-2.77051c.92334.00439,1.833.47607,1.82911,1.2915a.55156.55156,0,1,1-1.103.00733.541.541,0,0,1,.56592-.54932,1.95645,1.95645,0,0,0-1.28125-.44971c-.63575-.00293-1.62159.49659-1.63037,2.45118-.00879,1.93115,1.04394,2.45166,1.67968,2.45458a1.56747,1.56747,0,0,0,1.57715-1.252c.02442-.07178.04834-.12012.15625-.11963.03613,0,.15576.00049.15527.12061A1.97366,1.97366,0,0,1,69.9529,161.17578Z" transform="translate(-31.01191 -49)"/>
    <path class="cls-2" d="M72.43727,158.8125l.00293-.6958,3.17823.01465-.00293.6958Z" transform="translate(-31.01191 -49)"/>
    <path class="cls-2" d="M80.84792,161.22559l.0039-.79151a2.02791,2.02791,0,0,1-1.61132.78418,2.63739,2.63739,0,0,1-2.52979-2.72217,2.71069,2.71069,0,0,1,2.687-2.71045,1.91483,1.91483,0,0,1,1.50733.751l.0122-2.59033c.00244-.58789-.09277-.67236-.93213-.67627l.002-.37158,1.72754-.124-.03369,7.27979c-.00245.58789.09277.67236.93212.67627l-.002.37158Zm.01855-4.00586a.5742.5742,0,0,0-.12988-.44434,1.55565,1.55565,0,0,0-1.292-.7251,1.64682,1.64682,0,0,0-1.35889.76123,4.13,4.13,0,0,0-.03955,3.37012,1.49191,1.49191,0,0,0,1.25586.77344,1.67213,1.67213,0,0,0,1.41943-.8335.57281.57281,0,0,0,.13379-.44287Z" transform="translate(-31.01191 -49)"/>
  </g>
  <g>
    <path class="cls-2" d="M69.91211,172.22754a1.88515,1.88515,0,0,1-1.57129-.87549l-.43164.74365h-.2998v-7.14795c0-.58789-.0962-.67187-.93555-.67187v-.37158l1.72705-.13184v3.80176a2.13082,2.13082,0,0,1,1.64307-.77979,2.63814,2.63814,0,0,1,2.54248,2.71094A2.70253,2.70253,0,0,1,69.91211,172.22754Zm1.33105-4.40137a1.49017,1.49017,0,0,0-1.25927-.76758,1.73051,1.73051,0,0,0-1.415.76758.52123.52123,0,0,0-.13233.43164v2.47071a.65308.65308,0,0,0,.168.50341,1.482,1.482,0,0,0,1.25928.73194,1.64892,1.64892,0,0,0,1.35547-.76758,4.12872,4.12872,0,0,0,.02392-3.37012Z" transform="translate(-31.01191 -49)"/>
    <path class="cls-2" d="M73.1416,169.853v-.6958h3.17822v.6958Z" transform="translate(-31.01191 -49)"/>
    <path class="cls-2" d="M81.56348,172.22754v-.7915a2.0265,2.0265,0,0,1-1.60743.7915,2.63769,2.63769,0,0,1-2.54248-2.71045,2.71091,2.71091,0,0,1,2.67481-2.72266,1.91415,1.91415,0,0,1,1.51074.74366v-2.59034c0-.58789-.0957-.67187-.93506-.67187v-.37158l1.727-.13184v7.27979c0,.58789.09571.67187.93506.67187v.37158Zm0-4.00586a.5743.5743,0,0,0-.13184-.44385,1.55578,1.55578,0,0,0-1.29541-.71924,1.64775,1.64775,0,0,0-1.35547.76758,4.12872,4.12872,0,0,0-.02392,3.37012,1.49182,1.49182,0,0,0,1.25927.76758,1.67208,1.67208,0,0,0,1.41553-.83985.57268.57268,0,0,0,.13184-.44336Z" transform="translate(-31.01191 -49)"/>
  </g>
  <g>
    <path class="cls-2" d="M220.95532,192.43774v-.9248a2.366,2.366,0,0,1-1.87695.9248,3.08127,3.08127,0,0,1-2.96973-3.166,3.16629,3.16629,0,0,1,3.124-3.17969,2.23539,2.23539,0,0,1,1.76464.86865v-3.02588c0-.686-.11181-.78418-1.09228-.78418v-.43457l2.01709-.1538v8.50244c0,.68652.11182.78467,1.09228.78467v.43408Zm0-4.67871a.67164.67164,0,0,0-.15381-.51855,1.81748,1.81748,0,0,0-1.51318-.84033,1.92466,1.92466,0,0,0-1.58252.89648,4.81786,4.81786,0,0,0-.02832,3.936,1.7414,1.7414,0,0,0,1.47119.89648,1.95213,1.95213,0,0,0,1.65283-.98047.67.67,0,0,0,.15381-.51806Z" transform="translate(-31.01191 -49)"/>
    <path class="cls-2" d="M223.571,189.66382v-.812H227.283v.812Z" transform="translate(-31.01191 -49)"/>
    <path class="cls-2" d="M231.55249,192.43774a3.16266,3.16266,0,0,1-3.082-3.23584,3.06143,3.06143,0,0,1,2.91357-3.19384,2.48469,2.48469,0,0,1,2.50733,2.7456c0,.29395-.042.29395-.3501.29395h-3.9082a4.077,4.077,0,0,0,.42041,2.10107,1.88538,1.88538,0,0,0,1.583.93848,1.97394,1.97394,0,0,0,1.89063-1.44238c.02832-.11231.05615-.19629.18213-.19629a.16252.16252,0,0,1,.18213.168A2.39425,2.39425,0,0,1,231.55249,192.43774Zm-.16846-6.12158c-.47607,0-1.65283.3501-1.73681,2.4375H232.967C232.967,188.20728,232.8269,186.31616,231.384,186.31616Z" transform="translate(-31.01191 -49)"/>
  </g>
  <g>
    <path class="cls-2" d="M270.95532,192.43774v-.9248a2.366,2.366,0,0,1-1.87695.9248,3.08127,3.08127,0,0,1-2.96973-3.166,3.16629,3.16629,0,0,1,3.124-3.17969,2.23539,2.23539,0,0,1,1.76464.86865v-3.02588c0-.686-.11181-.78418-1.09228-.78418v-.43457l2.01709-.1538v8.50244c0,.68652.11182.78467,1.09228.78467v.43408Zm0-4.67871a.67164.67164,0,0,0-.15381-.51855,1.81748,1.81748,0,0,0-1.51318-.84033,1.92466,1.92466,0,0,0-1.58252.89648,4.81786,4.81786,0,0,0-.02832,3.936,1.7414,1.7414,0,0,0,1.47119.89648,1.95213,1.95213,0,0,0,1.65283-.98047.67.67,0,0,0,.15381-.51806Z" transform="translate(-31.01191 -49)"/>
    <path class="cls-2" d="M273.571,189.66382v-.812H277.283v.812Z" transform="translate(-31.01191 -49)"/>
    <path class="cls-2" d="M281.55249,192.43774a3.16266,3.16266,0,0,1-3.082-3.23584,3.06143,3.06143,0,0,1,2.91357-3.19384,2.48469,2.48469,0,0,1,2.50733,2.7456c0,.29395-.042.29395-.3501.29395h-3.9082a4.077,4.077,0,0,0,.42041,2.10107,1.88538,1.88538,0,0,0,1.583.93848,1.97394,1.97394,0,0,0,1.89063-1.44238c.02832-.11231.05615-.19629.18213-.19629a.16252.16252,0,0,1,.18213.168A2.39425,2.39425,0,0,1,281.55249,192.43774Zm-.16846-6.12158c-.47607,0-1.65283.3501-1.73681,2.4375H282.967C282.967,188.20728,282.8269,186.31616,281.384,186.31616Z" transform="translate(-31.01191 -49)"/>
  </g>
  <g>
    <path class="cls-2" d="M120.63208,160.75244a2.65489,2.65489,0,0,1-2.57861-2.72265,2.68789,2.68789,0,0,1,2.60254-2.78223c.92334,0,1.835.46777,1.835,1.2832a.55158.55158,0,1,1-1.103.01221.54111.54111,0,0,1,.56348-.55176,1.95647,1.95647,0,0,0-1.28321-.44385c-.63574,0-1.61914.50391-1.61914,2.4585,0,1.93115,1.05518,2.44678,1.69092,2.44678a1.56688,1.56688,0,0,0,1.57129-1.25928c.02393-.07178.04785-.12012.15576-.12012.03613,0,.15576,0,.15576.12012A1.97324,1.97324,0,0,1,120.63208,160.75244Z" transform="translate(-31.01191 -49)"/>
    <path class="cls-2" d="M123.10522,158.37793v-.6958h3.17823v.6958Z" transform="translate(-31.01191 -49)"/>
    <path class="cls-2" d="M129.9436,160.75244a2.70755,2.70755,0,0,1-2.63818-2.77051,2.62068,2.62068,0,0,1,2.49463-2.73437,2.12724,2.12724,0,0,1,2.14648,2.35058c0,.252-.03564.252-.2998.252h-3.34619a3.49157,3.49157,0,0,0,.35986,1.79883,1.6153,1.6153,0,0,0,1.35547.80371,1.69018,1.69018,0,0,0,1.61914-1.23535c.02393-.09571.04785-.168.15576-.168a.13918.13918,0,0,1,.15576.144A2.04955,2.04955,0,0,1,129.9436,160.75244Zm-.14355-5.24121c-.40772,0-1.41553.29981-1.48731,2.08691H131.155C131.155,157.13037,131.0354,155.51123,129.80005,155.51123Z" transform="translate(-31.01191 -49)"/>
  </g>
  <g>
    <path class="cls-2" d="M121.49536,172.16748a1.00351,1.00351,0,0,1-.93555-.9834,1.65906,1.65906,0,0,1-1.57128,1.04346c-.75538,0-1.91895-.29981-1.91895-1.271a1.74816,1.74816,0,0,1,1.19922-1.55957,5.84936,5.84936,0,0,1,2.207-.43164v-.44385a1.35823,1.35823,0,0,0-1.27148-1.53515,1.68653,1.68653,0,0,0-1.29541.55176c.55175.0122.61181.40771.61181.55175a.55182.55182,0,1,1-1.10351-.01171c0-.792.82763-1.35547,1.811-1.35547a2.29007,2.29007,0,0,1,1.64307.65966,1.77312,1.77312,0,0,1,.43213,1.415v2.39893c0,.06006.04785.59961.44336.59961.13232,0,.43213-.07178.43213-.76758v-.67187h.2998v.67187A1.01845,1.01845,0,0,1,121.49536,172.16748Zm-1.01953-2.95019c-1.979.07177-2.48291,1.06738-2.48291,1.72705a1.0328,1.0328,0,0,0,1.07959,1.01953,1.44077,1.44077,0,0,0,1.40332-1.54737Z" transform="translate(-31.01191 -49)"/>
    <path class="cls-2" d="M122.81763,169.853v-.6958h3.17822v.6958Z" transform="translate(-31.01191 -49)"/>
    <path class="cls-2" d="M130.2561,172.22754a1.88517,1.88517,0,0,1-1.57129-.87549l-.43164.74365h-.2998v-7.14795c0-.58789-.09619-.67187-.93555-.67187v-.37158l1.727-.13184v3.80176a2.13084,2.13084,0,0,1,1.64307-.77979,2.63813,2.63813,0,0,1,2.54248,2.71094A2.70253,2.70253,0,0,1,130.2561,172.22754Zm1.33106-4.40137a1.4902,1.4902,0,0,0-1.25928-.76758,1.73,1.73,0,0,0-1.415.76758.52125.52125,0,0,0-.13232.43164v2.47071a.65308.65308,0,0,0,.168.50341,1.482,1.482,0,0,0,1.25927.73194,1.64892,1.64892,0,0,0,1.35547-.76758,4.12878,4.12878,0,0,0,.02393-3.37012Z" transform="translate(-31.01191 -49)"/>
  </g>
</svg>
