<?xml version="1.0" encoding="utf-8"?>
<!-- Generator: Adobe Illustrator 23.0.3, SVG Export Plug-In . SVG Version: 6.00 Build 0)  -->
<svg version="1.1" id="Layer_1" xmlns="http://www.w3.org/2000/svg" xmlns:xlink="http://www.w3.org/1999/xlink" x="0px" y="0px"
	 viewBox="0 0 207.55556 105.82275" style="enable-background:new 0 0 207.55556 105.82275;" xml:space="preserve">
<style type="text/css">
	.st0{fill:none;stroke:#8FF4DD;stroke-width:2;stroke-linecap:round;stroke-linejoin:round;}
	.st1{fill:none;stroke:#8FF4DD;stroke-width:2;stroke-linecap:round;}
	.st2{fill:none;stroke:#8FF4DD;stroke-width:2;stroke-linecap:round;stroke-linejoin:round;stroke-dasharray:5,5;}
	.st3{fill:#8FF4DD;}
	.st4{fill:none;stroke:#FD1D53;stroke-miterlimit:10;}
	.st5{fill:#FD1D53;}
</style>
<g>
	<g>
		<path class="st0" d="M26,22.82617h7.16667c0-2.46227,1.99606-4.45833,4.45833-4.45833s4.45833,1.99606,4.45833,4.45833"/>
		<path class="st1" d="M42.08333,22.82617c0-2.46227,1.99606-4.45833,4.45834-4.45833S51,20.3639,51,22.82617"/>
		<path class="st1" d="M51,22.82617c0-2.46227,1.99606-4.45833,4.45833-4.45833s4.45834,1.99606,4.45834,4.45833"/>
		<path class="st0" d="M59.91667,22.82617c0-2.46227,1.99606-4.45833,4.45833-4.45833c2.46227,0,4.45834,1.99606,4.45834,4.45833H76
			"/>
	</g>
	<g>
		<path class="st0" d="M101,22.82617h7.16666c0-2.46227,1.99606-4.45833,4.45834-4.45833s4.45834,1.99606,4.45834,4.45833"/>
		<path class="st1" d="M117.08334,22.82617c0-2.46227,1.99606-4.45833,4.45833-4.45833S126,20.3639,126,22.82617"/>
		<path class="st1" d="M126,22.82617c0-2.46227,1.99606-4.45833,4.45833-4.45833c2.46228,0,4.45834,1.99606,4.45834,4.45833"/>
		<path class="st0" d="M134.91667,22.82617c0-2.46227,1.99606-4.45833,4.45833-4.45833s4.45833,1.99606,4.45833,4.45833H151"/>
	</g>
	<g>
		<path class="st0" d="M201,72.82617v-7.16666c2.46228,0,4.45833-1.99606,4.45833-4.45834S203.46227,56.74284,201,56.74284"/>
		<path class="st1" d="M201,56.74284c2.46227,0,4.45833-1.99606,4.45833-4.45834S203.46227,47.82617,201,47.82617"/>
		<path class="st1" d="M201,47.82617c2.46227,0,4.45833-1.99606,4.45833-4.45833S203.46227,38.9095,201,38.9095"/>
		<path class="st0" d="M201,38.9095c2.46227,0,4.45833-1.99606,4.45833-4.45833S203.46227,29.99284,201,29.99284v-7.16667"/>
	</g>
</g>
<g>
	<line class="st0" x1="76" y1="22.82614" x2="101" y2="22.82614"/>
	<line class="st0" x1="151" y1="22.82614" x2="161" y2="22.82617"/>
	<line class="st0" x1="201" y1="22.82614" x2="191" y2="22.82617"/>
	<g>
		<g>
			<line class="st0" x1="161" y1="22.82617" x2="163.5" y2="22.82617"/>
			<line class="st2" x1="168.5" y1="22.82617" x2="186" y2="22.82617"/>
			<line class="st0" x1="188.5" y1="22.82617" x2="191" y2="22.82617"/>
		</g>
	</g>
	<line class="st1" x1="1" y1="22.82617" x2="26" y2="22.82614"/>
	<g>
		<path class="st3" d="M193.20557,48.91211c-0.07227,0.2041-0.08398,0.2041-0.33594,0.2041h-4.95313
			c-0.19189,0-0.28809,0-0.28809-0.12012c0-0.22754,0.10791-0.22754,0.32373-0.22754c0.73193,0,0.80371-0.09619,0.91162-0.51611
			l1.64307-6.60791c0.02393-0.07227,0.02393-0.10791,0.02393-0.18018c0-0.19189-0.33545-0.19189-0.63574-0.19189
			c-0.22754,0-0.31152,0-0.31152-0.11963c0-0.22803,0.13184-0.22803,0.22803-0.22803c0.45557,0,0.93506,0.02393,1.40283,0.02393
			c0.47998,0,0.9834-0.02393,1.46338-0.02393c0.0957,0,0.19189,0,0.19189,0.13184c0,0.21582-0.12012,0.21582-0.32373,0.21582
			h-0.08398c-0.91162,0-0.99561,0.10791-1.10352,0.55176l-1.63086,6.52441c-0.02441,0.08398-0.04834,0.17969-0.04834,0.27588
			c0,0.13184,0.01221,0.14404,0.35986,0.14404h0.9834c1.85938,0,2.375-1.42725,2.72266-2.41064
			c0.10791-0.2998,0.12012-0.31201,0.25195-0.31201c0.08398,0,0.15576,0.03613,0.15576,0.12012
			c0,0.03564-0.02393,0.10791-0.03613,0.14355L193.20557,48.91211z"/>
		<g>
			<path class="st3" d="M196.67676,52.67676c-0.28613,0-0.50293-0.20996-0.50293-0.5459c0-0.14648,0.02734-0.20898,0.09082-0.38379
				c0.11816-0.34277,0.42578-1.18164,0.42578-1.61426c0-0.11914,0-0.46875-0.32129-0.46875
				c-0.6709,0-1.04785,0.89453-1.08984,1.04883l-0.42676,1.71875c-0.02734,0.11914-0.09766,0.24512-0.25879,0.24512
				c-0.125,0-0.18164-0.08398-0.18164-0.16797c0-0.02832,0-0.03516,0.02832-0.13281l0.50977-2.04102
				c0.02832-0.09766,0.05664-0.25098,0.05664-0.38379c0-0.08398,0-0.28711-0.18164-0.28711
				c-0.23828,0-0.37109,0.41211-0.47559,0.8252c-0.04199,0.16016-0.04883,0.16699-0.12598,0.16699
				c-0.0625,0-0.09766-0.01367-0.09766-0.06934c0,0,0.09082-0.43359,0.22363-0.69238
				c0.14648-0.2998,0.32813-0.37012,0.48926-0.37012c0.32129,0,0.53809,0.25195,0.55859,0.56641
				c0.23145-0.31445,0.55957-0.56641,0.99316-0.56641c0.53809,0,0.69824,0.34277,0.69824,0.71289
				c0,0.40527-0.2373,1.05566-0.41895,1.56543c-0.05566,0.13965-0.13281,0.35645-0.13281,0.52441
				c0,0.16016,0.05566,0.20898,0.16016,0.20898c0.3916,0,0.58008-0.62891,0.64355-0.86621
				c0.02734-0.10449,0.03516-0.12598,0.11914-0.12598c0.02734,0,0.09082,0,0.09082,0.06348
				C197.55078,51.63477,197.32715,52.67676,196.67676,52.67676z"/>
		</g>
	</g>
	<g>
		<path class="st3" d="M10.75098,98.08252c-0.07227,0.2041-0.08398,0.2041-0.33594,0.2041H5.46191
			c-0.19238,0-0.28809,0-0.28809-0.12012c0-0.22754,0.10742-0.22754,0.32324-0.22754c0.73242,0,0.80371-0.09619,0.91211-0.51611
			l1.64258-6.60791c0.02441-0.07227,0.02441-0.10791,0.02441-0.18018c0-0.19189-0.33594-0.19189-0.63574-0.19189
			c-0.22754,0-0.31152,0-0.31152-0.11963c0-0.22803,0.13184-0.22803,0.22754-0.22803c0.45605,0,0.93555,0.02393,1.40332,0.02393
			c0.47949,0,0.9834-0.02393,1.46289-0.02393c0.0957,0,0.19238,0,0.19238,0.13184c0,0.21582-0.12012,0.21582-0.32422,0.21582
			h-0.08398c-0.91113,0-0.99512,0.10791-1.10352,0.55176l-1.63086,6.52441c-0.02441,0.08398-0.04785,0.17969-0.04785,0.27588
			c0,0.13184,0.01172,0.14404,0.35938,0.14404h0.9834c1.85938,0,2.375-1.42725,2.72266-2.41064
			c0.1084-0.2998,0.12012-0.31201,0.25195-0.31201c0.08398,0,0.15625,0.03613,0.15625,0.12012
			c0,0.03564-0.02441,0.10791-0.03613,0.14355L10.75098,98.08252z"/>
		<path class="st3" d="M13.4707,102.35938c-0.80273,0-1.53711-0.67773-1.53711-1.61426c0-0.87354,0.64258-1.59326,1.4541-1.59326
			c0.87305,0,1.25098,0.67773,1.25098,1.36963c0,0.14697-0.02148,0.14697-0.1748,0.14697h-1.9502
			c0,0.25146,0,0.71289,0.20996,1.04834c0.16016,0.2583,0.44043,0.46826,0.78906,0.46826c0.07031,0,0.69922,0,0.94434-0.72021
			c0.01367-0.05566,0.02734-0.09766,0.09082-0.09766c0.03418,0,0.09082,0.01416,0.09082,0.08398
			C14.63867,101.58398,14.32422,102.35938,13.4707,102.35938z M13.3877,99.30566c-0.23828,0-0.8252,0.1748-0.86719,1.21582h1.65625
			C14.17676,100.24902,14.10742,99.30566,13.3877,99.30566z"/>
		<path class="st3" d="M17.7373,103.61768l-0.7832,0.021v-0.2168c0.46875,0,0.5459,0,0.5459-0.31445v-1.25098
			c-0.1543,0.20264-0.44043,0.50293-0.92969,0.50293c-0.81055,0-1.48828-0.70557-1.48828-1.5791
			c0-0.90869,0.7334-1.58643,1.54395-1.58643c0.55957,0,0.8457,0.44043,0.93652,0.63574l0.26563-0.63574h0.15332v3.91357
			c0,0.31445,0.07715,0.31445,0.5459,0.31445v0.2168L17.7373,103.61768z M17.52051,100.34668
			c0-0.37012-0.29297-0.97803-0.85254-0.97803c-0.51758,0-1.00586,0.58008-1.00586,1.41162
			c0,0.80371,0.42578,1.42578,0.93555,1.42578c0.3291,0,0.55273-0.18896,0.64355-0.28662
			c0.15332-0.16797,0.2793-0.36377,0.2793-0.5874V100.34668z"/>
	</g>
	<line class="st1" x1="1" y1="72.82617" x2="201" y2="72.82617"/>
	<g>
		<path class="st3" d="M51.30566,9.91211c-0.07227,0.2041-0.08398,0.2041-0.33594,0.2041H46.0166
			c-0.19141,0-0.28809,0-0.28809-0.12012c0-0.22754,0.1084-0.22754,0.32422-0.22754c0.73145,0,0.80371-0.09619,0.91113-0.51611
			l1.64355-6.60791c0.02344-0.07227,0.02344-0.10791,0.02344-0.18018c0-0.19189-0.33496-0.19189-0.63574-0.19189
			c-0.22754,0-0.31152,0-0.31152-0.11963c0-0.22803,0.13184-0.22803,0.22852-0.22803c0.45508,0,0.93457,0.02393,1.40234,0.02393
			c0.48047,0,0.9834-0.02393,1.46387-0.02393c0.0957,0,0.19141,0,0.19141,0.13184c0,0.21582-0.12012,0.21582-0.32324,0.21582h-0.084
			c-0.91211,0-0.99609,0.10791-1.10352,0.55176l-1.63086,6.52441c-0.02441,0.08398-0.04883,0.17969-0.04883,0.27588
			c0,0.13184,0.0127,0.14404,0.36035,0.14404h0.9834c1.85938,0,2.375-1.42725,2.72266-2.41064
			c0.10742-0.2998,0.12012-0.31201,0.25195-0.31201c0.08398,0,0.15527,0.03613,0.15527,0.12012
			c0,0.03564-0.02344,0.10791-0.03613,0.14355L51.30566,9.91211z"/>
		<path class="st3" d="M54.08887,14.09131c-0.2793,0-0.88672,0-1.13184,0.021v-0.2168h0.22363
			c0.62891,0,0.65039-0.0835,0.65039-0.33545V9.93994c-0.36328,0.18213-0.77637,0.18213-0.91602,0.18213v-0.2168
			c0.22363,0,0.83887,0,1.27246-0.44727c0.16016,0,0.16016,0.01416,0.16016,0.18164v3.92041
			c0,0.25879,0.02148,0.33545,0.65039,0.33545h0.22363v0.2168C54.97656,14.09131,54.36914,14.09131,54.08887,14.09131z"/>
	</g>
	<g>
		<path class="st3" d="M126.30566,9.91211c-0.07227,0.2041-0.08398,0.2041-0.33594,0.2041h-4.95313
			c-0.19141,0-0.28809,0-0.28809-0.12012c0-0.22754,0.1084-0.22754,0.32422-0.22754c0.73145,0,0.80371-0.09619,0.91113-0.51611
			l1.64355-6.60791c0.02344-0.07227,0.02344-0.10791,0.02344-0.18018c0-0.19189-0.33496-0.19189-0.63574-0.19189
			c-0.22754,0-0.31152,0-0.31152-0.11963c0-0.22803,0.13184-0.22803,0.22852-0.22803c0.45508,0,0.93457,0.02393,1.40234,0.02393
			c0.48047,0,0.9834-0.02393,1.46387-0.02393c0.0957,0,0.19141,0,0.19141,0.13184c0,0.21582-0.12012,0.21582-0.32324,0.21582
			h-0.08398c-0.91211,0-0.99609,0.10791-1.10352,0.55176l-1.63086,6.52441c-0.02441,0.08398-0.04883,0.17969-0.04883,0.27588
			c0,0.13184,0.0127,0.14404,0.36035,0.14404h0.9834c1.85938,0,2.375-1.42725,2.72266-2.41064
			c0.10742-0.2998,0.12012-0.31201,0.25195-0.31201c0.08398,0,0.15527,0.03613,0.15527,0.12012
			c0,0.03564-0.02344,0.10791-0.03613,0.14355L126.30566,9.91211z"/>
		<path class="st3" d="M130.23535,14.1123h-2.59277c0-0.16748,0-0.18164,0.07715-0.25879l1.3418-1.49512
			c0.38379-0.43359,0.7334-0.98584,0.7334-1.54443c0-0.57324-0.30078-1.13916-0.93652-1.13916
			c-0.40527,0-0.78223,0.2583-0.94336,0.7124c0.02148-0.00684,0.03516-0.00684,0.09082-0.00684
			c0.24512,0,0.37012,0.18164,0.37012,0.36328c0,0.28662-0.24414,0.37061-0.36328,0.37061c-0.02051,0-0.37012,0-0.37012-0.3916
			c0-0.62158,0.51758-1.26465,1.30664-1.26465c0.85254,0,1.48145,0.55908,1.48145,1.35596
			c0,0.69873-0.41895,1.07617-1.50879,2.04053l-0.74121,0.71973h1.25781c0.1543,0,0.61523,0,0.66406-0.05615
			c0.07031-0.10449,0.11914-0.41211,0.1543-0.62158h0.17383L130.23535,14.1123z"/>
	</g>
	<g>
		<g>
			<polyline class="st4" points="11,85.82617 11,47.82617 21.9155,47.82617 			"/>
			<g>
				<polygon class="st5" points="18.60201,51.91602 17.91988,51.18359 21.5317,47.82715 17.91988,44.46972 18.60201,43.7373 
					23,47.82715 				"/>
			</g>
		</g>
	</g>
</g>
</svg>
