<?xml version="1.0" encoding="utf-8"?>
<!-- Generator: Adobe Illustrator 23.0.3, SVG Export Plug-In . SVG Version: 6.00 Build 0)  -->
<svg version="1.1" xmlns="http://www.w3.org/2000/svg" xmlns:xlink="http://www.w3.org/1999/xlink" x="0px" y="0px"
	 viewBox="0 0 323.23438 126.76074" style="enable-background:new 0 0 323.23438 126.76074;" xml:space="preserve">
<style type="text/css">
	.st0{fill:none;stroke:#8FF4DD;stroke-width:2;stroke-linecap:round;stroke-linejoin:round;}
	.st1{fill:none;stroke:#8FF4DD;stroke-width:2;stroke-linecap:round;}
	.st2{fill:none;stroke:#8FF4DD;stroke-width:1.5;stroke-linecap:square;}
	.st3{fill:none;stroke:#8FF4DD;stroke-width:2;stroke-linecap:square;stroke-linejoin:round;}
	.st4{fill:none;stroke:#8FF4DD;stroke-width:2;stroke-linejoin:round;}
	.st5{fill:#8FF4DD;}
	.st6{fill:none;stroke:#8FF4DD;stroke-width:2;stroke-linecap:square;}
	.st7{fill:none;stroke:#8FF4DD;stroke-width:0.5;}
</style>
<g id="Layer_1">
	<g>
		<path class="st0" d="M39.92188,48.76074v7.16667c2.46227,0,4.45833,1.99606,4.45833,4.45833s-1.99606,4.45834-4.45833,4.45834"/>
		<path class="st1" d="M39.92188,64.84408c2.46227,0,4.45833,1.99606,4.45833,4.45833s-1.99606,4.45834-4.45833,4.45834"/>
		<path class="st1" d="M39.92188,73.76074c2.46227,0,4.45833,1.99606,4.45833,4.45834s-1.99606,4.45833-4.45833,4.45833"/>
		<path class="st0" d="M39.92188,82.67741c2.46227,0,4.45833,1.99606,4.45833,4.45834s-1.99606,4.45834-4.45833,4.45834v7.16666"/>
	</g>
	<g>
		<path id="path1132_1_" class="st0" d="M124.92188,22.76074h-14"/>
		<circle class="st0" cx="107.92188" cy="22.76074" r="3"/>
	</g>
	<g>
		<path id="path1132_2_" class="st0" d="M124.92188,122.76074h-14"/>
		<circle class="st0" cx="107.92188" cy="122.76074" r="3"/>
	</g>
	<g>
		<path class="st0" d="M139.92188,22.76074v7.16667c2.46227,0,4.45833,1.99606,4.45833,4.45833s-1.99606,4.45833-4.45833,4.45833"/>
		<path class="st1" d="M139.92188,38.84407c2.46227,0,4.45833,1.99606,4.45833,4.45834s-1.99606,4.45833-4.45833,4.45833"/>
		<path class="st1" d="M139.92188,47.76074c2.46227,0,4.45833,1.99606,4.45833,4.45833s-1.99606,4.45834-4.45833,4.45834"/>
		<path class="st0" d="M139.92188,56.67741c2.46227,0,4.45833,1.99606,4.45833,4.45833s-1.99606,4.45834-4.45833,4.45834v7.16666"/>
	</g>
	<g>
		<circle class="st1" cx="139.92188" cy="97.76074" r="12.5"/>
		<line class="st1" x1="139.92188" y1="110.76074" x2="139.92188" y2="122.76074"/>
		<line class="st1" x1="139.92188" y1="84.76074" x2="139.92188" y2="72.76074"/>
		<line class="st2" x1="137.42188" y1="104.76074" x2="142.42188" y2="104.76074"/>
		<line class="st2" x1="139.92188" y1="102.26074" x2="139.92188" y2="107.26074"/>
		<line class="st2" x1="137.42188" y1="90.26074" x2="142.42188" y2="90.26074"/>
	</g>
	<g>
		<path id="path1132_3_" class="st0" d="M24.92188,22.76074h-14"/>
		<circle class="st0" cx="7.92188" cy="22.76074" r="3"/>
	</g>
	<g>
		<path id="path1132_4_" class="st0" d="M24.92188,122.76074h-14"/>
		<circle class="st0" cx="7.92188" cy="122.76074" r="3"/>
	</g>
	<circle class="st0" cx="289.92188" cy="72.76074" r="12.5"/>
	<line class="st1" x1="289.92188" y1="85.76074" x2="289.92188" y2="97.76074"/>
	<line class="st1" x1="289.92188" y1="59.76074" x2="289.92188" y2="47.76074"/>
	<g>
		<polyline class="st3" points="289.92188,65.76074 289.92188,79.76074 292.92188,76.76074 		"/>
		<line class="st3" x1="289.92188" y1="79.76074" x2="286.92188" y2="76.76074"/>
	</g>
</g>
<g id="Layer_2">
	<line class="st0" x1="124.92188" y1="22.76074" x2="139.92188" y2="22.76074"/>
	<line class="st0" x1="139.92188" y1="122.76074" x2="124.92188" y2="122.76074"/>
	<polyline class="st3" points="24.92188,22.76074 39.92188,22.76074 39.92188,47.76074 	"/>
	<polyline class="st3" points="39.92188,98.76074 39.92188,122.76074 24.92188,122.76074 	"/>
	<g>
		<path class="st0" d="M239.92188,48.76074v7.16667c2.46227,0,4.45833,1.99606,4.45833,4.45833s-1.99606,4.45834-4.45833,4.45834"/>
		<path class="st1" d="M239.92188,64.84408c2.46227,0,4.45833,1.99606,4.45833,4.45833s-1.99606,4.45834-4.45833,4.45834"/>
		<path class="st1" d="M239.92188,73.76074c2.46227,0,4.45833,1.99606,4.45833,4.45834s-1.99606,4.45833-4.45833,4.45833"/>
		<path class="st0" d="M239.92188,82.67741c2.46227,0,4.45833,1.99606,4.45833,4.45834s-1.99606,4.45834-4.45833,4.45834v7.16666"/>
	</g>
	<g>
		<path id="path1132_6_" class="st0" d="M224.92188,22.76074h-14"/>
		<circle class="st0" cx="207.92188" cy="22.76074" r="3"/>
	</g>
	<g>
		<path id="path1132_5_" class="st0" d="M224.92188,122.76074h-14"/>
		<circle class="st0" cx="207.92188" cy="122.76074" r="3"/>
	</g>
	<polyline class="st3" points="224.92188,22.76074 239.92188,22.76074 239.92188,47.76074 	"/>
	<polyline class="st3" points="239.92188,98.76074 239.92188,122.76074 224.92188,122.76074 	"/>
	<polyline class="st0" points="239.92188,22.76074 289.92188,22.76074 289.92188,47.76074 	"/>
	<polyline class="st0" points="289.92188,97.76074 289.92188,122.76074 239.92188,122.76074 	"/>
	<g>
		<g>
			<line class="st4" x1="58.92188" y1="72.76074" x2="87.40358" y2="72.76074"/>
			<g>
				<polygon class="st5" points="82.76469,78.48652 81.80971,77.46113 86.86626,72.76211 81.80971,68.06171 82.76469,67.03632 
					88.92188,72.76211 				"/>
			</g>
		</g>
	</g>
	<polyline class="st6" points="17.92188,18.76074 31.92188,18.76074 28.92188,15.76074 	"/>
	<polyline class="st6" points="117.92188,18.76074 131.92188,18.76074 128.92188,15.76074 	"/>
	<polyline class="st6" points="217.92188,18.76074 231.92188,18.76074 228.92188,15.76074 	"/>
	<line class="st2" x1="5.42188" y1="35.76074" x2="10.42188" y2="35.76074"/>
	<line class="st2" x1="7.92188" y1="38.26074" x2="7.92188" y2="33.26074"/>
	<line class="st2" x1="5.42188" y1="109.76074" x2="10.42188" y2="109.76074"/>
	<line class="st2" x1="105.42188" y1="35.76074" x2="110.42188" y2="35.76074"/>
	<line class="st2" x1="107.92188" y1="38.26074" x2="107.92188" y2="33.26074"/>
	<line class="st2" x1="105.42188" y1="109.76074" x2="110.42188" y2="109.76074"/>
	<line class="st2" x1="205.42188" y1="35.76074" x2="210.42188" y2="35.76074"/>
	<line class="st2" x1="207.92188" y1="38.26074" x2="207.92188" y2="33.26074"/>
	<line class="st2" x1="205.42188" y1="109.76074" x2="210.42188" y2="109.76074"/>
	<g>
		<path class="st5" d="M18.38672,10.21777c-0.396,0-0.86377-0.25195-0.86377-0.94775c0-0.10791,0-0.26367,0.09619-0.52783
			l0.95947-2.60254c0.08398-0.21582,0.15576-0.41943,0.15576-0.73145c0-0.13184,0-0.35986-0.26367-0.35986
			c-0.6958,0-1.00732,1.11572-1.10352,1.49951c-0.04785,0.16748-0.06006,0.20361-0.20361,0.20361
			c-0.06006,0-0.16797,0-0.16797-0.10791c0-0.06006,0.39551-1.83496,1.49902-1.83496c0.46777,0,0.86377,0.32373,0.86377,0.93555
			c0,0.21582-0.02441,0.31152-0.13232,0.61133l-0.70752,1.94336c-0.21582,0.5874-0.38379,1.01904-0.38379,1.33105
			c0,0.28809,0.14404,0.34766,0.27588,0.34766c0.68359,0,0.99561-1.0791,1.10352-1.48682
			c0.04785-0.18018,0.06006-0.21631,0.20361-0.21631c0.04834,0,0.15625,0,0.15625,0.1084
			C19.87402,8.43066,19.49023,10.21777,18.38672,10.21777z M19.49023,3.46533c-0.22803,0-0.47998-0.15576-0.47998-0.47998
			c0-0.34766,0.34814-0.68359,0.70752-0.68359c0.24023,0,0.47998,0.14404,0.47998,0.47998
			C20.19775,3.1416,19.8501,3.46533,19.49023,3.46533z"/>
		<path class="st5" d="M23.38965,13.10791c-0.13184,0-1.11572-0.7793-1.82324-2.21875
			c-0.62354-1.2832-0.7915-2.71045-0.7915-3.77783c0-1.4751,0.27588-2.7583,0.8877-3.96973
			c0.5874-1.17529,1.5708-2.03906,1.72705-2.03906c0.04785,0,0.10791,0.02393,0.10791,0.09619c0,0.03564,0,0.05957-0.12012,0.16748
			c-1.39111,1.41553-1.95459,3.41846-1.95459,5.74512c0,2.44678,0.67139,4.42578,1.87061,5.63672
			c0.2041,0.2041,0.2041,0.22803,0.2041,0.26416C23.49756,13.08398,23.4375,13.10791,23.38965,13.10791z"/>
		<path class="st5" d="M26.57031,10.21777c-0.65918,0-0.9834-0.50391-0.9834-1.05566c0-0.04785,0-0.19189,0.06006-0.43164
			l0.86377-3.4541h-0.97168c-0.19189,0-0.2876,0-0.2876-0.12012c0-0.22754,0.10791-0.22754,0.32373-0.22754h1.01953l0.46777-1.8833
			c0.04785-0.17969,0.15576-0.44385,0.45557-0.44385c0.22803,0,0.31201,0.18018,0.31201,0.28809
			c0,0-0.01221,0.13184-0.02441,0.15576l-0.47949,1.8833h0.94727c0.2041,0,0.28809,0,0.28809,0.13184
			c0,0.21582-0.12012,0.21582-0.32373,0.21582h-0.99561L26.34277,8.8623c-0.04785,0.17969-0.09619,0.45557-0.09619,0.63574
			c0,0.39551,0.16797,0.47949,0.34814,0.47949c0.7793,0,1.24707-1.17529,1.39111-1.54688
			c0.06006-0.13184,0.07178-0.15625,0.20361-0.15625c0.04834,0,0.15625,0,0.15625,0.1084
			C28.3457,8.44238,27.74609,10.21777,26.57031,10.21777z"/>
		<path class="st5" d="M31.7666,11.06934c-0.58789,1.17529-1.57129,2.03857-1.72705,2.03857
			c-0.04785,0-0.10791-0.02393-0.10791-0.0957c0-0.03613,0-0.06006,0.12012-0.16797
			c1.39111-1.41553,1.95459-3.41846,1.95459-5.74512c0-2.44629-0.67139-4.42529-1.87061-5.63672
			c-0.2041-0.2041-0.2041-0.22803-0.2041-0.26367c0-0.07227,0.06006-0.09619,0.10791-0.09619
			c0.13184,0,1.11523,0.77979,1.82275,2.21875c0.67188,1.39111,0.79199,2.87842,0.79199,3.79004
			C32.6543,8.55029,32.37842,9.8457,31.7666,11.06934z"/>
	</g>
	<g>
		<path class="st5" d="M119.32178,10.09766c-0.44336,0-0.92334-0.02393-1.37891-0.02393c-0.44385,0-0.91162,0.02393-1.34326,0.02393
			c-0.04834,0-0.16797,0-0.16797-0.12012c0-0.22754,0.11963-0.22754,0.2876-0.22754c0.81592,0,0.8877-0.08398,0.99561-0.51563
			l1.61914-6.47656c0.04785-0.19189,0.04785-0.28809,0.04785-0.28809c0-0.13184,0-0.21582-0.70752-0.21582
			c-0.2041,0-0.2876,0-0.2876-0.13184c0-0.21582,0.13184-0.21582,0.22754-0.21582c0.44385,0,0.91162,0.02393,1.36719,0.02393
			c0.44385,0,0.91162-0.02393,1.35547-0.02393c0.04785,0,0.16797,0,0.16797,0.11963c0,0.22803-0.09619,0.22803-0.34814,0.22803
			c-0.71924,0-0.83936,0.08398-0.93506,0.4917l-1.64307,6.59668c-0.02441,0.10791-0.02441,0.13184-0.02441,0.20361
			c0,0.2041,0.34814,0.2041,0.68359,0.2041c0.22803,0,0.31201,0,0.31201,0.11963
			C119.5498,10.09766,119.41797,10.09766,119.32178,10.09766z"/>
		<path class="st5" d="M124.00195,13.10791c-0.13184,0-1.11572-0.7793-1.82324-2.21875
			c-0.62354-1.2832-0.7915-2.71045-0.7915-3.77783c0-1.4751,0.27588-2.7583,0.8877-3.96973
			c0.5874-1.17529,1.5708-2.03906,1.72705-2.03906c0.04785,0,0.10791,0.02393,0.10791,0.09619c0,0.03564,0,0.05957-0.12012,0.16748
			c-1.39111,1.41553-1.95508,3.41846-1.95508,5.74512c0,2.44678,0.67188,4.42578,1.87109,5.63672
			c0.2041,0.2041,0.2041,0.22803,0.2041,0.26416C124.10986,13.08398,124.0498,13.10791,124.00195,13.10791z"/>
		<path class="st5" d="M125.98291,10.21777c-0.82764,0-1.51123-0.41992-1.51123-1.15137c0-0.65967,0.46777-0.70801,0.56348-0.70801
			c0.15576,0,0.37158,0.09619,0.37158,0.34814c0,0,0,0.51563-0.5752,0.53955c0.13184,0.56348,0.73145,0.73145,1.16309,0.73145
			c1.31934,0,1.60693-1.05518,1.60693-1.37891c0-0.65967-0.61133-0.80371-0.91113-0.86377
			c-0.51611-0.11963-0.74365-0.17969-0.94775-0.37158c-0.10791-0.12012-0.33594-0.37207-0.33594-0.81543
			c0-0.51611,0.41992-1.73926,1.85938-1.73926c0.76758,0,1.24707,0.45557,1.24707,1.00732
			c0,0.40771-0.20361,0.62354-0.47949,0.62354c-0.24023,0-0.32422-0.16748-0.32422-0.2998
			c0-0.04785,0.02441-0.40771,0.45605-0.45557c-0.08398-0.38379-0.43164-0.63574-0.92334-0.63574
			c-0.97168,0-1.23535,0.81543-1.23535,1.12744c0,0.53955,0.43164,0.63574,0.75537,0.70752
			c0.57568,0.13184,1.42725,0.32373,1.42725,1.35547C128.18945,8.88623,127.66162,10.21777,125.98291,10.21777z"/>
		<path class="st5" d="M130.87842,11.06934c-0.58789,1.17529-1.57129,2.03857-1.72705,2.03857
			c-0.04785,0-0.10791-0.02393-0.10791-0.0957c0-0.03613,0-0.06006,0.12012-0.16797
			c1.39111-1.41553,1.95459-3.41846,1.95459-5.74512c0-2.44629-0.67139-4.42529-1.87061-5.63672
			c-0.2041-0.2041-0.2041-0.22803-0.2041-0.26367c0-0.07227,0.06006-0.09619,0.10791-0.09619
			c0.13184,0,1.11523,0.77979,1.82275,2.21875c0.67188,1.39111,0.79199,2.87842,0.79199,3.79004
			C131.76611,8.55029,131.49023,9.8457,130.87842,11.06934z"/>
	</g>
	<g>
		<path class="st5" d="M219.92188,10.09766c-0.44336,0-0.92285-0.02393-1.37891-0.02393c-0.44336,0-0.91113,0.02393-1.34277,0.02393
			c-0.04785,0-0.16797,0-0.16797-0.12012c0-0.22754,0.12012-0.22754,0.28809-0.22754c0.81543,0,0.88672-0.08398,0.99512-0.51563
			l1.61914-6.47656c0.04785-0.19189,0.04785-0.28809,0.04785-0.28809c0-0.13184,0-0.21582-0.70703-0.21582
			c-0.20508,0-0.28809,0-0.28809-0.13184c0-0.21582,0.13184-0.21582,0.22754-0.21582c0.44336,0,0.91211,0.02393,1.36719,0.02393
			c0.44336,0,0.91211-0.02393,1.35547-0.02393c0.04785,0,0.16797,0,0.16797,0.11963c0,0.22803-0.0957,0.22803-0.34766,0.22803
			c-0.71973,0-0.83984,0.08398-0.93555,0.4917l-1.64258,6.59668c-0.02539,0.10791-0.02539,0.13184-0.02539,0.20361
			c0,0.2041,0.34863,0.2041,0.68359,0.2041c0.22852,0,0.3125,0,0.3125,0.11963
			C220.15039,10.09766,220.01855,10.09766,219.92188,10.09766z"/>
		<path class="st5" d="M224.60254,13.10791c-0.13184,0-1.11621-0.7793-1.82324-2.21875
			c-0.62305-1.2832-0.79102-2.71045-0.79102-3.77783c0-1.4751,0.27539-2.7583,0.88672-3.96973
			c0.58789-1.17529,1.57129-2.03906,1.72754-2.03906c0.04785,0,0.1084,0.02393,0.1084,0.09619c0,0.03564,0,0.05957-0.12109,0.16748
			c-1.39063,1.41553-1.95508,3.41846-1.95508,5.74512c0,2.44678,0.67188,4.42578,1.87109,5.63672
			c0.20508,0.2041,0.20508,0.22803,0.20508,0.26416C224.71094,13.08398,224.65039,13.10791,224.60254,13.10791z"/>
		<path class="st5" d="M226.58398,10.21777c-0.82813,0-1.51172-0.41992-1.51172-1.15137c0-0.65967,0.46777-0.70801,0.56348-0.70801
			c0.15527,0,0.37207,0.09619,0.37207,0.34814c0,0,0,0.51563-0.57617,0.53955c0.13281,0.56348,0.73242,0.73145,1.16406,0.73145
			c1.31836,0,1.60645-1.05518,1.60645-1.37891c0-0.65967-0.61133-0.80371-0.91113-0.86377
			c-0.51563-0.11963-0.74414-0.17969-0.94727-0.37158c-0.1084-0.12012-0.33594-0.37207-0.33594-0.81543
			c0-0.51611,0.41992-1.73926,1.85938-1.73926c0.76758,0,1.24609,0.45557,1.24609,1.00732
			c0,0.40771-0.20313,0.62354-0.47852,0.62354c-0.24023,0-0.32422-0.16748-0.32422-0.2998
			c0-0.04785,0.02344-0.40771,0.45508-0.45557c-0.08398-0.38379-0.43164-0.63574-0.92285-0.63574
			c-0.97168,0-1.23535,0.81543-1.23535,1.12744c0,0.53955,0.43164,0.63574,0.75586,0.70752
			c0.5752,0.13184,1.42676,0.32373,1.42676,1.35547C228.79004,8.88623,228.26172,10.21777,226.58398,10.21777z"/>
		<path class="st5" d="M231.47852,11.06934c-0.58789,1.17529-1.57031,2.03857-1.72656,2.03857
			c-0.04785,0-0.10742-0.02393-0.10742-0.0957c0-0.03613,0-0.06006,0.11914-0.16797c1.3916-1.41553,1.95508-3.41846,1.95508-5.74512
			c0-2.44629-0.67188-4.42529-1.87109-5.63672c-0.20313-0.2041-0.20313-0.22803-0.20313-0.26367
			c0-0.07227,0.05957-0.09619,0.10742-0.09619c0.13184,0,1.11523,0.77979,1.82227,2.21875
			c0.67188,1.39111,0.79297,2.87842,0.79297,3.79004C232.36719,8.55029,232.09082,9.8457,231.47852,11.06934z"/>
	</g>
	<g>
		<path class="st5" d="M3.26221,75.21777c-0.50391,0-1.41504-0.19189-1.41504-1.41553c0-0.33545,0.04785-0.76758,0.52734-2.09863
			c0.25195-0.6958,0.37207-1.00732,0.37207-1.30713c0-0.28809-0.13184-0.34814-0.27588-0.34814
			c-0.6958,0-1.00732,1.13965-1.10352,1.49951c-0.04785,0.16748-0.06006,0.20361-0.20361,0.20361
			c-0.06006,0-0.16797,0-0.16797-0.10791c0-0.07178,0.40771-1.83496,1.49902-1.83496c0.58789,0,0.87549,0.45557,0.87549,0.93555
			c0,0.23975-0.06006,0.39551-0.15576,0.68359c-0.27588,0.73145-0.68359,1.84668-0.68359,2.54248
			c0,0.47998,0.16797,1.00732,0.7793,1.00732c1.40332,0,1.95508-3.10596,1.95508-3.41797c0-0.19189-0.03613-0.63574-0.31201-0.95947
			c-0.10791-0.12012-0.13184-0.17969-0.13184-0.2876c0-0.27588,0.2998-0.50391,0.52783-0.50391
			c0.21582,0,0.45557,0.15576,0.45557,0.76758C5.80469,70.88818,5.25293,75.21777,3.26221,75.21777z"/>
		<path class="st5" d="M9.18994,78.10791c-0.13184,0-1.11572-0.7793-1.82324-2.21875c-0.62354-1.2832-0.7915-2.71045-0.7915-3.77783
			c0-1.4751,0.27588-2.7583,0.8877-3.96973c0.5874-1.17529,1.5708-2.03906,1.72705-2.03906
			c0.04785,0,0.10791,0.02393,0.10791,0.09619c0,0.03564,0,0.05957-0.12012,0.16748
			c-1.39111,1.41553-1.95508,3.41846-1.95508,5.74512c0,2.44678,0.67188,4.42578,1.87109,5.63672
			c0.2041,0.2041,0.2041,0.22803,0.2041,0.26416C9.29785,78.08398,9.23779,78.10791,9.18994,78.10791z"/>
		<path class="st5" d="M12.37012,75.21777c-0.65918,0-0.9834-0.50391-0.9834-1.05566c0-0.04785,0-0.19189,0.06006-0.43164
			l0.86377-3.4541h-0.97168c-0.19189,0-0.2876,0-0.2876-0.12012c0-0.22754,0.10791-0.22754,0.32373-0.22754h1.01953l0.46777-1.8833
			c0.04785-0.17969,0.15576-0.44385,0.45557-0.44385c0.22803,0,0.31201,0.18018,0.31201,0.28809
			c0,0-0.01221,0.13184-0.02441,0.15576l-0.47949,1.8833h0.94727c0.2041,0,0.28809,0,0.28809,0.13184
			c0,0.21582-0.12012,0.21582-0.32373,0.21582h-0.99561l-0.89941,3.58594c-0.04785,0.17969-0.09619,0.45557-0.09619,0.63574
			c0,0.39551,0.16797,0.47949,0.34814,0.47949c0.7793,0,1.24707-1.17529,1.39111-1.54688
			c0.06006-0.13184,0.07178-0.15625,0.20361-0.15625c0.04834,0,0.15625,0,0.15625,0.1084
			C14.14551,73.44238,13.5459,75.21777,12.37012,75.21777z"/>
		<path class="st5" d="M17.56641,76.06934c-0.58789,1.17529-1.57129,2.03857-1.72705,2.03857
			c-0.04785,0-0.10791-0.02393-0.10791-0.0957c0-0.03613,0-0.06006,0.12012-0.16797
			c1.39111-1.41553,1.95459-3.41846,1.95459-5.74512c0-2.44629-0.67139-4.42529-1.87061-5.63672
			c-0.2041-0.2041-0.2041-0.22803-0.2041-0.26367c0-0.07227,0.06006-0.09619,0.10791-0.09619
			c0.13184,0,1.11523,0.77979,1.82275,2.21875c0.67188,1.39111,0.79199,2.87842,0.79199,3.79004
			C18.4541,73.55029,18.17822,74.8457,17.56641,76.06934z"/>
	</g>
	<g>
		<path class="st5" d="M107.01465,67.25391c-0.65967,0.07227-0.94775,0.41992-1.29541,0.99561l-4.1499,6.9082
			c-0.0957,0.15576-0.11963,0.19189-0.27588,0.19189c-0.15576,0-0.17969-0.04785-0.20361-0.26416l-0.71973-7.3999
			c-0.03613-0.34766-0.07178-0.43164-0.64746-0.43164c-0.12012,0-0.22803,0-0.22803-0.12012
			c0-0.22754,0.13184-0.22754,0.2041-0.22754c0.37158,0,0.7793,0.02393,1.16309,0.02393c0.40771,0,0.82764-0.02393,1.22314-0.02393
			c0.06006,0,0.16797,0,0.16797,0.13184c0,0.21582-0.10791,0.21582-0.2876,0.21582
			c-0.73145,0.01221-0.70752,0.33594-0.68359,0.55176l0.62354,6.23633l3.59814-6.03223
			c0.03564-0.06006,0.13184-0.22803,0.13184-0.37207c0-0.34766-0.37158-0.37158-0.44385-0.38379
			c-0.06006,0-0.15576-0.01172-0.15576-0.12012c0-0.22754,0.13184-0.22754,0.20361-0.22754
			c0.31201,0,0.65967,0.02393,0.98389,0.02393c0.27588,0,0.59961-0.02393,0.86328-0.02393c0,0,0.14404,0,0.14404,0.11963
			C107.23047,67.22998,107.13428,67.24219,107.01465,67.25391z"/>
		<path class="st5" d="M109.51367,78.10791c-0.13184,0-1.11572-0.7793-1.82324-2.21875
			c-0.62354-1.2832-0.7915-2.71045-0.7915-3.77783c0-1.4751,0.27588-2.7583,0.8877-3.96973
			c0.5874-1.17529,1.5708-2.03906,1.72705-2.03906c0.04785,0,0.10791,0.02393,0.10791,0.09619c0,0.03564,0,0.05957-0.12012,0.16748
			c-1.39111,1.41553-1.95459,3.41846-1.95459,5.74512c0,2.44678,0.67139,4.42578,1.87061,5.63672
			c0.2041,0.2041,0.2041,0.22803,0.2041,0.26416C109.62158,78.08398,109.56152,78.10791,109.51367,78.10791z"/>
		<path class="st5" d="M111.49414,75.21777c-0.82715,0-1.51074-0.41992-1.51074-1.15137c0-0.65967,0.46777-0.70801,0.56348-0.70801
			c0.15576,0,0.37207,0.09619,0.37207,0.34814c0,0,0,0.51563-0.57617,0.53955c0.13232,0.56348,0.73193,0.73145,1.16357,0.73145
			c1.31934,0,1.60693-1.05518,1.60693-1.37891c0-0.65967-0.61133-0.80371-0.91113-0.86377
			c-0.51563-0.11963-0.74365-0.17969-0.94775-0.37158c-0.10791-0.12012-0.33545-0.37207-0.33545-0.81543
			c0-0.51611,0.41943-1.73926,1.85889-1.73926c0.76758,0,1.24707,0.45557,1.24707,1.00732
			c0,0.40771-0.20361,0.62354-0.47949,0.62354c-0.24023,0-0.32373-0.16748-0.32373-0.2998
			c0-0.04785,0.02393-0.40771,0.45557-0.45557c-0.08398-0.38379-0.43164-0.63574-0.92334-0.63574
			c-0.97168,0-1.23535,0.81543-1.23535,1.12744c0,0.53955,0.43164,0.63574,0.75537,0.70752
			c0.57568,0.13184,1.42725,0.32373,1.42725,1.35547C113.70117,73.88623,113.17334,75.21777,111.49414,75.21777z"/>
		<path class="st5" d="M116.39063,76.06934c-0.58789,1.17529-1.57129,2.03857-1.72705,2.03857
			c-0.04785,0-0.10791-0.02393-0.10791-0.0957c0-0.03613,0-0.06006,0.12012-0.16797
			c1.39111-1.41553,1.95459-3.41846,1.95459-5.74512c0-2.44629-0.67139-4.42529-1.87061-5.63672
			c-0.2041-0.2041-0.2041-0.22803-0.2041-0.26367c0-0.07227,0.06006-0.09619,0.10791-0.09619
			c0.13184,0,1.11523,0.77979,1.82275,2.21875c0.67188,1.39111,0.79199,2.87842,0.79199,3.79004
			C117.27832,73.55029,117.00244,74.8457,116.39063,76.06934z"/>
	</g>
	<g>
		<path class="st5" d="M208.01465,67.25391c-0.65918,0.07227-0.94824,0.41992-1.2959,0.99561l-4.14941,6.9082
			c-0.0957,0.15576-0.12012,0.19189-0.27637,0.19189c-0.15527,0-0.17969-0.04785-0.20313-0.26416l-0.71973-7.3999
			c-0.03613-0.34766-0.07129-0.43164-0.64746-0.43164c-0.12012,0-0.22852,0-0.22852-0.12012
			c0-0.22754,0.13281-0.22754,0.20508-0.22754c0.37109,0,0.7793,0.02393,1.16211,0.02393c0.4082,0,0.82813-0.02393,1.22363-0.02393
			c0.05957,0,0.16797,0,0.16797,0.13184c0,0.21582-0.1084,0.21582-0.28809,0.21582
			c-0.73047,0.01221-0.70703,0.33594-0.68359,0.55176l0.62402,6.23633l3.59863-6.03223
			c0.03516-0.06006,0.13086-0.22803,0.13086-0.37207c0-0.34766-0.37109-0.37158-0.44336-0.38379
			c-0.06055,0-0.15625-0.01172-0.15625-0.12012c0-0.22754,0.13281-0.22754,0.2041-0.22754c0.31152,0,0.65918,0.02393,0.9834,0.02393
			c0.27637,0,0.59961-0.02393,0.86328-0.02393c0,0,0.14453,0,0.14453,0.11963
			C208.23047,67.22998,208.13477,67.24219,208.01465,67.25391z"/>
		<path class="st5" d="M210.51367,78.10791c-0.13184,0-1.11523-0.7793-1.82324-2.21875
			c-0.62402-1.2832-0.79199-2.71045-0.79199-3.77783c0-1.4751,0.27637-2.7583,0.88867-3.96973
			c0.58691-1.17529,1.57031-2.03906,1.72656-2.03906c0.04785,0,0.10742,0.02393,0.10742,0.09619
			c0,0.03564,0,0.05957-0.11914,0.16748c-1.3916,1.41553-1.95508,3.41846-1.95508,5.74512
			c0,2.44678,0.67188,4.42578,1.87109,5.63672c0.20313,0.2041,0.20313,0.22803,0.20313,0.26416
			C210.62109,78.08398,210.56152,78.10791,210.51367,78.10791z"/>
		<path class="st5" d="M212.49414,75.21777c-0.82715,0-1.51074-0.41992-1.51074-1.15137c0-0.65967,0.46777-0.70801,0.56348-0.70801
			c0.15625,0,0.37207,0.09619,0.37207,0.34814c0,0,0,0.51563-0.57617,0.53955c0.13184,0.56348,0.73145,0.73145,1.16309,0.73145
			c1.32031,0,1.60742-1.05518,1.60742-1.37891c0-0.65967-0.61133-0.80371-0.91113-0.86377
			c-0.51563-0.11963-0.74316-0.17969-0.94824-0.37158c-0.10742-0.12012-0.33496-0.37207-0.33496-0.81543
			c0-0.51611,0.41895-1.73926,1.8584-1.73926c0.76758,0,1.24805,0.45557,1.24805,1.00732c0,0.40771-0.2041,0.62354-0.48047,0.62354
			c-0.24023,0-0.32324-0.16748-0.32324-0.2998c0-0.04785,0.02441-0.40771,0.45605-0.45557
			c-0.08398-0.38379-0.43164-0.63574-0.92383-0.63574c-0.97168,0-1.23535,0.81543-1.23535,1.12744
			c0,0.53955,0.43164,0.63574,0.75488,0.70752c0.57617,0.13184,1.42773,0.32373,1.42773,1.35547
			C214.70117,73.88623,214.17383,75.21777,212.49414,75.21777z"/>
		<path class="st5" d="M217.39063,76.06934c-0.58789,1.17529-1.57129,2.03857-1.72656,2.03857
			c-0.04883,0-0.1084-0.02393-0.1084-0.0957c0-0.03613,0-0.06006,0.12012-0.16797c1.39063-1.41553,1.95508-3.41846,1.95508-5.74512
			c0-2.44629-0.67188-4.42529-1.87109-5.63672c-0.2041-0.2041-0.2041-0.22803-0.2041-0.26367
			c0-0.07227,0.05957-0.09619,0.1084-0.09619c0.13086,0,1.11523,0.77979,1.82227,2.21875
			c0.67188,1.39111,0.79199,2.87842,0.79199,3.79004C218.27832,73.55029,218.00195,74.8457,217.39063,76.06934z"/>
	</g>
	<g>
		<path class="st5" d="M21.38672,60.21777c-0.396,0-0.86377-0.25195-0.86377-0.94775c0-0.10791,0-0.26367,0.09619-0.52783
			l0.95947-2.60254c0.08398-0.21582,0.15576-0.41943,0.15576-0.73145c0-0.13184,0-0.35986-0.26367-0.35986
			c-0.6958,0-1.00732,1.11572-1.10352,1.49951c-0.04785,0.16748-0.06006,0.20361-0.20361,0.20361
			c-0.06006,0-0.16797,0-0.16797-0.10791c0-0.06006,0.39551-1.83496,1.49902-1.83496c0.46777,0,0.86377,0.32373,0.86377,0.93555
			c0,0.21582-0.02441,0.31152-0.13232,0.61133l-0.70752,1.94336c-0.21582,0.5874-0.38379,1.01904-0.38379,1.33105
			c0,0.28809,0.14404,0.34766,0.27588,0.34766c0.68359,0,0.99561-1.0791,1.10352-1.48682
			c0.04785-0.18018,0.06006-0.21631,0.20361-0.21631c0.04834,0,0.15625,0,0.15625,0.1084
			C22.87402,58.43066,22.49023,60.21777,21.38672,60.21777z M22.49023,53.46533c-0.22803,0-0.47998-0.15576-0.47998-0.47998
			c0-0.34766,0.34814-0.68359,0.70752-0.68359c0.24023,0,0.47998,0.14404,0.47998,0.47998
			C23.19775,53.1416,22.8501,53.46533,22.49023,53.46533z"/>
		<path class="st5" d="M26.38965,63.10791c-0.13184,0-1.11572-0.7793-1.82324-2.21875
			c-0.62354-1.2832-0.7915-2.71045-0.7915-3.77783c0-1.4751,0.27588-2.7583,0.8877-3.96973
			c0.5874-1.17529,1.5708-2.03906,1.72705-2.03906c0.04785,0,0.10791,0.02393,0.10791,0.09619c0,0.03564,0,0.05957-0.12012,0.16748
			c-1.39111,1.41553-1.95459,3.41846-1.95459,5.74512c0,2.44678,0.67139,4.42578,1.87061,5.63672
			c0.2041,0.2041,0.2041,0.22803,0.2041,0.26416C26.49756,63.08398,26.4375,63.10791,26.38965,63.10791z"/>
		<path class="st5" d="M32.08936,59.03027c-0.34814,0.6958-0.94775,1.31934-1.99121,1.31934
			c-0.62354,0-1.45117-0.28809-1.91895-1.19922c-0.43164-0.85156-0.51563-1.72705-0.51563-2.89063
			c0-1.29541,0.12012-2.03906,0.45557-2.79443c0.44385-0.99561,1.29541-1.34326,1.99121-1.34326
			c0.5874,0,1.45117,0.26367,1.94287,1.25928c0.43164,0.91162,0.4917,1.88281,0.4917,2.87842
			C32.54492,56.95557,32.521,58.13086,32.08936,59.03027z M31.47754,53.66895c-0.22803-1.03125-0.92334-1.30713-1.37939-1.30713
			c-0.51563,0-1.12744,0.37207-1.33105,1.17529c-0.19189,0.70801-0.19189,1.59521-0.19189,2.57861
			c0,0.83984,0,1.75098,0.13184,2.4707c0.22803,1.30713,1.00732,1.52344,1.39111,1.52344c0.41992,0,1.17529-0.22803,1.40332-1.54736
			c0.13184-0.73145,0.13184-1.64307,0.13184-2.44678C31.6333,55.30029,31.6333,54.35303,31.47754,53.66895z"/>
		<path class="st5" d="M35.54639,61.06934c-0.58789,1.17529-1.57129,2.03857-1.72705,2.03857
			c-0.04785,0-0.10791-0.02393-0.10791-0.0957c0-0.03613,0-0.06006,0.12012-0.16797
			c1.39111-1.41553,1.95459-3.41846,1.95459-5.74512c0-2.44629-0.67139-4.42529-1.87109-5.63672
			c-0.20361-0.2041-0.20361-0.22803-0.20361-0.26367c0-0.07227,0.06006-0.09619,0.10791-0.09619
			c0.13184,0,1.11523,0.77979,1.82324,2.21875c0.67139,1.39111,0.7915,2.87842,0.7915,3.79004
			C36.43408,58.55029,36.1582,59.8457,35.54639,61.06934z"/>
	</g>
	<g>
		<polyline class="st3" points="28.92188,65.76074 28.92188,79.76074 25.92188,76.76074 		"/>
		<line class="st6" x1="28.92188" y1="79.76074" x2="31.92188" y2="76.76074"/>
	</g>
	<g>
		<path class="st5" d="M53.9873,76.87109c-0.07227,0.2041-0.08398,0.2041-0.33594,0.2041h-4.95313
			c-0.19189,0-0.28809,0-0.28809-0.12012c0-0.22754,0.10791-0.22754,0.32373-0.22754c0.73193,0,0.80371-0.09619,0.91162-0.51563
			l1.64307-6.6084c0.02393-0.07227,0.02393-0.1084,0.02393-0.18018c0-0.19189-0.33594-0.19189-0.63574-0.19189
			c-0.22754,0-0.31152,0-0.31152-0.12012c0-0.22754,0.13184-0.22754,0.22754-0.22754c0.45605,0,0.93555,0.02393,1.40332,0.02393
			c0.47998,0,0.9834-0.02393,1.46338-0.02393c0.0957,0,0.19189,0,0.19189,0.13184c0,0.21582-0.12012,0.21582-0.32373,0.21582
			h-0.08398c-0.91162,0-0.99561,0.10791-1.10352,0.55176l-1.63086,6.52441c-0.02441,0.08398-0.04834,0.17969-0.04834,0.27588
			c0,0.13184,0.01221,0.14404,0.35986,0.14404h0.9834c1.85889,0,2.375-1.42725,2.72266-2.41064
			c0.10791-0.2998,0.12012-0.31201,0.25195-0.31201c0.08398,0,0.15576,0.03613,0.15576,0.12012
			c0,0.03564-0.02393,0.10791-0.03613,0.14355L53.9873,76.87109z"/>
	</g>
	<g>
		<path class="st5" d="M150.01758,51.19531c-0.82764,0-1.51123-0.41992-1.51123-1.15137c0-0.65967,0.46777-0.70801,0.56348-0.70801
			c0.15576,0,0.37158,0.09619,0.37158,0.34814c0,0,0,0.51563-0.5752,0.53955c0.13184,0.56348,0.73145,0.73145,1.16309,0.73145
			c1.31934,0,1.60693-1.05518,1.60693-1.37891c0-0.65967-0.61133-0.80371-0.91113-0.86377
			c-0.51611-0.11963-0.74365-0.17969-0.94775-0.37158c-0.10791-0.12012-0.33594-0.37207-0.33594-0.81543
			c0-0.51611,0.41992-1.73926,1.85938-1.73926c0.76758,0,1.24707,0.45557,1.24707,1.00732
			c0,0.40771-0.20361,0.62354-0.47949,0.62354c-0.24023,0-0.32422-0.16748-0.32422-0.2998
			c0-0.04785,0.02441-0.40771,0.45605-0.45557c-0.08398-0.38379-0.43164-0.63574-0.92334-0.63574
			c-0.97168,0-1.23535,0.81543-1.23535,1.12744c0,0.53955,0.43164,0.63574,0.75537,0.70752
			c0.57568,0.13184,1.42725,0.32373,1.42725,1.35547C152.22412,49.86377,151.69629,51.19531,150.01758,51.19531z"/>
		<path class="st5" d="M158.78711,50.87109c-0.07227,0.2041-0.08398,0.2041-0.33594,0.2041h-4.95313
			c-0.19189,0-0.28809,0-0.28809-0.12012c0-0.22754,0.10791-0.22754,0.32373-0.22754c0.73193,0,0.80371-0.09619,0.91162-0.51563
			l1.64307-6.6084c0.02393-0.07227,0.02393-0.1084,0.02393-0.18018c0-0.19189-0.33594-0.19189-0.63574-0.19189
			c-0.22754,0-0.31152,0-0.31152-0.12012c0-0.22754,0.13184-0.22754,0.22754-0.22754c0.45605,0,0.93555,0.02393,1.40332,0.02393
			c0.47998,0,0.9834-0.02393,1.46338-0.02393c0.0957,0,0.19189,0,0.19189,0.13184c0,0.21582-0.12012,0.21582-0.32373,0.21582
			h-0.08398c-0.91162,0-0.99561,0.10791-1.10352,0.55176l-1.63086,6.52441c-0.02441,0.08398-0.04834,0.17969-0.04834,0.27588
			c0,0.13184,0.01221,0.14404,0.35986,0.14404h0.9834c1.85889,0,2.375-1.42725,2.72266-2.41064
			c0.10791-0.2998,0.12012-0.31201,0.25195-0.31201c0.08398,0,0.15576,0.03613,0.15576,0.12012
			c0,0.03564-0.02393,0.10791-0.03613,0.14355L158.78711,50.87109z"/>
	</g>
	<g>
		<path class="st5" d="M250.01758,77.19531c-0.82813,0-1.51172-0.41992-1.51172-1.15137c0-0.65967,0.46875-0.70801,0.56445-0.70801
			c0.15527,0,0.37109,0.09619,0.37109,0.34814c0,0,0,0.51563-0.5752,0.53955c0.13184,0.56348,0.73145,0.73145,1.16309,0.73145
			c1.31934,0,1.60742-1.05518,1.60742-1.37891c0-0.65967-0.61133-0.80371-0.91211-0.86377
			c-0.51563-0.11963-0.74316-0.17969-0.94727-0.37158c-0.10742-0.12012-0.33594-0.37207-0.33594-0.81543
			c0-0.51611,0.41992-1.73926,1.85938-1.73926c0.76758,0,1.24707,0.45557,1.24707,1.00732c0,0.40771-0.2041,0.62354-0.47949,0.62354
			c-0.24023,0-0.32422-0.16748-0.32422-0.2998c0-0.04785,0.02441-0.40771,0.45605-0.45557
			c-0.08398-0.38379-0.43164-0.63574-0.92285-0.63574c-0.97266,0-1.23633,0.81543-1.23633,1.12744
			c0,0.53955,0.43164,0.63574,0.75586,0.70752c0.57617,0.13184,1.42773,0.32373,1.42773,1.35547
			C252.22461,75.86377,251.69629,77.19531,250.01758,77.19531z"/>
		<path class="st5" d="M258.78711,76.87109c-0.07227,0.2041-0.08398,0.2041-0.33594,0.2041h-4.95313
			c-0.19141,0-0.28809,0-0.28809-0.12012c0-0.22754,0.1084-0.22754,0.32324-0.22754c0.73242,0,0.80469-0.09619,0.91211-0.51563
			l1.64258-6.6084c0.02441-0.07227,0.02441-0.1084,0.02441-0.18018c0-0.19189-0.33594-0.19189-0.63574-0.19189
			c-0.22754,0-0.31152,0-0.31152-0.12012c0-0.22754,0.13184-0.22754,0.22754-0.22754c0.45605,0,0.93555,0.02393,1.40332,0.02393
			c0.47949,0,0.9834-0.02393,1.46387-0.02393c0.0957,0,0.19141,0,0.19141,0.13184c0,0.21582-0.12012,0.21582-0.32422,0.21582
			h-0.08398c-0.91113,0-0.99512,0.10791-1.10352,0.55176l-1.63086,6.52441c-0.02344,0.08398-0.04785,0.17969-0.04785,0.27588
			c0,0.13184,0.0127,0.14404,0.36035,0.14404h0.98242c1.85938,0,2.375-1.42725,2.72266-2.41064
			c0.1084-0.2998,0.12109-0.31201,0.25195-0.31201c0.08398,0,0.15625,0.03613,0.15625,0.12012
			c0,0.03564-0.02344,0.10791-0.03613,0.14355L258.78711,76.87109z"/>
	</g>
	<g>
		<line class="st7" x1="306.92188" y1="72.4134" x2="320.92188" y2="72.4134"/>
	</g>
	<g>
		<path class="st5" d="M162.36865,100.89355c-0.07227,0.2041-0.08398,0.2041-0.33594,0.2041h-4.95313
			c-0.19189,0-0.28809,0-0.28809-0.12012c0-0.22754,0.10791-0.22754,0.32373-0.22754c0.73193,0,0.80371-0.09619,0.91162-0.51563
			l1.64307-6.6084c0.02393-0.07227,0.02393-0.1084,0.02393-0.18018c0-0.19189-0.33545-0.19189-0.63574-0.19189
			c-0.22754,0-0.31152,0-0.31152-0.12012c0-0.22754,0.13184-0.22754,0.22803-0.22754c0.45557,0,0.93506,0.02393,1.40283,0.02393
			c0.47998,0,0.9834-0.02393,1.46338-0.02393c0.0957,0,0.19189,0,0.19189,0.13184c0,0.21582-0.12012,0.21582-0.32373,0.21582
			H161.625c-0.91162,0-0.99561,0.10791-1.10352,0.55176l-1.63086,6.52441c-0.02441,0.08398-0.04834,0.17969-0.04834,0.27588
			c0,0.13184,0.01221,0.14404,0.35986,0.14404h0.9834c1.85938,0,2.375-1.42725,2.72266-2.41064
			c0.10791-0.2998,0.12012-0.31201,0.25195-0.31201c0.08398,0,0.15576,0.03613,0.15576,0.12012
			c0,0.03564-0.02393,0.10791-0.03613,0.14355L162.36865,100.89355z"/>
		<path class="st5" d="M165.74268,101.21777c-0.396,0-0.86377-0.25195-0.86377-0.94775c0-0.10791,0-0.26367,0.09619-0.52783
			l0.95947-2.60254c0.08398-0.21582,0.15576-0.41943,0.15576-0.73145c0-0.13184,0-0.35986-0.26367-0.35986
			c-0.6958,0-1.00732,1.11572-1.10352,1.49951c-0.04785,0.16748-0.06006,0.20361-0.20361,0.20361
			c-0.06006,0-0.16797,0-0.16797-0.10791c0-0.06006,0.39551-1.83496,1.49902-1.83496c0.46777,0,0.86328,0.32373,0.86328,0.93555
			c0,0.21582-0.02393,0.31152-0.13184,0.61133l-0.70752,1.94336c-0.21582,0.5874-0.38379,1.01904-0.38379,1.33105
			c0,0.28809,0.14404,0.34766,0.27588,0.34766c0.68359,0,0.99561-1.0791,1.10352-1.48682
			c0.04785-0.18018,0.06006-0.21631,0.20361-0.21631c0.04834,0,0.15625,0,0.15625,0.1084
			C167.22998,99.43066,166.84619,101.21777,165.74268,101.21777z M166.84619,94.46533c-0.22803,0-0.47998-0.15576-0.47998-0.47998
			c0-0.34766,0.34766-0.68359,0.70752-0.68359c0.24023,0,0.47998,0.14404,0.47998,0.47998
			C167.55371,94.1416,167.20605,94.46533,166.84619,94.46533z"/>
		<path class="st5" d="M170.74561,104.10791c-0.13184,0-1.11572-0.7793-1.82324-2.21875
			c-0.62354-1.2832-0.7915-2.71045-0.7915-3.77783c0-1.4751,0.27588-2.7583,0.8877-3.96973
			c0.5874-1.17529,1.5708-2.03906,1.72705-2.03906c0.04785,0,0.10791,0.02393,0.10791,0.09619c0,0.03564,0,0.05957-0.12012,0.16748
			c-1.39111,1.41553-1.95508,3.41846-1.95508,5.74512c0,2.44678,0.67188,4.42578,1.87109,5.63672
			c0.2041,0.2041,0.2041,0.22803,0.2041,0.26416C170.85352,104.08398,170.79346,104.10791,170.74561,104.10791z"/>
		<path class="st5" d="M176.44531,100.03027c-0.34814,0.6958-0.94775,1.31934-1.99121,1.31934
			c-0.62354,0-1.45117-0.28809-1.91895-1.19922c-0.43164-0.85156-0.51563-1.72705-0.51563-2.89063
			c0-1.29541,0.12012-2.03906,0.45557-2.79443c0.44385-0.99561,1.29541-1.34326,1.99121-1.34326
			c0.5874,0,1.45117,0.26367,1.94287,1.25928c0.43164,0.91162,0.4917,1.88281,0.4917,2.87842
			C176.90088,97.95557,176.87695,99.13086,176.44531,100.03027z M175.8335,94.66895
			c-0.22803-1.03125-0.92334-1.30713-1.37939-1.30713c-0.51563,0-1.12744,0.37207-1.33105,1.17529
			c-0.19189,0.70801-0.19189,1.59521-0.19189,2.57861c0,0.83984,0,1.75098,0.13184,2.4707
			c0.22803,1.30713,1.00732,1.52344,1.39111,1.52344c0.41992,0,1.17529-0.22803,1.40332-1.54736
			c0.13184-0.73145,0.13184-1.64307,0.13184-2.44678C175.98926,96.30029,175.98926,95.35303,175.8335,94.66895z"/>
		<path class="st5" d="M179.90234,102.06934c-0.58789,1.17529-1.57129,2.03857-1.72705,2.03857
			c-0.04785,0-0.10791-0.02393-0.10791-0.0957c0-0.03613,0-0.06006,0.12012-0.16797
			c1.39111-1.41553,1.95459-3.41846,1.95459-5.74512c0-2.44629-0.67139-4.42529-1.87061-5.63672
			c-0.2041-0.2041-0.2041-0.22803-0.2041-0.26367c0-0.07227,0.06006-0.09619,0.10791-0.09619
			c0.13184,0,1.11523,0.77979,1.82275,2.21875c0.67188,1.39111,0.79199,2.87842,0.79199,3.79004
			C180.79004,99.55029,180.51416,100.8457,179.90234,102.06934z"/>
	</g>
	<g>
		<path class="st5" d="M306.99707,68.21777c-0.39551,0-0.86426-0.25195-0.86426-0.94775c0-0.10791,0-0.26367,0.09668-0.52783
			l0.95996-2.60254c0.08398-0.21582,0.15527-0.41943,0.15527-0.73145c0-0.13184,0-0.35986-0.26367-0.35986
			c-0.69629,0-1.00684,1.11572-1.10352,1.49951c-0.04785,0.16748-0.05957,0.20361-0.2041,0.20361
			c-0.05957,0-0.16797,0-0.16797-0.10791c0-0.06006,0.39648-1.83496,1.5-1.83496c0.4668,0,0.86328,0.32373,0.86328,0.93555
			c0,0.21582-0.02441,0.31152-0.13281,0.61133l-0.70703,1.94336c-0.21582,0.5874-0.38379,1.01904-0.38379,1.33105
			c0,0.28809,0.14355,0.34766,0.27637,0.34766c0.68359,0,0.99512-1.0791,1.10352-1.48682
			c0.04688-0.18018,0.05957-0.21631,0.20313-0.21631c0.04883,0,0.15625,0,0.15625,0.1084
			C308.48438,66.43066,308.10059,68.21777,306.99707,68.21777z M308.10059,61.46533c-0.22754,0-0.47949-0.15576-0.47949-0.47998
			c0-0.34766,0.34766-0.68359,0.70703-0.68359c0.24023,0,0.48047,0.14404,0.48047,0.47998
			C308.80859,61.1416,308.46094,61.46533,308.10059,61.46533z"/>
		<path class="st5" d="M312,71.10791c-0.13184,0-1.11523-0.7793-1.82324-2.21875c-0.62402-1.2832-0.79199-2.71045-0.79199-3.77783
			c0-1.4751,0.27637-2.7583,0.88867-3.96973c0.58691-1.17529,1.57031-2.03906,1.72656-2.03906
			c0.04785,0,0.10742,0.02393,0.10742,0.09619c0,0.03564,0,0.05957-0.11914,0.16748
			c-1.3916,1.41553-1.95508,3.41846-1.95508,5.74512c0,2.44678,0.67188,4.42578,1.87109,5.63672
			c0.20313,0.2041,0.20313,0.22803,0.20313,0.26416C312.10742,71.08398,312.04785,71.10791,312,71.10791z"/>
		<path class="st5" d="M317.69922,67.03027c-0.34766,0.6958-0.94727,1.31934-1.99023,1.31934
			c-0.62402,0-1.45117-0.28809-1.91992-1.19922c-0.43164-0.85156-0.51563-1.72705-0.51563-2.89063
			c0-1.29541,0.12109-2.03906,0.45605-2.79443c0.44434-0.99561,1.2959-1.34326,1.99121-1.34326
			c0.58789,0,1.45117,0.26367,1.94336,1.25928c0.43164,0.91162,0.49121,1.88281,0.49121,2.87842
			C318.15527,64.95557,318.13086,66.13086,317.69922,67.03027z M317.08789,61.66895
			c-0.22852-1.03125-0.92383-1.30713-1.37891-1.30713c-0.51563,0-1.12793,0.37207-1.33203,1.17529
			c-0.19141,0.70801-0.19141,1.59521-0.19141,2.57861c0,0.83984,0,1.75098,0.13184,2.4707
			c0.22754,1.30713,1.00684,1.52344,1.3916,1.52344c0.41992,0,1.1748-0.22803,1.40234-1.54736
			c0.13281-0.73145,0.13281-1.64307,0.13281-2.44678C317.24414,63.30029,317.24414,62.35303,317.08789,61.66895z"/>
		<path class="st5" d="M321.15625,69.06934c-0.58789,1.17529-1.57031,2.03857-1.72656,2.03857
			c-0.04785,0-0.10742-0.02393-0.10742-0.0957c0-0.03613,0-0.06006,0.11914-0.16797c1.3916-1.41553,1.95508-3.41846,1.95508-5.74512
			c0-2.44629-0.67188-4.42529-1.87109-5.63672c-0.20313-0.2041-0.20313-0.22803-0.20313-0.26367
			c0-0.07227,0.05957-0.09619,0.10742-0.09619c0.13184,0,1.11523,0.77979,1.82324,2.21875
			c0.6709,1.39111,0.79199,2.87842,0.79199,3.79004C322.04492,66.55029,321.76855,67.8457,321.15625,69.06934z"/>
	</g>
	<g>
		<path class="st5" d="M313.85449,81.06055c-0.82715,0-1.51074-0.41992-1.51074-1.15137c0-0.65967,0.46777-0.70801,0.56348-0.70801
			c0.15625,0,0.37207,0.09619,0.37207,0.34814c0,0,0,0.51563-0.57617,0.53955c0.13184,0.56348,0.73145,0.73145,1.16406,0.73145
			c1.31836,0,1.60645-1.05518,1.60645-1.37891c0-0.65967-0.61133-0.80371-0.91113-0.86377
			c-0.51563-0.11963-0.74414-0.17969-0.94727-0.37158c-0.1084-0.12012-0.33594-0.37207-0.33594-0.81543
			c0-0.51611,0.41992-1.73926,1.8584-1.73926c0.76758,0,1.24805,0.45557,1.24805,1.00732c0,0.40771-0.2041,0.62354-0.48047,0.62354
			c-0.23926,0-0.32324-0.16748-0.32324-0.2998c0-0.04785,0.02344-0.40771,0.45508-0.45557
			c-0.08398-0.38379-0.43164-0.63574-0.92285-0.63574c-0.97168,0-1.23535,0.81543-1.23535,1.12744
			c0,0.53955,0.43164,0.63574,0.75586,0.70752c0.5752,0.13184,1.42676,0.32373,1.42676,1.35547
			C316.06152,79.729,315.53418,81.06055,313.85449,81.06055z"/>
	</g>
	<g>
	</g>
	<g>
	</g>
	<g>
	</g>
	<g>
	</g>
	<g>
	</g>
	<g>
	</g>
	<g>
	</g>
	<g>
	</g>
	<g>
	</g>
	<g>
	</g>
	<g>
	</g>
	<g>
	</g>
</g>
</svg>
