<svg id="Layer_1" data-name="Layer 1" xmlns="http://www.w3.org/2000/svg" viewBox="0 0 451.07813 99.10352">
  <defs>
    <style>
      .cls-1, .cls-2, .cls-3, .cls-4 {
        fill: none;
        stroke: #000;
        stroke-width: 2px;
      }

      .cls-1, .cls-2 {
        stroke-linecap: round;
      }

      .cls-1 {
        stroke-linejoin: round;
      }

      .cls-4 {
        stroke-linecap: square;
      }
    </style>
  </defs>
  <title>InductorCapacitorFrequencyResponse</title>
  <g>
    <g>
      <path class="cls-1" d="M24.35645,100h7.16666a4.45834,4.45834,0,0,1,8.91667,0" transform="translate(-23.35645 -57.86475)"/>
      <path class="cls-2" d="M40.43978,100a4.45834,4.45834,0,0,1,8.91667,0" transform="translate(-23.35645 -57.86475)"/>
      <path class="cls-2" d="M49.35645,100a4.45833,4.45833,0,0,1,8.91666,0" transform="translate(-23.35645 -57.86475)"/>
      <path class="cls-1" d="M58.27311,100a4.45834,4.45834,0,0,1,8.91667,0h7.16667" transform="translate(-23.35645 -57.86475)"/>
    </g>
    <path d="M53.03027,85.51465l-.91113,2.57861c-.07226.20362-.084.21582-.34766.21582H46.6377c-.19141,0-.29981,0-.29981-.144,0-.22754.13184-.22754.32422-.22754.81543,0,.88769-.09619.9834-.50391l1.61914-6.51269a.73455.73455,0,0,0,.04785-.22754c0-.2041-.32422-.2041-.69531-.2041-.22852,0-.32422,0-.32422-.14356,0-.228.15625-.228.22754-.228.48047,0,.9834.03564,1.47558.03564.55176,0,1.11524-.03564,1.65528-.03564.04785,0,.17968,0,.17968.144,0,.22754-.13183.22754-.33593.22754H51.375c-.9707,0-1.043.12012-1.15137.54l-1.63086,6.52441a2.07819,2.07819,0,0,0-.04785.26367c0,.084,0,.12012.37207.12012h.97071c1.87109,0,2.38671-1.3916,2.7705-2.459.084-.22754.09668-.26368.24024-.26368.03613,0,.17969,0,.17969.14405Z" transform="translate(-23.35645 -57.86475)"/>
    <g>
      <line class="cls-3" x1="65" y1="42.13525" x2="88.4817" y2="42.13525"/>
      <polygon points="83.843 47.861 82.888 46.836 87.944 42.137 82.888 37.436 83.843 36.411 90 42.137 83.843 47.861"/>
    </g>
    <path id="path1132" class="cls-1" d="M139.35645,75h14" transform="translate(-23.35645 -57.86475)"/>
    <circle class="cls-1" cx="133" cy="17.13525" r="3"/>
    <path id="path1132-2" data-name="path1132" class="cls-1" d="M209.35645,75h-14" transform="translate(-23.35645 -57.86475)"/>
    <circle class="cls-1" cx="169" cy="17.13525" r="3"/>
    <path id="path1132-3" data-name="path1132" class="cls-1" d="M139.35645,125h14" transform="translate(-23.35645 -57.86475)"/>
    <circle class="cls-1" cx="133" cy="67.13525" r="3"/>
    <path id="path1132-4" data-name="path1132" class="cls-1" d="M209.35645,125h-14" transform="translate(-23.35645 -57.86475)"/>
    <circle class="cls-1" cx="169" cy="67.13525" r="3"/>
    <line class="cls-1" x1="136" y1="17.13525" x2="166" y2="17.13525"/>
    <g>
      <path d="M126.69141,66.78369a3.00589,3.00589,0,0,1-2.207-.83935c-.39551.63574-.43165.68359-.43165.68359-.084.13184-.0957.15576-.17968.15576-.13282,0-.13282-.084-.13282-.2876V64.09717c0-.21582,0-.29981.15625-.29981a.12571.12571,0,0,1,.14454.12012,2.427,2.427,0,0,0,.74316,1.84717,2.89313,2.89313,0,0,0,1.89453.64746,1.64457,1.64457,0,0,0,1.60742-1.71533,1.75056,1.75056,0,0,0-.37207-1.103,1.59246,1.59246,0,0,0-1.01953-.61182c-.83887-.2041-1.45117-.34765-1.583-.3955a2.32359,2.32359,0,0,1,.76758-4.522,2.4661,2.4661,0,0,1,1.919.83985l.41992-.6836c.084-.144.0957-.15625.17969-.15625.13183,0,.13183.084.13183.28809v2.41064c0,.228,0,.28809-.15527.28809-.13184,0-.13184-.07227-.14453-.144-.07129-.54-.335-2.50684-2.33789-2.50684a1.5676,1.5676,0,0,0-.37207,3.09424l1.53515.37207a2.453,2.453,0,0,1,1.79883,2.42236A2.40388,2.40388,0,0,1,126.69141,66.78369Z" transform="translate(-23.35645 -57.86475)"/>
      <path d="M134.81445,66.48389,133.459,66.52v-.37158c.80372,0,.93555,0,.93555-.54V62.814c0-.68359-.13183-1.33105-.88769-1.33105a1.75144,1.75144,0,0,0-1.61914,1.919V65.6084c0,.54.13183.54.93554.54V66.52l-1.34277-.03613L130.125,66.52v-.37158c.80371,0,.93555,0,.93555-.54V59.37207c0-.58789-.09668-.67187-.93555-.67187v-.37159l1.72656-.13183v4.17334h.0127a1.88263,1.88263,0,0,1,1.72656-1.15137,1.60183,1.60183,0,0,1,1.25977.44385c.37109.43164.37109.80371.37109,1.835v2.291c.0127.35987.3125.35987.93555.35987V66.52Z" transform="translate(-23.35645 -57.86475)"/>
      <path d="M139.39941,66.65186a2.6769,2.6769,0,0,1-2.65039-2.69825,2.66074,2.66074,0,1,1,5.31348,0A2.67248,2.67248,0,0,1,139.39941,66.65186Zm1.35547-4.46143a1.57121,1.57121,0,0,0-1.35547-.77979,1.61006,1.61006,0,0,0-1.36718.80372,3.43615,3.43615,0,0,0-.28809,1.64306,3.56794,3.56794,0,0,0,.29981,1.69092,1.568,1.568,0,0,0,1.36816.80371,1.54587,1.54587,0,0,0,1.39062-.88769,3.64409,3.64409,0,0,0,.26368-1.60694A3.29451,3.29451,0,0,0,140.75488,62.19043Z" transform="translate(-23.35645 -57.86475)"/>
      <path d="M146.26367,62.478a.497.497,0,0,1-.5166-.51563.52023.52023,0,0,1,.27637-.46777.3109.3109,0,0,0-.13184-.01172c-.91211,0-1.415,1.06738-1.415,2.25488v1.84668c0,.43164.02344.564.91114.564h.25195V66.52c-.47949-.03613-1.04395-.03613-1.52344-.03613L142.749,66.52v-.37158c.80371,0,.93555,0,.93555-.54V62.394c0-.5874-.0957-.67138-.93555-.67138v-.37159l1.667-.13232v1.31934a1.67971,1.67971,0,0,1,1.47558-1.31934.81892.81892,0,0,1,.8877.73193A.50365.50365,0,0,1,146.26367,62.478Z" transform="translate(-23.35645 -57.86475)"/>
      <path d="M149.91113,66.65186a1.451,1.451,0,0,1-1.54687-1.61915v-3.31h-1.01953V61.459c1.17578-.04834,1.53515-1.33154,1.54687-2.31494h.29981v2.207h1.71582v.37159h-1.71582v3.334c0,.2041,0,1.29541.80371,1.29541.44433,0,.80371-.45557.80371-1.34326v-.65967h.2998v.68359C151.09863,65.80029,150.7627,66.65186,149.91113,66.65186Z" transform="translate(-23.35645 -57.86475)"/>
      <path d="M158.76758,66.65186a2.655,2.655,0,0,1-2.5791-2.72266A2.68789,2.68789,0,0,1,158.791,61.147c.92382,0,1.835.46778,1.835,1.28321a.55183.55183,0,1,1-1.10352.0122.54173.54173,0,0,1,.56445-.55175,1.9571,1.9571,0,0,0-1.2832-.44385c-.63574,0-1.61914.5039-1.61914,2.45849,0,1.93116,1.05469,2.44678,1.69043,2.44678a1.56623,1.56623,0,0,0,1.57129-1.25928c.02441-.07177.04785-.12011.15625-.12011.03613,0,.15527,0,.15527.12011A1.973,1.973,0,0,1,158.76758,66.65186Z" transform="translate(-23.35645 -57.86475)"/>
      <path d="M162.82324,66.48389l-1.31836.03613v-.37158c.80274,0,.93457,0,.93457-.54V62.38232c0-.58789-.10742-.65966-.88672-.65966v-.37159l1.67872-.13232v4.40186c0,.46777.04785.52783.83984.52783V66.52C163.66309,66.50781,163.24316,66.48389,162.82324,66.48389Zm-.05957-6.57227a.64822.64822,0,0,1-.63574-.63574.64163.64163,0,1,1,.63574.63574Z" transform="translate(-23.35645 -57.86475)"/>
      <path d="M168.29492,62.478a.497.497,0,0,1-.5166-.51563.52023.52023,0,0,1,.27637-.46777.3109.3109,0,0,0-.13184-.01172c-.91211,0-1.415,1.06738-1.415,2.25488v1.84668c0,.43164.02344.564.91114.564h.25195V66.52c-.47949-.03613-1.04395-.03613-1.52344-.03613l-1.36719.03613v-.37158c.80371,0,.93555,0,.93555-.54V62.394c0-.5874-.0957-.67138-.93555-.67138v-.37159l1.667-.13232v1.31934a1.67971,1.67971,0,0,1,1.47558-1.31934.81892.81892,0,0,1,.8877.73193A.50365.50365,0,0,1,168.29492,62.478Z" transform="translate(-23.35645 -57.86475)"/>
      <path d="M172.13477,66.65186a2.65482,2.65482,0,0,1-2.57813-2.72266,2.6879,2.6879,0,0,1,2.60254-2.78223c.92285,0,1.835.46778,1.835,1.28321a.55182.55182,0,1,1-1.10351.0122.54144.54144,0,0,1,.56347-.55175,1.95565,1.95565,0,0,0-1.2832-.44385c-.63574,0-1.61914.5039-1.61914,2.45849,0,1.93116,1.05566,2.44678,1.6914,2.44678a1.5675,1.5675,0,0,0,1.57129-1.25928c.02344-.07177.04785-.12011.15528-.12011.03613,0,.15625,0,.15625.12011A1.97345,1.97345,0,0,1,172.13477,66.65186Z" transform="translate(-23.35645 -57.86475)"/>
      <path d="M179.166,66.65186V65.57275a1.63689,1.63689,0,0,1-1.54786,1.07911c-1.82226,0-1.82226-1.09131-1.82226-2.02686V62.82617c0-1.06738,0-1.10351-.93555-1.10351v-.37159l1.7627-.13232v3.98193c0,.62354.04785,1.1875,1.05566,1.1875.875,0,1.45117-.81543,1.45117-1.85888V62.394c0-.5874-.0957-.67138-.93554-.67138v-.37159l1.76269-.13232v4.25781c0,.58789.09668.67188.93555.67188V66.52Z" transform="translate(-23.35645 -57.86475)"/>
      <path d="M182.86328,66.48389l-1.31836.03613v-.37158c.80274,0,.93457,0,.93457-.54V62.38232c0-.58789-.10742-.65966-.88672-.65966v-.37159l1.67871-.13232v4.40186c0,.46777.04786.52783.83985.52783V66.52C183.70313,66.50781,183.2832,66.48389,182.86328,66.48389Zm-.05957-6.57227a.64822.64822,0,0,1-.63574-.63574.64163.64163,0,1,1,.63574.63574Z" transform="translate(-23.35645 -57.86475)"/>
      <path d="M187.2793,66.65186a1.45168,1.45168,0,0,1-1.54785-1.61915v-3.31h-1.01856V61.459c1.17481-.04834,1.53516-1.33154,1.54688-2.31494h.2998v2.207h1.71484v.37159h-1.71484v3.334c0,.2041,0,1.29541.80371,1.29541.44336,0,.80371-.45557.80371-1.34326v-.65967h.29981v.68359C188.4668,65.80029,188.13086,66.65186,187.2793,66.65186Z" transform="translate(-23.35645 -57.86475)"/>
      <path d="M197.958,66.5918a1.00387,1.00387,0,0,1-.93555-.9834,1.6581,1.6581,0,0,1-1.57129,1.04346c-.75586,0-1.91894-.29981-1.91894-1.271a1.74815,1.74815,0,0,1,1.19922-1.55957,5.85087,5.85087,0,0,1,2.207-.43164V62.9458a1.35825,1.35825,0,0,0-1.27149-1.53516,1.68424,1.68424,0,0,0-1.29492.55176c.55176.01221.61133.40772.61133.55176a.55182.55182,0,1,1-1.10352-.01172c0-.792.82813-1.35547,1.81153-1.35547a2.28975,2.28975,0,0,1,1.64257.65967,1.77444,1.77444,0,0,1,.43165,1.415v2.39893c0,.06005.04785.5996.44433.5996.13184,0,.43164-.07177.43164-.76757v-.67188h.29981v.67188A1.01788,1.01788,0,0,1,197.958,66.5918Zm-1.01953-2.9502c-1.9795.07178-2.48243,1.06738-2.48243,1.72705a1.03239,1.03239,0,0,0,1.07911,1.01953,1.44049,1.44049,0,0,0,1.40332-1.54736Z" transform="translate(-23.35645 -57.86475)"/>
      <path d="M201.94336,66.65186a1.45129,1.45129,0,0,1-1.54785-1.61915v-3.31H199.376V61.459c1.17578-.04834,1.53515-1.33154,1.54785-2.31494h.2998v2.207h1.71485v.37159h-1.71485v3.334c0,.2041,0,1.29541.80371,1.29541.44336,0,.80274-.45557.80274-1.34326v-.65967h.2998v.68359C203.12988,65.80029,202.79492,66.65186,201.94336,66.65186Z" transform="translate(-23.35645 -57.86475)"/>
      <path d="M212.62109,66.52h-4.38964v-.37158h.28808c.92285,0,.94727-.13233.94727-.564V59.26416c0-.43213-.02442-.564-.94727-.564h-.28808v-.37159h4.38964a3.93544,3.93544,0,0,1,3.66993,4.16162A3.852,3.852,0,0,1,212.62109,66.52Zm1.84668-6.7041a2.58644,2.58644,0,0,0-2.18261-1.11572h-1.19922c-.56348,0-.58789.084-.58789.48v6.48828c0,.396.02441.48.58789.48h1.21094a2.62709,2.62709,0,0,0,2.13476-1.01953,4.11638,4.11638,0,0,0,.66016-2.63868A4.63819,4.63819,0,0,0,214.46777,59.81592Z" transform="translate(-23.35645 -57.86475)"/>
      <path d="M221.8252,66.78369a4.36375,4.36375,0,0,1,0-8.71924,2.939,2.939,0,0,1,2.20605,1.03174l.59961-.88769c.09668-.144.14453-.144.19238-.144.13184,0,.13184.084.13184.28809v2.84228c0,.252,0,.28809-.19141.28809-.168,0-.168-.03613-.19238-.2041-.24024-1.751-1.30762-2.84229-2.61426-2.84229-.73144,0-3.07031.40772-3.07031,3.99366,0,3.57421,2.35058,3.98193,3.082,3.98193a2.71562,2.71562,0,0,0,2.68652-2.69873c.01172-.11963.01172-.1919.14356-.1919.15625,0,.15625.084.15625.20411A3.1361,3.1361,0,0,1,221.8252,66.78369Z" transform="translate(-23.35645 -57.86475)"/>
    </g>
    <g>
      <path d="M136.69141,131.9707a3.60342,3.60342,0,0,1,2.68066,1.17481,4.05575,4.05575,0,0,1,1.13379,2.93262,4.17677,4.17677,0,0,1-1.14258,3.00585,3.81932,3.81932,0,0,1-5.52246.0293,4.18348,4.18348,0,0,1-1.11621-3.01758,4.0199,4.0199,0,0,1,1.28906-3.08789A3.80279,3.80279,0,0,1,136.69141,131.9707Zm-.11133.42774a2.09641,2.09641,0,0,0-1.71094.791,4.47221,4.47221,0,0,0-.80273,2.88282,4.719,4.719,0,0,0,.832,2.99414,2.05592,2.05592,0,0,0,1.6875.79687,2.3058,2.3058,0,0,0,1.84863-.87305,4.25745,4.25745,0,0,0,.72949-2.7539,4.80981,4.80981,0,0,0-.80273-3.041A2.165,2.165,0,0,0,136.58008,132.39844Z" transform="translate(-23.35645 -57.86475)"/>
      <path d="M144.543,140.22949a1.63108,1.63108,0,0,1-1.47559-.83935v2.12256c0,.54.13282.54.93555.54v.37159l-1.35449-.03614-1.34375.03614v-.37159c.80371,0,.93554,0,.93554-.54v-5.6128c0-.52783-.084-.59961-.93554-.59961v-.37158l1.72754-.13232v.7915a2.15977,2.15977,0,0,1,1.67871-.7915,2.62472,2.62472,0,0,1,2.50683,2.71045A2.70274,2.70274,0,0,1,144.543,140.22949Zm.07226-5.1333a1.79988,1.79988,0,0,0-1.54785.95947v2.67481a.62943.62943,0,0,0,.168.50391,1.496,1.496,0,0,0,1.25977.73144c.88769,0,1.72656-1.00732,1.72656-2.459C146.22168,136.15186,145.49023,135.09619,144.61523,135.09619Z" transform="translate(-23.35645 -57.86475)"/>
      <path d="M150.95117,140.22949a2.70794,2.70794,0,0,1-2.63867-2.77051,2.62107,2.62107,0,0,1,2.49512-2.73437,2.12725,2.12725,0,0,1,2.14648,2.35059c0,.25195-.03613.25195-.2998.25195h-3.34668a3.48748,3.48748,0,0,0,.36035,1.79883,1.61465,1.61465,0,0,0,1.35547.80371,1.69019,1.69019,0,0,0,1.61914-1.23535c.02344-.09571.04785-.168.15527-.168a.13934.13934,0,0,1,.15625.144A2.0501,2.0501,0,0,1,150.95117,140.22949Zm-.14355-5.24121c-.40821,0-1.416.29981-1.48731,2.08692h2.8418C152.16211,136.60742,152.043,134.98828,150.80762,134.98828Z" transform="translate(-23.35645 -57.86475)"/>
      <path d="M158.37793,140.06152l-1.35547.03614v-.37159c.80371,0,.93555,0,.93555-.54V136.3916c0-.68359-.13184-1.33105-.88672-1.33105a1.75143,1.75143,0,0,0-1.61914,1.91894V139.186c0,.54.13183.54.93555.54v.37159l-1.34375-.03614-1.35547.03614v-.37159c.80371,0,.93554,0,.93554-.54v-3.21436c0-.5874-.0957-.67139-.93554-.67139v-.37158l1.6914-.13232v1.25927a1.89143,1.89143,0,0,1,1.77539-1.25927,1.59925,1.59925,0,0,1,1.25879.44384c.37207.43165.37207.80372.37207,1.835v2.291c.01172.35986.31153.35986.93555.35986v.37159Z" transform="translate(-23.35645 -57.86475)"/>
      <path d="M166.959,140.22949a2.65481,2.65481,0,0,1-2.57812-2.72265,2.6879,2.6879,0,0,1,2.60254-2.78223c.92383,0,1.835.46777,1.835,1.2832a.55183.55183,0,1,1-1.10352.01221.54146.54146,0,0,1,.56348-.55176,1.95571,1.95571,0,0,0-1.2832-.44385c-.63574,0-1.61914.50391-1.61914,2.4585,0,1.93115,1.05566,2.44678,1.6914,2.44678a1.56687,1.56687,0,0,0,1.57129-1.25928c.02344-.07178.04785-.12012.15528-.12012.03613,0,.15625,0,.15625.12012A1.97345,1.97345,0,0,1,166.959,140.22949Z" transform="translate(-23.35645 -57.86475)"/>
      <path d="M171.01563,140.06152l-1.31934.03614v-.37159c.80371,0,.93555,0,.93555-.54V135.96c0-.58789-.1084-.65967-.8877-.65967v-.37158l1.67969-.13232v4.40185c0,.46778.04785.52783.83887.52783v.37159C171.85547,140.08545,171.43555,140.06152,171.01563,140.06152Zm-.05958-6.57226a.64754.64754,0,0,1-.63574-.63574.641.641,0,0,1,.64746-.63575.64823.64823,0,0,1,.63575.63575A.64165.64165,0,0,1,170.95605,133.48926Z" transform="translate(-23.35645 -57.86475)"/>
      <path d="M176.48633,136.05566a.49676.49676,0,0,1-.51563-.51562.52185.52185,0,0,1,.27539-.46777.30807.30807,0,0,0-.13183-.01172c-.91113,0-1.415,1.06738-1.415,2.25488v1.84668c0,.43164.02441.564.91211.564h.251v.37159c-.47949-.03614-1.043-.03614-1.52246-.03614l-1.36718.03614v-.37159c.80273,0,.93554,0,.93554-.54v-3.21436c0-.5874-.09668-.67139-.93554-.67139v-.37158l1.667-.13232v1.31933a1.67961,1.67961,0,0,1,1.47461-1.31933.81892.81892,0,0,1,.88769.73193A.50363.50363,0,0,1,176.48633,136.05566Z" transform="translate(-23.35645 -57.86475)"/>
      <path d="M180.32715,140.22949a2.655,2.655,0,0,1-2.5791-2.72265,2.68789,2.68789,0,0,1,2.60254-2.78223c.92382,0,1.835.46777,1.835,1.2832a.55134.55134,0,1,1-1.10254.01221.54076.54076,0,0,1,.56347-.55176,1.95716,1.95716,0,0,0-1.2832-.44385c-.63574,0-1.61914.50391-1.61914,2.4585,0,1.93115,1.05469,2.44678,1.69043,2.44678a1.56625,1.56625,0,0,0,1.57129-1.25928c.02441-.07178.04785-.12012.15625-.12012.03613,0,.15527,0,.15527.12012A1.973,1.973,0,0,1,180.32715,140.22949Z" transform="translate(-23.35645 -57.86475)"/>
      <path d="M187.35742,140.22949v-1.0791a1.63567,1.63567,0,0,1-1.54687,1.0791c-1.82325,0-1.82325-1.09131-1.82325-2.02685v-1.79883c0-1.06738,0-1.10352-.93554-1.10352v-.37158l1.76367-.13232v3.98193c0,.62354.04785,1.1875,1.05469,1.1875.876,0,1.45117-.81543,1.45117-1.85889v-2.13525c0-.5874-.0957-.67139-.93555-.67139v-.37158l1.76367-.13232v4.25781c0,.58789.09571.67187.93555.67187v.37159Z" transform="translate(-23.35645 -57.86475)"/>
      <path d="M191.05566,140.06152l-1.31933.03614v-.37159c.80371,0,.93555,0,.93555-.54V135.96c0-.58789-.1084-.65967-.8877-.65967v-.37158l1.67969-.13232v4.40185c0,.46778.04785.52783.83886.52783v.37159C191.89551,140.08545,191.47559,140.06152,191.05566,140.06152Zm-.05957-6.57226a.64754.64754,0,0,1-.63574-.63574.641.641,0,0,1,.64746-.63575.64822.64822,0,0,1,.63574.63575A.64164.64164,0,0,1,190.99609,133.48926Z" transform="translate(-23.35645 -57.86475)"/>
      <path d="M195.4707,140.22949a1.451,1.451,0,0,1-1.54687-1.61914v-3.31006H192.9043v-.26367c1.17578-.04834,1.53515-1.33154,1.54687-2.31494h.29981v2.207h1.71582v.37158H194.751v3.334c0,.2041,0,1.29541.80371,1.29541.44433,0,.80371-.45557.80371-1.34326v-.65967h.2998v.68359C196.6582,139.37793,196.32227,140.22949,195.4707,140.22949Z" transform="translate(-23.35645 -57.86475)"/>
      <path d="M206.15039,140.16943a1.00387,1.00387,0,0,1-.93555-.98339,1.65907,1.65907,0,0,1-1.57129,1.04345c-.75585,0-1.91894-.2998-1.91894-1.271a1.74814,1.74814,0,0,1,1.19922-1.55957,5.8509,5.8509,0,0,1,2.207-.43164v-.44385a1.35823,1.35823,0,0,0-1.27148-1.53516,1.68428,1.68428,0,0,0-1.29493.55176c.55176.01221.61133.40771.61133.55176a.55182.55182,0,1,1-1.10351-.01172c0-.792.82812-1.35547,1.81152-1.35547a2.28975,2.28975,0,0,1,1.64258.65967,1.77447,1.77447,0,0,1,.43164,1.415v2.39892c0,.06006.04785.59961.44433.59961.13184,0,.43164-.07178.43164-.76758v-.67187h.29981v.67187A1.01788,1.01788,0,0,1,206.15039,140.16943Zm-1.01953-2.95019c-1.97949.07178-2.48242,1.06738-2.48242,1.727a1.03238,1.03238,0,0,0,1.0791,1.01953,1.44049,1.44049,0,0,0,1.40332-1.54736Z" transform="translate(-23.35645 -57.86475)"/>
      <path d="M210.13574,140.22949a1.45128,1.45128,0,0,1-1.54785-1.61914v-3.31006h-1.01953v-.26367c1.17578-.04834,1.53516-1.33154,1.54785-2.31494h.29981v2.207h1.71484v.37158H209.416v3.334c0,.2041,0,1.29541.80273,1.29541.44434,0,.80371-.45557.80371-1.34326v-.65967h.29981v.68359C211.32227,139.37793,210.98633,140.22949,210.13574,140.22949Z" transform="translate(-23.35645 -57.86475)"/>
      <path d="M137.376,154.46143l-1.35547.03613V154.126c.80371,0,.93554,0,.93554-.54V150.7915c0-.68359-.13183-1.33105-.88671-1.33105a1.75144,1.75144,0,0,0-1.61914,1.91894v2.20655c0,.54.13183.54.93554.54v.37158l-1.34375-.03613-1.35547.03613V154.126c.80371,0,.93555,0,.93555-.54v-6.23633c0-.58789-.0957-.67188-.93555-.67188v-.37158l1.72754-.13183v4.17334h.01172a1.88538,1.88538,0,0,1,1.72754-1.15137,1.59923,1.59923,0,0,1,1.25879.44385c.37207.43164.37207.80371.37207,1.835v2.291c.01172.35987.31152.35987.93555.35987v.37158Z" transform="translate(-23.35645 -57.86475)"/>
      <path d="M140.68945,154.46143l-1.31836.03613V154.126c.80274,0,.93457,0,.93457-.54v-3.22608c0-.58789-.10742-.65966-.88671-.65966v-.37159l1.67871-.13232v4.40185c0,.46778.04785.52784.83984.52784v.37158C141.5293,154.48535,141.10938,154.46143,140.68945,154.46143Zm-.05957-6.57227a.64822.64822,0,0,1-.63574-.63574.64163.64163,0,1,1,.63574.63574Z" transform="translate(-23.35645 -57.86475)"/>
      <path d="M147.78027,150.01221a.34116.34116,0,0,1-.34863-.34815.32161.32161,0,0,1,.19238-.32373.56529.56529,0,0,0-.12011-.01172,1.574,1.574,0,0,0-1.07911.46729,1.62021,1.62021,0,0,1,.49122,1.16357,1.8558,1.8558,0,0,1-1.94239,1.751,2.04051,2.04051,0,0,1-1.1875-.37158.8822.8822,0,0,0-.2041.56347.78247.78247,0,0,0,.63574.80371c.084.01172.59961.01172.89942.01172a4.25762,4.25762,0,0,1,2.0625.33594,1.53357,1.53357,0,0,1,.78027,1.36719c0,.93555-1.24805,1.54736-2.66308,1.54736-1.4629,0-2.6504-.65967-2.6504-1.52344a1.35353,1.35353,0,0,1,1.10352-1.19921,1.27733,1.27733,0,0,1-.52734-1.06739,1.6621,1.6621,0,0,1,.37109-.9956,1.65161,1.65161,0,0,1-.56348-1.23535,1.85672,1.85672,0,0,1,1.94336-1.751,2.00064,2.00064,0,0,1,1.27149.43213,1.84626,1.84626,0,0,1,1.27051-.564.58739.58739,0,0,1,.6123.58789A.34658.34658,0,0,1,147.78027,150.01221Zm-2.81933,4.40136h-.707a1.05567,1.05567,0,0,0-.9834,1.03125c0,.63575.82715,1.24756,2.03906,1.24756,1.17481,0,2.02637-.59961,2.02637-1.24756C147.33594,154.41357,145.99316,154.41357,144.96094,154.41357Zm.01269-4.9414a1.035,1.035,0,0,0-.85156.48,1.97079,1.97079,0,0,0-.19238,1.00732c0,.27588,0,1.4751,1.04394,1.4751a1.03929,1.03929,0,0,0,.85157-.47949,1.971,1.971,0,0,0,.1914-1.00781C146.0166,150.67188,146.0166,149.47217,144.97363,149.47217Z" transform="translate(-23.35645 -57.86475)"/>
      <path d="M153.38379,154.46143l-1.35547.03613V154.126c.80371,0,.93555,0,.93555-.54V150.7915c0-.68359-.13184-1.33105-.88672-1.33105a1.75144,1.75144,0,0,0-1.61914,1.91894v2.20655c0,.54.13183.54.93554.54v.37158l-1.34375-.03613-1.35546.03613V154.126c.80371,0,.93554,0,.93554-.54v-6.23633c0-.58789-.0957-.67188-.93554-.67188v-.37158l1.72754-.13183v4.17334h.01171a1.8854,1.8854,0,0,1,1.72754-1.15137,1.59921,1.59921,0,0,1,1.25879.44385c.37207.43164.37207.80371.37207,1.835v2.291c.01172.35987.31153.35987.93555.35987v.37158Z" transform="translate(-23.35645 -57.86475)"/>
      <path d="M162.73242,147.40967a.49787.49787,0,0,1-.51562-.51612.52475.52475,0,0,1,.36035-.50341.96967.96967,0,0,0-.39649-.084c-.52734,0-1.10351.57569-1.10351,1.63086v1.3916h1.40332v.37159h-1.36719V153.562c0,.43164.02442.564.91211.564h.252v.37158c-.48046-.03613-1.04394-.03613-1.52343-.03613l-1.36719.03613V154.126c.80371,0,.93555,0,.93555-.54V149.7002H159.375v-.37159h.94727v-1.37939a1.85806,1.85806,0,0,1,1.85839-1.90723.97184.97184,0,0,1,1.08008.83985A.49761.49761,0,0,1,162.73242,147.40967Z" transform="translate(-23.35645 -57.86475)"/>
      <path d="M166.501,150.45557a.49676.49676,0,0,1-.51563-.51563.52186.52186,0,0,1,.27539-.46777.30809.30809,0,0,0-.13183-.01172c-.91114,0-1.415,1.06738-1.415,2.25439V153.562c0,.43164.02441.564.91211.564h.251v.37158c-.47949-.03613-1.043-.03613-1.52246-.03613l-1.36719.03613V154.126c.80274,0,.93555,0,.93555-.54v-3.21387c0-.58789-.09668-.67187-.93555-.67187v-.37159l1.667-.13232v1.31934a1.67961,1.67961,0,0,1,1.47461-1.31934.81892.81892,0,0,1,.88769.73193A.50364.50364,0,0,1,166.501,150.45557Z" transform="translate(-23.35645 -57.86475)"/>
      <path d="M170.3291,154.62939a2.70794,2.70794,0,0,1-2.63867-2.7705,2.62108,2.62108,0,0,1,2.49512-2.73438,2.12725,2.12725,0,0,1,2.14648,2.35059c0,.25195-.03613.25195-.2998.25195h-3.34668a3.48746,3.48746,0,0,0,.36035,1.79883,1.61463,1.61463,0,0,0,1.35547.80371,1.69019,1.69019,0,0,0,1.61914-1.23535c.02344-.0957.04785-.168.15527-.168a.13935.13935,0,0,1,.15625.144A2.0501,2.0501,0,0,1,170.3291,154.62939Zm-.14355-5.24121c-.40821,0-1.416.29981-1.48731,2.08692H171.54C171.54,151.00732,171.4209,149.38818,170.18555,149.38818Z" transform="translate(-23.35645 -57.86475)"/>
      <path d="M177.64844,156.78809l-1.34375.03613v-.37158c.80371,0,.93554,0,.93554-.54v-2.14649a1.96663,1.96663,0,0,1-1.59472.86328,2.64733,2.64733,0,0,1-2.55469-2.71044,2.698,2.698,0,0,1,2.65039-2.72266,1.814,1.814,0,0,1,1.60742,1.0918l.45508-1.0918h.26465v6.71631c0,.54.13184.54.93457.54v.37158Zm-.37207-5.6128c0-.63574-.50391-1.6792-1.46289-1.6792-.8877,0-1.72754.99561-1.72754,2.42286,0,1.37939.73144,2.44677,1.60742,2.44677a1.67735,1.67735,0,0,0,1.583-1.49951Z" transform="translate(-23.35645 -57.86475)"/>
      <path d="M183.708,154.62939v-1.0791a1.63567,1.63567,0,0,1-1.54688,1.0791c-1.82324,0-1.82324-1.0913-1.82324-2.02685v-1.79883c0-1.06738,0-1.10351-.93555-1.10351v-.37159l1.76368-.13232v3.98193c0,.62354.04785,1.1875,1.05468,1.1875.876,0,1.45118-.81543,1.45118-1.85888v-2.13477c0-.58789-.09571-.67187-.93555-.67187v-.37159l1.76367-.13232v4.25781c0,.58789.0957.67188.93555.67188v.37158Z" transform="translate(-23.35645 -57.86475)"/>
      <path d="M188.665,154.62939a2.70793,2.70793,0,0,1-2.63867-2.7705,2.62107,2.62107,0,0,1,2.49511-2.73438,2.12725,2.12725,0,0,1,2.14649,2.35059c0,.25195-.03613.25195-.29981.25195h-3.34668a3.48738,3.48738,0,0,0,.36036,1.79883,1.61462,1.61462,0,0,0,1.35546.80371,1.6902,1.6902,0,0,0,1.61915-1.23535c.02343-.0957.04785-.168.15527-.168a.13935.13935,0,0,1,.15625.144A2.0501,2.0501,0,0,1,188.665,154.62939Zm-.14356-5.24121c-.4082,0-1.416.29981-1.4873,2.08692h2.8418C189.876,151.00732,189.75684,149.38818,188.52148,149.38818Z" transform="translate(-23.35645 -57.86475)"/>
      <path d="M196.0918,154.46143l-1.35547.03613V154.126c.80371,0,.93555,0,.93555-.54V150.7915c0-.68359-.13184-1.33105-.8877-1.33105a1.75144,1.75144,0,0,0-1.61914,1.91894v2.20655c0,.54.13184.54.93555.54v.37158l-1.34278-.03613-1.35547.03613V154.126c.80371,0,.93555,0,.93555-.54v-3.21387c0-.58789-.09668-.67187-.93555-.67187v-.37159l1.69043-.13232v1.25928a1.89238,1.89238,0,0,1,1.77539-1.25928,1.60182,1.60182,0,0,1,1.25977.44385c.37109.43164.37109.80371.37109,1.835v2.291c.0127.35987.3125.35987.93555.35987v.37158Z" transform="translate(-23.35645 -57.86475)"/>
      <path d="M200.67773,154.62939a2.65454,2.65454,0,0,1-2.5791-2.72216,2.688,2.688,0,0,1,2.60254-2.78272c.92383,0,1.835.46778,1.835,1.2832a.55182.55182,0,1,1-1.10351.01221.54145.54145,0,0,1,.56347-.55176,1.95424,1.95424,0,0,0-1.2832-.44384c-.63574,0-1.61914.5039-1.61914,2.45849,0,1.93115,1.05566,2.44678,1.69141,2.44678a1.56687,1.56687,0,0,0,1.57129-1.25928c.02343-.07177.04785-.12011.15625-.12011.03515,0,.15527,0,.15527.12011A1.973,1.973,0,0,1,200.67773,154.62939Z" transform="translate(-23.35645 -57.86475)"/>
      <path d="M204.7334,154.46143l-1.31934.03613V154.126c.80371,0,.93555,0,.93555-.54v-3.22608c0-.58789-.10742-.65966-.8877-.65966v-.37159l1.67969-.13232v4.40185c0,.46778.04785.52784.83887.52784v.37158C205.57324,154.48535,205.15332,154.46143,204.7334,154.46143Zm-.05957-6.57227a.63579.63579,0,1,1,.64746-.63574A.64754.64754,0,0,1,204.67383,147.88916Z" transform="translate(-23.35645 -57.86475)"/>
      <path d="M209.3291,154.62939a2.70731,2.70731,0,0,1-2.63867-2.7705,2.62094,2.62094,0,0,1,2.49414-2.73438,2.12746,2.12746,0,0,1,2.14746,2.35059c0,.25195-.03613.25195-.2998.25195h-3.34668a3.48746,3.48746,0,0,0,.36035,1.79883,1.613,1.613,0,0,0,1.35449.80371,1.68949,1.68949,0,0,0,1.61914-1.23535c.02442-.0957.04883-.168.15625-.168a.13976.13976,0,0,1,.15625.144A2.0501,2.0501,0,0,1,209.3291,154.62939Zm-.14453-5.24121c-.40723,0-1.415.29981-1.4873,2.08692H210.54C210.54,151.00732,210.41992,149.38818,209.18457,149.38818Z" transform="translate(-23.35645 -57.86475)"/>
      <path d="M214.06934,154.62939a1.7906,1.7906,0,0,1-1.31934-.51562,2.90559,2.90559,0,0,0-.24023.27588c-.22754.228-.23926.23974-.29981.23974-.13183,0-.13183-.084-.13183-.28759v-1.5835c0-.21582,0-.2998.15625-.2998.12011,0,.13183.04834.168.2041.22754,1.01953.65918,1.70312,1.667,1.70312.93554,0,1.35546-.48,1.35546-1.09131,0-.86377-.98339-1.05566-1.24707-1.10351a3.14261,3.14261,0,0,1-1.584-.55176,1.27938,1.27938,0,0,1-.51562-1.01953c0-.67139.45605-1.4751,1.91894-1.4751a1.848,1.848,0,0,1,1.12793.33594,1.51292,1.51292,0,0,0,.20313-.1919c.15625-.144.18066-.144.24023-.144.13184,0,.13184.084.13184.2876v1.21143c0,.228,0,.28808-.15528.28808,0,0-.13281,0-.14453-.10791a1.32277,1.32277,0,0,0-1.40332-1.45117c-1.03125,0-1.34277.4917-1.34277.91113,0,.6958.80371.85156,1.47461.98389a2.44244,2.44244,0,0,1,1.36718.57568A1.54349,1.54349,0,0,1,216,152.9624C216,153.82617,215.44824,154.62939,214.06934,154.62939Z" transform="translate(-23.35645 -57.86475)"/>
    </g>
    <g>
      <path id="path2791" class="cls-2" d="M274.35645,100h21.875" transform="translate(-23.35645 -57.86475)"/>
      <path id="path2793" class="cls-2" d="M302.48145,100h21.875" transform="translate(-23.35645 -57.86475)"/>
      <path id="path2795" class="cls-4" d="M296.23145,87.5v25" transform="translate(-23.35645 -57.86475)"/>
      <path id="path2797" class="cls-4" d="M302.48145,87.5v25" transform="translate(-23.35645 -57.86475)"/>
    </g>
    <g>
      <line class="cls-3" x1="313.5" y1="42.13525" x2="336.98169" y2="42.13525"/>
      <polygon points="332.343 47.861 331.388 46.836 336.444 42.137 331.388 37.436 332.343 36.411 338.5 42.137 332.343 47.861"/>
    </g>
    <path d="M303.4668,74.05615c-.04785.20362-.084.21582-.21582.21582-.05957,0-.17969,0-.17969-.12011a7.28716,7.28716,0,0,0,.06055-.73145c0-1.04346-.43262-2.19482-1.70313-2.19482a3.73124,3.73124,0,0,0-2.84277,1.65527,7.69915,7.69915,0,0,0-1.25977,3.9458,2.08328,2.08328,0,0,0,2.06348,2.37451,3.53262,3.53262,0,0,0,3.10644-2.79443c.03516-.09619.11914-.09619.19141-.09619.06055,0,.17969,0,.17969.12011,0,.57569-1.30664,3.14209-3.64551,3.14209a2.94228,2.94228,0,0,1-2.93848-3.20214c0-2.81836,2.57813-5.51709,5.04883-5.51709a2.00872,2.00872,0,0,1,1.81152,1.01953l.75586-.88721c.10743-.13232.19141-.13232.19141-.13232a.13222.13222,0,0,1,.13184.12011.82813.82813,0,0,1-.02344.168Z" transform="translate(-23.35645 -57.86475)"/>
    <g>
      <path id="path1132-5" data-name="path1132" class="cls-1" d="M389.35645,75h14" transform="translate(-23.35645 -57.86475)"/>
      <circle class="cls-1" cx="383" cy="17.13525" r="3"/>
      <path id="path1132-6" data-name="path1132" class="cls-1" d="M459.35645,75h-14" transform="translate(-23.35645 -57.86475)"/>
      <circle class="cls-1" cx="419" cy="17.13525" r="3"/>
    </g>
    <g>
      <path id="path1132-7" data-name="path1132" class="cls-1" d="M389.35645,125h14" transform="translate(-23.35645 -57.86475)"/>
      <circle class="cls-1" cx="383" cy="67.13525" r="3"/>
      <path id="path1132-8" data-name="path1132" class="cls-1" d="M459.35645,125h-14" transform="translate(-23.35645 -57.86475)"/>
      <circle class="cls-1" cx="419" cy="67.13525" r="3"/>
      <line class="cls-1" x1="386" y1="67.13525" x2="416" y2="67.13525"/>
    </g>
    <g>
      <path d="M385.92578,140.36133a3.00231,3.00231,0,0,1-2.207-.83936c-.39648.63574-.43164.6836-.43164.6836-.084.13183-.0957.15576-.17969.15576-.13281,0-.13281-.084-.13281-.2876V137.6748c0-.21582,0-.2998.15625-.2998a.1257.1257,0,0,1,.14453.12012,2.42543,2.42543,0,0,0,.74219,1.84717,2.89693,2.89693,0,0,0,1.89551.64746,1.64457,1.64457,0,0,0,1.60742-1.71534,1.75061,1.75061,0,0,0-.37207-1.103,1.59244,1.59244,0,0,0-1.01953-.61182c-.83985-.2041-1.45118-.34766-1.583-.39551a2.32359,2.32359,0,0,1,.76758-4.522,2.46609,2.46609,0,0,1,1.91894.83984l.41992-.68359c.084-.144.09571-.15625.17969-.15625.13184,0,.13184.084.13184.28809v2.41064c0,.228,0,.28809-.15528.28809-.13281,0-.13281-.07227-.14453-.144-.07226-.54-.33593-2.50683-2.33789-2.50683a1.56773,1.56773,0,0,0-.373,3.09424l1.53515.37207a2.45381,2.45381,0,0,1,1.79981,2.42236A2.4045,2.4045,0,0,1,385.92578,140.36133Z" transform="translate(-23.35645 -57.86475)"/>
      <path d="M394.04883,140.06152l-1.35547.03614v-.37159c.80273,0,.93555,0,.93555-.54V136.3916c0-.68359-.13282-1.33105-.8877-1.33105a1.75143,1.75143,0,0,0-1.61914,1.91894V139.186c0,.54.13184.54.93555.54v.37159l-1.34278-.03614-1.35546.03614v-.37159c.80273,0,.93554,0,.93554-.54v-6.23633c0-.58789-.09668-.67188-.93554-.67188v-.37158l1.72656-.13184v4.17334h.01172a1.88536,1.88536,0,0,1,1.72754-1.15136,1.59922,1.59922,0,0,1,1.25878.44384c.37207.43165.37207.80372.37207,1.835v2.291c.0127.35986.31153.35986.93555.35986v.37159Z" transform="translate(-23.35645 -57.86475)"/>
      <path d="M398.63379,140.22949a2.67689,2.67689,0,0,1-2.65039-2.69824,2.66074,2.66074,0,1,1,5.31348,0A2.67247,2.67247,0,0,1,398.63379,140.22949Zm1.35547-4.46142a1.57122,1.57122,0,0,0-1.35547-.77979,1.60889,1.60889,0,0,0-1.36719.80371,3.43629,3.43629,0,0,0-.28808,1.64307,3.56807,3.56807,0,0,0,.2998,1.69092,1.56806,1.56806,0,0,0,1.36816.80371,1.54587,1.54587,0,0,0,1.39063-.8877,3.64415,3.64415,0,0,0,.26367-1.60693A3.29459,3.29459,0,0,0,399.98926,135.76807Z" transform="translate(-23.35645 -57.86475)"/>
      <path d="M405.49805,136.05566a.497.497,0,0,1-.5166-.51562.52023.52023,0,0,1,.27636-.46777.31661.31661,0,0,0-.13281-.01172c-.91113,0-1.41406,1.06738-1.41406,2.25488v1.84668c0,.43164.02344.564.91113.564h.251v.37159c-.47852-.03614-1.043-.03614-1.52246-.03614l-1.36719.03614v-.37159c.80371,0,.93555,0,.93555-.54v-3.21436c0-.5874-.09668-.67139-.93555-.67139v-.37158l1.667-.13232v1.31933a1.67961,1.67961,0,0,1,1.47461-1.31933.8199.8199,0,0,1,.88867.73193A.50415.50415,0,0,1,405.49805,136.05566Z" transform="translate(-23.35645 -57.86475)"/>
      <path d="M409.14551,140.22949a1.451,1.451,0,0,1-1.54688-1.61914v-3.31006H406.5791v-.26367c1.17481-.04834,1.53516-1.33154,1.54688-2.31494h.2998v2.207h1.71485v.37158h-1.71485v3.334c0,.2041,0,1.29541.80371,1.29541.44434,0,.80371-.45557.80371-1.34326v-.65967h.29981v.68359C410.333,139.37793,409.99707,140.22949,409.14551,140.22949Z" transform="translate(-23.35645 -57.86475)"/>
      <path d="M418.002,140.22949a2.655,2.655,0,0,1-2.5791-2.72265,2.6879,2.6879,0,0,1,2.60254-2.78223c.92383,0,1.835.46777,1.835,1.2832a.55182.55182,0,1,1-1.10351.01221.54145.54145,0,0,1,.56347-.55176,1.95571,1.95571,0,0,0-1.2832-.44385c-.63477,0-1.61914.50391-1.61914,2.4585,0,1.93115,1.05566,2.44678,1.69141,2.44678a1.56687,1.56687,0,0,0,1.57128-1.25928c.02442-.07178.04786-.12012.15528-.12012.03711,0,.15625,0,.15625.12012A1.973,1.973,0,0,1,418.002,140.22949Z" transform="translate(-23.35645 -57.86475)"/>
      <path d="M422.05762,140.06152l-1.31934.03614v-.37159c.80371,0,.93555,0,.93555-.54V135.96c0-.58789-.10742-.65967-.88672-.65967v-.37158l1.67871-.13232v4.40185c0,.46778.04785.52783.83887.52783v.37159C422.89746,140.08545,422.47754,140.06152,422.05762,140.06152Zm-.05957-6.57226a.64822.64822,0,0,1-.63575-.63574.641.641,0,0,1,.64747-.63575.64822.64822,0,0,1,.63574.63575A.641.641,0,0,1,421.99805,133.48926Z" transform="translate(-23.35645 -57.86475)"/>
      <path d="M427.5293,136.05566a.497.497,0,0,1-.5166-.51562.52023.52023,0,0,1,.27636-.46777.31661.31661,0,0,0-.13281-.01172c-.91113,0-1.41406,1.06738-1.41406,2.25488v1.84668c0,.43164.02344.564.91113.564h.251v.37159c-.47852-.03614-1.043-.03614-1.52246-.03614l-1.36719.03614v-.37159c.80371,0,.93555,0,.93555-.54v-3.21436c0-.5874-.09668-.67139-.93555-.67139v-.37158l1.667-.13232v1.31933a1.67961,1.67961,0,0,1,1.47461-1.31933.8199.8199,0,0,1,.88867.73193A.50415.50415,0,0,1,427.5293,136.05566Z" transform="translate(-23.35645 -57.86475)"/>
      <path d="M431.36914,140.22949a2.65481,2.65481,0,0,1-2.57812-2.72265,2.68773,2.68773,0,0,1,2.60156-2.78223c.92383,0,1.83594.46777,1.83594,1.2832a.55183.55183,0,1,1-1.10352.01221.54146.54146,0,0,1,.56348-.55176,1.95575,1.95575,0,0,0-1.28321-.44385c-.63574,0-1.61914.50391-1.61914,2.4585,0,1.93115,1.05567,2.44678,1.69043,2.44678a1.56778,1.56778,0,0,0,1.57227-1.25928c.02344-.07178.04687-.12012.15527-.12012.03613,0,.15528,0,.15528.12012A1.972,1.972,0,0,1,431.36914,140.22949Z" transform="translate(-23.35645 -57.86475)"/>
      <path d="M438.40039,140.22949v-1.0791a1.63689,1.63689,0,0,1-1.54785,1.0791c-1.82324,0-1.82324-1.09131-1.82324-2.02685v-1.79883c0-1.06738,0-1.10352-.93555-1.10352v-.37158l1.76367-.13232v3.98193c0,.62354.04785,1.1875,1.05469,1.1875.876,0,1.45117-.81543,1.45117-1.85889v-2.13525c0-.5874-.0957-.67139-.93555-.67139v-.37158l1.76368-.13232v4.25781c0,.58789.0957.67187.93554.67187v.37159Z" transform="translate(-23.35645 -57.86475)"/>
      <path d="M442.09766,140.06152l-1.31836.03614v-.37159c.80273,0,.93457,0,.93457-.54V135.96c0-.58789-.1084-.65967-.8877-.65967v-.37158l1.67969-.13232v4.40185c0,.46778.04785.52783.83984.52783v.37159C442.9375,140.08545,442.51758,140.06152,442.09766,140.06152Zm-.05957-6.57226a.6358.6358,0,1,1,.64746-.63574A.64754.64754,0,0,1,442.03809,133.48926Z" transform="translate(-23.35645 -57.86475)"/>
      <path d="M446.51367,140.22949a1.45167,1.45167,0,0,1-1.54785-1.61914v-3.31006h-1.01855v-.26367c1.1748-.04834,1.53515-1.33154,1.54687-2.31494h.29883v2.207h1.71582v.37158H445.793v3.334c0,.2041,0,1.29541.80469,1.29541.44336,0,.80273-.45557.80273-1.34326v-.65967h.30078v.68359C447.70117,139.37793,447.36523,140.22949,446.51367,140.22949Z" transform="translate(-23.35645 -57.86475)"/>
      <path d="M457.19238,140.16943a1.00386,1.00386,0,0,1-.93554-.98339,1.65809,1.65809,0,0,1-1.57129,1.04345c-.75586,0-1.91895-.2998-1.91895-1.271a1.74815,1.74815,0,0,1,1.19922-1.55957,5.8509,5.8509,0,0,1,2.207-.43164v-.44385a1.35823,1.35823,0,0,0-1.27148-1.53516,1.68424,1.68424,0,0,0-1.29492.55176c.55175.01221.61132.40771.61132.55176a.55182.55182,0,1,1-1.10351-.01172c0-.792.82812-1.35547,1.81152-1.35547a2.28971,2.28971,0,0,1,1.64258.65967,1.77447,1.77447,0,0,1,.43164,1.415v2.39892c0,.06006.04785.59961.44434.59961.13183,0,.43164-.07178.43164-.76758v-.67187h.2998v.67187A1.01788,1.01788,0,0,1,457.19238,140.16943Zm-1.01953-2.95019c-1.97949.07178-2.48242,1.06738-2.48242,1.727a1.03238,1.03238,0,0,0,1.0791,1.01953,1.44049,1.44049,0,0,0,1.40332-1.54736Z" transform="translate(-23.35645 -57.86475)"/>
      <path d="M461.17773,140.22949a1.45128,1.45128,0,0,1-1.54785-1.61914v-3.31006h-1.01953v-.26367c1.17578-.04834,1.53516-1.33154,1.54785-2.31494h.29981v2.207h1.71484v.37158H460.458v3.334c0,.2041,0,1.29541.80371,1.29541.44336,0,.80273-.45557.80273-1.34326v-.65967h.29981v.68359C462.36426,139.37793,462.0293,140.22949,461.17773,140.22949Z" transform="translate(-23.35645 -57.86475)"/>
      <path d="M387.377,154.46143l-1.35547.03613V154.126c.80274,0,.93555,0,.93555-.54V150.7915c0-.68359-.13281-1.33105-.88769-1.33105a1.75144,1.75144,0,0,0-1.61914,1.91894v2.20655c0,.54.13183.54.93554.54v.37158l-1.34277-.03613-1.35547.03613V154.126c.80273,0,.93555,0,.93555-.54v-6.23633c0-.58789-.09668-.67188-.93555-.67188v-.37158l1.72656-.13183v4.17334h.01172a1.88538,1.88538,0,0,1,1.72754-1.15137,1.59923,1.59923,0,0,1,1.25879.44385c.37207.43164.37207.80371.37207,1.835v2.291c.0127.35987.31152.35987.93555.35987v.37158Z" transform="translate(-23.35645 -57.86475)"/>
      <path d="M390.68945,154.46143l-1.31836.03613V154.126c.80274,0,.93555,0,.93555-.54v-3.22608c0-.58789-.1084-.65966-.88769-.65966v-.37159l1.67871-.13232v4.40185c0,.46778.04882.52784.83984.52784v.37158C391.5293,154.48535,391.10938,154.46143,390.68945,154.46143Zm-.05859-6.57227a.64841.64841,0,0,1-.63672-.63574.64163.64163,0,1,1,.63672.63574Z" transform="translate(-23.35645 -57.86475)"/>
      <path d="M397.78027,150.01221a.34116.34116,0,0,1-.34863-.34815.32161.32161,0,0,1,.19238-.32373.56529.56529,0,0,0-.12011-.01172,1.574,1.574,0,0,0-1.07911.46729,1.62021,1.62021,0,0,1,.49122,1.16357,1.8558,1.8558,0,0,1-1.94239,1.751,2.04233,2.04233,0,0,1-1.1875-.37158.8822.8822,0,0,0-.2041.56347.78247.78247,0,0,0,.63574.80371c.084.01172.60059.01172.89942.01172a4.2557,4.2557,0,0,1,2.0625.33594,1.53357,1.53357,0,0,1,.78027,1.36719c0,.93555-1.24707,1.54736-2.66308,1.54736-1.4629,0-2.6504-.65967-2.6504-1.52344a1.3547,1.3547,0,0,1,1.10352-1.19921,1.27988,1.27988,0,0,1-.52734-1.06739,1.6621,1.6621,0,0,1,.37109-.9956,1.65435,1.65435,0,0,1-.5625-1.23535,1.8558,1.8558,0,0,1,1.94238-1.751,2.00064,2.00064,0,0,1,1.27149.43213,1.84626,1.84626,0,0,1,1.27051-.564.58673.58673,0,0,1,.6123.58789A.34605.34605,0,0,1,397.78027,150.01221Zm-2.81933,4.40136h-.707a1.05641,1.05641,0,0,0-.9834,1.03125c0,.63575.82715,1.24756,2.03906,1.24756,1.17481,0,2.02637-.59961,2.02637-1.24756C397.33594,154.41357,395.99316,154.41357,394.96094,154.41357Zm.01269-4.9414a1.03668,1.03668,0,0,0-.85156.48,1.97079,1.97079,0,0,0-.19238,1.00732c0,.27588,0,1.4751,1.04394,1.4751a1.03929,1.03929,0,0,0,.85157-.47949,1.97178,1.97178,0,0,0,.19238-1.00781C396.01758,150.67188,396.01758,149.47217,394.97363,149.47217Z" transform="translate(-23.35645 -57.86475)"/>
      <path d="M403.38477,154.46143l-1.35547.03613V154.126c.80273,0,.93554,0,.93554-.54V150.7915c0-.68359-.13281-1.33105-.88769-1.33105a1.75144,1.75144,0,0,0-1.61914,1.91894v2.20655c0,.54.13183.54.93554.54v.37158l-1.34277-.03613-1.35547.03613V154.126c.80274,0,.93555,0,.93555-.54v-6.23633c0-.58789-.09668-.67188-.93555-.67188v-.37158l1.72657-.13183v4.17334h.01171a1.8854,1.8854,0,0,1,1.72754-1.15137,1.59921,1.59921,0,0,1,1.25879.44385c.37207.43164.37207.80371.37207,1.835v2.291c.0127.35987.31153.35987.93555.35987v.37158Z" transform="translate(-23.35645 -57.86475)"/>
      <path d="M412.73242,147.40967a.49787.49787,0,0,1-.51562-.51612.52594.52594,0,0,1,.36035-.50341.96876.96876,0,0,0-.39551-.084c-.52832,0-1.10351.57569-1.10351,1.63086v1.3916h1.40234v.37159h-1.36719V153.562c0,.43164.02442.564.91211.564h.25195v.37158c-.48046-.03613-1.043-.03613-1.52343-.03613l-1.36719.03613V154.126c.80371,0,.93555,0,.93555-.54V149.7002H409.375v-.37159h.94727v-1.37939a1.85826,1.85826,0,0,1,1.85937-1.90723.97145.97145,0,0,1,1.0791.83985A.49761.49761,0,0,1,412.73242,147.40967Z" transform="translate(-23.35645 -57.86475)"/>
      <path d="M416.502,150.45557a.497.497,0,0,1-.5166-.51563.52025.52025,0,0,1,.27637-.46777.31664.31664,0,0,0-.13281-.01172c-.91114,0-1.41407,1.06738-1.41407,2.25439V153.562c0,.43164.02344.564.91114.564h.251v.37158c-.47851-.03613-1.043-.03613-1.52246-.03613l-1.36719.03613V154.126c.80372,0,.93555,0,.93555-.54v-3.21387c0-.58789-.09668-.67187-.93555-.67187v-.37159l1.667-.13232v1.31934a1.67961,1.67961,0,0,1,1.47461-1.31934.8199.8199,0,0,1,.88867.73193A.50416.50416,0,0,1,416.502,150.45557Z" transform="translate(-23.35645 -57.86475)"/>
      <path d="M420.3291,154.62939a2.70715,2.70715,0,0,1-2.63769-2.7705,2.6203,2.6203,0,0,1,2.49414-2.73438,2.12725,2.12725,0,0,1,2.14648,2.35059c0,.25195-.03515.25195-.2998.25195h-3.34668a3.48746,3.48746,0,0,0,.36035,1.79883,1.61594,1.61594,0,0,0,1.35547.80371,1.69019,1.69019,0,0,0,1.61914-1.23535c.02441-.0957.04785-.168.15527-.168a.13935.13935,0,0,1,.15625.144A2.049,2.049,0,0,1,420.3291,154.62939Zm-.14355-5.24121c-.40821,0-1.416.29981-1.48731,2.08692H421.541C421.541,151.00732,421.4209,149.38818,420.18555,149.38818Z" transform="translate(-23.35645 -57.86475)"/>
      <path d="M427.64844,156.78809l-1.34375.03613v-.37158c.80469,0,.93554,0,.93554-.54v-2.14649a1.96663,1.96663,0,0,1-1.59472.86328,2.64733,2.64733,0,0,1-2.55469-2.71044,2.698,2.698,0,0,1,2.65039-2.72266,1.81268,1.81268,0,0,1,1.60742,1.0918l.45606-1.0918h.26367v6.71631c0,.54.13184.54.93555.54v.37158Zm-.37207-5.6128c0-.63574-.50293-1.6792-1.46289-1.6792-.8877,0-1.72754.99561-1.72754,2.42286,0,1.37939.73242,2.44677,1.60742,2.44677a1.67735,1.67735,0,0,0,1.583-1.49951Z" transform="translate(-23.35645 -57.86475)"/>
      <path d="M433.709,154.62939v-1.0791a1.63686,1.63686,0,0,1-1.54785,1.0791c-1.82324,0-1.82324-1.0913-1.82324-2.02685v-1.79883c0-1.06738,0-1.10351-.93555-1.10351v-.37159l1.76368-.13232v3.98193c0,.62354.04785,1.1875,1.05468,1.1875.876,0,1.45118-.81543,1.45118-1.85888v-2.13477c0-.58789-.09571-.67187-.93555-.67187v-.37159l1.76367-.13232v4.25781c0,.58789.0957.67188.93555.67188v.37158Z" transform="translate(-23.35645 -57.86475)"/>
      <path d="M438.665,154.62939a2.70715,2.70715,0,0,1-2.6377-2.7705,2.6203,2.6203,0,0,1,2.49414-2.73438,2.12725,2.12725,0,0,1,2.14649,2.35059c0,.25195-.03516.25195-.29981.25195h-3.34668a3.48738,3.48738,0,0,0,.36036,1.79883,1.61592,1.61592,0,0,0,1.35546.80371,1.6902,1.6902,0,0,0,1.61915-1.23535c.02441-.0957.04785-.168.15527-.168a.13935.13935,0,0,1,.15625.144A2.049,2.049,0,0,1,438.665,154.62939Zm-.14356-5.24121c-.4082,0-1.416.29981-1.4873,2.08692H439.877C439.877,151.00732,439.75684,149.38818,438.52148,149.38818Z" transform="translate(-23.35645 -57.86475)"/>
      <path d="M446.0918,154.46143l-1.35547.03613V154.126c.80371,0,.93555,0,.93555-.54V150.7915c0-.68359-.13184-1.33105-.88672-1.33105a1.75144,1.75144,0,0,0-1.61914,1.91894v2.20655c0,.54.13086.54.93554.54v.37158l-1.34375-.03613-1.35547.03613V154.126c.80371,0,.93555,0,.93555-.54v-3.21387c0-.58789-.0957-.67187-.93555-.67187v-.37159l1.69141-.13232v1.25928a1.89142,1.89142,0,0,1,1.77539-1.25928,1.59923,1.59923,0,0,1,1.25879.44385c.37207.43164.37207.80371.37207,1.835v2.291c.01172.35987.31152.35987.93555.35987v.37158Z" transform="translate(-23.35645 -57.86475)"/>
      <path d="M450.67773,154.62939a2.65454,2.65454,0,0,1-2.5791-2.72216,2.688,2.688,0,0,1,2.60254-2.78272c.92383,0,1.835.46778,1.835,1.2832a.55182.55182,0,1,1-1.10351.01221.54145.54145,0,0,1,.56347-.55176,1.95424,1.95424,0,0,0-1.2832-.44384c-.63574,0-1.61914.5039-1.61914,2.45849,0,1.93115,1.05566,2.44678,1.69141,2.44678a1.56687,1.56687,0,0,0,1.57129-1.25928c.02343-.07177.04785-.12011.15625-.12011.03515,0,.15527,0,.15527.12011A1.973,1.973,0,0,1,450.67773,154.62939Z" transform="translate(-23.35645 -57.86475)"/>
      <path d="M454.7334,154.46143l-1.31934.03613V154.126c.80371,0,.93555,0,.93555-.54v-3.22608c0-.58789-.10742-.65966-.8877-.65966v-.37159l1.67969-.13232v4.40185c0,.46778.04785.52784.83887.52784v.37158C455.57324,154.48535,455.15332,154.46143,454.7334,154.46143Zm-.05957-6.57227a.63579.63579,0,1,1,.64746-.63574A.64754.64754,0,0,1,454.67383,147.88916Z" transform="translate(-23.35645 -57.86475)"/>
      <path d="M459.3291,154.62939a2.70731,2.70731,0,0,1-2.63867-2.7705,2.62094,2.62094,0,0,1,2.49414-2.73438,2.12746,2.12746,0,0,1,2.14746,2.35059c0,.25195-.03613.25195-.2998.25195h-3.34668a3.48746,3.48746,0,0,0,.36035,1.79883,1.613,1.613,0,0,0,1.35449.80371,1.68949,1.68949,0,0,0,1.61914-1.23535c.02442-.0957.04883-.168.15625-.168a.13976.13976,0,0,1,.15625.144A2.0501,2.0501,0,0,1,459.3291,154.62939Zm-.14453-5.24121c-.40723,0-1.415.29981-1.4873,2.08692H460.54C460.54,151.00732,460.41992,149.38818,459.18457,149.38818Z" transform="translate(-23.35645 -57.86475)"/>
      <path d="M464.06934,154.62939a1.7906,1.7906,0,0,1-1.31934-.51562,2.90559,2.90559,0,0,0-.24023.27588c-.22754.228-.23926.23974-.29981.23974-.13183,0-.13183-.084-.13183-.28759v-1.5835c0-.21582,0-.2998.15625-.2998.12011,0,.13183.04834.168.2041.22754,1.01953.65918,1.70312,1.667,1.70312.93554,0,1.35546-.48,1.35546-1.09131,0-.86377-.98339-1.05566-1.24707-1.10351a3.14261,3.14261,0,0,1-1.584-.55176,1.27938,1.27938,0,0,1-.51562-1.01953c0-.67139.45605-1.4751,1.91894-1.4751a1.848,1.848,0,0,1,1.12793.33594,1.51292,1.51292,0,0,0,.20313-.1919c.15625-.144.18066-.144.24023-.144.13184,0,.13184.084.13184.2876v1.21143c0,.228,0,.28808-.15528.28808,0,0-.13281,0-.14453-.10791a1.32277,1.32277,0,0,0-1.40332-1.45117c-1.03125,0-1.34277.4917-1.34277.91113,0,.6958.80371.85156,1.47461.98389a2.44244,2.44244,0,0,1,1.36718.57568A1.54349,1.54349,0,0,1,466,152.9624C466,153.82617,465.44824,154.62939,464.06934,154.62939Z" transform="translate(-23.35645 -57.86475)"/>
    </g>
    <g>
      <path d="M377.97852,58.19336a3.60345,3.60345,0,0,1,2.68066,1.1748,4.05579,4.05579,0,0,1,1.13379,2.93262,4.17679,4.17679,0,0,1-1.14258,3.00586,3.81935,3.81935,0,0,1-5.52246.0293,4.18352,4.18352,0,0,1-1.11621-3.01758,4.01988,4.01988,0,0,1,1.28906-3.08789A3.80275,3.80275,0,0,1,377.97852,58.19336Zm-.11133.42773a2.09642,2.09642,0,0,0-1.71094.791,4.4722,4.4722,0,0,0-.80273,2.88281,4.719,4.719,0,0,0,.832,2.99414,2.05592,2.05592,0,0,0,1.6875.79688,2.30583,2.30583,0,0,0,1.84863-.873,4.25746,4.25746,0,0,0,.72949-2.75391,4.8098,4.8098,0,0,0-.80273-3.041A2.165,2.165,0,0,0,377.86719,58.62109Z" transform="translate(-23.35645 -57.86475)"/>
      <path d="M385.83008,66.45215a1.63106,1.63106,0,0,1-1.47559-.83936v2.12256c0,.54.13281.54.93555.54V68.647l-1.35449-.03613-1.34375.03613v-.37158c.80371,0,.93554,0,.93554-.54V62.12256c0-.52783-.084-.59961-.93554-.59961v-.37158l1.72754-.13233v.79151a2.15977,2.15977,0,0,1,1.67871-.79151,2.62472,2.62472,0,0,1,2.50683,2.71045A2.70274,2.70274,0,0,1,385.83008,66.45215Zm.07226-5.1333a1.79986,1.79986,0,0,0-1.54785.95947v2.67481a.6294.6294,0,0,0,.168.5039,1.49594,1.49594,0,0,0,1.25977.73145c.88769,0,1.72656-1.00733,1.72656-2.459C387.50879,62.37451,386.77734,61.31885,385.90234,61.31885Z" transform="translate(-23.35645 -57.86475)"/>
      <path d="M392.23828,66.45215a2.708,2.708,0,0,1-2.63867-2.77051,2.62107,2.62107,0,0,1,2.49512-2.73437,2.12724,2.12724,0,0,1,2.14648,2.35058c0,.252-.03613.252-.2998.252h-3.34668a3.48744,3.48744,0,0,0,.36035,1.79883,1.61463,1.61463,0,0,0,1.35547.80371,1.69019,1.69019,0,0,0,1.61914-1.23535c.02344-.0957.04785-.168.15527-.168a.13935.13935,0,0,1,.15625.144A2.05011,2.05011,0,0,1,392.23828,66.45215Zm-.14355-5.24121c-.40821,0-1.416.2998-1.48731,2.08691h2.8418C393.44922,62.83008,393.33008,61.21094,392.09473,61.21094Z" transform="translate(-23.35645 -57.86475)"/>
      <path d="M399.665,66.28418l-1.35547.03613v-.37158c.80371,0,.93555,0,.93555-.54V62.61426c0-.6836-.13184-1.33106-.88672-1.33106a1.75144,1.75144,0,0,0-1.61914,1.919v2.20654c0,.54.13183.54.93554.54v.37158l-1.34375-.03613-1.35546.03613v-.37158c.80371,0,.93554,0,.93554-.54V62.19434c0-.58741-.0957-.67139-.93554-.67139v-.37158l1.6914-.13233v1.25928a1.89144,1.89144,0,0,1,1.77539-1.25928,1.59925,1.59925,0,0,1,1.25879.44385c.37207.43164.37207.80371.37207,1.835v2.291c.01172.35986.31153.35986.93555.35986v.37158Z" transform="translate(-23.35645 -57.86475)"/>
      <path d="M408.24609,66.45215a2.65482,2.65482,0,0,1-2.57812-2.72266,2.68789,2.68789,0,0,1,2.60254-2.78222c.92383,0,1.835.46777,1.835,1.2832a.55183.55183,0,1,1-1.10352.01221.54146.54146,0,0,1,.56348-.55176,1.95571,1.95571,0,0,0-1.2832-.44385c-.63575,0-1.61914.50391-1.61914,2.4585,0,1.93115,1.05566,2.44677,1.6914,2.44677a1.56686,1.56686,0,0,0,1.57129-1.25927c.02344-.07178.04785-.12012.15527-.12012.03614,0,.15625,0,.15625.12012A1.97344,1.97344,0,0,1,408.24609,66.45215Z" transform="translate(-23.35645 -57.86475)"/>
      <path d="M412.30273,66.28418l-1.31933.03613v-.37158c.80371,0,.93555,0,.93555-.54V62.18262c0-.58789-.1084-.65967-.8877-.65967v-.37158l1.67969-.13233V65.4209c0,.46777.04785.52783.83886.52783v.37158C413.14258,66.30811,412.72266,66.28418,412.30273,66.28418Zm-.05957-6.57227a.64754.64754,0,0,1-.63574-.63574.641.641,0,0,1,.64746-.63574.64822.64822,0,0,1,.63575.63574A.64164.64164,0,0,1,412.24316,59.71191Z" transform="translate(-23.35645 -57.86475)"/>
      <path d="M417.77344,62.27832a.49676.49676,0,0,1-.51563-.51562.52187.52187,0,0,1,.27539-.46778.30807.30807,0,0,0-.13183-.01172c-.91114,0-1.415,1.06739-1.415,2.25489v1.84668c0,.43164.02441.564.91211.564h.251v.37158c-.47949-.03613-1.043-.03613-1.52246-.03613l-1.36718.03613v-.37158c.80273,0,.93554,0,.93554-.54V62.19434c0-.58741-.09668-.67139-.93554-.67139v-.37158l1.667-.13233v1.31934a1.67961,1.67961,0,0,1,1.47461-1.31934.81893.81893,0,0,1,.88769.73194A.50363.50363,0,0,1,417.77344,62.27832Z" transform="translate(-23.35645 -57.86475)"/>
      <path d="M421.61426,66.45215a2.655,2.655,0,0,1-2.5791-2.72266,2.68789,2.68789,0,0,1,2.60254-2.78222c.92382,0,1.835.46777,1.835,1.2832a.55134.55134,0,1,1-1.10254.01221.54076.54076,0,0,1,.56347-.55176,1.95716,1.95716,0,0,0-1.2832-.44385c-.63574,0-1.61914.50391-1.61914,2.4585,0,1.93115,1.05469,2.44677,1.69043,2.44677a1.56623,1.56623,0,0,0,1.57129-1.25927c.02441-.07178.04785-.12012.15625-.12012.03613,0,.15527,0,.15527.12012A1.973,1.973,0,0,1,421.61426,66.45215Z" transform="translate(-23.35645 -57.86475)"/>
      <path d="M428.64453,66.45215v-1.0791a1.63567,1.63567,0,0,1-1.54687,1.0791c-1.82325,0-1.82325-1.09131-1.82325-2.02686V62.62646c0-1.06738,0-1.10351-.93554-1.10351v-.37158l1.76367-.13233V65.001c0,.62353.04785,1.1875,1.05469,1.1875.876,0,1.45117-.81543,1.45117-1.85889V62.19434c0-.58741-.0957-.67139-.93555-.67139v-.37158l1.76367-.13233v4.25782c0,.58789.09571.67187.93555.67187v.37158Z" transform="translate(-23.35645 -57.86475)"/>
      <path d="M432.34277,66.28418l-1.31933.03613v-.37158c.80371,0,.93554,0,.93554-.54V62.18262c0-.58789-.10839-.65967-.88769-.65967v-.37158L432.751,61.019V65.4209c0,.46777.04785.52783.83886.52783v.37158C433.18262,66.30811,432.7627,66.28418,432.34277,66.28418Zm-.05957-6.57227a.64754.64754,0,0,1-.63574-.63574.641.641,0,0,1,.64746-.63574.64821.64821,0,0,1,.63574.63574A.64163.64163,0,0,1,432.2832,59.71191Z" transform="translate(-23.35645 -57.86475)"/>
      <path d="M436.75781,66.45215a1.451,1.451,0,0,1-1.54687-1.61914V61.523h-1.01953v-.26367c1.17578-.04834,1.53515-1.33155,1.54687-2.31494h.29981v2.207h1.71582V61.523h-1.71582v3.334c0,.20411,0,1.29541.80371,1.29541.44433,0,.80371-.45556.80371-1.34326v-.65967h.2998v.6836C437.94531,65.60059,437.60938,66.45215,436.75781,66.45215Z" transform="translate(-23.35645 -57.86475)"/>
      <path d="M447.4375,66.39209a1.00387,1.00387,0,0,1-.93555-.9834,1.65906,1.65906,0,0,1-1.57129,1.04346c-.75586,0-1.91894-.29981-1.91894-1.271a1.74816,1.74816,0,0,1,1.19922-1.55957,5.8511,5.8511,0,0,1,2.207-.43164v-.44385a1.35823,1.35823,0,0,0-1.27149-1.53515,1.68422,1.68422,0,0,0-1.29492.55176c.55176.0122.61133.40771.61133.55175a.55182.55182,0,1,1-1.10351-.01172c0-.792.82812-1.35546,1.81152-1.35546a2.28978,2.28978,0,0,1,1.64258.65966,1.77447,1.77447,0,0,1,.43164,1.415V65.4209c0,.06006.04785.59961.44433.59961.13184,0,.43164-.07178.43164-.76758v-.67188h.29981v.67188A1.01788,1.01788,0,0,1,447.4375,66.39209Zm-1.01953-2.9502c-1.97949.07178-2.48242,1.06739-2.48242,1.72706a1.03238,1.03238,0,0,0,1.0791,1.01953,1.4405,1.4405,0,0,0,1.40332-1.54737Z" transform="translate(-23.35645 -57.86475)"/>
      <path d="M451.42285,66.45215A1.45128,1.45128,0,0,1,449.875,64.833V61.523h-1.01953v-.26367c1.17578-.04834,1.53516-1.33155,1.54785-2.31494h.29981v2.207H452.418V61.523h-1.71484v3.334c0,.20411,0,1.29541.80273,1.29541.44434,0,.80371-.45556.80371-1.34326v-.65967h.29981v.6836C452.60938,65.60059,452.27344,66.45215,451.42285,66.45215Z" transform="translate(-23.35645 -57.86475)"/>
      <path d="M462.10059,66.32031h-4.38965v-.37158h.28808c.92286,0,.94727-.13232.94727-.564V59.06445c0-.43213-.02441-.564-.94727-.564h-.28808v-.37158h4.38965a3.93543,3.93543,0,0,1,3.66992,4.16162A3.852,3.852,0,0,1,462.10059,66.32031Zm1.84668-6.7041a2.58647,2.58647,0,0,0-2.18262-1.11572h-1.19922c-.56348,0-.58789.084-.58789.48v6.48828c0,.396.02441.48.58789.48h1.21094a2.62708,2.62708,0,0,0,2.13476-1.01953,4.11636,4.11636,0,0,0,.66016-2.63867A4.63827,4.63827,0,0,0,463.94727,59.61621Z" transform="translate(-23.35645 -57.86475)"/>
      <path d="M471.30469,66.584a4.36375,4.36375,0,0,1,0-8.71923,2.939,2.939,0,0,1,2.20605,1.03173l.59961-.88769c.09668-.144.14453-.144.19238-.144.13184,0,.13184.084.13184.28808v2.84229c0,.252,0,.28808-.19141.28808-.168,0-.168-.03613-.19238-.2041-.24023-1.751-1.30762-2.84228-2.61426-2.84228-.73144,0-3.07031.40771-3.07031,3.99365,0,3.57422,2.35059,3.98193,3.082,3.98193a2.71563,2.71563,0,0,0,2.68653-2.69873c.01171-.11963.01171-.19189.14355-.19189.15625,0,.15625.084.15625.2041A3.1361,3.1361,0,0,1,471.30469,66.584Z" transform="translate(-23.35645 -57.86475)"/>
    </g>
  </g>
</svg>
