<?xml version="1.0" encoding="utf-8"?>
<!-- Generator: Adobe Illustrator 23.0.3, SVG Export Plug-In . SVG Version: 6.00 Build 0)  -->
<svg version="1.1" id="Layer_1" xmlns="http://www.w3.org/2000/svg" xmlns:xlink="http://www.w3.org/1999/xlink" x="0px" y="0px"
	 viewBox="0 0 190.55556 82.59766" style="enable-background:new 0 0 190.55556 82.59766;" xml:space="preserve">
<style type="text/css">
	.st0{fill:none;stroke:#8FF4DD;stroke-width:2;stroke-linecap:round;stroke-linejoin:round;}
	.st1{fill:none;stroke:#8FF4DD;stroke-width:2;stroke-linecap:round;}
	.st2{fill:none;stroke:#8FF4DD;stroke-width:2;stroke-linecap:round;stroke-linejoin:round;stroke-dasharray:5,5;}
	.st3{fill:none;stroke:#8FF4DD;stroke-width:2;stroke-linecap:round;stroke-linejoin:round;stroke-dasharray:5;}
	.st4{fill:none;stroke:#FD1D53;stroke-miterlimit:10;}
	.st5{fill:#FD1D53;}
	.st6{fill:#8FF4DD;}
</style>
<title>AdmittanceParallel</title>
<g>
	<g>
		<path class="st0" d="M59,51v-7.16667c2.46227,0,4.45833-1.99606,4.45833-4.45833S61.46227,34.91667,59,34.91667"/>
		<path class="st1" d="M59,34.91667c2.46227,0,4.45833-1.99606,4.45833-4.45834S61.46227,26,59,26"/>
		<path class="st1" d="M59,26c2.46227,0,4.45833-1.99606,4.45833-4.45833S61.46227,17.08333,59,17.08333"/>
		<path class="st0" d="M59,17.08333c2.46227,0,4.45833-1.99606,4.45833-4.45833S61.46227,8.16667,59,8.16667V1"/>
	</g>
	<g>
		<path class="st0" d="M109,51v-7.16667c2.46227,0,4.45834-1.99606,4.45834-4.45833S111.46227,34.91667,109,34.91667"/>
		<path class="st1" d="M109,34.91667c2.46227,0,4.45834-1.99606,4.45834-4.45834S111.46227,26,109,26"/>
		<path class="st1" d="M109,26c2.46227,0,4.45834-1.99606,4.45834-4.45833S111.46227,17.08333,109,17.08333"/>
		<path class="st0" d="M109,17.08333c2.46227,0,4.45834-1.99606,4.45834-4.45833S111.46227,8.16667,109,8.16667V1"/>
	</g>
	<g>
		<path class="st0" d="M184,51v-7.16667c2.46228,0,4.45833-1.99606,4.45833-4.45833S186.46228,34.91667,184,34.91667"/>
		<path class="st1" d="M184,34.91667c2.46228,0,4.45833-1.99606,4.45833-4.45834S186.46227,26,184,26"/>
		<path class="st1" d="M184,26c2.46227,0,4.45833-1.99606,4.45833-4.45833S186.46227,17.08333,184,17.08333"/>
		<path class="st0" d="M184,17.08333c2.46227,0,4.45833-1.99606,4.45833-4.45833S186.46227,8.16667,184,8.16667V1"/>
	</g>
</g>
<g>
	<line class="st0" x1="184" y1="1" x2="174" y2="1.00003"/>
	<line class="st0" x1="144" y1="1.00003" x2="1" y2="1.00003"/>
	<g>
		<line class="st0" x1="174" y1="1.00003" x2="171.5" y2="1.00003"/>
		<line class="st2" x1="166.5" y1="1.00003" x2="149" y2="1.00003"/>
		<line class="st0" x1="146.5" y1="1.00003" x2="144" y2="1.00003"/>
	</g>
	<line class="st0" x1="184" y1="51" x2="1" y2="51.00003"/>
	<path class="st3" d="M1,1"/>
	<g>
		<polyline class="st4" points="9,64 9,26 19.915,26 		"/>
		<polygon class="st5" points="16.602,30.09 15.92,29.357 19.532,26.001 15.92,22.644 16.602,21.911 21,26.001 		"/>
	</g>
	<g>
		<path class="st6" d="M8.78467,74.85742c-0.07227,0.2041-0.08398,0.2041-0.33594,0.2041H3.49561
			c-0.19189,0-0.28809,0-0.28809-0.12012c0-0.22754,0.10791-0.22754,0.32373-0.22754c0.73193,0,0.80371-0.0957,0.91162-0.51563
			l1.64307-6.6084c0.02393-0.07227,0.02393-0.10742,0.02393-0.17969c0-0.19238-0.33545-0.19238-0.63574-0.19238
			c-0.22754,0-0.31152,0-0.31152-0.11914c0-0.22852,0.13184-0.22852,0.22803-0.22852c0.45557,0,0.93506,0.02441,1.40283,0.02441
			c0.47998,0,0.9834-0.02441,1.46338-0.02441c0.0957,0,0.19189,0,0.19189,0.13184c0,0.21582-0.12012,0.21582-0.32373,0.21582
			H8.04102c-0.91162,0-0.99561,0.1084-1.10352,0.55176l-1.63086,6.52441C5.28223,74.37791,5.2583,74.47362,5.2583,74.5703
			c0,0.13184,0.01221,0.14355,0.35986,0.14355h0.9834c1.85938,0,2.375-1.42676,2.72266-2.41016
			c0.10791-0.2998,0.12012-0.3125,0.25195-0.3125c0.08398,0,0.15576,0.03613,0.15576,0.12012
			c0,0.03613-0.02393,0.1084-0.03613,0.14355L8.78467,74.85742z"/>
		<path class="st6" d="M11.50488,79.13477c-0.80322,0-1.53711-0.67773-1.53711-1.61426c0-0.87402,0.64258-1.59375,1.45361-1.59375
			c0.87354,0,1.25098,0.67773,1.25098,1.37012c0,0.14648-0.021,0.14648-0.1748,0.14648h-1.94971
			c0,0.25195,0,0.71289,0.20947,1.04883c0.16064,0.25781,0.44043,0.46777,0.78955,0.46777c0.07031,0,0.69922,0,0.94385-0.71973
			c0.01367-0.05566,0.02783-0.09766,0.09082-0.09766c0.03467,0,0.09082,0.01367,0.09082,0.08398
			C12.67236,78.35938,12.35791,79.13477,11.50488,79.13477z M11.42139,76.08105c-0.23779,0-0.82471,0.1748-0.8667,1.21582h1.65625
			C12.21094,77.02441,12.14111,76.08105,11.42139,76.08105z"/>
		<path class="st6" d="M15.771,80.39258l-0.78271,0.02148v-0.2168c0.46826,0,0.54541,0,0.54541-0.31445v-1.25098
			c-0.15381,0.20215-0.44043,0.50293-0.92969,0.50293c-0.81055,0-1.48828-0.70605-1.48828-1.5791
			c0-0.90918,0.7334-1.58691,1.54443-1.58691c0.55908,0,0.8457,0.44043,0.93652,0.63574l0.26514-0.63574h0.15381v3.91406
			c0,0.31445,0.07715,0.31445,0.54541,0.31445v0.2168L15.771,80.39258z M15.55469,77.12207
			c0-0.37012-0.29346-0.97852-0.85254-0.97852c-0.51758,0-1.00635,0.58008-1.00635,1.41211
			c0,0.80371,0.42627,1.42578,0.93604,1.42578c0.32861,0,0.55225-0.18945,0.64307-0.28711
			c0.15381-0.16797,0.27979-0.36328,0.27979-0.58691v-0.98535H15.55469z"/>
	</g>
</g>
<g>
	<path class="st6" d="M50.94629,28.97949c-0.07227,0.2041-0.08398,0.2041-0.33594,0.2041h-4.95313
		c-0.19189,0-0.28809,0-0.28809-0.12012c0-0.22754,0.10791-0.22754,0.32373-0.22754c0.73193,0,0.80371-0.09619,0.91162-0.51611
		l1.64307-6.60791c0.02393-0.07227,0.02393-0.10791,0.02393-0.18018c0-0.19189-0.33545-0.19189-0.63574-0.19189
		c-0.22754,0-0.31152,0-0.31152-0.11963c0-0.22803,0.13184-0.22803,0.22803-0.22803c0.45557,0,0.93506,0.02393,1.40283,0.02393
		c0.47998,0,0.9834-0.02393,1.46338-0.02393c0.0957,0,0.19189,0,0.19189,0.13184c0,0.21582-0.12012,0.21582-0.32373,0.21582
		h-0.08398c-0.91162,0-0.99561,0.10791-1.10352,0.55176l-1.63086,6.52441c-0.02441,0.08398-0.04834,0.17969-0.04834,0.27588
		c0,0.13184,0.01221,0.14404,0.35986,0.14404h0.9834c1.85938,0,2.375-1.42725,2.72266-2.41064
		c0.10791-0.2998,0.12012-0.31201,0.25195-0.31201c0.08398,0,0.15576,0.03613,0.15576,0.12012
		c0,0.03564-0.02393,0.10791-0.03613,0.14355L50.94629,28.97949z"/>
	<path class="st6" d="M53.72949,33.15869c-0.2793,0-0.88721,0-1.13184,0.021v-0.2168h0.22363
		c0.62891,0,0.6499-0.0835,0.6499-0.33545v-3.62012c-0.36328,0.18213-0.77588,0.18213-0.91553,0.18213v-0.2168
		c0.22363,0,0.83838,0,1.27197-0.44727c0.16064,0,0.16064,0.01416,0.16064,0.18164v3.92041c0,0.25879,0.021,0.33545,0.6499,0.33545
		h0.22363v0.2168C54.61719,33.15869,54.00928,33.15869,53.72949,33.15869z"/>
</g>
<g>
	<path class="st6" d="M100.67676,28.97949c-0.07227,0.2041-0.08398,0.2041-0.33594,0.2041H95.3877
		c-0.19189,0-0.28809,0-0.28809-0.12012c0-0.22754,0.10791-0.22754,0.32373-0.22754c0.73193,0,0.80371-0.09619,0.91162-0.51611
		l1.64307-6.60791c0.02393-0.07227,0.02393-0.10791,0.02393-0.18018c0-0.19189-0.33545-0.19189-0.63574-0.19189
		c-0.22754,0-0.31152,0-0.31152-0.11963c0-0.22803,0.13184-0.22803,0.22803-0.22803c0.45557,0,0.93506,0.02393,1.40283,0.02393
		c0.47998,0,0.9834-0.02393,1.46338-0.02393c0.0957,0,0.19189,0,0.19189,0.13184c0,0.21582-0.12012,0.21582-0.32373,0.21582
		h-0.08398c-0.91162,0-0.99561,0.10791-1.10352,0.55176l-1.63086,6.52441c-0.02441,0.08398-0.04834,0.17969-0.04834,0.27588
		c0,0.13184,0.01221,0.14404,0.35986,0.14404h0.9834c1.85938,0,2.375-1.42725,2.72266-2.41064
		c0.10791-0.2998,0.12012-0.31201,0.25195-0.31201c0.08398,0,0.15576,0.03613,0.15576,0.12012
		c0,0.03564-0.02393,0.10791-0.03613,0.14355L100.67676,28.97949z"/>
	<path class="st6" d="M104.60645,33.17969h-2.59277c0-0.16748,0-0.18164,0.07617-0.25879l1.3418-1.49512
		c0.38477-0.43359,0.73438-0.98584,0.73438-1.54443c0-0.57324-0.30078-1.13916-0.93652-1.13916
		c-0.40527,0-0.7832,0.2583-0.94336,0.7124c0.02051-0.00684,0.03418-0.00684,0.09082-0.00684
		c0.24414,0,0.37012,0.18164,0.37012,0.36328c0,0.28662-0.24512,0.37061-0.36328,0.37061c-0.02148,0-0.37012,0-0.37012-0.3916
		c0-0.62158,0.5166-1.26465,1.30664-1.26465c0.85254,0,1.48145,0.55908,1.48145,1.35596c0,0.69873-0.41895,1.07617-1.50977,2.04053
		l-0.74023,0.71973h1.25781c0.15332,0,0.61426,0,0.66406-0.05615c0.06934-0.10449,0.11816-0.41211,0.15332-0.62158h0.1748
		L104.60645,33.17969z"/>
</g>
<g>
	<path class="st6" d="M176.31494,29.8916c-0.07227,0.2041-0.08398,0.2041-0.33594,0.2041h-4.95313
		c-0.19189,0-0.28809,0-0.28809-0.12012c0-0.22754,0.10791-0.22754,0.32373-0.22754c0.73193,0,0.80371-0.09619,0.91162-0.51611
		l1.64307-6.60791c0.02393-0.07227,0.02393-0.10791,0.02393-0.18018c0-0.19189-0.33545-0.19189-0.63574-0.19189
		c-0.22754,0-0.31152,0-0.31152-0.11963c0-0.22803,0.13184-0.22803,0.22803-0.22803c0.45557,0,0.93506,0.02393,1.40283,0.02393
		c0.47998,0,0.9834-0.02393,1.46338-0.02393c0.0957,0,0.19189,0,0.19189,0.13184c0,0.21582-0.12012,0.21582-0.32373,0.21582
		h-0.08398c-0.91162,0-0.99561,0.10791-1.10352,0.55176l-1.63086,6.52441c-0.02441,0.08398-0.04834,0.17969-0.04834,0.27588
		c0,0.13184,0.01221,0.14404,0.35986,0.14404h0.9834c1.85938,0,2.375-1.42725,2.72266-2.41064
		c0.10791-0.2998,0.12012-0.31201,0.25195-0.31201c0.08398,0,0.15576,0.03613,0.15576,0.12012
		c0,0.03564-0.02393,0.10791-0.03613,0.14355L176.31494,29.8916z"/>
	<g>
		<path class="st6" d="M179.78613,33.65625c-0.28613,0-0.50293-0.20996-0.50293-0.5459c0-0.14648,0.02734-0.20898,0.09082-0.38379
			c0.11816-0.34277,0.42578-1.18164,0.42578-1.61426c0-0.11914,0-0.46875-0.32129-0.46875
			c-0.6709,0-1.04785,0.89453-1.08984,1.04883l-0.42676,1.71875c-0.02734,0.11914-0.09766,0.24512-0.25879,0.24512
			c-0.125,0-0.18164-0.08398-0.18164-0.16797c0-0.02832,0-0.03516,0.02832-0.13281l0.50977-2.04102
			c0.02832-0.09766,0.05664-0.25098,0.05664-0.38379c0-0.08398,0-0.28711-0.18164-0.28711
			c-0.23828,0-0.37109,0.41211-0.47559,0.8252c-0.04199,0.16016-0.04883,0.16699-0.12598,0.16699
			c-0.0625,0-0.09766-0.01367-0.09766-0.06934c0,0,0.09082-0.43359,0.22363-0.69238c0.14648-0.2998,0.32813-0.37012,0.48926-0.37012
			c0.32129,0,0.53809,0.25195,0.55859,0.56641c0.23145-0.31445,0.55957-0.56641,0.99316-0.56641
			c0.53809,0,0.69824,0.34277,0.69824,0.71289c0,0.40527-0.2373,1.05566-0.41895,1.56543
			c-0.05566,0.13965-0.13281,0.35645-0.13281,0.52441c0,0.16016,0.05566,0.20898,0.16016,0.20898
			c0.3916,0,0.58008-0.62891,0.64355-0.86621c0.02734-0.10449,0.03516-0.12598,0.11914-0.12598c0.02734,0,0.09082,0,0.09082,0.06348
			C180.66016,32.61426,180.43652,33.65625,179.78613,33.65625z"/>
	</g>
</g>
</svg>
