<?xml version="1.0" encoding="utf-8"?>
<!-- Generator: Adobe Illustrator 23.0.3, SVG Export Plug-In . SVG Version: 6.00 Build 0)  -->
<svg version="1.1" xmlns="http://www.w3.org/2000/svg" xmlns:xlink="http://www.w3.org/1999/xlink" x="0px" y="0px"
	 viewBox="0 0 369.64584 106.41573" style="enable-background:new 0 0 369.64584 106.41573;" xml:space="preserve">
<style type="text/css">
	.st0{fill:none;stroke:#8FF4DD;stroke-width:2;stroke-miterlimit:10;}
	.st1{fill:#8FF4DD;}
	.st2{fill:none;stroke:#F9C80E;stroke-width:2;stroke-linecap:round;stroke-miterlimit:10;}
	.st3{fill:#F9C80E;}
	.st4{fill:none;stroke:#FD1D53;stroke-width:2;stroke-linecap:round;stroke-miterlimit:10;}
	.st5{fill:#FD1D53;}
	.st6{fill:none;stroke:#FF6C11;stroke-width:2;stroke-linecap:round;stroke-miterlimit:10;}
	.st7{fill:#FF6C11;}
	.st8{fill:none;stroke:#8FF4DD;stroke-miterlimit:10;}
</style>
<g id="Layer_1">
	<g>
		<g>
			<line class="st0" x1="5.72442" y1="106.41573" x2="5.72442" y2="1.5183"/>
			<g>
				<polygon class="st1" points="11.45019,6.15719 10.42481,7.11217 5.72579,2.05563 1.02539,7.11217 0,6.15719 5.72579,0 				"/>
			</g>
		</g>
	</g>
</g>
<g id="Layer_2">
	<g>
		<path class="st1" d="M14.73931,8.15531c-0.45557,0-1.40332,0-1.82275,0.03613V7.81986h0.31152
			c0.94775,0,0.98389-0.13232,0.98389-0.564V0.93558c0-0.43212-0.03613-0.564-0.98389-0.564h-0.31152V0
			c0.41943,0.03564,1.36719,0.03564,1.83501,0.03564c0.45557,0,1.40332,0,1.82275-0.03564v0.37158H16.2628
			c-0.94775,0-0.9834,0.13184-0.9834,0.564V7.2559c0,0.43164,0.03564,0.564,0.9834,0.564h0.31152v0.37158
			C16.15483,8.15531,15.20708,8.15531,14.73931,8.15531z"/>
		<path class="st1" d="M25.31986,8.15531l-1.355,0.03613V7.81986c0.80322,0,0.93555,0,0.93555-0.54V4.48537
			c0-0.68359-0.13232-1.33106-0.8877-1.33106c-0.96487,0.0684-1.6916,0.90603-1.62321,1.8709
			c0.00114,0.01604,0.0025,0.03205,0.00407,0.04805V7.2798c0,0.54,0.13184,0.54,0.93555,0.54v0.37158l-1.34326-0.03613
			L20.6304,8.19138V7.8198c0.80371,0,0.93555,0,0.93555-0.54V4.48537c0-0.68359-0.13184-1.33106-0.88721-1.33106
			c-0.96487,0.0684-1.6916,0.90603-1.62321,1.8709c0.00114,0.01604,0.0025,0.03205,0.00407,0.04805V7.2798
			c0,0.54,0.13184,0.54,0.93555,0.54v0.37158l-1.34326-0.03613l-1.35547,0.03613V7.8198c0.80371,0,0.93555,0,0.93555-0.54V4.06596
			c0-0.58789-0.09621-0.67188-0.93555-0.67188V3.0225l1.69092-0.13233v1.25928c0.26678-0.75234,0.97716-1.25621,1.77539-1.25928
			c0.76239-0.10504,1.46965,0.41644,1.59473,1.17579c0.29059-0.70601,0.97581-1.16925,1.73926-1.17579
			c0.46439-0.04267,0.92427,0.11942,1.25928,0.44385c0.37158,0.43164,0.37158,0.80371,0.37158,1.835v2.291
			c0.01221,0.35986,0.312,0.35986,0.93555,0.35986v0.37158L25.31986,8.15531z"/>
	</g>
	<g>
		<path class="st1" d="M152.20372,16.64639c-0.54718,0.0145-1.08206-0.16368-1.51125-0.50342
			c-0.49168-0.45604-0.49168-0.93555-0.49168-1.71533c0-0.80322,0-1.17529-0.45557-1.60693
			c-0.30161-0.28064-0.70374-0.42766-1.11523-0.40771h-1.37939v3.03418c0,0.43164,0.02393,0.564,0.94727,0.564h0.28809v0.37158
			c-0.43164-0.03613-1.2832-0.03613-1.75101-0.03613s-1.31934,0-1.75101,0.03613v-0.37158h0.2876
			c0.92334,0,0.94775-0.13232,0.94775-0.564V9.12686c0-0.43213-0.02441-0.564-0.94775-0.564h-0.2876V8.19128h3.76563
			c1.76318,0,3.13037,1.00732,3.13037,2.15869c0,0.93555-0.93555,1.66699-2.09863,1.95508
			c0.69519,0.17987,1.24831,0.70584,1.46289,1.39111l0.15625,0.95947c0.16748,1.11523,0.26367,1.72705,0.85156,1.72705
			c0.2998,0,0.71922-0.21582,0.7915-1.06738c0.01172-0.084,0.01172-0.19189,0.14355-0.19189
			c0.15625,0,0.15625,0.13184,0.15625,0.20361C153.34337,15.66296,153.13927,16.64639,152.20372,16.64639z M148.22227,8.56289
			c-0.23627-0.00623-0.47269,0.00175-0.70799,0.02394c-0.26367,0.03613-0.26367,0.18018-0.26367,0.45604v3.106h1.33105
			c1.77539,0,2.063-0.97119,2.063-1.79883C150.64464,8.61123,149.30138,8.56289,148.22227,8.56289z"/>
		<path class="st1" d="M156.37071,16.51455c-1.49316-0.03761-2.67383-1.27727-2.63867-2.77049
			c-0.0641-1.44319,1.05162-2.66615,2.49461-2.73439c1.17473-0.01712,2.14091,0.9213,2.15804,2.09601
			c0.00125,0.08502-0.00261,0.17003-0.01155,0.25459c0,0.25195-0.03564,0.25195-0.2998,0.25195h-3.34619
			c-0.04253,0.62096,0.08171,1.242,0.35986,1.79883c0.28163,0.48506,0.79474,0.78931,1.35545,0.80371
			c0.75504-0.004,1.41586-0.50819,1.61916-1.23535c0.02393-0.09572,0.04785-0.168,0.15576-0.168
			c0.07631-0.00923,0.14565,0.04515,0.15488,0.12146c0.0009,0.00748,0.00121,0.01501,0.00089,0.02254
			C158.14647,15.8756,157.31841,16.52036,156.37071,16.51455z M156.22672,11.27334c-0.40771,0-1.41553,0.29982-1.4873,2.08693
			h2.84229c-0.00005-0.46779-0.11967-2.08693-1.35503-2.08693H156.22672z"/>
	</g>
	<g>
		<g>
			<line class="st0" x1="5.72442" y1="24.87641" x2="154.20612" y2="24.87641"/>
			<g>
				<polygon class="st1" points="149.56723,30.60218 148.61224,29.5768 153.66879,24.87778 148.61224,20.17737 149.56723,19.152 
					155.72441,24.87778 				"/>
			</g>
		</g>
	</g>
	<g>
		<g>
			<line class="st2" x1="5.72442" y1="24.8764" x2="134.93652" y2="24.8764"/>
			<g>
				<polygon class="st3" points="130.29764,30.60218 129.34265,29.5768 134.3992,24.87778 129.34265,20.17738 130.29764,19.15199 
					136.45482,24.87778 				"/>
			</g>
		</g>
	</g>
	<g>
		<path class="st1" d="M69.26347,76.16183c-0.94775,0-1.4873-0.38379-1.81104-0.875l-0.53955,0.71973
			c-0.12012,0.14355-0.13232,0.15527-0.18018,0.15527c0,0-0.12012,0-0.12012-0.10742c0-0.03613,0.02441-0.13184,0.03613-0.16797
			l0.62354-2.49512c0.04834-0.19141,0.07227-0.2041,0.2041-0.2041c0.06006,0,0.15576,0,0.15576,0.1084l-0.01172,0.0957
			c-0.07227,0.28809-0.09619,0.6123-0.09619,0.73145c0,1.22363,0.85156,1.69141,1.7749,1.69141
			c1.0918,0,2.02734-1.23535,2.02734-2.32715c0-0.53906-0.21631-1.00684-0.71973-1.1748l-0.73145-0.21582
			c-0.82764-0.24023-1.04346-0.2998-1.29541-0.57617c-0.43213-0.46777-0.45605-0.95898-0.45605-1.22266
			c0-1.43945,1.31934-2.83105,2.72266-2.83105c0.21582,0,1.10352,0,1.54736,0.85156l0.53955-0.71973
			c0.0957-0.13184,0.13184-0.13184,0.16797-0.13184c0,0,0.11963,0,0.11963,0.1084c0,0.03613-0.02393,0.13184-0.03564,0.16797
			l-0.62354,2.49414c-0.04834,0.19238-0.07227,0.2041-0.2041,0.2041c-0.08398,0-0.16797,0-0.16797-0.12012
			c0,0,0-0.03613,0.02393-0.10742c0.04785-0.34766,0.04785-0.55176,0.04785-0.70801c0-0.37207,0-1.71484-1.43896-1.71484
			c-1.00732,0-1.95508,1.04297-1.95508,2.0752c0,0.89941,0.56396,1.06738,0.94775,1.1748l1.16309,0.34766
			c0.59961,0.19238,1.07959,0.73145,1.07959,1.67969C72.05791,74.62667,70.71465,76.16183,69.26347,76.16183z"/>
		<path class="st1" d="M74.44707,80.54757c-0.32666,0-1.03711,0-1.32275,0.02441v-0.25293h0.26123
			c0.73486,0,0.75928-0.09766,0.75928-0.3916v-4.22852c-0.42432,0.21191-0.90625,0.21191-1.06934,0.21191v-0.25293
			c0.26123,0,0.97949,0,1.48584-0.52246c0.1875,0,0.1875,0.0166,0.1875,0.21191v4.58008c0,0.30176,0.02441,0.3916,0.75928,0.3916
			h0.26123v0.25293C75.48369,80.54757,74.77324,80.54757,74.44707,80.54757z"/>
	</g>
	<g>
		<path class="st1" d="M126.86259,58.32198c-0.25195,0.38379-0.64844,0.81543-1.25977,0.81543
			c-0.89941,0-0.89941-0.79102-0.89941-1.06738c0-0.31152,0.02441-0.43164,0.13184-1.1875
			c-0.34766,0.12012-0.70703,0.18066-1.0791,0.18066c-1.65527,0-2.68652-1.34375-2.68652-3.07031
			c0-2.77051,2.43457-5.625,4.84473-5.625c1.65527,0,2.6748,1.35547,2.6748,3.09375c0,1.73926-1.0791,4.22168-3.41797,5.27734
			c0,1.03125,0.17969,1.36719,0.71973,1.36719c0.56348,0,1.10352-0.54004,1.31934-1.22363
			c0.03613-0.13184,0.05957-0.17969,0.13184-0.17969s0.12012,0.03613,0.12012,0.12012
			C127.4622,56.88253,127.23369,57.73409,126.86259,58.32198z M125.85478,48.63155c-0.9834,0-1.95508,0.79102-2.54297,1.64258
			c-1.10254,1.60742-1.30664,3.55078-1.30664,4.11426c0,0.94727,0.31152,1.91895,1.16309,2.27832
			c-0.04785-0.10742-0.07227-0.16797-0.07227-0.37109c0-0.55176,0.49219-1.24805,1.13965-1.24805
			c0.7793,0,0.89941,0.70801,0.92383,1.2959c1.94238-1.22363,2.49414-4.18555,2.49414-5.28906
			C127.65361,49.61495,126.94658,48.63155,125.85478,48.63155z M124.90752,56.12765c0-0.44434-0.0957-0.83984-0.67188-0.83984
			c-0.50391,0-0.89941,0.56348-0.89941,1.00781c0,0.50293,0.37207,0.50293,0.47949,0.50293
			c0.47949,0,0.91211-0.20313,1.06738-0.28711C124.8958,56.39132,124.90752,56.24776,124.90752,56.12765z"/>
		<path class="st1" d="M130.41631,61.44894c-0.32617,0-1.03711,0-1.32227,0.02441v-0.25293h0.26074
			c0.73535,0,0.75977-0.09863,0.75977-0.39258v-4.22852c-0.4248,0.21289-0.90625,0.21289-1.06934,0.21289v-0.25391
			c0.26074,0,0.97949,0,1.48535-0.52246c0.1875,0,0.1875,0.0166,0.1875,0.21289v4.5791c0,0.30273,0.02441,0.39258,0.75977,0.39258
			h0.26074v0.25293C131.45341,61.44894,130.74248,61.44894,130.41631,61.44894z"/>
	</g>
	<g>
		<path class="st1" d="M72.29863,16.43331h-1.83496l-0.7793,3.08252l-0.02441,0.17969c0,0.10791,0,0.2041,0.67188,0.2041
			c0.17969,0,0.27588,0,0.27588,0.11963c0,0.22803-0.13184,0.22803-0.22803,0.22803c-0.41992,0-0.88721-0.02393-1.31934-0.02393
			c-0.43164,0-0.87549,0.02393-1.29492,0.02393c-0.04834,0-0.16797,0-0.16797-0.12012c0-0.22754,0.10791-0.22754,0.32373-0.22754
			c0.73145,0,0.80371-0.09619,0.91162-0.51611l1.64307-6.60791c0.02393-0.07227,0.02393-0.10791,0.02393-0.18018
			c0-0.19189-0.33594-0.19189-0.63574-0.19189c-0.22803,0-0.31201,0-0.31201-0.11963c0-0.22803,0.10791-0.22803,0.32422-0.22803
			h3.42969c1.28369,0,2.0752,0.75537,2.0752,1.75098C75.38115,15.22189,73.79765,16.43331,72.29863,16.43331z M72.9583,12.40353
			h-1.04346c-0.39551,0-0.47949,0-0.5874,0.45557l-0.81592,3.28662h1.51123c1.09131,0,1.61914-0.57568,1.66699-0.61182
			c0.61182-0.67188,0.71973-1.79883,0.71973-2.01514C74.40947,12.79952,73.9417,12.40353,72.9583,12.40353z"/>
	</g>
	<g>
		<path class="st1" d="M37.47637,36.53683c-1.09131,0-1.43896-1.33105-1.43896-2.45898c0-2.74609,1.84668-6.12793,3.51367-6.12793
			c1.22363,0,1.43945,1.66699,1.43945,2.45801C40.99053,33.09444,39.16729,36.53683,37.47637,36.53683z M37.2127,32.43526
			c-0.31201,1.1748-0.38379,1.87109-0.38379,2.375c0,1.11523,0.25195,1.46289,0.64746,1.46289
			c0.51563,0,0.97168-0.58789,1.39111-1.40332c0.45605-0.86328,0.70801-1.88281,0.83984-2.43457H37.2127z M39.53936,28.21358
			c-0.53955,0-0.9834,0.67188-1.30713,1.25879c-0.47998,0.85156-0.71973,1.81152-0.92383,2.5791h2.50684
			c0.2876-1.1875,0.38379-1.79883,0.38379-2.38672C40.19902,28.98116,40.12676,28.21358,39.53936,28.21358z"/>
		<path class="st1" d="M43.25957,41.04269c-0.32666,0-1.03711,0-1.32275,0.02441v-0.25293h0.26123
			c0.73486,0,0.75928-0.09766,0.75928-0.3916v-4.22949c-0.42432,0.21289-0.90625,0.21289-1.06934,0.21289v-0.25293
			c0.26123,0,0.97949,0,1.48584-0.52246c0.1875,0,0.1875,0.01563,0.1875,0.21191v4.58008c0,0.30176,0.02441,0.3916,0.75928,0.3916
			h0.26123v0.25293C44.29619,41.04269,43.58574,41.04269,43.25957,41.04269z"/>
	</g>
	<g>
		<path class="st1" d="M281.56866,55.06124c-0.94824,0-1.4873-0.38379-1.81152-0.87598l-0.53906,0.71973
			c-0.12012,0.14355-0.13281,0.15625-0.18066,0.15625c0,0-0.12012,0-0.12012-0.1084c0-0.03613,0.02441-0.13184,0.03613-0.16797
			l0.62402-2.49414c0.04785-0.19238,0.07227-0.2041,0.2041-0.2041c0.05957,0,0.15527,0,0.15527,0.10742l-0.01172,0.09668
			c-0.07227,0.28711-0.0957,0.61133-0.0957,0.73145c0,1.22363,0.85156,1.69043,1.77441,1.69043
			c1.0918,0,2.02734-1.23438,2.02734-2.32617c0-0.54004-0.21582-1.00781-0.71973-1.17578l-0.73145-0.21582
			c-0.82715-0.23926-1.04297-0.2998-1.29492-0.5752c-0.43262-0.46777-0.45605-0.95996-0.45605-1.22363
			c0-1.43945,1.31934-2.83008,2.72266-2.83008c0.21582,0,1.10352,0,1.54688,0.85156l0.54004-0.71973
			c0.0957-0.13184,0.13184-0.13184,0.16797-0.13184c0,0,0.11914,0,0.11914,0.10742c0,0.03613-0.02344,0.13184-0.03516,0.16797
			l-0.62402,2.49512c-0.04785,0.19141-0.07227,0.20313-0.2041,0.20313c-0.08398,0-0.16797,0-0.16797-0.11914
			c0,0,0-0.03613,0.02441-0.1084c0.04785-0.34766,0.04785-0.55176,0.04785-0.70703c0-0.37207,0-1.71582-1.43945-1.71582
			c-1.00684,0-1.95508,1.04395-1.95508,2.0752c0,0.89941,0.56445,1.06738,0.94824,1.17578l1.16309,0.34766
			c0.59961,0.19141,1.0791,0.73145,1.0791,1.67871C284.36261,53.52608,283.01984,55.06124,281.56866,55.06124z"/>
		<path class="st1" d="M288.09113,59.4714h-3.0293c0-0.19629,0-0.21289,0.08984-0.30273l1.56738-1.74609
			c0.44922-0.50684,0.85742-1.15137,0.85742-1.80469c0-0.66895-0.35156-1.33008-1.09375-1.33008
			c-0.47363,0-0.91504,0.30176-1.10254,0.83203c0.02441-0.00781,0.04102-0.00781,0.10645-0.00781
			c0.28516,0,0.43262,0.21191,0.43262,0.4248c0,0.33398-0.28613,0.43262-0.4248,0.43262c-0.02441,0-0.43262,0-0.43262-0.45801
			c0-0.72656,0.60449-1.47754,1.52637-1.47754c0.99609,0,1.73145,0.65332,1.73145,1.58398
			c0,0.81641-0.49023,1.25684-1.76367,2.38379l-0.86523,0.84082h1.46973c0.17871,0,0.71777,0,0.77539-0.06543
			c0.08105-0.12207,0.13867-0.48145,0.17969-0.72656h0.2041L288.09113,59.4714z"/>
	</g>
	<g>
		<path class="st1" d="M242.679,43.4128c-1.09082,0-1.43848-1.33105-1.43848-2.45898c0-2.74561,1.84668-6.12744,3.51367-6.12744
			c1.22363,0,1.43945,1.66699,1.43945,2.45801C246.19365,39.97042,244.37041,43.4128,242.679,43.4128z M242.41533,39.31173
			c-0.31152,1.17432-0.38379,1.87061-0.38379,2.37451c0,1.11523,0.25195,1.46289,0.64746,1.46289
			c0.51563,0,0.97168-0.58789,1.3916-1.40332c0.45605-0.86328,0.70801-1.88281,0.83984-2.43408H242.41533z M244.74248,35.09005
			c-0.54004,0-0.9834,0.67188-1.30762,1.25879c-0.47949,0.85156-0.71973,1.81152-0.92383,2.5791h2.50684
			c0.28809-1.1875,0.38379-1.79883,0.38379-2.38672C245.40166,35.85763,245.32939,35.09005,244.74248,35.09005z"/>
		<path class="st1" d="M249.80107,47.94308h-3.02832c0-0.19629,0-0.21191,0.08984-0.30176l1.56738-1.74707
			c0.44824-0.50586,0.85645-1.15137,0.85645-1.80469c0-0.66895-0.35059-1.33008-1.09375-1.33008
			c-0.47363,0-0.91406,0.30176-1.10156,0.83203c0.02441-0.00781,0.04102-0.00781,0.10547-0.00781
			c0.28613,0,0.43262,0.21191,0.43262,0.4248c0,0.33496-0.28516,0.43262-0.42383,0.43262c-0.02441,0-0.43262,0-0.43262-0.45703
			c0-0.72656,0.60352-1.47754,1.52637-1.47754c0.99609,0,1.73047,0.65234,1.73047,1.58301
			c0,0.81641-0.48926,1.25781-1.76367,2.38379l-0.86523,0.84082h1.46973c0.17969,0,0.71875,0,0.77539-0.06543
			c0.08203-0.12207,0.13867-0.48145,0.17969-0.72656h0.2041L249.80107,47.94308z"/>
	</g>
	<g>
		<g>
			<line class="st0" x1="146.10883" y1="97.37079" x2="146.10883" y2="61.19605"/>
			<g>
				<polygon class="st1" points="151.83459,65.83493 150.8092,66.78992 146.11018,61.73337 141.40979,66.78992 140.3844,65.83493 
					146.11018,59.67775 				"/>
			</g>
		</g>
	</g>
	<g>
		<path class="st1" d="M156.70732,84.7214c-0.25195,0.38379-0.64746,0.81543-1.25879,0.81543
			c-0.89941,0-0.89941-0.79199-0.89941-1.06738c0-0.3125,0.02344-0.43164,0.13184-1.1875
			c-0.34863,0.12012-0.70801,0.17969-1.08008,0.17969c-1.65527,0-2.68652-1.34277-2.68652-3.07031
			c0-2.77051,2.43457-5.625,4.8457-5.625c1.65527,0,2.6748,1.35547,2.6748,3.09473s-1.08008,4.22168-3.41895,5.27734
			c0,1.03125,0.18066,1.36719,0.71973,1.36719c0.56445,0,1.10352-0.54004,1.31934-1.22363
			c0.03613-0.13184,0.06055-0.17969,0.13184-0.17969c0.07227,0,0.12012,0.03613,0.12012,0.12012
			C157.30693,83.28194,157.07939,84.13351,156.70732,84.7214z M155.70049,75.02999c-0.98438,0-1.95508,0.79199-2.54297,1.64355
			c-1.10352,1.60742-1.30762,3.5498-1.30762,4.11328c0,0.94824,0.3125,1.91895,1.16406,2.2793
			c-0.04883-0.1084-0.07227-0.16797-0.07227-0.37207c0-0.55176,0.49121-1.24707,1.13965-1.24707
			c0.7793,0,0.89941,0.70801,0.92285,1.29492c1.94336-1.22266,2.49512-4.18555,2.49512-5.28906
			C157.49931,76.01437,156.79131,75.02999,155.70049,75.02999z M154.75224,82.52608c0-0.44336-0.0957-0.83887-0.6709-0.83887
			c-0.50391,0-0.90039,0.56348-0.90039,1.00684c0,0.50391,0.37207,0.50391,0.48047,0.50391
			c0.47949,0,0.91113-0.2041,1.06738-0.28809C154.74052,82.78976,154.75224,82.6462,154.75224,82.52608z"/>
		<path class="st1" d="M161.89873,87.73312c-0.0498,0.13867-0.05762,0.13867-0.22852,0.13867h-3.37207
			c-0.13086,0-0.19629,0-0.19629-0.08105c0-0.15527,0.07422-0.15527,0.2207-0.15527c0.49805,0,0.54688-0.06543,0.62012-0.35156
			l1.11914-4.49805c0.01563-0.04883,0.01563-0.07324,0.01563-0.12207c0-0.13086-0.22852-0.13086-0.43262-0.13086
			c-0.1543,0-0.21191,0-0.21191-0.08105c0-0.15527,0.08984-0.15527,0.15527-0.15527c0.31055,0,0.63672,0.0166,0.95508,0.0166
			c0.32617,0,0.66895-0.0166,0.99609-0.0166c0.06543,0,0.13086,0,0.13086,0.08984c0,0.14648-0.08203,0.14648-0.2207,0.14648
			h-0.05762c-0.62012,0-0.67773,0.07324-0.75098,0.37598l-1.11035,4.44043c-0.01563,0.05762-0.03223,0.12305-0.03223,0.18848
			c0,0.08887,0.00781,0.09766,0.24512,0.09766h0.66895c1.26563,0,1.61621-0.97168,1.85352-1.64063
			c0.07324-0.2041,0.08105-0.21289,0.1709-0.21289c0.05762,0,0.10645,0.02441,0.10645,0.08203
			c0,0.02441-0.0166,0.07324-0.02441,0.09766L161.89873,87.73312z"/>
	</g>
	<g>
		<g>
			<line class="st0" x1="165.93797" y1="56.81079" x2="204.41966" y2="56.81079"/>
			<g>
				<polygon class="st1" points="199.78078,62.53656 198.82579,61.51117 203.88234,56.81215 198.82579,52.11176 199.78078,51.08636 
					205.93797,56.81215 				"/>
			</g>
		</g>
	</g>
	<g>
		<g>
			<line class="st4" x1="132.99568" y1="95.45139" x2="5.72442" y2="24.83147"/>
			<g>
				<polygon class="st5" points="127.91991,87.54247 126.8627,88.46155 132.87607,95.38503 123.81927,93.9464 123.59955,95.32863 
					136.45482,97.37079 				"/>
			</g>
		</g>
	</g>
	<g>
		<g>
			<line class="st6" x1="136.45482" y1="24.83147" x2="136.45482" y2="93.41481"/>
			<g>
				<polygon class="st7" points="132.00189,85.13919 133.3185,84.66068 136.45482,93.27803 139.59114,84.66068 140.90639,85.13919 
					136.45482,97.37079 				"/>
			</g>
		</g>
	</g>
	<g>
		<g>
			<line class="st0" x1="216.98534" y1="106.41573" x2="216.98534" y2="1.5183"/>
			<g>
				<polygon class="st1" points="222.71112,6.15719 221.68573,7.11217 216.98671,2.05563 212.2863,7.11217 211.26093,6.15719 
					216.98671,0 				"/>
			</g>
		</g>
	</g>
	<g>
		<path class="st1" d="M226.00023,8.15531c-0.45558,0-1.40332,0-1.82275,0.03613V7.81986h0.31152
			c0.94774,0,0.98389-0.13232,0.98389-0.564V0.93558c0-0.43212-0.03613-0.564-0.98389-0.564h-0.31152V0
			c0.41943,0.03564,1.36719,0.03564,1.83501,0.03564c0.45557,0,1.40332,0,1.82275-0.03564v0.37158h-0.31152
			c-0.94775,0-0.9834,0.13184-0.9834,0.564V7.2559c0,0.43164,0.03564,0.564,0.9834,0.564h0.31152v0.37158
			C227.41574,8.15531,226.46799,8.15531,226.00023,8.15531z"/>
		<path class="st1" d="M236.58078,8.15531l-1.355,0.03613V7.81986c0.80322,0,0.93555,0,0.93555-0.54V4.48537
			c0-0.68359-0.13232-1.33106-0.8877-1.33106c-0.96487,0.0684-1.6916,0.90603-1.62321,1.8709
			c0.00114,0.01604,0.0025,0.03205,0.00407,0.04805V7.2798c0,0.54,0.13184,0.54,0.93555,0.54v0.37158l-1.34326-0.03613
			l-1.35547,0.03613V7.8198c0.80371,0,0.93555,0,0.93555-0.54V4.48537c0-0.68359-0.13184-1.33106-0.88721-1.33106
			c-0.96487,0.0684-1.6916,0.90603-1.62321,1.8709c0.00114,0.01604,0.0025,0.03205,0.00407,0.04805V7.2798
			c0,0.54,0.13184,0.54,0.93555,0.54v0.37158l-1.34325-0.03613l-1.35548,0.03613V7.8198c0.80371,0,0.93556,0,0.93556-0.54V4.06596
			c0-0.58789-0.09622-0.67188-0.93556-0.67188V3.0225l1.69093-0.13233v1.25928c0.26677-0.75234,0.97716-1.25621,1.77539-1.25928
			c0.76239-0.10504,1.46965,0.41644,1.59473,1.17579c0.29059-0.70601,0.9758-1.16925,1.73926-1.17579
			c0.46439-0.04267,0.92427,0.11942,1.25928,0.44385c0.37158,0.43164,0.37158,0.80371,0.37158,1.835v2.291
			c0.01221,0.35986,0.312,0.35986,0.93555,0.35986v0.37158L236.58078,8.15531z"/>
	</g>
	<g>
		<path class="st1" d="M363.46463,16.64639c-0.54718,0.0145-1.08206-0.16368-1.51123-0.50342
			c-0.4917-0.45604-0.4917-0.93555-0.4917-1.71533c0-0.80322,0-1.17529-0.45557-1.60693
			c-0.30161-0.28064-0.70374-0.42766-1.11523-0.40771h-1.37939v3.03418c0,0.43164,0.02393,0.564,0.94727,0.564h0.28809v0.37158
			c-0.43164-0.03613-1.2832-0.03613-1.75101-0.03613s-1.31934,0-1.75101,0.03613v-0.37158h0.2876
			c0.92334,0,0.94775-0.13232,0.94775-0.564V9.12686c0-0.43213-0.02441-0.564-0.94775-0.564h-0.2876V8.19128h3.76563
			c1.76318,0,3.13037,1.00732,3.13037,2.15869c0,0.93555-0.93555,1.66699-2.09863,1.95508
			c0.69519,0.17987,1.24832,0.70584,1.46289,1.39111l0.15625,0.95947c0.16748,1.11523,0.26367,1.72705,0.85156,1.72705
			c0.2998,0,0.71924-0.21582,0.7915-1.06738c0.01172-0.084,0.01172-0.19189,0.14355-0.19189
			c0.15625,0,0.15625,0.13184,0.15625,0.20361C364.60428,15.66296,364.40018,16.64639,363.46463,16.64639z M359.48318,8.56289
			c-0.23627-0.00623-0.47269,0.00175-0.70798,0.02394c-0.26367,0.03613-0.26367,0.18018-0.26367,0.45604v3.106h1.33105
			c1.77539,0,2.06299-0.97119,2.06299-1.79883C361.90555,8.61123,360.56229,8.56289,359.48318,8.56289z"/>
		<path class="st1" d="M367.63162,16.51455c-1.49316-0.03761-2.67383-1.27727-2.63867-2.77049
			c-0.06409-1.44319,1.05164-2.66615,2.49463-2.73439c1.17471-0.01712,2.1409,0.9213,2.15802,2.09601
			c0.00125,0.08502-0.00259,0.17003-0.01154,0.25459c0,0.25195-0.03564,0.25195-0.2998,0.25195h-3.34619
			c-0.04254,0.62096,0.0817,1.242,0.35986,1.79883c0.28162,0.48506,0.79474,0.78931,1.35544,0.80371
			c0.75504-0.004,1.41586-0.50819,1.61917-1.23535c0.02393-0.09572,0.04785-0.168,0.15576-0.168
			c0.07629-0.00923,0.14563,0.04515,0.15488,0.12146c0.00089,0.00748,0.00119,0.01501,0.00089,0.02254
			C369.40738,15.8756,368.57932,16.52036,367.63162,16.51455z M367.48764,11.27334c-0.40771,0-1.41553,0.29982-1.4873,2.08693
			h2.84229c-0.00006-0.46779-0.11969-2.08693-1.35504-2.08693H367.48764z"/>
	</g>
	<path class="st8" d="M246.98534,24.83146c0,2.67221-0.34938,5.26283-1.00494,7.72865"/>
	<g>
		<g>
			<line class="st0" x1="216.98534" y1="24.87641" x2="365.46704" y2="24.87641"/>
			<g>
				<polygon class="st1" points="360.82816,30.60218 359.87317,29.5768 364.92972,24.87778 359.87317,20.17737 360.82816,19.152 
					366.98532,24.87778 				"/>
			</g>
		</g>
	</g>
	<g>
		<g>
			<line class="st2" x1="216.98534" y1="24.8764" x2="346.19745" y2="24.8764"/>
			<g>
				<polygon class="st3" points="341.55856,30.60218 340.60358,29.5768 345.66013,24.87778 340.60358,20.17738 341.55856,19.15199 
					347.71573,24.87778 				"/>
			</g>
		</g>
	</g>
	<g>
		<path class="st1" d="M358.95441,43.07394c-0.25195,0.38379-0.64746,0.81543-1.25879,0.81543
			c-0.89941,0-0.89941-0.79199-0.89941-1.06738c0-0.3125,0.02344-0.43164,0.13184-1.1875
			c-0.34863,0.12012-0.70801,0.17969-1.08008,0.17969c-1.65527,0-2.68652-1.34277-2.68652-3.07031
			c0-2.77051,2.43457-5.625,4.8457-5.625c1.65527,0,2.6748,1.35547,2.6748,3.09424c0,1.73926-1.08008,4.22217-3.41895,5.27783
			c0,1.03125,0.18066,1.36719,0.71973,1.36719c0.56445,0,1.10352-0.54004,1.31934-1.22363
			c0.03613-0.13184,0.06055-0.17969,0.13184-0.17969c0.07227,0,0.12012,0.03613,0.12012,0.12012
			C359.55402,41.63448,359.32648,42.48605,358.95441,43.07394z M357.94757,33.38253c-0.98438,0-1.95508,0.7915-2.54297,1.64307
			c-1.10352,1.60742-1.30762,3.55029-1.30762,4.11377c0,0.94824,0.3125,1.91895,1.16406,2.2793
			c-0.04883-0.1084-0.07227-0.16797-0.07227-0.37207c0-0.55176,0.49121-1.24707,1.13965-1.24707
			c0.7793,0,0.89941,0.70801,0.92285,1.29492c1.94336-1.22266,2.49512-4.18555,2.49512-5.28906
			C359.7464,34.36642,359.03839,33.38253,357.94757,33.38253z M356.99933,40.87862c0-0.44336-0.0957-0.83887-0.6709-0.83887
			c-0.50391,0-0.90039,0.56348-0.90039,1.00684c0,0.50391,0.37207,0.50391,0.48047,0.50391
			c0.47949,0,0.91113-0.2041,1.06738-0.28809C356.98761,41.1423,356.99933,40.99874,356.99933,40.87862z"/>
		<path class="st1" d="M363.84796,46.22433h-3.0293c0-0.19531,0-0.21191,0.08984-0.30176l1.56738-1.74707
			c0.44922-0.50586,0.85742-1.15137,0.85742-1.80371c0-0.66992-0.35156-1.33105-1.09375-1.33105
			c-0.47363,0-0.91504,0.30176-1.10254,0.83301c0.02441-0.00879,0.04102-0.00879,0.10645-0.00879
			c0.28516,0,0.43262,0.21289,0.43262,0.4248c0,0.33496-0.28613,0.43262-0.4248,0.43262c-0.02441,0-0.43262,0-0.43262-0.45703
			c0-0.72656,0.60449-1.47754,1.52637-1.47754c0.99609,0,1.73145,0.65332,1.73145,1.58398
			c0,0.81641-0.49023,1.25684-1.76367,2.38379l-0.86523,0.84082h1.46973c0.17871,0,0.71777,0,0.77539-0.06543
			c0.08105-0.12305,0.13867-0.48145,0.17969-0.72656h0.2041L363.84796,46.22433z"/>
	</g>
	<g>
		<path class="st1" d="M283.55988,16.43331h-1.83496l-0.7793,3.08252l-0.02441,0.17969c0,0.10791,0,0.2041,0.67188,0.2041
			c0.17969,0,0.27539,0,0.27539,0.11963c0,0.22803-0.13184,0.22803-0.22754,0.22803c-0.41992,0-0.8877-0.02393-1.31934-0.02393
			s-0.87598,0.02393-1.29492,0.02393c-0.04883,0-0.16797,0-0.16797-0.12012c0-0.22754,0.10742-0.22754,0.32324-0.22754
			c0.73145,0,0.80371-0.09619,0.91211-0.51611l1.64258-6.60791c0.02441-0.07227,0.02441-0.10791,0.02441-0.18018
			c0-0.19189-0.33594-0.19189-0.63574-0.19189c-0.22852,0-0.3125,0-0.3125-0.11963c0-0.22803,0.1084-0.22803,0.32422-0.22803
			h3.42969c1.28418,0,2.0752,0.75537,2.0752,1.75098C286.64191,15.22189,285.0589,16.43331,283.55988,16.43331z M284.21906,12.40353
			h-1.04297c-0.39551,0-0.47949,0-0.58789,0.45557l-0.81543,3.28662h1.51074c1.0918,0,1.61914-0.57568,1.66699-0.61182
			c0.6123-0.67188,0.71973-1.79883,0.71973-2.01514C285.67023,12.79952,285.20245,12.40353,284.21906,12.40353z"/>
	</g>
	<g>
		<g>
			<line class="st4" x1="343.89325" y1="58.65886" x2="216.98534" y2="24.83147"/>
			<g>
				<polygon class="st5" points="337.0437,52.22471 336.24222,53.37365 343.76108,58.62363 334.62665,59.43467 334.75027,60.82878 
					347.71576,59.67775 				"/>
			</g>
		</g>
	</g>
	<g>
		<g>
			<line class="st6" x1="347.71576" y1="24.8764" x2="347.71576" y2="55.72177"/>
			<g>
				<polygon class="st7" points="343.26282,47.44614 344.57944,46.96764 347.71576,55.58499 350.85208,46.96764 352.16733,47.44614 
					347.71576,59.67775 				"/>
			</g>
		</g>
	</g>
</g>
<g id="Layer_3">
	<g>
	</g>
	<g>
	</g>
</g>
</svg>
