<svg id="Layer_1" data-name="Layer 1" xmlns="http://www.w3.org/2000/svg" viewBox="0 0 50 32">
  <defs>
    <style>
      .cls-1, .cls-2 {
        fill: none;
        stroke: #8ff4dd;
        stroke-miterlimit: 10;
      }

      .cls-1 {
        stroke-width: 2px;
      }

      .cls-2 {
        stroke-width: 0.5px;
      }

      .cls-3 {
        fill: #8ff4dd;
      }
    </style>
  </defs>
  <title>JKFlipFlop</title>
  <g>
    <rect class="cls-1" x="10" y="1" width="30" height="30"/>
    <line class="cls-1" x1="10" y1="6" y2="6"/>
    <line class="cls-1" x1="10" y1="26" y2="26"/>
    <line class="cls-1" x1="50" y1="6" x2="40" y2="6"/>
    <line class="cls-1" x1="50" y1="26" x2="40" y2="26"/>
    <line class="cls-2" x1="32.5" y1="20.5" x2="37.5" y2="20.5"/>
    <polyline class="cls-2" points="10.67 13.5 15 16 10.67 18.5"/>
    <line class="cls-1" x1="10" y1="16" y2="16"/>
    <path class="cls-3" d="M60.08008,78.25684v3.55078a2.67949,2.67949,0,0,1-.00781.35156A1.456,1.456,0,0,1,58.584,83.31836a1.18635,1.18635,0,0,1-1.27929-1.07129.44837.44837,0,1,1,.89648-.01562c0,.208-.09765.44726-.51172.44726a1.05484,1.05484,0,0,0,.87891.46387c.42383,0,.82422-.44727.82422-1.1836v-3.6455c0-.28028,0-.38379-.78516-.38379h-.28711v-.248c.30469.02441,1.00782.02441,1.34375.02441l1.03125-.02441v.248C60.19141,77.92969,60.08008,77.92969,60.08008,78.25684Z" transform="translate(-44 -74)"/>
    <path class="cls-3" d="M60.89063,101.70605c-.30469,0-.86329,0-1.14258.02442v-.248c.1582,0,.4707,0,.4707-.23926a.56891.56891,0,0,0-.11914-.27246l-1.44727-2.14257-.92773.87988v1.39844c0,.28808.01562.376.63086.376h.19141v.248c-.2793-.02442-.87891-.02442-1.18165-.02442-.30468,0-.89648,0-1.17578.02442v-.248h.19141c.61523,0,.63086-.08789.63086-.376v-4.2129c0-.28808-.01563-.376-.63086-.376h-.19141v-.248c.2793.02344.87891.02344,1.1836.02344.30273,0,.89453,0,1.17383-.02344v.248h-.19141c-.61524,0-.63086.08789-.63086.376v2.542l2.502-2.39063a.34539.34539,0,0,0,.14453-.26367c0-.07227-.04882-.25586-.36718-.26367v-.248c.27148.02344.72656.02344,1.01367.02344a6.492,6.492,0,0,0,.67969-.02344v.248a1.70531,1.70531,0,0,0-1.13478.47949l-1.43944,1.38281,1.84765,2.71875c.24024.35157.40821.38379.83985.38379v.248Z" transform="translate(-44 -74)"/>
    <path class="cls-3" d="M80.542,84.33992c-.71972,0-.82373-.6875-.95166-1.50293a2.458,2.458,0,0,1-.75146.12012,2.75383,2.75383,0,0,1-2.61476-2.87887,2.62678,2.62678,0,1,1,5.22119,0,2.8884,2.8884,0,0,1-1.623,2.66309c.19189.55957.376.85547.78369.85547a.75593.75593,0,0,0,.72754-.76758c.00781-.05566.00781-.1123.07177-.1123.08008,0,.08008.07226.08008.15234C81.48535,82.94149,81.47754,84.33992,80.542,84.33992ZM78.83106,77.336c-.7998,0-1.87939.74365-1.87939,2.73437,0,1.72754.7998,2.415,1.3916,2.623a.77485.77485,0,0,1-.12793-.4082.64634.64634,0,0,1,.62013-.67153l.01122-.00035c.52,0,.74365.47168.87988.87207a2.78392,2.78392,0,0,0,.99121-2.415C80.71777,78.1036,79.67041,77.336,78.83106,77.336Zm.01563,4.4375a.48871.48871,0,0,0-.47168.5039.477.477,0,0,0,.44926.5033l.01461.00061a1.53362,1.53362,0,0,0,.71142-.18457C79.4624,82.14949,79.30273,81.77352,78.84669,81.77352Z" transform="translate(-44 -74)"/>
    <path class="cls-3" d="M80.542,103.33992c-.71972,0-.82373-.6875-.95166-1.50293a2.458,2.458,0,0,1-.75146.12012,2.75383,2.75383,0,0,1-2.61476-2.87887,2.62678,2.62678,0,1,1,5.22119,0,2.8884,2.8884,0,0,1-1.623,2.66309c.19189.55957.376.85547.78369.85547a.75593.75593,0,0,0,.72754-.76758c.00781-.05566.00781-.1123.07177-.1123.08008,0,.08008.07226.08008.15234C81.48535,101.94149,81.47754,103.33992,80.542,103.33992ZM78.83106,96.336c-.7998,0-1.87939.74365-1.87939,2.73437,0,1.72754.7998,2.415,1.3916,2.623a.77485.77485,0,0,1-.12793-.4082.64634.64634,0,0,1,.62013-.67153l.01122-.00035c.52,0,.74365.47168.87988.87207a2.78392,2.78392,0,0,0,.99121-2.415C80.71777,97.1036,79.67041,96.336,78.83106,96.336Zm.01563,4.4375a.48871.48871,0,0,0-.47168.5039.477.477,0,0,0,.44926.5033l.01461.00061a1.53362,1.53362,0,0,0,.71142-.18457C79.4624,101.14949,79.30273,100.77352,78.84669,100.77352Z" transform="translate(-44 -74)"/>
  </g>
</svg>
