<svg id="Layer_1" data-name="Layer 1" xmlns="http://www.w3.org/2000/svg" viewBox="0 0 50 32">
  <defs>
    <style>
      .cls-1, .cls-2 {
        fill: none;
        stroke: #8ff4dd;
        stroke-miterlimit: 10;
      }

      .cls-1 {
        stroke-width: 2px;
      }

      .cls-2 {
        stroke-width: 0.5px;
      }

      .cls-3 {
        fill: #8ff4dd;
      }
    </style>
  </defs>
  <title>JKFlipFlop</title>
  <rect class="cls-1" x="10" y="1" width="30" height="30"/>
  <line class="cls-1" x1="10" y1="6" y2="6"/>
  <line class="cls-1" x1="10" y1="26" y2="26"/>
  <line class="cls-1" x1="50" y1="6" x2="40" y2="6"/>
  <line class="cls-1" x1="50" y1="26" x2="40" y2="26"/>
  <line class="cls-2" x1="32.5" y1="20.5" x2="37.5" y2="20.5"/>
  <polyline class="cls-2" points="10.67 13.5 15 16 10.67 18.5"/>
  <line class="cls-1" x1="10" y1="16" y2="16"/>
  <path class="cls-3" d="M91.08008,88.25684v3.55078a2.67949,2.67949,0,0,1-.00781.35156A1.456,1.456,0,0,1,89.584,93.31836a1.18635,1.18635,0,0,1-1.27929-1.07129.44837.44837,0,1,1,.89648-.01562c0,.208-.09765.44726-.51172.44726a1.05484,1.05484,0,0,0,.87891.46387c.42383,0,.82422-.44727.82422-1.1836v-3.6455c0-.28028,0-.38379-.78516-.38379h-.28711v-.248c.30469.02441,1.00782.02441,1.34375.02441l1.03125-.02441v.248C91.19141,87.92969,91.08008,87.92969,91.08008,88.25684Z" transform="translate(-75 -84)"/>
  <path class="cls-3" d="M91.89063,111.70605c-.30469,0-.86329,0-1.14258.02442v-.248c.1582,0,.4707,0,.4707-.23926a.56891.56891,0,0,0-.11914-.27246l-1.44727-2.14257-.92773.87988v1.39844c0,.28808.01562.376.63086.376h.19141v.248c-.2793-.02442-.87891-.02442-1.18165-.02442-.30468,0-.89648,0-1.17578.02442v-.248h.19141c.61523,0,.63086-.08789.63086-.376v-4.2129c0-.28808-.01563-.376-.63086-.376h-.19141v-.248c.2793.02344.87891.02344,1.1836.02344.30273,0,.89453,0,1.17383-.02344v.248h-.19141c-.61524,0-.63086.08789-.63086.376v2.542l2.502-2.39063a.34539.34539,0,0,0,.14453-.26367c0-.07227-.04882-.25586-.36718-.26367v-.248c.27148.02344.72656.02344,1.01367.02344a6.492,6.492,0,0,0,.67969-.02344v.248a1.70531,1.70531,0,0,0-1.13478.47949l-1.43944,1.38281,1.84765,2.71875c.24024.35157.40821.38379.83985.38379v.248Z" transform="translate(-75 -84)"/>
  <path class="cls-3" d="M111.43555,111.31055a4.31506,4.31506,0,0,1,.13769.4375,2.09571,2.09571,0,0,0,.2627.67578.36036.36036,0,0,0,.28515.15625.30578.30578,0,0,0,.25586-.167,1.11551,1.11551,0,0,0,.11524-.55567h.23437a1.65793,1.65793,0,0,1-.27343,1.03809.85994.85994,0,0,1-.70313.333.79211.79211,0,0,1-.6543-.32227,2.50985,2.50985,0,0,1-.334-1.23633,3.76551,3.76551,0,0,1-.42188.082,2.85558,2.85558,0,0,1-.38671.02735,2.51891,2.51891,0,0,1-1.3418-.377,2.653,2.653,0,0,1-.97656-1.082,3.43546,3.43546,0,0,1-.36133-1.59179,3.06873,3.06873,0,0,1,.8164-2.14844,2.40147,2.40147,0,0,1,1.84375-.8086,2.53249,2.53249,0,0,1,1.34766.37305,2.69022,2.69022,0,0,1,.97656,1.07031,3.23726,3.23726,0,0,1-.82226,4.09571Zm-.19336-.53907a3.28173,3.28173,0,0,0,.30859-.8623,5.769,5.769,0,0,0,.09766-1.16309,4.54175,4.54175,0,0,0-.21485-1.55566,1.7384,1.7384,0,0,0-.60546-.84473,1.50451,1.50451,0,0,0-.88282-.27343,1.46514,1.46514,0,0,0-.86914.27343,1.76318,1.76318,0,0,0-.60156.85254,4.62566,4.62566,0,0,0-.2168,1.5752,4.91838,4.91838,0,0,0,.12891,1.20605,3.52936,3.52936,0,0,0,.40234.95606c-.00488-.11963-.00781-.21534-.00781-.28809a1.07894,1.07894,0,0,1,.31055-.79492,1.1,1.1,0,0,1,.81445-.31152,1.16452,1.16452,0,0,1,.85156.33886A2.45238,2.45238,0,0,1,111.24219,110.77148Zm-.48047.4961a2.25527,2.25527,0,0,0-.18359-1.01953.7296.7296,0,0,0-.6836-.40625.80293.80293,0,0,0-.83594.83984,1.04043,1.04043,0,0,0,.28907.69531,1.44068,1.44068,0,0,0,.582.1211,1.6121,1.6121,0,0,0,.4414-.0586A1.53233,1.53233,0,0,0,110.76172,111.26758Z" transform="translate(-75 -84)"/>
  <path class="cls-3" d="M111.43555,92.81055a4.31506,4.31506,0,0,1,.13769.4375,2.09571,2.09571,0,0,0,.2627.67578.36036.36036,0,0,0,.28515.15625.30578.30578,0,0,0,.25586-.167,1.11551,1.11551,0,0,0,.11524-.55567h.23437a1.65793,1.65793,0,0,1-.27343,1.03809.85994.85994,0,0,1-.70313.333.79211.79211,0,0,1-.6543-.32227,2.50985,2.50985,0,0,1-.334-1.23633,3.76551,3.76551,0,0,1-.42188.082,2.85558,2.85558,0,0,1-.38671.02735,2.51891,2.51891,0,0,1-1.3418-.377,2.653,2.653,0,0,1-.97656-1.082,3.43546,3.43546,0,0,1-.36133-1.59179,3.06873,3.06873,0,0,1,.8164-2.14844,2.40147,2.40147,0,0,1,1.84375-.8086,2.53249,2.53249,0,0,1,1.34766.37305,2.69022,2.69022,0,0,1,.97656,1.07031,3.23726,3.23726,0,0,1-.82226,4.09571Zm-.19336-.53907a3.28173,3.28173,0,0,0,.30859-.8623,5.769,5.769,0,0,0,.09766-1.16309,4.54175,4.54175,0,0,0-.21485-1.55566,1.7384,1.7384,0,0,0-.60546-.84473,1.50451,1.50451,0,0,0-.88282-.27343,1.46514,1.46514,0,0,0-.86914.27343,1.76318,1.76318,0,0,0-.60156.85254,4.62566,4.62566,0,0,0-.2168,1.5752,4.91838,4.91838,0,0,0,.12891,1.20605,3.52936,3.52936,0,0,0,.40234.95606c-.00488-.11963-.00781-.21534-.00781-.28809a1.07894,1.07894,0,0,1,.31055-.79492,1.1,1.1,0,0,1,.81445-.31152,1.16452,1.16452,0,0,1,.85156.33886A2.45238,2.45238,0,0,1,111.24219,92.27148Zm-.48047.4961a2.25527,2.25527,0,0,0-.18359-1.01953.7296.7296,0,0,0-.6836-.40625.80293.80293,0,0,0-.83594.83984,1.04043,1.04043,0,0,0,.28907.69531,1.44068,1.44068,0,0,0,.582.1211,1.6121,1.6121,0,0,0,.4414-.0586A1.53233,1.53233,0,0,0,110.76172,92.76758Z" transform="translate(-75 -84)"/>
</svg>
