<svg id="Layer_1" data-name="Layer 1" xmlns="http://www.w3.org/2000/svg" viewBox="0 0 117.49616 82">
  <defs>
    <style>
      .cls-1, .cls-3, .cls-4 {
        fill: none;
        stroke: #8ff4dd;
        stroke-miterlimit: 10;
      }

      .cls-1, .cls-4 {
        stroke-width: 2px;
      }

      .cls-2 {
        fill: #8ff4dd;
      }

      .cls-3 {
        stroke-width: 0.5px;
      }

      .cls-4 {
        stroke-linecap: square;
      }
    </style>
  </defs>
  <title>LevelVSEdgeTriggeredCircuit</title>
  <g>
    <rect class="cls-1" x="66.59768" y="1" width="30" height="30"/>
    <line class="cls-1" x1="66.59768" y1="6" x2="56.59768" y2="6"/>
    <line class="cls-1" x1="66.59768" y1="26" x2="56.59768" y2="26"/>
    <line class="cls-1" x1="106.59768" y1="6" x2="96.59768" y2="6"/>
    <line class="cls-1" x1="106.59768" y1="26" x2="96.59768" y2="26"/>
    <path class="cls-2" d="M71.83741,8.73036H68.91114v-.248H69.103c.61572,0,.63184-.08789.63184-.376V3.89345c0-.28809-.01612-.376-.63184-.376h-.19189v-.248h2.92627a2.62353,2.62353,0,0,1,2.44677,2.77441,2.56823,2.56823,0,0,1-2.44432,2.6864Zm1.23144-4.46972a1.7244,1.7244,0,0,0-1.45508-.74317H70.814c-.37549,0-.39161.05567-.39161.31934V8.163c0,.26367.01612.31935.39161.31935h.80761A1.75268,1.75268,0,0,0,73.045,7.80266a2.743,2.743,0,0,0,.43994-1.75879A3.09257,3.09257,0,0,0,73.06885,4.26064Z" transform="translate(0.00002)"/>
    <g>
      <path class="cls-2" d="M73.54346,28.578h-4.6138V28.33h.1919c.61573,0,.63183-.08789.63183-.376V23.76455c0-.28809-.01612-.376-.63183-.376h-.1919v-.248h4.5015l.22412,1.79981h-.1997c-.12793-1.11133-.34375-1.55176-1.56738-1.55176H70.857c-.376,0-.39209.05664-.39209.32032v1.919h.71971c.77588,0,.86377-.248.86377-.93555h.19971v2.119h-.19971c0-.67969-.08789-.93555-.86377-.93555h-.71971v2.13478c0,.26367.01612.31934.39209.31934h1.06346c1.375,0,1.55909-.584,1.75879-1.81446h.20021Z" transform="translate(0.00002)"/>
      <path class="cls-2" d="M77.4961,28.55361l-.90381.02441V28.33c.53564,0,.624,0,.624-.35938v-1.8633c0-.45606-.08838-.8877-.59179-.8877a1.16817,1.16817,0,0,0-1.08223,1.24817l.00264.03113V27.9706c0,.35938.08789.35938.62353.35938v.248l-.89551-.02441-.90326.02443V28.33c.53566,0,.62355,0,.62355-.35938V25.828c0-.39258-.064-.44824-.62355-.44824v-.248l1.12744-.08789v.83985a1.25988,1.25988,0,0,1,1.18312-.83985,1.06783,1.06783,0,0,1,.83984.2959c.24756.28809.24756.53613.24756,1.22363v1.52735c.0083.23926.208.23926.624.23926v.248Z" transform="translate(0.00002)"/>
    </g>
    <g>
      <rect class="cls-1" x="66.59768" y="51" width="30" height="30"/>
      <line class="cls-1" x1="66.59768" y1="56" x2="56.59768" y2="56"/>
      <line class="cls-1" x1="66.59768" y1="76" x2="56.59768" y2="76"/>
      <line class="cls-1" x1="106.59768" y1="56" x2="96.59768" y2="56"/>
      <line class="cls-1" x1="106.59768" y1="76" x2="96.59768" y2="76"/>
      <path class="cls-2" d="M71.83692,58.73047H68.91114v-.248h.1914c.61621,0,.63184-.08789.63184-.37549V53.89312c0-.2876-.01563-.37549-.63184-.37549h-.1914v-.248h2.92578a2.62422,2.62422,0,0,1,2.44726,2.77442,2.5683,2.5683,0,0,1-2.44458,2.6863Zm1.23144-4.46973a1.72438,1.72438,0,0,0-1.45507-.74315h-.79982c-.376,0-.3916.05565-.3916.31932v4.3257c0,.26416.01561.31981.3916.31981h.80762a1.7533,1.7533,0,0,0,1.42382-.67969,2.74631,2.74631,0,0,0,.43946-1.75878A3.09355,3.09355,0,0,0,73.06836,54.26074Z" transform="translate(0.00002)"/>
      <polyline class="cls-3" points="67.268 73.5 71.598 76 67.268 78.5"/>
    </g>
  </g>
  <g>
    <path class="cls-4" d="M56.59766,55" transform="translate(0.00002)"/>
    <line class="cls-4" x1="56.59768" y1="26" x2="31.59768" y2="26"/>
    <polyline class="cls-4" points="56.598 56 56.598 6 31.598 6"/>
    <polyline class="cls-4" points="56.598 76 44.598 76 44.598 26"/>
    <path class="cls-2" d="M23.13766,9.89893H18.74805V9.52734h.2876c.92334,0,.94775-.13231.94775-.564V2.64307c0-.43213-.02441-.564-.94775-.564h-.2876V1.70749h4.38961a3.93544,3.93544,0,0,1,3.67,4.16165,3.852,3.852,0,0,1-3.6658,4.0296h0Zm1.84668-6.70411A2.58593,2.58593,0,0,0,22.80176,2.0791H21.60254c-.564,0-.58789.084-.58789.48V9.04738c0,.396.02394.48.58789.48h1.21094a2.62878,2.62878,0,0,0,2.13477-1.01953,4.11365,4.11365,0,0,0,.65966-2.63867,4.638,4.638,0,0,0-.62353-2.67436Z" transform="translate(0.00002)"/>
    <g>
      <path class="cls-2" d="M4.17334,29.1626a4.36378,4.36378,0,0,1,0-8.71924,2.94217,2.94217,0,0,1,2.207,1.03174L6.98,20.58739c.09571-.144.14405-.144.1919-.144.13183,0,.13183.084.13183.28809v2.84228c0,.252,0,.28809-.19189.28809-.168,0-.168-.03614-.19189-.20411-.23975-1.751-1.30713-2.84227-2.61475-2.84227-.73145,0-3.07031.4077-3.07031,3.99365,0,3.57422,2.35107,3.98194,3.08252,3.98194a2.71593,2.71593,0,0,0,2.68652-2.69873c.01221-.11963.01221-.1919.144-.1919.15576,0,.15576.084.15576.2041A3.13588,3.13588,0,0,1,4.17334,29.1626Z" transform="translate(0.00002)"/>
      <path class="cls-2" d="M9.71924,28.86279l-1.331.03614v-.37159c.80322,0,.93506,0,.93506-.54V21.751c0-.58789-.09571-.67188-.93506-.67188v-.37159l1.72705-.13184V27.9873c0,.54.13183.54.93506.54v.37159Z" transform="translate(0.00002)"/>
      <path class="cls-2" d="M14.31446,29.03076a2.67158,2.67158,0,1,1,.0169-.00011Zm1.35547-4.46142a1.57239,1.57239,0,0,0-1.35547-.77979,1.60947,1.60947,0,0,0-1.36719.80371,3.43616,3.43616,0,0,0-.28809,1.64307,3.568,3.568,0,0,0,.29981,1.69092,1.56788,1.56788,0,0,0,1.36767.80375,1.547,1.547,0,0,0,1.39112-.8872,3.64712,3.64712,0,0,0,.26367-1.60743A3.29453,3.29453,0,0,0,15.66993,24.56934Z" transform="translate(0.00002)"/>
      <path class="cls-2" d="M20.65039,29.03076a2.65445,2.65445,0,0,1-2.57861-2.72217,2.688,2.688,0,0,1,2.59027-2.78229l.01227-.00041c.92334,0,1.835.46777,1.835,1.2832a.55158.55158,0,0,1-1.10284.02673h0q-.00015-.00726-.00016-.01452a.5411.5411,0,0,1,.52986-.55211h0q.01678-.00034.03359.00035a1.95638,1.95638,0,0,0-1.2832-.44385c-.63574,0-1.61914.50391-1.61914,2.4585,0,1.93116,1.05516,2.44678,1.69091,2.44678a1.56684,1.56684,0,0,0,1.57128-1.25928c.02394-.07177.04786-.12011.15577-.12011.03614,0,.15577,0,.15577.12011A1.97325,1.97325,0,0,1,20.65039,29.03076Z" transform="translate(0.00002)"/>
      <path class="cls-2" d="M27.74121,28.86279l-1.29541.03614v-.37159c.22754,0,.43165-.04834.43165-.27588a9.98046,9.98046,0,0,0-1.42726-2.15917l-.76758.65966V27.9873c0,.54.13185.54.93555.54v.37159l-1.31934-.03614-1.30713.03614V28.5273c.80323,0,.93554,0,.93554-.54V21.751c0-.58789-.09619-.67188-.93554-.67188v-.37159l1.727-.13184v5.75684l1.691-1.46339a.62144.62144,0,0,0,.26367-.46777c0-.15576-.11963-.2876-.34765-.29982V23.73c.168.01172.91162.03566,1.34326.03566a6.71681,6.71681,0,0,0,.83985-.03566v.37159a2.37734,2.37734,0,0,0-1.51124.64746,12.8458,12.8458,0,0,0-.97167.86377c0,.03614.06005.10791.07177.13184l1.52344,2.147c.45556.63574.71972.63574,1.16308.63574v.3716Q28.26267,28.863,27.74121,28.86279Z" transform="translate(0.00002)"/>
    </g>
    <circle class="cls-2" cx="44.59768" cy="26" r="2.5"/>
    <circle class="cls-2" cx="56.59768" cy="6" r="2.5"/>
    <path class="cls-2" d="M115.97266,9.89893h-6.24855V9.52734h.2876c.92334,0,.94727-.13231.94727-.564V2.64307c0-.43213-.02393-.564-.94727-.564h-.2876V1.70749c.41944.03564,1.355.03564,1.82277.03564.49169,0,1.583,0,2.01513-.03564v.37158h-.396c-1.13916,0-1.13916.168-1.13916.57569V9.04733c0,.396.02393.48.5874.48h.9834c2.11084,0,2.27881-1.49952,2.41064-2.72265h.29981Z" transform="translate(0.00002)"/>
    <path class="cls-2" d="M116.99219,59.48291h-6.91992v-.37158h.28759c.92334,0,.94775-.13233.94775-.564V52.2627c0-.43165-.02441-.56347-.94775-.56347h-.28759v-.37207h6.75195l.33594,2.69873h-.2998c-.1919-1.667-.51563-2.32666-2.35059-2.32666H112.9624c-.56347,0-.58741.084-.58741.47949v2.87842h1.07912c1.16357,0,1.29541-.37159,1.29541-1.40284h.29981v3.17823h-.29981c0-1.01953-.13184-1.40332-1.29541-1.40332H112.375v3.20215c0,.396.02393.48.58741.48h1.59526c2.063,0,2.33886-.876,2.63867-2.72266h.2998Z" transform="translate(0.00002)"/>
  </g>
  <g>
    <line class="cls-3" x1="88.95883" y1="20.54679" x2="93.95883" y2="20.54679"/>
    <path class="cls-2" d="M93.15427,10.38671c-.71972,0-.82373-.6875-.95166-1.50293a2.458,2.458,0,0,1-.75146.12012A2.75382,2.75382,0,0,1,88.83639,6.125a2.62678,2.62678,0,1,1,5.22119,0,2.88844,2.88844,0,0,1-1.623,2.66309c.19188.55957.376.85547.78369.85547a.75594.75594,0,0,0,.72754-.76758c.00781-.05566.00781-.1123.07177-.1123.08008,0,.08008.07226.08008.15234C94.09762,8.98828,94.08981,10.38671,93.15427,10.38671Zm-1.71094-7.0039c-.79981,0-1.8794.74365-1.8794,2.73437,0,1.72754.79981,2.415,1.39161,2.62305a.77462.77462,0,0,1-.12793-.4082.64634.64634,0,0,1,.62011-.67154h0l.01123-.00034c.52,0,.74366.47168.87989.87207a2.784,2.784,0,0,0,.99121-2.415C93.33,4.15039,92.28268,3.38281,91.44333,3.38281Zm.01562,4.4375a.48872.48872,0,0,0-.47168.5039.477.477,0,0,0,.44916.5033h.00009l.01462.00061a1.53367,1.53367,0,0,0,.71141-.18457c-.08788-.44727-.24755-.82324-.70355-.82324Z" transform="translate(0.00002)"/>
    <path class="cls-2" d="M93.15427,29.38671c-.71972,0-.82373-.6875-.95166-1.50293a2.458,2.458,0,0,1-.75146.12012,2.75382,2.75382,0,0,1-2.61476-2.8789,2.62678,2.62678,0,1,1,5.22119,0,2.88844,2.88844,0,0,1-1.623,2.66309c.19188.55957.376.85547.78369.85547a.75594.75594,0,0,0,.72754-.76758c.00781-.05566.00781-.1123.07177-.1123.08008,0,.08008.07226.08008.15234C94.09762,27.98828,94.08981,29.38671,93.15427,29.38671Zm-1.71094-7.0039c-.79981,0-1.8794.74365-1.8794,2.73437,0,1.72754.79981,2.415,1.39161,2.623a.77468.77468,0,0,1-.12793-.4082.64634.64634,0,0,1,.62011-.67154l.01123-.00034c.52,0,.74366.47168.87989.87207a2.784,2.784,0,0,0,.99121-2.415C93.33,23.15039,92.28268,22.38281,91.44333,22.38281Zm.01562,4.4375a.48872.48872,0,0,0-.47168.5039.477.477,0,0,0,.44916.50329h.00009l.01462.00061a1.53379,1.53379,0,0,0,.71141-.18457c-.08788-.44727-.24755-.82324-.70355-.82324Z" transform="translate(0.00002)"/>
  </g>
  <g>
    <line class="cls-3" x1="89.07455" y1="70.25" x2="94.07455" y2="70.25"/>
    <path class="cls-2" d="M93.27,60.08992c-.71972,0-.82373-.6875-.95166-1.50293a2.45774,2.45774,0,0,1-.75146.12012,2.75383,2.75383,0,0,1-2.61476-2.87887,2.62678,2.62678,0,1,1,5.22119,0,2.8884,2.8884,0,0,1-1.623,2.66309c.19189.55957.376.85547.7837.85547a.75593.75593,0,0,0,.72753-.76758c.00781-.05566.00781-.1123.07177-.1123.08008,0,.08008.07226.08008.15234C94.21333,58.69149,94.20552,60.08992,93.27,60.08992ZM91.559,53.086c-.7998,0-1.87939.74365-1.87939,2.73437,0,1.72754.7998,2.415,1.3916,2.623a.77491.77491,0,0,1-.12793-.4082.64634.64634,0,0,1,.62013-.67153h0l.01122-.00035c.52,0,.74365.47168.87988.87207a2.78389,2.78389,0,0,0,.99121-2.415C93.44575,53.8536,92.39839,53.086,91.559,53.086Zm.01563,4.4375a.48872.48872,0,0,0-.47168.5039.477.477,0,0,0,.44917.50329h.00009l.01461.00061a1.53362,1.53362,0,0,0,.71142-.18457c-.08786-.44725-.24753-.82322-.70357-.82322Z" transform="translate(0.00002)"/>
    <path class="cls-2" d="M93.27,79.08992c-.71972,0-.82373-.6875-.95166-1.50293a2.45835,2.45835,0,0,1-.75146.12012,2.75383,2.75383,0,0,1-2.61476-2.87887,2.62678,2.62678,0,1,1,5.22119,0,2.8884,2.8884,0,0,1-1.623,2.66309c.19189.55957.376.85547.7837.85547a.75593.75593,0,0,0,.72753-.76758c.00781-.05565.00781-.11229.07177-.11229.08008,0,.08008.07225.08008.15234C94.21333,77.69149,94.20552,79.08992,93.27,79.08992ZM91.559,72.086c-.7998,0-1.87939.74365-1.87939,2.73437,0,1.72753.7998,2.415,1.3916,2.623a.775.775,0,0,1-.12793-.40821.64634.64634,0,0,1,.62013-.67153h0l.01122-.00035c.52,0,.74365.47168.87988.87207a2.78389,2.78389,0,0,0,.99121-2.415C93.44575,72.8536,92.39839,72.086,91.559,72.086Zm.01563,4.4375a.48872.48872,0,0,0-.47168.5039.477.477,0,0,0,.44917.50329h.00009l.01461.00061a1.53349,1.53349,0,0,0,.71142-.18457c-.08786-.44725-.24753-.82322-.70357-.82322Z" transform="translate(0.00002)"/>
  </g>
</svg>
