<svg id="Layer_1" data-name="Layer 1" xmlns="http://www.w3.org/2000/svg" viewBox="0 0 193.19374 77">
  <defs>
    <style>
      .cls-1, .cls-2, .cls-3, .cls-4 {
        fill: none;
        stroke-miterlimit: 10;
        stroke-width: 2px;
      }

      .cls-1 {
        stroke: #8ff4dd;
      }

      .cls-2 {
        stroke: #fd1d53;
      }

      .cls-3 {
        stroke: #ff6c11;
      }

      .cls-4 {
        stroke: #f9c80e;
      }

      .cls-5 {
        fill: #8ff4dd;
      }
    </style>
  </defs>
  <title>LevelVSEdgeTriggeredTiming</title>
  <g id="Layer_3" data-name="Layer 3">
    <polyline class="cls-1" points="28.194 16 43.194 16 43.194 1 88.194 1 88.194 16 133.194 16 133.194 1 178.194 1 178.194 16 193.194 16"/>
    <polyline class="cls-2" points="28.194 21 58.194 21 58.194 36 73.194 36 73.194 21 103.194 21 103.194 36 118.194 36 118.194 21 128.194 21 128.194 36 148.194 36 148.194 21 163.194 21 163.194 36 193.194 36"/>
    <polyline class="cls-3" points="193.194 56 163.194 56 163.194 41 148.194 41 148.194 56 133.194 56 133.194 41 73.194 41 73.194 56 58.194 56 58.194 41 43.194 41 43.194 56 28.194 56"/>
    <polyline class="cls-4" points="28.194 76 43.194 76 43.194 61 133.194 61 133.194 76 193.194 76"/>
    <g>
      <path class="cls-5" d="M131.88232,13.97754a3.63626,3.63626,0,0,1,0-7.26563,2.45024,2.45024,0,0,1,1.83936.85938l.49953-.74024c.08006-.11914.12011-.11914.16015-.11914.10987,0,.10987.06934.10987.23925V9.3203c0,.21,0,.23926-.16016.23926-.13963,0-.13963-.02929-.15965-.16992-.2002-1.459-1.08936-2.36817-2.17873-2.36817-.60986,0-2.55859.33985-2.55859,3.32813,0,2.97853,1.95849,3.31836,2.56836,3.31836a2.264,2.264,0,0,0,2.23875-2.249c.00977-.09961.00977-.16016.12012-.16016.12988,0,.12988.07032.12988.16993A2.61372,2.61372,0,0,1,131.88232,13.97754Z" transform="translate(-128.40425 -2.5)"/>
      <path class="cls-5" d="M136.50391,13.72754l-1.10987.03027v-.31054c.66992,0,.77979,0,.77979-.44922V7.80078c0-.48926-.08008-.55957-.77979-.55957V6.93164l1.43946-.11035V12.998c0,.44922.10986.44922.77978.44922v.31053Z" transform="translate(-128.40425 -2.5)"/>
      <path class="cls-5" d="M140.3335,13.86719a2.23059,2.23059,0,0,1-2.209-2.248,2.21721,2.21721,0,1,1,4.42773,0,2.22679,2.22679,0,0,1-2.20547,2.24791h0Zm1.12939-3.71778A1.30986,1.30986,0,0,0,140.3335,9.5a1.34146,1.34146,0,0,0-1.13965.66992,2.86627,2.86627,0,0,0-.23975,1.36914,2.9746,2.9746,0,0,0,.25,1.40918,1.30424,1.30424,0,0,0,1.13916.669,1.28885,1.28885,0,0,0,1.15965-.73926,3.03614,3.03614,0,0,0,.21973-1.33887A2.74492,2.74492,0,0,0,141.46289,10.14941Z" transform="translate(-128.40425 -2.5)"/>
      <path class="cls-5" d="M145.6133,13.86719a2.21194,2.21194,0,0,1-2.14893-2.26856,2.23957,2.23957,0,0,1,2.15823-2.318l.01072-.00035c.76954,0,1.5288.38964,1.5288,1.06934a.45977.45977,0,1,1-.91931.02069V10.3694l-.00011-.01a.45151.45151,0,0,1,.44257-.46028h0c.009-.00018.01811-.00008.02716.00028a1.63008,1.63008,0,0,0-1.06934-.36914c-.52978,0-1.34912.419-1.34912,2.04883,0,1.6084.8794,2.03809,1.40918,2.03809a1.3042,1.3042,0,0,0,1.30908-1.04882c.02-.06055.04-.09961.12989-.09961.03027,0,.13037,0,.13037.09961A1.64467,1.64467,0,0,1,145.6133,13.86719Z" transform="translate(-128.40425 -2.5)"/>
      <path class="cls-5" d="M151.522,13.72754l-1.07959.03027v-.31054c.18994,0,.35987-.03907.35987-.2295a8.33475,8.33475,0,0,0-1.18949-1.79877l-.63965.5498V12.998c0,.44922.10987.44922.77979.44922v.31053l-1.09961-.03027-1.08936.03027v-.31053c.66993,0,.77979,0,.77979-.44922V7.80078c0-.48926-.08006-.55957-.77979-.55957V6.93164l1.43946-.11035v4.79785l1.40918-1.21973a.519.519,0,0,0,.21972-.38964c0-.12989-.10009-.24024-.29-.25V9.4502c.14014.00976.75977.02929,1.11963.02929a5.67113,5.67113,0,0,0,.69971-.02929v.30957a1.97811,1.97811,0,0,0-1.25928.54,10.65056,10.65056,0,0,0-.80957.71973c0,.0293.0498.08985.06006.10938l1.269,1.78907c.37988.52929.5996.52929.96972.52929v.31054Q151.95654,13.727,151.522,13.72754Z" transform="translate(-128.40425 -2.5)"/>
    </g>
    <path class="cls-5" d="M149.3335,34.41309h-3.65821V34.103h.24024c.76953,0,.78955-.10987.78955-.46973V28.36621c0-.35937-.02-.46973-.78955-.46973h-.24024v-.30957h3.65821a3.27939,3.27939,0,0,1,3.0581,3.46827,3.20953,3.20953,0,0,1-3.05415,3.35773h0Zm1.53906-5.58692a2.1557,2.1557,0,0,0-1.81885-.92969h-.99951c-.46973,0-.48975.07032-.48975.39991v5.40722c0,.32959.02.39942.48975.39942h1.00928a2.19231,2.19231,0,0,0,1.77929-.84912,3.42839,3.42839,0,0,0,.54981-2.19873A3.86673,3.86673,0,0,0,150.87256,28.82617Z" transform="translate(-128.40425 -2.5)"/>
    <path class="cls-5" d="M152.11182,54.41309H146.9043V54.103h.24023c.76953,0,.78955-.10987.78955-.46973V48.36618c0-.35937-.02-.46973-.78955-.46973h-.24023v-.30957c.35009.0298,1.12939.0298,1.51953.0298.40967,0,1.31933,0,1.67871-.0298v.30957H149.773c-.9497,0-.9497.14014-.9497.48V53.7036c0,.32959.02.39942.48974.39942h.81983c1.75879,0,1.89892-1.249,2.00879-2.26856h.25Z" transform="translate(-128.40425 -2.5)"/>
    <path class="cls-5" d="M151.97165,74.39819h-5.76709v-.31006h.24023c.76953,0,.78955-.10986.78955-.46971V68.38159c0-.35986-.02-.46972-.78955-.46972h-.24023v-.31006h5.627l.28027,2.249h-.25c-.16015-1.38916-.42969-1.939-1.959-1.939h-1.28955c-.46973,0-.48974.06982-.48974.3999v2.39846h.8999c.96924,0,1.0791-.31006,1.0791-1.16944h.25v2.64843h-.25c0-.84912-.10986-1.16893-1.0791-1.16893h-.8999v2.66844c0,.32959.02.39943.48974.39943h1.32958c1.71875,0,1.94874-.7295,2.19874-2.26857h.25Z" transform="translate(-128.40425 -2.5)"/>
  </g>
</svg>
