<svg xmlns="http://www.w3.org/2000/svg" viewBox="0 0 321.59766 82">
  <defs>
    <style>
      .cls-1, .cls-2, .cls-4, .cls-5, .cls-6, .cls-7 {
        fill: none;
        stroke-miterlimit: 10;
      }

      .cls-1, .cls-2, .cls-4 {
        stroke: #8ff4dd;
      }

      .cls-1, .cls-4, .cls-5, .cls-6, .cls-7 {
        stroke-width: 2px;
      }

      .cls-2 {
        stroke-width: 0.5px;
      }

      .cls-3 {
        fill: #8ff4dd;
      }

      .cls-4 {
        stroke-linecap: square;
      }

      .cls-5 {
        stroke: #fd1d53;
      }

      .cls-6 {
        stroke: #ff6c11;
      }

      .cls-7 {
        stroke: #f9c80e;
      }
    </style>
  </defs>
  <title>LevelVSEdgeTriggered</title>
  <g id="Layer_1" data-name="Layer 1">
    <rect class="cls-1" x="66.59766" y="1" width="30" height="30"/>
    <line class="cls-1" x1="66.59766" y1="6" x2="56.59766" y2="6"/>
    <line class="cls-1" x1="66.59766" y1="26" x2="56.59766" y2="26"/>
    <line class="cls-1" x1="106.59766" y1="6" x2="96.59766" y2="6"/>
    <line class="cls-1" x1="106.59766" y1="26" x2="96.59766" y2="26"/>
    <line class="cls-2" x1="89.09766" y1="20.5" x2="94.09766" y2="20.5"/>
    <path class="cls-3" d="M136.43555,67.81055a4.31309,4.31309,0,0,1,.13768.4375,2.09564,2.09564,0,0,0,.26271.67578.36039.36039,0,0,0,.28515.15625.30577.30577,0,0,0,.25586-.167,1.11555,1.11555,0,0,0,.11524-.55567h.23436a1.65787,1.65787,0,0,1-.27342,1.03809.86.86,0,0,1-.70314.333.79208.79208,0,0,1-.65429-.32227,2.50969,2.50969,0,0,1-.334-1.23633,3.76656,3.76656,0,0,1-.42189.082,2.8541,2.8541,0,0,1-.38671.02735,2.51884,2.51884,0,0,1-1.34179-.377,2.65294,2.65294,0,0,1-.97657-1.082,3.43561,3.43561,0,0,1-.36133-1.59179,3.06877,3.06877,0,0,1,.8164-2.14846,2.40145,2.40145,0,0,1,1.84375-.8086,2.53256,2.53256,0,0,1,1.34766.373,2.69012,2.69012,0,0,1,.97656,1.07031,3.23728,3.23728,0,0,1-.82226,4.09571Zm-.19336-.53907a3.2822,3.2822,0,0,0,.30859-.8623,5.769,5.769,0,0,0,.09766-1.16309,4.54208,4.54208,0,0,0-.21485-1.55566,1.7384,1.7384,0,0,0-.60546-.84473,1.50451,1.50451,0,0,0-.88283-.27343,1.46508,1.46508,0,0,0-.86914.27343,1.76317,1.76317,0,0,0-.60156.85253,4.626,4.626,0,0,0-.2168,1.57521,4.918,4.918,0,0,0,.12891,1.206,3.53,3.53,0,0,0,.40234.95607c-.00488-.11963-.00781-.21534-.00781-.2881a1.079,1.079,0,0,1,.31055-.79492,1.1,1.1,0,0,1,.81445-.31152,1.16443,1.16443,0,0,1,.85156.33886A2.45222,2.45222,0,0,1,136.24219,67.27148Zm-.48047.4961a2.25521,2.25521,0,0,0-.18359-1.01953.72958.72958,0,0,0-.68361-.40625.80292.80292,0,0,0-.8361.76831h0q-.0015.03575.00017.07152a1.0404,1.0404,0,0,0,.28907.69531,1.44055,1.44055,0,0,0,.582.1211,1.61186,1.61186,0,0,0,.4414-.0586A1.53251,1.53251,0,0,0,135.76172,67.76758Z" transform="translate(-43.40234 -59)"/>
    <path class="cls-3" d="M136.43555,86.31055a4.31309,4.31309,0,0,1,.13768.4375,2.09556,2.09556,0,0,0,.26271.67578.36039.36039,0,0,0,.28515.15625.30577.30577,0,0,0,.25586-.167,1.11555,1.11555,0,0,0,.11524-.55567h.23436a1.65787,1.65787,0,0,1-.27342,1.03809.86.86,0,0,1-.70314.333.79208.79208,0,0,1-.65429-.32227,2.50969,2.50969,0,0,1-.334-1.23633,3.76656,3.76656,0,0,1-.42189.082,2.8541,2.8541,0,0,1-.38671.02735,2.51884,2.51884,0,0,1-1.34179-.377,2.65294,2.65294,0,0,1-.97657-1.082,3.43561,3.43561,0,0,1-.36133-1.59179,3.06878,3.06878,0,0,1,.8164-2.14844,2.40154,2.40154,0,0,1,1.84375-.8086,2.53262,2.53262,0,0,1,1.34766.373,2.69012,2.69012,0,0,1,.97656,1.07031,3.23727,3.23727,0,0,1-.82226,4.09571Zm-.19336-.53907a3.2822,3.2822,0,0,0,.30859-.8623,5.769,5.769,0,0,0,.09766-1.16309,4.54208,4.54208,0,0,0-.21485-1.55566,1.73846,1.73846,0,0,0-.60546-.84473,1.50451,1.50451,0,0,0-.88283-.27343,1.46524,1.46524,0,0,0-.86914.27343,1.76324,1.76324,0,0,0-.60156.85254,4.626,4.626,0,0,0-.2168,1.57521,4.918,4.918,0,0,0,.12891,1.206,3.52989,3.52989,0,0,0,.40234.95606c-.00488-.11962-.00781-.21534-.00781-.28809a1.079,1.079,0,0,1,.31055-.79492,1.1,1.1,0,0,1,.81445-.31152,1.16443,1.16443,0,0,1,.85156.33886A2.45218,2.45218,0,0,1,136.24219,85.77148Zm-.48047.4961a2.25521,2.25521,0,0,0-.18359-1.01953.72958.72958,0,0,0-.68361-.40625.80292.80292,0,0,0-.8361.76831h0q-.0015.03576.00017.07152a1.04038,1.04038,0,0,0,.28907.69531,1.44055,1.44055,0,0,0,.582.1211,1.61186,1.61186,0,0,0,.4414-.0586A1.53216,1.53216,0,0,0,135.76172,86.26758Z" transform="translate(-43.40234 -59)"/>
    <path class="cls-3" d="M115.23975,67.73036h-2.92627v-.248h.19189c.61572,0,.63184-.08789.63184-.376V62.89345c0-.28809-.01612-.376-.63184-.376h-.19189v-.248h2.92627a2.62354,2.62354,0,0,1,2.44677,2.77441,2.56822,2.56822,0,0,1-2.44433,2.68639Zm1.23144-4.46972a1.72439,1.72439,0,0,0-1.45508-.74317h-.7998c-.37549,0-.3916.05567-.3916.31934V67.163c0,.26367.01611.31934.3916.31934h.80762a1.75266,1.75266,0,0,0,1.42334-.67969,2.74307,2.74307,0,0,0,.43994-1.75879A3.09262,3.09262,0,0,0,116.47119,63.26064Z" transform="translate(-43.40234 -59)"/>
    <g>
      <path class="cls-3" d="M116.9458,87.578H112.332V87.33h.1919c.61572,0,.63183-.08789.63183-.376V82.76455c0-.28809-.01611-.376-.63183-.376h-.1919v-.248h4.5015l.22412,1.79981h-.19971c-.12793-1.11133-.34375-1.55176-1.56738-1.55176h-1.03125c-.376,0-.39209.05664-.39209.32031v1.91895h.71972c.77588,0,.86377-.248.86377-.93555h.19971V85.8114h-.19971c0-.67969-.08789-.93555-.86377-.93555h-.71972v2.13477c0,.26367.01611.31934.39209.31934h1.06347c1.375,0,1.55909-.584,1.75879-1.81446h.2002Z" transform="translate(-43.40234 -59)"/>
      <path class="cls-3" d="M120.89844,87.55361l-.90381.02441V87.33c.53564,0,.624,0,.624-.35938v-1.8633c0-.45606-.08838-.8877-.59179-.8877a1.16816,1.16816,0,0,0-1.08223,1.24817l.00264.03113V86.9706c0,.35938.08789.35938.62353.35938v.248l-.89551-.02441-.90327.02443V87.33c.53565,0,.62354,0,.62354-.35938V84.828c0-.39258-.064-.44824-.62354-.44824v-.248l1.12744-.08789v.83985a1.25988,1.25988,0,0,1,1.18311-.83985,1.06786,1.06786,0,0,1,.83984.2959c.24756.28809.24756.53613.24756,1.22363v1.52735c.0083.23926.208.23926.624.23926v.248Z" transform="translate(-43.40234 -59)"/>
    </g>
    <g>
      <rect class="cls-1" x="66.59766" y="51" width="30" height="30"/>
      <line class="cls-1" x1="66.59766" y1="56" x2="56.59766" y2="56"/>
      <line class="cls-1" x1="66.59766" y1="76" x2="56.59766" y2="76"/>
      <line class="cls-1" x1="106.59766" y1="56" x2="96.59766" y2="56"/>
      <line class="cls-1" x1="106.59766" y1="76" x2="96.59766" y2="76"/>
      <path class="cls-3" d="M115.23926,117.73047h-2.92578v-.248h.1914c.61621,0,.63184-.08789.63184-.37549v-4.21386c0-.2876-.01563-.37549-.63184-.37549h-.1914v-.248h2.92578a2.62422,2.62422,0,0,1,2.44726,2.77442A2.56828,2.56828,0,0,1,115.23926,117.73047Zm1.23144-4.46973a1.72438,1.72438,0,0,0-1.45507-.74316h-.79981c-.376,0-.3916.05566-.3916.31933v4.32569c0,.26416.01562.31982.3916.31982h.80762a1.75328,1.75328,0,0,0,1.42383-.67969,2.74634,2.74634,0,0,0,.43945-1.75878A3.09355,3.09355,0,0,0,116.4707,113.26074Z" transform="translate(-43.40234 -59)"/>
      <line class="cls-2" x1="89.09766" y1="70.5" x2="94.09766" y2="70.5"/>
      <polyline class="cls-2" points="67.268 73.5 71.598 76 67.268 78.5"/>
    </g>
    <path class="cls-3" d="M136.43555,117.81055a4.31506,4.31506,0,0,1,.13769.4375,2.09571,2.09571,0,0,0,.2627.67578.36036.36036,0,0,0,.28515.15625.30578.30578,0,0,0,.25586-.167,1.11551,1.11551,0,0,0,.11524-.55567h.23437a1.65793,1.65793,0,0,1-.27343,1.03809.85994.85994,0,0,1-.70313.333.79211.79211,0,0,1-.6543-.32227,2.50985,2.50985,0,0,1-.334-1.23633,3.76551,3.76551,0,0,1-.42188.082,2.85558,2.85558,0,0,1-.38671.02735,2.51891,2.51891,0,0,1-1.3418-.377,2.653,2.653,0,0,1-.97656-1.082,3.43546,3.43546,0,0,1-.36133-1.59179,3.06873,3.06873,0,0,1,.8164-2.14844,2.40147,2.40147,0,0,1,1.84375-.8086,2.53249,2.53249,0,0,1,1.34766.37305,2.69022,2.69022,0,0,1,.97656,1.07031,3.23726,3.23726,0,0,1-.82226,4.09571Zm-.19336-.53907a3.28173,3.28173,0,0,0,.30859-.8623,5.769,5.769,0,0,0,.09766-1.16309,4.54175,4.54175,0,0,0-.21485-1.55566,1.7384,1.7384,0,0,0-.60546-.84473,1.50451,1.50451,0,0,0-.88282-.27343,1.46514,1.46514,0,0,0-.86914.27343,1.76318,1.76318,0,0,0-.60156.85254,4.62566,4.62566,0,0,0-.2168,1.5752,4.91838,4.91838,0,0,0,.12891,1.20605,3.52936,3.52936,0,0,0,.40234.95606c-.00488-.11963-.00781-.21534-.00781-.28809a1.07894,1.07894,0,0,1,.31055-.79492,1.1,1.1,0,0,1,.81445-.31152,1.16452,1.16452,0,0,1,.85156.33886A2.45238,2.45238,0,0,1,136.24219,117.27148Zm-.48047.4961a2.25527,2.25527,0,0,0-.18359-1.01953.7296.7296,0,0,0-.6836-.40625.80293.80293,0,0,0-.83594.83984,1.04043,1.04043,0,0,0,.28907.69531,1.44068,1.44068,0,0,0,.582.1211,1.6121,1.6121,0,0,0,.4414-.0586A1.53233,1.53233,0,0,0,135.76172,117.76758Z" transform="translate(-43.40234 -59)"/>
    <path class="cls-3" d="M136.43555,136.31055a4.31506,4.31506,0,0,1,.13769.4375,2.09571,2.09571,0,0,0,.2627.67578.36036.36036,0,0,0,.28515.15625.30578.30578,0,0,0,.25586-.167,1.11551,1.11551,0,0,0,.11524-.55567h.23437a1.65793,1.65793,0,0,1-.27343,1.03809.85994.85994,0,0,1-.70313.333.79211.79211,0,0,1-.6543-.32227,2.50985,2.50985,0,0,1-.334-1.23633,3.76551,3.76551,0,0,1-.42188.082,2.85558,2.85558,0,0,1-.38671.02735,2.51891,2.51891,0,0,1-1.3418-.377,2.653,2.653,0,0,1-.97656-1.082,3.43546,3.43546,0,0,1-.36133-1.59179,3.06873,3.06873,0,0,1,.8164-2.14844,2.40147,2.40147,0,0,1,1.84375-.8086,2.53249,2.53249,0,0,1,1.34766.37305,2.69022,2.69022,0,0,1,.97656,1.07031,3.23726,3.23726,0,0,1-.82226,4.09571Zm-.19336-.53907a3.28173,3.28173,0,0,0,.30859-.8623,5.769,5.769,0,0,0,.09766-1.16309,4.54175,4.54175,0,0,0-.21485-1.55566,1.7384,1.7384,0,0,0-.60546-.84473,1.50451,1.50451,0,0,0-.88282-.27343,1.46514,1.46514,0,0,0-.86914.27343,1.76318,1.76318,0,0,0-.60156.85254,4.62566,4.62566,0,0,0-.2168,1.5752,4.91838,4.91838,0,0,0,.12891,1.20605,3.52936,3.52936,0,0,0,.40234.95606c-.00488-.11963-.00781-.21534-.00781-.28809a1.07894,1.07894,0,0,1,.31055-.79492,1.1,1.1,0,0,1,.81445-.31152,1.16452,1.16452,0,0,1,.85156.33886A2.45238,2.45238,0,0,1,136.24219,135.77148Zm-.48047.4961a2.25527,2.25527,0,0,0-.18359-1.01953.7296.7296,0,0,0-.6836-.40625.80293.80293,0,0,0-.83594.83984,1.04043,1.04043,0,0,0,.28907.69531,1.44068,1.44068,0,0,0,.582.1211,1.6121,1.6121,0,0,0,.4414-.0586A1.53233,1.53233,0,0,0,135.76172,136.26758Z" transform="translate(-43.40234 -59)"/>
  </g>
  <g id="Layer_2" data-name="Layer 2">
    <path class="cls-4" d="M100,114" transform="translate(-43.40234 -59)"/>
    <line class="cls-4" x1="56.59766" y1="26" x2="31.59766" y2="26"/>
    <polyline class="cls-4" points="56.598 56 56.598 6 31.598 6"/>
    <polyline class="cls-4" points="56.598 76 44.598 76 44.598 26"/>
    <path class="cls-3" d="M66.54,68.89893H62.15039v-.37159h.2876c.92334,0,.94775-.13232.94775-.564V61.64307c0-.43213-.02441-.564-.94775-.564h-.2876v-.37158H66.54A3.93543,3.93543,0,0,1,70.21,64.86914,3.852,3.852,0,0,1,66.54,68.89893Zm1.84668-6.70411A2.5859,2.5859,0,0,0,66.2041,61.0791H65.00488c-.564,0-.58789.084-.58789.48v6.48828c0,.396.02393.48.58789.48h1.21094a2.62879,2.62879,0,0,0,2.13477-1.01953,4.11368,4.11368,0,0,0,.65966-2.63867A4.638,4.638,0,0,0,68.38672,62.19482Z" transform="translate(-43.40234 -59)"/>
    <g>
      <path class="cls-3" d="M47.57568,88.1626a4.36378,4.36378,0,0,1,0-8.71924,2.94219,2.94219,0,0,1,2.207,1.03174l.59961-.8877c.09571-.144.14405-.144.1919-.144.13183,0,.13183.084.13183.28809v2.84228c0,.252,0,.28809-.19189.28809-.168,0-.168-.03614-.19189-.20411-.23975-1.751-1.30713-2.84228-2.61475-2.84228-.73145,0-3.07031.40771-3.07031,3.99365,0,3.57422,2.35107,3.98194,3.08252,3.98194a2.71592,2.71592,0,0,0,2.68652-2.69873c.01221-.11963.01221-.1919.144-.1919.15576,0,.15576.084.15576.2041A3.13587,3.13587,0,0,1,47.57568,88.1626Z" transform="translate(-43.40234 -59)"/>
      <path class="cls-3" d="M53.12158,87.86279l-1.33105.03614v-.37159c.80322,0,.93506,0,.93506-.54V80.751c0-.58789-.09571-.67188-.93506-.67188v-.37158l1.72705-.13184V86.9873c0,.54.13183.54.93506.54v.37159Z" transform="translate(-43.40234 -59)"/>
      <path class="cls-3" d="M57.7168,88.03076a2.6769,2.6769,0,0,1-2.65039-2.69824,2.66051,2.66051,0,1,1,5.313,0A2.67205,2.67205,0,0,1,57.7168,88.03076Zm1.35547-4.46142a1.57239,1.57239,0,0,0-1.35547-.77979,1.60946,1.60946,0,0,0-1.36719.80371,3.43617,3.43617,0,0,0-.28809,1.64307,3.568,3.568,0,0,0,.29981,1.69092A1.56788,1.56788,0,0,0,57.729,87.731a1.547,1.547,0,0,0,1.39112-.88721,3.64725,3.64725,0,0,0,.26367-1.60742A3.29459,3.29459,0,0,0,59.07227,83.56934Z" transform="translate(-43.40234 -59)"/>
      <path class="cls-3" d="M64.05273,88.03076a2.65446,2.65446,0,0,1-2.57861-2.72217,2.688,2.688,0,0,1,2.60254-2.78271c.92334,0,1.835.46777,1.835,1.2832a.55158.55158,0,1,1-1.103.01221.54111.54111,0,0,1,.56348-.55176,1.95644,1.95644,0,0,0-1.2832-.44385c-.63574,0-1.61914.50391-1.61914,2.4585,0,1.93115,1.05517,2.44678,1.69091,2.44678a1.56687,1.56687,0,0,0,1.57129-1.25928c.02393-.07178.04786-.12012.15577-.12012.03613,0,.15576,0,.15576.12012A1.97325,1.97325,0,0,1,64.05273,88.03076Z" transform="translate(-43.40234 -59)"/>
      <path class="cls-3" d="M71.14355,87.86279l-1.29541.03614v-.37159c.22754,0,.43165-.04834.43165-.27588a9.97992,9.97992,0,0,0-1.42725-2.15917l-.76758.65966V86.9873c0,.54.13184.54.93555.54v.37159l-1.31934-.03614-1.30713.03614v-.37159c.80323,0,.93555,0,.93555-.54V80.751c0-.58789-.09619-.67188-.93555-.67188v-.37158l1.727-.13184v5.75684L69.812,83.86914a.62143.62143,0,0,0,.26367-.46777c0-.15576-.11963-.2876-.34765-.29981V82.73c.168.01172.91162.03565,1.34326.03565a6.71585,6.71585,0,0,0,.83984-.03565v.37158a2.37732,2.37732,0,0,0-1.51123.64746,12.846,12.846,0,0,0-.97168.86377c0,.03614.06006.10791.07178.13184l1.52344,2.147c.45556.63574.71972.63574,1.16308.63574v.37159Q71.665,87.863,71.14355,87.86279Z" transform="translate(-43.40234 -59)"/>
    </g>
    <circle class="cls-3" cx="44.59766" cy="26" r="2.5"/>
    <circle class="cls-3" cx="56.59766" cy="6" r="2.5"/>
    <path class="cls-3" d="M159.375,68.89893h-6.24854v-.37159h.2876c.92334,0,.94727-.13232.94727-.564V61.64307c0-.43213-.02393-.564-.94727-.564h-.2876v-.37158c.41944.03564,1.355.03564,1.82276.03564.4917,0,1.583,0,2.01514-.03564v.37158h-.396c-1.13916,0-1.13916.168-1.13916.57569v6.39257c0,.396.02393.48.5874.48H157c2.11084,0,2.27881-1.49951,2.41064-2.72265h.29981Z" transform="translate(-43.40234 -59)"/>
    <path class="cls-3" d="M160.39453,118.48291h-6.91992v-.37158h.2876c.92334,0,.94775-.13233.94775-.564V111.2627c0-.43165-.02441-.56348-.94775-.56348h-.2876v-.37207h6.75195l.33594,2.69873h-.2998c-.1919-1.667-.51563-2.32666-2.35059-2.32666h-1.54736c-.56348,0-.58741.084-.58741.47949v2.87842h1.07911c1.16357,0,1.29541-.37158,1.29541-1.40283h.2998v3.17822h-.2998c0-1.01953-.13184-1.40332-1.29541-1.40332h-1.07911v3.20215c0,.396.02393.48.58741.48H157.96c2.063,0,2.33887-.876,2.63867-2.72266h.29981Z" transform="translate(-43.40234 -59)"/>
  </g>
  <g id="Layer_3" data-name="Layer 3">
    <polyline class="cls-1" points="156.598 18.5 171.598 18.5 171.598 3.5 216.598 3.5 216.598 18.5 261.598 18.5 261.598 3.5 306.598 3.5 306.598 18.5 321.598 18.5"/>
    <polyline class="cls-5" points="156.598 23.5 186.598 23.5 186.598 38.5 201.598 38.5 201.598 23.5 231.598 23.5 231.598 38.5 246.598 38.5 246.598 23.5 256.598 23.5 256.598 38.5 276.598 38.5 276.598 23.5 291.598 23.5 291.598 38.5 321.598 38.5"/>
    <polyline class="cls-6" points="321.598 58.5 291.598 58.5 291.598 43.5 276.598 43.5 276.598 58.5 261.598 58.5 261.598 43.5 201.598 43.5 201.598 58.5 186.598 58.5 186.598 43.5 171.598 43.5 171.598 58.5 156.598 58.5"/>
    <polyline class="cls-7" points="156.598 78.5 171.598 78.5 171.598 63.5 261.598 63.5 261.598 78.5 321.598 78.5"/>
    <g>
      <path class="cls-3" d="M175.28467,72.97754a3.63626,3.63626,0,0,1,0-7.26563,2.45029,2.45029,0,0,1,1.83935.85938l.49952-.74024c.08007-.11914.12011-.11914.16015-.11914.10986,0,.10986.06934.10986.23926v2.36914c0,.21,0,.23926-.16015.23926-.13965,0-.13965-.0293-.15967-.16992-.20019-1.459-1.08935-2.36817-2.17871-2.36817-.60986,0-2.55859.33985-2.55859,3.32813,0,2.97852,1.95849,3.31836,2.56836,3.31836a2.264,2.264,0,0,0,2.23876-2.249c.00977-.09961.00977-.16016.12012-.16016.12988,0,.12988.07031.12988.16992A2.61373,2.61373,0,0,1,175.28467,72.97754Z" transform="translate(-43.40234 -59)"/>
      <path class="cls-3" d="M179.90625,72.72754l-1.10986.03027v-.31054c.66992,0,.77978,0,.77978-.44922V66.80078c0-.48926-.08008-.55957-.77978-.55957v-.30957l1.43945-.11035v6.17676c0,.44922.10986.44922.77979.44922v.31054Z" transform="translate(-43.40234 -59)"/>
      <path class="cls-3" d="M183.73584,72.86719a2.2306,2.2306,0,0,1-2.209-2.248,2.21721,2.21721,0,1,1,4.42773,0A2.2268,2.2268,0,0,1,183.73584,72.86719Zm1.12939-3.71778A1.30984,1.30984,0,0,0,183.73584,68.5a1.34146,1.34146,0,0,0-1.13965.66992,2.86623,2.86623,0,0,0-.23974,1.36914,2.9745,2.9745,0,0,0,.25,1.40918,1.30422,1.30422,0,0,0,1.13916.66895,1.28882,1.28882,0,0,0,1.15966-.73926,3.03642,3.03642,0,0,0,.21973-1.33887A2.74528,2.74528,0,0,0,184.86523,69.14941Z" transform="translate(-43.40234 -59)"/>
      <path class="cls-3" d="M189.01563,72.86719a2.21193,2.21193,0,0,1-2.14893-2.26856,2.23954,2.23954,0,0,1,2.16894-2.31836c.76954,0,1.52881.38965,1.52881,1.06934a.45977.45977,0,1,1-.91943.00977.45151.45151,0,0,1,.46973-.46,1.63,1.63,0,0,0-1.06934-.36914c-.52978,0-1.34912.41895-1.34912,2.04883,0,1.6084.87939,2.03809,1.40918,2.03809a1.3042,1.3042,0,0,0,1.30908-1.04883c.02-.06055.04-.09961.12988-.09961.03028,0,.13037,0,.13037.09961A1.64468,1.64468,0,0,1,189.01563,72.86719Z" transform="translate(-43.40234 -59)"/>
      <path class="cls-3" d="M194.92432,72.72754l-1.07959.03027v-.31054c.18994,0,.35986-.03907.35986-.2295a8.33424,8.33424,0,0,0-1.18945-1.79882l-.63965.5498v1.0293c0,.44922.10986.44922.77978.44922v.31054l-1.09961-.03027-1.08935.03027v-.31054c.66992,0,.77978,0,.77978-.44922V66.80078c0-.48926-.08007-.55957-.77978-.55957v-.30957l1.43945-.11035v4.79785l1.40918-1.21973a.519.519,0,0,0,.21973-.38964c0-.12989-.1001-.24024-.29-.25V68.4502c.14014.00976.75976.02929,1.11963.02929a5.6739,5.6739,0,0,0,.6997-.02929v.30957a1.978,1.978,0,0,0-1.25927.54,10.64561,10.64561,0,0,0-.80957.71973c0,.0293.0498.08985.06006.10938l1.269,1.78906c.37988.5293.59961.5293.96973.5293v.31054Q195.35889,72.727,194.92432,72.72754Z" transform="translate(-43.40234 -59)"/>
    </g>
    <path class="cls-3" d="M192.73584,93.41309h-3.6582V93.103h.24023c.76953,0,.78955-.10987.78955-.46973V87.36621c0-.35937-.02-.46973-.78955-.46973h-.24023v-.30957h3.6582a3.27939,3.27939,0,0,1,3.05811,3.46827A3.20954,3.20954,0,0,1,192.73584,93.41309Zm1.53906-5.58692a2.1557,2.1557,0,0,0-1.81885-.92969h-.99951c-.46972,0-.48974.07032-.48974.39991v5.40722c0,.32959.02.39942.48974.39942h1.00928a2.19235,2.19235,0,0,0,1.7793-.84912,3.42837,3.42837,0,0,0,.5498-2.19873A3.86669,3.86669,0,0,0,194.2749,87.82617Z" transform="translate(-43.40234 -59)"/>
    <path class="cls-3" d="M195.51416,113.41309h-5.20752V113.103h.24024c.76953,0,.78955-.10987.78955-.46973v-5.26709c0-.35937-.02-.46973-.78955-.46973h-.24024v-.30957c.3501.02979,1.1294.02979,1.51953.02979.40967,0,1.31934,0,1.67871-.02979v.30957h-.32959c-.9497,0-.9497.14014-.9497.48v5.32715c0,.32959.02.39942.48974.39942h.81983c1.75879,0,1.89892-1.249,2.00879-2.26856h.25Z" transform="translate(-43.40234 -59)"/>
    <path class="cls-3" d="M195.374,133.39819h-5.76709v-.31006h.24024c.76953,0,.78955-.10986.78955-.46972v-5.23682c0-.35986-.02-.46972-.78955-.46972h-.24024v-.31006h5.627l.28027,2.249h-.25c-.16016-1.38916-.42969-1.939-1.959-1.939h-1.28955c-.46973,0-.48975.06982-.48975.3999v2.39844h.8999c.96924,0,1.0791-.31006,1.0791-1.16944h.25v2.64844h-.25c0-.84912-.10986-1.16895-1.0791-1.16895h-.8999v2.66846c0,.32959.02.39941.48975.39941h1.32958c1.71875,0,1.94874-.72949,2.19874-2.26855h.25Z" transform="translate(-43.40234 -59)"/>
  </g>
</svg>
