<svg id="Layer_1" data-name="Layer 1" xmlns="http://www.w3.org/2000/svg" viewBox="0 0 272.90977 278.62305">
  <defs>
    <style>
      .cls-1, .cls-4 {
        fill: none;
        stroke-miterlimit: 10;
        stroke-width: 2px;
      }

      .cls-1 {
        stroke: #8ff4dd;
      }

      .cls-2 {
        fill: #8ff4dd;
      }

      .cls-3 {
        fill: red;
      }

      .cls-4 {
        stroke: red;
      }
    </style>
  </defs>
  <title>LightControllerTBKMap</title>
  <g>
    <g>
      <rect class="cls-1" x="50.70711" y="77.62305" width="200" height="200"/>
      <line class="cls-1" x1="250.7071" y1="127.62305" x2="50.70711" y2="127.62305"/>
      <line class="cls-1" x1="250.7071" y1="177.62305" x2="50.70711" y2="177.62305"/>
      <line class="cls-1" x1="250.7071" y1="227.62305" x2="50.70711" y2="227.62305"/>
      <line class="cls-1" x1="100.7071" y1="277.62305" x2="100.7071" y2="77.62305"/>
      <line class="cls-1" x1="150.7071" y1="277.62305" x2="150.7071" y2="77.62305"/>
      <line class="cls-1" x1="200.7071" y1="277.62305" x2="200.7071" y2="77.62305"/>
    </g>
    <line class="cls-1" x1="50.70711" y1="77.62305" x2="0.70711" y2="27.62305"/>
  </g>
  <g>
    <g>
      <path class="cls-2" d="M34.08162,41.10254c-.76025,0-2.16065,0-2.88086.06006v-.62012c.54,0,1.66064,0,1.66064-.60009a1.40184,1.40184,0,0,0-.06005-.28028L31.7408,36.60157H26.79988L25.88,39.22217a1.36215,1.36215,0,0,0-.04.30029c0,.52.5,1.02,1.5,1.02v.62012l-2.30029-.06006-2.04053.06006v-.62012a2.079,2.079,0,0,0,2.24024-1.34033l4.14111-11.9624c.1001-.28027.16016-.40039.48-.40039.32031,0,.36035.14014.46045.40039l4.3208,12.50244c.21973.66016.5.80029,1.70019.80029h.36036v.62012ZM29.26033,29.48l-2.24022,6.50147h4.501Z" transform="translate(0)"/>
      <path class="cls-2" d="M45.921,41.1626H38.07918v-.62012h.48c1.54053,0,1.58057-.22021,1.58057-.94043v-10.542c0-.72021-.04-.94043-1.58057-.94043h-.48V27.4995h7.32129c2.60058,0,4.4414,1.64063,4.4414,3.38086,0,1.48047-1.38038,2.76075-3.32081,3.14063,2.22021.24023,3.86084,1.74023,3.86084,3.481C50.38191,39.38233,48.5811,41.1626,45.921,41.1626Zm-.66015-13.043H42.78035c-.94043,0-.98047.14014-.98047.8003v4.92089h2.90088a3.017,3.017,0,0,0,3.1955-2.82726q.00405-.06652.00518-.13319a2.65868,2.65868,0,0,0-2.55461-2.7588q-.043-.00165-.086-.00191Zm.2998,6.16162H41.79987v5.46094c0,.66016.04.80029.98046.80029h2.50049a3.13875,3.13875,0,0,0,.27979-6.26123Z" transform="translate(0)"/>
    </g>
    <g>
      <path class="cls-2" d="M6.40047,77.60254a5.01132,5.01132,0,0,1-3.68116-1.40039c-.66015,1.06055-.72022,1.14063-.72022,1.14063-.13965.21972-.15967.25976-.29979.25976-.22023,0-.22023-.13965-.22023-.48v-4.001c0-.35987,0-.5.26026-.5a.20824.20824,0,0,1,.23741.17426l.00233.02593A4.04658,4.04658,0,0,0,3.2198,75.90229a4.82456,4.82456,0,0,0,3.16064,1.08008,2.74215,2.74215,0,0,0,2.68211-2.80093L9.06062,74.122a2.91988,2.91988,0,0,0-.62011-1.84033A2.65732,2.65732,0,0,0,6.7403,71.26117c-1.40039-.33984-2.42041-.58007-2.64061-.66015A3.87514,3.87514,0,0,1,5.38,63.05951,4.11651,4.11651,0,0,1,8.58065,64.4599l.70019-1.14013c.14013-.24024.16015-.26026.30029-.26026.21973,0,.21973.14014.21973.48v4.021c0,.37988,0,.48-.25978.48-.2202,0-.2202-.12011-.24022-.23975C9.18074,66.90038,8.7408,63.61962,5.4,63.61962a2.61485,2.61485,0,0,0-.62012,5.16113l2.56055.62012a4.09306,4.09306,0,0,1,3.00049,4.041A4.01,4.01,0,0,1,6.485,77.60025Q6.44274,77.60184,6.40047,77.60254Z" transform="translate(0)"/>
      <path class="cls-2" d="M23.18172,68.06055c-.32032-2.76025-.82032-3.88086-3.8208-3.88086H16.96c-.93994,0-.98.14014-.98.80029v5.061h1.72021c1.92041,0,2.12061-.66015,2.12061-2.34033h.5v5.30127h-.5c0-1.70069-.2002-2.34082-2.12061-2.34082H15.98011v4.92095c0,.7002,0,.96045,1.90039.96045h.66016v.62012c-.72023-.06006-2.54053-.06006-3.36084-.06006-.78028,0-2.34034,0-3.04053.06006V76.5425h.48c1.54053,0,1.58057-.22021,1.58057-.94043V65.12012c0-.72021-.04-.94043-1.58057-.94043h-.48v-.62012H23.12171l.56006,4.501Z" transform="translate(0)"/>
    </g>
    <g>
      <path class="cls-2" d="M29.17781,107.18406a3.74026,3.74026,0,0,1-6.78174.2998,10.13586,10.13586,0,0,1-.8999-4.8208,10.69837,10.69837,0,0,1,.74024-4.541,3.66659,3.66659,0,0,1,3.48047-2.38037,3.70919,3.70919,0,0,1,3.40087,2.24024,14.13256,14.13256,0,0,1,.06006,9.20216ZM28.0577,98.522c-.38038-1.98-1.70069-2.34034-2.36084-2.34034-.5,0-2.00049.18018-2.38037,2.56054a26.80761,26.80761,0,0,0-.16016,3.68066,27.24888,27.24888,0,0,0,.22021,4.22121c.35987,1.92041,1.54,2.42041,2.32032,2.42041.90039,0,2.04052-.6001,2.34082-2.50049a24.81553,24.81553,0,0,0,.21972-4.14112,24.64189,24.64189,0,0,0-.1997-3.90084Z" transform="translate(0)"/>
      <path class="cls-2" d="M39.17781,107.18406a3.74026,3.74026,0,0,1-6.78174.2998,10.13574,10.13574,0,0,1-.8999-4.8208,10.69838,10.69838,0,0,1,.74023-4.541,3.66658,3.66658,0,0,1,3.48047-2.38037,3.70919,3.70919,0,0,1,3.40087,2.24024,14.13256,14.13256,0,0,1,.06006,9.20216ZM38.05769,98.522c-.38038-1.98-1.70068-2.34034-2.36084-2.34034-.5,0-2.00048.18018-2.38037,2.56054a26.8076,26.8076,0,0,0-.16015,3.68066,27.24758,27.24758,0,0,0,.22021,4.22121c.35986,1.92041,1.54,2.42041,2.32031,2.42041.90039,0,2.04053-.6001,2.34082-2.50049a24.81553,24.81553,0,0,0,.21973-4.14112,24.64071,24.64071,0,0,0-.19971-3.90084Z" transform="translate(0)"/>
    </g>
    <g>
      <path class="cls-2" d="M29.588,157.18406a3.74026,3.74026,0,0,1-6.78174.2998,10.13574,10.13574,0,0,1-.8999-4.8208,10.69835,10.69835,0,0,1,.74022-4.541,3.66661,3.66661,0,0,1,3.48047-2.38037,3.70921,3.70921,0,0,1,3.40089,2.24023,14.13279,14.13279,0,0,1,.06006,9.20215ZM28.46785,148.522c-.38037-1.98-1.70068-2.34035-2.36084-2.34035-.5,0-2.00049.18017-2.38037,2.56055a26.80911,26.80911,0,0,0-.16015,3.68066,27.24765,27.24765,0,0,0,.22021,4.22121c.35986,1.92041,1.54,2.42041,2.32031,2.42041.90039,0,2.04053-.6001,2.34082-2.50049a38.67343,38.67343,0,0,0,.02-8.042Z" transform="translate(0)"/>
      <path class="cls-2" d="M36.26717,159.0044c-.8003,0-2.54053,0-3.24073.06006v-.62012h.64014c1.80029,0,1.86035-.24023,1.86035-.96045V147.122a5.99132,5.99132,0,0,1-2.6206.52v-.62012a4.94385,4.94385,0,0,0,3.64111-1.28027c.46,0,.46.04.46.52v11.22217c0,.74023.06005.96045,1.86035.96045h.64013v.62012C38.80769,159.0044,37.06746,159.0044,36.26717,159.0044Z" transform="translate(0)"/>
    </g>
    <g>
      <path class="cls-2" d="M25.76717,209.22437c-.8003,0-2.54053,0-3.24073.06006v-.62012h.64013c1.8003,0,1.86035-.24023,1.86035-.96045V197.342a5.99125,5.99125,0,0,1-2.62059.52v-.62012a4.94381,4.94381,0,0,0,3.64111-1.28027c.46,0,.46.04.46.52v11.22217c0,.74024.06006.96045,1.86035.96045h.64014v.62012C28.3077,209.22437,26.56746,209.22437,25.76717,209.22437Z" transform="translate(0)"/>
      <path class="cls-2" d="M35.76717,209.22437c-.8003,0-2.54053,0-3.24073.06006v-.62012h.64014c1.80029,0,1.86035-.24023,1.86035-.96045V197.342a5.99132,5.99132,0,0,1-2.6206.52v-.62012a4.94381,4.94381,0,0,0,3.64111-1.28027c.46,0,.46.04.46.52v11.22217c0,.74024.06005.96045,1.86035.96045h.64013v.62012C38.30769,209.22437,36.56746,209.22437,35.76717,209.22437Z" transform="translate(0)"/>
    </g>
    <g>
      <path class="cls-2" d="M25.357,259.0044c-.80029,0-2.54052,0-3.24072.06006v-.62012h.64013c1.8003,0,1.86036-.24023,1.86036-.96045V247.122a5.99122,5.99122,0,0,1-2.62062.52v-.62011a4.9439,4.9439,0,0,0,3.64112-1.28028c.46,0,.46.04.46.52V257.4838c0,.74023.06006.96045,1.86035.96045h.64014v.62012C27.89754,259.0044,26.15731,259.0044,25.357,259.0044Z" transform="translate(0)"/>
      <path class="cls-2" d="M38.67781,257.18406a3.74026,3.74026,0,0,1-6.78174.2998,10.1357,10.1357,0,0,1-.8999-4.8208,10.69829,10.69829,0,0,1,.74023-4.541,3.66663,3.66663,0,0,1,3.48047-2.38037,3.7092,3.7092,0,0,1,3.40087,2.24024,14.13253,14.13253,0,0,1,.06006,9.20215ZM37.55769,248.522c-.38038-1.98-1.70068-2.34034-2.36084-2.34034-.5,0-2.00048.18018-2.38037,2.56055a26.80767,26.80767,0,0,0-.16015,3.68066,27.24732,27.24732,0,0,0,.22021,4.2212c.35986,1.92041,1.54,2.42041,2.32031,2.42041.90039,0,2.04053-.6001,2.34082-2.50049a38.67481,38.67481,0,0,0,.02-8.042Z" transform="translate(0)"/>
    </g>
    <g>
      <path class="cls-2" d="M74.17781,62.18405a3.74026,3.74026,0,0,1-6.78174.29979,10.1357,10.1357,0,0,1-.8999-4.8208,10.69841,10.69841,0,0,1,.74023-4.541,3.6666,3.6666,0,0,1,3.48047-2.38037,3.7092,3.7092,0,0,1,3.40087,2.24024,10.7169,10.7169,0,0,1,.80029,4.68116A10.657,10.657,0,0,1,74.17781,62.18405Zm-1.12012-8.66211c-.38038-1.98-1.70068-2.34034-2.36084-2.34034-.5,0-2.00048.18018-2.38037,2.56055a26.80739,26.80739,0,0,0-.16015,3.68065,27.24739,27.24739,0,0,0,.22021,4.2212c.35986,1.92041,1.54,2.42041,2.32031,2.42041.90039,0,2.04053-.6001,2.34082-2.50049a24.81542,24.81542,0,0,0,.21973-4.14112,24.64051,24.64051,0,0,0-.19971-3.90082Z" transform="translate(0)"/>
      <path class="cls-2" d="M84.17781,62.18405a3.74026,3.74026,0,0,1-6.78174.29979,10.1357,10.1357,0,0,1-.8999-4.8208,10.69841,10.69841,0,0,1,.74023-4.541,3.6666,3.6666,0,0,1,3.48047-2.38037,3.7092,3.7092,0,0,1,3.40087,2.24024,10.7169,10.7169,0,0,1,.80029,4.68116A10.657,10.657,0,0,1,84.17781,62.18405Zm-1.12012-8.66211c-.38038-1.98-1.70068-2.34034-2.36084-2.34034-.5,0-2.00048.18018-2.38037,2.56055a26.80739,26.80739,0,0,0-.16015,3.68065,27.24739,27.24739,0,0,0,.22021,4.2212c.35986,1.92041,1.54,2.42041,2.32031,2.42041.90039,0,2.04053-.6001,2.34082-2.50049a24.81542,24.81542,0,0,0,.21973-4.14112,24.64051,24.64051,0,0,0-.19971-3.90082Z" transform="translate(0)"/>
    </g>
    <g>
      <path class="cls-2" d="M124.588,62.18405a3.74026,3.74026,0,0,1-6.78174.29979,10.1357,10.1357,0,0,1-.8999-4.8208,10.69826,10.69826,0,0,1,.74023-4.541,3.66661,3.66661,0,0,1,3.48047-2.38037,3.70923,3.70923,0,0,1,3.40088,2.24024,10.71675,10.71675,0,0,1,.80029,4.68116A10.65666,10.65666,0,0,1,124.588,62.18405Zm-1.12012-8.66211c-.38037-1.98-1.70068-2.34034-2.36084-2.34034-.5,0-2.00049.18018-2.38037,2.56055a26.80739,26.80739,0,0,0-.16016,3.68065,27.24739,27.24739,0,0,0,.22022,4.2212c.35986,1.92041,1.54,2.42041,2.32031,2.42041.90039,0,2.04053-.6001,2.34082-2.50049a24.81435,24.81435,0,0,0,.21973-4.14112,24.64051,24.64051,0,0,0-.19971-3.90082Z" transform="translate(0)"/>
      <path class="cls-2" d="M131.26717,64.0044c-.8003,0-2.54053,0-3.24073.06006v-.62012h.64014c1.80029,0,1.86035-.24024,1.86035-.96045V52.12205a5.99117,5.99117,0,0,1-2.6206.52v-.62011a4.94386,4.94386,0,0,0,3.64111-1.28028c.46,0,.46.04.46.52V62.48389c0,.74023.06.96045,1.86035.96045h.64013v.62012C133.80769,64.0044,132.06746,64.0044,131.26717,64.0044Z" transform="translate(0)"/>
    </g>
    <g>
      <path class="cls-2" d="M170.76717,64.22437c-.8003,0-2.54053,0-3.24073.06006v-.62012h.64014c1.80029,0,1.86035-.24023,1.86035-.96045V52.34205a5.99114,5.99114,0,0,1-2.6206.52V52.242a4.94386,4.94386,0,0,0,3.64111-1.28028c.46,0,.46.04.46.52v11.2222c0,.74023.06006.96045,1.86035.96045h.64014v.62012C173.30769,64.22437,171.56746,64.22437,170.76717,64.22437Z" transform="translate(0)"/>
      <path class="cls-2" d="M180.76717,64.22437c-.8003,0-2.54053,0-3.24073.06006v-.62012h.64014c1.80029,0,1.86035-.24023,1.86035-.96045V52.34205a5.99114,5.99114,0,0,1-2.6206.52V52.242a4.94386,4.94386,0,0,0,3.64111-1.28028c.46,0,.46.04.46.52v11.2222c0,.74023.06006.96045,1.86035.96045h.64014v.62012C183.30769,64.22437,181.56746,64.22437,180.76717,64.22437Z" transform="translate(0)"/>
    </g>
    <g>
      <path class="cls-2" d="M220.357,64.0044c-.80029,0-2.54053,0-3.24072.06006v-.62012h.64013c1.8003,0,1.86036-.24024,1.86036-.96045V52.12205a5.99122,5.99122,0,0,1-2.62061.52v-.62011a4.94389,4.94389,0,0,0,3.64111-1.28028c.46,0,.46.04.46.52V62.48389c0,.74023.06006.96045,1.86036.96045h.64013v.62012C222.89754,64.0044,221.1573,64.0044,220.357,64.0044Z" transform="translate(0)"/>
      <path class="cls-2" d="M233.67781,62.18405a3.74026,3.74026,0,0,1-6.78174.29979,10.13582,10.13582,0,0,1-.8999-4.8208,10.69856,10.69856,0,0,1,.74023-4.541,3.6666,3.6666,0,0,1,3.48047-2.38037,3.70919,3.70919,0,0,1,3.40088,2.24024,10.71647,10.71647,0,0,1,.8003,4.68116A10.657,10.657,0,0,1,233.67781,62.18405Zm-1.12012-8.66211c-.38037-1.98-1.70068-2.34034-2.36084-2.34034-.5,0-2.00048.18018-2.38037,2.56055a26.80581,26.80581,0,0,0-.16015,3.68065,27.24863,27.24863,0,0,0,.22021,4.2212c.35986,1.92041,1.54,2.42041,2.32031,2.42041.90039,0,2.04053-.6001,2.34082-2.50049a24.81542,24.81542,0,0,0,.21973-4.14112,24.64289,24.64289,0,0,0-.19971-3.90082Z" transform="translate(0)"/>
    </g>
    <g>
      <line class="cls-1" x1="216.86827" y1="211.46188" x2="234.54594" y2="193.78421"/>
      <line class="cls-1" x1="216.86827" y1="193.78423" x2="234.54594" y2="211.46188"/>
    </g>
    <g>
      <line class="cls-1" x1="116.86827" y1="211.46188" x2="134.54594" y2="193.78421"/>
      <line class="cls-1" x1="116.86827" y1="193.78423" x2="134.54594" y2="211.46188"/>
    </g>
    <g>
      <line class="cls-1" x1="166.86827" y1="211.46188" x2="184.54594" y2="193.78421"/>
      <line class="cls-1" x1="166.86827" y1="193.78423" x2="184.54594" y2="211.46188"/>
    </g>
    <g>
      <line class="cls-1" x1="66.86827" y1="211.46188" x2="84.54593" y2="193.78421"/>
      <line class="cls-1" x1="66.86827" y1="193.78423" x2="84.54595" y2="211.46188"/>
    </g>
    <path class="cls-2" d="M79.17781,107.18406a3.73988,3.73988,0,0,1-6.78125.2998,10.13045,10.13045,0,0,1-.90039-4.8208,10.68936,10.68936,0,0,1,.74023-4.541,3.667,3.667,0,0,1,3.48047-2.38037,3.70863,3.70863,0,0,1,3.40039,2.24024,14.12846,14.12846,0,0,1,.06055,9.20216ZM78.05769,98.522c-.37988-1.98-1.70019-2.34034-2.36036-2.34034-.501,0-2.001.18018-2.38085,2.56054a26.8076,26.8076,0,0,0-.16015,3.68066,27.30719,27.30719,0,0,0,.21972,4.22121c.36035,1.92041,1.541,2.42041,2.32128,2.42041.89941,0,2.04-.6001,2.33984-2.50049a24.70716,24.70716,0,0,0,.2207-4.14112,24.58151,24.58151,0,0,0-.20018-3.90084Z" transform="translate(0)"/>
    <path class="cls-2" d="M125.76717,159.22437c-.8003,0-2.54053,0-3.24073.06006v-.62012h.64014c1.80029,0,1.86035-.24023,1.86035-.96045V147.342a5.99132,5.99132,0,0,1-2.6206.52v-.62012a4.94381,4.94381,0,0,0,3.64111-1.28027c.46,0,.46.04.46.52v11.22217c0,.74024.06.96045,1.86035.96045h.64013v.62012C128.30769,159.22437,126.56746,159.22437,125.76717,159.22437Z" transform="translate(0)"/>
    <path class="cls-2" d="M129.17781,107.18406a3.73988,3.73988,0,0,1-6.78125.2998,10.13045,10.13045,0,0,1-.90039-4.8208,10.68936,10.68936,0,0,1,.74023-4.541,3.667,3.667,0,0,1,3.48047-2.38037,3.70863,3.70863,0,0,1,3.40039,2.24024,14.12846,14.12846,0,0,1,.06055,9.20216ZM128.05769,98.522c-.37988-1.98-1.70019-2.34034-2.36036-2.34034-.501,0-2.001.18018-2.38085,2.56054a26.8076,26.8076,0,0,0-.16015,3.68066,27.30719,27.30719,0,0,0,.21972,4.22121c.36035,1.92041,1.541,2.42041,2.32128,2.42041.89941,0,2.04-.6001,2.33984-2.50049a24.70716,24.70716,0,0,0,.2207-4.14112,24.58151,24.58151,0,0,0-.20018-3.90084Z" transform="translate(0)"/>
    <path class="cls-2" d="M175.76717,159.22437c-.8003,0-2.54053,0-3.24073.06006v-.62012h.64014c1.80029,0,1.86035-.24023,1.86035-.96045V147.342a5.99129,5.99129,0,0,1-2.6206.52v-.62012a4.94381,4.94381,0,0,0,3.64111-1.28027c.46,0,.46.04.46.52v11.22217c0,.74024.06006.96045,1.86035.96045h.64014v.62012C178.30769,159.22437,176.56746,159.22437,175.76717,159.22437Z" transform="translate(0)"/>
    <path class="cls-2" d="M179.17781,107.18406a3.73988,3.73988,0,0,1-6.78125.2998,10.13033,10.13033,0,0,1-.90039-4.8208,10.69,10.69,0,0,1,.74023-4.541,3.667,3.667,0,0,1,3.48047-2.38037,3.70862,3.70862,0,0,1,3.40039,2.24024,14.1284,14.1284,0,0,1,.06055,9.20216ZM178.05769,98.522c-.37988-1.98-1.70019-2.34034-2.36035-2.34034-.501,0-2.001.18018-2.38086,2.56054a26.806,26.806,0,0,0-.16015,3.68066,27.30968,27.30968,0,0,0,.21972,4.22121c.36035,1.92041,1.541,2.42041,2.32129,2.42041.89942,0,2.04-.6001,2.33985-2.50049a24.70928,24.70928,0,0,0,.2207-4.14112,24.58152,24.58152,0,0,0-.2002-3.90084Z" transform="translate(0)"/>
    <path class="cls-2" d="M229.17781,107.18406a3.73988,3.73988,0,0,1-6.78125.2998,10.13033,10.13033,0,0,1-.90039-4.8208,10.69,10.69,0,0,1,.74023-4.541,3.667,3.667,0,0,1,3.48047-2.38037,3.70862,3.70862,0,0,1,3.40039,2.24024,14.1284,14.1284,0,0,1,.06055,9.20216ZM228.05769,98.522c-.37988-1.98-1.70019-2.34034-2.36035-2.34034-.501,0-2.001.18018-2.38086,2.56054a26.806,26.806,0,0,0-.16015,3.68066,27.30968,27.30968,0,0,0,.21972,4.22121c.36035,1.92041,1.541,2.42041,2.32129,2.42041.89942,0,2.04-.6001,2.33985-2.50049a24.70928,24.70928,0,0,0,.2207-4.14112,24.58152,24.58152,0,0,0-.2002-3.90084Z" transform="translate(0)"/>
    <path class="cls-2" d="M79.17781,257.18406a3.73988,3.73988,0,0,1-6.78125.2998,10.13043,10.13043,0,0,1-.90039-4.8208,10.68934,10.68934,0,0,1,.74023-4.541,3.667,3.667,0,0,1,3.48047-2.38037,3.70861,3.70861,0,0,1,3.40039,2.24024,14.12843,14.12843,0,0,1,.06055,9.20215ZM78.05769,248.522c-.37988-1.98-1.70019-2.34034-2.36036-2.34034-.501,0-2.001.18018-2.38085,2.56055a26.80767,26.80767,0,0,0-.16015,3.68066,27.30706,27.30706,0,0,0,.21972,4.2212c.36035,1.92041,1.541,2.42041,2.32128,2.42041.89941,0,2.04-.6001,2.33984-2.50049a38.54177,38.54177,0,0,0,.02051-8.042Z" transform="translate(0)"/>
    <path class="cls-2" d="M129.17781,257.18406a3.73988,3.73988,0,0,1-6.78125.2998,10.13043,10.13043,0,0,1-.90039-4.8208,10.68934,10.68934,0,0,1,.74023-4.541,3.667,3.667,0,0,1,3.48047-2.38037,3.70861,3.70861,0,0,1,3.40039,2.24024,14.12843,14.12843,0,0,1,.06055,9.20215Zm-1.12012-8.66211c-.37988-1.98-1.70019-2.34034-2.36036-2.34034-.501,0-2.001.18018-2.38085,2.56055a26.80767,26.80767,0,0,0-.16015,3.68066,27.30706,27.30706,0,0,0,.21972,4.2212c.36035,1.92041,1.541,2.42041,2.32128,2.42041.89941,0,2.04-.6001,2.33984-2.50049a38.54177,38.54177,0,0,0,.02051-8.042Z" transform="translate(0)"/>
    <path class="cls-2" d="M179.17781,257.18406a3.73988,3.73988,0,0,1-6.78125.2998,10.13031,10.13031,0,0,1-.90039-4.8208,10.69,10.69,0,0,1,.74023-4.541,3.667,3.667,0,0,1,3.48047-2.38037,3.7086,3.7086,0,0,1,3.40039,2.24024,14.12837,14.12837,0,0,1,.06055,9.20215Zm-1.12012-8.66211c-.37988-1.98-1.70019-2.34034-2.36035-2.34034-.501,0-2.001.18018-2.38086,2.56055a26.80609,26.80609,0,0,0-.16015,3.68066,27.30955,27.30955,0,0,0,.21972,4.2212c.36035,1.92041,1.541,2.42041,2.32129,2.42041.89942,0,2.04-.6001,2.33985-2.50049A38.54108,38.54108,0,0,0,178.05769,248.522Z" transform="translate(0)"/>
    <path class="cls-2" d="M229.17781,257.18406a3.73988,3.73988,0,0,1-6.78125.2998,10.13031,10.13031,0,0,1-.90039-4.8208,10.69,10.69,0,0,1,.74023-4.541,3.667,3.667,0,0,1,3.48047-2.38037,3.7086,3.7086,0,0,1,3.40039,2.24024,14.12837,14.12837,0,0,1,.06055,9.20215Zm-1.12012-8.66211c-.37988-1.98-1.70019-2.34034-2.36035-2.34034-.501,0-2.001.18018-2.38086,2.56055a26.80609,26.80609,0,0,0-.16015,3.68066,27.30955,27.30955,0,0,0,.21972,4.2212c.36035,1.92041,1.541,2.42041,2.32129,2.42041.89942,0,2.04-.6001,2.33985-2.50049A38.54108,38.54108,0,0,0,228.05769,248.522Z" transform="translate(0)"/>
    <path class="cls-2" d="M75.76717,159.22437c-.8003,0-2.54053,0-3.24073.06006v-.62012h.64014c1.80029,0,1.86035-.24023,1.86035-.96045V147.342a5.99132,5.99132,0,0,1-2.6206.52v-.62012a4.94381,4.94381,0,0,0,3.64111-1.28027c.46,0,.46.04.46.52v11.22217c0,.74024.06.96045,1.86035.96045h.64013v.62012C78.30769,159.22437,76.56746,159.22437,75.76717,159.22437Z" transform="translate(0)"/>
    <path class="cls-2" d="M225.76717,159.22437c-.8003,0-2.54053,0-3.24073.06006v-.62012h.64014c1.80029,0,1.86035-.24023,1.86035-.96045V147.342a5.99129,5.99129,0,0,1-2.6206.52v-.62012a4.94381,4.94381,0,0,0,3.64111-1.28027c.46,0,.46.04.46.52v11.22217c0,.74024.06006.96045,1.86035.96045h.64014v.62012C228.30769,159.22437,226.56746,159.22437,225.76717,159.22437Z" transform="translate(0)"/>
    <g>
      <path class="cls-2" d="M152.98518,5.62354c-.35009-4.02393-.72509-4.84863-4.499-4.84863a11.81707,11.81707,0,0,0-1.4248.0498c-.44971.1001-.44971.4502-.44971.94971V14.94629c0,.8501,0,1.19971,2.62451,1.19971h.99951v.7749c-1.0249-.07519-3.59912-.07519-4.749-.07519-1.14941,0-3.69873,0-4.72363.07519v-.77485h1c2.624,0,2.624-.34961,2.624-1.19971V1.77442c0-.57471,0-.84961-.5249-.94971a10.52051,10.52051,0,0,0-1.34961-.0498c-3.77393,0-4.14893.8247-4.499,4.84863H137.389L137.86365,0H153.1351l.47461,5.62354Z" transform="translate(0)"/>
      <path class="cls-2" d="M160.77571,25.2461h-5.7124v-.45166h.3501c1.12207,0,1.15088-.16016,1.15088-.68506v-7.6792c0-.5249-.02881-.68506-1.15088-.68506h-.3501v-.45166h5.33349c1.89454,0,3.23536,1.19483,3.23536,2.4624,0,1.07862-1.00586,2.01123-2.41944,2.28809a2.86108,2.86108,0,0,1,2.8125,2.53564A2.98,2.98,0,0,1,160.77571,25.2461Zm-.481-9.501h-1.80661c-.68506,0-.71435.102-.71435.583v3.58447H159.887a2.198,2.198,0,0,0,2.32779-2.06006q.00293-.04828.00375-.09668a1.93676,1.93676,0,0,0-1.86136-2.00933q-.03122-.0012-.06247-.00138Zm.21875,4.48828h-2.73974v3.978c0,.481.02929.583.71435.583h1.82129a2.28645,2.28645,0,0,0,.2041-4.561Z" transform="translate(0)"/>
    </g>
  </g>
  <g id="Layer_3" data-name="Layer 3">
    <path class="cls-3" d="M272.40974,174.03614c-.32031-2.76026-.82031-3.88086-3.8208-3.88086H266.1881c-.94,0-.98.14013-.98.80029v5.061h1.72022c1.92041,0,2.1206-.66015,2.1206-2.34033h.5v5.30081h-.5c0-1.70019-.20019-2.34033-2.1206-2.34033h-1.72019v4.9209c0,.7002,0,.96045,1.9004.96045h.66015v.62012c-.72021-.06006-2.54053-.06006-3.36084-.06006-.78027,0-2.34033,0-3.04053.06006V182.518h.48c1.54052,0,1.58056-.22021,1.58056-.94042V171.09571c0-.72022-.04-.94043-1.58056-.94043h-.48v-.62012h10.98243l.56,4.501Z" transform="translate(0)"/>
    <rect class="cls-4" x="65.7071" y="135.62305" width="170" height="85"/>
  </g>
</svg>
