<?xml version="1.0" encoding="utf-8"?>
<!-- Generator: Adobe Illustrator 23.0.3, SVG Export Plug-In . SVG Version: 6.00 Build 0)  -->
<svg version="1.1" id="Layer_1" xmlns="http://www.w3.org/2000/svg" xmlns:xlink="http://www.w3.org/1999/xlink" x="0px" y="0px"
	 viewBox="0 0 272.90976 278.62305" style="enable-background:new 0 0 272.90976 278.62305;" xml:space="preserve">
<style type="text/css">
	.st0{fill:none;stroke:#8FF4DD;stroke-width:2;stroke-miterlimit:10;}
	.st1{fill:#8FF4DD;}
	.st2{fill:#FD1D53;}
	.st3{fill:none;stroke:#FD1D53;stroke-width:2;stroke-miterlimit:10;}
</style>
<title>LightControllerTBKMap</title>
<g>
	<g>
		<rect x="50.70711" y="77.62305" class="st0" width="200" height="200"/>
		<line class="st0" x1="250.70711" y1="127.62305" x2="50.70711" y2="127.62305"/>
		<line class="st0" x1="250.70711" y1="177.62305" x2="50.70711" y2="177.62305"/>
		<line class="st0" x1="250.70711" y1="227.62305" x2="50.70711" y2="227.62305"/>
		<line class="st0" x1="100.7071" y1="277.62305" x2="100.7071" y2="77.62305"/>
		<line class="st0" x1="150.70711" y1="277.62305" x2="150.70711" y2="77.62305"/>
		<line class="st0" x1="200.70711" y1="277.62305" x2="200.70711" y2="77.62305"/>
	</g>
	<line class="st0" x1="50.70711" y1="77.62305" x2="0.70711" y2="27.62305"/>
</g>
<g>
	<g>
		<path class="st1" d="M34.08162,41.10254c-0.76025,0-2.16065,0-2.88086,0.06006v-0.62012c0.54,0,1.66064,0,1.66064-0.60009
			c-0.01039-0.09523-0.03051-0.18915-0.06005-0.28028l-1.06055-3.06054h-4.94092L25.88,39.22217
			c-0.02446,0.0983-0.03787,0.19902-0.04,0.30029c0,0.52,0.5,1.02,1.5,1.02v0.62012l-2.30029-0.06006l-2.04053,0.06006v-0.62012
			c0.96914,0.1362,1.90204-0.42196,2.24024-1.34033l4.14111-11.9624c0.1001-0.28027,0.16016-0.40039,0.48-0.40039
			c0.32031,0,0.36035,0.14014,0.46045,0.40039l4.3208,12.50244c0.21973,0.66016,0.5,0.80029,1.70019,0.80029h0.36036v0.62012
			L34.08162,41.10254z M29.26033,29.48l-2.24022,6.50147h4.501L29.26033,29.48z"/>
		<path class="st1" d="M45.921,41.1626h-7.84182v-0.62012h0.48c1.54053,0,1.58057-0.22021,1.58057-0.94043v-10.542
			c0-0.72021-0.04-0.94043-1.58057-0.94043h-0.48V27.4995h7.32129c2.60058,0,4.4414,1.64063,4.4414,3.38086
			c0,1.48047-1.38038,2.76075-3.32081,3.14063c2.22021,0.24023,3.86084,1.74023,3.86084,3.481
			C50.38191,39.38233,48.5811,41.1626,45.921,41.1626z M45.26085,28.1196h-2.4805c-0.94043,0-0.98047,0.14014-0.98047,0.8003
			v4.92089h2.90088c1.66314,0.10169,3.09381-1.16412,3.1955-2.82725c0,0,0,0,0-0.00001
			c0.0027-0.04435,0.00443-0.08875,0.00518-0.13319c0.05638-1.46725-1.08736-2.70241-2.55461-2.7588
			c-0.02867-0.0011-0.05733-0.00174-0.086-0.00191L45.26085,28.1196z M45.56065,34.28122h-3.76078v5.46094
			c0,0.66016,0.04,0.80029,0.98046,0.80029h2.50049c1.73336-0.02055,3.12187-1.44238,3.10131-3.17574
			c-0.01893-1.5964-1.23318-2.92424-2.82153-3.08549H45.56065z"/>
	</g>
	<g>
		<path class="st1" d="M6.40047,77.60254c-1.36675,0.05516-2.69665-0.45076-3.68116-1.40039
			c-0.66015,1.06055-0.72022,1.14063-0.72022,1.14063c-0.13965,0.21972-0.15967,0.25976-0.29979,0.25976
			c-0.22023,0-0.22023-0.13965-0.22023-0.48v-4.001c0-0.35987,0-0.5,0.26026-0.5c0.11368-0.01744,0.21997,0.06058,0.23741,0.17426
			c0,0,0,0.00001,0,0.00001l0.00233,0.02593c-0.04625,1.15708,0.40543,2.27853,1.24073,3.08056
			c0.89134,0.72487,2.0121,1.10786,3.16064,1.08008c1.51409-0.03281,2.71491-1.28681,2.68211-2.8009c0-0.00001,0-0.00002,0-0.00002
			L9.06062,74.122c0.00933-0.66623-0.20949-1.31561-0.62011-1.84033c-0.41383-0.5468-1.02303-0.91245-1.70021-1.0205
			c-1.40039-0.33984-2.42041-0.58007-2.64061-0.66015c-2.02493-0.69285-3.10479-2.89604-2.41195-4.92097
			c0.5394-1.57645,2.02612-2.63164,3.69226-2.62054c1.22188-0.03152,2.39458,0.48157,3.20065,1.40039l0.70019-1.14013
			c0.14013-0.24024,0.16015-0.26026,0.30029-0.26026c0.21973,0,0.21973,0.14014,0.21973,0.48v4.021c0,0.37988,0,0.48-0.25978,0.48
			c-0.2202,0-0.2202-0.12011-0.24022-0.23975C9.18074,66.90038,8.7408,63.61962,5.4,63.61962
			c-1.44407-0.01424-2.62627,1.14487-2.6405,2.58894c-0.01208,1.22476,0.82762,2.29379,2.02038,2.57219l2.56055,0.62012
			c1.80803,0.50024,3.04456,2.16556,3.00049,4.041c0.08352,2.21309-1.64283,4.07486-3.85592,4.15838c0,0,0,0,0,0
			C6.45683,77.60131,6.42865,77.60207,6.40047,77.60254z"/>
		<path class="st1" d="M23.18172,68.06055c-0.32032-2.76025-0.82032-3.88086-3.8208-3.88086H16.96
			c-0.93994,0-0.98,0.14014-0.98,0.80029v5.061h1.72021c1.92041,0,2.12061-0.66015,2.12061-2.34033h0.5v5.30127h-0.5
			c0-1.70069-0.2002-2.34082-2.12061-2.34082h-1.7201v4.92095c0,0.7002,0,0.96045,1.90039,0.96045h0.66016v0.62012
			c-0.72023-0.06006-2.54053-0.06006-3.36084-0.06006c-0.78028,0-2.34034,0-3.04053,0.06006V76.5425h0.48
			c1.54053,0,1.58057-0.22021,1.58057-0.94043V65.12012c0-0.72021-0.04-0.94043-1.58057-0.94043h-0.48v-0.62012h10.98242
			l0.56006,4.501L23.18172,68.06055z"/>
	</g>
	<g>
		<path class="st1" d="M29.17781,107.18406c-0.78419,1.91105-2.96911,2.82455-4.88016,2.04037
			c-0.82009-0.33652-1.49401-0.95337-1.90158-1.74057c-0.69005-1.50905-0.99906-3.16443-0.8999-4.8208
			c-0.08551-1.54944,0.16708-3.09893,0.74024-4.541c0.54224-1.44791,1.93448-2.40009,3.48047-2.38037
			c1.47885,0.00201,2.8152,0.8823,3.40087,2.24024c1.04608,2.97478,1.06722,6.21397,0.06006,9.20216V107.18406z M28.0577,98.522
			c-0.38038-1.98-1.70069-2.34034-2.36084-2.34034c-0.5,0-2.00049,0.18018-2.38037,2.56054
			c-0.13773,1.22176-0.19124,2.45155-0.16016,3.68066c-0.03601,1.41064,0.03762,2.82196,0.22021,4.22121
			c0.35987,1.92041,1.54,2.42041,2.32032,2.42041c0.90039,0,2.04052-0.6001,2.34082-2.50049
			c0.18865-1.37183,0.26215-2.75703,0.21972-4.14112c0.03675-1.30351-0.03002-2.60789-0.1997-3.90084L28.0577,98.522z"/>
		<path class="st1" d="M39.17781,107.18406c-0.78419,1.91105-2.96911,2.82455-4.88017,2.04037
			c-0.82009-0.33652-1.494-0.95338-1.90157-1.74057c-0.69005-1.50905-0.99907-3.16443-0.8999-4.8208
			c-0.08551-1.54944,0.16707-3.09893,0.74023-4.541c0.54224-1.44791,1.93447-2.40009,3.48047-2.38037
			c1.47885,0.00201,2.8152,0.8823,3.40087,2.24024c1.04608,2.97478,1.06722,6.21397,0.06006,9.20216L39.17781,107.18406z
			 M38.05769,98.522c-0.38038-1.98-1.70068-2.34034-2.36084-2.34034c-0.5,0-2.00048,0.18018-2.38037,2.56054
			c-0.13773,1.22176-0.19123,2.45155-0.16015,3.68066c-0.03601,1.41064,0.03761,2.82196,0.22021,4.22121
			c0.35986,1.92041,1.54,2.42041,2.32031,2.42041c0.90039,0,2.04053-0.6001,2.34082-2.50049
			c0.18866-1.37183,0.26215-2.75703,0.21973-4.14112c0.03675-1.30351-0.03003-2.60789-0.19971-3.90084V98.522z"/>
	</g>
	<g>
		<path class="st1" d="M29.588,157.18407c-0.78419,1.91106-2.96911,2.82455-4.88016,2.04037
			c-0.82009-0.33652-1.49401-0.95337-1.90158-1.74057c-0.69005-1.50905-0.99907-3.16443-0.8999-4.8208
			c-0.08552-1.54944,0.16706-3.09894,0.74022-4.541c0.54225-1.44791,1.93448-2.40009,3.48047-2.38037
			c1.47886,0.00201,2.81521,0.88229,3.40089,2.24023c1.04606,2.97479,1.06721,6.21396,0.06006,9.20215V157.18407z M28.46785,148.522
			c-0.38037-1.98-1.70068-2.34035-2.36084-2.34035c-0.5,0-2.00049,0.18018-2.38037,2.56055
			c-0.13772,1.22177-0.19123,2.45155-0.16015,3.68066c-0.03601,1.41064,0.03761,2.82196,0.22021,4.22121
			c0.35986,1.92041,1.54,2.42041,2.32031,2.42041c0.90039,0,2.04053-0.6001,2.34082-2.50049
			c0.28612-2.67268,0.29283-5.36792,0.02-8.04199H28.46785z"/>
		<path class="st1" d="M36.26717,159.00439c-0.8003,0-2.54053,0-3.24073,0.06006v-0.62012h0.64014
			c1.80029,0,1.86035-0.24023,1.86035-0.96045v-10.36189c-0.82326,0.36838-1.71906,0.54613-2.6206,0.52v-0.62012
			c1.33704,0.0842,2.651-0.37781,3.64111-1.28027c0.46,0,0.46,0.03999,0.46,0.52v11.22217
			c0,0.74023,0.06005,0.96045,1.86035,0.96045h0.64013v0.62012C38.80769,159.00439,37.06746,159.00439,36.26717,159.00439z"/>
	</g>
	<g>
		<path class="st1" d="M25.76717,209.22437c-0.8003,0-2.54053,0-3.24073,0.06006v-0.62012h0.64013
			c1.8003,0,1.86035-0.24023,1.86035-0.96045V197.342c-0.82326,0.36838-1.71906,0.54613-2.62059,0.52v-0.62012
			c1.33704,0.08421,2.651-0.37781,3.64111-1.28027c0.46,0,0.46,0.03999,0.46,0.52v11.22217
			c0,0.74023,0.06006,0.96045,1.86035,0.96045h0.64014v0.62012C28.3077,209.22437,26.56746,209.22437,25.76717,209.22437z"/>
		<path class="st1" d="M35.76717,209.22437c-0.8003,0-2.54053,0-3.24073,0.06006v-0.62012h0.64014
			c1.80029,0,1.86035-0.24023,1.86035-0.96045V197.342c-0.82326,0.36838-1.71906,0.54613-2.6206,0.52v-0.62012
			c1.33704,0.08421,2.651-0.37781,3.64111-1.28027c0.46,0,0.46,0.03999,0.46,0.52v11.22217
			c0,0.74023,0.06005,0.96045,1.86035,0.96045h0.64013v0.62012C38.30769,209.22437,36.56746,209.22437,35.76717,209.22437z"/>
	</g>
	<g>
		<path class="st1" d="M25.357,259.00439c-0.80029,0-2.54052,0-3.24072,0.06006v-0.62012h0.64013
			c1.8003,0,1.86036-0.24023,1.86036-0.96045v-10.36189c-0.82326,0.36838-1.71907,0.54613-2.62062,0.52v-0.62012
			c1.33704,0.0842,2.65101-0.37781,3.64112-1.28027c0.46,0,0.46,0.03999,0.46,0.52v11.22218
			c0,0.74023,0.06006,0.96045,1.86035,0.96045h0.64014v0.62012C27.89754,259.00439,26.15731,259.00439,25.357,259.00439z"/>
		<path class="st1" d="M38.67781,257.18405c-0.78418,1.91104-2.96911,2.82455-4.88016,2.04037
			c-0.82009-0.33652-1.49401-0.95337-1.90158-1.74057c-0.69006-1.50905-0.99907-3.16443-0.8999-4.8208
			c-0.08551-1.54944,0.16707-3.09894,0.74023-4.541c0.54226-1.44791,1.93448-2.40009,3.48047-2.38037
			c1.47885,0.00201,2.8152,0.88229,3.40087,2.24023c1.04609,2.97479,1.06723,6.21397,0.06006,9.20216L38.67781,257.18405z
			 M37.55769,248.522c-0.38038-1.98-1.70068-2.34035-2.36084-2.34035c-0.5,0-2.00048,0.18018-2.38037,2.56055
			c-0.13773,1.22177-0.19123,2.45155-0.16015,3.68066c-0.03601,1.41064,0.03761,2.82196,0.22021,4.22121
			c0.35986,1.92041,1.54,2.42041,2.32031,2.42041c0.90039,0,2.04053-0.6001,2.34082-2.50049
			c0.28611-2.67268,0.29282-5.36792,0.02-8.04199H37.55769z"/>
	</g>
	<g>
		<path class="st1" d="M74.17781,62.18405c-0.78419,1.91105-2.96912,2.82455-4.88017,2.04036
			c-0.82009-0.33652-1.494-0.95337-1.90157-1.74057c-0.69006-1.50904-0.99907-3.16443-0.8999-4.8208
			c-0.08551-1.54944,0.16707-3.09893,0.74023-4.541c0.54224-1.44791,1.93448-2.40009,3.48047-2.38037
			c1.47885,0.00201,2.8152,0.88231,3.40087,2.24024c0.61349,1.4809,0.88697,3.08056,0.80029,4.68116
			C75.00195,59.20591,74.74937,60.74854,74.17781,62.18405z M73.05769,53.52194c-0.38038-1.98-1.70068-2.34034-2.36084-2.34034
			c-0.5,0-2.00048,0.18018-2.38037,2.56055c-0.13773,1.22176-0.19123,2.45155-0.16015,3.68065
			c-0.03601,1.41064,0.03761,2.82196,0.22021,4.2212c0.35986,1.92041,1.54,2.42041,2.32031,2.42041
			c0.90039,0,2.04053-0.6001,2.34082-2.50049c0.18865-1.37183,0.26215-2.75703,0.21973-4.14112
			c0.03676-1.30351-0.03002-2.60788-0.19971-3.90082V53.52194z"/>
		<path class="st1" d="M84.17781,62.18405c-0.78419,1.91105-2.96912,2.82455-4.88017,2.04036
			c-0.82009-0.33652-1.494-0.95337-1.90157-1.74057c-0.69006-1.50904-0.99907-3.16443-0.8999-4.8208
			c-0.08551-1.54944,0.16707-3.09893,0.74023-4.541c0.54224-1.44791,1.93448-2.40009,3.48047-2.38037
			c1.47885,0.00201,2.8152,0.88231,3.40087,2.24024c0.61349,1.4809,0.88697,3.08056,0.80029,4.68116
			C85.00195,59.20591,84.74937,60.74854,84.17781,62.18405z M83.05769,53.52194c-0.38038-1.98-1.70068-2.34034-2.36084-2.34034
			c-0.5,0-2.00048,0.18018-2.38037,2.56055c-0.13773,1.22176-0.19123,2.45155-0.16015,3.68065
			c-0.03601,1.41064,0.03761,2.82196,0.22021,4.2212c0.35986,1.92041,1.54,2.42041,2.32031,2.42041
			c0.90039,0,2.04053-0.6001,2.34082-2.50049c0.18865-1.37183,0.26215-2.75703,0.21973-4.14112
			c0.03676-1.30351-0.03002-2.60788-0.19971-3.90082V53.52194z"/>
	</g>
	<g>
		<path class="st1" d="M124.588,62.18405c-0.78419,1.91105-2.96912,2.82455-4.88017,2.04036
			c-0.82009-0.33652-1.494-0.95337-1.90157-1.74057c-0.69006-1.50904-0.99907-3.16443-0.8999-4.8208
			c-0.08552-1.54944,0.16707-3.09893,0.74023-4.541c0.54225-1.44791,1.93448-2.40009,3.48047-2.38037
			c1.47885,0.00202,2.8152,0.88231,3.40088,2.24024c0.61349,1.4809,0.88698,3.08056,0.80029,4.68116
			C125.41215,59.20591,125.15957,60.74854,124.588,62.18405z M123.46788,53.52194c-0.38037-1.98-1.70068-2.34034-2.36084-2.34034
			c-0.5,0-2.00049,0.18018-2.38037,2.56055c-0.13773,1.22176-0.19124,2.45155-0.16016,3.68065
			c-0.03601,1.41064,0.03762,2.82196,0.22022,4.2212c0.35986,1.92041,1.54,2.42041,2.32031,2.42041
			c0.90039,0,2.04053-0.6001,2.34082-2.50049c0.18866-1.37183,0.26216-2.75703,0.21973-4.14112
			c0.03676-1.30351-0.03002-2.60788-0.19971-3.90082L123.46788,53.52194z"/>
		<path class="st1" d="M131.26717,64.0044c-0.80029,0-2.54053,0-3.24072,0.06006v-0.62012h0.64014
			c1.80029,0,1.86035-0.24024,1.86035-0.96045V52.12205c-0.82326,0.36838-1.71906,0.54613-2.6206,0.52v-0.62011
			c1.33703,0.0842,2.65099-0.37782,3.64111-1.28028c0.46001,0,0.46001,0.04,0.46001,0.52v11.22223
			c0,0.74023,0.06,0.96045,1.86035,0.96045h0.64014v0.62012C133.80769,64.0044,132.06746,64.0044,131.26717,64.0044z"/>
	</g>
	<g>
		<path class="st1" d="M170.76717,64.22437c-0.80029,0-2.54053,0-3.24072,0.06006v-0.62012h0.64014
			c1.80029,0,1.86035-0.24023,1.86035-0.96045V52.34205c-0.82326,0.36838-1.71907,0.54613-2.62061,0.52V52.242
			c1.33704,0.0842,2.651-0.37782,3.64111-1.28028c0.46001,0,0.46001,0.04,0.46001,0.52v11.2222
			c0,0.74023,0.06006,0.96045,1.86035,0.96045h0.64014v0.62012C173.30769,64.22437,171.56746,64.22437,170.76717,64.22437z"/>
		<path class="st1" d="M180.76717,64.22437c-0.80029,0-2.54053,0-3.24072,0.06006v-0.62012h0.64014
			c1.80029,0,1.86035-0.24023,1.86035-0.96045V52.34205c-0.82326,0.36838-1.71907,0.54613-2.62061,0.52V52.242
			c1.33704,0.0842,2.651-0.37782,3.64111-1.28028c0.46001,0,0.46001,0.04,0.46001,0.52v11.2222
			c0,0.74023,0.06006,0.96045,1.86035,0.96045h0.64014v0.62012C183.30769,64.22437,181.56746,64.22437,180.76717,64.22437z"/>
	</g>
	<g>
		<path class="st1" d="M220.35699,64.0044c-0.80029,0-2.54053,0-3.24072,0.06006v-0.62012h0.64014
			c1.80029,0,1.86037-0.24024,1.86037-0.96045V52.12205c-0.82326,0.36838-1.71907,0.54613-2.62061,0.52v-0.62011
			c1.33704,0.0842,2.651-0.37782,3.64111-1.28028c0.46001,0,0.46001,0.04,0.46001,0.52v11.22223
			c0,0.74023,0.06006,0.96045,1.86037,0.96045h0.64014v0.62012C222.89754,64.0044,221.1573,64.0044,220.35699,64.0044z"/>
		<path class="st1" d="M233.67781,62.18405c-0.78419,1.91105-2.96912,2.82455-4.88017,2.04036
			c-0.82008-0.33652-1.49399-0.95337-1.90157-1.74057c-0.69005-1.50905-0.99907-3.16443-0.8999-4.8208
			c-0.08551-1.54944,0.16708-3.09893,0.74023-4.541c0.54225-1.44791,1.93448-2.40009,3.48047-2.38037
			c1.47885,0.00201,2.81522,0.8823,3.40088,2.24024c0.61351,1.4809,0.88698,3.08056,0.80029,4.68116
			C234.50195,59.20591,234.24937,60.74854,233.67781,62.18405z M232.55769,53.52194c-0.38037-1.98-1.70068-2.34034-2.36084-2.34034
			c-0.5,0-2.00047,0.18018-2.38037,2.56055c-0.13773,1.22176-0.19124,2.45155-0.16016,3.68065
			c-0.03601,1.41064,0.03761,2.82196,0.22021,4.2212c0.35986,1.92041,1.53999,2.42041,2.32031,2.42041
			c0.90039,0,2.04053-0.6001,2.34082-2.50049c0.18866-1.37183,0.26215-2.75703,0.21973-4.14112
			c0.03674-1.30351-0.03003-2.60788-0.19971-3.90082V53.52194z"/>
	</g>
	<g>
		<line class="st0" x1="216.86827" y1="211.46188" x2="234.54594" y2="193.78421"/>
		<line class="st0" x1="216.86827" y1="193.78423" x2="234.54594" y2="211.46188"/>
	</g>
	<g>
		<line class="st0" x1="116.86827" y1="211.46188" x2="134.54594" y2="193.78421"/>
		<line class="st0" x1="116.86827" y1="193.78423" x2="134.54594" y2="211.46188"/>
	</g>
	<g>
		<line class="st0" x1="166.86827" y1="211.46188" x2="184.54594" y2="193.78421"/>
		<line class="st0" x1="166.86827" y1="193.78423" x2="184.54594" y2="211.46188"/>
	</g>
	<g>
		<line class="st0" x1="66.86827" y1="211.46188" x2="84.54593" y2="193.78421"/>
		<line class="st0" x1="66.86827" y1="193.78423" x2="84.54595" y2="211.46188"/>
	</g>
	<path class="st1" d="M79.17781,107.18406c-0.78398,1.91091-2.96862,2.82447-4.87953,2.04049
		c-0.82018-0.33649-1.49416-0.95341-1.90172-1.74069c-0.69043-1.50893-0.99962-3.16438-0.90039-4.8208
		c-0.0858-1.54945,0.16679-3.09901,0.74023-4.541c0.54234-1.44784,1.93451-2.39997,3.48047-2.38037
		c1.47872,0.00206,2.81491,0.88236,3.40039,2.24024c1.04655,2.97468,1.06787,6.21397,0.06055,9.20216L79.17781,107.18406z
		 M78.05769,98.522c-0.37988-1.98-1.70019-2.34034-2.36036-2.34034c-0.501,0-2.001,0.18018-2.38085,2.56054
		c-0.13773,1.22176-0.19123,2.45155-0.16015,3.68066c-0.03593,1.41063,0.03752,2.82193,0.21972,4.22121
		c0.36035,1.92041,1.541,2.42041,2.32128,2.42041c0.89941,0,2.04-0.6001,2.33984-2.50049
		c0.18949-1.37175,0.26331-2.757,0.2207-4.14112c0.03685-1.30353-0.03009-2.60793-0.20018-3.90084V98.522z"/>
	<path class="st1" d="M125.76717,159.22437c-0.8003,0-2.54053,0-3.24073,0.06006v-0.62012h0.64014
		c1.80029,0,1.86035-0.24023,1.86035-0.96045V147.342c-0.82326,0.36838-1.71906,0.54613-2.6206,0.52v-0.62012
		c1.33704,0.08421,2.65101-0.37781,3.64111-1.28027c0.46,0,0.46,0.03999,0.46,0.52v11.22217c0,0.74023,0.06,0.96045,1.86035,0.96045
		h0.64014v0.62012C128.30769,159.22437,126.56746,159.22437,125.76717,159.22437z"/>
	<path class="st1" d="M129.17781,107.18406c-0.78398,1.91091-2.96862,2.82447-4.87953,2.04049
		c-0.82018-0.33649-1.49416-0.95341-1.90172-1.74069c-0.69043-1.50893-0.99962-3.16438-0.90039-4.8208
		c-0.0858-1.54945,0.16679-3.09901,0.74023-4.541c0.54234-1.44784,1.93451-2.39997,3.48047-2.38037
		c1.47872,0.00206,2.8149,0.88237,3.40038,2.24024c1.04655,2.97468,1.06787,6.21397,0.06055,9.20216L129.17781,107.18406z
		 M128.05769,98.522c-0.37988-1.98-1.70019-2.34034-2.36036-2.34034c-0.501,0-2.001,0.18018-2.38085,2.56054
		c-0.13773,1.22176-0.19123,2.45155-0.16015,3.68066c-0.03593,1.41063,0.03752,2.82193,0.21972,4.22121
		c0.36035,1.92041,1.541,2.42041,2.32128,2.42041c0.89941,0,2.04-0.6001,2.33984-2.50049
		c0.18948-1.37175,0.26332-2.757,0.2207-4.14112c0.03685-1.30353-0.03009-2.60793-0.20018-3.90084V98.522z"/>
	<path class="st1" d="M175.76717,159.22437c-0.80029,0-2.54053,0-3.24072,0.06006v-0.62012h0.64014
		c1.80029,0,1.86035-0.24023,1.86035-0.96045V147.342c-0.82326,0.36838-1.71907,0.54613-2.62061,0.52v-0.62012
		c1.33704,0.08421,2.651-0.37781,3.64111-1.28027c0.46001,0,0.46001,0.03999,0.46001,0.52v11.22217
		c0,0.74023,0.06006,0.96045,1.86035,0.96045h0.64014v0.62012C178.30769,159.22437,176.56746,159.22437,175.76717,159.22437z"/>
	<path class="st1" d="M179.17781,107.18406c-0.78398,1.91091-2.96863,2.82447-4.87953,2.04049
		c-0.82018-0.33649-1.49416-0.95341-1.90172-1.74069c-0.69043-1.50893-0.99962-3.16438-0.90039-4.8208
		c-0.08578-1.54945,0.16681-3.09901,0.74023-4.541c0.54234-1.44784,1.93451-2.39997,3.48047-2.38037
		c1.47873,0.00205,2.81491,0.88236,3.40039,2.24024c1.04655,2.97468,1.06787,6.21397,0.06055,9.20216V107.18406z M178.05769,98.522
		c-0.37988-1.98-1.7002-2.34034-2.36035-2.34034c-0.50101,0-2.00101,0.18018-2.38086,2.56054
		c-0.13773,1.22176-0.19124,2.45155-0.16016,3.68066c-0.03592,1.41063,0.03754,2.82193,0.21973,4.22121
		c0.36035,1.92041,1.541,2.42041,2.32129,2.42041c0.89941,0,2.03999-0.6001,2.33984-2.50049
		c0.18948-1.37175,0.26331-2.757,0.2207-4.14112c0.03685-1.30354-0.03011-2.60793-0.2002-3.90084V98.522z"/>
	<path class="st1" d="M229.17781,107.18406c-0.78398,1.91091-2.96863,2.82447-4.87953,2.04049
		c-0.82018-0.33649-1.49416-0.95341-1.90172-1.74069c-0.69043-1.50893-0.99962-3.16438-0.90039-4.8208
		c-0.08578-1.54945,0.16681-3.09901,0.74023-4.541c0.54234-1.44784,1.93451-2.39997,3.48047-2.38037
		c1.47873,0.00205,2.81491,0.88236,3.40039,2.24024c1.04655,2.97468,1.06787,6.21397,0.06055,9.20216V107.18406z M228.05769,98.522
		c-0.37988-1.98-1.7002-2.34034-2.36035-2.34034c-0.50101,0-2.00101,0.18018-2.38086,2.56054
		c-0.13773,1.22176-0.19124,2.45155-0.16016,3.68066c-0.03592,1.41063,0.03754,2.82193,0.21973,4.22121
		c0.36035,1.92041,1.541,2.42041,2.32129,2.42041c0.89941,0,2.03999-0.6001,2.33984-2.50049
		c0.18948-1.37175,0.26331-2.757,0.2207-4.14112c0.03685-1.30354-0.03011-2.60793-0.2002-3.90084V98.522z"/>
	<path class="st1" d="M79.17781,257.18405c-0.78398,1.91092-2.96862,2.82446-4.87953,2.0405
		c-0.82018-0.33649-1.49416-0.9534-1.90172-1.74069c-0.69043-1.50894-0.99962-3.16438-0.90039-4.8208
		c-0.0858-1.54945,0.16679-3.09901,0.74023-4.541c0.54234-1.44783,1.93451-2.39996,3.48047-2.38037
		c1.47872,0.00204,2.81491,0.88235,3.40039,2.24023c1.04656,2.97467,1.06787,6.21397,0.06055,9.20216L79.17781,257.18405z
		 M78.05769,248.522c-0.37988-1.98-1.70019-2.34035-2.36036-2.34035c-0.501,0-2.001,0.18018-2.38085,2.56055
		c-0.13773,1.22177-0.19123,2.45155-0.16015,3.68066c-0.03593,1.41063,0.03752,2.82193,0.21972,4.22121
		c0.36035,1.92041,1.541,2.42041,2.32128,2.42041c0.89941,0,2.04-0.6001,2.33984-2.50049
		c0.28725-2.67261,0.29413-5.36795,0.02051-8.04199H78.05769z"/>
	<path class="st1" d="M129.17781,257.18405c-0.78398,1.91092-2.96862,2.82446-4.87953,2.0405
		c-0.82018-0.33649-1.49416-0.9534-1.90172-1.74069c-0.69043-1.50894-0.99962-3.16438-0.90039-4.8208
		c-0.0858-1.54945,0.16679-3.09901,0.74023-4.541c0.54234-1.44783,1.93451-2.39996,3.48047-2.38037
		c1.47872,0.00206,2.8149,0.88235,3.40038,2.24023c1.04655,2.97467,1.06787,6.21397,0.06055,9.20216L129.17781,257.18405z
		 M128.05769,248.52194c-0.37988-1.98-1.70019-2.34035-2.36036-2.34035c-0.501,0-2.001,0.18018-2.38085,2.56055
		c-0.13773,1.22177-0.19123,2.45155-0.16015,3.68066c-0.03593,1.41063,0.03752,2.82193,0.21972,4.22121
		c0.36035,1.92041,1.541,2.42041,2.32128,2.42041c0.89941,0,2.04-0.6001,2.33984-2.50049
		c0.28725-2.67261,0.29413-5.36795,0.02051-8.04199H128.05769z"/>
	<path class="st1" d="M179.17781,257.18405c-0.78398,1.91092-2.96861,2.82446-4.87953,2.0405
		c-0.82018-0.33649-1.49416-0.9534-1.90172-1.74069c-0.69043-1.50894-0.99962-3.16438-0.90039-4.8208
		c-0.08578-1.54945,0.16681-3.099,0.74023-4.541c0.54234-1.44783,1.93451-2.39996,3.48047-2.38037
		c1.47873,0.00204,2.81491,0.88235,3.40039,2.24023c1.04657,2.97467,1.06787,6.21397,0.06055,9.20216V257.18405z
		 M178.05769,248.52194c-0.37988-1.98-1.7002-2.34035-2.36035-2.34035c-0.50101,0-2.00101,0.18018-2.38086,2.56055
		c-0.13773,1.22176-0.19124,2.45155-0.16016,3.68066c-0.03592,1.41063,0.03754,2.82193,0.21973,4.22121
		c0.36035,1.92041,1.541,2.42041,2.32129,2.42041c0.89941,0,2.03999-0.6001,2.33984-2.50049
		c0.28725-2.67259,0.29413-5.3679,0.02051-8.04193V248.52194z"/>
	<path class="st1" d="M229.17781,257.18405c-0.78398,1.91092-2.96861,2.82446-4.87953,2.0405
		c-0.82018-0.33649-1.49416-0.9534-1.90172-1.74069c-0.69043-1.50894-0.99962-3.16438-0.90039-4.8208
		c-0.08578-1.54945,0.16681-3.099,0.74023-4.541c0.54234-1.44783,1.93451-2.39996,3.48047-2.38037
		c1.47873,0.00204,2.81491,0.88235,3.40039,2.24023c1.04657,2.97467,1.06787,6.21397,0.06055,9.20216V257.18405z
		 M228.05769,248.52194c-0.37988-1.98-1.7002-2.34035-2.36035-2.34035c-0.50101,0-2.00101,0.18018-2.38086,2.56055
		c-0.13773,1.22176-0.19124,2.45155-0.16016,3.68066c-0.03592,1.41063,0.03754,2.82193,0.21973,4.22121
		c0.36035,1.92041,1.541,2.42041,2.32129,2.42041c0.89941,0,2.03999-0.6001,2.33984-2.50049
		c0.28725-2.67259,0.29413-5.3679,0.02051-8.04193V248.52194z"/>
	<path class="st1" d="M75.76717,159.22437c-0.8003,0-2.54053,0-3.24073,0.06006v-0.62012h0.64014
		c1.80029,0,1.86035-0.24023,1.86035-0.96045V147.342c-0.82326,0.36838-1.71906,0.54613-2.6206,0.52v-0.62012
		c1.33704,0.08421,2.65101-0.37781,3.64111-1.28027c0.46,0,0.46,0.03999,0.46,0.52v11.22217c0,0.74023,0.06,0.96045,1.86035,0.96045
		h0.64013v0.62012C78.30769,159.22437,76.56746,159.22437,75.76717,159.22437z"/>
	<path class="st1" d="M225.76717,159.22437c-0.80029,0-2.54053,0-3.24072,0.06006v-0.62012h0.64014
		c1.80029,0,1.86035-0.24023,1.86035-0.96045V147.342c-0.82326,0.36838-1.71907,0.54613-2.62061,0.52v-0.62012
		c1.33704,0.08421,2.651-0.37781,3.64111-1.28027c0.46001,0,0.46001,0.03999,0.46001,0.52v11.22217
		c0,0.74023,0.06006,0.96045,1.86035,0.96045h0.64014v0.62012C228.30769,159.22437,226.56746,159.22437,225.76717,159.22437z"/>
	<g>
		<path class="st1" d="M152.98518,5.62354c-0.35008-4.02393-0.72508-4.84863-4.49899-4.84863
			c-0.47551-0.01209-0.95131,0.00454-1.4248,0.0498c-0.44971,0.1001-0.44971,0.4502-0.44971,0.94971v13.17187
			c0,0.8501,0,1.19971,2.62451,1.19971h0.99951v0.7749c-1.0249-0.07519-3.59912-0.07519-4.74899-0.07519
			c-1.14941,0-3.69873,0-4.72363,0.07519v-0.77485h1c2.62399,0,2.62399-0.34961,2.62399-1.19971V1.77442
			c0-0.57471,0-0.84961-0.5249-0.94971c-0.44833-0.04549-0.89914-0.06212-1.34961-0.0498c-3.77393,0-4.14893,0.8247-4.49899,4.84863
			h-0.62456L137.86365,0h15.27145l0.47461,5.62354H152.98518z"/>
		<path class="st1" d="M160.77571,25.2461h-5.7124v-0.45166h0.3501c1.12207,0,1.15088-0.16016,1.15088-0.68506v-7.6792
			c0-0.5249-0.02881-0.68506-1.15088-0.68506h-0.3501v-0.45166h5.3335c1.89455,0,3.23537,1.19483,3.23537,2.4624
			c0,1.07862-1.00586,2.01123-2.41943,2.28809c1.44275,0.01514,2.64847,1.10217,2.8125,2.53564
			C163.86023,24.21111,162.40805,25.40274,160.77571,25.2461z M160.29471,15.7451h-1.80661c-0.68506,0-0.71436,0.102-0.71436,0.583
			v3.58447h2.11325c1.21167,0.07393,2.25386-0.84838,2.32779-2.06005c0,0,0-0.00001,0-0.00001
			c0.00195-0.03219,0.0032-0.06441,0.00375-0.09668c0.04086-1.06886-0.7925-1.96847-1.86136-2.00933
			c-0.02081-0.0008-0.04164-0.00126-0.06247-0.00138V15.7451z M160.51346,20.23338h-2.73975v3.978
			c0,0.481,0.0293,0.583,0.71436,0.583h1.82129c1.26268-0.01506,2.27408-1.05087,2.25902-2.31355
			C162.5545,21.31815,161.67024,20.35104,160.51346,20.23338z"/>
	</g>
</g>
<g id="Layer_3">
	<path class="st2" d="M272.40973,174.03613c-0.32031-2.76025-0.82031-3.88086-3.8208-3.88086h-2.40082
		c-0.94,0-0.98001,0.14014-0.98001,0.80029v5.061h1.72021c1.92041,0,2.12061-0.66016,2.12061-2.34033h0.5v5.30081h-0.5
		c0-1.7002-0.2002-2.34033-2.12061-2.34033h-1.72018v4.9209c0,0.7002,0,0.96045,1.90039,0.96045h0.66016v0.62012
		c-0.72021-0.06006-2.54053-0.06006-3.36084-0.06006c-0.78027,0-2.34033,0-3.04053,0.06006v-0.62018h0.48001
		c1.54053,0,1.58057-0.22021,1.58057-0.94041V171.0957c0-0.72021-0.04001-0.94043-1.58057-0.94043h-0.48001v-0.62012h10.98242
		l0.56,4.50101L272.40973,174.03613z"/>
	<rect x="65.7071" y="135.62305" class="st3" width="170" height="85"/>
</g>
</svg>
