<svg id="Layer_1" data-name="Layer 1" xmlns="http://www.w3.org/2000/svg" viewBox="0 0 300.5001 397.87657">
  <defs>
    <style>
      .cls-1, .cls-2 {
        fill: none;
        stroke: #8ff4dd;
        stroke-miterlimit: 10;
      }

      .cls-1 {
        stroke-width: 2px;
      }

      .cls-2 {
        stroke-width: 3px;
      }

      .cls-3 {
        fill: #8ff4dd;
      }
    </style>
  </defs>
  <title>MealyToMoore</title>
  <g>
    <path class="cls-1" d="M137.4999,100.0001a37.5,37.5,0,1,1-37.5-37.5h0a37.37836,37.37836,0,0,1,37.5,37.25632Q137.50029,99.87828,137.4999,100.0001Z" transform="translate(-8.50229 -15.62354)"/>
    <path class="cls-1" d="M287.4999,100.0001a37.5,37.5,0,1,1-37.5-37.5h0a37.37836,37.37836,0,0,1,37.5,37.25632Q287.50029,99.87828,287.4999,100.0001Z" transform="translate(-8.50229 -15.62354)"/>
    <path class="cls-2" d="M29.00457,28.44582A155.05381,155.05381,0,0,1,74.75063,68.30464" transform="translate(-8.50229 -15.62354)"/>
    <polygon class="cls-3" points="69.759 37.387 66.769 37.114 65.436 51.845 50.839 49.438 50.353 52.402 68.131 55.329 69.759 37.387"/>
    <g>
      <path class="cls-2" d="M29.00457,171.96065a155.05366,155.05366,0,0,0,45.74606-39.85882" transform="translate(-8.50229 -15.62354)"/>
      <polygon class="cls-3" points="69.759 131.772 66.769 132.046 65.436 117.314 50.839 119.721 50.353 116.758 68.131 113.831 69.759 131.772"/>
    </g>
    <g>
      <line class="cls-2" x1="128.99771" y1="84.87646" x2="200.74422" y2="84.87646"/>
      <polygon class="cls-3" points="190.804 97.146 188.757 94.949 199.593 84.879 188.757 74.807 190.804 72.61 203.998 84.879 190.804 97.146"/>
    </g>
    <path class="cls-3" d="M101.89307,112.91553a9.01552,9.01552,0,0,1-6.623-2.52c-1.188,1.9082-1.2959,2.05176-1.2959,2.05176-.25195.396-.28808.46826-.54.46826-.396,0-.396-.252-.396-.86377v-7.19922c0-.648,0-.8999.46826-.8999a.37475.37475,0,0,1,.43164.35986,7.284,7.284,0,0,0,2.23193,5.54346,8.68215,8.68215,0,0,0,5.687,1.94384,4.93528,4.93528,0,0,0,4.82373-5.14746,5.25762,5.25762,0,0,0-1.11621-3.31152,4.77924,4.77924,0,0,0-3.05957-1.83594c-2.51953-.61181-4.35547-1.04394-4.75146-1.188a6.973,6.973,0,0,1,2.30371-13.57031,7.406,7.406,0,0,1,5.75928,2.52l1.26025-2.05176c.25195-.43213.2876-.46826.53955-.46826.396,0,.396.252.396.86426V94.8457c0,.68409,0,.86377-.46778.86377-.396,0-.396-.21582-.43213-.43164-.21582-1.62012-1.00781-7.52344-7.019-7.52344a4.70525,4.70525,0,0,0-1.11572,9.28711l4.60742,1.11573a7.36487,7.36487,0,0,1,5.39942,7.271A7.2164,7.2164,0,0,1,101.89307,112.91553Z" transform="translate(-8.50229 -15.62354)"/>
    <path class="cls-3" d="M260.7793,95.85352c-.50391-5.79541-1.04346-6.98291-6.479-6.98291a17.00486,17.00486,0,0,0-2.05175.07177c-.64795.144-.64795.64795-.64795,1.36768v18.96973c0,1.22412,0,1.728,3.77978,1.728h1.43945v1.11573c-1.47558-.10791-5.1831-.10791-6.83886-.10791s-5.32764,0-6.80323.10791v-1.11573h1.44c3.77929,0,3.77929-.5039,3.77929-1.728V90.31006c0-.82764,0-1.22363-.75586-1.36768a15.1459,15.1459,0,0,0-1.94384-.07177c-5.43506,0-5.9751,1.1875-6.479,6.98291h-.8999l.68408-8.09913h21.99317l.68359,8.09913Z" transform="translate(-8.50229 -15.62354)"/>
    <g>
      <path class="cls-3" d="M62.2666,31.30762c-.79785,0-2.33056,0-3.06543.063v-.65088c.90283-.021,1.36475-.37793,1.36475-.62989a.72354.72354,0,0,0-.105-.23095l-3.31739-5.01807L54.16211,29.25c-.147.231-.21.31494-.21.50391,0,.37793.35693.94482,1.32275.96582v.65088c-.75586-.063-1.91064-.063-2.6875-.063l-2.33056.063v-.65088c2.1206,0,2.75048-.96582,3.04443-1.38575l3.44336-5.08105L52.88135,18.416c-.39893-.58789-.79785-.73487-1.95264-.73487h-.39892v-.65088l2.72949.063c.79785,0,2.33056,0,3.06543-.063v.65088c-.90283.021-1.36475.37793-1.36475.62989a.86677.86677,0,0,0,.147.31494l2.7085,4.05224L60.209,19.12988c.147-.23095.189-.273.189-.48291,0-.48291-.46191-.94482-1.30176-.96582v-.65088c.83985.063,1.84766.063,2.6875.063l2.33057-.063v.65088a3.24875,3.24875,0,0,0-3.04444,1.36475l-2.87646,4.22021,4.43018,6.69776c.44091.65088.88183.75586,1.97363.75586h.39892v.65088Z" transform="translate(-8.50229 -15.62354)"/>
      <path class="cls-3" d="M68.648,38.32715c-.48926,0-1.5542,0-1.98242.03662v-.37939h.3916c1.10156,0,1.13818-.147,1.13818-.58741V31.05811a3.669,3.669,0,0,1-1.603.31787v-.3794a3.02334,3.02334,0,0,0,2.227-.7832c.28125,0,.28125.0249.28125.31836V37.397c0,.45264.03711.58741,1.13818.58741h.3916v.37939C70.20215,38.32715,69.1377,38.32715,68.648,38.32715Z" transform="translate(-8.50229 -15.62354)"/>
      <path class="cls-3" d="M80.8208,16.42139,73.66113,36.19971c-.063.21-.147.41992-.44092.41992a.42116.42116,0,0,1-.41992-.41992,1.26976,1.26976,0,0,1,.105-.37793l7.15967-19.77832c.063-.21.147-.41992.44092-.41992a.42115.42115,0,0,1,.41992.41992A1.26976,1.26976,0,0,1,80.8208,16.42139Z" transform="translate(-8.50229 -15.62354)"/>
      <path class="cls-3" d="M94.93213,19.0459l-4.05225,6.59277v4.05225c0,.81885.063,1.02881,1.67969,1.02881h.48291v.65088c-.75586-.063-2.24658-.063-3.06543-.063s-2.30957,0-3.06543.063v-.65088h.50391c1.6167,0,1.65869-.231,1.65869-.98682V25.63867L84.665,18.458c-.33594-.5459-.50391-.77686-1.93164-.77686h-.37793v-.65088l2.72949.063c.81885,0,2.35156,0,3.10742-.063v.65088c-.94482,0-1.46972.084-1.46972.5249,0,.105,0,.147.147.35694l3.80029,6.19385,3.46436-5.627a1.31446,1.31446,0,0,0,.21-.62988c0-.41992-.33594-.81885-1.19678-.81885v-.65088l2.41455.063c.5669,0,1.40674-.021,2.05762-.063v.65088A2.9056,2.9056,0,0,0,94.93213,19.0459Z" transform="translate(-8.50229 -15.62354)"/>
      <path class="cls-3" d="M101.01953,38.32715c-.48926,0-1.5542,0-1.98242.03662v-.37939h.3916c1.10156,0,1.13818-.147,1.13818-.58741V31.05811a3.66787,3.66787,0,0,1-1.603.31787v-.3794a3.02334,3.02334,0,0,0,2.22705-.7832c.28125,0,.28125.0249.28125.31836V37.397c0,.45264.03711.58741,1.13818.58741h.3916v.37939C102.57373,38.32715,101.50928,38.32715,101.01953,38.32715Z" transform="translate(-8.50229 -15.62354)"/>
    </g>
    <g>
      <path class="cls-3" d="M62.2666,179.30762c-.79785,0-2.33056,0-3.06543.063v-.65088c.90283-.021,1.36475-.37793,1.36475-.62989a.72354.72354,0,0,0-.105-.231l-3.31739-5.01807L54.16211,177.25c-.147.231-.21.31494-.21.50391,0,.37793.35693.94482,1.32275.96582v.65088c-.75586-.063-1.91064-.063-2.6875-.063l-2.33056.063v-.65088c2.1206,0,2.75048-.96582,3.04443-1.38575l3.44336-5.08105L52.88135,166.416c-.39893-.58789-.79785-.73487-1.95264-.73487h-.39892v-.65088l2.72949.063c.79785,0,2.33056,0,3.06543-.063v.65088c-.90283.021-1.36475.37793-1.36475.62989a.86677.86677,0,0,0,.147.31494l2.7085,4.05224,2.39355-3.54834c.147-.231.189-.273.189-.48291,0-.48291-.46191-.94482-1.30176-.96582v-.65088c.83985.063,1.84766.063,2.6875.063l2.33057-.063v.65088a3.24875,3.24875,0,0,0-3.04444,1.36475l-2.87646,4.22021,4.43018,6.69776c.44091.65088.88183.75586,1.97363.75586h.39892v.65088Z" transform="translate(-8.50229 -15.62354)"/>
      <path class="cls-3" d="M70.65479,186.36377h-4.54c0-.29346,0-.31836.13476-.45264l2.34961-2.61914a4.38505,4.38505,0,0,0,1.28467-2.7041c0-1.00391-.52588-1.99512-1.63965-1.99512a1.76454,1.76454,0,0,0-1.65185,1.24854.46468.46468,0,0,1,.15869-.01221.61915.61915,0,0,1,.64892.63623.64327.64327,0,1,1-1.28515-.03662,2.26138,2.26138,0,0,1,2.28857-2.21533,2.40412,2.40412,0,0,1,2.59424,2.37451c0,1.22363-.73438,1.88428-2.64307,3.57324l-1.29736,1.26026h2.20264a3.99554,3.99554,0,0,0,1.16259-.09766,4.017,4.017,0,0,0,.26905-1.08935h.30615Z" transform="translate(-8.50229 -15.62354)"/>
      <path class="cls-3" d="M80.8208,164.42139l-7.15967,19.77832c-.063.21-.147.41992-.44092.41992a.42116.42116,0,0,1-.41992-.41992,1.26976,1.26976,0,0,1,.105-.37793l7.15967-19.77832c.063-.21.147-.41992.44092-.41992a.42115.42115,0,0,1,.41992.41992A1.26976,1.26976,0,0,1,80.8208,164.42139Z" transform="translate(-8.50229 -15.62354)"/>
      <path class="cls-3" d="M94.93213,167.0459l-4.05225,6.59277v4.05225c0,.81885.063,1.02881,1.67969,1.02881h.48291v.65088c-.75586-.063-2.24658-.063-3.06543-.063s-2.30957,0-3.06543.063v-.65088h.50391c1.6167,0,1.65869-.231,1.65869-.98682v-4.09424L84.665,166.458c-.33594-.5459-.50391-.77686-1.93164-.77686h-.37793v-.65088l2.72949.063c.81885,0,2.35156,0,3.10742-.063v.65088c-.94482,0-1.46972.084-1.46972.5249,0,.105,0,.147.147.35694l3.80029,6.19385,3.46436-5.627a1.31446,1.31446,0,0,0,.21-.62988c0-.41992-.33594-.81885-1.19678-.81885v-.65088l2.41455.063c.5669,0,1.40674-.021,2.05762-.063v.65088A2.9056,2.9056,0,0,0,94.93213,167.0459Z" transform="translate(-8.50229 -15.62354)"/>
      <path class="cls-3" d="M103.02637,186.36377h-4.54c0-.29346,0-.31836.13476-.45264l2.34961-2.61914a4.38505,4.38505,0,0,0,1.28467-2.7041c0-1.00391-.52588-1.99512-1.63965-1.99512a1.76454,1.76454,0,0,0-1.65185,1.24854.46468.46468,0,0,1,.15869-.01221.61915.61915,0,0,1,.64892.63623.64327.64327,0,1,1-1.28515-.03662,2.26138,2.26138,0,0,1,2.28857-2.21533,2.40412,2.40412,0,0,1,2.59424,2.37451c0,1.22363-.73437,1.88428-2.64307,3.57324l-1.29736,1.26026h2.20264a3.99562,3.99562,0,0,0,1.1626-.09766,4.03384,4.03384,0,0,0,.26953-1.08935h.30566Z" transform="translate(-8.50229 -15.62354)"/>
    </g>
    <g>
      <path class="cls-3" d="M153.2666,89.30762c-.79785,0-2.33056,0-3.06543.063v-.65088c.90283-.021,1.36475-.37793,1.36475-.62989a.72354.72354,0,0,0-.105-.23095l-3.31739-5.01807L145.16211,87.25c-.147.231-.21.31494-.21.50391,0,.37793.35693.94482,1.32275.96582v.65088c-.75586-.063-1.91064-.063-2.6875-.063l-2.33056.063v-.65088c2.1206,0,2.75048-.96582,3.04443-1.38575l3.44336-5.081L143.88135,76.416c-.39893-.58789-.79785-.73487-1.95264-.73487h-.39892v-.65088l2.72949.063c.79785,0,2.33056,0,3.06543-.063v.65088c-.90283.021-1.36475.37793-1.36475.62989a.86677.86677,0,0,0,.147.31494l2.7085,4.05224,2.39355-3.54834c.147-.231.189-.27295.189-.48291,0-.48291-.46191-.94482-1.30176-.96582v-.65088c.83985.063,1.84766.063,2.6875.063l2.33057-.063v.65088a3.24875,3.24875,0,0,0-3.04444,1.36475l-2.87646,4.22021,4.43018,6.69776c.44091.65088.88183.75586,1.97363.75586h.39892v.65088Z" transform="translate(-8.50229 -15.62354)"/>
      <path class="cls-3" d="M159.48877,96.63281a2.23157,2.23157,0,0,1-2.47168-1.9209.68552.68552,0,1,1,1.37061-.0249.67038.67038,0,0,1-.80762.67334,2.22617,2.22617,0,0,0,1.87207.93018c.53857,0,1.38281-.355,1.38281-2.01953,0-1.19922-.45264-2.03125-1.45605-2.03125h-.53858c-.208,0-.29394,0-.29394-.13477,0-.12207.08593-.13428.18359-.147.08594,0,.3794-.02442.47754-.03662a1.18507,1.18507,0,0,0,1.08887-.63623,3.053,3.053,0,0,0,.34277-1.395c0-1.10157-.67285-1.37061-1.1748-1.37061a1.98333,1.98333,0,0,0-1.62745.75879c.1836,0,.75879,0,.75879.61182a.62432.62432,0,1,1-1.24853-.01221c0-.93018.93017-1.66455,2.166-1.66455,1.17481,0,2.252.68555,2.252,1.689a2.3567,2.3567,0,0,1-1.71338,2.15381A2.36039,2.36039,0,0,1,162.0957,94.271,2.49611,2.49611,0,0,1,159.48877,96.63281Z" transform="translate(-8.50229 -15.62354)"/>
      <path class="cls-3" d="M171.8208,74.42139l-7.15967,19.77832c-.063.21-.147.41992-.44092.41992a.42116.42116,0,0,1-.41992-.41992,1.26976,1.26976,0,0,1,.105-.37793l7.15967-19.77832c.063-.21.147-.41992.44092-.41992a.42115.42115,0,0,1,.41992.41992A1.26976,1.26976,0,0,1,171.8208,74.42139Z" transform="translate(-8.50229 -15.62354)"/>
      <path class="cls-3" d="M185.93213,77.0459l-4.05225,6.59277v4.05225c0,.81885.063,1.02881,1.67969,1.02881h.48291v.65088c-.75586-.063-2.24658-.063-3.06543-.063s-2.30957,0-3.06543.063v-.65088h.50391c1.6167,0,1.65869-.231,1.65869-.98682V83.63867L175.665,76.458c-.33594-.5459-.50391-.77686-1.93164-.77686h-.37793v-.65088l2.72949.063c.81885,0,2.35156,0,3.10742-.063v.65088c-.94482,0-1.46972.084-1.46972.5249,0,.105,0,.147.147.35694l3.80029,6.19385,3.46436-5.627a1.31446,1.31446,0,0,0,.21-.62988c0-.41992-.33594-.81885-1.19678-.81885v-.65088l2.41455.063c.5669,0,1.40674-.021,2.05762-.063v.65088A2.9056,2.9056,0,0,0,185.93213,77.0459Z" transform="translate(-8.50229 -15.62354)"/>
      <path class="cls-3" d="M191.86035,96.63281a2.23157,2.23157,0,0,1-2.47168-1.9209.68552.68552,0,1,1,1.37061-.0249.67058.67058,0,0,1-.80811.67334,2.22757,2.22757,0,0,0,1.87256.93018c.53857,0,1.38281-.355,1.38281-2.01953,0-1.19922-.45263-2.03125-1.456-2.03125h-.53858c-.208,0-.29394,0-.29394-.13477,0-.12207.08594-.13428.18359-.147.08594,0,.3794-.02442.47754-.03662a1.18549,1.18549,0,0,0,1.08887-.63623,3.053,3.053,0,0,0,.34277-1.395c0-1.10157-.67285-1.37061-1.1748-1.37061a1.9833,1.9833,0,0,0-1.62744.75879c.18359,0,.75879,0,.75879.61182a.62433.62433,0,1,1-1.24854-.01221c0-.93018.93018-1.66455,2.166-1.66455,1.1748,0,2.25195.68555,2.25195,1.689a2.3567,2.3567,0,0,1-1.71338,2.15381,2.3604,2.3604,0,0,1,2.04395,2.21485A2.49611,2.49611,0,0,1,191.86035,96.63281Z" transform="translate(-8.50229 -15.62354)"/>
    </g>
  </g>
  <g>
    <line class="cls-1" x1="149.75005" y1="159.41467" x2="149.75005" y2="207.24567"/>
    <polygon class="cls-3" points="141.57 200.619 143.035 199.254 149.748 206.478 156.463 199.254 157.928 200.619 149.748 209.415 141.57 200.619"/>
  </g>
  <g>
    <path class="cls-1" d="M158.00219,275.0001a37.5,37.5,0,1,1-37.5-37.5h0a37.37836,37.37836,0,0,1,37.5,37.25632Q158.00258,274.87828,158.00219,275.0001Z" transform="translate(-8.50229 -15.62354)"/>
    <path class="cls-1" d="M158.00219,375.0001a37.5,37.5,0,1,1-37.5-37.5h0a37.37836,37.37836,0,0,1,37.5,37.25632Q158.00258,374.87828,158.00219,375.0001Z" transform="translate(-8.50229 -15.62354)"/>
    <path class="cls-1" d="M308.00219,325.0001a37.5,37.5,0,1,1-37.5-37.5h0a37.37836,37.37836,0,0,1,37.5,37.25632Q308.00258,324.87828,308.00219,325.0001Z" transform="translate(-8.50229 -15.62354)"/>
    <g>
      <line class="cls-2" y1="258.87646" x2="71.7465" y2="258.87646"/>
      <polygon class="cls-3" points="61.806 271.146 59.76 268.949 70.595 258.879 59.76 248.807 61.806 246.61 75 258.879 61.806 271.146"/>
    </g>
    <g>
      <line class="cls-2" y1="359.87646" x2="71.7465" y2="359.87646"/>
      <polygon class="cls-3" points="61.806 372.146 59.76 369.949 70.595 359.879 59.76 349.807 61.806 347.61 75 359.879 61.806 372.146"/>
    </g>
    <g>
      <path class="cls-3" d="M102.59619,281.83252a5.2597,5.2597,0,0,1-3.86328-1.46973c-.69287,1.1128-.75586,1.19678-.75586,1.19678-.147.231-.168.27295-.31494.27295-.231,0-.231-.147-.231-.50391v-4.19922c0-.37793,0-.5249.27295-.5249a.21879.21879,0,0,1,.252.21,4.2484,4.2484,0,0,0,1.30176,3.2334,5.06386,5.06386,0,0,0,3.31739,1.13379,2.87863,2.87863,0,0,0,2.81347-3.00244,3.067,3.067,0,0,0-.65088-1.93164,2.78853,2.78853,0,0,0-1.78466-1.0708c-1.46973-.35694-2.54053-.60889-2.77149-.69287a4.06735,4.06735,0,0,1,1.34375-7.91553,4.32028,4.32028,0,0,1,3.35938,1.46973l.73486-1.19678c.147-.252.168-.273.31494-.273.231,0,.231.147.231.50391v4.22021c0,.39893,0,.50391-.273.50391-.231,0-.231-.126-.25195-.252-.126-.94482-.5879-4.38818-4.09424-4.38818a2.74449,2.74449,0,0,0-.65088,5.417l2.6875.65088a4.29594,4.29594,0,0,1,3.14941,4.24121A4.20907,4.20907,0,0,1,102.59619,281.83252Z" transform="translate(-8.50229 -15.62354)"/>
      <path class="cls-3" d="M111.07617,288.32715c-.48926,0-1.5542,0-1.98242.03662v-.37939h.3916c1.10156,0,1.13819-.147,1.13819-.58741v-6.33886a3.669,3.669,0,0,1-1.603.31787v-.3794a3.02334,3.02334,0,0,0,2.227-.7832c.28125,0,.28125.0249.28125.31836V287.397c0,.45264.03711.58741,1.13818.58741h.3916v.37939C112.63037,288.32715,111.56592,288.32715,111.07617,288.32715Z" transform="translate(-8.50229 -15.62354)"/>
      <path class="cls-3" d="M123.249,266.42139l-7.15966,19.77832c-.063.21-.147.41992-.44092.41992a.42116.42116,0,0,1-.41992-.41992,1.26976,1.26976,0,0,1,.105-.37793l7.15966-19.77832c.063-.21.147-.41992.44092-.41992a.42115.42115,0,0,1,.41992.41992A1.26976,1.26976,0,0,1,123.249,266.42139Z" transform="translate(-8.50229 -15.62354)"/>
      <path class="cls-3" d="M137.36035,269.0459l-4.05224,6.59277v4.05225c0,.81885.063,1.02881,1.67968,1.02881h.48291v.65088c-.75586-.063-2.24658-.063-3.06543-.063s-2.30957,0-3.06543.063v-.65088h.50391c1.6167,0,1.65869-.231,1.65869-.98682v-4.09424l-4.40918-7.18066c-.33594-.5459-.5039-.77686-1.93164-.77686h-.37793v-.65088l2.72949.063c.81885,0,2.35157,0,3.10743-.063v.65088c-.94483,0-1.46973.084-1.46973.5249,0,.105,0,.147.147.35694l3.80029,6.19385,3.46436-5.627a1.31446,1.31446,0,0,0,.21-.62988c0-.41992-.33594-.81885-1.19678-.81885v-.65088l2.41455.063c.5669,0,1.40674-.021,2.05762-.063v.65088A2.90562,2.90562,0,0,0,137.36035,269.0459Z" transform="translate(-8.50229 -15.62354)"/>
      <path class="cls-3" d="M143.44775,288.32715c-.48925,0-1.5542,0-1.98242.03662v-.37939h.3916c1.10157,0,1.13819-.147,1.13819-.58741v-6.33886a3.6679,3.6679,0,0,1-1.603.31787v-.3794a3.02334,3.02334,0,0,0,2.227-.7832c.28125,0,.28125.0249.28125.31836V287.397c0,.45264.03711.58741,1.13818.58741h.39161v.37939C145.002,288.32715,143.9375,288.32715,143.44775,288.32715Z" transform="translate(-8.50229 -15.62354)"/>
    </g>
    <g>
      <path class="cls-3" d="M102.59619,382.83252a5.2597,5.2597,0,0,1-3.86328-1.46973c-.69287,1.1128-.75586,1.19678-.75586,1.19678-.147.231-.168.27295-.31494.27295-.231,0-.231-.147-.231-.50391v-4.19922c0-.37793,0-.5249.27295-.5249a.21879.21879,0,0,1,.252.21,4.2484,4.2484,0,0,0,1.30176,3.2334,5.06386,5.06386,0,0,0,3.31739,1.13379,2.87863,2.87863,0,0,0,2.81347-3.00244,3.067,3.067,0,0,0-.65088-1.93164,2.78853,2.78853,0,0,0-1.78466-1.0708c-1.46973-.35694-2.54053-.60889-2.77149-.69287a4.06735,4.06735,0,0,1,1.34375-7.91553,4.32028,4.32028,0,0,1,3.35938,1.46973l.73486-1.19678c.147-.252.168-.273.31494-.273.231,0,.231.147.231.50391v4.22021c0,.39893,0,.50391-.273.50391-.231,0-.231-.126-.25195-.252-.126-.94482-.5879-4.38818-4.09424-4.38818a2.74449,2.74449,0,0,0-.65088,5.417l2.6875.65088a4.29594,4.29594,0,0,1,3.14941,4.24121A4.20907,4.20907,0,0,1,102.59619,382.83252Z" transform="translate(-8.50229 -15.62354)"/>
      <path class="cls-3" d="M113.083,389.36377h-4.54c0-.29346,0-.31836.13476-.45264l2.34961-2.61914a4.385,4.385,0,0,0,1.28467-2.7041c0-1.00391-.52588-1.99512-1.63965-1.99512a1.76454,1.76454,0,0,0-1.65185,1.24854.46468.46468,0,0,1,.15869-.01221.61916.61916,0,0,1,.64893.63623.64327.64327,0,1,1-1.28516-.03662,2.26138,2.26138,0,0,1,2.28857-2.21533,2.40412,2.40412,0,0,1,2.59424,2.37451c0,1.22363-.73437,1.88428-2.64307,3.57324l-1.29736,1.26026H111.688a3.99562,3.99562,0,0,0,1.1626-.09766,4.01739,4.01739,0,0,0,.269-1.08935h.30615Z" transform="translate(-8.50229 -15.62354)"/>
      <path class="cls-3" d="M123.249,367.42139l-7.15966,19.77832c-.063.21-.147.41992-.44092.41992a.42116.42116,0,0,1-.41992-.41992,1.26976,1.26976,0,0,1,.105-.37793l7.15966-19.77832c.063-.21.147-.41992.44092-.41992a.42115.42115,0,0,1,.41992.41992A1.26976,1.26976,0,0,1,123.249,367.42139Z" transform="translate(-8.50229 -15.62354)"/>
      <path class="cls-3" d="M137.36035,370.0459l-4.05224,6.59277v4.05225c0,.81885.063,1.02881,1.67968,1.02881h.48291v.65088c-.75586-.063-2.24658-.063-3.06543-.063s-2.30957,0-3.06543.063v-.65088h.50391c1.6167,0,1.65869-.231,1.65869-.98682v-4.09424l-4.40918-7.18066c-.33594-.5459-.5039-.77686-1.93164-.77686h-.37793v-.65088l2.72949.063c.81885,0,2.35157,0,3.10743-.063v.65088c-.94483,0-1.46973.084-1.46973.5249,0,.105,0,.147.147.35694l3.80029,6.19385,3.46436-5.627a1.31446,1.31446,0,0,0,.21-.62988c0-.41992-.33594-.81885-1.19678-.81885v-.65088l2.41455.063c.5669,0,1.40674-.021,2.05762-.063v.65088A2.90562,2.90562,0,0,0,137.36035,370.0459Z" transform="translate(-8.50229 -15.62354)"/>
      <path class="cls-3" d="M145.45459,389.36377h-4.54c0-.29346,0-.31836.13477-.45264l2.34961-2.61914a4.385,4.385,0,0,0,1.28466-2.7041c0-1.00391-.52588-1.99512-1.63964-1.99512a1.76454,1.76454,0,0,0-1.65186,1.24854.46472.46472,0,0,1,.15869-.01221.61916.61916,0,0,1,.64893.63623.64327.64327,0,1,1-1.28516-.03662,2.26139,2.26139,0,0,1,2.28858-2.21533,2.40412,2.40412,0,0,1,2.59423,2.37451c0,1.22363-.73437,1.88428-2.64306,3.57324l-1.29737,1.26026h2.20264a3.99562,3.99562,0,0,0,1.1626-.09766,4.03309,4.03309,0,0,0,.26953-1.08935h.30566Z" transform="translate(-8.50229 -15.62354)"/>
    </g>
    <g>
      <path class="cls-3" d="M262.11279,322.88037c-.29394-3.38037-.60888-4.07324-3.77929-4.07324a9.88974,9.88974,0,0,0-1.19678.042c-.37793.084-.37793.37793-.37793.79785v11.06494c0,.71387,0,1.00782,2.20459,1.00782h.83984v.65088c-.86084-.063-3.02343-.063-3.98926-.063s-3.10742,0-3.96826.063v-.65088h.83985c2.20459,0,2.20459-.294,2.20459-1.00782V319.647c0-.48291,0-.71386-.44092-.79785a8.80783,8.80783,0,0,0-1.13379-.042c-3.17041,0-3.48535.69287-3.7793,4.07324h-.5249l.39893-4.72412h12.82861l.39893,4.72412Z" transform="translate(-8.50229 -15.62354)"/>
      <path class="cls-3" d="M272.61328,317.42139l-7.15967,19.77832c-.063.21-.147.41992-.44091.41992a.42116.42116,0,0,1-.41993-.41992,1.26976,1.26976,0,0,1,.105-.37793l7.15967-19.77832c.063-.21.147-.41992.44092-.41992a.42115.42115,0,0,1,.41992.41992A1.26976,1.26976,0,0,1,272.61328,317.42139Z" transform="translate(-8.50229 -15.62354)"/>
      <path class="cls-3" d="M286.72461,320.0459l-4.05225,6.59277v4.05225c0,.81885.063,1.02881,1.67969,1.02881h.48291v.65088c-.75586-.063-2.24658-.063-3.06543-.063s-2.30957,0-3.06543.063v-.65088h.50391c1.6167,0,1.65869-.231,1.65869-.98682v-4.09424l-4.40918-7.18066c-.33594-.5459-.50391-.77686-1.93164-.77686H274.148v-.65088l2.72949.063c.81885,0,2.35156,0,3.10742-.063v.65088c-.94482,0-1.46972.084-1.46972.5249,0,.105,0,.147.147.35694l3.80029,6.19385,3.46436-5.627a1.31446,1.31446,0,0,0,.21-.62988c0-.41992-.33594-.81885-1.19678-.81885v-.65088l2.41455.063c.5669,0,1.40674-.021,2.05762-.063v.65088A2.9056,2.9056,0,0,0,286.72461,320.0459Z" transform="translate(-8.50229 -15.62354)"/>
      <path class="cls-3" d="M292.65283,339.63281a2.23157,2.23157,0,0,1-2.47168-1.9209.68552.68552,0,1,1,1.37061-.0249.67058.67058,0,0,1-.80811.67334,2.22757,2.22757,0,0,0,1.87256.93018c.53858,0,1.38281-.355,1.38281-2.01953,0-1.19922-.45263-2.03125-1.456-2.03125h-.53858c-.208,0-.29394,0-.29394-.13477,0-.12207.08594-.13428.18359-.147.08594,0,.3794-.02442.47754-.03662a1.18549,1.18549,0,0,0,1.08887-.63623,3.053,3.053,0,0,0,.34277-1.395c0-1.10157-.67285-1.37061-1.1748-1.37061a1.9833,1.9833,0,0,0-1.62744.75879c.18359,0,.75879,0,.75879.61182a.62433.62433,0,1,1-1.24854-.01221c0-.93018.93018-1.66455,2.166-1.66455,1.1748,0,2.25195.68555,2.25195,1.689a2.3567,2.3567,0,0,1-1.71338,2.15381,2.3604,2.3604,0,0,1,2.04395,2.21485A2.49611,2.49611,0,0,1,292.65283,339.63281Z" transform="translate(-8.50229 -15.62354)"/>
    </g>
    <g>
      <line class="cls-2" x1="147.57492" y1="271.23477" x2="223.33527" y2="296.48822"/>
      <polygon class="cls-3" points="210.025 304.985 208.778 302.253 222.242 296.127 215.148 283.145 217.784 281.708 226.421 297.52 210.025 304.985"/>
    </g>
    <g>
      <line class="cls-2" x1="147.56999" y1="347.51706" x2="223.33035" y2="322.26361"/>
      <polygon class="cls-3" points="217.78 337.047 215.144 335.61 222.239 322.63 208.774 316.502 210.021 313.77 226.418 321.238 217.78 337.047"/>
    </g>
    <g>
      <path class="cls-3" d="M202.769,375.30762c-.79785,0-2.33056,0-3.06543.063v-.65088c.90284-.021,1.36475-.37793,1.36475-.62989a.72354.72354,0,0,0-.105-.231l-3.31738-5.01807L194.66455,373.25c-.147.231-.21.31494-.21.50391,0,.37793.35693.94482,1.32275.96582v.65088c-.75586-.063-1.91064-.063-2.6875-.063l-2.33056.063v-.65088c2.1206,0,2.75049-.96582,3.04443-1.38575l3.44336-5.08105-3.86328-5.83691c-.39893-.58789-.79785-.73487-1.95264-.73487h-.39892v-.65088l2.72949.063c.79785,0,2.33057,0,3.06543-.063v.65088c-.90283.021-1.36475.37793-1.36475.62989a.86663.86663,0,0,0,.147.31494l2.70849,4.05224,2.39356-3.54834c.147-.231.189-.273.189-.48291,0-.48291-.46191-.94482-1.30176-.96582v-.65088c.83985.063,1.84766.063,2.6875.063l2.33057-.063v.65088a3.24872,3.24872,0,0,0-3.04443,1.36475l-2.87647,4.22021,4.43018,6.69776c.44091.65088.88183.75586,1.97363.75586h.39893v.65088Z" transform="translate(-8.50229 -15.62354)"/>
      <path class="cls-3" d="M208.99121,382.63281a2.23157,2.23157,0,0,1-2.47168-1.9209.68552.68552,0,1,1,1.37061-.0249.67038.67038,0,0,1-.80762.67334,2.22617,2.22617,0,0,0,1.87207.93018c.53857,0,1.38281-.355,1.38281-2.01953,0-1.19922-.45263-2.03125-1.45605-2.03125h-.53858c-.208,0-.29394,0-.29394-.13477,0-.12207.08594-.13428.18359-.147.08594,0,.3794-.02442.47754-.03662a1.18506,1.18506,0,0,0,1.08887-.63623,3.053,3.053,0,0,0,.34277-1.395c0-1.10157-.67285-1.37061-1.1748-1.37061a1.9833,1.9833,0,0,0-1.62744.75879c.18359,0,.75878,0,.75878.61182a.62432.62432,0,1,1-1.24853-.01221c0-.93018.93018-1.66455,2.166-1.66455,1.1748,0,2.252.68555,2.252,1.689a2.3567,2.3567,0,0,1-1.71338,2.15381,2.36039,2.36039,0,0,1,2.04394,2.21485A2.4961,2.4961,0,0,1,208.99121,382.63281Z" transform="translate(-8.50229 -15.62354)"/>
    </g>
    <g>
      <path class="cls-3" d="M202.769,289.30762c-.79785,0-2.33056,0-3.06543.063v-.65088c.90284-.021,1.36475-.37793,1.36475-.62989a.72354.72354,0,0,0-.105-.231l-3.31738-5.01807L194.66455,287.25c-.147.231-.21.31494-.21.50391,0,.37793.35693.94482,1.32275.96582v.65088c-.75586-.063-1.91064-.063-2.6875-.063l-2.33056.063v-.65088c2.1206,0,2.75049-.96582,3.04443-1.38575l3.44336-5.08105-3.86328-5.83691c-.39893-.58789-.79785-.73487-1.95264-.73487h-.39892v-.65088l2.72949.063c.79785,0,2.33057,0,3.06543-.063v.65088c-.90283.021-1.36475.37793-1.36475.62989a.86663.86663,0,0,0,.147.31494l2.70849,4.05224,2.39356-3.54834c.147-.231.189-.273.189-.48291,0-.48291-.46191-.94482-1.30176-.96582v-.65088c.83985.063,1.84766.063,2.6875.063l2.33057-.063v.65088a3.24872,3.24872,0,0,0-3.04443,1.36475l-2.87647,4.22021,4.43018,6.69776c.44091.65088.88183.75586,1.97363.75586h.39893v.65088Z" transform="translate(-8.50229 -15.62354)"/>
      <path class="cls-3" d="M208.99121,296.63281a2.23157,2.23157,0,0,1-2.47168-1.9209.68552.68552,0,1,1,1.37061-.0249.67038.67038,0,0,1-.80762.67334,2.22617,2.22617,0,0,0,1.87207.93018c.53857,0,1.38281-.355,1.38281-2.01953,0-1.19922-.45263-2.03125-1.45605-2.03125h-.53858c-.208,0-.29394,0-.29394-.13477,0-.12207.08594-.13428.18359-.147.08594,0,.3794-.02442.47754-.03662a1.18506,1.18506,0,0,0,1.08887-.63623,3.053,3.053,0,0,0,.34277-1.395c0-1.10157-.67285-1.37061-1.1748-1.37061a1.9833,1.9833,0,0,0-1.62744.75879c.18359,0,.75878,0,.75878.61182a.62432.62432,0,1,1-1.24853-.01221c0-.93018.93018-1.66455,2.166-1.66455,1.1748,0,2.252.68555,2.252,1.689a2.3567,2.3567,0,0,1-1.71338,2.15381,2.36039,2.36039,0,0,1,2.04394,2.21485A2.4961,2.4961,0,0,1,208.99121,296.63281Z" transform="translate(-8.50229 -15.62354)"/>
    </g>
    <g>
      <path class="cls-3" d="M51.769,397.30762c-.79785,0-2.33056,0-3.06543.063v-.65088c.90284-.021,1.36475-.37793,1.36475-.62989a.72354.72354,0,0,0-.105-.231L46.646,390.84082,43.66455,395.25c-.147.231-.21.31494-.21.50391,0,.37793.35693.94482,1.32275.96582v.65088c-.75586-.063-1.91064-.063-2.6875-.063l-2.33056.063v-.65088c2.1206,0,2.75049-.96582,3.04443-1.38575l3.44336-5.08105L42.38379,384.416c-.39893-.58789-.79785-.73487-1.95264-.73487h-.39892v-.65088l2.72949.063c.79785,0,2.33057,0,3.06543-.063v.65088c-.90283.021-1.36475.37793-1.36475.62989a.86663.86663,0,0,0,.147.31494l2.70849,4.05224,2.39356-3.54834c.147-.231.189-.273.189-.48291,0-.48291-.46191-.94482-1.30176-.96582v-.65088c.83985.063,1.84766.063,2.6875.063l2.33057-.063v.65088a3.24872,3.24872,0,0,0-3.04443,1.36475l-2.87647,4.22021,4.43018,6.69776c.44091.65088.88183.75586,1.97363.75586h.39893v.65088Z" transform="translate(-8.50229 -15.62354)"/>
      <path class="cls-3" d="M60.15723,404.36377h-4.54c0-.29346,0-.31836.13476-.45264l2.34961-2.61914a4.38505,4.38505,0,0,0,1.28467-2.7041c0-1.00391-.52588-1.99512-1.63965-1.99512a1.76454,1.76454,0,0,0-1.65185,1.24854.46468.46468,0,0,1,.15869-.01221.61915.61915,0,0,1,.64892.63623.64327.64327,0,1,1-1.28515-.03662,2.26138,2.26138,0,0,1,2.28857-2.21533A2.40412,2.40412,0,0,1,60.5,398.58789c0,1.22363-.73437,1.88428-2.64307,3.57324l-1.29736,1.26026h2.20264a3.99551,3.99551,0,0,0,1.16259-.09766,4.017,4.017,0,0,0,.26905-1.08935H60.5Z" transform="translate(-8.50229 -15.62354)"/>
    </g>
    <g>
      <path class="cls-3" d="M51.769,262.30762c-.79785,0-2.33056,0-3.06543.063v-.65088c.90284-.021,1.36475-.37793,1.36475-.62989a.72354.72354,0,0,0-.105-.231L46.646,255.84082,43.66455,260.25c-.147.231-.21.31494-.21.50391,0,.37793.35693.94482,1.32275.96582v.65088c-.75586-.063-1.91064-.063-2.6875-.063l-2.33056.063v-.65088c2.1206,0,2.75049-.96582,3.04443-1.38575l3.44336-5.08105L42.38379,249.416c-.39893-.58789-.79785-.73487-1.95264-.73487h-.39892v-.65088l2.72949.063c.79785,0,2.33057,0,3.06543-.063v.65088c-.90283.021-1.36475.37793-1.36475.62989a.86663.86663,0,0,0,.147.31494l2.70849,4.05224,2.39356-3.54834c.147-.231.189-.273.189-.48291,0-.48291-.46191-.94482-1.30176-.96582v-.65088c.83985.063,1.84766.063,2.6875.063l2.33057-.063v.65088a3.24872,3.24872,0,0,0-3.04443,1.36475l-2.87647,4.22021,4.43018,6.69776c.44091.65088.88183.75586,1.97363.75586h.39893v.65088Z" transform="translate(-8.50229 -15.62354)"/>
      <path class="cls-3" d="M58.15039,269.32715c-.48926,0-1.5542,0-1.98242.03662v-.37939h.3916c1.10156,0,1.13818-.147,1.13818-.58741v-6.33886a3.669,3.669,0,0,1-1.603.31787v-.3794a3.02334,3.02334,0,0,0,2.227-.7832c.28125,0,.28125.0249.28125.31836V268.397c0,.45264.03711.58741,1.13818.58741h.3916v.37939C59.70459,269.32715,58.64014,269.32715,58.15039,269.32715Z" transform="translate(-8.50229 -15.62354)"/>
    </g>
  </g>
</svg>
