<svg id="Layer_1" data-name="Layer 1" xmlns="http://www.w3.org/2000/svg" viewBox="0 0 488.08451 92">
  <defs>
    <style>
      .cls-1 {
        fill: none;
        stroke: #8ff4dd;
        stroke-miterlimit: 10;
        stroke-width: 2px;
      }

      .cls-2 {
        fill: #8ff4dd;
      }
    </style>
  </defs>
  <title>MealyModel</title>
  <rect class="cls-1" x="91.7876" y="16" width="100" height="50"/>
  <g>
    <g>
      <path class="cls-2" d="M102.2959,45.01465a3.1009,3.1009,0,0,1-3.01172-3.18018,3.13936,3.13936,0,0,1,3.02571-3.249l.01429-.00048c1.07862,0,2.14307.54639,2.14307,1.499a.6446.6446,0,0,1-1.28893.02662l-.00013-.01294a.63242.63242,0,0,1,.62012-.64448q.01929-.00037.03857.00043a2.28442,2.28442,0,0,0-1.499-.51854c-.74218,0-1.89112.58837-1.89112,2.87158,0,2.25537,1.23291,2.85742,1.9751,2.85742a1.82886,1.82886,0,0,0,1.835-1.4707c.02832-.084.05615-.14014.18213-.14014.042,0,.18213,0,.18213.14014A2.305,2.305,0,0,1,102.2959,45.01465Z" transform="translate(0)"/>
      <path class="cls-2" d="M108.51172,45.01465a3.12134,3.12134,0,1,1,.01933-.00013Zm1.583-5.21094a1.83562,1.83562,0,0,0-1.583-.91064,1.88,1.88,0,0,0-1.59668.93847,4.01391,4.01391,0,0,0-.33642,1.919,4.16359,4.16359,0,0,0,.35058,1.97509,1.82911,1.82911,0,0,0,1.59668.93847,1.808,1.808,0,0,0,1.625-1.03662,4.2548,4.2548,0,0,0,.30811-1.877A3.84262,3.84262,0,0,0,110.09472,39.80371Z" transform="translate(0)"/>
      <path class="cls-2" d="M121.84326,44.81836l-1.583.042v-.43408c.93848,0,1.09277,0,1.09277-.63037V40.53223c0-.79883-.15429-1.55519-1.03662-1.55519a2.046,2.046,0,0,0-1.89581,2.18579l.0047.05542V43.7959c0,.63037.15429.63037,1.09277.63037v.43408l-1.56884-.042-1.583.042v-.43408c.93847,0,1.09278,0,1.09278-.63037V40.53223c0-.79883-.1543-1.55519-1.03662-1.55519a2.046,2.046,0,0,0-1.89581,2.1859l.00468.05531V43.7959c0,.63037.1543.63037,1.09279.63037v.43408l-1.56885-.042-1.583.042v-.43408c.93847,0,1.09277,0,1.09277-.63037V40.0415c0-.686-.1123-.78418-1.09277-.78418v-.43409l1.9751-.15428v1.4707a2.2082,2.2082,0,0,1,2.07324-1.4707,1.65822,1.65822,0,0,1,1.86279,1.37255,2.21679,2.21679,0,0,1,2.03126-1.3725,1.867,1.867,0,0,1,1.4707.51855c.43408.5039.43408.93847.43408,2.14306v2.6753c.01416.42041.36426.42041,1.09278.42041v.43408Z" transform="translate(0)"/>
      <path class="cls-2" d="M127.46826,45.01465a2.20175,2.20175,0,0,1-1.835-1.023l-.5044.86865h-.3501V36.51172c0-.686-.1123-.78418-1.09277-.78418V35.293l2.01709-.15381v4.44043A2.488,2.488,0,0,1,127.622,38.669a3.08082,3.08082,0,0,1,2.96972,3.16552A3.15687,3.15687,0,0,1,127.46826,45.01465Zm1.55469-5.14111a1.741,1.741,0,0,0-1.4707-.8965,2.0228,2.0228,0,0,0-1.65283.8965.61014.61014,0,0,0-.1543.50438v2.88574a.76425.76425,0,0,0,.19629.58838,1.7297,1.7297,0,0,0,1.4707.854,1.9251,1.9251,0,0,0,1.583-.89648,4.82033,4.82033,0,0,0,.02784-3.936Z" transform="translate(0)"/>
      <path class="cls-2" d="M133.0806,44.81836l-1.54053.042v-.43408c.93848,0,1.09229,0,1.09229-.63037V40.02783c0-.68652-.126-.77051-1.03662-.77051v-.43408l1.96142-.15429v5.14062c0,.54639.05567.6167.98047.6167v.43408C134.061,44.84619,133.5708,44.81836,133.0806,44.81836Zm-.06983-7.67627a.74366.74366,0,1,1,.0006,0h-.0006Z" transform="translate(0)"/>
      <path class="cls-2" d="M140.895,44.81836l-1.583.042v-.43408c.93848,0,1.09277,0,1.09277-.63037V40.53223c0-.79883-.15429-1.55519-1.03662-1.55519a2.046,2.046,0,0,0-1.8958,2.18591l.00469.0553V43.7959c0,.63037.15429.63037,1.09277.63037v.43408l-1.56885-.042-1.583.042v-.43408c.93848,0,1.09277,0,1.09277-.63037V40.0415c0-.686-.1123-.78418-1.09277-.78418v-.43409l1.9751-.15428v1.4707a2.2087,2.2087,0,0,1,2.07324-1.4707,1.86687,1.86687,0,0,1,1.4707.51854c.4341.50391.4341.93848.4341,2.14307v2.67529c.01416.42041.36424.42041,1.09277.42041v.43408Z" transform="translate(0)"/>
      <path class="cls-2" d="M148.3711,44.94434a1.17261,1.17261,0,0,1-1.09278-1.14843,1.938,1.938,0,0,1-1.835,1.21875c-.88233,0-2.24122-.3506-2.24122-1.48487A2.041,2.041,0,0,1,144.603,41.7085a6.81984,6.81984,0,0,1,2.57715-.5039V40.686a1.58632,1.58632,0,0,0-1.36337-1.78158q-.06052-.008-.12149-.01142a1.96775,1.96775,0,0,0-1.5127.64453c.64453.01367.71436.47607.71436.644a.64437.64437,0,0,1-1.28873.00006l.00015-.01374c0-.92481.96631-1.583,2.11524-1.583a2.67439,2.67439,0,0,1,1.91894.77051,2.07127,2.07127,0,0,1,.5044,1.65283v2.80127c0,.07032.05566.70069.51807.70069.15429,0,.50439-.084.50439-.89648V42.8291h.35008v.78467a1.18908,1.18908,0,0,1-1.03865,1.32251Q148.42619,44.94285,148.3711,44.94434Zm-1.19092-3.4458c-2.311.084-2.89942,1.24658-2.89942,2.01709a1.206,1.206,0,0,0,1.22025,1.19158l.04051-.00116a1.68211,1.68211,0,0,0,1.64287-1.72047q-.001-.04313-.0042-.08617Z" transform="translate(0)"/>
      <path class="cls-2" d="M153.0176,45.01465a1.69507,1.69507,0,0,1-1.80713-1.89111V39.25732H150.02v-.3081c1.37256-.05615,1.793-1.55469,1.80713-2.70361h.35009v2.57762h2.00293v.43409h-2.00293v3.894c0,.23829,0,1.51269.93848,1.51269.51807,0,.93848-.53222.93848-1.56885v-.77h.35009v.79834C154.4043,44.02,154.01221,45.01465,153.0176,45.01465Z" transform="translate(0)"/>
      <path class="cls-2" d="M157.20259,44.81836l-1.54052.042v-.43408c.93847,0,1.09228,0,1.09228-.63037V40.02783c0-.68652-.126-.77051-1.03662-.77051v-.43408l1.96143-.15429v5.14062c0,.54639.05566.6167.98046.6167v.43408C158.18311,44.84619,157.69287,44.81836,157.20259,44.81836Zm-.06982-7.67627a.74346.74346,0,1,1,.00059,0h-.00059Z" transform="translate(0)"/>
      <path class="cls-2" d="M162.57961,45.01465a3.12137,3.12137,0,1,1,.01931-.00013Zm1.583-5.21094a1.83566,1.83566,0,0,0-1.583-.91064,1.88,1.88,0,0,0-1.59668.93847,4.01379,4.01379,0,0,0-.33643,1.919,4.16881,4.16881,0,0,0,.35008,1.97509,1.83042,1.83042,0,0,0,1.59717.93847,1.80748,1.80748,0,0,0,1.625-1.03662,4.255,4.255,0,0,0,.30811-1.877A3.84283,3.84283,0,0,0,164.1626,39.80371Z" transform="translate(0)"/>
      <path class="cls-2" d="M172.01709,44.81836l-1.583.042v-.43408c.93848,0,1.09277,0,1.09277-.63037V40.53223c0-.79883-.15429-1.55519-1.03662-1.55519a2.046,2.046,0,0,0-1.8958,2.18591l.00469.0553V43.7959c0,.63037.1543.63037,1.09277.63037v.43408l-1.56885-.042-1.583.042v-.43408c.93848,0,1.09277,0,1.09277-.63037V40.0415c0-.686-.1123-.78418-1.09277-.78418v-.43409l1.9751-.15428v1.4707a2.2087,2.2087,0,0,1,2.07324-1.4707,1.86687,1.86687,0,0,1,1.4707.51854c.4341.50391.4341.93848.4341,2.14307v2.67529c.01416.42041.36424.42041,1.09278.42041v.43408Z" transform="translate(0)"/>
      <path class="cls-2" d="M179.49268,44.94434a1.17262,1.17262,0,0,1-1.09278-1.14843,1.938,1.938,0,0,1-1.835,1.21875c-.88233,0-2.24121-.3506-2.24121-1.48487a2.041,2.041,0,0,1,1.40091-1.82129,6.81975,6.81975,0,0,1,2.57714-.5039V40.686a1.58631,1.58631,0,0,0-1.36337-1.78158q-.06051-.008-.12149-.01142a1.96773,1.96773,0,0,0-1.51269.64453c.64453.01367.71435.47607.71435.644a.64437.64437,0,0,1-1.28873.00006l.00016-.01374c0-.92481.96631-1.583,2.11523-1.583a2.67443,2.67443,0,0,1,1.91895.77051,2.07122,2.07122,0,0,1,.50439,1.65283v2.80127c0,.07032.05567.70069.51807.70069.15429,0,.50439-.084.50439-.89648V42.8291h.3501v.78467a1.18908,1.18908,0,0,1-1.03865,1.32251Q179.54778,44.94285,179.49268,44.94434Zm-1.19092-3.4458c-2.311.084-2.89941,1.24658-2.89941,2.01709a1.206,1.206,0,0,0,1.22024,1.19158l.0405-.00116a1.68212,1.68212,0,0,0,1.64287-1.72047q-.001-.04313-.0042-.08617Z" transform="translate(0)"/>
      <path class="cls-2" d="M182.8926,44.81836l-1.55469.042v-.43408c.93847,0,1.09228,0,1.09228-.63037V36.51172c0-.686-.11181-.78418-1.09228-.78418V35.293l2.01709-.15381V43.7959c0,.63037.15381.63037,1.09228.63037v.43408Z" transform="translate(0)"/>
    </g>
    <g>
      <path class="cls-2" d="M125.80908,56.38086a3.10044,3.10044,0,0,1-3.0117-3.17969,3.13949,3.13949,0,0,1,3.02547-3.24951l.01452-.00049c1.07862,0,2.14307.54639,2.14307,1.499a.6446.6446,0,1,1-1.28893.02661l-.00013-.01294a.63242.63242,0,0,1,.62018-.64443q.01924-.00036.03851.00044a2.2844,2.2844,0,0,0-1.499-.51855c-.74219,0-1.89112.58838-1.89112,2.87158,0,2.25537,1.23291,2.85742,1.9751,2.85742a1.82885,1.82885,0,0,0,1.835-1.4707c.02832-.084.05615-.14014.18213-.14014.042,0,.18213,0,.18213.14014A2.305,2.305,0,0,1,125.80908,56.38086Z" transform="translate(0)"/>
      <path class="cls-2" d="M130.54,56.18457l-1.54053.042v-.43408c.93848,0,1.09229,0,1.09229-.63037V51.394c0-.68653-.126-.7705-1.03662-.7705v-.43409l1.96142-.15429v5.14062c0,.54638.05567.61669.98047.61669v.43409C131.52051,56.2124,131.03028,56.18457,130.54,56.18457Zm-.06982-7.67627a.74345.74345,0,1,1,.00059,0Z" transform="translate(0)"/>
      <path class="cls-2" d="M136.92578,51.50586a.58038.58038,0,0,1-.60252-.55734q-.00087-.02235,0-.04471a.60721.60721,0,0,1,.32227-.54639.35172.35172,0,0,0-.1543-.01416c-1.06445,0-1.65283,1.24658-1.65283,2.6333v2.15723c0,.50439.02832.65869,1.06494.65869h.29395v.43408c-.56055-.042-1.21875-.042-1.77881-.042l-1.59717.042v-.43408c.93848,0,1.09277,0,1.09277-.63037V51.4082c0-.68652-.1123-.78466-1.09277-.78466v-.43409l1.94727-.15429v1.541a1.96093,1.96093,0,0,1,1.72265-1.541.95584.95584,0,0,1,1.03662.8545.58841.58841,0,0,1-.5598.61571Q136.94694,51.50636,136.92578,51.50586Z" transform="translate(0)"/>
      <path class="cls-2" d="M141.40479,56.38086a3.10046,3.10046,0,0,1-3.01172-3.17969,3.13948,3.13948,0,0,1,3.02547-3.24951l.01452-.00049c1.07861,0,2.14307.54639,2.14307,1.499a.6446.6446,0,1,1-1.28893.02661l-.00013-.01294a.63242.63242,0,0,1,.62017-.64443q.01926-.00036.03852.00044a2.28441,2.28441,0,0,0-1.499-.51855c-.74218,0-1.89111.58838-1.89111,2.87158,0,2.25537,1.23291,2.85742,1.97508,2.85742a1.82885,1.82885,0,0,0,1.835-1.4707c.02832-.084.05615-.14014.18211-.14014.042,0,.18213,0,.18213.14014A2.305,2.305,0,0,1,141.40479,56.38086Z" transform="translate(0)"/>
      <path class="cls-2" d="M149.60987,56.38086V55.12012a1.91135,1.91135,0,0,1-1.80713,1.26074c-2.12891,0-2.12891-1.2749-2.12891-2.36768V51.91211c0-1.24658,0-1.28857-1.09277-1.28857v-.43409l2.05908-.15429v4.65039c0,.72851.05615,1.38672,1.23291,1.38672,1.02246,0,1.69482-.95215,1.69482-2.1709V51.4082c0-.68652-.1123-.78466-1.09277-.78466v-.43409l2.05908-.15429v4.97265c0,.68653.11231.78467,1.09278.78467v.43408Z" transform="translate(0)"/>
      <path class="cls-2" d="M153.91992,56.18457l-1.54052.042v-.43408c.93847,0,1.09228,0,1.09228-.63037V51.394c0-.68653-.126-.7705-1.03662-.7705v-.43409l1.96143-.15429v5.14062c0,.54638.05566.61669.98047.61669v.43409C154.90039,56.2124,154.41016,56.18457,153.91992,56.18457Zm-.06982-7.67627a.74346.74346,0,1,1,.00059,0Z" transform="translate(0)"/>
      <path class="cls-2" d="M159.07227,56.38086a1.69474,1.69474,0,0,1-1.80664-1.89111V50.62354h-1.19092v-.30811c1.37256-.05615,1.793-1.55469,1.80713-2.70361h.3501v2.57763h2.00293v.43409h-2.00293v3.894c0,.23828,0,1.51269.93847,1.51269.51807,0,.93848-.53222.93848-1.56884v-.77h.3501v.79834C160.459,55.38623,160.0669,56.38086,159.07227,56.38086Z" transform="translate(0)"/>
    </g>
    <g>
      <path class="cls-2" d="M118.4546,25.398v7.73193c0,.26612,0,.36426-.1958.36426-.09814,0-.1123-.01416-.23828-.18213l-5.71484-8.4043a.82121.82121,0,0,0-.14014-.16845v7.28418c0,.37793,0,1.03662,1.44288,1.03662v.43408l-1.63916-.042-1.63868.042v-.43408c1.44287,0,1.44287-.65869,1.44287-1.03662v-7.312c0-.26612-.01416-.28028-.33643-.32227-.21-.01416-.49023-.02783-.70019-.02783h-.40623v-.43457H112.712c.26611,0,.27977.01416.40625.18213l4.94432,7.27V25.398c0-.37842,0-1.03662-1.44287-1.03662v-.43457l1.63916.04248,1.63867-.04248v.43457C118.4546,24.36133,118.4546,25.01953,118.4546,25.398Z" transform="translate(0)"/>
      <path class="cls-2" d="M123.8418,33.64844a3.16259,3.16259,0,0,1-3.08154-3.23584,3.0611,3.0611,0,0,1,2.91357-3.19385,2.48461,2.48461,0,0,1,2.50732,2.74561c0,.29393-.042.29393-.35008.29393h-3.9082a4.077,4.077,0,0,0,.42041,2.10109,1.88539,1.88539,0,0,0,1.583.93846,1.9736,1.9736,0,0,0,1.89063-1.44238c.02832-.11231.05615-.19629.18213-.19629a.16255.16255,0,0,1,.18211.168A2.39446,2.39446,0,0,1,123.8418,33.64844Zm-.168-6.12158c-.47607,0-1.65283.35009-1.73682,2.4375h3.31983c0-.54636-.14011-2.4375-1.583-2.4375Z" transform="translate(0)"/>
      <path class="cls-2" d="M132.46729,33.45215l-1.51319.042v-.43408c.37842-.01416.5044-.22412.5044-.3506a1.7226,1.7226,0,0,0-.29395-.4619l-1.06445-1.40088c-.85449,1.00879-1.26074,1.4707-1.26074,1.77881a.4077.4077,0,0,0,.38.43368l.02629.00089v.43408l-1.33106-.042c-.36424,0-.79834.01416-1.16259.042v-.43408a2.24156,2.24156,0,0,0,1.793-.84082c.65871-.79834.65871-.82618,1.3169-1.66652l-1.38672-1.80712c-.65869-.84034-.67236-.8545-1.65283-.8545V27.457c.37793.02783,1.03662.042,1.33056.042l1.5127-.042v.43408c-.27979.01416-.49023.14014-.49023.3501,0,.084,0,.11231.126.25244l1.09278,1.41455.86865-1.09277a.80135.80135,0,0,0,.21-.49023.402.402,0,0,0-.36859-.43284q-.01878-.0015-.03766-.00125V27.457c.18213.01367.92432.042,1.34473.042.36424,0,.78417-.01416,1.14844-.042v.43408a2.1469,2.1469,0,0,0-1.6665.72852c-.33643.36426-.86866,1.05029-1.28907,1.58252l1.877,2.42334c.32227.40625.57471.43457,1.331.43457v.43408C133.3916,33.46631,132.84522,33.45215,132.46729,33.45215Z" transform="translate(0)"/>
      <path class="cls-2" d="M137.23975,33.64844a1.69507,1.69507,0,0,1-1.80713-1.89112V27.89111h-1.19043V27.583c1.37256-.05615,1.793-1.55469,1.80713-2.70362h.3501V27.457h2.00293v.43408h-2.00293v3.89405c0,.23828,0,1.51268.93847,1.51268.51807,0,.93848-.53222.93848-1.56884v-.77h.3501v.79834C138.62647,32.65381,138.23438,33.64844,137.23975,33.64844Z" transform="translate(0)"/>
      <path class="cls-2" d="M146.8716,33.64844a2.093,2.093,0,0,1-1.541-.60254,3.221,3.221,0,0,0-.28027.32226c-.26612.26612-.27979.28028-.3501.28028-.15381,0-.15381-.09815-.15381-.33644V31.46289c0-.252,0-.3501.18213-.3501.13965,0,.15381.05616.1958.23828.26611,1.19043.77051,1.98877,1.94726,1.98877,1.09229,0,1.58252-.56,1.58252-1.2744,0-1.00879-1.14843-1.23291-1.45654-1.28857a3.67311,3.67311,0,0,1-1.84912-.64454,1.49283,1.49283,0,0,1-.602-1.19043c0-.78466.53223-1.72314,2.24122-1.72314a2.15806,2.15806,0,0,1,1.3164.39209,1.78539,1.78539,0,0,0,.23828-.22412c.18213-.168.21-.168.28028-.168.15381,0,.15381.09814.15381.33643v1.41455c0,.26611,0,.33593-.18213.33593,0,0-.15381,0-.168-.126a1.5453,1.5453,0,0,0-1.63872-1.69478c-1.20459,0-1.56885.57422-1.56885,1.06446,0,.8125.93848.99463,1.72266,1.14892a2.85606,2.85606,0,0,1,1.59717.67237,1.80745,1.80745,0,0,1,.58838,1.33056C149.127,32.70947,148.48242,33.64844,146.8716,33.64844Z" transform="translate(0)"/>
      <path class="cls-2" d="M152.86328,33.64844a1.6948,1.6948,0,0,1-1.80664-1.89112V27.89111h-1.1909V27.583c1.37254-.05615,1.793-1.55469,1.80711-2.70362h.3501V27.457h2.00293v.43408H152.023v3.89405c0,.23828,0,1.51268.93848,1.51268.51806,0,.93847-.53222.93847-1.56884v-.77h.3501v.79834C154.25,32.65381,153.85791,33.64844,152.86328,33.64844Z" transform="translate(0)"/>
      <path class="cls-2" d="M160.6626,33.57813a1.17256,1.17256,0,0,1-1.09277-1.14843,1.938,1.938,0,0,1-1.835,1.21875c-.88232,0-2.24123-.3506-2.24123-1.48488a2.041,2.041,0,0,1,1.40088-1.82128,6.81985,6.81985,0,0,1,2.57715-.50391v-.51856a1.58631,1.58631,0,0,0-1.36337-1.78157q-.06052-.00806-.12149-.01143a1.96779,1.96779,0,0,0-1.5127.64454c.64453.01367.71436.47607.71436.644a.64437.64437,0,0,1-1.28873.00007l.00015-.01374c0-.92481.96631-1.583,2.11524-1.583a2.67436,2.67436,0,0,1,1.91894.77051,2.07126,2.07126,0,0,1,.5044,1.65282V32.4433c0,.07031.05566.70068.51806.70068.1543,0,.5044-.084.5044-.89647v-.78467h.3501v.78467a1.18909,1.18909,0,0,1-1.03861,1.32255Q160.7177,33.57665,160.6626,33.57813Zm-1.19092-3.44581c-2.311.084-2.89941,1.24659-2.89941,2.01709a1.206,1.206,0,0,0,1.22024,1.19159l.0405-.00116a1.68211,1.68211,0,0,0,1.64287-1.72047q-.001-.04314-.0042-.08617Z" transform="translate(0)"/>
      <path class="cls-2" d="M165.30908,33.64844a1.69508,1.69508,0,0,1-1.80711-1.89112V27.89111h-1.19043V27.583c1.37254-.05615,1.793-1.55469,1.80711-2.70362h.3501V27.457h2.00293v.43408h-2.00293v3.89405c0,.23828,0,1.51268.93848,1.51268.51806,0,.93848-.53222.93848-1.56884v-.77h.35008v.79834C166.6958,32.65381,166.30371,33.64844,165.30908,33.64844Z" transform="translate(0)"/>
      <path class="cls-2" d="M170.96582,33.64844a3.16268,3.16268,0,0,1-3.082-3.23584,3.06143,3.06143,0,0,1,2.91358-3.19385,2.48469,2.48469,0,0,1,2.50732,2.74561c0,.29393-.042.29393-.3501.29393h-3.9082a4.077,4.077,0,0,0,.42041,2.10109,1.88539,1.88539,0,0,0,1.583.93846,1.97393,1.97393,0,0,0,1.89063-1.44238c.02832-.11231.05615-.19629.18213-.19629a.16248.16248,0,0,1,.18212.168A2.39423,2.39423,0,0,1,170.96582,33.64844Zm-.16845-6.12158c-.47608,0-1.65285.35009-1.73682,2.4375h3.31982C172.38037,29.418,172.24024,27.52686,170.79737,27.52686Z" transform="translate(0)"/>
    </g>
  </g>
  <rect class="cls-1" x="221.7876" y="26" width="60" height="30"/>
  <g>
    <g>
      <path class="cls-2" d="M233.65381,45.82275a.58039.58039,0,0,1-.60252-.55735q-.00087-.02233,0-.0447a.60718.60718,0,0,1,.32227-.54638.35144.35144,0,0,0-.1543-.01416c-1.06445,0-1.65283,1.24658-1.65283,2.63379v2.15673c0,.5044.02832.6587,1.06445.6587h.29443v.43408c-.56054-.042-1.21875-.042-1.7788-.042l-1.59717.042v-.43408c.93847,0,1.09277,0,1.09277-.63038V45.72461c0-.686-.1123-.78418-1.09277-.78418v-.43408l1.94726-.1543v1.541a1.961,1.961,0,0,1,1.72266-1.541.95584.95584,0,0,1,1.03662.85449.58842.58842,0,0,1-.5598.61572Q233.675,45.82325,233.65381,45.82275Z" transform="translate(0)"/>
      <path class="cls-2" d="M238.11914,50.69775a3.16268,3.16268,0,0,1-3.082-3.23584,3.06143,3.06143,0,0,1,2.91358-3.19384,2.48467,2.48467,0,0,1,2.50732,2.74559c0,.294-.042.294-.3501.294h-3.9082a4.07691,4.07691,0,0,0,.42041,2.10106,1.8854,1.8854,0,0,0,1.583.93848,1.97394,1.97394,0,0,0,1.89063-1.44238c.02832-.11231.05615-.19629.18213-.19629a.16248.16248,0,0,1,.18212.168A2.39421,2.39421,0,0,1,238.11914,50.69775Zm-.16845-6.12159c-.47608,0-1.65285.3501-1.73682,2.4375h3.31982C239.53369,46.46729,239.3936,44.57617,237.95069,44.57616Z" transform="translate(0)"/>
      <path class="cls-2" d="M247.24805,45.30469a.39767.39767,0,0,1-.40578-.38938q-.00017-.00844,0-.01687a.37513.37513,0,0,1,.22412-.37842.659.659,0,0,0-.14014-.01367,1.83855,1.83855,0,0,0-1.26074.54638,1.89145,1.89145,0,0,1,.57422,1.3584,2.16791,2.16791,0,0,1-2.269,2.04541A2.387,2.387,0,0,1,242.584,48.022a1.032,1.032,0,0,0-.23828.65869.91359.91359,0,0,0,.74219.93847c.09814.01367.70068.01367,1.05078.01367a4.97259,4.97259,0,0,1,2.40918.39258,1.79113,1.79113,0,0,1,.91064,1.59668c0,1.09278-1.457,1.80713-3.10986,1.80713-1.709,0-3.0957-.77051-3.0957-1.7793A1.58,1.58,0,0,1,242.542,50.2495a1.4936,1.4936,0,0,1-.61668-1.24707,1.93625,1.93625,0,0,1,.43457-1.16259,1.92768,1.92768,0,0,1-.65871-1.44239,2.16838,2.16838,0,0,1,2.26955-2.04541,2.33361,2.33361,0,0,1,1.48437.50441,2.15831,2.15831,0,0,1,1.48486-.65822.68515.68515,0,0,1,.71373.65532q.00068.01534.00063.03068a.40446.40446,0,0,1-.38817.42014Q247.25713,45.30475,247.24805,45.30469Zm-3.29151,5.14061h-.82666a1.23333,1.23333,0,0,0-1.14843,1.20459c0,.74269.96631,1.457,2.38134,1.457,1.37255,0,2.36719-.70069,2.36719-1.457,0-1.20458-1.56885-1.20458-2.77337-1.20458Zm.01417-5.771a1.21046,1.21046,0,0,0-.99463.56006,2.29724,2.29724,0,0,0-.22412,1.17675c0,.32227,0,1.72315,1.21875,1.72315a1.20931,1.20931,0,0,0,.99414-.56054,2.2948,2.2948,0,0,0,.22412-1.17627c0-.32225,0-1.72313-1.21826-1.72313Z" transform="translate(0)"/>
      <path class="cls-2" d="M249.86377,50.50146l-1.54053.042v-.43408c.93848,0,1.09229,0,1.09229-.63038V45.71094c0-.68653-.126-.77051-1.03662-.77051v-.43408l1.96142-.1543v5.14063c0,.54638.05567.6167.98047.6167v.43408C250.84424,50.5293,250.354,50.50146,249.86377,50.50146ZM249.794,42.8252a.74384.74384,0,1,1,.00061,0Z" transform="translate(0)"/>
      <path class="cls-2" d="M254.54053,50.69775a2.0931,2.0931,0,0,1-1.541-.60254,3.2235,3.2235,0,0,0-.28027.32227c-.26611.26611-.27978.28027-.3501.28027-.15381,0-.15381-.09813-.15381-.33641V48.51221c0-.252,0-.3501.18213-.3501.13965,0,.15381.05615.1958.23828.26612,1.19043.77051,1.98877,1.94727,1.98877,1.09228,0,1.58252-.56006,1.58252-1.27441,0-1.00879-1.14844-1.23291-1.45654-1.28858a3.67313,3.67313,0,0,1-1.84912-.64453,1.49289,1.49289,0,0,1-.60206-1.19043c0-.78467.53223-1.72314,2.24122-1.72314a2.15817,2.15817,0,0,1,1.3164.39209,1.78661,1.78661,0,0,0,.23828-.22412c.18213-.168.21-.168.28028-.168.1538,0,.1538.09814.1538.33642V46.019c0,.26612,0,.33593-.18212.33593,0,0-.15381,0-.168-.126a1.54527,1.54527,0,0,0-1.63868-1.69482c-1.20458,0-1.56884.57422-1.56884,1.06445,0,.8125.93847.99463,1.72265,1.14894a2.85589,2.85589,0,0,1,1.59717.67236,1.80751,1.80751,0,0,1,.58838,1.33056C256.7959,49.75879,256.15137,50.69775,254.54053,50.69775Z" transform="translate(0)"/>
      <path class="cls-2" d="M260.53272,50.69775a1.695,1.695,0,0,1-1.80713-1.89112v-3.8662h-1.19043v-.30811c1.37256-.05616,1.793-1.55468,1.80713-2.70362h.35009v2.57764h2.00293v.43408h-2.00293v3.894c0,.23828,0,1.5127.93848,1.5127.51807,0,.93848-.53222.93848-1.56885v-.77h.3501v.79834C261.91944,49.70313,261.52735,50.69775,260.53272,50.69775Z" transform="translate(0)"/>
      <path class="cls-2" d="M266.18848,50.69775a3.16259,3.16259,0,0,1-3.08154-3.23584,3.06109,3.06109,0,0,1,2.91357-3.19384,2.48475,2.48475,0,0,1,2.50732,2.74559c0,.294-.042.294-.35009.294h-3.90821a4.077,4.077,0,0,0,.42041,2.10106,1.88542,1.88542,0,0,0,1.583.93848,1.97364,1.97364,0,0,0,1.89063-1.44238c.02832-.11231.05615-.19629.18213-.19629a.16247.16247,0,0,1,.18212.168A2.39443,2.39443,0,0,1,266.18848,50.69775Zm-.168-6.12159c-.47608,0-1.65283.3501-1.73682,2.4375h3.31983c0-.54637-.14011-2.43749-1.583-2.43749Z" transform="translate(0)"/>
      <path class="cls-2" d="M273.42725,45.82275a.58035.58035,0,0,1-.60251-.55732q-.00087-.02235,0-.04473a.6072.6072,0,0,1,.32226-.54638.35138.35138,0,0,0-.15429-.01416c-1.06446,0-1.65283,1.24658-1.65283,2.63379v2.15673c0,.5044.02832.6587,1.06445.6587h.29443v.43408c-.56054-.042-1.21875-.042-1.77881-.042l-1.59716.042v-.43408c.93847,0,1.09277,0,1.09277-.63038V45.72461c0-.686-.11231-.78418-1.09277-.78418v-.43408l1.94726-.1543v1.541a1.961,1.961,0,0,1,1.72266-1.541.95585.95585,0,0,1,1.03662.85449.58843.58843,0,0,1-.55979.61572Q273.44838,45.82325,273.42725,45.82275Z" transform="translate(0)"/>
    </g>
    <g>
      <path class="cls-2" d="M240.07227,39.48535a3.50938,3.50938,0,0,1-2.57764-.98047c-.4624.74219-.50439.79834-.50439.79834-.09766.1543-.11182.18213-.21.18213-.1543,0-.1543-.09814-.1543-.33594V36.34766c0-.252,0-.3501.18213-.3501a.14615.14615,0,0,1,.1668.12205l.00166.01809a2.83219,2.83219,0,0,0,.86816,2.15721,3.38079,3.38079,0,0,0,2.21338.75635,1.92059,1.92059,0,0,0,1.87831-1.962l-.00136-.04145a2.04779,2.04779,0,0,0-.43408-1.28856,1.86257,1.86257,0,0,0-1.19092-.71437c-.98046-.23828-1.69482-.40625-1.84863-.4619a2.71367,2.71367,0,0,1,.89649-5.28125,2.88262,2.88262,0,0,1,2.24121.98047l.49023-.79834c.09766-.168.11182-.18213.21-.18213.15381,0,.15381.09814.15381.33642v2.81543c0,.26612,0,.33643-.18164.33643-.1543,0-.1543-.08447-.16846-.16846-.084-.63037-.39209-2.92724-2.73145-2.92724a1.83085,1.83085,0,0,0-.43408,3.61377l1.793.43409a2.86594,2.86594,0,0,1,2.10108,2.82958,2.808,2.808,0,0,1-2.69993,2.912Z" transform="translate(0)"/>
      <path class="cls-2" d="M246.88965,39.33154a1.69474,1.69474,0,0,1-1.80664-1.89111V33.57422h-1.19092v-.30811c1.37256-.05616,1.793-1.55468,1.80713-2.70362h.3501v2.57764h2.00293v.43408h-2.00293v3.894c0,.23828,0,1.5127.93847,1.5127.51807,0,.93848-.53223.93848-1.56885v-.77h.3501v.79834C248.27637,38.33691,247.88428,39.33154,246.88965,39.33154Z" transform="translate(0)"/>
      <path class="cls-2" d="M254.689,39.26123a1.1726,1.1726,0,0,1-1.09278-1.14844,1.938,1.938,0,0,1-1.835,1.21875c-.88232,0-2.24121-.35058-2.24121-1.48486a2.041,2.041,0,0,1,1.40088-1.82129,6.82,6.82,0,0,1,2.57715-.50391v-.51854a1.58633,1.58633,0,0,0-1.36341-1.78158q-.06047-.008-.12146-.01142a1.96784,1.96784,0,0,0-1.51269.64453c.64453.01367.71436.47608.71436.64405a.64437.64437,0,0,1-1.28873.00005l.00015-.01373c0-.9248.96631-1.583,2.11524-1.583a2.67447,2.67447,0,0,1,1.91894.7705,2.07137,2.07137,0,0,1,.5044,1.65284v2.80126c0,.07032.05566.70069.51806.70069.1543,0,.5044-.084.5044-.89649V37.146h.35009v.78466a1.18908,1.18908,0,0,1-1.03866,1.32251Q254.74405,39.25974,254.689,39.26123Zm-1.19092-3.4458c-2.311.084-2.89942,1.24658-2.89942,2.01709a1.206,1.206,0,0,0,1.22025,1.19159l.0405-.00116a1.68213,1.68213,0,0,0,1.64288-1.72048q-.001-.04313-.00421-.08616Z" transform="translate(0)"/>
      <path class="cls-2" d="M259.33545,39.33154a1.695,1.695,0,0,1-1.80713-1.89111V33.57422h-1.19043v-.30811c1.37256-.05616,1.793-1.55468,1.80713-2.70362h.3501v2.57764h2.00293v.43408h-2.00293v3.894c0,.23828,0,1.5127.93848,1.5127.51806,0,.93847-.53223.93847-1.56885v-.77h.3501v.79834C260.72217,38.33691,260.33008,39.33154,259.33545,39.33154Z" transform="translate(0)"/>
      <path class="cls-2" d="M264.99121,39.33154a3.16259,3.16259,0,0,1-3.08154-3.23584,3.06111,3.06111,0,0,1,2.91357-3.19384,2.48475,2.48475,0,0,1,2.50733,2.7456c0,.294-.042.294-.3501.294h-3.9082a4.077,4.077,0,0,0,.42041,2.10107,1.88537,1.88537,0,0,0,1.583.93847,1.97356,1.97356,0,0,0,1.89062-1.44239c.02832-.11229.05615-.19628.18213-.19628a.16254.16254,0,0,1,.18213.168A2.39445,2.39445,0,0,1,264.99121,39.33154Zm-.168-6.12158c-.47607,0-1.65283.3501-1.73681,2.4375h3.31982c0-.54639-.1401-2.43746-1.583-2.43746Z" transform="translate(0)"/>
    </g>
  </g>
  <g>
    <line class="cls-1" x1="90.26929" y1="31" x2="41.7876" y2="31"/>
    <polygon class="cls-2" points="85.63 25.274 84.675 26.3 89.732 30.999 84.675 35.699 85.63 36.724 91.788 30.999 85.63 25.274"/>
  </g>
  <polyline class="cls-1" points="311.788 21 296.788 21 296.788 1 66.788 1 66.788 31"/>
  <g>
    <polyline class="cls-1" points="251.788 57.518 251.788 81 231.788 81"/>
    <polygon class="cls-2" points="246.062 62.157 247.087 63.112 251.786 58.056 256.487 63.112 257.512 62.157 251.786 56 246.062 62.157"/>
  </g>
  <g>
    <path class="cls-2" d="M199.21094,84.68994a5.09664,5.09664,0,0,1,0-10.18359,3.435,3.435,0,0,1,2.57715,1.20459l.70068-1.03614c.11182-.16845.168-.16845.22412-.16845.15381,0,.15381.09813.15381.33642V78.1626c0,.29394,0,.33594-.22412.33594-.1958,0-.1958-.042-.22412-.23781-.28027-2.04541-1.52686-3.31981-3.05371-3.31981-.85449,0-3.58594.47606-3.58594,4.66455,0,4.17383,2.74561,4.65039,3.6001,4.65039A3.17217,3.17217,0,0,0,202.5166,81.104c.01416-.14013.01416-.22412.168-.22412.18213,0,.18213.09815.18213.23828A3.66227,3.66227,0,0,1,199.21094,84.68994Z" transform="translate(0)"/>
    <path class="cls-2" d="M205.67676,84.33984l-1.55469.042v-.43409c.93848,0,1.09229,0,1.09229-.63037V76.0332c0-.686-.11182-.78418-1.09229-.78418v-.43457l2.01709-.15381v8.65674c0,.63037.15381.63037,1.09229.63037v.43409Z" transform="translate(0)"/>
    <path class="cls-2" d="M211.0396,84.53613a3.12135,3.12135,0,1,1,.01932-.00013Zm1.583-5.21093a1.83565,1.83565,0,0,0-1.583-.91065,1.87991,1.87991,0,0,0-1.59668.93848,4.01393,4.01393,0,0,0-.33643,1.91894,4.16883,4.16883,0,0,0,.3501,1.97509,1.83042,1.83042,0,0,0,1.59715.93848,1.80782,1.80782,0,0,0,1.625-1.03614,4.25779,4.25779,0,0,0,.30811-1.87744,3.84292,3.84292,0,0,0-.36424-1.94676Z" transform="translate(0)"/>
    <path class="cls-2" d="M218.43115,84.53613a3.10043,3.10043,0,0,1-3.0117-3.17968,3.13949,3.13949,0,0,1,3.02547-3.24951l.01452-.00049c1.07813,0,2.14307.54638,2.14307,1.499a.64436.64436,0,0,1-1.28842.02742l-.00015-.01374a.63192.63192,0,0,1,.61917-.64443q.0195-.00039.039.00043a2.28431,2.28431,0,0,0-1.499-.51856c-.74219,0-1.89112.58837-1.89112,2.87159,0,2.25537,1.23291,2.85742,1.9751,2.85742a1.82918,1.82918,0,0,0,1.835-1.47071c.02832-.084.05615-.14013.18213-.14013.042,0,.18213,0,.18213.14013A2.305,2.305,0,0,1,218.43115,84.53613Z" transform="translate(0)"/>
    <path class="cls-2" d="M226.70661,84.33984l-1.51319.042v-.43409c.26612,0,.5044-.05615.5044-.32225a11.65125,11.65125,0,0,0-1.667-2.5215l-.89648.77051v1.44287c0,.63037.15429.63037,1.09277.63037v.43409l-1.541-.042-1.52686.042v-.43409c.93848,0,1.09278,0,1.09278-.63037V76.0332c0-.686-.11231-.78418-1.09278-.78418v-.43457l2.01709-.15381v6.72364l1.9751-1.709a.72577.72577,0,0,0,.30811-.54638c0-.18213-.14014-.33594-.40625-.3501v-.43408c.19627.01367,1.06494.042,1.56884.042a7.77662,7.77662,0,0,0,.981-.042v.43408a2.77435,2.77435,0,0,0-1.76514.75635,14.961,14.961,0,0,0-1.13477,1.00879c0,.042.07032.126.084.1538l1.7793,2.50733c.53223.74267.84033.74267,1.3584.74267v.43409Q227.31543,84.34008,226.70661,84.33984Z" transform="translate(0)"/>
  </g>
  <g>
    <line class="cls-1" x1="191.7876" y1="41" x2="220.2693" y2="41"/>
    <polygon class="cls-2" points="215.63 46.726 214.675 45.7 219.732 41.001 214.675 36.301 215.63 35.276 221.788 41.001 215.63 46.726"/>
  </g>
  <g>
    <line class="cls-1" x1="281.7876" y1="41" x2="310.26929" y2="41"/>
    <polygon class="cls-2" points="305.63 46.726 304.675 45.7 309.732 41.001 304.675 36.301 305.63 35.276 311.788 41.001 305.63 46.726"/>
  </g>
  <g>
    <polyline class="cls-1" points="296.788 41 296.788 91 66.788 91 66.788 51 90.269 51"/>
    <polygon class="cls-2" points="85.63 56.726 84.675 55.7 89.732 51.001 84.675 46.301 85.63 45.276 91.788 51.001 85.63 56.726"/>
  </g>
  <g>
    <path class="cls-2" d="M2.1294,34.1377c-.53223,0-1.63916,0-2.1294.042v-.43408H.36426c1.10645,0,1.14893-.1543,1.14893-.6587V25.70508c0-.5044-.04248-.6582-1.14893-.6582H0V24.6123c.49024.042,1.59717.042,2.14307.042.53271,0,1.63916,0,2.12939-.042v.43458H3.90821c-1.10645,0-1.14844.1538-1.14844.6582v7.38183c0,.50441.042.6587,1.14844.6587h.36425v.43409C3.78223,34.1377,2.67578,34.1377,2.1294,34.1377Z" transform="translate(0)"/>
    <path class="cls-2" d="M10.58692,34.1377l-1.583.042v-.43408c.93848,0,1.09277,0,1.09277-.63038V29.85156c0-.79883-.15429-1.55517-1.03662-1.55517a2.04594,2.04594,0,0,0-1.89581,2.18578l.0047.05543v2.57763c0,.63038.15429.63038,1.09277.63038v.43408l-1.56885-.042-1.583.042v-.43408c.93847,0,1.09277,0,1.09277-.63038v-3.7539c0-.68653-.11231-.78467-1.09277-.78467v-.43408l1.97509-.1543V29.459a2.20824,2.20824,0,0,1,2.07325-1.4707,1.86689,1.86689,0,0,1,1.4707.51856c.43408.5039.43408.93847.43408,2.14306v2.6753c.01416.42041.36426.42041,1.09277.42041v.43408Z" transform="translate(0)"/>
    <path class="cls-2" d="M16.62012,34.334a1.90359,1.90359,0,0,1-1.72314-.98095v2.47949c0,.63037.15429.63037,1.09277.63037V36.897l-1.583-.042-1.56885.042v-.43408c.93848,0,1.09278,0,1.09278-.63037V29.27686c0-.61622-.09815-.7002-1.09278-.7002v-.43408l2.01709-.1543v.92481a2.52354,2.52354,0,0,1,1.96094-.92481,3.06547,3.06547,0,0,1,2.92773,3.166A3.15677,3.15677,0,0,1,16.62012,34.334Zm.084-5.9956A2.10017,2.10017,0,0,0,14.897,29.459v3.124a.73344.73344,0,0,0,.19628.58789,1.74444,1.74444,0,0,0,1.47071.85449c1.03662,0,2.01709-1.17627,2.01709-2.87108,0-1.583-.85448-2.81592-1.877-2.81592Z" transform="translate(0)"/>
    <path class="cls-2" d="M25.707,34.334V33.07324A1.91131,1.91131,0,0,1,23.8999,34.334c-2.1289,0-2.1289-1.2749-2.1289-2.36767v-2.1011c0-1.24658,0-1.28857-1.09277-1.28857v-.43408l2.05908-.1543v4.65039c0,.72853.05615,1.38672,1.23291,1.38672,1.02246,0,1.69482-.95215,1.69482-2.1709V29.36133c0-.68653-.1123-.78467-1.09277-.78467v-.43408l2.05908-.1543v4.97266c0,.68652.1123.78467,1.09277.78467v.43408Z" transform="translate(0)"/>
    <path class="cls-2" d="M31.27735,34.334a1.69506,1.69506,0,0,1-1.80713-1.89111V28.57666H28.27979v-.30811c1.37256-.05615,1.793-1.55468,1.80713-2.70361H30.437v2.57764h2.00293v.43408H30.437v3.894c0,.23828,0,1.5127.93848,1.5127.51807,0,.93848-.53223.93848-1.56885v-.77h.35009v.79834C32.66406,33.33936,32.272,34.334,31.27735,34.334Z" transform="translate(0)"/>
    <path class="cls-2" d="M36.24707,34.334a2.09305,2.09305,0,0,1-1.541-.60253,3.22,3.22,0,0,0-.28028.32226c-.26611.26611-.27978.28027-.35009.28027-.15381,0-.15381-.09814-.15381-.33642V32.14844c0-.252,0-.3501.18213-.3501.13964,0,.1538.05615.1958.23828.26611,1.19043.7705,1.98877,1.94726,1.98877,1.09229,0,1.58252-.56006,1.58252-1.27441,0-1.00878-1.14844-1.23291-1.45654-1.28858a3.6731,3.6731,0,0,1-1.84912-.64453,1.49281,1.49281,0,0,1-.60205-1.19043c0-.78467.53222-1.72314,2.24121-1.72314a2.15806,2.15806,0,0,1,1.3164.39209,1.78669,1.78669,0,0,0,.23829-.22412c.18212-.168.21-.168.28027-.168.15381,0,.15381.09814.15381.33593v1.415c0,.26612,0,.33594-.18213.33594,0,0-.15381,0-.168-.126a1.54531,1.54531,0,0,0-1.63868-1.69482c-1.20458,0-1.56885.57422-1.56885,1.06445,0,.8125.93848.99463,1.72266,1.14894a2.85589,2.85589,0,0,1,1.59716.67236,1.80736,1.80736,0,0,1,.58838,1.33056C38.50244,33.39551,37.85791,34.334,36.24707,34.334Z" transform="translate(0)"/>
  </g>
  <g>
    <rect class="cls-1" x="312.33988" y="6" width="100" height="50"/>
    <g>
      <g>
        <path class="cls-2" d="M322.84818,35.01465a3.1009,3.1009,0,0,1-3.01172-3.18018,3.13936,3.13936,0,0,1,3.02573-3.249l.01428-.00048c1.07861,0,2.14307.54639,2.14307,1.499a.64461.64461,0,0,1-1.28895.02662l-.00012-.01294a.63243.63243,0,0,1,.62012-.64448c.01285-.00025.02573-.0001.03857.00043a2.2844,2.2844,0,0,0-1.499-.51854c-.74219,0-1.89111.58837-1.89111,2.87158,0,2.25537,1.23291,2.85742,1.9751,2.85742a1.82889,1.82889,0,0,0,1.835-1.4707c.02832-.084.05615-.14014.18213-.14014.042,0,.18212,0,.18212.14014A2.305,2.305,0,0,1,322.84818,35.01465Z" transform="translate(0)"/>
        <path class="cls-2" d="M329.064,35.01465a3.1213,3.1213,0,1,1,.01935-.00013Zm1.583-5.21094a1.83563,1.83563,0,0,0-1.583-.91064,1.88,1.88,0,0,0-1.59668.93847,4.01379,4.01379,0,0,0-.33643,1.919,4.16372,4.16372,0,0,0,.35059,1.97509,1.82911,1.82911,0,0,0,1.59668.93847,1.808,1.808,0,0,0,1.625-1.03662,4.25465,4.25465,0,0,0,.3081-1.877A3.84271,3.84271,0,0,0,330.647,29.80371Z" transform="translate(0)"/>
        <path class="cls-2" d="M342.39554,34.81836l-1.583.042v-.43408c.93848,0,1.09278,0,1.09278-.63037V30.53223c0-.79883-.1543-1.55519-1.03662-1.55519a2.046,2.046,0,0,0-1.89582,2.18579l.0047.05542V33.7959c0,.63037.1543.63037,1.09278.63037v.43408l-1.56885-.042-1.583.042v-.43408c.93848,0,1.09277,0,1.09277-.63037V30.53223c0-.79883-.15429-1.55519-1.03662-1.55519a2.046,2.046,0,0,0-1.89581,2.18591l.0047.0553V33.7959c0,.63037.1543.63037,1.09277.63037v.43408l-1.56884-.042-1.583.042v-.43408c.93847,0,1.09277,0,1.09277-.63037V30.0415c0-.686-.1123-.78418-1.09277-.78418v-.43409l1.9751-.15428v1.4707a2.20819,2.20819,0,0,1,2.07324-1.4707,1.65821,1.65821,0,0,1,1.86279,1.37255,2.21679,2.21679,0,0,1,2.03131-1.3725,1.867,1.867,0,0,1,1.47071.51855c.43408.5039.43408.93847.43408,2.14306v2.6753c.01416.42041.36426.42041,1.09277.42041v.43408Z" transform="translate(0)"/>
        <path class="cls-2" d="M348.02054,35.01465a2.20181,2.20181,0,0,1-1.835-1.023l-.50439.86865h-.3501V26.51172c0-.686-.11231-.78418-1.09277-.78418V25.293l2.01708-.15381v4.44043a2.48806,2.48806,0,0,1,1.91895-.91064,3.08083,3.08083,0,0,1,2.96973,3.16552A3.15688,3.15688,0,0,1,348.02054,35.01465Zm1.55469-5.14111a1.741,1.741,0,0,0-1.4707-.8965,2.02285,2.02285,0,0,0-1.65284.8965.6101.6101,0,0,0-.15429.50438v2.88574a.76429.76429,0,0,0,.19629.58838,1.72968,1.72968,0,0,0,1.4707.854,1.9251,1.9251,0,0,0,1.583-.89648,4.82037,4.82037,0,0,0,.02783-3.936Z" transform="translate(0)"/>
        <path class="cls-2" d="M353.63288,34.81836l-1.54053.042v-.43408c.93848,0,1.09229,0,1.09229-.63037V30.02783c0-.68652-.126-.77051-1.03663-.77051v-.43408l1.96143-.15429v5.14062c0,.54639.05566.6167.98047.6167v.43408C354.61332,34.84619,354.12308,34.81836,353.63288,34.81836Zm-.06983-7.67627a.74385.74385,0,1,1,.00061,0H353.563Z" transform="translate(0)"/>
        <path class="cls-2" d="M361.4473,34.81836l-1.583.042v-.43408c.93848,0,1.09278,0,1.09278-.63037V30.53223c0-.79883-.1543-1.55519-1.03663-1.55519a2.046,2.046,0,0,0-1.89581,2.18591l.0047.0553V33.7959c0,.63037.1543.63037,1.09277.63037v.43408l-1.56884-.042-1.583.042v-.43408c.93848,0,1.09277,0,1.09277-.63037V30.0415c0-.686-.1123-.78418-1.09277-.78418v-.43409l1.9751-.15428v1.4707a2.20868,2.20868,0,0,1,2.07324-1.4707,1.86686,1.86686,0,0,1,1.4707.51854c.43408.50391.43408.93848.43408,2.14307v2.67529c.01416.42041.36426.42041,1.09278.42041v.43408Z" transform="translate(0)"/>
        <path class="cls-2" d="M368.92337,34.94434a1.17259,1.17259,0,0,1-1.09277-1.14843,1.938,1.938,0,0,1-1.835,1.21875c-.88232,0-2.24121-.3506-2.24121-1.48487a2.041,2.041,0,0,1,1.40088-1.82129,6.8198,6.8198,0,0,1,2.57715-.5039V30.686a1.58634,1.58634,0,0,0-1.36338-1.78158q-.06051-.008-.12149-.01142a1.96776,1.96776,0,0,0-1.51269.64453c.64453.01367.71435.47607.71435.644a.64436.64436,0,1,1-1.28872.00006l.00015-.01374c0-.92481.96631-1.583,2.11523-1.583a2.67446,2.67446,0,0,1,1.919.77051,2.07119,2.07119,0,0,1,.50439,1.65283v2.80127c0,.07032.05567.70069.51807.70069.1543,0,.50439-.084.50439-.89648V32.8291h.3501v.78467a1.18907,1.18907,0,0,1-1.03863,1.32251Q368.97845,34.94285,368.92337,34.94434Zm-1.19091-3.4458c-2.311.084-2.89942,1.24658-2.89942,2.01709a1.206,1.206,0,0,0,1.22025,1.19158l.04049-.00116a1.68213,1.68213,0,0,0,1.64289-1.72047q-.001-.04313-.00421-.08617Z" transform="translate(0)"/>
        <path class="cls-2" d="M373.56989,35.01465a1.695,1.695,0,0,1-1.80713-1.89111V29.25732h-1.19043v-.3081c1.37256-.05615,1.793-1.55469,1.80713-2.70361h.3501v2.57762h2.00293v.43409h-2.00293v3.894c0,.23829,0,1.51269.93847,1.51269.51807,0,.93848-.53222.93848-1.56885v-.77h.3501v.79834C374.95658,34.02,374.56449,35.01465,373.56989,35.01465Z" transform="translate(0)"/>
        <path class="cls-2" d="M377.75489,34.81836l-1.54053.042v-.43408c.93848,0,1.09228,0,1.09228-.63037V30.02783c0-.68652-.126-.77051-1.03662-.77051v-.43408l1.96143-.15429v5.14062c0,.54639.05566.6167.98047.6167v.43408C378.73539,34.84619,378.24515,34.81836,377.75489,34.81836Zm-.06983-7.67627a.74385.74385,0,1,1,.00061,0h-.00061Z" transform="translate(0)"/>
        <path class="cls-2" d="M383.13187,35.01465a3.12135,3.12135,0,1,1,.01932-.00013Zm1.583-5.21094a1.83563,1.83563,0,0,0-1.583-.91064,1.88,1.88,0,0,0-1.59668.93847,4.01391,4.01391,0,0,0-.33643,1.919,4.16859,4.16859,0,0,0,.3501,1.97509,1.83041,1.83041,0,0,0,1.59717.93847,1.8075,1.8075,0,0,0,1.625-1.03662,4.2548,4.2548,0,0,0,.30811-1.877A3.84283,3.84283,0,0,0,384.71488,29.80371Z" transform="translate(0)"/>
        <path class="cls-2" d="M392.56937,34.81836l-1.583.042v-.43408c.93848,0,1.09278,0,1.09278-.63037V30.53223c0-.79883-.1543-1.55519-1.03663-1.55519A2.046,2.046,0,0,0,389.1467,31.163l.0047.0553V33.7959c0,.63037.1543.63037,1.09277.63037v.43408l-1.56884-.042-1.583.042v-.43408c.93848,0,1.09277,0,1.09277-.63037V30.0415c0-.686-.1123-.78418-1.09277-.78418v-.43409l1.9751-.15428v1.4707a2.20868,2.20868,0,0,1,2.07324-1.4707,1.86686,1.86686,0,0,1,1.4707.51854c.43408.50391.43408.93848.43408,2.14307v2.67529c.01416.42041.36426.42041,1.09278.42041v.43408Z" transform="translate(0)"/>
        <path class="cls-2" d="M400.045,34.94434a1.1726,1.1726,0,0,1-1.09278-1.14843,1.938,1.938,0,0,1-1.835,1.21875c-.88232,0-2.24121-.3506-2.24121-1.48487a2.041,2.041,0,0,1,1.40091-1.82129,6.8198,6.8198,0,0,1,2.57715-.5039V30.686a1.58633,1.58633,0,0,0-1.36337-1.78158q-.06053-.008-.1215-.01142a1.96777,1.96777,0,0,0-1.51269.64453c.64453.01367.71436.47607.71436.644a.64437.64437,0,0,1-1.28873.00006l.00015-.01374c0-.92481.96631-1.583,2.11524-1.583a2.67444,2.67444,0,0,1,1.91894.77051,2.07123,2.07123,0,0,1,.5044,1.65283v2.80127c0,.07032.05566.70069.51806.70069.1543,0,.5044-.084.5044-.89648V32.8291h.35009v.78467a1.18906,1.18906,0,0,1-1.03866,1.32251Q400.10007,34.94285,400.045,34.94434Zm-1.19092-3.4458c-2.311.084-2.89942,1.24658-2.89942,2.01709a1.206,1.206,0,0,0,1.22025,1.19158l.0405-.00116a1.68213,1.68213,0,0,0,1.64288-1.72047q-.001-.04313-.00421-.08617Z" transform="translate(0)"/>
        <path class="cls-2" d="M403.44489,34.81836l-1.55469.042v-.43408c.93848,0,1.09229,0,1.09229-.63037V26.51172c0-.686-.11182-.78418-1.09229-.78418V25.293l2.01709-.15381V33.7959c0,.63037.15381.63037,1.09229.63037v.43408Z" transform="translate(0)"/>
      </g>
      <g>
        <path class="cls-2" d="M346.59893,46.38086a3.10046,3.10046,0,0,1-3.01172-3.17969,3.13948,3.13948,0,0,1,3.02546-3.24951l.01455-.00049c1.07862,0,2.14307.54639,2.14307,1.499a.64461.64461,0,0,1-1.28894.02661l-.00012-.01294a.63242.63242,0,0,1,.62017-.64443q.01927-.00036.03852.00044a2.28441,2.28441,0,0,0-1.499-.51855c-.74218,0-1.89111.58838-1.89111,2.87158,0,2.25537,1.23291,2.85742,1.9751,2.85742a1.82887,1.82887,0,0,0,1.835-1.4707c.02832-.084.05615-.14014.18213-.14014.042,0,.18213,0,.18213.14014A2.305,2.305,0,0,1,346.59893,46.38086Z" transform="translate(0)"/>
        <path class="cls-2" d="M351.33,46.18457l-1.54053.042v-.43408c.93848,0,1.09229,0,1.09229-.63037V41.394c0-.68653-.126-.7705-1.03662-.7705v-.43409l1.96142-.15429v5.14062c0,.54638.05567.61669.98047.61669v.43409C352.31036,46.2124,351.82012,46.18457,351.33,46.18457Zm-.06982-7.67627a.74384.74384,0,1,1,.00061,0h-.00061Z" transform="translate(0)"/>
        <path class="cls-2" d="M357.71563,41.50586a.58035.58035,0,0,1-.60251-.55732q-.00087-.02235,0-.04473a.60723.60723,0,0,1,.32227-.54639.35173.35173,0,0,0-.1543-.01416c-1.06445,0-1.65283,1.24658-1.65283,2.6333v2.15723c0,.50439.02832.65869,1.06494.65869h.29395v.43408c-.56055-.042-1.21875-.042-1.77881-.042l-1.59717.042v-.43408c.93848,0,1.09277,0,1.09277-.63037V41.4082c0-.68652-.1123-.78466-1.09277-.78466v-.43409l1.94727-.15429v1.541a1.96093,1.96093,0,0,1,1.72265-1.541.95585.95585,0,0,1,1.03662.8545.58842.58842,0,0,1-.55981.61571Q357.73677,41.50636,357.71563,41.50586Z" transform="translate(0)"/>
        <path class="cls-2" d="M362.19464,46.38086a3.10044,3.10044,0,0,1-3.01172-3.17969,3.13948,3.13948,0,0,1,3.02545-3.24951l.01456-.00049c1.07861,0,2.14306.54639,2.14306,1.499a.64461.64461,0,0,1-1.28891.02848l-.00015-.01481a.63242.63242,0,0,1,.62021-.64443q.01923-.00036.03848.00044a2.2844,2.2844,0,0,0-1.499-.51855c-.74219,0-1.89112.58838-1.89112,2.87158,0,2.25537,1.23291,2.85742,1.9751,2.85742a1.82887,1.82887,0,0,0,1.835-1.4707c.02832-.084.05616-.14014.18213-.14014.042,0,.18213,0,.18213.14014A2.305,2.305,0,0,1,362.19464,46.38086Z" transform="translate(0)"/>
        <path class="cls-2" d="M370.39971,46.38086V45.12012a1.91131,1.91131,0,0,1-1.80713,1.26074c-2.1289,0-2.1289-1.2749-2.1289-2.36768V41.91211c0-1.24658,0-1.28857-1.09277-1.28857v-.43409l2.05908-.15429v4.65039c0,.72851.05615,1.38672,1.23291,1.38672,1.02246,0,1.69482-.95215,1.69482-2.1709V41.4082c0-.68652-.1123-.78466-1.09277-.78466v-.43409l2.05908-.15429v4.97265c0,.68653.1123.78467,1.09277.78467v.43408Z" transform="translate(0)"/>
        <path class="cls-2" d="M374.70977,46.18457l-1.54052.042v-.43408c.93847,0,1.09228,0,1.09228-.63037V41.394c0-.68653-.126-.7705-1.03662-.7705v-.43409l1.96142-.15429v5.14062c0,.54638.05567.61669.98047.61669v.43409C375.69024,46.2124,375.2,46.18457,374.70977,46.18457ZM374.64,38.5083a.74385.74385,0,1,1,.00061,0Z" transform="translate(0)"/>
        <path class="cls-2" d="M379.86212,46.38086a1.69474,1.69474,0,0,1-1.80664-1.89111V40.62354h-1.19092v-.30811c1.37256-.05615,1.793-1.55469,1.80713-2.70361h.35009v2.57763h2.00293v.43409h-2.00293v3.894c0,.23828,0,1.51269.93848,1.51269.51807,0,.93848-.53222.93848-1.56884v-.77h.35009v.79834C381.24883,45.38623,380.85675,46.38086,379.86212,46.38086Z" transform="translate(0)"/>
      </g>
      <g>
        <path class="cls-2" d="M345.65382,23.477a4.831,4.831,0,0,1-4.5664-5.04248,4.60171,4.60171,0,1,1,9.14648,0A4.82355,4.82355,0,0,1,345.65382,23.477Zm0-9.84717c-1.31738,0-3.26367,1.1626-3.26367,4.59473,0,3.58594,1.84863,4.93066,3.27734,4.93066,1.3584,0,3.26368-1.28906,3.26368-4.93066C348.93117,14.83447,347.04054,13.62988,345.65382,13.62988Z" transform="translate(0)"/>
        <path class="cls-2" d="M356.34913,23.32324V22.0625a2.45307,2.45307,0,0,1-.62988.85449,1.64254,1.64254,0,0,1-1.16308.40625,2.16741,2.16741,0,0,1-1.625-.53222c-.41993-.46241-.41993-.9668-.41993-1.835V18.855c0-1.24707,0-1.28906-1.06445-1.28906v-.40625l1.97461-.15381v4.63623c0,.74268.07031,1.40088,1.21875,1.40088,1.05078,0,1.68164-.99463,1.68164-2.18506V18.35059c0-.68653-.1123-.78467-1.06543-.78467v-.40625l1.97559-.15381v4.98682c0,.686.1123.78418,1.06445.78418v.40625Z" transform="translate(0)"/>
        <path class="cls-2" d="M361.83644,23.32324a1.65969,1.65969,0,0,1-1.7793-1.87695v-3.894h-1.19043V17.272c1.27442-.042,1.7793-1.38672,1.793-2.70361h.3086V17.146h1.9746v.40625h-1.9746v3.92187c0,.23828,0,1.541.95214,1.541.54688,0,.95313-.58838.95313-1.59717v-.77h.30762v.79834C363.18117,22.45459,362.71925,23.32324,361.83644,23.32324Z" transform="translate(0)"/>
        <path class="cls-2" d="M368.03859,23.32324a2.13491,2.13491,0,0,1-1.72266-.89648v2.437c0,.63037.168.63037,1.06445.63037v.40625c-.36425-.02783-1.12011-.02783-1.52636-.02783-.39258,0-1.14844,0-1.5127.02783v-.40625c.91016,0,1.06446,0,1.06446-.63037v-6.5835c0-.61621-.084-.71435-1.06446-.71435v-.40625l1.94629-.15381v.93848a2.47817,2.47817,0,0,1,1.93359-.93848,3.01431,3.01431,0,0,1,2.84375,3.15185A3.09971,3.09971,0,0,1,368.03859,23.32324Zm.07031-6.00928a2.01858,2.01858,0,0,0-1.63867.89649.61017.61017,0,0,0-.1543.50439V21.6001a1.39189,1.39189,0,0,0,.53223.99463,1.65239,1.65239,0,0,0,1.12109.44824c1.07813,0,2.03125-1.21875,2.03125-2.88526C370.0005,18.58838,369.15968,17.314,368.1089,17.314Z" transform="translate(0)"/>
        <path class="cls-2" d="M376.91456,23.32324V22.0625a2.45307,2.45307,0,0,1-.62988.85449,1.64254,1.64254,0,0,1-1.16308.40625,2.16741,2.16741,0,0,1-1.625-.53222c-.41993-.46241-.41993-.9668-.41993-1.835V18.855c0-1.24707,0-1.28906-1.06445-1.28906v-.40625l1.97461-.15381v4.63623c0,.74268.07031,1.40088,1.21875,1.40088,1.05078,0,1.68164-.99463,1.68164-2.18506V18.35059c0-.68653-.1123-.78467-1.06445-.78467v-.40625l1.97461-.15381v4.98682c0,.686.1123.78418,1.06445.78418v.40625Z" transform="translate(0)"/>
        <path class="cls-2" d="M382.40187,23.32324a1.65969,1.65969,0,0,1-1.7793-1.87695v-3.894h-1.19043V17.272c1.27442-.042,1.7793-1.38672,1.793-2.70361h.30859V17.146h1.97461v.40625H381.5337v3.92187c0,.23828,0,1.541.95215,1.541.54688,0,.95215-.58838.95215-1.59717v-.77h.3086v.79834C383.7466,22.45459,383.28468,23.32324,382.40187,23.32324Z" transform="translate(0)"/>
      </g>
      <g>
        <path class="cls-2" d="M444.29349,35.31348a4.831,4.831,0,0,1-4.56641-5.04248,4.60172,4.60172,0,1,1,9.14649,0A4.82355,4.82355,0,0,1,444.29349,35.31348Zm0-9.84717c-1.31738,0-3.26367,1.1626-3.26367,4.59473,0,3.58593,1.84863,4.93066,3.27734,4.93066,1.3584,0,3.26367-1.28906,3.26367-4.93066C447.57083,26.6709,445.68021,25.46631,444.29349,25.46631Z" transform="translate(0)"/>
        <path class="cls-2" d="M454.9888,35.15967V33.89893a2.45316,2.45316,0,0,1-.62988.85449,1.64256,1.64256,0,0,1-1.16309.40625,2.16741,2.16741,0,0,1-1.625-.53223c-.41992-.4624-.41992-.9668-.41992-1.835V30.69141c0-1.24707,0-1.28907-1.06445-1.28907v-.40625l1.97461-.1538v4.63623c0,.74267.07031,1.40087,1.21875,1.40087,1.05078,0,1.68164-.99462,1.68164-2.18505V30.187c0-.68652-.11231-.78467-1.06543-.78467v-.40625l1.97558-.1538V33.8291c0,.686.11231.78418,1.06446.78418v.40625Z" transform="translate(0)"/>
        <path class="cls-2" d="M460.47611,35.15967a1.6597,1.6597,0,0,1-1.7793-1.877v-3.894h-1.19043V29.1084c1.27441-.042,1.7793-1.38672,1.793-2.70361h.30859v2.57763h1.97461v.40625h-1.97461v3.92188c0,.23828,0,1.541.95215,1.541.54688,0,.95313-.58838.95313-1.59717v-.77h.30761v.79833C461.82083,34.291,461.35892,35.15967,460.47611,35.15967Z" transform="translate(0)"/>
        <path class="cls-2" d="M466.67826,35.15967a2.13491,2.13491,0,0,1-1.72266-.89649v2.437c0,.63037.168.63037,1.06445.63037v.40625c-.36426-.02784-1.12012-.02784-1.52637-.02784-.39257,0-1.14843,0-1.51269.02784v-.40625c.91016,0,1.06445,0,1.06445-.63037V30.1167c0-.61621-.084-.71436-1.06445-.71436v-.40625l1.94629-.1538v.93847a2.4782,2.4782,0,0,1,1.93359-.93847,3.01431,3.01431,0,0,1,2.84375,3.15185A3.09972,3.09972,0,0,1,466.67826,35.15967Zm.07031-6.00928a2.01855,2.01855,0,0,0-1.63867.89649.61017.61017,0,0,0-.1543.50439v2.88525a1.39188,1.39188,0,0,0,.53223.99463,1.65234,1.65234,0,0,0,1.12109.44824c1.07812,0,2.03125-1.21875,2.03125-2.88525C468.64017,30.4248,467.79935,29.15039,466.74857,29.15039Z" transform="translate(0)"/>
        <path class="cls-2" d="M475.55423,35.15967V33.89893a2.45316,2.45316,0,0,1-.62988.85449,1.64256,1.64256,0,0,1-1.16309.40625,2.16741,2.16741,0,0,1-1.625-.53223c-.41992-.4624-.41992-.9668-.41992-1.835V30.69141c0-1.24707,0-1.28907-1.06445-1.28907v-.40625l1.97461-.1538v4.63623c0,.74267.07031,1.40087,1.21875,1.40087,1.05078,0,1.68164-.99462,1.68164-2.18505V30.187c0-.68652-.11231-.78467-1.06446-.78467v-.40625l1.97461-.1538V33.8291c0,.686.11231.78418,1.06446.78418v.40625Z" transform="translate(0)"/>
        <path class="cls-2" d="M481.04154,35.15967a1.6597,1.6597,0,0,1-1.7793-1.877v-3.894h-1.19043V29.1084c1.27441-.042,1.7793-1.38672,1.793-2.70361h.30859v2.57763H482.148v.40625h-1.97461v3.92188c0,.23828,0,1.541.95215,1.541.54688,0,.95215-.58838.95215-1.59717v-.77h.30859v.79833C482.38626,34.291,481.92435,35.15967,481.04154,35.15967Z" transform="translate(0)"/>
        <path class="cls-2" d="M485.88529,35.15967a1.88119,1.88119,0,0,1-1.52637-.65821,1.90888,1.90888,0,0,0-.28027.3501c-.23829.294-.25293.30811-.32227.30811-.14062,0-.14062-.07031-.14062-.32227V32.93262c0-.25244,0-.32227.15429-.32227a.12169.12169,0,0,1,.126.05567,2.10212,2.10212,0,0,1,.07031.28027c.30859,1.40088.98047,1.9331,1.90527,1.9331,1.23243,0,1.583-.67236,1.583-1.27441a1.16452,1.16452,0,0,0-.43457-.91064,2.40752,2.40752,0,0,0-1.30273-.47657,3.01774,3.01774,0,0,1-1.56934-.61621,1.46534,1.46534,0,0,1-.53222-1.13427c0-.77051.50488-1.69532,2.19921-1.69532a1.96309,1.96309,0,0,1,1.31739.43457c.09765-.12646.36425-.43457.47558-.43457.14063,0,.14063.07032.14063.32227v1.457c0,.252,0,.32178-.1543.32178a.13124.13124,0,0,1-.1543-.11182,1.58406,1.58406,0,0,0-1.63867-1.73682c-1.26074,0-1.55469.64405-1.55469,1.07862,0,.84033,1.02247,1.03662,1.44239,1.1206a3.167,3.167,0,0,1,1.80761.686,1.84882,1.84882,0,0,1,.5879,1.33105C488.08451,34.34717,487.356,35.15967,485.88529,35.15967Z" transform="translate(0)"/>
      </g>
    </g>
    <g>
      <line class="cls-1" x1="412.33988" y1="31" x2="435.82157" y2="31"/>
      <polygon class="cls-2" points="431.182 36.726 430.227 35.7 435.284 31.001 430.227 26.301 431.182 25.276 437.34 31.001 431.182 36.726"/>
    </g>
  </g>
</svg>
