<svg id="Layer_1" data-name="Layer 1" xmlns="http://www.w3.org/2000/svg" viewBox="0 0 328 275.96631">
  <defs>
    <style>
      .cls-1, .cls-3 {
        fill: none;
        stroke: #8ff4dd;
        stroke-miterlimit: 10;
      }

      .cls-1 {
        stroke-width: 2px;
      }

      .cls-2 {
        fill: #8ff4dd;
      }

      .cls-3 {
        stroke-width: 3px;
      }
    </style>
  </defs>
  <title>MealyStateDiagram</title>
  <path class="cls-1" d="M137.5,200A37.5,37.5,0,1,1,100,162.5,37.37836,37.37836,0,0,1,137.5,200Z" transform="translate(-36 -112.53369)"/>
  <path class="cls-1" d="M337.5,200A37.5,37.5,0,1,1,300,162.5,37.37836,37.37836,0,0,1,337.5,200Z" transform="translate(-36 -112.53369)"/>
  <path class="cls-1" d="M237.5,350A37.5,37.5,0,1,1,200,312.5,37.37836,37.37836,0,0,1,237.5,350Z" transform="translate(-36 -112.53369)"/>
  <g>
    <path class="cls-2" d="M95.61523,206.7251a9.01922,9.01922,0,0,1-6.623-2.51953c-1.1875,1.90771-1.2959,2.05127-1.2959,2.05127-.252.396-.28809.46826-.54.46826-.39551,0-.39551-.252-.39551-.86377v-7.19922c0-.648,0-.8999.46778-.8999a.37475.37475,0,0,1,.43164.35986,7.28479,7.28479,0,0,0,2.23242,5.54346,8.67949,8.67949,0,0,0,5.68652,1.94385,4.93538,4.93538,0,0,0,4.82422-5.14747,5.25762,5.25762,0,0,0-1.11621-3.31152,4.78038,4.78038,0,0,0-3.05957-1.83594c-2.51953-.61181-4.35547-1.04394-4.752-1.188a6.97313,6.97313,0,0,1,2.30371-13.57031,7.40712,7.40712,0,0,1,5.75976,2.52l1.25977-2.05176c.252-.43212.28808-.46826.54-.46826.39551,0,.39551.252.39551.86426v7.23486c0,.68409,0,.86377-.46778.86377-.39551,0-.39551-.21582-.43164-.43164-.21582-1.62011-1.00781-7.52344-7.01953-7.52344a4.70524,4.70524,0,0,0-1.11523,9.28711l4.60742,1.11573a7.3653,7.3653,0,0,1,5.39941,7.271A7.21648,7.21648,0,0,1,95.61523,206.7251Z" transform="translate(-36 -112.53369)"/>
    <path class="cls-2" d="M113.63574,215.94873a3.92245,3.92245,0,0,1-7.1123.31445,10.62513,10.62513,0,0,1-.94434-5.05615,11.228,11.228,0,0,1,.77637-4.76269,3.846,3.846,0,0,1,3.65039-2.49659,3.89085,3.89085,0,0,1,3.56738,2.34961,14.82669,14.82669,0,0,1,.0625,9.65137Zm-1.1748-9.085c-.39844-2.07666-1.78321-2.45459-2.47559-2.45459-.52441,0-2.09863.189-2.49707,2.68555a28.11731,28.11731,0,0,0-.168,3.86035,28.51843,28.51843,0,0,0,.23145,4.42724c.37695,2.01416,1.61523,2.53858,2.43359,2.53858.94434,0,2.13965-.6294,2.45508-2.62256a40.51248,40.51248,0,0,0,.02051-8.43457Z" transform="translate(-36 -112.53369)"/>
  </g>
  <g>
    <path class="cls-2" d="M295.61523,206.88184a9.01918,9.01918,0,0,1-6.623-2.51954c-1.1875,1.90772-1.2959,2.05127-1.2959,2.05127-.25195.396-.28809.46827-.54.46827-.39551,0-.39551-.252-.39551-.86377v-7.19922c0-.648,0-.8999.46778-.8999a.37475.37475,0,0,1,.43164.35986,7.28479,7.28479,0,0,0,2.23242,5.54346,8.67947,8.67947,0,0,0,5.68652,1.94384,4.93537,4.93537,0,0,0,4.82422-5.14746,5.2576,5.2576,0,0,0-1.11621-3.31152,4.78033,4.78033,0,0,0-3.05957-1.83594c-2.51953-.61181-4.35547-1.04394-4.75195-1.188a6.97313,6.97313,0,0,1,2.30371-13.57031,7.40709,7.40709,0,0,1,5.75976,2.52l1.25977-2.05176c.25195-.43213.28808-.46826.54-.46826.39551,0,.39551.252.39551.86426V188.812c0,.68408,0,.86377-.46778.86377-.39551,0-.39551-.21582-.43164-.43164-.21582-1.62012-1.00781-7.52344-7.01953-7.52344a4.70524,4.70524,0,0,0-1.11523,9.28711l4.60742,1.11573a7.3653,7.3653,0,0,1,5.39941,7.271A7.21649,7.21649,0,0,1,295.61523,206.88184Z" transform="translate(-36 -112.53369)"/>
    <path class="cls-2" d="M310.15332,218.01465c-.83984,0-2.665,0-3.39941.063v-.65039h.67187c1.8877,0,1.95117-.252,1.95117-1.00733V205.55225a6.28555,6.28555,0,0,1-2.749.54541v-.65039a5.18614,5.18614,0,0,0,3.81934-1.34278c.48242,0,.48242.042.48242.54541v11.77c0,.77637.0625,1.00733,1.95117,1.00733h.6709v.65039C312.81738,218.01465,310.99219,218.01465,310.15332,218.01465Z" transform="translate(-36 -112.53369)"/>
  </g>
  <g>
    <path class="cls-2" d="M195.21875,356.88184a9.01744,9.01744,0,0,1-6.62305-2.51954c-1.188,1.90772-1.2959,2.05127-1.2959,2.05127-.25195.396-.28808.46827-.54.46827-.396,0-.396-.252-.396-.86377v-7.19922c0-.64795,0-.8999.46826-.8999a.37493.37493,0,0,1,.43164.35986,7.284,7.284,0,0,0,2.23194,5.54346,8.68135,8.68135,0,0,0,5.687,1.94384,4.93529,4.93529,0,0,0,4.82373-5.14746,5.2576,5.2576,0,0,0-1.11621-3.31152,4.77925,4.77925,0,0,0-3.05957-1.83594c-2.51953-.61181-4.35547-1.04394-4.75147-1.188a6.973,6.973,0,0,1,2.30371-13.57031,7.4059,7.4059,0,0,1,5.75928,2.52l1.26025-2.05176c.252-.43213.2876-.46826.53955-.46826.396,0,.396.25195.396.86426V338.812c0,.68408,0,.86377-.46777.86377-.396,0-.396-.21582-.43213-.43164-.21582-1.62012-1.00781-7.52344-7.019-7.52344a4.70525,4.70525,0,0,0-1.11573,9.28711l4.60742,1.11573a7.36529,7.36529,0,0,1,5.39942,7.271A7.2164,7.2164,0,0,1,195.21875,356.88184Z" transform="translate(-36 -112.53369)"/>
    <path class="cls-2" d="M213.19727,368.07764h-7.78418c0-.50342,0-.54541.23095-.77637l4.02832-4.48975a7.51739,7.51739,0,0,0,2.20313-4.63672c0-1.7207-.90235-3.41992-2.81153-3.41992a3.02586,3.02586,0,0,0-2.83251,2.14014.79928.79928,0,0,1,.27294-.021,1.06149,1.06149,0,0,1,1.11182,1.09082,1.10276,1.10276,0,1,1-2.20312-.063,3.87669,3.87669,0,0,1,3.92382-3.79737,4.1213,4.1213,0,0,1,4.44776,4.07031c0,2.09815-1.25879,3.231-4.53174,6.12647l-2.22412,2.16064h3.77637a6.84858,6.84858,0,0,0,1.99316-.16748,6.90138,6.90138,0,0,0,.46191-1.86767h.52442Z" transform="translate(-36 -112.53369)"/>
  </g>
  <g>
    <path class="cls-3" d="M138,200.5s25.5,13,62.5,13a155.05378,155.05378,0,0,0,59.54666-11.64571" transform="translate(-36 -112.53369)"/>
    <polygon class="cls-2" points="219.44 104.321 216.714 103.063 222.925 89.638 209.08 84.424 210.141 81.615 227.001 87.969 219.44 104.321"/>
  </g>
  <g>
    <line class="cls-3" x1="241.67392" y1="121.65901" x2="184.5" y2="205.96631"/>
    <polygon class="cls-2" points="225.94 123 226.61 125.926 241.025 122.61 243.28 137.231 246.247 136.771 243.498 118.965 225.94 123"/>
  </g>
  <g>
    <line class="cls-3" x1="85.32609" y1="121.65901" x2="142.5" y2="205.96631"/>
    <polygon class="cls-2" points="80.751 136.773 83.718 137.233 85.97 122.614 100.388 125.928 101.058 123.001 83.498 118.968 80.751 136.773"/>
  </g>
  <g>
    <path class="cls-2" d="M193.69043,233.30713a3.92543,3.92543,0,0,1-7.11768.31494,10.63621,10.63621,0,0,1-.94482-5.06006,11.22748,11.22748,0,0,1,.77686-4.76611,3.84906,3.84906,0,0,1,3.65332-2.49854,3.89319,3.89319,0,0,1,3.56933,2.35157,14.83442,14.83442,0,0,1,.063,9.6582Zm-1.17578-9.09131c-.39893-2.07861-1.78467-2.45654-2.47754-2.45654-.5249,0-2.09961.189-2.49854,2.6875a28.16273,28.16273,0,0,0-.168,3.86328,28.62017,28.62017,0,0,0,.231,4.43017c.37793,2.01563,1.6167,2.54053,2.43555,2.54053.94482,0,2.1416-.62988,2.45654-2.62451a40.5251,40.5251,0,0,0,.021-8.44043Z" transform="translate(-36 -112.53369)"/>
    <path class="cls-2" d="M204.50537,220.33154l-7.15967,19.77832c-.063.21-.147.41993-.44091.41993a.42117.42117,0,0,1-.41993-.41993,1.26976,1.26976,0,0,1,.105-.37793l7.15967-19.77832c.063-.21.147-.41992.44092-.41992a.42116.42116,0,0,1,.41992.41992A1.26976,1.26976,0,0,1,204.50537,220.33154Z" transform="translate(-36 -112.53369)"/>
    <path class="cls-2" d="M211.20508,235.21777c-.83985,0-2.66651,0-3.40137.063v-.65088h.67188c1.88964,0,1.95263-.252,1.95263-1.00781v-10.876a6.28827,6.28827,0,0,1-2.75049.5459v-.65088a5.18767,5.18767,0,0,0,3.82129-1.34375c.48291,0,.48291.042.48291.5459v11.77881c0,.77686.063,1.00781,1.95264,1.00781h.67188v.65088C213.87158,235.21777,212.04492,235.21777,211.20508,235.21777Z" transform="translate(-36 -112.53369)"/>
  </g>
  <g>
    <path class="cls-3" d="M87.41027,164.6331q.08913-1.05471.08973-2.1331a25,25,0,1,0-26.081,24.977" transform="translate(-36 -112.53369)"/>
    <polygon class="cls-2" points="13.937 85.239 12.207 82.784 24.309 74.278 14.941 62.829 17.266 60.93 28.673 74.876 13.937 85.239"/>
  </g>
  <g>
    <path class="cls-3" d="M262,192.5s-25.5-13-62.5-13a155.054,155.054,0,0,0-59.54668,11.64571" transform="translate(-36 -112.53369)"/>
    <polygon class="cls-2" points="108.56 63.612 111.286 64.87 105.075 78.294 118.92 83.509 117.859 86.318 100.999 79.964 108.56 63.612"/>
  </g>
  <g>
    <path class="cls-2" d="M190.20508,169.21777c-.83985,0-2.66651,0-3.40137.063v-.65088h.67188c1.88964,0,1.95263-.252,1.95263-1.00781v-10.876a6.28827,6.28827,0,0,1-2.75049.5459v-.65088a5.18767,5.18767,0,0,0,3.82129-1.34375c.48291,0,.48291.042.48291.5459v11.77881c0,.77686.063,1.00781,1.95264,1.00781h.67188v.65088C192.87158,169.21777,191.04492,169.21777,190.20508,169.21777Z" transform="translate(-36 -112.53369)"/>
    <path class="cls-2" d="M204.50537,154.33154l-7.15967,19.77832c-.063.21-.147.41993-.44091.41993a.42117.42117,0,0,1-.41993-.41993,1.26976,1.26976,0,0,1,.105-.37793l7.15967-19.77832c.063-.21.147-.41992.44092-.41992a.42116.42116,0,0,1,.41992.41992A1.26976,1.26976,0,0,1,204.50537,154.33154Z" transform="translate(-36 -112.53369)"/>
    <path class="cls-2" d="M214.69043,167.30713a3.92543,3.92543,0,0,1-7.11768.31494,10.63621,10.63621,0,0,1-.94482-5.06006,11.22748,11.22748,0,0,1,.77686-4.76611,3.84906,3.84906,0,0,1,3.65332-2.49854,3.89319,3.89319,0,0,1,3.56933,2.35157,14.83442,14.83442,0,0,1,.063,9.6582Zm-1.17578-9.09131c-.39893-2.07861-1.78467-2.45654-2.47754-2.45654-.5249,0-2.09961.189-2.49854,2.6875a28.16273,28.16273,0,0,0-.168,3.86328,28.62017,28.62017,0,0,0,.231,4.43017c.37793,2.01563,1.6167,2.54053,2.43555,2.54053.94482,0,2.1416-.62988,2.45654-2.62451a40.5251,40.5251,0,0,0,.021-8.44043Z" transform="translate(-36 -112.53369)"/>
  </g>
  <g>
    <path class="cls-3" d="M312.58972,164.6331q-.08913-1.05471-.08972-2.1331a25,25,0,1,1,26.08105,24.977" transform="translate(-36 -112.53369)"/>
    <polygon class="cls-2" points="310.733 60.927 313.059 62.826 303.69 74.272 315.792 82.781 314.063 85.236 299.326 74.87 310.733 60.927"/>
  </g>
  <g>
    <path class="cls-2" d="M330.63135,126.30713a3.92543,3.92543,0,0,1-7.11768.31494,10.63621,10.63621,0,0,1-.94482-5.06006,11.22763,11.22763,0,0,1,.77685-4.76611,3.84907,3.84907,0,0,1,3.65332-2.49854,3.89319,3.89319,0,0,1,3.56934,2.35157,11.24689,11.24689,0,0,1,.83984,4.91308A11.18542,11.18542,0,0,1,330.63135,126.30713Zm-1.17578-9.09131c-.39893-2.07861-1.78467-2.45654-2.47754-2.45654-.5249,0-2.09961.189-2.49854,2.6875a28.16107,28.16107,0,0,0-.168,3.86328,28.619,28.619,0,0,0,.231,4.43017c.37793,2.01563,1.6167,2.54053,2.43555,2.54053.94482,0,2.1416-.62988,2.45654-2.62451a26.00506,26.00506,0,0,0,.231-4.34619A25.81664,25.81664,0,0,0,329.45557,117.21582Z" transform="translate(-36 -112.53369)"/>
    <path class="cls-2" d="M341.44629,113.33154l-7.15967,19.77832c-.063.21-.147.41993-.44092.41993a.42116.42116,0,0,1-.41992-.41993,1.26976,1.26976,0,0,1,.105-.37793l7.15967-19.77832c.063-.21.147-.41992.44092-.41992a.42116.42116,0,0,1,.41992.41992A1.26976,1.26976,0,0,1,341.44629,113.33154Z" transform="translate(-36 -112.53369)"/>
    <path class="cls-2" d="M351.63135,126.30713a3.92543,3.92543,0,0,1-7.11768.31494,10.63621,10.63621,0,0,1-.94482-5.06006,11.22763,11.22763,0,0,1,.77685-4.76611,3.84907,3.84907,0,0,1,3.65332-2.49854,3.89319,3.89319,0,0,1,3.56934,2.35157,11.24689,11.24689,0,0,1,.83984,4.91308A11.18542,11.18542,0,0,1,351.63135,126.30713Zm-1.17578-9.09131c-.39893-2.07861-1.78467-2.45654-2.47754-2.45654-.5249,0-2.09961.189-2.49854,2.6875a28.16107,28.16107,0,0,0-.168,3.86328,28.619,28.619,0,0,0,.231,4.43017c.37793,2.01563,1.6167,2.54053,2.43555,2.54053.94482,0,2.1416-.62988,2.45654-2.62451a26.00506,26.00506,0,0,0,.231-4.34619A25.81664,25.81664,0,0,0,350.45557,117.21582Z" transform="translate(-36 -112.53369)"/>
  </g>
  <g>
    <path class="cls-2" d="M52.146,128.21777c-.83985,0-2.66651,0-3.40137.063v-.65088h.67187c1.88965,0,1.95264-.25195,1.95264-1.00781v-10.876a6.28831,6.28831,0,0,1-2.75049.5459v-.65088a5.18768,5.18768,0,0,0,3.82129-1.34375c.48291,0,.48291.042.48291.5459v11.77881c0,.77686.063,1.00781,1.95264,1.00781h.67187v.65088C54.8125,128.21777,52.98584,128.21777,52.146,128.21777Z" transform="translate(-36 -112.53369)"/>
    <path class="cls-2" d="M66.44629,113.33154l-7.15967,19.77832c-.063.21-.147.41993-.44092.41993a.42116.42116,0,0,1-.41992-.41993,1.26976,1.26976,0,0,1,.105-.37793l7.15967-19.77832c.063-.21.147-.41992.44092-.41992a.42116.42116,0,0,1,.41992.41992A1.26976,1.26976,0,0,1,66.44629,113.33154Z" transform="translate(-36 -112.53369)"/>
    <path class="cls-2" d="M73.146,128.21777c-.83985,0-2.66651,0-3.40137.063v-.65088h.67187c1.88965,0,1.95264-.25195,1.95264-1.00781v-10.876a6.28831,6.28831,0,0,1-2.75049.5459v-.65088a5.18768,5.18768,0,0,0,3.82129-1.34375c.48291,0,.48291.042.48291.5459v11.77881c0,.77686.063,1.00781,1.95264,1.00781h.67187v.65088C75.8125,128.21777,73.98584,128.21777,73.146,128.21777Z" transform="translate(-36 -112.53369)"/>
  </g>
  <g>
    <path class="cls-2" d="M114.646,294.72754c-.83985,0-2.66651,0-3.40137.06348v-.65137h.67187c1.88965,0,1.95264-.252,1.95264-1.00781v-10.876a6.28831,6.28831,0,0,1-2.75049.5459v-.65039a5.18768,5.18768,0,0,0,3.82129-1.34375c.48291,0,.48291.042.48291.5459v11.77832c0,.77734.063,1.00781,1.95264,1.00781h.67187v.65137C117.3125,294.72754,115.48584,294.72754,114.646,294.72754Z" transform="translate(-36 -112.53369)"/>
    <path class="cls-2" d="M128.94629,279.8418l-7.15967,19.77832c-.063.21-.147.41992-.44092.41992a.42147.42147,0,0,1-.41992-.41992,1.26576,1.26576,0,0,1,.105-.37793l7.15967-19.77832c.063-.21.147-.41992.44092-.41992a.42084.42084,0,0,1,.41992.41992A1.2738,1.2738,0,0,1,128.94629,279.8418Z" transform="translate(-36 -112.53369)"/>
    <path class="cls-2" d="M139.13135,292.81738a3.92524,3.92524,0,0,1-7.11768.31446,10.63539,10.63539,0,0,1-.94482-5.05957,11.23119,11.23119,0,0,1,.77685-4.76661,3.84926,3.84926,0,0,1,3.65332-2.498,3.89318,3.89318,0,0,1,3.56934,2.35156,14.83459,14.83459,0,0,1,.063,9.6582Zm-1.17578-9.09179c-.39893-2.07813-1.78467-2.45606-2.47754-2.45606-.5249,0-2.09961.18848-2.49854,2.6875a28.16107,28.16107,0,0,0-.168,3.86328,28.616,28.616,0,0,0,.231,4.42969c.37793,2.01563,1.6167,2.541,2.43555,2.541.94482,0,2.1416-.62989,2.45654-2.625a40.52515,40.52515,0,0,0,.021-8.44043Z" transform="translate(-36 -112.53369)"/>
  </g>
  <g>
    <path class="cls-2" d="M268.13135,292.81738a3.92524,3.92524,0,0,1-7.11768.31446,10.63539,10.63539,0,0,1-.94482-5.05957,11.23119,11.23119,0,0,1,.77685-4.76661,3.84926,3.84926,0,0,1,3.65332-2.498,3.89318,3.89318,0,0,1,3.56934,2.35156,14.83459,14.83459,0,0,1,.063,9.6582Zm-1.17578-9.09179c-.39893-2.07813-1.78467-2.45606-2.47754-2.45606-.5249,0-2.09961.18848-2.49854,2.6875a28.16107,28.16107,0,0,0-.168,3.86328,28.616,28.616,0,0,0,.231,4.42969c.37793,2.01563,1.6167,2.541,2.43555,2.541.94482,0,2.1416-.62989,2.45654-2.625a40.52515,40.52515,0,0,0,.021-8.44043Z" transform="translate(-36 -112.53369)"/>
    <path class="cls-2" d="M278.94629,279.8418l-7.15967,19.77832c-.063.21-.147.41992-.44092.41992a.42147.42147,0,0,1-.41992-.41992,1.26576,1.26576,0,0,1,.105-.37793l7.15967-19.77832c.063-.21.147-.41992.44092-.41992a.42084.42084,0,0,1,.41992.41992A1.2738,1.2738,0,0,1,278.94629,279.8418Z" transform="translate(-36 -112.53369)"/>
    <path class="cls-2" d="M289.13135,292.81738a3.92524,3.92524,0,0,1-7.11768.31446,10.63539,10.63539,0,0,1-.94482-5.05957,11.23119,11.23119,0,0,1,.77685-4.76661,3.84926,3.84926,0,0,1,3.65332-2.498,3.89318,3.89318,0,0,1,3.56934,2.35156,14.83459,14.83459,0,0,1,.063,9.6582Zm-1.17578-9.09179c-.39893-2.07813-1.78467-2.45606-2.47754-2.45606-.5249,0-2.09961.18848-2.49854,2.6875a28.16107,28.16107,0,0,0-.168,3.86328,28.616,28.616,0,0,0,.231,4.42969c.37793,2.01563,1.6167,2.541,2.43555,2.541.94482,0,2.1416-.62989,2.45654-2.625a40.52515,40.52515,0,0,0,.021-8.44043Z" transform="translate(-36 -112.53369)"/>
  </g>
</svg>
