<?xml version="1.0" encoding="utf-8"?>
<!-- Generator: Adobe Illustrator 23.0.3, SVG Export Plug-In . SVG Version: 6.00 Build 0)  -->
<svg version="1.1" id="Layer_1" xmlns="http://www.w3.org/2000/svg" xmlns:xlink="http://www.w3.org/1999/xlink" x="0px" y="0px"
	 viewBox="0 0 328 276" style="enable-background:new 0 0 328 276;" xml:space="preserve">
<style type="text/css">
	.st0{fill:none;stroke:#8FF4DD;stroke-width:2;stroke-miterlimit:10;}
	.st1{fill:#8FF4DD;}
	.st2{fill:none;stroke:#8FF4DD;stroke-width:3;stroke-miterlimit:10;}
</style>
<title>MealyStateDiagram</title>
<path class="st0" d="M101.5,87.5c0,20.7-16.8,37.5-37.5,37.5s-37.5-16.8-37.5-37.5S43.3,50,64,50l0,0c20.6-0.1,37.4,16.6,37.5,37.3
	C101.5,87.3,101.5,87.4,101.5,87.5z"/>
<path class="st0" d="M301.5,87.5c0,20.7-16.8,37.5-37.5,37.5s-37.5-16.8-37.5-37.5S243.3,50,264,50l0,0
	c20.6-0.1,37.4,16.6,37.5,37.3C301.5,87.3,301.5,87.4,301.5,87.5z"/>
<path class="st0" d="M201.5,237.5c0,20.7-16.8,37.5-37.5,37.5s-37.5-16.8-37.5-37.5S143.3,200,164,200c20.6-0.1,37.4,16.6,37.5,37.3
	C201.5,237.3,201.5,237.4,201.5,237.5z"/>
<g>
	<path class="st1" d="M59.6,94.2c-2.5,0.1-4.9-0.8-6.6-2.5c-1.2,1.9-1.3,2.1-1.3,2.1c-0.3,0.4-0.3,0.5-0.5,0.5
		c-0.4,0-0.4-0.3-0.4-0.9v-7.2c0-0.6,0-0.9,0.5-0.9c0.2,0,0.4,0.1,0.4,0.3c0,0,0,0,0,0c-0.1,2.1,0.7,4.1,2.2,5.5
		c1.6,1.3,3.6,2,5.7,1.9c2.7-0.1,4.9-2.3,4.8-5c0,0,0-0.1,0-0.1c0-1.2-0.4-2.4-1.1-3.3c-0.7-1-1.8-1.6-3.1-1.8
		c-2.5-0.6-4.4-1-4.8-1.2c-3.6-1.2-5.6-5.2-4.3-8.9c1-2.8,3.6-4.7,6.6-4.7c2.2-0.1,4.3,0.9,5.8,2.5l1.3-2.1c0.3-0.4,0.3-0.5,0.5-0.5
		c0.4,0,0.4,0.3,0.4,0.9v7.2c0,0.7,0,0.9-0.5,0.9c-0.4,0-0.4-0.2-0.4-0.4c-0.2-1.6-1-7.5-7-7.5c-2.6,0-4.7,2.1-4.8,4.7
		c0,2.2,1.5,4.1,3.6,4.6l4.6,1.1c3.3,0.9,5.5,3.9,5.4,7.3c0.2,4-3,7.3-6.9,7.5C59.7,94.2,59.7,94.2,59.6,94.2z"/>
	<path class="st1" d="M77.6,103.4c-0.8,2-3.1,3-5.1,2.1c-0.9-0.4-1.6-1-2-1.8c-0.7-1.6-1-3.3-0.9-5.1c-0.1-1.6,0.2-3.3,0.8-4.8
		c0.6-1.5,2-2.5,3.7-2.5c1.6,0,3,0.9,3.6,2.3C78.7,96.9,78.7,100.3,77.6,103.4L77.6,103.4z M76.5,94.3c-0.4-2.1-1.8-2.5-2.5-2.5
		c-0.5,0-2.1,0.2-2.5,2.7c-0.1,1.3-0.2,2.6-0.2,3.9c0,1.5,0,3,0.2,4.4c0.4,2,1.6,2.5,2.4,2.5c0.9,0,2.1-0.6,2.5-2.6
		C76.7,100,76.7,97.1,76.5,94.3L76.5,94.3z"/>
</g>
<g>
	<path class="st1" d="M259.6,94.3c-2.5,0.1-4.9-0.8-6.6-2.5c-1.2,1.9-1.3,2.1-1.3,2.1c-0.3,0.4-0.3,0.5-0.5,0.5
		c-0.4,0-0.4-0.3-0.4-0.9v-7.2c0-0.6,0-0.9,0.5-0.9c0.2,0,0.4,0.1,0.4,0.3c0,0,0,0,0,0c-0.1,2.1,0.7,4.1,2.2,5.5
		c1.6,1.3,3.6,2,5.7,1.9c2.7-0.1,4.9-2.3,4.8-5c0,0,0-0.1,0-0.1c0-1.2-0.4-2.4-1.1-3.3c-0.7-1-1.8-1.6-3.1-1.8
		c-2.5-0.6-4.4-1-4.8-1.2c-3.6-1.2-5.6-5.2-4.3-8.9c1-2.8,3.6-4.7,6.6-4.7c2.2-0.1,4.3,0.9,5.8,2.5l1.3-2.1c0.3-0.4,0.3-0.5,0.5-0.5
		c0.4,0,0.4,0.3,0.4,0.9v7.2c0,0.7,0,0.9-0.5,0.9c-0.4,0-0.4-0.2-0.4-0.4c-0.2-1.6-1-7.5-7-7.5c-2.6,0-4.7,2.1-4.8,4.7
		c0,2.2,1.5,4.1,3.6,4.6l4.6,1.1c3.3,0.9,5.5,3.9,5.4,7.3c0.2,4-3,7.3-6.9,7.5C259.7,94.3,259.7,94.3,259.6,94.3z"/>
	<path class="st1" d="M274.2,105.5c-0.8,0-2.7,0-3.4,0.1v-0.7h0.7c1.9,0,2-0.3,2-1V93c-0.9,0.4-1.8,0.6-2.7,0.5v-0.7
		c1.4,0.1,2.8-0.4,3.8-1.3c0.5,0,0.5,0,0.5,0.5v11.8c0,0.8,0.1,1,2,1h0.7v0.7C276.8,105.5,275,105.5,274.2,105.5z"/>
</g>
<g>
	<path class="st1" d="M159.2,244.3c-2.5,0.1-4.9-0.8-6.6-2.5c-1.2,1.9-1.3,2.1-1.3,2.1c-0.3,0.4-0.3,0.5-0.5,0.5
		c-0.4,0-0.4-0.3-0.4-0.9v-7.2c0-0.6,0-0.9,0.5-0.9c0.2,0,0.4,0.1,0.4,0.3c0,0,0,0,0,0c-0.1,2.1,0.7,4.1,2.2,5.5
		c1.6,1.3,3.6,2,5.7,1.9c2.7-0.1,4.9-2.3,4.8-5c0,0,0-0.1,0-0.1c0-1.2-0.4-2.4-1.1-3.3c-0.7-1-1.8-1.6-3.1-1.8
		c-2.5-0.6-4.4-1-4.8-1.2c-3.6-1.2-5.6-5.2-4.3-8.9c1-2.8,3.6-4.7,6.6-4.7c2.2-0.1,4.3,0.9,5.8,2.5l1.3-2.1c0.3-0.4,0.3-0.5,0.5-0.5
		c0.4,0,0.4,0.3,0.4,0.9v7.2c0,0.7,0,0.9-0.5,0.9c-0.4,0-0.4-0.2-0.4-0.4c-0.2-1.6-1-7.5-7-7.5c-2.6,0-4.7,2.1-4.8,4.7
		c0,2.2,1.5,4.1,3.6,4.6l4.6,1.1c3.3,0.9,5.5,3.9,5.4,7.3c0.2,4-3,7.3-6.9,7.5C159.3,244.3,159.3,244.3,159.2,244.3z"/>
	<path class="st1" d="M177.2,255.5h-7.8c0-0.5,0-0.5,0.2-0.8l4-4.5c1.3-1.2,2-2.9,2.2-4.6c0-1.7-0.9-3.4-2.8-3.4
		c-1.3,0-2.4,0.9-2.8,2.1c0.1,0,0.2,0,0.3,0c0.6,0,1.1,0.4,1.1,1c0,0,0,0.1,0,0.1c0,0.6-0.5,1.1-1.1,1.1c-0.6,0-1.1-0.5-1.1-1.1
		c0,0,0-0.1,0-0.1c0-2.1,1.8-3.8,3.9-3.8c2.3-0.2,4.3,1.5,4.4,3.8c0,0.1,0,0.2,0,0.3c0,2.1-1.3,3.2-4.5,6.1l-2.2,2.2h3.8
		c0.7,0,1.3,0,2-0.2c0.2-0.6,0.4-1.2,0.5-1.9h0.5L177.2,255.5z"/>
</g>
<g>
	<path class="st2" d="M101.5,88c0,0,25.5,13,62.5,13c20.4,0.1,40.7-3.9,59.5-11.6"/>
	<polygon class="st1" points="218.9,104.3 216.2,103.1 222.4,89.6 208.6,84.4 209.6,81.6 226.5,88 	"/>
</g>
<g>
	<line class="st2" x1="241.7" y1="121.7" x2="184.5" y2="206"/>
	<polygon class="st1" points="225.9,123 226.6,125.9 241,122.6 243.3,137.2 246.2,136.8 243.5,119 	"/>
</g>
<g>
	<line class="st2" x1="85.3" y1="121.7" x2="142.5" y2="206"/>
	<polygon class="st1" points="80.8,136.8 83.7,137.2 86,122.6 100.4,125.9 101.1,123 83.5,119 	"/>
</g>
<g>
	<path class="st1" d="M157.7,120.8c-0.8,2-3.1,3-5.1,2.1c-0.9-0.4-1.6-1-2-1.8c-0.7-1.6-1-3.3-0.9-5.1c-0.1-1.6,0.2-3.3,0.8-4.8
		c0.6-1.5,2-2.5,3.7-2.5c1.6,0,3,0.9,3.6,2.4C158.7,114.2,158.7,117.6,157.7,120.8L157.7,120.8z M156.5,111.7
		c-0.4-2.1-1.8-2.5-2.5-2.5c-0.5,0-2.1,0.2-2.5,2.7c-0.1,1.3-0.2,2.6-0.2,3.9c0,1.5,0,3,0.2,4.4c0.4,2,1.6,2.5,2.4,2.5
		c0.9,0,2.1-0.6,2.5-2.6C156.8,117.3,156.8,114.5,156.5,111.7L156.5,111.7z"/>
	<path class="st1" d="M168.5,107.8l-7.2,19.8c-0.1,0.2-0.1,0.4-0.4,0.4c-0.2,0-0.4-0.2-0.4-0.4c0-0.1,0.1-0.3,0.1-0.4l7.2-19.8
		c0.1-0.2,0.1-0.4,0.4-0.4c0.2,0,0.4,0.2,0.4,0.4C168.6,107.6,168.6,107.7,168.5,107.8z"/>
	<path class="st1" d="M175.2,122.7c-0.8,0-2.7,0-3.4,0.1v-0.7h0.7c1.9,0,2-0.3,2-1v-10.9c-0.9,0.4-1.8,0.6-2.8,0.5v-0.7
		c1.4,0.1,2.8-0.4,3.8-1.3c0.5,0,0.5,0,0.5,0.5v11.8c0,0.8,0.1,1,2,1h0.7v0.7C177.9,122.7,176,122.7,175.2,122.7z"/>
</g>
<g>
	<path class="st2" d="M51.4,52.1c0.1-0.7,0.1-1.4,0.1-2.1c0-13.8-11.2-25-25-25s-25,11.2-25,25c0,13.4,10.5,24.4,23.9,25"/>
	<polygon class="st1" points="13.9,85.2 12.2,82.8 24.3,74.3 14.9,62.8 17.3,60.9 28.7,74.9 	"/>
</g>
<g>
	<path class="st2" d="M227,80c0,0-25.7-13.1-63-13.1c-20.6-0.1-41,3.9-60,11.7"/>
	<polygon class="st1" points="108.6,63.5 111.4,64.8 105.1,78.3 119.1,83.6 118,86.4 101,80 	"/>
</g>
<g>
	<path class="st1" d="M154.2,56.7c-0.8,0-2.7,0-3.4,0.1v-0.7h0.7c1.9,0,2-0.3,2-1V44.2c-0.9,0.4-1.8,0.6-2.8,0.5v-0.7
		c1.4,0.1,2.8-0.4,3.8-1.3c0.5,0,0.5,0,0.5,0.5v11.8c0,0.8,0.1,1,2,1h0.7v0.7C156.9,56.7,155,56.7,154.2,56.7z"/>
	<path class="st1" d="M168.5,41.8l-7.2,19.8c-0.1,0.2-0.1,0.4-0.4,0.4c-0.2,0-0.4-0.2-0.4-0.4c0-0.1,0.1-0.3,0.1-0.4l7.2-19.8
		c0.1-0.2,0.1-0.4,0.4-0.4c0.2,0,0.4,0.2,0.4,0.4C168.6,41.6,168.6,41.7,168.5,41.8z"/>
	<path class="st1" d="M178.7,54.8c-0.8,2-3.1,3-5.1,2.1c-0.9-0.4-1.6-1-2-1.8c-0.7-1.6-1-3.3-0.9-5.1c-0.1-1.6,0.2-3.3,0.8-4.8
		c0.6-1.5,2-2.5,3.7-2.5c1.6,0,3,0.9,3.6,2.4C179.7,48.2,179.7,51.6,178.7,54.8L178.7,54.8z M177.5,45.7c-0.4-2.1-1.8-2.5-2.5-2.5
		c-0.5,0-2.1,0.2-2.5,2.7c-0.1,1.3-0.2,2.6-0.2,3.9c0,1.5,0,3,0.2,4.4c0.4,2,1.6,2.5,2.4,2.5c0.9,0,2.1-0.6,2.5-2.6
		C177.8,51.3,177.8,48.5,177.5,45.7L177.5,45.7z"/>
</g>
<g>
	<path class="st2" d="M276.6,52.1c-0.1-0.7-0.1-1.4-0.1-2.1c0-13.8,11.2-25,25-25c13.8,0,25,11.2,25,25c0,13.4-10.5,24.4-23.9,25"/>
	<polygon class="st1" points="310.7,60.9 313.1,62.8 303.7,74.3 315.8,82.8 314.1,85.2 299.3,74.9 	"/>
</g>
<g>
	<path class="st1" d="M294.6,13.8c-0.8,2-3.1,3-5.1,2.1c-0.9-0.4-1.6-1-2-1.8c-0.7-1.6-1-3.3-0.9-5.1c-0.1-1.6,0.2-3.3,0.8-4.8
		c0.6-1.5,2-2.5,3.7-2.5c1.6,0,3,0.9,3.6,2.4c0.6,1.6,0.9,3.2,0.8,4.9C295.5,10.6,295.2,12.3,294.6,13.8z M293.5,4.7
		c-0.4-2.1-1.8-2.5-2.5-2.5c-0.5,0-2.1,0.2-2.5,2.7c-0.1,1.3-0.2,2.6-0.2,3.9c0,1.5,0,3,0.2,4.4c0.4,2,1.6,2.5,2.4,2.5
		c0.9,0,2.1-0.6,2.5-2.6c0.2-1.4,0.3-2.9,0.2-4.3C293.7,7.4,293.6,6,293.5,4.7z"/>
	<path class="st1" d="M305.4,0.8l-7.2,19.8c-0.1,0.2-0.1,0.4-0.4,0.4c-0.2,0-0.4-0.2-0.4-0.4c0-0.1,0.1-0.3,0.1-0.4l7.2-19.8
		c0.1-0.2,0.1-0.4,0.4-0.4c0.2,0,0.4,0.2,0.4,0.4C305.5,0.6,305.5,0.7,305.4,0.8z"/>
	<path class="st1" d="M315.6,13.8c-0.8,2-3.1,3-5.1,2.1c-0.9-0.4-1.6-1-2-1.8c-0.7-1.6-1-3.3-0.9-5.1c-0.1-1.6,0.2-3.3,0.8-4.8
		c0.6-1.5,2-2.5,3.7-2.5c1.6,0,3,0.9,3.6,2.4c0.6,1.6,0.9,3.2,0.8,4.9C316.5,10.6,316.2,12.3,315.6,13.8z M314.5,4.7
		c-0.4-2.1-1.8-2.5-2.5-2.5c-0.5,0-2.1,0.2-2.5,2.7c-0.1,1.3-0.2,2.6-0.2,3.9c0,1.5,0,3,0.2,4.4c0.4,2,1.6,2.5,2.4,2.5
		c0.9,0,2.1-0.6,2.5-2.6c0.2-1.4,0.3-2.9,0.2-4.3C314.7,7.4,314.6,6,314.5,4.7z"/>
</g>
<g>
	<path class="st1" d="M16.1,15.7c-0.8,0-2.7,0-3.4,0.1v-0.7h0.7c1.9,0,2-0.3,2-1V3.2c-0.9,0.4-1.8,0.6-2.8,0.5V3.1
		c1.4,0.1,2.8-0.4,3.8-1.3c0.5,0,0.5,0,0.5,0.5v11.8c0,0.8,0.1,1,2,1h0.7v0.7C18.8,15.7,17,15.7,16.1,15.7z"/>
	<path class="st1" d="M30.4,0.8l-7.2,19.8c-0.1,0.2-0.1,0.4-0.4,0.4c-0.2,0-0.4-0.2-0.4-0.4c0-0.1,0.1-0.3,0.1-0.4l7.2-19.8
		C29.8,0.2,29.8,0,30.1,0c0.2,0,0.4,0.2,0.4,0.4C30.5,0.6,30.5,0.7,30.4,0.8z"/>
	<path class="st1" d="M37.1,15.7c-0.8,0-2.7,0-3.4,0.1v-0.7h0.7c1.9,0,2-0.3,2-1V3.2c-0.9,0.4-1.8,0.6-2.8,0.5V3.1
		c1.4,0.1,2.8-0.4,3.8-1.3c0.5,0,0.5,0,0.5,0.5v11.8c0,0.8,0.1,1,2,1h0.7v0.7C39.8,15.7,38,15.7,37.1,15.7z"/>
</g>
<g>
	<path class="st1" d="M78.6,182.2c-0.8,0-2.7,0-3.4,0.1v-0.7h0.7c1.9,0,2-0.3,2-1v-10.9c-0.9,0.4-1.8,0.6-2.8,0.5v-0.7
		c1.4,0.1,2.8-0.4,3.8-1.3c0.5,0,0.5,0,0.5,0.5v11.8c0,0.8,0.1,1,2,1H82v0.7C81.3,182.2,79.5,182.2,78.6,182.2z"/>
	<path class="st1" d="M92.9,167.3l-7.2,19.8c-0.1,0.2-0.1,0.4-0.4,0.4c-0.2,0-0.4-0.2-0.4-0.4c0-0.1,0.1-0.3,0.1-0.4l7.2-19.8
		c0.1-0.2,0.1-0.4,0.4-0.4c0.2,0,0.4,0.2,0.4,0.4C93,167.1,93,167.2,92.9,167.3z"/>
	<path class="st1" d="M103.1,180.3c-0.8,2-3.1,3-5.1,2.1c-0.9-0.4-1.6-1-2-1.8c-0.7-1.6-1-3.3-0.9-5.1c-0.1-1.6,0.2-3.3,0.8-4.8
		c0.6-1.5,2-2.5,3.7-2.5c1.6,0,3,0.9,3.6,2.4C104.2,173.7,104.2,177.1,103.1,180.3L103.1,180.3z M102,171.2
		c-0.4-2.1-1.8-2.5-2.5-2.5c-0.5,0-2.1,0.2-2.5,2.7c-0.1,1.3-0.2,2.6-0.2,3.9c0,1.5,0,3,0.2,4.4c0.4,2,1.6,2.5,2.4,2.5
		c0.9,0,2.1-0.6,2.5-2.6C102.2,176.8,102.2,174,102,171.2L102,171.2z"/>
</g>
<g>
	<path class="st1" d="M232.1,180.3c-0.8,2-3.1,3-5.1,2.1c-0.9-0.4-1.6-1-2-1.8c-0.7-1.6-1-3.3-0.9-5.1c-0.1-1.6,0.2-3.3,0.8-4.8
		c0.6-1.5,2-2.5,3.7-2.5c1.6,0,3,0.9,3.6,2.4C233.2,173.7,233.2,177.1,232.1,180.3L232.1,180.3z M231,171.2
		c-0.4-2.1-1.8-2.5-2.5-2.5c-0.5,0-2.1,0.2-2.5,2.7c-0.1,1.3-0.2,2.6-0.2,3.9c0,1.5,0,3,0.2,4.4c0.4,2,1.6,2.5,2.4,2.5
		c0.9,0,2.1-0.6,2.5-2.6C231.2,176.8,231.2,174,231,171.2L231,171.2z"/>
	<path class="st1" d="M242.9,167.3l-7.2,19.8c-0.1,0.2-0.1,0.4-0.4,0.4c-0.2,0-0.4-0.2-0.4-0.4c0-0.1,0.1-0.3,0.1-0.4l7.2-19.8
		c0.1-0.2,0.1-0.4,0.4-0.4c0.2,0,0.4,0.2,0.4,0.4C243,167.1,243,167.2,242.9,167.3z"/>
	<path class="st1" d="M253.1,180.3c-0.8,2-3.1,3-5.1,2.1c-0.9-0.4-1.6-1-2-1.8c-0.7-1.6-1-3.3-0.9-5.1c-0.1-1.6,0.2-3.3,0.8-4.8
		c0.6-1.5,2-2.5,3.7-2.5c1.6,0,3,0.9,3.6,2.4C254.2,173.7,254.2,177.1,253.1,180.3L253.1,180.3z M252,171.2
		c-0.4-2.1-1.8-2.5-2.5-2.5c-0.5,0-2.1,0.2-2.5,2.7c-0.1,1.3-0.2,2.6-0.2,3.9c0,1.5,0,3,0.2,4.4c0.4,2,1.6,2.5,2.4,2.5
		c0.9,0,2.1-0.6,2.5-2.6C252.2,176.8,252.2,174,252,171.2L252,171.2z"/>
</g>
</svg>
