<svg id="Layer_1" data-name="Layer 1" xmlns="http://www.w3.org/2000/svg" viewBox="0 0 490.29639 77">
  <defs>
    <style>
      .cls-1 {
        fill: none;
        stroke: #8ff4dd;
        stroke-miterlimit: 10;
        stroke-width: 2px;
      }

      .cls-2 {
        fill: #8ff4dd;
      }
    </style>
  </defs>
  <title>MooreModel</title>
  <rect class="cls-1" x="91.7876" y="1" width="100" height="50"/>
  <g>
    <g>
      <path class="cls-2" d="M110.5083,79.01465a3.10089,3.10089,0,0,1-3.01172-3.18018,3.13936,3.13936,0,0,1,3.04-3.24951c1.07861,0,2.14307.54639,2.14307,1.499a.6446.6446,0,1,1-1.28906.01368.63242.63242,0,0,1,.65869-.64405,2.28442,2.28442,0,0,0-1.499-.51855c-.74218,0-1.89111.58838-1.89111,2.87158,0,2.25537,1.23291,2.85742,1.9751,2.85742a1.82886,1.82886,0,0,0,1.835-1.4707c.02832-.084.05615-.14014.18213-.14014.042,0,.18213,0,.18213.14014A2.305,2.305,0,0,1,110.5083,79.01465Z" transform="translate(-8.2124 -49)"/>
      <path class="cls-2" d="M116.72412,79.01465a3.12694,3.12694,0,0,1-3.0957-3.15186,3.10745,3.10745,0,1,1,6.20556,0A3.12128,3.12128,0,0,1,116.72412,79.01465Zm1.583-5.21094a1.83564,1.83564,0,0,0-1.583-.91064,1.87994,1.87994,0,0,0-1.59668.93847,4.01391,4.01391,0,0,0-.33642,1.91895,4.16361,4.16361,0,0,0,.35058,1.9751,1.82913,1.82913,0,0,0,1.59668.93847,1.808,1.808,0,0,0,1.625-1.03662,4.2549,4.2549,0,0,0,.30811-1.877A3.84281,3.84281,0,0,0,118.30713,73.80371Z" transform="translate(-8.2124 -49)"/>
      <path class="cls-2" d="M130.05566,78.81836l-1.583.042v-.43408c.93847,0,1.09277,0,1.09277-.63037V74.53223c0-.79883-.1543-1.55518-1.03662-1.55518a2.04594,2.04594,0,0,0-1.89111,2.24121V77.7959c0,.63037.15429.63037,1.09277.63037v.43408l-1.56885-.042-1.583.042v-.43408c.93848,0,1.09278,0,1.09278-.63037V74.53223c0-.79883-.1543-1.55518-1.03662-1.55518a2.046,2.046,0,0,0-1.89112,2.24121V77.7959c0,.63037.1543.63037,1.09278.63037v.43408l-1.56885-.042-1.583.042v-.43408c.93848,0,1.09277,0,1.09277-.63037V74.0415c0-.686-.1123-.78418-1.09277-.78418v-.43408l1.9751-.15429v1.4707a2.20822,2.20822,0,0,1,2.07324-1.4707,1.65823,1.65823,0,0,1,1.86279,1.37255A2.21679,2.21679,0,0,1,128.627,72.669a1.867,1.867,0,0,1,1.47071.51855c.43408.50391.43408.93848.43408,2.14307v2.67529c.01416.42041.36426.42041,1.09277.42041v.43408Z" transform="translate(-8.2124 -49)"/>
      <path class="cls-2" d="M135.68066,79.01465a2.20176,2.20176,0,0,1-1.835-1.023l-.50439.86865h-.3501V70.51172c0-.686-.1123-.78418-1.09277-.78418V69.293l2.01709-.15381v4.44043a2.488,2.488,0,0,1,1.91894-.91064,3.08082,3.08082,0,0,1,2.96973,3.16552A3.15688,3.15688,0,0,1,135.68066,79.01465Zm1.55469-5.14111a1.741,1.741,0,0,0-1.4707-.89649,2.02283,2.02283,0,0,0-1.65283.89649.61017.61017,0,0,0-.1543.50439v2.88574a.76427.76427,0,0,0,.19629.58838,1.72969,1.72969,0,0,0,1.4707.854,1.92511,1.92511,0,0,0,1.583-.89648,4.82035,4.82035,0,0,0,.02783-3.936Z" transform="translate(-8.2124 -49)"/>
      <path class="cls-2" d="M141.293,78.81836l-1.54053.042v-.43408c.93848,0,1.09229,0,1.09229-.63037V74.02783c0-.68652-.126-.77051-1.03662-.77051v-.43408l1.96142-.15429v5.14062c0,.54639.05567.6167.98047.6167v.43408C142.27344,78.84619,141.7832,78.81836,141.293,78.81836Zm-.06983-7.67627a.74249.74249,0,1,1,.75635-.74219A.749.749,0,0,1,141.22314,71.14209Z" transform="translate(-8.2124 -49)"/>
      <path class="cls-2" d="M149.10742,78.81836l-1.583.042v-.43408c.93848,0,1.09278,0,1.09278-.63037V74.53223c0-.79883-.1543-1.55518-1.03662-1.55518a2.046,2.046,0,0,0-1.89112,2.24121V77.7959c0,.63037.1543.63037,1.09278.63037v.43408l-1.56885-.042-1.583.042v-.43408c.93848,0,1.09277,0,1.09277-.63037V74.0415c0-.686-.1123-.78418-1.09277-.78418v-.43408l1.9751-.15429v1.4707a2.2087,2.2087,0,0,1,2.07324-1.4707,1.86691,1.86691,0,0,1,1.4707.51855c.43409.50391.43409.93848.43409,2.14307v2.67529c.01416.42041.36425.42041,1.09277.42041v.43408Z" transform="translate(-8.2124 -49)"/>
      <path class="cls-2" d="M156.5835,78.94434a1.1726,1.1726,0,0,1-1.09278-1.14844,1.938,1.938,0,0,1-1.835,1.21875c-.88232,0-2.24121-.35059-2.24121-1.48486a2.041,2.041,0,0,1,1.40088-1.82129,6.81956,6.81956,0,0,1,2.57715-.50391V74.686a1.58632,1.58632,0,0,0-1.48487-1.793,1.96778,1.96778,0,0,0-1.51269.64453c.64453.01367.71436.47607.71436.644a.64436.64436,0,1,1-1.28858-.01367c0-.92481.96631-1.583,2.11524-1.583a2.67443,2.67443,0,0,1,1.91894.77051,2.07127,2.07127,0,0,1,.5044,1.65283v2.80127c0,.07031.05566.70068.51806.70068.1543,0,.5044-.084.5044-.89648V76.8291h.35009v.78467A1.18908,1.18908,0,0,1,156.5835,78.94434Zm-1.19092-3.4458c-2.311.084-2.89942,1.24658-2.89942,2.01709a1.206,1.206,0,0,0,1.26075,1.19042,1.68212,1.68212,0,0,0,1.63867-1.80664Z" transform="translate(-8.2124 -49)"/>
      <path class="cls-2" d="M161.23,79.01465a1.69507,1.69507,0,0,1-1.80713-1.89111V73.25732h-1.19043v-.3081c1.37256-.05615,1.793-1.55469,1.80713-2.70361h.3501v2.57763h2.00293v.43408h-2.00293v3.894c0,.23828,0,1.51269.93848,1.51269.51806,0,.93847-.53222.93847-1.56885v-.77h.3501v.79834C162.6167,78.02,162.22461,79.01465,161.23,79.01465Z" transform="translate(-8.2124 -49)"/>
      <path class="cls-2" d="M165.415,78.81836l-1.54053.042v-.43408c.93848,0,1.09229,0,1.09229-.63037V74.02783c0-.68652-.126-.77051-1.03662-.77051v-.43408l1.96142-.15429v5.14062c0,.54639.05567.6167.98047.6167v.43408C166.39551,78.84619,165.90527,78.81836,165.415,78.81836Zm-.06983-7.67627a.74249.74249,0,1,1,.75635-.74219A.749.749,0,0,1,165.34521,71.14209Z" transform="translate(-8.2124 -49)"/>
      <path class="cls-2" d="M170.792,79.01465a3.12694,3.12694,0,0,1-3.0957-3.15186,3.10746,3.10746,0,1,1,6.20557,0A3.12129,3.12129,0,0,1,170.792,79.01465Zm1.583-5.21094a1.83564,1.83564,0,0,0-1.583-.91064,1.87994,1.87994,0,0,0-1.59668.93847,4.01391,4.01391,0,0,0-.33642,1.91895,4.16878,4.16878,0,0,0,.35009,1.9751,1.83043,1.83043,0,0,0,1.59717.93847,1.80746,1.80746,0,0,0,1.625-1.03662,4.2549,4.2549,0,0,0,.30811-1.877A3.84281,3.84281,0,0,0,172.375,73.80371Z" transform="translate(-8.2124 -49)"/>
      <path class="cls-2" d="M180.22949,78.81836l-1.583.042v-.43408c.93848,0,1.09278,0,1.09278-.63037V74.53223c0-.79883-.1543-1.55518-1.03662-1.55518a2.046,2.046,0,0,0-1.89112,2.24121V77.7959c0,.63037.1543.63037,1.09278.63037v.43408l-1.56885-.042-1.583.042v-.43408c.93848,0,1.09277,0,1.09277-.63037V74.0415c0-.686-.1123-.78418-1.09277-.78418v-.43408l1.9751-.15429v1.4707a2.2087,2.2087,0,0,1,2.07324-1.4707,1.86691,1.86691,0,0,1,1.4707.51855c.43409.50391.43409.93848.43409,2.14307v2.67529c.01416.42041.36425.42041,1.09277.42041v.43408Z" transform="translate(-8.2124 -49)"/>
      <path class="cls-2" d="M187.70508,78.94434a1.17261,1.17261,0,0,1-1.09278-1.14844,1.938,1.938,0,0,1-1.835,1.21875c-.88232,0-2.24121-.35059-2.24121-1.48486A2.041,2.041,0,0,1,183.937,75.7085a6.81959,6.81959,0,0,1,2.57715-.50391V74.686a1.58632,1.58632,0,0,0-1.48486-1.793,1.96778,1.96778,0,0,0-1.5127.64453c.64453.01367.71436.47607.71436.644a.64436.64436,0,1,1-1.28858-.01367c0-.92481.96631-1.583,2.11524-1.583a2.67441,2.67441,0,0,1,1.91894.77051,2.07127,2.07127,0,0,1,.5044,1.65283v2.80127c0,.07031.05566.70068.51806.70068.1543,0,.5044-.084.5044-.89648V76.8291h.3501v.78467A1.18908,1.18908,0,0,1,187.70508,78.94434Zm-1.19092-3.4458c-2.311.084-2.89941,1.24658-2.89941,2.01709a1.206,1.206,0,0,0,1.26074,1.19042,1.68212,1.68212,0,0,0,1.63867-1.80664Z" transform="translate(-8.2124 -49)"/>
      <path class="cls-2" d="M191.105,78.81836l-1.55469.042v-.43408c.93848,0,1.09229,0,1.09229-.63037V70.51172c0-.686-.11182-.78418-1.09229-.78418V69.293l2.01709-.15381V77.7959c0,.63037.15381.63037,1.09229.63037v.43408Z" transform="translate(-8.2124 -49)"/>
    </g>
    <g>
      <path class="cls-2" d="M134.02148,90.38086a3.10044,3.10044,0,0,1-3.01171-3.17969,3.13949,3.13949,0,0,1,3.04-3.25c1.07862,0,2.14307.54639,2.14307,1.499a.6446.6446,0,1,1-1.28906.01367.63242.63242,0,0,1,.65869-.644,2.2844,2.2844,0,0,0-1.499-.51855c-.74219,0-1.89112.58838-1.89112,2.87158,0,2.25537,1.23291,2.85742,1.9751,2.85742a1.82886,1.82886,0,0,0,1.835-1.4707c.02832-.084.05615-.14014.18213-.14014.042,0,.18213,0,.18213.14014A2.305,2.305,0,0,1,134.02148,90.38086Z" transform="translate(-8.2124 -49)"/>
      <path class="cls-2" d="M138.75244,90.18457l-1.54053.042v-.43408c.93848,0,1.09229,0,1.09229-.63037V85.394c0-.68652-.126-.7705-1.03662-.7705v-.43409l1.96142-.15429v5.14062c0,.54639.05567.6167.98047.6167v.43408C139.73291,90.2124,139.24268,90.18457,138.75244,90.18457Zm-.06982-7.67627a.74249.74249,0,1,1,.75634-.74219A.749.749,0,0,1,138.68262,82.5083Z" transform="translate(-8.2124 -49)"/>
      <path class="cls-2" d="M145.13818,85.50586a.58037.58037,0,0,1-.60254-.60205.60721.60721,0,0,1,.32227-.54639.35152.35152,0,0,0-.1543-.01416c-1.06445,0-1.65283,1.24658-1.65283,2.6333v2.15723c0,.50439.02832.65869,1.06494.65869h.29395v.43408c-.56055-.042-1.21875-.042-1.77881-.042l-1.59717.042v-.43408c.93848,0,1.09277,0,1.09277-.63037V85.4082c0-.68652-.1123-.78466-1.09277-.78466v-.43409l1.94727-.15429v1.541a1.96091,1.96091,0,0,1,1.72265-1.541.95584.95584,0,0,1,1.03662.85449A.58842.58842,0,0,1,145.13818,85.50586Z" transform="translate(-8.2124 -49)"/>
      <path class="cls-2" d="M149.61719,90.38086a3.10045,3.10045,0,0,1-3.01172-3.17969,3.13949,3.13949,0,0,1,3.04-3.25c1.07861,0,2.14306.54639,2.14306,1.499a.6446.6446,0,1,1-1.28906.01367.63242.63242,0,0,1,.65869-.644,2.28438,2.28438,0,0,0-1.499-.51855c-.74219,0-1.89111.58838-1.89111,2.87158,0,2.25537,1.23291,2.85742,1.97509,2.85742a1.82887,1.82887,0,0,0,1.835-1.4707c.02832-.084.05615-.14014.18212-.14014.042,0,.18213,0,.18213.14014A2.305,2.305,0,0,1,149.61719,90.38086Z" transform="translate(-8.2124 -49)"/>
      <path class="cls-2" d="M157.82227,90.38086V89.12012a1.91134,1.91134,0,0,1-1.80713,1.26074c-2.12891,0-2.12891-1.2749-2.12891-2.36768V85.91211c0-1.24658,0-1.28857-1.09277-1.28857v-.43409l2.05908-.15429v4.65039c0,.72851.05615,1.38672,1.23291,1.38672,1.02246,0,1.69482-.95215,1.69482-2.1709V85.4082c0-.68652-.1123-.78466-1.09277-.78466v-.43409l2.05908-.15429v4.97265c0,.68653.11231.78467,1.09278.78467v.43408Z" transform="translate(-8.2124 -49)"/>
      <path class="cls-2" d="M162.13232,90.18457l-1.54052.042v-.43408c.93847,0,1.09228,0,1.09228-.63037V85.394c0-.68652-.126-.7705-1.03662-.7705v-.43409l1.96143-.15429v5.14062c0,.54639.05566.6167.98047.6167v.43408C163.11279,90.2124,162.62256,90.18457,162.13232,90.18457Zm-.06982-7.67627a.74249.74249,0,1,1,.75635-.74219A.749.749,0,0,1,162.0625,82.5083Z" transform="translate(-8.2124 -49)"/>
      <path class="cls-2" d="M167.28467,90.38086a1.69475,1.69475,0,0,1-1.80664-1.89111V84.62354h-1.19092v-.30811c1.37256-.05615,1.793-1.55469,1.80713-2.70361h.3501v2.57763h2.00293v.43409h-2.00293v3.894c0,.23828,0,1.51269.93847,1.51269.51807,0,.93848-.53222.93848-1.56884v-.77h.3501v.79834C168.67139,89.38623,168.2793,90.38086,167.28467,90.38086Z" transform="translate(-8.2124 -49)"/>
    </g>
    <g>
      <path class="cls-2" d="M126.667,59.398v7.73193c0,.26612,0,.36426-.1958.36426-.09814,0-.1123-.01416-.23828-.18213l-5.71484-8.4043a.822.822,0,0,0-.14014-.16845v7.28418c0,.37793,0,1.03662,1.44287,1.03662v.43408l-1.63916-.042-1.63867.042v-.43408c1.44287,0,1.44287-.65869,1.44287-1.03662v-7.312c0-.26612-.01416-.28028-.33643-.32227-.21-.01416-.49023-.02783-.70019-.02783H118.543v-.43457h2.38135c.26611,0,.27978.01416.40625.18213l4.94433,7.27V59.398c0-.37842,0-1.03662-1.44287-1.03662v-.43457l1.63916.04248,1.63867-.04248v.43457C126.667,58.36133,126.667,59.01953,126.667,59.398Z" transform="translate(-8.2124 -49)"/>
      <path class="cls-2" d="M132.0542,67.64844a3.16259,3.16259,0,0,1-3.08154-3.23584,3.06111,3.06111,0,0,1,2.91357-3.19385,2.48469,2.48469,0,0,1,2.50732,2.74561c0,.29394-.042.29394-.35009.29394h-3.90821a4.077,4.077,0,0,0,.42041,2.10108,1.88542,1.88542,0,0,0,1.583.93847,1.9736,1.9736,0,0,0,1.89063-1.44238c.02832-.11231.05615-.19629.18213-.19629a.16252.16252,0,0,1,.18212.168A2.39444,2.39444,0,0,1,132.0542,67.64844Zm-.168-6.12158c-.47607,0-1.65283.35009-1.73682,2.4375h3.31983C133.46924,63.418,133.3291,61.52686,131.88623,61.52686Z" transform="translate(-8.2124 -49)"/>
      <path class="cls-2" d="M140.67969,67.45215l-1.51319.042v-.43408c.37842-.01416.5044-.22412.5044-.35059a1.72232,1.72232,0,0,0-.29395-.46191l-1.06445-1.40088c-.85449,1.00879-1.26074,1.4707-1.26074,1.77881a.40771.40771,0,0,0,.40625.43457v.43408l-1.33106-.042c-.36425,0-.79834.01416-1.16259.042v-.43408a2.24157,2.24157,0,0,0,1.793-.84082c.6587-.79834.6587-.82617,1.3169-1.66651l-1.38672-1.80712c-.65869-.84034-.67236-.8545-1.65283-.8545V61.457c.37793.02783,1.03662.042,1.33056.042l1.5127-.042v.43408c-.27979.01416-.49023.14014-.49023.3501,0,.084,0,.11231.126.25244l1.09278,1.41455.86865-1.09277a.80145.80145,0,0,0,.21-.49023.402.402,0,0,0-.40625-.43409V61.457c.18213.01367.92432.042,1.34473.042.36425,0,.78417-.01416,1.14843-.042v.43408a2.1469,2.1469,0,0,0-1.6665.72852c-.33643.36426-.86865,1.05029-1.28906,1.58252l1.877,2.42334c.32227.40625.57471.43457,1.331.43457v.43408C141.604,67.46631,141.05762,67.45215,140.67969,67.45215Z" transform="translate(-8.2124 -49)"/>
      <path class="cls-2" d="M145.45215,67.64844a1.69507,1.69507,0,0,1-1.80713-1.89112V61.89111h-1.19043V61.583c1.37256-.05615,1.793-1.55469,1.80713-2.70362h.3501V61.457h2.00293v.43408h-2.00293v3.89405c0,.23828,0,1.51269.93847,1.51269.51807,0,.93848-.53222.93848-1.56885v-.77h.3501v.79834C146.83887,66.65381,146.44678,67.64844,145.45215,67.64844Z" transform="translate(-8.2124 -49)"/>
      <path class="cls-2" d="M155.084,67.64844a2.09305,2.09305,0,0,1-1.541-.60254,3.22283,3.22283,0,0,0-.28027.32226c-.26612.26612-.27979.28028-.3501.28028-.15381,0-.15381-.09815-.15381-.33643V65.46289c0-.252,0-.3501.18213-.3501.13965,0,.15381.05616.1958.23828.26611,1.19043.77051,1.98877,1.94726,1.98877,1.09229,0,1.58252-.56,1.58252-1.27441,0-1.00879-1.14843-1.23291-1.45654-1.28857a3.67313,3.67313,0,0,1-1.84912-.64454,1.49283,1.49283,0,0,1-.602-1.19043c0-.78466.53223-1.72314,2.24121-1.72314a2.1581,2.1581,0,0,1,1.31641.39209,1.78579,1.78579,0,0,0,.23828-.22412c.18213-.168.21-.168.28027-.168.15381,0,.15381.09814.15381.33643v1.41455c0,.26611,0,.33593-.18213.33593,0,0-.15381,0-.168-.126A1.54529,1.54529,0,0,0,155,61.48486c-1.20459,0-1.56885.57422-1.56885,1.06446,0,.8125.93848.99463,1.72266,1.14892a2.85592,2.85592,0,0,1,1.59717.67237,1.80738,1.80738,0,0,1,.58838,1.33056C157.33936,66.70947,156.69482,67.64844,155.084,67.64844Z" transform="translate(-8.2124 -49)"/>
      <path class="cls-2" d="M161.07568,67.64844a1.69476,1.69476,0,0,1-1.80664-1.89112V61.89111h-1.19091V61.583c1.37255-.05615,1.793-1.55469,1.80712-2.70362h.3501V61.457h2.00293v.43408h-2.00293v3.89405c0,.23828,0,1.51269.93848,1.51269.51806,0,.93847-.53222.93847-1.56885v-.77h.3501v.79834C162.4624,66.65381,162.07031,67.64844,161.07568,67.64844Z" transform="translate(-8.2124 -49)"/>
      <path class="cls-2" d="M168.875,67.57813a1.17259,1.17259,0,0,1-1.09277-1.14844,1.938,1.938,0,0,1-1.835,1.21875c-.88233,0-2.24122-.35059-2.24122-1.48487a2.041,2.041,0,0,1,1.40088-1.82128,6.81963,6.81963,0,0,1,2.57715-.50391v-.51856a1.58632,1.58632,0,0,0-1.48486-1.793,1.9678,1.9678,0,0,0-1.5127.64453c.64453.01367.71436.47607.71436.644a.64436.64436,0,1,1-1.28858-.01367c0-.92481.96631-1.583,2.11524-1.583a2.67441,2.67441,0,0,1,1.91894.77051,2.07126,2.07126,0,0,1,.5044,1.65283v2.80127c0,.07031.05566.70068.51807.70068.15429,0,.50439-.084.50439-.89648v-.78467h.3501v.78467A1.18909,1.18909,0,0,1,168.875,67.57813Zm-1.19092-3.44581c-2.311.084-2.89941,1.24659-2.89941,2.01709a1.206,1.206,0,0,0,1.26074,1.19043,1.68212,1.68212,0,0,0,1.63867-1.80664Z" transform="translate(-8.2124 -49)"/>
      <path class="cls-2" d="M173.52148,67.64844a1.69507,1.69507,0,0,1-1.80712-1.89112V61.89111h-1.19043V61.583c1.37255-.05615,1.793-1.55469,1.80712-2.70362h.3501V61.457h2.00293v.43408h-2.00293v3.89405c0,.23828,0,1.51269.93848,1.51269.51807,0,.93848-.53222.93848-1.56885v-.77h.35009v.79834C174.9082,66.65381,174.51611,67.64844,173.52148,67.64844Z" transform="translate(-8.2124 -49)"/>
      <path class="cls-2" d="M179.17822,67.64844a3.16267,3.16267,0,0,1-3.082-3.23584,3.06143,3.06143,0,0,1,2.91358-3.19385,2.4847,2.4847,0,0,1,2.50732,2.74561c0,.29394-.042.29394-.3501.29394h-3.9082a4.077,4.077,0,0,0,.42041,2.10108,1.88539,1.88539,0,0,0,1.583.93847,1.97393,1.97393,0,0,0,1.89062-1.44238c.02832-.11231.05615-.19629.18213-.19629a.16252.16252,0,0,1,.18213.168A2.39425,2.39425,0,0,1,179.17822,67.64844Zm-.16845-6.12158c-.47608,0-1.65284.35009-1.73682,2.4375h3.31982C180.59277,63.418,180.45264,61.52686,179.00977,61.52686Z" transform="translate(-8.2124 -49)"/>
    </g>
  </g>
  <rect class="cls-1" x="221.7876" y="11" width="60" height="30"/>
  <g>
    <g>
      <path class="cls-2" d="M241.86621,79.82275a.58037.58037,0,0,1-.60254-.60205.6072.6072,0,0,1,.32227-.54638.35152.35152,0,0,0-.1543-.01416c-1.06445,0-1.65283,1.24658-1.65283,2.63379v2.15673c0,.5044.02832.6587,1.06445.6587h.29444v.43408c-.56055-.042-1.21875-.042-1.77881-.042l-1.59717.042v-.43408c.93848,0,1.09277,0,1.09277-.63038V79.72461c0-.686-.1123-.78418-1.09277-.78418v-.43408l1.94726-.1543v1.541a1.961,1.961,0,0,1,1.72266-1.541.95584.95584,0,0,1,1.03662.85449A.58842.58842,0,0,1,241.86621,79.82275Z" transform="translate(-8.2124 -49)"/>
      <path class="cls-2" d="M246.33154,84.69775a3.16266,3.16266,0,0,1-3.082-3.23584,3.06143,3.06143,0,0,1,2.91358-3.19384,2.48469,2.48469,0,0,1,2.50732,2.7456c0,.29395-.042.29395-.3501.29395h-3.9082a4.077,4.077,0,0,0,.42041,2.10107,1.88539,1.88539,0,0,0,1.583.93848,1.97393,1.97393,0,0,0,1.89062-1.44238c.02832-.11231.05615-.19629.18213-.19629a.16252.16252,0,0,1,.18213.168A2.39424,2.39424,0,0,1,246.33154,84.69775Zm-.16845-6.12158c-.47608,0-1.65284.3501-1.73682,2.4375h3.31982C247.74609,80.46729,247.606,78.57617,246.16309,78.57617Z" transform="translate(-8.2124 -49)"/>
      <path class="cls-2" d="M255.46045,79.30469a.39766.39766,0,0,1-.40576-.40625.37514.37514,0,0,1,.22412-.37842.659.659,0,0,0-.14014-.01367,1.83857,1.83857,0,0,0-1.26074.54638,1.89144,1.89144,0,0,1,.57422,1.3584,2.1679,2.1679,0,0,1-2.269,2.04541,2.3869,2.3869,0,0,1-1.38672-.43457,1.03189,1.03189,0,0,0-.23828.65869.91359.91359,0,0,0,.74218.93848c.09815.01367.70069.01367,1.05078.01367a4.97248,4.97248,0,0,1,2.40918.39258,1.79114,1.79114,0,0,1,.91065,1.59668c0,1.09277-1.457,1.80713-3.10986,1.80713-1.709,0-3.09571-.77051-3.09571-1.7793a1.58,1.58,0,0,1,1.28906-1.40039,1.49363,1.49363,0,0,1-.61669-1.24707,1.93636,1.93636,0,0,1,.43457-1.1626,1.92771,1.92771,0,0,1-.6587-1.44238,2.16837,2.16837,0,0,1,2.26954-2.04541,2.33363,2.33363,0,0,1,1.48437.5044,2.15831,2.15831,0,0,1,1.48486-.65821.68515.68515,0,0,1,.71436.686A.40447.40447,0,0,1,255.46045,79.30469Zm-3.2915,5.14062h-.82666a1.23333,1.23333,0,0,0-1.14844,1.20459c0,.74268.96631,1.457,2.38135,1.457,1.37255,0,2.36718-.70068,2.36718-1.457C254.94238,84.44531,253.37354,84.44531,252.169,84.44531Zm.01416-5.771a1.21048,1.21048,0,0,0-.99463.56006,2.29742,2.29742,0,0,0-.22412,1.17675c0,.32227,0,1.72315,1.21875,1.72315a1.20932,1.20932,0,0,0,.99414-.56055,2.29472,2.29472,0,0,0,.22412-1.17627C253.40137,80.0752,253.40137,78.67432,252.18311,78.67432Z" transform="translate(-8.2124 -49)"/>
      <path class="cls-2" d="M258.07617,84.50146l-1.54053.042v-.43408c.93848,0,1.09229,0,1.09229-.63038V79.71094c0-.68653-.126-.77051-1.03662-.77051v-.43408l1.96142-.1543v5.14063c0,.54638.05567.6167.98047.6167v.43408C259.05664,84.5293,258.56641,84.50146,258.07617,84.50146Zm-.06982-7.67626a.7425.7425,0,1,1,.75635-.74219A.749.749,0,0,1,258.00635,76.8252Z" transform="translate(-8.2124 -49)"/>
      <path class="cls-2" d="M262.75293,84.69775a2.09308,2.09308,0,0,1-1.541-.60254,3.22332,3.22332,0,0,0-.28027.32227c-.26611.26611-.27978.28027-.3501.28027-.15381,0-.15381-.09814-.15381-.33642V82.51221c0-.252,0-.3501.18213-.3501.13965,0,.15381.05615.1958.23828.26612,1.19043.77051,1.98877,1.94727,1.98877,1.09228,0,1.58252-.56006,1.58252-1.27441,0-1.00879-1.14844-1.23291-1.45654-1.28858a3.67314,3.67314,0,0,1-1.84912-.64453,1.49284,1.49284,0,0,1-.60206-1.19043c0-.78467.53223-1.72314,2.24122-1.72314a2.15806,2.15806,0,0,1,1.3164.39209,1.78643,1.78643,0,0,0,.23828-.22412c.18213-.168.21-.168.28028-.168.1538,0,.1538.09814.1538.33642V80.019c0,.26612,0,.33594-.18212.33594,0,0-.15381,0-.168-.126a1.54529,1.54529,0,0,0-1.63867-1.69482c-1.20459,0-1.56885.57422-1.56885,1.06445,0,.8125.93847.99463,1.72265,1.14893a2.856,2.856,0,0,1,1.59717.67236,1.80743,1.80743,0,0,1,.58838,1.33057C265.0083,83.75879,264.36377,84.69775,262.75293,84.69775Z" transform="translate(-8.2124 -49)"/>
      <path class="cls-2" d="M268.74512,84.69775a1.69506,1.69506,0,0,1-1.80713-1.89111V78.94043h-1.19043v-.30811c1.37256-.05615,1.793-1.55468,1.80713-2.70361h.3501v2.57764h2.00292v.43408h-2.00292v3.894c0,.23828,0,1.5127.93847,1.5127.51807,0,.93848-.53223.93848-1.56885v-.77h.3501v.79834C270.13184,83.70313,269.73975,84.69775,268.74512,84.69775Z" transform="translate(-8.2124 -49)"/>
      <path class="cls-2" d="M274.40088,84.69775a3.16258,3.16258,0,0,1-3.08154-3.23584,3.0611,3.0611,0,0,1,2.91357-3.19384,2.48469,2.48469,0,0,1,2.50732,2.7456c0,.29395-.042.29395-.35009.29395h-3.90821a4.077,4.077,0,0,0,.42041,2.10107,1.88541,1.88541,0,0,0,1.583.93848,1.9736,1.9736,0,0,0,1.89063-1.44238c.02832-.11231.05615-.19629.18213-.19629a.16251.16251,0,0,1,.18212.168A2.39443,2.39443,0,0,1,274.40088,84.69775Zm-.168-6.12158c-.47607,0-1.65283.3501-1.73682,2.4375h3.31983C275.81592,80.46729,275.67578,78.57617,274.23291,78.57617Z" transform="translate(-8.2124 -49)"/>
      <path class="cls-2" d="M281.63965,79.82275a.58036.58036,0,0,1-.60254-.60205.60718.60718,0,0,1,.32227-.54638.35158.35158,0,0,0-.1543-.01416c-1.06445,0-1.65283,1.24658-1.65283,2.63379v2.15673c0,.5044.02832.6587,1.06445.6587h.29443v.43408c-.56054-.042-1.21875-.042-1.77881-.042l-1.59716.042v-.43408c.93847,0,1.09277,0,1.09277-.63038V79.72461c0-.686-.1123-.78418-1.09277-.78418v-.43408l1.94726-.1543v1.541a1.96093,1.96093,0,0,1,1.72266-1.541.95584.95584,0,0,1,1.03662.85449A.58842.58842,0,0,1,281.63965,79.82275Z" transform="translate(-8.2124 -49)"/>
    </g>
    <g>
      <path class="cls-2" d="M248.28467,73.48535a3.50938,3.50938,0,0,1-2.57764-.98047c-.4624.74219-.50439.79834-.50439.79834-.09766.1543-.11182.18213-.21.18213-.1543,0-.1543-.09814-.1543-.33594V70.34766c0-.252,0-.3501.18213-.3501a.14615.14615,0,0,1,.16845.14014,2.83222,2.83222,0,0,0,.86817,2.15722,3.38089,3.38089,0,0,0,2.21338.75635,1.92059,1.92059,0,0,0,1.87695-2.00342,2.04779,2.04779,0,0,0-.43408-1.28857,1.86254,1.86254,0,0,0-1.19092-.71436c-.98047-.23828-1.69482-.40625-1.84863-.46191a2.71367,2.71367,0,0,1,.89648-5.28125,2.88264,2.88264,0,0,1,2.24121.98047l.49024-.79834c.09765-.168.11181-.18213.21-.18213.15381,0,.15381.09814.15381.33642v2.81543c0,.26612,0,.33643-.18164.33643-.1543,0-.1543-.08447-.16846-.16846-.084-.63037-.39209-2.92724-2.73145-2.92724a1.83085,1.83085,0,0,0-.43408,3.61377l1.793.43408a2.86593,2.86593,0,0,1,2.10108,2.82959A2.80794,2.80794,0,0,1,248.28467,73.48535Z" transform="translate(-8.2124 -49)"/>
      <path class="cls-2" d="M255.10205,73.33154a1.69475,1.69475,0,0,1-1.80664-1.89111V67.57422h-1.19092v-.30811c1.37256-.05615,1.793-1.55468,1.80713-2.70361h.3501v2.57764h2.00293v.43408h-2.00293v3.894c0,.23828,0,1.5127.93848,1.5127.51806,0,.93847-.53223.93847-1.56885v-.77h.3501v.79834C256.48877,72.33691,256.09668,73.33154,255.10205,73.33154Z" transform="translate(-8.2124 -49)"/>
      <path class="cls-2" d="M262.90137,73.26123a1.17261,1.17261,0,0,1-1.09278-1.14844,1.938,1.938,0,0,1-1.835,1.21875c-.88232,0-2.24121-.35058-2.24121-1.48486a2.041,2.041,0,0,1,1.40088-1.82129,6.82,6.82,0,0,1,2.57715-.50391v-.51855a1.58633,1.58633,0,0,0-1.48486-1.793,1.96782,1.96782,0,0,0-1.5127.64453c.64453.01367.71436.47608.71436.64405a.64436.64436,0,1,1-1.28858-.01368c0-.9248.96631-1.583,2.11524-1.583a2.67446,2.67446,0,0,1,1.91894.7705,2.0713,2.0713,0,0,1,.5044,1.65284v2.80126c0,.07032.05566.70069.51806.70069.1543,0,.5044-.084.5044-.89649V71.146h.35009v.78466A1.18908,1.18908,0,0,1,262.90137,73.26123Zm-1.19092-3.4458c-2.311.084-2.89941,1.24658-2.89941,2.01709a1.206,1.206,0,0,0,1.26074,1.19043,1.68212,1.68212,0,0,0,1.63867-1.80664Z" transform="translate(-8.2124 -49)"/>
      <path class="cls-2" d="M267.54785,73.33154a1.69507,1.69507,0,0,1-1.80713-1.89111V67.57422h-1.19043v-.30811c1.37256-.05615,1.793-1.55468,1.80713-2.70361h.3501v2.57764h2.00293v.43408h-2.00293v3.894c0,.23828,0,1.5127.93848,1.5127.51806,0,.93847-.53223.93847-1.56885v-.77h.3501v.79834C268.93457,72.33691,268.54248,73.33154,267.54785,73.33154Z" transform="translate(-8.2124 -49)"/>
      <path class="cls-2" d="M273.20361,73.33154a3.16258,3.16258,0,0,1-3.08154-3.23584,3.0611,3.0611,0,0,1,2.91357-3.19384,2.48469,2.48469,0,0,1,2.50733,2.7456c0,.294-.042.294-.3501.294h-3.9082a4.077,4.077,0,0,0,.42041,2.10107,1.88538,1.88538,0,0,0,1.583.93848,1.97359,1.97359,0,0,0,1.89062-1.44239c.02832-.1123.05615-.19628.18213-.19628a.16252.16252,0,0,1,.18213.168A2.39443,2.39443,0,0,1,273.20361,73.33154Zm-.168-6.12158c-.47607,0-1.65283.3501-1.73681,2.4375h3.31982C274.61865,69.10107,274.47852,67.21,273.03564,67.21Z" transform="translate(-8.2124 -49)"/>
    </g>
  </g>
  <rect class="cls-1" x="311.7876" y="1" width="100" height="50"/>
  <g>
    <g>
      <path class="cls-2" d="M330.5083,79.01465a3.10089,3.10089,0,0,1-3.01172-3.18018,3.13936,3.13936,0,0,1,3.04-3.24951c1.07861,0,2.14307.54639,2.14307,1.499a.6446.6446,0,1,1-1.28906.01368.63242.63242,0,0,1,.65869-.64405,2.28442,2.28442,0,0,0-1.499-.51855c-.74218,0-1.89111.58838-1.89111,2.87158,0,2.25537,1.23291,2.85742,1.9751,2.85742a1.82886,1.82886,0,0,0,1.835-1.4707c.02832-.084.05615-.14014.18213-.14014.042,0,.18213,0,.18213.14014A2.305,2.305,0,0,1,330.5083,79.01465Z" transform="translate(-8.2124 -49)"/>
      <path class="cls-2" d="M336.72412,79.01465a3.12694,3.12694,0,0,1-3.0957-3.15186,3.10745,3.10745,0,1,1,6.20556,0A3.12128,3.12128,0,0,1,336.72412,79.01465Zm1.583-5.21094a1.83564,1.83564,0,0,0-1.583-.91064,1.87994,1.87994,0,0,0-1.59668.93847,4.01391,4.01391,0,0,0-.33642,1.91895,4.16361,4.16361,0,0,0,.35058,1.9751,1.82913,1.82913,0,0,0,1.59668.93847,1.808,1.808,0,0,0,1.625-1.03662,4.2549,4.2549,0,0,0,.30811-1.877A3.84281,3.84281,0,0,0,338.30713,73.80371Z" transform="translate(-8.2124 -49)"/>
      <path class="cls-2" d="M350.05566,78.81836l-1.583.042v-.43408c.93847,0,1.09277,0,1.09277-.63037V74.53223c0-.79883-.1543-1.55518-1.03662-1.55518a2.04594,2.04594,0,0,0-1.89111,2.24121V77.7959c0,.63037.15429.63037,1.09277.63037v.43408l-1.56885-.042-1.583.042v-.43408c.93848,0,1.09278,0,1.09278-.63037V74.53223c0-.79883-.1543-1.55518-1.03662-1.55518a2.046,2.046,0,0,0-1.89112,2.24121V77.7959c0,.63037.1543.63037,1.09278.63037v.43408l-1.56885-.042-1.583.042v-.43408c.93848,0,1.09277,0,1.09277-.63037V74.0415c0-.686-.1123-.78418-1.09277-.78418v-.43408l1.9751-.15429v1.4707a2.20822,2.20822,0,0,1,2.07324-1.4707,1.65823,1.65823,0,0,1,1.86279,1.37255A2.21679,2.21679,0,0,1,348.627,72.669a1.867,1.867,0,0,1,1.47071.51855c.43408.50391.43408.93848.43408,2.14307v2.67529c.01416.42041.36426.42041,1.09277.42041v.43408Z" transform="translate(-8.2124 -49)"/>
      <path class="cls-2" d="M355.68066,79.01465a2.20176,2.20176,0,0,1-1.835-1.023l-.50439.86865h-.3501V70.51172c0-.686-.1123-.78418-1.09277-.78418V69.293l2.01709-.15381v4.44043a2.488,2.488,0,0,1,1.91894-.91064,3.08082,3.08082,0,0,1,2.96973,3.16552A3.15688,3.15688,0,0,1,355.68066,79.01465Zm1.55469-5.14111a1.741,1.741,0,0,0-1.4707-.89649,2.02283,2.02283,0,0,0-1.65283.89649.61017.61017,0,0,0-.1543.50439v2.88574a.76427.76427,0,0,0,.19629.58838,1.72969,1.72969,0,0,0,1.4707.854,1.92511,1.92511,0,0,0,1.583-.89648,4.82035,4.82035,0,0,0,.02783-3.936Z" transform="translate(-8.2124 -49)"/>
      <path class="cls-2" d="M361.293,78.81836l-1.54053.042v-.43408c.93848,0,1.09229,0,1.09229-.63037V74.02783c0-.68652-.126-.77051-1.03662-.77051v-.43408l1.96142-.15429v5.14062c0,.54639.05567.6167.98047.6167v.43408C362.27344,78.84619,361.7832,78.81836,361.293,78.81836Zm-.06983-7.67627a.74249.74249,0,1,1,.75635-.74219A.749.749,0,0,1,361.22314,71.14209Z" transform="translate(-8.2124 -49)"/>
      <path class="cls-2" d="M369.10742,78.81836l-1.583.042v-.43408c.93848,0,1.09278,0,1.09278-.63037V74.53223c0-.79883-.1543-1.55518-1.03662-1.55518a2.046,2.046,0,0,0-1.89112,2.24121V77.7959c0,.63037.1543.63037,1.09278.63037v.43408l-1.56885-.042-1.583.042v-.43408c.93848,0,1.09277,0,1.09277-.63037V74.0415c0-.686-.1123-.78418-1.09277-.78418v-.43408l1.9751-.15429v1.4707a2.2087,2.2087,0,0,1,2.07324-1.4707,1.86691,1.86691,0,0,1,1.4707.51855c.43409.50391.43409.93848.43409,2.14307v2.67529c.01416.42041.36425.42041,1.09277.42041v.43408Z" transform="translate(-8.2124 -49)"/>
      <path class="cls-2" d="M376.5835,78.94434a1.1726,1.1726,0,0,1-1.09278-1.14844,1.938,1.938,0,0,1-1.835,1.21875c-.88232,0-2.24121-.35059-2.24121-1.48486a2.041,2.041,0,0,1,1.40088-1.82129,6.81956,6.81956,0,0,1,2.57715-.50391V74.686a1.58632,1.58632,0,0,0-1.48487-1.793,1.96778,1.96778,0,0,0-1.51269.64453c.64453.01367.71436.47607.71436.644a.64436.64436,0,1,1-1.28858-.01367c0-.92481.96631-1.583,2.11524-1.583a2.67443,2.67443,0,0,1,1.91894.77051,2.07127,2.07127,0,0,1,.5044,1.65283v2.80127c0,.07031.05566.70068.51806.70068.1543,0,.5044-.084.5044-.89648V76.8291h.35009v.78467A1.18908,1.18908,0,0,1,376.5835,78.94434Zm-1.19092-3.4458c-2.311.084-2.89942,1.24658-2.89942,2.01709a1.206,1.206,0,0,0,1.26075,1.19042,1.68212,1.68212,0,0,0,1.63867-1.80664Z" transform="translate(-8.2124 -49)"/>
      <path class="cls-2" d="M381.23,79.01465a1.69507,1.69507,0,0,1-1.80713-1.89111V73.25732h-1.19043v-.3081c1.37256-.05615,1.793-1.55469,1.80713-2.70361h.3501v2.57763h2.00293v.43408h-2.00293v3.894c0,.23828,0,1.51269.93848,1.51269.51806,0,.93847-.53222.93847-1.56885v-.77h.3501v.79834C382.6167,78.02,382.22461,79.01465,381.23,79.01465Z" transform="translate(-8.2124 -49)"/>
      <path class="cls-2" d="M385.415,78.81836l-1.54053.042v-.43408c.93848,0,1.09229,0,1.09229-.63037V74.02783c0-.68652-.126-.77051-1.03662-.77051v-.43408l1.96142-.15429v5.14062c0,.54639.05567.6167.98047.6167v.43408C386.39551,78.84619,385.90527,78.81836,385.415,78.81836Zm-.06983-7.67627a.74249.74249,0,1,1,.75635-.74219A.749.749,0,0,1,385.34521,71.14209Z" transform="translate(-8.2124 -49)"/>
      <path class="cls-2" d="M390.792,79.01465a3.12694,3.12694,0,0,1-3.0957-3.15186,3.10746,3.10746,0,1,1,6.20557,0A3.12129,3.12129,0,0,1,390.792,79.01465Zm1.583-5.21094a1.83564,1.83564,0,0,0-1.583-.91064,1.87994,1.87994,0,0,0-1.59668.93847,4.01391,4.01391,0,0,0-.33642,1.91895,4.16878,4.16878,0,0,0,.35009,1.9751,1.83043,1.83043,0,0,0,1.59717.93847,1.80746,1.80746,0,0,0,1.625-1.03662,4.2549,4.2549,0,0,0,.30811-1.877A3.84281,3.84281,0,0,0,392.375,73.80371Z" transform="translate(-8.2124 -49)"/>
      <path class="cls-2" d="M400.22949,78.81836l-1.583.042v-.43408c.93848,0,1.09278,0,1.09278-.63037V74.53223c0-.79883-.1543-1.55518-1.03662-1.55518a2.046,2.046,0,0,0-1.89112,2.24121V77.7959c0,.63037.1543.63037,1.09278.63037v.43408l-1.56885-.042-1.583.042v-.43408c.93848,0,1.09277,0,1.09277-.63037V74.0415c0-.686-.1123-.78418-1.09277-.78418v-.43408l1.9751-.15429v1.4707a2.2087,2.2087,0,0,1,2.07324-1.4707,1.86691,1.86691,0,0,1,1.4707.51855c.43409.50391.43409.93848.43409,2.14307v2.67529c.01416.42041.36425.42041,1.09277.42041v.43408Z" transform="translate(-8.2124 -49)"/>
      <path class="cls-2" d="M407.70508,78.94434a1.17261,1.17261,0,0,1-1.09278-1.14844,1.938,1.938,0,0,1-1.835,1.21875c-.88232,0-2.24121-.35059-2.24121-1.48486A2.041,2.041,0,0,1,403.937,75.7085a6.81959,6.81959,0,0,1,2.57715-.50391V74.686a1.58632,1.58632,0,0,0-1.48486-1.793,1.96778,1.96778,0,0,0-1.5127.64453c.64453.01367.71436.47607.71436.644a.64436.64436,0,1,1-1.28858-.01367c0-.92481.96631-1.583,2.11524-1.583a2.67441,2.67441,0,0,1,1.91894.77051,2.07127,2.07127,0,0,1,.5044,1.65283v2.80127c0,.07031.05566.70068.51806.70068.1543,0,.5044-.084.5044-.89648V76.8291h.3501v.78467A1.18908,1.18908,0,0,1,407.70508,78.94434Zm-1.19092-3.4458c-2.311.084-2.89941,1.24658-2.89941,2.01709a1.206,1.206,0,0,0,1.26074,1.19042,1.68212,1.68212,0,0,0,1.63867-1.80664Z" transform="translate(-8.2124 -49)"/>
      <path class="cls-2" d="M411.105,78.81836l-1.55469.042v-.43408c.93848,0,1.09229,0,1.09229-.63037V70.51172c0-.686-.11182-.78418-1.09229-.78418V69.293l2.01709-.15381V77.7959c0,.63037.15381.63037,1.09229.63037v.43408Z" transform="translate(-8.2124 -49)"/>
    </g>
    <g>
      <path class="cls-2" d="M354.021,90.38086a3.10045,3.10045,0,0,1-3.01172-3.17969,3.13949,3.13949,0,0,1,3.04-3.25c1.07861,0,2.14306.54639,2.14306,1.499a.6446.6446,0,1,1-1.28906.01367.63242.63242,0,0,1,.65869-.644,2.2844,2.2844,0,0,0-1.499-.51855c-.74219,0-1.89111.58838-1.89111,2.87158,0,2.25537,1.23291,2.85742,1.97509,2.85742a1.82886,1.82886,0,0,0,1.835-1.4707c.02832-.084.05616-.14014.18213-.14014.042,0,.18213,0,.18213.14014A2.305,2.305,0,0,1,354.021,90.38086Z" transform="translate(-8.2124 -49)"/>
      <path class="cls-2" d="M358.752,90.18457l-1.54052.042v-.43408c.93847,0,1.09228,0,1.09228-.63037V85.394c0-.68652-.126-.7705-1.03662-.7705v-.43409l1.96143-.15429v5.14062c0,.54639.05566.6167.98046.6167v.43408C359.73242,90.2124,359.24219,90.18457,358.752,90.18457Zm-.06982-7.67627a.74249.74249,0,1,1,.75635-.74219A.749.749,0,0,1,358.68213,82.5083Z" transform="translate(-8.2124 -49)"/>
      <path class="cls-2" d="M365.1377,85.50586a.58036.58036,0,0,1-.60254-.60205.6072.6072,0,0,1,.32226-.54639.35149.35149,0,0,0-.15429-.01416c-1.06446,0-1.65284,1.24658-1.65284,2.6333v2.15723c0,.50439.02832.65869,1.06494.65869h.29395v.43408c-.56055-.042-1.21875-.042-1.77881-.042l-1.59717.042v-.43408c.93848,0,1.09278,0,1.09278-.63037V85.4082c0-.68652-.11231-.78466-1.09278-.78466v-.43409l1.94727-.15429v1.541a1.96091,1.96091,0,0,1,1.72266-1.541.95584.95584,0,0,1,1.03662.85449A.58843.58843,0,0,1,365.1377,85.50586Z" transform="translate(-8.2124 -49)"/>
      <path class="cls-2" d="M369.6167,90.38086a3.10045,3.10045,0,0,1-3.01172-3.17969,3.13949,3.13949,0,0,1,3.04-3.25c1.07861,0,2.14307.54639,2.14307,1.499a.64461.64461,0,1,1-1.28907.01367.63243.63243,0,0,1,.65869-.644,2.28438,2.28438,0,0,0-1.499-.51855c-.74219,0-1.89111.58838-1.89111,2.87158,0,2.25537,1.23291,2.85742,1.9751,2.85742a1.82886,1.82886,0,0,0,1.835-1.4707c.02832-.084.05615-.14014.18213-.14014.042,0,.18212,0,.18212.14014A2.305,2.305,0,0,1,369.6167,90.38086Z" transform="translate(-8.2124 -49)"/>
      <path class="cls-2" d="M377.82178,90.38086V89.12012a1.91133,1.91133,0,0,1-1.80713,1.26074c-2.12891,0-2.12891-1.2749-2.12891-2.36768V85.91211c0-1.24658,0-1.28857-1.09277-1.28857v-.43409l2.05908-.15429v4.65039c0,.72851.05615,1.38672,1.23291,1.38672,1.02246,0,1.69483-.95215,1.69483-2.1709V85.4082c0-.68652-.11231-.78466-1.09278-.78466v-.43409l2.05908-.15429v4.97265c0,.68653.11231.78467,1.09278.78467v.43408Z" transform="translate(-8.2124 -49)"/>
      <path class="cls-2" d="M382.13184,90.18457l-1.54053.042v-.43408c.93848,0,1.09228,0,1.09228-.63037V85.394c0-.68652-.126-.7705-1.03662-.7705v-.43409l1.96143-.15429v5.14062c0,.54639.05566.6167.98047.6167v.43408C383.1123,90.2124,382.62207,90.18457,382.13184,90.18457ZM382.062,82.5083a.74249.74249,0,1,1,.75635-.74219A.749.749,0,0,1,382.062,82.5083Z" transform="translate(-8.2124 -49)"/>
      <path class="cls-2" d="M387.28418,90.38086a1.69475,1.69475,0,0,1-1.80664-1.89111V84.62354h-1.19092v-.30811c1.37256-.05615,1.793-1.55469,1.80713-2.70361h.3501v2.57763h2.00293v.43409h-2.00293v3.894c0,.23828,0,1.51269.93847,1.51269.51807,0,.93848-.53222.93848-1.56884v-.77h.3501v.79834C388.6709,89.38623,388.27881,90.38086,387.28418,90.38086Z" transform="translate(-8.2124 -49)"/>
    </g>
    <g>
      <path class="cls-2" d="M352.94336,58.0127a4.20464,4.20464,0,0,1,3.12744,1.3706,4.73145,4.73145,0,0,1,1.32275,3.42139,4.87291,4.87291,0,0,1-1.333,3.50683,4.4559,4.4559,0,0,1-6.44287.03418,4.8807,4.8807,0,0,1-1.30225-3.5205,4.69014,4.69014,0,0,1,1.50391-3.60254A4.43653,4.43653,0,0,1,352.94336,58.0127Zm-.12988.499a2.44583,2.44583,0,0,0-1.9961.92285,5.21664,5.21664,0,0,0-.93652,3.36328,5.50653,5.50653,0,0,0,.9707,3.49317,2.39861,2.39861,0,0,0,1.96875.92968,2.68941,2.68941,0,0,0,2.15674-1.01855,4.96737,4.96737,0,0,0,.85108-3.21289,5.61036,5.61036,0,0,0-.93653-3.54785A2.52627,2.52627,0,0,0,352.81348,58.51172Z" transform="translate(-8.2124 -49)"/>
      <path class="cls-2" d="M363.41064,67.64844V66.3877a1.91132,1.91132,0,0,1-1.80712,1.26074c-2.12891,0-2.12891-1.2749-2.12891-2.36768V63.17969c0-1.24658,0-1.28858-1.09277-1.28858V61.457l2.05908-.1543v4.6504c0,.72851.05615,1.38671,1.23291,1.38671,1.02246,0,1.69482-.95214,1.69482-2.17089V62.67529c0-.686-.1123-.78418-1.09277-.78418V61.457l2.05908-.1543v4.97266c0,.68652.11231.78467,1.09277.78467v.43408Z" transform="translate(-8.2124 -49)"/>
      <path class="cls-2" d="M368.98145,67.64844a1.69476,1.69476,0,0,1-1.80665-1.89112V61.89111h-1.19091V61.583c1.37256-.05615,1.793-1.55469,1.80713-2.70362h.35009V61.457H370.144v.43408h-2.00293v3.89405c0,.23828,0,1.51269.93848,1.51269.51807,0,.93848-.53222.93848-1.56885v-.77h.35009v.79834C370.36816,66.65381,369.97607,67.64844,368.98145,67.64844Z" transform="translate(-8.2124 -49)"/>
      <path class="cls-2" d="M375.33789,67.64844a1.90359,1.90359,0,0,1-1.72314-.981V69.147c0,.63037.15429.63037,1.09277.63037v.43409l-1.583-.042-1.56885.042v-.43409c.93848,0,1.09278,0,1.09278-.63037V62.59131c0-.61621-.09815-.7002-1.09278-.7002V61.457l2.01709-.1543v.92432a2.52534,2.52534,0,0,1,1.96143-.92432,3.06558,3.06558,0,0,1,2.92725,3.16553A3.15689,3.15689,0,0,1,375.33789,67.64844Zm.084-5.99561a2.10018,2.10018,0,0,0-1.80713,1.12061v3.124a.73492.73492,0,0,0,.19629.58838,1.74561,1.74561,0,0,0,1.4707.854c1.03662,0,2.01709-1.17627,2.01709-2.87158C377.29883,62.88574,376.44434,61.65283,375.42188,61.65283Z" transform="translate(-8.2124 -49)"/>
      <path class="cls-2" d="M384.42432,67.64844V66.3877a1.91133,1.91133,0,0,1-1.80713,1.26074c-2.12891,0-2.12891-1.2749-2.12891-2.36768V63.17969c0-1.24658,0-1.28858-1.09277-1.28858V61.457l2.05908-.1543v4.6504c0,.72851.05615,1.38671,1.23291,1.38671,1.02246,0,1.69482-.95214,1.69482-2.17089V62.67529c0-.686-.1123-.78418-1.09277-.78418V61.457l2.05908-.1543v4.97266c0,.68652.11231.78467,1.09278.78467v.43408Z" transform="translate(-8.2124 -49)"/>
      <path class="cls-2" d="M389.99512,67.64844a1.69475,1.69475,0,0,1-1.80664-1.89112V61.89111h-1.19092V61.583c1.37256-.05615,1.793-1.55469,1.80713-2.70362h.3501V61.457h2.00292v.43408h-2.00292v3.89405c0,.23828,0,1.51269.93847,1.51269.51807,0,.93848-.53222.93848-1.56885v-.77h.3501v.79834C391.38184,66.65381,390.98975,67.64844,389.99512,67.64844Z" transform="translate(-8.2124 -49)"/>
    </g>
  </g>
  <g>
    <line class="cls-1" x1="90.26929" y1="16" x2="41.7876" y2="16"/>
    <polygon class="cls-2" points="85.63 10.274 84.675 11.3 89.732 15.999 84.675 20.699 85.63 21.724 91.788 15.999 85.63 10.274"/>
  </g>
  <g>
    <line class="cls-1" x1="411.7876" y1="26" x2="435.26929" y2="26"/>
    <polygon class="cls-2" points="430.63 31.726 429.675 30.7 434.732 26.001 429.675 21.301 430.63 20.276 436.788 26.001 430.63 31.726"/>
  </g>
  <g>
    <polyline class="cls-1" points="251.788 42.518 251.788 66 231.788 66"/>
    <polygon class="cls-2" points="246.062 47.157 247.087 48.112 251.786 43.056 256.487 48.112 257.512 47.157 251.786 41 246.062 47.157"/>
  </g>
  <g>
    <path class="cls-2" d="M207.42334,118.68994a5.09664,5.09664,0,0,1,0-10.18359,3.435,3.435,0,0,1,2.57715,1.20459l.70068-1.03614c.11182-.16845.168-.16845.22412-.16845.15381,0,.15381.09814.15381.33642v3.31983c0,.29394,0,.33594-.22412.33594-.1958,0-.1958-.042-.22412-.2378-.28027-2.04541-1.52686-3.31982-3.05371-3.31982-.85449,0-3.58594.47607-3.58594,4.66455,0,4.17383,2.74561,4.65039,3.6001,4.65039A3.17217,3.17217,0,0,0,210.729,115.104c.01416-.14013.01416-.22412.168-.22412.18213,0,.18213.09815.18213.23828A3.66227,3.66227,0,0,1,207.42334,118.68994Z" transform="translate(-8.2124 -49)"/>
    <path class="cls-2" d="M213.88916,118.33984l-1.55469.042v-.43409c.93848,0,1.09229,0,1.09229-.63037V110.0332c0-.686-.11182-.78418-1.09229-.78418v-.43457l2.01709-.15381v8.65674c0,.63037.15381.63037,1.09229.63037v.43409Z" transform="translate(-8.2124 -49)"/>
    <path class="cls-2" d="M219.252,118.53613a3.12694,3.12694,0,0,1-3.0957-3.15185,3.10746,3.10746,0,1,1,6.20557,0A3.12128,3.12128,0,0,1,219.252,118.53613Zm1.583-5.21093a1.83565,1.83565,0,0,0-1.583-.91065,1.87993,1.87993,0,0,0-1.59668.93848,4.01387,4.01387,0,0,0-.33642,1.91894,4.16865,4.16865,0,0,0,.3501,1.9751,1.83041,1.83041,0,0,0,1.59716.93848,1.80784,1.80784,0,0,0,1.625-1.03614,4.258,4.258,0,0,0,.30811-1.87744A3.84279,3.84279,0,0,0,220.835,113.3252Z" transform="translate(-8.2124 -49)"/>
    <path class="cls-2" d="M226.64355,118.53613a3.10044,3.10044,0,0,1-3.01171-3.17968,3.13949,3.13949,0,0,1,3.04-3.25c1.07812,0,2.14306.54638,2.14306,1.499a.64436.64436,0,1,1-1.28857.01367.63192.63192,0,0,1,.6582-.644,2.28437,2.28437,0,0,0-1.499-.51856c-.74219,0-1.89112.58838-1.89112,2.87159,0,2.25537,1.23291,2.85742,1.9751,2.85742a1.82917,1.82917,0,0,0,1.835-1.47071c.02832-.084.05615-.14013.18213-.14013.042,0,.18213,0,.18213.14013A2.305,2.305,0,0,1,226.64355,118.53613Z" transform="translate(-8.2124 -49)"/>
    <path class="cls-2" d="M234.919,118.33984l-1.51319.042v-.43409c.26612,0,.5044-.05615.5044-.32226a11.6513,11.6513,0,0,0-1.667-2.52149l-.89648.77051v1.44287c0,.63037.1543.63037,1.09277.63037v.43409l-1.541-.042-1.52686.042v-.43409c.93848,0,1.09278,0,1.09278-.63037V110.0332c0-.686-.11231-.78418-1.09278-.78418v-.43457l2.01709-.15381v6.72364l1.9751-1.709a.72574.72574,0,0,0,.30811-.54638c0-.18213-.14014-.33594-.40625-.3501v-.43408c.19628.01367,1.06494.042,1.56884.042a7.77492,7.77492,0,0,0,.981-.042v.43408a2.77434,2.77434,0,0,0-1.76514.75635,14.96036,14.96036,0,0,0-1.13476,1.00879c0,.042.07031.126.084.1538l1.7793,2.50733c.53223.74267.84033.74267,1.3584.74267v.43409Q235.52784,118.34008,234.919,118.33984Z" transform="translate(-8.2124 -49)"/>
  </g>
  <g>
    <line class="cls-1" x1="191.7876" y1="26" x2="220.2693" y2="26"/>
    <polygon class="cls-2" points="215.63 31.726 214.675 30.7 219.732 26.001 214.675 21.301 215.63 20.276 221.788 26.001 215.63 31.726"/>
  </g>
  <g>
    <line class="cls-1" x1="281.7876" y1="26" x2="310.26929" y2="26"/>
    <polygon class="cls-2" points="305.63 31.726 304.675 30.7 309.732 26.001 304.675 21.301 305.63 20.276 311.788 26.001 305.63 31.726"/>
  </g>
  <g>
    <polyline class="cls-1" points="296.788 26 296.788 76 66.788 76 66.788 36 90.269 36"/>
    <polygon class="cls-2" points="85.63 41.726 84.675 40.7 89.732 36.001 84.675 31.301 85.63 30.276 91.788 36.001 85.63 41.726"/>
  </g>
  <g>
    <path class="cls-2" d="M454.23242,69.52979a4.20461,4.20461,0,0,1,3.12744,1.3706,4.73144,4.73144,0,0,1,1.32276,3.42139,4.87292,4.87292,0,0,1-1.333,3.50683,4.4559,4.4559,0,0,1-6.44287.03418,4.8807,4.8807,0,0,1-1.30225-3.5205,4.69017,4.69017,0,0,1,1.50391-3.60254A4.43653,4.43653,0,0,1,454.23242,69.52979Zm-.12988.499a2.4458,2.4458,0,0,0-1.99609.92285,5.21658,5.21658,0,0,0-.93653,3.36328,5.50646,5.50646,0,0,0,.97071,3.49317,2.39861,2.39861,0,0,0,1.96875.92968,2.68941,2.68941,0,0,0,2.15673-1.01855,4.96731,4.96731,0,0,0,.85108-3.21289,5.6103,5.6103,0,0,0-.93653-3.54785A2.52625,2.52625,0,0,0,454.10254,70.02881Z" transform="translate(-8.2124 -49)"/>
    <path class="cls-2" d="M464.69971,79.16553V77.90479a1.91133,1.91133,0,0,1-1.80713,1.26074c-2.12891,0-2.12891-1.2749-2.12891-2.36768V74.69678c0-1.24658,0-1.28858-1.09277-1.28858v-.43408l2.05908-.1543v4.65039c0,.72852.05615,1.38672,1.23291,1.38672,1.02246,0,1.69482-.95214,1.69482-2.17089V74.19238c0-.686-.1123-.78418-1.09277-.78418v-.43408l2.05908-.1543v4.97266c0,.68652.11231.78467,1.09278.78467v.43408Z" transform="translate(-8.2124 -49)"/>
    <path class="cls-2" d="M470.27051,79.16553a1.69475,1.69475,0,0,1-1.80664-1.89112V73.4082H467.273v-.3081c1.37256-.05615,1.793-1.55469,1.80713-2.70362h.3501v2.57764h2.00293v.43408h-2.00293v3.89405c0,.23828,0,1.51269.93847,1.51269.51807,0,.93848-.53223.93848-1.56885v-.77h.3501v.79834C471.65723,78.1709,471.26514,79.16553,470.27051,79.16553Z" transform="translate(-8.2124 -49)"/>
    <path class="cls-2" d="M476.627,79.16553a1.90359,1.90359,0,0,1-1.72314-.981v2.47949c0,.63037.1543.63037,1.09277.63037v.43409l-1.583-.042-1.56884.042v-.43409c.93847,0,1.09277,0,1.09277-.63037V74.1084c0-.61621-.09814-.7002-1.09277-.7002v-.43408l2.01709-.1543v.92432a2.5253,2.5253,0,0,1,1.96142-.92432,3.06558,3.06558,0,0,1,2.92725,3.16553A3.15688,3.15688,0,0,1,476.627,79.16553Zm.084-5.99561a2.10018,2.10018,0,0,0-1.80713,1.12061v3.124a.73492.73492,0,0,0,.19629.58838,1.74562,1.74562,0,0,0,1.4707.854c1.03662,0,2.01709-1.17627,2.01709-2.87158C478.58789,74.40283,477.7334,73.16992,476.71094,73.16992Z" transform="translate(-8.2124 -49)"/>
    <path class="cls-2" d="M485.71338,79.16553V77.90479a1.91133,1.91133,0,0,1-1.80713,1.26074c-2.12891,0-2.12891-1.2749-2.12891-2.36768V74.69678c0-1.24658,0-1.28858-1.09277-1.28858v-.43408l2.05908-.1543v4.65039c0,.72852.05615,1.38672,1.23291,1.38672,1.02246,0,1.69483-.95214,1.69483-2.17089V74.19238c0-.686-.11231-.78418-1.09278-.78418v-.43408l2.05909-.1543v4.97266c0,.68652.1123.78467,1.09277.78467v.43408Z" transform="translate(-8.2124 -49)"/>
    <path class="cls-2" d="M491.28418,79.16553a1.69476,1.69476,0,0,1-1.80664-1.89112V73.4082h-1.19092v-.3081c1.37256-.05615,1.793-1.55469,1.80713-2.70362h.3501v2.57764h2.00293v.43408h-2.00293v3.89405c0,.23828,0,1.51269.93847,1.51269.51807,0,.93848-.53223.93848-1.56885v-.77h.3501v.79834C492.6709,78.1709,492.27881,79.16553,491.28418,79.16553Z" transform="translate(-8.2124 -49)"/>
    <path class="cls-2" d="M496.25391,79.16553a2.09366,2.09366,0,0,1-1.541-.60254,3.22283,3.22283,0,0,0-.28027.32226c-.26612.26612-.27979.28028-.3501.28028-.15381,0-.15381-.09815-.15381-.33643V76.98c0-.25195,0-.3501.18213-.3501.14014,0,.15381.05616.1958.23828.26611,1.19043.77051,1.98877,1.94727,1.98877,1.09277,0,1.583-.56005,1.583-1.27441,0-1.00879-1.14843-1.23291-1.457-1.28857a3.67123,3.67123,0,0,1-1.84912-.64454,1.49283,1.49283,0,0,1-.602-1.19043c0-.78466.53223-1.72314,2.24121-1.72314a2.1581,2.1581,0,0,1,1.31641.39209,1.75645,1.75645,0,0,0,.23828-.22412c.18164-.168.21-.168.28027-.168.1543,0,.1543.09814.1543.33643v1.41455c0,.26611,0,.33593-.18262.33593,0,0-.15429,0-.168-.126a1.54529,1.54529,0,0,0-1.63867-1.69483c-1.20459,0-1.56885.57422-1.56885,1.06446,0,.8125.938.99463,1.72315,1.14892a2.85732,2.85732,0,0,1,1.59668.67237,1.80744,1.80744,0,0,1,.58789,1.33056C498.50879,78.22656,497.86426,79.16553,496.25391,79.16553Z" transform="translate(-8.2124 -49)"/>
  </g>
  <g>
    <path class="cls-2" d="M10.3418,68.1377c-.53223,0-1.63916,0-2.1294.042v-.43408h.36426c1.10645,0,1.14893-.1543,1.14893-.6587V59.70508c0-.5044-.04248-.6582-1.14893-.6582H8.2124V58.6123c.49024.042,1.59717.042,2.14307.042.53271,0,1.63916,0,2.12939-.042v.43458h-.36425c-1.10645,0-1.14844.1538-1.14844.6582v7.38183c0,.5044.042.6587,1.14844.6587h.36425v.43408C11.99463,68.1377,10.88818,68.1377,10.3418,68.1377Z" transform="translate(-8.2124 -49)"/>
    <path class="cls-2" d="M18.79932,68.1377l-1.583.042v-.43408c.93848,0,1.09277,0,1.09277-.63038V63.85156c0-.79883-.15429-1.55517-1.03662-1.55517a2.04594,2.04594,0,0,0-1.89111,2.24121v2.57763c0,.63038.15429.63038,1.09277.63038v.43408l-1.56885-.042-1.583.042v-.43408c.93847,0,1.09277,0,1.09277-.63038v-3.7539c0-.68653-.11231-.78467-1.09277-.78467v-.43408l1.97509-.1543V63.459a2.20825,2.20825,0,0,1,2.07325-1.4707,1.86689,1.86689,0,0,1,1.4707.51856c.43408.5039.43408.93847.43408,2.14306v2.6753c.01416.42041.36426.42041,1.09277.42041v.43408Z" transform="translate(-8.2124 -49)"/>
    <path class="cls-2" d="M24.83252,68.334a1.90359,1.90359,0,0,1-1.72314-.98095v2.47949c0,.63037.15429.63037,1.09277.63037V70.897l-1.583-.042-1.56885.042v-.43408c.93848,0,1.09278,0,1.09278-.63037V63.27686c0-.61622-.09815-.7002-1.09278-.7002v-.43408l2.01709-.1543v.92481a2.52354,2.52354,0,0,1,1.96094-.92481,3.06546,3.06546,0,0,1,2.92773,3.166A3.15676,3.15676,0,0,1,24.83252,68.334Zm.084-5.9956a2.10019,2.10019,0,0,0-1.80712,1.1206v3.124a.73347.73347,0,0,0,.19628.58789,1.74446,1.74446,0,0,0,1.47071.85449c1.03662,0,2.01709-1.17627,2.01709-2.87109C26.79346,63.57129,25.939,62.33838,24.9165,62.33838Z" transform="translate(-8.2124 -49)"/>
    <path class="cls-2" d="M33.91943,68.334V67.07324A1.91131,1.91131,0,0,1,32.1123,68.334c-2.1289,0-2.1289-1.2749-2.1289-2.36767V63.86523c0-1.24658,0-1.28857-1.09277-1.28857v-.43408l2.05908-.1543v4.65039c0,.72852.05615,1.38672,1.23291,1.38672,1.02246,0,1.69482-.95215,1.69482-2.1709V63.36133c0-.68653-.1123-.78467-1.09277-.78467v-.43408l2.05908-.1543v4.97266c0,.68652.1123.78467,1.09277.78467v.43408Z" transform="translate(-8.2124 -49)"/>
    <path class="cls-2" d="M39.48975,68.334a1.69506,1.69506,0,0,1-1.80713-1.89111V62.57666H36.49219v-.30811c1.37256-.05615,1.793-1.55468,1.80713-2.70361h.35009v2.57764h2.00293v.43408H38.64941v3.894c0,.23828,0,1.5127.93848,1.5127.51807,0,.93848-.53223.93848-1.56885v-.77h.35009v.79834C40.87646,67.33936,40.48438,68.334,39.48975,68.334Z" transform="translate(-8.2124 -49)"/>
    <path class="cls-2" d="M44.45947,68.334a2.09307,2.09307,0,0,1-1.541-.60253,3.22246,3.22246,0,0,0-.28028.32226c-.26611.26611-.27978.28027-.35009.28027-.15381,0-.15381-.09814-.15381-.33642V66.14844c0-.252,0-.3501.18213-.3501.13964,0,.1538.05615.1958.23828.26611,1.19043.7705,1.98877,1.94726,1.98877,1.09229,0,1.58252-.56006,1.58252-1.27441,0-1.00879-1.14844-1.23291-1.45654-1.28858a3.67314,3.67314,0,0,1-1.84912-.64453,1.49283,1.49283,0,0,1-.60205-1.19043c0-.78467.53222-1.72314,2.24121-1.72314a2.15806,2.15806,0,0,1,1.3164.39209,1.78651,1.78651,0,0,0,.23829-.22412c.18212-.168.21-.168.28027-.168.15381,0,.15381.09814.15381.33593v1.415c0,.26612,0,.33594-.18213.33594,0,0-.15381,0-.168-.126a1.54528,1.54528,0,0,0-1.63867-1.69482c-1.20459,0-1.56885.57422-1.56885,1.06445,0,.8125.93848.99463,1.72266,1.14893a2.85592,2.85592,0,0,1,1.59716.67236,1.80743,1.80743,0,0,1,.58838,1.33057C46.71484,67.39551,46.07031,68.334,44.45947,68.334Z" transform="translate(-8.2124 -49)"/>
  </g>
</svg>
