<svg id="Layer_1" data-name="Layer 1" xmlns="http://www.w3.org/2000/svg" viewBox="0 0 289.74059 170.74023">
  <defs>
    <style>
      .cls-1 {
        fill: #8ff4dd;
      }

      .cls-2, .cls-3 {
        fill: none;
        stroke: #8ff4dd;
        stroke-miterlimit: 10;
      }

      .cls-2 {
        stroke-width: 2px;
      }

      .cls-3 {
        stroke-width: 3px;
      }
    </style>
  </defs>
  <title>MooreToMealy</title>
  <path class="cls-1" d="M280.39307,112.91553a9.01552,9.01552,0,0,1-6.62305-2.52c-1.188,1.9082-1.2959,2.05176-1.2959,2.05176-.252.396-.28808.46826-.54.46826-.396,0-.396-.252-.396-.86377v-7.19922c0-.648,0-.8999.46826-.8999a.37475.37475,0,0,1,.43164.35986,7.284,7.284,0,0,0,2.23193,5.54346,8.68215,8.68215,0,0,0,5.687,1.94384,4.93528,4.93528,0,0,0,4.82373-5.14746,5.25762,5.25762,0,0,0-1.11621-3.31152,4.77924,4.77924,0,0,0-3.05957-1.83594c-2.51953-.61181-4.35547-1.04394-4.75146-1.188a6.973,6.973,0,0,1,2.30371-13.57031,7.406,7.406,0,0,1,5.75928,2.52l1.26025-2.05176c.252-.43213.2876-.46826.53955-.46826.396,0,.396.252.396.86426V94.8457c0,.68409,0,.86377-.46778.86377-.396,0-.396-.21582-.43213-.43164-.21582-1.62012-1.00781-7.52344-7.019-7.52344a4.70525,4.70525,0,0,0-1.11572,9.28711l4.60742,1.11573a7.36487,7.36487,0,0,1,5.39942,7.271A7.2164,7.2164,0,0,1,280.39307,112.91553Z" transform="translate(-28.25951 -15.62354)"/>
  <g>
    <line class="cls-2" x1="121.74049" y1="84.37646" x2="169.57149" y2="84.37648"/>
    <polygon class="cls-1" points="162.945 92.556 161.58 91.091 168.804 84.378 161.58 77.664 162.945 76.199 171.74 84.378 162.945 92.556"/>
  </g>
  <g>
    <path class="cls-2" d="M137.4999,100.0001a37.5,37.5,0,1,1-37.5-37.5h0a37.37836,37.37836,0,0,1,37.5,37.25632Q137.50029,99.87828,137.4999,100.0001Z" transform="translate(-28.25951 -15.62354)"/>
    <path class="cls-3" d="M29.00457,28.44582A155.05381,155.05381,0,0,1,74.75063,68.30464" transform="translate(-28.25951 -15.62354)"/>
    <polygon class="cls-1" points="50.002 37.387 47.012 37.114 45.678 51.845 31.081 49.438 30.596 52.402 48.374 55.329 50.002 37.387"/>
    <g>
      <path class="cls-3" d="M29.00457,171.96065a155.05366,155.05366,0,0,0,45.74606-39.85882" transform="translate(-28.25951 -15.62354)"/>
      <polygon class="cls-1" points="50.002 131.772 47.012 132.046 45.678 117.314 31.081 119.721 30.596 116.758 48.374 113.831 50.002 131.772"/>
    </g>
    <g>
      <path class="cls-1" d="M62.2666,31.30762c-.79785,0-2.33056,0-3.06543.063v-.65088c.90283-.021,1.36475-.37793,1.36475-.62989a.72354.72354,0,0,0-.105-.23095l-3.31739-5.01807L54.16211,29.25c-.147.231-.21.31494-.21.50391,0,.37793.35693.94482,1.32275.96582v.65088c-.75586-.063-1.91064-.063-2.6875-.063l-2.33056.063v-.65088c2.1206,0,2.75048-.96582,3.04443-1.38575l3.44336-5.08105L52.88135,18.416c-.39893-.58789-.79785-.73487-1.95264-.73487h-.39892v-.65088l2.72949.063c.79785,0,2.33056,0,3.06543-.063v.65088c-.90283.021-1.36475.37793-1.36475.62989a.86677.86677,0,0,0,.147.31494l2.7085,4.05224L60.209,19.12988c.147-.23095.189-.273.189-.48291,0-.48291-.46191-.94482-1.30176-.96582v-.65088c.83985.063,1.84766.063,2.6875.063l2.33057-.063v.65088a3.24875,3.24875,0,0,0-3.04444,1.36475l-2.87646,4.22021,4.43018,6.69776c.44091.65088.88183.75586,1.97363.75586h.39892v.65088Z" transform="translate(-28.25951 -15.62354)"/>
      <path class="cls-1" d="M68.648,38.32715c-.48926,0-1.5542,0-1.98242.03662v-.37939h.3916c1.10156,0,1.13818-.147,1.13818-.58741V31.05811a3.669,3.669,0,0,1-1.603.31787v-.3794a3.02334,3.02334,0,0,0,2.227-.7832c.28125,0,.28125.0249.28125.31836V37.397c0,.45264.03711.58741,1.13818.58741h.3916v.37939C70.20215,38.32715,69.1377,38.32715,68.648,38.32715Z" transform="translate(-28.25951 -15.62354)"/>
    </g>
    <g>
      <path class="cls-1" d="M62.2666,179.30762c-.79785,0-2.33056,0-3.06543.063v-.65088c.90283-.021,1.36475-.37793,1.36475-.62989a.72354.72354,0,0,0-.105-.231l-3.31739-5.01807L54.16211,177.25c-.147.231-.21.31494-.21.50391,0,.37793.35693.94482,1.32275.96582v.65088c-.75586-.063-1.91064-.063-2.6875-.063l-2.33056.063v-.65088c2.1206,0,2.75048-.96582,3.04443-1.38575l3.44336-5.08105L52.88135,166.416c-.39893-.58789-.79785-.73487-1.95264-.73487h-.39892v-.65088l2.72949.063c.79785,0,2.33056,0,3.06543-.063v.65088c-.90283.021-1.36475.37793-1.36475.62989a.86677.86677,0,0,0,.147.31494l2.7085,4.05224,2.39355-3.54834c.147-.231.189-.273.189-.48291,0-.48291-.46191-.94482-1.30176-.96582v-.65088c.83985.063,1.84766.063,2.6875.063l2.33057-.063v.65088a3.24875,3.24875,0,0,0-3.04444,1.36475l-2.87646,4.22021,4.43018,6.69776c.44091.65088.88183.75586,1.97363.75586h.39892v.65088Z" transform="translate(-28.25951 -15.62354)"/>
      <path class="cls-1" d="M70.65479,186.36377h-4.54c0-.29346,0-.31836.13476-.45264l2.34961-2.61914a4.38505,4.38505,0,0,0,1.28467-2.7041c0-1.00391-.52588-1.99512-1.63965-1.99512a1.76454,1.76454,0,0,0-1.65185,1.24854.46468.46468,0,0,1,.15869-.01221.61915.61915,0,0,1,.64892.63623.64327.64327,0,1,1-1.28515-.03662,2.26138,2.26138,0,0,1,2.28857-2.21533,2.40412,2.40412,0,0,1,2.59424,2.37451c0,1.22363-.73438,1.88428-2.64307,3.57324l-1.29736,1.26026h2.20264a3.99554,3.99554,0,0,0,1.16259-.09766,4.017,4.017,0,0,0,.26905-1.08935h.30615Z" transform="translate(-28.25951 -15.62354)"/>
    </g>
    <g>
      <path class="cls-1" d="M88.09375,107.83252a5.2597,5.2597,0,0,1-3.86328-1.46973c-.69287,1.1128-.75586,1.19678-.75586,1.19678-.147.231-.168.273-.31494.273-.231,0-.231-.147-.231-.50391v-4.19922c0-.37793,0-.5249.273-.5249a.21879.21879,0,0,1,.25195.21,4.2484,4.2484,0,0,0,1.30176,3.2334,5.06384,5.06384,0,0,0,3.31738,1.13379,2.87864,2.87864,0,0,0,2.81348-3.00244,3.067,3.067,0,0,0-.65088-1.93164,2.78853,2.78853,0,0,0-1.78467-1.0708c-1.46972-.35694-2.54052-.60889-2.77148-.69287A4.06735,4.06735,0,0,1,87.023,92.56836a4.32024,4.32024,0,0,1,3.35937,1.46973l.73487-1.19678c.147-.25195.168-.27295.31494-.27295.231,0,.231.147.231.50391v4.22021c0,.39893,0,.50391-.27295.50391-.231,0-.231-.126-.252-.252-.126-.94482-.58789-4.38818-4.09423-4.38818a2.74449,2.74449,0,0,0-.65088,5.417l2.6875.65088A4.29594,4.29594,0,0,1,92.23,103.46533,4.20907,4.20907,0,0,1,88.09375,107.83252Z" transform="translate(-28.25951 -15.62354)"/>
      <path class="cls-1" d="M102.625,92.42139l-7.15967,19.77832c-.063.21-.147.41992-.44092.41992a.42116.42116,0,0,1-.41992-.41992,1.26976,1.26976,0,0,1,.105-.37793l7.15967-19.77832c.063-.21.147-.41992.44092-.41992a.42115.42115,0,0,1,.41992.41992A1.26976,1.26976,0,0,1,102.625,92.42139Z" transform="translate(-28.25951 -15.62354)"/>
      <path class="cls-1" d="M116.73633,95.0459l-4.05225,6.59277v4.05225c0,.81885.063,1.02881,1.67969,1.02881h.48291v.65088c-.75586-.063-2.24658-.063-3.06543-.063s-2.30957,0-3.06543.063v-.65088h.50391c1.6167,0,1.65869-.231,1.65869-.98682v-4.09424L106.46924,94.458c-.33594-.5459-.50391-.77686-1.93164-.77686h-.37793v-.65088l2.72949.063c.81885,0,2.35156,0,3.10742-.063v.65088c-.94482,0-1.46972.084-1.46972.5249,0,.105,0,.147.147.35694l3.80029,6.19385,3.46436-5.627a1.31446,1.31446,0,0,0,.21-.62988c0-.41992-.33594-.81885-1.19678-.81885v-.65088l2.41455.063c.5669,0,1.40674-.021,2.05762-.063v.65088A2.9056,2.9056,0,0,0,116.73633,95.0459Z" transform="translate(-28.25951 -15.62354)"/>
    </g>
  </g>
  <g>
    <path class="cls-2" d="M316.9999,100.0001a37.5,37.5,0,1,1-37.5-37.5h0a37.37836,37.37836,0,0,1,37.5,37.25632Q317.00029,99.87828,316.9999,100.0001Z" transform="translate(-28.25951 -15.62354)"/>
    <path class="cls-3" d="M208.50457,28.44582a155.05381,155.05381,0,0,1,45.74606,39.85882" transform="translate(-28.25951 -15.62354)"/>
    <polygon class="cls-1" points="229.502 37.387 226.512 37.114 225.178 51.845 210.581 49.438 210.096 52.402 227.874 55.329 229.502 37.387"/>
    <g>
      <path class="cls-3" d="M208.50457,171.96065a155.05366,155.05366,0,0,0,45.74606-39.85882" transform="translate(-28.25951 -15.62354)"/>
      <polygon class="cls-1" points="229.502 131.772 226.512 132.046 225.178 117.314 210.581 119.721 210.096 116.758 227.874 113.831 229.502 131.772"/>
    </g>
    <g>
      <path class="cls-1" d="M241.7666,31.30762c-.79785,0-2.33056,0-3.06543.063v-.65088c.90283-.021,1.36475-.37793,1.36475-.62989a.72354.72354,0,0,0-.105-.23095l-3.31739-5.01807L233.66211,29.25c-.147.231-.21.31494-.21.50391,0,.37793.35693.94482,1.32275.96582v.65088c-.75586-.063-1.91064-.063-2.6875-.063l-2.33056.063v-.65088c2.1206,0,2.75048-.96582,3.04443-1.38575l3.44336-5.08105L232.38135,18.416c-.39893-.58789-.79785-.73487-1.95264-.73487h-.39892v-.65088l2.72949.063c.79785,0,2.33056,0,3.06543-.063v.65088c-.90283.021-1.36475.37793-1.36475.62989a.86677.86677,0,0,0,.147.31494l2.7085,4.05224,2.39355-3.54834c.147-.23095.189-.273.189-.48291,0-.48291-.46191-.94482-1.30176-.96582v-.65088c.83985.063,1.84766.063,2.6875.063l2.33057-.063v.65088a3.24875,3.24875,0,0,0-3.04444,1.36475l-2.87646,4.22021,4.43018,6.69776c.44091.65088.88183.75586,1.97363.75586h.39892v.65088Z" transform="translate(-28.25951 -15.62354)"/>
      <path class="cls-1" d="M248.148,38.32715c-.48926,0-1.5542,0-1.98242.03662v-.37939h.3916c1.10156,0,1.13818-.147,1.13818-.58741V31.05811a3.669,3.669,0,0,1-1.603.31787v-.3794a3.02334,3.02334,0,0,0,2.22705-.7832c.28125,0,.28125.0249.28125.31836V37.397c0,.45264.03711.58741,1.13818.58741h.3916v.37939C249.70215,38.32715,248.6377,38.32715,248.148,38.32715Z" transform="translate(-28.25951 -15.62354)"/>
      <path class="cls-1" d="M260.3208,16.42139l-7.15967,19.77832c-.063.21-.147.41992-.44092.41992a.42116.42116,0,0,1-.41992-.41992,1.26976,1.26976,0,0,1,.105-.37793l7.15967-19.77832c.063-.21.147-.41992.44092-.41992a.42115.42115,0,0,1,.41992.41992A1.26976,1.26976,0,0,1,260.3208,16.42139Z" transform="translate(-28.25951 -15.62354)"/>
      <path class="cls-1" d="M274.43213,19.0459l-4.05225,6.59277v4.05225c0,.81885.063,1.02881,1.67969,1.02881h.48291v.65088c-.75586-.063-2.24658-.063-3.06543-.063s-2.30957,0-3.06543.063v-.65088h.50391c1.6167,0,1.65869-.231,1.65869-.98682V25.63867L264.165,18.458c-.33594-.5459-.50391-.77686-1.93164-.77686h-.37793v-.65088l2.72949.063c.81885,0,2.35156,0,3.10742-.063v.65088c-.94482,0-1.46972.084-1.46972.5249,0,.105,0,.147.147.35694l3.80029,6.19385,3.46436-5.627a1.31446,1.31446,0,0,0,.21-.62988c0-.41992-.33594-.81885-1.19678-.81885v-.65088l2.41455.063c.5669,0,1.40674-.021,2.05762-.063v.65088A2.9056,2.9056,0,0,0,274.43213,19.0459Z" transform="translate(-28.25951 -15.62354)"/>
    </g>
    <g>
      <path class="cls-1" d="M241.7666,179.30762c-.79785,0-2.33056,0-3.06543.063v-.65088c.90283-.021,1.36475-.37793,1.36475-.62989a.72354.72354,0,0,0-.105-.231l-3.31739-5.01807L233.66211,177.25c-.147.231-.21.31494-.21.50391,0,.37793.35693.94482,1.32275.96582v.65088c-.75586-.063-1.91064-.063-2.6875-.063l-2.33056.063v-.65088c2.1206,0,2.75048-.96582,3.04443-1.38575l3.44336-5.08105-3.86328-5.83691c-.39893-.58789-.79785-.73487-1.95264-.73487h-.39892v-.65088l2.72949.063c.79785,0,2.33056,0,3.06543-.063v.65088c-.90283.021-1.36475.37793-1.36475.62989a.86677.86677,0,0,0,.147.31494l2.7085,4.05224,2.39355-3.54834c.147-.231.189-.273.189-.48291,0-.48291-.46191-.94482-1.30176-.96582v-.65088c.83985.063,1.84766.063,2.6875.063l2.33057-.063v.65088a3.24875,3.24875,0,0,0-3.04444,1.36475l-2.87646,4.22021,4.43018,6.69776c.44091.65088.88183.75586,1.97363.75586h.39892v.65088Z" transform="translate(-28.25951 -15.62354)"/>
      <path class="cls-1" d="M250.15479,186.36377h-4.54c0-.29346,0-.31836.13476-.45264l2.34961-2.61914a4.38505,4.38505,0,0,0,1.28467-2.7041c0-1.00391-.52588-1.99512-1.63965-1.99512a1.76454,1.76454,0,0,0-1.65185,1.24854.46468.46468,0,0,1,.15869-.01221.61915.61915,0,0,1,.64892.63623.64327.64327,0,1,1-1.28515-.03662,2.26138,2.26138,0,0,1,2.28857-2.21533,2.40412,2.40412,0,0,1,2.59424,2.37451c0,1.22363-.73438,1.88428-2.64307,3.57324l-1.29736,1.26026h2.20264a3.99554,3.99554,0,0,0,1.16259-.09766,4.017,4.017,0,0,0,.269-1.08935h.30615Z" transform="translate(-28.25951 -15.62354)"/>
      <path class="cls-1" d="M260.3208,164.42139l-7.15967,19.77832c-.063.21-.147.41992-.44092.41992a.42116.42116,0,0,1-.41992-.41992,1.26976,1.26976,0,0,1,.105-.37793l7.15967-19.77832c.063-.21.147-.41992.44092-.41992a.42115.42115,0,0,1,.41992.41992A1.26976,1.26976,0,0,1,260.3208,164.42139Z" transform="translate(-28.25951 -15.62354)"/>
      <path class="cls-1" d="M274.43213,167.0459l-4.05225,6.59277v4.05225c0,.81885.063,1.02881,1.67969,1.02881h.48291v.65088c-.75586-.063-2.24658-.063-3.06543-.063s-2.30957,0-3.06543.063v-.65088h.50391c1.6167,0,1.65869-.231,1.65869-.98682v-4.09424L264.165,166.458c-.33594-.5459-.50391-.77686-1.93164-.77686h-.37793v-.65088l2.72949.063c.81885,0,2.35156,0,3.10742-.063v.65088c-.94482,0-1.46972.084-1.46972.5249,0,.105,0,.147.147.35694l3.80029,6.19385,3.46436-5.627a1.31446,1.31446,0,0,0,.21-.62988c0-.41992-.33594-.81885-1.19678-.81885v-.65088l2.41455.063c.5669,0,1.40674-.021,2.05762-.063v.65088A2.9056,2.9056,0,0,0,274.43213,167.0459Z" transform="translate(-28.25951 -15.62354)"/>
    </g>
  </g>
</svg>
