<svg id="Layer_1" data-name="Layer 1" xmlns="http://www.w3.org/2000/svg" viewBox="0 0 277 227">
  <defs>
    <style>
      .cls-1, .cls-3 {
        fill: none;
        stroke: #8ff4dd;
        stroke-miterlimit: 10;
      }

      .cls-1 {
        stroke-width: 2px;
      }

      .cls-2 {
        fill: #8ff4dd;
      }

      .cls-3 {
        stroke-width: 3px;
      }
    </style>
  </defs>
  <title>MooreStateDiagram</title>
  <path class="cls-1" d="M137.5,200A37.5,37.5,0,1,1,100,162.5,37.37836,37.37836,0,0,1,137.5,200Z" transform="translate(-61.5 -161.5)"/>
  <path class="cls-1" d="M337.5,200A37.5,37.5,0,1,1,300,162.5,37.37836,37.37836,0,0,1,337.5,200Z" transform="translate(-61.5 -161.5)"/>
  <path class="cls-1" d="M237.5,350A37.5,37.5,0,1,1,200,312.5,37.37836,37.37836,0,0,1,237.5,350Z" transform="translate(-61.5 -161.5)"/>
  <g>
    <path class="cls-2" d="M98.78564,189.48584a4.50979,4.50979,0,0,1-3.313-1.26025c-.59424.9541-.648,1.02636-.648,1.02636-.126.19825-.144.23389-.27.23389-.19824,0-.19824-.126-.19824-.43213v-3.60107c0-.32373,0-.4502.23388-.4502a.1878.1878,0,0,1,.21631.18018,3.64261,3.64261,0,0,0,1.11621,2.773,4.34167,4.34167,0,0,0,2.84473.97216,2.46872,2.46872,0,0,0,2.41308-2.5747,2.62956,2.62956,0,0,0-.55859-1.65674,2.38995,2.38995,0,0,0-1.53027-.918c-1.26026-.30615-2.17871-.52246-2.37647-.59424a3.488,3.488,0,0,1,1.15235-6.78808,3.70686,3.70686,0,0,1,2.88086,1.26025l.62988-1.02637c.126-.21582.144-.23388.27-.23388.19824,0,.19824.126.19824.43213v3.61914c0,.34228,0,.43212-.23389.43212-.19824,0-.19824-.10791-.21631-.2163-.10791-.81006-.5039-3.7627-3.51074-3.7627a2.35338,2.35338,0,0,0-.55859,4.645l2.30469.55811a3.68462,3.68462,0,0,1,2.70117,3.6372A3.60936,3.60936,0,0,1,98.78564,189.48584Z" transform="translate(-61.5 -161.5)"/>
    <path class="cls-2" d="M107.79688,194.09717a1.963,1.963,0,0,1-3.55909.15771,5.32231,5.32231,0,0,1-.47216-2.53027,5.6119,5.6119,0,0,1,.38818-2.38281,1.92422,1.92422,0,0,1,1.82666-1.24951,1.94658,1.94658,0,0,1,1.78467,1.17578,7.41947,7.41947,0,0,1,.03174,4.8291Zm-.5879-4.54541c-.1997-1.03955-.89257-1.22852-1.23925-1.22852-.26221,0-1.04981.09473-1.249,1.34375a14.08144,14.08144,0,0,0-.084,1.93164,14.3388,14.3388,0,0,0,.11523,2.21485c.18946,1.00781.8086,1.2705,1.21778,1.2705.47265,0,1.07129-.31494,1.22851-1.3125a20.32458,20.32458,0,0,0,.01074-4.21972Z" transform="translate(-61.5 -161.5)"/>
  </g>
  <line class="cls-1" x1="18.5" y1="38.5" x2="58.5" y2="38.5"/>
  <line class="cls-1" x1="218.5" y1="38.5" x2="258.5" y2="38.5"/>
  <line class="cls-1" x1="118.5" y1="188.5" x2="158.5" y2="188.5"/>
  <g>
    <path class="cls-2" d="M298.78564,190.48584a4.50979,4.50979,0,0,1-3.313-1.26025c-.59424.9541-.648,1.02636-.648,1.02636-.126.19825-.144.23389-.27.23389-.19824,0-.19824-.126-.19824-.43213v-3.60107c0-.32373,0-.4502.23388-.4502a.1878.1878,0,0,1,.21631.18018,3.64261,3.64261,0,0,0,1.11621,2.773,4.34167,4.34167,0,0,0,2.84473.97216,2.46872,2.46872,0,0,0,2.41308-2.5747,2.62956,2.62956,0,0,0-.55859-1.65674,2.38995,2.38995,0,0,0-1.53027-.918c-1.26026-.30615-2.17871-.52246-2.37647-.59424a3.488,3.488,0,0,1,1.15235-6.78808,3.70686,3.70686,0,0,1,2.88086,1.26025l.62988-1.02637c.126-.21582.144-.23388.27-.23388.19824,0,.19824.126.19824.43213v3.61914c0,.34228,0,.43212-.23389.43212-.19824,0-.19824-.10791-.21631-.2163-.10791-.81006-.5039-3.7627-3.51074-3.7627a2.35338,2.35338,0,0,0-.55859,4.645l2.30469.55811a3.68462,3.68462,0,0,1,2.70117,3.6372A3.60936,3.60936,0,0,1,298.78564,190.48584Z" transform="translate(-61.5 -161.5)"/>
    <path class="cls-2" d="M306.05371,196.05273c-.41992,0-1.333,0-1.70019.03125v-.32519h.33593c.94434,0,.97608-.126.97608-.50391v-5.43847a3.14022,3.14022,0,0,1-1.37549.27343v-.32568a2.59542,2.59542,0,0,0,1.91113-.67187c.24121,0,.24121.021.24121.27294v5.88965c0,.38819.03125.50391.97657.50391h.33593v.32519C307.38721,196.05273,306.47363,196.05273,306.05371,196.05273Z" transform="translate(-61.5 -161.5)"/>
  </g>
  <g>
    <path class="cls-2" d="M198.78564,340.48584a4.50979,4.50979,0,0,1-3.313-1.26025c-.59424.9541-.64795,1.02636-.64795,1.02636-.126.19825-.14405.23389-.27.23389-.19824,0-.19824-.126-.19824-.43213v-3.60107c0-.32373,0-.4502.23388-.4502a.1878.1878,0,0,1,.21631.18018,3.64261,3.64261,0,0,0,1.11621,2.773,4.34167,4.34167,0,0,0,2.84473.97216,2.46872,2.46872,0,0,0,2.41308-2.5747,2.62956,2.62956,0,0,0-.55859-1.65674,2.38995,2.38995,0,0,0-1.53027-.918c-1.26026-.30615-2.17871-.52246-2.37647-.59424a3.488,3.488,0,0,1,1.15235-6.78808,3.70686,3.70686,0,0,1,2.88086,1.26025l.62988-1.02637c.126-.21582.144-.23388.27-.23388.19824,0,.19824.126.19824.43213v3.61914c0,.34228,0,.43212-.23389.43212-.19824,0-.19824-.10791-.21631-.2163-.10791-.81006-.5039-3.7627-3.51074-3.7627a2.35338,2.35338,0,0,0-.55859,4.645l2.30469.55811a3.68462,3.68462,0,0,1,2.70117,3.6372A3.60936,3.60936,0,0,1,198.78564,340.48584Z" transform="translate(-61.5 -161.5)"/>
    <path class="cls-2" d="M207.77539,346.084h-3.89453c0-.252,0-.27294.11523-.38867l2.01563-2.24609a3.76162,3.76162,0,0,0,1.10254-2.32031c0-.86084-.45117-1.71094-1.40674-1.71094a1.51429,1.51429,0,0,0-1.41748,1.07031.41164.41164,0,0,1,.13672-.01025.53161.53161,0,0,1,.55664.5459.55187.55187,0,1,1-1.10254-.03174,1.93958,1.93958,0,0,1,1.96289-1.8999,2.062,2.062,0,0,1,2.22559,2.03662c0,1.0498-.62989,1.6167-2.26758,3.06543l-1.11231,1.08105h1.88965a3.42011,3.42011,0,0,0,.99707-.084,3.44144,3.44144,0,0,0,.231-.93409h.26221Z" transform="translate(-61.5 -161.5)"/>
  </g>
  <g>
    <path class="cls-2" d="M80.90234,205.99023a4.20566,4.20566,0,0,1,3.12793,1.37061,4.73106,4.73106,0,0,1,1.32227,3.42139,4.87292,4.87292,0,0,1-1.333,3.50683,4.45532,4.45532,0,0,1-6.44238.03418,4.881,4.881,0,0,1-1.30274-3.52051,4.69186,4.69186,0,0,1,1.50391-3.60253A4.43817,4.43817,0,0,1,80.90234,205.99023Zm-.12988.499a2.44711,2.44711,0,0,0-1.99609.92285,5.21946,5.21946,0,0,0-.93653,3.36328,5.50943,5.50943,0,0,0,.97071,3.49316,2.39989,2.39989,0,0,0,1.96875.92969,2.68967,2.68967,0,0,0,2.15722-1.01855,4.96745,4.96745,0,0,0,.85059-3.21289,5.6073,5.6073,0,0,0-.93652-3.54785A2.525,2.525,0,0,0,80.77246,206.48926Z" transform="translate(-61.5 -161.5)"/>
    <path class="cls-2" d="M91.37012,215.626v-1.26075A1.91148,1.91148,0,0,1,89.5625,215.626c-2.12891,0-2.12891-1.27491-2.12891-2.36768v-2.10107c0-1.24659,0-1.28858-1.09277-1.28858v-.43408l2.05957-.1543v4.65039c0,.72852.05566,1.38672,1.23242,1.38672,1.02246,0,1.69532-.95215,1.69532-2.1709v-2.49316c0-.68652-.11231-.78467-1.09278-.78467v-.43408l2.0586-.1543v4.97266c0,.68652.1123.78467,1.09277.78467v.43408Z" transform="translate(-61.5 -161.5)"/>
    <path class="cls-2" d="M96.94043,215.626a1.695,1.695,0,0,1-1.80664-1.89112v-3.86621H93.94336v-.3081c1.37207-.05616,1.793-1.55469,1.80664-2.70362h.35059v2.57764h2.00293v.43408H96.10059v3.894c0,.23828,0,1.51269.93847,1.51269.51758,0,.93848-.53223.93848-1.56885v-.77h.34961v.79834C98.32715,214.63135,97.93555,215.626,96.94043,215.626Z" transform="translate(-61.5 -161.5)"/>
    <path class="cls-2" d="M103.29688,215.626a1.9026,1.9026,0,0,1-1.72266-.981v2.47949c0,.63037.1543.63037,1.09277.63037v.43408l-1.583-.042-1.56933.042v-.43408c.93848,0,1.09277,0,1.09277-.63037v-6.55566c0-.61621-.09765-.7002-1.09277-.7002v-.43408l2.01758-.1543v.92481a2.52259,2.52259,0,0,1,1.96093-.92481,3.06611,3.06611,0,0,1,2.92774,3.166A3.15718,3.15718,0,0,1,103.29688,215.626Zm.084-5.99561a2.1,2.1,0,0,0-1.80664,1.12061v3.124a.73343.73343,0,0,0,.19629.58789,1.74384,1.74384,0,0,0,1.4707.85449c1.03613,0,2.0166-1.17627,2.0166-2.87109C105.25781,210.86328,104.40332,209.63037,103.38086,209.63037Z" transform="translate(-61.5 -161.5)"/>
    <path class="cls-2" d="M112.38379,215.626v-1.26075a1.91148,1.91148,0,0,1-1.80762,1.26075c-2.1289,0-2.1289-1.27491-2.1289-2.36768v-2.10107c0-1.24659,0-1.28858-1.09278-1.28858v-.43408l2.05957-.1543v4.65039c0,.72852.05567,1.38672,1.23242,1.38672,1.02247,0,1.69532-.95215,1.69532-2.1709v-2.49316c0-.68652-.11231-.78467-1.09278-.78467v-.43408l2.0586-.1543v4.97266c0,.68652.1123.78467,1.09277.78467v.43408Z" transform="translate(-61.5 -161.5)"/>
    <path class="cls-2" d="M117.9541,215.626a1.695,1.695,0,0,1-1.80664-1.89112v-3.86621H114.957v-.3081c1.37207-.05616,1.793-1.55469,1.80664-2.70362h.35059v2.57764h2.00293v.43408h-2.00293v3.894c0,.23828,0,1.51269.93847,1.51269.51758,0,.93848-.53223.93848-1.56885v-.77h.34961v.79834C119.34082,214.63135,118.94922,215.626,117.9541,215.626Z" transform="translate(-61.5 -161.5)"/>
    <path class="cls-2" d="M123.58984,219.36621a1.52618,1.52618,0,0,1-2.76757.12256,4.13086,4.13086,0,0,1-.36719-1.96729,4.37094,4.37094,0,0,1,.30176-1.853,1.49708,1.49708,0,0,1,1.42089-.97168,1.51442,1.51442,0,0,1,1.3877.91455,5.77255,5.77255,0,0,1,.02441,3.75488Zm-.457-3.53467c-.15527-.8081-.69433-.95508-.96386-.95508-.20411,0-.81641.07374-.97168,1.04493a16.99741,16.99741,0,0,0,.02539,3.22461c.14648.78369.62793.98779.94629.98779.36718,0,.833-.24512.95507-1.02051a15.80657,15.80657,0,0,0,.00879-3.28174Z" transform="translate(-61.5 -161.5)"/>
  </g>
  <g>
    <path class="cls-2" d="M280.90234,205.99023a4.20566,4.20566,0,0,1,3.12793,1.37061,4.73106,4.73106,0,0,1,1.32227,3.42139,4.87292,4.87292,0,0,1-1.333,3.50683,4.45532,4.45532,0,0,1-6.44238.03418,4.881,4.881,0,0,1-1.30274-3.52051,4.69186,4.69186,0,0,1,1.50391-3.60253A4.43817,4.43817,0,0,1,280.90234,205.99023Zm-.12988.499a2.44711,2.44711,0,0,0-1.99609.92285,5.21946,5.21946,0,0,0-.93653,3.36328,5.50943,5.50943,0,0,0,.97071,3.49316,2.39989,2.39989,0,0,0,1.96875.92969,2.68967,2.68967,0,0,0,2.15722-1.01855,4.96745,4.96745,0,0,0,.85059-3.21289,5.6073,5.6073,0,0,0-.93652-3.54785A2.525,2.525,0,0,0,280.77246,206.48926Z" transform="translate(-61.5 -161.5)"/>
    <path class="cls-2" d="M291.37012,215.626v-1.26075a1.91148,1.91148,0,0,1-1.80762,1.26075c-2.12891,0-2.12891-1.27491-2.12891-2.36768v-2.10107c0-1.24659,0-1.28858-1.09277-1.28858v-.43408l2.05957-.1543v4.65039c0,.72852.05566,1.38672,1.23242,1.38672,1.02246,0,1.69532-.95215,1.69532-2.1709v-2.49316c0-.68652-.11231-.78467-1.09278-.78467v-.43408l2.0586-.1543v4.97266c0,.68652.1123.78467,1.09277.78467v.43408Z" transform="translate(-61.5 -161.5)"/>
    <path class="cls-2" d="M296.94043,215.626a1.695,1.695,0,0,1-1.80664-1.89112v-3.86621h-1.19043v-.3081c1.37207-.05616,1.793-1.55469,1.80664-2.70362h.35059v2.57764h2.00293v.43408h-2.00293v3.894c0,.23828,0,1.51269.93847,1.51269.51758,0,.93848-.53223.93848-1.56885v-.77h.34961v.79834C298.32715,214.63135,297.93555,215.626,296.94043,215.626Z" transform="translate(-61.5 -161.5)"/>
    <path class="cls-2" d="M303.29688,215.626a1.9026,1.9026,0,0,1-1.72266-.981v2.47949c0,.63037.1543.63037,1.09277.63037v.43408l-1.583-.042-1.56933.042v-.43408c.93848,0,1.09277,0,1.09277-.63037v-6.55566c0-.61621-.09765-.7002-1.09277-.7002v-.43408l2.01758-.1543v.92481a2.52259,2.52259,0,0,1,1.96093-.92481,3.06611,3.06611,0,0,1,2.92774,3.166A3.15718,3.15718,0,0,1,303.29688,215.626Zm.084-5.99561a2.1,2.1,0,0,0-1.80664,1.12061v3.124a.73343.73343,0,0,0,.19629.58789,1.74384,1.74384,0,0,0,1.4707.85449c1.03613,0,2.0166-1.17627,2.0166-2.87109C305.25781,210.86328,304.40332,209.63037,303.38086,209.63037Z" transform="translate(-61.5 -161.5)"/>
    <path class="cls-2" d="M312.38379,215.626v-1.26075a1.91148,1.91148,0,0,1-1.80762,1.26075c-2.1289,0-2.1289-1.27491-2.1289-2.36768v-2.10107c0-1.24659,0-1.28858-1.09278-1.28858v-.43408l2.05957-.1543v4.65039c0,.72852.05567,1.38672,1.23242,1.38672,1.02247,0,1.69532-.95215,1.69532-2.1709v-2.49316c0-.68652-.11231-.78467-1.09278-.78467v-.43408l2.0586-.1543v4.97266c0,.68652.1123.78467,1.09277.78467v.43408Z" transform="translate(-61.5 -161.5)"/>
    <path class="cls-2" d="M317.9541,215.626a1.695,1.695,0,0,1-1.80664-1.89112v-3.86621H314.957v-.3081c1.37207-.05616,1.793-1.55469,1.80664-2.70362h.35059v2.57764h2.00293v.43408h-2.00293v3.894c0,.23828,0,1.51269.93847,1.51269.51758,0,.93848-.53223.93848-1.56885v-.77h.34961v.79834C319.34082,214.63135,318.94922,215.626,317.9541,215.626Z" transform="translate(-61.5 -161.5)"/>
    <path class="cls-2" d="M322.23438,220.10938c-.32618,0-1.03711,0-1.32227.02441v-.25293h.26074c.73535,0,.75977-.09815.75977-.39209v-4.22852a2.44416,2.44416,0,0,1-1.06934.21241v-.25342a2.01645,2.01645,0,0,0,1.48535-.52246c.1875,0,.1875.0166.1875.2124v4.57959c0,.30225.02442.39209.75977.39209h.26074v.25293C323.27148,220.10938,322.56055,220.10938,322.23438,220.10938Z" transform="translate(-61.5 -161.5)"/>
  </g>
  <g>
    <path class="cls-2" d="M180.90234,357.99023a4.20566,4.20566,0,0,1,3.12793,1.37061,4.73106,4.73106,0,0,1,1.32227,3.42139,4.87292,4.87292,0,0,1-1.333,3.50683,4.45532,4.45532,0,0,1-6.44238.03418,4.881,4.881,0,0,1-1.30274-3.52051,4.69186,4.69186,0,0,1,1.50391-3.60253A4.43817,4.43817,0,0,1,180.90234,357.99023Zm-.12988.499a2.44711,2.44711,0,0,0-1.99609.92285,5.21946,5.21946,0,0,0-.93653,3.36328,5.50943,5.50943,0,0,0,.97071,3.49316,2.39989,2.39989,0,0,0,1.96875.92969,2.68967,2.68967,0,0,0,2.15722-1.01855,4.96745,4.96745,0,0,0,.85059-3.21289,5.6073,5.6073,0,0,0-.93652-3.54785A2.525,2.525,0,0,0,180.77246,358.48926Z" transform="translate(-61.5 -161.5)"/>
    <path class="cls-2" d="M191.37012,367.626v-1.26075a1.91148,1.91148,0,0,1-1.80762,1.26075c-2.12891,0-2.12891-1.27491-2.12891-2.36768v-2.10107c0-1.24659,0-1.28858-1.09277-1.28858v-.43408l2.05957-.1543v4.65039c0,.72852.05566,1.38672,1.23242,1.38672,1.02246,0,1.69532-.95215,1.69532-2.1709v-2.49316c0-.68652-.11231-.78467-1.09278-.78467v-.43408l2.0586-.1543v4.97266c0,.68652.1123.78467,1.09277.78467v.43408Z" transform="translate(-61.5 -161.5)"/>
    <path class="cls-2" d="M196.94043,367.626a1.695,1.695,0,0,1-1.80664-1.89112v-3.86621h-1.19043v-.3081c1.37207-.05616,1.793-1.55469,1.80664-2.70362h.35059v2.57764h2.00293v.43408h-2.00293v3.894c0,.23828,0,1.51269.93847,1.51269.51758,0,.93848-.53223.93848-1.56885v-.77h.34961v.79834C198.32715,366.63135,197.93555,367.626,196.94043,367.626Z" transform="translate(-61.5 -161.5)"/>
    <path class="cls-2" d="M203.29688,367.626a1.9026,1.9026,0,0,1-1.72266-.981v2.47949c0,.63037.1543.63037,1.09277.63037v.43408l-1.583-.042-1.56933.042v-.43408c.93848,0,1.09277,0,1.09277-.63037v-6.55566c0-.61621-.09765-.7002-1.09277-.7002v-.43408l2.01758-.1543v.92481a2.52259,2.52259,0,0,1,1.96093-.92481,3.06611,3.06611,0,0,1,2.92774,3.166A3.15718,3.15718,0,0,1,203.29688,367.626Zm.084-5.99561a2.1,2.1,0,0,0-1.80664,1.12061v3.124a.73343.73343,0,0,0,.19629.58789,1.74384,1.74384,0,0,0,1.4707.85449c1.03613,0,2.0166-1.17627,2.0166-2.87109C205.25781,362.86328,204.40332,361.63037,203.38086,361.63037Z" transform="translate(-61.5 -161.5)"/>
    <path class="cls-2" d="M212.38379,367.626v-1.26075a1.91148,1.91148,0,0,1-1.80762,1.26075c-2.1289,0-2.1289-1.27491-2.1289-2.36768v-2.10107c0-1.24659,0-1.28858-1.09278-1.28858v-.43408l2.05957-.1543v4.65039c0,.72852.05567,1.38672,1.23242,1.38672,1.02247,0,1.69532-.95215,1.69532-2.1709v-2.49316c0-.68652-.11231-.78467-1.09278-.78467v-.43408l2.0586-.1543v4.97266c0,.68652.1123.78467,1.09277.78467v.43408Z" transform="translate(-61.5 -161.5)"/>
    <path class="cls-2" d="M217.9541,367.626a1.695,1.695,0,0,1-1.80664-1.89112v-3.86621H214.957v-.3081c1.37207-.05616,1.793-1.55469,1.80664-2.70362h.35059v2.57764h2.00293v.43408h-2.00293v3.894c0,.23828,0,1.51269.93847,1.51269.51758,0,.93848-.53223.93848-1.56885v-.77h.34961v.79834C219.34082,366.63135,218.94922,367.626,217.9541,367.626Z" transform="translate(-61.5 -161.5)"/>
    <path class="cls-2" d="M223.57324,372.13379h-3.02832c0-.1958,0-.2124.08985-.30225l1.56738-1.74658a2.92878,2.92878,0,0,0,.85644-1.8042c0-.66943-.35058-1.33056-1.09375-1.33056a1.176,1.176,0,0,0-1.10156.83251.304.304,0,0,1,.10547-.0083.413.413,0,0,1,.43262.42481.42872.42872,0,1,1-.85645-.0249,1.50785,1.50785,0,0,1,1.52637-1.47754,1.6036,1.6036,0,0,1,1.73047,1.584c0,.81641-.48926,1.25684-1.76367,2.38379l-.86524.84082h1.46973a2.65224,2.65224,0,0,0,.77539-.06543,2.68282,2.68282,0,0,0,.17969-.72656h.2041Z" transform="translate(-61.5 -161.5)"/>
  </g>
  <g>
    <line class="cls-3" x1="76.5" y1="39" x2="198.24649" y2="39"/>
    <polygon class="cls-2" points="188.306 51.27 186.26 49.072 197.095 39.003 186.26 28.931 188.306 26.733 201.5 39.003 188.306 51.27"/>
  </g>
  <g>
    <line class="cls-3" x1="160.82608" y1="154.30728" x2="218" y2="70"/>
    <polygon class="cls-2" points="176.56 152.967 175.89 150.04 161.475 153.356 159.22 138.735 156.253 139.195 159.002 157.002 176.56 152.967"/>
  </g>
  <g>
    <line class="cls-3" x1="59.82609" y1="72.6927" x2="117" y2="157"/>
    <polygon class="cls-2" points="55.251 87.806 58.218 88.267 60.47 73.647 74.888 76.962 75.558 74.035 57.998 70.002 55.251 87.806"/>
  </g>
</svg>
