<svg xmlns="http://www.w3.org/2000/svg" viewBox="0 0 143.67969 123.3699">
  <defs>
    <style>
      .cls-1, .cls-3, .cls-4, .cls-6 {
        fill: none;
        stroke: #8ff4dd;
      }

      .cls-1, .cls-6 {
        stroke-miterlimit: 10;
      }

      .cls-1, .cls-4, .cls-6 {
        stroke-width: 2px;
      }

      .cls-2, .cls-5 {
        fill: #8ff4dd;
      }

      .cls-2 {
        fill-rule: evenodd;
      }

      .cls-3 {
        stroke-width: 1.5px;
      }

      .cls-6 {
        stroke-linecap: square;
      }
    </style>
  </defs>
  <title>MultiplexerImplementationMintermCanonical</title>
  <g id="Layer_1" data-name="Layer 1">
    <polygon class="cls-1" points="84.909 121.235 84.909 21.235 114.909 46.235 114.909 96.235 84.909 121.235"/>
    <g>
      <path class="cls-2" d="M60.60764,78.88889l1.11111,1.35416a16.71871,16.71871,0,0,1,0,19.51389l-1.11111,1.35417h9.53125a19.22686,19.22686,0,0,0,7.56944-1.33681c3.29739-1.35042,6.96475-4.07959,9.82639-9.375L86.80556,90l.72916-.39931c-5.72395-10.592-14.75329-10.7118-17.39583-10.7118Zm3.26389,1.66666h6.26736c2.60232,0,10.15936-.07233,15.53819,9.44445-2.64821,4.68282-5.84515,7.04661-8.73264,8.22916a16.95891,16.95891,0,0,1-6.80555,1.21528h-6.25a18.169,18.169,0,0,0-.01736-18.88889Z" transform="translate(-15.09131 -28.76514)"/>
      <path class="cls-3" d="M91.11111,90a2.22222,2.22222,0,1,1-2.22222-2.22222A2.22222,2.22222,0,0,1,91.11111,90Z" transform="translate(-15.09131 -28.76514)"/>
      <line class="cls-4" x1="75.90869" y1="61.23486" x2="84.90869" y2="61.23486"/>
      <line class="cls-4" x1="49.90869" y1="55.23486" x2="34.90869" y2="55.23486"/>
      <line class="cls-4" x1="49.90869" y1="67.23486" x2="34.90869" y2="67.23486"/>
    </g>
    <g>
      <path class="cls-5" d="M63.88889,118.88889v22.22222H75.26455a11.11111,11.11111,0,0,0,0-22.22222Zm1.5873,1.5873h9.78836A9.19008,9.19008,0,0,1,84.52381,130,9.40935,9.40935,0,0,1,75,139.52381H65.47619Z" transform="translate(-15.09131 -28.76514)"/>
      <line class="cls-4" x1="70.90869" y1="101.23486" x2="84.90869" y2="101.23486"/>
      <line class="cls-4" x1="49.90869" y1="95.23486" x2="34.90869" y2="95.23486"/>
      <line class="cls-4" x1="49.90869" y1="107.23486" x2="34.90869" y2="107.23486"/>
    </g>
  </g>
  <g id="Layer_2" data-name="Layer 2">
    <line class="cls-1" x1="114.90869" y1="71.23486" x2="134.90869" y2="71.23486"/>
    <line class="cls-1" x1="94.90869" y1="29.23486" x2="94.90869" y2="9.23486"/>
    <path class="cls-5" d="M158.521,99.11572c-.15967-1.37939-.40967-1.939-1.9087-1.939h-1.1997c-.46973,0-.48975.06982-.48975.3999V100.105h.85986c.95948,0,1.05909-.32959,1.05909-1.16943h.25V101.584h-.25c0-.84912-.09961-1.16894-1.05909-1.16894h-.85986v2.4585c0,.3496,0,.47949.94971.47949h.32959v.31006c-.35938-.02979-1.269-.02979-1.67871-.02979-.39014,0-1.16944,0-1.51953.02979V103.353h.24023c.76953,0,.78955-.10987.78955-.46973V97.64648c0-.35986-.02-.46972-.78955-.46972h-.24023V96.8667h5.4873l.27979,2.249Z" transform="translate(-15.09131 -28.76514)"/>
    <path class="cls-5" d="M112.59863,35.8916c-.37988,0-1.07959,0-1.43945.02979v-.31006c.27,0,.82959,0,.82959-.29981a.72039.72039,0,0,0-.02979-.13964l-.52978-1.5293h-2.46875l-.45947,1.30957a.65848.65848,0,0,0-.02.1499c0,.25977.24951.50928.74951.50928v.31006l-1.14942-.02979-1.01953.02979v-.31006a1.038,1.038,0,0,0,1.11914-.66944L110.25,28.96533c.0498-.14013.07959-.20019.23975-.20019.15966,0,.17968.07031.23.20019l2.15869,6.24658c.10986.32959.25.39942.84961.39942h.17968v.31006Zm-2.40869-5.80713L109.07031,33.333h2.249Z" transform="translate(-15.09131 -28.76514)"/>
    <line class="cls-1" x1="104.90869" y1="38.23486" x2="104.90869" y2="9.23486"/>
    <path class="cls-5" d="M121.01953,35.92139h-3.918v-.31006h.23975c.76953,0,.78955-.10987.78955-.46973V29.87451c0-.35937-.02-.46972-.78955-.46972h-.23975v-.30958h3.65772a2.00673,2.00673,0,0,1,2.21924,1.689c0,.73975-.68995,1.37939-1.65918,1.56934a1.96171,1.96171,0,0,1,1.92871,1.73877A2.04386,2.04386,0,0,1,121.01953,35.92139Zm-.33008-6.5166H119.4502c-.46973,0-.48975.07031-.48975.3999v2.45849h1.44922a1.50721,1.50721,0,0,0,1.59912-1.479A1.32814,1.32814,0,0,0,120.68945,29.40479Zm.14991,3.07861h-1.87891v2.72851c0,.32959.02.39942.48975.39942h1.24951a1.568,1.568,0,0,0,.13965-3.12793Z" transform="translate(-15.09131 -28.76514)"/>
    <line class="cls-6" x1="84.90869" y1="41.23486" x2="9.90869" y2="41.23486"/>
    <line class="cls-6" x1="84.90869" y1="81.23486" x2="9.90869" y2="81.23486"/>
    <line class="cls-6" x1="34.90869" y1="67.23486" x2="9.90869" y2="67.23486"/>
    <polyline class="cls-6" points="34.909 41.235 34.909 55.235 34.909 95.235"/>
    <polyline class="cls-6" points="34.909 107.235 22.909 107.235 22.909 67.235"/>
    <circle class="cls-5" cx="34.90869" cy="41.23486" r="2.5"/>
    <circle class="cls-5" cx="34.90869" cy="55.23486" r="2.5"/>
    <circle class="cls-5" cx="22.90869" cy="67.23486" r="2.5"/>
    <path class="cls-5" d="M18.74951,72.92139h-3.6582v-.31006h.24023c.76953,0,.78955-.10987.78955-.46973V66.87451c0-.35937-.02-.46972-.78955-.46972h-.24023v-.30958h3.6582a3.27938,3.27938,0,0,1,3.05811,3.46827A3.20954,3.20954,0,0,1,18.74951,72.92139Zm1.53906-5.58692a2.15568,2.15568,0,0,0-1.81884-.92968h-.99952c-.46972,0-.48974.07031-.48974.3999v5.40722c0,.32959.02.39942.48974.39942h1.00928a2.19235,2.19235,0,0,0,1.7793-.84912,3.42837,3.42837,0,0,0,.5498-2.19873A3.86669,3.86669,0,0,0,20.28857,67.33447Z" transform="translate(-15.09131 -28.76514)"/>
    <path class="cls-5" d="M18.7793,99.14111a3.63625,3.63625,0,0,1,0-7.26562,2.452,2.452,0,0,1,1.83935.85937l.49951-.73974c.08008-.11963.12012-.11963.16016-.11963.10986,0,.10986.06982.10986.23974v2.36866c0,.21,0,.23974-.16015.23974-.13965,0-.13965-.02978-.15967-.16992-.2002-1.459-1.08936-2.36865-2.17871-2.36865-.60986,0-2.5586.33984-2.5586,3.32812,0,2.97852,1.9585,3.31836,2.56836,3.31836a2.26366,2.26366,0,0,0,2.23877-2.249c.00977-.09961.00977-.15967.12012-.15967.12988,0,.12988.06983.12988.16992A2.61333,2.61333,0,0,1,18.7793,99.14111Z" transform="translate(-15.09131 -28.76514)"/>
    <path class="cls-5" d="M19.31006,113.8916c-.39942,0-1.269,0-1.61865.02979v-.31006h.31982c.89941,0,.9292-.11963.9292-.47949v-5.17725a2.99349,2.99349,0,0,1-1.30908.25977v-.30957a2.46909,2.46909,0,0,0,1.81885-.63965c.23,0,.23.02.23.25976v5.60694c0,.36962.02978.47949.9292.47949h.31982v.31006C20.57959,113.8916,19.71,113.8916,19.31006,113.8916Z" transform="translate(-15.09131 -28.76514)"/>
  </g>
</svg>
