<svg xmlns="http://www.w3.org/2000/svg" viewBox="0 0 138.66943 119.3699">
  <defs>
    <style>
      .cls-1, .cls-2, .cls-4, .cls-6 {
        fill: none;
        stroke: #8ff4dd;
      }

      .cls-1, .cls-6 {
        stroke-miterlimit: 10;
      }

      .cls-1, .cls-2, .cls-6 {
        stroke-width: 2px;
      }

      .cls-3, .cls-5 {
        fill: #8ff4dd;
      }

      .cls-4 {
        stroke-width: 1.5px;
      }

      .cls-5 {
        fill-rule: evenodd;
      }

      .cls-6 {
        stroke-linecap: square;
      }
    </style>
  </defs>
  <title>MultiplexerImplementationBooleanEquation1</title>
  <g id="Layer_1" data-name="Layer 1">
    <polygon class="cls-1" points="79.898 117.235 79.898 17.235 109.898 42.235 109.898 92.235 79.898 117.235"/>
    <g>
      <path class="cls-2" d="M91.194,125H100m-36,0H50" transform="translate(-20.10156 -32.76514)"/>
      <path class="cls-3" d="M63.29824,112.54607v24.90786l1.1985-.59056,22.80615-11.11648v-1.49378L64.49674,113.13663Zm1.66747,2.6749L85.04486,125l-20.07915,9.779Z" transform="translate(-20.10156 -32.76514)"/>
      <path class="cls-4" d="M91.10681,125a2.2233,2.2233,0,1,1-2.22329-2.2233A2.2233,2.2233,0,0,1,91.10681,125Z" transform="translate(-20.10156 -32.76514)"/>
    </g>
    <g>
      <path class="cls-5" d="M60.60764,63.88889l1.11111,1.35416a16.71871,16.71871,0,0,1,0,19.51389l-1.11111,1.35417h9.53125a19.22686,19.22686,0,0,0,7.56944-1.33681c3.29739-1.35042,6.96475-4.07959,9.82639-9.375L86.80556,75l.72916-.39931c-5.72395-10.592-14.75329-10.7118-17.39583-10.7118Zm3.26389,1.66666h6.26736c2.60232,0,10.15936-.07233,15.53819,9.44445-2.64821,4.68282-5.84515,7.04661-8.73264,8.22916a16.95891,16.95891,0,0,1-6.80555,1.21528h-6.25a18.169,18.169,0,0,0-.01736-18.88889Z" transform="translate(-20.10156 -32.76514)"/>
      <line class="cls-2" x1="79.89844" y1="42.23486" x2="65.89844" y2="42.23486"/>
      <line class="cls-2" x1="44.89844" y1="36.23486" x2="29.89844" y2="36.23486"/>
      <line class="cls-2" x1="44.89844" y1="48.23486" x2="29.89844" y2="48.23486"/>
    </g>
  </g>
  <g id="Layer_2" data-name="Layer 2">
    <line class="cls-1" x1="109.89844" y1="67.23486" x2="129.89844" y2="67.23486"/>
    <line class="cls-1" x1="94.89844" y1="30.23486" x2="94.89844" y2="10.23486"/>
    <polyline class="cls-6" points="29.898 48.235 29.898 92.235 9.898 92.235"/>
    <line class="cls-6" x1="29.89844" y1="36.23486" x2="9.89844" y2="36.23486"/>
    <circle class="cls-3" cx="29.89844" cy="92.23486" r="2.5"/>
    <path class="cls-3" d="M158.521,99.11572c-.15967-1.37939-.40967-1.939-1.9087-1.939h-1.1997c-.46973,0-.48975.06982-.48975.3999V100.105h.85986c.95948,0,1.05909-.32959,1.05909-1.16943h.25V101.584h-.25c0-.84912-.09961-1.16894-1.05909-1.16894h-.85986v2.4585c0,.3496,0,.47949.94971.47949h.32959v.31006c-.35938-.02979-1.269-.02979-1.67871-.02979-.39014,0-1.16944,0-1.51953.02979V103.353h.24023c.76953,0,.78955-.10987.78955-.46973V97.64648c0-.35986-.02-.46972-.78955-.46972h-.24023V96.8667h5.4873l.27979,2.249Z" transform="translate(-20.10156 -32.76514)"/>
    <path class="cls-3" d="M117.59863,39.8916c-.37988,0-1.07959,0-1.43945.02979v-.31006c.27,0,.82959,0,.82959-.29981a.72039.72039,0,0,0-.02979-.13964l-.52978-1.5293h-2.46875l-.45947,1.30957a.65848.65848,0,0,0-.02.1499c0,.25977.24951.50928.74951.50928v.31006l-1.14942-.02979-1.01953.02979v-.31006a1.038,1.038,0,0,0,1.11914-.66944L115.25,32.96533c.0498-.14013.07959-.20019.23975-.20019.15966,0,.17968.07031.23.20019l2.15869,6.24658c.10986.32959.25.39942.84961.39942h.17968v.31006Zm-2.40869-5.80713L114.07031,37.333h2.249Z" transform="translate(-20.10156 -32.76514)"/>
    <path class="cls-3" d="M23.7793,128.14111a3.63625,3.63625,0,0,1,0-7.26562,2.452,2.452,0,0,1,1.83935.85937l.49951-.73974c.08008-.11963.12012-.11963.16016-.11963.10986,0,.10986.06982.10986.23974v2.36866c0,.21,0,.23974-.16015.23974-.13965,0-.13965-.02978-.15967-.16992-.2002-1.459-1.08936-2.36865-2.17871-2.36865-.60986,0-2.5586.33984-2.5586,3.32812,0,2.97852,1.9585,3.31836,2.56836,3.31836a2.26366,2.26366,0,0,0,2.23877-2.249c.00977-.09961.00977-.15967.12012-.15967.12988,0,.12988.06983.12988.16992A2.61333,2.61333,0,0,1,23.7793,128.14111Z" transform="translate(-20.10156 -32.76514)"/>
    <path class="cls-3" d="M24.01953,71.92139h-3.918v-.31006h.23975c.76953,0,.78955-.10987.78955-.46973V65.87451c0-.35937-.02-.46972-.78955-.46972h-.23975v-.30958h3.65772a2.00673,2.00673,0,0,1,2.21924,1.689c0,.73975-.68995,1.37939-1.65918,1.56934a1.96171,1.96171,0,0,1,1.92871,1.73877A2.04386,2.04386,0,0,1,24.01953,71.92139Zm-.33008-6.5166H22.4502c-.46973,0-.48975.07031-.48975.3999v2.45849h1.44922a1.50721,1.50721,0,0,0,1.59912-1.479A1.32814,1.32814,0,0,0,23.68945,65.40479Zm.14991,3.07861H21.96045v2.72851c0,.32959.02.39942.48975.39942h1.24951a1.568,1.568,0,0,0,.13965-3.12793Z" transform="translate(-20.10156 -32.76514)"/>
  </g>
</svg>
