<svg xmlns="http://www.w3.org/2000/svg" viewBox="0 0 152.46973 123.3699">
  <defs>
    <style>
      .cls-1, .cls-2, .cls-4 {
        fill: none;
        stroke: #8ff4dd;
      }

      .cls-1 {
        stroke-miterlimit: 10;
      }

      .cls-1, .cls-2 {
        stroke-width: 2px;
      }

      .cls-3 {
        fill: #8ff4dd;
      }

      .cls-4 {
        stroke-width: 1.5px;
      }
    </style>
  </defs>
  <title>MultiplexerImplementationBooleanEquation2</title>
  <g id="Layer_1" data-name="Layer 1">
    <polygon class="cls-1" points="93.699 121.235 93.699 21.235 123.699 46.235 123.699 96.235 93.699 121.235"/>
    <g>
      <path class="cls-2" d="M66.194,70H75M39,70H25" transform="translate(-6.30127 -28.76514)"/>
      <path class="cls-3" d="M38.29824,57.54607V82.45393l1.1985-.59056L62.30289,70.74689V69.25311L39.49674,58.13663Zm1.66747,2.6749L60.04486,70,39.96571,79.779Z" transform="translate(-6.30127 -28.76514)"/>
      <path class="cls-4" d="M66.10681,70a2.2233,2.2233,0,1,1-2.22329-2.2233A2.2233,2.2233,0,0,1,66.10681,70Z" transform="translate(-6.30127 -28.76514)"/>
    </g>
  </g>
  <g id="Layer_2" data-name="Layer 2">
    <line class="cls-1" x1="123.69873" y1="71.23486" x2="143.69873" y2="71.23486"/>
    <line class="cls-1" x1="103.69873" y1="29.23486" x2="103.69873" y2="9.23486"/>
    <path class="cls-3" d="M158.521,99.11572c-.15967-1.37939-.40967-1.939-1.9087-1.939h-1.1997c-.46973,0-.48975.06982-.48975.3999V100.105h.85986c.95948,0,1.05909-.32959,1.05909-1.16943h.25V101.584h-.25c0-.84912-.09961-1.16894-1.05909-1.16894h-.85986v2.4585c0,.3496,0,.47949.94971.47949h.32959v.31006c-.35938-.02979-1.269-.02979-1.67871-.02979-.39014,0-1.16944,0-1.51953.02979V103.353h.24023c.76953,0,.78955-.10987.78955-.46973V97.64648c0-.35986-.02-.46972-.78955-.46972h-.24023V96.8667h5.4873l.27979,2.249Z" transform="translate(-6.30127 -28.76514)"/>
    <path class="cls-3" d="M112.59863,35.8916c-.37988,0-1.07959,0-1.43945.02979v-.31006c.27,0,.82959,0,.82959-.29981a.72039.72039,0,0,0-.02979-.13964l-.52978-1.5293h-2.46875l-.45947,1.30957a.65848.65848,0,0,0-.02.1499c0,.25977.24951.50928.74951.50928v.31006l-1.14942-.02979-1.01953.02979v-.31006a1.038,1.038,0,0,0,1.11914-.66944L110.25,28.96533c.0498-.14013.07959-.20019.23975-.20019.15966,0,.17968.07031.23.20019l2.15869,6.24658c.10986.32959.25.39942.84961.39942h.17968v.31006Zm-2.40869-5.80713L109.07031,33.333h2.249Z" transform="translate(-6.30127 -28.76514)"/>
    <polyline class="cls-1" points="93.699 61.235 68.699 61.235 68.699 41.235 93.699 41.235"/>
    <polyline class="cls-1" points="93.699 81.235 18.699 81.235 18.699 41.235 8.699 41.235"/>
    <line class="cls-1" x1="93.69873" y1="101.23486" x2="8.69873" y2="101.23486"/>
    <line class="cls-1" x1="113.69873" y1="38.23486" x2="113.69873" y2="9.23486"/>
    <path class="cls-3" d="M121.01953,35.92139h-3.918v-.31006h.23975c.76953,0,.78955-.10987.78955-.46973V29.87451c0-.35937-.02-.46972-.78955-.46972h-.23975v-.30958h3.65772a2.00673,2.00673,0,0,1,2.21924,1.689c0,.73975-.68995,1.37939-1.65918,1.56934a1.96171,1.96171,0,0,1,1.92871,1.73877A2.04386,2.04386,0,0,1,121.01953,35.92139Zm-.33008-6.5166H119.4502c-.46973,0-.48975.07031-.48975.3999v2.45849h1.44922a1.50721,1.50721,0,0,0,1.59912-1.479A1.32814,1.32814,0,0,0,120.68945,29.40479Zm.14991,3.07861h-1.87891v2.72851c0,.32959.02.39942.48975.39942h1.24951a1.568,1.568,0,0,0,.13965-3.12793Z" transform="translate(-6.30127 -28.76514)"/>
    <path class="cls-3" d="M9.7793,73.14111a3.63625,3.63625,0,0,1,0-7.26562,2.452,2.452,0,0,1,1.83935.85937l.49951-.73974c.08008-.11963.12012-.11963.16016-.11963.10986,0,.10986.06982.10986.23974v2.36866c0,.21,0,.23974-.16015.23974-.13965,0-.13965-.02978-.15967-.16992-.2002-1.459-1.08936-2.36865-2.17871-2.36865-.60986,0-2.5586.33984-2.5586,3.32812,0,2.97852,1.9585,3.31836,2.56836,3.31836a2.26366,2.26366,0,0,0,2.23877-2.249c.00977-.09961.00977-.15967.12012-.15967.12988,0,.12988.06983.12988.16992A2.61333,2.61333,0,0,1,9.7793,73.14111Z" transform="translate(-6.30127 -28.76514)"/>
    <path class="cls-3" d="M11.31006,132.8916c-.39942,0-1.269,0-1.61865.02979v-.31006h.31982c.89941,0,.9292-.11963.9292-.47949v-5.17725a2.99349,2.99349,0,0,1-1.30908.25977v-.30957a2.46909,2.46909,0,0,0,1.81885-.63965c.23,0,.23.02.23.25976v5.60694c0,.36962.02978.47949.9292.47949h.31982v.31006C12.57959,132.8916,11.71,132.8916,11.31006,132.8916Z" transform="translate(-6.30127 -28.76514)"/>
    <circle class="cls-3" cx="18.69873" cy="41.23486" r="2.5"/>
    <circle class="cls-3" cx="68.69873" cy="41.23486" r="2.5"/>
  </g>
</svg>
