<svg xmlns="http://www.w3.org/2000/svg" viewBox="0 0 251.70711 273.23511">
  <defs>
    <style>
      .cls-1 {
        fill: none;
        stroke: #8ff4dd;
        stroke-miterlimit: 10;
        stroke-width: 2px;
      }

      .cls-2 {
        fill: #8ff4dd;
      }
    </style>
  </defs>
  <title>MultiplexerImplementationMintermCanonical</title>
  <g id="Layer_1" data-name="Layer 1">
    <g>
      <g>
        <rect class="cls-1" x="50.70711" y="50.78369" width="200" height="200"/>
        <line class="cls-1" x1="250.70711" y1="100.78369" x2="50.70711" y2="100.78369"/>
        <line class="cls-1" x1="250.70711" y1="150.78369" x2="50.70711" y2="150.78369"/>
        <line class="cls-1" x1="250.70711" y1="200.78369" x2="50.70711" y2="200.78369"/>
        <line class="cls-1" x1="100.70711" y1="250.78369" x2="100.70711" y2="50.78369"/>
        <line class="cls-1" x1="150.70711" y1="250.78369" x2="150.70711" y2="50.78369"/>
        <line class="cls-1" x1="200.70711" y1="250.78369" x2="200.70711" y2="50.78369"/>
      </g>
      <line class="cls-1" x1="50.70711" y1="50.78369" x2="0.70711" y2="0.78369"/>
    </g>
  </g>
  <g id="Layer_2" data-name="Layer 2">
    <g>
      <path class="cls-2" d="M133.37451,63.47949c-.76025,0-2.16064,0-2.88086.06006v-.62012c.54,0,1.66065,0,1.66065-.60009a1.40259,1.40259,0,0,0-.06006-.28028l-1.06055-3.06054h-4.94092l-.91992,2.6206a1.36209,1.36209,0,0,0-.04.30029c0,.52.5,1.02,1.5,1.02v.62012l-2.30029-.06006-2.04053.06006v-.62012a2.079,2.079,0,0,0,2.24024-1.34033l4.14111-11.9624c.1001-.28027.16016-.40039.48-.40039.32031,0,.36035.14014.46045.40039l4.3208,12.50244c.21973.66016.5.80029,1.7002.80029h.36035v.62012Zm-4.82129-11.62256L126.313,58.3584h4.501Z" transform="translate(-99.29289 -49.21631)"/>
      <path class="cls-2" d="M145.21387,63.53955h-7.8418v-.62012h.48c1.54053,0,1.58057-.22021,1.58057-.94043V51.437c0-.72021-.04-.94043-1.58057-.94043h-.48v-.62012h7.32129c2.60059,0,4.44141,1.64063,4.44141,3.38086,0,1.48047-1.38038,2.76075-3.32081,3.14063,2.22022.24023,3.86084,1.74023,3.86084,3.481C149.6748,61.75928,147.874,63.53955,145.21387,63.53955Zm-.66016-13.043h-2.48047c-.94043,0-.98047.14014-.98047.8003v4.92089h2.90088a3.017,3.017,0,0,0,3.20069-2.96045A2.65867,2.65867,0,0,0,144.55371,50.49658Zm.29981,6.16162h-3.76075v5.46094c0,.66016.04.80029.98047.80029h2.50049a3.13875,3.13875,0,0,0,.27979-6.26123Z" transform="translate(-99.29289 -49.21631)"/>
    </g>
    <g>
      <path class="cls-2" d="M107.7334,99.97949a7.27839,7.27839,0,0,1,0-14.543,4.906,4.906,0,0,1,3.68115,1.72022l1-1.48c.16016-.24024.24024-.24024.32031-.24024.21973,0,.21973.14014.21973.48v4.74121c0,.41993,0,.48-.31982.48-.28028,0-.28028-.06006-.32032-.33985-.3999-2.9209-2.18017-4.74121-4.36084-4.74121-1.22021,0-5.12109.68018-5.12109,6.66162,0,5.96094,3.9209,6.64112,5.14111,6.64112a4.5299,4.5299,0,0,0,4.481-4.501c.02-.19971.02-.31983.24023-.31983.25977,0,.25977.14014.25977.33985A5.23047,5.23047,0,0,1,107.7334,99.97949Z" transform="translate(-99.29289 -49.21631)"/>
      <path class="cls-2" d="M122.11328,99.53955H114.792v-.62012h.48c1.54053,0,1.58057-.22021,1.58057-.94043V87.437c0-.72021-.04-.94043-1.58057-.94043h-.48v-.62012h7.32129c3.4209,0,6.12158,3.14063,6.12158,6.9419A6.42478,6.42478,0,0,1,122.11328,99.53955Zm3.08106-11.18262a4.31572,4.31572,0,0,0-3.64112-1.86035h-2.00049c-.93994,0-.98.14014-.98.8003V98.11914c0,.66016.04.80029.98.80029h2.02051a4.38631,4.38631,0,0,0,3.561-1.70019,6.86362,6.86362,0,0,0,1.1001-4.40088A7.74084,7.74084,0,0,0,125.19434,88.35693Z" transform="translate(-99.29289 -49.21631)"/>
    </g>
    <g>
      <path class="cls-2" d="M128.4707,129.561a3.74026,3.74026,0,0,1-6.78174.2998,10.1358,10.1358,0,0,1-.8999-4.8208,10.69823,10.69823,0,0,1,.74024-4.541,3.66658,3.66658,0,0,1,3.48047-2.38037,3.70919,3.70919,0,0,1,3.40087,2.24024,14.13249,14.13249,0,0,1,.06006,9.20215Zm-1.12011-8.66211c-.38038-1.98-1.70069-2.34034-2.36084-2.34034-.5,0-2.00049.18018-2.38037,2.56055a26.80714,26.80714,0,0,0-.16016,3.68066,27.24831,27.24831,0,0,0,.22021,4.2212c.35987,1.92041,1.54,2.42041,2.32032,2.42041.90039,0,2.04052-.6001,2.34082-2.50049a24.8153,24.8153,0,0,0,.21972-4.14112A24.64163,24.64163,0,0,0,127.35059,120.89893Z" transform="translate(-99.29289 -49.21631)"/>
      <path class="cls-2" d="M138.4707,129.561a3.74026,3.74026,0,0,1-6.78174.2998,10.1358,10.1358,0,0,1-.8999-4.8208,10.69823,10.69823,0,0,1,.74024-4.541,3.66658,3.66658,0,0,1,3.48047-2.38037,3.70919,3.70919,0,0,1,3.40087,2.24024,14.13249,14.13249,0,0,1,.06006,9.20215Zm-1.12011-8.66211c-.38038-1.98-1.70069-2.34034-2.36084-2.34034-.5,0-2.00049.18018-2.38037,2.56055a26.80714,26.80714,0,0,0-.16016,3.68066,27.24831,27.24831,0,0,0,.22021,4.2212c.35987,1.92041,1.54,2.42041,2.32032,2.42041.90039,0,2.04052-.6001,2.34082-2.50049a24.8153,24.8153,0,0,0,.21972-4.14112A24.64163,24.64163,0,0,0,137.35059,120.89893Z" transform="translate(-99.29289 -49.21631)"/>
    </g>
    <g>
      <path class="cls-2" d="M128.88086,179.561a3.74026,3.74026,0,0,1-6.78174.2998,10.1358,10.1358,0,0,1-.8999-4.8208,10.69838,10.69838,0,0,1,.74023-4.541,3.6666,3.6666,0,0,1,3.48047-2.38037,3.7092,3.7092,0,0,1,3.40088,2.24024,14.13266,14.13266,0,0,1,.06006,9.20215Zm-1.12012-8.66211c-.38037-1.98-1.70068-2.34034-2.36084-2.34034-.5,0-2.00049.18018-2.38037,2.56055a26.8088,26.8088,0,0,0-.16015,3.68066,27.24831,27.24831,0,0,0,.22021,4.2212c.35986,1.92041,1.54,2.42041,2.32031,2.42041.90039,0,2.04053-.6001,2.34082-2.50049a38.67314,38.67314,0,0,0,.02-8.042Z" transform="translate(-99.29289 -49.21631)"/>
      <path class="cls-2" d="M135.56006,181.38135c-.80029,0-2.54053,0-3.24072.06006v-.62012h.64013c1.8003,0,1.86035-.24024,1.86035-.96045V169.499a5.99121,5.99121,0,0,1-2.6206.52v-.62011a4.94382,4.94382,0,0,0,3.64111-1.28028c.46,0,.46.04.46.52v11.22217c0,.74023.06006.96045,1.86035.96045h.64014v.62012C138.10059,181.38135,136.36035,181.38135,135.56006,181.38135Z" transform="translate(-99.29289 -49.21631)"/>
    </g>
    <g>
      <path class="cls-2" d="M125.06006,231.60132c-.80029,0-2.54053,0-3.24072.06006v-.62012h.64013c1.8003,0,1.86035-.24023,1.86035-.96045V219.719a5.99121,5.99121,0,0,1-2.6206.52v-.62011a4.94382,4.94382,0,0,0,3.64111-1.28028c.46,0,.46.04.46.52v11.22217c0,.74023.06006.96045,1.86035.96045h.64014v.62012C127.60059,231.60132,125.86035,231.60132,125.06006,231.60132Z" transform="translate(-99.29289 -49.21631)"/>
      <path class="cls-2" d="M135.06006,231.60132c-.80029,0-2.54053,0-3.24072.06006v-.62012h.64013c1.8003,0,1.86035-.24023,1.86035-.96045V219.719a5.99121,5.99121,0,0,1-2.6206.52v-.62011a4.94382,4.94382,0,0,0,3.64111-1.28028c.46,0,.46.04.46.52v11.22217c0,.74023.06006.96045,1.86035.96045h.64014v.62012C137.60059,231.60132,135.86035,231.60132,135.06006,231.60132Z" transform="translate(-99.29289 -49.21631)"/>
    </g>
    <g>
      <path class="cls-2" d="M124.6499,281.38135c-.80029,0-2.54052,0-3.24072.06006v-.62012h.64014c1.80029,0,1.86035-.24024,1.86035-.96045V269.499a5.99127,5.99127,0,0,1-2.62061.52v-.62011a4.94385,4.94385,0,0,0,3.64112-1.28028c.46,0,.46.04.46.52v11.22217c0,.74023.06006.96045,1.86035.96045h.64014v.62012C127.19043,281.38135,125.4502,281.38135,124.6499,281.38135Z" transform="translate(-99.29289 -49.21631)"/>
      <path class="cls-2" d="M137.9707,279.561a3.74026,3.74026,0,0,1-6.78174.2998,10.1358,10.1358,0,0,1-.8999-4.8208,10.69823,10.69823,0,0,1,.74024-4.541,3.66658,3.66658,0,0,1,3.48047-2.38037,3.70919,3.70919,0,0,1,3.40087,2.24024,14.13249,14.13249,0,0,1,.06006,9.20215Zm-1.12011-8.66211c-.38038-1.98-1.70069-2.34034-2.36084-2.34034-.5,0-2.00049.18018-2.38037,2.56055a26.80714,26.80714,0,0,0-.16016,3.68066,27.24831,27.24831,0,0,0,.22021,4.2212c.35987,1.92041,1.54,2.42041,2.32032,2.42041.90039,0,2.04052-.6001,2.34082-2.50049a38.675,38.675,0,0,0,.02-8.042Z" transform="translate(-99.29289 -49.21631)"/>
    </g>
    <g>
      <path class="cls-2" d="M173.4707,84.561a3.74026,3.74026,0,0,1-6.78174.2998,10.1358,10.1358,0,0,1-.8999-4.8208,10.69823,10.69823,0,0,1,.74024-4.541,3.66658,3.66658,0,0,1,3.48047-2.38037,3.70919,3.70919,0,0,1,3.40087,2.24024,10.7166,10.7166,0,0,1,.8003,4.68115A10.65672,10.65672,0,0,1,173.4707,84.561Zm-1.12011-8.66211c-.38038-1.98-1.70069-2.34034-2.36084-2.34034-.5,0-2.00049.18018-2.38037,2.56055a26.80714,26.80714,0,0,0-.16016,3.68066,27.24831,27.24831,0,0,0,.22021,4.2212c.35987,1.92041,1.54,2.42041,2.32032,2.42041.90039,0,2.04052-.6001,2.34082-2.50049a24.8153,24.8153,0,0,0,.21972-4.14112A24.64163,24.64163,0,0,0,172.35059,75.89893Z" transform="translate(-99.29289 -49.21631)"/>
      <path class="cls-2" d="M183.4707,84.561a3.74026,3.74026,0,0,1-6.78174.2998,10.1358,10.1358,0,0,1-.8999-4.8208,10.69823,10.69823,0,0,1,.74024-4.541,3.66658,3.66658,0,0,1,3.48047-2.38037,3.70919,3.70919,0,0,1,3.40087,2.24024,10.7166,10.7166,0,0,1,.8003,4.68115A10.65672,10.65672,0,0,1,183.4707,84.561Zm-1.12011-8.66211c-.38038-1.98-1.70069-2.34034-2.36084-2.34034-.5,0-2.00049.18018-2.38037,2.56055a26.80714,26.80714,0,0,0-.16016,3.68066,27.24831,27.24831,0,0,0,.22021,4.2212c.35987,1.92041,1.54,2.42041,2.32032,2.42041.90039,0,2.04052-.6001,2.34082-2.50049a24.8153,24.8153,0,0,0,.21972-4.14112A24.64163,24.64163,0,0,0,182.35059,75.89893Z" transform="translate(-99.29289 -49.21631)"/>
    </g>
    <path class="cls-2" d="M223.88086,84.561a3.74026,3.74026,0,0,1-6.78174.2998,10.1358,10.1358,0,0,1-.8999-4.8208,10.69838,10.69838,0,0,1,.74023-4.541,3.6666,3.6666,0,0,1,3.48047-2.38037,3.7092,3.7092,0,0,1,3.40088,2.24024,10.71659,10.71659,0,0,1,.80029,4.68115A10.65671,10.65671,0,0,1,223.88086,84.561Zm-1.12012-8.66211c-.38037-1.98-1.70068-2.34034-2.36084-2.34034-.5,0-2.00049.18018-2.38037,2.56055a26.8088,26.8088,0,0,0-.16015,3.68066,27.24831,27.24831,0,0,0,.22021,4.2212c.35986,1.92041,1.54,2.42041,2.32031,2.42041.90039,0,2.04053-.6001,2.34082-2.50049a24.81418,24.81418,0,0,0,.21973-4.14112A24.6404,24.6404,0,0,0,222.76074,75.89893Z" transform="translate(-99.29289 -49.21631)"/>
    <path class="cls-2" d="M230.56006,86.38135c-.80029,0-2.54053,0-3.24072.06006v-.62012h.64013c1.8003,0,1.86035-.24024,1.86035-.96045V74.499a5.99121,5.99121,0,0,1-2.6206.52v-.62011a4.94382,4.94382,0,0,0,3.64111-1.28028c.46,0,.46.04.46.52V84.86084c0,.74023.06006.96045,1.86035.96045h.64014v.62012C233.10059,86.38135,231.36035,86.38135,230.56006,86.38135Z" transform="translate(-99.29289 -49.21631)"/>
    <path class="cls-2" d="M175.06006,181.60132c-.80029,0-2.54053,0-3.24072.06006v-.62012h.64013c1.8003,0,1.86035-.24023,1.86035-.96045V169.719a5.99121,5.99121,0,0,1-2.6206.52v-.62011a4.94382,4.94382,0,0,0,3.64111-1.28028c.46,0,.46.04.46.52v11.22217c0,.74023.06006.96045,1.86035.96045h.64014v.62012C177.60059,181.60132,175.86035,181.60132,175.06006,181.60132Z" transform="translate(-99.29289 -49.21631)"/>
    <g>
      <path class="cls-2" d="M270.06006,86.60132c-.80029,0-2.54053,0-3.24072.06006v-.62012h.64013c1.8003,0,1.86035-.24023,1.86035-.96045V74.719a5.99121,5.99121,0,0,1-2.6206.52V74.6189a4.94382,4.94382,0,0,0,3.64111-1.28028c.46,0,.46.04.46.52V85.08081c0,.74023.06006.96045,1.86035.96045h.64014v.62012C272.60059,86.60132,270.86035,86.60132,270.06006,86.60132Z" transform="translate(-99.29289 -49.21631)"/>
      <path class="cls-2" d="M280.06006,86.60132c-.80029,0-2.54053,0-3.24072.06006v-.62012h.64013c1.8003,0,1.86035-.24023,1.86035-.96045V74.719a5.99121,5.99121,0,0,1-2.6206.52V74.6189a4.94382,4.94382,0,0,0,3.64111-1.28028c.46,0,.46.04.46.52V85.08081c0,.74023.06006.96045,1.86035.96045h.64014v.62012C282.60059,86.60132,280.86035,86.60132,280.06006,86.60132Z" transform="translate(-99.29289 -49.21631)"/>
    </g>
    <g>
      <path class="cls-2" d="M319.6499,86.38135c-.80029,0-2.54052,0-3.24072.06006v-.62012h.64014c1.80029,0,1.86035-.24024,1.86035-.96045V74.499a5.99127,5.99127,0,0,1-2.62061.52v-.62011a4.94385,4.94385,0,0,0,3.64112-1.28028c.46,0,.46.04.46.52V84.86084c0,.74023.06006.96045,1.86035.96045h.64014v.62012C322.19043,86.38135,320.4502,86.38135,319.6499,86.38135Z" transform="translate(-99.29289 -49.21631)"/>
      <path class="cls-2" d="M332.9707,84.561a3.74026,3.74026,0,0,1-6.78174.2998,10.1358,10.1358,0,0,1-.8999-4.8208,10.69823,10.69823,0,0,1,.74024-4.541,3.66658,3.66658,0,0,1,3.48047-2.38037,3.70919,3.70919,0,0,1,3.40087,2.24024,10.7166,10.7166,0,0,1,.8003,4.68115A10.65672,10.65672,0,0,1,332.9707,84.561Zm-1.12011-8.66211c-.38038-1.98-1.70069-2.34034-2.36084-2.34034-.5,0-2.00049.18018-2.38037,2.56055a26.80714,26.80714,0,0,0-.16016,3.68066,27.24831,27.24831,0,0,0,.22021,4.2212c.35987,1.92041,1.54,2.42041,2.32032,2.42041.90039,0,2.04052-.6001,2.34082-2.50049a24.8153,24.8153,0,0,0,.21972-4.14112A24.64163,24.64163,0,0,0,331.85059,75.89893Z" transform="translate(-99.29289 -49.21631)"/>
    </g>
    <path class="cls-2" d="M275.06006,131.60132c-.80029,0-2.54053,0-3.24072.06006v-.62012h.64013c1.8003,0,1.86035-.24023,1.86035-.96045V119.719a5.99121,5.99121,0,0,1-2.6206.52v-.62011a4.94382,4.94382,0,0,0,3.64111-1.28028c.46,0,.46.04.46.52v11.22217c0,.74023.06006.96045,1.86035.96045h.64014v.62012C277.60059,131.60132,275.86035,131.60132,275.06006,131.60132Z" transform="translate(-99.29289 -49.21631)"/>
    <path class="cls-2" d="M275.06006,181.60132c-.80029,0-2.54053,0-3.24072.06006v-.62012h.64013c1.8003,0,1.86035-.24023,1.86035-.96045V169.719a5.99121,5.99121,0,0,1-2.6206.52v-.62011a4.94382,4.94382,0,0,0,3.64111-1.28028c.46,0,.46.04.46.52v11.22217c0,.74023.06006.96045,1.86035.96045h.64014v.62012C277.60059,181.60132,275.86035,181.60132,275.06006,181.60132Z" transform="translate(-99.29289 -49.21631)"/>
    <path class="cls-2" d="M275.06006,231.60132c-.80029,0-2.54053,0-3.24072.06006v-.62012h.64013c1.8003,0,1.86035-.24023,1.86035-.96045V219.719a5.99121,5.99121,0,0,1-2.6206.52v-.62011a4.94382,4.94382,0,0,0,3.64111-1.28028c.46,0,.46.04.46.52v11.22217c0,.74023.06006.96045,1.86035.96045h.64014v.62012C277.60059,231.60132,275.86035,231.60132,275.06006,231.60132Z" transform="translate(-99.29289 -49.21631)"/>
    <path class="cls-2" d="M275.06006,281.60132c-.80029,0-2.54053,0-3.24072.06006v-.62012h.64013c1.8003,0,1.86035-.24023,1.86035-.96045V269.719a5.99121,5.99121,0,0,1-2.6206.52v-.62011a4.94382,4.94382,0,0,0,3.64111-1.28028c.46,0,.46.04.46.52v11.22217c0,.74023.06006.96045,1.86035.96045h.64014v.62012C277.60059,281.60132,275.86035,281.60132,275.06006,281.60132Z" transform="translate(-99.29289 -49.21631)"/>
    <path class="cls-2" d="M325.06006,231.60132c-.80029,0-2.54053,0-3.24072.06006v-.62012h.64013c1.8003,0,1.86035-.24023,1.86035-.96045V219.719a5.99121,5.99121,0,0,1-2.6206.52v-.62011a4.94382,4.94382,0,0,0,3.64111-1.28028c.46,0,.46.04.46.52v11.22217c0,.74023.06006.96045,1.86035.96045h.64014v.62012C327.60059,231.60132,325.86035,231.60132,325.06006,231.60132Z" transform="translate(-99.29289 -49.21631)"/>
    <path class="cls-2" d="M175.06006,231.60132c-.80029,0-2.54053,0-3.24072.06006v-.62012h.64013c1.8003,0,1.86035-.24023,1.86035-.96045V219.719a5.99121,5.99121,0,0,1-2.6206.52v-.62011a4.94382,4.94382,0,0,0,3.64111-1.28028c.46,0,.46.04.46.52v11.22217c0,.74023.06006.96045,1.86035.96045h.64014v.62012C177.60059,231.60132,175.86035,231.60132,175.06006,231.60132Z" transform="translate(-99.29289 -49.21631)"/>
    <path class="cls-2" d="M225.06006,131.60132c-.80029,0-2.54053,0-3.24072.06006v-.62012h.64013c1.8003,0,1.86035-.24023,1.86035-.96045V119.719a5.99121,5.99121,0,0,1-2.6206.52v-.62011a4.94382,4.94382,0,0,0,3.64111-1.28028c.46,0,.46.04.46.52v11.22217c0,.74023.06006.96045,1.86035.96045h.64014v.62012C227.60059,131.60132,225.86035,131.60132,225.06006,131.60132Z" transform="translate(-99.29289 -49.21631)"/>
    <path class="cls-2" d="M178.4707,129.561a3.74026,3.74026,0,0,1-6.78174.2998,10.1358,10.1358,0,0,1-.8999-4.8208,10.69823,10.69823,0,0,1,.74024-4.541,3.66658,3.66658,0,0,1,3.48047-2.38037,3.70919,3.70919,0,0,1,3.40087,2.24024,14.13249,14.13249,0,0,1,.06006,9.20215Zm-1.12011-8.66211c-.38038-1.98-1.70069-2.34034-2.36084-2.34034-.5,0-2.00049.18018-2.38037,2.56055a26.80714,26.80714,0,0,0-.16016,3.68066,27.24831,27.24831,0,0,0,.22021,4.2212c.35987,1.92041,1.54,2.42041,2.32032,2.42041.90039,0,2.04052-.6001,2.34082-2.50049a24.8153,24.8153,0,0,0,.21972-4.14112A24.64163,24.64163,0,0,0,177.35059,120.89893Z" transform="translate(-99.29289 -49.21631)"/>
    <path class="cls-2" d="M328.4707,129.561a3.74026,3.74026,0,0,1-6.78174.2998,10.1358,10.1358,0,0,1-.8999-4.8208,10.69823,10.69823,0,0,1,.74024-4.541,3.66658,3.66658,0,0,1,3.48047-2.38037,3.70919,3.70919,0,0,1,3.40087,2.24024,14.13249,14.13249,0,0,1,.06006,9.20215Zm-1.12011-8.66211c-.38038-1.98-1.70069-2.34034-2.36084-2.34034-.5,0-2.00049.18018-2.38037,2.56055a26.80714,26.80714,0,0,0-.16016,3.68066,27.24831,27.24831,0,0,0,.22021,4.2212c.35987,1.92041,1.54,2.42041,2.32032,2.42041.90039,0,2.04052-.6001,2.34082-2.50049a24.8153,24.8153,0,0,0,.21972-4.14112A24.64163,24.64163,0,0,0,327.35059,120.89893Z" transform="translate(-99.29289 -49.21631)"/>
    <path class="cls-2" d="M328.4707,179.561a3.74026,3.74026,0,0,1-6.78174.2998,10.1358,10.1358,0,0,1-.8999-4.8208,10.69823,10.69823,0,0,1,.74024-4.541,3.66658,3.66658,0,0,1,3.48047-2.38037,3.70919,3.70919,0,0,1,3.40087,2.24024,14.13249,14.13249,0,0,1,.06006,9.20215Zm-1.12011-8.66211c-.38038-1.98-1.70069-2.34034-2.36084-2.34034-.5,0-2.00049.18018-2.38037,2.56055a26.80714,26.80714,0,0,0-.16016,3.68066,27.24831,27.24831,0,0,0,.22021,4.2212c.35987,1.92041,1.54,2.42041,2.32032,2.42041.90039,0,2.04052-.6001,2.34082-2.50049a38.675,38.675,0,0,0,.02-8.042Z" transform="translate(-99.29289 -49.21631)"/>
    <path class="cls-2" d="M228.4707,179.561a3.74026,3.74026,0,0,1-6.78174.2998,10.1358,10.1358,0,0,1-.8999-4.8208,10.69823,10.69823,0,0,1,.74024-4.541,3.66658,3.66658,0,0,1,3.48047-2.38037,3.70919,3.70919,0,0,1,3.40087,2.24024,14.13249,14.13249,0,0,1,.06006,9.20215Zm-1.12011-8.66211c-.38038-1.98-1.70069-2.34034-2.36084-2.34034-.5,0-2.00049.18018-2.38037,2.56055a26.80714,26.80714,0,0,0-.16016,3.68066,27.24831,27.24831,0,0,0,.22021,4.2212c.35987,1.92041,1.54,2.42041,2.32032,2.42041.90039,0,2.04052-.6001,2.34082-2.50049a38.675,38.675,0,0,0,.02-8.042Z" transform="translate(-99.29289 -49.21631)"/>
    <path class="cls-2" d="M228.4707,229.561a3.74026,3.74026,0,0,1-6.78174.2998,10.1358,10.1358,0,0,1-.8999-4.8208,10.69823,10.69823,0,0,1,.74024-4.541,3.66658,3.66658,0,0,1,3.48047-2.38037,3.70919,3.70919,0,0,1,3.40087,2.24024,14.13249,14.13249,0,0,1,.06006,9.20215Zm-1.12011-8.66211c-.38038-1.98-1.70069-2.34034-2.36084-2.34034-.5,0-2.00049.18018-2.38037,2.56055a26.80714,26.80714,0,0,0-.16016,3.68066,27.24831,27.24831,0,0,0,.22021,4.2212c.35987,1.92041,1.54,2.42041,2.32032,2.42041.90039,0,2.04052-.6001,2.34082-2.50049a38.675,38.675,0,0,0,.02-8.042Z" transform="translate(-99.29289 -49.21631)"/>
    <path class="cls-2" d="M178.4707,279.561a3.74026,3.74026,0,0,1-6.78174.2998,10.1358,10.1358,0,0,1-.8999-4.8208,10.69823,10.69823,0,0,1,.74024-4.541,3.66658,3.66658,0,0,1,3.48047-2.38037,3.70919,3.70919,0,0,1,3.40087,2.24024,14.13249,14.13249,0,0,1,.06006,9.20215Zm-1.12011-8.66211c-.38038-1.98-1.70069-2.34034-2.36084-2.34034-.5,0-2.00049.18018-2.38037,2.56055a26.80714,26.80714,0,0,0-.16016,3.68066,27.24831,27.24831,0,0,0,.22021,4.2212c.35987,1.92041,1.54,2.42041,2.32032,2.42041.90039,0,2.04052-.6001,2.34082-2.50049a38.675,38.675,0,0,0,.02-8.042Z" transform="translate(-99.29289 -49.21631)"/>
    <path class="cls-2" d="M228.4707,279.561a3.74026,3.74026,0,0,1-6.78174.2998,10.1358,10.1358,0,0,1-.8999-4.8208,10.69823,10.69823,0,0,1,.74024-4.541,3.66658,3.66658,0,0,1,3.48047-2.38037,3.70919,3.70919,0,0,1,3.40087,2.24024,14.13249,14.13249,0,0,1,.06006,9.20215Zm-1.12011-8.66211c-.38038-1.98-1.70069-2.34034-2.36084-2.34034-.5,0-2.00049.18018-2.38037,2.56055a26.80714,26.80714,0,0,0-.16016,3.68066,27.24831,27.24831,0,0,0,.22021,4.2212c.35987,1.92041,1.54,2.42041,2.32032,2.42041.90039,0,2.04052-.6001,2.34082-2.50049a38.675,38.675,0,0,0,.02-8.042Z" transform="translate(-99.29289 -49.21631)"/>
    <path class="cls-2" d="M328.4707,279.561a3.74026,3.74026,0,0,1-6.78174.2998,10.1358,10.1358,0,0,1-.8999-4.8208,10.69823,10.69823,0,0,1,.74024-4.541,3.66658,3.66658,0,0,1,3.48047-2.38037,3.70919,3.70919,0,0,1,3.40087,2.24024,14.13249,14.13249,0,0,1,.06006,9.20215Zm-1.12011-8.66211c-.38038-1.98-1.70069-2.34034-2.36084-2.34034-.5,0-2.00049.18018-2.38037,2.56055a26.80714,26.80714,0,0,0-.16016,3.68066,27.24831,27.24831,0,0,0,.22021,4.2212c.35987,1.92041,1.54,2.42041,2.32032,2.42041.90039,0,2.04052-.6001,2.34082-2.50049a38.675,38.675,0,0,0,.02-8.042Z" transform="translate(-99.29289 -49.21631)"/>
  </g>
  <g id="Layer_3" data-name="Layer 3">
    <g>
      <path class="cls-2" d="M213.89209,322.45142a7.27839,7.27839,0,0,1,0-14.543,4.906,4.906,0,0,1,3.68115,1.72021l1-1.48c.16016-.24023.24024-.24023.32031-.24023.21973,0,.21973.14013.21973.48v4.74121c0,.41992,0,.48-.31982.48-.28028,0-.28028-.06006-.32032-.33984-.3999-2.9209-2.18017-4.74122-4.36084-4.74122-1.22021,0-5.12109.68018-5.12109,6.66163,0,5.96093,3.9209,6.64111,5.14111,6.64111a4.5299,4.5299,0,0,0,4.481-4.501c.02-.1997.02-.31982.24024-.31982.25976,0,.25976.14013.25976.33984A5.23048,5.23048,0,0,1,213.89209,322.45142Z" transform="translate(-99.29289 -49.21631)"/>
      <path class="cls-2" d="M221.46143,309.5896v-2.041h1.88476v1.61133a4.31012,4.31012,0,0,1-.30273,1.88477,2.66577,2.66577,0,0,1-1.3086,1.1914l-.42968-.69336a1.526,1.526,0,0,0,.78613-.67871,2.84762,2.84762,0,0,0,.28808-1.27441Z" transform="translate(-99.29289 -49.21631)"/>
      <path class="cls-2" d="M232.71533,322.01147H225.394v-.62011h.48c1.54053,0,1.58057-.22022,1.58057-.94043v-10.542c0-.72022-.04-.94043-1.58057-.94043h-.48v-.62012h7.32129c3.4209,0,6.12158,3.14062,6.12158,6.9414A6.42491,6.42491,0,0,1,232.71533,322.01147Zm3.08106-11.18261a4.31572,4.31572,0,0,0-3.64112-1.86035h-2.00048c-.93995,0-.98.14013-.98.80029v10.82226c0,.66016.04.8003.98.8003h2.0205a4.38631,4.38631,0,0,0,3.561-1.7002,6.86426,6.86426,0,0,0,1.1001-4.40137A7.74012,7.74012,0,0,0,235.79639,310.82886Z" transform="translate(-99.29289 -49.21631)"/>
      <path class="cls-2" d="M241.18457,309.5896v-2.041h1.88477v1.61133a4.31009,4.31009,0,0,1-.30274,1.88477,2.66575,2.66575,0,0,1-1.30859,1.1914l-.42969-.69336a1.526,1.526,0,0,0,.78613-.67871,2.84748,2.84748,0,0,0,.28809-1.27441Z" transform="translate(-99.29289 -49.21631)"/>
    </g>
    <path class="cls-2" d="M175.6001,321.83154h-7.32129v-.62011h.47949c1.541,0,1.58106-.22022,1.58106-.94043V309.729c0-.72021-.04-.94043-1.58106-.94043h-.47949v-.62011h7.32129c3.4209,0,6.12109,3.14062,6.12109,6.9414A6.42485,6.42485,0,0,1,175.6001,321.83154Zm3.08105-11.18261a4.3165,4.3165,0,0,0-3.6416-1.86036h-2c-.94043,0-.98047.14014-.98047.8003v10.82226c0,.66016.04.8003.98047.8003h2.02051a4.38516,4.38516,0,0,0,3.56055-1.7002,6.86094,6.86094,0,0,0,1.10058-4.40137A7.74384,7.74384,0,0,0,178.68115,310.64893Z" transform="translate(-99.29289 -49.21631)"/>
    <path class="cls-2" d="M275.05957,321.60132c-.7998,0-2.54,0-3.24023.06006v-.62012h.63964c1.80079,0,1.86036-.24023,1.86036-.96045V309.719a5.98943,5.98943,0,0,1-2.62012.52v-.62011a4.94282,4.94282,0,0,0,3.64062-1.28028c.46,0,.46.04.46.52v11.22217c0,.74023.06055.96045,1.86036.96045h.64062v.62012C277.60059,321.60132,275.86035,321.60132,275.05957,321.60132Z" transform="translate(-99.29289 -49.21631)"/>
    <g>
      <path class="cls-2" d="M318.23,322.27148a7.27838,7.27838,0,0,1,0-14.543,4.906,4.906,0,0,1,3.68115,1.72021l1-1.48c.16016-.24023.24024-.24023.32032-.24023.21972,0,.21972.14013.21972.48v4.74121c0,.41992,0,.48-.31982.48-.28028,0-.28028-.06006-.32031-.33985-.39991-2.92089-2.18018-4.74121-4.36084-4.74121-1.22022,0-5.1211.68018-5.1211,6.66162,0,5.96094,3.9209,6.64112,5.14111,6.64112a4.5299,4.5299,0,0,0,4.481-4.501c.02-.19971.02-.31982.24024-.31982.25976,0,.25976.14013.25976.33984A5.23047,5.23047,0,0,1,318.23,322.27148Z" transform="translate(-99.29289 -49.21631)"/>
      <path class="cls-2" d="M332.60986,321.83154h-7.32129v-.62011h.48c1.54053,0,1.58057-.22022,1.58057-.94043V309.729c0-.72021-.04-.94043-1.58057-.94043h-.48v-.62011h7.32129c3.4209,0,6.12159,3.14062,6.12159,6.9414A6.42492,6.42492,0,0,1,332.60986,321.83154Zm3.08106-11.18261a4.3157,4.3157,0,0,0-3.64112-1.86036h-2.00048c-.93994,0-.98.14014-.98.8003v10.82226c0,.66016.04.8003.98.8003h2.0205a4.38631,4.38631,0,0,0,3.561-1.7002,6.86426,6.86426,0,0,0,1.1001-4.40137A7.7401,7.7401,0,0,0,335.69092,310.64893Z" transform="translate(-99.29289 -49.21631)"/>
    </g>
  </g>
</svg>
