<?xml version="1.0" encoding="utf-8"?>
<!-- Generator: Adobe Illustrator 23.0.3, SVG Export Plug-In . SVG Version: 6.00 Build 0)  -->
<svg version="1.1" id="Layer_1" xmlns="http://www.w3.org/2000/svg" xmlns:xlink="http://www.w3.org/1999/xlink" x="0px" y="0px"
	 viewBox="0 0 223.375 105.28125" style="enable-background:new 0 0 223.375 105.28125;" xml:space="preserve">
<style type="text/css">
	.st0{fill:none;stroke:#0000FF;stroke-miterlimit:10;stroke-dasharray:2.93175,2.93175;}
	.st1{fill:none;stroke:#0000FF;stroke-miterlimit:10;stroke-dasharray:2.97186,2.97186;}
	.st2{fill:none;stroke:#8FF4DD;stroke-width:2;stroke-linecap:round;stroke-linejoin:round;}
	.st3{fill:none;stroke:#8FF4DD;stroke-width:2;stroke-linecap:square;stroke-linejoin:round;}
	.st4{fill:none;stroke:#8FF4DD;stroke-width:2;stroke-linecap:round;}
	.st5{fill:none;stroke:#8FF4DD;stroke-width:1.5;stroke-linecap:square;}
	.st6{fill:#8FF4DD;}
	.st7{fill:none;stroke:#FD1D53;stroke-miterlimit:10;}
	.st8{fill:#FD1D53;}
</style>
<title>MutualInductance</title>
<ellipse class="st0" cx="151.875" cy="66.28125" rx="13.51428" ry="21.5"/>
<ellipse class="st1" cx="125.61786" cy="66.28125" rx="12.25714" ry="19.5"/>
<circle class="st2" cx="37.375" cy="66.28125" r="12.5"/>
<g>
	<polyline class="st3" points="37.375,73.281 37.375,59.281 40.375,62.281 	"/>
	<line class="st3" x1="37.375" y1="59.28125" x2="34.375" y2="62.28125"/>
</g>
<g>
	<path class="st2" d="M137.375,57.36458c2.46227-0.00223,4.45651-2.0001,4.45428-4.46236
		c-0.00223-2.45911-1.99518-4.45206-4.45428-4.45429V31.28125h-100v22"/>
	<path class="st2" d="M137.375,57.36458c2.46227,0.0034,4.45558,2.00223,4.45218,4.46449
		c-0.0034,2.45747-1.99472,4.44878-4.45218,4.45218"/>
	<path class="st2" d="M137.375,66.28125c2.46227,0.0034,4.45558,2.00223,4.45218,4.46449
		c-0.0034,2.45747-1.99472,4.44878-4.45218,4.45218"/>
	<path class="st2" d="M137.375,75.19792c2.46227,0.00223,4.45651,2.0001,4.45428,4.46236
		c-0.00223,2.45911-1.99518,4.45206-4.45428,4.45429v17.16667h-100v-22"/>
</g>
<g>
	<path class="st2" d="M165.375,41.28125v7.16667c-2.46227-0.00223-4.46014,1.99202-4.46237,4.45429
		c-0.00223,2.46227,1.99202,4.46014,4.4543,4.46236c0.00269,0,0.00539,0,0.00807,0"/>
	<path class="st4" d="M165.375,57.36458c-2.46227,0.0034-4.45558,2.00223-4.45218,4.46449
		c0.0034,2.45747,1.99472,4.44878,4.45218,4.45218"/>
	<path class="st4" d="M165.375,66.28125c-2.46227,0.0034-4.45558,2.00223-4.45218,4.46449
		c0.0034,2.45747,1.99472,4.44878,4.45218,4.45218"/>
	<path id="path1132" class="st2" d="M216.375,101.28125h-51V84.11458c-2.46227,0.00223-4.46014-1.99202-4.46237-4.45429
		c-0.00223-2.46227,1.99202-4.46014,4.4543-4.46236c0.00269,0,0.00539,0,0.00807,0"/>
</g>
<circle class="st2" cx="219.375" cy="31.28125" r="3"/>
<circle class="st2" cx="219.375" cy="101.28125" r="3"/>
<polyline class="st2" points="165.375,41.281 165.375,31.281 202.375,31.281 216.375,31.281 "/>
<line class="st5" x1="84.875" y1="41.28125" x2="89.875" y2="41.28125"/>
<line class="st5" x1="87.375" y1="43.78125" x2="87.375" y2="38.78125"/>
<line class="st5" x1="84.875" y1="91.28125" x2="89.875" y2="91.28125"/>
<line class="st5" x1="209.875" y1="42.28125" x2="214.875" y2="42.28125"/>
<line class="st5" x1="212.375" y1="44.78125" x2="212.375" y2="39.78125"/>
<line class="st5" x1="209.875" y1="92.28125" x2="214.875" y2="92.28125"/>
<g>
	<g>
		<path class="st6" d="M3.55566,68.4502c-0.396,0-0.86377-0.25195-0.86377-0.94727c0-0.1084,0-0.26465,0.09619-0.52832
			l0.95947-2.60254c0.08398-0.21582,0.15576-0.41992,0.15576-0.73145c0-0.13184,0-0.36035-0.26367-0.36035
			c-0.6958,0-1.00732,1.11621-1.10352,1.5c-0.04785,0.16797-0.06006,0.2041-0.20361,0.2041c-0.06006,0-0.16797,0-0.16797-0.1084
			c0-0.05957,0.39551-1.83496,1.49902-1.83496c0.46777,0,0.86377,0.32324,0.86377,0.93555
			c0,0.21582-0.02441,0.31152-0.13232,0.61133L3.6875,66.53125c-0.21582,0.58789-0.38379,1.01953-0.38379,1.33105
			c0,0.28809,0.14404,0.34766,0.27588,0.34766c0.68359,0,0.99561-1.0791,1.10352-1.4873
			c0.04785-0.17969,0.06006-0.21582,0.20361-0.21582c0.04834,0,0.15625,0,0.15625,0.1084
			C5.04297,66.66309,4.65918,68.4502,3.55566,68.4502z M4.65918,61.69727c-0.22803,0-0.47998-0.15527-0.47998-0.47949
			c0-0.34766,0.34814-0.68359,0.70752-0.68359c0.24023,0,0.47998,0.14355,0.47998,0.47949
			C5.3667,61.37402,5.01904,61.69727,4.65918,61.69727z"/>
		<path class="st6" d="M6.54346,72.3125c-0.23047,0-0.9082,0-1.09717,0.01367v-0.20313h0.2168
			c0.61523,0,0.63574-0.08301,0.63574-0.33496v-3.64063C5.91455,68.3291,5.56543,68.3291,5.4043,68.3291v-0.20313
			c0.72021,0,1.06934-0.25879,1.2373-0.44727c0.13965,0,0.13965,0.00684,0.13965,0.16797v3.94141
			c0,0.25195,0.021,0.33496,0.63574,0.33496h0.2168v0.20313C7.44531,72.3125,6.77441,72.3125,6.54346,72.3125z"/>
		<path class="st6" d="M11.98682,71.34082c-0.13184,0-1.11572-0.78027-1.82324-2.21875
			c-0.62354-1.28418-0.7915-2.71094-0.7915-3.77832c0-1.47559,0.27588-2.75879,0.8877-3.96973
			c0.5874-1.17578,1.5708-2.03906,1.72705-2.03906c0.04785,0,0.10791,0.02344,0.10791,0.0957c0,0.03613,0,0.05957-0.12012,0.16797
			c-1.39111,1.41504-1.95508,3.41797-1.95508,5.74512c0,2.44629,0.67188,4.42578,1.87109,5.63672
			c0.2041,0.2041,0.2041,0.22852,0.2041,0.26367C12.09473,71.31641,12.03467,71.34082,11.98682,71.34082z"/>
		<path class="st6" d="M15.16699,68.4502c-0.65918,0-0.9834-0.50391-0.9834-1.05566c0-0.04785,0-0.19141,0.06006-0.43164
			l0.86377-3.4541h-0.97168c-0.19189,0-0.2876,0-0.2876-0.12012c0-0.22754,0.10791-0.22754,0.32373-0.22754h1.01953l0.46777-1.88379
			c0.04785-0.17969,0.15576-0.44336,0.45557-0.44336c0.22803,0,0.31201,0.17969,0.31201,0.28809
			c0,0-0.01221,0.13184-0.02441,0.15527l-0.47949,1.88379h0.94727c0.2041,0,0.28809,0,0.28809,0.13184
			c0,0.21582-0.12012,0.21582-0.32373,0.21582h-0.99561l-0.89941,3.58594c-0.04785,0.17969-0.09619,0.45605-0.09619,0.63574
			c0,0.39551,0.16797,0.47949,0.34814,0.47949c0.7793,0,1.24707-1.1748,1.39111-1.54688
			c0.06006-0.13184,0.07178-0.15625,0.20361-0.15625c0.04834,0,0.15625,0,0.15625,0.1084
			C16.94238,66.6748,16.34277,68.4502,15.16699,68.4502z"/>
		<path class="st6" d="M20.06348,69.30176c-0.58789,1.1748-1.57129,2.03906-1.72705,2.03906
			c-0.04785,0-0.10791-0.02441-0.10791-0.09668c0-0.03516,0-0.05957,0.12012-0.16797
			c1.39111-1.41504,1.95459-3.41797,1.95459-5.74414c0-2.44727-0.67139-4.42578-1.87061-5.6377
			c-0.2041-0.2041-0.2041-0.22754-0.2041-0.26367c0-0.07227,0.06006-0.0957,0.10791-0.0957
			c0.13184,0,1.11523,0.7793,1.82275,2.21875c0.67188,1.39063,0.79199,2.87891,0.79199,3.79004
			C20.95117,66.7832,20.67529,68.07813,20.06348,69.30176z"/>
	</g>
</g>
<g>
	<path class="st6" d="M211.67627,68.32325c-0.73785,0.07518-1.39696-0.46203-1.47214-1.19989
		c-0.00809-0.07946-0.00908-0.15948-0.00296-0.23911c0.08199-0.79485,0.28828-1.57189,0.61133-2.30274
		c0.15265-0.34232,0.24989-0.70673,0.28809-1.07959c0-0.312-0.13184-0.34765-0.26369-0.34765
		c-0.6958,0-1.01953,1.13916-1.11572,1.51123c-0.04785,0.16748-0.06006,0.19189-0.21582,0.19189
		c-0.06006,0-0.17969,0-0.17969-0.12012c0-0.07177,0.41943-1.84716,1.53516-1.84716
		c0.49614-0.00864,0.90535,0.38657,0.91399,0.88271c0.00052,0.02969-0.00043,0.05938-0.00285,0.08897
		c-0.0112,0.20569-0.05573,0.4082-0.13184,0.59961c-0.36459,0.82727-0.60307,1.70454-0.70752,2.60253
		c0,0.396,0.13184,0.99561,0.77979,0.99561c1.37891,0,1.94287-3.01025,1.94287-3.34619
		c0.01711-0.34567-0.09872-0.68478-0.32373-0.94775c-0.09361-0.08243-0.14995-0.19917-0.15625-0.32374
		c0.03111-0.29996,0.27466-0.53339,0.57568-0.55175c0.34814,0,0.4917,0.37207,0.4917,0.7915
		C214.24268,63.99365,213.69092,68.32325,211.67627,68.32325z"/>
	<path class="st6" d="M216.79248,72.1875h-2.59277c0-0.168,0-0.18164,0.07666-0.25879l1.3418-1.49512
		c0.41832-0.41292,0.6781-0.95979,0.73389-1.54492c0-0.57275-0.30078-1.13867-0.93652-1.13867
		c-0.43536,0.00864-0.81592,0.29601-0.94336,0.7124c0.02968-0.00739,0.06038-0.00969,0.09082-0.00683
		c0.19493-0.00935,0.36052,0.1411,0.36986,0.33603c0.00044,0.00908,0.00052,0.01817,0.00026,0.02725
		c0.00198,0.20274-0.16078,0.36871-0.36353,0.37068s-0.3687-0.16077-0.37068-0.36352
		c-0.00009-0.0094,0.00018-0.01879,0.00081-0.02817c0.01453-0.70877,0.59778-1.27328,1.30664-1.26465
		c0.75575-0.06008,1.41711,0.50387,1.47719,1.25961c0.00253,0.0319,0.00395,0.06387,0.00426,0.09586
		c0,0.69922-0.41895,1.07666-1.50928,2.041l-0.74072,0.71972h1.25781c0.22292,0.01405,0.44667-0.00487,0.66406-0.05615
		c0.07994-0.19903,0.1317-0.40824,0.15381-0.62158h0.17432L216.79248,72.1875z"/>
</g>
<g>
	<path class="st6" d="M86.67627,68.32325c-0.73786,0.07518-1.39696-0.46203-1.47214-1.19989
		c-0.00809-0.07946-0.00909-0.15948-0.00296-0.23911c0.08199-0.79485,0.28828-1.57189,0.61133-2.30274
		c0.15265-0.34232,0.2499-0.70673,0.28809-1.07959c0-0.312-0.13184-0.34765-0.26368-0.34765
		c-0.6958,0-1.01953,1.13916-1.11572,1.51123c-0.04785,0.16748-0.06006,0.19189-0.21582,0.19189
		c-0.06006,0-0.17969,0-0.17969-0.12012c0-0.07177,0.41944-1.84716,1.53516-1.84716
		c0.49615-0.00864,0.90536,0.38657,0.91399,0.88271c0.00052,0.02969-0.00043,0.05938-0.00286,0.08897
		c-0.01119,0.20569-0.05572,0.4082-0.13183,0.59961c-0.36459,0.82727-0.60308,1.70454-0.70752,2.60253
		c0,0.396,0.13183,0.99561,0.77978,0.99561c1.37891,0,1.94287-3.01025,1.94287-3.34619
		c0.01711-0.34567-0.09872-0.68478-0.32373-0.94775c-0.09361-0.08243-0.14995-0.19917-0.15625-0.32374
		c0.03111-0.29997,0.27467-0.5334,0.57569-0.55175c0.34814,0,0.4917,0.37207,0.4917,0.7915
		C89.24268,63.99365,88.69092,68.32325,86.67627,68.32325z"/>
	<path class="st6" d="M90.646,72.1665c-0.2793,0-0.88721,0-1.13184,0.021v-0.2168h0.22363
		c0.62891,0,0.64991-0.08349,0.64991-0.33545v-3.62011c-0.28753,0.12899-0.60052,0.19126-0.91553,0.18213v-0.2168
		c0.46709,0.0294,0.92611-0.132,1.272-0.44727c0.16065,0,0.16065,0.01368,0.16065,0.18164v3.9204
		c0,0.25879,0.021,0.33545,0.6499,0.33545h0.22363v0.2168C91.53369,72.1665,90.92578,72.1665,90.646,72.1665z"/>
</g>
<g>
	<path class="st6" d="M107.53223,44.33545l-0.45557,1.78711c-0.03059,0.16321-0.07469,0.32359-0.13184,0.47949
		c-0.02973,0.03474-0.07464,0.05263-0.12011,0.04785c-0.06006,0-0.144-0.01172-0.144-0.13183
		c0-0.03614,0.12012-0.4917,0.26416-1.05518l0.27588-1.12744c-1.21832,0.05247-2.24849-0.89263-2.30096-2.11095
		c-0.00086-0.01997-0.00145-0.03996-0.00177-0.05995c0-1.63135,1.76269-3.22607,3.66992-3.28613l0.69531-2.77051
		c0.04834-0.2041,0.06006-0.23975,0.18018-0.23975c0.06903-0.00986,0.13298,0.03811,0.14285,0.10714
		c0.00059,0.00414,0.00098,0.00831,0.00115,0.01249l-0.03613,0.168l-0.67188,2.72266
		c1.21832-0.05247,2.2485,0.89262,2.30097,2.11093c0.00086,0.01998,0.00145,0.03997,0.00177,0.05997
		C111.20215,42.65625,109.46338,44.27539,107.53223,44.33545z M105.69723,42.4165c-0.05408,0.85828,0.59784,1.59789,1.45612,1.65198
		c0.04224,0.00266,0.08457,0.0036,0.12688,0.00282l1.23536-4.9292c-1.63459,0.2175-2.8466,1.62565-2.81831,3.27441H105.69723z
		 M108.8276,39.14209l-1.23531,4.92916c1.63723-0.21561,2.85379-1.62273,2.83056-3.27393
		c0.057-0.85564-0.59042-1.59547-1.44606-1.65247c-0.04964-0.00331-0.09942-0.00423-0.14915-0.00275H108.8276z"/>
	<path class="st6" d="M113.27783,48.1665c-0.27929,0-0.8872,0-1.13183,0.021v-0.2168h0.22363
		c0.62891,0,0.6499-0.08349,0.6499-0.33545v-3.62012c-0.28753,0.129-0.60052,0.19126-0.91553,0.18213v-0.2168
		c0.46709,0.0294,0.92611-0.132,1.272-0.44727c0.16064,0,0.16064,0.01368,0.16064,0.18164v3.92041
		c0,0.25879,0.021,0.33545,0.6499,0.33545h0.22364v0.2168C114.16553,48.1665,113.55762,48.1665,113.27783,48.1665z"/>
	<path class="st6" d="M116.77588,48.1665c-0.2793,0-0.88721,0-1.13184,0.021v-0.2168h0.22363
		c0.62891,0,0.6499-0.08349,0.6499-0.33545v-3.62012c-0.28754,0.129-0.60052,0.19126-0.91553,0.18213v-0.2168
		c0.46709,0.0294,0.92612-0.132,1.272-0.44727c0.16064,0,0.16064,0.01368,0.16064,0.18164v3.92041
		c0,0.25879,0.021,0.33545,0.6499,0.33545h0.22363v0.2168C117.66357,48.1665,117.05566,48.1665,116.77588,48.1665z"/>
</g>
<g>
	<path class="st6" d="M148.53223,38.33545l-0.45557,1.78711c-0.03058,0.16321-0.07468,0.32359-0.13184,0.47949
		c-0.02974,0.03474-0.07465,0.05263-0.12012,0.04785c-0.06006,0-0.14404-0.01172-0.14404-0.13183
		c0-0.03614,0.12012-0.4917,0.26416-1.05518l0.27588-1.12744c-1.21832,0.05247-2.24849-0.89262-2.30096-2.11094
		c-0.00087-0.01998-0.00145-0.03997-0.00177-0.05996c0-1.63135,1.7627-3.22607,3.66992-3.28613l0.69531-2.77051
		c0.04834-0.2041,0.06006-0.23975,0.18018-0.23975c0.06903-0.00986,0.13298,0.03811,0.14284,0.10714
		c0.0006,0.00414,0.00098,0.00831,0.00116,0.01249l-0.03613,0.168l-0.67188,2.72266
		c1.21832-0.05247,2.24849,0.89262,2.30096,2.11094c0.00087,0.01998,0.00145,0.03997,0.00177,0.05996
		C152.20215,36.65625,150.46338,38.27539,148.53223,38.33545z M146.69722,36.4165c-0.05409,0.85828,0.59784,1.59789,1.45612,1.65198
		c0.04224,0.00266,0.08456,0.0036,0.12688,0.00282l1.23537-4.9292c-1.6346,0.2175-2.8466,1.62565-2.81831,3.27441H146.69722z
		 M149.82759,33.14209l-1.23531,4.92916c1.63724-0.21561,2.85379-1.62273,2.83057-3.27393
		c0.05701-0.85564-0.59042-1.59547-1.44606-1.65247c-0.04964-0.00331-0.09943-0.00423-0.14915-0.00275H149.82759z"/>
	<path class="st6" d="M154.27783,42.1665c-0.2793,0-0.88721,0-1.13184,0.021v-0.2168h0.22363
		c0.62891,0,0.6499-0.08349,0.6499-0.33545v-3.62012c-0.28754,0.129-0.60052,0.19126-0.91553,0.18213v-0.2168
		c0.46709,0.0294,0.92612-0.132,1.272-0.44727c0.16064,0,0.16064,0.01368,0.16064,0.18164v3.92041
		c0,0.25879,0.021,0.33545,0.6499,0.33545h0.22363v0.2168C155.16553,42.1665,154.55762,42.1665,154.27783,42.1665z"/>
	<path class="st6" d="M158.92236,42.1875h-2.59277c0-0.168,0-0.18164,0.07666-0.25879l1.3418-1.49512
		c0.41832-0.41292,0.6781-0.95979,0.73389-1.54492c0-0.57275-0.30078-1.13867-0.93652-1.13867
		c-0.43536,0.00864-0.8159,0.29602-0.94336,0.7124c0.02968-0.00739,0.06038-0.00969,0.09082-0.00683
		c0.19493-0.00935,0.36052,0.1411,0.36986,0.33603c0.00044,0.00908,0.00052,0.01817,0.00026,0.02725
		c0.00198,0.20274-0.16078,0.36871-0.36353,0.37068s-0.3687-0.16077-0.37068-0.36352
		c-0.00009-0.0094,0.00018-0.01879,0.00081-0.02817c0.01453-0.70877,0.59778-1.27328,1.30664-1.26465
		c0.75575-0.06007,1.41711,0.50388,1.47719,1.25964c0.00253,0.03188,0.00395,0.06385,0.00426,0.09583
		c0,0.69922-0.41895,1.07666-1.50928,2.041l-0.74072,0.71972h1.25781c0.22292,0.01405,0.44667-0.00487,0.66406-0.05615
		c0.07994-0.19903,0.13171-0.40824,0.15381-0.62158h0.17432L158.92236,42.1875z"/>
</g>
<g>
	<path class="st7" d="M137.396,24.52216c0.41945-7.44426,6.79425-13.13898,14.23851-12.71953
		c6.85815,0.38643,12.33279,5.86084,12.7195,12.71898"/>
	<polygon class="st8" points="140.522,22.494 140.058,21.969 137.47501,24.258 135.381,21.515 134.82401,21.94 137.37601,25.281 	
		"/>
	<polygon class="st8" points="161.228,22.494 161.692,21.969 164.27499,24.258 166.369,21.515 166.92599,21.94 164.37399,25.281 	
		"/>
</g>
<path class="st6" d="M154.69727,8.19141c-0.44336,0-0.93555-0.03614-1.39063-0.03614c-0.45599,0-0.92383,0.03614-1.36719,0.03614
	c-0.07823,0.01342-0.15253-0.0391-0.16595-0.11733c-0.00151-0.00881-0.0022-0.01774-0.00204-0.02667
	c0-0.22754,0.13184-0.22754,0.32326-0.22754c0.81543,0,0.8877-0.09619,0.9834-0.5039l1.69141-6.78809h-0.01172l-4.47363,7.44776
	c-0.07227,0.13183-0.13184,0.21582-0.28809,0.21582c-0.17969,0-0.17969-0.084-0.2041-0.28809l-0.73145-7.26758h-0.01172
	l-1.59473,6.36817c-0.02975,0.09727-0.04617,0.19812-0.04883,0.2998c0,0.18018,0.02441,0.4917,0.70799,0.51611
	c0.14355,0,0.22754,0.01172,0.22754,0.15577c0,0.21582-0.14355,0.21582-0.21582,0.21582c-0.37109,0-0.791-0.03614-1.1748-0.03614
	c-0.37207,0-0.78027,0.03614-1.13965,0.03614c-0.084,0-0.15625-0.03614-0.15625-0.144c0-0.21582,0.13184-0.22754,0.22852-0.22754
	c0.54671,0.06361,1.05148-0.30087,1.16309-0.83984l1.53516-6.17627c0.02788-0.073,0.04404-0.14995,0.04787-0.228
	c0-0.2041-0.32422-0.2041-0.69531-0.2041c-0.22852,0-0.3242,0-0.3242-0.144c0-0.22754,0.13184-0.22754,0.3242-0.22754h1.59473
	c0.28809,0,0.31152,0,0.33594,0.26367l0.67188,6.72852l4.07715-6.77637c0.13281-0.21582,0.168-0.21582,0.43262-0.21582h1.53516
	c0.20313,0,0.2998,0,0.2998,0.15576c0,0.21582-0.1084,0.21582-0.36035,0.21582c-0.75586,0-0.85156,0.09619-0.94727,0.48
	l-1.61914,6.48828c-0.02663,0.08979-0.04269,0.18237-0.04785,0.27588c0,0.10791,0,0.2041,0.69531,0.2041
	c0.24023,0,0.32422,0,0.32422,0.15577C154.92578,8.19141,154.78125,8.19141,154.69727,8.19141z"/>
</svg>
