<svg id="Layer_1" data-name="Layer 1" xmlns="http://www.w3.org/2000/svg" viewBox="0 0 223.375 105.28125">
  <defs>
    <style>
      .cls-1, .cls-2, .cls-3, .cls-4, .cls-5, .cls-6, .cls-7 {
        fill: none;
      }

      .cls-1, .cls-2 {
        stroke: blue;
      }

      .cls-1, .cls-2, .cls-7 {
        stroke-miterlimit: 10;
      }

      .cls-1 {
        stroke-dasharray: 2.93175 2.93175;
      }

      .cls-2 {
        stroke-dasharray: 2.97186 2.97186;
      }

      .cls-3, .cls-4, .cls-5, .cls-6 {
        stroke: #000;
      }

      .cls-3, .cls-5 {
        stroke-linecap: round;
      }

      .cls-3, .cls-4 {
        stroke-linejoin: round;
      }

      .cls-3, .cls-4, .cls-5 {
        stroke-width: 2px;
      }

      .cls-4, .cls-6 {
        stroke-linecap: square;
      }

      .cls-6 {
        stroke-width: 1.5px;
      }

      .cls-7 {
        stroke: #c1272d;
      }

      .cls-8 {
        fill: #c1272d;
      }
    </style>
  </defs>
  <title>MutualInductance</title>
  <ellipse class="cls-1" cx="151.875" cy="66.28125" rx="13.51428" ry="21.5"/>
  <ellipse class="cls-2" cx="125.61786" cy="66.28125" rx="12.25714" ry="19.5"/>
  <circle class="cls-3" cx="37.375" cy="66.28125" r="12.5"/>
  <g>
    <polyline class="cls-4" points="37.375 73.281 37.375 59.281 40.375 62.281"/>
    <line class="cls-4" x1="37.375" y1="59.28125" x2="34.375" y2="62.28125"/>
  </g>
  <g>
    <path class="cls-3" d="M150,91.08333a4.45833,4.45833,0,0,0,0-8.91666V65H50V87" transform="translate(-12.625 -33.71875)"/>
    <path class="cls-3" d="M150,91.08333A4.45834,4.45834,0,0,1,150,100" transform="translate(-12.625 -33.71875)"/>
    <path class="cls-3" d="M150,100a4.45834,4.45834,0,0,1,0,8.91667" transform="translate(-12.625 -33.71875)"/>
    <path class="cls-3" d="M150,108.91667a4.45833,4.45833,0,0,1,0,8.91666V135H50V113" transform="translate(-12.625 -33.71875)"/>
  </g>
  <g>
    <path class="cls-3" d="M178,75v7.16667a4.45833,4.45833,0,1,0,0,8.91666" transform="translate(-12.625 -33.71875)"/>
    <path class="cls-5" d="M178,91.08333A4.45834,4.45834,0,0,0,178,100" transform="translate(-12.625 -33.71875)"/>
    <path class="cls-5" d="M178,100a4.45834,4.45834,0,0,0,0,8.91667" transform="translate(-12.625 -33.71875)"/>
    <path id="path1132" class="cls-3" d="M229,135H178V117.83333a4.45833,4.45833,0,1,1,0-8.91666" transform="translate(-12.625 -33.71875)"/>
  </g>
  <circle class="cls-3" cx="219.375" cy="31.28125" r="3"/>
  <circle class="cls-3" cx="219.375" cy="101.28125" r="3"/>
  <polyline class="cls-3" points="165.375 41.281 165.375 31.281 202.375 31.281 216.375 31.281"/>
  <line class="cls-6" x1="84.875" y1="41.28125" x2="89.875" y2="41.28125"/>
  <line class="cls-6" x1="87.375" y1="43.78125" x2="87.375" y2="38.78125"/>
  <line class="cls-6" x1="84.875" y1="91.28125" x2="89.875" y2="91.28125"/>
  <line class="cls-6" x1="209.875" y1="42.28125" x2="214.875" y2="42.28125"/>
  <line class="cls-6" x1="212.375" y1="44.78125" x2="212.375" y2="39.78125"/>
  <line class="cls-6" x1="209.875" y1="92.28125" x2="214.875" y2="92.28125"/>
  <g>
    <path d="M14.07617,102.97461a.89768.89768,0,0,1-.91162-.95947,2.17111,2.17111,0,0,1,.21582-.82764l.44385-1.187.35986-.99561a2.76663,2.76663,0,0,0,.21582-.86328c0-.27588-.13183-.33594-.26367-.33594-.6958,0-1.00781,1.11524-1.11572,1.51123-.04785.16749-.06006.1919-.21582.1919-.06006,0-.17969,0-.17969-.12012,0-.06006.40771-1.84717,1.53516-1.84717a.88435.88435,0,0,1,.89941.95948,1.68111,1.68111,0,0,1-.144.67187l-.76758,2.05078a4.07078,4.07078,0,0,0-.312,1.15137c0,.32373.168.33594.26416.33594.6958,0,1.01953-1.15137,1.11523-1.499.04785-.18017.04785-.2041.2041-.2041.084,0,.17969,0,.17969.12012C15.59912,101.17578,15.20361,102.97461,14.07617,102.97461Zm1.0791-6.7041a.51032.51032,0,0,1-.53955-.51563.8145.8145,0,0,1,.76758-.75586.50957.50957,0,0,1,.53955.51563A.8145.8145,0,0,1,15.15527,96.27051Z" transform="translate(-12.625 -33.71875)"/>
    <path d="M17.10938,106.81787c-.2793,0-.88721,0-1.13184.021v-.2168h.22363c.62891,0,.6499-.0835.6499-.33545V102.6665a2.08992,2.08992,0,0,1-.91552.18213v-.21679a1.72718,1.72718,0,0,0,1.272-.44727c.16064,0,.16064.01367.16064.18164v3.92041c0,.25879.021.33545.64991.33545h.22363v.2168C17.99707,106.81787,17.38916,106.81787,17.10938,106.81787Z" transform="translate(-12.625 -33.71875)"/>
    <path d="M21.94189,105.84131c-.168,0-.68359-.6958-.98339-1.49951a6.35736,6.35736,0,0,1-.32373-2.0625,11.73518,11.73518,0,0,1,1.69091-5.75684,7.68742,7.68742,0,0,1,2.55469-2.6748A.10755.10755,0,0,1,25,93.96777c0,.03565-.01172.04786-.17969.21582-2.87842,2.44678-3.58593,6.896-3.58593,8.52735a4.9592,4.9592,0,0,0,.74316,2.84228.37315.37315,0,0,1,.084.168A.11341.11341,0,0,1,21.94189,105.84131Z" transform="translate(-12.625 -33.71875)"/>
    <path d="M26.166,102.97461a1.01117,1.01117,0,0,1-1.01954-1.0791,1.84432,1.84432,0,0,1,.06006-.40821l.86328-3.44189h-.95947c-.19189,0-.2998,0-.2998-.144,0-.22754.13183-.22754.33593-.22754H26.166l.46777-1.90723a.50068.50068,0,0,1,.46777-.43164.30055.30055,0,0,1,.32373.31152.7299.7299,0,0,1-.04785.252l-.44385,1.77539h.95948c.19189,0,.2998,0,.2998.14355,0,.228-.13183.228-.33594.228H26.8374l-.8872,3.562a2.34759,2.34759,0,0,0-.084.61182c0,.19189,0,.4917.32373.4917.6836,0,1.16309-.89942,1.3794-1.4751.0957-.21631.0957-.228.23974-.228.084,0,.17969,0,.17969.12012C27.98877,101.1875,27.37744,102.97461,26.166,102.97461Z" transform="translate(-12.625 -33.71875)"/>
    <path d="M30.59375,103.1665a7.692,7.692,0,0,1-2.55469,2.67481.1077.1077,0,0,1-.12011-.12012c0-.03613.0122-.04785.18017-.21582,2.87842-2.44678,3.58594-6.89648,3.58594-8.52734a4.96,4.96,0,0,0-.74365-2.84229.37307.37307,0,0,1-.084-.168.11328.11328,0,0,1,.12012-.12011c.16748,0,.68359.6958.9834,1.499a6.3625,6.3625,0,0,1,.32373,2.063A11.743,11.743,0,0,1,30.59375,103.1665Z" transform="translate(-12.625 -33.71875)"/>
  </g>
  <g>
    <path d="M224.30127,102.042a1.34293,1.34293,0,0,1-1.4751-1.439,7.63321,7.63321,0,0,1,.61133-2.30274,3.53538,3.53538,0,0,0,.28809-1.07959c0-.312-.13184-.34765-.26368-.34765-.6958,0-1.01953,1.13916-1.11572,1.51123-.04785.16748-.06006.19189-.21582.19189-.06006,0-.17969,0-.17969-.12012,0-.07177.41944-1.84716,1.53516-1.84716a.89849.89849,0,0,1,.91113.97168,1.90275,1.90275,0,0,1-.13183.59961,9.04407,9.04407,0,0,0-.70752,2.60253c0,.396.13183.99561.77978.99561,1.37891,0,1.94287-3.01025,1.94287-3.34619a1.35475,1.35475,0,0,0-.32373-.94775.46249.46249,0,0,1-.15625-.32374.61649.61649,0,0,1,.57569-.55175c.34814,0,.4917.37207.4917.7915C226.86768,97.7124,226.31592,102.042,224.30127,102.042Z" transform="translate(-12.625 -33.71875)"/>
    <path d="M229.41748,105.90625h-2.59277c0-.168,0-.18164.07666-.25879l1.34179-1.49512a2.50482,2.50482,0,0,0,.73389-1.54492c0-.57275-.30078-1.13867-.93652-1.13867a1.00746,1.00746,0,0,0-.94336.7124.27106.27106,0,0,1,.09082-.00683.35335.35335,0,0,1,.37012.36328.36712.36712,0,1,1-.7334-.021,1.29119,1.29119,0,0,1,1.30664-1.26465,1.37272,1.37272,0,0,1,1.48144,1.35547c0,.69922-.41894,1.07666-1.50927,2.041l-.74073.71972h1.25782a2.27011,2.27011,0,0,0,.66406-.05615,2.30533,2.30533,0,0,0,.15381-.62158h.17431Z" transform="translate(-12.625 -33.71875)"/>
  </g>
  <g>
    <path d="M99.30127,102.042a1.34293,1.34293,0,0,1-1.4751-1.439,7.63321,7.63321,0,0,1,.61133-2.30274,3.53538,3.53538,0,0,0,.28809-1.07959c0-.312-.13184-.34765-.26368-.34765-.6958,0-1.01953,1.13916-1.11572,1.51123-.04785.16748-.06006.19189-.21582.19189-.06006,0-.17969,0-.17969-.12012,0-.07177.41944-1.84716,1.53516-1.84716a.89849.89849,0,0,1,.91113.97168,1.90275,1.90275,0,0,1-.13183.59961,9.04407,9.04407,0,0,0-.70752,2.60253c0,.396.13183.99561.77978.99561,1.37891,0,1.94287-3.01025,1.94287-3.34619a1.35475,1.35475,0,0,0-.32373-.94775.46249.46249,0,0,1-.15625-.32374.61649.61649,0,0,1,.57569-.55175c.34814,0,.4917.37207.4917.7915C101.86768,97.7124,101.31592,102.042,99.30127,102.042Z" transform="translate(-12.625 -33.71875)"/>
    <path d="M103.271,105.88525c-.2793,0-.88721,0-1.13184.021v-.2168h.22363c.62891,0,.64991-.08349.64991-.33545v-3.62011a2.08887,2.08887,0,0,1-.91553.18213v-.2168a1.72718,1.72718,0,0,0,1.272-.44727c.16065,0,.16065.01368.16065.18164V105.354c0,.25879.021.33545.6499.33545h.22363v.2168C104.15869,105.88525,103.55078,105.88525,103.271,105.88525Z" transform="translate(-12.625 -33.71875)"/>
  </g>
  <g>
    <path d="M120.15723,78.0542l-.45557,1.78711a2.99692,2.99692,0,0,1-.13184.47949.139.139,0,0,1-.12011.04785c-.06006,0-.144-.01172-.144-.13183,0-.03614.12012-.4917.26416-1.05518l.27588-1.12744a2.208,2.208,0,0,1-2.30273-2.1709c0-1.63135,1.76269-3.22607,3.66992-3.28613l.69531-2.77051c.04834-.2041.06006-.23975.18018-.23975a.12626.12626,0,0,1,.144.11963l-.03613.168-.67188,2.72266a2.208,2.208,0,0,1,2.30274,2.1709C123.82715,76.375,122.08838,77.99414,120.15723,78.0542Zm-1.835-1.91895a1.55713,1.55713,0,0,0,1.583,1.65479l1.23536-4.9292A3.24708,3.24708,0,0,0,118.32227,76.13525Zm3.13037-3.27441L120.21729,77.79a3.256,3.256,0,0,0,2.83056-3.27393A1.5527,1.5527,0,0,0,121.45264,72.86084Z" transform="translate(-12.625 -33.71875)"/>
    <path d="M125.90283,81.88525c-.27929,0-.8872,0-1.13183.021v-.2168h.22363c.62891,0,.6499-.08349.6499-.33545V77.73389a2.08885,2.08885,0,0,1-.91553.18213v-.2168a1.7272,1.7272,0,0,0,1.272-.44727c.16064,0,.16064.01368.16064.18164V81.354c0,.25879.021.33545.6499.33545h.22364v.2168C126.79053,81.88525,126.18262,81.88525,125.90283,81.88525Z" transform="translate(-12.625 -33.71875)"/>
    <path d="M129.40088,81.88525c-.2793,0-.88721,0-1.13184.021v-.2168h.22364c.6289,0,.6499-.08349.6499-.33545V77.73389a2.08885,2.08885,0,0,1-.91553.18213v-.2168a1.72718,1.72718,0,0,0,1.272-.44727c.16065,0,.16065.01368.16065.18164V81.354c0,.25879.021.33545.6499.33545h.22363v.2168C130.28857,81.88525,129.68066,81.88525,129.40088,81.88525Z" transform="translate(-12.625 -33.71875)"/>
  </g>
  <g>
    <path d="M161.15723,72.0542l-.45557,1.78711a2.99692,2.99692,0,0,1-.13184.47949.139.139,0,0,1-.12011.04785c-.06006,0-.14405-.01172-.14405-.13183,0-.03614.12012-.4917.26416-1.05518l.27588-1.12744a2.208,2.208,0,0,1-2.30273-2.1709c0-1.63135,1.76269-3.22607,3.66992-3.28613l.69531-2.77051c.04834-.2041.06006-.23975.18018-.23975a.12626.12626,0,0,1,.144.11963l-.03613.168-.67188,2.72266a2.208,2.208,0,0,1,2.30274,2.1709C164.82715,70.375,163.08838,71.99414,161.15723,72.0542Zm-1.835-1.91895a1.55713,1.55713,0,0,0,1.583,1.65479l1.23536-4.9292A3.24708,3.24708,0,0,0,159.32227,70.13525Zm3.13037-3.27441L161.21729,71.79a3.256,3.256,0,0,0,2.83056-3.27393A1.5527,1.5527,0,0,0,162.45264,66.86084Z" transform="translate(-12.625 -33.71875)"/>
    <path d="M166.90283,75.88525c-.27929,0-.8872,0-1.13183.021v-.2168h.22363c.62891,0,.6499-.08349.6499-.33545V71.73389a2.08885,2.08885,0,0,1-.91553.18213v-.2168a1.7272,1.7272,0,0,0,1.272-.44727c.16064,0,.16064.01368.16064.18164V75.354c0,.25879.021.33545.6499.33545h.22364v.2168C167.79053,75.88525,167.18262,75.88525,166.90283,75.88525Z" transform="translate(-12.625 -33.71875)"/>
    <path d="M171.54736,75.90625h-2.59277c0-.168,0-.18164.07666-.25879l1.3418-1.49512a2.50486,2.50486,0,0,0,.73388-1.54492c0-.57275-.30078-1.13867-.93652-1.13867a1.00748,1.00748,0,0,0-.94336.7124.27109.27109,0,0,1,.09082-.00683.35335.35335,0,0,1,.37012.36328.36712.36712,0,1,1-.7334-.021,1.29119,1.29119,0,0,1,1.30664-1.26465,1.37273,1.37273,0,0,1,1.48145,1.35547c0,.69922-.41895,1.07666-1.50928,2.041l-.74072.71972h1.25781a2.27007,2.27007,0,0,0,.66406-.05615,2.305,2.305,0,0,0,.15381-.62158h.17432Z" transform="translate(-12.625 -33.71875)"/>
  </g>
  <g>
    <path class="cls-7" d="M150.021,58.24091a13.5004,13.5004,0,0,1,26.958-.00055" transform="translate(-12.625 -33.71875)"/>
    <polygon class="cls-8" points="140.522 22.494 140.058 21.969 137.475 24.258 135.381 21.515 134.824 21.94 137.376 25.281 140.522 22.494"/>
    <polygon class="cls-8" points="161.228 22.494 161.692 21.969 164.275 24.258 166.369 21.515 166.926 21.94 164.374 25.281 161.228 22.494"/>
  </g>
  <path d="M167.32227,41.91016c-.44336,0-.93555-.03614-1.39063-.03614-.456,0-.92383.03614-1.36719.03614a.14371.14371,0,0,1-.168-.144c0-.22754.13184-.22754.32325-.22754.81543,0,.88769-.09619.9834-.5039l1.6914-6.78809h-.01172l-4.47363,7.44776c-.07227.13183-.13184.21582-.28809.21582-.17968,0-.17968-.084-.2041-.28809l-.73144-7.26758h-.01172l-1.59473,6.36817a1.12528,1.12528,0,0,0-.04883.2998c0,.18018.02442.4917.708.51611.14356,0,.22754.01172.22754.15577,0,.21582-.14355.21582-.21582.21582-.37109,0-.791-.03614-1.1748-.03614-.37207,0-.78028.03614-1.13965.03614-.084,0-.15625-.03614-.15625-.144,0-.21582.13183-.22754.22851-.22754a1.06238,1.06238,0,0,0,1.16309-.83984l1.53515-6.17627a.74085.74085,0,0,0,.04786-.228c0-.2041-.32422-.2041-.69532-.2041-.22851,0-.32421,0-.32421-.144,0-.22754.13183-.22754.32421-.22754h1.59473c.28809,0,.31152,0,.33594.26367l.67187,6.72852,4.07715-6.77637c.13281-.21582.168-.21582.43262-.21582h1.53515c.20313,0,.29981,0,.29981.15576,0,.21582-.1084.21582-.36035.21582-.75586,0-.85156.09619-.94727.48l-1.61914,6.48828a1.20354,1.20354,0,0,0-.04785.27588c0,.10791,0,.2041.69531.2041.24024,0,.32422,0,.32422.15577C167.55078,41.91016,167.40625,41.91016,167.32227,41.91016Z" transform="translate(-12.625 -33.71875)"/>
</svg>
