<svg id="Layer_1" data-name="Layer 1" xmlns="http://www.w3.org/2000/svg" viewBox="0 0 200 75.90787">
  <defs>
    <style>
      .cls-1, .cls-5 {
        fill: #8ff4dd;
      }

      .cls-2, .cls-3, .cls-4 {
        fill: none;
        stroke: #8ff4dd;
      }

      .cls-2 {
        stroke-width: 1.5px;
      }

      .cls-3 {
        stroke-width: 2px;
      }

      .cls-4 {
        stroke-miterlimit: 10;
      }

      .cls-5 {
        fill-rule: evenodd;
      }
    </style>
  </defs>
  <title>NANDNOREquivalentGIC</title>
  <g>
    <path class="cls-1" d="M63.88889,113.88889v22.22222H75.26455a11.11111,11.11111,0,0,0,0-22.22222Zm1.5873,1.5873h9.78836A9.19008,9.19008,0,0,1,84.52381,125,9.40935,9.40935,0,0,1,75,134.52381H65.47619Z" transform="translate(-50 -111.54607)"/>
    <path class="cls-2" d="M91.11111,125a2.22222,2.22222,0,1,1-2.22222-2.22222A2.22222,2.22222,0,0,1,91.11111,125Z" transform="translate(-50 -111.54607)"/>
    <line class="cls-3" x1="41" y1="13.45393" x2="50" y2="13.45393"/>
    <line class="cls-3" x1="15" y1="7.45393" y2="7.45393"/>
    <line class="cls-3" x1="15" y1="19.45393" y2="19.45393"/>
  </g>
  <g>
    <path class="cls-1" d="M163.88889,112.88889v22.22222h11.37566a11.11111,11.11111,0,0,0,0-22.22222Zm1.5873,1.5873h9.78836A9.19008,9.19008,0,0,1,184.52381,124,9.40935,9.40935,0,0,1,175,133.52381h-9.52381Z" transform="translate(-50 -111.54607)"/>
    <line class="cls-3" x1="136" y1="12.45393" x2="151" y2="12.45393"/>
    <line class="cls-3" x1="115" y1="6.45393" x2="100" y2="6.45393"/>
    <line class="cls-3" x1="115" y1="18.45393" x2="100" y2="18.45393"/>
  </g>
  <g>
    <line class="cls-4" x1="62.5" y1="13.45393" x2="86.4155" y2="13.45393"/>
    <polygon class="cls-1" points="83.102 17.544 82.42 16.811 86.032 13.455 82.42 10.097 83.102 9.365 87.5 13.455 83.102 17.544"/>
  </g>
  <g>
    <line class="cls-4" x1="62.5" y1="63.45393" x2="86.4155" y2="63.45393"/>
    <polygon class="cls-1" points="83.102 67.544 82.42 66.811 86.032 63.455 82.42 60.097 83.102 59.365 87.5 63.455 83.102 67.544"/>
  </g>
  <g>
    <path class="cls-5" d="M60.60764,163.88889l1.11111,1.35416a16.71871,16.71871,0,0,1,0,19.51389l-1.11111,1.35417h9.53125a19.22686,19.22686,0,0,0,7.56944-1.33681c3.29739-1.35042,6.96475-4.07959,9.82639-9.375L86.80556,175l.72916-.39931c-5.72395-10.592-14.75329-10.7118-17.39583-10.7118Zm3.26389,1.66666h6.26736c2.60232,0,10.15936-.07233,15.53819,9.44445-2.64821,4.68282-5.84515,7.04661-8.73264,8.22916a16.95891,16.95891,0,0,1-6.80555,1.21528h-6.25a18.169,18.169,0,0,0-.01736-18.88889Z" transform="translate(-50 -111.54607)"/>
    <path class="cls-2" d="M91.11111,175a2.22222,2.22222,0,1,1-2.22222-2.22222A2.22222,2.22222,0,0,1,91.11111,175Z" transform="translate(-50 -111.54607)"/>
    <line class="cls-3" x1="41" y1="63.45393" x2="50" y2="63.45393"/>
    <line class="cls-3" x1="15" y1="57.45393" y2="57.45393"/>
    <line class="cls-3" x1="15" y1="69.45393" y2="69.45393"/>
  </g>
  <g>
    <path class="cls-3" d="M241.194,124H250m-36,0H200" transform="translate(-50 -111.54607)"/>
    <path class="cls-1" d="M213.29824,111.54607v24.90786l1.1985-.59056,22.80615-11.11648v-1.49378l-22.80615-11.11648Zm1.66747,2.6749L235.04486,124l-20.07915,9.779Z" transform="translate(-50 -111.54607)"/>
    <path class="cls-2" d="M241.10681,124a2.2233,2.2233,0,1,1-2.22329-2.2233A2.2233,2.2233,0,0,1,241.10681,124Z" transform="translate(-50 -111.54607)"/>
  </g>
  <g>
    <path class="cls-3" d="M241.194,175H250m-36,0H200" transform="translate(-50 -111.54607)"/>
    <path class="cls-1" d="M213.29824,162.54607v24.90786l1.1985-.59056,22.80615-11.11648v-1.49378l-22.80615-11.11648Zm1.66747,2.6749L235.04486,175l-20.07915,9.779Z" transform="translate(-50 -111.54607)"/>
    <path class="cls-2" d="M241.10681,175a2.2233,2.2233,0,1,1-2.22329-2.2233A2.2233,2.2233,0,0,1,241.10681,175Z" transform="translate(-50 -111.54607)"/>
  </g>
  <g>
    <path class="cls-5" d="M160.60764,163.88889l1.11111,1.35416a16.71871,16.71871,0,0,1,0,19.51389l-1.11111,1.35417h9.53125a19.22686,19.22686,0,0,0,7.56944-1.33681c3.29739-1.35042,6.96475-4.07959,9.82639-9.375L186.80556,175l.72916-.39931c-5.724-10.592-14.75329-10.7118-17.39583-10.7118Zm3.26389,1.66666h6.26736c2.60232,0,10.15936-.07233,15.53819,9.44445-2.64821,4.68282-5.84515,7.04661-8.73264,8.22916a16.95891,16.95891,0,0,1-6.80555,1.21528h-6.25a18.169,18.169,0,0,0-.01736-18.88889Z" transform="translate(-50 -111.54607)"/>
    <line class="cls-3" x1="151" y1="63.45393" x2="136" y2="63.45393"/>
    <line class="cls-3" x1="115" y1="57.45393" x2="100" y2="57.45393"/>
    <line class="cls-3" x1="115" y1="69.45393" x2="100" y2="69.45393"/>
  </g>
</svg>
