<svg xmlns="http://www.w3.org/2000/svg" viewBox="0 0 210 149.56505">
  <defs>
    <style>
      .cls-1, .cls-3, .cls-4, .cls-6 {
        fill: none;
        stroke: #8ff4dd;
      }

      .cls-1, .cls-6 {
        stroke-width: 2px;
      }

      .cls-2, .cls-5 {
        fill: #8ff4dd;
      }

      .cls-3 {
        stroke-width: 1.5px;
      }

      .cls-4, .cls-6 {
        stroke-miterlimit: 10;
      }

      .cls-5 {
        fill-rule: evenodd;
      }

      .cls-6 {
        stroke-linecap: square;
      }
    </style>
  </defs>
  <title>NORLogic</title>
  <g id="Layer_1" data-name="Layer 1">
    <g>
      <path class="cls-1" d="M91.194,125H100m-36,0H50" transform="translate(-50 -112.54607)"/>
      <path class="cls-2" d="M63.29824,112.54607v24.90786l1.1985-.59056,22.80615-11.11648v-1.49378L64.49674,113.13663Zm1.66747,2.6749L85.04486,125l-20.07915,9.779Z" transform="translate(-50 -112.54607)"/>
      <path class="cls-3" d="M91.10681,125a2.2233,2.2233,0,1,1-2.22329-2.2233A2.2233,2.2233,0,0,1,91.10681,125Z" transform="translate(-50 -112.54607)"/>
    </g>
    <g>
      <line class="cls-4" x1="62" y1="12.45393" x2="85.9155" y2="12.45393"/>
      <polygon class="cls-2" points="82.602 16.544 81.92 15.811 85.532 12.455 81.92 9.097 82.602 8.365 87 12.455 82.602 16.544"/>
    </g>
    <g>
      <path class="cls-2" d="M63.88889,163.88889v22.22222H75.26455a11.11111,11.11111,0,0,0,0-22.22222Zm1.5873,1.5873h9.78836A9.19008,9.19008,0,0,1,84.52381,175,9.40935,9.40935,0,0,1,75,184.52381H65.47619Z" transform="translate(-50 -112.54607)"/>
      <line class="cls-1" x1="36" y1="62.45393" x2="50" y2="62.45393"/>
      <line class="cls-1" x1="15" y1="56.45393" y2="56.45393"/>
      <line class="cls-1" x1="15" y1="68.45393" y2="68.45393"/>
    </g>
    <g>
      <line class="cls-4" x1="62" y1="62.95393" x2="85.9155" y2="62.95393"/>
      <polygon class="cls-2" points="82.602 67.044 81.92 66.311 85.532 62.955 81.92 59.597 82.602 58.865 87 62.955 82.602 67.044"/>
    </g>
    <g>
      <path class="cls-5" d="M60.60764,225.88889l1.11111,1.35416a16.71871,16.71871,0,0,1,0,19.51389l-1.11111,1.35417h9.53125a19.22686,19.22686,0,0,0,7.56944-1.33681c3.29739-1.35042,6.96475-4.07959,9.82639-9.375L86.80556,237l.72916-.39931c-5.72395-10.592-14.75329-10.7118-17.39583-10.7118Zm3.26389,1.66666h6.26736c2.60232,0,10.15936-.07233,15.53819,9.44445-2.64821,4.68282-5.84515,7.04661-8.73264,8.22916a16.95891,16.95891,0,0,1-6.80555,1.21528h-6.25a18.169,18.169,0,0,0-.01736-18.88889Z" transform="translate(-50 -112.54607)"/>
      <line class="cls-1" x1="50" y1="124.45393" x2="36" y2="124.45393"/>
      <line class="cls-1" x1="15" y1="118.45393" y2="118.45393"/>
      <line class="cls-1" x1="15" y1="130.45393" y2="130.45393"/>
    </g>
    <g>
      <line class="cls-4" x1="62" y1="124.95393" x2="85.9155" y2="124.95393"/>
      <polygon class="cls-2" points="82.602 129.044 81.92 128.311 85.532 124.955 81.92 121.597 82.602 120.865 87 124.955 82.602 129.044"/>
    </g>
    <g>
      <g>
        <line class="cls-6" x1="110" y1="6.45393" x2="110" y2="18.45393"/>
        <line class="cls-6" x1="100" y1="12.45393" x2="110" y2="12.45393"/>
      </g>
      <g>
        <path class="cls-5" d="M170.60764,113.88889l1.11111,1.35416a16.71871,16.71871,0,0,1,0,19.51389l-1.11111,1.35417h9.53125a19.22686,19.22686,0,0,0,7.56944-1.33681c3.29739-1.35042,6.96475-4.07959,9.82639-9.375L196.80556,125l.72916-.39931c-5.724-10.592-14.75329-10.7118-17.39583-10.7118Zm3.26389,1.66666h6.26736c2.60232,0,10.15936-.07233,15.53819,9.44445-2.64821,4.68282-5.84515,7.04661-8.73264,8.22916a16.95891,16.95891,0,0,1-6.80555,1.21528h-6.25a18.169,18.169,0,0,0-.01736-18.88889Z" transform="translate(-50 -112.54607)"/>
        <path class="cls-3" d="M201.11111,125a2.22222,2.22222,0,1,1-2.22222-2.22222A2.22222,2.22222,0,0,1,201.11111,125Z" transform="translate(-50 -112.54607)"/>
        <line class="cls-1" x1="151" y1="12.45393" x2="160" y2="12.45393"/>
        <line class="cls-1" x1="125" y1="6.45393" x2="110" y2="6.45393"/>
        <line class="cls-1" x1="125" y1="18.45393" x2="110" y2="18.45393"/>
      </g>
    </g>
    <g>
      <g>
        <line class="cls-6" x1="160" y1="58.45393" x2="160" y2="70.45393"/>
        <line class="cls-6" x1="150" y1="64.45393" x2="160" y2="64.45393"/>
      </g>
      <g>
        <path class="cls-5" d="M220.60764,165.88889l1.11111,1.35416a16.71871,16.71871,0,0,1,0,19.51389l-1.11111,1.35417h9.53125a19.22686,19.22686,0,0,0,7.56944-1.33681c3.29739-1.35042,6.96475-4.07959,9.82639-9.375L246.80556,177l.72916-.39931c-5.724-10.592-14.75329-10.7118-17.39583-10.7118Zm3.26389,1.66666h6.26736c2.60232,0,10.15936-.07233,15.53819,9.44445-2.64821,4.68282-5.84515,7.04661-8.73264,8.22916a16.95891,16.95891,0,0,1-6.80555,1.21528h-6.25a18.169,18.169,0,0,0-.01736-18.88889Z" transform="translate(-50 -112.54607)"/>
        <path class="cls-3" d="M251.11111,177a2.22222,2.22222,0,1,1-2.22222-2.22222A2.22222,2.22222,0,0,1,251.11111,177Z" transform="translate(-50 -112.54607)"/>
        <line class="cls-1" x1="201" y1="64.45393" x2="210" y2="64.45393"/>
        <line class="cls-1" x1="175" y1="58.45393" x2="160" y2="58.45393"/>
        <line class="cls-1" x1="175" y1="70.45393" x2="160" y2="70.45393"/>
      </g>
    </g>
    <g>
      <g>
        <line class="cls-6" x1="110" y1="105.45393" x2="110" y2="117.45393"/>
        <line class="cls-6" x1="100" y1="111.45393" x2="110" y2="111.45393"/>
      </g>
      <g>
        <path class="cls-5" d="M170.60764,212.88889l1.11111,1.35416a16.71871,16.71871,0,0,1,0,19.51389l-1.11111,1.35417h9.53125a19.22686,19.22686,0,0,0,7.56944-1.33681c3.29739-1.35042,6.96475-4.07959,9.82639-9.375L196.80556,224l.72916-.39931c-5.724-10.592-14.75329-10.7118-17.39583-10.7118Zm3.26389,1.66666h6.26736c2.60232,0,10.15936-.07233,15.53819,9.44445-2.64821,4.68282-5.84515,7.04661-8.73264,8.22916a16.95891,16.95891,0,0,1-6.80555,1.21528h-6.25a18.169,18.169,0,0,0-.01736-18.88889Z" transform="translate(-50 -112.54607)"/>
        <path class="cls-3" d="M201.11111,224a2.22222,2.22222,0,1,1-2.22222-2.22222A2.22222,2.22222,0,0,1,201.11111,224Z" transform="translate(-50 -112.54607)"/>
        <line class="cls-1" x1="151" y1="111.45393" x2="160" y2="111.45393"/>
        <line class="cls-1" x1="125" y1="105.45393" x2="110" y2="105.45393"/>
        <line class="cls-1" x1="125" y1="117.45393" x2="110" y2="117.45393"/>
      </g>
    </g>
    <g>
      <g>
        <line class="cls-6" x1="110" y1="132.45393" x2="110" y2="144.45393"/>
        <line class="cls-6" x1="100" y1="138.45393" x2="110" y2="138.45393"/>
      </g>
      <g>
        <path class="cls-5" d="M170.60764,239.88889l1.11111,1.35416a16.71871,16.71871,0,0,1,0,19.51389l-1.11111,1.35417h9.53125a19.22686,19.22686,0,0,0,7.56944-1.33681c3.29739-1.35042,6.96475-4.07959,9.82639-9.375L196.80556,251l.72916-.39931c-5.724-10.592-14.75329-10.7118-17.39583-10.7118Zm3.26389,1.66666h6.26736c2.60232,0,10.15936-.07233,15.53819,9.44445-2.64821,4.68282-5.84515,7.04661-8.73264,8.22916a16.95891,16.95891,0,0,1-6.80555,1.21528h-6.25a18.169,18.169,0,0,0-.01736-18.88889Z" transform="translate(-50 -112.54607)"/>
        <path class="cls-3" d="M201.11111,251a2.22222,2.22222,0,1,1-2.22222-2.22222A2.22222,2.22222,0,0,1,201.11111,251Z" transform="translate(-50 -112.54607)"/>
        <line class="cls-1" x1="151" y1="138.45393" x2="160" y2="138.45393"/>
        <line class="cls-1" x1="125" y1="132.45393" x2="110" y2="132.45393"/>
        <line class="cls-1" x1="125" y1="144.45393" x2="110" y2="144.45393"/>
      </g>
    </g>
    <g>
      <path class="cls-5" d="M160.60764,165.88889l1.11111,1.35416a16.71871,16.71871,0,0,1,0,19.51389l-1.11111,1.35417h9.53125a19.22686,19.22686,0,0,0,7.56944-1.33681c3.29739-1.35042,6.96475-4.07959,9.82639-9.375L186.80556,177l.72916-.39931c-5.724-10.592-14.75329-10.7118-17.39583-10.7118Zm3.26389,1.66666h6.26736c2.60232,0,10.15936-.07233,15.53819,9.44445-2.64821,4.68282-5.84515,7.04661-8.73264,8.22916a16.95891,16.95891,0,0,1-6.80555,1.21528h-6.25a18.169,18.169,0,0,0-.01736-18.88889Z" transform="translate(-50 -112.54607)"/>
      <path class="cls-3" d="M191.11111,177a2.22222,2.22222,0,1,1-2.22222-2.22222A2.22222,2.22222,0,0,1,191.11111,177Z" transform="translate(-50 -112.54607)"/>
      <line class="cls-1" x1="141" y1="64.45393" x2="150" y2="64.45393"/>
      <line class="cls-1" x1="115" y1="58.45393" x2="100" y2="58.45393"/>
      <line class="cls-1" x1="115" y1="70.45393" x2="100" y2="70.45393"/>
    </g>
    <g>
      <path class="cls-5" d="M220.60764,225.88889l1.11111,1.35416a16.71871,16.71871,0,0,1,0,19.51389l-1.11111,1.35417h9.53125a19.22686,19.22686,0,0,0,7.56944-1.33681c3.29739-1.35042,6.96475-4.07959,9.82639-9.375L246.80556,237l.72916-.39931c-5.724-10.592-14.75329-10.7118-17.39583-10.7118Zm3.26389,1.66666h6.26736c2.60232,0,10.15936-.07233,15.53819,9.44445-2.64821,4.68282-5.84515,7.04661-8.73264,8.22916a16.95891,16.95891,0,0,1-6.80555,1.21528h-6.25a18.169,18.169,0,0,0-.01736-18.88889Z" transform="translate(-50 -112.54607)"/>
      <path class="cls-3" d="M251.11111,237a2.22222,2.22222,0,1,1-2.22222-2.22222A2.22222,2.22222,0,0,1,251.11111,237Z" transform="translate(-50 -112.54607)"/>
      <line class="cls-1" x1="201" y1="124.45393" x2="210" y2="124.45393"/>
      <line class="cls-1" x1="175" y1="118.45393" x2="160" y2="118.45393"/>
      <line class="cls-1" x1="175" y1="130.45393" x2="160" y2="130.45393"/>
    </g>
  </g>
  <g id="Layer_2" data-name="Layer 2">
    <line class="cls-6" x1="160" y1="111.45393" x2="160" y2="118.45393"/>
    <line class="cls-6" x1="160" y1="130.45393" x2="160" y2="138.45393"/>
  </g>
</svg>
