<?xml version="1.0" encoding="utf-8"?>
<!-- Generator: Adobe Illustrator 23.0.3, SVG Export Plug-In . SVG Version: 6.00 Build 0)  -->
<svg version="1.1" id="Layer_1" xmlns="http://www.w3.org/2000/svg" xmlns:xlink="http://www.w3.org/1999/xlink" x="0px" y="0px"
	 viewBox="0 0 250 169.2793" style="enable-background:new 0 0 250 169.2793;" xml:space="preserve">
<style type="text/css">
	.st0{fill:none;stroke:#8FF4DD;stroke-width:2;stroke-miterlimit:10;}
	.st1{fill:#8FF4DD;}
	.st2{fill:none;stroke:#FD1D53;stroke-width:2;stroke-linecap:round;stroke-miterlimit:10;}
</style>
<title>OddFunction</title>
<g>
	<g>
		<g>
			<line class="st0" x1="125" y1="3.95598" x2="125" y2="150"/>
			<polygon class="st1" points="120.547,12.232 121.864,12.71 125,4.093 128.136,12.71 129.452,12.232 125,0 			"/>
		</g>
		<g>
			<line class="st0" x1="0" y1="75" x2="246.04401" y2="75"/>
			<polygon class="st1" points="237.76801,79.453 237.28999,78.136 245.907,75 237.28999,71.864 237.76801,70.548 250,75 			"/>
		</g>
	</g>
</g>
<g>
	<g>
		<polyline class="st2" points="125,75 150,25 199,124 225,75 		"/>
		<polyline class="st2" points="25,75 50,25 99,124 125,75 		"/>
	</g>
</g>
<g id="Layer_3">
	<path class="st1" d="M243.49219,91.35645c-0.55841,0.00588-1.01587-0.44204-1.02176-1.00047
		c-0.00027-0.02623,0.00046-0.05247,0.00223-0.07864c0.00433-0.13789,0.02432-0.27483,0.05957-0.4082l0.86328-3.44189h-0.95999
		c-0.19141,0-0.29883,0-0.29883-0.14405c0-0.22754,0.13086-0.22754,0.33594-0.22754h1.01953l0.4668-1.90722
		c0.03311-0.23737,0.22946-0.41817,0.46875-0.43164c0.16544-0.01273,0.30984,0.11105,0.3226,0.27647
		c0.00089,0.01166,0.0011,0.02336,0.00064,0.03505c-0.00095,0.08617-0.01715,0.17149-0.04785,0.252l-0.44336,1.77539h0.95901
		c0.19141,0,0.2998,0,0.2998,0.14356c0,0.228-0.13184,0.228-0.33594,0.228h-1.01953l-0.8877,3.562
		c-0.05481,0.19935-0.08307,0.40506-0.08401,0.61181c0,0.1919,0,0.4917,0.32422,0.4917c0.68359,0,1.16309-0.89941,1.37891-1.47509
		c0.0957-0.21631,0.0957-0.228,0.24023-0.228c0.08401,0,0.17969,0,0.17969,0.12012
		C245.31445,89.56934,244.70313,91.35645,243.49219,91.35645z"/>
	<path class="st1" d="M137.78027,28.67432c-0.4082,0-0.83984-0.03614-1.25977-0.03614c-0.45605,0-0.93555,0.03614-1.37891,0.03614
		c-0.03613,0-0.18066,0-0.18066-0.144c0-0.22754,0.14453-0.22754,0.27637-0.22754c0.51563,0,0.80373-0.144,0.80373-0.38378
		l-0.13184-1.99122h-2.73439l-0.86424,1.51123c-0.08827,0.13793-0.14558,0.29335-0.168,0.45557
		c0,0.37207,0.43164,0.396,0.50391,0.4082c0.0957,0.01172,0.19238,0.01172,0.19238,0.14356c0,0.228-0.15625,0.228-0.21582,0.228
		c-0.36035,0-0.74414-0.03614-1.11621-0.03614c-0.31152,0-0.65918,0.03614-0.959,0.03614
		c-0.0735,0.00581-0.13779-0.04907-0.14359-0.12256c-0.00056-0.00714-0.00055-0.01431,0.00003-0.02144
		c0,0,0.01172-0.21582,0.14355-0.22754c0.64,0.0016,1.21574-0.38874,1.45117-0.98388l3.98145-7.01612
		c0.07227-0.13183,0.12012-0.21582,0.3125-0.21582c0.19141,0,0.20313,0.03614,0.21582,0.29981l0.51563,7.50781
		c0.02344,0.312,0.05957,0.4082,0.68359,0.4082c0.19141,0,0.28809,0,0.28809,0.15577
		C137.99609,28.67432,137.85156,28.67432,137.78027,28.67432z M135.60939,21.63432l-2.23145,3.92187h2.50684L135.60939,21.63432z"/>
	<g>
		<path class="st1" d="M108.62399,125.916h-6.53613c-0.168,0-0.39648,0-0.39648-0.24023c0-0.23975,0.22851-0.23975,0.39648-0.23975
			h6.53613c0.168,0,0.39551,0,0.39551,0.23975C109.01953,125.916,108.79201,125.916,108.62399,125.916z"/>
		<path class="st1" d="M118.11621,128.67432c-0.4082,0-0.83984-0.03613-1.25977-0.03613c-0.45605,0-0.93555,0.03613-1.37891,0.03613
			c-0.03613,0-0.18066,0-0.18066-0.144c0-0.22754,0.14453-0.22754,0.27637-0.22754c0.51563,0,0.80371-0.144,0.80371-0.38377
			l-0.13184-1.99123h-2.73438l-0.86426,1.51123c-0.08827,0.13792-0.14558,0.29335-0.168,0.45557
			c0,0.37207,0.43164,0.396,0.50391,0.4082c0.0957,0.01172,0.19238,0.01172,0.19238,0.14355c0,0.228-0.15625,0.228-0.21582,0.228
			c-0.36035,0-0.74414-0.03613-1.11621-0.03613c-0.31152,0-0.65918,0.03613-0.959,0.03613
			c-0.0735,0.0058-0.13779-0.04907-0.14359-0.12256c-0.00056-0.00714-0.00055-0.01431,0.00003-0.02144
			c0,0,0.01172-0.21582,0.14355-0.22754c0.64,0.0016,1.21574-0.38875,1.45117-0.98389l3.98145-7.01611
			c0.07227-0.13184,0.12012-0.21582,0.3125-0.21582c0.19141,0,0.20313,0.03613,0.21582,0.2998l0.51563,7.50781
			c0.02344,0.312,0.05957,0.4082,0.68359,0.4082c0.19141,0,0.28809,0,0.28809,0.15578
			C118.332,128.67432,118.1875,128.67432,118.11621,128.67432z M115.94531,121.63432l-2.23145,3.92188h2.50684L115.94531,121.63432z
			"/>
	</g>
	<path class="st1" d="M228.77539,65.25342c-0.06055,0-0.17969,0-0.17969-0.15625c0.00337-0.06039,0.01122-0.12045,0.02344-0.17969
		c0.07358-0.35534,0.11378-0.71677,0.12012-1.07959c0-0.74316-0.27539-0.91113-1.52344-0.91113
		c-0.20798-0.00627-0.41615,0.00172-0.62305,0.02392c-0.09668,0.01172-0.19238,0.03565-0.27637,0.39551l-1.6064,6.45264
		c-0.02846,0.07287-0.04495,0.14986-0.04883,0.228c0,0.16748,0.06055,0.21582,0.39648,0.25146
		c0.03613,0,0.40723,0.02441,0.59961,0.02441h0.17969c0.17969,0,0.2998,0,0.2998,0.13184c0,0.23975-0.14355,0.23975-0.25195,0.23975
		c-0.61133,0-1.25879-0.03614-1.88281-0.03614c-0.61131,0-1.24707,0.03614-1.85938,0.03614c-0.05957,0-0.20313,0-0.20313-0.144
		c0-0.22754,0.13184-0.22754,0.33501-0.22754h0.19238c1.05566,0,1.16309-0.12011,1.27148-0.54l1.60645-6.44043
		c0.02908-0.08503,0.04553-0.17387,0.04881-0.26368c0-0.084,0-0.13183-0.27637-0.13183h-0.40726
		c-1.54785,0-1.88379,0.25146-2.44727,1.94287c-0.12012,0.31152-0.13184,0.32373-0.15527,0.34766
		c-0.03734,0.02995-0.08545,0.04305-0.13281,0.03613c-0.03516,0-0.17969,0-0.17969-0.13184
		c0.01004-0.07064,0.03044-0.13941,0.06055-0.2041l0.707-2.147c0.07227-0.21582,0.1084-0.21582,0.34766-0.21582h6.15332
		c0.19141,0,0.2998,0,0.2998,0.144c0.00209,0.05225-0.00218,0.10455-0.0127,0.15576l-0.35938,2.147
		C228.95508,65.21729,228.93164,65.25342,228.77539,65.25342z"/>
	<g>
		<path class="st1" d="M22.624,84.916h-6.53611c-0.168,0-0.39648,0-0.39648-0.24024c0-0.23974,0.22851-0.23974,0.39648-0.23974
			H22.624c0.168,0,0.39551,0,0.39551,0.23974C23.01953,84.916,22.792,84.916,22.624,84.916z"/>
		<path class="st1" d="M33.11133,82.25342c-0.06055,0-0.17969,0-0.17969-0.15625c0.00338-0.06039,0.01122-0.12045,0.02344-0.17969
			c0.07357-0.35534,0.11379-0.71677,0.12012-1.07959c0-0.74316-0.2754-0.91113-1.52344-0.91113
			c-0.20797-0.00627-0.41612,0.00172-0.623,0.02392c-0.09668,0.01172-0.19238,0.03565-0.27637,0.39551l-1.60644,6.45264
			c-0.02847,0.07287-0.04495,0.14986-0.04883,0.228c0,0.16748,0.06055,0.21582,0.39648,0.25146
			c0.03614,0,0.40723,0.02441,0.59961,0.02441h0.17969c0.17969,0,0.29981,0,0.29981,0.13184
			c0,0.23975-0.14356,0.23975-0.252,0.23975c-0.61132,0-1.25879-0.03614-1.88281-0.03614
			c-0.61133,0-1.24707,0.03614-1.85937,0.03614c-0.05957,0-0.20313,0-0.20313-0.144c0-0.22754,0.13184-0.22754,0.335-0.22754
			h0.19238c1.05567,0,1.16309-0.12011,1.27149-0.54l1.60644-6.44043c0.02909-0.08503,0.04554-0.17387,0.04883-0.26368
			c0-0.084,0-0.13183-0.27636-0.13183H29.0459c-1.54785,0-1.88379,0.25146-2.44727,1.94287
			c-0.12011,0.31152-0.13183,0.32373-0.15527,0.34766c-0.03733,0.02995-0.08544,0.04305-0.13281,0.03613
			c-0.03516,0-0.17969,0-0.17969-0.13184c0.01004-0.07064,0.03045-0.13941,0.06055-0.2041l0.707-2.147
			c0.07226-0.21582,0.1084-0.21582,0.34765-0.21582h6.15332c0.19141,0,0.29981,0,0.29981,0.144
			c0.00209,0.05225-0.00217,0.10455-0.0127,0.15576l-0.35937,2.147C33.291,82.21729,33.26758,82.25342,33.11133,82.25342z"/>
	</g>
	<g>
		<path class="st1" d="M89.85547,159.58594c1.18929-0.00606,2.32549,0.49196,3.127,1.37061
			c0.88319,0.91614,1.36016,2.14938,1.32324,3.42139c0.04148,1.3-0.43847,2.56264-1.333,3.50684
			c-1.69106,1.7883-4.51163,1.86714-6.29994,0.17609c-0.04887-0.04622-0.09669-0.09352-0.14342-0.14191
			c-0.88588-0.95305-1.3545-2.2204-1.30176-3.52051c-0.04625-1.36238,0.50273-2.67741,1.50391-3.60254
			C87.57458,159.99965,88.696,159.56531,89.85547,159.58594z M89.72559,160.08493c-0.77399-0.02592-1.51447,0.31642-1.9961,0.92285
			c-0.68941,0.98015-1.02013,2.16788-0.93652,3.36328c-0.08025,1.2406,0.26189,2.47183,0.9707,3.49316
			c0.46957,0.60721,1.20151,0.95285,1.96875,0.92969c0.83823,0.01515,1.63557-0.36148,2.15625-1.01855
			c0.64438-0.94141,0.94508-2.07591,0.85156-3.21289c0.09408-1.25414-0.23573-2.50354-0.93652-3.54785
			c-0.50604-0.62195-1.27717-0.9669-2.07811-0.92961L89.72559,160.08493z"/>
		<path class="st1" d="M100.168,169.22168v-0.9248c-0.44786,0.5833-1.14156,0.92509-1.87695,0.9248
			c-1.69143-0.06061-3.01735-1.47415-2.96973-3.166c-0.00735-1.73746,1.38668-3.15634,3.124-3.17969
			c0.69087,0.00121,1.34234,0.32188,1.76465,0.86865v-3.02588c0-0.686-0.11133-0.78418-1.0918-0.78418V159.5l2.01661-0.15381
			v8.50244c0,0.68652,0.1123,0.78467,1.09277,0.78467v0.43408L100.168,169.22168z M100.168,164.54297
			c0.02361-0.18668-0.03198-0.37473-0.15332-0.51855c-0.33018-0.51785-0.89955-0.83394-1.51367-0.84033
			c-0.64416,0.01514-1.238,0.35165-1.582,0.89648c-0.5694,1.24812-0.5797,2.67981-0.02832,3.936
			c0.29767,0.53745,0.85661,0.87814,1.4707,0.89648c0.68494-0.01421,1.31234-0.38628,1.65332-0.98047
			c0.12138-0.1436,0.177-0.33153,0.15332-0.51807L100.168,164.54297z"/>
		<path class="st1" d="M107.95215,169.22168v-0.9248c-0.44786,0.5833-1.14156,0.92509-1.87695,0.9248
			c-1.69144-0.06061-3.01735-1.47415-2.96973-3.166c-0.00734-1.73746,1.38667-3.15633,3.12399-3.17969
			c0.69087,0.00121,1.34233,0.32188,1.76465,0.86865v-3.02588c0-0.686-0.11133-0.78418-1.0918-0.78418V159.5l2.01662-0.15381
			v8.50244c0,0.68652,0.1123,0.78467,1.09277,0.78467v0.43408L107.95215,169.22168z M107.95215,164.54297
			c0.02362-0.18668-0.03198-0.37473-0.15332-0.51855c-0.33018-0.51785-0.89955-0.83394-1.51367-0.84033
			c-0.64417,0.01514-1.23801,0.35165-1.582,0.89648c-0.56941,1.24812-0.57971,2.67981-0.02834,3.936
			c0.29767,0.53743,0.85661,0.87814,1.4707,0.89648c0.68494-0.01421,1.31235-0.38628,1.65332-0.98047
			c0.12138-0.1436,0.177-0.33153,0.15332-0.51807L107.95215,164.54297z"/>
		<path class="st1" d="M119.46001,160.78906c-0.32082,0.01196-0.59058-0.2384-0.60254-0.55922
			c-0.00053-0.01443-0.00053-0.02888,0-0.04332c-0.00247-0.26645,0.16713-0.5041,0.41992-0.58838
			c-0.14529-0.065-0.30273-0.09846-0.46191-0.09814c-0.61621,0-1.28906,0.67236-1.28906,1.90527v1.625h1.63959v0.4341h-1.59766
			v4.51025c0,0.50439,0.02832,0.65869,1.06543,0.65869h0.29395v0.43408c-0.56055-0.04201-1.21875-0.04201-1.7793-0.04201
			l-1.59668,0.04201v-0.43408c0.93848,0,1.09277,0,1.09277-0.63037v-4.53857h-1.10645v-0.4341h1.10645v-1.61084
			c-0.03171-1.1981,0.91383-2.19507,2.11194-2.22678c0.01965-0.00052,0.03931-0.00078,0.05896-0.00076
			c0.61809-0.07448,1.18071,0.36308,1.26074,0.98047c0.02075,0.31982-0.22168,0.5959-0.5415,0.61667
			C119.5098,160.79065,119.48486,160.79065,119.46001,160.78906z"/>
		<path class="st1" d="M124.83594,169.22168v-1.26074c-0.27505,0.75998-0.99843,1.26479-1.80664,1.26074
			c-2.12891,0-2.12891-1.2749-2.12891-2.36768v-2.10107c0-1.24658,0-1.28857-1.09277-1.28857v-0.4341l2.05859-0.1543v4.65039
			c0,0.72852,0.05664,1.38672,1.2334,1.38672c1.02246,0,1.69434-0.95215,1.69434-2.1709v-2.49318
			c0-0.68652-0.1123-0.78465-1.09277-0.78465v-0.4341l2.05957-0.1543v4.97266c0,0.68652,0.1123,0.78467,1.09277,0.78467v0.43408
			L124.83594,169.22168z"/>
		<path class="st1" d="M133.06836,169.02539l-1.58299,0.04201v-0.43408c0.93848,0,1.09277,0,1.09277-0.63037v-3.26367
			c0-0.79883-0.1543-1.55518-1.03613-1.55518c-1.1273,0.08002-1.97629,1.05875-1.89627,2.18604
			c0.00131,0.01842,0.00287,0.0368,0.00467,0.05518v2.57764c0,0.63037,0.1543,0.63037,1.09277,0.63037v0.43408l-1.56836-0.04201
			l-1.58299,0.04201v-0.43408c0.93848,0,1.09277,0,1.09277-0.63037v-3.75395c0-0.68652-0.1123-0.78465-1.09277-0.78465v-0.4341
			l1.97461-0.1543v1.4707c0.31158-0.87854,1.1411-1.46696,2.07324-1.4707c0.5424-0.04997,1.07959,0.13943,1.4707,0.51855
			c0.43457,0.50391,0.43457,0.93848,0.43457,2.14307v2.67529c0.01367,0.42041,0.36426,0.42041,1.09277,0.42041v0.43408
			L133.06836,169.02539z"/>
		<path class="st1" d="M138.41499,169.22168c-1.70883-0.04836-3.05609-1.47075-3.01172-3.17969
			c-0.06187-1.73279,1.29268-3.18765,3.02547-3.24951c0.00484-0.00018,0.00969-0.00034,0.01453-0.00049
			c1.0791,0,2.14355,0.54639,2.14355,1.49899c0.00735,0.35593-0.27522,0.65042-0.63115,0.65778
			c-0.35593,0.00734-0.65042-0.27524-0.65778-0.63116c-0.00009-0.00432-0.00014-0.00862-0.00014-0.01294
			c-0.00696-0.34894,0.27026-0.63747,0.6192-0.64442c0.013-0.00026,0.02602-0.00012,0.039,0.00043
			c-0.42169-0.34634-0.95343-0.53029-1.49899-0.51855c-0.74219,0-1.89063,0.58838-1.89063,2.87158
			c0,2.25537,1.23242,2.85742,1.97461,2.85742c0.8876,0.02026,1.6615-0.59999,1.83501-1.4707
			c0.02832-0.084,0.05664-0.14014,0.18262-0.14014c0.04201,0,0.18164,0,0.18164,0.14014
			C140.507,168.48956,139.52831,169.25615,138.41499,169.22168z"/>
		<path class="st1" d="M144.40723,169.22168c-0.93336,0.06851-1.74556-0.63258-1.81407-1.56596
			c-0.00795-0.10837-0.00546-0.21725,0.00743-0.32515v-3.86621h-1.19141v-0.30811c1.37305-0.05615,1.793-1.55469,1.80762-2.70361
			h0.34961v2.57764h2.00293v0.4341h-2.00293v3.894c0,0.23828,0,1.5127,0.93848,1.5127c0.51855,0,0.93848-0.53223,0.93848-1.56885
			v-0.77h0.35059v0.79834C145.79401,168.22705,145.40137,169.22168,144.40723,169.22168z"/>
		<path class="st1" d="M148.5918,169.02539l-1.53999,0.04201v-0.43408c0.93848,0,1.0918,0,1.0918-0.63037v-3.76807
			c0-0.68652-0.12601-0.77049-1.03613-0.77049v-0.4341l1.96094-0.1543v5.14063c0,0.54639,0.05566,0.6167,0.98047,0.6167v0.43408
			C149.57227,169.05322,149.082,169.02539,148.5918,169.02539z M148.52246,161.34912c-0.41-0.00739-0.73639-0.34573-0.729-0.75574
			s0.34575-0.73639,0.75574-0.729c0.40486,0.00729,0.72923,0.33763,0.72913,0.74255
			c-0.00368,0.41359-0.34195,0.74588-0.75552,0.74219C148.52267,161.34912,148.52257,161.34912,148.52246,161.34912z"/>
		<path class="st1" d="M153.96875,169.22168c-1.7245-0.01717-3.10953-1.42732-3.0957-3.15186
			c-0.09398-1.71376,1.2191-3.17921,2.93286-3.27319c1.71375-0.09399,3.17921,1.21909,3.27319,2.93285
			c0.00621,0.11336,0.00621,0.22699,0,0.34035c0.01683,1.72382-1.36694,3.13489-3.09076,3.15172
			C153.98181,169.22162,153.97528,169.22166,153.96875,169.22168z M155.55174,164.01074
			c-0.32852-0.56311-0.93106-0.90974-1.58299-0.91064c-0.66005,0.01089-1.26607,0.36708-1.59668,0.93848
			c-0.26765,0.60242-0.38303,1.26143-0.33594,1.91895c-0.04585,0.67709,0.07449,1.35515,0.35059,1.9751
			c0.32281,0.57907,0.9337,0.93813,1.59668,0.93848c0.69591-0.00394,1.32782-0.40686,1.625-1.03613
			c0.24261-0.59467,0.34778-1.23645,0.30762-1.87744c0.05077-0.6696-0.07483-1.34082-0.36426-1.94678H155.55174z"/>
		<path class="st1" d="M163.40625,169.02539l-1.58299,0.04201v-0.43408c0.93848,0,1.09277,0,1.09277-0.63037v-3.26367
			c0-0.79883-0.1543-1.55518-1.03613-1.55518c-1.1273,0.08002-1.97629,1.05875-1.89627,2.18604
			c0.00131,0.01842,0.00287,0.0368,0.00467,0.05518v2.57764c0,0.63037,0.1543,0.63037,1.09277,0.63037v0.43408l-1.56834-0.04201
			l-1.58299,0.04201v-0.43408c0.93848,0,1.09277,0,1.09277-0.63037v-3.75395c0-0.68652-0.1123-0.78465-1.09277-0.78465v-0.4341
			l1.97461-0.1543v1.4707c0.3116-0.87854,1.1411-1.46696,2.07324-1.4707c0.5424-0.04997,1.07959,0.13943,1.4707,0.51855
			c0.43457,0.50391,0.43457,0.93848,0.43457,2.14307v2.67529c0.01367,0.42041,0.36426,0.42041,1.09277,0.42041v0.43408
			L163.40625,169.02539z"/>
	</g>
</g>
<g>
	<path class="st1" d="M104.44922,5.62207c-0.2041,0-0.37158-0.12012-0.37158-0.34814c0-0.13184,0.07178-0.45557,0.47949-0.53955
		c-0.17969-0.22803-0.47949-0.22803-0.51563-0.22803c-0.44385,0-0.57568,0.59961-0.68359,1.12744l-0.38379,1.90723h0.91162
		c0.20361,0,0.2876,0,0.2876,0.13184c0,0.21582-0.12012,0.21582-0.32373,0.21582h-0.93555l-0.74365,3.82568
		c-0.37158,1.93115-0.93555,3.44238-1.90674,3.44238c-0.4917,0-0.93555-0.27588-0.93555-0.74365
		c0-0.396,0.27588-0.61182,0.55176-0.61182c0.20361,0,0.37158,0.12012,0.37158,0.34814c0,0.0957-0.04785,0.45557-0.4917,0.53955
		c0.15576,0.21582,0.45557,0.22803,0.50391,0.22803c0.43164,0,0.57568-0.56396,0.70752-1.06787
		c0.19189-0.73145,0.21582-0.83936,0.35986-1.55908l0.85156-4.40137h-0.70801c-0.19141,0-0.2876,0-0.2876-0.12012
		c0-0.22754,0.10791-0.22754,0.31201-0.22754h0.75537l0.25195-1.30762c0.08398-0.40771,0.38379-1.9668,1.53516-1.9668
		c0.4917,0,0.95947,0.27588,0.95947,0.74365C105.00098,5.40576,104.7251,5.62207,104.44922,5.62207z"/>
	<path class="st1" d="M108.2417,15.72021c-0.13184,0-1.11572-0.7793-1.82324-2.21875c-0.62354-1.2832-0.7915-2.71045-0.7915-3.77783
		c0-1.4751,0.27588-2.7583,0.8877-3.96973c0.5874-1.17529,1.5708-2.03906,1.72705-2.03906
		c0.04785,0,0.10791,0.02393,0.10791,0.09619c0,0.03564,0,0.05957-0.12012,0.16748
		c-1.39111,1.41553-1.95508,3.41846-1.95508,5.74512c0,2.44678,0.67188,4.42578,1.87109,5.63672
		c0.2041,0.2041,0.2041,0.22803,0.2041,0.26416C108.34961,15.69629,108.28955,15.72021,108.2417,15.72021z"/>
	<path class="st1" d="M111.42188,12.83008c-0.65918,0-0.9834-0.50391-0.9834-1.05566c0-0.04785,0-0.19189,0.06006-0.43164
		l0.86377-3.4541h-0.97168c-0.19189,0-0.2876,0-0.2876-0.12012c0-0.22754,0.10791-0.22754,0.32373-0.22754h1.01953l0.46777-1.8833
		c0.04785-0.17969,0.15576-0.44385,0.45557-0.44385c0.22803,0,0.31201,0.18018,0.31201,0.28809c0,0-0.01221,0.13184-0.02441,0.15576
		l-0.47949,1.8833h0.94727c0.2041,0,0.28809,0,0.28809,0.13184c0,0.21582-0.12012,0.21582-0.32373,0.21582h-0.99561
		l-0.89941,3.58594c-0.04785,0.17969-0.09619,0.45557-0.09619,0.63574c0,0.39551,0.16797,0.47949,0.34814,0.47949
		c0.7793,0,1.24707-1.17529,1.39111-1.54688c0.06006-0.13184,0.07178-0.15625,0.20361-0.15625c0.04834,0,0.15625,0,0.15625,0.1084
		C113.19727,11.05469,112.59766,12.83008,111.42188,12.83008z"/>
	<path class="st1" d="M116.61816,13.68164c-0.58789,1.17529-1.57129,2.03857-1.72705,2.03857
		c-0.04785,0-0.10791-0.02393-0.10791-0.0957c0-0.03613,0-0.06006,0.12012-0.16797c1.39111-1.41553,1.95459-3.41846,1.95459-5.74512
		c0-2.44629-0.67139-4.42529-1.87061-5.63672c-0.2041-0.2041-0.2041-0.22803-0.2041-0.26367
		c0-0.07227,0.06006-0.09619,0.10791-0.09619c0.13184,0,1.11523,0.77979,1.82275,2.21875
		c0.67188,1.39111,0.79199,2.87842,0.79199,3.79004C117.50586,11.1626,117.22998,12.45801,116.61816,13.68164z"/>
</g>
</svg>
