<svg xmlns="http://www.w3.org/2000/svg" viewBox="0 0 250 169.2793">
  <defs>
    <style>
      .cls-1, .cls-2 {
        fill: none;
        stroke-miterlimit: 10;
        stroke-width: 2px;
      }

      .cls-1 {
        stroke: #000;
      }

      .cls-2 {
        stroke: #c1272d;
        stroke-linecap: round;
      }
    </style>
  </defs>
  <title>OddFunction</title>
  <g id="Layer_1" data-name="Layer 1">
    <g>
      <g>
        <line class="cls-1" x1="125" y1="3.95598" x2="125" y2="150"/>
        <polygon points="120.547 12.232 121.864 12.71 125 4.093 128.136 12.71 129.452 12.232 125 0 120.547 12.232"/>
      </g>
      <g>
        <line class="cls-1" y1="75" x2="246.04401" y2="75"/>
        <polygon points="237.768 79.453 237.29 78.136 245.907 75 237.29 71.864 237.768 70.548 250 75 237.768 79.453"/>
      </g>
    </g>
  </g>
  <g id="Layer_2" data-name="Layer 2">
    <g>
      <polyline class="cls-2" points="125 75 150 25 199 124 225 75"/>
      <polyline class="cls-2" points="25 75 50 25 99 124 125 75"/>
    </g>
  </g>
  <g id="Layer_3" data-name="Layer 3">
    <g>
      <path d="M128.86621,28.2207a.383.383,0,0,1-.40771-.38379.6047.6047,0,0,1,.52783-.58789.66524.66524,0,0,0-.50391-.21582c-.43164,0-.56347.63575-.65967,1.0791l-.38379,1.94336h.93555c.2041,0,.29981,0,.29981.15577,0,.21582-.11963.21582-.32373.21582h-.9834l-.83985,4.30566c-.084.43164-.57568,2.9502-1.82275,2.9502a.86879.86879,0,0,1-.95947-.79151.61677.61677,0,0,1,.59961-.65967.383.383,0,0,1,.40771.38379.60506.60506,0,0,1-.52783.58789.6032.6032,0,0,0,.48.21582c.43164,0,.5874-.62353.68359-1.03125.07178-.252.1919-.74365.33594-1.4873l.87549-4.47363H125.856c-.18018,0-.29981,0-.29981-.13184,0-.23975.13184-.23975.32373-.23975h.79151l.25195-1.31933c.084-.40772.38379-1.96729,1.55908-1.96729a.88067.88067,0,0,1,.9834.792A.61706.61706,0,0,1,128.86621,28.2207Z" transform="translate(-25 -25)"/>
      <path d="M130.85938,38.22314c-.168,0-.6836-.6958-.9834-1.49951a6.35737,6.35737,0,0,1-.32422-2.0625,11.73673,11.73673,0,0,1,1.6914-5.75683,7.68739,7.68739,0,0,1,2.55469-2.67481.10756.10756,0,0,1,.11963.12012c0,.03564-.01172.04785-.17969.21582-2.87841,2.44678-3.58593,6.896-3.58593,8.52734a4.95618,4.95618,0,0,0,.74365,2.84229.37422.37422,0,0,1,.08349.168A.1134.1134,0,0,1,130.85938,38.22314Z" transform="translate(-25 -25)"/>
      <path d="M135.0835,35.35645a1.01146,1.01146,0,0,1-1.01954-1.07911,1.84431,1.84431,0,0,1,.06006-.4082l.86328-3.44189h-.95947c-.19189,0-.2998,0-.2998-.144,0-.22754.13183-.22754.33593-.22754h1.01954l.46777-1.90722a.50068.50068,0,0,1,.46777-.43164.30055.30055,0,0,1,.32373.31152.72986.72986,0,0,1-.04785.252l-.44385,1.77539h.95948c.19189,0,.2998,0,.2998.14356,0,.228-.13183.228-.33594.228h-1.01953l-.8872,3.562a2.34758,2.34758,0,0,0-.084.61181c0,.1919,0,.4917.32373.4917.6836,0,1.16309-.89941,1.3794-1.47509.0957-.21631.0957-.228.23974-.228.084,0,.17969,0,.17969.12012C136.90625,33.56934,136.29492,35.35645,135.0835,35.35645Z" transform="translate(-25 -25)"/>
      <path d="M139.51123,35.54834a7.692,7.692,0,0,1-2.55469,2.6748.1077.1077,0,0,1-.12011-.12011c0-.03614.0122-.04785.18017-.21582,2.87842-2.44678,3.58594-6.89649,3.58594-8.52735a4.96,4.96,0,0,0-.74365-2.84228.37313.37313,0,0,1-.084-.168.11328.11328,0,0,1,.12012-.12012c.16748,0,.68359.6958.9834,1.499a6.36239,6.36239,0,0,1,.32373,2.063A11.74306,11.74306,0,0,1,139.51123,35.54834Z" transform="translate(-25 -25)"/>
    </g>
    <path d="M268.49219,116.35645a1.01117,1.01117,0,0,1-1.01953-1.07911,1.82174,1.82174,0,0,1,.05957-.4082l.86328-3.44189h-.96c-.19141,0-.29883,0-.29883-.14405,0-.22754.13086-.22754.33594-.22754h1.01953l.46679-1.90722a.50175.50175,0,0,1,.46875-.43164.30042.30042,0,0,1,.32325.31152.72986.72986,0,0,1-.04785.252l-.44336,1.77539h.959c.19141,0,.2998,0,.2998.14356,0,.228-.13183.228-.33593.228h-1.01953l-.8877,3.562a2.34784,2.34784,0,0,0-.084.61181c0,.1919,0,.4917.32422.4917.68359,0,1.16308-.89941,1.3789-1.47509.0957-.21631.0957-.228.24024-.228.084,0,.17968,0,.17968.12012C270.31445,114.56934,269.70313,116.35645,268.49219,116.35645Z" transform="translate(-25 -25)"/>
    <path d="M162.78027,53.67432c-.4082,0-.83984-.03614-1.25976-.03614-.45606,0-.93555.03614-1.37891.03614-.03613,0-.18066,0-.18066-.144,0-.22754.14453-.22754.27636-.22754.51563,0,.80372-.144.80372-.38378l-.13184-1.99122H158.1748l-.86425,1.51123a1.13266,1.13266,0,0,0-.168.45557c0,.37207.43164.396.5039.4082.09571.01172.19239.01172.19239.14356,0,.228-.15625.228-.21582.228-.36035,0-.74414-.03614-1.11621-.03614-.31153,0-.65918.03614-.959.03614a.13349.13349,0,0,1-.14355-.144s.01172-.21582.14355-.22754a1.5564,1.5564,0,0,0,1.45117-.98388l3.98145-7.01612c.07226-.13183.12012-.21582.3125-.21582.19141,0,.20312.03614.21582.29981l.51562,7.50781c.02344.312.05957.4082.6836.4082.1914,0,.28808,0,.28808.15577C162.99609,53.67432,162.85156,53.67432,162.78027,53.67432Zm-2.17089-7.04-2.23145,3.92187h2.50684Z" transform="translate(-25 -25)"/>
    <g>
      <path d="M133.624,150.916h-6.53613c-.168,0-.39648,0-.39648-.24024,0-.23974.22851-.23974.39648-.23974H133.624c.168,0,.39551,0,.39551.23974C134.01953,150.916,133.792,150.916,133.624,150.916Z" transform="translate(-25 -25)"/>
      <path d="M143.11621,153.67432c-.4082,0-.83984-.03614-1.25976-.03614-.45606,0-.93555.03614-1.37891.03614-.03613,0-.18066,0-.18066-.144,0-.22754.14453-.22754.27636-.22754.51563,0,.80371-.144.80371-.38378l-.13183-1.99122h-2.73438l-.86426,1.51123a1.13261,1.13261,0,0,0-.168.45557c0,.37207.43164.396.5039.4082.09571.01172.19238.01172.19238.14356,0,.228-.15625.228-.21582.228-.36035,0-.74414-.03614-1.11621-.03614-.31152,0-.65918.03614-.959.03614a.13349.13349,0,0,1-.14356-.144s.01172-.21582.14356-.22754a1.5564,1.5564,0,0,0,1.45117-.98388l3.98145-7.01612c.07226-.13183.12011-.21582.3125-.21582.1914,0,.20312.03614.21582.29981l.51562,7.50781c.02344.312.05957.4082.6836.4082.1914,0,.28808,0,.28808.15577C143.332,153.67432,143.1875,153.67432,143.11621,153.67432Zm-2.1709-7.04-2.23144,3.92187h2.50683Z" transform="translate(-25 -25)"/>
    </g>
    <path d="M253.77539,90.25342c-.06055,0-.17969,0-.17969-.15625a1.22864,1.22864,0,0,1,.02344-.17969,5.82634,5.82634,0,0,0,.12012-1.07959c0-.74316-.27539-.91113-1.52344-.91113a4.554,4.554,0,0,0-.62305.02392c-.09668.01172-.19238.03565-.27636.39551L249.71,94.79883a.72538.72538,0,0,0-.04883.228c0,.16748.06055.21582.39649.25146.03613,0,.40722.02441.59961.02441h.17968c.17969,0,.29981,0,.29981.13184,0,.23975-.14356.23975-.25195.23975-.61133,0-1.25879-.03614-1.88282-.03614-.61132,0-1.24707.03614-1.85937.03614-.05957,0-.20313,0-.20313-.144,0-.22754.13184-.22754.335-.22754h.19239c1.05566,0,1.16308-.12011,1.27148-.54l1.60645-6.44043a.91853.91853,0,0,0,.04882-.26368c0-.084,0-.13183-.27636-.13183H249.71c-1.54785,0-1.88379.25146-2.44726,1.94287-.12012.31152-.13184.32373-.15528.34766a.17245.17245,0,0,1-.13281.03613c-.03516,0-.17969,0-.17969-.13184a.72583.72583,0,0,1,.06055-.2041l.707-2.147c.07227-.21582.1084-.21582.34766-.21582h6.15332c.1914,0,.2998,0,.2998.144a.646.646,0,0,1-.01269.15576l-.35938,2.147C253.95508,90.21729,253.93164,90.25342,253.77539,90.25342Z" transform="translate(-25 -25)"/>
    <g>
      <path d="M47.624,109.916H41.08789c-.168,0-.39648,0-.39648-.24024,0-.23974.22851-.23974.39648-.23974H47.624c.168,0,.39551,0,.39551.23974C48.01953,109.916,47.792,109.916,47.624,109.916Z" transform="translate(-25 -25)"/>
      <path d="M58.11133,107.25342c-.06055,0-.17969,0-.17969-.15625a1.22864,1.22864,0,0,1,.02344-.17969,5.82634,5.82634,0,0,0,.12012-1.07959c0-.74316-.2754-.91113-1.52344-.91113a4.55384,4.55384,0,0,0-.623.02392c-.09668.01172-.19238.03565-.27637.39551l-1.60644,6.45264a.72538.72538,0,0,0-.04883.228c0,.16748.06055.21582.39648.25146.03614,0,.40723.02441.59961.02441h.17969c.17969,0,.29981,0,.29981.13184,0,.23975-.14356.23975-.252.23975-.61132,0-1.25879-.03614-1.88281-.03614-.61133,0-1.24707.03614-1.85937.03614-.05957,0-.20313,0-.20313-.144,0-.22754.13184-.22754.335-.22754h.19238c1.05567,0,1.16309-.12011,1.27149-.54l1.60644-6.44043a.9182.9182,0,0,0,.04883-.26368c0-.084,0-.13183-.27636-.13183H54.0459c-1.54785,0-1.88379.25146-2.44727,1.94287-.12011.31152-.13183.32373-.15527.34766a.17245.17245,0,0,1-.13281.03613c-.03516,0-.17969,0-.17969-.13184a.72583.72583,0,0,1,.06055-.2041l.707-2.147c.07226-.21582.1084-.21582.34765-.21582h6.15332c.19141,0,.29981,0,.29981.144a.64549.64549,0,0,1-.0127.15576l-.35937,2.147C58.291,107.21729,58.26758,107.25342,58.11133,107.25342Z" transform="translate(-25 -25)"/>
    </g>
    <g>
      <path d="M114.85547,184.58594a4.20358,4.20358,0,0,1,3.127,1.3706,4.73184,4.73184,0,0,1,1.32324,3.42139,4.873,4.873,0,0,1-1.333,3.50684,4.45647,4.45647,0,0,1-6.44336.03418,4.8804,4.8804,0,0,1-1.30176-3.52051,4.68849,4.68849,0,0,1,1.50391-3.60254A4.43486,4.43486,0,0,1,114.85547,184.58594Zm-.12988.499a2.44453,2.44453,0,0,0-1.9961.92285,5.21375,5.21375,0,0,0-.93652,3.36328,5.50353,5.50353,0,0,0,.9707,3.49317,2.39732,2.39732,0,0,0,1.96875.92969,2.68915,2.68915,0,0,0,2.15625-1.01856,4.96723,4.96723,0,0,0,.85156-3.21289,5.61345,5.61345,0,0,0-.93652-3.54785A2.52754,2.52754,0,0,0,114.72559,185.085Z" transform="translate(-25 -25)"/>
      <path d="M125.168,194.22168v-.9248a2.36524,2.36524,0,0,1-1.87695.9248,3.08128,3.08128,0,0,1-2.96973-3.166,3.16659,3.16659,0,0,1,3.124-3.17968,2.23463,2.23463,0,0,1,1.76465.86865v-3.02588c0-.686-.11133-.78418-1.0918-.78418V184.5l2.01661-.15381v8.50244c0,.68653.1123.78467,1.09277.78467v.43408Zm0-4.67871a.67317.67317,0,0,0-.15332-.51856,1.81765,1.81765,0,0,0-1.51367-.84033,1.92444,1.92444,0,0,0-1.582.89649,4.81783,4.81783,0,0,0-.02832,3.936,1.74059,1.74059,0,0,0,1.4707.89649,1.95288,1.95288,0,0,0,1.65332-.98047.67154.67154,0,0,0,.15332-.51807Z" transform="translate(-25 -25)"/>
      <path d="M132.95215,194.22168v-.9248a2.36524,2.36524,0,0,1-1.87695.9248,3.08128,3.08128,0,0,1-2.96973-3.166,3.16659,3.16659,0,0,1,3.124-3.17968,2.23463,2.23463,0,0,1,1.76465.86865v-3.02588c0-.686-.11133-.78418-1.0918-.78418V184.5l2.01661-.15381v8.50244c0,.68653.1123.78467,1.09277.78467v.43408Zm0-4.67871a.67317.67317,0,0,0-.15332-.51856,1.81765,1.81765,0,0,0-1.51367-.84033,1.92444,1.92444,0,0,0-1.582.89649,4.81778,4.81778,0,0,0-.02833,3.936,1.74062,1.74062,0,0,0,1.47071.89649,1.95288,1.95288,0,0,0,1.65332-.98047.67154.67154,0,0,0,.15332-.51807Z" transform="translate(-25 -25)"/>
      <path d="M144.46,185.78906a.58128.58128,0,0,1-.60254-.60254.6142.6142,0,0,1,.41992-.58838,1.12565,1.12565,0,0,0-.46191-.09814c-.61621,0-1.28906.67236-1.28906,1.90527v1.625H144.166v.43409h-1.59766v4.51025c0,.50439.02832.65869,1.06543.65869h.29394v.43408c-.56054-.042-1.21875-.042-1.77929-.042l-1.59668.042v-.43408c.93847,0,1.09277,0,1.09277-.63037v-4.53857h-1.10644v-.43409h1.10644v-1.61084a2.17012,2.17012,0,0,1,2.1709-2.22754,1.13445,1.13445,0,0,1,1.26074.98047A.5803.5803,0,0,1,144.46,185.78906Z" transform="translate(-25 -25)"/>
      <path d="M149.83594,194.22168v-1.26074a1.91117,1.91117,0,0,1-1.80664,1.26074c-2.12891,0-2.12891-1.2749-2.12891-2.36768v-2.10107c0-1.24658,0-1.28857-1.09277-1.28857v-.43409l2.05859-.15429v4.65039c0,.72851.05664,1.38672,1.2334,1.38672,1.02246,0,1.69434-.95215,1.69434-2.1709V189.249c0-.68652-.11231-.78466-1.09278-.78466v-.43409l2.05957-.15429v4.97265c0,.68653.11231.78467,1.09278.78467v.43408Z" transform="translate(-25 -25)"/>
      <path d="M158.06836,194.02539l-1.583.042v-.43408c.93848,0,1.09278,0,1.09278-.63037v-3.26367c0-.79883-.1543-1.55518-1.03614-1.55518a2.04629,2.04629,0,0,0-1.8916,2.24121v2.57764c0,.63037.1543.63037,1.09277.63037v.43408l-1.56836-.042-1.583.042v-.43408c.93847,0,1.09277,0,1.09277-.63037V189.249c0-.68652-.1123-.78466-1.09277-.78466v-.43409l1.97461-.15429v1.4707a2.20918,2.20918,0,0,1,2.07324-1.4707,1.86693,1.86693,0,0,1,1.4707.51855c.43457.50391.43457.93848.43457,2.14307v2.67529c.01367.42041.36426.42041,1.09278.42041v.43408Z" transform="translate(-25 -25)"/>
      <path d="M163.415,194.22168a3.10045,3.10045,0,0,1-3.01172-3.17969,3.13949,3.13949,0,0,1,3.04-3.25c1.0791,0,2.14355.54639,2.14355,1.499a.6446.6446,0,1,1-1.28906.01367.63194.63194,0,0,1,.6582-.644,2.28438,2.28438,0,0,0-1.499-.51855c-.74219,0-1.89062.58838-1.89062,2.87158,0,2.25537,1.23242,2.85742,1.97461,2.85742a1.82854,1.82854,0,0,0,1.835-1.4707c.02832-.084.05664-.14014.18261-.14014.042,0,.18164,0,.18164.14014A2.305,2.305,0,0,1,163.415,194.22168Z" transform="translate(-25 -25)"/>
      <path d="M169.40723,194.22168a1.69456,1.69456,0,0,1-1.80664-1.89111v-3.86621h-1.19141v-.30811c1.37305-.05615,1.793-1.55469,1.80762-2.70361h.34961v2.57763h2.00293v.43409h-2.00293v3.894c0,.23828,0,1.51269.93847,1.51269.51856,0,.93848-.53222.93848-1.56884v-.77h.35059v.79834C170.794,193.22705,170.40137,194.22168,169.40723,194.22168Z" transform="translate(-25 -25)"/>
      <path d="M173.5918,194.02539l-1.54.042v-.43408c.93847,0,1.09179,0,1.09179-.63037v-3.76807c0-.68652-.126-.7705-1.03613-.7705v-.43409l1.96094-.15429v5.14062c0,.54639.05566.6167.98047.6167v.43408C174.57227,194.05322,174.082,194.02539,173.5918,194.02539Zm-.06934-7.67627a.74249.74249,0,1,1,.75586-.74219A.74889.74889,0,0,1,173.52246,186.34912Z" transform="translate(-25 -25)"/>
      <path d="M178.96875,194.22168a3.12694,3.12694,0,0,1-3.0957-3.15186,3.10769,3.10769,0,1,1,6.20605,0A3.12139,3.12139,0,0,1,178.96875,194.22168Zm1.583-5.21094a1.83564,1.83564,0,0,0-1.583-.91064,1.88053,1.88053,0,0,0-1.59668.93847,4.019,4.019,0,0,0-.33594,1.91895,4.16351,4.16351,0,0,0,.35059,1.9751,1.82913,1.82913,0,0,0,1.59668.93847,1.80842,1.80842,0,0,0,1.625-1.03613,4.26412,4.26412,0,0,0,.30762-1.87744A3.84281,3.84281,0,0,0,180.55176,189.01074Z" transform="translate(-25 -25)"/>
      <path d="M188.40625,194.02539l-1.583.042v-.43408c.93848,0,1.09278,0,1.09278-.63037v-3.26367c0-.79883-.1543-1.55518-1.03614-1.55518a2.04629,2.04629,0,0,0-1.8916,2.24121v2.57764c0,.63037.1543.63037,1.09277.63037v.43408l-1.56835-.042-1.583.042v-.43408c.93847,0,1.09277,0,1.09277-.63037V189.249c0-.68652-.1123-.78466-1.09277-.78466v-.43409l1.97461-.15429v1.4707a2.20919,2.20919,0,0,1,2.07324-1.4707,1.86693,1.86693,0,0,1,1.4707.51855c.43457.50391.43457.93848.43457,2.14307v2.67529c.01367.42041.36426.42041,1.09278.42041v.43408Z" transform="translate(-25 -25)"/>
    </g>
  </g>
</svg>
