<?xml version="1.0" encoding="utf-8"?>
<!-- Generator: Adobe Illustrator 23.0.3, SVG Export Plug-In . SVG Version: 6.00 Build 0)  -->
<svg version="1.1" id="Layer_1" xmlns="http://www.w3.org/2000/svg" xmlns:xlink="http://www.w3.org/1999/xlink" x="0px" y="0px"
	 viewBox="0 0 50 22.2" style="enable-background:new 0 0 50 22.2;" xml:space="preserve">
<style type="text/css">
	.st0{fill-rule:evenodd;clip-rule:evenodd;fill:#8FF4DD;}
	.st1{fill:none;stroke:#8FF4DD;stroke-width:2;}
</style>
<title>ORGate</title>
<g>
	<path class="st0" d="M10.6,0l1.1,1.4c4.2,5.8,4.2,13.7,0,19.5l-1.1,1.4h9.5c2.6,0.1,5.2-0.4,7.6-1.3c3.3-1.4,7-4.1,9.8-9.4
		l-0.7-0.4l0.7-0.4C31.8,0.1,22.8,0,20.1,0H10.6z M13.9,1.7h6.3c2.6,0,10.2-0.1,15.5,9.4c-2.6,4.7-5.8,7-8.7,8.2
		c-2.2,0.9-4.5,1.3-6.8,1.2h-6.3C17.4,14.8,17.4,7.5,13.9,1.7z"/>
	<line class="st1" x1="50" y1="11.1" x2="36" y2="11.1"/>
	<line class="st1" x1="15" y1="5.1" x2="0" y2="5.1"/>
	<line class="st1" x1="15" y1="17.1" x2="0" y2="17.1"/>
</g>
</svg>
