<svg id="Layer_1" data-name="Layer 1" xmlns="http://www.w3.org/2000/svg" viewBox="0 0 50 22.22223">
  <defs>
    <style>
      .cls-1 {
        fill: #8ff4f1;
        fill-rule: evenodd;
      }

      .cls-2 {
        fill: none;
        stroke: #8ff4f1;
        stroke-width: 2px;
      }
    </style>
  </defs>
  <title>ORGate</title>
  <g>
    <path class="cls-1" d="M43.60764,85.88889l1.11111,1.35416a16.71871,16.71871,0,0,1,0,19.51389l-1.11111,1.35417h9.53125a19.22686,19.22686,0,0,0,7.56944-1.33681c3.29739-1.35042,6.96475-4.07959,9.82639-9.375L69.80556,97l.72916-.39931c-5.72395-10.592-14.75329-10.7118-17.39583-10.7118Zm3.26389,1.66666h6.26736c2.60232,0,10.15936-.07233,15.53819,9.44445-2.64821,4.68282-5.84515,7.04661-8.73264,8.22916a16.95891,16.95891,0,0,1-6.80555,1.21528h-6.25a18.169,18.169,0,0,0-.01736-18.88889Z" transform="translate(-33 -85.88889)"/>
    <line class="cls-2" x1="50" y1="11.11111" x2="36" y2="11.11111"/>
    <line class="cls-2" x1="15" y1="5.11111" y2="5.11111"/>
    <line class="cls-2" x1="15" y1="17.11111" y2="17.11111"/>
  </g>
</svg>
