<?xml version="1.0" encoding="utf-8"?>
<!-- Generator: Adobe Illustrator 23.0.3, SVG Export Plug-In . SVG Version: 6.00 Build 0)  -->
<svg version="1.1" id="Layer_1" xmlns="http://www.w3.org/2000/svg" xmlns:xlink="http://www.w3.org/1999/xlink" x="0px" y="0px"
	 viewBox="0 0 250 150" style="enable-background:new 0 0 250 150;" xml:space="preserve">
<style type="text/css">
	.st0{fill:none;stroke:#8FF4DD;stroke-width:2;stroke-miterlimit:10;}
	.st1{fill:#8FF4DD;}
	.st2{fill:none;stroke:#FD1D53;stroke-width:2;stroke-linecap:round;stroke-miterlimit:10;}
</style>
<title>HalfWaveSymmetricFunction</title>
<g>
	<g>
		<g>
			<line class="st0" x1="125" y1="3.95598" x2="125" y2="150"/>
			<polygon class="st1" points="120.547,12.232 121.864,12.71 125,4.093 128.136,12.71 129.452,12.232 125,0 			"/>
		</g>
		<g>
			<line class="st0" x1="0" y1="75" x2="246.04401" y2="75"/>
			<polygon class="st1" points="237.76801,79.453 237.28999,78.136 245.907,75 237.28999,71.864 237.76801,70.548 250,75 			"/>
		</g>
	</g>
</g>
<g>
	<g>
		<polyline class="st2" points="125,75 175,25 175,75 225,125 225,75 		"/>
		<polyline class="st2" points="25,75 75,25 75,75 125,125 125,75 		"/>
	</g>
</g>
<g id="Layer_3">
	<path class="st1" d="M243.49219,91.35645c-0.55841,0.00588-1.01587-0.44204-1.02176-1.00047
		c-0.00027-0.02623,0.00046-0.05247,0.00223-0.07864c0.00433-0.13789,0.02432-0.27483,0.05957-0.4082l0.86328-3.44189h-0.95999
		c-0.19141,0-0.29883,0-0.29883-0.14405c0-0.22754,0.13086-0.22754,0.33594-0.22754h1.01953l0.4668-1.90722
		c0.03311-0.23737,0.22946-0.41817,0.46875-0.43164c0.16544-0.01273,0.30984,0.11105,0.3226,0.27647
		c0.00089,0.01166,0.0011,0.02336,0.00064,0.03505c-0.00095,0.08617-0.01715,0.17149-0.04785,0.252l-0.44336,1.77539h0.95901
		c0.19141,0,0.2998,0,0.2998,0.14356c0,0.228-0.13184,0.228-0.33594,0.228h-1.01953l-0.8877,3.562
		c-0.05481,0.19935-0.08307,0.40506-0.08401,0.61181c0,0.1919,0,0.4917,0.32422,0.4917c0.68359,0,1.16309-0.89941,1.37891-1.47509
		c0.0957-0.21631,0.0957-0.228,0.24023-0.228c0.08401,0,0.17969,0,0.17969,0.12012
		C245.31445,89.56934,244.70313,91.35645,243.49219,91.35645z"/>
	<path class="st1" d="M137.78027,28.67432c-0.4082,0-0.83984-0.03614-1.25977-0.03614c-0.45605,0-0.93555,0.03614-1.37891,0.03614
		c-0.03613,0-0.18066,0-0.18066-0.144c0-0.22754,0.14453-0.22754,0.27637-0.22754c0.51563,0,0.80373-0.144,0.80373-0.38378
		l-0.13184-1.99122h-2.73439l-0.86424,1.51123c-0.08827,0.13793-0.14558,0.29335-0.168,0.45557
		c0,0.37207,0.43164,0.396,0.50391,0.4082c0.0957,0.01172,0.19238,0.01172,0.19238,0.14356c0,0.228-0.15625,0.228-0.21582,0.228
		c-0.36035,0-0.74414-0.03614-1.11621-0.03614c-0.31152,0-0.65918,0.03614-0.959,0.03614
		c-0.0735,0.00581-0.13779-0.04907-0.14359-0.12256c-0.00056-0.00714-0.00055-0.01431,0.00003-0.02144
		c0,0,0.01172-0.21582,0.14355-0.22754c0.64,0.0016,1.21574-0.38874,1.45117-0.98388l3.98145-7.01612
		c0.07227-0.13183,0.12012-0.21582,0.3125-0.21582c0.19141,0,0.20313,0.03614,0.21582,0.29981l0.51563,7.50781
		c0.02344,0.312,0.05957,0.4082,0.68359,0.4082c0.19141,0,0.28809,0,0.28809,0.15577
		C137.99609,28.67432,137.85156,28.67432,137.78027,28.67432z M135.60939,21.63432l-2.23145,3.92187h2.50684L135.60939,21.63432z"/>
	<g>
		<path class="st1" d="M108.62399,125.916h-6.53613c-0.168,0-0.39648,0-0.39648-0.24023c0-0.23975,0.22851-0.23975,0.39648-0.23975
			h6.53613c0.168,0,0.39551,0,0.39551,0.23975C109.01953,125.916,108.79201,125.916,108.62399,125.916z"/>
		<path class="st1" d="M118.11621,128.67432c-0.4082,0-0.83984-0.03613-1.25977-0.03613c-0.45605,0-0.93555,0.03613-1.37891,0.03613
			c-0.03613,0-0.18066,0-0.18066-0.144c0-0.22754,0.14453-0.22754,0.27637-0.22754c0.51563,0,0.80371-0.144,0.80371-0.38377
			l-0.13184-1.99123h-2.73438l-0.86426,1.51123c-0.08827,0.13792-0.14558,0.29335-0.168,0.45557
			c0,0.37207,0.43164,0.396,0.50391,0.4082c0.0957,0.01172,0.19238,0.01172,0.19238,0.14355c0,0.228-0.15625,0.228-0.21582,0.228
			c-0.36035,0-0.74414-0.03613-1.11621-0.03613c-0.31152,0-0.65918,0.03613-0.959,0.03613
			c-0.0735,0.0058-0.13779-0.04907-0.14359-0.12256c-0.00056-0.00714-0.00055-0.01431,0.00003-0.02144
			c0,0,0.01172-0.21582,0.14355-0.22754c0.64,0.0016,1.21574-0.38875,1.45117-0.98389l3.98145-7.01611
			c0.07227-0.13184,0.12012-0.21582,0.3125-0.21582c0.19141,0,0.20313,0.03613,0.21582,0.2998l0.51563,7.50781
			c0.02344,0.312,0.05957,0.4082,0.68359,0.4082c0.19141,0,0.28809,0,0.28809,0.15578
			C118.332,128.67432,118.1875,128.67432,118.11621,128.67432z M115.94531,121.63432l-2.23145,3.92188h2.50684L115.94531,121.63432z
			"/>
	</g>
	<path class="st1" d="M228.77539,65.25342c-0.06055,0-0.17969,0-0.17969-0.15625c0.00337-0.06039,0.01122-0.12045,0.02344-0.17969
		c0.07358-0.35534,0.11378-0.71677,0.12012-1.07959c0-0.74316-0.27539-0.91113-1.52344-0.91113
		c-0.20798-0.00627-0.41615,0.00172-0.62305,0.02392c-0.09668,0.01172-0.19238,0.03565-0.27637,0.39551l-1.6064,6.45264
		c-0.02846,0.07287-0.04495,0.14986-0.04883,0.228c0,0.16748,0.06055,0.21582,0.39648,0.25146
		c0.03613,0,0.40723,0.02441,0.59961,0.02441h0.17969c0.17969,0,0.2998,0,0.2998,0.13184c0,0.23975-0.14355,0.23975-0.25195,0.23975
		c-0.61133,0-1.25879-0.03614-1.88281-0.03614c-0.61131,0-1.24707,0.03614-1.85938,0.03614c-0.05957,0-0.20313,0-0.20313-0.144
		c0-0.22754,0.13184-0.22754,0.33501-0.22754h0.19238c1.05566,0,1.16309-0.12011,1.27148-0.54l1.60645-6.44043
		c0.02908-0.08503,0.04553-0.17387,0.04881-0.26368c0-0.084,0-0.13183-0.27637-0.13183h-0.40726
		c-1.54785,0-1.88379,0.25146-2.44727,1.94287c-0.12012,0.31152-0.13184,0.32373-0.15527,0.34766
		c-0.03734,0.02995-0.08545,0.04305-0.13281,0.03613c-0.03516,0-0.17969,0-0.17969-0.13184
		c0.01004-0.07064,0.03044-0.13941,0.06055-0.2041l0.707-2.147c0.07227-0.21582,0.1084-0.21582,0.34766-0.21582h6.15332
		c0.19141,0,0.2998,0,0.2998,0.144c0.00209,0.05225-0.00218,0.10455-0.0127,0.15576l-0.35938,2.147
		C228.95508,65.21729,228.93164,65.25342,228.77539,65.25342z"/>
	<g>
		<path class="st1" d="M22.624,84.916h-6.53611c-0.168,0-0.39648,0-0.39648-0.24024c0-0.23974,0.22851-0.23974,0.39648-0.23974
			H22.624c0.168,0,0.39551,0,0.39551,0.23974C23.01953,84.916,22.792,84.916,22.624,84.916z"/>
		<path class="st1" d="M33.11133,82.25342c-0.06055,0-0.17969,0-0.17969-0.15625c0.00338-0.06039,0.01122-0.12045,0.02344-0.17969
			c0.07357-0.35534,0.11379-0.71677,0.12012-1.07959c0-0.74316-0.2754-0.91113-1.52344-0.91113
			c-0.20797-0.00627-0.41612,0.00172-0.623,0.02392c-0.09668,0.01172-0.19238,0.03565-0.27637,0.39551l-1.60644,6.45264
			c-0.02847,0.07287-0.04495,0.14986-0.04883,0.228c0,0.16748,0.06055,0.21582,0.39648,0.25146
			c0.03614,0,0.40723,0.02441,0.59961,0.02441h0.17969c0.17969,0,0.29981,0,0.29981,0.13184
			c0,0.23975-0.14356,0.23975-0.252,0.23975c-0.61132,0-1.25879-0.03614-1.88281-0.03614
			c-0.61133,0-1.24707,0.03614-1.85937,0.03614c-0.05957,0-0.20313,0-0.20313-0.144c0-0.22754,0.13184-0.22754,0.335-0.22754
			h0.19238c1.05567,0,1.16309-0.12011,1.27149-0.54l1.60644-6.44043c0.02909-0.08503,0.04554-0.17387,0.04883-0.26368
			c0-0.084,0-0.13183-0.27636-0.13183H29.0459c-1.54785,0-1.88379,0.25146-2.44727,1.94287
			c-0.12011,0.31152-0.13183,0.32373-0.15527,0.34766c-0.03733,0.02995-0.08544,0.04305-0.13281,0.03613
			c-0.03516,0-0.17969,0-0.17969-0.13184c0.01004-0.07064,0.03045-0.13941,0.06055-0.2041l0.707-2.147
			c0.07226-0.21582,0.1084-0.21582,0.34765-0.21582h6.15332c0.19141,0,0.29981,0,0.29981,0.144
			c0.00209,0.05225-0.00217,0.10455-0.0127,0.15576l-0.35937,2.147C33.291,82.21729,33.26758,82.25342,33.11133,82.25342z"/>
	</g>
</g>
<g>
	<path class="st1" d="M104,4.55273c-0.2041,0-0.37158-0.12012-0.37158-0.34814c0-0.13184,0.07178-0.45557,0.47949-0.53955
		c-0.17969-0.22803-0.47949-0.22803-0.51563-0.22803c-0.44385,0-0.57568,0.59961-0.68359,1.12744l-0.38379,1.90723h0.91162
		c0.20361,0,0.2876,0,0.2876,0.13184c0,0.21582-0.12012,0.21582-0.32373,0.21582h-0.93555l-0.74365,3.82568
		c-0.37158,1.93115-0.93555,3.44238-1.90674,3.44238c-0.4917,0-0.93555-0.27588-0.93555-0.74365
		c0-0.396,0.27588-0.61182,0.55176-0.61182c0.20361,0,0.37158,0.12012,0.37158,0.34814c0,0.0957-0.04785,0.45557-0.4917,0.53955
		c0.15576,0.21582,0.45557,0.22803,0.50391,0.22803c0.43164,0,0.57568-0.56396,0.70752-1.06787
		c0.19189-0.73145,0.21582-0.83936,0.35986-1.55908l0.85156-4.40137h-0.70801c-0.19141,0-0.2876,0-0.2876-0.12012
		c0-0.22754,0.10791-0.22754,0.31201-0.22754h0.75537l0.25195-1.30762c0.08398-0.40771,0.38379-1.9668,1.53516-1.9668
		c0.4917,0,0.95947,0.27588,0.95947,0.74365C104.55176,4.33643,104.27588,4.55273,104,4.55273z"/>
	<path class="st1" d="M107.79248,14.65088c-0.13184,0-1.11572-0.7793-1.82324-2.21875
		c-0.62354-1.2832-0.7915-2.71045-0.7915-3.77783c0-1.4751,0.27588-2.7583,0.8877-3.96973
		c0.5874-1.17529,1.5708-2.03906,1.72705-2.03906c0.04785,0,0.10791,0.02393,0.10791,0.09619c0,0.03564,0,0.05957-0.12012,0.16748
		c-1.39111,1.41553-1.95508,3.41846-1.95508,5.74512c0,2.44678,0.67188,4.42578,1.87109,5.63672
		c0.2041,0.2041,0.2041,0.22803,0.2041,0.26416C107.90039,14.62695,107.84033,14.65088,107.79248,14.65088z"/>
	<path class="st1" d="M110.97266,11.76074c-0.65918,0-0.9834-0.50391-0.9834-1.05566c0-0.04785,0-0.19189,0.06006-0.43164
		l0.86377-3.4541h-0.97168c-0.19189,0-0.2876,0-0.2876-0.12012c0-0.22754,0.10791-0.22754,0.32373-0.22754h1.01953l0.46777-1.8833
		c0.04785-0.17969,0.15576-0.44385,0.45557-0.44385c0.22803,0,0.31201,0.18018,0.31201,0.28809c0,0-0.01221,0.13184-0.02441,0.15576
		l-0.47949,1.8833h0.94727c0.2041,0,0.28809,0,0.28809,0.13184c0,0.21582-0.12012,0.21582-0.32373,0.21582h-0.99561
		l-0.89941,3.58594c-0.04785,0.17969-0.09619,0.45557-0.09619,0.63574c0,0.39551,0.16797,0.47949,0.34814,0.47949
		c0.7793,0,1.24707-1.17529,1.39111-1.54688c0.06006-0.13184,0.07178-0.15625,0.20361-0.15625c0.04834,0,0.15625,0,0.15625,0.1084
		C112.74805,9.98535,112.14844,11.76074,110.97266,11.76074z"/>
	<path class="st1" d="M116.16895,12.6123c-0.58789,1.17529-1.57129,2.03857-1.72705,2.03857
		c-0.04785,0-0.10791-0.02393-0.10791-0.0957c0-0.03613,0-0.06006,0.12012-0.16797c1.39111-1.41553,1.95459-3.41846,1.95459-5.74512
		c0-2.44629-0.67139-4.42529-1.87061-5.63672c-0.2041-0.2041-0.2041-0.22803-0.2041-0.26367
		c0-0.07227,0.06006-0.09619,0.10791-0.09619c0.13184,0,1.11523,0.77979,1.82275,2.21875
		c0.67188,1.39111,0.79199,2.87842,0.79199,3.79004C117.05664,10.09326,116.78076,11.38867,116.16895,12.6123z"/>
</g>
</svg>
