<?xml version="1.0" encoding="utf-8"?>
<!-- Generator: Adobe Illustrator 23.0.3, SVG Export Plug-In . SVG Version: 6.00 Build 0)  -->
<svg version="1.1" id="Layer_1" xmlns="http://www.w3.org/2000/svg" xmlns:xlink="http://www.w3.org/1999/xlink" x="0px" y="0px"
	 viewBox="0 0 250 150" style="enable-background:new 0 0 250 150;" xml:space="preserve">
<style type="text/css">
	.st0{fill:none;stroke:#8FF4DD;stroke-width:2;stroke-miterlimit:10;}
	.st1{fill:#8FF4DD;}
	.st2{fill:none;stroke:#FD1D53;stroke-width:2;stroke-linecap:round;stroke-miterlimit:10;}
</style>
<title>HalfWaveSymmetricFunction</title>
<g>
	<g>
		<g>
			<line class="st0" x1="125" y1="3.95598" x2="125" y2="150"/>
			<polygon class="st1" points="120.547,12.232 121.864,12.71 125,4.093 128.136,12.71 129.452,12.232 125,0 			"/>
		</g>
		<g>
			<line class="st0" x1="0" y1="75" x2="246.04401" y2="75"/>
			<polygon class="st1" points="237.76801,79.453 237.28999,78.136 245.907,75 237.28999,71.864 237.76801,70.548 250,75 			"/>
		</g>
	</g>
</g>
<g>
	<g>
		<polyline class="st2" points="125,75 175,25 175,75 225,125 225,75 		"/>
		<polyline class="st2" points="25,75 75,25 75,75 125,125 125,75 		"/>
	</g>
</g>
<g id="Layer_3">
	<g>
		<path class="st1" d="M103.86621,3.2207c-0.21109,0.01365-0.39326-0.1464-0.40692-0.35748
			c-0.00056-0.00876-0.00082-0.01753-0.00079-0.02631c0.00591-0.29971,0.2305-0.54984,0.52783-0.58789
			c-0.12915-0.14102-0.31273-0.21965-0.50391-0.21582c-0.43164,0-0.56347,0.63575-0.65967,1.0791l-0.38379,1.94336h0.93555
			c0.2041,0,0.2998,0,0.2998,0.15577c0,0.21582-0.11963,0.21582-0.32373,0.21582h-0.9834l-0.83985,4.30566
			c-0.084,0.43164-0.57568,2.9502-1.82275,2.9502c-0.47702,0.05174-0.90567-0.29301-0.95741-0.77003
			c-0.00078-0.00715-0.00146-0.01431-0.00206-0.02148c-0.0238-0.3398,0.23236-0.63456,0.57216-0.65836
			c0.00914-0.00064,0.0183-0.00108,0.02745-0.00131c0.21108-0.01365,0.39326,0.14641,0.40691,0.35749
			c0.00056,0.00875,0.00083,0.01752,0.00079,0.0263c-0.00606,0.29964-0.23057,0.5497-0.52783,0.58789
			c0.11852,0.14163,0.2954,0.22115,0.48,0.21582c0.43164,0,0.5874-0.62353,0.68359-1.03125
			c0.07178-0.252,0.1919-0.74365,0.33594-1.4873l0.87549-4.47363H100.856c-0.18018,0-0.29981,0-0.29981-0.13184
			c0-0.23975,0.13184-0.23975,0.32373-0.23975h0.79151l0.25195-1.31933c0.084-0.40772,0.38379-1.96729,1.55908-1.96729
			c0.4828-0.05886,0.92191,0.28482,0.98077,0.76763c0.00099,0.00811,0.00186,0.01624,0.00262,0.02437
			c0.02365,0.33997-0.23279,0.63474-0.57275,0.65839C103.88416,3.22004,103.87518,3.22047,103.86621,3.2207z"/>
		<path class="st1" d="M105.85938,13.22314c-0.168,0-0.68359-0.6958-0.9834-1.49951
			c-0.22099-0.66494-0.33055-1.36183-0.32422-2.0625c0.05548-2.03308,0.63834-4.01685,1.69141-5.75683
			c0.62117-1.08623,1.49812-2.00441,2.55469-2.67481c0.05898-0.00712,0.11256,0.03491,0.11969,0.09389
			c0.00104,0.00871,0.00102,0.01752-0.00006,0.02623c0,0.03564-0.01172,0.04785-0.17969,0.21582
			c-2.8784,2.44678-3.58594,6.896-3.58594,8.52734c-0.04507,1.00081,0.2142,1.99179,0.74365,2.84229
			c0.04164,0.048,0.07037,0.10582,0.0835,0.168c0.0038,0.06252-0.04381,0.11627-0.10632,0.12006
			C105.86826,13.22338,105.8638,13.22339,105.85938,13.22314z"/>
		<path class="st1" d="M110.0835,10.35645c-0.55858,0.00572-1.01604-0.44247-1.02176-1.00105
			c-0.00027-0.02604,0.00047-0.05207,0.00221-0.07806c0.00468-0.13789,0.02484-0.27481,0.06006-0.4082l0.86328-3.44189h-0.95947
			c-0.19189,0-0.2998,0-0.2998-0.144c0-0.22754,0.13184-0.22754,0.33594-0.22754h1.01955l0.46777-1.90722
			c0.03264-0.23723,0.22868-0.41814,0.46777-0.43164c0.16548-0.01293,0.31012,0.11074,0.32306,0.27622
			c0.00092,0.01174,0.00114,0.02353,0.00067,0.0353c-0.00095,0.08617-0.01715,0.17148-0.04785,0.252l-0.44385,1.77539h0.95947
			c0.19189,0,0.2998,0,0.2998,0.14356c0,0.228-0.13184,0.228-0.33594,0.228h-1.01953l-0.88721,3.562
			c-0.05482,0.19935-0.08307,0.40506-0.084,0.61181c0,0.1919,0,0.4917,0.32373,0.4917c0.68359,0,1.16309-0.89941,1.37939-1.47509
			c0.0957-0.21631,0.0957-0.228,0.23975-0.228c0.084,0,0.17969,0,0.17969,0.12012
			C111.90625,8.56934,111.29492,10.35645,110.0835,10.35645z"/>
		<path class="st1" d="M114.51123,10.54834c-0.62132,1.08612-1.49825,2.00426-2.55469,2.6748
			c-0.05904,0.00731-0.11281-0.03462-0.12012-0.09365c-0.00108-0.00879-0.00108-0.01767,0-0.02646
			c0-0.03614,0.01221-0.04785,0.18018-0.21582c2.87842-2.44678,3.58594-6.89649,3.58594-8.52735
			c0.04483-1.00079-0.21442-1.99169-0.74365-2.84228c-0.04187-0.04792-0.07079-0.10575-0.084-0.168
			c-0.00391-0.06244,0.04356-0.11622,0.106-0.12012c0.0047-0.00029,0.00941-0.00029,0.01411,0
			c0.16748,0,0.68359,0.6958,0.9834,1.499c0.22079,0.66514,0.33018,1.3622,0.32373,2.063
			C116.14651,6.82447,115.56387,8.80818,114.51123,10.54834z"/>
	</g>
	<path class="st1" d="M243.49219,91.35645c-0.55841,0.00588-1.01587-0.44204-1.02176-1.00047
		c-0.00027-0.02623,0.00046-0.05247,0.00223-0.07864c0.00433-0.13789,0.02432-0.27483,0.05957-0.4082l0.86328-3.44189h-0.95999
		c-0.19141,0-0.29883,0-0.29883-0.14405c0-0.22754,0.13086-0.22754,0.33594-0.22754h1.01953l0.4668-1.90722
		c0.03311-0.23737,0.22946-0.41817,0.46875-0.43164c0.16544-0.01273,0.30984,0.11105,0.3226,0.27647
		c0.00089,0.01166,0.0011,0.02336,0.00064,0.03505c-0.00095,0.08617-0.01715,0.17149-0.04785,0.252l-0.44336,1.77539h0.95901
		c0.19141,0,0.2998,0,0.2998,0.14356c0,0.228-0.13184,0.228-0.33594,0.228h-1.01953l-0.8877,3.562
		c-0.05481,0.19935-0.08307,0.40506-0.08401,0.61181c0,0.1919,0,0.4917,0.32422,0.4917c0.68359,0,1.16309-0.89941,1.37891-1.47509
		c0.0957-0.21631,0.0957-0.228,0.24023-0.228c0.08401,0,0.17969,0,0.17969,0.12012
		C245.31445,89.56934,244.70313,91.35645,243.49219,91.35645z"/>
	<path class="st1" d="M137.78027,28.67432c-0.4082,0-0.83984-0.03614-1.25977-0.03614c-0.45605,0-0.93555,0.03614-1.37891,0.03614
		c-0.03613,0-0.18066,0-0.18066-0.144c0-0.22754,0.14453-0.22754,0.27637-0.22754c0.51563,0,0.80373-0.144,0.80373-0.38378
		l-0.13184-1.99122h-2.73439l-0.86424,1.51123c-0.08827,0.13793-0.14558,0.29335-0.168,0.45557
		c0,0.37207,0.43164,0.396,0.50391,0.4082c0.0957,0.01172,0.19238,0.01172,0.19238,0.14356c0,0.228-0.15625,0.228-0.21582,0.228
		c-0.36035,0-0.74414-0.03614-1.11621-0.03614c-0.31152,0-0.65918,0.03614-0.959,0.03614
		c-0.0735,0.00581-0.13779-0.04907-0.14359-0.12256c-0.00056-0.00714-0.00055-0.01431,0.00003-0.02144
		c0,0,0.01172-0.21582,0.14355-0.22754c0.64,0.0016,1.21574-0.38874,1.45117-0.98388l3.98145-7.01612
		c0.07227-0.13183,0.12012-0.21582,0.3125-0.21582c0.19141,0,0.20313,0.03614,0.21582,0.29981l0.51563,7.50781
		c0.02344,0.312,0.05957,0.4082,0.68359,0.4082c0.19141,0,0.28809,0,0.28809,0.15577
		C137.99609,28.67432,137.85156,28.67432,137.78027,28.67432z M135.60939,21.63432l-2.23145,3.92187h2.50684L135.60939,21.63432z"/>
	<g>
		<path class="st1" d="M108.62399,125.916h-6.53613c-0.168,0-0.39648,0-0.39648-0.24023c0-0.23975,0.22851-0.23975,0.39648-0.23975
			h6.53613c0.168,0,0.39551,0,0.39551,0.23975C109.01953,125.916,108.79201,125.916,108.62399,125.916z"/>
		<path class="st1" d="M118.11621,128.67432c-0.4082,0-0.83984-0.03613-1.25977-0.03613c-0.45605,0-0.93555,0.03613-1.37891,0.03613
			c-0.03613,0-0.18066,0-0.18066-0.144c0-0.22754,0.14453-0.22754,0.27637-0.22754c0.51563,0,0.80371-0.144,0.80371-0.38377
			l-0.13184-1.99123h-2.73438l-0.86426,1.51123c-0.08827,0.13792-0.14558,0.29335-0.168,0.45557
			c0,0.37207,0.43164,0.396,0.50391,0.4082c0.0957,0.01172,0.19238,0.01172,0.19238,0.14355c0,0.228-0.15625,0.228-0.21582,0.228
			c-0.36035,0-0.74414-0.03613-1.11621-0.03613c-0.31152,0-0.65918,0.03613-0.959,0.03613
			c-0.0735,0.0058-0.13779-0.04907-0.14359-0.12256c-0.00056-0.00714-0.00055-0.01431,0.00003-0.02144
			c0,0,0.01172-0.21582,0.14355-0.22754c0.64,0.0016,1.21574-0.38875,1.45117-0.98389l3.98145-7.01611
			c0.07227-0.13184,0.12012-0.21582,0.3125-0.21582c0.19141,0,0.20313,0.03613,0.21582,0.2998l0.51563,7.50781
			c0.02344,0.312,0.05957,0.4082,0.68359,0.4082c0.19141,0,0.28809,0,0.28809,0.15578
			C118.332,128.67432,118.1875,128.67432,118.11621,128.67432z M115.94531,121.63432l-2.23145,3.92188h2.50684L115.94531,121.63432z
			"/>
	</g>
	<path class="st1" d="M228.77539,65.25342c-0.06055,0-0.17969,0-0.17969-0.15625c0.00337-0.06039,0.01122-0.12045,0.02344-0.17969
		c0.07358-0.35534,0.11378-0.71677,0.12012-1.07959c0-0.74316-0.27539-0.91113-1.52344-0.91113
		c-0.20798-0.00627-0.41615,0.00172-0.62305,0.02392c-0.09668,0.01172-0.19238,0.03565-0.27637,0.39551l-1.6064,6.45264
		c-0.02846,0.07287-0.04495,0.14986-0.04883,0.228c0,0.16748,0.06055,0.21582,0.39648,0.25146
		c0.03613,0,0.40723,0.02441,0.59961,0.02441h0.17969c0.17969,0,0.2998,0,0.2998,0.13184c0,0.23975-0.14355,0.23975-0.25195,0.23975
		c-0.61133,0-1.25879-0.03614-1.88281-0.03614c-0.61131,0-1.24707,0.03614-1.85938,0.03614c-0.05957,0-0.20313,0-0.20313-0.144
		c0-0.22754,0.13184-0.22754,0.33501-0.22754h0.19238c1.05566,0,1.16309-0.12011,1.27148-0.54l1.60645-6.44043
		c0.02908-0.08503,0.04553-0.17387,0.04881-0.26368c0-0.084,0-0.13183-0.27637-0.13183h-0.40726
		c-1.54785,0-1.88379,0.25146-2.44727,1.94287c-0.12012,0.31152-0.13184,0.32373-0.15527,0.34766
		c-0.03734,0.02995-0.08545,0.04305-0.13281,0.03613c-0.03516,0-0.17969,0-0.17969-0.13184
		c0.01004-0.07064,0.03044-0.13941,0.06055-0.2041l0.707-2.147c0.07227-0.21582,0.1084-0.21582,0.34766-0.21582h6.15332
		c0.19141,0,0.2998,0,0.2998,0.144c0.00209,0.05225-0.00218,0.10455-0.0127,0.15576l-0.35938,2.147
		C228.95508,65.21729,228.93164,65.25342,228.77539,65.25342z"/>
	<g>
		<path class="st1" d="M22.624,84.916h-6.53611c-0.168,0-0.39648,0-0.39648-0.24024c0-0.23974,0.22851-0.23974,0.39648-0.23974
			H22.624c0.168,0,0.39551,0,0.39551,0.23974C23.01953,84.916,22.792,84.916,22.624,84.916z"/>
		<path class="st1" d="M33.11133,82.25342c-0.06055,0-0.17969,0-0.17969-0.15625c0.00338-0.06039,0.01122-0.12045,0.02344-0.17969
			c0.07357-0.35534,0.11379-0.71677,0.12012-1.07959c0-0.74316-0.2754-0.91113-1.52344-0.91113
			c-0.20797-0.00627-0.41612,0.00172-0.623,0.02392c-0.09668,0.01172-0.19238,0.03565-0.27637,0.39551l-1.60644,6.45264
			c-0.02847,0.07287-0.04495,0.14986-0.04883,0.228c0,0.16748,0.06055,0.21582,0.39648,0.25146
			c0.03614,0,0.40723,0.02441,0.59961,0.02441h0.17969c0.17969,0,0.29981,0,0.29981,0.13184
			c0,0.23975-0.14356,0.23975-0.252,0.23975c-0.61132,0-1.25879-0.03614-1.88281-0.03614
			c-0.61133,0-1.24707,0.03614-1.85937,0.03614c-0.05957,0-0.20313,0-0.20313-0.144c0-0.22754,0.13184-0.22754,0.335-0.22754
			h0.19238c1.05567,0,1.16309-0.12011,1.27149-0.54l1.60644-6.44043c0.02909-0.08503,0.04554-0.17387,0.04883-0.26368
			c0-0.084,0-0.13183-0.27636-0.13183H29.0459c-1.54785,0-1.88379,0.25146-2.44727,1.94287
			c-0.12011,0.31152-0.13183,0.32373-0.15527,0.34766c-0.03733,0.02995-0.08544,0.04305-0.13281,0.03613
			c-0.03516,0-0.17969,0-0.17969-0.13184c0.01004-0.07064,0.03045-0.13941,0.06055-0.2041l0.707-2.147
			c0.07226-0.21582,0.1084-0.21582,0.34765-0.21582h6.15332c0.19141,0,0.29981,0,0.29981,0.144
			c0.00209,0.05225-0.00217,0.10455-0.0127,0.15576l-0.35937,2.147C33.291,82.21729,33.26758,82.25342,33.11133,82.25342z"/>
	</g>
</g>
</svg>
