<svg id="Layer_1" data-name="Layer 1" xmlns="http://www.w3.org/2000/svg" viewBox="0 0 447.09912 155.50098">
  <defs>
    <style>
      .cls-1, .cls-2, .cls-4, .cls-5, .cls-6 {
        fill: none;
      }

      .cls-1, .cls-4 {
        stroke: #000;
      }

      .cls-1, .cls-2, .cls-4, .cls-6 {
        stroke-miterlimit: 10;
      }

      .cls-2, .cls-5, .cls-6 {
        stroke: #c1272d;
      }

      .cls-2, .cls-4, .cls-5 {
        stroke-width: 2px;
      }

      .cls-3 {
        fill: #c1272d;
      }

      .cls-5 {
        stroke-linecap: round;
        stroke-linejoin: round;
      }

      .cls-6 {
        stroke-dasharray: 5;
      }
    </style>
  </defs>
  <title>Phasor</title>
  <path class="cls-1" d="M148.46707,89.74193A21.904,21.904,0,0,1,151,100" transform="translate(-52.90088 -19.49902)"/>
  <g>
    <line class="cls-2" x1="76.09912" y1="80.50098" x2="52.2151" y2="46.7339"/>
    <polygon class="cls-3" points="55.731 46.674 47.099 39.501 50.987 50.029 55.731 46.674"/>
  </g>
  <g>
    <path d="M265.7793,44.49121c-.44336.03613-.86328.168-1.34375.97168l-4.11328,6.88428c-.13282.21582-.19141.22754-.33594.22754-.19141,0-.2041-.05957-.22852-.2876l-.71875-7.38818c-.02441-.29981-.04883-.40772-.64843-.40772-.168,0-.28711,0-.28711-.14355,0-.228.15625-.228.21582-.228.3955,0,.81543.03564,1.22363.03564.45508,0,.93555-.03564,1.37891-.03564a.144.144,0,0,1,.168.144c0,.22754-.13281.22754-.2998.22754-.12012,0-.75586.01221-.75586.37207l.6123,6.28418,3.46485-5.79248a1.23887,1.23887,0,0,0,.18066-.48c0-.2876-.28808-.37158-.47949-.38379-.0957-.01172-.19238-.01172-.19238-.14355,0-.228.14355-.228.21582-.228.34765,0,.74414.03564,1.10351.03564.29981,0,.623-.03564.91211-.03564a.16154.16154,0,0,1,.15528.13183C266.00684,44.47949,265.875,44.47949,265.7793,44.49121Z" transform="translate(-52.90088 -19.49902)"/>
    <path d="M269.50977,56.38379a.52072.52072,0,0,1-.53125-.55908,1.06527,1.06527,0,0,1,.11132-.44727,6.362,6.362,0,0,0,.40625-1.54443c0-.10449,0-.46094-.32226-.46094a1.23042,1.23042,0,0,0-.98535.75488,1.582,1.582,0,0,0-.17481.50293c-.03515.15381-.07617.3003-.11133.4541l-.27929,1.11817a.27182.27182,0,0,1-.252.18164.18275.18275,0,0,1-.19531-.18164.32279.32279,0,0,1,.02051-.09766l.4541-1.81689a2.2001,2.2001,0,0,0,.0625-.45459c0-.10449,0-.46094-.32031-.46094a1.23329,1.23329,0,0,0-.98633.75488,1.51624,1.51624,0,0,0-.17383.50293c-.03515.15381-.07812.3003-.1123.4541l-.28028,1.11817a.27066.27066,0,0,1-.251.18164.18365.18365,0,0,1-.19629-.18164.36706.36706,0,0,1,.02148-.09766l.52442-2.09668a1.54284,1.54284,0,0,0,.04882-.35644c0-.07666,0-.2793-.18164-.2793-.21679,0-.34961.34229-.47558.83154-.03516.15381-.041.16065-.13281.16065-.03516,0-.1045,0-.1045-.06983a3.92987,3.92987,0,0,1,.22364-.706.5639.5639,0,0,1,.50293-.37012.591.591,0,0,1,.58691.55225,1.24655,1.24655,0,0,1,1-.55225.66736.66736,0,0,1,.7334.61475,1.28567,1.28567,0,0,1,1.04785-.61475.66417.66417,0,0,1,.73438.72656,6.11011,6.11011,0,0,1-.42579,1.5586,1.72372,1.72372,0,0,0-.12695.52392c0,.09815.00781.20313.1543.20313.40527,0,.59375-.68506.65039-.874.02734-.1045.02734-.11866.11816-.11866.04981,0,.10449,0,.10449.06983C270.39648,55.34277,270.15918,56.38379,269.50977,56.38379Z" transform="translate(-52.90088 -19.49902)"/>
  </g>
  <g>
    <polyline class="cls-4" points="222.099 9.457 222.099 80.501 222.099 155.501"/>
    <polygon points="217.646 17.733 218.963 18.211 222.099 9.594 225.235 18.211 226.551 17.733 222.099 5.501 217.646 17.733"/>
  </g>
  <g>
    <line class="cls-4" x1="172.09912" y1="80.50098" x2="443.14313" y2="80.50098"/>
    <polygon points="434.868 84.954 434.389 83.637 443.006 80.501 434.389 77.365 434.868 76.049 447.099 80.501 434.868 84.954"/>
  </g>
  <path class="cls-5" d="M262.99561,100c12.49951-25,24.999-50,49.998-50,49.99951,0,49.99951,100,99.999,100,25.00092,0,37.50138-25,50.00183-50" transform="translate(-52.90088 -19.49902)"/>
  <g>
    <path d="M252.459,28.626a1.34308,1.34308,0,0,1-1.47558-1.439,7.61836,7.61836,0,0,1,.61133-2.30273,3.53545,3.53545,0,0,0,.28808-1.07959c0-.312-.13183-.34766-.26367-.34766-.6958,0-1.01953,1.13916-1.11572,1.51123-.04785.16748-.06006.1919-.21582.1919-.06006,0-.17969,0-.17969-.12012,0-.07178.41943-1.84717,1.53467-1.84717a.89922.89922,0,0,1,.91211.97168,1.88982,1.88982,0,0,1-.13281.59961,9.05739,9.05739,0,0,0-.707,2.60254c0,.396.13184.9956.7793.9956,1.37891,0,1.94336-3.01025,1.94336-3.34619a1.35315,1.35315,0,0,0-.32422-.94775.46244.46244,0,0,1-.15625-.32373.61738.61738,0,0,1,.57617-.55176c.34766,0,.49219.37207.49219.79151C255.02539,24.29639,254.47266,28.626,252.459,28.626Z" transform="translate(-52.90088 -19.49902)"/>
    <path d="M257.7627,31.49268c-.168,0-.6836-.6958-.9834-1.49952a6.35737,6.35737,0,0,1-.32422-2.0625,11.73673,11.73673,0,0,1,1.6914-5.75683,7.67811,7.67811,0,0,1,2.55469-2.67481.107.107,0,0,1,.11914.12012c0,.03565-.01172.04785-.17968.21582-2.87793,2.44678-3.58594,6.896-3.58594,8.52734a4.95314,4.95314,0,0,0,.74414,2.84229.37315.37315,0,0,1,.084.168A.114.114,0,0,1,257.7627,31.49268Z" transform="translate(-52.90088 -19.49902)"/>
    <path d="M261.98633,28.626a1.01173,1.01173,0,0,1-1.01953-1.0791,1.867,1.867,0,0,1,.06054-.40821l.86329-3.44189h-.959c-.19238,0-.30078,0-.30078-.144,0-.22753.13281-.22753.33594-.22753h1.01953l.46875-1.90723a.49961.49961,0,0,1,.4668-.43164.30069.30069,0,0,1,.32421.31152.72982.72982,0,0,1-.04785.252l-.44433,1.7754h.96c.19238,0,.2998,0,.2998.14355,0,.228-.13183.228-.33594.228H262.6582l-.88672,3.562a2.34785,2.34785,0,0,0-.084.61182c0,.19189,0,.49169.32324.49169.6836,0,1.16309-.89941,1.37989-1.47509.0957-.21631.0957-.228.23925-.228.084,0,.17969,0,.17969.12012C263.80957,26.83887,263.19824,28.626,261.98633,28.626Z" transform="translate(-52.90088 -19.49902)"/>
    <path d="M266.41406,28.81787a7.67813,7.67813,0,0,1-2.55468,2.67481.107.107,0,0,1-.11915-.12012c0-.03613.01172-.04785.17969-.21582,2.87891-2.44678,3.58594-6.89649,3.58594-8.52735a4.95313,4.95313,0,0,0-.74414-2.84228.37313.37313,0,0,1-.084-.168.11406.11406,0,0,1,.1211-.12012c.167,0,.68359.6958.98242,1.499a6.33616,6.33616,0,0,1,.32422,2.063A11.73932,11.73932,0,0,1,266.41406,28.81787Z" transform="translate(-52.90088 -19.49902)"/>
  </g>
  <path d="M493.55859,115.626a1.01174,1.01174,0,0,1-1.01953-1.0791,1.86618,1.86618,0,0,1,.06055-.40821l.86328-3.44189h-.959c-.19239,0-.30078,0-.30078-.14405,0-.22753.13281-.22753.33593-.22753h1.01953l.46875-1.90723a.49962.49962,0,0,1,.4668-.43164.30069.30069,0,0,1,.32422.31152.72982.72982,0,0,1-.04785.252l-.44434,1.7754h.96c.19239,0,.29981,0,.29981.14355,0,.228-.13184.228-.33594.228h-1.01953l-.88672,3.562a2.34785,2.34785,0,0,0-.084.61182c0,.19189,0,.49169.32324.49169.68359,0,1.16308-.89941,1.37988-1.47509.0957-.21631.0957-.228.23926-.228.084,0,.17969,0,.17969.12012C495.38184,113.83887,494.77051,115.626,493.55859,115.626Z" transform="translate(-52.90088 -19.49902)"/>
  <g>
    <path d="M265.7793,44.49121c-.44336.03613-.86328.168-1.34375.97168l-4.11328,6.88428c-.13282.21582-.19141.22754-.33594.22754-.19141,0-.2041-.05957-.22852-.2876l-.71875-7.38818c-.02441-.29981-.04883-.40772-.64843-.40772-.168,0-.28711,0-.28711-.14355,0-.228.15625-.228.21582-.228.3955,0,.81543.03564,1.22363.03564.45508,0,.93555-.03564,1.37891-.03564a.144.144,0,0,1,.168.144c0,.22754-.13281.22754-.2998.22754-.12012,0-.75586.01221-.75586.37207l.6123,6.28418,3.46485-5.79248a1.23887,1.23887,0,0,0,.18066-.48c0-.2876-.28808-.37158-.47949-.38379-.0957-.01172-.19238-.01172-.19238-.14355,0-.228.14355-.228.21582-.228.34765,0,.74414.03564,1.10351.03564.29981,0,.623-.03564.91211-.03564a.16154.16154,0,0,1,.15528.13183C266.00684,44.47949,265.875,44.47949,265.7793,44.49121Z" transform="translate(-52.90088 -19.49902)"/>
    <path d="M269.50977,56.38379a.52072.52072,0,0,1-.53125-.55908,1.06527,1.06527,0,0,1,.11132-.44727,6.362,6.362,0,0,0,.40625-1.54443c0-.10449,0-.46094-.32226-.46094a1.23042,1.23042,0,0,0-.98535.75488,1.582,1.582,0,0,0-.17481.50293c-.03515.15381-.07617.3003-.11133.4541l-.27929,1.11817a.27182.27182,0,0,1-.252.18164.18275.18275,0,0,1-.19531-.18164.32279.32279,0,0,1,.02051-.09766l.4541-1.81689a2.2001,2.2001,0,0,0,.0625-.45459c0-.10449,0-.46094-.32031-.46094a1.23329,1.23329,0,0,0-.98633.75488,1.51624,1.51624,0,0,0-.17383.50293c-.03515.15381-.07812.3003-.1123.4541l-.28028,1.11817a.27066.27066,0,0,1-.251.18164.18365.18365,0,0,1-.19629-.18164.36706.36706,0,0,1,.02148-.09766l.52442-2.09668a1.54284,1.54284,0,0,0,.04882-.35644c0-.07666,0-.2793-.18164-.2793-.21679,0-.34961.34229-.47558.83154-.03516.15381-.041.16065-.13281.16065-.03516,0-.1045,0-.1045-.06983a3.92987,3.92987,0,0,1,.22364-.706.5639.5639,0,0,1,.50293-.37012.591.591,0,0,1,.58691.55225,1.24655,1.24655,0,0,1,1-.55225.66736.66736,0,0,1,.7334.61475,1.28567,1.28567,0,0,1,1.04785-.61475.66417.66417,0,0,1,.73438.72656,6.11011,6.11011,0,0,1-.42579,1.5586,1.72372,1.72372,0,0,0-.12695.52392c0,.09815.00781.20313.1543.20313.40527,0,.59375-.68506.65039-.874.02734-.1045.02734-.11866.11816-.11866.04981,0,.10449,0,.10449.06983C270.39648,55.34277,270.15918,56.38379,269.50977,56.38379Z" transform="translate(-52.90088 -19.49902)"/>
  </g>
  <g>
    <path d="M257.09473,150.06055H254.792c-.21582,0-.31152,0-.31152-.15625a2.16414,2.16414,0,0,1,.084-.35938c.04785-.15625.07227-.15625.31153-.15625h2.33886c.19141,0,.29981,0,.29981.144a2.92289,2.92289,0,0,1-.09668.38379C257.38281,150.06055,257.32227,150.06055,257.09473,150.06055Z" transform="translate(-52.90088 -19.49902)"/>
    <path d="M267.92773,144.4834c-.44433.03613-.86425.168-1.34375.97168l-4.11328,6.88428c-.13281.21582-.19238.22753-.33593.22753-.19239,0-.20508-.05957-.22852-.28759l-.71973-7.38819c-.02441-.2998-.04785-.40771-.64746-.40771-.168,0-.28711,0-.28711-.14356,0-.228.15528-.228.21485-.228.39648,0,.8164.03564,1.22363.03564.45605,0,.93555-.03564,1.37988-.03564a.14405.14405,0,0,1,.168.144c0,.22754-.13281.22754-.30078.22754-.11914,0-.75586.01221-.75586.37207l.61231,6.28418,3.46582-5.79248a1.23894,1.23894,0,0,0,.17968-.48c0-.2876-.28711-.37158-.47949-.38379-.0957-.01172-.19238-.01172-.19238-.14356,0-.228.14453-.228.2168-.228.34765,0,.74316.03564,1.10351.03564.29883,0,.623-.03564.91113-.03564a.16038.16038,0,0,1,.15528.13183C268.1543,144.47168,268.02344,144.47168,267.92773,144.4834Z" transform="translate(-52.90088 -19.49902)"/>
    <path d="M271.65723,156.376a.52051.52051,0,0,1-.53028-.55909,1.05022,1.05022,0,0,1,.11133-.44726,6.36345,6.36345,0,0,0,.40527-1.54443c0-.1045,0-.46094-.32128-.46094a1.23326,1.23326,0,0,0-.98633.75488,1.5638,1.5638,0,0,0-.17383.50293c-.03516.15381-.07715.30029-.11133.4541l-.28027,1.11817a.27067.27067,0,0,1-.251.18164.18305.18305,0,0,1-.19629-.18164.35674.35674,0,0,1,.02051-.09766l.45508-1.81689a2.2001,2.2001,0,0,0,.0625-.45459c0-.1045,0-.46094-.32129-.46094a1.23183,1.23183,0,0,0-.98535.75488,1.533,1.533,0,0,0-.17481.50293c-.03515.15381-.07715.30029-.1123.4541l-.2793,1.11817a.27181.27181,0,0,1-.25195.18164.18336.18336,0,0,1-.19531-.18164.36706.36706,0,0,1,.02148-.09766L268.08594,154a1.54294,1.54294,0,0,0,.04883-.35645c0-.07666,0-.27929-.18164-.27929-.2168,0-.34961.34228-.47461.83154-.03516.15381-.042.16065-.13282.16065-.03515,0-.10547,0-.10547-.06983a3.97,3.97,0,0,1,.22461-.70605.56262.56262,0,0,1,.502-.37012.59183.59183,0,0,1,.58789.55225,1.24478,1.24478,0,0,1,.999-.55225.66685.66685,0,0,1,.7334.61475,1.28745,1.28745,0,0,1,1.04883-.61475.66456.66456,0,0,1,.73437.72656,6.07285,6.07285,0,0,1-.42676,1.5586,1.7509,1.7509,0,0,0-.126.52392c0,.09815.00781.20313.1543.20313.40429,0,.59375-.68506.64941-.874.02832-.10449.02832-.11865.11816-.11865.04981,0,.10547,0,.10547.06982C272.54492,155.335,272.30664,156.376,271.65723,156.376Z" transform="translate(-52.90088 -19.49902)"/>
  </g>
  <g>
    <line class="cls-2" x1="76.40978" y1="79.80271" x2="113.17201" y2="61.45692"/>
    <polygon class="cls-3" points="112.696 64.941 121.099 57.501 110.102 59.742 112.696 64.941"/>
  </g>
  <g>
    <path d="M342.94336,42.44238a1.34307,1.34307,0,0,1-1.47559-1.439,7.61841,7.61841,0,0,1,.61133-2.30274,3.53538,3.53538,0,0,0,.28809-1.07959c0-.312-.13184-.34765-.26367-.34765-.69532,0-1.01954,1.13916-1.11524,1.51123-.04883.16748-.06055.19189-.2168.19189-.05957,0-.17968,0-.17968-.12011,0-.07178.41992-1.84717,1.53515-1.84717a.89921.89921,0,0,1,.91211.97168,1.88967,1.88967,0,0,1-.13281.59961,9.05758,9.05758,0,0,0-.707,2.60254c0,.396.13183.9956.7793.9956,1.3789,0,1.94336-3.01025,1.94336-3.34619a1.3532,1.3532,0,0,0-.32422-.94775.46243.46243,0,0,1-.15625-.32373.61738.61738,0,0,1,.57617-.55176c.34765,0,.49219.37207.49219.7915C345.50977,38.11279,344.957,42.44238,342.94336,42.44238Z" transform="translate(-52.90088 -19.49902)"/>
    <path d="M348.24707,45.30908c-.168,0-.68359-.6958-.9834-1.49951a6.35737,6.35737,0,0,1-.32422-2.0625,11.73668,11.73668,0,0,1,1.69141-5.75684,7.678,7.678,0,0,1,2.55469-2.6748.107.107,0,0,1,.11914.12012c0,.03564-.01172.04785-.17969.21582-2.87793,2.44677-3.58594,6.896-3.58594,8.52734a4.95322,4.95322,0,0,0,.74414,2.84229.37308.37308,0,0,1,.084.168A.11405.11405,0,0,1,348.24707,45.30908Z" transform="translate(-52.90088 -19.49902)"/>
    <path d="M352.4707,42.44238a1.01173,1.01173,0,0,1-1.01953-1.0791,1.86606,1.86606,0,0,1,.06055-.4082l.86328-3.4419h-.959c-.19239,0-.30079,0-.30079-.144,0-.22754.13282-.22754.33594-.22754h1.01953l.46875-1.90722a.49963.49963,0,0,1,.4668-.43165.30069.30069,0,0,1,.32422.31153.72986.72986,0,0,1-.04785.252l-.44434,1.77539h.96c.19239,0,.29981,0,.29981.14356,0,.228-.13184.228-.33594.228h-1.01953l-.88672,3.562a2.3478,2.3478,0,0,0-.084.61181c0,.1919,0,.4917.32324.4917.68359,0,1.16308-.89941,1.37988-1.4751.0957-.21631.0957-.228.23926-.228.084,0,.17969,0,.17969.12011C354.294,40.65527,353.68262,42.44238,352.4707,42.44238Z" transform="translate(-52.90088 -19.49902)"/>
    <path d="M356.89844,42.63428a7.67814,7.67814,0,0,1-2.55469,2.6748.107.107,0,0,1-.11914-.12012c0-.03613.01172-.04785.17969-.21582,2.8789-2.44677,3.58593-6.89648,3.58593-8.52734a4.95311,4.95311,0,0,0-.74414-2.84228.37315.37315,0,0,1-.084-.168.114.114,0,0,1,.12109-.12012c.167,0,.6836.6958.98243,1.499a6.33647,6.33647,0,0,1,.32421,2.063A11.73943,11.73943,0,0,1,356.89844,42.63428Z" transform="translate(-52.90088 -19.49902)"/>
    <path d="M371.45117,38.38867H364.291c-.17969,0-.40723,0-.40723-.23974s.22754-.23975.39551-.23975h7.18359c.168,0,.39649,0,.39649.23975S371.63086,38.38867,371.45117,38.38867Zm.01172,2.32666H364.2793c-.168,0-.39551,0-.39551-.23974s.22754-.23975.40723-.23975h7.16015c.17969,0,.40821,0,.40821.23975S371.63086,40.71533,371.46289,40.71533Z" transform="translate(-52.90088 -19.49902)"/>
    <path d="M386.72656,34.49072c-.44336.03614-.86328.168-1.34375.97168l-4.11328,6.88428c-.13281.21582-.1914.22754-.33594.22754-.1914,0-.2041-.05957-.22851-.2876l-.71875-7.38818c-.02442-.29981-.04883-.40772-.64844-.40772-.168,0-.28711,0-.28711-.144,0-.22754.15625-.22754.21582-.22754.39551,0,.81543.03613,1.22363.03613.45508,0,.93555-.03613,1.37891-.03613a.14405.14405,0,0,1,.168.144c0,.22754-.13281.22754-.29981.22754-.12011,0-.75585.01221-.75585.37207l.6123,6.28418,3.46484-5.79248a1.23887,1.23887,0,0,0,.18067-.48c0-.2876-.28809-.37158-.47949-.38379-.09571-.01172-.19239-.01172-.19239-.144,0-.22754.14356-.22754.21582-.22754.34766,0,.74414.03613,1.10352.03613.2998,0,.623-.03613.91211-.03613a.16153.16153,0,0,1,.15527.13184C386.9541,34.479,386.82227,34.479,386.72656,34.49072Z" transform="translate(-52.90088 -19.49902)"/>
    <path d="M390.457,46.3833a.52071.52071,0,0,1-.53125-.55908,1.06535,1.06535,0,0,1,.11133-.44727,6.36185,6.36185,0,0,0,.40625-1.54443c0-.10449,0-.46094-.32227-.46094a1.23081,1.23081,0,0,0-.98535.7544,1.59123,1.59123,0,0,0-.1748.50341c-.03516.15381-.07617.3003-.11133.45411l-.2793,1.11816a.27181.27181,0,0,1-.252.18164.18274.18274,0,0,1-.19531-.18164.32308.32308,0,0,1,.0205-.09766l.45411-1.81689a2.2001,2.2001,0,0,0,.0625-.45459c0-.10449,0-.46094-.32032-.46094a1.23365,1.23365,0,0,0-.98632.7544,1.52446,1.52446,0,0,0-.17383.50341c-.03516.15381-.07813.3003-.11231.45411l-.28027,1.11816a.27067.27067,0,0,1-.251.18164.18365.18365,0,0,1-.19629-.18164.36725.36725,0,0,1,.02149-.09766l.52441-2.09668a1.54279,1.54279,0,0,0,.04883-.35644c0-.07666,0-.2793-.18164-.2793-.2168,0-.34961.34229-.47559.83155-.03515.1538-.041.16064-.13281.16064-.03515,0-.10449,0-.10449-.06982a3.93061,3.93061,0,0,1,.22363-.70606.56392.56392,0,0,1,.50293-.37012.591.591,0,0,1,.58692.55225,1.24654,1.24654,0,0,1,1-.55225.66735.66735,0,0,1,.73339.61475,1.28569,1.28569,0,0,1,1.04786-.61475.66417.66417,0,0,1,.73437.72657,6.11054,6.11054,0,0,1-.42578,1.55859,1.72326,1.72326,0,0,0-.12695.52441c0,.09766.00781.20264.15429.20264.40528,0,.59375-.68506.65039-.87353.02735-.105.02735-.11915.11817-.11915.0498,0,.10449,0,.10449.06983C391.34375,45.34229,391.10645,46.3833,390.457,46.3833Z" transform="translate(-52.90088 -19.49902)"/>
    <path d="M397.56543,42.44238a1.79066,1.79066,0,0,1-1.31934-.51562,2.90559,2.90559,0,0,0-.24023.27588c-.22754.228-.23926.23974-.29883.23974-.13281,0-.13281-.084-.13281-.28759v-1.5835c0-.21582,0-.29981.15625-.29981.12012,0,.13183.04834.168.20411.22754,1.01953.66015,1.70312,1.667,1.70312.93555,0,1.35547-.48,1.35547-1.09131,0-.86377-.9834-1.05566-1.24707-1.10351a3.1464,3.1464,0,0,1-1.584-.55176,1.27938,1.27938,0,0,1-.51562-1.01953c0-.67139.456-1.4751,1.91992-1.4751a1.84708,1.84708,0,0,1,1.12695.33594,1.51359,1.51359,0,0,0,.20313-.1919c.15625-.144.17969-.144.24023-.144.13184,0,.13184.084.13184.28809v1.21093c0,.228,0,.28809-.15527.28809,0,0-.13282,0-.14454-.10791a1.32249,1.32249,0,0,0-1.40234-1.45117c-1.03223,0-1.34375.4917-1.34375.91113,0,.6958.80274.85156,1.47461.98389a2.44247,2.44247,0,0,1,1.36719.57568,1.54353,1.54353,0,0,1,.5039,1.13916C399.49609,41.63867,398.94531,42.44238,397.56543,42.44238Z" transform="translate(-52.90088 -19.49902)"/>
    <path d="M401.62109,42.27441l-1.31836.03614V41.939c.80274,0,.93555,0,.93555-.54V38.17285c0-.58789-.1084-.65967-.88769-.65967V37.1416l1.67871-.13232v4.40185c0,.46778.04883.52783.83984.52783v.37159C402.46094,42.29834,402.041,42.27441,401.62109,42.27441Zm-.05859-6.57226a.64841.64841,0,0,1-.63672-.63574.64163.64163,0,1,1,.63672.63574Z" transform="translate(-52.90088 -19.49902)"/>
    <path d="M408.31641,42.27441l-1.35547.03614V41.939c.80273,0,.93554,0,.93554-.54V38.60449c0-.68359-.13281-1.331-.88769-1.331a1.75143,1.75143,0,0,0-1.61914,1.91894v2.20655c0,.54.13183.54.93555.54v.37159l-1.34278-.03614-1.35547.03614V41.939c.80274,0,.93555,0,.93555-.54V38.18457c0-.5874-.09668-.67139-.93555-.67139V37.1416l1.69043-.13232v1.25927a1.89143,1.89143,0,0,1,1.77539-1.25927,1.59921,1.59921,0,0,1,1.25879.44385c.37207.43164.37207.80371.37207,1.835v2.291c.0127.35986.31153.35986.93555.35986v.37159Z" transform="translate(-52.90088 -19.49902)"/>
    <path d="M413.76465,45.30908a5.17782,5.17782,0,0,1-1.8711-2.25488,9.23256,9.23256,0,0,1-.03613-7.3999,5.21637,5.21637,0,0,1,1.90723-2.33887.10811.10811,0,0,1,.12012.12012c0,.03564,0,.06006-.15625.20361a7.84866,7.84866,0,0,0-1.93164,5.67285,7.94972,7.94972,0,0,0,1.88378,5.61328c.20411.20362.20411.22754.20411.26367A.10811.10811,0,0,1,413.76465,45.30908Z" transform="translate(-52.90088 -19.49902)"/>
    <path d="M421.55078,39.44434c-.35937,1.45117-1.11523,2.998-2.36328,2.998a1.338,1.338,0,0,1-1.35547-1.271,2.26209,2.26209,0,0,1-1.834,1.271c-.91211,0-1.25977-.74365-1.25977-1.71484a5.41744,5.41744,0,0,1,.17969-1.34326,6.47449,6.47449,0,0,1,.98437-2.207.28948.28948,0,0,1,.21485-.10791.17858.17858,0,0,1,.1084.02392.205.205,0,0,1,.10839.168.28183.28183,0,0,1-.06054.15576,6.25734,6.25734,0,0,0-1.06739,2.02735,3.66306,3.66306,0,0,0-.0957.77929c0,.75586.31153,1.35547,1.04395,1.35547a2.028,2.028,0,0,0,1.63086-1.11572,4.9819,4.9819,0,0,1,.15527-1.0791c.05957-.26416.18066-.564.4082-.564.168,0,.22754.13184.22754.312a1.49784,1.49784,0,0,1-.04785.312,5.46962,5.46962,0,0,1-.36035,1.05517,1.1682,1.1682,0,0,0,1.17578,1.07959c.94727,0,1.64258-1.10351,1.91895-2.19482a1.856,1.856,0,0,0,.04785-.44385,1.37343,1.37343,0,0,0-.45508-1.05566.40917.40917,0,0,1-.13281-.29981.58493.58493,0,0,1,.168-.38379.62036.62036,0,0,1,.41992-.19189.38159.38159,0,0,1,.27636.10791.93621.93621,0,0,1,.23926.73193A7.0804,7.0804,0,0,1,421.55078,39.44434Z" transform="translate(-52.90088 -19.49902)"/>
    <path d="M424.49316,42.44238a1.01117,1.01117,0,0,1-1.01953-1.0791,1.88221,1.88221,0,0,1,.05957-.4082l.86328-3.4419h-.959c-.19141,0-.2998,0-.2998-.144,0-.22754.13183-.22754.33593-.22754h1.01953l.46778-1.90722a.50069.50069,0,0,1,.46777-.43165.3.3,0,0,1,.32324.31153.74362.74362,0,0,1-.04687.252l-.44434,1.77539h.96c.19141,0,.29883,0,.29883.14356,0,.228-.13086.228-.33594.228h-1.01953l-.88672,3.562a2.3478,2.3478,0,0,0-.084.61181c0,.1919,0,.4917.32422.4917.68359,0,1.16211-.89941,1.3789-1.4751.09571-.21631.09571-.228.24024-.228.084,0,.17969,0,.17969.12011C426.31641,40.65527,425.70508,42.44238,424.49316,42.44238Z" transform="translate(-52.90088 -19.49902)"/>
    <path d="M438.57813,39.55225h-3.34668v3.35791c0,.168,0,.396-.23926.396-.24024,0-.24024-.228-.24024-.396V39.55225h-3.3584c-.168,0-.3955,0-.3955-.24024,0-.23974.22754-.23974.3955-.23974h3.3584V35.71436c0-.168,0-.396.24024-.396.23926,0,.23926.228.23926.396v3.35791h3.34668c.168,0,.3955,0,.3955.23974C438.97363,39.55225,438.74609,39.55225,438.57813,39.55225Z" transform="translate(-52.90088 -19.49902)"/>
    <path d="M446.86035,42.45459l-.45605,1.78711a2.972,2.972,0,0,1-.13086.47949.1415.1415,0,0,1-.1211.04785c-.05957,0-.14355-.01172-.14355-.13183,0-.03614.12012-.4917.26465-1.05518l.27539-1.12744a2.20831,2.20831,0,0,1-2.30274-2.1709c0-1.63135,1.7627-3.22607,3.66993-3.28613l.69531-2.77051c.04883-.2041.06055-.23975.17969-.23975a.12647.12647,0,0,1,.14453.11963l-.03614.168-.67187,2.72266a2.208,2.208,0,0,1,2.30273,2.1709C450.53027,40.77539,448.791,42.39453,446.86035,42.45459Zm-1.835-1.919a1.55686,1.55686,0,0,0,1.583,1.65479l1.23535-4.9292A3.24708,3.24708,0,0,0,445.02539,40.53564Zm3.13086-3.27441-1.23633,4.9292A3.25645,3.25645,0,0,0,449.751,38.9165,1.5526,1.5526,0,0,0,448.15625,37.26123Z" transform="translate(-52.90088 -19.49902)"/>
    <path d="M453.52051,42.97021a5.22658,5.22658,0,0,1-1.90723,2.33887.11277.11277,0,0,1-.11914-.12012c0-.03613,0-.06005.15527-.2041a7.86191,7.86191,0,0,0,1.93067-5.67285,7.78214,7.78214,0,0,0-1.8584-5.60058c-.22754-.21582-.22754-.24024-.22754-.27588a.11252.11252,0,0,1,.11914-.12012,5.17079,5.17079,0,0,1,1.8711,2.25488,9.23256,9.23256,0,0,1,.03613,7.3999Z" transform="translate(-52.90088 -19.49902)"/>
  </g>
  <g>
    <polyline class="cls-4" points="76.099 9.457 76.099 80.501 76.099 155.501"/>
    <polygon points="71.646 17.733 72.963 18.211 76.099 9.594 79.235 18.211 80.551 17.733 76.099 5.501 71.646 17.733"/>
  </g>
  <g>
    <polyline class="cls-4" points="147.143 80.501 76.099 80.501 1.099 80.501"/>
    <polygon points="138.868 76.048 138.389 77.365 147.006 80.501 138.389 83.637 138.868 84.953 151.099 80.501 138.868 76.048"/>
  </g>
  <circle class="cls-2" cx="76.09912" cy="80.50098" r="50"/>
  <g>
    <path d="M201.3252,117.69043a2.33536,2.33536,0,0,1-1.51124-.50342c-.49169-.45605-.49169-.93555-.49169-1.71533,0-.80322,0-1.17529-.45557-1.60693a1.52851,1.52851,0,0,0-1.11524-.40772h-1.37939v3.03418c0,.43164.02393.564.94727.564h.28808v.37158c-.43164-.03613-1.2832-.03613-1.751-.03613s-1.31934,0-1.751.03613v-.37158h.2876c.92334,0,.94775-.13233.94775-.564V110.1709c0-.43213-.02441-.564-.94775-.564h-.2876v-.37158h3.76562c1.76319,0,3.13037,1.00733,3.13037,2.15869,0,.93555-.93554,1.667-2.09863,1.95508a2.07851,2.07851,0,0,1,1.46289,1.39111l.15625.95948c.16748,1.11523.26367,1.72705.85157,1.72705.2998,0,.71923-.21582.7915-1.06738.01172-.084.01172-.1919.14355-.1919.15625,0,.15625.13184.15625.20361C202.46484,116.707,202.26074,117.69043,201.3252,117.69043Zm-3.98145-8.0835a5.89017,5.89017,0,0,0-.708.02393c-.26367.03613-.26367.18018-.26367.45605v3.106h1.33106c1.77539,0,2.063-.97119,2.063-1.79883C199.76611,109.65527,198.42285,109.60693,197.34375,109.60693Z" transform="translate(-52.90088 -19.49902)"/>
    <path d="M205.49219,117.55859a2.70762,2.70762,0,0,1-2.63867-2.7705,2.621,2.621,0,0,1,2.49462-2.73438,2.12725,2.12725,0,0,1,2.14649,2.35059c0,.25195-.03565.25195-.29981.25195h-3.34619a3.49148,3.49148,0,0,0,.35987,1.79883,1.61528,1.61528,0,0,0,1.35546.80371,1.69054,1.69054,0,0,0,1.61915-1.23535c.02392-.09571.04785-.168.15576-.168a.13918.13918,0,0,1,.15576.144A2.04936,2.04936,0,0,1,205.49219,117.55859Zm-.144-5.24121c-.40771,0-1.41552.29981-1.4873,2.08692h2.84229C206.70313,113.93652,206.5835,112.31738,205.34814,112.31738Z" transform="translate(-52.90088 -19.49902)"/>
  </g>
  <g>
    <path d="M138.87793,28.06494c-.45557,0-1.40332,0-1.82275.03613v-.37158h.31152c.94775,0,.98389-.13232.98389-.564V20.84521c0-.43212-.03614-.564-.98389-.564h-.31152v-.37158c.41943.03564,1.36718.03564,1.835.03564.45556,0,1.40332,0,1.82275-.03564v.37158h-.31152c-.94776,0-.9834.13184-.9834.564v6.32032c0,.43164.03564.564.9834.564h.31152v.37158C140.29346,28.06494,139.3457,28.06494,138.87793,28.06494Z" transform="translate(-52.90088 -19.49902)"/>
    <path d="M149.4585,28.06494l-1.355.03613v-.37158c.80322,0,.93554,0,.93554-.54V24.395c0-.68359-.13232-1.33106-.88769-1.33106a1.75144,1.75144,0,0,0-1.61914,1.91895v2.20654c0,.54.13183.54.93554.54v.37158l-1.34326-.03613-1.35547.03613v-.37158c.80371,0,.93555,0,.93555-.54V24.395c0-.68359-.13184-1.33106-.88721-1.33106a1.75144,1.75144,0,0,0-1.61914,1.91895v2.20654c0,.54.13184.54.93555.54v.37158l-1.34326-.03613-1.35547.03613v-.37158c.80371,0,.93555,0,.93555-.54V23.97559c0-.58789-.0962-.67188-.93555-.67188v-.37158l1.69092-.13233v1.25928a1.89142,1.89142,0,0,1,1.77539-1.25928,1.41982,1.41982,0,0,1,1.59472,1.17579,1.89841,1.89841,0,0,1,1.73926-1.17579,1.59974,1.59974,0,0,1,1.25928.44385c.37158.43164.37158.80371.37158,1.835v2.291c.01221.35986.312.35986.93555.35986v.37158Z" transform="translate(-52.90088 -19.49902)"/>
  </g>
  <path class="cls-6" d="M129.5,99.5" transform="translate(-52.90088 -19.49902)"/>
  <g>
    <path d="M190.54541,89.30078c-.45605,0-1.29541,0-1.727.03613v-.37158c.32373,0,.99512,0,.99512-.35986a.85184.85184,0,0,0-.03565-.168l-.63574-1.835h-2.9624l-.55176,1.5708a.80808.80808,0,0,0-.02393.18018c0,.31152.29981.61181.89942.61181v.37158l-1.3794-.03613-1.22314.03613v-.37158a1.24674,1.24674,0,0,0,1.34326-.80371l2.48242-7.17236c.06006-.16748.09619-.23975.28809-.23975s.21582.084.27588.23975l2.59033,7.49609c.13232.396.2998.48,1.01953.48h.21582v.37158ZM187.65479,82.333l-1.34327,3.89746h2.69873Z" transform="translate(-52.90088 -19.49902)"/>
    <path d="M194.97559,89.46875a1.451,1.451,0,0,1-1.54688-1.61914V84.53955h-1.01953v-.26367c1.17529-.04834,1.53516-1.33154,1.54687-2.31494h.29981v2.207h1.71533v.37158h-1.71533v3.334c0,.2041,0,1.29541.80371,1.29541.44385,0,.80371-.45557.80371-1.34327V87.166h.29981v.68359C196.16309,88.61719,195.82715,89.46875,194.97559,89.46875Z" transform="translate(-52.90088 -19.49902)"/>
    <path d="M203.292,89.46875a1.01117,1.01117,0,0,1-1.01953-1.0791,1.84359,1.84359,0,0,1,.06006-.4082l.86328-3.4419h-.95947c-.1919,0-.29981,0-.29981-.144,0-.22754.13184-.22754.33594-.22754H203.292l.46778-1.90723a.50067.50067,0,0,1,.46777-.43164.30055.30055,0,0,1,.32373.31153.72989.72989,0,0,1-.04785.25195l-.44385,1.77539h.95947c.1919,0,.29981,0,.29981.14355,0,.228-.13184.228-.33594.228h-1.01953l-.88721,3.562a2.34785,2.34785,0,0,0-.084.61182c0,.19189,0,.4917.32373.4917.68359,0,1.16308-.89942,1.37939-1.4751.09571-.21631.09571-.228.23975-.228.084,0,.17969,0,.17969.12012C205.11475,87.68164,204.50342,89.46875,203.292,89.46875Z" transform="translate(-52.90088 -19.49902)"/>
    <path d="M217.06445,85.415h-7.15966c-.18018,0-.40772,0-.40772-.23975s.22754-.23974.39551-.23974h7.18408c.168,0,.396,0,.396.23974S217.24463,85.415,217.06445,85.415Zm.01221,2.32666h-7.18408c-.168,0-.39551,0-.39551-.23975s.22754-.23974.40772-.23974h7.15966c.18018,0,.40821,0,.40821.23974S217.24463,87.7417,217.07666,87.7417Z" transform="translate(-52.90088 -19.49902)"/>
    <path d="M227.23047,88.20947a2.24261,2.24261,0,0,1-4.06592.18018A6.07712,6.07712,0,0,1,222.625,85.499a6.41434,6.41434,0,0,1,.44385-2.72265,2.19887,2.19887,0,0,1,2.08691-1.42725,2.22385,2.22385,0,0,1,2.03858,1.34326,8.47125,8.47125,0,0,1,.03613,5.51709Zm-.67188-5.19287c-.22754-1.1875-1.019-1.40332-1.415-1.40332-.2998,0-1.19921.10791-1.42724,1.53516a16.12248,16.12248,0,0,0-.0957,2.20654,16.36323,16.36323,0,0,0,.13183,2.53076c.21582,1.15137.92334,1.45117,1.39111,1.45117.53956,0,1.22315-.35986,1.40333-1.499a14.86964,14.86964,0,0,0,.13183-2.48291A14.72,14.72,0,0,0,226.55859,83.0166Z" transform="translate(-52.90088 -19.49902)"/>
  </g>
  <path class="cls-2" d="M275.29607,77" transform="translate(-52.90088 -19.49902)"/>
  <line class="cls-6" x1="222.09912" y1="57.50098" x2="121.09912" y2="57.50098"/>
  <polyline class="cls-6" points="48.474 39.237 283.099 39.237 283.099 79.501"/>
  <g>
    <path d="M334.51367,112.39014a1.01174,1.01174,0,0,1-1.01953-1.0791,1.86618,1.86618,0,0,1,.06055-.40821l.86328-3.44189h-.959c-.19238,0-.2998,0-.2998-.144,0-.22753.13184-.22753.335-.22753h1.01953l.46778-1.90723a.50067.50067,0,0,1,.46777-.43164.30081.30081,0,0,1,.32422.312.72953.72953,0,0,1-.04785.25146l-.44434,1.7754h.96c.19141,0,.29981,0,.29981.14355,0,.228-.13184.228-.33594.228h-1.01953l-.8877,3.562a2.34785,2.34785,0,0,0-.084.61182c0,.19189,0,.49169.32422.49169.68359,0,1.16308-.89941,1.3789-1.47509.09668-.21582.09668-.228.24024-.228.084,0,.17968,0,.17968.12012C336.33691,110.603,335.72559,112.39014,334.51367,112.39014Z" transform="translate(-52.90088 -19.49902)"/>
    <path d="M337.80469,116.4082c-.93653,0-.93653-.97168-.93653-1.188a6.86465,6.86465,0,0,1,.64356-2.49511,1.772,1.772,0,0,1,1.48144-1.125c.90137,0,.93653.90869.93653,1.188a7.33186,7.33186,0,0,1-.55274,2.32031C338.92285,116.12158,338.2666,116.4082,337.80469,116.4082Zm1.6914-3.99756c0-.44726-.25195-.65673-.53808-.65673a1.04657,1.04657,0,0,0-.874.67773,13.763,13.763,0,0,0-.76855,3.1377c0,.54541.30078.68505.52441.68505a1.1199,1.1199,0,0,0,.86621-.68505A13.8047,13.8047,0,0,0,339.49609,112.41064Z" transform="translate(-52.90088 -19.49902)"/>
  </g>
  <g>
    <path d="M59.54541,51.30078c-.456,0-1.29541,0-1.727.03613v-.37158c.32373,0,.99512,0,.99512-.35986a.85184.85184,0,0,0-.03565-.168l-.63574-1.835h-2.9624l-.55176,1.5708a.80808.80808,0,0,0-.02393.18018c0,.31152.29981.61181.89942.61181v.37158l-1.3794-.03613-1.22314.03613v-.37158a1.24674,1.24674,0,0,0,1.34326-.80371l2.48242-7.17236c.06006-.16748.09619-.23975.28809-.23975s.21582.084.27588.23975l2.59033,7.49609c.13232.396.2998.48,1.01953.48h.21582v.37158ZM56.65479,44.333l-1.34327,3.89746h2.69873Z" transform="translate(-52.90088 -19.49902)"/>
    <path d="M63.97559,51.46875a1.451,1.451,0,0,1-1.54688-1.61914V46.53955H61.40918v-.26367c1.17529-.04834,1.53516-1.33154,1.54687-2.31494h.29981v2.207h1.71533v.37158H63.25586v3.334c0,.2041,0,1.29541.80371,1.29541.44385,0,.80371-.45557.80371-1.34327V49.166h.29981v.68359C65.16309,50.61719,64.82715,51.46875,63.97559,51.46875Z" transform="translate(-52.90088 -19.49902)"/>
    <path d="M72.292,51.46875a1.01117,1.01117,0,0,1-1.01953-1.0791,1.84359,1.84359,0,0,1,.06006-.4082l.86328-3.4419h-.95947c-.1919,0-.29981,0-.29981-.144,0-.22754.13184-.22754.33594-.22754H72.292l.46778-1.90723a.50067.50067,0,0,1,.46777-.43164.30055.30055,0,0,1,.32373.31153.72989.72989,0,0,1-.04785.252L73.05957,46.168H74.019c.1919,0,.29981,0,.29981.14355,0,.228-.13184.228-.33594.228H72.96338l-.88721,3.562a2.34785,2.34785,0,0,0-.084.61182c0,.19189,0,.4917.32373.4917.68359,0,1.16308-.89942,1.37939-1.4751.09571-.21631.09571-.228.23975-.228.084,0,.17969,0,.17969.12012C74.11475,49.68164,73.50342,51.46875,72.292,51.46875Z" transform="translate(-52.90088 -19.49902)"/>
    <path d="M86.06445,47.415H78.90479c-.18018,0-.40772,0-.40772-.23975s.22754-.23974.39551-.23974h7.18408c.168,0,.396,0,.396.23974S86.24463,47.415,86.06445,47.415Zm.01221,2.32666H78.89258c-.168,0-.39551,0-.39551-.23975s.22754-.23974.40772-.23974h7.15966c.18018,0,.40821,0,.40821.23974S86.24463,49.7417,86.07666,49.7417Z" transform="translate(-52.90088 -19.49902)"/>
    <path d="M93.604,51.46875a1.01145,1.01145,0,0,1-1.01953-1.0791,1.84359,1.84359,0,0,1,.06006-.4082l.86328-3.4419h-.95947c-.19189,0-.2998,0-.2998-.144,0-.22754.13183-.22754.33593-.22754H93.604l.46778-1.90723a.50068.50068,0,0,1,.46777-.43164.30055.30055,0,0,1,.32373.31153.72989.72989,0,0,1-.04785.252L94.37158,46.168h.95947c.1919,0,.29981,0,.29981.14355,0,.228-.13184.228-.33594.228H94.27539l-.88721,3.562a2.34785,2.34785,0,0,0-.084.61182c0,.19189,0,.4917.32373.4917.68359,0,1.16309-.89942,1.37939-1.4751.09571-.21631.09571-.228.23975-.228.084,0,.17969,0,.17969.12012C95.42676,49.68164,94.81543,51.46875,93.604,51.46875Z" transform="translate(-52.90088 -19.49902)"/>
    <path d="M96.895,55.48682c-.936,0-.936-.97168-.936-1.188a6.87243,6.87243,0,0,1,.64258-2.49512,1.77255,1.77255,0,0,1,1.48145-1.125c.90137,0,.93652.9082.93652,1.188a7.35518,7.35518,0,0,1-.55176,2.32031C98.01367,55.2002,97.35645,55.48682,96.895,55.48682Zm1.69189-3.99756c0-.44727-.252-.65674-.53808-.65674a1.04548,1.04548,0,0,0-.874.67773,13.738,13.738,0,0,0-.76855,3.1377c0,.54541.30029.68506.52393.68506a1.12138,1.12138,0,0,0,.8667-.68506A13.805,13.805,0,0,0,98.58691,51.48926Z" transform="translate(-52.90088 -19.49902)"/>
  </g>
  <path d="M158.79883,95.35693l-.45606,1.78711a2.84667,2.84667,0,0,1-.13183.4795.13768.13768,0,0,1-.11914.04785c-.06055,0-.14453-.01172-.14453-.13184,0-.03613.12011-.4917.26367-1.05517l.27636-1.12745a2.20768,2.20768,0,0,1-2.30273-2.17089c0-1.63135,1.7627-3.22608,3.66992-3.28614l.69531-2.77051c.04786-.2041.06055-.23974.17969-.23974a.12647.12647,0,0,1,.14453.11963l-.03613.168L160.166,89.8999a2.208,2.208,0,0,1,2.30273,2.1709C162.46875,93.67773,160.72949,95.29688,158.79883,95.35693Zm-1.835-1.91894a1.55686,1.55686,0,0,0,1.583,1.65478l1.23535-4.9292A3.24709,3.24709,0,0,0,156.96387,93.438Zm3.12988-3.27442-1.23437,4.9292a3.25557,3.25557,0,0,0,2.83007-3.27392A1.55282,1.55282,0,0,0,160.09375,90.16357Z" transform="translate(-52.90088 -19.49902)"/>
  <g>
    <path d="M147.7793,74.49121c-.44385.03613-.86377.168-1.34326.97168l-4.11377,6.88428c-.13233.21582-.1919.22754-.33594.22754-.1919,0-.2041-.05957-.228-.2876l-.71973-7.38818c-.02392-.29981-.04785-.40772-.64746-.40772-.168,0-.28759,0-.28759-.14355,0-.228.15576-.228.21582-.228.3955,0,.81543.03564,1.22314.03564.45557,0,.93555-.03564,1.3794-.03564a.14387.14387,0,0,1,.168.144c0,.22754-.13232.22754-.2998.22754-.12012,0-.75586.01221-.75586.37207l.61182,6.28418,3.46582-5.79248a1.24662,1.24662,0,0,0,.18017-.48c0-.2876-.28808-.37158-.48-.38379-.0957-.01172-.19189-.01172-.19189-.14355,0-.228.144-.228.21582-.228.34814,0,.74365.03564,1.10351.03564.29981,0,.62354-.03564.91162-.03564a.16114.16114,0,0,1,.15577.13183C148.00684,74.47949,147.875,74.47949,147.7793,74.49121Z" transform="translate(-52.90088 -19.49902)"/>
    <path d="M151.50928,86.38379a.52061.52061,0,0,1-.53076-.55908,1.05246,1.05246,0,0,1,.11181-.44727,6.36343,6.36343,0,0,0,.40528-1.54443c0-.10449,0-.46094-.32178-.46094a1.23182,1.23182,0,0,0-.98535.75488,1.5482,1.5482,0,0,0-.17432.50293c-.03516.15381-.07715.3003-.11182.4541l-.27978,1.11817a.27124.27124,0,0,1-.25147.18164.1832.1832,0,0,1-.1958-.18164.34359.34359,0,0,1,.021-.09766l.4541-1.81689a2.15792,2.15792,0,0,0,.063-.45459c0-.10449,0-.46094-.32129-.46094a1.23113,1.23113,0,0,0-.98535.75488,1.533,1.533,0,0,0-.17481.50293c-.03515.15381-.07714.3003-.11181.4541l-.27979,1.11817a.27124.27124,0,0,1-.25146.18164.1832.1832,0,0,1-.1958-.18164.36178.36178,0,0,1,.021-.09766l.52442-2.09668a1.56983,1.56983,0,0,0,.04882-.35644c0-.07666,0-.2793-.18164-.2793-.21679,0-.34961.34229-.47509.83154-.03516.15381-.042.16065-.13282.16065-.03515,0-.105,0-.105-.06983a3.92987,3.92987,0,0,1,.22364-.70605.5639.5639,0,0,1,.50293-.37012.59172.59172,0,0,1,.5874.55225,1.24478,1.24478,0,0,1,.999-.55225.66778.66778,0,0,1,.73389.61475,1.28512,1.28512,0,0,1,1.04834-.61475.664.664,0,0,1,.73389.72656,6.07214,6.07214,0,0,1-.42627,1.5586,1.73606,1.73606,0,0,0-.126.52392c0,.09815.00732.20313.15381.20313.40527,0,.59424-.68506.6499-.874.02783-.1045.02783-.11866.11865-.11866.04932,0,.105,0,.105.06983C152.397,85.34277,152.15918,86.38379,151.50928,86.38379Z" transform="translate(-52.90088 -19.49902)"/>
  </g>
</svg>
