<?xml version="1.0" encoding="utf-8"?>
<!-- Generator: Adobe Illustrator 23.0.3, SVG Export Plug-In . SVG Version: 6.00 Build 0)  -->
<svg version="1.1" id="Layer_1" xmlns="http://www.w3.org/2000/svg" xmlns:xlink="http://www.w3.org/1999/xlink" x="0px" y="0px"
	 viewBox="0 0 447.09912 155.50098" style="enable-background:new 0 0 447.09912 155.50098;" xml:space="preserve">
<style type="text/css">
	.st0{fill:none;stroke:#8FF4DD;stroke-miterlimit:10;}
	.st1{fill:none;stroke:#FD1D53;stroke-width:2;stroke-miterlimit:10;}
	.st2{fill:#FD1D53;}
	.st3{fill:none;stroke:#8FF4DD;stroke-width:2;stroke-miterlimit:10;}
	.st4{fill:#8FF4DD;}
	.st5{fill:none;stroke:#FD1D53;stroke-width:2;stroke-linecap:round;stroke-linejoin:round;}
	.st6{fill:none;stroke:#FD1D53;stroke-miterlimit:10;stroke-dasharray:5;}
</style>
<title>Phasor</title>
<path class="st0" d="M95.56619,70.2429c1.66875,3.16144,2.53835,6.68326,2.53293,10.25807"/>
<g>
	<line class="st1" x1="76.09912" y1="80.50098" x2="52.2151" y2="46.7339"/>
	<polygon class="st2" points="55.731,46.674 47.099,39.501 50.987,50.029 	"/>
</g>
<g>
	<polyline class="st3" points="222.099,9.457 222.099,80.501 222.099,155.50101 	"/>
	<polygon class="st4" points="217.646,17.733 218.963,18.211 222.099,9.594 225.235,18.211 226.55099,17.733 222.099,5.501 	"/>
</g>
<g>
	<line class="st3" x1="172.09912" y1="80.50098" x2="443.14313" y2="80.50098"/>
	<polygon class="st4" points="434.86801,84.954 434.38901,83.637 443.00601,80.501 434.38901,77.365 434.86801,76.049 
		447.099,80.501 	"/>
</g>
<path class="st5" d="M210.09473,80.50098c12.49951-25,24.99899-50,49.99799-50c49.99951,0,49.99951,100,99.99899,100
	c25.00092,0,37.50137-25,50.00183-50"/>
<g>
	<path class="st4" d="M199.55812,9.12698c-0.73793,0.07536-1.39722-0.46176-1.47258-1.19968
		c-0.00812-0.07952-0.00912-0.15961-0.00301-0.23932c0.08176-0.79489,0.28806-1.57196,0.61133-2.30273
		c0.15265-0.34232,0.24989-0.70673,0.28809-1.07959c0-0.312-0.13184-0.34766-0.26367-0.34766
		c-0.6958,0-1.01953,1.13916-1.11572,1.51123c-0.04785,0.16748-0.06006,0.1919-0.21582,0.1919c-0.06006,0-0.17969,0-0.17969-0.12012
		c0-0.07178,0.41943-1.84717,1.53467-1.84717c0.49655-0.00874,0.90616,0.38671,0.9149,0.88326
		c0.00052,0.0295-0.00041,0.05901-0.00279,0.08842c-0.01128,0.20577-0.05614,0.40832-0.13281,0.59961
		c-0.36423,0.82737-0.60252,1.70461-0.707,2.60254c0,0.396,0.13184,0.9956,0.7793,0.9956c1.37891,0,1.94336-3.01025,1.94336-3.34619
		c0.01714-0.34576-0.09889-0.68494-0.32422-0.94775c-0.09361-0.08242-0.14995-0.19917-0.15625-0.32373
		c0.03149-0.29997,0.27512-0.53328,0.57617-0.55176c0.34766,0,0.49219,0.37207,0.49219,0.79151
		C202.12451,4.79737,201.57178,9.12698,199.55812,9.12698z"/>
	<path class="st4" d="M204.86182,11.99366c-0.168,0-0.68359-0.6958-0.9834-1.49952c-0.22101-0.66493-0.33054-1.36183-0.32422-2.0625
		c0.05548-2.03308,0.63834-4.01685,1.69141-5.75683C205.86649,1.58835,206.7435,0.6701,207.80029,0
		c0.05865-0.00721,0.11203,0.0345,0.11926,0.09315c0.0011,0.00896,0.00104,0.01802-0.00012,0.02697
		c0,0.03565-0.01172,0.04785-0.17969,0.21582c-2.87793,2.44678-3.58594,6.896-3.58594,8.52734
		c-0.04514,1.00089,0.21432,1.99193,0.74414,2.84229c0.04187,0.04792,0.0708,0.10575,0.08401,0.168
		c0.00345,0.06287-0.04471,0.11663-0.10757,0.12009C204.87021,11.99389,204.866,11.99389,204.86182,11.99366z"/>
	<path class="st4" d="M209.08545,9.12698c-0.55875,0.00555-1.01617-0.44289-1.02173-1.00163
		c-0.00024-0.02584,0.00049-0.05168,0.0022-0.07747c0.00504-0.13789,0.02533-0.2748,0.06055-0.40821l0.86328-3.44189h-0.95901
		c-0.19238,0-0.30078,0-0.30078-0.144c0-0.22753,0.13281-0.22753,0.33594-0.22753h1.01953l0.46875-1.90723
		c0.03217-0.23709,0.22791-0.4181,0.4668-0.43164c0.16556-0.01312,0.31039,0.11044,0.32352,0.27599
		c0.00092,0.01182,0.00116,0.02368,0.0007,0.03553c-0.00095,0.08617-0.01715,0.17148-0.04785,0.252L209.853,3.8263h0.95999
		c0.19238,0,0.2998,0,0.2998,0.14355c0,0.228-0.13184,0.228-0.33594,0.228h-1.01953l-0.88672,3.562
		c-0.05481,0.19935-0.08307,0.40507-0.08401,0.61182c0,0.19189,0,0.49169,0.32324,0.49169
		c0.68359,0,1.16309-0.89941,1.37988-1.47509c0.0957-0.21631,0.0957-0.228,0.23926-0.228c0.08401,0,0.17969,0,0.17969,0.12012
		C210.90869,7.33985,210.29736,9.12698,209.08545,9.12698z"/>
	<path class="st4" d="M213.51318,9.31885c-0.62088,1.08646-1.49789,2.0047-2.55469,2.67481
		c-0.05865,0.00721-0.11203-0.0345-0.11926-0.09315c-0.0011-0.00896-0.00104-0.01802,0.00012-0.02697
		c0-0.03613,0.01172-0.04785,0.17969-0.21582c2.87891-2.44678,3.58594-6.89649,3.58594-8.52735
		c0.04514-1.00088-0.21432-1.99192-0.74414-2.84228c-0.04187-0.04792-0.0708-0.10575-0.08401-0.168
		c-0.00348-0.0629,0.04471-0.1167,0.1076-0.12017c0.00449-0.00025,0.009-0.00023,0.01349,0.00006
		c0.16699,0,0.68359,0.6958,0.98242,1.499c0.22144,0.665,0.33099,1.36213,0.32422,2.063
		C215.14899,5.59505,214.56613,7.57881,213.51318,9.31885z"/>
</g>
<path class="st4" d="M440.65771,96.12698c-0.55875,0.00554-1.01617-0.44292-1.02173-1.00165
	c-0.00024-0.02585,0.00049-0.05168,0.0022-0.07745c0.00504-0.13789,0.02533-0.2748,0.06055-0.40822l0.86328-3.44188H439.603
	c-0.19238,0-0.30078,0-0.30078-0.14406c0-0.22752,0.13281-0.22752,0.33594-0.22752h1.01953l0.46875-1.90723
	c0.03217-0.23709,0.22791-0.41809,0.4668-0.43164c0.16556-0.01312,0.31039,0.11044,0.32352,0.27599
	c0.00092,0.01183,0.00116,0.02368,0.0007,0.03554c-0.00095,0.08617-0.01715,0.17148-0.04785,0.252l-0.44434,1.77539h0.95999
	c0.19238,0,0.2998,0,0.2998,0.14355c0,0.228-0.13184,0.228-0.33594,0.228h-1.01953l-0.88672,3.562
	c-0.05481,0.19934-0.08307,0.40506-0.08401,0.61182c0,0.19188,0,0.49168,0.32324,0.49168c0.68359,0,1.16309-0.8994,1.37988-1.47508
	c0.0957-0.21631,0.0957-0.228,0.23926-0.228c0.08401,0,0.17969,0,0.17969,0.12012
	C442.48096,94.33984,441.86963,96.12698,440.65771,96.12698z"/>
<g>
	<path class="st4" d="M204.19385,130.56152h-2.30272c-0.21582,0-0.31152,0-0.31152-0.15625
		c0.01772-0.12196,0.04582-0.24219,0.084-0.35938c0.04785-0.15625,0.07227-0.15625,0.31152-0.15625h2.33887
		c0.19141,0,0.2998,0,0.2998,0.144c-0.02353,0.12997-0.05582,0.25819-0.09668,0.38379
		C204.48193,130.56152,204.42139,130.56152,204.19385,130.56152z"/>
	<path class="st4" d="M215.02686,124.98438c-0.44434,0.03613-0.86426,0.168-1.34375,0.97168l-4.11328,6.88428
		c-0.13281,0.21582-0.19238,0.22752-0.33594,0.22752c-0.19238,0-0.20508-0.05957-0.22852-0.28758l-0.71973-7.38818
		c-0.02441-0.2998-0.04785-0.40771-0.64746-0.40771c-0.168,0-0.28711,0-0.28711-0.14355c0-0.228,0.15527-0.228,0.21484-0.228
		c0.39648,0,0.81641,0.03564,1.22363,0.03564c0.45605,0,0.93555-0.03564,1.37988-0.03564
		c0.07846-0.01323,0.15277,0.03963,0.16602,0.11809c0.00143,0.00856,0.00211,0.01723,0.00198,0.02591
		c0,0.22754-0.13281,0.22754-0.30078,0.22754c-0.11914,0-0.75586,0.01221-0.75586,0.37207l0.6123,6.28418l3.46582-5.79248
		c0.09268-0.14572,0.1539-0.30922,0.17969-0.48c0-0.2876-0.28711-0.37158-0.47949-0.38379
		c-0.0957-0.01172-0.19238-0.01172-0.19238-0.14355c0-0.228,0.14453-0.228,0.2168-0.228c0.34766,0,0.74316,0.03564,1.10352,0.03564
		c0.29883,0,0.62299-0.03564,0.91113-0.03564c0.0766,0.00122,0.14166,0.05644,0.15527,0.13184
		C215.25342,124.97266,215.12256,124.97266,215.02686,124.98438z"/>
	<path class="st4" d="M218.75635,136.87698c-0.28741,0.0062-0.52542-0.22179-0.53159-0.50919
		c-0.00037-0.01665,0.00006-0.03331,0.00131-0.04991c0.00354-0.15549,0.04156-0.30826,0.11133-0.44727
		c0.1994-0.49576,0.33557-1.01465,0.40527-1.54443c0-0.10451,0-0.46094-0.32129-0.46094
		c-0.44073,0.05562-0.8175,0.34398-0.98633,0.75488c-0.08624,0.15648-0.14505,0.32658-0.17383,0.50293
		c-0.03516,0.15381-0.07715,0.30029-0.11133,0.4541l-0.28027,1.11816c-0.03732,0.10718-0.13754,0.1797-0.25101,0.18164
		c-0.10083,0.00731-0.18851-0.0685-0.1958-0.16933c-0.00031-0.0041-0.00046-0.00821-0.00049-0.01231
		c0.00223-0.03336,0.00912-0.06622,0.02051-0.09766l0.45508-1.81689c0.03662-0.14894,0.05756-0.3013,0.0625-0.45459
		c0-0.10451,0-0.46094-0.32129-0.46094c-0.44049,0.05566-0.81696,0.34407-0.98535,0.75488
		c-0.08716,0.15616-0.14633,0.32637-0.1748,0.50293c-0.03516,0.15381-0.07715,0.30029-0.1123,0.4541l-0.2793,1.11816
		c-0.03772,0.1073-0.13824,0.17976-0.25195,0.18164c-0.10104,0.00661-0.18832-0.06996-0.19492-0.17101
		c-0.00024-0.00354-0.00037-0.0071-0.0004-0.01064c0.00269-0.03339,0.00989-0.06624,0.02148-0.09766l0.52347-2.09669
		c0.03012-0.1165,0.04651-0.23613,0.04883-0.35645c0-0.07666,0-0.2793-0.18164-0.2793c-0.2168,0-0.34961,0.34229-0.47461,0.83154
		c-0.03516,0.15381-0.04199,0.16064-0.13281,0.16064c-0.03516,0-0.10547,0-0.10547-0.06982
		c0.0527-0.24184,0.1279-0.47823,0.22461-0.70605c0.07739-0.21332,0.27536-0.35927,0.50201-0.37012
		c0.31049,0.00137,0.56714,0.24245,0.58789,0.55225c0.224-0.33492,0.59625-0.5407,0.99899-0.55225
		c0.36636-0.03773,0.69394,0.22867,0.73166,0.59502c0.00067,0.00658,0.00125,0.01315,0.00174,0.01973
		c0.22476-0.36748,0.61838-0.59819,1.04883-0.61475c0.36481-0.04037,0.69327,0.22263,0.73364,0.58742
		c0.0051,0.04623,0.00534,0.09286,0.00073,0.13914c-0.07217,0.53622-0.2157,1.06039-0.42676,1.55859
		c-0.06879,0.1671-0.1113,0.34383-0.12601,0.52393c0,0.09814,0.00781,0.20313,0.1543,0.20313
		c0.4043,0,0.59375-0.68506,0.64941-0.87399c0.02832-0.10449,0.02832-0.11865,0.11816-0.11865c0.0498,0,0.10547,0,0.10547,0.06982
		C219.64404,135.83598,219.40576,136.87698,218.75635,136.87698z"/>
</g>
<g>
	<line class="st1" x1="76.40978" y1="79.80271" x2="113.17201" y2="61.45692"/>
	<polygon class="st2" points="112.696,64.941 121.099,57.501 110.102,59.742 	"/>
</g>
<g>
	<path class="st4" d="M290.04248,22.94336c-0.73792,0.07537-1.39722-0.46174-1.4726-1.19966
		c-0.00812-0.07953-0.00912-0.15963-0.00299-0.23934c0.08176-0.79489,0.28806-1.57197,0.61133-2.30274
		c0.15265-0.34232,0.24988-0.70673,0.28809-1.07959c0-0.312-0.13184-0.34765-0.26367-0.34765
		c-0.69531,0-1.01953,1.13916-1.11523,1.51123c-0.04883,0.16748-0.06055,0.19189-0.2168,0.19189
		c-0.05957,0-0.17969,0-0.17969-0.12011c0-0.07178,0.41992-1.84717,1.53516-1.84717
		c0.49655-0.00875,0.90616,0.38669,0.91492,0.88324c0.00052,0.02951-0.00043,0.05902-0.00281,0.08844
		c-0.01129,0.20578-0.05615,0.40832-0.13281,0.59961c-0.36423,0.82737-0.60254,1.70461-0.707,2.60254
		c0,0.396,0.13184,0.9956,0.7793,0.9956c1.37891,0,1.94336-3.01025,1.94336-3.34619
		c0.01712-0.34576-0.09891-0.68494-0.32422-0.94775c-0.0936-0.08242-0.14996-0.19917-0.15625-0.32373
		c0.03149-0.29997,0.27512-0.53328,0.57617-0.55176c0.34766,0,0.49219,0.37207,0.49219,0.7915
		C292.60889,18.61377,292.05612,22.94336,290.04248,22.94336z"/>
	<path class="st4" d="M295.34619,25.81006c-0.168,0-0.68359-0.6958-0.9834-1.49951c-0.22101-0.66494-0.33054-1.36183-0.32422-2.0625
		c0.05548-2.03308,0.63834-4.01686,1.69141-5.75684c0.62088-1.08646,1.49789-2.0047,2.55469-2.6748
		c0.05865-0.00721,0.11203,0.0345,0.11926,0.09315c0.0011,0.00896,0.00104,0.01802-0.00012,0.02697
		c0,0.03564-0.01172,0.04785-0.17969,0.21582c-2.87793,2.44677-3.58594,6.896-3.58594,8.52734
		c-0.04514,1.00089,0.21436,1.99192,0.74414,2.84229c0.04187,0.04792,0.0708,0.10575,0.08401,0.168
		c0.00342,0.06289-0.04477,0.11666-0.10767,0.12009C295.35452,25.81029,295.35034,25.81029,295.34619,25.81006z"/>
	<path class="st4" d="M299.56982,22.94336c-0.55875,0.00555-1.01617-0.44289-1.02173-1.00163
		c-0.00024-0.02584,0.00049-0.05169,0.0022-0.07747c0.00504-0.13789,0.02533-0.27479,0.06055-0.4082l0.86328-3.4419h-0.95901
		c-0.19238,0-0.30078,0-0.30078-0.144c0-0.22754,0.13281-0.22754,0.33594-0.22754h1.01953l0.46875-1.90722
		c0.03217-0.23709,0.22791-0.4181,0.4668-0.43165c0.16556-0.01312,0.31039,0.11044,0.32352,0.27599
		c0.00092,0.01182,0.00116,0.02369,0.0007,0.03554c-0.00095,0.08617-0.01715,0.17148-0.04785,0.252l-0.44434,1.77539h0.95999
		c0.19238,0,0.2998,0,0.2998,0.14356c0,0.228-0.13184,0.228-0.33594,0.228h-1.01953l-0.88672,3.562
		c-0.05481,0.19935-0.08307,0.40506-0.08401,0.61181c0,0.1919,0,0.4917,0.32324,0.4917c0.68359,0,1.16309-0.89941,1.37988-1.4751
		c0.0957-0.21631,0.0957-0.228,0.23926-0.228c0.08401,0,0.17969,0,0.17969,0.12011
		C301.39313,21.15625,300.78174,22.94336,299.56982,22.94336z"/>
	<path class="st4" d="M303.99756,23.13526c-0.62088,1.08646-1.49789,2.0047-2.55469,2.6748
		c-0.05865,0.00721-0.11203-0.0345-0.11926-0.09315c-0.0011-0.00896-0.00104-0.01802,0.00012-0.02697
		c0-0.03613,0.01172-0.04785,0.17969-0.21582c2.87891-2.44677,3.58594-6.89648,3.58594-8.52734
		c0.04514-1.00088-0.21432-1.99192-0.74414-2.84228c-0.04187-0.04792-0.0708-0.10575-0.08401-0.168
		c-0.00351-0.06286,0.04462-0.11667,0.10748-0.12017c0.00452-0.00026,0.00906-0.00024,0.01361,0.00005
		c0.16699,0,0.68359,0.6958,0.98242,1.499c0.22144,0.665,0.33099,1.36213,0.32422,2.063
		C305.63333,19.41146,305.05051,21.39521,303.99756,23.13526z"/>
	<path class="st4" d="M318.55029,18.88965h-7.16019c-0.17969,0-0.40723,0-0.40723-0.23974s0.22754-0.23975,0.39551-0.23975h7.18359
		c0.168,0,0.39648,0,0.39648,0.23975S318.72998,18.88965,318.55029,18.88965z M318.56201,21.21631h-7.18359
		c-0.168,0-0.39551,0-0.39551-0.23974s0.22754-0.23975,0.40723-0.23975h7.16016c0.17969,0,0.4082,0,0.4082,0.23975
		S318.72998,21.21631,318.56201,21.21631z"/>
	<path class="st4" d="M333.82568,14.9917c-0.44336,0.03614-0.86328,0.168-1.34375,0.97168l-4.11328,6.88428
		c-0.13281,0.21582-0.19141,0.22754-0.33594,0.22754c-0.19141,0-0.2041-0.05957-0.22852-0.2876l-0.71875-7.38818
		c-0.02441-0.29981-0.04883-0.40772-0.64844-0.40772c-0.168,0-0.28711,0-0.28711-0.144c0-0.22754,0.15625-0.22754,0.21582-0.22754
		c0.39551,0,0.81543,0.03613,1.22363,0.03613c0.45508,0,0.93555-0.03613,1.37891-0.03613
		c0.07846-0.01323,0.15277,0.03963,0.16602,0.11808c0.00143,0.00856,0.00211,0.01724,0.00198,0.02592
		c0,0.22754-0.13281,0.22754-0.2998,0.22754c-0.12012,0-0.75586,0.01221-0.75586,0.37207l0.6123,6.28418l3.46484-5.79248
		c0.09305-0.14565,0.15457-0.30915,0.18066-0.48c0-0.2876-0.28809-0.37158-0.47949-0.38379
		c-0.0957-0.01172-0.19238-0.01172-0.19238-0.144c0-0.22754,0.14355-0.22754,0.21582-0.22754
		c0.34766,0,0.74414,0.03613,1.10352,0.03613c0.2998,0,0.62299-0.03613,0.91211-0.03613
		c0.07645,0.00166,0.14124,0.05669,0.15527,0.13184C334.05322,14.97998,333.92139,14.97998,333.82568,14.9917z"/>
	<path class="st4" d="M337.55612,26.88428c-0.28751,0.00661-0.52594-0.2211-0.53253-0.50861
		c-0.0004-0.01683,0.00003-0.03368,0.00128-0.05047c0.00403-0.15543,0.04202-0.30809,0.11133-0.44727
		c0.19974-0.4957,0.33624-1.0146,0.40625-1.54443c0-0.10449,0-0.46094-0.32227-0.46094
		c-0.44046,0.05537-0.81699,0.34364-0.98535,0.7544c-0.08615,0.15678-0.14526,0.32697-0.1748,0.50341
		c-0.03516,0.15381-0.07617,0.3003-0.11133,0.45411l-0.2793,1.11816c-0.03772,0.10732-0.13828,0.17979-0.25201,0.18164
		c-0.10068,0.00694-0.18793-0.06905-0.19489-0.16973c-0.00027-0.00396-0.00043-0.00793-0.00043-0.01191
		c0.00174-0.03342,0.00867-0.06636,0.02051-0.09766l0.4541-1.81689c0.03662-0.14894,0.05756-0.3013,0.0625-0.45459
		c0-0.10449,0-0.46094-0.32031-0.46094c-0.44058,0.05561-0.81729,0.34373-0.98633,0.7544
		c-0.08704,0.1563-0.14587,0.32671-0.17383,0.50341c-0.03516,0.15381-0.07813,0.3003-0.1123,0.45411l-0.28027,1.11816
		c-0.03732,0.10718-0.13754,0.17971-0.25101,0.18164c-0.1012,0.00698-0.18887-0.06938-0.19586-0.17057
		c-0.00024-0.00369-0.0004-0.00738-0.00043-0.01107c0.00269-0.03338,0.00992-0.06624,0.02148-0.09766l0.52441-2.09668
		c0.03012-0.1165,0.04651-0.23613,0.04883-0.35644c0-0.07666,0-0.2793-0.18164-0.2793c-0.2168,0-0.34961,0.34229-0.47559,0.83155
		c-0.03516,0.1538-0.04099,0.16064-0.13281,0.16064c-0.03516,0-0.10449,0-0.10449-0.06982
		c0.05215-0.24187,0.12704-0.47827,0.22363-0.70606c0.07779-0.2134,0.27603-0.35929,0.50293-0.37012
		c0.31027,0.00148,0.56656,0.24264,0.58691,0.55225c0.2244-0.33498,0.59698-0.54073,1-0.55225
		c0.36667-0.03748,0.69427,0.22937,0.73175,0.59603c0.00064,0.00623,0.00119,0.01247,0.00165,0.01872
		c0.22433-0.36742,0.61768-0.59819,1.04785-0.61475c0.36456-0.04062,0.69302,0.22199,0.73361,0.58654
		c0.00519,0.04652,0.00546,0.09346,0.00076,0.14003c-0.07233,0.53609-0.21548,1.0602-0.42578,1.55859
		c-0.06958,0.16705-0.11243,0.34402-0.12695,0.52441c0,0.09766,0.00781,0.20264,0.1543,0.20264
		c0.40527,0,0.59375-0.68506,0.65039-0.87353c0.02734-0.105,0.02734-0.11915,0.11816-0.11915c0.0498,0,0.10449,0,0.10449,0.06983
		C338.44287,25.84327,338.20557,26.88428,337.55612,26.88428z"/>
	<path class="st4" d="M344.66455,22.94336c-0.49194,0.01677-0.96912-0.16972-1.31934-0.51562
		c-0.08578,0.08682-0.16602,0.17896-0.24023,0.27588c-0.22754,0.228-0.23926,0.23974-0.29883,0.23974
		c-0.13281,0-0.13281-0.084-0.13281-0.28759v-1.5835c0-0.21582,0-0.29981,0.15625-0.29981c0.12012,0,0.13184,0.04834,0.168,0.20411
		c0.22754,1.01953,0.66016,1.70312,1.66699,1.70312c0.93555,0,1.35547-0.48,1.35547-1.09131
		c0-0.86377-0.9834-1.05566-1.24707-1.10351c-0.56821-0.0372-1.11566-0.22789-1.58401-0.55176
		c-0.32251-0.23997-0.51346-0.61755-0.51563-1.01953c0-0.67139,0.45599-1.4751,1.91992-1.4751
		c0.40222-0.01378,0.79794,0.10418,1.12695,0.33594c0.07349-0.05757,0.14148-0.12181,0.20313-0.1919
		c0.15625-0.144,0.17969-0.144,0.24023-0.144c0.13184,0,0.13184,0.084,0.13184,0.28809v1.21093c0,0.228,0,0.28809-0.15527,0.28809
		c0,0-0.13281,0-0.14453-0.10791c0.07263-0.72677-0.45767-1.37481-1.18442-1.44744
		c-0.07242-0.00724-0.14532-0.00848-0.21793-0.00373c-1.03223,0-1.34375,0.4917-1.34375,0.91113
		c0,0.6958,0.80273,0.85156,1.47461,0.98389c0.50439,0.04551,0.98215,0.24669,1.36719,0.57568
		c0.32053,0.29208,0.50342,0.70551,0.50391,1.13916C346.59521,22.13965,346.04443,22.94336,344.66455,22.94336z"/>
	<path class="st4" d="M348.72021,22.77539l-1.31836,0.03614v-0.37155c0.80273,0,0.93555,0,0.93555-0.54v-3.22615
		c0-0.58789-0.1084-0.65967-0.8877-0.65967v-0.37158l1.67871-0.13232v4.40185c0,0.46778,0.04883,0.52783,0.83984,0.52783v0.37159
		C349.56006,22.79932,349.14011,22.77539,348.72021,22.77539z M348.66162,16.20313
		c-0.34866-0.00622-0.62997-0.28709-0.63672-0.63574c-0.00323-0.35435,0.28137-0.64423,0.63574-0.64748
		c0.35434-0.00324,0.64423,0.28138,0.64746,0.63573s-0.28137,0.64423-0.63574,0.64748
		C348.66879,16.20315,348.66519,16.20316,348.66162,16.20313z"/>
	<path class="st4" d="M355.41553,22.77539l-1.35547,0.03614v-0.37155c0.80273,0,0.93555,0,0.93555-0.54v-2.79451
		c0-0.68359-0.13281-1.331-0.8877-1.331c-0.96487,0.06839-1.69159,0.90601-1.6232,1.87088
		c0.00113,0.01604,0.00247,0.03206,0.00406,0.04806v2.20655c0,0.54,0.13184,0.54,0.93555,0.54v0.37159l-1.34277-0.03614
		l-1.35547,0.03614v-0.37157c0.80273,0,0.93555,0,0.93555-0.54v-3.21443c0-0.5874-0.09668-0.67139-0.93555-0.67139v-0.37158
		l1.69043-0.13232v1.25927c0.26678-0.75233,0.97717-1.2562,1.77539-1.25927c0.46423-0.04259,0.92395,0.1195,1.25879,0.44385
		c0.37207,0.43164,0.37207,0.80371,0.37207,1.835v2.291c0.0127,0.35986,0.31152,0.35986,0.93555,0.35986v0.37159L355.41553,22.77539
		z"/>
	<path class="st4" d="M360.86377,25.81006c-0.82779-0.55579-1.47751-1.33878-1.87109-2.25488
		c-1.04327-2.3537-1.05637-5.03612-0.03613-7.3999c0.39142-0.95052,1.05493-1.7642,1.90723-2.33887
		c0.0593-0.00705,0.11307,0.0353,0.12012,0.09459c0.00101,0.00848,0.00101,0.01705,0,0.02553c0,0.03564,0,0.06006-0.15625,0.20361
		c-1.36887,1.56104-2.06342,3.60085-1.93164,5.67285c-0.11829,2.04386,0.55649,4.05455,1.88379,5.61328
		c0.2041,0.20362,0.2041,0.22754,0.2041,0.26367c0.00705,0.05929-0.03531,0.11307-0.0946,0.12011
		C360.88083,25.81107,360.87225,25.81107,360.86377,25.81006z"/>
	<path class="st4" d="M368.6499,19.94532c-0.35938,1.45117-1.11523,2.998-2.36328,2.998
		c-0.72031,0.0103-1.31946-0.55152-1.35547-1.271c-0.34531,0.71669-1.04172,1.1993-1.83401,1.271
		c-0.91211,0-1.25977-0.74365-1.25977-1.71484c0.00345-0.45351,0.06381-0.90479,0.17969-1.34326
		c0.18671-0.79092,0.52066-1.53963,0.98438-2.207c0.05258-0.06541,0.13098-0.10479,0.21484-0.10791
		c0.03775-0.00375,0.07571,0.00463,0.1084,0.02392c0.06284,0.03339,0.10388,0.09698,0.1084,0.168
		c-0.00397,0.05685-0.02509,0.11116-0.06055,0.15576c-0.47754,0.60433-0.83939,1.29163-1.06738,2.02735
		c-0.05972,0.25558-0.09183,0.51685-0.0957,0.77929c0,0.75586,0.31152,1.35547,1.04395,1.35547
		c0.70029-0.064,1.31744-0.48621,1.63086-1.11572c0.01212-0.3643,0.06421-0.72617,0.15527-1.0791
		c0.05957-0.26416,0.18066-0.564,0.4082-0.564c0.168,0,0.22754,0.13184,0.22754,0.312
		c-0.00491,0.1054-0.02097,0.20998-0.04785,0.312c-0.08386,0.36308-0.20459,0.71664-0.36035,1.05517
		c0.04663,0.61327,0.56076,1.08535,1.17578,1.07959c0.94727,0,1.64258-1.10351,1.91895-2.19482
		c0.03375-0.14548,0.0498-0.29451,0.04785-0.44385c0.00995-0.4015-0.15634-0.78724-0.45508-1.05566
		c-0.08414-0.07705-0.13226-0.18573-0.13281-0.29981c0.00668-0.14428,0.06653-0.28099,0.168-0.38379
		c0.11008-0.11561,0.26047-0.18433,0.41992-0.19189c0.10291-0.00278,0.20258,0.03613,0.27637,0.10791
		c0.18103,0.19837,0.26819,0.46493,0.23926,0.73193C368.89478,18.89059,368.8024,19.42584,368.6499,19.94532z"/>
	<path class="st4" d="M371.59229,22.94336c-0.55841,0.00588-1.01587-0.44204-1.02176-1.00047
		c-0.00027-0.02623,0.00046-0.05246,0.00223-0.07864c0.00485-0.13784,0.02481-0.27473,0.05957-0.4082l0.86328-3.4419h-0.95901
		c-0.19141,0-0.2998,0-0.2998-0.144c0-0.22754,0.13184-0.22754,0.33594-0.22754h1.01953l0.46777-1.90722
		c0.03265-0.23723,0.2287-0.41814,0.46777-0.43165c0.16516-0.01298,0.3096,0.1104,0.32257,0.27558
		c0.00095,0.01196,0.00116,0.02397,0.00067,0.03595c-0.00092,0.08608-0.01678,0.17134-0.04688,0.252l-0.44434,1.77539h0.95999
		c0.19141,0,0.29883,0,0.29883,0.14356c0,0.228-0.13086,0.228-0.33594,0.228h-1.01953l-0.88672,3.562
		c-0.05481,0.19935-0.08307,0.40506-0.08401,0.61181c0,0.1919,0,0.4917,0.32422,0.4917c0.68359,0,1.16211-0.89941,1.37891-1.4751
		c0.0957-0.21631,0.0957-0.228,0.24023-0.228c0.08401,0,0.17969,0,0.17969,0.12011
		C373.41553,21.15625,372.8042,22.94336,371.59229,22.94336z"/>
	<path class="st4" d="M385.67725,20.05323h-3.34668v3.35791c0,0.168,0,0.396-0.23926,0.396c-0.24023,0-0.24023-0.228-0.24023-0.396
		v-3.35791h-3.3584c-0.168,0-0.39551,0-0.39551-0.24024c0-0.23974,0.22754-0.23974,0.39551-0.23974h3.3584v-3.35791
		c0-0.168,0-0.396,0.24023-0.396c0.23926,0,0.23926,0.228,0.23926,0.396v3.35791h3.34668c0.168,0,0.39551,0,0.39551,0.23974
		C386.07275,20.05323,385.84521,20.05323,385.67725,20.05323z"/>
	<path class="st4" d="M393.95947,22.95557l-0.45605,1.78711c-0.03015,0.1632-0.07391,0.32359-0.13086,0.47949
		c-0.03018,0.03468-0.07535,0.05252-0.12109,0.04785c-0.05957,0-0.14355-0.01172-0.14355-0.13183
		c0-0.03614,0.12012-0.4917,0.26465-1.05518l0.27539-1.12744c-1.21851,0.05231-2.24869-0.89308-2.30099-2.11157
		c-0.00085-0.01977-0.00143-0.03955-0.00174-0.05933c0-1.63135,1.7627-3.22607,3.66992-3.28613l0.69531-2.77051
		c0.04883-0.2041,0.06055-0.23975,0.17969-0.23975c0.06912-0.01004,0.1333,0.03785,0.14334,0.10698
		c0.00061,0.00419,0.00101,0.00842,0.00119,0.01265l-0.03613,0.168l-0.67188,2.72266
		c1.21832-0.05247,2.2485,0.89263,2.30096,2.11094c0.00085,0.01998,0.00146,0.03996,0.00177,0.05996
		C397.62939,21.27637,395.89011,22.89551,393.95947,22.95557z M392.12448,21.03657
		c-0.05423,0.85812,0.59744,1.59773,1.45557,1.65196c0.04242,0.00268,0.08493,0.00362,0.12744,0.00283l1.23535-4.9292
		c-1.63461,0.2175-2.84665,1.62568-2.81833,3.27446L392.12448,21.03657z M395.25534,17.76216l-1.23633,4.9292
		c1.63733-0.21554,2.8541-1.62258,2.83112-3.27388c0.05707-0.85558-0.59024-1.59542-1.44583-1.6525
		c-0.04956-0.00331-0.09927-0.00423-0.14893-0.00277L395.25534,17.76216z"/>
	<path class="st4" d="M400.61963,23.47119c-0.39194,0.9502-1.05533,1.76374-1.90723,2.33887
		c-0.06216,0.00366-0.11554-0.04378-0.1192-0.10595c-0.00027-0.00472-0.00024-0.00945,0.00006-0.01417
		c0-0.03613,0-0.06005,0.15527-0.2041c1.36722-1.56192,2.06125-3.60117,1.93066-5.67285
		c0.13977-2.03844-0.52774-4.05007-1.8584-5.60058c-0.22754-0.21582-0.22754-0.24024-0.22754-0.27588
		c-0.0043-0.06199,0.04245-0.11575,0.10443-0.12006c0.00491-0.00034,0.00983-0.00036,0.01471-0.00006
		c0.82806,0.55549,1.47784,1.33857,1.87109,2.25488C401.62677,18.42499,401.63986,21.1074,400.61963,23.47119z"/>
</g>
<g>
	<polyline class="st3" points="76.099,9.457 76.099,80.501 76.099,155.50101 	"/>
	<polygon class="st4" points="71.646,17.733 72.963,18.211 76.099,9.594 79.235,18.211 80.551,17.733 76.099,5.501 	"/>
</g>
<g>
	<polyline class="st3" points="147.14301,80.501 76.099,80.501 1.099,80.501 	"/>
	<polygon class="st4" points="138.868,76.048 138.38901,77.365 147.006,80.501 138.38901,83.637 138.868,84.953 151.099,80.501 	"/>
</g>
<circle class="st1" cx="76.09912" cy="80.50098" r="50"/>
<g>
	<path class="st4" d="M148.42432,98.19141c-0.54718,0.0145-1.08206-0.16368-1.51125-0.50342
		c-0.49168-0.45604-0.49168-0.93555-0.49168-1.71533c0-0.80322,0-1.17529-0.45557-1.60693
		c-0.30161-0.28064-0.70374-0.42766-1.11523-0.40771h-1.37939v3.03418c0,0.43164,0.02393,0.564,0.94727,0.564h0.28809v0.37158
		c-0.43164-0.03613-1.2832-0.03613-1.75101-0.03613s-1.31934,0-1.75101,0.03613v-0.37158h0.2876
		c0.92334,0,0.94775-0.13232,0.94775-0.564v-6.32031c0-0.43213-0.02441-0.564-0.94775-0.564h-0.2876V89.7363h3.76563
		c1.76318,0,3.13037,1.00732,3.13037,2.15869c0,0.93555-0.93555,1.66699-2.09863,1.95508
		c0.69519,0.17987,1.24831,0.70584,1.46289,1.39111l0.15625,0.95947c0.16748,1.11523,0.26367,1.72705,0.85156,1.72705
		c0.2998,0,0.71922-0.21582,0.7915-1.06738c0.01172-0.084,0.01172-0.19189,0.14355-0.19189
		c0.15625,0,0.15625,0.13184,0.15625,0.20361C149.56396,97.20798,149.35986,98.19141,148.42432,98.19141z M144.44287,90.10791
		c-0.23627-0.00623-0.47269,0.00175-0.70799,0.02394c-0.26367,0.03613-0.26367,0.18018-0.26367,0.45604v3.106h1.33105
		c1.77539,0,2.063-0.97119,2.063-1.79883C146.86523,90.15625,145.52197,90.10791,144.44287,90.10791z"/>
	<path class="st4" d="M152.59131,98.05957c-1.49316-0.03761-2.67383-1.27727-2.63867-2.77049
		c-0.0641-1.44319,1.05162-2.66615,2.49461-2.73439c1.17473-0.01712,2.14091,0.9213,2.15804,2.09601
		c0.00125,0.08502-0.00261,0.17003-0.01155,0.25459c0,0.25195-0.03564,0.25195-0.2998,0.25195h-3.34619
		c-0.04253,0.62096,0.08171,1.242,0.35986,1.79883c0.28163,0.48506,0.79474,0.78931,1.35545,0.80371
		c0.75504-0.004,1.41586-0.50819,1.61916-1.23535c0.02393-0.09572,0.04785-0.168,0.15576-0.168
		c0.07631-0.00923,0.14565,0.04515,0.15488,0.12146c0.0009,0.00748,0.00121,0.01501,0.00089,0.02254
		C154.36707,97.42062,153.539,98.06538,152.59131,98.05957z M152.44731,92.81836c-0.40771,0-1.41553,0.29982-1.4873,2.08693h2.84229
		c-0.00005-0.46779-0.11967-2.08693-1.35503-2.08693H152.44731z"/>
</g>
<g>
	<path class="st4" d="M85.97705,8.56592c-0.45557,0-1.40332,0-1.82275,0.03613V8.23047h0.31152
		c0.94775,0,0.98389-0.13232,0.98389-0.564V1.34619c0-0.43212-0.03613-0.564-0.98389-0.564H84.1543V0.41061
		c0.41943,0.03564,1.36719,0.03564,1.83501,0.03564c0.45557,0,1.40332,0,1.82275-0.03564v0.37158h-0.31152
		c-0.94775,0-0.9834,0.13184-0.9834,0.564v6.32032c0,0.43164,0.03564,0.564,0.9834,0.564h0.31152v0.37158
		C87.39258,8.56592,86.44482,8.56592,85.97705,8.56592z"/>
	<path class="st4" d="M96.55762,8.56592l-1.355,0.03613V8.23047c0.80322,0,0.93555,0,0.93555-0.54V4.89598
		c0-0.68359-0.13232-1.33106-0.8877-1.33106c-0.96487,0.0684-1.6916,0.90603-1.62321,1.8709
		c0.00114,0.01604,0.0025,0.03205,0.00407,0.04805v2.20654c0,0.54,0.13184,0.54,0.93555,0.54v0.37158l-1.34326-0.03613
		l-1.35547,0.03613V8.23041c0.80371,0,0.93555,0,0.93555-0.54V4.89598c0-0.68359-0.13184-1.33106-0.88721-1.33106
		c-0.96487,0.0684-1.6916,0.90603-1.62321,1.8709c0.00114,0.01604,0.0025,0.03205,0.00407,0.04805v2.20654
		c0,0.54,0.13184,0.54,0.93555,0.54v0.37158l-1.34326-0.03613l-1.35547,0.03613V8.23041c0.80371,0,0.93555,0,0.93555-0.54V4.47657
		c0-0.58789-0.09621-0.67188-0.93555-0.67188V3.43311l1.69092-0.13233v1.25928c0.26678-0.75234,0.97716-1.25621,1.77539-1.25928
		c0.76239-0.10504,1.46965,0.41644,1.59473,1.17579c0.29059-0.70601,0.97581-1.16925,1.73926-1.17579
		c0.46439-0.04267,0.92427,0.11942,1.25928,0.44385c0.37158,0.43164,0.37158,0.80371,0.37158,1.835v2.291
		c0.01221,0.35986,0.312,0.35986,0.93555,0.35986v0.37158L96.55762,8.56592z"/>
</g>
<path class="st6" d="M76.59912,80.00098"/>
<g>
	<path class="st4" d="M137.64453,69.80176c-0.45605,0-1.29541,0-1.72701,0.03613v-0.37158c0.32373,0,0.99512,0,0.99512-0.35986
		c-0.0062-0.05705-0.01813-0.11334-0.03564-0.168l-0.63574-1.83499h-2.9624l-0.55176,1.5708
		c-0.01472,0.05896-0.02275,0.11942-0.02393,0.18018c0,0.31152,0.2998,0.61182,0.89941,0.61182v0.37158l-1.37939-0.03613
		l-1.22314,0.03613v-0.37158c0.5811,0.08159,1.14044-0.25308,1.34326-0.80371l2.48242-7.17237
		c0.06006-0.16748,0.09619-0.23975,0.28809-0.23975s0.21582,0.084,0.27588,0.23975l2.59033,7.49608
		c0.13232,0.39601,0.2998,0.48001,1.01953,0.48001h0.21582v0.37158L137.64453,69.80176z M134.75391,62.83398l-1.34328,3.89746
		h2.69873L134.75391,62.83398z"/>
	<path class="st4" d="M142.07471,69.96973c-0.79922,0.05861-1.49463-0.54178-1.55322-1.341
		c-0.00681-0.0927-0.00467-0.18584,0.00635-0.27814v-3.31006h-1.01953v-0.26367c1.17529-0.04834,1.53516-1.33154,1.54688-2.31494
		h0.2998v2.207h1.71533v0.37158h-1.71533v3.334c0,0.2041,0,1.29541,0.80371,1.29541c0.44385,0,0.80371-0.45557,0.80371-1.34326
		v-0.65967h0.2998v0.68359C143.26221,69.11816,142.92627,69.96973,142.07471,69.96973z"/>
	<path class="st4" d="M150.39113,69.96973c-0.55843,0.00589-1.01588-0.44203-1.02176-1.00046
		c-0.00027-0.02623,0.00046-0.05246,0.00223-0.07864c0.00468-0.13788,0.02483-0.27481,0.06006-0.4082l0.86328-3.44189h-0.95947
		c-0.19189,0-0.2998,0-0.2998-0.144c0-0.22754,0.13184-0.22754,0.33594-0.22754h1.01953l0.46777-1.90723
		c0.03264-0.23723,0.22868-0.41814,0.46777-0.43164c0.16548-0.01293,0.31012,0.11073,0.32306,0.27622
		c0.00092,0.01174,0.00114,0.02354,0.00067,0.03531c-0.00096,0.08615-0.01715,0.17145-0.04785,0.25195l-0.44385,1.77539h0.95947
		c0.19189,0,0.2998,0,0.2998,0.14355c0,0.228-0.13184,0.228-0.33594,0.228h-1.01953l-0.88721,3.562
		c-0.05481,0.19934-0.08305,0.40506-0.084,0.61182c0,0.19188,0,0.4917,0.32373,0.4917c0.68359,0,1.16309-0.89943,1.37939-1.4751
		c0.0957-0.21631,0.0957-0.228,0.23975-0.228c0.084,0,0.17969,0,0.17969,0.12012
		C152.21387,68.18262,151.60254,69.96973,150.39113,69.96973z"/>
	<path class="st4" d="M164.16357,65.91599h-7.15965c-0.18018,0-0.40771,0-0.40771-0.23976
		c0-0.23975,0.22754-0.23973,0.39551-0.23973h7.18408c0.168,0,0.396,0,0.396,0.23973
		C164.57179,65.91597,164.34375,65.91599,164.16357,65.91599z M164.17578,68.24265h-7.18408c-0.168,0-0.39551,0-0.39551-0.23976
		c0-0.23975,0.22754-0.23973,0.40771-0.23973h7.15965c0.18018,0,0.4082,0,0.4082,0.23973c0,0.23975-0.22801,0.23979-0.39598,0.23979
		V68.24265z"/>
	<path class="st4" d="M174.32959,68.71045c-0.47025,1.14581-1.78033,1.69348-2.92615,1.22322
		c-0.49147-0.20169-0.89539-0.57132-1.13977-1.04303c-0.41377-0.90486-0.59904-1.89746-0.53955-2.89066
		c-0.05127-0.929,0.10019-1.85803,0.44385-2.72265c0.32523-0.8681,1.15997-1.43898,2.08691-1.42725
		c0.88652,0.0014,1.68753,0.5292,2.03857,1.34326c0.62735,1.78347,0.64008,3.72556,0.03613,5.51709V68.71045z M173.65771,63.51758
		c-0.22754-1.1875-1.019-1.40332-1.41499-1.40332c-0.2998,0-1.1992,0.10791-1.42725,1.53516
		c-0.08231,0.73246-0.11427,1.46971-0.0957,2.20654c-0.02155,0.84573,0.02254,1.69185,0.13184,2.53076
		c0.21582,1.15137,0.92334,1.45117,1.39111,1.45117c0.53957,0,1.22314-0.35986,1.40334-1.49899
		c0.11319-0.82251,0.15729-1.65305,0.13184-2.48291C173.79999,65.07455,173.7598,64.29262,173.65771,63.51758z"/>
</g>
<path class="st1" d="M222.3952,57.50098"/>
<line class="st6" x1="222.09912" y1="57.50098" x2="121.09912" y2="57.50098"/>
<polyline class="st6" points="48.474,39.237 283.099,39.237 283.099,79.501 "/>
<g>
	<path class="st4" d="M281.61279,92.89111c-0.55875,0.00555-1.01617-0.4429-1.02173-1.00165
		c-0.00024-0.02583,0.00049-0.05167,0.0022-0.07745c0.00504-0.13789,0.02533-0.2748,0.06055-0.4082l0.86328-3.44189h-0.95901
		c-0.19238,0-0.2998,0-0.2998-0.144c0-0.22752,0.13184-0.22752,0.33499-0.22752h1.01953l0.46777-1.90723
		c0.03262-0.23723,0.2287-0.41815,0.46777-0.43164c0.16562-0.01306,0.31046,0.11061,0.32352,0.27621
		c0.00095,0.0119,0.00119,0.02385,0.0007,0.03578c-0.00101,0.08598-0.01721,0.17111-0.04785,0.25145l-0.44434,1.77541h0.95999
		c0.19141,0,0.2998,0,0.2998,0.14354c0,0.228-0.13184,0.228-0.33594,0.228h-1.01953l-0.8877,3.562
		c-0.05481,0.19936-0.08307,0.40508-0.08401,0.61182c0,0.19189,0,0.4917,0.32422,0.4917c0.68359,0,1.16309-0.89941,1.37891-1.4751
		c0.09668-0.21582,0.09668-0.228,0.24023-0.228c0.08401,0,0.17969,0,0.17969,0.12012
		C283.43604,91.10397,282.82471,92.89111,281.61279,92.89111z"/>
	<path class="st4" d="M284.90381,96.90918c-0.93652,0-0.93652-0.97168-0.93652-1.188
		c0.05508-0.86487,0.27347-1.71149,0.64355-2.4951c0.24146-0.62489,0.81467-1.06018,1.48145-1.125
		c0.90137,0,0.93652,0.90869,0.93652,1.188c-0.05637,0.79842-0.24307,1.58223-0.55273,2.32031
		C286.02197,96.62256,285.36572,96.90918,284.90381,96.90918z M286.59521,92.91162c0-0.44725-0.25195-0.65672-0.53809-0.65672
		c-0.39667,0.04095-0.73557,0.30376-0.87399,0.67772c-0.37848,1.01212-0.63644,2.06526-0.76855,3.13771
		c0,0.54541,0.30078,0.68504,0.52441,0.68504c0.38907-0.06021,0.71796-0.32031,0.86621-0.68504
		C286.19223,95.05228,286.4574,93.992,286.59521,92.91162z"/>
</g>
<g>
	<path class="st4" d="M6.64453,31.80176c-0.456,0-1.29541,0-1.727,0.03613v-0.37158c0.32373,0,0.99512,0,0.99512-0.35986
		c-0.00619-0.05706-0.01814-0.11334-0.03565-0.168l-0.63574-1.835h-2.9624l-0.55176,1.5708
		c-0.01473,0.05897-0.02275,0.11941-0.02393,0.18018c0,0.31152,0.29981,0.61181,0.89942,0.61181v0.37158l-1.3794-0.03613
		l-1.22314,0.03613v-0.37158c0.5811,0.0816,1.14044-0.25307,1.34326-0.80371l2.48242-7.17236
		c0.06006-0.16748,0.09619-0.23975,0.28809-0.23975s0.21582,0.084,0.27588,0.23975l2.59033,7.49609
		c0.13232,0.396,0.2998,0.48,1.01953,0.48h0.21582v0.37158L6.64453,31.80176z M3.75391,24.83398l-1.34327,3.89746h2.69873
		L3.75391,24.83398z"/>
	<path class="st4" d="M11.07471,31.96973c-0.79922,0.05861-1.49462-0.54178-1.55323-1.341
		c-0.0068-0.0927-0.00467-0.18584,0.00635-0.27814v-3.31006H8.5083v-0.26367c1.17529-0.04834,1.53516-1.33154,1.54687-2.31494
		h0.29981v2.207h1.71533v0.37158h-1.71533v3.334c0,0.2041,0,1.29541,0.80371,1.29541c0.44385,0,0.80371-0.45557,0.80371-1.34327
		v-0.65966h0.29981v0.68359C12.26221,31.11817,11.92627,31.96973,11.07471,31.96973z"/>
	<path class="st4" d="M19.39112,31.96973c-0.55843,0.00588-1.01588-0.44204-1.02177-1.00047
		c-0.00027-0.02623,0.00047-0.05246,0.00224-0.07864c0.00468-0.13789,0.02483-0.27481,0.06006-0.4082l0.86328-3.4419h-0.95947
		c-0.1919,0-0.29981,0-0.29981-0.144c0-0.22754,0.13184-0.22754,0.33594-0.22754h1.01954l0.46778-1.90723
		c0.03264-0.23723,0.22869-0.41814,0.46777-0.43164c0.16548-0.01293,0.31012,0.11074,0.32305,0.27622
		c0.00092,0.01175,0.00114,0.02354,0.00068,0.03531c-0.00095,0.08617-0.01715,0.17148-0.04785,0.252l-0.44386,1.77533h0.95943
		c0.1919,0,0.29981,0,0.29981,0.14355c0,0.228-0.13184,0.228-0.33594,0.228H20.0625l-0.88721,3.562
		c-0.05482,0.19935-0.08306,0.40507-0.084,0.61182c0,0.19189,0,0.4917,0.32373,0.4917c0.68359,0,1.16308-0.89942,1.37939-1.4751
		c0.09571-0.21631,0.09571-0.228,0.23975-0.228c0.084,0,0.17969,0,0.17969,0.12012
		C21.21387,30.18262,20.60254,31.96973,19.39112,31.96973z"/>
	<path class="st4" d="M33.16357,27.91598h-7.15966c-0.18018,0-0.40772,0-0.40772-0.23975s0.22754-0.23974,0.39551-0.23974h7.18408
		c0.168,0,0.396,0,0.396,0.23974S33.34375,27.91598,33.16357,27.91598z M33.17578,30.24264H25.9917
		c-0.168,0-0.39551,0-0.39551-0.23975s0.22754-0.23974,0.40772-0.23974h7.15966c0.18018,0,0.40821,0,0.40821,0.23974
		s-0.22803,0.23979-0.396,0.23979V30.24264z"/>
	<path class="st4" d="M40.70312,31.96973c-0.55858,0.00571-1.01603-0.44247-1.02174-1.00105
		c-0.00027-0.02604,0.00047-0.05207,0.00221-0.07805c0.00468-0.13789,0.02483-0.27481,0.06006-0.4082l0.86328-3.4419h-0.95947
		c-0.19189,0-0.2998,0-0.2998-0.144c0-0.22754,0.13183-0.22754,0.33593-0.22754h1.01953l0.46778-1.90723
		c0.03264-0.23723,0.22869-0.41814,0.46777-0.43164c0.16548-0.01293,0.31012,0.11074,0.32305,0.27622
		c0.00092,0.01175,0.00114,0.02354,0.00068,0.03531c-0.00095,0.08617-0.01715,0.17148-0.04785,0.252l-0.44385,1.77533h0.95947
		c0.1919,0,0.29981,0,0.29981,0.14355c0,0.228-0.13184,0.228-0.33594,0.228h-1.01954l-0.88721,3.562
		c-0.05482,0.19935-0.08306,0.40507-0.084,0.61182c0,0.19189,0,0.4917,0.32373,0.4917c0.68359,0,1.16309-0.89942,1.37939-1.4751
		c0.09571-0.21631,0.09571-0.228,0.23975-0.228c0.084,0,0.17969,0,0.17969,0.12012
		C42.52588,30.18262,41.91455,31.96973,40.70312,31.96973z"/>
	<path class="st4" d="M43.99412,35.9878c-0.936,0-0.936-0.97168-0.936-1.188c0.05498-0.86478,0.273-1.71136,0.64258-2.49512
		c0.24157-0.62481,0.81473-1.06006,1.48145-1.125c0.90137,0,0.93652,0.9082,0.93652,1.188
		c-0.05646,0.7983-0.24283,1.58204-0.55176,2.32031C45.11279,35.70118,44.45557,35.9878,43.99412,35.9878z M45.686,31.99024
		c0-0.44727-0.252-0.65674-0.53808-0.65674c-0.39676,0.04071-0.73579,0.3036-0.874,0.67773
		c-0.37869,1.01204-0.63666,2.06521-0.76855,3.1377c0,0.54541,0.30029,0.68506,0.52393,0.68506
		c0.38914-0.06033,0.71812-0.32037,0.8667-0.68506c0.38702-1.01805,0.6522-2.07832,0.79002-3.15869H45.686z"/>
</g>
<path class="st4" d="M105.89795,75.85791l-0.45605,1.78711c-0.02988,0.16338-0.07399,0.32382-0.13184,0.47951
	c-0.02939,0.03462-0.07396,0.05252-0.11914,0.04785c-0.06055,0-0.14453-0.01172-0.14453-0.13185
	c0-0.03613,0.12012-0.4917,0.26367-1.05516l0.27637-1.12746c-1.21812,0.05266-2.24831-0.89217-2.30095-2.11029
	c-0.00087-0.02019-0.00146-0.04039-0.00179-0.06059c0-1.63135,1.7627-3.22609,3.66992-3.28615l0.69531-2.77051
	c0.04787-0.2041,0.06055-0.23973,0.17969-0.23973c0.06912-0.01004,0.1333,0.03784,0.14334,0.10696
	c0.00061,0.0042,0.00101,0.00842,0.00119,0.01266l-0.03613,0.168l-0.67189,2.72261c1.21832-0.05247,2.24849,0.89262,2.30096,2.11095
	c0.00087,0.01997,0.00145,0.03996,0.00177,0.05995C109.56787,74.17871,107.82861,75.79787,105.89795,75.85791z M104.06294,73.93898
	c-0.05423,0.85811,0.59744,1.59772,1.45557,1.65195c0.04242,0.00269,0.08493,0.00363,0.12743,0.00282l1.23535-4.9292
	c-1.6346,0.21751-2.84659,1.62567-2.8183,3.27443H104.06294z M107.19283,70.66455l-1.23438,4.9292
	c1.63713-0.21565,2.85352-1.6228,2.83006-3.27391c0.05698-0.85571-0.59053-1.59558-1.44623-1.65256
	c-0.04973-0.00331-0.09959-0.00423-0.14941-0.00273H107.19283z"/>
<g>
	<path class="st4" d="M94.87842,54.99219c-0.44385,0.03613-0.86377,0.168-1.34326,0.97168l-4.11377,6.88428
		c-0.13232,0.21582-0.19189,0.22754-0.33594,0.22754c-0.19189,0-0.2041-0.05957-0.228-0.2876l-0.71973-7.38818
		c-0.02393-0.29981-0.04785-0.40772-0.64746-0.40772c-0.168,0-0.28758,0-0.28758-0.14355c0-0.228,0.15576-0.228,0.21582-0.228
		c0.39549,0,0.81543,0.03564,1.22314,0.03564c0.45557,0,0.93555-0.03564,1.37939-0.03564
		c0.07832-0.01334,0.15263,0.03935,0.16597,0.11768c0.00148,0.00869,0.00217,0.0175,0.00203,0.02631
		c0,0.22754-0.13232,0.22754-0.2998,0.22754c-0.12012,0-0.75586,0.01221-0.75586,0.37207l0.61182,6.28418l3.46582-5.79248
		c0.09267-0.14579,0.15402-0.30925,0.18018-0.48c0-0.2876-0.28809-0.37158-0.48-0.38379
		c-0.0957-0.01172-0.19189-0.01172-0.19189-0.14355c0-0.228,0.144-0.228,0.21582-0.228c0.34814,0,0.74365,0.03564,1.10352,0.03564
		c0.2998,0,0.62354-0.03564,0.91162-0.03564c0.07668,0.00127,0.14183,0.05641,0.15578,0.13183
		C95.10596,54.98047,94.97412,54.98047,94.87842,54.99219z"/>
	<path class="st4" d="M98.6084,66.88477c-0.28746,0.00641-0.52567-0.22144-0.53206-0.5089
		c-0.00038-0.01674,0.00006-0.03348,0.0013-0.05019c0.00375-0.15552,0.04195-0.30827,0.11182-0.44727
		c0.1994-0.49576,0.33556-1.01465,0.40527-1.54443c0-0.10449,0-0.46094-0.32178-0.46094
		c-0.44049,0.05566-0.81694,0.34406-0.98535,0.75489c-0.0867,0.15633-0.14568,0.32648-0.17432,0.50293
		c-0.03516,0.15381-0.07715,0.30029-0.11182,0.4541l-0.27979,1.11816c-0.03751,0.10724-0.13788,0.17973-0.25146,0.18164
		c-0.10094,0.00696-0.18842-0.06921-0.19537-0.17015c-0.00026-0.00383-0.0004-0.00766-0.00043-0.01149
		c0.0022-0.0334,0.00928-0.0663,0.021-0.09766l0.4541-1.81688c0.03709-0.14886,0.05823-0.30125,0.063-0.45459
		c0-0.10449,0-0.46094-0.32129-0.46094c-0.44055,0.05552-0.81706,0.34397-0.98535,0.75489
		c-0.08716,0.15616-0.14632,0.32637-0.1748,0.50293c-0.03516,0.15381-0.07713,0.30029-0.11182,0.4541l-0.27979,1.11816
		c-0.03751,0.10724-0.13788,0.17973-0.25146,0.18164c-0.10094,0.00696-0.18842-0.06921-0.19537-0.17015
		c-0.00026-0.00383-0.0004-0.00766-0.00043-0.01149c0.00246-0.03336,0.00952-0.06622,0.021-0.09766l0.52441-2.09668
		c0.02988-0.11655,0.04625-0.23615,0.04881-0.35643c0-0.07666,0-0.2793-0.18164-0.2793c-0.2168,0-0.34961,0.34229-0.47508,0.83155
		c-0.03516,0.15381-0.04201,0.16064-0.13281,0.16064c-0.03516,0-0.105,0-0.105-0.06982
		c0.05215-0.24187,0.12703-0.47827,0.22363-0.70605c0.0778-0.2134,0.27605-0.35929,0.50293-0.37011
		c0.31032,0.00157,0.56671,0.24262,0.5874,0.55226c0.224-0.33492,0.59624-0.5407,0.99899-0.55226
		c0.3669-0.03753,0.69473,0.22948,0.73227,0.59637c0.00063,0.00612,0.00116,0.01225,0.00162,0.01839
		c0.22435-0.36764,0.61795-0.59845,1.04834-0.61476c0.36449-0.04045,0.69273,0.22223,0.73318,0.58671
		c0.00516,0.04646,0.00539,0.09334,0.0007,0.13985c-0.07202,0.53621-0.21538,1.06038-0.42627,1.55861
		c-0.06902,0.16701-0.11153,0.34378-0.12601,0.52391c0,0.09816,0.00732,0.20314,0.15381,0.20314
		c0.40527,0,0.59424-0.68506,0.6499-0.87401c0.02783-0.10449,0.02783-0.11865,0.11865-0.11865c0.04932,0,0.105,0,0.105,0.06982
		C99.49612,65.84375,99.2583,66.88477,98.6084,66.88477z"/>
</g>
<g>
	<path class="st4" d="M212.1413,24.74123c-0.44434,0.03613-0.86426,0.168-1.34375,0.97168l-4.11328,6.88428
		c-0.13281,0.21582-0.19238,0.22752-0.33594,0.22752c-0.19238,0-0.20508-0.05957-0.22852-0.28758l-0.71973-7.38818
		c-0.02441-0.2998-0.04785-0.40771-0.64746-0.40771c-0.168,0-0.28711,0-0.28711-0.14355c0-0.228,0.15527-0.228,0.21484-0.228
		c0.39648,0,0.81641,0.03564,1.22363,0.03564c0.45605,0,0.93555-0.03564,1.37988-0.03564
		c0.07846-0.01323,0.15277,0.03963,0.16602,0.11809c0.00143,0.00856,0.00211,0.01723,0.00198,0.02591
		c0,0.22754-0.13281,0.22754-0.30078,0.22754c-0.11914,0-0.75586,0.01221-0.75586,0.37207l0.6123,6.28418l3.46582-5.79248
		c0.09268-0.14572,0.1539-0.30922,0.17969-0.48c0-0.2876-0.28711-0.37158-0.47949-0.38379
		c-0.0957-0.01172-0.19238-0.01172-0.19238-0.14355c0-0.228,0.14453-0.228,0.2168-0.228c0.34766,0,0.74316,0.03564,1.10352,0.03564
		c0.29883,0,0.62299-0.03564,0.91113-0.03564c0.0766,0.00122,0.14166,0.05644,0.15527,0.13184
		C212.36786,24.72951,212.237,24.72951,212.1413,24.74123z"/>
	<path class="st4" d="M215.87079,36.63384c-0.28741,0.0062-0.52542-0.22179-0.53159-0.50919
		c-0.00037-0.01665,0.00006-0.03331,0.00131-0.04991c0.00354-0.15549,0.04156-0.30826,0.11133-0.44727
		c0.1994-0.49576,0.33557-1.01465,0.40527-1.54443c0-0.10451,0-0.46094-0.32129-0.46094
		c-0.44073,0.05562-0.8175,0.34398-0.98633,0.75488c-0.08624,0.15648-0.14505,0.32658-0.17383,0.50293
		c-0.03516,0.15381-0.07715,0.30029-0.11133,0.4541l-0.28027,1.11816c-0.03732,0.10718-0.13754,0.1797-0.25101,0.18164
		c-0.10083,0.00731-0.18851-0.0685-0.1958-0.16933c-0.00031-0.0041-0.00046-0.00821-0.00049-0.01231
		c0.00223-0.03336,0.00912-0.06622,0.02051-0.09766l0.45508-1.81689c0.03662-0.14894,0.05756-0.3013,0.0625-0.45459
		c0-0.10451,0-0.46094-0.32129-0.46094c-0.44049,0.05566-0.81696,0.34407-0.98535,0.75488
		c-0.08716,0.15616-0.14633,0.32637-0.1748,0.50293c-0.03516,0.15381-0.07715,0.30029-0.1123,0.4541l-0.2793,1.11816
		c-0.03772,0.1073-0.13824,0.17976-0.25195,0.18164c-0.10104,0.00661-0.18832-0.06996-0.19492-0.17101
		c-0.00024-0.00354-0.00037-0.0071-0.0004-0.01064c0.00269-0.03339,0.00989-0.06624,0.02148-0.09766l0.52347-2.09669
		c0.03012-0.1165,0.04651-0.23613,0.04883-0.35645c0-0.07666,0-0.2793-0.18164-0.2793c-0.2168,0-0.34961,0.34229-0.47461,0.83154
		c-0.03516,0.15381-0.04199,0.16064-0.13281,0.16064c-0.03516,0-0.10547,0-0.10547-0.06982
		c0.0527-0.24184,0.1279-0.47823,0.22461-0.70605c0.07739-0.21332,0.27536-0.35927,0.50201-0.37012
		c0.31049,0.00137,0.56714,0.24245,0.58789,0.55225c0.224-0.33492,0.59625-0.5407,0.99899-0.55225
		c0.36636-0.03773,0.69394,0.22867,0.73166,0.59502c0.00067,0.00658,0.00125,0.01315,0.00174,0.01973
		c0.22476-0.36748,0.61838-0.59819,1.04883-0.61475c0.36481-0.04037,0.69327,0.22263,0.73364,0.58742
		c0.0051,0.04623,0.00534,0.09286,0.00073,0.13914c-0.07217,0.53622-0.2157,1.06039-0.42676,1.55859
		c-0.06879,0.1671-0.1113,0.34383-0.12601,0.52393c0,0.09814,0.00781,0.20313,0.1543,0.20313
		c0.4043,0,0.59375-0.68506,0.64941-0.87399c0.02832-0.10449,0.02832-0.11865,0.11816-0.11865c0.0498,0,0.10547,0,0.10547,0.06982
		C216.75848,35.59284,216.5202,36.63384,215.87079,36.63384z"/>
</g>
</svg>
