<?xml version="1.0" encoding="utf-8"?>
<!-- Generator: Adobe Illustrator 23.0.3, SVG Export Plug-In . SVG Version: 6.00 Build 0)  -->
<svg version="1.1" id="Layer_1" xmlns="http://www.w3.org/2000/svg" xmlns:xlink="http://www.w3.org/1999/xlink" x="0px" y="0px"
	 viewBox="0 0 162.93896 163.2666" style="enable-background:new 0 0 162.93896 163.2666;" xml:space="preserve">
<style type="text/css">
	.st0{fill:#8FF4DD;}
	.st1{fill:none;stroke:#8FF4DD;stroke-width:2;stroke-miterlimit:10;}
	.st2{fill:none;stroke:#8FF4DD;stroke-width:2;stroke-linecap:square;stroke-miterlimit:10;stroke-dasharray:5,8;}
	.st3{fill:none;stroke:#FD1D53;stroke-width:2;stroke-linecap:round;stroke-miterlimit:10;}
	.st4{fill:#FD1D53;}
	.st5{fill:#FF6C11;}
</style>
<g>
	<path class="st0" d="M21.12305,10.56592c-0.45557,0-1.40332,0-1.82275,0.03613v-0.37158h0.31152
		c0.94775,0,0.98389-0.13232,0.98389-0.564V3.34619c0-0.43212-0.03613-0.564-0.98389-0.564h-0.31152V2.41061
		c0.41943,0.03564,1.36719,0.03564,1.83501,0.03564c0.45557,0,1.40332,0,1.82275-0.03564v0.37158h-0.31152
		c-0.94775,0-0.9834,0.13184-0.9834,0.564v6.32032c0,0.43164,0.03564,0.564,0.9834,0.564h0.31152v0.37158
		C22.53857,10.56592,21.59082,10.56592,21.12305,10.56592z"/>
	<path class="st0" d="M31.70361,10.56592l-1.355,0.03613v-0.37158c0.80322,0,0.93555,0,0.93555-0.54V6.89598
		c0-0.68359-0.13232-1.33106-0.8877-1.33106c-0.96487,0.0684-1.6916,0.90603-1.62321,1.8709
		c0.00114,0.01604,0.0025,0.03205,0.00407,0.04805v2.20654c0,0.54,0.13184,0.54,0.93555,0.54v0.37158l-1.34326-0.03613
		l-1.35547,0.03613v-0.37158c0.80371,0,0.93555,0,0.93555-0.54V6.89598c0-0.68359-0.13184-1.33106-0.88721-1.33106
		c-0.96487,0.0684-1.6916,0.90603-1.62321,1.8709c0.00114,0.01604,0.0025,0.03205,0.00407,0.04805v2.20654
		c0,0.54,0.13184,0.54,0.93555,0.54v0.37158l-1.34326-0.03613l-1.35547,0.03613v-0.37158c0.80371,0,0.93555,0,0.93555-0.54V6.47657
		c0-0.58789-0.09621-0.67188-0.93555-0.67188V5.43311l1.69092-0.13233v1.25928c0.26678-0.75234,0.97716-1.25621,1.77539-1.25928
		c0.76239-0.10504,1.46965,0.41644,1.59473,1.17579c0.29059-0.70601,0.97581-1.16925,1.73926-1.17579
		c0.46439-0.04267,0.92427,0.11942,1.25928,0.44385c0.37158,0.43164,0.37158,0.80371,0.37158,1.835v2.291
		c0.01221,0.35986,0.312,0.35986,0.93555,0.35986v0.37158L31.70361,10.56592z"/>
</g>
<g>
	<path class="st0" d="M153.57031,139.19141c-0.54718,0.0145-1.08206-0.16368-1.51125-0.50342
		c-0.49168-0.45604-0.49168-0.93555-0.49168-1.71533c0-0.80322,0-1.17529-0.45557-1.60693
		c-0.30161-0.28064-0.70374-0.42766-1.11523-0.40771h-1.37939v3.03418c0,0.43164,0.02393,0.564,0.94727,0.564h0.28809v0.37158
		c-0.43164-0.03613-1.2832-0.03613-1.75101-0.03613s-1.31934,0-1.75101,0.03613v-0.37158h0.2876
		c0.92334,0,0.94775-0.13232,0.94775-0.564v-6.32031c0-0.43213-0.02441-0.564-0.94775-0.564h-0.2876v-0.37158h3.76563
		c1.76318,0,3.13037,1.00732,3.13037,2.15869c0,0.93555-0.93555,1.66699-2.09863,1.95508
		c0.69519,0.17987,1.24831,0.70584,1.46289,1.39111l0.15625,0.95947c0.16748,1.11523,0.26367,1.72705,0.85156,1.72705
		c0.2998,0,0.71922-0.21582,0.7915-1.06738c0.01172-0.084,0.01172-0.19189,0.14355-0.19189
		c0.15625,0,0.15625,0.13184,0.15625,0.20361C154.70996,138.20798,154.50586,139.19141,153.57031,139.19141z M149.58887,131.10791
		c-0.23627-0.00623-0.47269,0.00175-0.70799,0.02394c-0.26367,0.03613-0.26367,0.18018-0.26367,0.45604v3.106h1.33105
		c1.77539,0,2.063-0.97119,2.063-1.79883C152.01123,131.15625,150.66797,131.10791,149.58887,131.10791z"/>
	<path class="st0" d="M157.7373,139.05957c-1.49316-0.03761-2.67383-1.27727-2.63867-2.77049
		c-0.0641-1.44319,1.05162-2.66615,2.49461-2.73439c1.17473-0.01712,2.14091,0.9213,2.15804,2.09601
		c0.00125,0.08502-0.00261,0.17003-0.01155,0.25459c0,0.25195-0.03564,0.25195-0.2998,0.25195h-3.34619
		c-0.04253,0.62096,0.08171,1.242,0.35986,1.79883c0.28163,0.48506,0.79474,0.78931,1.35545,0.80371
		c0.75504-0.004,1.41586-0.50819,1.61916-1.23535c0.02393-0.09572,0.04785-0.168,0.15576-0.168
		c0.07631-0.00923,0.14565,0.04515,0.15488,0.12146c0.0009,0.00748,0.00121,0.01501,0.00089,0.02254
		C159.51306,138.42062,158.685,139.06538,157.7373,139.05957z M157.59331,133.81836c-0.40771,0-1.41553,0.29982-1.4873,2.08693
		h2.84229c-0.00005-0.46779-0.11967-2.08693-1.35503-2.08693H157.59331z"/>
</g>
<path class="st0" d="M33.38075,143.55965l-0.51481,2.01735c-0.03373,0.18442-0.08352,0.36554-0.14882,0.54128
	c-0.03318,0.03908-0.08349,0.0593-0.13449,0.05402c-0.06835,0-0.16315-0.01323-0.16315-0.14883
	c0-0.04079,0.13559-0.55505,0.29764-1.19112l0.31197-1.27269c-1.37506,0.05943-2.53796-1.00711-2.59739-2.38217
	c-0.00098-0.0228-0.00165-0.04559-0.00202-0.06841c0-1.84152,1.98979-3.64171,4.14273-3.7095l0.78489-3.12744
	c0.05403-0.23039,0.06835-0.27063,0.20284-0.27063c0.07803-0.01132,0.15047,0.04272,0.16181,0.12076
	c0.00069,0.00475,0.00114,0.00951,0.00135,0.01428l-0.04079,0.18965l-0.75845,3.07338
	c1.37528-0.05923,2.53817,1.00763,2.5974,2.38289c0.00098,0.02257,0.00164,0.04512,0.002,0.06769
	C37.52348,141.66409,35.56014,143.49185,33.38075,143.55965z M31.30933,141.39348c-0.06122,0.96867,0.67441,1.80357,1.64309,1.86478
	c0.04788,0.00304,0.09587,0.0041,0.14384,0.00319l1.39451-5.56424c-1.84519,0.24554-3.21332,1.83511-3.18139,3.69629
	L31.30933,141.39348z M34.84245,137.6972l-1.3934,5.56424c1.84805-0.24344,3.22114-1.83188,3.19467-3.69569
	c0.06432-0.96596-0.66661-1.80115-1.63255-1.86546c-0.05614-0.00374-0.11243-0.00476-0.16866-0.00308H34.84245z"/>
<g>
	<g>
		<line class="st1" x1="9.146" y1="150" x2="157.6277" y2="150"/>
		<g>
			<polygon class="st0" points="152.98882,155.72577 152.03383,154.70039 157.09038,150.00137 152.03383,145.30096 
				152.98882,144.27559 159.146,150.00137 			"/>
		</g>
	</g>
</g>
<g>
	<g>
		<line class="st1" x1="10.146" y1="150" x2="10.146" y2="1.5183"/>
		<g>
			<polygon class="st0" points="15.87177,6.15719 14.84638,7.11217 10.14736,2.05562 5.44697,7.11217 4.42158,6.15719 10.14736,0 
							"/>
		</g>
	</g>
</g>
<g>
	<path class="st0" d="M111.6499,32.9292c-0.37109,0-0.53906-0.21631-0.74219-0.51611
		c-0.26367-0.38379-0.41992-0.38379-0.54102-0.38379c-0.40625,0-0.73047,0.45605-0.91016,0.74365
		c-0.08398,0.14404-0.08398,0.15625-0.20508,0.15625c-0.05859,0-0.16797,0-0.16797-0.09619c0-0.0957,0.54102-0.9834,1.35547-1.79883
		l1.70313-1.70313c0.12109-0.12012,0.30078-0.2998,0.61133-0.67188c-0.23828,0-0.35938,0-0.82617-0.23975
		c-0.16797-0.07178-0.37305-0.17969-0.61328-0.17969c-0.34766,0-0.75391,0.22754-0.88672,0.5874
		c-0.04688,0.12012-0.06055,0.14404-0.19141,0.14404c-0.04883,0-0.15625,0-0.15625-0.10791
		c0-0.22803,0.49219-1.34326,1.35547-1.34326c0.38281,0,0.55078,0.23975,0.74414,0.51563
		c0.21484,0.2998,0.33594,0.38379,0.52734,0.38379c0.24023,0,0.41992-0.16797,0.74414-0.73145
		c0.08203-0.15576,0.0957-0.16797,0.21484-0.16797c0.06055,0,0.15625,0,0.15625,0.0957c0,0.21631-1.03125,1.60742-2.17188,2.62695
		c-0.53906,0.47949-1.04297,1.01904-1.50977,1.5708c0.08398-0.02393,0.21484-0.02393,0.25195-0.02393
		c0.14258,0,0.28711,0,0.67188,0.19189c0.32227,0.15625,0.50195,0.22803,0.70703,0.22803c0.33594,0,1.01953-0.23975,1.30664-1.05566
		c0.03711-0.10791,0.04883-0.14355,0.17969-0.14355c0.0957,0,0.16797,0.02393,0.16797,0.11963
		C113.42529,31.40576,112.77881,32.9292,111.6499,32.9292z"/>
	<path class="st0" d="M125.44873,28.92334h-7.06445c-0.17969,0-0.38477,0-0.38477-0.22803c0-0.21582,0.2168-0.21582,0.38477-0.21582
		h7.06445c0.17969,0,0.38281,0,0.38281,0.22803C125.83154,28.92334,125.6167,28.92334,125.44873,28.92334z M125.44873,31.15381
		h-7.06445c-0.17969,0-0.38477,0-0.38477-0.22754c0-0.21582,0.2168-0.21582,0.38477-0.21582h7.06445
		c0.17969,0,0.38281,0,0.38281,0.22754C125.83154,31.15381,125.6167,31.15381,125.44873,31.15381z"/>
	<path class="st0" d="M134.29443,32.9292c-0.7207,0-1.03125-0.54004-1.12695-0.82764
		c-0.26563,0.50342-0.64844,0.82764-1.14063,0.82764c-0.47852,0-1.00781-0.21631-1.00781-0.6958
		c0-0.32373,0.24023-0.58789,0.55273-0.58789c0.20313,0,0.37109,0.12012,0.37109,0.34814c0,0.14404-0.08398,0.43164-0.43164,0.52783
		c0.2168,0.16748,0.48047,0.16748,0.54102,0.16748c0.53906,0,0.83789-0.64746,0.9707-1.05518l0.49219-1.979
		c0.0957-0.37158,0.21484-0.85156,0.21484-1.12744c0-0.57568-0.27539-0.76758-0.55078-0.76758
		c-0.55273,0-1.12695,0.57568-1.4043,1.4873c-0.05859,0.19189-0.07227,0.21582-0.20313,0.21582
		c-0.06055,0-0.16797,0-0.16797-0.10791c0-0.23975,0.59961-1.83496,1.79883-1.83496c0.59961,0,0.9707,0.41992,1.10352,0.81543
		c0.17969-0.32373,0.55078-0.81543,1.15039-0.81543c0.34961,0,1.00781,0.13184,1.00781,0.6958
		c0,0.43164-0.32422,0.5874-0.53906,0.5874c-0.17969,0-0.37109-0.0957-0.37109-0.34766c0-0.23975,0.1543-0.45605,0.41797-0.52783
		c-0.21484-0.16797-0.4668-0.16797-0.52734-0.16797c-0.71875,0-0.95898,0.92383-1.1875,1.84717l-0.27539,1.09131
		c-0.14453,0.58789-0.24023,0.97168-0.24023,1.22314c0,0.21631,0.07227,0.76758,0.57617,0.76758
		c0.58789,0,1.15234-0.65967,1.4043-1.4751c0.05859-0.20361,0.05859-0.22754,0.20313-0.22754c0.04688,0,0.15625,0,0.15625,0.10791
		C136.08154,31.33398,135.47021,32.9292,134.29443,32.9292z"/>
	<path class="st0" d="M148.10303,30.03857h-3.31055v3.31006c0,0.18018,0,0.38379-0.22656,0.38379
		c-0.2168,0-0.2168-0.21582-0.2168-0.38379v-3.31006h-3.31055c-0.17969,0-0.38281,0-0.38281-0.22803
		c0-0.21582,0.21484-0.21582,0.38281-0.21582h3.31055v-3.31006c0-0.17969,0-0.38379,0.22852-0.38379
		c0.21484,0,0.21484,0.21582,0.21484,0.38379v3.31006h3.31055c0.17969,0,0.38477,0,0.38477,0.22803
		C148.48779,30.03857,148.271,30.03857,148.10303,30.03857z"/>
	<path class="st0" d="M155.50928,32.94092c-0.62305,0-0.91016-0.4917-0.91016-0.95947c0-0.23975,0.04688-0.37158,0.21484-0.82764
		l0.44336-1.18701l0.36133-0.99561c0.08398-0.22803,0.21484-0.57568,0.21484-0.86377c0-0.27539-0.13086-0.33545-0.26367-0.33545
		c-0.69531,0-1.00781,1.11523-1.11523,1.51123c-0.04883,0.16797-0.06055,0.19189-0.21484,0.19189
		c-0.06055,0-0.18164,0-0.18164-0.12012c0-0.06006,0.4082-1.84717,1.53516-1.84717c0.44531,0,0.90039,0.2998,0.90039,0.95947
		c0,0.22803-0.02344,0.32422-0.14453,0.67188l-0.76758,2.05078c-0.15625,0.44385-0.31055,0.83936-0.31055,1.15137
		c0,0.32373,0.16797,0.33594,0.26367,0.33594c0.69531,0,1.01953-1.15137,1.11523-1.49951
		c0.04688-0.17969,0.04688-0.20361,0.20313-0.20361c0.08398,0,0.17969,0,0.17969,0.12012
		C157.03271,31.14209,156.63818,32.94092,155.50928,32.94092z M156.58936,26.23682c-0.34766,0-0.53906-0.25195-0.53906-0.51563
		c0-0.38379,0.38281-0.75586,0.76758-0.75586c0.35938,0,0.53906,0.26416,0.53906,0.51563
		C157.35693,25.86475,156.97412,26.23682,156.58936,26.23682z"/>
	<path class="st0" d="M159.0874,35.26758c-0.66016,0-1.15234-0.40771-1.15234-1.03125c0-0.67188,0.46875-0.74365,0.61133-0.74365
		c0.2168,0,0.4082,0.13184,0.4082,0.38379c0,0.19189-0.14453,0.51563-0.51563,0.57568
		c-0.08398,0.01221-0.0957,0.03613-0.0957,0.03613c0,0.06006,0.16797,0.51563,0.74414,0.51563
		c0.59961,0,1.48633-0.52783,1.94141-2.50684c-0.1543,0.15625-0.52734,0.44385-1.07813,0.44385
		c-0.64844,0-1.34375-0.34766-1.34375-1.39111c0-0.62354,0.3125-1.51123,0.62305-2.35059
		c0.16797-0.46777,0.28906-0.7915,0.28906-1.07959c0-0.31201-0.13281-0.34766-0.26367-0.34766
		c-0.69727,0-1.01953,1.13916-1.11523,1.51123c-0.04883,0.16797-0.06055,0.19189-0.2168,0.19189
		c-0.06055,0-0.17969,0-0.17969-0.12012c0-0.07178,0.41992-1.84717,1.53516-1.84717c0.51563,0,0.91211,0.37207,0.91211,0.97168
		c0,0.22803-0.06055,0.39551-0.15625,0.64746c-0.30078,0.81592-0.69531,1.89502-0.69531,2.62695
		c0,0.39551,0.10742,0.92334,0.64648,0.92334c0.70898,0,1.1875-0.71973,1.27148-1.06738l0.875-3.52637
		c0.02539-0.0957,0.10938-0.44336,0.46875-0.44336c0.24023,0,0.33594,0.17969,0.33594,0.31152
		c0,0.03613-0.02344,0.09619-0.03711,0.16797l-1.17383,4.72559C161.42529,34.03223,160.3335,35.26758,159.0874,35.26758z"/>
</g>
<g>
	<path class="st0" d="M136.94971,159.91797c-0.31152,0-0.89941-0.13086-1.13965-0.81445
		c-0.20313,0.35938-0.59961,0.81445-1.17578,0.81445c-0.55078,0-1.05469-0.27539-1.05469-0.74316
		c0-0.39551,0.2998-0.64746,0.59961-0.64746c0.15625,0,0.4082,0.07227,0.4082,0.38379c0,0.17969-0.1084,0.47949-0.46875,0.5752
		c0.20508,0.16797,0.49219,0.16797,0.52832,0.16797c0.71973,0,0.97168-0.95898,1.16309-1.73828l0.27539-1.0918
		c0.1084-0.44336,0.25195-1.03125,0.25195-1.31934c0-0.47949-0.22754-0.75488-0.5752-0.75488
		c-0.47949,0-1.10352,0.4668-1.42676,1.49805c-0.06055,0.19238-0.06055,0.20508-0.2168,0.20508
		c-0.05957,0-0.17969,0-0.17969-0.12109c0-0.27539,0.64844-1.84668,1.84766-1.84668c0.29883,0,0.88672,0.09668,1.15039,0.81543
		c0.12109-0.22754,0.5166-0.81543,1.17578-0.81543c0.34766,0,1.04297,0.14355,1.04297,0.75586
		c0,0.46777-0.37109,0.63574-0.58691,0.63574c-0.31152,0-0.41992-0.22852-0.41992-0.38379c0,0,0-0.45605,0.47949-0.5752
		c-0.19141-0.16797-0.49121-0.16797-0.52734-0.16797c-0.56445,0-0.8877,0.65918-1.05566,1.2832l-0.40723,1.64258
		c-0.0957,0.4082-0.22852,0.92383-0.22852,1.21094c0,0.62402,0.32422,0.76758,0.56445,0.76758
		c0.50391,0,1.10352-0.4668,1.42676-1.49902c0.05957-0.19141,0.07129-0.2041,0.21582-0.2041c0.08398,0,0.17969,0,0.17969,0.12109
		C138.79639,158.31152,138.18506,159.91797,136.94971,159.91797z"/>
</g>
<g>
	<path class="st0" d="M2.33887,44.02051c-0.65967,0-1.15137-0.40771-1.15137-1.03125c0-0.67188,0.46777-0.74365,0.61133-0.74365
		c0.21631,0,0.40771,0.13184,0.40771,0.38379c0,0.19189-0.14355,0.51563-0.51563,0.57568
		c-0.08398,0.01221-0.0957,0.03613-0.0957,0.03613c0,0.06006,0.16797,0.51563,0.74365,0.51563
		c0.59961,0,1.48682-0.52783,1.94287-2.50684c-0.15625,0.15625-0.52783,0.44385-1.07959,0.44385
		c-0.64746,0-1.34326-0.34766-1.34326-1.39111c0-0.62354,0.31201-1.51123,0.62354-2.35059
		c0.16797-0.46777,0.28809-0.7915,0.28809-1.07959c0-0.31201-0.13184-0.34766-0.26367-0.34766
		c-0.6958,0-1.01953,1.13916-1.11572,1.51123c-0.04785,0.16797-0.06006,0.19189-0.21582,0.19189
		c-0.06006,0-0.17969,0-0.17969-0.12012c0-0.07178,0.41943-1.84717,1.53516-1.84717c0.51563,0,0.91113,0.37207,0.91113,0.97168
		c0,0.22803-0.05957,0.39551-0.15576,0.64746c-0.2998,0.81592-0.6958,1.89502-0.6958,2.62695
		c0,0.39551,0.1084,0.92334,0.64795,0.92334c0.70752,0,1.1875-0.71973,1.271-1.06738l0.87598-3.52637
		c0.02393-0.0957,0.10791-0.44336,0.46777-0.44336c0.23975,0,0.33545,0.17969,0.33545,0.31152
		c0,0.03613-0.02393,0.09619-0.03564,0.16797l-1.17578,4.72559C4.67725,42.78516,3.58594,44.02051,2.33887,44.02051z"/>
</g>
<g id="Layer_2">
	<polyline class="st2" points="10.146,40 136.146,40 136.146,150 	"/>
</g>
<g>
	<g>
		<path class="st3" d="M10.146,150c0-0.94389,112.25786-98.10881,124.8546-109.00896"/>
		<g>
			<polygon class="st4" points="135.24496,48.35964 133.8517,48.21053 134.59378,41.34768 127.69412,41.10889 127.74391,39.70855 
				136.1469,40.00103 			"/>
		</g>
	</g>
</g>
<circle class="st5" cx="136.146" cy="40" r="2"/>
<g>
</g>
<g>
</g>
<g>
</g>
<g>
</g>
<g>
</g>
<g>
</g>
<g>
</g>
<g>
</g>
<g>
</g>
<g>
</g>
<g>
</g>
<g>
</g>
</svg>
