<?xml version="1.0" encoding="utf-8"?>
<!-- Generator: Adobe Illustrator 23.0.3, SVG Export Plug-In . SVG Version: 6.00 Build 0)  -->
<svg version="1.1" id="Layer_1" xmlns="http://www.w3.org/2000/svg" xmlns:xlink="http://www.w3.org/1999/xlink" x="0px" y="0px"
	 viewBox="0 0 155.32993 121.71554" style="enable-background:new 0 0 155.32993 121.71554;" xml:space="preserve">
<style type="text/css">
	.st0{fill:#8FF4DD;}
	.st1{fill:none;stroke:#8FF4DD;stroke-width:2;stroke-miterlimit:10;}
	.st2{fill:none;stroke:#FF6C11;stroke-width:2;stroke-linecap:round;stroke-miterlimit:10;}
	.st3{fill:#FF6C11;}
	.st4{fill:none;stroke:#F9C80E;stroke-width:2;stroke-linecap:round;stroke-miterlimit:10;}
	.st5{fill:#F9C80E;}
	.st6{fill:none;stroke:#FD1D53;stroke-width:2;stroke-linecap:round;stroke-miterlimit:10;}
	.st7{fill:#FD1D53;}
	.st8{fill:#8FE0DD;}
</style>
<g>
	<g>
		<path class="st0" d="M14.73931,8.15531c-0.45557,0-1.40332,0-1.82275,0.03613V7.81986h0.31152
			c0.94775,0,0.98389-0.13232,0.98389-0.564V0.93558c0-0.43212-0.03613-0.564-0.98389-0.564h-0.31152V0
			c0.41943,0.03564,1.36719,0.03564,1.83501,0.03564c0.45557,0,1.40332,0,1.82275-0.03564v0.37158H16.2628
			c-0.94775,0-0.9834,0.13184-0.9834,0.564V7.2559c0,0.43164,0.03564,0.564,0.9834,0.564h0.31152v0.37158
			C16.15483,8.15531,15.20708,8.15531,14.73931,8.15531z"/>
		<path class="st0" d="M25.31986,8.15531l-1.355,0.03613V7.81986c0.80322,0,0.93555,0,0.93555-0.54V4.48537
			c0-0.68359-0.13232-1.33106-0.8877-1.33106c-0.96487,0.0684-1.6916,0.90603-1.62321,1.8709
			c0.00114,0.01604,0.0025,0.03205,0.00407,0.04805V7.2798c0,0.54,0.13184,0.54,0.93555,0.54v0.37158l-1.34326-0.03613
			L20.6304,8.19138V7.8198c0.80371,0,0.93555,0,0.93555-0.54V4.48537c0-0.68359-0.13184-1.33106-0.88721-1.33106
			c-0.96487,0.0684-1.6916,0.90603-1.62321,1.8709c0.00114,0.01604,0.0025,0.03205,0.00407,0.04805V7.2798
			c0,0.54,0.13184,0.54,0.93555,0.54v0.37158l-1.34326-0.03613l-1.35547,0.03613V7.8198c0.80371,0,0.93555,0,0.93555-0.54V4.06596
			c0-0.58789-0.09621-0.67188-0.93555-0.67188V3.0225l1.69092-0.13233v1.25928c0.26678-0.75234,0.97716-1.25621,1.77539-1.25928
			c0.76239-0.10504,1.46965,0.41644,1.59473,1.17579c0.29059-0.70601,0.97581-1.16925,1.73926-1.17579
			c0.46439-0.04267,0.92427,0.11942,1.25928,0.44385c0.37158,0.43164,0.37158,0.80371,0.37158,1.835v2.291
			c0.01221,0.35986,0.312,0.35986,0.93555,0.35986v0.37158L25.31986,8.15531z"/>
	</g>
	<g>
		<path class="st0" d="M149.14873,95.60714c-0.54718,0.0145-1.08206-0.16368-1.51125-0.50342
			c-0.49168-0.45604-0.49168-0.93555-0.49168-1.71533c0-0.80322,0-1.17529-0.45557-1.60693
			c-0.30161-0.28064-0.70374-0.42766-1.11523-0.40771h-1.37939v3.03418c0,0.43164,0.02393,0.564,0.94727,0.564h0.28809v0.37158
			c-0.43164-0.03613-1.2832-0.03613-1.75101-0.03613s-1.31934,0-1.75101,0.03613v-0.37158h0.2876
			c0.92334,0,0.94775-0.13232,0.94775-0.564v-6.32031c0-0.43213-0.02441-0.564-0.94775-0.564h-0.2876v-0.37158h3.76563
			c1.76318,0,3.13037,1.00732,3.13037,2.15869c0,0.93555-0.93555,1.66699-2.09863,1.95508
			c0.69519,0.17987,1.24831,0.70584,1.46289,1.39111l0.15625,0.95947c0.16748,1.11523,0.26367,1.72705,0.85156,1.72705
			c0.2998,0,0.71922-0.21582,0.7915-1.06738c0.01172-0.084,0.01172-0.19189,0.14355-0.19189
			c0.15625,0,0.15625,0.13184,0.15625,0.20361C150.28838,94.62371,150.08427,95.60714,149.14873,95.60714z M145.16728,87.52364
			c-0.23627-0.00623-0.47269,0.00175-0.70799,0.02394c-0.26367,0.03613-0.26367,0.18018-0.26367,0.45604v3.106h1.33105
			c1.77539,0,2.063-0.97119,2.063-1.79883C147.58965,87.57198,146.24638,87.52364,145.16728,87.52364z"/>
		<path class="st0" d="M153.31572,95.4753c-1.49316-0.03761-2.67383-1.27727-2.63867-2.77049
			c-0.0641-1.44319,1.05162-2.66615,2.49461-2.73439c1.17473-0.01712,2.14091,0.9213,2.15804,2.09601
			c0.00125,0.08502-0.00261,0.17003-0.01155,0.25459c0,0.25195-0.03564,0.25195-0.2998,0.25195h-3.34619
			c-0.04253,0.62096,0.08171,1.242,0.35986,1.79883c0.28163,0.48506,0.79474,0.78931,1.35545,0.80371
			c0.75504-0.004,1.41586-0.50819,1.61916-1.23535c0.02393-0.09572,0.04785-0.168,0.15576-0.168
			c0.07631-0.00923,0.14565,0.04515,0.15488,0.12146c0.0009,0.00748,0.00121,0.01501,0.00089,0.02254
			C155.09148,94.83636,154.26341,95.48112,153.31572,95.4753z M153.17172,90.23409c-0.40771,0-1.41553,0.29982-1.4873,2.08693
			h2.84229c-0.00005-0.46779-0.11967-2.08693-1.35503-2.08693H153.17172z"/>
	</g>
	<g>
		<g>
			<line class="st1" x1="4.72442" y1="106.41573" x2="153.20612" y2="106.41573"/>
			<g>
				<polygon class="st0" points="148.56723,112.1415 147.61224,111.11613 152.66879,106.41711 147.61224,101.7167 
					148.56723,100.69132 154.72441,106.41711 				"/>
			</g>
		</g>
	</g>
	<g>
		<g>
			<line class="st1" x1="5.72442" y1="106.41573" x2="5.72442" y2="1.5183"/>
			<g>
				<polygon class="st0" points="11.45019,6.15719 10.42481,7.11217 5.72579,2.05563 1.02539,7.11217 0,6.15719 5.72579,0 				"/>
			</g>
		</g>
	</g>
</g>
<g>
	<g>
		<g>
			<line class="st2" x1="136.45482" y1="11.16182" x2="136.45482" y2="106.41573"/>
			<g>
				<polygon class="st3" points="132.00189,19.43745 133.3185,19.91595 136.45482,11.2986 139.59114,19.91595 140.90639,19.43745 
					136.45482,7.20584 				"/>
			</g>
		</g>
	</g>
	<g>
		<g>
			<line class="st4" x1="5.72442" y1="106.41573" x2="134.93652" y2="106.41573"/>
			<g>
				<polygon class="st5" points="130.29764,112.14151 129.34265,111.11612 134.3992,106.4171 129.34265,101.71671 
					130.29764,100.69131 136.45482,106.4171 				"/>
			</g>
		</g>
	</g>
	<g>
		<path class="st0" d="M70.86601,51.15108c-0.94775,0-1.4873-0.38379-1.81104-0.87598l-0.53955,0.71973
			c-0.12012,0.14355-0.13232,0.15625-0.18018,0.15625c0,0-0.12012,0-0.12012-0.1084c0-0.03613,0.02441-0.13184,0.03613-0.16797
			l0.62354-2.49414c0.04834-0.19238,0.07227-0.2041,0.2041-0.2041c0.06006,0,0.15576,0,0.15576,0.10742l-0.01172,0.09668
			c-0.07227,0.28711-0.09619,0.61133-0.09619,0.73145c0,1.22363,0.85156,1.69043,1.7749,1.69043
			c1.0918,0,2.02734-1.23438,2.02734-2.32617c0-0.54004-0.21631-1.00781-0.71973-1.17578l-0.73145-0.21582
			c-0.82764-0.23926-1.04346-0.2998-1.29541-0.5752c-0.43213-0.46777-0.45605-0.95996-0.45605-1.22363
			c0-1.43945,1.31934-2.83008,2.72266-2.83008c0.21582,0,1.10352,0,1.54736,0.85156l0.53955-0.71973
			c0.0957-0.13184,0.13184-0.13184,0.16797-0.13184c0,0,0.11963,0,0.11963,0.10742c0,0.03613-0.02393,0.13184-0.03564,0.16797
			l-0.62354,2.49512c-0.04834,0.19141-0.07227,0.20313-0.2041,0.20313c-0.08398,0-0.16797,0-0.16797-0.11914
			c0,0,0-0.03613,0.02393-0.1084c0.04785-0.34766,0.04785-0.55176,0.04785-0.70703c0-0.37207,0-1.71582-1.43896-1.71582
			c-1.00732,0-1.95508,1.04395-1.95508,2.0752c0,0.89941,0.56396,1.06738,0.94775,1.17578l1.16309,0.34766
			c0.59961,0.19141,1.07959,0.73145,1.07959,1.67871C73.66045,49.61593,72.31718,51.15108,70.86601,51.15108z"/>
	</g>
	<g>
		<g>
			<line class="st6" x1="5.72442" y1="106.41573" x2="133.30353" y2="9.59732"/>
			<g>
				<polygon class="st7" points="129.40315,18.14726 128.22607,17.38774 133.19458,9.68 124.43411,12.39103 124.0202,11.05405 
					136.45482,7.20584 				"/>
			</g>
		</g>
	</g>
	<g>
		<path class="st0" d="M146.95244,61.63644c-0.25195,0.38379-0.64844,0.81543-1.25977,0.81543
			c-0.89941,0-0.89941-0.79102-0.89941-1.06738c0-0.31152,0.02441-0.43164,0.13184-1.1875
			c-0.34766,0.12012-0.70703,0.18066-1.0791,0.18066c-1.65527,0-2.68652-1.34375-2.68652-3.07031
			c0-2.77051,2.43457-5.625,4.84473-5.625c1.65527,0,2.6748,1.35547,2.6748,3.09375c0,1.73926-1.0791,4.22168-3.41797,5.27734
			c0,1.03125,0.17969,1.36719,0.71973,1.36719c0.56348,0,1.10352-0.54004,1.31934-1.22363
			c0.03613-0.13184,0.05957-0.17969,0.13184-0.17969s0.12012,0.03613,0.12012,0.12012
			C147.55205,60.19698,147.32353,61.04855,146.95244,61.63644z M145.94463,51.94601c-0.9834,0-1.95508,0.79102-2.54297,1.64258
			c-1.10254,1.60742-1.30664,3.55078-1.30664,4.11426c0,0.94727,0.31152,1.91895,1.16309,2.27832
			c-0.04785-0.10742-0.07227-0.16797-0.07227-0.37109c0-0.55176,0.49219-1.24805,1.13965-1.24805
			c0.7793,0,0.89941,0.70801,0.92383,1.2959c1.94238-1.22363,2.49414-4.18555,2.49414-5.28906
			C147.74345,52.92941,147.03642,51.94601,145.94463,51.94601z M144.99736,59.4421c0-0.44434-0.0957-0.83984-0.67188-0.83984
			c-0.50391,0-0.89941,0.56348-0.89941,1.00781c0,0.50293,0.37207,0.50293,0.47949,0.50293
			c0.47949,0,0.91211-0.20313,1.06738-0.28711C144.98564,59.70577,144.99736,59.56222,144.99736,59.4421z"/>
	</g>
	<g>
		<path class="st0" d="M72.85722,114.43331h-1.83496l-0.7793,3.08301l-0.02441,0.17969c0,0.10742,0,0.2041,0.67188,0.2041
			c0.17969,0,0.27588,0,0.27588,0.11914c0,0.22852-0.13184,0.22852-0.22803,0.22852c-0.41992,0-0.88721-0.02441-1.31934-0.02441
			c-0.43164,0-0.87549,0.02441-1.29492,0.02441c-0.04834,0-0.16797,0-0.16797-0.12012c0-0.22754,0.10791-0.22754,0.32373-0.22754
			c0.73145,0,0.80371-0.09668,0.91162-0.5166l1.64307-6.60742c0.02393-0.07227,0.02393-0.1084,0.02393-0.18066
			c0-0.19141-0.33594-0.19141-0.63574-0.19141c-0.22803,0-0.31201,0-0.31201-0.12012c0-0.22754,0.10791-0.22754,0.32422-0.22754
			h3.42969c1.28369,0,2.0752,0.75488,2.0752,1.75098C75.93974,113.22237,74.35625,114.43331,72.85722,114.43331z
			 M73.51689,110.40401h-1.04346c-0.39551,0-0.47949,0-0.5874,0.45508l-0.81592,3.28711h1.51123
			c1.09131,0,1.61914-0.57617,1.66699-0.6123c0.61182-0.67188,0.71973-1.79883,0.71973-2.01465
			C74.96806,110.79952,74.50029,110.40401,73.51689,110.40401z"/>
	</g>
	<g>
		<path class="st8" d="M33.4056,97.59526c-1.09131,0-1.43897-1.33105-1.43897-2.45898c0-2.74609,1.84668-6.12793,3.51367-6.12793
			c1.22363,0,1.43945,1.66699,1.43945,2.45801C36.91976,94.15288,35.09652,97.59526,33.4056,97.59526z M33.14193,93.4937
			c-0.31201,1.1748-0.38379,1.87109-0.38379,2.375c0,1.11523,0.25195,1.46289,0.64746,1.46289
			c0.51563,0,0.97168-0.58789,1.39111-1.40332c0.45605-0.86328,0.70801-1.88281,0.83984-2.43457H33.14193z M35.46859,89.27202
			c-0.53955,0-0.9834,0.67188-1.30713,1.25879c-0.47998,0.85156-0.71973,1.81152-0.92383,2.5791h2.50684
			c0.2876-1.1875,0.38379-1.79883,0.38379-2.38672C36.12826,90.0396,36.05599,89.27202,35.46859,89.27202z"/>
		<path class="st8" d="M39.31087,102.20757c-0.34277,0-0.96289-0.13086-0.96289-0.96387c0-0.22852,0.03271-0.52246,0.35889-1.42871
			c0.17139-0.47363,0.25342-0.68555,0.25342-0.88965c0-0.19531-0.08984-0.23633-0.18799-0.23633
			c-0.47363,0-0.68555,0.77539-0.75098,1.02051c-0.03271,0.11426-0.04102,0.13867-0.13867,0.13867
			c-0.04102,0-0.11426,0-0.11426-0.07324c0-0.0498,0.27734-1.24902,1.02002-1.24902c0.40039,0,0.59619,0.30957,0.59619,0.63672
			c0,0.16309-0.04102,0.26855-0.10596,0.46484c-0.18799,0.49805-0.46533,1.25684-0.46533,1.73047
			c0,0.32715,0.11426,0.68555,0.53027,0.68555c0.95508,0,1.33105-2.11426,1.33105-2.32617c0-0.13086-0.0249-0.43262-0.2124-0.65332
			c-0.07373-0.08105-0.08984-0.12207-0.08984-0.19531c0-0.18848,0.2041-0.34277,0.35938-0.34277
			c0.14648,0,0.31006,0.10547,0.31006,0.52246C41.04183,99.2603,40.66634,102.20757,39.31087,102.20757z"/>
		<path class="st8" d="M42.52767,95.19682v-0.64746h3.11816v0.64746H42.52767z"/>
		<path class="st8" d="M50.65072,97.59526c-1.0918,0-1.43945-1.33105-1.43945-2.45898c0-2.74609,1.84668-6.12793,3.51367-6.12793
			c1.22363,0,1.43945,1.66699,1.43945,2.45801C54.16439,94.15288,52.34115,97.59526,50.65072,97.59526z M50.38607,93.4937
			c-0.31152,1.1748-0.38379,1.87109-0.38379,2.375c0,1.11523,0.25195,1.46289,0.64844,1.46289
			c0.51563,0,0.9707-0.58789,1.39063-1.40332c0.45605-0.86328,0.70801-1.88281,0.83984-2.43457H50.38607z M52.71322,89.27202
			c-0.54004,0-0.9834,0.67188-1.30762,1.25879c-0.47949,0.85156-0.71973,1.81152-0.92285,2.5791h2.50586
			c0.28809-1.1875,0.38379-1.79883,0.38379-2.38672C53.3724,90.0396,53.30111,89.27202,52.71322,89.27202z"/>
		<path class="st8" d="M55.96029,102.20757c-0.26953,0-0.58789-0.17188-0.58789-0.64551c0-0.07324,0-0.17969,0.06543-0.35938
			l0.65234-1.77148c0.05762-0.14648,0.10645-0.28516,0.10645-0.49805c0-0.08887,0-0.24414-0.17969-0.24414
			c-0.47363,0-0.68555,0.75879-0.75098,1.02051c-0.03223,0.11426-0.04102,0.13867-0.13867,0.13867
			c-0.04102,0-0.11426,0-0.11426-0.07324c0-0.04102,0.26953-1.24902,1.02051-1.24902c0.31836,0,0.58789,0.21973,0.58789,0.63672
			c0,0.14648-0.0166,0.21191-0.08984,0.41602l-0.48242,1.32227c-0.14648,0.40039-0.26074,0.69434-0.26074,0.90625
			c0,0.19629,0.09766,0.23633,0.1875,0.23633c0.46582,0,0.67773-0.73438,0.75098-1.01172
			c0.0332-0.12305,0.04102-0.14746,0.13867-0.14746c0.0332,0,0.10645,0,0.10645,0.07422
			C56.97201,100.99077,56.71127,102.20757,55.96029,102.20757z M56.71127,97.61089c-0.15527,0-0.32715-0.10547-0.32715-0.32617
			c0-0.2373,0.2373-0.46582,0.48145-0.46582c0.16406,0,0.32715,0.09863,0.32715,0.32715
			C57.19271,97.39116,56.95541,97.61089,56.71127,97.61089z"/>
	</g>
</g>
</svg>
