<svg xmlns="http://www.w3.org/2000/svg" viewBox="0 0 135.18408 72.22223">
  <defs>
    <style>
      .cls-1, .cls-4 {
        fill: #8ff4dd;
      }

      .cls-2, .cls-3, .cls-5, .cls-6 {
        fill: none;
        stroke: #8ff4dd;
      }

      .cls-2, .cls-3 {
        stroke-width: 2px;
      }

      .cls-3, .cls-5, .cls-6 {
        stroke-miterlimit: 10;
      }

      .cls-4 {
        fill-rule: evenodd;
      }

      .cls-5 {
        stroke-width: 0.5px;
      }
    </style>
  </defs>
  <title>ProductOfSumsCircuit</title>
  <g id="Layer_1" data-name="Layer 1">
    <g>
      <g>
        <path class="cls-1" d="M213.88889,213.88889v22.22222h11.37566a11.11111,11.11111,0,0,0,0-22.22222Zm1.5873,1.5873h9.78836A9.19008,9.19008,0,0,1,234.52381,225,9.40935,9.40935,0,0,1,225,234.52381h-9.52381Z" transform="translate(-123.91846 -188.88889)"/>
        <line class="cls-2" x1="112.08154" y1="36.11111" x2="126.08154" y2="36.11111"/>
        <line class="cls-2" x1="91.08154" y1="30.11111" x2="76.08154" y2="30.11111"/>
        <line class="cls-2" x1="91.08154" y1="42.11111" x2="76.08154" y2="42.11111"/>
      </g>
      <line class="cls-3" x1="89.97154" y1="36.11111" x2="76.08265" y2="36.11111"/>
    </g>
    <g>
      <g>
        <path class="cls-4" d="M150.60764,188.88889l1.11111,1.35416a16.71871,16.71871,0,0,1,0,19.51389l-1.11111,1.35417h9.53125a19.22686,19.22686,0,0,0,7.56944-1.33681c3.29739-1.35042,6.96475-4.07959,9.82639-9.375L176.80556,200l.72916-.39931c-5.724-10.592-14.75329-10.7118-17.39583-10.7118Zm3.26389,1.66666h6.26736c2.60232,0,10.15936-.07233,15.53819,9.44445-2.64821,4.68282-5.84515,7.04661-8.73264,8.22916a16.95891,16.95891,0,0,1-6.80555,1.21528h-6.25a18.169,18.169,0,0,0-.01736-18.88889Z" transform="translate(-123.91846 -188.88889)"/>
        <line class="cls-2" x1="66.08154" y1="11.11111" x2="52.08154" y2="11.11111"/>
        <line class="cls-2" x1="31.08154" y1="5.11111" x2="11.08154" y2="5.11111"/>
        <line class="cls-2" x1="31.08154" y1="17.11111" x2="11.08154" y2="17.11111"/>
      </g>
      <line class="cls-3" x1="31.08154" y1="11.11111" x2="11.08154" y2="11.11111"/>
    </g>
    <g>
      <path class="cls-4" d="M150.60764,238.88889l1.11111,1.35416a16.71871,16.71871,0,0,1,0,19.51389l-1.11111,1.35417h9.53125a19.22686,19.22686,0,0,0,7.56944-1.33681c3.29739-1.35042,6.96475-4.07959,9.82639-9.375L176.80556,250l.72916-.39931c-5.724-10.592-14.75329-10.7118-17.39583-10.7118Zm3.26389,1.66666h6.26736c2.60232,0,10.15936-.07233,15.53819,9.44445-2.64821,4.68282-5.84515,7.04661-8.73264,8.22916a16.95891,16.95891,0,0,1-6.80555,1.21528h-6.25a18.169,18.169,0,0,0-.01736-18.88889Z" transform="translate(-123.91846 -188.88889)"/>
      <line class="cls-2" x1="66.08154" y1="61.11111" x2="52.08154" y2="61.11111"/>
      <line class="cls-2" x1="31.08154" y1="55.11111" x2="11.08154" y2="55.11111"/>
      <line class="cls-2" x1="31.08154" y1="67.11111" x2="11.08154" y2="67.11111"/>
    </g>
  </g>
  <g id="Layer_2" data-name="Layer 2">
    <path class="cls-1" d="M258.80273,223.89111c-.1914-1.65527-.49218-2.32666-2.291-2.32666h-1.43945c-.5625,0-.58692.084-.58692.4795v3.03466h1.03125c1.15137,0,1.27149-.396,1.27149-1.40332h.2998v3.17823h-.2998c0-1.01954-.12012-1.40332-1.27149-1.40332h-1.03125v2.95068c0,.41943,0,.57568,1.13965.57568h.39551v.37158c-.43262-.03613-1.52344-.03613-2.01465-.03613-.46875,0-1.4043,0-1.82324.03613v-.37158h.28808c.92285,0,.94727-.13232.94727-.564v-6.28467c0-.43164-.02442-.56348-.94727-.56348h-.28808v-.37207h6.584l.33594,2.69873Z" transform="translate(-123.91846 -188.88889)"/>
    <path class="cls-1" d="M132.44482,198.52783l-1.15771,1.88281v1.15723c0,.23389.01807.29395.48.29395h.1377v.186c-.21583-.01806-.64161-.01806-.87549-.01806s-.65967,0-.87549.01806v-.186h.144c.46192,0,.47363-.06592.47363-.28174v-1.16944l-1.25927-2.05078c-.09571-.15576-.14405-.22168-.55176-.22168h-.10791v-.186l.77978.01806c.23389,0,.67139,0,.88721-.01806v.186c-.26953,0-.41943.02393-.41943.14991,0,.02978,0,.042.042.10156l1.085,1.769.98975-1.60693a.376.376,0,0,0,.06006-.17969c0-.12012-.0962-.23389-.3418-.23389v-.186l.68945.01806c.16211,0,.40186-.00634.58789-.01806v.186A.82971.82971,0,0,0,132.44482,198.52783Z" transform="translate(-123.91846 -188.88889)"/>
    <line class="cls-5" x1="5.61401" y1="14.68704" x2="8.61401" y2="14.68704"/>
    <path class="cls-1" d="M132.44189,208.42407h-2.76464c-.126,0-.15577,0-.15577-.102,0-.04785,0-.05371.042-.11963l2.33252-3.688h-.94141c-.9834,0-1.16357.48536-1.20557,1.16309h-.1499l.06641-1.34912h2.68652c.11963,0,.15576,0,.15576.0957,0,.042,0,.04834-.042.11426L130.13916,208.22h.9834c1.10937,0,1.22314-.56348,1.271-1.397h.14991Z" transform="translate(-123.91846 -188.88889)"/>
    <path class="cls-1" d="M130.93457,229.312c-.45557,0-1.33105,0-1.751.03613v-.37158c.51563-.0122.77979-.21631.77979-.35986a.41854.41854,0,0,0-.06006-.13232l-1.895-2.86622-1.70312,2.51856c-.084.13183-.11963.18017-.11963.28808,0,.21583.20361.53956.75537.55176v.37158c-.43164-.03613-1.09131-.03613-1.53516-.03613l-1.33154.03613v-.37158a1.81215,1.81215,0,0,0,1.73926-.792l1.96679-2.90234-2.20654-3.334c-.228-.33594-.45605-.41992-1.11572-.41992h-.22754v-.37158l1.55908.03564c.45557,0,1.33106,0,1.751-.03564v.37158c-.51563.01221-.77979.21582-.77979.35986a.49938.49938,0,0,0,.084.18018l1.54736,2.31445,1.36719-2.02685c.084-.13184.10791-.15576.10791-.27588,0-.27588-.26367-.53955-.74365-.55176v-.37158c.48.03564,1.05566.03564,1.53515.03564l1.33154-.03564v.37158a1.85705,1.85705,0,0,0-1.73925.77979l-1.64307,2.41064,2.53076,3.82568c.252.37207.50342.43213,1.12744.43213h.22754v.37158Z" transform="translate(-123.91846 -188.88889)"/>
    <g>
      <path class="cls-1" d="M131.10254,240.30811l-2.31445,3.76562v2.31494c0,.46778.03564.58789.95947.58789h.27588v.37158c-.43213-.03613-1.28369-.03613-1.75147-.03613s-1.31884,0-1.751.03613v-.37158h.28808c.92334,0,.94727-.13232.94727-.564v-2.33887l-2.51856-4.10156c-.19189-.312-.28759-.44385-1.10351-.44385h-.21582v-.37158l1.55908.03564c.46777,0,1.34326,0,1.77539-.03564v.37158c-.54,0-.83984.04785-.83984.29981,0,.06005,0,.084.084.2041l2.1709,3.53808,1.979-3.21435a.75206.75206,0,0,0,.11963-.35987c0-.23974-.19189-.46777-.68359-.46777v-.37158l1.37939.03564c.32373,0,.80371-.01172,1.1753-.03564v.37158A1.65937,1.65937,0,0,0,131.10254,240.30811Z" transform="translate(-123.91846 -188.88889)"/>
      <line class="cls-6" x1="1.35962" y1="48.61111" x2="7.35962" y2="48.61111"/>
    </g>
    <path class="cls-1" d="M132.35791,196.02979c-.228,0-.666,0-.87549.01806v-.186c.25781-.00586.38965-.10791.38965-.17969a.20226.20226,0,0,0-.03027-.06592l-.94727-1.4331-.85156,1.25927c-.042.06592-.06006.08985-.06006.14356,0,.10791.102.27.37793.27588v.186c-.21582-.01806-.5459-.01806-.76758-.01806l-.66553.01806v-.186a.90734.90734,0,0,0,.86963-.39551l.9834-1.45117-1.10351-1.66748c-.11377-.16748-.228-.20948-.55762-.20948h-.11426v-.186l.77979.01806c.228,0,.66552,0,.87548-.01806v.186c-.25781.00586-.38964.10791-.38964.17969a.24452.24452,0,0,0,.042.08984l.77344,1.15772.68359-1.01367c.042-.06592.0542-.07813.0542-.1377,0-.13818-.13233-.27-.37207-.27588v-.186c.23974.01806.52783.01806.76758.01806l.66552-.01806v.186a.92673.92673,0,0,0-.86914.38965l-.82177,1.20508,1.26513,1.91309c.126.186.252.21582.564.21582h.11377v.186Z" transform="translate(-123.91846 -188.88889)"/>
    <line class="cls-3" x1="77.08154" y1="36.11111" x2="11.08154" y2="36.11111"/>
    <polyline class="cls-3" points="77.082 30.111 66.082 30.111 66.082 10.111"/>
    <polyline class="cls-3" points="77.082 42.111 66.082 42.111 66.082 62.111"/>
    <line class="cls-3" x1="21.08154" y1="55.11111" x2="21.08154" y2="36.11111"/>
    <circle class="cls-1" cx="21.08154" cy="36.11111" r="2.5"/>
    <path class="cls-1" d="M131.29883,259.34766H125.77c-.252,0-.312,0-.312-.20313,0-.0957,0-.1084.084-.24023l4.66553-7.376h-1.88281c-1.9668,0-2.32666.97168-2.41065,2.32715h-.2998l.13183-2.69922h5.373c.23975,0,.312,0,.312.19238,0,.084,0,.09571-.084.22754l-4.65381,7.36426h1.96728c2.21875,0,2.44629-1.12793,2.54249-2.79395h.2998Z" transform="translate(-123.91846 -188.88889)"/>
  </g>
</svg>
