<svg xmlns="http://www.w3.org/2000/svg" viewBox="0 0 250 103.48877">
  <defs>
    <style>
      .cls-1, .cls-2, .cls-3 {
        fill: none;
      }

      .cls-1, .cls-3 {
        stroke: #000;
      }

      .cls-1, .cls-2 {
        stroke-miterlimit: 10;
        stroke-width: 2px;
      }

      .cls-2 {
        stroke: #c1272d;
        stroke-linecap: round;
      }

      .cls-3 {
        stroke-width: 0.5px;
      }
    </style>
  </defs>
  <title>RectangularPulseTrain</title>
  <g id="Layer_1" data-name="Layer 1">
    <g>
      <line class="cls-1" x1="125" y1="3.95598" x2="125" y2="75"/>
      <polygon points="120.547 12.232 121.864 12.71 125 4.093 128.136 12.71 129.452 12.232 125 0 120.547 12.232"/>
    </g>
    <g>
      <line class="cls-1" y1="75" x2="246.04401" y2="75"/>
      <polygon points="237.768 79.453 237.29 78.136 245.907 75 237.29 71.864 237.768 70.548 250 75 237.768 79.453"/>
    </g>
  </g>
  <g id="Layer_2" data-name="Layer 2">
    <polyline class="cls-2" points="111 75 111 25 139 25 139 75"/>
    <polyline class="cls-2" points="186 75 186 25 214 25 214 75"/>
    <polyline class="cls-2" points="36 75 36 25 64 25 64 75"/>
  </g>
  <g id="Layer_3" data-name="Layer 3">
    <g>
      <path d="M128.86621,28.2207a.383.383,0,0,1-.40771-.38379.6047.6047,0,0,1,.52783-.58789.66524.66524,0,0,0-.50391-.21582c-.43164,0-.56347.63575-.65967,1.0791l-.38379,1.94336h.93555c.2041,0,.29981,0,.29981.15577,0,.21582-.11963.21582-.32373.21582h-.9834l-.83985,4.30566c-.084.43164-.57568,2.9502-1.82275,2.9502a.86879.86879,0,0,1-.95947-.79151.61677.61677,0,0,1,.59961-.65967.383.383,0,0,1,.40771.38379.60506.60506,0,0,1-.52783.58789.6032.6032,0,0,0,.48.21582c.43164,0,.5874-.62353.68359-1.03125.07178-.252.1919-.74365.33594-1.4873l.87549-4.47363H125.856c-.18018,0-.29981,0-.29981-.13184,0-.23975.13184-.23975.32373-.23975h.79151l.25195-1.31933c.084-.40772.38379-1.96729,1.55908-1.96729a.88067.88067,0,0,1,.9834.792A.61706.61706,0,0,1,128.86621,28.2207Z" transform="translate(-25 -25)"/>
      <path d="M130.85938,38.22314c-.168,0-.6836-.6958-.9834-1.49951a6.35737,6.35737,0,0,1-.32422-2.0625,11.73673,11.73673,0,0,1,1.6914-5.75683,7.68739,7.68739,0,0,1,2.55469-2.67481.10756.10756,0,0,1,.11963.12012c0,.03564-.01172.04785-.17969.21582-2.87841,2.44678-3.58593,6.896-3.58593,8.52734a4.95618,4.95618,0,0,0,.74365,2.84229.37422.37422,0,0,1,.08349.168A.1134.1134,0,0,1,130.85938,38.22314Z" transform="translate(-25 -25)"/>
      <path d="M135.0835,35.35645a1.01146,1.01146,0,0,1-1.01954-1.07911,1.84431,1.84431,0,0,1,.06006-.4082l.86328-3.44189h-.95947c-.19189,0-.2998,0-.2998-.144,0-.22754.13183-.22754.33593-.22754h1.01954l.46777-1.90722a.50068.50068,0,0,1,.46777-.43164.30055.30055,0,0,1,.32373.31152.72986.72986,0,0,1-.04785.252l-.44385,1.77539h.95948c.19189,0,.2998,0,.2998.14356,0,.228-.13183.228-.33594.228h-1.01953l-.8872,3.562a2.34758,2.34758,0,0,0-.084.61181c0,.1919,0,.4917.32373.4917.6836,0,1.16309-.89941,1.3794-1.47509.0957-.21631.0957-.228.23974-.228.084,0,.17969,0,.17969.12012C136.90625,33.56934,136.29492,35.35645,135.0835,35.35645Z" transform="translate(-25 -25)"/>
      <path d="M139.51123,35.54834a7.692,7.692,0,0,1-2.55469,2.6748.1077.1077,0,0,1-.12011-.12011c0-.03614.0122-.04785.18017-.21582,2.87842-2.44678,3.58594-6.89649,3.58594-8.52735a4.96,4.96,0,0,0-.74365-2.84228.37313.37313,0,0,1-.084-.168.11328.11328,0,0,1,.12012-.12012c.16748,0,.68359.6958.9834,1.499a6.36239,6.36239,0,0,1,.32373,2.063A11.74306,11.74306,0,0,1,139.51123,35.54834Z" transform="translate(-25 -25)"/>
    </g>
    <path d="M268.49219,116.35645a1.01117,1.01117,0,0,1-1.01953-1.07911,1.82174,1.82174,0,0,1,.05957-.4082l.86328-3.44189h-.96c-.19141,0-.29883,0-.29883-.14405,0-.22754.13086-.22754.33594-.22754h1.01953l.46679-1.90722a.50175.50175,0,0,1,.46875-.43164.30042.30042,0,0,1,.32325.31152.72986.72986,0,0,1-.04785.252l-.44336,1.77539h.959c.19141,0,.2998,0,.2998.14356,0,.228-.13183.228-.33593.228h-1.01953l-.8877,3.562a2.34784,2.34784,0,0,0-.084.61181c0,.1919,0,.4917.32422.4917.68359,0,1.16308-.89941,1.3789-1.47509.0957-.21631.0957-.228.24024-.228.084,0,.17968,0,.17968.12012C270.31445,114.56934,269.70313,116.35645,268.49219,116.35645Z" transform="translate(-25 -25)"/>
    <path d="M162.78027,45.67432c-.4082,0-.83984-.03614-1.25976-.03614-.45606,0-.93555.03614-1.37891.03614-.03613,0-.18066,0-.18066-.144,0-.22754.14453-.22754.27636-.22754.51563,0,.80372-.144.80372-.38378l-.13184-1.99122H158.1748l-.86425,1.51123a1.13266,1.13266,0,0,0-.168.45557c0,.37207.43164.396.5039.4082.09571.01172.19239.01172.19239.14356,0,.228-.15625.228-.21582.228-.36035,0-.74414-.03614-1.11621-.03614-.31153,0-.65918.03614-.959.03614a.13349.13349,0,0,1-.14355-.144s.01172-.21582.14355-.22754a1.5564,1.5564,0,0,0,1.45117-.98388l3.98145-7.01612c.07226-.13183.12012-.21582.3125-.21582.19141,0,.20312.03614.21582.29981l.51562,7.50781c.02344.312.05957.4082.6836.4082.1914,0,.28808,0,.28808.15577C162.99609,45.67432,162.85156,45.67432,162.78027,45.67432Zm-2.17089-7.04-2.23145,3.92187h2.50684Z" transform="translate(-25 -25)"/>
    <path d="M227.77539,107.25342c-.06055,0-.17969,0-.17969-.15625a1.22864,1.22864,0,0,1,.02344-.17969,5.82634,5.82634,0,0,0,.12012-1.07959c0-.74316-.27539-.91113-1.52344-.91113a4.554,4.554,0,0,0-.62305.02392c-.09668.01172-.19238.03565-.27636.39551L223.71,111.79883a.72538.72538,0,0,0-.04883.228c0,.16748.06055.21582.39649.25146.03613,0,.40722.02441.59961.02441h.17968c.17969,0,.29981,0,.29981.13184,0,.23975-.14356.23975-.25195.23975-.61133,0-1.25879-.03614-1.88282-.03614-.61132,0-1.24707.03614-1.85937.03614-.05957,0-.20313,0-.20313-.144,0-.22754.13184-.22754.335-.22754h.19239c1.05566,0,1.16308-.12011,1.27148-.54l1.60645-6.44043a.91853.91853,0,0,0,.04882-.26368c0-.084,0-.13183-.27636-.13183H223.71c-1.54785,0-1.88379.25146-2.44726,1.94287-.12012.31152-.13184.32373-.15528.34766a.17245.17245,0,0,1-.13281.03613c-.03516,0-.17969,0-.17969-.13184a.72583.72583,0,0,1,.06055-.2041l.707-2.147c.07227-.21582.1084-.21582.34766-.21582h6.15332c.1914,0,.2998,0,.2998.144a.646.646,0,0,1-.01269.15576l-.35938,2.147C227.95508,107.21729,227.93164,107.25342,227.77539,107.25342Z" transform="translate(-25 -25)"/>
    <g>
      <path d="M168.9834,107.376a.82749.82749,0,0,1-.58887.14013h-2.9414l-.84083,4.44043c-.06933.36426-.26562.71436-.71386.71436a.49713.49713,0,0,1-.53223-.49024c0-.084.18164-.64453.28027-.96679l1.14844-3.69776h-1.457a2.376,2.376,0,0,0-2.00293.91065c-.11182.126-.11182.13965-.3081.13965-.084,0-.28028,0-.28028-.1958a4.24382,4.24382,0,0,1,1.0503-1.24659,2.43819,2.43819,0,0,1,1.72363-.67236h5.042c.22461,0,.64453,0,.64453.44824A.69941.69941,0,0,1,168.9834,107.376Z" transform="translate(-25 -25)"/>
      <path d="M166.39746,128.48877H161.2002c0-.33643,0-.36426.15429-.51807l2.68946-2.998a5.01556,5.01556,0,0,0,1.4707-3.09571c0-1.14843-.60254-2.2832-1.87695-2.2832a2.02044,2.02044,0,0,0-1.89112,1.4292.52879.52879,0,0,1,.18213-.01416.70876.70876,0,0,1,.74219.72851.73615.73615,0,1,1-1.4707-.042,2.58807,2.58807,0,0,1,2.61914-2.53564,2.75172,2.75172,0,0,1,2.96972,2.71728c0,1.40088-.83984,2.15723-3.02539,4.09034l-1.48486,1.44287h2.522a4.56984,4.56984,0,0,0,1.33008-.11182,4.60285,4.60285,0,0,0,.30859-1.24707h.34961Z" transform="translate(-25 -25)"/>
      <line class="cls-3" x1="133" y1="91.5" x2="145" y2="91.5"/>
    </g>
    <g>
      <g>
        <path d="M146.9834,107.376a.82749.82749,0,0,1-.58887.14013h-2.9414l-.84083,4.44043c-.06933.36426-.26562.71436-.71386.71436a.49713.49713,0,0,1-.53223-.49024c0-.084.18164-.64453.28027-.96679l1.14844-3.69776h-1.457a2.376,2.376,0,0,0-2.00293.91065c-.11182.126-.11182.13965-.3081.13965-.084,0-.28028,0-.28028-.1958a4.24382,4.24382,0,0,1,1.0503-1.24659,2.43819,2.43819,0,0,1,1.72363-.67236h5.042c.22461,0,.64453,0,.64453.44824A.69941.69941,0,0,1,146.9834,107.376Z" transform="translate(-25 -25)"/>
        <path d="M144.39746,128.48877H139.2002c0-.33643,0-.36426.15429-.51807l2.68946-2.998a5.01556,5.01556,0,0,0,1.4707-3.09571c0-1.14843-.60254-2.2832-1.87695-2.2832a2.02044,2.02044,0,0,0-1.89112,1.4292.52879.52879,0,0,1,.18213-.01416.70876.70876,0,0,1,.74219.72851.73615.73615,0,1,1-1.4707-.042,2.58807,2.58807,0,0,1,2.61914-2.53564,2.75172,2.75172,0,0,1,2.96972,2.71728c0,1.40088-.83984,2.15723-3.02539,4.09034l-1.48486,1.44287h2.522a4.56984,4.56984,0,0,0,1.33008-.11182,4.60285,4.60285,0,0,0,.30859-1.24707h.34961Z" transform="translate(-25 -25)"/>
        <line class="cls-3" x1="111" y1="91.5" x2="123" y2="91.5"/>
      </g>
      <path d="M133.85449,116.91309H126.2207c-.19629,0-.4624,0-.4624-.28028s.26611-.28027.4624-.28027h7.63379c.19629,0,.4624,0,.4624.28027S134.05078,116.91309,133.85449,116.91309Z" transform="translate(-25 -25)"/>
    </g>
  </g>
</svg>
