<?xml version="1.0" encoding="utf-8"?>
<!-- Generator: Adobe Illustrator 23.0.3, SVG Export Plug-In . SVG Version: 6.00 Build 0)  -->
<svg version="1.1" id="Layer_1" xmlns="http://www.w3.org/2000/svg" xmlns:xlink="http://www.w3.org/1999/xlink" x="0px" y="0px"
	 viewBox="0 0 159.99013 114.56885" style="enable-background:new 0 0 159.99013 114.56885;" xml:space="preserve">
<style type="text/css">
	.st0{fill:none;stroke:#8FF4DD;stroke-width:2;stroke-linecap:round;stroke-linejoin:round;}
	.st1{fill:none;stroke:#8FF4DD;stroke-width:2;stroke-linecap:round;}
	.st2{fill:#8FF4DD;stroke:#8FF4DD;stroke-width:2;}
	.st3{fill:#8FF4DD;}
	.st4{fill:none;stroke:#8FF4DD;stroke-width:2;stroke-miterlimit:10;}
	.st5{fill:none;stroke:#FD1D53;}
	.st6{fill:#FD1D53;}
</style>
<title>ReflectedLoad</title>
<path class="st0" d="M53.35742,44.31795c2.46227-0.0034,4.45558-2.00223,4.45218-4.46449
	c-0.0034-2.45746-1.99472-4.44879-4.45218-4.45218V18.23462h-40"/>
<path class="st1" d="M53.35742,53.23462c2.46227-0.0034,4.45558-2.00223,4.45218-4.46449
	c-0.0034-2.45746-1.99472-4.44879-4.45218-4.45218"/>
<path class="st1" d="M53.35742,53.23462c2.46227,0.00223,4.45651,2.00011,4.45428,4.46237
	c-0.00223,2.45911-1.99518,4.45206-4.45428,4.45428"/>
<path class="st0" d="M53.35742,62.15126c2.46227,0.0034,4.45558,2.00223,4.45218,4.46449
	c-0.0034,2.45746-1.99472,4.44879-4.45218,4.45218v17.16666h-40"/>
<g>
	<path class="st0" d="M81.35742,28.23462v7.16664c-2.46227,0.0034-4.45558,2.00223-4.45218,4.46449
		c0.0034,2.45746,1.99472,4.44879,4.45218,4.45218"/>
	<path class="st1" d="M81.35742,53.23462c-2.46227-0.0034-4.45558-2.00223-4.45218-4.46449
		c0.0034-2.45746,1.99472-4.44879,4.45218-4.45218"/>
	<path class="st1" d="M81.35742,53.23462c-2.46227,0.00223-4.45651,2.00011-4.45428,4.46237
		c0.00223,2.45911,1.99518,4.45206,4.45428,4.45428"/>
	<path class="st0" d="M81.35742,62.15126c-2.46227,0.0034-4.45558,2.00223-4.45218,4.46449
		c0.0034,2.45746,1.99472,4.44879,4.45218,4.45218v7.16666"/>
</g>
<circle class="st2" cx="46.35742" cy="35.23462" r="1"/>
<circle class="st2" cx="88.35742" cy="35.23462" r="1"/>
<g>
	<path class="st3" d="M58.08398,0.37158c-0.55077-0.06834-1.06773,0.27948-1.21191,0.81543l-1.67871,6.76465
		c-0.06055,0.22754-0.1084,0.23975-0.24023,0.23975c-0.168,0-0.17969-0.02393-0.23924-0.2041l-2.5791-7.15967l-1.54688,6.17627
		c-0.02916,0.09737-0.04526,0.1982-0.04785,0.2998c0,0.18018,0.02344,0.4917,0.707,0.51611
		c0.14453,0,0.22852,0.01172,0.22852,0.15576c0,0.21582-0.14455,0.21582-0.21582,0.21582c-0.37207,0-0.79201-0.03613-1.1758-0.03613
		c-0.37207,0-0.7793,0.03613-1.13963,0.03613c-0.084,0-0.15527-0.03613-0.15527-0.144c0-0.21582,0.13184-0.22754,0.22754-0.22754
		c0.54633,0.0621,1.05017-0.30173,1.16309-0.83984l1.58299-6.35645c0.01799-0.05035,0.03011-0.10263,0.03613-0.15576
		c0-0.09619-0.64746-0.09619-0.73145-0.09619c-0.22754,0-0.32324,0-0.32324-0.14355c0-0.228,0.13184-0.228,0.32324-0.228h1.49899
		c0.25195,0,0.26367,0.0117,0.33594,0.20361l2.24316,6.23682l1.31934-5.26514c0.02829-0.09357,0.04437-0.1904,0.04787-0.28809
		c0-0.25146-0.0957-0.4917-0.71973-0.51563c-0.1084,0-0.21582-0.01172-0.21582-0.14355c0-0.228,0.15625-0.228,0.21582-0.228
		c0.37207,0,0.7793,0.03564,1.16309,0.03564s0.7793-0.03564,1.15137-0.03564c0.07635-0.0099,0.14629,0.04398,0.15619,0.12033
		c0.00153,0.01176,0.00156,0.02367,0.00006,0.03543C58.26367,0.35986,58.11914,0.37158,58.08398,0.37158z"/>
	<path class="st3" d="M60.23926,9.979h-1.084l-0.42578,1.7334c-0.01738,0.04459-0.02696,0.09181-0.02832,0.13965
		c0,0.063,0,0.11865,0.40527,0.11865c0.13963,0,0.18848,0,0.18848,0.09082c0,0.12601-0.08299,0.12601-0.13281,0.12601
		c-0.27246,0-0.55859-0.021-0.83789-0.021c-0.27246,0-0.55957,0.021-0.8252,0.021c-0.04562,0.00768-0.08884-0.0231-0.09651-0.06874
		c-0.00084-0.00504-0.00124-0.01015-0.00114-0.01526c0-0.13281,0.07715-0.13281,0.18848-0.13281
		c0.47559,0,0.51758-0.05566,0.57326-0.29346l0.94336-3.79492c0.01649-0.0423,0.02606-0.08698,0.02832-0.13232
		c0-0.11914-0.18848-0.11914-0.40527-0.11914c-0.13281,0-0.18848,0-0.18848-0.0835c0-0.13281,0.07617-0.13281,0.18848-0.13281
		h2.09668c0.59808-0.08,1.14778,0.34,1.22777,0.93808c0.00427,0.03189,0.00713,0.06395,0.00856,0.0961
		C61.92458,9.34392,61.14479,9.99841,60.23926,9.979z M60.60254,7.63086h-0.60156c-0.23047,0-0.2793,0-0.3418,0.25146
		l-0.47559,1.91499h0.88086c0.38054,0.01921,0.75047-0.12883,1.0127-0.40527c0.21901-0.33925,0.34682-0.72925,0.37109-1.13232
		c0-0.44722-0.35645-0.62886-0.84567-0.62886H60.60254z"/>
	<path class="st3" d="M67.66699,4.29346c-0.35098-0.00014-0.63539-0.28476-0.63525-0.63574s0.28476-0.63539,0.63574-0.63525
		c0.35078,0.00014,0.63512,0.28447,0.63525,0.63525C68.30048,4.00789,68.01717,4.2912,67.66699,4.29346z M67.66699,8.19145
		c-0.3511,0-0.63574-0.28464-0.63574-0.63574s0.28464-0.63574,0.63574-0.63574s0.63574,0.28464,0.63574,0.63574
		c-0.00229,0.35014-0.2856,0.63342-0.63574,0.6357V8.19145z"/>
	<path class="st3" d="M83.37109,0.37158c-0.55077-0.06834-1.06773,0.27948-1.21191,0.81543l-1.67871,6.76465
		c-0.06055,0.22754-0.1084,0.23975-0.24023,0.23975c-0.168,0-0.17969-0.02393-0.23924-0.2041l-2.57912-7.15967L75.875,7.00391
		c-0.02916,0.09737-0.04526,0.1982-0.04785,0.2998c0,0.18018,0.02344,0.4917,0.707,0.51611
		c0.14453,0,0.22852,0.01172,0.22852,0.15576c0,0.21582-0.14455,0.21582-0.21584,0.21582
		c-0.37207,0-0.79201-0.03613-1.17578-0.03613c-0.37207,0-0.7793,0.03613-1.13963,0.03613c-0.084,0-0.15527-0.03613-0.15527-0.144
		c0-0.21582,0.13184-0.22754,0.22754-0.22754c0.54633,0.0621,1.05017-0.30173,1.16309-0.83984l1.58299-6.35645
		c0.01799-0.05035,0.03011-0.10263,0.03613-0.15576c0-0.09619-0.64746-0.09619-0.73145-0.09619
		c-0.22754,0-0.32324,0-0.32324-0.14355c0-0.228,0.13184-0.228,0.32324-0.228h1.49899c0.25195,0,0.26367,0.0117,0.33594,0.20361
		l2.24316,6.23682l1.31934-5.26514c0.02827-0.09357,0.04436-0.1904,0.04785-0.28809c0-0.25146-0.0957-0.4917-0.71973-0.51563
		c-0.1084,0-0.21582-0.01172-0.21582-0.14355c0-0.228,0.15625-0.228,0.21582-0.228c0.37207,0,0.7793,0.03564,1.16309,0.03564
		s0.7793-0.03564,1.15137-0.03564c0.07635-0.0099,0.14629,0.04398,0.15619,0.12033C83.55217,0.1322,83.5522,0.1441,83.5507,0.15587
		C83.55078,0.35986,83.40625,0.37158,83.37109,0.37158z"/>
	<path class="st3" d="M84.35158,12.34131c-0.41425,0.0257-0.81447-0.15485-1.06934-0.48242
		c-0.06934,0.09082-0.25101,0.31445-0.32813,0.39844c-0.05566,0.06982-0.0625,0.084-0.11133,0.084
		c-0.03966,0.00285-0.07413-0.02698-0.077-0.06664c-0.00008-0.00107-0.00012-0.00212-0.00015-0.00319
		c0.00308-0.03101,0.00996-0.06151,0.02051-0.09082l0.36328-1.46094c0.02832-0.10449,0.04201-0.11865,0.12601-0.11865
		c0.04201,0,0.10547,0,0.10547,0.07715l-0.00781,0.0415c-0.03424,0.1396-0.05292,0.28256-0.05566,0.42627
		c-0.02721,0.51634,0.36931,0.95697,0.88565,0.98418c0.05446,0.00287,0.10905,0.00098,0.16318-0.00566
		c0.66818-0.09044,1.1667-0.66074,1.16701-1.33501c0.00874-0.1805-0.04582-0.35838-0.1543-0.50293
		c-0.11816-0.12601-0.1748-0.147-0.53809-0.25146l-0.3418-0.09814c-0.10193-0.02448-0.20235-0.05479-0.30078-0.09082
		c-0.35641-0.16541-0.57751-0.52985-0.55957-0.92236c0.04126-0.88525,0.73813-1.59973,1.62207-1.66309
		c0.36678-0.01936,0.71494,0.16277,0.9082,0.4751l0.31445-0.39162c0.0625-0.07666,0.06934-0.0835,0.10449-0.0835
		c0.03992-0.00023,0.07339,0.03008,0.07715,0.06982c-0.00119,0.03293-0.00578,0.06566-0.01367,0.09766l-0.36328,1.44678
		c-0.02832,0.11865-0.0498,0.12547-0.12601,0.12547c-0.03516,0-0.10547,0-0.10547-0.06982l0.00781-0.09766
		c0.02618-0.12634,0.03766-0.25529,0.03418-0.38428c0-0.51709-0.19531-0.99268-0.85254-0.99268
		c-0.62357,0.05838-1.10753,0.56949-1.13184,1.19531c-0.02138,0.25928,0.1208,0.50449,0.35645,0.61475
		c0.03516,0.01416,0.252,0.07715,0.38477,0.11182c0.66309,0.1958,0.74707,0.2168,0.92188,0.43359
		c0.15427,0.20523,0.2354,0.45619,0.23047,0.71289C85.99518,11.4619,85.28395,12.24213,84.35158,12.34131z"/>
</g>
<path class="st4" d="M64.17686,44.13525v18"/>
<line class="st4" x1="70.53798" y1="44.13525" x2="70.53798" y2="62.13525"/>
<g>
	<path id="path5036" class="st0" d="M153.43457,68.02414v11.11111v9l-32.07715,0.09937h-40v-10"/>
	<polyline class="st0" points="81.357,28.235 81.357,18.235 110.377,18.235 121.357,18.235 153.435,18.135 153.435,29.135 
		153.435,40.246 	"/>
	<rect id="rect5044" x="147.87901" y="40.24637" class="st0" width="11.11111" height="27.77778"/>
</g>
<g>
	<path class="st3" d="M139.75195,57.49561h-6.36816c-0.26367,0-0.38379,0-0.38379-0.312
		c-0.01178-0.11253,0.02278-0.22501,0.0957-0.31152l4.79785-7.03999h-1.55957c-1.67871,0-2.48242,0.73145-2.57813,2.32666h-0.56348
		l0.14355-2.89063H139.5c0.252,0,0.38379,0,0.38379,0.2998c0.01129,0.10535-0.02361,0.21043-0.0957,0.28809l-4.78516,7.02785
		h1.67871c2.459,0,2.62695-1.46291,2.72266-2.79443h0.56348L139.75195,57.49561z"/>
	<path class="st3" d="M145.00098,59.86325l-0.53125,1.50244c-0.04201,0.11914-0.04883,0.12601-0.20313,0.12601h-2.99023
		c-0.1123,0-0.1748,0-0.1748-0.084c0-0.13281,0.07617-0.13281,0.18848-0.13281c0.47559,0,0.5166-0.05566,0.57324-0.29346
		l0.94336-3.79443c0.01588-0.0426,0.02512-0.0874,0.02734-0.13281c0-0.11916-0.18848-0.11916-0.40527-0.11916
		c-0.13281,0-0.18848,0-0.18848-0.084c0-0.13232,0.09082-0.13232,0.13281-0.13232c0.2793,0,0.57324,0.021,0.85938,0.021
		c0.32227,0,0.65039-0.021,0.96484-0.021c0.02832,0,0.10449,0,0.10449,0.0835c0,0.13281-0.07617,0.13281-0.19531,0.13281h-0.07031
		c-0.56543,0-0.60742,0.06982-0.6709,0.31445l-0.9502,3.80176c-0.01274,0.0506-0.0222,0.10197-0.02832,0.15379
		c0,0.04883,0,0.06982,0.2168,0.06982h0.56641c1.08984,0,1.39063-0.81055,1.61426-1.43262
		c0.04883-0.13281,0.05566-0.15381,0.13965-0.15381c0.02148,0,0.10449,0,0.10449,0.084L145.00098,59.86325z"/>
</g>
<g>
	<polyline class="st5" points="33.35,53.135 6.435,53.135 6.435,98.135 	"/>
	<polygon class="st6" points="30.037,49.045 29.354,49.778 32.966,53.134 29.354,56.492 30.037,57.224 34.435,53.134 	"/>
</g>
<g>
	<path class="st3" d="M6.75195,110.49561H0.38379c-0.26367,0-0.38379,0-0.38379-0.31152
		c-0.01184-0.11255,0.02272-0.22504,0.0957-0.31152l4.79785-7.04001H3.33398c-1.67871,0-2.48242,0.73145-2.57812,2.32617H0.19238
		l0.14356-2.89063h6.16406c0.25195,0,0.38379,0,0.38379,0.2998c0.01137,0.10535-0.02355,0.21048-0.0957,0.28809l-4.78516,7.02826
		h1.67871c2.459,0,2.627-1.46289,2.72266-2.79492h0.56347L6.75195,110.49561z"/>
	<path class="st3" d="M9.09375,114.56885c-0.28894,0.00513-0.52732-0.22498-0.53243-0.51392
		c-0.00027-0.01523,0.00012-0.03046,0.00118-0.04565c0.00977-0.16724,0.0526-0.33087,0.126-0.48145l0.25879-0.69238l0.209-0.58008
		c0.06887-0.15973,0.11142-0.32959,0.126-0.50293c0-0.16113-0.07715-0.19531-0.15332-0.19531
		c-0.40528,0-0.58692,0.64941-0.65039,0.87988c-0.02832,0.09766-0.03516,0.1123-0.126,0.1123c-0.03418,0-0.10449,0-0.10449-0.07031
		c0-0.03516,0.2373-1.07617,0.89453-1.07617c0.28465-0.00595,0.52023,0.21997,0.52619,0.50464
		c0.00038,0.01831-0.00021,0.03665-0.00179,0.05493c-0.00107,0.13458-0.02965,0.26752-0.084,0.39063l-0.44727,1.19531
		c-0.09316,0.2135-0.15437,0.43954-0.18164,0.6709c0,0.18848,0.09766,0.19629,0.15332,0.19629
		c0.40528,0,0.59375-0.6709,0.65039-0.87399c0.02735-0.10449,0.02735-0.11914,0.11817-0.11914c0.04882,0,0.10547,0,0.10547,0.07031
		C9.98145,113.521,9.75098,114.56885,9.09375,114.56885z M9.72266,110.6626c-0.16404,0.00937-0.30463-0.116-0.314-0.28006
		c-0.00039-0.0069-0.00054-0.01379-0.00046-0.02072c0.01685-0.23853,0.20852-0.42725,0.44727-0.44043
		c0.16357-0.00983,0.30413,0.11481,0.31396,0.27838c0.00044,0.00745,0.00061,0.01492,0.0005,0.0224
		C10.15308,110.46069,9.96141,110.64941,9.72266,110.6626z"/>
	<path class="st3" d="M13.02441,114.56885c-0.28773,0.00638-0.52617-0.22171-0.53255-0.50943
		c-0.00037-0.01672,0.00007-0.03345,0.0013-0.05014c0.00359-0.15549,0.0416-0.30823,0.11133-0.44727
		c0.19985-0.49542,0.33604-1.01422,0.40528-1.54395c0-0.14648-0.01368-0.46094-0.32129-0.46094
		c-0.41228,0.05325-0.76843,0.3143-0.94336,0.69141c-0.10776,0.17258-0.17921,0.3653-0.21,0.56641
		c-0.03418,0.15332-0.07618,0.2998-0.11133,0.4541l-0.27923,1.11823c-0.03771,0.1073-0.13824,0.17978-0.25195,0.18164
		c-0.10069,0.00696-0.18793-0.06906-0.19488-0.16974c-0.00027-0.00397-0.00042-0.00793-0.00043-0.0119
		c0.00217-0.03336,0.00908-0.06622,0.0205-0.09766l0.52442-2.09668c0.03005-0.11652,0.04644-0.23615,0.04883-0.35645
		c0-0.07715,0-0.2793-0.18165-0.2793c-0.21679,0-0.3496,0.3418-0.47558,0.83105c-0.03516,0.1543-0.042,0.16113-0.13281,0.16113
		c-0.03418,0-0.1045,0-0.1045-0.07031c0.05222-0.24185,0.12711-0.47824,0.22364-0.70605
		c0.07796-0.21329,0.27612-0.3591,0.50293-0.37012c0.31037,0.00168,0.56663,0.24301,0.58691,0.55273
		c0.22456-0.33487,0.59698-0.54074,1-0.55273c0.36294-0.03833,0.68823,0.22482,0.72656,0.58774
		c0.00488,0.04614,0.00488,0.09268,0,0.13882c-0.07172,0.53632-0.21526,1.06055-0.42675,1.55859
		c-0.06853,0.1673-0.11069,0.34421-0.125,0.52441c0,0.09766,0.00683,0.20313,0.15332,0.20313
		c0.40527,0,0.59375-0.68555,0.65039-0.87399c0.02734-0.10449,0.02734-0.11914,0.11816-0.11914c0.04883,0,0.10547,0,0.10547,0.07031
		C13.91211,113.52783,13.67383,114.56885,13.02441,114.56885z"/>
</g>
</svg>
