<svg id="Layer_1" data-name="Layer 1" xmlns="http://www.w3.org/2000/svg" viewBox="0 0 159.99013 114.56885">
  <defs>
    <style>
      .cls-1, .cls-2, .cls-4, .cls-5 {
        fill: none;
      }

      .cls-1, .cls-2, .cls-3, .cls-4 {
        stroke: #000;
        stroke-width: 2px;
      }

      .cls-1, .cls-2 {
        stroke-linecap: round;
      }

      .cls-1 {
        stroke-linejoin: round;
      }

      .cls-4 {
        stroke-miterlimit: 10;
      }

      .cls-5 {
        stroke: #c1272d;
      }

      .cls-6 {
        fill: #c1272d;
      }
    </style>
  </defs>
  <title>ReflectedLoad</title>
  <path class="cls-1" d="M149.92285,227.1827a4.45834,4.45834,0,0,0,0-8.91667V201.09937h-40" transform="translate(-96.56543 -182.86475)"/>
  <path class="cls-2" d="M149.92285,236.09937a4.45834,4.45834,0,0,0,0-8.91667" transform="translate(-96.56543 -182.86475)"/>
  <path class="cls-2" d="M149.92285,236.09937a4.45833,4.45833,0,0,1,0,8.91666" transform="translate(-96.56543 -182.86475)"/>
  <path class="cls-1" d="M149.92285,245.016a4.45834,4.45834,0,0,1,0,8.91667v17.16667h-40" transform="translate(-96.56543 -182.86475)"/>
  <g>
    <path class="cls-1" d="M177.92285,211.09937V218.266a4.45834,4.45834,0,0,0,0,8.91667" transform="translate(-96.56543 -182.86475)"/>
    <path class="cls-2" d="M177.92285,236.09937a4.45834,4.45834,0,0,1,0-8.91667" transform="translate(-96.56543 -182.86475)"/>
    <path class="cls-2" d="M177.92285,236.09937a4.45833,4.45833,0,0,0,0,8.91666" transform="translate(-96.56543 -182.86475)"/>
    <path class="cls-1" d="M177.92285,245.016a4.45834,4.45834,0,0,0,0,8.91667v7.16667" transform="translate(-96.56543 -182.86475)"/>
  </g>
  <circle class="cls-3" cx="46.35742" cy="35.23462" r="1"/>
  <circle class="cls-3" cx="88.35742" cy="35.23462" r="1"/>
  <g>
    <path d="M154.64941,183.23633a1.11305,1.11305,0,0,0-1.21191.81543l-1.67871,6.76465c-.06055.22754-.1084.23974-.24024.23974-.168,0-.17968-.02392-.23925-.2041l-2.5791-7.15967-1.54688,6.17627a1.14676,1.14676,0,0,0-.04785.29981c0,.18017.02344.4917.707.51611.14453,0,.22852.01172.22852.15576,0,.21582-.14454.21582-.21582.21582-.37207,0-.792-.03613-1.17579-.03613-.37207,0-.77929.03613-1.13964.03613-.084,0-.15528-.03613-.15528-.144,0-.21582.13184-.22754.22754-.22754a1.06546,1.06546,0,0,0,1.16309-.83984l1.583-6.35645a.6965.6965,0,0,0,.03613-.15576c0-.09619-.64746-.09619-.73145-.09619-.22754,0-.32324,0-.32324-.14356,0-.228.13184-.228.32324-.228h1.499c.25195,0,.26367.01171.33593.20361l2.24317,6.23682,1.31933-5.26514a1.13575,1.13575,0,0,0,.04786-.28809c0-.25146-.09571-.4917-.71973-.51562-.1084,0-.21582-.01172-.21582-.14356,0-.228.15625-.228.21582-.228.37207,0,.7793.03564,1.16308.03564s.7793-.03564,1.15137-.03564a.13942.13942,0,0,1,.15625.15576C154.8291,183.22461,154.68457,183.23633,154.64941,183.23633Z" transform="translate(-96.56543 -182.86475)"/>
    <path d="M156.80469,192.84375h-1.084l-.42578,1.7334a.41706.41706,0,0,0-.02832.13965c0,.063,0,.11865.40528.11865.13964,0,.18847,0,.18847.09082,0,.126-.083.126-.13281.126-.27246,0-.55859-.021-.83789-.021-.27246,0-.55957.021-.8252.021a.08378.08378,0,0,1-.09765-.084c0-.13281.07715-.13281.18847-.13281.47559,0,.51758-.05566.57325-.29346l.94336-3.79492a.422.422,0,0,0,.02832-.13232c0-.11914-.18848-.11914-.40528-.11914-.13281,0-.18847,0-.18847-.0835,0-.13281.07617-.13281.18847-.13281h2.09668a1.09257,1.09257,0,0,1,1.23633,1.03418A1.80562,1.80562,0,0,1,156.80469,192.84375Zm.36328-2.34814h-.60156c-.23047,0-.2793,0-.3418.25146l-.47559,1.915h.88086a1.30515,1.30515,0,0,0,1.0127-.40527,2.348,2.348,0,0,0,.37109-1.13233C158.01367,190.67725,157.65723,190.49561,157.168,190.49561Z" transform="translate(-96.56543 -182.86475)"/>
    <path d="M164.23242,187.1582a.6355.6355,0,1,1,.63574-.63574A.63989.63989,0,0,1,164.23242,187.1582Zm0,3.898a.63574.63574,0,1,1,.63574-.63574A.6399.6399,0,0,1,164.23242,191.05615Z" transform="translate(-96.56543 -182.86475)"/>
    <path d="M179.93652,183.23633a1.11305,1.11305,0,0,0-1.21191.81543l-1.67871,6.76465c-.06055.22754-.1084.23974-.24024.23974-.168,0-.17968-.02392-.23925-.2041l-2.57911-7.15967-1.54687,6.17627a1.14676,1.14676,0,0,0-.04785.29981c0,.18017.02344.4917.707.51611.14453,0,.22852.01172.22852.15576,0,.21582-.14454.21582-.21583.21582-.37207,0-.792-.03613-1.17578-.03613-.37207,0-.77929.03613-1.13964.03613-.084,0-.15528-.03613-.15528-.144,0-.21582.13184-.22754.22754-.22754a1.06546,1.06546,0,0,0,1.16309-.83984l1.583-6.35645a.69634.69634,0,0,0,.03614-.15576c0-.09619-.64746-.09619-.73145-.09619-.22754,0-.32324,0-.32324-.14356,0-.228.13184-.228.32324-.228h1.499c.25195,0,.26367.01171.33593.20361l2.24317,6.23682,1.31933-5.26514a1.13575,1.13575,0,0,0,.04785-.28809c0-.25146-.0957-.4917-.71972-.51562-.1084,0-.21582-.01172-.21582-.14356,0-.228.15625-.228.21582-.228.37207,0,.77929.03564,1.16308.03564s.7793-.03564,1.15137-.03564a.13942.13942,0,0,1,.15625.15576C180.11621,183.22461,179.97168,183.23633,179.93652,183.23633Z" transform="translate(-96.56543 -182.86475)"/>
    <path d="M180.917,195.20605a1.25632,1.25632,0,0,1-1.06933-.48242c-.06934.09082-.251.31446-.32813.39844-.05566.06982-.0625.084-.11133.084a.072.072,0,0,1-.07715-.06982.379.379,0,0,1,.02051-.09082l.36328-1.46094c.02832-.10449.042-.11865.126-.11865.042,0,.10547,0,.10547.07715l-.00781.0415a1.94506,1.94506,0,0,0-.05567.42627.93621.93621,0,0,0,1.04883.97852,1.34778,1.34778,0,0,0,1.167-1.335.77536.77536,0,0,0-.15429-.50293c-.11817-.126-.17481-.147-.53809-.25147l-.3418-.09814a2.728,2.728,0,0,1-.30078-.09082.96811.96811,0,0,1-.55957-.92237,1.749,1.749,0,0,1,1.62207-1.66308,1.00568,1.00568,0,0,1,.90821.4751l.31445-.39161c.0625-.07666.06933-.08349.10449-.08349a.07706.07706,0,0,1,.07715.06982.48046.48046,0,0,1-.01367.09766l-.36328,1.44678c-.02832.11865-.04981.12548-.126.12548-.03516,0-.10547,0-.10547-.06982l.00781-.09766a1.67144,1.67144,0,0,0,.03418-.38427c0-.51709-.19531-.99268-.85254-.99268a1.24923,1.24923,0,0,0-1.13183,1.19531.62227.62227,0,0,0,.35644.61475c.03516.01416.252.07715.38477.11182.66308.1958.74707.21679.92187.43359a1.14968,1.14968,0,0,1,.23047.71289A1.85238,1.85238,0,0,1,180.917,195.20605Z" transform="translate(-96.56543 -182.86475)"/>
  </g>
  <path class="cls-4" d="M160.7423,227v18" transform="translate(-96.56543 -182.86475)"/>
  <line class="cls-4" x1="70.53798" y1="44.13525" x2="70.53798" y2="62.13525"/>
  <g>
    <path id="path5036" class="cls-1" d="M250,250.88889V262l0,9-32.07715.09937h-40v-10" transform="translate(-96.56543 -182.86475)"/>
    <polyline class="cls-1" points="81.357 28.235 81.357 18.235 110.377 18.235 121.357 18.235 153.435 18.135 153.435 29.135 153.435 40.246"/>
    <rect id="rect5044" class="cls-1" x="147.87901" y="40.24637" width="11.11111" height="27.77778"/>
  </g>
  <g>
    <path d="M236.31738,240.36035h-6.36816c-.26367,0-.38379,0-.38379-.312a.41613.41613,0,0,1,.0957-.31152l4.79785-7.04h-1.55957c-1.67871,0-2.48242.73144-2.57812,2.32666h-.56348l.14356-2.89063h6.16406c.252,0,.38379,0,.38379.29981a.36606.36606,0,0,1-.0957.28808l-4.78516,7.02784h1.67871c2.459,0,2.62695-1.4629,2.72266-2.79444h.56347Z" transform="translate(-96.56543 -182.86475)"/>
    <path d="M241.56641,242.728l-.53125,1.50244c-.042.11914-.04883.126-.20313.126H237.8418c-.11231,0-.17481,0-.17481-.084,0-.13281.07617-.13281.18848-.13281.47558,0,.5166-.05567.57324-.29346l.94336-3.79443a.442.442,0,0,0,.02734-.13281c0-.11915-.18847-.11915-.40527-.11915-.13281,0-.18848,0-.18848-.084,0-.13232.09082-.13232.13282-.13232.27929,0,.57324.021.85937.021.32227,0,.65039-.021.96485-.021.02832,0,.10449,0,.10449.08349,0,.13281-.07617.13281-.19531.13281h-.07032c-.56543,0-.60742.06983-.6709.31446l-.95019,3.80176a1.21309,1.21309,0,0,0-.02832.1538c0,.04883,0,.06983.2168.06983h.5664c1.08985,0,1.39063-.81055,1.61426-1.43262.04883-.13281.05566-.15381.13965-.15381.02148,0,.10449,0,.10449.084Z" transform="translate(-96.56543 -182.86475)"/>
  </g>
  <g>
    <polyline class="cls-5" points="33.35 53.135 6.435 53.135 6.435 98.135"/>
    <polygon class="cls-6" points="30.037 49.045 29.354 49.778 32.966 53.134 29.354 56.492 30.037 57.224 34.435 53.134 30.037 49.045"/>
  </g>
  <g>
    <path d="M103.31738,293.36035H96.94922c-.26367,0-.38379,0-.38379-.31152a.41561.41561,0,0,1,.0957-.31153l4.79785-7.04H99.89941c-1.67871,0-2.48242.73144-2.57812,2.32617h-.56348l.14356-2.89063h6.16406c.25195,0,.38379,0,.38379.29981a.36555.36555,0,0,1-.0957.28808L98.56836,292.749h1.67871c2.459,0,2.627-1.46289,2.72266-2.79492h.56347Z" transform="translate(-96.56543 -182.86475)"/>
    <path d="M105.65918,297.43359a.52326.52326,0,0,1-.53125-.55957,1.26753,1.26753,0,0,1,.126-.48144l.25879-.69238.209-.58008a1.61155,1.61155,0,0,0,.126-.50293c0-.16114-.07715-.19531-.15332-.19531-.40528,0-.58692.64941-.65039.87988-.02832.09765-.03516.1123-.126.1123-.03418,0-.10449,0-.10449-.07031,0-.03516.2373-1.07617.89453-1.07617a.51552.51552,0,0,1,.52441.55957.98662.98662,0,0,1-.084.39062l-.44727,1.19532a2.3717,2.3717,0,0,0-.18164.67089c0,.18848.09766.19629.15332.19629.40528,0,.59375-.67089.65039-.874.02735-.10449.02735-.11914.11817-.11914.04882,0,.10547,0,.10547.07031C106.54688,296.38574,106.31641,297.43359,105.65918,297.43359Zm.62891-3.90625a.29751.29751,0,0,1-.31446-.30078.47461.47461,0,0,1,.44727-.44043.2967.2967,0,0,1,.31445.30078A.47459.47459,0,0,1,106.28809,293.52734Z" transform="translate(-96.56543 -182.86475)"/>
    <path d="M109.58984,297.43359a.52112.52112,0,0,1-.53125-.55957,1.05176,1.05176,0,0,1,.11133-.44726,6.31527,6.31527,0,0,0,.40528-1.54395c0-.14648-.01368-.46093-.32129-.46093a1.21093,1.21093,0,0,0-.94336.6914,1.49709,1.49709,0,0,0-.21.56641c-.03418.15332-.07618.2998-.11133.4541L107.71,297.252a.2718.2718,0,0,1-.25195.18164.18274.18274,0,0,1-.19531-.18164.35323.35323,0,0,1,.0205-.09765l.52442-2.09668a1.55019,1.55019,0,0,0,.04883-.35645c0-.07715,0-.27929-.18165-.27929-.21679,0-.3496.34179-.47558.83105-.03516.1543-.042.16113-.13281.16113-.03418,0-.1045,0-.1045-.07031a3.94237,3.94237,0,0,1,.22364-.70605.56463.56463,0,0,1,.50293-.37012.59139.59139,0,0,1,.58691.55273,1.2488,1.2488,0,0,1,1-.55273.66081.66081,0,0,1,.72656.72656,6.03379,6.03379,0,0,1-.42675,1.55859,1.74843,1.74843,0,0,0-.125.52442c0,.09765.00683.20312.15332.20312.40527,0,.59375-.68554.65039-.874.02734-.10449.02734-.11914.11816-.11914.04883,0,.10547,0,.10547.07031C110.47754,296.39258,110.23926,297.43359,109.58984,297.43359Z" transform="translate(-96.56543 -182.86475)"/>
  </g>
</svg>
