<?xml version="1.0" encoding="utf-8"?>
<!-- Generator: Adobe Illustrator 23.0.3, SVG Export Plug-In . SVG Version: 6.00 Build 0)  -->
<svg version="1.1" id="Layer_1" xmlns="http://www.w3.org/2000/svg" xmlns:xlink="http://www.w3.org/1999/xlink" x="0px" y="0px"
	 viewBox="0 0 336.27655 88.69844" style="enable-background:new 0 0 336.27655 88.69844;" xml:space="preserve">
<style type="text/css">
	.st0{fill:none;stroke:#8FF4DD;stroke-width:2;stroke-miterlimit:10;}
	.st1{fill:#8FF4DD;}
</style>
<g>
	<g>
		<rect x="32.661" y="31.87656" class="st0" width="45" height="25"/>
		<g>
			<g>
				<path class="st1" d="M52.15221,37.99058c-0.16748-1.69092-0.51563-2.32666-2.24268-2.32666h-1.49902
					c-0.52783,0-0.55176,0.08398-0.55176,0.47998v3.08203h1.05566c1.12695,0,1.24707-0.39551,1.24707-1.40283h0.26367v3.15381
					h-0.26367c0-1.00732-0.12012-1.40283-1.24707-1.40283h-1.05566v2.98633c0,0.43164,0.02393,0.57568,1.06738,0.57568H49.286
					v0.34766c-0.34766-0.02393-1.40332-0.02393-1.82275-0.02393c-0.35986,0-1.42725,0-1.71533,0.02393V43.1361h0.23975
					c0.86377,0,0.89941-0.12012,0.89941-0.56396V36.2279c0-0.44385-0.03564-0.56396-0.89941-0.56396h-0.23975v-0.34766h6.35645
					l0.31201,2.67432h-0.26417V37.99058z"/>
				<path class="st1" d="M56.52184,43.60386v-1.07959c0,0-0.19189,0.45557-0.53955,0.73145
					c-0.4082,0.34814-0.79199,0.34814-0.99561,0.34814c-0.61182,0-1.10352-0.14404-1.39111-0.45605
					c-0.35986-0.39551-0.35986-0.82764-0.35986-1.5708v-1.79932c0-1.06738,0-1.10352-0.91162-1.10352v-0.34766l1.69092-0.13184
					v3.96973c0,0.63574,0.06006,1.19922,1.04346,1.19922c0.89941,0,1.43945-0.85156,1.43945-1.87061v-2.14697
					c0-0.58789-0.09619-0.67188-0.91162-0.67188V38.3265l1.69092-0.13184v4.26953c0,0.58789,0.09619,0.67188,0.91162,0.67188
					v0.34766L56.52184,43.60386z"/>
				<path class="st1" d="M60.14732,43.45982c-0.35986,0-0.94775,0-1.2832,0.02393v-0.34766c0.7793,0,0.91113,0,0.91113-0.54004
					v-6.28418c0-0.58789-0.0957-0.67188-0.91113-0.67188v-0.34766l1.66699-0.13184v7.43555
					c0,0.54004,0.14404,0.54004,0.91162,0.54004v0.34766C61.1068,43.45982,60.50719,43.45982,60.14732,43.45982z"/>
				<path class="st1" d="M63.411,43.45982c-0.35986,0-0.94775,0-1.2832,0.02393v-0.34766c0.7793,0,0.91113,0,0.91113-0.54004
					v-6.28418c0-0.58789-0.0957-0.67188-0.91113-0.67188v-0.34766l1.66699-0.13184v7.43555
					c0,0.54004,0.14404,0.54004,0.91162,0.54004v0.34766C64.37047,43.45982,63.77086,43.45982,63.411,43.45982z"/>
			</g>
			<g>
				<path class="st1" d="M45.49937,53.53257c-0.51563,0-0.88672-0.43164-0.93555-0.99561
					c-0.22754,0.57568-0.76758,1.05566-1.55859,1.05566c-0.73145,0-1.83496-0.2998-1.83496-1.24756
					c0-0.92334,0.91113-1.93066,3.32227-1.9668v-0.47998c0-1.0791-0.70801-1.53516-1.25977-1.53516
					c-0.47949,0-1.05566,0.21582-1.33105,0.71973c0.17969,0,0.61133,0,0.61133,0.4917c0,0.28809-0.20313,0.4917-0.49121,0.4917
					c-0.27637,0-0.50391-0.16797-0.50391-0.51563c0-0.7793,0.75586-1.42725,1.73926-1.42725
					c0.52734,0,1.06738,0.16797,1.4873,0.55176c0.52734,0.46777,0.52734,0.94727,0.52734,1.59521V52.369
					c0,0.18018,0,0.81543,0.45605,0.81543c0.16797,0,0.45508-0.0957,0.45508-0.7793v-0.67188h0.26465v0.67188
					C46.44762,53.3646,45.75133,53.53257,45.49937,53.53257z M44.49254,50.59409c-0.43164,0.02393-2.4707,0.16797-2.4707,1.75098
					c0,0.57568,0.49121,1.00732,1.0791,1.00732c0.51563,0,1.3916-0.39551,1.3916-1.5708
					C44.49254,51.78159,44.49254,50.59409,44.49254,50.59409z"/>
				<path class="st1" d="M51.1273,53.59263v-0.82764c-0.16699,0.22803-0.69531,0.82764-1.60645,0.82764
					c-1.31934,0-2.45898-1.17578-2.45898-2.69873c0-1.53516,1.19922-2.71045,2.59082-2.71045
					c0.73145,0,1.24707,0.41992,1.49902,0.76758v-2.65039c0-0.58789-0.0957-0.67188-0.91113-0.67188V45.2811l1.66699-0.13184
					v7.30371c0,0.58789,0.0957,0.67188,0.91113,0.67188v0.34766L51.1273,53.59263z M51.1273,49.59849
					c0-0.21582,0-0.23975-0.14355-0.44336c-0.12012-0.19238-0.54004-0.73193-1.2832-0.73193
					c-0.59961,0-1.0791,0.37207-1.31934,0.74365c-0.26367,0.396-0.4082,0.87549-0.4082,1.73926
					c0,2.32666,1.2959,2.44629,1.60742,2.44629c0.59961,0,1.0918-0.34766,1.37988-0.76758
					c0.16699-0.26367,0.16699-0.2998,0.16699-0.51563C51.1273,52.06919,51.1273,49.59849,51.1273,49.59849z"/>
				<path class="st1" d="M57.65562,53.59263v-0.82764c-0.16797,0.22803-0.69531,0.82764-1.60742,0.82764
					c-1.31934,0-2.45801-1.17578-2.45801-2.69873c0-1.53516,1.19922-2.71045,2.58984-2.71045c0.73242,0,1.24805,0.41992,1.5,0.76758
					v-2.65039c0-0.58789-0.09668-0.67188-0.91211-0.67188V45.2811l1.66699-0.13184v7.30371
					c0,0.58789,0.0957,0.67188,0.91211,0.67188v0.34766L57.65562,53.59263z M57.65562,49.59849c0-0.21582,0-0.23975-0.14355-0.44336
					c-0.12012-0.19238-0.54004-0.73193-1.28418-0.73193c-0.59961,0-1.0791,0.37207-1.31836,0.74365
					c-0.26465,0.396-0.4082,0.87549-0.4082,1.73926c0,2.32666,1.29492,2.44629,1.60742,2.44629
					c0.59961,0,1.09082-0.34766,1.37891-0.76758c0.16797-0.26367,0.16797-0.2998,0.16797-0.51563
					C57.65563,52.06919,57.65563,49.59849,57.65562,49.59849z"/>
				<path class="st1" d="M62.61266,53.59263c-1.33203,0-2.55469-1.16357-2.55469-2.74658c0-1.4873,1.05469-2.72266,2.42285-2.72266
					c1.45117,0,2.09863,1.12744,2.09863,2.33887c0,0.22803-0.02441,0.22803-0.28809,0.22803H60.9691v0.22754
					c0,2.0752,1.21094,2.41064,1.71484,2.41064s1.30762-0.27588,1.61914-1.2832c0.02441-0.06006,0.04785-0.12012,0.14453-0.12012
					c0.07129,0,0.13184,0.04834,0.13184,0.12012C64.57945,52.29722,64.03941,53.59263,62.61266,53.59263z M62.46812,48.36314
					c-0.33594,0-1.39063,0.21582-1.4873,2.09912h2.85449C63.82359,50.05454,63.75133,48.36314,62.46812,48.36314z"/>
				<path class="st1" d="M68.67223,49.35874c-0.19238,0-0.46777-0.13184-0.46777-0.47949c0-0.32422,0.19141-0.396,0.28809-0.44385
					c-0.04883-0.01221-0.07227-0.01221-0.16797-0.01221c-0.92383,0-1.40332,1.09131-1.40332,2.25488v1.88281
					c0,0.43213,0.02344,0.56396,0.89941,0.56396h0.23926v0.34766c-0.27539-0.02393-1.12695-0.02393-1.45117-0.02393
					c-0.35938,0-1.01855,0-1.35449,0.02393v-0.34766c0.7793,0,0.91113,0,0.91113-0.54004v-3.25
					c0-0.58789-0.0957-0.67188-0.91113-0.67188v-0.34766l1.60645-0.13184v1.33105h0.0127
					c0.07129-0.22754,0.41895-1.33105,1.43848-1.33105c0.51563,0,0.83984,0.33594,0.83984,0.6958
					C69.15172,49.20298,68.91148,49.35874,68.67223,49.35874z"/>
			</g>
		</g>
	</g>
	<g>
		<rect x="107.661" y="31.87656" class="st0" width="45.00001" height="25"/>
		<g>
			<g>
				<path class="st1" d="M127.15221,37.99058c-0.16748-1.69092-0.51563-2.32666-2.24268-2.32666h-1.49902
					c-0.52783,0-0.55176,0.08398-0.55176,0.47998v3.08203h1.05566c1.12695,0,1.24707-0.39551,1.24707-1.40283h0.26367v3.15381
					h-0.26367c0-1.00732-0.12012-1.40283-1.24707-1.40283h-1.05566v2.98633c0,0.43164,0.02393,0.57568,1.06738,0.57568h0.35986
					v0.34766c-0.34766-0.02393-1.40332-0.02393-1.82275-0.02393c-0.35986,0-1.42725,0-1.71533,0.02393V43.1361h0.23975
					c0.86377,0,0.89941-0.12012,0.89941-0.56396V36.2279c0-0.44385-0.03564-0.56396-0.89941-0.56396h-0.23975v-0.34766h6.35645
					l0.31201,2.67432h-0.26417V37.99058z"/>
				<path class="st1" d="M131.52184,43.60386v-1.07959c0,0-0.19189,0.45557-0.53955,0.73145
					c-0.4082,0.34814-0.79199,0.34814-0.99561,0.34814c-0.61182,0-1.10352-0.14404-1.39111-0.45605
					c-0.35986-0.39551-0.35986-0.82764-0.35986-1.5708v-1.79932c0-1.06738,0-1.10352-0.91162-1.10352v-0.34766l1.69092-0.13184
					v3.96973c0,0.63574,0.06006,1.19922,1.04346,1.19922c0.89941,0,1.43945-0.85156,1.43945-1.87061v-2.14697
					c0-0.58789-0.09619-0.67188-0.91162-0.67188V38.3265l1.69092-0.13184v4.26953c0,0.58789,0.09619,0.67188,0.91162,0.67188
					v0.34766L131.52184,43.60386z"/>
				<path class="st1" d="M135.14732,43.45982c-0.35986,0-0.94775,0-1.2832,0.02393v-0.34766c0.7793,0,0.91113,0,0.91113-0.54004
					v-6.28418c0-0.58789-0.0957-0.67188-0.91113-0.67188v-0.34766l1.66699-0.13184v7.43555
					c0,0.54004,0.14404,0.54004,0.91162,0.54004v0.34766C136.1068,43.45982,135.50719,43.45982,135.14732,43.45982z"/>
				<path class="st1" d="M138.411,43.45982c-0.35986,0-0.94775,0-1.2832,0.02393v-0.34766c0.7793,0,0.91113,0,0.91113-0.54004
					v-6.28418c0-0.58789-0.0957-0.67188-0.91113-0.67188v-0.34766l1.66699-0.13184v7.43555
					c0,0.54004,0.14404,0.54004,0.91162,0.54004v0.34766C139.37047,43.45982,138.77086,43.45982,138.411,43.45982z"/>
			</g>
			<g>
				<path class="st1" d="M120.49937,53.53257c-0.51563,0-0.88672-0.43164-0.93555-0.99561
					c-0.22754,0.57568-0.76758,1.05566-1.55859,1.05566c-0.73145,0-1.83496-0.2998-1.83496-1.24756
					c0-0.92334,0.91113-1.93066,3.32227-1.9668v-0.47998c0-1.0791-0.70801-1.53516-1.25977-1.53516
					c-0.47949,0-1.05566,0.21582-1.33105,0.71973c0.17969,0,0.61133,0,0.61133,0.4917c0,0.28809-0.20313,0.4917-0.49121,0.4917
					c-0.27637,0-0.50391-0.16797-0.50391-0.51563c0-0.7793,0.75586-1.42725,1.73926-1.42725
					c0.52734,0,1.06738,0.16797,1.4873,0.55176c0.52734,0.46777,0.52734,0.94727,0.52734,1.59521V52.369
					c0,0.18018,0,0.81543,0.45605,0.81543c0.16797,0,0.45508-0.0957,0.45508-0.7793v-0.67188h0.26465v0.67188
					C121.44762,53.3646,120.75133,53.53257,120.49937,53.53257z M119.49254,50.59409
					c-0.43164,0.02393-2.4707,0.16797-2.4707,1.75098c0,0.57568,0.49121,1.00732,1.0791,1.00732
					c0.51563,0,1.3916-0.39551,1.3916-1.5708V50.59409z"/>
				<path class="st1" d="M126.1273,53.59263v-0.82764c-0.16699,0.22803-0.69531,0.82764-1.60645,0.82764
					c-1.31934,0-2.45898-1.17578-2.45898-2.69873c0-1.53516,1.19922-2.71045,2.59082-2.71045
					c0.73145,0,1.24707,0.41992,1.49902,0.76758v-2.65039c0-0.58789-0.0957-0.67188-0.91113-0.67188V45.2811l1.66699-0.13184
					v7.30371c0,0.58789,0.0957,0.67188,0.91113,0.67188v0.34766L126.1273,53.59263z M126.1273,49.59849
					c0-0.21582,0-0.23975-0.14355-0.44336c-0.12012-0.19238-0.54004-0.73193-1.2832-0.73193
					c-0.59961,0-1.0791,0.37207-1.31934,0.74365c-0.26367,0.396-0.4082,0.87549-0.4082,1.73926
					c0,2.32666,1.2959,2.44629,1.60742,2.44629c0.59961,0,1.0918-0.34766,1.37988-0.76758
					c0.16699-0.26367,0.16699-0.2998,0.16699-0.51563V49.59849z"/>
				<path class="st1" d="M132.65562,53.59263v-0.82764c-0.16797,0.22803-0.69531,0.82764-1.60742,0.82764
					c-1.31934,0-2.45801-1.17578-2.45801-2.69873c0-1.53516,1.19922-2.71045,2.58984-2.71045c0.73242,0,1.24805,0.41992,1.5,0.76758
					v-2.65039c0-0.58789-0.09668-0.67188-0.91211-0.67188V45.2811l1.66699-0.13184v7.30371
					c0,0.58789,0.0957,0.67188,0.91211,0.67188v0.34766L132.65562,53.59263z M132.65562,49.59849
					c0-0.21582,0-0.23975-0.14355-0.44336c-0.12012-0.19238-0.54004-0.73193-1.28418-0.73193
					c-0.59961,0-1.0791,0.37207-1.31836,0.74365c-0.26465,0.396-0.4082,0.87549-0.4082,1.73926
					c0,2.32666,1.29492,2.44629,1.60742,2.44629c0.59961,0,1.09082-0.34766,1.37891-0.76758
					c0.16797-0.26367,0.16797-0.2998,0.16797-0.51563V49.59849z"/>
				<path class="st1" d="M137.61266,53.59263c-1.33203,0-2.55469-1.16357-2.55469-2.74658c0-1.4873,1.05469-2.72266,2.42285-2.72266
					c1.45117,0,2.09863,1.12744,2.09863,2.33887c0,0.22803-0.02441,0.22803-0.28809,0.22803h-3.32227v0.22754
					c0,2.0752,1.21094,2.41064,1.71484,2.41064s1.30762-0.27588,1.61914-1.2832c0.02441-0.06006,0.04785-0.12012,0.14453-0.12012
					c0.07129,0,0.13184,0.04834,0.13184,0.12012C139.57945,52.29722,139.03941,53.59263,137.61266,53.59263z M137.46812,48.36314
					c-0.33594,0-1.39063,0.21582-1.4873,2.09912h2.85449C138.82359,50.05454,138.75133,48.36314,137.46812,48.36314z"/>
				<path class="st1" d="M143.67223,49.35874c-0.19238,0-0.46777-0.13184-0.46777-0.47949c0-0.32422,0.19141-0.396,0.28809-0.44385
					c-0.04883-0.01221-0.07227-0.01221-0.16797-0.01221c-0.92383,0-1.40332,1.09131-1.40332,2.25488v1.88281
					c0,0.43213,0.02344,0.56396,0.89941,0.56396h0.23926v0.34766c-0.27539-0.02393-1.12695-0.02393-1.45117-0.02393
					c-0.35938,0-1.01855,0-1.35449,0.02393v-0.34766c0.7793,0,0.91113,0,0.91113-0.54004v-3.25
					c0-0.58789-0.0957-0.67188-0.91113-0.67188v-0.34766l1.60645-0.13184v1.33105h0.0127
					c0.07129-0.22754,0.41895-1.33105,1.43848-1.33105c0.51563,0,0.83984,0.33594,0.83984,0.6958
					C144.15172,49.20298,143.91148,49.35874,143.67223,49.35874z"/>
			</g>
		</g>
	</g>
	<g>
		<rect x="182.661" y="31.87656" class="st0" width="45" height="25"/>
		<g>
			<g>
				<path class="st1" d="M202.15221,37.99058c-0.16748-1.69092-0.51563-2.32666-2.24268-2.32666h-1.49902
					c-0.52783,0-0.55176,0.08398-0.55176,0.47998v3.08203h1.05566c1.12695,0,1.24707-0.39551,1.24707-1.40283h0.26367v3.15381
					h-0.26367c0-1.00732-0.12012-1.40283-1.24707-1.40283h-1.05566v2.98633c0,0.43164,0.02393,0.57568,1.06738,0.57568h0.35986
					v0.34766c-0.34766-0.02393-1.40332-0.02393-1.82275-0.02393c-0.35986,0-1.42725,0-1.71533,0.02393V43.1361h0.23975
					c0.86377,0,0.89941-0.12012,0.89941-0.56396V36.2279c0-0.44385-0.03564-0.56396-0.89941-0.56396h-0.23975v-0.34766h6.35645
					l0.31201,2.67432h-0.26416V37.99058z"/>
				<path class="st1" d="M206.52184,43.60386v-1.07959c0,0-0.19189,0.45557-0.53955,0.73145
					c-0.4082,0.34814-0.79199,0.34814-0.99561,0.34814c-0.61182,0-1.10352-0.14404-1.39111-0.45605
					c-0.35986-0.39551-0.35986-0.82764-0.35986-1.5708v-1.79932c0-1.06738,0-1.10352-0.91162-1.10352v-0.34766l1.69092-0.13184
					v3.96973c0,0.63574,0.06006,1.19922,1.04346,1.19922c0.89941,0,1.43945-0.85156,1.43945-1.87061v-2.14697
					c0-0.58789-0.09619-0.67188-0.91162-0.67188V38.3265l1.69092-0.13184v4.26953c0,0.58789,0.09619,0.67188,0.91162,0.67188
					v0.34766L206.52184,43.60386z"/>
				<path class="st1" d="M210.14732,43.45982c-0.35986,0-0.94775,0-1.2832,0.02393v-0.34766c0.7793,0,0.91113,0,0.91113-0.54004
					v-6.28418c0-0.58789-0.0957-0.67188-0.91113-0.67188v-0.34766l1.66699-0.13184v7.43555
					c0,0.54004,0.14404,0.54004,0.91162,0.54004v0.34766C211.1068,43.45982,210.50719,43.45982,210.14732,43.45982z"/>
				<path class="st1" d="M213.411,43.45982c-0.35986,0-0.94775,0-1.2832,0.02393v-0.34766c0.7793,0,0.91113,0,0.91113-0.54004
					v-6.28418c0-0.58789-0.0957-0.67188-0.91113-0.67188v-0.34766l1.66699-0.13184v7.43555
					c0,0.54004,0.14404,0.54004,0.91162,0.54004v0.34766C214.37047,43.45982,213.77086,43.45982,213.411,43.45982z"/>
			</g>
			<g>
				<path class="st1" d="M195.49937,53.53257c-0.51563,0-0.88672-0.43164-0.93555-0.99561
					c-0.22754,0.57568-0.76758,1.05566-1.55859,1.05566c-0.73145,0-1.83496-0.2998-1.83496-1.24756
					c0-0.92334,0.91113-1.93066,3.32227-1.9668v-0.47998c0-1.0791-0.70801-1.53516-1.25977-1.53516
					c-0.47949,0-1.05566,0.21582-1.33105,0.71973c0.17969,0,0.61133,0,0.61133,0.4917c0,0.28809-0.20313,0.4917-0.49121,0.4917
					c-0.27637,0-0.50391-0.16797-0.50391-0.51563c0-0.7793,0.75586-1.42725,1.73926-1.42725
					c0.52734,0,1.06738,0.16797,1.4873,0.55176c0.52734,0.46777,0.52734,0.94727,0.52734,1.59521V52.369
					c0,0.18018,0,0.81543,0.45605,0.81543c0.16797,0,0.45508-0.0957,0.45508-0.7793v-0.67188h0.26465v0.67188
					C196.44762,53.3646,195.75133,53.53257,195.49937,53.53257z M194.49254,50.59409
					c-0.43164,0.02393-2.4707,0.16797-2.4707,1.75098c0,0.57568,0.49121,1.00732,1.0791,1.00732
					c0.51563,0,1.3916-0.39551,1.3916-1.5708V50.59409z"/>
				<path class="st1" d="M201.1273,53.59263v-0.82764c-0.16699,0.22803-0.69531,0.82764-1.60645,0.82764
					c-1.31934,0-2.45898-1.17578-2.45898-2.69873c0-1.53516,1.19922-2.71045,2.59082-2.71045
					c0.73145,0,1.24707,0.41992,1.49902,0.76758v-2.65039c0-0.58789-0.0957-0.67188-0.91113-0.67188V45.2811l1.66699-0.13184
					v7.30371c0,0.58789,0.0957,0.67188,0.91113,0.67188v0.34766L201.1273,53.59263z M201.1273,49.59849
					c0-0.21582,0-0.23975-0.14355-0.44336c-0.12012-0.19238-0.54004-0.73193-1.2832-0.73193
					c-0.59961,0-1.0791,0.37207-1.31934,0.74365c-0.26367,0.396-0.4082,0.87549-0.4082,1.73926
					c0,2.32666,1.2959,2.44629,1.60742,2.44629c0.59961,0,1.0918-0.34766,1.37988-0.76758
					c0.16699-0.26367,0.16699-0.2998,0.16699-0.51563V49.59849z"/>
				<path class="st1" d="M207.65562,53.59263v-0.82764c-0.16797,0.22803-0.69531,0.82764-1.60742,0.82764
					c-1.31934,0-2.45801-1.17578-2.45801-2.69873c0-1.53516,1.19922-2.71045,2.58984-2.71045c0.73242,0,1.24805,0.41992,1.5,0.76758
					v-2.65039c0-0.58789-0.09668-0.67188-0.91211-0.67188V45.2811l1.66699-0.13184v7.30371
					c0,0.58789,0.0957,0.67188,0.91211,0.67188v0.34766L207.65562,53.59263z M207.65562,49.59849
					c0-0.21582,0-0.23975-0.14355-0.44336c-0.12012-0.19238-0.54004-0.73193-1.28418-0.73193
					c-0.59961,0-1.0791,0.37207-1.31836,0.74365c-0.26465,0.396-0.4082,0.87549-0.4082,1.73926
					c0,2.32666,1.29492,2.44629,1.60742,2.44629c0.59961,0,1.09082-0.34766,1.37891-0.76758
					c0.16797-0.26367,0.16797-0.2998,0.16797-0.51563V49.59849z"/>
				<path class="st1" d="M212.61266,53.59263c-1.33203,0-2.55469-1.16357-2.55469-2.74658c0-1.4873,1.05469-2.72266,2.42285-2.72266
					c1.45117,0,2.09863,1.12744,2.09863,2.33887c0,0.22803-0.02441,0.22803-0.28809,0.22803h-3.32227v0.22754
					c0,2.0752,1.21094,2.41064,1.71484,2.41064s1.30762-0.27588,1.61914-1.2832c0.02441-0.06006,0.04785-0.12012,0.14453-0.12012
					c0.07129,0,0.13184,0.04834,0.13184,0.12012C214.57945,52.29722,214.03941,53.59263,212.61266,53.59263z M212.46812,48.36314
					c-0.33594,0-1.39063,0.21582-1.4873,2.09912h2.85449C213.82359,50.05454,213.75133,48.36314,212.46812,48.36314z"/>
				<path class="st1" d="M218.67223,49.35874c-0.19238,0-0.46777-0.13184-0.46777-0.47949c0-0.32422,0.19141-0.396,0.28809-0.44385
					c-0.04883-0.01221-0.07227-0.01221-0.16797-0.01221c-0.92383,0-1.40332,1.09131-1.40332,2.25488v1.88281
					c0,0.43213,0.02344,0.56396,0.89941,0.56396h0.23926v0.34766c-0.27539-0.02393-1.12695-0.02393-1.45117-0.02393
					c-0.35938,0-1.01855,0-1.35449,0.02393v-0.34766c0.7793,0,0.91113,0,0.91113-0.54004v-3.25
					c0-0.58789-0.0957-0.67188-0.91113-0.67188v-0.34766l1.60645-0.13184v1.33105h0.0127
					c0.07129-0.22754,0.41895-1.33105,1.43848-1.33105c0.51563,0,0.83984,0.33594,0.83984,0.6958
					C219.15172,49.20298,218.91148,49.35874,218.67223,49.35874z"/>
			</g>
		</g>
	</g>
	<g>
		<rect x="257.66101" y="31.87656" class="st0" width="45" height="25"/>
		<g>
			<g>
				<path class="st1" d="M277.15222,37.99058c-0.16748-1.69092-0.51563-2.32666-2.24268-2.32666h-1.49902
					c-0.52783,0-0.55176,0.08398-0.55176,0.47998v3.08203h1.05566c1.12695,0,1.24707-0.39551,1.24707-1.40283h0.26367v3.15381
					h-0.26367c0-1.00732-0.12012-1.40283-1.24707-1.40283h-1.05566v2.98633c0,0.43164,0.02393,0.57568,1.06738,0.57568h0.35986
					v0.34766c-0.34766-0.02393-1.40332-0.02393-1.82275-0.02393c-0.35986,0-1.42725,0-1.71533,0.02393V43.1361h0.23975
					c0.86377,0,0.89941-0.12012,0.89941-0.56396V36.2279c0-0.44385-0.03564-0.56396-0.89941-0.56396h-0.23975v-0.34766h6.35645
					l0.31201,2.67432h-0.26416V37.99058z"/>
				<path class="st1" d="M281.52185,43.60386v-1.07959c0,0-0.19189,0.45557-0.53955,0.73145
					c-0.4082,0.34814-0.79199,0.34814-0.99561,0.34814c-0.61182,0-1.10352-0.14404-1.39111-0.45605
					c-0.35986-0.39551-0.35986-0.82764-0.35986-1.5708v-1.79932c0-1.06738,0-1.10352-0.91162-1.10352v-0.34766l1.69092-0.13184
					v3.96973c0,0.63574,0.06006,1.19922,1.04346,1.19922c0.89941,0,1.43945-0.85156,1.43945-1.87061v-2.14697
					c0-0.58789-0.09619-0.67188-0.91162-0.67188V38.3265l1.69092-0.13184v4.26953c0,0.58789,0.09619,0.67188,0.91162,0.67188
					v0.34766L281.52185,43.60386z"/>
				<path class="st1" d="M285.14734,43.45982c-0.35986,0-0.94775,0-1.2832,0.02393v-0.34766c0.7793,0,0.91113,0,0.91113-0.54004
					v-6.28418c0-0.58789-0.0957-0.67188-0.91113-0.67188v-0.34766l1.66699-0.13184v7.43555
					c0,0.54004,0.14404,0.54004,0.91162,0.54004v0.34766C286.10681,43.45982,285.5072,43.45982,285.14734,43.45982z"/>
				<path class="st1" d="M288.41101,43.45982c-0.35986,0-0.94775,0-1.2832,0.02393v-0.34766c0.7793,0,0.91113,0,0.91113-0.54004
					v-6.28418c0-0.58789-0.0957-0.67188-0.91113-0.67188v-0.34766l1.66699-0.13184v7.43555
					c0,0.54004,0.14404,0.54004,0.91162,0.54004v0.34766C289.37048,43.45982,288.77087,43.45982,288.41101,43.45982z"/>
			</g>
			<g>
				<path class="st1" d="M270.49939,53.53257c-0.51563,0-0.88672-0.43164-0.93555-0.99561
					c-0.22754,0.57568-0.76758,1.05566-1.55859,1.05566c-0.73145,0-1.83496-0.2998-1.83496-1.24756
					c0-0.92334,0.91113-1.93066,3.32227-1.9668v-0.47998c0-1.0791-0.70801-1.53516-1.25977-1.53516
					c-0.47949,0-1.05566,0.21582-1.33105,0.71973c0.17969,0,0.61133,0,0.61133,0.4917c0,0.28809-0.20313,0.4917-0.49121,0.4917
					c-0.27637,0-0.50391-0.16797-0.50391-0.51563c0-0.7793,0.75586-1.42725,1.73926-1.42725
					c0.52734,0,1.06738,0.16797,1.4873,0.55176c0.52734,0.46777,0.52734,0.94727,0.52734,1.59521V52.369
					c0,0.18018,0,0.81543,0.45605,0.81543c0.16797,0,0.45508-0.0957,0.45508-0.7793v-0.67188h0.26465v0.67188
					C271.44763,53.3646,270.75134,53.53257,270.49939,53.53257z M269.49255,50.59409
					c-0.43164,0.02393-2.4707,0.16797-2.4707,1.75098c0,0.57568,0.49121,1.00732,1.0791,1.00732
					c0.51563,0,1.3916-0.39551,1.3916-1.5708V50.59409z"/>
				<path class="st1" d="M276.12732,53.59263v-0.82764c-0.16699,0.22803-0.69531,0.82764-1.60645,0.82764
					c-1.31934,0-2.45898-1.17578-2.45898-2.69873c0-1.53516,1.19922-2.71045,2.59082-2.71045
					c0.73145,0,1.24707,0.41992,1.49902,0.76758v-2.65039c0-0.58789-0.0957-0.67188-0.91113-0.67188V45.2811l1.66699-0.13184
					v7.30371c0,0.58789,0.0957,0.67188,0.91113,0.67188v0.34766L276.12732,53.59263z M276.12732,49.59849
					c0-0.21582,0-0.23975-0.14355-0.44336c-0.12012-0.19238-0.54004-0.73193-1.2832-0.73193
					c-0.59961,0-1.0791,0.37207-1.31934,0.74365c-0.26367,0.396-0.4082,0.87549-0.4082,1.73926
					c0,2.32666,1.2959,2.44629,1.60742,2.44629c0.59961,0,1.0918-0.34766,1.37988-0.76758
					c0.16699-0.26367,0.16699-0.2998,0.16699-0.51563V49.59849z"/>
				<path class="st1" d="M282.65564,53.59263v-0.82764c-0.16797,0.22803-0.69531,0.82764-1.60742,0.82764
					c-1.31934,0-2.45801-1.17578-2.45801-2.69873c0-1.53516,1.19922-2.71045,2.58984-2.71045c0.73242,0,1.24805,0.41992,1.5,0.76758
					v-2.65039c0-0.58789-0.09668-0.67188-0.91211-0.67188V45.2811l1.66699-0.13184v7.30371
					c0,0.58789,0.0957,0.67188,0.91211,0.67188v0.34766L282.65564,53.59263z M282.65564,49.59849
					c0-0.21582,0-0.23975-0.14355-0.44336c-0.12012-0.19238-0.54004-0.73193-1.28418-0.73193
					c-0.59961,0-1.0791,0.37207-1.31836,0.74365c-0.26465,0.396-0.4082,0.87549-0.4082,1.73926
					c0,2.32666,1.29492,2.44629,1.60742,2.44629c0.59961,0,1.09082-0.34766,1.37891-0.76758
					c0.16797-0.26367,0.16797-0.2998,0.16797-0.51563V49.59849z"/>
				<path class="st1" d="M287.61267,53.59263c-1.33203,0-2.55469-1.16357-2.55469-2.74658c0-1.4873,1.05469-2.72266,2.42285-2.72266
					c1.45117,0,2.09863,1.12744,2.09863,2.33887c0,0.22803-0.02441,0.22803-0.28809,0.22803h-3.32227v0.22754
					c0,2.0752,1.21094,2.41064,1.71484,2.41064s1.30762-0.27588,1.61914-1.2832c0.02441-0.06006,0.04785-0.12012,0.14453-0.12012
					c0.07129,0,0.13184,0.04834,0.13184,0.12012C289.57947,52.29722,289.03943,53.59263,287.61267,53.59263z M287.46814,48.36314
					c-0.33594,0-1.39063,0.21582-1.4873,2.09912h2.85449C288.82361,50.05454,288.75134,48.36314,287.46814,48.36314z"/>
				<path class="st1" d="M293.67224,49.35874c-0.19238,0-0.46777-0.13184-0.46777-0.47949c0-0.32422,0.19141-0.396,0.28809-0.44385
					c-0.04883-0.01221-0.07227-0.01221-0.16797-0.01221c-0.92383,0-1.40332,1.09131-1.40332,2.25488v1.88281
					c0,0.43213,0.02344,0.56396,0.89941,0.56396h0.23926v0.34766c-0.27539-0.02393-1.12695-0.02393-1.45117-0.02393
					c-0.35938,0-1.01855,0-1.35449,0.02393v-0.34766c0.7793,0,0.91113,0,0.91113-0.54004v-3.25
					c0-0.58789-0.0957-0.67188-0.91113-0.67188v-0.34766l1.60645-0.13184v1.33105h0.0127
					c0.07129-0.22754,0.41895-1.33105,1.43848-1.33105c0.51563,0,0.83984,0.33594,0.83984,0.6958
					C294.15173,49.20298,293.9115,49.35874,293.67224,49.35874z"/>
			</g>
		</g>
	</g>
</g>
<g>
	<g>
		<g>
			<line class="st0" x1="308.86255" y1="44.37656" x2="323.16101" y2="44.37656"/>
			<g>
				<polygon class="st1" points="310.24957,46.41026 302.66101,44.37656 310.24957,42.34287 				"/>
			</g>
		</g>
	</g>
	<g>
		<g>
			<line class="st0" x1="257.66101" y1="44.37656" x2="233.86256" y2="44.37656"/>
			<g>
				<polygon class="st1" points="235.24956,42.34287 227.661,44.37656 235.24956,46.41026 				"/>
			</g>
		</g>
	</g>
	<g>
		<g>
			<line class="st0" x1="182.661" y1="44.37656" x2="158.86256" y2="44.37656"/>
			<g>
				<polygon class="st1" points="160.24956,42.34287 152.661,44.37656 160.24956,46.41026 				"/>
			</g>
		</g>
	</g>
	<g>
		<g>
			<line class="st0" x1="107.661" y1="44.37656" x2="83.86255" y2="44.37656"/>
			<g>
				<polygon class="st1" points="85.24957,42.34287 77.661,44.37656 85.24957,46.41026 				"/>
			</g>
		</g>
	</g>
	<g>
		<g>
			<line class="st0" x1="32.661" y1="44.37656" x2="18.36255" y2="44.37656"/>
			<g>
				<polygon class="st1" points="19.74957,42.34287 12.161,44.37656 19.74957,46.41026 				"/>
			</g>
		</g>
	</g>
	<line class="st0" x1="280.16101" y1="57.37656" x2="280.16101" y2="77.37656"/>
	<line class="st0" x1="205.161" y1="57.37656" x2="205.161" y2="77.37656"/>
	<line class="st0" x1="130.161" y1="57.37656" x2="130.161" y2="77.37656"/>
	<line class="st0" x1="55.161" y1="57.37656" x2="55.161" y2="77.37656"/>
	<line class="st0" x1="46.661" y1="31.37656" x2="46.661" y2="11.37656"/>
	<line class="st0" x1="63.661" y1="31.37656" x2="63.661" y2="11.37656"/>
	<line class="st0" x1="121.661" y1="31.37656" x2="121.661" y2="11.37656"/>
	<line class="st0" x1="138.661" y1="31.37656" x2="138.661" y2="11.37656"/>
	<line class="st0" x1="196.661" y1="31.37656" x2="196.661" y2="11.37656"/>
	<line class="st0" x1="213.661" y1="31.37656" x2="213.661" y2="11.37656"/>
	<line class="st0" x1="271.66101" y1="31.37656" x2="271.66101" y2="11.37656"/>
	<line class="st0" x1="288.66101" y1="31.37656" x2="288.66101" y2="11.37656"/>
</g>
<g id="Layer_3">
	<g>
		<path class="st1" d="M285.94302,4.50937l1.95627-3.27812l0.31876,3.27812H285.94302z M284.75085,5.97031
			c-0.39688,0.66563-0.78436,0.80469-1.22186,0.83438c-0.11877,0.00937-0.20782,0.00937-0.20782,0.19843
			c0,0.05938,0.04843,0.10938,0.12811,0.10938c0.26877,0,0.57657-0.02969,0.85471-0.02969
			c0.32813,0,0.67499,0.02969,0.99374,0.02969c0.05939,0,0.1875,0,0.1875-0.18906c0-0.10938-0.08905-0.11875-0.15781-0.11875
			c-0.22815-0.02032-0.46719-0.1-0.46719-0.34844c0-0.11875,0.05939-0.22813,0.13907-0.36719l0.75467-1.27187h2.49377
			c0.02029,0.20937,0.15936,1.56093,0.15936,1.65937c0,0.29844-0.51718,0.32813-0.71564,0.32813
			c-0.13904,0-0.23904,0-0.23904,0.19843c0,0.10938,0.1203,0.10938,0.13907,0.10938c0.40781,0,0.83435-0.02969,1.24219-0.02969
			c0.24841,0,0.87341,0.02969,1.12186,0.02969c0.06094,0,0.17969,0,0.17969-0.19844c0-0.10937-0.10001-0.10937-0.22812-0.10937
			c-0.61719,0-0.61719-0.07032-0.64688-0.35782l-0.60468-6.20781C288.63522,0.03906,288.63522,0,288.46649,0
			c-0.15939,0-0.19846,0.06875-0.2594,0.16875L284.75085,5.97031z"/>
		<path class="st1" d="M292.3696,8.55625c-0.32343,0-0.75311-0.18906-0.89374-0.76563
			c-0.09845-0.41563-0.09845-0.99219-0.09845-1.5125c0-0.5125,0-1.04687,0.10626-1.43437
			c0.14685-0.55469,0.59686-0.70156,0.88593-0.70156c0.3797,0,0.74533,0.23125,0.87192,0.63906
			c0.11252,0.37969,0.11871,0.88594,0.11871,1.49687c0,0.52032,0,1.04063-0.09061,1.48438
			C293.12897,8.40156,292.65085,8.55625,292.3696,8.55625 M294.00082,6.37031c0-0.77344-0.09219-1.32969-0.41559-1.82187
			c-0.21719-0.32344-0.65314-0.60313-1.21564-0.60313c-1.63126,0-1.63126,1.91875-1.63126,2.425s0,2.38281,1.63126,2.38281
			C294.00082,8.75312,294.00082,6.87656,294.00082,6.37031z"/>
	</g>
	<g>
		<path class="st1" d="M211.09459,4.57968l1.95631-3.27812l0.3187,3.27812H211.09459z M209.90239,6.04062
			c-0.39679,0.66563-0.78429,0.80469-1.22179,0.83438c-0.1188,0.00937-0.2079,0.00937-0.2079,0.19843
			c0,0.05938,0.04849,0.10938,0.12819,0.10938c0.26871,0,0.57651-0.02969,0.85471-0.02969c0.32809,0,0.675,0.02969,0.9937,0.02969
			c0.0594,0,0.1875,0,0.1875-0.18906c0-0.10938-0.0891-0.11875-0.15781-0.11875c-0.22809-0.02032-0.46719-0.1-0.46719-0.34844
			c0-0.11875,0.0594-0.22813,0.1391-0.36719l0.7547-1.27187h2.4937c0.02031,0.20937,0.15941,1.56093,0.15941,1.65937
			c0,0.29844-0.51721,0.32813-0.71561,0.32813c-0.1391,0-0.23911,0-0.23911,0.19843c0,0.10938,0.1203,0.10938,0.13911,0.10938
			c0.40779,0,0.83429-0.02969,1.2421-0.02969c0.24849,0,0.87349,0.02969,1.1219,0.02969c0.06099,0,0.17969,0,0.17969-0.19844
			c0-0.10937-0.09999-0.10937-0.22809-0.10937c-0.6172,0-0.6172-0.07032-0.64691-0.35782l-0.60469-6.20781
			c-0.02031-0.2-0.02031-0.23906-0.189-0.23906c-0.15941,0-0.1985,0.06875-0.25941,0.16875L209.90239,6.04062z"/>
		<path class="st1" d="M217.879,4.2125c0-0.19063-0.0141-0.19688-0.21091-0.19688c-0.45,0.44219-1.0891,0.44844-1.37819,0.44844
			v0.25312c0.16879,0,0.6328,0,1.02029-0.19687v3.58594c0,0.23281,0,0.32344-0.70309,0.32344h-0.26721v0.25312
			c0.1266-0.00625,0.99071-0.02812,1.2516-0.02812c0.21721,0,1.1031,0.02188,1.2578,0.02812V8.42969h-0.2672
			c-0.70309,0-0.70309-0.09063-0.70309-0.32344V4.2125"/>
	</g>
	<g>
		<path class="st1" d="M135.9821,4.57968l1.9563-3.27812l0.3187,3.27812H135.9821z M134.7899,6.04062
			c-0.3968,0.66563-0.7843,0.80469-1.2218,0.83438c-0.1188,0.00937-0.2079,0.00937-0.2079,0.19843
			c0,0.05938,0.04849,0.10938,0.1282,0.10938c0.26869,0,0.57649-0.02969,0.85469-0.02969c0.32809,0,0.675,0.02969,0.9937,0.02969
			c0.0594,0,0.1875,0,0.1875-0.18906c0-0.10938-0.0891-0.11875-0.15779-0.11875c-0.2281-0.02032-0.46721-0.1-0.46721-0.34844
			c0-0.11875,0.0594-0.22813,0.1391-0.36719l0.7547-1.27187h2.49371c0.02029,0.20937,0.15939,1.56093,0.15939,1.65937
			c0,0.29844-0.5172,0.32813-0.71561,0.32813c-0.1391,0-0.23909,0-0.23909,0.19843c0,0.10938,0.1203,0.10938,0.1391,0.10938
			c0.40779,0,0.8343-0.02969,1.2421-0.02969c0.2485,0,0.8735,0.02969,1.1219,0.02969c0.061,0,0.1797,0,0.1797-0.19844
			c0-0.10937-0.10001-0.10937-0.2281-0.10937c-0.6172,0-0.6172-0.07032-0.6469-0.35782l-0.60471-6.20781
			c-0.02029-0.2-0.02029-0.23906-0.189-0.23906c-0.15941,0-0.1985,0.06875-0.2594,0.16875L134.7899,6.04062z"/>
		<path class="st1" d="M143.96179,7.40312h-0.23909c-0.02031,0.15469-0.09061,0.57031-0.1828,0.64063
			c-0.05621,0.04219-0.5968,0.04219-0.69531,0.04219h-1.2937c0.7375-0.65469,0.98431-0.85157,1.4062-1.18126
			c0.52031-0.41562,1.0047-0.85156,1.0047-1.51875c0-0.85156-0.7453-1.37031-1.64529-1.37031
			c-0.8719,0-1.46249,0.61094-1.46249,1.25781c0,0.35782,0.3031,0.39375,0.3734,0.39375c0.16879,0,0.37189-0.12031,0.37189-0.37343
			c0-0.12657-0.0484-0.37188-0.41409-0.37188c0.21719-0.5,0.6954-0.65469,1.0266-0.65469c0.70311,0,1.0688,0.54844,1.0688,1.11875
			c0,0.61094-0.436,1.09688-0.661,1.35l-1.6953,1.67344c-0.0703,0.0625-0.0703,0.07656-0.0703,0.27344h2.8969L143.96179,7.40312"/>
	</g>
	<g>
		<path class="st1" d="M60.95004,4.50937l1.9563-3.27812l0.3187,3.27812H60.95004z M59.75784,5.97031
			c-0.3968,0.66563-0.7843,0.80469-1.2218,0.83438c-0.1188,0.00937-0.20789,0.00937-0.20789,0.19843
			c0,0.05938,0.0485,0.10938,0.1282,0.10938c0.2687,0,0.5765-0.02969,0.8547-0.02969c0.3281,0,0.675,0.02969,0.99371,0.02969
			c0.05939,0,0.1875,0,0.1875-0.18906c0-0.10938-0.0891-0.11875-0.15781-0.11875c-0.2281-0.02032-0.46719-0.1-0.46719-0.34844
			c0-0.11875,0.05939-0.22813,0.1391-0.36719l0.7547-1.27187h2.4937c0.0203,0.20937,0.1594,1.56093,0.1594,1.65937
			c0,0.29844-0.5172,0.32813-0.7156,0.32813c-0.1391,0-0.23911,0-0.23911,0.19843c0,0.10938,0.1203,0.10938,0.1391,0.10938
			c0.40781,0,0.8343-0.02969,1.2421-0.02969c0.2485,0,0.8735,0.02969,1.1219,0.02969c0.061,0,0.1797,0,0.1797-0.19844
			c0-0.10937-0.1-0.10937-0.2281-0.10937c-0.6172,0-0.6172-0.07032-0.6469-0.35782l-0.6047-6.20781
			C63.64224,0.03906,63.64224,0,63.47354,0c-0.15939,0-0.19849,0.06875-0.2594,0.16875L59.75784,5.97031z"/>
		<path class="st1" d="M67.29855,6.26406c0.5484,0,0.9421,0.37969,0.9421,1.13281c0,0.87188-0.5062,1.13126-0.914,1.13126
			c-0.2813,0-0.9-0.07656-1.1953-0.49219c0.3312-0.01406,0.4078-0.24531,0.4078-0.39375c0-0.225-0.1688-0.38594-0.386-0.38594
			c-0.1968,0-0.3937,0.11875-0.3937,0.40781c0,0.66094,0.7312,1.08906,1.5812,1.08906c0.9782,0,1.6532-0.65312,1.6532-1.35625
			c0-0.54843-0.45-1.09687-1.2235-1.25937c0.7375-0.26719,1.0047-0.79375,1.0047-1.22344c0-0.55469-0.639-0.96875-1.4203-0.96875
			c-0.7797,0-1.3781,0.37813-1.3781,0.94063c0,0.23906,0.1547,0.37343,0.3656,0.37343c0.2188,0,0.3594-0.1625,0.3594-0.35937
			c0-0.20313-0.1406-0.35156-0.3594-0.36563c0.24689-0.30937,0.7313-0.38593,0.9922-0.38593
			c0.31561,0,0.7594,0.15468,0.7594,0.76562c0,0.29531-0.0985,0.61875-0.2813,0.8375c-0.2328,0.26719-0.4297,0.28125-0.7812,0.30156
			c-0.175,0.01407-0.18909,0.01407-0.225,0.02188c-0.0141,0-0.0703,0.01406-0.0703,0.09062c0,0.09844,0.064,0.09844,0.1828,0.09844
			L67.29855,6.26406"/>
	</g>
	<g>
		<path class="st1" d="M268.53055,6.64063c-0.1391,0-0.15939,0-0.21881-0.00938c-0.09839-0.01094-0.12808-0.02031-0.12808-0.1
			c0-0.02969,0-0.05,0.04849-0.22812l0.68591-2.77188h1.87808c0.95309,0,1.14221,0.73438,1.14221,1.1625
			c0,0.98281-0.8844,1.94688-2.05621,1.94688L268.53055,6.64063 M268.97745,3.3125l0.6156-2.46406
			c0.09061-0.34688,0.10941-0.37656,0.53751-0.37656h1.28119c0.8735,0,1.08292,0.58593,1.08292,1.02343
			c0,0.87344-0.85471,1.81719-2.0672,1.81719H268.97745z M267.47745,6.17344c-0.09851,0.3875-0.1188,0.46719-0.9032,0.46719
			c-0.1687,0-0.26871,0-0.26871,0.19843c0,0.10938,0.08911,0.10938,0.26871,0.10938h3.54541
			c1.57028,0,2.7421-1.17188,2.7421-2.14531c0-0.71563-0.57651-1.29219-1.539-1.40157
			c1.03281-0.1875,2.07498-0.92343,2.07498-1.86718c0-0.73438-0.65469-1.37032-1.84689-1.37032h-3.33749
			c-0.18909,0-0.28909,0-0.28909,0.19844c0,0.10938,0.0907,0.10938,0.2782,0.10938c0.02029,0,0.20929,0,0.37808,0.02031
			c0.1781,0.01875,0.26871,0.02969,0.26871,0.15781c0,0.04063-0.01089,0.07031-0.04059,0.18906L267.47745,6.17344z"/>
		<path class="st1" d="M275.38525,8.39219c-0.32352,0-0.75311-0.18906-0.8938-0.76563
			c-0.09842-0.41563-0.09842-0.99219-0.09842-1.5125c0-0.5125,0-1.04687,0.1062-1.43437
			c0.14691-0.55469,0.59692-0.70156,0.88602-0.70156c0.3797,0,0.7453,0.23125,0.87189,0.63906
			c0.11252,0.37969,0.11871,0.88594,0.11871,1.49687c0,0.52032,0,1.04063-0.09061,1.48438
			C276.14465,8.2375,275.66644,8.39219,275.38525,8.39219 M277.01645,6.20625c0-0.77344-0.09219-1.32969-0.41559-1.82187
			c-0.21722-0.32344-0.65311-0.60313-1.21561-0.60313c-1.63132,0-1.63132,1.91875-1.63132,2.425s0,2.38281,1.63132,2.38281
			C277.01645,8.58906,277.01645,6.7125,277.01645,6.20625z"/>
	</g>
	<g>
		<path class="st1" d="M193.6821,6.71094c-0.1391,0-0.15941,0-0.2188-0.00938c-0.0984-0.01094-0.12811-0.02031-0.12811-0.1
			c0-0.02969,0-0.05,0.04851-0.22812l0.6859-2.77188h1.8781c0.95311,0,1.1422,0.73438,1.1422,1.1625
			c0,0.98281-0.8844,1.94688-2.0562,1.94688L193.6821,6.71094 M194.129,3.38281l0.6156-2.46406
			c0.09059-0.34688,0.10939-0.37656,0.53749-0.37656h1.2812c0.8735,0,1.0829,0.58593,1.0829,1.02343
			c0,0.87344-0.85471,1.81719-2.0672,1.81719H194.129z M192.629,6.24375c-0.0985,0.3875-0.1188,0.46719-0.9032,0.46719
			c-0.1687,0-0.26871,0-0.26871,0.19843c0,0.10938,0.0891,0.10938,0.26871,0.10938h3.54539c1.5703,0,2.7421-1.17188,2.7421-2.14531
			c0-0.71563-0.57649-1.29219-1.539-1.40157c1.03281-0.1875,2.07501-0.92343,2.07501-1.86718
			c0-0.73438-0.65471-1.37032-1.84691-1.37032h-3.33749c-0.1891,0-0.28911,0-0.28911,0.19844
			c0,0.10938,0.0907,0.10938,0.2782,0.10938c0.02031,0,0.2093,0,0.37811,0.02031c0.1781,0.01875,0.26869,0.02969,0.26869,0.15781
			c0,0.04063-0.01089,0.07031-0.0406,0.18906L192.629,6.24375z"/>
		<path class="st1" d="M200.89459,4.04844c0-0.19063-0.0141-0.19688-0.21089-0.19688C200.23369,4.29375,199.59459,4.3,199.3055,4.3
			v0.25312c0.16879,0,0.6328,0,1.02029-0.19687v3.58594c0,0.23281,0,0.32344-0.70309,0.32344h-0.2672v0.25312
			c0.1266-0.00625,0.99069-0.02812,1.2516-0.02812c0.21719,0,1.10309,0.02188,1.2578,0.02812V8.26563h-0.2672
			c-0.70311,0-0.70311-0.09063-0.70311-0.32344V4.04844"/>
	</g>
	<g>
		<path class="st1" d="M118.5696,6.71094c-0.1391,0-0.1594,0-0.2188-0.00938c-0.0984-0.01094-0.12811-0.02031-0.12811-0.1
			c0-0.02969,0-0.05,0.0485-0.22812l0.68591-2.77188h1.8781c0.9531,0,1.1422,0.73438,1.1422,1.1625
			c0,0.98281-0.8844,1.94688-2.0562,1.94688L118.5696,6.71094 M119.01649,3.38281l0.6156-2.46406
			c0.0906-0.34688,0.1094-0.37656,0.5375-0.37656h1.2812c0.8735,0,1.0829,0.58593,1.0829,1.02343
			c0,0.87344-0.85471,1.81719-2.0672,1.81719H119.01649z M117.51649,6.24375c-0.0985,0.3875-0.1188,0.46719-0.9032,0.46719
			c-0.1687,0-0.2687,0-0.2687,0.19843c0,0.10938,0.0891,0.10938,0.2687,0.10938h3.5454c1.5703,0,2.7421-1.17188,2.7421-2.14531
			c0-0.71563-0.5765-1.29219-1.539-1.40157c1.03281-0.1875,2.075-0.92343,2.075-1.86718c0-0.73438-0.6547-1.37032-1.8469-1.37032
			h-3.3375c-0.18909,0-0.2891,0-0.2891,0.19844c0,0.10938,0.0907,0.10938,0.2782,0.10938c0.0203,0,0.2093,0,0.37811,0.02031
			c0.1781,0.01875,0.2687,0.02969,0.2687,0.15781c0,0.04063-0.0109,0.07031-0.0406,0.18906L117.51649,6.24375z"/>
		<path class="st1" d="M126.97739,7.23906h-0.2391c-0.0203,0.15469-0.0906,0.57031-0.1828,0.64063
			c-0.0562,0.04219-0.5968,0.04219-0.6953,0.04219h-1.2937c0.7375-0.65469,0.9843-0.85156,1.4062-1.18125
			c0.5203-0.41562,1.0047-0.85156,1.0047-1.51875c0-0.85156-0.7453-1.37031-1.64529-1.37031
			c-0.8719,0-1.4625,0.61094-1.4625,1.25781c0,0.35782,0.3031,0.39375,0.3734,0.39375c0.1688,0,0.3719-0.12031,0.3719-0.37343
			c0-0.12657-0.0484-0.37188-0.4141-0.37188c0.2172-0.5,0.6954-0.65469,1.0266-0.65469c0.7031,0,1.0688,0.54844,1.0688,1.11875
			c0,0.61094-0.436,1.09688-0.661,1.35l-1.6953,1.67344c-0.0703,0.0625-0.0703,0.07656-0.0703,0.27344h2.8969L126.97739,7.23906"/>
	</g>
	<g>
		<path class="st1" d="M43.53754,6.64063c-0.1391,0-0.1594,0-0.2188-0.00938c-0.0984-0.01094-0.12811-0.02031-0.12811-0.1
			c0-0.02969,0-0.05,0.0485-0.22812l0.68591-2.77188h1.8781c0.9531,0,1.1422,0.73438,1.1422,1.1625
			c0,0.98281-0.8844,1.94688-2.0562,1.94688L43.53754,6.64063 M43.98444,3.3125l0.6156-2.46406
			c0.0906-0.34688,0.1094-0.37656,0.5375-0.37656h1.2812c0.8735,0,1.0829,0.58593,1.0829,1.02343
			c0,0.87344-0.85471,1.81719-2.0672,1.81719H43.98444z M42.48444,6.17344c-0.0985,0.3875-0.1188,0.46719-0.9032,0.46719
			c-0.1687,0-0.2687,0-0.2687,0.19843c0,0.10938,0.0891,0.10938,0.2687,0.10938h3.5454c1.5703,0,2.7421-1.17188,2.7421-2.14531
			c0-0.71563-0.5765-1.29219-1.539-1.40157c1.03281-0.1875,2.075-0.92343,2.075-1.86718c0-0.73438-0.6547-1.37032-1.8469-1.37032
			h-3.3375c-0.18909,0-0.2891,0-0.2891,0.19844c0,0.10938,0.0907,0.10938,0.2782,0.10938c0.0203,0,0.2093,0,0.37811,0.02031
			c0.1781,0.01875,0.2687,0.02969,0.2687,0.15781c0,0.04063-0.0109,0.07031-0.0406,0.18906L42.48444,6.17344z"/>
		<path class="st1" d="M50.31415,6.1c0.5484,0,0.9421,0.37969,0.9421,1.13281c0,0.87188-0.5062,1.13126-0.914,1.13126
			c-0.2813,0-0.9-0.07656-1.1953-0.49219c0.33121-0.01406,0.40781-0.24531,0.40781-0.39375c0-0.225-0.1688-0.38594-0.386-0.38594
			c-0.1968,0-0.3937,0.11875-0.3937,0.40781c0,0.66094,0.7312,1.08906,1.5812,1.08906c0.9782,0,1.6532-0.65312,1.6532-1.35625
			c0-0.54843-0.45-1.09687-1.2235-1.25937c0.7375-0.26719,1.0047-0.79375,1.0047-1.22344c0-0.55469-0.63901-0.96875-1.4203-0.96875
			c-0.7797,0-1.3781,0.37813-1.3781,0.94063c0,0.23906,0.15469,0.37343,0.3656,0.37343c0.2188,0,0.3594-0.1625,0.3594-0.35937
			c0-0.20313-0.1406-0.35156-0.3594-0.36563c0.24689-0.30937,0.73129-0.38593,0.9922-0.38593
			c0.31561,0,0.7594,0.15468,0.7594,0.76562c0,0.29531-0.0985,0.61875-0.2813,0.8375c-0.2328,0.26719-0.4297,0.28125-0.7812,0.30156
			c-0.175,0.01407-0.18909,0.01407-0.225,0.02188c-0.0141,0-0.0703,0.01406-0.0703,0.09062c0,0.09844,0.064,0.09844,0.1828,0.09844
			L50.31415,6.1"/>
	</g>
	<g>
		<path class="st1" d="M333.09854,41.15313c0-0.02969-0.01999-0.09844-0.10901-0.09844c-0.03,0-0.04099,0.00938-0.14999,0.11875
			l-0.69598,0.76563c-0.08902-0.13906-0.54501-0.88438-1.64801-0.88438c-2.2157,0-4.4501,2.19532-4.4501,4.5
			c0,1.63907,1.17191,2.72188,2.6922,2.72188c0.86401,0,1.6189-0.39688,2.1449-0.85469
			c0.92401-0.81406,1.09302-1.71875,1.09302-1.74844c0-0.09843-0.099-0.09843-0.11902-0.09843c-0.06,0-0.10999,0.01875-0.13,0.09843
			c-0.08899,0.28907-0.31699,0.99375-1.00299,1.57032c-0.68399,0.55625-1.31091,0.725-1.8266,0.725
			c-0.89529,0-1.94839-0.51719-1.94839-2.06719c0-0.56563,0.20938-2.175,1.20309-3.3375
			c0.60471-0.70469,1.53909-1.20156,2.42389-1.20156c1.01202,0,1.60001,0.76562,1.60001,1.91718
			c0,0.39688-0.03198,0.40782-0.03198,0.50625c0,0.1,0.10999,0.1,0.14999,0.1c0.12799,0,0.12799-0.02031,0.17798-0.19843
			L333.09854,41.15313"/>
		<path class="st1" d="M334.64554,49.50156c-0.32401,0-0.75299-0.18906-0.89398-0.76563
			c-0.09802-0.41562-0.09802-0.99218-0.09802-1.5125c0-0.5125,0-1.04687,0.10602-1.43437
			c0.14697-0.55469,0.59698-0.70156,0.88599-0.70156c0.38,0,0.745,0.23125,0.87201,0.63906
			c0.112,0.37969,0.11899,0.88594,0.11899,1.49687c0,0.52032,0,1.04063-0.091,1.48438
			C335.40454,49.34688,334.92654,49.50156,334.64554,49.50156 M336.27655,47.31562c0-0.77344-0.09201-1.32969-0.41501-1.82187
			c-0.21802-0.32344-0.65399-0.60313-1.216-0.60313c-1.63098,0-1.63098,1.91875-1.63098,2.425s0,2.38282,1.63098,2.38282
			C336.27655,49.69844,336.27655,47.82188,336.27655,47.31562z"/>
	</g>
	<g>
		<path class="st1" d="M244.75,33.22344c0-0.02969-0.02-0.09844-0.10901-0.09844c-0.03,0-0.041,0.00938-0.14999,0.11875
			l-0.69601,0.76563c-0.08899-0.13906-0.54498-0.88438-1.64799-0.88438c-2.21599,0-4.45,2.19532-4.45,4.5
			c0,1.63907,1.172,2.72188,2.692,2.72188c0.864,0,1.619-0.39688,2.145-0.85469c0.924-0.81406,1.093-1.71875,1.093-1.74844
			c0-0.09843-0.099-0.09843-0.119-0.09843c-0.06,0-0.11,0.01875-0.13,0.09843c-0.08899,0.28907-0.317,0.99375-1.00299,1.57032
			c-0.68401,0.55625-1.311,0.725-1.82701,0.725c-0.89499,0-1.948-0.51719-1.948-2.06719c0-0.56563,0.209-2.175,1.203-3.3375
			c0.605-0.70469,1.539-1.20156,2.424-1.20156c1.01201,0,1.60001,0.76562,1.60001,1.91718
			c0,0.39688-0.03201,0.40782-0.03201,0.50625c0,0.1,0.11002,0.1,0.15001,0.1c0.12801,0,0.12801-0.02031,0.17799-0.19843
			L244.75,33.22344"/>
		<path class="st1" d="M246.655,37.15782c0-0.19063-0.01401-0.19688-0.21101-0.19688c-0.45,0.44219-1.08899,0.44844-1.37799,0.44844
			v0.25312c0.168,0,0.632,0,1.02-0.19687v3.58593c0,0.23281,0,0.32344-0.703,0.32344h-0.267v0.25312
			C245.242,41.62188,246.106,41.6,246.367,41.6c0.21698,0,1.10298,0.02187,1.258,0.02813V41.375h-0.26701
			c-0.70299,0-0.70299-0.09063-0.70299-0.32344V37.15782"/>
	</g>
	<g>
		<path class="st1" d="M169.6375,33.22344c0-0.02969-0.02-0.09844-0.10899-0.09844c-0.03,0-0.04102,0.00938-0.14999,0.11875
			l-0.69601,0.76563c-0.08899-0.13906-0.545-0.88438-1.64801-0.88438c-2.21597,0-4.44998,2.19532-4.44998,4.5
			c0,1.63907,1.172,2.72188,2.69199,2.72188c0.86401,0,1.619-0.39688,2.145-0.85469c0.924-0.81406,1.093-1.71875,1.093-1.74844
			c0-0.09843-0.099-0.09843-0.119-0.09843c-0.06,0-0.11,0.01875-0.12999,0.09843c-0.089,0.28907-0.31702,0.99375-1.00301,1.57032
			c-0.68401,0.55625-1.31099,0.725-1.82701,0.725c-0.89499,0-1.948-0.51719-1.948-2.06719c0-0.56563,0.20901-2.175,1.203-3.3375
			c0.60501-0.70469,1.539-1.20156,2.42401-1.20156c1.01199,0,1.60001,0.76562,1.60001,1.91718
			c0,0.39688-0.03201,0.40782-0.03201,0.50625c0,0.1,0.11002,0.1,0.14999,0.1c0.12801,0,0.12801-0.02031,0.17801-0.19843
			L169.6375,33.22344"/>
		<path class="st1" d="M172.73749,40.34844h-0.23898c-0.02002,0.15469-0.091,0.57031-0.18301,0.64063
			c-0.056,0.04219-0.59698,0.04219-0.69501,0.04219h-1.29398c0.73799-0.65469,0.98398-0.85157,1.40598-1.18126
			c0.52103-0.41562,1.005-0.85156,1.005-1.51875c0-0.85156-0.745-1.37031-1.64499-1.37031c-0.87201,0-1.463,0.61094-1.463,1.25781
			c0,0.35782,0.30299,0.39375,0.37401,0.39375c0.16798,0,0.37198-0.12031,0.37198-0.37343
			c0-0.12657-0.04898-0.37188-0.41499-0.37188c0.218-0.5,0.696-0.65469,1.02699-0.65469c0.703,0,1.069,0.54844,1.069,1.11875
			c0,0.61094-0.436,1.09688-0.66101,1.35l-1.69498,1.67344c-0.071,0.0625-0.071,0.07656-0.071,0.27344h2.89699L172.73749,40.34844"
			/>
	</g>
	<g>
		<path class="st1" d="M94.6555,33.15313c0-0.02969-0.02-0.09844-0.10899-0.09844c-0.03001,0-0.04102,0.00938-0.15001,0.11875
			l-0.696,0.76563c-0.08899-0.13906-0.545-0.88438-1.64801-0.88438c-2.21599,0-4.45,2.19532-4.45,4.5
			c0,1.63907,1.172,2.72188,2.692,2.72188c0.86401,0,1.619-0.39688,2.145-0.85469c0.924-0.81406,1.093-1.71875,1.093-1.74844
			c0-0.09843-0.099-0.09843-0.119-0.09843c-0.06,0-0.11,0.01875-0.12999,0.09843c-0.089,0.28907-0.31702,0.99375-1.00301,1.57032
			c-0.68401,0.55625-1.311,0.725-1.82701,0.725c-0.89499,0-1.948-0.51719-1.948-2.06719c0-0.56563,0.209-2.175,1.203-3.3375
			c0.605-0.70469,1.539-1.20156,2.42401-1.20156c1.01199,0,1.59999,0.76562,1.59999,1.91718c0,0.39688-0.032,0.40782-0.032,0.50625
			c0,0.1,0.11,0.1,0.14999,0.1c0.12801,0,0.12801-0.02031,0.17801-0.19843L94.6555,33.15313"/>
		<path class="st1" d="M96.02449,39.20937c0.54802,0,0.942,0.37969,0.942,1.13281c0,0.87188-0.50598,1.13125-0.914,1.13125
			c-0.28099,0-0.89999-0.07656-1.19499-0.49219c0.33099-0.01406,0.407-0.24531,0.407-0.39375c0-0.225-0.168-0.38594-0.386-0.38594
			c-0.196,0-0.39299,0.11875-0.39299,0.40781c0,0.66094,0.73099,1.08907,1.58099,1.08907c0.978,0,1.653-0.65313,1.653-1.35625
			c0-0.54843-0.45-1.09687-1.22299-1.25937c0.737-0.26719,1.00398-0.79375,1.00398-1.22344
			c0-0.55469-0.63898-0.96875-1.41998-0.96875c-0.78001,0-1.37801,0.37813-1.37801,0.94063c0,0.23906,0.155,0.37343,0.366,0.37343
			c0.218,0,0.35899-0.1625,0.35899-0.35937c0-0.20313-0.14099-0.35156-0.35899-0.36563c0.246-0.30937,0.731-0.38593,0.992-0.38593
			c0.31499,0,0.759,0.15468,0.759,0.76562c0,0.29531-0.09801,0.61875-0.28101,0.8375
			c-0.233,0.26719-0.42999,0.28125-0.78099,0.30156c-0.175,0.01407-0.18901,0.01407-0.22501,0.02188
			c-0.01401,0-0.071,0.01406-0.071,0.09062c0,0.09844,0.064,0.09844,0.183,0.09844L96.02449,39.20937"/>
	</g>
	<g>
		<path class="st1" d="M7.05299,41.22344c0-0.02969-0.01999-0.09844-0.10899-0.09844c-0.03,0-0.041,0.00938-0.14999,0.11875
			L6.098,42.00938C6.009,41.87032,5.55299,41.125,4.45,41.125c-2.21599,0-4.45,2.19532-4.45,4.5
			c0,1.63907,1.172,2.72188,2.692,2.72188c0.864,0,1.61899-0.39688,2.14499-0.85469
			c0.92401-0.81406,1.09302-1.71875,1.09302-1.74844c0-0.09843-0.099-0.09843-0.11902-0.09843
			c-0.06,0-0.10999,0.01875-0.12999,0.09843c-0.089,0.28907-0.317,0.99375-1.00301,1.57032
			c-0.68399,0.55625-1.31099,0.725-1.827,0.725c-0.89499,0-1.948-0.51719-1.948-2.06719c0-0.56563,0.209-2.175,1.203-3.3375
			c0.605-0.70469,1.539-1.20156,2.424-1.20156c1.01201,0,1.60001,0.76562,1.60001,1.91718
			c0,0.39688-0.03201,0.40782-0.03201,0.50625c0,0.1,0.11002,0.1,0.15001,0.1c0.12799,0,0.12799-0.02031,0.17799-0.19843
			L7.05299,41.22344"/>
		<path class="st1" d="M8.994,45.64844v2.57344H7.13699L8.994,45.64844z M10.32199,48.475v-0.25312H9.54201V45.0875
			c0-0.14843,0-0.19687-0.15501-0.19687c-0.084,0-0.112,0-0.18199,0.09844L6.876,48.22188V48.475h2.068v0.57656
			c0,0.23906,0,0.32344-0.569,0.32344H8.18401v0.25312C8.536,49.61406,8.98599,49.6,9.239,49.6c0.261,0,0.711,0.01406,1.062,0.02813
			V49.375h-0.19c-0.56898,0-0.56898-0.08438-0.56898-0.32344V48.475H10.32199z"/>
	</g>
	<g>
		<path class="st1" d="M281.44647,80.15312c0-0.02969-0.01996-0.09843-0.10999-0.09843c-0.04999,0-0.05899,0.00938-0.17902,0.14844
			l-0.47699,0.56719c-0.258-0.46719-0.77496-0.71563-1.41998-0.71563c-1.26099,0-2.453,1.14219-2.453,2.34375
			c0,0.80469,0.526,1.2625,1.03302,1.41093l1.06198,0.27814c0.367,0.08906,0.914,0.23906,0.914,1.05312
			c0,0.89375-0.814,1.82813-1.78702,1.82813c-0.63599,0-1.73898-0.21875-1.73898-1.45c0-0.23907,0.05002-0.47813,0.05899-0.5375
			c0.01099-0.03907,0.02002-0.05,0.02002-0.06875c0-0.1-0.07001-0.10938-0.11801-0.10938
			c-0.05002,0-0.07101,0.00938-0.10001,0.03906c-0.03998,0.04063-0.59601,2.30469-0.59601,2.33438
			c0,0.05936,0.04901,0.1,0.11002,0.1c0.048,0,0.05899-0.00938,0.17801-0.14844l0.48599-0.56719
			c0.42801,0.57657,1.103,0.71563,1.67899,0.71563c1.35199,0,2.52399-1.32188,2.52399-2.55313
			c0-0.68593-0.33795-1.02343-0.48798-1.1625c-0.228-0.22812-0.37598-0.26875-1.26099-0.49687
			c-0.21802-0.05938-0.57602-0.15781-0.66501-0.17813c-0.26901-0.08906-0.60703-0.37812-0.60703-0.90468
			c0-0.80469,0.79602-1.64844,1.74002-1.64844c0.823,0,1.42899,0.42656,1.42899,1.53905c0,0.31876-0.039,0.49689-0.039,0.55625
			c0,0.01094,0,0.1,0.11902,0.1c0.09998,0,0.10901-0.02969,0.14801-0.19844L281.44647,80.15312"/>
		<path class="st1" d="M283.1355,88.50156c-0.32401,0-0.75299-0.18906-0.89398-0.76563
			c-0.09802-0.41563-0.09802-0.99219-0.09802-1.5125c0-0.5125,0-1.04687,0.10602-1.43437
			c0.14697-0.55469,0.59698-0.70155,0.88599-0.70155c0.38,0,0.745,0.23125,0.87201,0.63905
			c0.112,0.37969,0.11899,0.88594,0.11899,1.49687c0,0.52032,0,1.04063-0.091,1.48438
			C283.8945,88.34688,283.4165,88.50156,283.1355,88.50156 M284.76648,86.31563c0-0.77345-0.09198-1.3297-0.41498-1.82187
			c-0.21802-0.32344-0.65399-0.60313-1.216-0.60313c-1.63098,0-1.63098,1.91875-1.63098,2.425c0,0.50625,0,2.38281,1.63098,2.38281
			S284.76648,86.82188,284.76648,86.31563z"/>
	</g>
	<g>
		<path class="st1" d="M206.59799,80.22344c0-0.02969-0.01999-0.09844-0.11002-0.09844c-0.04999,0-0.05899,0.00938-0.17899,0.14844
			l-0.47699,0.56719c-0.25803-0.46719-0.77499-0.71563-1.42001-0.71563c-1.26099,0-2.453,1.14219-2.453,2.34375
			c0,0.80469,0.526,1.2625,1.03302,1.41093l1.06198,0.27814c0.367,0.08906,0.914,0.23906,0.914,1.05312
			c0,0.89375-0.814,1.82813-1.78699,1.82813c-0.63602,0-1.73901-0.21875-1.73901-1.45c0-0.23907,0.05002-0.47813,0.05899-0.5375
			c0.01102-0.03907,0.02002-0.05,0.02002-0.06875c0-0.1-0.07001-0.10938-0.11801-0.10938
			c-0.04999,0-0.07098,0.00938-0.10001,0.03906c-0.03998,0.04063-0.59598,2.30469-0.59598,2.33438
			c0,0.05936,0.04898,0.1,0.10999,0.1c0.048,0,0.05899-0.00938,0.17801-0.14844l0.48599-0.56719
			c0.42801,0.57657,1.103,0.71563,1.67899,0.71563c1.35202,0,2.52402-1.32188,2.52402-2.55313
			c0-0.68593-0.33798-1.02343-0.48801-1.1625c-0.228-0.22812-0.37598-0.26875-1.26099-0.49687
			c-0.21802-0.05938-0.57602-0.15781-0.66501-0.17813c-0.26901-0.08906-0.60699-0.37812-0.60699-0.90468
			c0-0.80469,0.79599-1.64844,1.73999-1.64844c0.823,0,1.42902,0.42656,1.42902,1.53905c0,0.31876-0.039,0.49689-0.039,0.55625
			c0,0.01094,0,0.1,0.11899,0.1c0.10001,0,0.10901-0.02969,0.14801-0.19843L206.59799,80.22344"/>
		<path class="st1" d="M208.64499,84.15782c0-0.19064-0.01401-0.19688-0.211-0.19688
			c-0.45001,0.44219-1.08899,0.44844-1.37799,0.44844v0.25312c0.168,0,0.63199,0,1.01999-0.19687v3.58594
			c0,0.23281,0,0.32343-0.703,0.32343h-0.267v0.25313c0.12601-0.00625,0.99002-0.02812,1.25101-0.02812
			c0.21698,0,1.103,0.02187,1.258,0.02812V88.375h-0.267c-0.703,0-0.703-0.09062-0.703-0.32343V84.15782"/>
	</g>
	<g>
		<path class="st1" d="M131.48549,80.22344c0-0.02969-0.02-0.09844-0.11-0.09844c-0.05,0-0.05899,0.00938-0.179,0.14844
			l-0.47699,0.56719c-0.25801-0.46719-0.77501-0.71563-1.42001-0.71563c-1.261,0-2.453,1.14219-2.453,2.34375
			c0,0.80469,0.526,1.2625,1.033,1.41093l1.062,0.27814c0.367,0.08906,0.914,0.23906,0.914,1.05312
			c0,0.89375-0.81401,1.82813-1.787,1.82813c-0.636,0-1.739-0.21875-1.739-1.45c0-0.23907,0.04999-0.47813,0.05899-0.5375
			c0.011-0.03907,0.02-0.05,0.02-0.06875c0-0.1-0.07001-0.10938-0.118-0.10938c-0.05,0-0.071,0.00938-0.10001,0.03906
			c-0.04001,0.04063-0.59599,2.30469-0.59599,2.33438c0,0.05936,0.049,0.1,0.11,0.1c0.04799,0,0.05899-0.00938,0.17799-0.14844
			l0.48601-0.56719c0.42798,0.57657,1.10298,0.71563,1.67899,0.71563c1.35201,0,2.524-1.32188,2.524-2.55313
			c0-0.68593-0.338-1.02343-0.48799-1.1625c-0.228-0.22812-0.37601-0.26875-1.26102-0.49687
			c-0.21799-0.05938-0.57599-0.15781-0.66498-0.17813c-0.26901-0.08906-0.60701-0.37812-0.60701-0.90468
			c0-0.80469,0.79599-1.64844,1.74001-1.64844c0.823,0,1.429,0.42656,1.429,1.53905c0,0.31876-0.039,0.49689-0.039,0.55625
			c0,0.01094,0,0.1,0.11899,0.1c0.10001,0,0.10901-0.02969,0.14799-0.19843L131.48549,80.22344"/>
		<path class="st1" d="M134.72749,87.34843h-0.239c-0.02,0.15469-0.091,0.57032-0.183,0.64063
			c-0.05602,0.04218-0.597,0.04218-0.69501,0.04218h-1.29399c0.73799-0.65469,0.98399-0.85156,1.40599-1.18125
			c0.52101-0.41562,1.005-0.85156,1.005-1.51875c0-0.85155-0.745-1.37031-1.645-1.37031c-0.87201,0-1.463,0.61094-1.463,1.25781
			c0,0.35782,0.30299,0.39375,0.37401,0.39375c0.16798,0,0.37199-0.12031,0.37199-0.37343c0-0.12657-0.049-0.37188-0.41501-0.37188
			c0.218-0.5,0.696-0.65469,1.02701-0.65469c0.703,0,1.06898,0.54844,1.06898,1.11874c0,0.61094-0.43599,1.09689-0.661,1.35001
			l-1.69499,1.67344c-0.071,0.0625-0.071,0.07656-0.071,0.27344h2.897L134.72749,87.34843"/>
	</g>
	<g>
		<path class="st1" d="M56.45349,80.15312c0-0.02969-0.02-0.09843-0.11-0.09843c-0.05,0-0.05899,0.00938-0.179,0.14844
			l-0.47699,0.56719c-0.25801-0.46719-0.77501-0.71563-1.42001-0.71563c-1.261,0-2.453,1.14219-2.453,2.34375
			c0,0.80469,0.526,1.2625,1.033,1.41093l1.06201,0.27814c0.367,0.08906,0.914,0.23906,0.914,1.05312
			c0,0.89375-0.81401,1.82813-1.787,1.82813c-0.636,0-1.739-0.21875-1.739-1.45c0-0.23907,0.04999-0.47813,0.05899-0.5375
			c0.011-0.03907,0.02-0.05,0.02-0.06875c0-0.1-0.07001-0.10938-0.118-0.10938c-0.05,0-0.071,0.00938-0.10001,0.03906
			c-0.04001,0.04063-0.59599,2.30469-0.59599,2.33438c0,0.05936,0.049,0.1,0.11,0.1c0.04799,0,0.05899-0.00938,0.17799-0.14844
			l0.48601-0.56719c0.42798,0.57657,1.10298,0.71563,1.67899,0.71563c1.35201,0,2.524-1.32188,2.524-2.55313
			c0-0.68593-0.338-1.02343-0.48799-1.1625c-0.228-0.22812-0.37601-0.26875-1.26102-0.49687
			c-0.21799-0.05938-0.57599-0.15781-0.66498-0.17813c-0.26901-0.08906-0.60701-0.37812-0.60701-0.90468
			c0-0.80469,0.79599-1.64844,1.74001-1.64844c0.823,0,1.429,0.42656,1.429,1.53905c0,0.31876-0.039,0.49689-0.039,0.55625
			c0,0.01094,0,0.1,0.11899,0.1c0.10001,0,0.10901-0.02969,0.14799-0.19844L56.45349,80.15312"/>
		<path class="st1" d="M58.06448,86.20937c0.54802,0,0.942,0.37969,0.942,1.13281c0,0.87188-0.50598,1.13126-0.914,1.13126
			c-0.28099,0-0.89999-0.07657-1.19499-0.49219c0.33099-0.01406,0.407-0.24532,0.407-0.39375c0-0.225-0.168-0.38593-0.386-0.38593
			c-0.196,0-0.39299,0.11874-0.39299,0.40781c0,0.66094,0.73099,1.08907,1.58099,1.08907c0.978,0,1.653-0.65312,1.653-1.35625
			c0-0.54843-0.45-1.09687-1.22299-1.25937c0.737-0.26719,1.00398-0.79375,1.00398-1.22344
			c0-0.55469-0.63898-0.96875-1.41998-0.96875c-0.78001,0-1.37801,0.37813-1.37801,0.94063c0,0.23906,0.155,0.37343,0.366,0.37343
			c0.218,0,0.35899-0.1625,0.35899-0.35937c0-0.20313-0.14099-0.35155-0.35899-0.36563c0.246-0.30936,0.731-0.38593,0.992-0.38593
			c0.31499,0,0.759,0.15468,0.759,0.76562c0,0.29531-0.09801,0.61875-0.28101,0.8375
			c-0.233,0.26719-0.42999,0.28125-0.78099,0.30156c-0.175,0.01407-0.18901,0.01407-0.22501,0.02188
			c-0.01401,0-0.071,0.01406-0.071,0.09061c0,0.09844,0.064,0.09844,0.183,0.09844L58.06448,86.20937"/>
	</g>
</g>
</svg>
