<svg xmlns="http://www.w3.org/2000/svg" viewBox="0 0 409.30566 108.03955">
  <defs>
    <style>
      .cls-1, .cls-2, .cls-3, .cls-4, .cls-5, .cls-6 {
        fill: none;
        stroke: #000;
      }

      .cls-1, .cls-3, .cls-4 {
        stroke-linecap: round;
      }

      .cls-1, .cls-3, .cls-4, .cls-5, .cls-6 {
        stroke-width: 2px;
      }

      .cls-2, .cls-5, .cls-6 {
        stroke-linecap: square;
      }

      .cls-2 {
        stroke-width: 1.5px;
      }

      .cls-3 {
        stroke-linejoin: bevel;
      }

      .cls-4, .cls-6 {
        stroke-linejoin: round;
      }
    </style>
  </defs>
  <title>RLCCircuits</title>
  <g id="Layer_2" data-name="Layer 2">
    <g>
      <g>
        <circle class="cls-1" cx="28.80566" cy="67.94434" r="12.5"/>
        <line class="cls-1" x1="28.80566" y1="54.94434" x2="28.80566" y2="42.94434"/>
        <line class="cls-1" x1="28.80566" y1="80.94434" x2="28.80566" y2="92.94434"/>
        <line class="cls-2" x1="26.30566" y1="60.94434" x2="31.30566" y2="60.94434"/>
        <line class="cls-2" x1="28.80566" y1="63.44434" x2="28.80567" y2="58.44434"/>
        <line class="cls-2" x1="26.30566" y1="75.44434" x2="31.30566" y2="75.44434"/>
      </g>
      <path id="path3970" class="cls-3" d="M75,25h8.33333l2.77778,5.55556,5.55555-11.11111,5.55556,11.11111,5.55556-11.11112,5.55556,11.11111,5.55555-11.11111L116.66667,25H125" transform="translate(-21.19434 -7.05566)"/>
      <g>
        <path class="cls-4" d="M125,25h7.16667a4.45833,4.45833,0,0,1,8.91666,0" transform="translate(-21.19434 -7.05566)"/>
        <path class="cls-1" d="M141.08333,25A4.45834,4.45834,0,0,1,150,25" transform="translate(-21.19434 -7.05566)"/>
        <path class="cls-1" d="M150,25a4.45834,4.45834,0,0,1,8.91667,0" transform="translate(-21.19434 -7.05566)"/>
        <path class="cls-4" d="M158.91667,25a4.45833,4.45833,0,0,1,8.91666,0H175" transform="translate(-21.19434 -7.05566)"/>
      </g>
      <path id="path2791" class="cls-1" d="M200,50V71.875" transform="translate(-21.19434 -7.05566)"/>
      <path id="path2793" class="cls-1" d="M200,78.125V100" transform="translate(-21.19434 -7.05566)"/>
      <path id="path2795" class="cls-5" d="M212.5,71.875h-25" transform="translate(-21.19434 -7.05566)"/>
      <path id="path2797" class="cls-5" d="M212.5,78.125h-25" transform="translate(-21.19434 -7.05566)"/>
      <polyline class="cls-4" points="28.806 42.944 28.806 17.944 53.806 17.944"/>
      <polyline class="cls-4" points="153.806 17.944 178.806 17.944 178.806 42.944"/>
      <path class="cls-4" d="M50,100H200" transform="translate(-21.19434 -7.05566)"/>
      <g>
        <path d="M30.75293,70.79688c-.876,0-.92383.10791-.99609.26367l-3.18946,7.208a.424.424,0,0,1-.48047.28809c-.33593,0-.38378-.09619-.47949-.312l-3.31054-7.44775H21.19434v-.564c.41894.03613,1.42675.03613,1.89453.03613.51562,0,1.667,0,2.123-.03613v.564H24.084l2.55469,5.74462,2.42285-5.457a.515.515,0,0,0,.04786-.144c0-.14355-.94727-.14355-1.05567-.14355v-.564c.46777.03613,1.0918.03613,1.57129.03613l1.35547-.03613v.564Z" transform="translate(-21.19434 -7.05566)"/>
        <path d="M30.41309,82.61035a1.25633,1.25633,0,0,1-1.06934-.48242c-.06934.09082-.251.31445-.32812.39844-.05567.06982-.0625.084-.11133.084a.072.072,0,0,1-.07715-.06982.37847.37847,0,0,1,.02051-.09082l.36328-1.46094c.02832-.10449.042-.11865.126-.11865.042,0,.10547,0,.10547.07715l-.00781.0415a1.94508,1.94508,0,0,0-.05566.42627.9362.9362,0,0,0,1.04882.97851,1.34778,1.34778,0,0,0,1.167-1.335.77534.77534,0,0,0-.1543-.50293c-.11816-.126-.1748-.147-.53809-.25146l-.34179-.09815a2.72583,2.72583,0,0,1-.30078-.09082.96808.96808,0,0,1-.55957-.92236,1.749,1.749,0,0,1,1.62207-1.66308,1.00568,1.00568,0,0,1,.9082.47509l.31445-.3916c.0625-.07666.06934-.08349.10449-.08349a.077.077,0,0,1,.07715.06982.47986.47986,0,0,1-.01367.09766L32.34961,79.144c-.02832.11866-.04981.12549-.126.12549-.03515,0-.10547,0-.10547-.06982l.00782-.09766a1.67214,1.67214,0,0,0,.03418-.38428c0-.51709-.19532-.99267-.85254-.99267a1.24924,1.24924,0,0,0-1.13184,1.19531.62227.62227,0,0,0,.35645.61475c.03515.01416.252.07714.38476.11181.66309.1958.74707.2168.92188.4336a1.14968,1.14968,0,0,1,.23047.71289A1.85238,1.85238,0,0,1,30.41309,82.61035Z" transform="translate(-21.19434 -7.05566)"/>
      </g>
      <path d="M102.55127,15.51074c-.75586,0-1.48731-.38379-1.48731-1.271a4.35122,4.35122,0,0,1,.17969-.95948,4.50635,4.50635,0,0,0,.2041-.94775.99229.99229,0,0,0-1.12744-1.05518H99.0249l-.77929,3.1543a.72077.72077,0,0,0-.04834.23975c0,.10791,0,.2041.6958.2041.23974,0,.32373,0,.32373.15576,0,.21582-.14405.21582-.22754.21582-.46778,0-.96-.03613-1.42725-.03613-.45605,0-.93555.03613-1.3916.03613a.14388.14388,0,0,1-.168-.144c0-.22754.13233-.22754.32422-.22754.81543,0,.88721-.09619.9834-.50391l1.61914-6.5122a.741.741,0,0,0,.04785-.228c0-.2041-.32373-.2041-.6958-.2041-.22754,0-.32373,0-.32373-.144,0-.22754.13184-.22754.32373-.22754h3.1665c1.499,0,2.41065.82764,2.41065,1.77491,0,.87548-.81543,1.91894-2.51856,2.35058a1.45416,1.45416,0,0,1,1.03125,1.3916c0,.25147-.06.7793-.0957,1.05518a7.74631,7.74631,0,0,0-.07226.91162c0,.38379.03613.70752.396.70752.37158,0,.73145-.38379.93555-1.05566.03564-.14356.04785-.20362.20361-.20362.15625,0,.18018.07178.18018.15576C103.91846,14.23975,103.55859,15.51074,102.55127,15.51074Zm-1.71533-8.08349a5.45927,5.45927,0,0,0-.69531.02392c-.084.02442-.18018.04834-.26417.40821l-.77929,3.1538h1.21094a2.51714,2.51714,0,0,0,1.77539-.62353,3.01,3.01,0,0,0,.69531-1.835C102.77881,7.42725,101.60352,7.42725,100.83594,7.42725Z" transform="translate(-21.19434 -7.05566)"/>
      <path d="M152.68311,12.45264l-.91163,2.57861c-.07177.20361-.084.21582-.34765.21582h-5.1333c-.1919,0-.29981,0-.29981-.144,0-.22754.13184-.22754.32373-.22754.81543,0,.8877-.09619.9834-.50391l1.61914-6.5122a.741.741,0,0,0,.04785-.228c0-.2041-.32373-.2041-.69531-.2041-.228,0-.32373,0-.32373-.144,0-.22754.15576-.22754.22754-.22754.48,0,.9834.03614,1.4751.03614.55176,0,1.11572-.03614,1.65527-.03614.04785,0,.17969,0,.17969.14405,0,.22754-.13184.22754-.33545.22754h-.12012c-.97119,0-1.04345.12011-1.15137.54l-1.63085,6.52441a1.99662,1.99662,0,0,0-.04834.26367c0,.084,0,.12012.37207.12012h.97119c1.87109,0,2.38672-1.3916,2.77051-2.459.084-.22754.09619-.26367.24023-.26367.03564,0,.17969,0,.17969.14405Z" transform="translate(-21.19434 -7.05566)"/>
      <path d="M225.23,74.05566c-.04785.20411-.084.21582-.21582.21582-.06006,0-.17969,0-.17969-.12011,0-.03614.06006-.41992.06006-.73145,0-1.043-.43213-2.19433-1.70312-2.19433a3.73347,3.73347,0,0,0-2.84278,1.65429,7.70645,7.70645,0,0,0-1.25927,3.94629,2.08337,2.08337,0,0,0,2.063,2.375,3.53171,3.53171,0,0,0,3.10645-2.79492c.03564-.0957.11963-.0957.19189-.0957.06006,0,.17969,0,.17969.12011,0,.5752-1.30713,3.14161-3.646,3.14161a2.94255,2.94255,0,0,1-2.93848-3.20215c0-2.81836,2.57861-5.5166,5.04931-5.5166a2.007,2.007,0,0,1,1.811,1.01953l.75586-.8877c.10791-.13183.19189-.13183.19189-.13183a.13272.13272,0,0,1,.13184.12011.82913.82913,0,0,1-.02393.168Z" transform="translate(-21.19434 -7.05566)"/>
      <g>
        <path d="M99.07813,115.09521a3.00592,3.00592,0,0,1-2.207-.83935c-.3955.63574-.43164.68359-.43164.68359-.084.13184-.0957.15576-.17968.15576-.13184,0-.13184-.084-.13184-.28759v-2.39893c0-.21582,0-.2998.15625-.2998a.12456.12456,0,0,1,.14355.12011,2.42706,2.42706,0,0,0,.74317,1.84717,2.8954,2.8954,0,0,0,1.89551.64746,1.64444,1.64444,0,0,0,1.60742-1.71484,1.751,1.751,0,0,0-.37207-1.10352,1.59247,1.59247,0,0,0-1.01953-.61181c-.83985-.20362-1.45118-.34766-1.583-.396a2.3233,2.3233,0,0,1,.76758-4.52148,2.46937,2.46937,0,0,1,1.91894.83984l.41992-.68359c.084-.144.09571-.15625.17969-.15625.13184,0,.13184.084.13184.28808v2.41065c0,.228,0,.28759-.15625.28759-.13184,0-.13184-.07177-.14356-.14355-.07226-.54-.33593-2.50684-2.33886-2.50684a1.56773,1.56773,0,0,0-.37207,3.09424l1.53515.37207a2.45383,2.45383,0,0,1,1.79981,2.42237A2.40468,2.40468,0,0,1,99.07813,115.09521Z" transform="translate(-21.19434 -7.05566)"/>
        <path d="M105.10254,114.96338a2.70794,2.70794,0,0,1-2.63867-2.77051,2.62106,2.62106,0,0,1,2.49511-2.73437,2.12725,2.12725,0,0,1,2.14649,2.35058c0,.252-.03613.252-.29981.252H103.459a3.48734,3.48734,0,0,0,.36036,1.79882,1.61462,1.61462,0,0,0,1.35546.80371,1.6902,1.6902,0,0,0,1.61915-1.23535c.02343-.0957.04785-.168.15527-.168a.13935.13935,0,0,1,.15625.14405A2.05011,2.05011,0,0,1,105.10254,114.96338Zm-.14356-5.24121c-.4082,0-1.416.2998-1.4873,2.08691h2.8418C106.31348,111.34131,106.19434,109.72217,104.959,109.72217Z" transform="translate(-21.19434 -7.05566)"/>
        <path d="M111.30664,110.78955a.497.497,0,0,1-.5166-.51562.52024.52024,0,0,1,.27637-.46778.31093.31093,0,0,0-.13184-.01172c-.91211,0-1.415,1.06739-1.415,2.2544V113.896c0,.43164.02344.564.91113.564h.252v.37158c-.47949-.03613-1.04395-.03613-1.52344-.03613l-1.36719.03613V114.46c.80371,0,.93555,0,.93555-.54v-3.21387c0-.58789-.0957-.67187-.93555-.67187v-.37158l1.667-.13233v1.31934a1.67973,1.67973,0,0,1,1.47559-1.31934.81893.81893,0,0,1,.8877.73194A.50364.50364,0,0,1,111.30664,110.78955Z" transform="translate(-21.19434 -7.05566)"/>
        <path d="M113.875,114.79541l-1.31934.03613V114.46c.80372,0,.93555,0,.93555-.54v-3.22607c0-.58789-.1084-.65967-.88769-.65967v-.37158l1.67968-.13233v4.40186c0,.46777.04785.52783.83887.52783v.37158C114.71484,114.81934,114.29492,114.79541,113.875,114.79541Zm-.05957-6.57227a.64754.64754,0,0,1-.63574-.63574.641.641,0,0,1,.64746-.63574.64822.64822,0,0,1,.63574.63574A.64163.64163,0,0,1,113.81543,108.22314Z" transform="translate(-21.19434 -7.05566)"/>
        <path d="M118.4707,114.96338a2.70732,2.70732,0,0,1-2.63867-2.77051,2.62094,2.62094,0,0,1,2.49414-2.73437,2.12725,2.12725,0,0,1,2.14649,2.35058c0,.252-.03516.252-.29981.252h-3.3457a3.49561,3.49561,0,0,0,.35937,1.79882,1.61594,1.61594,0,0,0,1.35547.80371,1.69018,1.69018,0,0,0,1.61914-1.23535c.02442-.0957.04785-.168.15625-.168a.139.139,0,0,1,.15528.14405A2.04865,2.04865,0,0,1,118.4707,114.96338Zm-.14453-5.24121c-.40722,0-1.415.2998-1.4873,2.08691h2.84277C119.68164,111.34131,119.56152,109.72217,118.32617,109.72217Z" transform="translate(-21.19434 -7.05566)"/>
        <path d="M123.21094,114.96338a1.79063,1.79063,0,0,1-1.31934-.51563,2.90735,2.90735,0,0,0-.24023.27588c-.22754.228-.23926.23975-.29981.23975-.13183,0-.13183-.084-.13183-.2876v-1.58349c0-.21583,0-.29981.15625-.29981.12011,0,.13183.04834.168.2041.22753,1.01953.65918,1.70313,1.667,1.70313.93554,0,1.35547-.48,1.35547-1.09131,0-.86377-.98438-1.05567-1.24805-1.10352a3.14212,3.14212,0,0,1-1.583-.55175,1.2794,1.2794,0,0,1-.51562-1.01954c0-.67138.45605-1.47509,1.91894-1.47509a1.84564,1.84564,0,0,1,1.127.33593,1.522,1.522,0,0,0,.2041-.19189c.15625-.144.17968-.144.24023-.144.13184,0,.13184.084.13184.28759v1.21143c0,.228,0,.28809-.15625.28809,0,0-.13184,0-.14356-.10791a1.32336,1.32336,0,0,0-1.40332-1.45118c-1.03125,0-1.34277.4917-1.34277.91114,0,.6958.80273.85156,1.47461.98388a2.44258,2.44258,0,0,1,1.36719.57569,1.54348,1.54348,0,0,1,.5039,1.13916C125.1416,114.16016,124.58984,114.96338,123.21094,114.96338Z" transform="translate(-21.19434 -7.05566)"/>
        <path d="M137.1875,115.09521a2.33653,2.33653,0,0,1-1.51172-.50341c-.49121-.45606-.49121-.93555-.49121-1.71534,0-.80322,0-1.17529-.45605-1.60693a1.528,1.528,0,0,0-1.11524-.40771h-1.3789V113.896c0,.43164.02343.564.94726.564h.28809v.37158c-.43164-.03613-1.28321-.03613-1.751-.03613s-1.31934,0-1.751.03613V114.46h.28711c.92383,0,.94825-.13232.94825-.564v-6.32032c0-.43213-.02442-.564-.94825-.564h-.28711v-.37158h3.76563c1.76269,0,3.12988,1.00732,3.12988,2.15869,0,.93555-.93555,1.667-2.09863,1.95508a2.07764,2.07764,0,0,1,1.46289,1.39111l.15625.95947c.168,1.11524.26367,1.72705.85156,1.72705.29981,0,.71973-.21582.792-1.06738.01172-.084.01172-.19189.14356-.19189.15625,0,.15625.13183.15625.2041C138.32715,114.11182,138.12305,115.09521,137.1875,115.09521Zm-3.98145-8.08349a5.89235,5.89235,0,0,0-.708.02392c-.26367.03614-.26367.18018-.26367.45606v3.106h1.33105c1.77539,0,2.0625-.9712,2.0625-1.79883C135.62793,107.05957,134.28516,107.01172,133.20605,107.01172Z" transform="translate(-21.19434 -7.05566)"/>
        <path d="M145.02441,114.83154h-6.249V114.46h.28809c.92285,0,.94726-.13232.94726-.564v-6.32032c0-.43213-.02441-.564-.94726-.564h-.28809v-.37158c.41992.03564,1.35547.03564,1.82324.03564.49121,0,1.583,0,2.01465-.03564v.37158h-.39551c-1.13964,0-1.13964.168-1.13964.57568V113.98c0,.396.02441.48.58789.48h.98339c2.11036,0,2.27832-1.49951,2.41016-2.72266h.29981Z" transform="translate(-21.19434 -7.05566)"/>
        <path d="M150.72461,115.09521a4.36379,4.36379,0,0,1,0-8.71923,2.9413,2.9413,0,0,1,2.207,1.03173l.59961-.88769c.0957-.144.14453-.144.19238-.144.13184,0,.13184.084.13184.28808v2.84229c0,.252,0,.28808-.19238.28808-.168,0-.168-.03613-.19141-.2041-.24023-1.751-1.30762-2.84228-2.61523-2.84228-.73145,0-3.07032.40771-3.07032,3.99365,0,3.57422,2.35157,3.98193,3.083,3.98193a2.71623,2.71623,0,0,0,2.68652-2.69873c.01172-.11963.01172-.19189.14356-.19189.15625,0,.15625.084.15625.2041A3.13633,3.13633,0,0,1,150.72461,115.09521Z" transform="translate(-21.19434 -7.05566)"/>
      </g>
    </g>
    <g>
      <g>
        <path d="M241.49707,64.42432c-.55176,0-1.72754,0-2.21875.03613V63.897h1.36719V56.79688h-1.36719v-.564c.49121.03613,1.667.03613,2.21875.03613.55078,0,1.72656,0,2.21875-.03613v.564h-1.36719V63.897h1.36719v.56348C243.22363,64.42432,242.04785,64.42432,241.49707,64.42432Z" transform="translate(-21.19434 -7.05566)"/>
        <path d="M246.21777,68.61035a1.25632,1.25632,0,0,1-1.06933-.48242c-.07031.09082-.252.31445-.32813.39844-.05664.06982-.06347.084-.1123.084a.072.072,0,0,1-.07715-.06982.34972.34972,0,0,1,.02148-.09082l.36329-1.46094c.02832-.10449.042-.11865.126-.11865.042,0,.10449,0,.10449.07715l-.00683.0415a1.88663,1.88663,0,0,0-.05567.42627.93546.93546,0,0,0,1.04786.97851,1.347,1.347,0,0,0,1.167-1.335.78148.78148,0,0,0-.15332-.50293c-.11914-.126-.17481-.147-.53809-.25146l-.34277-.09815a2.7946,2.7946,0,0,1-.30078-.09082.96718.96718,0,0,1-.5586-.92236,1.74885,1.74885,0,0,1,1.6211-1.66308,1.00567,1.00567,0,0,1,.9082.47509l.31445-.3916c.06348-.07666.07032-.08349.10547-.08349a.07672.07672,0,0,1,.07617.06982.47986.47986,0,0,1-.01367.09766l-.36328,1.44677c-.02832.11866-.04883.12549-.126.12549-.03515,0-.10449,0-.10449-.06982l.00684-.09766a1.61677,1.61677,0,0,0,.03515-.38428c0-.51709-.19629-.99267-.85254-.99267a1.24933,1.24933,0,0,0-1.13281,1.19531.62227.62227,0,0,0,.35645.61475c.03515.01416.25195.07714.38476.11181.66407.1958.74805.2168.92285.4336a1.14962,1.14962,0,0,1,.23047.71289A1.85318,1.85318,0,0,1,246.21777,68.61035Z" transform="translate(-21.19434 -7.05566)"/>
      </g>
      <g>
        <circle class="cls-4" cx="245.80566" cy="52.72155" r="12.5"/>
        <line class="cls-1" x1="245.80566" y1="39.72155" x2="245.80566" y2="27.72155"/>
        <line class="cls-1" x1="245.80566" y1="65.72155" x2="245.80566" y2="77.72155"/>
        <g>
          <polyline class="cls-6" points="245.806 59.722 245.806 45.722 248.806 48.722"/>
          <line class="cls-6" x1="245.80566" y1="45.72155" x2="242.80566" y2="48.72155"/>
        </g>
        <path id="path3970-2" data-name="path3970" class="cls-3" d="M317,34.77718v8.33334l-5.55556,2.77778,11.11112,5.55555-11.11112,5.55556L322.55556,62.555l-11.11112,5.55556,11.11112,5.55555L317,76.44385v8.33333" transform="translate(-21.19434 -7.05566)"/>
        <g>
          <path class="cls-4" d="M367,34.77722v7.16666a4.45834,4.45834,0,0,1,0,8.91667" transform="translate(-21.19434 -7.05566)"/>
          <path class="cls-1" d="M367,50.86055a4.45834,4.45834,0,0,1,0,8.91667" transform="translate(-21.19434 -7.05566)"/>
          <path class="cls-1" d="M367,59.77722a4.45833,4.45833,0,0,1,0,8.91666" transform="translate(-21.19434 -7.05566)"/>
          <path class="cls-4" d="M367,68.69388a4.45834,4.45834,0,0,1,0,8.91667v7.16667" transform="translate(-21.19434 -7.05566)"/>
        </g>
        <path id="path2791-2" data-name="path2791" class="cls-1" d="M417,34.77722v21.875" transform="translate(-21.19434 -7.05566)"/>
        <path id="path2793-2" data-name="path2793" class="cls-1" d="M417,84.77722v-21.875" transform="translate(-21.19434 -7.05566)"/>
        <path id="path2795-2" data-name="path2795" class="cls-5" d="M429.5,56.65222h-25" transform="translate(-21.19434 -7.05566)"/>
        <path id="path2797-2" data-name="path2797" class="cls-5" d="M429.5,62.90222h-25" transform="translate(-21.19434 -7.05566)"/>
        <g>
          <polyline class="cls-4" points="245.806 27.944 245.806 17.944 295.806 17.944 295.806 27.944 295.806 17.944 345.806 17.944 345.806 27.944"/>
          <polyline class="cls-4" points="345.806 17.944 395.806 17.944 395.806 27.944"/>
          <polyline class="cls-4" points="395.806 77.944 395.806 92.944 345.806 92.944 345.806 77.944"/>
          <polyline class="cls-4" points="345.806 92.944 295.806 92.944 295.806 77.944 295.806 92.944 245.806 92.944 245.806 77.944"/>
        </g>
        <g>
          <path d="M312.14746,111.0415h-2.02637v2.8545c0,.43164.02344.564.94727.564h.28809v.37158c-.41993-.03613-1.31934-.03613-1.7754-.03613s-1.34375,0-1.76269.03613V114.46h.28711c.92383,0,.94824-.13232.94824-.564v-6.32032c0-.43213-.02441-.564-.94824-.564h-.28711v-.37158h4.2334a2.573,2.573,0,0,1,2.83008,2.23047C314.88184,110.07031,313.58691,111.0415,312.14746,111.0415Zm-.40723-4.02978h-1.06738c-.56445,0-.58789.084-.58789.48V110.73h1.65527c1.90625,0,1.90625-1.29541,1.90625-1.85937C313.64648,108.2832,313.64648,107.01172,311.74023,107.01172Z" transform="translate(-21.19434 -7.05566)"/>
          <path d="M320.37988,114.90332a1.00312,1.00312,0,0,1-.93554-.9834,1.66008,1.66008,0,0,1-1.57129,1.04346c-.75586,0-1.91895-.29981-1.91895-1.271a1.74817,1.74817,0,0,1,1.19922-1.55957,5.84765,5.84765,0,0,1,2.207-.43164v-.44385a1.35823,1.35823,0,0,0-1.27148-1.53515,1.68753,1.68753,0,0,0-1.2959.55176c.55176.0122.6123.40771.6123.55175a.55182.55182,0,1,1-1.10351-.01172c0-.792.82715-1.35546,1.81054-1.35546a2.29037,2.29037,0,0,1,1.64356.65966,1.77448,1.77448,0,0,1,.43164,1.415v2.39893c0,.06006.04785.59961.44336.59961.13281,0,.43262-.07178.43262-.76758v-.67187h.2998v.67187A1.01869,1.01869,0,0,1,320.37988,114.90332Zm-1.01953-2.95019c-1.97949.07177-2.4834,1.06738-2.4834,1.727a1.03322,1.03322,0,0,0,1.08008,1.01953,1.441,1.441,0,0,0,1.40332-1.54737Z" transform="translate(-21.19434 -7.05566)"/>
          <path d="M325.41992,110.78955a.49676.49676,0,0,1-.51562-.51562.52185.52185,0,0,1,.27539-.46778.30812.30812,0,0,0-.13184-.01172c-.91113,0-1.415,1.06739-1.415,2.2544V113.896c0,.43164.02442.564.91114.564h.252v.37158c-.47949-.03613-1.043-.03613-1.52246-.03613l-1.36719.03613V114.46c.80273,0,.93555,0,.93555-.54v-3.21387c0-.58789-.09668-.67187-.93555-.67187v-.37158l1.667-.13233v1.31934a1.67961,1.67961,0,0,1,1.47461-1.31934.81893.81893,0,0,1,.8877.73194A.50364.50364,0,0,1,325.41992,110.78955Z" transform="translate(-21.19434 -7.05566)"/>
          <path d="M331.084,114.90332a1.00312,1.00312,0,0,1-.93554-.9834,1.66008,1.66008,0,0,1-1.57129,1.04346c-.75586,0-1.91895-.29981-1.91895-1.271a1.74817,1.74817,0,0,1,1.19922-1.55957,5.84765,5.84765,0,0,1,2.207-.43164v-.44385a1.35823,1.35823,0,0,0-1.27148-1.53515,1.68753,1.68753,0,0,0-1.2959.55176c.55176.0122.61231.40771.61231.55175a.55182.55182,0,1,1-1.10352-.01172c0-.792.82715-1.35546,1.81055-1.35546a2.29036,2.29036,0,0,1,1.64355.65966,1.77448,1.77448,0,0,1,.43164,1.415v2.39893c0,.06006.04785.59961.44336.59961.13281,0,.43262-.07178.43262-.76758v-.67187h.2998v.67187A1.01869,1.01869,0,0,1,331.084,114.90332Zm-1.01953-2.95019c-1.97949.07177-2.4834,1.06738-2.4834,1.727a1.03322,1.03322,0,0,0,1.08008,1.01953,1.441,1.441,0,0,0,1.40332-1.54737Z" transform="translate(-21.19434 -7.05566)"/>
          <path d="M334.001,114.79541l-1.33106.03613V114.46c.80371,0,.93555,0,.93555-.54v-6.23633c0-.58789-.0957-.67187-.93555-.67187v-.37158l1.72754-.13184v7.41162c0,.54.13184.54.93457.54v.37158Z" transform="translate(-21.19434 -7.05566)"/>
          <path d="M337.33691,114.79541l-1.33105.03613V114.46c.80371,0,.93555,0,.93555-.54v-6.23633c0-.58789-.09571-.67187-.93555-.67187v-.37158l1.72754-.13184v7.41162c0,.54.13183.54.93457.54v.37158Z" transform="translate(-21.19434 -7.05566)"/>
          <path d="M341.91992,114.96338a2.70716,2.70716,0,0,1-2.63769-2.77051,2.62029,2.62029,0,0,1,2.49414-2.73437,2.12724,2.12724,0,0,1,2.14648,2.35058c0,.252-.03515.252-.2998.252h-3.34571a3.49552,3.49552,0,0,0,.35938,1.79882,1.61594,1.61594,0,0,0,1.35547.80371,1.69019,1.69019,0,0,0,1.61914-1.23535c.02441-.0957.04785-.168.15625-.168a.139.139,0,0,1,.15527.14405A2.049,2.049,0,0,1,341.91992,114.96338Zm-.14355-5.24121c-.40723,0-1.415.2998-1.48731,2.08691h2.84278C343.13184,111.34131,343.01172,109.72217,341.77637,109.72217Z" transform="translate(-21.19434 -7.05566)"/>
          <path d="M346.001,114.79541l-1.33106.03613V114.46c.80371,0,.93555,0,.93555-.54v-6.23633c0-.58789-.0957-.67187-.93555-.67187v-.37158l1.72754-.13184v7.41162c0,.54.13184.54.93457.54v.37158Z" transform="translate(-21.19434 -7.05566)"/>
          <path d="M359.24512,115.09521a2.33412,2.33412,0,0,1-1.51074-.50341c-.49219-.45606-.49219-.93555-.49219-1.71534,0-.80322,0-1.17529-.45508-1.60693a1.52912,1.52912,0,0,0-1.11523-.40771H354.292V113.896c0,.43164.02442.564.94727.564h.28808v.37158c-.43164-.03613-1.2832-.03613-1.751-.03613s-1.31934,0-1.751.03613V114.46h.28809c.92285,0,.94726-.13232.94726-.564v-6.32032c0-.43213-.02441-.564-.94726-.564h-.28809v-.37158H355.791c1.76367,0,3.13086,1.00732,3.13086,2.15869,0,.93555-.93555,1.667-2.09864,1.95508a2.07936,2.07936,0,0,1,1.46289,1.39111l.15625.95947c.167,1.11524.26367,1.72705.85157,1.72705.2998,0,.71875-.21582.791-1.06738.01172-.084.01172-.19189.14356-.19189.15625,0,.15625.13183.15625.2041C360.38477,114.11182,360.18066,115.09521,359.24512,115.09521Zm-3.98145-8.08349a5.89262,5.89262,0,0,0-.708.02392c-.26367.03614-.26367.18018-.26367.45606v3.106h1.33106c1.77539,0,2.06347-.9712,2.06347-1.79883C357.68652,107.05957,356.34277,107.01172,355.26367,107.01172Z" transform="translate(-21.19434 -7.05566)"/>
          <path d="M367.082,114.83154h-6.248V114.46h.28711c.92383,0,.94727-.13232.94727-.564v-6.32032c0-.43213-.02344-.564-.94727-.564H360.834v-.37158c.41895.03564,1.3545.03564,1.82227.03564.49219,0,1.583,0,2.01563-.03564v.37158h-.39649c-1.13867,0-1.13867.168-1.13867.57568V113.98c0,.396.02344.48.58691.48h.9834c2.11133,0,2.2793-1.49951,2.41113-2.72266h.29981Z" transform="translate(-21.19434 -7.05566)"/>
          <path d="M372.7832,115.09521a4.36375,4.36375,0,0,1,0-8.71923,2.94309,2.94309,0,0,1,2.207,1.03173l.59961-.88769c.09571-.144.14356-.144.19141-.144.13184,0,.13184.084.13184.28808v2.84229c0,.252,0,.28808-.19141.28808-.168,0-.168-.03613-.19238-.2041-.23926-1.751-1.30664-2.84228-2.61426-2.84228-.73145,0-3.07031.40771-3.07031,3.99365,0,3.57422,2.35058,3.98193,3.082,3.98193a2.71562,2.71562,0,0,0,2.68652-2.69873c.0127-.11963.0127-.19189.14453-.19189.15528,0,.15528.084.15528.2041A3.13543,3.13543,0,0,1,372.7832,115.09521Z" transform="translate(-21.19434 -7.05566)"/>
        </g>
      </g>
      <path d="M304.55078,64.3501c-.75586,0-1.48633-.38379-1.48633-1.271a4.29031,4.29031,0,0,1,.17969-.95947,4.46513,4.46513,0,0,0,.20313-.94775.99194.99194,0,0,0-1.127-1.05518h-1.29492l-.7793,3.1543a.71437.71437,0,0,0-.04882.23974c0,.10791,0,.2041.69531.2041.24023,0,.32422,0,.32422.15577,0,.21582-.14453.21582-.22754.21582-.46778,0-.96-.03614-1.42676-.03614-.457,0-.93555.03614-1.39258.03614a.14406.14406,0,0,1-.168-.144c0-.22754.13282-.22754.32422-.22754.81641,0,.8877-.09619.98438-.5039l1.61914-6.51221a.75476.75476,0,0,0,.04687-.228c0-.2041-.32324-.2041-.69531-.2041-.22754,0-.32422,0-.32422-.144,0-.22754.13281-.22754.32422-.22754h3.166c1.5,0,2.41113.82764,2.41113,1.7749,0,.87549-.81543,1.919-2.51856,2.35059a1.45415,1.45415,0,0,1,1.03125,1.3916c0,.25146-.06054.7793-.0957,1.05518a7.74614,7.74614,0,0,0-.07226.91162c0,.38379.03613.70752.39648.70752.37109,0,.73047-.38379.93555-1.05567.03515-.14355.04687-.20361.20312-.20361s.17969.07178.17969.15576C305.918,63.0791,305.55859,64.3501,304.55078,64.3501Zm-1.71484-8.0835a5.457,5.457,0,0,0-.69531.02393c-.084.02441-.17969.04834-.26368.4082l-.77929,3.15381h1.21093A2.51886,2.51886,0,0,0,304.084,59.229a3.01661,3.01661,0,0,0,.69532-1.835C304.7793,56.2666,303.60352,56.2666,302.83594,56.2666Z" transform="translate(-21.19434 -7.05566)"/>
      <path d="M360.68359,61.292l-.91211,2.57862c-.07226.20361-.084.21582-.34765.21582H354.291c-.19239,0-.30079,0-.30079-.144,0-.22754.13282-.22754.32422-.22754.81543,0,.8877-.09619.9834-.5039l1.61914-6.51221a.741.741,0,0,0,.04785-.228c0-.2041-.32421-.2041-.69531-.2041-.22851,0-.32422,0-.32422-.144,0-.22754.15625-.22754.22852-.22754.47949,0,.98242.03613,1.47461.03613.55176,0,1.11523-.03613,1.65527-.03613.04785,0,.17969,0,.17969.144,0,.22754-.13184.22754-.335.22754h-.1211c-.9707,0-1.043.12012-1.15039.54l-1.63086,6.52441a1.92327,1.92327,0,0,0-.04882.26368c0,.084,0,.12011.37207.12011h.97168c1.87109,0,2.38671-1.3916,2.76953-2.459.084-.22754.09668-.26367.24023-.26367.03613,0,.17969,0,.17969.144Z" transform="translate(-21.19434 -7.05566)"/>
      <path d="M399.23047,58.834c-.04883.20362-.084.21582-.2168.21582-.05957,0-.17969,0-.17969-.12011a7.28685,7.28685,0,0,0,.06055-.73145c0-1.04345-.43164-2.19482-1.70312-2.19482a3.732,3.732,0,0,0-2.84278,1.65478,7.699,7.699,0,0,0-1.25879,3.94629,2.08264,2.08264,0,0,0,2.0625,2.37451,3.53171,3.53171,0,0,0,3.10645-2.79443c.03613-.09619.12012-.09619.19238-.09619.05957,0,.17969,0,.17969.12012,0,.57568-1.30762,3.14209-3.64648,3.14209a2.94282,2.94282,0,0,1-2.93848-3.20215c0-2.81836,2.5791-5.51709,5.0498-5.51709a2.00733,2.00733,0,0,1,1.81055,1.01953l.75586-.88721c.10742-.13232.19141-.13232.19141-.13232a.13355.13355,0,0,1,.13281.12011.83.83,0,0,1-.02442.168Z" transform="translate(-21.19434 -7.05566)"/>
    </g>
  </g>
</svg>
