<?xml version="1.0" encoding="utf-8"?>
<!-- Generator: Adobe Illustrator 23.0.3, SVG Export Plug-In . SVG Version: 6.00 Build 0)  -->
<svg version="1.1" id="Layer_1" xmlns="http://www.w3.org/2000/svg" xmlns:xlink="http://www.w3.org/1999/xlink" x="0px" y="0px"
	 viewBox="0 0 191.22168 91.09637" style="enable-background:new 0 0 191.22168 91.09637;" xml:space="preserve">
<style type="text/css">
	.st0{fill:#8FF4DD;}
	.st1{fill:none;stroke:#8FF4DD;stroke-width:2;stroke-linecap:round;stroke-linejoin:round;}
	.st2{fill:none;stroke:#8FF4DD;stroke-width:2;stroke-linecap:round;}
	.st3{fill:none;stroke:#8FF4DD;stroke-width:2;stroke-linecap:square;stroke-linejoin:round;}
	.st4{fill:none;stroke:#8FF4DD;stroke-width:2;stroke-linecap:round;stroke-linejoin:bevel;}
	.st5{fill:none;stroke:#8FF4DD;stroke-width:2;stroke-linecap:square;}
</style>
<title>RLCCircuits</title>
<g>
	<g>
		<g>
			<path class="st0" d="M2.21875,40.42466c-0.55176,0-1.72754,0-2.21875,0.03613v-0.56345h1.36719v-7.10012H0v-0.564
				c0.49121,0.03613,1.66701,0.03613,2.21875,0.03613c0.55078,0,1.72656,0,2.21875-0.03613v0.564H3.07031v7.10012H4.4375v0.56348
				C3.94531,40.42466,2.76953,40.42466,2.21875,40.42466z"/>
		</g>
		<g>
			<circle class="st1" cx="27.72168" cy="35.77755" r="12.5"/>
			<line class="st2" x1="27.72168" y1="22.77755" x2="27.72168" y2="10.77755"/>
			<line class="st2" x1="27.72168" y1="48.77755" x2="27.72168" y2="60.77755"/>
			<g>
				<polyline class="st3" points="27.72202,42.778 27.72202,28.778 30.72202,31.778 				"/>
				<line class="st3" x1="27.72168" y1="28.77755" x2="24.72168" y2="31.77755"/>
			</g>
			<path id="path3970-2" class="st4" d="M77.72168,10.77752v8.33334l-5.55557,2.77778l11.11111,5.55555l-11.11111,5.55556
				l11.11115,5.55559L72.16614,44.1109l11.11111,5.55555l-5.55557,2.77774v8.33333"/>
			<g>
				<path class="st1" d="M127.72168,10.77756v7.16666c2.46228,0.00409,4.45502,2.00348,4.45093,4.46575
					c-0.00409,2.45648-1.99445,4.44683-4.45093,4.45092"/>
				<path class="st2" d="M127.72168,26.86089c2.46228,0.0034,4.45557,2.00222,4.45218,4.4645
					c-0.00339,2.45746-1.99472,4.44878-4.45218,4.45218"/>
				<path class="st2" d="M127.72168,35.77756c2.46228,0.00223,4.45651,2.0001,4.45428,4.46236
					c-0.00223,2.45911-1.99518,4.45206-4.45428,4.45429"/>
				<path class="st1" d="M127.72168,44.69422c2.46228,0.0034,4.45557,2.00223,4.45218,4.46449
					c-0.00339,2.45747-1.99472,4.44878-4.45218,4.45218v7.16667"/>
			</g>
			<path id="path2791-2" class="st2" d="M177.72168,10.77756v21.875"/>
			<path id="path2793-2" class="st2" d="M177.72168,60.77756v-21.875"/>
			<path id="path2795-2" class="st5" d="M190.22168,32.65256h-25"/>
			<path id="path2797-2" class="st5" d="M190.22168,38.90256h-25"/>
			<g>
				<polyline class="st1" points="27.72202,11 27.72202,1 77.72202,1 77.72202,11 77.72202,1 127.72202,1 127.72202,11 				"/>
				<polyline class="st1" points="127.72202,1 177.72202,1 177.72202,11 				"/>
				<polyline class="st1" points="177.72202,61 177.72202,76 127.72202,76 127.72202,61 				"/>
				<polyline class="st1" points="127.72202,76 77.72202,76 77.72202,61 77.72202,76 27.72202,76 27.72202,61 				"/>
			</g>
			<g>
				<path class="st0" d="M72.86914,87.04184h-2.02637v2.8545c0,0.43164,0.02344,0.564,0.94727,0.564h0.28809v0.37158
					c-0.41992-0.03613-1.31934-0.03613-1.77539-0.03613s-1.34375,0-1.7627,0.03613v-0.37158h0.28711
					c0.92383,0,0.94824-0.13232,0.94824-0.564v-6.32032c0-0.43213-0.02441-0.564-0.94824-0.564h-0.28711v-0.37158h4.2334
					c1.3934-0.15144,2.6517,0.84026,2.83008,2.23047C75.60352,86.07066,74.30859,87.04184,72.86914,87.04184z M72.46191,83.01206
					h-1.06738c-0.56445,0-0.58789,0.084-0.58789,0.48v3.23828h1.65527c1.90625,0,1.90625-1.29541,1.90625-1.85937
					C74.36816,84.28355,74.36816,83.01206,72.46191,83.01206z"/>
				<path class="st0" d="M81.10156,90.90366c-0.51996-0.03503-0.92648-0.46235-0.93555-0.9834
					c-0.2561,0.64049-0.88159,1.05587-1.57129,1.04346c-0.75586,0-1.91895-0.29981-1.91895-1.271
					c0.04153-0.7168,0.51715-1.33531,1.19922-1.55957c0.70081-0.28532,1.45035-0.43191,2.207-0.43164v-0.44385
					c0.09885-0.74359-0.4238-1.42652-1.16739-1.52537c-0.03458-0.0046-0.06927-0.00786-0.1041-0.00978
					c-0.49173-0.01376-0.965,0.18774-1.2959,0.55176c0.55176,0.0122,0.6123,0.40771,0.6123,0.55175
					c0,0.30476-0.24707,0.55182-0.55182,0.55181c-0.30478,0-0.55182-0.24706-0.55182-0.55182
					c0-0.00391,0.00003-0.00781,0.00012-0.01171c0-0.792,0.82715-1.35546,1.81055-1.35546
					c0.61414-0.00938,1.20633,0.22829,1.64355,0.65966c0.34302,0.38634,0.50061,0.90298,0.43164,1.415v2.39893
					c0,0.06006,0.04785,0.59961,0.44336,0.59961c0.13281,0,0.43262-0.07178,0.43262-0.76758V89.0926h0.2998v0.67187
					c0.06677,0.55863-0.33197,1.06562-0.89059,1.13239C81.16354,90.90054,81.13257,90.90281,81.10156,90.90366z M80.08203,87.95348
					c-1.97949,0.07177-2.4834,1.06738-2.4834,1.727c0.00696,0.57059,0.47519,1.02749,1.04578,1.02052
					c0.01144-0.00014,0.02286-0.00047,0.0343-0.00099c0.79562-0.01862,1.42551-0.6787,1.40689-1.47433
					c-0.00058-0.02438-0.00177-0.04873-0.00357-0.07304V87.95348z"/>
				<path class="st0" d="M86.1416,86.78989c-0.27414,0.01063-0.505-0.203-0.51563-0.47715
					c-0.00049-0.01282-0.00049-0.02565,0-0.03847c-0.0029-0.19516,0.10333-0.37563,0.27539-0.46778
					c-0.04257-0.01341-0.08755-0.01741-0.13184-0.01172c-0.91113,0-1.41501,1.06739-1.41501,2.2544v1.84717
					c0,0.43164,0.02441,0.564,0.91113,0.564h0.25201v0.37158c-0.47949-0.03613-1.043-0.03613-1.52246-0.03613l-1.36719,0.03613
					v-0.37159c0.80273,0,0.93555,0,0.93555-0.54v-3.21387c0-0.58789-0.09668-0.67187-0.93555-0.67187v-0.37158l1.66699-0.13233
					v1.31934c0.15283-0.71336,0.74872-1.24649,1.47461-1.31934c0.44632-0.03998,0.84189,0.28619,0.8877,0.73194
					c0.01312,0.27784-0.20145,0.51373-0.47931,0.52686C86.16589,86.79006,86.15375,86.7902,86.1416,86.78989z"/>
				<path class="st0" d="M91.80569,90.90366c-0.51996-0.03503-0.92648-0.46235-0.93555-0.9834
					c-0.2561,0.64049-0.88159,1.05587-1.57129,1.04346c-0.75586,0-1.91895-0.29981-1.91895-1.271
					c0.04153-0.7168,0.51715-1.33531,1.19922-1.55957c0.70081-0.28532,1.45035-0.43191,2.207-0.43164v-0.44385
					c0.09885-0.74359-0.4238-1.42652-1.16739-1.52537c-0.03458-0.0046-0.06927-0.00786-0.1041-0.00978
					c-0.49173-0.01376-0.965,0.18774-1.2959,0.55176c0.55176,0.0122,0.6123,0.40771,0.6123,0.55175
					c0,0.30476-0.24707,0.55182-0.55182,0.55181c-0.30478,0-0.55182-0.24706-0.55182-0.55182
					c0-0.00391,0.00003-0.00781,0.00012-0.01171c0-0.792,0.82715-1.35546,1.81055-1.35546
					c0.61414-0.00938,1.20633,0.22829,1.64355,0.65966c0.34302,0.38634,0.50061,0.90298,0.43164,1.415v2.39893
					c0,0.06006,0.04785,0.59961,0.44336,0.59961c0.13281,0,0.43262-0.07178,0.43262-0.76758V89.0926h0.2998v0.67187
					c0.06677,0.55863-0.33197,1.06562-0.89059,1.13239C91.86768,90.90054,91.8367,90.90281,91.80569,90.90366z M90.78616,87.95348
					c-1.97949,0.07177-2.4834,1.06738-2.4834,1.727c0.00696,0.57059,0.47519,1.02749,1.04578,1.02052
					c0.01144-0.00014,0.02286-0.00047,0.0343-0.00099c0.79562-0.01862,1.42551-0.6787,1.40689-1.47433
					c-0.00058-0.02438-0.00177-0.04873-0.00357-0.07304V87.95348z"/>
				<path class="st0" d="M94.72269,90.79575l-1.33105,0.03613v-0.37154c0.80371,0,0.93555,0,0.93555-0.54v-6.23633
					c0-0.58789-0.0957-0.67187-0.93555-0.67187v-0.37158l1.72754-0.13184v7.41162c0,0.54,0.13184,0.54,0.93457,0.54v0.37158
					L94.72269,90.79575z"/>
				<path class="st0" d="M98.05859,90.79575l-1.33105,0.03613v-0.37154c0.80371,0,0.93555,0,0.93555-0.54v-6.23633
					c0-0.58789-0.0957-0.67187-0.93555-0.67187v-0.37158l1.72754-0.13184v7.41162c0,0.54,0.13184,0.54,0.93457,0.54v0.37158
					L98.05859,90.79575z"/>
				<path class="st0" d="M102.6416,90.96372c-1.49289-0.0379-2.67313-1.27756-2.6377-2.77051
					c-0.06448-1.44315,1.05115-2.66626,2.49414-2.73437c1.17471-0.01714,2.1409,0.92127,2.15805,2.09599
					c0.00122,0.08502-0.00262,0.17004-0.01157,0.25459c0,0.252-0.03516,0.252-0.2998,0.252h-3.3457
					c-0.04248,0.62091,0.08157,1.2419,0.35938,1.79882c0.28174,0.48499,0.79477,0.78919,1.35547,0.80371
					c0.75507-0.00389,1.41595-0.50813,1.61914-1.23535c0.02441-0.0957,0.04785-0.168,0.15625-0.168
					c0.07623-0.00906,0.14539,0.04539,0.15442,0.12163c0.00089,0.00744,0.00119,0.01494,0.00085,0.02242
					C104.41791,90.32508,103.58951,90.9699,102.6416,90.96372z M102.49805,85.72251c-0.40723,0-1.41501,0.2998-1.4873,2.08691
					h2.84277C103.85352,87.34165,103.7334,85.72251,102.49805,85.72251z"/>
				<path class="st0" d="M106.72269,90.79575l-1.33105,0.03613v-0.37154c0.80371,0,0.93555,0,0.93555-0.54v-6.23633
					c0-0.58789-0.0957-0.67187-0.93555-0.67187v-0.37158l1.72754-0.13184v7.41162c0,0.54,0.13184,0.54,0.93457,0.54v0.37158
					L106.72269,90.79575z"/>
				<path class="st0" d="M119.9668,91.09555c-0.54703,0.01447-1.08173-0.1637-1.51074-0.50341
					c-0.49219-0.45606-0.49219-0.93555-0.49219-1.71534c0-0.80322,0-1.17529-0.45508-1.60693
					c-0.30164-0.28059-0.70374-0.42758-1.11523-0.40771h-1.37988v3.03419c0,0.43164,0.02441,0.564,0.94727,0.564h0.28809v0.37158
					c-0.43164-0.03613-1.2832-0.03613-1.75101-0.03613s-1.31934,0-1.75101,0.03613v-0.37159h0.28809
					c0.92285,0,0.94727-0.13232,0.94727-0.564v-6.32032c0-0.43213-0.02441-0.564-0.94727-0.564h-0.28809v-0.37158h3.76566
					c1.76367,0,3.13086,1.00732,3.13086,2.15869c0,0.93555-0.93555,1.667-2.09863,1.95508
					c0.6951,0.18002,1.24817,0.70593,1.46289,1.39111l0.15625,0.95947c0.16699,1.11524,0.26367,1.72705,0.85156,1.72705
					c0.2998,0,0.71875-0.21582,0.79099-1.06738c0.01172-0.084,0.01172-0.19189,0.14355-0.19189
					c0.15625,0,0.15625,0.13183,0.15625,0.2041C121.10645,90.11216,120.90234,91.09555,119.9668,91.09555z M115.98535,83.01206
					c-0.23627-0.00623-0.47269,0.00175-0.70801,0.02392c-0.26367,0.03614-0.26367,0.18018-0.26367,0.45606v3.106h1.33105
					c1.77539,0,2.06348-0.9712,2.06348-1.79883C118.4082,83.05991,117.06445,83.01206,115.98535,83.01206z"/>
				<path class="st0" d="M127.80368,90.83189h-6.24799v-0.37154h0.28711c0.92383,0,0.94727-0.13232,0.94727-0.564v-6.32032
					c0-0.43213-0.02344-0.564-0.94727-0.564h-0.28711v-0.37158c0.41895,0.03564,1.35449,0.03564,1.82227,0.03564
					c0.49219,0,1.58301,0,2.01563-0.03564v0.37158h-0.39648c-1.13867,0-1.13867,0.168-1.13867,0.57568v6.39265
					c0,0.396,0.02344,0.48,0.58691,0.48h0.9834c2.11133,0,2.2793-1.49951,2.41113-2.72266h0.2998L127.80368,90.83189z"/>
				<path class="st0" d="M133.50488,91.09555c-2.40775-0.10489-4.2746-2.14178-4.16971-4.54953
					c0.09851-2.26081,1.90891-4.07121,4.16971-4.1697c0.85016,0.00899,1.65488,0.38519,2.207,1.03173l0.59961-0.88769
					c0.0957-0.144,0.14355-0.144,0.19141-0.144c0.13184,0,0.13184,0.084,0.13184,0.28808v2.84229c0,0.252,0,0.28808-0.19141,0.28808
					c-0.168,0-0.168-0.03613-0.19238-0.2041c-0.23926-1.751-1.30664-2.84228-2.61426-2.84228
					c-0.73145,0-3.07031,0.40771-3.07031,3.99365c0,3.57422,2.35059,3.98193,3.082,3.98193
					c1.48187-0.01585,2.6774-1.21681,2.68652-2.69873c0.0127-0.11963,0.0127-0.19189,0.14453-0.19189
					c0.15527,0,0.15527,0.084,0.15527,0.2041C136.59274,89.73669,135.20459,91.09303,133.50488,91.09555z"/>
			</g>
		</g>
		<path class="st0" d="M65.27246,40.35044c-0.75586,0-1.48633-0.38379-1.48633-1.271
			c0.02319-0.32562,0.0835-0.64752,0.17969-0.95947c0.1019-0.30761,0.17001-0.6254,0.20313-0.94775
			c0.04022-0.54635-0.37006-1.02188-0.91641-1.06211c-0.07025-0.00518-0.14084-0.00285-0.2106,0.00693h-1.29492l-0.7793,3.1543
			c-0.02994,0.07651-0.04645,0.15761-0.04883,0.23974c0,0.10791,0,0.2041,0.69531,0.2041c0.24023,0,0.32422,0,0.32422,0.15577
			c0,0.21582-0.14453,0.21582-0.22754,0.21582c-0.46777,0-0.95999-0.03614-1.42676-0.03614
			c-0.457,0-0.93555,0.03614-1.39258,0.03614c-0.07846,0.01323-0.15277-0.03965-0.16602-0.1181
			c-0.00143-0.00856-0.00211-0.01722-0.00198-0.0259c0-0.22754,0.13281-0.22754,0.32422-0.22754
			c0.81641,0,0.8877-0.09619,0.98438-0.5039l1.61914-6.51221c0.02731-0.07312,0.04312-0.15003,0.04688-0.228
			c0-0.2041-0.32324-0.2041-0.69531-0.2041c-0.22754,0-0.32422,0-0.32422-0.144c0-0.22754,0.13281-0.22754,0.32422-0.22754h3.16599
			c1.5,0,2.41113,0.82764,2.41113,1.7749c0,0.87549-0.81543,1.919-2.51855,2.35059c0.61264,0.18622,1.03137,0.75128,1.03125,1.3916
			c0,0.25146-0.06055,0.7793-0.0957,1.05518c-0.04202,0.30219-0.06616,0.60659-0.07227,0.91162
			c0,0.38379,0.03613,0.70752,0.39648,0.70752c0.37109,0,0.73047-0.38379,0.93555-1.05567
			c0.03516-0.14355,0.04688-0.20361,0.20313-0.20361s0.17969,0.07178,0.17969,0.15576
			C66.63968,39.07944,66.28027,40.35044,65.27246,40.35044z M63.55762,32.26694c-0.23206-0.00682-0.46429,0.00117-0.69531,0.02393
			c-0.08401,0.02441-0.17969,0.04834-0.26367,0.4082l-0.7793,3.15381h1.21094c0.65015,0.02932,1.28638-0.19414,1.77542-0.62354
			c0.42981-0.51708,0.67453-1.16294,0.69531-1.835C65.50098,32.26694,64.3252,32.26694,63.55762,32.26694z"/>
		<path class="st0" d="M121.40527,37.29234l-0.91211,2.57862c-0.07227,0.20361-0.08401,0.21582-0.34766,0.21582h-5.13284
			c-0.19238,0-0.30078,0-0.30078-0.144c0-0.22754,0.13281-0.22754,0.32422-0.22754c0.81543,0,0.8877-0.09619,0.9834-0.5039
			l1.61914-6.51221c0.02786-0.073,0.04404-0.14995,0.04785-0.228c0-0.2041-0.32422-0.2041-0.69531-0.2041
			c-0.22852,0-0.32422,0-0.32422-0.144c0-0.22754,0.15625-0.22754,0.22852-0.22754c0.47949,0,0.98242,0.03613,1.47461,0.03613
			c0.55176,0,1.11523-0.03613,1.65527-0.03613c0.04785,0,0.17969,0,0.17969,0.144c0,0.22754-0.13184,0.22754-0.33499,0.22754
			h-0.12109c-0.9707,0-1.043,0.12012-1.15039,0.54l-1.63086,6.52441c-0.0224,0.08665-0.0387,0.17476-0.04883,0.26368
			c0,0.084,0,0.12011,0.37207,0.12011h0.97168c1.87109,0,2.38672-1.3916,2.76953-2.459
			c0.08401-0.22754,0.09668-0.26367,0.24023-0.26367c0.03613,0,0.17969,0,0.17969,0.144L121.40527,37.29234z"/>
		<path class="st0" d="M159.95215,34.83434c-0.04883,0.20362-0.08401,0.21582-0.2168,0.21582c-0.05957,0-0.17969,0-0.17969-0.12011
			c0.03247-0.24265,0.05267-0.48677,0.06055-0.73145c0-1.04345-0.43164-2.19482-1.70313-2.19482
			c-1.15268,0.08173-2.20248,0.69282-2.84277,1.65478c-0.77222,1.17574-1.20758,2.54057-1.25879,3.94629
			c-0.16119,1.13886,0.63135,2.19276,1.7702,2.35396c0.09683,0.01371,0.19452,0.02057,0.2923,0.02055
			c1.53455-0.15333,2.79214-1.28462,3.10645-2.79443c0.03613-0.09619,0.12012-0.09619,0.19238-0.09619
			c0.05957,0,0.17969,0,0.17969,0.12012c0,0.57568-1.30762,3.14209-3.64648,3.14209
			c-1.62527,0.00392-2.94598-1.31044-2.94992-2.93571c-0.00021-0.08894,0.0036-0.17785,0.01144-0.26644
			c0-2.81836,2.5791-5.51709,5.0498-5.51709c0.74615-0.02325,1.44354,0.36946,1.81055,1.01953l0.75586-0.88721
			c0.10742-0.13232,0.19141-0.13232,0.19141-0.13232c0.06854,0.00003,0.12592,0.05193,0.13281,0.12011
			c-0.00238,0.05669-0.01056,0.11298-0.02441,0.168L159.95215,34.83434z"/>
	</g>
</g>
<g>
	<path class="st0" d="M7.44141,44.45737c-0.2207,0-0.69238-0.00977-1.1543-0.45117c-0.18945,0.19922-0.18945,0.2207-0.20996,0.24121
		c-0.2002,0.2002-0.20996,0.20996-0.2627,0.20996c-0.11523,0-0.11523-0.07324-0.11523-0.25195v-1.38574
		c0-0.18848,0-0.2627,0.13672-0.2627c0.10449,0,0.11523,0.04297,0.14648,0.17871c0.19922,0.89258,0.57715,1.49121,1.45898,1.49121
		c0.81934,0,1.18652-0.41992,1.18652-0.95508c0-0.75586-0.86035-0.92383-1.0918-0.9668
		c-0.75586-0.14648-1.0498-0.20898-1.38574-0.48242c-0.2832-0.23047-0.45117-0.52539-0.45117-0.89258
		c0-0.58789,0.39844-1.29102,1.67969-1.29102c0.15723,0,0.58789,0,0.98633,0.29395c0.04199-0.03125,0.14746-0.12598,0.17871-0.16797
		c0.13672-0.12598,0.15723-0.12598,0.20996-0.12598c0.11523,0,0.11523,0.07324,0.11523,0.25195v1.06055
		c0,0.19922,0,0.25195-0.13672,0.25195c0,0-0.11523,0-0.125-0.09473c-0.02148-0.3252-0.07422-1.27051-1.22852-1.27051
		c-0.90332,0-1.17578,0.43066-1.17578,0.79785c0,0.60938,0.70313,0.74512,1.29102,0.86133
		c0.44141,0.08398,0.85059,0.16797,1.19727,0.50391c0.125,0.12598,0.44043,0.44043,0.44043,0.99707
		C9.13184,43.75424,8.64844,44.45737,7.44141,44.45737z"/>
</g>
</svg>
