<?xml version="1.0" encoding="utf-8"?>
<!-- Generator: Adobe Illustrator 23.0.3, SVG Export Plug-In . SVG Version: 6.00 Build 0)  -->
<svg version="1.1" id="Layer_1" xmlns="http://www.w3.org/2000/svg" xmlns:xlink="http://www.w3.org/1999/xlink" x="0px" y="0px"
	 viewBox="0 0 204.7915 108.04187" style="enable-background:new 0 0 204.7915 108.04187;" xml:space="preserve">
<style type="text/css">
	.st0{fill:none;stroke:#8FF4DD;stroke-width:2;stroke-linecap:round;}
	.st1{fill:none;stroke:#8FF4DD;stroke-width:1.5;stroke-linecap:square;}
	.st2{fill:none;stroke:#8FF4DD;stroke-width:2;stroke-linecap:round;stroke-linejoin:bevel;}
	.st3{fill:none;stroke:#8FF4DD;stroke-width:2;stroke-linecap:round;stroke-linejoin:round;}
	.st4{fill:none;stroke:#8FF4DD;stroke-width:2;stroke-linecap:square;}
	.st5{fill:#8FF4DD;}
</style>
<title>RLCCircuits</title>
<g>
	<g>
		<circle class="st0" cx="28.80566" cy="67.94424" r="12.5"/>
		<line class="st0" x1="28.80566" y1="54.94423" x2="28.80566" y2="42.94423"/>
		<line class="st0" x1="28.80566" y1="80.94424" x2="28.80566" y2="92.94424"/>
		<line class="st1" x1="26.30566" y1="60.94423" x2="31.30566" y2="60.94423"/>
		<line class="st1" x1="28.80566" y1="63.44423" x2="28.80567" y2="58.44423"/>
		<line class="st1" x1="26.30566" y1="75.44424" x2="31.30566" y2="75.44424"/>
	</g>
	<path id="path3970" class="st2" d="M53.80566,17.94423h8.33333l2.77777,5.55556l5.55556-11.11111l5.55556,11.11111
		l5.55556-11.11112l5.55556,11.11111l5.55554-11.11111l2.7778,5.55556h8.33333"/>
	<g>
		<path class="st3" d="M103.80566,17.94423h7.16667c0.00223-2.46227,2.00011-4.45652,4.46237-4.45429
			c2.45911,0.00223,4.45206,1.99518,4.45428,4.45429"/>
		<path class="st0" d="M119.88899,17.94423c0.0034-2.46227,2.00223-4.45558,4.46449-4.45218
			c2.45746,0.0034,4.44879,1.99471,4.45218,4.45218"/>
		<path class="st0" d="M128.80566,17.94423c0.0034-2.46227,2.00223-4.45558,4.46449-4.45218
			c2.45746,0.0034,4.44879,1.99471,4.45218,4.45218"/>
		<path class="st3" d="M137.72234,17.94423c0.00223-2.46227,2.00011-4.45652,4.46237-4.45429
			c2.45911,0.00223,4.45206,1.99518,4.45428,4.45429h7.16667"/>
	</g>
	<path id="path2791" class="st0" d="M178.80566,42.94423v21.875"/>
	<path id="path2793" class="st0" d="M178.80566,71.06923v21.875"/>
	<path id="path2795" class="st4" d="M191.30566,64.81923h-25"/>
	<path id="path2797" class="st4" d="M191.30566,71.06923h-25"/>
	<polyline class="st3" points="28.806,42.94389 28.806,17.94389 53.806,17.94389 	"/>
	<polyline class="st3" points="153.806,17.94389 178.806,17.94389 178.806,42.94389 	"/>
	<path class="st3" d="M28.80566,92.94423h150"/>
	<g>
		<path class="st5" d="M9.55859,63.74111c-0.876,0-0.92383,0.10791-0.99609,0.26367l-3.18946,7.208
			c-0.06487,0.20323-0.27064,0.32661-0.48047,0.28809c-0.33593,0-0.38378-0.09619-0.47949-0.312l-3.31054-7.44775H0v-0.564
			c0.41894,0.03613,1.42675,0.03613,1.89453,0.03613c0.51562,0,1.667,0,2.123-0.03613v0.564H2.88966l2.55469,5.74462l2.42285-5.457
			c0.02298-0.04537,0.0391-0.09389,0.04786-0.144c0-0.14355-0.94727-0.14355-1.05567-0.14355v-0.564
			c0.46777,0.03613,1.0918,0.03613,1.57129,0.03613l1.35547-0.03613v0.564L9.55859,63.74111z"/>
	</g>
	<path class="st5" d="M81.35693,8.45497c-0.75586,0-1.48732-0.38379-1.48732-1.271c0.02373-0.32555,0.084-0.64741,0.17969-0.95948
		c0.10193-0.30766,0.17035-0.62541,0.2041-0.94775c0.04005-0.54656-0.37056-1.0221-0.91713-1.06214
		c-0.07014-0.00514-0.14066-0.00281-0.21031,0.00696h-1.29539l-0.7793,3.1543c-0.02965,0.07658-0.04601,0.15766-0.04834,0.23975
		c0,0.10791,0,0.2041,0.6958,0.2041c0.23975,0,0.32373,0,0.32373,0.15576c0,0.21582-0.14404,0.21582-0.22754,0.21582
		c-0.46777,0-0.95999-0.03613-1.42725-0.03613c-0.45605,0-0.93555,0.03613-1.3916,0.03613
		c-0.07834,0.01333-0.15265-0.03937-0.16599-0.1177c-0.00148-0.00869-0.00215-0.01749-0.00201-0.02629
		c0-0.22754,0.13232-0.22754,0.32422-0.22754c0.81543,0,0.88721-0.09619,0.9834-0.50391l1.61914-6.5122
		c0.02786-0.073,0.04402-0.14995,0.04785-0.228c0-0.2041-0.32373-0.2041-0.6958-0.2041c-0.22754,0-0.32373,0-0.32373-0.144
		C76.76315,0,76.89499,0,77.08688,0h3.1665c1.49899,0,2.41064,0.82764,2.41064,1.77491c0,0.87548-0.81543,1.91894-2.51855,2.35058
		c0.61264,0.18622,1.03137,0.75128,1.03125,1.3916c0,0.25147-0.06,0.7793-0.0957,1.05518
		c-0.04202,0.30219-0.06615,0.60659-0.07227,0.91162c0,0.38379,0.03613,0.70752,0.39601,0.70752
		c0.37158,0,0.73145-0.38379,0.93555-1.05566c0.03563-0.14356,0.04785-0.20362,0.20361-0.20362
		c0.15625,0,0.18018,0.07178,0.18018,0.15576C82.72412,7.18398,82.36426,8.45497,81.35693,8.45497z M79.6416,0.37148
		c-0.23204-0.00682-0.46429,0.00117-0.69531,0.02392c-0.084,0.02442-0.18019,0.04834-0.26418,0.40821l-0.77928,3.1538h1.21094
		c0.65015,0.02949,1.28645-0.19398,1.77539-0.62353c0.43024-0.51682,0.67502-1.16284,0.69531-1.835
		C81.58447,0.37148,80.40918,0.37148,79.6416,0.37148z"/>
	<path class="st5" d="M131.48877,5.39687l-0.91164,2.57861c-0.07178,0.20361-0.084,0.21582-0.34766,0.21582h-5.1333
		c-0.19189,0-0.2998,0-0.2998-0.144c0-0.22754,0.13184-0.22754,0.32373-0.22754c0.81543,0,0.8877-0.09619,0.9834-0.50391
		l1.61914-6.5122c0.02788-0.073,0.04402-0.14995,0.04785-0.228c0-0.2041-0.32373-0.2041-0.69531-0.2041
		c-0.228,0-0.32373,0-0.32373-0.144c0-0.22754,0.15576-0.22754,0.22754-0.22754c0.48,0,0.9834,0.03614,1.4751,0.03614
		c0.55176,0,1.11572-0.03614,1.65527-0.03614c0.04785,0,0.17969,0,0.17969,0.14405c0,0.22754-0.13184,0.22754-0.33545,0.22754
		h-0.12012c-0.97119,0-1.04346,0.12011-1.15137,0.54l-1.63084,6.52441c-0.022,0.08671-0.03815,0.1748-0.04834,0.26367
		c0,0.084,0,0.12012,0.37207,0.12012h0.97119c1.87109,0,2.38672-1.3916,2.77051-2.459
		c0.084-0.22754,0.09619-0.26367,0.24023-0.26367c0.03564,0,0.17969,0,0.17969,0.14405L131.48877,5.39687z"/>
	<path class="st5" d="M204.03566,66.99989c-0.04785,0.20411-0.084,0.21582-0.21582,0.21582c-0.06006,0-0.17969,0-0.17969-0.12011
		c0-0.03614,0.06006-0.41992,0.06006-0.73145c0-1.043-0.43213-2.19433-1.70313-2.19433
		c-1.15253,0.08183-2.20221,0.69268-2.84277,1.65429c-0.77205,1.17585-1.20755,2.54058-1.25928,3.94629
		c-0.16106,1.13928,0.63194,2.19343,1.77122,2.35448c0.09666,0.01366,0.19415,0.02052,0.29178,0.02052
		c1.53468-0.15339,2.79233-1.28492,3.10645-2.79492c0.03564-0.0957,0.11963-0.0957,0.19189-0.0957
		c0.06006,0,0.17969,0,0.17969,0.12011c0,0.5752-1.30713,3.14161-3.646,3.14161c-1.62512,0.00409-2.94586-1.31002-2.94994-2.93514
		c-0.00023-0.08913,0.0036-0.17822,0.01146-0.26701c0-2.81836,2.57861-5.5166,5.04932-5.5166
		c0.74632-0.02351,1.444,0.36926,1.811,1.01953l0.75586-0.8877c0.10791-0.13183,0.19189-0.13183,0.19189-0.13183
		c0.0683,0.00014,0.12535,0.05212,0.13184,0.12011c-0.00221,0.05667-0.01022,0.11297-0.02393,0.168L204.03566,66.99989z"/>
	<g>
		<path class="st5" d="M77.88379,108.03944c-0.81935,0.03297-1.61661-0.27024-2.207-0.83935
			c-0.39549,0.63574-0.43164,0.68359-0.43164,0.68359c-0.084,0.13184-0.0957,0.15576-0.17967,0.15576
			c-0.13185,0-0.13185-0.084-0.13185-0.28759v-2.39893c0-0.21582,0-0.2998,0.15625-0.2998
			c0.06799-0.01051,0.13162,0.03609,0.14212,0.10407c0.00082,0.00531,0.0013,0.01067,0.00143,0.01604
			c-0.02786,0.69367,0.24266,1.36607,0.74316,1.84717c0.53468,0.43446,1.20677,0.66402,1.89551,0.64746
			c0.90799-0.0196,1.62817-0.77156,1.60857-1.67955c-0.00026-0.01177-0.00064-0.02354-0.00114-0.03529
			c0.00552-0.39952-0.12576-0.78891-0.37207-1.10352c-0.24811-0.32792-0.61343-0.54715-1.01953-0.61181
			c-0.83984-0.20362-1.45117-0.34766-1.58299-0.396c-1.21405-0.41532-1.86154-1.73618-1.44623-2.95023
			c0.32336-0.94524,1.2148-1.57794,2.21381-1.57124c0.73257-0.01865,1.43559,0.28903,1.91893,0.83984l0.41992-0.68359
			c0.084-0.144,0.09572-0.15625,0.17969-0.15625c0.13185,0,0.13185,0.084,0.13185,0.28808v2.41065
			c0,0.228,0,0.28759-0.15625,0.28759c-0.13185,0-0.13185-0.07177-0.14357-0.14355c-0.07225-0.54-0.33592-2.50684-2.33885-2.50684
			c-0.8658-0.00842-1.57448,0.68661-1.5829,1.55241c-0.00714,0.73404,0.49602,1.37476,1.21083,1.54183l1.53514,0.37207
			c1.08424,0.2995,1.826,1.29784,1.79982,2.42237c0.04985,1.32713-0.9856,2.4434-2.31271,2.49326
			C77.91753,108.0387,77.90067,108.03916,77.88379,108.03944z"/>
		<path class="st5" d="M83.9082,107.90761c-1.49309-0.0378-2.67366-1.27735-2.63867-2.77051
			c-0.06406-1.44335,1.05194-2.66636,2.4951-2.73437c1.17473-0.01714,2.14091,0.92128,2.15805,2.096
			c0.00124,0.08501-0.00262,0.17003-0.01155,0.25458c0,0.252-0.03613,0.252-0.29982,0.252h-3.34665
			c-0.04257,0.62103,0.08185,1.24212,0.36035,1.79882c0.28154,0.48517,0.79471,0.78944,1.35547,0.80371
			c0.75507-0.00389,1.41595-0.50813,1.61914-1.23535c0.02344-0.0957,0.04785-0.168,0.15527-0.168
			c0.07639-0.0094,0.14594,0.04491,0.15533,0.12129c0.00093,0.00755,0.00124,0.01516,0.00092,0.02276
			C85.68416,107.26875,84.85597,107.91339,83.9082,107.90761z M83.76463,102.6664c-0.4082,0-1.416,0.2998-1.48729,2.08691h2.8418
			c0-0.46777-0.11914-2.08691-1.35448-2.08691H83.76463z"/>
		<path class="st5" d="M90.1123,103.73378c-0.27426,0.01102-0.50554-0.20237-0.51657-0.47663
			c-0.00052-0.01299-0.00053-0.02599-0.00003-0.03899c-0.00308-0.19547,0.10367-0.37617,0.27637-0.46778
			c-0.0426-0.01332-0.08757-0.01732-0.13185-0.01172c-0.91211,0-1.41499,1.06739-1.41499,2.2544v1.84717
			c0,0.43164,0.02344,0.564,0.91113,0.564h0.252v0.37158c-0.47949-0.03613-1.04396-0.03613-1.52344-0.03613l-1.36719,0.03613
			v-0.37159c0.80371,0,0.93555,0,0.93555-0.54v-3.21387c0-0.58789-0.0957-0.67187-0.93555-0.67187v-0.37158l1.66699-0.13233v1.31934
			c0.15298-0.71366,0.74933-1.24686,1.4756-1.31934c0.44632-0.03998,0.84189,0.28619,0.8877,0.73194
			c0.01314,0.27784-0.20145,0.51373-0.47929,0.52686C90.1366,103.73395,90.12445,103.73409,90.1123,103.73378z"/>
		<path class="st5" d="M92.68066,107.73964l-1.31935,0.03613v-0.37154c0.80373,0,0.93555,0,0.93555-0.54v-3.22607
			c0-0.58789-0.1084-0.65967-0.88768-0.65967v-0.37158l1.67967-0.13233v4.40186c0,0.46777,0.04785,0.52783,0.83887,0.52783v0.37158
			C93.52051,107.76357,93.10059,107.73964,92.68066,107.73964z M92.62109,101.16737
			c-0.34848-0.00629-0.62946-0.28727-0.63574-0.63574c0.00288-0.354,0.29219-0.63864,0.64619-0.63576
			c0.00043,0.00001,0.00084,0.00001,0.00127,0.00002c0.34831,0.00665,0.62909,0.28742,0.63574,0.63574
			C93.26532,100.88597,92.97543,101.1706,92.62109,101.16737z"/>
		<path class="st5" d="M97.27637,107.90761c-1.49324-0.03746-2.67401-1.27722-2.63867-2.77051
			c-0.06413-1.44302,1.05132-2.66591,2.49414-2.73437c1.17471-0.01714,2.14091,0.92128,2.15804,2.096
			c0.00125,0.08501-0.00261,0.17003-0.01155,0.25458c0,0.252-0.03516,0.252-0.2998,0.252h-3.3457
			c-0.04248,0.6209,0.08157,1.2419,0.35936,1.79882c0.28172,0.48499,0.79478,0.78919,1.35547,0.80371
			c0.75507-0.00388,1.41597-0.50813,1.61914-1.23535c0.02443-0.0957,0.04785-0.168,0.15625-0.168
			c0.07623-0.00906,0.14539,0.04539,0.15445,0.12161c0.00089,0.00745,0.00116,0.01495,0.00084,0.02244
			C99.05188,107.26868,98.22394,107.91346,97.27637,107.90761z M97.13184,102.6664c-0.40723,0-1.41501,0.2998-1.4873,2.08691
			h2.84277C98.4873,104.28554,98.36719,102.6664,97.13184,102.6664z"/>
		<path class="st5" d="M102.0166,107.90761c-0.49196,0.01678-0.96913-0.16972-1.31935-0.51563
			c-0.08578,0.08682-0.16602,0.17897-0.24022,0.27588c-0.22754,0.228-0.23926,0.23975-0.29982,0.23975
			c-0.13182,0-0.13182-0.084-0.13182-0.2876v-1.58349c0-0.21583,0-0.29981,0.15625-0.29981c0.1201,0,0.13182,0.04834,0.168,0.2041
			c0.22752,1.01953,0.65918,1.70313,1.66699,1.70313c0.93555,0,1.35547-0.48,1.35547-1.09131
			c0-0.86377-0.98438-1.05567-1.24805-1.10352c-0.56789-0.03716-1.11504-0.22787-1.58299-0.55175
			c-0.32249-0.23997-0.51346-0.61756-0.51563-1.01954c0-0.67138,0.45605-1.47509,1.91895-1.47509
			c0.40224-0.0139,0.798,0.10406,1.127,0.33593c0.07379-0.05755,0.14211-0.12179,0.2041-0.19189
			c0.15625-0.144,0.17967-0.144,0.24022-0.144c0.13185,0,0.13185,0.084,0.13185,0.28759v1.21143c0,0.228,0,0.28809-0.15625,0.28809
			c0,0-0.13185,0-0.14357-0.10791c0.07216-0.7273-0.45894-1.37539-1.18625-1.44754
			c-0.07213-0.00716-0.14473-0.00837-0.21707-0.00364c-1.03125,0-1.34277,0.4917-1.34277,0.91114
			c0,0.6958,0.80273,0.85156,1.47461,0.98388c0.50439,0.04552,0.98216,0.2467,1.36719,0.57569
			c0.32054,0.29208,0.50342,0.70551,0.50391,1.13916C103.94727,107.10439,103.39551,107.90761,102.0166,107.90761z"/>
		<path class="st5" d="M115.99316,108.03944c-0.54732,0.0145-1.08235-0.16367-1.51172-0.50341
			c-0.49121-0.45606-0.49121-0.93555-0.49121-1.71534c0-0.80322,0-1.17529-0.45605-1.60693
			c-0.30157-0.28069-0.70372-0.42771-1.11523-0.40771h-1.37891v3.03419c0,0.43164,0.02344,0.564,0.94727,0.564h0.28809v0.37158
			c-0.43164-0.03613-1.2832-0.03613-1.75101-0.03613s-1.31934,0-1.75101,0.03613v-0.37159h0.28711
			c0.92383,0,0.94826-0.13232,0.94826-0.564v-6.32032c0-0.43213-0.02441-0.564-0.94826-0.564h-0.28711v-0.37158h3.76563
			c1.7627,0,3.12988,1.00732,3.12988,2.15869c0,0.93555-0.93555,1.667-2.09863,1.95508
			c0.69528,0.17972,1.24844,0.70575,1.46289,1.39111l0.15625,0.95947c0.168,1.11524,0.26367,1.72705,0.85156,1.72705
			c0.2998,0,0.71973-0.21582,0.79201-1.06738c0.01172-0.084,0.01172-0.19189,0.14355-0.19189
			c0.15625,0,0.15625,0.13183,0.15625,0.2041C117.13281,107.05605,116.92871,108.03944,115.99316,108.03944z M112.01172,99.95595
			c-0.23627-0.00623-0.47269,0.00175-0.70799,0.02392c-0.26367,0.03614-0.26367,0.18018-0.26367,0.45606v3.106h1.33105
			c1.77539,0,2.0625-0.9712,2.0625-1.79883C114.43359,100.0038,113.09082,99.95595,112.01172,99.95595z"/>
		<path class="st5" d="M123.83008,107.77577h-6.24899v-0.37154h0.28809c0.92285,0,0.94727-0.13232,0.94727-0.564v-6.32032
			c0-0.43213-0.02441-0.564-0.94727-0.564h-0.28809v-0.37158c0.41992,0.03564,1.35547,0.03564,1.82324,0.03564
			c0.49121,0,1.58299,0,2.01465-0.03564v0.37158h-0.39551c-1.13963,0-1.13963,0.168-1.13963,0.57568v6.39265
			c0,0.396,0.02441,0.48,0.58789,0.48h0.98338c2.11037,0,2.27832-1.49951,2.41016-2.72266h0.2998L123.83008,107.77577z"/>
		<path class="st5" d="M129.53027,108.03944c-2.40775-0.10539-4.27417-2.1427-4.16878-4.55045
			c0.09892-2.2601,1.90868-4.06985,4.16878-4.16878c0.8502,0.00875,1.65504,0.38499,2.207,1.03173l0.59961-0.88769
			c0.0957-0.144,0.14453-0.144,0.19238-0.144c0.13184,0,0.13184,0.084,0.13184,0.28808v2.84229c0,0.252,0,0.28808-0.19238,0.28808
			c-0.168,0-0.168-0.03613-0.19141-0.2041c-0.24023-1.751-1.30762-2.84228-2.61523-2.84228
			c-0.73145,0-3.07031,0.40771-3.07031,3.99365c0,3.57422,2.35156,3.98193,3.08299,3.98193
			c1.48172-0.01617,2.67706-1.21695,2.68652-2.69873c0.01172-0.11963,0.01172-0.19189,0.14355-0.19189
			c0.15625,0,0.15625,0.084,0.15625,0.2041C132.61865,106.68075,131.23016,108.03698,129.53027,108.03944z"/>
	</g>
</g>
<g>
	<path class="st5" d="M9.67969,75.40419c-0.17822,0-0.74512,0-1.14404-0.49414c-0.15771,0.16797-0.15771,0.18945-0.20996,0.2627
		c-0.17822,0.2207-0.18896,0.23145-0.2417,0.23145c-0.10449,0-0.10449-0.05273-0.10449-0.24219v-1.42773
		c0-0.18848,0-0.24121,0.11523-0.24121c0.03125,0,0.07324,0,0.09473,0.04199c0,0,0.01025,0.02148,0.05225,0.20996
		c0.23096,1.0498,0.73486,1.44824,1.42773,1.44824c0.92383,0,1.18604-0.50391,1.18604-0.95508
		c0-0.29395-0.13623-0.52441-0.3252-0.68164c-0.2627-0.21094-0.39893-0.24219-0.97656-0.35742
		c-0.48242-0.09473-0.83984-0.16797-1.17578-0.46191c-0.39844-0.36719-0.39844-0.73535-0.39844-0.85059
		c0-0.57715,0.37793-1.26953,1.64795-1.26953c0.33594,0,0.66162,0.0625,0.98682,0.3252
		c0.07324-0.09473,0.27295-0.3252,0.35693-0.3252c0.10498,0,0.10498,0.05176,0.10498,0.24121v1.0918
		c0,0.18848,0,0.24121-0.11523,0.24121c-0.03174,0-0.10547,0-0.11572-0.08398c-0.021-0.3252-0.08398-1.30176-1.22803-1.30176
		c-0.94531,0-1.16553,0.4834-1.16553,0.80859c0,0.62988,0.76611,0.77637,1.08154,0.83984
		c0.69238,0.12598,0.97607,0.18848,1.354,0.51465c0.09424,0.09375,0.44092,0.42969,0.44092,0.99707
		C11.32813,74.79482,10.78223,75.40419,9.67969,75.40419z"/>
</g>
</svg>
