<?xml version="1.0" encoding="utf-8"?>
<!-- Generator: Adobe Illustrator 23.0.3, SVG Export Plug-In . SVG Version: 6.00 Build 0)  -->
<svg version="1.1" id="Layer_1" xmlns="http://www.w3.org/2000/svg" xmlns:xlink="http://www.w3.org/1999/xlink" x="0px" y="0px"
	 viewBox="0 0 155 71.17676" style="enable-background:new 0 0 155 71.17676;" xml:space="preserve">
<style type="text/css">
	.st0{fill:none;stroke:#8FF4DD;stroke-width:2;stroke-linecap:round;stroke-linejoin:bevel;}
	.st1{fill:none;stroke:#8FF4DD;stroke-width:2;stroke-linecap:round;stroke-linejoin:round;}
	.st2{fill:none;stroke:#8FF4DD;stroke-width:2;stroke-linecap:round;}
	.st3{fill:none;stroke:#8FF4DD;stroke-width:2;stroke-linecap:square;}
	.st4{fill:#8FF4DD;}
	.st5{fill:none;stroke:#8FF4DD;stroke-width:2;stroke-linecap:round;stroke-linejoin:round;stroke-miterlimit:10;}
</style>
<g>
	<g>
		<path id="path3970" class="st0" d="M77.4453,20.17672h-8.33333l-2.77778-5.55555l-5.55555,11.11111l-5.55556-11.11111
			l-5.55555,11.11111l-5.55556-11.11111l-5.55555,11.11111l-2.77778-5.55555h-8.33333"/>
		<g>
			<path class="st1" d="M77.4453,20.17676h7.16667c0-2.46227,1.99606-4.45833,4.45833-4.45833
				c2.46227,0,4.45834,1.99606,4.45834,4.45833"/>
			<path class="st2" d="M93.52865,20.17676c0-2.46227,1.99606-4.45833,4.45833-4.45833s4.45833,1.99606,4.45833,4.45833"/>
			<path class="st2" d="M102.4453,20.17676c0-2.46227,1.99606-4.45833,4.45834-4.45833s4.45833,1.99606,4.45833,4.45833"/>
			<path class="st1" d="M111.36196,20.17676c0-2.46227,1.99606-4.45833,4.45834-4.45833s4.45834,1.99606,4.45834,4.45833h7.16666"/>
		</g>
		<g>
			<path id="path2791" class="st2" d="M127.4453,20.17676v21.875"/>
			<path id="path2793" class="st2" d="M127.4453,48.30176v21.875"/>
			<path id="path2795" class="st3" d="M139.94531,42.05176H114.9453"/>
			<path id="path2797" class="st3" d="M139.94531,48.30176H114.9453"/>
		</g>
		<g>
			<path class="st4" d="M55.33594,10.3501c-0.64795,0-1.40332-0.2998-1.40332-1.23535c0-0.23975,0.10791-0.68359,0.19189-1.01953
				c0.08398-0.2998,0.17969-0.70752,0.17969-0.89941c0-0.44385-0.20361-1.07959-1.15137-1.07959H51.8579L51.04198,9.3667
				l-0.02393,0.17969c0,0.10791,0,0.2041,0.67188,0.2041c0.17969,0,0.27588,0,0.27588,0.11963
				c0,0.22803-0.13184,0.22803-0.22803,0.22803c-0.41992,0-0.87549-0.02393-1.30713-0.02393
				c-0.41992,0-0.87549,0.02393-1.2832,0.02393c-0.04834,0-0.16797,0-0.16797-0.12012c0-0.22754,0.10791-0.22754,0.32373-0.22754
				c0.73145,0,0.80371-0.09619,0.91162-0.51611l1.64307-6.60791c0.02393-0.07227,0.02393-0.10791,0.02393-0.18018
				c0-0.19189-0.33594-0.19189-0.63574-0.19189c-0.22803,0-0.31201,0-0.31201-0.11963c0-0.22803,0.10791-0.22803,0.32422-0.22803
				h3.01025c1.46289,0,2.35059,0.80322,2.35059,1.76318c0,1.00732-1.00732,2.00244-2.49463,2.35059
				c0.53955,0.21582,1.03125,0.63574,1.03125,1.40332c0,0.16748-0.05957,0.63525-0.05957,0.63525
				c-0.04834,0.37207-0.13232,1.00781-0.13232,1.36768c0,0.33545,0.02441,0.68359,0.4082,0.68359
				c0.39551,0,0.73145-0.41992,0.92334-1.04346C56.34325,8.89893,56.35546,8.875,56.4873,8.875c0.04785,0,0.16797,0,0.16797,0.11963
				C56.65527,9.10254,56.2954,10.3501,55.33594,10.3501z M53.66894,2.25439c-0.22803,0-0.58789,0-0.67188,0.02393
				c-0.10791,0.01221-0.19189,0.04785-0.2876,0.43164l-0.7915,3.1665h1.22314c2.43457,0,2.49463-2.25488,2.49463-2.4707
				C55.63573,2.25439,54.41211,2.25439,53.66894,2.25439z"/>
		</g>
		<g>
			<path class="st4" d="M104.54443,9.89404c-0.07227,0.2041-0.08398,0.2041-0.33594,0.2041h-4.95313
				c-0.19189,0-0.28809,0-0.28809-0.12012c0-0.22754,0.10791-0.22754,0.32373-0.22754c0.73193,0,0.80371-0.09619,0.91162-0.51611
				l1.64307-6.60791c0.02393-0.07227,0.02393-0.10791,0.02393-0.18018c0-0.19189-0.33545-0.19189-0.63574-0.19189
				c-0.22754,0-0.31152,0-0.31152-0.11963c0-0.22803,0.13184-0.22803,0.22803-0.22803c0.45557,0,0.93506,0.02393,1.40283,0.02393
				c0.47998,0,0.9834-0.02393,1.46338-0.02393c0.0957,0,0.19189,0,0.19189,0.13184c0,0.21582-0.12012,0.21582-0.32373,0.21582
				h-0.08398c-0.91162,0-0.99561,0.10791-1.10352,0.55176l-1.63086,6.52441c-0.02441,0.08398-0.04834,0.17969-0.04834,0.27588
				c0,0.13184,0.01221,0.14404,0.35986,0.14404h0.9834c1.85938,0,2.375-1.42725,2.72266-2.41064
				c0.10791-0.2998,0.12012-0.31201,0.25195-0.31201c0.08398,0,0.15576,0.03613,0.15576,0.12012
				c0,0.03564-0.02393,0.10791-0.03613,0.14355L104.54443,9.89404z"/>
		</g>
		<g>
			<path class="st4" d="M152.60742,44.84668c-0.06006,0-0.15576,0-0.15576-0.10791v-0.10791
				c0.03563-0.17969,0.05957-0.45557,0.05957-0.63574c0-0.52734-0.14355-2.19482-1.69092-2.19482
				c-1.10353,0-2.19482,0.77979-2.80664,1.60742c-1.1631,1.60693-1.29492,3.65771-1.29492,3.99365
				c0,1.63086,0.9834,2.39844,2.07471,2.39844c1.11522,0,2.51854-0.93506,3.05811-2.77002
				c0.03613-0.10791,0.08398-0.12012,0.18018-0.12012c0.07178,0,0.16797,0,0.16797,0.10791c0,0-0.19188,1.07959-1.23535,2.11084
				c-0.09619,0.08398-1.04346,1.01953-2.35059,1.01953c-1.52344,0-2.84277-1.12744-2.84277-3.1665
				c0-2.84229,2.54248-5.52881,4.96533-5.52881c0.77979,0,1.39111,0.35986,1.7749,1.06738l0.77979-0.95947
				c0.08398-0.10791,0.15576-0.10791,0.15576-0.10791s0.10791,0,0.10791,0.10791c0,0-0.01172,0.12012-0.02393,0.15576
				l-0.73145,2.92676C152.75146,44.83496,152.72754,44.84668,152.60742,44.84668z"/>
		</g>
	</g>
	<g>
		<polyline class="st5" points="127.4453,70.17676 27.4453,70.17676 27.4453,20.17673 		"/>
	</g>
</g>
</svg>
