<svg xmlns="http://www.w3.org/2000/svg" viewBox="0 0 279.79785 86.46802">
  <defs>
    <style>
      .cls-1 {
        fill: none;
        stroke: #8ff4dd;
        stroke-miterlimit: 10;
        stroke-width: 2px;
      }

      .cls-2 {
        fill: #8ff4dd;
      }

      .cls-3 {
        fill: #90f4dd;
      }
    </style>
  </defs>
  <title>SequentialCircuit</title>
  <g id="Layer_1" data-name="Layer 1">
    <rect class="cls-1" x="56.50684" y="1" width="70" height="50"/>
    <rect class="cls-1" x="166.50684" y="21" width="50" height="30"/>
  </g>
  <g id="Layer_2" data-name="Layer 2">
    <g>
      <g>
        <path class="cls-2" d="M146.7832,124.18774a3.63628,3.63628,0,0,1,0-7.26562,2.45228,2.45228,0,0,1,1.83985.85937l.499-.73974c.08008-.11963.12012-.11963.16016-.11963.11035,0,.11035.06982.11035.23975v2.36865c0,.21,0,.23974-.16016.23974-.13965,0-.13965-.02978-.16015-.16992-.2002-1.459-1.08887-2.36865-2.17872-2.36865-.60937,0-2.55859.33984-2.55859,3.32812,0,2.97852,1.959,3.31836,2.56836,3.31836a2.26377,2.26377,0,0,0,2.23926-2.249c.00976-.09961.00976-.15967.12012-.15967.12988,0,.12988.06983.12988.16992A2.61344,2.61344,0,0,1,146.7832,124.18774Z" transform="translate(-83.49316 -99)"/>
        <path class="cls-2" d="M152.4541,124.07788a2.23133,2.23133,0,0,1-2.209-2.24853,2.21721,2.21721,0,1,1,4.42773,0A2.2269,2.2269,0,0,1,152.4541,124.07788Zm1.12988-3.71777a1.31226,1.31226,0,0,0-1.12988-.6499,1.34265,1.34265,0,0,0-1.13965.66992,2.87142,2.87142,0,0,0-.23925,1.36914,2.97258,2.97258,0,0,0,.25,1.40918,1.304,1.304,0,0,0,1.13867.66943,1.29093,1.29093,0,0,0,1.16015-.73926,3.03845,3.03845,0,0,0,.21973-1.33935A2.74347,2.74347,0,0,0,153.584,120.36011Z" transform="translate(-83.49316 -99)"/>
        <path class="cls-2" d="M161.97168,123.93823l-1.12891.02979V123.658c.66895,0,.7793,0,.7793-.44971v-2.32861c0-.56983-.11035-1.10938-.74023-1.10938a1.45914,1.45914,0,0,0-1.34864,1.59912v1.83887c0,.44971.10938.44971.7793.44971v.31006l-1.11914-.02979-1.12988.02979V123.658c.66992,0,.78027,0,.78027-.44971v-2.32861c0-.56983-.11035-1.10938-.74023-1.10938a1.45914,1.45914,0,0,0-1.34864,1.59912v1.83887c0,.44971.10938.44971.7793.44971v.31006l-1.11914-.02979-1.12988.02979V123.658c.66992,0,.78027,0,.78027-.44971V120.53c0-.48975-.08008-.55957-.78027-.55957v-.31006l1.40918-.10986v1.04931a1.57645,1.57645,0,0,1,1.47949-1.04931,1.18255,1.18255,0,0,1,1.3291.97949,1.58107,1.58107,0,0,1,1.44922-.97949,1.334,1.334,0,0,1,1.0498.36963c.30957.35986.30957.66992.30957,1.52929v1.90869c.00977.29981.25977.29981.7793.29981v.31006Z" transform="translate(-83.49316 -99)"/>
        <path class="cls-2" d="M165.99414,124.07788a1.57135,1.57135,0,0,1-1.30957-.72949l-.35937.61963h-.25v-5.95655c0-.48974-.08008-.56005-.7793-.56005v-.30957l1.43848-.10987V120.2a1.77707,1.77707,0,0,1,1.36914-.64941,2.19826,2.19826,0,0,1,2.11914,2.25879A2.25207,2.25207,0,0,1,165.99414,124.07788Zm1.10938-3.668a1.24283,1.24283,0,0,0-1.04981-.63965,1.44256,1.44256,0,0,0-1.17871.63965.43482.43482,0,0,0-.11035.35987v2.05908a.54553.54553,0,0,0,.13965.41943,1.23449,1.23449,0,0,0,1.0498.60986,1.373,1.373,0,0,0,1.12891-.63964,3.43474,3.43474,0,0,0,.02051-2.8086Z" transform="translate(-83.49316 -99)"/>
        <path class="cls-2" d="M170.00488,123.93823l-1.09961.02979V123.658c.66895,0,.7793,0,.7793-.44971v-2.68847c0-.48975-.08984-.54932-.73926-.54932v-.31006l1.39844-.10986v3.668c0,.38964.04.43945.7002.43945v.31006C170.7041,123.95825,170.35449,123.93823,170.00488,123.93823Zm-.05078-5.47705a.52983.52983,0,1,1,.54-.52978A.53936.53936,0,0,1,169.9541,118.46118Z" transform="translate(-83.49316 -99)"/>
        <path class="cls-2" d="M175.583,123.93823l-1.12891.02979V123.658c.66895,0,.7793,0,.7793-.44971v-2.32861c0-.56983-.11035-1.10938-.73926-1.10938a1.45981,1.45981,0,0,0-1.34961,1.59912v1.83887c0,.44971.11035.44971.7793.44971v.31006l-1.11914-.02979-1.12891.02979V123.658c.66895,0,.7793,0,.7793-.44971V120.53c0-.48975-.08008-.55957-.7793-.55957v-.31006l1.40918-.10986v1.04931a1.57424,1.57424,0,0,1,1.47852-1.04931,1.33239,1.33239,0,0,1,1.0498.36963c.30957.35986.30957.66992.30957,1.52929v1.90869c.00977.29981.25977.29981.7793.29981v.31006Z" transform="translate(-83.49316 -99)"/>
        <path class="cls-2" d="M180.92285,124.02808a.83665.83665,0,0,1-.7793-.81983,1.384,1.384,0,0,1-1.30957.86963c-.62988,0-1.5996-.25-1.5996-1.05957a1.45559,1.45559,0,0,1,1-1.29883,4.85144,4.85144,0,0,1,1.83886-.35986v-.37012a1.13187,1.13187,0,0,0-1.05957-1.27929,1.40263,1.40263,0,0,0-1.0791.46c.46.00976.50977.33984.50977.45947a.46.46,0,1,1-.91993-.00977c0-.65966.68946-1.12939,1.50977-1.12939a1.9071,1.9071,0,0,1,1.36914.5498,1.47894,1.47894,0,0,1,.35938,1.1792v1.999c0,.0498.04.49951.37011.49951.10938,0,.35938-.06006.35938-.63965v-.55957h.25v.55957A.84867.84867,0,0,1,180.92285,124.02808Zm-.84961-2.459c-1.64941.06006-2.06836.88965-2.06836,1.43945a.86036.86036,0,0,0,.89942.84961,1.2006,1.2006,0,0,0,1.16894-1.28955Z" transform="translate(-83.49316 -99)"/>
        <path class="cls-2" d="M184.24414,124.07788a1.20929,1.20929,0,0,1-1.29-1.34912v-2.7583h-.84961v-.22022c.97949-.04,1.2793-1.10937,1.29-1.92871h.25v1.83887h1.42871v.31006h-1.42871v2.77832c0,.16992,0,1.0791.66895,1.0791.37011,0,.66992-.37939.66992-1.11914v-.5498h.25v.56982C185.2334,123.36841,184.95313,124.07788,184.24414,124.07788Z" transform="translate(-83.49316 -99)"/>
        <path class="cls-2" d="M187.23535,123.93823l-1.09961.02979V123.658c.66895,0,.7793,0,.7793-.44971v-2.68847c0-.48975-.08984-.54932-.73926-.54932v-.31006l1.39844-.10986v3.668c0,.38964.04.43945.70019.43945v.31006C187.93457,123.95825,187.585,123.93823,187.23535,123.93823Zm-.05078-5.47705a.52983.52983,0,1,1,.54-.52978A.53936.53936,0,0,1,187.18457,118.46118Z" transform="translate(-83.49316 -99)"/>
        <path class="cls-2" d="M191.07324,124.07788a2.23052,2.23052,0,0,1-2.208-2.24853,2.21675,2.21675,0,1,1,4.42676,0A2.22629,2.22629,0,0,1,191.07324,124.07788Zm1.12989-3.71777a1.31,1.31,0,0,0-1.12989-.6499,1.34,1.34,0,0,0-1.13867.66992,2.861,2.861,0,0,0-.24023,1.36914,2.97258,2.97258,0,0,0,.25,1.40918,1.30547,1.30547,0,0,0,1.13964.66943,1.2895,1.2895,0,0,0,1.15918-.73926,3.03845,3.03845,0,0,0,.21973-1.33935A2.74356,2.74356,0,0,0,192.20313,120.36011Z" transform="translate(-83.49316 -99)"/>
        <path class="cls-2" d="M197.8125,123.93823l-1.12891.02979V123.658c.66895,0,.7793,0,.7793-.44971v-2.32861c0-.56983-.11035-1.10938-.73926-1.10938a1.45981,1.45981,0,0,0-1.34961,1.59912v1.83887c0,.44971.11036.44971.7793.44971v.31006l-1.11914-.02979-1.12988.02979V123.658c.66992,0,.78027,0,.78027-.44971V120.53c0-.48975-.08008-.55957-.78027-.55957v-.31006l1.41015-.10986v1.04931a1.57425,1.57425,0,0,1,1.47852-1.04931,1.33236,1.33236,0,0,1,1.0498.36963c.30957.35986.30957.66992.30957,1.52929v1.90869c.00977.29981.25977.29981.7793.29981v.31006Z" transform="translate(-83.49316 -99)"/>
        <path class="cls-2" d="M203.15332,124.02808a.83664.83664,0,0,1-.7793-.81983,1.384,1.384,0,0,1-1.30957.86963c-.62988,0-1.59961-.25-1.59961-1.05957a1.45559,1.45559,0,0,1,1-1.29883,4.85152,4.85152,0,0,1,1.83887-.35986v-.37012a1.13187,1.13187,0,0,0-1.05957-1.27929,1.40262,1.40262,0,0,0-1.0791.46c.46.00976.50976.33984.50976.45947a.46.46,0,1,1-.91992-.00977c0-.65966.68946-1.12939,1.50977-1.12939a1.9071,1.9071,0,0,1,1.36914.5498,1.479,1.479,0,0,1,.35937,1.1792v1.999c0,.0498.04.49951.37012.49951.10938,0,.35938-.06006.35938-.63965v-.55957h.25v.55957A.84867.84867,0,0,1,203.15332,124.02808Zm-.84961-2.459c-1.64941.06006-2.06836.88965-2.06836,1.43945a.86036.86036,0,0,0,.89942.84961,1.2006,1.2006,0,0,0,1.16894-1.28955Z" transform="translate(-83.49316 -99)"/>
        <path class="cls-2" d="M205.585,123.93823l-1.10937.02979V123.658c.66894,0,.77929,0,.77929-.44971v-5.19678c0-.48974-.08008-.56005-.77929-.56005v-.30957l1.43847-.10987v6.17627c0,.44971.11035.44971.78028.44971v.31006Z" transform="translate(-83.49316 -99)"/>
      </g>
      <g>
        <path class="cls-2" d="M163.41992,133.07788a2.212,2.212,0,0,1-2.14941-2.26855,2.24029,2.24029,0,0,1,2.16894-2.31885c.76953,0,1.5293.38965,1.5293,1.06933a.46.46,0,1,1-.91992.01026.4516.4516,0,0,1,.46972-.46,1.62835,1.62835,0,0,0-1.06933-.36963c-.5293,0-1.34863.41943-1.34863,2.04883,0,1.60888.8789,2.03857,1.40918,2.03857a1.30431,1.30431,0,0,0,1.30859-1.04932c.02051-.06.04-.0996.12988-.0996.03028,0,.13086,0,.13086.0996A1.645,1.645,0,0,1,163.41992,133.07788Z" transform="translate(-83.49316 -99)"/>
        <path class="cls-2" d="M166.7998,132.93823l-1.0996.02979V132.658c.66992,0,.78027,0,.78027-.44971v-2.68847c0-.48975-.08984-.54932-.74024-.54932v-.31006l1.39942-.10986v3.668c0,.38964.04.43945.70019.43945v.31006C167.5,132.95825,167.14941,132.93823,166.7998,132.93823Zm-.0498-5.47705a.53936.53936,0,0,1-.5293-.52978.53384.53384,0,0,1,.53907-.52979.54023.54023,0,0,1,.53027.52979A.53472.53472,0,0,1,166.75,127.46118Z" transform="translate(-83.49316 -99)"/>
        <path class="cls-2" d="M171.3584,129.59985a.41406.41406,0,0,1-.42969-.42968.432.432,0,0,1,.23047-.38965.24967.24967,0,0,0-.11035-.01026c-.75977,0-1.17871.88965-1.17871,1.87891v1.53906c0,.35987.01953.46973.75879.46973h.21v.31006c-.39942-.02979-.86914-.02979-1.26856-.02979l-1.13965.02979V132.658c.66993,0,.7793,0,.7793-.44971V129.53c0-.48975-.08008-.55957-.7793-.55957v-.31006l1.38868-.10986v1.09912a1.40051,1.40051,0,0,1,1.22949-1.09912.68252.68252,0,0,1,.74023.60937A.42043.42043,0,0,1,171.3584,129.59985Z" transform="translate(-83.49316 -99)"/>
        <path class="cls-2" d="M174.55957,133.07788a2.212,2.212,0,0,1-2.14941-2.26855,2.24029,2.24029,0,0,1,2.16894-2.31885c.76953,0,1.5293.38965,1.5293,1.06933a.46.46,0,1,1-.91992.01026.45159.45159,0,0,1,.46972-.46,1.62836,1.62836,0,0,0-1.06933-.36963c-.5293,0-1.34864.41943-1.34864,2.04883,0,1.60888.87891,2.03857,1.40918,2.03857a1.30431,1.30431,0,0,0,1.3086-1.04932c.02051-.06.04-.0996.12988-.0996.03027,0,.13086,0,.13086.0996A1.645,1.645,0,0,1,174.55957,133.07788Z" transform="translate(-83.49316 -99)"/>
        <path class="cls-2" d="M180.418,133.07788v-.89941a1.36246,1.36246,0,0,1-1.28906.89941c-1.51856,0-1.51856-.90918-1.51856-1.689v-1.499c0-.88965,0-.91943-.78027-.91943v-.31006l1.46972-.10986v3.31787c0,.52.04.98974.87891.98974.72949,0,1.21-.67968,1.21-1.54931V129.53c0-.48975-.08008-.55957-.78027-.55957v-.31006l1.46973-.10986v3.54785c0,.48974.08007.55957.77929.55957v.31006Z" transform="translate(-83.49316 -99)"/>
        <path class="cls-2" d="M183.5,132.93823l-1.09961.02979V132.658c.66992,0,.78027,0,.78027-.44971v-2.68847c0-.48975-.09082-.54932-.74023-.54932v-.31006l1.39941-.10986v3.668c0,.38964.04.43945.69922.43945v.31006C184.19922,132.95825,183.84961,132.93823,183.5,132.93823Zm-.0498-5.47705a.54022.54022,0,0,1-.53028-.52978.53472.53472,0,0,1,.54-.52979.54022.54022,0,0,1,.53027.52979A.53471.53471,0,0,1,183.4502,127.46118Z" transform="translate(-83.49316 -99)"/>
        <path class="cls-2" d="M187.17969,133.07788a1.20929,1.20929,0,0,1-1.29-1.34912v-2.7583H185.04v-.22022c.97949-.04,1.2793-1.10937,1.29-1.92871h.25v1.83887h1.42871v.31006h-1.42871v2.77832c0,.16992,0,1.0791.66894,1.0791.37012,0,.66993-.37939.66993-1.11914v-.5498h.25v.56982C188.169,132.36841,187.88867,133.07788,187.17969,133.07788Z" transform="translate(-83.49316 -99)"/>
      </g>
    </g>
    <g>
      <g>
        <path class="cls-2" d="M261.645,134.18774a2.50257,2.50257,0,0,1-1.83887-.6997c-.33008.52978-.36035.56982-.36035.56982-.06934.10986-.0791.12988-.14941.12988-.11035,0-.11035-.06982-.11035-.23974v-1.999c0-.17968,0-.24951.12988-.24951a.104.104,0,0,1,.12012.09961,2.02019,2.02019,0,0,0,.62011,1.53906,2.41006,2.41006,0,0,0,1.5791.54,1.37045,1.37045,0,0,0,1.33887-1.4292,1.45843,1.45843,0,0,0-.30957-.91943,1.32736,1.32736,0,0,0-.84961-.50976c-.69922-.16993-1.209-.29-1.31933-.33008a1.93587,1.93587,0,0,1,.63964-3.76758,2.0583,2.0583,0,0,1,1.59961.69922l.34961-.56934c.06934-.12012.08008-.12988.14942-.12988.11035,0,.11035.06982.11035.23975v2.00878c0,.19,0,.23975-.12988.23975-.11036,0-.11036-.06006-.12012-.11963-.05957-.44971-.28028-2.08887-1.94922-2.08887a1.3064,1.3064,0,0,0-.30957,2.57862l1.2793.30957a2.04445,2.04445,0,0,1,1.499,2.019A2.00367,2.00367,0,0,1,261.645,134.18774Z" transform="translate(-83.49316 -99)"/>
        <path class="cls-2" d="M266.51514,134.07788a1.209,1.209,0,0,1-1.28907-1.34912v-2.7583h-.84961v-.22022c.9795-.04,1.2793-1.10937,1.28907-1.92871h.25v1.83887h1.42968v.31006h-1.42968v2.77832c0,.16992,0,1.0791.66992,1.0791.37012,0,.66992-.37939.66992-1.11914v-.5498h.25v.56982C267.50537,133.36841,267.2251,134.07788,266.51514,134.07788Z" transform="translate(-83.49316 -99)"/>
        <path class="cls-2" d="M270.56494,134.07788a2.23133,2.23133,0,0,1-2.209-2.24853,2.21721,2.21721,0,1,1,4.42773,0A2.2269,2.2269,0,0,1,270.56494,134.07788Zm1.12988-3.71777a1.31109,1.31109,0,0,0-1.12988-.6499,1.34265,1.34265,0,0,0-1.13965.66992,2.87142,2.87142,0,0,0-.23925,1.36914,2.97258,2.97258,0,0,0,.25,1.40918,1.304,1.304,0,0,0,1.13867.66943,1.29093,1.29093,0,0,0,1.16015-.73926,3.03845,3.03845,0,0,0,.21973-1.33935A2.74347,2.74347,0,0,0,271.69482,130.36011Z" transform="translate(-83.49316 -99)"/>
        <path class="cls-2" d="M276.28467,130.59985a.41406.41406,0,0,1-.42969-.42968.43362.43362,0,0,1,.22949-.38965c-.01953-.01026-.04-.01026-.10937-.01026-.75977,0-1.17969.88965-1.17969,1.87891v1.53906c0,.35987.02051.46973.75977.46973h.21v.31006c-.40039-.02979-.87012-.02979-1.26953-.02979l-1.13965.02979V133.658c.66992,0,.78027,0,.78027-.44971V130.53c0-.48975-.08008-.55957-.78027-.55957v-.31006l1.38965-.10986v1.09912a1.39943,1.39943,0,0,1,1.22949-1.09912.68154.68154,0,0,1,.73926.60937A.42022.42022,0,0,1,276.28467,130.59985Z" transform="translate(-83.49316 -99)"/>
        <path class="cls-2" d="M281.00439,134.02808a.83664.83664,0,0,1-.77929-.81983,1.38206,1.38206,0,0,1-1.30957.86963c-.62989,0-1.59864-.25-1.59864-1.05957a1.45585,1.45585,0,0,1,.999-1.29883,4.85262,4.85262,0,0,1,1.83984-.35986v-.37012a1.1325,1.1325,0,0,0-1.06055-1.27929,1.40263,1.40263,0,0,0-1.0791.46c.46.00976.50977.33984.50977.45947a.45953.45953,0,1,1-.91895-.00977c0-.65966.68946-1.12939,1.50879-1.12939a1.9071,1.9071,0,0,1,1.36914.5498,1.47625,1.47625,0,0,1,.36035,1.1792v1.999c0,.0498.04.49951.36915.49951.11035,0,.36035-.06006.36035-.63965v-.55957h.25v.55957A.84927.84927,0,0,1,281.00439,134.02808Zm-.84863-2.459c-1.64941.06006-2.06933.88965-2.06933,1.43945a.86036.86036,0,0,0,.89941.84961,1.20128,1.20128,0,0,0,1.16992-1.28955Z" transform="translate(-83.49316 -99)"/>
        <path class="cls-2" d="M286.5542,130.23022a.284.284,0,0,1-.29-.29.26726.26726,0,0,1,.16016-.27.47566.47566,0,0,0-.10059-.00977,1.31345,1.31345,0,0,0-.89941.38965,1.35012,1.35012,0,0,1,.41015.96973,1.54656,1.54656,0,0,1-1.61914,1.459,1.7021,1.7021,0,0,1-.98926-.30957.73562.73562,0,0,0-.16992.46973.65188.65188,0,0,0,.5293.66943c.07031.01025.5.01025.75.01025a3.55078,3.55078,0,0,1,1.71875.27979,1.27755,1.27755,0,0,1,.64941,1.13916c0,.77978-1.03906,1.28955-2.21875,1.28955-1.21875,0-2.208-.54981-2.208-1.26953a1.12707,1.12707,0,0,1,.91894-.99951,1.06589,1.06589,0,0,1-.43945-.88965,1.3804,1.3804,0,0,1,.30957-.8291,1.37717,1.37717,0,0,1-.46973-1.02979,1.54656,1.54656,0,0,1,1.61914-1.459,1.66607,1.66607,0,0,1,1.05957.35986,1.53754,1.53754,0,0,1,1.05957-.46973.48911.48911,0,0,1,.50977.48975A.28907.28907,0,0,1,286.5542,130.23022Zm-2.34863,3.668h-.58985a.87955.87955,0,0,0-.81933.85938c0,.52978.68945,1.03955,1.69922,1.03955.97949,0,1.68847-.5,1.68847-1.03955C286.18408,133.89819,285.06494,133.89819,284.20557,133.89819Zm.00976-4.11767a.86616.86616,0,0,0-.71.39941,1.64623,1.64623,0,0,0-.15918.83985c0,.23,0,1.229.86914,1.229a.86617.86617,0,0,0,.71-.39941,1.64613,1.64613,0,0,0,.15918-.83985C285.08447,130.77954,285.08447,129.78052,284.21533,129.78052Z" transform="translate(-83.49316 -99)"/>
        <path class="cls-2" d="M289.4751,134.07788a2.25584,2.25584,0,0,1-2.19824-2.30859,2.18358,2.18358,0,0,1,2.07812-2.27881,1.77236,1.77236,0,0,1,1.78906,1.959c0,.21-.02929.21-.25.21H288.106a2.90959,2.90959,0,0,0,.2998,1.499,1.34587,1.34587,0,0,0,1.12988.66943,1.408,1.408,0,0,0,1.34864-1.0293c.02051-.08007.04-.13964.12988-.13964a.1161.1161,0,0,1,.12988.11962A1.70757,1.70757,0,0,1,289.4751,134.07788Zm-.12012-4.36767c-.33984,0-1.17871.25-1.23926,1.73925h2.36914C290.48486,131.05981,290.38428,129.71021,289.355,129.71021Z" transform="translate(-83.49316 -99)"/>
      </g>
      <g>
        <path class="cls-2" d="M258.74072,143.07788a2.25664,2.25664,0,0,1-2.19922-2.30859,2.18437,2.18437,0,0,1,2.07911-2.27881,1.7729,1.7729,0,0,1,1.78906,1.959c0,.21-.03028.21-.25.21h-2.78809a2.90951,2.90951,0,0,0,.29981,1.499,1.34552,1.34552,0,0,0,1.1289.66943,1.40821,1.40821,0,0,0,1.34961-1.0293c.01953-.08007.04-.13964.12989-.13964a.1161.1161,0,0,1,.12988.11962A1.70867,1.70867,0,0,1,258.74072,143.07788Zm-.12011-4.36767c-.33985,0-1.17969.25-1.23926,1.73925h2.36914C259.75049,140.05981,259.6499,138.71021,258.62061,138.71021Z" transform="translate(-83.49316 -99)"/>
        <path class="cls-2" d="M262.14111,142.93823l-1.10937.02979V142.658c.66992,0,.7793,0,.7793-.44971v-5.19678c0-.48974-.08008-.56-.7793-.56v-.30957l1.43945-.10987v6.17627c0,.44971.10938.44971.7793.44971v.31006Z" transform="translate(-83.49316 -99)"/>
        <path class="cls-2" d="M265.96045,143.07788a2.25664,2.25664,0,0,1-2.19922-2.30859,2.18436,2.18436,0,0,1,2.0791-2.27881,1.7729,1.7729,0,0,1,1.78906,1.959c0,.21-.03027.21-.25.21h-2.78808a2.90959,2.90959,0,0,0,.2998,1.499,1.34555,1.34555,0,0,0,1.12891.66943,1.40821,1.40821,0,0,0,1.34961-1.0293c.01953-.08007.04-.13964.12988-.13964a.1161.1161,0,0,1,.12988.11962A1.70865,1.70865,0,0,1,265.96045,143.07788Zm-.12012-4.36767c-.33984,0-1.17969.25-1.23926,1.73925h2.36914C266.97021,140.05981,266.86963,138.71021,265.84033,138.71021Z" transform="translate(-83.49316 -99)"/>
        <path class="cls-2" d="M274.92822,142.93823l-1.12988.02979V142.658c.66992,0,.7793,0,.7793-.44971v-2.32861c0-.56983-.10938-1.10938-.73926-1.10938a1.45981,1.45981,0,0,0-1.34961,1.59912v1.83887c0,.44971.11035.44971.78027.44971v.31006l-1.12011-.02979L271.02,142.968V142.658c.66992,0,.7793,0,.7793-.44971v-2.32861c0-.56983-.10938-1.10938-.73926-1.10938a1.45981,1.45981,0,0,0-1.34961,1.59912v1.83887c0,.44971.11035.44971.7793.44971v.31006l-1.11914-.02979-1.12891.02979V142.658c.66894,0,.7793,0,.7793-.44971V139.53c0-.48975-.08008-.55957-.7793-.55957v-.31006l1.40918-.10986v1.04931a1.57424,1.57424,0,0,1,1.47851-1.04931,1.184,1.184,0,0,1,1.33008.97949,1.58109,1.58109,0,0,1,1.44922-.97949,1.33145,1.33145,0,0,1,1.04883.36963c.31055.35986.31055.66992.31055,1.52929v1.90869c.00976.29981.25976.29981.77929.29981v.31006Z" transform="translate(-83.49316 -99)"/>
        <path class="cls-2" d="M278.73,143.07788a2.25584,2.25584,0,0,1-2.19824-2.30859,2.18358,2.18358,0,0,1,2.07812-2.27881,1.77236,1.77236,0,0,1,1.78907,1.959c0,.21-.0293.21-.25.21h-2.78809a2.90959,2.90959,0,0,0,.2998,1.499,1.3459,1.3459,0,0,0,1.12989.66943,1.408,1.408,0,0,0,1.34863-1.0293c.02051-.08007.04-.13964.12988-.13964a.1161.1161,0,0,1,.12989.11962A1.70757,1.70757,0,0,1,278.73,143.07788Zm-.12012-4.36767c-.33984,0-1.17871.25-1.23925,1.73925h2.36914C279.73975,140.05981,279.63916,138.71021,278.60986,138.71021Z" transform="translate(-83.49316 -99)"/>
        <path class="cls-2" d="M284.91846,142.93823l-1.12891.02979V142.658c.66895,0,.7793,0,.7793-.44971v-2.32861c0-.56983-.11035-1.10938-.73926-1.10938a1.45981,1.45981,0,0,0-1.34961,1.59912v1.83887c0,.44971.11035.44971.7793.44971v.31006l-1.11914-.02979-1.12989.02979V142.658c.66993,0,.78028,0,.78028-.44971V139.53c0-.48975-.08008-.55957-.78028-.55957v-.31006l1.41016-.10986v1.04931a1.57424,1.57424,0,0,1,1.47852-1.04931,1.33239,1.33239,0,0,1,1.0498.36963c.30957.35986.30957.66992.30957,1.52929v1.90869c.00977.29981.25977.29981.7793.29981v.31006Z" transform="translate(-83.49316 -99)"/>
        <path class="cls-2" d="M288.30029,143.07788a1.20929,1.20929,0,0,1-1.29-1.34912v-2.7583h-.84961v-.22022c.9795-.04,1.2793-1.10937,1.29-1.92871h.25v1.83887h1.42871v.31006h-1.42871v2.77832c0,.16992,0,1.0791.66895,1.0791.37012,0,.66992-.37939.66992-1.11914v-.5498h.25v.56982C289.28955,142.36841,289.00928,143.07788,288.30029,143.07788Z" transform="translate(-83.49316 -99)"/>
        <path class="cls-2" d="M291.8501,143.07788a1.49247,1.49247,0,0,1-1.09961-.42969,2.45625,2.45625,0,0,0-.2002.23c-.18945.18995-.20019.19971-.25.19971-.10937,0-.10937-.06982-.10937-.23975V141.5188c0-.17969,0-.25.12988-.25.09961,0,.10938.04.13965.16992.19043.84961.5498,1.41943,1.38965,1.41943.77929,0,1.1289-.3999,1.1289-.90966,0-.71973-.81933-.8794-1.03906-.91944a2.61027,2.61027,0,0,1-1.31933-.46,1.06245,1.06245,0,0,1-.42969-.84912c0-.56006.37988-1.22949,1.59863-1.22949a1.53949,1.53949,0,0,1,.93945.27978,1.25474,1.25474,0,0,0,.16993-.15966c.12988-.12012.15039-.12012.20019-.12012.11035,0,.11035.06982.11035.23974V139.74c0,.18945,0,.23975-.13086.23975,0,0-.10937,0-.11914-.08985a1.10334,1.10334,0,0,0-1.16992-1.20947c-.85937,0-1.11914.40967-1.11914.75977,0,.57959.66992.70947,1.22949.81933a2.03982,2.03982,0,0,1,1.13965.47949,1.29343,1.29343,0,0,1,.41895.94971C293.4585,142.40845,292.99951,143.07788,291.8501,143.07788Z" transform="translate(-83.49316 -99)"/>
      </g>
    </g>
    <g>
      <line class="cls-1" x1="126.50684" y1="11" x2="239.98853" y2="11"/>
      <polygon class="cls-2" points="235.35 16.726 234.395 15.7 239.451 11.001 234.395 6.301 235.35 5.276 241.507 11.001 235.35 16.726"/>
    </g>
    <g>
      <polyline class="cls-1" points="216.507 36 241.507 36 241.507 76 31.507 76 31.507 36 54.989 36"/>
      <polygon class="cls-2" points="50.35 41.726 49.395 40.7 54.451 36.001 49.395 31.301 50.35 30.276 56.507 36.001 50.35 41.726"/>
    </g>
    <g>
      <line class="cls-1" x1="126.50684" y1="36" x2="164.98854" y2="36"/>
      <polygon class="cls-2" points="160.35 41.726 159.395 40.7 164.451 36.001 159.395 31.301 160.35 30.276 166.507 36.001 160.35 41.726"/>
    </g>
    <g>
      <line class="cls-1" x1="54.98854" y1="11" x2="31.50684" y2="11"/>
      <polygon class="cls-2" points="50.35 5.274 49.395 6.3 54.451 10.999 49.395 15.699 50.35 16.724 56.507 10.999 50.35 5.274"/>
    </g>
    <g>
      <path class="cls-2" d="M85.01221,112.28467c-.3794,0-1.16895,0-1.519.02978v-.31006h.25977c.78955,0,.81982-.10986.81982-.46972v-5.26709c0-.35938-.03027-.46973-.81982-.46973h-.25977v-.30957c.3501.02979,1.13965.02979,1.5293.02979.37988,0,1.16943,0,1.519-.02979v.30957h-.25976c-.78955,0-.81983.11035-.81983.46973v5.26709c0,.35986.03028.46972.81983.46972h.25976v.31006C86.19189,112.28467,85.40234,112.28467,85.01221,112.28467Z" transform="translate(-83.49316 -99)"/>
      <path class="cls-2" d="M91.05078,112.28467l-1.12939.02978v-.31006c.66992,0,.77978,0,.77978-.4497v-2.32862c0-.56982-.10986-1.10937-.73974-1.10937a1.45948,1.45948,0,0,0-1.34913,1.59912v1.83887c0,.4497.10987.4497.7793.4497v.31006l-1.11914-.02978-1.12939.02978v-.31006c.66943,0,.77978,0,.77978-.4497v-2.67823c0-.48974-.08008-.56-.77978-.56v-.30957l1.40918-.10987v1.04932a1.57535,1.57535,0,0,1,1.479-1.04932,1.33322,1.33322,0,0,1,1.0498.36963c.30958.35986.30958.66992.30958,1.5293v1.90869c.01025.2998.25976.2998.77978.2998v.31006Z" transform="translate(-83.49316 -99)"/>
      <path class="cls-2" d="M95.36182,112.42432a1.35684,1.35684,0,0,1-1.2295-.69971v1.769c0,.44971.10987.44971.77979.44971v.31006l-1.1294-.02979-1.11962.02979v-.31006c.66992,0,.77978,0,.77978-.44971v-4.67724c0-.44-.07031-.5-.77978-.5v-.30957l1.43945-.10987v.65967a1.79952,1.79952,0,0,1,1.39892-.65967,2.18706,2.18706,0,0,1,2.08887,2.25879A2.25238,2.25238,0,0,1,95.36182,112.42432Zm.06006-4.27735a1.49847,1.49847,0,0,0-1.28956.79932v2.229a.52321.52321,0,0,0,.14014.41944,1.24521,1.24521,0,0,0,1.04932.60986c.73974,0,1.439-.83984,1.439-2.04883C96.76074,109.02637,96.15137,108.147,95.42188,108.147Z" transform="translate(-83.49316 -99)"/>
      <path class="cls-2" d="M101.85107,112.42432v-.89942a1.36292,1.36292,0,0,1-1.28906.89942c-1.519,0-1.519-.90967-1.519-1.689v-1.499c0-.88965,0-.91992-.77979-.91992v-.30957l1.46924-.10987v3.31787c0,.52.04.98975.8794.98975.72949,0,1.20947-.67969,1.20947-1.54932v-1.77881c0-.48974-.08008-.56-.77979-.56v-.30957l1.46924-.10987v3.54785c0,.48975.08008.55957.77979.55957v.31006Z" transform="translate(-83.49316 -99)"/>
      <path class="cls-2" d="M105.832,112.42432a1.20885,1.20885,0,0,1-1.28906-1.34912v-2.75879h-.84961v-.21973c.97949-.04,1.2793-1.10938,1.28906-1.92871h.25v1.83887h1.4292v.30957h-1.4292v2.7788c0,.16993,0,1.07911.66992,1.07911.36963,0,.66944-.3794.66944-1.11914v-.54981h.25v.56983C106.82178,111.71484,106.542,112.42432,105.832,112.42432Z" transform="translate(-83.49316 -99)"/>
      <path class="cls-2" d="M109.38184,112.42432a1.49161,1.49161,0,0,1-1.09913-.42969,2.25444,2.25444,0,0,0-.20019.23c-.18994.18994-.19971.19971-.24951.19971-.11035,0-.11035-.06983-.11035-.23975v-1.31934c0-.17968,0-.25.13037-.25.09961,0,.10986.04.13965.16993.18994.84961.5498,1.41943,1.38916,1.41943.77978,0,1.12939-.3999,1.12939-.90967,0-.71972-.81934-.87939-1.03955-.91943a2.62193,2.62193,0,0,1-1.31885-.45947,1.06594,1.06594,0,0,1-.43017-.84961c0-.56006.37988-1.2295,1.59912-1.2295a1.54142,1.54142,0,0,1,.93994.27979,1.31349,1.31349,0,0,0,.16992-.15967c.12988-.12012.1499-.12012.19971-.12012.10986,0,.10986.06983.10986.23975v1.00977c0,.18994,0,.23974-.12988.23974,0,0-.10987,0-.12012-.08984a1.10261,1.10261,0,0,0-1.16943-1.20947c-.85938,0-1.11914.40966-1.11914.75976,0,.57959.66943.70947,1.22949.81934a2.03837,2.03837,0,0,1,1.13916.47949,1.28961,1.28961,0,0,1,.41992.94971C110.99121,111.75488,110.53125,112.42432,109.38184,112.42432Z" transform="translate(-83.49316 -99)"/>
    </g>
    <g>
      <path class="cls-2" d="M225.69238,125.58105v5.51758c0,.18946,0,.25977-.13965.25977-.06933,0-.08007-.00977-.16992-.12988l-4.07715-5.99707a.597.597,0,0,0-.10058-.12012v5.19726c0,.26954,0,.73926,1.0293.73926v.31055l-1.16895-.03027-1.16992.03027v-.31055c1.03027,0,1.03027-.46972,1.03027-.73926V125.0918c0-.19043-.01074-.2002-.24023-.23047-.15039-.00977-.34961-.01953-.5-.01953h-.29v-.30957h1.69922c.19043,0,.20019.00976.29.12988l3.52832,5.18652v-4.26758c0-.26953,0-.73925-1.0293-.73925v-.30957l1.16894.02929,1.16993-.02929v.30957C225.69238,124.8418,225.69238,125.31152,225.69238,125.58105Z" transform="translate(-83.49316 -99)"/>
      <path class="cls-2" d="M229.54492,131.46777a2.25632,2.25632,0,0,1-2.19922-2.30859,2.18423,2.18423,0,0,1,2.0791-2.27832,1.77267,1.77267,0,0,1,1.78907,1.959c0,.21-.03028.21-.25.21h-2.78809a2.91039,2.91039,0,0,0,.29981,1.499,1.34615,1.34615,0,0,0,1.1289.66894,1.40821,1.40821,0,0,0,1.34961-1.02929c.01953-.08008.04-.13965.12988-.13965a.1165.1165,0,0,1,.12989.12012A1.70887,1.70887,0,0,1,229.54492,131.46777Zm-.12012-4.36718c-.33984,0-1.17968.25-1.23925,1.73925h2.36914C230.55469,128.4502,230.4541,127.10059,229.4248,127.10059Z" transform="translate(-83.49316 -99)"/>
      <path class="cls-2" d="M235.7041,131.32813l-1.08008.03027v-.31055c.27051-.00976.36036-.15918.36036-.249a1.20946,1.20946,0,0,0-.21-.33008l-.75976-1c-.60938.71973-.89942,1.0498-.89942,1.26953a.29029.29029,0,0,0,.29.30957v.31055l-.94922-.03027c-.26074,0-.57031.00976-.83007.03027v-.31055a1.59744,1.59744,0,0,0,1.27929-.59961c.46973-.56933.46973-.58886.93946-1.18847l-.98926-1.29c-.46973-.59961-.47949-.60938-1.17969-.60938v-.30957c.27051.01953.74024.0293.9502.0293l1.0791-.0293v.30957c-.2002.00977-.34961.09961-.34961.25,0,.05957,0,.08008.08984.17969l.7793,1.00976.62012-.78027a.56968.56968,0,0,0,.14941-.34961.287.287,0,0,0-.29-.30957v-.30957c.12988.00977.66016.0293.96.0293.25977,0,.55957-.00977.81934-.0293v.30957a1.53266,1.53266,0,0,0-1.18945.51953c-.24024.25977-.61915.75-.91895,1.12989l1.33887,1.72851c.22949.29.41015.30957.94922.30957v.31055C236.36328,131.33789,235.97363,131.32813,235.7041,131.32813Z" transform="translate(-83.49316 -99)"/>
      <path class="cls-2" d="M239.11426,131.46777a1.2086,1.2086,0,0,1-1.28906-1.34863v-2.75879h-.84961v-.21972c.97949-.04,1.27929-1.10938,1.28906-1.92872h.25v1.83887h1.42969v.30957h-1.42969v2.77832c0,.16992,0,1.0791.66992,1.0791.37012,0,.66992-.3789.66992-1.11914v-.5498h.25v.57031C240.10449,130.75879,239.82422,131.46777,239.11426,131.46777Z" transform="translate(-83.49316 -99)"/>
    </g>
    <g>
      <path class="cls-2" d="M221.49512,145.63281a2.50695,2.50695,0,0,1-1.83985-.6997c-.3291.52978-.35937.56982-.35937.56982-.07031.10986-.08008.12988-.15039.12988-.10938,0-.10938-.06982-.10938-.23974v-1.999c0-.17968,0-.24951.12989-.24951a.104.104,0,0,1,.12011.09961,2.02235,2.02235,0,0,0,.61914,1.53906,2.41313,2.41313,0,0,0,1.57911.54,1.37063,1.37063,0,0,0,1.33984-1.4292,1.45933,1.45933,0,0,0-.31055-.91943,1.32333,1.32333,0,0,0-.84863-.50977c-.7002-.16992-1.21-.29-1.31934-.33007a1.93587,1.93587,0,0,1,.63965-3.76758,2.05761,2.05761,0,0,1,1.59863.69922l.34961-.56934c.07032-.12012.08008-.12988.15039-.12988.10938,0,.10938.06982.10938.23974v2.00879c0,.18994,0,.23975-.12988.23975-.10938,0-.10938-.06006-.11914-.11963-.06055-.44971-.28028-2.08887-1.94922-2.08887a1.3064,1.3064,0,0,0-.30957,2.57862l1.27929.30957a2.04553,2.04553,0,0,1,1.499,2.019A2.00367,2.00367,0,0,1,221.49512,145.63281Z" transform="translate(-83.49316 -99)"/>
      <path class="cls-2" d="M226.36523,145.523a1.20865,1.20865,0,0,1-1.28906-1.34912v-2.7583h-.84961v-.22022c.97949-.04,1.2793-1.10937,1.28907-1.92871h.25v1.83887h1.42871v.31006h-1.42871v2.77832c0,.16992,0,1.0791.66992,1.0791.36914,0,.66894-.3794.66894-1.11914V143.604h.25v.56983C227.35449,144.81348,227.0752,145.523,226.36523,145.523Z" transform="translate(-83.49316 -99)"/>
      <path class="cls-2" d="M231.93359,145.47314a.83663.83663,0,0,1-.77929-.81982,1.38206,1.38206,0,0,1-1.30957.86963c-.62989,0-1.59864-.25-1.59864-1.05957a1.45585,1.45585,0,0,1,.999-1.29883,4.85144,4.85144,0,0,1,1.83886-.35986v-.37012a1.13187,1.13187,0,0,0-1.05957-1.2793,1.40267,1.40267,0,0,0-1.0791.46c.46.00977.50977.33985.50977.45948a.45953.45953,0,1,1-.91895-.00977c0-.65967.68946-1.12939,1.50879-1.12939a1.90705,1.90705,0,0,1,1.36914.5498,1.47894,1.47894,0,0,1,.35938,1.1792v1.999c0,.04981.04.49952.37011.49952.11036,0,.36036-.06006.36036-.63965v-.55957h.249v.55957A.84866.84866,0,0,1,231.93359,145.47314Zm-.84961-2.459c-1.64843.06006-2.06835.88965-2.06835,1.43945a.86035.86035,0,0,0,.89941.84961,1.2006,1.2006,0,0,0,1.16894-1.28955Z" transform="translate(-83.49316 -99)"/>
      <path class="cls-2" d="M235.25488,145.523a1.20865,1.20865,0,0,1-1.28906-1.34912v-2.7583h-.84961v-.22022c.97949-.04,1.2793-1.10937,1.28906-1.92871h.25v1.83887H236.084v.31006h-1.42871v2.77832c0,.16992,0,1.0791.66993,1.0791.36914,0,.66894-.3794.66894-1.11914V143.604h.25v.56983C236.24414,144.81348,235.96484,145.523,235.25488,145.523Z" transform="translate(-83.49316 -99)"/>
      <path class="cls-2" d="M239.29492,145.523a2.25664,2.25664,0,0,1-2.19922-2.30859,2.18436,2.18436,0,0,1,2.0791-2.27881,1.7729,1.7729,0,0,1,1.78907,1.959c0,.21-.03028.21-.25.21h-2.78809a2.90952,2.90952,0,0,0,.29981,1.499,1.34555,1.34555,0,0,0,1.1289.66943,1.40821,1.40821,0,0,0,1.34961-1.0293c.01953-.08008.04-.13965.12988-.13965a.11611.11611,0,0,1,.12989.11963A1.70868,1.70868,0,0,1,239.29492,145.523Zm-.12012-4.36768c-.33984,0-1.17968.25-1.23925,1.73926h2.36914C240.30469,142.50488,240.2041,141.15527,239.1748,141.15527Z" transform="translate(-83.49316 -99)"/>
    </g>
    <g>
      <path class="cls-2" d="M270.02539,182.2h-1.68945v2.37842c0,.35986.01953.46973.78906.46973h.24023v.31c-.3496-.02978-1.0996-.02978-1.47851-.02978-.37988,0-1.11914,0-1.46973.02978v-.31h.24024c.76953,0,.79-.10987.79-.46973v-5.26709c0-.35938-.02051-.46973-.79-.46973H266.417V178.532h3.52832a1.885,1.885,0,1,1,.08008,3.668Zm-.33984-3.3584h-.88965c-.46973,0-.48926.07032-.48926.39991v2.69873h1.37891c1.58886,0,1.58886-1.07959,1.58886-1.54932C271.27441,179.90112,271.27441,178.84155,269.68555,178.84155Z" transform="translate(-83.49316 -99)"/>
      <path class="cls-2" d="M276.08594,181.99a.41353.41353,0,0,1-.42969-.42969.43185.43185,0,0,1,.22949-.38965.2499.2499,0,0,0-.11035-.01025c-.75976,0-1.17871.88965-1.17871,1.87891v1.53906c0,.35986.02051.46973.75879.46973h.21094v.31c-.40039-.02978-.87012-.02978-1.26953-.02978l-1.13965.02978v-.31c.66992,0,.78027,0,.78027-.44971v-2.67822c0-.48975-.08008-.56006-.78027-.56006v-.30957l1.38965-.10987v1.09912a1.39932,1.39932,0,0,1,1.22851-1.09912.68253.68253,0,0,1,.74024.60938A.42022.42022,0,0,1,276.08594,181.99Z" transform="translate(-83.49316 -99)"/>
      <path class="cls-2" d="M279.27539,185.468a2.25647,2.25647,0,0,1-2.19824-2.3086,2.18371,2.18371,0,0,1,2.0791-2.2788,1.7729,1.7729,0,0,1,1.78906,1.959c0,.21-.03027.21-.25.21h-2.78906a2.90142,2.90142,0,0,0,.30078,1.499,1.34424,1.34424,0,0,0,1.12891.66944,1.4089,1.4089,0,0,0,1.34961-1.0293c.01953-.08008.03906-.13965.1289-.13965a.11643.11643,0,0,1,.13086.11963A1.709,1.709,0,0,1,279.27539,185.468Zm-.11914-4.36768c-.33984,0-1.17969.25-1.23926,1.73926h2.36817C280.28516,182.45,280.18555,181.10034,279.15625,181.10034Z" transform="translate(-83.49316 -99)"/>
      <path class="cls-2" d="M283.22656,185.468a1.49133,1.49133,0,0,1-1.09961-.42969,2.45668,2.45668,0,0,0-.20019.23c-.19043.18994-.2002.19971-.249.19971-.11132,0-.11132-.06983-.11132-.23975v-1.31933c0-.17969,0-.25.13086-.25.09961,0,.10937.04.13964.16992.19043.84961.54981,1.41943,1.38965,1.41943.7793,0,1.12891-.3999,1.12891-.90967,0-.71972-.81934-.87939-1.03906-.91943a2.62029,2.62029,0,0,1-1.31934-.45947,1.065,1.065,0,0,1-.43066-.84961c0-.56006.38086-1.22949,1.59961-1.22949a1.538,1.538,0,0,1,.93945.27978,1.22466,1.22466,0,0,0,.16992-.15967c.13086-.12011.15039-.12011.2002-.12011.11035,0,.11035.06982.11035.23974v1.00977c0,.18994,0,.23974-.13086.23974,0,0-.10938,0-.11914-.08984a1.10334,1.10334,0,0,0-1.16992-1.20947c-.85938,0-1.11914.40966-1.11914.75976,0,.57959.66992.70947,1.22949.81934a2.0427,2.0427,0,0,1,1.13965.47949,1.29329,1.29329,0,0,1,.41992.94971C284.83594,184.79858,284.375,185.468,283.22656,185.468Z" transform="translate(-83.49316 -99)"/>
      <path class="cls-2" d="M287.65625,185.468a2.256,2.256,0,0,1-2.19922-2.3086,2.18435,2.18435,0,0,1,2.0791-2.2788,1.7729,1.7729,0,0,1,1.78907,1.959c0,.21-.03028.21-.25.21h-2.78809a2.9177,2.9177,0,0,0,.29883,1.499,1.34851,1.34851,0,0,0,1.12988.66944,1.40731,1.40731,0,0,0,1.34863-1.0293c.02051-.08008.041-.13965.13086-.13965a.11611.11611,0,0,1,.12989.11963A1.70868,1.70868,0,0,1,287.65625,185.468Zm-.12012-4.36768c-.33984,0-1.17968.25-1.23925,1.73926H288.666C288.666,182.45,288.56543,181.10034,287.53613,181.10034Z" transform="translate(-83.49316 -99)"/>
      <path class="cls-2" d="M293.84473,185.32837l-1.12989.02978v-.31c.66993,0,.78028,0,.78028-.44971v-2.32861c0-.56983-.11035-1.10938-.73926-1.10938a1.45921,1.45921,0,0,0-1.34961,1.59912v1.83887c0,.44971.10938.44971.7793.44971v.31l-1.11914-.02978-1.12891.02978v-.31c.66895,0,.7793,0,.7793-.44971v-2.67822c0-.48975-.08008-.56006-.7793-.56006v-.30957l1.4082-.10987V181.99a1.57648,1.57648,0,0,1,1.4795-1.04932,1.33406,1.33406,0,0,1,1.0498.36963c.30957.35987.30957.66992.30957,1.5293v1.90869c.01074.29981.25977.29981.78027.29981v.31Z" transform="translate(-83.49316 -99)"/>
      <path class="cls-2" d="M297.22559,185.468a1.20866,1.20866,0,0,1-1.28907-1.34912v-2.75879h-.84961v-.21973c.9795-.04,1.2793-1.10937,1.28907-1.92871h.25v1.83887h1.42871v.30957H296.626v2.77881c0,.16992,0,1.0791.66992,1.0791.37012,0,.66894-.3794.66894-1.11914v-.54981h.25v.56983C298.21484,184.75854,297.93555,185.468,297.22559,185.468Z" transform="translate(-83.49316 -99)"/>
      <path class="cls-2" d="M304.10547,185.468a1.49251,1.49251,0,0,1-1.09961-.42969,2.111,2.111,0,0,0-.19922.23c-.19043.18994-.20019.19971-.25.19971-.11035,0-.11035-.06983-.11035-.23975v-1.31933c0-.17969,0-.25.12988-.25.09961,0,.11035.04.14063.16992.18945.84961.54883,1.41943,1.38867,1.41943.7793,0,1.12891-.3999,1.12891-.90967,0-.71972-.81836-.87939-1.03907-.91943a2.61978,2.61978,0,0,1-1.31836-.45947,1.06506,1.06506,0,0,1-.43066-.84961c0-.56006.37988-1.22949,1.59863-1.22949a1.54192,1.54192,0,0,1,.94043.27978,1.28183,1.28183,0,0,0,.16992-.15967c.12989-.12011.14942-.12011.2002-.12011.10937,0,.10937.06982.10937.23974v1.00977c0,.18994,0,.23974-.12988.23974,0,0-.11035,0-.12012-.08984a1.10275,1.10275,0,0,0-1.16992-1.20947c-.85937,0-1.11914.40966-1.11914.75976,0,.57959.66992.70947,1.23047.81934a2.03978,2.03978,0,0,1,1.13867.47949,1.28961,1.28961,0,0,1,.41992.94971C305.71484,184.79858,305.25488,185.468,304.10547,185.468Z" transform="translate(-83.49316 -99)"/>
      <path class="cls-2" d="M308.38477,185.468a1.209,1.209,0,0,1-1.28907-1.34912v-2.75879h-.84961v-.21973c.98047-.04,1.2793-1.10937,1.28907-1.92871h.25v1.83887h1.42968v.30957h-1.42968v2.77881c0,.16992,0,1.0791.66992,1.0791.37012,0,.66992-.3794.66992-1.11914v-.54981h.25v.56983C309.375,184.75854,309.09473,185.468,308.38477,185.468Z" transform="translate(-83.49316 -99)"/>
      <path class="cls-2" d="M313.95508,185.41821a.83676.83676,0,0,1-.78028-.81982,1.382,1.382,0,0,1-1.30957.86963c-.6289,0-1.59863-.25-1.59863-1.05957a1.45583,1.45583,0,0,1,.999-1.29883,4.856,4.856,0,0,1,1.83984-.35986v-.37012a1.13251,1.13251,0,0,0-1.06055-1.2793,1.40071,1.40071,0,0,0-1.07812.46.45336.45336,0,0,1,.50976.45948.46.46,0,1,1-.91992-.00977c0-.65967.68945-1.12939,1.50879-1.12939a1.91287,1.91287,0,0,1,1.37012.5498,1.479,1.479,0,0,1,.35937,1.1792v1.999c0,.04981.03906.49951.36914.49951.11035,0,.36035-.06.36035-.63964v-.55957h.249v.55957A.84855.84855,0,0,1,313.95508,185.41821Zm-.84961-2.45849c-1.64942.05957-2.06934.88916-2.06934,1.439a.86037.86037,0,0,0,.89942.84961,1.20128,1.20128,0,0,0,1.16992-1.28955Z" transform="translate(-83.49316 -99)"/>
      <path class="cls-2" d="M317.27539,185.468a1.209,1.209,0,0,1-1.28906-1.34912v-2.75879h-.84961v-.21973c.97949-.04,1.2793-1.10937,1.28906-1.92871h.25v1.83887h1.42969v.30957h-1.42969v2.77881c0,.16992,0,1.0791.66992,1.0791.36914,0,.66993-.3794.66993-1.11914v-.54981h.25v.56983C318.26563,184.75854,317.98535,185.468,317.27539,185.468Z" transform="translate(-83.49316 -99)"/>
      <path class="cls-2" d="M321.31543,185.468a2.25585,2.25585,0,0,1-2.19824-2.3086,2.18358,2.18358,0,0,1,2.07812-2.2788,1.77236,1.77236,0,0,1,1.78907,1.959c0,.21-.0293.21-.25.21h-2.78809a2.90957,2.90957,0,0,0,.2998,1.499,1.34687,1.34687,0,0,0,1.12891.66944,1.40821,1.40821,0,0,0,1.34961-1.0293c.01953-.08008.04-.13965.12988-.13965a.11611.11611,0,0,1,.12989.11963A1.70758,1.70758,0,0,1,321.31543,185.468Zm-.12012-4.36768c-.33984,0-1.17968.25-1.23926,1.73926h2.36915C322.3252,182.45,322.22461,181.10034,321.19531,181.10034Z" transform="translate(-83.49316 -99)"/>
    </g>
    <g>
      <path class="cls-3" d="M331.668,106.16016a3.00331,3.00331,0,0,1,2.23437.979,3.38043,3.38043,0,0,1,.94532,2.44385,3.48137,3.48137,0,0,1-.95313,2.50488,3.18221,3.18221,0,0,1-4.60156.02441,3.48589,3.48589,0,0,1-.92969-2.51464,3.34791,3.34791,0,0,1,1.07422-2.57325A3.16661,3.16661,0,0,1,331.668,106.16016Zm-.0918.35644a1.74571,1.74571,0,0,0-1.42578.65918,3.7249,3.7249,0,0,0-.66992,2.40235,3.93445,3.93445,0,0,0,.69336,2.49511,1.71454,1.71454,0,0,0,1.40625.66406,1.92248,1.92248,0,0,0,1.541-.72753,3.54771,3.54771,0,0,0,.60743-2.29493,4.01248,4.01248,0,0,0-.668-2.53418A1.805,1.805,0,0,0,331.57617,106.5166Z" transform="translate(-83.49316 -99)"/>
      <path class="cls-3" d="M339.14063,113.04248v-.89941a1.36248,1.36248,0,0,1-1.28907.89941c-1.51953,0-1.51953-.90967-1.51953-1.689v-1.499c0-.88965,0-.91992-.7793-.91992V108.625l1.46875-.10986V111.833c0,.52.041.98974.87989.98974.72949,0,1.21-.67968,1.21-1.54931v-1.77881c0-.48975-.08008-.56006-.78028-.56006V108.625l1.46973-.10986V112.063c0,.48974.08008.55957.7793.55957v.31006Z" transform="translate(-83.49316 -99)"/>
      <path class="cls-3" d="M343.12109,113.04248a1.209,1.209,0,0,1-1.28906-1.34912v-2.75879h-.84961v-.21973c.98047-.04,1.2793-1.10937,1.28906-1.92871h.25V108.625h1.42969v.30957h-1.42969v2.77881c0,.16992,0,1.0791.66993,1.0791.37011,0,.66992-.37939.66992-1.11914v-.5498h.25v.56982C344.11133,112.333,343.83105,113.04248,343.12109,113.04248Z" transform="translate(-83.49316 -99)"/>
      <path class="cls-3" d="M347.66113,113.04248a1.35683,1.35683,0,0,1-1.22949-.69971v1.769c0,.4497.10938.4497.7793.4497v.31006l-1.12891-.02978-1.11914.02978v-.31006c.66992,0,.7793,0,.7793-.4497v-4.67725c0-.43994-.07031-.5-.7793-.5V108.625l1.43945-.10986v.65966a1.79741,1.79741,0,0,1,1.39844-.65966,2.18738,2.18738,0,0,1,2.08887,2.25879A2.25269,2.25269,0,0,1,347.66113,113.04248Zm.05957-4.27734a1.49774,1.49774,0,0,0-1.28906.79931v2.229a.522.522,0,0,0,.14063.41943,1.24379,1.24379,0,0,0,1.04882.60986c.73926,0,1.43946-.83984,1.43946-2.04882C349.06055,109.64453,348.45117,108.76514,347.7207,108.76514Z" transform="translate(-83.49316 -99)"/>
      <path class="cls-3" d="M354.15039,113.04248v-.89941a1.36246,1.36246,0,0,1-1.28906.89941c-1.51953,0-1.51953-.90967-1.51953-1.689v-1.499c0-.88965,0-.91992-.7793-.91992V108.625l1.46875-.10986V111.833c0,.52.041.98974.87988.98974.7295,0,1.21-.67968,1.21-1.54931v-1.77881c0-.48975-.08007-.56006-.78027-.56006V108.625l1.46973-.10986V112.063c0,.48974.08008.55957.77929.55957v.31006Z" transform="translate(-83.49316 -99)"/>
      <path class="cls-3" d="M358.13086,113.04248a1.209,1.209,0,0,1-1.28906-1.34912v-2.75879h-.84961v-.21973c.98047-.04,1.27929-1.10937,1.28906-1.92871h.25V108.625h1.42969v.30957h-1.42969v2.77881c0,.16992,0,1.0791.66992,1.0791.37012,0,.66992-.37939.66992-1.11914v-.5498h.25v.56982C359.12109,112.333,358.84082,113.04248,358.13086,113.04248Z" transform="translate(-83.49316 -99)"/>
      <path class="cls-3" d="M361.68164,113.04248a1.49251,1.49251,0,0,1-1.09961-.42969,2.111,2.111,0,0,0-.19922.23c-.19043.18994-.20019.19971-.25.19971-.11035,0-.11035-.06982-.11035-.23975V111.4834c0-.17969,0-.25.12988-.25.09961,0,.11036.04.14063.16992.18945.84961.54883,1.41943,1.38867,1.41943.7793,0,1.12891-.3999,1.12891-.90966,0-.71973-.81836-.8794-1.03907-.91944a2.61951,2.61951,0,0,1-1.31835-.45947,1.065,1.065,0,0,1-.43067-.84961c0-.56006.37988-1.22949,1.59863-1.22949a1.54192,1.54192,0,0,1,.94043.27978,1.28311,1.28311,0,0,0,.16993-.15966c.12988-.12012.14941-.12012.20019-.12012.10938,0,.10938.06982.10938.23974v1.00977c0,.18994,0,.23975-.12989.23975,0,0-.11035,0-.12011-.08985a1.10277,1.10277,0,0,0-1.16993-1.20947c-.85937,0-1.11914.40967-1.11914.75977,0,.57959.66993.70947,1.23047.81933a2.03975,2.03975,0,0,1,1.13867.47949,1.28963,1.28963,0,0,1,.41993.94971C363.291,112.37305,362.83105,113.04248,361.68164,113.04248Z" transform="translate(-83.49316 -99)"/>
    </g>
  </g>
</svg>
