<svg id="Layer_1" data-name="Layer 1" xmlns="http://www.w3.org/2000/svg" viewBox="0 0 277.4373 86.47134">
  <defs>
    <style>
      .cls-1 {
        fill: none;
        stroke: #8ff4dd;
        stroke-miterlimit: 10;
        stroke-width: 2px;
      }

      .cls-2 {
        fill: #8ff4dd;
      }
    </style>
  </defs>
  <title>SequentialCircuit</title>
  <g>
    <rect class="cls-1" x="56.50679" y="1" width="70" height="50"/>
    <rect class="cls-1" x="166.50678" y="21" width="50" height="30"/>
  </g>
  <g>
    <g>
      <g>
        <path class="cls-2" d="M63.29005,25.18774a3.63628,3.63628,0,0,1,0-7.26562,2.45225,2.45225,0,0,1,1.83984.85937l.499-.73974c.08008-.11963.12012-.11963.16016-.11963.11035,0,.11035.06982.11035.23975v2.36866c0,.21,0,.23973-.16016.23973-.13964,0-.13964-.02977-.16015-.16992-.2002-1.459-1.08887-2.36865-2.17873-2.36865-.60937,0-2.55859.33984-2.55859,3.32812,0,2.97852,1.959,3.31836,2.56836,3.31836a2.26378,2.26378,0,0,0,2.23926-2.249c.00976-.09961.00976-.15967.12011-.15967.12989,0,.12989.06983.12989.16992A2.61345,2.61345,0,0,1,63.29005,25.18774Z" transform="translate(-0.00005)"/>
        <path class="cls-2" d="M68.961,25.07788a2.2268,2.2268,0,1,1,.01358-.00009Zm1.12988-3.71777a1.31223,1.31223,0,0,0-1.12988-.6499,1.34263,1.34263,0,0,0-1.13965.66992,2.87153,2.87153,0,0,0-.23925,1.36914,2.97283,2.97283,0,0,0,.25,1.40918,1.304,1.304,0,0,0,1.13868.66943,1.29094,1.29094,0,0,0,1.16015-.73926,3.03824,3.03824,0,0,0,.21973-1.33934,2.74343,2.74343,0,0,0-.25977-1.38917Z" transform="translate(-0.00005)"/>
        <path class="cls-2" d="M78.47852,24.93823l-1.1289.0298v-.31c.66894,0,.77929,0,.77929-.44971V21.87968c0-.56984-.11035-1.10939-.74023-1.10939a1.45915,1.45915,0,0,0-1.352,1.5589l.00342.04023v1.83886c0,.44971.10937.44971.77929.44971v.31006l-1.11914-.02979-1.12988.02979V24.658c.66992,0,.78027,0,.78027-.44971V21.87968c0-.56984-.11035-1.10939-.74023-1.10939a1.45915,1.45915,0,0,0-1.35205,1.5589l.00342.04023v1.83886c0,.44971.10937.44971.77929.44971v.31006l-1.11914-.02979-1.12988.02979V24.658c.66992,0,.78027,0,.78027-.44971V21.53c0-.48975-.08007-.55957-.78027-.55957v-.31006l1.40918-.10986v1.04931a1.57644,1.57644,0,0,1,1.47949-1.04931,1.18255,1.18255,0,0,1,1.3291.97949,1.58107,1.58107,0,0,1,1.44922-.97949,1.334,1.334,0,0,1,1.04981.36963c.30957.35986.30957.66992.30957,1.52928v1.9087c.00976.29981.25976.29981.77929.29981V24.968Z" transform="translate(-0.00005)"/>
        <path class="cls-2" d="M82.501,25.07788a1.57133,1.57133,0,0,1-1.30957-.72949L80.832,24.968h-.25V19.01147c0-.48974-.08008-.56005-.7793-.56005v-.30957l1.43848-.10988V21.2a1.77706,1.77706,0,0,1,1.36914-.64941,2.19827,2.19827,0,0,1,2.11914,2.25879A2.25207,2.25207,0,0,1,82.501,25.07788Zm1.10938-3.668a1.24284,1.24284,0,0,0-1.04981-.63965,1.44259,1.44259,0,0,0-1.17871.63965.43483.43483,0,0,0-.11035.35987v2.05908a.54554.54554,0,0,0,.13965.41944,1.23447,1.23447,0,0,0,1.04981.60986,1.373,1.373,0,0,0,1.1289-.63964A3.43472,3.43472,0,0,0,83.61036,21.40988Z" transform="translate(-0.00005)"/>
        <path class="cls-2" d="M86.51173,24.93823l-1.09961.0298v-.31c.66894,0,.77929,0,.77929-.44971V21.51982c0-.48975-.08984-.54932-.73925-.54932v-.31005l1.39843-.10987v3.668c0,.38964.04.43946.7002.43946v.31005C87.211,24.95825,86.86134,24.93823,86.51173,24.93823ZM86.461,19.46118a.52983.52983,0,1,1,.54-.52978A.53937.53937,0,0,1,86.461,19.46118Z" transform="translate(-0.00005)"/>
        <path class="cls-2" d="M92.08984,24.93823l-1.12891.0298v-.31c.66895,0,.7793,0,.7793-.44971V21.87968c0-.56984-.11035-1.10939-.73926-1.10939a1.45982,1.45982,0,0,0-1.353,1.55935l.00337.03978v1.83886c0,.44971.11035.44971.7793.44971v.31006l-1.11914-.02979-1.12891.02979V24.658c.66894,0,.7793,0,.7793-.44971V21.53c0-.48975-.08008-.55957-.7793-.55957v-.31006l1.40918-.10986v1.04931a1.57423,1.57423,0,0,1,1.47851-1.04931,1.33234,1.33234,0,0,1,1.04981.36963c.30957.35986.30957.66992.30957,1.52928v1.9087c.00977.29981.25977.29981.7793.29981V24.968Z" transform="translate(-0.00005)"/>
        <path class="cls-2" d="M97.4297,25.02808a.83663.83663,0,0,1-.7793-.81983,1.384,1.384,0,0,1-1.30957.86963c-.62988,0-1.5996-.25-1.5996-1.05957a1.45559,1.45559,0,0,1,1-1.29883,4.85138,4.85138,0,0,1,1.83887-.35986V21.9895a1.13186,1.13186,0,0,0-.97285-1.27114q-.0432-.00575-.08672-.00815a1.40268,1.40268,0,0,0-1.0791.46c.46.00976.50976.33985.50976.45947a.46.46,0,1,1-.92-.00528l.00005-.00449c0-.65966.68945-1.12939,1.50976-1.12939a1.9071,1.9071,0,0,1,1.36914.5498,1.47894,1.47894,0,0,1,.35938,1.1792v1.999c0,.0498.04.49951.37012.49951.10937,0,.35937-.06006.35937-.63965v-.55957h.25v.55957a.84867.84867,0,0,1-.74124.944Q97.46888,25.027,97.4297,25.02808Zm-.84961-2.459c-1.64942.06006-2.06836.88965-2.06836,1.43946a.86035.86035,0,0,0,.87016.85044l.02925-.00083a1.20061,1.20061,0,0,0,1.17194-1.2286q-.00072-.03051-.003-.06095Z" transform="translate(-0.00005)"/>
        <path class="cls-2" d="M100.751,25.07788a1.20931,1.20931,0,0,1-1.29-1.34912v-2.7583h-.84961v-.22022c.97949-.04,1.2793-1.10937,1.29-1.92871h.25v1.83886h1.42872v.31006h-1.42872v2.77832c0,.16992,0,1.0791.66895,1.0791.37012,0,.66992-.37938.66992-1.11914v-.54979h.25v.56981C101.74024,24.36841,101.46,25.07788,100.751,25.07788Z" transform="translate(-0.00005)"/>
        <path class="cls-2" d="M103.7422,24.93823l-1.09961.0298v-.31c.66894,0,.77929,0,.77929-.44971V21.51982c0-.48975-.08984-.54932-.73926-.54932v-.31005l1.39844-.10987v3.668c0,.38964.04.43946.7002.43946v.31005C104.44141,24.95825,104.09185,24.93823,103.7422,24.93823Zm-.05079-5.47705a.52983.52983,0,1,1,.54-.52978A.53938.53938,0,0,1,103.69141,19.46118Z" transform="translate(-0.00005)"/>
        <path class="cls-2" d="M107.58009,25.07788a2.22647,2.22647,0,1,1,.01483-.0001ZM108.71,21.36011a1.31,1.31,0,0,0-1.12988-.6499,1.34,1.34,0,0,0-1.13868.66992,2.861,2.861,0,0,0-.24023,1.36914,2.97271,2.97271,0,0,0,.25,1.40918,1.30547,1.30547,0,0,0,1.13963.66943,1.2895,1.2895,0,0,0,1.15918-.73926,3.03824,3.03824,0,0,0,.21973-1.33934A2.74363,2.74363,0,0,0,108.71,21.36011Z" transform="translate(-0.00005)"/>
        <path class="cls-2" d="M114.31934,24.93823l-1.1289.0298v-.31c.66894,0,.77929,0,.77929-.44971V21.87968c0-.56984-.11035-1.10939-.73925-1.10939a1.45983,1.45983,0,0,0-1.353,1.55935l.00338.03978v1.83886c0,.44971.11036.44971.77929.44971v.31006l-1.11914-.02979-1.12988.02979V24.658c.66992,0,.78027,0,.78027-.44971V21.53c0-.48975-.08007-.55957-.78027-.55957v-.31006l1.41016-.10986v1.04931a1.57423,1.57423,0,0,1,1.47851-1.04931,1.33235,1.33235,0,0,1,1.04981.36963c.30957.35986.30957.66992.30957,1.52928v1.9087c.00976.29981.25976.29981.77929.29981V24.968Z" transform="translate(-0.00005)"/>
        <path class="cls-2" d="M119.66016,25.02808a.83662.83662,0,0,1-.77929-.81983,1.384,1.384,0,0,1-1.30957.86963c-.62989,0-1.59961-.25-1.59961-1.05957a1.45557,1.45557,0,0,1,1-1.29883,4.85152,4.85152,0,0,1,1.83886-.35986V21.9895a1.13186,1.13186,0,0,0-.97285-1.27114q-.04319-.00575-.08672-.00815a1.40268,1.40268,0,0,0-1.0791.46c.46.00976.50977.33985.50977.45947a.46.46,0,1,1-.92-.00283l.00008-.00694c0-.65966.68945-1.12939,1.50976-1.12939a1.9071,1.9071,0,0,1,1.36914.5498,1.47894,1.47894,0,0,1,.35938,1.1792v1.999c0,.0498.04.49951.37011.49951.10938,0,.35938-.06006.35938-.63965v-.55957h.25v.55957a.84867.84867,0,0,1-.74124.944Q119.69935,25.027,119.66016,25.02808Zm-.84961-2.459c-1.64941.06006-2.06835.88965-2.06835,1.43946a.86035.86035,0,0,0,.87016.85044l.02925-.00083a1.20061,1.20061,0,0,0,1.17194-1.2286q-.00072-.03051-.003-.06095Z" transform="translate(-0.00005)"/>
        <path class="cls-2" d="M122.09185,24.93823l-1.10937.0298v-.31c.66894,0,.77929,0,.77929-.44971V19.01151c0-.48974-.08008-.56005-.77929-.56005v-.30957L122.421,18.032v6.17627c0,.44971.11035.44971.78028.44971v.31006Z" transform="translate(-0.00005)"/>
      </g>
      <g>
        <path class="cls-2" d="M79.92677,34.07788a2.212,2.212,0,0,1-2.14942-2.26855,2.2403,2.2403,0,0,1,2.15923-2.31853l.00972-.00032c.76953,0,1.52929.38965,1.52929,1.06933a.46.46,0,1,1-.91984.01647l-.00008-.00621a.45159.45159,0,0,1,.44274-.46028q.0135-.00029.027.00027a1.62833,1.62833,0,0,0-1.06934-.36963c-.52929,0-1.34863.41944-1.34863,2.04883,0,1.60889.87891,2.03858,1.40918,2.03858a1.30431,1.30431,0,0,0,1.30859-1.04932c.02051-.06.04-.0996.12989-.0996.03027,0,.13086,0,.13086.0996A1.645,1.645,0,0,1,79.92677,34.07788Z" transform="translate(-0.00005)"/>
        <path class="cls-2" d="M83.30665,33.93823l-1.0996.02979v-.31c.66993,0,.78028,0,.78028-.4497V30.51982c0-.48974-.08985-.54932-.74024-.54932v-.31005l1.39942-.10987v3.668c0,.38964.04.43946.70019.43946v.31C84.00684,33.95825,83.65626,33.93823,83.30665,33.93823Zm-.04981-5.477a.53936.53936,0,0,1-.52929-.52978.53384.53384,0,0,1,.53784-.5298h.00122a.54023.54023,0,0,1,.53027.52979.53472.53472,0,0,1-.53961.52979Z" transform="translate(-0.00005)"/>
        <path class="cls-2" d="M87.86524,30.59985a.41406.41406,0,0,1-.42969-.39781q-.00062-.01593,0-.03187a.432.432,0,0,1,.23047-.38965.24971.24971,0,0,0-.11035-.01026c-.75976,0-1.17871.88965-1.17871,1.87891v1.53906c0,.35987.01953.46973.75879.46973h.21V33.968c-.39942-.02979-.86914-.02979-1.26856-.02979l-1.13965.02979v-.31c.66994,0,.7793,0,.7793-.4497V30.53c0-.48975-.08008-.55957-.7793-.55957v-.31006l1.38869-.10986v1.09912a1.4005,1.4005,0,0,1,1.22949-1.09912.68252.68252,0,0,1,.74024.60937.42043.42043,0,0,1-.40029.43965Q87.88047,30.60025,87.86524,30.59985Z" transform="translate(-0.00005)"/>
        <path class="cls-2" d="M91.06641,34.07788A2.212,2.212,0,0,1,88.917,31.80933a2.2403,2.2403,0,0,1,2.15923-2.31853l.00972-.00032c.76953,0,1.52929.38965,1.52929,1.06933a.46.46,0,1,1-.91984.01647l-.00008-.00621a.4516.4516,0,0,1,.44272-.4603q.0135-.00025.027.00029a1.6285,1.6285,0,0,0-1.06934-.36963c-.5293,0-1.34863.41944-1.34863,2.04883,0,1.60889.8789,2.03858,1.40918,2.03858a1.30432,1.30432,0,0,0,1.30859-1.04932c.02051-.06.04-.0996.12988-.0996.03028,0,.13086,0,.13086.0996A1.645,1.645,0,0,1,91.06641,34.07788Z" transform="translate(-0.00005)"/>
        <path class="cls-2" d="M96.92484,34.07788v-.89941a1.36246,1.36246,0,0,1-1.28906.89941c-1.51855,0-1.51855-.90918-1.51855-1.689v-1.499c0-.88965,0-.91943-.78028-.91943V29.6604l1.46973-.10986v3.31787c0,.52.04.98974.87891.98974.72949,0,1.21-.67968,1.21-1.54931V30.53c0-.48975-.08008-.55957-.78027-.55957v-.31006l1.46972-.10986v3.54785c0,.48974.08007.55957.7793.55957V33.968Z" transform="translate(-0.00005)"/>
        <path class="cls-2" d="M100.00684,33.93823l-1.09961.02979v-.31c.66993,0,.78028,0,.78028-.4497V30.51982c0-.48974-.09082-.54932-.74024-.54932v-.31005l1.39942-.10987v3.668c0,.38964.04.43946.69922.43946v.31C100.70606,33.95825,100.35645,33.93823,100.00684,33.93823Zm-.0498-5.477a.5402.5402,0,0,1-.53027-.52978.53471.53471,0,0,1,.53959-.52979h.0004a.54021.54021,0,0,1,.53027.52979.53469.53469,0,0,1-.53959.52978Z" transform="translate(-0.00005)"/>
        <path class="cls-2" d="M103.68653,34.07788a1.20927,1.20927,0,0,1-1.29-1.34912v-2.7583h-.8497v-.22022c.97949-.04,1.27929-1.10936,1.29-1.92871h.25V29.6604h1.42871v.31006h-1.42871v2.77832c0,.16992,0,1.0791.66895,1.0791.37011,0,.66993-.37939.66993-1.11914v-.5498h.25v.56982C104.67585,33.36841,104.39552,34.07788,103.68653,34.07788Z" transform="translate(-0.00005)"/>
      </g>
    </g>
    <g>
      <g>
        <path class="cls-2" d="M178.15183,35.18774a2.50257,2.50257,0,0,1-1.83886-.6997c-.33008.52978-.36036.56982-.36036.56982-.06933.10986-.0791.12988-.14941.12988-.11035,0-.11035-.06982-.11035-.23974V32.949c0-.17969,0-.24952.12988-.24952a.104.104,0,0,1,.1189.08658l.00122.013a2.02013,2.02013,0,0,0,.62012,1.53907,2.41,2.41,0,0,0,1.5791.54,1.37047,1.37047,0,0,0,1.33981-1.40042l-.00095-.02878a1.45843,1.45843,0,0,0-.30957-.91943,1.32735,1.32735,0,0,0-.84961-.50977c-.69921-.16994-1.209-.29-1.31933-.33008a1.93587,1.93587,0,0,1,.63965-3.76758,2.05838,2.05838,0,0,1,1.59961.69922l.34961-.56934c.06933-.12012.08007-.12988.14941-.12988.11035,0,.11035.06981.11035.23975v2.00877c0,.19,0,.23975-.12988.23975-.11035,0-.11035-.06006-.12012-.11963-.05957-.44971-.28027-2.08887-1.94922-2.08887a1.3064,1.3064,0,0,0-.30957,2.57862l1.2793.30957a2.04443,2.04443,0,0,1,1.499,2.019,2.00366,2.00366,0,0,1-1.92694,2.07756Z" transform="translate(-0.00005)"/>
        <path class="cls-2" d="M183.022,35.07788a1.209,1.209,0,0,1-1.28906-1.34912v-2.7583h-.84961v-.22022c.97949-.04,1.2793-1.10937,1.28906-1.92871h.25V30.6604h1.42969v.31006h-1.42969v2.77832c0,.16992,0,1.0791.66992,1.0791.37012,0,.66992-.37939.66992-1.11914v-.5498h.25v.56982C184.01221,34.36841,183.73194,35.07788,183.022,35.07788Z" transform="translate(-0.00005)"/>
        <path class="cls-2" d="M187.07178,35.07788a2.22678,2.22678,0,1,1,.01359-.00009Zm1.12989-3.71777a1.311,1.311,0,0,0-1.12989-.6499,1.34262,1.34262,0,0,0-1.13964.66992,2.8713,2.8713,0,0,0-.23926,1.36914,2.97222,2.97222,0,0,0,.25,1.40918,1.304,1.304,0,0,0,1.13867.66943,1.29094,1.29094,0,0,0,1.16016-.73926,3.03815,3.03815,0,0,0,.21972-1.33935A2.74318,2.74318,0,0,0,188.20167,31.36011Z" transform="translate(-0.00005)"/>
        <path class="cls-2" d="M192.79151,31.59985a.414.414,0,0,1-.42969-.39781q-.00058-.01593,0-.03187a.43361.43361,0,0,1,.2295-.38965c-.01954-.01026-.04-.01026-.10938-.01026-.75976,0-1.17969.88965-1.17969,1.87891v1.53906c0,.35987.02051.46973.75977.46973h.21V34.968c-.40039-.02979-.87012-.02979-1.26953-.02979l-1.13965.02979v-.31c.66992,0,.78027,0,.78027-.4497V31.53c0-.48975-.08007-.55957-.78027-.55957v-.31006l1.38965-.10986v1.09912a1.39944,1.39944,0,0,1,1.22949-1.09912.68151.68151,0,0,1,.73926.60937.4202.4202,0,0,1-.39987.43962Q192.80644,31.60022,192.79151,31.59985Z" transform="translate(-0.00005)"/>
        <path class="cls-2" d="M197.51124,35.02808a.83666.83666,0,0,1-.7793-.81983,1.382,1.382,0,0,1-1.30957.86963c-.62988,0-1.59863-.25-1.59863-1.05957a1.4559,1.4559,0,0,1,.999-1.29883,4.85265,4.85265,0,0,1,1.83984-.35986V31.9895a1.13248,1.13248,0,0,0-.97421-1.27122q-.043-.0057-.08633-.00807a1.40264,1.40264,0,0,0-1.0791.46c.46.00977.50976.33985.50976.45947a.45954.45954,0,1,1-.91907.001l.00013-.01074c0-.65965.68945-1.1294,1.50879-1.1294a1.90714,1.90714,0,0,1,1.36914.54981,1.47626,1.47626,0,0,1,.36035,1.1792v1.999c0,.04981.04.49951.36914.49951.11035,0,.36035-.06006.36035-.63965v-.55957h.25v.55957a.84926.84926,0,0,1-.74255.944Q197.55028,35.027,197.51124,35.02808Zm-.84863-2.459c-1.64942.06006-2.06934.88964-2.06934,1.43945a.86035.86035,0,0,0,.87018.85045l.02923-.00084a1.20125,1.20125,0,0,0,1.17285-1.229q-.00068-.0303-.00292-.06051Z" transform="translate(-0.00005)"/>
        <path class="cls-2" d="M203.061,31.23022a.284.284,0,0,1-.29-.27786q-.00014-.00606,0-.01213a.26723.26723,0,0,1,.16016-.27.47584.47584,0,0,0-.10059-.00977,1.31344,1.31344,0,0,0-.89941.38965,1.35007,1.35007,0,0,1,.41016.96973,1.54657,1.54657,0,0,1-1.61914,1.459,1.70218,1.70218,0,0,1-.98926-.30957.73567.73567,0,0,0-.16992.46972.65191.65191,0,0,0,.52929.66944c.07032.01025.5.01025.75.01025a3.55083,3.55083,0,0,1,1.71875.27978,1.2776,1.2776,0,0,1,.64942,1.13917c0,.77978-1.03907,1.28955-2.21875,1.28955-1.21875,0-2.208-.54981-2.208-1.26954a1.12707,1.12707,0,0,1,.91894-.99951,1.066,1.066,0,0,1-.43945-.88965,1.38054,1.38054,0,0,1,.30957-.8291,1.37724,1.37724,0,0,1-.46972-1.02978,1.54654,1.54654,0,0,1,1.61914-1.459,1.66616,1.66616,0,0,1,1.05957.35986,1.53749,1.53749,0,0,1,1.05957-.46973.48913.48913,0,0,1,.50934.468q.00045.01086.00042.02173a.28906.28906,0,0,1-.2782.29955C203.069,31.23018,203.065,31.23024,203.061,31.23022Zm-2.34863,3.668h-.58984a.87957.87957,0,0,0-.81934.85938c0,.52978.68945,1.03955,1.69922,1.03955.97949,0,1.68848-.5,1.68848-1.03955,0-.85941-1.11915-.85941-1.97852-.85941Zm.00977-4.11767a.86615.86615,0,0,0-.71.39941,1.64643,1.64643,0,0,0-.15918.83985c0,.23,0,1.229.86915,1.229a.86615.86615,0,0,0,.71-.39941,1.646,1.646,0,0,0,.15918-.83985c0-.23,0-1.229-.86914-1.229Z" transform="translate(-0.00005)"/>
        <path class="cls-2" d="M205.98194,35.07788a2.25583,2.25583,0,0,1-2.19824-2.30859,2.18359,2.18359,0,0,1,2.07812-2.27881,1.77241,1.77241,0,0,1,1.78907,1.959c0,.21-.0293.21-.25.21h-2.78806a2.90964,2.90964,0,0,0,.29981,1.499,1.34588,1.34588,0,0,0,1.12988.66943,1.408,1.408,0,0,0,1.34863-1.0293c.02051-.08006.04-.13963.12988-.13963a.11622.11622,0,0,1,.12989.11961A1.70757,1.70757,0,0,1,205.98194,35.07788Zm-.12012-4.36767c-.33984,0-1.17871.25-1.23925,1.73924h2.36914c0-.38964-.10059-1.73924-1.12986-1.73924Z" transform="translate(-0.00005)"/>
      </g>
      <g>
        <path class="cls-2" d="M175.24757,44.07788a2.25663,2.25663,0,0,1-2.19922-2.30859,2.18436,2.18436,0,0,1,2.0791-2.27881,1.773,1.773,0,0,1,1.78906,1.959c0,.21-.03027.21-.25.21h-2.78808a2.90953,2.90953,0,0,0,.2998,1.499,1.34552,1.34552,0,0,0,1.12891.66943,1.40821,1.40821,0,0,0,1.34961-1.0293c.01953-.08006.04-.13963.12988-.13963a.11616.11616,0,0,1,.12988.11961A1.70867,1.70867,0,0,1,175.24757,44.07788Zm-.12012-4.36767c-.33984,0-1.17969.25-1.23926,1.73924h2.36914C176.25733,41.05981,176.15675,39.71021,175.12745,39.71021Z" transform="translate(-0.00005)"/>
        <path class="cls-2" d="M178.648,43.93823l-1.10938.02979v-.31c.66992,0,.7793,0,.7793-.4497V38.01152c0-.48975-.08008-.56-.7793-.56V37.142l1.43945-.10986v6.17627c0,.44971.10938.44971.7793.44971v.31Z" transform="translate(-0.00005)"/>
        <path class="cls-2" d="M182.46729,44.07788a2.25664,2.25664,0,0,1-2.19922-2.30859,2.18436,2.18436,0,0,1,2.07911-2.27881,1.773,1.773,0,0,1,1.78906,1.959c0,.21-.03028.21-.25.21h-2.78809a2.90964,2.90964,0,0,0,.29981,1.499,1.34554,1.34554,0,0,0,1.1289.66943,1.40819,1.40819,0,0,0,1.34961-1.0293c.01953-.08006.04-.13963.12989-.13963a.11608.11608,0,0,1,.12912.10141.11779.11779,0,0,1,.00076.0182A1.70866,1.70866,0,0,1,182.46729,44.07788Zm-.12011-4.36767c-.33985,0-1.17969.25-1.23926,1.73924h2.36914C183.47706,41.05981,183.37647,39.71021,182.34718,39.71021Z" transform="translate(-0.00005)"/>
        <path class="cls-2" d="M191.43507,43.93823l-1.12989.02979v-.31c.66993,0,.7793,0,.7793-.4497V40.87968c0-.56982-.10937-1.10937-.73926-1.10937a1.45979,1.45979,0,0,0-1.353,1.55934l.00335.03978V43.2083c0,.4497.11035.4497.78028.4497v.31006l-1.12012-.02978-1.12894.02972v-.31c.66992,0,.7793,0,.7793-.4497V40.87968c0-.56982-.10938-1.10937-.73926-1.10937a1.45979,1.45979,0,0,0-1.353,1.55934l.00335.03978V43.2083c0,.4497.11035.4497.7793.4497v.31006l-1.11914-.02978-1.12891.02978V43.658c.66895,0,.7793,0,.7793-.4497V40.53c0-.48975-.08008-.55957-.7793-.55957v-.31006l1.40918-.10986v1.04931a1.57423,1.57423,0,0,1,1.47852-1.04931,1.184,1.184,0,0,1,1.33008.97949,1.58107,1.58107,0,0,1,1.44921-.97949,1.33147,1.33147,0,0,1,1.04883.36963c.31055.35986.31055.66992.31055,1.52929v1.90869c.00977.29981.25977.29981.7793.29981V43.968Z" transform="translate(-0.00005)"/>
        <path class="cls-2" d="M195.23685,44.07788a2.25583,2.25583,0,0,1-2.19824-2.30859,2.18359,2.18359,0,0,1,2.07813-2.27881,1.77241,1.77241,0,0,1,1.78906,1.959c0,.21-.0293.21-.25.21h-2.78809a2.90964,2.90964,0,0,0,.29981,1.499,1.34591,1.34591,0,0,0,1.12988.66943,1.408,1.408,0,0,0,1.34863-1.0293c.02051-.08006.04-.13963.12989-.13963a.11608.11608,0,0,1,.12912.10141.11779.11779,0,0,1,.00076.0182A1.70758,1.70758,0,0,1,195.23685,44.07788Zm-.12011-4.36767c-.33985,0-1.17871.25-1.23926,1.73924h2.36914c0-.38964-.10062-1.73924-1.12991-1.73924Z" transform="translate(-0.00005)"/>
        <path class="cls-2" d="M201.4253,43.93823l-1.12891.02979v-.31c.66895,0,.7793,0,.7793-.4497V40.87968c0-.56982-.11035-1.10937-.73926-1.10937a1.45979,1.45979,0,0,0-1.353,1.55934l.00335.03978V43.2083c0,.4497.11036.4497.7793.4497v.31006l-1.11914-.02978-1.12988.02978V43.658c.66992,0,.78027,0,.78027-.4497V40.53c0-.48975-.08008-.55957-.78027-.55957v-.31006l1.41015-.10986v1.04931a1.57423,1.57423,0,0,1,1.47852-1.04931,1.33233,1.33233,0,0,1,1.0498.36963c.30957.35986.30957.66992.30957,1.52929v1.90869c.00977.29981.25977.29981.7793.29981V43.968Z" transform="translate(-0.00005)"/>
        <path class="cls-2" d="M204.80714,44.07788a1.20921,1.20921,0,0,1-1.29-1.34912v-2.7583h-.84961v-.22022c.97949-.04,1.2793-1.10937,1.29-1.92871h.25V39.6604h1.42871v.31006h-1.42871v2.77832c0,.16992,0,1.0791.66894,1.0791.37012,0,.66992-.37939.66992-1.11914v-.5498h.25v.56982C205.79639,43.36841,205.51612,44.07788,204.80714,44.07788Z" transform="translate(-0.00005)"/>
        <path class="cls-2" d="M208.35694,44.07788a1.4925,1.4925,0,0,1-1.09961-.42969,2.45307,2.45307,0,0,0-.20019.23c-.18946.19-.2002.19971-.25.19971-.10938,0-.10938-.06983-.10938-.23975V42.5188c0-.17969,0-.25.12988-.25.09961,0,.10938.04.13965.16992.19043.84961.54981,1.41943,1.38965,1.41943.7793,0,1.12891-.3999,1.12891-.90965,0-.71972-.81934-.87939-1.03907-.91943a2.61032,2.61032,0,0,1-1.31933-.46,1.06243,1.06243,0,0,1-.42969-.84912c0-.56006.37988-1.22949,1.59863-1.22949a1.53953,1.53953,0,0,1,.93946.27978,1.25574,1.25574,0,0,0,.16992-.15965c.12988-.12012.15039-.12012.20019-.12012.11036,0,.11036.06983.11036.23975V40.74c0,.18945,0,.23974-.13086.23974,0,0-.10938,0-.11914-.08984a1.10335,1.10335,0,0,0-1.16993-1.20947c-.85937,0-1.11914.40966-1.11914.75976,0,.57959.66993.70947,1.2295.81934a2.03981,2.03981,0,0,1,1.13964.47949,1.29342,1.29342,0,0,1,.41895.94971C209.96534,43.40845,209.50636,44.07788,208.35694,44.07788Z" transform="translate(-0.00005)"/>
      </g>
    </g>
    <g>
      <line class="cls-1" x1="126.50679" y1="11" x2="239.98847" y2="11"/>
      <polygon class="cls-2" points="235.35 16.726 234.395 15.7 239.451 11.001 234.395 6.301 235.35 5.276 241.507 11.001 235.35 16.726"/>
    </g>
    <g>
      <polyline class="cls-1" points="216.507 36 241.507 36 241.507 76 31.507 76 31.507 36 54.989 36"/>
      <polygon class="cls-2" points="50.35 41.726 49.395 40.7 54.451 36.001 49.395 31.301 50.35 30.276 56.507 36.001 50.35 41.726"/>
    </g>
    <g>
      <line class="cls-1" x1="126.50679" y1="36" x2="164.98849" y2="36"/>
      <polygon class="cls-2" points="160.35 41.726 159.395 40.7 164.451 36.001 159.395 31.301 160.35 30.276 166.507 36.001 160.35 41.726"/>
    </g>
    <g>
      <line class="cls-1" x1="54.98849" y1="11" x2="31.50679" y2="11"/>
      <polygon class="cls-2" points="50.35 5.274 49.395 6.3 54.451 10.999 49.395 15.699 50.35 16.724 56.507 10.999 50.35 5.274"/>
    </g>
    <g>
      <path class="cls-2" d="M1.51905,13.28467c-.3794,0-1.16895,0-1.519.02978v-.31006H.25983c.78955,0,.81981-.10987.81981-.46972V7.26758c0-.35938-.03027-.46973-.81981-.46973H.00005V6.48828c.3501.02979,1.13965.02979,1.5293.02979.37988,0,1.16943,0,1.519-.02979v.30957H2.78859c-.78955,0-.81983.11035-.81983.46973v5.26709c0,.35986.03028.46972.81983.46972h.25976v.31006C2.69873,13.28467,1.90919,13.28467,1.51905,13.28467Z" transform="translate(-0.00005)"/>
      <path class="cls-2" d="M7.55762,13.28467l-1.12938.02978v-.31006c.66992,0,.77978,0,.77978-.4497V10.22607c0-.56982-.10987-1.10937-.73974-1.10937a1.45949,1.45949,0,0,0-1.35253,1.55912l.0034.04v1.83887c0,.4497.10987.4497.7793.4497v.31006L4.7793,13.28467l-1.12938.02978v-.31006c.66943,0,.77978,0,.77978-.4497V9.87646c0-.48974-.08008-.56-.77978-.56V9.00689L5.0591,8.897V9.94633A1.57534,1.57534,0,0,1,6.53809,8.897a1.33319,1.33319,0,0,1,1.0498.36963c.30958.35986.30958.66992.30958,1.52929v1.9087c.01024.29979.25976.29979.77978.29979v.31006Z" transform="translate(-0.00005)"/>
      <path class="cls-2" d="M11.86866,13.42432a1.35685,1.35685,0,0,1-1.2295-.69971v1.769c0,.4497.10987.4497.77979.4497v.31006l-1.1294-.02979-1.11962.02979v-.31006c.66992,0,.77978,0,.77978-.4497V9.81637c0-.44-.07032-.5-.77978-.5V9.0068l1.43945-.10987v.65966a1.79951,1.79951,0,0,1,1.39892-.65966,2.18707,2.18707,0,0,1,2.08887,2.25879A2.25239,2.25239,0,0,1,11.86866,13.42432ZM11.92872,9.147a1.49847,1.49847,0,0,0-1.28956.79931v2.229a.52319.52319,0,0,0,.14014.41944,1.24521,1.24521,0,0,0,1.04931.60986c.73974,0,1.439-.83984,1.439-2.04883,0-1.12938-.60941-2.00875-1.33889-2.00875Z" transform="translate(-0.00005)"/>
      <path class="cls-2" d="M18.35791,13.42432v-.89943a1.36292,1.36292,0,0,1-1.28906.89943c-1.519,0-1.519-.90967-1.519-1.689v-1.499c0-.88965,0-.91992-.77979-.91992V9.00682L16.2393,8.897v3.31787c0,.52.04.98975.8794.98975.72949,0,1.20947-.67968,1.20947-1.54931V9.87645c0-.48974-.08008-.56-.77979-.56V9.00688L19.01762,8.897v3.54785c0,.48976.08007.55957.77979.55957v.31006Z" transform="translate(-0.00005)"/>
      <path class="cls-2" d="M22.33884,13.42432a1.20884,1.20884,0,0,1-1.28906-1.34912V9.31641h-.84961V9.09668c.97949-.04,1.2793-1.10938,1.28906-1.92871h.25V9.00684h1.4292v.30957h-1.4292v2.7788c0,.16993,0,1.07911.66993,1.07911.36963,0,.66944-.37941.66944-1.11914v-.54982h.25v.56984C23.32862,12.71484,23.04884,13.42432,22.33884,13.42432Z" transform="translate(-0.00005)"/>
      <path class="cls-2" d="M25.88869,13.42432a1.49158,1.49158,0,0,1-1.09913-.42969,2.25291,2.25291,0,0,0-.20019.23c-.18994.18994-.19971.19971-.24951.19971-.11035,0-.11035-.06983-.11035-.23975V11.86524c0-.17968,0-.25.13037-.25.09961,0,.10986.04.13965.16993.18994.84961.54979,1.41944,1.38916,1.41944.77977,0,1.12938-.39991,1.12938-.90967,0-.71972-.81934-.87939-1.03955-.91944a2.62186,2.62186,0,0,1-1.31884-.45947,1.06592,1.06592,0,0,1-.43017-.84961c0-.56006.37988-1.2295,1.59912-1.2295a1.54145,1.54145,0,0,1,.93994.27979,1.31351,1.31351,0,0,0,.16992-.15966c.12988-.12012.1499-.12012.19971-.12012.10986,0,.10986.06983.10986.23975v1.00978c0,.18994,0,.23973-.12988.23973,0,0-.10987,0-.12012-.08984a1.10258,1.10258,0,0,0-1.16943-1.20947c-.85938,0-1.11914.40966-1.11914.75976,0,.57959.66943.70947,1.22949.81934a2.03844,2.03844,0,0,1,1.13916.47949,1.28963,1.28963,0,0,1,.41992.94971C27.49805,12.75488,27.03809,13.42432,25.88869,13.42432Z" transform="translate(-0.00005)"/>
    </g>
    <g>
      <path class="cls-2" d="M142.19923,26.58105v5.51758c0,.18946,0,.25977-.13965.25977-.06934,0-.08006-.00977-.16992-.12988l-4.07715-5.99707a.59645.59645,0,0,0-.10059-.12012v5.19726c0,.26955,0,.73926,1.0293.73926v.31055l-1.16895-.03027-1.16992.03027v-.31055c1.03027,0,1.03027-.46972,1.03027-.73926V26.0918c0-.19043-.01074-.20021-.24023-.23047-.15039-.00978-.34961-.01953-.5-.01953h-.29v-.30957h1.69922c.19043,0,.20019.00975.29.12988l3.52832,5.18652V26.58105c0-.26953,0-.73925-1.0293-.73925v-.30957l1.169.02929,1.16994-.02929v.30957C142.19923,25.8418,142.19923,26.31152,142.19923,26.58105Z" transform="translate(-0.00005)"/>
      <path class="cls-2" d="M146.05177,32.46777a2.25632,2.25632,0,0,1-2.19922-2.30859,2.18421,2.18421,0,0,1,2.0791-2.27832,1.77272,1.77272,0,0,1,1.78906,1.959c0,.21-.03027.21-.25.21h-2.78809a2.91045,2.91045,0,0,0,.29981,1.499,1.34612,1.34612,0,0,0,1.12891.66894,1.4082,1.4082,0,0,0,1.34961-1.02929c.01953-.08008.04-.13965.12988-.13965a.11651.11651,0,0,1,.12988.12012A1.70884,1.70884,0,0,1,146.05177,32.46777Zm-.12012-4.36718c-.33985,0-1.17969.25-1.23924,1.73925h2.36914C147.06153,29.4502,146.961,28.10059,145.93165,28.10059Z" transform="translate(-0.00005)"/>
      <path class="cls-2" d="M152.211,32.32813l-1.08008.03027v-.31055c.2705-.00976.36036-.15918.36036-.249a1.20925,1.20925,0,0,0-.21-.33008l-.75977-1c-.60937.71973-.89941,1.04981-.89941,1.26953a.29028.29028,0,0,0,.27037.30893q.0098.00066.01962.00064v.31055l-.94922-.03027c-.26074,0-.57031.00976-.83006.03027v-.31055a1.5974,1.5974,0,0,0,1.2793-.59961c.46972-.56933.46972-.58886.93945-1.18847l-.98926-1.29c-.46973-.59961-.47949-.60939-1.17969-.60939v-.30957c.27051.01953.74024.0293.9502.0293l1.0791-.0293v.30957c-.20019.00978-.34961.09961-.34961.25,0,.05957,0,.08008.08985.17969l.77929,1.00977.62012-.78028a.56971.56971,0,0,0,.14941-.34961.287.287,0,0,0-.26352-.30871c-.0088-.00069-.01764-.001-.02647-.00086v-.30957c.12988.00978.66016.0293.96.0293.25976,0,.55957-.00977.81933-.0293v.30957a1.53269,1.53269,0,0,0-1.18945.51953c-.24023.25977-.61916.75-.91895,1.12989l1.33887,1.72851c.22949.29.41016.30957.94922.30957v.31055C152.87012,32.33789,152.48048,32.32813,152.211,32.32813Z" transform="translate(-0.00005)"/>
      <path class="cls-2" d="M155.6211,32.46777a1.20858,1.20858,0,0,1-1.28906-1.34863V28.36035h-.84961v-.21972c.97949-.04,1.2793-1.10938,1.28906-1.92872h.25v1.83887h1.42969v.30957h-1.42969v2.77832c0,.16992,0,1.0791.66992,1.0791.37012,0,.66993-.3789.66993-1.11914v-.5498h.25v.57031C156.61134,31.75879,156.33106,32.46777,155.6211,32.46777Z" transform="translate(-0.00005)"/>
    </g>
    <g>
      <path class="cls-2" d="M138.002,46.63281a2.50694,2.50694,0,0,1-1.83984-.6997c-.3291.52978-.35938.56982-.35938.56982-.07031.10986-.08008.12988-.15039.12988-.10937,0-.10937-.06982-.10937-.23974v-1.999c0-.17968,0-.24951.12988-.24951a.104.104,0,0,1,.1189.08658l.00122.013a2.02237,2.02237,0,0,0,.61914,1.53906,2.4132,2.4132,0,0,0,1.57911.54A1.37062,1.37062,0,0,0,139.332,44.9234l-.00094-.02937a1.45932,1.45932,0,0,0-.31055-.91944,1.32329,1.32329,0,0,0-.84863-.50976c-.7002-.16992-1.21-.29-1.31934-.33006a1.93587,1.93587,0,0,1,.63965-3.76758,2.05755,2.05755,0,0,1,1.59863.69922l.34961-.56934c.07032-.12012.08008-.12988.15039-.12988.10938,0,.10938.06982.10938.23974v2.00879c0,.18994,0,.23975-.12988.23975-.10938,0-.10938-.06006-.11915-.11963-.06054-.44971-.28027-2.08887-1.94921-2.08887a1.3064,1.3064,0,0,0-.30957,2.57862l1.27929.30957a2.04551,2.04551,0,0,1,1.499,2.019,2.00368,2.00368,0,0,1-1.927,2.07753Z" transform="translate(-0.00005)"/>
      <path class="cls-2" d="M142.87208,46.523a1.20864,1.20864,0,0,1-1.28906-1.34912v-2.7583h-.84961v-.22021c.97949-.04,1.27929-1.10938,1.28906-1.92871h.25v1.83886h1.42871v.31006h-1.42871v2.77832c0,.16993,0,1.0791.66992,1.0791.36914,0,.669-.37939.669-1.11914V44.604h.25v.56983C143.86134,45.81348,143.582,46.523,142.87208,46.523Z" transform="translate(-0.00005)"/>
      <path class="cls-2" d="M148.44044,46.47314a.83662.83662,0,0,1-.7793-.81982,1.382,1.382,0,0,1-1.30957.86963c-.62988,0-1.59863-.25-1.59863-1.05957a1.45584,1.45584,0,0,1,.999-1.29883,4.85115,4.85115,0,0,1,1.83887-.35986v-.37012a1.13188,1.13188,0,0,0-.97286-1.27115q-.04319-.00575-.08671-.00815a1.4027,1.4027,0,0,0-1.0791.46c.46.00977.50976.33984.50976.45947a.45953.45953,0,1,1-.919.001l.00011-.01074c0-.65967.68945-1.1294,1.50878-1.1294a1.90707,1.90707,0,0,1,1.36915.54981,1.479,1.479,0,0,1,.35937,1.1792v1.999c0,.0498.04.49953.37012.49953.11036,0,.36036-.06006.36036-.63965V44.9639h.249v.55957a.84866.84866,0,0,1-.74126.94392Q148.47961,46.47206,148.44044,46.47314Zm-.84961-2.459c-1.64844.06006-2.06835.88965-2.06835,1.43946a.86037.86037,0,0,0,.87015.85045l.02927-.00084a1.20059,1.20059,0,0,0,1.17193-1.22859q-.00071-.03051-.003-.061Z" transform="translate(-0.00005)"/>
      <path class="cls-2" d="M151.76173,46.523a1.20869,1.20869,0,0,1-1.28907-1.34912v-2.7583h-.84961v-.22021c.9795-.04,1.2793-1.10938,1.28907-1.92871h.25v1.83886h1.42872v.31006h-1.42871v2.77832c0,.16993,0,1.0791.66994,1.0791.36914,0,.66894-.37939.66894-1.11914V44.604h.25v.56983C152.751,45.81348,152.47169,46.523,151.76173,46.523Z" transform="translate(-0.00005)"/>
      <path class="cls-2" d="M155.80177,46.523a2.25662,2.25662,0,0,1-2.19922-2.30859,2.18436,2.18436,0,0,1,2.0791-2.27881,1.77286,1.77286,0,0,1,1.78906,1.959c0,.21-.03027.21-.25.21h-2.78809a2.90938,2.90938,0,0,0,.29981,1.499,1.34554,1.34554,0,0,0,1.12891.66944,1.40822,1.40822,0,0,0,1.34961-1.0293c.01953-.08008.04-.13965.12988-.13965a.11611.11611,0,0,1,.12913.10143.11415.11415,0,0,1,.00075.0182A1.70867,1.70867,0,0,1,155.80177,46.523Zm-.12012-4.36767c-.33985,0-1.17969.25-1.23924,1.73926h2.36914c0-.3897-.1006-1.73931-1.1299-1.73931Z" transform="translate(-0.00005)"/>
    </g>
    <g>
      <path class="cls-2" d="M186.53223,83.2h-1.68945v2.37841c0,.35987.01953.46973.78906.46973h.24024v.31c-.34961-.02979-1.09961-.02979-1.47852-.02979-.37988,0-1.11914,0-1.46972.02979v-.31h.24023c.76953,0,.79-.10986.79-.46973V80.31133c0-.35938-.02051-.46973-.79-.46973h-.24023V79.532h3.52832a1.885,1.885,0,1,1,.08007,3.668Zm-.33984-3.3584h-.88965c-.46972,0-.48926.07031-.48926.39992v2.69873h1.37891c1.58887,0,1.58887-1.07959,1.58887-1.54932,0-.48981,0-1.54938-1.58887-1.54938Z" transform="translate(-0.00005)"/>
      <path class="cls-2" d="M192.59278,82.99a.41353.41353,0,0,1-.42969-.39672c-.00042-.011-.00042-.022,0-.033a.43186.43186,0,0,1,.2295-.38965.24994.24994,0,0,0-.11036-.01025c-.75976,0-1.17871.88964-1.17871,1.8789v1.53906c0,.35987.02051.46973.75879.46973h.21094v.31c-.40039-.02979-.87012-.02979-1.26953-.02979l-1.13965.02979v-.31c.66992,0,.78027,0,.78027-.44971V82.92018c0-.48974-.08007-.56006-.78027-.56006v-.30957l1.38965-.10986v1.09912a1.39933,1.39933,0,0,1,1.22851-1.09912.68254.68254,0,0,1,.74024.60937.42021.42021,0,0,1-.3999.43959C192.61265,82.99013,192.6027,82.99023,192.59278,82.99Z" transform="translate(-0.00005)"/>
      <path class="cls-2" d="M195.78223,86.468a2.25647,2.25647,0,0,1-2.19824-2.30859,2.18372,2.18372,0,0,1,2.0791-2.27879,1.773,1.773,0,0,1,1.78907,1.959c0,.21-.03028.21-.25.21h-2.78907a2.90141,2.90141,0,0,0,.30078,1.499,1.34426,1.34426,0,0,0,1.12891.66944,1.40891,1.40891,0,0,0,1.34961-1.0293c.01953-.08008.03906-.13965.12891-.13965a.11644.11644,0,0,1,.13.101.118.118,0,0,1,.00083.0186A1.709,1.709,0,0,1,195.78223,86.468Zm-.11914-4.36767c-.33984,0-1.17968.25-1.23925,1.73925H196.792c0-.38958-.09961-1.73924-1.12891-1.73924Z" transform="translate(-0.00005)"/>
      <path class="cls-2" d="M199.73341,86.468a1.49129,1.49129,0,0,1-1.09961-.42969,2.45884,2.45884,0,0,0-.2002.23c-.19043.18994-.20019.19971-.249.19971-.11133,0-.11133-.06983-.11133-.23975V84.90894c0-.17969,0-.25.13086-.25.09961,0,.10937.04.13965.16992.19043.84961.5498,1.41943,1.38965,1.41943.77929,0,1.1289-.3999,1.1289-.90967,0-.71972-.81933-.87939-1.03906-.91943a2.62028,2.62028,0,0,1-1.31934-.45947,1.06506,1.06506,0,0,1-.43066-.84961c0-.56006.38086-1.22949,1.59961-1.22949a1.53794,1.53794,0,0,1,.93945.27978,1.22441,1.22441,0,0,0,.16992-.15967c.13086-.12011.1504-.12011.2002-.12011.11035,0,.11035.06982.11035.23974v1.00977c0,.18994,0,.23974-.13086.23974,0,0-.10937,0-.11914-.08984a1.10334,1.10334,0,0,0-1.16992-1.20947c-.85938,0-1.11914.40965-1.11914.75976,0,.57959.66992.70947,1.22949.81934a2.0427,2.0427,0,0,1,1.13965.47949,1.29324,1.29324,0,0,1,.41992.94971C201.34278,85.79858,200.88184,86.468,199.73341,86.468Z" transform="translate(-0.00005)"/>
      <path class="cls-2" d="M204.16309,86.468a2.256,2.256,0,0,1-2.19922-2.30859,2.18434,2.18434,0,0,1,2.07911-2.27879,1.773,1.773,0,0,1,1.78906,1.959c0,.21-.03027.21-.25.21H202.794a2.91757,2.91757,0,0,0,.29883,1.499,1.3485,1.3485,0,0,0,1.12988.66944,1.40734,1.40734,0,0,0,1.34864-1.0293c.0205-.08008.041-.13965.13086-.13965a.1161.1161,0,0,1,.12912.10143.11779.11779,0,0,1,.00076.0182A1.70866,1.70866,0,0,1,204.16309,86.468Zm-.12011-4.36767c-.33985,0-1.17969.25-1.23926,1.73925h2.36911c0-.38958-.10056-1.73924-1.12985-1.73924Z" transform="translate(-0.00005)"/>
      <path class="cls-2" d="M210.35157,86.32837l-1.12988.02978v-.31c.66992,0,.78027,0,.78027-.44971V83.26984c0-.56983-.11035-1.10938-.73926-1.10938a1.45925,1.45925,0,0,0-1.35309,1.55814l.00348.041v1.83887c0,.44971.10938.44971.7793.44971v.31l-1.11914-.02978-1.12891.02978v-.31c.66895,0,.7793,0,.7793-.44971V82.92023c0-.48975-.08008-.56006-.7793-.56006V82.0506l1.40821-.10987V82.99a1.57649,1.57649,0,0,1,1.47949-1.04932,1.33407,1.33407,0,0,1,1.0498.36963c.30957.35986.30957.66992.30957,1.52929v1.9087c.01075.2998.25977.2998.78028.2998v.31Z" transform="translate(-0.00005)"/>
      <path class="cls-2" d="M213.73243,86.468a1.2086,1.2086,0,0,1-1.28906-1.34912V82.36009h-.84961v-.21972c.97949-.04,1.27929-1.10938,1.28906-1.92872h.25v1.83887h1.42871v.30957h-1.42868V85.1389c0,.16992,0,1.0791.66992,1.0791.37012,0,.66895-.37939.66895-1.11914v-.5498h.25v.56982C214.72169,85.75854,214.44239,86.468,213.73243,86.468Z" transform="translate(-0.00005)"/>
      <path class="cls-2" d="M220.61231,86.468a1.4925,1.4925,0,0,1-1.09961-.42969,2.11417,2.11417,0,0,0-.19922.23c-.19043.18994-.20019.19971-.25.19971-.11035,0-.11035-.06983-.11035-.23975V84.90894c0-.17969,0-.25.12989-.25.0996,0,.11035.04.14062.16992.18945.84961.54883,1.41943,1.38867,1.41943.7793,0,1.12891-.3999,1.12891-.90967,0-.71972-.81836-.87939-1.03906-.91943a2.61971,2.61971,0,0,1-1.31836-.45947,1.06506,1.06506,0,0,1-.43067-.84961c0-.56006.37989-1.22949,1.59864-1.22949a1.54185,1.54185,0,0,1,.94043.27978,1.2809,1.2809,0,0,0,.16992-.15967c.12988-.12011.14941-.12011.20019-.12011.10938,0,.10938.06982.10938.23974v1.00977c0,.18994,0,.23974-.12989.23974,0,0-.11035,0-.12011-.08984a1.10275,1.10275,0,0,0-1.16992-1.20947c-.85938,0-1.11915.40965-1.11915.75976,0,.57959.66993.70947,1.23047.81934a2.03976,2.03976,0,0,1,1.13868.47949,1.28961,1.28961,0,0,1,.41992.94971C222.22169,85.79858,221.76173,86.468,220.61231,86.468Z" transform="translate(-0.00005)"/>
      <path class="cls-2" d="M224.89161,86.468a1.209,1.209,0,0,1-1.28906-1.34912V82.36009h-.84961v-.21972c.98047-.04,1.27929-1.10938,1.28906-1.92872h.25v1.83887h1.42969v.30957H224.292V85.1389c0,.16992,0,1.0791.66992,1.0791.37012,0,.66992-.37939.66992-1.11914v-.5498h.25v.56982C225.88184,85.75854,225.60157,86.468,224.89161,86.468Z" transform="translate(-0.00005)"/>
      <path class="cls-2" d="M230.46192,86.41821a.83675.83675,0,0,1-.78027-.81982,1.382,1.382,0,0,1-1.30957.86963c-.62891,0-1.59863-.25-1.59863-1.05957a1.45578,1.45578,0,0,1,.999-1.29883,4.85576,4.85576,0,0,1,1.83984-.35986v-.37012a1.13251,1.13251,0,0,0-.97424-1.27123q-.043-.0057-.08631-.00807a1.40071,1.40071,0,0,0-1.07812.46.45337.45337,0,0,1,.50635.39331.46054.46054,0,1,1-.91657.06335l.00006-.007c0-.65967.68946-1.1294,1.50879-1.1294a1.9129,1.9129,0,0,1,1.37012.54981,1.479,1.479,0,0,1,.35937,1.17919v1.999c0,.0498.03907.49951.36915.49951.11035,0,.36035-.06.36035-.63963V84.909h.249v.55957a.84859.84859,0,0,1-.741.94394Q230.50073,86.4171,230.46192,86.41821Zm-.84961-2.45849c-1.64941.05957-2.06933.88916-2.06933,1.439a.86037.86037,0,0,0,.87017.85045l.02924-.00084a1.20124,1.20124,0,0,0,1.17285-1.229q-.00069-.03031-.00293-.06052Z" transform="translate(-0.00005)"/>
      <path class="cls-2" d="M233.78223,86.468a1.209,1.209,0,0,1-1.28906-1.34912V82.36009h-.84961v-.21972c.97949-.04,1.2793-1.10938,1.28906-1.92872h.25v1.83887h1.42969v.30957h-1.42969V85.1389c0,.16992,0,1.0791.66993,1.0791.36914,0,.66992-.37939.66992-1.11914v-.5498h.25v.56982C234.77247,85.75854,234.4922,86.468,233.78223,86.468Z" transform="translate(-0.00005)"/>
      <path class="cls-2" d="M237.82227,86.468a2.25585,2.25585,0,0,1-2.19824-2.30859,2.18358,2.18358,0,0,1,2.07813-2.27879,1.7724,1.7724,0,0,1,1.78906,1.959c0,.21-.0293.21-.25.21h-2.78809a2.90958,2.90958,0,0,0,.29981,1.499,1.34686,1.34686,0,0,0,1.1289.66944,1.40821,1.40821,0,0,0,1.34961-1.0293c.01953-.08008.04-.13965.12989-.13965a.1161.1161,0,0,1,.12912.10143.11779.11779,0,0,1,.00076.0182A1.70757,1.70757,0,0,1,237.82227,86.468Zm-.12011-4.36767c-.33985,0-1.17969.25-1.23926,1.73925H238.832c0-.38958-.10059-1.73924-1.12988-1.73924Z" transform="translate(-0.00005)"/>
    </g>
    <g>
      <path class="cls-2" d="M246.9611,14.19069a3.36211,3.36211,0,0,1-3.178-3.5093,3.20255,3.20255,0,1,1,6.36547,0A3.35694,3.35694,0,0,1,246.9611,14.19069Zm0-6.85311c-.91683,0-2.27135.8091-2.27135,3.19768,0,2.49562,1.28655,3.43148,2.28086,3.43148.94537,0,2.27134-.89711,2.27134-3.43148C249.242,8.17591,247.92618,7.33758,246.9611,7.33758Z" transform="translate(-0.00005)"/>
      <path class="cls-2" d="M254.40447,14.08364v-.87741a1.70727,1.70727,0,0,1-.43837.59468,1.14312,1.14312,0,0,1-.80944.28273,1.50843,1.50843,0,0,1-1.13092-.3704c-.29224-.32181-.29224-.67285-.29224-1.27707V10.974c0-.8679,0-.89713-.7408-.89713V9.79412l1.37422-.107v3.22657c0,.51686.04893.97493.84819.97493.73128,0,1.17033-.6922,1.17033-1.52068v-1.745c0-.47779-.07816-.54609-.74148-.54609V9.79411l1.3749-.107v3.47057c0,.47742.07816.54574.7408.54574v.28273Z" transform="translate(-0.00005)"/>
      <path class="cls-2" d="M258.22334,14.08364a1.155,1.155,0,0,1-1.23829-1.30629v-2.71h-.82848V9.87228c.88693-.02923,1.2383-.96509,1.24783-1.88157h.21477V9.7846h1.37422v.28273h-1.37422v2.72942c0,.16583,0,1.07246.66264,1.07246.3806,0,.66333-.40948.66333-1.11155v-.53588h.21408v.55559C259.1592,13.47909,258.83773,14.08364,258.22334,14.08364Z" transform="translate(-0.00005)"/>
      <path class="cls-2" d="M262.53971,14.08364a1.48581,1.48581,0,0,1-1.19888-.62391v1.696c0,.4387.11692.4387.74081.4387v.28273c-.25351-.01937-.77955-.01937-1.06227-.01937-.27322,0-.79926,0-1.05276.01937v-.28273c.63342,0,.7408,0,.7408-.4387V10.574c0-.42885-.05847-.49716-.7408-.49716V9.79412l1.35451-.107v.65313a1.7247,1.7247,0,0,1,1.34568-.65313,2.09779,2.09779,0,0,1,1.9791,2.19352A2.15723,2.15723,0,0,1,262.53971,14.08364Zm.04894-4.18214a1.40481,1.40481,0,0,0-1.14043.62391.4246.4246,0,0,0-.10739.351v2.008a.96864.96864,0,0,0,.37041.69221,1.14992,1.14992,0,0,0,.78022.31195c.75032,0,1.41364-.84818,1.41364-2.008C263.9051,10.78842,263.31993,9.9015,262.58865,9.9015Z" transform="translate(-0.00005)"/>
      <path class="cls-2" d="M268.71692,14.08364v-.87741a1.70724,1.70724,0,0,1-.43836.59468,1.14314,1.14314,0,0,1-.80945.28273,1.50841,1.50841,0,0,1-1.13091-.3704c-.29225-.32181-.29225-.67285-.29225-1.27707V10.974c0-.8679,0-.89713-.7408-.89713V9.79412l1.37422-.107v3.22657c0,.51686.04894.97493.84819.97493.73129,0,1.17033-.6922,1.17033-1.52068v-1.745c0-.47779-.07816-.54609-.7408-.54609V9.79411l1.37422-.107v3.47057c0,.47742.07816.54574.74081.54574v.28273Z" transform="translate(-0.00005)"/>
      <path class="cls-2" d="M272.5358,14.08364a1.155,1.155,0,0,1-1.2383-1.30629v-2.71H270.469V9.87228c.88693-.02923,1.2383-.96509,1.24784-1.88157h.21476V9.7846h1.37423v.28273h-1.37423v2.72942c0,.16583,0,1.07246.66265,1.07246.38059,0,.66264-.40948.66264-1.11155v-.53588h.21477v.55559C273.47166,13.47909,273.15019,14.08364,272.5358,14.08364Z" transform="translate(-0.00005)"/>
      <path class="cls-2" d="M275.90679,14.08364a1.3092,1.3092,0,0,1-1.06227-.45808,1.32923,1.32923,0,0,0-.19506.24366c-.16583.2046-.176.21442-.22428.21442-.09786,0-.09786-.04893-.09786-.22428V12.53373c0-.17568,0-.22428.10738-.22428a.08467.08467,0,0,1,.08769.03875,1.45935,1.45935,0,0,1,.04894.19505c.21476.97494.68235,1.34533,1.326,1.34533.8577,0,1.10169-.46792,1.10169-.88692a.81047.81047,0,0,0-.30244-.63376,1.67551,1.67551,0,0,0-.90663-.33166,2.10021,2.10021,0,0,1-1.09218-.42885,1.01984,1.01984,0,0,1-.3704-.7894c0-.53623.35137-1.17985,1.53054-1.17985a1.36626,1.36626,0,0,1,.91683.30244c.068-.088.2535-.30244.331-.30244.09787,0,.09787.04894.09787.22428v1.014c0,.17538,0,.22394-.10738.22394a.09132.09132,0,0,1-.1066-.07294l-.00079-.00488a1.10247,1.10247,0,0,0-1.14043-1.20874c-.87741,0-1.082.44823-1.082.75067,0,.58482.71158.72143,1.00383.77987a2.20413,2.20413,0,0,1,1.258.47743,1.28666,1.28666,0,0,1,.40914.92634C277.43733,13.51819,276.93032,14.08364,275.90679,14.08364Z" transform="translate(-0.00005)"/>
    </g>
  </g>
</svg>
