<svg xmlns="http://www.w3.org/2000/svg" viewBox="0 0 250 150">
  <defs>
    <style>
      .cls-1, .cls-5 {
        fill: none;
      }

      .cls-1 {
        stroke: #000;
      }

      .cls-1, .cls-2, .cls-4, .cls-5 {
        stroke-miterlimit: 10;
      }

      .cls-1, .cls-2, .cls-5 {
        stroke-width: 2px;
      }

      .cls-2, .cls-4 {
        fill: #fff;
      }

      .cls-2, .cls-4, .cls-5 {
        stroke: #c1272d;
      }

      .cls-3 {
        fill: #c1272d;
      }
    </style>
  </defs>
  <title>SignFunction</title>
  <g id="Layer_1" data-name="Layer 1">
    <g>
      <g>
        <line class="cls-1" x1="125" y1="3.95598" x2="125" y2="150"/>
        <polygon points="120.547 12.232 121.864 12.71 125 4.093 128.136 12.71 129.452 12.232 125 0 120.547 12.232"/>
      </g>
      <g>
        <line class="cls-1" y1="75" x2="246.04401" y2="75"/>
        <polygon points="237.768 79.453 237.29 78.136 245.907 75 237.29 71.864 237.768 70.548 250 75 237.768 79.453"/>
      </g>
    </g>
  </g>
  <g id="Layer_3" data-name="Layer 3">
    <g>
      <path d="M113.43164,35.35645a1.79125,1.79125,0,0,1-1.31934-.51563,2.72315,2.72315,0,0,0-.23974.27588c-.228.228-.23975.23975-.29981.23975-.13183,0-.13183-.084-.13183-.2876v-1.5835c0-.21582,0-.2998.15576-.2998.12012,0,.13184.04834.168.2041.22754,1.01953.65967,1.70312,1.667,1.70312.93555,0,1.35547-.48,1.35547-1.09131,0-.86376-.98389-1.05566-1.24756-1.10351a3.14022,3.14022,0,0,1-1.583-.55176,1.278,1.278,0,0,1-.51562-1.01953c0-.67139.45556-1.4751,1.91894-1.4751a1.84636,1.84636,0,0,1,1.127.33594,1.55085,1.55085,0,0,0,.2041-.19189c.15576-.144.17969-.144.23974-.144.13184,0,.13184.084.13184.28809v1.21094c0,.228,0,.28808-.15576.28808,0,0-.13184,0-.144-.10791a1.32294,1.32294,0,0,0-1.40284-1.45117c-1.03173,0-1.34326.4917-1.34326.91113,0,.6958.80322.85157,1.4751.98389a2.44533,2.44533,0,0,1,1.36719.57568,1.54541,1.54541,0,0,1,.50341,1.13916C115.3623,34.55273,114.811,35.35645,113.43164,35.35645Z" transform="translate(-25 -25)"/>
      <path d="M121.24219,30.73926a.34076.34076,0,0,1-.34815-.34815.32124.32124,0,0,1,.1919-.32373.56162.56162,0,0,0-.11963-.01172,1.57291,1.57291,0,0,0-1.07959.46778,1.61867,1.61867,0,0,1,.4917,1.16308,1.85626,1.85626,0,0,1-1.94287,1.751,2.045,2.045,0,0,1-1.1875-.37158.88359.88359,0,0,0-.20362.56347.7821.7821,0,0,0,.63526.80372c.084.01171.6001.01171.8999.01171a4.25853,4.25853,0,0,1,2.0625.33594,1.534,1.534,0,0,1,.77979,1.36719c0,.93555-1.24756,1.54736-2.6626,1.54736-1.46338,0-2.65039-.65967-2.65039-1.52343a1.35354,1.35354,0,0,1,1.103-1.19922,1.27861,1.27861,0,0,1-.52734-1.06739,1.659,1.659,0,0,1,.37158-.9956,1.65134,1.65134,0,0,1-.56347-1.23487,1.85631,1.85631,0,0,1,1.94287-1.75146,2.0006,2.0006,0,0,1,1.27148.43213,1.84717,1.84717,0,0,1,1.271-.564.58692.58692,0,0,1,.61181.58789A.34631.34631,0,0,1,121.24219,30.73926Zm-2.81885,4.40137h-.70752a1.056,1.056,0,0,0-.9834,1.03125c0,.63574.82764,1.24755,2.03906,1.24755,1.1753,0,2.02686-.59961,2.02686-1.24755C120.79834,35.14063,119.45508,35.14063,118.42334,35.14063Zm.01221-4.94141a1.0359,1.0359,0,0,0-.85157.48,1.9705,1.9705,0,0,0-.19189,1.00732c0,.27588,0,1.4751,1.04346,1.4751a1.03729,1.03729,0,0,0,.85156-.47949,1.97043,1.97043,0,0,0,.19189-1.00733C119.479,31.39893,119.479,30.19922,118.43555,30.19922Z" transform="translate(-25 -25)"/>
      <path d="M126.84619,35.18848l-1.35547.03613V34.853c.80371,0,.93555,0,.93555-.54V31.51855c0-.68359-.13184-1.33105-.88721-1.33105a1.75144,1.75144,0,0,0-1.61914,1.919V34.313c0,.54.13184.54.93555.54v.37158l-1.34326-.03613-1.35547.03613V34.853c.80371,0,.93555,0,.93555-.54V31.09863c0-.5874-.0962-.67138-.93555-.67138v-.37159l1.69092-.13232v1.25928a1.89141,1.89141,0,0,1,1.77539-1.25928,1.60049,1.60049,0,0,1,1.25927.44385c.37159.43164.37159.80371.37159,1.835v2.291c.0122.35987.312.35987.93554.35987v.37158Z" transform="translate(-25 -25)"/>
      <path d="M131.5752,38.22314c-.168,0-.6836-.6958-.9834-1.49951a6.35737,6.35737,0,0,1-.32422-2.0625,11.73673,11.73673,0,0,1,1.6914-5.75683,7.68739,7.68739,0,0,1,2.55469-2.67481.10756.10756,0,0,1,.11963.12012c0,.03564-.01172.04785-.17969.21582-2.87841,2.44678-3.58593,6.896-3.58593,8.52734a4.95618,4.95618,0,0,0,.74365,2.84229.37422.37422,0,0,1,.08349.168A.1134.1134,0,0,1,131.5752,38.22314Z" transform="translate(-25 -25)"/>
      <path d="M135.7998,35.35645a1.01117,1.01117,0,0,1-1.01953-1.07911,1.84431,1.84431,0,0,1,.06006-.4082l.86328-3.44189h-.95947c-.19189,0-.2998,0-.2998-.144,0-.22754.13183-.22754.33593-.22754h1.01953l.46778-1.90722a.50068.50068,0,0,1,.46777-.43164.30055.30055,0,0,1,.32373.31152.72986.72986,0,0,1-.04785.252l-.44385,1.77539h.95948c.19189,0,.2998,0,.2998.14356,0,.228-.13184.228-.33594.228h-1.01953l-.88721,3.562a2.34784,2.34784,0,0,0-.084.61181c0,.1919,0,.4917.32373.4917.68359,0,1.16309-.89941,1.3794-1.47509.0957-.21631.0957-.228.23974-.228.084,0,.17969,0,.17969.12012C137.62256,33.56934,137.01123,35.35645,135.7998,35.35645Z" transform="translate(-25 -25)"/>
      <path d="M140.22754,35.54834a7.692,7.692,0,0,1-2.55469,2.6748.1077.1077,0,0,1-.12012-.12011c0-.03614.01221-.04785.18018-.21582,2.87842-2.44678,3.58594-6.89649,3.58594-8.52735a4.96,4.96,0,0,0-.74365-2.84228.37313.37313,0,0,1-.084-.168.11328.11328,0,0,1,.12012-.12012c.16748,0,.68359.6958.9834,1.499a6.36239,6.36239,0,0,1,.32373,2.063A11.74306,11.74306,0,0,1,140.22754,35.54834Z" transform="translate(-25 -25)"/>
    </g>
    <path d="M268.49219,116.35645a1.01117,1.01117,0,0,1-1.01953-1.07911,1.82174,1.82174,0,0,1,.05957-.4082l.86328-3.44189h-.96c-.19141,0-.29883,0-.29883-.14405,0-.22754.13086-.22754.33594-.22754h1.01953l.46679-1.90722a.50175.50175,0,0,1,.46875-.43164.30042.30042,0,0,1,.32325.31152.72986.72986,0,0,1-.04785.252l-.44336,1.77539h.959c.19141,0,.2998,0,.2998.14356,0,.228-.13183.228-.33593.228h-1.01953l-.8877,3.562a2.34784,2.34784,0,0,0-.084.61181c0,.1919,0,.4917.32422.4917.68359,0,1.16308-.89941,1.3789-1.47509.0957-.21631.0957-.228.24024-.228.084,0,.17968,0,.17968.12012C270.31445,114.56934,269.70313,116.35645,268.49219,116.35645Z" transform="translate(-25 -25)"/>
    <path d="M140.77832,53.63818c-.47949,0-1.52246,0-1.94238.03614v-.37159h.38379c1.0791,0,1.11523-.144,1.11523-.57568V46.51416a3.59073,3.59073,0,0,1-1.57129.312V46.4541a2.96243,2.96243,0,0,0,2.18262-.76758c.27637,0,.27637.02442.27637.312v6.72851c0,.44336.03613.57568,1.11523.57568h.38379v.37159C142.30176,53.63818,141.25879,53.63818,140.77832,53.63818Z" transform="translate(-25 -25)"/>
    <line class="cls-2" x1="125" y1="25" x2="237.5" y2="25"/>
    <g>
      <path d="M166.624,150.916h-6.53613c-.168,0-.39648,0-.39648-.24024,0-.23974.22851-.23974.39648-.23974H166.624c.168,0,.39551,0,.39551.23974C167.01953,150.916,166.792,150.916,166.624,150.916Z" transform="translate(-25 -25)"/>
      <path d="M171.11426,153.63818c-.47949,0-1.52246,0-1.94238.03614v-.37159h.38378c1.07911,0,1.11524-.144,1.11524-.57568v-6.21289a3.59076,3.59076,0,0,1-1.57129.312v-.37207a2.96244,2.96244,0,0,0,2.18262-.76758c.27636,0,.27636.02442.27636.312v6.72851c0,.44336.03614.57568,1.11524.57568h.38379v.37159C172.6377,153.63818,171.59473,153.63818,171.11426,153.63818Z" transform="translate(-25 -25)"/>
    </g>
    <circle class="cls-3" cx="125" cy="75" r="2.5"/>
    <circle class="cls-4" cx="125" cy="25" r="2.5"/>
    <line class="cls-5" x1="125" y1="125" x2="12.5" y2="125"/>
    <circle class="cls-4" cx="125" cy="125" r="2.5"/>
  </g>
</svg>
