<svg id="Layer_1" data-name="Layer 1" xmlns="http://www.w3.org/2000/svg" viewBox="0 0 275 155.50098">
  <defs>
    <style>
      .cls-1, .cls-2, .cls-3, .cls-4 {
        fill: none;
      }

      .cls-1, .cls-4 {
        stroke: #000;
        stroke-miterlimit: 10;
      }

      .cls-1, .cls-2, .cls-3 {
        stroke-width: 2px;
      }

      .cls-2 {
        stroke: #c1272d;
      }

      .cls-2, .cls-3 {
        stroke-linecap: round;
        stroke-linejoin: round;
      }

      .cls-3 {
        stroke: blue;
      }
    </style>
  </defs>
  <title>SinusoidPhase</title>
  <g>
    <path d="M40.7793,44.49121c-.44385.03613-.86377.168-1.34326.97168l-4.11377,6.88428c-.13233.21582-.1919.22754-.33594.22754-.1919,0-.2041-.05957-.228-.2876l-.71973-7.38818c-.02392-.29981-.04785-.40772-.64746-.40772-.168,0-.28759,0-.28759-.14355,0-.228.15576-.228.21582-.228.3955,0,.81543.03564,1.22314.03564.45557,0,.93555-.03564,1.3794-.03564a.14387.14387,0,0,1,.168.144c0,.22754-.13232.22754-.2998.22754-.12012,0-.75586.01221-.75586.37207l.61182,6.28418L39.11182,45.355a1.24662,1.24662,0,0,0,.18017-.48c0-.2876-.28808-.37158-.48-.38379-.0957-.01172-.19189-.01172-.19189-.14355,0-.228.144-.228.21582-.228.34814,0,.74365.03564,1.10351.03564.29981,0,.62354-.03564.91162-.03564a.16114.16114,0,0,1,.15577.13183C41.00684,44.47949,40.875,44.47949,40.7793,44.49121Z" transform="translate(0 -19.49902)"/>
    <path d="M44.50928,56.38379a.52061.52061,0,0,1-.53076-.55908,1.05246,1.05246,0,0,1,.11181-.44727,6.36343,6.36343,0,0,0,.40528-1.54443c0-.10449,0-.46094-.32178-.46094a1.23182,1.23182,0,0,0-.98535.75488,1.5482,1.5482,0,0,0-.17432.50293c-.03516.15381-.07715.3003-.11182.4541l-.27978,1.11817a.27124.27124,0,0,1-.25147.18164.1832.1832,0,0,1-.1958-.18164.34359.34359,0,0,1,.021-.09766l.4541-1.81689a2.15792,2.15792,0,0,0,.063-.45459c0-.10449,0-.46094-.32129-.46094a1.23113,1.23113,0,0,0-.98535.75488,1.533,1.533,0,0,0-.17481.50293c-.03515.15381-.07714.3003-.11181.4541l-.27979,1.11817a.27124.27124,0,0,1-.25146.18164.1832.1832,0,0,1-.1958-.18164.36178.36178,0,0,1,.021-.09766l.52442-2.09668a1.56983,1.56983,0,0,0,.04882-.35644c0-.07666,0-.2793-.18164-.2793-.21679,0-.34961.34229-.47509.83154-.03516.15381-.042.16065-.13282.16065-.03515,0-.105,0-.105-.06983a3.92987,3.92987,0,0,1,.22364-.706.5639.5639,0,0,1,.50293-.37012.59172.59172,0,0,1,.5874.55225,1.24478,1.24478,0,0,1,.999-.55225.66778.66778,0,0,1,.73389.61475,1.28512,1.28512,0,0,1,1.04834-.61475.664.664,0,0,1,.73389.72656,6.07214,6.07214,0,0,1-.42627,1.5586,1.73606,1.73606,0,0,0-.126.52392c0,.09815.00732.20313.15381.20313.40527,0,.59424-.68506.6499-.874.02783-.1045.02783-.11866.11865-.11866.04932,0,.105,0,.105.06983C45.397,55.34277,45.15918,56.38379,44.50928,56.38379Z" transform="translate(0 -19.49902)"/>
  </g>
  <g>
    <polyline class="cls-1" points="50 9.457 50 80.501 50 155.501"/>
    <polygon points="45.547 17.733 46.864 18.211 50 9.594 53.136 18.211 54.452 17.733 50 5.501 45.547 17.733"/>
  </g>
  <g>
    <line class="cls-1" y1="80.50098" x2="271.04401" y2="80.50098"/>
    <polygon points="262.768 84.954 262.29 83.637 270.907 80.501 262.29 77.365 262.768 76.049 275 80.501 262.768 84.954"/>
  </g>
  <path class="cls-2" d="M49.99561,100c12.49951-25,24.999-50,49.99805-50,49.99951,0,49.99951,100,99.999,100,25.00092,0,37.50138-25,50.00183-50" transform="translate(0 -19.49902)"/>
  <g>
    <path d="M27.4585,28.626a1.34293,1.34293,0,0,1-1.4751-1.439,7.63286,7.63286,0,0,1,.61133-2.30273,3.53545,3.53545,0,0,0,.28808-1.07959c0-.312-.13183-.34766-.26367-.34766-.6958,0-1.01953,1.13916-1.11572,1.51123-.04785.16748-.06006.1919-.21582.1919-.06006,0-.17969,0-.17969-.12012,0-.07178.41943-1.84717,1.53516-1.84717a.89849.89849,0,0,1,.91113.97168,1.90263,1.90263,0,0,1-.13184.59961,9.04413,9.04413,0,0,0-.70752,2.60254c0,.396.13184.9956.77979.9956,1.37891,0,1.94287-3.01025,1.94287-3.34619a1.35475,1.35475,0,0,0-.32373-.94775.46241.46241,0,0,1-.15625-.32373.61648.61648,0,0,1,.57568-.55176c.34815,0,.4917.37207.4917.79151C30.0249,24.29639,29.47314,28.626,27.4585,28.626Z" transform="translate(0 -19.49902)"/>
    <path d="M32.7627,31.49268c-.168,0-.6836-.6958-.9834-1.49952a6.35737,6.35737,0,0,1-.32422-2.0625,11.73673,11.73673,0,0,1,1.6914-5.75683A7.68739,7.68739,0,0,1,35.70117,19.499a.10756.10756,0,0,1,.11963.12012c0,.03565-.01172.04785-.17969.21582-2.87841,2.44678-3.58593,6.896-3.58593,8.52734a4.95618,4.95618,0,0,0,.74365,2.84229.37422.37422,0,0,1,.08349.168A.1134.1134,0,0,1,32.7627,31.49268Z" transform="translate(0 -19.49902)"/>
    <path d="M36.98682,28.626a1.01145,1.01145,0,0,1-1.01953-1.0791,1.84448,1.84448,0,0,1,.06005-.40821l.86329-3.44189h-.95948c-.19189,0-.2998,0-.2998-.144,0-.22753.13183-.22753.33594-.22753h1.01953l.46777-1.90723a.50068.50068,0,0,1,.46777-.43164.30055.30055,0,0,1,.32373.31152.72982.72982,0,0,1-.04785.252l-.44385,1.7754h.95948c.19189,0,.2998,0,.2998.14355,0,.228-.13183.228-.33594.228H37.6582l-.8872,3.562a2.34759,2.34759,0,0,0-.084.61182c0,.19189,0,.49169.32373.49169.6836,0,1.16309-.89941,1.3794-1.47509.0957-.21631.0957-.228.23974-.228.084,0,.17969,0,.17969.12012C38.80957,26.83887,38.19824,28.626,36.98682,28.626Z" transform="translate(0 -19.49902)"/>
    <path d="M41.41455,28.81787a7.692,7.692,0,0,1-2.55469,2.67481.1077.1077,0,0,1-.12011-.12012c0-.03613.0122-.04785.18017-.21582,2.87842-2.44678,3.58594-6.89649,3.58594-8.52735a4.96,4.96,0,0,0-.74365-2.84228.37313.37313,0,0,1-.084-.168.11329.11329,0,0,1,.12012-.12012c.16748,0,.68359.6958.9834,1.499a6.36245,6.36245,0,0,1,.32373,2.063A11.74306,11.74306,0,0,1,41.41455,28.81787Z" transform="translate(0 -19.49902)"/>
  </g>
  <path d="M272.55859,115.626a1.01174,1.01174,0,0,1-1.01953-1.0791,1.86618,1.86618,0,0,1,.06055-.40821l.86328-3.44189h-.959c-.19239,0-.30078,0-.30078-.14405,0-.22753.13281-.22753.33593-.22753h1.01953l.46875-1.90723a.49962.49962,0,0,1,.4668-.43164.30069.30069,0,0,1,.32422.31152.72982.72982,0,0,1-.04785.252l-.44434,1.7754h.96c.19239,0,.29981,0,.29981.14355,0,.228-.13184.228-.33594.228h-1.01953l-.88672,3.562a2.34785,2.34785,0,0,0-.084.61182c0,.19189,0,.49169.32324.49169.68359,0,1.16308-.89941,1.37988-1.47509.0957-.21631.0957-.228.23926-.228.084,0,.17969,0,.17969.12012C274.38184,113.83887,273.77051,115.626,272.55859,115.626Z" transform="translate(0 -19.49902)"/>
  <g>
    <path d="M40.7793,44.49121c-.44385.03613-.86377.168-1.34326.97168l-4.11377,6.88428c-.13233.21582-.1919.22754-.33594.22754-.1919,0-.2041-.05957-.228-.2876l-.71973-7.38818c-.02392-.29981-.04785-.40772-.64746-.40772-.168,0-.28759,0-.28759-.14355,0-.228.15576-.228.21582-.228.3955,0,.81543.03564,1.22314.03564.45557,0,.93555-.03564,1.3794-.03564a.14387.14387,0,0,1,.168.144c0,.22754-.13232.22754-.2998.22754-.12012,0-.75586.01221-.75586.37207l.61182,6.28418L39.11182,45.355a1.24662,1.24662,0,0,0,.18017-.48c0-.2876-.28808-.37158-.48-.38379-.0957-.01172-.19189-.01172-.19189-.14355,0-.228.144-.228.21582-.228.34814,0,.74365.03564,1.10351.03564.29981,0,.62354-.03564.91162-.03564a.16114.16114,0,0,1,.15577.13183C41.00684,44.47949,40.875,44.47949,40.7793,44.49121Z" transform="translate(0 -19.49902)"/>
    <path d="M44.50928,56.38379a.52061.52061,0,0,1-.53076-.55908,1.05246,1.05246,0,0,1,.11181-.44727,6.36343,6.36343,0,0,0,.40528-1.54443c0-.10449,0-.46094-.32178-.46094a1.23182,1.23182,0,0,0-.98535.75488,1.5482,1.5482,0,0,0-.17432.50293c-.03516.15381-.07715.3003-.11182.4541l-.27978,1.11817a.27124.27124,0,0,1-.25147.18164.1832.1832,0,0,1-.1958-.18164.34359.34359,0,0,1,.021-.09766l.4541-1.81689a2.15792,2.15792,0,0,0,.063-.45459c0-.10449,0-.46094-.32129-.46094a1.23113,1.23113,0,0,0-.98535.75488,1.533,1.533,0,0,0-.17481.50293c-.03515.15381-.07714.3003-.11181.4541l-.27979,1.11817a.27124.27124,0,0,1-.25146.18164.1832.1832,0,0,1-.1958-.18164.36178.36178,0,0,1,.021-.09766l.52442-2.09668a1.56983,1.56983,0,0,0,.04882-.35644c0-.07666,0-.2793-.18164-.2793-.21679,0-.34961.34229-.47509.83154-.03516.15381-.042.16065-.13282.16065-.03515,0-.105,0-.105-.06983a3.92987,3.92987,0,0,1,.22364-.706.5639.5639,0,0,1,.50293-.37012.59172.59172,0,0,1,.5874.55225,1.24478,1.24478,0,0,1,.999-.55225.66778.66778,0,0,1,.73389.61475,1.28512,1.28512,0,0,1,1.04834-.61475.664.664,0,0,1,.73389.72656,6.07214,6.07214,0,0,1-.42627,1.5586,1.73606,1.73606,0,0,0-.126.52392c0,.09815.00732.20313.15381.20313.40527,0,.59424-.68506.6499-.874.02783-.1045.02783-.11866.11865-.11866.04932,0,.105,0,.105.06983C45.397,55.34277,45.15918,56.38379,44.50928,56.38379Z" transform="translate(0 -19.49902)"/>
  </g>
  <g>
    <path d="M32.09473,150.06055H29.792c-.21582,0-.312,0-.312-.15625a2.21433,2.21433,0,0,1,.084-.35938c.04834-.15625.07227-.15625.312-.15625h2.33886c.1919,0,.29981,0,.29981.144a2.995,2.995,0,0,1-.09619.38379C32.38232,150.06055,32.32275,150.06055,32.09473,150.06055Z" transform="translate(0 -19.49902)"/>
    <path d="M42.92725,144.4834c-.44385.03613-.86377.168-1.34327.97168l-4.11377,6.88428c-.13232.21582-.19189.22753-.33593.22753-.1919,0-.2041-.05957-.228-.28759l-.71973-7.38819c-.02392-.2998-.04785-.40771-.64746-.40771-.168,0-.2876,0-.2876-.14356,0-.228.15577-.228.21583-.228.3955,0,.81542.03564,1.22314.03564.45557,0,.93555-.03564,1.37939-.03564a.14388.14388,0,0,1,.168.144c0,.22754-.13232.22754-.2998.22754-.12012,0-.75586.01221-.75586.37207l.61182,6.28418,3.46582-5.79248a1.24668,1.24668,0,0,0,.18017-.48c0-.2876-.28808-.37158-.48-.38379-.0957-.01172-.19189-.01172-.19189-.14356,0-.228.144-.228.21582-.228.34814,0,.74365.03564,1.10351.03564.29981,0,.62354-.03564.91162-.03564a.16114.16114,0,0,1,.15577.13183C43.15479,144.47168,43.023,144.47168,42.92725,144.4834Z" transform="translate(0 -19.49902)"/>
    <path d="M46.65723,156.376a.52062.52062,0,0,1-.53077-.55909,1.0525,1.0525,0,0,1,.11182-.44726,6.36345,6.36345,0,0,0,.40527-1.54443c0-.1045,0-.46094-.32177-.46094a1.23182,1.23182,0,0,0-.98535.75488,1.5482,1.5482,0,0,0-.17432.50293c-.03516.15381-.07715.30029-.11182.4541l-.27978,1.11817a.27124.27124,0,0,1-.25147.18164.1832.1832,0,0,1-.1958-.18164.34359.34359,0,0,1,.021-.09766l.4541-1.81689a2.15792,2.15792,0,0,0,.063-.45459c0-.1045,0-.46094-.32129-.46094a1.23112,1.23112,0,0,0-.98535.75488,1.533,1.533,0,0,0-.17481.50293c-.03515.15381-.07715.30029-.11181.4541l-.27979,1.11817a.27124.27124,0,0,1-.25146.18164.1832.1832,0,0,1-.1958-.18164.36178.36178,0,0,1,.021-.09766L43.08643,154a1.56991,1.56991,0,0,0,.04882-.35645c0-.07666,0-.27929-.18164-.27929-.21679,0-.34961.34228-.47509.83154-.03516.15381-.042.16065-.13282.16065-.03515,0-.105,0-.105-.06983a3.92987,3.92987,0,0,1,.22364-.70605.56388.56388,0,0,1,.50293-.37012.59172.59172,0,0,1,.5874.55225,1.24478,1.24478,0,0,1,.999-.55225.66778.66778,0,0,1,.73389.61475,1.28512,1.28512,0,0,1,1.04834-.61475.664.664,0,0,1,.73388.72656,6.07184,6.07184,0,0,1-.42627,1.5586,1.7362,1.7362,0,0,0-.126.52392c0,.09815.00732.20313.15381.20313.40527,0,.59424-.68506.6499-.874.02783-.10449.02783-.11865.11865-.11865.04932,0,.105,0,.105.06982C47.54492,155.335,47.30713,156.376,46.65723,156.376Z" transform="translate(0 -19.49902)"/>
  </g>
  <g>
    <path d="M89.94287,42.44238a1.34293,1.34293,0,0,1-1.4751-1.439,7.63321,7.63321,0,0,1,.61133-2.30274,3.53538,3.53538,0,0,0,.28809-1.07959c0-.312-.13184-.34765-.26367-.34765-.69581,0-1.01954,1.13916-1.11573,1.51123-.04785.16748-.06006.19189-.21582.19189-.06006,0-.17968,0-.17968-.12011,0-.07178.41943-1.84717,1.53515-1.84717a.89848.89848,0,0,1,.91113.97168,1.90275,1.90275,0,0,1-.13183.59961,9.044,9.044,0,0,0-.70752,2.60254c0,.396.13183.9956.77978.9956,1.37891,0,1.94288-3.01025,1.94288-3.34619a1.35476,1.35476,0,0,0-.32374-.94775.46246.46246,0,0,1-.15625-.32373.61649.61649,0,0,1,.57569-.55176c.34814,0,.4917.37207.4917.7915C92.50928,38.11279,91.95752,42.44238,89.94287,42.44238Z" transform="translate(0 -19.49902)"/>
    <path d="M93.9126,46.28564c-.2793,0-.88721,0-1.13184.021v-.2168h.22363c.62891,0,.64991-.08349.64991-.33545V42.13428a2.08885,2.08885,0,0,1-.91553.18213v-.2168a1.72718,1.72718,0,0,0,1.272-.44727c.16065,0,.16065.01368.16065.18164v3.92041c0,.25879.021.33545.6499.33545h.22363v.2168C94.80029,46.28564,94.19238,46.28564,93.9126,46.28564Z" transform="translate(0 -19.49902)"/>
    <path d="M98.74512,45.30908c-.168,0-.6836-.6958-.9834-1.49951a6.35737,6.35737,0,0,1-.32422-2.0625,11.73668,11.73668,0,0,1,1.69141-5.75684,7.68734,7.68734,0,0,1,2.55468-2.6748.10756.10756,0,0,1,.11963.12012c0,.03564-.01172.04785-.17968.21582-2.87842,2.44677-3.58594,6.896-3.58594,8.52734a4.95618,4.95618,0,0,0,.74365,2.84229.37415.37415,0,0,1,.0835.168A.11341.11341,0,0,1,98.74512,45.30908Z" transform="translate(0 -19.49902)"/>
    <path d="M102.96924,42.44238a1.01144,1.01144,0,0,1-1.01953-1.0791,1.84359,1.84359,0,0,1,.06006-.4082l.86328-3.4419h-.95948c-.19189,0-.2998,0-.2998-.144,0-.22754.13184-.22754.33594-.22754h1.01953l.46777-1.90722a.50069.50069,0,0,1,.46778-.43165.30056.30056,0,0,1,.32373.31153.72972.72972,0,0,1-.04786.252l-.44384,1.77539h.95947c.19189,0,.2998,0,.2998.14356,0,.228-.13183.228-.33593.228h-1.01953l-.88721,3.562a2.34753,2.34753,0,0,0-.084.61181c0,.1919,0,.4917.32373.4917.6836,0,1.16309-.89941,1.3794-1.4751.0957-.21631.0957-.228.23974-.228.084,0,.17969,0,.17969.12011C104.792,40.65527,104.18066,42.44238,102.96924,42.44238Z" transform="translate(0 -19.49902)"/>
    <path d="M107.397,42.63428a7.692,7.692,0,0,1-2.55468,2.6748.1077.1077,0,0,1-.12012-.12012c0-.03613.01221-.04785.18017-.21582,2.87842-2.44677,3.58594-6.89648,3.58594-8.52734a4.96,4.96,0,0,0-.74365-2.84228.37313.37313,0,0,1-.084-.168.11329.11329,0,0,1,.12012-.12012c.16748,0,.6836.6958.9834,1.499a6.3625,6.3625,0,0,1,.32373,2.063A11.74309,11.74309,0,0,1,107.397,42.63428Z" transform="translate(0 -19.49902)"/>
  </g>
  <path class="cls-3" d="M106.99561,100c12.49951-25,24.999-50,49.99805-50,49.99951,0,49.99951,100,99.999,100a35.5089,35.5089,0,0,0,4.54423-.28686" transform="translate(0 -19.49902)"/>
  <g>
    <line class="cls-4" x1="53.75915" y1="86.50098" x2="104.24085" y2="86.50098"/>
    <polygon points="56.079 89.364 56.556 88.851 54.028 86.502 56.556 84.151 56.079 83.639 53 86.502 56.079 89.364"/>
    <polygon points="101.921 89.364 101.444 88.851 103.972 86.502 101.444 84.151 101.921 83.639 105 86.502 101.921 89.364"/>
  </g>
  <path d="M78.626,117.7959,78.1709,119.583a3.05162,3.05162,0,0,1-.13184.47949.13956.13956,0,0,1-.12011.04785c-.06055,0-.14454-.01172-.14454-.13183,0-.03614.12012-.4917.26465-1.05518l.27539-1.12744a2.20831,2.20831,0,0,1-2.30273-2.1709c0-1.63135,1.76269-3.22607,3.66992-3.28613l.69531-2.77051c.04883-.2041.06055-.23975.18067-.23975a.126.126,0,0,1,.14355.11963l-.03613.168-.67188,2.72266a2.208,2.208,0,0,1,2.30274,2.1709C82.2959,116.1167,80.55762,117.73584,78.626,117.7959Zm-1.835-1.919a1.55738,1.55738,0,0,0,1.583,1.65479l1.23536-4.9292A3.24742,3.24742,0,0,0,76.791,115.877Zm3.13086-3.27441-1.23536,4.9292a3.25558,3.25558,0,0,0,2.83008-3.27393A1.55259,1.55259,0,0,0,79.92188,112.60254Z" transform="translate(0 -19.49902)"/>
  <g>
    <path d="M149.94287,42.44238a1.34293,1.34293,0,0,1-1.4751-1.439,7.63321,7.63321,0,0,1,.61133-2.30274,3.53538,3.53538,0,0,0,.28809-1.07959c0-.312-.13184-.34765-.26367-.34765-.69581,0-1.01954,1.13916-1.11573,1.51123-.04785.16748-.06006.19189-.21582.19189-.06006,0-.17968,0-.17968-.12011,0-.07178.41943-1.84717,1.53515-1.84717a.89848.89848,0,0,1,.91113.97168,1.90275,1.90275,0,0,1-.13183.59961,9.044,9.044,0,0,0-.70752,2.60254c0,.396.13183.9956.77978.9956,1.37891,0,1.94288-3.01025,1.94288-3.34619a1.35476,1.35476,0,0,0-.32374-.94775.46246.46246,0,0,1-.15625-.32373.61649.61649,0,0,1,.57569-.55176c.34814,0,.4917.37207.4917.7915C152.50928,38.11279,151.95752,42.44238,149.94287,42.44238Z" transform="translate(0 -19.49902)"/>
    <path d="M155.05908,46.30664h-2.59277c0-.168,0-.18164.07666-.25879l1.3418-1.49512a2.50486,2.50486,0,0,0,.73388-1.54492c0-.57275-.30078-1.13867-.93652-1.13867a1.00747,1.00747,0,0,0-.94336.7124.27109.27109,0,0,1,.09082-.00683.35335.35335,0,0,1,.37012.36328.36712.36712,0,1,1-.7334-.021,1.29119,1.29119,0,0,1,1.30664-1.26465,1.37272,1.37272,0,0,1,1.48144,1.35547c0,.69922-.41894,1.07666-1.50927,2.041l-.74073.71972h1.25782a2.27007,2.27007,0,0,0,.66406-.05615,2.30533,2.30533,0,0,0,.15381-.62158h.17431Z" transform="translate(0 -19.49902)"/>
    <path d="M158.74512,45.30908c-.168,0-.6836-.6958-.9834-1.49951a6.35737,6.35737,0,0,1-.32422-2.0625,11.73668,11.73668,0,0,1,1.69141-5.75684,7.68734,7.68734,0,0,1,2.55468-2.6748.10756.10756,0,0,1,.11963.12012c0,.03564-.01172.04785-.17968.21582-2.87842,2.44677-3.58594,6.896-3.58594,8.52734a4.95618,4.95618,0,0,0,.74365,2.84229.37415.37415,0,0,1,.0835.168A.11341.11341,0,0,1,158.74512,45.30908Z" transform="translate(0 -19.49902)"/>
    <path d="M162.96924,42.44238a1.01144,1.01144,0,0,1-1.01953-1.0791,1.84359,1.84359,0,0,1,.06006-.4082l.86328-3.4419h-.95948c-.19189,0-.2998,0-.2998-.144,0-.22754.13184-.22754.33594-.22754h1.01953l.46777-1.90722a.50069.50069,0,0,1,.46778-.43165.30056.30056,0,0,1,.32373.31153.72972.72972,0,0,1-.04786.252l-.44384,1.77539h.95947c.19189,0,.2998,0,.2998.14356,0,.228-.13183.228-.33593.228h-1.01953l-.88721,3.562a2.34753,2.34753,0,0,0-.084.61181c0,.1919,0,.4917.32373.4917.6836,0,1.16309-.89941,1.3794-1.4751.0957-.21631.0957-.228.23974-.228.084,0,.17969,0,.17969.12011C164.792,40.65527,164.18066,42.44238,162.96924,42.44238Z" transform="translate(0 -19.49902)"/>
    <path d="M167.397,42.63428a7.692,7.692,0,0,1-2.55468,2.6748.1077.1077,0,0,1-.12012-.12012c0-.03613.01221-.04785.18017-.21582,2.87842-2.44677,3.58594-6.89648,3.58594-8.52734a4.96,4.96,0,0,0-.74365-2.84228.37313.37313,0,0,1-.084-.168.11329.11329,0,0,1,.12012-.12012c.16748,0,.6836.6958.9834,1.499a6.3625,6.3625,0,0,1,.32373,2.063A11.74309,11.74309,0,0,1,167.397,42.63428Z" transform="translate(0 -19.49902)"/>
  </g>
</svg>
