<?xml version="1.0" encoding="utf-8"?>
<!-- Generator: Adobe Illustrator 23.0.3, SVG Export Plug-In . SVG Version: 6.00 Build 0)  -->
<svg version="1.1" id="Layer_1" xmlns="http://www.w3.org/2000/svg" xmlns:xlink="http://www.w3.org/1999/xlink" x="0px" y="0px"
	 viewBox="0 0 275 155.50098" style="enable-background:new 0 0 275 155.50098;" xml:space="preserve">
<style type="text/css">
	.st0{fill:none;stroke:#8FF4DD;stroke-width:2;stroke-miterlimit:10;}
	.st1{fill:#8FF4DD;}
	.st2{fill:none;stroke:#FD1D53;stroke-width:2;stroke-linecap:round;stroke-linejoin:round;}
	.st3{fill:none;stroke:#0000FF;stroke-width:2;stroke-linecap:round;stroke-linejoin:round;}
	.st4{fill:none;stroke:#8FF4DD;stroke-miterlimit:10;}
</style>
<title>SinusoidPhase</title>
<g>
	<polyline class="st0" points="50,9.457 50,80.501 50,155.50101 	"/>
	<polygon class="st1" points="45.547,17.733 46.864,18.211 50,9.594 53.136,18.211 54.452,17.733 50,5.501 	"/>
</g>
<g>
	<line class="st0" x1="0" y1="80.50098" x2="271.04401" y2="80.50098"/>
	<polygon class="st1" points="262.76801,84.954 262.29001,83.637 270.90701,80.501 262.29001,77.365 262.76801,76.049 275,80.501 	
		"/>
</g>
<path class="st2" d="M49.99561,80.50098c12.49951-25,24.999-50,49.99805-50c49.9995,0,49.9995,100,99.999,100
	c25.00092,0,37.50139-25,50.00183-50"/>
<g>
	<path class="st1" d="M27.4585,9.12698c-0.73786,0.07518-1.39696-0.46203-1.47214-1.19989
		c-0.00809-0.07946-0.00909-0.15948-0.00296-0.23911c0.08199-0.79484,0.28828-1.57188,0.61133-2.30273
		c0.15265-0.34232,0.24989-0.70673,0.28808-1.07959c0-0.312-0.13183-0.34766-0.26367-0.34766
		c-0.6958,0-1.01953,1.13916-1.11572,1.51123c-0.04785,0.16748-0.06006,0.1919-0.21582,0.1919c-0.06006,0-0.17969,0-0.17969-0.12012
		c0-0.07178,0.41943-1.84717,1.53516-1.84717c0.49615-0.00864,0.90536,0.38657,0.91399,0.88272
		c0.00052,0.02968-0.00044,0.05938-0.00286,0.08896c-0.0112,0.20569-0.05572,0.40819-0.13184,0.59961
		c-0.36459,0.82728-0.60308,1.70454-0.70752,2.60254c0,0.396,0.13184,0.9956,0.77979,0.9956
		c1.37891,0,1.94287-3.01025,1.94287-3.34619c0.01711-0.34567-0.09872-0.68478-0.32373-0.94775
		c-0.09361-0.08242-0.14996-0.19916-0.15625-0.32373c0.0311-0.29997,0.27466-0.53341,0.57568-0.55176
		c0.34815,0,0.4917,0.37207,0.4917,0.79151C30.0249,4.79737,29.47314,9.12698,27.4585,9.12698z"/>
	<path class="st1" d="M32.7627,11.99366c-0.168,0-0.6836-0.6958-0.9834-1.49952c-0.221-0.66493-0.33055-1.36183-0.32422-2.0625
		c0.05548-2.03308,0.63833-4.01685,1.6914-5.75683c0.62118-1.08624,1.49812-2.00443,2.5547-2.67483
		c0.05898-0.00712,0.11256,0.03491,0.11968,0.09389c0.00105,0.00871,0.00103,0.01752-0.00005,0.02623
		c0,0.03565-0.01172,0.04785-0.17969,0.21582c-2.87841,2.44678-3.58593,6.896-3.58593,8.52734
		c-0.04508,1.00081,0.2142,1.99179,0.74365,2.84229c0.04164,0.048,0.07037,0.10582,0.08349,0.168
		c0.00381,0.06251-0.04379,0.11628-0.1063,0.12008C32.77158,11.9939,32.76714,11.99391,32.7627,11.99366z"/>
	<path class="st1" d="M36.98682,9.12698c-0.55858,0.00572-1.01603-0.44247-1.02175-1.00105
		c-0.00027-0.02604,0.00047-0.05207,0.00222-0.07805c0.00469-0.13789,0.02483-0.27481,0.06005-0.40821l0.86329-3.44189h-0.95948
		c-0.19189,0-0.2998,0-0.2998-0.144c0-0.22753,0.13183-0.22753,0.33594-0.22753h1.01953l0.46777-1.90723
		c0.03264-0.23723,0.22869-0.41813,0.46777-0.43164c0.16549-0.01293,0.31012,0.11074,0.32305,0.27622
		c0.00092,0.01174,0.00114,0.02353,0.00068,0.0353c-0.00095,0.08617-0.01715,0.17148-0.04785,0.252l-0.44385,1.7754h0.95948
		c0.19189,0,0.2998,0,0.2998,0.14355c0,0.228-0.13183,0.228-0.33594,0.228H37.6582l-0.8872,3.562
		c-0.05482,0.19935-0.08307,0.40507-0.084,0.61182c0,0.19189,0,0.49169,0.32373,0.49169c0.6836,0,1.16309-0.89941,1.3794-1.47509
		c0.0957-0.21631,0.0957-0.228,0.23974-0.228c0.084,0,0.17969,0,0.17969,0.12012
		C38.80957,7.33985,38.19824,9.12698,36.98682,9.12698z"/>
	<path class="st1" d="M41.41455,9.31885c-0.62133,1.08612-1.49824,2.00427-2.55469,2.67481
		c-0.05903,0.00731-0.1128-0.03463-0.12011-0.09366c-0.00109-0.00879-0.00109-0.01767,0-0.02646
		c0-0.03613,0.0122-0.04785,0.18017-0.21582c2.87842-2.44678,3.58594-6.89649,3.58594-8.52735
		c0.04484-1.00079-0.21442-1.99169-0.74365-2.84228c-0.04187-0.04792-0.07078-0.10575-0.084-0.168
		c-0.00389-0.06245,0.04358-0.11623,0.10602-0.12012c0.0047-0.00029,0.0094-0.00029,0.0141,0c0.16748,0,0.68359,0.6958,0.9834,1.499
		c0.22079,0.66514,0.33018,1.3622,0.32373,2.063C43.04985,5.59498,42.46719,7.57869,41.41455,9.31885z"/>
</g>
<path class="st1" d="M272.55859,96.12698c-0.55875,0.00554-1.01617-0.44292-1.02173-1.00165
	c-0.00024-0.02585,0.00049-0.05168,0.0022-0.07745c0.00504-0.13789,0.02533-0.2748,0.06055-0.40822l0.86328-3.44188h-0.95901
	c-0.19238,0-0.30078,0-0.30078-0.14406c0-0.22752,0.13281-0.22752,0.33594-0.22752h1.01953l0.46875-1.90723
	c0.03217-0.23709,0.22791-0.41809,0.4668-0.43164c0.16556-0.01312,0.31039,0.11044,0.32352,0.27599
	c0.00092,0.01183,0.00116,0.02368,0.0007,0.03554c-0.00095,0.08617-0.01715,0.17148-0.04785,0.252l-0.44434,1.77539h0.95999
	c0.19238,0,0.2998,0,0.2998,0.14355c0,0.228-0.13184,0.228-0.33594,0.228h-1.01953l-0.88672,3.562
	c-0.05481,0.19934-0.08307,0.40506-0.08401,0.61182c0,0.19188,0,0.49168,0.32324,0.49168c0.68359,0,1.16309-0.8994,1.37988-1.47508
	c0.0957-0.21631,0.0957-0.228,0.23926-0.228c0.08401,0,0.17969,0,0.17969,0.12012
	C274.38184,94.33984,273.77051,96.12698,272.55859,96.12698z"/>
<g>
	<path class="st1" d="M31.09473,130.56152H28.792c-0.21582,0-0.312,0-0.312-0.15625c0.01795-0.12192,0.04605-0.24213,0.084-0.35938
		c0.04834-0.15625,0.07227-0.15625,0.312-0.15625h2.33886c0.1919,0,0.29981,0,0.29981,0.144
		c-0.02357,0.12991-0.0557,0.25812-0.09619,0.38379C31.38232,130.56152,31.32275,130.56152,31.09473,130.56152z"/>
	<path class="st1" d="M41.92725,124.98438c-0.44385,0.03613-0.86377,0.168-1.34327,0.97168l-4.11377,6.88428
		c-0.13232,0.21582-0.19189,0.22752-0.33593,0.22752c-0.1919,0-0.2041-0.05957-0.228-0.28758l-0.71973-7.38818
		c-0.02392-0.2998-0.04785-0.40771-0.64746-0.40771c-0.168,0-0.2876,0-0.2876-0.14355c0-0.228,0.15577-0.228,0.21583-0.228
		c0.3955,0,0.81542,0.03564,1.22314,0.03564c0.45557,0,0.93555-0.03564,1.37939-0.03564
		c0.07834-0.01334,0.15265,0.03937,0.16598,0.11771c0.00148,0.00868,0.00216,0.01749,0.00202,0.02629
		c0,0.22754-0.13232,0.22754-0.2998,0.22754c-0.12012,0-0.75586,0.01221-0.75586,0.37207l0.61182,6.28418l3.46582-5.79248
		c0.09266-0.14578,0.15401-0.30925,0.18017-0.48c0-0.2876-0.28808-0.37158-0.48-0.38379
		c-0.0957-0.01172-0.19189-0.01172-0.19189-0.14355c0-0.228,0.144-0.228,0.21582-0.228c0.34814,0,0.74365,0.03564,1.10351,0.03564
		c0.29981,0,0.62354-0.03564,0.91162-0.03564c0.07668,0.00128,0.14183,0.05643,0.15577,0.13184
		C42.15479,124.97266,42.023,124.97266,41.92725,124.98438z"/>
	<path class="st1" d="M45.65723,136.87698c-0.28746,0.00639-0.52568-0.22145-0.53207-0.50891
		c-0.00037-0.01674,0.00006-0.03349,0.0013-0.05019c0.00376-0.15552,0.04195-0.30827,0.11182-0.44727
		c0.1994-0.49576,0.33556-1.01465,0.40527-1.54443c0-0.10451,0-0.46094-0.32177-0.46094
		c-0.44049,0.05566-0.81695,0.34407-0.98535,0.75488c-0.0867,0.15633-0.14568,0.32648-0.17432,0.50293
		c-0.03516,0.15381-0.07715,0.30029-0.11182,0.4541l-0.27978,1.11816c-0.03751,0.10724-0.13788,0.17973-0.25147,0.18164
		c-0.10094,0.00696-0.18841-0.06923-0.19537-0.17017c-0.00026-0.00381-0.00041-0.00764-0.00043-0.01147
		c0.0022-0.0334,0.00928-0.0663,0.021-0.09766l0.4541-1.81689c0.0371-0.14886,0.05822-0.30125,0.063-0.45459
		c0-0.10451,0-0.46094-0.32129-0.46094c-0.44055,0.05551-0.81707,0.34398-0.98535,0.75488
		c-0.08716,0.15616-0.14632,0.32637-0.17481,0.50293c-0.03515,0.15381-0.07715,0.30029-0.11181,0.4541l-0.27979,1.11816
		c-0.03751,0.10724-0.13787,0.17973-0.25146,0.18164c-0.10094,0.00696-0.18841-0.06923-0.19537-0.17017
		c-0.00026-0.00381-0.00041-0.00764-0.00043-0.01147c0.00245-0.03337,0.00952-0.06624,0.021-0.09766l0.5244-2.09669
		c0.02988-0.11655,0.04626-0.23615,0.04882-0.35645c0-0.07666,0-0.2793-0.18164-0.2793c-0.21679,0-0.34961,0.34229-0.47509,0.83154
		c-0.03516,0.15381-0.042,0.16064-0.13282,0.16064c-0.03515,0-0.105,0-0.105-0.06982
		c0.05215-0.24187,0.12703-0.47827,0.22364-0.70605c0.0778-0.21341,0.27604-0.3593,0.50293-0.37012
		c0.31032,0.00157,0.5667,0.24261,0.5874,0.55225c0.224-0.33492,0.59625-0.5407,0.999-0.55225
		c0.36689-0.03754,0.69474,0.22948,0.73227,0.59636c0.00063,0.00612,0.00117,0.01225,0.00163,0.01839
		c0.22436-0.36763,0.61796-0.59845,1.04834-0.61475c0.36448-0.04044,0.69273,0.22224,0.73318,0.58672
		c0.00516,0.04646,0.00539,0.09334,0.0007,0.13985c-0.07202,0.53621-0.21538,1.06038-0.42627,1.55859
		c-0.06901,0.16702-0.11152,0.3438-0.126,0.52393c0,0.09814,0.00732,0.20313,0.15381,0.20313
		c0.40527,0,0.59424-0.68506,0.6499-0.87399c0.02783-0.10449,0.02783-0.11865,0.11865-0.11865c0.04932,0,0.105,0,0.105,0.06982
		C46.54492,135.83598,46.30713,136.87698,45.65723,136.87698z"/>
</g>
<g>
	<path class="st1" d="M89.94287,22.94336c-0.73786,0.07518-1.39696-0.46203-1.47214-1.19989
		c-0.00809-0.07946-0.00909-0.15948-0.00296-0.23911c0.08199-0.79485,0.28828-1.57189,0.61133-2.30274
		c0.15265-0.34232,0.2499-0.70673,0.28809-1.07959c0-0.312-0.13184-0.34765-0.26367-0.34765
		c-0.69581,0-1.01954,1.13916-1.11573,1.51123c-0.04785,0.16748-0.06006,0.19189-0.21582,0.19189
		c-0.06006,0-0.17968,0-0.17968-0.12011c0-0.07178,0.41943-1.84717,1.53515-1.84717
		c0.49614-0.00864,0.90535,0.38655,0.91399,0.88269c0.00052,0.02969-0.00043,0.05939-0.00286,0.08899
		c-0.01119,0.20569-0.05572,0.40819-0.13183,0.59961c-0.36459,0.82727-0.60308,1.70454-0.70752,2.60254
		c0,0.396,0.13183,0.9956,0.77978,0.9956c1.37891,0,1.94288-3.01025,1.94288-3.34619
		c0.01711-0.34567-0.09873-0.68478-0.32374-0.94775c-0.09361-0.08242-0.14996-0.19917-0.15625-0.32373
		c0.03111-0.29998,0.27467-0.53341,0.57569-0.55176c0.34814,0,0.4917,0.37207,0.4917,0.7915
		C92.50928,18.61377,91.95752,22.94336,89.94287,22.94336z"/>
	<path class="st1" d="M93.9126,26.78662c-0.2793,0-0.88721,0-1.13184,0.021v-0.2168h0.22363
		c0.62891,0,0.64991-0.08349,0.64991-0.33545v-3.62011c-0.28753,0.12899-0.60052,0.19126-0.91553,0.18213v-0.2168
		c0.46709,0.0294,0.92611-0.132,1.272-0.44727c0.16065,0,0.16065,0.01368,0.16065,0.18164v3.92041
		c0,0.25879,0.021,0.33545,0.6499,0.33545h0.22363v0.2168C94.80029,26.78662,94.19238,26.78662,93.9126,26.78662z"/>
	<path class="st1" d="M98.74512,25.81006c-0.168,0-0.6836-0.6958-0.9834-1.49951c-0.221-0.66494-0.33054-1.36183-0.32422-2.0625
		c0.05548-2.03308,0.63833-4.01686,1.69141-5.75684c0.62118-1.08623,1.49812-2.00441,2.55468-2.6748
		c0.05898-0.00712,0.11256,0.03491,0.11968,0.09388c0.00105,0.00872,0.00104,0.01753-0.00005,0.02624
		c0,0.03564-0.01172,0.04785-0.17968,0.21582c-2.87842,2.44677-3.58594,6.896-3.58594,8.52734
		c-0.04508,1.00081,0.2142,1.99179,0.74365,2.84229c0.04165,0.048,0.07039,0.10582,0.0835,0.168
		c0.00378,0.06252-0.04382,0.11627-0.10635,0.12006C98.75398,25.8103,98.74954,25.81031,98.74512,25.81006z"/>
	<path class="st1" d="M102.96924,22.94336c-0.55857,0.00572-1.01602-0.44245-1.02174-1.00103
		c-0.00027-0.02604,0.00047-0.05209,0.00221-0.07808c0.00468-0.13789,0.02483-0.27481,0.06006-0.4082l0.86328-3.4419h-0.95948
		c-0.19189,0-0.2998,0-0.2998-0.144c0-0.22754,0.13184-0.22754,0.33594-0.22754h1.01953l0.46777-1.90722
		c0.03264-0.23723,0.22869-0.41814,0.46778-0.43165c0.16549-0.01293,0.31013,0.11075,0.32305,0.27624
		c0.00092,0.01174,0.00114,0.02353,0.00068,0.03529c-0.00095,0.08617-0.01715,0.17148-0.04786,0.252l-0.44384,1.77539h0.95947
		c0.19189,0,0.2998,0,0.2998,0.14356c0,0.228-0.13183,0.228-0.33593,0.228h-1.01953l-0.88721,3.562
		c-0.05482,0.19935-0.08306,0.40506-0.084,0.61181c0,0.1919,0,0.4917,0.32373,0.4917c0.6836,0,1.16309-0.89941,1.3794-1.4751
		c0.0957-0.21631,0.0957-0.228,0.23974-0.228c0.084,0,0.17969,0,0.17969,0.12011
		C104.792,21.15625,104.18066,22.94336,102.96924,22.94336z"/>
	<path class="st1" d="M107.397,23.13526c-0.62132,1.08612-1.49824,2.00426-2.55468,2.6748
		c-0.05903,0.00731-0.11281-0.03462-0.12012-0.09365c-0.00109-0.00879-0.00109-0.01768,0-0.02647
		c0-0.03613,0.01221-0.04785,0.18017-0.21582c2.87842-2.44677,3.58594-6.89648,3.58594-8.52734
		c0.04484-1.00079-0.21442-1.99169-0.74365-2.84228c-0.04187-0.04792-0.07079-0.10575-0.084-0.168
		c-0.00389-0.06245,0.04357-0.11623,0.10602-0.12012c0.0047-0.00029,0.00941-0.00029,0.0141,0c0.16748,0,0.6836,0.6958,0.9834,1.499
		c0.22079,0.66514,0.33018,1.3622,0.32373,2.063C109.0323,19.41138,108.44964,21.3951,107.397,23.13526z"/>
</g>
<path class="st3" d="M106.99561,80.50098c12.49951-25,24.999-50,49.99805-50c49.99951,0,49.99951,100,99.99901,100
	c1.51932,0.00169,3.03717-0.09413,4.54422-0.28687"/>
<g>
	<line class="st4" x1="53.75915" y1="86.50098" x2="104.24085" y2="86.50098"/>
	<polygon class="st1" points="56.079,89.364 56.556,88.851 54.028,86.502 56.556,84.151 56.079,83.639 53,86.502 	"/>
	<polygon class="st1" points="101.921,89.364 101.444,88.851 103.972,86.502 101.444,84.151 101.921,83.639 105,86.502 	"/>
</g>
<path class="st1" d="M78.626,98.29688l-0.4551,1.78711c-0.03083,0.16315-0.07492,0.32352-0.13184,0.47949
	c-0.02979,0.03465-0.07465,0.05252-0.12011,0.04785c-0.06055,0-0.14454-0.01172-0.14454-0.13184
	c0-0.03613,0.12012-0.4917,0.26465-1.05518l0.27539-1.12744c-1.21849,0.05229-2.24868-0.89308-2.30098-2.11159
	c-0.00085-0.01976-0.00143-0.03954-0.00175-0.05931c0-1.63135,1.76269-3.22607,3.66992-3.28613l0.69531-2.77051
	c0.04883-0.2041,0.06055-0.23976,0.18067-0.23976c0.0689-0.00975,0.13266,0.03821,0.14241,0.10712
	c0.00059,0.00415,0.00097,0.00833,0.00114,0.01251l-0.03613,0.168l-0.67188,2.72266c1.21832-0.05247,2.2485,0.89262,2.30097,2.11093
	c0.00086,0.01999,0.00145,0.03998,0.00177,0.05997C82.2959,96.61768,80.55762,98.23682,78.626,98.29688z M76.791,96.37788
	c-0.05395,0.85841,0.59821,1.59804,1.45663,1.65199c0.04207,0.00264,0.08422,0.00357,0.12637,0.00279l1.23536-4.9292
	c-1.63457,0.21764-2.84653,1.62576-2.81836,3.27451V96.37788z M79.92186,93.10347l-1.23536,4.9292
	c1.63714-0.21565,2.85353-1.62282,2.83008-3.27393c0.05705-0.85558-0.59028-1.5954-1.44585-1.65245
	c-0.04954-0.00331-0.09921-0.00423-0.14884-0.00278L79.92186,93.10347z"/>
<g>
	<path class="st1" d="M149.94287,22.94336c-0.73785,0.07518-1.39696-0.46203-1.47214-1.19989
		c-0.00809-0.07946-0.00908-0.15948-0.00296-0.23911c0.08199-0.79485,0.28828-1.57189,0.61133-2.30274
		c0.15265-0.34232,0.24989-0.70673,0.28809-1.07959c0-0.312-0.13184-0.34765-0.26367-0.34765
		c-0.69582,0-1.01955,1.13916-1.11572,1.51123c-0.04785,0.16748-0.06006,0.19189-0.21582,0.19189
		c-0.06006,0-0.17969,0-0.17969-0.12011c0-0.07178,0.41943-1.84717,1.53516-1.84717c0.49614-0.00864,0.90535,0.38655,0.914,0.88269
		c0.0005,0.02969-0.00044,0.05939-0.00287,0.08899c-0.0112,0.20569-0.05573,0.40819-0.13184,0.59961
		c-0.36459,0.82727-0.60309,1.70454-0.70752,2.60254c0,0.396,0.13184,0.9956,0.77979,0.9956
		c1.37891,0,1.94289-3.01025,1.94289-3.34619c0.01711-0.34567-0.09874-0.68478-0.32375-0.94775
		c-0.09361-0.08242-0.14995-0.19917-0.15625-0.32373c0.03111-0.29997,0.27466-0.53341,0.57568-0.55176
		c0.34814,0,0.4917,0.37207,0.4917,0.7915C152.50928,18.61377,151.95752,22.94336,149.94287,22.94336z"/>
	<path class="st1" d="M155.05908,26.80762h-2.59277c0-0.168,0-0.18164,0.07666-0.25879l1.3418-1.49512
		c0.41832-0.41292,0.6781-0.95979,0.73389-1.54492c0-0.57275-0.30078-1.13867-0.93652-1.13867
		c-0.43536,0.00864-0.8159,0.29602-0.94336,0.7124c0.02968-0.00738,0.06038-0.00969,0.09082-0.00683
		c0.19493-0.00934,0.36052,0.1411,0.36986,0.33603c0.00044,0.00908,0.00052,0.01817,0.00026,0.02726
		c0.00198,0.20274-0.16077,0.36871-0.36353,0.37069c-0.20274,0.00198-0.3687-0.16077-0.37068-0.36352
		c-0.00009-0.0094,0.00018-0.01879,0.00081-0.02817c0.01453-0.70877,0.59778-1.27328,1.30664-1.26465
		c0.75575-0.06008,1.41711,0.50387,1.47719,1.25962c0.00253,0.03189,0.00395,0.06386,0.00426,0.09585
		c0,0.69922-0.41895,1.07666-1.50928,2.041l-0.74072,0.71972h1.25781c0.22292,0.01405,0.44667-0.00486,0.66406-0.05615
		c0.07994-0.19903,0.1317-0.40824,0.15381-0.62158h0.17432L155.05908,26.80762z"/>
	<path class="st1" d="M158.74512,25.81006c-0.168,0-0.68359-0.6958-0.9834-1.49951c-0.22099-0.66494-0.33055-1.36183-0.32422-2.0625
		c0.05548-2.03308,0.63832-4.01686,1.69141-5.75684c0.62117-1.08623,1.49812-2.00441,2.55469-2.6748
		c0.05898-0.00712,0.11256,0.03491,0.11969,0.09388c0.00105,0.00872,0.00102,0.01753-0.00006,0.02624
		c0,0.03564-0.01172,0.04785-0.17969,0.21582c-2.87842,2.44677-3.58594,6.896-3.58594,8.52734
		c-0.04507,1.00081,0.2142,1.99179,0.74365,2.84229c0.04164,0.048,0.07039,0.10582,0.0835,0.168
		c0.00378,0.06252-0.04382,0.11627-0.10635,0.12006C158.75398,25.8103,158.74954,25.81031,158.74512,25.81006z"/>
	<path class="st1" d="M162.96924,22.94336c-0.55858,0.00572-1.01602-0.44245-1.02174-1.00103
		c-0.00027-0.02604,0.00047-0.05209,0.00221-0.07808c0.00468-0.13789,0.02483-0.27481,0.06006-0.4082l0.86328-3.4419h-0.95947
		c-0.19189,0-0.2998,0-0.2998-0.144c0-0.22754,0.13184-0.22754,0.33594-0.22754h1.01953l0.46777-1.90722
		c0.03264-0.23723,0.22868-0.41814,0.46777-0.43165c0.1655-0.01293,0.31012,0.11075,0.32306,0.27624
		c0.00092,0.01174,0.00114,0.02353,0.00067,0.03529c-0.00095,0.08617-0.01715,0.17149-0.04787,0.252l-0.44383,1.77539h0.95947
		c0.19189,0,0.2998,0,0.2998,0.14356c0,0.228-0.13184,0.228-0.33594,0.228h-1.01953l-0.88721,3.562
		c-0.05482,0.19935-0.08307,0.40506-0.084,0.61181c0,0.1919,0,0.4917,0.32373,0.4917c0.68359,0,1.16309-0.89941,1.37939-1.4751
		c0.0957-0.21631,0.0957-0.228,0.23975-0.228c0.084,0,0.17969,0,0.17969,0.12011
		C164.79201,21.15625,164.18066,22.94336,162.96924,22.94336z"/>
	<path class="st1" d="M167.397,23.13526c-0.62132,1.08612-1.49825,2.00426-2.55469,2.6748
		c-0.05904,0.00731-0.11281-0.03462-0.12012-0.09365c-0.00108-0.00879-0.00108-0.01768,0-0.02647
		c0-0.03613,0.01221-0.04785,0.18018-0.21582c2.87842-2.44677,3.58594-6.89648,3.58594-8.52734
		c0.04483-1.00079-0.21442-1.99169-0.74365-2.84228c-0.04187-0.04792-0.07079-0.10575-0.084-0.168
		c-0.00389-0.06245,0.04358-0.11623,0.10602-0.12012c0.0047-0.00029,0.0094-0.00029,0.0141,0c0.16748,0,0.68359,0.6958,0.9834,1.499
		c0.22079,0.66514,0.33017,1.3622,0.32373,2.063C169.03229,19.41138,168.44965,21.3951,167.397,23.13526z"/>
</g>
<g>
	<path class="st1" d="M39.04107,27.18122c-0.44385,0.03613-0.86377,0.168-1.34327,0.97168l-4.11377,6.88428
		c-0.13232,0.21582-0.19189,0.22752-0.33593,0.22752c-0.1919,0-0.2041-0.05957-0.228-0.28758l-0.71973-7.38818
		c-0.02392-0.2998-0.04785-0.40771-0.64746-0.40771c-0.168,0-0.2876,0-0.2876-0.14355c0-0.228,0.15577-0.228,0.21583-0.228
		c0.3955,0,0.81542,0.03564,1.22314,0.03564c0.45557,0,0.93555-0.03564,1.37939-0.03564
		c0.07834-0.01334,0.15265,0.03937,0.16598,0.11771c0.00148,0.00868,0.00216,0.01749,0.00202,0.02629
		c0,0.22754-0.13232,0.22754-0.2998,0.22754c-0.12012,0-0.75586,0.01221-0.75586,0.37207l0.61182,6.28418l3.46582-5.79248
		c0.09266-0.14578,0.15401-0.30925,0.18017-0.48c0-0.2876-0.28808-0.37158-0.48-0.38379
		c-0.0957-0.01172-0.19189-0.01172-0.19189-0.14355c0-0.228,0.144-0.228,0.21582-0.228c0.34814,0,0.74365,0.03564,1.10351,0.03564
		c0.29981,0,0.62354-0.03564,0.91162-0.03564c0.07668,0.00128,0.14183,0.05643,0.15577,0.13184
		C39.26861,27.16949,39.13682,27.16949,39.04107,27.18122z"/>
	<path class="st1" d="M42.77105,39.07381c-0.28746,0.00639-0.52568-0.22145-0.53207-0.50891
		c-0.00037-0.01674,0.00006-0.03349,0.0013-0.05019c0.00376-0.15552,0.04195-0.30827,0.11182-0.44727
		c0.1994-0.49576,0.33556-1.01465,0.40527-1.54443c0-0.10451,0-0.46094-0.32177-0.46094
		c-0.44049,0.05566-0.81695,0.34407-0.98535,0.75488c-0.0867,0.15633-0.14568,0.32648-0.17432,0.50293
		c-0.03516,0.15381-0.07715,0.30029-0.11182,0.4541l-0.27978,1.11816c-0.03751,0.10724-0.13788,0.17973-0.25147,0.18164
		c-0.10094,0.00696-0.18841-0.06923-0.19537-0.17017c-0.00026-0.00381-0.00041-0.00764-0.00043-0.01147
		c0.0022-0.0334,0.00928-0.0663,0.021-0.09766l0.4541-1.81689c0.0371-0.14886,0.05822-0.30125,0.063-0.45459
		c0-0.10451,0-0.46094-0.32129-0.46094c-0.44055,0.05551-0.81707,0.34398-0.98535,0.75488
		c-0.08716,0.15616-0.14632,0.32637-0.17481,0.50293c-0.03515,0.15381-0.07715,0.30029-0.11181,0.4541l-0.27979,1.11816
		c-0.03751,0.10724-0.13787,0.17973-0.25146,0.18164c-0.10094,0.00696-0.18841-0.06923-0.19537-0.17017
		c-0.00026-0.00381-0.00041-0.00764-0.00043-0.01147c0.00245-0.03337,0.00952-0.06624,0.021-0.09766l0.5244-2.09669
		c0.02988-0.11655,0.04626-0.23615,0.04882-0.35645c0-0.07666,0-0.2793-0.18164-0.2793c-0.21679,0-0.34961,0.34229-0.47509,0.83154
		c-0.03516,0.15381-0.042,0.16064-0.13282,0.16064c-0.03515,0-0.105,0-0.105-0.06982
		c0.05215-0.24187,0.12703-0.47827,0.22364-0.70605c0.0778-0.21341,0.27604-0.3593,0.50293-0.37012
		c0.31032,0.00157,0.5667,0.24261,0.5874,0.55225c0.224-0.33492,0.59625-0.5407,0.999-0.55225
		c0.36689-0.03754,0.69474,0.22948,0.73227,0.59636c0.00063,0.00612,0.00117,0.01225,0.00163,0.01839
		c0.22436-0.36763,0.61796-0.59845,1.04834-0.61475c0.36448-0.04044,0.69273,0.22224,0.73318,0.58672
		c0.00516,0.04646,0.00539,0.09334,0.0007,0.13985c-0.07202,0.53621-0.21538,1.06038-0.42627,1.55859
		c-0.06901,0.16702-0.11152,0.3438-0.126,0.52393c0,0.09814,0.00732,0.20313,0.15381,0.20313
		c0.40527,0,0.59424-0.68506,0.6499-0.87399c0.02783-0.10449,0.02783-0.11865,0.11865-0.11865c0.04932,0,0.105,0,0.105,0.06982
		C43.65874,38.03281,43.42095,39.07381,42.77105,39.07381z"/>
</g>
</svg>
