<?xml version="1.0" encoding="utf-8"?>
<!-- Generator: Adobe Illustrator 23.0.3, SVG Export Plug-In . SVG Version: 6.00 Build 0)  -->
<svg version="1.1" id="Layer_1" xmlns="http://www.w3.org/2000/svg" xmlns:xlink="http://www.w3.org/1999/xlink" x="0px" y="0px"
	 viewBox="0 0 249.89209 155.50098" style="enable-background:new 0 0 249.89209 155.50098;" xml:space="preserve">
<style type="text/css">
	.st0{fill:none;stroke:#8FF4DD;stroke-width:2;stroke-miterlimit:10;}
	.st1{fill:#8FF4DD;}
	.st2{fill:none;stroke:#FD1D53;stroke-width:2;stroke-linecap:round;stroke-linejoin:round;}
</style>
<title>Sinusoid</title>
<g>
	<polyline class="st0" points="24.892,9.457 24.892,80.501 24.892,155.50101 	"/>
	<polygon class="st1" points="20.439,17.733 21.756,18.211 24.892,9.594 28.028,18.211 29.344,17.733 24.892,5.501 	"/>
</g>
<g>
	<line class="st0" x1="24.89209" y1="80.50098" x2="245.9361" y2="80.50098"/>
	<polygon class="st1" points="237.66,84.954 237.18201,83.637 245.799,80.501 237.18201,77.365 237.66,76.049 249.892,80.501 	"/>
</g>
<path class="st2" d="M24.8877,80.50098c12.49951-25,24.999-50,49.99805-50c49.9995,0,49.9995,100,99.999,100
	c25.00092,0,37.50139-25,50.00183-50"/>
<path class="st1" d="M247.45068,96.12698c-0.55875,0.00554-1.01617-0.44292-1.02173-1.00165
	c-0.00024-0.02585,0.00049-0.05168,0.0022-0.07745c0.00504-0.13789,0.02533-0.2748,0.06055-0.40822l0.86328-3.44188h-0.95901
	c-0.19238,0-0.30078,0-0.30078-0.14406c0-0.22752,0.13281-0.22752,0.33594-0.22752h1.01953l0.46875-1.90723
	c0.03217-0.23709,0.22791-0.41809,0.4668-0.43164c0.16556-0.01312,0.31039,0.11044,0.32352,0.27599
	c0.00092,0.01183,0.00116,0.02368,0.0007,0.03554c-0.00095,0.08617-0.01715,0.17148-0.04785,0.252l-0.44434,1.77539h0.95999
	c0.19238,0,0.2998,0,0.2998,0.14355c0,0.228-0.13184,0.228-0.33594,0.228h-1.01953l-0.88672,3.562
	c-0.05481,0.19934-0.08307,0.40506-0.08401,0.61182c0,0.19188,0,0.49168,0.32324,0.49168c0.68359,0,1.16309-0.8994,1.37988-1.47508
	c0.0957-0.21631,0.0957-0.228,0.23926-0.228c0.08401,0,0.17969,0,0.17969,0.12012
	C249.27393,94.33984,248.6626,96.12698,247.45068,96.12698z"/>
<path class="st1" d="M228.47609,69.38869c-0.168-1.93068-0.34766-2.32619-2.15918-2.32619
	c-0.22813-0.00568-0.45639,0.00215-0.68359,0.02344c-0.21582,0.04785-0.21582,0.21582-0.21582,0.45607v6.32031
	c0,0.4082,0,0.57617,1.25977,0.57617h0.47949v0.37109c-0.49219-0.03613-1.72754-0.03613-2.27832-0.03613
	c-0.55176,0-1.77539,0-2.26758,0.03613v-0.37111h0.48047c1.25879,0,1.25879-0.168,1.25879-0.57617v-6.32033
	c0-0.27637,0-0.4082-0.252-0.45605c-0.21512-0.02141-0.43137-0.02924-0.64746-0.02344c-1.81055,0-1.99121,0.39551-2.15918,2.32617
	h-0.2998l0.22852-2.69824h7.32813l0.22754,2.69824L228.47609,69.38869z"/>
<g>
	<path class="st1" d="M110.47609,88.38869c-0.168-1.93068-0.34766-2.32619-2.15918-2.32619
		c-0.22813-0.00568-0.45639,0.00215-0.68359,0.02344c-0.21582,0.04785-0.21582,0.21582-0.21582,0.45607v6.32031
		c0,0.4082,0,0.57617,1.25977,0.57617h0.47949v0.37109c-0.49219-0.03613-1.72754-0.03613-2.27832-0.03613
		c-0.55176,0-1.77539,0-2.26758,0.03613v-0.37109h0.48047c1.25879,0,1.25879-0.168,1.25879-0.57617v-6.32034
		c0-0.27637,0-0.4082-0.252-0.45605c-0.21512-0.02141-0.43137-0.02924-0.64746-0.02344c-1.81055,0-1.99121,0.39551-2.15918,2.32617
		h-0.2998l0.22852-2.69824h7.32813l0.22754,2.69824L110.47609,88.38869z"/>
	<path class="st1" d="M116.4771,85.27051l-4.08984,11.29785c-0.03613,0.12012-0.084,0.24025-0.252,0.24025
		c-0.13223-0.00069-0.23912-0.108-0.23924-0.24025c0.00867-0.07457,0.02876-0.14735,0.05957-0.21582l4.08984-11.29785
		c0.03613-0.12012,0.084-0.24022,0.25195-0.24022c0.13223,0.00067,0.23912,0.10799,0.23926,0.24022
		C116.52797,85.12926,116.50789,85.20206,116.4771,85.27051z"/>
	<path class="st1" d="M122.27295,93.80957h-4.44922c0-0.28807,0-0.31152,0.13184-0.44336l2.30273-2.56639
		c0.71753-0.70883,1.1631-1.64731,1.25879-2.65137c0-0.9834-0.51563-1.9541-1.60645-1.9541
		c-0.74731,0.01454-1.4006,0.50786-1.61914,1.22266c0.05072-0.01263,0.10323-0.0166,0.15527-0.01172
		c0.33476-0.01611,0.6192,0.2422,0.6353,0.57697c0.00076,0.01567,0.0009,0.03136,0.00044,0.04703
		c0.00311,0.34799-0.27646,0.6326-0.62444,0.63571c-0.34799,0.00311-0.6326-0.27646-0.63571-0.62444
		c-0.00014-0.01582,0.00031-0.03163,0.00136-0.04741c0.0247-1.21646,1.02557-2.18549,2.24219-2.1709
		c1.29683-0.10356,2.43207,0.86377,2.53563,2.16058c0.00439,0.0551,0.00685,0.11032,0.00737,0.16559
		c0,1.20021-0.71973,1.84766-2.59082,3.50293l-1.27148,1.23535h2.15918c0.38257,0.02422,0.76662-0.00836,1.13965-0.09668
		c0.13762-0.34163,0.22638-0.70096,0.26367-1.06738h0.2998L122.27295,93.80957z"/>
</g>
<g>
	<path class="st1" d="M3.9292,14.30273c-0.61133,0-1.0791-0.396-1.0791-1.00781c0-0.69531,0.47949-0.71924,0.56348-0.71924
		c0.23975,0,0.37207,0.16797,0.37207,0.34766c0,0-0.01221,0.51563-0.58789,0.53955c0.08398,0.44385,0.41992,0.59961,0.74365,0.59961
		c0.41992,0,0.85156-0.25146,1.23535-0.7915c0.41992-0.61133,0.56348-1.22314,0.68359-1.75098
		c-0.19189,0.19189-0.55176,0.45605-1.06738,0.45605c-0.58789,0-1.29541-0.28809-1.29541-1.36768
		c0-0.46729,0.15576-1.0791,0.53955-2.14648c0.25195-0.6958,0.37207-1.00732,0.37207-1.30762
		c0-0.2876-0.13184-0.34766-0.27588-0.34766c-0.6958,0-1.00732,1.13965-1.10352,1.49902
		c-0.04785,0.16797-0.06006,0.2041-0.20361,0.2041c-0.06006,0-0.16797,0-0.16797-0.10791c0-0.07178,0.40771-1.83496,1.49902-1.83496
		c0.58789,0,0.87549,0.45557,0.87549,0.93555c0,0.23975-0.06006,0.39551-0.15576,0.67139
		c-0.27588,0.76758-0.6958,1.90723-0.6958,2.62695c0,0.39551,0.10791,0.93506,0.64795,0.93506
		c0.67139,0,1.15137-0.67139,1.24707-1.04346L6.95166,7.1543C6.99951,6.98682,7.0835,6.68701,7.41943,6.68701
		c0.15576,0,0.2998,0.10791,0.2998,0.2876c0,0.04785,0,0.07178-0.04785,0.23975l-1.16357,4.67773
		C6.22021,13.03125,5.17676,14.30273,3.9292,14.30273z"/>
	<path class="st1" d="M11.15234,14.86621c-0.13184,0-1.11572-0.7793-1.82324-2.21875c-0.62354-1.2832-0.7915-2.71045-0.7915-3.77783
		c0-1.4751,0.27588-2.7583,0.8877-3.96973c0.5874-1.17529,1.5708-2.03906,1.72705-2.03906
		c0.04785,0,0.10791,0.02393,0.10791,0.09619c0,0.03564,0,0.05957-0.12012,0.16797C9.74902,4.54004,9.18555,6.54297,9.18555,8.86963
		c0,2.44678,0.67139,4.42529,1.87061,5.63672c0.2041,0.2041,0.2041,0.22803,0.2041,0.26416
		C11.26025,14.84229,11.2002,14.86621,11.15234,14.86621z"/>
	<path class="st1" d="M14.33301,11.97607c-0.65918,0-0.9834-0.50391-0.9834-1.05566c0-0.04785,0-0.19189,0.06006-0.43164
		l0.86377-3.4541h-0.97168c-0.19189,0-0.2876,0-0.2876-0.12012c0-0.22754,0.10791-0.22754,0.32373-0.22754h1.01953l0.46777-1.8833
		c0.04785-0.17969,0.15576-0.44385,0.45557-0.44385c0.22803,0,0.31201,0.18018,0.31201,0.28809c0,0-0.01221,0.13184-0.02441,0.15576
		l-0.47949,1.8833h0.94727c0.2041,0,0.28809,0,0.28809,0.13184c0,0.21582-0.12012,0.21582-0.32373,0.21582h-0.99561
		l-0.89941,3.58594c-0.04785,0.18018-0.09619,0.45557-0.09619,0.63574c0,0.39551,0.16797,0.47949,0.34814,0.47949
		c0.7793,0,1.24707-1.17529,1.39111-1.54688c0.06006-0.13184,0.07178-0.15576,0.20361-0.15576c0.04834,0,0.15625,0,0.15625,0.10791
		C16.1084,10.20068,15.50879,11.97607,14.33301,11.97607z"/>
	<path class="st1" d="M19.52881,12.82764c-0.58789,1.17529-1.57129,2.03857-1.72705,2.03857
		c-0.04785,0-0.10791-0.02393-0.10791-0.0957c0-0.03613,0-0.06006,0.12012-0.16797c1.39111-1.41553,1.95459-3.41797,1.95459-5.74512
		c0-2.44629-0.67139-4.42529-1.87109-5.63672c-0.20361-0.2041-0.20361-0.22803-0.20361-0.26367
		c0-0.07227,0.06006-0.09619,0.10791-0.09619c0.13184,0,1.11523,0.77979,1.82324,2.21875
		c0.67139,1.39111,0.7915,2.87842,0.7915,3.79004C20.4165,10.30859,20.14063,11.604,19.52881,12.82764z"/>
</g>
<g>
	<path class="st1" d="M17.15771,35.6499c-0.33594,0-1.2832,0-1.55908,0.02393v-0.34766c0.2998,0,0.91113,0,0.91113-0.35986
		c0-0.03613,0-0.06006-0.06006-0.2041l-0.65918-1.88281h-3.02246l-0.55176,1.59521
		c-0.06006,0.15576-0.06006,0.17969-0.06006,0.25195c0,0.33545,0.2998,0.5874,0.80371,0.59961v0.34766
		c-0.31201-0.02393-0.8877-0.02393-1.22363-0.02393l-1.15137,0.02393v-0.34766c0.76758-0.01221,1.10352-0.32373,1.27148-0.81592
		l2.50684-7.17188c0.05957-0.19189,0.08398-0.22803,0.25146-0.22803c0.16797,0,0.19189,0.07227,0.24023,0.21631l2.61426,7.50781
		c0.16797,0.4917,0.38379,0.4917,1.16357,0.4917v0.34766C18.35693,35.6499,17.49316,35.6499,17.15771,35.6499z M14.2793,28.5376
		l-1.3916,3.99414h2.78271L14.2793,28.5376z"/>
</g>
<g>
	<path class="st1" d="M8.38916,129.37402v-0.64844h3.11816v0.64844H8.38916z"/>
	<path class="st1" d="M19.11377,131.61621c-0.33594,0-1.2832,0-1.55908,0.02441v-0.34766c0.2998,0,0.91113,0,0.91113-0.36035
		c0-0.03613,0-0.05957-0.06006-0.2041l-0.65918-1.88281h-3.02246l-0.55176,1.5957c-0.06006,0.15527-0.06006,0.17969-0.06006,0.25195
		c0,0.33496,0.2998,0.58691,0.80371,0.59961v0.34766c-0.31201-0.02441-0.8877-0.02441-1.22363-0.02441l-1.15137,0.02441v-0.34766
		c0.76758-0.0127,1.10352-0.32422,1.27148-0.81641l2.50684-7.17188c0.05957-0.19141,0.08398-0.22754,0.25146-0.22754
		c0.16797,0,0.19189,0.07227,0.24023,0.21582l2.61426,7.50781c0.16797,0.49219,0.38379,0.49219,1.16357,0.49219v0.34766
		C20.31299,131.61621,19.44922,131.61621,19.11377,131.61621z M16.23535,124.50391l-1.3916,3.99414h2.78271L16.23535,124.50391z"/>
</g>
</svg>
