<?xml version="1.0" encoding="utf-8"?>
<!-- Generator: Adobe Illustrator 23.0.3, SVG Export Plug-In . SVG Version: 6.00 Build 0)  -->
<svg version="1.1" id="Layer_1" xmlns="http://www.w3.org/2000/svg" xmlns:xlink="http://www.w3.org/1999/xlink" x="0px" y="0px"
	 viewBox="0 0 275 155.50098" style="enable-background:new 0 0 275 155.50098;" xml:space="preserve">
<style type="text/css">
	.st0{fill:none;stroke:#8FF4DD;stroke-width:2;stroke-miterlimit:10;}
	.st1{fill:#8FF4DD;}
	.st2{fill:none;stroke:#FD1D53;stroke-width:2;stroke-linecap:round;stroke-linejoin:round;}
	.st3{fill:none;stroke:#0000FF;stroke-width:2;stroke-linecap:round;stroke-linejoin:round;}
	.st4{fill:none;stroke:#8FF4DD;stroke-miterlimit:10;}
</style>
<title>SinusoidPhase</title>
<g>
	<polyline class="st0" points="50,9.457 50,80.501 50,155.50101 	"/>
	<polygon class="st1" points="45.547,17.733 46.864,18.211 50,9.594 53.136,18.211 54.452,17.733 50,5.501 	"/>
</g>
<g>
	<line class="st0" x1="0" y1="80.50098" x2="271.04401" y2="80.50098"/>
	<polygon class="st1" points="262.76801,84.954 262.29001,83.637 270.90701,80.501 262.29001,77.365 262.76801,76.049 275,80.501 	
		"/>
</g>
<path class="st2" d="M49.99561,80.50098c12.49951-25,24.999-50,49.99805-50c49.9995,0,49.9995,100,99.999,100
	c25.00092,0,37.50139-25,50.00183-50"/>
<path class="st1" d="M272.55859,96.12698c-0.55875,0.00554-1.01617-0.44292-1.02173-1.00165
	c-0.00024-0.02585,0.00049-0.05168,0.0022-0.07745c0.00504-0.13789,0.02533-0.2748,0.06055-0.40822l0.86328-3.44188h-0.95901
	c-0.19238,0-0.30078,0-0.30078-0.14406c0-0.22752,0.13281-0.22752,0.33594-0.22752h1.01953l0.46875-1.90723
	c0.03217-0.23709,0.22791-0.41809,0.4668-0.43164c0.16556-0.01312,0.31039,0.11044,0.32352,0.27599
	c0.00092,0.01183,0.00116,0.02368,0.0007,0.03554c-0.00095,0.08617-0.01715,0.17148-0.04785,0.252l-0.44434,1.77539h0.95999
	c0.19238,0,0.2998,0,0.2998,0.14355c0,0.228-0.13184,0.228-0.33594,0.228h-1.01953l-0.88672,3.562
	c-0.05481,0.19934-0.08307,0.40506-0.08401,0.61182c0,0.19188,0,0.49168,0.32324,0.49168c0.68359,0,1.16309-0.8994,1.37988-1.47508
	c0.0957-0.21631,0.0957-0.228,0.23926-0.228c0.08401,0,0.17969,0,0.17969,0.12012
	C274.38184,94.33984,273.77051,96.12698,272.55859,96.12698z"/>
<g>
	<path class="st1" d="M31.09473,130.56152H28.792c-0.21582,0-0.312,0-0.312-0.15625c0.01795-0.12192,0.04605-0.24213,0.084-0.35938
		c0.04834-0.15625,0.07227-0.15625,0.312-0.15625h2.33886c0.1919,0,0.29981,0,0.29981,0.144
		c-0.02357,0.12991-0.0557,0.25812-0.09619,0.38379C31.38232,130.56152,31.32275,130.56152,31.09473,130.56152z"/>
	<path class="st1" d="M41.92725,124.98438c-0.44385,0.03613-0.86377,0.168-1.34327,0.97168l-4.11377,6.88428
		c-0.13232,0.21582-0.19189,0.22752-0.33593,0.22752c-0.1919,0-0.2041-0.05957-0.228-0.28758l-0.71973-7.38818
		c-0.02392-0.2998-0.04785-0.40771-0.64746-0.40771c-0.168,0-0.2876,0-0.2876-0.14355c0-0.228,0.15577-0.228,0.21583-0.228
		c0.3955,0,0.81542,0.03564,1.22314,0.03564c0.45557,0,0.93555-0.03564,1.37939-0.03564
		c0.07834-0.01334,0.15265,0.03937,0.16598,0.11771c0.00148,0.00868,0.00216,0.01749,0.00202,0.02629
		c0,0.22754-0.13232,0.22754-0.2998,0.22754c-0.12012,0-0.75586,0.01221-0.75586,0.37207l0.61182,6.28418l3.46582-5.79248
		c0.09266-0.14578,0.15401-0.30925,0.18017-0.48c0-0.2876-0.28808-0.37158-0.48-0.38379
		c-0.0957-0.01172-0.19189-0.01172-0.19189-0.14355c0-0.228,0.144-0.228,0.21582-0.228c0.34814,0,0.74365,0.03564,1.10351,0.03564
		c0.29981,0,0.62354-0.03564,0.91162-0.03564c0.07668,0.00128,0.14183,0.05643,0.15577,0.13184
		C42.15479,124.97266,42.023,124.97266,41.92725,124.98438z"/>
	<path class="st1" d="M45.65723,136.87698c-0.28746,0.00639-0.52568-0.22145-0.53207-0.50891
		c-0.00037-0.01674,0.00006-0.03349,0.0013-0.05019c0.00376-0.15552,0.04195-0.30827,0.11182-0.44727
		c0.1994-0.49576,0.33556-1.01465,0.40527-1.54443c0-0.10451,0-0.46094-0.32177-0.46094
		c-0.44049,0.05566-0.81695,0.34407-0.98535,0.75488c-0.0867,0.15633-0.14568,0.32648-0.17432,0.50293
		c-0.03516,0.15381-0.07715,0.30029-0.11182,0.4541l-0.27978,1.11816c-0.03751,0.10724-0.13788,0.17973-0.25147,0.18164
		c-0.10094,0.00696-0.18841-0.06923-0.19537-0.17017c-0.00026-0.00381-0.00041-0.00764-0.00043-0.01147
		c0.0022-0.0334,0.00928-0.0663,0.021-0.09766l0.4541-1.81689c0.0371-0.14886,0.05822-0.30125,0.063-0.45459
		c0-0.10451,0-0.46094-0.32129-0.46094c-0.44055,0.05551-0.81707,0.34398-0.98535,0.75488
		c-0.08716,0.15616-0.14632,0.32637-0.17481,0.50293c-0.03515,0.15381-0.07715,0.30029-0.11181,0.4541l-0.27979,1.11816
		c-0.03751,0.10724-0.13787,0.17973-0.25146,0.18164c-0.10094,0.00696-0.18841-0.06923-0.19537-0.17017
		c-0.00026-0.00381-0.00041-0.00764-0.00043-0.01147c0.00245-0.03337,0.00952-0.06624,0.021-0.09766l0.5244-2.09669
		c0.02988-0.11655,0.04626-0.23615,0.04882-0.35645c0-0.07666,0-0.2793-0.18164-0.2793c-0.21679,0-0.34961,0.34229-0.47509,0.83154
		c-0.03516,0.15381-0.042,0.16064-0.13282,0.16064c-0.03515,0-0.105,0-0.105-0.06982
		c0.05215-0.24187,0.12703-0.47827,0.22364-0.70605c0.0778-0.21341,0.27604-0.3593,0.50293-0.37012
		c0.31032,0.00157,0.5667,0.24261,0.5874,0.55225c0.224-0.33492,0.59625-0.5407,0.999-0.55225
		c0.36689-0.03754,0.69474,0.22948,0.73227,0.59636c0.00063,0.00612,0.00117,0.01225,0.00163,0.01839
		c0.22436-0.36763,0.61796-0.59845,1.04834-0.61475c0.36448-0.04044,0.69273,0.22224,0.73318,0.58672
		c0.00516,0.04646,0.00539,0.09334,0.0007,0.13985c-0.07202,0.53621-0.21538,1.06038-0.42627,1.55859
		c-0.06901,0.16702-0.11152,0.3438-0.126,0.52393c0,0.09814,0.00732,0.20313,0.15381,0.20313
		c0.40527,0,0.59424-0.68506,0.6499-0.87399c0.02783-0.10449,0.02783-0.11865,0.11865-0.11865c0.04932,0,0.105,0,0.105,0.06982
		C46.54492,135.83598,46.30713,136.87698,45.65723,136.87698z"/>
</g>
<path class="st3" d="M106.99561,80.50098c12.49951-25,24.999-50,49.99805-50c49.99951,0,49.99951,100,99.99901,100
	c1.51932,0.00169,3.03717-0.09413,4.54422-0.28687"/>
<g>
	<line class="st4" x1="53.75915" y1="86.50098" x2="104.24085" y2="86.50098"/>
	<polygon class="st1" points="56.079,89.364 56.556,88.851 54.028,86.502 56.556,84.151 56.079,83.639 53,86.502 	"/>
	<polygon class="st1" points="101.921,89.364 101.444,88.851 103.972,86.502 101.444,84.151 101.921,83.639 105,86.502 	"/>
</g>
<path class="st1" d="M78.626,98.29688l-0.4551,1.78711c-0.03083,0.16315-0.07492,0.32352-0.13184,0.47949
	c-0.02979,0.03465-0.07465,0.05252-0.12011,0.04785c-0.06055,0-0.14454-0.01172-0.14454-0.13184
	c0-0.03613,0.12012-0.4917,0.26465-1.05518l0.27539-1.12744c-1.21849,0.05229-2.24868-0.89308-2.30098-2.11159
	c-0.00085-0.01976-0.00143-0.03954-0.00175-0.05931c0-1.63135,1.76269-3.22607,3.66992-3.28613l0.69531-2.77051
	c0.04883-0.2041,0.06055-0.23976,0.18067-0.23976c0.0689-0.00975,0.13266,0.03821,0.14241,0.10712
	c0.00059,0.00415,0.00097,0.00833,0.00114,0.01251l-0.03613,0.168l-0.67188,2.72266c1.21832-0.05247,2.2485,0.89262,2.30097,2.11093
	c0.00086,0.01999,0.00145,0.03998,0.00177,0.05997C82.2959,96.61768,80.55762,98.23682,78.626,98.29688z M76.791,96.37788
	c-0.05395,0.85841,0.59821,1.59804,1.45663,1.65199c0.04207,0.00264,0.08422,0.00357,0.12637,0.00279l1.23536-4.9292
	c-1.63457,0.21764-2.84653,1.62576-2.81836,3.27451V96.37788z M79.92186,93.10347l-1.23536,4.9292
	c1.63714-0.21565,2.85353-1.62282,2.83008-3.27393c0.05705-0.85558-0.59028-1.5954-1.44585-1.65245
	c-0.04954-0.00331-0.09921-0.00423-0.14884-0.00278L79.92186,93.10347z"/>
<g>
	<path class="st1" d="M39.04107,27.18122c-0.44385,0.03613-0.86377,0.168-1.34327,0.97168l-4.11377,6.88428
		c-0.13232,0.21582-0.19189,0.22752-0.33593,0.22752c-0.1919,0-0.2041-0.05957-0.228-0.28758l-0.71973-7.38818
		c-0.02392-0.2998-0.04785-0.40771-0.64746-0.40771c-0.168,0-0.2876,0-0.2876-0.14355c0-0.228,0.15577-0.228,0.21583-0.228
		c0.3955,0,0.81542,0.03564,1.22314,0.03564c0.45557,0,0.93555-0.03564,1.37939-0.03564
		c0.07834-0.01334,0.15265,0.03937,0.16598,0.11771c0.00148,0.00868,0.00216,0.01749,0.00202,0.02629
		c0,0.22754-0.13232,0.22754-0.2998,0.22754c-0.12012,0-0.75586,0.01221-0.75586,0.37207l0.61182,6.28418l3.46582-5.79248
		c0.09266-0.14578,0.15401-0.30925,0.18017-0.48c0-0.2876-0.28808-0.37158-0.48-0.38379
		c-0.0957-0.01172-0.19189-0.01172-0.19189-0.14355c0-0.228,0.144-0.228,0.21582-0.228c0.34814,0,0.74365,0.03564,1.10351,0.03564
		c0.29981,0,0.62354-0.03564,0.91162-0.03564c0.07668,0.00128,0.14183,0.05643,0.15577,0.13184
		C39.26861,27.16949,39.13682,27.16949,39.04107,27.18122z"/>
	<path class="st1" d="M42.77105,39.07381c-0.28746,0.00639-0.52568-0.22145-0.53207-0.50891
		c-0.00037-0.01674,0.00006-0.03349,0.0013-0.05019c0.00376-0.15552,0.04195-0.30827,0.11182-0.44727
		c0.1994-0.49576,0.33556-1.01465,0.40527-1.54443c0-0.10451,0-0.46094-0.32177-0.46094
		c-0.44049,0.05566-0.81695,0.34407-0.98535,0.75488c-0.0867,0.15633-0.14568,0.32648-0.17432,0.50293
		c-0.03516,0.15381-0.07715,0.30029-0.11182,0.4541l-0.27978,1.11816c-0.03751,0.10724-0.13788,0.17973-0.25147,0.18164
		c-0.10094,0.00696-0.18841-0.06923-0.19537-0.17017c-0.00026-0.00381-0.00041-0.00764-0.00043-0.01147
		c0.0022-0.0334,0.00928-0.0663,0.021-0.09766l0.4541-1.81689c0.0371-0.14886,0.05822-0.30125,0.063-0.45459
		c0-0.10451,0-0.46094-0.32129-0.46094c-0.44055,0.05551-0.81707,0.34398-0.98535,0.75488
		c-0.08716,0.15616-0.14632,0.32637-0.17481,0.50293c-0.03515,0.15381-0.07715,0.30029-0.11181,0.4541l-0.27979,1.11816
		c-0.03751,0.10724-0.13787,0.17973-0.25146,0.18164c-0.10094,0.00696-0.18841-0.06923-0.19537-0.17017
		c-0.00026-0.00381-0.00041-0.00764-0.00043-0.01147c0.00245-0.03337,0.00952-0.06624,0.021-0.09766l0.5244-2.09669
		c0.02988-0.11655,0.04626-0.23615,0.04882-0.35645c0-0.07666,0-0.2793-0.18164-0.2793c-0.21679,0-0.34961,0.34229-0.47509,0.83154
		c-0.03516,0.15381-0.042,0.16064-0.13282,0.16064c-0.03515,0-0.105,0-0.105-0.06982
		c0.05215-0.24187,0.12703-0.47827,0.22364-0.70605c0.0778-0.21341,0.27604-0.3593,0.50293-0.37012
		c0.31032,0.00157,0.5667,0.24261,0.5874,0.55225c0.224-0.33492,0.59625-0.5407,0.999-0.55225
		c0.36689-0.03754,0.69474,0.22948,0.73227,0.59636c0.00063,0.00612,0.00117,0.01225,0.00163,0.01839
		c0.22436-0.36763,0.61796-0.59845,1.04834-0.61475c0.36448-0.04044,0.69273,0.22224,0.73318,0.58672
		c0.00516,0.04646,0.00539,0.09334,0.0007,0.13985c-0.07202,0.53621-0.21538,1.06038-0.42627,1.55859
		c-0.06901,0.16702-0.11152,0.3438-0.126,0.52393c0,0.09814,0.00732,0.20313,0.15381,0.20313
		c0.40527,0,0.59424-0.68506,0.6499-0.87399c0.02783-0.10449,0.02783-0.11865,0.11865-0.11865c0.04932,0,0.105,0,0.105,0.06982
		C43.65874,38.03281,43.42095,39.07381,42.77105,39.07381z"/>
</g>
<g>
	<path class="st1" d="M29.44873,11.97607c-0.50391,0-1.41504-0.19189-1.41504-1.41553c0-0.33545,0.04785-0.76758,0.52734-2.09863
		c0.25195-0.6958,0.37207-1.00732,0.37207-1.30713c0-0.28809-0.13184-0.34814-0.27588-0.34814
		c-0.6958,0-1.00732,1.13965-1.10352,1.49951c-0.04785,0.16748-0.06006,0.20361-0.20361,0.20361
		c-0.06006,0-0.16797,0-0.16797-0.10791c0-0.07178,0.40771-1.83496,1.49902-1.83496c0.58789,0,0.87549,0.45557,0.87549,0.93555
		c0,0.23975-0.06006,0.39551-0.15576,0.68359c-0.27588,0.73145-0.68359,1.84668-0.68359,2.54248
		c0,0.47998,0.16797,1.00732,0.7793,1.00732c1.40332,0,1.95508-3.10596,1.95508-3.41797c0-0.19189-0.03613-0.63574-0.31201-0.95947
		c-0.10791-0.12012-0.13184-0.17969-0.13184-0.2876c0-0.27588,0.2998-0.50391,0.52783-0.50391
		c0.21582,0,0.45557,0.15576,0.45557,0.76758C31.99121,7.64648,31.43945,11.97607,29.44873,11.97607z"/>
	<path class="st1" d="M35.37646,14.86621c-0.13184,0-1.11572-0.7793-1.82324-2.21875c-0.62354-1.2832-0.7915-2.71045-0.7915-3.77783
		c0-1.4751,0.27588-2.7583,0.8877-3.96973c0.5874-1.17529,1.5708-2.03906,1.72705-2.03906
		c0.04785,0,0.10791,0.02393,0.10791,0.09619c0,0.03564,0,0.05957-0.12012,0.16748
		c-1.39111,1.41553-1.95459,3.41846-1.95459,5.74512c0,2.44678,0.67139,4.42578,1.87061,5.63672
		c0.2041,0.2041,0.2041,0.22803,0.2041,0.26416C35.48438,14.84229,35.42432,14.86621,35.37646,14.86621z"/>
	<path class="st1" d="M38.55713,11.97607c-0.65918,0-0.9834-0.50391-0.9834-1.05566c0-0.04785,0-0.19189,0.06006-0.43164
		l0.86377-3.4541h-0.97168c-0.19189,0-0.2876,0-0.2876-0.12012c0-0.22754,0.10791-0.22754,0.32373-0.22754h1.01953l0.46777-1.8833
		c0.04785-0.17969,0.15576-0.44385,0.45557-0.44385c0.22803,0,0.31201,0.18018,0.31201,0.28809c0,0-0.01221,0.13184-0.02441,0.15576
		l-0.47949,1.8833h0.94727c0.2041,0,0.28809,0,0.28809,0.13184c0,0.21582-0.12012,0.21582-0.32373,0.21582H39.229l-0.89941,3.58594
		c-0.04785,0.17969-0.09619,0.45557-0.09619,0.63574c0,0.39551,0.16797,0.47949,0.34814,0.47949
		c0.7793,0,1.24707-1.17529,1.39111-1.54688c0.06006-0.13184,0.07178-0.15625,0.20361-0.15625c0.04834,0,0.15625,0,0.15625,0.1084
		C40.33252,10.20068,39.73291,11.97607,38.55713,11.97607z"/>
	<path class="st1" d="M43.75293,12.82764c-0.58789,1.17529-1.57129,2.03857-1.72705,2.03857
		c-0.04785,0-0.10791-0.02393-0.10791-0.0957c0-0.03613,0-0.06006,0.12012-0.16797c1.39111-1.41553,1.95459-3.41846,1.95459-5.74512
		c0-2.44629-0.67139-4.42529-1.87109-5.63672c-0.20361-0.2041-0.20361-0.22803-0.20361-0.26367
		c0-0.07227,0.06006-0.09619,0.10791-0.09619c0.13184,0,1.11523,0.77979,1.82324,2.21875
		c0.67139,1.39111,0.7915,2.87842,0.7915,3.79004C44.64063,10.30859,44.36475,11.604,43.75293,12.82764z"/>
</g>
<g>
	<path class="st1" d="M89.62842,22.59814c-0.50391,0-1.41504-0.19189-1.41504-1.41553c0-0.33545,0.04785-0.76758,0.52734-2.09863
		c0.25195-0.6958,0.37207-1.00732,0.37207-1.30713c0-0.28809-0.13184-0.34814-0.27588-0.34814
		c-0.6958,0-1.00732,1.13965-1.10352,1.49951c-0.04785,0.16748-0.06006,0.20361-0.20361,0.20361
		c-0.06006,0-0.16797,0-0.16797-0.10791c0-0.07178,0.40771-1.83496,1.49902-1.83496c0.58789,0,0.87549,0.45557,0.87549,0.93555
		c0,0.23975-0.06006,0.39551-0.15576,0.68359c-0.27588,0.73145-0.68359,1.84668-0.68359,2.54248
		c0,0.47998,0.16797,1.00732,0.7793,1.00732c1.40332,0,1.95508-3.10596,1.95508-3.41797c0-0.19189-0.03613-0.63574-0.31201-0.95947
		c-0.10791-0.12012-0.13184-0.17969-0.13184-0.2876c0-0.27588,0.2998-0.50391,0.52783-0.50391
		c0.21582,0,0.45557,0.15576,0.45557,0.76758C92.1709,18.26855,91.61914,22.59814,89.62842,22.59814z"/>
	<path class="st1" d="M93.54102,26.45996c-0.23047,0-0.9082,0-1.09717,0.01416v-0.20264h0.2168
		c0.61523,0,0.63574-0.08398,0.63574-0.33545v-3.64111c-0.38428,0.18164-0.7334,0.18164-0.89453,0.18164v-0.20264
		c0.72021,0,1.06934-0.2583,1.2373-0.44727c0.13965,0,0.13965,0.00684,0.13965,0.16797v3.94141
		c0,0.25146,0.021,0.33545,0.63574,0.33545h0.2168v0.20264C94.44287,26.45996,93.77197,26.45996,93.54102,26.45996z"/>
	<path class="st1" d="M98.98438,25.48828c-0.13184,0-1.11572-0.7793-1.82324-2.21875c-0.62354-1.2832-0.7915-2.71045-0.7915-3.77783
		c0-1.4751,0.27588-2.7583,0.8877-3.96973c0.5874-1.17529,1.5708-2.03906,1.72705-2.03906
		c0.04785,0,0.10791,0.02393,0.10791,0.09619c0,0.03564,0,0.05957-0.12012,0.16748
		c-1.39111,1.41553-1.95508,3.41846-1.95508,5.74512c0,2.44678,0.67188,4.42578,1.87109,5.63672
		c0.2041,0.2041,0.2041,0.22803,0.2041,0.26416C99.09229,25.46436,99.03223,25.48828,98.98438,25.48828z"/>
	<path class="st1" d="M102.16455,22.59814c-0.65918,0-0.9834-0.50391-0.9834-1.05566c0-0.04785,0-0.19189,0.06006-0.43164
		l0.86377-3.4541h-0.97168c-0.19189,0-0.2876,0-0.2876-0.12012c0-0.22754,0.10791-0.22754,0.32373-0.22754h1.01953l0.46777-1.8833
		c0.04785-0.17969,0.15576-0.44385,0.45557-0.44385c0.22803,0,0.31201,0.18018,0.31201,0.28809c0,0-0.01221,0.13184-0.02441,0.15576
		l-0.47949,1.8833h0.94727c0.2041,0,0.28809,0,0.28809,0.13184c0,0.21582-0.12012,0.21582-0.32373,0.21582h-0.99561
		l-0.89941,3.58594c-0.04785,0.17969-0.09619,0.45557-0.09619,0.63574c0,0.39551,0.16797,0.47949,0.34814,0.47949
		c0.7793,0,1.24707-1.17529,1.39111-1.54688c0.06006-0.13184,0.07178-0.15625,0.20361-0.15625c0.04834,0,0.15625,0,0.15625,0.1084
		C103.93994,20.82275,103.34033,22.59814,102.16455,22.59814z"/>
	<path class="st1" d="M107.36084,23.44971c-0.58789,1.17529-1.57129,2.03857-1.72705,2.03857
		c-0.04785,0-0.10791-0.02393-0.10791-0.0957c0-0.03613,0-0.06006,0.12012-0.16797c1.39111-1.41553,1.95459-3.41846,1.95459-5.74512
		c0-2.44629-0.67139-4.42529-1.87061-5.63672c-0.2041-0.2041-0.2041-0.22803-0.2041-0.26367
		c0-0.07227,0.06006-0.09619,0.10791-0.09619c0.13184,0,1.11523,0.77979,1.82275,2.21875
		c0.67188,1.39111,0.79199,2.87842,0.79199,3.79004C108.24854,20.93066,107.97266,22.22607,107.36084,23.44971z"/>
</g>
<g>
	<path class="st1" d="M149.80859,22.59863c-0.50391,0-1.41504-0.19189-1.41504-1.41553c0-0.33545,0.04785-0.76758,0.52734-2.09863
		c0.25195-0.6958,0.37207-1.00732,0.37207-1.30713c0-0.28809-0.13184-0.34814-0.27637-0.34814
		c-0.69531,0-1.00684,1.13965-1.10352,1.49951c-0.04785,0.16748-0.05957,0.20361-0.20313,0.20361
		c-0.06055,0-0.16797,0-0.16797-0.10791c0-0.07178,0.40723-1.83496,1.49902-1.83496c0.58789,0,0.875,0.45557,0.875,0.93555
		c0,0.23975-0.05957,0.39551-0.15527,0.68359c-0.27637,0.73145-0.68359,1.84668-0.68359,2.54248
		c0,0.47998,0.16797,1.00732,0.7793,1.00732c1.40332,0,1.95508-3.10596,1.95508-3.41797c0-0.19189-0.03613-0.63574-0.3125-0.95947
		c-0.10742-0.12012-0.13184-0.17969-0.13184-0.2876c0-0.27588,0.2998-0.50391,0.52832-0.50391
		c0.21582,0,0.45508,0.15576,0.45508,0.76758C152.35059,18.26904,151.79883,22.59863,149.80859,22.59863z"/>
	<path class="st1" d="M154.83887,26.47461h-2.55078v-0.16797l1.41211-1.5791c0.39844-0.44727,0.74121-0.96436,0.74121-1.55859
		c0-0.64307-0.36426-1.13916-0.95801-1.13916c-0.4541,0-0.83105,0.32178-0.96387,0.79688
		c0.02051-0.00684,0.03418-0.00684,0.09766-0.00684c0.19531,0,0.32813,0.13232,0.32813,0.32813
		c0,0.22363-0.18164,0.32861-0.32813,0.32861c-0.02148,0-0.3291,0-0.3291-0.35645c0-0.60107,0.47559-1.29297,1.28613-1.29297
		s1.44727,0.53809,1.44727,1.3418c0,0.69189-0.3916,1.05518-1.4541,2.03369c-0.18164,0.16797-0.6084,0.61523-0.79688,0.77588
		h1.29297c0.20996,0,0.6084,0,0.65723-0.06299c0.06934-0.11182,0.12598-0.49609,0.14648-0.61475h0.1543L154.83887,26.47461z"/>
	<path class="st1" d="M159.16406,25.48877c-0.13184,0-1.11523-0.7793-1.82324-2.21875
		c-0.62305-1.2832-0.79102-2.71045-0.79102-3.77783c0-1.4751,0.27539-2.7583,0.8877-3.96973
		c0.58691-1.17529,1.57031-2.03906,1.72656-2.03906c0.04785,0,0.1084,0.02393,0.1084,0.09619c0,0.03564,0,0.05957-0.12012,0.16748
		c-1.3916,1.41553-1.95508,3.41846-1.95508,5.74512c0,2.44678,0.67188,4.42578,1.87109,5.63672
		c0.2041,0.2041,0.2041,0.22803,0.2041,0.26416C159.27246,25.46484,159.21191,25.48877,159.16406,25.48877z"/>
	<path class="st1" d="M162.34473,22.59863c-0.65918,0-0.9834-0.50391-0.9834-1.05566c0-0.04785,0-0.19189,0.05957-0.43164
		l0.86426-3.4541h-0.97168c-0.19238,0-0.28809,0-0.28809-0.12012c0-0.22754,0.1084-0.22754,0.32422-0.22754h1.01953l0.46777-1.8833
		c0.04785-0.17969,0.15527-0.44385,0.45508-0.44385c0.22852,0,0.3125,0.18018,0.3125,0.28809c0,0-0.0127,0.13184-0.02441,0.15576
		l-0.47949,1.8833h0.94727c0.2041,0,0.28809,0,0.28809,0.13184c0,0.21582-0.12012,0.21582-0.32422,0.21582h-0.99512
		l-0.89941,3.58594c-0.04785,0.17969-0.09668,0.45557-0.09668,0.63574c0,0.39551,0.16797,0.47949,0.34863,0.47949
		c0.7793,0,1.24707-1.17529,1.39063-1.54688c0.06055-0.13184,0.07227-0.15625,0.2041-0.15625c0.04785,0,0.15625,0,0.15625,0.1084
		C164.12012,20.82324,163.52051,22.59863,162.34473,22.59863z"/>
	<path class="st1" d="M167.54102,23.4502c-0.58789,1.17529-1.57129,2.03857-1.72754,2.03857
		c-0.04785,0-0.10742-0.02393-0.10742-0.0957c0-0.03613,0-0.06006,0.12012-0.16797c1.39063-1.41553,1.9541-3.41846,1.9541-5.74512
		c0-2.44629-0.6709-4.42529-1.87012-5.63672c-0.2041-0.2041-0.2041-0.22803-0.2041-0.26367
		c0-0.07227,0.05957-0.09619,0.10742-0.09619c0.13184,0,1.11523,0.77979,1.82324,2.21875
		c0.67188,1.39111,0.79199,2.87842,0.79199,3.79004C168.42871,20.93115,168.15234,22.22656,167.54102,23.4502z"/>
</g>
</svg>
