<?xml version="1.0" encoding="utf-8"?>
<!-- Generator: Adobe Illustrator 23.0.3, SVG Export Plug-In . SVG Version: 6.00 Build 0)  -->
<svg version="1.1" id="Layer_1" xmlns="http://www.w3.org/2000/svg" xmlns:xlink="http://www.w3.org/1999/xlink" x="0px" y="0px"
	 viewBox="0 0 275 155.5" style="enable-background:new 0 0 275 155.5;" xml:space="preserve">
<style type="text/css">
	.st0{fill:none;stroke:#8FF4DD;stroke-width:2;stroke-miterlimit:10;}
	.st1{fill:#8FF4DD;}
	.st2{fill:none;stroke:#FD1D53;stroke-width:2;stroke-linecap:round;stroke-linejoin:round;}
	.st3{fill:none;stroke:#2DE2E6;stroke-width:2;stroke-linecap:round;stroke-linejoin:round;}
	.st4{fill:none;stroke:#8FF4DD;stroke-miterlimit:10;}
</style>
<title>SinusoidPhase</title>
<g>
	<polyline class="st0" points="50,9.5 50,80.5 50,155.5 	"/>
	<polygon class="st1" points="45.5,17.7 46.9,18.2 50,9.6 53.1,18.2 54.5,17.7 50,5.5 	"/>
</g>
<g>
	<line class="st0" x1="0" y1="80.5" x2="271" y2="80.5"/>
	<polygon class="st1" points="262.79999,85 262.29999,83.6 270.89999,80.5 262.29999,77.4 262.79999,76 275,80.5 	"/>
</g>
<path class="st2" d="M50,80.5c12.5-25,25-50,50-50c50,0,50,100,100,100c25,0,37.5-25,50-50"/>
<g>
	<path class="st1" d="M31.1,130.60001h-2.3c-0.2,0-0.3,0-0.3-0.2c0-0.10001,0-0.2,0.1-0.39999c0-0.2,0.1-0.2,0.3-0.2h2.3
		c0.2,0,0.3,0,0.3,0.10001s-0.1,0.3-0.1,0.39999C31.4,130.60001,31.3,130.60001,31.1,130.60001z"/>
	<path class="st1" d="M41.9,125c-0.4,0-0.9,0.2-1.3,1l-4.1,6.89999c-0.1,0.2-0.2,0.2-0.3,0.2c-0.2,0-0.2-0.10001-0.2-0.3l-0.7-7.4
		c0-0.3,0-0.4-0.6-0.4c-0.2,0-0.3,0-0.3-0.1c0-0.2,0.2-0.2,0.2-0.2c0.4,0,0.8,0,1.2,0c0.5,0,0.9,0,1.4,0c0.1,0,0.2,0,0.2,0.1l0,0
		c0,0.2-0.1,0.2-0.3,0.2c-0.1,0-0.8,0-0.8,0.4l0.6,6.3l3.5-5.8c0.1-0.1,0.2-0.3,0.2-0.5c0-0.3-0.3-0.4-0.5-0.4c-0.1,0-0.2,0-0.2-0.1
		c0-0.2,0.1-0.2,0.2-0.2c0.3,0,0.7,0,1.1,0c0.3,0,0.6,0,0.9,0c0.1,0,0.1,0.1,0.2,0.1C42.2,125,42,125,41.9,125z"/>
</g>
<path class="st3" d="M107,80.5c12.5-25,25-50,50-50c50,0,50,100,100,100c1.5,0,3-0.10001,4.5-0.3"/>
<g>
	<line class="st4" x1="53.8" y1="86.5" x2="104.2" y2="86.5"/>
	<polygon class="st1" points="56.1,89.4 56.6,88.9 54,86.5 56.6,84.2 56.1,83.6 53,86.5 	"/>
	<polygon class="st1" points="101.9,89.4 101.4,88.9 104,86.5 101.4,84.2 101.9,83.6 105,86.5 	"/>
</g>
<path class="st1" d="M78.6,98.3l-0.5,1.8c0,0.2-0.1,0.3-0.1,0.5c0,0-0.1,0.1-0.1,0c-0.1,0-0.1,0-0.1-0.1c0,0,0.1-0.5,0.3-1.1
	l0.3-1.1c-1.2,0.1-2.2-0.9-2.3-2.1c0,0,0,0,0-0.1c0-1.6,1.8-3.2,3.7-3.3l0.7-2.8c0-0.2,0.1-0.2,0.2-0.2s0.1,0,0.1,0.1l0,0v0.2
	L80,92.8c1.2-0.1,2.2,0.9,2.3,2.1c0,0,0,0,0,0.1C82.3,96.6,80.6,98.2,78.6,98.3z M76.8,96.4c-0.1,0.9,0.6,1.6,1.5,1.7h0.1l1.2-4.9
	C78,93.3,76.8,94.7,76.8,96.4L76.8,96.4z M79.9,93.1L78.7,98c1.6-0.2,2.9-1.6,2.8-3.3c0.1-0.9-0.6-1.6-1.4-1.7
	C80,93.1,80,93.1,79.9,93.1L79.9,93.1z"/>
<path class="st1" d="M39,27.2c-0.4,0-0.9,0.2-1.3,1L33.6,35c-0.1,0.2-0.2,0.2-0.3,0.2c-0.2,0-0.2-0.1-0.2-0.3l-0.7-7.4
	c0-0.3,0-0.4-0.6-0.4c-0.2,0-0.3,0-0.3-0.1c0-0.2,0.2-0.2,0.2-0.2c0.4,0,0.8,0,1.2,0c0.5,0,0.9,0,1.4,0c0.1,0,0.2,0,0.2,0.1l0,0
	c0,0.2-0.1,0.2-0.3,0.2c-0.1,0-0.8,0-0.8,0.4l0.6,6.3l3.5-5.8c0.1-0.1,0.2-0.3,0.2-0.5c0-0.3-0.3-0.4-0.5-0.4c-0.1,0-0.2,0-0.2-0.1
	c0-0.2,0.1-0.2,0.2-0.2c0.3,0,0.7,0,1.1,0c0.3,0,0.6,0,0.9,0c0.1,0,0.1,0.1,0.2,0.1C39.3,27.2,39.1,27.2,39,27.2z"/>
<g>
	<path class="st1" d="M43.55859,38.25732c-0.37354,0-0.65576-0.27344-0.65576-0.71094c0-0.19092,0.03613-0.27295,0.11816-0.50098
		c0.15479-0.44629,0.55566-1.53955,0.55566-2.104c0-0.15479,0-0.61035-0.41895-0.61035c-0.87451,0-1.36621,1.15674-1.4209,1.36621
		l-0.55566,2.24121c-0.03662,0.15479-0.12744,0.31885-0.3374,0.31885c-0.16357,0-0.23682-0.11865-0.23682-0.21875
		c0,0,0-0.04541,0.02734-0.146l0.60156-2.40479c0.03613-0.16406,0.07275-0.36426,0.07275-0.54639c0-0.146,0-0.61035-0.41895-0.61035
		c-0.84717,0-1.34814,1.06543-1.43945,1.40283c-0.04541,0.2002-0.1001,0.3916-0.14551,0.5918l-0.41943,1.68555
		c-0.06348,0.18213-0.20947,0.24609-0.31885,0.24609c-0.16357,0-0.23682-0.10938-0.23682-0.21875
		c0-0.03662,0-0.04541,0.03662-0.17334l0.66504-2.65967c0.03662-0.12744,0.07275-0.32813,0.07275-0.50098
		c0-0.10938,0-0.37354-0.23682-0.37354c-0.30957,0-0.48291,0.53711-0.61963,1.07471
		c-0.0542,0.20947-0.06348,0.21875-0.16357,0.21875c-0.08203,0-0.12793-0.01807-0.12793-0.09131c0,0,0.11865-0.56445,0.2915-0.90186
		c0.19141-0.3916,0.42822-0.48242,0.6377-0.48242c0.41943,0,0.70166,0.32764,0.729,0.73779
		c0.32813-0.45557,0.77441-0.73779,1.30273-0.73779c0.43701,0,0.86523,0.20947,0.91992,0.82861
		c0.32813-0.50098,0.7832-0.82861,1.34814-0.82861c0.70166,0,0.91113,0.44629,0.91113,0.9292
		c0,0.52832-0.31006,1.37549-0.54688,2.04053c-0.07275,0.18213-0.17285,0.46436-0.17285,0.68311
		c0,0.20947,0.07275,0.27295,0.20947,0.27295c0.51025,0,0.75586-0.81982,0.83789-1.12939
		c0.03662-0.13672,0.0459-0.16406,0.15527-0.16406c0.03613,0,0.11816,0,0.11816,0.08203
		C44.69727,36.8999,44.40576,38.25732,43.55859,38.25732z"/>
</g>
<g>
	<path class="st1" d="M44.70801,137.42578c-0.37354,0-0.65576-0.27344-0.65576-0.71094c0-0.19043,0.03613-0.27246,0.11816-0.50098
		c0.15479-0.44629,0.55566-1.53906,0.55566-2.10352c0-0.15527,0-0.61035-0.41895-0.61035c-0.87451,0-1.36621,1.15625-1.4209,1.36621
		l-0.55566,2.24121c-0.03662,0.1543-0.12744,0.31836-0.3374,0.31836c-0.16357,0-0.23682-0.11816-0.23682-0.21875
		c0,0,0-0.04492,0.02734-0.14551l0.60156-2.40527c0.03613-0.16406,0.07275-0.36426,0.07275-0.5459
		c0-0.14648,0-0.61035-0.41895-0.61035c-0.84717,0-1.34814,1.06543-1.43945,1.40234c-0.04541,0.2002-0.1001,0.3916-0.14551,0.5918
		l-0.41943,1.68555c-0.06348,0.18262-0.20947,0.24609-0.31885,0.24609c-0.16357,0-0.23682-0.10938-0.23682-0.21875
		c0-0.03613,0-0.04492,0.03662-0.17285l0.66504-2.66016c0.03662-0.12695,0.07275-0.32813,0.07275-0.50098
		c0-0.10938,0-0.37305-0.23682-0.37305c-0.30957,0-0.48291,0.53711-0.61963,1.07422
		c-0.0542,0.20996-0.06348,0.21875-0.16357,0.21875c-0.08203,0-0.12793-0.01758-0.12793-0.09082c0,0,0.11865-0.56445,0.2915-0.90234
		c0.19141-0.3916,0.42822-0.48242,0.6377-0.48242c0.41943,0,0.70166,0.32813,0.729,0.73828
		c0.32813-0.45605,0.77441-0.73828,1.30273-0.73828c0.43701,0,0.86523,0.20996,0.91992,0.8291
		c0.32813-0.50098,0.7832-0.8291,1.34814-0.8291c0.70166,0,0.91113,0.44629,0.91113,0.92969
		c0,0.52832-0.31006,1.375-0.54688,2.04004c-0.07275,0.18262-0.17285,0.46484-0.17285,0.68359
		c0,0.20898,0.07275,0.27246,0.20947,0.27246c0.51025,0,0.75586-0.81934,0.83789-1.12891
		c0.03662-0.13672,0.0459-0.16406,0.15527-0.16406c0.03613,0,0.11816,0,0.11816,0.08203
		C45.84668,136.06836,45.55518,137.42578,44.70801,137.42578z"/>
</g>
<g>
	<path class="st1" d="M29.4,12c-0.5,0-1.4-0.2-1.4-1.4c0-0.3,0-0.8,0.5-2.1c0.3-0.7,0.4-1,0.4-1.3s-0.1-0.3-0.3-0.3
		c-0.7,0-1,1.1-1.1,1.5c0,0.2-0.1,0.2-0.2,0.2s-0.2,0-0.2-0.1s0.4-1.8,1.5-1.8c0.6,0,0.9,0.5,0.9,0.9c0,0.2-0.1,0.4-0.2,0.7
		c-0.3,0.7-0.7,1.8-0.7,2.5c0,0.5,0.2,1,0.8,1c1.4,0,2-3.1,2-3.4c0-0.2,0-0.6-0.3-1C31,7.2,31,7.2,31,7.1c0-0.3,0.3-0.5,0.5-0.5
		S32,6.8,32,7.4C32,7.6,31.4,12,29.4,12z"/>
	<path class="st1" d="M35.4,14.9c-0.1,0-1.1-0.8-1.8-2.2c-0.6-1.3-0.8-2.7-0.8-3.8c0-1.5,0.3-2.8,0.9-4c0.6-1.2,1.6-2,1.7-2
		c0,0,0.1,0,0.1,0.1c0,0,0,0.1-0.1,0.2c-1.4,1.4-2,3.4-2,5.7c0,2.4,0.7,4.4,1.9,5.6c0.2,0.2,0.2,0.2,0.2,0.3
		C35.5,14.8,35.4,14.9,35.4,14.9z"/>
	<path class="st1" d="M38.6,12c-0.7,0-1-0.5-1-1.1c0,0,0-0.2,0.1-0.4L38.5,7h-1c-0.2,0-0.3,0-0.3-0.1c0-0.2,0.1-0.2,0.3-0.2h1
		L39,4.8c0-0.2,0.2-0.4,0.5-0.4c0.2,0,0.3,0.2,0.3,0.3c0,0,0,0.1,0,0.2l-0.5,1.9h0.9c0.2,0,0.3,0,0.3,0.1S40.4,7,40.2,7h-1l-0.9,3.6
		c0,0.2-0.1,0.5-0.1,0.6c0,0.4,0.2,0.5,0.3,0.5c0.8,0,1.2-1.2,1.4-1.5C40,10.1,40,10,40.2,10c0,0,0.2,0,0.2,0.1
		C40.3,10.2,39.7,12,38.6,12z"/>
	<path class="st1" d="M43.8,12.8c-0.6,1.2-1.6,2-1.7,2c0,0-0.1,0-0.1-0.1c0,0,0-0.1,0.1-0.2c1.4-1.4,2-3.4,2-5.7
		c0-2.4-0.7-4.4-1.9-5.6C41.9,3,41.9,3,41.9,3c0-0.1,0.1-0.1,0.1-0.1c0.1,0,1.1,0.8,1.8,2.2s0.8,2.9,0.8,3.8
		C44.6,10.3,44.4,11.6,43.8,12.8z"/>
</g>
<g>
	<path class="st1" d="M89.6,22.6c-0.5,0-1.4-0.2-1.4-1.4c0-0.3,0-0.8,0.5-2.1c0.3-0.7,0.4-1,0.4-1.3s-0.1-0.3-0.3-0.3
		c-0.7,0-1,1.1-1.1,1.5c0,0.2-0.1,0.2-0.2,0.2s-0.2,0-0.2-0.1s0.4-1.8,1.5-1.8c0.6,0,0.9,0.5,0.9,0.9c0,0.2-0.1,0.4-0.2,0.7
		c-0.3,0.7-0.7,1.8-0.7,2.5c0,0.5,0.2,1,0.8,1c1.4,0,2-3.1,2-3.4c0-0.2,0-0.6-0.3-1c-0.1-0.1-0.1-0.2-0.1-0.3c0-0.3,0.3-0.5,0.5-0.5
		s0.5,0.2,0.5,0.8C92.2,18.3,91.6,22.6,89.6,22.6z"/>
	<path class="st1" d="M93.5,26.5c-0.2,0-0.9,0-1.1,0v-0.2h0.2c0.6,0,0.6-0.1,0.6-0.3v-3.6c-0.4,0.2-0.7,0.2-0.9,0.2v-0.2
		c0.7,0,1.1-0.3,1.2-0.4c0.1,0,0.1,0,0.1,0.2v3.9c0,0.3,0,0.3,0.6,0.3h0.2v0.2C94.4,26.5,93.8,26.5,93.5,26.5z"/>
	<path class="st1" d="M99,25.5c-0.1,0-1.1-0.8-1.8-2.2c-0.6-1.3-0.8-2.7-0.8-3.8c0-1.5,0.3-2.8,0.9-4s1.6-2,1.7-2c0,0,0.1,0,0.1,0.1
		c0,0,0,0.1-0.1,0.2c-1.4,1.4-2,3.4-2,5.7c0,2.4,0.7,4.4,1.9,5.6c0.2,0.2,0.2,0.2,0.2,0.3C99.1,25.5,99,25.5,99,25.5z"/>
	<path class="st1" d="M102.2,22.6c-0.7,0-1-0.5-1-1.1c0,0,0-0.2,0.1-0.4l0.9-3.5h-1c-0.2,0-0.3,0-0.3-0.1c0-0.2,0.1-0.2,0.3-0.2h1
		l0.5-1.9c0-0.2,0.2-0.4,0.5-0.4c0.2,0,0.3,0.2,0.3,0.3c0,0,0,0.1,0,0.2l-0.5,1.9h0.9c0.2,0,0.3,0,0.3,0.1c0,0.2-0.1,0.2-0.3,0.2h-1
		l-0.9,3.6c0,0.2-0.1,0.5-0.1,0.6c0,0.4,0.2,0.5,0.3,0.5c0.8,0,1.2-1.2,1.4-1.5c0.1-0.1,0.1-0.2,0.2-0.2c0,0,0.2,0,0.2,0.1
		C103.9,20.8,103.3,22.6,102.2,22.6z"/>
	<path class="st1" d="M107.4,23.4c-0.6,1.2-1.6,2-1.7,2c0,0-0.1,0-0.1-0.1c0,0,0-0.1,0.1-0.2c1.4-1.4,2-3.4,2-5.7
		c0-2.4-0.7-4.4-1.9-5.6c-0.2-0.2-0.2-0.2-0.2-0.3s0.1-0.1,0.1-0.1c0.1,0,1.1,0.8,1.8,2.2c0.7,1.4,0.8,2.9,0.8,3.8
		C108.2,20.9,108,22.2,107.4,23.4z"/>
</g>
<g>
	<path class="st1" d="M149.8,22.6c-0.5,0-1.39999-0.2-1.39999-1.4c0-0.3,0-0.8,0.5-2.1c0.3-0.7,0.39999-1,0.39999-1.3
		S149.2,17.5,149,17.5c-0.7,0-1,1.1-1.10001,1.5c0,0.2-0.10001,0.2-0.2,0.2c-0.10001,0-0.2,0-0.2-0.1s0.39999-1.8,1.5-1.8
		c0.60001,0,0.89999,0.5,0.89999,0.9c0,0.2-0.10001,0.4-0.2,0.7c-0.3,0.7-0.7,1.8-0.7,2.5c0,0.5,0.2,1,0.8,1c1.39999,0,2-3.1,2-3.4
		c0-0.2,0-0.6-0.3-1c-0.10001-0.1-0.10001-0.2-0.10001-0.3c0-0.3,0.3-0.5,0.5-0.5s0.5,0.2,0.5,0.8
		C152.39999,18.3,151.8,22.6,149.8,22.6z"/>
	<path class="st1" d="M159.2,25.5c-0.10001,0-1.10001-0.8-1.8-2.2c-0.60001-1.3-0.8-2.7-0.8-3.8c0-1.5,0.3-2.8,0.89999-4
		c0.60001-1.2,1.60001-2,1.7-2c0,0,0.10001,0,0.10001,0.1c0,0,0,0.1-0.10001,0.2c-1.39999,1.4-2,3.4-2,5.7
		c0,2.4,0.7,4.4,1.89999,5.6c0.2,0.2,0.2,0.2,0.2,0.3C159.3,25.5,159.2,25.5,159.2,25.5z"/>
	<path class="st1" d="M162.3,22.6c-0.7,0-1-0.5-1-1.1c0,0,0-0.2,0.10001-0.4L162.3,17.6h-1c-0.2,0-0.3,0-0.3-0.1
		c0-0.2,0.10001-0.2,0.3-0.2h1l0.5-1.9c0-0.2,0.2-0.4,0.5-0.4c0.2,0,0.3,0.2,0.3,0.3c0,0,0,0.1,0,0.2l-0.5,1.9H164
		c0.2,0,0.3,0,0.3,0.1c0,0.2-0.10001,0.2-0.3,0.2h-1l-0.89999,3.6c0,0.2-0.10001,0.5-0.10001,0.6c0,0.4,0.2,0.5,0.3,0.5
		c0.8,0,1.2-1.2,1.39999-1.5c0.10001-0.1,0.10001-0.2,0.2-0.2c0,0,0.2,0,0.2,0.1C164.10001,20.8,163.5,22.6,162.3,22.6z"/>
	<path class="st1" d="M167.5,23.5c-0.60001,1.2-1.60001,2-1.7,2c0,0-0.10001,0-0.10001-0.1c0,0,0-0.1,0.10001-0.2
		c1.39999-1.4,2-3.4,2-5.7c0-2.4-0.7-4.4-1.89999-5.6c-0.2-0.2-0.2-0.2-0.2-0.3s0.10001-0.1,0.10001-0.1
		c0.10001,0,1.10001,0.8,1.8,2.2s0.8,2.9,0.8,3.8C168.39999,20.9,168.2,22.2,167.5,23.5z"/>
	<g>
		<path class="st1" d="M155.34863,26.64014h-2.59766c0-0.16797,0-0.18213,0.07617-0.25928l1.34473-1.49854
			c0.38574-0.43457,0.73633-0.98779,0.73633-1.54785c0-0.57422-0.30176-1.1416-0.93848-1.1416
			c-0.40625,0-0.78516,0.25879-0.94629,0.71436c0.02148-0.00732,0.03516-0.00732,0.0918-0.00732
			c0.24512,0,0.37109,0.18213,0.37109,0.36426c0,0.28711-0.24512,0.37158-0.36426,0.37158c-0.02148,0-0.37109,0-0.37109-0.39258
			c0-0.62305,0.51758-1.26758,1.30957-1.26758c0.85449,0,1.48438,0.56055,1.48438,1.35889c0,0.7002-0.41992,1.07861-1.5127,2.04492
			l-0.74219,0.72168h1.26074c0.1543,0,0.61621,0,0.66504-0.05615c0.07031-0.10498,0.11914-0.41309,0.1543-0.62354h0.1748
			L155.34863,26.64014z"/>
	</g>
</g>
<path class="st1" d="M270.64999,93.71943c-0.69998,0-1-0.5-1-1.1c0,0,0-0.2,0.10001-0.4l0.89999-3.5h-1
	c-0.19998,0-0.29999,0-0.29999-0.1c0-0.2,0.10001-0.2,0.29999-0.2h1l0.5-1.89999c0-0.2,0.20001-0.4,0.5-0.4
	c0.20001,0,0.30002,0.2,0.30002,0.3c0,0,0,0.1,0,0.2l-0.5,1.9h0.89999c0.19998,0,0.29999,0,0.29999,0.1
	c0,0.2-0.10001,0.2-0.29999,0.2h-1l-0.89999,3.60001c0,0.2-0.10001,0.5-0.10001,0.6c0,0.4,0.19998,0.5,0.29999,0.5
	c0.80002,0,1.20001-1.2,1.39999-1.5c0.10001-0.1,0.10001-0.2,0.20001-0.2c0,0,0.19998,0,0.19998,0.10001
	C272.45001,91.91943,271.85001,93.71943,270.64999,93.71943z"/>
</svg>
