<svg id="Layer_1" data-name="Layer 1" xmlns="http://www.w3.org/2000/svg" viewBox="0 0 304.00537 91.9375">
  <defs>
    <style>
      .cls-1, .cls-2, .cls-3, .cls-4, .cls-5 {
        fill: none;
        stroke: #000;
      }

      .cls-1, .cls-3 {
        stroke-linecap: round;
      }

      .cls-1, .cls-3, .cls-4, .cls-5 {
        stroke-width: 2px;
      }

      .cls-2, .cls-5 {
        stroke-linecap: square;
      }

      .cls-2 {
        stroke-width: 1.5px;
      }

      .cls-3, .cls-5 {
        stroke-linejoin: round;
      }
    </style>
  </defs>
  <title>SourceTransformation</title>
  <g>
    <circle class="cls-1" cx="28.84668" cy="52.9375" r="12.5"/>
    <line class="cls-2" x1="26.34668" y1="45.9375" x2="31.34668" y2="45.9375"/>
    <line class="cls-2" x1="28.84668" y1="48.4375" x2="28.84668" y2="43.4375"/>
    <line class="cls-2" x1="26.34668" y1="60.4375" x2="31.34668" y2="60.4375"/>
    <g>
      <polyline class="cls-3" points="28.847 39.938 28.847 27.938 28.847 17.937 53.847 17.937 64.958 17.937"/>
      <path id="path5038" class="cls-3" d="M125.88889,65H137" transform="translate(-33.15332 -47.0625)"/>
      <rect id="rect5044" class="cls-3" x="64.95779" y="12.38194" width="27.77778" height="11.11111"/>
    </g>
    <path id="path1132" class="cls-3" d="M137,65h14" transform="translate(-33.15332 -47.0625)"/>
    <circle class="cls-3" cx="120.84668" cy="17.9375" r="3"/>
    <path id="path1132-2" data-name="path1132" class="cls-3" d="M151,135H62V113" transform="translate(-33.15332 -47.0625)"/>
    <circle class="cls-3" cx="120.84668" cy="87.9375" r="3"/>
    <g>
      <path d="M42.71191,96.62646c-.87548,0-.92334.10792-.9956.26368l-3.18994,7.208a.42346.42346,0,0,1-.48.28809c-.33594,0-.38379-.09619-.4795-.312l-3.31054-7.44776h-1.103v-.564c.41943.03613,1.42725.03613,1.895.03613.51562,0,1.667,0,2.12256-.03613v.564H36.04346l2.55468,5.74463,2.42286-5.457a.51526.51526,0,0,0,.04785-.144c0-.14356-.94776-.14356-1.05567-.14356v-.564c.46778.03613,1.0918.03613,1.57129.03613l1.35547-.03613v.564Z" transform="translate(-33.15332 -47.0625)"/>
      <path d="M44.65967,108.36279a1.04416,1.04416,0,0,1-.76856-.30029,1.53537,1.53537,0,0,0-.13965.16064c-.13281.13282-.14013.13965-.1748.13965-.07715,0-.07715-.04883-.07715-.16748V107.273c0-.126,0-.17481.09082-.17481.07031,0,.07715.02784.09815.11866.13281.59424.38427.99267.97119.99267.54541,0,.79-.27978.79-.63623,0-.50293-.57325-.61474-.72705-.64306a1.829,1.829,0,0,1-.92237-.32129.74471.74471,0,0,1-.30078-.59424c0-.39111.26563-.85938,1.11817-.85938a1.07684,1.07684,0,0,1,.65722.1958.91812.91812,0,0,0,.11865-.11181c.09083-.084.105-.084.13965-.084.07715,0,.07715.04883.07715.16748v.70606c0,.13281,0,.168-.09082.168,0,0-.07715,0-.084-.063a.77113.77113,0,0,0-.81787-.8457c-.60108,0-.78272.28662-.78272.53125,0,.40527.46826.49609.85986.57275a1.42567,1.42567,0,0,1,.79639.33545.9014.9014,0,0,1,.29346.66406C45.78467,107.895,45.46338,108.36279,44.65967,108.36279Z" transform="translate(-33.15332 -47.0625)"/>
    </g>
    <path d="M115.36133,55.29h-6.36865c-.26368,0-.38379,0-.38379-.312a.41561.41561,0,0,1,.0957-.31153l4.79785-7.04h-1.55957c-1.67871,0-2.48242.73145-2.57861,2.32667h-.56348l.144-2.89063h6.16456c.25195,0,.38378,0,.38378.2998a.36486.36486,0,0,1-.09619.28809l-4.78515,7.02783h1.6792c2.45849,0,2.62646-1.46289,2.72216-2.79443h.564Z" transform="translate(-33.15332 -47.0625)"/>
  </g>
  <g>
    <line class="cls-4" x1="137.36497" y1="52.9375" x2="169.32838" y2="52.9375"/>
    <polygon points="142.004 58.663 142.959 57.638 137.902 52.939 142.959 48.238 142.004 47.213 135.847 52.939 142.004 58.663"/>
    <polygon points="164.689 58.663 163.735 57.638 168.791 52.939 163.735 48.238 164.689 47.213 170.847 52.939 164.689 58.663"/>
  </g>
  <g>
    <circle class="cls-3" cx="208.00537" cy="52.9375" r="12.5"/>
    <polyline class="cls-3" points="208.005 39.938 208.005 27.938 208.005 17.937 283.005 17.938 297.005 17.938"/>
    <g>
      <polyline class="cls-5" points="208.005 59.938 208.005 45.938 211.005 48.938"/>
      <line class="cls-5" x1="208.00537" y1="45.9375" x2="205.00537" y2="48.9375"/>
    </g>
    <g>
      <path id="path1132-3" data-name="path1132" class="cls-3" d="M330.15869,135h-39l0-10V113.88889" transform="translate(-33.15332 -47.0625)"/>
      <path id="path5038-2" data-name="path5038" class="cls-3" d="M291.15864,86.11111V64.99994" transform="translate(-33.15332 -47.0625)"/>
      <rect id="rect5044-2" data-name="rect5044" class="cls-3" x="252.44982" y="39.04861" width="11.11111" height="27.77778"/>
    </g>
    <circle class="cls-3" cx="300.00537" cy="17.9375" r="3"/>
    <circle class="cls-3" cx="300.00537" cy="87.9375" r="3"/>
    <path d="M309.51953,104.29h-6.36816c-.26367,0-.38379,0-.38379-.312a.41561.41561,0,0,1,.0957-.31153l4.79785-7.04h-1.55957c-1.67871,0-2.48242.73145-2.57812,2.32667H302.959l.14454-2.89063h6.16406c.25195,0,.38476,0,.38476.2998a.36366.36366,0,0,1-.09668.28809l-4.78515,7.02783h1.67871c2.459,0,2.62695-1.46289,2.72266-2.79443h.56445Z" transform="translate(-33.15332 -47.0625)"/>
    <g>
      <path d="M218.61475,103.25391c-.55176,0-1.727,0-2.21875.03613v-.56348h1.36718v-7.1001H216.396v-.564c.4917.03613,1.667.03613,2.21875.03613.55127,0,1.72705,0,2.21875-.03613v.564h-1.36719v7.1001h1.36719V103.29C220.3418,103.25391,219.166,103.25391,218.61475,103.25391Z" transform="translate(-33.15332 -47.0625)"/>
      <path d="M222.62256,107.36279a1.04416,1.04416,0,0,1-.76856-.30029,1.53207,1.53207,0,0,0-.13964.16064c-.13282.13282-.14014.13965-.17481.13965-.07715,0-.07715-.04883-.07715-.16748V106.273c0-.126,0-.17481.09082-.17481.06983,0,.07715.02784.09815.11866.13281.59424.38427.99267.97119.99267.54541,0,.78955-.27978.78955-.63623,0-.50293-.57275-.61474-.72656-.64306a1.83087,1.83087,0,0,1-.92237-.32129.74471.74471,0,0,1-.30078-.59424c0-.39111.26563-.85938,1.11817-.85938a1.07684,1.07684,0,0,1,.65722.1958.9182.9182,0,0,0,.11866-.11181c.09082-.084.105-.084.13964-.084.07715,0,.07715.04883.07715.16748v.70606c0,.13281,0,.168-.09082.168,0,0-.07715,0-.084-.063a.77113.77113,0,0,0-.81787-.8457c-.60108,0-.78272.28662-.78272.53125,0,.40527.46826.49609.85986.57275a1.42567,1.42567,0,0,1,.79639.33545.90134.90134,0,0,1,.29395.66406C223.74805,106.895,223.42627,107.36279,222.62256,107.36279Z" transform="translate(-33.15332 -47.0625)"/>
    </g>
    <polyline class="cls-3" points="258.005 87.938 208.005 87.938 208.005 77.938 208.005 65.938"/>
  </g>
</svg>
