<?xml version="1.0" encoding="utf-8"?>
<!-- Generator: Adobe Illustrator 23.0.3, SVG Export Plug-In . SVG Version: 6.00 Build 0)  -->
<svg version="1.1" id="Layer_1" xmlns="http://www.w3.org/2000/svg" xmlns:xlink="http://www.w3.org/1999/xlink" x="0px" y="0px"
	 viewBox="0 0 304.00537 91.9375" style="enable-background:new 0 0 304.00537 91.9375;" xml:space="preserve">
<style type="text/css">
	.st0{fill:none;stroke:#8FF4DD;stroke-width:2;stroke-linecap:round;}
	.st1{fill:none;stroke:#8FF4DD;stroke-width:1.5;stroke-linecap:square;}
	.st2{fill:none;stroke:#8FF4DD;stroke-width:2;stroke-linecap:round;stroke-linejoin:round;}
	.st3{fill:#8FF4DD;}
	.st4{fill:none;stroke:#8FF4DD;stroke-width:2;}
	.st5{fill:none;stroke:#8FF4DD;stroke-width:2;stroke-linecap:square;stroke-linejoin:round;}
</style>
<title>SourceTransformation</title>
<g>
	<circle class="st0" cx="28.84668" cy="52.9375" r="12.5"/>
	<line class="st1" x1="26.34668" y1="45.9375" x2="31.34668" y2="45.9375"/>
	<line class="st1" x1="28.84668" y1="48.4375" x2="28.84668" y2="43.4375"/>
	<line class="st1" x1="26.34668" y1="60.4375" x2="31.34668" y2="60.4375"/>
	<g>
		<polyline class="st2" points="28.847,39.938 28.847,27.938 28.847,17.937 53.847,17.937 64.958,17.937 		"/>
		<path id="path5038" class="st2" d="M92.73557,17.9375h11.11111"/>
		<rect id="rect5044" x="64.95779" y="12.38194" class="st2" width="27.77778" height="11.11111"/>
	</g>
	<path id="path1132" class="st2" d="M103.84668,17.9375h14"/>
	<circle class="st2" cx="120.84668" cy="17.9375" r="3"/>
	<path id="path1132-2" class="st2" d="M117.84668,87.9375h-89v-22"/>
	<circle class="st2" cx="120.84668" cy="87.9375" r="3"/>
	<g>
		<path class="st3" d="M9.55859,49.56396c-0.87548,0-0.92334,0.10792-0.9956,0.26368l-3.18994,7.208
			c-0.06465,0.20318-0.27029,0.3266-0.48,0.28809c-0.33594,0-0.38379-0.09619-0.4795-0.312l-3.31054-7.44776h-1.103v-0.564
			c0.41943,0.03613,1.42725,0.03613,1.895,0.03613c0.51562,0,1.667,0,2.12256-0.03613v0.564H2.89014l2.55468,5.74463l2.42286-5.457
			c0.02297-0.04537,0.03909-0.0939,0.04785-0.144c0-0.14356-0.94776-0.14356-1.05567-0.14356v-0.564
			c0.46778,0.03613,1.0918,0.03613,1.57129,0.03613l1.35547-0.03613v0.564L9.55859,49.56396z"/>
		<path class="st3" d="M10.97573,61.30001c-0.42171,0.01423-0.83072-0.14558-1.13108-0.44194
			c-0.07389,0.07395-0.14256,0.15295-0.20552,0.23641C9.44367,61.28995,9.4329,61.3,9.38187,61.3
			c-0.11354,0-0.11354-0.07186-0.11354-0.24648v-1.35735c0-0.18543,0-0.25727,0.13366-0.25727
			c0.10347,0,0.11354,0.04097,0.14444,0.17463c0.19545,0.87453,0.56553,1.4609,1.4293,1.4609
			c0.80268,0,1.16264-0.41175,1.16264-0.93634c0-0.74016-0.84365-0.90471-1.06999-0.94638
			c-0.48698-0.03165-0.95619-0.19509-1.35745-0.47284c-0.27695-0.20561-0.44095-0.52961-0.44266-0.87454
			c0-0.5756,0.39092-1.26475,1.64561-1.26475c0.3452-0.01191,0.68483,0.08928,0.96722,0.28816
			c0.06297-0.04956,0.1214-0.10463,0.17461-0.16455c0.13368-0.12362,0.15453-0.12362,0.20552-0.12362
			c0.11354,0,0.11354,0.07186,0.11354,0.24648v1.0391c0,0.19546,0,0.24725-0.13366,0.24725c0,0-0.11354,0-0.12362-0.09272
			c0.06196-0.6237-0.39342-1.17953-1.01712-1.24149c-0.06199-0.00615-0.12437-0.0072-0.18653-0.00312
			c-0.88461,0-1.15192,0.42182-1.15192,0.78184c0,0.59644,0.68914,0.73009,1.26545,0.84291
			c0.43234,0.03934,0.84185,0.21183,1.17204,0.49368c0.27459,0.25083,0.43128,0.6054,0.43188,0.9773
			C12.63138,60.61156,12.15854,61.30001,10.97573,61.30001z"/>
		<path class="st3" d="M190.58247,61.02324c-0.42172,0.01423-0.83072-0.14558-1.13109-0.44194
			c-0.0739,0.07395-0.14256,0.15295-0.20552,0.23641c-0.19545,0.19547-0.20622,0.20552-0.25725,0.20552
			c-0.11354,0-0.11354-0.07186-0.11354-0.24648V59.4194c0-0.18543,0-0.25727,0.13365-0.25727
			c0.10347,0,0.11354,0.04097,0.14445,0.17463c0.19545,0.87453,0.56552,1.4609,1.42929,1.4609
			c0.80267,0,1.16264-0.41175,1.16264-0.93634c0-0.74016-0.84366-0.90471-1.07001-0.94638
			c-0.48697-0.03165-0.95619-0.19509-1.35744-0.47284c-0.27695-0.20561-0.44095-0.52961-0.44266-0.87454
			c0-0.5756,0.39091-1.26475,1.6456-1.26475c0.3452-0.01191,0.68483,0.08928,0.96722,0.28816
			c0.06297-0.04956,0.12141-0.10464,0.17462-0.16455c0.13367-0.12362,0.15453-0.12362,0.20552-0.12362
			c0.11354,0,0.11354,0.07186,0.11354,0.24648v1.0391c0,0.19546,0,0.24725-0.13367,0.24725c0,0-0.11354,0-0.12363-0.09272
			c0.06197-0.6237-0.39342-1.17953-1.01712-1.24149c-0.06198-0.00615-0.12437-0.0072-0.18652-0.00312
			c-0.88461,0-1.15193,0.42182-1.15193,0.78184c0,0.59644,0.68915,0.73009,1.26546,0.84291
			c0.43234,0.03934,0.84184,0.21183,1.17204,0.49368c0.27458,0.25083,0.43127,0.6054,0.43188,0.9773
			C192.23813,60.33479,191.76527,61.02324,190.58247,61.02324z"/>
	</g>
	<path class="st3" d="M82.20801,8.2275h-6.36865c-0.26368,0-0.38379,0-0.38379-0.312
		c-0.01184-0.11254,0.02272-0.22505,0.0957-0.31153l4.79785-7.04h-1.55957c-1.67871,0-2.48242,0.73145-2.57861,2.32667h-0.56348
		l0.144-2.89063h6.16456c0.25195,0,0.38378,0,0.38378,0.2998c0.01133,0.10545-0.02378,0.2106-0.09619,0.28809l-4.78515,7.02783
		h1.6792c2.45849,0,2.62646-1.46289,2.72216-2.79443h0.564L82.20801,8.2275z"/>
</g>
<g>
	<line class="st4" x1="137.36497" y1="52.9375" x2="169.32838" y2="52.9375"/>
	<polygon class="st3" points="142.004,58.663 142.959,57.638 137.90199,52.939 142.959,48.238 142.004,47.213 135.847,52.939 	"/>
	<polygon class="st3" points="164.689,58.663 163.735,57.638 168.791,52.939 163.735,48.238 164.689,47.213 170.847,52.939 	"/>
</g>
<g>
	<circle class="st2" cx="208.00537" cy="52.9375" r="12.5"/>
	<polyline class="st2" points="208.005,39.938 208.005,27.938 208.005,17.937 283.005,17.938 297.005,17.938 	"/>
	<g>
		<polyline class="st5" points="208.005,59.938 208.005,45.938 211.005,48.938 		"/>
		<line class="st5" x1="208.00537" y1="45.9375" x2="205.00537" y2="48.9375"/>
	</g>
	<g>
		<path id="path1132-3" class="st2" d="M297.00537,87.9375h-39v-10V66.82639"/>
		<path id="path5038-2" class="st2" d="M258.00531,39.04861V17.93744"/>
		<rect id="rect5044-2" x="252.44981" y="39.04861" class="st2" width="11.1111" height="27.77778"/>
	</g>
	<circle class="st2" cx="300.00537" cy="17.9375" r="3"/>
	<circle class="st2" cx="300.00537" cy="87.9375" r="3"/>
	<path class="st3" d="M276.36621,57.2275h-6.36816c-0.26367,0-0.38379,0-0.38379-0.312
		c-0.01184-0.11254,0.02271-0.22504,0.0957-0.31153l4.79785-7.04h-1.55957c-1.67871,0-2.48242,0.73145-2.57813,2.32667h-0.56442
		l0.14453-2.89063h6.16406c0.25195,0,0.38477,0,0.38477,0.2998c0.01135,0.10554-0.02396,0.21078-0.09668,0.28809l-4.78516,7.02783
		h1.67871c2.45901,0,2.62695-1.46289,2.72266-2.79443h0.56445L276.36621,57.2275z"/>
	<g>
		<path class="st3" d="M185.46143,56.19141c-0.55176,0-1.72701,0-2.21875,0.03613v-0.56348h1.36719v-7.1001h-1.36719v-0.564
			c0.4917,0.03613,1.66701,0.03613,2.21875,0.03613c0.55127,0,1.72705,0,2.21875-0.03613v0.564h-1.36719v7.1001h1.36719v0.56344
			C187.18848,56.19141,186.01268,56.19141,185.46143,56.19141z"/>
	</g>
	<polyline class="st2" points="258.005,87.938 208.005,87.938 208.005,77.938 208.005,65.938 	"/>
</g>
</svg>
