<svg id="Layer_1" data-name="Layer 1" xmlns="http://www.w3.org/2000/svg" viewBox="0 0 106 32">
  <defs>
    <style>
      .cls-1 {
        fill: #8ff4dd;
      }

      .cls-2, .cls-3 {
        fill: none;
        stroke: #8ff4dd;
        stroke-miterlimit: 10;
      }

      .cls-2 {
        stroke-width: 2px;
      }

      .cls-3 {
        stroke-width: 0.5px;
      }
    </style>
  </defs>
  <title>SRLatches</title>
  <path class="cls-1" d="M15.2,9.4a2.20486,2.20486,0,0,1-1.5-.6c-.3.4-.3.5-.3.5l-.1.1c-.1,0-.1-.1-.1-.2V7.6c0-.1,0-.2.1-.2a.09794.09794,0,0,1,.1.1h0a1.656,1.656,0,0,0,.5,1.2,2.00984,2.00984,0,0,0,1.3.4A1.10976,1.10976,0,0,0,16.3,8h0a1.44531,1.44531,0,0,0-.2-.7,1.0122,1.0122,0,0,0-.7-.4,2.99234,2.99234,0,0,1-1.1-.3,1.70034,1.70034,0,0,1-1-2,1.42108,1.42108,0,0,1,1.5-1,1.61246,1.61246,0,0,1,1.3.6l.3-.5.1-.1c.1,0,.1.1.1.2V5.4c0,.2,0,.2-.1.2s-.1,0-.1-.1a1.60188,1.60188,0,0,0-1.6-1.7,1.17518,1.17518,0,0,0-1.1,1,.97381.97381,0,0,0,.8,1l1,.2a1.71157,1.71157,0,0,1,1.2,1.6,1.562,1.562,0,0,1-1.5,1.8Z"/>
  <path class="cls-1" d="M17,27.8a1.68938,1.68938,0,0,1-1-.3c-.3-.3-.3-.6-.3-1.1s0-.8-.3-1.1a1.08024,1.08024,0,0,0-.7-.3h-.9v2c0,.3,0,.4.6.4h.2v.2H12.2v-.2h.2c.6,0,.6-.1.6-.4V22.8c0-.3,0-.4-.6-.4h-.2v-.2h2.5c1.2,0,2.1.7,2.1,1.4,0,.6-.6,1.1-1.4,1.3a1.50328,1.50328,0,0,1,1,.9l.1.6c.1.7.2,1.2.6,1.2.2,0,.5-.1.5-.7,0-.1,0-.1.1-.1a.09794.09794,0,0,1,.1.1A.79454.79454,0,0,1,17,27.8Zm-2.6-5.4h-.5c-.2,0-.2.1-.2.3v2.1h.9c1.2,0,1.4-.6,1.4-1.2C16,22.5,15.1,22.4,14.4,22.4Z"/>
  <g>
    <rect class="cls-2" x="10" y="1" width="30" height="30"/>
    <line class="cls-2" x1="10" y1="6" y2="6"/>
    <line class="cls-2" x1="10" y1="26" y2="26"/>
    <line class="cls-2" x1="50" y1="6" x2="40" y2="6"/>
    <line class="cls-2" x1="50" y1="26" x2="40" y2="26"/>
    <line class="cls-3" x1="32.5" y1="20.5" x2="37.5" y2="20.5"/>
  </g>
  <rect class="cls-2" x="66" y="1" width="30" height="30"/>
  <line class="cls-2" x1="66" y1="6" x2="56" y2="6"/>
  <line class="cls-2" x1="66" y1="26" x2="56" y2="26"/>
  <line class="cls-2" x1="106" y1="6" x2="96" y2="6"/>
  <line class="cls-2" x1="106" y1="26" x2="96" y2="26"/>
  <line class="cls-3" x1="88.5" y1="20.5" x2="93.5" y2="20.5"/>
  <g>
    <path class="cls-1" d="M73,27.8a1.68938,1.68938,0,0,1-1-.3c-.3-.3-.3-.6-.3-1.1s0-.8-.3-1.1a1.08022,1.08022,0,0,0-.7-.3h-.9v2c0,.3,0,.4.6.4h.2v.2H68.2v-.2h.2c.6,0,.6-.1.6-.4V22.8c0-.3,0-.4-.6-.4h-.2v-.2h2.5c1.2,0,2.1.7,2.1,1.4,0,.6-.6,1.1-1.4,1.3a1.50326,1.50326,0,0,1,1,.9l.1.6c.1.7.2,1.2.6,1.2.2,0,.5-.1.5-.7,0-.1,0-.1.1-.1a.09794.09794,0,0,1,.1.1A.79453.79453,0,0,1,73,27.8Zm-2.6-5.4h-.5c-.2,0-.2.1-.2.3v2.1h.9c1.2,0,1.4-.6,1.4-1.2C72,22.5,71.1,22.4,70.4,22.4Z"/>
    <line class="cls-3" x1="68" y1="21.5" x2="73" y2="21.5"/>
  </g>
  <g>
    <path class="cls-1" d="M70.7,9.9a2.20486,2.20486,0,0,1-1.5-.6c-.3.4-.3.5-.3.5l-.1.1c-.1,0-.1-.1-.1-.2V8.1c0-.1,0-.2.1-.2a.09793.09793,0,0,1,.1.1h0a1.656,1.656,0,0,0,.5,1.2,2.00989,2.00989,0,0,0,1.3.4,1.10976,1.10976,0,0,0,1.1-1.1h0a1.44531,1.44531,0,0,0-.2-.7,1.0122,1.0122,0,0,0-.7-.4,2.99234,2.99234,0,0,1-1.1-.3,1.70035,1.70035,0,0,1-1-2,1.42109,1.42109,0,0,1,1.5-1,1.6125,1.6125,0,0,1,1.3.6l.3-.5.1-.1c.1,0,.1.1.1.2V5.9c0,.2,0,.2-.1.2s-.1,0-.1-.1a1.60188,1.60188,0,0,0-1.6-1.7,1.17518,1.17518,0,0,0-1.1,1,.97382.97382,0,0,0,.8,1l1,.2a1.71157,1.71157,0,0,1,1.2,1.6,1.562,1.562,0,0,1-1.5,1.8Z"/>
    <line class="cls-3" x1="68" y1="3" x2="73" y2="3"/>
  </g>
  <path class="cls-1" d="M36.542,29.15039c-.71972,0-.82373-.6875-.95166-1.50293a2.4579,2.4579,0,0,1-.75146.12012,2.75383,2.75383,0,0,1-2.61475-2.87891,2.62678,2.62678,0,1,1,5.22119,0,2.8884,2.8884,0,0,1-1.623,2.66309c.19189.55957.376.85547.78369.85547a.75593.75593,0,0,0,.72754-.76758c.00781-.05567.00781-.11231.07177-.11231.08008,0,.08008.07227.08008.15235C37.48535,27.752,37.47754,29.15039,36.542,29.15039Zm-1.71094-7.00391c-.7998,0-1.87939.74317-1.87939,2.73438,0,1.72754.7998,2.415,1.3916,2.62305a.77493.77493,0,0,1-.12793-.40821.64633.64633,0,0,1,.63135-.67187c.52,0,.74365.47168.87988.87207a2.78393,2.78393,0,0,0,.99121-2.415C36.71777,22.91406,35.67041,22.14648,34.83105,22.14648Zm.01563,4.4375a.48873.48873,0,0,0-.47168.50391.47706.47706,0,0,0,.46387.50391,1.53369,1.53369,0,0,0,.71142-.18457C35.4624,26.96,35.30273,26.584,34.84668,26.584Z"/>
  <path class="cls-1" d="M36.542,10.95068c-.71972,0-.82373-.6875-.95166-1.50293a2.4579,2.4579,0,0,1-.75146.12012A2.75383,2.75383,0,0,1,32.22412,6.689a2.62678,2.62678,0,1,1,5.22119,0,2.8884,2.8884,0,0,1-1.623,2.66309c.19189.55957.376.85547.78369.85547a.75593.75593,0,0,0,.72754-.76758c.00781-.05566.00781-.1123.07177-.1123.08008,0,.08008.07226.08008.15234C37.48535,9.55225,37.47754,10.95068,36.542,10.95068Zm-1.71094-7.0039c-.7998,0-1.87939.74365-1.87939,2.73437,0,1.72754.7998,2.415,1.3916,2.62305a.77485.77485,0,0,1-.12793-.4082.64634.64634,0,0,1,.63135-.67188c.52,0,.74365.47168.87988.87207a2.78392,2.78392,0,0,0,.99121-2.415C36.71777,4.71436,35.67041,3.94678,34.83105,3.94678Zm.01563,4.4375a.48872.48872,0,0,0-.47168.5039.47705.47705,0,0,0,.46387.50391,1.53357,1.53357,0,0,0,.71142-.18457C35.4624,8.76025,35.30273,8.38428,34.84668,8.38428Z"/>
  <path class="cls-1" d="M92.6543,10.9502c-.71973,0-.82325-.6875-.95117-1.50293a2.46155,2.46155,0,0,1-.752.12011,2.75377,2.75377,0,0,1-2.61426-2.8789,2.62657,2.62657,0,1,1,5.22071,0,2.8884,2.8884,0,0,1-1.62305,2.66308c.19238.55957.376.85547.78418.85547a.75651.75651,0,0,0,.72754-.76758c.00781-.05566.00781-.1123.07129-.1123.08008,0,.08008.07226.08008.15234C93.59766,9.55176,93.58984,10.9502,92.6543,10.9502ZM90.94336,3.94629c-.79981,0-1.87891.74365-1.87891,2.73437,0,1.72754.79981,2.415,1.3916,2.62305a.77025.77025,0,0,1-.12792-.4082.64593.64593,0,0,1,.63085-.67188c.52051,0,.74415.47168.87989.87207a2.78392,2.78392,0,0,0,.99121-2.415C92.83008,4.71387,91.7832,3.94629,90.94336,3.94629Zm.01562,4.4375a.48873.48873,0,0,0-.47168.50391.477.477,0,0,0,.46387.5039,1.53694,1.53694,0,0,0,.71192-.18457C91.5752,8.75977,91.415,8.38379,90.959,8.38379Z"/>
  <path class="cls-1" d="M92.6543,29.15039c-.71973,0-.82325-.6875-.95117-1.50293a2.46124,2.46124,0,0,1-.752.12012,2.75378,2.75378,0,0,1-2.61426-2.87891,2.62657,2.62657,0,1,1,5.22071,0,2.88841,2.88841,0,0,1-1.62305,2.66309c.19238.55957.376.85547.78418.85547a.75652.75652,0,0,0,.72754-.76758c.00781-.05567.00781-.11231.07129-.11231.08008,0,.08008.07227.08008.15235C93.59766,27.752,93.58984,29.15039,92.6543,29.15039Zm-1.71094-7.00391c-.79981,0-1.87891.74317-1.87891,2.73438,0,1.72754.79981,2.415,1.3916,2.62305a.77034.77034,0,0,1-.12792-.40821.64592.64592,0,0,1,.63085-.67187c.52051,0,.74415.47168.87989.87207a2.78393,2.78393,0,0,0,.99121-2.415C92.83008,22.91406,91.7832,22.14648,90.94336,22.14648ZM90.959,26.584a.48873.48873,0,0,0-.47168.50391.47706.47706,0,0,0,.46387.50391,1.53707,1.53707,0,0,0,.71192-.18457C91.5752,26.96,91.415,26.584,90.959,26.584Z"/>
</svg>
