<svg xmlns="http://www.w3.org/2000/svg" viewBox="0 0 152.09424 137">
  <defs>
    <style>
      .cls-1 {
        fill: #8ff4dd;
      }

      .cls-2, .cls-3 {
        fill: none;
        stroke: #8ff4dd;
        stroke-miterlimit: 10;
      }

      .cls-3 {
        stroke-width: 2px;
      }
    </style>
  </defs>
  <title>SRLatchTiming</title>
  <g id="Layer_1" data-name="Layer 1">
    <path class="cls-1" d="M42.646,29.80225a3.50942,3.50942,0,0,1-2.57764-.98047c-.4624.74218-.5044.79834-.5044.79834-.09765.15429-.11181.18213-.21.18213-.1538,0-.1538-.09815-.1538-.33594V26.66455c0-.25195,0-.3501.18164-.3501a.14633.14633,0,0,1,.16845.14014,2.8322,2.8322,0,0,0,.86817,2.15723,3.38093,3.38093,0,0,0,2.21338.75634,1.92046,1.92046,0,0,0,1.877-2.00293,2.04817,2.04817,0,0,0-.43408-1.28906,1.86138,1.86138,0,0,0-1.19092-.71435c-.98047-.2378-1.69483-.40625-1.84863-.46241a2.71349,2.71349,0,0,1,.89648-5.28076,2.88424,2.88424,0,0,1,2.24121.98047l.49024-.79834c.09765-.168.11181-.18213.21-.18213.15429,0,.15429.09815.15429.33643v2.81543c0,.26611,0,.33594-.18213.33594-.15429,0-.15429-.084-.16845-.168-.084-.63037-.39209-2.92725-2.73145-2.92725a1.83091,1.83091,0,0,0-.43408,3.61377l1.793.43408a2.86593,2.86593,0,0,1,2.10107,2.82959A2.80793,2.80793,0,0,1,42.646,29.80225Z" transform="translate(-37.90576 -9)"/>
    <path class="cls-1" d="M46.33838,64.80225a2.7268,2.7268,0,0,1-1.76514-.58838c-.57422-.53223-.57422-1.09229-.57422-2.00293,0-.93848,0-1.37256-.53222-1.877a1.78452,1.78452,0,0,0-1.30274-.47656H40.55322v3.544c0,.50439.02783.65869,1.10645.65869h.33642v.43408c-.50439-.042-1.499-.042-2.04541-.042-.54589,0-1.54052,0-2.04492.042v-.43408h.33643c1.07812,0,1.10644-.1543,1.10644-.65869V56.01953c0-.50439-.02832-.6582-1.10644-.6582h-.33643v-.43457H42.3042c2.05908,0,3.65576,1.17676,3.65576,2.52148,0,1.09278-1.09228,1.94727-2.45117,2.28321a2.42885,2.42885,0,0,1,1.709,1.625l.18213,1.1206c.1958,1.30274.30811,2.01709.99463,2.01709.3501,0,.84033-.252.92432-1.24658.01416-.09815.01416-.22412.168-.22412.18213,0,.18213.15381.18213.23828C47.669,63.65381,47.43115,64.80225,46.33838,64.80225ZM41.688,55.36133a6.90512,6.90512,0,0,0-.82666.02783c-.30811.042-.30811.21-.30811.53223v3.62793h1.55469c2.07324,0,2.40967-1.13428,2.40967-2.10108C44.51758,55.417,42.94873,55.36133,41.688,55.36133Z" transform="translate(-37.90576 -9)"/>
    <path class="cls-1" d="M45.49316,99.86523a7.58047,7.58047,0,0,1,.24024.76563,3.65157,3.65157,0,0,0,.45947,1.18262.63267.63267,0,0,0,.499.27343.53583.53583,0,0,0,.44776-.292,1.951,1.951,0,0,0,.20166-.97265h.41015a2.894,2.894,0,0,1-.47851,1.81689,1.50872,1.50872,0,0,1-1.23047.58252,1.38709,1.38709,0,0,1-1.145-.564,4.39221,4.39221,0,0,1-.58447-2.16357,6.71273,6.71273,0,0,1-.73828.14356,5.105,5.105,0,0,1-.67676.04785,4.40932,4.40932,0,0,1-2.34815-.65967,4.63784,4.63784,0,0,1-1.709-1.89356,6.0213,6.0213,0,0,1-.63232-2.78564,5.36677,5.36677,0,0,1,1.42871-3.75977,4.20142,4.20142,0,0,1,3.22656-1.415,4.43066,4.43066,0,0,1,2.3584.65283,4.70331,4.70331,0,0,1,1.709,1.873,5.66867,5.66867,0,0,1-1.438,7.16748Zm-.33935-.94335a5.71569,5.71569,0,0,0,.54-1.50928,10.14384,10.14384,0,0,0,.1709-2.03565,7.96078,7.96078,0,0,0-.376-2.72168,3.04275,3.04275,0,0,0-1.05957-1.479,2.63342,2.63342,0,0,0-1.54492-.478,2.56609,2.56609,0,0,0-1.521.478A3.0914,3.0914,0,0,0,40.31055,92.669a8.08864,8.08864,0,0,0-.3794,2.75585,8.60466,8.60466,0,0,0,.22559,2.11084,6.19861,6.19861,0,0,0,.7041,1.67334q-.01392-.31347-.01367-.50439a1.88737,1.88737,0,0,1,.54346-1.39063,1.92292,1.92292,0,0,1,1.42529-.54541,2.04014,2.04014,0,0,1,1.49023.59278A4.27892,4.27892,0,0,1,45.15381,98.92188ZM44.313,99.79a3.95674,3.95674,0,0,0-.32129-1.78418,1.27773,1.27773,0,0,0-1.19629-.71094,1.40514,1.40514,0,0,0-1.46289,1.46973,1.81709,1.81709,0,0,0,.50586,1.2168,2.52186,2.52186,0,0,0,1.01855.21191,2.82554,2.82554,0,0,0,.77246-.10254A2.68614,2.68614,0,0,0,44.313,99.79Z" transform="translate(-37.90576 -9)"/>
    <path class="cls-1" d="M45.49316,133.86523a7.58047,7.58047,0,0,1,.24024.76563,3.65157,3.65157,0,0,0,.45947,1.18262.63267.63267,0,0,0,.499.27343.53583.53583,0,0,0,.44776-.292,1.951,1.951,0,0,0,.20166-.97265h.41015a2.894,2.894,0,0,1-.47851,1.81689,1.50872,1.50872,0,0,1-1.23047.58252,1.38709,1.38709,0,0,1-1.145-.564,4.39221,4.39221,0,0,1-.58447-2.16357,6.71273,6.71273,0,0,1-.73828.14356,5.105,5.105,0,0,1-.67676.04785,4.40932,4.40932,0,0,1-2.34815-.65967,4.63784,4.63784,0,0,1-1.709-1.89356,6.0213,6.0213,0,0,1-.63232-2.78564,5.36677,5.36677,0,0,1,1.42871-3.75977,4.20142,4.20142,0,0,1,3.22656-1.415,4.43066,4.43066,0,0,1,2.3584.65283,4.70331,4.70331,0,0,1,1.709,1.873,5.66867,5.66867,0,0,1-1.438,7.16748Zm-.33935-.94335a5.71569,5.71569,0,0,0,.54-1.50928,10.14384,10.14384,0,0,0,.1709-2.03565,7.96078,7.96078,0,0,0-.376-2.72168,3.04275,3.04275,0,0,0-1.05957-1.479,2.63342,2.63342,0,0,0-1.54492-.478,2.56609,2.56609,0,0,0-1.521.478,3.0914,3.0914,0,0,0-1.05273,1.49268,8.08864,8.08864,0,0,0-.3794,2.75585,8.60466,8.60466,0,0,0,.22559,2.11084,6.19861,6.19861,0,0,0,.7041,1.67334q-.01392-.31347-.01367-.50439a1.88737,1.88737,0,0,1,.54346-1.39063,1.92292,1.92292,0,0,1,1.42529-.54541,2.04014,2.04014,0,0,1,1.49023.59278A4.27892,4.27892,0,0,1,45.15381,132.92188ZM44.313,133.79a3.95674,3.95674,0,0,0-.32129-1.78418,1.27773,1.27773,0,0,0-1.19629-.71094,1.40514,1.40514,0,0,0-1.46289,1.46973,1.81709,1.81709,0,0,0,.50586,1.2168,2.52186,2.52186,0,0,0,1.01855.21191,2.82554,2.82554,0,0,0,.77246-.10254A2.68614,2.68614,0,0,0,44.313,133.79Z" transform="translate(-37.90576 -9)"/>
    <line class="cls-2" x1="0.57422" y1="113.5" x2="9.57422" y2="113.5"/>
  </g>
  <g id="Layer_2" data-name="Layer 2">
    <polyline class="cls-3" points="12.094 121 22.094 121 22.094 136 62.094 136 87.094 136 87.094 121 87.094 106 152.094 106"/>
    <polyline class="cls-3" points="12.094 86 22.094 86 22.094 71 87.094 71 87.094 101 152.094 101"/>
    <polyline class="cls-3" points="12.094 51 22.094 51 22.094 66 87.094 66 87.094 36 120.094 36 120.094 66 152.094 66"/>
    <polyline class="cls-3" points="12.094 16 22.094 16 22.094 1 55.094 1 55.094 31 152.094 31"/>
  </g>
</svg>
