<svg id="Layer_1" data-name="Layer 1" xmlns="http://www.w3.org/2000/svg" viewBox="0 0 175.99294 84.28672">
  <defs>
    <style>
      .cls-1 {
        fill: #8ff4dd;
      }

      .cls-2, .cls-3, .cls-4, .cls-5 {
        fill: none;
        stroke: #8ff4dd;
      }

      .cls-2 {
        stroke-width: 1.5px;
      }

      .cls-3, .cls-4 {
        stroke-width: 2px;
      }

      .cls-4 {
        stroke-linecap: square;
      }

      .cls-4, .cls-5 {
        stroke-miterlimit: 10;
      }

      .cls-5 {
        stroke-width: 0.5px;
      }
    </style>
  </defs>
  <title>SRLatchControl</title>
  <g>
    <g>
      <path class="cls-1" d="M113.4968,6.06369V28.28591h11.37565a11.11111,11.11111,0,1,0,0-22.22222Zm1.58729,1.5873h9.78836a9.19009,9.19009,0,0,1,9.265,9.11452q.00168.20468-.00577.40929a9.40935,9.40935,0,0,1-9.29347,9.52381q-.11517.00141-.23033,0h-9.5238Z" transform="translate(0 0.00081)"/>
      <path class="cls-2" d="M140.719,17.1748a2.22222,2.22222,0,1,1-2.22221-2.22222h0A2.22222,2.22222,0,0,1,140.719,17.1748Z" transform="translate(0 0.00081)"/>
      <line class="cls-3" x1="140.60791" y1="17.17561" x2="149.60791" y2="17.17561"/>
      <line class="cls-3" x1="114.60791" y1="11.17561" x2="99.60791" y2="11.17561"/>
      <line class="cls-3" x1="114.60791" y1="23.17561" x2="99.60791" y2="23.17561"/>
    </g>
    <g>
      <path class="cls-1" d="M113.4968,56.06369V78.28592h11.37565a11.11112,11.11112,0,1,0,0-22.22223Zm1.58729,1.58731h9.78836a9.19008,9.19008,0,0,1,9.265,9.11451q.00168.20469-.00577.40929a9.40935,9.40935,0,0,1-9.29347,9.52381q-.11517.00141-.23033,0h-9.5238Z" transform="translate(0 0.00081)"/>
      <path class="cls-2" d="M140.719,67.1748a2.22222,2.22222,0,1,1-2.22221-2.22222h0A2.22222,2.22222,0,0,1,140.719,67.1748Z" transform="translate(0 0.00081)"/>
      <line class="cls-3" x1="140.60791" y1="67.17561" x2="149.60791" y2="67.17561"/>
      <line class="cls-3" x1="114.60791" y1="61.17561" x2="99.60791" y2="61.17561"/>
      <line class="cls-3" x1="114.60791" y1="73.17561" x2="99.60791" y2="73.17561"/>
    </g>
    <g>
      <path class="cls-1" d="M47.4968.06369V22.28591H58.87245a11.11111,11.11111,0,0,0,0-22.22222ZM49.08409,1.651h9.78836a9.19009,9.19009,0,0,1,9.265,9.11452q.00168.20467-.00577.40929a9.40935,9.40935,0,0,1-9.29347,9.52381q-.11517.00141-.23033,0h-9.5238Z" transform="translate(0 0.00081)"/>
      <path class="cls-2" d="M74.719,11.1748a2.22222,2.22222,0,1,1-2.22221-2.22222h0A2.22222,2.22222,0,0,1,74.719,11.1748Z" transform="translate(0 0.00081)"/>
      <line class="cls-3" x1="74.60791" y1="11.17561" x2="83.60791" y2="11.17561"/>
      <line class="cls-3" x1="48.60791" y1="5.17561" x2="33.60791" y2="5.17561"/>
      <line class="cls-3" x1="48.60791" y1="17.17561" x2="33.60791" y2="17.17561"/>
    </g>
    <g>
      <path class="cls-1" d="M47.4968,62.06369V84.28592H58.87245a11.11112,11.11112,0,1,0,0-22.22223ZM49.08409,63.651h9.78836a9.19008,9.19008,0,0,1,9.265,9.11451q.00168.20469-.00577.40929a9.40935,9.40935,0,0,1-9.29347,9.52381q-.11517.00141-.23033,0h-9.5238Z" transform="translate(0 0.00081)"/>
      <path class="cls-2" d="M74.719,73.1748a2.22222,2.22222,0,1,1-2.22221-2.22222h0A2.22222,2.22222,0,0,1,74.719,73.1748Z" transform="translate(0 0.00081)"/>
      <line class="cls-3" x1="74.60791" y1="73.17561" x2="83.60791" y2="73.17561"/>
      <line class="cls-3" x1="48.60791" y1="67.17561" x2="33.60791" y2="67.17561"/>
      <line class="cls-3" x1="48.60791" y1="79.17561" x2="33.60791" y2="79.17561"/>
    </g>
  </g>
  <g>
    <polyline class="cls-4" points="99.608 23.176 99.608 33.176 149.608 51.176 149.608 67.176 164.608 67.176"/>
    <polyline class="cls-4" points="164.608 17.176 149.608 17.176 149.608 33.176 99.608 51.176 99.608 61.176"/>
    <line class="cls-4" x1="99.60791" y1="11.17561" x2="83.60791" y2="11.17561"/>
    <line class="cls-4" x1="99.60791" y1="73.17561" x2="83.60791" y2="73.17561"/>
    <circle class="cls-1" cx="149.60791" cy="17.17561" r="2.5"/>
    <circle class="cls-1" cx="149.60791" cy="67.17561" r="2.5"/>
    <path class="cls-1" d="M14.124,83.71923a2.33614,2.33614,0,0,1-1.51123-.50341c-.4917-.45606-.4917-.93554-.4917-1.71534,0-.80322,0-1.17529-.45556-1.60693a1.52857,1.52857,0,0,0-1.11524-.40771H9.17091V82.52c0,.43164.02392.564.94726.564h.2881v.37158c-.43165-.03613-1.28321-.03613-1.751-.03613s-1.31933,0-1.751.03613V83.084h.28759c.92382,0,.94776-.13232.94776-.564V76.1997c0-.43213-.02394-.564-.94776-.564H6.90427v-.37158h3.76564c1.76319,0,3.13037,1.00731,3.13037,2.15869,0,.93554-.93554,1.667-2.09864,1.95508a2.07847,2.07847,0,0,1,1.4629,1.39111l.15625.95947c.168,1.11525.26367,1.72705.85156,1.72705.29981,0,.71924-.21582.79151-1.06738.01172-.084.01172-.1919.14355-.1919.15625,0,.15625.13184.15625.20411C15.26367,82.7358,15.05957,83.71923,14.124,83.71923Zm-3.98143-8.08348a5.892,5.892,0,0,0-.708.02391c-.26368.03614-.26368.18019-.26368.45607v3.106h1.331c1.77539,0,2.063-.9712,2.063-1.79883C12.56491,75.68359,11.22168,75.63574,10.14259,75.63575Z" transform="translate(0 0.00081)"/>
    <path class="cls-1" d="M11.37791,8.71972a3.004,3.004,0,0,1-2.207-.83984c-.39551.63574-.43164.68359-.43164.68359-.084.13184-.09572.15625-.17969.15625-.13232,0-.13232-.084-.13232-.28808V6.03222c0-.21484,0-.29883.15625-.29883a.125.125,0,0,1,.14261.10447l.00139.01468A2.42859,2.42859,0,0,0,9.47066,7.7002a2.89159,2.89159,0,0,0,1.895.64746,1.64473,1.64473,0,0,0,1.60855-1.68012l-.00113-.03472A1.7519,1.7519,0,0,0,12.601,5.5293a1.59125,1.59125,0,0,0-1.01953-.6123c-.83935-.20313-1.45117-.34766-1.583-.39552A2.3233,2.3233,0,0,1,10.76605,0a2.46854,2.46854,0,0,1,1.919.83984L13.105.15625C13.189.0127,13.20068,0,13.28466,0c.13183,0,.13183.084.13183.28808V2.69824c0,.22851,0,.28808-.15576.28808-.13183,0-.13183-.07129-.144-.14355-.07178-.54-.33545-2.50684-2.33838-2.50684a1.56794,1.56794,0,0,0-.37207,3.09473l1.53516.37109A2.45443,2.45443,0,0,1,13.74075,6.2246a2.40472,2.40472,0,0,1-2.31224,2.49375Z" transform="translate(0 0.00081)"/>
    <line class="cls-4" x1="33.60791" y1="17.17561" x2="33.60791" y2="67.17561"/>
    <line class="cls-4" x1="33.60791" y1="42.17561" x2="18.60791" y2="42.17561"/>
    <line class="cls-4" x1="33.60791" y1="5.17561" x2="18.60791" y2="5.17561"/>
    <line class="cls-4" x1="33.60791" y1="79.17561" x2="18.60791" y2="79.17561"/>
    <g>
      <path class="cls-1" d="M0,36.8125H6.86768l.16407,2.92382H6.63917a3.8607,3.8607,0,0,0-.74023-1.93359A1.71008,1.71008,0,0,0,4.57862,37.252H2.88233a.40406.40406,0,0,0-.30957.11133.47869.47869,0,0,0-.10546.33984V40.791h.74218a1.22118,1.22118,0,0,0,.9668-.42772,2.07579,2.07579,0,0,0,.40039-1.3125H4.981v4.01367H4.57667a2.26378,2.26378,0,0,0-.40625-1.42676A1.29455,1.29455,0,0,0,3.145,41.207H2.4673v3.44532a.34371.34371,0,0,0,.125.2871.68261.68261,0,0,0,.418.09961H4.35112q2.18261,0,2.51661-2.78906H7.2896l-.14648,3.22851H.00005v-.43945H.59184a.75752.75752,0,0,0,.48681-.12012.43313.43313,0,0,0,.14063-.34863v-6.8672a.43581.43581,0,0,0-.123-.33984A.56453.56453,0,0,0,.70956,37.252H.00009Z" transform="translate(0 0.00081)"/>
      <path class="cls-1" d="M8.27391,39.98828l1.82226-.11133a9.04412,9.04412,0,0,1,.16406,1.207,2.6074,2.6074,0,0,1,.86914-.89648,2.17391,2.17391,0,0,1,1.13477-.29882,1.7984,1.7984,0,0,1,.91407.21385,1.50455,1.50455,0,0,1,.59179.67676,2.36185,2.36185,0,0,1,.22266,1.03711v2.67188a.56234.56234,0,0,0,.13476.4248.65232.65232,0,0,0,.45117.126h.38672v.43945H12.07078v-.43945h.27539a.88163.88163,0,0,0,.53906-.12305.44629.44629,0,0,0,.15235-.36914v-2.3496a2.16576,2.16576,0,0,0-.23438-1.13672,1.09375,1.09375,0,0,0-.99609-.52734,1.38,1.38,0,0,0-1.10547.5332,2.10282,2.10282,0,0,0-.44141,1.38867v2.03322a.55474.55474,0,0,0,.13672.42479.66708.66708,0,0,0,.45508.126h.38086v.43945H8.32664v-.43945H8.7075a.69315.69315,0,0,0,.43554-.11719.35928.35928,0,0,0,.15039-.293V41.084a.70324.70324,0,0,0-.1914-.5332.76071.76071,0,0,0-.54687-.18164H8.27391Z" transform="translate(0 0.00081)"/>
    </g>
  </g>
  <line class="cls-5" x1="168.25838" y1="60.41613" x2="175.77656" y2="60.41613"/>
  <path class="cls-1" d="M174.57442,23.36151c-1.08219,0-1.23859-1.03375-1.43095-2.25986a3.6958,3.6958,0,0,1-1.12992.18062,4.14076,4.14076,0,0,1-3.93164-4.32877,3.94972,3.94972,0,1,1,7.85077,0,4.34311,4.34311,0,0,1-2.44041,4.00431c.28854.84139.56537,1.28632,1.17839,1.28632a1.13664,1.13664,0,0,0,1.094-1.15416c.01174-.08369.01174-.16886.10792-.16886.12041,0,.12041.10865.12041.22906C175.99288,21.25878,175.98113,23.36151,174.57442,23.36151ZM172.00179,12.8302c-1.20261,0-2.82591,1.11818-2.82591,4.1115,0,2.59758,1.2026,3.63127,2.09246,3.9441a1.165,1.165,0,0,1-.19236-.61378.97186.97186,0,0,1,.93244-1.00974l.01688-.00052c.78189,0,1.11817.70923,1.323,1.31127a4.186,4.186,0,0,0,1.49042-3.63127C174.83872,13.98436,173.26387,12.8302,172.00179,12.8302Zm.0235,6.67238a.73485.73485,0,0,0-.70923.75768.71731.71731,0,0,0,.67552.75679l.022.00091a2.306,2.306,0,0,0,1.06971-.27753C172.9511,20.0679,172.711,19.50258,172.02529,19.50258Z" transform="translate(0 0.00081)"/>
  <path class="cls-1" d="M174.56681,73.70733c-1.08219,0-1.23859-1.03375-1.43095-2.25986a3.6958,3.6958,0,0,1-1.12992.18062,4.14076,4.14076,0,0,1-3.93164-4.32877,3.94972,3.94972,0,1,1,7.85077,0,4.34312,4.34312,0,0,1-2.4404,4.00431c.28853.84139.56536,1.28632,1.17838,1.28632a1.13664,1.13664,0,0,0,1.094-1.15416c.01175-.08369.01175-.16886.10792-.16886.12041,0,.12041.10865.12041.22906C175.98527,71.6046,175.97352,73.70733,174.56681,73.70733ZM171.99418,63.176c-1.20261,0-2.82591,1.11818-2.82591,4.1115,0,2.59758,1.2026,3.63127,2.09246,3.9441a1.165,1.165,0,0,1-.19236-.61378.97186.97186,0,0,1,.93244-1.00974l.01688-.00052c.78189,0,1.11817.70923,1.323,1.31127a4.186,4.186,0,0,0,1.49041-3.63127C174.83111,64.33018,173.25626,63.176,171.99418,63.176Zm.0235,6.67238a.73485.73485,0,0,0-.70923.75768.71731.71731,0,0,0,.67552.75679l.022.00091a2.306,2.306,0,0,0,1.06971-.27753C172.94349,70.41372,172.70341,69.8484,172.01768,69.8484Z" transform="translate(0 0.00081)"/>
</svg>
