<svg xmlns="http://www.w3.org/2000/svg" viewBox="0 0 177.97314 84.28592">
  <defs>
    <style>
      .cls-1 {
        fill: #8ff4dd;
      }

      .cls-2, .cls-3, .cls-4, .cls-5 {
        fill: none;
        stroke: #8ff4dd;
      }

      .cls-2 {
        stroke-width: 1.5px;
      }

      .cls-3, .cls-4 {
        stroke-width: 2px;
      }

      .cls-4 {
        stroke-linecap: square;
      }

      .cls-4, .cls-5 {
        stroke-miterlimit: 10;
      }

      .cls-5 {
        stroke-width: 0.5px;
      }
    </style>
  </defs>
  <title>SRLatchControl</title>
  <g id="Layer_1" data-name="Layer 1">
    <g>
      <path class="cls-1" d="M213.88889,44.88889V67.11111h11.37566a11.11111,11.11111,0,0,0,0-22.22222Zm1.5873,1.5873h9.78836A9.19008,9.19008,0,0,1,234.52381,56,9.40935,9.40935,0,0,1,225,65.52381h-9.52381Z" transform="translate(-100.39209 -38.8252)"/>
      <path class="cls-2" d="M241.11111,56a2.22222,2.22222,0,1,1-2.22222-2.22222A2.22222,2.22222,0,0,1,241.11111,56Z" transform="translate(-100.39209 -38.8252)"/>
      <line class="cls-3" x1="140.60791" y1="17.1748" x2="149.60791" y2="17.1748"/>
      <line class="cls-3" x1="114.60791" y1="11.1748" x2="99.60791" y2="11.1748"/>
      <line class="cls-3" x1="114.60791" y1="23.1748" x2="99.60791" y2="23.1748"/>
    </g>
    <g>
      <path class="cls-1" d="M213.88889,94.88889v22.22222h11.37566a11.11111,11.11111,0,0,0,0-22.22222Zm1.5873,1.5873h9.78836A9.19008,9.19008,0,0,1,234.52381,106,9.40935,9.40935,0,0,1,225,115.52381h-9.52381Z" transform="translate(-100.39209 -38.8252)"/>
      <path class="cls-2" d="M241.11111,106a2.22222,2.22222,0,1,1-2.22222-2.22222A2.22222,2.22222,0,0,1,241.11111,106Z" transform="translate(-100.39209 -38.8252)"/>
      <line class="cls-3" x1="140.60791" y1="67.1748" x2="149.60791" y2="67.1748"/>
      <line class="cls-3" x1="114.60791" y1="61.1748" x2="99.60791" y2="61.1748"/>
      <line class="cls-3" x1="114.60791" y1="73.1748" x2="99.60791" y2="73.1748"/>
    </g>
    <g>
      <path class="cls-1" d="M147.88889,38.88889V61.11111h11.37566a11.11111,11.11111,0,0,0,0-22.22222Zm1.5873,1.5873h9.78836A9.19008,9.19008,0,0,1,168.52381,50,9.40935,9.40935,0,0,1,159,59.52381h-9.52381Z" transform="translate(-100.39209 -38.8252)"/>
      <path class="cls-2" d="M175.11111,50a2.22222,2.22222,0,1,1-2.22222-2.22222A2.22222,2.22222,0,0,1,175.11111,50Z" transform="translate(-100.39209 -38.8252)"/>
      <line class="cls-3" x1="74.60791" y1="11.1748" x2="83.60791" y2="11.1748"/>
      <line class="cls-3" x1="48.60791" y1="5.1748" x2="33.60791" y2="5.1748"/>
      <line class="cls-3" x1="48.60791" y1="17.1748" x2="33.60791" y2="17.1748"/>
    </g>
    <g>
      <path class="cls-1" d="M147.88889,100.88889v22.22222h11.37566a11.11111,11.11111,0,0,0,0-22.22222Zm1.5873,1.5873h9.78836A9.19008,9.19008,0,0,1,168.52381,112,9.40935,9.40935,0,0,1,159,121.52381h-9.52381Z" transform="translate(-100.39209 -38.8252)"/>
      <path class="cls-2" d="M175.11111,112a2.22222,2.22222,0,1,1-2.22222-2.22222A2.22222,2.22222,0,0,1,175.11111,112Z" transform="translate(-100.39209 -38.8252)"/>
      <line class="cls-3" x1="74.60791" y1="73.1748" x2="83.60791" y2="73.1748"/>
      <line class="cls-3" x1="48.60791" y1="67.1748" x2="33.60791" y2="67.1748"/>
      <line class="cls-3" x1="48.60791" y1="79.1748" x2="33.60791" y2="79.1748"/>
    </g>
  </g>
  <g id="Layer_2" data-name="Layer 2">
    <polyline class="cls-4" points="99.608 23.175 99.608 33.175 149.608 51.175 149.608 67.175 164.608 67.175"/>
    <polyline class="cls-4" points="164.608 17.175 149.608 17.175 149.608 33.175 99.608 51.175 99.608 61.175"/>
    <line class="cls-4" x1="99.60791" y1="11.1748" x2="83.60791" y2="11.1748"/>
    <line class="cls-4" x1="99.60791" y1="73.1748" x2="83.60791" y2="73.1748"/>
    <circle class="cls-1" cx="149.60791" cy="17.1748" r="2.5"/>
    <circle class="cls-1" cx="149.60791" cy="67.1748" r="2.5"/>
    <path class="cls-1" d="M276.42969,59.06787a6.75367,6.75367,0,0,1,.20605.65625,3.13472,3.13472,0,0,0,.39356,1.01367.54191.54191,0,0,0,.42773.23438.45866.45866,0,0,0,.38379-.25049,1.67176,1.67176,0,0,0,.17285-.8335h.35156a2.48074,2.48074,0,0,1-.41015,1.55713,1.29258,1.29258,0,0,1-1.05469.49951,1.18875,1.18875,0,0,1-.98144-.48339,3.7647,3.7647,0,0,1-.501-1.8545,5.80619,5.80619,0,0,1-.63281.123,4.35494,4.35494,0,0,1-.58008.041,3.78069,3.78069,0,0,1-2.0127-.56543,3.97633,3.97633,0,0,1-1.46484-1.623,5.15945,5.15945,0,0,1-.542-2.3877,4.60043,4.60043,0,0,1,1.22461-3.22265,3.6014,3.6014,0,0,1,2.76562-1.21289,3.79647,3.79647,0,0,1,2.02149.55957,4.03332,4.03332,0,0,1,1.46484,1.60547,4.861,4.861,0,0,1-1.23242,6.14355Zm-.291-.80859a4.90191,4.90191,0,0,0,.46289-1.29395,8.679,8.679,0,0,0,.14649-1.74463,6.82155,6.82155,0,0,0-.32227-2.333,2.60793,2.60793,0,0,0-.9082-1.26758,2.257,2.257,0,0,0-1.32422-.40967,2.19893,2.19893,0,0,0-1.30371.40967,2.64935,2.64935,0,0,0-.90235,1.27929,6.93458,6.93458,0,0,0-.32519,2.36231,7.37344,7.37344,0,0,0,.19336,1.80908,5.30256,5.30256,0,0,0,.60351,1.43457q-.01171-.2688-.01171-.43262a1.618,1.618,0,0,1,.46582-1.19189,1.64915,1.64915,0,0,1,1.22168-.46729,1.74774,1.74774,0,0,1,1.27734.50831A3.66477,3.66477,0,0,1,276.13867,58.25928Zm-.7207.74414a3.38955,3.38955,0,0,0-.27539-1.5293,1.09528,1.09528,0,0,0-1.02539-.60937,1.20439,1.20439,0,0,0-1.25391,1.25976,1.55784,1.55784,0,0,0,.4336,1.043,2.15877,2.15877,0,0,0,.873.18164,2.42136,2.42136,0,0,0,.66211-.08789A2.307,2.307,0,0,0,275.418,59.00342Z" transform="translate(-100.39209 -38.8252)"/>
    <path class="cls-1" d="M276.42969,110.06836a6.75367,6.75367,0,0,1,.20605.65625,3.13472,3.13472,0,0,0,.39356,1.01367.54191.54191,0,0,0,.42773.23438.45928.45928,0,0,0,.38379-.251,1.66963,1.66963,0,0,0,.17285-.833h.35156a2.47915,2.47915,0,0,1-.41015,1.55664,1.293,1.293,0,0,1-1.05469.5,1.18966,1.18966,0,0,1-.98144-.48437,3.76017,3.76017,0,0,1-.501-1.85352,5.80619,5.80619,0,0,1-.63281.123,4.35487,4.35487,0,0,1-.58008.041,3.7816,3.7816,0,0,1-2.0127-.5664,3.97627,3.97627,0,0,1-1.46484-1.623,5.15537,5.15537,0,0,1-.542-2.38672,4.60043,4.60043,0,0,1,1.22461-3.22265,3.6014,3.6014,0,0,1,2.76562-1.21289,3.79565,3.79565,0,0,1,2.02149.55859,4.03339,4.03339,0,0,1,1.46484,1.60547,4.86181,4.86181,0,0,1-1.23242,6.14453Zm-.291-.80859a4.90868,4.90868,0,0,0,.46289-1.29493,8.667,8.667,0,0,0,.14649-1.74414,6.81963,6.81963,0,0,0-.32227-2.333,2.61024,2.61024,0,0,0-.9082-1.26758,2.26,2.26,0,0,0-1.32422-.40918,2.20187,2.20187,0,0,0-1.30371.40918,2.65171,2.65171,0,0,0-.90235,1.27929,6.93269,6.93269,0,0,0-.32519,2.36231,7.36374,7.36374,0,0,0,.19336,1.80859,5.31512,5.31512,0,0,0,.60351,1.43555q-.01171-.26953-.01171-.43359a1.61844,1.61844,0,0,1,.46582-1.19141,1.64882,1.64882,0,0,1,1.22168-.4668,1.74734,1.74734,0,0,1,1.27734.50782A3.66769,3.66769,0,0,1,276.13867,109.25977Zm-.7207.74414a3.38955,3.38955,0,0,0-.27539-1.5293,1.09529,1.09529,0,0,0-1.02539-.60938,1.20441,1.20441,0,0,0-1.25391,1.25977,1.55786,1.55786,0,0,0,.4336,1.043,2.15877,2.15877,0,0,0,.873.18164,2.42136,2.42136,0,0,0,.66211-.08789A2.307,2.307,0,0,0,275.418,110.00391Z" transform="translate(-100.39209 -38.8252)"/>
    <line class="cls-5" x1="170.78174" y1="61.6748" x2="176.78174" y2="61.6748"/>
    <path class="cls-1" d="M114.51611,122.54443a2.33614,2.33614,0,0,1-1.51123-.50341c-.4917-.45606-.4917-.93555-.4917-1.71534,0-.80322,0-1.17529-.45556-1.60693a1.52854,1.52854,0,0,0-1.11524-.40771H109.563v3.03417c0,.43165.02392.564.94726.564h.28809v.37158c-.43164-.03613-1.2832-.03613-1.751-.03613s-1.31933,0-1.751.03613v-.37158h.28759c.92383,0,.94776-.13232.94776-.564V115.0249c0-.43213-.02393-.564-.94776-.564h-.28759v-.37158H111.062c1.76319,0,3.13037,1.00732,3.13037,2.15869,0,.93554-.93554,1.667-2.09863,1.95508a2.07847,2.07847,0,0,1,1.46289,1.39111l.15625.95947c.168,1.11524.26367,1.72705.85156,1.72705.29981,0,.71924-.21582.79151-1.06738.01172-.084.01172-.1919.14355-.1919.15625,0,.15625.13184.15625.20411C115.65576,121.561,115.45166,122.54443,114.51611,122.54443Zm-3.98144-8.08349a5.89253,5.89253,0,0,0-.708.02392c-.26367.03614-.26367.18018-.26367.45606v3.106H110.894c1.77539,0,2.063-.9712,2.063-1.79883C112.957,114.50879,111.61377,114.46094,110.53467,114.46094Z" transform="translate(-100.39209 -38.8252)"/>
    <path class="cls-1" d="M111.77,47.54492a3.004,3.004,0,0,1-2.207-.83984c-.39551.63574-.43164.68359-.43164.68359-.084.13184-.09571.15625-.17969.15625-.13232,0-.13232-.084-.13232-.28808V44.85742c0-.21484,0-.29883.15625-.29883a.125.125,0,0,1,.144.11914,2.42857,2.42857,0,0,0,.74316,1.84766,2.89152,2.89152,0,0,0,1.895.64746,1.64472,1.64472,0,0,0,1.60742-1.71484,1.75194,1.75194,0,0,0-.37207-1.10352,1.59131,1.59131,0,0,0-1.01953-.6123c-.83935-.20313-1.45117-.34766-1.583-.39551a2.3233,2.3233,0,0,1,.76757-4.52148,2.46852,2.46852,0,0,1,1.919.83984l.41992-.68359c.084-.14356.0957-.15625.17969-.15625.13183,0,.13183.084.13183.28808v2.41016c0,.22851,0,.28808-.15576.28808-.13183,0-.13183-.07129-.144-.14355-.07178-.54-.33545-2.50684-2.33838-2.50684a1.56794,1.56794,0,0,0-.37207,3.09473l1.53516.37109a2.45443,2.45443,0,0,1,1.79931,2.42285A2.4047,2.4047,0,0,1,111.77,47.54492Z" transform="translate(-100.39209 -38.8252)"/>
    <line class="cls-4" x1="33.60791" y1="17.1748" x2="33.60791" y2="67.1748"/>
    <line class="cls-4" x1="33.60791" y1="42.1748" x2="18.60791" y2="42.1748"/>
    <line class="cls-4" x1="33.60791" y1="5.1748" x2="18.60791" y2="5.1748"/>
    <line class="cls-4" x1="33.60791" y1="79.1748" x2="18.60791" y2="79.1748"/>
    <g>
      <path class="cls-1" d="M100.39209,75.6377h6.86768l.16406,2.92382h-.39258a3.86068,3.86068,0,0,0-.74023-1.93359,1.71009,1.71009,0,0,0-1.32032-.55078h-1.69629a.40408.40408,0,0,0-.30957.11133.47871.47871,0,0,0-.10546.33984v3.08789h.74218a1.22116,1.22116,0,0,0,.9668-.42773,2.07577,2.07577,0,0,0,.40039-1.3125h.4043v4.01367h-.4043a2.26373,2.26373,0,0,0-.40625-1.42676,1.29452,1.29452,0,0,0-1.02539-.43066h-.67773v3.44531a.34371.34371,0,0,0,.125.28711.68263.68263,0,0,0,.418.09961h1.34082q2.18262,0,2.51661-2.78906h.42187l-.14648,3.22851h-7.14307v-.43945h.5918a.75752.75752,0,0,0,.48681-.12012.43316.43316,0,0,0,.14063-.34863V76.52832a.43584.43584,0,0,0-.123-.33984.56455.56455,0,0,0-.38672-.11133h-.70947Z" transform="translate(-100.39209 -38.8252)"/>
      <path class="cls-1" d="M108.666,78.81348l1.82226-.11133a9.04392,9.04392,0,0,1,.16406,1.207,2.60741,2.60741,0,0,1,.86914-.89648,2.17391,2.17391,0,0,1,1.13477-.29883,1.79845,1.79845,0,0,1,.91406.21386,1.5045,1.5045,0,0,1,.5918.67676,2.36194,2.36194,0,0,1,.22266,1.03711v2.67188a.56231.56231,0,0,0,.13476.4248.65227.65227,0,0,0,.45117.126h.38672v.43945h-2.89453v-.43945h.27539a.88171.88171,0,0,0,.53906-.12305.44628.44628,0,0,0,.15235-.36914V81.02246a2.16569,2.16569,0,0,0-.23438-1.13672,1.09376,1.09376,0,0,0-.99609-.52734,1.38,1.38,0,0,0-1.10547.5332,2.1028,2.1028,0,0,0-.44141,1.38867v2.03321a.55477.55477,0,0,0,.13672.4248.66712.66712,0,0,0,.45508.126h.38086v.43945h-2.90625v-.43945h.38086a.69319.69319,0,0,0,.43555-.11719.35934.35934,0,0,0,.15039-.293V79.90918a.70327.70327,0,0,0-.19141-.5332.76068.76068,0,0,0-.54687-.18164H108.666Z" transform="translate(-100.39209 -38.8252)"/>
    </g>
  </g>
</svg>
