<svg id="Layer_1" data-name="Layer 1" xmlns="http://www.w3.org/2000/svg" viewBox="0 0 106 32">
  <defs>
    <style>
      .cls-1 {
        fill: #8ff4dd;
      }

      .cls-2, .cls-3 {
        fill: none;
        stroke: #8ff4dd;
        stroke-miterlimit: 10;
      }

      .cls-2 {
        stroke-width: 2px;
      }

      .cls-3 {
        stroke-width: 0.5px;
      }
    </style>
  </defs>
  <title>SRLatches</title>
  <path class="cls-1" d="M65.19629,68.40625a2.00357,2.00357,0,0,1-1.47168-.55957c-.26367.42383-.28809.45557-.28809.45557-.05566.08789-.06347.104-.11914.104-.08886,0-.08886-.05566-.08886-.19189V66.61523c0-.144,0-.1997.10449-.1997a.08292.08292,0,0,1,.0957.08008,1.61675,1.61675,0,0,0,.49609,1.231,1.9268,1.9268,0,0,0,1.2627.43213,1.09682,1.09682,0,0,0,1.07227-1.14355,1.1667,1.1667,0,0,0-.24805-.73535,1.06527,1.06527,0,0,0-.67969-.40821c-.55957-.13574-.96777-.23144-1.05566-.26367a1.54871,1.54871,0,0,1,.51172-3.01416,1.6451,1.6451,0,0,1,1.27929.55957l.28028-.45557c.05566-.09619.06347-.104.11914-.104.08789,0,.08789.05566.08789.19189v1.60694c0,.15185,0,.19189-.10352.19189-.08789,0-.08789-.04785-.0957-.0957-.04785-.35986-.22363-1.67139-1.55957-1.67139a1.0452,1.0452,0,0,0-.24805,2.063l1.02344.24805a1.636,1.636,0,0,1,1.20019,1.61474A1.603,1.603,0,0,1,65.19629,68.40625Z" transform="translate(-50 -59)"/>
  <path class="cls-1" d="M67.02637,86.81836a1.55756,1.55756,0,0,1-1.00684-.33545c-.32812-.3042-.32812-.624-.32812-1.14355,0-.53565,0-.7837-.30371-1.07129a1.01837,1.01837,0,0,0-.74317-.272h-.91992v2.023c0,.2876.01562.37549.63184.37549h.1914v.248c-.28711-.02393-.85547-.02393-1.167-.02393s-.87988,0-1.167.02393v-.248h.1914c.61621,0,.63184-.08789.63184-.37549V81.80518c0-.2876-.01563-.376-.63184-.376h-.1914v-.24756h2.50976c1.17578,0,2.08692.67139,2.08692,1.439,0,.624-.62305,1.11132-1.39844,1.30371a1.38487,1.38487,0,0,1,.97461.92724l.10449.63965c.11231.74365.17578,1.15137.56738,1.15137.2002,0,.4795-.144.52832-.71143.00782-.05615.00782-.12793.09571-.12793.10351,0,.10351.08789.10351.13574C67.78613,86.1626,67.65039,86.81836,67.02637,86.81836Zm-2.6543-5.38916a3.88292,3.88292,0,0,0-.47168.01611c-.17578.02393-.17578.12012-.17578.3042v2.0708h.88769c1.1836,0,1.375-.648,1.375-1.1997C65.9873,81.46143,65.0918,81.4292,64.37207,81.4292Z" transform="translate(-50 -59)"/>
  <g>
    <rect class="cls-2" x="10" y="1" width="30" height="30"/>
    <line class="cls-2" x1="10" y1="6" y2="6"/>
    <line class="cls-2" x1="10" y1="26" y2="26"/>
    <line class="cls-2" x1="50" y1="6" x2="40" y2="6"/>
    <line class="cls-2" x1="50" y1="26" x2="40" y2="26"/>
    <line class="cls-3" x1="32.5" y1="20.5" x2="37.5" y2="20.5"/>
    <path class="cls-1" d="M86.43555,67.81055a4.31506,4.31506,0,0,1,.13769.4375,2.09571,2.09571,0,0,0,.2627.67578.36036.36036,0,0,0,.28515.15625.30578.30578,0,0,0,.25586-.167,1.11551,1.11551,0,0,0,.11524-.55567h.23437a1.65793,1.65793,0,0,1-.27343,1.03809.85994.85994,0,0,1-.70313.333.79211.79211,0,0,1-.6543-.32227,2.50985,2.50985,0,0,1-.334-1.23633,3.76551,3.76551,0,0,1-.42188.082,2.85558,2.85558,0,0,1-.38671.02735,2.51891,2.51891,0,0,1-1.3418-.377,2.653,2.653,0,0,1-.97656-1.082,3.43546,3.43546,0,0,1-.36133-1.59179,3.06873,3.06873,0,0,1,.8164-2.14844,2.40147,2.40147,0,0,1,1.84375-.8086,2.53249,2.53249,0,0,1,1.34766.37305,2.69015,2.69015,0,0,1,.97656,1.07031,3.23726,3.23726,0,0,1-.82226,4.09571Zm-.19336-.53907a3.28173,3.28173,0,0,0,.30859-.8623,5.769,5.769,0,0,0,.09766-1.16309,4.54175,4.54175,0,0,0-.21485-1.55566,1.7384,1.7384,0,0,0-.60546-.84473,1.50451,1.50451,0,0,0-.88282-.27343,1.46514,1.46514,0,0,0-.86914.27343,1.76318,1.76318,0,0,0-.60156.85254,4.62566,4.62566,0,0,0-.2168,1.5752,4.91838,4.91838,0,0,0,.12891,1.20605,3.52936,3.52936,0,0,0,.40234.95606c-.00488-.11963-.00781-.21534-.00781-.28809a1.07894,1.07894,0,0,1,.31055-.79492,1.1,1.1,0,0,1,.81445-.31152,1.16452,1.16452,0,0,1,.85156.33886A2.45238,2.45238,0,0,1,86.24219,67.27148Zm-.48047.4961a2.25527,2.25527,0,0,0-.18359-1.01953.7296.7296,0,0,0-.6836-.40625.80293.80293,0,0,0-.83594.83984,1.04043,1.04043,0,0,0,.28907.69531,1.44068,1.44068,0,0,0,.582.1211,1.6121,1.6121,0,0,0,.4414-.0586A1.53233,1.53233,0,0,0,85.76172,67.76758Z" transform="translate(-50 -59)"/>
    <path class="cls-1" d="M86.43555,86.31055a4.31506,4.31506,0,0,1,.13769.4375,2.09571,2.09571,0,0,0,.2627.67578.36036.36036,0,0,0,.28515.15625.30578.30578,0,0,0,.25586-.167,1.11551,1.11551,0,0,0,.11524-.55567h.23437a1.65793,1.65793,0,0,1-.27343,1.03809.85994.85994,0,0,1-.70313.333.79211.79211,0,0,1-.6543-.32227,2.50985,2.50985,0,0,1-.334-1.23633,3.76551,3.76551,0,0,1-.42188.082,2.85558,2.85558,0,0,1-.38671.02735,2.51891,2.51891,0,0,1-1.3418-.377,2.653,2.653,0,0,1-.97656-1.082,3.43546,3.43546,0,0,1-.36133-1.59179,3.06873,3.06873,0,0,1,.8164-2.14844,2.40147,2.40147,0,0,1,1.84375-.8086,2.53249,2.53249,0,0,1,1.34766.37305,2.69015,2.69015,0,0,1,.97656,1.07031,3.23726,3.23726,0,0,1-.82226,4.09571Zm-.19336-.53907a3.28173,3.28173,0,0,0,.30859-.8623,5.769,5.769,0,0,0,.09766-1.16309,4.54175,4.54175,0,0,0-.21485-1.55566,1.7384,1.7384,0,0,0-.60546-.84473,1.50451,1.50451,0,0,0-.88282-.27343,1.46514,1.46514,0,0,0-.86914.27343,1.76318,1.76318,0,0,0-.60156.85254,4.62566,4.62566,0,0,0-.2168,1.5752,4.91838,4.91838,0,0,0,.12891,1.20605,3.52936,3.52936,0,0,0,.40234.95606c-.00488-.11963-.00781-.21534-.00781-.28809a1.07894,1.07894,0,0,1,.31055-.79492,1.1,1.1,0,0,1,.81445-.31152,1.16452,1.16452,0,0,1,.85156.33886A2.45238,2.45238,0,0,1,86.24219,85.77148Zm-.48047.4961a2.25527,2.25527,0,0,0-.18359-1.01953.7296.7296,0,0,0-.6836-.40625.80293.80293,0,0,0-.83594.83984,1.04043,1.04043,0,0,0,.28907.69531,1.44068,1.44068,0,0,0,.582.1211,1.6121,1.6121,0,0,0,.4414-.0586A1.53233,1.53233,0,0,0,85.76172,86.26758Z" transform="translate(-50 -59)"/>
  </g>
  <path class="cls-1" d="M120.69629,86.90625a2.00357,2.00357,0,0,1-1.47168-.55957c-.26367.42383-.28809.45557-.28809.45557-.05566.08789-.06347.104-.11914.104-.08886,0-.08886-.05566-.08886-.19189V85.11523c0-.144,0-.1997.10449-.1997a.08292.08292,0,0,1,.0957.08008,1.61675,1.61675,0,0,0,.49609,1.231,1.9268,1.9268,0,0,0,1.2627.43213,1.09682,1.09682,0,0,0,1.07227-1.14355,1.1667,1.1667,0,0,0-.24805-.73535,1.06527,1.06527,0,0,0-.67969-.40821c-.55957-.13574-.96777-.23144-1.05566-.26367a1.54871,1.54871,0,0,1,.51172-3.01416,1.6451,1.6451,0,0,1,1.27929.55957l.28028-.45557c.05566-.09619.06347-.104.11914-.104.08789,0,.08789.05566.08789.19189v1.60694c0,.15185,0,.19189-.10352.19189-.08789,0-.08789-.04785-.0957-.0957-.04785-.35986-.22363-1.67139-1.55957-1.67139a1.0452,1.0452,0,0,0-.24805,2.063l1.02344.24805a1.636,1.636,0,0,1,1.20019,1.61474A1.603,1.603,0,0,1,120.69629,86.90625Z" transform="translate(-50 -59)"/>
  <path class="cls-1" d="M123.02637,68.81836a1.55756,1.55756,0,0,1-1.00684-.33545c-.32812-.3042-.32812-.624-.32812-1.14355,0-.53565,0-.7837-.30371-1.07129a1.01837,1.01837,0,0,0-.74317-.272h-.91992v2.023c0,.2876.01562.37549.63184.37549h.1914v.248c-.28711-.02393-.85547-.02393-1.167-.02393s-.87988,0-1.167.02393v-.248h.1914c.61621,0,.63184-.08789.63184-.37549V63.80518c0-.2876-.01563-.376-.63184-.376h-.1914v-.24756h2.50976c1.17578,0,2.08692.67139,2.08692,1.439,0,.624-.62305,1.11132-1.39844,1.30371a1.38487,1.38487,0,0,1,.97461.92724l.10449.63965c.11231.74365.17578,1.15137.56738,1.15137.2002,0,.4795-.144.52832-.71143.00782-.05615.00782-.12793.09571-.12793.10351,0,.10351.08789.10351.13574C123.78613,68.1626,123.65039,68.81836,123.02637,68.81836Zm-2.6543-5.38916a3.88292,3.88292,0,0,0-.47168.01611c-.17578.02393-.17578.12012-.17578.3042v2.0708h.88769c1.1836,0,1.375-.648,1.375-1.1997C121.9873,63.46143,121.0918,63.4292,120.37207,63.4292Z" transform="translate(-50 -59)"/>
  <rect class="cls-2" x="66" y="1" width="30" height="30"/>
  <line class="cls-2" x1="66" y1="6" x2="56" y2="6"/>
  <line class="cls-2" x1="66" y1="26" x2="56" y2="26"/>
  <line class="cls-2" x1="106" y1="6" x2="96" y2="6"/>
  <line class="cls-2" x1="106" y1="26" x2="96" y2="26"/>
  <line class="cls-3" x1="88.5" y1="20.5" x2="93.5" y2="20.5"/>
  <path class="cls-1" d="M142.43555,67.81055a4.31506,4.31506,0,0,1,.13769.4375,2.09571,2.09571,0,0,0,.2627.67578.36036.36036,0,0,0,.28515.15625.30578.30578,0,0,0,.25586-.167,1.11551,1.11551,0,0,0,.11524-.55567h.23437a1.65793,1.65793,0,0,1-.27343,1.03809.85994.85994,0,0,1-.70313.333.79211.79211,0,0,1-.6543-.32227,2.50985,2.50985,0,0,1-.334-1.23633,3.76551,3.76551,0,0,1-.42188.082,2.85558,2.85558,0,0,1-.38671.02735,2.51891,2.51891,0,0,1-1.3418-.377,2.653,2.653,0,0,1-.97656-1.082,3.43546,3.43546,0,0,1-.36133-1.59179,3.06873,3.06873,0,0,1,.8164-2.14844,2.40147,2.40147,0,0,1,1.84375-.8086,2.53249,2.53249,0,0,1,1.34766.37305,2.69015,2.69015,0,0,1,.97656,1.07031,3.23726,3.23726,0,0,1-.82226,4.09571Zm-.19336-.53907a3.28173,3.28173,0,0,0,.30859-.8623,5.769,5.769,0,0,0,.09766-1.16309,4.54175,4.54175,0,0,0-.21485-1.55566,1.7384,1.7384,0,0,0-.60546-.84473,1.50451,1.50451,0,0,0-.88282-.27343,1.46514,1.46514,0,0,0-.86914.27343,1.76318,1.76318,0,0,0-.60156.85254,4.62566,4.62566,0,0,0-.2168,1.5752,4.91838,4.91838,0,0,0,.12891,1.20605,3.52936,3.52936,0,0,0,.40234.95606c-.00488-.11963-.00781-.21534-.00781-.28809a1.07894,1.07894,0,0,1,.31055-.79492,1.1,1.1,0,0,1,.81445-.31152,1.16452,1.16452,0,0,1,.85156.33886A2.45238,2.45238,0,0,1,142.24219,67.27148Zm-.48047.4961a2.25527,2.25527,0,0,0-.18359-1.01953.7296.7296,0,0,0-.6836-.40625.80293.80293,0,0,0-.83594.83984,1.04043,1.04043,0,0,0,.28907.69531,1.44068,1.44068,0,0,0,.582.1211,1.6121,1.6121,0,0,0,.4414-.0586A1.53233,1.53233,0,0,0,141.76172,67.76758Z" transform="translate(-50 -59)"/>
  <path class="cls-1" d="M142.43555,86.31055a4.31506,4.31506,0,0,1,.13769.4375,2.09571,2.09571,0,0,0,.2627.67578.36036.36036,0,0,0,.28515.15625.30578.30578,0,0,0,.25586-.167,1.11551,1.11551,0,0,0,.11524-.55567h.23437a1.65793,1.65793,0,0,1-.27343,1.03809.85994.85994,0,0,1-.70313.333.79211.79211,0,0,1-.6543-.32227,2.50985,2.50985,0,0,1-.334-1.23633,3.76551,3.76551,0,0,1-.42188.082,2.85558,2.85558,0,0,1-.38671.02735,2.51891,2.51891,0,0,1-1.3418-.377,2.653,2.653,0,0,1-.97656-1.082,3.43546,3.43546,0,0,1-.36133-1.59179,3.06873,3.06873,0,0,1,.8164-2.14844,2.40147,2.40147,0,0,1,1.84375-.8086,2.53249,2.53249,0,0,1,1.34766.37305,2.69015,2.69015,0,0,1,.97656,1.07031,3.23726,3.23726,0,0,1-.82226,4.09571Zm-.19336-.53907a3.28173,3.28173,0,0,0,.30859-.8623,5.769,5.769,0,0,0,.09766-1.16309,4.54175,4.54175,0,0,0-.21485-1.55566,1.7384,1.7384,0,0,0-.60546-.84473,1.50451,1.50451,0,0,0-.88282-.27343,1.46514,1.46514,0,0,0-.86914.27343,1.76318,1.76318,0,0,0-.60156.85254,4.62566,4.62566,0,0,0-.2168,1.5752,4.91838,4.91838,0,0,0,.12891,1.20605,3.52936,3.52936,0,0,0,.40234.95606c-.00488-.11963-.00781-.21534-.00781-.28809a1.07894,1.07894,0,0,1,.31055-.79492,1.1,1.1,0,0,1,.81445-.31152,1.16452,1.16452,0,0,1,.85156.33886A2.45238,2.45238,0,0,1,142.24219,85.77148Zm-.48047.4961a2.25527,2.25527,0,0,0-.18359-1.01953.7296.7296,0,0,0-.6836-.40625.80293.80293,0,0,0-.83594.83984,1.04043,1.04043,0,0,0,.28907.69531,1.44068,1.44068,0,0,0,.582.1211,1.6121,1.6121,0,0,0,.4414-.0586A1.53233,1.53233,0,0,0,141.76172,86.26758Z" transform="translate(-50 -59)"/>
  <line class="cls-3" x1="68" y1="3.5" x2="73" y2="3.5"/>
  <line class="cls-3" x1="68" y1="20.5" x2="73" y2="20.5"/>
</svg>
