<svg xmlns="http://www.w3.org/2000/svg" viewBox="0 0 105.06885 72.86111">
  <defs>
    <style>
      .cls-1 {
        fill: #8ff4dd;
      }

      .cls-2, .cls-3, .cls-4, .cls-5 {
        fill: none;
        stroke: #8ff4dd;
      }

      .cls-2 {
        stroke-width: 1.5px;
      }

      .cls-3, .cls-4 {
        stroke-width: 2px;
      }

      .cls-4 {
        stroke-linecap: square;
      }

      .cls-4, .cls-5 {
        stroke-miterlimit: 10;
      }

      .cls-5 {
        stroke-width: 0.5px;
      }
    </style>
  </defs>
  <title>SRNANDLatch</title>
  <g id="Layer_1" data-name="Layer 1">
    <g>
      <path class="cls-1" d="M63.88889,44.88889V67.11111H75.26455a11.11111,11.11111,0,0,0,0-22.22222Zm1.5873,1.5873h9.78836A9.19008,9.19008,0,0,1,84.52381,56,9.40935,9.40935,0,0,1,75,65.52381H65.47619Z" transform="translate(-23.29639 -44.25)"/>
      <path class="cls-2" d="M91.11111,56a2.22222,2.22222,0,1,1-2.22222-2.22222A2.22222,2.22222,0,0,1,91.11111,56Z" transform="translate(-23.29639 -44.25)"/>
      <line class="cls-3" x1="67.70361" y1="11.75" x2="76.70361" y2="11.75"/>
      <line class="cls-3" x1="41.70361" y1="5.75" x2="26.70361" y2="5.75"/>
      <line class="cls-3" x1="41.70361" y1="17.75" x2="26.70361" y2="17.75"/>
    </g>
    <g>
      <path class="cls-1" d="M63.88889,94.88889v22.22222H75.26455a11.11111,11.11111,0,0,0,0-22.22222Zm1.5873,1.5873h9.78836A9.19008,9.19008,0,0,1,84.52381,106,9.40935,9.40935,0,0,1,75,115.52381H65.47619Z" transform="translate(-23.29639 -44.25)"/>
      <path class="cls-2" d="M91.11111,106a2.22222,2.22222,0,1,1-2.22222-2.22222A2.22222,2.22222,0,0,1,91.11111,106Z" transform="translate(-23.29639 -44.25)"/>
      <line class="cls-3" x1="67.70361" y1="61.75" x2="76.70361" y2="61.75"/>
      <line class="cls-3" x1="41.70361" y1="55.75" x2="26.70361" y2="55.75"/>
      <line class="cls-3" x1="41.70361" y1="67.75" x2="26.70361" y2="67.75"/>
    </g>
  </g>
  <g id="Layer_2" data-name="Layer 2">
    <polyline class="cls-4" points="26.704 17.75 26.704 27.75 76.704 45.75 76.704 61.75 91.704 61.75"/>
    <polyline class="cls-4" points="91.704 11.75 76.704 11.75 76.704 27.75 26.704 45.75 26.704 55.75"/>
    <line class="cls-4" x1="26.70361" y1="5.75" x2="11.70361" y2="5.75"/>
    <line class="cls-4" x1="26.70361" y1="67.75" x2="11.70361" y2="67.75"/>
    <circle class="cls-1" cx="76.70361" cy="11.75" r="2.5"/>
    <circle class="cls-1" cx="76.70361" cy="61.75" r="2.5"/>
    <path class="cls-1" d="M126.42969,59.06787a6.75367,6.75367,0,0,1,.20605.65625,3.13472,3.13472,0,0,0,.39356,1.01367.54191.54191,0,0,0,.42773.23438.45866.45866,0,0,0,.38379-.25049,1.67176,1.67176,0,0,0,.17285-.8335h.35156a2.48074,2.48074,0,0,1-.41015,1.55713,1.29258,1.29258,0,0,1-1.05469.49951,1.18875,1.18875,0,0,1-.98144-.48339,3.7647,3.7647,0,0,1-.501-1.8545,5.80619,5.80619,0,0,1-.63281.123,4.35494,4.35494,0,0,1-.58008.041,3.78069,3.78069,0,0,1-2.0127-.56543,3.97633,3.97633,0,0,1-1.46484-1.623,5.15945,5.15945,0,0,1-.542-2.3877,4.60043,4.60043,0,0,1,1.22461-3.22265,3.6014,3.6014,0,0,1,2.76562-1.21289,3.79647,3.79647,0,0,1,2.02149.55957,4.03332,4.03332,0,0,1,1.46484,1.60547,4.861,4.861,0,0,1-1.23242,6.14355Zm-.291-.80859a4.90191,4.90191,0,0,0,.46289-1.29395,8.679,8.679,0,0,0,.14649-1.74463,6.82155,6.82155,0,0,0-.32227-2.333,2.60793,2.60793,0,0,0-.9082-1.26758,2.257,2.257,0,0,0-1.32422-.40967,2.19893,2.19893,0,0,0-1.30371.40967,2.64935,2.64935,0,0,0-.90235,1.27929,6.93458,6.93458,0,0,0-.32519,2.36231,7.37344,7.37344,0,0,0,.19336,1.80908,5.30256,5.30256,0,0,0,.60351,1.43457q-.01171-.2688-.01171-.43262a1.618,1.618,0,0,1,.46582-1.19189,1.64915,1.64915,0,0,1,1.22168-.46729,1.74774,1.74774,0,0,1,1.27734.50831A3.66477,3.66477,0,0,1,126.13867,58.25928Zm-.7207.74414a3.38955,3.38955,0,0,0-.27539-1.5293,1.09528,1.09528,0,0,0-1.02539-.60937,1.20439,1.20439,0,0,0-1.25391,1.25976,1.55784,1.55784,0,0,0,.4336,1.043,2.15877,2.15877,0,0,0,.873.18164,2.42136,2.42136,0,0,0,.66211-.08789A2.307,2.307,0,0,0,125.418,59.00342Z" transform="translate(-23.29639 -44.25)"/>
    <path class="cls-1" d="M126.42969,110.06836a6.75367,6.75367,0,0,1,.20605.65625,3.13472,3.13472,0,0,0,.39356,1.01367.54191.54191,0,0,0,.42773.23438.45928.45928,0,0,0,.38379-.251,1.66963,1.66963,0,0,0,.17285-.833h.35156a2.47915,2.47915,0,0,1-.41015,1.55664,1.293,1.293,0,0,1-1.05469.5,1.18966,1.18966,0,0,1-.98144-.48437,3.76017,3.76017,0,0,1-.501-1.85352,5.80619,5.80619,0,0,1-.63281.123,4.35487,4.35487,0,0,1-.58008.041,3.7816,3.7816,0,0,1-2.0127-.5664,3.97627,3.97627,0,0,1-1.46484-1.623,5.15537,5.15537,0,0,1-.542-2.38672,4.60043,4.60043,0,0,1,1.22461-3.22265,3.6014,3.6014,0,0,1,2.76562-1.21289,3.79565,3.79565,0,0,1,2.02149.55859,4.03339,4.03339,0,0,1,1.46484,1.60547,4.86181,4.86181,0,0,1-1.23242,6.14453Zm-.291-.80859a4.90868,4.90868,0,0,0,.46289-1.29493,8.667,8.667,0,0,0,.14649-1.74414,6.81963,6.81963,0,0,0-.32227-2.333,2.61024,2.61024,0,0,0-.9082-1.26758,2.26,2.26,0,0,0-1.32422-.40918,2.20187,2.20187,0,0,0-1.30371.40918,2.65171,2.65171,0,0,0-.90235,1.27929,6.93269,6.93269,0,0,0-.32519,2.36231,7.36374,7.36374,0,0,0,.19336,1.80859,5.31512,5.31512,0,0,0,.60351,1.43555q-.01171-.26953-.01171-.43359a1.61844,1.61844,0,0,1,.46582-1.19141,1.64882,1.64882,0,0,1,1.22168-.4668,1.74734,1.74734,0,0,1,1.27734.50782A3.66769,3.66769,0,0,1,126.13867,109.25977Zm-.7207.74414a3.38955,3.38955,0,0,0-.27539-1.5293,1.09529,1.09529,0,0,0-1.02539-.60938,1.20441,1.20441,0,0,0-1.25391,1.25977,1.55786,1.55786,0,0,0,.4336,1.043,2.15877,2.15877,0,0,0,.873.18164,2.42136,2.42136,0,0,0,.66211-.08789A2.307,2.307,0,0,0,125.418,110.00391Z" transform="translate(-23.29639 -44.25)"/>
    <line class="cls-5" x1="97.87744" y1="56.25" x2="103.87744" y2="56.25"/>
    <path class="cls-1" d="M30.51611,116.54443a2.33614,2.33614,0,0,1-1.51123-.50341c-.4917-.45606-.4917-.93555-.4917-1.71534,0-.80322,0-1.17529-.45556-1.60693a1.52854,1.52854,0,0,0-1.11524-.40771H25.563v3.03417c0,.43165.02392.564.94726.564h.28809v.37158c-.43164-.03613-1.2832-.03613-1.751-.03613s-1.31933,0-1.751.03613v-.37158H23.584c.92383,0,.94776-.13232.94776-.564V109.0249c0-.43213-.02393-.564-.94776-.564h-.28759v-.37158H27.062c1.76319,0,3.13037,1.00732,3.13037,2.15869,0,.93554-.93554,1.667-2.09863,1.95508a2.07847,2.07847,0,0,1,1.46289,1.39111l.15625.95947c.168,1.11524.26367,1.72705.85156,1.72705.29981,0,.71924-.21582.79151-1.06738.01172-.084.01172-.1919.14355-.1919.15625,0,.15625.13184.15625.20411C31.65576,115.561,31.45166,116.54443,30.51611,116.54443Zm-3.98144-8.08349a5.89253,5.89253,0,0,0-.708.02392c-.26367.03614-.26367.18018-.26367.45606v3.106H26.894c1.77539,0,2.063-.9712,2.063-1.79883C28.957,108.50879,27.61377,108.46094,26.53467,108.46094Z" transform="translate(-23.29639 -44.25)"/>
    <path class="cls-1" d="M27.77,54.54492a3.004,3.004,0,0,1-2.207-.83984c-.39551.63574-.43164.68359-.43164.68359-.084.13184-.09571.15625-.17969.15625-.13232,0-.13232-.084-.13232-.28808V51.85742c0-.21484,0-.29883.15625-.29883a.125.125,0,0,1,.144.11914,2.42857,2.42857,0,0,0,.74316,1.84766,2.89152,2.89152,0,0,0,1.895.64746A1.64472,1.64472,0,0,0,29.36523,52.458a1.75194,1.75194,0,0,0-.37207-1.10352,1.59131,1.59131,0,0,0-1.01953-.6123c-.83935-.20313-1.45117-.34766-1.583-.39551a2.3233,2.3233,0,0,1,.76757-4.52148,2.46852,2.46852,0,0,1,1.91895.83984l.41992-.68359c.084-.14356.0957-.15625.17969-.15625.13183,0,.13183.084.13183.28808v2.41016c0,.22851,0,.28808-.15576.28808-.13183,0-.13183-.07129-.144-.14355-.07178-.54-.33545-2.50684-2.33838-2.50684a1.56794,1.56794,0,0,0-.37207,3.09473l1.53516.37109a2.45443,2.45443,0,0,1,1.79931,2.42285A2.4047,2.4047,0,0,1,27.77,54.54492Z" transform="translate(-23.29639 -44.25)"/>
    <line class="cls-5" x1="1.17969" y1="62.25" x2="7.17969" y2="62.25"/>
    <line class="cls-5" x1="1.17969" y1="0.25" x2="7.17969" y2="0.25"/>
  </g>
</svg>
