<svg id="Layer_1" data-name="Layer 1" xmlns="http://www.w3.org/2000/svg" viewBox="0 0 102.42692 72.75">
  <defs>
    <style>
      .cls-1, .cls-3, .cls-4, .cls-5 {
        fill: none;
        stroke: #8ff4dd;
      }

      .cls-1, .cls-5 {
        stroke-miterlimit: 10;
      }

      .cls-1 {
        stroke-width: 0.5px;
      }

      .cls-2 {
        fill: #8ff4dd;
      }

      .cls-3 {
        stroke-width: 1.5px;
      }

      .cls-4, .cls-5 {
        stroke-width: 2px;
      }

      .cls-5 {
        stroke-linecap: square;
      }
    </style>
  </defs>
  <title>SRNANDLatch</title>
  <line class="cls-1" x1="94.69231" y1="55.15102" x2="102.21049" y2="55.15102"/>
  <path class="cls-2" d="M101.00835,18.09721c-1.08219,0-1.23859-1.03375-1.43094-2.25986a3.69617,3.69617,0,0,1-1.12993.18062,4.14076,4.14076,0,0,1-3.93164-4.32877,3.94972,3.94972,0,1,1,7.85077,0,4.34314,4.34314,0,0,1-2.4404,4.00432c.28853.84137.56536,1.28631,1.17838,1.28631a1.13664,1.13664,0,0,0,1.094-1.15416c.01175-.08369.01175-.16886.10792-.16886.12041,0,.12041.10865.12041.22907C102.4268,15.99453,102.415,18.09721,101.00835,18.09721ZM98.43571,7.5659c-1.20259,0-2.82591,1.11818-2.82591,4.1115,0,2.59759,1.2026,3.63127,2.09246,3.94411a1.16511,1.16511,0,0,1-.19236-.61379.97186.97186,0,0,1,.93244-1.00974l.01688-.00052c.78189,0,1.11818.70923,1.323,1.31127a4.186,4.186,0,0,0,1.49042-3.63127C101.27264,8.72006,99.69779,7.5659,98.43571,7.5659Zm.0235,6.67238A.73485.73485,0,0,0,97.75,14.996a.71732.71732,0,0,0,.67551.75679h0l.022.00091a2.306,2.306,0,0,0,1.06972-.27753C99.385,14.8036,99.14494,14.23828,98.45921,14.23828Z"/>
  <path class="cls-2" d="M101.00072,68.443c-1.0822,0-1.23859-1.03375-1.43095-2.25986a3.69582,3.69582,0,0,1-1.12993.18062A4.14077,4.14077,0,0,1,94.5082,62.035a3.94972,3.94972,0,1,1,7.85077,0,4.34312,4.34312,0,0,1-2.4404,4.00432c.28853.84138.56536,1.28631,1.17838,1.28631a1.13666,1.13666,0,0,0,1.094-1.15416c.01174-.08369.01174-.16886.10791-.16886.1204,0,.1204.10865.1204.22907C102.4192,66.3403,102.40745,68.443,101.00072,68.443ZM98.42811,57.91172c-1.2026,0-2.82591,1.11818-2.82591,4.1115,0,2.59759,1.20261,3.63127,2.09246,3.94411a1.16505,1.16505,0,0,1-.19236-.61379.97185.97185,0,0,1,.93244-1.00974h0l.01686-.00052c.7819,0,1.11818.70923,1.323,1.31127a4.186,4.186,0,0,0,1.49042-3.63128C101.265,59.06588,99.69019,57.91172,98.42811,57.91172Zm.0235,6.67238a.73485.73485,0,0,0-.70923.75768.7173.7173,0,0,0,.6755.75679h0l.022.00091a2.306,2.306,0,0,0,1.06972-.27753C99.37742,65.14942,99.13734,64.5841,98.45161,64.5841Z"/>
  <g>
    <g>
      <path class="cls-2" d="M40.6.55v22.2H52A11.1,11.1,0,1,0,52,.55Zm1.6,1.6H52a9.24062,9.24062,0,0,1,9.3,9.1v.4a9.32668,9.32668,0,0,1-9.3,9.5H42.3v-19Z"/>
      <path class="cls-3" d="M67.8,11.75a2.2,2.2,0,1,1-2.2-2.2,2.15637,2.15637,0,0,1,2.2,2.2Z"/>
      <line class="cls-4" x1="67.7" y1="11.75" x2="76.7" y2="11.75"/>
      <line class="cls-4" x1="41.7" y1="5.75" x2="26.7" y2="5.75"/>
      <line class="cls-4" x1="41.7" y1="17.75" x2="26.7" y2="17.75"/>
    </g>
    <g>
      <path class="cls-2" d="M40.6,50.55v22.2H52a11.1,11.1,0,1,0,0-22.2Zm1.6,1.6H52a9.24062,9.24062,0,0,1,9.3,9.1v.4a9.32668,9.32668,0,0,1-9.3,9.5H42.3v-19Z"/>
      <path class="cls-3" d="M67.8,61.75a2.2,2.2,0,1,1-2.2-2.2,2.15637,2.15637,0,0,1,2.2,2.2Z"/>
      <line class="cls-4" x1="67.7" y1="61.75" x2="76.7" y2="61.75"/>
      <line class="cls-4" x1="41.7" y1="55.75" x2="26.7" y2="55.75"/>
      <line class="cls-4" x1="41.7" y1="67.75" x2="26.7" y2="67.75"/>
    </g>
  </g>
  <g>
    <polyline class="cls-5" points="26.7 17.75 26.7 27.75 76.7 45.75 76.7 61.75 91.7 61.75"/>
    <polyline class="cls-5" points="91.7 11.75 76.7 11.75 76.7 27.75 26.7 45.75 26.7 55.75"/>
    <line class="cls-5" x1="26.7" y1="5.75" x2="11.7" y2="5.75"/>
    <line class="cls-5" x1="26.7" y1="67.75" x2="11.7" y2="67.75"/>
    <circle class="cls-2" cx="76.7" cy="11.75" r="2.5"/>
    <circle class="cls-2" cx="76.7" cy="61.75" r="2.5"/>
    <path class="cls-2" d="M7.2,72.25a2.69445,2.69445,0,0,1-1.5-.5c-.5-.5-.5-.9-.5-1.7s0-1.2-.5-1.6a1.50382,1.50382,0,0,0-1.1-.4H2.3v3c0,.4,0,.6.9.6h.3v.3H0v-.4H.3c.9,0,.9-.1.9-.6v-6.3c0-.4,0-.6-.9-.6H0v-.4H3.8c1.8,0,3.1,1,3.1,2.2,0,.9-.9,1.7-2.1,2a2.31709,2.31709,0,0,1,1.5,1.4l.2,1c.1,1.1.2,1.7.8,1.7.3,0,.7-.2.8-1,0-.1,0-.2.1-.2.2,0,.2.1.2.2A1.25777,1.25777,0,0,1,7.2,72.25Zm-4-8.1H2.5c-.3,0-.3.2-.3.5v3.1H3.5c1.8,0,2.1-1,2.1-1.8C5.7,64.25,4.3,64.15,3.2,64.15Z"/>
    <path class="cls-2" d="M4.5,10.25a3.49457,3.49457,0,0,1-2.2-.8c-.4.6-.4.7-.4.7-.1.1-.1.2-.2.2s-.1-.1-.1-.3V7.55c0-.2,0-.3.2-.3.1,0,.1,0,.1.1h0a2.26822,2.26822,0,0,0,.7,1.8,2.5644,2.5644,0,0,0,1.9.6,1.66635,1.66635,0,0,0,1.6-1.7h0a1.50387,1.50387,0,0,0-.4-1.1,1.70053,1.70053,0,0,0-1-.6,15.51592,15.51592,0,0,1-1.6-.3,2.26127,2.26127,0,0,1-1.4-3,2.28953,2.28953,0,0,1,2.2-1.5,2.732,2.732,0,0,1,1.9.8l.4-.7c.1-.1.1-.2.2-.2s.1.1.1.3v2.4c0,.2,0,.3-.2.3a.09794.09794,0,0,1-.1-.1c-.1-.5-.3-2.5-2.3-2.5a1.57953,1.57953,0,0,0-1.6,1.6,1.5075,1.5075,0,0,0,1.2,1.5l1.5.4a2.46084,2.46084,0,0,1,1.8,2.4,2.3654,2.3654,0,0,1-2.3,2.5Z"/>
    <line class="cls-1" x1="1.2" y1="62.25" x2="7.2" y2="62.25"/>
    <line class="cls-1" x1="1.2" y1="0.25" x2="7.2" y2="0.25"/>
  </g>
</svg>
