<svg id="Layer_1" data-name="Layer 1" xmlns="http://www.w3.org/2000/svg" viewBox="0 0 103.35319 72.22895">
  <defs>
    <style>
      .cls-1, .cls-5 {
        fill: #8ff4dd;
      }

      .cls-1 {
        fill-rule: evenodd;
      }

      .cls-2, .cls-3, .cls-4, .cls-6 {
        fill: none;
        stroke: #8ff4dd;
      }

      .cls-2 {
        stroke-width: 1.5px;
      }

      .cls-3, .cls-4 {
        stroke-width: 2px;
      }

      .cls-4 {
        stroke-linecap: square;
      }

      .cls-4, .cls-6 {
        stroke-miterlimit: 10;
      }

      .cls-6 {
        stroke-width: 0.5px;
      }
    </style>
  </defs>
  <title>SRNORLatch</title>
  <g>
    <g>
      <path class="cls-1" d="M37.31125,0l1.11111,1.35411a16.71872,16.71872,0,0,1,0,19.51389l-1.11111,1.35417h9.53124a19.22682,19.22682,0,0,0,7.56945-1.33681c3.29739-1.35041,6.96475-4.07959,9.82639-9.375l-.72916-.39925.72915-.39931C58.51437.1198,49.485,0,46.84249,0Zm3.26389,1.66666h6.26735c2.60232,0,10.15937-.07233,15.5382,9.44445-2.64821,4.68282-5.84516,7.04661-8.73265,8.22916a16.959,16.959,0,0,1-6.80555,1.21528h-6.25A18.169,18.169,0,0,0,40.57514,1.66666Z" transform="translate(0.00004)"/>
      <path class="cls-2" d="M67.81472,11.11111a2.22223,2.22223,0,1,1-2.22223-2.22222,2.22223,2.22223,0,0,1,2.22223,2.22222Z" transform="translate(0.00004)"/>
      <line class="cls-3" x1="67.70365" y1="11.11111" x2="76.70365" y2="11.11111"/>
      <line class="cls-3" x1="41.70365" y1="5.11111" x2="26.70365" y2="5.11111"/>
      <line class="cls-3" x1="41.70365" y1="17.11111" x2="26.70365" y2="17.11111"/>
    </g>
    <g>
      <path class="cls-1" d="M37.31125,50l1.11111,1.35416a16.71872,16.71872,0,0,1,0,19.51389l-1.11111,1.35418h9.53124a19.22717,19.22717,0,0,0,7.56945-1.33681c3.29739-1.35042,6.96475-4.07959,9.82639-9.375l-.72916-.39931.72915-.39931C58.51437,50.1198,49.485,50,46.84249,50Zm3.26389,1.66666h6.26735c2.60232,0,10.15937-.07233,15.5382,9.44445-2.64821,4.68282-5.84516,7.04661-8.73265,8.22916a16.959,16.959,0,0,1-6.80555,1.21528h-6.25A18.169,18.169,0,0,0,40.57514,51.66666Z" transform="translate(0.00004)"/>
      <path class="cls-2" d="M67.81472,61.11111a2.22223,2.22223,0,1,1-2.22223-2.22222,2.22223,2.22223,0,0,1,2.22223,2.22222Z" transform="translate(0.00004)"/>
      <line class="cls-3" x1="67.70365" y1="61.11111" x2="76.70365" y2="61.11111"/>
      <line class="cls-3" x1="41.70365" y1="55.11111" x2="26.70365" y2="55.11111"/>
      <line class="cls-3" x1="41.70365" y1="67.11111" x2="26.70365" y2="67.11111"/>
    </g>
  </g>
  <g>
    <polyline class="cls-4" points="26.704 17.111 26.704 27.111 76.704 45.111 76.704 61.111 91.704 61.111"/>
    <polyline class="cls-4" points="91.704 11.111 76.704 11.111 76.704 27.111 26.704 45.111 26.704 55.111"/>
    <line class="cls-4" x1="26.70365" y1="5.11111" x2="11.70365" y2="5.11111"/>
    <line class="cls-4" x1="26.70365" y1="67.11111" x2="11.70365" y2="67.11111"/>
    <circle class="cls-5" cx="76.70365" cy="11.11111" r="2.5"/>
    <circle class="cls-5" cx="76.70365" cy="61.11111" r="2.5"/>
    <path class="cls-5" d="M7.21972,9.65554a2.33612,2.33612,0,0,1-1.51123-.50341c-.4917-.45606-.4917-.93555-.4917-1.71534,0-.80322,0-1.17529-.45556-1.60693A1.52857,1.52857,0,0,0,3.646,5.42215H2.26661V8.45632c0,.43165.02392.564.94726.564H3.502V9.3919c-.43164-.03613-1.2832-.03613-1.751-.03613s-1.31933,0-1.751.03613V9.02032H.28761c.92383,0,.94776-.13232.94776-.564V2.136c0-.43213-.02393-.564-.94776-.564H0V1.20043H3.76561c1.76319,0,3.13037,1.00732,3.13037,2.15869,0,.93554-.93554,1.667-2.09863,1.95509a2.07848,2.07848,0,0,1,1.46289,1.3911l.15625.95947c.168,1.11524.26367,1.727.85156,1.727.29981,0,.71924-.21582.79151-1.06737.01172-.084.01172-.1919.14355-.1919.15625,0,.15625.13184.15625.20411C8.35937,8.67211,8.15527,9.65554,7.21972,9.65554ZM3.23828,1.57205a5.89,5.89,0,0,0-.708.02392c-.26367.03614-.26367.18018-.26367.45605V5.158h1.331c1.77539,0,2.063-.9712,2.063-1.79882C5.66061,1.6199,4.31738,1.57205,3.23828,1.57205Z" transform="translate(0.00004)"/>
    <path class="cls-5" d="M4.47361,71.656a3.004,3.004,0,0,1-2.207-.83984c-.39551.63574-.43164.68359-.43164.68359-.084.13185-.09571.15625-.17969.15625-.13232,0-.13232-.084-.13232-.28808V68.96853c0-.21484,0-.29883.15625-.29883a.125.125,0,0,1,.14261.10447l.00139.01468a2.42852,2.42852,0,0,0,.74316,1.84765,2.89148,2.89148,0,0,0,1.895.64746,1.64471,1.64471,0,0,0,1.60854-1.68011l-.00112-.03473a1.7519,1.7519,0,0,0-.37207-1.10352,1.59127,1.59127,0,0,0-1.01953-.6123c-.83935-.20313-1.45117-.34766-1.583-.39551a2.3233,2.3233,0,0,1,.76757-4.52148,2.46857,2.46857,0,0,1,1.919.83985l.41992-.6836c.084-.14356.0957-.15625.17969-.15625.13183,0,.13183.084.13183.28808v2.41016c0,.22851,0,.28808-.15576.28808-.13183,0-.13183-.07129-.144-.14355-.07178-.54-.33545-2.50684-2.33838-2.50684A1.56794,1.56794,0,0,0,3.50194,66.367l1.53516.3711a2.45443,2.45443,0,0,1,1.79931,2.42285,2.4047,2.4047,0,0,1-2.31223,2.49374Z" transform="translate(0.00004)"/>
  </g>
  <line class="cls-6" x1="95.61864" y1="54.76549" x2="103.13681" y2="54.76549"/>
  <path class="cls-5" d="M101.93463,17.71168c-1.08219,0-1.23859-1.03375-1.43094-2.25986a3.69592,3.69592,0,0,1-1.12993.18062,4.14076,4.14076,0,0,1-3.93164-4.32877,3.94972,3.94972,0,1,1,7.85077,0,4.34313,4.34313,0,0,1-2.4404,4.00432c.28853.84138.56536,1.28631,1.17838,1.28631a1.13664,1.13664,0,0,0,1.094-1.15416c.01175-.08369.01175-.16886.10792-.16886.12041,0,.12041.10865.12041.22907C103.35309,15.609,103.34134,17.71168,101.93463,17.71168ZM99.362,7.18037c-1.2026,0-2.82591,1.11818-2.82591,4.1115,0,2.59759,1.2026,3.63127,2.09246,3.94411a1.16505,1.16505,0,0,1-.19236-.61379.97186.97186,0,0,1,.93244-1.00974l.01688-.00052c.78189,0,1.11818.70923,1.323,1.31127a4.186,4.186,0,0,0,1.49042-3.63127C102.19893,8.33453,100.62408,7.18037,99.362,7.18037Zm.0235,6.67238a.73485.73485,0,0,0-.70923.75768.7173.7173,0,0,0,.67552.75679l.022.00091a2.3059,2.3059,0,0,0,1.06972-.27753C100.31131,14.41807,100.07123,13.85275,99.3855,13.85275Z" transform="translate(0.00004)"/>
  <path class="cls-5" d="M101.927,68.0575c-1.0822,0-1.23859-1.03375-1.43095-2.25986a3.69587,3.69587,0,0,1-1.12993.18062,4.14076,4.14076,0,0,1-3.93164-4.32877,3.94972,3.94972,0,1,1,7.85077,0,4.34312,4.34312,0,0,1-2.4404,4.00432c.28853.84138.56536,1.28631,1.17838,1.28631a1.13665,1.13665,0,0,0,1.094-1.15416c.01174-.08369.01174-.16886.10791-.16886.12041,0,.12041.10865.12041.22907C103.34548,65.95477,103.33373,68.0575,101.927,68.0575ZM99.35439,57.52619c-1.2026,0-2.82591,1.11818-2.82591,4.1115,0,2.59759,1.20261,3.63127,2.09246,3.94411a1.16514,1.16514,0,0,1-.19236-.61379.97186.97186,0,0,1,.93245-1.00974l.01687-.00052c.78189,0,1.11818.70923,1.323,1.31127a4.186,4.186,0,0,0,1.49042-3.63127C102.19132,58.68035,100.61647,57.52619,99.35439,57.52619Zm.0235,6.67238a.73486.73486,0,0,0-.70923.75768.7173.7173,0,0,0,.67552.75679l.022.00091a2.3059,2.3059,0,0,0,1.06972-.27753C100.3037,64.76389,100.06362,64.19857,99.37789,64.19857Z" transform="translate(0.00004)"/>
</svg>
