<?xml version="1.0" encoding="utf-8"?>
<!-- Generator: Adobe Illustrator 23.0.3, SVG Export Plug-In . SVG Version: 6.00 Build 0)  -->
<svg version="1.1" id="Layer_1" xmlns="http://www.w3.org/2000/svg" xmlns:xlink="http://www.w3.org/1999/xlink" x="0px" y="0px"
	 viewBox="0 0 134.2 72.2" style="enable-background:new 0 0 134.2 72.2;" xml:space="preserve">
<style type="text/css">
	.st0{fill-rule:evenodd;clip-rule:evenodd;fill:#8FF4DD;}
	.st1{fill:none;stroke:#8FF4DD;stroke-width:2;}
	.st2{fill:#8FF4DD;}
	.st3{fill:none;stroke:#8FF4DD;stroke-width:2;stroke-miterlimit:10;}
	.st4{fill:none;stroke:#8FF4DD;stroke-width:0.5;stroke-miterlimit:10;}
	.st5{fill:none;stroke:#8FF4DD;stroke-miterlimit:10;}
</style>
<title>SumOfProductsCircuit</title>
<g>
	<g>
		<path class="st0" d="M85.7,50l1.1,1.4c4.2,5.8,4.2,13.7,0,19.5l-1.1,1.4h9.5c2.6,0.1,5.2-0.4,7.6-1.3c3.3-1.4,7-4.1,9.8-9.4
			l-0.7-0.4l0.7-0.4C106.9,50.1,97.9,50,95.2,50H85.7z M89,51.7h6.3c2.6,0,10.2-0.1,15.5,9.4c-2.6,4.7-5.8,7-8.7,8.2
			c-2.2,0.9-4.5,1.3-6.8,1.2H89C92.5,64.8,92.5,57.5,89,51.7L89,51.7z"/>
		<line class="st1" x1="125.1" y1="61.1" x2="111.1" y2="61.1"/>
		<line class="st1" x1="90.1" y1="55.1" x2="75.1" y2="55.1"/>
		<line class="st1" x1="90.1" y1="67.1" x2="75.1" y2="67.1"/>
	</g>
	<g>
		<path class="st2" d="M34,36v22.2h11.4c6.1,0,11.1-5,11.1-11.1c0-6.1-5-11.1-11.1-11.1H34z M35.6,37.6h9.8c5.1,0,9.2,4,9.3,9.1
			c0,0.1,0,0.3,0,0.4c0.1,5.2-4.1,9.5-9.3,9.5c-0.1,0-0.2,0-0.2,0h-9.5L35.6,37.6z"/>
		<line class="st1" x1="56.1" y1="47.1" x2="70.1" y2="47.1"/>
		<line class="st1" x1="35.1" y1="41.1" x2="20.1" y2="41.1"/>
		<line class="st1" x1="35.1" y1="53.1" x2="20.1" y2="53.1"/>
	</g>
	<g>
		<path class="st2" d="M34,0v22.2h11.4c6.1,0,11.1-5,11.1-11.1C56.4,5,51.5,0,45.3,0H34z M35.6,1.6h9.8c5.1,0,9.2,4,9.3,9.1
			c0,0.1,0,0.3,0,0.4c0.1,5.2-4.1,9.5-9.3,9.5c-0.1,0-0.2,0-0.2,0h-9.5L35.6,1.6z"/>
		<line class="st1" x1="56.1" y1="11.1" x2="70.1" y2="11.1"/>
		<line class="st1" x1="35.1" y1="5.1" x2="20.1" y2="5.1"/>
		<line class="st1" x1="35.1" y1="17.1" x2="20.1" y2="17.1"/>
	</g>
	<line class="st3" x1="34" y1="11.1" x2="20.1" y2="11.1"/>
	<line class="st3" x1="90.1" y1="61.1" x2="75.1" y2="61.1"/>
</g>
<g>
	<polyline class="st3" points="70.1,11.1 75.1,11.1 75.1,56.1 	"/>
	<polyline class="st3" points="70.1,46.1 70.1,61.1 75.7,61.1 	"/>
	<line class="st3" x1="75.7" y1="67.1" x2="20.7" y2="67.1"/>
	<polyline class="st3" points="20.1,42.1 20.1,17.1 10.1,17.1 	"/>
	<line class="st3" x1="21.1" y1="11.1" x2="10.1" y2="11.1"/>
	<line class="st3" x1="21.1" y1="5.1" x2="10.1" y2="5.1"/>
	<line class="st3" x1="21.1" y1="53.1" x2="10.1" y2="53.1"/>
	<line class="st3" x1="21.1" y1="67.1" x2="10.1" y2="67.1"/>
	<circle class="st2" cx="20.1" cy="17.1" r="2.5"/>
	<path class="st2" d="M133.9,60c-0.2-1.7-0.5-2.3-2.3-2.3h-1.4c-0.6,0-0.6,0.1-0.6,0.5v3h1c1.2,0,1.3-0.4,1.3-1.4h0.3V63h-0.3
		c0-1-0.1-1.4-1.3-1.4h-1v3c0,0.4,0,0.6,1.1,0.6h0.4v0.4c-0.4,0-1.5,0-2,0c-0.5,0-1.4,0-1.8,0v-0.4h0.3c0.9,0,0.9-0.1,0.9-0.6v-6.3
		c0-0.4,0-0.6-0.9-0.6h-0.3v-0.4h6.6l0.3,2.7L133.9,60z"/>
	<path class="st2" d="M7.5,15.9l-1.2,1.9V19c0,0.2,0,0.3,0.5,0.3H7v0.2c-0.2,0-0.6,0-0.9,0s-0.7,0-0.9,0v-0.2h0.1
		c0.5,0,0.5-0.1,0.5-0.3v-1.2l-1.3-2.1c-0.1-0.2-0.1-0.2-0.6-0.2H3.9v-0.2l0.8,0c0.2,0,0.7,0,0.9,0v0.2c-0.3,0-0.4,0-0.4,0.1
		c0,0,0,0,0,0.1l1.1,1.8l1-1.6c0-0.1,0.1-0.1,0.1-0.2c0-0.1-0.1-0.2-0.3-0.2v-0.2l0.7,0c0.2,0,0.4,0,0.6,0v0.2
		C8,15.5,7.7,15.7,7.5,15.9z"/>
	<line class="st4" x1="4.6" y1="8.6" x2="7.6" y2="8.6"/>
	<path class="st2" d="M7.5,13.5H4.8c-0.1,0-0.2,0-0.2-0.1c0,0,0-0.1,0-0.1L7,9.5H6c-1,0-1.2,0.5-1.2,1.2H4.7l0.1-1.3h2.7
		c0.1,0,0.2,0,0.2,0.1c0,0,0,0,0,0.1l-2.3,3.7h1c1.1,0,1.2-0.6,1.3-1.4h0.1L7.5,13.5z"/>
	<path class="st2" d="M7.4,7.4c-0.2,0-0.7,0-0.9,0V7.3C6.8,7.3,7,7.2,7,7.1c0,0,0,0,0-0.1L6,5.6L5.1,6.9c0,0.1-0.1,0.1-0.1,0.1
		c0,0.1,0.1,0.3,0.4,0.3v0.2c-0.2,0-0.5,0-0.8,0L4,7.5V7.3c0.3,0,0.7-0.1,0.9-0.4l1-1.5L4.8,3.8C4.6,3.6,4.5,3.5,4.2,3.5H4.1V3.4
		l0.8,0c0.2,0,0.7,0,0.9,0v0.2c-0.3,0-0.4,0.1-0.4,0.2c0,0,0,0.1,0,0.1L6.2,5l0.7-1c0-0.1,0.1-0.1,0.1-0.1c0-0.1-0.1-0.3-0.4-0.3
		V3.4c0.2,0,0.5,0,0.8,0l0.7,0v0.2c-0.3,0-0.7,0.1-0.9,0.4L6.3,5.1l1.3,1.9c0.1,0.2,0.3,0.2,0.6,0.2h0.1v0.2L7.4,7.4z"/>
	<line class="st4" x1="4.6" y1="2.6" x2="7.6" y2="2.6"/>
	<path class="st2" d="M7.2,63.4l-2.3,3.8v2.3c0,0.5,0,0.6,1,0.6h0.3v0.4c-0.4,0-1.3,0-1.8,0s-1.3,0-1.8,0v-0.4h0.3
		c0.9,0,0.9-0.1,0.9-0.6v-2.3l-2.5-4.1c-0.2-0.3-0.3-0.4-1.1-0.4H0v-0.4l1.6,0c0.5,0,1.3,0,1.8,0v0.4c-0.5,0-0.8,0-0.8,0.3
		c0,0.1,0,0.1,0.1,0.2l2.2,3.5l2-3.2c0.1-0.1,0.1-0.2,0.1-0.4c0-0.2-0.2-0.5-0.7-0.5v-0.4l1.4,0c0.3,0,0.8,0,1.2,0v0.4
		C8.1,62.6,7.5,62.9,7.2,63.4z"/>
	<path class="st2" d="M7,57.4c-0.5,0-1.3,0-1.8,0v-0.4c0.5,0,0.8-0.2,0.8-0.4c0,0,0-0.1-0.1-0.1l-1.9-2.9l-1.7,2.5
		c-0.1,0.1-0.1,0.2-0.1,0.3c0,0.2,0.2,0.5,0.8,0.6v0.4c-0.4,0-1.1,0-1.5,0l-1.3,0v-0.4c0.7,0.1,1.4-0.2,1.7-0.8l2-2.9l-2.2-3.3
		c-0.2-0.3-0.5-0.4-1.1-0.4H0.3v-0.4l1.6,0c0.5,0,1.3,0,1.8,0v0.4c-0.5,0-0.8,0.2-0.8,0.4c0,0.1,0,0.1,0.1,0.2l1.5,2.3l1.4-2
		c0.1-0.1,0.1-0.2,0.1-0.3c0-0.3-0.3-0.5-0.7-0.6v-0.4c0.5,0,1.1,0,1.5,0l1.3,0v0.4c-0.7-0.1-1.3,0.2-1.7,0.8l-1.6,2.4l2.5,3.8
		c0.3,0.4,0.5,0.4,1.1,0.4h0.2v0.4L7,57.4z"/>
	<line class="st5" x1="1.4" y1="60.6" x2="7.4" y2="60.6"/>
</g>
</svg>
