<svg id="Layer_1" data-name="Layer 1" xmlns="http://www.w3.org/2000/svg" viewBox="0 0 278.06713 104.47134">
  <defs>
    <style>
      .cls-1, .cls-3 {
        fill: none;
        stroke: #8ff4dd;
        stroke-miterlimit: 10;
      }

      .cls-1 {
        stroke-width: 2px;
      }

      .cls-2 {
        fill: #8ff4dd;
      }
    </style>
  </defs>
  <title>SynchronousCircuit</title>
  <g>
    <rect class="cls-1" x="56.50679" y="1" width="70" height="50"/>
    <rect class="cls-1" x="166.50678" y="21" width="50" height="30"/>
  </g>
  <g>
    <g>
      <g>
        <path class="cls-2" d="M63.29005,25.18774a3.63628,3.63628,0,0,1,0-7.26562,2.45225,2.45225,0,0,1,1.83984.85937l.499-.73974c.08008-.11963.12012-.11963.16016-.11963.11035,0,.11035.06982.11035.23975v2.36866c0,.21,0,.23973-.16016.23973-.13964,0-.13964-.02977-.16015-.16992-.2002-1.459-1.08887-2.36865-2.17873-2.36865-.60937,0-2.55859.33984-2.55859,3.32812,0,2.97852,1.959,3.31836,2.56836,3.31836a2.26378,2.26378,0,0,0,2.23926-2.249c.00976-.09961.00976-.15967.12011-.15967.12989,0,.12989.06983.12989.16992A2.61345,2.61345,0,0,1,63.29005,25.18774Z" transform="translate(-0.00005)"/>
        <path class="cls-2" d="M68.961,25.07788a2.2268,2.2268,0,1,1,.01358-.00009Zm1.12988-3.71777a1.31223,1.31223,0,0,0-1.12988-.6499,1.34263,1.34263,0,0,0-1.13965.66992,2.87153,2.87153,0,0,0-.23925,1.36914,2.97283,2.97283,0,0,0,.25,1.40918,1.304,1.304,0,0,0,1.13868.66943,1.29094,1.29094,0,0,0,1.16015-.73926,3.03824,3.03824,0,0,0,.21973-1.33934,2.74343,2.74343,0,0,0-.25977-1.38917Z" transform="translate(-0.00005)"/>
        <path class="cls-2" d="M78.47852,24.93823l-1.1289.0298v-.31c.66894,0,.77929,0,.77929-.44971V21.87968c0-.56984-.11035-1.10939-.74023-1.10939a1.45915,1.45915,0,0,0-1.352,1.5589l.00342.04023v1.83886c0,.44971.10937.44971.77929.44971v.31006l-1.11914-.02979-1.12988.02979V24.658c.66992,0,.78027,0,.78027-.44971V21.87968c0-.56984-.11035-1.10939-.74023-1.10939a1.45915,1.45915,0,0,0-1.35205,1.5589l.00342.04023v1.83886c0,.44971.10937.44971.77929.44971v.31006l-1.11914-.02979-1.12988.02979V24.658c.66992,0,.78027,0,.78027-.44971V21.53c0-.48975-.08007-.55957-.78027-.55957v-.31006l1.40918-.10986v1.04931a1.57644,1.57644,0,0,1,1.47949-1.04931,1.18255,1.18255,0,0,1,1.3291.97949,1.58107,1.58107,0,0,1,1.44922-.97949,1.334,1.334,0,0,1,1.04981.36963c.30957.35986.30957.66992.30957,1.52928v1.9087c.00976.29981.25976.29981.77929.29981V24.968Z" transform="translate(-0.00005)"/>
        <path class="cls-2" d="M82.501,25.07788a1.57133,1.57133,0,0,1-1.30957-.72949L80.832,24.968h-.25V19.01147c0-.48974-.08008-.56005-.7793-.56005v-.30957l1.43848-.10988V21.2a1.77706,1.77706,0,0,1,1.36914-.64941,2.19827,2.19827,0,0,1,2.11914,2.25879A2.25207,2.25207,0,0,1,82.501,25.07788Zm1.10938-3.668a1.24284,1.24284,0,0,0-1.04981-.63965,1.44259,1.44259,0,0,0-1.17871.63965.43483.43483,0,0,0-.11035.35987v2.05908a.54554.54554,0,0,0,.13965.41944,1.23447,1.23447,0,0,0,1.04981.60986,1.373,1.373,0,0,0,1.1289-.63964A3.43472,3.43472,0,0,0,83.61036,21.40988Z" transform="translate(-0.00005)"/>
        <path class="cls-2" d="M86.51173,24.93823l-1.09961.0298v-.31c.66894,0,.77929,0,.77929-.44971V21.51982c0-.48975-.08984-.54932-.73925-.54932v-.31005l1.39843-.10987v3.668c0,.38964.04.43946.7002.43946v.31005C87.211,24.95825,86.86134,24.93823,86.51173,24.93823ZM86.461,19.46118a.52983.52983,0,1,1,.54-.52978A.53937.53937,0,0,1,86.461,19.46118Z" transform="translate(-0.00005)"/>
        <path class="cls-2" d="M92.08984,24.93823l-1.12891.0298v-.31c.66895,0,.7793,0,.7793-.44971V21.87968c0-.56984-.11035-1.10939-.73926-1.10939a1.45982,1.45982,0,0,0-1.353,1.55935l.00337.03978v1.83886c0,.44971.11035.44971.7793.44971v.31006l-1.11914-.02979-1.12891.02979V24.658c.66894,0,.7793,0,.7793-.44971V21.53c0-.48975-.08008-.55957-.7793-.55957v-.31006l1.40918-.10986v1.04931a1.57423,1.57423,0,0,1,1.47851-1.04931,1.33234,1.33234,0,0,1,1.04981.36963c.30957.35986.30957.66992.30957,1.52928v1.9087c.00977.29981.25977.29981.7793.29981V24.968Z" transform="translate(-0.00005)"/>
        <path class="cls-2" d="M97.4297,25.02808a.83663.83663,0,0,1-.7793-.81983,1.384,1.384,0,0,1-1.30957.86963c-.62988,0-1.5996-.25-1.5996-1.05957a1.45559,1.45559,0,0,1,1-1.29883,4.85138,4.85138,0,0,1,1.83887-.35986V21.9895a1.13186,1.13186,0,0,0-.97285-1.27114q-.0432-.00575-.08672-.00815a1.40268,1.40268,0,0,0-1.0791.46c.46.00976.50976.33985.50976.45947a.46.46,0,1,1-.92-.00528l.00005-.00449c0-.65966.68945-1.12939,1.50976-1.12939a1.9071,1.9071,0,0,1,1.36914.5498,1.47894,1.47894,0,0,1,.35938,1.1792v1.999c0,.0498.04.49951.37012.49951.10937,0,.35937-.06006.35937-.63965v-.55957h.25v.55957a.84867.84867,0,0,1-.74124.944Q97.46888,25.027,97.4297,25.02808Zm-.84961-2.459c-1.64942.06006-2.06836.88965-2.06836,1.43946a.86035.86035,0,0,0,.87016.85044l.02925-.00083a1.20061,1.20061,0,0,0,1.17194-1.2286q-.00072-.03051-.003-.06095Z" transform="translate(-0.00005)"/>
        <path class="cls-2" d="M100.751,25.07788a1.20931,1.20931,0,0,1-1.29-1.34912v-2.7583h-.84961v-.22022c.97949-.04,1.2793-1.10937,1.29-1.92871h.25v1.83886h1.42872v.31006h-1.42872v2.77832c0,.16992,0,1.0791.66895,1.0791.37012,0,.66992-.37938.66992-1.11914v-.54979h.25v.56981C101.74024,24.36841,101.46,25.07788,100.751,25.07788Z" transform="translate(-0.00005)"/>
        <path class="cls-2" d="M103.7422,24.93823l-1.09961.0298v-.31c.66894,0,.77929,0,.77929-.44971V21.51982c0-.48975-.08984-.54932-.73926-.54932v-.31005l1.39844-.10987v3.668c0,.38964.04.43946.7002.43946v.31005C104.44141,24.95825,104.09185,24.93823,103.7422,24.93823Zm-.05079-5.47705a.52983.52983,0,1,1,.54-.52978A.53938.53938,0,0,1,103.69141,19.46118Z" transform="translate(-0.00005)"/>
        <path class="cls-2" d="M107.58009,25.07788a2.22647,2.22647,0,1,1,.01483-.0001ZM108.71,21.36011a1.31,1.31,0,0,0-1.12988-.6499,1.34,1.34,0,0,0-1.13868.66992,2.861,2.861,0,0,0-.24023,1.36914,2.97271,2.97271,0,0,0,.25,1.40918,1.30547,1.30547,0,0,0,1.13963.66943,1.2895,1.2895,0,0,0,1.15918-.73926,3.03824,3.03824,0,0,0,.21973-1.33934A2.74363,2.74363,0,0,0,108.71,21.36011Z" transform="translate(-0.00005)"/>
        <path class="cls-2" d="M114.31934,24.93823l-1.1289.0298v-.31c.66894,0,.77929,0,.77929-.44971V21.87968c0-.56984-.11035-1.10939-.73925-1.10939a1.45983,1.45983,0,0,0-1.353,1.55935l.00338.03978v1.83886c0,.44971.11036.44971.77929.44971v.31006l-1.11914-.02979-1.12988.02979V24.658c.66992,0,.78027,0,.78027-.44971V21.53c0-.48975-.08007-.55957-.78027-.55957v-.31006l1.41016-.10986v1.04931a1.57423,1.57423,0,0,1,1.47851-1.04931,1.33235,1.33235,0,0,1,1.04981.36963c.30957.35986.30957.66992.30957,1.52928v1.9087c.00976.29981.25976.29981.77929.29981V24.968Z" transform="translate(-0.00005)"/>
        <path class="cls-2" d="M119.66016,25.02808a.83662.83662,0,0,1-.77929-.81983,1.384,1.384,0,0,1-1.30957.86963c-.62989,0-1.59961-.25-1.59961-1.05957a1.45557,1.45557,0,0,1,1-1.29883,4.85152,4.85152,0,0,1,1.83886-.35986V21.9895a1.13186,1.13186,0,0,0-.97285-1.27114q-.04319-.00575-.08672-.00815a1.40268,1.40268,0,0,0-1.0791.46c.46.00976.50977.33985.50977.45947a.46.46,0,1,1-.92-.00283l.00008-.00694c0-.65966.68945-1.12939,1.50976-1.12939a1.9071,1.9071,0,0,1,1.36914.5498,1.47894,1.47894,0,0,1,.35938,1.1792v1.999c0,.0498.04.49951.37011.49951.10938,0,.35938-.06006.35938-.63965v-.55957h.25v.55957a.84867.84867,0,0,1-.74124.944Q119.69935,25.027,119.66016,25.02808Zm-.84961-2.459c-1.64941.06006-2.06835.88965-2.06835,1.43946a.86035.86035,0,0,0,.87016.85044l.02925-.00083a1.20061,1.20061,0,0,0,1.17194-1.2286q-.00072-.03051-.003-.06095Z" transform="translate(-0.00005)"/>
        <path class="cls-2" d="M122.09185,24.93823l-1.10937.0298v-.31c.66894,0,.77929,0,.77929-.44971V19.01151c0-.48974-.08008-.56005-.77929-.56005v-.30957L122.421,18.032v6.17627c0,.44971.11035.44971.78028.44971v.31006Z" transform="translate(-0.00005)"/>
      </g>
      <g>
        <path class="cls-2" d="M79.92677,34.07788a2.212,2.212,0,0,1-2.14942-2.26855,2.2403,2.2403,0,0,1,2.15923-2.31853l.00972-.00032c.76953,0,1.52929.38965,1.52929,1.06933a.46.46,0,1,1-.91984.01647l-.00008-.00621a.45159.45159,0,0,1,.44274-.46028q.0135-.00029.027.00027a1.62833,1.62833,0,0,0-1.06934-.36963c-.52929,0-1.34863.41944-1.34863,2.04883,0,1.60889.87891,2.03858,1.40918,2.03858a1.30431,1.30431,0,0,0,1.30859-1.04932c.02051-.06.04-.0996.12989-.0996.03027,0,.13086,0,.13086.0996A1.645,1.645,0,0,1,79.92677,34.07788Z" transform="translate(-0.00005)"/>
        <path class="cls-2" d="M83.30665,33.93823l-1.0996.02979v-.31c.66993,0,.78028,0,.78028-.4497V30.51982c0-.48974-.08985-.54932-.74024-.54932v-.31005l1.39942-.10987v3.668c0,.38964.04.43946.70019.43946v.31C84.00684,33.95825,83.65626,33.93823,83.30665,33.93823Zm-.04981-5.477a.53936.53936,0,0,1-.52929-.52978.53384.53384,0,0,1,.53784-.5298h.00122a.54023.54023,0,0,1,.53027.52979.53472.53472,0,0,1-.53961.52979Z" transform="translate(-0.00005)"/>
        <path class="cls-2" d="M87.86524,30.59985a.41406.41406,0,0,1-.42969-.39781q-.00062-.01593,0-.03187a.432.432,0,0,1,.23047-.38965.24971.24971,0,0,0-.11035-.01026c-.75976,0-1.17871.88965-1.17871,1.87891v1.53906c0,.35987.01953.46973.75879.46973h.21V33.968c-.39942-.02979-.86914-.02979-1.26856-.02979l-1.13965.02979v-.31c.66994,0,.7793,0,.7793-.4497V30.53c0-.48975-.08008-.55957-.7793-.55957v-.31006l1.38869-.10986v1.09912a1.4005,1.4005,0,0,1,1.22949-1.09912.68252.68252,0,0,1,.74024.60937.42043.42043,0,0,1-.40029.43965Q87.88047,30.60025,87.86524,30.59985Z" transform="translate(-0.00005)"/>
        <path class="cls-2" d="M91.06641,34.07788A2.212,2.212,0,0,1,88.917,31.80933a2.2403,2.2403,0,0,1,2.15923-2.31853l.00972-.00032c.76953,0,1.52929.38965,1.52929,1.06933a.46.46,0,1,1-.91984.01647l-.00008-.00621a.4516.4516,0,0,1,.44272-.4603q.0135-.00025.027.00029a1.6285,1.6285,0,0,0-1.06934-.36963c-.5293,0-1.34863.41944-1.34863,2.04883,0,1.60889.8789,2.03858,1.40918,2.03858a1.30432,1.30432,0,0,0,1.30859-1.04932c.02051-.06.04-.0996.12988-.0996.03028,0,.13086,0,.13086.0996A1.645,1.645,0,0,1,91.06641,34.07788Z" transform="translate(-0.00005)"/>
        <path class="cls-2" d="M96.92484,34.07788v-.89941a1.36246,1.36246,0,0,1-1.28906.89941c-1.51855,0-1.51855-.90918-1.51855-1.689v-1.499c0-.88965,0-.91943-.78028-.91943V29.6604l1.46973-.10986v3.31787c0,.52.04.98974.87891.98974.72949,0,1.21-.67968,1.21-1.54931V30.53c0-.48975-.08008-.55957-.78027-.55957v-.31006l1.46972-.10986v3.54785c0,.48974.08007.55957.7793.55957V33.968Z" transform="translate(-0.00005)"/>
        <path class="cls-2" d="M100.00684,33.93823l-1.09961.02979v-.31c.66993,0,.78028,0,.78028-.4497V30.51982c0-.48974-.09082-.54932-.74024-.54932v-.31005l1.39942-.10987v3.668c0,.38964.04.43946.69922.43946v.31C100.70606,33.95825,100.35645,33.93823,100.00684,33.93823Zm-.0498-5.477a.5402.5402,0,0,1-.53027-.52978.53471.53471,0,0,1,.53959-.52979h.0004a.54021.54021,0,0,1,.53027.52979.53469.53469,0,0,1-.53959.52978Z" transform="translate(-0.00005)"/>
        <path class="cls-2" d="M103.68653,34.07788a1.20927,1.20927,0,0,1-1.29-1.34912v-2.7583h-.8497v-.22022c.97949-.04,1.27929-1.10936,1.29-1.92871h.25V29.6604h1.42871v.31006h-1.42871v2.77832c0,.16992,0,1.0791.66895,1.0791.37011,0,.66993-.37939.66993-1.11914v-.5498h.25v.56982C104.67585,33.36841,104.39552,34.07788,103.68653,34.07788Z" transform="translate(-0.00005)"/>
      </g>
    </g>
    <g>
      <line class="cls-1" x1="126.50679" y1="11" x2="239.98847" y2="11"/>
      <polygon class="cls-2" points="235.35 16.726 234.395 15.7 239.451 11.001 234.395 6.301 235.35 5.276 241.507 11.001 235.35 16.726"/>
    </g>
    <g>
      <polyline class="cls-1" points="216.507 36 241.507 36 241.507 94 31.507 94 31.507 36 54.989 36"/>
      <polygon class="cls-2" points="50.35 41.726 49.395 40.7 54.451 36.001 49.395 31.301 50.35 30.276 56.507 36.001 50.35 41.726"/>
    </g>
    <g>
      <line class="cls-1" x1="126.50679" y1="36" x2="164.98849" y2="36"/>
      <polygon class="cls-2" points="160.35 41.726 159.395 40.7 164.451 36.001 159.395 31.301 160.35 30.276 166.507 36.001 160.35 41.726"/>
    </g>
    <g>
      <line class="cls-1" x1="54.98849" y1="11" x2="31.50679" y2="11"/>
      <polygon class="cls-2" points="50.35 5.274 49.395 6.3 54.451 10.999 49.395 15.699 50.35 16.724 56.507 10.999 50.35 5.274"/>
    </g>
    <g>
      <path class="cls-2" d="M1.51905,13.28467c-.3794,0-1.16895,0-1.519.02978v-.31006H.25983c.78955,0,.81981-.10987.81981-.46972V7.26758c0-.35938-.03027-.46973-.81981-.46973H.00005V6.48828c.3501.02979,1.13965.02979,1.5293.02979.37988,0,1.16943,0,1.519-.02979v.30957H2.78859c-.78955,0-.81983.11035-.81983.46973v5.26709c0,.35986.03028.46972.81983.46972h.25976v.31006C2.69873,13.28467,1.90919,13.28467,1.51905,13.28467Z" transform="translate(-0.00005)"/>
      <path class="cls-2" d="M7.55762,13.28467l-1.12938.02978v-.31006c.66992,0,.77978,0,.77978-.4497V10.22607c0-.56982-.10987-1.10937-.73974-1.10937a1.45949,1.45949,0,0,0-1.35253,1.55912l.0034.04v1.83887c0,.4497.10987.4497.7793.4497v.31006L4.7793,13.28467l-1.12938.02978v-.31006c.66943,0,.77978,0,.77978-.4497V9.87646c0-.48974-.08008-.56-.77978-.56V9.00689L5.0591,8.897V9.94633A1.57534,1.57534,0,0,1,6.53809,8.897a1.33319,1.33319,0,0,1,1.0498.36963c.30958.35986.30958.66992.30958,1.52929v1.9087c.01024.29979.25976.29979.77978.29979v.31006Z" transform="translate(-0.00005)"/>
      <path class="cls-2" d="M11.86866,13.42432a1.35685,1.35685,0,0,1-1.2295-.69971v1.769c0,.4497.10987.4497.77979.4497v.31006l-1.1294-.02979-1.11962.02979v-.31006c.66992,0,.77978,0,.77978-.4497V9.81637c0-.44-.07032-.5-.77978-.5V9.0068l1.43945-.10987v.65966a1.79951,1.79951,0,0,1,1.39892-.65966,2.18707,2.18707,0,0,1,2.08887,2.25879A2.25239,2.25239,0,0,1,11.86866,13.42432ZM11.92872,9.147a1.49847,1.49847,0,0,0-1.28956.79931v2.229a.52319.52319,0,0,0,.14014.41944,1.24521,1.24521,0,0,0,1.04931.60986c.73974,0,1.439-.83984,1.439-2.04883,0-1.12938-.60941-2.00875-1.33889-2.00875Z" transform="translate(-0.00005)"/>
      <path class="cls-2" d="M18.35791,13.42432v-.89943a1.36292,1.36292,0,0,1-1.28906.89943c-1.519,0-1.519-.90967-1.519-1.689v-1.499c0-.88965,0-.91992-.77979-.91992V9.00682L16.2393,8.897v3.31787c0,.52.04.98975.8794.98975.72949,0,1.20947-.67968,1.20947-1.54931V9.87645c0-.48974-.08008-.56-.77979-.56V9.00688L19.01762,8.897v3.54785c0,.48976.08007.55957.77979.55957v.31006Z" transform="translate(-0.00005)"/>
      <path class="cls-2" d="M22.33884,13.42432a1.20884,1.20884,0,0,1-1.28906-1.34912V9.31641h-.84961V9.09668c.97949-.04,1.2793-1.10938,1.28906-1.92871h.25V9.00684h1.4292v.30957h-1.4292v2.7788c0,.16993,0,1.07911.66993,1.07911.36963,0,.66944-.37941.66944-1.11914v-.54982h.25v.56984C23.32862,12.71484,23.04884,13.42432,22.33884,13.42432Z" transform="translate(-0.00005)"/>
      <path class="cls-2" d="M25.88869,13.42432a1.49158,1.49158,0,0,1-1.09913-.42969,2.25291,2.25291,0,0,0-.20019.23c-.18994.18994-.19971.19971-.24951.19971-.11035,0-.11035-.06983-.11035-.23975V11.86524c0-.17968,0-.25.13037-.25.09961,0,.10986.04.13965.16993.18994.84961.54979,1.41944,1.38916,1.41944.77977,0,1.12938-.39991,1.12938-.90967,0-.71972-.81934-.87939-1.03955-.91944a2.62186,2.62186,0,0,1-1.31884-.45947,1.06592,1.06592,0,0,1-.43017-.84961c0-.56006.37988-1.2295,1.59912-1.2295a1.54145,1.54145,0,0,1,.93994.27979,1.31351,1.31351,0,0,0,.16992-.15966c.12988-.12012.1499-.12012.19971-.12012.10986,0,.10986.06983.10986.23975v1.00978c0,.18994,0,.23973-.12988.23973,0,0-.10987,0-.12012-.08984a1.10258,1.10258,0,0,0-1.16943-1.20947c-.85938,0-1.11914.40966-1.11914.75976,0,.57959.66943.70947,1.22949.81934a2.03844,2.03844,0,0,1,1.13916.47949,1.28963,1.28963,0,0,1,.41992.94971C27.49805,12.75488,27.03809,13.42432,25.88869,13.42432Z" transform="translate(-0.00005)"/>
    </g>
    <g>
      <path class="cls-2" d="M142.19923,26.58105v5.51758c0,.18946,0,.25977-.13965.25977-.06934,0-.08006-.00977-.16992-.12988l-4.07715-5.99707a.59645.59645,0,0,0-.10059-.12012v5.19726c0,.26955,0,.73926,1.0293.73926v.31055l-1.16895-.03027-1.16992.03027v-.31055c1.03027,0,1.03027-.46972,1.03027-.73926V26.0918c0-.19043-.01074-.20021-.24023-.23047-.15039-.00978-.34961-.01953-.5-.01953h-.29v-.30957h1.69922c.19043,0,.20019.00975.29.12988l3.52832,5.18652V26.58105c0-.26953,0-.73925-1.0293-.73925v-.30957l1.169.02929,1.16994-.02929v.30957C142.19923,25.8418,142.19923,26.31152,142.19923,26.58105Z" transform="translate(-0.00005)"/>
      <path class="cls-2" d="M146.05177,32.46777a2.25632,2.25632,0,0,1-2.19922-2.30859,2.18421,2.18421,0,0,1,2.0791-2.27832,1.77272,1.77272,0,0,1,1.78906,1.959c0,.21-.03027.21-.25.21h-2.78809a2.91045,2.91045,0,0,0,.29981,1.499,1.34612,1.34612,0,0,0,1.12891.66894,1.4082,1.4082,0,0,0,1.34961-1.02929c.01953-.08008.04-.13965.12988-.13965a.11651.11651,0,0,1,.12988.12012A1.70884,1.70884,0,0,1,146.05177,32.46777Zm-.12012-4.36718c-.33985,0-1.17969.25-1.23924,1.73925h2.36914C147.06153,29.4502,146.961,28.10059,145.93165,28.10059Z" transform="translate(-0.00005)"/>
      <path class="cls-2" d="M152.211,32.32813l-1.08008.03027v-.31055c.2705-.00976.36036-.15918.36036-.249a1.20925,1.20925,0,0,0-.21-.33008l-.75977-1c-.60937.71973-.89941,1.04981-.89941,1.26953a.29028.29028,0,0,0,.27037.30893q.0098.00066.01962.00064v.31055l-.94922-.03027c-.26074,0-.57031.00976-.83006.03027v-.31055a1.5974,1.5974,0,0,0,1.2793-.59961c.46972-.56933.46972-.58886.93945-1.18847l-.98926-1.29c-.46973-.59961-.47949-.60939-1.17969-.60939v-.30957c.27051.01953.74024.0293.9502.0293l1.0791-.0293v.30957c-.20019.00978-.34961.09961-.34961.25,0,.05957,0,.08008.08985.17969l.77929,1.00977.62012-.78028a.56971.56971,0,0,0,.14941-.34961.287.287,0,0,0-.26352-.30871c-.0088-.00069-.01764-.001-.02647-.00086v-.30957c.12988.00978.66016.0293.96.0293.25976,0,.55957-.00977.81933-.0293v.30957a1.53269,1.53269,0,0,0-1.18945.51953c-.24023.25977-.61916.75-.91895,1.12989l1.33887,1.72851c.22949.29.41016.30957.94922.30957v.31055C152.87012,32.33789,152.48048,32.32813,152.211,32.32813Z" transform="translate(-0.00005)"/>
      <path class="cls-2" d="M155.6211,32.46777a1.20858,1.20858,0,0,1-1.28906-1.34863V28.36035h-.84961v-.21972c.97949-.04,1.2793-1.10938,1.28906-1.92872h.25v1.83887h1.42969v.30957h-1.42969v2.77832c0,.16992,0,1.0791.66992,1.0791.37012,0,.66993-.3789.66993-1.11914v-.5498h.25v.57031C156.61134,31.75879,156.33106,32.46777,155.6211,32.46777Z" transform="translate(-0.00005)"/>
    </g>
    <g>
      <path class="cls-2" d="M138.002,46.63281a2.50694,2.50694,0,0,1-1.83984-.6997c-.3291.52978-.35938.56982-.35938.56982-.07031.10986-.08008.12988-.15039.12988-.10937,0-.10937-.06982-.10937-.23974v-1.999c0-.17968,0-.24951.12988-.24951a.104.104,0,0,1,.1189.08658l.00122.013a2.02237,2.02237,0,0,0,.61914,1.53906,2.4132,2.4132,0,0,0,1.57911.54A1.37062,1.37062,0,0,0,139.332,44.9234l-.00094-.02937a1.45932,1.45932,0,0,0-.31055-.91944,1.32329,1.32329,0,0,0-.84863-.50976c-.7002-.16992-1.21-.29-1.31934-.33006a1.93587,1.93587,0,0,1,.63965-3.76758,2.05755,2.05755,0,0,1,1.59863.69922l.34961-.56934c.07032-.12012.08008-.12988.15039-.12988.10938,0,.10938.06982.10938.23974v2.00879c0,.18994,0,.23975-.12988.23975-.10938,0-.10938-.06006-.11915-.11963-.06054-.44971-.28027-2.08887-1.94921-2.08887a1.3064,1.3064,0,0,0-.30957,2.57862l1.27929.30957a2.04551,2.04551,0,0,1,1.499,2.019,2.00368,2.00368,0,0,1-1.927,2.07753Z" transform="translate(-0.00005)"/>
      <path class="cls-2" d="M142.87208,46.523a1.20864,1.20864,0,0,1-1.28906-1.34912v-2.7583h-.84961v-.22021c.97949-.04,1.27929-1.10938,1.28906-1.92871h.25v1.83886h1.42871v.31006h-1.42871v2.77832c0,.16993,0,1.0791.66992,1.0791.36914,0,.669-.37939.669-1.11914V44.604h.25v.56983C143.86134,45.81348,143.582,46.523,142.87208,46.523Z" transform="translate(-0.00005)"/>
      <path class="cls-2" d="M148.44044,46.47314a.83662.83662,0,0,1-.7793-.81982,1.382,1.382,0,0,1-1.30957.86963c-.62988,0-1.59863-.25-1.59863-1.05957a1.45584,1.45584,0,0,1,.999-1.29883,4.85115,4.85115,0,0,1,1.83887-.35986v-.37012a1.13188,1.13188,0,0,0-.97286-1.27115q-.04319-.00575-.08671-.00815a1.4027,1.4027,0,0,0-1.0791.46c.46.00977.50976.33984.50976.45947a.45953.45953,0,1,1-.919.001l.00011-.01074c0-.65967.68945-1.1294,1.50878-1.1294a1.90707,1.90707,0,0,1,1.36915.54981,1.479,1.479,0,0,1,.35937,1.1792v1.999c0,.0498.04.49953.37012.49953.11036,0,.36036-.06006.36036-.63965V44.9639h.249v.55957a.84866.84866,0,0,1-.74126.94392Q148.47961,46.47206,148.44044,46.47314Zm-.84961-2.459c-1.64844.06006-2.06835.88965-2.06835,1.43946a.86037.86037,0,0,0,.87015.85045l.02927-.00084a1.20059,1.20059,0,0,0,1.17193-1.22859q-.00071-.03051-.003-.061Z" transform="translate(-0.00005)"/>
      <path class="cls-2" d="M151.76173,46.523a1.20869,1.20869,0,0,1-1.28907-1.34912v-2.7583h-.84961v-.22021c.9795-.04,1.2793-1.10938,1.28907-1.92871h.25v1.83886h1.42872v.31006h-1.42871v2.77832c0,.16993,0,1.0791.66994,1.0791.36914,0,.66894-.37939.66894-1.11914V44.604h.25v.56983C152.751,45.81348,152.47169,46.523,151.76173,46.523Z" transform="translate(-0.00005)"/>
      <path class="cls-2" d="M155.80177,46.523a2.25662,2.25662,0,0,1-2.19922-2.30859,2.18436,2.18436,0,0,1,2.0791-2.27881,1.77286,1.77286,0,0,1,1.78906,1.959c0,.21-.03027.21-.25.21h-2.78809a2.90938,2.90938,0,0,0,.29981,1.499,1.34554,1.34554,0,0,0,1.12891.66944,1.40822,1.40822,0,0,0,1.34961-1.0293c.01953-.08008.04-.13965.12988-.13965a.11611.11611,0,0,1,.12913.10143.11415.11415,0,0,1,.00075.0182A1.70867,1.70867,0,0,1,155.80177,46.523Zm-.12012-4.36767c-.33985,0-1.17969.25-1.23924,1.73926h2.36914c0-.3897-.1006-1.73931-1.1299-1.73931Z" transform="translate(-0.00005)"/>
    </g>
    <g>
      <path class="cls-2" d="M186.53223,101.2h-1.68945v2.37841c0,.35987.01953.46973.78906.46973h.24024v.31c-.34961-.02979-1.09961-.02979-1.47852-.02979-.37988,0-1.11914,0-1.46972.02979v-.31h.24023c.76953,0,.79-.10986.79-.46973V98.31133c0-.35938-.02051-.46973-.79-.46973h-.24023V97.532h3.52832a1.885,1.885,0,1,1,.08007,3.668Zm-.33984-3.3584h-.88965c-.46972,0-.48926.07031-.48926.39992v2.69873h1.37891c1.58887,0,1.58887-1.07959,1.58887-1.54932,0-.48981,0-1.54938-1.58887-1.54938Z" transform="translate(-0.00005)"/>
      <path class="cls-2" d="M192.59278,100.99a.41353.41353,0,0,1-.42969-.39672c-.00042-.011-.00042-.022,0-.033a.43186.43186,0,0,1,.2295-.38965.24994.24994,0,0,0-.11036-.01025c-.75976,0-1.17871.88964-1.17871,1.8789v1.53906c0,.35987.02051.46973.75879.46973h.21094v.31c-.40039-.02979-.87012-.02979-1.26953-.02979l-1.13965.02979v-.31c.66992,0,.78027,0,.78027-.44971v-2.67822c0-.48974-.08007-.56006-.78027-.56006v-.30957l1.38965-.10986v1.09912a1.39933,1.39933,0,0,1,1.22851-1.09912.68254.68254,0,0,1,.74024.60937.42021.42021,0,0,1-.3999.43959C192.61265,100.99013,192.6027,100.99023,192.59278,100.99Z" transform="translate(-0.00005)"/>
      <path class="cls-2" d="M195.78223,104.468a2.25647,2.25647,0,0,1-2.19824-2.30859,2.18372,2.18372,0,0,1,2.0791-2.27879,1.773,1.773,0,0,1,1.78907,1.959c0,.21-.03028.21-.25.21h-2.78907a2.90141,2.90141,0,0,0,.30078,1.499,1.34426,1.34426,0,0,0,1.12891.66944,1.40891,1.40891,0,0,0,1.34961-1.0293c.01953-.08008.03906-.13965.12891-.13965a.11644.11644,0,0,1,.13.101.118.118,0,0,1,.00083.0186A1.709,1.709,0,0,1,195.78223,104.468Zm-.11914-4.36767c-.33984,0-1.17968.25-1.23925,1.73925H196.792c0-.38958-.09961-1.73924-1.12891-1.73924Z" transform="translate(-0.00005)"/>
      <path class="cls-2" d="M199.73341,104.468a1.49129,1.49129,0,0,1-1.09961-.42969,2.45884,2.45884,0,0,0-.2002.23c-.19043.18994-.20019.19971-.249.19971-.11133,0-.11133-.06983-.11133-.23975v-1.31933c0-.17969,0-.25.13086-.25.09961,0,.10937.04.13965.16992.19043.84961.5498,1.41943,1.38965,1.41943.77929,0,1.1289-.3999,1.1289-.90967,0-.71972-.81933-.87939-1.03906-.91943a2.62028,2.62028,0,0,1-1.31934-.45947,1.06506,1.06506,0,0,1-.43066-.84961c0-.56006.38086-1.22949,1.59961-1.22949a1.53794,1.53794,0,0,1,.93945.27978,1.22441,1.22441,0,0,0,.16992-.15967c.13086-.12011.1504-.12011.2002-.12011.11035,0,.11035.06982.11035.23974v1.00977c0,.18994,0,.23974-.13086.23974,0,0-.10937,0-.11914-.08984a1.10334,1.10334,0,0,0-1.16992-1.20947c-.85938,0-1.11914.40965-1.11914.75976,0,.57959.66992.70947,1.22949.81934a2.0427,2.0427,0,0,1,1.13965.47949,1.29324,1.29324,0,0,1,.41992.94971C201.34278,103.79858,200.88184,104.468,199.73341,104.468Z" transform="translate(-0.00005)"/>
      <path class="cls-2" d="M204.16309,104.468a2.256,2.256,0,0,1-2.19922-2.30859,2.18434,2.18434,0,0,1,2.07911-2.27879,1.773,1.773,0,0,1,1.78906,1.959c0,.21-.03027.21-.25.21H202.794a2.91757,2.91757,0,0,0,.29883,1.499,1.3485,1.3485,0,0,0,1.12988.66944,1.40734,1.40734,0,0,0,1.34864-1.0293c.0205-.08008.041-.13965.13086-.13965a.1161.1161,0,0,1,.12912.10143.11779.11779,0,0,1,.00076.0182A1.70866,1.70866,0,0,1,204.16309,104.468Zm-.12011-4.36767c-.33985,0-1.17969.25-1.23926,1.73925h2.36911c0-.38958-.10056-1.73924-1.12985-1.73924Z" transform="translate(-0.00005)"/>
      <path class="cls-2" d="M210.35157,104.32837l-1.12988.02978v-.31c.66992,0,.78027,0,.78027-.44971v-2.32861c0-.56983-.11035-1.10938-.73926-1.10938a1.45925,1.45925,0,0,0-1.35309,1.55814l.00348.041v1.83887c0,.44971.10938.44971.7793.44971v.31l-1.11914-.02978-1.12891.02978v-.31c.66895,0,.7793,0,.7793-.44971v-2.67822c0-.48975-.08008-.56006-.7793-.56006v-.30957l1.40821-.10987V100.99a1.57649,1.57649,0,0,1,1.47949-1.04932,1.33407,1.33407,0,0,1,1.0498.36963c.30957.35986.30957.66992.30957,1.52929v1.9087c.01075.2998.25977.2998.78028.2998v.31Z" transform="translate(-0.00005)"/>
      <path class="cls-2" d="M213.73243,104.468a1.2086,1.2086,0,0,1-1.28906-1.34912v-2.75879h-.84961v-.21972c.97949-.04,1.27929-1.10938,1.28906-1.92872h.25v1.83887h1.42871v.30957h-1.42868v2.77881c0,.16992,0,1.0791.66992,1.0791.37012,0,.66895-.37939.66895-1.11914v-.5498h.25v.56982C214.72169,103.75854,214.44239,104.468,213.73243,104.468Z" transform="translate(-0.00005)"/>
      <path class="cls-2" d="M220.61231,104.468a1.4925,1.4925,0,0,1-1.09961-.42969,2.11417,2.11417,0,0,0-.19922.23c-.19043.18994-.20019.19971-.25.19971-.11035,0-.11035-.06983-.11035-.23975v-1.31933c0-.17969,0-.25.12989-.25.0996,0,.11035.04.14062.16992.18945.84961.54883,1.41943,1.38867,1.41943.7793,0,1.12891-.3999,1.12891-.90967,0-.71972-.81836-.87939-1.03906-.91943a2.61971,2.61971,0,0,1-1.31836-.45947,1.06506,1.06506,0,0,1-.43067-.84961c0-.56006.37989-1.22949,1.59864-1.22949a1.54185,1.54185,0,0,1,.94043.27978,1.2809,1.2809,0,0,0,.16992-.15967c.12988-.12011.14941-.12011.20019-.12011.10938,0,.10938.06982.10938.23974v1.00977c0,.18994,0,.23974-.12989.23974,0,0-.11035,0-.12011-.08984a1.10275,1.10275,0,0,0-1.16992-1.20947c-.85938,0-1.11915.40965-1.11915.75976,0,.57959.66993.70947,1.23047.81934a2.03976,2.03976,0,0,1,1.13868.47949,1.28961,1.28961,0,0,1,.41992.94971C222.22169,103.79858,221.76173,104.468,220.61231,104.468Z" transform="translate(-0.00005)"/>
      <path class="cls-2" d="M224.89161,104.468a1.209,1.209,0,0,1-1.28906-1.34912v-2.75879h-.84961v-.21972c.98047-.04,1.27929-1.10938,1.28906-1.92872h.25v1.83887h1.42969v.30957H224.292v2.77881c0,.16992,0,1.0791.66992,1.0791.37012,0,.66992-.37939.66992-1.11914v-.5498h.25v.56982C225.88184,103.75854,225.60157,104.468,224.89161,104.468Z" transform="translate(-0.00005)"/>
      <path class="cls-2" d="M230.46192,104.41821a.83675.83675,0,0,1-.78027-.81982,1.382,1.382,0,0,1-1.30957.86963c-.62891,0-1.59863-.25-1.59863-1.05957a1.45578,1.45578,0,0,1,.999-1.29883,4.85576,4.85576,0,0,1,1.83984-.35986v-.37012a1.13251,1.13251,0,0,0-.97424-1.27123q-.043-.0057-.08631-.00807a1.40071,1.40071,0,0,0-1.07812.46.45337.45337,0,0,1,.50635.39331.46054.46054,0,1,1-.91657.06335l.00006-.007c0-.65967.68946-1.1294,1.50879-1.1294a1.9129,1.9129,0,0,1,1.37012.54981,1.479,1.479,0,0,1,.35937,1.17919v1.999c0,.0498.03907.49951.36915.49951.11035,0,.36035-.06.36035-.63963V102.909h.249v.55957a.84859.84859,0,0,1-.741.94394Q230.50073,104.4171,230.46192,104.41821Zm-.84961-2.45849c-1.64941.05957-2.06933.88916-2.06933,1.439a.86037.86037,0,0,0,.87017.85045l.02924-.00084a1.20124,1.20124,0,0,0,1.17285-1.229q-.00069-.03031-.00293-.06052Z" transform="translate(-0.00005)"/>
      <path class="cls-2" d="M233.78223,104.468a1.209,1.209,0,0,1-1.28906-1.34912v-2.75879h-.84961v-.21972c.97949-.04,1.2793-1.10938,1.28906-1.92872h.25v1.83887h1.42969v.30957h-1.42969v2.77881c0,.16992,0,1.0791.66993,1.0791.36914,0,.66992-.37939.66992-1.11914v-.5498h.25v.56982C234.77247,103.75854,234.4922,104.468,233.78223,104.468Z" transform="translate(-0.00005)"/>
      <path class="cls-2" d="M237.82227,104.468a2.25585,2.25585,0,0,1-2.19824-2.30859,2.18358,2.18358,0,0,1,2.07813-2.27879,1.7724,1.7724,0,0,1,1.78906,1.959c0,.21-.0293.21-.25.21h-2.78809a2.90958,2.90958,0,0,0,.29981,1.499,1.34686,1.34686,0,0,0,1.1289.66944,1.40821,1.40821,0,0,0,1.34961-1.0293c.01953-.08008.04-.13965.12989-.13965a.1161.1161,0,0,1,.12912.10143.11779.11779,0,0,1,.00076.0182A1.70757,1.70757,0,0,1,237.82227,104.468Zm-.12011-4.36767c-.33985,0-1.17969.25-1.23926,1.73925H238.832c0-.38958-.10059-1.73924-1.12988-1.73924Z" transform="translate(-0.00005)"/>
    </g>
    <g>
      <polyline class="cls-1" points="191.507 52.518 191.507 71 143.507 71"/>
      <polygon class="cls-2" points="185.781 57.157 186.806 58.112 191.505 53.056 196.206 58.112 197.231 57.157 191.505 51 185.781 57.157"/>
    </g>
    <g>
      <path class="cls-2" d="M147.2461,80.86035a3.63625,3.63625,0,0,1,0-7.26562,2.452,2.452,0,0,1,1.83936.85937l.49952-.73974c.08007-.11963.12012-.11963.16016-.11963.10986,0,.10986.06982.10986.23974v2.36866c0,.21,0,.23974-.16015.23974-.13965,0-.13965-.02978-.15967-.16992-.2002-1.459-1.08936-2.36865-2.17871-2.36865-.60987,0-2.5586.33984-2.5586,3.32812,0,2.97852,1.9585,3.31836,2.56836,3.31836a2.26366,2.26366,0,0,0,2.23876-2.249c.00976-.09961.00976-.15967.12012-.15967.12988,0,.12988.06982.12988.16992A2.61333,2.61333,0,0,1,147.2461,80.86035Z" transform="translate(-0.00005)"/>
      <path class="cls-2" d="M151.86768,80.61084l-1.10986.02979v-.31006c.66992,0,.77979,0,.77979-.44971V74.68408c0-.48974-.08008-.56006-.77979-.56006v-.30957l1.43945-.10986v6.17627c0,.44971.10987.44971.77979.44971v.31006Z" transform="translate(-0.00005)"/>
      <path class="cls-2" d="M155.69727,80.75049a2.22683,2.22683,0,1,1,.01357-.00009Zm1.1294-3.71778a1.31034,1.31034,0,0,0-1.1294-.6499,1.34149,1.34149,0,0,0-1.13965.66992,2.86632,2.86632,0,0,0-.23974,1.36916,2.97261,2.97261,0,0,0,.25,1.40916,1.30473,1.30473,0,0,0,1.13916.66944,1.28967,1.28967,0,0,0,1.15965-.73926,3.03845,3.03845,0,0,0,.21973-1.33935A2.74363,2.74363,0,0,0,156.82667,77.03271Z" transform="translate(-0.00005)"/>
      <path class="cls-2" d="M160.97706,80.75049a2.21194,2.21194,0,0,1-2.14893-2.26856,2.24,2.24,0,0,1,2.15865-2.31849l.0103-.00035c.76954,0,1.52881.38963,1.52881,1.06933a.45977.45977,0,0,1-.91933.01978l-.00011-.00952a.45126.45126,0,0,1,.442-.4603q.01386-.00027.0277.00029a1.62841,1.62841,0,0,0-1.06934-.36961c-.52978,0-1.34912.41943-1.34912,2.04881,0,1.60889.8794,2.03857,1.40918,2.03857a1.30475,1.30475,0,0,0,1.30908-1.04931c.02-.06006.04-.09961.12989-.09961.03027,0,.13037,0,.13037.09961A1.64452,1.64452,0,0,1,160.97706,80.75049Z" transform="translate(-0.00005)"/>
      <path class="cls-2" d="M166.88624,80.61084l-1.08006.02979v-.31006c.18945,0,.35937-.03955.35937-.22951a8.3254,8.3254,0,0,0-1.189-1.79932l-.63964.54981v1.02929c0,.44971.10986.44971.77978.44971v.31006l-1.09961-.02979-1.08935.02979v-.31006c.66992,0,.77978,0,.77978-.44971V74.68407c0-.48975-.08006-.56006-.77978-.56006v-.30957l1.43945-.10987V78.502l1.40967-1.21973a.519.519,0,0,0,.21875-.38965c0-.12988-.09961-.23974-.28906-.25V76.333c.13964.00977.75976.02979,1.11914.02979a5.56877,5.56877,0,0,0,.69921-.02979v.30957a1.981,1.981,0,0,0-1.25878.54,10.55113,10.55113,0,0,0-.80957.71972c0,.02979.0498.08985.06054.10987l1.26856,1.78906c.37988.5293.59961.5293.96972.5293v.31Q167.32033,80.61061,166.88624,80.61084Z" transform="translate(-0.00005)"/>
      <path class="cls-2" d="M174.23685,80.75049a1.3568,1.3568,0,0,1-1.22949-.69971v1.769c0,.44971.11035.44971.7793.44971v.31l-1.12891-.02978-1.11914.02978v-.31c.66895,0,.7793,0,.7793-.44971V77.14253c0-.43994-.07031-.5-.7793-.5V76.333l1.43848-.10986v.65967a1.80159,1.80159,0,0,1,1.39941-.65967,2.18739,2.18739,0,0,1,2.08887,2.25879A2.25207,2.25207,0,0,1,174.23685,80.75049Zm.05957-4.27735a1.4978,1.4978,0,0,0-1.28906.79932v2.229a.52437.52437,0,0,0,.13965.41944,1.24774,1.24774,0,0,0,1.04981.60986c.73925,0,1.43945-.83984,1.43945-2.04883,0-1.12939-.61041-2.00879-1.33988-2.00879Z" transform="translate(-0.00005)"/>
      <path class="cls-2" d="M180.72608,80.75049v-.89942a1.36367,1.36367,0,0,1-1.29.89942c-1.51855,0-1.51855-.90967-1.51855-1.689v-1.499c0-.88965,0-.91992-.7793-.91992V76.333l1.46875-.10986V79.541c0,.52.04.98975.87988.98975.7295,0,1.209-.67969,1.209-1.54932V77.20262c0-.48974-.08008-.56006-.7793-.56006V76.333l1.46875-.10986V79.771c0,.48974.08008.55957.7793.55957v.31006Z" transform="translate(-0.00005)"/>
      <path class="cls-2" d="M183.81785,80.61084l-1.10938.02979v-.31006c.66895,0,.7793,0,.7793-.44971V74.68408c0-.48974-.08008-.56006-.7793-.56006v-.30957l1.43848-.10986v6.17627c0,.44971.11035.44971.78027.44971v.31006Z" transform="translate(-0.00005)"/>
      <path class="cls-2" d="M187.147,80.75049a1.4925,1.4925,0,0,1-1.09961-.42969,2.45307,2.45307,0,0,0-.20019.23c-.18946.18994-.2002.1997-.25.1997-.10938,0-.10938-.06982-.10938-.23974V79.19142c0-.17969,0-.25.12988-.25.09961,0,.10938.04.13965.16992.19043.84961.54981,1.41944,1.38965,1.41944.7793,0,1.12891-.39991,1.12891-.90967,0-.71973-.81934-.8794-1.03907-.91943a2.62026,2.62026,0,0,1-1.31933-.45948,1.064,1.064,0,0,1-.42969-.84961c0-.56006.37988-1.22949,1.59863-1.22949a1.53955,1.53955,0,0,1,.93946.27979,1.225,1.225,0,0,0,.16992-.15967c.12988-.12012.15039-.12012.20019-.12012.11036,0,.11036.06983.11036.23975v1.00976c0,.18994,0,.23975-.13086.23975,0,0-.10938,0-.11914-.08984a1.1034,1.1034,0,0,0-1.16993-1.20948c-.85937,0-1.11914.40967-1.11914.75977,0,.57959.66992.70947,1.22949.81933a2.03993,2.03993,0,0,1,1.13965.4795,1.2934,1.2934,0,0,1,.41895.9497C188.75538,80.08105,188.29639,80.75049,187.147,80.75049Z" transform="translate(-0.00005)"/>
      <path class="cls-2" d="M191.57667,80.75049a2.25585,2.25585,0,0,1-2.19824-2.3086,2.18357,2.18357,0,0,1,2.07812-2.27879,1.77233,1.77233,0,0,1,1.78906,1.959c0,.21-.02929.21-.25.21h-2.78808a2.90959,2.90959,0,0,0,.2998,1.499,1.34587,1.34587,0,0,0,1.12988.66943,1.408,1.408,0,0,0,1.34864-1.02929c.02051-.08008.04-.13965.12988-.13965a.11617.11617,0,0,1,.12988.11963A1.70757,1.70757,0,0,1,191.57667,80.75049Zm-.12012-4.36768c-.33984,0-1.17871.25-1.23926,1.73926h2.36914C192.58643,77.73242,192.48585,76.38281,191.45655,76.38281Z" transform="translate(-0.00005)"/>
    </g>
    <polyline class="cls-3" points="88.507 76 98.507 76 98.507 66 108.507 66 108.507 76 118.507 76 118.507 66 128.507 66 128.507 76 138.507 76"/>
    <g>
      <path class="cls-2" d="M176.833,34.21c-.15918-1.37891-.40918-1.93848-1.90821-1.93848h-1.19922c-.4707,0-.49023.06934-.49023.39941v2.52832h.85937c.96,0,1.05957-.3291,1.05957-1.16894h.25v2.64844h-.25c0-.84961-.0996-1.16895-1.05957-1.16895h-.85937v2.458c0,.34961,0,.47951.94922.47951h.33008v.31055c-.35938-.03028-1.26954-.03028-1.67871-.03028-.38965,0-1.16895,0-1.51954.03028v-.31055h.24024c.76954,0,.79-.10937.79-.46973V32.74126c0-.36035-.02049-.46973-.79-.46973h-.24024V31.961h5.48731l.2793,2.249Z" transform="translate(-0.00005)"/>
      <path class="cls-2" d="M178.95606,38.72754l-1.10937.03027v-.31054c.66992,0,.77929,0,.77929-.44922V32.80078c0-.48926-.08007-.55957-.77929-.55957v-.30957l1.43945-.11035v6.17676c0,.44922.10938.44922.7793.44922v.31054Z" transform="translate(-0.00005)"/>
      <path class="cls-2" d="M181.72559,38.72754l-1.09961.03027v-.31054c.66993,0,.78028,0,.78028-.44922V35.30957c0-.49023-.08985-.5498-.73926-.5498V34.4502l1.39844-.11037v3.668c0,.38965.041.43945.70019.43945v.31055C182.42585,38.74805,182.0752,38.72754,181.72559,38.72754Zm-.04882-5.47656a.51681.51681,0,1,1,.00094,0h-.00094Z" transform="translate(-0.00005)"/>
      <path class="cls-2" d="M186.05567,38.86719a1.3601,1.3601,0,0,1-1.23047-.69922v1.76855c0,.4502.11035.4502.78028.4502v.30957l-1.12989-.0293-1.11914.0293v-.30957c.66992,0,.7793,0,.7793-.4502V35.25977c0-.44043-.07031-.5-.7793-.5V34.4502l1.43946-.11037V35a1.796,1.796,0,0,1,1.39843-.66016,2.18752,2.18752,0,0,1,2.08985,2.25879A2.2527,2.2527,0,0,1,186.05567,38.86719Zm.0586-4.27735a1.50058,1.50058,0,0,0-1.28907.79981v2.22851a.52251.52251,0,0,0,.14063.41994,1.24559,1.24559,0,0,0,1.04883.60938c.74023,0,1.43945-.83985,1.43945-2.04883C187.45411,35.46973,186.84473,34.58984,186.11427,34.58984Z" transform="translate(-0.00005)"/>
      <path class="cls-2" d="M188.74708,36.88867v-.58008h2.64844v.58008Z" transform="translate(-0.00005)"/>
      <path class="cls-2" d="M196.124,38.72754l-1.10937.03027v-.31054c.66992,0,.78027,0,.78027-.44922V34.75977h-2.1084v3.23828c0,.44922.10938.44922.7793.44922v.31054l-1.10938-.03027-1.10937.03027v-.31054c.66992,0,.77929,0,.77929-.44922V34.75977h-.78906V34.4502h.78906V33.31055c0-1.03907,1.08985-1.59864,2.13868-1.59864a2.26657,2.26657,0,0,1,.83984.13965.161.161,0,0,0,.08984.0293l.35938-.05957v6.17676c0,.44922.11035.44922.7793.44922v.31054Zm-.3291-5.917a.38257.38257,0,0,1-.25-.38965.40352.40352,0,0,1,.25-.39942,2.11794,2.11794,0,0,0-.63965-.08984,1.39662,1.39662,0,0,0-1.49618,1.28943q-.00367.04953-.00382.09924V34.4502h2.13965Z" transform="translate(-0.00005)"/>
      <path class="cls-2" d="M200.01563,38.86719a2.22727,2.22727,0,1,1,.01328-.00009Zm1.12989-3.71778A1.31063,1.31063,0,0,0,200.01563,34.5a1.34146,1.34146,0,0,0-1.13965.66992,2.86124,2.86124,0,0,0-.24023,1.36914,2.97458,2.97458,0,0,0,.25,1.40918,1.305,1.305,0,0,0,1.13965.669,1.2876,1.2876,0,0,0,1.15918-.73926,3.02394,3.02394,0,0,0,.2207-1.33887A2.7451,2.7451,0,0,0,201.14552,35.14941Z" transform="translate(-0.00005)"/>
      <path class="cls-2" d="M205.50489,38.86719a1.35332,1.35332,0,0,1-1.22852-.69922v1.76855c0,.4502.10938.4502.7793.4502v.30957l-1.1289-.0293-1.12012.0293v-.30957c.66992,0,.78027,0,.78027-.4502V35.25977c0-.44043-.07031-.5-.78027-.5V34.4502l1.43945-.11037V35a1.80017,1.80017,0,0,1,1.39942-.66016,2.18661,2.18661,0,0,1,2.08789,2.25879A2.25208,2.25208,0,0,1,205.50489,38.86719Zm.06055-4.27735a1.49712,1.49712,0,0,0-1.28907.79981v2.22851a.525.525,0,0,0,.13965.41994,1.24594,1.24594,0,0,0,1.04981.60938c.73828,0,1.43847-.83985,1.43847-2.04883C206.9043,35.46973,206.29493,34.58984,205.56544,34.58984Z" transform="translate(-0.00005)"/>
      <path class="cls-2" d="M210.0752,38.86719a1.49183,1.49183,0,0,1-1.09863-.42969,2.04219,2.04219,0,0,0-.2002.23047c-.18945.18945-.19921.19922-.25.19922-.10937,0-.10937-.06934-.10937-.23926V37.30859c0-.17968,0-.25.12988-.25.09961,0,.11035.04.13965.16994.18945.84961.54981,1.419,1.38867,1.419.78028,0,1.12989-.39942,1.12989-.90918,0-.71973-.81934-.87989-1.04-.91993a2.609,2.609,0,0,1-1.31836-.46,1.06432,1.06432,0,0,1-.42969-.84863c0-.56055.37891-1.22951,1.59863-1.22951a1.547,1.547,0,0,1,.94043.27929,1.44954,1.44954,0,0,0,.16992-.15918c.12891-.12011.14942-.12011.19922-.12011.10938,0,.10938.06933.10938.23926v1.00976c0,.18945,0,.24024-.12891.24024,0,0-.11035,0-.12109-.08985a1.102,1.102,0,0,0-1.16895-1.21c-.85937,0-1.11914.41015-1.11914.75976,0,.58008.66895.71,1.22949.81934a2.03728,2.03728,0,0,1,1.13868.47949,1.28628,1.28628,0,0,1,.41992.95019C211.68458,38.19824,211.22559,38.86719,210.0752,38.86719Z" transform="translate(-0.00005)"/>
    </g>
    <g>
      <path class="cls-2" d="M247.59093,14.29935a3.36212,3.36212,0,0,1-3.178-3.5093,3.20255,3.20255,0,1,1,6.36547,0A3.35693,3.35693,0,0,1,247.59093,14.29935Zm0-6.85311c-.91683,0-2.27135.80911-2.27135,3.19769,0,2.49562,1.28656,3.43148,2.28086,3.43148.94538,0,2.27135-.89712,2.27135-3.43148C249.87179,8.28457,248.556,7.44624,247.59093,7.44624Z" transform="translate(-0.00005)"/>
      <path class="cls-2" d="M255.0343,14.19231V13.3149a1.70743,1.70743,0,0,1-.43836.59468,1.14313,1.14313,0,0,1-.80945.28272,1.50835,1.50835,0,0,1-1.13091-.3704c-.29225-.32181-.29225-.67284-.29225-1.27706V11.08263c0-.86789,0-.89712-.7408-.89712V9.90278l1.37422-.107v3.22657c0,.51686.04894.97494.84819.97494.73129,0,1.17033-.69221,1.17033-1.52068v-1.745c0-.47778-.07816-.54609-.74148-.54609V9.90277l1.3749-.107V13.2663c0,.47742.07816.54575.74081.54575v.28273Z" transform="translate(-0.00005)"/>
      <path class="cls-2" d="M258.85318,14.19231a1.15505,1.15505,0,0,1-1.2383-1.3063v-2.71h-.82848V9.98094c.88693-.02923,1.2383-.96508,1.24784-1.88157h.21476v1.7939h1.37422V10.176H258.249v2.72942c0,.16583,0,1.07245.66265,1.07245.38059,0,.66332-.40948.66332-1.11155v-.53588h.21409v.5556C259.789,13.58776,259.46757,14.19231,258.85318,14.19231Z" transform="translate(-0.00005)"/>
      <path class="cls-2" d="M263.16954,14.19231a1.48578,1.48578,0,0,1-1.19887-.62391v1.696c0,.43871.11691.43871.7408.43871v.28273c-.25351-.01938-.77954-.01938-1.06227-.01938-.27322,0-.79925,0-1.05276.01938v-.28273c.63342,0,.7408,0,.7408-.43871V10.68266c0-.42885-.05847-.49715-.7408-.49715V9.90278l1.35452-.107v.65313a1.72472,1.72472,0,0,1,1.34568-.65313,2.09781,2.09781,0,0,1,1.9791,2.19352A2.15724,2.15724,0,0,1,263.16954,14.19231Zm.04894-4.18215a1.40482,1.40482,0,0,0-1.14043.62391.4246.4246,0,0,0-.10738.351v2.008a.96862.96862,0,0,0,.3704.69221,1.14993,1.14993,0,0,0,.78022.31195c.75032,0,1.41364-.84819,1.41364-2.008C264.53493,10.89709,263.94977,10.01016,263.21848,10.01016Z" transform="translate(-0.00005)"/>
      <path class="cls-2" d="M269.34675,14.19231V13.3149a1.7073,1.7073,0,0,1-.43836.59468,1.14313,1.14313,0,0,1-.80945.28272,1.50837,1.50837,0,0,1-1.13091-.3704c-.29224-.32181-.29224-.67284-.29224-1.27706V11.08263c0-.86789,0-.89712-.74081-.89712V9.90278l1.37423-.107v3.22657c0,.51686.04893.97494.84818.97494.73129,0,1.17033-.69221,1.17033-1.52068v-1.745c0-.47778-.07815-.54609-.7408-.54609V9.90277l1.37423-.107V13.2663c0,.47742.07815.54575.7408.54575v.28273Z" transform="translate(-0.00005)"/>
      <path class="cls-2" d="M273.16563,14.19231a1.15505,1.15505,0,0,1-1.2383-1.3063v-2.71h-.82847V9.98094c.88692-.02923,1.23829-.96508,1.24783-1.88157h.21476v1.7939h1.37423V10.176h-1.37423v2.72942c0,.16583,0,1.07245.66265,1.07245.3806,0,.66264-.40948.66264-1.11155v-.53588h.21477v.5556C274.10149,13.58776,273.78,14.19231,273.16563,14.19231Z" transform="translate(-0.00005)"/>
      <path class="cls-2" d="M276.53662,14.19231a1.30924,1.30924,0,0,1-1.06227-.45808,1.32911,1.32911,0,0,0-.19505.24365c-.16583.20461-.176.21443-.22428.21443-.09787,0-.09787-.04893-.09787-.22429V12.6424c0-.17569,0-.22429.10738-.22429a.08472.08472,0,0,1,.0877.03875,1.46123,1.46123,0,0,1,.04893.19505c.21476.97494.68235,1.34534,1.326,1.34534.8577,0,1.10169-.46793,1.10169-.88692a.81044.81044,0,0,0-.30244-.63376,1.67549,1.67549,0,0,0-.90663-.33167,2.10016,2.10016,0,0,1-1.09218-.42885,1.01983,1.01983,0,0,1-.3704-.78939c0-.53624.35137-1.17985,1.53054-1.17985a1.36616,1.36616,0,0,1,.91683.30243c.068-.088.2535-.30243.331-.30243.09787,0,.09787.04893.09787.22428v1.014c0,.17538,0,.22394-.10738.22394a.09133.09133,0,0,1-.1066-.07294l-.00078-.00488a1.1024,1.1024,0,0,0-1.14043-1.20873c-.87741,0-1.082.44822-1.082.75066,0,.58483.71157.72143,1.00382.77988a2.204,2.204,0,0,1,1.258.47742,1.28666,1.28666,0,0,1,.40914.92634C278.06716,13.62685,277.56016,14.19231,276.53662,14.19231Z" transform="translate(-0.00005)"/>
    </g>
  </g>
</svg>
