<svg id="Layer_1" data-name="Layer 1" xmlns="http://www.w3.org/2000/svg" viewBox="0 0 50 32">
  <defs>
    <style>
      .cls-1, .cls-2 {
        fill: none;
        stroke: #8ff4dd;
        stroke-miterlimit: 10;
      }

      .cls-1 {
        stroke-width: 2px;
      }

      .cls-2 {
        stroke-width: 0.5px;
      }

      .cls-3 {
        fill: #8ff4dd;
      }
    </style>
  </defs>
  <title>TFlipFlop</title>
  <g>
    <rect class="cls-1" x="10" y="1" width="30" height="30"/>
    <line class="cls-1" x1="10" y1="6" y2="6"/>
    <line class="cls-1" x1="10" y1="26" y2="26"/>
    <line class="cls-1" x1="50" y1="6" x2="40" y2="6"/>
    <line class="cls-1" x1="50" y1="26" x2="40" y2="26"/>
    <line class="cls-2" x1="32.5" y1="20.5" x2="37.5" y2="20.5"/>
    <polyline class="cls-2" points="10.67 23.5 15 26 10.67 28.5"/>
    <path class="cls-3" d="M96.395,76.09229c-.11231-1.28711-.23242-1.55079-1.43945-1.55079a3.85375,3.85375,0,0,0-.45606.01563c-.14355.03223-.14355.144-.14355.3042v4.21338c0,.27246,0,.38379.83984.38379h.31934v.248c-.32813-.02441-1.15137-.02441-1.51856-.02441-.36816,0-1.18359,0-1.51172.02441v-.248h.32032c.83886,0,.83886-.11133.83886-.38379V74.86133c0-.18408,0-.272-.168-.3042a3.4248,3.4248,0,0,0-.43164-.01563c-1.207,0-1.32714.26368-1.43945,1.55079h-.19922l.15137-1.79883h4.88574l.15137,1.79883Z" transform="translate(-79 -71)"/>
  </g>
  <path class="cls-3" d="M115.542,81.08992c-.71972,0-.82373-.6875-.95166-1.50293a2.458,2.458,0,0,1-.75146.12012,2.75383,2.75383,0,0,1-2.61476-2.87887,2.62678,2.62678,0,1,1,5.22119,0,2.8884,2.8884,0,0,1-1.623,2.66309c.19189.55957.376.85547.78369.85547a.75593.75593,0,0,0,.72754-.76758c.00781-.05566.00781-.1123.07177-.1123.08008,0,.08008.07226.08008.15234C116.48535,79.69149,116.47754,81.08992,115.542,81.08992Zm-1.71094-7.0039c-.7998,0-1.87939.74365-1.87939,2.73437,0,1.72754.7998,2.415,1.3916,2.623a.77485.77485,0,0,1-.12793-.4082.64634.64634,0,0,1,.62013-.67153l.01122-.00035c.52,0,.74365.47168.87988.87207a2.78392,2.78392,0,0,0,.99121-2.415C115.71777,74.8536,114.67041,74.086,113.83106,74.086Zm.01563,4.4375a.48871.48871,0,0,0-.47168.5039.477.477,0,0,0,.44926.5033l.01461.00061a1.53362,1.53362,0,0,0,.71142-.18457C114.4624,78.89949,114.30273,78.52352,113.84669,78.52352Z" transform="translate(-79 -71)"/>
  <path class="cls-3" d="M115.542,100.08992c-.71972,0-.82373-.6875-.95166-1.50293a2.458,2.458,0,0,1-.75146.12012,2.75383,2.75383,0,0,1-2.61476-2.87887,2.62678,2.62678,0,1,1,5.22119,0,2.8884,2.8884,0,0,1-1.623,2.66309c.19189.55957.376.85547.78369.85547a.75593.75593,0,0,0,.72754-.76758c.00781-.05566.00781-.1123.07177-.1123.08008,0,.08008.07226.08008.15234C116.48535,98.69149,116.47754,100.08992,115.542,100.08992Zm-1.71094-7.0039c-.7998,0-1.87939.74365-1.87939,2.73437,0,1.72754.7998,2.415,1.3916,2.623a.77485.77485,0,0,1-.12793-.4082.64634.64634,0,0,1,.62013-.67153l.01122-.00035c.52,0,.74365.47168.87988.87207a2.78392,2.78392,0,0,0,.99121-2.415C115.71777,93.8536,114.67041,93.086,113.83106,93.086Zm.01563,4.4375a.48871.48871,0,0,0-.47168.5039.477.477,0,0,0,.44926.5033l.01461.00061a1.53362,1.53362,0,0,0,.71142-.18457C114.4624,97.89949,114.30273,97.52352,113.84669,97.52352Z" transform="translate(-79 -71)"/>
</svg>
