<svg id="Layer_1" data-name="Layer 1" xmlns="http://www.w3.org/2000/svg" viewBox="0 0 50 32">
  <defs>
    <style>
      .cls-1, .cls-2 {
        fill: none;
        stroke: #8ff4dd;
        stroke-miterlimit: 10;
      }

      .cls-1 {
        stroke-width: 2px;
      }

      .cls-2 {
        stroke-width: 0.5px;
      }

      .cls-3 {
        fill: #8ff4dd;
      }
    </style>
  </defs>
  <title>TFlipFlop</title>
  <g>
    <rect class="cls-1" x="10" y="1" width="30" height="30"/>
    <line class="cls-1" x1="10" y1="6" y2="6"/>
    <line class="cls-1" x1="10" y1="26" y2="26"/>
    <line class="cls-1" x1="50" y1="6" x2="40" y2="6"/>
    <line class="cls-1" x1="50" y1="26" x2="40" y2="26"/>
    <line class="cls-2" x1="32.5" y1="20.5" x2="37.5" y2="20.5"/>
    <polyline class="cls-2" points="10.67 23.5 15 26 10.67 28.5"/>
    <path class="cls-3" d="M69.395,87.09229c-.11231-1.28711-.23242-1.55079-1.43945-1.55079a3.85375,3.85375,0,0,0-.45606.01563c-.14355.03223-.14355.144-.14355.3042v4.21338c0,.27246,0,.38379.83984.38379h.31934v.248c-.32813-.02441-1.15137-.02441-1.51856-.02441-.36816,0-1.18359,0-1.51172.02441v-.248h.32032c.83886,0,.83886-.11133.83886-.38379V85.86133c0-.18408,0-.272-.168-.3042a3.4248,3.4248,0,0,0-.43164-.01563c-1.207,0-1.32714.26368-1.43945,1.55079h-.19922l.15137-1.79883h4.88574l.15137,1.79883Z" transform="translate(-52 -82)"/>
  </g>
  <path class="cls-3" d="M88.43555,109.31055a4.31506,4.31506,0,0,1,.13769.4375,2.09571,2.09571,0,0,0,.2627.67578.36036.36036,0,0,0,.28515.15625.30578.30578,0,0,0,.25586-.167,1.11551,1.11551,0,0,0,.11524-.55567h.23437a1.65793,1.65793,0,0,1-.27343,1.03809.85994.85994,0,0,1-.70313.333.79211.79211,0,0,1-.6543-.32227,2.50985,2.50985,0,0,1-.334-1.23633,3.76551,3.76551,0,0,1-.42188.082,2.85558,2.85558,0,0,1-.38671.02735,2.51891,2.51891,0,0,1-1.3418-.377,2.653,2.653,0,0,1-.97656-1.082,3.43546,3.43546,0,0,1-.36133-1.59179,3.06873,3.06873,0,0,1,.8164-2.14844,2.40147,2.40147,0,0,1,1.84375-.8086,2.53249,2.53249,0,0,1,1.34766.37305,2.69022,2.69022,0,0,1,.97656,1.07031,3.23726,3.23726,0,0,1-.82226,4.09571Zm-.19336-.53907a3.28173,3.28173,0,0,0,.30859-.8623,5.769,5.769,0,0,0,.09766-1.16309,4.54175,4.54175,0,0,0-.21485-1.55566,1.7384,1.7384,0,0,0-.60546-.84473,1.50451,1.50451,0,0,0-.88282-.27343,1.46514,1.46514,0,0,0-.86914.27343,1.76318,1.76318,0,0,0-.60156.85254,4.62566,4.62566,0,0,0-.2168,1.5752,4.91838,4.91838,0,0,0,.12891,1.20605,3.52936,3.52936,0,0,0,.40234.95606c-.00488-.11963-.00781-.21534-.00781-.28809a1.07894,1.07894,0,0,1,.31055-.79492,1.1,1.1,0,0,1,.81445-.31152,1.16452,1.16452,0,0,1,.85156.33886A2.45238,2.45238,0,0,1,88.24219,108.77148Zm-.48047.4961a2.25527,2.25527,0,0,0-.18359-1.01953.7296.7296,0,0,0-.6836-.40625.80293.80293,0,0,0-.83594.83984,1.04043,1.04043,0,0,0,.28907.69531,1.44068,1.44068,0,0,0,.582.1211,1.6121,1.6121,0,0,0,.4414-.0586A1.53233,1.53233,0,0,0,87.76172,109.26758Z" transform="translate(-52 -82)"/>
  <path class="cls-3" d="M88.43555,90.81055a4.31506,4.31506,0,0,1,.13769.4375,2.09571,2.09571,0,0,0,.2627.67578.36036.36036,0,0,0,.28515.15625.30578.30578,0,0,0,.25586-.167,1.11551,1.11551,0,0,0,.11524-.55567h.23437a1.65793,1.65793,0,0,1-.27343,1.03809.85994.85994,0,0,1-.70313.333.79211.79211,0,0,1-.6543-.32227,2.50985,2.50985,0,0,1-.334-1.23633,3.76551,3.76551,0,0,1-.42188.082,2.85558,2.85558,0,0,1-.38671.02735,2.51891,2.51891,0,0,1-1.3418-.377,2.653,2.653,0,0,1-.97656-1.082,3.43546,3.43546,0,0,1-.36133-1.59179,3.06873,3.06873,0,0,1,.8164-2.14844,2.40147,2.40147,0,0,1,1.84375-.8086,2.53249,2.53249,0,0,1,1.34766.37305,2.69022,2.69022,0,0,1,.97656,1.07031,3.23726,3.23726,0,0,1-.82226,4.09571Zm-.19336-.53907a3.28173,3.28173,0,0,0,.30859-.8623,5.769,5.769,0,0,0,.09766-1.16309,4.54175,4.54175,0,0,0-.21485-1.55566,1.7384,1.7384,0,0,0-.60546-.84473,1.50451,1.50451,0,0,0-.88282-.27343,1.46514,1.46514,0,0,0-.86914.27343,1.76318,1.76318,0,0,0-.60156.85254,4.62566,4.62566,0,0,0-.2168,1.5752,4.91838,4.91838,0,0,0,.12891,1.20605,3.52936,3.52936,0,0,0,.40234.95606c-.00488-.11963-.00781-.21534-.00781-.28809a1.07894,1.07894,0,0,1,.31055-.79492,1.1,1.1,0,0,1,.81445-.31152,1.16452,1.16452,0,0,1,.85156.33886A2.45238,2.45238,0,0,1,88.24219,90.27148Zm-.48047.4961a2.25527,2.25527,0,0,0-.18359-1.01953.7296.7296,0,0,0-.6836-.40625.80293.80293,0,0,0-.83594.83984,1.04043,1.04043,0,0,0,.28907.69531,1.44068,1.44068,0,0,0,.582.1211,1.6121,1.6121,0,0,0,.4414-.0586A1.53233,1.53233,0,0,0,87.76172,90.76758Z" transform="translate(-52 -82)"/>
</svg>
