<svg id="Layer_1" data-name="Layer 1" xmlns="http://www.w3.org/2000/svg" viewBox="0 0 412.69775 94.9375">
  <defs>
    <style>
      .cls-1, .cls-2, .cls-3, .cls-4, .cls-5 {
        fill: none;
        stroke: #000;
      }

      .cls-1, .cls-3 {
        stroke-linecap: round;
      }

      .cls-1, .cls-3, .cls-4, .cls-5 {
        stroke-width: 2px;
      }

      .cls-2, .cls-5 {
        stroke-linecap: square;
      }

      .cls-2 {
        stroke-width: 1.5px;
      }

      .cls-3, .cls-5 {
        stroke-linejoin: round;
      }
    </style>
  </defs>
  <title>TheveninNortonEquivalents</title>
  <g>
    <g>
      <path d="M443.36133,104.29h-6.36914c-.26367,0-.38281,0-.38281-.312a.41561.41561,0,0,1,.0957-.31153l4.79687-7.04h-1.55859c-1.67969,0-2.48242.73145-2.5791,2.32667h-.56348l.14453-2.89063h6.16407c.252,0,.38378,0,.38378.2998a.36366.36366,0,0,1-.09668.28809l-4.78515,7.02783H440.291c2.459,0,2.627-1.46289,2.72265-2.79443h.56348Z" transform="translate(-58.46094 -44.0625)"/>
      <path d="M450.127,103.72949a.64875.64875,0,0,0-.70605.4751l-.97852,3.94189c-.03418.13282-.06347.13965-.13965.13965-.09765,0-.10546-.01416-.13964-.11865l-1.50293-4.17236-.90137,3.59912a.65788.65788,0,0,0-.02832.1748c0,.105.01465.28662.41211.3003.084,0,.13281.00732.13281.09082,0,.126-.083.126-.125.126-.2168,0-.46094-.021-.68555-.021-.21679,0-.45312.021-.66406.021-.04883,0-.08984-.021-.08984-.084,0-.12549.07617-.13281.13281-.13281a.61994.61994,0,0,0,.67773-.48926l.92188-3.70362a.39641.39641,0,0,0,.02148-.09082c0-.05615-.37695-.05615-.42578-.05615-.13281,0-.18945,0-.18945-.08349,0-.13282.07715-.13282.18945-.13282h.873c.14648,0,.1543.00684.19531.11866l1.30664,3.63379.76953-3.06788a.65622.65622,0,0,0,.02735-.16748c0-.147-.05567-.28662-.41895-.30078-.06347,0-.126-.00683-.126-.08349,0-.13282.09082-.13282.126-.13282.2168,0,.4541.02051.67774.02051s.4541-.02051.6709-.02051a.08125.08125,0,0,1,.09082.09082C450.23145,103.72266,450.14844,103.72949,450.127,103.72949Z" transform="translate(-58.46094 -44.0625)"/>
    </g>
    <circle class="cls-1" cx="137.53906" cy="55.9375" r="12.5"/>
    <line class="cls-2" x1="135.03906" y1="48.9375" x2="140.03906" y2="48.9375"/>
    <line class="cls-2" x1="137.53906" y1="51.4375" x2="137.53906" y2="46.4375"/>
    <line class="cls-2" x1="135.03906" y1="63.4375" x2="140.03906" y2="63.4375"/>
    <g>
      <polyline class="cls-3" points="137.539 42.938 137.539 30.938 137.539 20.937 162.539 20.937 173.65 20.937"/>
      <path id="path5038" class="cls-3" d="M259.88889,65H271" transform="translate(-58.46094 -44.0625)"/>
      <rect id="rect5044" class="cls-3" x="173.65018" y="15.38194" width="27.77778" height="11.11111"/>
    </g>
    <path id="path1132" class="cls-3" d="M271,65h14" transform="translate(-58.46094 -44.0625)"/>
    <circle class="cls-3" cx="229.53906" cy="20.9375" r="3"/>
    <path id="path1132-2" data-name="path1132" class="cls-3" d="M285,135H196V113" transform="translate(-58.46094 -44.0625)"/>
    <circle class="cls-3" cx="229.53906" cy="90.9375" r="3"/>
    <g>
      <path d="M173.71191,95.62646c-.87548,0-.92334.10792-.9956.26368l-3.18994,7.208a.42346.42346,0,0,1-.48.28809c-.33594,0-.38379-.09619-.4795-.312l-3.31054-7.44776h-1.103v-.564c.41943.03613,1.42725.03613,1.895.03613.51562,0,1.667,0,2.12256-.03613v.564h-1.12744l2.55468,5.74463,2.42286-5.457a.51526.51526,0,0,0,.04785-.144c0-.14356-.94776-.14356-1.05567-.14356v-.564c.46778.03613,1.0918.03613,1.57129.03613l1.35547-.03613v.564Z" transform="translate(-58.46094 -44.0625)"/>
      <path d="M176.55957,104.12744c-.03516,0-.105,0-.105-.09082a.71268.71268,0,0,1,.01367-.105,3.3775,3.3775,0,0,0,.07031-.62891c0-.4331-.16113-.53125-.88769-.53125a2.61291,2.61291,0,0,0-.36328.01416c-.05615.00684-.11182.021-.16114.23047l-.936,3.75977a.42589.42589,0,0,0-.02832.13281c0,.09766.03516.126.231.147.021,0,.2373.01368.34912.01368h.105c.105,0,.1748,0,.1748.07714,0,.13965-.084.13965-.147.13965-.35645,0-.73389-.021-1.09717-.021-.35644,0-.72656.021-1.083.021-.03515,0-.11914,0-.11914-.084,0-.13281.07715-.13281.1958-.13281h.11182c.61524,0,.67774-.06983.74072-.31446l.93653-3.75293a.53363.53363,0,0,0,.02783-.15332c0-.04931,0-.07715-.16065-.07715h-.2373c-.90186,0-1.09717.147-1.42578,1.13233-.06983.18164-.07715.18848-.09082.20264a.10023.10023,0,0,1-.07715.021c-.021,0-.10449,0-.10449-.07715a.43.43,0,0,1,.03467-.11865l.41259-1.251c.042-.126.063-.126.20264-.126h3.585c.11182,0,.17481,0,.17481.084a.40666.40666,0,0,1-.00684.09082l-.21,1.251C176.66406,104.10645,176.65039,104.12744,176.55957,104.12744Z" transform="translate(-58.46094 -44.0625)"/>
      <path d="M179.12939,107.36279a.52088.52088,0,0,1-.53076-.55908,1.0525,1.0525,0,0,1,.11182-.44726,6.36341,6.36341,0,0,0,.40527-1.54444c0-.14648-.01416-.46094-.32129-.46094a1.19116,1.19116,0,0,0-.92968.66358,1.35774,1.35774,0,0,0-.1958.48926c-.03467.1538-.07666.30078-.11182.45459l-.30029,1.209a.278.278,0,0,1-.25879.19531.18759.18759,0,0,1-.1958-.18164.60692.60692,0,0,1,.01416-.09082l1.03418-4.123s.021-.09766.021-.11866c0-.07031-.01367-.11914-.34912-.11914-.09814,0-.168,0-.168-.07666,0-.13281.07715-.13965.16065-.147l.69189-.05566a.58368.58368,0,0,1,.11182-.01416c.05615,0,.09814.021.09814.084,0,0-.01416.06982-.021.09082l-.51026,2.04053a1.24059,1.24059,0,0,1,.9292-.4541.66051.66051,0,0,1,.727.72656,6.07166,6.07166,0,0,1-.42627,1.55859,1.73633,1.73633,0,0,0-.126.52393c0,.09814.00732.20312.1538.20312.40528,0,.59424-.68506.64991-.874.02783-.10449.02783-.11865.11914-.11865.04883,0,.10449,0,.10449.06982C180.01709,106.32178,179.77979,107.36279,179.12939,107.36279Z" transform="translate(-58.46094 -44.0625)"/>
    </g>
    <g>
      <path d="M245.36133,52.29h-6.36865c-.26368,0-.38379,0-.38379-.312a.41561.41561,0,0,1,.0957-.31153l4.79785-7.04h-1.55957c-1.67871,0-2.48242.73145-2.57861,2.32667h-.56348l.144-2.89063h6.16456c.252,0,.38378,0,.38378.2998a.36486.36486,0,0,1-.09619.28809l-4.78515,7.02783h1.6792c2.45849,0,2.62646-1.46289,2.72216-2.79443h.564Z" transform="translate(-58.46094 -44.0625)"/>
      <path d="M251.56836,53.12744c-.03516,0-.10547,0-.10547-.09082a.71268.71268,0,0,1,.01367-.105,3.377,3.377,0,0,0,.07032-.62891c0-.4331-.16114-.53125-.8877-.53125a2.61291,2.61291,0,0,0-.36328.01416c-.05615.00684-.11182.021-.16065.23047l-.93652,3.75977a.42589.42589,0,0,0-.02832.13281c0,.09766.03516.126.231.147.021,0,.2373.01368.34912.01368h.105c.105,0,.1748,0,.1748.07714,0,.13965-.084.13965-.147.13965-.35644,0-.73389-.021-1.09717-.021-.35644,0-.72656.021-1.083.021-.03516,0-.11915,0-.11915-.084,0-.13281.07715-.13281.19581-.13281h.11181c.61524,0,.67822-.06983.74072-.31446l.93653-3.75293a.53363.53363,0,0,0,.02783-.15332c0-.04931,0-.07715-.16064-.07715h-.23731c-.90185,0-1.09717.147-1.42578,1.13233-.06982.18164-.07715.18848-.09082.20264a.10023.10023,0,0,1-.07715.021c-.021,0-.10449,0-.10449-.07715a.43.43,0,0,1,.03467-.11865l.41259-1.251c.042-.126.0625-.126.20264-.126h3.585c.11231,0,.17481,0,.17481.084a.40666.40666,0,0,1-.00684.09082l-.21,1.251C251.67188,53.10645,251.6582,53.12744,251.56836,53.12744Z" transform="translate(-58.46094 -44.0625)"/>
      <path d="M254.13672,56.36279a.521.521,0,0,1-.53027-.55908,1.04,1.04,0,0,1,.1123-.44726,6.36488,6.36488,0,0,0,.4043-1.54444c0-.14648-.01367-.46094-.32032-.46094a1.18789,1.18789,0,0,0-.92968.66358,1.34988,1.34988,0,0,0-.19629.48926c-.03418.1538-.07715.30078-.11231.45459l-.2998,1.209a.278.278,0,0,1-.25879.19531.18713.18713,0,0,1-.19531-.18164.59568.59568,0,0,1,.01367-.09082l1.03418-4.123s.02051-.09766.02051-.11866c0-.07031-.01368-.11914-.34864-.11914-.09863,0-.168,0-.168-.07666,0-.13281.07715-.13965.16114-.147l.6914-.05566a.5886.5886,0,0,1,.11133-.01416c.05664,0,.09863.021.09863.084,0,0-.01464.06982-.0205.09082l-.51075,2.04053a1.24125,1.24125,0,0,1,.92872-.4541.66044.66044,0,0,1,.72753.72656,6.03379,6.03379,0,0,1-.42675,1.55859,1.74891,1.74891,0,0,0-.125.52393c0,.09814.00683.20312.15332.20312.40527,0,.59472-.68506.64941-.874.02832-.10449.02832-.11865.11914-.11865.04883,0,.10547,0,.10547.06982C255.02539,55.32178,254.78711,56.36279,254.13672,56.36279Z" transform="translate(-58.46094 -44.0625)"/>
    </g>
    <g>
      <line class="cls-4" x1="246.05736" y1="55.9375" x2="278.02077" y2="55.9375"/>
      <polygon points="250.696 61.663 251.651 60.638 246.595 55.939 251.651 51.238 250.696 50.213 244.539 55.939 250.696 61.663"/>
      <polygon points="273.382 61.663 272.427 60.638 277.483 55.939 272.427 51.238 273.382 50.213 279.539 55.939 273.382 61.663"/>
    </g>
    <circle class="cls-3" cx="316.69775" cy="55.9375" r="12.5"/>
    <polyline class="cls-3" points="316.698 42.938 316.698 30.938 316.698 20.937 391.698 20.938 405.698 20.938"/>
    <polyline class="cls-5" points="316.698 62.938 316.698 48.938 319.698 51.938"/>
    <line class="cls-5" x1="316.69775" y1="48.9375" x2="313.69775" y2="51.9375"/>
    <path id="path1132-3" data-name="path1132" class="cls-3" d="M464.15869,135h-39l0-10V113.88889" transform="translate(-58.46094 -44.0625)"/>
    <path id="path5038-2" data-name="path5038" class="cls-3" d="M425.15864,86.11111V64.99994" transform="translate(-58.46094 -44.0625)"/>
    <rect id="rect5044-2" data-name="rect5044" class="cls-3" x="361.1422" y="42.04861" width="11.11111" height="27.77778"/>
    <circle class="cls-3" cx="408.69775" cy="20.9375" r="3"/>
    <circle class="cls-3" cx="408.69775" cy="90.9375" r="3"/>
    <g>
      <path d="M350.61523,103.25391c-.55273,0-1.72753,0-2.21875.03613v-.56348h1.36719v-7.1001h-1.36719v-.564c.49122.03613,1.666.03613,2.21875.03613.55079,0,1.72657,0,2.21875-.03613v.564H351.4668v7.1001H352.834V103.29C352.3418,103.25391,351.166,103.25391,350.61523,103.25391Z" transform="translate(-58.46094 -44.0625)"/>
      <path d="M359.082,102.72949a.64975.64975,0,0,0-.707.4751l-.97852,3.94189c-.03418.13282-.0625.13965-.13867.13965-.09765,0-.10547-.01416-.14062-.11865l-1.502-4.17236-.90234,3.59912a.67984.67984,0,0,0-.02734.1748c0,.105.01367.28662.41211.3003.084,0,.13281.00732.13281.09082,0,.126-.084.126-.125.126-.2168,0-.46192-.021-.68555-.021-.21679,0-.4541.021-.66406.021-.04883,0-.09082-.021-.09082-.084,0-.12549.07715-.13281.13281-.13281a.62154.62154,0,0,0,.67871-.48926l.92188-3.70362a.39641.39641,0,0,0,.02148-.09082c0-.05615-.37793-.05615-.42676-.05615-.13281,0-.18847,0-.18847-.08349,0-.13282.07617-.13282.18847-.13282h.874c.14648,0,.15332.00684.19531.11866l1.30664,3.63379.76856-3.06788a.6169.6169,0,0,0,.02832-.16748c0-.147-.05664-.28662-.41993-.30078-.0625,0-.125-.00683-.125-.08349,0-.13282.08985-.13282.125-.13282.2168,0,.45508.02051.67774.02051.22461,0,.45508-.02051.67187-.02051a.08054.08054,0,0,1,.08985.09082C359.18555,102.72266,359.10254,102.72949,359.082,102.72949Z" transform="translate(-58.46094 -44.0625)"/>
    </g>
    <polyline class="cls-3" points="366.698 90.938 316.698 90.938 316.698 80.938 316.698 68.938"/>
  </g>
  <rect class="cls-3" x="1" y="36.4375" width="31.07813" height="39"/>
  <circle class="cls-3" cx="63.53906" cy="20.9375" r="3"/>
  <path id="path1132-4" data-name="path1132" class="cls-3" d="M119,135H75V119.5" transform="translate(-58.46094 -44.0625)"/>
  <circle class="cls-3" cx="63.53906" cy="90.9375" r="3"/>
  <polyline class="cls-3" points="16.539 36.438 16.539 20.938 46.539 20.937 60.539 20.937"/>
  <g>
    <line class="cls-4" x1="70.53906" y1="55.9375" x2="94.02075" y2="55.9375"/>
    <polygon points="89.382 61.663 88.427 60.638 93.483 55.939 88.427 51.238 89.382 50.213 95.539 55.939 89.382 61.663"/>
  </g>
  <g>
    <g>
      <path d="M67.12891,97.07227H62.27148V96.7832h.22364c.71875,0,.7373-.10254.7373-.438V91.43164c0-.33545-.01855-.438-.7373-.438h-.22364v-.28906c.32618.02783,1.05372.02783,1.417.02783.38281,0,1.23144,0,1.5664-.02783v.28906h-.30761c-.88575,0-.88575.13037-.88575.44727v4.96924c0,.30761.01856.373.457.373h.76465c1.64063,0,1.77149-1.16552,1.874-2.11621h.2334Z" transform="translate(-58.46094 -44.0625)"/>
      <path d="M69.12695,97.04443l-1.02539.02784V96.7832c.625,0,.72754,0,.72754-.41943V93.856c0-.457-.084-.51319-.69043-.51319V93.0542l1.30567-.10254v3.42139c0,.36377.03711.41015.65234.41015v.28907C69.78027,97.063,69.4541,97.04443,69.12695,97.04443Zm-.0459-5.10937a.49418.49418,0,1,1,.50293-.49414A.503.503,0,0,1,69.08105,91.93506Z" transform="translate(-58.46094 -44.0625)"/>
      <path d="M74.33105,97.04443l-1.05371.02784V96.7832c.625,0,.72754,0,.72754-.41943V94.19141c0-.53125-.10254-1.03467-.69043-1.03467a1.361,1.361,0,0,0-1.25781,1.4917v1.71533c0,.41943.10254.41943.72656.41943v.28907l-1.04394-.02784-1.05371.02784V96.7832c.625,0,.72754,0,.72754-.41943V93.86523c0-.457-.07422-.52246-.72754-.52246V93.0542L72,92.95166v.97852a1.47059,1.47059,0,0,1,1.37988-.97852,1.244,1.244,0,0,1,.9795.34473c.28906.33545.28906.62451.28906,1.42627v1.78076c.00879.27978.24219.27978.72656.27978v.28907Z" transform="translate(-58.46094 -44.0625)"/>
      <path d="M77.88574,97.1748A2.10461,2.10461,0,0,1,75.835,95.021a2.03715,2.03715,0,0,1,1.93848-2.12549,1.65336,1.65336,0,0,1,1.66894,1.82715c0,.1958-.02734.1958-.23242.1958H76.6084a2.717,2.717,0,0,0,.2793,1.39843,1.25639,1.25639,0,0,0,1.05371.625,1.31356,1.31356,0,0,0,1.25879-.96044c.01855-.07471.0371-.13038.12109-.13038a.10807.10807,0,0,1,.12109.11182A1.59254,1.59254,0,0,1,77.88574,97.1748Zm-.1123-4.07421c-.31641,0-1.09961.23291-1.15625,1.62207h2.21C78.82715,94.35938,78.73438,93.10059,77.77344,93.10059Z" transform="translate(-58.46094 -44.0625)"/>
      <path d="M83.4541,97.12842a.78044.78044,0,0,1-.72754-.76465,1.291,1.291,0,0,1-1.22168.811c-.58691,0-1.49121-.23291-1.49121-.98828a1.35737,1.35737,0,0,1,.93164-1.21191,4.53544,4.53544,0,0,1,1.71582-.33545V94.294a1.05583,1.05583,0,0,0-.98828-1.19336,1.31064,1.31064,0,0,0-1.00683.42871.423.423,0,0,1,.47558.4292.42876.42876,0,1,1-.85742-.00928c0-.61572.64258-1.05371,1.40723-1.05371a1.78157,1.78157,0,0,1,1.27734.51269,1.37844,1.37844,0,0,1,.33594,1.1001v1.86475c0,.04638.03711.46631.34472.46631.10254,0,.33594-.05616.33594-.59668v-.52247h.23242v.52247A.79157.79157,0,0,1,83.4541,97.12842Zm-.793-2.29346c-1.53808.05567-1.92968.82959-1.92968,1.34229a.80236.80236,0,0,0,.83886.79248,1.11958,1.11958,0,0,0,1.09082-1.20264Z" transform="translate(-58.46094 -44.0625)"/>
      <path d="M87.37207,93.93018a.38652.38652,0,0,1-.40137-.40088.40287.40287,0,0,1,.21485-.36328.23628.23628,0,0,0-.10254-.00928c-.709,0-1.10059.82959-1.10059,1.75244v1.436c0,.33545.01856.438.709.438h.19531v.28907c-.373-.02784-.81055-.02784-1.18359-.02784l-1.0625.02784V96.7832c.624,0,.72656,0,.72656-.41943V93.86523c0-.457-.07422-.52246-.72656-.52246V93.0542l1.29589-.10254v1.02539A1.30435,1.30435,0,0,1,87.083,92.95166a.63583.63583,0,0,1,.68945.56836A.39128.39128,0,0,1,87.37207,93.93018Z" transform="translate(-58.46094 -44.0625)"/>
    </g>
    <g>
      <path d="M64.35059,108.1748a2.0633,2.0633,0,0,1-2.00391-2.11621,2.08922,2.08922,0,0,1,2.02344-2.16308c.71777,0,1.42578.36377,1.42578.99756a.42876.42876,0,1,1-.85742.00927.42058.42058,0,0,1,.43847-.42871,1.52116,1.52116,0,0,0-.998-.34521c-.49414,0-1.25879.3916-1.25879,1.91162,0,1.501.82031,1.90185,1.31445,1.90185a1.21753,1.21753,0,0,0,1.22168-.979c.01855-.05615.03711-.09326.12109-.09326.02832,0,.1211,0,.1211.09326A1.5336,1.5336,0,0,1,64.35059,108.1748Z" transform="translate(-58.46094 -44.0625)"/>
      <path d="M67.50391,108.04443l-1.02539.02784v-.28907c.625,0,.72753,0,.72753-.41943V104.856c0-.457-.084-.51319-.69042-.51319v-.28857l1.30566-.10254v3.42139c0,.36377.03711.41015.65234.41015v.28907C68.15723,108.063,67.83105,108.04443,67.50391,108.04443Zm-.0459-5.10937a.49418.49418,0,1,1,.50293-.49414A.503.503,0,0,1,67.458,102.93506Z" transform="translate(-58.46094 -44.0625)"/>
      <path d="M71.75684,104.93018a.38575.38575,0,0,1-.40039-.40088.40447.40447,0,0,1,.21386-.36328.23625.23625,0,0,0-.10254-.00928c-.708,0-1.09961.82959-1.09961,1.75244v1.436c0,.33545.01856.438.708.438h.19629v.28907c-.373-.02784-.81152-.02784-1.18457-.02784l-1.0625.02784v-.28907c.625,0,.72754,0,.72754-.41943v-2.49854c0-.457-.0752-.52246-.72754-.52246v-.28857l1.2959-.10254v1.02539a1.30542,1.30542,0,0,1,1.14648-1.02539.63619.63619,0,0,1,.69043.56836A.392.392,0,0,1,71.75684,104.93018Z" transform="translate(-58.46094 -44.0625)"/>
      <path d="M74.74219,108.1748a2.06347,2.06347,0,0,1-2.00489-2.11621,2.08986,2.08986,0,0,1,2.02344-2.16308c.71778,0,1.42676.36377,1.42676.99756a.42924.42924,0,1,1-.8584.00927.42128.42128,0,0,1,.43848-.42871,1.519,1.519,0,0,0-.99707-.34521c-.49414,0-1.25879.3916-1.25879,1.91162,0,1.501.82031,1.90185,1.31445,1.90185a1.21664,1.21664,0,0,0,1.22071-.979c.01953-.05615.03808-.09326.12207-.09326.02734,0,.12109,0,.12109.09326A1.53466,1.53466,0,0,1,74.74219,108.1748Z" transform="translate(-58.46094 -44.0625)"/>
      <path d="M80.208,108.1748v-.83886a1.27251,1.27251,0,0,1-1.20313.83886c-1.417,0-1.417-.84863-1.417-1.57568v-1.39844c0-.82959,0-.85791-.72754-.85791v-.28857l1.3711-.10254v3.09522c0,.48486.0371.92285.82031.92285.68066,0,1.12793-.63379,1.12793-1.44532v-1.65918c0-.457-.07422-.52246-.72754-.52246v-.28857l1.37109-.10254v3.30957c0,.45654.07422.522.72656.522v.28907Z" transform="translate(-58.46094 -44.0625)"/>
      <path d="M83.082,108.04443l-1.02539.02784v-.28907c.624,0,.72656,0,.72656-.41943V104.856c0-.457-.083-.51319-.68945-.51319v-.28857l1.30566-.10254v3.42139c0,.36377.03711.41015.65235.41015v.28907C83.73438,108.063,83.4082,108.04443,83.082,108.04443Zm-.04687-5.10937a.49419.49419,0,1,1,.5039-.49414A.49851.49851,0,0,1,83.03516,102.93506Z" transform="translate(-58.46094 -44.0625)"/>
      <path d="M86.51367,108.1748a1.12755,1.12755,0,0,1-1.20215-1.25878v-2.57325h-.793v-.20507c.91407-.03711,1.19336-1.03467,1.20313-1.79932h.23242v1.71582h1.334v.28857h-1.334v2.59229c0,.1582,0,1.00683.625,1.00683.34473,0,.625-.35449.625-1.04443v-.51269h.23242v.53125C87.43652,107.5127,87.17578,108.1748,86.51367,108.1748Z" transform="translate(-58.46094 -44.0625)"/>
    </g>
  </g>
</svg>
