<?xml version="1.0" encoding="utf-8"?>
<!-- Generator: Adobe Illustrator 23.0.3, SVG Export Plug-In . SVG Version: 6.00 Build 0)  -->
<svg version="1.1" id="Layer_1" xmlns="http://www.w3.org/2000/svg" xmlns:xlink="http://www.w3.org/1999/xlink" x="0px" y="0px"
	 viewBox="0 0 412.6977539 94.9375" style="enable-background:new 0 0 412.6977539 94.9375;" xml:space="preserve">
<style type="text/css">
	.st0{fill:#8FF4DD;}
	.st1{fill:none;stroke:#8FF4DD;stroke-width:2;stroke-linecap:round;}
	.st2{fill:none;stroke:#8FF4DD;stroke-width:1.5;stroke-linecap:square;}
	.st3{fill:none;stroke:#8FF4DD;stroke-width:2;stroke-linecap:round;stroke-linejoin:round;}
	.st4{fill:none;stroke:#8FF4DD;stroke-width:2;}
	.st5{fill:none;stroke:#8FF4DD;stroke-width:2;stroke-linecap:square;stroke-linejoin:round;}
</style>
<title>TheveninNortonEquivalents</title>
<g>
	<g>
		<path class="st0" d="M384.9003906,59.2275009H378.53125c-0.2636719,0-0.3828125,0-0.3828125-0.3119965
			c-0.0118408-0.1125412,0.0227051-0.2250443,0.0957031-0.3115311l4.796875-7.0400009h-1.5585938
			c-1.6796875,0-2.4824219,0.7314529-2.5791016,2.3266678h-0.5634766l0.1445313-2.8906326h6.1640625
			c0.2520142,0,0.3837891,0,0.3837891,0.2997971c0.0113525,0.1055374-0.0239563,0.2107773-0.0966797,0.2880936l-4.7851563,7.027832
			h1.679657c2.4590149,0,2.6270142-1.4628906,2.7226563-2.7944336h0.5634766L384.9003906,59.2275009z"/>
	</g>
	<circle class="st1" cx="137.5390625" cy="55.9375" r="12.5"/>
	<line class="st2" x1="135.0390625" y1="48.9375" x2="140.0390625" y2="48.9375"/>
	<line class="st2" x1="137.5390625" y1="51.4375" x2="137.5390625" y2="46.4375"/>
	<line class="st2" x1="135.0390625" y1="63.4375" x2="140.0390625" y2="63.4375"/>
	<g>
		<polyline class="st3" points="137.5390015,42.9379997 137.5390015,30.9379997 137.5390015,20.9370003 162.5390015,20.9370003 
			173.6499939,20.9370003 		"/>
		<path id="path5038" class="st3" d="M201.427948,20.9375h11.1111145"/>
		<rect id="rect5044" x="173.650177" y="15.3819399" class="st3" width="27.7777863" height="11.1111097"/>
	</g>
	<path id="path1132" class="st3" d="M212.5390625,20.9375h14"/>
	<circle class="st3" cx="229.5390625" cy="20.9375" r="3"/>
	<path id="path1132-2" class="st3" d="M226.5390625,90.9375h-89v-22"/>
	<circle class="st3" cx="229.5390625" cy="90.9375" r="3"/>
	<g>
		<path class="st0" d="M115.2509766,51.5639572c-0.875473,0-0.9233398,0.1079178-0.9956055,0.2636795l-3.1899414,7.2080002
			c-0.0646515,0.2031784-0.2702789,0.3265991-0.4799957,0.2880936c-0.3359375,0-0.3837891-0.0961914-0.4795074-0.3119965
			l-3.3105469-7.4477615h-1.1029968v-0.564003c0.4194336,0.0361328,1.4272461,0.0361328,1.8950043,0.0361328
			c0.515625,0,1.6670074,0,2.1225586-0.0361328v0.564003h-1.1274414l2.5546875,5.7446289l2.4228668-5.4570007
			c0.0229645-0.045372,0.039093-0.0939026,0.0478516-0.1439972c0-0.1435623-0.9477539-0.1435623-1.0556641-0.1435623v-0.564003
			c0.4677734,0.0361328,1.0917969,0.0361328,1.5712891,0.0361328l1.3554688-0.0361328v0.564003L115.2509766,51.5639572z"/>
	</g>
	<g>
		<path class="st0" d="M186.9003906,8.2275009h-6.3686523c-0.2636871,0-0.3837891,0-0.3837891-0.3120003
			c-0.0118408-0.1125412,0.0227203-0.2250481,0.0957031-0.3115311l4.7978516-7.0400009h-1.5595703
			c-1.6787109,0-2.4824219,0.7314491-2.5786133,2.3266716h-0.5634766l0.1439972-2.8906288h6.164566
			c0.2519989,0,0.3837738,0,0.3837738,0.2998009c0.011322,0.1054459-0.0237885,0.2106018-0.0961914,0.2880898l-4.7851563,7.0278282
			h1.6791992c2.4584961,0,2.6264648-1.4628906,2.7221527-2.7944298h0.5639954L186.9003906,8.2275009z"/>
	</g>
	<g>
		<line class="st4" x1="246.0573578" y1="55.9375" x2="278.0207825" y2="55.9375"/>
		<polygon class="st0" points="250.6959991,61.6629982 251.651001,60.6380005 246.5950012,55.9389992 251.651001,51.237999 
			250.6959991,50.2130013 244.5390015,55.9389992 		"/>
		<polygon class="st0" points="273.3819885,61.6629982 272.427002,60.6380005 277.4830017,55.9389992 272.427002,51.237999 
			273.3819885,50.2130013 279.5390015,55.9389992 		"/>
	</g>
	<circle class="st3" cx="316.6977539" cy="55.9375" r="12.5"/>
	<polyline class="st3" points="316.697998,42.9379997 316.697998,30.9379997 316.697998,20.9370003 391.697998,20.9379997 
		405.697998,20.9379997 	"/>
	<polyline class="st5" points="316.697998,62.9379997 316.697998,48.9379997 319.697998,51.9379997 	"/>
	<line class="st5" x1="316.6977539" y1="48.9375" x2="313.6977539" y2="51.9375"/>
	<path id="path1132-3" class="st3" d="M405.6977539,90.9375h-39v-10V69.8263931"/>
	<path id="path5038-2" class="st3" d="M366.6976929,42.0486069V20.937439"/>
	<rect id="rect5044-2" x="361.1422119" y="42.0486107" class="st3" width="11.1111145" height="27.7777824"/>
	<circle class="st3" cx="408.6977539" cy="20.9375" r="3"/>
	<circle class="st3" cx="408.6977539" cy="90.9375" r="3"/>
	<g>
		<path class="st0" d="M292.1542969,59.1914063c-0.5527344,0-1.7275391,0-2.21875,0.0361328v-0.5634766h1.3671875v-7.1000977
			h-1.3671875v-0.564003c0.4912109,0.0361328,1.6659851,0.0361328,2.21875,0.0361328c0.5507813,0,1.7265625,0,2.21875-0.0361328
			v0.564003h-1.3671875v7.1000977h1.367218v0.5634384C293.8808594,59.1914063,292.7050476,59.1914063,292.1542969,59.1914063z"/>
	</g>
	<polyline class="st3" points="366.697998,90.9380035 316.697998,90.9380035 316.697998,80.9380035 316.697998,68.9380035 	"/>
</g>
<rect x="1" y="36.4375" class="st3" width="31.0781326" height="39"/>
<circle class="st3" cx="63.5390587" cy="20.9375" r="3.0000014"/>
<path id="path1132-4" class="st3" d="M60.5390587,90.9375h-44v-15.5"/>
<circle class="st3" cx="63.5390587" cy="90.9375" r="3.0000014"/>
<polyline class="st3" points="16.5389996,36.4379997 16.5389996,20.9379997 46.5390015,20.9370003 60.5390015,20.9370003 "/>
<g>
	<line class="st4" x1="70.5390625" y1="55.9375" x2="94.020752" y2="55.9375"/>
	<polygon class="st0" points="89.3820038,61.6629982 88.427002,60.6380005 93.4830017,55.9389992 88.427002,51.237999 
		89.3820038,50.2130013 95.5390015,55.9389992 	"/>
</g>
<g>
	<g>
		<path class="st0" d="M8.6679649,53.0097733H3.8105392v-0.2890701h0.2236404c0.71875,0,0.7373009-0.1025391,0.7373009-0.4380035
			v-4.913559c0-0.3354492-0.0185509-0.4380035-0.7373009-0.4380035H3.8105392v-0.2890625
			c0.3261795,0.027832,1.0537186,0.027832,1.4169998,0.027832c0.3828087,0,1.2314415,0,1.5664024-0.027832v0.2890625H6.4863319
			c-0.8857498,0-0.8857498,0.1303711-0.8857498,0.4472733v4.9692383c0,0.3076096,0.0185623,0.3730011,0.4570007,0.3730011h0.7646484
			c1.6406326,0,1.771492-1.1655197,1.8740005-2.1162109h0.2333984L8.6679649,53.0097733z"/>
		<path class="st0" d="M10.6660118,52.9819336l-1.0253906,0.0278397v-0.2890701c0.625,0,0.7275391,0,0.7275391-0.4194336v-2.5077667
			c0-0.4570007-0.0839996-0.5131912-0.6904297-0.5131912v-0.2886124l1.3056717-0.1025391v3.4213867
			c0,0.3637695,0.0371094,0.4101486,0.6523438,0.4101486v0.2890701
			C11.3193321,53.0005035,10.9931602,52.9819336,10.6660118,52.9819336z M10.6201134,47.8725662
			c-0.2728882-0.0048294-0.4901886-0.2299652-0.4853516-0.5028534c0.0048294-0.2728806,0.2299652-0.490181,0.5028534-0.4853516
			c0.269455,0.0047684,0.485405,0.2245636,0.4854279,0.4940643C11.118206,47.6527328,10.8944511,47.8725662,10.6201134,47.8725662z"
			/>
		<path class="st0" d="M15.8701057,52.9819336l-1.0537109,0.0278397v-0.2890701c0.625,0,0.7275391,0,0.7275391-0.4194336v-2.1723633
			c0-0.53125-0.1025391-1.034668-0.6904297-1.034668c-0.7497635,0.0533295-1.3143387,0.7043686-1.2610092,1.4541321
			c0.0008926,0.0125351,0.0019608,0.0250626,0.0031967,0.0375671v1.715332c0,0.4194336,0.1025391,0.4194336,0.7265625,0.4194336
			v0.2890701l-1.0439377-0.0278397l-1.0537109,0.0278397v-0.2890701c0.625,0,0.7275391,0,0.7275391-0.4194336v-2.4985428
			c0-0.4570007-0.0742188-0.5224609-0.7275391-0.5224609v-0.2885666l1.3144531-0.1025391v0.9785233
			c0.20755-0.5845566,0.7595825-0.9760132,1.3798828-0.9785233c0.3611374-0.033371,0.7188644,0.0925293,0.9794998,0.3447266
			c0.2890625,0.3354492,0.2890625,0.6245117,0.2890625,1.4262695v1.7807617
			c0.0087891,0.2797775,0.2421875,0.2797775,0.7265625,0.2797775v0.2890701L15.8701057,52.9819336z"/>
		<path class="st0" d="M19.4248009,53.1122971c-1.1606369-0.0293884-2.0782471-0.9931107-2.0507431-2.1537933
			c-0.0499496-1.1216202,0.817009-2.0722198,1.9384766-2.1254883c0.9130249-0.0136719,1.6642609,0.7153931,1.6779327,1.628418
			c0.0009918,0.0663605-0.0020142,0.1327286-0.0089951,0.1987305c0,0.1958008-0.0273438,0.1958008-0.2324219,0.1958008h-2.601593
			c-0.0330734,0.4826965,0.0633469,0.9654694,0.2792969,1.3984299c0.2189865,0.3770676,0.6178131,0.6136322,1.0537109,0.625
			c0.5870819-0.0028687,1.100975-0.3949661,1.2587891-0.9604416c0.0185471-0.074707,0.0371017-0.1303787,0.1210938-0.1303787
			c0.0592422-0.0072479,0.1131439,0.0349045,0.1203918,0.0941544c0.0007172,0.0058594,0.0009537,0.0117645,0.0007019,0.017662
			C20.8053627,52.615799,20.1615486,53.1170349,19.4248009,53.1122971z M19.3125038,49.0380859
			c-0.3164063,0-1.0996094,0.2329102-1.15625,1.6220703h2.2099991
			C20.3662071,50.2968826,20.2734413,49.0380936,19.3125038,49.0380859z"/>
		<path class="st0" d="M24.9931602,53.065918c-0.4042282-0.0273972-0.7202682-0.3595581-0.7275391-0.7646484
			c-0.1992874,0.4978104-0.6855469,0.82061-1.2216797,0.810997c-0.5869064,0-1.4912109-0.2329102-1.4912109-0.9882813
			c0.0319443-0.5570526,0.4015198-1.0378189,0.9316406-1.2119064c0.5447693-0.2220383,1.1275406-0.335968,1.7158203-0.3354492
			v-0.3451309c0.0768433-0.5780334-0.3294449-1.1089172-0.9074783-1.1857605
			c-0.026825-0.0035706-0.0537796-0.0061035-0.0808029-0.0075989c-0.3820648-0.0107422-0.7497864,0.1458359-1.0068283,0.4287109
			c0.2317963-0.0290985,0.4432907,0.1352234,0.4723892,0.3670197c0.0025864,0.0206223,0.0036545,0.0414047,0.0031891,0.0621796
			c-0.000061,0.2368011-0.19207,0.4287109-0.4288635,0.4286575c-0.2368011-0.000061-0.4287186-0.19207-0.4286575-0.4288712
			c0-0.0030212,0.0000381-0.0060425,0.0000992-0.0090637c0-0.6157227,0.6425781-1.0537109,1.4072266-1.0537109
			c0.477272-0.0071182,0.9374313,0.1775742,1.2773438,0.5126877c0.2669373,0.3002243,0.3896179,0.7019653,0.3359375,1.1000977
			v1.8647537c0,0.0463791,0.0371094,0.4663086,0.3447189,0.4663086c0.1025391,0,0.3359375-0.05616,0.3359375-0.5966797v-0.5224686
			h0.2324219v0.5224686c0.0521545,0.4340515-0.2574387,0.8281937-0.6914825,0.8803482
			C25.0413704,53.0634613,25.017292,53.065239,24.9931602,53.065918z M24.200161,50.7724609
			c-1.5380783,0.0556717-1.9296799,0.8295898-1.9296799,1.3422928c0.0049973,0.4431,0.3682556,0.7982559,0.8113556,0.7932587
			c0.0091705-0.0000992,0.0183411-0.0003586,0.027504-0.0007782c0.6181641-0.0141678,1.1078033-0.5267715,1.0936356-1.1449356
			c-0.0004425-0.0192566-0.0013809-0.0384979-0.0028152-0.0577011V50.7724609z"/>
		<path class="st0" d="M28.911129,49.8676834c-0.2133026,0.0083542-0.3929977-0.1577911-0.4013519-0.3711014
			c-0.0003891-0.0099182-0.0003891-0.0198517-0.0000153-0.0297775c-0.0026169-0.1519241,0.0804596-0.2923889,0.2148514-0.3632813
			c-0.0330811-0.0105896-0.0680923-0.0137634-0.1025391-0.0092773c-0.7089996,0-1.1005936,0.8295898-1.1005936,1.7524414v1.435997
			c0,0.3354492,0.0185623,0.4380035,0.7089996,0.4380035h0.1953125v0.2890701
			c-0.3730011-0.0278397-0.8105469-0.0278397-1.1835938-0.0278397l-1.0625,0.0278397v-0.2890549
			c0.6240005,0,0.7265625,0,0.7265625-0.4194336v-2.4985428c0-0.4570007-0.0742188-0.5224609-0.7265625-0.5224609v-0.2885666
			l1.2958908-0.1025391v1.0253906c0.1185303-0.5547333,0.5820007-0.9692535,1.1464691-1.0253906
			c0.3466415-0.0311737,0.653923,0.2221451,0.6894531,0.5683594c0.0104904,0.2158432-0.1559753,0.3993225-0.3718185,0.4098206
			C28.9301796,49.8677979,28.9206505,49.8679199,28.911129,49.8676834z"/>
	</g>
	<g>
		<path class="st0" d="M5.8896523,64.1122971c-1.1371384-0.0323563-2.0335426-0.9789963-2.0039101-2.1162109
			c-0.0413399-1.1531067,0.8599243-2.1213913,2.0130272-2.1627274c0.0034714-0.0001297,0.0069427-0.0002441,0.0104141-0.000351
			c0.7177734,0,1.4257813,0.3637695,1.4257813,0.9975586c0.0050659,0.2367401-0.1827469,0.4327698-0.419487,0.4378357
			C6.67873,61.273468,6.482708,61.0856552,6.4776421,60.8489075c-0.0000687-0.0030212-0.0000992-0.0060501-0.0000992-0.0090714
			c-0.0046997-0.2322311,0.1797485-0.4243088,0.4119797-0.4290085c0.0088272-0.0001831,0.017662-0.0000763,0.0264893,0.0002975
			c-0.2807693-0.2305527-0.6347809-0.3530045-0.9980011-0.3452072c-0.4941406,0-1.2587891,0.3916016-1.2587891,1.9116211
			c0,1.5009995,0.8203087,1.9018478,1.3144531,1.9018478c0.5908661,0.0134354,1.106041-0.3993988,1.2216797-0.9789963
			c0.0185471-0.0561523,0.0371094-0.0932617,0.1210938-0.0932617c0.0283203,0,0.1211014,0,0.1211014,0.0932617
			C7.282383,63.6254272,6.6307411,64.1356277,5.8896523,64.1122971z"/>
		<path class="st0" d="M9.0429649,63.9819336l-1.0253906,0.0278397v-0.2890701c0.625,0,0.7275314,0,0.7275314-0.4194336v-2.5077667
			c0-0.4570007-0.0839996-0.5131912-0.6904221-0.5131912V59.991745l1.3056564-0.1025391v3.4213867
			c0,0.3637695,0.0371094,0.4101486,0.6523438,0.4101486v0.2890701C9.6962852,64.0005035,9.3701057,63.9819336,9.0429649,63.9819336
			z M8.9970665,58.8725662c-0.2728882-0.0048294-0.4901886-0.2299652-0.4853516-0.5028534
			c0.0048294-0.2728806,0.2299652-0.490181,0.5028534-0.4853516c0.269455,0.0047684,0.485405,0.2245636,0.4854279,0.4940643
			C9.4951591,58.6527328,9.2714043,58.8725662,8.9970665,58.8725662z"/>
		<path class="st0" d="M13.2959023,60.8676834c-0.212883,0.008255-0.3921509-0.1576309-0.4004059-0.3705139
			c-0.0003967-0.0101166-0.0003891-0.0202484,0.0000153-0.030365c-0.0024414-0.1516037,0.0801163-0.2918472,0.2138596-0.3632813
			c-0.0330811-0.0105896-0.0680923-0.0137634-0.1025391-0.0092773c-0.7080002,0-1.0996094,0.8295898-1.0996094,1.7524414v1.435997
			c0,0.3354492,0.0185623,0.4380035,0.7080002,0.4380035h0.1962891v0.2890701
			c-0.3730011-0.0278397-0.8115234-0.0278397-1.1845703-0.0278397l-1.0625,0.0278397v-0.2890701
			c0.625,0,0.7275391,0,0.7275391-0.4194336v-2.4985428c0-0.4570007-0.0752029-0.5224609-0.7275391-0.5224609V59.991684
			l1.2958984-0.1025391v1.0253906c0.1188431-0.5545502,0.5821533-0.9689255,1.1464767-1.0253906
			c0.3469391-0.0315399,0.6547165,0.2218246,0.6904297,0.5683594c0.0101089,0.2162628-0.1570129,0.399765-0.3732681,0.409874
			C13.3146248,60.8678131,13.3052635,60.8679199,13.2959023,60.8676834z"/>
		<path class="st0" d="M16.2812462,64.1122971c-1.1374817-0.0319214-2.0344238-0.9786606-2.0048904-2.1162109
			c-0.0410004-1.1534729,0.8608398-2.1217728,2.0143051-2.1627731c0.0030441-0.0001068,0.0060883-0.0002136,0.0091324-0.0003052
			c0.7177811,0,1.4267578,0.3637695,1.4267578,0.9975586c0.0045929,0.2370148-0.1838303,0.4328842-0.420845,0.4374695
			c-0.2370224,0.0045929-0.4328842-0.1838303-0.4374771-0.420845c-0.0000458-0.002449-0.0000687-0.0049057-0.0000763-0.0073547
			c-0.004303-0.2326279,0.1807938-0.4246902,0.4134216-0.4289932c0.0083542-0.0001526,0.0167084-0.000061,0.0250549,0.0002823
			c-0.2804337-0.2305145-0.63414-0.3529739-0.9970703-0.3452072c-0.4941406,0-1.2587891,0.3916016-1.2587891,1.9116211
			c0,1.5009995,0.8203125,1.9018478,1.3144531,1.9018478c0.5906296,0.0133286,1.1054688-0.3995667,1.2207108-0.9789963
			c0.0195313-0.0561523,0.0380783-0.0932617,0.1220703-0.0932617c0.0273438,0,0.1210938,0,0.1210938,0.0932617
			C17.6735497,63.6251678,17.0221748,64.13517,16.2812462,64.1122971z"/>
		<path class="st0" d="M21.7470589,64.1122971v-0.8388596c-0.1833572,0.505867-0.6650696,0.8417282-1.2031326,0.8388596
			c-1.4169998,0-1.4169998-0.8486328-1.4169998-1.5756836V61.138176c0-0.8295898,0-0.8579102-0.7275391-0.8579102v-0.2885666
			l1.3711014-0.1025391v3.0952225c0,0.4848633,0.0371017,0.9228516,0.8203125,0.9228516
			c0.6806564,0,1.1279297-0.6337891,1.1279297-1.4453201v-1.6591797c0-0.4570007-0.0742188-0.5224609-0.7275391-0.5224609
			v-0.2885666l1.3710938-0.1025391v3.3095703c0,0.456543,0.0742188,0.5220032,0.7265625,0.5220032v0.2890701L21.7470589,64.1122971z
			"/>
		<path class="st0" d="M24.6210594,63.9819336l-1.0253906,0.0278397v-0.2890701c0.6240005,0,0.7265625,0,0.7265625-0.4194336
			v-2.5077667c0-0.4570007-0.0830002-0.5131912-0.6894531-0.5131912V59.991745l1.3056564-0.1025391v3.4213867
			c0,0.3637695,0.0371094,0.4101486,0.6523514,0.4101486v0.2890701
			C25.2734413,64.0005035,24.9472618,63.9819336,24.6210594,63.9819336z M24.574192,58.8725662
			c-0.2728806-0.0053635-0.4897461-0.2309189-0.4843826-0.5037994c0.0053558-0.2728882,0.2309189-0.4897537,0.5037994-0.4843903
			c0.2690811,0.0052872,0.4844589,0.2249146,0.4844818,0.4940491c-0.0024033,0.2753067-0.2275314,0.4965439-0.5028381,0.4941406
			c-0.0003433,0-0.0006943-0.0000076-0.0010376-0.0000076L24.574192,58.8725662z"/>
		<path class="st0" d="M28.0527306,64.1122971c-0.6210556,0.0456314-1.1615067-0.420845-1.2071381-1.0419006
			c-0.0053101-0.0722809-0.0036392-0.1449127,0.0049896-0.2168808v-2.5732498h-0.7929993v-0.2050705
			c0.9140701-0.0371094,1.1933594-1.034668,1.2031326-1.7993164h0.2324219v1.7158203h1.3339996v0.2885666h-1.3339996v2.5922928
			c0,0.1582031,0,1.0068283,0.625,1.0068283c0.3447266,0,0.625-0.3544922,0.625-1.0444336v-0.5126877h0.2324219v0.53125
			C28.9755821,63.4502029,28.7148399,64.1122971,28.0527306,64.1122971z"/>
	</g>
</g>
<g>
	<path class="st0" d="M117.9287109,60.1474609c-0.0981445-1.1044922-0.1606445-1.3554688-1.2651367-1.3554688
		c-0.1328125,0-0.3354492,0-0.3911133,0.0136719c-0.1118164,0.0283203-0.1259766,0.0908203-0.1259766,0.265625v3.7177734
		c0,0.2373047,0,0.3349609,0.6850586,0.3349609h0.2514648v0.203125c-0.2236328-0.0136719-0.9501953-0.0136719-1.2231445-0.0136719
		c-0.2724609,0-0.9921875,0-1.2158203,0.0136719v-0.203125h0.2514648c0.6850586,0,0.6850586-0.0976563,0.6850586-0.3349609
		v-3.7177734c0-0.1611328-0.0073242-0.2451172-0.1469727-0.265625c-0.0556641-0.0136719-0.2514648-0.0136719-0.3774414-0.0136719
		c-1.1040039,0-1.1669922,0.2509766-1.2646484,1.3554688h-0.1538086l0.1259766-1.5585938h4.1928711l0.1259766,1.5585938H117.9287109
		z"/>
	<path class="st0" d="M121.21875,63.3134766c-0.1958008,0-0.5732422,0-0.7548828,0.0136719v-0.203125
		c0.4541016,0,0.53125,0,0.53125-0.3144531v-1.6416016c0-0.4267578-0.0981445-0.7832031-0.53125-0.7832031
		s-0.9155273,0.3916016-0.9155273,1.125v1.2998047c0,0.3144531,0.0839844,0.3144531,0.53125,0.3144531v0.203125
		c-0.1816406-0.0136719-0.559082-0.0136719-0.7617188-0.0136719c-0.1958008,0-0.5732422,0-0.7548828,0.0136719v-0.203125
		c0.4541016,0,0.53125,0,0.53125-0.3144531v-3.6611328c0-0.3427734-0.0561523-0.3916016-0.53125-0.3916016v-0.203125
		l0.9711914-0.0761719v2.4384766h0.0073242c0.0976563-0.2167969,0.3774414-0.6708984,0.9780273-0.6708984
		c0.237793,0,0.5664063,0.0419922,0.769043,0.3144531c0.1606445,0.2236328,0.1606445,0.4189453,0.1606445,1.0693359v1.2861328
		c0.0068359,0.2089844,0.1816406,0.2089844,0.53125,0.2089844v0.203125
		C121.7988281,63.3134766,121.4213867,63.3134766,121.21875,63.3134766z"/>
</g>
<g>
	<path class="st0" d="M192.9194336,9.1298828c-0.0981445-1.1044922-0.1606445-1.3554688-1.2651367-1.3554688
		c-0.1328125,0-0.3354492,0-0.3911133,0.0136719c-0.1118164,0.0283203-0.1259766,0.0908203-0.1259766,0.265625v3.7177734
		c0,0.2373047,0,0.3349609,0.6850586,0.3349609h0.2514648v0.203125c-0.2236328-0.0136719-0.9501953-0.0136719-1.2231445-0.0136719
		c-0.2724609,0-0.9921875,0-1.2158203,0.0136719v-0.203125h0.2514648c0.6850586,0,0.6850586-0.0976563,0.6850586-0.3349609
		V8.0537109c0-0.1611328-0.0073242-0.2451172-0.1469727-0.265625c-0.0556641-0.0136719-0.2514648-0.0136719-0.3774414-0.0136719
		c-1.1040039,0-1.1669922,0.2509766-1.2646484,1.3554688h-0.1538086l0.1259766-1.5585938h4.1928711l0.1259766,1.5585938H192.9194336
		z"/>
	<path class="st0" d="M196.2094727,12.2958984c-0.1958008,0-0.5732422,0-0.7548828,0.0136719v-0.203125
		c0.4541016,0,0.53125,0,0.53125-0.3144531v-1.6416016c0-0.4267578-0.0981445-0.7832031-0.53125-0.7832031
		s-0.9155273,0.3916016-0.9155273,1.125v1.2998047c0,0.3144531,0.0839844,0.3144531,0.53125,0.3144531v0.203125
		c-0.1816406-0.0136719-0.559082-0.0136719-0.7617188-0.0136719c-0.1958008,0-0.5732422,0-0.7548828,0.0136719v-0.203125
		c0.4541016,0,0.53125,0,0.53125-0.3144531V8.1308594c0-0.3427734-0.0561523-0.3916016-0.53125-0.3916016v-0.203125
		l0.9711914-0.0761719v2.4384766h0.0073242c0.0976563-0.2167969,0.3774414-0.6708984,0.9780273-0.6708984
		c0.237793,0,0.5664063,0.0419922,0.769043,0.3144531c0.1606445,0.2236328,0.1606445,0.4189453,0.1606445,1.0693359v1.2861328
		c0.0068359,0.2089844,0.1816406,0.2089844,0.53125,0.2089844v0.203125
		C196.7895508,12.2958984,196.4121094,12.2958984,196.2094727,12.2958984z"/>
</g>
<g>
	<path class="st0" d="M299.890625,59.9287109v3.9970703c-0.0068359,0.0136719-0.0205078,0.0419922-0.0839844,0.0419922
		c-0.0488281,0-0.0556641-0.0068359-0.125-0.1044922l-2.7255859-4.1513672
		c-0.0634766-0.0839844-0.0634766-0.0976563-0.1191406-0.1542969v3.6767578c0,0.2021484,0,0.5302734,0.6640625,0.5302734v0.203125
		c-0.1816406-0.0136719-0.5527344-0.0136719-0.7480469-0.0136719s-0.5664063,0-0.7480469,0.0136719v-0.203125
		c0.6640625,0,0.6640625-0.328125,0.6640625-0.5302734v-3.7880859c-0.1884766-0.0488281-0.3632813-0.0488281-0.6640625-0.0488281
		v-0.203125h1.0693359c0.1542969,0,0.1611328,0.0068359,0.2236328,0.0976563l2.4257813,3.6904297v-3.0537109
		c0-0.203125,0-0.53125-0.6640625-0.53125v-0.203125c0.1816406,0.0146484,0.5517578,0.0146484,0.7470703,0.0146484
		c0.1962891,0,0.5664063,0,0.7480469-0.0146484v0.203125C299.890625,59.3974609,299.890625,59.7255859,299.890625,59.9287109z"/>
</g>
<g>
	<path class="st0" d="M390.3701172,60.6201172v3.9970703c-0.0068359,0.0136719-0.0205078,0.0419922-0.0839844,0.0419922
		c-0.0488281,0-0.0556641-0.0068359-0.125-0.1044922l-2.7255859-4.1513672
		c-0.0634766-0.0839844-0.0634766-0.0976563-0.1191406-0.1542969v3.6767578c0,0.2021484,0,0.5302734,0.6640625,0.5302734v0.203125
		c-0.1816406-0.0136719-0.5527344-0.0136719-0.7480469-0.0136719s-0.5664063,0-0.7480469,0.0136719v-0.203125
		c0.6640625,0,0.6640625-0.328125,0.6640625-0.5302734v-3.7880859c-0.1884766-0.0488281-0.3632813-0.0488281-0.6640625-0.0488281
		v-0.203125h1.0693359c0.1542969,0,0.1611328,0.0068359,0.2236328,0.0976563l2.4257813,3.6904297v-3.0537109
		c0-0.203125,0-0.53125-0.6640625-0.53125v-0.203125c0.1816406,0.0146484,0.5517578,0.0146484,0.7470703,0.0146484
		c0.1962891,0,0.5664063,0,0.7480469-0.0146484v0.203125C390.3701172,60.0888672,390.3701172,60.4169922,390.3701172,60.6201172z"/>
</g>
</svg>
