<svg id="Layer_1" data-name="Layer 1" xmlns="http://www.w3.org/2000/svg" viewBox="0 0 499.28711 108">
  <defs>
    <style>
      .cls-1, .cls-2, .cls-4, .cls-5, .cls-6, .cls-7 {
        fill: none;
      }

      .cls-1, .cls-4, .cls-5, .cls-6, .cls-7 {
        stroke: #000;
      }

      .cls-1, .cls-4, .cls-7 {
        stroke-linecap: round;
      }

      .cls-1, .cls-4 {
        stroke-linejoin: round;
      }

      .cls-1, .cls-4, .cls-6, .cls-7 {
        stroke-width: 2px;
      }

      .cls-2 {
        stroke: #c1272d;
        stroke-miterlimit: 10;
      }

      .cls-3 {
        fill: #c1272d;
      }

      .cls-4 {
        stroke-dasharray: 5.36364 5.36364;
      }

      .cls-5, .cls-6 {
        stroke-linecap: square;
      }

      .cls-5 {
        stroke-width: 1.5px;
      }
    </style>
  </defs>
  <title>TheveninResistance</title>
  <g>
    <g>
      <rect class="cls-1" x="72" y="21.5" width="55" height="65"/>
      <g>
        <path d="M91.62891,31.74219H86.77148v-.28906h.22364c.71875,0,.7373-.10254.7373-.438V26.10156c0-.33545-.01855-.438-.7373-.438h-.22364v-.28906c.32618.02783,1.05372.02783,1.417.02783.38281,0,1.23144,0,1.5664-.02783v.28906h-.30761c-.88575,0-.88575.13038-.88575.44727v4.96924c0,.30762.01856.37305.457.37305h.76465c1.64063,0,1.77149-1.16553,1.874-2.11622h.2334Z"/>
        <path d="M93.62695,31.71436l-1.02539.02783v-.28906c.625,0,.72754,0,.72754-.41944V28.52588c0-.457-.084-.51318-.69043-.51318v-.28858l1.30567-.10254V31.043c0,.36377.03711.41016.65234.41016v.28906C94.28027,31.73291,93.9541,31.71436,93.62695,31.71436Zm-.0459-5.10938a.49418.49418,0,1,1,.50293-.49414A.503.503,0,0,1,93.58105,26.605Z"/>
        <path d="M98.83105,31.71436l-1.05371.02783v-.28906c.625,0,.72754,0,.72754-.41944V28.86133c0-.53125-.10254-1.03467-.69043-1.03467a1.361,1.361,0,0,0-1.25781,1.4917v1.71533c0,.41944.10254.41944.72656.41944v.28906l-1.04394-.02783-1.05371.02783v-.28906c.625,0,.72754,0,.72754-.41944V28.53516c0-.457-.07422-.52246-.72754-.52246v-.28858L96.5,27.62158v.97852a1.47059,1.47059,0,0,1,1.37988-.97852,1.244,1.244,0,0,1,.9795.34473c.28906.33545.28906.62451.28906,1.42627v1.78076c.00879.27979.24219.27979.72656.27979v.28906Z"/>
        <path d="M102.38574,31.84473a2.10462,2.10462,0,0,1-2.05078-2.15381,2.03715,2.03715,0,0,1,1.93848-2.12549,1.65336,1.65336,0,0,1,1.66894,1.82715c0,.1958-.02734.1958-.23242.1958H101.1084a2.71707,2.71707,0,0,0,.2793,1.39844,1.25641,1.25641,0,0,0,1.05371.625,1.31356,1.31356,0,0,0,1.25879-.96045c.01855-.07471.0371-.13037.12109-.13037a.10806.10806,0,0,1,.12109.11181A1.59254,1.59254,0,0,1,102.38574,31.84473Zm-.1123-4.07422c-.31641,0-1.09961.23291-1.15625,1.62207h2.21C103.32715,29.0293,103.23438,27.77051,102.27344,27.77051Z"/>
        <path d="M107.9541,31.79834a.78044.78044,0,0,1-.72754-.76465,1.291,1.291,0,0,1-1.22168.811c-.58691,0-1.49121-.23291-1.49121-.98828a1.35738,1.35738,0,0,1,.93164-1.21192,4.53563,4.53563,0,0,1,1.71582-.33545v-.34521a1.05583,1.05583,0,0,0-.98828-1.19336,1.31064,1.31064,0,0,0-1.00683.42871.423.423,0,0,1,.47558.4292.42876.42876,0,1,1-.85742-.00928c0-.61572.64258-1.05371,1.40723-1.05371a1.78154,1.78154,0,0,1,1.27734.5127,1.37841,1.37841,0,0,1,.33594,1.10009V31.043c0,.04639.03711.46631.34472.46631.10254,0,.33594-.05615.33594-.59668v-.52246h.23242v.52246A.79157.79157,0,0,1,107.9541,31.79834Zm-.793-2.29346c-1.53808.05567-1.92968.82959-1.92968,1.34229a.80235.80235,0,0,0,.83886.79248,1.11958,1.11958,0,0,0,1.09082-1.20264Z"/>
        <path d="M111.87207,28.6001a.38652.38652,0,0,1-.40137-.40088.40287.40287,0,0,1,.21485-.36328.23628.23628,0,0,0-.10254-.00928c-.709,0-1.10059.82959-1.10059,1.75244v1.436c0,.33545.01856.438.709.438h.19531v.28906c-.373-.02783-.81055-.02783-1.18359-.02783l-1.0625.02783v-.28906c.624,0,.72656,0,.72656-.41944V28.53516c0-.457-.07422-.52246-.72656-.52246v-.28858l1.29589-.10254V28.647a1.30435,1.30435,0,0,1,1.14649-1.02539.63583.63583,0,0,1,.68945.56836A.39128.39128,0,0,1,111.87207,28.6001Z"/>
      </g>
      <g>
        <path d="M88.85059,44.25977a2.06331,2.06331,0,0,1-2.00391-2.11622,2.08922,2.08922,0,0,1,2.02344-2.16308c.71777,0,1.42578.36377,1.42578.99756a.42876.42876,0,1,1-.85742.00927.42059.42059,0,0,1,.43847-.42871,1.52116,1.52116,0,0,0-.998-.34521c-.49414,0-1.25879.3916-1.25879,1.91162,0,1.501.82031,1.90186,1.31445,1.90186a1.21754,1.21754,0,0,0,1.22168-.979c.01855-.05615.03711-.09326.12109-.09326.02832,0,.1211,0,.1211.09326A1.5336,1.5336,0,0,1,88.85059,44.25977Z"/>
        <path d="M92.00391,44.12939l-1.02539.02784v-.28907c.625,0,.72753,0,.72753-.41943V40.94092c0-.457-.084-.51319-.69042-.51319v-.28857l1.30566-.10254V43.458c0,.36377.03711.41015.65234.41015v.28907C92.65723,44.148,92.33105,44.12939,92.00391,44.12939ZM91.958,39.02a.49418.49418,0,1,1,.50293-.49414A.503.503,0,0,1,91.958,39.02Z"/>
        <path d="M96.25684,41.01514a.38575.38575,0,0,1-.40039-.40088.40447.40447,0,0,1,.21386-.36328.23625.23625,0,0,0-.10254-.00928c-.708,0-1.09961.82959-1.09961,1.75244v1.436c0,.33545.01856.438.708.438h.19629v.28907c-.373-.02784-.81152-.02784-1.18457-.02784l-1.0625.02784v-.28907c.625,0,.72754,0,.72754-.41943V40.9502c0-.457-.0752-.52247-.72754-.52247v-.28857l1.2959-.10254V41.062a1.30542,1.30542,0,0,1,1.14648-1.02539.63619.63619,0,0,1,.69043.56836A.392.392,0,0,1,96.25684,41.01514Z"/>
        <path d="M99.24219,44.25977a2.06348,2.06348,0,0,1-2.00489-2.11622,2.08986,2.08986,0,0,1,2.02344-2.16308c.71778,0,1.42676.36377,1.42676.99756a.42924.42924,0,1,1-.8584.00927.42128.42128,0,0,1,.43848-.42871,1.519,1.519,0,0,0-.99707-.34521c-.49414,0-1.25879.3916-1.25879,1.91162,0,1.501.82031,1.90186,1.31445,1.90186a1.21665,1.21665,0,0,0,1.22071-.979c.01953-.05615.03808-.09326.12207-.09326.02734,0,.12109,0,.12109.09326A1.53467,1.53467,0,0,1,99.24219,44.25977Z"/>
        <path d="M104.708,44.25977V43.4209a1.2725,1.2725,0,0,1-1.20313.83887c-1.417,0-1.417-.84864-1.417-1.57569V41.28564c0-.82959,0-.85791-.72754-.85791v-.28857l1.3711-.10254v3.09522c0,.48486.0371.92285.82031.92285.68066,0,1.12793-.63379,1.12793-1.44531V40.9502c0-.457-.07422-.52247-.72754-.52247v-.28857l1.37109-.10254v3.30957c0,.45654.07422.522.72656.522v.28907Z"/>
        <path d="M107.582,44.12939l-1.02539.02784v-.28907c.624,0,.72656,0,.72656-.41943V40.94092c0-.457-.083-.51319-.68945-.51319v-.28857l1.30566-.10254V43.458c0,.36377.03711.41015.65235.41015v.28907C108.23438,44.148,107.9082,44.12939,107.582,44.12939ZM107.53516,39.02a.49419.49419,0,1,1,.5039-.49414A.49851.49851,0,0,1,107.53516,39.02Z"/>
        <path d="M111.01367,44.25977a1.12756,1.12756,0,0,1-1.20215-1.25879V40.42773h-.793v-.20507c.91407-.03711,1.19336-1.03467,1.20313-1.79932h.23242v1.71582h1.334v.28857h-1.334V43.02c0,.1582,0,1.00684.625,1.00684.34473,0,.625-.3545.625-1.04444v-.51269h.23242V43.001C111.93652,43.59766,111.67578,44.25977,111.01367,44.25977Z"/>
      </g>
      <g>
        <path d="M89.72168,53.43945l-1.09082,3.05811c-.03711.09326-.06543.17724-.18652.17724s-.14942-.0747-.18653-.17724l-.95117-2.64746-.94141,2.63818c-.04687.13037-.06543.18652-.18652.18652s-.14941-.0747-.19629-.20507l-1.17383-3.3003c-.1123-.29834-.22461-.32666-.69043-.32666V52.5542l.86719.02783,1.0166-.02783v.28857c-.18652,0-.55078,0-.55078.252a.357.357,0,0,0,.04688.168l.88574,2.48925.80176-2.25634a3.36337,3.36337,0,0,0-.21485-.5127c-.09277-.12109-.24218-.14014-.58691-.14014V52.5542c.2793.01855.5498.02783.83008.02783l.96972-.02783v.28857c-.18652,0-.55078,0-.55078.252a.53488.53488,0,0,0,.04688.17724l.92285,2.60108.84863-2.38672a.41634.41634,0,0,0,.04688-.1958c0-.27051-.20508-.438-.541-.44776V52.5542l.86719.02783c.20508,0,.47558-.00928.68066-.02783v.28857A.78334.78334,0,0,0,89.72168,53.43945Z"/>
        <path d="M92.01855,56.54443l-1.02539.02784V56.2832c.624,0,.72657,0,.72657-.41943V53.356c0-.457-.083-.51319-.68946-.51319V52.5542l1.30567-.10254v3.42139c0,.36377.03711.41015.65234.41015v.28907C92.6709,56.563,92.34473,56.54443,92.01855,56.54443Zm-.04687-5.10937a.49419.49419,0,1,1,.50391-.49414A.49852.49852,0,0,1,91.97168,51.43506Z"/>
        <path d="M95.4502,56.6748A1.12755,1.12755,0,0,1,94.24805,55.416V52.84277h-.793V52.6377c.91406-.03711,1.19336-1.03467,1.20312-1.79932h.23243V52.5542h1.334v.28857h-1.334v2.59229c0,.1582,0,1.00683.625,1.00683.34472,0,.625-.35449.625-1.04443v-.51269h.23242V55.416C96.37305,56.0127,96.1123,56.6748,95.4502,56.6748Z"/>
        <path d="M100.85059,56.54443l-1.05371.02784V56.2832c.625,0,.72753,0,.72753-.41943V53.69141c0-.53125-.10253-1.03467-.69043-1.03467a1.361,1.361,0,0,0-1.25781,1.4917v1.71533c0,.41943.10254.41943.72656.41943v.28907l-1.04394-.02784-1.05371.02784V56.2832c.625,0,.72754,0,.72754-.41943V51.01563c0-.45655-.07422-.522-.72754-.522v-.28906l1.34277-.10254v3.24463h.00977a1.46213,1.46213,0,0,1,1.34179-.895,1.244,1.244,0,0,1,.9795.34473c.28906.33545.28906.62451.28906,1.42627v1.78076c.00879.27978.24219.27978.72656.27978v.28907Z"/>
        <path d="M108.93848,56.62842a.78044.78044,0,0,1-.72754-.76465,1.29006,1.29006,0,0,1-1.22168.811c-.58692,0-1.49121-.23291-1.49121-.98828a1.35737,1.35737,0,0,1,.93164-1.21191,4.5354,4.5354,0,0,1,1.71582-.33545V53.794a1.05583,1.05583,0,0,0-.98828-1.19336,1.31066,1.31066,0,0,0-1.00684.42871.423.423,0,0,1,.47559.4292.42876.42876,0,1,1-.85743-.00928c0-.61572.64258-1.05371,1.40723-1.05371a1.78159,1.78159,0,0,1,1.27735.51269,1.37847,1.37847,0,0,1,.33593,1.1001v1.86475c0,.04638.03711.46631.34473.46631.10254,0,.33594-.05616.33594-.59668v-.52247h.23242v.52247A.79157.79157,0,0,1,108.93848,56.62842Zm-.793-2.29346c-1.53809.05567-1.92969.82959-1.92969,1.34229a.80237.80237,0,0,0,.83887.79248,1.11958,1.11958,0,0,0,1.09082-1.20264Z"/>
        <path d="M111.20605,56.54443l-1.03515.02784V56.2832c.625,0,.72754,0,.72754-.41943V51.01563c0-.45655-.07422-.522-.72754-.522v-.28906l1.34277-.10254v5.76172c0,.41943.10254.41943.72754.41943v.28907Z"/>
        <path d="M113.79883,56.54443l-1.03516.02784V56.2832c.625,0,.72754,0,.72754-.41943V51.01563c0-.45655-.07422-.522-.72754-.522v-.28906l1.34278-.10254v5.76172c0,.41943.10253.41943.72753.41943v.28907Z"/>
      </g>
      <g>
        <path d="M75.95117,68.95947l-1.02539.02783v-.28906c.624,0,.72656,0,.72656-.41943V65.771c0-.457-.083-.5127-.68945-.5127v-.28906l1.30566-.10254v3.42139c0,.36377.03711.41015.65235.41015v.28906C76.60352,68.978,76.27734,68.95947,75.95117,68.95947ZM75.9043,63.8501a.49419.49419,0,1,1,.5039-.49414A.49851.49851,0,0,1,75.9043,63.8501Z"/>
        <path d="M81.15527,68.95947l-1.05371.02783v-.28906c.624,0,.72657,0,.72657-.41943V66.10645c0-.53125-.10254-1.03467-.68946-1.03467a1.36163,1.36163,0,0,0-1.25879,1.4917v1.71533c0,.41943.10254.41943.72754.41943v.28906l-1.04394-.02783-1.05371.02783v-.28906c.624,0,.72656,0,.72656-.41943V65.78027c0-.457-.07422-.522-.72656-.522v-.28906l1.31445-.10254v.97851a1.46964,1.46964,0,0,1,1.37988-.97851,1.23974,1.23974,0,0,1,.97852.34473c.28906.33545.28906.62451.28906,1.42627v1.78076c.00977.27978.24219.27978.72754.27978v.28906Z"/>
        <path d="M85.94043,69.08984v-.61523a1.57678,1.57678,0,0,1-1.25.61523,2.05079,2.05079,0,0,1-1.97656-2.10693A2.10734,2.10734,0,0,1,84.793,64.8667a1.48816,1.48816,0,0,1,1.1748.57764V63.43066c0-.45654-.07422-.522-.72656-.522v-.28906l1.3418-.10254v5.65918c0,.45654.07519.522.72754.522v.28906Zm0-3.11377a.4465.4465,0,0,0-.10254-.34521,1.20908,1.20908,0,0,0-1.00781-.55908,1.27984,1.27984,0,0,0-1.05274.59668,3.20669,3.20669,0,0,0-.01855,2.61963,1.15727,1.15727,0,0,0,.97851.59668,1.29956,1.29956,0,0,0,1.10059-.65284.44487.44487,0,0,0,.10254-.34472Z"/>
        <path d="M89.89551,69.08984a2.10461,2.10461,0,0,1-2.05078-2.1538,2.03728,2.03728,0,0,1,1.93945-2.12549,1.65391,1.65391,0,0,1,1.66895,1.82715c0,.1958-.02833.1958-.2334.1958H88.61816a2.70886,2.70886,0,0,0,.28028,1.39843,1.25376,1.25376,0,0,0,1.05371.625A1.31334,1.31334,0,0,0,91.21,67.89648c.01953-.0747.03809-.13037.12207-.13037a.10849.10849,0,0,1,.1211.11182A1.594,1.594,0,0,1,89.89551,69.08984Zm-.11133-4.07421c-.31738,0-1.10059.23291-1.15625,1.62207h2.21C90.83789,66.27441,90.74414,65.01563,89.78418,65.01563Z"/>
        <path d="M94.50391,69.08984a1.267,1.267,0,0,1-1.14746-.65283V70.0874c0,.41944.10253.41944.72753.41944v.28906l-1.05371-.02783-1.04394.02783v-.28906c.625,0,.72754,0,.72754-.41944V65.72412c0-.41016-.06543-.46582-.72754-.46582v-.28906l1.34277-.10254v.61523a1.68021,1.68021,0,0,1,1.30469-.61523A2.04034,2.04034,0,0,1,96.583,66.97363,2.10107,2.10107,0,0,1,94.50391,69.08984Zm.05566-3.99023a1.3988,1.3988,0,0,0-1.20312.7456v2.07911a.48816.48816,0,0,0,.13085.3916,1.16281,1.16281,0,0,0,.9795.56885c.68945,0,1.34179-.78321,1.34179-1.91114C95.80859,65.91992,95.24023,65.09961,94.55957,65.09961Z"/>
        <path d="M99.22363,69.08984a2.10461,2.10461,0,0,1-2.05078-2.1538,2.03728,2.03728,0,0,1,1.93945-2.12549,1.65391,1.65391,0,0,1,1.66895,1.82715c0,.1958-.02832.1958-.2334.1958H97.94629a2.70894,2.70894,0,0,0,.28027,1.39843,1.25379,1.25379,0,0,0,1.05371.625,1.31335,1.31335,0,0,0,1.25782-.96045c.01953-.0747.03808-.13037.12207-.13037a.10848.10848,0,0,1,.12109.11182A1.594,1.594,0,0,1,99.22363,69.08984Zm-.11133-4.07421c-.31738,0-1.10058.23291-1.15625,1.62207h2.21C100.166,66.27441,100.07227,65.01563,99.1123,65.01563Z"/>
        <path d="M104.99707,68.95947l-1.05371.02783v-.28906c.624,0,.72656,0,.72656-.41943V66.10645c0-.53125-.10254-1.03467-.68945-1.03467a1.36163,1.36163,0,0,0-1.25879,1.4917v1.71533c0,.41943.10254.41943.72754.41943v.28906l-1.04395-.02783-1.05371.02783v-.28906c.624,0,.72657,0,.72657-.41943V65.78027c0-.457-.07422-.522-.72657-.522v-.28906l1.31446-.10254v.97851a1.46963,1.46963,0,0,1,1.37988-.97851,1.23971,1.23971,0,0,1,.97851.34473c.28907.33545.28907.62451.28907,1.42627v1.78076c.00976.27978.24218.27978.72754.27978v.28906Z"/>
        <path d="M109.78223,69.08984v-.61523a1.57472,1.57472,0,0,1-1.249.61523,2.05016,2.05016,0,0,1-1.97656-2.10693,2.10672,2.10672,0,0,1,2.0791-2.11621,1.48967,1.48967,0,0,1,1.17481.57764V63.43066c0-.45654-.0752-.522-.72754-.522v-.28906l1.34277-.10254v5.65918c0,.45654.07422.522.72656.522v.28906Zm0-3.11377a.4465.4465,0,0,0-.10254-.34521,1.20874,1.20874,0,0,0-1.00684-.55908,1.28165,1.28165,0,0,0-1.05371.59668,3.20669,3.20669,0,0,0-.01855,2.61963,1.15883,1.15883,0,0,0,.97949.59668,1.29807,1.29807,0,0,0,1.09961-.65284.44487.44487,0,0,0,.10254-.34472Z"/>
        <path d="M113.73828,69.08984a2.10461,2.10461,0,0,1-2.05078-2.1538,2.03715,2.03715,0,0,1,1.93848-2.12549,1.65336,1.65336,0,0,1,1.66894,1.82715c0,.1958-.02734.1958-.23242.1958h-2.60156a2.71712,2.71712,0,0,0,.27929,1.39843,1.25642,1.25642,0,0,0,1.05372.625,1.31355,1.31355,0,0,0,1.25878-.96045c.01856-.0747.03711-.13037.1211-.13037a.10807.10807,0,0,1,.12109.11182A1.59254,1.59254,0,0,1,113.73828,69.08984Zm-.1123-4.07421c-.31641,0-1.09961.23291-1.15625,1.62207h2.21C114.67969,66.27441,114.58691,65.01563,113.626,65.01563Z"/>
        <path d="M119.51074,68.95947l-1.05371.02783v-.28906c.625,0,.72754,0,.72754-.41943V66.10645c0-.53125-.10254-1.03467-.69043-1.03467a1.361,1.361,0,0,0-1.25781,1.4917v1.71533c0,.41943.10254.41943.72656.41943v.28906l-1.04394-.02783-1.05372.02783v-.28906c.625,0,.72754,0,.72754-.41943V65.78027c0-.457-.07422-.522-.72754-.522v-.28906l1.31446-.10254v.97851a1.4706,1.4706,0,0,1,1.37988-.97851,1.24394,1.24394,0,0,1,.97949.34473c.28907.33545.28907.62451.28907,1.42627v1.78076c.00878.27978.24218.27978.72656.27978v.28906Z"/>
        <path d="M122.92578,69.08984a1.12756,1.12756,0,0,1-1.20215-1.25879V65.2583h-.793v-.20557c.91407-.0371,1.19336-1.03466,1.20313-1.79931h.23242v1.71582h1.334v.28906h-1.334v2.5918c0,.1582,0,1.00683.625,1.00683.34473,0,.625-.35449.625-1.04443v-.5127h.23242v.53125C123.84863,68.42773,123.58789,69.08984,122.92578,69.08984Z"/>
      </g>
      <g>
        <path d="M79.97168,81.50488a1.39375,1.39375,0,0,1-1.02637-.40088,2.56388,2.56388,0,0,0-.18652.21436c-.17676.17725-.18555.18652-.23242.18652-.10254,0-.10254-.06543-.10254-.22363v-1.231c0-.16748,0-.23291.12109-.23291.09278,0,.10254.03711.13086.15869.17676.79248.5127,1.32373,1.2959,1.32373.72656,0,1.05273-.373,1.05273-.84863,0-.6709-.76367-.82031-.96875-.85742a2.45155,2.45155,0,0,1-1.23144-.42871.99608.99608,0,0,1-.40039-.79248c0-.52246.35449-1.147,1.49121-1.147a1.43626,1.43626,0,0,1,.87695.26123,1.23737,1.23737,0,0,0,.15821-.14942c.12109-.11181.13964-.11181.18652-.11181.10254,0,.10254.06543.10254.22363v.94189c0,.17725,0,.22364-.1211.22364,0,0-.10253,0-.1123-.084A1.0285,1.0285,0,0,0,79.915,77.40283c-.80176,0-1.044.38233-1.044.7085,0,.54053.625.66211,1.14649.76465a1.89994,1.89994,0,0,1,1.06347.44726,1.20486,1.20486,0,0,1,.39161.88574C81.47266,80.88037,81.043,81.50488,79.97168,81.50488Z"/>
        <path d="M84.1123,81.50488a2.08037,2.08037,0,0,1-2.05957-2.09765,2.06807,2.06807,0,1,1,4.12989,0A2.07707,2.07707,0,0,1,84.1123,81.50488ZM85.166,78.03662a1.22179,1.22179,0,0,0-1.05372-.606,1.252,1.252,0,0,0-1.0625.62452,2.67522,2.67522,0,0,0-.22363,1.27734,2.76962,2.76962,0,0,0,.2334,1.31445,1.216,1.216,0,0,0,1.0625.625,1.20274,1.20274,0,0,0,1.08106-.68994,2.83258,2.83258,0,0,0,.20507-1.24951A2.56147,2.56147,0,0,0,85.166,78.03662Z"/>
        <path d="M90.10059,81.50488V80.666a1.27219,1.27219,0,0,1-1.20215.83886c-1.418,0-1.418-.84863-1.418-1.57568V78.53076c0-.82959,0-.85791-.72656-.85791v-.28857l1.37011-.10254v3.09521c0,.48487.03711.92285.82032.92285.68066,0,1.12793-.63378,1.12793-1.44531V78.19531c0-.457-.07422-.52246-.72657-.52246v-.28857l1.37012-.10254v3.30957c0,.45654.0752.522.72754.522v.28906Z"/>
        <path d="M94.63379,78.26025a.38574.38574,0,0,1-.40039-.40087.40449.40449,0,0,1,.21387-.36329.23652.23652,0,0,0-.10254-.00927c-.708,0-1.09961.82959-1.09961,1.75244v1.436c0,.33545.01855.438.708.438h.19628v.28906c-.373-.02783-.81152-.02783-1.18457-.02783l-1.0625.02783v-.28906c.625,0,.72754,0,.72754-.41943V78.19531c0-.457-.07519-.52246-.72754-.52246v-.28857l1.2959-.10254v1.02539a1.30542,1.30542,0,0,1,1.14649-1.02539.63619.63619,0,0,1,.69043.56836A.392.392,0,0,1,94.63379,78.26025Z"/>
        <path d="M97.61914,81.50488a2.06331,2.06331,0,0,1-2.00391-2.11621,2.08923,2.08923,0,0,1,2.02344-2.16308c.71778,0,1.42578.36377,1.42578.99755a.42876.42876,0,1,1-.85742.00928.42059.42059,0,0,1,.43848-.42871,1.52111,1.52111,0,0,0-.99805-.34521c-.49414,0-1.25879.3916-1.25879,1.91162,0,1.501.82031,1.90185,1.31446,1.90185a1.21752,1.21752,0,0,0,1.22167-.979c.01856-.05615.03711-.09326.1211-.09326.02832,0,.12109,0,.12109.09326A1.5336,1.5336,0,0,1,97.61914,81.50488Z"/>
        <path d="M101.75195,81.50488a2.10461,2.10461,0,0,1-2.05078-2.15381,2.03715,2.03715,0,0,1,1.93848-2.12548,1.65335,1.65335,0,0,1,1.66894,1.82714c0,.19581-.02734.19581-.23242.19581h-2.60156a2.717,2.717,0,0,0,.2793,1.39843,1.25639,1.25639,0,0,0,1.05371.625,1.31356,1.31356,0,0,0,1.25879-.96045c.01855-.0747.03711-.13037.12109-.13037a.10807.10807,0,0,1,.12109.11182A1.59255,1.59255,0,0,1,101.75195,81.50488Zm-.1123-4.07422c-.31641,0-1.09961.23291-1.15527,1.62207h2.209C102.69336,78.68945,102.60059,77.43066,101.63965,77.43066Z"/>
        <path d="M105.43652,81.50488a1.39372,1.39372,0,0,1-1.02636-.40088,2.56333,2.56333,0,0,0-.18653.21436c-.17675.17725-.18554.18652-.23242.18652-.10254,0-.10254-.06543-.10254-.22363v-1.231c0-.16748,0-.23291.1211-.23291.09277,0,.10253.03711.13086.15869.17675.79248.51269,1.32373,1.29589,1.32373.72657,0,1.05274-.373,1.05274-.84863,0-.6709-.76367-.82031-.96875-.85742a2.45156,2.45156,0,0,1-1.23145-.42871.99611.99611,0,0,1-.40039-.79248c0-.52246.35449-1.147,1.49121-1.147a1.43629,1.43629,0,0,1,.877.26123,1.23729,1.23729,0,0,0,.1582-.14942c.12109-.11181.13965-.11181.18652-.11181.10254,0,.10254.06543.10254.22363v.94189c0,.17725,0,.22364-.12109.22364,0,0-.10254,0-.11231-.084a1.0285,1.0285,0,0,0-1.09082-1.12793c-.80175,0-1.04394.38233-1.04394.7085,0,.54053.625.66211,1.14648.76465a1.9,1.9,0,0,1,1.06348.44726,1.20486,1.20486,0,0,1,.3916.88574C106.9375,80.88037,106.50781,81.50488,105.43652,81.50488Z"/>
        <path d="M112.68359,81.50488a2.08037,2.08037,0,0,1-2.05957-2.09765,2.06807,2.06807,0,1,1,4.12989,0A2.07707,2.07707,0,0,1,112.68359,81.50488Zm1.05371-3.46826a1.22176,1.22176,0,0,0-1.05371-.606,1.252,1.252,0,0,0-1.0625.62452,2.67522,2.67522,0,0,0-.22363,1.27734,2.76962,2.76962,0,0,0,.2334,1.31445,1.216,1.216,0,0,0,1.0625.625,1.20272,1.20272,0,0,0,1.08105-.68994,2.83246,2.83246,0,0,0,.20508-1.24951A2.56138,2.56138,0,0,0,113.7373,78.03662Z"/>
        <path d="M120.47168,75.89258a.38688.38688,0,0,1-.40137-.40088.408.408,0,0,1,.28028-.3916.75366.75366,0,0,0-.3086-.06543c-.41894,0-.86621.438-.86621,1.26806v1.08155h1.09961v.28857h-1.07226v3.00244c0,.33545.01855.438.709.438h.19531v.28906c-.373-.02783-.81054-.02783-1.18359-.02783l-1.0625.02783v-.28906c.624,0,.72656,0,.72656-.41943v-3.021h-1.958v3.021c0,.41943.10254.41943.72754.41943v.28906l-1.03515-.02783-1.03418.02783v-.28906c.624,0,.72656,0,.72656-.41943v-3.021h-.73633v-.28857h.73633v-1.063c0-1.00684,1.082-1.4917,1.96777-1.4917a1.35867,1.35867,0,0,1,1.04395.3916,1.66071,1.66071,0,0,1,1.00683-.3916c.52246,0,.84864.31689.84864.65234A.38676.38676,0,0,1,120.47168,75.89258Zm-2.499-.85791a1.30205,1.30205,0,0,0-1.37012,1.2959v1.05371h1.98535V76.312a1.23643,1.23643,0,0,1,.02832-.31689.37745.37745,0,0,1-.26172-.37305.40106.40106,0,0,1,.33594-.41016A1.35685,1.35685,0,0,0,117.97266,75.03467Z"/>
      </g>
      <circle class="cls-1" cx="149.5" cy="4" r="3"/>
      <path id="path1132" class="cls-1" d="M146.5,104h-47V86.5"/>
      <circle class="cls-1" cx="149.5" cy="104" r="3"/>
      <polyline class="cls-1" points="99.5 21.5 99.5 4 132.5 4 146.5 4"/>
      <g>
        <polyline class="cls-2" points="164.5 81 164.5 54 147.585 54"/>
        <polygon class="cls-3" points="150.898 49.91 151.58 50.643 147.968 53.999 151.58 57.356 150.898 58.089 146.5 53.999 150.898 49.91"/>
      </g>
      <g>
        <path d="M168.40234,92.46045H162.0332c-.26367,0-.38379,0-.38379-.312a.41558.41558,0,0,1,.09571-.31153l4.79785-7.04H164.9834c-1.67871,0-2.48242.73144-2.57813,2.32666h-.56347l.14355-2.89063h6.165c.252,0,.38379,0,.38379.2998a.36366.36366,0,0,1-.09668.28809l-4.78516,7.02783H165.332c2.458,0,2.626-1.46289,2.72168-2.79443h.56445Z"/>
        <path d="M174.6084,93.29785c-.03516,0-.10449,0-.10449-.09082a.71268.71268,0,0,1,.01367-.105,3.3775,3.3775,0,0,0,.07031-.62891c0-.4331-.16113-.53125-.88769-.53125a2.60938,2.60938,0,0,0-.36329.01416c-.05664.00684-.1123.021-.16113.23047l-.93652,3.75977a.42589.42589,0,0,0-.02832.13281c0,.09766.03515.126.23144.147.02051,0,.23731.01368.34864.01368h.10546c.1045,0,.17481,0,.17481.07714,0,.13965-.084.13965-.14746.13965-.35645,0-.7334-.021-1.09668-.021-.35645,0-.72656.021-1.083.021-.03516,0-.11914,0-.11914-.084,0-.13281.07715-.13281.19531-.13281h.11231c.61523,0,.67773-.06983.74023-.31446l.93653-3.75293a.51791.51791,0,0,0,.02832-.15332c0-.04931,0-.07715-.16114-.07715h-.2373c-.90137,0-1.09668.147-1.42578,1.13233-.06934.18164-.07715.18848-.09082.20264a.09969.09969,0,0,1-.07715.021c-.02051,0-.10449,0-.10449-.07715a.4253.4253,0,0,1,.03515-.11865l.41211-1.251c.042-.126.0625-.126.20313-.126h3.585c.11133,0,.1748,0,.1748.084a.40724.40724,0,0,1-.00683.09082l-.21,1.251C174.71289,93.27686,174.69922,93.29785,174.6084,93.29785Z"/>
        <path d="M177.17773,96.5332a.5205.5205,0,0,1-.53027-.55908,1.05022,1.05022,0,0,1,.11133-.44726,6.36341,6.36341,0,0,0,.40527-1.54444c0-.14648-.01367-.46094-.32129-.46094a1.19116,1.19116,0,0,0-.92968.66358,1.3483,1.3483,0,0,0-.19532.48926c-.03515.15381-.07714.30078-.1123.45459l-.29981,1.209a.27908.27908,0,0,1-.25878.19531.18806.18806,0,0,1-.19629-.18164.61972.61972,0,0,1,.01464-.09082l1.03418-4.123s.02051-.09766.02051-.11866c0-.07031-.01367-.11914-.34863-.11914-.09863,0-.168,0-.168-.07666,0-.13281.07715-.13965.16016-.147l.69238-.05566a.57871.57871,0,0,1,.11133-.01416c.05664,0,.09863.021.09863.084,0,0-.01465.06982-.02148.09082l-.50977,2.04053a1.23948,1.23948,0,0,1,.92871-.4541.66085.66085,0,0,1,.72754.72656,6.07266,6.07266,0,0,1-.42676,1.55859,1.751,1.751,0,0,0-.126.52393c0,.09814.00781.20312.15429.20312.40528,0,.59375-.68506.64942-.874.02832-.10449.02832-.11865.11914-.11865.04883,0,.10449,0,.10449.06982C178.06543,95.49219,177.82813,96.5332,177.17773,96.5332Z"/>
      </g>
    </g>
    <rect class="cls-1" x="72" y="21.5" width="55" height="65"/>
    <g>
      <path d="M91.62891,31.74219H86.77148v-.28906h.22364c.71875,0,.7373-.10254.7373-.438V26.10156c0-.33545-.01855-.438-.7373-.438h-.22364v-.28906c.32618.02783,1.05372.02783,1.417.02783.38281,0,1.23144,0,1.5664-.02783v.28906h-.30761c-.88575,0-.88575.13038-.88575.44727v4.96924c0,.30762.01856.37305.457.37305h.76465c1.64063,0,1.77149-1.16553,1.874-2.11622h.2334Z"/>
      <path d="M93.62695,31.71436l-1.02539.02783v-.28906c.625,0,.72754,0,.72754-.41944V28.52588c0-.457-.084-.51318-.69043-.51318v-.28858l1.30567-.10254V31.043c0,.36377.03711.41016.65234.41016v.28906C94.28027,31.73291,93.9541,31.71436,93.62695,31.71436Zm-.0459-5.10938a.49418.49418,0,1,1,.50293-.49414A.503.503,0,0,1,93.58105,26.605Z"/>
      <path d="M98.83105,31.71436l-1.05371.02783v-.28906c.625,0,.72754,0,.72754-.41944V28.86133c0-.53125-.10254-1.03467-.69043-1.03467a1.361,1.361,0,0,0-1.25781,1.4917v1.71533c0,.41944.10254.41944.72656.41944v.28906l-1.04394-.02783-1.05371.02783v-.28906c.625,0,.72754,0,.72754-.41944V28.53516c0-.457-.07422-.52246-.72754-.52246v-.28858L96.5,27.62158v.97852a1.47059,1.47059,0,0,1,1.37988-.97852,1.244,1.244,0,0,1,.9795.34473c.28906.33545.28906.62451.28906,1.42627v1.78076c.00879.27979.24219.27979.72656.27979v.28906Z"/>
      <path d="M102.38574,31.84473a2.10462,2.10462,0,0,1-2.05078-2.15381,2.03715,2.03715,0,0,1,1.93848-2.12549,1.65336,1.65336,0,0,1,1.66894,1.82715c0,.1958-.02734.1958-.23242.1958H101.1084a2.71707,2.71707,0,0,0,.2793,1.39844,1.25641,1.25641,0,0,0,1.05371.625,1.31356,1.31356,0,0,0,1.25879-.96045c.01855-.07471.0371-.13037.12109-.13037a.10806.10806,0,0,1,.12109.11181A1.59254,1.59254,0,0,1,102.38574,31.84473Zm-.1123-4.07422c-.31641,0-1.09961.23291-1.15625,1.62207h2.21C103.32715,29.0293,103.23438,27.77051,102.27344,27.77051Z"/>
      <path d="M107.9541,31.79834a.78044.78044,0,0,1-.72754-.76465,1.291,1.291,0,0,1-1.22168.811c-.58691,0-1.49121-.23291-1.49121-.98828a1.35738,1.35738,0,0,1,.93164-1.21192,4.53563,4.53563,0,0,1,1.71582-.33545v-.34521a1.05583,1.05583,0,0,0-.98828-1.19336,1.31064,1.31064,0,0,0-1.00683.42871.423.423,0,0,1,.47558.4292.42876.42876,0,1,1-.85742-.00928c0-.61572.64258-1.05371,1.40723-1.05371a1.78154,1.78154,0,0,1,1.27734.5127,1.37841,1.37841,0,0,1,.33594,1.10009V31.043c0,.04639.03711.46631.34472.46631.10254,0,.33594-.05615.33594-.59668v-.52246h.23242v.52246A.79157.79157,0,0,1,107.9541,31.79834Zm-.793-2.29346c-1.53808.05567-1.92968.82959-1.92968,1.34229a.80235.80235,0,0,0,.83886.79248,1.11958,1.11958,0,0,0,1.09082-1.20264Z"/>
      <path d="M111.87207,28.6001a.38652.38652,0,0,1-.40137-.40088.40287.40287,0,0,1,.21485-.36328.23628.23628,0,0,0-.10254-.00928c-.709,0-1.10059.82959-1.10059,1.75244v1.436c0,.33545.01856.438.709.438h.19531v.28906c-.373-.02783-.81055-.02783-1.18359-.02783l-1.0625.02783v-.28906c.624,0,.72656,0,.72656-.41944V28.53516c0-.457-.07422-.52246-.72656-.52246v-.28858l1.29589-.10254V28.647a1.30435,1.30435,0,0,1,1.14649-1.02539.63583.63583,0,0,1,.68945.56836A.39128.39128,0,0,1,111.87207,28.6001Z"/>
    </g>
    <g>
      <path d="M88.85059,44.25977a2.06331,2.06331,0,0,1-2.00391-2.11622,2.08922,2.08922,0,0,1,2.02344-2.16308c.71777,0,1.42578.36377,1.42578.99756a.42876.42876,0,1,1-.85742.00927.42059.42059,0,0,1,.43847-.42871,1.52116,1.52116,0,0,0-.998-.34521c-.49414,0-1.25879.3916-1.25879,1.91162,0,1.501.82031,1.90186,1.31445,1.90186a1.21754,1.21754,0,0,0,1.22168-.979c.01855-.05615.03711-.09326.12109-.09326.02832,0,.1211,0,.1211.09326A1.5336,1.5336,0,0,1,88.85059,44.25977Z"/>
      <path d="M92.00391,44.12939l-1.02539.02784v-.28907c.625,0,.72753,0,.72753-.41943V40.94092c0-.457-.084-.51319-.69042-.51319v-.28857l1.30566-.10254V43.458c0,.36377.03711.41015.65234.41015v.28907C92.65723,44.148,92.33105,44.12939,92.00391,44.12939ZM91.958,39.02a.49418.49418,0,1,1,.50293-.49414A.503.503,0,0,1,91.958,39.02Z"/>
      <path d="M96.25684,41.01514a.38575.38575,0,0,1-.40039-.40088.40447.40447,0,0,1,.21386-.36328.23625.23625,0,0,0-.10254-.00928c-.708,0-1.09961.82959-1.09961,1.75244v1.436c0,.33545.01856.438.708.438h.19629v.28907c-.373-.02784-.81152-.02784-1.18457-.02784l-1.0625.02784v-.28907c.625,0,.72754,0,.72754-.41943V40.9502c0-.457-.0752-.52247-.72754-.52247v-.28857l1.2959-.10254V41.062a1.30542,1.30542,0,0,1,1.14648-1.02539.63619.63619,0,0,1,.69043.56836A.392.392,0,0,1,96.25684,41.01514Z"/>
      <path d="M99.24219,44.25977a2.06348,2.06348,0,0,1-2.00489-2.11622,2.08986,2.08986,0,0,1,2.02344-2.16308c.71778,0,1.42676.36377,1.42676.99756a.42924.42924,0,1,1-.8584.00927.42128.42128,0,0,1,.43848-.42871,1.519,1.519,0,0,0-.99707-.34521c-.49414,0-1.25879.3916-1.25879,1.91162,0,1.501.82031,1.90186,1.31445,1.90186a1.21665,1.21665,0,0,0,1.22071-.979c.01953-.05615.03808-.09326.12207-.09326.02734,0,.12109,0,.12109.09326A1.53467,1.53467,0,0,1,99.24219,44.25977Z"/>
      <path d="M104.708,44.25977V43.4209a1.2725,1.2725,0,0,1-1.20313.83887c-1.417,0-1.417-.84864-1.417-1.57569V41.28564c0-.82959,0-.85791-.72754-.85791v-.28857l1.3711-.10254v3.09522c0,.48486.0371.92285.82031.92285.68066,0,1.12793-.63379,1.12793-1.44531V40.9502c0-.457-.07422-.52247-.72754-.52247v-.28857l1.37109-.10254v3.30957c0,.45654.07422.522.72656.522v.28907Z"/>
      <path d="M107.582,44.12939l-1.02539.02784v-.28907c.624,0,.72656,0,.72656-.41943V40.94092c0-.457-.083-.51319-.68945-.51319v-.28857l1.30566-.10254V43.458c0,.36377.03711.41015.65235.41015v.28907C108.23438,44.148,107.9082,44.12939,107.582,44.12939ZM107.53516,39.02a.49419.49419,0,1,1,.5039-.49414A.49851.49851,0,0,1,107.53516,39.02Z"/>
      <path d="M111.01367,44.25977a1.12756,1.12756,0,0,1-1.20215-1.25879V40.42773h-.793v-.20507c.91407-.03711,1.19336-1.03467,1.20313-1.79932h.23242v1.71582h1.334v.28857h-1.334V43.02c0,.1582,0,1.00684.625,1.00684.34473,0,.625-.3545.625-1.04444v-.51269h.23242V43.001C111.93652,43.59766,111.67578,44.25977,111.01367,44.25977Z"/>
    </g>
    <g>
      <path d="M89.72168,53.43945l-1.09082,3.05811c-.03711.09326-.06543.17724-.18652.17724s-.14942-.0747-.18653-.17724l-.95117-2.64746-.94141,2.63818c-.04687.13037-.06543.18652-.18652.18652s-.14941-.0747-.19629-.20507l-1.17383-3.3003c-.1123-.29834-.22461-.32666-.69043-.32666V52.5542l.86719.02783,1.0166-.02783v.28857c-.18652,0-.55078,0-.55078.252a.357.357,0,0,0,.04688.168l.88574,2.48925.80176-2.25634a3.36337,3.36337,0,0,0-.21485-.5127c-.09277-.12109-.24218-.14014-.58691-.14014V52.5542c.2793.01855.5498.02783.83008.02783l.96972-.02783v.28857c-.18652,0-.55078,0-.55078.252a.53488.53488,0,0,0,.04688.17724l.92285,2.60108.84863-2.38672a.41634.41634,0,0,0,.04688-.1958c0-.27051-.20508-.438-.541-.44776V52.5542l.86719.02783c.20508,0,.47558-.00928.68066-.02783v.28857A.78334.78334,0,0,0,89.72168,53.43945Z"/>
      <path d="M92.01855,56.54443l-1.02539.02784V56.2832c.624,0,.72657,0,.72657-.41943V53.356c0-.457-.083-.51319-.68946-.51319V52.5542l1.30567-.10254v3.42139c0,.36377.03711.41015.65234.41015v.28907C92.6709,56.563,92.34473,56.54443,92.01855,56.54443Zm-.04687-5.10937a.49419.49419,0,1,1,.50391-.49414A.49852.49852,0,0,1,91.97168,51.43506Z"/>
      <path d="M95.4502,56.6748A1.12755,1.12755,0,0,1,94.24805,55.416V52.84277h-.793V52.6377c.91406-.03711,1.19336-1.03467,1.20312-1.79932h.23243V52.5542h1.334v.28857h-1.334v2.59229c0,.1582,0,1.00683.625,1.00683.34472,0,.625-.35449.625-1.04443v-.51269h.23242V55.416C96.37305,56.0127,96.1123,56.6748,95.4502,56.6748Z"/>
      <path d="M100.85059,56.54443l-1.05371.02784V56.2832c.625,0,.72753,0,.72753-.41943V53.69141c0-.53125-.10253-1.03467-.69043-1.03467a1.361,1.361,0,0,0-1.25781,1.4917v1.71533c0,.41943.10254.41943.72656.41943v.28907l-1.04394-.02784-1.05371.02784V56.2832c.625,0,.72754,0,.72754-.41943V51.01563c0-.45655-.07422-.522-.72754-.522v-.28906l1.34277-.10254v3.24463h.00977a1.46213,1.46213,0,0,1,1.34179-.895,1.244,1.244,0,0,1,.9795.34473c.28906.33545.28906.62451.28906,1.42627v1.78076c.00879.27978.24219.27978.72656.27978v.28907Z"/>
      <path d="M108.93848,56.62842a.78044.78044,0,0,1-.72754-.76465,1.29006,1.29006,0,0,1-1.22168.811c-.58692,0-1.49121-.23291-1.49121-.98828a1.35737,1.35737,0,0,1,.93164-1.21191,4.5354,4.5354,0,0,1,1.71582-.33545V53.794a1.05583,1.05583,0,0,0-.98828-1.19336,1.31066,1.31066,0,0,0-1.00684.42871.423.423,0,0,1,.47559.4292.42876.42876,0,1,1-.85743-.00928c0-.61572.64258-1.05371,1.40723-1.05371a1.78159,1.78159,0,0,1,1.27735.51269,1.37847,1.37847,0,0,1,.33593,1.1001v1.86475c0,.04638.03711.46631.34473.46631.10254,0,.33594-.05616.33594-.59668v-.52247h.23242v.52247A.79157.79157,0,0,1,108.93848,56.62842Zm-.793-2.29346c-1.53809.05567-1.92969.82959-1.92969,1.34229a.80237.80237,0,0,0,.83887.79248,1.11958,1.11958,0,0,0,1.09082-1.20264Z"/>
      <path d="M111.20605,56.54443l-1.03515.02784V56.2832c.625,0,.72754,0,.72754-.41943V51.01563c0-.45655-.07422-.522-.72754-.522v-.28906l1.34277-.10254v5.76172c0,.41943.10254.41943.72754.41943v.28907Z"/>
      <path d="M113.79883,56.54443l-1.03516.02784V56.2832c.625,0,.72754,0,.72754-.41943V51.01563c0-.45655-.07422-.522-.72754-.522v-.28906l1.34278-.10254v5.76172c0,.41943.10253.41943.72753.41943v.28907Z"/>
    </g>
    <g>
      <path d="M75.95117,68.95947l-1.02539.02783v-.28906c.624,0,.72656,0,.72656-.41943V65.771c0-.457-.083-.5127-.68945-.5127v-.28906l1.30566-.10254v3.42139c0,.36377.03711.41015.65235.41015v.28906C76.60352,68.978,76.27734,68.95947,75.95117,68.95947ZM75.9043,63.8501a.49419.49419,0,1,1,.5039-.49414A.49851.49851,0,0,1,75.9043,63.8501Z"/>
      <path d="M81.15527,68.95947l-1.05371.02783v-.28906c.624,0,.72657,0,.72657-.41943V66.10645c0-.53125-.10254-1.03467-.68946-1.03467a1.36163,1.36163,0,0,0-1.25879,1.4917v1.71533c0,.41943.10254.41943.72754.41943v.28906l-1.04394-.02783-1.05371.02783v-.28906c.624,0,.72656,0,.72656-.41943V65.78027c0-.457-.07422-.522-.72656-.522v-.28906l1.31445-.10254v.97851a1.46964,1.46964,0,0,1,1.37988-.97851,1.23974,1.23974,0,0,1,.97852.34473c.28906.33545.28906.62451.28906,1.42627v1.78076c.00977.27978.24219.27978.72754.27978v.28906Z"/>
      <path d="M85.94043,69.08984v-.61523a1.57678,1.57678,0,0,1-1.25.61523,2.05079,2.05079,0,0,1-1.97656-2.10693A2.10734,2.10734,0,0,1,84.793,64.8667a1.48816,1.48816,0,0,1,1.1748.57764V63.43066c0-.45654-.07422-.522-.72656-.522v-.28906l1.3418-.10254v5.65918c0,.45654.07519.522.72754.522v.28906Zm0-3.11377a.4465.4465,0,0,0-.10254-.34521,1.20908,1.20908,0,0,0-1.00781-.55908,1.27984,1.27984,0,0,0-1.05274.59668,3.20669,3.20669,0,0,0-.01855,2.61963,1.15727,1.15727,0,0,0,.97851.59668,1.29956,1.29956,0,0,0,1.10059-.65284.44487.44487,0,0,0,.10254-.34472Z"/>
      <path d="M89.89551,69.08984a2.10461,2.10461,0,0,1-2.05078-2.1538,2.03728,2.03728,0,0,1,1.93945-2.12549,1.65391,1.65391,0,0,1,1.66895,1.82715c0,.1958-.02833.1958-.2334.1958H88.61816a2.70886,2.70886,0,0,0,.28028,1.39843,1.25376,1.25376,0,0,0,1.05371.625A1.31334,1.31334,0,0,0,91.21,67.89648c.01953-.0747.03809-.13037.12207-.13037a.10849.10849,0,0,1,.1211.11182A1.594,1.594,0,0,1,89.89551,69.08984Zm-.11133-4.07421c-.31738,0-1.10059.23291-1.15625,1.62207h2.21C90.83789,66.27441,90.74414,65.01563,89.78418,65.01563Z"/>
      <path d="M94.50391,69.08984a1.267,1.267,0,0,1-1.14746-.65283V70.0874c0,.41944.10253.41944.72753.41944v.28906l-1.05371-.02783-1.04394.02783v-.28906c.625,0,.72754,0,.72754-.41944V65.72412c0-.41016-.06543-.46582-.72754-.46582v-.28906l1.34277-.10254v.61523a1.68021,1.68021,0,0,1,1.30469-.61523A2.04034,2.04034,0,0,1,96.583,66.97363,2.10107,2.10107,0,0,1,94.50391,69.08984Zm.05566-3.99023a1.3988,1.3988,0,0,0-1.20312.7456v2.07911a.48816.48816,0,0,0,.13085.3916,1.16281,1.16281,0,0,0,.9795.56885c.68945,0,1.34179-.78321,1.34179-1.91114C95.80859,65.91992,95.24023,65.09961,94.55957,65.09961Z"/>
      <path d="M99.22363,69.08984a2.10461,2.10461,0,0,1-2.05078-2.1538,2.03728,2.03728,0,0,1,1.93945-2.12549,1.65391,1.65391,0,0,1,1.66895,1.82715c0,.1958-.02832.1958-.2334.1958H97.94629a2.70894,2.70894,0,0,0,.28027,1.39843,1.25379,1.25379,0,0,0,1.05371.625,1.31335,1.31335,0,0,0,1.25782-.96045c.01953-.0747.03808-.13037.12207-.13037a.10848.10848,0,0,1,.12109.11182A1.594,1.594,0,0,1,99.22363,69.08984Zm-.11133-4.07421c-.31738,0-1.10058.23291-1.15625,1.62207h2.21C100.166,66.27441,100.07227,65.01563,99.1123,65.01563Z"/>
      <path d="M104.99707,68.95947l-1.05371.02783v-.28906c.624,0,.72656,0,.72656-.41943V66.10645c0-.53125-.10254-1.03467-.68945-1.03467a1.36163,1.36163,0,0,0-1.25879,1.4917v1.71533c0,.41943.10254.41943.72754.41943v.28906l-1.04395-.02783-1.05371.02783v-.28906c.624,0,.72657,0,.72657-.41943V65.78027c0-.457-.07422-.522-.72657-.522v-.28906l1.31446-.10254v.97851a1.46963,1.46963,0,0,1,1.37988-.97851,1.23971,1.23971,0,0,1,.97851.34473c.28907.33545.28907.62451.28907,1.42627v1.78076c.00976.27978.24218.27978.72754.27978v.28906Z"/>
      <path d="M109.78223,69.08984v-.61523a1.57472,1.57472,0,0,1-1.249.61523,2.05016,2.05016,0,0,1-1.97656-2.10693,2.10672,2.10672,0,0,1,2.0791-2.11621,1.48967,1.48967,0,0,1,1.17481.57764V63.43066c0-.45654-.0752-.522-.72754-.522v-.28906l1.34277-.10254v5.65918c0,.45654.07422.522.72656.522v.28906Zm0-3.11377a.4465.4465,0,0,0-.10254-.34521,1.20874,1.20874,0,0,0-1.00684-.55908,1.28165,1.28165,0,0,0-1.05371.59668,3.20669,3.20669,0,0,0-.01855,2.61963,1.15883,1.15883,0,0,0,.97949.59668,1.29807,1.29807,0,0,0,1.09961-.65284.44487.44487,0,0,0,.10254-.34472Z"/>
      <path d="M113.73828,69.08984a2.10461,2.10461,0,0,1-2.05078-2.1538,2.03715,2.03715,0,0,1,1.93848-2.12549,1.65336,1.65336,0,0,1,1.66894,1.82715c0,.1958-.02734.1958-.23242.1958h-2.60156a2.71712,2.71712,0,0,0,.27929,1.39843,1.25642,1.25642,0,0,0,1.05372.625,1.31355,1.31355,0,0,0,1.25878-.96045c.01856-.0747.03711-.13037.1211-.13037a.10807.10807,0,0,1,.12109.11182A1.59254,1.59254,0,0,1,113.73828,69.08984Zm-.1123-4.07421c-.31641,0-1.09961.23291-1.15625,1.62207h2.21C114.67969,66.27441,114.58691,65.01563,113.626,65.01563Z"/>
      <path d="M119.51074,68.95947l-1.05371.02783v-.28906c.625,0,.72754,0,.72754-.41943V66.10645c0-.53125-.10254-1.03467-.69043-1.03467a1.361,1.361,0,0,0-1.25781,1.4917v1.71533c0,.41943.10254.41943.72656.41943v.28906l-1.04394-.02783-1.05372.02783v-.28906c.625,0,.72754,0,.72754-.41943V65.78027c0-.457-.07422-.522-.72754-.522v-.28906l1.31446-.10254v.97851a1.4706,1.4706,0,0,1,1.37988-.97851,1.24394,1.24394,0,0,1,.97949.34473c.28907.33545.28907.62451.28907,1.42627v1.78076c.00878.27978.24218.27978.72656.27978v.28906Z"/>
      <path d="M122.92578,69.08984a1.12756,1.12756,0,0,1-1.20215-1.25879V65.2583h-.793v-.20557c.91407-.0371,1.19336-1.03466,1.20313-1.79931h.23242v1.71582h1.334v.28906h-1.334v2.5918c0,.1582,0,1.00683.625,1.00683.34473,0,.625-.35449.625-1.04443v-.5127h.23242v.53125C123.84863,68.42773,123.58789,69.08984,122.92578,69.08984Z"/>
    </g>
    <g>
      <path d="M79.97168,81.50488a1.39375,1.39375,0,0,1-1.02637-.40088,2.56388,2.56388,0,0,0-.18652.21436c-.17676.17725-.18555.18652-.23242.18652-.10254,0-.10254-.06543-.10254-.22363v-1.231c0-.16748,0-.23291.12109-.23291.09278,0,.10254.03711.13086.15869.17676.79248.5127,1.32373,1.2959,1.32373.72656,0,1.05273-.373,1.05273-.84863,0-.6709-.76367-.82031-.96875-.85742a2.45155,2.45155,0,0,1-1.23144-.42871.99608.99608,0,0,1-.40039-.79248c0-.52246.35449-1.147,1.49121-1.147a1.43626,1.43626,0,0,1,.87695.26123,1.23737,1.23737,0,0,0,.15821-.14942c.12109-.11181.13964-.11181.18652-.11181.10254,0,.10254.06543.10254.22363v.94189c0,.17725,0,.22364-.1211.22364,0,0-.10253,0-.1123-.084A1.0285,1.0285,0,0,0,79.915,77.40283c-.80176,0-1.044.38233-1.044.7085,0,.54053.625.66211,1.14649.76465a1.89994,1.89994,0,0,1,1.06347.44726,1.20486,1.20486,0,0,1,.39161.88574C81.47266,80.88037,81.043,81.50488,79.97168,81.50488Z"/>
      <path d="M84.1123,81.50488a2.08037,2.08037,0,0,1-2.05957-2.09765,2.06807,2.06807,0,1,1,4.12989,0A2.07707,2.07707,0,0,1,84.1123,81.50488ZM85.166,78.03662a1.22179,1.22179,0,0,0-1.05372-.606,1.252,1.252,0,0,0-1.0625.62452,2.67522,2.67522,0,0,0-.22363,1.27734,2.76962,2.76962,0,0,0,.2334,1.31445,1.216,1.216,0,0,0,1.0625.625,1.20274,1.20274,0,0,0,1.08106-.68994,2.83258,2.83258,0,0,0,.20507-1.24951A2.56147,2.56147,0,0,0,85.166,78.03662Z"/>
      <path d="M90.10059,81.50488V80.666a1.27219,1.27219,0,0,1-1.20215.83886c-1.418,0-1.418-.84863-1.418-1.57568V78.53076c0-.82959,0-.85791-.72656-.85791v-.28857l1.37011-.10254v3.09521c0,.48487.03711.92285.82032.92285.68066,0,1.12793-.63378,1.12793-1.44531V78.19531c0-.457-.07422-.52246-.72657-.52246v-.28857l1.37012-.10254v3.30957c0,.45654.0752.522.72754.522v.28906Z"/>
      <path d="M94.63379,78.26025a.38574.38574,0,0,1-.40039-.40087.40449.40449,0,0,1,.21387-.36329.23652.23652,0,0,0-.10254-.00927c-.708,0-1.09961.82959-1.09961,1.75244v1.436c0,.33545.01855.438.708.438h.19628v.28906c-.373-.02783-.81152-.02783-1.18457-.02783l-1.0625.02783v-.28906c.625,0,.72754,0,.72754-.41943V78.19531c0-.457-.07519-.52246-.72754-.52246v-.28857l1.2959-.10254v1.02539a1.30542,1.30542,0,0,1,1.14649-1.02539.63619.63619,0,0,1,.69043.56836A.392.392,0,0,1,94.63379,78.26025Z"/>
      <path d="M97.61914,81.50488a2.06331,2.06331,0,0,1-2.00391-2.11621,2.08923,2.08923,0,0,1,2.02344-2.16308c.71778,0,1.42578.36377,1.42578.99755a.42876.42876,0,1,1-.85742.00928.42059.42059,0,0,1,.43848-.42871,1.52111,1.52111,0,0,0-.99805-.34521c-.49414,0-1.25879.3916-1.25879,1.91162,0,1.501.82031,1.90185,1.31446,1.90185a1.21752,1.21752,0,0,0,1.22167-.979c.01856-.05615.03711-.09326.1211-.09326.02832,0,.12109,0,.12109.09326A1.5336,1.5336,0,0,1,97.61914,81.50488Z"/>
      <path d="M101.75195,81.50488a2.10461,2.10461,0,0,1-2.05078-2.15381,2.03715,2.03715,0,0,1,1.93848-2.12548,1.65335,1.65335,0,0,1,1.66894,1.82714c0,.19581-.02734.19581-.23242.19581h-2.60156a2.717,2.717,0,0,0,.2793,1.39843,1.25639,1.25639,0,0,0,1.05371.625,1.31356,1.31356,0,0,0,1.25879-.96045c.01855-.0747.03711-.13037.12109-.13037a.10807.10807,0,0,1,.12109.11182A1.59255,1.59255,0,0,1,101.75195,81.50488Zm-.1123-4.07422c-.31641,0-1.09961.23291-1.15527,1.62207h2.209C102.69336,78.68945,102.60059,77.43066,101.63965,77.43066Z"/>
      <path d="M105.43652,81.50488a1.39372,1.39372,0,0,1-1.02636-.40088,2.56333,2.56333,0,0,0-.18653.21436c-.17675.17725-.18554.18652-.23242.18652-.10254,0-.10254-.06543-.10254-.22363v-1.231c0-.16748,0-.23291.1211-.23291.09277,0,.10253.03711.13086.15869.17675.79248.51269,1.32373,1.29589,1.32373.72657,0,1.05274-.373,1.05274-.84863,0-.6709-.76367-.82031-.96875-.85742a2.45156,2.45156,0,0,1-1.23145-.42871.99611.99611,0,0,1-.40039-.79248c0-.52246.35449-1.147,1.49121-1.147a1.43629,1.43629,0,0,1,.877.26123,1.23729,1.23729,0,0,0,.1582-.14942c.12109-.11181.13965-.11181.18652-.11181.10254,0,.10254.06543.10254.22363v.94189c0,.17725,0,.22364-.12109.22364,0,0-.10254,0-.11231-.084a1.0285,1.0285,0,0,0-1.09082-1.12793c-.80175,0-1.04394.38233-1.04394.7085,0,.54053.625.66211,1.14648.76465a1.9,1.9,0,0,1,1.06348.44726,1.20486,1.20486,0,0,1,.3916.88574C106.9375,80.88037,106.50781,81.50488,105.43652,81.50488Z"/>
      <path d="M112.68359,81.50488a2.08037,2.08037,0,0,1-2.05957-2.09765,2.06807,2.06807,0,1,1,4.12989,0A2.07707,2.07707,0,0,1,112.68359,81.50488Zm1.05371-3.46826a1.22176,1.22176,0,0,0-1.05371-.606,1.252,1.252,0,0,0-1.0625.62452,2.67522,2.67522,0,0,0-.22363,1.27734,2.76962,2.76962,0,0,0,.2334,1.31445,1.216,1.216,0,0,0,1.0625.625,1.20272,1.20272,0,0,0,1.08105-.68994,2.83246,2.83246,0,0,0,.20508-1.24951A2.56138,2.56138,0,0,0,113.7373,78.03662Z"/>
      <path d="M120.47168,75.89258a.38688.38688,0,0,1-.40137-.40088.408.408,0,0,1,.28028-.3916.75366.75366,0,0,0-.3086-.06543c-.41894,0-.86621.438-.86621,1.26806v1.08155h1.09961v.28857h-1.07226v3.00244c0,.33545.01855.438.709.438h.19531v.28906c-.373-.02783-.81054-.02783-1.18359-.02783l-1.0625.02783v-.28906c.624,0,.72656,0,.72656-.41943v-3.021h-1.958v3.021c0,.41943.10254.41943.72754.41943v.28906l-1.03515-.02783-1.03418.02783v-.28906c.624,0,.72656,0,.72656-.41943v-3.021h-.73633v-.28857h.73633v-1.063c0-1.00684,1.082-1.4917,1.96777-1.4917a1.35867,1.35867,0,0,1,1.04395.3916,1.66071,1.66071,0,0,1,1.00683-.3916c.52246,0,.84864.31689.84864.65234A.38676.38676,0,0,1,120.47168,75.89258Zm-2.499-.85791a1.30205,1.30205,0,0,0-1.37012,1.2959v1.05371h1.98535V76.312a1.23643,1.23643,0,0,1,.02832-.31689.37745.37745,0,0,1-.26172-.37305.40106.40106,0,0,1,.33594-.41016A1.35685,1.35685,0,0,0,117.97266,75.03467Z"/>
    </g>
    <circle class="cls-1" cx="149.5" cy="4" r="3"/>
    <path id="path1132-2" data-name="path1132" class="cls-1" d="M146.5,104h-47V86.5"/>
    <circle class="cls-1" cx="149.5" cy="104" r="3"/>
    <polyline class="cls-1" points="99.5 21.5 99.5 4 132.5 4 146.5 4"/>
    <g>
      <polyline class="cls-2" points="164.5 81 164.5 54 147.585 54"/>
      <polygon class="cls-3" points="150.898 49.91 151.58 50.643 147.968 53.999 151.58 57.356 150.898 58.089 146.5 53.999 150.898 49.91"/>
    </g>
    <g>
      <path d="M168.40234,92.46045H162.0332c-.26367,0-.38379,0-.38379-.312a.41558.41558,0,0,1,.09571-.31153l4.79785-7.04H164.9834c-1.67871,0-2.48242.73144-2.57813,2.32666h-.56347l.14355-2.89063h6.165c.252,0,.38379,0,.38379.2998a.36366.36366,0,0,1-.09668.28809l-4.78516,7.02783H165.332c2.458,0,2.626-1.46289,2.72168-2.79443h.56445Z"/>
      <path d="M174.6084,93.29785c-.03516,0-.10449,0-.10449-.09082a.71268.71268,0,0,1,.01367-.105,3.3775,3.3775,0,0,0,.07031-.62891c0-.4331-.16113-.53125-.88769-.53125a2.60938,2.60938,0,0,0-.36329.01416c-.05664.00684-.1123.021-.16113.23047l-.93652,3.75977a.42589.42589,0,0,0-.02832.13281c0,.09766.03515.126.23144.147.02051,0,.23731.01368.34864.01368h.10546c.1045,0,.17481,0,.17481.07714,0,.13965-.084.13965-.14746.13965-.35645,0-.7334-.021-1.09668-.021-.35645,0-.72656.021-1.083.021-.03516,0-.11914,0-.11914-.084,0-.13281.07715-.13281.19531-.13281h.11231c.61523,0,.67773-.06983.74023-.31446l.93653-3.75293a.51791.51791,0,0,0,.02832-.15332c0-.04931,0-.07715-.16114-.07715h-.2373c-.90137,0-1.09668.147-1.42578,1.13233-.06934.18164-.07715.18848-.09082.20264a.09969.09969,0,0,1-.07715.021c-.02051,0-.10449,0-.10449-.07715a.4253.4253,0,0,1,.03515-.11865l.41211-1.251c.042-.126.0625-.126.20313-.126h3.585c.11133,0,.1748,0,.1748.084a.40724.40724,0,0,1-.00683.09082l-.21,1.251C174.71289,93.27686,174.69922,93.29785,174.6084,93.29785Z"/>
      <path d="M177.17773,96.5332a.5205.5205,0,0,1-.53027-.55908,1.05022,1.05022,0,0,1,.11133-.44726,6.36341,6.36341,0,0,0,.40527-1.54444c0-.14648-.01367-.46094-.32129-.46094a1.19116,1.19116,0,0,0-.92968.66358,1.3483,1.3483,0,0,0-.19532.48926c-.03515.15381-.07714.30078-.1123.45459l-.29981,1.209a.27908.27908,0,0,1-.25878.19531.18806.18806,0,0,1-.19629-.18164.61972.61972,0,0,1,.01464-.09082l1.03418-4.123s.02051-.09766.02051-.11866c0-.07031-.01367-.11914-.34863-.11914-.09863,0-.168,0-.168-.07666,0-.13281.07715-.13965.16016-.147l.69238-.05566a.57871.57871,0,0,1,.11133-.01416c.05664,0,.09863.021.09863.084,0,0-.01465.06982-.02148.09082l-.50977,2.04053a1.23948,1.23948,0,0,1,.92871-.4541.66085.66085,0,0,1,.72754.72656,6.07266,6.07266,0,0,1-.42676,1.55859,1.751,1.751,0,0,0-.126.52393c0,.09814.00781.20312.15429.20312.40528,0,.59375-.68506.64942-.874.02832-.10449.02832-.11865.11914-.11865.04883,0,.10449,0,.10449.06982C178.06543,95.49219,177.82813,96.5332,177.17773,96.5332Z"/>
    </g>
  </g>
  <g>
    <g>
      <rect class="cls-1" x="207.48438" y="34.5" width="31.07813" height="39"/>
      <circle class="cls-1" cx="270.02344" cy="19" r="3"/>
      <path id="path1132-3" data-name="path1132" class="cls-1" d="M267.02344,89h-44V73.5"/>
      <circle class="cls-1" cx="270.02344" cy="89" r="3"/>
      <polyline class="cls-1" points="223.023 34.5 223.023 19 253.023 19 267.023 19"/>
      <g>
        <g>
          <path d="M215.15234,51.07227h-4.85742V50.7832h.22363c.71875,0,.73731-.10254.73731-.438V45.43164c0-.33545-.01856-.438-.73731-.438h-.22363v-.28906c.32617.02783,1.05371.02783,1.417.02783.38282,0,1.23145,0,1.56641-.02783v.28906h-.30762c-.88574,0-.88574.13037-.88574.44727v4.96924c0,.30761.01856.373.457.373h.76465c1.64063,0,1.77149-1.16552,1.874-2.11621h.2334Z"/>
          <path d="M217.15039,51.04443l-1.02539.02784V50.7832c.625,0,.72754,0,.72754-.41943V47.856c0-.457-.084-.51319-.69043-.51319V47.0542l1.30566-.10254v3.42139c0,.36377.03711.41015.65235.41015v.28907C217.80371,51.063,217.47754,51.04443,217.15039,51.04443Zm-.0459-5.10937a.49418.49418,0,1,1,.50293-.49414A.503.503,0,0,1,217.10449,45.93506Z"/>
          <path d="M222.35449,51.04443l-1.05371.02784V50.7832c.625,0,.72754,0,.72754-.41943V48.19141c0-.53125-.10254-1.03467-.69043-1.03467a1.361,1.361,0,0,0-1.25781,1.4917v1.71533c0,.41943.10254.41943.72656.41943v.28907l-1.04394-.02784-1.05372.02784V50.7832c.625,0,.72754,0,.72754-.41943V47.86523c0-.457-.07422-.52246-.72754-.52246V47.0542l1.31446-.10254v.97852a1.47059,1.47059,0,0,1,1.37988-.97852,1.244,1.244,0,0,1,.97949.34473c.28907.33545.28907.62451.28907,1.42627v1.78076c.00878.27978.24218.27978.72656.27978v.28907Z"/>
          <path d="M225.90918,51.1748a2.10461,2.10461,0,0,1-2.05078-2.1538,2.03715,2.03715,0,0,1,1.93848-2.12549,1.65336,1.65336,0,0,1,1.66894,1.82715c0,.1958-.02734.1958-.23242.1958h-2.60156a2.71712,2.71712,0,0,0,.27929,1.39843,1.25641,1.25641,0,0,0,1.05371.625,1.31356,1.31356,0,0,0,1.25879-.96044c.01856-.07471.03711-.13038.1211-.13038a.10807.10807,0,0,1,.12109.11182A1.59254,1.59254,0,0,1,225.90918,51.1748Zm-.1123-4.07421c-.31641,0-1.09961.23291-1.15625,1.62207h2.21C226.85059,48.35938,226.75781,47.10059,225.79688,47.10059Z"/>
          <path d="M231.47754,51.12842a.78044.78044,0,0,1-.72754-.76465,1.291,1.291,0,0,1-1.22168.811c-.58691,0-1.49121-.23291-1.49121-.98828a1.35737,1.35737,0,0,1,.93164-1.21191,4.5354,4.5354,0,0,1,1.71582-.33545V48.294a1.05583,1.05583,0,0,0-.98828-1.19336,1.31068,1.31068,0,0,0-1.00684.42871.423.423,0,0,1,.47559.4292.42876.42876,0,1,1-.85742-.00928c0-.61572.64258-1.05371,1.40722-1.05371a1.78157,1.78157,0,0,1,1.27735.51269,1.37844,1.37844,0,0,1,.33594,1.1001v1.86475c0,.04638.0371.46631.34472.46631.10254,0,.33594-.05616.33594-.59668v-.52247h.23242v.52247A.79157.79157,0,0,1,231.47754,51.12842Zm-.793-2.29346c-1.53809.05567-1.92969.82959-1.92969,1.34229a.80237.80237,0,0,0,.83887.79248,1.11958,1.11958,0,0,0,1.09082-1.20264Z"/>
          <path d="M235.39551,47.93018a.38652.38652,0,0,1-.40137-.40088.40287.40287,0,0,1,.21484-.36328.23619.23619,0,0,0-.10253-.00928c-.709,0-1.10059.82959-1.10059,1.75244v1.436c0,.33545.01855.438.709.438h.19532v.28907c-.373-.02784-.81055-.02784-1.1836-.02784l-1.0625.02784V50.7832c.624,0,.72657,0,.72657-.41943V47.86523c0-.457-.07422-.52246-.72657-.52246V47.0542l1.2959-.10254v1.02539a1.30434,1.30434,0,0,1,1.14649-1.02539.63583.63583,0,0,1,.68945.56836A.39128.39128,0,0,1,235.39551,47.93018Z"/>
        </g>
        <g>
          <path d="M212.374,62.1748a2.0633,2.0633,0,0,1-2.0039-2.11621,2.08922,2.08922,0,0,1,2.02343-2.16308c.71778,0,1.42579.36377,1.42579.99756a.42876.42876,0,1,1-.85743.00927.42059.42059,0,0,1,.43848-.42871,1.52117,1.52117,0,0,0-.998-.34521c-.49414,0-1.25879.3916-1.25879,1.91162,0,1.501.82032,1.90185,1.31446,1.90185a1.21753,1.21753,0,0,0,1.22168-.979c.01855-.05615.03711-.09326.12109-.09326.02832,0,.1211,0,.1211.09326A1.53361,1.53361,0,0,1,212.374,62.1748Z"/>
          <path d="M215.52734,62.04443l-1.02539.02784V61.7832c.625,0,.72754,0,.72754-.41943V58.856c0-.457-.084-.51319-.69043-.51319V58.0542l1.30567-.10254v3.42139c0,.36377.03711.41015.65234.41015v.28907C216.18066,62.063,215.85449,62.04443,215.52734,62.04443Zm-.04589-5.10937a.49418.49418,0,1,1,.50293-.49414A.503.503,0,0,1,215.48145,56.93506Z"/>
          <path d="M219.78027,58.93018a.38576.38576,0,0,1-.40039-.40088.40447.40447,0,0,1,.21387-.36328.23625.23625,0,0,0-.10254-.00928c-.708,0-1.09961.82959-1.09961,1.75244v1.436c0,.33545.01856.438.708.438h.19629v.28907c-.373-.02784-.81152-.02784-1.18457-.02784l-1.0625.02784V61.7832c.625,0,.72754,0,.72754-.41943V58.86523c0-.457-.0752-.52246-.72754-.52246V58.0542l1.2959-.10254v1.02539a1.30542,1.30542,0,0,1,1.14648-1.02539.63619.63619,0,0,1,.69043.56836A.392.392,0,0,1,219.78027,58.93018Z"/>
          <path d="M222.76563,62.1748a2.06346,2.06346,0,0,1-2.00489-2.11621,2.08986,2.08986,0,0,1,2.02344-2.16308c.71777,0,1.42676.36377,1.42676.99756a.42924.42924,0,1,1-.8584.00927.42128.42128,0,0,1,.43848-.42871,1.519,1.519,0,0,0-.99707-.34521c-.49415,0-1.25879.3916-1.25879,1.91162,0,1.501.82031,1.90185,1.31445,1.90185a1.21662,1.21662,0,0,0,1.2207-.979c.01953-.05615.03809-.09326.12207-.09326.02735,0,.1211,0,.1211.09326A1.53466,1.53466,0,0,1,222.76563,62.1748Z"/>
          <path d="M228.23145,62.1748v-.83886a1.27251,1.27251,0,0,1-1.20313.83886c-1.417,0-1.417-.84863-1.417-1.57568V59.20068c0-.82959,0-.85791-.72754-.85791V58.0542l1.37109-.10254v3.09522c0,.48486.03711.92285.82032.92285.68066,0,1.12793-.63379,1.12793-1.44532V58.86523c0-.457-.07422-.52246-.72754-.52246V58.0542l1.37109-.10254v3.30957c0,.45654.07422.522.72656.522v.28907Z"/>
          <path d="M231.10547,62.04443l-1.02539.02784V61.7832c.624,0,.72656,0,.72656-.41943V58.856c0-.457-.083-.51319-.68945-.51319V58.0542l1.30566-.10254v3.42139c0,.36377.03711.41015.65235.41015v.28907C231.75781,62.063,231.43164,62.04443,231.10547,62.04443Zm-.04688-5.10937a.49419.49419,0,1,1,.50391-.49414A.49852.49852,0,0,1,231.05859,56.93506Z"/>
          <path d="M234.53711,62.1748A1.12755,1.12755,0,0,1,233.335,60.916V58.34277h-.793V58.1377c.91406-.03711,1.19336-1.03467,1.20313-1.79932h.23242V58.0542h1.334v.28857h-1.334v2.59229c0,.1582,0,1.00683.625,1.00683.34473,0,.625-.35449.625-1.04443v-.51269H235.46V60.916C235.46,61.5127,235.19922,62.1748,234.53711,62.1748Z"/>
        </g>
      </g>
    </g>
    <g>
      <line class="cls-1" x1="270.02344" y1="22" x2="270.02344" y2="24.5"/>
      <line class="cls-4" x1="270.02344" y1="29.86364" x2="270.02344" y2="80.81818"/>
      <line class="cls-1" x1="270.02344" y1="83.5" x2="270.02344" y2="86"/>
    </g>
    <line class="cls-5" x1="280.44285" y1="19" x2="285.44285" y2="19"/>
    <line class="cls-5" x1="282.94285" y1="21.5" x2="282.94286" y2="16.5"/>
    <line class="cls-5" x1="280.02344" y1="89" x2="285.02344" y2="89"/>
    <g>
      <path d="M286.27637,50.79688c-.876,0-.92383.10791-.9961.26367l-3.18945,7.208a.424.424,0,0,1-.48047.28809c-.33594,0-.38379-.09619-.47949-.312l-3.31055-7.44775h-1.10254v-.564c.419.03613,1.42676.03613,1.89453.03613.51563,0,1.667,0,2.123-.03613v.564h-1.12793l2.55469,5.74462,2.42285-5.457a.51494.51494,0,0,0,.04785-.144c0-.14355-.94726-.14355-1.05566-.14355v-.564c.46777.03613,1.0918.03613,1.57129.03613l1.35547-.03613v.564Z"/>
      <path d="M289.124,59.29785c-.03515,0-.10547,0-.10547-.09082a.71218.71218,0,0,1,.01368-.105,3.3775,3.3775,0,0,0,.07031-.62891c0-.4331-.16113-.53125-.8877-.53125a2.61667,2.61667,0,0,0-.36328.01416c-.05566.00684-.11133.021-.16113.23047l-.93555,3.75977a.42589.42589,0,0,0-.02832.13281c0,.09766.03516.126.23047.147.02149,0,.23731.01368.34961.01368h.10449c.10547,0,.17481,0,.17481.07714,0,.13965-.084.13965-.14649.13965-.35644,0-.73437-.021-1.09765-.021-.35645,0-.72657.021-1.083.021-.03516,0-.11914,0-.11914-.084,0-.13281.07715-.13281.19629-.13281h.11133c.61523,0,.67773-.06983.74121-.31446l.93652-3.75293a.5508.5508,0,0,0,.02734-.15332c0-.04931,0-.07715-.16015-.07715h-.23731c-.90234,0-1.09765.147-1.42578,1.13233-.07031.18164-.07715.18848-.09082.20264a.10077.10077,0,0,1-.07715.021c-.02148,0-.10449,0-.10449-.07715a.4349.4349,0,0,1,.03418-.11865l.41309-1.251c.042-.126.0625-.126.20214-.126h3.585c.1123,0,.1748,0,.1748.084a.40666.40666,0,0,1-.00684.09082l-.21,1.251C289.22852,59.27686,289.21484,59.29785,289.124,59.29785Z"/>
      <path d="M291.69336,62.5332a.5205.5205,0,0,1-.53027-.55908,1.05017,1.05017,0,0,1,.11132-.44726,6.3634,6.3634,0,0,0,.40528-1.54444c0-.14648-.01367-.46094-.32129-.46094a1.19118,1.19118,0,0,0-.92969.66358,1.34829,1.34829,0,0,0-.19531.48926c-.03516.15381-.07715.30078-.11231.45459l-.2998,1.209a.2791.2791,0,0,1-.25879.19531.18807.18807,0,0,1-.19629-.18164.6186.6186,0,0,1,.01465-.09082l1.03418-4.123s.02051-.09766.02051-.11866c0-.07031-.01367-.11914-.34864-.11914-.09863,0-.168,0-.168-.07666,0-.13281.07714-.13965.16015-.147l.69238-.05566a.57871.57871,0,0,1,.11133-.01416c.05664,0,.09864.021.09864.084,0,0-.01465.06982-.02149.09082l-.50976,2.04053a1.23945,1.23945,0,0,1,.92871-.4541.66085.66085,0,0,1,.72754.72656,6.07266,6.07266,0,0,1-.42676,1.55859,1.75075,1.75075,0,0,0-.126.52393c0,.09814.00781.20312.1543.20312.40527,0,.59375-.68506.64941-.874.02832-.10449.02832-.11865.11914-.11865.04883,0,.10449,0,.10449.06982C292.58105,61.49219,292.34375,62.5332,291.69336,62.5332Z"/>
    </g>
    <polyline class="cls-6" points="265.023 47 265.023 61 262.023 58"/>
    <g>
      <path d="M250.02051,58.42432c-.55176,0-1.72754,0-2.21875.03613V57.897H249.169V50.79688h-1.36719v-.564c.49121.03613,1.667.03613,2.21875.03613.55078,0,1.72656,0,2.21875-.03613v.564h-1.36719V57.897h1.36719v.56348C251.74707,58.42432,250.57129,58.42432,250.02051,58.42432Z"/>
      <path d="M254.07031,62.5332c-.49609,0-.90136-.25146-.90136-.67773,0-.31445.19531-.43311.35644-.43311a.21661.21661,0,0,1,.23731.22364.35787.35787,0,0,1-.35645.34228.66284.66284,0,0,0,.6709.3916.83617.83617,0,0,0,.9082-.78271c0-.37744-.31445-.44727-.62207-.51758a.68276.68276,0,0,1-.64941-.67773,1.06026,1.06026,0,0,1,1.10351-1.03418c.46192,0,.748.27246.748.59375,0,.30078-.18164.38476-.30078.38476a.18909.18909,0,0,1-.209-.1958.30526.30526,0,0,1,.2793-.28662.50424.50424,0,0,0-.52441-.34229.67607.67607,0,0,0-.70508.64258c0,.30078.251.35645.44726.39844.28614.063.83106.189.83106.79688A1.233,1.233,0,0,1,254.07031,62.5332Z"/>
      <path d="M257.29492,62.5332a1.03514,1.03514,0,0,1-1.02734-1.15283,2.05032,2.05032,0,0,1,1.76758-2.01269c.44726,0,.748.2583.748.60107a.37607.37607,0,0,1-.35644.419.2199.2199,0,0,1-.23731-.22364.35957.35957,0,0,1,.34961-.34228.51008.51008,0,0,0-.49609-.3003,1.163,1.163,0,0,0-.916.69873,4.02437,4.02437,0,0,0-.37011,1.43946c0,.40576.1748.72021.55175.72021a1.6467,1.6467,0,0,0,1.25782-.68506c.05664-.06982.06347-.07666.09082-.07666a.14072.14072,0,0,1,.1123.11133A1.73186,1.73186,0,0,1,257.29492,62.5332Z"/>
    </g>
  </g>
  <g>
    <rect class="cls-1" x="322" y="21.5" width="55" height="65"/>
    <g>
      <path d="M341.62891,31.74219h-4.85743v-.28906h.22364c.71875,0,.7373-.10254.7373-.438V26.10156c0-.33545-.01855-.438-.7373-.438h-.22364v-.28906c.32618.02783,1.05372.02783,1.417.02783.38281,0,1.23144,0,1.5664-.02783v.28906h-.30761c-.88575,0-.88575.13038-.88575.44727v4.96924c0,.30762.01856.37305.457.37305h.76465c1.64063,0,1.77149-1.16553,1.874-2.11622h.2334Z"/>
      <path d="M343.627,31.71436l-1.02539.02783v-.28906c.625,0,.72754,0,.72754-.41944V28.52588c0-.457-.084-.51318-.69043-.51318v-.28858l1.30567-.10254V31.043c0,.36377.03711.41016.65234.41016v.28906C344.28027,31.73291,343.9541,31.71436,343.627,31.71436Zm-.0459-5.10938a.49418.49418,0,1,1,.50293-.49414A.503.503,0,0,1,343.58105,26.605Z"/>
      <path d="M348.83105,31.71436l-1.05371.02783v-.28906c.625,0,.72754,0,.72754-.41944V28.86133c0-.53125-.10254-1.03467-.69043-1.03467a1.361,1.361,0,0,0-1.25781,1.4917v1.71533c0,.41944.10254.41944.72656.41944v.28906l-1.04394-.02783-1.05371.02783v-.28906c.625,0,.72754,0,.72754-.41944V28.53516c0-.457-.07422-.52246-.72754-.52246v-.28858L346.5,27.62158v.97852a1.47059,1.47059,0,0,1,1.37988-.97852,1.244,1.244,0,0,1,.9795.34473c.28906.33545.28906.62451.28906,1.42627v1.78076c.00879.27979.24219.27979.72656.27979v.28906Z"/>
      <path d="M352.38574,31.84473a2.10462,2.10462,0,0,1-2.05078-2.15381,2.03715,2.03715,0,0,1,1.93848-2.12549,1.65336,1.65336,0,0,1,1.66894,1.82715c0,.1958-.02734.1958-.23242.1958H351.1084a2.71707,2.71707,0,0,0,.2793,1.39844,1.25641,1.25641,0,0,0,1.05371.625,1.31356,1.31356,0,0,0,1.25879-.96045c.01855-.07471.0371-.13037.12109-.13037a.10806.10806,0,0,1,.12109.11181A1.59254,1.59254,0,0,1,352.38574,31.84473Zm-.1123-4.07422c-.31641,0-1.09961.23291-1.15625,1.62207h2.21C353.32715,29.0293,353.23438,27.77051,352.27344,27.77051Z"/>
      <path d="M357.9541,31.79834a.78044.78044,0,0,1-.72754-.76465,1.291,1.291,0,0,1-1.22168.811c-.58691,0-1.49121-.23291-1.49121-.98828a1.35738,1.35738,0,0,1,.93164-1.21192,4.53563,4.53563,0,0,1,1.71582-.33545v-.34521a1.05583,1.05583,0,0,0-.98828-1.19336,1.31064,1.31064,0,0,0-1.00683.42871.423.423,0,0,1,.47558.4292.42876.42876,0,1,1-.85742-.00928c0-.61572.64258-1.05371,1.40723-1.05371a1.78154,1.78154,0,0,1,1.27734.5127,1.37841,1.37841,0,0,1,.33594,1.10009V31.043c0,.04639.03711.46631.34472.46631.10254,0,.33594-.05615.33594-.59668v-.52246h.23242v.52246A.79157.79157,0,0,1,357.9541,31.79834Zm-.793-2.29346c-1.53808.05567-1.92968.82959-1.92968,1.34229a.80235.80235,0,0,0,.83886.79248,1.11958,1.11958,0,0,0,1.09082-1.20264Z"/>
      <path d="M361.87207,28.6001a.38652.38652,0,0,1-.40137-.40088.40287.40287,0,0,1,.21485-.36328.23628.23628,0,0,0-.10254-.00928c-.709,0-1.10059.82959-1.10059,1.75244v1.436c0,.33545.01856.438.709.438h.19531v.28906c-.37305-.02783-.81055-.02783-1.18359-.02783l-1.0625.02783v-.28906c.624,0,.72656,0,.72656-.41944V28.53516c0-.457-.07422-.52246-.72656-.52246v-.28858l1.29589-.10254V28.647a1.30435,1.30435,0,0,1,1.14649-1.02539.63583.63583,0,0,1,.68945.56836A.39128.39128,0,0,1,361.87207,28.6001Z"/>
    </g>
    <g>
      <path d="M338.85059,44.25977a2.06331,2.06331,0,0,1-2.00391-2.11622,2.08922,2.08922,0,0,1,2.02344-2.16308c.71777,0,1.42578.36377,1.42578.99756a.42876.42876,0,1,1-.85742.00927.42059.42059,0,0,1,.43847-.42871,1.52116,1.52116,0,0,0-.998-.34521c-.49414,0-1.25879.3916-1.25879,1.91162,0,1.501.82031,1.90186,1.31445,1.90186a1.21754,1.21754,0,0,0,1.22168-.979c.01855-.05615.03711-.09326.12109-.09326.02832,0,.1211,0,.1211.09326A1.5336,1.5336,0,0,1,338.85059,44.25977Z"/>
      <path d="M342.00391,44.12939l-1.02539.02784v-.28907c.625,0,.72753,0,.72753-.41943V40.94092c0-.457-.084-.51319-.69042-.51319v-.28857l1.30566-.10254V43.458c0,.36377.03711.41015.65234.41015v.28907C342.65723,44.148,342.33105,44.12939,342.00391,44.12939ZM341.958,39.02a.49418.49418,0,1,1,.50293-.49414A.503.503,0,0,1,341.958,39.02Z"/>
      <path d="M346.25684,41.01514a.38575.38575,0,0,1-.40039-.40088.40447.40447,0,0,1,.21386-.36328.23625.23625,0,0,0-.10254-.00928c-.708,0-1.09961.82959-1.09961,1.75244v1.436c0,.33545.01856.438.708.438h.19629v.28907c-.37305-.02784-.81152-.02784-1.18457-.02784l-1.0625.02784v-.28907c.625,0,.72754,0,.72754-.41943V40.9502c0-.457-.0752-.52247-.72754-.52247v-.28857l1.2959-.10254V41.062a1.30542,1.30542,0,0,1,1.14648-1.02539.63619.63619,0,0,1,.69043.56836A.392.392,0,0,1,346.25684,41.01514Z"/>
      <path d="M349.24219,44.25977a2.06348,2.06348,0,0,1-2.00489-2.11622,2.08986,2.08986,0,0,1,2.02344-2.16308c.71778,0,1.42676.36377,1.42676.99756a.42924.42924,0,1,1-.8584.00927.42128.42128,0,0,1,.43848-.42871,1.519,1.519,0,0,0-.99707-.34521c-.49414,0-1.25879.3916-1.25879,1.91162,0,1.501.82031,1.90186,1.31445,1.90186a1.21665,1.21665,0,0,0,1.22071-.979c.01953-.05615.03808-.09326.12207-.09326.02734,0,.12109,0,.12109.09326A1.53467,1.53467,0,0,1,349.24219,44.25977Z"/>
      <path d="M354.708,44.25977V43.4209a1.2725,1.2725,0,0,1-1.20313.83887c-1.417,0-1.417-.84864-1.417-1.57569V41.28564c0-.82959,0-.85791-.72754-.85791v-.28857l1.3711-.10254v3.09522c0,.48486.0371.92285.82031.92285.68066,0,1.12793-.63379,1.12793-1.44531V40.9502c0-.457-.07422-.52247-.72754-.52247v-.28857l1.37109-.10254v3.30957c0,.45654.07422.522.72656.522v.28907Z"/>
      <path d="M357.582,44.12939l-1.02539.02784v-.28907c.624,0,.72656,0,.72656-.41943V40.94092c0-.457-.083-.51319-.68945-.51319v-.28857l1.30566-.10254V43.458c0,.36377.03711.41015.65235.41015v.28907C358.23438,44.148,357.9082,44.12939,357.582,44.12939ZM357.53516,39.02a.49419.49419,0,1,1,.5039-.49414A.49851.49851,0,0,1,357.53516,39.02Z"/>
      <path d="M361.01367,44.25977a1.12756,1.12756,0,0,1-1.20215-1.25879V40.42773h-.793v-.20507c.91407-.03711,1.19336-1.03467,1.20313-1.79932h.23242v1.71582h1.334v.28857h-1.334V43.02c0,.1582,0,1.00684.625,1.00684.34473,0,.625-.3545.625-1.04444v-.51269h.23242V43.001C361.93652,43.59766,361.67578,44.25977,361.01367,44.25977Z"/>
    </g>
    <g>
      <path d="M339.72168,53.43945l-1.09082,3.05811c-.03711.09326-.06543.17724-.18652.17724s-.14942-.0747-.18653-.17724l-.95117-2.64746-.94141,2.63818c-.04687.13037-.06543.18652-.18652.18652s-.14941-.0747-.19629-.20507l-1.17383-3.3003c-.1123-.29834-.22461-.32666-.69043-.32666V52.5542l.86719.02783,1.0166-.02783v.28857c-.18652,0-.55078,0-.55078.252a.357.357,0,0,0,.04688.168l.88574,2.48925.80176-2.25634a3.36337,3.36337,0,0,0-.21485-.5127c-.09277-.12109-.24218-.14014-.58691-.14014V52.5542c.2793.01855.5498.02783.83008.02783l.96972-.02783v.28857c-.18652,0-.55078,0-.55078.252a.53488.53488,0,0,0,.04688.17724l.92285,2.60108.84863-2.38672a.41634.41634,0,0,0,.04688-.1958c0-.27051-.20508-.438-.541-.44776V52.5542l.86719.02783c.20508,0,.47558-.00928.68066-.02783v.28857A.78334.78334,0,0,0,339.72168,53.43945Z"/>
      <path d="M342.01855,56.54443l-1.02539.02784V56.2832c.624,0,.72657,0,.72657-.41943V53.356c0-.457-.083-.51319-.68946-.51319V52.5542l1.30567-.10254v3.42139c0,.36377.03711.41015.65234.41015v.28907C342.6709,56.563,342.34473,56.54443,342.01855,56.54443Zm-.04687-5.10937a.49419.49419,0,1,1,.50391-.49414A.49852.49852,0,0,1,341.97168,51.43506Z"/>
      <path d="M345.4502,56.6748a1.12755,1.12755,0,0,1-1.20215-1.25878V52.84277h-.793V52.6377c.91406-.03711,1.19336-1.03467,1.20312-1.79932h.23243V52.5542h1.334v.28857h-1.334v2.59229c0,.1582,0,1.00683.625,1.00683.34472,0,.625-.35449.625-1.04443v-.51269h.23242V55.416C346.37305,56.0127,346.1123,56.6748,345.4502,56.6748Z"/>
      <path d="M350.85059,56.54443l-1.05371.02784V56.2832c.625,0,.72753,0,.72753-.41943V53.69141c0-.53125-.10253-1.03467-.69043-1.03467a1.361,1.361,0,0,0-1.25781,1.4917v1.71533c0,.41943.10254.41943.72656.41943v.28907l-1.04394-.02784-1.05371.02784V56.2832c.625,0,.72754,0,.72754-.41943V51.01563c0-.45655-.07422-.522-.72754-.522v-.28906l1.34277-.10254v3.24463h.00977a1.46213,1.46213,0,0,1,1.34179-.895,1.244,1.244,0,0,1,.9795.34473c.28906.33545.28906.62451.28906,1.42627v1.78076c.00879.27978.24219.27978.72656.27978v.28907Z"/>
      <path d="M358.93848,56.62842a.78044.78044,0,0,1-.72754-.76465,1.29006,1.29006,0,0,1-1.22168.811c-.58692,0-1.49121-.23291-1.49121-.98828a1.35737,1.35737,0,0,1,.93164-1.21191,4.5354,4.5354,0,0,1,1.71582-.33545V53.794a1.05583,1.05583,0,0,0-.98828-1.19336,1.31066,1.31066,0,0,0-1.00684.42871.423.423,0,0,1,.47559.4292.42876.42876,0,1,1-.85743-.00928c0-.61572.64258-1.05371,1.40723-1.05371a1.78159,1.78159,0,0,1,1.27735.51269,1.37847,1.37847,0,0,1,.33593,1.1001v1.86475c0,.04638.03711.46631.34473.46631.10254,0,.33594-.05616.33594-.59668v-.52247h.23242v.52247A.79157.79157,0,0,1,358.93848,56.62842Zm-.793-2.29346c-1.53809.05567-1.92969.82959-1.92969,1.34229a.80237.80237,0,0,0,.83887.79248,1.11958,1.11958,0,0,0,1.09082-1.20264Z"/>
      <path d="M361.20605,56.54443l-1.03515.02784V56.2832c.625,0,.72754,0,.72754-.41943V51.01563c0-.45655-.07422-.522-.72754-.522v-.28906l1.34277-.10254v5.76172c0,.41943.10254.41943.72754.41943v.28907Z"/>
      <path d="M363.79883,56.54443l-1.03516.02784V56.2832c.625,0,.72754,0,.72754-.41943V51.01563c0-.45655-.07422-.522-.72754-.522v-.28906l1.34278-.10254v5.76172c0,.41943.10253.41943.72753.41943v.28907Z"/>
    </g>
    <g>
      <path d="M325.95117,68.95947l-1.02539.02783v-.28906c.624,0,.72656,0,.72656-.41943V65.771c0-.457-.083-.5127-.68945-.5127v-.28906l1.30566-.10254v3.42139c0,.36377.03711.41015.65235.41015v.28906C326.60352,68.978,326.27734,68.95947,325.95117,68.95947Zm-.04687-5.10937a.49419.49419,0,1,1,.5039-.49414A.49851.49851,0,0,1,325.9043,63.8501Z"/>
      <path d="M331.15527,68.95947l-1.05371.02783v-.28906c.624,0,.72657,0,.72657-.41943V66.10645c0-.53125-.10254-1.03467-.68946-1.03467a1.36163,1.36163,0,0,0-1.25879,1.4917v1.71533c0,.41943.10254.41943.72754.41943v.28906l-1.04394-.02783-1.05371.02783v-.28906c.624,0,.72656,0,.72656-.41943V65.78027c0-.457-.07422-.522-.72656-.522v-.28906l1.31445-.10254v.97851a1.46964,1.46964,0,0,1,1.37988-.97851,1.23974,1.23974,0,0,1,.97852.34473c.28906.33545.28906.62451.28906,1.42627v1.78076c.00977.27978.24219.27978.72754.27978v.28906Z"/>
      <path d="M335.94043,69.08984v-.61523a1.57678,1.57678,0,0,1-1.25.61523,2.05079,2.05079,0,0,1-1.97656-2.10693,2.10734,2.10734,0,0,1,2.0791-2.11621,1.48816,1.48816,0,0,1,1.1748.57764V63.43066c0-.45654-.07422-.522-.72656-.522v-.28906l1.3418-.10254v5.65918c0,.45654.07519.522.72754.522v.28906Zm0-3.11377a.4465.4465,0,0,0-.10254-.34521,1.20908,1.20908,0,0,0-1.00781-.55908,1.27984,1.27984,0,0,0-1.05274.59668,3.20669,3.20669,0,0,0-.01855,2.61963,1.15727,1.15727,0,0,0,.97851.59668,1.29956,1.29956,0,0,0,1.10059-.65284.44487.44487,0,0,0,.10254-.34472Z"/>
      <path d="M339.89551,69.08984a2.10461,2.10461,0,0,1-2.05078-2.1538,2.03728,2.03728,0,0,1,1.93945-2.12549,1.65391,1.65391,0,0,1,1.66895,1.82715c0,.1958-.02833.1958-.2334.1958h-2.60157a2.70886,2.70886,0,0,0,.28028,1.39843,1.25376,1.25376,0,0,0,1.05371.625,1.31334,1.31334,0,0,0,1.25781-.96045c.01953-.0747.03809-.13037.12207-.13037a.10849.10849,0,0,1,.1211.11182A1.594,1.594,0,0,1,339.89551,69.08984Zm-.11133-4.07421c-.31738,0-1.10059.23291-1.15625,1.62207h2.21C340.83789,66.27441,340.74414,65.01563,339.78418,65.01563Z"/>
      <path d="M344.50391,69.08984a1.267,1.267,0,0,1-1.14746-.65283V70.0874c0,.41944.10253.41944.72753.41944v.28906l-1.05371-.02783-1.04394.02783v-.28906c.625,0,.72754,0,.72754-.41944V65.72412c0-.41016-.06543-.46582-.72754-.46582v-.28906l1.34277-.10254v.61523a1.68021,1.68021,0,0,1,1.30469-.61523,2.04034,2.04034,0,0,1,1.94922,2.10693A2.10107,2.10107,0,0,1,344.50391,69.08984Zm.05566-3.99023a1.3988,1.3988,0,0,0-1.20312.7456v2.07911a.48816.48816,0,0,0,.13085.3916,1.16281,1.16281,0,0,0,.9795.56885c.68945,0,1.34179-.78321,1.34179-1.91114C345.80859,65.91992,345.24023,65.09961,344.55957,65.09961Z"/>
      <path d="M349.22363,69.08984a2.10461,2.10461,0,0,1-2.05078-2.1538,2.03728,2.03728,0,0,1,1.93945-2.12549,1.65391,1.65391,0,0,1,1.66895,1.82715c0,.1958-.02832.1958-.2334.1958h-2.60156a2.70894,2.70894,0,0,0,.28027,1.39843,1.25379,1.25379,0,0,0,1.05371.625,1.31335,1.31335,0,0,0,1.25782-.96045c.01953-.0747.03808-.13037.12207-.13037a.10848.10848,0,0,1,.12109.11182A1.594,1.594,0,0,1,349.22363,69.08984Zm-.11133-4.07421c-.31738,0-1.10058.23291-1.15625,1.62207h2.21C350.166,66.27441,350.07227,65.01563,349.1123,65.01563Z"/>
      <path d="M354.99707,68.95947l-1.05371.02783v-.28906c.624,0,.72656,0,.72656-.41943V66.10645c0-.53125-.10254-1.03467-.68945-1.03467a1.36163,1.36163,0,0,0-1.25879,1.4917v1.71533c0,.41943.10254.41943.72754.41943v.28906l-1.044-.02783-1.05371.02783v-.28906c.624,0,.72657,0,.72657-.41943V65.78027c0-.457-.07422-.522-.72657-.522v-.28906l1.31446-.10254v.97851a1.46963,1.46963,0,0,1,1.37988-.97851,1.23971,1.23971,0,0,1,.97851.34473c.28907.33545.28907.62451.28907,1.42627v1.78076c.00976.27978.24218.27978.72754.27978v.28906Z"/>
      <path d="M359.78223,69.08984v-.61523a1.57472,1.57472,0,0,1-1.249.61523,2.05016,2.05016,0,0,1-1.97656-2.10693,2.10672,2.10672,0,0,1,2.0791-2.11621,1.48967,1.48967,0,0,1,1.17481.57764V63.43066c0-.45654-.0752-.522-.72754-.522v-.28906l1.34277-.10254v5.65918c0,.45654.07422.522.72656.522v.28906Zm0-3.11377a.4465.4465,0,0,0-.10254-.34521,1.20874,1.20874,0,0,0-1.00684-.55908,1.28165,1.28165,0,0,0-1.05371.59668,3.20669,3.20669,0,0,0-.01855,2.61963,1.15883,1.15883,0,0,0,.97949.59668,1.29807,1.29807,0,0,0,1.09961-.65284.44487.44487,0,0,0,.10254-.34472Z"/>
      <path d="M363.73828,69.08984a2.10461,2.10461,0,0,1-2.05078-2.1538,2.03715,2.03715,0,0,1,1.93848-2.12549,1.65336,1.65336,0,0,1,1.66894,1.82715c0,.1958-.02734.1958-.23242.1958h-2.60156a2.71712,2.71712,0,0,0,.27929,1.39843,1.25642,1.25642,0,0,0,1.05372.625,1.31355,1.31355,0,0,0,1.25878-.96045c.01856-.0747.03711-.13037.1211-.13037a.10807.10807,0,0,1,.12109.11182A1.59254,1.59254,0,0,1,363.73828,69.08984Zm-.1123-4.07421c-.31641,0-1.09961.23291-1.15625,1.62207h2.21C364.67969,66.27441,364.58691,65.01563,363.626,65.01563Z"/>
      <path d="M369.51074,68.95947l-1.05371.02783v-.28906c.625,0,.72754,0,.72754-.41943V66.10645c0-.53125-.10254-1.03467-.69043-1.03467a1.361,1.361,0,0,0-1.25781,1.4917v1.71533c0,.41943.10254.41943.72656.41943v.28906l-1.04394-.02783-1.05372.02783v-.28906c.625,0,.72754,0,.72754-.41943V65.78027c0-.457-.07422-.522-.72754-.522v-.28906l1.31446-.10254v.97851a1.4706,1.4706,0,0,1,1.37988-.97851,1.24394,1.24394,0,0,1,.97949.34473c.28907.33545.28907.62451.28907,1.42627v1.78076c.00878.27978.24218.27978.72656.27978v.28906Z"/>
      <path d="M372.92578,69.08984a1.12756,1.12756,0,0,1-1.20215-1.25879V65.2583h-.793v-.20557c.91407-.0371,1.19336-1.03466,1.20313-1.79931h.23242v1.71582h1.334v.28906h-1.334v2.5918c0,.1582,0,1.00683.625,1.00683.34473,0,.625-.35449.625-1.04443v-.5127h.23242v.53125C373.84863,68.42773,373.58789,69.08984,372.92578,69.08984Z"/>
    </g>
    <g>
      <path d="M329.97168,81.50488a1.39375,1.39375,0,0,1-1.02637-.40088,2.56388,2.56388,0,0,0-.18652.21436c-.17676.17725-.18555.18652-.23242.18652-.10254,0-.10254-.06543-.10254-.22363v-1.231c0-.16748,0-.23291.12109-.23291.09278,0,.10254.03711.13086.15869.17676.79248.5127,1.32373,1.2959,1.32373.72656,0,1.05273-.373,1.05273-.84863,0-.6709-.76367-.82031-.96875-.85742a2.45155,2.45155,0,0,1-1.23144-.42871.99608.99608,0,0,1-.40039-.79248c0-.52246.35449-1.147,1.49121-1.147a1.43626,1.43626,0,0,1,.877.26123,1.23737,1.23737,0,0,0,.15821-.14942c.12109-.11181.13964-.11181.18652-.11181.10254,0,.10254.06543.10254.22363v.94189c0,.17725,0,.22364-.1211.22364,0,0-.10253,0-.1123-.084a1.0285,1.0285,0,0,0-1.09082-1.12793c-.80176,0-1.04395.38233-1.04395.7085,0,.54053.625.66211,1.14649.76465a1.89994,1.89994,0,0,1,1.06347.44726,1.20486,1.20486,0,0,1,.39161.88574C331.47266,80.88037,331.043,81.50488,329.97168,81.50488Z"/>
      <path d="M334.1123,81.50488a2.08037,2.08037,0,0,1-2.05957-2.09765,2.06807,2.06807,0,1,1,4.12989,0A2.07707,2.07707,0,0,1,334.1123,81.50488Zm1.05372-3.46826a1.22179,1.22179,0,0,0-1.05372-.606,1.252,1.252,0,0,0-1.0625.62452,2.67522,2.67522,0,0,0-.22363,1.27734,2.76962,2.76962,0,0,0,.2334,1.31445,1.216,1.216,0,0,0,1.0625.625,1.20274,1.20274,0,0,0,1.08106-.68994,2.83258,2.83258,0,0,0,.20507-1.24951A2.56147,2.56147,0,0,0,335.166,78.03662Z"/>
      <path d="M340.10059,81.50488V80.666a1.27219,1.27219,0,0,1-1.20215.83886c-1.418,0-1.418-.84863-1.418-1.57568V78.53076c0-.82959,0-.85791-.72656-.85791v-.28857l1.37011-.10254v3.09521c0,.48487.03711.92285.82032.92285.68066,0,1.12793-.63378,1.12793-1.44531V78.19531c0-.457-.07422-.52246-.72657-.52246v-.28857l1.37012-.10254v3.30957c0,.45654.0752.522.72754.522v.28906Z"/>
      <path d="M344.63379,78.26025a.38574.38574,0,0,1-.40039-.40087.40449.40449,0,0,1,.21387-.36329.23652.23652,0,0,0-.10254-.00927c-.708,0-1.09961.82959-1.09961,1.75244v1.436c0,.33545.01855.438.708.438h.19628v.28906c-.373-.02783-.81152-.02783-1.18457-.02783l-1.0625.02783v-.28906c.625,0,.72754,0,.72754-.41943V78.19531c0-.457-.07519-.52246-.72754-.52246v-.28857l1.2959-.10254v1.02539a1.30542,1.30542,0,0,1,1.14649-1.02539.63619.63619,0,0,1,.69043.56836A.392.392,0,0,1,344.63379,78.26025Z"/>
      <path d="M347.61914,81.50488a2.06331,2.06331,0,0,1-2.00391-2.11621,2.08923,2.08923,0,0,1,2.02344-2.16308c.71778,0,1.42578.36377,1.42578.99755a.42876.42876,0,1,1-.85742.00928.42059.42059,0,0,1,.43848-.42871,1.52111,1.52111,0,0,0-.998-.34521c-.49414,0-1.25879.3916-1.25879,1.91162,0,1.501.82031,1.90185,1.31446,1.90185a1.21752,1.21752,0,0,0,1.22167-.979c.01856-.05615.03711-.09326.1211-.09326.02832,0,.12109,0,.12109.09326A1.5336,1.5336,0,0,1,347.61914,81.50488Z"/>
      <path d="M351.752,81.50488a2.10461,2.10461,0,0,1-2.05078-2.15381,2.03715,2.03715,0,0,1,1.93848-2.12548,1.65335,1.65335,0,0,1,1.66894,1.82714c0,.19581-.02734.19581-.23242.19581h-2.60156a2.717,2.717,0,0,0,.2793,1.39843,1.25639,1.25639,0,0,0,1.05371.625,1.31356,1.31356,0,0,0,1.25879-.96045c.01855-.0747.03711-.13037.12109-.13037a.10807.10807,0,0,1,.12109.11182A1.59255,1.59255,0,0,1,351.752,81.50488Zm-.1123-4.07422c-.31641,0-1.09961.23291-1.15527,1.62207h2.209C352.69336,78.68945,352.60059,77.43066,351.63965,77.43066Z"/>
      <path d="M355.43652,81.50488a1.39372,1.39372,0,0,1-1.02636-.40088,2.56333,2.56333,0,0,0-.18653.21436c-.17675.17725-.18554.18652-.23242.18652-.10254,0-.10254-.06543-.10254-.22363v-1.231c0-.16748,0-.23291.1211-.23291.09277,0,.10253.03711.13086.15869.17675.79248.51269,1.32373,1.29589,1.32373.72657,0,1.05274-.373,1.05274-.84863,0-.6709-.76367-.82031-.96875-.85742a2.45156,2.45156,0,0,1-1.23145-.42871.99611.99611,0,0,1-.40039-.79248c0-.52246.35449-1.147,1.49121-1.147a1.43629,1.43629,0,0,1,.877.26123,1.23729,1.23729,0,0,0,.1582-.14942c.12109-.11181.13965-.11181.18652-.11181.10254,0,.10254.06543.10254.22363v.94189c0,.17725,0,.22364-.12109.22364,0,0-.10254,0-.11231-.084a1.0285,1.0285,0,0,0-1.09082-1.12793c-.80175,0-1.04394.38233-1.04394.7085,0,.54053.625.66211,1.14648.76465a1.9,1.9,0,0,1,1.06348.44726,1.20486,1.20486,0,0,1,.3916.88574C356.9375,80.88037,356.50781,81.50488,355.43652,81.50488Z"/>
      <path d="M362.68359,81.50488a2.08037,2.08037,0,0,1-2.05957-2.09765,2.06807,2.06807,0,1,1,4.12989,0A2.07707,2.07707,0,0,1,362.68359,81.50488Zm1.05371-3.46826a1.22176,1.22176,0,0,0-1.05371-.606,1.252,1.252,0,0,0-1.0625.62452,2.67522,2.67522,0,0,0-.22363,1.27734,2.76962,2.76962,0,0,0,.2334,1.31445,1.216,1.216,0,0,0,1.0625.625,1.20272,1.20272,0,0,0,1.08105-.68994,2.83246,2.83246,0,0,0,.20508-1.24951A2.56138,2.56138,0,0,0,363.7373,78.03662Z"/>
      <path d="M370.47168,75.89258a.38688.38688,0,0,1-.40137-.40088.408.408,0,0,1,.28028-.3916.75366.75366,0,0,0-.3086-.06543c-.41894,0-.86621.438-.86621,1.26806v1.08155h1.09961v.28857h-1.07226v3.00244c0,.33545.01855.438.709.438h.19531v.28906c-.373-.02783-.81054-.02783-1.18359-.02783l-1.0625.02783v-.28906c.624,0,.72656,0,.72656-.41943v-3.021h-1.958v3.021c0,.41943.10254.41943.72754.41943v.28906l-1.03515-.02783-1.03418.02783v-.28906c.624,0,.72656,0,.72656-.41943v-3.021h-.73633v-.28857h.73633v-1.063c0-1.00684,1.082-1.4917,1.96777-1.4917a1.35867,1.35867,0,0,1,1.04395.3916,1.66071,1.66071,0,0,1,1.00683-.3916c.52246,0,.84864.31689.84864.65234A.38676.38676,0,0,1,370.47168,75.89258Zm-2.499-.85791a1.30205,1.30205,0,0,0-1.37012,1.2959v1.05371h1.98535V76.312a1.23643,1.23643,0,0,1,.02832-.31689.37745.37745,0,0,1-.26172-.37305.40106.40106,0,0,1,.33594-.41016A1.35685,1.35685,0,0,0,367.97266,75.03467Z"/>
    </g>
    <circle class="cls-1" cx="399.5" cy="4" r="3"/>
    <path id="path1132-4" data-name="path1132" class="cls-1" d="M396.5,104h-47V86.5"/>
    <circle class="cls-1" cx="399.5" cy="104" r="3"/>
    <polyline class="cls-1" points="349.5 21.5 349.5 4 382.5 4 396.5 4"/>
    <circle class="cls-7" cx="399.5" cy="54" r="12.5"/>
    <polyline class="cls-7" points="399.5 41 399.5 29 399.5 7"/>
    <polyline class="cls-7" points="399.5 67 399.5 79 399.5 101"/>
    <path id="path1901" class="cls-7" d="M392.5,54a3.5,3.5,0,0,1,7,0,3.5,3.5,0,0,0,7,0"/>
    <g>
      <g>
        <path d="M433.61719,56.31738c-.875,0-.92285.1084-.99512.26367l-3.19043,7.208a.42245.42245,0,0,1-.47949.28809c-.33594,0-.38379-.0957-.47949-.31152l-3.31055-7.44825h-1.10352v-.56347c.41993.03613,1.42774.03613,1.89551.03613.51563,0,1.667,0,2.12305-.03613v.56347h-1.12793l2.55469,5.74512,2.42285-5.457a.513.513,0,0,0,.04785-.14453c0-.14356-.94727-.14356-1.05566-.14356v-.56347c.46777.03613,1.09179.03613,1.57128.03613l1.35547-.03613v.56347Z"/>
        <path d="M441.75684,64.11328a2.6769,2.6769,0,0,1-2.65039-2.69824,2.66028,2.66028,0,1,1,5.3125,0A2.672,2.672,0,0,1,441.75684,64.11328Zm1.35546-4.46191a1.57186,1.57186,0,0,0-1.35546-.7793,1.61005,1.61005,0,0,0-1.36719.80371,3.43335,3.43335,0,0,0-.28809,1.64258,3.56986,3.56986,0,0,0,.29981,1.69141,1.5677,1.5677,0,0,0,1.36718.80371,1.54731,1.54731,0,0,0,1.39161-.8877,3.6462,3.6462,0,0,0,.26367-1.60742A3.2954,3.2954,0,0,0,443.1123,59.65137Z"/>
        <path d="M448.62012,59.93945a.49676.49676,0,0,1-.51563-.51562.51948.51948,0,0,1,.27637-.46778.31112.31112,0,0,0-.13184-.01171c-.91211,0-1.416,1.06738-1.416,2.2539V63.0459c0,.43164.02441.56348.91211.56348h.252v.37207c-.48047-.03614-1.04394-.03614-1.52344-.03614l-1.36718.03614v-.37207c.80371,0,.93554,0,.93554-.54V59.85547c0-.58789-.0957-.67188-.93554-.67188V58.8125l1.667-.13281V59.999a1.67973,1.67973,0,0,1,1.47558-1.31933.81829.81829,0,0,1,.88672.73242A.50363.50363,0,0,1,448.62012,59.93945Z"/>
        <path d="M456.085,63.94531c-.55176,0-1.72656,0-2.21875.03614V63.418h1.36719V56.31738h-1.36719v-.56347c.49219.03613,1.667.03613,2.21875.03613s1.72754,0,2.21875-.03613v.56347h-1.36719V63.418h1.36719v.56348C457.8125,63.94531,456.63672,63.94531,456.085,63.94531Z"/>
      </g>
      <g>
        <path d="M423.19141,50.54c-.45606,0-1.2959,0-1.72754.03613v-.37109c.32422,0,.99609,0,.99609-.36035a.86082.86082,0,0,0-.03613-.168l-.63574-1.835H418.8252l-.55176,1.57129a.8341.8341,0,0,0-.02344.17968c0,.31153.2998.61231.89941.61231v.37109l-1.3789-.03613-1.22363.03613v-.37109a1.24914,1.24914,0,0,0,1.34375-.80371l2.48242-7.17285c.05957-.167.0957-.23926.28711-.23926.19238,0,.21679.084.27636.23926l2.59082,7.49609c.13184.39648.29981.48047,1.01954.48047h.21582v.37109Zm-2.89063-6.96777L418.958,47.46973h2.69824Z"/>
        <path d="M429.0127,46.53418a.49676.49676,0,0,1-.51563-.51563.521.521,0,0,1,.27637-.46777.3109.3109,0,0,0-.13184-.01172c-.91211,0-1.416,1.06739-1.416,2.25489v1.84668c0,.43164.02441.56445.91211.56445h.252v.37109c-.48047-.03613-1.04395-.03613-1.52344-.03613l-1.36719.03613v-.37109c.80371,0,.93555,0,.93555-.54V46.4502c0-.58692-.0957-.6709-.93555-.6709v-.37207l1.667-.13184v1.31934a1.67971,1.67971,0,0,1,1.47558-1.31934.8176.8176,0,0,1,.88672.73145A.50363.50363,0,0,1,429.0127,46.53418Z"/>
        <path d="M433.44141,50.708a1.88608,1.88608,0,0,1-1.57129-.875l-.43164.74316h-.29981V43.42871c0-.58789-.0957-.67187-.93554-.67187v-.37207l1.72656-.13184v3.80176a2.133,2.133,0,0,1,1.64355-.7793,2.63827,2.63827,0,0,1,2.543,2.71A2.70306,2.70306,0,0,1,433.44141,50.708Zm1.33105-4.40137a1.49066,1.49066,0,0,0-1.25879-.76758,1.73138,1.73138,0,0,0-1.416.76758.52347.52347,0,0,0-.13184.43164V49.209a.65465.65465,0,0,0,.168.50391,1.48276,1.48276,0,0,0,1.25976.73145,1.64523,1.64523,0,0,0,1.3545-.76758,4.12619,4.12619,0,0,0,.02441-3.37012Z"/>
        <path d="M438.25391,50.54l-1.31934.03613v-.37109c.80371,0,.93555,0,.93555-.54V46.43848c0-.58789-.10742-.65918-.8877-.65918v-.37207l1.67969-.13184v4.40137c0,.46777.04785.52832.83887.52832v.37109C439.09375,50.56445,438.67383,50.54,438.25391,50.54Zm-.05957-6.57227a.63579.63579,0,1,1,.64746-.63574A.64721.64721,0,0,1,438.19434,43.96777Z"/>
        <path d="M442.66992,50.708a1.451,1.451,0,0,1-1.54785-1.61914V45.7793h-1.01953v-.26367c1.17578-.04883,1.53516-1.332,1.54785-2.31543h.29981v2.207H443.665v.37207H441.9502v3.334c0,.2041,0,1.29492.80371,1.29492.44336,0,.80273-.45507.80273-1.34277v-.66016h.29981v.6836C443.85645,49.85645,443.52148,50.708,442.66992,50.708Z"/>
        <path d="M448.39258,46.53418a.49677.49677,0,0,1-.51563-.51563.521.521,0,0,1,.27637-.46777.31087.31087,0,0,0-.13184-.01172c-.9121,0-1.416,1.06739-1.416,2.25489v1.84668c0,.43164.02441.56445.91211.56445h.25195v.37109c-.48047-.03613-1.04394-.03613-1.52344-.03613l-1.36718.03613v-.37109c.80371,0,.93554,0,.93554-.54V46.4502c0-.58692-.0957-.6709-.93554-.6709v-.37207l1.667-.13184v1.31934a1.67972,1.67972,0,0,1,1.47558-1.31934.8176.8176,0,0,1,.88672.73145A.50363.50363,0,0,1,448.39258,46.53418Z"/>
        <path d="M454.05664,50.64844a1.00423,1.00423,0,0,1-.93555-.9834,1.65937,1.65937,0,0,1-1.57129,1.043c-.75585,0-1.91894-.29981-1.91894-1.27051a1.74767,1.74767,0,0,1,1.19922-1.55957,5.8509,5.8509,0,0,1,2.207-.43164V47.002a1.35823,1.35823,0,0,0-1.27148-1.53515,1.686,1.686,0,0,0-1.29493.55175c.55176.0127.61133.40821.61133.55176a.55182.55182,0,1,1-1.10351-.01172c0-.792.82812-1.35546,1.81152-1.35546a2.29031,2.29031,0,0,1,1.64258.66015,1.77345,1.77345,0,0,1,.43164,1.415v2.39844c0,.06054.04785.59961.44433.59961.13184,0,.43164-.07129.43164-.76758v-.67188H455.04v.67188A1.01839,1.01839,0,0,1,454.05664,50.64844Zm-1.01953-2.9502c-1.97949.07129-2.48242,1.06739-2.48242,1.72656a1.03239,1.03239,0,0,0,1.0791,1.01954,1.44,1.44,0,0,0,1.40332-1.54688Z"/>
        <path d="M459.09668,46.53418a.49677.49677,0,0,1-.51563-.51563.521.521,0,0,1,.27637-.46777.31084.31084,0,0,0-.13183-.01172c-.91211,0-1.416,1.06739-1.416,2.25489v1.84668c0,.43164.02441.56445.91211.56445h.252v.37109c-.48047-.03613-1.04394-.03613-1.52343-.03613l-1.36719.03613v-.37109c.80371,0,.93554,0,.93554-.54V46.4502c0-.58692-.0957-.6709-.93554-.6709v-.37207l1.667-.13184v1.31934a1.67973,1.67973,0,0,1,1.47559-1.31934.8176.8176,0,0,1,.88671.73145A.50363.50363,0,0,1,459.09668,46.53418Z"/>
        <path d="M464.92871,46.54688,462.81738,51.668c-.28808.68359-.77929,1.36719-1.53515,1.36719a1.04789,1.04789,0,0,1-1.10352-.97168.504.504,0,1,1,.54.49218.81655.81655,0,0,0,.56348.21582c.76757,0,1.10351-.82812,1.36718-1.4873l.29981-.708-1.79883-4.377c-.168-.41992-.39551-.41992-.97168-.41992v-.37207c.36035.02441.83984.03613,1.16406.03613l1.30664-.03613v.37207c-.22753,0-.67089,0-.67089.31152a.70359.70359,0,0,0,.07128.21582l1.33106,3.22656,1.21191-2.95019a.57188.57188,0,0,0,.07227-.28809c0-.2998-.19238-.5039-.56445-.51562v-.37207l1.04394.03613c.27539,0,.62305-.01172.89942-.03613v.37207A1.12848,1.12848,0,0,0,464.92871,46.54688Z"/>
      </g>
    </g>
  </g>
</svg>
