<svg id="Layer_1" data-name="Layer 1" xmlns="http://www.w3.org/2000/svg" viewBox="0 0 503.33333 129">
  <defs>
    <style>
      .cls-1, .cls-2, .cls-3, .cls-5, .cls-6, .cls-7, .cls-8 {
        fill: none;
      }

      .cls-1, .cls-2, .cls-3, .cls-4, .cls-5, .cls-6, .cls-7, .cls-8 {
        stroke: #000;
      }

      .cls-1, .cls-2 {
        stroke-linecap: round;
      }

      .cls-1 {
        stroke-linejoin: round;
      }

      .cls-1, .cls-2, .cls-3, .cls-4, .cls-6 {
        stroke-width: 2px;
      }

      .cls-3, .cls-5 {
        stroke-linecap: square;
      }

      .cls-5 {
        stroke-width: 1.5px;
      }

      .cls-6, .cls-8 {
        stroke-miterlimit: 10;
      }

      .cls-7 {
        stroke-width: 0.5px;
      }

      .cls-8 {
        stroke-width: 3px;
      }
    </style>
  </defs>
  <title>TransformerDotConvention</title>
  <g>
    <g>
      <polyline class="cls-1" points="69 35.255 69 25.255 98.02 25.255 109 25.255"/>
      <g>
        <path d="M20.85579,10.22949A.89768.89768,0,0,1,19.94417,9.27,2.17115,2.17115,0,0,1,20.16,8.44238l.44385-1.187.35986-.9956a2.76676,2.76676,0,0,0,.21582-.86329c0-.27587-.13183-.33593-.26367-.33593-.6958,0-1.00781,1.11523-1.11572,1.51123-.04785.16748-.06006.19189-.21582.19189-.06006,0-.17969,0-.17969-.12012,0-.06005.40772-1.84716,1.53516-1.84716a.88434.88434,0,0,1,.89941.95947,1.68091,1.68091,0,0,1-.144.67187l-.76758,2.05079a4.07064,4.07064,0,0,0-.312,1.15136c0,.32373.168.33594.26416.33594.6958,0,1.01953-1.15137,1.11523-1.499.04786-.18018.04786-.2041.20411-.2041.084,0,.17968,0,.17968.12011C22.37874,8.43066,21.98324,10.22949,20.85579,10.22949Zm1.07911-6.7041a.5103.5103,0,0,1-.53955-.51562.81449.81449,0,0,1,.76757-.75586.50955.50955,0,0,1,.53955.51562A.8145.8145,0,0,1,21.9349,3.52539Z" transform="translate(-2)"/>
        <path d="M23.889,14.07275c-.2793,0-.88721,0-1.13184.021V13.877h.22363c.62891,0,.64991-.08349.64991-.33545V9.92139a2.09,2.09,0,0,1-.91553.18213v-.2168a1.72718,1.72718,0,0,0,1.272-.44727c.16065,0,.16065.01368.16065.18164V13.5415c0,.25879.021.33545.6499.33545h.22363v.2168C24.77669,14.07275,24.16878,14.07275,23.889,14.07275Z" transform="translate(-2)"/>
      </g>
      <path class="cls-1" d="M43,51.33846a4.45834,4.45834,0,0,0,0-8.91667V25.25513H3" transform="translate(-2)"/>
      <path class="cls-2" d="M43,60.25513a4.45834,4.45834,0,0,0,0-8.91667" transform="translate(-2)"/>
      <path class="cls-2" d="M43,60.25513a4.45833,4.45833,0,0,1,0,8.91666" transform="translate(-2)"/>
      <path class="cls-1" d="M43,69.17179a4.45834,4.45834,0,0,1,0,8.91667V95.25513H3" transform="translate(-2)"/>
      <polyline class="cls-3" points="13 21.255 27 21.255 24 18.255"/>
      <g>
        <path class="cls-1" d="M71,35.25513v7.16666a4.45834,4.45834,0,0,0,0,8.91667" transform="translate(-2)"/>
        <path class="cls-2" d="M71,60.25513a4.45834,4.45834,0,0,1,0-8.91667" transform="translate(-2)"/>
        <path class="cls-2" d="M71,60.25513a4.45833,4.45833,0,0,0,0,8.91666" transform="translate(-2)"/>
        <path class="cls-1" d="M71,69.17179a4.45834,4.45834,0,0,0,0,8.91667v7.16667" transform="translate(-2)"/>
      </g>
      <polyline class="cls-1" points="69 85.255 69 95.255 98.02 95.255 109 95.255"/>
      <polyline class="cls-3" points="84.077 21.156 98.077 21.156 95.077 18.156"/>
      <g>
        <path d="M91.93294,10.22949A.89768.89768,0,0,1,91.02132,9.27a2.17115,2.17115,0,0,1,.21582-.82764l.44385-1.187.35986-.9956a2.76676,2.76676,0,0,0,.21582-.86329c0-.27587-.13183-.33593-.26367-.33593-.6958,0-1.00781,1.11523-1.11572,1.51123-.04785.16748-.06006.19189-.21582.19189-.06006,0-.17969,0-.17969-.12012,0-.06005.40772-1.84716,1.53516-1.84716a.88434.88434,0,0,1,.89941.95947,1.68091,1.68091,0,0,1-.144.67187l-.76758,2.05079a4.07064,4.07064,0,0,0-.312,1.15136c0,.32373.168.33594.26416.33594.6958,0,1.01953-1.15137,1.11523-1.499.04785-.18018.04785-.2041.2041-.2041.084,0,.17969,0,.17969.12011C93.45589,8.43066,93.06038,10.22949,91.93294,10.22949Zm1.0791-6.7041a.51031.51031,0,0,1-.53955-.51562.8145.8145,0,0,1,.76758-.75586.50956.50956,0,0,1,.53955.51562A.8145.8145,0,0,1,93.012,3.52539Z" transform="translate(-2)"/>
        <path d="M96.11263,14.09375H93.51986c0-.168,0-.18164.07666-.25879l1.34179-1.49512a2.50482,2.50482,0,0,0,.73389-1.54492c0-.57275-.30078-1.13867-.93652-1.13867a1.00746,1.00746,0,0,0-.94336.7124.27106.27106,0,0,1,.09082-.00683.35335.35335,0,0,1,.37012.36328.36712.36712,0,1,1-.7334-.021A1.29119,1.29119,0,0,1,94.8265,9.43945a1.37272,1.37272,0,0,1,1.48144,1.35547c0,.69922-.41894,1.07666-1.50927,2.041l-.74073.71972h1.25782a2.27011,2.27011,0,0,0,.66406-.05615,2.28889,2.28889,0,0,0,.15332-.62158h.1748Z" transform="translate(-2)"/>
      </g>
      <circle class="cls-4" cx="34" cy="42.25513" r="1"/>
      <circle class="cls-4" cx="76" cy="42.25513" r="1"/>
      <g>
        <line class="cls-5" x1="23.03589" y1="46.56787" x2="28.03589" y2="46.56787"/>
        <line class="cls-5" x1="25.53589" y1="49.06787" x2="25.53589" y2="44.06787"/>
      </g>
      <line class="cls-5" x1="23.03589" y1="73.90674" x2="28.03589" y2="73.90674"/>
      <g>
        <path d="M26.83724,61.29736a1.34293,1.34293,0,0,1-1.4751-1.439,7.63321,7.63321,0,0,1,.61133-2.30274,3.53538,3.53538,0,0,0,.28809-1.07959c0-.312-.13184-.34765-.26368-.34765-.6958,0-1.01953,1.13916-1.11572,1.51123-.04785.16748-.06006.19189-.21582.19189-.06006,0-.17969,0-.17969-.12011,0-.07178.41944-1.84717,1.53516-1.84717a.89849.89849,0,0,1,.91113.97168,1.90275,1.90275,0,0,1-.13183.59961,9.04413,9.04413,0,0,0-.70752,2.60254c0,.396.13183.9956.77978.9956,1.37891,0,1.94287-3.01025,1.94287-3.34619a1.35475,1.35475,0,0,0-.32373-.94775.46246.46246,0,0,1-.15625-.32373.61649.61649,0,0,1,.57569-.55176c.34814,0,.4917.37207.4917.7915C29.40365,56.96777,28.85189,61.29736,26.83724,61.29736Z" transform="translate(-2)"/>
        <path d="M30.807,65.14063c-.2793,0-.88721,0-1.13184.021v-.2168h.22363c.62891,0,.64991-.08349.64991-.33544V60.98926a2.08887,2.08887,0,0,1-.91553.18213v-.2168a1.72718,1.72718,0,0,0,1.272-.44727c.16065,0,.16065.01368.16065.18164v3.92042c0,.25878.021.33544.6499.33544h.22363v.2168C31.69466,65.14063,31.08675,65.14063,30.807,65.14063Z" transform="translate(-2)"/>
      </g>
      <g>
        <line class="cls-5" x1="81.03589" y1="46.56787" x2="86.03589" y2="46.56787"/>
        <line class="cls-5" x1="83.53589" y1="49.06787" x2="83.53589" y2="44.06787"/>
      </g>
      <line class="cls-5" x1="81.03589" y1="73.90674" x2="86.03589" y2="73.90674"/>
      <g>
        <path d="M84.83724,61.29736a1.34293,1.34293,0,0,1-1.4751-1.439,7.63321,7.63321,0,0,1,.61133-2.30274,3.53538,3.53538,0,0,0,.28809-1.07959c0-.312-.13184-.34765-.26368-.34765-.6958,0-1.01953,1.13916-1.11572,1.51123-.04785.16748-.06006.19189-.21582.19189-.06006,0-.17969,0-.17969-.12011,0-.07178.41944-1.84717,1.53516-1.84717a.89849.89849,0,0,1,.91113.97168,1.90275,1.90275,0,0,1-.13183.59961,9.04413,9.04413,0,0,0-.70752,2.60254c0,.396.13183.9956.77978.9956,1.37891,0,1.94287-3.01025,1.94287-3.34619a1.35475,1.35475,0,0,0-.32373-.94775.46246.46246,0,0,1-.15625-.32373.61649.61649,0,0,1,.57569-.55176c.34814,0,.4917.37207.4917.7915C87.40365,56.96777,86.85189,61.29736,84.83724,61.29736Z" transform="translate(-2)"/>
        <path d="M89.95345,65.16162H87.36068c0-.168,0-.18164.07666-.25879l1.34179-1.49512a2.50482,2.50482,0,0,0,.73389-1.54492c0-.57275-.30078-1.13867-.93652-1.13867a1.00746,1.00746,0,0,0-.94336.7124.27106.27106,0,0,1,.09082-.00683.35335.35335,0,0,1,.37012.36328.36712.36712,0,1,1-.7334-.021,1.29119,1.29119,0,0,1,1.30664-1.26465,1.37272,1.37272,0,0,1,1.48144,1.35547c0,.69922-.41894,1.07666-1.50927,2.041l-.74073.71973h1.25782a2.26972,2.26972,0,0,0,.66406-.05616,2.30533,2.30533,0,0,0,.15381-.62158h.17431Z" transform="translate(-2)"/>
      </g>
      <g>
        <path d="M47.7264,7.39209a1.11257,1.11257,0,0,0-1.21143.81543l-1.6792,6.76465c-.06.22754-.10791.23974-.23974.23974-.168,0-.17969-.02392-.23975-.2041L41.77767,7.84814l-1.54736,6.17627a1.14654,1.14654,0,0,0-.04786.29981c0,.18017.02393.4917.70752.51611.14405,0,.228.01172.228.15576,0,.21582-.144.21582-.21582.21582-.37207,0-.7915-.03613-1.17529-.03613-.37207,0-.77979.03613-1.13965.03613-.084,0-.15576-.03613-.15576-.144,0-.21582.13183-.22754.228-.22754a1.06574,1.06574,0,0,0,1.16308-.83984L41.4056,7.644a.69637.69637,0,0,0,.03613-.15576c0-.09619-.64746-.09619-.73144-.09619-.228,0-.32373,0-.32373-.14355,0-.228.13183-.228.32373-.228h1.499c.252,0,.26367.01172.33594.20361l2.24267,6.23682L46.10726,8.1958a1.11492,1.11492,0,0,0,.04785-.28809c0-.25146-.0957-.49169-.71973-.51562-.10791,0-.21582-.01172-.21582-.14355,0-.228.15625-.228.21582-.228.37207,0,.77979.03564,1.16358.03564s.7793-.03564,1.15137-.03564a.13928.13928,0,0,1,.15576.15576C47.90609,7.38037,47.762,7.39209,47.7264,7.39209Z" transform="translate(-2)"/>
        <path d="M48.39974,19.187c-.2793,0-.88721,0-1.13184.021v-.2168h.22364c.6289,0,.6499-.0835.6499-.33545V15.03564a2.09,2.09,0,0,1-.91553.18213V15.001a1.72718,1.72718,0,0,0,1.272-.44727c.16065,0,.16065.01416.16065.18164v3.92041c0,.25879.021.33545.6499.33545h.22363v.2168C49.28743,19.187,48.67952,19.187,48.39974,19.187Z" transform="translate(-2)"/>
        <path d="M56.06478,11.314a.6355.6355,0,1,1,.63574-.63574A.63989.63989,0,0,1,56.06478,11.314Zm0,3.898a.63574.63574,0,1,1,.63574-.63574A.63989.63989,0,0,1,56.06478,15.21191Z" transform="translate(-2)"/>
        <path d="M71.7679,7.39209a1.11282,1.11282,0,0,0-1.21142.81543l-1.6792,6.76465c-.06006.22754-.10791.23974-.23975.23974-.168,0-.17968-.02392-.23974-.2041L65.81917,7.84814l-1.54736,6.17627a1.14676,1.14676,0,0,0-.04785.29981c0,.18017.02392.4917.70752.51611.144,0,.228.01172.228.15576,0,.21582-.144.21582-.21583.21582-.37207,0-.7915-.03613-1.17529-.03613-.37207,0-.77978.03613-1.13965.03613-.084,0-.15576-.03613-.15576-.144,0-.21582.13184-.22754.228-.22754a1.06575,1.06575,0,0,0,1.16309-.83984L65.4471,7.644a.6962.6962,0,0,0,.03614-.15576c0-.09619-.64747-.09619-.73145-.09619-.228,0-.32373,0-.32373-.14355,0-.228.13184-.228.32373-.228h1.499c.252,0,.26368.01172.33594.20361l2.24268,6.23682L70.14876,8.1958a1.1145,1.1145,0,0,0,.04785-.28809c0-.25146-.0957-.49169-.71972-.51562-.10791,0-.21582-.01172-.21582-.14355,0-.228.15625-.228.21582-.228.37207,0,.77978.03564,1.16357.03564s.77979-.03564,1.15137-.03564a.13928.13928,0,0,1,.15576.15576C71.94759,7.38037,71.804,7.39209,71.7679,7.39209Z" transform="translate(-2)"/>
        <path d="M73.58773,19.208H70.995c0-.16748,0-.18164.07666-.25879l1.3418-1.49512a2.506,2.506,0,0,0,.73389-1.54443c0-.57324-.30078-1.13916-.93653-1.13916a1.00746,1.00746,0,0,0-.94335.7124.27064.27064,0,0,1,.09082-.00684.35335.35335,0,0,1,.37011.36329.36712.36712,0,1,1-.7334-.021,1.29119,1.29119,0,0,1,1.30665-1.26465,1.37281,1.37281,0,0,1,1.48144,1.356c0,.69873-.41894,1.07617-1.50928,2.04053l-.74072.71972h1.25781a2.27015,2.27015,0,0,0,.66407-.05615,2.305,2.305,0,0,0,.1538-.62158H73.783Z" transform="translate(-2)"/>
      </g>
      <line class="cls-6" x1="51.81944" y1="51.15576" x2="51.81944" y2="69.15576"/>
      <line class="cls-6" x1="58.18056" y1="51.15576" x2="58.18056" y2="69.15576"/>
    </g>
    <g>
      <g>
        <line class="cls-7" x1="63" y1="113.40576" x2="77" y2="113.40576"/>
        <g>
          <path d="M70.85579,107.79639a.89769.89769,0,0,1-.91162-.95948,2.17111,2.17111,0,0,1,.21582-.82763l.44385-1.187.35986-.99561a2.7667,2.7667,0,0,0,.21582-.86328c0-.27588-.13183-.33594-.26367-.33594-.6958,0-1.00781,1.11524-1.11572,1.51123-.04785.16748-.06006.1919-.21582.1919-.06006,0-.17969,0-.17969-.12012,0-.06006.40772-1.84717,1.53516-1.84717a.88435.88435,0,0,1,.89941.95947,1.681,1.681,0,0,1-.144.67188l-.76758,2.05078a4.07078,4.07078,0,0,0-.312,1.15137c0,.32373.168.33593.26416.33593.6958,0,1.01953-1.15136,1.11523-1.499.04786-.18017.04786-.2041.20411-.2041.084,0,.17968,0,.17968.12012C72.37874,105.99756,71.98324,107.79639,70.85579,107.79639Zm1.07911-6.7041a.51031.51031,0,0,1-.53955-.51563.81449.81449,0,0,1,.76757-.75586.50955.50955,0,0,1,.53955.51563A.8145.8145,0,0,1,71.9349,101.09229Z" transform="translate(-2)"/>
          <path d="M75.03548,111.66064H72.44271c0-.168,0-.18164.07666-.25878l1.3418-1.49512a2.50488,2.50488,0,0,0,.73388-1.54492c0-.57276-.30078-1.13868-.93652-1.13868a1.00748,1.00748,0,0,0-.94336.71241.27071.27071,0,0,1,.09082-.00684.35335.35335,0,0,1,.37012.36328.36712.36712,0,1,1-.7334-.021,1.29118,1.29118,0,0,1,1.30664-1.26465,1.37272,1.37272,0,0,1,1.48144,1.35547c0,.69922-.41894,1.07666-1.50927,2.041l-.74073.71973h1.25782a2.27007,2.27007,0,0,0,.66406-.05615,2.289,2.289,0,0,0,.15332-.62159h.1748Z" transform="translate(-2)"/>
        </g>
        <g>
          <path d="M70.85579,123.22949a.89768.89768,0,0,1-.91162-.95947,2.17115,2.17115,0,0,1,.21582-.82764l.44385-1.187.35986-.9956a2.76676,2.76676,0,0,0,.21582-.86329c0-.27587-.13183-.33593-.26367-.33593-.6958,0-1.00781,1.11523-1.11572,1.51123-.04785.16748-.06006.19189-.21582.19189-.06006,0-.17969,0-.17969-.12012,0-.06005.40772-1.84716,1.53516-1.84716a.88434.88434,0,0,1,.89941.95947,1.68091,1.68091,0,0,1-.144.67187l-.76758,2.05079a4.07064,4.07064,0,0,0-.312,1.15136c0,.32373.168.33594.26416.33594.6958,0,1.01953-1.15137,1.11523-1.499.04786-.18018.04786-.2041.20411-.2041.084,0,.17968,0,.17968.12011C72.37874,121.43066,71.98324,123.22949,70.85579,123.22949Zm1.07911-6.7041a.5103.5103,0,0,1-.53955-.51562.81449.81449,0,0,1,.76757-.75586.50955.50955,0,0,1,.53955.51562A.8145.8145,0,0,1,71.9349,116.52539Z" transform="translate(-2)"/>
          <path d="M73.889,127.07275c-.2793,0-.88721,0-1.13184.021v-.2168h.22363c.62891,0,.64991-.08349.64991-.33545v-3.62011a2.09,2.09,0,0,1-.91553.18213v-.2168a1.72718,1.72718,0,0,0,1.272-.44727c.16065,0,.16065.01368.16065.18164v3.92041c0,.25879.021.33545.6499.33545h.22363v.2168C74.77669,127.07275,74.16878,127.07275,73.889,127.07275Z" transform="translate(-2)"/>
        </g>
      </g>
      <path d="M31.57161,113.02881H24.412c-.18018,0-.40821,0-.40821-.23975s.228-.23974.396-.23974h7.18408c.168,0,.396,0,.396.23974S31.75179,113.02881,31.57161,113.02881Zm.01221,2.32666H24.39974c-.168,0-.396,0-.396-.23975s.228-.23974.40821-.23974h7.15966c.18018,0,.40821,0,.40821.23974S31.75179,115.35547,31.58382,115.35547Z" transform="translate(-2)"/>
      <g>
        <g>
          <path d="M12.83724,107.79639a1.34307,1.34307,0,0,1-1.4751-1.43946,7.64021,7.64021,0,0,1,.61133-2.30273,3.53314,3.53314,0,0,0,.28809-1.0791c0-.3125-.13184-.34766-.26368-.34766-.6958,0-1.01953,1.13867-1.11572,1.51074-.04785.168-.06006.19239-.21582.19239-.06006,0-.17969,0-.17969-.12012,0-.07227.41944-1.84766,1.53516-1.84766a.89849.89849,0,0,1,.91113.97168,1.89658,1.89658,0,0,1-.13183.59961,9.05238,9.05238,0,0,0-.70752,2.60254c0,.39649.13183.99609.77978.99609,1.37891,0,1.94287-3.01074,1.94287-3.34667a1.353,1.353,0,0,0-.32373-.94727.46362.46362,0,0,1-.15625-.32422.61691.61691,0,0,1,.57569-.55176c.34814,0,.4917.37207.4917.792C15.40365,103.46631,14.85189,107.79639,12.83724,107.79639Z" transform="translate(-2)"/>
          <path d="M17.95345,111.66064H15.36068c0-.168,0-.18164.07666-.25878l1.34179-1.49512a2.50484,2.50484,0,0,0,.73389-1.54492c0-.57325-.30078-1.13868-.93652-1.13868a1.007,1.007,0,0,0-.94336.71192.27068.27068,0,0,1,.09082-.00684.35335.35335,0,0,1,.37012.36328.36712.36712,0,1,1-.7334-.0205,1.29087,1.29087,0,0,1,1.30664-1.26465,1.37243,1.37243,0,0,1,1.48144,1.35547c0,.69922-.41894,1.07617-1.50927,2.041l-.74073.71973h1.25782a2.25116,2.25116,0,0,0,.66406-.05664,2.30606,2.30606,0,0,0,.15381-.6211h.17431Z" transform="translate(-2)"/>
        </g>
        <line class="cls-7" x1="5" y1="113.40576" x2="19" y2="113.40576"/>
        <g>
          <path d="M12.83724,121.63525a1.34293,1.34293,0,0,1-1.4751-1.439,7.63321,7.63321,0,0,1,.61133-2.30274,3.53538,3.53538,0,0,0,.28809-1.07959c0-.312-.13184-.34765-.26368-.34765-.6958,0-1.01953,1.13916-1.11572,1.51123-.04785.16748-.06006.19189-.21582.19189-.06006,0-.17969,0-.17969-.12011,0-.07178.41944-1.84717,1.53516-1.84717a.89849.89849,0,0,1,.91113.97168,1.90269,1.90269,0,0,1-.13183.59961,9.04413,9.04413,0,0,0-.70752,2.60254c0,.396.13183.9956.77978.9956,1.37891,0,1.94287-3.01025,1.94287-3.34619a1.35475,1.35475,0,0,0-.32373-.94775.46246.46246,0,0,1-.15625-.32373.61649.61649,0,0,1,.57569-.55176c.34814,0,.4917.37207.4917.7915C15.40365,117.30566,14.85189,121.63525,12.83724,121.63525Z" transform="translate(-2)"/>
          <path d="M16.807,125.47852c-.2793,0-.88721,0-1.13184.021v-.2168h.22363c.62891,0,.64991-.08349.64991-.33544v-3.62012a2.08887,2.08887,0,0,1-.91553.18213v-.2168a1.72718,1.72718,0,0,0,1.272-.44727c.16065,0,.16065.01368.16065.18165v3.92041c0,.25878.021.33544.6499.33544h.22363v.2168C17.69466,125.47852,17.08675,125.47852,16.807,125.47852Z" transform="translate(-2)"/>
        </g>
      </g>
      <g>
        <g>
          <path d="M45.83138,99.84424a1.114,1.114,0,0,0-1.21143.8164l-1.67919,6.76368c-.06006.22754-.10791.24023-.23975.24023-.168,0-.17969-.02441-.23975-.2041l-2.57861-7.16016-1.54736,6.17676a1.14139,1.14139,0,0,0-.04786.29981c0,.17968.02393.49121.70752.51562.14405,0,.228.01172.228.15625,0,.21582-.144.21582-.21582.21582-.37207,0-.7915-.03613-1.17529-.03613-.37207,0-.77979.03613-1.13965.03613-.084,0-.15576-.03613-.15576-.14453,0-.21582.13183-.22754.228-.22754a1.06532,1.06532,0,0,0,1.16308-.83984l1.583-6.35645a.69764.69764,0,0,0,.03613-.15527c0-.09668-.64746-.09668-.73144-.09668-.228,0-.32373,0-.32373-.14356,0-.22754.13183-.22754.32373-.22754h1.499c.252,0,.26367.01172.33594.20313l2.24267,6.2373,1.31934-5.26562a1.111,1.111,0,0,0,.04785-.28809c0-.251-.0957-.49121-.71973-.51562-.10791,0-.21582-.01172-.21582-.14356,0-.22754.15625-.22754.21582-.22754.37207,0,.77979.03614,1.16358.03614s.7793-.03614,1.15137-.03614a.13893.13893,0,0,1,.15576.15528C46.01107,99.83252,45.867,99.84424,45.83138,99.84424Z" transform="translate(-2)"/>
          <path d="M47.6512,111.66064H45.05843c0-.168,0-.18164.07666-.25878l1.3418-1.49512a2.50483,2.50483,0,0,0,.73388-1.54492c0-.57325-.30078-1.13868-.93652-1.13868a1.007,1.007,0,0,0-.94336.71192.27071.27071,0,0,1,.09082-.00684.35335.35335,0,0,1,.37012.36328.36712.36712,0,1,1-.7334-.0205,1.29087,1.29087,0,0,1,1.30664-1.26465,1.37244,1.37244,0,0,1,1.48145,1.35547c0,.69922-.41895,1.07617-1.50928,2.041l-.74072.71973h1.25781a2.25109,2.25109,0,0,0,.66406-.05664,2.2892,2.2892,0,0,0,.15332-.6211h.17481Z" transform="translate(-2)"/>
        </g>
        <line class="cls-7" x1="33" y1="113.40576" x2="47" y2="113.40576"/>
        <g>
          <path d="M45.83138,115.68359a1.113,1.113,0,0,0-1.21143.81592l-1.67919,6.76416c-.06006.22754-.10791.23975-.23975.23975-.168,0-.17969-.02393-.23975-.2041l-2.57861-7.15967-1.54736,6.17627a1.14649,1.14649,0,0,0-.04786.2998c0,.18018.02393.4917.70752.51612.14405,0,.228.01171.228.15576,0,.21582-.144.21582-.21582.21582-.37207,0-.7915-.03613-1.17529-.03613-.37207,0-.77979.03613-1.13965.03613-.084,0-.15576-.03613-.15576-.144,0-.21583.13183-.22754.228-.22754a1.06575,1.06575,0,0,0,1.16308-.83985l1.583-6.35644a.6965.6965,0,0,0,.03613-.15576c0-.0962-.64746-.0962-.73144-.0962-.228,0-.32373,0-.32373-.144,0-.22754.13183-.22754.32373-.22754h1.499c.252,0,.26367.01172.33594.20362l2.24267,6.23681,1.31934-5.26514a1.118,1.118,0,0,0,.04785-.28808c0-.25147-.0957-.4917-.71973-.51563-.10791,0-.21582-.01171-.21582-.144,0-.22754.15625-.22754.21582-.22754.37207,0,.77979.03613,1.16358.03613s.7793-.03613,1.15137-.03613a.13928.13928,0,0,1,.15576.15576C46.01107,115.67188,45.867,115.68359,45.83138,115.68359Z" transform="translate(-2)"/>
          <path d="M46.50472,127.47852c-.2793,0-.88721,0-1.13184.021v-.2168h.22364c.6289,0,.6499-.08349.6499-.33544v-3.62012a2.09,2.09,0,0,1-.91553.18213v-.2168a1.72718,1.72718,0,0,0,1.272-.44727c.16065,0,.16065.01368.16065.18165v3.92041c0,.25878.021.33544.6499.33544H47.637v.2168C47.39242,127.47852,46.78451,127.47852,46.50472,127.47852Z" transform="translate(-2)"/>
        </g>
      </g>
      <path d="M89.57161,113.02881H82.412c-.18018,0-.40821,0-.40821-.23975s.228-.23974.396-.23974h7.18408c.168,0,.396,0,.396.23974S89.75179,113.02881,89.57161,113.02881Zm.01221,2.32666H82.39974c-.168,0-.396,0-.396-.23975s.228-.23974.40821-.23974h7.15966c.18018,0,.40821,0,.40821.23974S89.75179,115.35547,89.58382,115.35547Z" transform="translate(-2)"/>
      <g>
        <g>
          <path d="M103.83138,99.84424a1.114,1.114,0,0,0-1.21143.8164l-1.67919,6.76368c-.06006.22754-.10791.24023-.23975.24023-.168,0-.17969-.02441-.23975-.2041l-2.57861-7.16016-1.54736,6.17676a1.14139,1.14139,0,0,0-.04786.29981c0,.17968.02393.49121.70752.51562.144,0,.228.01172.228.15625,0,.21582-.144.21582-.21582.21582-.37207,0-.7915-.03613-1.17529-.03613-.37207,0-.77979.03613-1.13965.03613-.084,0-.15576-.03613-.15576-.14453,0-.21582.13183-.22754.228-.22754a1.06532,1.06532,0,0,0,1.16308-.83984l1.583-6.35645a.69764.69764,0,0,0,.03613-.15527c0-.09668-.64746-.09668-.73144-.09668-.228,0-.32373,0-.32373-.14356,0-.22754.13183-.22754.32373-.22754h1.499c.25195,0,.26367.01172.33594.20313l2.24267,6.2373,1.31934-5.26562a1.111,1.111,0,0,0,.04785-.28809c0-.251-.0957-.49121-.71973-.51562-.10791,0-.21582-.01172-.21582-.14356,0-.22754.15625-.22754.21582-.22754.37207,0,.77979.03614,1.16358.03614s.7793-.03614,1.15137-.03614a.13893.13893,0,0,1,.15576.15528C104.01107,99.83252,103.867,99.84424,103.83138,99.84424Z" transform="translate(-2)"/>
          <path d="M104.50472,111.63916c-.2793,0-.88721,0-1.13184.02148v-.21679h.22364c.6289,0,.6499-.084.6499-.33594v-3.62012a2.085,2.085,0,0,1-.91553.18262v-.2168a1.7272,1.7272,0,0,0,1.272-.44726c.16065,0,.16065.01367.16065.18164v3.91992c0,.25879.021.33594.6499.33594h.22363v.21679C105.39242,111.63916,104.78451,111.63916,104.50472,111.63916Z" transform="translate(-2)"/>
        </g>
        <line class="cls-7" x1="91" y1="113.40576" x2="105" y2="113.40576"/>
        <g>
          <path d="M103.83138,115.68359a1.113,1.113,0,0,0-1.21143.81592l-1.67919,6.76416c-.06006.22754-.10791.23975-.23975.23975-.168,0-.17969-.02393-.23975-.2041l-2.57861-7.15967-1.54736,6.17627a1.14649,1.14649,0,0,0-.04786.2998c0,.18018.02393.4917.70752.51612.144,0,.228.01171.228.15576,0,.21582-.144.21582-.21582.21582-.37207,0-.7915-.03613-1.17529-.03613-.37207,0-.77979.03613-1.13965.03613-.084,0-.15576-.03613-.15576-.144,0-.21583.13183-.22754.228-.22754a1.06575,1.06575,0,0,0,1.16308-.83985l1.583-6.35644a.6965.6965,0,0,0,.03613-.15576c0-.0962-.64746-.0962-.73144-.0962-.228,0-.32373,0-.32373-.144,0-.22754.13183-.22754.32373-.22754h1.499c.25195,0,.26367.01172.33594.20362l2.24267,6.23681,1.31934-5.26514a1.118,1.118,0,0,0,.04785-.28808c0-.25147-.0957-.4917-.71973-.51563-.10791,0-.21582-.01171-.21582-.144,0-.22754.15625-.22754.21582-.22754.37207,0,.77979.03613,1.16358.03613s.7793-.03613,1.15137-.03613a.13928.13928,0,0,1,.15576.15576C104.01107,115.67188,103.867,115.68359,103.83138,115.68359Z" transform="translate(-2)"/>
          <path d="M105.6512,127.49951h-2.59277c0-.168,0-.18164.07666-.25879l1.3418-1.49511a2.50485,2.50485,0,0,0,.73388-1.54493c0-.57275-.30078-1.13867-.93652-1.13867a1.00748,1.00748,0,0,0-.94336.7124.27109.27109,0,0,1,.09082-.00683.35335.35335,0,0,1,.37012.36328.36712.36712,0,1,1-.7334-.021,1.29119,1.29119,0,0,1,1.30664-1.26465,1.37273,1.37273,0,0,1,1.48145,1.35547c0,.69922-.41895,1.07666-1.50928,2.041l-.74072.71973h1.25781a2.26965,2.26965,0,0,0,.66406-.05616,2.28852,2.28852,0,0,0,.15332-.62158h.17481Z" transform="translate(-2)"/>
        </g>
      </g>
    </g>
  </g>
  <g>
    <g>
      <polyline class="cls-1" points="197.444 35.255 197.444 25.255 226.464 25.255 237.444 25.255"/>
      <g>
        <path d="M149.30013,10.22949a.89768.89768,0,0,1-.91162-.95947,2.17115,2.17115,0,0,1,.21582-.82764l.44385-1.187.35986-.9956a2.767,2.767,0,0,0,.21582-.86329c0-.27587-.13184-.33593-.26367-.33593-.6958,0-1.00781,1.11523-1.11572,1.51123-.04786.16748-.06006.19189-.21582.19189-.06006,0-.17969,0-.17969-.12012,0-.06005.40771-1.84716,1.53515-1.84716a.88435.88435,0,0,1,.89942.95947,1.68108,1.68108,0,0,1-.144.67187l-.76758,2.05079a4.07064,4.07064,0,0,0-.312,1.15136c0,.32373.168.33594.26416.33594.6958,0,1.01953-1.15137,1.11523-1.499.04785-.18018.04785-.2041.2041-.2041.084,0,.17969,0,.17969.12011C150.82308,8.43066,150.42757,10.22949,149.30013,10.22949Zm1.0791-6.7041a.51031.51031,0,0,1-.53955-.51562.8145.8145,0,0,1,.76758-.75586.50956.50956,0,0,1,.53955.51562A.8145.8145,0,0,1,150.37923,3.52539Z" transform="translate(-2)"/>
        <path d="M152.33333,14.07275c-.27929,0-.8872,0-1.13183.021V13.877h.22363c.62891,0,.6499-.08349.6499-.33545V9.92139a2.08994,2.08994,0,0,1-.91552.18213v-.2168a1.72719,1.72719,0,0,0,1.272-.44727c.16064,0,.16064.01368.16064.18164V13.5415c0,.25879.021.33545.6499.33545h.22364v.2168C153.221,14.07275,152.61312,14.07275,152.33333,14.07275Z" transform="translate(-2)"/>
      </g>
      <path class="cls-1" d="M171.44444,51.33846a4.45834,4.45834,0,1,0,0-8.91667V25.25513h-40" transform="translate(-2)"/>
      <path class="cls-2" d="M171.44444,60.25513a4.45834,4.45834,0,1,0,0-8.91667" transform="translate(-2)"/>
      <path class="cls-2" d="M171.44444,60.25513a4.45833,4.45833,0,1,1,0,8.91666" transform="translate(-2)"/>
      <path class="cls-1" d="M171.44444,69.17179a4.45834,4.45834,0,1,1,0,8.91667V95.25513h-40" transform="translate(-2)"/>
      <polyline class="cls-3" points="141.444 21.255 155.444 21.255 152.444 18.255"/>
      <g>
        <path class="cls-1" d="M199.44444,35.25513v7.16666a4.45834,4.45834,0,0,0,0,8.91667" transform="translate(-2)"/>
        <path class="cls-2" d="M199.44444,60.25513a4.45834,4.45834,0,0,1,0-8.91667" transform="translate(-2)"/>
        <path class="cls-2" d="M199.44444,60.25513a4.45833,4.45833,0,1,0,0,8.91666" transform="translate(-2)"/>
        <path class="cls-1" d="M199.44444,69.17179a4.45834,4.45834,0,0,0,0,8.91667v7.16667" transform="translate(-2)"/>
      </g>
      <polyline class="cls-1" points="197.444 85.255 197.444 95.255 226.464 95.255 237.444 95.255"/>
      <polyline class="cls-3" points="226.522 21.156 212.522 21.156 215.522 18.156"/>
      <g>
        <path d="M220.37728,10.22949a.89768.89768,0,0,1-.91162-.95947,2.17115,2.17115,0,0,1,.21582-.82764l.44385-1.187.35986-.9956a2.767,2.767,0,0,0,.21582-.86329c0-.27587-.13184-.33593-.26367-.33593-.6958,0-1.00782,1.11523-1.11573,1.51123-.04785.16748-.06.19189-.21582.19189-.06005,0-.17968,0-.17968-.12012,0-.06005.40771-1.84716,1.53515-1.84716a.88435.88435,0,0,1,.89942.95947,1.681,1.681,0,0,1-.144.67187l-.76757,2.05079a4.07036,4.07036,0,0,0-.312,1.15136c0,.32373.168.33594.26416.33594.69581,0,1.01954-1.15137,1.11524-1.499.04785-.18018.04785-.2041.2041-.2041.084,0,.17969,0,.17969.12011C221.90023,8.43066,221.50472,10.22949,220.37728,10.22949Zm1.0791-6.7041a.5103.5103,0,0,1-.53955-.51562.8145.8145,0,0,1,.76758-.75586.50956.50956,0,0,1,.53955.51562A.8145.8145,0,0,1,221.45638,3.52539Z" transform="translate(-2)"/>
        <path d="M224.557,14.09375h-2.59278c0-.168,0-.18164.07666-.25879l1.3418-1.49512a2.50482,2.50482,0,0,0,.73389-1.54492c0-.57275-.30078-1.13867-.93653-1.13867a1.00748,1.00748,0,0,0-.94336.7124.27109.27109,0,0,1,.09082-.00683.35335.35335,0,0,1,.37012.36328.36712.36712,0,1,1-.7334-.021,1.29119,1.29119,0,0,1,1.30664-1.26465,1.37273,1.37273,0,0,1,1.48145,1.35547c0,.69922-.419,1.07666-1.50928,2.041l-.74072.71972h1.25781a2.27,2.27,0,0,0,.66406-.05615,2.28815,2.28815,0,0,0,.15332-.62158h.17481Z" transform="translate(-2)"/>
      </g>
      <circle class="cls-4" cx="162.44444" cy="42.25513" r="1"/>
      <circle class="cls-4" cx="204.44444" cy="42.25513" r="1"/>
      <g>
        <line class="cls-5" x1="151.48033" y1="46.56787" x2="156.48033" y2="46.56787"/>
        <line class="cls-5" x1="153.98033" y1="49.06787" x2="153.98033" y2="44.06787"/>
      </g>
      <line class="cls-5" x1="151.48033" y1="73.90674" x2="156.48033" y2="73.90674"/>
      <g>
        <path d="M155.28158,61.29736a1.34293,1.34293,0,0,1-1.4751-1.439,7.63291,7.63291,0,0,1,.61133-2.30274,3.5356,3.5356,0,0,0,.28808-1.07959c0-.312-.13183-.34765-.26367-.34765-.6958,0-1.01953,1.13916-1.11572,1.51123-.04785.16748-.06006.19189-.21582.19189-.06006,0-.17969,0-.17969-.12011,0-.07178.41943-1.84717,1.53516-1.84717a.89849.89849,0,0,1,.91113.97168,1.90276,1.90276,0,0,1-.13184.59961,9.04413,9.04413,0,0,0-.70752,2.60254c0,.396.13184.9956.77979.9956,1.3789,0,1.94287-3.01025,1.94287-3.34619a1.35475,1.35475,0,0,0-.32373-.94775.46243.46243,0,0,1-.15625-.32373.61648.61648,0,0,1,.57568-.55176c.34815,0,.4917.37207.4917.7915C157.848,56.96777,157.29622,61.29736,155.28158,61.29736Z" transform="translate(-2)"/>
        <path d="M159.2513,65.14063c-.27929,0-.8872,0-1.13183.021v-.2168h.22363c.62891,0,.6499-.08349.6499-.33544V60.98926a2.08885,2.08885,0,0,1-.91553.18213v-.2168a1.7272,1.7272,0,0,0,1.272-.44727c.16064,0,.16064.01368.16064.18164v3.92042c0,.25878.021.33544.6499.33544h.22364v.2168C160.139,65.14063,159.53109,65.14063,159.2513,65.14063Z" transform="translate(-2)"/>
      </g>
      <g>
        <line class="cls-5" x1="209.48033" y1="46.56787" x2="214.48033" y2="46.56787"/>
        <line class="cls-5" x1="211.98033" y1="49.06787" x2="211.98033" y2="44.06787"/>
      </g>
      <line class="cls-5" x1="209.48033" y1="73.90674" x2="214.48033" y2="73.90674"/>
      <g>
        <path d="M213.28158,61.29736a1.34293,1.34293,0,0,1-1.4751-1.439,7.63291,7.63291,0,0,1,.61133-2.30274,3.5356,3.5356,0,0,0,.28808-1.07959c0-.312-.13183-.34765-.26367-.34765-.6958,0-1.01953,1.13916-1.11572,1.51123-.04785.16748-.06006.19189-.21582.19189-.06006,0-.17969,0-.17969-.12011,0-.07178.41943-1.84717,1.53516-1.84717a.89849.89849,0,0,1,.91113.97168,1.90276,1.90276,0,0,1-.13184.59961,9.04413,9.04413,0,0,0-.70752,2.60254c0,.396.13184.9956.77979.9956,1.3789,0,1.94287-3.01025,1.94287-3.34619a1.35475,1.35475,0,0,0-.32373-.94775.46243.46243,0,0,1-.15625-.32373.61648.61648,0,0,1,.57568-.55176c.34815,0,.4917.37207.4917.7915C215.848,56.96777,215.29622,61.29736,213.28158,61.29736Z" transform="translate(-2)"/>
        <path d="M218.39779,65.16162H215.805c0-.168,0-.18164.07666-.25879l1.3418-1.49512a2.50482,2.50482,0,0,0,.73389-1.54492c0-.57275-.30078-1.13867-.93653-1.13867a1.00748,1.00748,0,0,0-.94336.7124.27109.27109,0,0,1,.09082-.00683.35335.35335,0,0,1,.37012.36328.36712.36712,0,1,1-.7334-.021,1.29119,1.29119,0,0,1,1.30664-1.26465,1.37273,1.37273,0,0,1,1.48145,1.35547c0,.69922-.41895,1.07666-1.50928,2.041l-.74072.71973h1.25781a2.26965,2.26965,0,0,0,.66406-.05616,2.30458,2.30458,0,0,0,.15381-.62158h.17432Z" transform="translate(-2)"/>
      </g>
      <g>
        <path d="M176.17074,7.39209a1.11256,1.11256,0,0,0-1.21143.81543l-1.6792,6.76465c-.06006.22754-.10791.23974-.23975.23974-.168,0-.17968-.02392-.23974-.2041L170.222,7.84814l-1.54737,6.17627a1.14676,1.14676,0,0,0-.04785.29981c0,.18017.02393.4917.70752.51611.144,0,.228.01172.228.15576,0,.21582-.144.21582-.21582.21582-.37207,0-.79151-.03613-1.1753-.03613-.37207,0-.77978.03613-1.13964.03613-.084,0-.15577-.03613-.15577-.144,0-.21582.13184-.22754.228-.22754a1.06575,1.06575,0,0,0,1.16309-.83984l1.583-6.35645a.6962.6962,0,0,0,.03614-.15576c0-.09619-.64746-.09619-.73145-.09619-.228,0-.32373,0-.32373-.14355,0-.228.13184-.228.32373-.228h1.499c.25195,0,.26367.01172.33593.20361l2.24268,6.23682L174.5516,8.1958a1.11492,1.11492,0,0,0,.04785-.28809c0-.25146-.09571-.49169-.71973-.51562-.10791,0-.21582-.01172-.21582-.14355,0-.228.15625-.228.21582-.228.37207,0,.77979.03564,1.16357.03564s.7793-.03564,1.15137-.03564a.13928.13928,0,0,1,.15576.15576C176.35042,7.38037,176.20638,7.39209,176.17074,7.39209Z" transform="translate(-2)"/>
        <path d="M176.84408,19.187c-.2793,0-.88721,0-1.13184.021v-.2168h.22363c.62891,0,.6499-.0835.6499-.33545V15.03564a2.0899,2.0899,0,0,1-.91552.18213V15.001a1.72718,1.72718,0,0,0,1.272-.44727c.16064,0,.16064.01416.16064.18164v3.92041c0,.25879.021.33545.64991.33545h.22363v.2168C177.73177,19.187,177.12386,19.187,176.84408,19.187Z" transform="translate(-2)"/>
        <path d="M184.50911,11.314a.6355.6355,0,1,1,.63575-.63574A.63989.63989,0,0,1,184.50911,11.314Zm0,3.898a.63574.63574,0,1,1,.63575-.63574A.63989.63989,0,0,1,184.50911,15.21191Z" transform="translate(-2)"/>
        <path d="M200.21224,7.39209a1.11283,1.11283,0,0,0-1.21143.81543l-1.6792,6.76465c-.06.22754-.10791.23974-.23974.23974-.168,0-.17969-.02392-.23975-.2041l-2.57861-7.15967-1.54736,6.17627a1.14654,1.14654,0,0,0-.04786.29981c0,.18017.02393.4917.70752.51611.144,0,.228.01172.228.15576,0,.21582-.144.21582-.21582.21582-.37207,0-.7915-.03613-1.17529-.03613-.37207,0-.77979.03613-1.13965.03613-.084,0-.15576-.03613-.15576-.144,0-.21582.13183-.22754.228-.22754a1.06574,1.06574,0,0,0,1.16308-.83984l1.583-6.35645a.69637.69637,0,0,0,.03613-.15576c0-.09619-.64746-.09619-.73144-.09619-.228,0-.32373,0-.32373-.14355,0-.228.13183-.228.32373-.228h1.499c.25195,0,.26367.01172.33594.20361l2.24267,6.23682L198.5931,8.1958a1.11492,1.11492,0,0,0,.04785-.28809c0-.25146-.0957-.49169-.71973-.51562-.10791,0-.21582-.01172-.21582-.14355,0-.228.15625-.228.21582-.228.37207,0,.77979.03564,1.16358.03564s.77978-.03564,1.15137-.03564a.13928.13928,0,0,1,.15576.15576C200.39193,7.38037,200.24837,7.39209,200.21224,7.39209Z" transform="translate(-2)"/>
        <path d="M202.03206,19.208h-2.59277c0-.16748,0-.18164.07666-.25879l1.3418-1.49512a2.50606,2.50606,0,0,0,.73388-1.54443c0-.57324-.30078-1.13916-.93652-1.13916a1.00748,1.00748,0,0,0-.94336.7124.27071.27071,0,0,1,.09082-.00684.35335.35335,0,0,1,.37012.36329.36712.36712,0,1,1-.7334-.021,1.29119,1.29119,0,0,1,1.30664-1.26465,1.37281,1.37281,0,0,1,1.48145,1.356c0,.69873-.419,1.07617-1.50928,2.04053l-.74072.71972h1.25781a2.27007,2.27007,0,0,0,.66406-.05615,2.305,2.305,0,0,0,.15381-.62158h.17432Z" transform="translate(-2)"/>
      </g>
      <line class="cls-6" x1="180.26389" y1="51.15576" x2="180.26389" y2="69.15576"/>
      <line class="cls-6" x1="186.625" y1="51.15576" x2="186.625" y2="69.15576"/>
    </g>
    <g>
      <line class="cls-7" x1="186.94444" y1="113.40576" x2="200.94444" y2="113.40576"/>
      <g>
        <path d="M194.80013,107.79639a.89769.89769,0,0,1-.91162-.95948,2.17111,2.17111,0,0,1,.21582-.82763l.44385-1.187.35986-.99561a2.767,2.767,0,0,0,.21582-.86328c0-.27588-.13184-.33594-.26367-.33594-.6958,0-1.00781,1.11524-1.11572,1.51123-.04786.16748-.06006.1919-.21582.1919-.06006,0-.17969,0-.17969-.12012,0-.06006.40771-1.84717,1.53515-1.84717a.88435.88435,0,0,1,.89942.95947,1.68115,1.68115,0,0,1-.144.67188l-.76758,2.05078a4.07078,4.07078,0,0,0-.312,1.15137c0,.32373.168.33593.26416.33593.6958,0,1.01953-1.15136,1.11523-1.499.04785-.18017.04785-.2041.2041-.2041.084,0,.17969,0,.17969.12012C196.32308,105.99756,195.92757,107.79639,194.80013,107.79639Zm1.0791-6.7041a.51032.51032,0,0,1-.53955-.51563.8145.8145,0,0,1,.76758-.75586.50956.50956,0,0,1,.53955.51563A.81451.81451,0,0,1,195.87923,101.09229Z" transform="translate(-2)"/>
        <path d="M198.97982,111.66064H196.387c0-.168,0-.18164.07666-.25878l1.3418-1.49512a2.50484,2.50484,0,0,0,.73389-1.54492c0-.57276-.30078-1.13868-.93653-1.13868a1.00747,1.00747,0,0,0-.94335.71241.27064.27064,0,0,1,.09082-.00684.35335.35335,0,0,1,.37011.36328.36712.36712,0,1,1-.7334-.021,1.29118,1.29118,0,0,1,1.30664-1.26465,1.37273,1.37273,0,0,1,1.48145,1.35547c0,.69922-.41895,1.07666-1.50928,2.041l-.74072.71973h1.25781a2.27015,2.27015,0,0,0,.66407-.05615,2.289,2.289,0,0,0,.15332-.62159h.1748Z" transform="translate(-2)"/>
      </g>
      <g>
        <path d="M194.80062,123.22949a.89768.89768,0,0,1-.91162-.95947,2.17115,2.17115,0,0,1,.21582-.82764l.44385-1.187.35986-.9956a2.767,2.767,0,0,0,.21582-.86329c0-.27587-.13184-.33593-.26367-.33593-.6958,0-1.00782,1.11523-1.11573,1.51123-.04785.16748-.06.19189-.21582.19189-.06005,0-.17968,0-.17968-.12012,0-.06005.40771-1.84716,1.53515-1.84716a.88435.88435,0,0,1,.89942.95947,1.681,1.681,0,0,1-.144.67187l-.76757,2.05079a4.07036,4.07036,0,0,0-.312,1.15136c0,.32373.168.33594.26416.33594.69581,0,1.01954-1.15137,1.11524-1.499.04785-.18018.04785-.2041.2041-.2041.084,0,.17969,0,.17969.12011C196.32357,121.43066,195.92806,123.22949,194.80062,123.22949Zm1.0791-6.7041a.5103.5103,0,0,1-.53955-.51562.8145.8145,0,0,1,.76758-.75586.50956.50956,0,0,1,.53955.51562A.8145.8145,0,0,1,195.87972,116.52539Z" transform="translate(-2)"/>
        <path d="M197.83382,127.07275c-.2793,0-.88721,0-1.13183.021v-.2168h.22363c.6289,0,.6499-.08349.6499-.33545v-3.62011a2.09,2.09,0,0,1-.91553.18213v-.2168a1.7272,1.7272,0,0,0,1.272-.44727c.16064,0,.16064.01368.16064.18164v3.92041c0,.25879.021.33545.6499.33545h.22364v.2168C198.72152,127.07275,198.11361,127.07275,197.83382,127.07275Z" transform="translate(-2)"/>
      </g>
    </g>
    <path d="M155.516,113.02881h-7.15967c-.18017,0-.4082,0-.4082-.23975s.228-.23974.396-.23974h7.18408c.168,0,.396,0,.396.23974S155.69613,113.02881,155.516,113.02881Zm.01221,2.32666h-7.18408c-.168,0-.396,0-.396-.23975s.228-.23974.4082-.23974H155.516c.18018,0,.4082,0,.4082.23974S155.69613,115.35547,155.52816,115.35547Z" transform="translate(-2)"/>
    <g>
      <g>
        <path d="M136.78158,107.79639a1.34307,1.34307,0,0,1-1.4751-1.43946,7.63991,7.63991,0,0,1,.61133-2.30273,3.53336,3.53336,0,0,0,.28808-1.0791c0-.3125-.13183-.34766-.26367-.34766-.6958,0-1.01953,1.13867-1.11572,1.51074-.04785.168-.06006.19239-.21582.19239-.06006,0-.17969,0-.17969-.12012,0-.07227.41943-1.84766,1.53516-1.84766a.89849.89849,0,0,1,.91113.97168,1.89658,1.89658,0,0,1-.13184.59961,9.05238,9.05238,0,0,0-.70752,2.60254c0,.39649.13184.99609.77979.99609,1.3789,0,1.94287-3.01074,1.94287-3.34667a1.353,1.353,0,0,0-.32373-.94727.46358.46358,0,0,1-.15625-.32422.6169.6169,0,0,1,.57568-.55176c.34815,0,.4917.37207.4917.792C139.348,103.46631,138.79622,107.79639,136.78158,107.79639Z" transform="translate(-2)"/>
        <path d="M141.89779,111.66064H139.305c0-.168,0-.18164.07666-.25878l1.3418-1.49512a2.50484,2.50484,0,0,0,.73389-1.54492c0-.57325-.30078-1.13868-.93653-1.13868a1.007,1.007,0,0,0-.94336.71192.27071.27071,0,0,1,.09082-.00684.35335.35335,0,0,1,.37012.36328.36712.36712,0,1,1-.7334-.0205,1.29087,1.29087,0,0,1,1.30664-1.26465,1.37244,1.37244,0,0,1,1.48145,1.35547c0,.69922-.41895,1.07617-1.50928,2.041l-.74072.71973h1.25781a2.25109,2.25109,0,0,0,.66406-.05664,2.30531,2.30531,0,0,0,.15381-.6211h.17432Z" transform="translate(-2)"/>
      </g>
      <line class="cls-7" x1="128.94444" y1="113.40576" x2="142.94444" y2="113.40576"/>
      <g>
        <path d="M136.78158,121.63525a1.34293,1.34293,0,0,1-1.4751-1.439,7.63291,7.63291,0,0,1,.61133-2.30274,3.5356,3.5356,0,0,0,.28808-1.07959c0-.312-.13183-.34765-.26367-.34765-.6958,0-1.01953,1.13916-1.11572,1.51123-.04785.16748-.06006.19189-.21582.19189-.06006,0-.17969,0-.17969-.12011,0-.07178.41943-1.84717,1.53516-1.84717a.89849.89849,0,0,1,.91113.97168,1.90269,1.90269,0,0,1-.13184.59961,9.04413,9.04413,0,0,0-.70752,2.60254c0,.396.13184.9956.77979.9956,1.3789,0,1.94287-3.01025,1.94287-3.34619a1.35475,1.35475,0,0,0-.32373-.94775.46243.46243,0,0,1-.15625-.32373.61648.61648,0,0,1,.57568-.55176c.34815,0,.4917.37207.4917.7915C139.348,117.30566,138.79622,121.63525,136.78158,121.63525Z" transform="translate(-2)"/>
        <path d="M140.7513,125.47852c-.27929,0-.8872,0-1.13183.021v-.2168h.22363c.62891,0,.6499-.08349.6499-.33544v-3.62012a2.08885,2.08885,0,0,1-.91553.18213v-.2168a1.7272,1.7272,0,0,0,1.272-.44727c.16064,0,.16064.01368.16064.18165v3.92041c0,.25878.021.33544.6499.33544h.22364v.2168C141.639,125.47852,141.03109,125.47852,140.7513,125.47852Z" transform="translate(-2)"/>
      </g>
    </g>
    <g>
      <g>
        <path d="M169.77572,99.84424a1.11394,1.11394,0,0,0-1.21143.8164l-1.6792,6.76368c-.06006.22754-.10791.24023-.23974.24023-.168,0-.17969-.02441-.23975-.2041l-2.57861-7.16016-1.54737,6.17676a1.14161,1.14161,0,0,0-.04785.29981c0,.17968.02393.49121.70752.51562.144,0,.228.01172.228.15625,0,.21582-.144.21582-.21582.21582-.37207,0-.79151-.03613-1.1753-.03613-.37207,0-.77978.03613-1.13964.03613-.084,0-.15577-.03613-.15577-.14453,0-.21582.13184-.22754.228-.22754a1.06533,1.06533,0,0,0,1.16309-.83984l1.583-6.35645a.69764.69764,0,0,0,.03613-.15527c0-.09668-.64746-.09668-.73145-.09668-.228,0-.32373,0-.32373-.14356,0-.22754.13184-.22754.32373-.22754h1.499c.25195,0,.26367.01172.33593.20313l2.24268,6.2373,1.31934-5.26562a1.11141,1.11141,0,0,0,.04785-.28809c0-.251-.09571-.49121-.71973-.51562-.10791,0-.21582-.01172-.21582-.14356,0-.22754.15625-.22754.21582-.22754.37207,0,.77979.03614,1.16357.03614s.7793-.03614,1.15137-.03614a.13893.13893,0,0,1,.15576.15528C169.9554,99.83252,169.81136,99.84424,169.77572,99.84424Z" transform="translate(-2)"/>
        <path d="M171.59554,111.66064h-2.59277c0-.168,0-.18164.07666-.25878l1.34179-1.49512a2.50484,2.50484,0,0,0,.73389-1.54492c0-.57325-.30078-1.13868-.93652-1.13868a1.007,1.007,0,0,0-.94336.71192.27068.27068,0,0,1,.09082-.00684.35335.35335,0,0,1,.37012.36328.36712.36712,0,1,1-.7334-.0205,1.29087,1.29087,0,0,1,1.30664-1.26465,1.37243,1.37243,0,0,1,1.48144,1.35547c0,.69922-.41894,1.07617-1.50927,2.041l-.74073.71973h1.25782a2.25116,2.25116,0,0,0,.66406-.05664,2.28957,2.28957,0,0,0,.15332-.6211h.1748Z" transform="translate(-2)"/>
      </g>
      <line class="cls-7" x1="156.94444" y1="113.40576" x2="170.94444" y2="113.40576"/>
      <g>
        <path d="M169.77572,115.68359a1.113,1.113,0,0,0-1.21143.81592l-1.6792,6.76416c-.06006.22754-.10791.23975-.23974.23975-.168,0-.17969-.02393-.23975-.2041l-2.57861-7.15967-1.54737,6.17627a1.14672,1.14672,0,0,0-.04785.2998c0,.18018.02393.4917.70752.51612.144,0,.228.01171.228.15576,0,.21582-.144.21582-.21582.21582-.37207,0-.79151-.03613-1.1753-.03613-.37207,0-.77978.03613-1.13964.03613-.084,0-.15577-.03613-.15577-.144,0-.21583.13184-.22754.228-.22754a1.06576,1.06576,0,0,0,1.16309-.83985l1.583-6.35644a.6965.6965,0,0,0,.03613-.15576c0-.0962-.64746-.0962-.73145-.0962-.228,0-.32373,0-.32373-.144,0-.22754.13184-.22754.32373-.22754h1.499c.25195,0,.26367.01172.33593.20362l2.24268,6.23681,1.31934-5.26514a1.11838,1.11838,0,0,0,.04785-.28808c0-.25147-.09571-.4917-.71973-.51563-.10791,0-.21582-.01171-.21582-.144,0-.22754.15625-.22754.21582-.22754.37207,0,.77979.03613,1.16357.03613s.7793-.03613,1.15137-.03613a.13928.13928,0,0,1,.15576.15576C169.9554,115.67188,169.81136,115.68359,169.77572,115.68359Z" transform="translate(-2)"/>
        <path d="M170.44906,127.47852c-.2793,0-.88721,0-1.13184.021v-.2168h.22363c.62891,0,.64991-.08349.64991-.33544v-3.62012a2.09,2.09,0,0,1-.91553.18213v-.2168a1.72718,1.72718,0,0,0,1.272-.44727c.16065,0,.16065.01368.16065.18165v3.92041c0,.25878.021.33544.6499.33544h.22363v.2168C171.33675,127.47852,170.72884,127.47852,170.44906,127.47852Z" transform="translate(-2)"/>
      </g>
    </g>
    <path d="M213.516,113.02881h-7.15967c-.18017,0-.4082,0-.4082-.23975s.228-.23974.396-.23974h7.18408c.168,0,.396,0,.396.23974S213.69613,113.02881,213.516,113.02881Zm.01221,2.32666h-7.18408c-.168,0-.396,0-.396-.23975s.228-.23974.4082-.23974H213.516c.18018,0,.4082,0,.4082.23974S213.69613,115.35547,213.52816,115.35547Z" transform="translate(-2)"/>
    <g>
      <g>
        <path d="M236.77572,99.84424a1.11394,1.11394,0,0,0-1.21143.8164l-1.6792,6.76368c-.06006.22754-.10791.24023-.23974.24023-.168,0-.17969-.02441-.23975-.2041l-2.57861-7.16016-1.54737,6.17676a1.14161,1.14161,0,0,0-.04785.29981c0,.17968.02393.49121.70752.51562.144,0,.228.01172.228.15625,0,.21582-.144.21582-.21582.21582-.37207,0-.79151-.03613-1.1753-.03613-.37207,0-.77978.03613-1.13964.03613-.084,0-.15577-.03613-.15577-.14453,0-.21582.13184-.22754.228-.22754a1.06533,1.06533,0,0,0,1.16309-.83984l1.583-6.35645a.69764.69764,0,0,0,.03613-.15527c0-.09668-.64746-.09668-.73145-.09668-.228,0-.32373,0-.32373-.14356,0-.22754.13184-.22754.32373-.22754h1.499c.25195,0,.26367.01172.33593.20313l2.24268,6.2373,1.31934-5.26562a1.11141,1.11141,0,0,0,.04785-.28809c0-.251-.09571-.49121-.71973-.51562-.10791,0-.21582-.01172-.21582-.14356,0-.22754.15625-.22754.21582-.22754.37207,0,.77979.03614,1.16357.03614s.7793-.03614,1.15137-.03614a.13893.13893,0,0,1,.15576.15528C236.9554,99.83252,236.81136,99.84424,236.77572,99.84424Z" transform="translate(-2)"/>
        <path d="M237.44906,111.63916c-.2793,0-.88721,0-1.13184.02148v-.21679h.22363c.62891,0,.64991-.084.64991-.33594v-3.62012a2.085,2.085,0,0,1-.91553.18262v-.2168a1.7272,1.7272,0,0,0,1.272-.44726c.16065,0,.16065.01367.16065.18164v3.91992c0,.25879.021.33594.6499.33594h.22363v.21679C238.33675,111.63916,237.72884,111.63916,237.44906,111.63916Z" transform="translate(-2)"/>
      </g>
      <line class="cls-7" x1="223.94444" y1="113.40576" x2="237.94444" y2="113.40576"/>
      <g>
        <path d="M236.77572,115.68359a1.113,1.113,0,0,0-1.21143.81592l-1.6792,6.76416c-.06006.22754-.10791.23975-.23974.23975-.168,0-.17969-.02393-.23975-.2041l-2.57861-7.15967-1.54737,6.17627a1.14672,1.14672,0,0,0-.04785.2998c0,.18018.02393.4917.70752.51612.144,0,.228.01171.228.15576,0,.21582-.144.21582-.21582.21582-.37207,0-.79151-.03613-1.1753-.03613-.37207,0-.77978.03613-1.13964.03613-.084,0-.15577-.03613-.15577-.144,0-.21583.13184-.22754.228-.22754a1.06576,1.06576,0,0,0,1.16309-.83985l1.583-6.35644a.6965.6965,0,0,0,.03613-.15576c0-.0962-.64746-.0962-.73145-.0962-.228,0-.32373,0-.32373-.144,0-.22754.13184-.22754.32373-.22754h1.499c.25195,0,.26367.01172.33593.20362l2.24268,6.23681,1.31934-5.26514a1.11838,1.11838,0,0,0,.04785-.28808c0-.25147-.09571-.4917-.71973-.51563-.10791,0-.21582-.01171-.21582-.144,0-.22754.15625-.22754.21582-.22754.37207,0,.77979.03613,1.16357.03613s.7793-.03613,1.15137-.03613a.13928.13928,0,0,1,.15576.15576C236.9554,115.67188,236.81136,115.68359,236.77572,115.68359Z" transform="translate(-2)"/>
        <path d="M238.59554,127.49951h-2.59277c0-.168,0-.18164.07666-.25879l1.34179-1.49511a2.50487,2.50487,0,0,0,.73389-1.54493c0-.57275-.30078-1.13867-.93652-1.13867a1.00746,1.00746,0,0,0-.94336.7124.27106.27106,0,0,1,.09082-.00683.35335.35335,0,0,1,.37012.36328.36712.36712,0,1,1-.7334-.021,1.29119,1.29119,0,0,1,1.30664-1.26465,1.37272,1.37272,0,0,1,1.48144,1.35547c0,.69922-.41894,1.07666-1.50927,2.041l-.74073.71973h1.25782a2.26972,2.26972,0,0,0,.66406-.05616,2.28889,2.28889,0,0,0,.15332-.62158h.1748Z" transform="translate(-2)"/>
      </g>
    </g>
    <path d="M223.90218,114.24023h-7.21973c-.15625,0-.44384,0-.44384-.28808,0-.29981.27588-.29981.44384-.29981h7.21973c.168,0,.44385,0,.44385.29981C224.346,114.24023,224.05794,114.24023,223.90218,114.24023Z" transform="translate(-2)"/>
  </g>
  <g>
    <g>
      <polyline class="cls-1" points="327.389 35.255 327.389 25.255 356.408 25.255 367.389 25.255"/>
      <g>
        <path d="M279.24447,10.22949a.89729.89729,0,0,1-.91114-.95947,2.17115,2.17115,0,0,1,.21582-.82764l.44336-1.187.36035-.9956a2.76676,2.76676,0,0,0,.21582-.86329c0-.27587-.13183-.33593-.26367-.33593-.69629,0-1.00781,1.11523-1.11621,1.51123-.04785.16748-.05957.19189-.21582.19189-.05957,0-.17969,0-.17969-.12012,0-.06005.40821-1.84716,1.53516-1.84716a.88434.88434,0,0,1,.89941.95947,1.67867,1.67867,0,0,1-.14355.67187l-.76758,2.05079a4.05735,4.05735,0,0,0-.3125,1.15136c0,.32373.168.33594.26465.33594.69531,0,1.01953-1.15137,1.11523-1.499.04786-.18018.04786-.2041.20411-.2041.084,0,.17968,0,.17968.12011C280.7679,8.43066,280.3724,10.22949,279.24447,10.22949Zm1.0791-6.7041a.50988.50988,0,0,1-.53906-.51562.81449.81449,0,0,1,.76757-.75586.50942.50942,0,0,1,.53907.51562A.8145.8145,0,0,1,280.32357,3.52539Z" transform="translate(-2)"/>
        <path d="M282.27767,14.07275c-.2793,0-.88672,0-1.13184.021V13.877h.22364c.6289,0,.65039-.08349.65039-.33545V9.92139a2.0929,2.0929,0,0,1-.916.18213v-.2168a1.72818,1.72818,0,0,0,1.27246-.44727c.16016,0,.16016.01368.16016.18164V13.5415c0,.25879.02148.33545.65039.33545h.22363v.2168C283.16536,14.07275,282.55794,14.07275,282.27767,14.07275Z" transform="translate(-2)"/>
      </g>
      <path class="cls-1" d="M301.38889,51.33846a4.45834,4.45834,0,0,0,0-8.91667V25.25513h-40" transform="translate(-2)"/>
      <path class="cls-2" d="M301.38889,60.25513a4.45834,4.45834,0,0,0,0-8.91667" transform="translate(-2)"/>
      <path class="cls-2" d="M301.38889,60.25513a4.45833,4.45833,0,0,1,0,8.91666" transform="translate(-2)"/>
      <path class="cls-1" d="M301.38889,69.17179a4.45834,4.45834,0,0,1,0,8.91667V95.25513h-40" transform="translate(-2)"/>
      <polyline class="cls-3" points="271.389 21.255 285.389 21.255 282.389 18.255"/>
      <g>
        <path class="cls-1" d="M329.38889,35.25513v7.16666a4.45834,4.45834,0,0,0,0,8.91667" transform="translate(-2)"/>
        <path class="cls-2" d="M329.38889,60.25513a4.45834,4.45834,0,0,1,0-8.91667" transform="translate(-2)"/>
        <path class="cls-2" d="M329.38889,60.25513a4.45833,4.45833,0,1,0,0,8.91666" transform="translate(-2)"/>
        <path class="cls-1" d="M329.38889,69.17179a4.45834,4.45834,0,0,0,0,8.91667v7.16667" transform="translate(-2)"/>
      </g>
      <polyline class="cls-1" points="327.389 85.255 327.389 95.255 356.408 95.255 367.389 95.255"/>
      <polyline class="cls-3" points="356.466 21.156 342.466 21.156 345.466 18.156"/>
      <g>
        <path d="M350.32161,10.22949a.89729.89729,0,0,1-.91113-.95947,2.17115,2.17115,0,0,1,.21582-.82764l.44336-1.187.36035-.9956a2.76676,2.76676,0,0,0,.21582-.86329c0-.27587-.13183-.33593-.26367-.33593-.69629,0-1.00781,1.11523-1.11621,1.51123-.04785.16748-.05957.19189-.21582.19189-.05957,0-.17969,0-.17969-.12012,0-.06005.40821-1.84716,1.53516-1.84716a.88434.88434,0,0,1,.89941.95947,1.67867,1.67867,0,0,1-.14355.67187l-.76758,2.05079a4.05735,4.05735,0,0,0-.3125,1.15136c0,.32373.168.33594.26465.33594.69531,0,1.01953-1.15137,1.11523-1.499.04785-.18018.04785-.2041.2041-.2041.084,0,.17969,0,.17969.12011C351.84505,8.43066,351.44954,10.22949,350.32161,10.22949Zm1.07911-6.7041a.50988.50988,0,0,1-.53907-.51562.8145.8145,0,0,1,.76758-.75586.50941.50941,0,0,1,.53906.51562A.81449.81449,0,0,1,351.40072,3.52539Z" transform="translate(-2)"/>
        <path d="M354.5013,14.09375h-2.59277c0-.168,0-.18164.07715-.25879l1.34179-1.49512a2.50676,2.50676,0,0,0,.7334-1.54492c0-.57275-.30078-1.13867-.93652-1.13867a1.00792,1.00792,0,0,0-.94336.7124.27447.27447,0,0,1,.09082-.00683.35306.35306,0,0,1,.37012.36328.36712.36712,0,1,1-.7334-.021,1.29151,1.29151,0,0,1,1.30664-1.26465,1.37272,1.37272,0,0,1,1.48144,1.35547c0,.69922-.41894,1.07666-1.50878,2.041l-.74122.71972h1.25782a2.26669,2.26669,0,0,0,.66406-.05615,2.25322,2.25322,0,0,0,.15332-.62158h.1748Z" transform="translate(-2)"/>
      </g>
      <circle class="cls-4" cx="292.05556" cy="77.90576" r="1"/>
      <circle class="cls-4" cx="334.38889" cy="42.25513" r="1"/>
      <g>
        <line class="cls-5" x1="281.42478" y1="46.56787" x2="286.42478" y2="46.56787"/>
        <line class="cls-5" x1="283.92478" y1="49.06787" x2="283.92478" y2="44.06787"/>
      </g>
      <line class="cls-5" x1="281.42478" y1="73.90674" x2="286.42478" y2="73.90674"/>
      <g>
        <path d="M285.22591,61.29736a1.34278,1.34278,0,0,1-1.47461-1.439,7.61841,7.61841,0,0,1,.61133-2.30274,3.53538,3.53538,0,0,0,.28809-1.07959c0-.312-.13184-.34765-.26368-.34765-.69628,0-1.01953,1.13916-1.11621,1.51123-.04785.16748-.05957.19189-.21582.19189-.05957,0-.17968,0-.17968-.12011,0-.07178.41992-1.84717,1.53515-1.84717a.89848.89848,0,0,1,.91113.97168,1.88933,1.88933,0,0,1-.13183.59961,9.05767,9.05767,0,0,0-.707,2.60254c0,.396.13183.9956.77929.9956,1.37891,0,1.94336-3.01025,1.94336-3.34619a1.35315,1.35315,0,0,0-.32422-.94775.46246.46246,0,0,1-.15625-.32373.61656.61656,0,0,1,.57618-.55176c.34765,0,.49121.37207.49121.7915C287.79232,56.96777,287.24056,61.29736,285.22591,61.29736Z" transform="translate(-2)"/>
        <path d="M289.19564,65.14063c-.2793,0-.88672,0-1.13184.021v-.2168h.22363c.62891,0,.6504-.08349.6504-.33544V60.98926a2.0907,2.0907,0,0,1-.916.18213v-.2168a1.72818,1.72818,0,0,0,1.27246-.44727c.16016,0,.16016.01368.16016.18164v3.92042c0,.25878.02148.33544.65039.33544h.22363v.2168C290.08333,65.14063,289.47591,65.14063,289.19564,65.14063Z" transform="translate(-2)"/>
      </g>
      <g>
        <line class="cls-5" x1="339.42478" y1="46.56787" x2="344.42478" y2="46.56787"/>
        <line class="cls-5" x1="341.92478" y1="49.06787" x2="341.92478" y2="44.06787"/>
      </g>
      <line class="cls-5" x1="339.42478" y1="73.90674" x2="344.42478" y2="73.90674"/>
      <g>
        <path d="M343.22591,61.29736a1.34278,1.34278,0,0,1-1.47461-1.439,7.61841,7.61841,0,0,1,.61133-2.30274,3.53538,3.53538,0,0,0,.28809-1.07959c0-.312-.13184-.34765-.26368-.34765-.69628,0-1.01953,1.13916-1.11621,1.51123-.04785.16748-.05957.19189-.21582.19189-.05957,0-.17968,0-.17968-.12011,0-.07178.41992-1.84717,1.53515-1.84717a.89848.89848,0,0,1,.91113.97168,1.88933,1.88933,0,0,1-.13183.59961,9.05767,9.05767,0,0,0-.707,2.60254c0,.396.13183.9956.77929.9956,1.37891,0,1.94336-3.01025,1.94336-3.34619a1.35315,1.35315,0,0,0-.32422-.94775.46246.46246,0,0,1-.15625-.32373.61656.61656,0,0,1,.57618-.55176c.34765,0,.49121.37207.49121.7915C345.79232,56.96777,345.24056,61.29736,343.22591,61.29736Z" transform="translate(-2)"/>
        <path d="M348.34212,65.16162h-2.59277c0-.168,0-.18164.07715-.25879l1.34179-1.49512a2.50676,2.50676,0,0,0,.7334-1.54492c0-.57275-.30078-1.13867-.93652-1.13867a1.00792,1.00792,0,0,0-.94336.7124.27447.27447,0,0,1,.09082-.00683.35306.35306,0,0,1,.37012.36328.36712.36712,0,1,1-.7334-.021,1.29151,1.29151,0,0,1,1.30664-1.26465,1.37272,1.37272,0,0,1,1.48144,1.35547c0,.69922-.41894,1.07666-1.50878,2.041l-.74122.71973h1.25782a2.2663,2.2663,0,0,0,.66406-.05616,2.28533,2.28533,0,0,0,.1543-.62158h.17382Z" transform="translate(-2)"/>
      </g>
      <g>
        <path d="M306.11556,7.39209a1.11305,1.11305,0,0,0-1.21191.81543l-1.67872,6.76465c-.06054.22754-.10839.23974-.24023.23974-.168,0-.17969-.02392-.23926-.2041l-2.5791-7.15967-1.54687,6.17627a1.14654,1.14654,0,0,0-.04786.29981c0,.18017.02344.4917.707.51611.14453,0,.22851.01172.22851.15576,0,.21582-.14453.21582-.21582.21582-.37207,0-.792-.03613-1.17578-.03613-.37207,0-.7793.03613-1.13965.03613-.084,0-.15527-.03613-.15527-.144,0-.21582.13183-.22754.22754-.22754a1.06545,1.06545,0,0,0,1.16308-.83984l1.583-6.35645a.69637.69637,0,0,0,.03613-.15576c0-.09619-.64746-.09619-.73144-.09619-.22754,0-.32324,0-.32324-.14355,0-.228.13183-.228.32324-.228h1.499c.25195,0,.26367.01172.33594.20361l2.24316,6.23682,1.31934-5.26514a1.13575,1.13575,0,0,0,.04785-.28809c0-.25146-.0957-.49169-.71973-.51562-.10839,0-.21582-.01172-.21582-.14355,0-.228.15625-.228.21582-.228.37207,0,.7793.03564,1.16309.03564s.7793-.03564,1.15137-.03564a.13943.13943,0,0,1,.15625.15576C306.29525,7.38037,306.15072,7.39209,306.11556,7.39209Z" transform="translate(-2)"/>
        <path d="M306.78841,19.187c-.2793,0-.88672,0-1.13183.021v-.2168h.22363c.6289,0,.65039-.0835.65039-.33545V15.03564a2.0929,2.0929,0,0,1-.916.18213V15.001a1.72817,1.72817,0,0,0,1.27246-.44727c.16016,0,.16016.01416.16016.18164v3.92041c0,.25879.02148.33545.65039.33545h.22363v.2168C307.67611,19.187,307.06868,19.187,306.78841,19.187Z" transform="translate(-2)"/>
        <path d="M314.45345,11.314a.6355.6355,0,1,1,.63574-.63574A.63989.63989,0,0,1,314.45345,11.314Zm0,3.898a.63574.63574,0,1,1,.63574-.63574A.63989.63989,0,0,1,314.45345,15.21191Z" transform="translate(-2)"/>
        <path d="M330.15658,7.39209a1.11205,1.11205,0,0,0-1.21094.81543l-1.67969,6.76465c-.05957.22754-.10742.23974-.23926.23974-.168,0-.17968-.02392-.24023-.2041l-2.57813-7.15967-1.54785,6.17627a1.14676,1.14676,0,0,0-.04785.29981c0,.18017.02441.4917.708.51611.14355,0,.22754.01172.22754.15576,0,.21582-.14356.21582-.21582.21582-.37207,0-.791-.03613-1.17481-.03613-.37207,0-.78027.03613-1.13965.03613-.084,0-.15625-.03613-.15625-.144,0-.21582.13184-.22754.22852-.22754a1.066,1.066,0,0,0,1.16309-.83984l1.583-6.35645a.6962.6962,0,0,0,.03614-.15576c0-.09619-.64747-.09619-.73145-.09619-.22852,0-.32422,0-.32422-.14355,0-.228.13184-.228.32422-.228h1.499c.252,0,.26368.01172.33594.20361l2.24219,6.23682,1.31933-5.26514a1.094,1.094,0,0,0,.04786-.28809c0-.25146-.09571-.49169-.71973-.51562-.10742,0-.21582-.01172-.21582-.14355,0-.228.15625-.228.21582-.228.37207,0,.78027.03564,1.16406.03564s.7793-.03564,1.15137-.03564a.13913.13913,0,0,1,.15527.15576C330.33626,7.38037,330.19271,7.39209,330.15658,7.39209Z" transform="translate(-2)"/>
        <path d="M331.97689,19.208h-2.59278c0-.16748,0-.18164.07618-.25879l1.34179-1.49512a2.50409,2.50409,0,0,0,.73438-1.54443c0-.57324-.30078-1.13916-.93653-1.13916a1.007,1.007,0,0,0-.94335.7124.26729.26729,0,0,1,.09082-.00684.35363.35363,0,0,1,.37011.36329.36712.36712,0,1,1-.7334-.021,1.29087,1.29087,0,0,1,1.30665-1.26465,1.37281,1.37281,0,0,1,1.48144,1.356c0,.69873-.41894,1.07617-1.50977,2.04053l-.74023.71972H331.18a2.27357,2.27357,0,0,0,.66407-.05615,2.32572,2.32572,0,0,0,.15332-.62158h.1748Z" transform="translate(-2)"/>
      </g>
      <line class="cls-6" x1="310.20833" y1="51.15576" x2="310.20833" y2="69.15576"/>
      <line class="cls-6" x1="316.56944" y1="51.15576" x2="316.56944" y2="69.15576"/>
    </g>
    <g>
      <path d="M293.90658,114.24023h-7.21973c-.15625,0-.44336,0-.44336-.28808,0-.29981.27539-.29981.44336-.29981h7.21973c.168,0,.44433,0,.44433.29981C294.35091,114.24023,294.06283,114.24023,293.90658,114.24023Z" transform="translate(-2)"/>
      <g>
        <line class="cls-7" x1="326.88889" y1="113.40576" x2="340.88889" y2="113.40576"/>
        <g>
          <path d="M334.74447,107.79639a.89729.89729,0,0,1-.91114-.95948,2.17111,2.17111,0,0,1,.21582-.82763l.44336-1.187.36035-.99561a2.7667,2.7667,0,0,0,.21582-.86328c0-.27588-.13183-.33594-.26367-.33594-.69629,0-1.00781,1.11524-1.11621,1.51123-.04785.16748-.05957.1919-.21582.1919-.05957,0-.17969,0-.17969-.12012,0-.06006.40821-1.84717,1.53516-1.84717a.88435.88435,0,0,1,.89941.95947,1.67874,1.67874,0,0,1-.14355.67188l-.76758,2.05078a4.05749,4.05749,0,0,0-.3125,1.15137c0,.32373.168.33593.26465.33593.69531,0,1.01953-1.15136,1.11523-1.499.04786-.18017.04786-.2041.20411-.2041.084,0,.17968,0,.17968.12012C336.2679,105.99756,335.8724,107.79639,334.74447,107.79639Zm1.0791-6.7041a.50988.50988,0,0,1-.53906-.51563.81449.81449,0,0,1,.76757-.75586.50942.50942,0,0,1,.53907.51563A.81451.81451,0,0,1,335.82357,101.09229Z" transform="translate(-2)"/>
          <path d="M338.92415,111.66064h-2.59277c0-.168,0-.18164.07715-.25878l1.3418-1.49512a2.50682,2.50682,0,0,0,.73339-1.54492c0-.57276-.30078-1.13868-.93652-1.13868a1.00793,1.00793,0,0,0-.94336.71241.27411.27411,0,0,1,.09082-.00684.35306.35306,0,0,1,.37012.36328.36712.36712,0,1,1-.7334-.021,1.29151,1.29151,0,0,1,1.30664-1.26465,1.37273,1.37273,0,0,1,1.48145,1.35547c0,.69922-.41895,1.07666-1.50879,2.041l-.74121.71973h1.25781a2.26666,2.26666,0,0,0,.66406-.05615,2.2533,2.2533,0,0,0,.15332-.62159h.17481Z" transform="translate(-2)"/>
        </g>
        <g>
          <path d="M334.74447,123.22949a.89729.89729,0,0,1-.91114-.95947,2.17115,2.17115,0,0,1,.21582-.82764l.44336-1.187.36035-.9956a2.76676,2.76676,0,0,0,.21582-.86329c0-.27587-.13183-.33593-.26367-.33593-.69629,0-1.00781,1.11523-1.11621,1.51123-.04785.16748-.05957.19189-.21582.19189-.05957,0-.17969,0-.17969-.12012,0-.06005.40821-1.84716,1.53516-1.84716a.88434.88434,0,0,1,.89941.95947,1.67867,1.67867,0,0,1-.14355.67187l-.76758,2.05079a4.05735,4.05735,0,0,0-.3125,1.15136c0,.32373.168.33594.26465.33594.69531,0,1.01953-1.15137,1.11523-1.499.04786-.18018.04786-.2041.20411-.2041.084,0,.17968,0,.17968.12011C336.2679,121.43066,335.8724,123.22949,334.74447,123.22949Zm1.0791-6.7041a.50988.50988,0,0,1-.53906-.51562.81449.81449,0,0,1,.76757-.75586.50942.50942,0,0,1,.53907.51562A.8145.8145,0,0,1,335.82357,116.52539Z" transform="translate(-2)"/>
          <path d="M337.77767,127.07275c-.2793,0-.88672,0-1.13184.021v-.2168h.22364c.6289,0,.65039-.08349.65039-.33545v-3.62011a2.0929,2.0929,0,0,1-.916.18213v-.2168a1.72818,1.72818,0,0,0,1.27246-.44727c.16016,0,.16016.01368.16016.18164v3.92041c0,.25879.02148.33545.65039.33545h.22363v.2168C338.66536,127.07275,338.05794,127.07275,337.77767,127.07275Z" transform="translate(-2)"/>
        </g>
      </g>
      <path d="M284.46029,113.02881h-7.15918c-.18067,0-.40821,0-.40821-.23975s.22754-.23974.39551-.23974H284.473c.168,0,.39551,0,.39551.23974S284.64095,113.02881,284.46029,113.02881Zm.01269,2.32666h-7.18457c-.168,0-.39551,0-.39551-.23975s.22754-.23974.40821-.23974h7.15918c.18066,0,.4082,0,.4082.23974S284.64095,115.35547,284.473,115.35547Z" transform="translate(-2)"/>
      <g>
        <g>
          <path d="M265.72591,107.79639a1.34292,1.34292,0,0,1-1.47461-1.43946,7.62538,7.62538,0,0,1,.61133-2.30273,3.53314,3.53314,0,0,0,.28809-1.0791c0-.3125-.13184-.34766-.26368-.34766-.69628,0-1.01953,1.13867-1.11621,1.51074-.04785.168-.05957.19239-.21582.19239-.05957,0-.17968,0-.17968-.12012,0-.07227.41992-1.84766,1.53515-1.84766a.89848.89848,0,0,1,.91113.97168,1.88324,1.88324,0,0,1-.13183.59961,9.06594,9.06594,0,0,0-.707,2.60254c0,.39649.13183.99609.77929.99609,1.37891,0,1.94336-3.01074,1.94336-3.34667a1.35136,1.35136,0,0,0-.32422-.94727.46362.46362,0,0,1-.15625-.32422.617.617,0,0,1,.57618-.55176c.34765,0,.49121.37207.49121.792C268.29232,103.46631,267.74056,107.79639,265.72591,107.79639Z" transform="translate(-2)"/>
          <path d="M270.84212,111.66064h-2.59277c0-.168,0-.18164.07715-.25878l1.34179-1.49512a2.50678,2.50678,0,0,0,.7334-1.54492c0-.57325-.30078-1.13868-.93652-1.13868a1.00744,1.00744,0,0,0-.94336.71192.27408.27408,0,0,1,.09082-.00684.35306.35306,0,0,1,.37012.36328.36712.36712,0,1,1-.7334-.0205,1.2912,1.2912,0,0,1,1.30664-1.26465,1.37243,1.37243,0,0,1,1.48144,1.35547c0,.69922-.41894,1.07617-1.50878,2.041l-.74122.71973h1.25782a2.24777,2.24777,0,0,0,.66406-.05664,2.286,2.286,0,0,0,.1543-.6211h.17382Z" transform="translate(-2)"/>
        </g>
        <line class="cls-7" x1="257.88889" y1="113.40576" x2="271.88889" y2="113.40576"/>
        <g>
          <path d="M265.72591,121.63525a1.34278,1.34278,0,0,1-1.47461-1.439,7.61841,7.61841,0,0,1,.61133-2.30274,3.53538,3.53538,0,0,0,.28809-1.07959c0-.312-.13184-.34765-.26368-.34765-.69628,0-1.01953,1.13916-1.11621,1.51123-.04785.16748-.05957.19189-.21582.19189-.05957,0-.17968,0-.17968-.12011,0-.07178.41992-1.84717,1.53515-1.84717a.89848.89848,0,0,1,.91113.97168,1.88927,1.88927,0,0,1-.13183.59961,9.05767,9.05767,0,0,0-.707,2.60254c0,.396.13183.9956.77929.9956,1.37891,0,1.94336-3.01025,1.94336-3.34619a1.35315,1.35315,0,0,0-.32422-.94775.46246.46246,0,0,1-.15625-.32373.61656.61656,0,0,1,.57618-.55176c.34765,0,.49121.37207.49121.7915C268.29232,117.30566,267.74056,121.63525,265.72591,121.63525Z" transform="translate(-2)"/>
          <path d="M269.69564,125.47852c-.2793,0-.88672,0-1.13184.021v-.2168h.22363c.62891,0,.6504-.08349.6504-.33544v-3.62012a2.0907,2.0907,0,0,1-.916.18213v-.2168a1.72818,1.72818,0,0,0,1.27246-.44727c.16016,0,.16016.01368.16016.18165v3.92041c0,.25878.02148.33544.65039.33544h.22363v.2168C270.58333,125.47852,269.97591,125.47852,269.69564,125.47852Z" transform="translate(-2)"/>
        </g>
      </g>
      <g>
        <g>
          <path d="M306.72005,99.84424a1.11345,1.11345,0,0,0-1.21094.8164l-1.67968,6.76368c-.05957.22754-.10742.24023-.23926.24023-.168,0-.17969-.02441-.24024-.2041l-2.57812-7.16016-1.54785,6.17676a1.14161,1.14161,0,0,0-.04785.29981c0,.17968.02441.49121.708.51562.14356,0,.22754.01172.22754.15625,0,.21582-.14355.21582-.21582.21582-.37207,0-.791-.03613-1.1748-.03613-.37207,0-.78027.03613-1.13965.03613-.084,0-.15625-.03613-.15625-.14453,0-.21582.13184-.22754.22852-.22754a1.06561,1.06561,0,0,0,1.16308-.83984l1.583-6.35645a.69764.69764,0,0,0,.03613-.15527c0-.09668-.64746-.09668-.73144-.09668-.22852,0-.32422,0-.32422-.14356,0-.22754.13183-.22754.32422-.22754h1.499c.252,0,.26367.01172.33594.20313l2.24219,6.2373,1.31933-5.26562a1.09066,1.09066,0,0,0,.04785-.28809c0-.251-.0957-.49121-.71972-.51562-.10743,0-.21582-.01172-.21582-.14356,0-.22754.15625-.22754.21582-.22754.37207,0,.78027.03614,1.16406.03614s.7793-.03614,1.15137-.03614a.13878.13878,0,0,1,.15527.15528C306.89974,99.83252,306.75618,99.84424,306.72005,99.84424Z" transform="translate(-2)"/>
          <path d="M308.54036,111.66064h-2.59277c0-.168,0-.18164.07617-.25878l1.3418-1.49512a2.50289,2.50289,0,0,0,.73437-1.54492c0-.57325-.30078-1.13868-.93652-1.13868a1.00655,1.00655,0,0,0-.94336.71192.26733.26733,0,0,1,.09082-.00684.35364.35364,0,0,1,.37012.36328.36712.36712,0,1,1-.7334-.0205,1.29055,1.29055,0,0,1,1.30664-1.26465,1.37244,1.37244,0,0,1,1.48145,1.35547c0,.69922-.41895,1.07617-1.50977,2.041l-.74023.71973h1.25781a2.25448,2.25448,0,0,0,.66406-.05664,2.32571,2.32571,0,0,0,.15332-.6211h.17481Z" transform="translate(-2)"/>
        </g>
        <line class="cls-7" x1="293.88889" y1="113.40576" x2="307.88889" y2="113.40576"/>
        <g>
          <path d="M306.72005,115.68359a1.11251,1.11251,0,0,0-1.21094.81592l-1.67968,6.76416c-.05957.22754-.10742.23975-.23926.23975-.168,0-.17969-.02393-.24024-.2041l-2.57812-7.15967-1.54785,6.17627a1.14672,1.14672,0,0,0-.04785.2998c0,.18018.02441.4917.708.51612.14356,0,.22754.01171.22754.15576,0,.21582-.14355.21582-.21582.21582-.37207,0-.791-.03613-1.1748-.03613-.37207,0-.78027.03613-1.13965.03613-.084,0-.15625-.03613-.15625-.144,0-.21583.13184-.22754.22852-.22754a1.06605,1.06605,0,0,0,1.16308-.83985l1.583-6.35644a.6965.6965,0,0,0,.03613-.15576c0-.0962-.64746-.0962-.73144-.0962-.22852,0-.32422,0-.32422-.144,0-.22754.13183-.22754.32422-.22754h1.499c.252,0,.26367.01172.33594.20362l2.24219,6.23681,1.31933-5.26514a1.09736,1.09736,0,0,0,.04785-.28808c0-.25147-.0957-.4917-.71972-.51563-.10743,0-.21582-.01171-.21582-.144,0-.22754.15625-.22754.21582-.22754.37207,0,.78027.03613,1.16406.03613s.7793-.03613,1.15137-.03613a.13913.13913,0,0,1,.15527.15576C306.89974,115.67188,306.75618,115.68359,306.72005,115.68359Z" transform="translate(-2)"/>
          <path d="M307.39388,127.47852c-.2793,0-.8877,0-1.13184.021v-.2168h.22364c.6289,0,.64941-.08349.64941-.33544v-3.62012a2.087,2.087,0,0,1-.915.18213v-.2168a1.72621,1.72621,0,0,0,1.27149-.44727c.16113,0,.16113.01368.16113.18165v3.92041c0,.25878.02051.33544.64941.33544h.22364v.2168C308.28158,127.47852,307.67318,127.47852,307.39388,127.47852Z" transform="translate(-2)"/>
        </g>
      </g>
      <path d="M353.46029,113.02881h-7.15918c-.18067,0-.40821,0-.40821-.23975s.22754-.23974.39551-.23974H353.473c.168,0,.39551,0,.39551.23974S353.64095,113.02881,353.46029,113.02881Zm.01269,2.32666h-7.18457c-.168,0-.39551,0-.39551-.23975s.22754-.23974.40821-.23974h7.15918c.18066,0,.4082,0,.4082.23974S353.64095,115.35547,353.473,115.35547Z" transform="translate(-2)"/>
      <g>
        <g>
          <path d="M367.72005,99.84424a1.11345,1.11345,0,0,0-1.21094.8164l-1.67968,6.76368c-.05957.22754-.10742.24023-.23926.24023-.168,0-.17969-.02441-.24024-.2041l-2.57812-7.16016-1.54785,6.17676a1.14161,1.14161,0,0,0-.04785.29981c0,.17968.02441.49121.708.51562.14356,0,.22754.01172.22754.15625,0,.21582-.14355.21582-.21582.21582-.37207,0-.791-.03613-1.1748-.03613-.37207,0-.78027.03613-1.13965.03613-.084,0-.15625-.03613-.15625-.14453,0-.21582.13184-.22754.22852-.22754a1.06561,1.06561,0,0,0,1.16308-.83984l1.583-6.35645a.69764.69764,0,0,0,.03613-.15527c0-.09668-.64746-.09668-.73144-.09668-.22852,0-.32422,0-.32422-.14356,0-.22754.13183-.22754.32422-.22754h1.499c.252,0,.26367.01172.33594.20313l2.24219,6.2373,1.31933-5.26562a1.09066,1.09066,0,0,0,.04785-.28809c0-.251-.0957-.49121-.71972-.51562-.10743,0-.21582-.01172-.21582-.14356,0-.22754.15625-.22754.21582-.22754.37207,0,.78027.03614,1.16406.03614s.7793-.03614,1.15137-.03614a.13878.13878,0,0,1,.15527.15528C367.89974,99.83252,367.75618,99.84424,367.72005,99.84424Z" transform="translate(-2)"/>
          <path d="M368.39388,111.63916c-.2793,0-.8877,0-1.13184.02148v-.21679h.22364c.6289,0,.64941-.084.64941-.33594v-3.62012a2.0821,2.0821,0,0,1-.915.18262v-.2168a1.72623,1.72623,0,0,0,1.27149-.44726c.16113,0,.16113.01367.16113.18164v3.91992c0,.25879.02051.33594.64941.33594h.22364v.21679C369.28158,111.63916,368.67318,111.63916,368.39388,111.63916Z" transform="translate(-2)"/>
        </g>
        <line class="cls-7" x1="354.88889" y1="113.40576" x2="368.88889" y2="113.40576"/>
        <g>
          <path d="M367.72005,115.68359a1.11251,1.11251,0,0,0-1.21094.81592l-1.67968,6.76416c-.05957.22754-.10742.23975-.23926.23975-.168,0-.17969-.02393-.24024-.2041l-2.57812-7.15967-1.54785,6.17627a1.14672,1.14672,0,0,0-.04785.2998c0,.18018.02441.4917.708.51612.14356,0,.22754.01171.22754.15576,0,.21582-.14355.21582-.21582.21582-.37207,0-.791-.03613-1.1748-.03613-.37207,0-.78027.03613-1.13965.03613-.084,0-.15625-.03613-.15625-.144,0-.21583.13184-.22754.22852-.22754a1.06605,1.06605,0,0,0,1.16308-.83985l1.583-6.35644a.6965.6965,0,0,0,.03613-.15576c0-.0962-.64746-.0962-.73144-.0962-.22852,0-.32422,0-.32422-.144,0-.22754.13183-.22754.32422-.22754h1.499c.252,0,.26367.01172.33594.20362l2.24219,6.23681,1.31933-5.26514a1.09736,1.09736,0,0,0,.04785-.28808c0-.25147-.0957-.4917-.71972-.51563-.10743,0-.21582-.01171-.21582-.144,0-.22754.15625-.22754.21582-.22754.37207,0,.78027.03613,1.16406.03613s.7793-.03613,1.15137-.03613a.13913.13913,0,0,1,.15527.15576C367.89974,115.67188,367.75618,115.68359,367.72005,115.68359Z" transform="translate(-2)"/>
          <path d="M369.54036,127.49951h-2.59277c0-.168,0-.18164.07617-.25879l1.3418-1.49511a2.50292,2.50292,0,0,0,.73437-1.54493c0-.57275-.30078-1.13867-.93652-1.13867a1.007,1.007,0,0,0-.94336.7124.26771.26771,0,0,1,.09082-.00683.35364.35364,0,0,1,.37012.36328.36712.36712,0,1,1-.7334-.021,1.29086,1.29086,0,0,1,1.30664-1.26465,1.37273,1.37273,0,0,1,1.48145,1.35547c0,.69922-.41895,1.07666-1.50977,2.041l-.74023.71973h1.25781a2.27307,2.27307,0,0,0,.66406-.05616,2.325,2.325,0,0,0,.15332-.62158h.17481Z" transform="translate(-2)"/>
        </g>
      </g>
    </g>
  </g>
  <g>
    <g>
      <polyline class="cls-1" points="459.333 35.255 459.333 25.255 488.353 25.255 499.333 25.255"/>
      <g>
        <path d="M411.1888,10.22949a.89729.89729,0,0,1-.91113-.95947,2.17115,2.17115,0,0,1,.21582-.82764l.44336-1.187.36035-.9956a2.767,2.767,0,0,0,.21582-.86329c0-.27587-.13184-.33593-.26367-.33593-.69629,0-1.00781,1.11523-1.11621,1.51123-.04785.16748-.05957.19189-.21582.19189-.05957,0-.17969,0-.17969-.12012,0-.06005.4082-1.84716,1.53516-1.84716a.88434.88434,0,0,1,.89941.95947,1.67885,1.67885,0,0,1-.14355.67187l-.76758,2.05079a4.05735,4.05735,0,0,0-.3125,1.15136c0,.32373.168.33594.26465.33594.69531,0,1.01953-1.15137,1.11523-1.499.04785-.18018.04785-.2041.2041-.2041.084,0,.17969,0,.17969.12011C412.71224,8.43066,412.31673,10.22949,411.1888,10.22949Zm1.0791-6.7041a.50988.50988,0,0,1-.53906-.51562.8145.8145,0,0,1,.76758-.75586.50942.50942,0,0,1,.53906.51562A.8145.8145,0,0,1,412.2679,3.52539Z" transform="translate(-2)"/>
        <path d="M414.222,14.07275c-.2793,0-.88672,0-1.13184.021V13.877h.22363c.62891,0,.65039-.08349.65039-.33545V9.92139a2.09286,2.09286,0,0,1-.916.18213v-.2168a1.72819,1.72819,0,0,0,1.27246-.44727c.16015,0,.16015.01368.16015.18164V13.5415c0,.25879.02149.33545.65039.33545h.22364v.2168C415.1097,14.07275,414.50228,14.07275,414.222,14.07275Z" transform="translate(-2)"/>
      </g>
      <path class="cls-1" d="M433.33333,51.33846a4.45834,4.45834,0,1,0,0-8.91667V25.25513h-40" transform="translate(-2)"/>
      <path class="cls-2" d="M433.33333,60.25513a4.45833,4.45833,0,1,0,0-8.91667" transform="translate(-2)"/>
      <path class="cls-2" d="M433.33333,60.25513a4.45833,4.45833,0,1,1,0,8.91666" transform="translate(-2)"/>
      <path class="cls-1" d="M433.33333,69.17179a4.45833,4.45833,0,1,1,0,8.91667V95.25513h-40" transform="translate(-2)"/>
      <polyline class="cls-3" points="403.333 21.255 417.333 21.255 414.333 18.255"/>
      <g>
        <path class="cls-1" d="M461.33333,35.25513v7.16666a4.45834,4.45834,0,0,0,0,8.91667" transform="translate(-2)"/>
        <path class="cls-2" d="M461.33333,60.25513a4.45834,4.45834,0,0,1,0-8.91667" transform="translate(-2)"/>
        <path class="cls-2" d="M461.33333,60.25513a4.45833,4.45833,0,1,0,0,8.91666" transform="translate(-2)"/>
        <path class="cls-1" d="M461.33333,69.17179a4.45834,4.45834,0,0,0,0,8.91667v7.16667" transform="translate(-2)"/>
      </g>
      <polyline class="cls-1" points="459.333 85.255 459.333 95.255 488.353 95.255 499.333 95.255"/>
      <polyline class="cls-3" points="474.41 21.156 488.41 21.156 485.41 18.156"/>
      <g>
        <path d="M482.266,10.22949a.89729.89729,0,0,1-.91113-.95947,2.17115,2.17115,0,0,1,.21582-.82764l.44336-1.187.36035-.9956a2.767,2.767,0,0,0,.21582-.86329c0-.27587-.13184-.33593-.26367-.33593-.69629,0-1.00782,1.11523-1.11621,1.51123-.04786.16748-.05957.19189-.21582.19189-.05957,0-.17969,0-.17969-.12012,0-.06005.4082-1.84716,1.53515-1.84716a.88435.88435,0,0,1,.89942.95947,1.67872,1.67872,0,0,1-.14356.67187l-.76757,2.05079a4.05735,4.05735,0,0,0-.3125,1.15136c0,.32373.168.33594.26464.33594.69532,0,1.01954-1.15137,1.11524-1.499.04785-.18018.04785-.2041.2041-.2041.084,0,.17969,0,.17969.12011C483.78939,8.43066,483.39388,10.22949,482.266,10.22949Zm1.0791-6.7041a.50988.50988,0,0,1-.53906-.51562.8145.8145,0,0,1,.76758-.75586.50942.50942,0,0,1,.53906.51562A.8145.8145,0,0,1,483.34505,3.52539Z" transform="translate(-2)"/>
        <path d="M486.44564,14.09375h-2.59278c0-.168,0-.18164.07715-.25879l1.3418-1.49512a2.50676,2.50676,0,0,0,.7334-1.54492c0-.57275-.30078-1.13867-.93653-1.13867a1.00791,1.00791,0,0,0-.94335.7124.27443.27443,0,0,1,.09082-.00683.35306.35306,0,0,1,.37011.36328.36712.36712,0,1,1-.7334-.021,1.29151,1.29151,0,0,1,1.30665-1.26465,1.37273,1.37273,0,0,1,1.48144,1.35547c0,.69922-.41894,1.07666-1.50879,2.041l-.74121.71972h1.25781a2.26673,2.26673,0,0,0,.66407-.05615,2.25322,2.25322,0,0,0,.15332-.62158h.1748Z" transform="translate(-2)"/>
      </g>
      <circle class="cls-4" cx="424.33333" cy="42.25513" r="1"/>
      <circle class="cls-4" cx="466.33333" cy="77.90576" r="1"/>
      <g>
        <line class="cls-5" x1="413.36922" y1="46.56787" x2="418.36922" y2="46.56787"/>
        <line class="cls-5" x1="415.86922" y1="49.06787" x2="415.86922" y2="44.06787"/>
      </g>
      <line class="cls-5" x1="413.36922" y1="73.90674" x2="418.36922" y2="73.90674"/>
      <g>
        <path d="M417.17025,61.29736a1.34278,1.34278,0,0,1-1.47461-1.439,7.61841,7.61841,0,0,1,.61133-2.30274,3.5356,3.5356,0,0,0,.28808-1.07959c0-.312-.13183-.34765-.26367-.34765-.69629,0-1.01953,1.13916-1.11621,1.51123-.04785.16748-.05957.19189-.21582.19189-.05957,0-.17969,0-.17969-.12011,0-.07178.41992-1.84717,1.53516-1.84717a.89849.89849,0,0,1,.91113.97168,1.88934,1.88934,0,0,1-.13184.59961,9.05767,9.05767,0,0,0-.707,2.60254c0,.396.13184.9956.7793.9956,1.37891,0,1.94336-3.01025,1.94336-3.34619a1.35315,1.35315,0,0,0-.32422-.94775.46246.46246,0,0,1-.15625-.32373.61656.61656,0,0,1,.57617-.55176c.34766,0,.49121.37207.49121.7915C419.73665,56.96777,419.1849,61.29736,417.17025,61.29736Z" transform="translate(-2)"/>
        <path d="M421.14,65.14063c-.27929,0-.88671,0-1.13183.021v-.2168h.22363c.62891,0,.65039-.08349.65039-.33544V60.98926a2.09066,2.09066,0,0,1-.916.18213v-.2168a1.72819,1.72819,0,0,0,1.27246-.44727c.16015,0,.16015.01368.16015.18164v3.92042c0,.25878.02149.33544.65039.33544h.22364v.2168C422.02767,65.14063,421.42025,65.14063,421.14,65.14063Z" transform="translate(-2)"/>
      </g>
      <g>
        <line class="cls-5" x1="471.36922" y1="46.56787" x2="476.36922" y2="46.56787"/>
        <line class="cls-5" x1="473.86922" y1="49.06787" x2="473.86922" y2="44.06787"/>
      </g>
      <line class="cls-5" x1="471.36922" y1="73.90674" x2="476.36922" y2="73.90674"/>
      <g>
        <path d="M475.17025,61.29736a1.34278,1.34278,0,0,1-1.47461-1.439,7.61841,7.61841,0,0,1,.61133-2.30274,3.5356,3.5356,0,0,0,.28808-1.07959c0-.312-.13183-.34765-.26367-.34765-.69629,0-1.01953,1.13916-1.11621,1.51123-.04785.16748-.05957.19189-.21582.19189-.05957,0-.17969,0-.17969-.12011,0-.07178.41992-1.84717,1.53516-1.84717a.89849.89849,0,0,1,.91113.97168,1.88934,1.88934,0,0,1-.13184.59961,9.05767,9.05767,0,0,0-.707,2.60254c0,.396.13184.9956.7793.9956,1.37891,0,1.94336-3.01025,1.94336-3.34619a1.35315,1.35315,0,0,0-.32422-.94775.46246.46246,0,0,1-.15625-.32373.61656.61656,0,0,1,.57617-.55176c.34766,0,.49121.37207.49121.7915C477.73665,56.96777,477.1849,61.29736,475.17025,61.29736Z" transform="translate(-2)"/>
        <path d="M480.28646,65.16162h-2.59278c0-.168,0-.18164.07715-.25879l1.3418-1.49512a2.50676,2.50676,0,0,0,.7334-1.54492c0-.57275-.30078-1.13867-.93652-1.13867a1.00792,1.00792,0,0,0-.94336.7124.27443.27443,0,0,1,.09082-.00683.35306.35306,0,0,1,.37011.36328.36712.36712,0,1,1-.7334-.021,1.29151,1.29151,0,0,1,1.30665-1.26465,1.37273,1.37273,0,0,1,1.48144,1.35547c0,.69922-.41894,1.07666-1.50879,2.041l-.74121.71973h1.25781a2.26634,2.26634,0,0,0,.66407-.05616,2.285,2.285,0,0,0,.15429-.62158h.17383Z" transform="translate(-2)"/>
      </g>
      <g>
        <path d="M438.0599,7.39209a1.11306,1.11306,0,0,0-1.21192.81543l-1.67871,6.76465c-.06055.22754-.1084.23974-.24023.23974-.168,0-.17969-.02392-.23926-.2041l-2.5791-7.15967-1.54688,6.17627a1.14676,1.14676,0,0,0-.04785.29981c0,.18017.02344.4917.707.51611.14453,0,.22852.01172.22852.15576,0,.21582-.14453.21582-.21582.21582-.37207,0-.792-.03613-1.17578-.03613-.37207,0-.7793.03613-1.13965.03613-.084,0-.15528-.03613-.15528-.144,0-.21582.13184-.22754.22754-.22754a1.06545,1.06545,0,0,0,1.16309-.83984l1.583-6.35645a.69637.69637,0,0,0,.03613-.15576c0-.09619-.64746-.09619-.73145-.09619-.22753,0-.32324,0-.32324-.14355,0-.228.13184-.228.32324-.228h1.499c.25195,0,.26367.01172.33594.20361l2.24316,6.23682,1.31934-5.26514a1.13619,1.13619,0,0,0,.04785-.28809c0-.25146-.09571-.49169-.71973-.51562-.1084,0-.21582-.01172-.21582-.14355,0-.228.15625-.228.21582-.228.37207,0,.7793.03564,1.16309.03564s.77929-.03564,1.15136-.03564a.13943.13943,0,0,1,.15625.15576C438.23958,7.38037,438.09505,7.39209,438.0599,7.39209Z" transform="translate(-2)"/>
        <path d="M438.73275,19.187c-.2793,0-.88672,0-1.13184.021v-.2168h.22363c.62891,0,.65039-.0835.65039-.33545V15.03564a2.09284,2.09284,0,0,1-.916.18213V15.001a1.72818,1.72818,0,0,0,1.27246-.44727c.16016,0,.16016.01416.16016.18164v3.92041c0,.25879.02148.33545.65039.33545h.22363v.2168C439.62044,19.187,439.013,19.187,438.73275,19.187Z" transform="translate(-2)"/>
        <path d="M446.39779,11.314a.6355.6355,0,1,1,.63574-.63574A.6399.6399,0,0,1,446.39779,11.314Zm0,3.898a.63574.63574,0,1,1,.63574-.63574A.6399.6399,0,0,1,446.39779,15.21191Z" transform="translate(-2)"/>
        <path d="M462.10091,7.39209a1.11206,1.11206,0,0,0-1.21094.81543l-1.67968,6.76465c-.05957.22754-.10743.23974-.23926.23974-.168,0-.17969-.02392-.24024-.2041l-2.57812-7.15967-1.54785,6.17627a1.14676,1.14676,0,0,0-.04785.29981c0,.18017.02441.4917.708.51611.14356,0,.22754.01172.22754.15576,0,.21582-.14355.21582-.21582.21582-.37207,0-.791-.03613-1.1748-.03613-.37207,0-.78028.03613-1.13965.03613-.084,0-.15625-.03613-.15625-.144,0-.21582.13184-.22754.22852-.22754a1.066,1.066,0,0,0,1.16308-.83984l1.583-6.35645a.69637.69637,0,0,0,.03613-.15576c0-.09619-.64746-.09619-.73144-.09619-.22852,0-.32422,0-.32422-.14355,0-.228.13183-.228.32422-.228h1.499c.25195,0,.26367.01172.33594.20361l2.24218,6.23682,1.31934-5.26514a1.09445,1.09445,0,0,0,.04785-.28809c0-.25146-.0957-.49169-.71972-.51562-.10743,0-.21582-.01172-.21582-.14355,0-.228.15625-.228.21582-.228.37207,0,.78027.03564,1.16406.03564s.7793-.03564,1.15137-.03564a.13913.13913,0,0,1,.15527.15576C462.2806,7.38037,462.137,7.39209,462.10091,7.39209Z" transform="translate(-2)"/>
        <path d="M463.92122,19.208h-2.59277c0-.16748,0-.18164.07617-.25879l1.3418-1.49512a2.50413,2.50413,0,0,0,.73437-1.54443c0-.57324-.30078-1.13916-.93652-1.13916a1.007,1.007,0,0,0-.94336.7124.26733.26733,0,0,1,.09082-.00684.35364.35364,0,0,1,.37012.36329.36712.36712,0,1,1-.7334-.021,1.29086,1.29086,0,0,1,1.30664-1.26465,1.37281,1.37281,0,0,1,1.48145,1.356c0,.69873-.41895,1.07617-1.50977,2.04053l-.74023.71972h1.25781a2.27346,2.27346,0,0,0,.66406-.05615,2.325,2.325,0,0,0,.15332-.62158h.17481Z" transform="translate(-2)"/>
      </g>
      <line class="cls-6" x1="442.15278" y1="51.15576" x2="442.15278" y2="69.15576"/>
      <line class="cls-6" x1="448.51389" y1="51.15576" x2="448.51389" y2="69.15576"/>
    </g>
    <g>
      <g>
        <path d="M422.85091,114.74414h-7.21973c-.15625,0-.44335,0-.44335-.28809,0-.2998.27539-.2998.44335-.2998h7.21973c.168,0,.44434,0,.44434.2998C423.29525,114.74414,423.00716,114.74414,422.85091,114.74414Z" transform="translate(-2)"/>
        <path d="M413.40462,113.53271h-7.15918c-.18066,0-.4082,0-.4082-.23974s.22754-.23975.39551-.23975h7.18457c.168,0,.39551,0,.39551.23975S413.58529,113.53271,413.40462,113.53271Zm.0127,2.32667h-7.18457c-.168,0-.39551,0-.39551-.23975s.22754-.23975.4082-.23975h7.15918c.18067,0,.40821,0,.40821.23975S413.58529,115.85938,413.41732,115.85938Z" transform="translate(-2)"/>
        <g>
          <g>
            <path d="M394.67025,108.79639a1.34292,1.34292,0,0,1-1.47461-1.43946,7.62538,7.62538,0,0,1,.61133-2.30273,3.53336,3.53336,0,0,0,.28808-1.0791c0-.3125-.13183-.34766-.26367-.34766-.69629,0-1.01953,1.13867-1.11621,1.51074-.04785.168-.05957.19239-.21582.19239-.05957,0-.17969,0-.17969-.12012,0-.07227.41992-1.84766,1.53516-1.84766a.89849.89849,0,0,1,.91113.97168,1.88325,1.88325,0,0,1-.13184.59961,9.06594,9.06594,0,0,0-.707,2.60254c0,.39649.13184.99609.7793.99609,1.37891,0,1.94336-3.01074,1.94336-3.34667a1.35136,1.35136,0,0,0-.32422-.94727.46362.46362,0,0,1-.15625-.32422.617.617,0,0,1,.57617-.55176c.34766,0,.49121.37207.49121.792C397.23665,104.46631,396.6849,108.79639,394.67025,108.79639Z" transform="translate(-2)"/>
            <path d="M399.78646,112.66064h-2.59278c0-.168,0-.18164.07715-.25878l1.3418-1.49512a2.50678,2.50678,0,0,0,.7334-1.54492c0-.57325-.30078-1.13868-.93652-1.13868a1.00744,1.00744,0,0,0-.94336.71192.274.274,0,0,1,.09082-.00684.35306.35306,0,0,1,.37011.36328.36712.36712,0,1,1-.7334-.0205,1.2912,1.2912,0,0,1,1.30665-1.26465,1.37244,1.37244,0,0,1,1.48144,1.35547c0,.69922-.41894,1.07617-1.50879,2.041l-.74121.71973h1.25781a2.24781,2.24781,0,0,0,.66407-.05664,2.2857,2.2857,0,0,0,.15429-.6211h.17383Z" transform="translate(-2)"/>
          </g>
          <line class="cls-7" x1="386.83333" y1="114.40576" x2="400.83333" y2="114.40576"/>
          <g>
            <path d="M394.67025,122.63525a1.34278,1.34278,0,0,1-1.47461-1.439,7.61841,7.61841,0,0,1,.61133-2.30274,3.5356,3.5356,0,0,0,.28808-1.07959c0-.312-.13183-.34765-.26367-.34765-.69629,0-1.01953,1.13916-1.11621,1.51123-.04785.16748-.05957.19189-.21582.19189-.05957,0-.17969,0-.17969-.12011,0-.07178.41992-1.84717,1.53516-1.84717a.89849.89849,0,0,1,.91113.97168,1.88927,1.88927,0,0,1-.13184.59961,9.05767,9.05767,0,0,0-.707,2.60254c0,.396.13184.9956.7793.9956,1.37891,0,1.94336-3.01025,1.94336-3.34619a1.35315,1.35315,0,0,0-.32422-.94775.46246.46246,0,0,1-.15625-.32373.61656.61656,0,0,1,.57617-.55176c.34766,0,.49121.37207.49121.7915C397.23665,118.30566,396.6849,122.63525,394.67025,122.63525Z" transform="translate(-2)"/>
            <path d="M398.64,126.47852c-.27929,0-.88671,0-1.13183.021v-.2168h.22363c.62891,0,.65039-.08349.65039-.33544v-3.62012a2.09066,2.09066,0,0,1-.916.18213v-.2168a1.72819,1.72819,0,0,0,1.27246-.44727c.16015,0,.16015.01368.16015.18165v3.92041c0,.25878.02149.33544.65039.33544h.22364v.2168C399.52767,126.47852,398.92025,126.47852,398.64,126.47852Z" transform="translate(-2)"/>
          </g>
        </g>
        <g>
          <g>
            <path d="M435.66439,99.84424a1.11344,1.11344,0,0,0-1.21094.8164l-1.67969,6.76368c-.05957.22754-.10742.24023-.23925.24023-.168,0-.17969-.02441-.24024-.2041l-2.57812-7.16016-1.54786,6.17676a1.14161,1.14161,0,0,0-.04785.29981c0,.17968.02442.49121.708.51562.14356,0,.22754.01172.22754.15625,0,.21582-.14356.21582-.21582.21582-.37207,0-.791-.03613-1.17481-.03613-.37207,0-.78027.03613-1.13964.03613-.084,0-.15625-.03613-.15625-.14453,0-.21582.13183-.22754.22851-.22754a1.06562,1.06562,0,0,0,1.16309-.83984l1.583-6.35645a.69764.69764,0,0,0,.03613-.15527c0-.09668-.64746-.09668-.73145-.09668-.22851,0-.32422,0-.32422-.14356,0-.22754.13184-.22754.32422-.22754h1.499c.252,0,.26367.01172.33593.20313l2.24219,6.2373,1.31934-5.26562a1.09106,1.09106,0,0,0,.04785-.28809c0-.251-.0957-.49121-.71973-.51562-.10742,0-.21582-.01172-.21582-.14356,0-.22754.15625-.22754.21582-.22754.37207,0,.78028.03614,1.16406.03614s.7793-.03614,1.15137-.03614a.13879.13879,0,0,1,.15528.15528C435.84408,99.83252,435.70052,99.84424,435.66439,99.84424Z" transform="translate(-2)"/>
            <path d="M437.4847,111.66064h-2.59277c0-.168,0-.18164.07617-.25878l1.3418-1.49512a2.50295,2.50295,0,0,0,.73437-1.54492c0-.57325-.30078-1.13868-.93652-1.13868a1.00653,1.00653,0,0,0-.94336.71192.26733.26733,0,0,1,.09082-.00684.35364.35364,0,0,1,.37012.36328.36712.36712,0,1,1-.7334-.0205,1.29055,1.29055,0,0,1,1.30664-1.26465,1.37243,1.37243,0,0,1,1.48144,1.35547c0,.69922-.41894,1.07617-1.50976,2.041l-.74024.71973h1.25782a2.25451,2.25451,0,0,0,.66406-.05664,2.32648,2.32648,0,0,0,.15332-.6211h.1748Z" transform="translate(-2)"/>
          </g>
          <line class="cls-7" x1="422.83333" y1="113.40576" x2="436.83333" y2="113.40576"/>
          <g>
            <path d="M435.66439,115.68359a1.1125,1.1125,0,0,0-1.21094.81592l-1.67969,6.76416c-.05957.22754-.10742.23975-.23925.23975-.168,0-.17969-.02393-.24024-.2041l-2.57812-7.15967-1.54786,6.17627a1.14672,1.14672,0,0,0-.04785.2998c0,.18018.02442.4917.708.51612.14356,0,.22754.01171.22754.15576,0,.21582-.14356.21582-.21582.21582-.37207,0-.791-.03613-1.17481-.03613-.37207,0-.78027.03613-1.13964.03613-.084,0-.15625-.03613-.15625-.144,0-.21583.13183-.22754.22851-.22754a1.06606,1.06606,0,0,0,1.16309-.83985l1.583-6.35644a.6965.6965,0,0,0,.03613-.15576c0-.0962-.64746-.0962-.73145-.0962-.22851,0-.32422,0-.32422-.144,0-.22754.13184-.22754.32422-.22754h1.499c.252,0,.26367.01172.33593.20362l2.24219,6.23681,1.31934-5.26514a1.09778,1.09778,0,0,0,.04785-.28808c0-.25147-.0957-.4917-.71973-.51563-.10742,0-.21582-.01171-.21582-.144,0-.22754.15625-.22754.21582-.22754.37207,0,.78028.03613,1.16406.03613s.7793-.03613,1.15137-.03613a.13914.13914,0,0,1,.15528.15576C435.84408,115.67188,435.70052,115.68359,435.66439,115.68359Z" transform="translate(-2)"/>
            <path d="M436.33822,127.47852c-.2793,0-.8877,0-1.13184.021v-.2168H435.43c.62891,0,.64942-.08349.64942-.33544v-3.62012a2.087,2.087,0,0,1-.915.18213v-.2168a1.72618,1.72618,0,0,0,1.27148-.44727c.16114,0,.16114.01368.16114.18165v3.92041c0,.25878.0205.33544.64941.33544h.22363v.2168C437.22591,127.47852,436.61751,127.47852,436.33822,127.47852Z" transform="translate(-2)"/>
          </g>
        </g>
      </g>
      <g>
        <g>
          <line class="cls-7" x1="452.33333" y1="114.40576" x2="466.33333" y2="114.40576"/>
          <g>
            <path d="M460.1888,108.79639a.89729.89729,0,0,1-.91113-.95948,2.17111,2.17111,0,0,1,.21582-.82763l.44336-1.187.36035-.99561a2.767,2.767,0,0,0,.21582-.86328c0-.27588-.13184-.33594-.26367-.33594-.69629,0-1.00781,1.11524-1.11621,1.51123-.04785.16748-.05957.1919-.21582.1919-.05957,0-.17969,0-.17969-.12012,0-.06006.4082-1.84717,1.53516-1.84717a.88435.88435,0,0,1,.89941.95947,1.67892,1.67892,0,0,1-.14355.67188l-.76758,2.05078a4.05749,4.05749,0,0,0-.3125,1.15137c0,.32373.168.33593.26465.33593.69531,0,1.01953-1.15136,1.11523-1.499.04785-.18017.04785-.2041.2041-.2041.084,0,.17969,0,.17969.12012C461.71224,106.99756,461.31673,108.79639,460.1888,108.79639Zm1.0791-6.7041a.50989.50989,0,0,1-.53906-.51563.8145.8145,0,0,1,.76758-.75586.50942.50942,0,0,1,.53906.51563A.81451.81451,0,0,1,461.2679,102.09229Z" transform="translate(-2)"/>
            <path d="M464.36849,112.66064h-2.59277c0-.168,0-.18164.07714-.25878l1.3418-1.49512a2.50678,2.50678,0,0,0,.7334-1.54492c0-.57276-.30078-1.13868-.93652-1.13868a1.00793,1.00793,0,0,0-.94336.71241.274.274,0,0,1,.09082-.00684.35306.35306,0,0,1,.37011.36328.36711.36711,0,1,1-.73339-.021,1.2915,1.2915,0,0,1,1.30664-1.26465,1.37272,1.37272,0,0,1,1.48144,1.35547c0,.69922-.41894,1.07666-1.50879,2.041l-.74121.71973h1.25781a2.26673,2.26673,0,0,0,.66407-.05615,2.2533,2.2533,0,0,0,.15332-.62159h.1748Z" transform="translate(-2)"/>
          </g>
          <g>
            <path d="M460.1888,124.22949a.89786.89786,0,0,1-.91113-.95947,2.17115,2.17115,0,0,1,.21582-.82764l.44336-1.187.36035-.9956a2.767,2.767,0,0,0,.21582-.86329c0-.27587-.13184-.33593-.26367-.33593-.69531,0-1.00781,1.11523-1.11524,1.51123-.04882.16748-.06054.19189-.21679.19189-.05957,0-.17969,0-.17969-.12012,0-.06005.4082-1.84716,1.53516-1.84716a.885.885,0,0,1,.90039.95947,1.68332,1.68332,0,0,1-.14453.67187l-.76758,2.05079a4.05735,4.05735,0,0,0-.3125,1.15136c0,.32373.168.33594.26465.33594.69629,0,1.01953-1.15137,1.11523-1.499.04785-.18018.04785-.2041.2041-.2041.084,0,.17969,0,.17969.12011C461.71224,122.43066,461.31673,124.22949,460.1888,124.22949Zm1.08008-6.7041a.51073.51073,0,0,1-.54-.51562.8145.8145,0,0,1,.76758-.75586.5097.5097,0,0,1,.54.51562A.81527.81527,0,0,1,461.26888,117.52539Z" transform="translate(-2)"/>
            <path d="M463.222,128.07275c-.2793,0-.88672,0-1.13086.021v-.2168h.22265c.62891,0,.65039-.08349.65039-.33545v-3.62011a2.08845,2.08845,0,0,1-.916.18213v-.2168a1.727,1.727,0,0,0,1.27246-.44727c.16113,0,.16113.01368.16113.18164v3.92041c0,.25879.02051.33545.64941.33545h.22364v.2168C464.11068,128.07275,463.50228,128.07275,463.222,128.07275Z" transform="translate(-2)"/>
          </g>
        </g>
        <path d="M478.90462,114.02881h-7.15918c-.18066,0-.4082,0-.4082-.23975s.22754-.23974.39551-.23974h7.18457c.168,0,.39551,0,.39551.23974S479.08529,114.02881,478.90462,114.02881Zm.0127,2.32666h-7.18457c-.168,0-.39551,0-.39551-.23975s.22754-.23974.4082-.23974h7.15918c.18067,0,.40821,0,.40821.23974S479.08529,116.35547,478.91732,116.35547Z" transform="translate(-2)"/>
        <g>
          <g>
            <path d="M502.16439,100.84424a1.11344,1.11344,0,0,0-1.21094.8164l-1.67969,6.76368c-.05957.22754-.10742.24023-.23925.24023-.168,0-.17969-.02441-.24024-.2041l-2.57812-7.16016-1.54786,6.17676a1.14161,1.14161,0,0,0-.04785.29981c0,.17968.02442.49121.708.51562.14356,0,.22754.01172.22754.15625,0,.21582-.14356.21582-.21582.21582-.37207,0-.791-.03613-1.17481-.03613-.37207,0-.78027.03613-1.13964.03613-.084,0-.15625-.03613-.15625-.14453,0-.21582.13183-.22754.22851-.22754a1.06562,1.06562,0,0,0,1.16309-.83984l1.583-6.35645a.69764.69764,0,0,0,.03613-.15527c0-.09668-.64746-.09668-.73145-.09668-.22851,0-.32422,0-.32422-.14356,0-.22754.13184-.22754.32422-.22754h1.499c.252,0,.26367.01172.33593.20313l2.24219,6.2373,1.31934-5.26562a1.09106,1.09106,0,0,0,.04785-.28809c0-.251-.0957-.49121-.71973-.51562-.10742,0-.21582-.01172-.21582-.14356,0-.22754.15625-.22754.21582-.22754.37207,0,.78028.03614,1.16406.03614s.7793-.03614,1.15137-.03614a.13879.13879,0,0,1,.15528.15528C502.34408,100.83252,502.20052,100.84424,502.16439,100.84424Z" transform="translate(-2)"/>
            <path d="M502.83822,112.63916c-.2793,0-.8877,0-1.13184.02148v-.21679H501.93c.62891,0,.64942-.084.64942-.33594v-3.62012a2.0821,2.0821,0,0,1-.915.18262v-.2168a1.7262,1.7262,0,0,0,1.27148-.44726c.16114,0,.16114.01367.16114.18164v3.91992c0,.25879.0205.33594.64941.33594h.22363v.21679C503.72591,112.63916,503.11751,112.63916,502.83822,112.63916Z" transform="translate(-2)"/>
          </g>
          <line class="cls-7" x1="489.33333" y1="114.40576" x2="503.33333" y2="114.40576"/>
          <g>
            <path d="M502.16439,116.68359a1.1125,1.1125,0,0,0-1.21094.81592l-1.67969,6.76416c-.05957.22754-.10742.23975-.23925.23975-.168,0-.17969-.02393-.24024-.2041l-2.57812-7.15967-1.54786,6.17627a1.14672,1.14672,0,0,0-.04785.2998c0,.18018.02442.4917.708.51612.14356,0,.22754.01171.22754.15576,0,.21582-.14356.21582-.21582.21582-.37207,0-.791-.03613-1.17481-.03613-.37207,0-.78027.03613-1.13964.03613-.084,0-.15625-.03613-.15625-.144,0-.21583.13183-.22754.22851-.22754a1.06606,1.06606,0,0,0,1.16309-.83985l1.583-6.35644a.6965.6965,0,0,0,.03613-.15576c0-.0962-.64746-.0962-.73145-.0962-.22851,0-.32422,0-.32422-.144,0-.22754.13184-.22754.32422-.22754h1.499c.252,0,.26367.01172.33593.20362l2.24219,6.23681,1.31934-5.26514a1.09778,1.09778,0,0,0,.04785-.28808c0-.25147-.0957-.4917-.71973-.51563-.10742,0-.21582-.01171-.21582-.144,0-.22754.15625-.22754.21582-.22754.37207,0,.78028.03613,1.16406.03613s.7793-.03613,1.15137-.03613a.13914.13914,0,0,1,.15528.15576C502.34408,116.67188,502.20052,116.68359,502.16439,116.68359Z" transform="translate(-2)"/>
            <path d="M503.9847,128.49951h-2.59277c0-.168,0-.18164.07617-.25879l1.3418-1.49511a2.503,2.503,0,0,0,.73437-1.54493c0-.57275-.30078-1.13867-.93652-1.13867a1.007,1.007,0,0,0-.94336.7124.26771.26771,0,0,1,.09082-.00683.35364.35364,0,0,1,.37012.36328.36712.36712,0,1,1-.7334-.021,1.29086,1.29086,0,0,1,1.30664-1.26465,1.37272,1.37272,0,0,1,1.48144,1.35547c0,.69922-.41894,1.07666-1.50976,2.041l-.74024.71973h1.25782a2.2731,2.2731,0,0,0,.66406-.05616,2.32572,2.32572,0,0,0,.15332-.62158h.1748Z" transform="translate(-2)"/>
          </g>
        </g>
        <path d="M489.29134,115.24023h-7.21973c-.15625,0-.44433,0-.44433-.28808,0-.29981.27637-.29981.44433-.29981h7.21973c.168,0,.44336,0,.44336.29981C489.7347,115.24023,489.44661,115.24023,489.29134,115.24023Z" transform="translate(-2)"/>
      </g>
    </g>
  </g>
  <line class="cls-8" x1="118.97222" x2="118.97222" y2="129"/>
  <line class="cls-8" x1="247.91667" x2="247.91667" y2="129"/>
  <line class="cls-8" x1="378.86111" x2="378.86111" y2="129"/>
</svg>
