<?xml version="1.0" encoding="utf-8"?>
<!-- Generator: Adobe Illustrator 23.0.3, SVG Export Plug-In . SVG Version: 6.00 Build 0)  -->
<svg version="1.1" id="Layer_1" xmlns="http://www.w3.org/2000/svg" xmlns:xlink="http://www.w3.org/1999/xlink" x="0px" y="0px"
	 viewBox="0 0 244.444 125.24652" style="enable-background:new 0 0 244.444 125.24652;" xml:space="preserve">
<style type="text/css">
	.st0{fill:none;stroke:#8FF4DD;stroke-width:2;stroke-linecap:round;stroke-linejoin:round;}
	.st1{fill:#8FF4DD;}
	.st2{fill:none;stroke:#8FF4DD;stroke-width:2;stroke-linecap:round;}
	.st3{fill:none;stroke:#8FF4DD;stroke-width:2;stroke-linecap:square;}
	.st4{fill:#8FF4DD;stroke:#8FF4DD;stroke-width:2;}
	.st5{fill:none;stroke:#8FF4DD;stroke-width:1.5;stroke-linecap:square;}
	.st6{fill:none;stroke:#8FF4DD;stroke-width:2;stroke-miterlimit:10;}
	.st7{fill:none;stroke:#8FF4DD;stroke-width:0.5;}
</style>
<title>TransformerDotConvention</title>
<g>
	<g>
		<polyline class="st0" points="69,33.002 69,23.00199 98.02,23.00199 109,23.00199 		"/>
		<g>
			<path class="st1" d="M18.85579,7.97648c-0.4957,0.00888-0.90474-0.38576-0.91362-0.88146
				c-0.00047-0.02603,0.0002-0.05206,0.002-0.07803c0.01636-0.28746,0.08972-0.56879,0.21583-0.82762l0.44385-1.187l0.35986-0.9956
				c0.11805-0.27423,0.19093-0.56577,0.21582-0.86329c0-0.27587-0.13183-0.33593-0.26367-0.33593
				c-0.6958,0-1.00781,1.11523-1.11572,1.51123c-0.04785,0.16748-0.06006,0.19189-0.21582,0.19189
				c-0.06006,0-0.17969,0-0.17969-0.12012c0-0.06005,0.40772-1.84716,1.53516-1.84716
				c0.4883-0.0101,0.89234,0.37756,0.90244,0.86587c0.00064,0.03123-0.00036,0.06248-0.00303,0.0936
				c-0.00122,0.23148-0.05025,0.46022-0.144,0.67187l-0.76758,2.05079c-0.15998,0.36638-0.2651,0.75433-0.312,1.15136
				c0,0.32373,0.168,0.33594,0.26416,0.33594c0.6958,0,1.01953-1.15137,1.11523-1.499
				c0.04786-0.18018,0.04786-0.2041,0.20411-0.2041c0.084,0,0.17968,0,0.17968,0.12011
				C20.37874,6.17765,19.98324,7.97648,18.85579,7.97648z M19.9349,1.27238c-0.28137,0.01618-0.52257-0.1988-0.53875-0.48017
				c-0.00068-0.0118-0.00095-0.02363-0.0008-0.03545c0.02892-0.40934,0.35784-0.73324,0.76757-0.75586
				c0.28093-0.0166,0.52212,0.19769,0.53871,0.47861c0.00073,0.01232,0.00101,0.02466,0.00084,0.03701
				C20.67355,0.92586,20.34463,1.24976,19.9349,1.27238z"/>
			<path class="st1" d="M21.889,11.81974c-0.2793,0-0.88721,0-1.13184,0.021v-0.21675h0.22363
				c0.62891,0,0.64991-0.08349,0.64991-0.33545V7.66838c-0.28754,0.12896-0.60052,0.19122-0.91553,0.18213v-0.2168
				c0.46709,0.0294,0.92611-0.132,1.272-0.44727c0.16065,0,0.16065,0.01368,0.16065,0.18164v3.92041
				c0,0.25879,0.021,0.33545,0.6499,0.33545h0.22363v0.2168C22.77669,11.81974,22.16878,11.81974,21.889,11.81974z"/>
		</g>
		<path class="st0" d="M41,49.08545c2.46227-0.00409,4.45502-2.00348,4.45092-4.46575
			C45.44684,42.16322,43.45648,40.17287,41,40.16879V23.00212H1"/>
		<path class="st2" d="M41,58.00212c2.46227-0.00409,4.45502-2.00348,4.45092-4.46575
			C45.44684,51.0799,43.45648,49.08954,41,49.08546"/>
		<path class="st2" d="M41,58.00212c2.46227,0,4.45833,1.99606,4.45833,4.45833c0,2.46227-1.99606,4.45833-4.45833,4.45833"/>
		<path class="st0" d="M41,66.91879c2.46227,0.0034,4.45558,2.00223,4.45218,4.46449
			c-0.0034,2.45747-1.99471,4.44878-4.45218,4.45218v17.16666H1"/>
		<polyline class="st3" points="13,19.00199 27,19.00199 24,16.00199 		"/>
		<g>
			<path class="st0" d="M69,33.00212v7.16666c-2.46227,0.0034-4.45558,2.00222-4.45218,4.4645
				c0.0034,2.45746,1.99472,4.44878,4.45218,4.45218"/>
			<path class="st2" d="M69,58.00212c-2.46227-0.00409-4.45502-2.00348-4.45092-4.46575
				C64.55316,51.0799,66.54352,49.08954,69,49.08546"/>
			<path class="st2" d="M69,58.00212c-2.46227,0-4.45833,1.99606-4.45833,4.45833c0,2.46227,1.99606,4.45833,4.45833,4.45833"/>
			<path class="st0" d="M69,66.91879c-2.46227,0.0034-4.45558,2.00223-4.45218,4.46449
				c0.0034,2.45747,1.99472,4.44878,4.45218,4.45218v7.16667"/>
		</g>
		<polyline class="st0" points="69,83.00199 69,93.00199 98.02,93.00199 109,93.00199 		"/>
		<polyline class="st3" points="84.077,18.90299 98.077,18.90299 95.077,15.90299 		"/>
		<g>
			<path class="st1" d="M89.93294,7.97648c-0.4957,0.00888-0.90474-0.38576-0.91362-0.88145
				c-0.00047-0.02603,0.00021-0.05206,0.002-0.07804c0.01635-0.28746,0.08971-0.5688,0.21582-0.82764l0.44385-1.187l0.35986-0.9956
				c0.11805-0.27423,0.19093-0.56577,0.21582-0.86329c0-0.27587-0.13183-0.33593-0.26367-0.33593
				c-0.6958,0-1.00781,1.11523-1.11572,1.51123c-0.04785,0.16748-0.06006,0.19189-0.21582,0.19189
				c-0.06006,0-0.17969,0-0.17969-0.12012c0-0.06005,0.40772-1.84716,1.53516-1.84716
				c0.4883-0.0101,0.89233,0.37757,0.90243,0.86587c0.00065,0.03123-0.00036,0.06247-0.00302,0.0936
				c-0.00122,0.23148-0.05025,0.46022-0.144,0.67187L90.00475,6.2255c-0.15997,0.36638-0.2651,0.75434-0.312,1.15136
				c0,0.32373,0.168,0.33594,0.26416,0.33594c0.6958,0,1.01953-1.15137,1.11523-1.499C91.12,6.03362,91.12,6.0097,91.27625,6.0097
				c0.084,0,0.17969,0,0.17969,0.12011C91.45589,6.17765,91.06038,7.97648,89.93294,7.97648z M91.01204,1.27238
				c-0.28137,0.01617-0.52258-0.19882-0.53875-0.48019c-0.00068-0.0118-0.00095-0.02361-0.0008-0.03543
				c0.02892-0.40934,0.35784-0.73324,0.76758-0.75586c0.28093-0.01659,0.52213,0.1977,0.53871,0.47864
				c0.00072,0.01231,0.00101,0.02465,0.00084,0.03698c-0.02892,0.40935-0.35786,0.73326-0.76762,0.75586L91.01204,1.27238z"/>
			<path class="st1" d="M94.11263,11.84074h-2.59277c0-0.168,0-0.18164,0.07666-0.25879l1.34179-1.49512
				c0.41832-0.41292,0.6781-0.95979,0.73389-1.54492c0-0.57275-0.30078-1.13867-0.93652-1.13867
				c-0.43537,0.00864-0.81591,0.29601-0.94336,0.7124c0.02967-0.00738,0.06038-0.00969,0.09082-0.00683
				c0.19492-0.00934,0.36052,0.1411,0.36987,0.33603c0.00043,0.00908,0.00052,0.01817,0.00025,0.02725
				c0.00198,0.20275-0.16077,0.36871-0.36352,0.37069c-0.20274,0.00198-0.36871-0.16077-0.37069-0.36352
				c-0.00009-0.0094,0.00018-0.01879,0.00081-0.02817c0.01452-0.70877,0.59778-1.27329,1.30665-1.26465
				c0.75574-0.06008,1.41711,0.50388,1.47718,1.25962c0.00253,0.03189,0.00395,0.06386,0.00426,0.09585
				c0,0.69922-0.41894,1.07666-1.50927,2.041l-0.74073,0.71972h1.25782c0.22291,0.01405,0.44668-0.00487,0.66406-0.05615
				c0.07997-0.19899,0.13158-0.40823,0.15332-0.62158h0.1748L94.11263,11.84074z"/>
		</g>
		<circle class="st4" cx="34" cy="40.00212" r="1"/>
		<circle class="st4" cx="76" cy="40.00212" r="1"/>
		<g>
			<line class="st5" x1="23.03589" y1="44.31487" x2="28.03589" y2="44.31487"/>
			<line class="st5" x1="25.53589" y1="46.81487" x2="25.53589" y2="41.81487"/>
		</g>
		<line class="st5" x1="23.03589" y1="71.65373" x2="28.03589" y2="71.65373"/>
		<g>
			<path class="st1" d="M24.83724,59.04435c-0.73786,0.07518-1.39696-0.46203-1.47214-1.19989
				c-0.00809-0.07946-0.00909-0.15948-0.00296-0.23911c0.08199-0.79485,0.28828-1.57189,0.61133-2.30274
				c0.15265-0.34232,0.2499-0.70673,0.28809-1.07959c0-0.312-0.13184-0.34765-0.26368-0.34765
				c-0.6958,0-1.01953,1.13916-1.11572,1.51123c-0.04785,0.16748-0.06006,0.19189-0.21582,0.19189
				c-0.06006,0-0.17969,0-0.17969-0.12011c0-0.07178,0.41944-1.84717,1.53516-1.84717
				c0.49615-0.00864,0.90536,0.38657,0.91399,0.88272c0.00052,0.02968-0.00044,0.05937-0.00286,0.08896
				c-0.0112,0.20569-0.05572,0.40819-0.13183,0.59961c-0.36459,0.82727-0.60308,1.70454-0.70752,2.60254
				c0,0.396,0.13183,0.9956,0.77978,0.9956c1.37891,0,1.94287-3.01025,1.94287-3.34619
				c0.01711-0.34567-0.09872-0.68478-0.32373-0.94775c-0.09361-0.08242-0.14995-0.19917-0.15625-0.32373
				c0.03111-0.29997,0.27467-0.53341,0.57569-0.55176c0.34814,0,0.4917,0.37207,0.4917,0.7915
				C27.40365,54.71476,26.85189,59.04435,24.83724,59.04435z"/>
			<path class="st1" d="M28.807,62.88763c-0.2793,0-0.88721,0-1.13184,0.021v-0.2168h0.22363
				c0.62891,0,0.64991-0.08349,0.64991-0.33544v-3.62014c-0.28753,0.12899-0.60052,0.19126-0.91553,0.18213v-0.2168
				c0.46709,0.0294,0.92611-0.132,1.272-0.44727c0.16065,0,0.16065,0.01368,0.16065,0.18164v3.92042
				c0,0.25878,0.021,0.33544,0.6499,0.33544h0.22363v0.2168C29.69466,62.88763,29.08675,62.88763,28.807,62.88763z"/>
		</g>
		<g>
			<line class="st5" x1="81.03589" y1="44.31487" x2="86.03589" y2="44.31487"/>
			<line class="st5" x1="83.53589" y1="46.81487" x2="83.53589" y2="41.81487"/>
		</g>
		<line class="st5" x1="81.03589" y1="71.65373" x2="86.03589" y2="71.65373"/>
		<g>
			<path class="st1" d="M82.83724,59.04435c-0.73786,0.07518-1.39696-0.46203-1.47214-1.19989
				c-0.00809-0.07946-0.00909-0.15948-0.00296-0.23911c0.08199-0.79485,0.28828-1.57189,0.61133-2.30274
				c0.15265-0.34232,0.2499-0.70673,0.28809-1.07959c0-0.312-0.13184-0.34765-0.26368-0.34765
				c-0.6958,0-1.01953,1.13916-1.11572,1.51123c-0.04785,0.16748-0.06006,0.19189-0.21582,0.19189
				c-0.06006,0-0.17969,0-0.17969-0.12011c0-0.07178,0.41944-1.84717,1.53516-1.84717
				c0.49615-0.00864,0.90536,0.38657,0.91399,0.88271c0.00052,0.02969-0.00043,0.05938-0.00286,0.08897
				c-0.01119,0.20569-0.05572,0.40819-0.13183,0.59961c-0.36459,0.82727-0.60308,1.70454-0.70752,2.60254
				c0,0.396,0.13183,0.9956,0.77978,0.9956c1.37891,0,1.94287-3.01025,1.94287-3.34619
				c0.01711-0.34567-0.09872-0.68478-0.32373-0.94775c-0.09361-0.08242-0.14996-0.19917-0.15625-0.32373
				c0.03111-0.29998,0.27467-0.53341,0.57569-0.55176c0.34814,0,0.4917,0.37207,0.4917,0.7915
				C85.40365,54.71476,84.85189,59.04435,82.83724,59.04435z"/>
			<path class="st1" d="M87.95345,62.90862h-2.59277c0-0.168,0-0.18164,0.07666-0.25879l1.34179-1.49512
				c0.41832-0.41291,0.6781-0.95979,0.73389-1.54492c0-0.57275-0.30078-1.13867-0.93652-1.13867
				c-0.43537,0.00864-0.81591,0.29601-0.94336,0.7124c0.02967-0.00738,0.06038-0.00969,0.09082-0.00683
				c0.19492-0.00934,0.36052,0.1411,0.36987,0.33603c0.00043,0.00908,0.00052,0.01817,0.00025,0.02726
				c0.00198,0.20274-0.16077,0.36871-0.36352,0.37069s-0.36871-0.16077-0.37069-0.36352
				c-0.00009-0.0094,0.00018-0.01879,0.00081-0.02817c0.01452-0.70877,0.59777-1.27328,1.30664-1.26465
				c0.75574-0.06008,1.41711,0.50388,1.47718,1.25962c0.00253,0.03189,0.00395,0.06386,0.00426,0.09584
				c0,0.69922-0.41894,1.07666-1.50927,2.041l-0.74073,0.71973h1.25782c0.22291,0.01405,0.44668-0.00487,0.66406-0.05616
				c0.07993-0.19903,0.13171-0.40824,0.15381-0.62158h0.17431L87.95345,62.90862z"/>
		</g>
		<g>
			<path class="st1" d="M45.7264,5.13908c-0.55065-0.06831-1.06746,0.27956-1.21143,0.81543l-1.6792,6.76465
				c-0.06,0.22754-0.10791,0.23974-0.23974,0.23974c-0.168,0-0.17969-0.02392-0.23975-0.2041l-2.57861-7.15967l-1.54736,6.17627
				c-0.02917,0.09737-0.04527,0.19819-0.04786,0.29981c0,0.18017,0.02393,0.4917,0.70752,0.51611
				c0.14405,0,0.228,0.01172,0.228,0.15576c0,0.21582-0.144,0.21582-0.21582,0.21582c-0.37207,0-0.7915-0.03613-1.17529-0.03613
				c-0.37207,0-0.77979,0.03613-1.13965,0.03613c-0.084,0-0.15576-0.03613-0.15576-0.144c0-0.21582,0.13183-0.22754,0.228-0.22754
				c0.54628,0.06196,1.05005-0.3018,1.16308-0.83984l1.58307-6.35653c0.01798-0.05036,0.03011-0.10262,0.03613-0.15576
				c0-0.09619-0.64746-0.09619-0.73144-0.09619c-0.228,0-0.32373,0-0.32373-0.14355c0-0.228,0.13183-0.228,0.32373-0.228h1.499
				c0.252,0,0.26367,0.01172,0.33594,0.20361l2.24267,6.23682l1.31936-5.26513c0.02851-0.09352,0.0446-0.19038,0.04785-0.28809
				c0-0.25146-0.0957-0.49169-0.71973-0.51562c-0.10791,0-0.21582-0.01172-0.21582-0.14355c0-0.228,0.15625-0.228,0.21582-0.228
				c0.37207,0,0.77979,0.03564,1.16358,0.03564s0.7793-0.03564,1.15137-0.03564c0.07631-0.00972,0.14604,0.04426,0.15576,0.12057
				c0.00149,0.01168,0.00149,0.02351,0,0.03519C45.90609,5.12736,45.762,5.13908,45.7264,5.13908z"/>
			<path class="st1" d="M46.39974,16.93399c-0.2793,0-0.88721,0-1.13184,0.021v-0.2168h0.22364
				c0.6289,0,0.6499-0.0835,0.6499-0.33545v-3.62011c-0.28754,0.12896-0.60052,0.19122-0.91553,0.18213v-0.21677
				c0.46709,0.0294,0.92611-0.132,1.272-0.44727c0.16065,0,0.16065,0.01416,0.16065,0.18164v3.92041
				c0,0.25879,0.021,0.33545,0.6499,0.33545h0.22363v0.2168C47.28743,16.93399,46.67952,16.93399,46.39974,16.93399z"/>
			<path class="st1" d="M54.06478,9.06099c-0.35098-0.00013-0.6354-0.28476-0.63526-0.63574s0.28476-0.63539,0.63574-0.63526
				c0.35079,0.00013,0.63513,0.28447,0.63526,0.63526C54.69826,8.77542,54.41495,9.05873,54.06478,9.06099z M54.06478,12.95899
				c-0.35111,0-0.63574-0.28463-0.63574-0.63574s0.28463-0.63574,0.63574-0.63574s0.63574,0.28463,0.63574,0.63574v0
				c-0.00231,0.35013-0.28561,0.63339-0.63574,0.63565V12.95899z"/>
			<path class="st1" d="M69.7679,5.13908c-0.55062-0.06819-1.06735,0.27963-1.21142,0.81543l-1.6792,6.76465
				c-0.06006,0.22754-0.10791,0.23974-0.23975,0.23974c-0.168,0-0.17968-0.02392-0.23974-0.2041l-2.57862-7.15967L62.2718,11.7714
				c-0.02917,0.09737-0.04526,0.19819-0.04785,0.29981c0,0.18017,0.02392,0.4917,0.70752,0.51611
				c0.144,0,0.228,0.01172,0.228,0.15576c0,0.21582-0.144,0.21582-0.21583,0.21582c-0.37207,0-0.7915-0.03613-1.17529-0.03613
				c-0.37207,0-0.77978,0.03613-1.13965,0.03613c-0.084,0-0.15576-0.03613-0.15576-0.144c0-0.21582,0.13184-0.22754,0.228-0.22754
				c0.54628,0.06196,1.05005-0.3018,1.16309-0.83984l1.58307-6.35653c0.01799-0.05036,0.03011-0.10262,0.03614-0.15576
				c0-0.09619-0.64747-0.09619-0.73145-0.09619c-0.228,0-0.32373,0-0.32373-0.14355c0-0.228,0.13184-0.228,0.32373-0.228h1.499
				c0.252,0,0.26368,0.01172,0.33594,0.20361l2.24268,6.23682l1.31935-5.26513c0.02852-0.09352,0.04461-0.19038,0.04785-0.28809
				c0-0.25146-0.0957-0.49169-0.71972-0.51562c-0.10791,0-0.21582-0.01172-0.21582-0.14355c0-0.228,0.15625-0.228,0.21582-0.228
				c0.37207,0,0.77978,0.03564,1.16357,0.03564s0.77979-0.03564,1.15137-0.03564c0.07631-0.00972,0.14604,0.04426,0.15576,0.12057
				c0.00149,0.01168,0.00149,0.02351,0,0.03519C69.94759,5.12736,69.804,5.13908,69.7679,5.13908z"/>
			<path class="st1" d="M71.58773,16.95499H68.995c0-0.16748,0-0.18164,0.07666-0.25879l1.3418-1.49512
				c0.41813-0.41285,0.67789-0.9595,0.73389-1.54443c0-0.57324-0.30078-1.13916-0.93653-1.13916
				c-0.43536,0.00864-0.8159,0.29602-0.94335,0.7124c0.02967-0.00739,0.06038-0.00971,0.09082-0.00684
				c0.19492-0.00934,0.36052,0.14111,0.36986,0.33603c0.00043,0.00908,0.00052,0.01817,0.00025,0.02726
				c0.00198,0.20274-0.16077,0.36871-0.36352,0.37069s-0.36871-0.16077-0.37069-0.36352
				c-0.00009-0.0094,0.00018-0.01879,0.00081-0.02817c0.01452-0.70877,0.59778-1.27329,1.30665-1.26465
				c0.75581-0.06003,1.41716,0.50401,1.47719,1.25982c0.00254,0.032,0.00396,0.06408,0.00425,0.09618
				c0,0.69873-0.41894,1.07617-1.50928,2.04053l-0.74072,0.71972h1.25781c0.22292,0.01405,0.44668-0.00487,0.66407-0.05615
				c0.07993-0.19903,0.13171-0.40824,0.1538-0.62158H71.783L71.58773,16.95499z"/>
		</g>
		<line class="st6" x1="51.81944" y1="48.90276" x2="51.81944" y2="66.90276"/>
		<line class="st6" x1="58.18056" y1="48.90276" x2="58.18056" y2="66.90276"/>
	</g>
	<g>
		<g>
			<line class="st7" x1="63" y1="111.15276" x2="77" y2="111.15276"/>
			<g>
				<path class="st1" d="M68.85579,105.54338c-0.4957,0.00887-0.90474-0.38577-0.91362-0.88148
					c-0.00047-0.02602,0.00021-0.05204,0.002-0.078c0.01635-0.28746,0.08971-0.56879,0.21582-0.82763l0.44385-1.187l0.35986-0.99561
					c0.11805-0.27423,0.19093-0.56576,0.21582-0.86328c0-0.27588-0.13183-0.33594-0.26367-0.33594
					c-0.6958,0-1.00781,1.11524-1.11572,1.51123c-0.04785,0.16748-0.06006,0.1919-0.21582,0.1919
					c-0.06006,0-0.17969,0-0.17969-0.12012c0-0.06006,0.40772-1.84717,1.53516-1.84717
					c0.48831-0.01009,0.89234,0.37759,0.90243,0.86589c0.00065,0.03123-0.00036,0.06246-0.00302,0.09358
					c-0.00123,0.23148-0.05025,0.46023-0.144,0.67188l-0.76758,2.05078c-0.15997,0.36639-0.2651,0.75434-0.312,1.15137
					c0,0.32373,0.168,0.33593,0.26416,0.33593c0.6958,0,1.01953-1.15136,1.11523-1.499
					c0.04786-0.18017,0.04786-0.2041,0.20411-0.2041c0.084,0,0.17968,0,0.17968,0.12012
					C70.37874,103.74455,69.98324,105.54338,68.85579,105.54338z M69.9349,98.83928
					c-0.28137,0.01617-0.52258-0.19882-0.53875-0.48019c-0.00068-0.0118-0.00095-0.02362-0.0008-0.03544
					c0.02892-0.40934,0.35783-0.73324,0.76757-0.75586c0.28093-0.01659,0.52212,0.19769,0.53871,0.47861
					c0.00072,0.01232,0.00101,0.02467,0.00084,0.03702C70.67355,98.49276,70.34464,98.81667,69.9349,98.83928z"/>
				<path class="st1" d="M73.03548,109.40763h-2.59277c0-0.168,0-0.18164,0.07666-0.25878l1.3418-1.49512
					c0.41831-0.41292,0.67809-0.95979,0.73388-1.54492c0-0.57276-0.30078-1.13868-0.93652-1.13868
					c-0.43537,0.00864-0.81591,0.29602-0.94336,0.71241c0.02967-0.00739,0.06038-0.0097,0.09082-0.00684
					c0.19492-0.00935,0.36052,0.1411,0.36987,0.33603c0.00043,0.00908,0.00052,0.01817,0.00025,0.02725
					c0.00198,0.20274-0.16077,0.36871-0.36352,0.37068c-0.20275,0.00198-0.36871-0.16077-0.37069-0.36352
					c-0.00009-0.0094,0.00018-0.01879,0.00081-0.02817c0.01451-0.70877,0.59777-1.27328,1.30664-1.26465
					c0.75574-0.06007,1.41711,0.50388,1.47718,1.25963c0.00253,0.03188,0.00395,0.06385,0.00426,0.09584
					c0,0.69922-0.41894,1.07666-1.50927,2.041l-0.74073,0.71973h1.25782c0.22291,0.01405,0.44668-0.00487,0.66406-0.05615
					c0.07997-0.19899,0.13158-0.40823,0.15332-0.62159h0.1748L73.03548,109.40763z"/>
			</g>
			<g>
				<path class="st1" d="M68.85579,120.97649c-0.4957,0.00888-0.90473-0.38576-0.91362-0.88145
					c-0.00047-0.02602,0.00021-0.05206,0.002-0.07802c0.01635-0.28746,0.08971-0.56879,0.21582-0.82764l0.44385-1.187
					l0.35986-0.9956c0.11805-0.27423,0.19093-0.56577,0.21582-0.86329c0-0.27587-0.13183-0.33593-0.26367-0.33593
					c-0.6958,0-1.00781,1.11523-1.11572,1.51123c-0.04785,0.16748-0.06006,0.19189-0.21582,0.19189
					c-0.06006,0-0.17969,0-0.17969-0.12012c0-0.06005,0.40772-1.84716,1.53516-1.84716
					c0.4883-0.01009,0.89233,0.37757,0.90243,0.86587c0.00065,0.03123-0.00036,0.06248-0.00302,0.09361
					c-0.00122,0.23148-0.05025,0.46021-0.144,0.67187l-0.76758,2.05079c-0.15997,0.36639-0.2651,0.75433-0.312,1.15136
					c0,0.32373,0.168,0.33594,0.26416,0.33594c0.6958,0,1.01953-1.15137,1.11523-1.499
					c0.04786-0.18018,0.04786-0.2041,0.20411-0.2041c0.084,0,0.17968,0,0.17968,0.12011
					C70.37874,119.17765,69.98324,120.97649,68.85579,120.97649z M69.9349,114.27238
					c-0.28136,0.01617-0.52257-0.19881-0.53875-0.48017c-0.00068-0.0118-0.00095-0.02363-0.0008-0.03545
					c0.02892-0.40934,0.35783-0.73324,0.76757-0.75586c0.28093-0.01659,0.52212,0.19769,0.53871,0.47861
					c0.00072,0.01232,0.00101,0.02467,0.00084,0.037C70.67355,113.92586,70.34463,114.24976,69.9349,114.27238z"/>
				<path class="st1" d="M71.889,124.81974c-0.2793,0-0.88721,0-1.13184,0.021v-0.2168h0.22363
					c0.62891,0,0.64991-0.08349,0.64991-0.33545v-3.62011c-0.28754,0.12896-0.60052,0.19122-0.91553,0.18213v-0.2168
					c0.46709,0.0294,0.92611-0.132,1.272-0.44727c0.16065,0,0.16065,0.01368,0.16065,0.18164v3.92041
					c0,0.25879,0.021,0.33545,0.6499,0.33545h0.22363v0.2168C72.77669,124.81974,72.16878,124.81974,71.889,124.81974z"/>
			</g>
		</g>
		<path class="st1" d="M29.57161,110.7758H22.412c-0.18018,0-0.40821,0-0.40821-0.23975s0.228-0.23974,0.396-0.23974h7.18408
			c0.168,0,0.396,0,0.396,0.23974S29.75179,110.7758,29.57161,110.7758z M29.58382,113.10246h-7.18408
			c-0.168,0-0.396,0-0.396-0.23975s0.228-0.23974,0.40821-0.23974h7.15966c0.18018,0,0.40821,0,0.40821,0.23974
			S29.75179,113.10246,29.58382,113.10246z"/>
		<g>
			<g>
				<path class="st1" d="M10.83724,105.54338c-0.73794,0.07511-1.39706-0.46221-1.47217-1.20016
					c-0.00809-0.07952-0.00907-0.15961-0.00293-0.2393c0.08211-0.79482,0.28839-1.57184,0.61133-2.30273
					c0.15264-0.34215,0.24988-0.7064,0.28809-1.0791c0-0.3125-0.13184-0.34766-0.26368-0.34766
					c-0.6958,0-1.01953,1.13867-1.11572,1.51074c-0.04785,0.168-0.06006,0.19239-0.21582,0.19239
					c-0.06006,0-0.17969,0-0.17969-0.12012c0-0.07227,0.41944-1.84766,1.53516-1.84766
					c0.49615-0.00864,0.90535,0.38657,0.91399,0.88271c0.00052,0.02969-0.00044,0.05938-0.00286,0.08897
					c-0.01109,0.2057-0.05561,0.40823-0.13183,0.59961c-0.36447,0.82732-0.60296,1.70457-0.70752,2.60254
					c0,0.39649,0.13183,0.99609,0.77978,0.99609c1.37891,0,1.94287-3.01074,1.94287-3.34667
					c0.01717-0.34554-0.09868-0.68452-0.32373-0.94727c-0.09362-0.08263-0.14995-0.19952-0.15625-0.32422
					c0.03127-0.29989,0.27474-0.53324,0.57569-0.55176c0.34814,0,0.4917,0.37207,0.4917,0.792
					C13.40365,101.2133,12.85189,105.54338,10.83724,105.54338z"/>
				<path class="st1" d="M15.95345,109.40763h-2.59277c0-0.168,0-0.18164,0.07666-0.25878l1.34179-1.49512
					c0.41832-0.41292,0.6781-0.95979,0.73389-1.54492c0-0.57325-0.30078-1.13868-0.93652-1.13868
					c-0.43529,0.00843-0.81587,0.29564-0.94336,0.71192c0.02967-0.00739,0.06038-0.00971,0.09082-0.00684
					c0.19493-0.00935,0.36052,0.1411,0.36987,0.33602c0.00043,0.00908,0.00052,0.01817,0.00025,0.02726
					c0.0022,0.20274-0.16036,0.36889-0.36311,0.37109s-0.36889-0.16036-0.37109-0.36311
					c-0.0001-0.00951,0.00016-0.019,0.0008-0.02849c0.01435-0.70885,0.5977-1.27345,1.30664-1.26465
					c0.75558-0.06023,1.41692,0.50345,1.47716,1.25902c0.00256,0.03209,0.00399,0.06426,0.00428,0.09645
					c0,0.69922-0.41894,1.07617-1.50927,2.041l-0.74073,0.71973h1.25782c0.22294,0.01418,0.44674-0.00491,0.66406-0.05664
					c0.07988-0.19888,0.13165-0.40793,0.15381-0.6211h0.17431L15.95345,109.40763z"/>
			</g>
			<line class="st7" x1="5" y1="111.15276" x2="19" y2="111.15276"/>
			<g>
				<path class="st1" d="M10.83724,119.38224c-0.73786,0.07518-1.39696-0.46203-1.47214-1.19989
					c-0.0081-0.07946-0.00909-0.15948-0.00296-0.23911c0.08199-0.79485,0.28828-1.57189,0.61133-2.30274
					c0.15265-0.34232,0.24989-0.70673,0.28809-1.07959c0-0.312-0.13184-0.34765-0.26368-0.34765
					c-0.6958,0-1.01953,1.13916-1.11572,1.51123c-0.04785,0.16748-0.06006,0.19189-0.21582,0.19189
					c-0.06006,0-0.17969,0-0.17969-0.12011c0-0.07178,0.41944-1.84717,1.53516-1.84717
					c0.49615-0.00864,0.90535,0.38657,0.91399,0.88271c0.00052,0.02969-0.00044,0.05938-0.00286,0.08897
					c-0.0112,0.20569-0.05572,0.4082-0.13183,0.59961c-0.36459,0.82728-0.60308,1.70454-0.70752,2.60254
					c0,0.396,0.13183,0.9956,0.77978,0.9956c1.37891,0,1.94287-3.01025,1.94287-3.34619
					c0.01711-0.34567-0.09872-0.68478-0.32373-0.94775c-0.09361-0.08243-0.14995-0.19917-0.15625-0.32373
					c0.03111-0.29997,0.27467-0.53341,0.57569-0.55176c0.34814,0,0.4917,0.37207,0.4917,0.7915
					C13.40365,115.05265,12.85189,119.38224,10.83724,119.38224z"/>
				<path class="st1" d="M14.807,123.22552c-0.2793,0-0.88721,0-1.13184,0.021v-0.2168h0.22363
					c0.62891,0,0.64991-0.08349,0.64991-0.33544v-3.62012c-0.28753,0.12899-0.60052,0.19126-0.91553,0.18213v-0.2168
					c0.46709,0.0294,0.92611-0.132,1.272-0.44727c0.16065,0,0.16065,0.01368,0.16065,0.18165v3.92041
					c0,0.25878,0.021,0.33544,0.6499,0.33544h0.22363v0.2168C15.69466,123.22552,15.08675,123.22552,14.807,123.22552z"/>
			</g>
		</g>
		<g>
			<g>
				<path class="st1" d="M43.83138,97.59123c-0.55079-0.06757-1.06731,0.28053-1.21143,0.8164l-1.67919,6.76368
					c-0.06006,0.22754-0.10791,0.24023-0.23975,0.24023c-0.168,0-0.17969-0.02441-0.23975-0.2041l-2.57861-7.16016l-1.54736,6.17676
					c-0.02923,0.09736-0.04533,0.19819-0.04786,0.29981c0,0.17968,0.02393,0.49121,0.70752,0.51562
					c0.14405,0,0.228,0.01172,0.228,0.15625c0,0.21582-0.144,0.21582-0.21582,0.21582c-0.37207,0-0.7915-0.03613-1.17529-0.03613
					c-0.37207,0-0.77979,0.03613-1.13965,0.03613c-0.084,0-0.15576-0.03613-0.15576-0.14453
					c0-0.21582,0.13183-0.22754,0.228-0.22754c0.54634,0.06216,1.05022-0.30169,1.16308-0.83984l1.583-6.35645
					c0.01794-0.05021,0.03006-0.1023,0.03613-0.15527c0-0.09668-0.64746-0.09668-0.73144-0.09668
					c-0.228,0-0.32373,0-0.32373-0.14356c0-0.22754,0.13183-0.22754,0.32373-0.22754h1.499c0.252,0,0.26367,0.01172,0.33594,0.20313
					l2.24267,6.2373l1.31934-5.26562c0.02856-0.09351,0.04465-0.19038,0.04785-0.28809c0-0.251-0.0957-0.49121-0.71973-0.51562
					c-0.10791,0-0.21582-0.01172-0.21582-0.14356c0-0.22754,0.15625-0.22754,0.21582-0.22754
					c0.37207,0,0.77979,0.03614,1.16358,0.03614s0.7793-0.03614,1.15137-0.03614c0.07609-0.00991,0.1458,0.04374,0.15571,0.11983
					c0.00153,0.01176,0.00155,0.02368,0.00005,0.03545C44.01107,97.57951,43.867,97.59123,43.83138,97.59123z"/>
				<path class="st1" d="M45.6512,109.40763h-2.59277c0-0.168,0-0.18164,0.07666-0.25878l1.3418-1.49512
					c0.41832-0.41292,0.6781-0.95979,0.73388-1.54492c0-0.57325-0.30078-1.13868-0.93652-1.13868
					c-0.43529,0.00843-0.81586,0.29564-0.94336,0.71192c0.02967-0.00739,0.06038-0.0097,0.09082-0.00684
					c0.19493-0.00935,0.36052,0.1411,0.36987,0.33602c0.00043,0.00908,0.00052,0.01817,0.00026,0.02726
					c0.00222,0.20274-0.16034,0.3689-0.36308,0.37112c-0.20274,0.00222-0.3689-0.16034-0.37112-0.36308
					c-0.0001-0.00951,0.00016-0.01904,0.0008-0.02853c0.01435-0.70885,0.59771-1.27345,1.30664-1.26465
					c0.75558-0.06023,1.41693,0.50345,1.47717,1.25903c0.00256,0.03208,0.00399,0.06425,0.00428,0.09644
					c0,0.69922-0.41895,1.07617-1.50928,2.041l-0.74072,0.71973h1.25781c0.22294,0.01418,0.44674-0.00491,0.66406-0.05664
					c0.07993-0.19884,0.13154-0.40791,0.15332-0.6211h0.17481L45.6512,109.40763z"/>
			</g>
			<line class="st7" x1="33" y1="111.15276" x2="47" y2="111.15276"/>
			<g>
				<path class="st1" d="M43.83138,113.43059c-0.55075-0.06807-1.06749,0.27997-1.21143,0.81592l-1.67919,6.76416
					c-0.06006,0.22754-0.10791,0.23975-0.23975,0.23975c-0.168,0-0.17969-0.02393-0.23975-0.2041l-2.57861-7.15967l-1.54736,6.17627
					c-0.02917,0.09737-0.04527,0.19819-0.04786,0.2998c0,0.18018,0.02393,0.4917,0.70752,0.51612
					c0.14405,0,0.228,0.01171,0.228,0.15576c0,0.21582-0.144,0.21582-0.21582,0.21582c-0.37207,0-0.7915-0.03613-1.17529-0.03613
					c-0.37207,0-0.77979,0.03613-1.13965,0.03613c-0.084,0-0.15576-0.03613-0.15576-0.144c0-0.21583,0.13183-0.22754,0.228-0.22754
					c0.54628,0.06195,1.05005-0.30181,1.16308-0.83985l1.583-6.35644c0.01798-0.05036,0.03011-0.10262,0.03613-0.15576
					c0-0.0962-0.64746-0.0962-0.73144-0.0962c-0.228,0-0.32373,0-0.32373-0.144c0-0.22754,0.13183-0.22754,0.32373-0.22754h1.499
					c0.252,0,0.26367,0.01172,0.33594,0.20362l2.24267,6.23681l1.31934-5.26514c0.02848-0.09352,0.04456-0.19038,0.04785-0.28808
					c0-0.25147-0.0957-0.4917-0.71973-0.51563c-0.10791,0-0.21582-0.01171-0.21582-0.144c0-0.22754,0.15625-0.22754,0.21582-0.22754
					c0.37207,0,0.77979,0.03613,1.16358,0.03613s0.7793-0.03613,1.15137-0.03613c0.07631-0.00972,0.14604,0.04426,0.15576,0.12057
					c0.00149,0.01168,0.00149,0.02351,0,0.03519C44.01107,113.41888,43.867,113.43059,43.83138,113.43059z"/>
				<path class="st1" d="M44.50472,125.22552c-0.2793,0-0.88721,0-1.13184,0.021v-0.2168h0.22364
					c0.6289,0,0.6499-0.08349,0.6499-0.33544v-3.62012c-0.28754,0.12896-0.60052,0.19122-0.91553,0.18213v-0.2168
					c0.46709,0.0294,0.92611-0.132,1.272-0.44727c0.16065,0,0.16065,0.01368,0.16065,0.18165v3.92041
					c0,0.25878,0.021,0.33544,0.6499,0.33544H45.637v0.2168C45.39242,125.22552,44.78451,125.22552,44.50472,125.22552z"/>
			</g>
		</g>
		<path class="st1" d="M87.57161,110.7758H80.412c-0.18018,0-0.40821,0-0.40821-0.23975s0.228-0.23974,0.396-0.23974h7.18408
			c0.168,0,0.396,0,0.396,0.23974S87.75179,110.7758,87.57161,110.7758z M87.58382,113.10246h-7.18407
			c-0.168,0-0.396,0-0.396-0.23975s0.228-0.23974,0.40821-0.23974h7.15966c0.18018,0,0.40821,0,0.40821,0.23974
			S87.75179,113.10246,87.58382,113.10246z"/>
		<g>
			<g>
				<path class="st1" d="M101.83138,97.59123c-0.55079-0.06757-1.06732,0.28053-1.21143,0.8164l-1.67919,6.76368
					c-0.06006,0.22754-0.10791,0.24023-0.23975,0.24023c-0.168,0-0.17969-0.02441-0.23975-0.2041l-2.57861-7.16016l-1.54736,6.17676
					c-0.02924,0.09736-0.04533,0.19819-0.04786,0.29981c0,0.17968,0.02393,0.49121,0.70752,0.51562
					c0.144,0,0.228,0.01172,0.228,0.15625c0,0.21582-0.144,0.21582-0.21582,0.21582c-0.37207,0-0.7915-0.03613-1.17529-0.03613
					c-0.37207,0-0.77979,0.03613-1.13965,0.03613c-0.084,0-0.15576-0.03613-0.15576-0.14453
					c0-0.21582,0.13183-0.22754,0.228-0.22754c0.54633,0.06216,1.05022-0.30169,1.16308-0.83984l1.583-6.35645
					c0.01794-0.05021,0.03006-0.1023,0.03613-0.15527c0-0.09668-0.64746-0.09668-0.73144-0.09668
					c-0.228,0-0.32373,0-0.32373-0.14356c0-0.22754,0.13183-0.22754,0.32373-0.22754h1.499
					c0.25195,0,0.26367,0.01172,0.33594,0.20313l2.24267,6.2373l1.31934-5.26562c0.02856-0.09351,0.04465-0.19038,0.04785-0.28809
					c0-0.251-0.0957-0.49121-0.71973-0.51562c-0.10791,0-0.21582-0.01172-0.21582-0.14356
					c0-0.22754,0.15625-0.22754,0.21582-0.22754c0.37207,0,0.77979,0.03614,1.16358,0.03614s0.7793-0.03614,1.15137-0.03614
					c0.07609-0.00991,0.1458,0.04374,0.15571,0.11983c0.00153,0.01176,0.00155,0.02368,0.00005,0.03545
					C102.01107,97.57951,101.867,97.59123,101.83138,97.59123z"/>
				<path class="st1" d="M102.50472,109.38615c-0.2793,0-0.88721,0-1.13184,0.02148v-0.21679h0.22364
					c0.6289,0,0.6499-0.084,0.6499-0.33594v-3.62012c-0.28745,0.12929-0.60047,0.19173-0.91553,0.18262v-0.2168
					c0.46709,0.0294,0.92611-0.132,1.272-0.44726c0.16065,0,0.16065,0.01367,0.16065,0.18164v3.91992
					c0,0.25879,0.021,0.33594,0.6499,0.33594h0.22363v0.21679C103.39242,109.38615,102.78451,109.38615,102.50472,109.38615z"/>
			</g>
			<line class="st7" x1="91" y1="111.15276" x2="105" y2="111.15276"/>
			<g>
				<path class="st1" d="M101.83138,113.43059c-0.55075-0.06807-1.0675,0.27997-1.21143,0.81592l-1.67919,6.76416
					c-0.06006,0.22754-0.10791,0.23975-0.23975,0.23975c-0.168,0-0.17969-0.02393-0.23975-0.2041l-2.57861-7.15967l-1.54736,6.17627
					c-0.02917,0.09737-0.04527,0.19819-0.04786,0.2998c0,0.18018,0.02393,0.4917,0.70752,0.51612
					c0.144,0,0.228,0.01171,0.228,0.15576c0,0.21582-0.144,0.21582-0.21582,0.21582c-0.37207,0-0.7915-0.03613-1.17529-0.03613
					c-0.37207,0-0.77979,0.03613-1.13965,0.03613c-0.084,0-0.15576-0.03613-0.15576-0.144c0-0.21583,0.13183-0.22754,0.228-0.22754
					c0.54629,0.06195,1.05005-0.30181,1.16308-0.83985l1.583-6.35644c0.01798-0.05036,0.03011-0.10262,0.03613-0.15576
					c0-0.0962-0.64746-0.0962-0.73144-0.0962c-0.228,0-0.32373,0-0.32373-0.144c0-0.22754,0.13183-0.22754,0.32373-0.22754h1.499
					c0.25195,0,0.26367,0.01172,0.33594,0.20362l2.24267,6.23681l1.31934-5.26514c0.02848-0.09352,0.04456-0.19038,0.04785-0.28808
					c0-0.25147-0.0957-0.4917-0.71973-0.51563c-0.10791,0-0.21582-0.01171-0.21582-0.144c0-0.22754,0.15625-0.22754,0.21582-0.22754
					c0.37207,0,0.77979,0.03613,1.16358,0.03613s0.7793-0.03613,1.15137-0.03613c0.07631-0.00972,0.14604,0.04426,0.15576,0.12057
					c0.00149,0.01168,0.00149,0.02351,0,0.03519C102.01107,113.41888,101.867,113.43059,101.83138,113.43059z"/>
				<path class="st1" d="M103.6512,125.24651h-2.59277c0-0.168,0-0.18164,0.07666-0.25879l1.3418-1.49511
					c0.41831-0.41292,0.67809-0.9598,0.73388-1.54493c0-0.57275-0.30078-1.13867-0.93652-1.13867
					c-0.43536,0.00864-0.81591,0.29602-0.94336,0.7124c0.02967-0.00739,0.06038-0.00969,0.09082-0.00683
					c0.19492-0.00935,0.36052,0.1411,0.36987,0.33603c0.00043,0.00908,0.00052,0.01817,0.00025,0.02725
					c0.00198,0.20274-0.16077,0.36871-0.36352,0.37068c-0.20275,0.00198-0.36871-0.16077-0.37069-0.36352
					c-0.00009-0.0094,0.00018-0.01879,0.00081-0.02817c0.01452-0.70877,0.59777-1.27328,1.30664-1.26465
					c0.75575-0.06008,1.41711,0.50388,1.4772,1.25963c0.00253,0.03189,0.00395,0.06385,0.00426,0.09584
					c0,0.69922-0.41895,1.07666-1.50928,2.041l-0.74072,0.71973h1.25781c0.22291,0.01405,0.44668-0.00487,0.66406-0.05616
					c0.07998-0.19899,0.13159-0.40823,0.15332-0.62158h0.17481L103.6512,125.24651z"/>
			</g>
		</g>
	</g>
</g>
<g>
	<g>
		<polyline class="st0" points="203.444,33.002 203.444,23.00199 232.464,23.00199 243.444,23.00199 		"/>
		<g>
			<path class="st1" d="M153.30013,7.97648c-0.4957,0.00888-0.90474-0.38576-0.91362-0.88146
				c-0.00046-0.02602,0.0002-0.05205,0.002-0.07801c0.01636-0.28746,0.08971-0.5688,0.21582-0.82764l0.44385-1.187l0.35986-0.9956
				c0.11804-0.27424,0.19093-0.56577,0.21582-0.86329c0-0.27587-0.13184-0.33593-0.26367-0.33593
				c-0.6958,0-1.00781,1.11523-1.11572,1.51123c-0.04787,0.16748-0.06006,0.19189-0.21582,0.19189
				c-0.06006,0-0.17969,0-0.17969-0.12012c0-0.06005,0.40771-1.84716,1.53516-1.84716
				c0.48831-0.01009,0.89235,0.37758,0.90244,0.86588c0.00064,0.03123-0.00037,0.06247-0.00302,0.09359
				c-0.00124,0.23148-0.05025,0.46022-0.144,0.67187l-0.76758,2.05079c-0.15997,0.36638-0.26511,0.75433-0.312,1.15136
				c0,0.32373,0.168,0.33594,0.26416,0.33594c0.6958,0,1.01953-1.15137,1.11523-1.499c0.04785-0.18018,0.04785-0.2041,0.2041-0.2041
				c0.084,0,0.17969,0,0.17969,0.12011C154.82307,6.17765,154.42757,7.97648,153.30013,7.97648z M154.37923,1.27238
				c-0.28137,0.01617-0.52258-0.19882-0.53874-0.48019c-0.00069-0.0118-0.00095-0.02361-0.00081-0.03543
				c0.02892-0.40934,0.35785-0.73324,0.76758-0.75586c0.28093-0.01659,0.52213,0.1977,0.53871,0.47864
				c0.00073,0.01231,0.00101,0.02465,0.00084,0.03698C155.11789,0.92586,154.78896,1.24976,154.37923,1.27238z"/>
			<path class="st1" d="M156.33333,11.81974c-0.2793,0-0.88721,0-1.13184,0.021v-0.21675h0.22363
				c0.62891,0,0.6499-0.08349,0.6499-0.33545V7.66838c-0.28754,0.12896-0.60052,0.19122-0.91553,0.18213v-0.2168
				c0.46709,0.0294,0.92612-0.132,1.272-0.44727c0.16064,0,0.16064,0.01368,0.16064,0.18164v3.92041
				c0,0.25879,0.021,0.33545,0.6499,0.33545h0.22363v0.2168C157.22099,11.81974,156.61311,11.81974,156.33333,11.81974z"/>
		</g>
		<path class="st0" d="M175.44444,49.08545c2.46227,0.00409,4.46165-1.98865,4.46574-4.45092
			c0.00409-2.46227-1.98865-4.46165-4.45091-4.46575c-0.00494-0.00001-0.00989-0.00001-0.01483,0V23.00212h-40"/>
		<path class="st2" d="M175.44444,58.00212c2.46227,0.00409,4.46165-1.98865,4.46574-4.45092
			c0.00409-2.46227-1.98865-4.46165-4.45091-4.46575c-0.00494-0.00001-0.00989-0.00001-0.01483,0"/>
		<path class="st2" d="M175.44444,58.00212c2.46227,0,4.45833,1.99606,4.45833,4.45833c0,2.46227-1.99606,4.45833-4.45833,4.45833"
			/>
		<path class="st0" d="M175.44444,66.91879c2.46227-0.0034,4.46109,1.98991,4.46449,4.45218
			c0.0034,2.46227-1.9899,4.46109-4.45218,4.46449c-0.0041,0.00001-0.00821,0.00001-0.01231,0v17.16666h-40"/>
		<polyline class="st3" points="147.444,19.00199 161.444,19.00199 158.444,16.00199 		"/>
		<g>
			<path class="st0" d="M203.44444,33.00212v7.16666c-2.46227,0.0034-4.45558,2.00222-4.45218,4.4645
				c0.0034,2.45746,1.99472,4.44878,4.45218,4.45218"/>
			<path class="st2" d="M203.44444,58.00212c-2.46227-0.00409-4.45502-2.00348-4.45093-4.46575
				c0.00409-2.45648,1.99445-4.44683,4.45093-4.45092"/>
			<path class="st2" d="M203.44444,58.00212c-2.46227,0-4.45833,1.99606-4.45833,4.45833c0,2.46227,1.99606,4.45833,4.45833,4.45833
				"/>
			<path class="st0" d="M203.44444,66.91879c-2.46227,0.0034-4.45558,2.00223-4.45218,4.46449
				c0.0034,2.45747,1.99472,4.44878,4.45218,4.45218v7.16667"/>
		</g>
		<polyline class="st0" points="203.444,83.00199 203.444,93.00199 232.464,93.00199 243.444,93.00199 		"/>
		<polyline class="st3" points="232.522,18.90299 218.522,18.90299 221.522,15.90299 		"/>
		<g>
			<path class="st1" d="M224.37727,7.97648c-0.4957,0.00888-0.90474-0.38576-0.91362-0.88146
				c-0.00046-0.02602,0.0002-0.05205,0.002-0.07801c0.01636-0.28746,0.08971-0.5688,0.21582-0.82764l0.44385-1.187l0.35986-0.9956
				c0.11804-0.27424,0.19093-0.56577,0.21582-0.86329c0-0.27587-0.13184-0.33593-0.26367-0.33593
				c-0.6958,0-1.00781,1.11523-1.11572,1.51123c-0.04785,0.16748-0.06,0.19189-0.21582,0.19189
				c-0.06004,0-0.17969,0-0.17969-0.12012c0-0.06005,0.40771-1.84716,1.53516-1.84716
				c0.48831-0.01009,0.89235,0.37758,0.90244,0.86588c0.00064,0.03123-0.00037,0.06247-0.00302,0.09359
				c-0.00122,0.23148-0.05025,0.46022-0.144,0.67187l-0.76756,2.05079c-0.15997,0.36638-0.26511,0.75433-0.312,1.15136
				c0,0.32373,0.168,0.33594,0.26416,0.33594c0.69582,0,1.01955-1.15137,1.11523-1.499
				c0.04785-0.18018,0.04785-0.2041,0.2041-0.2041c0.084,0,0.17969,0,0.17969,0.12011
				C225.90022,6.17765,225.50471,7.97648,224.37727,7.97648z M225.45638,1.27238c-0.28137,0.01618-0.52257-0.1988-0.53874-0.48017
				c-0.00069-0.0118-0.00095-0.02363-0.00081-0.03545c0.02892-0.40934,0.35785-0.73324,0.76758-0.75586
				c0.28093-0.01659,0.52213,0.1977,0.53871,0.47864c0.00073,0.01231,0.00101,0.02465,0.00084,0.03698
				C226.19504,0.92586,225.8661,1.24976,225.45638,1.27238z"/>
			<path class="st1" d="M228.55701,11.84074h-2.59277c0-0.168,0-0.18164,0.07666-0.25879l1.3418-1.49512
				c0.41832-0.41292,0.6781-0.95979,0.73389-1.54492c0-0.57275-0.30078-1.13867-0.93652-1.13867
				c-0.43536,0.00864-0.8159,0.29602-0.94336,0.7124c0.02968-0.00738,0.06038-0.00969,0.09082-0.00683
				c0.19493-0.00934,0.36052,0.1411,0.36986,0.33603c0.00044,0.00908,0.00052,0.01817,0.00026,0.02725
				c0.00198,0.20275-0.16077,0.36871-0.36353,0.37069c-0.20274,0.00198-0.3687-0.16077-0.37068-0.36352
				c-0.00009-0.0094,0.00018-0.01879,0.00081-0.02817c0.01453-0.70877,0.59778-1.27328,1.30664-1.26465
				c0.75575-0.06008,1.41711,0.50388,1.47719,1.25964c0.00253,0.03189,0.00395,0.06385,0.00426,0.09583
				c0,0.69922-0.41901,1.07666-1.50928,2.041l-0.74072,0.71972h1.25781c0.22292,0.01406,0.44667-0.00487,0.66406-0.05615
				c0.07999-0.19898,0.13159-0.40823,0.15332-0.62158h0.1748L228.55701,11.84074z"/>
		</g>
		<circle class="st4" cx="168.44444" cy="40.00212" r="1"/>
		<circle class="st4" cx="210.44444" cy="40.00212" r="1"/>
		<g>
			<line class="st5" x1="157.48033" y1="44.31487" x2="162.48033" y2="44.31487"/>
			<line class="st5" x1="159.98033" y1="46.81487" x2="159.98033" y2="41.81487"/>
		</g>
		<line class="st5" x1="157.48033" y1="71.65373" x2="162.48033" y2="71.65373"/>
		<g>
			<path class="st1" d="M159.28159,59.04435c-0.73785,0.07518-1.39696-0.46203-1.47214-1.19989
				c-0.00809-0.07946-0.00908-0.15948-0.00296-0.23911c0.08199-0.79485,0.28827-1.57189,0.61133-2.30274
				c0.15265-0.34232,0.24989-0.70673,0.28809-1.07959c0-0.312-0.13184-0.34765-0.26367-0.34765
				c-0.6958,0-1.01953,1.13916-1.11572,1.51123c-0.04785,0.16748-0.06006,0.19189-0.21582,0.19189
				c-0.06006,0-0.17969,0-0.17969-0.12011c0-0.07178,0.41943-1.84717,1.53516-1.84717
				c0.49614-0.00864,0.90535,0.38657,0.91399,0.88271c0.00052,0.02969-0.00043,0.05938-0.00285,0.08897
				c-0.0112,0.20569-0.05573,0.40819-0.13184,0.59961c-0.36459,0.82727-0.60307,1.70454-0.70752,2.60254
				c0,0.396,0.13184,0.9956,0.77979,0.9956c1.37891,0,1.94287-3.01025,1.94287-3.34619
				c0.01711-0.34567-0.09872-0.68478-0.32373-0.94775c-0.09361-0.08242-0.14995-0.19917-0.15625-0.32373
				c0.0311-0.29997,0.27466-0.53341,0.57568-0.55176c0.34814,0,0.4917,0.37207,0.4917,0.7915
				C161.84801,54.71476,161.29622,59.04435,159.28159,59.04435z"/>
			<path class="st1" d="M163.2513,62.88763c-0.2793,0-0.88721,0-1.13184,0.021v-0.2168h0.22363
				c0.62891,0,0.6499-0.08349,0.6499-0.33544v-3.62014c-0.28754,0.12899-0.60052,0.19126-0.91553,0.18213v-0.2168
				c0.46709,0.0294,0.92612-0.132,1.272-0.44727c0.16064,0,0.16064,0.01368,0.16064,0.18164v3.92042
				c0,0.25878,0.021,0.33544,0.6499,0.33544h0.22363v0.2168C164.13901,62.88763,163.5311,62.88763,163.2513,62.88763z"/>
		</g>
		<g>
			<line class="st5" x1="215.48033" y1="44.31487" x2="220.48033" y2="44.31487"/>
			<line class="st5" x1="217.98033" y1="46.81487" x2="217.98033" y2="41.81487"/>
		</g>
		<line class="st5" x1="215.48033" y1="71.65373" x2="220.48033" y2="71.65373"/>
		<g>
			<path class="st1" d="M217.28159,59.04435c-0.73785,0.07518-1.39696-0.46203-1.47214-1.19989
				c-0.00809-0.07946-0.00908-0.15948-0.00296-0.23911c0.08199-0.79485,0.28827-1.57189,0.61133-2.30274
				c0.15265-0.34232,0.24989-0.70673,0.28809-1.07959c0-0.312-0.13184-0.34765-0.26367-0.34765
				c-0.6958,0-1.01953,1.13916-1.11572,1.51123c-0.04785,0.16748-0.06006,0.19189-0.21582,0.19189
				c-0.06006,0-0.17969,0-0.17969-0.12011c0-0.07178,0.41943-1.84717,1.53516-1.84717
				c0.49614-0.00864,0.90535,0.38657,0.91399,0.88271c0.00052,0.02969-0.00043,0.05938-0.00285,0.08897
				c-0.0112,0.20569-0.05573,0.40819-0.13184,0.59961c-0.36459,0.82727-0.60307,1.70454-0.70752,2.60254
				c0,0.396,0.13184,0.9956,0.77979,0.9956c1.37891,0,1.94287-3.01025,1.94287-3.34619
				c0.01711-0.34567-0.09872-0.68478-0.32373-0.94775c-0.09361-0.08242-0.14995-0.19917-0.15625-0.32373
				c0.0311-0.29997,0.27466-0.53341,0.57568-0.55176c0.34814,0,0.4917,0.37207,0.4917,0.7915
				C219.84801,54.71476,219.29622,59.04435,217.28159,59.04435z"/>
			<path class="st1" d="M222.3978,62.90862h-2.5928c0-0.168,0-0.18164,0.07666-0.25879l1.3418-1.49512
				c0.41832-0.41291,0.6781-0.95979,0.73389-1.54492c0-0.57275-0.30078-1.13867-0.93652-1.13867
				c-0.43536,0.00864-0.8159,0.29602-0.94336,0.7124c0.02968-0.00738,0.06038-0.00969,0.09082-0.00683
				c0.19493-0.00934,0.36052,0.1411,0.36986,0.33603c0.00044,0.00908,0.00052,0.01817,0.00026,0.02726
				c0.00198,0.20274-0.16077,0.36871-0.36353,0.37069c-0.20274,0.00198-0.3687-0.16077-0.37068-0.36352
				c-0.00009-0.0094,0.00018-0.01879,0.00081-0.02817c0.01453-0.70877,0.59778-1.27328,1.30664-1.26465
				c0.75575-0.06007,1.41711,0.50388,1.47719,1.25964c0.00253,0.03189,0.00395,0.06385,0.00426,0.09583
				c0,0.69922-0.41895,1.07666-1.50928,2.041l-0.74072,0.71973h1.25781c0.22292,0.01405,0.44667-0.00487,0.66406-0.05616
				c0.07994-0.19903,0.13171-0.40824,0.15381-0.62158h0.17432L222.3978,62.90862z"/>
		</g>
		<g>
			<path class="st1" d="M180.17075,5.13908c-0.55066-0.06831-1.06746,0.27956-1.21143,0.81543l-1.6792,6.76465
				c-0.06006,0.22754-0.10791,0.23974-0.23975,0.23974c-0.168,0-0.17969-0.02392-0.23975-0.2041L174.222,5.59513l-1.54736,6.17627
				c-0.02917,0.09737-0.04526,0.19819-0.04785,0.29981c0,0.18017,0.02393,0.4917,0.70752,0.51611
				c0.144,0,0.228,0.01172,0.228,0.15576c0,0.21582-0.144,0.21582-0.21582,0.21582c-0.37207,0-0.7915-0.03613-1.17529-0.03613
				c-0.37207,0-0.77979,0.03613-1.13963,0.03613c-0.084,0-0.15578-0.03613-0.15578-0.144c0-0.21582,0.13184-0.22754,0.228-0.22754
				c0.54628,0.06196,1.05005-0.3018,1.16309-0.83984l1.58299-6.35645c0.01799-0.05036,0.03011-0.10262,0.03613-0.15576
				c0-0.09619-0.64746-0.09619-0.73145-0.09619c-0.228,0-0.32373,0-0.32373-0.14355c0-0.228,0.13184-0.228,0.32373-0.228h1.49899
				c0.25195,0,0.26367,0.01172,0.33594,0.20361l2.24268,6.23682l1.31946-5.26521c0.02852-0.09352,0.0446-0.19038,0.04785-0.28809
				c0-0.25146-0.0957-0.49169-0.71973-0.51562c-0.10791,0-0.21582-0.01172-0.21582-0.14355c0-0.228,0.15625-0.228,0.21582-0.228
				c0.37207,0,0.77979,0.03564,1.16357,0.03564s0.7793-0.03564,1.15137-0.03564c0.07631-0.00972,0.14604,0.04426,0.15576,0.12057
				c0.0015,0.01168,0.0015,0.02351,0,0.03519C180.35042,5.12736,180.20638,5.13908,180.17075,5.13908z"/>
			<path class="st1" d="M180.84409,16.93399c-0.2793,0-0.88721,0-1.13184,0.021v-0.2168h0.22363
				c0.62891,0,0.6499-0.0835,0.6499-0.33545v-3.62011c-0.28754,0.12896-0.60052,0.19122-0.91553,0.18213v-0.21677
				c0.46709,0.0294,0.92612-0.132,1.272-0.44727c0.16064,0,0.16064,0.01416,0.16064,0.18164v3.92041
				c0,0.25879,0.021,0.33545,0.6499,0.33545h0.22363v0.2168C181.73177,16.93399,181.12386,16.93399,180.84409,16.93399z"/>
			<path class="st1" d="M188.50911,9.06099c-0.35098-0.00014-0.63539-0.28478-0.63524-0.63576
				c0.00014-0.35098,0.28477-0.63538,0.63576-0.63524c0.35078,0.00014,0.6351,0.28448,0.63524,0.63526
				C189.14261,8.77543,188.85928,9.05874,188.50911,9.06099z M188.50911,12.95899c-0.3511-0.00001-0.63573-0.28465-0.63573-0.63576
				c0.00002-0.35111,0.28465-0.63573,0.63576-0.63572s0.63573,0.28464,0.63573,0.63574
				c-0.00232,0.35014-0.28561,0.6334-0.63576,0.63565V12.95899z"/>
			<path class="st1" d="M204.21223,5.13908c-0.55063-0.06819-1.06735,0.27963-1.21143,0.81543l-1.6792,6.76465
				c-0.06,0.22754-0.10791,0.23974-0.23975,0.23974c-0.168,0-0.17969-0.02392-0.23975-0.2041l-2.57861-7.15967l-1.54736,6.17627
				c-0.02917,0.09737-0.04527,0.19819-0.04787,0.29981c0,0.18017,0.02393,0.4917,0.70752,0.51611
				c0.144,0,0.228,0.01172,0.228,0.15576c0,0.21582-0.144,0.21582-0.21582,0.21582c-0.37207,0-0.7915-0.03613-1.17529-0.03613
				c-0.37207,0-0.77979,0.03613-1.13965,0.03613c-0.084,0-0.15576-0.03613-0.15576-0.144c0-0.21582,0.13184-0.22754,0.228-0.22754
				c0.54628,0.06196,1.05005-0.3018,1.16309-0.83984l1.58299-6.35645c0.01799-0.05036,0.03011-0.10262,0.03613-0.15576
				c0-0.09619-0.64746-0.09619-0.73145-0.09619c-0.228,0-0.32373,0-0.32373-0.14355c0-0.228,0.13184-0.228,0.32373-0.228h1.49899
				c0.25195,0,0.26367,0.01172,0.33594,0.20361l2.24268,6.23682l1.31946-5.26521c0.02852-0.09352,0.0446-0.19038,0.04785-0.28809
				c0-0.25146-0.0957-0.49169-0.71973-0.51562c-0.10791,0-0.21582-0.01172-0.21582-0.14355c0-0.228,0.15625-0.228,0.21582-0.228
				c0.37207,0,0.77979,0.03564,1.16357,0.03564s0.77979-0.03564,1.15137-0.03564c0.07631-0.00972,0.14604,0.04426,0.15576,0.12057
				c0.0015,0.01168,0.0015,0.02351,0,0.03519C204.39194,5.12736,204.24837,5.13908,204.21223,5.13908z"/>
			<path class="st1" d="M206.03206,16.95499h-2.59277c0-0.16748,0-0.18164,0.07666-0.25879l1.3418-1.49512
				c0.41812-0.41285,0.67789-0.9595,0.73389-1.54443c0-0.57324-0.30078-1.13916-0.93652-1.13916
				c-0.43536,0.00864-0.8159,0.29602-0.94336,0.7124c0.02966-0.00739,0.06038-0.00971,0.09082-0.00684
				c0.19493-0.00934,0.36052,0.1411,0.36986,0.33603c0.00044,0.00908,0.00052,0.01818,0.00026,0.02726
				c0.00198,0.20274-0.16077,0.36871-0.36353,0.37069c-0.20274,0.00198-0.3687-0.16077-0.37068-0.36352
				c-0.00009-0.0094,0.00018-0.01879,0.00081-0.02817c0.01453-0.70877,0.59778-1.27328,1.30664-1.26465
				c0.7558-0.06003,1.41716,0.50401,1.47719,1.25981c0.00255,0.032,0.00397,0.06409,0.00426,0.09619
				c0,0.69873-0.41901,1.07617-1.50928,2.04053l-0.74072,0.71972h1.25781c0.22292,0.01405,0.44667-0.00487,0.66406-0.05615
				c0.07994-0.19903,0.13171-0.40824,0.15381-0.62158h0.17432L206.03206,16.95499z"/>
		</g>
		<line class="st6" x1="186.26389" y1="48.90276" x2="186.26389" y2="66.90276"/>
		<line class="st6" x1="192.625" y1="48.90276" x2="192.625" y2="66.90276"/>
	</g>
	<g>
		<line class="st7" x1="192.94444" y1="111.15276" x2="206.94444" y2="111.15276"/>
		<g>
			<path class="st1" d="M198.80013,105.54338c-0.4957,0.00887-0.90474-0.38577-0.91362-0.88148
				c-0.00046-0.02602,0.0002-0.05204,0.002-0.078c0.01636-0.28746,0.08971-0.56879,0.21582-0.82763l0.44385-1.187l0.35986-0.99561
				c0.11804-0.27423,0.19092-0.56577,0.21582-0.86328c0-0.27588-0.13184-0.33594-0.26367-0.33594
				c-0.6958,0-1.00781,1.11524-1.11572,1.51123c-0.04787,0.16748-0.06006,0.1919-0.21582,0.1919
				c-0.06006,0-0.17969,0-0.17969-0.12012c0-0.06006,0.40771-1.84717,1.53516-1.84717
				c0.48831-0.01009,0.89235,0.37758,0.90244,0.86588c0.00064,0.03123-0.00037,0.06247-0.00302,0.09359
				c-0.00124,0.23148-0.05025,0.46023-0.144,0.67188l-0.76758,2.05078c-0.15997,0.36639-0.26511,0.75434-0.312,1.15137
				c0,0.32373,0.168,0.33593,0.26416,0.33593c0.6958,0,1.01953-1.15136,1.11523-1.499c0.04785-0.18017,0.04785-0.2041,0.2041-0.2041
				c0.084,0,0.17969,0,0.17969,0.12012C200.32307,103.74455,199.92757,105.54338,198.80013,105.54338z M199.87923,98.83928
				c-0.28137,0.01617-0.52258-0.19884-0.53874-0.48021c-0.00069-0.0118-0.00095-0.02361-0.00081-0.03542
				c0.02892-0.40934,0.35785-0.73324,0.76758-0.75586c0.28093-0.01659,0.52213,0.1977,0.53871,0.47864
				c0.00073,0.01231,0.00101,0.02466,0.00084,0.03699C200.61789,98.49276,200.28896,98.81667,199.87923,98.83928z"/>
			<path class="st1" d="M202.97981,109.40763h-2.59282c0-0.168,0-0.18164,0.07666-0.25878l1.3418-1.49512
				c0.41832-0.41292,0.6781-0.95979,0.73389-1.54492c0-0.57276-0.30078-1.13868-0.93652-1.13868
				c-0.43536,0.00865-0.8159,0.29603-0.94334,0.71241c0.02966-0.00739,0.06038-0.00971,0.09082-0.00684
				c0.19493-0.00935,0.36052,0.1411,0.36986,0.33603c0.00044,0.00908,0.00052,0.01817,0.00026,0.02725
				c0.00198,0.20274-0.16078,0.36871-0.36353,0.37068s-0.3687-0.16077-0.37068-0.36352
				c-0.00009-0.0094,0.00018-0.01879,0.00081-0.02817c0.01451-0.70877,0.59778-1.27328,1.30664-1.26465
				c0.75575-0.06007,1.41711,0.50388,1.47719,1.25964c0.00253,0.03188,0.00395,0.06385,0.00426,0.09583
				c0,0.69922-0.41895,1.07666-1.50928,2.041l-0.74072,0.71973h1.25781c0.22292,0.01405,0.44667-0.00487,0.66406-0.05615
				c0.07997-0.19899,0.13159-0.40823,0.15332-0.62159h0.1748L202.97981,109.40763z"/>
		</g>
		<g>
			<path class="st1" d="M198.80061,120.97649c-0.4957,0.00888-0.90474-0.38576-0.91362-0.88145
				c-0.00046-0.02602,0.0002-0.05206,0.002-0.07802c0.01636-0.28746,0.08971-0.56879,0.21582-0.82764l0.44385-1.187l0.35986-0.9956
				c0.11804-0.27424,0.19093-0.56577,0.21582-0.86329c0-0.27587-0.13184-0.33593-0.26367-0.33593
				c-0.6958,0-1.00781,1.11523-1.11572,1.51123c-0.04785,0.16748-0.06,0.19189-0.21582,0.19189
				c-0.06004,0-0.17969,0-0.17969-0.12012c0-0.06005,0.40771-1.84716,1.53516-1.84716
				c0.48831-0.01009,0.89235,0.37758,0.90244,0.86588c0.00064,0.03123-0.00037,0.06247-0.00302,0.09359
				c-0.00122,0.23148-0.05025,0.46021-0.144,0.67187l-0.76756,2.05079c-0.15997,0.36638-0.26511,0.75433-0.312,1.15136
				c0,0.32373,0.168,0.33594,0.26416,0.33594c0.69582,0,1.01955-1.15137,1.11523-1.499
				c0.04785-0.18018,0.04785-0.2041,0.2041-0.2041c0.084,0,0.17969,0,0.17969,0.12011
				C200.32356,119.17765,199.92805,120.97649,198.80061,120.97649z M199.87971,114.27238
				c-0.28137,0.01617-0.52257-0.19881-0.53874-0.48017c-0.00069-0.0118-0.00095-0.02363-0.00081-0.03545
				c0.02892-0.40934,0.35785-0.73324,0.76758-0.75586c0.28093-0.01659,0.52213,0.1977,0.53871,0.47864
				c0.00073,0.01231,0.00101,0.02464,0.00084,0.03698C200.61838,113.92587,200.28944,114.24976,199.87971,114.27238z"/>
			<path class="st1" d="M201.83382,124.81974c-0.2793,0-0.88721,0-1.13184,0.021v-0.2168h0.22363
				c0.62891,0,0.6499-0.08349,0.6499-0.33545v-3.62011c-0.28754,0.12896-0.60052,0.19122-0.91553,0.18213v-0.2168
				c0.46709,0.0294,0.92612-0.132,1.272-0.44727c0.16064,0,0.16064,0.01368,0.16064,0.18164v3.92041
				c0,0.25879,0.021,0.33545,0.6499,0.33545h0.22363v0.2168C202.72153,124.81974,202.11362,124.81974,201.83382,124.81974z"/>
		</g>
	</g>
	<path class="st1" d="M159.51601,110.7758h-7.15967c-0.18018,0-0.4082,0-0.4082-0.23975s0.228-0.23974,0.396-0.23974h7.18408
		c0.168,0,0.396,0,0.396,0.23974S159.69614,110.7758,159.51601,110.7758z M159.52821,113.10246h-7.18408
		c-0.168,0-0.396,0-0.396-0.23975s0.228-0.23974,0.4082-0.23974h7.15967c0.18018,0,0.4082,0,0.4082,0.23974
		s-0.22807,0.23975-0.39606,0.23975H159.52821z"/>
	<g>
		<g>
			<path class="st1" d="M140.78159,105.54338c-0.73795,0.07511-1.39706-0.46222-1.47217-1.20016
				c-0.0081-0.07952-0.00908-0.15961-0.00293-0.2393c0.08211-0.79482,0.28839-1.57185,0.61133-2.30273
				c0.15263-0.34216,0.24988-0.70641,0.28809-1.0791c0-0.3125-0.13184-0.34766-0.26367-0.34766
				c-0.6958,0-1.01953,1.13867-1.11572,1.51074c-0.04785,0.168-0.06006,0.19239-0.21582,0.19239
				c-0.06006,0-0.17969,0-0.17969-0.12012c0-0.07227,0.41943-1.84766,1.53516-1.84766
				c0.49614-0.00864,0.90535,0.38657,0.91399,0.88271c0.00052,0.02969-0.00043,0.05938-0.00285,0.08897
				c-0.01109,0.2057-0.05562,0.40823-0.13184,0.59961c-0.36447,0.82732-0.60295,1.70457-0.70752,2.60254
				c0,0.39649,0.13184,0.99609,0.77979,0.99609c1.37891,0,1.94287-3.01074,1.94287-3.34667
				c0.01717-0.34554-0.09868-0.68452-0.32373-0.94727c-0.09363-0.08262-0.14996-0.19952-0.15625-0.32422
				c0.03127-0.29989,0.27473-0.53324,0.57568-0.55176c0.34814,0,0.4917,0.37207,0.4917,0.792
				C143.34801,101.2133,142.79622,105.54338,140.78159,105.54338z"/>
			<path class="st1" d="M145.8978,109.40763h-2.5928c0-0.168,0-0.18164,0.07666-0.25878l1.3418-1.49512
				c0.41832-0.41292,0.6781-0.95979,0.73389-1.54492c0-0.57325-0.30078-1.13868-0.93652-1.13868
				c-0.43529,0.00843-0.81587,0.29564-0.94336,0.71192c0.02966-0.00739,0.06038-0.0097,0.09082-0.00684
				c0.19493-0.00935,0.36052,0.1411,0.36986,0.33603c0.00044,0.00908,0.00052,0.01817,0.00026,0.02725
				c0.00221,0.20274-0.16034,0.3689-0.36308,0.37112s-0.3689-0.16034-0.37111-0.36308
				c-0.00011-0.00951,0.00015-0.01904,0.00079-0.02853c0.01434-0.70885,0.5977-1.27345,1.30664-1.26465
				c0.75558-0.06023,1.41693,0.50346,1.47716,1.25903c0.00256,0.03209,0.004,0.06425,0.00429,0.09644
				c0,0.69922-0.41895,1.07617-1.50928,2.041l-0.74072,0.71973h1.25781c0.22293,0.01418,0.44675-0.00491,0.66406-0.05664
				c0.0799-0.19888,0.13165-0.40792,0.15381-0.6211h0.17432L145.8978,109.40763z"/>
		</g>
		<line class="st7" x1="134.94444" y1="111.15276" x2="148.94444" y2="111.15276"/>
		<g>
			<path class="st1" d="M140.78159,119.38224c-0.73785,0.07518-1.39696-0.46203-1.47214-1.19989
				c-0.00809-0.07946-0.00908-0.15948-0.00296-0.23911c0.08199-0.79485,0.28827-1.57189,0.61133-2.30274
				c0.15265-0.34232,0.24989-0.70673,0.28809-1.07959c0-0.312-0.13184-0.34765-0.26367-0.34765
				c-0.6958,0-1.01953,1.13916-1.11572,1.51123c-0.04785,0.16748-0.06006,0.19189-0.21582,0.19189
				c-0.06006,0-0.17969,0-0.17969-0.12011c0-0.07178,0.41943-1.84717,1.53516-1.84717
				c0.49614-0.00864,0.90535,0.38657,0.91399,0.88271c0.00052,0.02969-0.00043,0.05938-0.00285,0.08897
				c-0.0112,0.20569-0.05573,0.4082-0.13184,0.59961c-0.36459,0.82728-0.60307,1.70454-0.70752,2.60254
				c0,0.396,0.13184,0.9956,0.77979,0.9956c1.37891,0,1.94287-3.01025,1.94287-3.34619
				c0.01711-0.34567-0.09872-0.68478-0.32373-0.94775c-0.09361-0.08242-0.14995-0.19917-0.15625-0.32373
				c0.0311-0.29997,0.27466-0.53341,0.57568-0.55176c0.34814,0,0.4917,0.37207,0.4917,0.7915
				C143.34801,115.05265,142.79622,119.38224,140.78159,119.38224z"/>
			<path class="st1" d="M144.7513,123.22552c-0.2793,0-0.88721,0-1.13184,0.021v-0.2168h0.22363
				c0.62891,0,0.6499-0.08349,0.6499-0.33544v-3.62012c-0.28754,0.129-0.60052,0.19126-0.91553,0.18213v-0.2168
				c0.46709,0.0294,0.92612-0.132,1.272-0.44727c0.16064,0,0.16064,0.01368,0.16064,0.18165v3.92041
				c0,0.25878,0.021,0.33544,0.6499,0.33544h0.22363v0.2168C145.63901,123.22552,145.0311,123.22552,144.7513,123.22552z"/>
		</g>
	</g>
	<g>
		<g>
			<path class="st1" d="M173.77573,97.59123c-0.5508-0.0676-1.06734,0.28051-1.21143,0.8164l-1.6792,6.76368
				c-0.06006,0.22754-0.10791,0.24023-0.23975,0.24023c-0.168,0-0.17969-0.02441-0.23975-0.2041l-2.57861-7.16016l-1.54736,6.17676
				c-0.02922,0.09736-0.04532,0.19819-0.04785,0.29981c0,0.17968,0.02393,0.49121,0.70752,0.51562
				c0.144,0,0.228,0.01172,0.228,0.15625c0,0.21582-0.144,0.21582-0.21582,0.21582c-0.37207,0-0.7915-0.03613-1.17529-0.03613
				c-0.37207,0-0.77979,0.03613-1.13963,0.03613c-0.084,0-0.15578-0.03613-0.15578-0.14453c0-0.21582,0.13184-0.22754,0.228-0.22754
				c0.54634,0.06216,1.05023-0.30169,1.16309-0.83984l1.58299-6.35645c0.01794-0.05021,0.03006-0.1023,0.03613-0.15527
				c0-0.09668-0.64746-0.09668-0.73145-0.09668c-0.228,0-0.32373,0-0.32373-0.14356c0-0.22754,0.13184-0.22754,0.32373-0.22754
				h1.49899c0.25195,0,0.26367,0.01172,0.33594,0.20313l2.24268,6.2373l1.31934-5.26562
				c0.02855-0.09351,0.04465-0.19038,0.04785-0.28809c0-0.251-0.0957-0.49121-0.71973-0.51562
				c-0.10791,0-0.21582-0.01172-0.21582-0.14356c0-0.22754,0.15625-0.22754,0.21582-0.22754
				c0.37207,0,0.77979,0.03614,1.16357,0.03614s0.7793-0.03614,1.15137-0.03614c0.07608-0.00991,0.1458,0.04374,0.1557,0.11983
				c0.00154,0.01176,0.00156,0.02368,0.00006,0.03545C173.9554,97.57951,173.81136,97.59123,173.77573,97.59123z"/>
			<path class="st1" d="M175.59554,109.40763h-2.59277c0-0.168,0-0.18164,0.07666-0.25878l1.3418-1.49512
				c0.41832-0.41292,0.6781-0.95979,0.73389-1.54492c0-0.57325-0.30078-1.13868-0.93652-1.13868
				c-0.43529,0.00843-0.81587,0.29564-0.94336,0.71192c0.02966-0.00739,0.06038-0.00971,0.09082-0.00684
				c0.19493-0.00935,0.36052,0.1411,0.36986,0.33603c0.00044,0.00908,0.00052,0.01817,0.00026,0.02725
				c0.00221,0.20274-0.16034,0.3689-0.36308,0.37112s-0.3689-0.16034-0.37111-0.36308
				c-0.00011-0.00951,0.00015-0.01904,0.00079-0.02853c0.01434-0.70885,0.5977-1.27345,1.30664-1.26465
				c0.75557-0.06024,1.41692,0.50344,1.47716,1.25902c0.00256,0.03209,0.004,0.06426,0.00429,0.09645
				c0,0.69922-0.41895,1.07617-1.50928,2.041l-0.74072,0.71973h1.25781c0.22293,0.01418,0.44675-0.00491,0.66406-0.05664
				c0.07993-0.19884,0.13153-0.40791,0.15332-0.6211h0.1748L175.59554,109.40763z"/>
		</g>
		<line class="st7" x1="162.94444" y1="111.15276" x2="176.94444" y2="111.15276"/>
		<g>
			<path class="st1" d="M173.77573,113.43059c-0.55075-0.06807-1.06749,0.27997-1.21143,0.81592l-1.6792,6.76416
				c-0.06006,0.22754-0.10791,0.23975-0.23975,0.23975c-0.168,0-0.17969-0.02393-0.23975-0.2041l-2.57861-7.15967l-1.54736,6.17627
				c-0.02916,0.09737-0.04526,0.19819-0.04785,0.2998c0,0.18018,0.02393,0.4917,0.70752,0.51612
				c0.144,0,0.228,0.01171,0.228,0.15576c0,0.21582-0.144,0.21582-0.21582,0.21582c-0.37207,0-0.7915-0.03613-1.17529-0.03613
				c-0.37207,0-0.77979,0.03613-1.13963,0.03613c-0.084,0-0.15578-0.03613-0.15578-0.144c0-0.21583,0.13184-0.22754,0.228-0.22754
				c0.54628,0.06195,1.05005-0.30181,1.16309-0.83985l1.58299-6.35644c0.01799-0.05036,0.03011-0.10262,0.03613-0.15576
				c0-0.0962-0.64746-0.0962-0.73145-0.0962c-0.228,0-0.32373,0-0.32373-0.144c0-0.22754,0.13184-0.22754,0.32373-0.22754h1.49899
				c0.25195,0,0.26367,0.01172,0.33594,0.20362l2.24268,6.23681l1.31934-5.26514c0.02847-0.09352,0.04456-0.19038,0.04785-0.28808
				c0-0.25147-0.0957-0.4917-0.71973-0.51563c-0.10791,0-0.21582-0.01171-0.21582-0.144c0-0.22754,0.15625-0.22754,0.21582-0.22754
				c0.37207,0,0.77979,0.03613,1.16357,0.03613s0.7793-0.03613,1.15137-0.03613c0.07631-0.00972,0.14604,0.04426,0.15576,0.12057
				c0.0015,0.01168,0.0015,0.02351,0,0.03519C173.9554,113.41888,173.81136,113.43059,173.77573,113.43059z"/>
			<path class="st1" d="M174.44907,125.22552c-0.2793,0-0.88721,0-1.13184,0.021v-0.2168h0.22363
				c0.62891,0,0.6499-0.08349,0.6499-0.33544v-3.62012c-0.28754,0.12896-0.60052,0.19122-0.91553,0.18213v-0.2168
				c0.46709,0.0294,0.92612-0.132,1.272-0.44727c0.16064,0,0.16064,0.01368,0.16064,0.18165v3.92041
				c0,0.25878,0.021,0.33544,0.6499,0.33544h0.22363v0.2168C175.33675,125.22552,174.72884,125.22552,174.44907,125.22552z"/>
		</g>
	</g>
	<path class="st1" d="M217.51601,110.7758h-7.15967c-0.18018,0-0.4082,0-0.4082-0.23975s0.228-0.23974,0.396-0.23974h7.18408
		c0.168,0,0.396,0,0.396,0.23974S217.69614,110.7758,217.51601,110.7758z M217.52821,113.10246h-7.18408
		c-0.168,0-0.396,0-0.396-0.23975s0.228-0.23974,0.4082-0.23974h7.15967c0.18018,0,0.4082,0,0.4082,0.23974
		s-0.22807,0.23975-0.39606,0.23975H217.52821z"/>
	<g>
		<g>
			<path class="st1" d="M240.77573,97.59123c-0.5508-0.0676-1.06734,0.28051-1.21143,0.8164l-1.6792,6.76368
				c-0.06006,0.22754-0.10791,0.24023-0.23975,0.24023c-0.168,0-0.17969-0.02441-0.23975-0.2041l-2.57861-7.16016l-1.54736,6.17676
				c-0.02922,0.09736-0.04532,0.19819-0.04785,0.29981c0,0.17968,0.02393,0.49121,0.70752,0.51562
				c0.144,0,0.228,0.01172,0.228,0.15625c0,0.21582-0.144,0.21582-0.21582,0.21582c-0.37207,0-0.7915-0.03613-1.17529-0.03613
				c-0.37207,0-0.77979,0.03613-1.13963,0.03613c-0.084,0-0.15578-0.03613-0.15578-0.14453c0-0.21582,0.13184-0.22754,0.228-0.22754
				c0.54634,0.06216,1.05023-0.30169,1.16309-0.83984l1.58299-6.35645c0.01794-0.05021,0.03006-0.1023,0.03613-0.15527
				c0-0.09668-0.64746-0.09668-0.73145-0.09668c-0.228,0-0.32373,0-0.32373-0.14356c0-0.22754,0.13184-0.22754,0.32373-0.22754
				h1.49899c0.25195,0,0.26367,0.01172,0.33594,0.20313l2.24268,6.2373l1.31934-5.26562
				c0.02855-0.09351,0.04465-0.19038,0.04785-0.28809c0-0.251-0.0957-0.49121-0.71973-0.51562
				c-0.10791,0-0.21582-0.01172-0.21582-0.14356c0-0.22754,0.15625-0.22754,0.21582-0.22754
				c0.37207,0,0.77979,0.03614,1.16357,0.03614s0.7793-0.03614,1.15137-0.03614c0.07608-0.00991,0.1458,0.04374,0.1557,0.11983
				c0.00154,0.01176,0.00156,0.02368,0.00006,0.03545C240.9554,97.57951,240.81136,97.59123,240.77573,97.59123z"/>
			<path class="st1" d="M241.44907,109.38615c-0.2793,0-0.88721,0-1.13184,0.02148v-0.21679h0.22363
				c0.62891,0,0.6499-0.084,0.6499-0.33594v-3.62012c-0.28745,0.12929-0.60046,0.19173-0.91553,0.18262v-0.2168
				c0.46709,0.0294,0.9261-0.132,1.272-0.44726c0.16064,0,0.16064,0.01367,0.16064,0.18164v3.91992
				c0,0.25879,0.021,0.33594,0.6499,0.33594h0.22363v0.21679C242.33675,109.38615,241.72884,109.38615,241.44907,109.38615z"/>
		</g>
		<line class="st7" x1="229.94444" y1="111.15276" x2="243.94444" y2="111.15276"/>
		<g>
			<path class="st1" d="M240.77573,113.43059c-0.55075-0.06807-1.06749,0.27997-1.21143,0.81592l-1.6792,6.76416
				c-0.06006,0.22754-0.10791,0.23975-0.23975,0.23975c-0.168,0-0.17969-0.02393-0.23975-0.2041l-2.57861-7.15967l-1.54736,6.17627
				c-0.02916,0.09737-0.04526,0.19819-0.04785,0.2998c0,0.18018,0.02393,0.4917,0.70752,0.51612
				c0.144,0,0.228,0.01171,0.228,0.15576c0,0.21582-0.144,0.21582-0.21582,0.21582c-0.37207,0-0.7915-0.03613-1.17529-0.03613
				c-0.37207,0-0.77979,0.03613-1.13963,0.03613c-0.084,0-0.15578-0.03613-0.15578-0.144c0-0.21583,0.13184-0.22754,0.228-0.22754
				c0.54628,0.06195,1.05005-0.30181,1.16309-0.83985l1.58299-6.35644c0.01799-0.05036,0.03011-0.10262,0.03613-0.15576
				c0-0.0962-0.64746-0.0962-0.73145-0.0962c-0.228,0-0.32373,0-0.32373-0.144c0-0.22754,0.13184-0.22754,0.32373-0.22754h1.49899
				c0.25195,0,0.26367,0.01172,0.33594,0.20362l2.24268,6.23681l1.31934-5.26514c0.02847-0.09352,0.04456-0.19038,0.04785-0.28808
				c0-0.25147-0.0957-0.4917-0.71973-0.51563c-0.10791,0-0.21582-0.01171-0.21582-0.144c0-0.22754,0.15625-0.22754,0.21582-0.22754
				c0.37207,0,0.77979,0.03613,1.16357,0.03613s0.7793-0.03613,1.15137-0.03613c0.07631-0.00972,0.14604,0.04426,0.15576,0.12057
				c0.0015,0.01168,0.0015,0.02351,0,0.03519C240.9554,113.41888,240.81136,113.43059,240.77573,113.43059z"/>
			<path class="st1" d="M242.59554,125.24651h-2.59277c0-0.168,0-0.18164,0.07666-0.25879l1.3418-1.49511
				c0.41832-0.41292,0.6781-0.9598,0.73389-1.54493c0-0.57275-0.30078-1.13867-0.93652-1.13867
				c-0.43536,0.00864-0.81592,0.29601-0.94336,0.7124c0.02968-0.00739,0.06038-0.00969,0.09082-0.00683
				c0.19493-0.00935,0.36052,0.1411,0.36986,0.33603c0.00044,0.00908,0.00052,0.01817,0.00026,0.02725
				c0.00198,0.20274-0.16078,0.36871-0.36353,0.37068s-0.3687-0.16077-0.37068-0.36352
				c-0.00009-0.0094,0.00018-0.01879,0.00081-0.02817c0.01453-0.70877,0.59778-1.27328,1.30664-1.26465
				c0.75575-0.06008,1.41711,0.50387,1.47719,1.25961c0.00253,0.0319,0.00395,0.06387,0.00426,0.09586
				c0,0.69922-0.41895,1.07666-1.50928,2.041l-0.74072,0.71973h1.25781c0.22292,0.01405,0.44667-0.00487,0.66406-0.05616
				c0.07997-0.19899,0.13159-0.40823,0.15332-0.62158h0.1748L242.59554,125.24651z"/>
		</g>
	</g>
	<path class="st1" d="M227.90218,111.98722h-7.21973c-0.15625,0-0.44383,0-0.44383-0.28808
		c0-0.29981,0.27588-0.29981,0.44383-0.29981h7.21973c0.168,0,0.44385,0,0.44385,0.29981
		C228.34599,111.98722,228.05794,111.98722,227.90218,111.98722z"/>
</g>
</svg>
