<?xml version="1.0" encoding="utf-8"?>
<!-- Generator: Adobe Illustrator 23.0.3, SVG Export Plug-In . SVG Version: 6.00 Build 0)  -->
<svg version="1.1" id="Layer_1" xmlns="http://www.w3.org/2000/svg" xmlns:xlink="http://www.w3.org/1999/xlink" x="0px" y="0px"
	 viewBox="0 0 251.44446 126.24648" style="enable-background:new 0 0 251.44446 126.24648;" xml:space="preserve">
<style type="text/css">
	.st0{fill:none;stroke:#8FF4DD;stroke-width:2;stroke-linecap:round;stroke-linejoin:round;}
	.st1{fill:#8FF4DD;}
	.st2{fill:none;stroke:#8FF4DD;stroke-width:2;stroke-linecap:round;}
	.st3{fill:none;stroke:#8FF4DD;stroke-width:2;stroke-linecap:square;}
	.st4{fill:#8FF4DD;stroke:#8FF4DD;stroke-width:2;}
	.st5{fill:none;stroke:#8FF4DD;stroke-width:1.5;stroke-linecap:square;}
	.st6{fill:none;stroke:#8FF4DD;stroke-width:2;stroke-miterlimit:10;}
	.st7{fill:none;stroke:#8FF4DD;stroke-width:0.5;}
</style>
<title>TransformerDotConvention</title>
<g>
	<g>
		<polyline class="st0" points="69.50012,33.00197 69.50012,23.00197 98.5191,23.00197 109.50012,23.00197 		"/>
		<g>
			<path class="st1" d="M19.35559,7.97646c-0.49548,0.00884-0.90433-0.38566-0.91315-0.88114
				c-0.00049-0.02613,0.00021-0.05226,0.00201-0.07833c0.01636-0.28746,0.08972-0.5688,0.21582-0.82764l0.44336-1.187
				l0.36035-0.9956c0.11804-0.27423,0.19092-0.56577,0.21582-0.86329c0-0.27587-0.13184-0.33593-0.26367-0.33593
				c-0.69629,0-1.00781,1.11523-1.11621,1.51123c-0.04785,0.16748-0.05957,0.19189-0.21582,0.19189
				c-0.05957,0-0.17969,0-0.17969-0.12012c0-0.06005,0.4082-1.84716,1.53516-1.84716
				c0.48831-0.0101,0.89233,0.37756,0.90244,0.86586c0.00064,0.03123-0.00037,0.06248-0.00302,0.09361
				c-0.00101,0.23146-0.0499,0.46021-0.14355,0.67187L19.42786,6.2255c-0.16034,0.36629-0.26563,0.75427-0.3125,1.15136
				c0,0.32373,0.168,0.33594,0.26465,0.33594c0.69531,0,1.01953-1.15137,1.11523-1.499
				c0.04785-0.18018,0.04785-0.2041,0.2041-0.2041c0.08401,0,0.17969,0,0.17969,0.12011
				C20.87903,6.17763,20.48352,7.97646,19.35559,7.97646z M20.43469,1.27236c-0.28113,0.01614-0.52213-0.19868-0.53827-0.47982
				c-0.00067-0.01192-0.00095-0.02386-0.00079-0.0358c0.02893-0.40934,0.35785-0.73324,0.76758-0.75586
				c0.28085-0.0164,0.52185,0.198,0.53824,0.47886c0.00073,0.01224,0.00101,0.0245,0.00082,0.03676
				C21.17334,0.92584,20.84442,1.24974,20.43469,1.27236z"/>
			<path class="st1" d="M22.38879,11.81972c-0.2793,0-0.88672,0-1.13184,0.021v-0.21675h0.22363
				c0.62891,0,0.65039-0.08349,0.65039-0.33545V7.66836c-0.28772,0.12893-0.60083,0.19119-0.91599,0.18213v-0.2168
				c0.46722,0.02941,0.92639-0.13198,1.27246-0.44727c0.16016,0,0.16016,0.01368,0.16016,0.18164v3.92041
				c0,0.25879,0.02148,0.33545,0.65039,0.33545h0.22363v0.2168C23.27649,11.81972,22.66907,11.81972,22.38879,11.81972z"/>
		</g>
		<path class="st0" d="M41.5,49.08543c2.46228-0.00409,4.45502-2.00348,4.45093-4.46575
			c-0.00409-2.45648-1.99445-4.44683-4.45093-4.45092V23.0021h-40"/>
		<path class="st2" d="M41.5,58.0021c2.46228-0.00409,4.45502-2.00348,4.45093-4.46575
			c-0.00409-2.45648-1.99445-4.44683-4.45093-4.45092"/>
		<path class="st2" d="M41.5,58.0021c2.46228,0,4.45834,1.99606,4.45834,4.45833c0,2.46227-1.99606,4.45833-4.45834,4.45833l0,0"/>
		<path class="st0" d="M41.5,66.91876c2.46228,0.0034,4.45557,2.00223,4.45218,4.46449
			c-0.00339,2.45747-1.99472,4.44878-4.45218,4.45218V93.0021h-40"/>
		<polyline class="st3" points="13.50012,19.00197 27.50012,19.00197 24.50012,16.00197 		"/>
		<g>
			<path class="st0" d="M69.5,33.0021v7.16666c-2.46228,0.0034-4.45557,2.00222-4.45218,4.4645
				c0.00339,2.45746,1.99472,4.44878,4.45218,4.45218"/>
			<path class="st2" d="M69.5,58.0021c-2.46228-0.00409-4.45502-2.00348-4.45093-4.46575
				c0.00409-2.45648,1.99445-4.44683,4.45093-4.45092"/>
			<path class="st2" d="M69.5,58.0021c-2.46228,0-4.45834,1.99606-4.45834,4.45833c0,2.46227,1.99606,4.45833,4.45834,4.45833"/>
			<path class="st0" d="M69.5,66.91876c-2.46228,0.0034-4.45557,2.00223-4.45218,4.46449
				c0.00339,2.45747,1.99472,4.44878,4.45218,4.45218v7.16667"/>
		</g>
		<polyline class="st0" points="69.50012,83.00197 69.50012,93.00197 98.5191,93.00197 109.50012,93.00197 		"/>
		<polyline class="st3" points="98.57712,18.90297 84.57712,18.90297 87.57712,15.90297 		"/>
		<g>
			<path class="st1" d="M90.43274,7.97646c-0.49548,0.00884-0.90433-0.38566-0.91315-0.88114
				c-0.00049-0.02613,0.00021-0.05226,0.00201-0.07833c0.01636-0.28746,0.08972-0.5688,0.21582-0.82764l0.44336-1.187
				l0.36035-0.9956c0.11804-0.27423,0.19092-0.56577,0.21582-0.86329c0-0.27587-0.13184-0.33593-0.26367-0.33593
				c-0.69629,0-1.00781,1.11523-1.11621,1.51123c-0.04785,0.16748-0.05957,0.19189-0.21582,0.19189
				c-0.05957,0-0.17969,0-0.17969-0.12012c0-0.06005,0.4082-1.84716,1.53516-1.84716
				c0.48831-0.0101,0.89233,0.37756,0.90244,0.86586c0.00064,0.03123-0.00037,0.06248-0.00302,0.09361
				c-0.00101,0.23146-0.0499,0.46021-0.14355,0.67187L90.505,6.2255c-0.16034,0.36629-0.26563,0.75427-0.3125,1.15136
				c0,0.32373,0.168,0.33594,0.26465,0.33594c0.69531,0,1.01953-1.15137,1.11523-1.499
				c0.04785-0.18018,0.04785-0.2041,0.2041-0.2041c0.08401,0,0.17969,0,0.17969,0.12011
				C91.95618,6.17763,91.56067,7.97646,90.43274,7.97646z M91.51184,1.27236c-0.28113,0.01614-0.52213-0.19868-0.53827-0.47982
				c-0.00067-0.01192-0.00095-0.02386-0.00079-0.0358c0.02893-0.40934,0.35785-0.73324,0.76758-0.75586
				c0.28085-0.0164,0.52185,0.19798,0.53824,0.47884c0.00073,0.01225,0.00101,0.02451,0.00082,0.03678
				C92.25049,0.92584,91.92157,1.24975,91.51184,1.27236z"/>
			<path class="st1" d="M94.61243,11.84072h-2.59277c0-0.168,0-0.18164,0.07715-0.25879l1.3418-1.49512
				c0.418-0.41308,0.67758-0.9599,0.7334-1.54492c0-0.57275-0.30078-1.13867-0.93652-1.13867
				c-0.43533,0.00878-0.8158,0.2961-0.94336,0.7124c0.02969-0.00732,0.06036-0.00963,0.09082-0.00683
				c0.19476-0.00951,0.36035,0.14067,0.36984,0.33542c0.00046,0.00928,0.00055,0.01857,0.00027,0.02786
				c0.00198,0.20275-0.16077,0.36871-0.36353,0.37069c-0.20273,0.00198-0.36871-0.16077-0.37067-0.36352
				c-0.00009-0.0094,0.00015-0.01879,0.00079-0.02817c0.01468-0.7087,0.59784-1.27311,1.30664-1.26465
				c0.75574-0.06008,1.41711,0.50387,1.4772,1.25962c0.00253,0.03189,0.00394,0.06386,0.00424,0.09585
				c0,0.69922-0.41895,1.07666-1.50879,2.041l-0.74121,0.71972h1.25781c0.2229,0.0141,0.44669-0.00482,0.66406-0.05615
				c0.08044-0.19884,0.13205-0.40814,0.15332-0.62158h0.1748L94.61243,11.84072z"/>
		</g>
		<circle class="st4" cx="34.16669" cy="75.65273" r="1"/>
		<circle class="st4" cx="76.5" cy="40.0021" r="1"/>
		<g>
			<line class="st5" x1="23.53589" y1="44.31484" x2="28.53589" y2="44.31484"/>
			<line class="st5" x1="26.03589" y1="46.81484" x2="26.03589" y2="41.81484"/>
		</g>
		<line class="st5" x1="23.53589" y1="71.65371" x2="28.53589" y2="71.65371"/>
		<g>
			<path class="st1" d="M25.33704,59.04433c-0.73779,0.075-1.3967-0.46231-1.47168-1.2001
				c-0.00809-0.07939-0.00906-0.15934-0.00293-0.2389c0.08176-0.79489,0.28806-1.57197,0.61133-2.30274
				c0.15265-0.34232,0.24988-0.70673,0.28809-1.07959c0-0.312-0.13184-0.34765-0.26367-0.34765
				c-0.69629,0-1.01953,1.13916-1.11621,1.51123c-0.04785,0.16748-0.05957,0.19189-0.21582,0.19189
				c-0.05957,0-0.17969,0-0.17969-0.12011c0-0.07178,0.41992-1.84717,1.53516-1.84717
				c0.49615-0.00864,0.90536,0.38655,0.914,0.88269c0.00052,0.02969-0.00046,0.05939-0.00287,0.08899
				c-0.01096,0.20572-0.05548,0.40826-0.13184,0.59961c-0.36423,0.82737-0.60254,1.70461-0.707,2.60254
				c0,0.396,0.13184,0.9956,0.7793,0.9956c1.37891,0,1.94336-3.01025,1.94336-3.34619
				c0.01715-0.34576-0.09888-0.68494-0.32422-0.94775c-0.0936-0.08242-0.14996-0.19917-0.15625-0.32373
				c0.03116-0.30013,0.27496-0.53361,0.57617-0.55176c0.34766,0,0.49121,0.37207,0.49121,0.7915
				C27.90344,54.71474,27.35168,59.04433,25.33704,59.04433z"/>
			<path class="st1" d="M29.30676,62.8876c-0.2793,0-0.88672,0-1.13184,0.021v-0.2168h0.22363
				c0.62891,0,0.65039-0.08349,0.65039-0.33544v-3.62014c-0.28769,0.129-0.60083,0.19127-0.91599,0.18213v-0.2168
				c0.46722,0.02942,0.92639-0.13198,1.27246-0.44727c0.16016,0,0.16016,0.01368,0.16016,0.18164v3.92042
				c0,0.25878,0.02148,0.33544,0.65039,0.33544h0.22363v0.2168C30.19446,62.8876,29.58704,62.8876,29.30676,62.8876z"/>
		</g>
		<g>
			<line class="st5" x1="81.53589" y1="44.31484" x2="86.53589" y2="44.31484"/>
			<line class="st5" x1="84.03589" y1="46.81484" x2="84.03589" y2="41.81484"/>
		</g>
		<line class="st5" x1="81.53589" y1="71.65371" x2="86.53589" y2="71.65371"/>
		<g>
			<path class="st1" d="M83.33704,59.04433c-0.73779,0.075-1.3967-0.46231-1.47168-1.2001
				c-0.00809-0.07939-0.00906-0.15934-0.00293-0.2389c0.08176-0.79489,0.28806-1.57197,0.61133-2.30274
				c0.15265-0.34232,0.24988-0.70673,0.28809-1.07959c0-0.312-0.13184-0.34765-0.26367-0.34765
				c-0.69629,0-1.01953,1.13916-1.11621,1.51123c-0.04785,0.16748-0.05957,0.19189-0.21582,0.19189
				c-0.05957,0-0.17969,0-0.17969-0.12011c0-0.07178,0.41992-1.84717,1.53516-1.84717
				c0.49615-0.00864,0.90536,0.38655,0.914,0.88269c0.00052,0.02969-0.00046,0.05939-0.00287,0.08899
				c-0.01096,0.20572-0.05548,0.40826-0.13184,0.59961c-0.36423,0.82737-0.60254,1.70461-0.707,2.60254
				c0,0.396,0.13184,0.9956,0.7793,0.9956c1.37891,0,1.94336-3.01025,1.94336-3.34619
				c0.01715-0.34576-0.09888-0.68494-0.32422-0.94775c-0.0936-0.08242-0.14996-0.19917-0.15625-0.32373
				c0.03116-0.30013,0.27496-0.53361,0.57617-0.55176c0.34766,0,0.49121,0.37207,0.49121,0.7915
				C85.90344,54.71474,85.35168,59.04433,83.33704,59.04433z"/>
			<path class="st1" d="M88.45325,62.90859h-2.59277c0-0.168,0-0.18164,0.07715-0.25879l1.3418-1.49512
				c0.418-0.41309,0.67758-0.9599,0.7334-1.54492c0-0.57275-0.30078-1.13867-0.93652-1.13867
				c-0.43533,0.00878-0.8158,0.2961-0.94336,0.7124c0.02969-0.00732,0.06036-0.00962,0.09082-0.00683
				c0.19476-0.00951,0.36035,0.14066,0.36984,0.33542c0.00046,0.00928,0.00055,0.01857,0.00027,0.02786
				c0.00198,0.20274-0.16077,0.36871-0.36353,0.37069c-0.20273,0.00198-0.36871-0.16077-0.37067-0.36352
				c-0.00009-0.0094,0.00015-0.01879,0.00079-0.02817c0.01468-0.70869,0.59784-1.27311,1.30664-1.26465
				c0.75574-0.06008,1.41711,0.50387,1.4772,1.25962c0.00253,0.03189,0.00394,0.06386,0.00424,0.09585
				c0,0.69922-0.41895,1.07666-1.50879,2.041l-0.74121,0.71973h1.25781c0.2229,0.01411,0.44669-0.00482,0.66406-0.05616
				c0.08035-0.19892,0.13229-0.40817,0.1543-0.62158h0.17383L88.45325,62.90859z"/>
		</g>
		<g>
			<path class="st1" d="M46.22668,5.13906c-0.55078-0.06835-1.06775,0.27949-1.21191,0.81543l-1.67871,6.76465
				c-0.06055,0.22754-0.1084,0.23974-0.24023,0.23974c-0.168,0-0.17969-0.02392-0.23926-0.2041l-2.5791-7.15967l-1.54688,6.17627
				c-0.02917,0.09737-0.04526,0.19819-0.04785,0.29981c0,0.18017,0.02344,0.4917,0.707,0.51611
				c0.14453,0,0.22852,0.01172,0.22852,0.15576c0,0.21582-0.14453,0.21582-0.21582,0.21582
				c-0.37207,0-0.79199-0.03613-1.17578-0.03613c-0.37207,0-0.7793,0.03613-1.13965,0.03613
				c-0.08401,0-0.15527-0.03613-0.15527-0.144c0-0.21582,0.13184-0.22754,0.22754-0.22754
				c0.54633,0.0621,1.05017-0.30172,1.16309-0.83984l1.58301-6.35645c0.01797-0.05036,0.03012-0.10262,0.03613-0.15576
				c0-0.09619-0.64746-0.09619-0.73145-0.09619c-0.22754,0-0.32324,0-0.32324-0.14355c0-0.228,0.13184-0.228,0.32324-0.228h1.49899
				c0.25195,0,0.26367,0.01172,0.33594,0.20361l2.24316,6.23682l1.31934-5.26514c0.02829-0.09357,0.04437-0.1904,0.04785-0.28809
				c0-0.25146-0.0957-0.49169-0.71973-0.51562c-0.1084,0-0.21582-0.01172-0.21582-0.14355c0-0.228,0.15625-0.228,0.21582-0.228
				c0.37207,0,0.7793,0.03564,1.16309,0.03564s0.7793-0.03564,1.15137-0.03564c0.07635-0.0099,0.1463,0.04399,0.15619,0.12035
				c0.00153,0.01175,0.00156,0.02365,0.00006,0.03541C46.40637,5.12734,46.26184,5.13906,46.22668,5.13906z"/>
			<path class="st1" d="M46.89954,16.93397c-0.2793,0-0.88672,0-1.13184,0.021v-0.2168h0.22363
				c0.62891,0,0.65039-0.0835,0.65039-0.33545v-3.62011c-0.28772,0.12893-0.60083,0.19119-0.91599,0.18213v-0.21677
				c0.46722,0.02942,0.92639-0.13198,1.27246-0.44727c0.16016,0,0.16016,0.01416,0.16016,0.18164v3.92041
				c0,0.25879,0.02148,0.33545,0.65039,0.33545h0.22363v0.2168C47.78723,16.93397,47.17981,16.93397,46.89954,16.93397z"/>
			<path class="st1" d="M54.56458,9.06097c-0.35098-0.00013-0.63541-0.28477-0.63525-0.63574
				c0.00012-0.35098,0.28476-0.63539,0.63574-0.63526c0.3508,0.00013,0.63513,0.28447,0.63525,0.63526
				C55.19806,8.7754,54.91473,9.05871,54.56458,9.06097z M54.56458,12.95897c-0.3511,0-0.63574-0.28463-0.63574-0.63574
				s0.28464-0.63574,0.63574-0.63574c0.3511,0,0.63574,0.28463,0.63574,0.63574c-0.00232,0.35013-0.28561,0.63339-0.63574,0.63565
				V12.95897z"/>
			<path class="st1" d="M70.2677,5.13906c-0.55054-0.06828-1.0672,0.27963-1.21094,0.81543l-1.67969,6.76465
				c-0.05957,0.22754-0.10742,0.23974-0.23926,0.23974c-0.168,0-0.17969-0.02392-0.24023-0.2041l-2.57813-7.15967l-1.54785,6.17627
				c-0.02917,0.09737-0.04526,0.19819-0.04785,0.29981c0,0.18017,0.02441,0.4917,0.70801,0.51611
				c0.14355,0,0.22754,0.01172,0.22754,0.15576c0,0.21582-0.14355,0.21582-0.21582,0.21582
				c-0.37207,0-0.79099-0.03613-1.1748-0.03613c-0.37207,0-0.78027,0.03613-1.13965,0.03613
				c-0.08401,0-0.15625-0.03613-0.15625-0.144c0-0.21582,0.13184-0.22754,0.22852-0.22754
				c0.54626,0.06184,1.04996-0.30187,1.16309-0.83984l1.58301-6.35645c0.01797-0.05036,0.03012-0.10262,0.03613-0.15576
				c0-0.09619-0.64746-0.09619-0.73145-0.09619c-0.22852,0-0.32422,0-0.32422-0.14355c0-0.228,0.13184-0.228,0.32422-0.228h1.49899
				c0.25201,0,0.26367,0.01172,0.33594,0.20361l2.24219,6.23682l1.31934-5.26514c0.02875-0.09346,0.04486-0.19035,0.04785-0.28809
				c0-0.25146-0.0957-0.49169-0.71973-0.51562c-0.10742,0-0.21582-0.01172-0.21582-0.14355c0-0.228,0.15625-0.228,0.21582-0.228
				c0.37207,0,0.78027,0.03564,1.16406,0.03564s0.7793-0.03564,1.15137-0.03564c0.07623-0.00954,0.14578,0.04453,0.15533,0.12078
				c0.00143,0.01162,0.00143,0.02337-0.00006,0.03498C70.44739,5.12734,70.30383,5.13906,70.2677,5.13906z"/>
			<path class="st1" d="M72.08801,16.95497h-2.59277c0-0.16748,0-0.18164,0.07617-0.25879l1.3418-1.49512
				c0.41846-0.41268,0.67841-0.95939,0.73438-1.54443c0-0.57324-0.30078-1.13916-0.93652-1.13916
				c-0.43542,0.0085-0.81604,0.29593-0.94336,0.7124c0.02966-0.00746,0.06036-0.00977,0.09082-0.00684
				c0.1951-0.00918,0.36069,0.14152,0.36987,0.33661c0.00043,0.00889,0.00049,0.01779,0.00024,0.02668
				c0.00198,0.20274-0.16077,0.36871-0.36353,0.37069c-0.20273,0.00198-0.36871-0.16077-0.37067-0.36352
				c-0.00009-0.0094,0.00015-0.01879,0.00079-0.02817c0.01434-0.70885,0.59772-1.27346,1.30664-1.26465
				c0.7558-0.06003,1.41718,0.50401,1.4772,1.25981c0.00253,0.032,0.00394,0.06409,0.00424,0.09619
				c0,0.69873-0.41895,1.07617-1.50977,2.04053l-0.74023,0.71972h1.25778c0.2229,0.014,0.44666-0.00492,0.66406-0.05615
				c0.07953-0.19913,0.1311-0.40831,0.15332-0.62158h0.1748L72.08801,16.95497z"/>
		</g>
		<line class="st6" x1="52.31946" y1="48.90273" x2="52.31946" y2="66.90273"/>
		<line class="st6" x1="58.68054" y1="48.90273" x2="58.68054" y2="66.90273"/>
	</g>
	<g>
		<path class="st1" d="M34.0177,111.9872h-7.21973c-0.15625,0-0.44336,0-0.44336-0.28808c0-0.29981,0.27539-0.29981,0.44336-0.29981
			h7.21973c0.168,0,0.44434,0,0.44434,0.29981C34.46204,111.9872,34.17395,111.9872,34.0177,111.9872z"/>
		<g>
			<line class="st7" x1="69" y1="111.15273" x2="83" y2="111.15273"/>
			<g>
				<path class="st1" d="M74.85559,105.54336c-0.49548,0.00884-0.90433-0.38566-0.91315-0.88113
					c-0.00049-0.02613,0.00021-0.05228,0.00201-0.07835c0.01636-0.28746,0.08972-0.56879,0.21582-0.82763l0.44336-1.187
					l0.36035-0.99561c0.11804-0.27423,0.19092-0.56576,0.21582-0.86328c0-0.27588-0.13184-0.33594-0.26367-0.33594
					c-0.69629,0-1.00781,1.11524-1.11621,1.51123c-0.04785,0.16748-0.05957,0.1919-0.21582,0.1919
					c-0.05957,0-0.17969,0-0.17969-0.12012c0-0.06006,0.4082-1.84717,1.53516-1.84717
					c0.48831-0.01009,0.89233,0.37758,0.90244,0.86588c0.00064,0.03123-0.00037,0.06247-0.00302,0.09359
					c-0.00101,0.23146-0.0499,0.46021-0.14355,0.67188l-0.76758,2.05078c-0.16034,0.36629-0.26563,0.75428-0.3125,1.15137
					c0,0.32373,0.168,0.33593,0.26465,0.33593c0.69531,0,1.01953-1.15136,1.11523-1.499
					c0.04785-0.18017,0.04785-0.2041,0.2041-0.2041c0.08401,0,0.17969,0,0.17969,0.12012
					C76.37903,103.74453,75.98352,105.54336,74.85559,105.54336z M75.93469,98.83926
					c-0.28113,0.01614-0.52213-0.19868-0.53827-0.47982c-0.00067-0.01192-0.00095-0.02386-0.00079-0.03581
					c0.02893-0.40934,0.35785-0.73325,0.76758-0.75586c0.28085-0.0164,0.52185,0.198,0.53824,0.47886
					c0.00073,0.01225,0.00101,0.02451,0.00082,0.03677C76.67334,98.49274,76.34442,98.81664,75.93469,98.83926z"/>
				<path class="st1" d="M79.03528,109.40761H76.4425c0-0.168,0-0.18164,0.07715-0.25878l1.3418-1.49512
					c0.418-0.41309,0.67758-0.9599,0.7334-1.54492c0-0.57276-0.30078-1.13868-0.93652-1.13868
					c-0.43533,0.00879-0.8158,0.29611-0.94336,0.71241c0.02969-0.00733,0.06036-0.00964,0.09082-0.00684
					c0.19476-0.00951,0.36035,0.14066,0.36984,0.33542c0.00046,0.00928,0.00055,0.01858,0.00027,0.02786
					c0.00198,0.20274-0.16077,0.36871-0.36353,0.37068c-0.20273,0.00198-0.36871-0.16077-0.37067-0.36352
					c-0.00009-0.0094,0.00015-0.01879,0.00079-0.02817c0.01468-0.70869,0.59784-1.2731,1.30664-1.26465
					c0.75577-0.06007,1.41711,0.50388,1.4772,1.25964c0.00253,0.03188,0.00394,0.06385,0.00424,0.09583
					c0,0.69922-0.41895,1.07666-1.50879,2.041l-0.74121,0.71973h1.25781c0.2229,0.01411,0.44669-0.00482,0.66406-0.05615
					c0.08044-0.19884,0.13205-0.40815,0.15332-0.62159h0.1748L79.03528,109.40761z"/>
			</g>
			<g>
				<path class="st1" d="M74.85559,120.97646c-0.49548,0.00884-0.90433-0.38566-0.91315-0.88113
					c-0.00049-0.02613,0.00021-0.05227,0.00201-0.07834c0.01636-0.28746,0.08972-0.56879,0.21582-0.82764l0.44336-1.187
					l0.36035-0.9956c0.11804-0.27423,0.19092-0.56577,0.21582-0.86329c0-0.27587-0.13184-0.33593-0.26367-0.33593
					c-0.69629,0-1.00781,1.11523-1.11621,1.51123c-0.04785,0.16748-0.05957,0.19189-0.21582,0.19189
					c-0.05957,0-0.17969,0-0.17969-0.12012c0-0.06005,0.4082-1.84716,1.53516-1.84716
					c0.48831-0.0101,0.89233,0.37756,0.90244,0.86586c0.00064,0.03123-0.00037,0.06248-0.00302,0.09361
					c-0.00101,0.23146-0.0499,0.46021-0.14355,0.67187l-0.76758,2.05079c-0.16034,0.36629-0.26563,0.75427-0.3125,1.15136
					c0,0.32373,0.168,0.33594,0.26465,0.33594c0.69531,0,1.01953-1.15137,1.11523-1.499
					c0.04785-0.18018,0.04785-0.2041,0.2041-0.2041c0.08401,0,0.17969,0,0.17969,0.12011
					C76.37903,119.17763,75.98352,120.97646,74.85559,120.97646z M75.93469,114.27236
					c-0.28113,0.01614-0.52213-0.19868-0.53827-0.47982c-0.00067-0.01192-0.00095-0.02386-0.00079-0.0358
					c0.02893-0.40934,0.35785-0.73325,0.76758-0.75586c0.28085-0.0164,0.52185,0.198,0.53824,0.47886
					c0.00073,0.01224,0.00101,0.0245,0.00082,0.03676C76.67334,113.92584,76.34442,114.24974,75.93469,114.27236z"/>
				<path class="st1" d="M77.88879,124.81972c-0.2793,0-0.88672,0-1.13184,0.021v-0.2168h0.22363
					c0.62891,0,0.65039-0.08349,0.65039-0.33545v-3.62011c-0.28772,0.12893-0.60083,0.19118-0.91599,0.18213v-0.2168
					c0.46722,0.02941,0.92639-0.13199,1.27246-0.44727c0.16016,0,0.16016,0.01368,0.16016,0.18164v3.92041
					c0,0.25879,0.02148,0.33545,0.65039,0.33545h0.22363v0.2168C78.77649,124.81972,78.16907,124.81972,77.88879,124.81972z"/>
			</g>
		</g>
		<path class="st1" d="M24.57141,110.77578h-7.15918c-0.18066,0-0.4082,0-0.4082-0.23975s0.22754-0.23974,0.39551-0.23974h7.18457
			c0.168,0,0.39551,0,0.39551,0.23974S24.75208,110.77578,24.57141,110.77578z M24.58411,113.10244h-7.18457
			c-0.168,0-0.39551,0-0.39551-0.23975s0.22754-0.23974,0.4082-0.23974h7.15918c0.18066,0,0.4082,0,0.4082,0.23974
			S24.75208,113.10244,24.58411,113.10244z"/>
		<g>
			<g>
				<path class="st1" d="M5.83704,105.54336c-0.73788,0.07494-1.39679-0.46249-1.47174-1.20037
					c-0.00806-0.07945-0.00903-0.15947-0.00287-0.23909c0.08188-0.79487,0.28815-1.57192,0.61133-2.30273
					c0.15265-0.34215,0.24988-0.70641,0.28809-1.0791c0-0.3125-0.13184-0.34766-0.26367-0.34766
					c-0.69629,0-1.01953,1.13867-1.11621,1.51074c-0.04785,0.168-0.05957,0.19239-0.21582,0.19239
					c-0.05957,0-0.17969,0-0.17969-0.12012c0-0.07227,0.41992-1.84766,1.53516-1.84766
					c0.49615-0.00864,0.90536,0.38655,0.914,0.88269c0.00052,0.02969-0.00046,0.05939-0.00287,0.08899
					c-0.01086,0.20573-0.05539,0.40829-0.13184,0.59961c-0.36411,0.82742-0.60242,1.70463-0.707,2.60254
					c0,0.39649,0.13184,0.99609,0.7793,0.99609c1.37891,0,1.94336-3.01074,1.94336-3.34667
					c0.01721-0.34563-0.09885-0.68468-0.32422-0.94727c-0.09363-0.08263-0.14996-0.19952-0.15625-0.32422
					c0.03134-0.30004,0.27505-0.53342,0.57617-0.55176c0.34766,0,0.49121,0.37207,0.49121,0.792
					C8.40344,101.21328,7.85168,105.54336,5.83704,105.54336z"/>
				<path class="st1" d="M10.95325,109.40761H8.36047c0-0.168,0-0.18164,0.07715-0.25878l1.3418-1.49512
					c0.418-0.41309,0.67758-0.9599,0.7334-1.54492c0-0.57325-0.30078-1.13868-0.93652-1.13868
					c-0.43524,0.00857-0.81573,0.29572-0.94336,0.71192c0.02969-0.00733,0.06036-0.00964,0.09082-0.00684
					c0.19476-0.00951,0.36035,0.14066,0.36984,0.33542c0.00046,0.00928,0.00055,0.01858,0.00027,0.02786
					c0.00223,0.20274-0.16034,0.3689-0.36307,0.37112c-0.20276,0.00222-0.3689-0.16034-0.37112-0.36308
					c-0.00012-0.00951,0.00015-0.01904,0.00079-0.02853c0.01453-0.70877,0.59778-1.27328,1.30664-1.26465
					c0.75558-0.06024,1.41693,0.50344,1.47717,1.25902c0.00253,0.03209,0.00397,0.06426,0.00427,0.09645
					c0,0.69922-0.41895,1.07617-1.50879,2.041l-0.74121,0.71973h1.25781c0.22293,0.01422,0.44675-0.00487,0.66406-0.05664
					c0.08029-0.19878,0.13223-0.40786,0.1543-0.6211h0.17383L10.95325,109.40761z"/>
			</g>
			<line class="st7" x1="0" y1="111.15273" x2="14" y2="111.15273"/>
			<g>
				<path class="st1" d="M5.83704,119.38222c-0.73779,0.075-1.3967-0.46231-1.47168-1.2001
					c-0.00809-0.07938-0.00906-0.15934-0.00293-0.2389c0.08176-0.79489,0.28806-1.57198,0.61133-2.30274
					c0.15265-0.34232,0.24988-0.70673,0.28809-1.07959c0-0.312-0.13184-0.34765-0.26367-0.34765
					c-0.69629,0-1.01953,1.13916-1.11621,1.51123c-0.04785,0.16748-0.05957,0.19189-0.21582,0.19189
					c-0.05957,0-0.17969,0-0.17969-0.12011c0-0.07178,0.41992-1.84717,1.53516-1.84717
					c0.49615-0.00864,0.90536,0.38655,0.914,0.88269c0.00052,0.02969-0.00046,0.05939-0.00287,0.08899
					c-0.01096,0.20572-0.05548,0.40826-0.13184,0.59961c-0.36423,0.82737-0.60254,1.70461-0.707,2.60254
					c0,0.396,0.13184,0.9956,0.7793,0.9956c1.37891,0,1.94336-3.01025,1.94336-3.34619
					c0.01715-0.34576-0.09888-0.68494-0.32422-0.94775c-0.0936-0.08243-0.14996-0.19917-0.15625-0.32373
					c0.03116-0.30013,0.27496-0.53361,0.57617-0.55176c0.34766,0,0.49121,0.37207,0.49121,0.7915
					C8.40344,115.05263,7.85168,119.38222,5.83704,119.38222z"/>
				<path class="st1" d="M9.80676,123.22549c-0.2793,0-0.88672,0-1.13184,0.021v-0.2168h0.22363
					c0.62891,0,0.65039-0.08349,0.65039-0.33544v-3.62012c-0.28769,0.129-0.60083,0.19126-0.91599,0.18213v-0.2168
					c0.46722,0.02941,0.92639-0.13199,1.27246-0.44727c0.16016,0,0.16016,0.01368,0.16016,0.18165v3.92041
					c0,0.25878,0.02148,0.33544,0.65039,0.33544h0.22363v0.2168C10.69446,123.22549,10.08704,123.22549,9.80676,123.22549z"/>
			</g>
		</g>
		<g>
			<g>
				<path class="st1" d="M46.83118,97.59121c-0.55066-0.06756-1.06705,0.28059-1.21094,0.8164l-1.67969,6.76368
					c-0.05957,0.22754-0.10742,0.24023-0.23926,0.24023c-0.168,0-0.17969-0.02441-0.24023-0.2041l-2.57813-7.16016l-1.54785,6.17676
					c-0.02924,0.09736-0.04532,0.19819-0.04785,0.29981c0,0.17968,0.02441,0.49121,0.70801,0.51562
					c0.14355,0,0.22754,0.01172,0.22754,0.15625c0,0.21582-0.14355,0.21582-0.21582,0.21582
					c-0.37207,0-0.79099-0.03613-1.1748-0.03613c-0.37207,0-0.78027,0.03613-1.13965,0.03613
					c-0.08401,0-0.15625-0.03613-0.15625-0.14453c0-0.21582,0.13184-0.22754,0.22852-0.22754
					c0.5463,0.06203,1.05011-0.30177,1.16309-0.83984l1.58301-6.35645c0.01794-0.05021,0.03006-0.1023,0.03613-0.15527
					c0-0.09668-0.64746-0.09668-0.73145-0.09668c-0.22852,0-0.32422,0-0.32422-0.14356c0-0.22754,0.13184-0.22754,0.32422-0.22754
					h1.49899c0.25201,0,0.26367,0.01172,0.33594,0.20313l2.24219,6.2373l1.31934-5.26562
					c0.02881-0.09345,0.04489-0.19035,0.04785-0.28809c0-0.251-0.0957-0.49121-0.71973-0.51562
					c-0.10742,0-0.21582-0.01172-0.21582-0.14356c0-0.22754,0.15625-0.22754,0.21582-0.22754
					c0.37207,0,0.78027,0.03614,1.16406,0.03614s0.7793-0.03614,1.15137-0.03614c0.07602-0.00973,0.14554,0.04401,0.15527,0.12004
					c0.0015,0.0117,0.0015,0.02354,0,0.03524C47.01086,97.57949,46.86731,97.59121,46.83118,97.59121z"/>
				<path class="st1" d="M48.65149,109.40761h-2.59277c0-0.168,0-0.18164,0.07617-0.25878l1.3418-1.49512
					c0.41864-0.41274,0.67862-0.95969,0.73438-1.54492c0-0.57325-0.30078-1.13868-0.93652-1.13868
					c-0.43533,0.00829-0.81598,0.29556-0.94336,0.71192c0.02966-0.00746,0.06036-0.00977,0.09082-0.00684
					c0.1951-0.00918,0.36069,0.14153,0.36987,0.33663c0.00043,0.00887,0.00049,0.01777,0.00024,0.02665
					c0.00223,0.20274-0.16034,0.3689-0.36307,0.37112c-0.20276,0.00222-0.3689-0.16034-0.37112-0.36308
					c-0.00012-0.00951,0.00015-0.01904,0.00079-0.02853c0.01416-0.70892,0.59763-1.27363,1.30664-1.26465
					c0.75558-0.06023,1.41693,0.50346,1.47717,1.25903c0.00253,0.03209,0.00397,0.06425,0.00427,0.09644
					c0,0.69922-0.41895,1.07617-1.50977,2.041l-0.74023,0.71973h1.25781c0.22293,0.01412,0.44675-0.00497,0.66406-0.05664
					c0.07947-0.19898,0.13107-0.408,0.15332-0.6211h0.1748L48.65149,109.40761z"/>
			</g>
			<line class="st7" x1="36" y1="111.15273" x2="50" y2="111.15273"/>
			<g>
				<path class="st1" d="M46.83118,113.43056c-0.55063-0.06802-1.0672,0.28004-1.21094,0.81592l-1.67969,6.76416
					c-0.05957,0.22754-0.10742,0.23975-0.23926,0.23975c-0.168,0-0.17969-0.02393-0.24023-0.2041l-2.57813-7.15967l-1.54785,6.17627
					c-0.02917,0.09737-0.04526,0.19819-0.04785,0.2998c0,0.18018,0.02441,0.4917,0.70801,0.51612
					c0.14355,0,0.22754,0.01171,0.22754,0.15576c0,0.21582-0.14355,0.21582-0.21582,0.21582
					c-0.37207,0-0.79099-0.03613-1.1748-0.03613c-0.37207,0-0.78027,0.03613-1.13965,0.03613
					c-0.08401,0-0.15625-0.03613-0.15625-0.144c0-0.21583,0.13184-0.22754,0.22852-0.22754
					c0.54623,0.06181,1.04993-0.30189,1.16309-0.83985l1.58301-6.35644c0.01797-0.05036,0.03012-0.10262,0.03613-0.15576
					c0-0.0962-0.64746-0.0962-0.73145-0.0962c-0.22852,0-0.32422,0-0.32422-0.144c0-0.22754,0.13184-0.22754,0.32422-0.22754
					h1.49899c0.25201,0,0.26367,0.01172,0.33594,0.20362l2.24219,6.23681l1.31934-5.26514
					c0.02872-0.09347,0.0448-0.19035,0.04785-0.28808c0-0.25147-0.0957-0.4917-0.71973-0.51563
					c-0.10742,0-0.21582-0.01171-0.21582-0.144c0-0.22754,0.15625-0.22754,0.21582-0.22754
					c0.37207,0,0.78027,0.03613,1.16406,0.03613s0.7793-0.03613,1.15137-0.03613c0.07623-0.00954,0.14578,0.04453,0.15533,0.12078
					c0.00143,0.01161,0.00143,0.02337-0.00006,0.03498C47.01086,113.41885,46.86731,113.43056,46.83118,113.43056z"/>
				<path class="st1" d="M47.505,125.22549c-0.2793,0-0.8877,0-1.13184,0.021v-0.2168h0.22363
					c0.62891,0,0.64941-0.08349,0.64941-0.33544v-3.62012c-0.28735,0.12897-0.60016,0.19125-0.91501,0.18213v-0.2168
					c0.46692,0.02937,0.92578-0.13204,1.27148-0.44727c0.16113,0,0.16113,0.01368,0.16113,0.18165v3.92041
					c0,0.25878,0.02051,0.33544,0.64941,0.33544h0.22363v0.2168C48.3927,125.22549,47.7843,125.22549,47.505,125.22549z"/>
			</g>
		</g>
		<path class="st1" d="M93.57141,110.77578h-7.15918c-0.18066,0-0.4082,0-0.4082-0.23975s0.22754-0.23974,0.39551-0.23974h7.18457
			c0.168,0,0.39551,0,0.39551,0.23974S93.75208,110.77578,93.57141,110.77578z M93.58411,113.10244h-7.18457
			c-0.168,0-0.39551,0-0.39551-0.23975s0.22754-0.23974,0.4082-0.23974h7.15918c0.18066,0,0.4082,0,0.4082,0.23974
			S93.75208,113.10244,93.58411,113.10244z"/>
		<g>
			<g>
				<path class="st1" d="M107.83118,97.59121c-0.55066-0.06756-1.06705,0.28059-1.21094,0.8164l-1.67969,6.76368
					c-0.05957,0.22754-0.10742,0.24023-0.23926,0.24023c-0.168,0-0.17969-0.02441-0.24023-0.2041l-2.57813-7.16016l-1.54785,6.17676
					c-0.02924,0.09736-0.04532,0.19819-0.04785,0.29981c0,0.17968,0.02441,0.49121,0.70801,0.51562
					c0.14355,0,0.22754,0.01172,0.22754,0.15625c0,0.21582-0.14355,0.21582-0.21582,0.21582
					c-0.37207,0-0.79099-0.03613-1.1748-0.03613c-0.37207,0-0.78027,0.03613-1.13965,0.03613
					c-0.08401,0-0.15625-0.03613-0.15625-0.14453c0-0.21582,0.13184-0.22754,0.22852-0.22754
					c0.5463,0.06203,1.05011-0.30177,1.16309-0.83984l1.58301-6.35645c0.01794-0.05021,0.03006-0.1023,0.03613-0.15527
					c0-0.09668-0.64746-0.09668-0.73145-0.09668c-0.22852,0-0.32422,0-0.32422-0.14356c0-0.22754,0.13184-0.22754,0.32422-0.22754
					h1.49899c0.25201,0,0.26367,0.01172,0.33594,0.20313l2.24219,6.2373l1.31934-5.26562
					c0.02881-0.09345,0.04489-0.19035,0.04785-0.28809c0-0.251-0.0957-0.49121-0.71973-0.51562
					c-0.10742,0-0.21582-0.01172-0.21582-0.14356c0-0.22754,0.15625-0.22754,0.21582-0.22754
					c0.37207,0,0.78027,0.03614,1.16406,0.03614s0.7793-0.03614,1.15137-0.03614c0.07602-0.00973,0.14554,0.04401,0.15527,0.12004
					c0.0015,0.0117,0.0015,0.02354,0,0.03524C108.01086,97.57949,107.86731,97.59121,107.83118,97.59121z"/>
				<path class="st1" d="M108.505,109.38613c-0.2793,0-0.8877,0-1.13184,0.02148v-0.21679h0.22363
					c0.62891,0,0.64941-0.084,0.64941-0.33594v-3.62012c-0.28726,0.12931-0.60013,0.19175-0.91501,0.18262v-0.2168
					c0.46692,0.02937,0.92578-0.13203,1.27148-0.44726c0.16113,0,0.16113,0.01367,0.16113,0.18164v3.91992
					c0,0.25879,0.02051,0.33594,0.64941,0.33594h0.22363v0.21679C109.3927,109.38613,108.7843,109.38613,108.505,109.38613z"/>
			</g>
			<line class="st7" x1="97" y1="111.15273" x2="111" y2="111.15273"/>
			<g>
				<path class="st1" d="M107.83118,113.43056c-0.55063-0.06802-1.0672,0.28004-1.21094,0.81592l-1.67969,6.76416
					c-0.05957,0.22754-0.10742,0.23975-0.23926,0.23975c-0.168,0-0.17969-0.02393-0.24023-0.2041l-2.57813-7.15967l-1.54785,6.17627
					c-0.02917,0.09737-0.04526,0.19819-0.04785,0.2998c0,0.18018,0.02441,0.4917,0.70801,0.51612
					c0.14355,0,0.22754,0.01171,0.22754,0.15576c0,0.21582-0.14355,0.21582-0.21582,0.21582
					c-0.37207,0-0.79099-0.03613-1.1748-0.03613c-0.37207,0-0.78027,0.03613-1.13965,0.03613
					c-0.08401,0-0.15625-0.03613-0.15625-0.144c0-0.21583,0.13184-0.22754,0.22852-0.22754
					c0.54623,0.06181,1.04993-0.30189,1.16309-0.83985l1.58301-6.35644c0.01797-0.05036,0.03012-0.10262,0.03613-0.15576
					c0-0.0962-0.64746-0.0962-0.73145-0.0962c-0.22852,0-0.32422,0-0.32422-0.144c0-0.22754,0.13184-0.22754,0.32422-0.22754
					h1.49899c0.25201,0,0.26367,0.01172,0.33594,0.20362l2.24219,6.23681l1.31934-5.26514
					c0.02872-0.09347,0.0448-0.19035,0.04785-0.28808c0-0.25147-0.0957-0.4917-0.71973-0.51563
					c-0.10742,0-0.21582-0.01171-0.21582-0.144c0-0.22754,0.15625-0.22754,0.21582-0.22754
					c0.37207,0,0.78027,0.03613,1.16406,0.03613s0.7793-0.03613,1.15137-0.03613c0.07623-0.00954,0.14578,0.04453,0.15533,0.12078
					c0.00143,0.01161,0.00143,0.02337-0.00006,0.03498C108.01086,113.41885,107.86731,113.43056,107.83118,113.43056z"/>
				<path class="st1" d="M109.65149,125.24648h-2.59277c0-0.168,0-0.18164,0.07617-0.25879l1.3418-1.49511
					c0.41864-0.41275,0.67862-0.95969,0.73438-1.54493c0-0.57275-0.30078-1.13867-0.93652-1.13867
					c-0.43542,0.00849-0.81604,0.29593-0.94336,0.7124c0.02966-0.00745,0.06039-0.00976,0.09082-0.00683
					c0.1951-0.00918,0.36069,0.14153,0.36987,0.33663c0.00043,0.00887,0.00049,0.01777,0.00024,0.02665
					c0.00198,0.20274-0.16077,0.36871-0.36353,0.37068c-0.20273,0.00198-0.36871-0.16077-0.37067-0.36352
					c-0.00009-0.0094,0.00015-0.01879,0.00079-0.02817c0.01434-0.70885,0.59769-1.27346,1.30664-1.26465
					c0.75577-0.06007,1.41711,0.50388,1.4772,1.25964c0.00253,0.03188,0.00394,0.06385,0.00424,0.09583
					c0,0.69922-0.41895,1.07666-1.50977,2.041l-0.74023,0.71973h1.25781c0.2229,0.01401,0.44666-0.00491,0.66406-0.05616
					c0.07953-0.19913,0.13113-0.40831,0.15332-0.62158h0.1748L109.65149,125.24648z"/>
			</g>
		</g>
	</g>
</g>
<g>
	<g>
		<polyline class="st0" points="207.44412,33.00197 207.44412,23.00197 236.46411,23.00197 247.44412,23.00197 		"/>
		<g>
			<path class="st1" d="M157.29993,7.97646c-0.49548,0.00884-0.90433-0.38566-0.91315-0.88114
				c-0.00049-0.02613,0.00021-0.05226,0.00201-0.07833c0.01636-0.28746,0.08972-0.5688,0.21582-0.82764l0.44336-1.187
				l0.36035-0.9956c0.11804-0.27424,0.19092-0.56577,0.21582-0.86329c0-0.27587-0.13184-0.33593-0.26367-0.33593
				c-0.69629,0-1.00781,1.11523-1.11621,1.51123c-0.04785,0.16748-0.05957,0.19189-0.21582,0.19189
				c-0.05957,0-0.17969,0-0.17969-0.12012c0-0.06005,0.4082-1.84716,1.53516-1.84716
				c0.48831-0.0101,0.89233,0.37756,0.90244,0.86586c0.00064,0.03123-0.00037,0.06248-0.00302,0.09361
				c-0.00104,0.23146-0.0499,0.4602-0.14355,0.67187l-0.76758,2.05079c-0.16034,0.36629-0.26563,0.75427-0.3125,1.15136
				c0,0.32373,0.168,0.33594,0.26465,0.33594c0.69531,0,1.01953-1.15137,1.11523-1.499
				c0.04785-0.18018,0.04785-0.2041,0.2041-0.2041c0.08401,0,0.17969,0,0.17969,0.12011
				C158.82336,6.17763,158.42786,7.97646,157.29993,7.97646z M158.37903,1.27236c-0.28113,0.01614-0.52213-0.19868-0.53827-0.47982
				c-0.00067-0.01192-0.00095-0.02386-0.00079-0.0358c0.02893-0.40934,0.35785-0.73324,0.76758-0.75586
				c0.28085-0.0164,0.52185,0.198,0.53824,0.47886c0.00073,0.01224,0.00101,0.0245,0.00082,0.03676
				C159.11768,0.92584,158.78876,1.24974,158.37903,1.27236z"/>
			<path class="st1" d="M160.3331,11.81972c-0.2793,0-0.88672,0-1.13184,0.021v-0.21675h0.22363
				c0.62891,0,0.65039-0.08349,0.65039-0.33545V7.66836c-0.28772,0.12893-0.60083,0.19119-0.91599,0.18213v-0.2168
				c0.46722,0.02941,0.92639-0.13198,1.27246-0.44727c0.16016,0,0.16016,0.01368,0.16016,0.18164v3.92041
				c0,0.25879,0.02148,0.33545,0.65039,0.33545h0.22363v0.2168C161.22083,11.81972,160.6134,11.81972,160.3331,11.81972z"/>
		</g>
		<path class="st0" d="M179.44446,49.08543c2.46228,0.00409,4.46164-1.98865,4.46576-4.45092
			c0.00409-2.46227-1.98868-4.46165-4.45093-4.46575c-0.00494-0.00001-0.00989-0.00001-0.01483,0V23.0021h-40"/>
		<path class="st2" d="M179.44446,58.0021c2.46228,0,4.45834-1.99606,4.45834-4.45833c0-2.46227-1.99606-4.45834-4.45834-4.45834
			l0,0"/>
		<path class="st2" d="M179.44446,58.0021c2.46228,0,4.45834,1.99606,4.45834,4.45833c0,2.46227-1.99606,4.45833-4.45834,4.45833
			l0,0"/>
		<path class="st0" d="M179.44446,66.91876c2.46228,0,4.45834,1.99606,4.45834,4.45834s-1.99606,4.45834-4.45834,4.45834V93.0021
			h-40"/>
		<polyline class="st3" points="151.44412,19.00197 165.44412,19.00197 162.44412,16.00197 		"/>
		<g>
			<path class="st0" d="M207.44446,33.0021v7.16666c-2.46228,0.0034-4.45557,2.00222-4.45218,4.4645
				c0.00339,2.45746,1.99472,4.44878,4.45218,4.45218"/>
			<path class="st2" d="M207.44446,58.0021c-2.46228-0.00409-4.45502-2.00348-4.45093-4.46575
				c0.00409-2.45648,1.99445-4.44683,4.45093-4.45092"/>
			<path class="st2" d="M207.44446,58.0021c-2.46228,0-4.45834,1.99606-4.45834,4.45833c0,2.46227,1.99606,4.45833,4.45834,4.45833"
				/>
			<path class="st0" d="M207.44446,66.91876c-2.46228,0.0034-4.45557,2.00223-4.45218,4.46449
				c0.00339,2.45747,1.99472,4.44878,4.45218,4.45218v7.16667"/>
		</g>
		<polyline class="st0" points="207.44412,83.00197 207.44412,93.00197 236.46411,93.00197 247.44412,93.00197 		"/>
		<polyline class="st3" points="222.52112,18.90297 236.52112,18.90297 233.52112,15.90297 		"/>
		<g>
			<path class="st1" d="M228.37711,7.97646c-0.49548,0.00884-0.90433-0.38566-0.91315-0.88114
				c-0.00049-0.02613,0.00021-0.05226,0.00201-0.07833c0.01636-0.28746,0.08972-0.5688,0.21582-0.82764l0.44336-1.187
				l0.36035-0.9956c0.11804-0.27424,0.19092-0.56577,0.21582-0.86329c0-0.27587-0.13184-0.33593-0.26367-0.33593
				c-0.69629,0-1.00781,1.11523-1.11621,1.51123c-0.04785,0.16748-0.05957,0.19189-0.21582,0.19189
				c-0.05957,0-0.17969,0-0.17969-0.12012c0-0.06005,0.4082-1.84716,1.53516-1.84716
				c0.48831-0.01009,0.89233,0.37758,0.90244,0.86588c0.00064,0.03123-0.00037,0.06247-0.00302,0.09359
				c-0.00101,0.23146-0.0499,0.4602-0.14355,0.67187l-0.76758,2.05079c-0.16034,0.36629-0.26563,0.75427-0.3125,1.15136
				c0,0.32373,0.168,0.33594,0.26465,0.33594c0.69531,0,1.01953-1.15137,1.11523-1.499
				c0.04785-0.18018,0.04785-0.2041,0.2041-0.2041c0.08401,0,0.17969,0,0.17969,0.12011
				C229.90051,6.17763,229.505,7.97646,228.37711,7.97646z M229.45621,1.27236c-0.28113,0.01614-0.52213-0.19868-0.53827-0.47982
				c-0.00067-0.01192-0.00095-0.02386-0.00079-0.0358c0.02893-0.40934,0.35785-0.73324,0.76758-0.75586
				c0.28085-0.0164,0.52185,0.198,0.53824,0.47886c0.00073,0.01224,0.00101,0.0245,0.00082,0.03676
				c-0.02893,0.40935-0.35785,0.73325-0.76761,0.75586L229.45621,1.27236z"/>
			<path class="st1" d="M232.55676,11.84072h-2.59277c0-0.168,0-0.18164,0.07715-0.25879l1.3418-1.49512
				c0.418-0.41308,0.67758-0.9599,0.7334-1.54492c0-0.57275-0.30078-1.13867-0.93652-1.13867
				c-0.43533,0.00878-0.8158,0.2961-0.94336,0.7124c0.02969-0.00732,0.06036-0.00963,0.09082-0.00683
				c0.19476-0.00951,0.36035,0.14067,0.36984,0.33542c0.00046,0.00928,0.00055,0.01857,0.00027,0.02786
				c0.00198,0.20275-0.16077,0.36871-0.36353,0.37069c-0.20273,0.00198-0.36871-0.16077-0.37067-0.36352
				c-0.00009-0.0094,0.00015-0.01879,0.00079-0.02817c0.01468-0.7087,0.59784-1.27311,1.30664-1.26465
				c0.75577-0.06008,1.41711,0.50388,1.4772,1.25964c0.00253,0.03189,0.00394,0.06385,0.00424,0.09583
				c0,0.69922-0.41895,1.07666-1.50879,2.041l-0.74121,0.71972h1.25781c0.2229,0.0141,0.44669-0.00482,0.66406-0.05615
				c0.08044-0.19884,0.13205-0.40814,0.15332-0.62158h0.1748L232.55676,11.84072z"/>
		</g>
		<circle class="st4" cx="172.44446" cy="40.0021" r="1"/>
		<circle class="st4" cx="214.44446" cy="75.65273" r="1"/>
		<g>
			<line class="st5" x1="161.48035" y1="44.31484" x2="166.48035" y2="44.31484"/>
			<line class="st5" x1="163.98035" y1="46.81484" x2="163.98035" y2="41.81484"/>
		</g>
		<line class="st5" x1="161.48035" y1="71.65371" x2="166.48035" y2="71.65371"/>
		<g>
			<path class="st1" d="M163.28137,59.04433c-0.73779,0.075-1.3967-0.46231-1.47168-1.2001
				c-0.00809-0.07939-0.00906-0.15934-0.00293-0.2389c0.08176-0.79489,0.28806-1.57197,0.61133-2.30274
				c0.15265-0.34232,0.24988-0.70673,0.28809-1.07959c0-0.312-0.13184-0.34765-0.26367-0.34765
				c-0.69629,0-1.01953,1.13916-1.11621,1.51123c-0.04785,0.16748-0.05957,0.19189-0.21582,0.19189
				c-0.05957,0-0.17969,0-0.17969-0.12011c0-0.07178,0.41992-1.84717,1.53516-1.84717
				c0.49615-0.00864,0.90536,0.38657,0.914,0.88271c0.00052,0.02969-0.00046,0.05938-0.00287,0.08897
				c-0.01096,0.20572-0.05548,0.40826-0.13184,0.59961c-0.36423,0.82737-0.60254,1.70461-0.707,2.60254
				c0,0.396,0.13184,0.9956,0.7793,0.9956c1.37891,0,1.94336-3.01025,1.94336-3.34619
				c0.01715-0.34576-0.09888-0.68494-0.32422-0.94775c-0.0936-0.08242-0.14996-0.19917-0.15625-0.32373
				c0.03116-0.30013,0.27496-0.53361,0.57617-0.55176c0.34766,0,0.49121,0.37207,0.49121,0.7915
				C165.84778,54.71474,165.29602,59.04433,163.28137,59.04433z"/>
			<path class="st1" d="M167.25113,62.8876c-0.2793,0-0.88672,0-1.13184,0.021v-0.2168h0.22363
				c0.62891,0,0.65039-0.08349,0.65039-0.33544v-3.62014c-0.28769,0.129-0.60083,0.19127-0.91599,0.18213v-0.2168
				c0.46722,0.02942,0.92639-0.13198,1.27246-0.44727c0.16016,0,0.16016,0.01368,0.16016,0.18164v3.92042
				c0,0.25878,0.02148,0.33544,0.65039,0.33544h0.22363v0.2168C168.13879,62.8876,167.53137,62.8876,167.25113,62.8876z"/>
		</g>
		<g>
			<line class="st5" x1="219.48035" y1="44.31484" x2="224.48035" y2="44.31484"/>
			<line class="st5" x1="221.98035" y1="46.81484" x2="221.98035" y2="41.81484"/>
		</g>
		<line class="st5" x1="219.48035" y1="71.65371" x2="224.48035" y2="71.65371"/>
		<g>
			<path class="st1" d="M221.28137,59.04433c-0.73779,0.075-1.3967-0.46231-1.47168-1.2001
				c-0.00809-0.07939-0.00906-0.15934-0.00293-0.2389c0.08176-0.79489,0.28806-1.57197,0.61133-2.30274
				c0.15265-0.34232,0.24988-0.70673,0.28809-1.07959c0-0.312-0.13184-0.34765-0.26367-0.34765
				c-0.69629,0-1.01953,1.13916-1.11621,1.51123c-0.04785,0.16748-0.05957,0.19189-0.21582,0.19189
				c-0.05957,0-0.17969,0-0.17969-0.12011c0-0.07178,0.41992-1.84717,1.53516-1.84717
				c0.49615-0.00864,0.90536,0.38657,0.914,0.88271c0.00052,0.02969-0.00046,0.05938-0.00287,0.08897
				c-0.01096,0.20572-0.05548,0.40826-0.13184,0.59961c-0.36423,0.82737-0.60254,1.70461-0.707,2.60254
				c0,0.396,0.13184,0.9956,0.7793,0.9956c1.37891,0,1.94336-3.01025,1.94336-3.34619
				c0.01715-0.34576-0.09888-0.68494-0.32422-0.94775c-0.0936-0.08242-0.14996-0.19917-0.15625-0.32373
				c0.03116-0.30013,0.27496-0.53361,0.57617-0.55176c0.34766,0,0.49121,0.37207,0.49121,0.7915
				C223.84778,54.71474,223.29602,59.04433,221.28137,59.04433z"/>
			<path class="st1" d="M226.39758,62.90859h-2.59277c0-0.168,0-0.18164,0.07715-0.25879l1.3418-1.49512
				c0.418-0.41309,0.67758-0.9599,0.7334-1.54492c0-0.57275-0.30078-1.13867-0.93652-1.13867
				c-0.43533,0.00878-0.8158,0.2961-0.94336,0.7124c0.02969-0.00732,0.06036-0.00963,0.09082-0.00683
				c0.19476-0.00951,0.36035,0.14066,0.36984,0.33542c0.00046,0.00928,0.00055,0.01857,0.00027,0.02786
				c0.00198,0.20274-0.16077,0.36871-0.36353,0.37069c-0.20273,0.00198-0.36871-0.16077-0.37067-0.36352
				c-0.00009-0.0094,0.00015-0.01879,0.00079-0.02817c0.01468-0.70869,0.59784-1.27311,1.30664-1.26465
				c0.75577-0.06007,1.41711,0.50388,1.4772,1.25964c0.00253,0.03189,0.00394,0.06385,0.00424,0.09583
				c0,0.69922-0.41895,1.07666-1.50879,2.041l-0.74121,0.71973h1.25781c0.2229,0.01411,0.44669-0.00482,0.66406-0.05616
				c0.08035-0.19892,0.13229-0.40817,0.1543-0.62158h0.17383L226.39758,62.90859z"/>
		</g>
		<g>
			<path class="st1" d="M184.17102,5.13906c-0.55078-0.06835-1.06772,0.27949-1.21191,0.81543l-1.67871,6.76465
				c-0.06055,0.22754-0.1084,0.23974-0.24023,0.23974c-0.168,0-0.17969-0.02392-0.23926-0.2041l-2.5791-7.15967l-1.54688,6.17627
				c-0.02917,0.09737-0.04526,0.19819-0.04785,0.29981c0,0.18017,0.02344,0.4917,0.707,0.51611
				c0.14453,0,0.22852,0.01172,0.22852,0.15576c0,0.21582-0.14453,0.21582-0.21582,0.21582
				c-0.37207,0-0.79199-0.03613-1.17578-0.03613c-0.37207,0-0.7793,0.03613-1.13965,0.03613
				c-0.08401,0-0.15527-0.03613-0.15527-0.144c0-0.21582,0.13184-0.22754,0.22754-0.22754
				c0.54633,0.0621,1.05017-0.30172,1.16309-0.83984l1.58301-6.35645c0.01797-0.05036,0.03012-0.10262,0.03613-0.15576
				c0-0.09619-0.64746-0.09619-0.73145-0.09619c-0.22754,0-0.32324,0-0.32324-0.14355c0-0.228,0.13184-0.228,0.32324-0.228h1.49899
				c0.25195,0,0.26367,0.01172,0.33594,0.20361l2.24316,6.23682l1.31934-5.26514c0.02829-0.09357,0.04437-0.1904,0.04785-0.28809
				c0-0.25146-0.0957-0.49169-0.71973-0.51562c-0.1084,0-0.21582-0.01172-0.21582-0.14355c0-0.228,0.15625-0.228,0.21582-0.228
				c0.37207,0,0.7793,0.03564,1.16309,0.03564s0.7793-0.03564,1.15137-0.03564c0.07635-0.0099,0.1463,0.04399,0.15619,0.12035
				c0.00153,0.01175,0.00156,0.02365,0.00006,0.03541C184.35071,5.12734,184.20618,5.13906,184.17102,5.13906z"/>
			<path class="st1" d="M184.84387,16.93397c-0.2793,0-0.88672,0-1.13184,0.021v-0.2168h0.22363
				c0.62891,0,0.65039-0.0835,0.65039-0.33545v-3.62011c-0.28772,0.12893-0.60083,0.19119-0.91599,0.18213v-0.21677
				c0.46722,0.02941,0.92639-0.13198,1.27246-0.44727c0.16016,0,0.16016,0.01416,0.16016,0.18164v3.92041
				c0,0.25879,0.02148,0.33545,0.65039,0.33545h0.22363v0.2168C185.73157,16.93397,185.12411,16.93397,184.84387,16.93397z"/>
			<path class="st1" d="M192.50891,9.06097c-0.35098-0.00013-0.63541-0.28477-0.63525-0.63574
				c0.00012-0.35098,0.28476-0.63539,0.63574-0.63526c0.3508,0.00013,0.63513,0.28447,0.63525,0.63526
				C193.1424,8.7754,192.85907,9.0587,192.50891,9.06097z M192.50891,12.95897c-0.3511,0-0.63574-0.28463-0.63574-0.63574
				s0.28464-0.63574,0.63574-0.63574c0.3511,0,0.63574,0.28463,0.63574,0.63574c-0.00232,0.35013-0.28561,0.63338-0.63574,0.63565
				V12.95897z"/>
			<path class="st1" d="M208.21204,5.13906c-0.55054-0.06827-1.06717,0.27963-1.21094,0.81543l-1.67969,6.76465
				c-0.05957,0.22754-0.10742,0.23974-0.23926,0.23974c-0.168,0-0.17969-0.02392-0.24023-0.2041l-2.57813-7.15967l-1.54785,6.17627
				c-0.02917,0.09737-0.04526,0.19819-0.04785,0.29981c0,0.18017,0.02441,0.4917,0.70801,0.51611
				c0.14355,0,0.22754,0.01172,0.22754,0.15576c0,0.21582-0.14355,0.21582-0.21582,0.21582
				c-0.37207,0-0.79099-0.03613-1.1748-0.03613c-0.37207,0-0.78027,0.03613-1.13965,0.03613
				c-0.08401,0-0.15625-0.03613-0.15625-0.144c0-0.21582,0.13184-0.22754,0.22852-0.22754
				c0.54626,0.06184,1.04996-0.30187,1.16309-0.83984l1.58301-6.35645c0.01797-0.05036,0.03012-0.10262,0.03613-0.15576
				c0-0.09619-0.64746-0.09619-0.73145-0.09619c-0.22852,0-0.32422,0-0.32422-0.14355c0-0.228,0.13184-0.228,0.32422-0.228h1.49899
				c0.25195,0,0.26367,0.01172,0.33594,0.20361l2.24219,6.23682l1.31934-5.26514c0.02875-0.09346,0.04483-0.19035,0.04785-0.28809
				c0-0.25146-0.0957-0.49169-0.71973-0.51562c-0.10742,0-0.21582-0.01172-0.21582-0.14355c0-0.228,0.15625-0.228,0.21582-0.228
				c0.37207,0,0.78027,0.03564,1.16406,0.03564s0.7793-0.03564,1.15137-0.03564c0.07623-0.00954,0.14578,0.04453,0.15533,0.12078
				c0.00143,0.01162,0.00143,0.02337-0.00006,0.03498C208.39172,5.12734,208.24811,5.13906,208.21204,5.13906z"/>
			<path class="st1" d="M210.03235,16.95497h-2.59277c0-0.16748,0-0.18164,0.07617-0.25879l1.3418-1.49512
				c0.41846-0.41268,0.67841-0.95939,0.73438-1.54443c0-0.57324-0.30078-1.13916-0.93652-1.13916
				c-0.43542,0.0085-0.81604,0.29593-0.94336,0.7124c0.02966-0.00746,0.06036-0.00977,0.09082-0.00684
				c0.1951-0.00918,0.36069,0.14154,0.36987,0.33663c0.00043,0.00888,0.00049,0.01777,0.00024,0.02666
				c0.00198,0.20274-0.16077,0.36871-0.36353,0.37069c-0.20273,0.00198-0.36871-0.16077-0.37067-0.36352
				c-0.00009-0.0094,0.00015-0.01879,0.00079-0.02817c0.01434-0.70885,0.59769-1.27346,1.30664-1.26465
				c0.7558-0.06003,1.41718,0.50401,1.4772,1.25981c0.00253,0.032,0.00394,0.06409,0.00424,0.09619
				c0,0.69873-0.41895,1.07617-1.50977,2.04053l-0.74023,0.71972h1.25781c0.2229,0.014,0.44666-0.00492,0.66406-0.05615
				c0.07953-0.19913,0.13113-0.40831,0.15332-0.62158h0.1748L210.03235,16.95497z"/>
		</g>
		<line class="st6" x1="190.26389" y1="48.90273" x2="190.26389" y2="66.90273"/>
		<line class="st6" x1="196.625" y1="48.90273" x2="196.625" y2="66.90273"/>
	</g>
	<g>
		<g>
			<path class="st1" d="M168.96204,112.49111h-7.21973c-0.15625,0-0.44336,0-0.44336-0.28809
				c0-0.2998,0.27539-0.2998,0.44336-0.2998h7.21973c0.168,0,0.44434,0,0.44434,0.2998
				C169.40637,112.49111,169.11829,112.49111,168.96204,112.49111z"/>
			<path class="st1" d="M159.51575,111.27968h-7.15918c-0.18066,0-0.4082,0-0.4082-0.23974s0.22754-0.23975,0.39551-0.23975h7.18457
				c0.168,0,0.39551,0,0.39551,0.23975S159.69641,111.27968,159.51575,111.27968z M159.52844,113.60635h-7.18457
				c-0.168,0-0.39551,0-0.39551-0.23975s0.22754-0.23975,0.4082-0.23975h7.15918c0.18066,0,0.4082,0,0.4082,0.23975
				S159.69641,113.60635,159.52844,113.60635z"/>
			<g>
				<g>
					<path class="st1" d="M140.78137,106.54336c-0.73788,0.07494-1.39679-0.46249-1.47174-1.20037
						c-0.00806-0.07945-0.00903-0.15947-0.00287-0.23909c0.08188-0.79487,0.28815-1.57192,0.61133-2.30273
						c0.15262-0.34216,0.24988-0.70641,0.28809-1.0791c0-0.3125-0.13184-0.34766-0.26367-0.34766
						c-0.69629,0-1.01953,1.13867-1.11621,1.51074c-0.04785,0.168-0.05957,0.19239-0.21582,0.19239
						c-0.05957,0-0.17969,0-0.17969-0.12012c0-0.07227,0.41992-1.84766,1.53516-1.84766
						c0.49615-0.00864,0.90536,0.38657,0.914,0.88271c0.00052,0.02969-0.00046,0.05938-0.00287,0.08897
						c-0.01086,0.20573-0.05539,0.40829-0.13184,0.59961c-0.36411,0.82742-0.60242,1.70463-0.707,2.60254
						c0,0.39649,0.13184,0.99609,0.7793,0.99609c1.37891,0,1.94336-3.01074,1.94336-3.34667
						c0.01721-0.34563-0.09885-0.68468-0.32422-0.94727c-0.09363-0.08263-0.14996-0.19952-0.15625-0.32422
						c0.03134-0.30004,0.27505-0.53342,0.57617-0.55176c0.34766,0,0.49121,0.37207,0.49121,0.792
						C143.34778,102.21328,142.79602,106.54336,140.78137,106.54336z"/>
					<path class="st1" d="M145.89758,110.40761h-2.59277c0-0.168,0-0.18164,0.07715-0.25878l1.3418-1.49512
						c0.418-0.41309,0.67758-0.9599,0.7334-1.54492c0-0.57325-0.30078-1.13868-0.93652-1.13868
						c-0.43524,0.00857-0.81573,0.29572-0.94336,0.71192c0.02969-0.00733,0.06036-0.00964,0.09082-0.00684
						c0.19476-0.00951,0.36035,0.14066,0.36984,0.33542c0.00046,0.00928,0.00055,0.01858,0.00027,0.02786
						c0.00223,0.20274-0.16034,0.3689-0.36307,0.37112c-0.20276,0.00222-0.3689-0.16034-0.37112-0.36308
						c-0.00012-0.00951,0.00015-0.01904,0.00079-0.02853c0.01453-0.70877,0.59778-1.27328,1.30664-1.26465
						c0.75558-0.06023,1.41693,0.50346,1.47717,1.25903c0.00253,0.03209,0.00397,0.06425,0.00427,0.09644
						c0,0.69922-0.41895,1.07617-1.50879,2.041l-0.74121,0.71973h1.25781c0.22293,0.01422,0.44675-0.00487,0.66406-0.05664
						c0.08029-0.19878,0.13223-0.40786,0.1543-0.6211h0.17383L145.89758,110.40761z"/>
				</g>
				<line class="st7" x1="134.94446" y1="112.15273" x2="148.94446" y2="112.15273"/>
				<g>
					<path class="st1" d="M140.78137,120.38222c-0.73779,0.075-1.3967-0.46231-1.47168-1.2001
						c-0.00809-0.07938-0.00906-0.15934-0.00293-0.2389c0.08176-0.79489,0.28806-1.57198,0.61133-2.30274
						c0.15265-0.34232,0.24988-0.70673,0.28809-1.07959c0-0.312-0.13184-0.34765-0.26367-0.34765
						c-0.69629,0-1.01953,1.13916-1.11621,1.51123c-0.04785,0.16748-0.05957,0.19189-0.21582,0.19189
						c-0.05957,0-0.17969,0-0.17969-0.12011c0-0.07178,0.41992-1.84717,1.53516-1.84717
						c0.49615-0.00864,0.90536,0.38657,0.914,0.88271c0.00052,0.02969-0.00046,0.05938-0.00287,0.08897
						c-0.01096,0.20572-0.05548,0.40826-0.13184,0.59961c-0.36423,0.82737-0.60254,1.70461-0.707,2.60254
						c0,0.396,0.13184,0.9956,0.7793,0.9956c1.37891,0,1.94336-3.01025,1.94336-3.34619
						c0.01715-0.34576-0.09888-0.68494-0.32422-0.94775c-0.0936-0.08243-0.14996-0.19917-0.15625-0.32373
						c0.03116-0.30013,0.27496-0.53361,0.57617-0.55176c0.34766,0,0.49121,0.37207,0.49121,0.7915
						C143.34778,116.05263,142.79602,120.38222,140.78137,120.38222z"/>
					<path class="st1" d="M144.75113,124.22549c-0.2793,0-0.88672,0-1.13184,0.021v-0.2168h0.22363
						c0.62891,0,0.65039-0.08349,0.65039-0.33544v-3.62012c-0.28769,0.12901-0.60083,0.19126-0.91599,0.18213v-0.2168
						c0.46722,0.02941,0.92639-0.13199,1.27246-0.44727c0.16016,0,0.16016,0.01368,0.16016,0.18165v3.92041
						c0,0.25878,0.02148,0.33544,0.65039,0.33544h0.22363v0.2168C145.63879,124.22549,145.03137,124.22549,144.75113,124.22549z"/>
				</g>
			</g>
			<g>
				<g>
					<path class="st1" d="M181.77551,97.59121c-0.55066-0.06756-1.06705,0.28058-1.21094,0.8164l-1.67969,6.76368
						c-0.05957,0.22754-0.10742,0.24023-0.23926,0.24023c-0.168,0-0.17969-0.02441-0.24023-0.2041l-2.57813-7.16016
						l-1.54785,6.17676c-0.02924,0.09736-0.04532,0.19819-0.04785,0.29981c0,0.17968,0.02441,0.49121,0.70801,0.51562
						c0.14355,0,0.22754,0.01172,0.22754,0.15625c0,0.21582-0.14355,0.21582-0.21582,0.21582
						c-0.37207,0-0.79099-0.03613-1.1748-0.03613c-0.37207,0-0.78027,0.03613-1.13965,0.03613
						c-0.08401,0-0.15625-0.03613-0.15625-0.14453c0-0.21582,0.13184-0.22754,0.22852-0.22754
						c0.5463,0.06202,1.05011-0.30177,1.16309-0.83984l1.58301-6.35645c0.01794-0.05021,0.03006-0.1023,0.03613-0.15527
						c0-0.09668-0.64746-0.09668-0.73145-0.09668c-0.22852,0-0.32422,0-0.32422-0.14356c0-0.22754,0.13184-0.22754,0.32422-0.22754
						h1.49899c0.25201,0,0.26367,0.01172,0.33594,0.20313l2.24219,6.2373l1.31934-5.26562
						c0.02878-0.09345,0.04489-0.19035,0.04785-0.28809c0-0.251-0.0957-0.49121-0.71973-0.51562
						c-0.10742,0-0.21582-0.01172-0.21582-0.14356c0-0.22754,0.15625-0.22754,0.21582-0.22754
						c0.37207,0,0.78027,0.03614,1.16406,0.03614s0.7793-0.03614,1.15137-0.03614c0.07602-0.00972,0.14554,0.04403,0.15527,0.12006
						c0.0015,0.01169,0.0015,0.02353,0,0.03522C181.9552,97.57949,181.81165,97.59121,181.77551,97.59121z"/>
					<path class="st1" d="M183.59583,109.40761h-2.59277c0-0.168,0-0.18164,0.07617-0.25878l1.3418-1.49512
						c0.41864-0.41275,0.67862-0.95969,0.73438-1.54492c0-0.57325-0.30078-1.13868-0.93652-1.13868
						c-0.43533,0.00829-0.81598,0.29555-0.94336,0.71192c0.02966-0.00746,0.06036-0.00977,0.09082-0.00684
						c0.1951-0.00918,0.36069,0.14153,0.36987,0.33663c0.00043,0.00887,0.00049,0.01777,0.00024,0.02665
						c0.00223,0.20274-0.16034,0.3689-0.36307,0.37112c-0.20276,0.00222-0.3689-0.16034-0.37112-0.36308
						c-0.00012-0.00951,0.00015-0.01904,0.00079-0.02853c0.01416-0.70892,0.59763-1.27363,1.30664-1.26465
						c0.75558-0.06024,1.41693,0.50344,1.47717,1.25902c0.00253,0.03209,0.00397,0.06426,0.00427,0.09645
						c0,0.69922-0.41895,1.07617-1.50977,2.041l-0.74023,0.71973h1.25781c0.22293,0.01412,0.44675-0.00497,0.66406-0.05664
						c0.07947-0.19898,0.13107-0.408,0.15332-0.6211h0.1748L183.59583,109.40761z"/>
				</g>
				<line class="st7" x1="170.94446" y1="111.15273" x2="184.94446" y2="111.15273"/>
				<g>
					<path class="st1" d="M181.77551,113.43056c-0.55063-0.06803-1.06723,0.28004-1.21094,0.81592l-1.67969,6.76416
						c-0.05957,0.22754-0.10742,0.23975-0.23926,0.23975c-0.168,0-0.17969-0.02393-0.24023-0.2041l-2.57813-7.15967
						l-1.54785,6.17627c-0.02917,0.09737-0.04526,0.19819-0.04785,0.2998c0,0.18018,0.02441,0.4917,0.70801,0.51612
						c0.14355,0,0.22754,0.01171,0.22754,0.15576c0,0.21582-0.14355,0.21582-0.21582,0.21582
						c-0.37207,0-0.79099-0.03613-1.1748-0.03613c-0.37207,0-0.78027,0.03613-1.13965,0.03613
						c-0.08401,0-0.15625-0.03613-0.15625-0.144c0-0.21583,0.13184-0.22754,0.22852-0.22754
						c0.54623,0.06181,1.04993-0.3019,1.16309-0.83985l1.58301-6.35644c0.01797-0.05036,0.03012-0.10262,0.03613-0.15576
						c0-0.0962-0.64746-0.0962-0.73145-0.0962c-0.22852,0-0.32422,0-0.32422-0.144c0-0.22754,0.13184-0.22754,0.32422-0.22754
						h1.49899c0.25201,0,0.26367,0.01172,0.33594,0.20362l2.24219,6.23681l1.31934-5.26514
						c0.02872-0.09347,0.0448-0.19035,0.04785-0.28808c0-0.25147-0.0957-0.4917-0.71973-0.51563
						c-0.10742,0-0.21582-0.01171-0.21582-0.144c0-0.22754,0.15625-0.22754,0.21582-0.22754
						c0.37207,0,0.78027,0.03613,1.16406,0.03613s0.7793-0.03613,1.15137-0.03613c0.07626-0.00954,0.14578,0.04455,0.15533,0.1208
						c0.00143,0.0116,0.00143,0.02335-0.00006,0.03496C181.9552,113.41885,181.81165,113.43056,181.77551,113.43056z"/>
					<path class="st1" d="M182.44934,125.22549c-0.2793,0-0.8877,0-1.13184,0.021v-0.2168h0.2236
						c0.62891,0,0.64941-0.08349,0.64941-0.33544v-3.62012c-0.28735,0.12897-0.60016,0.19125-0.91501,0.18213v-0.2168
						c0.46692,0.02937,0.92578-0.13203,1.27148-0.44727c0.16113,0,0.16113,0.01368,0.16113,0.18165v3.92041
						c0,0.25878,0.02051,0.33544,0.64941,0.33544h0.22363v0.2168C183.33704,125.22549,182.72864,125.22549,182.44934,125.22549z"/>
				</g>
			</g>
		</g>
		<g>
			<g>
				<line class="st7" x1="200.44446" y1="112.15273" x2="214.44446" y2="112.15273"/>
				<g>
					<path class="st1" d="M206.29993,106.54336c-0.49548,0.00884-0.90433-0.38566-0.91315-0.88113
						c-0.00049-0.02613,0.00021-0.05228,0.00201-0.07835c0.01636-0.28746,0.08972-0.56879,0.21582-0.82763l0.44336-1.187
						l0.36035-0.99561c0.11804-0.27423,0.19092-0.56577,0.21582-0.86328c0-0.27588-0.13184-0.33594-0.26367-0.33594
						c-0.69629,0-1.00781,1.11524-1.11621,1.51123c-0.04785,0.16748-0.05957,0.1919-0.21582,0.1919
						c-0.05957,0-0.17969,0-0.17969-0.12012c0-0.06006,0.4082-1.84717,1.53516-1.84717
						c0.48831-0.01009,0.89233,0.37758,0.90244,0.86588c0.00064,0.03123-0.00037,0.06247-0.00302,0.09359
						c-0.00104,0.23146-0.0499,0.46021-0.14355,0.67188l-0.76758,2.05078c-0.16034,0.36629-0.26563,0.75428-0.3125,1.15137
						c0,0.32373,0.168,0.33593,0.26465,0.33593c0.69531,0,1.01953-1.15136,1.11523-1.499
						c0.04785-0.18017,0.04785-0.2041,0.2041-0.2041c0.08401,0,0.17969,0,0.17969,0.12012
						C207.82336,104.74453,207.42786,106.54336,206.29993,106.54336z M207.37903,99.83926
						c-0.28113,0.01614-0.52213-0.19869-0.53827-0.47984c-0.00067-0.01192-0.00095-0.02386-0.00079-0.0358
						c0.02893-0.40934,0.35785-0.73324,0.76758-0.75586c0.28085-0.0164,0.52185,0.198,0.53824,0.47886
						c0.00073,0.01225,0.00101,0.02451,0.00082,0.03677C208.11768,99.49274,207.78876,99.81664,207.37903,99.83926z"/>
					<path class="st1" d="M210.47961,110.40761h-2.59277c0-0.168,0-0.18164,0.07715-0.25878l1.3418-1.49512
						c0.418-0.41309,0.67758-0.9599,0.7334-1.54492c0-0.57276-0.30078-1.13868-0.93652-1.13868
						c-0.43533,0.00879-0.8158,0.29611-0.94336,0.71241c0.02969-0.00733,0.06036-0.00964,0.09082-0.00684
						c0.19476-0.00951,0.36035,0.14066,0.36984,0.33542c0.00046,0.00928,0.00055,0.01858,0.00027,0.02786
						c0.00183,0.20274-0.16104,0.36858-0.36377,0.37041c-0.20276,0.00183-0.36859-0.16103-0.37042-0.36378
						c-0.00009-0.00922,0.00018-0.01844,0.00079-0.02764c0.01468-0.70869,0.59784-1.27311,1.30664-1.26465
						c0.75574-0.06008,1.41711,0.50387,1.4772,1.25961c0.00253,0.0319,0.00394,0.06387,0.00424,0.09586
						c0,0.69922-0.41895,1.07666-1.50879,2.041l-0.74121,0.71973h1.25781c0.2229,0.0141,0.44669-0.00482,0.66406-0.05615
						c0.08044-0.19884,0.13205-0.40815,0.15332-0.62159h0.1748L210.47961,110.40761z"/>
				</g>
				<g>
					<path class="st1" d="M206.29993,121.97646c-0.49579,0.00851-0.90463-0.38653-0.91312-0.88233
						c-0.00046-0.02573,0.00021-0.05147,0.00198-0.07714c0.01636-0.28746,0.08972-0.56879,0.21582-0.82764l0.44336-1.187
						l0.36035-0.9956c0.11804-0.27424,0.19092-0.56577,0.21582-0.86329c0-0.27587-0.13184-0.33593-0.26367-0.33593
						c-0.69531,0-1.00781,1.11523-1.11523,1.51123c-0.04883,0.16748-0.06055,0.19189-0.2168,0.19189
						c-0.05957,0-0.17969,0-0.17969-0.12012c0-0.06005,0.4082-1.84716,1.53516-1.84716
						c0.48868-0.01025,0.8931,0.37759,0.90335,0.86626c0.00064,0.03111-0.00034,0.06222-0.00296,0.09322
						c-0.00146,0.23151-0.05066,0.46024-0.14453,0.67187l-0.76758,2.05079c-0.16034,0.36629-0.26563,0.75427-0.3125,1.15136
						c0,0.32373,0.168,0.33594,0.26465,0.33594c0.69629,0,1.01953-1.15137,1.11523-1.499
						c0.04785-0.18018,0.04785-0.2041,0.2041-0.2041c0.08401,0,0.17969,0,0.17969,0.12011
						C207.82336,120.17763,207.42786,121.97646,206.29993,121.97646z M207.38,115.27236
						c-0.28162,0.01619-0.52301-0.19897-0.53918-0.48058c-0.00067-0.01167-0.00095-0.02335-0.00082-0.03504
						c0.02893-0.40934,0.35785-0.73324,0.76758-0.75586c0.28101-0.01676,0.5224,0.19744,0.53915,0.47844
						c0.00073,0.01238,0.00101,0.02478,0.00085,0.03718C208.11832,114.92569,207.78958,115.2494,207.38,115.27236z"/>
					<path class="st1" d="M209.3331,125.81973c-0.2793,0-0.88672,0-1.13086,0.021v-0.2168h0.22266
						c0.62891,0,0.65039-0.08349,0.65039-0.33545v-3.62011c-0.28766,0.12907-0.60083,0.19135-0.91599,0.18213v-0.2168
						c0.46725,0.02955,0.92648-0.13187,1.27246-0.44727c0.16113,0,0.16113,0.01368,0.16113,0.18164v3.92041
						c0,0.25879,0.02051,0.33545,0.64941,0.33545h0.22363v0.2168C210.2218,125.81973,209.6134,125.81973,209.3331,125.81973z"/>
				</g>
			</g>
			<path class="st1" d="M225.01575,111.77578h-7.15918c-0.18066,0-0.4082,0-0.4082-0.23975s0.22754-0.23974,0.39551-0.23974h7.18457
				c0.168,0,0.39551,0,0.39551,0.23974S225.19641,111.77578,225.01575,111.77578z M225.02844,114.10244h-7.18457
				c-0.168,0-0.39551,0-0.39551-0.23975s0.22754-0.23974,0.4082-0.23974h7.15918c0.18066,0,0.4082,0,0.4082,0.23974
				S225.19641,114.10244,225.02844,114.10244z"/>
			<g>
				<g>
					<path class="st1" d="M248.27551,98.59121c-0.55066-0.06756-1.06705,0.28058-1.21094,0.8164l-1.67969,6.76368
						c-0.05957,0.22754-0.10742,0.24023-0.23926,0.24023c-0.168,0-0.17969-0.02441-0.24023-0.2041l-2.57813-7.16016
						l-1.54785,6.17676c-0.02924,0.09736-0.04532,0.19819-0.04785,0.29981c0,0.17968,0.02441,0.49121,0.70801,0.51562
						c0.14355,0,0.22754,0.01172,0.22754,0.15625c0,0.21582-0.14355,0.21582-0.21582,0.21582
						c-0.37207,0-0.79099-0.03613-1.1748-0.03613c-0.37207,0-0.78027,0.03613-1.13965,0.03613
						c-0.08401,0-0.15625-0.03613-0.15625-0.14453c0-0.21582,0.13184-0.22754,0.22852-0.22754
						c0.5463,0.06202,1.05011-0.30177,1.16309-0.83984l1.58301-6.35645c0.01794-0.05021,0.03006-0.1023,0.03613-0.15527
						c0-0.09668-0.64746-0.09668-0.73145-0.09668c-0.22852,0-0.32422,0-0.32422-0.14356c0-0.22754,0.13184-0.22754,0.32422-0.22754
						h1.49899c0.25201,0,0.26367,0.01172,0.33594,0.20313l2.24219,6.2373l1.31934-5.26562
						c0.02878-0.09345,0.04489-0.19035,0.04785-0.28809c0-0.251-0.0957-0.49121-0.71973-0.51562
						c-0.10742,0-0.21582-0.01172-0.21582-0.14356c0-0.22754,0.15625-0.22754,0.21582-0.22754
						c0.37207,0,0.78027,0.03614,1.16406,0.03614s0.7793-0.03614,1.15137-0.03614c0.07602-0.00972,0.14554,0.04403,0.15527,0.12006
						c0.0015,0.01169,0.0015,0.02353,0,0.03522C248.4552,98.57949,248.31165,98.59121,248.27551,98.59121z"/>
					<path class="st1" d="M248.94934,110.38613c-0.2793,0-0.8877,0-1.13184,0.02148v-0.21679h0.2236
						c0.62891,0,0.64941-0.084,0.64941-0.33594v-3.62012c-0.28726,0.12931-0.60013,0.19175-0.91501,0.18262v-0.2168
						c0.46692,0.02938,0.92578-0.13203,1.27148-0.44726c0.16113,0,0.16113,0.01367,0.16113,0.18164v3.91992
						c0,0.25879,0.02051,0.33594,0.64941,0.33594h0.22363v0.21679C249.83704,110.38613,249.22864,110.38613,248.94934,110.38613z"/>
				</g>
				<line class="st7" x1="237.44446" y1="112.15273" x2="251.44446" y2="112.15273"/>
				<g>
					<path class="st1" d="M248.27551,114.43056c-0.55063-0.06803-1.06723,0.28004-1.21094,0.81592l-1.67969,6.76416
						c-0.05957,0.22754-0.10742,0.23975-0.23926,0.23975c-0.168,0-0.17969-0.02393-0.24023-0.2041l-2.57813-7.15967
						l-1.54785,6.17627c-0.02917,0.09737-0.04526,0.19819-0.04785,0.2998c0,0.18018,0.02441,0.4917,0.70801,0.51612
						c0.14355,0,0.22754,0.01171,0.22754,0.15576c0,0.21582-0.14355,0.21582-0.21582,0.21582
						c-0.37207,0-0.79099-0.03613-1.1748-0.03613c-0.37207,0-0.78027,0.03613-1.13965,0.03613
						c-0.08401,0-0.15625-0.03613-0.15625-0.144c0-0.21583,0.13184-0.22754,0.22852-0.22754
						c0.54623,0.06181,1.04993-0.3019,1.16309-0.83985l1.58301-6.35644c0.01797-0.05036,0.03012-0.10262,0.03613-0.15576
						c0-0.0962-0.64746-0.0962-0.73145-0.0962c-0.22852,0-0.32422,0-0.32422-0.144c0-0.22754,0.13184-0.22754,0.32422-0.22754
						h1.49899c0.25201,0,0.26367,0.01172,0.33594,0.20362l2.24219,6.23681l1.31934-5.26514
						c0.02872-0.09347,0.0448-0.19035,0.04785-0.28808c0-0.25147-0.0957-0.4917-0.71973-0.51563
						c-0.10742,0-0.21582-0.01171-0.21582-0.144c0-0.22754,0.15625-0.22754,0.21582-0.22754
						c0.37207,0,0.78027,0.03613,1.16406,0.03613s0.7793-0.03613,1.15137-0.03613c0.07626-0.00954,0.14578,0.04455,0.15533,0.1208
						c0.00143,0.0116,0.00143,0.02335-0.00006,0.03496C248.4552,114.41885,248.31165,114.43056,248.27551,114.43056z"/>
					<path class="st1" d="M250.09583,126.24648h-2.59277c0-0.168,0-0.18164,0.07617-0.25879l1.3418-1.49511
						c0.41864-0.41275,0.67862-0.95969,0.73438-1.54493c0-0.57275-0.30078-1.13867-0.93652-1.13867
						c-0.43542,0.00849-0.81604,0.29593-0.94336,0.7124c0.02966-0.00745,0.06039-0.00976,0.09082-0.00683
						c0.1951-0.00918,0.36069,0.14153,0.36987,0.33663c0.00043,0.00887,0.00049,0.01777,0.00024,0.02665
						c0.00198,0.20274-0.16077,0.36871-0.36353,0.37068c-0.20273,0.00198-0.36871-0.16077-0.37067-0.36352
						c-0.00009-0.0094,0.00015-0.01879,0.00079-0.02817c0.01434-0.70885,0.59769-1.27346,1.30664-1.26465
						c0.75574-0.06008,1.41711,0.50387,1.4772,1.25961c0.00253,0.0319,0.00394,0.06387,0.00424,0.09586
						c0,0.69922-0.41895,1.07666-1.50977,2.041l-0.74023,0.71973h1.25781c0.2229,0.01401,0.44666-0.00491,0.66406-0.05616
						c0.07953-0.19913,0.1311-0.40831,0.15332-0.62158h0.1748L250.09583,126.24648z"/>
				</g>
			</g>
			<path class="st1" d="M235.40247,112.9872h-7.21973c-0.15625,0-0.44434,0-0.44434-0.28808
				c0-0.29981,0.27637-0.29981,0.44434-0.29981h7.21973c0.168,0,0.44336,0,0.44336,0.29981
				C235.84583,112.9872,235.55774,112.9872,235.40247,112.9872z"/>
		</g>
	</g>
</g>
</svg>
