<?xml version="1.0" encoding="utf-8"?>
<!-- Generator: Adobe Illustrator 23.0.3, SVG Export Plug-In . SVG Version: 6.00 Build 0)  -->
<svg version="1.1" xmlns="http://www.w3.org/2000/svg" xmlns:xlink="http://www.w3.org/1999/xlink" x="0px" y="0px"
	 viewBox="0 0 178.65527 84.65234" style="enable-background:new 0 0 178.65527 84.65234;" xml:space="preserve">
<style type="text/css">
	.st0{fill:none;stroke:#8FF4DD;stroke-width:2;stroke-linecap:round;stroke-linejoin:round;stroke-miterlimit:10;}
	.st1{fill:#8FF4DD;}
	.st2{fill:none;stroke:#8FF4DD;stroke-width:2;stroke-linecap:round;stroke-linejoin:round;}
	.st3{fill:none;stroke:#8FF4DD;stroke-width:1.5;stroke-linecap:square;}
	.st4{fill:none;stroke:#8FF4DD;stroke-width:2;stroke-linecap:square;}
</style>
<g id="Layer_1">
	<rect x="63.29199" y="13.76807" class="st0" width="55" height="55"/>
	<g>
		<g>
			<path class="st1" d="M75.0332,33.98511c-0.16797-1.89502-0.27588-2.32666-2.1709-2.32666c-0.22754,0-0.57568,0-0.67139,0.02393
				c-0.19189,0.04785-0.21582,0.15576-0.21582,0.45557v6.38086c0,0.40771,0,0.57568,1.17529,0.57568h0.43164v0.34766
				c-0.38379-0.02393-1.63086-0.02393-2.09863-0.02393s-1.70313,0-2.08691,0.02393v-0.34766h0.43164
				c1.17529,0,1.17529-0.16797,1.17529-0.57568v-6.38086c0-0.27588-0.01221-0.41943-0.25195-0.45557
				c-0.0957-0.02393-0.43164-0.02393-0.64746-0.02393c-1.89502,0-2.00293,0.43164-2.1709,2.32666h-0.26367l0.21582-2.67432h7.1958
				l0.21582,2.67432H75.0332z"/>
			<path class="st1" d="M82.00537,35.41235l-1.37891,3.93408c-0.04834,0.13184-0.08398,0.21582-0.21631,0.21582
				c-0.10791,0-0.16748-0.03613-0.22754-0.22803l-1.19922-3.41797l-1.19971,3.41797
				c-0.06006,0.19189-0.11963,0.22803-0.22754,0.22803c-0.13232,0-0.16797-0.08398-0.21631-0.21582l-1.51074-4.29395
				c-0.13232-0.38379-0.25195-0.43164-0.86377-0.43164v-0.34766l1.11523,0.02393c0.32422,0,0.92383,0,1.22363-0.02393v0.34766
				c-0.22803,0-0.6958,0-0.6958,0.32373c0,0.04785,0,0.07178,0.06006,0.22803l1.15137,3.26221l1.01953-2.92627
				c-0.08398-0.24023-0.22803-0.63574-0.28809-0.70801c-0.13184-0.15576-0.2876-0.17969-0.74365-0.17969v-0.34766l1.07959,0.02393
				c0.34766,0,0.83936,0,1.17529-0.02393v0.34766c-0.25195,0-0.69531,0-0.69531,0.33594c0,0.03564,0,0.05957,0.05957,0.20361
				l1.19971,3.39404l1.10303-3.14209c0.04834-0.12012,0.04834-0.21582,0.04834-0.21582c0-0.22803-0.14404-0.55176-0.68359-0.57568
				v-0.34766l1.01904,0.02393c0.37207,0,0.58789,0,0.8877-0.02393v0.34766C82.79688,34.63257,82.26953,34.65698,82.00537,35.41235z"
				/>
			<path class="st1" d="M85.83545,39.56226c-1.36719,0-2.56641-1.15137-2.56641-2.68652c0-1.51123,1.13916-2.78271,2.57861-2.78271
				c1.39111,0,2.56641,1.23535,2.56641,2.78271C88.41406,38.38647,87.25098,39.56226,85.83545,39.56226z M87.13086,35.01636
				c-0.32373-0.46777-0.82764-0.68359-1.29541-0.68359c-0.41943,0-0.94727,0.19189-1.2832,0.70801
				c-0.37158,0.53955-0.37158,1.271-0.37158,1.72705c0,0.50342,0.01172,1.21094,0.33545,1.75098
				c0.34814,0.5874,0.8877,0.7793,1.33154,0.7793c0.45557,0,1.00732-0.22754,1.34326-0.80322
				c0.31152-0.56396,0.31152-1.30762,0.31152-1.72705C87.50244,36.32397,87.50244,35.56812,87.13086,35.01636z"/>
			<path class="st1" d="M96.20313,39.56226c-0.76758,0-1.25928-0.46777-1.4751-0.76758v2.08691
				c0,0.53955,0.14404,0.53955,0.91162,0.53955v0.34766c-0.31201-0.02393-0.95947-0.02393-1.30762-0.02393
				c-0.33545,0-0.9834,0-1.29492,0.02393v-0.34766c0.7793,0,0.91113,0,0.91113-0.53955v-5.63721
				c0-0.52783-0.07178-0.61182-0.91113-0.61182v-0.34766l1.66699-0.13184v0.80371c0.03613-0.04834,0.59961-0.80371,1.65527-0.80371
				c1.30713,0,2.43457,1.17529,2.43457,2.69824C98.79395,38.39868,97.58252,39.56226,96.20313,39.56226z M96.26318,34.41675
				c-0.45557,0-1.04346,0.22803-1.40332,0.76758c-0.13184,0.19189-0.13184,0.2041-0.13184,0.43213v2.47021
				c0,0.33594,0.18018,0.57568,0.45557,0.85156c0.24023,0.22803,0.58789,0.38379,0.95947,0.38379
				c0.92383,0,1.73926-1.04346,1.73926-2.4707C97.88232,35.50854,97.1626,34.41675,96.26318,34.41675z"/>
			<path class="st1" d="M102.479,39.56226c-1.36719,0-2.56641-1.15137-2.56641-2.68652c0-1.51123,1.13916-2.78271,2.57861-2.78271
				c1.39111,0,2.56641,1.23535,2.56641,2.78271C105.05762,38.38647,103.89453,39.56226,102.479,39.56226z M103.77441,35.01636
				c-0.32373-0.46777-0.82764-0.68359-1.29541-0.68359c-0.41943,0-0.94727,0.19189-1.2832,0.70801
				c-0.37158,0.53955-0.37158,1.271-0.37158,1.72705c0,0.50342,0.01172,1.21094,0.33545,1.75098
				c0.34814,0.5874,0.8877,0.7793,1.33154,0.7793c0.45557,0,1.00732-0.22754,1.34326-0.80322
				c0.31152-0.56396,0.31152-1.30762,0.31152-1.72705C104.146,36.32397,104.146,35.56812,103.77441,35.01636z"/>
			<path class="st1" d="M109.18652,35.32837c-0.19189,0-0.46777-0.13184-0.46777-0.47949c0-0.32422,0.19189-0.396,0.28809-0.44385
				c-0.04834-0.01221-0.07227-0.01221-0.16797-0.01221c-0.92383,0-1.40332,1.09131-1.40332,2.25488v1.88281
				c0,0.43213,0.02393,0.56396,0.89941,0.56396h0.23975v0.34766c-0.27588-0.02393-1.12744-0.02393-1.45117-0.02393
				c-0.35986,0-1.01904,0-1.35498,0.02393v-0.34766c0.7793,0,0.91113,0,0.91113-0.54004v-3.25
				c0-0.58789-0.0957-0.67188-0.91113-0.67188v-0.34766l1.60693-0.13184v1.33105h0.01221
				c0.07178-0.22754,0.41943-1.33105,1.43896-1.33105c0.51563,0,0.83984,0.33594,0.83984,0.6958
				C109.6665,35.17261,109.42627,35.32837,109.18652,35.32837z"/>
			<path class="st1" d="M112.76318,39.56226c-0.63525,0-1.52295-0.27588-1.52295-1.60742v-3.33398h-1.01953V34.3811
				c1.09131-0.03613,1.52344-1.1875,1.53516-2.31494h0.26367v2.20703h1.69141v0.34766h-1.69141v3.35791
				c0,0.2041,0,1.31934,0.81592,1.31934c0.46777,0,0.81543-0.50342,0.81543-1.36719v-0.65967h0.26367v0.68359
				C113.91455,38.8186,113.51904,39.56226,112.76318,39.56226z"/>
		</g>
		<g>
			<path class="st1" d="M75.44873,51.0813c-0.33594,0-0.9834,0-1.29541,0.02393v-0.34766c0.77979,0,0.91162,0,0.91162-0.54004
				v-2.81836c0-0.73145-0.16797-1.34326-0.91162-1.34326s-1.57129,0.67188-1.57129,1.93115v2.23047
				c0,0.54004,0.14404,0.54004,0.91162,0.54004v0.34766c-0.31201-0.02393-0.95947-0.02393-1.30713-0.02393
				c-0.33594,0-0.9834,0-1.29541,0.02393v-0.34766c0.77979,0,0.91162,0,0.91162-0.54004v-3.25
				c0-0.58789-0.09619-0.67188-0.91162-0.67188V45.948l1.63086-0.13184v1.23535h0.01221
				c0.09619-0.23975,0.55176-1.23535,1.71533-1.23535c0.40771,0,0.97119,0.07178,1.31885,0.53955
				c0.27588,0.38379,0.27588,0.71973,0.27588,1.83496v2.20703c0.01221,0.35986,0.31201,0.35986,0.91162,0.35986v0.34766
				C76.44385,51.0813,75.79639,51.0813,75.44873,51.0813z"/>
			<path class="st1" d="M79.94971,51.22534c-1.33154,0-2.55469-1.16357-2.55469-2.74658c0-1.4873,1.05518-2.72266,2.42285-2.72266
				c1.45117,0,2.09863,1.12744,2.09863,2.33887c0,0.22803-0.02393,0.22803-0.28809,0.22803h-3.32178v0.22754
				c0,2.0752,1.21094,2.41064,1.71484,2.41064s1.30713-0.27588,1.61914-1.2832c0.02393-0.06006,0.04785-0.12012,0.14404-0.12012
				c0.07178,0,0.13184,0.04834,0.13184,0.12012C81.9165,49.92993,81.37695,51.22534,79.94971,51.22534z M79.80566,45.99585
				c-0.33594,0-1.39111,0.21582-1.4873,2.09912h2.85449C81.16064,47.68726,81.08887,45.99585,79.80566,45.99585z"/>
			<path class="st1" d="M85.01367,51.22534c-0.63525,0-1.52295-0.27588-1.52295-1.60742v-3.33398h-1.01953v-0.23975
				c1.09131-0.03613,1.52344-1.1875,1.53516-2.31494h0.26367v2.20703h1.69141v0.34766h-1.69141v3.35791
				c0,0.2041,0,1.31934,0.81592,1.31934c0.46777,0,0.81543-0.50342,0.81543-1.36719v-0.65967h0.26367v0.68359
				C86.16504,50.48169,85.76953,51.22534,85.01367,51.22534z"/>
			<path class="st1" d="M93.75928,47.07544l-1.37891,3.93408c-0.04834,0.13184-0.08398,0.21582-0.21582,0.21582
				c-0.1084,0-0.16797-0.03613-0.22803-0.22803l-1.19922-3.41797l-1.19971,3.41797
				c-0.05957,0.19189-0.11963,0.22803-0.22754,0.22803c-0.13232,0-0.16797-0.08398-0.21582-0.21582l-1.51123-4.29395
				c-0.13232-0.38379-0.25195-0.43164-0.86377-0.43164v-0.34766l1.11523,0.02393c0.32422,0,0.92383,0,1.22363-0.02393v0.34766
				c-0.22803,0-0.6958,0-0.6958,0.32373c0,0.04785,0,0.07178,0.06006,0.22803l1.15137,3.26221l1.01953-2.92627
				c-0.08398-0.24023-0.22803-0.63574-0.28809-0.70801c-0.13184-0.15576-0.2876-0.17969-0.74365-0.17969v-0.34766l1.07959,0.02393
				c0.34766,0,0.83936,0,1.17529-0.02393v0.34766c-0.25195,0-0.69531,0-0.69531,0.33594c0,0.03564,0,0.05957,0.05957,0.20361
				l1.19971,3.39404l1.10303-3.14209c0.04834-0.12012,0.04834-0.21582,0.04834-0.21582c0-0.22803-0.14404-0.55176-0.68359-0.57568
				v-0.34766l1.01904,0.02393c0.37207,0,0.58789,0,0.8877-0.02393v0.34766C94.55078,46.29565,94.02344,46.32007,93.75928,47.07544z"
				/>
			<path class="st1" d="M97.58936,51.22534c-1.36719,0-2.56641-1.15137-2.56641-2.68652c0-1.51123,1.13916-2.78271,2.57861-2.78271
				c1.39111,0,2.56641,1.23535,2.56641,2.78271C100.16797,50.04956,99.00488,51.22534,97.58936,51.22534z M98.88477,46.67944
				c-0.32373-0.46777-0.82764-0.68359-1.29541-0.68359c-0.41943,0-0.94727,0.19189-1.2832,0.70801
				c-0.37158,0.53955-0.37158,1.271-0.37158,1.72705c0,0.50342,0.01172,1.21094,0.33545,1.75098
				c0.34814,0.5874,0.8877,0.7793,1.33154,0.7793c0.45557,0,1.00732-0.22754,1.34326-0.80322
				c0.31152-0.56396,0.31152-1.30762,0.31152-1.72705C99.25635,47.98706,99.25635,47.2312,98.88477,46.67944z"/>
			<path class="st1" d="M104.29688,46.99146c-0.19189,0-0.46777-0.13184-0.46777-0.47949c0-0.32422,0.19189-0.396,0.28809-0.44385
				c-0.04834-0.01221-0.07227-0.01221-0.16797-0.01221c-0.92383,0-1.40332,1.09131-1.40332,2.25488v1.88281
				c0,0.43213,0.02393,0.56396,0.89941,0.56396h0.23975v0.34766c-0.27588-0.02393-1.12695-0.02393-1.45117-0.02393
				c-0.35986,0-1.01953,0-1.35498,0.02393v-0.34766c0.7793,0,0.91162,0,0.91162-0.54004v-3.25
				c0-0.58789-0.09619-0.67188-0.91162-0.67188V45.948l1.60693-0.13184v1.33105h0.01221
				c0.07178-0.22754,0.41943-1.33105,1.43896-1.33105c0.51563,0,0.83984,0.33594,0.83984,0.6958
				C104.77686,46.83569,104.53662,46.99146,104.29688,46.99146z"/>
			<path class="st1" d="M110.05615,51.0813c-0.32373,0-0.91162,0-1.21143,0.02393v-0.34766
				c0.25195,0,0.41992-0.06006,0.41992-0.27588c0-0.16797-0.08398-0.2998-0.26416-0.55176l-1.15137-1.65527l-0.76758,0.67188v1.271
				c0,0.54004,0.14404,0.54004,0.91162,0.54004v0.34766c-0.33594-0.02393-0.91162-0.02393-1.27148-0.02393s-0.93506,0-1.271,0.02393
				v-0.34766c0.7793,0,0.91113,0,0.91113-0.54004v-6.28418c0-0.58789-0.0957-0.67188-0.91113-0.67188v-0.34766l1.66699-0.13184
				v5.78076l1.71484-1.51123c0,0,0.25195-0.21582,0.25195-0.45605c0-0.19141-0.14404-0.2998-0.34766-0.31152v-0.34766
				c0.27588,0.02393,0.8877,0.02393,1.19922,0.02393c0.35986,0,0.67188,0,0.91162-0.02393v0.34766
				c-0.25195,0.01172-0.77979,0.02393-1.60693,0.74365c-0.09619,0.0957-0.85156,0.74365-0.85156,0.7793l0.08398,0.12012
				l1.60693,2.33887c0.33594,0.4917,0.70752,0.4917,1.03125,0.4917v0.34766C110.5957,51.0813,110.57178,51.0813,110.05615,51.0813z"
				/>
		</g>
	</g>
	<g>
		<path id="path1132_1_" class="st2" d="M143.29199,23.76807h14"/>
		<circle class="st2" cx="160.29199" cy="23.76807" r="3"/>
	</g>
	<g>
		<path id="path1132_2_" class="st2" d="M143.29199,58.76807h14"/>
		<circle class="st2" cx="160.29199" cy="58.76807" r="3"/>
	</g>
	<g>
		<path id="path1132_3_" class="st2" d="M33.29199,23.76807h-14"/>
		<circle class="st2" cx="16.29199" cy="23.76807" r="3"/>
	</g>
	<g>
		<path id="path1132_4_" class="st2" d="M33.29199,58.76807h-14"/>
		<circle class="st2" cx="16.29199" cy="58.76807" r="3"/>
	</g>
</g>
<g id="Layer_2">
	<line class="st2" x1="33.29199" y1="23.76807" x2="63.29199" y2="23.76807"/>
	<line class="st2" x1="33.29199" y1="58.76807" x2="63.29199" y2="58.76807"/>
	<line class="st2" x1="143.29199" y1="23.76807" x2="118.29199" y2="23.76807"/>
	<line class="st2" x1="143.29199" y1="58.76807" x2="118.29199" y2="58.76807"/>
	<g>
		<line class="st3" x1="2.79199" y1="23.76807" x2="7.79199" y2="23.76807"/>
		<line class="st3" x1="5.29199" y1="26.26807" x2="5.29199" y2="21.26807"/>
	</g>
	<line class="st3" x1="168.79199" y1="24.04914" x2="173.79199" y2="24.04914"/>
	<line class="st3" x1="171.29199" y1="26.54914" x2="171.29199" y2="21.54914"/>
	<line class="st3" x1="2.79199" y1="58.76807" x2="7.79199" y2="58.76807"/>
	<line class="st3" x1="168.79199" y1="58.76807" x2="173.79199" y2="58.76807"/>
	<polyline class="st4" points="33.29199,20.26807 47.29199,20.26807 44.29199,17.26807 	"/>
	<polyline class="st4" points="47.29199,62.26807 33.29199,62.26807 36.29199,65.26807 	"/>
	<polyline class="st4" points="147.29199,20.26807 133.29199,20.26807 136.29199,17.26807 	"/>
	<polyline class="st4" points="133.29199,62.26807 147.29199,62.26807 144.29199,65.26807 	"/>
	<g>
		<path class="st1" d="M38.57715,10.08008c-0.55176,0-1.72754,0-2.21875,0.03613V9.55273h1.36719v-7.1001H36.3584V1.88867
			c0.49121,0.03613,1.66699,0.03613,2.21875,0.03613c0.55078,0,1.72656,0,2.21875-0.03613v0.56396h-1.36719v7.1001h1.36719v0.56348
			C40.30371,10.08008,39.12793,10.08008,38.57715,10.08008z"/>
		<path class="st1" d="M42.96875,14.09814c-0.23047,0-0.9082,0-1.09668,0.01416v-0.20264h0.2168
			c0.61426,0,0.63574-0.08398,0.63574-0.33545V9.93311c-0.38477,0.18164-0.7334,0.18164-0.89453,0.18164V9.91211
			c0.71973,0,1.06934-0.2583,1.2373-0.44727c0.13965,0,0.13965,0.00732,0.13965,0.16797v3.94141
			c0,0.25146,0.02051,0.33545,0.63574,0.33545h0.2168v0.20264C43.87109,14.09814,43.2002,14.09814,42.96875,14.09814z"/>
	</g>
	<g>
		<path class="st1" d="M138.57715,10.08008c-0.55176,0-1.72754,0-2.21875,0.03613V9.55273h1.36719v-7.1001h-1.36719V1.88867
			c0.49121,0.03613,1.66699,0.03613,2.21875,0.03613c0.55078,0,1.72656,0,2.21875-0.03613v0.56396h-1.36719v7.1001h1.36719v0.56348
			C140.30371,10.08008,139.12793,10.08008,138.57715,10.08008z"/>
		<path class="st1" d="M144.08691,14.1123h-2.55078v-0.16748l1.41211-1.57959c0.39844-0.44727,0.74121-0.96436,0.74121-1.55859
			c0-0.64307-0.36426-1.13916-0.95801-1.13916c-0.4541,0-0.83105,0.32178-0.96387,0.79688
			c0.02051-0.00684,0.03418-0.00684,0.09766-0.00684c0.19531,0,0.32813,0.13281,0.32813,0.32813
			c0,0.22363-0.18164,0.32861-0.32813,0.32861c-0.02148,0-0.3291,0-0.3291-0.35645c0-0.60107,0.47559-1.29297,1.28613-1.29297
			s1.44629,0.53809,1.44629,1.3418c0,0.69189-0.39063,1.05518-1.45313,2.03369c-0.18164,0.16797-0.6084,0.61523-0.79688,0.77588
			h1.29297c0.20996,0,0.6084,0,0.65723-0.06299c0.06934-0.11182,0.12598-0.49609,0.14648-0.61523h0.15332L144.08691,14.1123z"/>
	</g>
	<g>
		<path class="st1" d="M9.87061,36.45264c-0.87549,0-0.92334,0.10791-0.99561,0.26367l-3.18994,7.20801
			C5.55273,44.2124,5.39697,44.2124,5.20508,44.2124c-0.33594,0-0.38379-0.09619-0.47949-0.31201l-3.31055-7.44775H0.31201v-0.56396
			c0.41943,0.03613,1.42725,0.03613,1.89502,0.03613c0.51563,0,1.66699,0,2.12256-0.03613v0.56396H3.20215l2.55469,5.74463
			l2.42285-5.45703c0.01172-0.03613,0.04785-0.0957,0.04785-0.14404c0-0.14355-0.94775-0.14355-1.05566-0.14355v-0.56396
			c0.46777,0.03613,1.0918,0.03613,1.57129,0.03613l1.35547-0.03613v0.56396H9.87061z"/>
		<path class="st1" d="M11.00293,48.09814c-0.23047,0-0.9082,0-1.09717,0.01416v-0.20264h0.2168
			c0.61475,0,0.63574-0.08398,0.63574-0.33545v-3.64111c-0.38428,0.18164-0.7334,0.18164-0.89453,0.18164v-0.20264
			c0.72021,0,1.06934-0.2583,1.2373-0.44727c0.13965,0,0.13965,0.00732,0.13965,0.16797v3.94141
			c0,0.25146,0.021,0.33545,0.63574,0.33545h0.2168v0.20264C11.90479,48.09814,11.23389,48.09814,11.00293,48.09814z"/>
	</g>
	<g>
		<path class="st1" d="M175.87012,36.45264c-0.875,0-0.92285,0.10791-0.99512,0.26367l-3.19043,7.20801
			c-0.13184,0.28809-0.28711,0.28809-0.47949,0.28809c-0.33594,0-0.38379-0.09619-0.47949-0.31201l-3.31055-7.44775h-1.10352
			v-0.56396c0.41992,0.03613,1.42773,0.03613,1.89551,0.03613c0.51563,0,1.66699,0,2.12207-0.03613v0.56396h-1.12695
			l2.55469,5.74463l2.42285-5.45703c0.01172-0.03613,0.04785-0.0957,0.04785-0.14404c0-0.14355-0.94727-0.14355-1.05566-0.14355
			v-0.56396c0.46777,0.03613,1.0918,0.03613,1.57129,0.03613l1.35547-0.03613v0.56396H175.87012z"/>
		<path class="st1" d="M178.12109,48.1123h-2.55078v-0.16748l1.41113-1.57959c0.39844-0.44727,0.74219-0.96436,0.74219-1.55859
			c0-0.64307-0.36426-1.13916-0.95801-1.13916c-0.4541,0-0.83105,0.32178-0.96387,0.79688
			c0.02051-0.00684,0.03418-0.00684,0.09766-0.00684c0.19531,0,0.32813,0.13281,0.32813,0.32813
			c0,0.22363-0.18164,0.32861-0.32813,0.32861c-0.02148,0-0.3291,0-0.3291-0.35645c0-0.60107,0.47559-1.29297,1.28613-1.29297
			s1.44629,0.53809,1.44629,1.3418c0,0.69189-0.3916,1.05518-1.45313,2.03369c-0.18262,0.16797-0.6084,0.61523-0.79688,0.77588
			h1.29297c0.20996,0,0.6084,0,0.65723-0.06299c0.06934-0.11182,0.125-0.49609,0.14648-0.61523h0.15332L178.12109,48.1123z"/>
	</g>
	<g>
		<path class="st1" d="M38.57715,77.08008c-0.55176,0-1.72754,0-2.21875,0.03613v-0.56348h1.36719v-7.1001H36.3584v-0.56396
			c0.49121,0.03613,1.66699,0.03613,2.21875,0.03613c0.55078,0,1.72656,0,2.21875-0.03613v0.56396h-1.36719v7.1001h1.36719v0.56348
			C40.30371,77.08008,39.12793,77.08008,38.57715,77.08008z"/>
		<path class="st1" d="M42.96875,81.09814c-0.23047,0-0.9082,0-1.09668,0.01416v-0.20264h0.2168
			c0.61426,0,0.63574-0.08398,0.63574-0.33545v-3.64111c-0.38477,0.18164-0.7334,0.18164-0.89453,0.18164v-0.20264
			c0.71973,0,1.06934-0.2583,1.2373-0.44727c0.13965,0,0.13965,0.00732,0.13965,0.16797v3.94141
			c0,0.25146,0.02051,0.33545,0.63574,0.33545h0.2168v0.20264C43.87109,81.09814,43.2002,81.09814,42.96875,81.09814z"/>
	</g>
	<g>
		<path class="st1" d="M138.57715,77.08008c-0.55176,0-1.72754,0-2.21875,0.03613v-0.56348h1.36719v-7.1001h-1.36719v-0.56396
			c0.49121,0.03613,1.66699,0.03613,2.21875,0.03613c0.55078,0,1.72656,0,2.21875-0.03613v0.56396h-1.36719v7.1001h1.36719v0.56348
			C140.30371,77.08008,139.12793,77.08008,138.57715,77.08008z"/>
		<path class="st1" d="M144.08691,81.1123h-2.55078v-0.16748l1.41211-1.57959c0.39844-0.44727,0.74121-0.96436,0.74121-1.55859
			c0-0.64307-0.36426-1.13916-0.95801-1.13916c-0.4541,0-0.83105,0.32178-0.96387,0.79688
			c0.02051-0.00684,0.03418-0.00684,0.09766-0.00684c0.19531,0,0.32813,0.13281,0.32813,0.32813
			c0,0.22363-0.18164,0.32861-0.32813,0.32861c-0.02148,0-0.3291,0-0.3291-0.35645c0-0.60107,0.47559-1.29297,1.28613-1.29297
			s1.44629,0.53809,1.44629,1.3418c0,0.69189-0.39063,1.05518-1.45313,2.03369c-0.18164,0.16797-0.6084,0.61523-0.79688,0.77588
			h1.29297c0.20996,0,0.6084,0,0.65723-0.06299c0.06934-0.11182,0.12598-0.49609,0.14648-0.61523h0.15332L144.08691,81.1123z"/>
	</g>
	<g>
	</g>
	<g>
	</g>
	<g>
	</g>
	<g>
	</g>
	<g>
	</g>
	<g>
	</g>
	<g>
	</g>
	<g>
	</g>
	<g>
	</g>
	<g>
	</g>
	<g>
	</g>
</g>
</svg>
