<?xml version="1.0" encoding="utf-8"?>
<!-- Generator: Adobe Illustrator 23.0.3, SVG Export Plug-In . SVG Version: 6.00 Build 0)  -->
<svg version="1.1" xmlns="http://www.w3.org/2000/svg" xmlns:xlink="http://www.w3.org/1999/xlink" x="0px" y="0px"
	 viewBox="0 0 152.65576 179.646" style="enable-background:new 0 0 152.65576 179.646;" xml:space="preserve">
<style type="text/css">
	.st0{fill:none;stroke:#8FF4DD;stroke-width:2;stroke-linecap:round;stroke-linejoin:round;stroke-miterlimit:10;}
	.st1{fill:#8FF4DD;}
	.st2{fill:none;stroke:#8FF4DD;stroke-width:2;stroke-linecap:round;stroke-linejoin:round;}
	.st3{fill:none;stroke:#8FF4DD;stroke-width:2;stroke-linecap:square;}
	.st4{fill:none;stroke:#8FF4DD;stroke-width:1.5;stroke-linecap:square;}
</style>
<g id="Layer_1">
	<rect x="54.03809" y="13.76416" class="st0" width="50" height="50"/>
	<g>
		<path class="st1" d="M84.43652,45.43848c-0.67188,0-1.38574-0.04199-2.07861-0.04199c-0.71387,0-1.46973,0.04199-2.1626,0.04199
			c-0.08398,0-0.29395,0-0.29395-0.20996c0-0.39893,0.18896-0.39893,0.48291-0.39893c1.30176-0.021,1.25977-0.58789,1.23877-0.92383
			l-0.23096-3.38037H76.521l-1.53271,2.7085c-0.18896,0.33594-0.35693,0.60889-0.35693,0.90283
			c0,0.39893,0.29395,0.65088,0.79785,0.69287c0.12598,0,0.29395,0.021,0.29395,0.20996c0,0.39893-0.23096,0.39893-0.37793,0.39893
			c-0.5459,0-1.15479-0.04199-1.72168-0.04199c-0.5249,0-1.0918,0.04199-1.5957,0.04199c0,0-0.25195,0-0.25195-0.20996
			c0-0.35693,0.16797-0.37793,0.39893-0.39893c1.0498-0.10498,1.6377-0.58789,2.28857-1.74268l6.9917-12.26172
			c0.14697-0.25195,0.20996-0.37793,0.50391-0.37793s0.31494,0.06299,0.33594,0.50391l0.92383,13.18555
			c0.04199,0.5459,0.14697,0.69287,1.17578,0.69287c0.27295,0,0.41992,0,0.41992,0.23096
			C84.81445,45.43848,84.5625,45.43848,84.43652,45.43848z M80.86719,32.9248l-3.98926,6.9917h4.47217L80.86719,32.9248z"/>
	</g>
	<rect x="54.03809" y="113.76416" class="st0" width="50" height="50"/>
	<g>
		<path class="st1" d="M79.2085,145.43848h-6.65576c-0.33594,0-0.50391,0-0.50391-0.20996
			c0-0.39893,0.18896-0.39893,0.56689-0.39893c1.28076,0,1.40674-0.16797,1.5957-0.90283l2.87646-11.56885
			c0.04199-0.12598,0.04199-0.18896,0.04199-0.31494c0-0.33594-0.58789-0.33594-1.11279-0.33594c-0.39893,0-0.5459,0-0.5459-0.20996
			c0-0.39893,0.18896-0.39893,0.56689-0.39893h6.23584c2.28857,0,3.44336,1.36475,3.44336,2.83447
			c0,1.84766-1.84766,3.56934-4.09424,4.01025c1.6377,0.20996,2.87646,1.23877,2.87646,2.87646
			C84.49951,143.04492,82.08496,145.43848,79.2085,145.43848z M80.67822,138.19482h-3.59033l-1.46973,5.96289
			c-0.08398,0.29395-0.08398,0.33594-0.08398,0.41992c0,0.23096,0.021,0.25195,0.62988,0.25195h2.58252
			c2.22559,0,4.03125-2.05762,4.03125-4.26221C82.77783,139.49658,82.31592,138.19482,80.67822,138.19482z M82.00098,131.70703
			h-2.45654c-0.69287,0-0.83984,0-1.02881,0.79785l-1.30176,5.27002h2.75049c2.39355,0,4.05225-2.12061,4.05225-3.94727
			C84.0166,132.9458,83.65967,131.70703,82.00098,131.70703z"/>
	</g>
	<g>
		<path id="path1132_5_" class="st2" d="M23.33008,23.76807h-14"/>
		<circle class="st2" cx="6.33008" cy="23.76807" r="3"/>
	</g>
	<line class="st2" x1="23.33008" y1="23.76807" x2="53.33008" y2="23.76807"/>
	<polyline class="st3" points="23.33008,20.26807 37.33008,20.26807 34.33008,17.26807 	"/>
	<g>
		<path class="st1" d="M28.61523,10.08008c-0.55176,0-1.72754,0-2.21875,0.03613V9.55273h1.36719v-7.1001h-1.36719V1.88867
			C26.8877,1.9248,28.06348,1.9248,28.61523,1.9248c0.55078,0,1.72656,0,2.21875-0.03613v0.56396H29.4668v7.1001h1.36719v0.56348
			C30.3418,10.08008,29.16602,10.08008,28.61523,10.08008z"/>
		<path class="st1" d="M33.00684,14.09814c-0.23047,0-0.9082,0-1.09668,0.01416v-0.20264h0.2168
			c0.61426,0,0.63574-0.08398,0.63574-0.33545V9.93311c-0.38477,0.18164-0.7334,0.18164-0.89453,0.18164V9.91211
			c0.71973,0,1.06934-0.2583,1.2373-0.44727c0.13965,0,0.13965,0.00732,0.13965,0.16797v3.94141
			c0,0.25146,0.02051,0.33545,0.63574,0.33545h0.2168v0.20264C33.90918,14.09814,33.23828,14.09814,33.00684,14.09814z"/>
	</g>
	<g>
		<path id="path1132_6_" class="st2" d="M23.33008,153.76202h-14"/>
		<circle class="st2" cx="6.33008" cy="153.76202" r="3"/>
	</g>
	<line class="st2" x1="23.33008" y1="153.76202" x2="53.33008" y2="153.76202"/>
	<polyline class="st3" points="37.33008,157.26202 23.33008,157.26202 26.33008,160.26202 	"/>
	<g>
		<path class="st1" d="M28.61523,172.07373c-0.55176,0-1.72754,0-2.21875,0.03613v-0.56348h1.36719v-7.09961h-1.36719v-0.56396
			c0.49121,0.03613,1.66699,0.03613,2.21875,0.03613c0.55078,0,1.72656,0,2.21875-0.03613v0.56396H29.4668v7.09961h1.36719v0.56348
			C30.3418,172.07373,29.16602,172.07373,28.61523,172.07373z"/>
		<path class="st1" d="M33.00684,176.09229c-0.23047,0-0.9082,0-1.09668,0.01367v-0.20215h0.2168
			c0.61426,0,0.63574-0.08398,0.63574-0.33594v-3.64063c-0.38477,0.18164-0.7334,0.18164-0.89453,0.18164v-0.20313
			c0.71973,0,1.06934-0.25781,1.2373-0.44727c0.13965,0,0.13965,0.00781,0.13965,0.16797v3.94141
			c0,0.25195,0.02051,0.33594,0.63574,0.33594h0.2168v0.20215C33.90918,176.09229,33.23828,176.09229,33.00684,176.09229z"/>
	</g>
	<g>
		<line class="st4" x1="2.7922" y1="75.53223" x2="7.7922" y2="75.53223"/>
		<line class="st4" x1="5.2922" y1="78.03223" x2="5.2922" y2="73.03223"/>
	</g>
	<line class="st4" x1="2.7922" y1="110.53223" x2="7.7922" y2="110.53223"/>
	<g>
		<path class="st1" d="M9.87061,88.2168c-0.87549,0-0.92334,0.10791-0.99561,0.26367l-3.18994,7.20801
			c-0.13232,0.28809-0.28809,0.28809-0.47998,0.28809c-0.33594,0-0.38379-0.09619-0.47949-0.31201L1.41504,88.2168H0.31201v-0.56396
			c0.41943,0.03613,1.42725,0.03613,1.89502,0.03613c0.51563,0,1.66699,0,2.12256-0.03613v0.56396H3.20215l2.55469,5.74463
			l2.42285-5.45703c0.01172-0.03613,0.04785-0.0957,0.04785-0.14404c0-0.14355-0.94775-0.14355-1.05566-0.14355v-0.56396
			c0.46777,0.03613,1.0918,0.03613,1.57129,0.03613l1.35547-0.03613v0.56396H9.87061z"/>
		<path class="st1" d="M11.00293,99.8623c-0.23047,0-0.9082,0-1.09717,0.01416v-0.20264h0.2168
			c0.61475,0,0.63574-0.08398,0.63574-0.33545v-3.64111c-0.38428,0.18164-0.7334,0.18164-0.89453,0.18164v-0.20264
			c0.72021,0,1.06934-0.2583,1.2373-0.44727c0.13965,0,0.13965,0.00732,0.13965,0.16797v3.94141
			c0,0.25146,0.021,0.33545,0.63574,0.33545h0.2168v0.20264C11.90479,99.8623,11.23389,99.8623,11.00293,99.8623z"/>
	</g>
	<g>
		<path id="path1132_7_" class="st2" d="M129.33008,23.76819h14"/>
		<circle class="st2" cx="146.33008" cy="23.76819" r="3"/>
	</g>
	<line class="st2" x1="129.33008" y1="23.76819" x2="104.33008" y2="23.76819"/>
	<polyline class="st3" points="133.33008,20.26819 119.33008,20.26819 122.33008,17.26819 	"/>
	<g>
		<path class="st1" d="M124.61523,10.08008c-0.55176,0-1.72754,0-2.21875,0.03613V9.55273h1.36719v-7.1001h-1.36719V1.88867
			c0.49121,0.03613,1.66699,0.03613,2.21875,0.03613c0.55078,0,1.72656,0,2.21875-0.03613v0.56396h-1.36719v7.1001h1.36719v0.56348
			C126.3418,10.08008,125.16602,10.08008,124.61523,10.08008z"/>
		<path class="st1" d="M130.125,14.1123h-2.55078v-0.16748l1.41211-1.57959c0.39844-0.44727,0.74121-0.96436,0.74121-1.55859
			c0-0.64307-0.36426-1.13916-0.95801-1.13916c-0.4541,0-0.83105,0.32178-0.96387,0.79688
			c0.02051-0.00684,0.03418-0.00684,0.09766-0.00684c0.19531,0,0.32813,0.13281,0.32813,0.32813
			c0,0.22363-0.18164,0.32861-0.32813,0.32861c-0.02148,0-0.3291,0-0.3291-0.35645c0-0.60107,0.47559-1.29297,1.28613-1.29297
			s1.44629,0.53809,1.44629,1.3418c0,0.69189-0.39063,1.05518-1.45313,2.03369c-0.18164,0.16797-0.6084,0.61523-0.79688,0.77588
			h1.29297c0.20996,0,0.6084,0,0.65723-0.06299c0.06934-0.11182,0.12598-0.49609,0.14648-0.61523h0.15332L130.125,14.1123z"/>
	</g>
	<g>
		<path id="path1132_8_" class="st2" d="M129.33008,153.76219h14"/>
		<circle class="st2" cx="146.33008" cy="153.76219" r="3"/>
	</g>
	<line class="st2" x1="129.33008" y1="153.76219" x2="104.33008" y2="153.76219"/>
	<polyline class="st3" points="119.33008,157.26219 133.33008,157.26219 130.33008,160.26219 	"/>
	<g>
		<path class="st1" d="M124.61523,172.07373c-0.55176,0-1.72754,0-2.21875,0.03613v-0.56348h1.36719v-7.09961h-1.36719v-0.56396
			c0.49121,0.03613,1.66699,0.03613,2.21875,0.03613c0.55078,0,1.72656,0,2.21875-0.03613v0.56396h-1.36719v7.09961h1.36719v0.56348
			C126.3418,172.07373,125.16602,172.07373,124.61523,172.07373z"/>
		<path class="st1" d="M130.125,176.10596h-2.55078v-0.16699l1.41211-1.58008c0.39844-0.44727,0.74121-0.96387,0.74121-1.55859
			c0-0.64258-0.36426-1.13867-0.95801-1.13867c-0.4541,0-0.83105,0.32129-0.96387,0.79688
			c0.02051-0.00684,0.03418-0.00684,0.09766-0.00684c0.19531,0,0.32813,0.13281,0.32813,0.32813
			c0,0.22363-0.18164,0.32813-0.32813,0.32813c-0.02148,0-0.3291,0-0.3291-0.35645c0-0.60059,0.47559-1.29297,1.28613-1.29297
			s1.44629,0.53809,1.44629,1.3418c0,0.69238-0.39063,1.05566-1.45313,2.03418c-0.18164,0.16797-0.6084,0.61523-0.79688,0.77539
			h1.29297c0.20996,0,0.6084,0,0.65723-0.0625c0.06934-0.1123,0.12598-0.49609,0.14648-0.61523h0.15332L130.125,176.10596z"/>
	</g>
	<line class="st4" x1="142.79219" y1="75.6727" x2="147.79219" y2="75.6727"/>
	<line class="st4" x1="145.29219" y1="78.1727" x2="145.29219" y2="73.1727"/>
	<line class="st4" x1="142.79219" y1="110.39162" x2="147.79219" y2="110.39162"/>
	<g>
		<path class="st1" d="M149.87061,88.07617c-0.87549,0-0.92334,0.10791-0.99561,0.26367l-3.18994,7.20801
			c-0.13232,0.28809-0.28809,0.28809-0.47998,0.28809c-0.33594,0-0.38379-0.09619-0.47949-0.31201l-3.31055-7.44775h-1.10303
			v-0.56396c0.41943,0.03613,1.42725,0.03613,1.89502,0.03613c0.51563,0,1.66699,0,2.12256-0.03613v0.56396h-1.12744
			l2.55469,5.74463l2.42285-5.45703c0.01172-0.03613,0.04785-0.0957,0.04785-0.14404c0-0.14355-0.94775-0.14355-1.05566-0.14355
			v-0.56396c0.46777,0.03613,1.0918,0.03613,1.57129,0.03613l1.35547-0.03613v0.56396H149.87061z"/>
		<path class="st1" d="M152.12109,99.73584h-2.55078v-0.16748l1.41162-1.57959c0.39844-0.44727,0.74121-0.96436,0.74121-1.55859
			c0-0.64307-0.36377-1.13916-0.95752-1.13916c-0.45459,0-0.83154,0.32178-0.96436,0.79688
			c0.021-0.00684,0.03467-0.00684,0.09766-0.00684c0.1958,0,0.32861,0.13281,0.32861,0.32813
			c0,0.22363-0.18164,0.32861-0.32861,0.32861c-0.021,0-0.32861,0-0.32861-0.35645c0-0.60107,0.47559-1.29297,1.28613-1.29297
			s1.44629,0.53809,1.44629,1.3418c0,0.69189-0.39111,1.05518-1.45313,2.03369c-0.18213,0.16797-0.6084,0.61523-0.79688,0.77588
			h1.29297c0.20947,0,0.60791,0,0.65674-0.06299c0.06982-0.11182,0.12598-0.49609,0.14697-0.61523h0.15332L152.12109,99.73584z"/>
	</g>
	<polyline class="st3" points="34.03809,81.76416 34.03809,95.76416 31.03809,92.76416 	"/>
	<polyline class="st3" points="124.03809,81.76416 124.03809,95.76416 127.03809,92.76416 	"/>
	<g>
		<path class="st1" d="M44.87061,32.2168c-0.87549,0-0.92334,0.10791-0.99561,0.26367l-3.18994,7.20801
			c-0.13232,0.28809-0.28809,0.28809-0.47998,0.28809c-0.33594,0-0.38379-0.09619-0.47949-0.31201l-3.31055-7.44775h-1.10303
			v-0.56396c0.41943,0.03613,1.42725,0.03613,1.89502,0.03613c0.51563,0,1.66699,0,2.12256-0.03613v0.56396h-1.12744
			l2.55469,5.74463l2.42285-5.45703c0.01172-0.03613,0.04785-0.0957,0.04785-0.14404c0-0.14355-0.94775-0.14355-1.05566-0.14355
			v-0.56396c0.46777,0.03613,1.0918,0.03613,1.57129,0.03613l1.35547-0.03613v0.56396H44.87061z"/>
		<path class="st1" d="M46.00293,43.8623c-0.23047,0-0.9082,0-1.09717,0.01416v-0.20264h0.2168
			c0.61475,0,0.63574-0.08398,0.63574-0.33545v-3.64111c-0.38428,0.18164-0.7334,0.18164-0.89453,0.18164v-0.20264
			c0.72021,0,1.06934-0.2583,1.2373-0.44727c0.13965,0,0.13965,0.00732,0.13965,0.16797v3.94141
			c0,0.25146,0.021,0.33545,0.63574,0.33545h0.2168v0.20264C46.90479,43.8623,46.23389,43.8623,46.00293,43.8623z"/>
		<path class="st1" d="M50.41602,43.91162c-0.30029,0-0.51709-0.25195-0.54492-0.58008
			c-0.13281,0.33545-0.44727,0.61475-0.90869,0.61475c-0.42627,0-1.06885-0.1748-1.06885-0.72656
			c0-0.53809,0.53076-1.12549,1.93555-1.14648v-0.2793c0-0.62891-0.41211-0.89453-0.73389-0.89453
			c-0.2793,0-0.61475,0.12598-0.77539,0.41943c0.10449,0,0.35645,0,0.35645,0.28613c0,0.16797-0.11914,0.28662-0.28662,0.28662
			c-0.16064,0-0.29346-0.09766-0.29346-0.30029c0-0.45459,0.43994-0.83154,1.01318-0.83154
			c0.30762,0,0.62207,0.09766,0.8667,0.32129c0.30713,0.27246,0.30713,0.55225,0.30713,0.92969v1.22266
			c0,0.10498,0,0.47559,0.26563,0.47559c0.09814,0,0.26563-0.05615,0.26563-0.45459v-0.39111h0.15381v0.39111
			C50.96826,43.81348,50.56299,43.91162,50.41602,43.91162z M49.8291,42.19922c-0.25146,0.01416-1.43945,0.09766-1.43945,1.02051
			c0,0.33545,0.28662,0.58691,0.62891,0.58691c0.30029,0,0.81055-0.23047,0.81055-0.91553V42.19922z"/>
	</g>
	<g>
		<path class="st1" d="M44.87061,133.2168c-0.87549,0-0.92334,0.10791-0.99561,0.26367l-3.18994,7.20801
			c-0.13232,0.28809-0.28809,0.28809-0.47998,0.28809c-0.33594,0-0.38379-0.09619-0.47949-0.31201l-3.31055-7.44775h-1.10303
			v-0.56396c0.41943,0.03613,1.42725,0.03613,1.89502,0.03613c0.51563,0,1.66699,0,2.12256-0.03613v0.56396h-1.12744
			l2.55469,5.74463l2.42285-5.45703c0.01172-0.03613,0.04785-0.0957,0.04785-0.14404c0-0.14355-0.94775-0.14355-1.05566-0.14355
			v-0.56396c0.46777,0.03613,1.0918,0.03613,1.57129,0.03613l1.35547-0.03613v0.56396H44.87061z"/>
		<path class="st1" d="M46.00293,144.8623c-0.23047,0-0.9082,0-1.09717,0.01416v-0.20264h0.2168
			c0.61475,0,0.63574-0.08398,0.63574-0.33545v-3.64111c-0.38428,0.18164-0.7334,0.18164-0.89453,0.18164v-0.20264
			c0.72021,0,1.06934-0.2583,1.2373-0.44727c0.13965,0,0.13965,0.00732,0.13965,0.16797v3.94141
			c0,0.25146,0.021,0.33545,0.63574,0.33545h0.2168v0.20264C46.90479,144.8623,46.23389,144.8623,46.00293,144.8623z"/>
		<path class="st1" d="M49.69629,144.94629c-0.44727,0-0.74756-0.26563-0.9082-0.52393l-0.25195,0.4541h-0.15332v-4.1792
			c0-0.34229-0.05615-0.39111-0.53125-0.39111v-0.20264l0.97119-0.07715v2.23633c0.23779-0.29346,0.56592-0.46826,0.95068-0.46826
			c0.77539,0,1.43262,0.68506,1.43262,1.57275C51.20605,144.26855,50.5,144.94629,49.69629,144.94629z M49.73145,141.93408
			c-0.34277,0-0.6499,0.20264-0.81787,0.45459c-0.07666,0.11182-0.07666,0.12549-0.07666,0.25146v1.43945
			c0,0.11914,0,0.14697,0.09082,0.29346c0.11865,0.18896,0.36328,0.43359,0.74072,0.43359c0.34961,0,0.62891-0.2168,0.76855-0.43359
			c0.16797-0.25146,0.23779-0.54492,0.23779-1.01318C50.6748,142.01807,49.94092,141.93408,49.73145,141.93408z"/>
	</g>
	<g>
		<path class="st1" d="M118.87061,32.2168c-0.87549,0-0.92334,0.10791-0.99561,0.26367l-3.18994,7.20801
			c-0.13232,0.28809-0.28809,0.28809-0.47998,0.28809c-0.33594,0-0.38379-0.09619-0.47949-0.31201l-3.31055-7.44775h-1.10303
			v-0.56396c0.41943,0.03613,1.42725,0.03613,1.89502,0.03613c0.51563,0,1.66699,0,2.12256-0.03613v0.56396h-1.12744
			l2.55469,5.74463l2.42285-5.45703c0.01172-0.03613,0.04785-0.0957,0.04785-0.14404c0-0.14355-0.94775-0.14355-1.05566-0.14355
			v-0.56396c0.46777,0.03613,1.0918,0.03613,1.57129,0.03613l1.35547-0.03613v0.56396H118.87061z"/>
		<path class="st1" d="M121.12109,43.87646h-2.55078v-0.16748l1.41162-1.57959c0.39844-0.44727,0.74121-0.96436,0.74121-1.55859
			c0-0.64307-0.36377-1.13916-0.95752-1.13916c-0.45459,0-0.83154,0.32178-0.96436,0.79688
			c0.021-0.00684,0.03467-0.00684,0.09766-0.00684c0.1958,0,0.32861,0.13281,0.32861,0.32813
			c0,0.22363-0.18164,0.32861-0.32861,0.32861c-0.021,0-0.32861,0-0.32861-0.35645c0-0.60107,0.47559-1.29297,1.28613-1.29297
			s1.44629,0.53809,1.44629,1.3418c0,0.69189-0.39111,1.05518-1.45313,2.03369c-0.18213,0.16797-0.6084,0.61523-0.79688,0.77588
			h1.29297c0.20947,0,0.60791,0,0.65674-0.06299c0.06982-0.11182,0.12598-0.49609,0.14697-0.61523h0.15332L121.12109,43.87646z"/>
		<path class="st1" d="M124.41602,43.91162c-0.30029,0-0.51709-0.25195-0.54492-0.58008
			c-0.13281,0.33545-0.44727,0.61475-0.90869,0.61475c-0.42627,0-1.06885-0.1748-1.06885-0.72656
			c0-0.53809,0.53076-1.12549,1.93555-1.14648v-0.2793c0-0.62891-0.41211-0.89453-0.73389-0.89453
			c-0.2793,0-0.61475,0.12598-0.77539,0.41943c0.10449,0,0.35645,0,0.35645,0.28613c0,0.16797-0.11914,0.28662-0.28662,0.28662
			c-0.16064,0-0.29346-0.09766-0.29346-0.30029c0-0.45459,0.43994-0.83154,1.01318-0.83154
			c0.30762,0,0.62207,0.09766,0.8667,0.32129c0.30713,0.27246,0.30713,0.55225,0.30713,0.92969v1.22266
			c0,0.10498,0,0.47559,0.26563,0.47559c0.09814,0,0.26563-0.05615,0.26563-0.45459v-0.39111h0.15381v0.39111
			C124.96826,43.81348,124.56299,43.91162,124.41602,43.91162z M123.8291,42.19922
			c-0.25146,0.01416-1.43945,0.09766-1.43945,1.02051c0,0.33545,0.28662,0.58691,0.62891,0.58691
			c0.30029,0,0.81055-0.23047,0.81055-0.91553V42.19922z"/>
	</g>
	<g>
		<path class="st1" d="M121.87061,133.2168c-0.87549,0-0.92334,0.10791-0.99561,0.26367l-3.18994,7.20801
			c-0.13232,0.28809-0.28809,0.28809-0.47998,0.28809c-0.33594,0-0.38379-0.09619-0.47949-0.31201l-3.31055-7.44775h-1.10303
			v-0.56396c0.41943,0.03613,1.42725,0.03613,1.89502,0.03613c0.51563,0,1.66699,0,2.12256-0.03613v0.56396h-1.12744
			l2.55469,5.74463l2.42285-5.45703c0.01172-0.03613,0.04785-0.0957,0.04785-0.14404c0-0.14355-0.94775-0.14355-1.05566-0.14355
			v-0.56396c0.46777,0.03613,1.0918,0.03613,1.57129,0.03613l1.35547-0.03613v0.56396H121.87061z"/>
		<path class="st1" d="M124.12109,144.87646h-2.55078v-0.16748l1.41162-1.57959c0.39844-0.44727,0.74121-0.96436,0.74121-1.55859
			c0-0.64307-0.36377-1.13916-0.95752-1.13916c-0.45459,0-0.83154,0.32178-0.96436,0.79688
			c0.021-0.00684,0.03467-0.00684,0.09766-0.00684c0.1958,0,0.32861,0.13281,0.32861,0.32813
			c0,0.22363-0.18164,0.32861-0.32861,0.32861c-0.021,0-0.32861,0-0.32861-0.35645c0-0.60107,0.47559-1.29297,1.28613-1.29297
			s1.44629,0.53809,1.44629,1.3418c0,0.69189-0.39111,1.05518-1.45313,2.03369c-0.18213,0.16797-0.6084,0.61523-0.79688,0.77588
			h1.29297c0.20947,0,0.60791,0,0.65674-0.06299c0.06982-0.11182,0.12598-0.49609,0.14697-0.61523h0.15332L124.12109,144.87646z"/>
		<path class="st1" d="M126.69629,144.94629c-0.44727,0-0.74756-0.26563-0.9082-0.52393l-0.25195,0.4541h-0.15332v-4.1792
			c0-0.34229-0.05615-0.39111-0.53125-0.39111v-0.20264l0.97119-0.07715v2.23633c0.23779-0.29346,0.56592-0.46826,0.95068-0.46826
			c0.77539,0,1.43262,0.68506,1.43262,1.57275C128.20605,144.26855,127.5,144.94629,126.69629,144.94629z M126.73145,141.93408
			c-0.34277,0-0.6499,0.20264-0.81787,0.45459c-0.07666,0.11182-0.07666,0.12549-0.07666,0.25146v1.43945
			c0,0.11914,0,0.14697,0.09082,0.29346c0.11865,0.18896,0.36328,0.43359,0.74072,0.43359c0.34961,0,0.62891-0.2168,0.76855-0.43359
			c0.16797-0.25146,0.23779-0.54492,0.23779-1.01318C127.6748,142.01807,126.94092,141.93408,126.73145,141.93408z"/>
	</g>
</g>
<g id="Layer_2">
	<polyline class="st2" points="54.03809,53.76416 38.03809,53.76416 38.03809,123.76416 54.03809,123.76416 	"/>
	<polyline class="st2" points="104.03809,53.76416 120.03809,53.76416 120.03809,123.76416 104.03809,123.76416 	"/>
	<g>
	</g>
	<g>
	</g>
	<g>
	</g>
	<g>
	</g>
	<g>
	</g>
	<g>
	</g>
	<g>
	</g>
	<g>
	</g>
	<g>
	</g>
	<g>
	</g>
	<g>
	</g>
</g>
</svg>
