<?xml version="1.0" encoding="utf-8"?>
<!-- Generator: Adobe Illustrator 23.0.3, SVG Export Plug-In . SVG Version: 6.00 Build 0)  -->
<svg version="1.1" xmlns="http://www.w3.org/2000/svg" xmlns:xlink="http://www.w3.org/1999/xlink" x="0px" y="0px"
	 viewBox="0 0 323.03809 179.646" style="enable-background:new 0 0 323.03809 179.646;" xml:space="preserve">
<style type="text/css">
	.st0{fill:none;stroke:#8FF4DD;stroke-width:2;stroke-linecap:round;stroke-linejoin:round;stroke-miterlimit:10;}
	.st1{fill:#8FF4DD;}
	.st2{fill:none;stroke:#8FF4DD;stroke-width:2;stroke-linecap:square;}
	.st3{fill:none;stroke:#8FF4DD;stroke-width:1.5;stroke-linecap:square;}
	.st4{fill:none;stroke:#8FF4DD;stroke-width:2;stroke-linecap:round;stroke-linejoin:round;}
</style>
<g id="Layer_1">
	<polygon class="st0" points="186.03809,63.76416 136.03809,63.76416 136.03809,53.76416 136.03809,13.76416 186.03809,13.76416 	
		"/>
	<g>
		<path class="st1" d="M166.43652,45.43848c-0.67188,0-1.38574-0.04199-2.07861-0.04199c-0.71387,0-1.46973,0.04199-2.1626,0.04199
			c-0.08398,0-0.29395,0-0.29395-0.20996c0-0.39893,0.18896-0.39893,0.48291-0.39893c1.30176-0.021,1.25977-0.58789,1.23877-0.92383
			l-0.23096-3.38037H158.521l-1.53271,2.7085c-0.18896,0.33594-0.35693,0.60889-0.35693,0.90283
			c0,0.39893,0.29395,0.65088,0.79785,0.69287c0.12598,0,0.29395,0.021,0.29395,0.20996c0,0.39893-0.23096,0.39893-0.37793,0.39893
			c-0.5459,0-1.15479-0.04199-1.72168-0.04199c-0.5249,0-1.0918,0.04199-1.5957,0.04199c0,0-0.25195,0-0.25195-0.20996
			c0-0.35693,0.16797-0.37793,0.39893-0.39893c1.0498-0.10498,1.6377-0.58789,2.28857-1.74268l6.9917-12.26172
			c0.14697-0.25195,0.20996-0.37793,0.50391-0.37793s0.31494,0.06299,0.33594,0.50391l0.92383,13.18555
			c0.04199,0.5459,0.14697,0.69287,1.17578,0.69287c0.27295,0,0.41992,0,0.41992,0.23096
			C166.81445,45.43848,166.5625,45.43848,166.43652,45.43848z M162.86719,32.9248l-3.98926,6.9917h4.47217L162.86719,32.9248z"/>
	</g>
	<polygon class="st0" points="186.03809,163.76416 136.03809,163.76416 136.03809,123.76416 136.03809,113.76416 
		186.03809,113.76416 	"/>
	<g>
		<path class="st1" d="M161.2085,145.43848h-6.65576c-0.33594,0-0.50391,0-0.50391-0.20996
			c0-0.39893,0.18896-0.39893,0.56689-0.39893c1.28076,0,1.40674-0.16797,1.5957-0.90283l2.87646-11.56885
			c0.04199-0.12598,0.04199-0.18896,0.04199-0.31494c0-0.33594-0.58789-0.33594-1.11279-0.33594c-0.39893,0-0.5459,0-0.5459-0.20996
			c0-0.39893,0.18896-0.39893,0.56689-0.39893h6.23584c2.28857,0,3.44336,1.36475,3.44336,2.83447
			c0,1.84766-1.84766,3.56934-4.09424,4.01025c1.6377,0.20996,2.87646,1.23877,2.87646,2.87646
			C166.49951,143.04492,164.08496,145.43848,161.2085,145.43848z M162.67822,138.19482h-3.59033l-1.46973,5.96289
			c-0.08398,0.29395-0.08398,0.33594-0.08398,0.41992c0,0.23096,0.021,0.25195,0.62988,0.25195h2.58252
			c2.22559,0,4.03125-2.05762,4.03125-4.26221C164.77783,139.49658,164.31592,138.19482,162.67822,138.19482z M164.00098,131.70703
			h-2.45654c-0.69287,0-0.83984,0-1.02881,0.79785l-1.30176,5.27002h2.75049c2.39355,0,4.05225-2.12061,4.05225-3.94727
			C166.0166,132.9458,165.65967,131.70703,164.00098,131.70703z"/>
	</g>
	<polyline class="st2" points="105.33008,20.26807 119.33008,20.26807 116.33008,17.26807 	"/>
	<g>
		<path class="st1" d="M110.61523,10.08008c-0.55176,0-1.72754,0-2.21875,0.03613V9.55273h1.36719v-7.1001h-1.36719V1.88867
			c0.49121,0.03613,1.66699,0.03613,2.21875,0.03613c0.55078,0,1.72656,0,2.21875-0.03613v0.56396h-1.36719v7.1001h1.36719v0.56348
			C112.3418,10.08008,111.16602,10.08008,110.61523,10.08008z"/>
		<path class="st1" d="M115.00684,14.09814c-0.23047,0-0.9082,0-1.09668,0.01416v-0.20264h0.2168
			c0.61426,0,0.63574-0.08398,0.63574-0.33545V9.93311c-0.38477,0.18164-0.7334,0.18164-0.89453,0.18164V9.91211
			c0.71973,0,1.06934-0.2583,1.2373-0.44727c0.13965,0,0.13965,0.00732,0.13965,0.16797v3.94141
			c0,0.25146,0.02051,0.33545,0.63574,0.33545h0.2168v0.20264C115.90918,14.09814,115.23828,14.09814,115.00684,14.09814z"/>
		<path class="st1" d="M119.41992,14.14746c-0.2998,0-0.5166-0.25195-0.54492-0.58008
			c-0.13281,0.33545-0.44727,0.61475-0.9082,0.61475c-0.42676,0-1.06934-0.1748-1.06934-0.72656
			c0-0.53809,0.53125-1.12549,1.93555-1.14648v-0.2793c0-0.62891-0.41211-0.89453-0.7334-0.89453
			c-0.2793,0-0.61523,0.12598-0.77539,0.41943c0.10449,0,0.35645,0,0.35645,0.28613c0,0.16797-0.11914,0.28662-0.28711,0.28662
			c-0.16016,0-0.29297-0.09766-0.29297-0.30029c0-0.45459,0.43945-0.83154,1.0127-0.83154
			c0.30762,0,0.62207,0.09766,0.86719,0.32129c0.30664,0.27246,0.30664,0.55225,0.30664,0.92969v1.22266
			c0,0.10498,0,0.47559,0.26563,0.47559c0.09863,0,0.26563-0.05615,0.26563-0.45459v-0.39111h0.1543v0.39111
			C119.97266,14.04932,119.56738,14.14746,119.41992,14.14746z M118.83301,12.43506
			c-0.25098,0.01416-1.43945,0.09766-1.43945,1.02051c0,0.33545,0.28711,0.58691,0.62891,0.58691
			c0.30078,0,0.81055-0.23047,0.81055-0.91553V12.43506z"/>
	</g>
	<polyline class="st2" points="119.33008,157.26202 105.33008,157.26202 108.33008,160.26202 	"/>
	<g>
		<path class="st1" d="M110.61523,172.07373c-0.55176,0-1.72754,0-2.21875,0.03613v-0.56348h1.36719v-7.09961h-1.36719v-0.56396
			c0.49121,0.03613,1.66699,0.03613,2.21875,0.03613c0.55078,0,1.72656,0,2.21875-0.03613v0.56396h-1.36719v7.09961h1.36719v0.56348
			C112.3418,172.07373,111.16602,172.07373,110.61523,172.07373z"/>
		<path class="st1" d="M115.00684,176.09229c-0.23047,0-0.9082,0-1.09668,0.01367v-0.20215h0.2168
			c0.61426,0,0.63574-0.08398,0.63574-0.33594v-3.64063c-0.38477,0.18164-0.7334,0.18164-0.89453,0.18164v-0.20313
			c0.71973,0,1.06934-0.25781,1.2373-0.44727c0.13965,0,0.13965,0.00781,0.13965,0.16797v3.94141
			c0,0.25195,0.02051,0.33594,0.63574,0.33594h0.2168v0.20215C115.90918,176.09229,115.23828,176.09229,115.00684,176.09229z"/>
		<path class="st1" d="M118.7002,176.17627c-0.44727,0-0.74707-0.26563-0.9082-0.52441l-0.25195,0.4541h-0.15332v-4.17871
			c0-0.34277-0.05566-0.3916-0.53125-0.3916v-0.20215l0.97168-0.07715v2.23633c0.2373-0.29395,0.56543-0.46875,0.9502-0.46875
			c0.77539,0,1.43262,0.68555,1.43262,1.57324C120.20996,175.49854,119.50391,176.17627,118.7002,176.17627z M118.73535,173.16357
			c-0.34277,0-0.64941,0.20313-0.81738,0.45508c-0.07715,0.11133-0.07715,0.125-0.07715,0.25098v1.43945
			c0,0.11914,0,0.14746,0.09082,0.29395c0.11914,0.18848,0.36328,0.43359,0.74121,0.43359c0.34961,0,0.62891-0.2168,0.76855-0.43359
			c0.16797-0.25195,0.2373-0.54492,0.2373-1.01367C119.67871,173.24756,118.94531,173.16357,118.73535,173.16357z"/>
	</g>
	<g>
		<line class="st3" x1="2.7922" y1="72.53223" x2="7.7922" y2="72.53223"/>
		<line class="st3" x1="5.2922" y1="75.03223" x2="5.2922" y2="70.03223"/>
	</g>
	<line class="st3" x1="2.7922" y1="107.53223" x2="7.7922" y2="107.53223"/>
	<g>
		<path class="st1" d="M9.87061,85.2168c-0.87549,0-0.92334,0.10791-0.99561,0.26367l-3.18994,7.20801
			c-0.13232,0.28809-0.28809,0.28809-0.47998,0.28809c-0.33594,0-0.38379-0.09619-0.47949-0.31201L1.41504,85.2168H0.31201v-0.56396
			c0.41943,0.03613,1.42725,0.03613,1.89502,0.03613c0.51563,0,1.66699,0,2.12256-0.03613v0.56396H3.20215l2.55469,5.74463
			l2.42285-5.45703c0.01172-0.03613,0.04785-0.0957,0.04785-0.14404c0-0.14355-0.94775-0.14355-1.05566-0.14355v-0.56396
			c0.46777,0.03613,1.0918,0.03613,1.57129,0.03613l1.35547-0.03613v0.56396H9.87061z"/>
		<path class="st1" d="M11.00293,96.8623c-0.23047,0-0.9082,0-1.09717,0.01416v-0.20264h0.2168
			c0.61475,0,0.63574-0.08398,0.63574-0.33545v-3.64111c-0.38428,0.18164-0.7334,0.18164-0.89453,0.18164v-0.20264
			c0.72021,0,1.06934-0.2583,1.2373-0.44727c0.13965,0,0.13965,0.00732,0.13965,0.16797v3.94141
			c0,0.25146,0.021,0.33545,0.63574,0.33545h0.2168v0.20264C11.90479,96.8623,11.23389,96.8623,11.00293,96.8623z"/>
	</g>
	<polyline class="st2" points="128.03809,57.76416 114.03809,57.76416 117.03809,60.76416 	"/>
	<g>
		<path class="st1" d="M126.87061,32.2168c-0.87549,0-0.92334,0.10791-0.99561,0.26367l-3.18994,7.20801
			c-0.13232,0.28809-0.28809,0.28809-0.47998,0.28809c-0.33594,0-0.38379-0.09619-0.47949-0.31201l-3.31055-7.44775h-1.10303
			v-0.56396c0.41943,0.03613,1.42725,0.03613,1.89502,0.03613c0.51563,0,1.66699,0,2.12256-0.03613v0.56396h-1.12744
			l2.55469,5.74463l2.42285-5.45703c0.01172-0.03613,0.04785-0.0957,0.04785-0.14404c0-0.14355-0.94775-0.14355-1.05566-0.14355
			v-0.56396c0.46777,0.03613,1.0918,0.03613,1.57129,0.03613l1.35547-0.03613v0.56396H126.87061z"/>
		<path class="st1" d="M128.00293,43.8623c-0.23047,0-0.9082,0-1.09717,0.01416v-0.20264h0.2168
			c0.61475,0,0.63574-0.08398,0.63574-0.33545v-3.64111c-0.38428,0.18164-0.7334,0.18164-0.89453,0.18164v-0.20264
			c0.72021,0,1.06934-0.2583,1.2373-0.44727c0.13965,0,0.13965,0.00732,0.13965,0.16797v3.94141
			c0,0.25146,0.021,0.33545,0.63574,0.33545h0.2168v0.20264C128.90479,43.8623,128.23389,43.8623,128.00293,43.8623z"/>
		<path class="st1" d="M132.41602,43.91162c-0.30029,0-0.51709-0.25195-0.54492-0.58008
			c-0.13281,0.33545-0.44727,0.61475-0.90869,0.61475c-0.42627,0-1.06885-0.1748-1.06885-0.72656
			c0-0.53809,0.53076-1.12549,1.93555-1.14648v-0.2793c0-0.62891-0.41211-0.89453-0.73389-0.89453
			c-0.2793,0-0.61475,0.12598-0.77539,0.41943c0.10449,0,0.35645,0,0.35645,0.28613c0,0.16797-0.11914,0.28662-0.28662,0.28662
			c-0.16064,0-0.29346-0.09766-0.29346-0.30029c0-0.45459,0.43994-0.83154,1.01318-0.83154
			c0.30762,0,0.62207,0.09766,0.8667,0.32129c0.30713,0.27246,0.30713,0.55225,0.30713,0.92969v1.22266
			c0,0.10498,0,0.47559,0.26563,0.47559c0.09814,0,0.26563-0.05615,0.26563-0.45459v-0.39111h0.15381v0.39111
			C132.96826,43.81348,132.56299,43.91162,132.41602,43.91162z M131.8291,42.19922
			c-0.25146,0.01416-1.43945,0.09766-1.43945,1.02051c0,0.33545,0.28662,0.58691,0.62891,0.58691
			c0.30029,0,0.81055-0.23047,0.81055-0.91553V42.19922z"/>
	</g>
	<g>
		<path class="st1" d="M126.87061,133.2168c-0.87549,0-0.92334,0.10791-0.99561,0.26367l-3.18994,7.20801
			c-0.13232,0.28809-0.28809,0.28809-0.47998,0.28809c-0.33594,0-0.38379-0.09619-0.47949-0.31201l-3.31055-7.44775h-1.10303
			v-0.56396c0.41943,0.03613,1.42725,0.03613,1.89502,0.03613c0.51563,0,1.66699,0,2.12256-0.03613v0.56396h-1.12744
			l2.55469,5.74463l2.42285-5.45703c0.01172-0.03613,0.04785-0.0957,0.04785-0.14404c0-0.14355-0.94775-0.14355-1.05566-0.14355
			v-0.56396c0.46777,0.03613,1.0918,0.03613,1.57129,0.03613l1.35547-0.03613v0.56396H126.87061z"/>
		<path class="st1" d="M128.00293,144.8623c-0.23047,0-0.9082,0-1.09717,0.01416v-0.20264h0.2168
			c0.61475,0,0.63574-0.08398,0.63574-0.33545v-3.64111c-0.38428,0.18164-0.7334,0.18164-0.89453,0.18164v-0.20264
			c0.72021,0,1.06934-0.2583,1.2373-0.44727c0.13965,0,0.13965,0.00732,0.13965,0.16797v3.94141
			c0,0.25146,0.021,0.33545,0.63574,0.33545h0.2168v0.20264C128.90479,144.8623,128.23389,144.8623,128.00293,144.8623z"/>
		<path class="st1" d="M131.69629,144.94629c-0.44727,0-0.74756-0.26563-0.9082-0.52393l-0.25195,0.4541h-0.15332v-4.1792
			c0-0.34229-0.05615-0.39111-0.53125-0.39111v-0.20264l0.97119-0.07715v2.23633c0.23779-0.29346,0.56592-0.46826,0.95068-0.46826
			c0.77539,0,1.43262,0.68506,1.43262,1.57275C133.20605,144.26855,132.5,144.94629,131.69629,144.94629z M131.73145,141.93408
			c-0.34277,0-0.6499,0.20264-0.81787,0.45459c-0.07666,0.11182-0.07666,0.12549-0.07666,0.25146v1.43945
			c0,0.11914,0,0.14697,0.09082,0.29346c0.11865,0.18896,0.36328,0.43359,0.74072,0.43359c0.34961,0,0.62891-0.2168,0.76855-0.43359
			c0.16797-0.25146,0.23779-0.54492,0.23779-1.01318C132.6748,142.01807,131.94092,141.93408,131.73145,141.93408z"/>
	</g>
	<g>
		<path class="st1" d="M200.87061,32.2168c-0.87549,0-0.92334,0.10791-0.99561,0.26367l-3.18994,7.20801
			c-0.13232,0.28809-0.28809,0.28809-0.47998,0.28809c-0.33594,0-0.38379-0.09619-0.47949-0.31201l-3.31055-7.44775h-1.10303
			v-0.56396c0.41943,0.03613,1.42725,0.03613,1.89502,0.03613c0.51563,0,1.66699,0,2.12256-0.03613v0.56396h-1.12744
			l2.55469,5.74463l2.42285-5.45703c0.01172-0.03613,0.04785-0.0957,0.04785-0.14404c0-0.14355-0.94775-0.14355-1.05566-0.14355
			v-0.56396c0.46777,0.03613,1.0918,0.03613,1.57129,0.03613l1.35547-0.03613v0.56396H200.87061z"/>
		<path class="st1" d="M203.12109,43.87646h-2.55078v-0.16748l1.41162-1.57959c0.39844-0.44727,0.74121-0.96436,0.74121-1.55859
			c0-0.64307-0.36377-1.13916-0.95752-1.13916c-0.45459,0-0.83154,0.32178-0.96436,0.79688
			c0.021-0.00684,0.03467-0.00684,0.09766-0.00684c0.1958,0,0.32861,0.13281,0.32861,0.32813
			c0,0.22363-0.18164,0.32861-0.32861,0.32861c-0.021,0-0.32861,0-0.32861-0.35645c0-0.60107,0.47559-1.29297,1.28613-1.29297
			s1.44629,0.53809,1.44629,1.3418c0,0.69189-0.39111,1.05518-1.45313,2.03369c-0.18213,0.16797-0.6084,0.61523-0.79688,0.77588
			h1.29297c0.20947,0,0.60791,0,0.65674-0.06299c0.06982-0.11182,0.12598-0.49609,0.14697-0.61523h0.15332L203.12109,43.87646z"/>
		<path class="st1" d="M206.41602,43.91162c-0.30029,0-0.51709-0.25195-0.54492-0.58008
			c-0.13281,0.33545-0.44727,0.61475-0.90869,0.61475c-0.42627,0-1.06885-0.1748-1.06885-0.72656
			c0-0.53809,0.53076-1.12549,1.93555-1.14648v-0.2793c0-0.62891-0.41211-0.89453-0.73389-0.89453
			c-0.2793,0-0.61475,0.12598-0.77539,0.41943c0.10449,0,0.35645,0,0.35645,0.28613c0,0.16797-0.11914,0.28662-0.28662,0.28662
			c-0.16064,0-0.29346-0.09766-0.29346-0.30029c0-0.45459,0.43994-0.83154,1.01318-0.83154
			c0.30762,0,0.62207,0.09766,0.8667,0.32129c0.30713,0.27246,0.30713,0.55225,0.30713,0.92969v1.22266
			c0,0.10498,0,0.47559,0.26563,0.47559c0.09814,0,0.26563-0.05615,0.26563-0.45459v-0.39111h0.15381v0.39111
			C206.96826,43.81348,206.56299,43.91162,206.41602,43.91162z M205.8291,42.19922
			c-0.25146,0.01416-1.43945,0.09766-1.43945,1.02051c0,0.33545,0.28662,0.58691,0.62891,0.58691
			c0.30029,0,0.81055-0.23047,0.81055-0.91553V42.19922z"/>
	</g>
	<g>
		<path class="st1" d="M203.87061,133.2168c-0.87549,0-0.92334,0.10791-0.99561,0.26367l-3.18994,7.20801
			c-0.13232,0.28809-0.28809,0.28809-0.47998,0.28809c-0.33594,0-0.38379-0.09619-0.47949-0.31201l-3.31055-7.44775h-1.10303
			v-0.56396c0.41943,0.03613,1.42725,0.03613,1.89502,0.03613c0.51563,0,1.66699,0,2.12256-0.03613v0.56396h-1.12744
			l2.55469,5.74463l2.42285-5.45703c0.01172-0.03613,0.04785-0.0957,0.04785-0.14404c0-0.14355-0.94775-0.14355-1.05566-0.14355
			v-0.56396c0.46777,0.03613,1.0918,0.03613,1.57129,0.03613l1.35547-0.03613v0.56396H203.87061z"/>
		<path class="st1" d="M206.12109,144.87646h-2.55078v-0.16748l1.41162-1.57959c0.39844-0.44727,0.74121-0.96436,0.74121-1.55859
			c0-0.64307-0.36377-1.13916-0.95752-1.13916c-0.45459,0-0.83154,0.32178-0.96436,0.79688
			c0.021-0.00684,0.03467-0.00684,0.09766-0.00684c0.1958,0,0.32861,0.13281,0.32861,0.32813
			c0,0.22363-0.18164,0.32861-0.32861,0.32861c-0.021,0-0.32861,0-0.32861-0.35645c0-0.60107,0.47559-1.29297,1.28613-1.29297
			s1.44629,0.53809,1.44629,1.3418c0,0.69189-0.39111,1.05518-1.45313,2.03369c-0.18213,0.16797-0.6084,0.61523-0.79688,0.77588
			h1.29297c0.20947,0,0.60791,0,0.65674-0.06299c0.06982-0.11182,0.12598-0.49609,0.14697-0.61523h0.15332L206.12109,144.87646z"/>
		<path class="st1" d="M208.69629,144.94629c-0.44727,0-0.74756-0.26563-0.9082-0.52393l-0.25195,0.4541h-0.15332v-4.1792
			c0-0.34229-0.05615-0.39111-0.53125-0.39111v-0.20264l0.97119-0.07715v2.23633c0.23779-0.29346,0.56592-0.46826,0.95068-0.46826
			c0.77539,0,1.43262,0.68506,1.43262,1.57275C210.20605,144.26855,209.5,144.94629,208.69629,144.94629z M208.73145,141.93408
			c-0.34277,0-0.6499,0.20264-0.81787,0.45459c-0.07666,0.11182-0.07666,0.12549-0.07666,0.25146v1.43945
			c0,0.11914,0,0.14697,0.09082,0.29346c0.11865,0.18896,0.36328,0.43359,0.74072,0.43359c0.34961,0,0.62891-0.2168,0.76855-0.43359
			c0.16797-0.25146,0.23779-0.54492,0.23779-1.01318C209.6748,142.01807,208.94092,141.93408,208.73145,141.93408z"/>
	</g>
	<polyline class="st4" points="136.03809,23.76819 86.03809,23.76819 46.0401,63.76618 6.03809,63.76618 	"/>
	<polyline class="st4" points="136.03809,153.76219 86.03809,153.76219 46.03907,113.76318 6.03809,113.76318 	"/>
	<line class="st0" x1="136.03809" y1="53.76416" x2="106.03809" y2="53.76416"/>
	<line class="st0" x1="46.03809" y1="113.76416" x2="105.97629" y2="53.82596"/>
	<polyline class="st2" points="17.03809,59.76416 31.03809,59.76416 28.03809,56.76416 	"/>
	<g>
		<path class="st1" d="M22.32324,49.57617c-0.55176,0-1.72754,0-2.21875,0.03613v-0.56348h1.36719v-7.1001h-1.36719v-0.56396
			c0.49121,0.03613,1.66699,0.03613,2.21875,0.03613c0.55078,0,1.72656,0,2.21875-0.03613v0.56396H23.1748v7.1001h1.36719v0.56348
			C24.0498,49.57617,22.87402,49.57617,22.32324,49.57617z"/>
		<path class="st1" d="M26.71484,53.59424c-0.23047,0-0.9082,0-1.09668,0.01416v-0.20264h0.2168
			c0.61426,0,0.63574-0.08398,0.63574-0.33545V49.4292c-0.38477,0.18164-0.7334,0.18164-0.89453,0.18164V49.4082
			c0.71973,0,1.06934-0.2583,1.2373-0.44727c0.13965,0,0.13965,0.00732,0.13965,0.16797v3.94141
			c0,0.25146,0.02051,0.33545,0.63574,0.33545h0.2168v0.20264C27.61719,53.59424,26.94629,53.59424,26.71484,53.59424z"/>
	</g>
	<g>
		<path class="st1" d="M119.32324,72.57617c-0.55176,0-1.72754,0-2.21875,0.03613v-0.56348h1.36719v-7.1001h-1.36719v-0.56396
			c0.49121,0.03613,1.66699,0.03613,2.21875,0.03613c0.55078,0,1.72656,0,2.21875-0.03613v0.56396h-1.36719v7.1001h1.36719v0.56348
			C121.0498,72.57617,119.87402,72.57617,119.32324,72.57617z"/>
		<path class="st1" d="M123.71484,76.59424c-0.23047,0-0.9082,0-1.09668,0.01416v-0.20264h0.2168
			c0.61426,0,0.63574-0.08398,0.63574-0.33545V72.4292c-0.38477,0.18164-0.7334,0.18164-0.89453,0.18164V72.4082
			c0.71973,0,1.06934-0.2583,1.2373-0.44727c0.13965,0,0.13965,0.00732,0.13965,0.16797v3.94141
			c0,0.25146,0.02051,0.33545,0.63574,0.33545h0.2168v0.20264C124.61719,76.59424,123.94629,76.59424,123.71484,76.59424z"/>
		<path class="st1" d="M128.12793,76.64355c-0.2998,0-0.5166-0.25195-0.54492-0.58008
			c-0.13281,0.33545-0.44727,0.61475-0.9082,0.61475c-0.42676,0-1.06934-0.1748-1.06934-0.72656
			c0-0.53809,0.53125-1.12549,1.93555-1.14648v-0.2793c0-0.62891-0.41211-0.89453-0.7334-0.89453
			c-0.2793,0-0.61523,0.12598-0.77539,0.41943c0.10449,0,0.35645,0,0.35645,0.28613c0,0.16797-0.11914,0.28662-0.28711,0.28662
			c-0.16016,0-0.29297-0.09766-0.29297-0.30029c0-0.45459,0.43945-0.83154,1.0127-0.83154
			c0.30762,0,0.62207,0.09766,0.86719,0.32129c0.30664,0.27246,0.30664,0.55225,0.30664,0.92969v1.22266
			c0,0.10498,0,0.47559,0.26563,0.47559c0.09863,0,0.26563-0.05615,0.26563-0.45459v-0.39111h0.1543v0.39111
			C128.68066,76.54541,128.27539,76.64355,128.12793,76.64355z M127.54102,74.93115
			c-0.25098,0.01416-1.43945,0.09766-1.43945,1.02051c0,0.33545,0.28711,0.58691,0.62891,0.58691
			c0.30078,0,0.81055-0.23047,0.81055-0.91553V74.93115z"/>
	</g>
	<polyline class="st0" points="46.03809,63.76416 106.00719,123.73326 136.03809,123.73326 	"/>
	<polyline class="st2" points="114.03809,119.76416 128.03809,119.76416 125.03809,116.76416 	"/>
	<g>
		<path class="st1" d="M119.32324,109.57617c-0.55176,0-1.72754,0-2.21875,0.03613v-0.56348h1.36719v-7.1001h-1.36719v-0.56396
			c0.49121,0.03613,1.66699,0.03613,2.21875,0.03613c0.55078,0,1.72656,0,2.21875-0.03613v0.56396h-1.36719v7.1001h1.36719v0.56348
			C121.0498,109.57617,119.87402,109.57617,119.32324,109.57617z"/>
		<path class="st1" d="M123.71484,113.59424c-0.23047,0-0.9082,0-1.09668,0.01416v-0.20264h0.2168
			c0.61426,0,0.63574-0.08398,0.63574-0.33545v-3.64111c-0.38477,0.18164-0.7334,0.18164-0.89453,0.18164v-0.20264
			c0.71973,0,1.06934-0.2583,1.2373-0.44727c0.13965,0,0.13965,0.00732,0.13965,0.16797v3.94141
			c0,0.25146,0.02051,0.33545,0.63574,0.33545h0.2168v0.20264C124.61719,113.59424,123.94629,113.59424,123.71484,113.59424z"/>
		<path class="st1" d="M127.4082,113.67822c-0.44727,0-0.74707-0.26563-0.9082-0.52393l-0.25195,0.4541h-0.15332v-4.1792
			c0-0.34229-0.05566-0.39111-0.53125-0.39111v-0.20264l0.97168-0.07715v2.23633c0.2373-0.29346,0.56543-0.46826,0.9502-0.46826
			c0.77539,0,1.43262,0.68506,1.43262,1.57275C128.91797,113.00049,128.21191,113.67822,127.4082,113.67822z M127.44336,110.66602
			c-0.34277,0-0.64941,0.20264-0.81738,0.45459c-0.07715,0.11182-0.07715,0.12549-0.07715,0.25146v1.43945
			c0,0.11914,0,0.14697,0.09082,0.29346c0.11914,0.18896,0.36328,0.43359,0.74121,0.43359c0.34961,0,0.62891-0.2168,0.76855-0.43359
			c0.16797-0.25146,0.2373-0.54492,0.2373-1.01318C128.38672,110.75,127.65332,110.66602,127.44336,110.66602z"/>
	</g>
	<polyline class="st2" points="216.70801,20.26807 202.70801,20.26807 205.70801,17.26807 	"/>
	<g>
		<path class="st1" d="M204.56494,10.08008c-0.55176,0-1.72705,0-2.21875,0.03613V9.55273h1.36719v-7.1001h-1.36719V1.88867
			c0.4917,0.03613,1.66699,0.03613,2.21875,0.03613c0.55127,0,1.72705,0,2.21875-0.03613v0.56396h-1.36719v7.1001h1.36719v0.56348
			C206.29199,10.08008,205.11621,10.08008,204.56494,10.08008z"/>
		<path class="st1" d="M210.0752,14.1123h-2.55078v-0.16748l1.41162-1.57959c0.39844-0.44727,0.74121-0.96436,0.74121-1.55859
			c0-0.64307-0.36377-1.13916-0.95752-1.13916c-0.45459,0-0.83154,0.32178-0.96436,0.79688
			c0.021-0.00684,0.03467-0.00684,0.09766-0.00684c0.1958,0,0.32861,0.13281,0.32861,0.32813
			c0,0.22363-0.18164,0.32861-0.32861,0.32861c-0.021,0-0.32861,0-0.32861-0.35645c0-0.60107,0.47559-1.29297,1.28613-1.29297
			s1.44629,0.53809,1.44629,1.3418c0,0.69189-0.39111,1.05518-1.45313,2.03369c-0.18213,0.16797-0.6084,0.61523-0.79688,0.77588
			h1.29297c0.20947,0,0.60791,0,0.65674-0.06299c0.06982-0.11182,0.12598-0.49609,0.14697-0.61523h0.15332L210.0752,14.1123z"/>
		<path class="st1" d="M213.37012,14.14746c-0.30029,0-0.51709-0.25195-0.54492-0.58008
			c-0.13281,0.33545-0.44727,0.61475-0.90869,0.61475c-0.42627,0-1.06885-0.1748-1.06885-0.72656
			c0-0.53809,0.53076-1.12549,1.93555-1.14648v-0.2793c0-0.62891-0.41211-0.89453-0.73389-0.89453
			c-0.2793,0-0.61475,0.12598-0.77539,0.41943c0.10449,0,0.35645,0,0.35645,0.28613c0,0.16797-0.11914,0.28662-0.28662,0.28662
			c-0.16064,0-0.29346-0.09766-0.29346-0.30029c0-0.45459,0.43994-0.83154,1.01318-0.83154
			c0.30762,0,0.62207,0.09766,0.8667,0.32129c0.30713,0.27246,0.30713,0.55225,0.30713,0.92969v1.22266
			c0,0.10498,0,0.47559,0.26563,0.47559c0.09814,0,0.26563-0.05615,0.26563-0.45459v-0.39111h0.15381v0.39111
			C213.92236,14.04932,213.51709,14.14746,213.37012,14.14746z M212.7832,12.43506
			c-0.25146,0.01416-1.43945,0.09766-1.43945,1.02051c0,0.33545,0.28662,0.58691,0.62891,0.58691
			c0.30029,0,0.81055-0.23047,0.81055-0.91553V12.43506z"/>
	</g>
	<polyline class="st2" points="202.70801,157.26202 216.70801,157.26202 213.70801,160.26202 	"/>
	<g>
		<path class="st1" d="M204.18701,172.07373c-0.55176,0-1.72705,0-2.21875,0.03613v-0.56348h1.36719v-7.09961h-1.36719v-0.56396
			c0.4917,0.03613,1.66699,0.03613,2.21875,0.03613c0.55127,0,1.72705,0,2.21875-0.03613v0.56396h-1.36719v7.09961h1.36719v0.56348
			C205.91406,172.07373,204.73828,172.07373,204.18701,172.07373z"/>
		<path class="st1" d="M209.69727,176.10596h-2.55078v-0.16699l1.41162-1.58008c0.39844-0.44727,0.74121-0.96387,0.74121-1.55859
			c0-0.64258-0.36377-1.13867-0.95752-1.13867c-0.45459,0-0.83154,0.32129-0.96436,0.79688
			c0.021-0.00684,0.03467-0.00684,0.09766-0.00684c0.1958,0,0.32861,0.13281,0.32861,0.32813
			c0,0.22363-0.18164,0.32813-0.32861,0.32813c-0.021,0-0.32861,0-0.32861-0.35645c0-0.60059,0.47559-1.29297,1.28613-1.29297
			s1.44629,0.53809,1.44629,1.3418c0,0.69238-0.39111,1.05566-1.45313,2.03418c-0.18213,0.16797-0.6084,0.61523-0.79688,0.77539
			h1.29297c0.20947,0,0.60791,0,0.65674-0.0625c0.06982-0.1123,0.12598-0.49609,0.14697-0.61523h0.15332L209.69727,176.10596z"/>
		<path class="st1" d="M212.27246,176.17627c-0.44727,0-0.74756-0.26563-0.9082-0.52441l-0.25195,0.4541h-0.15332v-4.17871
			c0-0.34277-0.05615-0.3916-0.53125-0.3916v-0.20215l0.97119-0.07715v2.23633c0.23779-0.29395,0.56592-0.46875,0.95068-0.46875
			c0.77539,0,1.43262,0.68555,1.43262,1.57324C213.78223,175.49854,213.07617,176.17627,212.27246,176.17627z M212.30762,173.16357
			c-0.34277,0-0.6499,0.20313-0.81787,0.45508c-0.07666,0.11133-0.07666,0.125-0.07666,0.25098v1.43945
			c0,0.11914,0,0.14746,0.09082,0.29395c0.11865,0.18848,0.36328,0.43359,0.74072,0.43359c0.34961,0,0.62891-0.2168,0.76855-0.43359
			c0.16797-0.25195,0.23779-0.54492,0.23779-1.01367C213.25098,173.24756,212.51709,173.16357,212.30762,173.16357z"/>
	</g>
	<g>
		<line class="st3" x1="319.24588" y1="72.53223" x2="314.24588" y2="72.53223"/>
		<line class="st3" x1="316.74588" y1="75.03223" x2="316.74588" y2="70.03223"/>
	</g>
	<line class="st3" x1="319.24588" y1="107.53223" x2="314.24588" y2="107.53223"/>
	<g>
		<path class="st1" d="M320.25293,85.2168c-0.87598,0-0.92383,0.10791-0.99609,0.26367l-3.18945,7.20801
			c-0.13281,0.28809-0.28906,0.28809-0.48047,0.28809c-0.33594,0-0.38379-0.09619-0.47949-0.31201l-3.31055-7.44775h-1.10254
			v-0.56396c0.41895,0.03613,1.42676,0.03613,1.89453,0.03613c0.51563,0,1.66699,0,2.12305-0.03613v0.56396h-1.12793
			l2.55469,5.74463l2.42285-5.45703c0.01172-0.03613,0.04785-0.0957,0.04785-0.14404c0-0.14355-0.94824-0.14355-1.05566-0.14355
			v-0.56396c0.46777,0.03613,1.0918,0.03613,1.57129,0.03613l1.35547-0.03613v0.56396H320.25293z"/>
		<path class="st1" d="M322.50293,96.87646h-2.55078v-0.16748l1.41211-1.57959c0.39844-0.44727,0.74023-0.96436,0.74023-1.55859
			c0-0.64307-0.36328-1.13916-0.95703-1.13916c-0.45508,0-0.83203,0.32178-0.96484,0.79688
			c0.02148-0.00684,0.03516-0.00684,0.09766-0.00684c0.19629,0,0.3291,0.13281,0.3291,0.32813
			c0,0.22363-0.18164,0.32861-0.3291,0.32861c-0.02051,0-0.32813,0-0.32813-0.35645c0-0.60107,0.47559-1.29297,1.28613-1.29297
			s1.44629,0.53809,1.44629,1.3418c0,0.69189-0.39063,1.05518-1.45313,2.03369c-0.18164,0.16797-0.6084,0.61523-0.79688,0.77588
			h1.29297c0.20898,0,0.60742,0,0.65625-0.06299c0.07031-0.11182,0.12695-0.49609,0.14746-0.61523h0.15332L322.50293,96.87646z"/>
	</g>
	<polyline class="st2" points="194,57.76416 208,57.76416 205,60.76416 	"/>
	<polyline class="st4" points="186,23.76819 236,23.76819 275.99799,63.76618 316,63.76618 	"/>
	<polyline class="st4" points="186,153.76219 236,153.76219 275.99902,113.76318 316,113.76318 	"/>
	<line class="st0" x1="186" y1="53.76416" x2="216" y2="53.76416"/>
	<line class="st0" x1="276" y1="113.76416" x2="216.0618" y2="53.82596"/>
	<polyline class="st2" points="305,59.76416 291,59.76416 294,56.76416 	"/>
	<g>
		<path class="st1" d="M296.28613,49.57617c-0.55273,0-1.72754,0-2.21875,0.03613v-0.56348h1.36719v-7.1001h-1.36719v-0.56396
			c0.49121,0.03613,1.66602,0.03613,2.21875,0.03613c0.55078,0,1.72656,0,2.21875-0.03613v0.56396h-1.36719v7.1001h1.36719v0.56348
			C298.0127,49.57617,296.83691,49.57617,296.28613,49.57617z"/>
		<path class="st1" d="M301.7959,53.6084h-2.55078v-0.16748l1.41211-1.57959c0.39844-0.44727,0.74023-0.96436,0.74023-1.55859
			c0-0.64307-0.36328-1.13916-0.95703-1.13916c-0.45508,0-0.83203,0.32178-0.96484,0.79688
			c0.02148-0.00684,0.03516-0.00684,0.09766-0.00684c0.19629,0,0.3291,0.13281,0.3291,0.32813
			c0,0.22363-0.18164,0.32861-0.3291,0.32861c-0.02051,0-0.32813,0-0.32813-0.35645c0-0.60107,0.47559-1.29297,1.28613-1.29297
			s1.44629,0.53809,1.44629,1.3418c0,0.69189-0.39063,1.05518-1.45313,2.03369c-0.18164,0.16797-0.6084,0.61523-0.79688,0.77588
			h1.29297c0.20898,0,0.60742,0,0.65625-0.06299c0.07031-0.11182,0.12695-0.49609,0.14746-0.61523h0.15332L301.7959,53.6084z"/>
	</g>
	<g>
		<path class="st1" d="M195.85693,72.57617c-0.55176,0-1.72705,0-2.21875,0.03613v-0.56348h1.36719v-7.1001h-1.36719v-0.56396
			c0.4917,0.03613,1.66699,0.03613,2.21875,0.03613c0.55127,0,1.72705,0,2.21875-0.03613v0.56396h-1.36719v7.1001h1.36719v0.56348
			C197.58398,72.57617,196.4082,72.57617,195.85693,72.57617z"/>
		<path class="st1" d="M201.36719,76.6084h-2.55078v-0.16748l1.41162-1.57959c0.39844-0.44727,0.74121-0.96436,0.74121-1.55859
			c0-0.64307-0.36377-1.13916-0.95752-1.13916c-0.45459,0-0.83154,0.32178-0.96436,0.79688
			c0.021-0.00684,0.03467-0.00684,0.09766-0.00684c0.1958,0,0.32861,0.13281,0.32861,0.32813
			c0,0.22363-0.18164,0.32861-0.32861,0.32861c-0.021,0-0.32861,0-0.32861-0.35645c0-0.60107,0.47559-1.29297,1.28613-1.29297
			s1.44629,0.53809,1.44629,1.3418c0,0.69189-0.39111,1.05518-1.45313,2.03369c-0.18213,0.16797-0.6084,0.61523-0.79688,0.77588
			h1.29297c0.20947,0,0.60791,0,0.65674-0.06299c0.06982-0.11182,0.12598-0.49609,0.14697-0.61523h0.15332L201.36719,76.6084z"/>
		<path class="st1" d="M204.66211,76.64355c-0.30029,0-0.51709-0.25195-0.54492-0.58008
			c-0.13281,0.33545-0.44727,0.61475-0.90869,0.61475c-0.42627,0-1.06885-0.1748-1.06885-0.72656
			c0-0.53809,0.53076-1.12549,1.93555-1.14648v-0.2793c0-0.62891-0.41211-0.89453-0.73389-0.89453
			c-0.2793,0-0.61475,0.12598-0.77539,0.41943c0.10449,0,0.35645,0,0.35645,0.28613c0,0.16797-0.11914,0.28662-0.28662,0.28662
			c-0.16064,0-0.29346-0.09766-0.29346-0.30029c0-0.45459,0.43994-0.83154,1.01318-0.83154
			c0.30762,0,0.62207,0.09766,0.8667,0.32129c0.30713,0.27246,0.30713,0.55225,0.30713,0.92969v1.22266
			c0,0.10498,0,0.47559,0.26563,0.47559c0.09814,0,0.26563-0.05615,0.26563-0.45459v-0.39111h0.15381v0.39111
			C205.21436,76.54541,204.80908,76.64355,204.66211,76.64355z M204.0752,74.93115
			c-0.25146,0.01416-1.43945,0.09766-1.43945,1.02051c0,0.33545,0.28662,0.58691,0.62891,0.58691
			c0.30029,0,0.81055-0.23047,0.81055-0.91553V74.93115z"/>
	</g>
	<polyline class="st0" points="276,63.76416 216.0309,123.73326 186,123.73326 	"/>
	<polyline class="st2" points="208,119.76416 194,119.76416 197,116.76416 	"/>
	<g>
		<path class="st1" d="M195.479,109.57617c-0.55176,0-1.72705,0-2.21875,0.03613v-0.56348h1.36719v-7.1001h-1.36719v-0.56396
			c0.4917,0.03613,1.66699,0.03613,2.21875,0.03613c0.55127,0,1.72705,0,2.21875-0.03613v0.56396h-1.36719v7.1001h1.36719v0.56348
			C197.20605,109.57617,196.03027,109.57617,195.479,109.57617z"/>
		<path class="st1" d="M200.98926,113.6084h-2.55078v-0.16748l1.41162-1.57959c0.39844-0.44727,0.74121-0.96436,0.74121-1.55859
			c0-0.64307-0.36377-1.13916-0.95752-1.13916c-0.45459,0-0.83154,0.32178-0.96436,0.79688
			c0.021-0.00684,0.03467-0.00684,0.09766-0.00684c0.1958,0,0.32861,0.13281,0.32861,0.32813
			c0,0.22363-0.18164,0.32861-0.32861,0.32861c-0.021,0-0.32861,0-0.32861-0.35645c0-0.60107,0.47559-1.29297,1.28613-1.29297
			s1.44629,0.53809,1.44629,1.3418c0,0.69189-0.39111,1.05518-1.45313,2.03369c-0.18213,0.16797-0.6084,0.61523-0.79688,0.77588
			h1.29297c0.20947,0,0.60791,0,0.65674-0.06299c0.06982-0.11182,0.12598-0.49609,0.14697-0.61523h0.15332L200.98926,113.6084z"/>
		<path class="st1" d="M203.56445,113.67822c-0.44727,0-0.74756-0.26563-0.9082-0.52393l-0.25195,0.4541h-0.15332v-4.1792
			c0-0.34229-0.05615-0.39111-0.53125-0.39111v-0.20264l0.97119-0.07715v2.23633c0.23779-0.29346,0.56592-0.46826,0.95068-0.46826
			c0.77539,0,1.43262,0.68506,1.43262,1.57275C205.07422,113.00049,204.36816,113.67822,203.56445,113.67822z M203.59961,110.66602
			c-0.34277,0-0.6499,0.20264-0.81787,0.45459c-0.07666,0.11182-0.07666,0.12549-0.07666,0.25146v1.43945
			c0,0.11914,0,0.14697,0.09082,0.29346c0.11865,0.18896,0.36328,0.43359,0.74072,0.43359c0.34961,0,0.62891-0.2168,0.76855-0.43359
			c0.16797-0.25146,0.23779-0.54492,0.23779-1.01318C204.54297,110.75,203.80908,110.66602,203.59961,110.66602z"/>
	</g>
</g>
<g id="Layer_2">
	<g>
	</g>
	<g>
	</g>
	<g>
	</g>
	<g>
	</g>
	<g>
	</g>
	<g>
	</g>
	<g>
	</g>
	<g>
	</g>
	<g>
	</g>
	<g>
	</g>
	<g>
	</g>
</g>
</svg>
