<?xml version="1.0" encoding="utf-8"?>
<!-- Generator: Adobe Illustrator 23.0.3, SVG Export Plug-In . SVG Version: 6.00 Build 0)  -->
<svg version="1.1" id="Layer_1" xmlns="http://www.w3.org/2000/svg" xmlns:xlink="http://www.w3.org/1999/xlink" x="0px" y="0px"
	 viewBox="0 0 287.65625 84.65234" style="enable-background:new 0 0 287.65625 84.65234;" xml:space="preserve">
<style type="text/css">
	.st0{fill:none;stroke:#8FF4DD;stroke-width:2;stroke-linecap:round;stroke-linejoin:round;stroke-miterlimit:10;}
	.st1{fill:none;stroke:#8FF4DD;stroke-width:2;stroke-linecap:round;stroke-linejoin:round;}
	.st2{fill:none;stroke:#8FF4DD;stroke-width:2;stroke-linecap:square;}
	.st3{fill:#8FF4DD;}
	.st4{fill:none;stroke:#8FF4DD;stroke-width:1.5;stroke-linecap:square;}
</style>
<rect x="63.29199" y="13.76807" class="st0" width="55" height="55"/>
<g>
	<path id="path1132_3_" class="st1" d="M33.29199,23.76807h-14"/>
	<circle class="st1" cx="16.29199" cy="23.76807" r="3"/>
</g>
<g>
	<path id="path1132_4_" class="st1" d="M33.29199,58.76807h-14"/>
	<circle class="st1" cx="16.29199" cy="58.76807" r="3"/>
</g>
<line class="st1" x1="33.29199" y1="23.76807" x2="63.29199" y2="23.76807"/>
<line class="st1" x1="33.29199" y1="58.76807" x2="63.29199" y2="58.76807"/>
<line class="st1" x1="143.29199" y1="23.76807" x2="118.29199" y2="23.76807"/>
<line class="st1" x1="143.29199" y1="58.76807" x2="118.29199" y2="58.76807"/>
<polyline class="st2" points="33.29199,20.26807 47.29199,20.26807 44.29199,17.26807 "/>
<polyline class="st2" points="47.29199,62.26807 33.29199,62.26807 36.29199,65.26807 "/>
<g>
	<path class="st3" d="M38.57715,10.08008c-0.55176,0-1.72754,0-2.21875,0.03613V9.55273h1.36719v-7.1001H36.3584V1.88867
		c0.49121,0.03613,1.66699,0.03613,2.21875,0.03613c0.55078,0,1.72656,0,2.21875-0.03613v0.56396h-1.36719v7.1001h1.36719v0.56348
		C40.30371,10.08008,39.12793,10.08008,38.57715,10.08008z"/>
	<path class="st3" d="M42.96875,14.09814c-0.23047,0-0.9082,0-1.09668,0.01416v-0.20264h0.2168
		c0.61426,0,0.63574-0.08398,0.63574-0.33545V9.93311c-0.38477,0.18164-0.7334,0.18164-0.89453,0.18164V9.91211
		c0.71973,0,1.06934-0.2583,1.2373-0.44727c0.13965,0,0.13965,0.00732,0.13965,0.16797v3.94141
		c0,0.25146,0.02051,0.33545,0.63574,0.33545h0.2168v0.20264C43.87109,14.09814,43.2002,14.09814,42.96875,14.09814z"/>
</g>
<g>
	<path class="st3" d="M9.87061,36.45264c-0.87549,0-0.92334,0.10791-0.99561,0.26367l-3.18994,7.20801
		C5.55273,44.2124,5.39697,44.2124,5.20508,44.2124c-0.33594,0-0.38379-0.09619-0.47949-0.31201l-3.31055-7.44775H0.31201v-0.56396
		c0.41943,0.03613,1.42725,0.03613,1.89502,0.03613c0.51563,0,1.66699,0,2.12256-0.03613v0.56396H3.20215l2.55469,5.74463
		l2.42285-5.45703c0.01172-0.03613,0.04785-0.0957,0.04785-0.14404c0-0.14355-0.94775-0.14355-1.05566-0.14355v-0.56396
		c0.46777,0.03613,1.0918,0.03613,1.57129,0.03613l1.35547-0.03613v0.56396H9.87061z"/>
	<path class="st3" d="M11.00293,48.09814c-0.23047,0-0.9082,0-1.09717,0.01416v-0.20264h0.2168
		c0.61475,0,0.63574-0.08398,0.63574-0.33545v-3.64111c-0.38428,0.18164-0.7334,0.18164-0.89453,0.18164v-0.20264
		c0.72021,0,1.06934-0.2583,1.2373-0.44727c0.13965,0,0.13965,0.00732,0.13965,0.16797v3.94141
		c0,0.25146,0.021,0.33545,0.63574,0.33545h0.2168v0.20264C11.90479,48.09814,11.23389,48.09814,11.00293,48.09814z"/>
</g>
<g>
	<path class="st3" d="M38.57715,77.08008c-0.55176,0-1.72754,0-2.21875,0.03613v-0.56348h1.36719v-7.1001H36.3584v-0.56396
		c0.49121,0.03613,1.66699,0.03613,2.21875,0.03613c0.55078,0,1.72656,0,2.21875-0.03613v0.56396h-1.36719v7.1001h1.36719v0.56348
		C40.30371,77.08008,39.12793,77.08008,38.57715,77.08008z"/>
	<path class="st3" d="M42.96875,81.09814c-0.23047,0-0.9082,0-1.09668,0.01416v-0.20264h0.2168
		c0.61426,0,0.63574-0.08398,0.63574-0.33545v-3.64111c-0.38477,0.18164-0.7334,0.18164-0.89453,0.18164v-0.20264
		c0.71973,0,1.06934-0.2583,1.2373-0.44727c0.13965,0,0.13965,0.00732,0.13965,0.16797v3.94141
		c0,0.25146,0.02051,0.33545,0.63574,0.33545h0.2168v0.20264C43.87109,81.09814,43.2002,81.09814,42.96875,81.09814z"/>
</g>
<rect x="172.29199" y="13.76807" class="st0" width="55" height="55"/>
<g>
	<path id="path1132_8_" class="st1" d="M252.29199,23.76807h14"/>
	<circle class="st1" cx="269.29199" cy="23.76807" r="3"/>
</g>
<g>
	<path id="path1132_7_" class="st1" d="M252.29199,58.76807h14"/>
	<circle class="st1" cx="269.29199" cy="58.76807" r="3"/>
</g>
<line class="st1" x1="142.29199" y1="23.76807" x2="172.29199" y2="23.76807"/>
<line class="st1" x1="142.29199" y1="58.76807" x2="172.29199" y2="58.76807"/>
<line class="st1" x1="252.29199" y1="23.76807" x2="227.29199" y2="23.76807"/>
<line class="st1" x1="252.29199" y1="58.76807" x2="227.29199" y2="58.76807"/>
<line class="st4" x1="277.79199" y1="24.04914" x2="282.79199" y2="24.04914"/>
<line class="st4" x1="280.29199" y1="26.54914" x2="280.29199" y2="21.54914"/>
<line class="st4" x1="277.79199" y1="58.76807" x2="282.79199" y2="58.76807"/>
<polyline class="st2" points="256.29199,20.26807 242.29199,20.26807 245.29199,17.26807 "/>
<polyline class="st2" points="242.29199,62.26807 256.29199,62.26807 253.29199,65.26807 "/>
<g>
	<path class="st3" d="M247.57715,10.08008c-0.55176,0-1.72754,0-2.21875,0.03613V9.55273h1.36719v-7.1001h-1.36719V1.88867
		c0.49121,0.03613,1.66699,0.03613,2.21875,0.03613c0.55078,0,1.72656,0,2.21875-0.03613v0.56396h-1.36719v7.1001h1.36719v0.56348
		C249.30371,10.08008,248.12793,10.08008,247.57715,10.08008z"/>
	<path class="st3" d="M253.08691,14.1123h-2.55078v-0.16748l1.41211-1.57959c0.39844-0.44727,0.74121-0.96436,0.74121-1.55859
		c0-0.64307-0.36426-1.13916-0.95801-1.13916c-0.4541,0-0.83105,0.32178-0.96387,0.79688
		c0.02051-0.00684,0.03418-0.00684,0.09766-0.00684c0.19531,0,0.32813,0.13281,0.32813,0.32813
		c0,0.22363-0.18164,0.32861-0.32813,0.32861c-0.02148,0-0.3291,0-0.3291-0.35645c0-0.60107,0.47559-1.29297,1.28613-1.29297
		s1.44629,0.53809,1.44629,1.3418c0,0.69189-0.39063,1.05518-1.45313,2.03369c-0.18164,0.16797-0.6084,0.61523-0.79688,0.77588
		h1.29297c0.20996,0,0.6084,0,0.65723-0.06299c0.06934-0.11182,0.12598-0.49609,0.14648-0.61523h0.15332L253.08691,14.1123z"/>
</g>
<g>
	<path class="st3" d="M284.87109,36.45264c-0.87598,0-0.92383,0.10791-0.99609,0.26367l-3.18945,7.20801
		c-0.13281,0.28809-0.28906,0.28809-0.48047,0.28809c-0.33594,0-0.38379-0.09619-0.47949-0.31201l-3.31055-7.44775h-1.10254
		v-0.56396c0.41895,0.03613,1.42676,0.03613,1.89453,0.03613c0.51563,0,1.66699,0,2.12305-0.03613v0.56396h-1.12793l2.55469,5.74463
		l2.42285-5.45703c0.01172-0.03613,0.04785-0.0957,0.04785-0.14404c0-0.14355-0.94824-0.14355-1.05566-0.14355v-0.56396
		c0.46777,0.03613,1.0918,0.03613,1.57129,0.03613l1.35547-0.03613v0.56396H284.87109z"/>
	<path class="st3" d="M287.12109,48.1123h-2.55078v-0.16748l1.41211-1.57959c0.39844-0.44727,0.74023-0.96436,0.74023-1.55859
		c0-0.64307-0.36328-1.13916-0.95703-1.13916c-0.45508,0-0.83203,0.32178-0.96484,0.79688
		c0.02148-0.00684,0.03516-0.00684,0.09766-0.00684c0.19629,0,0.3291,0.13281,0.3291,0.32813
		c0,0.22363-0.18164,0.32861-0.3291,0.32861c-0.02051,0-0.32813,0-0.32813-0.35645c0-0.60107,0.47559-1.29297,1.28613-1.29297
		s1.44629,0.53809,1.44629,1.3418c0,0.69189-0.39063,1.05518-1.45313,2.03369c-0.18164,0.16797-0.6084,0.61523-0.79688,0.77588
		h1.29297c0.20898,0,0.60742,0,0.65625-0.06299c0.07031-0.11182,0.12695-0.49609,0.14746-0.61523h0.15332L287.12109,48.1123z"/>
</g>
<g>
	<path class="st3" d="M247.57715,77.08008c-0.55176,0-1.72754,0-2.21875,0.03613v-0.56348h1.36719v-7.1001h-1.36719v-0.56396
		c0.49121,0.03613,1.66699,0.03613,2.21875,0.03613c0.55078,0,1.72656,0,2.21875-0.03613v0.56396h-1.36719v7.1001h1.36719v0.56348
		C249.30371,77.08008,248.12793,77.08008,247.57715,77.08008z"/>
	<path class="st3" d="M253.08691,81.1123h-2.55078v-0.16748l1.41211-1.57959c0.39844-0.44727,0.74121-0.96436,0.74121-1.55859
		c0-0.64307-0.36426-1.13916-0.95801-1.13916c-0.4541,0-0.83105,0.32178-0.96387,0.79688
		c0.02051-0.00684,0.03418-0.00684,0.09766-0.00684c0.19531,0,0.32813,0.13281,0.32813,0.32813
		c0,0.22363-0.18164,0.32861-0.32813,0.32861c-0.02148,0-0.3291,0-0.3291-0.35645c0-0.60107,0.47559-1.29297,1.28613-1.29297
		s1.44629,0.53809,1.44629,1.3418c0,0.69189-0.39063,1.05518-1.45313,2.03369c-0.18164,0.16797-0.6084,0.61523-0.79688,0.77588
		h1.29297c0.20996,0,0.6084,0,0.65723-0.06299c0.06934-0.11182,0.12598-0.49609,0.14648-0.61523h0.15332L253.08691,81.1123z"/>
</g>
<g>
	<path class="st3" d="M96.93333,48.76368c-0.67188,0-1.38574-0.04199-2.07861-0.04199c-0.71387,0-1.46973,0.04199-2.1626,0.04199
		c-0.08398,0-0.29395,0-0.29395-0.20996c0-0.39893,0.18896-0.39893,0.48291-0.39893c1.30176-0.021,1.25977-0.58789,1.23877-0.92383
		l-0.23096-3.38037h-4.87108l-1.53271,2.7085c-0.18896,0.33594-0.35693,0.60889-0.35693,0.90283
		c0,0.39893,0.29395,0.65088,0.79785,0.69287c0.12598,0,0.29395,0.021,0.29395,0.20996c0,0.39893-0.23096,0.39893-0.37793,0.39893
		c-0.5459,0-1.15479-0.04199-1.72168-0.04199c-0.5249,0-1.0918,0.04199-1.5957,0.04199c0,0-0.25195,0-0.25195-0.20996
		c0-0.35693,0.16797-0.37793,0.39893-0.39893c1.0498-0.10498,1.6377-0.58789,2.28857-1.74268l6.9917-12.26172
		c0.14697-0.25195,0.20996-0.37793,0.50391-0.37793s0.31494,0.06299,0.33594,0.50391l0.92383,13.18555
		c0.04199,0.5459,0.14697,0.69287,1.17578,0.69287c0.27295,0,0.41992,0,0.41992,0.23096
		C97.31126,48.76368,97.0593,48.76368,96.93333,48.76368z M93.36399,36.25l-3.98926,6.9917h4.47217L93.36399,36.25z"/>
</g>
<g>
	<path class="st3" d="M200.11745,48.43823h-6.65576c-0.33594,0-0.50391,0-0.50391-0.20996
		c0-0.39893,0.18895-0.39893,0.56688-0.39893c1.28076,0,1.40674-0.16797,1.5957-0.90283l2.87646-11.56885
		c0.04199-0.12598,0.04199-0.18896,0.04199-0.31494c0-0.33594-0.58789-0.33594-1.11279-0.33594c-0.39894,0-0.5459,0-0.5459-0.20996
		c0-0.39893,0.18895-0.39893,0.56688-0.39893h6.23584c2.28857,0,3.44336,1.36475,3.44336,2.83447
		c0,1.84766-1.84766,3.56934-4.09424,4.01025c1.63771,0.20996,2.87646,1.23877,2.87646,2.87646
		C205.40845,46.04468,202.9939,48.43823,200.11745,48.43823z M201.58716,41.19458h-3.59033l-1.46973,5.96289
		c-0.08397,0.29395-0.08397,0.33594-0.08397,0.41992c0,0.23096,0.021,0.25195,0.62988,0.25195h2.58252
		c2.22559,0,4.03125-2.05762,4.03125-4.26221C203.68677,42.49634,203.22485,41.19458,201.58716,41.19458z M202.90991,34.70679
		h-2.45654c-0.69287,0-0.83984,0-1.02881,0.79785l-1.30176,5.27002h2.75049c2.39355,0,4.05225-2.12061,4.05225-3.94727
		C204.92554,35.94556,204.5686,34.70679,202.90991,34.70679z"/>
</g>
<g>
</g>
<g>
</g>
<g>
</g>
<g>
</g>
<g>
</g>
<g>
</g>
<g>
</g>
<g>
</g>
<g>
</g>
<g>
</g>
<g>
</g>
</svg>
