<?xml version="1.0" encoding="utf-8"?>
<!-- Generator: Adobe Illustrator 23.0.3, SVG Export Plug-In . SVG Version: 6.00 Build 0)  -->
<svg version="1.1" id="Layer_1" xmlns="http://www.w3.org/2000/svg" xmlns:xlink="http://www.w3.org/1999/xlink" x="0px" y="0px"
	 viewBox="0 0 174 92.35645" style="enable-background:new 0 0 174 92.35645;" xml:space="preserve">
<style type="text/css">
	.st0{fill:none;stroke:#8FF4DD;stroke-width:2;stroke-miterlimit:10;}
	.st1{fill:#8FF4DD;}
	.st2{fill:none;stroke:#FD1D53;stroke-width:2;stroke-linecap:round;stroke-linejoin:round;}
</style>
<title>UnitStepFunction</title>
<g>
	<g>
		<line class="st0" x1="39" y1="3.95598" x2="39" y2="75"/>
		<polygon class="st1" points="34.547,12.232 35.864,12.71 39,4.093 42.136,12.71 43.452,12.232 39,0 		"/>
	</g>
	<g>
		<line class="st0" x1="1.5" y1="75" x2="170.04401" y2="75"/>
		<polygon class="st1" points="161.76801,79.453 161.28999,78.136 169.907,75 161.28999,71.864 161.76801,70.548 174,75 		"/>
	</g>
</g>
<g>
	<polyline class="st2" points="1,75 39,75 39,25 163,25 	"/>
</g>
<g id="Layer_3">
	<path class="st1" d="M31.77832,28.63818c-0.47949,0-1.52246,0-1.94238,0.03614v-0.37159h0.38379
		c1.0791,0,1.11523-0.144,1.11523-0.57568v-6.21289c-0.49359,0.221-1.03072,0.32765-1.57129,0.312V21.4541
		c0.80151,0.05057,1.5892-0.22645,2.18262-0.76758c0.27637,0,0.27637,0.02442,0.27637,0.312v6.72851
		c0,0.44336,0.03613,0.57568,1.11523,0.57568h0.38379v0.37159C33.30176,28.63818,32.25879,28.63818,31.77832,28.63818z"/>
	<path class="st1" d="M40.76953,86.54688c-0.47005,1.14568-1.77985,1.69338-2.92552,1.22334
		c-0.49156-0.20168-0.89554-0.57137-1.13991-1.04317c-0.41412-0.90474-0.59956-1.89738-0.53999-2.89062
		c-0.05142-0.92897,0.09985-1.858,0.44336-2.72266c0.32533-0.86801,1.16-1.43885,2.08691-1.42725
		c0.88669,0.00124,1.68793,0.52907,2.03906,1.34327c0.62669,1.78358,0.63942,3.72545,0.03613,5.51709L40.76953,86.54688z
		 M40.09766,81.354c-0.22754-1.1875-1.01953-1.40332-1.41499-1.40332c-0.2998,0-1.19922,0.10791-1.42676,1.53516
		c-0.08315,0.7324-0.11545,1.46968-0.09668,2.20654c-0.02155,0.84573,0.02254,1.69185,0.13184,2.53076
		c0.21582,1.15137,0.92381,1.45118,1.3916,1.45118c0.53999,0,1.22363-0.35987,1.40332-1.499
		c0.11319-0.8225,0.15729-1.65305,0.13184-2.48291C40.23991,82.91099,40.19974,82.12904,40.09766,81.354z"/>
</g>
<g>
	<path class="st1" d="M168.15527,87.79492c-0.71973,0-1.03125-0.54004-1.12793-0.82813
		c-0.26367,0.50391-0.64746,0.82813-1.13867,0.82813c-0.48047,0-1.00781-0.2168-1.00781-0.69629
		c0-0.32324,0.24023-0.58789,0.55176-0.58789c0.2041,0,0.37207,0.12012,0.37207,0.34863c0,0.14355-0.08398,0.43164-0.43164,0.52734
		c0.21582,0.16797,0.47949,0.16797,0.53906,0.16797c0.54004,0,0.83984-0.64746,0.97168-1.05566l0.49219-1.97852
		c0.0957-0.37207,0.21582-0.85156,0.21582-1.12793c0-0.5752-0.27637-0.76758-0.55176-0.76758
		c-0.55176,0-1.12793,0.57617-1.40332,1.4873c-0.06055,0.19238-0.07227,0.21582-0.2041,0.21582
		c-0.05957,0-0.16797,0-0.16797-0.10742c0-0.24023,0.59961-1.83496,1.79883-1.83496c0.59961,0,0.97168,0.41992,1.10352,0.81543
		c0.17969-0.32422,0.55176-0.81543,1.15137-0.81543c0.34766,0,1.00781,0.13184,1.00781,0.69531
		c0,0.43164-0.32422,0.58789-0.54004,0.58789c-0.17969,0-0.37207-0.0957-0.37207-0.34766c0-0.24023,0.15625-0.45605,0.41992-0.52832
		c-0.21582-0.16797-0.46777-0.16797-0.52734-0.16797c-0.71973,0-0.95996,0.92383-1.1875,1.84766l-0.27539,1.09082
		c-0.14453,0.58789-0.24023,0.97168-0.24023,1.22363c0,0.21582,0.07227,0.76758,0.5752,0.76758
		c0.58789,0,1.15137-0.66016,1.40332-1.47559c0.06055-0.20313,0.06055-0.22754,0.2041-0.22754c0.04785,0,0.15625,0,0.15625,0.1084
		C169.94238,86.19922,169.33008,87.79492,168.15527,87.79492z"/>
</g>
<g>
	<path class="st1" d="M16.94336,10.53662c-0.15576,0.34766-0.396,0.6958-0.86377,0.6958c-0.41943,0-0.7915-0.25195-0.92334-0.71973
		c-0.38379,0.47949-0.80371,0.71973-1.30713,0.71973c-0.58789,0-1.29541-0.28809-1.29541-1.36768
		c0-0.46729,0.15576-1.0791,0.53955-2.14648c0.25195-0.6958,0.37207-1.00732,0.37207-1.30762
		c0-0.2876-0.13184-0.34766-0.27588-0.34766c-0.6958,0-1.00732,1.13965-1.10352,1.49902
		c-0.04785,0.16797-0.06006,0.2041-0.20361,0.2041c-0.06006,0-0.16797,0-0.16797-0.10791c0-0.07178,0.40771-1.83496,1.49902-1.83496
		c0.58789,0,0.87549,0.45557,0.87549,0.93555c0,0.23975-0.06006,0.39551-0.15576,0.67139
		c-0.27588,0.76758-0.6958,1.90723-0.6958,2.62695c0,0.39551,0.10791,0.93506,0.64795,0.93506
		c0.55127,0,0.99512-0.41943,1.23486-0.92334c0.02441-0.06006,0.02441-0.19189,0.02441-0.19189l0.86328-3.46631
		c0.03613-0.16748,0.13184-0.46729,0.46777-0.46729c0.15576,0,0.2998,0.10791,0.2998,0.2876c0,0.04785,0,0.07178-0.04785,0.23975
		l-0.85156,3.40625c-0.04785,0.18018-0.09619,0.45557-0.09619,0.63574c0,0.22803,0.06006,0.47949,0.32422,0.47949
		c0.33545,0,0.56348-0.41943,0.80322-1.41504c0.07227-0.27588,0.08398-0.2876,0.22803-0.2876c0.04785,0,0.15576,0,0.15576,0.10791
		C17.29102,9.43311,17.14697,10.1167,16.94336,10.53662z"/>
	<path class="st1" d="M20.80859,14.12256c-0.13184,0-1.11572-0.7793-1.82324-2.21875c-0.62354-1.2832-0.7915-2.71045-0.7915-3.77783
		c0-1.4751,0.27588-2.7583,0.8877-3.96973c0.5874-1.17529,1.5708-2.03906,1.72705-2.03906
		c0.04785,0,0.10791,0.02393,0.10791,0.09619c0,0.03564,0,0.05957-0.12012,0.16797
		c-1.39111,1.41504-1.95508,3.41797-1.95508,5.74463c0,2.44678,0.67188,4.42529,1.87109,5.63672
		c0.2041,0.2041,0.2041,0.22803,0.2041,0.26416C20.9165,14.09863,20.85645,14.12256,20.80859,14.12256z"/>
	<path class="st1" d="M25.47656,11.23242c-0.71924,0-1.03125-0.54004-1.12744-0.82764
		c-0.26367,0.50342-0.64746,0.82764-1.13916,0.82764c-0.47998,0-1.00732-0.21631-1.00732-0.6958
		c0-0.32373,0.23975-0.58789,0.55176-0.58789c0.20361,0,0.37158,0.12012,0.37158,0.34814c0,0.14404-0.08398,0.43164-0.43164,0.52783
		c0.21582,0.16748,0.47949,0.16748,0.53955,0.16748c0.53955,0,0.83936-0.64746,0.97168-1.05518l0.4917-1.979
		c0.0957-0.37158,0.21582-0.85156,0.21582-1.12744c0-0.57568-0.27588-0.76758-0.55176-0.76758
		c-0.55176,0-1.12744,0.57568-1.40332,1.4873c-0.06006,0.19189-0.07178,0.21582-0.20361,0.21582
		c-0.06006,0-0.16797,0-0.16797-0.10791c0-0.23975,0.59961-1.83496,1.79883-1.83496c0.59961,0,0.97168,0.41992,1.10352,0.81543
		c0.17969-0.32373,0.55176-0.81543,1.15137-0.81543c0.34766,0,1.00732,0.13184,1.00732,0.6958
		c0,0.43164-0.32373,0.5874-0.53955,0.5874c-0.18018,0-0.37207-0.0957-0.37207-0.34766c0-0.23975,0.15625-0.45605,0.41992-0.52783
		c-0.21582-0.16797-0.46777-0.16797-0.52783-0.16797c-0.71924,0-0.95947,0.92383-1.18701,1.84717l-0.27588,1.09131
		C25.021,9.58936,24.9248,9.97314,24.9248,10.22461c0,0.21631,0.07227,0.76758,0.57568,0.76758
		c0.58789,0,1.15137-0.65967,1.40332-1.4751c0.06006-0.20361,0.06006-0.22754,0.2041-0.22754c0.04785,0,0.15576,0,0.15576,0.10791
		C27.26367,9.63721,26.65186,11.23242,25.47656,11.23242z"/>
	<path class="st1" d="M30.68506,12.08398c-0.58789,1.17529-1.57129,2.03857-1.72705,2.03857
		c-0.04785,0-0.10791-0.02393-0.10791-0.0957c0-0.03613,0-0.06006,0.12012-0.16797c1.39111-1.41553,1.95459-3.41797,1.95459-5.74512
		c0-2.44629-0.67139-4.42529-1.87061-5.63672c-0.2041-0.2041-0.2041-0.22803-0.2041-0.26367
		c0-0.07227,0.06006-0.09619,0.10791-0.09619c0.13184,0,1.11523,0.77979,1.82275,2.21875
		c0.67188,1.39111,0.79199,2.87842,0.79199,3.79004C31.57275,9.56494,31.29688,10.86035,30.68506,12.08398z"/>
</g>
</svg>
