<?xml version="1.0" encoding="utf-8"?>
<!-- Generator: Adobe Illustrator 23.0.3, SVG Export Plug-In . SVG Version: 6.00 Build 0)  -->
<svg version="1.1" id="Layer_1" xmlns="http://www.w3.org/2000/svg" xmlns:xlink="http://www.w3.org/1999/xlink" x="0px" y="0px"
	 viewBox="0 0 250 167.42285" style="enable-background:new 0 0 250 167.42285;" xml:space="preserve">
<style type="text/css">
	.st0{fill:none;stroke:#8FF4DD;stroke-width:2;stroke-miterlimit:10;}
	.st1{fill:#8FF4DD;}
	.st2{fill:none;}
	.st3{fill:none;stroke:#FD1D53;stroke-width:2;stroke-miterlimit:10;}
	.st4{fill:#FD1D53;}
</style>
<title>UnitImpulseFunction</title>
<g>
	<line class="st0" x1="125" y1="0" x2="125" y2="112.5"/>
	<g>
		<line class="st0" x1="0" y1="111.75" x2="246.04401" y2="111.75"/>
		<polygon class="st1" points="237.76801,116.203 237.28999,114.886 245.907,111.75 237.28999,108.614 237.76801,107.298 
			250,111.75 		"/>
	</g>
</g>
<g>
	<g>
		<line class="st2" x1="125" y1="112.75" x2="125" y2="11.75"/>
		<g>
			<line class="st3" x1="125" y1="112.75" x2="125" y2="13.2683"/>
			<polygon class="st4" points="130.726,17.907 129.7,18.862 125.001,13.806 120.301,18.862 119.276,17.907 125.001,11.75 			"/>
		</g>
	</g>
	<g>
		<line class="st2" x1="25" y1="112.75" x2="25" y2="61.75"/>
		<g>
			<line class="st3" x1="25" y1="112.75" x2="25" y2="63.2683"/>
			<polygon class="st4" points="30.726,67.907 29.7,68.862 25.001,63.806 20.301,68.862 19.276,67.907 25.001,61.75 			"/>
		</g>
	</g>
	<g>
		<line class="st2" x1="200" y1="110.75" x2="200" y2="150.75"/>
		<g>
			<line class="st3" x1="200" y1="110.75" x2="200" y2="149.2317"/>
			<polygon class="st4" points="194.274,144.593 195.3,143.638 199.99899,148.694 204.69901,143.638 205.724,144.593 
				199.99899,150.75 			"/>
		</g>
	</g>
</g>
<g id="Layer_3">
	<g>
		<path class="st1" d="M134.77832,15.38818c-0.47949,0-1.52246,0-1.94238,0.03614v-0.37159h0.38379
			c1.0791,0,1.11523-0.144,1.11523-0.57568V8.26416c-0.49359,0.221-1.03072,0.32765-1.57129,0.312V8.2041
			c0.80151,0.05057,1.5892-0.22645,2.18262-0.76758c0.27637,0,0.27637,0.02442,0.27637,0.312v6.72851
			c0,0.44336,0.03613,0.57568,1.11523,0.57568h0.38379v0.37159C136.30176,15.38818,135.25879,15.38818,134.77832,15.38818z"/>
		<path class="st1" d="M142.76953,14.29688c-0.47005,1.14567-1.77985,1.69338-2.92552,1.22334
			c-0.49156-0.20168-0.89554-0.57137-1.13991-1.04317c-0.41412-0.90474-0.59956-1.89739-0.53999-2.89062
			c-0.05142-0.92897,0.09985-1.858,0.44336-2.72266c0.32535-0.86801,1.16-1.43884,2.08691-1.42725
			c0.88669,0.00124,1.68793,0.52907,2.03906,1.34327c0.36778,0.8879,0.53163,1.847,0.47949,2.80664
			C143.26335,12.51137,143.11206,13.43621,142.76953,14.29688z M142.09766,9.104c-0.22754-1.1875-1.01953-1.40332-1.41499-1.40332
			c-0.2998,0-1.19922,0.10791-1.42676,1.53516c-0.08315,0.7324-0.11545,1.46968-0.09668,2.20654
			c-0.02155,0.84573,0.02254,1.69185,0.13184,2.53076c0.21582,1.15137,0.92381,1.45118,1.3916,1.45118
			c0.53999,0,1.22363-0.35987,1.40332-1.499c0.11319-0.82251,0.15729-1.65305,0.13184-2.48291
			C142.23991,10.66098,142.19974,9.87904,142.09766,9.104z"/>
		<path class="st1" d="M150.61621,7.72461c-0.09563,0.1995-0.29449,0.32907-0.51563,0.33594
			c-0.04485-0.0022-0.08919-0.01041-0.13184-0.02442c-0.55139-0.29429-1.13504-0.52369-1.73926-0.68359
			c-0.04324-0.0097-0.08757-0.01365-0.13184-0.01172c-0.10703-0.00355-0.21349,0.01698-0.31152,0.06006
			c-0.12347,0.06375-0.22414,0.16423-0.28809,0.2876c-0.02292,0.0446-0.03528,0.09387-0.03613,0.144
			c0,0.51562,0.9834,1.45117,1.66701,2.11084c0.43674,0.38352,0.76395,0.87601,0.94824,1.42725
			c0.08147,0.27225,0.12163,0.55518,0.11914,0.83935c-0.00322,0.34388-0.04747,0.68615-0.13184,1.01953
			c-0.27615,1.25953-1.33118,2.19849-2.61424,2.32666c-0.7482,0.03012-1.47334-0.26238-1.99123-0.80322
			c-0.33527-0.37634-0.51898-0.86367-0.51563-1.36768c0.00113-0.19794,0.02539-0.39508,0.07227-0.5874
			c0.21991-0.77221,0.70372-1.44281,1.36719-1.895c0.47253-0.33366,1.00662-0.57017,1.57129-0.6958
			c-0.505-0.60561-0.82924-1.34122-0.93555-2.12256c-0.00308-0.19466,0.03798-0.38749,0.12012-0.564
			c0.10715-0.2111,0.27385-0.38614,0.47949-0.50342c0.20731-0.09868,0.43051-0.15969,0.65918-0.18018h0.168
			c0.64227,0.03908,1.2802,0.13136,1.90723,0.27588c0.1902,0.02641,0.32997,0.19185,0.32422,0.38379
			C150.67944,7.57685,150.65837,7.65618,150.61621,7.72461z M149.03322,11.98242c-0.18062-0.467-0.43121-0.9038-0.74323-1.29542
			l-0.07227-0.10791c-0.45284,0.10439-0.87305,0.31852-1.22363,0.62354c-0.48155,0.45033-0.81583,1.03563-0.959,1.6792
			c-0.06496,0.26305-0.1013,0.53236-0.1084,0.80322c-0.00969,0.29095,0.06529,0.57846,0.21582,0.82764
			c0.30475,0.42864,0.80666,0.67279,1.332,0.64794c0.75488,0,1.36719-0.82763,1.58299-1.66748
			c0.06039-0.24321,0.09254-0.49257,0.09581-0.74315c-0.00177-0.2604-0.04225-0.51909-0.12012-0.76758L149.03322,11.98242z"/>
		<path class="st1" d="M155.39355,18.42285c-0.82779-0.5558-1.47751-1.33878-1.87109-2.25488
			c-1.04231-2.35398-1.05505-5.03612-0.03516-7.3999c0.3912-0.95034,1.05437-1.76399,1.90625-2.33887
			c0.05904-0.00731,0.11281,0.03462,0.12012,0.09365c0.00108,0.00879,0.00108,0.01768,0,0.02647
			c0,0.03564,0,0.06006-0.15625,0.20361c-1.36864,1.5611-2.06287,3.60096-1.93066,5.67285
			c-0.11865,2.04374,0.55579,4.05445,1.88281,5.61328c0.2041,0.20362,0.2041,0.22754,0.2041,0.26367
			c0.00731,0.05903-0.03462,0.11281-0.09366,0.12011C155.41122,18.42394,155.40234,18.42394,155.39355,18.42285z"/>
		<path class="st1" d="M163.59756,16.08398c-0.39194,0.9502-1.05533,1.76374-1.90723,2.33887
			c-0.06259,0.00375-0.11636-0.04395-0.12012-0.10654c-0.00027-0.00452-0.00027-0.00906,0-0.01358c0-0.03613,0-0.06,0.15625-0.2041
			c1.36722-1.56192,2.06125-3.60117,1.93066-5.67285c0.13995-2.03863-0.52795-4.05045-1.85938-5.60058
			c-0.22754-0.21582-0.22754-0.24024-0.22754-0.27588c-0.00391-0.06244,0.04356-0.11622,0.106-0.12012
			c0.0047-0.00029,0.00941-0.00029,0.01411,0c0.82779,0.55579,1.47751,1.33878,1.87109,2.25488
			C164.60339,11.03807,164.61649,13.71994,163.59756,16.08398z"/>
		<path class="st1" d="M159.23094,15.13063c-0.71924,0-1.03125-0.54004-1.12744-0.82764
			c-0.26367,0.50342-0.64746,0.82764-1.13916,0.82764c-0.47998,0-1.00732-0.21631-1.00732-0.6958
			c0-0.32373,0.23975-0.58789,0.55176-0.58789c0.20361,0,0.37158,0.12012,0.37158,0.34814
			c0,0.14404-0.08398,0.43164-0.43164,0.52783c0.21582,0.16748,0.47949,0.16748,0.53955,0.16748
			c0.53955,0,0.83936-0.64746,0.97168-1.05518l0.4917-1.979c0.0957-0.37158,0.21582-0.85156,0.21582-1.12744
			c0-0.57568-0.27588-0.76758-0.55176-0.76758c-0.55176,0-1.12744,0.57568-1.40332,1.4873
			c-0.06006,0.19189-0.07178,0.21582-0.20361,0.21582c-0.06006,0-0.16797,0-0.16797-0.10791
			c0-0.23975,0.59961-1.83496,1.79883-1.83496c0.59961,0,0.97168,0.41992,1.10353,0.81543
			c0.17969-0.32373,0.55176-0.81543,1.15137-0.81543c0.34766,0,1.00731,0.13184,1.00731,0.6958
			c0,0.43164-0.32373,0.5874-0.53955,0.5874c-0.18018,0-0.37207-0.0957-0.37207-0.34766c0-0.23975,0.15625-0.45605,0.41992-0.52783
			c-0.21582-0.16797-0.46776-0.16797-0.52783-0.16797c-0.71924,0-0.95946,0.92383-1.187,1.84717l-0.27589,1.09131
			c-0.14404,0.58791-0.24023,0.97169-0.24023,1.22316c0,0.21631,0.07227,0.76758,0.57567,0.76758
			c0.58789,0,1.15138-0.65967,1.40332-1.4751c0.06007-0.20361,0.06007-0.22754,0.2041-0.22754c0.04785,0,0.15576,0,0.15576,0.10791
			C161.01805,13.53542,160.40623,15.13063,159.23094,15.13063z"/>
	</g>
	<g>
		<path class="st1" d="M170.666,162.18164v-0.6958h3.17871v0.6958H170.666z"/>
		<path class="st1" d="M178.97949,162.44531v1.04346c0,0.43164,0.02441,0.564,0.91211,0.564h0.25195v0.3716
			c-0.49219-0.03613-1.12791-0.03613-1.63184-0.03613c-0.50293,0-1.12695,0-1.61914,0.03613v-0.3716h0.25195
			c0.8877,0,0.91211-0.13232,0.91211-0.564v-1.04346h-3.19043v-0.37158l3.68164-5.625c0.0957-0.144,0.13184-0.144,0.24023-0.144
			c0.19141,0,0.19141,0.07227,0.19141,0.312v5.457h1.19922v0.37158H178.97949z M178.12793,157.6001l-2.92578,4.47363h2.92578
			V157.6001z"/>
		<path class="st1" d="M187.4502,156.72461c-0.09564,0.19949-0.29449,0.32906-0.51563,0.33594
			c-0.04485-0.0022-0.08919-0.01041-0.13184-0.02441c-0.55139-0.2943-1.13503-0.52368-1.73924-0.68359
			c-0.04324-0.0097-0.08757-0.01364-0.13184-0.01172c-0.10703-0.00356-0.21349,0.01698-0.31152,0.06006
			c-0.12347,0.06375-0.22414,0.16423-0.28809,0.2876c-0.02292,0.0446-0.03528,0.09386-0.03613,0.144
			c0,0.51563,0.9834,1.45117,1.66701,2.11084c0.43674,0.38351,0.76395,0.87601,0.94824,1.42725
			c0.08147,0.27225,0.12163,0.55519,0.11914,0.83936c-0.00322,0.34387-0.04749,0.68614-0.13184,1.01953
			c-0.27617,1.25954-1.33119,2.19849-2.61426,2.32666c-0.7482,0.03012-1.47333-0.26239-1.99121-0.80322
			c-0.33527-0.37634-0.51898-0.86368-0.51563-1.36768c0.00114-0.19795,0.02539-0.39508,0.07227-0.5874
			c0.21991-0.7722,0.70372-1.44281,1.36719-1.895c0.47253-0.33366,1.00662-0.57018,1.57129-0.6958
			c-0.50502-0.60561-0.82924-1.34122-0.93555-2.12256c-0.0031-0.19466,0.03798-0.38748,0.12012-0.564
			c0.10715-0.21111,0.27385-0.38612,0.47949-0.50342c0.20731-0.09868,0.43051-0.15968,0.65918-0.18018h0.168
			c0.64227,0.03908,1.2802,0.13136,1.90723,0.27588c0.1902,0.0264,0.32997,0.19185,0.32422,0.38379
			C187.51343,156.57686,187.49236,156.65617,187.4502,156.72461z M185.8672,160.98242
			c-0.18059-0.467-0.43118-0.90379-0.74316-1.29541l-0.07227-0.10791c-0.45284,0.10439-0.87305,0.31851-1.22363,0.62354
			c-0.48155,0.45032-0.81583,1.03563-0.959,1.6792c-0.06496,0.26306-0.1013,0.53236-0.1084,0.80322
			c-0.00967,0.29095,0.06529,0.57846,0.21582,0.82764c0.30475,0.42863,0.80666,0.67278,1.332,0.64793
			c0.75488,0,1.36719-0.82764,1.58299-1.66748c0.06038-0.24321,0.0925-0.49257,0.09575-0.74315
			c-0.00177-0.26039-0.04225-0.51909-0.12012-0.76758H185.8672z"/>
		<path class="st1" d="M192.22754,167.42285c-0.8278-0.55579-1.47751-1.33878-1.87109-2.25488
			c-1.04233-2.35397-1.05507-5.03613-0.03516-7.3999c0.3912-0.95035,1.05435-1.76399,1.90625-2.33887
			c0.05904-0.00731,0.11281,0.03464,0.12012,0.09367c0.00108,0.00877,0.00108,0.01767,0,0.02644
			c0,0.03564,0,0.06006-0.15625,0.20361c-1.36864,1.56111-2.06287,3.60095-1.93066,5.67285
			c-0.11865,2.04373,0.55579,4.05446,1.88281,5.61328c0.20412,0.20361,0.20412,0.22754,0.20412,0.26367
			c0.00731,0.05904-0.03464,0.11281-0.09367,0.12012C192.24521,167.42393,192.23633,167.42393,192.22754,167.42285z"/>
		<path class="st1" d="M209.05371,161.666h-6.53613c-0.168,0-0.39648,0-0.39648-0.24023c0-0.23975,0.22852-0.23975,0.39648-0.23975
			h6.53613c0.168,0,0.39551,0,0.39551,0.23975C209.44922,161.666,209.22168,161.666,209.05371,161.666z"/>
		<path class="st1" d="M213.54401,164.38818c-0.47951,0-1.52248,0-1.94238,0.03613v-0.3716h0.38379
			c1.0791,0,1.11523-0.144,1.11523-0.57568v-6.21289c-0.49359,0.22099-1.03072,0.32765-1.57129,0.312v-0.37207
			c0.80151,0.05057,1.5892-0.22644,2.18262-0.76758c0.27637,0,0.27637,0.02441,0.27637,0.312v6.72852
			c0,0.44336,0.03613,0.57568,1.11523,0.57568h0.38377v0.3716C215.06738,164.38818,214.02441,164.38818,213.54401,164.38818z"/>
		<path class="st1" d="M218.12891,164.42432c-0.35112,0-0.63576-0.28462-0.63576-0.63574s0.28462-0.63576,0.63574-0.63576
			s0.63576,0.28462,0.63576,0.63574l0,0C218.76239,164.13873,218.47908,164.42204,218.12891,164.42432z"/>
		<path class="st1" d="M222.56836,164.688c-1.20129-0.01668-2.16739-0.99342-2.1709-2.19482
			c-0.03036-0.32721,0.21027-0.61708,0.53746-0.64745c0.32721-0.03036,0.61708,0.21027,0.64745,0.53746
			c0.03036,0.32721-0.21027,0.61708-0.53746,0.64745c-0.01981,0.00185-0.03967,0.00269-0.05956,0.00253
			c-0.06894,0.0049-0.13817-0.00322-0.2041-0.02393c0.23007,0.7854,0.9444,1.32976,1.7627,1.34326
			c0.53662-0.01189,1.02614-0.30913,1.28418-0.77979c0.22693-0.51648,0.32544-1.08023,0.28709-1.64307
			c0.03442-0.51329-0.03909-1.02809-0.21582-1.51123c-0.15851-0.43471-0.55795-0.73543-1.01953-0.76758
			c-0.62656-0.00848-1.21246,0.30943-1.54688,0.83936c-0.04785,0.07227-0.07227,0.1084-0.15625,0.1084
			c-0.168,0-0.168-0.09619-0.168-0.312v-3.55029c0-0.19189,0-0.2876,0.12012-0.2876c0.04979,0.0043,0.09857,0.01651,0.14453,0.03613
			c0.502,0.22295,1.04546,0.33725,1.59473,0.33545c0.56212,0.00108,1.11804-0.11743,1.63086-0.34766
			c0.02878-0.01978,0.06198-0.03218,0.09668-0.03613c0.06441-0.00195,0.11819,0.04868,0.12015,0.11308
			c0.0002,0.00642-0.00014,0.01286-0.00101,0.01924c-0.49109,0.80165-1.37485,1.27785-2.31445,1.24707
			c-0.34534-0.00548-0.68831-0.05788-1.01953-0.15576v2.33838c0.40448-0.40105,0.95393-0.62154,1.52344-0.61133
			c1.35373,0.0975,2.373,1.27254,2.27832,2.62646C225.19678,163.47308,224.02774,164.66902,222.56836,164.688z"/>
		<path class="st1" d="M228.50879,165.084c-0.39194,0.9502-1.05533,1.76375-1.90723,2.33887
			c-0.06259,0.00375-0.11636-0.04395-0.12012-0.10654c-0.00027-0.00452-0.00027-0.00906,0-0.01358c0-0.03613,0-0.06,0.15625-0.2041
			c1.36722-1.56192,2.06125-3.60118,1.93066-5.67285c0.13995-2.03864-0.52795-4.05045-1.85938-5.60059
			c-0.22752-0.21582-0.22752-0.24023-0.22752-0.27588c-0.00389-0.06244,0.04356-0.11623,0.106-0.12012
			c0.0047-0.00029,0.00941-0.00029,0.01411,0c0.82779,0.5558,1.47751,1.33878,1.87109,2.25488
			c1.04196,2.35399,1.05505,5.03586,0.03613,7.3999H228.50879z"/>
		<path class="st1" d="M196.92993,163.89061c-0.71925,0-1.03125-0.54004-1.12744-0.82764
			c-0.26367,0.50342-0.64746,0.82764-1.13916,0.82764c-0.47998,0-1.00732-0.21631-1.00732-0.6958
			c0-0.32373,0.23975-0.58789,0.55176-0.58789c0.20361,0,0.37158,0.12013,0.37158,0.34814
			c0,0.14404-0.08398,0.43164-0.43164,0.52783c0.21582,0.16748,0.47949,0.16748,0.53955,0.16748
			c0.53955,0,0.83936-0.64746,0.97168-1.05518l0.4917-1.979c0.0957-0.37158,0.21582-0.85156,0.21582-1.12744
			c0-0.57568-0.27588-0.76758-0.55176-0.76758c-0.55176,0-1.12744,0.57568-1.40332,1.4873
			c-0.06006,0.19188-0.07178,0.21582-0.20361,0.21582c-0.06006,0-0.16797,0-0.16797-0.10791
			c0-0.23976,0.59961-1.83496,1.79883-1.83496c0.59961,0,0.97168,0.41992,1.10352,0.81543
			c0.17969-0.32373,0.55176-0.81543,1.15137-0.81543c0.34767,0,1.00732,0.13184,1.00732,0.6958
			c0,0.43164-0.32373,0.58739-0.53955,0.58739c-0.18018,0-0.37207-0.09569-0.37207-0.34766
			c0-0.23975,0.15625-0.45604,0.41992-0.52783c-0.21582-0.16797-0.46777-0.16797-0.52783-0.16797
			c-0.71924,0-0.95947,0.92383-1.18701,1.84717l-0.27588,1.09131c-0.14404,0.58792-0.24025,0.97169-0.24025,1.22318
			c0,0.21631,0.07228,0.76758,0.57568,0.76758c0.58789,0,1.15137-0.65967,1.40332-1.47511
			c0.06006-0.2036,0.06006-0.22754,0.2041-0.22754c0.04785,0,0.15576,0,0.15576,0.10791
			C198.71704,162.29541,198.10522,163.89061,196.92993,163.89061z"/>
	</g>
	<g>
		<path class="st1" d="M2.97266,55.688c-1.2013-0.01669-2.16739-0.99342-2.1709-2.19483
			c-0.03036-0.3272,0.21027-0.61707,0.53747-0.64744c0.3272-0.03036,0.61707,0.21027,0.64744,0.53748
			c0.03037,0.3272-0.21027,0.61707-0.53747,0.64744c-0.01979,0.00183-0.03967,0.00268-0.05955,0.00253
			c-0.06893,0.0049-0.13817-0.00322-0.2041-0.02392c0.23007,0.78541,0.94439,1.32976,1.76269,1.34326
			c0.53662-0.01188,1.02614-0.30914,1.28418-0.77979c0.22694-0.51648,0.32545-1.08022,0.28711-1.64306
			c0.03442-0.51329-0.0391-1.0281-0.21582-1.51123c-0.15851-0.4347-0.55795-0.73543-1.01953-0.76758
			c-0.62656-0.00848-1.21246,0.30943-1.54688,0.83935c-0.04785,0.07227-0.07226,0.1084-0.15625,0.1084
			c-0.168,0-0.168-0.09619-0.168-0.312v-3.55028c0-0.1919,0-0.2876,0.12011-0.2876c0.04979,0.0043,0.09857,0.0165,0.14453,0.03613
			c0.502,0.22294,1.04546,0.33725,1.59473,0.33545c0.56212,0.00108,1.11804-0.11743,1.63086-0.34765
			C4.93207,47.45288,4.96529,47.44047,5,47.43652c0.06441-0.00195,0.1182,0.04868,0.12015,0.11308
			c0.0002,0.00643-0.00014,0.01287-0.00101,0.01925c-0.49109,0.80165-1.37484,1.27784-2.31445,1.24707
			c-0.34533-0.00548-0.68831-0.05788-1.01953-0.15576v2.33838c0.40448-0.40105,0.95392-0.62153,1.52343-0.61133
			c1.35373,0.0975,2.37301,1.27252,2.27832,2.62646C5.6011,54.47311,4.43204,55.66904,2.97266,55.688z"/>
		<path class="st1" d="M13.12207,47.72461c-0.09563,0.1995-0.29449,0.32906-0.51562,0.33594
			c-0.04484-0.0022-0.08918-0.01041-0.13184-0.02442c-0.5514-0.2943-1.13504-0.52369-1.73926-0.68359
			c-0.04323-0.0097-0.08756-0.01364-0.13183-0.01172c-0.10703-0.00355-0.21349,0.01698-0.31153,0.06006
			c-0.12347,0.06374-0.22412,0.16423-0.28808,0.2876c-0.02291,0.0446-0.03528,0.09386-0.03614,0.144
			c0,0.51562,0.9834,1.45117,1.667,2.11084c0.43674,0.38352,0.76394,0.87601,0.94824,1.42725
			c0.08147,0.27225,0.12163,0.55518,0.11914,0.83935c-0.00322,0.34388-0.04748,0.68614-0.13184,1.01953
			c-0.27617,1.25954-1.33119,2.19849-2.61426,2.32666c-0.7482,0.03012-1.47333-0.26239-1.99121-0.80322
			c-0.33526-0.37634-0.51899-0.86368-0.51562-1.36768c0.00114-0.19794,0.02539-0.39508,0.07226-0.5874
			c0.21992-0.7722,0.70374-1.4428,1.36719-1.895C9.36122,50.56913,9.89532,50.33262,10.46,50.207
			c-0.50501-0.60561-0.82924-1.34122-0.93555-2.12256c-0.00309-0.19466,0.03798-0.38749,0.12012-0.564
			c0.10714-0.2111,0.27385-0.38613,0.47949-0.50342c0.2073-0.09868,0.43051-0.15969,0.65918-0.18018h0.168
			c0.64228,0.03909,1.2802,0.13136,1.90723,0.27588c0.1902,0.02641,0.32996,0.19185,0.32422,0.38379
			C13.18532,47.57684,13.16423,47.65617,13.12207,47.72461z M11.53907,51.98242c-0.1806-0.467-0.43119-0.9038-0.74317-1.29543
			l-0.07227-0.10791C10.2708,50.68348,9.85059,50.89761,9.5,51.20264c-0.48155,0.45033-0.81582,1.03563-0.959,1.6792
			c-0.06496,0.26305-0.10131,0.53236-0.1084,0.80322c-0.00969,0.29095,0.06529,0.57846,0.21582,0.82764
			c0.30475,0.42864,0.80665,0.67279,1.332,0.64794c0.75488,0,1.36719-0.82763,1.583-1.66748
			c0.06038-0.24322,0.09251-0.49258,0.09576-0.74316c-0.00177-0.2604-0.04225-0.51909-0.12012-0.76758H11.53907z"/>
		<path class="st1" d="M17.89941,58.42285c-0.82779-0.55579-1.4775-1.33876-1.87109-2.25485
			c-1.04232-2.35397-1.05507-5.03613-0.03516-7.3999c0.39121-0.95034,1.05436-1.76399,1.90625-2.33887
			c0.05903-0.00731,0.11281,0.03461,0.12012,0.09364c0.00109,0.0088,0.00109,0.01768,0,0.02647c0,0.03564,0,0.06006-0.15625,0.20361
			c-1.36864,1.5611-2.06287,3.60096-1.93066,5.67285c-0.11865,2.04374,0.55578,4.05445,1.88281,5.61328
			c0.2041,0.20362,0.2041,0.22754,0.2041,0.26367c0.00729,0.05903-0.03465,0.1128-0.09369,0.12009
			C17.91707,58.42394,17.90819,58.42393,17.89941,58.42285z"/>
		<path class="st1" d="M35.25,52.666h-3.34668v3.35791c0,0.168,0,0.396-0.24023,0.396c-0.23926,0-0.23926-0.228-0.23926-0.396
			V52.666h-3.3584c-0.168,0-0.39551,0-0.39551-0.24024c0-0.23974,0.22754-0.23974,0.39551-0.23974h3.3584v-3.35789
			c0-0.168,0-0.396,0.23926-0.396c0.24023,0,0.24023,0.228,0.24023,0.396V52.186H35.25c0.167,0,0.39551,0,0.39551,0.23974
			C35.64551,52.666,35.417,52.666,35.25,52.666z"/>
		<path class="st1" d="M44.17871,55.42432h-4.44922c0-0.2876,0-0.312,0.13184-0.44385l2.30273-2.56641
			c0.71806-0.70817,1.16402-1.64643,1.25977-2.65039c0-0.98388-0.51563-1.95508-1.60742-1.95508
			c-0.74731,0.01505-1.40041,0.50842-1.61914,1.22315c0.05106-0.01267,0.10388-0.01663,0.15625-0.01172
			c0.33469-0.01616,0.61913,0.24206,0.63529,0.57676c0.00075,0.01558,0.0009,0.03118,0.00045,0.04677
			c0.00279,0.34824-0.27725,0.63281-0.6255,0.6356s-0.63281-0.27725-0.6356-0.6255
			c-0.00012-0.01543,0.00032-0.03085,0.00133-0.04624c0.02484-1.21679,1.02622-2.18591,2.24317-2.1709
			c1.29697-0.10291,2.4318,0.86506,2.53471,2.16203c0.00436,0.05494,0.00679,0.11002,0.00729,0.16512
			c0,1.19922-0.71973,1.84668-2.58985,3.502L40.65332,54.501h2.1582c0.38255,0.02415,0.76656-0.00827,1.13965-0.09619
			c0.13756-0.34165,0.22633-0.70098,0.26367-1.06739h0.29981L44.17871,55.42432z"/>
		<path class="st1" d="M47.84082,56.084c-0.39193,0.9502-1.05534,1.76374-1.90723,2.33887
			c-0.06259,0.00375-0.11636-0.04395-0.12011-0.10654c-0.00027-0.00452-0.00027-0.00906,0-0.01357
			c0-0.03613,0-0.06005,0.15625-0.2041c1.36722-1.56193,2.06124-3.60117,1.93066-5.67285
			c0.13996-2.03864-0.52796-4.05046-1.85939-5.60059c-0.22754-0.21582-0.22754-0.24024-0.22754-0.27588
			c-0.0039-0.06244,0.04356-0.11622,0.106-0.12012c0.0047-0.00029,0.00941-0.00029,0.01411,0
			c0.8278,0.55579,1.47752,1.33878,1.8711,2.25488c1.04197,2.35398,1.05506,5.03586,0.03613,7.3999L47.84082,56.084z"/>
		<path class="st1" d="M22.90651,55.13062c-0.71924,0-1.03125-0.54004-1.12744-0.82764
			c-0.26367,0.50342-0.64746,0.82764-1.13916,0.82764c-0.47998,0-1.00732-0.21631-1.00732-0.6958
			c0-0.32373,0.23975-0.58789,0.55176-0.58789c0.20361,0,0.37158,0.12012,0.37158,0.34814
			c0,0.14404-0.08398,0.43164-0.43164,0.52783c0.21582,0.16748,0.47949,0.16748,0.53955,0.16748
			c0.53955,0,0.83936-0.64746,0.97168-1.05518l0.4917-1.979c0.0957-0.37158,0.21582-0.85156,0.21582-1.12744
			c0-0.57568-0.27588-0.76758-0.55176-0.76758c-0.55176,0-1.12744,0.57568-1.40332,1.4873
			c-0.06006,0.19189-0.07178,0.21582-0.20361,0.21582c-0.06006,0-0.16797,0-0.16797-0.10791
			c0-0.23975,0.59961-1.83496,1.79883-1.83496c0.59961,0,0.97168,0.41992,1.10352,0.81543
			c0.17969-0.32373,0.55176-0.81543,1.15137-0.81543c0.34766,0,1.00732,0.13184,1.00732,0.6958
			c0,0.43164-0.32373,0.5874-0.53955,0.5874c-0.18018,0-0.37207-0.0957-0.37207-0.34766c0-0.23975,0.15625-0.45605,0.41992-0.52783
			c-0.21582-0.16797-0.46777-0.16797-0.52783-0.16797c-0.71924,0-0.95947,0.92383-1.18701,1.84717l-0.27588,1.09131
			c-0.14405,0.58791-0.24025,0.97169-0.24025,1.22316c0,0.21631,0.07227,0.76758,0.57568,0.76758
			c0.58789,0,1.15137-0.65967,1.40332-1.4751c0.06006-0.20361,0.06006-0.22754,0.2041-0.22754c0.04785,0,0.15576,0,0.15576,0.10791
			C24.69361,53.53541,24.0818,55.13062,22.90651,55.13062z"/>
	</g>
	<g>
		<path class="st1" d="M19.17676,122.73193v-0.6958H22.355v0.6958H19.17676z"/>
		<path class="st1" d="M28.09033,124.97461h-4.4497c0-0.28809,0-0.312,0.13183-0.44385l2.30274-2.56641
			c0.71791-0.70842,1.1637-1.64684,1.25927-2.65088c0-0.9834-0.51562-1.95459-1.60693-1.95459
			c-0.7473,0.01505-1.40039,0.50839-1.61914,1.22311c0.0509-0.01262,0.10355-0.01659,0.15576-0.01172
			c0.33471-0.01616,0.61913,0.24208,0.63528,0.57678c0.00075,0.01558,0.0009,0.03117,0.00045,0.04675
			c0.00296,0.34811-0.27683,0.63271-0.62494,0.63567c-0.34811,0.00298-0.63271-0.27682-0.63567-0.62494
			c-0.00013-0.01563,0.00031-0.03127,0.00134-0.04686c0.02477-1.21661,1.02589-2.1857,2.24267-2.17088
			c1.29721-0.10321,2.43247,0.86473,2.53568,2.16194c0.00436,0.05479,0.0068,0.10974,0.00732,0.16472
			c0,1.19971-0.71973,1.84715-2.59082,3.50244l-1.27148,1.23537h2.15918c0.38239,0.02409,0.76623-0.00832,1.13916-0.09619
			c0.13756-0.34166,0.22633-0.70097,0.26368-1.06738h0.30029L28.09033,124.97461z"/>
	</g>
	<path class="st1" d="M127.11816,123.84717c-0.47025,1.14581-1.78032,1.69347-2.92613,1.22322
		c-0.49147-0.20171-0.89539-0.57133-1.13977-1.04305c-0.41377-0.90485-0.59904-1.89745-0.53955-2.89063
		c-0.05127-0.929,0.10017-1.85803,0.44383-2.72266c0.32524-0.86809,1.15997-1.43896,2.08691-1.42725
		c0.88652,0.00139,1.68755,0.52919,2.03857,1.34326C127.70938,120.11356,127.72211,122.05563,127.11816,123.84717z
		 M126.44629,118.6543c-0.22754-1.1875-1.019-1.40332-1.41499-1.40332c-0.2998,0-1.19922,0.10791-1.42725,1.53516
		c-0.08231,0.73247-0.11427,1.46971-0.0957,2.20654c-0.02155,0.84573,0.02254,1.69185,0.13184,2.53076
		c0.21582,1.15137,0.92334,1.45117,1.39111,1.45117c0.53955,0,1.22314-0.35986,1.40332-1.49899
		c0.11319-0.82251,0.15729-1.65305,0.13184-2.48291C126.58856,120.21129,126.54837,119.42934,126.44629,118.6543z"/>
	<g>
		<path class="st1" d="M195.41455,106.2627c-0.48,0-1.52344,0-1.94336,0.03613v-0.37158h0.38379
			c1.07959,0,1.11572-0.144,1.11572-0.57568v-6.21289c-0.49359,0.22096-1.03072,0.32761-1.57129,0.312V99.0786
			c0.8015,0.05057,1.58919-0.22644,2.18262-0.76756c0.27588,0,0.27588,0.02393,0.27588,0.312v6.72852
			c0,0.44336,0.03613,0.57568,1.11572,0.57568h0.38379v0.37158C196.9375,106.2627,195.894,106.2627,195.41455,106.2627z"/>
		<path class="st1" d="M199.99899,106.29883c-0.35112,0-0.63574-0.28464-0.63574-0.63576s0.28464-0.63574,0.63576-0.63574
			s0.63574,0.28464,0.63574,0.63576l0,0C200.63231,106.01318,200.34909,106.2964,199.99899,106.29883z"/>
		<path class="st1" d="M204.43848,106.5625c-1.20122-0.01686-2.16721-0.99348-2.1709-2.19482
			c-0.03036-0.32721,0.21027-0.61708,0.53746-0.64745c0.32721-0.03036,0.61708,0.21027,0.64745,0.53746
			c0.03036,0.32721-0.21027,0.61708-0.53746,0.64745c-0.01981,0.00185-0.03967,0.00269-0.05956,0.00253
			c-0.06894,0.0049-0.13817-0.00322-0.2041-0.02393c0.23015,0.78555,0.94472,1.32994,1.76318,1.34326
			c0.53639-0.01178,1.02567-0.30911,1.2832-0.77979c0.22731-0.51637,0.326-1.08018,0.2876-1.64307
			c0.03418-0.51328-0.03932-1.02803-0.21582-1.51123c-0.1584-0.43456-0.5576-0.73526-1.019-0.76758
			c-0.62688-0.00874-1.21312,0.30943-1.54736,0.83984c-0.04787,0.07178-0.07178,0.10791-0.15578,0.10791
			c-0.168,0-0.168-0.09619-0.168-0.312v-3.55029c0-0.19189,0-0.2876,0.11963-0.2876c0.04962,0.00424,0.09825,0.01643,0.144,0.03613
			c0.50218,0.22289,1.04579,0.33719,1.59521,0.33543c0.56212,0.00101,1.11803-0.11749,1.63086-0.34766
			c0.02859-0.01979,0.06165-0.03221,0.09619-0.03613c0.0645-0.00237,0.11871,0.048,0.12108,0.1125
			c0.00024,0.00662-0.00008,0.01326-0.00096,0.01982c-0.49147,0.8015-1.37526,1.2776-2.31494,1.24707
			c-0.34534-0.00548-0.68832-0.05788-1.01953-0.15576v2.33838c0.40453-0.40097,0.95395-0.62144,1.52344-0.61133
			c1.35384,0.09744,2.37328,1.27243,2.27881,2.62646C207.06699,105.3476,205.89789,106.54338,204.43848,106.5625z"/>
	</g>
	<path class="st1" d="M241.47409,125.43653c-0.71924,0-1.03125-0.54005-1.12744-0.82764
		c-0.26367,0.50342-0.64746,0.82764-1.13916,0.82764c-0.47998,0-1.00732-0.21632-1.00732-0.6958
		c0-0.32373,0.23975-0.58789,0.55176-0.58789c0.20361,0,0.37158,0.12012,0.37158,0.34814c0,0.14404-0.08398,0.43164-0.43164,0.52783
		c0.21582,0.16748,0.47949,0.16748,0.53955,0.16748c0.53955,0,0.83936-0.64746,0.97168-1.05518l0.4917-1.979
		c0.0957-0.37158,0.21582-0.85156,0.21582-1.12744c0-0.57568-0.27588-0.76758-0.55176-0.76758
		c-0.55176,0-1.12744,0.57568-1.40332,1.4873c-0.06006,0.19189-0.07178,0.21582-0.20361,0.21582
		c-0.06006,0-0.16797,0-0.16797-0.10791c0-0.23975,0.59961-1.83496,1.79883-1.83496c0.59961,0,0.97168,0.41992,1.10353,0.81543
		c0.17969-0.32372,0.55176-0.81543,1.15137-0.81543c0.34766,0,1.00731,0.13184,1.00731,0.6958
		c0,0.43164-0.32373,0.5874-0.53955,0.5874c-0.18018,0-0.37207-0.0957-0.37207-0.34766c0-0.23975,0.15625-0.45605,0.41992-0.52782
		c-0.21582-0.16798-0.46776-0.16798-0.52783-0.16798c-0.71924,0-0.95946,0.92384-1.187,1.84718l-0.27589,1.09131
		c-0.14404,0.58791-0.24023,0.97169-0.24023,1.22316c0,0.21631,0.07227,0.76758,0.57568,0.76758
		c0.58789,0,1.15137-0.65967,1.40332-1.4751c0.06006-0.20361,0.06006-0.22754,0.20409-0.22754c0.04785,0,0.15576,0,0.15576,0.10791
		C243.2612,123.84132,242.64938,125.43653,241.47409,125.43653z"/>
</g>
</svg>
