<?xml version="1.0" encoding="utf-8"?>
<!-- Generator: Adobe Illustrator 23.0.3, SVG Export Plug-In . SVG Version: 6.00 Build 0)  -->
<svg version="1.1" id="Layer_1" xmlns="http://www.w3.org/2000/svg" xmlns:xlink="http://www.w3.org/1999/xlink" x="0px" y="0px"
	 viewBox="0 0 173 93.98047" style="enable-background:new 0 0 173 93.98047;" xml:space="preserve">
<style type="text/css">
	.st0{fill:none;stroke:#8FF4DD;stroke-width:2;stroke-miterlimit:10;}
	.st1{fill:#8FF4DD;}
	.st2{fill:none;stroke:#FD1D53;stroke-width:2;stroke-linecap:round;stroke-linejoin:round;}
</style>
<title>UnitStepFunctionShifted</title>
<line class="st0" x1="38.00047" y1="3.95598" x2="38.00047" y2="75"/>
<polygon class="st1" points="33.548,12.232 34.864,12.71 38,4.093 41.137,12.71 42.452,12.232 38,0 "/>
<line class="st0" x1="0.50047" y1="75" x2="169.04448" y2="75"/>
<polygon class="st1" points="160.769,79.453 160.28999,78.136 168.908,75 160.28999,71.864 160.769,70.548 173,75 "/>
<polyline class="st2" points="1,75 72,75 72,25 162,25 "/>
<path class="st1" d="M30.77879,28.63818c-0.47949,0-1.52246,0-1.94238,0.03614v-0.37159h0.38379
	c1.0791,0,1.11523-0.144,1.11523-0.57568v-6.21289c-0.49359,0.221-1.03072,0.32765-1.57129,0.312V21.4541
	c0.80151,0.05057,1.5892-0.22645,2.18262-0.76758c0.27637,0,0.27637,0.02442,0.27637,0.312v6.72851
	c0,0.44336,0.03613,0.57568,1.11523,0.57568h0.38379v0.37159C32.30223,28.63818,31.25926,28.63818,30.77879,28.63818z"/>
<path class="st1" d="M39.77,86.54688c-0.47005,1.14568-1.77985,1.69338-2.92552,1.22334
	c-0.49156-0.20168-0.89554-0.57137-1.13991-1.04317c-0.41412-0.90474-0.59956-1.89738-0.53999-2.89062
	c-0.05142-0.92897,0.09985-1.858,0.44336-2.72266c0.32533-0.86801,1.16-1.43885,2.08691-1.42725
	c0.88669,0.00124,1.68793,0.52907,2.03906,1.34327c0.62669,1.78358,0.63942,3.72545,0.03613,5.51709L39.77,86.54688z
	 M39.09813,81.354c-0.22754-1.1875-1.01953-1.40332-1.41499-1.40332c-0.2998,0-1.19922,0.10791-1.42676,1.53516
	c-0.08315,0.7324-0.11545,1.46968-0.09668,2.20654c-0.02155,0.84573,0.02254,1.69185,0.13184,2.53076
	c0.21582,1.15137,0.92381,1.45118,1.3916,1.45118c0.53999,0,1.22363-0.35987,1.40332-1.499
	c0.11319-0.8225,0.15729-1.65305,0.13184-2.48291C39.24039,82.91099,39.20021,82.12904,39.09813,81.354z"/>
<g>
	<path class="st1" d="M167.19675,86.5171c-0.71973,0-1.03125-0.54004-1.12793-0.82813
		c-0.26367,0.50391-0.64746,0.82813-1.13867,0.82813c-0.48047,0-1.00781-0.2168-1.00781-0.69629
		c0-0.32324,0.24023-0.58789,0.55176-0.58789c0.2041,0,0.37207,0.12012,0.37207,0.34863c0,0.14355-0.08398,0.43164-0.43164,0.52734
		c0.21582,0.16797,0.47949,0.16797,0.53906,0.16797c0.54004,0,0.83984-0.64746,0.97168-1.05566l0.49219-1.97852
		c0.0957-0.37207,0.21582-0.85156,0.21582-1.12793c0-0.5752-0.27637-0.76758-0.55176-0.76758
		c-0.55176,0-1.12793,0.57617-1.40332,1.4873c-0.06055,0.19238-0.07227,0.21582-0.2041,0.21582
		c-0.05957,0-0.16797,0-0.16797-0.10742c0-0.24023,0.59961-1.83496,1.79883-1.83496c0.59961,0,0.97168,0.41992,1.10352,0.81543
		c0.17969-0.32422,0.55176-0.81543,1.15137-0.81543c0.34766,0,1.00781,0.13184,1.00781,0.69531
		c0,0.43164-0.32422,0.58789-0.54004,0.58789c-0.17969,0-0.37207-0.0957-0.37207-0.34766c0-0.24023,0.15625-0.45605,0.41992-0.52832
		c-0.21582-0.16797-0.46777-0.16797-0.52734-0.16797c-0.71973,0-0.95996,0.92383-1.1875,1.84766l-0.27539,1.09082
		c-0.14453,0.58789-0.24023,0.97168-0.24023,1.22363c0,0.21582,0.07227,0.76758,0.5752,0.76758
		c0.58789,0,1.15137-0.66016,1.40332-1.47559c0.06055-0.20313,0.06055-0.22754,0.2041-0.22754c0.04785,0,0.15625,0,0.15625,0.1084
		C168.98386,84.92139,168.37155,86.5171,167.19675,86.5171z"/>
</g>
<g>
	<path class="st1" d="M71.17381,86.63672c-0.71973,0-1.03125-0.54004-1.12695-0.82715
		c-0.26465,0.50293-0.64746,0.82715-1.13965,0.82715c-0.47949,0-1.00781-0.21582-1.00781-0.69531
		c0-0.32422,0.24023-0.58789,0.55176-0.58789c0.2041,0,0.37207,0.12012,0.37207,0.34766c0,0.14355-0.08398,0.43164-0.43164,0.52734
		c0.21582,0.16797,0.47949,0.16797,0.54004,0.16797c0.53906,0,0.83887-0.64746,0.9707-1.05469l0.49219-1.97949
		c0.0957-0.37109,0.21582-0.85156,0.21582-1.12695c0-0.57617-0.27637-0.76758-0.55176-0.76758
		c-0.55176,0-1.12695,0.5752-1.40332,1.4873c-0.05957,0.19141-0.07227,0.21582-0.2041,0.21582c-0.05957,0-0.16797,0-0.16797-0.1084
		c0-0.23926,0.59961-1.83496,1.7998-1.83496c0.59961,0,0.9707,0.41992,1.10254,0.81543
		c0.18066-0.32324,0.55176-0.81543,1.15137-0.81543c0.34863,0,1.00781,0.13184,1.00781,0.69629
		c0,0.43164-0.32422,0.58691-0.54004,0.58691c-0.17969,0-0.37109-0.0957-0.37109-0.34766c0-0.23926,0.15527-0.45605,0.41895-0.52734
		c-0.21582-0.16797-0.4668-0.16797-0.52734-0.16797c-0.71973,0-0.95898,0.92285-1.1875,1.84668l-0.27539,1.0918
		c-0.14453,0.58789-0.24023,0.97168-0.24023,1.22266c0,0.21582,0.07227,0.76758,0.57617,0.76758
		c0.58691,0,1.15137-0.65918,1.40332-1.47461c0.05957-0.2041,0.05957-0.22852,0.20313-0.22852c0.04785,0,0.15625,0,0.15625,0.1084
		C72.96092,85.04199,72.34959,86.63672,71.17381,86.63672z"/>
	<path class="st1" d="M75.5537,89.89063c-0.20215,0.40527-0.55176,0.76953-1.16016,0.76953
		c-0.36328,0-0.8457-0.16797-1.11816-0.69922c-0.25098-0.49609-0.30078-1.00684-0.30078-1.68457
		c0-0.75488,0.07031-1.1875,0.26563-1.62793c0.25879-0.58008,0.75488-0.7832,1.16016-0.7832
		c0.34277,0,0.8457,0.1543,1.13281,0.73438c0.25098,0.53125,0.28613,1.09668,0.28613,1.67676
		C75.81932,88.68164,75.80565,89.36719,75.5537,89.89063z M75.19725,86.7666c-0.13281-0.60059-0.53809-0.76172-0.80371-0.76172
		c-0.30078,0-0.65723,0.2168-0.77539,0.68555c-0.1123,0.41211-0.1123,0.92969-0.1123,1.50195c0,0.48926,0,1.02051,0.07715,1.44043
		c0.13281,0.76172,0.58691,0.88672,0.81055,0.88672c0.24512,0,0.68457-0.13281,0.81738-0.90137
		c0.07715-0.42578,0.07715-0.95703,0.07715-1.42578C75.28807,87.71777,75.28807,87.16504,75.19725,86.7666z"/>
</g>
<g>
	<path class="st1" d="M51.40604,10.6543c-0.15576,0.34766-0.396,0.6958-0.86377,0.6958c-0.41943,0-0.7915-0.25195-0.92334-0.71973
		c-0.38379,0.47949-0.80371,0.71973-1.30713,0.71973c-0.58789,0-1.29541-0.28809-1.29541-1.36719
		c0-0.46777,0.15576-1.07959,0.53955-2.14697c0.25195-0.6958,0.37207-1.00732,0.37207-1.30713
		c0-0.28809-0.13184-0.34814-0.27588-0.34814c-0.6958,0-1.00732,1.13965-1.10352,1.49951
		c-0.04785,0.16748-0.06006,0.20361-0.20361,0.20361c-0.06006,0-0.16797,0-0.16797-0.10791
		c0-0.07178,0.40771-1.83496,1.49902-1.83496c0.58789,0,0.87549,0.45557,0.87549,0.93555c0,0.23975-0.06006,0.39551-0.15576,0.67139
		c-0.27588,0.76758-0.6958,1.90723-0.6958,2.62646c0,0.396,0.10791,0.93555,0.64795,0.93555
		c0.55127,0,0.99512-0.41943,1.23486-0.92334c0.02441-0.06006,0.02441-0.19189,0.02441-0.19189l0.86328-3.46582
		c0.03613-0.16797,0.13184-0.46777,0.46777-0.46777c0.15576,0,0.2998,0.10791,0.2998,0.2876c0,0.04785,0,0.07178-0.04785,0.23975
		l-0.85156,3.40625c-0.04785,0.17969-0.09619,0.45557-0.09619,0.63574c0,0.22803,0.06006,0.47949,0.32422,0.47949
		c0.33545,0,0.56348-0.41943,0.80322-1.41504c0.07227-0.27588,0.08398-0.28809,0.22803-0.28809c0.04785,0,0.15576,0,0.15576,0.1084
		C51.7537,9.55078,51.60966,10.23438,51.40604,10.6543z"/>
	<path class="st1" d="M55.27128,14.24023c-0.13184,0-1.11572-0.7793-1.82324-2.21875c-0.62354-1.2832-0.7915-2.71045-0.7915-3.77783
		c0-1.4751,0.27588-2.7583,0.8877-3.96973c0.5874-1.17529,1.5708-2.03906,1.72705-2.03906
		c0.04785,0,0.10791,0.02393,0.10791,0.09619c0,0.03564,0,0.05957-0.12012,0.16748
		c-1.39111,1.41553-1.95508,3.41846-1.95508,5.74512c0,2.44678,0.67188,4.42578,1.87109,5.63672
		c0.2041,0.2041,0.2041,0.22803,0.2041,0.26416C55.37919,14.21631,55.31913,14.24023,55.27128,14.24023z"/>
	<path class="st1" d="M59.93925,11.3501c-0.71924,0-1.03125-0.54004-1.12744-0.82764
		c-0.26367,0.50342-0.64746,0.82764-1.13916,0.82764c-0.47998,0-1.00732-0.21582-1.00732-0.6958
		c0-0.32373,0.23975-0.58789,0.55176-0.58789c0.20361,0,0.37158,0.12012,0.37158,0.34814c0,0.14355-0.08398,0.43164-0.43164,0.52734
		c0.21582,0.16797,0.47949,0.16797,0.53955,0.16797c0.53955,0,0.83936-0.64746,0.97168-1.05518l0.4917-1.979
		c0.0957-0.37158,0.21582-0.85156,0.21582-1.12744c0-0.57568-0.27588-0.76758-0.55176-0.76758
		c-0.55176,0-1.12744,0.57568-1.40332,1.4873c-0.06006,0.19189-0.07178,0.21582-0.20361,0.21582
		c-0.06006,0-0.16797,0-0.16797-0.10791c0-0.23975,0.59961-1.83496,1.79883-1.83496c0.59961,0,0.97168,0.41992,1.10352,0.81543
		c0.17969-0.32373,0.55176-0.81543,1.15137-0.81543c0.34766,0,1.00732,0.13184,1.00732,0.6958
		c0,0.43164-0.32373,0.5874-0.53955,0.5874c-0.18018,0-0.37207-0.0957-0.37207-0.34766c0-0.23975,0.15625-0.45605,0.41992-0.52783
		c-0.21582-0.16797-0.46777-0.16797-0.52783-0.16797c-0.71924,0-0.95947,0.92334-1.18701,1.84717l-0.27588,1.09131
		c-0.14404,0.58789-0.24023,0.97168-0.24023,1.22314c0,0.21582,0.07227,0.76758,0.57568,0.76758
		c0.58789,0,1.15137-0.65967,1.40332-1.4751c0.06006-0.20361,0.06006-0.22803,0.2041-0.22803c0.04785,0,0.15576,0,0.15576,0.1084
		C61.72636,9.75488,61.11454,11.3501,59.93925,11.3501z"/>
	<path class="st1" d="M73.58085,8.47168h-6.53662c-0.16797,0-0.39551,0-0.39551-0.24023c0-0.23975,0.22754-0.23975,0.39551-0.23975
		h6.53662c0.16797,0,0.39551,0,0.39551,0.23975C73.97636,8.47168,73.74882,8.47168,73.58085,8.47168z"/>
	<path class="st1" d="M80.07499,11.3501c-0.71924,0-1.03125-0.54004-1.12744-0.82764
		c-0.26367,0.50342-0.64746,0.82764-1.13916,0.82764c-0.47998,0-1.00732-0.21582-1.00732-0.6958
		c0-0.32373,0.23975-0.58789,0.55176-0.58789c0.20361,0,0.37158,0.12012,0.37158,0.34814c0,0.14355-0.08398,0.43164-0.43164,0.52734
		c0.21582,0.16797,0.47949,0.16797,0.53955,0.16797c0.53955,0,0.83936-0.64746,0.97168-1.05518l0.4917-1.979
		c0.0957-0.37158,0.21582-0.85156,0.21582-1.12744c0-0.57568-0.27588-0.76758-0.55176-0.76758
		c-0.55176,0-1.12744,0.57568-1.40332,1.4873c-0.06006,0.19189-0.07178,0.21582-0.20361,0.21582
		c-0.06006,0-0.16797,0-0.16797-0.10791c0-0.23975,0.59961-1.83496,1.79883-1.83496c0.59961,0,0.97168,0.41992,1.10352,0.81543
		c0.17969-0.32373,0.55176-0.81543,1.15137-0.81543c0.34766,0,1.00732,0.13184,1.00732,0.6958
		c0,0.43164-0.32373,0.5874-0.53955,0.5874c-0.18018,0-0.37207-0.0957-0.37207-0.34766c0-0.23975,0.15625-0.45605,0.41992-0.52783
		c-0.21582-0.16797-0.46777-0.16797-0.52783-0.16797c-0.71924,0-0.95947,0.92334-1.18701,1.84717l-0.27588,1.09131
		c-0.14404,0.58789-0.24023,0.97168-0.24023,1.22314c0,0.21582,0.07227,0.76758,0.57568,0.76758
		c0.58789,0,1.15137-0.65967,1.40332-1.4751c0.06006-0.20361,0.06006-0.22803,0.2041-0.22803c0.04785,0,0.15576,0,0.15576,0.1084
		C81.8621,9.75488,81.25028,11.3501,80.07499,11.3501z"/>
	<path class="st1" d="M84.45438,14.604c-0.20264,0.40527-0.55225,0.76904-1.16016,0.76904
		c-0.36328,0-0.8457-0.16797-1.11816-0.69922c-0.25146-0.49609-0.30029-1.00635-0.30029-1.68408
		c0-0.75488,0.06982-1.18799,0.26563-1.62842c0.2583-0.58008,0.75439-0.78271,1.16016-0.78271
		c0.34229,0,0.84521,0.15381,1.13184,0.73389c0.25146,0.53125,0.28662,1.09717,0.28662,1.67725
		C84.72001,13.39502,84.70585,14.08008,84.45438,14.604z M84.09794,11.47998c-0.13281-0.60059-0.53809-0.76172-0.80371-0.76172
		c-0.30029,0-0.65674,0.2168-0.77539,0.68506c-0.11182,0.4126-0.11182,0.92969-0.11182,1.50244c0,0.48926,0,1.02051,0.07666,1.43994
		c0.13281,0.76172,0.58691,0.88721,0.81055,0.88721c0.24463,0,0.68506-0.13281,0.81787-0.90137
		c0.07666-0.42627,0.07666-0.95752,0.07666-1.42578C84.18876,12.43066,84.18876,11.87842,84.09794,11.47998z"/>
	<path class="st1" d="M87.51151,12.20166c-0.58789,1.17529-1.57129,2.03857-1.72705,2.03857
		c-0.04785,0-0.10791-0.02393-0.10791-0.0957c0-0.03613,0-0.06006,0.12012-0.16797c1.39111-1.41553,1.95459-3.41846,1.95459-5.74512
		c0-2.44629-0.67139-4.42529-1.87109-5.63672c-0.20361-0.2041-0.20361-0.22803-0.20361-0.26367
		c0-0.07227,0.06006-0.09619,0.10791-0.09619c0.13184,0,1.11523,0.77979,1.82324,2.21875
		c0.67139,1.39111,0.7915,2.87842,0.7915,3.79004C88.39921,9.68262,88.12333,10.97803,87.51151,12.20166z"/>
</g>
</svg>
