<svg xmlns="http://www.w3.org/2000/svg" viewBox="0 0 181.95947 92.35645">
  <defs>
    <style>
      .cls-1, .cls-2 {
        fill: none;
        stroke-width: 2px;
      }

      .cls-1 {
        stroke: #000;
        stroke-miterlimit: 10;
      }

      .cls-2 {
        stroke: #c1272d;
        stroke-linecap: round;
        stroke-linejoin: round;
      }
    </style>
  </defs>
  <title>UnitStepFunctionShifted</title>
  <g id="Layer_1" data-name="Layer 1">
    <g>
      <line class="cls-1" x1="46.95947" y1="3.95598" x2="46.95947" y2="75"/>
      <polygon points="42.507 12.232 43.823 12.71 46.959 4.093 50.096 12.71 51.411 12.232 46.959 0 42.507 12.232"/>
    </g>
    <g>
      <line class="cls-1" x1="9.45947" y1="75" x2="178.00348" y2="75"/>
      <polygon points="169.728 79.453 169.249 78.136 177.867 75 169.249 71.864 169.728 70.548 181.959 75 169.728 79.453"/>
    </g>
  </g>
  <g id="Layer_2" data-name="Layer 2">
    <polyline class="cls-2" points="9.959 75 80.959 75 80.959 25 170.959 25"/>
  </g>
  <g id="Layer_3" data-name="Layer 3">
    <g>
      <path d="M108.41357,34.68506a.95309.95309,0,0,1-1.835-.04834,1.6688,1.6688,0,0,1-1.33154.71973,1.261,1.261,0,0,1-1.34326-1.39112,8.00439,8.00439,0,0,1,.62353-2.35058,3.53552,3.53552,0,0,0,.28809-1.07959c0-.312-.13184-.34766-.26367-.34766-.6958,0-1.01953,1.13916-1.11572,1.51123-.04786.16748-.06006.1919-.21583.1919-.06,0-.17968,0-.17968-.12012,0-.07178.41943-1.84717,1.53515-1.84717a.89849.89849,0,0,1,.91114.97168,1.69107,1.69107,0,0,1-.15577.64746,9.20747,9.20747,0,0,0-.69531,2.62647c0,.396.10791.92382.64746.92382a1.3587,1.3587,0,0,0,1.10352-.6958.92053.92053,0,0,0,.168-.39551l.87549-3.50244c.02392-.0957.10791-.44336.46728-.44336a.31412.31412,0,0,1,.33594.31153.59859.59859,0,0,1-.03565.168l-.86377,3.4541a2.34784,2.34784,0,0,0-.084.61181c0,.168,0,.4917.312.4917.40772,0,.63574-.75586.80322-1.42724.07227-.26416.084-.27588.228-.27588.084,0,.18018,0,.18018.12012A6.28883,6.28883,0,0,1,108.41357,34.68506Z" transform="translate(-103.04053 -25)"/>
      <path d="M111.61914,38.22314c-.168,0-.68359-.6958-.9834-1.49951a6.35737,6.35737,0,0,1-.32422-2.0625,11.73665,11.73665,0,0,1,1.69141-5.75683,7.6873,7.6873,0,0,1,2.55469-2.67481.10757.10757,0,0,1,.11963.12012c0,.03564-.01172.04785-.17969.21582-2.87842,2.44678-3.58594,6.896-3.58594,8.52734a4.95618,4.95618,0,0,0,.74365,2.84229.3742.3742,0,0,1,.0835.168A.1134.1134,0,0,1,111.61914,38.22314Z" transform="translate(-103.04053 -25)"/>
      <path d="M115.84326,35.35645a1.01146,1.01146,0,0,1-1.01953-1.07911,1.8437,1.8437,0,0,1,.06006-.4082l.86328-3.44189h-.95947c-.1919,0-.29981,0-.29981-.144,0-.22754.13184-.22754.33594-.22754h1.01953l.46778-1.90722a.50067.50067,0,0,1,.46777-.43164.30055.30055,0,0,1,.32373.31152.72986.72986,0,0,1-.04785.252l-.44385,1.77539h.95947c.1919,0,.29981,0,.29981.14356,0,.228-.13184.228-.33594.228h-1.01953l-.88721,3.562a2.34784,2.34784,0,0,0-.084.61181c0,.1919,0,.4917.32373.4917.68359,0,1.16308-.89941,1.37939-1.47509.09571-.21631.09571-.228.23975-.228.084,0,.17969,0,.17969.12012C117.666,33.56934,117.05469,35.35645,115.84326,35.35645Z" transform="translate(-103.04053 -25)"/>
      <path d="M129.604,32.46631h-6.53662c-.168,0-.3955,0-.3955-.24024,0-.23974.22753-.23974.3955-.23974H129.604c.168,0,.39551,0,.39551.23974C129.99951,32.46631,129.772,32.46631,129.604,32.46631Z" transform="translate(-103.04053 -25)"/>
      <path d="M133.459,35.35645a1.01117,1.01117,0,0,1-1.01953-1.07911,1.8437,1.8437,0,0,1,.06006-.4082l.86328-3.44189h-.95947c-.19189,0-.2998,0-.2998-.144,0-.22754.13183-.22754.33593-.22754H133.459l.46778-1.90722a.50068.50068,0,0,1,.46777-.43164.30055.30055,0,0,1,.32373.31152.72986.72986,0,0,1-.04785.252l-.44385,1.77539h.95948c.19189,0,.2998,0,.2998.14356,0,.228-.13184.228-.33594.228h-1.01953l-.88721,3.562a2.34784,2.34784,0,0,0-.084.61181c0,.1919,0,.4917.32373.4917.68359,0,1.16309-.89941,1.37939-1.47509.09571-.21631.09571-.228.23975-.228.084,0,.17969,0,.17969.12012C135.28174,33.56934,134.67041,35.35645,133.459,35.35645Z" transform="translate(-103.04053 -25)"/>
      <path d="M137.95215,38.564a1.30655,1.30655,0,0,1-2.36914.1045,3.53821,3.53821,0,0,1-.31446-1.68408,3.73789,3.73789,0,0,1,.25879-1.58643,1.28086,1.28086,0,0,1,1.21582-.83154,1.29565,1.29565,0,0,1,1.188.78271,3.74283,3.74283,0,0,1,.27979,1.63526A3.72413,3.72413,0,0,1,137.95215,38.564ZM137.561,35.5376c-.13282-.6919-.59424-.81739-.82471-.81739-.17481,0-.69873.063-.83154.89454a9.32856,9.32856,0,0,0-.05616,1.28564,9.4916,9.4916,0,0,0,.07715,1.47461c.12549.6709.53809.8457.81055.8457.31445,0,.71289-.20947.81738-.87353a8.62557,8.62557,0,0,0,.07715-1.44678A8.605,8.605,0,0,0,137.561,35.5376Z" transform="translate(-103.04053 -25)"/>
      <path d="M141.38477,35.54834a7.69207,7.69207,0,0,1-2.55469,2.6748A.1077.1077,0,0,1,138.71,38.103c0-.03614.01221-.04785.18018-.21582,2.87841-2.44678,3.58593-6.89649,3.58593-8.52735a4.96,4.96,0,0,0-.74365-2.84228.37315.37315,0,0,1-.084-.168.11328.11328,0,0,1,.12011-.12012c.16749,0,.6836.6958.9834,1.499a6.36239,6.36239,0,0,1,.32373,2.063A11.74314,11.74314,0,0,1,141.38477,35.54834Z" transform="translate(-103.04053 -25)"/>
    </g>
    <path d="M276.49219,117.35645a1.01117,1.01117,0,0,1-1.01953-1.07911,1.82174,1.82174,0,0,1,.05957-.4082l.86328-3.44189h-.96c-.19141,0-.29883,0-.29883-.14405,0-.22754.13086-.22754.33594-.22754h1.01953l.46679-1.90722a.50175.50175,0,0,1,.46875-.43164.30042.30042,0,0,1,.32325.31152.72986.72986,0,0,1-.04785.252l-.44336,1.77539h.959c.19141,0,.2998,0,.2998.14356,0,.228-.13183.228-.33593.228h-1.01953l-.8877,3.562a2.34784,2.34784,0,0,0-.084.61181c0,.1919,0,.4917.32422.4917.68359,0,1.16308-.89941,1.3789-1.47509.0957-.21631.0957-.228.24024-.228.084,0,.17968,0,.17968.12012C278.31445,115.56934,277.70313,117.35645,276.49219,117.35645Z" transform="translate(-103.04053 -25)"/>
    <path d="M142.77832,53.63818c-.47949,0-1.52246,0-1.94238.03614v-.37159h.38379c1.0791,0,1.11523-.144,1.11523-.57568V46.51416a3.59073,3.59073,0,0,1-1.57129.312V46.4541a2.96243,2.96243,0,0,0,2.18262-.76758c.27637,0,.27637.02442.27637.312v6.72851c0,.44336.03613.57568,1.11523.57568h.38379v.37159C144.30176,53.63818,143.25879,53.63818,142.77832,53.63818Z" transform="translate(-103.04053 -25)"/>
    <path d="M151.76953,111.54688a2.24223,2.24223,0,0,1-4.06543.18017,6.07176,6.07176,0,0,1-.54-2.89062,6.41421,6.41421,0,0,1,.44336-2.72266,2.19931,2.19931,0,0,1,2.08692-1.42725,2.224,2.224,0,0,1,2.03906,1.34327,8.47976,8.47976,0,0,1,.03613,5.51709Zm-.67187-5.19288c-.22754-1.1875-1.01953-1.40332-1.415-1.40332-.29981,0-1.19922.10791-1.42676,1.53516a15.9604,15.9604,0,0,0-.09668,2.20654,16.362,16.362,0,0,0,.13184,2.53076c.21582,1.15137.92382,1.45118,1.3916,1.45118.54,0,1.22363-.35987,1.40332-1.499a14.86958,14.86958,0,0,0,.13183-2.48291A14.72117,14.72117,0,0,0,151.09766,106.354Z" transform="translate(-103.04053 -25)"/>
    <g>
      <path d="M182.4917,111.25879a1.01144,1.01144,0,0,1-1.01953-1.0791,1.84371,1.84371,0,0,1,.06006-.40821l.86328-3.44189H181.436c-.1919,0-.29981,0-.29981-.144,0-.22754.13184-.22754.33594-.22754h1.01953l.46777-1.90723a.50068.50068,0,0,1,.46778-.43164.30055.30055,0,0,1,.32373.31152.7299.7299,0,0,1-.04785.252l-.44385,1.77539h.95947c.19189,0,.2998,0,.2998.14355,0,.228-.13183.228-.33593.228h-1.01953l-.88721,3.562a2.34759,2.34759,0,0,0-.084.61182c0,.19189,0,.4917.32374.4917.68359,0,1.16308-.89942,1.37939-1.4751.0957-.21631.0957-.228.23975-.228.084,0,.17968,0,.17968.12012C184.31445,109.47168,183.70313,111.25879,182.4917,111.25879Z" transform="translate(-103.04053 -25)"/>
      <path d="M186.98486,114.46631a1.30655,1.30655,0,0,1-2.36914.10449,3.53819,3.53819,0,0,1-.31445-1.68408,3.73792,3.73792,0,0,1,.25879-1.58643,1.28086,1.28086,0,0,1,1.21582-.83154,1.29567,1.29567,0,0,1,1.188.78271,4.9341,4.9341,0,0,1,.021,3.21485Zm-.39111-3.02637c-.13281-.69189-.59424-.81738-.82471-.81738-.1748,0-.69873.063-.83154.89453a9.3302,9.3302,0,0,0-.05615,1.28564,9.4916,9.4916,0,0,0,.07715,1.47461c.12548.6709.53808.84571.81054.84571.31446,0,.71289-.20948.81739-.87354a13.47307,13.47307,0,0,0,.00732-2.80957Z" transform="translate(-103.04053 -25)"/>
    </g>
  </g>
</svg>
