<svg xmlns="http://www.w3.org/2000/svg" viewBox="0 0 250 167.42285">
  <defs>
    <style>
      .cls-1, .cls-2 {
        fill: none;
        stroke-miterlimit: 10;
        stroke-width: 2px;
      }

      .cls-1 {
        stroke: #000;
      }

      .cls-2 {
        stroke: #c1272d;
      }

      .cls-3 {
        fill: #c1272d;
      }
    </style>
  </defs>
  <title>UnitImpulseFunction</title>
  <g id="Layer_1" data-name="Layer 1">
    <line class="cls-1" x1="125" x2="125" y2="112.5"/>
    <g>
      <line class="cls-1" y1="111.75" x2="246.04401" y2="111.75"/>
      <polygon points="237.768 116.203 237.29 114.886 245.907 111.75 237.29 108.614 237.768 107.298 250 111.75 237.768 116.203"/>
    </g>
  </g>
  <g id="Layer_2" data-name="Layer 2">
    <g>
      <line x1="125" y1="112.75" x2="125" y2="11.75"/>
      <g>
        <line class="cls-2" x1="125" y1="112.75" x2="125" y2="13.2683"/>
        <polygon class="cls-3" points="130.726 17.907 129.7 18.862 125.001 13.806 120.301 18.862 119.276 17.907 125.001 11.75 130.726 17.907"/>
      </g>
    </g>
    <g>
      <line x1="25" y1="112.75" x2="25" y2="61.75"/>
      <g>
        <line class="cls-2" x1="25" y1="112.75" x2="25" y2="63.2683"/>
        <polygon class="cls-3" points="30.726 67.907 29.7 68.862 25.001 63.806 20.301 68.862 19.276 67.907 25.001 61.75 30.726 67.907"/>
      </g>
    </g>
    <g>
      <line x1="200" y1="110.75" x2="200" y2="150.75"/>
      <g>
        <line class="cls-2" x1="200" y1="110.75" x2="200" y2="149.2317"/>
        <polygon class="cls-3" points="194.274 144.593 195.3 143.638 199.999 148.694 204.699 143.638 205.724 144.593 199.999 150.75 194.274 144.593"/>
      </g>
    </g>
  </g>
  <g id="Layer_3" data-name="Layer 3">
    <path d="M262.209,165.35645a1.01174,1.01174,0,0,1-1.01953-1.07911,1.8067,1.8067,0,0,1,.06055-.4082l.86328-3.44189h-.96c-.19238,0-.2998,0-.2998-.144,0-.22754.13183-.22754.33593-.22754H262.209l.46778-1.90722a.50068.50068,0,0,1,.46777-.43164.30114.30114,0,0,1,.32422.31152.71668.71668,0,0,1-.04883.25195l-.44336,1.77539h.959c.19238,0,.30078,0,.30078.14356,0,.228-.13281.228-.33594.228h-1.01953l-.8877,3.562a2.34784,2.34784,0,0,0-.084.61181c0,.1919,0,.4917.32324.4917.6836,0,1.16406-.89941,1.37988-1.47509.09571-.21631.09571-.228.23926-.228.084,0,.17969,0,.17969.12012C264.03125,163.56934,263.41992,165.35645,262.209,165.35645Z" transform="translate(-25 -38.25)"/>
    <g>
      <path d="M159.77832,53.63818c-.47949,0-1.52246,0-1.94238.03614v-.37159h.38379c1.0791,0,1.11523-.144,1.11523-.57568V46.51416a3.59073,3.59073,0,0,1-1.57129.312V46.4541a2.96243,2.96243,0,0,0,2.18262-.76758c.27637,0,.27637.02442.27637.312v6.72851c0,.44336.03613.57568,1.11523.57568h.38379v.37159C161.30176,53.63818,160.25879,53.63818,159.77832,53.63818Z" transform="translate(-25 -38.25)"/>
      <path d="M167.76953,52.54688a2.24223,2.24223,0,0,1-4.06543.18017,6.07176,6.07176,0,0,1-.54-2.89062,6.41421,6.41421,0,0,1,.44336-2.72266,2.19931,2.19931,0,0,1,2.08692-1.42725,2.224,2.224,0,0,1,2.03906,1.34327,6.42331,6.42331,0,0,1,.47949,2.80664A6.38965,6.38965,0,0,1,167.76953,52.54688Zm-.67187-5.19288c-.22754-1.1875-1.01953-1.40332-1.415-1.40332-.29981,0-1.19922.10791-1.42676,1.53516a15.9604,15.9604,0,0,0-.09668,2.20654,16.362,16.362,0,0,0,.13184,2.53076c.21582,1.15137.92382,1.45118,1.3916,1.45118.54,0,1.22363-.35987,1.40332-1.499a14.86958,14.86958,0,0,0,.13183-2.48291A14.72117,14.72117,0,0,0,167.09766,47.354Z" transform="translate(-25 -38.25)"/>
      <path d="M175.61621,45.97461a.59221.59221,0,0,1-.51562.33594.50125.50125,0,0,1-.13184-.02442,8.0889,8.0889,0,0,0-1.73926-.68359.50233.50233,0,0,0-.13183-.01172.71543.71543,0,0,0-.31153.06006.67144.67144,0,0,0-.28808.2876.32734.32734,0,0,0-.03614.144c0,.51562.9834,1.45117,1.667,2.11084a3.28613,3.28613,0,0,1,.94824,1.42725,2.84115,2.84115,0,0,1,.11914.83935,4.321,4.321,0,0,1-.13184,1.01953,2.97954,2.97954,0,0,1-2.61425,2.32666,2.61146,2.61146,0,0,1-1.99122-.80322,2.03569,2.03569,0,0,1-.51562-1.36768,2.54164,2.54164,0,0,1,.07227-.5874,3.43029,3.43029,0,0,1,1.36718-1.895,4.36916,4.36916,0,0,1,1.57129-.6958,4.198,4.198,0,0,1-.93555-2.12256,1.28834,1.28834,0,0,1,.12012-.564,1.21,1.21,0,0,1,.47949-.50342,1.93562,1.93562,0,0,1,.65918-.18018h.168a11.6392,11.6392,0,0,1,1.90723.27588.37611.37611,0,0,1,.32422.38379A.40929.40929,0,0,1,175.61621,45.97461Zm-1.583,4.25781A4.93655,4.93655,0,0,0,173.29,48.937l-.07227-.10791a2.83421,2.83421,0,0,0-1.22363.62354,3.27187,3.27187,0,0,0-.959,1.6792,3.7608,3.7608,0,0,0-.1084.80322,1.5038,1.5038,0,0,0,.21582.82764,1.54479,1.54479,0,0,0,1.332.64794c.75488,0,1.36719-.82763,1.583-1.66748A3.25947,3.25947,0,0,0,174.15332,51,2.62645,2.62645,0,0,0,174.0332,50.23242Z" transform="translate(-25 -38.25)"/>
      <path d="M180.39355,56.67285a5.1779,5.1779,0,0,1-1.87109-2.25488,9.23791,9.23791,0,0,1-.03516-7.3999,5.21775,5.21775,0,0,1,1.90625-2.33887.1077.1077,0,0,1,.12012.12012c0,.03564,0,.06006-.15625.20361a7.84719,7.84719,0,0,0-1.93066,5.67285,7.9488,7.9488,0,0,0,1.88281,5.61328c.2041.20362.2041.22754.2041.26367A.1077.1077,0,0,1,180.39355,56.67285Z" transform="translate(-25 -38.25)"/>
      <path d="M182.458,53.80615a1.01172,1.01172,0,0,1-1.01953-1.0791,1.86623,1.86623,0,0,1,.06054-.4082l.86328-3.4419h-.959c-.19238,0-.2998,0-.2998-.144,0-.22754.13183-.22754.335-.22754H182.458l.46777-1.90723a.50069.50069,0,0,1,.46777-.43164.30082.30082,0,0,1,.32422.312.72956.72956,0,0,1-.04785.25146l-.44433,1.77539h.96c.1914,0,.2998,0,.2998.14356,0,.228-.13183.228-.33594.228h-1.01953l-.88769,3.562a2.34763,2.34763,0,0,0-.084.61182c0,.1919,0,.4917.32422.4917.6836,0,1.16309-.89941,1.37891-1.4751.09668-.21582.09668-.228.24023-.228.084,0,.17969,0,.17969.12011C184.28125,52.019,183.66992,53.80615,182.458,53.80615Z" transform="translate(-25 -38.25)"/>
      <path d="M186.707,54.334a5.22658,5.22658,0,0,1-1.90723,2.33887.11353.11353,0,0,1-.12011-.12012c0-.03613,0-.06.15625-.2041a7.86194,7.86194,0,0,0,1.93066-5.67285,7.778,7.778,0,0,0-1.85937-5.60058c-.22754-.21582-.22754-.24024-.22754-.27588a.11328.11328,0,0,1,.12011-.12012,5.17782,5.17782,0,0,1,1.8711,2.25488,9.24329,9.24329,0,0,1,.03613,7.3999Z" transform="translate(-25 -38.25)"/>
    </g>
    <g>
      <path d="M195.666,200.43164v-.6958h3.17871v.6958Z" transform="translate(-25 -38.25)"/>
      <path d="M203.97949,200.69531v1.04346c0,.43164.02442.564.91211.564h.25195v.37159c-.49218-.03614-1.12792-.03614-1.63183-.03614-.50293,0-1.12695,0-1.61914.03614v-.37159h.25195c.8877,0,.91211-.13232.91211-.564v-1.04346h-3.19043v-.37158l3.68164-5.625c.0957-.144.13184-.144.24024-.144.1914,0,.1914.07226.1914.312v5.457h1.19922v.37158Zm-.85156-4.84521-2.92578,4.47363h2.92578Z" transform="translate(-25 -38.25)"/>
      <path d="M212.4502,194.97461a.59224.59224,0,0,1-.51563.33594.5014.5014,0,0,1-.13184-.02442,8.08882,8.08882,0,0,0-1.73925-.68359.50241.50241,0,0,0-.13184-.01172.71541.71541,0,0,0-.31152.06006.67146.67146,0,0,0-.28809.2876.32732.32732,0,0,0-.03613.144c0,.51562.9834,1.45117,1.667,2.11084a3.28613,3.28613,0,0,1,.94824,1.42725,2.84083,2.84083,0,0,1,.11914.83935,4.32151,4.32151,0,0,1-.13183,1.01953,2.97956,2.97956,0,0,1-2.61426,2.32666,2.61144,2.61144,0,0,1-1.99121-.80322,2.0357,2.0357,0,0,1-.51563-1.36768,2.54218,2.54218,0,0,1,.07227-.5874,3.4303,3.4303,0,0,1,1.36719-1.895,4.36908,4.36908,0,0,1,1.57129-.6958,4.1979,4.1979,0,0,1-.93555-2.12256,1.2882,1.2882,0,0,1,.12012-.564,1.21,1.21,0,0,1,.47949-.50342,1.93562,1.93562,0,0,1,.65918-.18018h.168a11.63924,11.63924,0,0,1,1.90722.27588.3761.3761,0,0,1,.32422.38379A.40928.40928,0,0,1,212.4502,194.97461Zm-1.583,4.25781a4.93658,4.93658,0,0,0-.74317-1.29541l-.07226-.10791a2.83421,2.83421,0,0,0-1.22363.62354,3.27182,3.27182,0,0,0-.959,1.6792,3.7608,3.7608,0,0,0-.1084.80322,1.50388,1.50388,0,0,0,.21582.82764,1.54479,1.54479,0,0,0,1.332.64794c.75489,0,1.36719-.82763,1.583-1.66748A3.25947,3.25947,0,0,0,210.9873,200,2.62678,2.62678,0,0,0,210.86719,199.23242Z" transform="translate(-25 -38.25)"/>
      <path d="M217.22754,205.67285a5.17776,5.17776,0,0,1-1.87109-2.25488,9.2378,9.2378,0,0,1-.03516-7.3999,5.21761,5.21761,0,0,1,1.90625-2.33887.10771.10771,0,0,1,.12012.12012c0,.03564,0,.06006-.15625.20361a7.8472,7.8472,0,0,0-1.93067,5.67285,7.9488,7.9488,0,0,0,1.88281,5.61328c.20411.20362.20411.22754.20411.26367A.10771.10771,0,0,1,217.22754,205.67285Z" transform="translate(-25 -38.25)"/>
      <path d="M220.49219,202.80615a1.01172,1.01172,0,0,1-1.01953-1.0791,1.86623,1.86623,0,0,1,.06054-.4082l.86328-3.4419h-.959c-.19238,0-.2998,0-.2998-.144,0-.22754.13183-.22754.335-.22754h1.01953l.46777-1.90723a.50069.50069,0,0,1,.46777-.43164.30082.30082,0,0,1,.32422.312.72956.72956,0,0,1-.04785.25146l-.44433,1.77539h.96c.1914,0,.2998,0,.2998.14356,0,.228-.13183.228-.33594.228h-1.01953l-.88769,3.562a2.34763,2.34763,0,0,0-.084.61182c0,.1919,0,.4917.32422.4917.6836,0,1.16309-.89941,1.37891-1.4751.09668-.21582.09668-.228.24023-.228.084,0,.17969,0,.17969.12011C222.31543,201.019,221.7041,202.80615,220.49219,202.80615Z" transform="translate(-25 -38.25)"/>
      <path d="M233.05371,199.916h-6.53613c-.168,0-.39649,0-.39649-.24024,0-.23974.22852-.23974.39649-.23974h6.53613c.168,0,.39551,0,.39551.23974C233.44922,199.916,233.22168,199.916,233.05371,199.916Z" transform="translate(-25 -38.25)"/>
      <path d="M237.544,202.63818c-.4795,0-1.52247,0-1.94239.03614v-.37159h.38379c1.0791,0,1.11524-.144,1.11524-.57568v-6.21289a3.59078,3.59078,0,0,1-1.57129.312v-.37207a2.96241,2.96241,0,0,0,2.18261-.76758c.27637,0,.27637.02442.27637.312v6.72851c0,.44336.03613.57568,1.11524.57568h.38378v.37159C239.06738,202.63818,238.02441,202.63818,237.544,202.63818Z" transform="translate(-25 -38.25)"/>
      <path d="M242.12891,202.67432a.63575.63575,0,1,1,.63574-.63575A.63991.63991,0,0,1,242.12891,202.67432Z" transform="translate(-25 -38.25)"/>
      <path d="M246.56836,202.938a2.20148,2.20148,0,0,1-2.1709-2.19483.595.595,0,1,1,.58789.54.55108.55108,0,0,1-.2041-.02392,1.8689,1.8689,0,0,0,1.7627,1.34326,1.50247,1.50247,0,0,0,1.28418-.77979,3.49412,3.49412,0,0,0,.2871-1.64306,3.68178,3.68178,0,0,0-.21582-1.51123,1.17184,1.17184,0,0,0-1.01953-.76758,1.80031,1.80031,0,0,0-1.54687.83935c-.04785.07227-.07227.1084-.15625.1084-.168,0-.168-.09619-.168-.312v-3.55029c0-.1919,0-.2876.12012-.2876a.47132.47132,0,0,1,.14453.03613,3.89753,3.89753,0,0,0,1.59472.33545,3.96343,3.96343,0,0,0,1.63086-.34765.21334.21334,0,0,1,.09668-.03614.11667.11667,0,0,1,.11914.13233,2.61387,2.61387,0,0,1-2.31445,1.24707,3.81078,3.81078,0,0,1-1.01953-.15576v2.33838a2.11,2.11,0,0,1,1.52344-.61133,2.46113,2.46113,0,0,1,2.27832,2.62646A2.6488,2.6488,0,0,1,246.56836,202.938Z" transform="translate(-25 -38.25)"/>
      <path d="M252.50879,203.334a5.22658,5.22658,0,0,1-1.90723,2.33887.11353.11353,0,0,1-.12011-.12012c0-.03613,0-.06.15625-.2041a7.86194,7.86194,0,0,0,1.93066-5.67285,7.778,7.778,0,0,0-1.85938-5.60058c-.22753-.21582-.22753-.24024-.22753-.27588a.11328.11328,0,0,1,.12011-.12012,5.17782,5.17782,0,0,1,1.8711,2.25488,9.24329,9.24329,0,0,1,.03613,7.3999Z" transform="translate(-25 -38.25)"/>
    </g>
    <g>
      <path d="M27.97266,93.938a2.20148,2.20148,0,0,1-2.1709-2.19483.595.595,0,1,1,.58789.54.551.551,0,0,1-.2041-.02392,1.86889,1.86889,0,0,0,1.76269,1.34326,1.50244,1.50244,0,0,0,1.28418-.77979,3.494,3.494,0,0,0,.28711-1.64306,3.682,3.682,0,0,0-.21582-1.51123,1.17186,1.17186,0,0,0-1.01953-.76758,1.80034,1.80034,0,0,0-1.54688.83935c-.04785.07227-.07226.1084-.15625.1084-.168,0-.168-.09619-.168-.312V85.98633c0-.1919,0-.2876.12011-.2876a.47132.47132,0,0,1,.14453.03613,3.8976,3.8976,0,0,0,1.59473.33545,3.96352,3.96352,0,0,0,1.63086-.34765A.21334.21334,0,0,1,30,85.68652a.11667.11667,0,0,1,.11914.13233,2.61388,2.61388,0,0,1-2.31445,1.24707,3.81078,3.81078,0,0,1-1.01953-.15576v2.33838a2.11,2.11,0,0,1,1.52343-.61133,2.46112,2.46112,0,0,1,2.27832,2.62646A2.6488,2.6488,0,0,1,27.97266,93.938Z" transform="translate(-25 -38.25)"/>
      <path d="M38.12207,85.97461a.59221.59221,0,0,1-.51562.33594.50125.50125,0,0,1-.13184-.02442,8.0889,8.0889,0,0,0-1.73926-.68359.50233.50233,0,0,0-.13183-.01172.71543.71543,0,0,0-.31153.06006.67144.67144,0,0,0-.28808.2876.32734.32734,0,0,0-.03614.144c0,.51562.9834,1.45117,1.667,2.11084a3.28613,3.28613,0,0,1,.94824,1.42725,2.84115,2.84115,0,0,1,.11914.83935,4.321,4.321,0,0,1-.13184,1.01953,2.97955,2.97955,0,0,1-2.61426,2.32666,2.61146,2.61146,0,0,1-1.99121-.80322,2.03569,2.03569,0,0,1-.51562-1.36768,2.54216,2.54216,0,0,1,.07226-.5874,3.43035,3.43035,0,0,1,1.36719-1.895A4.36916,4.36916,0,0,1,35.46,88.457a4.198,4.198,0,0,1-.93555-2.12256,1.28834,1.28834,0,0,1,.12012-.564,1.21,1.21,0,0,1,.47949-.50342,1.93562,1.93562,0,0,1,.65918-.18018h.168a11.6392,11.6392,0,0,1,1.90723.27588.37611.37611,0,0,1,.32422.38379A.40929.40929,0,0,1,38.12207,85.97461Zm-1.583,4.25781A4.93655,4.93655,0,0,0,35.7959,88.937l-.07227-.10791A2.83421,2.83421,0,0,0,34.5,89.45264a3.27187,3.27187,0,0,0-.959,1.6792,3.7608,3.7608,0,0,0-.1084.80322,1.5038,1.5038,0,0,0,.21582.82764,1.54478,1.54478,0,0,0,1.332.64794c.75488,0,1.36719-.82763,1.583-1.66748A3.25947,3.25947,0,0,0,36.65918,91,2.62645,2.62645,0,0,0,36.53906,90.23242Z" transform="translate(-25 -38.25)"/>
      <path d="M42.89941,96.67285A5.1779,5.1779,0,0,1,41.02832,94.418a9.2378,9.2378,0,0,1-.03516-7.3999,5.21775,5.21775,0,0,1,1.90625-2.33887.1077.1077,0,0,1,.12012.12012c0,.03564,0,.06006-.15625.20361a7.84719,7.84719,0,0,0-1.93066,5.67285,7.9488,7.9488,0,0,0,1.88281,5.61328c.2041.20362.2041.22754.2041.26367A.1077.1077,0,0,1,42.89941,96.67285Z" transform="translate(-25 -38.25)"/>
      <path d="M46.16406,93.80615a1.01173,1.01173,0,0,1-1.01953-1.0791,1.86606,1.86606,0,0,1,.06055-.4082l.86328-3.4419h-.959c-.19239,0-.29981,0-.29981-.144,0-.22754.13184-.22754.335-.22754h1.01953l.46778-1.90723a.50068.50068,0,0,1,.46777-.43164.30082.30082,0,0,1,.32422.312A.72956.72956,0,0,1,47.376,86.73l-.44434,1.77539h.96c.19141,0,.29981,0,.29981.14356,0,.228-.13184.228-.33594.228H46.83594l-.8877,3.562a2.3479,2.3479,0,0,0-.084.61182c0,.1919,0,.4917.32422.4917.68359,0,1.16308-.89941,1.3789-1.4751.09668-.21582.09668-.228.24024-.228.084,0,.17968,0,.17968.12011C47.9873,92.019,47.376,93.80615,46.16406,93.80615Z" transform="translate(-25 -38.25)"/>
      <path d="M60.25,90.916H56.90332v3.35791c0,.168,0,.396-.24023.396-.23926,0-.23926-.228-.23926-.396V90.916h-3.3584c-.168,0-.39551,0-.39551-.24024,0-.23974.22754-.23974.39551-.23974h3.3584V87.07813c0-.168,0-.396.23926-.396.24023,0,.24023.228.24023.396V90.436H60.25c.167,0,.39551,0,.39551.23974C60.64551,90.916,60.417,90.916,60.25,90.916Z" transform="translate(-25 -38.25)"/>
      <path d="M69.17871,93.67432H64.72949c0-.2876,0-.312.13184-.44385l2.30273-2.56641a4.29528,4.29528,0,0,0,1.25977-2.65039c0-.98388-.51563-1.95508-1.60742-1.95508a1.72967,1.72967,0,0,0-1.61914,1.22315.4673.4673,0,0,1,.15625-.01172.60673.60673,0,0,1,.63574.62353.63057.63057,0,1,1-1.25977-.03613,2.2163,2.2163,0,0,1,2.24317-2.1709,2.35575,2.35575,0,0,1,2.542,2.32715c0,1.19922-.71973,1.84668-2.58985,3.502L65.65332,92.751h2.1582a3.898,3.898,0,0,0,1.13965-.09619,3.923,3.923,0,0,0,.26367-1.06739h.29981Z" transform="translate(-25 -38.25)"/>
      <path d="M72.84082,94.334a5.22658,5.22658,0,0,1-1.90723,2.33887.11353.11353,0,0,1-.12011-.12012c0-.03613,0-.06005.15625-.2041a7.86194,7.86194,0,0,0,1.93066-5.67285A7.778,7.778,0,0,0,71.041,85.0752c-.22754-.21582-.22754-.24024-.22754-.27588a.11328.11328,0,0,1,.12011-.12012,5.17782,5.17782,0,0,1,1.8711,2.25488,9.24329,9.24329,0,0,1,.03613,7.3999Z" transform="translate(-25 -38.25)"/>
    </g>
    <g>
      <path d="M44.17676,160.98193v-.6958H47.355v.6958Z" transform="translate(-25 -38.25)"/>
      <path d="M53.09033,163.22461h-4.4497c0-.28809,0-.312.13183-.44385l2.30274-2.5664a4.2961,4.2961,0,0,0,1.25927-2.65088c0-.9834-.51562-1.95459-1.60693-1.95459A1.72967,1.72967,0,0,0,49.1084,156.832a.46717.46717,0,0,1,.15576-.01172.60674.60674,0,0,1,.63574.62354.63033.63033,0,1,1-1.25927-.03614,2.21616,2.21616,0,0,1,2.24267-2.17089,2.35623,2.35623,0,0,1,2.543,2.32666c0,1.1997-.71973,1.84716-2.59082,3.50244L49.564,162.30127h2.15918a3.89778,3.89778,0,0,0,1.13916-.09619,3.923,3.923,0,0,0,.26368-1.06738h.30029Z" transform="translate(-25 -38.25)"/>
    </g>
    <path d="M152.11816,162.09717a2.2426,2.2426,0,0,1-4.06591.18017,6.0771,6.0771,0,0,1-.53955-2.89062,6.41441,6.41441,0,0,1,.44384-2.72266,2.19887,2.19887,0,0,1,2.08692-1.42724,2.22383,2.22383,0,0,1,2.03857,1.34326,8.47125,8.47125,0,0,1,.03613,5.51709Zm-.67187-5.19287c-.22754-1.1875-1.019-1.40332-1.415-1.40332-.2998,0-1.19922.10791-1.42725,1.53515a16.12263,16.12263,0,0,0-.0957,2.20655,16.36207,16.36207,0,0,0,.13184,2.53076c.21582,1.15136.92334,1.45117,1.39111,1.45117.53955,0,1.22314-.35986,1.40332-1.499a14.86852,14.86852,0,0,0,.13184-2.48291A14.71983,14.71983,0,0,0,151.44629,156.9043Z" transform="translate(-25 -38.25)"/>
    <g>
      <path d="M220.41455,144.5127c-.48,0-1.52344,0-1.94336.03613v-.37158h.38379c1.07959,0,1.11572-.144,1.11572-.57569v-6.21289a3.59184,3.59184,0,0,1-1.57129.312v-.37207a2.96246,2.96246,0,0,0,2.18262-.76757c.27588,0,.27588.02392.27588.312v6.72851c0,.44336.03613.57569,1.11572.57569h.38379v.37158C221.9375,144.5127,220.894,144.5127,220.41455,144.5127Z" transform="translate(-25 -38.25)"/>
      <path d="M224.999,144.54883a.63575.63575,0,1,1,.63575-.63574A.64022.64022,0,0,1,224.999,144.54883Z" transform="translate(-25 -38.25)"/>
      <path d="M229.43848,144.8125a2.20181,2.20181,0,0,1-2.1709-2.19482.595.595,0,1,1,.58789.54.551.551,0,0,1-.2041-.02392,1.869,1.869,0,0,0,1.76318,1.34326,1.50029,1.50029,0,0,0,1.2832-.77978,3.48878,3.48878,0,0,0,.2876-1.64307,3.69,3.69,0,0,0-.21582-1.51123,1.17173,1.17173,0,0,0-1.019-.76758,1.79931,1.79931,0,0,0-1.54736.83984c-.04786.07178-.07178.10791-.15577.10791-.168,0-.168-.09619-.168-.312v-3.55029c0-.19189,0-.2876.11963-.2876a.46416.46416,0,0,1,.144.03614,3.90139,3.90139,0,0,0,1.59521.33544,3.9657,3.9657,0,0,0,1.63086-.34765.21087.21087,0,0,1,.09619-.03613.11687.11687,0,0,1,.12012.13232,2.61583,2.61583,0,0,1-2.31494,1.24707,3.81038,3.81038,0,0,1-1.01953-.15576v2.33838a2.11077,2.11077,0,0,1,1.52343-.61133,2.4615,2.4615,0,0,1,2.27881,2.62646A2.64952,2.64952,0,0,1,229.43848,144.8125Z" transform="translate(-25 -38.25)"/>
    </g>
  </g>
</svg>
