<svg xmlns="http://www.w3.org/2000/svg" viewBox="0 0 174 92.35645">
  <defs>
    <style>
      .cls-1, .cls-2 {
        fill: none;
        stroke-width: 2px;
      }

      .cls-1 {
        stroke: #000;
        stroke-miterlimit: 10;
      }

      .cls-2 {
        stroke: #c1272d;
        stroke-linecap: round;
        stroke-linejoin: round;
      }
    </style>
  </defs>
  <title>UnitStepFunction</title>
  <g id="Layer_1" data-name="Layer 1">
    <g>
      <line class="cls-1" x1="39" y1="3.95598" x2="39" y2="75"/>
      <polygon points="34.547 12.232 35.864 12.71 39 4.093 42.136 12.71 43.452 12.232 39 0 34.547 12.232"/>
    </g>
    <g>
      <line class="cls-1" x1="1.5" y1="75" x2="170.04401" y2="75"/>
      <polygon points="161.768 79.453 161.29 78.136 169.907 75 161.29 71.864 161.768 70.548 174 75 161.768 79.453"/>
    </g>
  </g>
  <g id="Layer_2" data-name="Layer 2">
    <polyline class="cls-2" points="1 75 39 75 39 25 163 25"/>
  </g>
  <g id="Layer_3" data-name="Layer 3">
    <g>
      <path d="M129.41357,34.68506a.95309.95309,0,0,1-1.835-.04834,1.6688,1.6688,0,0,1-1.33154.71973,1.261,1.261,0,0,1-1.34326-1.39112,8.00439,8.00439,0,0,1,.62353-2.35058,3.53552,3.53552,0,0,0,.28809-1.07959c0-.312-.13184-.34766-.26367-.34766-.6958,0-1.01953,1.13916-1.11572,1.51123-.04786.16748-.06006.1919-.21583.1919-.06,0-.17968,0-.17968-.12012,0-.07178.41943-1.84717,1.53515-1.84717a.89849.89849,0,0,1,.91114.97168,1.69107,1.69107,0,0,1-.15577.64746,9.20747,9.20747,0,0,0-.69531,2.62647c0,.396.10791.92382.64746.92382a1.3587,1.3587,0,0,0,1.10352-.6958.92053.92053,0,0,0,.168-.39551l.87549-3.50244c.02392-.0957.10791-.44336.46728-.44336a.31412.31412,0,0,1,.33594.31153.59859.59859,0,0,1-.03565.168l-.86377,3.4541a2.34784,2.34784,0,0,0-.084.61181c0,.168,0,.4917.312.4917.40772,0,.63574-.75586.80322-1.42724.07227-.26416.084-.27588.228-.27588.084,0,.18018,0,.18018.12012A6.28883,6.28883,0,0,1,129.41357,34.68506Z" transform="translate(-111 -25)"/>
      <path d="M132.61914,38.22314c-.168,0-.68359-.6958-.9834-1.49951a6.35737,6.35737,0,0,1-.32422-2.0625,11.73665,11.73665,0,0,1,1.69141-5.75683,7.6873,7.6873,0,0,1,2.55469-2.67481.10757.10757,0,0,1,.11963.12012c0,.03564-.01172.04785-.17969.21582-2.87842,2.44678-3.58594,6.896-3.58594,8.52734a4.95618,4.95618,0,0,0,.74365,2.84229.3742.3742,0,0,1,.0835.168A.1134.1134,0,0,1,132.61914,38.22314Z" transform="translate(-111 -25)"/>
      <path d="M136.84326,35.35645a1.01146,1.01146,0,0,1-1.01953-1.07911,1.8437,1.8437,0,0,1,.06006-.4082l.86328-3.44189h-.95947c-.1919,0-.29981,0-.29981-.144,0-.22754.13184-.22754.33594-.22754h1.01953l.46778-1.90722a.50067.50067,0,0,1,.46777-.43164.30055.30055,0,0,1,.32373.31152.72986.72986,0,0,1-.04785.252l-.44385,1.77539h.95947c.1919,0,.29981,0,.29981.14356,0,.228-.13184.228-.33594.228h-1.01953l-.88721,3.562a2.34784,2.34784,0,0,0-.084.61181c0,.1919,0,.4917.32373.4917.68359,0,1.16308-.89941,1.37939-1.47509.09571-.21631.09571-.228.23975-.228.084,0,.17969,0,.17969.12012C138.666,33.56934,138.05469,35.35645,136.84326,35.35645Z" transform="translate(-111 -25)"/>
      <path d="M141.271,35.54834a7.69207,7.69207,0,0,1-2.55469,2.6748.1077.1077,0,0,1-.12012-.12011c0-.03614.01221-.04785.18018-.21582,2.87842-2.44678,3.58593-6.89649,3.58593-8.52735a4.96,4.96,0,0,0-.74365-2.84228.37315.37315,0,0,1-.084-.168.11328.11328,0,0,1,.12012-.12012c.16748,0,.68359.6958.98339,1.499a6.36239,6.36239,0,0,1,.32373,2.063A11.74314,11.74314,0,0,1,141.271,35.54834Z" transform="translate(-111 -25)"/>
    </g>
    <path d="M276.49219,117.35645a1.01117,1.01117,0,0,1-1.01953-1.07911,1.82174,1.82174,0,0,1,.05957-.4082l.86328-3.44189h-.96c-.19141,0-.29883,0-.29883-.14405,0-.22754.13086-.22754.33594-.22754h1.01953l.46679-1.90722a.50175.50175,0,0,1,.46875-.43164.30042.30042,0,0,1,.32325.31152.72986.72986,0,0,1-.04785.252l-.44336,1.77539h.959c.19141,0,.2998,0,.2998.14356,0,.228-.13183.228-.33593.228h-1.01953l-.8877,3.562a2.34784,2.34784,0,0,0-.084.61181c0,.1919,0,.4917.32422.4917.68359,0,1.16308-.89941,1.3789-1.47509.0957-.21631.0957-.228.24024-.228.084,0,.17968,0,.17968.12012C278.31445,115.56934,277.70313,117.35645,276.49219,117.35645Z" transform="translate(-111 -25)"/>
    <path d="M142.77832,53.63818c-.47949,0-1.52246,0-1.94238.03614v-.37159h.38379c1.0791,0,1.11523-.144,1.11523-.57568V46.51416a3.59073,3.59073,0,0,1-1.57129.312V46.4541a2.96243,2.96243,0,0,0,2.18262-.76758c.27637,0,.27637.02442.27637.312v6.72851c0,.44336.03613.57568,1.11523.57568h.38379v.37159C144.30176,53.63818,143.25879,53.63818,142.77832,53.63818Z" transform="translate(-111 -25)"/>
    <path d="M151.76953,111.54688a2.24223,2.24223,0,0,1-4.06543.18017,6.07176,6.07176,0,0,1-.54-2.89062,6.41421,6.41421,0,0,1,.44336-2.72266,2.19931,2.19931,0,0,1,2.08692-1.42725,2.224,2.224,0,0,1,2.03906,1.34327,8.47976,8.47976,0,0,1,.03613,5.51709Zm-.67187-5.19288c-.22754-1.1875-1.01953-1.40332-1.415-1.40332-.29981,0-1.19922.10791-1.42676,1.53516a15.9604,15.9604,0,0,0-.09668,2.20654,16.362,16.362,0,0,0,.13184,2.53076c.21582,1.15137.92382,1.45118,1.3916,1.45118.54,0,1.22363-.35987,1.40332-1.499a14.86958,14.86958,0,0,0,.13183-2.48291A14.72117,14.72117,0,0,0,151.09766,106.354Z" transform="translate(-111 -25)"/>
  </g>
</svg>
