<svg xmlns="http://www.w3.org/2000/svg" viewBox="0 0 256.85303 86.8153">
  <defs>
    <style>
      .cls-1, .cls-2, .cls-3, .cls-4, .cls-5, .cls-6 {
        fill: none;
      }

      .cls-1, .cls-2, .cls-3, .cls-4, .cls-5 {
        stroke: #000;
      }

      .cls-1, .cls-2, .cls-3, .cls-4 {
        stroke-linecap: round;
        stroke-width: 2px;
      }

      .cls-2 {
        stroke-linejoin: bevel;
      }

      .cls-3, .cls-4 {
        stroke-linejoin: round;
      }

      .cls-4 {
        stroke-dasharray: 5 5;
      }

      .cls-5 {
        stroke-linecap: square;
        stroke-width: 1.5px;
      }

      .cls-6 {
        stroke: #c1272d;
        stroke-miterlimit: 10;
      }

      .cls-7 {
        fill: #c1272d;
      }
    </style>
  </defs>
  <title>VoltageDivision</title>
  <g id="Layer_1" data-name="Layer 1">
    <circle class="cls-1" cx="27.84521" cy="31.0028" r="12.5"/>
    <line class="cls-1" x1="27.84521" y1="18.0028" x2="27.84521" y2="6.0028"/>
    <line class="cls-1" x1="27.84521" y1="44.0028" x2="27.84521" y2="56.0028"/>
    <path id="path1901" class="cls-1" d="M43,75a3.5,3.5,0,0,1,7,0,3.5,3.5,0,0,0,7,0" transform="translate(-22.15479 -43.9972)"/>
    <path id="path3970" class="cls-2" d="M125,50h-8.33333l-2.77778-5.55556-5.55556,11.11111-5.55555-11.11111L97.22222,55.55553,91.66667,44.44441,86.11111,55.55553,83.33333,50H75" transform="translate(-22.15479 -43.9972)"/>
    <path id="path3970-2" data-name="path3970" class="cls-2" d="M200,50h-8.33333l-2.77778-5.55556-5.55556,11.11111-5.55555-11.11111-5.55556,11.11112-5.55555-11.11112-5.55556,11.11112L158.33333,50H150" transform="translate(-22.15479 -43.9972)"/>
    <path id="path3970-3" data-name="path3970" class="cls-2" d="M250,50v8.33333l-5.55556,2.77778,11.11111,5.55556-11.11111,5.55555,11.11112,5.55556-11.11111,5.55555,11.11111,5.55556L250,91.66667V100" transform="translate(-22.15479 -43.9972)"/>
  </g>
  <g id="Layer_2" data-name="Layer 2">
    <line class="cls-3" x1="102.84521" y1="6.00277" x2="127.84521" y2="6.00277"/>
    <line class="cls-3" x1="177.84521" y1="6.00277" x2="187.84521" y2="6.0028"/>
    <line class="cls-3" x1="227.84521" y1="6.00277" x2="217.84521" y2="6.0028"/>
    <g>
      <line class="cls-3" x1="187.84521" y1="6.0028" x2="190.34521" y2="6.0028"/>
      <line class="cls-4" x1="195.34521" y1="6.0028" x2="212.84521" y2="6.0028"/>
      <line class="cls-3" x1="215.34521" y1="6.0028" x2="217.84521" y2="6.0028"/>
    </g>
    <line class="cls-1" x1="27.84521" y1="6.0028" x2="52.84521" y2="6.00277"/>
    <path d="M31.71338,71.28027c-.87549,0-.92334.10791-.99561.26368l-3.18994,7.208a.42345.42345,0,0,1-.48.28809c-.33594,0-.38379-.09619-.47949-.312l-3.31055-7.44776h-1.103v-.564c.41943.03613,1.42724.03613,1.895.03613.51563,0,1.667,0,2.12256-.03613v.564H25.04492l2.55469,5.74463,2.42285-5.457a.51494.51494,0,0,0,.04785-.144c0-.14356-.94775-.14356-1.05566-.14356v-.564c.46777.03613,1.0918.03613,1.57129.03613l1.35547-.03613v.564Z" transform="translate(-22.15479 -43.9972)"/>
    <g>
      <line class="cls-5" x1="235.34521" y1="14.0028" x2="240.34521" y2="14.0028"/>
      <line class="cls-5" x1="237.84521" y1="16.5028" x2="237.84522" y2="11.5028"/>
    </g>
    <line class="cls-5" x1="235.34521" y1="49.0028" x2="240.34521" y2="49.0028"/>
    <g>
      <path d="M274.71191,71.62646c-.876,0-.92285.10792-.99511.26368l-3.19043,7.208a.42294.42294,0,0,1-.47949.28809c-.33594,0-.38477-.09619-.48047-.312l-3.31055-7.44776h-1.10254v-.564c.41895.03613,1.42676.03613,1.89551.03613.51562,0,1.666,0,2.12207-.03613v.564H268.043l2.55469,5.74463,2.42382-5.457a.51452.51452,0,0,0,.04688-.144c0-.14356-.94727-.14356-1.05469-.14356v-.564c.4668.03613,1.0918.03613,1.57031.03613l1.35547-.03613v.564Z" transform="translate(-22.15479 -43.9972)"/>
      <path d="M278.22461,83.26514l-.78906.021v-.21679c.46875,0,.54492,0,.54492-.31446V81.12646c0-.39794-.07617-.77539-.51758-.77539a1.02043,1.02043,0,0,0-.94336,1.11817v1.28564c0,.31446.07715.31446.54492.31446v.21679l-.78222-.021-.79.021v-.21679c.46875,0,.54492,0,.54492-.31446V80.88232c0-.34277-.05469-.3916-.54492-.3916v-.21679l.98633-.07666v.73388a1.1,1.1,0,0,1,1.0332-.73388.932.932,0,0,1,.73437.2583c.2168.252.2168.46826.2168,1.06933v1.335c.00684.20948.18164.20948.54492.20948v.21679Z" transform="translate(-22.15479 -43.9972)"/>
    </g>
    <g>
      <path d="M236.35742,79.29h-6.36914c-.26367,0-.38379,0-.38379-.312a.41558.41558,0,0,1,.09571-.31153l4.79785-7.04h-1.55957c-1.67871,0-2.48243.73145-2.57813,2.32667h-.56347l.14355-2.89063h6.165c.25195,0,.38379,0,.38379.2998a.36366.36366,0,0,1-.09668.28809l-4.78516,7.02783h1.67969c2.458,0,2.626-1.46289,2.72168-2.79443h.56445Z" transform="translate(-22.15479 -43.9972)"/>
      <path d="M240.22949,83.26514l-.79.021v-.21679c.46875,0,.54493,0,.54493-.31446V81.12646c0-.39794-.07618-.77539-.51661-.77539a1.02043,1.02043,0,0,0-.94336,1.11817v1.28564c0,.31446.07618.31446.54493.31446v.21679l-.78321-.021-.78906.021v-.21679c.46777,0,.54492,0,.54492-.31446V80.88232c0-.34277-.05566-.3916-.54492-.3916v-.21679l.98535-.07666v.73388a1.1003,1.1003,0,0,1,1.03418-.73388.9311.9311,0,0,1,.7334.2583c.2168.252.2168.46826.2168,1.06933v1.335c.00683.20948.18164.20948.54492.20948v.21679Z" transform="translate(-22.15479 -43.9972)"/>
    </g>
    <g>
      <polyline class="cls-6" points="52.845 69.003 52.845 31.003 63.761 31.003"/>
      <polygon class="cls-7" points="60.447 35.093 59.765 34.36 63.377 31.004 59.765 27.646 60.447 26.914 64.845 31.004 60.447 35.093"/>
    </g>
    <g>
      <path d="M74.90234,125.46045H68.5332c-.26367,0-.38379,0-.38379-.312a.41558.41558,0,0,1,.09571-.31153l4.79785-7.04H71.4834c-1.67871,0-2.48242.73144-2.57813,2.32666H68.3418l.14355-2.89063h6.165c.25195,0,.38379,0,.38379.2998a.36366.36366,0,0,1-.09668.28809l-4.78516,7.02783H71.832c2.458,0,2.626-1.46289,2.72168-2.79443h.56445Z" transform="translate(-22.15479 -43.9972)"/>
      <path d="M77.55078,129.5332a1.578,1.578,0,0,1-1.53711-1.61425,1.527,1.527,0,0,1,1.4541-1.59327,1.23981,1.23981,0,0,1,1.251,1.36963c0,.147-.02148.147-.1748.147h-1.9502a2.03294,2.03294,0,0,0,.21,1.04834.94082.94082,0,0,0,.78906.46826.98574.98574,0,0,0,.94434-.72022c.01367-.05566.02734-.09765.09082-.09765a.08163.08163,0,0,1,.09082.084A1.19457,1.19457,0,0,1,77.55078,129.5332Zm-.083-3.05371c-.23828,0-.82519.17481-.86718,1.21582h1.65625C78.25684,127.42285,78.1875,126.47949,77.46777,126.47949Z" transform="translate(-22.15479 -43.9972)"/>
      <path d="M81.81738,130.7915l-.7832.021v-.2168c.46875,0,.5459,0,.5459-.31445v-1.251a1.147,1.147,0,0,1-.92969.50293,1.54226,1.54226,0,0,1-1.48828-1.5791,1.57179,1.57179,0,0,1,1.54394-1.58642,1.05589,1.05589,0,0,1,.93653.63574l.26562-.63574h.15332v3.91357c0,.31445.07715.31445.5459.31445v.2168Zm-.21679-3.271c0-.37012-.293-.978-.85254-.978-.51758,0-1.00586.58008-1.00586,1.41162,0,.80371.42578,1.42578.93554,1.42578a.97731.97731,0,0,0,.92286-.874Z" transform="translate(-22.15479 -43.9972)"/>
    </g>
    <line class="cls-1" x1="27.84521" y1="56.0028" x2="227.84521" y2="56.0028"/>
  </g>
</svg>
