<?xml version="1.0" encoding="utf-8"?>
<!-- Generator: Adobe Illustrator 23.0.3, SVG Export Plug-In . SVG Version: 6.00 Build 0)  -->
<svg version="1.1" id="Layer_1" xmlns="http://www.w3.org/2000/svg" xmlns:xlink="http://www.w3.org/1999/xlink" x="0px" y="0px"
	 viewBox="0 0 255.3 90.5" style="enable-background:new 0 0 255.3 90.5;" xml:space="preserve">
<style type="text/css">
	.st0{fill:none;stroke:#8FF4DD;stroke-width:2;stroke-linecap:round;}
	.st1{fill:none;stroke:#8FF4DD;stroke-width:2;stroke-linecap:square;stroke-linejoin:round;}
	.st2{fill:none;stroke:#8FF4DD;stroke-width:2;stroke-linecap:round;stroke-linejoin:round;}
	.st3{fill:none;stroke:#8FF4DD;stroke-width:2;stroke-linecap:round;stroke-linejoin:round;stroke-dasharray:5,5;}
	.st4{fill:none;stroke:#8FF4DD;stroke-width:1.5;stroke-linecap:square;}
	.st5{fill:#FD1D53;}
	.st6{fill:none;stroke:#FD1D53;stroke-miterlimit:10;}
	.st7{fill:#8FF4DD;}
</style>
<title>VoltageDivision</title>
<circle class="st0" cx="27.4" cy="31.6" r="12.5"/>
<line class="st0" x1="27.4" y1="18.6" x2="27.4" y2="6.6"/>
<line class="st0" x1="27.4" y1="44.6" x2="27.4" y2="56.6"/>
<path id="path1901" class="st0" d="M20.4,31.6c0-1.9,1.6-3.5,3.5-3.5s3.5,1.6,3.5,3.5s1.6,3.5,3.5,3.5c1.9,0,3.5-1.6,3.5-3.5"/>
<g>
	<path id="path5036" class="st0" d="M52.6,6.6h11.1"/>
	<path id="path5038" class="st0" d="M91.5,6.6h11.1"/>
	<rect id="rect5044" x="63.7" y="1" class="st1" width="27.8" height="11.1"/>
</g>
<line class="st2" x1="102.4" y1="6.6" x2="127.4" y2="6.6"/>
<line class="st2" x1="177.4" y1="6.6" x2="187.4" y2="6.6"/>
<line class="st2" x1="227.4" y1="6.6" x2="217.4" y2="6.6"/>
<line class="st2" x1="187.4" y1="6.6" x2="189.9" y2="6.6"/>
<line class="st3" x1="194.9" y1="6.6" x2="212.4" y2="6.6"/>
<line class="st2" x1="214.9" y1="6.6" x2="217.4" y2="6.6"/>
<line class="st0" x1="27.4" y1="6.6" x2="52.4" y2="6.6"/>
<line class="st4" x1="234.9" y1="14.6" x2="239.9" y2="14.6"/>
<line class="st4" x1="237.4" y1="17.1" x2="237.4" y2="12.1"/>
<line class="st4" x1="234.9" y1="49.6" x2="239.9" y2="49.6"/>
<polygon class="st5" points="60,35.6 59.4,34.9 63,31.6 59.4,28.2 60,27.5 64.4,31.6 "/>
<line class="st0" x1="27.4" y1="56.6" x2="227.4" y2="56.6"/>
<g>
	<path id="path5036_1_" class="st0" d="M127.7,6.6h11.1"/>
	<path id="path5038_1_" class="st0" d="M166.6,6.6h11.1"/>
	<rect id="rect5044_1_" x="138.8" y="1" class="st1" width="27.8" height="11.1"/>
</g>
<g>
	<path id="path5036_2_" class="st0" d="M227.4,56.4V45.3"/>
	<path id="path5038_2_" class="st0" d="M227.4,17.5V6.4"/>
	<rect id="rect5044_2_" x="221.9" y="17.5" class="st1" width="11.1" height="27.8"/>
</g>
<polyline class="st6" points="52.4,69.6 52.4,31.6 63.4,31.6 "/>
<g>
	<path class="st7" d="M11.5,26.6c-1,0-1.1,0.1-1.2,0.3l-3.7,8.4c-0.2,0.3-0.3,0.3-0.6,0.3c-0.4,0-0.4-0.1-0.6-0.4l-3.9-8.7H0.4V26
		c0.5,0,1.7,0,2.2,0c0.6,0,1.9,0,2.5,0v0.7H3.7l3,6.7L9.6,27c0,0,0.1-0.1,0.1-0.2c0-0.2-1.1-0.2-1.2-0.2V26c0.5,0,1.3,0,1.8,0l1.6,0
		v0.7L11.5,26.6L11.5,26.6z"/>
</g>
<g>
	<path class="st7" d="M213,36h-7.4c-0.3,0-0.4,0-0.4-0.4c0-0.2,0-0.2,0.1-0.4l5.6-8.2H209c-2,0-2.9,0.9-3,2.7h-0.7l0.2-3.4h7.2
		c0.3,0,0.4,0,0.4,0.4c0,0.2,0,0.2-0.1,0.3l-5.6,8.2h2c2.9,0,3.1-1.7,3.2-3.3h0.7L213,36z"/>
	<path class="st7" d="M217.5,40.7c-0.4,0-0.8-0.3-0.8-0.8c0-0.2,0-0.3,0.1-0.6c0.2-0.5,0.6-1.8,0.6-2.4c0-0.2,0-0.7-0.5-0.7
		c-1,0-1.6,1.3-1.6,1.6l-0.6,2.6c0,0.2-0.1,0.4-0.4,0.4c-0.2,0-0.3-0.1-0.3-0.3c0,0,0-0.1,0-0.2l0.8-3.1c0-0.1,0.1-0.4,0.1-0.6
		c0-0.1,0-0.4-0.3-0.4c-0.4,0-0.6,0.6-0.7,1.2c-0.1,0.2-0.1,0.3-0.2,0.3c-0.1,0-0.1,0-0.1-0.1c0,0,0.1-0.6,0.3-1
		c0.2-0.5,0.5-0.6,0.7-0.6c0.5,0,0.8,0.4,0.8,0.8c0.3-0.5,0.8-0.8,1.5-0.8c0.8,0,1,0.5,1,1.1c0,0.6-0.4,1.6-0.6,2.3
		c-0.1,0.2-0.2,0.5-0.2,0.8c0,0.2,0.1,0.3,0.2,0.3c0.6,0,0.9-0.9,1-1.3c0-0.2,0.1-0.2,0.2-0.2c0,0,0.1,0,0.1,0.1
		C218.8,39.2,218.5,40.7,217.5,40.7z"/>
</g>
<g>
	<path class="st7" d="M251.4,27c-1,0-1.1,0.1-1.2,0.3l-3.7,8.4c-0.2,0.3-0.3,0.3-0.6,0.3c-0.4,0-0.4-0.1-0.6-0.4l-3.9-8.7h-1.3v-0.7
		c0.5,0,1.7,0,2.2,0c0.6,0,1.9,0,2.5,0V27h-1.3l3,6.7l2.8-6.4c0,0,0.1-0.1,0.1-0.2c0-0.2-1.1-0.2-1.2-0.2v-0.7c0.5,0,1.3,0,1.8,0
		l1.6,0V27L251.4,27L251.4,27z"/>
	<path class="st7" d="M251.7,40.7c-0.4,0-0.8-0.3-0.8-0.8c0-0.2,0-0.3,0.1-0.6c0.2-0.5,0.6-1.8,0.6-2.4c0-0.2,0-0.7-0.5-0.7
		c-1,0-1.6,1.3-1.6,1.6l-0.6,2.6c0,0.2-0.1,0.4-0.4,0.4c-0.2,0-0.3-0.1-0.3-0.3c0,0,0-0.1,0-0.2l0.8-3.1c0-0.1,0.1-0.4,0.1-0.6
		c0-0.1,0-0.4-0.3-0.4c-0.4,0-0.6,0.6-0.7,1.2c-0.1,0.2-0.1,0.3-0.2,0.3c-0.1,0-0.1,0-0.1-0.1c0,0,0.1-0.6,0.3-1
		c0.2-0.5,0.5-0.6,0.7-0.6c0.5,0,0.8,0.4,0.8,0.8c0.3-0.5,0.8-0.8,1.5-0.8c0.8,0,1,0.5,1,1.1c0,0.6-0.4,1.6-0.6,2.3
		c-0.1,0.2-0.2,0.5-0.2,0.8c0,0.2,0.1,0.3,0.2,0.3c0.6,0,0.9-0.9,1-1.3c0-0.2,0.1-0.2,0.2-0.2c0,0,0.1,0,0.1,0.1
		C253,39.2,252.6,40.7,251.7,40.7z"/>
</g>
<g>
	<path class="st7" d="M55.6,81.7h-7.4c-0.3,0-0.4,0-0.4-0.4c0-0.2,0-0.2,0.1-0.4l5.6-8.2h-1.8c-2,0-2.9,0.9-3,2.7h-0.7l0.2-3.4h7.2
		c0.3,0,0.4,0,0.4,0.4c0,0.2,0,0.2-0.1,0.3L50.1,81h2c2.9,0,3.1-1.7,3.2-3.3h0.7L55.6,81.7z"/>
	<path class="st7" d="M58.6,86.5c-0.9,0-1.7-0.8-1.7-1.9c0-1,0.7-1.9,1.6-1.9c1,0,1.4,0.8,1.4,1.6c0,0.2,0,0.2-0.2,0.2h-2.3v0.2
		c0,1.4,0.8,1.6,1.2,1.6s0.9-0.2,1.1-0.9c0,0,0-0.1,0.1-0.1c0,0,0.1,0,0.1,0.1C60,85.6,59.6,86.5,58.6,86.5z M58.5,82.9
		c-0.2,0-0.9,0.1-1,1.4h1.9C59.5,84.1,59.4,82.9,58.5,82.9z"/>
	<path class="st7" d="M63.5,88c-0.2,0-0.7,0-0.9,0v-0.2c0.5,0,0.6,0,0.6-0.4v-1.5c-0.3,0.4-0.7,0.6-1.1,0.6c-0.9,0-1.7-0.8-1.7-1.8
		c0-1.1,0.8-1.8,1.7-1.8c0.6,0,0.9,0.4,1.1,0.8l0.3-0.8h0.2v4.6c0,0.4,0.1,0.4,0.6,0.4V88C64.2,88,63.8,88,63.5,88z M63.3,84.1
		c0-0.4-0.3-1.1-1-1.1c-0.6,0-1.2,0.7-1.2,1.7c0,0.9,0.5,1.7,1.1,1.7c0.1,0,0.4,0,0.7-0.3c0.2-0.2,0.3-0.4,0.3-0.7V84.1z"/>
</g>
</svg>
