<?xml version="1.0" encoding="utf-8"?>
<!-- Generator: Adobe Illustrator 23.0.3, SVG Export Plug-In . SVG Version: 6.00 Build 0)  -->
<svg version="1.1" id="Layer_1" xmlns="http://www.w3.org/2000/svg" xmlns:xlink="http://www.w3.org/1999/xlink" x="0px" y="0px"
	 viewBox="0 0 256.9 87.4" style="enable-background:new 0 0 256.9 87.4;" xml:space="preserve">
<style type="text/css">
	.st0{fill:none;stroke:#8FF4DD;stroke-width:2;stroke-linecap:round;}
	.st1{fill:none;stroke:#8FF4DD;stroke-width:2;stroke-linecap:square;stroke-linejoin:round;}
	.st2{fill:none;stroke:#8FF4DD;stroke-width:2;stroke-linecap:round;stroke-linejoin:round;}
	.st3{fill:none;stroke:#8FF4DD;stroke-width:2;stroke-linecap:round;stroke-linejoin:round;stroke-dasharray:5,5;}
	.st4{fill:#8FF4DD;}
	.st5{fill:none;stroke:#8FF4DD;stroke-width:1.5;stroke-linecap:square;}
	.st6{font-family:'LMRoman12-Italic';}
	.st7{font-size:12px;}
	.st8{fill:#FD1D53;}
	.st9{fill:none;stroke:#FD1D53;stroke-miterlimit:10;}
</style>
<title>VoltageDivision</title>
<circle class="st0" cx="27.8" cy="31.6" r="12.5"/>
<line class="st0" x1="27.8" y1="18.6" x2="27.8" y2="6.6"/>
<line class="st0" x1="27.8" y1="44.6" x2="27.8" y2="56.6"/>
<path id="path1901" class="st0" d="M20.8,31.6c0-1.9,1.6-3.5,3.5-3.5s3.5,1.6,3.5,3.5s1.6,3.5,3.5,3.5s3.5-1.6,3.5-3.5"/>
<g>
	<path id="path5036" class="st0" d="M53,6.6h11.1"/>
	<path id="path5038" class="st0" d="M91.9,6.6H103"/>
	<rect id="rect5044" x="64.1" y="1" class="st1" width="27.8" height="11.1"/>
</g>
<line class="st2" x1="102.8" y1="6.6" x2="127.8" y2="6.6"/>
<line class="st2" x1="177.8" y1="6.6" x2="187.8" y2="6.6"/>
<line class="st2" x1="227.8" y1="6.6" x2="217.8" y2="6.6"/>
<line class="st2" x1="187.8" y1="6.6" x2="190.3" y2="6.6"/>
<line class="st3" x1="195.3" y1="6.6" x2="212.8" y2="6.6"/>
<line class="st2" x1="215.3" y1="6.6" x2="217.8" y2="6.6"/>
<line class="st0" x1="27.8" y1="6.6" x2="52.8" y2="6.6"/>
<path class="st4" d="M9.6,27.8c-0.9,0-0.9,0.1-1,0.3l-3.2,7.2c-0.1,0.2-0.3,0.3-0.5,0.3c-0.3,0-0.4-0.1-0.5-0.3l-3.3-7.4H0v-0.6
	c0.4,0,1.4,0,1.9,0c0.5,0,1.7,0,2.1,0v0.6H2.9l2.6,5.7l2.4-5.5c0,0,0-0.1,0-0.1c0-0.1-0.9-0.1-1.1-0.1v-0.6c0.5,0,1.1,0,1.6,0l1.4,0
	v0.6L9.6,27.8z"/>
<line class="st5" x1="235.3" y1="14.6" x2="240.3" y2="14.6"/>
<line class="st5" x1="237.8" y1="17.1" x2="237.8" y2="12.1"/>
<line class="st5" x1="235.3" y1="49.6" x2="240.3" y2="49.6"/>
<path class="st4" d="M252.6,28.2c-0.9,0-0.9,0.1-1,0.3l-3.2,7.2c-0.1,0.2-0.3,0.3-0.5,0.3c-0.3,0-0.4-0.1-0.5-0.3l-3.3-7.4H243v-0.6
	c0.4,0,1.4,0,1.9,0c0.5,0,1.7,0,2.1,0v0.6h-1.1l2.6,5.7l2.4-5.5c0,0,0-0.1,0-0.1c0-0.1-0.9-0.1-1.1-0.1v-0.6c0.5,0,1.1,0,1.6,0
	l1.4,0v0.6L252.6,28.2z"/>
<path class="st4" d="M256.1,39.8l-0.8,0v-0.2c0.5,0,0.5,0,0.5-0.3v-1.6c0-0.4-0.1-0.8-0.5-0.8c-0.6,0-1,0.5-0.9,1.1c0,0,0,0,0,0v1.3
	c0,0.3,0.1,0.3,0.5,0.3v0.2l-0.8,0l-0.8,0v-0.2c0.5,0,0.5,0,0.5-0.3v-1.9c0-0.3-0.1-0.4-0.5-0.4v-0.2l1-0.1v0.7
	c0.2-0.4,0.6-0.7,1-0.7c0.3,0,0.5,0.1,0.7,0.3c0.2,0.3,0.2,0.5,0.2,1.1v1.3c0,0.2,0.2,0.2,0.5,0.2v0.2L256.1,39.8z"/>
<path class="st4" d="M214.2,35.8h-6.4c-0.3,0-0.4,0-0.4-0.3c0-0.1,0-0.2,0.1-0.3l4.8-7h-1.6c-1.7,0-2.5,0.7-2.6,2.3h-0.6l0.1-2.9
	h6.2c0.3,0,0.4,0,0.4,0.3c0,0.1,0,0.2-0.1,0.3l-4.8,7h1.7c2.5,0,2.6-1.5,2.7-2.8h0.6L214.2,35.8z"/>
<text transform="matrix(0.583 0 0 0.583 214.8366 39.8418)" class="st4 st6 st7">n</text>
<polygon class="st8" points="60.4,35.6 59.8,34.9 63.4,31.6 59.8,28.2 60.4,27.5 64.8,31.6 "/>
<path class="st4" d="M52.7,82h-6.4c-0.3,0-0.4,0-0.4-0.3c0-0.1,0-0.2,0.1-0.3l4.8-7h-1.6c-1.7,0-2.5,0.7-2.6,2.3h-0.6l0.1-2.9h6.2
	c0.3,0,0.4,0,0.4,0.3c0,0.1,0,0.2-0.1,0.3l-4.8,7h1.7c2.5,0,2.6-1.5,2.7-2.8H53L52.7,82z"/>
<path class="st4" d="M55.4,86.1c-0.9,0-1.6-0.7-1.5-1.6c0-0.8,0.6-1.6,1.5-1.6c0.7,0,1.2,0.5,1.3,1.2c0,0,0,0.1,0,0.1
	c0,0.1,0,0.1-0.2,0.1h-2c0,0.4,0,0.7,0.2,1c0.2,0.3,0.5,0.5,0.8,0.5c0.4,0,0.8-0.3,0.9-0.7c0-0.1,0-0.1,0.1-0.1c0,0,0.1,0,0.1,0.1
	c0,0,0,0,0,0C56.4,85.7,55.9,86.1,55.4,86.1z M55.3,83c-0.2,0-0.8,0.2-0.9,1.2h1.7C56.1,84,56,83,55.3,83z"/>
<path class="st4" d="M59.7,87.3l-0.8,0v-0.2c0.5,0,0.5,0,0.5-0.3v-1.3c-0.2,0.3-0.6,0.5-0.9,0.5c-0.8,0-1.5-0.7-1.5-1.6
	c0-0.9,0.7-1.6,1.5-1.6c0.4,0,0.8,0.3,0.9,0.6l0.3-0.6h0.2v3.9c0,0.3,0.1,0.3,0.5,0.3v0.2L59.7,87.3z M59.4,84.1c0-0.4-0.3-1-0.9-1
	c-0.5,0-1,0.6-1,1.4c0,0.8,0.4,1.4,0.9,1.4c0.5,0,0.9-0.4,0.9-0.9V84.1z"/>
<line class="st0" x1="27.8" y1="56.6" x2="227.8" y2="56.6"/>
<g>
	<path id="path5036_1_" class="st0" d="M128.1,6.6h11.1"/>
	<path id="path5038_1_" class="st0" d="M167,6.6h11.1"/>
	<rect id="rect5044_1_" x="139.2" y="1" class="st1" width="27.8" height="11.1"/>
</g>
<g>
	<path id="path5036_2_" class="st0" d="M227.8,56.4V45.3"/>
	<path id="path5038_2_" class="st0" d="M227.8,17.5V6.4"/>
	<rect id="rect5044_2_" x="222.3" y="17.5" class="st1" width="11.1" height="27.8"/>
</g>
<polyline class="st9" points="52.8,69.6 52.8,31.6 63.8,31.6 "/>
</svg>
