<svg id="Layer_1" data-name="Layer 1" xmlns="http://www.w3.org/2000/svg" viewBox="0 0 225.96852 87.4375">
  <defs>
    <style>
      .cls-1 {
        fill: gray;
      }

      .cls-1, .cls-2, .cls-3 {
        stroke: #000;
      }

      .cls-2, .cls-3 {
        fill: none;
        stroke-linejoin: round;
      }

      .cls-2 {
        stroke-width: 1.5px;
      }
    </style>
  </defs>
  <title>WindingDirection</title>
  <path class="cls-1" d="M105,67v66h40V67Zm32.4,57.75h-24V75.25h24Z" transform="translate(-74.51574 -56.49512)"/>
  <path class="cls-2" d="M113.40026,83.901C114.93858,83.41127,116,82.82069,116,82.00571c0-.48564-.37638-.89165-1.0057-1.24415" transform="translate(-74.51574 -56.49512)"/>
  <path class="cls-2" d="M113.40025,95.73336C114.93858,95.2441,116,94.65411,116,93.84c0-2.95728-14-2.95727-14-5.91455,0-.88387,1.24845-1.5038,2.99971-2.01743" transform="translate(-74.51574 -56.49512)"/>
  <path class="cls-2" d="M113.40026,107.563C114.93858,107.07363,116,106.48348,116,105.6691c0-2.95771-14-2.95771-14-5.91542,0-.883,1.24853-1.50233,2.99988-2.01545" transform="translate(-74.51574 -56.49512)"/>
  <path class="cls-2" d="M104.99971,109.56849C103.24845,110.08173,102,110.7012,102,111.58442c0,2.95767,14,2.95767,14,5.91533,0,.7391-.875,1.29342-2.18751,1.75536l-.41249.10444" transform="translate(-74.51574 -56.49512)"/>
  <line class="cls-2" x1="30.48426" y1="62.74688" x2="9.48426" y2="62.74688"/>
  <path class="cls-2" d="M145.00029,89.94107C146.75156,89.4279,148,88.8085,148,87.9254c0-2.95985-14-2.95985-14-5.91969,0-.48564.37638-.89165,1.0057-1.24415" transform="translate(-74.51574 -56.49512)"/>
  <path class="cls-2" d="M145.00031,101.76965c1.75125-.51326,2.99969-1.13274,2.99969-2.016,0-2.95686-14-2.95687-14-5.91373,0-.949,1.44169-1.59345,3.39978-2.12883" transform="translate(-74.51574 -56.49512)"/>
  <path class="cls-2" d="M145.00025,113.60038c1.75129-.51325,2.99975-1.13273,2.99975-2.016,0-2.95766-14-2.95766-14-5.91532,0-.94913,1.4417-1.59369,3.3998-2.12915" transform="translate(-74.51574 -56.49512)"/>
  <path class="cls-2" d="M137.3998,115.37064c-1.95811.53545-3.3998,1.18-3.3998,2.12911,0,.7391.875,1.29342,2.18751,1.75536h.1608" transform="translate(-74.51574 -56.49512)"/>
  <line class="cls-2" x1="70.48426" y1="24.24977" x2="90.48426" y2="24.24977"/>
  <line class="cls-2" x1="61.48426" y1="62.74688" x2="91.48426" y2="62.74688"/>
  <polyline class="cls-2" points="40.223 24.25 40.484 24.25 10.484 24.25"/>
  <polyline class="cls-2" points="60.176 24.462 60.484 24.25 62.884 24.25"/>
  <path class="cls-1" d="M230,67v66h40V67Zm32.4,57.75h-24V75.25h24Z" transform="translate(-74.51574 -56.49512)"/>
  <path class="cls-2" d="M238.40026,83.901C239.93858,83.41127,241,82.82069,241,82.00571c0-.48564-.37638-.89165-1.0057-1.24415" transform="translate(-74.51574 -56.49512)"/>
  <path class="cls-2" d="M262.3999,84.13642C260.44174,83.60057,259,82.95554,259,82.00571c0-.48564.37638-.89165,1.0057-1.24415L260,80.74489h30" transform="translate(-74.51574 -56.49512)"/>
  <path class="cls-2" d="M262.39993,95.96853C260.44176,95.43322,259,94.78884,259,93.84c0-2.95728,14-2.95727,14-5.91455,0-.88392-1.24857-1.50387-3-2.01751" transform="translate(-74.51574 -56.49512)"/>
  <path class="cls-2" d="M262.39976,107.7982c-1.95809-.53544-3.39976-1.18-3.39976-2.1291,0-2.95771,14-2.95771,14-5.91542,0-.88359-1.25018-1.50315-3.00335-2.01646" transform="translate(-74.51574 -56.49512)"/>
  <path class="cls-2" d="M261.18751,119.25511C259.875,118.79317,259,118.23885,259,117.49975c0-2.95766,14-2.95766,14-5.91533,0-.88326-1.24856-1.50274-3-2.016" transform="translate(-74.51574 -56.49512)"/>
  <line class="cls-2" x1="195.48426" y1="62.74688" x2="216.48426" y2="62.74688"/>
  <polyline class="cls-2" points="187.884 62.747 186.484 62.747 186.027 62.509"/>
  <path class="cls-2" d="M238.40025,95.73336C239.93858,95.2441,241,94.65411,241,93.84c0-2.95728-14-2.95727-14-5.91455,0-.88387,1.24845-1.5038,2.99971-2.01743" transform="translate(-74.51574 -56.49512)"/>
  <path class="cls-2" d="M238.40026,107.563C239.93858,107.07363,241,106.48348,241,105.6691c0-2.95771-14-2.95771-14-5.91542,0-.883,1.24853-1.50233,2.99988-2.01545" transform="translate(-74.51574 -56.49512)"/>
  <path class="cls-2" d="M229.99971,109.56849C228.24845,110.08173,227,110.7012,227,111.58442c0,2.95767,14,2.95767,14,5.91533,0,.7391-.875,1.29342-2.18751,1.75536l-.41249.10444" transform="translate(-74.51574 -56.49512)"/>
  <line class="cls-2" x1="155.48426" y1="62.74688" x2="134.48426" y2="62.74688"/>
  <polyline class="cls-2" points="165.223 24.25 165.484 24.25 135.484 24.25"/>
  <path class="cls-3" d="M75.00081,100c1.25-5,2.5-10,4.99993-10,4.99834,0,4.99834,20,9.99668,20,2.50088,0,3.75133-5,5.00177-10" transform="translate(-74.51574 -56.49512)"/>
  <path class="cls-3" d="M155.00081,100c1.25-5,2.5-10,4.99993-10,4.99834,0,4.99834,20,9.99668,20,2.50088,0,3.75133-5,5.00177-10" transform="translate(-74.51574 -56.49512)"/>
  <path class="cls-3" d="M200.00081,100c1.25-5,2.5-10,4.99993-10,4.99834,0,4.99834,20,9.99668,20,2.50088,0,3.75133-5,5.00177-10" transform="translate(-74.51574 -56.49512)"/>
  <path class="cls-3" d="M299.99919,100c-1.25-5-2.5-10-4.99993-10-4.99834,0-4.99834,20-9.99668,20-2.50088,0-3.75133-5-5.00177-10" transform="translate(-74.51574 -56.49512)"/>
  <g>
    <path d="M100.92676,62.43066a2.0453,2.0453,0,0,1-1.502-.57128c-.26953.43261-.29394.46484-.29394.46484-.05664.08984-.06543.10644-.12207.10644-.08984,0-.08984-.05761-.08984-.19628V60.60156c0-.14648,0-.2041.10644-.2041a.08518.08518,0,0,1,.09766.082,1.6482,1.6482,0,0,0,.50586,1.25684,1.96746,1.96746,0,0,0,1.29.4414,1.11946,1.11946,0,0,0,1.09375-1.168,1.19445,1.19445,0,0,0-.25293-.751,1.0827,1.0827,0,0,0-.69434-.416c-.57129-.13867-.9873-.2373-1.07715-.26953a1.58172,1.58172,0,0,1,.52246-3.07812,1.67554,1.67554,0,0,1,1.30567.57226l.28613-.46582c.05762-.09765.06543-.10644.12207-.10644.08984,0,.08984.05761.08984.19629V58.332c0,.15527,0,.19629-.10547.19629-.08984,0-.08984-.04883-.09863-.09766-.04883-.36816-.22851-1.707-1.5918-1.707a1.06727,1.06727,0,0,0-.25292,2.10645l1.04492.25293a1.6717,1.6717,0,0,1,1.22461,1.64941A1.63723,1.63723,0,0,1,100.92676,62.43066Z" transform="translate(-74.51574 -56.49512)"/>
    <path d="M106.27344,62.2998a.683.683,0,0,1-.63672-.66992,1.13042,1.13042,0,0,1-1.06934.71094c-.51465,0-1.30664-.2041-1.30664-.86523a1.18932,1.18932,0,0,1,.81641-1.06153,3.96927,3.96927,0,0,1,1.50195-.29394v-.30176a.9242.9242,0,0,0-.86523-1.04492,1.14941,1.14941,0,0,0-.88184.375c.376.00879.417.27734.417.376a.37553.37553,0,1,1-.751-.00878c0-.53809.5625-.92188,1.23242-.92188a1.559,1.559,0,0,1,1.11816.44922,1.20633,1.20633,0,0,1,.29395.96289v1.63281c0,.041.0332.40821.30176.40821.08984,0,.29394-.04883.29394-.52247v-.457h.2041v.457A.693.693,0,0,1,106.27344,62.2998ZM105.5791,60.292c-1.34668.04883-1.68945.72559-1.68945,1.17481a.70329.70329,0,0,0,.73437.69433.98068.98068,0,0,0,.95508-1.05371Z" transform="translate(-74.51574 -56.49512)"/>
    <path d="M112.80371,62.22656l-.92285.02442v-.25293c.54687,0,.63672,0,.63672-.36817V59.72852c0-.46582-.08985-.90625-.60449-.90625a1.19163,1.19163,0,0,0-1.10157,1.30566v1.502c0,.36817.08985.36817.63672.36817V62.251l-.91406-.02442-.92285.02442v-.25293c.54687,0,.63672,0,.63672-.36817V59.72852c0-.46582-.08985-.90625-.60352-.90625a1.1923,1.1923,0,0,0-1.10254,1.30566v1.502c0,.36817.08985.36817.63672.36817V62.251l-.91406-.02442-.92285.02442v-.25293c.54687,0,.63672,0,.63672-.36817v-2.1875c0-.39941-.06543-.457-.63672-.457v-.25293l1.15136-.08984V59.5a1.28615,1.28615,0,0,1,1.208-.85742.96666.96666,0,0,1,1.08594.7998,1.29106,1.29106,0,0,1,1.18359-.7998,1.08924,1.08924,0,0,1,.85743.30176c.25292.29394.25292.54687.25292,1.249v1.55957c.00782.24512.21192.24512.63672.24512V62.251Z" transform="translate(-74.51574 -56.49512)"/>
    <path d="M115.9043,62.34082a1.84333,1.84333,0,0,1-1.7959-1.88574,1.784,1.784,0,0,1,1.69824-1.86133,1.4482,1.4482,0,0,1,1.46094,1.59961c0,.17187-.02442.17187-.2041.17187h-2.27735a2.38508,2.38508,0,0,0,.24414,1.22461,1.10132,1.10132,0,0,0,.92286.54688,1.15088,1.15088,0,0,0,1.10253-.84082c.01563-.06543.03223-.11426.10547-.11426a.09455.09455,0,0,1,.10645.09766A1.39509,1.39509,0,0,1,115.9043,62.34082Zm-.09766-3.56738c-.27832,0-.96387.2041-1.01269,1.41992h1.93457C116.72852,59.875,116.64746,58.77344,115.80664,58.77344Z" transform="translate(-74.51574 -56.49512)"/>
    <path d="M123.32324,62.34082v-.53906a1.38022,1.38022,0,0,1-1.09375.53906,1.79587,1.79587,0,0,1-1.73047-1.8457,1.84485,1.84485,0,0,1,1.82032-1.85254,1.3007,1.3007,0,0,1,1.02832.50586v-1.7627c0-.40039-.06446-.458-.63672-.458V56.6748l1.17578-.08984V61.54c0,.40039.06543.458.63672.458V62.251Zm0-2.72656a.39112.39112,0,0,0-.08984-.30274,1.05737,1.05737,0,0,0-.88086-.48925,1.12135,1.12135,0,0,0-.92285.52246,2.81192,2.81192,0,0,0-.0166,2.29394,1.01733,1.01733,0,0,0,.85742.52246,1.1368,1.1368,0,0,0,.96289-.57129.39109.39109,0,0,0,.08984-.30273Z" transform="translate(-74.51574 -56.49512)"/>
    <path d="M125.92676,62.22656l-.89746.02442v-.25293c.54687,0,.63672,0,.63672-.36817V59.43457c0-.40039-.07422-.44922-.6045-.44922v-.25293l1.14258-.08984v2.99609c0,.31836.0332.35938.57227.35938V62.251C126.49805,62.24219,126.21289,62.22656,125.92676,62.22656Zm-.041-4.47363a.44177.44177,0,0,1-.43261-.43262.4365.4365,0,0,1,.4414-.43261.44111.44111,0,0,1,.43262.43261A.43652.43652,0,0,1,125.88574,57.75293Z" transform="translate(-74.51574 -56.49512)"/>
    <path d="M129.64941,59.5a.33906.33906,0,0,1-.35156-.35156.3552.3552,0,0,1,.1875-.31836.21228.21228,0,0,0-.08984-.00781c-.62012,0-.96289.72656-.96289,1.53418v1.25781c0,.29394.0166.38379.62011.38379h.17188V62.251c-.32617-.02442-.71-.02442-1.03711-.02442l-.93066.02442v-.25293c.54687,0,.63671,0,.63671-.36817v-2.1875c0-.39941-.06542-.457-.63671-.457v-.25293l1.13476-.08984V59.54a1.14317,1.14317,0,0,1,1.00391-.89746.55686.55686,0,0,1,.60449.498A.34343.34343,0,0,1,129.64941,59.5Z" transform="translate(-74.51574 -56.49512)"/>
    <path d="M132.252,62.34082a1.84334,1.84334,0,0,1-1.7959-1.88574,1.784,1.784,0,0,1,1.69825-1.86133,1.44765,1.44765,0,0,1,1.46093,1.59961c0,.17187-.02441.17187-.2041.17187h-2.27734a2.37687,2.37687,0,0,0,.24512,1.22461,1.1,1.1,0,0,0,.92285.54688,1.15067,1.15067,0,0,0,1.10156-.84082c.0166-.06543.03223-.11426.10645-.11426a.09381.09381,0,0,1,.10546.09766A1.39508,1.39508,0,0,1,132.252,62.34082Zm-.09765-3.56738c-.27735,0-.96289.2041-1.0127,1.41992h1.93555C133.07715,59.875,132.99512,58.77344,132.1543,58.77344Z" transform="translate(-74.51574 -56.49512)"/>
    <path d="M135.88477,62.34082a1.80767,1.80767,0,0,1-1.75586-1.85352,1.8301,1.8301,0,0,1,1.77148-1.89355c.62891,0,1.249.31836,1.249.873a.37553.37553,0,1,1-.751.00879.36921.36921,0,0,1,.38379-.376,1.32838,1.32838,0,0,0-.87305-.30176c-.43262,0-1.10254.34278-1.10254,1.67285,0,1.31446.71875,1.666,1.15137,1.666a1.0668,1.0668,0,0,0,1.06933-.85742c.01661-.04883.03223-.082.10645-.082.02441,0,.10547,0,.10547.082A1.3423,1.3423,0,0,1,135.88477,62.34082Z" transform="translate(-74.51574 -56.49512)"/>
    <path d="M139.377,62.34082a.98837.98837,0,0,1-1.05273-1.10254V58.98535h-.69336v-.17969c.7998-.03222,1.04492-.90625,1.05273-1.57519h.20411v1.502h1.167v.25293h-1.167v2.26953c0,.13867,0,.88184.54687.88184.30176,0,.54688-.31055.54688-.915v-.44824h.2041v.46484C140.18555,61.76074,139.957,62.34082,139.377,62.34082Z" transform="translate(-74.51574 -56.49512)"/>
    <path d="M141.81836,62.22656l-.89844.02442v-.25293c.54688,0,.63672,0,.63672-.36817V59.43457c0-.40039-.07324-.44922-.60351-.44922v-.25293l1.14257-.08984v2.99609c0,.31836.03223.35938.57129.35938V62.251C142.38965,62.24219,142.10352,62.22656,141.81836,62.22656Zm-.041-4.47363a.44109.44109,0,0,1-.43261-.43262.43654.43654,0,1,1,.43261.43262Z" transform="translate(-74.51574 -56.49512)"/>
    <path d="M144.95215,62.34082a1.82308,1.82308,0,0,1-1.80469-1.83691,1.8113,1.8113,0,1,1,3.61719,0A1.81979,1.81979,0,0,1,144.95215,62.34082Zm.92187-3.03711a1.06874,1.06874,0,0,0-.92187-.53027,1.09283,1.09283,0,0,0-.93067.54687,2.33637,2.33637,0,0,0-.19628,1.11817,2.43042,2.43042,0,0,0,.2041,1.15136,1.0686,1.0686,0,0,0,.93066.54688,1.05439,1.05439,0,0,0,.94727-.60449,2.47836,2.47836,0,0,0,.17968-1.09375A2.23358,2.23358,0,0,0,145.874,59.30371Z" transform="translate(-74.51574 -56.49512)"/>
    <path d="M150.45313,62.22656l-.92188.02442v-.25293c.54688,0,.63672,0,.63672-.36817V59.72852c0-.46582-.08984-.90625-.60449-.90625a1.19163,1.19163,0,0,0-1.10157,1.30566v1.502c0,.36817.08985.36817.63672.36817V62.251l-.915-.02442-.92187.02442v-.25293c.54687,0,.63672,0,.63672-.36817v-2.1875c0-.39941-.06543-.457-.63672-.457v-.25293l1.15039-.08984V59.5a1.28645,1.28645,0,0,1,1.209-.85742,1.08829,1.08829,0,0,1,.85645.30176c.25293.29394.25293.54687.25293,1.249v1.55957c.00879.24512.21289.24512.63769.24512V62.251Z" transform="translate(-74.51574 -56.49512)"/>
  </g>
  <g>
    <path d="M218.57715,56.6543a2.44923,2.44923,0,0,1,1.82324.79931,2.75609,2.75609,0,0,1,.77149,1.99463,2.83931,2.83931,0,0,1-.77735,2.04444,2.59757,2.59757,0,0,1-3.75586.02,2.84678,2.84678,0,0,1-.75879-2.05274,2.73541,2.73541,0,0,1,.876-2.1001A2.58861,2.58861,0,0,1,218.57715,56.6543Zm-.0752.291a1.42587,1.42587,0,0,0-1.16406.53809,3.0406,3.0406,0,0,0-.5459,1.96094,3.20411,3.20411,0,0,0,.56641,2.03613,1.39612,1.39612,0,0,0,1.14746.54248,1.56911,1.56911,0,0,0,1.25781-.59424,2.89881,2.89881,0,0,0,.4961-1.873,3.2769,3.2769,0,0,0-.5459-2.06836A1.474,1.474,0,0,0,218.502,56.94531Z" transform="translate(-74.51574 -56.49512)"/>
    <path d="M223.91992,62.272a1.108,1.108,0,0,1-1.0039-.57129v1.44483c0,.36719.08984.36719.63671.36719v.25293l-.92285-.02442-.91406.02442V63.5127c.54688,0,.63672,0,.63672-.36719v-3.8208c0-.35889-.05762-.40821-.63672-.40821v-.25293l1.17578-.08984v.53906a1.46991,1.46991,0,0,1,1.14258-.53906,1.7867,1.7867,0,0,1,1.70605,1.84522A1.83962,1.83962,0,0,1,223.91992,62.272Zm.04883-3.49414a1.223,1.223,0,0,0-1.05273.65332v1.82031a.42817.42817,0,0,0,.11425.34278,1.01525,1.01525,0,0,0,.85645.498c.60449,0,1.17578-.68555,1.17578-1.67334C225.0625,59.49658,224.56445,58.77783,223.96875,58.77783Z" transform="translate(-74.51574 -56.49512)"/>
    <path d="M228.458,62.272a1.10806,1.10806,0,0,1-1.00391-.57129v1.44483c0,.36719.08985.36719.63672.36719v.25293l-.92285-.02442-.91406.02442V63.5127c.54687,0,.63672,0,.63672-.36719v-3.8208c0-.35889-.05762-.40821-.63672-.40821v-.25293l1.17578-.08984v.53906a1.46989,1.46989,0,0,1,1.14258-.53906,1.7867,1.7867,0,0,1,1.70605,1.84522A1.83962,1.83962,0,0,1,228.458,62.272Zm.04883-3.49414a1.22305,1.22305,0,0,0-1.05274.65332v1.82031a.42815.42815,0,0,0,.11426.34278,1.01524,1.01524,0,0,0,.85644.498c.6045,0,1.17579-.68555,1.17579-1.67334C229.60059,59.49658,229.10254,58.77783,228.50684,58.77783Z" transform="translate(-74.51574 -56.49512)"/>
    <path d="M232.82422,62.272a1.822,1.822,0,0,1-1.80371-1.83691,1.81083,1.81083,0,1,1,3.61621,0A1.81886,1.81886,0,0,1,232.82422,62.272Zm.92285-3.03662a1.0709,1.0709,0,0,0-.92285-.53076,1.09627,1.09627,0,0,0-.93067.54687,2.34666,2.34666,0,0,0-.19531,1.11817,2.43048,2.43048,0,0,0,.2041,1.15137,1.06539,1.06539,0,0,0,.93067.54687,1.0525,1.0525,0,0,0,.94629-.604,2.4804,2.4804,0,0,0,.17968-1.09424A2.2417,2.2417,0,0,0,233.74707,59.23535Z" transform="translate(-74.51574 -56.49512)"/>
    <path d="M236.49707,62.272a1.22085,1.22085,0,0,1-.89844-.35107,1.92067,1.92067,0,0,0-.16308.188c-.15528.15478-.16309.16308-.2041.16308-.08985,0-.08985-.05713-.08985-.1958V60.99854c0-.147,0-.20411.10645-.20411.08105,0,.08984.03272.11425.13868.15528.69384.44922,1.15918,1.13477,1.15918.63672,0,.92188-.32666.92188-.74268,0-.58789-.66895-.71875-.84864-.751a2.14256,2.14256,0,0,1-1.07715-.37549.87.87,0,0,1-.35156-.69433c0-.457.31055-1.00391,1.30664-1.00391a1.25571,1.25571,0,0,1,.7666.22852,1.00353,1.00353,0,0,0,.13868-.13037c.10644-.09815.123-.09815.16406-.09815.08984,0,.08984.05713.08984.1958v.82471c0,.15527,0,.1958-.10644.1958,0,0-.08985,0-.09766-.07324a.901.901,0,0,0-.95508-.98779c-.70215,0-.915.33447-.915.62011,0,.47364.54688.57959,1.00489.66944a1.66665,1.66665,0,0,1,.93066.39209,1.05341,1.05341,0,0,1,.34277.77539C237.81152,61.7251,237.43555,62.272,236.49707,62.272Z" transform="translate(-74.51574 -56.49512)"/>
    <path d="M239.25586,62.15771l-.89844.02442V61.9292c.54688,0,.63672,0,.63672-.36768v-2.1958c0-.3999-.07324-.44922-.60351-.44922v-.25293l1.14257-.08984v2.99609c0,.31836.03223.35938.57129.35938v.25293C239.82715,62.17383,239.541,62.15771,239.25586,62.15771Zm-.041-4.47363a.44077.44077,0,0,1-.43261-.43262.43654.43654,0,1,1,.43261.43262Z" transform="translate(-74.51574 -56.49512)"/>
    <path d="M242.25879,62.272a.98793.98793,0,0,1-1.05274-1.10205V58.9165h-.69335v-.1792c.7998-.03271,1.04492-.90625,1.05273-1.57568h.2041v1.502h1.167v.25293h-1.167V61.186c0,.13916,0,.88183.54688.88183.30175,0,.54687-.31006.54687-.91455v-.44873h.2041v.46533C243.06738,61.69238,242.83887,62.272,242.25879,62.272Z" transform="translate(-74.51574 -56.49512)"/>
    <path d="M245.55664,62.272a1.84333,1.84333,0,0,1-1.7959-1.88574A1.784,1.784,0,0,1,245.459,58.5249a1.44781,1.44781,0,0,1,1.46094,1.6001c0,.17139-.02441.17139-.2041.17139h-2.27734a2.37611,2.37611,0,0,0,.24511,1.22461,1.1,1.1,0,0,0,.92286.54687,1.15067,1.15067,0,0,0,1.10156-.84082c.0166-.06543.03222-.11426.10644-.11426a.09409.09409,0,0,1,.10547.09766A1.39509,1.39509,0,0,1,245.55664,62.272Zm-.09766-3.56738c-.27734,0-.96289.2041-1.01269,1.42041h1.93555C246.38184,59.80664,246.2998,58.70459,245.459,58.70459Z" transform="translate(-74.51574 -56.49512)"/>
    <path d="M252.97559,62.272v-.53906a1.37882,1.37882,0,0,1-1.09375.53906,1.79542,1.79542,0,0,1-1.73047-1.84521,1.84528,1.84528,0,0,1,1.82031-1.853A1.30109,1.30109,0,0,1,253,59.08008V57.31689c0-.40039-.06445-.45751-.63672-.45751v-.25293l1.17578-.08985v4.95508c0,.40039.06543.45752.63672.45752v.25293Zm0-2.72656a.39053.39053,0,0,0-.08985-.30225,1.058,1.058,0,0,0-.88086-.48974,1.12136,1.12136,0,0,0-.92285.52246,2.81192,2.81192,0,0,0-.0166,2.29394,1.01629,1.01629,0,0,0,.85742.52247,1.13681,1.13681,0,0,0,.96289-.57129.39053.39053,0,0,0,.08985-.30225Z" transform="translate(-74.51574 -56.49512)"/>
    <path d="M255.5791,62.15771l-.89746.02442V61.9292c.54688,0,.63672,0,.63672-.36768v-2.1958c0-.3999-.07422-.44922-.60449-.44922v-.25293l1.14258-.08984v2.99609c0,.31836.0332.35938.57226.35938v.25293C256.15039,62.17383,255.86523,62.15771,255.5791,62.15771Zm-.041-4.47363a.44145.44145,0,0,1-.43262-.43262.4365.4365,0,0,1,.44141-.43261.44111.44111,0,0,1,.43261.43261A.4365.4365,0,0,1,255.53809,57.68408Z" transform="translate(-74.51574 -56.49512)"/>
    <path d="M259.30176,59.43115a.33865.33865,0,0,1-.35156-.35107.35365.35365,0,0,1,.1875-.31836c-.01563-.0083-.03223-.0083-.08985-.0083-.62012,0-.96289.72656-.96289,1.53467v1.25732c0,.294.0166.38379.62012.38379h.17187v.25293c-.32617-.02442-.71-.02442-1.03711-.02442l-.93066.02442V61.9292c.54687,0,.63672,0,.63672-.36768V59.374c0-.3999-.06543-.45752-.63672-.45752v-.25293l1.13477-.08984v.898a1.14307,1.14307,0,0,1,1.0039-.898.5572.5572,0,0,1,.60449.498A.34312.34312,0,0,1,259.30176,59.43115Z" transform="translate(-74.51574 -56.49512)"/>
    <path d="M261.90527,62.272a1.84333,1.84333,0,0,1-1.79589-1.88574,1.784,1.784,0,0,1,1.69824-1.86133,1.44835,1.44835,0,0,1,1.46093,1.6001c0,.17139-.02441.17139-.2041.17139h-2.27734a2.38423,2.38423,0,0,0,.24414,1.22461,1.10133,1.10133,0,0,0,.92285.54687,1.15088,1.15088,0,0,0,1.10254-.84082c.01563-.06543.03223-.11426.10547-.11426a.09481.09481,0,0,1,.10644.09766A1.39508,1.39508,0,0,1,261.90527,62.272Zm-.09765-3.56738c-.27832,0-.96387.2041-1.0127,1.42041h1.93457C262.72949,59.80664,262.64844,58.70459,261.80762,58.70459Z" transform="translate(-74.51574 -56.49512)"/>
    <path d="M265.53711,62.272a1.80723,1.80723,0,0,1-1.75586-1.853,1.83024,1.83024,0,0,1,1.77148-1.894c.62891,0,1.249.31836,1.249.87354a.37554.37554,0,1,1-.751.0083.36887.36887,0,0,1,.38379-.37549,1.32967,1.32967,0,0,0-.87305-.30225c-.43261,0-1.10254.34278-1.10254,1.67334,0,1.31446.71875,1.66553,1.15137,1.66553a1.06627,1.06627,0,0,0,1.06934-.85742c.0166-.04883.03222-.08154.10644-.08154.02442,0,.10547,0,.10547.08154A1.3423,1.3423,0,0,1,265.53711,62.272Z" transform="translate(-74.51574 -56.49512)"/>
    <path d="M269.03027,62.272a.98754.98754,0,0,1-1.05273-1.10205V58.9165h-.69434v-.1792c.79981-.03271,1.04493-.90625,1.05274-1.57568h.2041v1.502h1.168v.25293H268.54V61.186c0,.13916,0,.88183.54687.88183.30274,0,.54786-.31006.54786-.91455v-.44873h.2041v.46533C269.83887,61.69238,269.60938,62.272,269.03027,62.272Z" transform="translate(-74.51574 -56.49512)"/>
    <path d="M271.4707,62.15771l-.89843.02442V61.9292c.54687,0,.63671,0,.63671-.36768v-2.1958c0-.3999-.07324-.44922-.60351-.44922v-.25293l1.14258-.08984v2.99609c0,.31836.03222.35938.57129.35938v.25293C272.042,62.17383,271.75586,62.15771,271.4707,62.15771Zm-.041-4.47363a.44077.44077,0,0,1-.43262-.43262.43654.43654,0,1,1,.43262.43262Z" transform="translate(-74.51574 -56.49512)"/>
    <path d="M274.60449,62.272a1.822,1.822,0,0,1-1.80371-1.83691,1.81083,1.81083,0,1,1,3.61621,0A1.81886,1.81886,0,0,1,274.60449,62.272Zm.92285-3.03662a1.07089,1.07089,0,0,0-.92285-.53076,1.09625,1.09625,0,0,0-.93066.54687,2.34666,2.34666,0,0,0-.19531,1.11817,2.43048,2.43048,0,0,0,.2041,1.15137,1.06536,1.06536,0,0,0,.93066.54687,1.0525,1.0525,0,0,0,.94629-.604,2.48028,2.48028,0,0,0,.17969-1.09424A2.2416,2.2416,0,0,0,275.52734,59.23535Z" transform="translate(-74.51574 -56.49512)"/>
    <path d="M280.10645,62.15771l-.92286.02442V61.9292c.54688,0,.63672,0,.63672-.36768V59.65967c0-.46533-.08984-.90625-.60351-.90625a1.19248,1.19248,0,0,0-1.10254,1.30615v1.502c0,.36768.08984.36768.63672.36768v.25293l-.91407-.02442-.92285.02442V61.9292c.54688,0,.63672,0,.63672-.36768V59.374c0-.3999-.06543-.45752-.63672-.45752v-.25293l1.15137-.08984v.85742a1.28681,1.28681,0,0,1,1.208-.85742,1.08909,1.08909,0,0,1,.85742.30225c.25293.29394.25293.54687.25293,1.249v1.55908c.00781.24512.21191.24512.63672.24512v.25293Z" transform="translate(-74.51574 -56.49512)"/>
    <path d="M282.81543,62.272a1.22016,1.22016,0,0,1-.89746-.35107,1.5877,1.5877,0,0,0-.16309.188c-.15527.15478-.16406.16308-.2041.16308-.08984,0-.08984-.05713-.08984-.1958V60.99854c0-.147,0-.20411.10547-.20411.082,0,.08984.03272.11425.13868.15528.69384.44922,1.15918,1.13477,1.15918.63672,0,.92285-.32666.92285-.74268,0-.58789-.66992-.71875-.84961-.751a2.15015,2.15015,0,0,1-1.07715-.37549.86908.86908,0,0,1-.35058-.69433c0-.457.30957-1.00391,1.30566-1.00391a1.25966,1.25966,0,0,1,.76758.22852,1.06171,1.06171,0,0,0,.13867-.13037c.10645-.09815.12207-.09815.16309-.09815.08984,0,.08984.05713.08984.1958v.82471c0,.15527,0,.1958-.10644.1958,0,0-.08887,0-.09766-.07324a.90036.90036,0,0,0-.95508-.98779c-.70215,0-.91406.33447-.91406.62011,0,.47364.54687.57959,1.00391.66944a1.66665,1.66665,0,0,1,.93066.39209,1.05341,1.05341,0,0,1,.34277.77539C284.12988,61.7251,283.75488,62.272,282.81543,62.272Z" transform="translate(-74.51574 -56.49512)"/>
  </g>
  <g>
    <path d="M98.96436,137.47559l-1.82032,4.7998c-.041.11426-.05713.15527-.1958.15527-.10644,0-.147-.02441-.2041-.17968l-1.894-5.0127c-.11426-.31055-.26953-.31055-.79981-.31055v-.25293l1.03662.02442c.31006,0,.87354,0,1.16748-.02442v.25293c-.2041,0-.66943,0-.66943.23731a.50167.50167,0,0,0,.04883.14648l1.55908,4.12305L98.687,137.5a.49316.49316,0,0,0,.04053-.16406c0-.1875-.17139-.39942-.5957-.40821v-.25293l.93066.02442c.2124,0,.53857-.00781.792-.02442v.25293A.83172.83172,0,0,0,98.96436,137.47559Z" transform="translate(-74.51574 -56.49512)"/>
    <path d="M101.37207,142.34082a1.82267,1.82267,0,0,1-1.8042-1.83691,1.81106,1.81106,0,1,1,3.6167,0A1.81948,1.81948,0,0,1,101.37207,142.34082Zm.92236-3.03711a1.07008,1.07008,0,0,0-.92236-.53027,1.094,1.094,0,0,0-.93066.54687,2.34145,2.34145,0,0,0-.1958,1.11817,2.43042,2.43042,0,0,0,.2041,1.15136,1.06748,1.06748,0,0,0,.93066.54688,1.05367,1.05367,0,0,0,.94678-.60449,2.47823,2.47823,0,0,0,.17969-1.09375A2.238,2.238,0,0,0,102.29443,139.30371Z" transform="translate(-74.51574 -56.49512)"/>
    <path d="M104.5957,142.22656l-.90625.02442v-.25293c.54688,0,.63672,0,.63672-.36817v-4.24414c0-.40039-.06543-.458-.63672-.458v-.25293l1.1753-.08984v5.04492c0,.36817.08984.36817.63671.36817v.25293Z" transform="translate(-74.51574 -56.49512)"/>
    <path d="M107.59082,142.34082a.98817.98817,0,0,1-1.05273-1.10254v-2.25293h-.69385v-.17969c.7998-.03222,1.04492-.90625,1.05273-1.57519h.2041v1.50195h1.16748v.25293h-1.16748v2.26953c0,.13867,0,.88184.54737.88184.30176,0,.54687-.31055.54687-.915v-.44824h.2041v.46484C108.39941,141.76074,108.1709,142.34082,107.59082,142.34082Z" transform="translate(-74.51574 -56.49512)"/>
    <path d="M112.1377,142.2998a.68334.68334,0,0,1-.63672-.66992,1.12994,1.12994,0,0,1-1.06934.71094c-.51416,0-1.30615-.2041-1.30615-.86523a1.18932,1.18932,0,0,1,.8164-1.06153,3.96583,3.96583,0,0,1,1.502-.29394v-.30176a.92448.92448,0,0,0-.86524-1.04492,1.14871,1.14871,0,0,0-.88183.375c.37549.00879.4165.27734.4165.376a.37554.37554,0,1,1-.751-.00878c0-.53809.563-.92188,1.23243-.92188a1.5593,1.5593,0,0,1,1.11865.44922,1.20636,1.20636,0,0,1,.29394.96289v1.63281c0,.041.03272.40821.30176.40821.08985,0,.294-.04883.294-.52247v-.457h.2041v.457A.6931.6931,0,0,1,112.1377,142.2998Zm-.69385-2.00781c-1.34668.04883-1.68994.72559-1.68994,1.17481a.70342.70342,0,0,0,.73486.69433.98068.98068,0,0,0,.95508-1.05371Z" transform="translate(-74.51574 -56.49512)"/>
    <path d="M116.668,139.19727a.23148.23148,0,0,1-.23682-.23633.2194.2194,0,0,1,.13037-.22071.39015.39015,0,0,0-.08154-.00781,1.072,1.072,0,0,0-.73437.31836,1.10316,1.10316,0,0,1,.33447.792,1.26356,1.26356,0,0,1-1.32227,1.19141,1.39116,1.39116,0,0,1-.80859-.25293.60214.60214,0,0,0-.13867.38379.53241.53241,0,0,0,.43261.54687c.05713.00782.40821.00782.61231.00782a2.90218,2.90218,0,0,1,1.4043.22851,1.04632,1.04632,0,0,1,.53076.93067c0,.63672-.84912,1.05371-1.8125,1.05371-.9961,0-1.8042-.44922-1.8042-1.03711a.9214.9214,0,0,1,.751-.81641.87056.87056,0,0,1-.35888-.72656,1.13272,1.13272,0,0,1,.25293-.67774,1.12349,1.12349,0,0,1-.38379-.84082,1.2637,1.2637,0,0,1,1.32275-1.1914,1.361,1.361,0,0,1,.86524.29394,1.25634,1.25634,0,0,1,.86523-.38379.39937.39937,0,0,1,.41651.4004A.23522.23522,0,0,1,116.668,139.19727Zm-1.91846,2.99609h-.48193a.719.719,0,0,0-.66895.70215c0,.43262.563.84961,1.3877.84961.7998,0,1.37939-.40821,1.37939-.84961C116.36572,142.19336,115.45166,142.19336,114.74951,142.19336Zm.0083-3.36328a.70351.70351,0,0,0-.57959.32715,1.33778,1.33778,0,0,0-.13086.68554c0,.1875,0,1.00391.71045,1.00391a.7071.7071,0,0,0,.57959-.32617,1.34609,1.34609,0,0,0,.13037-.68653C115.46777,139.64648,115.46777,138.83008,114.75781,138.83008Z" transform="translate(-74.51574 -56.49512)"/>
    <path d="M119.05029,142.34082a1.84334,1.84334,0,0,1-1.7959-1.88574,1.784,1.784,0,0,1,1.69825-1.86133,1.44792,1.44792,0,0,1,1.46093,1.59961c0,.17187-.02441.17187-.2041.17187h-2.27734a2.381,2.381,0,0,0,.24463,1.22461,1.10066,1.10066,0,0,0,.92285.54688,1.15078,1.15078,0,0,0,1.10205-.84082c.01611-.06543.03223-.11426.106-.11426a.09418.09418,0,0,1,.106.09766A1.39508,1.39508,0,0,1,119.05029,142.34082Zm-.09765-3.56738c-.27784,0-.96338.2041-1.01221,1.41992H119.875C119.875,139.875,119.79346,138.77344,118.95264,138.77344Z" transform="translate(-74.51574 -56.49512)"/>
    <path d="M122.27441,142.34082a1.22156,1.22156,0,0,1-.898-.35156,1.69408,1.69408,0,0,0-.16308.18847c-.15527.1543-.16358.16309-.2041.16309-.08985,0-.08985-.05762-.08985-.19629v-1.07715c0-.14746,0-.2041.106-.2041.08154,0,.08984.03223.11426.13867.15527.69336.44922,1.15918,1.13476,1.15918.63672,0,.92237-.32715.92237-.74316,0-.58789-.66944-.71875-.84912-.751a2.14218,2.14218,0,0,1-1.07715-.375.86955.86955,0,0,1-.35108-.69433c0-.457.31006-1.00391,1.30616-1.00391a1.25768,1.25768,0,0,1,.76709.22852,1.03829,1.03829,0,0,0,.13916-.13086c.106-.09766.12207-.09766.16308-.09766.08985,0,.08985.05664.08985.19531v.8252c0,.15527,0,.19531-.10645.19531,0,0-.08936,0-.09766-.07324a.90051.90051,0,0,0-.95507-.98731c-.70215,0-.91455.334-.91455.62012,0,.47363.54687.5791,1.00439.669a1.66391,1.66391,0,0,1,.93066.39257,1.05346,1.05346,0,0,1,.34278.77539C123.58887,141.794,123.21338,142.34082,122.27441,142.34082Z" transform="translate(-74.51574 -56.49512)"/>
    <path d="M127.751,142.22656l-.89795.02442v-.25293c.54687,0,.63672,0,.63672-.36817v-2.19531c0-.40039-.07373-.44922-.604-.44922v-.25293l1.14258-.08984v2.99609c0,.31836.03272.35938.57178.35938v.25293C128.32227,142.24219,128.03662,142.22656,127.751,142.22656Zm-.041-4.47363a.44144.44144,0,0,1-.43262-.43262.43679.43679,0,1,1,.43262.43262Z" transform="translate(-74.51574 -56.49512)"/>
    <path d="M132.30566,142.22656l-.92236.02442v-.25293c.54688,0,.63672,0,.63672-.36817v-1.90136c0-.46582-.08984-.90625-.604-.90625a1.192,1.192,0,0,0-1.10206,1.30566v1.502c0,.36817.08985.36817.63672.36817v.25293l-.91455-.02442-.92236.02442v-.25293c.54687,0,.63672,0,.63672-.36817v-2.1875c0-.39941-.06543-.457-.63672-.457v-.25293l1.15088-.08984V139.5a1.28628,1.28628,0,0,1,1.20849-.85742,1.08876,1.08876,0,0,1,.85694.30176c.25293.29394.25293.54687.25293,1.249v1.55957c.0083.24512.2124.24512.6372.24512v.25293Z" transform="translate(-74.51574 -56.49512)"/>
    <path d="M138.541,142.34082a1.10969,1.10969,0,0,1-1.00391-.57129v1.44434c0,.36718.08984.36718.63672.36718v.25293l-.92237-.02441-.91455.02441v-.25293c.54688,0,.63672,0,.63672-.36718v-3.82032c0-.35937-.05713-.4082-.63672-.4082v-.25293l1.17579-.08984v.53906a1.46983,1.46983,0,0,1,1.14257-.53906,1.78593,1.78593,0,0,1,1.70606,1.84472A1.84005,1.84005,0,0,1,138.541,142.34082Zm.04882-3.49414a1.22264,1.22264,0,0,0-1.05273.65332v1.82031a.42865.42865,0,0,0,.11426.34278,1.01659,1.01659,0,0,0,.85693.498c.604,0,1.17578-.68554,1.17578-1.67383C139.68408,139.56543,139.186,138.84668,138.58984,138.84668Z" transform="translate(-74.51574 -56.49512)"/>
    <path d="M144.09961,142.22656l-.92236.02442v-.25293c.54687,0,.63671,0,.63671-.36817v-1.90136c0-.46582-.08984-.90625-.604-.90625a1.192,1.192,0,0,0-1.102,1.30566v1.502c0,.36817.08984.36817.63672.36817v.25293l-.91455-.02442-.92237.02442v-.25293c.54688,0,.63672,0,.63672-.36817v-4.24414c0-.40039-.06543-.458-.63672-.458v-.25293l1.1753-.08984v2.84082h.0083a1.28245,1.28245,0,0,1,1.17578-.7832,1.08874,1.08874,0,0,1,.85693.30176c.25293.29394.25293.54687.25293,1.249v1.55957c.0083.24512.21241.24512.63721.24512v.25293Z" transform="translate(-74.51574 -56.49512)"/>
    <path d="M148.458,142.2998a.68334.68334,0,0,1-.63672-.66992,1.12992,1.12992,0,0,1-1.06934.71094c-.51416,0-1.30615-.2041-1.30615-.86523a1.18932,1.18932,0,0,1,.81641-1.06153,3.96581,3.96581,0,0,1,1.50195-.29394v-.30176a.92448.92448,0,0,0-.86523-1.04492,1.14873,1.14873,0,0,0-.88184.375c.37549.00879.4165.27734.4165.376a.37553.37553,0,1,1-.751-.00878c0-.53809.563-.92188,1.23242-.92188a1.5593,1.5593,0,0,1,1.11865.44922,1.20633,1.20633,0,0,1,.29395.96289v1.63281c0,.041.03271.40821.30175.40821.08985,0,.29395-.04883.29395-.52247v-.457h.2041v.457A.6931.6931,0,0,1,148.458,142.2998Zm-.69385-2.00781c-1.34668.04883-1.68994.72559-1.68994,1.17481a.70342.70342,0,0,0,.73486.69433.98068.98068,0,0,0,.95508-1.05371Z" transform="translate(-74.51574 -56.49512)"/>
    <path d="M150.89014,142.34082a1.22153,1.22153,0,0,1-.898-.35156,1.69379,1.69379,0,0,0-.16309.18847c-.15527.1543-.16357.16309-.2041.16309-.08984,0-.08984-.05762-.08984-.19629v-1.07715c0-.14746,0-.2041.106-.2041.08155,0,.08985.03223.11426.13867.15527.69336.44922,1.15918,1.13477,1.15918.63672,0,.92236-.32715.92236-.74316,0-.58789-.66943-.71875-.84863-.751a2.14247,2.14247,0,0,1-1.07764-.375.86957.86957,0,0,1-.35107-.69433c0-.457.31005-1.00391,1.30615-1.00391a1.25692,1.25692,0,0,1,.76709.22852,1.00522,1.00522,0,0,0,.13867-.13086c.10645-.09766.12256-.09766.16357-.09766.08985,0,.08985.05664.08985.19531v.8252c0,.15527,0,.19531-.10645.19531,0,0-.08935,0-.09765-.07324a.90051.90051,0,0,0-.95508-.98731c-.70215,0-.91455.334-.91455.62012,0,.47363.54687.5791,1.00439.669a1.66391,1.66391,0,0,1,.93067.39257,1.05349,1.05349,0,0,1,.34277.77539C152.20459,141.794,151.8291,142.34082,150.89014,142.34082Z" transform="translate(-74.51574 -56.49512)"/>
    <path d="M154.50586,142.34082a1.84333,1.84333,0,0,1-1.7959-1.88574,1.784,1.784,0,0,1,1.69824-1.86133,1.44792,1.44792,0,0,1,1.46094,1.59961c0,.17187-.02441.17187-.2041.17187H153.3877a2.38105,2.38105,0,0,0,.24462,1.22461,1.10066,1.10066,0,0,0,.92286.54688,1.15079,1.15079,0,0,0,1.102-.84082c.01611-.06543.03222-.11426.106-.11426a.09418.09418,0,0,1,.106.09766A1.39509,1.39509,0,0,1,154.50586,142.34082Zm-.09766-3.56738c-.27783,0-.96338.2041-1.01269,1.41992h1.93506C155.33057,139.875,155.249,138.77344,154.4082,138.77344Z" transform="translate(-74.51574 -56.49512)"/>
  </g>
  <g>
    <path d="M207.81152,137.47559l-1.82031,4.7998c-.041.11426-.05664.15527-.19531.15527-.10645,0-.14746-.02441-.2041-.17968l-1.89453-5.0127c-.11426-.31055-.26954-.31055-.79981-.31055v-.25293l1.03711.02442c.30957,0,.873,0,1.167-.02442v.25293c-.2041,0-.66894,0-.66894.23731a.50167.50167,0,0,0,.04883.14648l1.55859,4.12305L207.53418,137.5a.48172.48172,0,0,0,.041-.16406c0-.1875-.17188-.39942-.59571-.40821v-.25293l.93067.02442c.21191,0,.53808-.00781.792-.02442v.25293A.832.832,0,0,0,207.81152,137.47559Z" transform="translate(-74.51574 -56.49512)"/>
    <path d="M210.21973,142.34082a1.82308,1.82308,0,0,1-1.80469-1.83691,1.8113,1.8113,0,1,1,3.61719,0A1.81979,1.81979,0,0,1,210.21973,142.34082Zm.92187-3.03711a1.06874,1.06874,0,0,0-.92187-.53027,1.09283,1.09283,0,0,0-.93067.54687,2.33627,2.33627,0,0,0-.19629,1.11817,2.43031,2.43031,0,0,0,.20411,1.15136,1.06859,1.06859,0,0,0,.93066.54688,1.05436,1.05436,0,0,0,.94726-.60449,2.47823,2.47823,0,0,0,.17969-1.09375A2.23358,2.23358,0,0,0,211.1416,139.30371Z" transform="translate(-74.51574 -56.49512)"/>
    <path d="M213.44336,142.22656l-.90625.02442v-.25293c.54687,0,.63672,0,.63672-.36817v-4.24414c0-.40039-.06543-.458-.63672-.458v-.25293l1.1748-.08984v5.04492c0,.36817.08985.36817.63672.36817v.25293Z" transform="translate(-74.51574 -56.49512)"/>
    <path d="M216.43848,142.34082a.988.988,0,0,1-1.05274-1.10254v-2.25293h-.69433v-.17969c.7998-.03222,1.04492-.90625,1.05273-1.57519h.2041v1.50195h1.168v.25293h-1.168v2.26953c0,.13867,0,.88184.54785.88184.30176,0,.54688-.31055.54688-.915v-.44824h.2041v.46484C217.24707,141.76074,217.01855,142.34082,216.43848,142.34082Z" transform="translate(-74.51574 -56.49512)"/>
    <path d="M220.98535,142.2998a.683.683,0,0,1-.63672-.66992,1.13042,1.13042,0,0,1-1.06933.71094c-.51465,0-1.30664-.2041-1.30664-.86523a1.18932,1.18932,0,0,1,.8164-1.06153,3.96928,3.96928,0,0,1,1.502-.29394v-.30176a.92421.92421,0,0,0-.86524-1.04492,1.14939,1.14939,0,0,0-.88183.375c.376.00879.417.27734.417.376a.37554.37554,0,1,1-.751-.00878c0-.53809.5625-.92188,1.23242-.92188a1.559,1.559,0,0,1,1.11817.44922,1.20636,1.20636,0,0,1,.29394.96289v1.63281c0,.041.03321.40821.30176.40821.08984,0,.29395-.04883.29395-.52247v-.457h.2041v.457A.693.693,0,0,1,220.98535,142.2998ZM220.291,140.292c-1.34668.04883-1.68946.72559-1.68946,1.17481a.70329.70329,0,0,0,.73438.69433.98068.98068,0,0,0,.95508-1.05371Z" transform="translate(-74.51574 -56.49512)"/>
    <path d="M225.51563,139.19727a.23189.23189,0,0,1-.23731-.23633.21976.21976,0,0,1,.13086-.22071.394.394,0,0,0-.082-.00781,1.07355,1.07355,0,0,0-.73438.31836,1.10158,1.10158,0,0,1,.335.792,1.26355,1.26355,0,0,1-1.32226,1.19141,1.39114,1.39114,0,0,1-.80859-.25293.60211.60211,0,0,0-.13868.38379.532.532,0,0,0,.43262.54687c.05664.00782.4082.00782.61231.00782a2.90215,2.90215,0,0,1,1.40429.22851,1.04574,1.04574,0,0,1,.53028.93067c0,.63672-.84864,1.05371-1.8125,1.05371-.9961,0-1.80372-.44922-1.80372-1.03711a.92083.92083,0,0,1,.751-.81641.871.871,0,0,1-.35937-.72656,1.13584,1.13584,0,0,1,.25293-.67774,1.12345,1.12345,0,0,1-.38379-.84082,1.26383,1.26383,0,0,1,1.32324-1.1914,1.36171,1.36171,0,0,1,.86523.29394,1.25636,1.25636,0,0,1,.86524-.38379.3989.3989,0,0,1,.416.4004A.23511.23511,0,0,1,225.51563,139.19727Zm-1.91895,2.99609h-.48145a.71859.71859,0,0,0-.66894.70215c0,.43262.5625.84961,1.38769.84961.79981,0,1.37891-.40821,1.37891-.84961C225.21289,142.19336,224.29883,142.19336,223.59668,142.19336Zm.00879-3.36328a.70455.70455,0,0,0-.58008.32715,1.34284,1.34284,0,0,0-.13086.68554c0,.1875,0,1.00391.71094,1.00391a.706.706,0,0,0,.5791-.32617,1.34648,1.34648,0,0,0,.13086-.68653C224.31543,139.64648,224.31543,138.83008,223.60547,138.83008Z" transform="translate(-74.51574 -56.49512)"/>
    <path d="M227.89746,142.34082a1.84333,1.84333,0,0,1-1.7959-1.88574,1.784,1.784,0,0,1,1.69824-1.86133,1.44765,1.44765,0,0,1,1.46094,1.59961c0,.17187-.02441.17187-.2041.17187H226.7793a2.377,2.377,0,0,0,.24511,1.22461,1.1,1.1,0,0,0,.92286.54688,1.15067,1.15067,0,0,0,1.10156-.84082c.0166-.06543.03222-.11426.10644-.11426a.09382.09382,0,0,1,.10547.09766A1.39509,1.39509,0,0,1,227.89746,142.34082Zm-.09766-3.56738c-.27734,0-.96289.2041-1.01171,1.41992h1.93457C228.72266,139.875,228.64063,138.77344,227.7998,138.77344Z" transform="translate(-74.51574 -56.49512)"/>
    <path d="M231.12207,142.34082a1.22189,1.22189,0,0,1-.89844-.35156,1.86746,1.86746,0,0,0-.16308.18847c-.15528.1543-.16309.16309-.2041.16309-.08985,0-.08985-.05762-.08985-.19629v-1.07715c0-.14746,0-.2041.10645-.2041.08105,0,.08984.03223.11425.13867.15528.69336.44922,1.15918,1.13477,1.15918.63672,0,.92188-.32715.92188-.74316,0-.58789-.66895-.71875-.84864-.751a2.13847,2.13847,0,0,1-1.07715-.375.87.87,0,0,1-.35156-.69433c0-.457.31055-1.00391,1.30664-1.00391a1.25571,1.25571,0,0,1,.7666.22852,1.04091,1.04091,0,0,0,.13965-.13086c.10547-.09766.12207-.09766.16309-.09766.08984,0,.08984.05664.08984.19531v.8252c0,.15527,0,.19531-.10644.19531,0,0-.08985,0-.09766-.07324a.90081.90081,0,0,0-.95508-.98731c-.70215,0-.915.334-.915.62012,0,.47363.54688.5791,1.00489.669a1.66391,1.66391,0,0,1,.93066.39257,1.05346,1.05346,0,0,1,.34277.77539C232.43652,141.794,232.06055,142.34082,231.12207,142.34082Z" transform="translate(-74.51574 -56.49512)"/>
    <path d="M237.5293,142.22656c-.32715,0-1.03711,0-1.32325.02442v-.25293h.26172c.73438,0,.75879-.09864.75879-.39258V137.377a2.43709,2.43709,0,0,1-1.06933.21289v-.2539a2.01843,2.01843,0,0,0,1.48632-.52246c.1875,0,.1875.0166.1875.21289v4.5791c0,.30273.02442.39258.75879.39258h.26172v.25293C238.56543,142.22656,237.85547,142.22656,237.5293,142.22656Z" transform="translate(-74.51574 -56.49512)"/>
    <path d="M241.54492,142.43066a1.5589,1.5589,0,0,1-1.69043-1.41308,1.80436,1.80436,0,0,1,1.17578-1.502,5.17075,5.17075,0,0,1-.5957-.44043,1.30606,1.30606,0,0,1-.35937-.89844,1.41979,1.41979,0,0,1,1.47753-1.36328,1.34938,1.34938,0,0,1,1.46973,1.21679,1.51787,1.51787,0,0,1-.98828,1.26563,3.46106,3.46106,0,0,1,.80859.5791,1.47268,1.47268,0,0,1,.39942,1.00391A1.628,1.628,0,0,1,241.54492,142.43066Zm.67774-2.15527-1.00489-.63672a1.60086,1.60086,0,0,0-.95507,1.37891,1.23183,1.23183,0,0,0,1.29,1.18457,1.17559,1.17559,0,0,0,1.28223-1.0293A1.09156,1.09156,0,0,0,242.22266,140.27539Zm-.67774-3.25781c-.58008,0-1.11035.34277-1.11035.84082a.76083.76083,0,0,0,.4082.66211l1.01172.65234a1.38442,1.38442,0,0,0,.8086-1.14258A1.06416,1.06416,0,0,0,241.54492,137.01758Z" transform="translate(-74.51574 -56.49512)"/>
    <path d="M247.0459,141.4834a1.526,1.526,0,0,1-2.76758.12207,4.14088,4.14088,0,0,1-.36719-1.9668,4.35981,4.35981,0,0,1,.30274-1.85351,1.49665,1.49665,0,0,1,1.41992-.97168,1.51332,1.51332,0,0,1,1.38769.915,5.75564,5.75564,0,0,1,.02442,3.75488Zm-.457-3.53516c-.15528-.80761-.69336-.95508-.96289-.95508-.2041,0-.81641.07422-.97168,1.04493a10.93137,10.93137,0,0,0-.06543,1.50195,11.116,11.116,0,0,0,.08984,1.72266c.14746.78418.62891.98828.94727.98828.36718,0,.832-.24512.95507-1.02051a10.11236,10.11236,0,0,0,.08985-1.69043A9.99207,9.99207,0,0,0,246.58887,137.94824Z" transform="translate(-74.51574 -56.49512)"/>
    <path d="M249.209,138.93652a1.13087,1.13087,0,1,1,1.126-1.12695A1.13031,1.13031,0,0,1,249.209,138.93652Zm0-1.93457a.80372.80372,0,1,0,.79981.80762A.80441.80441,0,0,0,249.209,137.002Z" transform="translate(-74.51574 -56.49512)"/>
    <path d="M255.48535,142.34082a1.82308,1.82308,0,0,1-1.80469-1.83691,1.8113,1.8113,0,1,1,3.61719,0A1.81978,1.81978,0,0,1,255.48535,142.34082Zm.92188-3.03711a1.06875,1.06875,0,0,0-.92188-.53027,1.0928,1.0928,0,0,0-.93066.54687,2.33627,2.33627,0,0,0-.19629,1.11817,2.43042,2.43042,0,0,0,.2041,1.15136,1.0686,1.0686,0,0,0,.93066.54688,1.05438,1.05438,0,0,0,.94727-.60449,2.47823,2.47823,0,0,0,.17969-1.09375A2.23358,2.23358,0,0,0,256.40723,139.30371Z" transform="translate(-74.51574 -56.49512)"/>
    <path d="M260.72559,142.34082v-.73535a1.11379,1.11379,0,0,1-1.05371.73535c-1.24024,0-1.24024-.74316-1.24024-1.37988v-1.22461c0-.72656,0-.751-.63672-.751v-.25293l1.2002-.08984v2.71c0,.4248.03222.80859.71777.80859.5957,0,.98828-.55566.98828-1.26562v-1.45313c0-.39941-.06543-.457-.63672-.457v-.25293l1.19922-.08984V141.54c0,.40039.06543.458.6377.458v.25293Z" transform="translate(-74.51574 -56.49512)"/>
    <path d="M263.97363,142.34082a.988.988,0,0,1-1.05273-1.10254v-2.25293h-.69434v-.17969c.79981-.03222,1.04492-.90625,1.05274-1.57519h.2041v1.50195h1.168v.25293h-1.168v2.26953c0,.13867,0,.88184.54785.88184.30176,0,.54688-.31055.54688-.915v-.44824h.2041v.46484C264.78223,141.76074,264.55371,142.34082,263.97363,142.34082Z" transform="translate(-74.51574 -56.49512)"/>
    <path d="M269.99707,142.34082a1.82226,1.82226,0,0,1-1.80371-1.83691,1.81083,1.81083,0,1,1,3.61621,0A1.81917,1.81917,0,0,1,269.99707,142.34082Zm.92285-3.03711a1.07027,1.07027,0,0,0-.92285-.53027,1.09516,1.09516,0,0,0-.93066.54687,2.34655,2.34655,0,0,0-.19532,1.11817,2.43031,2.43031,0,0,0,.20411,1.15136,1.06636,1.06636,0,0,0,.93066.54688,1.053,1.053,0,0,0,.94629-.60449,2.47823,2.47823,0,0,0,.17969-1.09375A2.24248,2.24248,0,0,0,270.91992,139.30371Z" transform="translate(-74.51574 -56.49512)"/>
    <path d="M274.60059,137.42578a.33832.33832,0,0,1-.35059-.35058.35653.35653,0,0,1,.24512-.34278.655.655,0,0,0-.26953-.05762c-.35938,0-.751.39258-.751,1.11036v.94726h.95508v.25293H273.499v2.62891c0,.29394.01563.38379.62012.38379h.17188v.25293c-.32715-.02442-.71094-.02442-1.03711-.02442l-.93067.02442v-.25293c.54688,0,.63672,0,.63672-.36817v-2.64453h-.64453v-.25293H272.96V137.794a1.26517,1.26517,0,0,1,1.26563-1.29883.66073.66073,0,0,1,.73437.57226A.33771.33771,0,0,1,274.60059,137.42578Z" transform="translate(-74.51574 -56.49512)"/>
    <path d="M279.69336,142.34082a1.11041,1.11041,0,0,1-1.00391-.57129v1.44434c0,.36718.08985.36718.63672.36718v.25293l-.92187-.02441-.915.02441v-.25293c.54687,0,.63672,0,.63672-.36718v-3.82032c0-.35937-.05664-.4082-.63672-.4082v-.25293l1.17578-.08984v.53906a1.46988,1.46988,0,0,1,1.14258-.53906,1.7856,1.7856,0,0,1,1.70605,1.84472A1.84005,1.84005,0,0,1,279.69336,142.34082Zm.0498-3.49414a1.22353,1.22353,0,0,0-1.05371.65332v1.82031a.42865.42865,0,0,0,.11426.34278,1.018,1.018,0,0,0,.85742.498c.6045,0,1.17578-.68554,1.17578-1.67383C280.83691,139.56543,280.33887,138.84668,279.74316,138.84668Z" transform="translate(-74.51574 -56.49512)"/>
    <path d="M285.252,142.22656l-.92187.02442v-.25293c.54687,0,.63672,0,.63672-.36817v-1.90136c0-.46582-.08985-.90625-.6045-.90625a1.19163,1.19163,0,0,0-1.10156,1.30566v1.502c0,.36817.08985.36817.63672.36817v.25293l-.915-.02442-.92187.02442v-.25293c.54687,0,.63672,0,.63672-.36817v-4.24414c0-.40039-.06543-.458-.63672-.458v-.25293l1.17578-.08984v2.84082h.00781a1.28187,1.28187,0,0,1,1.17578-.7832,1.08829,1.08829,0,0,1,.85645.30176c.25293.29394.25293.54687.25293,1.249v1.55957c.00879.24512.21289.24512.63769.24512v.25293Z" transform="translate(-74.51574 -56.49512)"/>
    <path d="M289.61035,142.2998a.68372.68372,0,0,1-.63672-.66992,1.12842,1.12842,0,0,1-1.06933.71094c-.51367,0-1.30567-.2041-1.30567-.86523a1.18932,1.18932,0,0,1,.81641-1.06153,3.96236,3.96236,0,0,1,1.502-.29394v-.30176a.92475.92475,0,0,0-.86523-1.04492,1.14807,1.14807,0,0,0-.88184.375c.375.00879.416.27734.416.376a.37554.37554,0,1,1-.751-.00878c0-.53809.56348-.92188,1.23242-.92188a1.55961,1.55961,0,0,1,1.11914.44922,1.20633,1.20633,0,0,1,.294.96289v1.63281c0,.041.03223.40821.30176.40821.08984,0,.29394-.04883.29394-.52247v-.457h.2041v.457A.69315.69315,0,0,1,289.61035,142.2998ZM288.917,140.292c-1.34668.04883-1.69043.72559-1.69043,1.17481a.70355.70355,0,0,0,.73535.69433.98068.98068,0,0,0,.95508-1.05371Z" transform="translate(-74.51574 -56.49512)"/>
    <path d="M292.043,142.34082a1.22188,1.22188,0,0,1-.89844-.35156,1.86746,1.86746,0,0,0-.16308.18847c-.15528.1543-.16309.16309-.20411.16309-.08984,0-.08984-.05762-.08984-.19629v-1.07715c0-.14746,0-.2041.10645-.2041.08105,0,.08984.03223.11425.13867.15528.69336.44922,1.15918,1.13477,1.15918.63672,0,.92187-.32715.92187-.74316,0-.58789-.66894-.71875-.84863-.751a2.13843,2.13843,0,0,1-1.07715-.375.87.87,0,0,1-.35156-.69433c0-.457.31055-1.00391,1.30664-1.00391a1.25571,1.25571,0,0,1,.7666.22852,1.04091,1.04091,0,0,0,.13965-.13086c.10547-.09766.12207-.09766.16309-.09766.08984,0,.08984.05664.08984.19531v.8252c0,.15527,0,.19531-.10644.19531,0,0-.08985,0-.09766-.07324a.90081.90081,0,0,0-.95508-.98731c-.70215,0-.915.334-.915.62012,0,.47363.54688.5791,1.00488.669a1.66391,1.66391,0,0,1,.93067.39257,1.05349,1.05349,0,0,1,.34277.77539C293.35742,141.794,292.98145,142.34082,292.043,142.34082Z" transform="translate(-74.51574 -56.49512)"/>
    <path d="M295.6582,142.34082a1.84334,1.84334,0,0,1-1.7959-1.88574,1.784,1.784,0,0,1,1.69825-1.86133,1.44765,1.44765,0,0,1,1.46093,1.59961c0,.17187-.02441.17187-.2041.17187H294.54a2.37687,2.37687,0,0,0,.24512,1.22461,1.1,1.1,0,0,0,.92285.54688,1.15067,1.15067,0,0,0,1.10156-.84082c.0166-.06543.03223-.11426.10645-.11426a.09381.09381,0,0,1,.10546.09766A1.39508,1.39508,0,0,1,295.6582,142.34082Zm-.09765-3.56738c-.27735,0-.96289.2041-1.01172,1.41992h1.93457C296.4834,139.875,296.40137,138.77344,295.56055,138.77344Z" transform="translate(-74.51574 -56.49512)"/>
  </g>
</svg>
