<?xml version="1.0" encoding="utf-8"?>
<!-- Generator: Adobe Illustrator 23.0.3, SVG Export Plug-In . SVG Version: 6.00 Build 0)  -->
<svg version="1.1" id="Layer_1" xmlns="http://www.w3.org/2000/svg" xmlns:xlink="http://www.w3.org/1999/xlink" x="0px" y="0px"
	 viewBox="0 0 225.96852 87.4375" style="enable-background:new 0 0 225.96852 87.4375;" xml:space="preserve">
<style type="text/css">
	.st0{fill:#2D00E6;stroke:#8FF4DD;}
	.st1{fill:none;stroke:#8FF4DD;stroke-width:1.5;stroke-linejoin:round;}
	.st2{fill:none;stroke:#8FF4DD;stroke-linejoin:round;}
	.st3{fill:#8FF4DD;}
</style>
<title>WindingDirection</title>
<path class="st0" d="M30.48426,10.50488v66h40v-66C70.48426,10.50488,30.48426,10.50488,30.48426,10.50488z M62.88425,68.25488h-24
	v-49.5h24V68.25488z"/>
<path class="st1" d="M38.88452,27.40588c1.53832-0.48973,2.59974-1.08031,2.59974-1.89529c0-0.48564-0.37638-0.89165-1.0057-1.24415
	"/>
<path class="st1" d="M38.88451,39.23824c1.53833-0.48926,2.59975-1.07925,2.59975-1.89336c0-2.95728-14-2.95727-14-5.91455
	c0-0.88387,1.24845-1.5038,2.99971-2.01743"/>
<path class="st1" d="M38.88452,51.06788c1.53832-0.48937,2.59974-1.07952,2.59974-1.89391c0-2.95771-14-2.95771-14-5.91542
	c0-0.883,1.24853-1.50233,2.99988-2.01545"/>
<path class="st1" d="M30.48397,53.07337c-1.75126,0.51324-2.99971,1.13271-2.99971,2.01593c0,2.95767,14,2.95767,14,5.91533
	c0,0.7391-0.875,1.29342-2.18751,1.75536l-0.41249,0.10444"/>
<line class="st1" x1="30.48426" y1="62.74688" x2="9.48426" y2="62.74688"/>
<path class="st1" d="M70.48455,33.44595c1.75127-0.51317,2.99971-1.13257,2.99971-2.01567c0-2.95985-14-2.95985-14-5.91969
	c0-0.48564,0.37637-0.89165,1.00571-1.24415"/>
<path class="st1" d="M70.48457,45.27453c1.75125-0.51326,2.99969-1.13274,2.99969-2.016c0-2.95686-14-2.95687-14-5.91373
	c0-0.949,1.4417-1.59345,3.39978-2.12883"/>
<path class="st1" d="M70.4845,57.10526c1.7513-0.51325,2.99976-1.13273,2.99976-2.016c0-2.95766-14-2.95766-14-5.91532
	c0-0.94913,1.4417-1.59369,3.3998-2.12915"/>
<path class="st1" d="M62.88406,58.87552c-1.95811,0.53545-3.3998,1.18-3.3998,2.12911c0,0.7391,0.875,1.29342,2.18752,1.75536
	h0.1608"/>
<line class="st1" x1="70.48426" y1="24.24977" x2="90.48426" y2="24.24977"/>
<line class="st1" x1="61.48426" y1="62.74688" x2="91.48426" y2="62.74688"/>
<polyline class="st1" points="40.223,24.25 40.484,24.25 10.484,24.25 "/>
<polyline class="st1" points="60.176,24.462 60.484,24.25 62.884,24.25 "/>
<path class="st0" d="M155.48425,10.50488v66h40v-66C195.48425,10.50488,155.48425,10.50488,155.48425,10.50488z M187.88425,68.25488
	h-24v-49.5h24V68.25488z"/>
<path class="st1" d="M163.88452,27.40588c1.53833-0.48973,2.59973-1.08031,2.59973-1.89529
	c0-0.48564-0.37637-0.89165-1.00571-1.24415"/>
<path class="st1" d="M187.88416,27.6413c-1.95816-0.53585-3.3999-1.18088-3.3999-2.13071c0-0.48564,0.37637-0.89165,1.00571-1.24415
	l-0.00571-0.01667h30"/>
<path class="st1" d="M187.88419,39.47341c-1.95816-0.53531-3.39993-1.17969-3.39993-2.12853c0-2.95728,14-2.95727,14-5.91455
	c0-0.88392-1.24857-1.50387-3-2.01751"/>
<path class="st1" d="M187.884,51.30308c-1.9581-0.53544-3.39975-1.18-3.39975-2.1291c0-2.95771,14-2.95771,14-5.91542
	c0-0.88359-1.25018-1.50315-3.00336-2.01646"/>
<path class="st1" d="M186.67175,62.75999c-1.3125-0.46194-2.1875-1.01626-2.1875-1.75536c0-2.95766,14-2.95766,14-5.91533
	c0-0.88326-1.24857-1.50274-3-2.016"/>
<line class="st1" x1="195.48425" y1="62.74688" x2="216.48425" y2="62.74688"/>
<polyline class="st1" points="187.884,62.747 186.48399,62.747 186.02699,62.509 "/>
<path class="st1" d="M163.88452,39.23824c1.53833-0.48926,2.59973-1.07925,2.59973-1.89336c0-2.95728-14-2.95727-14-5.91455
	c0-0.88387,1.24844-1.5038,2.99973-2.01743"/>
<path class="st1" d="M163.88452,51.06788c1.53833-0.48937,2.59973-1.07952,2.59973-1.89391c0-2.95771-14-2.95771-14-5.91542
	c0-0.883,1.24854-1.50233,2.99988-2.01545"/>
<path class="st1" d="M155.48398,53.07337c-1.75128,0.51324-2.99973,1.13271-2.99973,2.01593c0,2.95767,14,2.95767,14,5.91533
	c0,0.7391-0.875,1.29342-2.1875,1.75536l-0.41251,0.10444"/>
<line class="st1" x1="155.48425" y1="62.74688" x2="134.48425" y2="62.74688"/>
<polyline class="st1" points="165.22301,24.25 165.48399,24.25 135.48399,24.25 "/>
<path class="st2" d="M0.48507,43.50488c1.25-5,2.5-10,4.99993-10c4.99834,0,4.99834,20,9.99668,20c2.50088,0,3.75133-5,5.00177-10"
	/>
<path class="st2" d="M80.48507,43.50488c1.25-5,2.5-10,4.99992-10c4.99834,0,4.99834,20,9.99667,20c2.50089,0,3.75133-5,5.00177-10"
	/>
<path class="st2" d="M125.48507,43.50488c1.25-5,2.5-10,4.99992-10c4.99835,0,4.99835,20,9.99667,20c2.50089,0,3.75134-5,5.00177-10
	"/>
<path class="st2" d="M225.48343,43.50488c-1.25-5-2.5-10-4.99994-10c-4.99835,0-4.99835,20-9.99667,20
	c-2.50089,0-3.75134-5-5.00177-10"/>
<g>
	<path class="st3" d="M26.41102,5.93554c-0.55764,0.02247-1.10024-0.18391-1.502-0.57128
		c-0.26953,0.43261-0.29394,0.46484-0.29394,0.46484c-0.05664,0.08984-0.06543,0.10644-0.12207,0.10644
		c-0.08984,0-0.08984-0.05761-0.08984-0.19628V4.10644c0-0.14648,0-0.2041,0.10644-0.2041
		c0.04653-0.00691,0.08986,0.02522,0.09676,0.07175c0.0005,0.0034,0.0008,0.00682,0.00089,0.01025
		c-0.01932,0.47209,0.16489,0.92976,0.50586,1.25684c0.36365,0.29618,0.82114,0.45272,1.29,0.4414
		c0.61811-0.01361,1.10815-0.52572,1.09454-1.14383c-0.00018-0.00806-0.00044-0.01611-0.00079-0.02417
		c0.00361-0.27182-0.08562-0.53674-0.25293-0.751c-0.16896-0.22322-0.41782-0.37232-0.69434-0.416
		c-0.57129-0.13867-0.9873-0.2373-1.07715-0.26953c-0.82645-0.28297-1.26704-1.18235-0.98406-2.0088
		c0.22021-0.64315,0.82674-1.07365,1.50652-1.06932c0.49872-0.01314,0.97735,0.19664,1.30567,0.57226l0.28613-0.46582
		c0.05762-0.09765,0.06543-0.10644,0.12207-0.10644c0.08984,0,0.08984,0.05761,0.08984,0.19629v1.64067
		c0,0.15527,0,0.19629-0.10547,0.19629c-0.08984,0-0.08984-0.04883-0.09863-0.09766c-0.04883-0.36816-0.22851-1.707-1.5918-1.707
		c-0.58941-0.00545-1.07164,0.46795-1.07709,1.05736c-0.00462,0.49947,0.3378,0.93533,0.82417,1.04909l1.04492,0.25293
		c0.73772,0.20454,1.24223,0.88406,1.22461,1.64941c0.03383,0.90358-0.67125,1.66351-1.57484,1.69733
		C26.43334,5.93505,26.42218,5.93535,26.41102,5.93554z"/>
	<path class="st3" d="M31.7577,5.80468c-0.35404-0.02399-0.63074-0.31512-0.63672-0.66992
		c-0.17419,0.43608-0.59983,0.71907-1.06934,0.71094c-0.51465,0-1.30664-0.2041-1.30664-0.86523
		c0.02814-0.48799,0.35199-0.90908,0.81641-1.06153c0.47684-0.19448,0.98698-0.29432,1.50195-0.29394V3.32323
		c0.06744-0.50595-0.28803-0.97077-0.79398-1.03822c-0.02366-0.00315-0.04742-0.00539-0.07125-0.0067
		c-0.33453-0.00933-0.6565,0.12759-0.88184,0.375c0.376,0.00879,0.417,0.27734,0.417,0.376
		c-0.0014,0.20739-0.17065,0.37439-0.37805,0.37299s-0.37439-0.17066-0.37299-0.37805
		c0.00001-0.00124,0.00002-0.00248,0.00005-0.00372c0-0.53809,0.5625-0.92188,1.23242-0.92188
		c0.41786-0.00618,0.82071,0.15566,1.11816,0.44922c0.23363,0.26278,0.34099,0.61443,0.29395,0.96289v1.63281
		c0,0.041,0.0332,0.40821,0.30176,0.40821c0.08984,0,0.29394-0.04883,0.29394-0.52247v-0.457h0.2041v0.457
		c0.04563,0.38-0.22543,0.72505-0.60543,0.77068C31.8001,5.80253,31.77892,5.80409,31.7577,5.80468z M31.06336,3.79688
		c-1.34668,0.04883-1.68945,0.72559-1.68945,1.17481c0.00457,0.38839,0.32313,0.69954,0.71152,0.69497
		c0.00761-0.00009,0.01524-0.00031,0.02285-0.00064c0.54147-0.01262,0.97018-0.4618,0.95756-1.00327
		c-0.0004-0.01683-0.00122-0.03365-0.00248-0.05044V3.79688z"/>
	<path class="st3" d="M38.28797,5.73144l-0.92285,0.02442V5.50293c0.54687,0,0.63672,0,0.63672-0.36817V3.2334
		c0-0.46582-0.08985-0.90625-0.60449-0.90625c-0.65647,0.04656-1.1509,0.61647-1.10435,1.27295
		c0.00078,0.01092,0.0017,0.02182,0.00278,0.03271v1.502c0,0.36817,0.08985,0.36817,0.63672,0.36817v0.2529l-0.91406-0.02442
		l-0.92285,0.02442V5.50295c0.54687,0,0.63672,0,0.63672-0.36817V3.2334c0-0.46582-0.08985-0.90625-0.60352-0.90625
		c-0.65685,0.04643-1.1517,0.61655-1.10526,1.2734c0.00076,0.01077,0.00167,0.02152,0.00272,0.03226v1.502
		c0,0.36817,0.08985,0.36817,0.63672,0.36817v0.2529l-0.91406-0.02442l-0.92285,0.02442V5.50295
		c0.54687,0,0.63672,0,0.63672-0.36817v-2.1875c0-0.39941-0.06543-0.457-0.63672-0.457V2.23735l1.15136-0.08984v0.85737
		c0.18112-0.51229,0.66464-0.85548,1.208-0.85742c0.51889-0.07166,1.00044,0.28301,1.08594,0.7998
		c0.19767-0.48046,0.66408-0.79563,1.18359-0.7998c0.31613-0.02917,0.62925,0.08103,0.85743,0.30176
		c0.25292,0.29394,0.25292,0.54687,0.25292,1.249v1.55957c0.00782,0.24512,0.21192,0.24512,0.63672,0.24512v0.25297
		L38.28797,5.73144z"/>
	<path class="st3" d="M41.38856,5.8457c-1.01618-0.02588-1.81961-0.8695-1.7959-1.88574
		c-0.04372-0.98247,0.71589-1.81503,1.69824-1.86133c0.79974-0.01143,1.45731,0.62762,1.46874,1.42736
		c0.00082,0.05752-0.00179,0.11504-0.0078,0.17225c0,0.17187-0.02442,0.17187-0.2041,0.17187h-2.27735
		c-0.02882,0.42264,0.05545,0.84533,0.24414,1.22461c0.19205,0.32991,0.54125,0.53685,0.92286,0.54688
		c0.51405-0.00259,0.96404-0.34577,1.10253-0.84082c0.01563-0.06543,0.03223-0.11426,0.10547-0.11426
		c0.0518-0.00662,0.09915,0.03001,0.10577,0.08181c0.00068,0.00526,0.0009,0.01056,0.00069,0.01585
		C42.59757,5.41071,42.03379,5.8497,41.38856,5.8457z M41.2909,2.27832c-0.27832,0-0.96387,0.2041-1.01269,1.41992h1.93457
		C42.21278,3.37988,42.13172,2.27832,41.2909,2.27832z"/>
	<path class="st3" d="M48.8075,5.8457V5.30664c-0.26114,0.33973-0.66525,0.53889-1.09375,0.53906
		C46.72791,5.81017,45.95527,4.98609,45.98328,4c-0.00431-1.01237,0.80803-1.83909,1.82032-1.85254
		c0.40259,0.00039,0.7823,0.18718,1.02832,0.50586v-1.7627c0-0.40039-0.06446-0.458-0.63672-0.458V0.17968l1.17578-0.08984v4.95504
		c0,0.40039,0.06543,0.458,0.63672,0.458v0.253L48.8075,5.8457z M48.8075,3.11914c0.01393-0.10905-0.01868-0.21894-0.08984-0.30274
		c-0.19205-0.30149-0.52341-0.48555-0.88086-0.48925c-0.37573,0.0085-0.72222,0.20466-0.92285,0.52246
		c-0.33137,0.72752-0.3374,1.5617-0.0166,2.29394c0.17397,0.31289,0.4996,0.5113,0.85742,0.52246
		c0.39899-0.00822,0.76445-0.22505,0.96289-0.57129c0.07117-0.0838,0.10378-0.19368,0.08984-0.30273V3.11914z"/>
	<path class="st3" d="M51.41102,5.73144l-0.89746,0.02442V5.50293c0.54687,0,0.63672,0,0.63672-0.36817V2.93945
		c0-0.40039-0.07422-0.44922-0.6045-0.44922V2.2373l1.14258-0.08984v2.99609c0,0.31836,0.0332,0.35938,0.57227,0.35938v0.25295
		C51.98231,5.74707,51.69715,5.73144,51.41102,5.73144z M51.37002,1.25781c-0.23689-0.00486-0.42775-0.19574-0.43261-0.43262
		c0.00214-0.24106,0.19928-0.43475,0.44035-0.43262c0.00035,0,0.0007,0.00001,0.00105,0.00001
		c0.23703,0.00452,0.42809,0.19558,0.43262,0.43261c-0.00214,0.24107-0.1993,0.43477-0.44038,0.43263
		c-0.00034,0-0.00069-0.00001-0.00105-0.00001C51.37,1.25781,51.37002,1.25781,51.37002,1.25781z"/>
	<path class="st3" d="M55.13367,3.00488c-0.18712,0.00704-0.34453-0.13895-0.35156-0.32608
		c-0.00032-0.00849-0.00032-0.01699,0-0.02548c-0.00195-0.13283,0.07039-0.25565,0.1875-0.31836
		c-0.02904-0.00901-0.05968-0.01167-0.08984-0.00781c-0.62012,0-0.96289,0.72656-0.96289,1.53418v1.25781
		c0,0.29394,0.0166,0.38379,0.62012,0.38379h0.17188v0.25295c-0.32617-0.02442-0.71001-0.02442-1.03711-0.02442L52.7411,5.75588
		V5.50295c0.54687,0,0.63671,0,0.63671-0.36817v-2.1875c0-0.39941-0.06542-0.457-0.63671-0.457V2.23735l1.13476-0.08984v0.89737
		c0.10425-0.48541,0.50989-0.84805,1.00391-0.89746c0.30391-0.02768,0.5735,0.1944,0.60449,0.498
		c0.0089,0.18946-0.13748,0.35027-0.32693,0.35917C55.14944,3.00496,55.14156,3.00505,55.13367,3.00488z"/>
	<path class="st3" d="M57.73626,5.8457c-1.01617-0.02589-1.81961-0.86951-1.7959-1.88574
		c-0.04372-0.98248,0.7159-1.81504,1.69826-1.86133c0.79942-0.01176,1.45703,0.62676,1.4688,1.42619
		c0.00085,0.05791-0.00177,0.11582-0.00786,0.17342c0,0.17187-0.02441,0.17187-0.2041,0.17187h-2.27734
		c-0.02892,0.42276,0.05571,0.84555,0.24512,1.22461c0.19186,0.3301,0.54117,0.5371,0.92285,0.54688
		c0.51372-0.00295,0.96324-0.34607,1.10156-0.84082c0.0166-0.06543,0.03223-0.11426,0.10645-0.11426
		c0.05141-0.00649,0.09833,0.02991,0.10483,0.08131c0.00069,0.00542,0.0009,0.01089,0.00063,0.01635
		C58.94527,5.41071,58.38149,5.8497,57.73626,5.8457z M57.6386,2.27832c-0.27734,0-0.96289,0.2041-1.0127,1.41992h1.93555
		c-0.00005-0.31836-0.08208-1.41992-0.9229-1.41992H57.6386z"/>
	<path class="st3" d="M61.36903,5.8457c-0.99614-0.02823-1.78154-0.85731-1.75586-1.85352
		c-0.03554-1.01011,0.7545-1.85778,1.76462-1.89332c0.00229-0.00008,0.00458-0.00016,0.00687-0.00023
		c0.62891,0,1.24899,0.31836,1.24899,0.873c0.00284,0.20738-0.16296,0.3778-0.37035,0.38064s-0.37781-0.16297-0.38065-0.37035
		c0-0.0005-0.00002-0.001-0.00002-0.0015c-0.00391-0.20387,0.15819-0.37231,0.36206-0.37622
		c0.00725-0.00014,0.0145-0.00006,0.02173,0.00022c-0.24554-0.20179-0.5553-0.30885-0.87305-0.30176
		c-0.43262,0-1.10254,0.34278-1.10254,1.67285c0,1.31446,0.71875,1.666,1.15137,1.666
		c0.51718,0.01126,0.96793-0.35015,1.06934-0.85742c0.01662-0.04883,0.03223-0.082,0.10645-0.082c0.02441,0,0.10547,0,0.10547,0.082
		C62.58804,5.41889,62.0178,5.86585,61.36903,5.8457z"/>
	<path class="st3" d="M64.86126,5.8457c-0.54443,0.03937-1.01772-0.37007-1.05708-0.91451
		c-0.00453-0.06267-0.00307-0.12563,0.00435-0.18803V2.49023h-0.69336V2.31054c0.7998-0.03222,1.04492-0.90625,1.05273-1.57519
		h0.20412v1.502h1.16701v0.25293h-1.16701v2.26953c0,0.13867,0,0.88184,0.54688,0.88184c0.30176,0,0.54688-0.31055,0.54688-0.915
		V4.27841h0.2041v0.46484C65.66981,5.26562,65.44126,5.8457,64.86126,5.8457z"/>
	<path class="st3" d="M67.30262,5.73144l-0.89844,0.02442V5.50293c0.54688,0,0.63672,0,0.63672-0.36817V2.93945
		c0-0.40039-0.07324-0.44922-0.60352-0.44922V2.2373l1.14256-0.08984v2.99609c0,0.31836,0.03223,0.35938,0.57129,0.35938v0.25295
		C67.87391,5.74707,67.58778,5.73144,67.30262,5.73144z M67.26162,1.25781c-0.23703-0.00451-0.4281-0.19559-0.43262-0.43262
		c-0.00215-0.24109,0.19154-0.43827,0.43262-0.44043c0.24109-0.00215,0.43828,0.19154,0.44043,0.43262
		c0.00215,0.24109-0.19154,0.43827-0.43262,0.44043C67.26682,1.25783,67.26423,1.25783,67.26162,1.25781z"/>
	<path class="st3" d="M70.43641,5.8457c-1.00508-0.01011-1.81236-0.83181-1.80469-1.83691
		c-0.05466-0.99886,0.71075-1.85291,1.70961-1.90757c0.99887-0.05466,1.85292,0.71076,1.90758,1.70962
		c0.0036,0.06593,0.0036,0.13202,0,0.19795c0.00946,1.005-0.79758,1.82738-1.80258,1.83685
		C70.44303,5.84566,70.43972,5.84569,70.43641,5.8457z M71.35828,2.80859c-0.19128-0.32796-0.54221-0.52981-0.92188-0.53027
		c-0.38489,0.00566-0.7384,0.2134-0.93066,0.54687c-0.15636,0.35092-0.22377,0.73498-0.19627,1.11817
		c-0.02667,0.39468,0.04338,0.7899,0.2041,1.15136c0.18858,0.3371,0.5444,0.54618,0.93066,0.54688
		C70.85,5.63916,71.21836,5.4041,71.3915,5.03711c0.14169-0.34634,0.20313-0.72028,0.17969-1.09375
		c0.02971-0.39038-0.04373-0.78172-0.21294-1.13477H71.35828z"/>
	<path class="st3" d="M75.93739,5.73144l-0.92188,0.02442V5.50293c0.54688,0,0.63672,0,0.63672-0.36817V3.2334
		c0-0.46582-0.08984-0.90625-0.60449-0.90625c-0.65646,0.04656-1.15089,0.61648-1.10434,1.27295
		c0.00078,0.01091,0.00171,0.02182,0.00278,0.03271v1.502c0,0.36817,0.08984,0.36817,0.63672,0.36817v0.2529L73.6679,5.73146
		l-0.92188,0.02442V5.50295c0.54688,0,0.63672,0,0.63672-0.36817v-2.1875c0-0.39941-0.06543-0.457-0.63672-0.457V2.23735
		l1.15039-0.08984v0.85737c0.18132-0.51257,0.6653-0.85582,1.209-0.85742c0.31581-0.02901,0.62857,0.08119,0.85645,0.30176
		c0.25293,0.29394,0.25293,0.54687,0.25293,1.249v1.55957c0.00879,0.24512,0.21289,0.24512,0.6377,0.24512v0.25297L75.93739,5.73144
		z"/>
</g>
<g>
	<path class="st3" d="M149.40417,5.77688c-0.41528,0.01286-0.80286-0.2077-1.00391-0.57129v1.44483
		c0,0.36719,0.08984,0.36719,0.63672,0.36719v0.25293l-0.92285-0.02442l-0.91406,0.02442V7.01758
		c0.54688,0,0.63672,0,0.63672-0.36719v-3.8208c0-0.35889-0.05762-0.40821-0.63672-0.40821V2.16845l1.17578-0.08984v0.53906
		c0.28027-0.34254,0.69998-0.54055,1.14258-0.53906c0.97824,0.04364,1.73911,0.86656,1.70605,1.84522
		C151.23193,4.93755,150.41788,5.76626,149.40417,5.77688z M149.453,2.28274c-0.44342,0.01076-0.84625,0.26076-1.05273,0.65332
		v1.82031c-0.01434,0.12552,0.02747,0.25097,0.11426,0.34278c0.1796,0.30348,0.50385,0.49201,0.85645,0.498
		c0.60449,0,1.17578-0.68555,1.17578-1.67334c0-0.92235-0.49805-1.6411-1.09375-1.6411V2.28274z"/>
	<path class="st3" d="M153.94226,5.77688c-0.41528,0.01284-0.80286-0.20771-1.00391-0.57129v1.44483
		c0,0.36719,0.08984,0.36719,0.63672,0.36719v0.25293l-0.92285-0.02442l-0.91406,0.02442V7.01758
		c0.54688,0,0.63672,0,0.63672-0.36719v-3.8208c0-0.35889-0.05762-0.40821-0.63672-0.40821V2.16845l1.17578-0.08984v0.53906
		c0.28027-0.34254,0.69998-0.54056,1.14258-0.53906c0.97824,0.04364,1.73911,0.86656,1.70605,1.84522
		C155.77002,4.93756,154.95596,5.76627,153.94226,5.77688z M153.99109,2.28274c-0.44342,0.01077-0.84625,0.26077-1.05273,0.65332
		v1.82031c-0.01437,0.12552,0.02747,0.25098,0.11426,0.34278c0.1796,0.30348,0.50385,0.49201,0.85645,0.498
		c0.60449,0,1.17578-0.68555,1.17578-1.67334c0-0.92235-0.49805-1.6411-1.09375-1.6411V2.28274z"/>
	<path class="st3" d="M158.30847,5.77688c-1.00494-0.01006-1.81198-0.83194-1.80371-1.83691
		c-0.05484-0.99859,0.71024-1.85256,1.70883-1.9074c0.99857-0.05484,1.85254,0.71022,1.90738,1.70881
		c0.00363,0.06615,0.00363,0.13245,0,0.19859c0.00998,1.00448-0.79623,1.82685-1.80069,1.83683
		C158.31635,5.77684,158.31241,5.77686,158.30847,5.77688z M159.23132,2.74026c-0.19165-0.32812-0.54285-0.53011-0.92285-0.53076
		c-0.38467,0.00635-0.73788,0.2139-0.93066,0.54687c-0.15561,0.35112-0.22269,0.73508-0.19531,1.11817
		c-0.02667,0.39468,0.0434,0.78991,0.2041,1.15137c0.18808,0.33759,0.54422,0.54686,0.93066,0.54687
		c0.40546-0.00226,0.77353-0.23721,0.94629-0.604c0.14172-0.34651,0.20316-0.7206,0.17969-1.09424
		c0.02957-0.39012-0.04349-0.78118-0.21191-1.13431V2.74026z"/>
	<path class="st3" d="M161.98132,5.77688c-0.33496,0.01126-0.65985-0.11568-0.89844-0.35107
		c-0.05835,0.05907-0.11282,0.12187-0.16309,0.188c-0.15527,0.15478-0.16309,0.16308-0.2041,0.16308
		c-0.08984,0-0.08984-0.05713-0.08984-0.1958V4.50342c0-0.147,0-0.20411,0.10645-0.20411c0.08105,0,0.08984,0.03272,0.11426,0.13868
		c0.15527,0.69384,0.44922,1.15918,1.13477,1.15918c0.63672,0,0.92188-0.32666,0.92188-0.74268
		c0-0.58789-0.66895-0.71875-0.84863-0.751c-0.38638-0.02553-0.75864-0.15529-1.07715-0.37549
		c-0.21994-0.1632-0.35022-0.42045-0.35156-0.69433c0-0.457,0.31055-1.00391,1.30664-1.00391
		c0.27359-0.00943,0.54282,0.07082,0.7666,0.22852c0.05026-0.03896,0.09668-0.08262,0.13867-0.13037
		c0.10645-0.09815,0.12302-0.09815,0.16406-0.09815c0.08984,0,0.08984,0.05713,0.08984,0.1958v0.82471
		c0,0.15527,0,0.1958-0.10645,0.1958c0,0-0.08984,0-0.09766-0.07324c0.04898-0.49519-0.31274-0.93633-0.80792-0.98531
		c-0.04892-0.00483-0.09811-0.00566-0.14716-0.00248c-0.70215,0-0.91498,0.33447-0.91498,0.62011
		c0,0.47364,0.54688,0.57959,1.00488,0.66944c0.34329,0.0313,0.66846,0.16829,0.93066,0.39209
		c0.2178,0.19905,0.34213,0.48033,0.34277,0.77539C163.29578,5.22998,162.9198,5.77688,161.98132,5.77688z"/>
	<path class="st3" d="M164.74011,5.66259l-0.89844,0.02442V5.43408c0.54688,0,0.63672,0,0.63672-0.36768V2.8706
		c0-0.3999-0.07324-0.44922-0.60352-0.44922V2.16845l1.14258-0.08984V5.0747c0,0.31836,0.03223,0.35938,0.57129,0.35938v0.25293
		C165.3114,5.67871,165.02527,5.66259,164.74011,5.66259z M164.69913,1.18896c-0.23712-0.00434-0.42828-0.19551-0.43262-0.43262
		c-0.00217-0.24109,0.19153-0.43827,0.43262-0.44043c0.24109-0.00215,0.43826,0.19154,0.44043,0.43262
		c0.00214,0.24109-0.19156,0.43827-0.43262,0.44043C164.70432,1.18898,164.70172,1.18898,164.69913,1.18896z"/>
	<path class="st3" d="M167.74304,5.77688c-0.54416,0.03961-1.01743-0.36942-1.05704-0.9136
		c-0.00458-0.06281-0.00314-0.12592,0.0043-0.18845V2.42138h-0.69333v-0.1792c0.7998-0.03271,1.04492-0.90625,1.05273-1.57568
		h0.2041v1.502h1.16699v0.25293h-1.16699v2.26945c0,0.13916,0,0.88183,0.54688,0.88183c0.30173,0,0.54688-0.31006,0.54688-0.91455
		V4.20943h0.2041v0.46533C168.55164,5.19726,168.32312,5.77688,167.74304,5.77688z"/>
	<path class="st3" d="M171.04089,5.77688c-1.01617-0.02588-1.81961-0.8695-1.7959-1.88574
		c-0.04373-0.98249,0.71588-1.81507,1.69827-1.86136c0.7995-0.0117,1.45712,0.62696,1.46881,1.42648
		c0.00085,0.05798-0.00177,0.11596-0.00787,0.17362c0,0.17139-0.02441,0.17139-0.2041,0.17139h-2.27734
		c-0.02896,0.42276,0.05566,0.84557,0.24512,1.22461c0.19186,0.3301,0.54117,0.5371,0.92285,0.54687
		c0.51373-0.00295,0.96326-0.34607,1.10156-0.84082c0.0166-0.06543,0.03223-0.11426,0.10645-0.11426
		c0.05157-0.00634,0.09854,0.03033,0.10486,0.08191c0.00064,0.00522,0.00085,0.01049,0.00061,0.01575
		C172.24997,5.34188,171.68616,5.78089,171.04089,5.77688z M170.94324,2.2095c-0.27734,0-0.96289,0.2041-1.0127,1.42041h1.93555
		c0-0.31839-0.08203-1.42044-0.92282-1.42044L170.94324,2.2095z"/>
	<path class="st3" d="M178.45984,5.77688V5.23782c-0.26099,0.33989-0.66519,0.53911-1.09375,0.53906
		c-0.98575-0.03529-1.75845-0.85921-1.73047-1.84521c-0.00433-1.01245,0.80795-1.83931,1.82031-1.853
		c0.40265,0.00055,0.78235,0.1875,1.02832,0.50629V0.82177c0-0.40039-0.06445-0.45751-0.63672-0.45751V0.11133l1.17578-0.08985
		v4.95508c0,0.40039,0.06543,0.45752,0.63672,0.45752v0.25293L178.45984,5.77688z M178.45984,3.05032
		c0.01389-0.1089-0.01874-0.21861-0.08984-0.30225c-0.19202-0.30159-0.52335-0.48581-0.88086-0.48974
		c-0.37573,0.0085-0.72223,0.20466-0.92285,0.52246c-0.33136,0.72752-0.3374,1.5617-0.0166,2.29394
		c0.17383,0.31304,0.49954,0.51151,0.85742,0.52247c0.39899-0.00822,0.76447-0.22505,0.96289-0.57129
		c0.07111-0.08364,0.10373-0.19335,0.08984-0.30225V3.05032z"/>
	<path class="st3" d="M181.06335,5.66259l-0.89746,0.02442V5.43408c0.54688,0,0.63672,0,0.63672-0.36768V2.8706
		c0-0.3999-0.07422-0.44922-0.60449-0.44922V2.16845l1.14258-0.08984V5.0747c0,0.31836,0.0332,0.35938,0.57227,0.35938v0.25293
		C181.63464,5.67871,181.34949,5.66259,181.06335,5.66259z M181.02237,1.18896c-0.23697-0.0047-0.42792-0.19566-0.43262-0.43262
		c0.00214-0.24106,0.19928-0.43475,0.44034-0.43262c0.00037,0,0.0007,0.00001,0.00107,0.00001
		c0.23703,0.00452,0.42807,0.19558,0.43262,0.43261c-0.00214,0.24106-0.19928,0.43476-0.44034,0.43263
		c-0.00037,0-0.00073-0.00001-0.0011-0.00001L181.02237,1.18896z"/>
	<path class="st3" d="M184.78601,2.93603c-0.18689,0.00726-0.34427-0.13836-0.35153-0.32524
		c-0.00034-0.00861-0.00037-0.01722-0.00003-0.02583c-0.00232-0.13293,0.07013-0.25592,0.1875-0.31836
		c-0.01563-0.0083-0.03223-0.0083-0.08984-0.0083c-0.62012,0-0.96289,0.72656-0.96289,1.53467v1.25732
		c0,0.294,0.0166,0.38379,0.62012,0.38379h0.17188v0.25293c-0.32617-0.02442-0.70999-0.02442-1.03711-0.02442l-0.93066,0.02442
		V5.43408c0.54688,0,0.63672,0,0.63672-0.36768V2.87888c0-0.3999-0.06543-0.45752-0.63672-0.45752V2.16843l1.13477-0.08984v0.898
		c0.104-0.48564,0.5097-0.84855,1.00391-0.898c0.30386-0.02749,0.57333,0.1945,0.60449,0.498
		c0.00906,0.18928-0.13702,0.35007-0.32632,0.35913C184.80219,2.93611,184.7941,2.93621,184.78601,2.93603z"/>
	<path class="st3" d="M187.38953,5.77688c-1.01617-0.02588-1.81961-0.8695-1.7959-1.88574
		c-0.04373-0.98247,0.71588-1.81503,1.69824-1.86133c0.79984-0.01136,1.45743,0.62781,1.46878,1.42763
		c0.00082,0.0576-0.0018,0.11519-0.00784,0.17247c0,0.17139-0.02441,0.17139-0.2041,0.17139h-2.27734
		c-0.02887,0.42264,0.05542,0.84534,0.24414,1.22461c0.19205,0.32991,0.54126,0.53684,0.92285,0.54687
		c0.51404-0.00259,0.96405-0.34577,1.10254-0.84082c0.01563-0.06543,0.03223-0.11426,0.10547-0.11426
		c0.05197-0.00646,0.09933,0.03042,0.10577,0.08238c0.00064,0.00507,0.00085,0.01018,0.00067,0.01528
		C188.59854,5.34189,188.03476,5.78088,187.38953,5.77688z M187.29187,2.2095c-0.27832,0-0.96387,0.2041-1.0127,1.42041h1.93457
		c0-0.31839-0.08105-1.42044-0.92188-1.42044V2.2095z"/>
	<path class="st3" d="M191.02136,5.77688c-0.99603-0.02799-1.78149-0.8569-1.75586-1.853
		c-0.03571-1.01018,0.75424-1.85805,1.76443-1.89376c0.00235-0.00008,0.0047-0.00016,0.00705-0.00024
		c0.62891,0,1.24899,0.31836,1.24899,0.87354c0.00406,0.20737-0.16077,0.37875-0.36813,0.3828s-0.37875-0.16077-0.38281-0.36813
		c-0.00003-0.00212-0.00006-0.00425-0.00006-0.00637c-0.00381-0.20369,0.1582-0.37191,0.36188-0.37573
		c0.00729-0.00014,0.01462-0.00006,0.02191,0.00024c-0.24554-0.20186-0.55527-0.30909-0.87305-0.30225
		c-0.43262,0-1.10254,0.34278-1.10254,1.67334c0,1.31446,0.71875,1.66553,1.15137,1.66553
		c0.51727,0.01148,0.96811-0.35003,1.06934-0.85742c0.0166-0.04883,0.03223-0.08154,0.10645-0.08154
		c0.02441,0,0.10547,0,0.10547,0.08154C192.2403,5.35016,191.67007,5.79704,191.02136,5.77688z"/>
	<path class="st3" d="M194.51453,5.77688c-0.54395,0.03986-1.01721-0.36879-1.05707-0.91273
		c-0.00461-0.0631-0.00317-0.1265,0.00433-0.18932V2.42138h-0.69434v-0.1792c0.7998-0.03271,1.04492-0.90625,1.05273-1.57568h0.2041
		v1.502h1.168v0.25293h-1.16803v2.26945c0,0.13916,0,0.88183,0.54688,0.88183c0.30273,0,0.54785-0.31006,0.54785-0.91455V4.20943
		h0.2041v0.46533C195.32312,5.19726,195.09363,5.77688,194.51453,5.77688z"/>
	<path class="st3" d="M196.95496,5.66259l-0.89844,0.02442V5.43408c0.54688,0,0.63672,0,0.63672-0.36768V2.8706
		c0-0.3999-0.07324-0.44922-0.60352-0.44922V2.16845l1.14258-0.08984V5.0747c0,0.31836,0.03223,0.35938,0.57129,0.35938v0.25293
		C197.52625,5.67871,197.24011,5.66259,196.95496,5.66259z M196.91397,1.18896c-0.23709-0.00434-0.42828-0.19551-0.43262-0.43262
		c-0.00217-0.24109,0.19153-0.43827,0.43262-0.44043c0.24109-0.00215,0.43826,0.19154,0.44043,0.43262
		c0.00217,0.24109-0.19153,0.43827-0.43262,0.44043C196.91919,1.18898,196.91656,1.18898,196.91397,1.18896z"/>
	<path class="st3" d="M200.08875,5.77688c-1.00494-0.01006-1.81198-0.83194-1.80371-1.83691
		c-0.05484-0.99859,0.71021-1.85256,1.7088-1.9074s1.85257,0.71022,1.90741,1.70881c0.00363,0.06615,0.00363,0.13245,0,0.19859
		c0.00998,1.00448-0.79623,1.82685-1.80072,1.83683C200.09662,5.77684,200.09268,5.77686,200.08875,5.77688z M201.0116,2.74026
		c-0.19165-0.32813-0.54285-0.53011-0.92285-0.53076c-0.3847,0.00634-0.73792,0.21389-0.93066,0.54687
		c-0.15564,0.35112-0.22269,0.73508-0.19531,1.11817c-0.02667,0.39468,0.0434,0.78991,0.2041,1.15137
		c0.18808,0.33759,0.54422,0.54687,0.93066,0.54687c0.40543-0.00226,0.77353-0.23721,0.94629-0.604
		c0.14172-0.34651,0.20313-0.7206,0.17969-1.09424c0.02957-0.39012-0.04349-0.78118-0.21191-1.13431V2.74026z"/>
	<path class="st3" d="M205.5907,5.66259l-0.92285,0.02442V5.43408c0.54688,0,0.63672,0,0.63672-0.36768V3.16455
		c0-0.46533-0.08984-0.90625-0.60352-0.90625c-0.65695,0.04652-1.15179,0.61678-1.10529,1.27372
		c0.00076,0.01082,0.00168,0.02163,0.00275,0.03242v1.502c0,0.36768,0.08984,0.36768,0.63672,0.36768v0.25293l-0.91406-0.02442
		l-0.92285,0.02442V5.43408c0.54688,0,0.63672,0,0.63672-0.36768V2.87888c0-0.3999-0.06543-0.45752-0.63672-0.45752V2.16843
		l1.15137-0.08984v0.85742c0.18127-0.51217,0.6647-0.85529,1.20801-0.85742c0.31619-0.02906,0.62933,0.08132,0.85742,0.30225
		c0.25293,0.29394,0.25293,0.54687,0.25293,1.249v1.55908c0.00781,0.24512,0.21191,0.24512,0.63672,0.24512v0.25293
		L205.5907,5.66259z"/>
	<path class="st3" d="M208.29968,5.77688c-0.33466,0.01107-0.65915-0.11586-0.89746-0.35107
		c-0.0592,0.0583-0.11374,0.12116-0.16309,0.188c-0.15527,0.15478-0.16406,0.16308-0.2041,0.16308
		c-0.08984,0-0.08984-0.05713-0.08984-0.1958V4.50342c0-0.147,0-0.20411,0.10547-0.20411c0.082,0,0.08984,0.03272,0.11426,0.13868
		c0.15527,0.69384,0.44922,1.15918,1.13477,1.15918c0.63672,0,0.92285-0.32666,0.92285-0.74268
		c0-0.58789-0.66992-0.71875-0.84961-0.751c-0.38632-0.0259-0.75845-0.15563-1.07715-0.37549
		c-0.2197-0.16331-0.34961-0.42059-0.35059-0.69433c0-0.457,0.30957-1.00391,1.30566-1.00391
		c0.2739-0.00936,0.5434,0.07087,0.76758,0.22852c0.05005-0.03922,0.09644-0.08285,0.13867-0.13037
		c0.10645-0.09815,0.12207-0.09815,0.16309-0.09815c0.08984,0,0.08984,0.05713,0.08984,0.1958v0.82471
		c0,0.15527,0,0.1958-0.10645,0.1958c0,0-0.08887,0-0.09766-0.07324c0.04935-0.4948-0.31174-0.93593-0.80655-0.98529
		c-0.04935-0.00492-0.09903-0.00576-0.14853-0.0025c-0.70215,0-0.91406,0.33447-0.91406,0.62011
		c0,0.47364,0.54688,0.57959,1.00391,0.66944c0.34329,0.0313,0.66846,0.16829,0.93066,0.39209
		c0.2178,0.19905,0.34216,0.48033,0.34277,0.77539C209.61414,5.22998,209.23914,5.77688,208.29968,5.77688z"/>
	<g>
		<path class="st3" d="M143.94922,6.30407c-1.4873,0-2.77051-1.33447-2.77051-3.06006c0-1.74219,1.2666-3.10205,2.7793-3.10205
			c1.47852,0,2.77051,1.34277,2.77051,3.10205C146.72852,4.95251,145.4707,6.30407,143.94922,6.30407z M143.94922,0.32897
			c-0.79883,0-1.98047,0.70557-1.98047,2.7876c0,2.17578,1.12207,2.9917,1.98926,2.9917c0.82422,0,1.98047-0.78174,1.98047-2.9917
			C145.93848,1.05993,144.79102,0.32897,143.94922,0.32897z"/>
	</g>
</g>
<g>
	<path class="st3" d="M24.44862,80.98047l-1.82032,4.7998c-0.041,0.11426-0.05713,0.15527-0.1958,0.15527
		c-0.10644,0-0.147-0.02441-0.2041-0.17969l-1.894-5.0127c-0.11426-0.31055-0.26953-0.31055-0.79981-0.31055v-0.25293
		l1.03662,0.02441c0.31006,0,0.87354,0,1.16748-0.02441v0.25293c-0.2041,0-0.66943,0-0.66943,0.2373
		c0.00862,0.05106,0.02509,0.10046,0.04883,0.14648l1.55908,4.12305l1.49409-3.93457
		c0.02285-0.05194,0.03656-0.10745,0.04053-0.16406c0-0.1875-0.17139-0.39941-0.5957-0.4082v-0.25293l0.93066,0.02441
		c0.2124,0,0.53857-0.00781,0.792-0.02441v0.25293C24.95001,80.38271,24.57919,80.61095,24.44862,80.98047z"/>
	<path class="st3" d="M26.85633,85.8457c-1.00499-0.01015-1.8121-0.83191-1.8042-1.83691
		c-0.0547-0.99872,0.71058-1.85269,1.7093-1.90739s1.85269,0.71059,1.90739,1.7093c0.00362,0.06598,0.00362,0.13211,0,0.19809
		c0.00964,1.00482-0.79713,1.82721-1.80195,1.83684C26.86337,85.84567,26.85985,85.84569,26.85633,85.8457z M27.77869,82.80859
		c-0.19157-0.32791-0.54259-0.52971-0.92236-0.53027c-0.38482,0.00591-0.73823,0.21358-0.93066,0.54688
		c-0.156,0.35101-0.22324,0.73503-0.1958,1.11816c-0.02668,0.39468,0.04338,0.7899,0.2041,1.15137
		c0.18841,0.33727,0.54433,0.54642,0.93066,0.54688c0.40564-0.00246,0.77386-0.23755,0.94678-0.60449
		c0.14171-0.34634,0.20314-0.72028,0.17969-1.09375C28.02075,83.55304,27.94752,83.16176,27.77869,82.80859z"/>
	<path class="st3" d="M30.07996,85.73145l-0.90625,0.02441v-0.25293c0.54688,0,0.63672,0,0.63672-0.36816v-4.24414
		c0-0.40039-0.06543-0.45799-0.63672-0.45799V80.1797l1.1753-0.08984v5.04492c0,0.36816,0.08984,0.36816,0.63671,0.36816v0.25293
		L30.07996,85.73145z"/>
	<path class="st3" d="M33.07508,85.8457c-0.54432,0.03949-1.01759-0.36975-1.05708-0.91408
		c-0.00455-0.06282-0.0031-0.12592,0.00436-0.18846v-2.25293h-0.69385v-0.17969c0.7998-0.03223,1.04492-0.90625,1.05273-1.5752
		h0.2041v1.50195h1.16748v0.25293h-1.16748v2.26953c0,0.13867,0,0.88184,0.54737,0.88184c0.30176,0,0.54687-0.31055,0.54687-0.91499
		v-0.44824h0.2041v0.46484C33.88367,85.26563,33.65516,85.8457,33.07508,85.8457z"/>
	<path class="st3" d="M37.62196,85.80469c-0.35397-0.02415-0.63058-0.31519-0.63672-0.66992
		c-0.17407,0.43617-0.59979,0.71921-1.06934,0.71094c-0.51416,0-1.30615-0.2041-1.30615-0.86523
		c0.02814-0.48799,0.35198-0.90907,0.8164-1.06152c0.47683-0.19458,0.987-0.29442,1.502-0.29395v-0.30176
		c0.0673-0.50612-0.28844-0.97098-0.79456-1.03827c-0.02347-0.00313-0.04705-0.00534-0.07069-0.00665
		c-0.33453-0.00943-0.65655,0.12752-0.88183,0.375c0.37549,0.00879,0.4165,0.27734,0.4165,0.37601
		c-0.0006,0.2074-0.1692,0.37506-0.37661,0.37447s-0.37506-0.1692-0.37447-0.3766c0.00001-0.00221,0.00003-0.00443,0.00008-0.00664
		c0-0.53809,0.563-0.92188,1.23243-0.92188c0.41803-0.00629,0.82107,0.15556,1.11865,0.44922
		c0.23363,0.26279,0.34097,0.61443,0.29394,0.96289v1.63281c0,0.041,0.03272,0.4082,0.30176,0.4082
		c0.08985,0,0.294-0.04883,0.294-0.52248v-0.457h0.2041v0.457c0.04557,0.38007-0.22559,0.72511-0.60566,0.77068
		C37.6646,85.80255,37.6433,85.80411,37.62196,85.80469z M36.92812,83.79688c-1.34668,0.04883-1.68994,0.72559-1.68994,1.1748
		c0.00463,0.38846,0.32329,0.69962,0.71175,0.69499c0.00771-0.00009,0.01542-0.00031,0.02312-0.00066
		c0.54147-0.01262,0.97018-0.46181,0.95756-1.00327c-0.0004-0.01685-0.00122-0.03366-0.00248-0.05045v-0.8154H36.92812z"/>
	<path class="st3" d="M42.15226,82.70215c-0.12781,0.00298-0.23383-0.09822-0.23681-0.22603
		c-0.00008-0.00343-0.00008-0.00687-0.00001-0.0103c-0.00851-0.09395,0.04399-0.18282,0.13037-0.2207
		c-0.02683-0.00546-0.05416-0.00807-0.08154-0.00781c-0.27671,0.00732-0.53986,0.12141-0.73437,0.31836
		c0.21401,0.2079,0.33468,0.49364,0.33447,0.79201c-0.03883,0.69286-0.62914,1.22473-1.32227,1.19141
		c-0.28928,0.00182-0.57191-0.08659-0.80859-0.25293c-0.08949,0.10789-0.13853,0.24362-0.13867,0.38379
		c-0.01183,0.2645,0.17249,0.49751,0.43261,0.54688c0.05713,0.00781,0.40821,0.00781,0.61231,0.00781
		c0.4798-0.04152,0.96241,0.037,1.4043,0.22852c0.33437,0.18924,0.53813,0.54652,0.53076,0.93066
		c0,0.63672-0.84912,1.05371-1.8125,1.05371c-0.9961,0-1.8042-0.44922-1.8042-1.03711
		c0.04012-0.40923,0.34654-0.74232,0.751-0.81641c-0.23193-0.16835-0.36613-0.44006-0.35888-0.72656
		c0.00797-0.24748,0.09681-0.48553,0.25293-0.67773c-0.24263-0.21223-0.38241-0.51846-0.38379-0.84082
		c0.03889-0.69301,0.62946-1.22493,1.32275-1.19141c0.31367-0.00467,0.61932,0.09917,0.86524,0.29395
		c0.22735-0.23584,0.53781-0.37355,0.86523-0.38379c0.22036-0.00948,0.40668,0.1615,0.41615,0.38185
		c0.00027,0.00618,0.00039,0.01237,0.00037,0.01855c0.00491,0.12982-0.09634,0.23903-0.22616,0.24394
		C42.15939,82.70212,42.15582,82.70218,42.15226,82.70215z M40.2338,85.69824h-0.48193
		c-0.37103,0.0258-0.66113,0.33031-0.66895,0.70215c0,0.43262,0.563,0.84961,1.3877,0.84961
		c0.7998,0,1.37939-0.4082,1.37939-0.84961c-0.00002-0.70215-0.91409-0.70215-1.61623-0.70215H40.2338z M40.2421,82.33496
		c-0.23582,0.00499-0.45345,0.12784-0.57959,0.32715c-0.10351,0.21291-0.14867,0.44948-0.13086,0.68555
		c0,0.1875,0,1.00391,0.71045,1.00391c0.23546-0.00542,0.45277-0.1277,0.57959-0.32617
		c0.10313-0.21338,0.14811-0.4502,0.13037-0.68652c-0.00003-0.1875-0.00003-1.00391-0.70999-1.00391H40.2421z"/>
	<path class="st3" d="M44.53455,85.8457c-1.01618-0.02588-1.81961-0.86951-1.7959-1.88574
		c-0.04372-0.98247,0.7159-1.81503,1.69825-1.86133c0.79958-0.0116,1.45717,0.6272,1.46876,1.42677
		c0.00084,0.05772-0.00178,0.11543-0.00783,0.17284c0,0.17188-0.02441,0.17188-0.2041,0.17188h-2.27734
		c-0.02886,0.4227,0.05558,0.84544,0.24463,1.22461c0.19196,0.33,0.54121,0.53697,0.92285,0.54688
		c0.51389-0.00278,0.96365-0.34592,1.10205-0.84082c0.01611-0.06543,0.03223-0.11426,0.106-0.11426
		c0.0516-0.00658,0.09876,0.02991,0.10534,0.08151c0.00069,0.00534,0.00091,0.01076,0.00066,0.01614
		C45.74366,85.41075,45.17982,85.84975,44.53455,85.8457z M44.4369,82.27832c-0.27784,0-0.96338,0.2041-1.01221,1.41992h1.93456
		C45.35926,83.37988,45.27772,82.27832,44.4369,82.27832z"/>
	<path class="st3" d="M47.75867,85.8457c-0.33488,0.01093-0.65955-0.11618-0.898-0.35156
		c-0.05891,0.05873-0.11342,0.12173-0.16308,0.18848c-0.15527,0.1543-0.16358,0.16309-0.2041,0.16309
		c-0.08985,0-0.08985-0.05762-0.08985-0.19629v-1.07715c0-0.14746,0-0.2041,0.106-0.2041c0.08154,0,0.08984,0.03223,0.11426,0.13867
		c0.15527,0.69336,0.44922,1.15918,1.13476,1.15918c0.63672,0,0.92237-0.32715,0.92237-0.74316
		c0-0.58789-0.66944-0.71875-0.84912-0.75101c-0.38634-0.02536-0.75858-0.15495-1.07715-0.375
		c-0.21982-0.16325-0.3499-0.42052-0.35108-0.69434c0-0.457,0.31006-1.00391,1.30616-1.00391
		c0.27376-0.0094,0.5431,0.07085,0.76709,0.22852c0.05031-0.03925,0.09689-0.08305,0.13916-0.13086
		c0.106-0.09766,0.12207-0.09766,0.16308-0.09766c0.08985,0,0.08985,0.05664,0.08985,0.19531v0.8252
		c0,0.15527,0,0.19531-0.10645,0.19531c0,0-0.08936,0-0.09766-0.07324c0.049-0.49492-0.31248-0.93585-0.8074-0.98485
		c-0.04907-0.00487-0.09846-0.00569-0.14767-0.00246c-0.70215,0-0.91455,0.334-0.91455,0.62012
		c0,0.47363,0.54687,0.5791,1.00439,0.66901c0.3434,0.03127,0.66861,0.16844,0.93066,0.39256
		c0.2178,0.19905,0.34216,0.48033,0.34278,0.77539C49.07313,85.29889,48.69764,85.8457,47.75867,85.8457z"/>
	<path class="st3" d="M53.23526,85.73145l-0.89795,0.02441v-0.25293c0.54687,0,0.63672,0,0.63672-0.36816v-2.19531
		c0-0.40039-0.07373-0.44922-0.604-0.44922V82.2373l1.14258-0.08984v2.99609c0,0.31836,0.03271,0.35938,0.57178,0.35938v0.25293
		C53.80653,85.74707,53.52088,85.73145,53.23526,85.73145z M53.19426,81.25781c-0.23696-0.00468-0.42793-0.19566-0.43262-0.43262
		c-0.0023-0.24123,0.1914-0.43863,0.43262-0.44092c0.24122-0.0023,0.43864,0.19139,0.44093,0.43262
		c0.00229,0.24121-0.1914,0.43863-0.43262,0.44092C53.1998,81.25784,53.19703,81.25784,53.19426,81.25781z"/>
	<path class="st3" d="M57.78992,85.73145l-0.92236,0.02441v-0.25293c0.54688,0,0.63672,0,0.63672-0.36816V83.2334
		c0-0.46582-0.08984-0.90625-0.604-0.90625c-0.65668,0.04651-1.15132,0.61656-1.10481,1.27324
		c0.00078,0.01082,0.00168,0.02162,0.00275,0.03242v1.502c0,0.36816,0.08984,0.36816,0.63672,0.36816v0.25293l-0.91455-0.02441
		l-0.92236,0.02441v-0.25293c0.54688,0,0.63672,0,0.63672-0.36816v-2.1875c0-0.39941-0.06543-0.457-0.63672-0.457v-0.25293
		l1.15088-0.08984v0.85735c0.18121-0.51244,0.66496-0.85565,1.2085-0.85742c0.31596-0.0291,0.62891,0.0811,0.85693,0.30176
		c0.25293,0.29395,0.25293,0.54688,0.25293,1.24899v1.55957c0.0083,0.24512,0.2124,0.24512,0.63721,0.24512v0.25293
		L57.78992,85.73145z"/>
	<path class="st3" d="M64.02526,85.8457c-0.41518,0.01247-0.80257-0.20798-1.00391-0.57129v1.44434
		c0,0.36719,0.08984,0.36719,0.63672,0.36719v0.25293l-0.92236-0.02441l-0.91455,0.02441v-0.25293
		c0.54688,0,0.63672,0,0.63672-0.36719v-3.82031c0-0.35938-0.05713-0.4082-0.63672-0.4082V82.2373l1.1758-0.08984v0.53906
		c0.28027-0.34254,0.69997-0.54056,1.14256-0.53906c0.97824,0.04323,1.73924,0.86609,1.70605,1.84473
		C65.85305,85.006,65.03904,85.83485,64.02526,85.8457z M64.07407,82.35156c-0.44344,0.01068-0.84631,0.26071-1.05273,0.65332
		v1.82031c-0.01428,0.12552,0.02753,0.25093,0.11426,0.34277c0.1799,0.30344,0.50423,0.49191,0.85693,0.498
		c0.604,0,1.17578-0.68555,1.17578-1.67383c0.00003-0.92183-0.49805-1.64058-1.09421-1.64058H64.07407z"/>
	<path class="st3" d="M69.58387,85.73145l-0.92236,0.02441v-0.25293c0.54688,0,0.6367,0,0.6367-0.36816V83.2334
		c0-0.46582-0.08984-0.90625-0.604-0.90625c-0.65668,0.04654-1.15129,0.61661-1.10474,1.27328
		c0.00076,0.0108,0.00168,0.02161,0.00273,0.03238v1.502c0,0.36816,0.08984,0.36816,0.63672,0.36816v0.25293l-0.91455-0.02441
		l-0.92236,0.02441v-0.25293c0.54688,0,0.63672,0,0.63672-0.36816v-4.24414c0-0.40039-0.06543-0.45799-0.63672-0.45799v-0.25293
		l1.17529-0.08984v2.84082h0.0083c0.19984-0.47287,0.66243-0.78101,1.17578-0.7832c0.31596-0.0291,0.62891,0.0811,0.85693,0.30176
		c0.25293,0.29395,0.25293,0.54688,0.25293,1.24899v1.55957c0.0083,0.24512,0.21242,0.24512,0.63721,0.24512v0.25293
		L69.58387,85.73145z"/>
	<path class="st3" d="M73.94225,85.80469c-0.35397-0.02415-0.63057-0.31519-0.63672-0.66992
		c-0.17407,0.43617-0.59978,0.71921-1.06934,0.71094c-0.51416,0-1.30615-0.2041-1.30615-0.86523
		c0.02814-0.48799,0.35199-0.90907,0.81641-1.06152c0.47682-0.19456,0.98697-0.29442,1.50195-0.29395v-0.30176
		c0.06731-0.50612-0.28844-0.97098-0.79456-1.03827c-0.02347-0.00313-0.04704-0.00534-0.07068-0.00665
		c-0.33453-0.00943-0.65656,0.12752-0.88184,0.375c0.37549,0.00879,0.4165,0.27734,0.4165,0.37601
		c-0.00198,0.2074-0.17171,0.3739-0.3791,0.37192c-0.20738-0.00198-0.3739-0.17171-0.37192-0.3791
		c0-0.00052,0.00002-0.00105,0.00002-0.00159c0-0.53809,0.563-0.92188,1.23242-0.92188
		c0.41803-0.00629,0.82108,0.15556,1.11865,0.44922c0.23363,0.26279,0.34097,0.61443,0.29395,0.96289v1.63281
		c0,0.041,0.03271,0.4082,0.30174,0.4082c0.08984,0,0.29395-0.04883,0.29395-0.52248v-0.457h0.2041v0.457
		c0.04558,0.38007-0.22559,0.72511-0.60565,0.77069C73.98483,85.80255,73.96355,85.80411,73.94225,85.80469z M73.24841,83.79688
		c-1.34668,0.04883-1.68994,0.72559-1.68994,1.1748c0.00462,0.38846,0.32329,0.69962,0.71175,0.69499
		c0.00771-0.00009,0.01541-0.00031,0.02312-0.00066c0.54147-0.01262,0.97018-0.46181,0.95755-1.00327
		c-0.00038-0.01685-0.00122-0.03366-0.00247-0.05045V83.79688z"/>
	<path class="st3" d="M76.3744,85.8457c-0.33488,0.01093-0.65955-0.11618-0.89799-0.35156
		c-0.05891,0.05873-0.11343,0.12173-0.16309,0.18848c-0.15527,0.1543-0.16357,0.16309-0.2041,0.16309
		c-0.08984,0-0.08984-0.05762-0.08984-0.19629v-1.07715c0-0.14746,0-0.2041,0.106-0.2041c0.08154,0,0.08984,0.03223,0.11426,0.13867
		c0.15527,0.69336,0.44922,1.15918,1.13477,1.15918c0.63672,0,0.92236-0.32715,0.92236-0.74316
		c0-0.58789-0.66943-0.71875-0.84863-0.75101c-0.38651-0.02528-0.75893-0.15489-1.07764-0.375
		c-0.21982-0.16327-0.3499-0.42053-0.35107-0.69434c0-0.457,0.31004-1.00391,1.30615-1.00391
		c0.27377-0.00945,0.54312,0.07079,0.76709,0.22852c0.05026-0.03912,0.09669-0.08295,0.13867-0.13086
		c0.10645-0.09766,0.12256-0.09766,0.16357-0.09766c0.08984,0,0.08984,0.05664,0.08984,0.19531v0.8252
		c0,0.15527,0,0.19531-0.10645,0.19531c0,0-0.08936,0-0.09766-0.07324c0.049-0.49492-0.31248-0.93585-0.8074-0.98485
		c-0.04907-0.00487-0.09846-0.00569-0.14767-0.00246c-0.70215,0-0.91455,0.334-0.91455,0.62012
		c0,0.47363,0.54688,0.5791,1.00439,0.66901c0.3434,0.03127,0.66861,0.16844,0.93066,0.39256
		c0.2178,0.19905,0.34215,0.48033,0.34277,0.77539C77.68885,85.29889,77.31336,85.8457,76.3744,85.8457z"/>
	<path class="st3" d="M79.99012,85.8457c-1.01619-0.02588-1.81961-0.86951-1.7959-1.88574
		c-0.04372-0.98247,0.71588-1.81503,1.69824-1.86133c0.79958-0.0116,1.45717,0.62718,1.46877,1.42677
		c0.00084,0.05771-0.00177,0.11543-0.00783,0.17284c0,0.17188-0.02441,0.17188-0.2041,0.17188h-2.27734
		c-0.02887,0.4227,0.05557,0.84544,0.24461,1.22461c0.19196,0.33,0.54121,0.53697,0.92287,0.54688
		c0.51387-0.00279,0.96359-0.34593,1.10201-0.84082c0.01611-0.06543,0.03223-0.11426,0.106-0.11426
		c0.05159-0.00658,0.09875,0.02991,0.10535,0.08151c0.00067,0.00534,0.0009,0.01076,0.00066,0.01614
		C81.19918,85.41072,80.63537,85.84973,79.99012,85.8457z M79.89246,82.27832c-0.27783,0-0.96338,0.2041-1.0127,1.41992h1.93506
		C80.81483,83.37988,80.73325,82.27832,79.89246,82.27832z"/>
</g>
<g>
	<path class="st3" d="M133.29578,80.98047l-1.82031,4.7998c-0.04099,0.11426-0.05664,0.15527-0.19531,0.15527
		c-0.10645,0-0.14746-0.02441-0.2041-0.17969l-1.89453-5.0127c-0.11426-0.31055-0.26953-0.31055-0.7998-0.31055v-0.25293
		l1.03711,0.02441c0.30957,0,0.87302,0,1.16702-0.02441v0.25293c-0.2041,0-0.66895,0-0.66895,0.2373
		c0.00861,0.05106,0.02509,0.10046,0.04883,0.14648l1.55859,4.12305l1.49411-3.93457
		c0.02325-0.05185,0.03711-0.10739,0.04102-0.16406c0-0.1875-0.17188-0.39941-0.5957-0.4082v-0.25293l0.93066,0.02441
		c0.21191,0,0.53809-0.00781,0.79199-0.02441v0.25293C133.79752,80.38257,133.42648,80.61081,133.29578,80.98047z"/>
	<path class="st3" d="M135.70398,85.8457c-1.00507-0.01012-1.81235-0.8318-1.80469-1.83691
		c-0.05466-0.99886,0.71075-1.85291,1.70963-1.90758c0.99887-0.05466,1.85291,0.71077,1.90756,1.70963
		c0.0036,0.06593,0.0036,0.13202,0,0.19795c0.00946,1.005-0.79758,1.82738-1.80255,1.83685
		C135.7106,85.84567,135.70731,85.84569,135.70398,85.8457z M136.62585,82.80859c-0.19128-0.32796-0.54221-0.52982-0.92188-0.53027
		c-0.38489,0.00566-0.7384,0.21339-0.93066,0.54688c-0.15637,0.35091-0.22379,0.73497-0.19629,1.11816
		c-0.02667,0.39468,0.0434,0.78992,0.20413,1.15137c0.18857,0.3371,0.5444,0.54619,0.93066,0.54688
		c0.40576-0.00243,0.77414-0.2375,0.94727-0.60449c0.14169-0.34634,0.20313-0.72028,0.17969-1.09375
		C136.86847,83.55298,136.79504,83.16165,136.62585,82.80859z"/>
	<path class="st3" d="M138.92761,85.73145l-0.90625,0.02441v-0.25293c0.54688,0,0.63672,0,0.63672-0.36816v-4.24414
		c0-0.40039-0.06543-0.45799-0.63672-0.45799V80.1797l1.1748-0.08984v5.04492c0,0.36816,0.08984,0.36816,0.63672,0.36816v0.25293
		L138.92761,85.73145z"/>
	<path class="st3" d="M141.92273,85.8457c-0.54422,0.0396-1.01749-0.36948-1.0571-0.9137
		c-0.00458-0.06294-0.00311-0.12617,0.00436-0.18884v-2.25293h-0.69434v-0.17969c0.7998-0.03223,1.04492-0.90625,1.05273-1.5752
		h0.2041v1.50195h1.168v0.25293h-1.168v2.26953c0,0.13867,0,0.88184,0.54785,0.88184c0.30176,0,0.54688-0.31055,0.54688-0.91499
		v-0.44824h0.2041v0.46484C142.73132,85.26563,142.50281,85.8457,141.92273,85.8457z"/>
	<path class="st3" d="M146.4696,85.80469c-0.35403-0.024-0.63074-0.31511-0.63672-0.66992
		c-0.17416,0.43608-0.59982,0.71907-1.06934,0.71094c-0.51465,0-1.30664-0.2041-1.30664-0.86523
		c0.02814-0.48799,0.35199-0.90907,0.81641-1.06152c0.47687-0.19449,0.987-0.29433,1.50201-0.29395v-0.30176
		c0.06744-0.50595-0.28806-0.97078-0.79401-1.03822c-0.02365-0.00314-0.04742-0.00539-0.07123-0.0067
		c-0.33453-0.00934-0.65649,0.12758-0.88184,0.375c0.37601,0.00879,0.41699,0.27734,0.41699,0.37601
		c-0.00085,0.2074-0.16965,0.37485-0.37708,0.37401c-0.2074-0.00085-0.37485-0.16968-0.37399-0.37708
		c0-0.00191,0.00003-0.0038,0.00006-0.00571c0-0.53809,0.5625-0.92188,1.23242-0.92188
		c0.41788-0.00618,0.82074,0.15565,1.11816,0.44922c0.23364,0.26279,0.34097,0.61443,0.29395,0.96289v1.63281
		c0,0.041,0.0332,0.4082,0.30176,0.4082c0.08984,0,0.29395-0.04883,0.29395-0.52248v-0.457h0.2041v0.457
		c0.04562,0.38-0.22543,0.72505-0.60544,0.77068C146.51205,85.80254,146.49084,85.80411,146.4696,85.80469z M145.77527,83.79689
		c-1.34668,0.04883-1.68945,0.72559-1.68945,1.1748c0.00455,0.38838,0.32312,0.69954,0.71149,0.69498
		c0.00763-0.00009,0.01526-0.00031,0.02289-0.00064c0.54147-0.01262,0.97018-0.46181,0.95755-1.00327
		c-0.0004-0.01685-0.00122-0.03366-0.00247-0.05045V83.79689z"/>
	<path class="st3" d="M150.99988,82.70215c-0.12802,0.00302-0.23425-0.09833-0.23727-0.22636
		c-0.00009-0.00333-0.00009-0.00664-0.00003-0.00996c-0.0083-0.09404,0.04437-0.18288,0.13086-0.2207
		c-0.02698-0.00546-0.05447-0.00809-0.082-0.00781c-0.27667,0.00749-0.53976,0.12154-0.73438,0.31836
		c0.21436,0.20772,0.33527,0.49352,0.33502,0.79201c-0.03882,0.69286-0.62915,1.22475-1.32227,1.19141
		c-0.28928,0.00182-0.57193-0.08659-0.80859-0.25293c-0.08951,0.10788-0.13855,0.24362-0.1387,0.38379
		c-0.01199,0.26456,0.17239,0.49768,0.43262,0.54688c0.05664,0.00781,0.4082,0.00781,0.6123,0.00781
		c0.47983-0.04153,0.9624,0.037,1.4043,0.22852c0.33429,0.18929,0.53787,0.5466,0.53027,0.93066
		c0,0.63672-0.84863,1.05371-1.8125,1.05371c-0.99609,0-1.80371-0.44922-1.80371-1.03711
		c0.03995-0.4093,0.34644-0.74251,0.75101-0.81641c-0.23206-0.16829-0.36646-0.43999-0.35938-0.72656
		c0.00818-0.24744,0.09702-0.48543,0.25293-0.67773c-0.24265-0.21223-0.38242-0.51846-0.38379-0.84082
		c0.03897-0.69318,0.62979-1.22514,1.32324-1.19141c0.31366-0.00461,0.61929,0.09923,0.86523,0.29395
		c0.22736-0.23584,0.53781-0.37355,0.86523-0.38379c0.22009-0.00945,0.40619,0.16133,0.41562,0.38142
		c0.00027,0.00633,0.0004,0.01265,0.00037,0.01898c0.00497,0.12975-0.09616,0.23897-0.22592,0.24394
		C151.00687,82.70212,151.00336,82.70216,150.99988,82.70215z M149.08093,85.69824h-0.48145
		c-0.37109,0.02562-0.66132,0.33023-0.66895,0.70215c0,0.43262,0.5625,0.84961,1.3877,0.84961
		c0.7998,0,1.37891-0.4082,1.37891-0.84961C150.69714,85.69824,149.78308,85.69824,149.08093,85.69824z M149.08972,82.33496
		c-0.23593,0.00502-0.4537,0.12782-0.58008,0.32715c-0.10327,0.21298-0.14841,0.44949-0.13086,0.68555
		c0,0.1875,0,1.00391,0.71094,1.00391c0.23535-0.00539,0.45251-0.1277,0.5791-0.32617
		c0.1033-0.21333,0.14844-0.45015,0.13086-0.68652C149.79968,83.15137,149.79968,82.33496,149.08972,82.33496z"/>
	<path class="st3" d="M153.38171,85.8457c-1.01617-0.02588-1.81961-0.86951-1.7959-1.88574
		c-0.0437-0.98247,0.71588-1.81503,1.69824-1.86133c0.79944-0.01176,1.45703,0.62677,1.46881,1.42619
		c0.00085,0.05791-0.00177,0.11581-0.00787,0.17342c0,0.17188-0.02441,0.17188-0.2041,0.17188h-2.27734
		c-0.0289,0.42276,0.05573,0.84555,0.24512,1.22461c0.19186,0.33011,0.5412,0.53709,0.92288,0.54688
		c0.5137-0.00294,0.96323-0.34607,1.10156-0.84082c0.0166-0.06543,0.03223-0.11426,0.10645-0.11426
		c0.05139-0.0065,0.09833,0.02991,0.10483,0.08131c0.0007,0.00542,0.00089,0.01089,0.00064,0.01634
		C154.59076,85.41072,154.02695,85.84972,153.38171,85.8457z M153.28406,82.27832c-0.27734,0-0.96289,0.2041-1.01169,1.41992
		h1.93457C154.20691,83.37988,154.12488,82.27832,153.28406,82.27832z"/>
	<path class="st3" d="M156.60632,85.8457c-0.33502,0.011-0.65985-0.1161-0.89844-0.35156
		c-0.0585,0.05913-0.11298,0.12209-0.16309,0.18848c-0.15527,0.1543-0.16309,0.16309-0.2041,0.16309
		c-0.08984,0-0.08984-0.05762-0.08984-0.19629v-1.07715c0-0.14746,0-0.2041,0.10645-0.2041
		c0.08105,0,0.08984,0.03223,0.11426,0.13867c0.15527,0.69336,0.44922,1.15918,1.13477,1.15918
		c0.63672,0,0.92188-0.32715,0.92188-0.74316c0-0.58789-0.66895-0.71875-0.84863-0.75101
		c-0.38638-0.02518-0.75867-0.15479-1.07715-0.375c-0.21994-0.16321-0.35022-0.42046-0.35156-0.69434
		c0-0.457,0.31055-1.00391,1.30664-1.00391c0.27359-0.00943,0.54282,0.07082,0.7666,0.22852
		c0.05048-0.03925,0.0972-0.08304,0.13965-0.13086c0.10547-0.09766,0.12207-0.09766,0.16309-0.09766
		c0.08984,0,0.08984,0.05664,0.08984,0.19531v0.8252c0,0.15527,0,0.19531-0.10645,0.19531c0,0-0.08984,0-0.09766-0.07324
		c0.04883-0.4951-0.31296-0.93604-0.80807-0.98486c-0.04886-0.00482-0.09802-0.00563-0.147-0.00244
		c-0.70215,0-0.91501,0.334-0.91501,0.62012c0,0.47363,0.54688,0.5791,1.00488,0.66901
		c0.34341,0.03127,0.66861,0.16844,0.93066,0.39256c0.2178,0.19905,0.34216,0.48033,0.34277,0.77539
		C157.92078,85.29889,157.5448,85.8457,156.60632,85.8457z"/>
	<path class="st3" d="M163.01355,85.73145c-0.32715,0-1.03711,0-1.32324,0.02441v-0.25293h0.26172
		c0.73438,0,0.75879-0.09863,0.75879-0.39258v-4.22847c-0.33582,0.15082-0.70139,0.2236-1.06934,0.21289v-0.25391
		c0.54575,0.03438,1.08209-0.15416,1.4863-0.52246c0.1875,0,0.1875,0.0166,0.1875,0.21289v4.5791
		c0,0.30273,0.02441,0.39258,0.75879,0.39258h0.26172v0.25293C164.04968,85.73145,163.33972,85.73145,163.01355,85.73145z"/>
	<path class="st3" d="M167.02917,85.93555c-0.85684,0.07603-1.61334-0.55634-1.69043-1.41309
		c0.07364-0.68384,0.52963-1.26634,1.17578-1.502c-0.20883-0.13239-0.40793-0.27957-0.5957-0.44043
		c-0.23041-0.24242-0.35904-0.564-0.35938-0.89844c0.03055-0.78354,0.69049-1.39395,1.474-1.36342
		c0.00119,0.00005,0.00235,0.00009,0.00354,0.00014c0.74182-0.06975,1.39978,0.47499,1.46973,1.2168
		c-0.06104,0.57585-0.4444,1.0668-0.98828,1.26563c0.29599,0.15309,0.56833,0.34814,0.80859,0.5791
		c0.25552,0.27194,0.39825,0.63075,0.39941,1.00391C168.68527,85.28047,167.92599,85.97467,167.02917,85.93555z M167.70691,83.78027
		l-1.00488-0.63672c-0.55295,0.24271-0.92224,0.77592-0.95505,1.37891c0.0253,0.67986,0.59695,1.21045,1.27682,1.18513
		c0.00439-0.00017,0.00876-0.00035,0.01315-0.00056c0.63617,0.06258,1.20575-0.39465,1.28223-1.0293
		C168.28903,84.29105,168.05597,83.9494,167.70691,83.78027z M167.02917,80.52246c-0.58008,0-1.11035,0.34277-1.11035,0.84082
		c0.00446,0.27884,0.16107,0.5329,0.4082,0.66211l1.01172,0.65234c0.45642-0.20651,0.76566-0.64348,0.80859-1.14258
		c-0.02762-0.58707-0.52594-1.04059-1.11301-1.01295C167.03262,80.52229,167.03088,80.52237,167.02917,80.52246z"/>
	<path class="st3" d="M172.53015,84.98828c-0.31961,0.77983-1.21088,1.15291-1.99072,0.8333
		c-0.33514-0.13737-0.6105-0.38947-0.77686-0.71123c-0.28131-0.61572-0.40738-1.29105-0.36719-1.9668
		c-0.03494-0.63249,0.06839-1.265,0.30273-1.85352c0.22122-0.59077,0.78915-0.9794,1.41992-0.97168
		c0.60367,0.00093,1.14905,0.36052,1.3877,0.91499c0.42767,1.2137,0.43628,2.53572,0.02441,3.75488V84.98828z M172.07315,81.45313
		c-0.15527-0.80762-0.69336-0.95508-0.96289-0.95508c-0.2041,0-0.81641,0.07422-0.97168,1.04494
		c-0.05624,0.49855-0.07809,1.0004-0.06543,1.50195c-0.01471,0.57568,0.01532,1.15163,0.08984,1.72266
		c0.14746,0.78418,0.62891,0.98828,0.94727,0.98828c0.36719,0,0.832-0.24512,0.95508-1.02051
		c0.07715-0.55998,0.10718-1.12543,0.08984-1.69043c0.01508-0.53194-0.01236-1.06424-0.08206-1.59181H172.07315z"/>
	<path class="st3" d="M174.69327,82.44141c-0.62457,0.00269-1.13303-0.50145-1.13571-1.12601s0.50143-1.13303,1.12598-1.13571
		c0.62457-0.00269,1.13306,0.50145,1.13574,1.12601c0,0.00291,0,0.00584,0,0.00876
		C175.81741,81.93571,175.31451,82.43904,174.69327,82.44141z M174.69327,80.50684c-0.44388-0.00215-0.80548,0.35593-0.80762,0.7998
		c-0.00217,0.44388,0.35593,0.80547,0.7998,0.80762s0.80545-0.35593,0.80762-0.7998c0.00174-0.44371-0.35611-0.80504-0.7998-0.80757
		V80.50684z"/>
	<path class="st3" d="M180.9696,85.8457c-1.00507-0.01012-1.81235-0.8318-1.80469-1.83691
		c-0.05466-0.99886,0.71075-1.85291,1.70963-1.90758c0.99884-0.05466,1.85291,0.71077,1.90756,1.70963
		c0.0036,0.06593,0.0036,0.13202,0,0.19795c0.00946,1.00499-0.79755,1.82738-1.80255,1.83685
		C180.97626,85.84567,180.97293,85.84569,180.9696,85.8457z M181.89148,82.80859c-0.19128-0.32796-0.54221-0.52982-0.92188-0.53027
		c-0.38489,0.00566-0.7384,0.21339-0.93066,0.54688c-0.15637,0.35091-0.22379,0.73497-0.19629,1.11816
		c-0.02667,0.39468,0.0434,0.7899,0.2041,1.15137c0.1886,0.3371,0.5444,0.54619,0.93066,0.54688
		c0.40576-0.00244,0.77414-0.2375,0.94727-0.60449c0.14169-0.34634,0.20313-0.72028,0.17969-1.09375
		C182.13409,83.55298,182.06067,83.16165,181.89148,82.80859z"/>
	<path class="st3" d="M186.20984,85.8457v-0.73535c-0.16019,0.44344-0.58224,0.73796-1.05371,0.73535
		c-1.24023,0-1.24023-0.74316-1.24023-1.37988v-1.22461c0-0.72656,0-0.75101-0.63672-0.75101v-0.25293l1.2002-0.08984v2.71001
		c0,0.4248,0.03223,0.80859,0.71777,0.80859c0.5957,0,0.98828-0.55566,0.98828-1.26563v-1.45313
		c0-0.39941-0.06543-0.457-0.63672-0.457v-0.25293l1.19922-0.08984v2.89737c0,0.40039,0.06543,0.45799,0.6377,0.45799v0.25293
		L186.20984,85.8457z"/>
	<path class="st3" d="M189.45789,85.8457c-0.54422,0.0396-1.01749-0.36948-1.0571-0.9137
		c-0.00458-0.06294-0.00311-0.12617,0.00436-0.18884v-2.25293h-0.69434v-0.17969c0.7998-0.03223,1.04492-0.90625,1.05273-1.5752
		h0.2041v1.50195h1.168v0.25293h-1.168v2.26953c0,0.13867,0,0.88184,0.54785,0.88184c0.30176,0,0.54688-0.31055,0.54688-0.91499
		v-0.44824h0.2041v0.46484C190.26648,85.26563,190.03796,85.8457,189.45789,85.8457z"/>
	<path class="st3" d="M195.48132,85.8457c-1.00488-0.01019-1.81186-0.832-1.80371-1.83691
		c-0.05484-0.9986,0.71021-1.85257,1.7088-1.90739c0.9986-0.05484,1.85257,0.71021,1.90741,1.7088
		c0.00363,0.06615,0.00363,0.13245,0,0.19859c0.0098,1.00465-0.79666,1.82703-1.80133,1.83684
		C195.48877,85.84566,195.48505,85.84569,195.48132,85.8457z M196.40417,82.80859c-0.19168-0.32803-0.54291-0.52985-0.92285-0.53027
		c-0.38477,0.00613-0.73807,0.21375-0.93066,0.54688c-0.15564,0.35112-0.22269,0.73508-0.19531,1.11816
		c-0.02667,0.39468,0.04337,0.7899,0.2041,1.15137c0.18823,0.33743,0.54428,0.54666,0.93066,0.54688
		c0.40552-0.00247,0.77356-0.23759,0.94629-0.60449c0.14169-0.34634,0.20313-0.72028,0.17969-1.09375
		C196.64569,83.55309,196.57263,83.16188,196.40417,82.80859z"/>
	<path class="st3" d="M200.08484,80.93066c-0.18671,0.0069-0.34369-0.13887-0.35059-0.32559
		c-0.00031-0.00833-0.00031-0.01666,0-0.02499c-0.00177-0.15549,0.09741-0.29419,0.24512-0.34277
		c-0.08475-0.0381-0.17661-0.05774-0.26953-0.05762c-0.35938,0-0.75101,0.39258-0.75101,1.11037v0.94727h0.95508v0.25293h-0.93066
		v2.62891c0,0.29395,0.01563,0.38379,0.62012,0.38379h0.17188v0.25293c-0.32715-0.02441-0.71094-0.02441-1.03711-0.02441
		l-0.93066,0.02441v-0.25293c0.54688,0,0.63672,0,0.63672-0.36816v-2.64453h-0.64453v-0.25293h0.64459v-0.93843
		c-0.01859-0.69849,0.53256-1.27979,1.23105-1.29839c0.01154-0.00031,0.02304-0.00046,0.03458-0.00044
		c0.36044-0.0434,0.68839,0.21216,0.73438,0.57227c0.01181,0.18614-0.12952,0.3466-0.31567,0.3584
		C200.11401,80.93166,200.0994,80.93163,200.08484,80.93066z"/>
	<path class="st3" d="M205.17761,85.8457c-0.41513,0.0123-0.80243-0.2081-1.00391-0.57129v1.44434
		c0,0.36719,0.08984,0.36719,0.63672,0.36719v0.25293l-0.92188-0.02441l-0.91501,0.02441v-0.25293
		c0.54688,0,0.63672,0,0.63672-0.36719v-3.82031c0-0.35938-0.05664-0.4082-0.63672-0.4082V82.2373l1.17578-0.08984v0.53906
		c0.28027-0.34254,0.69998-0.54056,1.14258-0.53906c0.97833,0.04306,1.73944,0.86603,1.70605,1.84473
		C207.00543,85.00601,206.19141,85.83487,205.17761,85.8457z M205.22742,82.35156c-0.44373,0.01053-0.84698,0.26054-1.05371,0.65332
		v1.82031c-0.01428,0.12552,0.02753,0.25093,0.11426,0.34277c0.18018,0.30338,0.50461,0.49182,0.85742,0.498
		c0.60449,0,1.17578-0.68555,1.17578-1.67383C206.32117,83.07031,205.82312,82.35156,205.22742,82.35156z"/>
	<path class="st3" d="M210.73627,85.73145l-0.92188,0.02441v-0.25293c0.54688,0,0.63672,0,0.63672-0.36816V83.2334
		c0-0.46582-0.08984-0.90625-0.60449-0.90625c-0.65646,0.04655-1.15091,0.61649-1.10434,1.27295
		c0.00076,0.01093,0.00171,0.02182,0.00278,0.03271v1.502c0,0.36816,0.08984,0.36816,0.63672,0.36816v0.25293l-0.91501-0.02441
		l-0.92188,0.02441v-0.25293c0.54688,0,0.63672,0,0.63672-0.36816v-4.24414c0-0.40039-0.06543-0.45799-0.63672-0.45799v-0.25293
		l1.17578-0.08984v2.84082h0.00781c0.19971-0.47298,0.66238-0.78116,1.17578-0.7832
		c0.31583-0.02901,0.62857,0.08119,0.85645,0.30176c0.25293,0.29395,0.25293,0.54688,0.25293,1.24899v1.55957
		c0.00879,0.24512,0.21289,0.24512,0.6377,0.24512v0.25293L210.73627,85.73145z"/>
	<path class="st3" d="M215.0946,85.80469c-0.35388-0.02432-0.6304-0.31526-0.63672-0.66992
		c-0.17371,0.43646-0.59967,0.71964-1.06934,0.71094c-0.51367,0-1.30566-0.2041-1.30566-0.86523
		c0.02814-0.48799,0.35199-0.90907,0.81641-1.06152c0.47681-0.19467,0.987-0.29451,1.50201-0.29395v-0.30176
		c0.06717-0.50629-0.28882-0.97116-0.7951-1.03833c-0.02328-0.00308-0.04669-0.00528-0.07013-0.00659
		c-0.33456-0.00951-0.65662,0.12744-0.88184,0.375c0.375,0.00879,0.41599,0.27734,0.41599,0.37601
		c-0.00085,0.2074-0.16968,0.37485-0.37708,0.37401c-0.2074-0.00085-0.37485-0.16968-0.37399-0.37708
		c0-0.00191,0.00003-0.0038,0.00006-0.00571c0-0.53809,0.56348-0.92188,1.23242-0.92188
		c0.41818-0.00638,0.82141,0.15547,1.11914,0.44922c0.23364,0.26277,0.34103,0.61441,0.29401,0.96289v1.63281
		c0,0.041,0.03223,0.4082,0.30176,0.4082c0.08984,0,0.29395-0.04883,0.29395-0.52248v-0.457h0.2041v0.457
		c0.04553,0.3801-0.22568,0.72514-0.60577,0.77068C215.13748,85.80257,215.11606,85.80412,215.0946,85.80469z M214.40125,83.79689
		c-1.34668,0.04883-1.69043,0.72559-1.69043,1.1748c0.0047,0.38853,0.32346,0.69969,0.71201,0.69501
		c0.00778-0.00009,0.01556-0.00032,0.02335-0.00067c0.54147-0.01262,0.97018-0.46181,0.95755-1.00327
		c-0.0004-0.01685-0.00122-0.03366-0.00247-0.05045V83.79689z"/>
	<path class="st3" d="M217.52725,85.8457c-0.33502,0.01102-0.65985-0.1161-0.89844-0.35156
		c-0.0585,0.05913-0.11298,0.12209-0.16309,0.18848c-0.15527,0.1543-0.16309,0.16309-0.2041,0.16309
		c-0.08984,0-0.08984-0.05762-0.08984-0.19629v-1.07715c0-0.14746,0-0.2041,0.10645-0.2041
		c0.08105,0,0.08984,0.03223,0.11426,0.13867c0.15527,0.69336,0.44922,1.15918,1.13477,1.15918
		c0.63672,0,0.92188-0.32715,0.92188-0.74316c0-0.58789-0.66895-0.71875-0.84863-0.75101
		c-0.38638-0.02518-0.75867-0.15479-1.07715-0.375c-0.21994-0.16321-0.35019-0.42046-0.35156-0.69434
		c0-0.457,0.31055-1.00391,1.30664-1.00391c0.27362-0.00943,0.54282,0.07082,0.7666,0.22852
		c0.05048-0.03925,0.09723-0.08304,0.13965-0.13086c0.10547-0.09766,0.12207-0.09766,0.16309-0.09766
		c0.08984,0,0.08984,0.05664,0.08984,0.19531v0.8252c0,0.15527,0,0.19531-0.10645,0.19531c0,0-0.08984,0-0.09766-0.07324
		c0.04883-0.4951-0.31296-0.93604-0.80804-0.98486c-0.04886-0.00482-0.09805-0.00563-0.14703-0.00244
		c-0.70215,0-0.91501,0.334-0.91501,0.62012c0,0.47363,0.54688,0.5791,1.00488,0.66901
		c0.34341,0.03127,0.66861,0.16844,0.93066,0.39256c0.2178,0.19905,0.34213,0.48033,0.34277,0.77539
		C218.84167,85.29889,218.4657,85.8457,217.52725,85.8457z"/>
	<path class="st3" d="M221.14246,85.8457c-1.01617-0.02588-1.81961-0.86951-1.7959-1.88574
		c-0.04373-0.98247,0.71588-1.81503,1.69824-1.86133c0.79944-0.01176,1.45703,0.62677,1.46878,1.42619
		c0.00085,0.05791-0.00177,0.11581-0.00784,0.17342c0,0.17188-0.02441,0.17188-0.2041,0.17188h-2.27737
		c-0.0289,0.42276,0.05573,0.84555,0.24512,1.22461c0.19186,0.33009,0.54117,0.53709,0.92285,0.54688
		c0.5137-0.00294,0.96323-0.34607,1.10156-0.84082c0.0166-0.06543,0.03223-0.11426,0.10645-0.11426
		c0.05139-0.0065,0.09833,0.02989,0.10483,0.0813c0.0007,0.00542,0.00092,0.01089,0.00064,0.01636
		C222.35144,85.41071,221.78769,85.84969,221.14246,85.8457z M221.0448,82.27832c-0.27734,0-0.96289,0.2041-1.01172,1.41992h1.93457
		C221.96765,83.37988,221.88562,82.27832,221.0448,82.27832z"/>
</g>
</svg>
