<svg id="Layer_1" data-name="Layer 1" xmlns="http://www.w3.org/2000/svg" viewBox="0 0 50 22.22223">
  <defs>
    <style>
      .cls-1 {
        fill: #8ff4dd;
        fill-rule: evenodd;
      }

      .cls-2, .cls-3 {
        fill: none;
        stroke: #8ff4dd;
      }

      .cls-2 {
        stroke-width: 1.5px;
      }

      .cls-3 {
        stroke-width: 2px;
      }
    </style>
  </defs>
  <title>XNORGate</title>
  <g>
    <g>
      <path class="cls-1" d="M85.69444,109.44444c-.88743,1.46912-1.25,1.66667-1.25,1.66667H82.41319l1.11112-1.35417a16.71871,16.71871,0,0,0,0-19.51389l-1.11112-1.35416h2.03125a11.2309,11.2309,0,0,1,1.23264,1.66666A18.25872,18.25872,0,0,1,88.33333,100,18.46305,18.46305,0,0,1,85.69444,109.44444Z" transform="translate(-75 -88.88889)"/>
      <path class="cls-1" d="M85.60764,88.88889l1.11111,1.35416a16.71871,16.71871,0,0,1,0,19.51389l-1.11111,1.35417h9.53125a19.22686,19.22686,0,0,0,7.56944-1.33681c3.29739-1.35042,6.96475-4.07959,9.82639-9.375L111.80556,100l.72916-.39931c-5.72395-10.592-14.75329-10.7118-17.39583-10.7118Zm3.26389,1.66666h6.26736c2.60232,0,10.15936-.07233,15.53819,9.44445-2.64821,4.68282-5.84515,7.04661-8.73264,8.22916a16.95891,16.95891,0,0,1-6.80555,1.21528h-6.25a18.169,18.169,0,0,0-.01736-18.88889Z" transform="translate(-75 -88.88889)"/>
    </g>
    <path class="cls-2" d="M116.11111,100a2.22222,2.22222,0,1,1-2.22222-2.22222A2.22222,2.22222,0,0,1,116.11111,100Z" transform="translate(-75 -88.88889)"/>
    <line class="cls-3" x1="41" y1="11.11111" x2="50" y2="11.1111"/>
    <line class="cls-3" x1="15" y1="5.11111" y2="5.11111"/>
    <line class="cls-3" x1="15" y1="17.11111" y2="17.11111"/>
  </g>
</svg>
