<svg xmlns="http://www.w3.org/2000/svg" viewBox="0 0 215.417 112.22222">
  <defs>
    <style>
      .cls-1, .cls-4, .cls-5, .cls-6 {
        fill: none;
        stroke: #8ff4dd;
      }

      .cls-1 {
        stroke-miterlimit: 10;
      }

      .cls-2, .cls-3 {
        fill: #8ff4dd;
      }

      .cls-3 {
        fill-rule: evenodd;
      }

      .cls-4, .cls-6 {
        stroke-width: 2px;
      }

      .cls-5 {
        stroke-width: 1.5px;
      }

      .cls-6 {
        stroke-linecap: square;
      }
    </style>
  </defs>
  <title>XORXNOREquivalentGIC</title>
  <g id="Layer_1" data-name="Layer 1">
    <g>
      <line class="cls-1" x1="62.5" y1="26.11111" x2="86.4155" y2="26.11111"/>
      <polygon class="cls-2" points="83.102 30.201 82.42 29.469 86.032 26.112 82.42 22.755 83.102 22.022 87.5 26.112 83.102 30.201"/>
    </g>
    <g>
      <line class="cls-1" x1="62.5" y1="86.11111" x2="86.4155" y2="86.11111"/>
      <polygon class="cls-2" points="83.102 90.201 82.42 89.469 86.032 86.112 82.42 82.755 83.102 82.022 87.5 86.112 83.102 90.201"/>
    </g>
    <g>
      <g>
        <path class="cls-3" d="M60.69444,129.44444c-.88742,1.46911-1.25,1.66667-1.25,1.66667H57.41319l1.11112-1.35417a16.71871,16.71871,0,0,0,0-19.51389l-1.11112-1.35416h2.03125a11.2309,11.2309,0,0,1,1.23264,1.66666A18.25872,18.25872,0,0,1,63.33333,120,18.46305,18.46305,0,0,1,60.69444,129.44444Z" transform="translate(-50 -93.88889)"/>
        <path class="cls-3" d="M60.60764,108.88889l1.11111,1.35416a16.71871,16.71871,0,0,1,0,19.51389l-1.11111,1.35417h9.53125a19.227,19.227,0,0,0,7.56944-1.33681c3.29739-1.35042,6.96475-4.07959,9.82639-9.375L86.80556,120l.72916-.39931c-5.72395-10.592-14.75329-10.7118-17.39583-10.7118Zm3.26389,1.66666h6.26736c2.60232,0,10.15936-.07233,15.53819,9.44445-2.64821,4.68281-5.84515,7.04661-8.73264,8.22916a16.95891,16.95891,0,0,1-6.80555,1.21528h-6.25a18.169,18.169,0,0,0-.01736-18.88889Z" transform="translate(-50 -93.88889)"/>
      </g>
      <line class="cls-4" x1="36" y1="26.11111" x2="50" y2="26.11111"/>
      <line class="cls-4" x1="15" y1="20.11111" y2="20.11111"/>
      <line class="cls-4" x1="15" y1="32.11111" y2="32.11111"/>
    </g>
    <g>
      <g>
        <path class="cls-3" d="M60.69444,189.44444c-.88743,1.46912-1.25,1.66667-1.25,1.66667H57.41319l1.11112-1.35417a16.71871,16.71871,0,0,0,0-19.51389l-1.11112-1.35416h2.03125a11.2309,11.2309,0,0,1,1.23264,1.66666A18.25872,18.25872,0,0,1,63.33333,180,18.46305,18.46305,0,0,1,60.69444,189.44444Z" transform="translate(-50 -93.88889)"/>
        <path class="cls-3" d="M60.60764,168.88889l1.11111,1.35416a16.71871,16.71871,0,0,1,0,19.51389l-1.11111,1.35417h9.53125a19.22686,19.22686,0,0,0,7.56944-1.33681c3.29739-1.35042,6.96475-4.07959,9.82639-9.375L86.80556,180l.72916-.39931c-5.72395-10.592-14.75329-10.7118-17.39583-10.7118Zm3.26389,1.66666h6.26736c2.60232,0,10.15936-.07233,15.53819,9.44445-2.64821,4.68282-5.84515,7.04661-8.73264,8.22916a16.95891,16.95891,0,0,1-6.80555,1.21528h-6.25a18.169,18.169,0,0,0-.01736-18.88889Z" transform="translate(-50 -93.88889)"/>
      </g>
      <path class="cls-5" d="M91.11111,180a2.22222,2.22222,0,1,1-2.22222-2.22222A2.22222,2.22222,0,0,1,91.11111,180Z" transform="translate(-50 -93.88889)"/>
      <line class="cls-4" x1="41" y1="86.11111" x2="50" y2="86.1111"/>
      <line class="cls-4" x1="15" y1="80.11111" y2="80.11111"/>
      <line class="cls-4" x1="15" y1="92.11111" y2="92.11111"/>
    </g>
  </g>
  <g id="Layer_2" data-name="Layer 2">
    <g>
      <g>
        <path class="cls-2" d="M179.30556,93.88889v22.22222h11.37566a11.11111,11.11111,0,0,0,0-22.22222Zm1.5873,1.5873h9.78836A9.19007,9.19007,0,0,1,199.94047,105a9.40935,9.40935,0,0,1-9.52381,9.52381h-9.5238Z" transform="translate(-50 -93.88889)"/>
        <path class="cls-5" d="M206.52778,105a2.22223,2.22223,0,1,1-2.22222-2.22222A2.22222,2.22222,0,0,1,206.52778,105Z" transform="translate(-50 -93.88889)"/>
        <line class="cls-4" x1="156.41667" y1="11.11111" x2="165.41667" y2="11.11111"/>
        <line class="cls-4" x1="130.41667" y1="5.11111" x2="115.41667" y2="5.11111"/>
        <line class="cls-4" x1="130.41667" y1="17.11111" x2="115.41667" y2="17.11111"/>
      </g>
      <g>
        <path class="cls-3" d="M176.02431,123.88888l1.11111,1.35417a16.71871,16.71871,0,0,1,0,19.51389l-1.11111,1.35417h9.53125a19.22686,19.22686,0,0,0,7.56944-1.33681c3.29739-1.35042,6.96474-4.07959,9.82639-9.375L202.22222,135l.72917-.39931c-5.724-10.592-14.75329-10.71181-17.39583-10.71181Zm3.26388,1.66667h6.26737c2.60231,0,10.15936-.07234,15.53819,9.44445-2.64821,4.68281-5.84516,7.04661-8.73264,8.22916a16.95894,16.95894,0,0,1-6.80555,1.21528h-6.25a18.169,18.169,0,0,0-.01737-18.88889Z" transform="translate(-50 -93.88889)"/>
        <line class="cls-4" x1="165.41667" y1="41.11111" x2="151.41667" y2="41.11111"/>
        <line class="cls-4" x1="130.41667" y1="35.11111" x2="115.41667" y2="35.11111"/>
        <line class="cls-4" x1="130.41667" y1="47.11111" x2="115.41667" y2="47.11111"/>
      </g>
      <g>
        <path class="cls-2" d="M229.30556,108.88889v22.22222h11.37566a11.11111,11.11111,0,0,0,0-22.22222Zm1.5873,1.5873h9.78836A9.19007,9.19007,0,0,1,249.94047,120a9.40935,9.40935,0,0,1-9.52381,9.52381h-9.5238Z" transform="translate(-50 -93.88889)"/>
        <line class="cls-4" x1="201.41667" y1="26.11111" x2="215.41667" y2="26.11111"/>
        <line class="cls-4" x1="180.41667" y1="20.11111" x2="165.41667" y2="20.11111"/>
        <line class="cls-4" x1="180.41667" y1="32.11111" x2="165.41667" y2="32.11111"/>
      </g>
      <line class="cls-6" x1="165.41667" y1="11.11111" x2="165.41667" y2="20.11111"/>
      <line class="cls-6" x1="165.41667" y1="32.11111" x2="165.41667" y2="41.11111"/>
      <polyline class="cls-6" points="115.833 35.111 115.833 17.111 100 17.111"/>
      <polyline class="cls-6" points="115.417 47.111 110.417 47.111 110.417 5.111 115.417 5.111"/>
      <line class="cls-6" x1="110.41667" y1="5.11111" x2="100.41667" y2="5.11111"/>
      <circle class="cls-2" cx="115.91667" cy="17.11111" r="2.5"/>
      <circle class="cls-2" cx="110.41667" cy="5.11111" r="2.5"/>
    </g>
    <g>
      <g>
        <path class="cls-3" d="M175.60764,153.88889l1.11111,1.35416a16.71871,16.71871,0,0,1,0,19.51389l-1.11111,1.35417h9.53125a19.22686,19.22686,0,0,0,7.56944-1.33681c3.29739-1.35042,6.96475-4.07959,9.82639-9.375L201.80556,165l.72916-.39931c-5.724-10.592-14.75329-10.7118-17.39583-10.7118Zm3.26389,1.66666h6.26736c2.60232,0,10.15936-.07233,15.53819,9.44445-2.64821,4.68282-5.84515,7.04662-8.73264,8.22917a16.959,16.959,0,0,1-6.80555,1.21527h-6.25a18.169,18.169,0,0,0-.01736-18.88889Z" transform="translate(-50 -93.88889)"/>
        <path class="cls-5" d="M206.11111,165a2.22222,2.22222,0,1,1-2.22222-2.22222A2.22222,2.22222,0,0,1,206.11111,165Z" transform="translate(-50 -93.88889)"/>
        <line class="cls-4" x1="156" y1="71.11111" x2="165" y2="71.11111"/>
        <line class="cls-4" x1="130" y1="65.11111" x2="115" y2="65.11111"/>
        <line class="cls-4" x1="130" y1="77.11111" x2="115" y2="77.11111"/>
      </g>
      <g>
        <path class="cls-2" d="M178.88889,183.88889v22.22222h11.37566a11.11111,11.11111,0,0,0,0-22.22222Zm1.5873,1.5873h9.78836A9.19008,9.19008,0,0,1,199.52381,195,9.40935,9.40935,0,0,1,190,204.52381h-9.52381Z" transform="translate(-50 -93.88889)"/>
        <line class="cls-4" x1="151" y1="101.11111" x2="165" y2="101.11111"/>
        <line class="cls-4" x1="130" y1="95.11111" x2="115" y2="95.11111"/>
        <line class="cls-4" x1="130" y1="107.11111" x2="115" y2="107.11111"/>
      </g>
      <g>
        <path class="cls-3" d="M226.02464,168.88889l1.11111,1.35416a16.71871,16.71871,0,0,1,0,19.51389l-1.11111,1.35417h9.53125a19.22686,19.22686,0,0,0,7.56944-1.33681c3.29739-1.35042,6.96475-4.07959,9.82639-9.375L252.22256,180l.72916-.39931c-5.724-10.592-14.75329-10.7118-17.39583-10.7118Zm3.26389,1.66666h6.26736c2.60232,0,10.15936-.07233,15.53819,9.44445-2.64821,4.68282-5.84515,7.04662-8.73264,8.22917a16.959,16.959,0,0,1-6.80555,1.21527h-6.25a18.169,18.169,0,0,0-.01736-18.88889Z" transform="translate(-50 -93.88889)"/>
        <line class="cls-4" x1="215.417" y1="86.11111" x2="201.417" y2="86.11111"/>
        <line class="cls-4" x1="180.417" y1="80.11111" x2="165.417" y2="80.11111"/>
        <line class="cls-4" x1="180.417" y1="92.11111" x2="165.417" y2="92.11111"/>
      </g>
      <line class="cls-6" x1="165.41667" y1="71.11111" x2="165.41667" y2="80.11111"/>
      <line class="cls-6" x1="165.41667" y1="92.11111" x2="165.41667" y2="101.11111"/>
      <polyline class="cls-4" points="115.833 96.111 115.833 77.111 100 77.111"/>
      <polyline class="cls-4" points="115.417 107.111 110.417 107.111 110.417 65.111 115.417 65.111"/>
      <line class="cls-4" x1="110.41667" y1="65.11111" x2="100.41667" y2="65.11111"/>
      <circle class="cls-2" cx="115.91667" cy="77.11111" r="2.5"/>
      <circle class="cls-2" cx="110.41667" cy="65.11111" r="2.5"/>
    </g>
  </g>
</svg>
